mtllib Sawsbuck_Spring.mtl
v 0 0.321874 0.36044
vt 0.0293856 0.0559578
vn -0.124454 0.06563432 0.9900522
v -0.0871003 0.361256 0.275681
vt 0.017976 0.0665355
vn -0.793647 0.606616 0.0462761
v -0.127752 0.255511 0.295626
vt 0.0126509 0.0381334
vn -0.6285481 -0.467236 0.6217861
v 0 0.379103 0.320446
vt 0.0293856 0.0713289
vn -0.0445107 0.695698 0.716954
v -0.0721893 0.277527 0.248988
vt 0.0199293 0.0440466
vn -0.5794531 -0.7387821 -0.344144
v 0.0871003 0.375047 0.274442
vt 0.0407951 0.0702394
vn 0.7049572 0.7047722 0.07957092
v -0.00270982 0.204967 0.352136
vt 0.0290306 0.0245579
vn -0.7064381 -0.2532361 0.6609211
v 0.123178 0.310763 0.2824
vt 0.0455211 0.0529736
vn 0.7632403 -0.3665561 0.5320722
v 0 0.260667 0.299794
vt 0.0293856 0.0395183
vn 0.358888 -0.7851999 -0.504639
v 0.0678277 0.308532 0.251062
vt 0.0382705 0.0523743
vn 0.7114573 -0.6595023 -0.2426631
v 0.0345246 0.225253 0.309799
vt 0.0339081 0.0300064
vn 0.8220458 -0.3592119 0.4418229
v 0 0.412231 0.266276
vt 0.0293856 0.0802267
vn -0.07787949 0.9913667 -0.105484
v 0.134877 0.900286 0.254847
vt 0.112579 0.0144459
vn -0.198984 0.579361 0.7904089
v 0.0784646 0.728696 0.286503
vt 0.112873 0.012234
vn 0.05663307 0.1630959 0.9849835
v 0.118419 0.712299 0.239231
vt 0.114775 0.0122579
vn 0.9555367 -0.2946289 0.0119792
v 0.0282802 0.741228 0.240197
vt 0.110581 0.0124596
vn -0.916651 0.392847 0.073636
v 0.173155 0.88069 0.215055
vt 0.114577 0.0144459
vn 0.8263321 -0.5589461 -0.06895371
v 0.112221 0.888472 0.193941
vt 0.110581 0.0144459
vn -0.59297 0.473818 -0.651063
v 0.25748 0.944264 0.165977
vt 0.114577 0.0164968
vn 0.7794212 -0.6010482 -0.1767591
v 0.22875 0.959531 0.190854
vt 0.112579 0.0164968
vn -0.2713759 0.5971937 0.7547946
v 0.0743893 0.7228 0.19286
vt 0.116576 0.0124596
vn -0.02398109 -0.08174736 -0.9963645
v 0.207832 0.948966 0.133673
vt 0.110581 0.0164968
vn -0.495221 -0.09497391 -0.8635601
vt 0.116576 0.0164968
v 0.2518 1.05503 0.175316
vt 0.112579 0.0185173
vn -0.07895073 0.107896 0.9910223
v 0.254746 1.03974 0.120538
vt 0.116576 0.0185173
vn -0.7168617 -0.3145249 -0.6222407
v 0.286526 1.04346 0.148119
vt 0.114577 0.0185173
vn 0.8749058 -0.4007859 0.271865
vn 0.63877 -0.339918 -0.6902381
vt 0.116576 0.0144459
v 0.23567 1.04969 0.148664
vt 0.110581 0.0185173
vn -0.9282877 -0.135355 -0.3463539
vn -0.8197495 0.3918522 0.4176872
v -0.134877 0.900286 0.254847
vn 0.198984 0.579361 0.7904089
v -0.118419 0.712299 0.239231
vn -0.9555367 -0.2946289 0.0119794
v -0.0784646 0.728696 0.286503
vn -0.05663332 0.1630961 0.9849834
v -0.173155 0.88069 0.215055
vn -0.8263321 -0.5589461 -0.06895351
v -0.0282802 0.741228 0.240197
vn 0.916651 0.392847 0.0736361
v -0.25748 0.944264 0.165977
vn -0.7794213 -0.6010483 -0.1767581
v -0.112221 0.888472 0.193941
vn 0.5929703 0.4738172 -0.6510633
v -0.22875 0.959531 0.190854
vn 0.2713759 0.5971937 0.7547946
v -0.0743893 0.7228 0.19286
vn 0.02398099 -0.08174736 -0.9963645
v -0.2518 1.05503 0.175316
vn 0.07895043 0.1078951 0.9910225
v -0.207832 0.948966 0.133673
vn 0.495221 -0.09497391 -0.8635601
v -0.286526 1.04346 0.148119
vn -0.8749058 -0.4007859 0.271865
v -0.254746 1.03974 0.120538
vn 0.7168614 -0.3145242 -0.6222414
vn -0.6371329 -0.349229 -0.6870959
v -0.23567 1.04969 0.148664
vn 0.8197491 0.3918521 0.4176881
vn 0.9282873 -0.135355 -0.3463551
v -0.148689 0.343465 0.182321
vt 0.497012 0.360304
vn -0.7352039 0.6737719 0.07420789
v -0.165988 0.2616367 -0.2124145
vt 0.0876682 0.326309
vn -0.8730044 0.1388542 -0.4675282
v -0.165988 0.2616367 0.2278235
vt 0.552527 0.326309
vn -0.8314626 0.08776329 0.5486051
v -0.133669 0.31772 -0.199734
vt 0.0840133 0.389818
vn -0.466132 0.8580949 -0.215393
v 0 0.343465 0.28382
vt 0.611641 0.652483
vn 0 0.26633 0.9638819
v 0 0.369672 0.102628
vt 0.429477 0.652483
vn 0 0.9675031 -0.252859
v 0 0.508045 0.244295
vt 0.567002 0.652483
vn 0 0.9746379 0.223788
v 0 0.2616367 -0.2994146
vt -0.0470441 0.652483
vn 0 0.209067 -0.9779013
v 0.148689 0.343465 0.182322
vt 0.497012 0.944662
vn 0.7352039 0.6737719 0.07420789
v 0.165988 0.2616367 0.2278235
vt 0.552527 0.978656
vn 0.8314629 0.08776311 0.5486046
v 0 0.343465 -0.236476
vt 0.0539926 0.652483
vn 0 0.9578814 -0.2871641
v 0.165988 0.2616367 -0.2124145
vt 0.0876683 0.978656
vn 0.8730044 0.1388542 -0.4675282
v 0.133669 0.31772 -0.199734
vt 0.0840134 0.915148
vn 0.4661312 0.8580953 -0.2153931
v 0 0.423952 0.422049
vt 0.945051 0.334479
vn 0 -0.9978841 0.06501831
v 0.0488556 0.426322 0.524934
vt 0.962767 0.136979
vn 0.236144 -0.934591 0.266037
v 0 0.426322 0.524934
vn 0 -0.9847813 0.173798
v 0.0818079 0.423952 0.422049
vn 0.361223 -0.9249201 0.118494
v -0.0488556 0.426322 0.524934
vn -0.236144 -0.934591 0.266037
v 0 0.410996 0.271562
vt 0.986746 0.66587
vn 0 -0.9999937 -0.003530589
v -0.0818079 0.423952 0.422049
vn -0.361223 -0.9249201 0.118494
v 0 0.479915 0.584064
vt 0.883103 -0.00416338
vn 0 -0.4422171 0.8969081
v 0.085135 0.471334 0.54198
vt 0.84848 0.102186
vn 0.811052 -0.302634 0.500607
v -0.085135 0.471334 0.54198
vn -0.8110524 -0.3026341 0.5006062
vt 0.883022 -0.00417082
v 0.0979071 0.410996 0.271562
vn 0.423876 -0.9053971 -0.0241919
v -0.0979071 0.410996 0.271562
vn -0.423876 -0.9053971 -0.024192
v 0 0.436147 0.159802
vt 0.947394 0.889201
vn 0 -0.8479658 -0.5300509
v 0.0711747 0.528885 0.56266
vt 0.761411 0.0768459
vn 0.671621 0.371476 0.641039
v 0.131776 0.501092 0.413643
vt 0.828436 0.381946
vn 0.9100058 -0.312183 0.272821
v 0.115521 0.566736 0.429699
vt 0.734456 0.331172
vn 0.8373719 0.249421 0.4864129
v -0.0711747 0.528885 0.56266
vt 0.761393 0.0768401
vn -0.671621 0.371476 0.641039
v -0.131776 0.501092 0.413643
vn -0.9100058 -0.312183 0.272821
v 0.129872 0.470344 0.157451
vt 0.865181 0.943491
vn 0.6220299 -0.6126299 -0.4876099
v -0.129872 0.470344 0.157451
vn -0.6220299 -0.6126299 -0.4876099
v 0.185124 0.536029 0.292921
vt 0.791193 0.625379
vn 0.9516262 -0.2948031 0.08659562
v -0.115521 0.566736 0.429699
vn -0.8373719 0.249421 0.4864129
v -0.185124 0.536029 0.292921
vn -0.9516262 -0.2948031 0.08659562
v 0.16149 0.586047 0.119843
vt 0.664284 0.969052
vn 0.7565279 -0.06569979 -0.6506529
v -0.16149 0.586047 0.119843
vn -0.7565279 -0.06569979 -0.6506529
v 0.187276 0.641513 0.2981
vt 0.632959 0.612836
vn 0.9533411 0.2275 0.198455
v -0.187276 0.641513 0.2981
vn -0.9533411 0.2275 0.198455
v 0 0.776769 0.159671
vt 0.0359275 0.69414
vn 0 0.9411245 -0.3380602
v 0.142319 0.704584 0.146677
vt 0.0364875 0.692095
vn 0.6783427 0.5912507 -0.4362038
v 0 0.690375 0.0522171
vt 0.039749 0.690984
vn 0 0.3438989 -0.9390067
v 0.138367 0.727291 0.30328
vt 0.0297379 0.692588
vn 0.640934 0.719231 0.268161
v -0.142319 0.704584 0.146677
vn -0.6783427 0.5912507 -0.4362038
v 0 0.789547 0.290205
vt 0.0303015 0.694982
vn 0 0.9959878 0.08948878
v -0.138367 0.727291 0.30328
vn -0.640934 0.719231 0.268161
vt 0.0376441 0.689031
vt 0.0299612 0.689599
v 0 0.750346 0.400127
vt 0.0255639 0.694019
vn 0 0.736852 0.6760541
v 0 0.529048 0.0610418
vt 0.0393687 0.686411
vn 0 -0.3185309 -0.9479125
vt 0.0370928 0.685268
v 0.0789714 0.606369 0.445346
vt 0.0227912 0.689338
vn 0.558647 0.537902 0.631328
v -0.0789714 0.606369 0.445346
vn -0.5586463 0.5379023 0.6313283
vt 0.0359219 0.683778
v 0 0.628562 0.466215
vt 0.0220949 0.69
vn 0 0.6418828 0.7668028
v 0 0.566151 0.55566
vt 0.0180072 0.68787
vn 0 0.8236738 0.5670639
vt 0.0184011 0.687147
vt 0.0238863 0.687636
v 0 0.2616367 0.2995982
vt 0.0100848 0.262482
vn 0 -0.119747 0.9928045
v 0 0.1700799 0.261501
vt 0.0100848 0.0766007
vn 0 -0.4956259 0.8685361
vt 0.211107 0.259124
vt 0.0100848 0.443111
v 0.26833 0.7167861 0.203398
vt 0.032519 0.741318
vn 0.00278316 0.00426379 -0.9999871
v 0.141069 0.658125 0.276099
vt 0.032505 0.772988
vn -0.7595631 -0.344581 0.551659
v 0.242312 0.774686 0.276623
vt 0.0223465 0.741318
vn -0.3429908 0.7573797 0.5556378
v 0.294348 0.6588861 0.276623
vt 0.041163 0.741318
vn 0.3436159 -0.7551236 0.5583158
v 0.402045 0.7768731 0.276696
vn 0.7504663 0.3372331 0.5683962
v -0.26833 0.7167861 0.203398
v -0.242312 0.774686 0.276623
vn 0.34299 0.7573799 0.555638
v -0.141069 0.658125 0.276099
vn 0.7595631 -0.344581 0.551659
v -0.402045 0.7768731 0.276696
vn -0.7504667 0.3372329 0.5683958
v -0.294348 0.6588861 0.276623
vn -0.3436159 -0.7551236 0.5583158
v 0 0.5346 0.602593
vt 0.10416 0.0311276
vt 0.106423 0.0209474
vt 0.11108 0.031311
vt 0.109687 0.0343864
v 0.302051 1.10203 0.128634
vt 0.28717 0.641436
vn 1 0 0
v 0.265241 1.10203 0.0918242
vt 0.272071 0.641436
v 0.265241 1.13884 0.128634
vt 0.272071 0.656535
vn 0 1 0
v 0.265241 1.06522 0.128634
vt 0.272071 0.626336
v 0.265241 1.10203 0.165443
vn 0 0 1
v 0.228432 1.10203 0.128634
vt 0.256971 0.641436
vn -1 0 0
v -0.173887 0.9791 0.122463
v -0.210697 0.9791 0.0856533
v -0.210697 1.01591 0.122463
v -0.210697 0.942291 0.122463
v -0.210697 0.9791 0.159272
v -0.247506 0.9791 0.122463
v -0.13999 0.1716166 -0.1096763
vt 0.52898 0.0600545
vn -0.7798074 -0.5494939 0.2999282
v 0 0.1521746 0.1150103
vt 0.259978 0.00616075
vn 0 -0.9796314 -0.200804
v -0.13999 0.1771208 0.1140473
vt 0.250959 0.0600545
vn -0.7277125 -0.5752723 -0.3734921
v 0 0.1573185 -0.1124373
vt 0.532492 0.00835568
vn 0 -0.9847813 0.1737981
vt 0.0996384 0.29942
vt 0.677978 0.29942
v 0.13999 0.1716166 -0.1096763
vn 0.7798074 -0.5494939 0.2999282
v 0.13999 0.1771208 0.1140473
vn 0.7277125 -0.5752723 -0.3734921
v 0 0.279107 -0.383672
vt 0.0430987 0.720347
vn 0 -0.6995595 -0.7145745
v -0.0774117 0.265918 -0.211843
vt 0.0241609 0.706276
vn -0.5679411 -0.7607151 -0.314254
v 0 0.343264 -0.23218
vt 0.0243244 0.732465
vn 0 0.9208276 -0.3899699
v 0.0774117 0.265918 -0.211843
vn 0.5679411 -0.7607151 -0.314254
v 0.196222 1.01347 0.384828
vt 0.161208 0.0302795
vn -0.4450561 0.6429732 0.6233062
v 0.117138 0.879772 0.215531
vt 0.107667 0.0312785
vn -0.7768342 0.6172612 -0.124568
v 0.13263 0.852057 0.237308
vt 0.107667 0.0302795
vn -0.256211 -0.5951738 0.7616588
v 0.152171 0.870068 0.216686
vt 0.107667 0.0292805
vn 0.8891857 0.2059319 -0.4085838
v -0.196222 1.01347 0.384828
vn 0.4450561 0.6429722 0.6233072
v -0.13263 0.852057 0.237308
vn 0.2562111 -0.5951732 0.7616593
v -0.117138 0.879772 0.215531
vn 0.7768342 0.6172612 -0.124568
v -0.152171 0.870068 0.216686
vn -0.8891857 0.2059319 -0.4085838
v 0.336308 0.941454 0.0341719
vt 0.159333 0.0299263
vn 0.9416279 0.246847 0.228918
v 0.210039 0.949203 0.1472
vt 0.107813 0.0319244
vn -0.541975 0.5415969 -0.642601
v 0.24065 0.962445 0.1764
vt 0.107813 0.0299263
vn 0.8098012 0.3083671 0.4991311
v 0.214983 0.926556 0.161706
vt 0.107813 0.0289272
vn 0.304294 -0.9353761 0.180213
vt 0.107813 0.0279282
v -0.336308 0.941454 0.0341719
vn -0.9416254 0.2468481 0.2289271
v -0.24065 0.962445 0.1764
vn -0.8098 0.308367 0.499133
v -0.210039 0.949203 0.1472
vn 0.541976 0.5415981 -0.642599
v -0.214983 0.926556 0.161706
vn -0.304294 -0.9353761 0.180213
v 0 0.1706755 -0.2925877
vt 0.680483 0.41614
vn 0 -0.4671142 -0.884197
vt 0.496473 0.40902
vt 0.620764 0.490823
vt 0.0606006 0.998727
vt -0.065662 0.998727
vt 0.000986047 0.74787
vt 0.106336 0.0432482
vt 0.101731 0.0433196
v 0.348737 1.21153 0.177908
vt 0.131055 0.0434489
vn 0.5114502 -0.3299372 0.7934483
vn -0.7888613 0.4823162 0.3808792
vt 0.104682 0.0431704
vt 0.100077 0.0432419
v 0.216433 1.20828 -0.000651821
vt 0.129966 0.043174
v -0.348737 1.21153 0.177908
vn -0.5114509 -0.329937 0.7934479
vn 0.788861 0.482316 0.38088
v -0.216433 1.20828 -0.000651821
vt 0.113578 0.0286465
vt 0.114577 0.0306327
vt 0.112579 0.0306327
vt 0.112579 0.024575
vt 0.114577 0.024575
vt 0.113578 0.0265955
vn 0.0103855 0.170778 -0.9852548
vn 0.092147 0.688488 0.71937
vn -0.8027191 -0.457519 -0.382516
vn -0.0103858 0.170778 -0.9852548
vn -0.092147 0.688488 0.71937
vn 0.8027187 -0.4575188 -0.3825169
o merged_0_0_node
g polygon_0
usemtl body1_mat_id
f 1/1/1 2/2/2 3/3/3
f 1/1/1 4/4/4 2/2/2
f 1/1/1 3/3/3 5/5/5
f 1/1/1 6/6/6 4/4/4
f 1/1/1 5/5/5 7/7/7
f 1/1/1 8/8/8 6/6/6
f 1/1/1 7/7/7 9/9/9
f 1/1/1 10/10/10 8/8/8
f 1/1/1 9/9/9 11/11/11
f 1/1/1 11/11/11 10/10/10
f 9/9/9 7/7/7 5/5/5
f 9/9/9 10/10/10 11/11/11
f 8/8/8 10/10/10 6/6/6
f 3/3/3 2/2/2 5/5/5
f 4/4/4 6/6/6 12/12/12
f 4/4/4 12/12/12 2/2/2
f 12/12/12 6/6/6 10/10/10
f 12/12/12 5/5/5 2/2/2
f 13/13/13 14/14/14 15/15/15
f 13/13/13 16/16/16 14/14/14
f 13/13/13 15/15/15 17/17/17
f 13/13/13 18/18/18 16/16/16
f 13/13/13 17/17/17 19/19/19
f 13/13/13 20/20/20 18/18/18
f 13/13/13 19/19/19 20/20/20
f 15/15/15 21/21/21 17/17/17
f 18/18/18 20/20/20 22/22/22
f 19/19/19 17/17/17 22/23/22
f 19/19/19 23/24/23 20/20/20
f 19/19/19 22/23/22 24/25/24
f 19/19/19 25/26/25 23/24/23
f 19/19/19 24/25/26 25/26/25
f 21/21/21 18/27/18 17/17/17
f 17/17/17 18/27/18 22/23/22
f 22/22/22 20/20/20 26/28/27
f 23/24/23 26/28/28 20/20/20
f 27/13/29 28/15/30 29/14/31
f 27/13/29 30/17/32 28/15/30
f 27/13/29 29/14/31 31/16/33
f 27/13/29 32/19/34 30/17/32
f 27/13/29 31/16/33 33/18/35
f 27/13/29 34/20/36 32/19/34
f 27/13/29 33/18/35 34/20/36
f 28/15/30 30/17/32 35/21/37
f 32/19/34 34/20/36 36/24/38
f 32/19/34 37/23/39 30/17/32
f 32/19/34 36/24/38 38/26/40
f 32/19/34 39/25/41 37/23/39
f 32/19/34 38/26/40 39/25/42
f 33/18/35 37/22/39 34/20/36
f 35/21/37 30/17/32 33/27/35
f 33/27/35 30/17/32 37/23/39
f 36/24/38 34/20/36 40/28/43
f 37/22/39 40/28/44 34/20/36
f 41/29/45 42/30/46 43/31/47
f 41/29/45 44/32/48 42/30/46
f 41/29/45 43/31/47 45/33/49
f 41/29/45 46/34/50 44/32/48
f 41/29/45 45/33/49 47/35/51
f 41/29/45 47/35/51 46/34/50
f 42/30/46 44/32/48 48/36/52
f 45/33/49 49/37/53 47/35/51
f 45/33/49 50/38/54 49/37/53
f 47/35/51 49/37/53 46/34/50
f 44/32/48 51/39/55 48/36/52
f 44/32/48 46/34/50 51/39/55
f 50/38/54 52/40/56 49/37/53
f 48/36/52 51/39/55 53/41/57
f 48/36/52 53/41/57 52/40/56
f 53/41/57 46/34/50 49/37/53
f 53/41/57 51/39/55 46/34/50
f 53/41/57 49/37/53 52/40/56
f 54/42/58 55/43/59 56/43/60
f 54/42/58 57/42/61 55/43/59
f 54/42/58 56/43/60 58/43/62
f 54/42/58 59/44/63 57/42/61
f 54/42/58 58/43/62 60/42/64
f 54/42/58 60/42/64 59/44/63
f 55/43/59 61/45/65 56/43/60
f 55/43/59 57/42/61 62/46/66
f 55/43/59 62/46/66 61/45/65
f 58/43/62 63/46/67 60/42/64
f 58/43/62 56/43/60 61/47/65
f 58/43/62 61/47/65 63/46/67
f 59/44/63 64/44/68 57/42/61
f 59/44/63 60/42/64 65/44/69
f 59/44/63 66/48/70 64/44/68
f 59/44/63 65/44/69 66/48/70
f 62/46/66 67/49/71 61/45/65
f 62/46/66 57/42/61 68/50/72
f 62/46/66 69/51/73 67/49/71
f 62/46/66 68/50/72 69/51/73
f 57/42/61 64/44/68 68/50/72
f 61/47/65 70/52/74 63/46/67
f 60/42/64 71/50/75 65/44/69
f 60/42/64 63/46/67 71/50/75
f 66/48/70 72/53/76 64/44/68
f 66/48/70 65/44/69 73/53/77
f 68/50/72 64/44/68 74/54/78
f 64/44/68 72/53/76 74/54/78
f 70/52/74 75/51/79 63/46/67
f 63/46/67 75/51/79 71/50/75
f 65/44/69 76/54/80 73/53/77
f 65/44/69 71/50/75 76/54/80
f 72/53/76 77/55/81 74/54/78
f 73/53/77 76/54/80 78/55/82
f 77/55/81 79/56/83 74/54/78
f 76/54/80 80/56/84 78/55/82
f 81/57/85 82/58/86 83/59/87
f 81/57/85 84/60/88 82/58/86
f 81/57/85 83/59/87 85/58/89
f 81/57/85 86/61/90 84/60/88
f 81/57/85 85/58/89 87/60/91
f 81/57/85 87/60/91 86/61/90
f 82/58/86 77/62/81 83/59/87
f 82/58/86 84/60/88 79/63/83
f 82/58/86 79/63/83 77/62/81
f 85/58/89 80/63/84 87/60/91
f 85/58/89 83/59/87 78/62/82
f 85/58/89 78/62/82 80/63/84
f 86/61/90 88/64/92 84/60/88
f 86/61/90 87/60/91 88/64/92
f 77/62/81 89/65/93 83/59/87
f 77/62/81 72/66/76 89/65/93
f 83/59/87 89/65/93 78/62/82
f 84/60/88 88/64/92 90/67/94
f 87/60/91 91/67/95 88/64/92
f 72/66/76 66/68/70 89/65/93
f 78/62/82 89/65/93 73/66/77
f 73/66/77 89/65/93 66/68/70
f 90/67/94 88/64/92 92/69/96
f 90/67/94 92/69/96 93/70/97
f 90/67/94 93/70/97 67/71/71
f 90/67/94 67/71/71 69/72/73
f 92/69/96 88/64/92 91/67/95
f 92/69/96 91/67/95 93/70/97
f 91/67/95 70/71/74 93/70/97
f 91/67/95 75/72/79 70/71/74
f 94/73/98 95/74/99 50/75/54
f 94/73/98 43/75/47 95/74/99
f 94/73/98 50/75/54 45/76/49
f 94/73/98 45/76/49 43/75/47
f 96/77/100 97/78/101 98/79/102
f 96/77/100 99/80/103 97/78/101
f 96/77/100 98/79/102 100/78/104
f 96/77/100 100/78/104 99/80/103
f 101/77/100 102/79/105 103/78/106
f 101/77/100 104/78/107 102/79/105
f 101/77/100 103/78/106 105/80/108
f 101/77/100 105/80/108 104/78/107
f 106/81/49 61/82/65 67/83/71
f 106/81/49 70/83/74 61/82/65
f 106/81/49 67/83/71 93/84/97
f 106/81/49 93/84/97 70/83/74
f 107/85/109 108/86/100 109/87/110
f 107/85/109 110/88/63 108/86/100
f 107/85/109 109/87/110 111/86/111
f 107/85/109 111/86/111 110/88/63
f 108/86/100 112/89/112 109/87/110
f 108/86/100 110/88/63 112/89/112
f 112/89/112 111/86/111 109/87/110
f 112/89/112 110/88/63 111/86/111
f 113/85/109 114/86/100 115/87/110
f 113/85/109 116/88/63 114/86/100
f 113/85/109 115/87/110 117/86/111
f 113/85/109 117/86/111 116/88/63
f 114/86/100 118/89/112 115/87/110
f 114/86/100 116/88/63 118/89/112
f 118/89/112 117/86/111 115/87/110
f 118/89/112 116/88/63 117/86/111
f 119/90/113 120/91/114 121/92/115
f 119/90/113 122/93/116 120/91/114
f 119/90/113 121/92/115 43/94/47
f 119/90/113 43/94/47 42/95/46
f 122/93/116 123/90/117 120/91/114
f 123/90/117 124/92/118 120/91/114
f 123/90/117 50/94/54 124/92/118
f 123/90/117 52/95/56 50/94/54
f 125/96/119 126/97/120 127/98/121
f 125/96/119 128/97/122 126/97/120
f 125/96/119 127/98/121 128/97/122
f 129/99/123 130/100/124 131/101/125
f 129/99/123 132/102/126 130/100/124
f 129/99/123 131/101/125 132/102/126
f 133/99/127 134/101/128 135/100/129
f 133/99/127 136/102/130 134/101/128
f 133/99/127 135/100/129 136/102/130
f 137/103/131 138/104/132 139/105/133
f 137/103/131 139/105/133 140/106/134
f 137/103/131 140/106/134 138/107/132
f 141/103/135 142/105/136 143/104/137
f 141/103/135 144/106/138 142/105/136
f 141/103/135 143/107/137 144/106/138
f 145/108/139 42/109/46 48/110/52
f 145/108/139 48/110/52 52/109/56
f 99/111/103 98/112/102 97/113/101
f 99/111/103 100/113/104 98/112/102
f 105/111/108 103/113/106 102/112/105
f 105/111/108 102/112/105 104/113/107
f 23/114/23 25/115/25 146/116/140
f 23/114/23 146/116/141 26/117/28
f 25/115/25 24/118/26 147/119/26
f 36/114/38 148/116/142 38/115/40
f 36/114/38 40/117/43 148/116/143
f 38/115/40 149/119/42 39/118/42
f 18/120/18 21/121/21 16/122/16
f 26/123/27 24/124/24 22/125/22
f 25/115/144 26/117/144 146/116/144
f 26/117/145 25/115/145 147/119/145
f 24/118/24 26/117/27 147/119/146
f 33/120/35 31/122/33 35/121/37
f 40/123/44 37/125/39 39/124/41
f 38/115/147 148/116/147 40/117/147
f 40/117/148 149/119/148 38/115/148
f 39/118/41 149/119/149 40/117/44
v 0.184594 -1.508319E-05 0.2178468
vt 0.873207 0.0147547
vn 0.3731642 -0.7590066 0.5335331
vt 0.873207 0.974935
vt 0.162151 0.973321
vt 0.0884257 0.0147547
vt 0.0213098 0.974935
vt 0.873207 0.622424
vt 0.944027 0.0147547
vt 0.970728 0.974935
v -0.184594 -1.508319E-05 0.2178468
vn -0.3731641 -0.7590061 0.5335339
v 0.184594 -1.71789E-05 -0.2258504
vn 0.3124301 -0.7770236 -0.546463
vt 0.873207 0.808934
vt 0.873207 0.88749
vt 0.970728 0.808934
v -0.184594 -1.71789E-05 -0.2258504
vn -0.3124291 -0.7770239 -0.5464631
o merged_1_0_node
g polygon_0
usemtl foot1_mat_id
f 150/126/150 50/127/54 95/128/99
f 150/129/150 95/128/99 120/130/114
f 120/128/114 124/131/118 150/126/150
f 150/132/150 124/131/118 50/133/54
f 151/126/151 95/128/99 43/127/47
f 151/129/151 120/130/114 95/128/99
f 120/128/114 151/126/151 121/131/115
f 151/132/151 43/133/47 121/131/115
f 152/126/152 123/134/117 122/128/116
f 152/129/152 122/128/116 145/130/139
f 145/128/139 52/135/56 152/126/152
f 152/132/152 52/135/56 123/136/117
f 153/126/153 122/128/116 119/134/113
f 153/129/153 145/130/139 122/128/116
f 145/128/139 153/126/153 42/135/46
f 153/132/153 119/136/113 42/135/46
vt 1.07161 0.994468
vt 0.0397591 0.867474
vt 0.966315 0.864536
vt -0.016167 0.956623
vt 0.788657 0.758649
vt 0.112931 0.774773
vt 0.788066 0.758765
o merged_2_0_node
g polygon_0
usemtl TEX_ANIM_EYE_mat_id
f 84/137/88 69/138/73 79/139/83
f 90/140/94 69/138/73 84/137/88
f 74/141/78 69/138/73 68/142/72
f 74/141/78 79/139/83 69/138/73
f 75/138/79 87/137/91 80/139/84
f 76/143/80 71/142/75 75/138/79
f 76/143/80 75/138/79 80/139/84
f 91/140/95 87/137/91 75/138/79
v 0.0852423 0.921299 0.249297
vt 0 0
vn 0.124291 0.6472138 0.7521077
v 0.210763 0.859518 0.281718
vt 1 0
v 0.152691 1.01167 0.160379
vt 0 1
v 0.278212 0.949894 0.1928
vt 1 1
v -0.152152 0.719802 0.294059
vn 0.06875391 0.173097 0.9825021
v -0.0126074 0.772771 0.274961
v -0.2075 0.858218 0.273546
v -0.0679552 0.911187 0.254448
v -0.290486 1.01699 0.223611
vn 0.5379529 0.2401129 0.8080548
v -0.169207 1.01699 0.142872
v -0.309873 1.15842 0.194491
v -0.188594 1.15842 0.113751
vn -0.124291 -0.6472138 -0.7521077
vn -0.06875391 -0.173097 -0.9825021
vn -0.5379529 -0.2401129 -0.8080548
o merged_3_0_node
g polygon_0
usemtl CMAT_NUKI__flower_mat_id
f 154/144/154 155/145/154 156/146/154
f 156/146/154 155/145/154 157/147/154
f 158/144/155 159/145/155 160/146/155
f 160/146/155 159/145/155 161/147/155
f 162/144/156 163/145/156 164/146/156
f 164/146/156 163/145/156 165/147/156
f 154/144/157 156/146/157 155/145/157
f 155/145/157 156/146/157 157/147/157
f 158/144/158 160/146/158 159/145/158
f 159/145/158 160/146/158 161/147/158
f 162/144/159 164/146/159 163/145/159
f 163/145/159 164/146/159 165/147/159
