mtllib Kadabra_F.mtl
v 0 0.655335 -0.131304
vt 2.79181 3.41646
vn 0 0.8122703 -0.5832812
v -0.131397 0.672111 -0.00659232
vt 2.50758 3.44752
vn -0.297827 0.8710111 0.3906901
v 0 0.691872 -0.00659232
vt 2.79181 3.48411
vn 0 0.9979216 0.06443857
v -0.23115 0.724457 -0.142344
vt 2.29181 3.54445
vn -0.4126178 0.7670087 -0.4913698
v 0.131397 0.672111 -0.00659232
vt 3.07603 3.44752
vn 0.297827 0.8710111 0.3906901
v -0.179327 0.582334 -0.158647
vt 2.40391 3.28129
vn -0.6434132 0.155028 -0.7496572
v 0.23115 0.724457 -0.142344
vt 3.29181 3.54445
vn 0.4126178 0.7670087 -0.4913698
v 0 0.556234 -0.20435
vt 2.79181 3.23297
vn 0 0.2790471 -0.9602774
v 0.179327 0.582334 -0.158647
vt 3.17971 3.28129
vn 0.6434131 0.155029 -0.749657
v -0.151019 0.582334 -0.00659231
vt 2.46514 3.28129
vn -0.9257849 0.08378319 0.36865
v 0.151019 0.582334 -0.00659231
vt 3.11848 3.28129
vn 0.9257849 0.08378329 0.36865
v -0.20725 0.524939 -0.163628
vt 2.3435 3.17502
vn -0.6699464 -0.1398301 -0.7291224
v 0.20725 0.524939 -0.163628
vt 3.24011 3.17502
vn 0.6797833 -0.02741771 -0.7329004
v 0 0.410217 -0.212839
vt 2.79181 2.9626
vn -0.0335356 -0.324654 -0.9452381
v -0.174825 0.476366 -0.00659231
vt 2.41364 3.08508
vn -0.90321 0.132551 0.408218
v 0.174825 0.476366 -0.0065923
vt 3.16997 3.08508
vn 0.9090338 0.117705 0.3997539
v -0.22717 0.397973 -0.0684421
vt 2.30042 2.93993
vn -0.756919 -0.502602 -0.41769
v 0.22717 0.392205 -0.097449
vt 3.2832 2.92925
vn 0.735218 -0.5014151 -0.4561111
v 0 0.328767 -0.151009
vt 2.79181 2.81179
vn -0.031914 -0.816497 -0.576467
v 0.131397 0.346754 -0.00659232
vt 3.07603 2.84509
vn 0.39878 -0.916734 -0.0239464
v -0.131397 0.346754 -0.00659232
vt 2.50758 2.84509
vn -0.4240728 -0.9050996 -0.03093619
v 0 0.282723 -0.00659232
vt 2.79181 2.72653
vn 0 -0.9999521 -0.009788251
v 0.182242 0.378484 -0.00659232
vt 3.18601 2.90384
vn 0.8537923 -0.2409641 0.4614922
v 0.0692668 0.344032 0.169975
vt 2.94164 2.84005
vn 0.7766137 -0.5158138 0.3616729
v 0.0729183 0.461551 0.187849
vt 2.94954 3.05765
vn 0.7182947 0.1565009 0.6779088
v -0.182242 0.378484 -0.00659232
vt 2.3976 2.90384
vn -0.830227 -0.239571 0.503318
v -0.0678683 0.355556 0.169975
vt 2.645 2.86139
vn -0.7891467 -0.4940558 0.3649059
v -0.0729183 0.461551 0.187849
vt 2.63408 3.05765
vn -0.7115303 0.1582321 0.6846073
v 0 0.32519 0.152054
vt 2.79181 2.80516
vn -0.04305311 -0.9922842 0.116269
v 0.0528136 0.389289 0.247377
vt 2.90605 2.92385
vn 0.470722 0.27895 0.8370231
v 0 0.468592 0.198546
vt 2.79181 3.07069
vn 0 0.3943361 0.9189663
v 0 0.582334 0.173379
vt 2.79181 3.28129
vn 0 0.4052181 0.9142201
v 0.0957746 0.582334 0.138883
vt 2.99898 3.28129
vn 0.7352761 0.3042161 0.6056581
v -0.0528136 0.389289 0.247377
vt 2.67757 2.92385
vn -0.4634341 0.2808331 0.8404532
v -0.0957746 0.582334 0.138883
vt 2.58464 3.28129
vn -0.7352763 0.3042151 0.6056582
v 0 0.305397 0.21359
vt 2.79181 2.76852
vn -0.0266443 -0.948226 0.316477
v 0 0.345994 0.272086
vt 2.79181 2.84368
vn 0 0.111916 0.9937177
v 0 0.0553002 0
vt 0.25 0.576852
v -0.0784881 0.07904871 -0.146827
vt 0.25 0.904261
vn -0.372669 -0.54729 -0.749394
v 0.0784881 0.07904871 -0.146827
vn 0.372669 -0.54729 -0.749394
v -0.0784891 7.450581E-09 0
vt 0.25 -0.207871
vn -0.125355 -0.9920321 -0.0125862
v 0.0784891 7.450581E-09 0
vn 0.125355 -0.9920321 -0.012586
v -0.0784881 0.07904871 0.11955
vn -0.3604999 -0.6151109 0.7011979
v 0.0784881 0.07904871 0.11955
vn 0.3604999 -0.6151109 0.7011979
v -0.156976 0.07904871 0
vn -0.9128982 -0.4081771 -0.002884801
v 0.156976 0.07904871 0
vn 0.9128982 -0.4081771 -0.002884551
v 0 0.0241661 -0.356112
vt 0.768887 0.417503
vn 0 -0.9992895 -0.03769112
v 0 0.042795 -0.251163
vt 0.768887 -0.0630178
vn 0 -0.9777547 0.2097519
v -0.104786 0.145395 -0.253746
vt 0.768887 -0.0511897
vn -0.9319252 0.09000082 0.3513051
v 0.104786 0.145395 -0.253746
vn 0.9319252 0.09000102 0.3513051
v -0.118493 0.150437 -0.380194
vt 0.768887 0.527763
vn -0.9948931 0.08420131 -0.05565731
v 0.118493 0.150437 -0.380194
vn 0.9948931 0.08420151 -0.05565731
v 0 0.0600985 -0.464304
vt 0.768887 0.912868
vn 0 -0.9146875 -0.4041618
v 0 0.0918993 -0.17075
vt 0.768887 -0.431198
vn 0 -0.1104609 0.9938805
v -0.0714624 0.13007 -0.478827
vt 0.768887 0.979366
vn -0.8524712 -0.16663 -0.4955071
v 0 0.211273 -0.267921
vt 0.768887 0.0137096
vn 0 0.9338856 0.3575719
v 0 0.25258 -0.404275
vt 0.768887 0.638023
vn 0 0.9926633 -0.120911
v 0 0.200649 -0.576415
vt 0.768887 1.42618
vn 0 -0.007460661 -0.9999722
v 0.0714624 0.13007 -0.478827
vn 0.8524714 -0.1666291 -0.4955072
v 0 0.200041 -0.49335
vt 0.768887 1.04586
vn 0 0.9001684 -0.4355422
v -0.229375 0.219727 0.154159
vt 0.25 -0.1875
vn -0.8342702 0.07011061 0.5468801
v -0.0612394 0.297319 0.100477
vt 0.25 1.1875
vn -0.05215421 0.5798921 0.8130222
v -0.122479 0.297319 0
vn -0.7629238 0.5436949 -0.3497759
v -0.0832285 0.135915 0.144156
vn -0.1797091 -0.113714 0.9771253
v -0.166457 0.135915 0
vn -0.9577009 -0.0381165 -0.28523
v 0.229375 0.219727 0.154159
vn 0.8342702 0.07011042 0.5468801
v 0.122479 0.297319 0
vn 0.7629238 0.5436949 -0.3497759
v 0.0612394 0.297319 0.100477
vn 0.05215411 0.5798921 0.8130222
v 0.166457 0.135915 0
vn 0.9577009 -0.0381166 -0.28523
v 0.0832285 0.135915 0.144156
vn 0.1797091 -0.113714 0.9771253
v -0.123875 0.237141 0.217427
vt 2.09462 1.72112
vn -0.0158448 0.08366787 0.9963678
v -0.157317 0.270019 0.214134
vt 2.12208 1.99095
v -0.149198 0.231555 0.217493
vt 2.16903 1.73151
v -0.12453 0.277251 0.214048
vt 2.02573 1.9775
v -0.115914 0.198642 0.220786
vt 2.14204 1.46175
v -0.138691 0.314382 0.210705
vt 1.99653 2.23941
v -0.105868 0.321621 0.210619
vt 1.90007 2.22595
v -0.0737579 0.372795 0.207109
vt 1.68378 2.46175
v 0.154923 0.270019 0.214134
vn 0.01552 0.07947212 0.9967163
v 0.121481 0.237141 0.217427
v 0.146804 0.231555 0.217493
v 0.122136 0.277251 0.214048
v 0.136297 0.314382 0.210705
v 0.11352 0.198642 0.220786
v 0.103474 0.321621 0.210619
v 0.0713639 0.372795 0.207109
vn -0.01552 -0.07947212 -0.9967163
vn 0.0158446 -0.08366787 -0.9963678
o merged_0_0_node
g polygon_0
usemtl skin_set_mat_id
f 1/1/1 2/2/2 3/3/3
f 1/1/1 4/4/4 2/2/2
f 1/1/1 3/3/3 5/5/5
f 1/1/1 6/6/6 4/4/4
f 1/1/1 5/5/5 7/7/7
f 1/1/1 8/8/8 6/6/6
f 1/1/1 7/7/7 9/9/9
f 1/1/1 9/9/9 8/8/8
f 2/2/2 4/4/4 10/10/10
f 4/4/4 6/6/6 10/10/10
f 5/5/5 11/11/11 7/7/7
f 7/7/7 11/11/11 9/9/9
f 8/8/8 12/12/12 6/6/6
f 8/8/8 9/9/9 13/13/13
f 8/8/8 14/14/14 12/12/12
f 8/8/8 13/13/13 14/14/14
f 10/10/10 6/6/6 15/15/15
f 6/6/6 12/12/12 15/15/15
f 11/11/11 16/16/16 9/9/9
f 9/9/9 16/16/16 13/13/13
f 14/14/14 17/17/17 12/12/12
f 14/14/14 13/13/13 18/18/18
f 14/14/14 19/19/19 17/17/17
f 14/14/14 18/18/18 19/19/19
f 13/13/13 16/16/16 18/18/18
f 12/12/12 17/17/17 15/15/15
f 19/19/19 18/18/18 20/20/20
f 19/19/19 21/21/21 17/17/17
f 19/19/19 20/20/20 22/22/22
f 19/19/19 22/22/22 21/21/21
f 16/16/16 23/23/23 18/18/18
f 16/16/16 24/24/24 23/23/23
f 16/16/16 25/25/25 24/24/24
f 23/23/23 24/24/24 20/20/20
f 23/23/23 20/20/20 18/18/18
f 15/15/15 17/17/17 26/26/26
f 15/15/15 26/26/26 27/27/27
f 15/15/15 27/27/27 28/28/28
f 26/26/26 17/17/17 21/21/21
f 26/26/26 21/21/21 27/27/27
f 22/22/22 20/20/20 29/29/29
f 22/22/22 29/29/29 21/21/21
f 21/21/21 29/29/29 27/27/27
f 20/20/20 24/24/24 29/29/29
f 25/25/25 30/30/30 24/24/24
f 25/25/25 31/31/31 30/30/30
f 25/25/25 32/32/32 31/31/31
f 25/25/25 33/33/33 32/32/32
f 28/28/28 27/27/27 34/34/34
f 28/28/28 31/31/31 32/32/32
f 28/28/28 34/34/34 31/31/31
f 28/28/28 32/32/32 35/35/35
f 29/29/29 24/24/24 36/36/36
f 29/29/29 36/36/36 27/27/27
f 27/27/27 36/36/36 34/34/34
f 24/24/24 30/30/30 36/36/36
f 31/31/31 34/34/34 37/37/37
f 31/31/31 37/37/37 30/30/30
f 37/37/37 34/34/34 36/36/36
f 37/37/37 36/36/36 30/30/30
f 38/38/22 39/39/38 40/39/39
f 38/38/22 41/40/40 39/39/38
f 38/38/22 40/39/39 42/40/41
f 38/38/22 43/39/42 41/40/40
f 38/38/22 42/40/41 44/39/43
f 38/38/22 44/39/43 43/39/42
f 39/39/38 41/40/40 45/39/44
f 45/39/44 41/40/40 43/39/42
f 40/39/39 46/39/45 42/40/41
f 42/40/41 46/39/45 44/39/43
f 47/41/46 48/42/47 49/43/48
f 47/41/46 50/43/49 48/42/47
f 47/41/46 49/43/48 51/44/50
f 47/41/46 52/44/51 50/43/49
f 47/41/46 51/44/50 53/45/52
f 47/41/46 53/45/52 52/44/51
f 48/42/47 54/46/53 49/43/48
f 48/42/47 50/43/49 54/46/53
f 51/44/50 55/47/54 53/45/52
f 51/44/50 49/43/48 56/48/55
f 51/44/50 57/49/56 55/47/54
f 51/44/50 56/48/55 57/49/56
f 56/48/55 50/43/49 52/44/51
f 56/48/55 49/43/48 54/46/53
f 56/48/55 52/44/51 57/49/56
f 56/48/55 54/46/53 50/43/49
f 53/45/52 55/47/54 58/50/57
f 53/45/52 59/47/58 52/44/51
f 53/45/52 58/50/57 59/47/58
f 52/44/51 59/47/58 57/49/56
f 55/47/54 60/51/59 58/50/57
f 55/47/54 57/49/56 60/51/59
f 60/51/59 57/49/56 59/47/58
f 60/51/59 59/47/58 58/50/57
f 61/52/60 62/53/61 63/53/62
f 61/52/60 64/53/63 62/53/61
f 61/52/60 63/53/62 65/53/64
f 61/52/60 65/53/64 64/53/63
f 66/52/65 67/53/66 68/53/67
f 66/52/65 69/53/68 67/53/66
f 66/52/65 68/53/67 70/53/69
f 66/52/65 70/53/69 69/53/68
f 71/54/70 72/55/70 73/56/70
f 71/54/70 74/57/70 72/55/70
f 71/54/70 73/56/70 75/58/70
f 74/57/70 76/59/70 72/55/70
f 74/57/70 77/60/70 76/59/70
f 77/60/70 78/61/70 76/59/70
f 79/55/71 80/54/71 81/56/71
f 79/55/71 82/57/71 80/54/71
f 79/55/71 83/59/71 82/57/71
f 81/56/71 80/54/71 84/58/71
f 83/59/71 85/60/71 82/57/71
f 83/59/71 86/61/71 85/60/71
f 80/54/72 79/55/72 81/56/72
f 80/54/72 82/57/72 79/55/72
f 80/54/72 81/56/72 84/58/72
f 82/57/72 83/59/72 79/55/72
f 82/57/72 85/60/72 83/59/72
f 85/60/72 86/61/72 83/59/72
f 72/55/73 71/54/73 73/56/73
f 72/55/73 74/57/73 71/54/73
f 72/55/73 76/59/73 74/57/73
f 73/56/73 71/54/73 75/58/73
f 76/59/73 77/60/73 74/57/73
f 76/59/73 78/61/73 77/60/73
v -0.251289 0.07325251 0.140184
vt 0.25 0.25
vn -0.678533 -0.0317597 -0.733883
v -0.22454 0.07325251 0.162958
vt 0.5 0.25
vn 0 -0.06604229 0.9978169
v -0.245357 0.270706 0.140184
vt 0.25 0.5
vn -0.8623789 -0.127908 -0.4898389
v -0.22454 0.270706 0.161001
vt 0.5 0.5
vn 0 -0.138897 0.9903069
v -0.197791 0.07325251 0.140184
vt 0.75 0.25
vn 0.678533 -0.0317597 -0.733883
v -0.203722 0.270706 0.140184
vt 0.75 0.5
vn 0.8623789 -0.127908 -0.4898389
v -0.22454 0.354902 0.147335
vt 0 0.75
vn 4.180268E-05 -0.008544296 -0.9999635
v -0.281867 0.312804 0.140184
vt 0.25 0.625
vn -0.854626 -0.363117 0.371161
v -0.282987 0.354902 0.140184
vt 0.25 0.75
vn -0.9868733 0.1556661 0.04300211
v -0.22454 0.354902 0.184972
vt 0.5 0.75
vn 0 -0.0203875 0.9997922
v -0.167213 0.312804 0.140184
vt 0.75 0.625
vn 0.8546263 -0.3631171 0.3711601
vt 1 0.75
v -0.267358 0.394963 0.140184
vt 0.184214 0.881572
vn -0.7612224 0.6454034 0.06320544
v -0.22454 0.425953 0.140184
vt 0.125 1
vn 0.0190676 0.9831488 0.18181
vt 0.315786 0.881572
vt 0.375 1
v -0.166092 0.354902 0.140184
vt 0.75 0.75
vn 0.9893863 0.139986 0.03896941
v -0.179862 0.393095 0.140184
vt 0.6875 0.875
vn 0.7637923 0.6421062 0.06573353
vt 0.8125 0.875
vt 0 0
v -0.22454 0.07325251 0.136014
vt 1 0
vn 0 -0.064727 -0.997903
vt 0 1
vt 1 1
vt 0.625 1
vt 0.875 1
vt 0 0.25
o merged_1_0_node
g polygon_0
usemtl ENV_spoon_mat_id
f 87/62/74 88/63/75 89/64/76
f 89/64/76 88/63/75 90/65/77
f 91/66/78 92/67/79 88/63/75
f 88/63/75 92/67/79 90/65/77
f 93/68/80 94/69/81 95/70/82
f 94/69/81 96/71/83 95/70/82
f 92/67/79 97/72/84 90/65/77
f 90/65/77 97/72/84 96/71/83
f 93/73/80 89/64/76 94/69/81
f 93/68/80 98/74/85 99/75/86
f 98/76/85 96/71/83 99/77/86
f 96/71/83 100/78/87 101/79/88
f 100/78/87 93/73/80 101/80/88
f 87/81/74 102/82/89 88/83/75
f 88/83/75 102/82/89 91/84/78
f 95/70/82 96/71/83 98/76/85
f 96/71/83 101/79/88 99/85/86
f 89/64/76 90/65/77 94/69/81
f 94/69/81 90/65/77 96/71/83
f 96/71/83 97/72/84 100/78/87
f 93/68/80 95/70/82 98/74/85
f 101/80/88 93/73/80 99/86/86
f 97/72/84 93/73/80 100/78/87
f 93/73/80 92/67/79 89/64/76
f 93/73/80 97/72/84 92/67/79
f 91/66/78 102/87/89 92/67/79
f 92/67/79 102/87/89 89/64/76
f 89/64/76 102/87/89 87/62/74
vt 0.994829 -0.0442861
v 0.0832285 0.135915 -0.144156
vt 0.994828 0.955714
vn 0.4939418 0.1916769 -0.8481047
v -0.0832285 0.135915 -0.144156
vn -0.4939418 0.1916769 -0.8481047
vt 0.1877 0.971174
vt -0.124599 0.971174
vt 0.205488 -0.0627515
vt -0.089024 -0.0627515
vt 0.812299 0.971174
vt 0.794512 -0.0627515
vt 1.1246 0.971174
vt 1.08902 -0.0627515
vt 0.106019 0.874174
v 0.0612394 0.297319 -0.100477
vn 0.4471379 0.4287289 -0.7850218
v -0.0612393 0.297319 -0.100477
vn -0.4471379 0.4287289 -0.7850218
v 0 0.3137 0
vn 0 1 0
o merged_2_0_node
g polygon_0
usemtl wave_mat_id
f 40/88/39 39/88/38 103/89/90
f 103/89/90 39/88/38 104/89/91
f 39/88/38 45/88/44 104/89/91
f 104/89/91 45/88/44 65/89/64
f 64/90/63 65/91/64 43/92/42
f 43/92/42 65/91/64 45/93/44
f 70/94/69 44/95/43 69/96/68
f 69/96/68 44/95/43 46/97/45
f 40/88/39 103/89/90 46/88/45
f 46/88/45 103/89/90 69/89/68
f 103/98/90 104/98/91 105/98/92
f 105/98/92 104/98/91 106/98/93
f 104/98/91 65/98/64 106/98/93
f 106/98/93 65/98/64 63/98/62
f 64/98/63 70/98/69 62/98/61
f 62/98/61 70/98/69 68/98/67
f 103/98/90 105/98/92 69/98/68
f 69/98/68 105/98/92 67/98/66
f 105/98/92 106/98/93 107/98/94
f 106/98/93 63/98/62 107/98/94
f 63/98/62 62/98/61 107/98/94
f 62/98/61 68/98/67 107/98/94
f 68/98/67 67/98/66 107/98/94
f 67/98/66 105/98/92 107/98/94
f 43/92/42 44/95/43 64/90/63
f 64/90/63 44/95/43 70/94/69
vt 0.505023 1.397
vt -0.267643 1.33767
v 0 0.639283 0.10802
vt 0.505023 0.57429
vn 0 0.8382481 0.545289
vt 1.06832 1.00478
vt 0.22944 1.00478
vt 1.06832 1.19746
vt -0.0761767 0.213811
vt 0.505023 0.018324
vt 1.27769 1.33767
vt 1.08622 0.213811
o merged_3_0_node
g polygon_0
usemtl star_mat_id
f 3/99/3 2/100/2 108/101/95
f 10/102/10 35/103/35 2/104/2
f 2/100/2 35/105/35 108/101/95
f 35/105/35 32/106/32 108/101/95
f 3/99/3 108/101/95 5/107/5
f 32/106/32 33/108/33 108/101/95
f 108/101/95 33/108/33 5/107/5
f 33/103/33 11/102/11 5/104/5
vt 1.06832 0.777346
vt -0.167579 0.745551
o merged_4_0_node
g polygon_0
usemtl TEX_ANIM_EYE_mat_id
f 10/102/10 15/109/15 35/103/35
f 35/103/35 15/109/15 28/110/28
f 11/102/11 33/103/33 16/109/16
f 16/109/16 33/103/33 25/110/25
