mtllib Beartic.mtl
v 0 0.3252271 -0.4239495
vt 0.433243 0.806415
vn 0 0.2484379 -0.9686478
v 0 0.1779259 -0.4239532
vt 0.433243 0.795473
vn 0 -0.7898842 -0.613256
v -0.374239 -2.893743E-05 -0.3197901
vt 0.417766 0.782254
vn -0.4135611 -0.7742775 -0.4790214
v 0.374238 -2.893743E-05 -0.3197901
vn 0.4135615 -0.7742772 -0.4790218
v -0.353961 0.3252271 -0.2550544
vt 0.408149 0.806415
vn -0.8101634 0.266777 -0.521982
v 0.353961 0.3252271 -0.2550544
vn 0.8101639 0.2667772 -0.5219813
v -0.271859 0.486322 -0.212668
vt 0.401851 0.818383
vn -0.4935949 0.8076029 -0.3227099
v 0.271859 0.486322 -0.212668
vn 0.4935949 0.8076029 -0.3227099
v 0 0.486322 -0.351348
vt 0.422456 0.818383
vn 0 0.8383624 -0.5451133
v 0 0.1412419 -0.08023445
vt 0.382174 0.792747
vn 0 -0.990819 0.1351951
v -0.213088 0.486322 0.0425243
vt 0.363935 0.818383
vn -0.722055 0.682329 0.114297
v -0.284057 0.1614872 -0.0763252
vt 0.381594 0.794251
vn -0.5809743 -0.6052765 0.5441592
v -0.217575 0.3252273 0.2792354
vt 0.328765 0.806415
vn -0.7648665 0.1049047 0.6355897
v -0.225323 0.2049041 0.08058245
vt 0.351049 0.796755
vn -0.812647 -0.5812839 -0.04139725
v 0.213088 0.486322 0.0425244
vn 0.722055 0.682329 0.114297
v 0.284057 0.1614872 -0.0763251
vn 0.5809743 -0.6052774 0.5441582
v 0.217575 0.3252273 0.2792354
vn 0.7648665 0.1049036 0.6355898
v 0.225323 0.2049041 0.08058254
vn 0.812647 -0.581284 -0.04139696
v 0 0.51255 -0.0311851
vt 0.374887 0.820331
vn 0 0.9856749 -0.168657
v 0 0.1804418 0.08656041
vt 0.357392 0.795659
vn 0 -0.9956151 -0.09354425
v -0.151609 0.498971 0.273639
vt 0.329596 0.819322
vn -0.5782652 0.6175212 0.5331762
v 0 0.405417 0.372405
vt 0.314922 0.812373
vn 0 0.08386213 0.9964774
v 0 0.215655 0.2801346
vt 0.328632 0.798276
vn 0 -0.5311818 0.8472579
v 0 0.613479 0.181232
vt 0.343326 0.827829
vn 0 0.9940962 0.108502
v 0.151609 0.498971 0.273639
vn 0.5782652 0.6175212 0.5331762
v 0 0.1531791 -0.4371606
vt 0.176397 0.917899
vn 0 -0.4078423 -0.9130524
v -0.0996064 0.2304404 -0.4887581
vt 0.19901 0.930943
vn -0.209611 0.02094852 -0.9775605
v 0 0.3243401 -0.4300516
vt 0.186146 0.946682
vn 0 0.189876 -0.9818081
v -0.139453 0.1748848 -0.4080797
vt 0.167014 0.921401
vn -0.83385 -0.2370209 -0.4985131
v 0.0996064 0.2304404 -0.4887581
vn 0.209611 0.02094852 -0.9775605
v -0.101812 0.06275861 -0.4111288
vt 0.164585 0.90298
vn -0.2356173 -0.7693784 -0.593752
v 0.139453 0.1748848 -0.4080797
vn 0.83385 -0.2370209 -0.4985131
v 0 0.05699344 -0.3101058
vt 0.13199 0.90205
vn 0 -0.9812459 -0.1927599
v 0.101812 0.06275861 -0.4111288
vn 0.2356173 -0.7693784 -0.593752
v -0.139453 0.317751 -0.3961802
vt 0.175217 0.945619
vn -0.7863696 0.1206419 -0.6058617
v 0.139453 0.317751 -0.3961802
vn 0.7863696 0.1206419 -0.6058617
v -0.139453 0.09427917 -0.3028516
vt 0.129649 0.908065
vn -0.8437338 -0.5197312 -0.1341368
v 0.139453 0.09427917 -0.3028516
vn 0.8437338 -0.5197312 -0.1341368
v -0.0996064 0.44367 -0.457241
vt 0.186271 0.963684
vn -0.1878949 0.4593428 -0.8681588
v -0.197216 0.2921077 -0.2643656
vt 0.117233 0.939979
vn -0.9956659 0.005631513 -0.09283171
v -0.139453 0.443624 -0.337225
vt 0.149454 0.966533
vn -0.830992 0.393502 -0.393203
v 0.197216 0.2921077 -0.2643656
vn 0.9956659 0.005631513 -0.09283161
v 0.0996064 0.44367 -0.457241
vn 0.1878949 0.4593428 -0.8681588
v 0.139453 0.443624 -0.337225
vn 0.8309923 0.3935021 -0.3932022
v -0.101811 0.02446478 -0.2142879
vt 0.101075 0.896803
vn -0.134471 -0.9819011 0.1333711
v 0.101811 0.02446478 -0.2142879
vn 0.134471 -0.9819011 0.1333711
v 0 0.09647375 -0.1456778
vt 0.0789382 0.908419
vn 0 -0.8742678 0.485444
v 0 0.474648 -0.356047
vt 0.155527 0.971538
vn 0 0.6841522 -0.7293393
v -0.139453 0.0912219 -0.1669835
vt 0.0850115 0.913424
vn -0.822933 -0.493162 0.2820858
v -0.139453 0.489928 -0.225881
vt 0.104815 0.971892
vn -0.8676289 0.487222 0.09917079
v -0.139453 0.2067737 -0.09445093
vt 0.0592477 0.934339
vn -0.8840731 -0.0827766 0.4599596
v -0.139453 0.407267 -0.110077
vt 0.067451 0.958557
vn -0.8305569 0.241867 0.5016729
v 0.139453 0.0912219 -0.1669835
vn 0.822933 -0.493162 0.2820858
v 0.139453 0.489928 -0.225881
vn 0.8676289 0.487222 0.09917079
v 0.139453 0.2067737 -0.09445093
vn 0.8840731 -0.0827767 0.4599596
v 0.139453 0.407267 -0.110077
vn 0.8305569 0.241867 0.5016729
v -0.101811 0.594605 -0.314301
vt 0.13339 0.983155
vn -0.1850381 0.9264163 -0.3278931
v 0.101811 0.594605 -0.314301
vn 0.185039 0.926416 -0.327893
v 0 0.527213 -0.218627
vt 0.102475 0.977907
vn 0 0.9815949 0.190975
v -0.0996064 0.1189307 -0.05549505
vt 0.0481939 0.916273
vn -0.2149145 -0.5372843 0.8155595
v 0 0.2001836 -0.06057861
vt 0.0483191 0.933275
vn 0 -0.2828148 0.9591745
v -0.101811 0.5529079 -0.120209
vt 0.0698805 0.976977
vn -0.207088 0.8250381 0.5257631
v 0 0.428972 -0.080997
vt 0.058068 0.962058
vn 0 0.4646379 0.8855008
v 0.0996064 0.1189307 -0.05549505
vn 0.2149145 -0.5372843 0.8155595
v 0.101811 0.5529079 -0.120209
vn 0.207088 0.8250381 0.5257631
v 0 0.419809 0.650433
vt 0 0.327777
vn 0 -0.6234218 0.7818857
v 0 0.491496 0.7505
vt 0 0.407444
v -0.0801478 0.49523 0.71444
vt -0.441421 0.41213
vn -0.6281191 -0.3348981 0.7023601
v 0.0801478 0.49523 0.71444
vt 0.441421 0.41213
vn 0.6281191 -0.3348981 0.7023601
v -0.0781906 0.403151 0.590339
vt -0.390953 0.306955
vn 0.0326546 -0.959937 0.278307
v 0.0781906 0.403151 0.590339
vt 0.390953 0.306955
vn -0.0326547 -0.959937 0.278307
v -0.0390953 0.280369 0.600254
vt -0.195477 0.153478
vn -0.9422795 -0.2767209 -0.1885069
v 0.0390953 0.280369 0.600254
vt 0.195477 0.153478
vn 0.9422795 -0.2767209 -0.1885069
v 0 0.288698 0.641573
vt 0 0.163889
vn 0 0.2433499 0.9699386
v 0 0.550808 0.764579
vt 0 0.491526
vn 0 -0.006261333 0.9999804
v 0 0.38528 0.507485
vt 0 0.284616
vn 0 -0.9714491 -0.237248
v -0.106219 0.468268 0.650443
vt -0.531095 0.388351
vn -0.47047 -0.316395 0.8237429
v -0.15373 0.418847 0.512312
vt -0.699585 0.320325
vn -0.6172571 -0.7308691 -0.291246
v -0.198812 0.241555 0.586447
vt -0.994062 0.10496
vn -0.5823403 -0.8125894 -0.02404771
v 0.106219 0.468268 0.650443
vt 0.531095 0.388351
vn 0.4704698 -0.3163958 0.8237426
v 0.15373 0.418847 0.512312
vt 0.699585 0.320325
vn 0.6172571 -0.7308691 -0.291246
v 0.198812 0.241555 0.586447
vt 0.994062 0.10496
vn 0.5823403 -0.8125894 -0.02404791
v 0 0.246188 0.688677
vt 0 0.110752
vn 0 -0.4768861 0.8789651
v -0.0559705 0.604404 0.740572
vt -0.342999 0.558521
vn -0.3214831 0.6157812 0.7193483
v 0.0559705 0.604404 0.740572
vt 0.342999 0.558521
vn 0.3214829 0.615782 0.7193479
v -0.173236 0.505163 0.59669
vt -0.997102 0.43447
vn -0.8734537 0.03048969 0.4859518
v 0 0.157587 0.610844
vt 0 0
v 0.173236 0.505163 0.59669
vt 0.997102 0.43447
vn 0.8734537 0.03048959 0.4859518
v 0.129498 0.749696 0.319842
vt 0.426074 0.953112
vn 0.661958 0.5888181 -0.463794
v 0.22639 0.6105009 0.315272
vt 0.458474 0.929838
vn 0.911007 0.170956 -0.375287
v 0.094807 0.6105009 0.185517
vt 0.414473 0.929838
vn 0.3741519 0.09012508 -0.9229777
v 0.151315 0.7147729 0.458599
vt 0.435111 0.947272
vn 0.8478701 0.4655071 0.25381
v 0 0.737461 0.26197
vt 0.38277 0.951066
vn 0 0.576513 -0.817088
v 0.0771162 0.8716719 0.458599
vt 0.405001 0.973506
vn 0.7137212 0.6824072 0.157869
v 0 0.888373 0.353447
vt 0.38277 0.976298
vn 0 0.8117509 -0.5840039
v 0.153401 0.471307 0.30146
vt 0.434067 0.906565
vn 0.5597463 -0.6653543 -0.4939512
v 0.248208 0.524474 0.458599
vt 0.46577 0.915455
vn 0.9888502 -0.119506 0.08884632
v -0.129498 0.749696 0.319842
vt 0.339466 0.953112
vn -0.661958 0.5888181 -0.463794
v -0.094807 0.6105009 0.185517
vt 0.351066 0.929838
vn -0.3741519 0.09012498 -0.9229777
v 0 0.888373 0.489678
vn 0 0.824799 0.565426
v 0.0556097 0.746068 0.575513
vt 0.402214 0.952505
vn 0.3537862 0.6570234 0.6656994
v 0.136727 0.6105009 0.601926
vt 0.438088 0.929838
vn 0.791177 0.414457 0.449738
v 0 0.483542 0.226691
vt 0.38277 0.908611
vn 0 -0.6180711 -0.7861221
vt 0.429558 0.896958
v 0 0.38528 0.361482
vt 0.38277 0.892182
vn 0 -0.9518323 -0.3066191
v -0.0771162 0.8716719 0.458599
vt 0.360539 0.973506
vn -0.7137212 0.6824072 0.157869
v -0.22639 0.6105009 0.315272
vt 0.307065 0.929838
vn -0.911007 0.170956 -0.375287
v -0.151315 0.7147729 0.458599
vt 0.330428 0.947272
vn -0.8478701 0.4655071 0.25381
v -0.0556097 0.746068 0.575513
vt 0.363326 0.952505
vn -0.3537862 0.6570234 0.6656994
vt 0.404131 0.928819
vt 0.446277 0.912226
v -0.153401 0.471307 0.30146
vt 0.331473 0.906565
vn -0.559746 -0.665354 -0.4939519
vt 0.335982 0.896958
v -0.248208 0.524474 0.458599
vt 0.29977 0.915455
vn -0.9888502 -0.119506 0.08884632
v -0.136727 0.6105009 0.601926
vt 0.327452 0.929838
vn -0.791177 0.414457 0.449738
vt 0.361408 0.928819
vt 0.319263 0.912226
v -0.261372 -2.530049E-05 0.3084627
vt 0.965258 1
vn -0.4507962 -0.7581168 0.4712131
vt 0.946731 0.730422
vt 0.946144 0.593464
vt 0.82011 0.774444
vt 0.816199 0.743866
v 0.261371 -2.530049E-05 0.3084627
vn 0.4507962 -0.7581168 0.4712131
v 0.293897 0.799818 0.417863
vt 0.208271 0.830612
vn 0.9068791 0.421391 0
v 0.222144 0.766477 0.354433
vt 0.11581 0.80913
vn 0 0 -1
v 0.195415 0.824001 0.417863
vt 0.081367 0.846192
vn -0.4213931 0.9068781 0
v 0.248873 0.708953 0.417863
vt 0.150254 0.772068
vn 0.4213931 -0.9068781 0
v 0.222144 0.766477 0.481294
v 0.150391 0.733136 0.417863
vt 0.0233495 0.787648
vn -0.9068787 -0.4213918 0
v -0.293897 0.799818 0.417863
vn -0.9068787 0.4213918 0
v -0.195415 0.824001 0.417863
vn 0.4213931 0.9068781 0
v -0.222144 0.766477 0.354433
v -0.222144 0.766477 0.481294
v -0.248873 0.708953 0.417863
vn -0.4213931 -0.9068781 0
v -0.150391 0.733136 0.417863
vn 0.9068787 -0.4213918 0
o merged_0_0_node
g polygon_0
usemtl mat_body_mat_id
f 1/1/1 2/2/2 3/3/3
f 1/1/1 4/3/4 2/2/2
f 1/1/1 3/3/3 5/4/5
f 1/1/1 6/4/6 4/3/4
f 1/1/1 5/4/5 7/5/7
f 1/1/1 8/5/8 6/4/6
f 1/1/1 7/5/7 9/6/9
f 1/1/1 9/6/9 8/5/8
f 2/2/2 10/7/10 3/3/3
f 2/2/2 4/3/4 10/7/10
f 5/4/5 11/8/11 7/5/7
f 5/4/5 3/3/3 12/9/12
f 5/4/5 13/10/13 11/8/11
f 5/4/5 12/9/12 14/11/14
f 5/4/5 14/11/14 13/10/13
f 3/3/3 10/7/10 12/9/12
f 6/4/6 8/5/8 15/8/15
f 6/4/6 16/9/16 4/3/4
f 6/4/6 15/8/15 17/10/17
f 6/4/6 18/11/18 16/9/16
f 6/4/6 17/10/17 18/11/18
f 4/3/4 16/9/16 10/7/10
f 9/6/9 7/5/7 19/12/19
f 9/6/9 19/12/19 8/5/8
f 8/5/8 19/12/19 15/8/15
f 7/5/7 11/8/11 19/12/19
f 14/11/14 12/9/12 20/13/20
f 20/13/20 16/9/16 18/11/18
f 20/13/20 12/9/12 10/7/10
f 20/13/20 10/7/10 16/9/16
f 13/10/13 21/14/21 11/8/11
f 13/10/13 22/15/22 21/14/21
f 13/10/13 23/16/23 22/15/22
f 23/16/23 17/10/17 22/15/22
f 15/8/15 19/12/19 24/17/24
f 15/8/15 25/14/25 17/10/17
f 15/8/15 24/17/24 25/14/25
f 24/17/24 11/8/11 21/14/21
f 24/17/24 21/14/21 22/15/22
f 24/17/24 19/12/19 11/8/11
f 24/17/24 22/15/22 25/14/25
f 25/14/25 22/15/22 17/10/17
f 26/18/26 27/19/27 28/20/28
f 26/18/26 29/21/29 27/19/27
f 26/18/26 28/20/28 30/19/30
f 26/18/26 31/22/31 29/21/29
f 26/18/26 30/19/30 32/21/32
f 26/18/26 33/23/33 31/22/31
f 26/18/26 32/21/32 34/22/34
f 26/18/26 34/22/34 33/23/33
f 27/19/27 35/24/35 28/20/28
f 27/19/27 29/21/29 35/24/35
f 30/19/30 36/24/36 32/21/32
f 30/19/30 28/20/28 36/24/36
f 31/22/31 33/23/33 37/25/37
f 31/22/31 37/25/37 29/21/29
f 34/22/34 32/21/32 38/25/38
f 34/22/34 38/25/38 33/23/33
f 35/24/35 39/26/39 28/20/28
f 35/24/35 29/21/29 40/27/40
f 35/24/35 41/28/41 39/26/39
f 35/24/35 40/27/40 41/28/41
f 29/21/29 37/25/37 40/27/40
f 36/24/36 42/27/42 32/21/32
f 36/24/36 28/20/28 43/26/43
f 36/24/36 44/28/44 42/27/42
f 36/24/36 43/26/43 44/28/44
f 32/21/32 42/27/42 38/25/38
f 33/23/33 45/29/45 37/25/37
f 33/23/33 38/25/38 46/29/46
f 33/23/33 47/30/47 45/29/45
f 33/23/33 46/29/46 47/30/47
f 39/26/39 41/28/41 48/31/48
f 39/26/39 48/31/48 28/20/28
f 43/26/43 48/31/48 44/28/44
f 43/26/43 28/20/28 48/31/48
f 40/27/40 37/25/37 49/32/49
f 40/27/40 50/33/50 41/28/41
f 40/27/40 49/32/49 51/34/51
f 40/27/40 52/35/52 50/33/50
f 45/29/45 47/30/47 49/32/49
f 45/29/45 49/32/49 37/25/37
f 42/27/42 53/32/53 38/25/38
f 42/27/42 44/28/44 54/33/54
f 42/27/42 55/34/55 53/32/53
f 42/27/42 54/33/54 56/35/56
f 46/29/46 53/32/53 47/30/47
f 46/29/46 38/25/38 53/32/53
f 48/31/48 41/28/41 57/36/57
f 48/31/48 58/36/58 44/28/44
f 48/31/48 57/36/57 59/37/59
f 48/31/48 59/37/59 58/36/58
f 58/36/58 54/33/54 44/28/44
f 58/36/58 59/37/59 54/33/54
f 57/36/57 41/28/41 50/33/50
f 57/36/57 50/33/50 59/37/59
f 51/34/51 49/32/49 60/38/60
f 51/34/51 60/38/60 61/39/61
f 60/38/60 47/30/47 61/39/61
f 60/38/60 49/32/49 47/30/47
f 52/35/52 62/40/62 50/33/50
f 52/35/52 63/41/63 62/40/62
f 62/40/62 63/41/63 59/37/59
f 62/40/62 59/37/59 50/33/50
f 55/34/55 64/38/64 53/32/53
f 55/34/55 61/39/61 64/38/64
f 64/38/64 61/39/61 47/30/47
f 64/38/64 47/30/47 53/32/53
f 56/35/56 54/33/54 65/40/65
f 56/35/56 65/40/65 63/41/63
f 65/40/65 59/37/59 63/41/63
f 65/40/65 54/33/54 59/37/59
f 66/42/66 67/43/66 68/44/67
f 66/42/66 69/45/68 67/43/66
f 66/42/66 68/44/67 70/46/69
f 66/42/66 71/47/70 69/45/68
f 66/42/66 70/46/69 72/48/71
f 66/42/66 73/49/72 71/47/70
f 66/42/66 72/48/71 74/50/73
f 66/42/66 74/50/73 73/49/72
f 67/43/66 75/51/74 68/44/67
f 67/43/66 69/45/68 75/51/74
f 70/46/69 76/52/75 72/48/71
f 70/46/69 68/44/67 77/53/76
f 70/46/69 78/54/77 76/52/75
f 70/46/69 77/53/76 79/55/78
f 70/46/69 79/55/78 78/54/77
f 71/47/70 73/49/72 76/52/75
f 71/47/70 80/56/79 69/45/68
f 71/47/70 76/52/75 81/57/80
f 71/47/70 82/58/81 80/56/79
f 71/47/70 81/57/80 82/58/81
f 74/50/73 72/48/71 83/59/82
f 74/50/73 83/59/82 73/49/72
f 75/51/74 84/60/83 68/44/67
f 75/51/74 69/45/68 85/61/84
f 75/51/74 85/61/84 84/60/83
f 77/53/76 86/62/85 79/55/78
f 77/53/76 68/44/67 86/62/85
f 86/62/85 78/54/77 79/55/78
f 86/62/85 68/44/67 84/60/83
f 76/52/75 87/63/75 72/48/71
f 76/52/75 73/49/72 87/63/75
f 87/63/75 83/59/82 72/48/71
f 87/63/75 73/49/72 83/59/82
f 80/56/79 82/58/81 88/64/86
f 80/56/79 88/64/86 69/45/68
f 88/64/86 82/58/81 81/57/80
f 88/64/86 85/61/84 69/45/68
f 89/65/87 90/66/88 91/67/89
f 89/65/87 92/68/90 90/66/88
f 89/65/87 91/67/89 93/69/91
f 89/65/87 94/70/92 92/68/90
f 89/65/87 93/69/91 95/71/93
f 89/65/87 95/71/93 94/70/92
f 90/66/88 96/72/94 91/67/89
f 90/66/88 92/68/90 97/73/95
f 90/66/88 97/73/95 96/72/94
f 93/69/91 98/74/96 95/71/93
f 93/69/91 91/67/89 99/75/97
f 93/69/91 99/75/97 98/74/96
f 94/70/92 95/71/93 100/71/98
f 94/70/92 100/71/98 101/76/99
f 92/68/90 102/77/100 97/73/95
f 96/72/94 103/78/101 91/67/89
f 96/72/94 97/73/95 81/79/80
f 96/72/94 104/80/102 103/78/101
f 96/72/94 81/79/80 104/80/102
f 91/67/89 103/78/101 99/75/97
f 98/74/96 105/81/103 95/71/93
f 98/74/96 99/75/97 106/82/104
f 98/74/96 107/83/105 105/81/103
f 98/74/96 106/82/104 107/83/105
f 95/71/93 105/81/103 100/71/98
f 101/76/99 100/71/98 108/84/106
f 101/76/99 108/84/106 85/85/84
f 100/71/98 105/81/103 108/84/106
f 102/77/100 88/86/86 97/73/95
f 102/77/100 85/85/84 88/86/86
f 88/86/86 81/79/80 97/73/95
f 104/80/102 109/87/107 103/78/101
f 104/80/102 81/79/80 76/80/75
f 104/80/102 78/88/77 109/87/107
f 104/80/102 76/80/75 78/88/77
f 99/75/97 109/87/107 106/82/104
f 99/75/97 103/78/101 109/87/107
f 107/83/105 106/82/104 110/89/108
f 107/83/105 110/89/108 111/90/109
f 109/87/107 78/88/77 110/89/108
f 109/87/107 110/89/108 106/82/104
f 108/84/106 84/91/83 85/85/84
f 111/90/109 110/89/108 86/92/85
f 111/90/109 86/92/85 84/91/83
f 86/92/85 110/89/108 78/88/77
f 112/93/110 23/94/23 13/95/13
f 112/93/110 20/96/20 23/94/23
f 112/93/110 13/95/13 14/97/14
f 112/93/110 14/97/14 20/96/20
f 23/94/23 20/96/20 113/93/111
f 23/94/23 113/93/111 17/95/17
f 20/96/20 18/97/18 113/93/111
f 113/93/111 18/97/18 17/95/17
f 114/98/112 115/99/113 116/100/114
f 114/98/112 117/101/115 115/99/113
f 114/98/112 116/100/114 118/99/74
f 114/98/112 118/99/74 117/101/115
f 115/99/113 119/102/116 116/100/114
f 115/99/113 117/101/115 119/102/116
f 119/102/116 118/99/74 116/100/114
f 119/102/116 117/101/115 118/99/74
f 120/98/117 121/100/118 122/99/113
f 120/98/117 123/99/74 121/100/118
f 120/98/117 122/99/113 124/101/119
f 120/98/117 124/101/119 123/99/74
f 121/100/118 125/102/120 122/99/113
f 121/100/118 123/99/74 125/102/120
f 125/102/120 124/101/119 122/99/113
f 125/102/120 123/99/74 124/101/119
vt 0.549519 0.930893
vt 0.331575 0.757769
vt 0.0108474 0.893675
vt 0.766953 0.786559
vt 0.965251 0.983807
o merged_1_0_node
g polygon_0
usemtl TEX_ANIM_EYE_mat_id
f 108/103/106 111/104/109 84/105/83
f 102/104/100 101/103/99 85/105/84
f 101/103/99 102/104/100 92/106/90
f 92/106/90 94/107/92 101/103/99
f 107/106/105 111/104/109 108/103/106
f 107/106/105 108/103/106 105/107/103
