mtllib Swalot_F.mtl
v 0 0 0.000475909
vt 0.877661 0.0931247
vn 0 -1 0
v -0.284753 0 0.22603
vt 0.880383 0.0931247
vn -0.3461298 -0.8843986 0.3131028
v -0.402678 0 0.0012642
vn -0.5803932 -0.8143363 -0.0002696361
v -0.0910155 0 0.3274
vn -0.123005 -0.884971 0.449106
v -0.284736 0 -0.322998
vn -0.2842949 -0.9196367 -0.2710069
v 0.0910155 0 0.3274
vn 0.123864 -0.890004 0.438806
v 0 0 -0.447527
vn 0 -0.8314766 -0.5555598
v 0.284753 0 0.22603
vn 0.3461298 -0.8843986 0.3131028
v 0.284736 0 -0.322998
vn 0.2842949 -0.9196367 -0.2710069
v 0.402678 0 0.0012642
vn 0.5803928 -0.8143367 -0.0002696019
v -0.122493 0.5073902 0.2984098
vt 0.9588 0.0248131
vn -0.7136597 0.6389018 -0.2872181
v -0.153301 0.4910491 0.3182881
vn -0.03515607 0.3059799 0.9513886
v -0.11238 0.5057951 0.3117057
vn 0.1459221 0.2271151 0.9628735
v -0.157164 0.4953733 0.3038051
vn -0.4243658 0.8259506 -0.3711055
v -0.100586 0.5419346 0.2954246
vn -0.07863967 0.452678 0.8881996
v -0.153301 0.4816744 0.2974207
vn -0.03508097 -0.508039 -0.8606194
v -0.110744 0.5419826 0.2829047
vn -0.8873418 0.420695 -0.1887862
v -0.11238 0.4963904 0.2907712
vn 0.146434 -0.5684686 -0.8095682
v -0.100586 0.5325899 0.2746261
vn -0.0781364 -0.3627409 -0.9286085
v -0.149437 0.4773491 0.3119037
vn 0.2954352 -0.8714604 0.3915032
v -0.162915 0.4850316 0.3084514
vn -0.9488819 -0.2879082 0.1293521
v -0.0845111 0.5728197 0.2690518
vn -0.7266558 0.6266688 -0.2815271
v -0.0904283 0.5325429 0.287146
vn 0.8940867 -0.4084869 0.1837051
v -0.0761737 0.5703996 0.2826377
vn 0.002678023 0.5049816 0.8631259
v -0.102267 0.4947953 0.3040681
vn 0.745416 -0.6081406 0.2729835
v -0.0682758 0.5736528 0.2686777
vn 0.6793498 0.6693638 -0.3007256
v -0.0678363 0.5586358 0.2754252
vn 0.8333302 -0.5042174 0.2265518
v -0.0761737 0.5610559 0.2618392
vn 0.002722601 -0.3098908 -0.9507683
v 0.122493 0.5073902 0.2984098
vn 0.7136593 0.6389025 -0.2872179
v 0.153301 0.4910491 0.3182881
vn 0.03515546 0.3059809 0.9513884
v 0.157164 0.4953733 0.3038051
vn 0.4243667 0.8259502 -0.3711053
v 0.11238 0.5057951 0.3117057
vn -0.1459231 0.2271141 0.9628736
v 0.153301 0.4816744 0.2974207
vn 0.03508055 -0.5080397 -0.8606189
v 0.100586 0.5419346 0.2954246
vn 0.07863923 0.4526789 0.8881992
v 0.11238 0.4963904 0.2907712
vn -0.146433 -0.5684698 -0.8095675
v 0.110744 0.5419826 0.2829047
vn 0.8873414 0.4206953 -0.1887874
v 0.100586 0.5325899 0.2746261
vn 0.07813709 -0.3627409 -0.9286084
v 0.162915 0.4850316 0.3084514
vn 0.9488816 -0.2879091 0.129353
v 0.149437 0.4773491 0.3119037
vn -0.2954361 -0.8714601 0.391503
v 0.0845111 0.5728197 0.2690518
vn 0.7266551 0.626669 -0.2815282
v 0.0904283 0.5325429 0.287146
vn -0.8940863 -0.4084877 0.1837051
v 0.0761737 0.5703996 0.2826377
v 0.102267 0.4947953 0.3040681
vn -0.745416 -0.6081406 0.2729835
v 0.0682759 0.5736528 0.2686777
vn -0.6793498 0.6693638 -0.3007256
v 0.0678363 0.5586358 0.2754252
vn -0.8333302 -0.5042174 0.2265518
v 0.0761737 0.5610559 0.2618392
v -0.0336163 0.5736158 0.2689577
vt 0.0688753 0.923031
vn -0.5043947 0.4194031 0.7547762
v -0.21111 0.5891759 0.1735671
vn -0.6507937 0.4834209 0.5854672
v -0.240593 0.4706987 0.2132468
vn -0.6327346 0.4766271 0.6103061
v -0.0499488 0.5263705 0.2916353
vn -0.2313718 0.2558377 0.9386236
v -0.0227547 0.5939602 0.3137418
vn -0.2624029 0.8965299 0.3569018
v 0.0227547 0.5939602 0.3137418
vn 0.2624029 0.8965299 0.3569018
v 0.0336163 0.5736158 0.2689577
vn 0.5043947 0.4194031 0.7547762
v 0.022296 0.6204831 0.3002889
vn 0.2674077 -0.04060264 0.9627277
v -0.022296 0.6204831 0.3002889
vn -0.2674077 -0.04060264 0.9627277
v -0.0490208 0.6166668 0.2378186
vn -0.3593002 0.6321534 0.6865023
v -0.302855 0.5431167 0.001069769
vn -0.9108911 0.4126328 0.003429591
v -0.18365 0.6640891 0.1106547
vn -0.5799353 0.7562557 0.3029063
v -0.0242098 0.5399535 0.3314371
vn -0.3160283 -0.05795716 0.9469779
v -0.256775 0.3155734 0.2572349
vn -0.5219739 -0.02736897 0.8525223
v 0.0499488 0.5263705 0.2916353
vn 0.2312648 0.2489557 0.9404987
v 0.0242098 0.5399535 0.3314371
vn 0.2781653 -0.2909559 0.9154063
v 0.0228136 0.6513042 0.2659705
vn 0.3251226 0.9159583 0.2351929
v 0.0490208 0.6166668 0.2378186
vn 0.3609292 0.6173186 0.6990336
v -0.0228136 0.6513042 0.2659705
vn -0.2715366 0.9613672 -0.0451767
v -0.0459125 0.691553 0.171783
vn -0.2406872 0.8305101 0.5023172
v -0.2205 0.6481901 -0.09900466
vn -0.6798266 0.6997936 -0.2193739
v -0.127354 0.7095534 0.001362082
vn -0.3432318 0.9386034 -0.03486444
v -0.386369 0.3380794 0.2408257
vt 0.11765 0.82118
vn -0.8699582 -0.001879753 0.4931219
v -0.34711 0.4021059 0.0008901634
vn -0.9377394 0.3160234 -0.1441318
v 0.240593 0.4706987 0.2132468
vn 0.6327349 0.4766264 0.6103064
v 0.256775 0.3155734 0.2572349
vn 0.5219739 -0.02736907 0.8525223
v 0.0459125 0.691553 0.171783
vn 0.2420902 0.8311864 0.5005212
v -0.111102 0.6515813 -0.2238366
vn -0.2550685 0.7257866 -0.6388848
v 0 0.7286026 0.06651588
vn 0 0.9930289 0.1178712
v 0 0.7204121 -0.09956438
vn 0 0.9611008 -0.2761977
v -0.379454 0.2350876 0.0006334487
vt 0.166425 0.719328
vn -0.993363 0.08728784 -0.07490519
v -0.204239 0.5673305 -0.215809
vn -0.6502988 0.3945247 -0.6492009
v -0.235532 0.4620032 -0.2390027
vn -0.6923481 0.26027 -0.6729887
v 0.21111 0.5891759 0.1735671
vn 0.6507937 0.4834209 0.5854672
v 0.127354 0.7095534 0.001362082
vn 0.3432318 0.9386034 -0.03486464
v 0.111102 0.6515813 -0.2238366
vn 0.2550685 0.7257866 -0.6388848
vt 0.163823 0.0931247
v -0.272069 0.1555995 0.2459784
vt 0.844961 0.511537
vn -0.7508101 0.01621999 0.660319
vt 0.891516 0.929706
v -0.25363 0.3444088 -0.2542032
vn -0.6981579 0.1958274 -0.6886415
v 0 0.5346572 -0.3113737
vn 0 0.3621753 -0.93211
v 0.302855 0.5431167 0.001069769
vn 0.9108911 0.4126328 0.003429451
v 0.34711 0.4021059 0.0008901634
vn 0.9377394 0.3160234 -0.1441318
v 0.386369 0.3380794 0.2408257
vn 0.8699582 -0.001879903 0.4931219
vt 0.891326 0.929706
v 0.18365 0.6640891 0.1106547
vn 0.5799353 0.7562557 0.3029063
vt 0.787463 0.0931247
v 0 0.4173111 -0.3405677
vn 0 0.2237643 -0.9746433
v 0 0.234974 -0.381871
vn 0 0.242711 -0.9700986
v 0.2205 0.6481901 -0.09900466
vn 0.6798266 0.6997936 -0.2193739
v 0.204239 0.5673305 -0.215809
vn 0.6502982 0.394525 -0.6492013
v 0.379454 0.2350876 0.0006334487
vn 0.993363 0.08728765 -0.07490519
v 0.235532 0.4620032 -0.2390027
vn 0.6923481 0.26027 -0.6729887
v 0.25363 0.3444088 -0.2542032
vn 0.6981579 0.1958274 -0.6886415
v 0.272069 0.1555995 0.2459784
vt 0.844771 0.511537
vn 0.7508101 0.01621999 0.660319
vt 0.166234 0.719328
vt 0.163633 0.0931247
vt 0.787273 0.0931247
v -0.274428 0.1314792 -0.2922931
vt 0.48186 0.448488
vn -0.7125705 0.1944565 -0.6741141
vt 0.450811 0.0931247
vt 1.1961 0.0931247
vt -0.202407 0.0931247
vt 1.19843 0.719328
vt -0.202407 0.719035
vt 0.514415 1.00509
v -0.0792595 0.1555995 0.3407017
vt 0.309912 0.511537
vn -0.2467598 -0.02261167 0.9688128
vt -0.202089 0.511537
vt 0.274923 0.0931247
vt -0.158135 0.929706
vt 0.725236 0.0931247
v -0.0597339 0.3116853 0.3391058
vt 0.355341 0.919544
vn -0.2002523 0.1527821 0.9677585
v 0.0792595 0.1555995 0.3407017
vt 0.690247 0.511537
vn 0.2563276 -0.02208476 0.9663376
vt -0.256375 0.0931247
vt 0.365079 1.007
vt 1.20225 0.511537
vt 1.25653 0.0931247
vt 0.63508 1.007
v 0.0597339 0.3116853 0.3391058
vt 0.644818 0.919544
vn 0.2048212 0.1560261 0.9662836
vt 1.15829 0.929706
vt 0.558497 0.995604
vt 0.441662 0.995604
v 0.274428 0.1314792 -0.2922931
vt 0.48169 0.448488
vn 0.7125705 0.1944565 -0.6741141
vt 1.19593 0.0931247
vt 0.450641 0.0931247
vt 1.19826 0.719328
vt -0.202583 0.0931247
vt 0.514245 1.00509
vt -0.202583 0.719035
vt 0.0745839 0.92756
o merged_0_0_node
g polygon_0
usemtl lambert3_mat_id
f 1/1/1 2/2/2 3/2/3
f 1/1/1 4/2/4 2/2/2
f 1/1/1 3/2/3 5/2/5
f 1/1/1 6/2/6 4/2/4
f 1/1/1 5/2/5 7/2/7
f 1/1/1 8/2/8 6/2/6
f 1/1/1 7/2/7 9/2/9
f 1/1/1 10/2/10 8/2/8
f 1/1/1 9/2/9 10/2/10
f 11/3/11 12/3/12 13/3/13
f 11/3/11 14/3/14 12/3/12
f 11/3/11 13/3/13 15/3/15
f 11/3/11 16/3/16 14/3/14
f 11/3/11 15/3/15 17/3/17
f 11/3/11 18/3/18 16/3/16
f 11/3/11 17/3/17 19/3/19
f 11/3/11 19/3/19 18/3/18
f 12/3/12 20/3/20 13/3/13
f 12/3/12 14/3/14 21/3/21
f 12/3/12 21/3/21 20/3/20
f 16/3/16 18/3/18 20/3/20
f 16/3/16 21/3/21 14/3/14
f 16/3/16 20/3/20 21/3/21
f 15/3/15 22/3/22 17/3/17
f 15/3/15 13/3/13 23/3/23
f 15/3/15 24/3/24 22/3/22
f 15/3/15 23/3/23 24/3/24
f 17/3/17 22/3/22 19/3/19
f 18/3/18 25/3/25 20/3/20
f 18/3/18 19/3/19 23/3/23
f 18/3/18 23/3/23 25/3/25
f 25/3/25 13/3/13 20/3/20
f 25/3/25 23/3/23 13/3/13
f 24/3/24 26/3/26 22/3/22
f 24/3/24 23/3/23 27/3/27
f 24/3/24 27/3/27 26/3/26
f 19/3/19 22/3/22 28/3/28
f 19/3/19 28/3/28 23/3/23
f 28/3/28 27/3/27 23/3/23
f 28/3/28 26/3/26 27/3/27
f 28/3/28 22/3/22 26/3/26
f 29/3/29 30/3/30 31/3/31
f 29/3/29 32/3/32 30/3/30
f 29/3/29 31/3/31 33/3/33
f 29/3/29 34/3/34 32/3/32
f 29/3/29 33/3/33 35/3/35
f 29/3/29 36/3/36 34/3/34
f 29/3/29 35/3/35 37/3/37
f 29/3/29 37/3/37 36/3/36
f 30/3/30 38/3/38 31/3/31
f 30/3/30 32/3/32 39/3/39
f 30/3/30 39/3/39 38/3/38
f 33/3/33 39/3/39 35/3/35
f 33/3/33 31/3/31 38/3/38
f 33/3/33 38/3/38 39/3/39
f 34/3/34 36/3/36 40/3/40
f 34/3/34 41/3/41 32/3/32
f 34/3/34 40/3/40 42/3/24
f 34/3/34 42/3/24 41/3/41
f 36/3/36 37/3/37 40/3/40
f 35/3/35 39/3/39 43/3/42
f 35/3/35 43/3/42 41/3/41
f 35/3/35 41/3/41 37/3/37
f 43/3/42 39/3/39 32/3/32
f 43/3/42 32/3/32 41/3/41
f 42/3/24 40/3/40 44/3/43
f 42/3/24 45/3/44 41/3/41
f 42/3/24 44/3/43 45/3/44
f 37/3/37 46/3/28 40/3/40
f 37/3/37 41/3/41 46/3/28
f 46/3/28 45/3/44 44/3/43
f 46/3/28 44/3/43 40/3/40
f 46/3/28 41/3/41 45/3/44
f 47/4/45 48/4/46 49/4/47
f 47/4/45 49/4/47 50/4/48
f 47/4/45 50/4/48 51/4/49
f 47/4/45 51/4/49 52/4/50
f 47/4/45 52/4/50 53/4/51
f 47/4/45 53/4/51 54/4/52
f 47/4/45 54/4/52 55/4/53
f 47/4/45 55/4/53 56/4/54
f 48/4/46 57/4/55 49/4/47
f 48/4/46 58/4/56 57/4/55
f 50/4/48 59/4/57 51/4/49
f 50/4/48 49/4/47 60/4/58
f 52/4/50 61/4/59 53/4/51
f 52/4/50 51/4/49 62/4/60
f 52/4/50 62/4/60 61/4/59
f 62/4/60 51/4/49 59/4/57
f 54/4/52 63/4/61 55/4/53
f 54/4/52 53/4/51 64/4/62
f 54/4/52 64/4/62 63/4/61
f 56/4/54 55/4/53 65/4/63
f 56/4/54 65/4/63 64/4/62
f 56/4/54 64/4/62 66/4/64
f 65/4/63 63/4/61 64/4/62
f 65/4/63 55/4/53 63/4/61
f 58/4/56 67/4/65 57/4/55
f 58/4/56 66/4/64 68/4/66
f 58/4/56 68/4/66 67/4/65
f 49/4/47 69/5/67 60/4/58
f 49/4/47 57/4/55 70/4/68
f 49/4/47 70/4/68 69/5/67
f 61/4/59 71/4/69 53/4/51
f 61/4/59 72/4/70 71/4/69
f 64/4/62 73/4/71 66/4/64
f 68/4/66 74/4/72 67/4/65
f 68/4/66 66/4/64 75/4/73
f 68/4/66 76/4/74 74/4/72
f 68/4/66 75/4/73 76/4/74
f 66/4/64 73/4/71 75/4/73
f 60/4/58 69/5/67 77/6/75
f 69/5/67 70/4/68 77/6/75
f 57/4/55 67/4/65 78/4/76
f 57/4/55 79/4/77 70/4/68
f 57/4/55 78/4/76 79/4/77
f 67/4/65 74/4/72 78/4/76
f 53/4/51 71/4/69 80/4/78
f 76/4/74 75/4/73 81/4/79
f 76/4/74 82/4/80 74/4/72
f 76/4/74 81/4/79 82/4/80
f 75/4/73 73/4/71 81/4/79
f 77/6/75 3/7/3 83/8/81
f 77/6/75 83/8/81 60/9/58
f 70/4/68 79/4/77 84/4/82
f 70/4/68 84/4/82 77/4/75
f 78/4/76 74/4/72 85/4/83
f 78/4/76 85/4/83 79/4/77
f 74/4/72 82/4/80 85/4/83
f 71/4/69 86/4/84 80/4/78
f 71/4/69 87/4/85 86/4/84
f 71/4/69 88/4/86 87/4/85
f 71/4/69 72/10/70 88/4/86
f 73/4/71 89/4/87 81/4/79
f 80/4/78 86/4/84 89/4/87
f 3/7/3 2/11/2 83/8/81
f 84/4/82 79/4/77 90/4/88
f 84/4/82 90/4/88 91/4/89
f 79/4/77 85/4/83 90/4/88
f 82/4/80 81/4/79 92/4/90
f 82/4/80 93/4/91 85/4/83
f 82/4/80 92/4/90 93/4/91
f 92/4/90 89/4/87 86/4/84
f 92/4/90 81/4/79 89/4/87
f 92/4/90 86/4/84 93/4/91
f 87/4/85 88/4/86 94/4/92
f 87/4/85 95/4/93 86/4/84
f 87/4/85 94/4/92 96/4/94
f 87/4/85 96/4/94 95/4/93
f 95/4/93 96/4/94 90/4/88
f 95/4/93 90/4/88 85/4/83
f 95/4/93 85/4/83 93/4/91
f 95/4/93 93/4/91 86/4/84
f 90/4/88 96/4/94 91/4/89
f 94/4/92 88/4/86 72/10/70
f 72/10/70 97/12/95 94/13/92
f 97/12/95 10/14/10 94/13/92
f 97/12/95 8/15/8 10/14/10
f 98/16/96 5/17/5 3/18/3
f 98/16/96 7/19/7 5/17/5
f 98/16/96 3/18/3 77/20/75
f 98/16/96 91/21/89 7/19/7
f 98/16/96 77/20/75 84/22/82
f 98/16/96 84/22/82 91/21/89
f 99/23/97 83/24/81 4/25/4
f 99/23/97 60/26/58 83/24/81
f 99/23/97 4/25/4 6/27/6
f 99/23/97 100/28/98 60/26/58
f 99/23/97 6/27/6 101/29/99
f 99/23/97 101/29/99 100/28/98
f 83/24/81 2/30/2 4/25/4
f 60/26/58 100/28/98 50/31/48
f 6/27/6 97/32/95 101/29/99
f 6/27/6 8/33/8 97/32/95
f 100/28/98 61/34/59 50/31/48
f 100/28/98 101/29/99 102/35/100
f 100/28/98 102/35/100 61/34/59
f 97/32/95 72/36/70 101/29/99
f 72/36/70 61/34/59 102/35/100
f 72/36/70 102/35/100 101/29/99
f 50/31/48 61/34/59 62/37/60
f 50/31/48 62/37/60 59/38/57
f 103/39/101 10/40/10 9/41/9
f 103/39/101 94/42/92 10/40/10
f 103/39/101 9/41/9 7/43/7
f 103/39/101 96/44/94 94/42/92
f 103/39/101 7/43/7 91/45/89
f 103/39/101 91/45/89 96/44/94
f 47/46/45 56/46/54 48/46/46
f 53/46/51 80/46/78 64/46/62
vt 1.65687 0.767638
vt -0.491797 0.763868
vt 1.41893 1.05055
vt -0.406929 1.05055
o merged_1_0_node
g polygon_0
usemtl TEX_ANIM_EYE_mat_id
f 48/47/46 56/48/54 58/49/56
f 56/48/54 66/50/64 58/49/56
f 80/47/78 89/49/87 64/48/62
f 89/49/87 73/50/71 64/48/62
