mtllib Metang.mtl
v 0 0.519611 0.178444
vt 0.977471 0.975616
vn 0 0.941762 0.33628
v -0.0511567 0.490075 0.178444
vn -0.8155897 0.4708808 0.3362809
v 0 0.46054 0.343872
vn 0 2.04317E-06 1
v -0.0511567 0.431005 0.178444
vn -0.8155893 -0.4708812 0.3362811
v 0 0.40147 0.178444
vn 0 -0.941762 0.33628
v 0.0511567 0.431005 0.178444
vn 0.8155893 -0.4708812 0.3362811
v 0.0511567 0.490075 0.178444
vn 0.8155897 0.4708808 0.3362809
v 0 0.519611 -0.179106
vn 0 0.9413334 -0.3374782
v 0.0511567 0.490075 -0.179106
vn 0.815218 0.470667 -0.337479
v 0 0.46054 -0.343872
vn 0 1.69654E-06 -1
v 0.0511567 0.431005 -0.179106
vn 0.815218 -0.470667 -0.337479
v 0 0.40147 -0.179106
vn 0 -0.9413335 -0.3374778
v -0.0511567 0.431005 -0.179106
vn -0.815218 -0.470667 -0.337479
v -0.0511567 0.490075 -0.179106
vn -0.8152184 0.4706667 -0.3374788
v 0.314879 0.518264 -0.125811
vn 0.8656926 -0.3618508 -0.3458908
v 0.260611 0.355623 -0.0914883
v 0.251901 0.355623 -0.113288
vn 0.351267 0.07966371 0.93288
v 0.133403 0.469356 -0.0533019
vn -0.388294 0.07966378 -0.9180858
vn -0.6053691 -0.7583032 0.2418771
v 0.270543 0.518264 -0.204412
vn 0.7437989 -0.361851 -0.561985
v 0.227249 0.355623 -0.15699
v 0.213098 0.355623 -0.17572
vn 0.5848929 0.0796639 0.8071889
v 0.11462 0.469356 -0.0866022
vn -0.6167067 0.07966366 -0.7831516
vn -0.5201299 -0.7583038 0.3929889
v -0.314879 0.518264 -0.125811
vn -0.8656923 -0.3618511 -0.3458911
v -0.251901 0.355623 -0.113288
v -0.260611 0.355623 -0.0914883
vn -0.351267 0.07966371 0.93288
v -0.133403 0.469356 -0.0533019
vn 0.388294 0.07966378 -0.9180858
vn 0.6053691 -0.7583032 0.2418771
v -0.270543 0.518264 -0.204412
vn -0.7437981 -0.361851 -0.5619861
v -0.213098 0.355623 -0.17572
v -0.227249 0.355623 -0.15699
vn -0.5848929 0.0796639 0.8071889
v -0.11462 0.469356 -0.0866022
vn 0.6167073 0.07966373 -0.7831513
vn 0.5201299 -0.7583038 0.3929889
v -0.313982 0.455286 0.1838
vt 0.0862556 0.584728
vn 0.3606851 0.5550852 0.7495243
v -0.331921 0.321269 0.291683
vn 0.3635951 0.5384282 0.7601932
v -0.255 0.314298 0.25983
vt 0.0307993 0.613469
v -0.302262 0.119664 0.416701
vt 0.50692 0.636405
vt 0.0120789 0.506218
vn 0.185053 0.5890591 0.7866161
v -0.150331 0.113036 0.385922
vt 0.513927 0.337227
vn 0.6730278 0.5308759 0.5149799
vn 0.6417511 0.7470341 -0.173481
v -0.190791 0.275238 0.237213
vt 0.067004 0.346388
vn 0.6043082 0.7696412 -0.2060681
vn -0.8688115 0.1622721 0.4677973
vn -0.8736459 0.244201 0.4208429
v -0.377741 0.0489322 0.301054
v -0.392121 0.264855 0.199446
v -0.363879 0.408527 0.107349
vn -0.8634049 0.3814099 0.33024
vn -0.5997472 -0.3449411 -0.7220243
v -0.325416 0.248312 0.151941
vn -0.5987102 -0.3611541 -0.7149222
vn -0.5977816 -0.3735847 -0.7092895
v -0.257871 0.212376 0.134435
vn 0.126372 0.3217651 -0.9383482
v -0.272459 -0.00141031 0.198802
vn -0.254414 -0.338233 -0.9060199
vn 0.132489 0.2698031 -0.9537573
vn -0.734221 -0.272396 -0.6218681
v -0.180716 0.234147 0.163266
vt 0.067769 0.162393
vn 0.6400241 0.3947811 -0.6591791
v -0.131912 0.038208 0.251253
vt 0.489104 0.0106598
vn 0.8451382 -0.02917491 -0.5337511
vt 0.467724 0.592999
vn 0.06160579 -0.8688628 0.4912049
v -0.310405 0.425952 0.130599
vn 0.791734 0.13075 -0.5967091
vn 0.4088488 -0.03804938 -0.9118086
vn 0.8934317 0.4160559 -0.1693439
vt 0.146422 0.0756598
v -0.165826 0.0575702 0.261546
vt 0.974949 0.979114
vn 0.8442371 -0.4649351 -0.266644
v -0.176185 0.0834852 0.308684
vn 0.9634802 -0.07982392 0.2556051
v -0.182107 0.00264708 0.305764
v -0.21696 0.045275 0.246211
vn 0.3575192 -0.6476723 -0.6728303
vn -0.848506 0.04311 0.527427
v -0.249156 0.121934 0.385846
vn 0.006333539 0.182261 0.9832298
v -0.290471 0.102055 0.355865
vn -0.6166189 0.104751 0.7802618
v -0.244599 0.0509157 0.398981
v -0.20682 0.107148 0.354382
vn 0.6265297 0.1804369 0.7582237
vn 0.024697 -0.6313509 -0.7751039
v -0.328402 0.0476723 0.264428
vn -0.7905058 -0.5644609 -0.2376649
v -0.276728 0.0416362 0.24727
vn -0.2998681 -0.6876954 -0.6611763
v -0.304029 -0.00477569 0.307925
v -0.319604 0.0747536 0.311227
vn -0.9370566 -0.1955309 0.2892969
vn 0.8551064 0.1468301 0.4972262
v 0.313982 0.455286 0.1838
vn -0.3606851 0.5550852 0.7495243
v 0.255 0.314298 0.25983
vn -0.363273 0.540324 0.7590011
v 0.331921 0.321269 0.291683
v 0.302262 0.119664 0.416701
vn -0.365191 0.5288209 0.7661489
vn -0.185053 0.5890591 0.7866161
vn -0.6417511 0.7470341 -0.173481
v 0.150331 0.113036 0.385922
vn -0.6730278 0.5308759 0.5149799
v 0.190791 0.275238 0.237213
vn -0.6043082 0.7696412 -0.2060681
vn 0.8688115 0.1622721 0.4677973
v 0.377741 0.0489322 0.301054
vn 0.8736459 0.244201 0.4208429
v 0.392121 0.264855 0.199446
v 0.363879 0.408527 0.107349
vn 0.8634049 0.3814099 0.33024
vn 0.5997472 -0.3449411 -0.7220243
vn 0.5985638 -0.3632159 -0.7139997
v 0.325416 0.248312 0.151941
vn 0.5977809 -0.373585 -0.70929
v 0.257871 0.212376 0.134435
vn -0.126372 0.3217651 -0.9383482
vn -0.132489 0.2698031 -0.9537573
v 0.272459 -0.00141031 0.198802
vn 0.254414 -0.338233 -0.9060199
vn 0.734221 -0.272396 -0.6218681
v 0.180716 0.234147 0.163266
vn -0.6400241 0.3947811 -0.6591791
v 0.131912 0.038208 0.251253
vn -0.8451382 -0.02917491 -0.5337511
vn -0.06160579 -0.8688628 0.4912049
v 0.310405 0.425952 0.130599
vn -0.791734 0.13075 -0.5967091
vn -0.8934317 0.4160559 -0.1693439
vn -0.4088488 -0.03804918 -0.9118086
v 0.165826 0.0575702 0.261546
vn -0.8442371 -0.4649351 -0.266644
v 0.182107 0.00264708 0.305764
v 0.176185 0.0834852 0.308684
vn -0.9634802 -0.07982392 0.2556051
v 0.21696 0.045275 0.246211
vn -0.3575192 -0.6476723 -0.6728303
vn 0.848506 0.04311 0.527427
v 0.249156 0.121934 0.385846
vn -0.00633322 0.18226 0.98323
v 0.244599 0.0509157 0.398981
v 0.290471 0.102055 0.355865
vn 0.6166189 0.104751 0.7802618
v 0.20682 0.107148 0.354382
vn -0.626529 0.180437 0.7582241
vn -0.024697 -0.6313509 -0.7751039
v 0.328402 0.0476723 0.264428
vn 0.7905058 -0.5644609 -0.2376649
v 0.304029 -0.00477569 0.307925
v 0.276728 0.0416362 0.24727
vn 0.2998681 -0.6876954 -0.6611763
v 0.319604 0.0747536 0.311227
vn 0.9370566 -0.1955309 0.2892969
vn -0.8551064 0.1468301 0.4972262
o merged_0_0_node
g polygon_0
usemtl DANBARU_float_lambert3_mat_id
f 1/1/1 2/1/2 3/1/3
f 2/1/2 4/1/4 3/1/3
f 4/1/4 5/1/5 3/1/3
f 5/1/5 6/1/6 3/1/3
f 6/1/6 7/1/7 3/1/3
f 7/1/7 1/1/1 3/1/3
f 8/1/8 9/1/9 10/1/10
f 9/1/9 11/1/11 10/1/10
f 11/1/11 12/1/12 10/1/10
f 12/1/12 13/1/13 10/1/10
f 13/1/13 14/1/14 10/1/10
f 14/1/14 8/1/8 10/1/10
f 15/1/15 16/1/15 17/1/15
f 15/1/16 18/1/16 16/1/16
f 18/1/17 15/1/17 17/1/17
f 16/1/18 18/1/18 17/1/18
f 19/1/19 20/1/19 21/1/19
f 19/1/20 22/1/20 20/1/20
f 22/1/21 19/1/21 21/1/21
f 20/1/22 22/1/22 21/1/22
f 23/1/23 24/1/23 25/1/23
f 23/1/24 25/1/24 26/1/24
f 26/1/25 24/1/25 23/1/25
f 25/1/26 24/1/26 26/1/26
f 27/1/27 28/1/27 29/1/27
f 27/1/28 29/1/28 30/1/28
f 30/1/29 28/1/29 27/1/29
f 29/1/30 28/1/30 30/1/30
f 31/2/31 32/2/32 33/2/32
f 32/3/32 34/4/32 33/5/32
f 34/4/33 35/6/34 33/5/35
f 36/7/36 33/5/35 35/6/34
f 34/4/37 32/3/38 37/4/37
f 37/4/37 32/3/38 38/3/38
f 38/2/38 32/2/38 39/2/39
f 39/2/39 32/2/38 31/2/39
f 39/2/40 40/2/41 38/2/41
f 40/5/41 37/4/42 38/3/41
f 41/7/43 42/6/44 40/5/45
f 40/5/45 42/6/44 37/4/46
f 41/7/43 43/8/47 42/6/44
f 43/8/47 44/9/48 42/6/44
f 44/9/48 43/8/47 35/6/34
f 43/8/47 36/7/36 35/6/34
f 42/10/49 44/10/49 37/10/49
f 37/10/49 44/10/49 34/10/49
f 34/10/49 44/10/49 35/10/49
f 45/2/50 39/2/51 31/2/52
f 31/2/52 33/2/35 45/2/50
f 40/2/45 39/2/51 45/2/50
f 33/2/35 40/2/45 45/2/50
f 43/11/47 41/11/43 36/11/36
f 40/11/45 33/11/35 41/11/43
f 36/11/36 41/11/43 33/11/35
f 46/12/53 47/12/54 48/12/53
f 48/12/53 49/12/55 46/12/53
f 47/12/56 49/12/56 48/12/56
f 50/12/57 51/12/58 52/12/57
f 52/12/57 53/12/59 50/12/57
f 51/12/60 53/12/60 52/12/60
f 54/12/61 55/12/62 56/12/61
f 56/12/61 57/12/63 54/12/61
f 55/12/64 57/12/64 56/12/64
f 58/2/65 59/2/66 60/2/66
f 60/3/66 59/5/66 61/4/67
f 61/4/68 59/5/69 62/6/70
f 63/7/71 62/6/70 59/5/69
f 61/4/72 64/4/72 60/3/73
f 64/4/72 65/3/73 60/3/73
f 65/2/73 66/2/74 60/2/73
f 66/2/74 58/2/74 60/2/73
f 66/2/75 65/2/76 67/2/76
f 67/5/76 65/3/76 64/4/77
f 68/7/78 67/5/79 69/6/80
f 67/5/79 64/4/81 69/6/80
f 68/7/78 69/6/80 70/8/82
f 70/8/82 69/6/80 71/9/83
f 71/9/83 62/6/70 70/8/82
f 70/8/82 62/6/70 63/7/71
f 69/10/84 64/10/84 71/10/84
f 64/10/84 61/10/84 71/10/84
f 61/10/84 62/10/84 71/10/84
f 72/2/85 58/2/86 66/2/87
f 58/2/86 72/2/85 59/2/69
f 67/2/79 72/2/85 66/2/87
f 59/2/69 72/2/85 67/2/79
f 70/11/82 63/11/71 68/11/78
f 59/11/69 67/11/79 63/11/71
f 63/11/71 67/11/79 68/11/78
f 73/12/88 74/12/88 75/12/89
f 74/12/88 73/12/88 76/12/90
f 75/12/91 74/12/91 76/12/91
f 77/12/92 78/12/92 79/12/93
f 78/12/92 77/12/92 80/12/94
f 79/12/95 78/12/95 80/12/95
f 81/12/96 82/12/96 83/12/97
f 82/12/96 81/12/96 84/12/98
f 83/12/99 82/12/99 84/12/99
v -0.170803 0.548307 0.0986132
vt 0.363556 0.992806
vn -0.830541 0.23465 0.505115
v -0.170803 0.548307 -0.0986132
vt 0.0178586 0.992806
vn -0.8366795 0.2488152 -0.4879123
v -0.198486 0.412765 0.114596
vt 0.384862 0.774195
v -0.202551 0.412765 -0.114708
vt 0.00774428 0.774195
v 0.170803 0.548307 -0.0986132
vt 0.956215 0.446233
vn 0.8305408 0.2346509 -0.5051149
v 0.170803 0.548307 0.0986132
vn 0.8366798 0.2488149 0.4879119
v 0.198486 0.412765 -0.114596
v 0.202551 0.412765 0.114708
v 0 0.548307 -0.197226
vt 0.541695 0.335967
vn -0.00396657 0.253589 -0.9673039
vt 0.94326 0.335967
v 0.00193586 0.412765 -0.232768
vt 0.541695 0.0144794
vt 1.0318 0.0144794
vt 0.0145657 0.751502
vn 0 1 0
vt 0.332972 0.566954
v 0 0.548307 0.197226
vt 0.0145656 0.0133109
vt 0.332972 0.197859
v -0.266353 0.34556 0.153779
vn -0.853745 -0.11009 0.5089201
v -0.273259 0.413745 0.157766
v -0.271808 0.34556 -0.153929
vn -0.8708634 -0.05230433 -0.4887342
v -0.273258 0.413745 -0.157766
vn -0.8588648 -0.04697289 -0.5100439
vt 0.981513 0.864823
vt 0.978859 0.747203
v 0 0.413745 0.315532
vt 0.416161 0.864823
vn 0.0121189 -0.053488 0.998495
v -0.00259779 0.34556 0.312357
vt 0.416161 0.747203
vn -0.0125117 -0.04603208 0.9988616
v 0.273258 0.413745 -0.157766
vt 0.992886 0.992014
vn 0.8601638 -0.116146 -0.4966169
v 0.273258 0.413745 0.157766
vt 0.417546 0.992014
vn 0.8592056 -0.05346097 0.5088298
v 0.266353 0.34556 -0.153779
vt 0.985874 0.877377
vn 0.8613188 -0.104118 -0.4972819
v 0.271808 0.34556 0.153929
vt 0.424295 0.877377
vn 0.8718174 -0.04599172 0.4876672
vt 0.946998 0.86372
vt 0.945743 0.748836
v 0 0.413745 -0.315532
vt 0.451963 0.86372
vn -0.0121185 -0.0534883 -0.998495
v 0.00259779 0.34556 -0.312357
vt 0.446638 0.748836
vn 0.01251189 -0.04603288 -0.9988616
vt 0.64815 -0.01105
vn 0 0.9767312 -0.214467
vt 1.01179 0.194693
vn -0.185734 0.9767312 -0.107233
v 0 0.483028 0
vt 0.64815 0.400435
vn -0.185734 0.9767312 0.107233
vn 0 0.9767312 0.214467
vn 0.185734 0.9767312 0.107233
vn 0.185734 0.9767312 -0.107233
vt 0.857978 0.406757
vn -0.4147528 -0.8874047 0.2012289
vt 0.502942 0.406757
vn -0.374594 -0.890846 -0.257046
v -0.162441 0.283335 0.0937851
vt 0.788757 0.533741
vn -0.277508 -0.9529551 0.121926
v -0.165414 0.283365 -0.0932436
vt 0.572961 0.537196
vn -0.188547 -0.9719312 -0.140712
v -0.0019556 0.283365 0.189874
vt 0.461468 0.728981
vn 1.27417E-05 -0.9619953 0.2730661
vt 0.322191 0.728981
vn 0.0006293291 -0.8916312 0.4527621
vt 0.858151 0.406757
vn 0.4089362 -0.8911784 0.1963981
v 0.165414 0.283365 0.0932435
vt 0.788132 0.533741
vn 0.2727961 -0.9548854 0.1173721
vn 0.381645 -0.887405 -0.258572
v 0.16244 0.283335 -0.0937851
vn 0.1895341 -0.9719623 -0.139162
v 0.00195548 0.283365 -0.189874
vn -0.0002756949 -0.9811708 -0.193142
vn -0.000491377 -0.891452 -0.453115
vt 0.914465 0.728981
o merged_1_0_node
g polygon_0
usemtl lambert3_mat_id
f 85/13/100 86/14/101 87/15/100
f 87/15/100 86/14/101 88/16/101
f 89/17/102 90/17/103 91/17/102
f 91/17/102 90/17/103 92/17/103
f 93/18/104 89/19/102 94/20/104
f 94/20/104 89/19/102 91/21/102
f 88/21/101 86/19/101 94/20/104
f 94/20/104 86/19/101 93/18/104
f 93/22/105 86/23/105 95/24/105
f 95/24/105 86/23/105 85/25/105
f 93/22/105 95/24/105 89/23/105
f 89/23/105 95/24/105 90/25/105
f 96/17/106 97/17/106 98/17/107
f 98/17/107 97/17/106 99/17/108
f 97/26/106 96/27/106 100/28/109
f 100/28/109 96/27/106 101/29/110
f 102/30/111 103/31/112 104/32/113
f 104/32/113 103/31/112 105/33/114
f 102/34/111 104/35/113 106/36/115
f 106/36/115 104/35/113 107/37/116
f 103/26/112 100/28/109 105/27/114
f 105/27/114 100/28/109 101/29/110
f 107/37/116 98/35/107 106/36/115
f 106/36/115 98/35/107 99/34/108
f 106/38/117 99/39/118 108/40/105
f 99/17/118 97/17/119 108/17/105
f 97/39/119 100/38/120 108/40/105
f 108/40/105 100/38/120 103/39/121
f 103/17/121 102/17/122 108/17/105
f 102/39/122 106/38/117 108/40/105
f 96/41/123 98/42/124 109/43/125
f 109/43/125 98/42/124 110/44/126
f 109/44/125 111/45/127 96/42/123
f 96/42/123 111/45/127 101/46/128
f 105/47/129 112/48/130 104/42/131
f 104/42/131 112/48/130 113/44/132
f 114/45/133 107/46/134 113/44/132
f 113/44/132 107/46/134 104/42/131
f 112/44/130 105/42/129 111/45/127
f 111/45/127 105/42/129 101/46/128
f 98/42/124 107/46/134 110/44/126
f 110/44/126 107/46/134 114/45/133
f 111/49/127 113/44/132 112/48/130
f 109/43/125 110/44/126 111/49/127
f 111/49/127 110/44/126 114/45/133
f 111/49/127 114/45/133 113/44/132
vt 0.0281441 0.964892
vn 0.00396681 0.253589 0.9673039
vt 0.801513 0.964892
v -0.00193586 0.412765 0.232768
vt 0.0281443 0.827069
vt 0.923324 0.827069
vt 0.922424 0.827069
o merged_2_0_node
g polygon_0
usemtl TEX_ANIM_EYE_mat_id
f 95/50/135 85/51/100 115/52/135
f 115/52/135 85/51/100 87/53/100
f 95/50/135 115/52/135 90/51/103
f 90/51/103 115/52/135 92/54/103
