ply
format ascii 1.0
element vertex 708
property float x
property float y
property float z
property uchar red
property uchar green
property uchar blue
element face 820
property list uchar int vertex_index
end_header
-0.34167 -0.55945 2.13781 245 218 110
-0.39831 -0.55945 2.13781 245 218 110
-0.65056 -0.55945 2.28848 245 218 110
-0.26743 -0.55946 2.28855 245 218 110
-0.53705 -0.55946 2.13781 245 218 110
-0.26745 -0.55946 2.01417 245 218 110
-0.6505 -0.55945 1.9612 245 218 110
-0.60773 -0.55946 2.01391 245 218 110
-0.52647 -0.55947 1.97577 245 218 110
-0.49347 -0.55947 1.9436 245 218 110
-0.19242 -0.55947 1.9436 245 218 110
-0.26742 -0.49787 2.33448 245 218 110
-0.61711 -0.49798 2.33438 245 218 110
-0.72507 -0.49812 2.28844 245 218 110
-0.66761 -0.45545 2.33437 245 218 110
-0.20999 -0.55946 2.33438 245 218 110
-0.52577 -0.55947 1.65234 245 218 110
-0.65036 -0.55946 1.21292 245 218 110
-0.51492 -0.55946 1.21292 245 218 110
-0.15042 -0.55946 1.21292 245 218 110
-0.72507 -0.49812 1.21292 245 218 110
-0.72507 -0.17671 1.21292 245 218 110
-0.707 -0.51295 1.21292 245 218 110
-0.72507 0.09493 1.21292 245 218 110
0.52577 -0.55947 1.65234 245 218 110
0.15042 -0.55946 1.21292 245 218 110
0.51492 -0.55946 1.21292 245 218 110
0.65036 -0.55946 1.21292 245 218 110
0.6505 -0.55945 1.9612 245 218 110
0.70644 -0.51341 1.21292 245 218 110
0.52647 -0.55947 1.97577 245 218 110
0.60773 -0.55946 2.01391 245 218 110
0.26745 -0.55946 2.01417 245 218 110
0.49347 -0.55947 1.9436 245 218 110
0.19242 -0.55947 1.9436 245 218 110
0.26751 -0.84341 2.01417 245 218 110
0.19216 -0.7919 1.9436 245 218 110
0.53705 -0.55946 2.13781 245 218 110
0.65056 -0.55945 2.28848 245 218 110
0.39831 -0.55945 2.13781 245 218 110
0.34167 -0.55945 2.13781 245 218 110
0.26743 -0.55946 2.28855 245 218 110
0.26742 -0.49787 2.33448 245 218 110
0.61711 -0.49798 2.33438 245 218 110
0.72507 -0.49812 2.28844 245 218 110
0.66761 -0.45545 2.33437 245 218 110
0.20999 -0.55946 2.33438 245 218 110
0.72507 -0.49812 1.21292 245 218 110
0.72507 -0.17671 1.21292 245 218 110
0.72507 0.09493 1.21292 245 218 110
0.72507 -0.49812 1.17947 245 218 110
0.72507 -0.19304 1.17947 245 218 110
0.72507 -0.49812 1.07675 245 218 110
0.72507 -0.19304 1.07675 245 218 110
0.72507 -0.22236 1.04263 245 218 110
0.72507 -0.46748 1.04263 245 218 110
0.72507 0.42605 1.21292 245 218 110
0.72507 0.55752 2.28844 245 218 110
0.66759 0.50771 2.33436 245 218 110
0.60016 0.57667 2.33436 245 218 110
0.65015 0.63415 2.28844 245 218 110
0.72507 0.55752 1.21292 245 218 110
0.67143 0.61238 1.21292 245 218 110
-0.60016 0.57667 2.33436 245 218 110
-0.65015 0.63415 2.28844 245 218 110
-0.72507 0.55752 2.28844 245 218 110
-0.66759 0.50771 2.33436 245 218 110
-0.66911 0.61476 1.21292 245 218 110
-0.65015 0.63415 1.21292 245 218 110
-0.38723 0.63415 1.21292 245 218 110
-0.15453 0.63415 1.21292 245 218 110
0.15453 0.63415 1.21292 245 218 110
0.38723 0.63415 1.21292 245 218 110
0.65015 0.63415 1.21292 245 218 110
-0.72507 0.42605 1.21292 245 218 110
-0.72507 0.55752 1.21292 245 218 110
-0.72507 0.40144 1.17947 245 218 110
-0.72507 0.11125 1.17947 245 218 110
0.65015 0.63415 1.17947 245 218 110
0.41013 0.63415 1.17947 245 218 110
-0.65015 0.63415 1.17947 245 218 110
0.13542 0.63415 1.17947 245 218 110
-0.13542 0.63415 1.17947 245 218 110
-0.72507 0.40144 1.07675 245 218 110
-0.72507 0.11125 1.07675 245 218 110
0.65015 0.63415 1.07675 245 218 110
0.41013 0.63415 1.07675 245 218 110
0.44184 0.63415 1.04263 245 218 110
0.62316 0.63415 1.04263 245 218 110
0.13542 0.63415 1.07675 245 218 110
-0.13542 0.63415 1.07675 245 218 110
0.11786 0.63415 1.04263 245 218 110
-0.11786 0.63415 1.04263 245 218 110
-0.72507 0.37847 1.04263 245 218 110
-0.72507 0.14057 1.04263 245 218 110
-0.41013 0.63415 1.17947 245 218 110
-0.41013 0.63415 1.07675 245 218 110
-0.65015 0.63415 1.07675 245 218 110
-0.62206 0.63415 1.04263 245 218 110
-0.44184 0.63415 1.04263 245 218 110
-0.56819 -0.53924 2.03465 246 246 246
-0.52697 -0.53923 2.11859 246 246 246
-0.3521 -0.53923 2.11859 246 246 246
-0.30416 -0.53923 2.03465 246 246 246
-0.56819 -0.55946 2.03465 230 205 103
-0.56819 -0.53924 2.03465 230 205 103
-0.30416 -0.53923 2.03465 230 205 103
-0.30416 -0.55946 2.03465 230 205 103
-0.3521 -0.53923 2.11859 230 205 103
-0.3521 -0.55945 2.11859 230 205 103
-0.52697 -0.53923 2.11859 230 205 103
-0.52697 -0.55946 2.11859 230 205 103
-0.39831 -0.55945 2.13781 230 205 103
-0.53705 -0.55946 2.13781 230 205 103
-0.60773 -0.55946 2.01391 230 205 103
-0.26745 -0.55946 2.01417 230 205 103
-0.34167 -0.55945 2.13781 230 205 103
-0.37997 -0.55136 2.08978 38 27 26
-0.41091 -0.55136 2.08978 38 27 26
-0.41091 -0.55136 2.12268 38 27 26
-0.37997 -0.55136 2.12268 38 27 26
-0.37997 -0.53643 2.08978 38 27 26
-0.41091 -0.53643 2.08978 38 27 26
-0.41091 -0.53643 2.12268 38 27 26
-0.37997 -0.53643 2.12268 38 27 26
0.85429 0.125 2.34911 171 146 112
0.8975 0.125 2.32833 171 146 112
0.9813 0.125 2.14406 171 146 112
0.96799 0.125 2.09901 171 146 112
0.67362 0.125 1.96616 171 146 112
0.56007 0.125 2.21611 171 146 112
0.87086 0.30107 2.42773 251 224 113
0.87086 0.125 2.42773 251 224 113
0.53268 0.125 2.27463 251 224 113
0.53268 0.33137 2.27463 251 224 113
0.94154 0.29975 2.39378 251 224 113
0.94154 0.125 2.39378 251 224 113
0.56007 0.37181 2.21611 245 218 110
0.67362 0.37181 1.96616 245 218 110
0.9813 0.3314 2.14406 245 218 110
0.8975 0.3314 2.32833 245 218 110
0.94154 0.29975 2.39378 245 218 110
1.05731 0.29975 2.13814 245 218 110
0.53268 0.33137 2.27463 245 218 110
0.87086 0.30107 2.42773 245 218 110
1.0372 0.3011 2.06158 245 218 110
1.05731 0.125 2.13814 245 218 110
1.0372 0.125 2.06158 245 218 110
0.69854 0.3314 1.90851 245 218 110
0.9813 0.125 2.14406 245 218 110
0.8975 0.125 2.32833 245 218 110
0.94154 0.125 2.39378 245 218 110
0.87086 0.125 2.42773 245 218 110
0.85429 0.125 2.34911 245 218 110
0.96799 0.125 2.09901 245 218 110
0.67362 0.125 1.96616 245 218 110
0.69854 0.125 1.90851 245 218 110
0.56007 0.125 2.21611 245 218 110
0.53268 0.125 2.27463 245 218 110
0.56804 -0.13503 1.44686 245 218 110
0.56804 -0.13503 1.81844 245 218 110
0.88536 -0.13503 1.81844 245 218 110
0.88536 -0.13503 1.44686 245 218 110
0.93015 -0.18727 1.44686 245 218 110
0.93015 -0.18727 1.81844 245 218 110
0.93015 -0.62641 1.44686 245 218 110
0.93015 -0.62641 1.81844 245 218 110
0.56804 -0.13503 1.81844 251 224 113
0.56804 0.23655 1.81844 251 224 113
1.25702 0.23655 1.81844 251 224 113
0.88536 -0.13503 1.81844 251 224 113
1.31657 0.16579 1.81844 251 224 113
0.93015 -0.18727 1.81844 251 224 113
0.93015 -0.62641 1.81844 251 224 113
1.31657 -0.62641 1.81844 251 224 113
0.96308 -0.6682 1.78678 251 224 113
1.28364 -0.6682 1.78678 251 224 113
0.56804 0.23655 1.81844 245 218 110
0.56804 0.23655 1.44686 245 218 110
1.25702 0.23655 1.44686 245 218 110
1.25702 0.23655 1.81844 245 218 110
1.31657 0.16579 1.44686 245 218 110
1.31657 0.16579 1.81844 245 218 110
1.31657 -0.62641 1.81844 245 218 110
1.31657 -0.62641 1.44686 245 218 110
1.28364 -0.6682 1.47852 245 218 110
0.96308 -0.6682 1.47852 245 218 110
0.96308 -0.6682 1.78678 245 218 110
1.28364 -0.6682 1.78678 245 218 110
1.05165 -0.73556 1.67956 245 218 110
1.05165 -0.73556 1.77911 245 218 110
1.14991 -0.73556 1.77911 245 218 110
1.14991 -0.73556 1.67956 245 218 110
1.14991 -0.66118 1.77911 245 218 110
1.14991 -0.66118 1.67956 245 218 110
1.05165 -0.66118 1.67956 245 218 110
1.05165 -0.66118 1.77911 245 218 110
1.05165 -0.73556 1.77911 251 224 113
1.05165 -0.66118 1.77911 251 224 113
1.14991 -0.66118 1.77911 251 224 113
1.14991 -0.73556 1.77911 251 224 113
0.97037 -0.73556 1.48851 245 218 110
0.97037 -0.73556 1.60005 245 218 110
1.06464 -0.73556 1.60005 245 218 110
1.06464 -0.73556 1.48851 245 218 110
1.06464 -0.66118 1.60005 245 218 110
1.06464 -0.66118 1.48851 245 218 110
0.97037 -0.66118 1.48851 245 218 110
0.97037 -0.66118 1.60005 245 218 110
0.97037 -0.73556 1.60005 251 224 113
0.97037 -0.66118 1.60005 251 224 113
1.06464 -0.66118 1.60005 251 224 113
1.06464 -0.73556 1.60005 251 224 113
1.18116 -0.73556 1.60598 245 218 110
1.18116 -0.73556 1.7081 245 218 110
1.27783 -0.73556 1.7081 245 218 110
1.27783 -0.73556 1.60598 245 218 110
1.27783 -0.66118 1.7081 245 218 110
1.27783 -0.66118 1.60598 245 218 110
1.18116 -0.66118 1.60598 245 218 110
1.18116 -0.66118 1.7081 245 218 110
1.18116 -0.73556 1.7081 251 224 113
1.18116 -0.66118 1.7081 251 224 113
1.27783 -0.66118 1.7081 251 224 113
1.27783 -0.73556 1.7081 251 224 113
-0.42871 -0.49501 1.81825 188 142 149
0.42871 -0.49501 1.81825 188 142 149
0.42871 -0.49501 1.64267 188 142 149
-0.42871 -0.49501 1.64267 188 142 149
0.42871 -0.39375 1.81825 188 142 149
-0.42871 -0.39375 1.81825 188 142 149
-0.42871 -0.39375 1.64267 188 142 149
0.42871 -0.39375 1.64267 188 142 149
-0.26742 -0.49787 2.33448 251 224 113
-0.61711 -0.49798 2.33438 251 224 113
-0.66761 -0.45545 2.33437 251 224 113
-0.66759 0.50771 2.33436 251 224 113
0.66759 0.50771 2.33436 251 224 113
-0.60016 0.57667 2.33436 251 224 113
0.60016 0.57667 2.33436 251 224 113
0.26742 -0.49787 2.33448 251 224 113
0.66761 -0.45545 2.33437 251 224 113
0.61711 -0.49798 2.33438 251 224 113
-0.26746 -1.04179 2.28881 245 218 110
-0.19198 -1.09134 2.28853 245 218 110
-0.19193 -1.09135 2.25551 245 218 110
-0.21001 -0.99415 2.33439 245 218 110
-0.14224 -1.04055 2.33474 245 218 110
-0.19191 -1.09135 2.18147 245 218 110
-0.19189 -1.09135 2.02055 245 218 110
-0.26777 -1.04181 1.81469 245 218 110
-0.19185 -1.09135 1.94313 245 218 110
-0.1918 -1.09135 1.81466 245 218 110
-0.22324 -1.04177 1.76395 245 218 110
-0.22346 -0.79192 1.76395 245 218 110
-0.26774 -0.84345 1.81469 245 218 110
-0.12498 -0.99595 1.76395 245 218 110
-0.06672 -0.99594 1.76395 245 218 110
-0.12503 -0.83771 1.76395 245 218 110
-0.06672 -0.8377 1.76395 245 218 110
0.22346 -0.79192 1.76395 245 218 110
0.06672 -0.8377 1.76395 245 218 110
0.12503 -0.83771 1.76395 245 218 110
0.12498 -0.99595 1.76395 245 218 110
0.22324 -1.04177 1.76395 245 218 110
0.06672 -0.99594 1.76395 245 218 110
0.26777 -1.04181 1.81469 245 218 110
0.26774 -0.84345 1.81469 245 218 110
0.1918 -1.09135 1.81466 245 218 110
0.19185 -1.09135 1.94313 245 218 110
0.19189 -1.09135 2.02055 245 218 110
0.26746 -1.04179 2.28881 245 218 110
0.19191 -1.09135 2.18147 245 218 110
0.19193 -1.09135 2.25551 245 218 110
0.19198 -1.09134 2.28853 245 218 110
0.21001 -0.99415 2.33439 245 218 110
0.14224 -1.04055 2.33474 245 218 110
-0.52577 -0.55947 1.65234 146 102 108
-0.52647 -0.55947 1.97577 146 102 108
-0.52647 -0.40116 1.97577 146 102 108
-0.52577 -0.40116 1.65234 146 102 108
-0.49347 -0.55947 1.9436 146 102 108
-0.49347 -0.40116 1.9436 146 102 108
0.49347 -0.40116 1.9436 146 102 108
0.52577 -0.40116 1.65234 146 102 108
0.52577 -0.55947 1.65234 146 102 108
0.52647 -0.40116 1.97577 146 102 108
0.52647 -0.55947 1.97577 146 102 108
0.19242 -0.55947 1.9436 146 102 108
-0.19242 -0.55947 1.9436 146 102 108
0.49347 -0.55947 1.9436 146 102 108
-0.26751 -0.84341 2.00675 245 218 110
-0.19216 -0.7919 1.9436 245 218 110
0.21 -0.93082 2.33439 245 218 110
0.21 -0.8592 2.33439 245 218 110
-0.21 -0.93082 2.33439 245 218 110
-0.21 -0.8592 2.33439 245 218 110
-0.12498 -0.99595 1.79648 198 176 89
-0.06672 -0.99594 1.79648 198 176 89
-0.06672 -0.8377 1.79648 198 176 89
-0.12503 -0.83771 1.79648 198 176 89
-0.12498 -0.99595 1.76395 198 176 89
-0.06672 -0.99594 1.76395 198 176 89
-0.06672 -0.8377 1.76395 198 176 89
-0.12503 -0.83771 1.76395 198 176 89
0.12498 -0.99595 1.79648 198 176 89
0.12503 -0.83771 1.79648 198 176 89
0.06672 -0.8377 1.79648 198 176 89
0.06672 -0.99594 1.79648 198 176 89
0.12498 -0.99595 1.76395 198 176 89
0.06672 -0.99594 1.76395 198 176 89
0.06672 -0.8377 1.76395 198 176 89
0.12503 -0.83771 1.76395 198 176 89
-0.21 -0.8592 2.33439 251 224 113
-0.20999 -0.55946 2.33438 251 224 113
0.20999 -0.55946 2.33438 251 224 113
0.21 -0.8592 2.33439 251 224 113
-0.19185 -1.09135 1.94313 230 205 103
-0.19189 -1.09135 2.02055 230 205 103
0.19189 -1.09135 2.02055 230 205 103
0.19185 -1.09135 1.94313 230 205 103
-0.19191 -1.09135 2.18147 230 205 103
-0.19193 -1.09135 2.25551 230 205 103
0.19193 -1.09135 2.25551 230 205 103
0.19191 -1.09135 2.18147 230 205 103
-0.21 -0.93082 2.33439 230 205 103
-0.21 -0.8592 2.33439 230 205 103
0.21 -0.8592 2.33439 230 205 103
0.21 -0.93082 2.33439 230 205 103
-0.21001 -0.99415 2.33439 251 224 113
-0.21 -0.93082 2.33439 251 224 113
0.21 -0.93082 2.33439 251 224 113
0.21001 -0.99415 2.33439 251 224 113
-0.14224 -1.04055 2.33474 251 224 113
0.14224 -1.04055 2.33474 251 224 113
0.56819 -0.53924 2.03465 246 246 246
0.30416 -0.53923 2.03465 246 246 246
0.3521 -0.53923 2.11859 246 246 246
0.52697 -0.53923 2.11859 246 246 246
0.56819 -0.55946 2.03465 230 205 103
0.30416 -0.55946 2.03465 230 205 103
0.30416 -0.53923 2.03465 230 205 103
0.56819 -0.53924 2.03465 230 205 103
0.3521 -0.55945 2.11859 230 205 103
0.3521 -0.53923 2.11859 230 205 103
0.52697 -0.53923 2.11859 230 205 103
0.52697 -0.55946 2.11859 230 205 103
0.39831 -0.55945 2.13781 230 205 103
0.53705 -0.55946 2.13781 230 205 103
0.60773 -0.55946 2.01391 230 205 103
0.26745 -0.55946 2.01417 230 205 103
0.34167 -0.55945 2.13781 230 205 103
0.37997 -0.55136 2.08978 38 27 26
0.37997 -0.55136 2.12268 38 27 26
0.41091 -0.55136 2.12268 38 27 26
0.41091 -0.55136 2.08978 38 27 26
0.37997 -0.53643 2.08978 38 27 26
0.41091 -0.53643 2.08978 38 27 26
0.41091 -0.53643 2.12268 38 27 26
0.37997 -0.53643 2.12268 38 27 26
0.49458 -0.23689 0.85975 123 115 109
0.8505 -0.23689 0.85975 123 115 109
0.8505 -0.23689 0.14713 123 115 109
0.49458 -0.23689 0.14713 123 115 109
0.90981 -0.18085 0.19491 123 115 109
0.90981 -0.18085 0.83605 123 115 109
0.8505 -0.1674 0.92109 123 115 109
0.49458 -0.1674 0.92109 123 115 109
0.90981 -0.13568 0.87331 123 115 109
0.8505 0.14921 0.14713 123 115 109
0.49458 0.32838 0.85975 123 115 109
0.49458 0.26557 0.92109 123 115 109
0.8505 0.32838 0.85975 123 115 109
0.8505 0.32838 0.14713 123 115 109
0.49458 0.32838 0.14713 123 115 109
0.80516 0.20356 0.14713 123 115 109
0.53991 0.20356 0.14713 123 115 109
0.49458 0.14921 0.14713 123 115 109
0.80516 0.20356 0 123 115 109
0.53991 0.20356 0 123 115 109
0.90981 0.27234 0.83605 123 115 109
0.90981 0.27234 0.19491 123 115 109
0.90981 0.23383 0.87331 123 115 109
0.8505 0.26557 0.92109 123 115 109
0.8505 0.14921 0 123 115 109
0.8505 -0.23689 0 123 115 109
0.75649 -0.13685 0 123 115 109
0.75649 0.05519 0 123 115 109
0.49458 0.14921 0 123 115 109
0.58858 0.05519 0 123 115 109
0.49458 -0.23689 0 123 115 109
0.58858 -0.13685 0 123 115 109
0.58858 0.05519 0 171 146 112
0.58858 -0.13685 0 171 146 112
0.75649 -0.13685 0 171 146 112
0.75649 0.05519 0 171 146 112
0.53214 -0.43473 0 245 218 110
0.53214 -0.43473 0.14713 245 218 110
0.81294 -0.43473 0.14713 245 218 110
0.81294 -0.43473 0 245 218 110
0.49458 -0.38036 0.14713 245 218 110
0.49458 -0.38036 0 245 218 110
0.49458 -0.23689 0.14713 245 218 110
0.49458 -0.23689 0 245 218 110
0.8505 -0.38036 0 245 218 110
0.8505 -0.23689 0 245 218 110
0.8505 -0.38036 0.14713 245 218 110
0.8505 -0.23689 0.14713 245 218 110
0.49458 -0.23689 0.14713 251 224 113
0.8505 -0.23689 0.14713 251 224 113
0.8505 -0.38036 0.14713 251 224 113
0.49458 -0.38036 0.14713 251 224 113
0.81294 -0.43473 0.14713 251 224 113
0.53214 -0.43473 0.14713 251 224 113
0.49458 -0.1674 0.92109 128 120 114
0.49458 0.26557 0.92109 128 120 114
0.8505 0.26557 0.92109 128 120 114
0.8505 -0.1674 0.92109 128 120 114
-0.8505 0.32838 0.14713 123 115 109
-0.8505 0.14921 0.14713 123 115 109
-0.80516 0.20356 0.14713 123 115 109
-0.90981 0.27234 0.19491 123 115 109
-0.90981 0.27234 0.83605 123 115 109
-0.8505 0.32838 0.85975 123 115 109
-0.49458 0.32838 0.85975 123 115 109
-0.49458 0.32838 0.14713 123 115 109
-0.49458 0.14921 0.14713 123 115 109
-0.90981 0.23383 0.87331 123 115 109
-0.90981 -0.18085 0.83605 123 115 109
-0.90981 -0.13568 0.87331 123 115 109
-0.8505 0.26557 0.92109 123 115 109
-0.49458 0.26557 0.92109 123 115 109
-0.8505 -0.1674 0.92109 123 115 109
-0.90981 -0.18085 0.19491 123 115 109
-0.49458 -0.1674 0.92109 123 115 109
-0.49458 -0.23689 0.85975 123 115 109
-0.53991 0.20356 0.14713 123 115 109
-0.53991 0.20356 0 123 115 109
-0.80516 0.20356 0 123 115 109
-0.49458 0.14921 0 123 115 109
-0.8505 0.14921 0 123 115 109
-0.75649 0.05519 0 123 115 109
-0.58858 0.05519 0 123 115 109
-0.75649 -0.13685 0 123 115 109
-0.8505 -0.23689 0 123 115 109
-0.8505 -0.23689 0.14713 123 115 109
-0.49458 -0.23689 0 123 115 109
-0.58858 -0.13685 0 123 115 109
-0.49458 -0.23689 0.14713 123 115 109
-0.8505 -0.23689 0.85975 123 115 109
-0.58858 0.05519 0 171 146 112
-0.75649 0.05519 0 171 146 112
-0.75649 -0.13685 0 171 146 112
-0.58858 -0.13685 0 171 146 112
-0.49458 -0.23689 0.14713 245 218 110
-0.49458 -0.23689 0 245 218 110
-0.49458 -0.38036 0 245 218 110
-0.49458 -0.38036 0.14713 245 218 110
-0.53214 -0.43473 0 245 218 110
-0.53214 -0.43473 0.14713 245 218 110
-0.81294 -0.43473 0.14713 245 218 110
-0.81294 -0.43473 0 245 218 110
-0.8505 -0.38036 0 245 218 110
-0.8505 -0.38036 0.14713 245 218 110
-0.8505 -0.23689 0 245 218 110
-0.8505 -0.23689 0.14713 245 218 110
-0.49458 -0.1674 0.92109 128 120 114
-0.8505 -0.1674 0.92109 128 120 114
-0.8505 0.26557 0.92109 128 120 114
-0.49458 0.26557 0.92109 128 120 114
-0.49458 -0.38036 0.14713 251 224 113
-0.53214 -0.43473 0.14713 251 224 113
-0.81294 -0.43473 0.14713 251 224 113
-0.8505 -0.38036 0.14713 251 224 113
-0.49458 -0.23689 0.14713 251 224 113
-0.8505 -0.23689 0.14713 251 224 113
0.60016 0.57667 0.29447 123 115 109
-0.60016 0.57667 0.29447 123 115 109
-0.66759 0.50771 0.29447 123 115 109
0.66759 0.50771 0.29447 123 115 109
0.65015 0.63415 0.33963 123 115 109
0.72507 0.55752 0.33963 123 115 109
0.72507 0.55752 1.04263 123 115 109
0.72507 0.37847 1.04263 123 115 109
0.65015 0.63415 1.04263 123 115 109
0.66759 -0.44831 0.29447 123 115 109
0.72507 -0.49812 0.33963 123 115 109
0.65015 0.63415 1.07675 123 115 109
0.72507 0.55752 1.07675 123 115 109
0.72507 0.14057 1.04263 123 115 109
-0.65015 0.63415 0.33963 123 115 109
-0.72507 0.55752 0.33963 123 115 109
-0.72507 0.55752 1.04263 123 115 109
-0.72507 0.37847 1.04263 123 115 109
-0.65015 0.63415 1.04263 123 115 109
-0.65015 0.63415 1.07675 123 115 109
-0.72507 0.55752 1.07675 123 115 109
-0.62206 0.63415 1.04263 123 115 109
-0.72507 0.14057 1.04263 123 115 109
-0.72507 -0.49812 0.33963 123 115 109
-0.66759 -0.44831 0.29447 123 115 109
0.65015 0.63415 1.17947 123 115 109
0.72507 0.55752 1.17947 123 115 109
0.72507 0.40144 1.07675 123 115 109
0.72507 0.40144 1.17947 123 115 109
0.72507 0.42605 1.21292 123 115 109
0.72507 0.55752 1.21292 123 115 109
0.67143 0.61238 1.21292 123 115 109
-0.72507 0.55752 1.17947 123 115 109
-0.72507 0.40144 1.17947 123 115 109
-0.72507 0.42605 1.21292 123 115 109
-0.72507 0.55752 1.21292 123 115 109
-0.65015 0.63415 1.17947 123 115 109
-0.66911 0.61476 1.21292 123 115 109
0.60016 -0.51727 0.29447 123 115 109
0.65015 -0.55947 0.33963 123 115 109
-0.65015 -0.55947 0.33963 123 115 109
-0.60016 -0.51727 0.29447 123 115 109
0.65033 -0.55946 1.04263 123 115 109
0.45522 -0.55946 1.04263 123 115 109
0.72507 -0.49812 1.04263 123 115 109
0.72507 -0.49812 1.07675 123 115 109
0.65034 -0.55946 1.07675 123 115 109
0.20711 -0.55946 1.04263 123 115 109
-0.65033 -0.55946 1.04263 123 115 109
-0.45522 -0.55946 1.04263 123 115 109
-0.72507 -0.49812 1.04263 123 115 109
-0.72507 -0.49812 1.07675 123 115 109
-0.65034 -0.55946 1.07675 123 115 109
-0.72507 -0.46753 1.04263 123 115 109
-0.20711 -0.55946 1.04263 123 115 109
0.72507 -0.49812 1.17947 123 115 109
0.65035 -0.55946 1.17947 123 115 109
0.48822 -0.55946 1.07675 123 115 109
0.48823 -0.55946 1.17947 123 115 109
0.51492 -0.55946 1.21292 123 115 109
0.65036 -0.55946 1.21292 123 115 109
0.70644 -0.51341 1.21292 123 115 109
-0.65035 -0.55946 1.17947 123 115 109
-0.48823 -0.55946 1.17947 123 115 109
-0.51492 -0.55946 1.21292 123 115 109
-0.65036 -0.55946 1.21292 123 115 109
-0.48822 -0.55946 1.07675 123 115 109
-0.72507 -0.49812 1.17947 123 115 109
-0.707 -0.51295 1.21292 123 115 109
0.48823 -0.55946 1.17947 245 218 110
0.176 -0.55946 1.17947 245 218 110
0.17599 -0.55946 1.07675 245 218 110
0.48822 -0.55946 1.07675 245 218 110
0.20711 -0.55946 1.04263 245 218 110
0.45522 -0.55946 1.04263 245 218 110
0.72507 -0.17671 1.21292 123 115 109
0.72507 0.09493 1.21292 123 115 109
0.72507 0.11125 1.17947 123 115 109
0.72507 -0.19304 1.17947 123 115 109
0.72507 -0.19304 1.07675 123 115 109
0.72507 0.11125 1.07675 123 115 109
0.72507 -0.22236 1.04263 123 115 109
0.72507 -0.46748 1.04263 123 115 109
0.72507 0.40144 1.17947 245 218 110
0.72507 0.11125 1.17947 245 218 110
0.72507 0.11125 1.07675 245 218 110
0.72507 0.40144 1.07675 245 218 110
0.72507 0.14057 1.04263 245 218 110
0.72507 0.37847 1.04263 245 218 110
0.38723 0.63415 1.21292 123 115 109
0.15453 0.63415 1.21292 123 115 109
0.13542 0.63415 1.17947 123 115 109
0.41013 0.63415 1.17947 123 115 109
0.41013 0.63415 1.07675 123 115 109
0.13542 0.63415 1.07675 123 115 109
0.44184 0.63415 1.04263 123 115 109
0.11786 0.63415 1.04263 123 115 109
0.62316 0.63415 1.04263 123 115 109
-0.11786 0.63415 1.04263 123 115 109
-0.44184 0.63415 1.04263 123 115 109
-0.41013 0.63415 1.07675 123 115 109
-0.13542 0.63415 1.07675 123 115 109
-0.41013 0.63415 1.17947 123 115 109
-0.13542 0.63415 1.17947 123 115 109
-0.38723 0.63415 1.21292 123 115 109
-0.15453 0.63415 1.21292 123 115 109
0.15042 -0.55946 1.21292 123 115 109
0.176 -0.55946 1.17947 123 115 109
-0.176 -0.55946 1.17947 123 115 109
-0.15042 -0.55946 1.21292 123 115 109
-0.17599 -0.55946 1.07675 123 115 109
0.17599 -0.55946 1.07675 123 115 109
-0.176 -0.55946 1.17947 245 218 110
-0.48823 -0.55946 1.17947 245 218 110
-0.48822 -0.55946 1.07675 245 218 110
-0.17599 -0.55946 1.07675 245 218 110
-0.45522 -0.55946 1.04263 245 218 110
-0.20711 -0.55946 1.04263 245 218 110
-0.72507 -0.17671 1.21292 123 115 109
-0.72507 -0.19304 1.17947 123 115 109
-0.72507 0.11125 1.17947 123 115 109
-0.72507 0.09493 1.21292 123 115 109
-0.72507 0.11125 1.07675 123 115 109
-0.72507 -0.19304 1.07675 123 115 109
-0.72507 -0.22236 1.04263 123 115 109
-0.72507 0.40144 1.07675 123 115 109
-0.72507 -0.49812 1.17947 245 218 110
-0.72507 -0.19304 1.17947 245 218 110
-0.72507 -0.19304 1.07675 245 218 110
-0.72507 -0.49812 1.07675 245 218 110
-0.72507 -0.46753 1.04263 245 218 110
-0.72507 -0.22236 1.04263 245 218 110
-0.56804 -0.13503 1.44686 245 218 110
-0.88536 -0.13503 1.44686 245 218 110
-0.88536 -0.13503 1.81844 245 218 110
-0.56804 -0.13503 1.81844 245 218 110
-0.93015 -0.18727 1.44686 245 218 110
-0.93015 -0.18727 1.81844 245 218 110
-0.93015 -0.62641 1.44686 245 218 110
-0.93015 -0.62641 1.81844 245 218 110
-0.56804 -0.13503 1.81844 251 224 113
-0.88536 -0.13503 1.81844 251 224 113
-1.25702 0.23655 1.81844 251 224 113
-0.56804 0.23655 1.81844 251 224 113
-1.31657 0.16579 1.81844 251 224 113
-0.93015 -0.18727 1.81844 251 224 113
-0.93015 -0.62641 1.81844 251 224 113
-1.31657 -0.62641 1.81844 251 224 113
-0.96308 -0.6682 1.78678 251 224 113
-1.28364 -0.6682 1.78678 251 224 113
-0.56804 0.23655 1.81844 245 218 110
-1.25702 0.23655 1.81844 245 218 110
-1.25702 0.23655 1.44686 245 218 110
-0.56804 0.23655 1.44686 245 218 110
-1.31657 0.16579 1.44686 245 218 110
-1.31657 0.16579 1.81844 245 218 110
-1.31657 -0.62641 1.81844 245 218 110
-1.31657 -0.62641 1.44686 245 218 110
-1.28364 -0.6682 1.47852 245 218 110
-0.96308 -0.6682 1.47852 245 218 110
-0.96308 -0.6682 1.78678 245 218 110
-1.28364 -0.6682 1.78678 245 218 110
-1.05165 -0.73556 1.67956 245 218 110
-1.14991 -0.73556 1.67956 245 218 110
-1.14991 -0.73556 1.77911 245 218 110
-1.05165 -0.73556 1.77911 245 218 110
-1.14991 -0.66118 1.77911 245 218 110
-1.14991 -0.66118 1.67956 245 218 110
-1.05165 -0.66118 1.67956 245 218 110
-1.05165 -0.66118 1.77911 245 218 110
-1.05165 -0.73556 1.77911 251 224 113
-1.14991 -0.73556 1.77911 251 224 113
-1.14991 -0.66118 1.77911 251 224 113
-1.05165 -0.66118 1.77911 251 224 113
-0.97037 -0.73556 1.48851 245 218 110
-1.06464 -0.73556 1.48851 245 218 110
-1.06464 -0.73556 1.60005 245 218 110
-0.97037 -0.73556 1.60005 245 218 110
-1.06464 -0.66118 1.60005 245 218 110
-1.06464 -0.66118 1.48851 245 218 110
-0.97037 -0.66118 1.48851 245 218 110
-0.97037 -0.66118 1.60005 245 218 110
-0.97037 -0.73556 1.60005 251 224 113
-1.06464 -0.73556 1.60005 251 224 113
-1.06464 -0.66118 1.60005 251 224 113
-0.97037 -0.66118 1.60005 251 224 113
-1.18116 -0.73556 1.60598 245 218 110
-1.27783 -0.73556 1.60598 245 218 110
-1.27783 -0.73556 1.7081 245 218 110
-1.18116 -0.73556 1.7081 245 218 110
-1.27783 -0.66118 1.7081 245 218 110
-1.27783 -0.66118 1.60598 245 218 110
-1.18116 -0.66118 1.60598 245 218 110
-1.18116 -0.66118 1.7081 245 218 110
-1.18116 -0.73556 1.7081 251 224 113
-1.27783 -0.73556 1.7081 251 224 113
-1.27783 -0.66118 1.7081 251 224 113
-1.18116 -0.66118 1.7081 251 224 113
-0.85429 0.125 2.34911 171 146 112
-0.96799 0.125 2.09901 171 146 112
-0.9813 0.125 2.14406 171 146 112
-0.8975 0.125 2.32833 171 146 112
-0.67362 0.125 1.96616 171 146 112
-0.56007 0.125 2.21611 171 146 112
-0.87086 0.30107 2.42773 251 224 113
-0.53268 0.33137 2.27463 251 224 113
-0.53268 0.125 2.27463 251 224 113
-0.87086 0.125 2.42773 251 224 113
-0.94154 0.29975 2.39378 251 224 113
-0.94154 0.125 2.39378 251 224 113
-0.56007 0.37181 2.21611 245 218 110
-0.8975 0.3314 2.32833 245 218 110
-0.9813 0.3314 2.14406 245 218 110
-0.67362 0.37181 1.96616 245 218 110
-0.94154 0.29975 2.39378 245 218 110
-1.05731 0.29975 2.13814 245 218 110
-0.53268 0.33137 2.27463 245 218 110
-0.87086 0.30107 2.42773 245 218 110
-1.0372 0.3011 2.06158 245 218 110
-1.05731 0.125 2.13814 245 218 110
-1.0372 0.125 2.06158 245 218 110
-0.69854 0.3314 1.90851 245 218 110
-0.9813 0.125 2.14406 245 218 110
-0.8975 0.125 2.32833 245 218 110
-0.94154 0.125 2.39378 245 218 110
-0.87086 0.125 2.42773 245 218 110
-0.85429 0.125 2.34911 245 218 110
-0.96799 0.125 2.09901 245 218 110
-0.67362 0.125 1.96616 245 218 110
-0.69854 0.125 1.90851 245 218 110
-0.56007 0.125 2.21611 245 218 110
-0.53268 0.125 2.27463 245 218 110
3 0 2 1
3 0 3 2
3 1 2 4
3 5 3 0
3 6 4 2
3 6 7 4
3 5 7 8
3 6 8 7
3 5 8 9
3 5 9 10
3 11 2 3
3 11 12 2
3 12 13 2
3 13 6 2
3 12 14 13
3 15 11 3
3 16 8 6
3 16 6 17
3 16 17 18
3 16 18 19
3 20 6 13
3 20 13 21
3 22 6 20
3 17 6 22
3 13 23 21
3 19 24 16
3 19 25 24
3 24 25 26
3 24 26 27
3 24 27 28
3 27 29 28
3 24 28 30
3 28 31 30
3 32 30 31
3 32 33 30
3 32 34 33
3 34 32 35
3 34 35 36
3 28 37 31
3 28 38 37
3 39 37 38
3 40 39 38
3 40 38 41
3 32 40 41
3 42 41 38
3 42 38 43
3 43 38 44
3 43 44 45
3 46 41 42
3 44 38 28
3 47 44 28
3 47 48 44
3 44 48 49
3 50 48 47
3 50 51 48
3 52 51 50
3 52 53 51
3 52 54 53
3 52 55 54
3 29 50 47
3 28 29 47
3 44 49 56
3 44 56 57
3 44 57 58
3 57 59 58
3 57 60 59
3 44 58 45
3 57 56 61
3 61 62 57
3 63 59 60
3 63 60 64
3 65 63 64
3 65 66 63
3 67 65 64
3 67 64 68
3 68 64 69
3 64 70 69
3 64 71 70
3 64 60 71
3 60 72 71
3 73 72 60
3 13 66 65
3 13 65 74
3 13 74 23
3 65 75 74
3 75 65 67
3 13 14 66
3 23 74 76
3 23 76 77
3 78 72 73
3 78 79 72
3 80 67 68
3 81 70 71
3 81 82 70
3 77 76 83
3 77 83 84
3 85 79 78
3 85 86 79
3 85 87 86
3 85 88 87
3 89 82 81
3 89 90 82
3 91 90 89
3 91 92 90
3 84 83 93
3 84 93 94
3 95 80 68
3 95 68 69
3 96 80 95
3 96 97 80
3 98 97 96
3 98 96 99
3 100 102 101
3 100 103 102
3 104 106 105
3 104 107 106
3 107 108 106
3 107 109 108
3 109 110 108
3 109 111 110
3 111 105 110
3 111 104 105
3 111 109 112
3 111 112 113
3 114 111 113
3 114 104 111
3 115 104 114
3 115 107 104
3 116 107 115
3 116 109 107
3 109 116 112
3 117 119 118
3 117 120 119
3 121 117 118
3 121 120 117
3 121 118 122
3 118 123 122
3 118 119 123
3 121 124 120
3 125 127 126
3 125 128 127
3 129 128 125
3 129 125 130
3 131 133 132
3 131 134 133
3 135 131 132
3 135 132 136
3 137 139 138
3 137 140 139
3 139 140 141
3 139 141 142
3 140 137 143
3 140 143 144
3 141 140 144
3 138 139 145
3 139 142 145
3 146 145 142
3 146 147 145
3 138 145 148
3 147 146 149
3 150 149 146
3 150 146 151
3 146 141 151
3 146 142 141
3 152 150 151
3 152 153 150
3 147 149 154
3 147 154 155
3 147 155 156
3 147 156 148
3 147 148 145
3 157 153 152
3 157 152 158
3 159 161 160
3 159 162 161
3 161 162 163
3 161 163 164
3 164 163 165
3 164 165 166
3 167 169 168
3 167 170 169
3 171 169 170
3 171 170 172
3 171 172 173
3 171 173 174
3 174 173 175
3 174 175 176
3 177 179 178
3 177 180 179
3 181 179 180
3 181 180 182
3 181 182 183
3 181 183 184
3 163 181 184
3 163 184 165
3 165 184 185
3 165 185 186
3 187 186 185
3 187 185 188
3 184 188 185
3 166 186 187
3 166 165 186
3 184 183 188
3 181 163 162
3 181 162 179
3 178 179 162
3 178 162 159
3 189 191 190
3 189 192 191
3 192 193 191
3 192 194 193
3 195 189 190
3 195 190 196
3 197 199 198
3 197 200 199
3 195 192 189
3 195 194 192
3 201 203 202
3 201 204 203
3 204 205 203
3 204 206 205
3 207 201 202
3 207 202 208
3 209 211 210
3 209 212 211
3 207 204 201
3 207 206 204
3 213 215 214
3 213 216 215
3 216 217 215
3 216 218 217
3 219 213 214
3 219 214 220
3 221 223 222
3 221 224 223
3 219 216 213
3 219 218 216
3 225 227 226
3 225 228 227
3 229 225 226
3 229 230 225
3 231 225 230
3 231 228 225
3 232 226 227
3 232 229 226
3 233 235 234
3 233 236 235
3 233 237 236
3 238 236 237
3 238 237 239
3 233 240 237
3 240 241 237
3 240 242 241
3 243 245 244
3 244 246 243
3 244 247 246
3 243 248 245
3 243 249 248
3 243 250 249
3 250 251 249
3 250 252 251
3 250 253 252
3 254 253 250
3 254 250 255
3 254 256 253
3 257 253 256
3 254 258 256
3 259 258 254
3 259 254 260
3 259 260 261
3 261 260 262
3 260 263 262
3 260 264 263
3 253 265 264
3 253 257 265
3 257 261 265
3 257 259 261
3 260 266 264
3 260 267 266
3 266 268 264
3 266 269 268
3 266 270 269
3 271 270 266
3 271 272 270
3 271 273 272
3 271 274 273
3 274 271 275
3 274 275 276
3 253 264 268
3 253 268 252
3 252 268 269
3 252 269 251
3 249 270 272
3 249 272 248
3 245 273 274
3 245 274 244
3 244 274 276
3 244 276 247
3 265 263 264
3 277 279 278
3 277 280 279
3 279 281 278
3 279 282 281
3 280 282 279
3 280 283 282
3 280 284 283
3 277 284 280
3 277 285 284
3 285 286 284
3 284 286 283
3 285 287 286
3 282 283 288
3 282 288 289
3 286 290 283
3 286 287 290
3 290 288 283
3 281 282 289
3 10 291 5
3 10 292 291
3 10 36 292
3 10 34 36
3 292 36 260
3 36 267 260
3 36 35 267
3 271 267 35
3 35 41 271
3 35 32 41
3 271 266 267
3 41 293 271
3 271 293 275
3 41 294 293
3 41 46 294
3 292 260 254
3 292 254 255
3 292 255 291
3 243 291 255
3 291 243 3
3 291 3 5
3 243 255 250
3 3 243 295
3 243 246 295
3 3 295 296
3 3 296 15
3 297 299 298
3 297 300 299
3 301 297 298
3 301 298 302
3 302 298 299
3 302 299 303
3 304 297 301
3 304 300 297
3 303 300 304
3 303 299 300
3 305 307 306
3 305 308 307
3 309 308 305
3 309 310 308
3 310 307 308
3 310 311 307
3 312 305 306
3 312 309 305
3 311 306 307
3 311 312 306
3 313 315 314
3 313 316 315
3 314 240 233
3 314 315 240
3 317 319 318
3 317 320 319
3 321 323 322
3 321 324 323
3 325 327 326
3 325 328 327
3 329 331 330
3 329 332 331
3 333 332 329
3 333 334 332
3 335 337 336
3 335 338 337
3 339 341 340
3 339 342 341
3 340 344 343
3 340 341 344
3 343 344 345
3 343 345 346
3 346 345 342
3 346 342 339
3 346 347 343
3 346 348 347
3 349 346 339
3 349 348 346
3 350 339 340
3 350 349 339
3 351 340 343
3 351 350 340
3 343 347 351
3 352 354 353
3 352 355 354
3 356 355 352
3 356 352 353
3 356 357 355
3 355 358 354
3 355 357 358
3 356 353 359
3 360 362 361
3 360 363 362
3 361 362 364
3 361 364 365
3 360 361 366
3 360 366 367
3 368 361 365
3 368 366 361
3 364 362 369
3 370 360 367
3 370 367 371
3 371 372 370
3 370 372 373
3 370 373 374
3 374 373 375
3 374 375 376
3 374 377 370
3 374 376 377
3 376 375 378
3 376 378 379
3 373 372 380
3 373 380 381
3 381 369 373
3 369 378 375
3 375 373 369
3 372 382 380
3 365 380 382
3 365 382 368
3 372 383 382
3 371 383 372
3 382 366 368
3 382 383 366
3 364 380 365
3 364 381 380
3 364 369 381
3 369 384 378
3 384 379 378
3 369 385 384
3 369 362 385
3 384 385 386
3 384 386 387
3 388 384 387
3 384 388 379
3 388 387 389
3 386 385 390
3 390 388 389
3 386 390 391
3 390 389 391
3 363 388 390
3 363 377 388
3 360 377 363
3 370 377 360
3 388 376 379
3 388 377 376
3 392 394 393
3 392 395 394
3 396 398 397
3 396 399 398
3 400 396 397
3 400 401 396
3 401 399 396
3 402 401 400
3 402 403 401
3 403 404 401
3 401 404 399
3 404 398 399
3 403 405 404
3 405 406 404
3 404 406 398
3 405 407 406
3 408 410 409
3 408 411 410
3 411 412 410
3 411 413 412
3 414 416 415
3 414 417 416
3 418 420 419
3 421 418 419
3 418 421 422
3 418 422 423
3 424 418 423
3 424 425 418
3 425 420 418
3 425 424 426
3 423 422 427
3 428 427 422
3 428 429 427
3 423 427 430
3 431 423 430
3 431 424 423
3 427 432 430
3 427 429 432
3 433 422 421
3 433 428 422
3 433 421 419
3 424 431 434
3 424 434 435
3 424 435 426
3 425 436 420
3 436 425 426
3 426 437 436
3 436 437 438
3 436 438 420
3 426 439 437
3 439 438 437
3 439 440 438
3 440 420 438
3 439 441 440
3 439 442 441
3 440 441 443
3 440 443 444
3 419 440 444
3 440 419 420
3 419 444 445
3 446 442 439
3 443 446 444
3 446 447 442
3 443 447 446
3 448 446 439
3 448 439 426
3 435 448 426
3 449 448 435
3 449 445 448
3 449 433 445
3 449 428 433
3 435 432 449
3 435 434 432
3 429 449 432
3 429 428 449
3 433 419 445
3 450 452 451
3 450 453 452
3 454 456 455
3 454 457 456
3 457 458 456
3 457 459 458
3 458 459 460
3 458 460 461
3 456 458 461
3 462 461 460
3 456 461 462
3 455 456 462
3 462 460 463
3 464 462 463
3 455 462 464
3 464 463 465
3 466 468 467
3 466 469 468
3 470 472 471
3 470 473 472
3 474 473 470
3 474 475 473
3 476 478 477
3 476 479 478
3 480 479 476
3 480 481 479
3 480 482 481
3 481 482 483
3 480 484 482
3 481 485 479
3 481 486 485
3 482 484 487
3 482 487 488
3 488 483 482
3 481 489 486
3 481 483 489
3 490 477 478
3 476 490 480
3 476 477 490
3 490 478 491
3 490 491 492
3 491 493 492
3 490 492 494
3 492 495 494
3 492 496 495
3 494 495 497
3 490 494 497
3 491 498 493
3 491 499 498
3 491 500 499
3 491 478 500
3 488 487 501
3 488 501 502
3 502 503 488
3 502 504 503
3 505 504 502
3 505 502 506
3 502 507 506
3 502 501 507
3 495 496 508
3 509 508 496
3 510 508 509
3 510 511 508
3 512 508 511
3 495 508 512
3 512 511 513
3 478 485 500
3 500 485 514
3 486 514 485
3 486 515 514
3 514 515 516
3 514 516 517
3 500 514 517
3 486 518 515
3 515 518 519
3 486 520 518
3 518 520 521
3 518 521 522
3 522 519 518
3 515 519 523
3 499 517 516
3 499 500 517
3 499 516 524
3 516 525 524
3 499 524 526
3 524 527 526
3 524 528 527
3 526 527 529
3 499 526 529
3 516 530 525
3 515 530 516
3 515 523 530
3 522 521 531
3 522 531 532
3 532 533 522
3 532 534 533
3 535 534 532
3 535 532 536
3 532 537 536
3 532 531 537
3 527 528 538
3 539 538 528
3 540 538 539
3 540 541 538
3 539 528 542
3 542 528 524
3 542 524 525
3 543 538 541
3 527 538 543
3 543 541 544
3 522 533 519
3 25 545 26
3 25 546 545
3 545 546 547
3 545 547 548
3 548 547 549
3 548 549 550
3 551 553 552
3 551 554 553
3 553 554 555
3 553 555 556
3 556 555 557
3 556 557 489
3 486 489 557
3 486 557 558
3 486 558 520
3 520 558 521
3 49 559 56
3 49 560 559
3 559 560 561
3 559 561 562
3 562 561 563
3 562 563 564
3 565 567 566
3 565 568 567
3 567 568 569
3 567 569 570
3 570 569 571
3 570 571 572
3 480 572 571
3 480 571 573
3 480 574 572
3 480 490 574
3 574 490 575
3 576 574 575
3 576 577 574
3 578 577 576
3 578 579 577
3 580 579 578
3 580 581 579
3 480 573 484
3 484 573 487
3 490 497 575
3 582 584 583
3 582 585 584
3 583 584 586
3 583 586 587
3 587 586 530
3 587 530 523
3 19 589 588
3 19 18 589
3 588 589 590
3 588 590 591
3 591 590 592
3 591 592 593
3 594 596 595
3 594 597 596
3 595 596 598
3 595 598 599
3 599 598 498
3 599 498 600
3 499 600 498
3 499 529 600
3 478 479 485
3 509 496 601
3 601 496 492
3 601 492 493
3 602 22 20
3 603 602 20
3 603 20 21
3 604 602 603
3 604 605 602
3 606 605 604
3 606 604 607
3 488 503 483
3 62 78 73
3 57 62 73
3 57 73 60
3 608 610 609
3 608 611 610
3 610 612 609
3 610 613 612
3 613 614 612
3 613 615 614
3 616 618 617
3 616 619 618
3 620 617 618
3 620 621 617
3 620 622 621
3 620 623 622
3 623 624 622
3 623 625 624
3 626 628 627
3 626 629 628
3 630 627 628
3 630 631 627
3 630 632 631
3 630 633 632
3 612 633 630
3 612 614 633
3 614 634 633
3 614 635 634
3 636 634 635
3 636 637 634
3 633 634 637
3 615 635 614
3 615 636 635
3 633 637 632
3 630 609 612
3 630 628 609
3 629 609 628
3 629 608 609
3 638 640 639
3 638 641 640
3 639 640 642
3 639 642 643
3 644 641 638
3 644 645 641
3 646 648 647
3 646 649 648
3 644 639 643
3 644 638 639
3 650 652 651
3 650 653 652
3 651 652 654
3 651 654 655
3 656 653 650
3 656 657 653
3 658 660 659
3 658 661 660
3 656 651 655
3 656 650 651
3 662 664 663
3 662 665 664
3 663 664 666
3 663 666 667
3 668 665 662
3 668 669 665
3 670 672 671
3 670 673 672
3 668 663 667
3 668 662 663
3 674 676 675
3 674 677 676
3 678 674 675
3 678 679 674
3 680 682 681
3 680 683 682
3 684 683 680
3 684 685 683
3 686 688 687
3 686 689 688
3 688 690 687
3 688 691 690
3 687 692 686
3 687 693 692
3 690 693 687
3 689 694 688
3 688 694 691
3 695 691 694
3 695 694 696
3 689 697 694
3 696 698 695
3 699 695 698
3 699 700 695
3 695 700 690
3 695 690 691
3 701 700 699
3 701 699 702
3 696 703 698
3 696 704 703
3 696 705 704
3 696 697 705
3 696 694 697
3 706 701 702
3 706 707 701
