ply
format ascii 1.0
element vertex 700
property float x
property float y
property float z
property uchar red
property uchar green
property uchar blue
element face 820
property list uchar int vertex_index
end_header
-0.34167 -0.55945 2.13781 242 183 208
-0.39831 -0.55945 2.13781 242 183 208
-0.65056 -0.55945 2.28848 242 183 208
-0.26743 -0.55946 2.28855 242 183 208
-0.53705 -0.55946 2.13781 242 183 208
-0.26745 -0.55946 2.01417 242 183 208
-0.6505 -0.55945 1.9612 242 183 208
-0.60773 -0.55946 2.01391 242 183 208
-0.52647 -0.55947 1.97577 242 183 208
-0.49347 -0.55947 1.9436 242 183 208
-0.19242 -0.55947 1.9436 242 183 208
-0.26742 -0.49787 2.33448 242 183 208
-0.61711 -0.49798 2.33438 242 183 208
-0.72507 -0.49812 2.28844 242 183 208
-0.66761 -0.45545 2.33437 242 183 208
-0.20999 -0.55946 2.33438 242 183 208
-0.52577 -0.55947 1.65234 242 183 208
-0.65036 -0.55946 1.21292 242 183 208
-0.51492 -0.55946 1.21292 242 183 208
-0.15042 -0.55946 1.21292 242 183 208
-0.72507 -0.49812 1.21292 242 183 208
-0.72507 -0.17671 1.21292 242 183 208
-0.707 -0.51295 1.21292 242 183 208
-0.72507 0.09493 1.21292 242 183 208
0.52577 -0.55947 1.65234 242 183 208
0.15042 -0.55946 1.21292 242 183 208
0.51492 -0.55946 1.21292 242 183 208
0.65036 -0.55946 1.21292 242 183 208
0.6505 -0.55945 1.9612 242 183 208
0.70644 -0.51341 1.21292 242 183 208
0.52647 -0.55947 1.97577 242 183 208
0.60773 -0.55946 2.01391 242 183 208
0.26745 -0.55946 2.01417 242 183 208
0.49347 -0.55947 1.9436 242 183 208
0.19242 -0.55947 1.9436 242 183 208
0.26751 -0.84341 2.01417 242 183 208
0.19216 -0.7919 1.9436 242 183 208
0.53705 -0.55946 2.13781 242 183 208
0.65056 -0.55945 2.28848 242 183 208
0.39831 -0.55945 2.13781 242 183 208
0.34167 -0.55945 2.13781 242 183 208
0.26743 -0.55946 2.28855 242 183 208
0.26742 -0.49787 2.33448 242 183 208
0.61711 -0.49798 2.33438 242 183 208
0.72507 -0.49812 2.28844 242 183 208
0.66761 -0.45545 2.33437 242 183 208
0.20999 -0.55946 2.33438 242 183 208
0.72507 -0.49812 1.21292 242 183 208
0.72507 -0.17671 1.21292 242 183 208
0.72507 0.09493 1.21292 242 183 208
0.72507 -0.49812 1.17947 242 183 208
0.72507 -0.19304 1.17947 242 183 208
0.72507 -0.49812 1.07675 242 183 208
0.72507 -0.19304 1.07675 242 183 208
0.72507 -0.22236 1.04263 242 183 208
0.72507 -0.46748 1.04263 242 183 208
0.72507 0.42605 1.21292 242 183 208
0.72507 0.55752 2.28844 242 183 208
0.66759 0.50771 2.33436 242 183 208
0.60016 0.57667 2.33436 242 183 208
0.65015 0.63415 2.28844 242 183 208
0.72507 0.55752 1.21292 242 183 208
0.67143 0.61238 1.21292 242 183 208
-0.60016 0.57667 2.33436 242 183 208
-0.65015 0.63415 2.28844 242 183 208
-0.72507 0.55752 2.28844 242 183 208
-0.66759 0.50771 2.33436 242 183 208
-0.66911 0.61476 1.21292 242 183 208
-0.65015 0.63415 1.21292 242 183 208
-0.38723 0.63415 1.21292 242 183 208
-0.15453 0.63415 1.21292 242 183 208
0.15453 0.63415 1.21292 242 183 208
0.38723 0.63415 1.21292 242 183 208
0.65015 0.63415 1.21292 242 183 208
-0.72507 0.42605 1.21292 242 183 208
-0.72507 0.55752 1.21292 242 183 208
-0.72507 0.40144 1.17947 242 183 208
-0.72507 0.11125 1.17947 242 183 208
0.65015 0.63415 1.17947 242 183 208
0.41013 0.63415 1.17947 242 183 208
-0.65015 0.63415 1.17947 242 183 208
0.13542 0.63415 1.17947 242 183 208
-0.13542 0.63415 1.17947 242 183 208
-0.72507 0.40144 1.07675 242 183 208
-0.72507 0.11125 1.07675 242 183 208
0.65015 0.63415 1.07675 242 183 208
0.41013 0.63415 1.07675 242 183 208
0.44184 0.63415 1.04263 242 183 208
0.62316 0.63415 1.04263 242 183 208
0.13542 0.63415 1.07675 242 183 208
-0.13542 0.63415 1.07675 242 183 208
0.11786 0.63415 1.04263 242 183 208
-0.11786 0.63415 1.04263 242 183 208
-0.72507 0.37847 1.04263 242 183 208
-0.72507 0.14057 1.04263 242 183 208
-0.41013 0.63415 1.17947 242 183 208
-0.41013 0.63415 1.07675 242 183 208
-0.65015 0.63415 1.07675 242 183 208
-0.62206 0.63415 1.04263 242 183 208
-0.44184 0.63415 1.04263 242 183 208
-0.56819 -0.53924 2.03465 255 255 255
-0.52697 -0.53923 2.11859 255 255 255
-0.3521 -0.53923 2.11859 255 255 255
-0.30416 -0.53923 2.03465 255 255 255
-0.56819 -0.55946 2.03465 223 168 190
-0.56819 -0.53924 2.03465 223 168 190
-0.30416 -0.53923 2.03465 223 168 190
-0.30416 -0.55946 2.03465 223 168 190
-0.3521 -0.53923 2.11859 223 168 190
-0.3521 -0.55945 2.11859 223 168 190
-0.52697 -0.53923 2.11859 223 168 190
-0.52697 -0.55946 2.11859 223 168 190
-0.39831 -0.55945 2.13781 223 168 190
-0.53705 -0.55946 2.13781 223 168 190
-0.60773 -0.55946 2.01391 223 168 190
-0.26745 -0.55946 2.01417 223 168 190
-0.34167 -0.55945 2.13781 223 168 190
-0.37997 -0.55136 2.08978 38 27 26
-0.41091 -0.55136 2.08978 38 27 26
-0.41091 -0.55136 2.12268 38 27 26
-0.37997 -0.55136 2.12268 38 27 26
-0.37997 -0.53643 2.08978 38 27 26
-0.41091 -0.53643 2.08978 38 27 26
-0.41091 -0.53643 2.12268 38 27 26
-0.37997 -0.53643 2.12268 38 27 26
0.85429 0.125 2.34911 186 96 104
0.8975 0.125 2.32833 186 96 104
0.9813 0.125 2.14406 186 96 104
0.96799 0.125 2.09901 186 96 104
0.67362 0.125 1.96616 186 96 104
0.56007 0.125 2.21611 186 96 104
0.87086 0.30107 2.42773 247 190 215
0.87086 0.125 2.42773 247 190 215
0.53268 0.125 2.27463 247 190 215
0.53268 0.33137 2.27463 247 190 215
0.94154 0.29975 2.39378 247 190 215
0.94154 0.125 2.39378 247 190 215
0.56007 0.37181 2.21611 242 183 208
0.67362 0.37181 1.96616 242 183 208
0.9813 0.3314 2.14406 242 183 208
0.8975 0.3314 2.32833 242 183 208
0.94154 0.29975 2.39378 242 183 208
1.05731 0.29975 2.13814 242 183 208
0.53268 0.33137 2.27463 242 183 208
0.87086 0.30107 2.42773 242 183 208
1.0372 0.3011 2.06158 242 183 208
1.05731 0.125 2.13814 242 183 208
1.0372 0.125 2.06158 242 183 208
0.69854 0.3314 1.90851 242 183 208
0.9813 0.125 2.14406 242 183 208
0.8975 0.125 2.32833 242 183 208
0.94154 0.125 2.39378 242 183 208
0.87086 0.125 2.42773 242 183 208
0.85429 0.125 2.34911 242 183 208
0.96799 0.125 2.09901 242 183 208
0.67362 0.125 1.96616 242 183 208
0.69854 0.125 1.90851 242 183 208
0.56007 0.125 2.21611 242 183 208
0.53268 0.125 2.27463 242 183 208
0.56804 -0.13503 1.44686 242 183 208
0.56804 -0.13503 1.81844 242 183 208
0.88536 -0.13503 1.81844 242 183 208
0.88536 -0.13503 1.44686 242 183 208
0.93015 -0.18727 1.44686 242 183 208
0.93015 -0.18727 1.81844 242 183 208
0.93015 -0.62641 1.44686 242 183 208
0.93015 -0.62641 1.81844 242 183 208
0.56804 -0.13503 1.81844 247 190 215
0.56804 0.23655 1.81844 247 190 215
1.25702 0.23655 1.81844 247 190 215
0.88536 -0.13503 1.81844 247 190 215
1.31657 0.16579 1.81844 247 190 215
0.93015 -0.18727 1.81844 247 190 215
0.93015 -0.62641 1.81844 247 190 215
1.31657 -0.62641 1.81844 247 190 215
0.96308 -0.6682 1.78678 247 190 215
1.28364 -0.6682 1.78678 247 190 215
0.56804 0.23655 1.81844 242 183 208
0.56804 0.23655 1.44686 242 183 208
1.25702 0.23655 1.44686 242 183 208
1.25702 0.23655 1.81844 242 183 208
1.31657 0.16579 1.44686 242 183 208
1.31657 0.16579 1.81844 242 183 208
1.31657 -0.62641 1.81844 242 183 208
1.31657 -0.62641 1.44686 242 183 208
1.28364 -0.6682 1.47852 242 183 208
0.96308 -0.6682 1.47852 242 183 208
0.96308 -0.6682 1.78678 242 183 208
1.28364 -0.6682 1.78678 242 183 208
1.05165 -0.73556 1.67956 242 183 208
1.05165 -0.73556 1.77911 242 183 208
1.14991 -0.73556 1.77911 242 183 208
1.14991 -0.73556 1.67956 242 183 208
1.14991 -0.66118 1.77911 242 183 208
1.14991 -0.66118 1.67956 242 183 208
1.05165 -0.66118 1.67956 242 183 208
1.05165 -0.66118 1.77911 242 183 208
1.05165 -0.73556 1.77911 247 190 215
1.05165 -0.66118 1.77911 247 190 215
1.14991 -0.66118 1.77911 247 190 215
1.14991 -0.73556 1.77911 247 190 215
0.97037 -0.73556 1.48851 242 183 208
0.97037 -0.73556 1.60005 242 183 208
1.06464 -0.73556 1.60005 242 183 208
1.06464 -0.73556 1.48851 242 183 208
1.06464 -0.66118 1.60005 242 183 208
1.06464 -0.66118 1.48851 242 183 208
0.97037 -0.66118 1.48851 242 183 208
0.97037 -0.66118 1.60005 242 183 208
0.97037 -0.73556 1.60005 247 190 215
0.97037 -0.66118 1.60005 247 190 215
1.06464 -0.66118 1.60005 247 190 215
1.06464 -0.73556 1.60005 247 190 215
1.18116 -0.73556 1.60598 242 183 208
1.18116 -0.73556 1.7081 242 183 208
1.27783 -0.73556 1.7081 242 183 208
1.27783 -0.73556 1.60598 242 183 208
1.27783 -0.66118 1.7081 242 183 208
1.27783 -0.66118 1.60598 242 183 208
1.18116 -0.66118 1.60598 242 183 208
1.18116 -0.66118 1.7081 242 183 208
1.18116 -0.73556 1.7081 247 190 215
1.18116 -0.66118 1.7081 247 190 215
1.27783 -0.66118 1.7081 247 190 215
1.27783 -0.73556 1.7081 247 190 215
-0.42871 -0.49501 1.81825 203 127 139
0.42871 -0.49501 1.81825 203 127 139
0.42871 -0.49501 1.64267 203 127 139
-0.42871 -0.49501 1.64267 203 127 139
0.42871 -0.39375 1.81825 203 127 139
-0.42871 -0.39375 1.81825 203 127 139
-0.42871 -0.39375 1.64267 203 127 139
0.42871 -0.39375 1.64267 203 127 139
-0.26742 -0.49787 2.33448 247 190 215
-0.61711 -0.49798 2.33438 247 190 215
-0.66761 -0.45545 2.33437 247 190 215
-0.66759 0.50771 2.33436 247 190 215
0.66759 0.50771 2.33436 247 190 215
-0.60016 0.57667 2.33436 247 190 215
0.60016 0.57667 2.33436 247 190 215
0.26742 -0.49787 2.33448 247 190 215
0.66761 -0.45545 2.33437 247 190 215
0.61711 -0.49798 2.33438 247 190 215
-0.26746 -1.04179 2.28881 242 183 208
-0.19198 -1.09134 2.28853 242 183 208
-0.19193 -1.09135 2.25551 242 183 208
-0.21001 -0.99415 2.33439 242 183 208
-0.14224 -1.04055 2.33474 242 183 208
-0.19191 -1.09135 2.18147 242 183 208
-0.19189 -1.09135 2.02055 242 183 208
-0.26777 -1.04181 1.81469 242 183 208
-0.19185 -1.09135 1.94313 242 183 208
-0.1918 -1.09135 1.81466 242 183 208
-0.22324 -1.04177 1.76395 242 183 208
-0.22346 -0.79192 1.76395 242 183 208
-0.26774 -0.84345 1.81469 242 183 208
-0.12498 -0.99595 1.76395 242 183 208
-0.06672 -0.99594 1.76395 242 183 208
-0.12503 -0.83771 1.76395 242 183 208
-0.06672 -0.8377 1.76395 242 183 208
-0.12503 -0.83771 1.79648 242 183 208
-0.06672 -0.8377 1.79648 242 183 208
0.22346 -0.79192 1.76395 242 183 208
0.06672 -0.8377 1.76395 242 183 208
0.12503 -0.83771 1.76395 242 183 208
0.12498 -0.99595 1.76395 242 183 208
0.22324 -1.04177 1.76395 242 183 208
0.06672 -0.99594 1.76395 242 183 208
-0.06672 -0.99594 1.79648 242 183 208
-0.12498 -0.99595 1.79648 242 183 208
0.26777 -1.04181 1.81469 242 183 208
0.26774 -0.84345 1.81469 242 183 208
0.1918 -1.09135 1.81466 242 183 208
0.19185 -1.09135 1.94313 242 183 208
0.19189 -1.09135 2.02055 242 183 208
0.26746 -1.04179 2.28881 242 183 208
0.19191 -1.09135 2.18147 242 183 208
0.19193 -1.09135 2.25551 242 183 208
0.19198 -1.09134 2.28853 242 183 208
0.21001 -0.99415 2.33439 242 183 208
0.14224 -1.04055 2.33474 242 183 208
-0.52577 -0.55947 1.65234 160 87 97
-0.52647 -0.55947 1.97577 160 87 97
-0.52647 -0.40116 1.97577 160 87 97
-0.52577 -0.40116 1.65234 160 87 97
-0.49347 -0.55947 1.9436 160 87 97
-0.49347 -0.40116 1.9436 160 87 97
0.49347 -0.40116 1.9436 160 87 97
0.52577 -0.40116 1.65234 160 87 97
0.52577 -0.55947 1.65234 160 87 97
0.52647 -0.40116 1.97577 160 87 97
0.52647 -0.55947 1.97577 160 87 97
0.19242 -0.55947 1.9436 160 87 97
-0.19242 -0.55947 1.9436 160 87 97
0.49347 -0.55947 1.9436 160 87 97
-0.26751 -0.84341 2.00675 242 183 208
-0.19216 -0.7919 1.9436 242 183 208
0.21 -0.93082 2.33439 242 183 208
0.21 -0.8592 2.33439 242 183 208
-0.21 -0.93082 2.33439 242 183 208
-0.21 -0.8592 2.33439 242 183 208
0.12498 -0.99595 1.79648 242 183 208
0.12503 -0.83771 1.79648 242 183 208
0.06672 -0.8377 1.79648 242 183 208
0.06672 -0.99594 1.79648 242 183 208
-0.21 -0.8592 2.33439 247 190 215
-0.20999 -0.55946 2.33438 247 190 215
0.20999 -0.55946 2.33438 247 190 215
0.21 -0.8592 2.33439 247 190 215
-0.19185 -1.09135 1.94313 223 168 190
-0.19189 -1.09135 2.02055 223 168 190
0.19189 -1.09135 2.02055 223 168 190
0.19185 -1.09135 1.94313 223 168 190
-0.19191 -1.09135 2.18147 223 168 190
-0.19193 -1.09135 2.25551 223 168 190
0.19193 -1.09135 2.25551 223 168 190
0.19191 -1.09135 2.18147 223 168 190
-0.21 -0.93082 2.33439 223 168 190
-0.21 -0.8592 2.33439 223 168 190
0.21 -0.8592 2.33439 223 168 190
0.21 -0.93082 2.33439 223 168 190
-0.21001 -0.99415 2.33439 247 190 215
-0.21 -0.93082 2.33439 247 190 215
0.21 -0.93082 2.33439 247 190 215
0.21001 -0.99415 2.33439 247 190 215
-0.14224 -1.04055 2.33474 247 190 215
0.14224 -1.04055 2.33474 247 190 215
0.56819 -0.53924 2.03465 255 255 255
0.30416 -0.53923 2.03465 255 255 255
0.3521 -0.53923 2.11859 255 255 255
0.52697 -0.53923 2.11859 255 255 255
0.56819 -0.55946 2.03465 223 168 190
0.30416 -0.55946 2.03465 223 168 190
0.30416 -0.53923 2.03465 223 168 190
0.56819 -0.53924 2.03465 223 168 190
0.3521 -0.55945 2.11859 223 168 190
0.3521 -0.53923 2.11859 223 168 190
0.52697 -0.53923 2.11859 223 168 190
0.52697 -0.55946 2.11859 223 168 190
0.39831 -0.55945 2.13781 223 168 190
0.53705 -0.55946 2.13781 223 168 190
0.60773 -0.55946 2.01391 223 168 190
0.26745 -0.55946 2.01417 223 168 190
0.34167 -0.55945 2.13781 223 168 190
0.37997 -0.55136 2.08978 38 27 26
0.37997 -0.55136 2.12268 38 27 26
0.41091 -0.55136 2.12268 38 27 26
0.41091 -0.55136 2.08978 38 27 26
0.37997 -0.53643 2.08978 38 27 26
0.41091 -0.53643 2.08978 38 27 26
0.41091 -0.53643 2.12268 38 27 26
0.37997 -0.53643 2.12268 38 27 26
0.49458 -0.23689 0.85975 170 101 123
0.8505 -0.23689 0.85975 170 101 123
0.8505 -0.23689 0.14713 170 101 123
0.49458 -0.23689 0.14713 170 101 123
0.90981 -0.18085 0.19491 170 101 123
0.90981 -0.18085 0.83605 170 101 123
0.8505 -0.1674 0.92109 170 101 123
0.49458 -0.1674 0.92109 170 101 123
0.90981 -0.13568 0.87331 170 101 123
0.8505 0.14921 0.14713 170 101 123
0.49458 0.32838 0.85975 170 101 123
0.49458 0.26557 0.92109 170 101 123
0.8505 0.32838 0.85975 170 101 123
0.8505 0.32838 0.14713 170 101 123
0.49458 0.32838 0.14713 170 101 123
0.80516 0.20356 0.14713 170 101 123
0.53991 0.20356 0.14713 170 101 123
0.49458 0.14921 0.14713 170 101 123
0.80516 0.20356 0 170 101 123
0.53991 0.20356 0 170 101 123
0.90981 0.27234 0.83605 170 101 123
0.90981 0.27234 0.19491 170 101 123
0.90981 0.23383 0.87331 170 101 123
0.8505 0.26557 0.92109 170 101 123
0.8505 0.14921 0 170 101 123
0.8505 -0.23689 0 170 101 123
0.75649 -0.13685 0 170 101 123
0.75649 0.05519 0 170 101 123
0.49458 0.14921 0 170 101 123
0.58858 0.05519 0 170 101 123
0.49458 -0.23689 0 170 101 123
0.58858 -0.13685 0 170 101 123
0.58858 0.05519 0 211 123 151
0.58858 -0.13685 0 211 123 151
0.75649 -0.13685 0 211 123 151
0.75649 0.05519 0 211 123 151
0.53214 -0.43473 0 242 183 208
0.53214 -0.43473 0.14713 242 183 208
0.81294 -0.43473 0.14713 242 183 208
0.81294 -0.43473 0 242 183 208
0.49458 -0.38036 0.14713 242 183 208
0.49458 -0.38036 0 242 183 208
0.49458 -0.23689 0.14713 242 183 208
0.49458 -0.23689 0 242 183 208
0.8505 -0.38036 0 242 183 208
0.8505 -0.23689 0 242 183 208
0.8505 -0.38036 0.14713 242 183 208
0.8505 -0.23689 0.14713 242 183 208
0.49458 -0.23689 0.14713 247 190 215
0.8505 -0.23689 0.14713 247 190 215
0.8505 -0.38036 0.14713 247 190 215
0.49458 -0.38036 0.14713 247 190 215
0.81294 -0.43473 0.14713 247 190 215
0.53214 -0.43473 0.14713 247 190 215
0.49458 -0.1674 0.92109 175 106 128
0.49458 0.26557 0.92109 175 106 128
0.8505 0.26557 0.92109 175 106 128
0.8505 -0.1674 0.92109 175 106 128
-0.8505 0.32838 0.14713 170 101 123
-0.8505 0.14921 0.14713 170 101 123
-0.80516 0.20356 0.14713 170 101 123
-0.90981 0.27234 0.19491 170 101 123
-0.90981 0.27234 0.83605 170 101 123
-0.8505 0.32838 0.85975 170 101 123
-0.49458 0.32838 0.85975 170 101 123
-0.49458 0.32838 0.14713 170 101 123
-0.49458 0.14921 0.14713 170 101 123
-0.90981 0.23383 0.87331 170 101 123
-0.90981 -0.18085 0.83605 170 101 123
-0.90981 -0.13568 0.87331 170 101 123
-0.8505 0.26557 0.92109 170 101 123
-0.49458 0.26557 0.92109 170 101 123
-0.8505 -0.1674 0.92109 170 101 123
-0.90981 -0.18085 0.19491 170 101 123
-0.49458 -0.1674 0.92109 170 101 123
-0.49458 -0.23689 0.85975 170 101 123
-0.53991 0.20356 0.14713 170 101 123
-0.53991 0.20356 0 170 101 123
-0.80516 0.20356 0 170 101 123
-0.49458 0.14921 0 170 101 123
-0.8505 0.14921 0 170 101 123
-0.75649 0.05519 0 170 101 123
-0.58858 0.05519 0 170 101 123
-0.75649 -0.13685 0 170 101 123
-0.8505 -0.23689 0 170 101 123
-0.8505 -0.23689 0.14713 170 101 123
-0.49458 -0.23689 0 170 101 123
-0.58858 -0.13685 0 170 101 123
-0.49458 -0.23689 0.14713 170 101 123
-0.8505 -0.23689 0.85975 170 101 123
-0.58858 0.05519 0 211 123 151
-0.75649 0.05519 0 211 123 151
-0.75649 -0.13685 0 211 123 151
-0.58858 -0.13685 0 211 123 151
-0.49458 -0.23689 0.14713 242 183 208
-0.49458 -0.23689 0 242 183 208
-0.49458 -0.38036 0 242 183 208
-0.49458 -0.38036 0.14713 242 183 208
-0.53214 -0.43473 0 242 183 208
-0.53214 -0.43473 0.14713 242 183 208
-0.81294 -0.43473 0.14713 242 183 208
-0.81294 -0.43473 0 242 183 208
-0.8505 -0.38036 0 242 183 208
-0.8505 -0.38036 0.14713 242 183 208
-0.8505 -0.23689 0 242 183 208
-0.8505 -0.23689 0.14713 242 183 208
-0.49458 -0.1674 0.92109 175 106 128
-0.8505 -0.1674 0.92109 175 106 128
-0.8505 0.26557 0.92109 175 106 128
-0.49458 0.26557 0.92109 175 106 128
-0.49458 -0.38036 0.14713 247 190 215
-0.53214 -0.43473 0.14713 247 190 215
-0.81294 -0.43473 0.14713 247 190 215
-0.8505 -0.38036 0.14713 247 190 215
-0.49458 -0.23689 0.14713 247 190 215
-0.8505 -0.23689 0.14713 247 190 215
0.60016 0.57667 0.29447 170 101 123
-0.60016 0.57667 0.29447 170 101 123
-0.66759 0.50771 0.29447 170 101 123
0.66759 0.50771 0.29447 170 101 123
0.65015 0.63415 0.33963 170 101 123
0.72507 0.55752 0.33963 170 101 123
0.72507 0.55752 1.04263 170 101 123
0.72507 0.37847 1.04263 170 101 123
0.65015 0.63415 1.04263 170 101 123
0.66759 -0.44831 0.29447 170 101 123
0.72507 -0.49812 0.33963 170 101 123
0.65015 0.63415 1.07675 170 101 123
0.72507 0.55752 1.07675 170 101 123
0.72507 0.14057 1.04263 170 101 123
-0.65015 0.63415 0.33963 170 101 123
-0.72507 0.55752 0.33963 170 101 123
-0.72507 0.55752 1.04263 170 101 123
-0.72507 0.37847 1.04263 170 101 123
-0.65015 0.63415 1.04263 170 101 123
-0.65015 0.63415 1.07675 170 101 123
-0.72507 0.55752 1.07675 170 101 123
-0.62206 0.63415 1.04263 170 101 123
-0.72507 0.14057 1.04263 170 101 123
-0.72507 -0.49812 0.33963 170 101 123
-0.66759 -0.44831 0.29447 170 101 123
0.65015 0.63415 1.17947 170 101 123
0.72507 0.55752 1.17947 170 101 123
0.72507 0.40144 1.07675 170 101 123
0.72507 0.40144 1.17947 170 101 123
0.72507 0.42605 1.21292 170 101 123
0.72507 0.55752 1.21292 170 101 123
0.67143 0.61238 1.21292 170 101 123
-0.72507 0.55752 1.17947 170 101 123
-0.72507 0.40144 1.17947 170 101 123
-0.72507 0.42605 1.21292 170 101 123
-0.72507 0.55752 1.21292 170 101 123
-0.65015 0.63415 1.17947 170 101 123
-0.66911 0.61476 1.21292 170 101 123
0.60016 -0.51727 0.29447 170 101 123
0.65015 -0.55947 0.33963 170 101 123
-0.65015 -0.55947 0.33963 170 101 123
-0.60016 -0.51727 0.29447 170 101 123
0.65033 -0.55946 1.04263 170 101 123
0.45522 -0.55946 1.04263 170 101 123
0.72507 -0.49812 1.04263 170 101 123
0.72507 -0.49812 1.07675 170 101 123
0.65034 -0.55946 1.07675 170 101 123
0.20711 -0.55946 1.04263 170 101 123
-0.65033 -0.55946 1.04263 170 101 123
-0.45522 -0.55946 1.04263 170 101 123
-0.72507 -0.49812 1.04263 170 101 123
-0.72507 -0.49812 1.07675 170 101 123
-0.65034 -0.55946 1.07675 170 101 123
-0.72507 -0.46753 1.04263 170 101 123
-0.20711 -0.55946 1.04263 170 101 123
0.72507 -0.49812 1.17947 170 101 123
0.65035 -0.55946 1.17947 170 101 123
0.48822 -0.55946 1.07675 170 101 123
0.48823 -0.55946 1.17947 170 101 123
0.51492 -0.55946 1.21292 170 101 123
0.65036 -0.55946 1.21292 170 101 123
0.70644 -0.51341 1.21292 170 101 123
-0.65035 -0.55946 1.17947 170 101 123
-0.48823 -0.55946 1.17947 170 101 123
-0.51492 -0.55946 1.21292 170 101 123
-0.65036 -0.55946 1.21292 170 101 123
-0.48822 -0.55946 1.07675 170 101 123
-0.72507 -0.49812 1.17947 170 101 123
-0.707 -0.51295 1.21292 170 101 123
0.48823 -0.55946 1.17947 242 183 208
0.176 -0.55946 1.17947 242 183 208
0.17599 -0.55946 1.07675 242 183 208
0.48822 -0.55946 1.07675 242 183 208
0.20711 -0.55946 1.04263 242 183 208
0.45522 -0.55946 1.04263 242 183 208
0.72507 -0.17671 1.21292 170 101 123
0.72507 0.09493 1.21292 170 101 123
0.72507 0.11125 1.17947 170 101 123
0.72507 -0.19304 1.17947 170 101 123
0.72507 -0.19304 1.07675 170 101 123
0.72507 0.11125 1.07675 170 101 123
0.72507 -0.22236 1.04263 170 101 123
0.72507 -0.46748 1.04263 170 101 123
0.72507 0.40144 1.17947 242 183 208
0.72507 0.11125 1.17947 242 183 208
0.72507 0.11125 1.07675 242 183 208
0.72507 0.40144 1.07675 242 183 208
0.72507 0.14057 1.04263 242 183 208
0.72507 0.37847 1.04263 242 183 208
0.38723 0.63415 1.21292 170 101 123
0.15453 0.63415 1.21292 170 101 123
0.13542 0.63415 1.17947 170 101 123
0.41013 0.63415 1.17947 170 101 123
0.41013 0.63415 1.07675 170 101 123
0.13542 0.63415 1.07675 170 101 123
0.44184 0.63415 1.04263 170 101 123
0.11786 0.63415 1.04263 170 101 123
0.62316 0.63415 1.04263 170 101 123
-0.11786 0.63415 1.04263 170 101 123
-0.44184 0.63415 1.04263 170 101 123
-0.41013 0.63415 1.07675 170 101 123
-0.13542 0.63415 1.07675 170 101 123
-0.41013 0.63415 1.17947 170 101 123
-0.13542 0.63415 1.17947 170 101 123
-0.38723 0.63415 1.21292 170 101 123
-0.15453 0.63415 1.21292 170 101 123
0.15042 -0.55946 1.21292 170 101 123
0.176 -0.55946 1.17947 170 101 123
-0.176 -0.55946 1.17947 170 101 123
-0.15042 -0.55946 1.21292 170 101 123
-0.17599 -0.55946 1.07675 170 101 123
0.17599 -0.55946 1.07675 170 101 123
-0.176 -0.55946 1.17947 242 183 208
-0.48823 -0.55946 1.17947 242 183 208
-0.48822 -0.55946 1.07675 242 183 208
-0.17599 -0.55946 1.07675 242 183 208
-0.45522 -0.55946 1.04263 242 183 208
-0.20711 -0.55946 1.04263 242 183 208
-0.72507 -0.17671 1.21292 170 101 123
-0.72507 -0.19304 1.17947 170 101 123
-0.72507 0.11125 1.17947 170 101 123
-0.72507 0.09493 1.21292 170 101 123
-0.72507 0.11125 1.07675 170 101 123
-0.72507 -0.19304 1.07675 170 101 123
-0.72507 -0.22236 1.04263 170 101 123
-0.72507 0.40144 1.07675 170 101 123
-0.72507 -0.49812 1.17947 242 183 208
-0.72507 -0.19304 1.17947 242 183 208
-0.72507 -0.19304 1.07675 242 183 208
-0.72507 -0.49812 1.07675 242 183 208
-0.72507 -0.46753 1.04263 242 183 208
-0.72507 -0.22236 1.04263 242 183 208
-0.56804 -0.13503 1.44686 242 183 208
-0.88536 -0.13503 1.44686 242 183 208
-0.88536 -0.13503 1.81844 242 183 208
-0.56804 -0.13503 1.81844 242 183 208
-0.93015 -0.18727 1.44686 242 183 208
-0.93015 -0.18727 1.81844 242 183 208
-0.93015 -0.62641 1.44686 242 183 208
-0.93015 -0.62641 1.81844 242 183 208
-0.56804 -0.13503 1.81844 247 190 215
-0.88536 -0.13503 1.81844 247 190 215
-1.25702 0.23655 1.81844 247 190 215
-0.56804 0.23655 1.81844 247 190 215
-1.31657 0.16579 1.81844 247 190 215
-0.93015 -0.18727 1.81844 247 190 215
-0.93015 -0.62641 1.81844 247 190 215
-1.31657 -0.62641 1.81844 247 190 215
-0.96308 -0.6682 1.78678 247 190 215
-1.28364 -0.6682 1.78678 247 190 215
-0.56804 0.23655 1.81844 242 183 208
-1.25702 0.23655 1.81844 242 183 208
-1.25702 0.23655 1.44686 242 183 208
-0.56804 0.23655 1.44686 242 183 208
-1.31657 0.16579 1.44686 242 183 208
-1.31657 0.16579 1.81844 242 183 208
-1.31657 -0.62641 1.81844 242 183 208
-1.31657 -0.62641 1.44686 242 183 208
-1.28364 -0.6682 1.47852 242 183 208
-0.96308 -0.6682 1.47852 242 183 208
-0.96308 -0.6682 1.78678 242 183 208
-1.28364 -0.6682 1.78678 242 183 208
-1.05165 -0.73556 1.67956 242 183 208
-1.14991 -0.73556 1.67956 242 183 208
-1.14991 -0.73556 1.77911 242 183 208
-1.05165 -0.73556 1.77911 242 183 208
-1.14991 -0.66118 1.77911 242 183 208
-1.14991 -0.66118 1.67956 242 183 208
-1.05165 -0.66118 1.67956 242 183 208
-1.05165 -0.66118 1.77911 242 183 208
-1.05165 -0.73556 1.77911 247 190 215
-1.14991 -0.73556 1.77911 247 190 215
-1.14991 -0.66118 1.77911 247 190 215
-1.05165 -0.66118 1.77911 247 190 215
-0.97037 -0.73556 1.48851 242 183 208
-1.06464 -0.73556 1.48851 242 183 208
-1.06464 -0.73556 1.60005 242 183 208
-0.97037 -0.73556 1.60005 242 183 208
-1.06464 -0.66118 1.60005 242 183 208
-1.06464 -0.66118 1.48851 242 183 208
-0.97037 -0.66118 1.48851 242 183 208
-0.97037 -0.66118 1.60005 242 183 208
-0.97037 -0.73556 1.60005 247 190 215
-1.06464 -0.73556 1.60005 247 190 215
-1.06464 -0.66118 1.60005 247 190 215
-0.97037 -0.66118 1.60005 247 190 215
-1.18116 -0.73556 1.60598 242 183 208
-1.27783 -0.73556 1.60598 242 183 208
-1.27783 -0.73556 1.7081 242 183 208
-1.18116 -0.73556 1.7081 242 183 208
-1.27783 -0.66118 1.7081 242 183 208
-1.27783 -0.66118 1.60598 242 183 208
-1.18116 -0.66118 1.60598 242 183 208
-1.18116 -0.66118 1.7081 242 183 208
-1.18116 -0.73556 1.7081 247 190 215
-1.27783 -0.73556 1.7081 247 190 215
-1.27783 -0.66118 1.7081 247 190 215
-1.18116 -0.66118 1.7081 247 190 215
-0.85429 0.125 2.34911 186 96 104
-0.96799 0.125 2.09901 186 96 104
-0.9813 0.125 2.14406 186 96 104
-0.8975 0.125 2.32833 186 96 104
-0.67362 0.125 1.96616 186 96 104
-0.56007 0.125 2.21611 186 96 104
-0.87086 0.30107 2.42773 247 190 215
-0.53268 0.33137 2.27463 247 190 215
-0.53268 0.125 2.27463 247 190 215
-0.87086 0.125 2.42773 247 190 215
-0.94154 0.29975 2.39378 247 190 215
-0.94154 0.125 2.39378 247 190 215
-0.56007 0.37181 2.21611 242 183 208
-0.8975 0.3314 2.32833 242 183 208
-0.9813 0.3314 2.14406 242 183 208
-0.67362 0.37181 1.96616 242 183 208
-0.94154 0.29975 2.39378 242 183 208
-1.05731 0.29975 2.13814 242 183 208
-0.53268 0.33137 2.27463 242 183 208
-0.87086 0.30107 2.42773 242 183 208
-1.0372 0.3011 2.06158 242 183 208
-1.05731 0.125 2.13814 242 183 208
-1.0372 0.125 2.06158 242 183 208
-0.69854 0.3314 1.90851 242 183 208
-0.9813 0.125 2.14406 242 183 208
-0.8975 0.125 2.32833 242 183 208
-0.94154 0.125 2.39378 242 183 208
-0.87086 0.125 2.42773 242 183 208
-0.85429 0.125 2.34911 242 183 208
-0.96799 0.125 2.09901 242 183 208
-0.67362 0.125 1.96616 242 183 208
-0.69854 0.125 1.90851 242 183 208
-0.56007 0.125 2.21611 242 183 208
-0.53268 0.125 2.27463 242 183 208
3 0 2 1
3 0 3 2
3 1 2 4
3 5 3 0
3 6 4 2
3 6 7 4
3 5 7 8
3 6 8 7
3 5 8 9
3 5 9 10
3 11 2 3
3 11 12 2
3 12 13 2
3 13 6 2
3 12 14 13
3 15 11 3
3 16 8 6
3 16 6 17
3 16 17 18
3 16 18 19
3 20 6 13
3 20 13 21
3 22 6 20
3 17 6 22
3 13 23 21
3 19 24 16
3 19 25 24
3 24 25 26
3 24 26 27
3 24 27 28
3 27 29 28
3 24 28 30
3 28 31 30
3 32 30 31
3 32 33 30
3 32 34 33
3 34 32 35
3 34 35 36
3 28 37 31
3 28 38 37
3 39 37 38
3 40 39 38
3 40 38 41
3 32 40 41
3 42 41 38
3 42 38 43
3 43 38 44
3 43 44 45
3 46 41 42
3 44 38 28
3 47 44 28
3 47 48 44
3 44 48 49
3 50 48 47
3 50 51 48
3 52 51 50
3 52 53 51
3 52 54 53
3 52 55 54
3 29 50 47
3 28 29 47
3 44 49 56
3 44 56 57
3 44 57 58
3 57 59 58
3 57 60 59
3 44 58 45
3 57 56 61
3 61 62 57
3 63 59 60
3 63 60 64
3 65 63 64
3 65 66 63
3 67 65 64
3 67 64 68
3 68 64 69
3 64 70 69
3 64 71 70
3 64 60 71
3 60 72 71
3 73 72 60
3 13 66 65
3 13 65 74
3 13 74 23
3 65 75 74
3 75 65 67
3 13 14 66
3 23 74 76
3 23 76 77
3 78 72 73
3 78 79 72
3 80 67 68
3 81 70 71
3 81 82 70
3 77 76 83
3 77 83 84
3 85 79 78
3 85 86 79
3 85 87 86
3 85 88 87
3 89 82 81
3 89 90 82
3 91 90 89
3 91 92 90
3 84 83 93
3 84 93 94
3 95 80 68
3 95 68 69
3 96 80 95
3 96 97 80
3 98 97 96
3 98 96 99
3 100 102 101
3 100 103 102
3 104 106 105
3 104 107 106
3 107 108 106
3 107 109 108
3 109 110 108
3 109 111 110
3 111 105 110
3 111 104 105
3 111 109 112
3 111 112 113
3 114 111 113
3 114 104 111
3 115 104 114
3 115 107 104
3 116 107 115
3 116 109 107
3 109 116 112
3 117 119 118
3 117 120 119
3 121 117 118
3 121 120 117
3 121 118 122
3 118 123 122
3 118 119 123
3 121 124 120
3 125 127 126
3 125 128 127
3 129 128 125
3 129 125 130
3 131 133 132
3 131 134 133
3 135 131 132
3 135 132 136
3 137 139 138
3 137 140 139
3 139 140 141
3 139 141 142
3 140 137 143
3 140 143 144
3 141 140 144
3 138 139 145
3 139 142 145
3 146 145 142
3 146 147 145
3 138 145 148
3 147 146 149
3 150 149 146
3 150 146 151
3 146 141 151
3 146 142 141
3 152 150 151
3 152 153 150
3 147 149 154
3 147 154 155
3 147 155 156
3 147 156 148
3 147 148 145
3 157 153 152
3 157 152 158
3 159 161 160
3 159 162 161
3 161 162 163
3 161 163 164
3 164 163 165
3 164 165 166
3 167 169 168
3 167 170 169
3 171 169 170
3 171 170 172
3 171 172 173
3 171 173 174
3 174 173 175
3 174 175 176
3 177 179 178
3 177 180 179
3 181 179 180
3 181 180 182
3 181 182 183
3 181 183 184
3 163 181 184
3 163 184 165
3 165 184 185
3 165 185 186
3 187 186 185
3 187 185 188
3 184 188 185
3 166 186 187
3 166 165 186
3 184 183 188
3 181 163 162
3 181 162 179
3 178 179 162
3 178 162 159
3 189 191 190
3 189 192 191
3 192 193 191
3 192 194 193
3 195 189 190
3 195 190 196
3 197 199 198
3 197 200 199
3 195 192 189
3 195 194 192
3 201 203 202
3 201 204 203
3 204 205 203
3 204 206 205
3 207 201 202
3 207 202 208
3 209 211 210
3 209 212 211
3 207 204 201
3 207 206 204
3 213 215 214
3 213 216 215
3 216 217 215
3 216 218 217
3 219 213 214
3 219 214 220
3 221 223 222
3 221 224 223
3 219 216 213
3 219 218 216
3 225 227 226
3 225 228 227
3 229 225 226
3 229 230 225
3 231 225 230
3 231 228 225
3 232 226 227
3 232 229 226
3 233 235 234
3 233 236 235
3 233 237 236
3 238 236 237
3 238 237 239
3 233 240 237
3 240 241 237
3 240 242 241
3 243 245 244
3 244 246 243
3 244 247 246
3 243 248 245
3 243 249 248
3 243 250 249
3 250 251 249
3 250 252 251
3 250 253 252
3 254 253 250
3 254 250 255
3 254 256 253
3 257 253 256
3 254 258 256
3 259 258 254
3 259 260 258
3 259 261 260
3 259 254 262
3 259 262 263
3 263 262 264
3 262 265 264
3 262 266 265
3 253 267 266
3 253 257 267
3 257 263 267
3 257 259 263
3 257 261 259
3 257 268 261
3 269 261 268
3 269 260 261
3 256 268 257
3 256 269 268
3 258 269 256
3 258 260 269
3 262 270 266
3 262 271 270
3 270 272 266
3 270 273 272
3 270 274 273
3 275 274 270
3 275 276 274
3 275 277 276
3 275 278 277
3 278 275 279
3 278 279 280
3 252 272 273
3 253 272 252
3 253 266 272
3 252 273 251
3 249 274 276
3 249 276 248
3 245 277 278
3 245 278 244
3 244 278 280
3 244 280 247
3 267 265 266
3 281 283 282
3 281 284 283
3 283 285 282
3 283 286 285
3 284 286 283
3 284 287 286
3 284 288 287
3 281 288 284
3 281 289 288
3 289 290 288
3 288 290 287
3 289 291 290
3 286 287 292
3 286 292 293
3 290 294 287
3 290 291 294
3 294 292 287
3 285 286 293
3 10 295 5
3 10 296 295
3 10 36 296
3 10 34 36
3 296 36 262
3 36 271 262
3 36 35 271
3 275 271 35
3 35 41 275
3 35 32 41
3 275 270 271
3 41 297 275
3 275 297 279
3 41 298 297
3 41 46 298
3 296 262 254
3 296 254 255
3 296 255 295
3 243 295 255
3 295 243 3
3 295 3 5
3 243 255 250
3 3 243 299
3 243 246 299
3 3 299 300
3 3 300 15
3 301 303 302
3 301 304 303
3 265 304 301
3 265 267 304
3 267 303 304
3 267 263 303
3 264 301 302
3 264 265 301
3 263 302 303
3 263 264 302
3 305 307 306
3 305 308 307
3 306 240 233
3 306 307 240
3 309 311 310
3 309 312 311
3 313 315 314
3 313 316 315
3 317 319 318
3 317 320 319
3 321 323 322
3 321 324 323
3 325 324 321
3 325 326 324
3 327 329 328
3 327 330 329
3 331 333 332
3 331 334 333
3 332 336 335
3 332 333 336
3 335 336 337
3 335 337 338
3 338 337 334
3 338 334 331
3 338 339 335
3 338 340 339
3 341 338 331
3 341 340 338
3 342 331 332
3 342 341 331
3 343 332 335
3 343 342 332
3 335 339 343
3 344 346 345
3 344 347 346
3 348 347 344
3 348 344 345
3 348 349 347
3 347 350 346
3 347 349 350
3 348 345 351
3 352 354 353
3 352 355 354
3 353 354 356
3 353 356 357
3 352 353 358
3 352 358 359
3 360 353 357
3 360 358 353
3 356 354 361
3 362 352 359
3 362 359 363
3 363 364 362
3 362 364 365
3 362 365 366
3 366 365 367
3 366 367 368
3 366 369 362
3 366 368 369
3 368 367 370
3 368 370 371
3 365 364 372
3 365 372 373
3 373 361 365
3 361 370 367
3 367 365 361
3 364 374 372
3 357 372 374
3 357 374 360
3 364 375 374
3 363 375 364
3 374 358 360
3 374 375 358
3 356 372 357
3 356 373 372
3 356 361 373
3 361 376 370
3 376 371 370
3 361 377 376
3 361 354 377
3 376 377 378
3 376 378 379
3 380 376 379
3 376 380 371
3 380 379 381
3 378 377 382
3 382 380 381
3 378 382 383
3 382 381 383
3 355 380 382
3 355 369 380
3 352 369 355
3 362 369 352
3 380 368 371
3 380 369 368
3 384 386 385
3 384 387 386
3 388 390 389
3 388 391 390
3 392 388 389
3 392 393 388
3 393 391 388
3 394 393 392
3 394 395 393
3 395 396 393
3 393 396 391
3 396 390 391
3 395 397 396
3 397 398 396
3 396 398 390
3 397 399 398
3 400 402 401
3 400 403 402
3 403 404 402
3 403 405 404
3 406 408 407
3 406 409 408
3 410 412 411
3 413 410 411
3 410 413 414
3 410 414 415
3 416 410 415
3 416 417 410
3 417 412 410
3 417 416 418
3 415 414 419
3 420 419 414
3 420 421 419
3 415 419 422
3 423 415 422
3 423 416 415
3 419 424 422
3 419 421 424
3 425 414 413
3 425 420 414
3 425 413 411
3 416 423 426
3 416 426 427
3 416 427 418
3 417 428 412
3 428 417 418
3 418 429 428
3 428 429 430
3 428 430 412
3 418 431 429
3 431 430 429
3 431 432 430
3 432 412 430
3 431 433 432
3 431 434 433
3 432 433 435
3 432 435 436
3 411 432 436
3 432 411 412
3 411 436 437
3 438 434 431
3 435 438 436
3 438 439 434
3 435 439 438
3 440 438 431
3 440 431 418
3 427 440 418
3 441 440 427
3 441 437 440
3 441 425 437
3 441 420 425
3 427 424 441
3 427 426 424
3 421 441 424
3 421 420 441
3 425 411 437
3 442 444 443
3 442 445 444
3 446 448 447
3 446 449 448
3 449 450 448
3 449 451 450
3 450 451 452
3 450 452 453
3 448 450 453
3 454 453 452
3 448 453 454
3 447 448 454
3 454 452 455
3 456 454 455
3 447 454 456
3 456 455 457
3 458 460 459
3 458 461 460
3 462 464 463
3 462 465 464
3 466 465 462
3 466 467 465
3 468 470 469
3 468 471 470
3 472 471 468
3 472 473 471
3 472 474 473
3 473 474 475
3 472 476 474
3 473 477 471
3 473 478 477
3 474 476 479
3 474 479 480
3 480 475 474
3 473 481 478
3 473 475 481
3 482 469 470
3 468 482 472
3 468 469 482
3 482 470 483
3 482 483 484
3 483 485 484
3 482 484 486
3 484 487 486
3 484 488 487
3 486 487 489
3 482 486 489
3 483 490 485
3 483 491 490
3 483 492 491
3 483 470 492
3 480 479 493
3 480 493 494
3 494 495 480
3 494 496 495
3 497 496 494
3 497 494 498
3 494 499 498
3 494 493 499
3 487 488 500
3 501 500 488
3 502 500 501
3 502 503 500
3 504 500 503
3 487 500 504
3 504 503 505
3 470 477 492
3 492 477 506
3 478 506 477
3 478 507 506
3 506 507 508
3 506 508 509
3 492 506 509
3 478 510 507
3 507 510 511
3 478 512 510
3 510 512 513
3 510 513 514
3 514 511 510
3 507 511 515
3 491 509 508
3 491 492 509
3 491 508 516
3 508 517 516
3 491 516 518
3 516 519 518
3 516 520 519
3 518 519 521
3 491 518 521
3 508 522 517
3 507 522 508
3 507 515 522
3 514 513 523
3 514 523 524
3 524 525 514
3 524 526 525
3 527 526 524
3 527 524 528
3 524 529 528
3 524 523 529
3 519 520 530
3 531 530 520
3 532 530 531
3 532 533 530
3 531 520 534
3 534 520 516
3 534 516 517
3 535 530 533
3 519 530 535
3 535 533 536
3 514 525 511
3 25 537 26
3 25 538 537
3 537 538 539
3 537 539 540
3 540 539 541
3 540 541 542
3 543 545 544
3 543 546 545
3 545 546 547
3 545 547 548
3 548 547 549
3 548 549 481
3 478 481 549
3 478 549 550
3 478 550 512
3 512 550 513
3 49 551 56
3 49 552 551
3 551 552 553
3 551 553 554
3 554 553 555
3 554 555 556
3 557 559 558
3 557 560 559
3 559 560 561
3 559 561 562
3 562 561 563
3 562 563 564
3 472 564 563
3 472 563 565
3 472 566 564
3 472 482 566
3 566 482 567
3 568 566 567
3 568 569 566
3 570 569 568
3 570 571 569
3 572 571 570
3 572 573 571
3 472 565 476
3 476 565 479
3 482 489 567
3 574 576 575
3 574 577 576
3 575 576 578
3 575 578 579
3 579 578 522
3 579 522 515
3 19 581 580
3 19 18 581
3 580 581 582
3 580 582 583
3 583 582 584
3 583 584 585
3 586 588 587
3 586 589 588
3 587 588 590
3 587 590 591
3 591 590 490
3 591 490 592
3 491 592 490
3 491 521 592
3 470 471 477
3 501 488 593
3 593 488 484
3 593 484 485
3 594 22 20
3 595 594 20
3 595 20 21
3 596 594 595
3 596 597 594
3 598 597 596
3 598 596 599
3 480 495 475
3 62 78 73
3 57 62 73
3 57 73 60
3 600 602 601
3 600 603 602
3 602 604 601
3 602 605 604
3 605 606 604
3 605 607 606
3 608 610 609
3 608 611 610
3 612 609 610
3 612 613 609
3 612 614 613
3 612 615 614
3 615 616 614
3 615 617 616
3 618 620 619
3 618 621 620
3 622 619 620
3 622 623 619
3 622 624 623
3 622 625 624
3 604 625 622
3 604 606 625
3 606 626 625
3 606 627 626
3 628 626 627
3 628 629 626
3 625 626 629
3 607 627 606
3 607 628 627
3 625 629 624
3 622 601 604
3 622 620 601
3 621 601 620
3 621 600 601
3 630 632 631
3 630 633 632
3 631 632 634
3 631 634 635
3 636 633 630
3 636 637 633
3 638 640 639
3 638 641 640
3 636 631 635
3 636 630 631
3 642 644 643
3 642 645 644
3 643 644 646
3 643 646 647
3 648 645 642
3 648 649 645
3 650 652 651
3 650 653 652
3 648 643 647
3 648 642 643
3 654 656 655
3 654 657 656
3 655 656 658
3 655 658 659
3 660 657 654
3 660 661 657
3 662 664 663
3 662 665 664
3 660 655 659
3 660 654 655
3 666 668 667
3 666 669 668
3 670 666 667
3 670 671 666
3 672 674 673
3 672 675 674
3 676 675 672
3 676 677 675
3 678 680 679
3 678 681 680
3 680 682 679
3 680 683 682
3 679 684 678
3 679 685 684
3 682 685 679
3 681 686 680
3 680 686 683
3 687 683 686
3 687 686 688
3 681 689 686
3 688 690 687
3 691 687 690
3 691 692 687
3 687 692 682
3 687 682 683
3 693 692 691
3 693 691 694
3 688 695 690
3 688 696 695
3 688 697 696
3 688 689 697
3 688 686 689
3 698 693 694
3 698 699 693
