ply
format ascii 1.0
element vertex 314
property float x
property float y
property float z
property uchar red
property uchar green
property uchar blue
element face 358
property list uchar int vertex_index
end_header
0.30285 -0.45378 0 86 130 157
0.11113 -0.45383 0 86 130 157
0.11113 -0.45383 0.10724 86 130 157
0.30285 -0.45378 0.10724 86 130 157
0.33195 -0.41288 0 86 130 157
0.0818 -0.41281 0 86 130 157
0.0818 -0.41281 0.10724 86 130 157
0.33195 -0.41288 0.10724 86 130 157
0.3324 0.1038 0 86 130 157
0.3324 0.1038 0.10724 86 130 157
0.14501 -0.02799 0.10724 90 136 164
0.08226 0.10333 0.10724 90 136 164
0.14479 0.08829 0.10724 90 136 164
0.11242 0.14336 0.10724 90 136 164
0.30203 0.14321 0.10724 90 136 164
0.26987 0.08824 0.10724 90 136 164
0.3324 0.1038 0.10724 90 136 164
0.0818 -0.41281 0.10724 90 136 164
0.33195 -0.41288 0.10724 90 136 164
0.27008 -0.02804 0.10724 90 136 164
0.30285 -0.45378 0.10724 90 136 164
0.11113 -0.45383 0.10724 90 136 164
0.30203 0.14321 0.10724 86 130 157
0.11242 0.14336 0.10724 86 130 157
0.11242 0.14336 0 86 130 157
0.30203 0.14321 0 86 130 157
0.08226 0.10333 0.10724 86 130 157
0.08226 0.10333 0 86 130 157
0.14479 0.08829 0.10724 86 130 157
0.26987 0.08824 0.10724 86 130 157
0.26987 0.08824 0.20668 86 130 157
0.14479 0.08829 0.20668 86 130 157
0.27008 -0.02804 0.20668 86 130 157
0.27008 -0.02804 0.10724 86 130 157
0.14501 -0.02799 0.10724 86 130 157
0.14501 -0.02799 0.20668 86 130 157
0 -0.0159 1.36967 77 142 64
0.27611 -0.0159 1.77013 77 142 64
0.60591 -0.0159 1.5392 77 142 64
0.22813 -0.0159 0.96891 77 142 64
0.60591 0.09889 1.5392 77 142 64
0.22813 0.09889 0.96891 77 142 64
-0.22813 -0.0159 0.96891 77 142 64
-0.60591 -0.0159 1.5392 77 142 64
-0.27611 -0.0159 1.77013 77 142 64
0.22813 0.09889 0.85098 77 142 64
0.22829 -0.0159 0.85098 77 142 64
-0.22813 0.09889 0.96891 77 142 64
-0.22813 0.09889 0.85098 77 142 64
0 0.09889 1.36967 77 142 64
-0.27611 0.09889 1.77013 77 142 64
-0.60591 0.09889 1.5392 77 142 64
0.27611 0.09889 1.77013 77 142 64
-0.22812 -0.0159 0.85098 77 142 64
0.49711 -0.0159 2.01931 100 151 69
0.49711 0.09889 2.01931 100 151 69
0.76447 0.09889 1.8321 100 151 69
0.76447 -0.0159 1.8321 100 151 69
0.44042 -0.0159 2.00479 100 151 69
0.77022 -0.0159 1.77387 100 151 69
0.77022 0.09889 1.77387 100 151 69
0.44042 0.09889 2.00479 100 151 69
0.60591 0.09889 1.5392 100 151 69
0.27611 0.09889 1.77013 100 151 69
0.27611 -0.0159 1.77013 100 151 69
0.60591 -0.0159 1.5392 100 151 69
0 0.09889 1.36967 78 144 65
0.27611 0.09889 1.77013 78 144 65
0.27611 -0.0159 1.77013 78 144 65
0 -0.0159 1.36967 78 144 65
-0.27611 -0.0159 1.77013 78 144 65
-0.27611 0.09889 1.77013 78 144 65
0.44042 0.09889 2.00479 103 155 71
0.49711 0.09889 2.01931 103 155 71
0.49711 -0.0159 2.01931 103 155 71
0.44042 -0.0159 2.00479 103 155 71
0.27611 0.09889 1.77013 103 155 71
0.27611 -0.0159 1.77013 103 155 71
-0.49711 -0.0159 2.01931 100 151 69
-0.76447 -0.0159 1.8321 100 151 69
-0.76447 0.09889 1.8321 100 151 69
-0.49711 0.09889 2.01931 100 151 69
-0.44042 -0.0159 2.00479 100 151 69
-0.77022 -0.0159 1.77387 100 151 69
-0.77022 0.09889 1.77387 100 151 69
-0.44042 0.09889 2.00479 100 151 69
-0.60591 0.09889 1.5392 100 151 69
-0.27611 0.09889 1.77013 100 151 69
-0.27611 -0.0159 1.77013 100 151 69
-0.60591 -0.0159 1.5392 100 151 69
-0.44042 0.09889 2.00479 103 155 71
-0.44042 -0.0159 2.00479 103 155 71
-0.49711 -0.0159 2.01931 103 155 71
-0.49711 0.09889 2.01931 103 155 71
-0.27611 0.09889 1.77013 103 155 71
-0.27611 -0.0159 1.77013 103 155 71
0.22419 -0.1165 1.32827 82 147 69
0.22419 -0.1165 1.84609 82 147 69
0.22419 -0.00944 1.84609 82 147 69
0.22419 -0.00944 1.32827 82 147 69
-0.22419 -0.1165 1.32827 82 147 69
-0.30498 -0.1165 0.96879 82 147 69
0.30498 -0.1165 0.96879 82 147 69
0.70992 -0.1165 1.11765 82 147 69
0.56614 -0.1165 1.46143 82 147 69
0.70992 -0.00944 1.11765 82 147 69
0.30498 -0.00944 0.96879 82 147 69
-0.70992 -0.1165 1.11765 82 147 69
-0.56614 -0.1165 1.46143 82 147 69
-0.70992 -0.00944 1.11765 82 147 69
-0.30498 -0.00944 0.96879 82 147 69
-0.22419 -0.1165 1.84609 82 147 69
-0.22419 -0.00944 1.84609 82 147 69
-0.22419 -0.00944 1.32827 82 147 69
-0.30498 -0.1165 0.85098 82 147 69
0.30498 -0.1165 0.85098 82 147 69
0.30498 -0.00944 0.85098 82 147 69
-0.56614 -0.00944 1.46143 82 147 69
0.56614 -0.00944 1.46143 82 147 69
-0.30498 -0.00944 0.85098 82 147 69
0.93944 -0.1165 1.25173 105 156 74
0.82285 -0.1165 1.53105 105 156 74
0.82285 -0.00944 1.53105 105 156 74
0.93944 -0.00944 1.25173 105 156 74
0.91569 -0.1165 1.20374 105 156 74
0.91569 -0.00944 1.20374 105 156 74
0.77191 -0.00944 1.54752 105 156 74
0.70992 -0.00944 1.11765 105 156 74
0.56614 -0.00944 1.46143 105 156 74
0.22419 -0.00944 1.32827 84 150 70
0.56614 -0.00944 1.46143 84 150 70
0.56614 -0.1165 1.46143 84 150 70
0.22419 -0.1165 1.32827 84 150 70
0.22419 0.18415 2.18932 105 156 74
0.18074 0.23112 2.18929 105 156 74
0.18074 0.23105 2.07528 105 156 74
0.22419 0.18408 2.07528 105 156 74
-0.22419 0.18408 2.07528 105 156 74
-0.18074 0.23105 2.07528 105 156 74
-0.18074 0.23112 2.18929 105 156 74
-0.22419 0.18415 2.18932 105 156 74
0.22419 0.01805 2.07528 105 156 74
-0.22419 0.01805 2.07528 105 156 74
-0.22419 -0.07155 2.1894 105 156 74
0.22419 -0.00944 2.04889 105 156 74
-0.22419 -0.00944 2.04889 105 156 74
0.22419 -0.00944 1.84609 105 156 74
0.22419 -0.1165 1.84609 105 156 74
0.22419 -0.1165 2.15085 105 156 74
-0.22419 -0.00944 1.84609 105 156 74
-0.22419 -0.1165 1.84609 105 156 74
-0.22419 -0.1165 2.15085 105 156 74
0.22419 -0.07155 2.1894 105 156 74
0.77191 -0.00944 1.54752 109 161 76
0.82285 -0.00944 1.53105 109 161 76
0.82285 -0.1165 1.53105 109 161 76
0.77191 -0.1165 1.54752 109 161 76
0.56614 -0.00944 1.46143 109 161 76
0.56614 -0.1165 1.46143 109 161 76
0.77191 -0.1165 1.54752 105 156 74
0.56614 -0.1165 1.46143 105 156 74
0.70992 -0.1165 1.11765 105 156 74
-0.93944 -0.1165 1.25173 105 156 74
-0.93944 -0.00944 1.25173 105 156 74
-0.82285 -0.00944 1.53105 105 156 74
-0.82285 -0.1165 1.53105 105 156 74
-0.91569 -0.1165 1.20374 105 156 74
-0.91569 -0.00944 1.20374 105 156 74
-0.77191 -0.00944 1.54752 105 156 74
-0.70992 -0.00944 1.11765 105 156 74
-0.56614 -0.00944 1.46143 105 156 74
-0.22419 -0.00944 1.32827 84 150 70
-0.22419 -0.1165 1.32827 84 150 70
-0.56614 -0.1165 1.46143 84 150 70
-0.56614 -0.00944 1.46143 84 150 70
0.18074 0.23112 2.18929 109 161 76
0.22419 0.18415 2.18932 109 161 76
-0.22419 0.18415 2.18932 109 161 76
-0.18074 0.23112 2.18929 109 161 76
-0.22419 -0.07155 2.1894 109 161 76
0.22419 -0.07155 2.1894 109 161 76
-0.77191 -0.00944 1.54752 109 161 76
-0.77191 -0.1165 1.54752 109 161 76
-0.82285 -0.1165 1.53105 109 161 76
-0.82285 -0.00944 1.53105 109 161 76
-0.56614 -0.00944 1.46143 109 161 76
-0.56614 -0.1165 1.46143 109 161 76
-0.77191 -0.1165 1.54752 105 156 74
-0.56614 -0.1165 1.46143 105 156 74
-0.70992 -0.1165 1.11765 105 156 74
0.22419 -0.1165 2.15085 109 161 76
-0.22419 -0.1165 2.15085 109 161 76
-0.51942 -0.39805 0.23106 86 130 157
-0.51942 -0.39805 0.87665 86 130 157
-0.44957 -0.46857 0.87665 86 130 157
-0.44957 -0.46857 0.23106 86 130 157
-0.51942 0.39805 0.23106 86 130 157
-0.51942 0.39805 0.87665 86 130 157
-0.41136 -0.42442 0.91898 86 130 157
-0.47527 -0.35989 0.91898 86 130 157
-0.47527 0.35989 0.91898 86 130 157
-0.44957 0.46857 0.87665 86 130 157
-0.44957 0.46857 0.23106 86 130 157
0.44957 0.46857 0.87665 86 130 157
0.44957 0.46857 0.23106 86 130 157
0.51942 0.39805 0.87665 86 130 157
0.51942 0.39805 0.23106 86 130 157
-0.41136 0.42442 0.91898 86 130 157
0.41136 0.42442 0.91898 86 130 157
0.47527 0.35989 0.91898 86 130 157
-0.41211 0.42529 0.19306 86 130 157
-0.47613 0.36064 0.19306 86 130 157
0.47613 0.36064 0.19306 86 130 157
0.41211 0.42529 0.19306 86 130 157
0.47613 -0.36064 0.19306 86 130 157
0.51942 -0.39805 0.23106 86 130 157
0.41211 -0.42529 0.19306 86 130 157
0.44957 -0.46857 0.23106 86 130 157
0.44957 -0.46857 0.87665 86 130 157
0.07896 -0.46857 0.63987 86 130 157
0.07896 -0.46857 0.5498 86 130 157
0.51942 -0.39805 0.87665 86 130 157
0.47527 -0.35989 0.91898 86 130 157
0.41136 -0.42442 0.91898 86 130 157
-0.41211 -0.42529 0.19306 86 130 157
-0.47613 -0.36064 0.19306 86 130 157
-0.07896 -0.46857 0.63987 86 130 157
-0.07896 -0.46857 0.5498 86 130 157
0.47527 -0.35989 0.91898 90 136 164
0.41136 -0.42442 0.91898 90 136 164
-0.41136 -0.42442 0.91898 90 136 164
-0.47527 -0.35989 0.91898 90 136 164
0.47527 0.35989 0.91898 90 136 164
-0.47527 0.35989 0.91898 90 136 164
0.41136 0.42442 0.91898 90 136 164
-0.41136 0.42442 0.91898 90 136 164
-0.07896 -0.37967 0.5498 198 119 141
-0.07896 -0.37967 0.63987 198 119 141
0.07896 -0.37967 0.63987 198 119 141
0.07896 -0.37967 0.5498 198 119 141
-0.07896 -0.46857 0.5498 198 119 141
0.07896 -0.46857 0.5498 198 119 141
0.07896 -0.46857 0.63987 198 119 141
-0.07896 -0.46857 0.63987 198 119 141
0.12932 -0.49528 0.71139 245 162 151
0.12932 -0.49528 0.73505 245 162 151
0.17501 -0.49528 0.73505 245 162 151
0.17501 -0.49528 0.71139 245 162 151
0.12932 -0.49528 0.73505 209 115 103
0.12932 -0.46573 0.73505 209 115 103
0.17501 -0.46573 0.73505 209 115 103
0.17501 -0.49528 0.73505 209 115 103
0.17501 -0.49528 0.71139 209 115 103
0.17501 -0.49528 0.66673 209 115 103
0.17501 -0.46573 0.66673 209 115 103
0.12932 -0.46573 0.66673 209 115 103
0.12932 -0.49528 0.66673 209 115 103
0.12932 -0.49528 0.71139 209 115 103
-0.12932 -0.49528 0.71139 245 162 151
-0.17501 -0.49528 0.71139 245 162 151
-0.17501 -0.49528 0.73505 245 162 151
-0.12932 -0.49528 0.73505 245 162 151
-0.12932 -0.49528 0.73505 209 115 103
-0.17501 -0.49528 0.73505 209 115 103
-0.17501 -0.46573 0.73505 209 115 103
-0.12932 -0.46573 0.73505 209 115 103
-0.17501 -0.49528 0.71139 209 115 103
-0.17501 -0.46573 0.66673 209 115 103
-0.17501 -0.49528 0.66673 209 115 103
-0.12932 -0.46573 0.66673 209 115 103
-0.12932 -0.49528 0.66673 209 115 103
-0.12932 -0.49528 0.71139 209 115 103
-0.0849 -0.43127 0.54507 227 136 162
-0.0849 -0.43127 0.59233 227 136 162
0.0849 -0.43127 0.59233 227 136 162
0.0849 -0.43127 0.54507 227 136 162
0.0849 -0.37759 0.59233 227 136 162
-0.0849 -0.37759 0.59233 227 136 162
-0.30285 -0.45378 0 86 130 157
-0.30285 -0.45378 0.10724 86 130 157
-0.11113 -0.45383 0.10724 86 130 157
-0.11113 -0.45383 0 86 130 157
-0.33195 -0.41288 0 86 130 157
-0.0818 -0.41281 0 86 130 157
-0.0818 -0.41281 0.10724 86 130 157
-0.33195 -0.41288 0.10724 86 130 157
-0.3324 0.1038 0 86 130 157
-0.3324 0.1038 0.10724 86 130 157
-0.14501 -0.02799 0.10724 90 136 164
-0.14479 0.08829 0.10724 90 136 164
-0.08226 0.10333 0.10724 90 136 164
-0.11242 0.14336 0.10724 90 136 164
-0.30203 0.14321 0.10724 90 136 164
-0.26987 0.08824 0.10724 90 136 164
-0.3324 0.1038 0.10724 90 136 164
-0.0818 -0.41281 0.10724 90 136 164
-0.33195 -0.41288 0.10724 90 136 164
-0.27008 -0.02804 0.10724 90 136 164
-0.30285 -0.45378 0.10724 90 136 164
-0.11113 -0.45383 0.10724 90 136 164
-0.30203 0.14321 0.10724 86 130 157
-0.30203 0.14321 0 86 130 157
-0.11242 0.14336 0 86 130 157
-0.11242 0.14336 0.10724 86 130 157
-0.08226 0.10333 0.10724 86 130 157
-0.08226 0.10333 0 86 130 157
-0.14479 0.08829 0.10724 86 130 157
-0.14479 0.08829 0.20668 86 130 157
-0.26987 0.08824 0.20668 86 130 157
-0.26987 0.08824 0.10724 86 130 157
-0.27008 -0.02804 0.20668 86 130 157
-0.27008 -0.02804 0.10724 86 130 157
-0.14501 -0.02799 0.20668 86 130 157
-0.14501 -0.02799 0.10724 86 130 157
3 0 2 1
3 0 3 2
3 4 0 1
3 4 1 5
3 5 1 2
3 5 2 6
3 7 0 4
3 7 3 0
3 8 7 4
3 8 9 7
3 10 12 11
3 13 11 12
3 14 13 12
3 14 12 15
3 16 14 15
3 10 11 17
3 18 10 17
3 18 19 10
3 18 16 19
3 16 15 19
3 17 20 18
3 17 21 20
3 22 24 23
3 22 25 24
3 26 23 24
3 26 24 27
3 27 24 25
3 5 26 27
3 8 5 27
3 27 25 8
3 8 25 22
3 8 4 5
3 5 6 26
3 8 22 9
3 28 30 29
3 28 31 30
3 29 30 32
3 29 32 33
3 33 35 34
3 33 32 35
3 34 35 31
3 34 31 28
3 36 38 37
3 36 39 38
3 39 40 38
3 39 41 40
3 42 39 36
3 36 43 42
3 36 44 43
3 41 46 45
3 41 39 46
3 47 45 48
3 47 41 45
3 41 47 49
3 50 49 47
3 50 47 51
3 42 51 47
3 42 43 51
3 52 41 49
3 52 40 41
3 42 47 48
3 42 48 53
3 54 56 55
3 54 57 56
3 58 57 54
3 58 59 57
3 59 56 57
3 59 60 56
3 60 55 56
3 60 61 55
3 61 60 62
3 61 62 63
3 64 59 58
3 64 65 59
3 65 60 59
3 65 62 60
3 66 68 67
3 66 69 68
3 66 70 69
3 66 71 70
3 72 74 73
3 72 75 74
3 76 75 72
3 76 77 75
3 78 80 79
3 78 81 80
3 82 78 79
3 82 79 83
3 83 79 80
3 83 80 84
3 84 80 81
3 84 81 85
3 85 86 84
3 85 87 86
3 88 82 83
3 88 83 89
3 89 84 86
3 89 83 84
3 90 92 91
3 90 93 92
3 94 90 91
3 94 91 95
3 96 98 97
3 96 99 98
3 97 100 96
3 101 96 100
3 101 102 96
3 96 102 103
3 96 103 104
3 102 105 103
3 102 106 105
3 100 107 101
3 100 108 107
3 101 107 109
3 101 109 110
3 97 111 100
3 100 111 112
3 100 112 113
3 102 101 114
3 102 114 115
3 106 102 115
3 106 115 116
3 110 106 116
3 106 110 113
3 110 117 113
3 110 109 117
3 106 113 99
3 106 99 118
3 106 118 105
3 99 113 112
3 99 112 98
3 110 116 119
3 101 119 114
3 101 110 119
3 120 122 121
3 120 123 122
3 124 123 120
3 124 125 123
3 125 122 123
3 125 126 122
3 127 126 125
3 127 128 126
3 129 131 130
3 129 132 131
3 133 135 134
3 133 136 135
3 135 136 137
3 135 137 138
3 135 139 134
3 135 138 139
3 140 138 137
3 140 139 138
3 141 137 136
3 141 142 137
3 142 140 137
3 142 143 140
3 144 142 141
3 144 145 142
3 146 145 144
3 147 146 144
3 147 144 148
3 146 149 145
3 150 145 149
3 148 150 147
3 150 151 145
3 148 151 150
3 152 141 136
3 152 136 133
3 144 152 148
3 144 141 152
3 145 151 143
3 145 143 142
3 153 155 154
3 153 156 155
3 157 156 153
3 157 158 156
3 159 120 121
3 159 124 120
3 160 124 159
3 160 161 124
3 161 125 124
3 161 127 125
3 162 164 163
3 162 165 164
3 166 162 163
3 166 163 167
3 167 163 164
3 167 164 168
3 169 167 168
3 169 168 170
3 171 173 172
3 171 174 173
3 175 177 176
3 175 178 177
3 176 177 179
3 176 179 180
3 181 183 182
3 181 184 183
3 185 181 182
3 185 182 186
3 187 162 166
3 187 165 162
3 188 187 166
3 188 166 189
3 189 166 167
3 189 167 169
3 180 191 190
3 180 179 191
3 192 194 193
3 192 195 194
3 196 192 193
3 196 193 197
3 193 194 198
3 193 198 199
3 197 193 199
3 197 199 200
3 201 197 200
3 197 201 202
3 197 202 196
3 202 201 203
3 202 203 204
3 204 203 205
3 204 205 206
3 203 201 207
3 201 200 207
3 203 207 208
3 205 203 208
3 205 208 209
3 196 202 210
3 196 210 211
3 212 211 210
3 204 206 212
3 212 210 213
3 202 213 210
3 202 204 213
3 204 212 213
3 206 214 212
3 214 211 212
3 206 215 214
3 215 216 214
3 215 217 216
3 218 217 215
3 219 217 218
3 219 220 217
3 218 215 221
3 215 205 221
3 215 206 205
3 218 221 222
3 218 222 223
3 194 218 223
3 194 219 218
3 194 223 198
3 221 209 222
3 221 205 209
3 217 224 216
3 217 195 224
3 195 217 220
3 195 225 224
3 216 224 225
3 195 192 225
3 192 211 225
3 192 196 211
3 195 226 194
3 195 227 226
3 195 220 227
3 194 226 219
3 216 225 214
3 214 225 211
3 228 230 229
3 228 231 230
3 232 231 228
3 232 233 231
3 234 233 232
3 234 235 233
3 236 238 237
3 236 239 238
3 240 239 236
3 240 241 239
3 241 238 239
3 241 242 238
3 242 237 238
3 242 243 237
3 243 236 237
3 243 240 236
3 244 246 245
3 244 247 246
3 248 250 249
3 248 251 250
3 252 250 251
3 253 250 252
3 250 253 254
3 255 254 253
3 255 253 256
3 256 253 252
3 257 255 256
3 255 257 249
3 249 257 248
3 256 252 257
3 258 260 259
3 258 261 260
3 262 264 263
3 262 265 264
3 264 266 263
3 267 266 264
3 266 267 268
3 269 268 267
3 269 270 268
3 265 270 269
3 270 266 268
3 270 265 271
3 271 265 262
3 270 271 266
3 272 274 273
3 272 275 274
3 273 274 276
3 273 276 277
3 278 280 279
3 278 281 280
3 282 281 278
3 282 283 281
3 283 280 281
3 283 284 280
3 285 278 279
3 285 282 278
3 286 282 285
3 286 285 287
3 288 290 289
3 291 289 290
3 292 289 291
3 292 293 289
3 294 293 292
3 288 295 290
3 296 295 288
3 296 288 297
3 296 297 294
3 294 297 293
3 295 296 298
3 295 298 299
3 300 302 301
3 300 303 302
3 304 302 303
3 304 305 302
3 305 301 302
3 283 305 304
3 286 305 283
3 305 286 301
3 286 300 301
3 286 283 282
3 283 304 284
3 286 287 300
3 306 308 307
3 306 309 308
3 309 310 308
3 309 311 310
3 311 312 310
3 311 313 312
3 313 307 312
3 313 306 307
