mtllib Shellder.mtl
v 0 0.167946 -0.249602
vt 1 1
vn 0 -0.1921659 -0.9813625
v 0.171283 0.185816 -0.339065
vn -0.06219023 -0.9491394 -0.3086531
v 0.153096 0.166826 -0.255082
vn -0.0365107 -0.191445 -0.9808241
v 0 0.216242 -0.371377
vn 0 -0.9295643 -0.3686601
v 0.171283 0.116421 -0.325574
vn -0.05799602 0.7606102 -0.6466132
v -0.171283 0.185816 -0.339065
vn 0.06219023 -0.9491394 -0.3086531
v 0 0.0774522 -0.344395
vn 0 0.7233171 -0.6905161
v -0.153096 0.166826 -0.255082
vn 0.0365108 -0.191445 -0.9808241
v -0.171283 0.116421 -0.325574
vn 0.05799602 0.7606102 -0.6466132
v 0 0.0979212 0.220021
vt 0.271224 0.0928287
vn 0 -0.9378678 -0.3469929
v 0 0.159569 0.0484843
vn 0 0.8589027 -0.5121388
v 0.095486 0.112643 0.258896
vn 0.7961915 0.6006324 -0.07293835
v -0.095486 0.112643 0.258896
vn -0.7961915 0.6006324 -0.07293835
v 0.0713947 0.0780729 0.313708
vn 0.6921668 -0.6268078 0.3577949
v -0.0713947 0.0780729 0.313708
vn -0.6921668 -0.6268078 0.3577949
v 0 0.0534269 0.345
vn 0 -0.8721139 0.4893029
v -0.161251 0.283779 -0.132494
vt 0.793395 0.792503
vn -0.5008 0.6814809 -0.5336509
v -0.0996588 0.181214 -0.232153
vt 0.68418 0.975288
vn -0.351169 0.004726321 -0.9363002
v -0.212063 0.175134 -0.137505
vt 0.929442 0.766506
vn -0.8375187 -0.01694829 -0.5461458
v 0 0.264769 -0.209219
vt 0.507467 0.933224
vn 0 0.6520059 -0.7582139
v -0.267365 0.252778 0.0326888
vt 0.981555 0.489538
vn -0.850125 0.51451 -0.112103
v 0 0.361401 -0.0709016
vt 0.507467 0.679535
vn 0 0.9382334 -0.3460031
v -0.150716 0.36036 0.0336429
vt 0.774714 0.487788
vn -0.4093609 0.9115747 -0.03814818
v 0.161251 0.283779 -0.132494
vn 0.5008 0.6814809 -0.5336509
v 0.0996588 0.181214 -0.232153
vn 0.351169 0.004726291 -0.9363002
vt 0.330754 0.975288
v -0.221343 0.268873 0.253644
vt 0.899948 0.0705867
vn -0.4469801 0.8473903 0.2865981
v 0.150716 0.36036 0.0336429
vn 0.4093609 0.9115747 -0.03814809
v 0 0.381781 0.163482
vt 0.507467 0.249648
vn 0 0.9655597 0.2601819
v 0.212063 0.175134 -0.137505
vn 0.8375187 -0.01694829 -0.5461458
v 0.221343 0.268873 0.253644
vn 0.4469801 0.8473903 0.2865981
v 0.267365 0.252778 0.0326888
vn 0.850125 0.51451 -0.112103
v 0 0.300391 0.307061
vt 0.507467 0.0271124
vn 0 0.8699478 0.4931439
v -0.161251 0.0786479 -0.132494
vt 0.857616 0.96597
vn -0.517803 -0.6923299 -0.5025529
v -0.245782 0.143736 0.0123988
vn -0.8814253 -0.4376121 -0.1777221
v -0.150716 0.00206668 0.0300473
vn -0.3955181 -0.9182762 0.0182846
v 0 0.00102584 -0.0709016
vn 0 -0.9438757 -0.3303009
v 0 0.0976579 -0.209219
vn 0 -0.6520059 -0.7582139
v -0.221343 0.0765655 0.211312
vn -0.3752741 -0.9057392 0.196992
v -0.25567 0.209401 0.0975303
vn -0.9873543 -0.03513691 0.1545861
v 0.150716 0.00206668 0.0300473
vn 0.3955181 -0.9182762 0.0182846
v 0.161251 0.0786479 -0.132494
vn 0.517803 -0.6923299 -0.5025529
v 0 0.0407174 0.148202
vn 0 -0.9528942 0.3033031
v 0 0.0681521 0.266733
vn 0 -0.9742446 0.2254939
v 0.221343 0.0765655 0.211312
vn 0.3752741 -0.9057392 0.196992
v 0.245782 0.143736 0.0123988
vn 0.8814253 -0.4376121 -0.1777221
v 0.25567 0.209401 0.0975303
vn 0.9873543 -0.03513661 0.1545861
v -0.215342 0.154578 0.0963913
vt 0.97519 0.969787
vn -0.9709932 0.0170014 0.238502
v -0.216089 0.148003 0.0133535
vn -0.58555 -0.189287 0.7882269
v -0.148813 0.0920695 0.128378
vn -0.1642581 0.8066143 0.5677963
v -0.148813 0.295147 0.12989
vn 0.09744219 -0.8206629 0.563043
v -0.161538 0.155918 0.173031
vn -0.4116441 0.0103337 0.9112861
v 0 0.0799539 0.17871
vn 0 0.6920217 0.7218767
v 0 0.155918 0.183876
vn 0 0.09195293 0.9957634
v 0.161538 0.155918 0.173031
vn 0.4116441 0.0103337 0.9112861
v 0.148813 0.0920695 0.128378
vn 0.1642581 0.8066143 0.5677963
v 0.215342 0.154578 0.0963913
vn 0.9709932 0.0170013 0.238502
v 0.216089 0.148003 0.0133535
vn 0.58555 -0.189287 0.7882269
v 0.148813 0.295147 0.12989
vn -0.09744219 -0.8206629 0.563043
v 0 0.187686 -0.147918
vt 0.0595254 0.177888
vn 0 0.1924759 0.9813017
vt 0.461597 0.865752
vn -0.1746911 0.9735866 0.1470111
vt 0.418905 0.563531
vn -0.5806083 0.1571881 0.7988654
vt 0.0595254 0.982032
vn 0 0.9919338 0.126757
vt 0.461597 0.817202
vn -0.170045 -0.8469759 0.5037029
vt 0.0595254 0.884933
vt 0.0593598 0.177888
vt 0.461432 0.865752
vn 0.1746911 0.9735866 0.1470111
vt 0.0593598 0.982032
vt 0.418739 0.563531
vn 0.5806079 0.157188 0.7988657
vt 0.461432 0.817202
vn 0.170045 -0.8469759 0.5037029
vt 0.0593598 0.884933
vn 0.113797 0.7200319 0.6845469
vn 0.04795918 0.9734266 0.2239209
vn 0 0.9877331 0.156152
vn 0.4513151 -0.7521211 0.4802381
vn -0.04795918 0.9734266 0.2239209
vn 0.3042719 -0.9522867 -0.02384989
vn 0 -0.9915032 -0.130082
v 0 0.323636 0.156157
vn 0 -0.734143 0.678995
vn -0.1137971 0.7200323 0.6845463
vn -0.4513151 -0.7521211 0.4802381
vn -0.3042719 -0.9522867 -0.02384979
v 0.2265 0.004186 -0.0354742
vn 0.6471056 -0.7153755 -0.2636138
v 0.1871 0.0537864 0.0354364
vn 0.549462 -0.50985 0.661925
v 0.136258 0.0341346 -0.0360386
vn -0.271426 -0.8271441 -0.4920981
v 0.201474 0.0956229 -0.0428125
vn 0.7815369 0.165636 -0.6014689
v 0.256415 0.400713 -0.00686667
vn 0.5470358 0.8144757 -0.1933419
v 0.189124 0.310147 0.0679533
vn 0.2294581 0.5129041 0.8272112
v 0.22507 0.269054 -0.00345456
vn 0.869177 -0.218435 -0.443641
v 0.149848 0.317412 -0.0125725
vn -0.4695411 0.6421832 -0.6059141
v -0.2265 0.00418598 -0.0354742
vn -0.6471061 -0.7153751 -0.263614
v -0.136258 0.0341346 -0.0360386
vn 0.271426 -0.8271441 -0.4920981
v -0.1871 0.0537864 0.0354364
vn -0.5494622 -0.5098492 0.6619253
v -0.201474 0.0956229 -0.0428125
vn -0.7815369 0.165636 -0.6014689
v -0.256415 0.400713 -0.00686665
vn -0.5470358 0.8144757 -0.1933419
v -0.22507 0.269054 -0.00345454
vn -0.869177 -0.218435 -0.443641
v -0.189124 0.310147 0.0679533
vn -0.2294579 0.5129049 0.8272108
v -0.149848 0.317412 -0.0125725
vn 0.4695411 0.6421832 -0.6059141
v 0 0.134626 0.283547
vt 0.381833 0.09529
vn 0 0.9600402 0.279862
vt 0.203764 0.124898
vt 0.381833 0.37762
vt 0.248691 0.059065
vt 0.381833 0.02148
vt 0.38198 0.09529
vt 0.38198 0.37762
vt 0.20391 0.124898
vt 0.248837 0.059065
vt 0.38198 0.02148
vt 0.857616 0.948567
o merged_0_0_node
g polygon_0
usemtl lambert2_mat_id
f 1/1/1 2/1/2 3/1/3
f 1/1/1 4/1/4 2/1/2
f 1/1/1 3/1/3 5/1/5
f 1/1/1 6/1/6 4/1/4
f 1/1/1 5/1/5 7/1/7
f 1/1/1 8/1/8 6/1/6
f 1/1/1 7/1/7 9/1/9
f 1/1/1 9/1/9 8/1/8
f 10/2/10 11/2/11 12/2/12
f 10/2/10 13/2/13 11/2/11
f 10/2/10 12/2/12 14/2/14
f 10/2/10 15/2/15 13/2/13
f 10/2/10 14/2/14 16/2/16
f 10/2/10 16/2/16 15/2/15
f 17/3/17 18/4/18 19/5/19
f 17/3/17 20/6/20 18/4/18
f 17/3/17 19/5/19 21/7/21
f 17/3/17 22/8/22 20/6/20
f 17/3/17 21/7/21 23/9/23
f 17/3/17 23/9/23 22/8/22
f 20/6/20 22/8/22 24/3/24
f 20/6/20 24/3/24 25/4/25
f 20/6/20 25/4/25 18/10/18
f 21/7/21 26/11/26 23/9/23
f 22/8/22 27/9/27 24/3/24
f 22/8/22 23/9/23 28/12/28
f 22/8/22 28/12/28 27/9/27
f 23/9/23 26/11/26 28/12/28
f 25/4/25 24/3/24 29/5/29
f 27/9/27 28/12/28 30/11/30
f 27/9/27 31/7/31 24/3/24
f 27/9/27 30/11/30 31/7/31
f 31/7/31 29/5/29 24/3/24
f 26/11/26 32/13/32 28/12/28
f 28/12/28 32/13/32 30/11/30
f 33/14/33 34/14/34 19/14/19
f 33/14/33 35/14/35 34/14/34
f 33/14/33 19/14/19 18/14/18
f 33/14/33 36/14/36 35/14/35
f 33/14/33 18/14/18 37/14/37
f 33/14/33 37/14/37 36/14/36
f 34/14/34 35/14/35 38/14/38
f 34/14/34 39/14/39 21/14/21
f 18/14/18 25/14/25 37/14/37
f 36/14/36 40/14/40 35/14/35
f 36/14/36 37/14/37 41/14/41
f 36/14/36 41/14/41 40/14/40
f 37/14/37 25/14/25 41/14/41
f 38/14/38 35/14/35 42/14/42
f 38/14/38 42/14/42 43/14/43
f 35/14/35 40/14/40 42/14/42
f 39/14/39 26/14/26 21/14/21
f 25/14/25 29/14/29 41/14/41
f 43/14/43 42/14/42 44/14/44
f 42/14/42 40/14/40 44/14/44
f 29/14/29 45/14/45 41/14/41
f 40/14/40 45/14/45 44/14/44
f 40/14/40 41/14/41 45/14/45
f 45/14/45 31/14/31 46/14/46
f 31/14/31 30/14/30 46/14/46
f 47/15/47 48/15/48 49/15/49
f 47/15/47 50/15/50 48/15/48
f 47/15/47 49/15/49 51/15/51
f 47/15/47 51/15/51 50/15/50
f 49/15/49 52/15/52 51/15/51
f 52/15/52 53/15/53 51/15/51
f 52/15/52 54/15/54 53/15/53
f 52/15/52 55/15/55 54/15/54
f 55/15/55 56/15/56 54/15/54
f 55/15/55 57/15/57 56/15/56
f 54/15/54 56/15/56 58/15/58
f 58/15/58 56/15/56 57/15/57
f 59/16/59 6/17/60 8/18/61
f 59/16/59 4/19/62 6/17/60
f 59/16/59 8/18/61 9/20/63
f 59/16/59 9/20/63 7/21/16
f 59/22/59 2/23/64 4/24/62
f 59/22/59 3/25/65 2/23/64
f 59/22/59 5/26/66 3/25/65
f 59/22/59 7/27/16 5/26/66
f 49/14/49 34/14/67 38/14/68
f 49/14/49 48/14/48 34/14/67
f 49/14/49 38/14/68 43/14/69
f 49/14/49 43/14/69 52/14/52
f 48/14/48 39/14/70 34/14/67
f 48/14/48 50/14/50 39/14/70
f 43/14/69 55/14/55 52/14/52
f 43/14/69 44/14/71 55/14/55
f 50/14/50 26/14/72 39/14/70
f 50/14/50 32/14/73 26/14/72
f 50/14/50 60/14/74 32/14/73
f 44/14/71 45/14/75 55/14/55
f 60/14/74 58/14/58 32/14/73
f 45/14/75 57/14/57 55/14/55
f 45/14/75 46/14/76 57/14/57
f 57/14/57 46/14/76 58/14/58
f 32/14/73 58/14/58 30/14/77
f 30/14/77 58/14/58 46/14/76
f 61/1/78 62/1/79 63/1/80
f 61/1/78 64/1/81 62/1/79
f 61/1/78 63/1/80 64/1/81
f 65/1/82 66/1/83 67/1/84
f 65/1/82 68/1/85 66/1/83
f 65/1/82 67/1/84 68/1/85
f 69/1/86 70/1/87 71/1/88
f 69/1/86 72/1/89 70/1/87
f 69/1/86 71/1/88 72/1/89
f 73/1/90 74/1/91 75/1/92
f 73/1/90 76/1/93 74/1/91
f 73/1/90 75/1/92 76/1/93
f 77/28/94 12/29/12 11/30/11
f 77/28/94 14/31/14 12/29/12
f 77/28/94 16/32/16 14/31/14
f 77/33/94 11/34/11 13/35/13
f 77/33/94 13/35/13 15/36/15
f 77/33/94 15/36/15 16/37/16
f 19/38/19 34/38/34 21/38/21
f 29/38/29 31/38/31 45/38/45
vt 0.976117 0.777495
vt 0.0656419 0.777495
vt 0.0656419 1.03103
vt 0.904395 1.00512
o merged_1_0_node
g polygon_0
usemtl TEX_ANIM_EYE_mat_id
f 51/39/51 53/40/53 60/41/74
f 50/42/50 51/39/51 60/41/74
f 54/39/54 60/41/74 53/40/53
f 58/42/58 60/41/74 54/39/54
