mtllib Tangela.mtl
v 0.0147813 0.55726 -0.0350277
vt 0.025049 0.975418
vn -0.03423609 -0.9968157 -0.07201639
v -0.0916182 0.5676821 0.0161388
vn -0.9129636 -0.1668569 -0.3723658
v -0.0284049 0.6059951 -0.0625936
vn -0.7307513 0.2186691 -0.6466733
v -0.0799094 0.548373 0.112862
vn -0.368423 -0.809106 0.457834
v 0.0598917 0.5972531 -0.138921
vn -0.6339502 -0.116419 -0.7645612
v -0.0183501 0.574762 0.0890576
vn 0.6498309 0.06080449 0.7576429
v 0.100048 0.5491561 -0.106147
vn 0.160451 -0.9833839 -0.08492179
v 0.0448633 0.6068171 0.00545856
vn 0.6733092 0.2324831 0.7018592
v 0.117755 0.597183 -0.0573628
vn 0.7891871 -0.0535592 0.6118131
v -0.0615362 0.6234961 0.0614917
vn -0.3254802 0.8964065 0.3008622
v 0.133498 0.6087511 -0.19146
vn 0.6784999 0.207499 -0.7046859
v 0.0775988 0.6452801 -0.090137
vn 0.1305889 0.9844517 -0.11748
v 0.00167708 0.6555521 -0.0221074
vn -0.145305 0.988936 0.0298687
v -0.200422 0.5500801 0.0857859
vn -0.9265816 -0.2757409 0.2557609
v -0.154417 0.5135061 0.191813
vn -0.848534 -0.148301 0.507934
v -0.130324 0.5798301 0.187263
vn -0.22851 0.8145559 0.533181
v -0.0866509 0.4923031 0.229431
vn 0.4804939 -0.8200988 0.3107469
v -0.176329 0.6164041 0.0812358
vn -0.4089051 0.8880562 0.210126
v -0.138578 0.5259441 0.0614386
vn 0.293991 -0.9493131 -0.111238
v -0.198368 0.6075311 -0.0567463
vn -0.4804449 0.8768708 -0.0164399
v -0.224074 0.5424671 -0.0670337
vn -0.8653829 -0.5000399 0.0327489
v -0.114485 0.592268 0.0568886
vn 0.7992467 0.5899947 -0.114503
v -0.159775 0.5200821 -0.0861255
vn 0.3624431 -0.9117234 -0.1933791
v -0.0684801 0.5556951 0.162916
vn 0.9310214 0.3649631 -0.00107647
v -0.134069 0.5851461 -0.0758381
vn 0.9044347 0.3486539 -0.2458419
v -0.199076 0.5856091 -0.16954
vn -0.199403 0.223077 -0.9541882
v 0 0.08615553 -0.225985
vt 0.0796064 0.971967
vn 0 -0.7736208 -0.6336489
v 0.206392 0.1316471 -0.185627
vn 0.6450654 -0.4154903 -0.6412944
v 0.128871 0.05421063 -0.101878
vn 0.2890059 -0.8739946 -0.3906518
v 0 0.146733 -0.27395
vn 0 -0.3148339 -0.9491468
v 0 0.03089023 -0.114724
vn 0 -0.9694058 -0.2454639
v -0.206392 0.1316471 -0.185627
vn -0.645066 -0.41549 -0.641294
v -0.128871 0.05421063 -0.101878
vn -0.2890059 -0.8739946 -0.3906518
v 0.106069 0.3032711 -0.277693
vn 0.347935 0.05744909 -0.9357569
v 0.253283 0.3032711 -0.156538
vn 0.8683858 0.07871508 -0.4896019
v -0.106069 0.3032711 -0.277693
vn -0.347935 0.05744909 -0.9357569
v 0.176576 0.4748951 -0.171624
vn 0.5842441 0.5854721 -0.5620331
v 0.277693 0.197202 0
vt 0.527286 0.232314
vn 0.9945039 -0.104694 -0.00114297
v 0.253283 0.3032711 0.172593
vt -0.0916113 0.612666
vn 0.890027 0.0687988 0.450687
v 0.206392 0.1316471 0.185627
vt -0.13835 -0.00275609
vn 0.67359 -0.482731 0.559685
v 0.266069 0.40934 0
vt 0.527286 0.993017
v 0.2611 0.123594 0
vt 0.527286 -0.0316322
vn 0.8638604 -0.5037313 0
vt 1.08861 0.612666
vt 1.19292 -0.00275609
v 0.176576 0.4748951 0.171624
vt -0.0881356 1.22809
vn 0.5919639 0.646022 0.481907
vt 1.14271 1.22809
v 0 0.5809641 0.0942868
vt 0.062223 0.946909
vn 0 0.9335013 0.3585741
v 0.14714 0.556555 0
vn 0.5281402 0.8491572 0
v 0 0.5809641 -0.0942868
vn 0 0.9335013 -0.3585741
v -0.14714 0.556555 0
vn -0.5281402 0.8491572 0
v 0 0.4598091 0.253283
vn -3.205331E-05 0.6613401 0.7500861
v -0.176576 0.4748951 0.171624
vn -0.5919639 0.646022 0.481907
v -0.266069 0.40934 0
vn -0.9310214 0.3649631 -0.00107644
v -0.176576 0.4748951 -0.171624
vn -0.5842441 0.5854721 -0.5620331
v 0.107231 0.5204741 0.0211493
vn -0.3302049 -0.8992298 -0.2869679
v 0.169685 0.5510401 0.0340042
vn 0.9789039 -0.0121468 0.20396
v 0.130826 0.5336161 0.141943
vn 0.8782998 -0.2418389 0.4124359
v 0.152378 0.5427061 -0.0565466
vn 0.2663191 -0.143234 -0.9531832
v 0.0479731 0.5045781 0.192308
vn -0.3938641 -0.8718832 0.2910171
v 0.0781218 0.5841411 0.0111896
vn -0.742181 0.599724 -0.299163
v 0.0354146 0.5603681 0.155395
vn -0.8844246 0.4663198 -0.01841309
v 0.140576 0.6147071 0.0240445
vn 0.2670479 0.9630204 0.03573778
v 0.0977614 0.593367 0.160289
vn 0.1211851 0.9223594 0.3668342
v -0.278417 0.3999481 0.179497
vn -0.8059301 0.3132811 0.5023261
v -0.331849 0.4273601 0.0402666
vn -0.8750032 0.3478541 0.3367001
v -0.305858 0.365038 0.019281
vn -0.5480268 -0.8357237 -0.03510729
v -0.271472 0.458918 0.021326
vn 0.0830742 0.9956691 -0.0417334
v -0.250081 0.3383271 0.159499
vn -0.522426 -0.844746 0.116083
v -0.215994 0.431758 0.169926
vn 0.5453702 0.7979702 0.2565441
v -0.213155 0.3409231 0.212357
vn 0.9450833 -0.2697611 0.1845171
v -0.349662 0.4115911 -0.0464671
vn -0.4995182 0.09156053 -0.8614513
v -0.245481 0.3965951 0.000340337
vn 0.810397 -0.185031 -0.555896
v 0.310131 0.447668 0.0680907
vn 0.8385829 0.4821959 0.253507
v 0.198771 0.4774351 0.14455
vn -0.3408979 0.9370348 -0.07585759
v 0.254645 0.4548621 0.181545
vn 0.722436 0.443525 0.530445
v 0.256313 0.4695801 0.0277987
vn -0.05619189 0.9362959 -0.346688
v 0.236773 0.387871 0.167659
vn 0.287722 -0.860654 0.420108
v 0.329747 0.386526 -0.0279152
vn 0.5923651 -0.167935 -0.787973
v 0.291993 0.380444 0.0557593
vn 0.5580262 -0.7801143 0.2828931
v 0.165606 0.433212 0.199911
vn -0.9153554 -0.3426471 0.2114651
v 0.238175 0.402357 0.0154673
vn -0.7255399 -0.3883689 -0.568121
v 0.108942 0.465652 0.255061
vn 0.5972449 0.7955339 -0.1021
v 0.179488 0.322903 0.194746
vn 0.116318 0.103 -0.9878569
v 0.0582197 0.4401491 0.212908
vn -0.228974 0.155963 -0.9608572
v 0.23021 0.3484051 0.236899
vn 0.7781888 0.6193509 -0.104052
v 0.00231322 0.463775 0.270114
vn -0.9553568 -0.2571369 0.145513
v 0.201898 0.3139811 0.291793
vn 0.3915968 0.1244459 0.9116826
v 0.0806299 0.431228 0.309955
vn 0.08812361 0.162405 0.9827812
v 0.151175 0.288479 0.24964
vn -0.6325387 -0.7712137 0.07158328
v 0.263305 0.2243681 0.243233
vn 0.5908678 -0.7980237 -0.118463
v -0.144083 0.442031 0.258231
vn -0.641616 0.764911 -0.0569215
v -0.209557 0.301469 0.305119
vn -0.3393109 0.08261058 0.9370398
v -0.10541 0.4165291 0.311654
vn -0.03359019 0.1923889 0.9807437
v -0.248229 0.3269711 0.251696
vn -0.8038777 0.5885597 -0.08589686
v -0.0370548 0.440154 0.270114
vn 0.9795342 -0.1868721 0.07477711
v -0.207178 0.292547 0.205546
vn -0.1703991 0.05889653 -0.9836134
v -0.103032 0.407607 0.212081
vn 0.137638 0.150577 -0.9789701
v -0.168506 0.267045 0.258969
vn 0.63635 -0.767054 0.0817734
v -0.279435 0.220429 0.243045
vn -0.637167 -0.7705619 -0.0158938
v 0 0.4598091 -0.253283
vt 0.473503 0.480217
vn 0 0.5447899 -0.8385726
vt 1.11749 0.474351
vt 0.696214 1.08297
vt 0.679701 -0.0967566
vt -0.00857915 0.85155
vt 0.0032703 0.129828
v -0.253283 0.3032711 -0.156538
vt 0.510547 0.441268
vn -0.8683858 0.07871508 -0.4896019
vt 0.457772 1.03878
vt 1.04018 0.604686
vt -0.0886973 0.616569
v -0.277693 0.197202 0
vt 0.7996 -0.0441746
vn -0.9945039 -0.104694 -0.00114296
vt 0.110625 -0.0240839
v 0.18825 0.04998723 0
vt 0.0867278 0.948889
vn 0.6309238 -0.7758448 0
v 0.128871 0.05421063 0.101878
vn 0.2890059 -0.8739946 0.3906518
v -0.206392 0.1316471 0.185627
vn -0.67359 -0.482731 0.559685
v -0.18825 0.04998723 0
vn -0.6309243 -0.7758444 0
v -0.128871 0.05421063 0.101878
vn -0.2890059 -0.8739946 0.3906518
v -0.2611 0.123594 0
vn -0.8638604 -0.5037313 0
v -0.253283 0.3032711 0.172593
vn -0.890027 0.0687988 0.450687
vt 0.948625 0.0186987
o merged_0_0_node
g polygon_0
usemtl mat_moja3_mat_id
f 1/1/1 2/1/2 3/1/3
f 1/1/1 4/1/4 2/1/2
f 1/1/1 3/1/3 5/1/5
f 1/1/1 6/1/6 4/1/4
f 1/1/1 5/1/5 7/1/7
f 1/1/1 8/1/8 6/1/6
f 1/1/1 7/1/7 9/1/9
f 1/1/1 9/1/9 8/1/8
f 2/1/2 10/1/10 3/1/3
f 2/1/2 4/1/4 10/1/10
f 6/1/6 8/1/8 10/1/10
f 6/1/6 10/1/10 4/1/4
f 5/1/5 11/1/11 7/1/7
f 5/1/5 3/1/3 12/1/12
f 5/1/5 12/1/12 11/1/11
f 9/1/9 12/1/12 8/1/8
f 9/1/9 7/1/7 11/1/11
f 9/1/9 11/1/11 12/1/12
f 10/1/10 13/1/13 3/1/3
f 10/1/10 8/1/8 13/1/13
f 13/1/13 12/1/12 3/1/3
f 13/1/13 8/1/8 12/1/12
f 14/1/14 15/1/15 16/1/16
f 14/1/14 17/1/17 15/1/15
f 14/1/14 16/1/16 18/1/18
f 14/1/14 19/1/19 17/1/17
f 14/1/14 18/1/18 20/1/20
f 14/1/14 21/1/21 19/1/19
f 14/1/14 20/1/20 21/1/21
f 15/1/15 17/1/17 16/1/16
f 18/1/18 22/1/22 20/1/20
f 18/1/18 16/1/16 22/1/22
f 19/1/19 21/1/21 23/1/23
f 19/1/19 24/1/24 17/1/17
f 19/1/19 22/1/22 24/1/24
f 19/1/19 23/1/23 25/1/25
f 19/1/19 25/1/25 22/1/22
f 22/1/22 25/1/25 20/1/20
f 22/1/22 16/1/16 24/1/24
f 24/1/24 16/1/16 17/1/17
f 21/1/21 26/1/26 23/1/23
f 21/1/21 20/1/20 26/1/26
f 26/1/26 20/1/20 25/1/25
f 26/1/26 25/1/25 23/1/23
f 27/2/27 28/2/28 29/2/29
f 27/2/27 30/2/30 28/2/28
f 27/2/27 29/2/29 31/2/31
f 27/2/27 32/2/32 30/2/30
f 27/2/27 31/2/31 33/2/33
f 27/2/27 33/2/33 32/2/32
f 28/2/28 30/2/30 34/2/34
f 28/2/28 34/2/34 35/2/35
f 32/2/32 36/2/36 30/2/30
f 30/2/30 36/2/36 34/2/34
f 35/2/35 34/2/34 37/2/37
f 38/3/38 39/4/39 40/5/40
f 38/3/38 41/6/24 39/4/39
f 38/3/38 40/5/40 42/7/41
f 38/3/38 35/8/35 41/6/24
f 38/3/38 42/7/41 28/9/28
f 38/3/38 28/9/28 35/8/35
f 39/4/39 41/6/24 43/10/42
f 35/8/35 37/11/37 41/6/24
f 44/12/43 45/12/44 46/12/45
f 44/12/43 43/12/42 45/12/44
f 44/12/43 46/12/45 47/12/46
f 44/12/43 48/12/47 43/12/42
f 44/12/43 47/12/46 49/12/48
f 44/12/43 49/12/48 48/12/47
f 45/12/44 37/12/37 46/12/45
f 45/12/44 43/12/42 41/12/24
f 45/12/44 41/12/24 37/12/37
f 47/12/46 50/12/49 49/12/48
f 47/12/46 46/12/45 51/12/50
f 47/12/46 51/12/50 50/12/49
f 52/1/51 53/1/52 54/1/53
f 52/1/51 55/1/54 53/1/52
f 52/1/51 54/1/53 56/1/55
f 52/1/51 57/1/56 55/1/54
f 52/1/51 56/1/55 58/1/57
f 52/1/51 58/1/57 57/1/56
f 53/1/52 59/1/58 54/1/53
f 53/1/52 55/1/54 59/1/58
f 55/1/54 57/1/56 59/1/58
f 56/1/55 60/1/59 58/1/57
f 56/1/55 54/1/53 60/1/59
f 60/1/59 59/1/58 57/1/56
f 60/1/59 57/1/56 58/1/57
f 60/1/59 54/1/53 59/1/58
f 61/1/60 62/1/61 63/1/62
f 61/1/60 64/1/63 62/1/61
f 61/1/60 63/1/62 65/1/64
f 61/1/60 66/1/65 64/1/63
f 61/1/60 65/1/64 67/1/66
f 61/1/60 67/1/66 66/1/65
f 62/1/61 68/1/67 63/1/62
f 62/1/61 64/1/63 68/1/67
f 65/1/64 69/1/68 67/1/66
f 65/1/64 63/1/62 69/1/68
f 69/1/68 64/1/63 66/1/65
f 69/1/68 68/1/67 64/1/63
f 69/1/68 66/1/65 67/1/66
f 69/1/68 63/1/62 68/1/67
f 70/1/69 71/1/70 72/1/71
f 70/1/69 73/1/72 71/1/70
f 70/1/69 72/1/71 74/1/73
f 70/1/69 75/1/74 73/1/72
f 70/1/69 74/1/73 76/1/75
f 70/1/69 76/1/75 75/1/74
f 71/1/70 77/1/76 72/1/71
f 71/1/70 73/1/72 78/1/77
f 71/1/70 78/1/77 77/1/76
f 78/1/77 76/1/75 74/1/73
f 78/1/77 73/1/72 75/1/74
f 78/1/77 74/1/73 77/1/76
f 78/1/77 75/1/74 76/1/75
f 77/1/76 74/1/73 72/1/71
f 79/1/78 80/1/79 81/1/80
f 79/1/78 82/1/81 80/1/79
f 79/1/78 81/1/80 83/1/82
f 79/1/78 84/1/83 82/1/81
f 79/1/78 83/1/82 85/1/84
f 79/1/78 85/1/84 84/1/83
f 80/1/79 86/1/85 81/1/80
f 80/1/79 82/1/81 87/1/86
f 80/1/79 87/1/86 86/1/85
f 86/1/85 83/1/82 81/1/80
f 86/1/85 84/1/83 85/1/84
f 86/1/85 87/1/86 84/1/83
f 86/1/85 85/1/84 83/1/82
f 84/1/83 87/1/86 82/1/81
f 88/1/87 89/1/88 90/1/89
f 88/1/87 91/1/90 89/1/88
f 88/1/87 90/1/89 92/1/91
f 88/1/87 93/1/92 91/1/90
f 88/1/87 92/1/91 94/1/93
f 88/1/87 94/1/93 93/1/92
f 89/1/88 95/1/94 90/1/89
f 89/1/88 91/1/90 96/1/95
f 89/1/88 96/1/95 95/1/94
f 95/1/94 92/1/91 90/1/89
f 95/1/94 93/1/92 94/1/93
f 95/1/94 96/1/95 93/1/92
f 95/1/94 94/1/93 92/1/91
f 93/1/92 96/1/95 91/1/90
f 97/13/96 51/14/50 46/15/45
f 97/13/96 36/16/36 51/14/50
f 97/13/96 46/15/45 37/17/37
f 97/13/96 34/18/34 36/16/36
f 97/13/96 37/17/37 34/18/34
f 98/19/97 36/20/36 32/21/32
f 98/19/97 51/22/50 36/20/36
f 98/19/97 32/21/32 99/23/98
f 98/19/97 50/24/49 51/22/50
f 98/19/97 99/23/98 50/24/49
f 100/25/99 42/25/41 40/25/40
f 100/25/99 28/25/28 42/25/41
f 100/25/99 40/25/40 101/25/100
f 100/25/99 29/25/29 28/25/28
f 102/25/101 103/25/102 104/25/103
f 102/25/101 105/25/104 103/25/102
f 102/25/101 99/25/98 105/25/104
f 102/25/101 106/25/105 99/25/98
f 103/25/102 105/25/104 32/25/32
f 103/25/102 32/25/32 33/25/33
f 106/25/105 50/25/49 99/25/98
f 32/26/32 105/26/104 99/26/98
vt 0.0362719 0.97365
v 0 0.03089023 0
vn 0 -1 0
v 0 0.03089023 0.114724
vn 0 -0.9694058 0.2454639
v 0 0.08615553 0.225985
vn 0 -0.7736208 0.6336489
v 0 0.146733 0.27395
vn -5.350899E-05 -0.3969629 0.9178347
vt 0.0505049 0.96296
vt 0 0
v -0.138846 0.217471 0.240756
vt 0.131852 0.272507
vn -0.348546 -0.05132971 0.9358851
vt -0.121826 0.5
vt 0.5 0.0478272
v 0.138846 0.217471 0.240756
vt 0.868148 0.272507
vn 0.3486961 -0.05138281 0.9358263
v 6.48483E-05 0.217471 0.274031
vt 0.5 0.272507
vn 2.27373E-05 0.0357403 0.9993611
vt 1 0
vt 1.15598 0.5
vt 1 1
v 0.138846 0.3890911 0.234394
vt 0.868148 0.727553
vn 0.359104 0.161217 0.9192679
vt 0.5 0.952173
v 6.48483E-05 0.3890911 0.265488
vt 0.5 0.727553
vn 2.160179E-05 0.06479318 0.9978988
v -0.138846 0.3890911 0.234394
vt 0.131852 0.727553
vn -0.358946 0.161158 0.9193399
vt 0 1
o merged_1_0_node
g polygon_0
usemtl mat_kao2_mat_id
f 31/27/31 29/27/29 107/27/106
f 107/27/106 101/27/100 108/27/107
f 104/27/103 108/27/107 109/27/108
f 102/27/101 109/27/108 110/27/109
f 108/27/107 101/27/100 109/27/108
f 101/27/100 40/27/40 109/27/108
f 102/27/101 104/27/103 109/27/108
f 107/27/106 33/27/33 31/27/31
f 108/27/107 104/27/103 107/27/106
f 50/28/49 106/28/105 49/28/48
f 102/29/101 111/30/110 106/31/105
f 110/32/109 111/30/110 102/29/101
f 110/32/109 112/33/111 113/34/112
f 112/33/111 110/32/109 40/35/40
f 40/35/40 39/36/39 112/33/111
f 43/37/42 114/38/113 39/36/39
f 39/36/39 114/38/113 112/33/111
f 43/37/42 48/39/47 114/38/113
f 48/39/47 115/40/114 114/38/113
f 48/39/47 116/41/115 115/40/114
f 116/41/115 48/39/47 49/42/48
f 49/42/48 106/31/105 116/41/115
f 111/30/110 116/41/115 106/31/105
f 110/32/109 113/34/112 111/30/110
f 40/27/40 110/27/109 109/27/108
vt -0.681088 0.486503
v 0.114252 -0.0004668801 0
vt -0.681088 0.0477802
vn 0.0414183 -0.9991419 0
v -0.114252 -0.0004668801 0
vn -0.0414183 -0.9991419 0
o merged_2_0_node
g polygon_0
usemtl mat_asi_mat_id
f 100/43/99 117/44/116 29/43/29
f 107/43/106 29/43/29 117/44/116
f 100/43/99 101/43/100 117/44/116
f 117/44/116 101/43/100 107/43/106
f 103/43/102 33/43/33 118/44/117
f 118/44/117 33/43/33 107/43/106
f 103/43/102 118/44/117 104/43/103
f 107/43/106 104/43/103 118/44/117
vt 0 0.761253
vt 0 0.988776
vt 0.736296 0.761253
vt 0.736296 0.988776
o merged_3_0_node
g polygon_0
usemtl TEX_ANIM_EYE_mat_id
f 113/45/112 115/46/114 111/47/110
f 111/47/110 115/46/114 116/48/115
f 114/48/113 115/46/114 112/47/111
f 112/47/111 115/46/114 113/45/112
