ply
format ascii 1.0
element vertex 753
property float x
property float y
property float z
property uchar red
property uchar green
property uchar blue
element face 836
property list uchar int vertex_index
end_header
-0.24835 -0.81137 2.01413 253 248 210
-0.24835 -0.81137 2.09793 253 248 210
0.24835 -0.81137 2.09793 253 248 210
0.24835 -0.81137 2.01413 253 248 210
0.10581 -0.81137 2.01442 253 248 210
0.10581 -0.79585 2.01442 253 248 210
0.24835 -0.79585 2.01413 253 248 210
0.08145 -0.79585 1.89848 253 248 210
0.08145 -0.81137 1.8703 253 248 210
-0.08145 -0.81137 1.8703 253 248 210
-0.10581 -0.81137 2.01442 253 248 210
0.08145 -0.79585 1.8703 253 248 210
0.2242 -0.78112 2.15218 253 248 210
0.26062 -0.73578 2.15218 253 248 210
0.28989 -0.76195 2.09793 253 248 210
0.22294 -0.81137 1.8703 253 248 210
0.28989 -0.76195 1.8322 253 248 210
0.22363 -1.01584 1.8703 253 248 210
0.28989 -1.03751 1.8322 253 248 210
0.25516 -1.08796 1.83197 253 248 210
0.22605 -1.05525 1.8703 253 248 210
0.28989 -0.13355 2.09793 253 248 210
0.28989 -0.51218 1.54481 253 248 210
0.28989 -0.13355 1.21129 253 248 210
0.24524 -0.07955 2.09793 253 248 210
0.24524 -0.07955 1.21129 253 248 210
0.26062 -0.15925 2.15218 253 248 210
0.22118 -0.1097 2.15218 253 248 210
-0.24524 -0.07955 2.09793 253 248 210
-0.22118 -0.1097 2.15218 253 248 210
0.25612 -1.08775 1.54477 253 248 210
0.28989 -1.03766 1.54481 253 248 210
0.23534 -0.55009 1.50163 253 248 210
0.28989 -0.51218 1.10802 253 248 210
0.23495 -0.55009 1.10802 253 248 210
0.34188 -0.5496 1.05834 253 248 210
0.34188 -0.07955 1.1616 253 248 210
0.28984 0.63523 1.21129 253 248 210
0.34188 0.67287 1.1616 253 248 210
0.28985 0.72466 1.16161 253 248 210
0.25463 0.6729 1.21129 253 248 210
0.2898 -0.58223 1.05825 253 248 210
0.2898 -0.58223 0.64528 253 248 210
0.34188 -0.5496 0.64528 253 248 210
0.30792 -0.55009 0.58934 253 248 210
0.34188 0.67287 0.64528 253 248 210
0.30792 0.6729 0.58934 253 248 210
0.28985 0.72466 0.64528 253 248 210
-0.2898 -0.58223 0.64528 253 248 210
-0.30792 -0.55009 0.58934 253 248 210
-0.30792 0.6729 0.58934 253 248 210
-0.28985 0.72466 0.64528 253 248 210
-0.28985 0.72466 1.16161 253 248 210
-0.25463 0.6729 1.21129 253 248 210
-0.2898 -0.58223 1.05825 253 248 210
-0.23495 -0.55009 1.10802 253 248 210
-0.23534 -0.55009 1.50163 253 248 210
0.23535 -0.98944 1.50163 253 248 210
0.20167 -1.03985 1.50163 253 248 210
-0.23535 -0.98944 1.50163 253 248 210
-0.20167 -1.03985 1.50163 253 248 210
-0.28989 -1.03766 1.54481 253 248 210
-0.25612 -1.08775 1.54477 253 248 210
-0.28989 -1.03751 1.8322 253 248 210
-0.28989 -0.76195 1.8322 253 248 210
-0.22363 -1.01584 1.8703 253 248 210
-0.22294 -0.81137 1.8703 253 248 210
-0.25516 -1.08796 1.83197 253 248 210
-0.22605 -1.05525 1.8703 253 248 210
-0.28989 -0.51218 1.54481 253 248 210
-0.28989 -0.13355 2.09793 253 248 210
-0.28989 -0.13355 1.21129 253 248 210
-0.24524 -0.07955 1.21129 253 248 210
-0.28989 -0.76195 2.09793 253 248 210
-0.26062 -0.15925 2.15218 253 248 210
-0.26062 -0.73578 2.15218 253 248 210
-0.2242 -0.78112 2.15218 253 248 210
-0.28989 -0.51218 1.10802 253 248 210
-0.34188 -0.5496 1.05834 253 248 210
-0.34188 -0.07955 1.1616 253 248 210
-0.34188 -0.5496 0.64528 253 248 210
-0.34188 0.67287 0.64528 253 248 210
-0.34188 0.67287 1.1616 253 248 210
-0.28984 0.63523 1.21129 253 248 210
0.24835 -0.79585 2.01413 26 11 8
0.2312 -0.79585 1.89848 26 11 8
0.08145 -0.79585 1.89848 26 11 8
0.10581 -0.79585 2.01442 26 11 8
0.08145 -0.81137 1.8703 249 245 221
0.08145 -0.79585 1.8703 249 245 221
0.22294 -0.79585 1.8703 249 245 221
0.22294 -0.81137 1.8703 249 245 221
0.22363 -1.01584 1.8703 249 245 221
-0.08145 -0.81137 1.8703 249 245 221
-0.22363 -1.01584 1.8703 249 245 221
-0.22294 -0.81137 1.8703 249 245 221
-0.22294 -0.79585 1.8703 249 245 221
-0.08145 -0.79585 1.8703 249 245 221
0.22605 -1.05525 1.8703 249 245 221
-0.22605 -1.05525 1.8703 249 245 221
0.2312 -0.79585 1.89848 253 248 210
0.22294 -0.79585 1.8703 253 248 210
0.2312 -0.79585 1.89848 74 59 42
0.22294 -0.79585 1.8703 74 59 42
0.08145 -0.79585 1.8703 74 59 42
0.08145 -0.79585 1.89848 74 59 42
0.12526 -0.80375 1.9699 253 248 245
0.12526 -0.80375 2.01692 253 248 245
0.17465 -0.80375 2.0187 253 248 245
0.17465 -0.80375 1.9699 253 248 245
0.17465 -0.79173 2.0187 253 248 245
0.12526 -0.79173 2.01692 253 248 245
0.12526 -0.79173 1.9699 253 248 245
0.17465 -0.79173 1.9699 253 248 245
-0.24835 -0.79585 2.01413 26 11 8
-0.10581 -0.79585 2.01442 26 11 8
-0.08145 -0.79585 1.89848 26 11 8
-0.2312 -0.79585 1.89848 26 11 8
-0.10581 -0.79585 2.01442 253 248 210
-0.24835 -0.79585 2.01413 253 248 210
-0.08145 -0.79585 1.89848 253 248 210
-0.08145 -0.79585 1.8703 253 248 210
-0.2312 -0.79585 1.89848 253 248 210
-0.22294 -0.79585 1.8703 253 248 210
-0.2312 -0.79585 1.89848 74 59 42
-0.08145 -0.79585 1.89848 74 59 42
-0.08145 -0.79585 1.8703 74 59 42
-0.22294 -0.79585 1.8703 74 59 42
-0.12526 -0.80375 1.9699 253 248 245
-0.17465 -0.80375 1.9699 253 248 245
-0.17465 -0.80375 2.0187 253 248 245
-0.12526 -0.80375 2.01692 253 248 245
-0.17465 -0.79173 2.0187 253 248 245
-0.12526 -0.79173 2.01692 253 248 245
-0.12526 -0.79173 1.9699 253 248 245
-0.17465 -0.79173 1.9699 253 248 245
0.1321 -0.44037 -4.87191E-18 70 102 144
0.1321 -0.44037 0.11552 70 102 144
0.27732 -0.44037 0.11552 70 102 144
0.27732 -0.44037 -1.29333E-17 70 102 144
0.11203 -0.41433 0 70 102 144
0.29739 -0.41433 0 70 102 144
0.11203 -0.25311 0 70 102 144
0.29739 -0.25311 0 70 102 144
0.29739 -0.25311 0.11552 70 102 144
0.29739 -0.41433 0.11552 70 102 144
0.27695 -0.21986 4.08987E-19 70 102 144
0.27695 -0.21986 0.11552 70 102 144
0.13246 -0.21986 0.11552 70 102 144
0.13246 -0.21986 -5.38198E-18 70 102 144
0.11203 -0.25311 0.11552 70 102 144
0.11203 -0.41433 0.11552 70 102 144
0.13246 -0.21986 0.60294 253 248 210
0.13246 -0.21986 0.11552 253 248 210
0.27695 -0.21986 0.11552 253 248 210
0.27695 -0.21986 0.60294 253 248 210
0.29739 -0.25311 0.60294 253 248 210
0.29739 -0.25311 0.11552 253 248 210
0.29739 -0.41433 0.11552 253 248 210
0.29739 -0.41433 0.60294 253 248 210
0.27732 -0.44037 0.60294 253 248 210
0.27732 -0.44037 0.11552 253 248 210
0.1321 -0.44037 0.11552 253 248 210
0.1321 -0.44037 0.60294 253 248 210
0.11203 -0.41433 0.60294 253 248 210
0.11203 -0.41433 0.11552 253 248 210
0.11203 -0.25311 0.11552 253 248 210
0.11203 -0.25311 0.60294 253 248 210
0.1321 0.37611 -1.35441E-18 70 102 144
0.1321 0.37611 0.11552 70 102 144
0.27732 0.37611 0.11552 70 102 144
0.27732 0.37611 -3.59549E-18 70 102 144
0.11203 0.40214 0 70 102 144
0.29739 0.40214 0 70 102 144
0.11203 0.56337 0 70 102 144
0.29739 0.56337 0 70 102 144
0.29739 0.56337 0.11552 70 102 144
0.29739 0.40214 0.11552 70 102 144
0.27695 0.59662 -6.66066E-19 70 102 144
0.27695 0.59662 0.11552 70 102 144
0.13246 0.59662 0.11552 70 102 144
0.13246 0.59662 -6.66066E-19 70 102 144
0.11203 0.56337 0.11552 70 102 144
0.11203 0.40214 0.11552 70 102 144
0.13246 0.59662 0.60294 253 248 210
0.13246 0.59662 0.11552 253 248 210
0.27695 0.59662 0.11552 253 248 210
0.27695 0.59662 0.60294 253 248 210
0.29739 0.56337 0.60294 253 248 210
0.29739 0.56337 0.11552 253 248 210
0.29739 0.40214 0.11552 253 248 210
0.29739 0.40214 0.60294 253 248 210
0.27732 0.37611 0.60294 253 248 210
0.27732 0.37611 0.11552 253 248 210
0.1321 0.37611 0.11552 253 248 210
0.1321 0.37611 0.60294 253 248 210
0.11203 0.40214 0.60294 253 248 210
0.11203 0.40214 0.11552 253 248 210
0.11203 0.56337 0.11552 253 248 210
0.11203 0.56337 0.60294 253 248 210
-0.1321 -0.44037 -5.72306E-18 70 102 144
-0.27732 -0.44037 -5.72306E-18 70 102 144
-0.27732 -0.44037 0.11552 70 102 144
-0.1321 -0.44037 0.11552 70 102 144
-0.11203 -0.41433 0 70 102 144
-0.11203 -0.41433 0.11552 70 102 144
-0.11203 -0.25311 0 70 102 144
-0.11203 -0.25311 0.11552 70 102 144
-0.13246 -0.21986 -8.88178E-18 70 102 144
-0.13246 -0.21986 0.11552 70 102 144
-0.27695 -0.21986 -8.88178E-18 70 102 144
-0.27695 -0.21986 0.11552 70 102 144
-0.29739 -0.25311 0 70 102 144
-0.29739 -0.25311 0.11552 70 102 144
-0.29739 -0.41433 0 70 102 144
-0.29739 -0.41433 0.11552 70 102 144
-0.13246 -0.21986 0.60294 253 248 210
-0.27695 -0.21986 0.60294 253 248 210
-0.27695 -0.21986 0.11552 253 248 210
-0.13246 -0.21986 0.11552 253 248 210
-0.11203 -0.25311 0.60294 253 248 210
-0.11203 -0.25311 0.11552 253 248 210
-0.11203 -0.41433 0.60294 253 248 210
-0.11203 -0.41433 0.11552 253 248 210
-0.1321 -0.44037 0.60294 253 248 210
-0.1321 -0.44037 0.11552 253 248 210
-0.27732 -0.44037 0.60294 253 248 210
-0.27732 -0.44037 0.11552 253 248 210
-0.29739 -0.41433 0.11552 253 248 210
-0.29739 -0.25311 0.11552 253 248 210
-0.29739 -0.25311 0.60294 253 248 210
-0.29739 -0.41433 0.60294 253 248 210
-0.1321 0.37611 -1.23993E-17 70 102 144
-0.27732 0.37611 -1.82196E-17 70 102 144
-0.27732 0.37611 0.11552 70 102 144
-0.1321 0.37611 0.11552 70 102 144
-0.11203 0.40214 0 70 102 144
-0.11203 0.40214 0.11552 70 102 144
-0.11203 0.56337 0 70 102 144
-0.11203 0.56337 0.11552 70 102 144
-0.13246 0.59662 0 70 102 144
-0.13246 0.59662 0.11552 70 102 144
-0.27695 0.59662 0 70 102 144
-0.27695 0.59662 0.11552 70 102 144
-0.29739 0.56337 0 70 102 144
-0.29739 0.56337 0.11552 70 102 144
-0.29739 0.40214 0 70 102 144
-0.29739 0.40214 0.11552 70 102 144
-0.13246 0.59662 0.60294 253 248 210
-0.27695 0.59662 0.60294 253 248 210
-0.27695 0.59662 0.11552 253 248 210
-0.13246 0.59662 0.11552 253 248 210
-0.11203 0.56337 0.60294 253 248 210
-0.11203 0.56337 0.11552 253 248 210
-0.11203 0.40214 0.60294 253 248 210
-0.11203 0.40214 0.11552 253 248 210
-0.1321 0.37611 0.60294 253 248 210
-0.1321 0.37611 0.11552 253 248 210
-0.27732 0.37611 0.60294 253 248 210
-0.27732 0.37611 0.11552 253 248 210
-0.29739 0.40214 0.11552 253 248 210
-0.29739 0.56337 0.11552 253 248 210
-0.29739 0.56337 0.60294 253 248 210
-0.29739 0.40214 0.60294 253 248 210
-0.17602 -1.0692 1.57199 206 157 178
-0.17602 -1.0692 1.60944 206 157 178
0.17602 -1.0692 1.60944 206 157 178
0.17602 -1.0692 1.57199 206 157 178
0.17602 -1.02349 1.60944 206 157 178
-0.17602 -1.02349 1.60944 206 157 178
0.19505 -0.64735 2.47286 244 191 0
0.19505 -0.64735 2.06391 244 191 0
0.08801 -0.64735 2.06391 244 191 0
0.08801 -0.64735 2.35659 244 191 0
0.08801 -0.84271 2.06391 244 191 0
0.08801 -0.84271 2.326 244 191 0
0.08801 -0.8049 2.35659 244 191 0
0.19505 -0.37937 2.29381 244 191 0
0.19505 -0.37937 2.06391 244 191 0
0.19505 -0.11287 2.49974 244 191 0
0.19505 -0.11287 2.29381 244 191 0
0.125 -0.11287 2.49974 244 191 0
0.125 -0.11287 2.29381 244 191 0
0.19505 -0.61293 2.49974 244 191 0
0.07523 -0.84271 2.04749 244 191 0
0.07523 -0.64735 2.04749 244 191 0
-0.07523 -0.64735 2.04749 244 191 0
-0.07523 -0.84271 2.04749 244 191 0
-0.08801 -0.84271 2.06391 244 191 0
-0.08801 -0.64735 2.06391 244 191 0
-0.08801 -0.84271 2.326 244 191 0
-0.08801 -0.64735 2.35659 244 191 0
-0.08801 -0.8049 2.35659 244 191 0
-0.19505 -0.64735 2.47286 244 191 0
-0.19505 -0.64735 2.06391 244 191 0
-0.19505 -0.37937 2.29381 244 191 0
-0.19505 -0.11287 2.49974 244 191 0
-0.19505 -0.61293 2.49974 244 191 0
-0.19505 -0.37937 2.06391 244 191 0
-0.19505 -0.11287 2.29381 244 191 0
-0.125 -0.11287 2.29381 244 191 0
-0.125 -0.11287 2.49974 244 191 0
0.19505 -0.64735 2.47286 252 197 0
-0.19505 -0.64735 2.47286 252 197 0
-0.19505 -0.61293 2.49974 252 197 0
0.19505 -0.61293 2.49974 252 197 0
-0.19505 -0.11287 2.49974 252 197 0
-0.125 -0.35926 2.49974 252 197 0
-0.125 -0.11287 2.49974 252 197 0
-0.19505 -0.11284 2.06391 228 102 51
-0.19505 -0.11287 2.29381 228 102 51
-0.19505 -0.37937 2.29381 228 102 51
-0.19505 -0.37937 2.06391 228 102 51
-0.125 -0.11284 2.06391 228 102 51
-0.125 -0.11287 2.29381 228 102 51
-0.125 0.15392 2.06391 228 102 51
0.125 -0.11284 2.06391 228 102 51
0.125 0.15392 2.06391 228 102 51
0.125 0.19833 2.11779 228 102 51
-0.125 0.19833 2.11779 228 102 51
-0.125 -0.11287 2.49974 228 102 51
-0.125 0.19833 2.662 228 102 51
-0.075 0.19833 2.61438 228 102 51
-0.075 0.19833 2.43225 228 102 51
0.075 0.19833 2.61438 228 102 51
0.125 0.19833 2.662 228 102 51
0.075 0.19833 2.43225 228 102 51
0.125 -0.11287 2.49974 228 102 51
0.125 -0.11287 2.29381 228 102 51
0.19505 -0.11287 2.29381 228 102 51
0.19505 -0.11284 2.06391 228 102 51
0.19505 -0.37937 2.06391 228 102 51
0.19505 -0.37937 2.29381 228 102 51
0.125 -0.32056 2.6887 228 102 51
0.125 0.16995 2.6887 228 102 51
0.075 0.34117 2.43225 228 102 51
0.125 -0.35926 2.65498 228 102 51
0.125 -0.35926 2.49974 228 102 51
-0.125 -0.35926 2.49974 228 102 51
-0.125 -0.35926 2.65498 228 102 51
0.075 0.34117 2.61438 228 102 51
0.05846 0.37137 2.45075 228 102 51
-0.05846 0.37137 2.45075 228 102 51
-0.075 0.34117 2.43225 228 102 51
-0.05846 0.37137 2.59589 228 102 51
0.05846 0.37137 2.59589 228 102 51
-0.075 0.34117 2.61438 228 102 51
0.125 0.19833 2.662 243 109 54
0.125 0.16995 2.6887 243 109 54
-0.125 0.16995 2.6887 243 109 54
-0.125 0.19833 2.662 243 109 54
-0.125 -0.32056 2.6887 228 102 51
-0.125 0.16995 2.6887 228 102 51
0.08801 -0.8049 2.35659 252 197 0
0.08801 -0.84271 2.326 252 197 0
-0.08801 -0.84271 2.326 252 197 0
-0.08801 -0.8049 2.35659 252 197 0
0.08801 -0.64735 2.35659 252 197 0
-0.08801 -0.64735 2.35659 252 197 0
0.125 -0.35926 2.65498 243 109 54
-0.125 -0.35926 2.65498 243 109 54
-0.125 -0.32056 2.6887 243 109 54
0.125 -0.32056 2.6887 243 109 54
-0.075 0.19833 2.61438 243 109 54
-0.075 0.34117 2.61438 243 109 54
0.075 0.34117 2.61438 243 109 54
0.075 0.19833 2.61438 243 109 54
0.05846 0.37137 2.59589 243 109 54
-0.05846 0.37137 2.59589 243 109 54
0.125 -0.35926 2.49974 252 197 0
0.125 -0.11287 2.49974 252 197 0
0.19505 -0.11287 2.49974 252 197 0
-0.14185 -0.09078 1.99245 228 102 51
-0.14185 -0.00195 1.99245 228 102 51
0.14185 -0.00195 1.99245 228 102 51
0.14185 -0.09078 1.99245 228 102 51
-0.14185 -0.00195 1.30588 228 102 51
-0.14185 -0.09078 1.2047 228 102 51
-0.14185 0.64176 1.2047 228 102 51
-0.14185 0.64176 1.30588 228 102 51
-0.06923 -0.00195 1.93167 228 102 51
0.07092 -0.00195 1.93167 228 102 51
0.14185 -0.00195 1.30588 228 102 51
0.14185 -0.09078 1.2047 228 102 51
0.14185 0.64176 1.2047 228 102 51
0.14185 0.64176 1.30588 228 102 51
0.07092 -0.00195 1.30588 228 102 51
-0.06923 -0.00195 1.30588 228 102 51
-0.14185 -0.00195 1.30588 243 109 54
-0.14185 0.64176 1.30588 243 109 54
-0.06923 0.57413 1.30588 243 109 54
-0.06923 -0.00195 1.30588 243 109 54
-0.06923 0.57413 1.39004 252 197 0
0.07092 0.57413 1.39004 252 197 0
0.07092 0.08708 1.39004 252 197 0
-0.06923 0.08708 1.39004 252 197 0
0.07092 0.57413 1.30588 243 109 54
0.14185 0.64176 1.30588 243 109 54
0.14185 -0.00195 1.30588 243 109 54
0.07092 -0.00195 1.30588 243 109 54
0.07092 0.08708 1.93167 244 191 0
-0.06923 0.08708 1.93167 244 191 0
-0.06923 0.08708 1.39004 244 191 0
0.07092 0.08708 1.39004 244 191 0
-0.06923 -0.00195 1.30588 244 191 0
-0.06923 0.57413 1.30588 244 191 0
-0.06923 0.57413 1.39004 244 191 0
0.07092 0.57413 1.30588 244 191 0
0.07092 0.57413 1.39004 244 191 0
-0.06923 -0.00195 1.93167 244 191 0
0.07092 -0.00195 1.30588 244 191 0
0.07092 -0.00195 1.93167 244 191 0
0.19505 0.76873 1.44797 244 191 0
0.19505 0.76873 1.00237 244 191 0
0.08801 0.76873 1.00237 244 191 0
0.08801 0.76873 1.18234 244 191 0
0.19505 0.97328 1.00237 244 191 0
0.19505 0.97328 1.26476 244 191 0
0.08801 0.67011 1.00237 244 191 0
0.08801 0.67011 1.18234 244 191 0
-0.19505 0.97328 1.00237 244 191 0
-0.08801 0.76873 1.00237 244 191 0
-0.19505 0.76873 1.00237 244 191 0
-0.19505 0.97328 1.26476 244 191 0
-0.19505 0.76873 1.44797 244 191 0
-0.19505 0.79899 1.47911 244 191 0
-0.08801 0.76873 1.18234 244 191 0
-0.08801 0.67011 1.00237 244 191 0
-0.08801 0.67011 1.18234 244 191 0
-0.19505 1.14791 1.47911 244 191 0
-0.19505 1.14791 1.26476 244 191 0
-0.125 1.14791 1.26476 244 191 0
-0.125 1.14791 1.47911 244 191 0
0.19505 0.76873 1.44797 252 197 0
-0.19505 0.76873 1.44797 252 197 0
-0.19505 0.79899 1.47911 252 197 0
0.19505 0.79899 1.47911 252 197 0
-0.19505 1.14791 1.47911 252 197 0
-0.125 1.14791 1.47911 252 197 0
-0.125 0.89914 1.47911 252 197 0
-0.19505 0.97328 1.00237 228 102 51
-0.125 1.14791 1.00237 228 102 51
-0.19505 1.14791 1.00237 228 102 51
-0.19505 0.97328 1.26476 228 102 51
-0.19505 1.14791 1.26476 228 102 51
-0.125 1.14791 1.26476 228 102 51
-0.125 1.3345 1.00237 228 102 51
0.125 1.14791 1.00237 228 102 51
0.125 1.3345 1.00237 228 102 51
0.125 1.37891 1.05625 228 102 51
-0.125 1.37891 1.05625 228 102 51
-0.125 1.14791 1.47911 228 102 51
-0.125 1.37891 1.61284 228 102 51
0.19505 0.97328 1.00237 228 102 51
0.19505 1.14791 1.00237 228 102 51
0.19505 1.14791 1.26476 228 102 51
0.125 1.14791 1.26476 228 102 51
0.19505 0.97328 1.26476 228 102 51
0.125 1.14791 1.47911 228 102 51
0.125 1.37891 1.61284 228 102 51
0.125 0.93345 1.63954 228 102 51
0.125 1.35053 1.63954 228 102 51
-0.125 1.35053 1.63954 228 102 51
0.125 0.89914 1.60938 228 102 51
0.125 0.89914 1.47911 228 102 51
-0.125 0.89914 1.47911 228 102 51
-0.125 0.89914 1.60938 228 102 51
-0.125 0.93345 1.63954 228 102 51
0.125 1.37891 1.61284 243 109 54
0.125 1.35053 1.63954 243 109 54
-0.125 1.35053 1.63954 243 109 54
-0.125 1.37891 1.61284 243 109 54
0.06875 1.31855 1.63954 243 109 54
-0.06875 1.31855 1.63954 243 109 54
0.06875 1.16206 1.63954 243 109 54
0.125 0.93345 1.63954 243 109 54
-0.125 0.93345 1.63954 243 109 54
-0.125 0.89914 1.60938 243 109 54
0.125 0.89914 1.60938 243 109 54
-0.06875 1.16206 1.63954 243 109 54
-0.05317 1.17979 1.78926 243 109 54
-0.05317 1.30082 1.78926 243 109 54
0.05317 1.30082 1.78926 243 109 54
0.05317 1.17979 1.78926 243 109 54
-0.06875 1.16206 1.63954 228 102 51
-0.06875 1.16206 1.76649 228 102 51
0.06875 1.16206 1.76649 228 102 51
0.06875 1.16206 1.63954 228 102 51
0.06875 1.31855 1.76649 228 102 51
0.06875 1.31855 1.63954 228 102 51
-0.06875 1.31855 1.76649 228 102 51
-0.06875 1.31855 1.63954 228 102 51
0.05317 1.30082 1.78926 228 102 51
0.05317 1.17979 1.78926 228 102 51
-0.05317 1.17979 1.78926 228 102 51
-0.05317 1.30082 1.78926 228 102 51
0.19505 1.14791 1.26476 244 191 0
0.19505 1.14791 1.47911 244 191 0
0.125 1.14791 1.47911 244 191 0
0.125 1.14791 1.26476 244 191 0
0.19505 0.79899 1.47911 244 191 0
0.125 0.89914 1.47911 252 197 0
0.19505 1.14791 1.47911 252 197 0
0.125 1.14791 1.47911 252 197 0
0.28647 0.41273 0.4335 228 102 51
0.28647 0.41273 0.81012 228 102 51
0.44111 0.41273 0.81012 228 102 51
0.44111 0.41273 0.4335 228 102 51
0.44111 0.49926 0.81012 228 102 51
0.44111 0.49926 0.4335 228 102 51
0.28647 0.49926 0.4335 228 102 51
0.28647 0.41273 0.81012 243 109 54
0.28647 0.49926 0.81012 243 109 54
0.44111 0.49926 0.81012 243 109 54
0.44111 0.41273 0.81012 243 109 54
0.28647 0.56453 0.4335 244 191 0
0.43728 0.56453 0.90742 244 191 0
0.28647 0.56453 0.90742 244 191 0
0.52705 0.56453 0.4335 244 191 0
0.52705 0.56453 1.01593 244 191 0
0.43728 0.56453 1.01593 244 191 0
0.43728 0.49926 1.01593 244 191 0
0.43728 0.49926 0.90742 244 191 0
0.52705 0.49926 1.01593 244 191 0
0.44111 0.49926 0.4335 244 191 0
0.52705 0.49926 0.4335 244 191 0
0.28647 0.49926 0.4335 244 191 0
0.44111 0.49926 0.81012 244 191 0
0.28647 0.49926 0.81012 244 191 0
0.28647 0.49926 0.90742 244 191 0
0.28647 0.49926 0.90742 252 197 0
0.28647 0.56453 0.90742 252 197 0
0.43728 0.56453 0.90742 252 197 0
0.43728 0.49926 0.90742 252 197 0
0.43728 0.56453 1.01593 252 197 0
0.52705 0.56453 1.01593 252 197 0
0.52705 0.49926 1.01593 252 197 0
0.43728 0.49926 1.01593 252 197 0
0.28647 -0.40408 0.4335 228 102 51
0.28647 -0.40408 0.71201 228 102 51
0.43299 -0.40408 0.71201 228 102 51
0.43299 -0.40408 0.4335 228 102 51
0.43299 -0.31755 0.71201 228 102 51
0.43299 -0.31755 0.4335 228 102 51
0.28647 -0.31755 0.4335 228 102 51
0.28647 -0.40408 0.71201 243 109 54
0.28647 -0.31755 0.71201 243 109 54
0.43299 -0.31755 0.71201 243 109 54
0.43299 -0.40408 0.71201 243 109 54
0.28647 -0.25228 0.4335 244 191 0
0.42917 -0.25228 0.80931 244 191 0
0.28647 -0.25228 0.80931 244 191 0
0.49099 -0.25228 0.4335 244 191 0
0.49099 -0.25228 0.88049 244 191 0
0.42917 -0.25228 0.88049 244 191 0
0.42917 -0.31755 0.88049 244 191 0
0.42917 -0.31755 0.80931 244 191 0
0.49099 -0.31755 0.88049 244 191 0
0.43299 -0.31755 0.4335 244 191 0
0.49099 -0.31755 0.4335 244 191 0
0.28647 -0.31755 0.4335 244 191 0
0.43299 -0.31755 0.71201 244 191 0
0.28647 -0.31755 0.71201 244 191 0
0.28647 -0.31755 0.80931 244 191 0
0.28647 -0.31755 0.80931 252 197 0
0.28647 -0.25228 0.80931 252 197 0
0.42917 -0.25228 0.80931 252 197 0
0.42917 -0.31755 0.80931 252 197 0
0.42917 -0.25228 0.88049 252 197 0
0.49099 -0.25228 0.88049 252 197 0
0.49099 -0.31755 0.88049 252 197 0
0.42917 -0.31755 0.88049 252 197 0
-0.28647 0.41273 0.4335 228 102 51
-0.44111 0.41273 0.4335 228 102 51
-0.44111 0.41273 0.81012 228 102 51
-0.28647 0.41273 0.81012 228 102 51
-0.44111 0.49926 0.81012 228 102 51
-0.44111 0.49926 0.4335 228 102 51
-0.28647 0.49926 0.4335 228 102 51
-0.28647 0.41273 0.81012 243 109 54
-0.44111 0.41273 0.81012 243 109 54
-0.44111 0.49926 0.81012 243 109 54
-0.28647 0.49926 0.81012 243 109 54
-0.28647 0.56453 0.4335 244 191 0
-0.28647 0.56453 0.90742 244 191 0
-0.43728 0.56453 0.90742 244 191 0
-0.52705 0.56453 0.4335 244 191 0
-0.52705 0.56453 1.01593 244 191 0
-0.43728 0.56453 1.01593 244 191 0
-0.43728 0.49926 1.01593 244 191 0
-0.43728 0.49926 0.90742 244 191 0
-0.52705 0.49926 1.01593 244 191 0
-0.44111 0.49926 0.4335 244 191 0
-0.28647 0.49926 0.4335 244 191 0
-0.52705 0.49926 0.4335 244 191 0
-0.44111 0.49926 0.81012 244 191 0
-0.28647 0.49926 0.81012 244 191 0
-0.28647 0.49926 0.90742 244 191 0
-0.28647 0.49926 0.90742 252 197 0
-0.43728 0.49926 0.90742 252 197 0
-0.43728 0.56453 0.90742 252 197 0
-0.28647 0.56453 0.90742 252 197 0
-0.43728 0.56453 1.01593 252 197 0
-0.43728 0.49926 1.01593 252 197 0
-0.52705 0.49926 1.01593 252 197 0
-0.52705 0.56453 1.01593 252 197 0
-0.28647 -0.40408 0.4335 228 102 51
-0.43299 -0.40408 0.4335 228 102 51
-0.43299 -0.40408 0.71201 228 102 51
-0.28647 -0.40408 0.71201 228 102 51
-0.43299 -0.31755 0.71201 228 102 51
-0.43299 -0.31755 0.4335 228 102 51
-0.28647 -0.31755 0.4335 228 102 51
-0.28647 -0.40408 0.71201 243 109 54
-0.43299 -0.40408 0.71201 243 109 54
-0.43299 -0.31755 0.71201 243 109 54
-0.28647 -0.31755 0.71201 243 109 54
-0.28647 -0.25228 0.4335 244 191 0
-0.28647 -0.25228 0.80931 244 191 0
-0.42917 -0.25228 0.80931 244 191 0
-0.49099 -0.25228 0.4335 244 191 0
-0.49099 -0.25228 0.88049 244 191 0
-0.42917 -0.25228 0.88049 244 191 0
-0.42917 -0.31755 0.88049 244 191 0
-0.42917 -0.31755 0.80931 244 191 0
-0.49099 -0.31755 0.88049 244 191 0
-0.43299 -0.31755 0.4335 244 191 0
-0.28647 -0.31755 0.4335 244 191 0
-0.49099 -0.31755 0.4335 244 191 0
-0.43299 -0.31755 0.71201 244 191 0
-0.28647 -0.31755 0.71201 244 191 0
-0.28647 -0.31755 0.80931 244 191 0
-0.28647 -0.31755 0.80931 252 197 0
-0.42917 -0.31755 0.80931 252 197 0
-0.42917 -0.25228 0.80931 252 197 0
-0.28647 -0.25228 0.80931 252 197 0
-0.42917 -0.25228 0.88049 252 197 0
-0.42917 -0.31755 0.88049 252 197 0
-0.49099 -0.31755 0.88049 252 197 0
-0.49099 -0.25228 0.88049 252 197 0
-0.24524 -0.07955 1.21129 249 245 221
-0.28989 -0.13355 1.21129 249 245 221
-0.28984 0.63523 1.21129 249 245 221
-0.25463 0.6729 1.21129 249 245 221
0.24524 -0.07955 1.21129 249 245 221
0.25463 0.6729 1.21129 249 245 221
0.28984 0.63523 1.21129 249 245 221
0.28989 -0.13355 1.21129 249 245 221
0.2242 -0.78112 2.15218 249 245 221
-0.2242 -0.78112 2.15218 249 245 221
-0.22118 -0.1097 2.15218 249 245 221
0.22118 -0.1097 2.15218 249 245 221
0.26062 -0.73578 2.15218 249 245 221
0.26062 -0.15925 2.15218 249 245 221
0.17227 -1.0287 1.64075 176 125 145
-0.17227 -1.0287 1.64075 176 125 145
-0.17227 -1.08791 1.64075 176 125 145
0.17227 -1.08791 1.64075 176 125 145
0.17227 -1.02866 1.57663 176 125 145
-0.17227 -1.02866 1.57663 176 125 145
0.17227 -1.08788 1.57663 176 125 145
-0.17227 -1.08788 1.57663 176 125 145
-0.26062 -0.73578 2.15218 249 245 221
-0.26062 -0.15925 2.15218 249 245 221
0.05338 -1.08796 1.78423 253 248 210
0.03302 -1.08796 1.78423 253 248 210
0 -1.08796 1.83197 253 248 210
-0.03302 -1.08796 1.78423 253 248 210
-0.05338 -1.08796 1.78423 253 248 210
-0.03302 -1.08796 1.73866 253 248 210
0.03302 -1.08796 1.73866 253 248 210
-0.05338 -1.08796 1.73866 253 248 210
-0.17227 -1.08791 1.64075 253 248 210
0.17227 -1.08791 1.64075 253 248 210
0.05338 -1.08796 1.73866 253 248 210
-0.17227 -1.08788 1.57663 253 248 210
-0.03302 -1.07748 1.73866 205 201 170
-0.05338 -1.07748 1.73866 205 201 170
-0.05338 -1.07748 1.78423 205 201 170
-0.03302 -1.07748 1.78423 205 201 170
-0.03302 -1.08796 1.73866 205 201 170
-0.03302 -1.08796 1.78423 205 201 170
-0.05338 -1.08796 1.78423 205 201 170
-0.05338 -1.08796 1.73866 205 201 170
0.05338 -1.07748 1.73866 205 201 170
0.03302 -1.07748 1.73866 205 201 170
0.03302 -1.07748 1.78423 205 201 170
0.05338 -1.07748 1.78423 205 201 170
0.05338 -1.08796 1.73866 205 201 170
0.05338 -1.08796 1.78423 205 201 170
0.03302 -1.08796 1.78423 205 201 170
0.03302 -1.08796 1.73866 205 201 170
0.17227 -1.08788 1.57663 253 248 210
0.16687 -0.52013 2.14702 253 248 210
0.29685 -0.47432 2.37064 253 248 210
0.40705 -0.47432 2.3067 253 248 210
0.27707 -0.52013 2.08308 253 248 210
0.37828 -0.44174 2.25712 253 248 210
0.27707 -0.44174 2.08308 253 248 210
0.42063 -0.45466 2.33012 253 248 210
0.31044 -0.45466 2.39405 253 248 210
0.42063 -0.2874 2.33012 253 248 210
0.31044 -0.2874 2.39405 253 248 210
0.38794 -0.31984 2.27378 253 248 210
0.38794 -0.42221 2.27378 253 248 210
0.40705 -0.26773 2.3067 253 248 210
0.29685 -0.26773 2.37064 253 248 210
0.27707 -0.22192 2.08308 253 248 210
0.16687 -0.22192 2.14702 253 248 210
0.37828 -0.30031 2.25712 253 248 210
0.27707 -0.30031 2.08308 253 248 210
0.16687 -0.22192 2.14702 249 245 221
0.29685 -0.26773 2.37064 249 245 221
0.29685 -0.47432 2.37064 249 245 221
0.16687 -0.52013 2.14702 249 245 221
0.31044 -0.45466 2.39405 249 245 221
0.31044 -0.2874 2.39405 249 245 221
0.37828 -0.30031 2.25712 189 106 90
0.37828 -0.44174 2.25712 189 106 90
0.38794 -0.42221 2.27378 189 106 90
0.38794 -0.31984 2.27378 189 106 90
0.27707 -0.44174 2.08308 189 106 90
0.27707 -0.30031 2.08308 189 106 90
-0.16687 -0.52013 2.14702 253 248 210
-0.27707 -0.52013 2.08308 253 248 210
-0.40705 -0.47432 2.3067 253 248 210
-0.29685 -0.47432 2.37064 253 248 210
-0.37828 -0.44174 2.25712 253 248 210
-0.27707 -0.44174 2.08308 253 248 210
-0.42063 -0.45466 2.33012 253 248 210
-0.31044 -0.45466 2.39405 253 248 210
-0.42063 -0.2874 2.33012 253 248 210
-0.31044 -0.2874 2.39405 253 248 210
-0.38794 -0.31984 2.27378 253 248 210
-0.38794 -0.42221 2.27378 253 248 210
-0.40705 -0.26773 2.3067 253 248 210
-0.29685 -0.26773 2.37064 253 248 210
-0.27707 -0.22192 2.08308 253 248 210
-0.16687 -0.22192 2.14702 253 248 210
-0.37828 -0.30031 2.25712 253 248 210
-0.27707 -0.30031 2.08308 253 248 210
-0.16687 -0.22192 2.14702 249 245 221
-0.16687 -0.52013 2.14702 249 245 221
-0.29685 -0.47432 2.37064 249 245 221
-0.29685 -0.26773 2.37064 249 245 221
-0.31044 -0.45466 2.39405 249 245 221
-0.31044 -0.2874 2.39405 249 245 221
-0.37828 -0.30031 2.25712 189 106 90
-0.38794 -0.31984 2.27378 189 106 90
-0.38794 -0.42221 2.27378 189 106 90
-0.37828 -0.44174 2.25712 189 106 90
-0.27707 -0.44174 2.08308 189 106 90
-0.27707 -0.30031 2.08308 189 106 90
3 0 2 1
3 0 3 2
3 4 3 0
3 3 4 5
3 3 5 6
3 4 7 5
3 4 8 7
3 9 8 4
3 9 4 10
3 4 0 10
3 7 8 11
3 12 1 2
3 2 13 12
3 2 14 13
3 2 3 14
3 14 3 15
3 14 15 16
3 16 15 17
3 16 17 18
3 19 18 17
3 19 17 20
3 21 14 16
3 21 16 22
3 23 21 22
3 24 21 23
3 24 23 25
3 14 26 13
3 14 21 26
3 21 27 26
3 21 24 27
3 27 24 28
3 27 28 29
3 18 19 30
3 18 30 31
3 16 31 22
3 16 18 31
3 31 32 22
3 33 22 32
3 22 33 23
3 33 32 34
3 23 33 35
3 23 35 36
3 37 23 36
3 37 36 38
3 37 38 39
3 37 39 40
3 35 33 41
3 41 33 34
3 35 41 42
3 35 42 43
3 43 36 35
3 43 42 44
3 44 45 43
3 38 36 45
3 45 36 43
3 44 46 45
3 46 47 45
3 38 47 39
3 38 45 47
3 44 42 48
3 41 48 42
3 44 48 49
3 46 44 49
3 46 49 50
3 47 46 50
3 47 50 51
3 39 47 51
3 39 51 52
3 40 39 52
3 40 52 53
3 41 54 48
3 41 55 54
3 41 34 55
3 34 56 55
3 34 32 56
3 57 56 32
3 31 57 32
3 58 57 31
3 58 59 57
3 58 60 59
3 61 59 60
3 61 60 62
3 63 61 62
3 64 61 63
3 64 63 65
3 64 65 66
3 67 65 63
3 63 62 67
3 67 68 65
3 64 69 61
3 70 69 64
3 71 69 70
3 28 71 70
3 28 72 71
3 24 72 28
3 24 25 72
3 70 64 73
3 73 74 70
3 73 75 74
3 1 75 73
3 1 73 0
3 1 76 75
3 70 29 28
3 70 74 29
3 69 71 77
3 77 56 69
3 77 55 56
3 71 78 77
3 71 79 78
3 78 54 77
3 54 55 77
3 78 48 54
3 78 80 48
3 80 78 79
3 80 49 48
3 49 80 81
3 81 80 79
3 49 81 50
3 50 81 51
3 82 51 81
3 82 81 79
3 83 82 79
3 83 52 82
3 82 52 51
3 83 53 52
3 83 79 71
3 61 56 59
3 61 69 56
3 84 86 85
3 84 87 86
3 88 90 89
3 88 91 90
3 92 91 88
3 92 88 93
3 92 93 94
3 94 93 95
3 93 96 95
3 93 97 96
3 92 99 98
3 92 94 99
3 100 3 6
3 15 3 100
3 15 100 101
3 102 104 103
3 102 105 104
3 106 108 107
3 106 109 108
3 107 108 110
3 109 110 108
3 107 110 111
3 112 109 106
3 112 113 109
3 109 113 110
3 112 107 111
3 112 106 107
3 114 116 115
3 114 117 116
3 0 118 10
3 0 119 118
3 10 118 120
3 10 120 9
3 120 121 9
3 122 119 0
3 66 122 0
3 66 123 122
3 124 126 125
3 124 127 126
3 128 130 129
3 128 131 130
3 131 132 130
3 129 130 132
3 131 133 132
3 134 128 129
3 134 129 135
3 129 132 135
3 134 131 128
3 134 133 131
3 136 138 137
3 136 139 138
3 140 139 136
3 140 141 139
3 141 138 139
3 142 141 140
3 142 143 141
3 141 143 144
3 141 144 145
3 141 145 138
3 144 143 146
3 144 146 147
3 148 147 146
3 148 146 149
3 143 149 146
3 143 142 149
3 142 148 149
3 142 150 148
3 142 151 150
3 142 140 151
3 151 140 136
3 151 136 137
3 152 154 153
3 152 155 154
3 156 154 155
3 156 157 154
3 158 157 156
3 158 156 159
3 158 159 160
3 158 160 161
3 162 161 160
3 162 160 163
3 164 162 163
3 164 165 162
3 166 165 164
3 166 164 167
3 166 167 152
3 166 152 153
3 168 170 169
3 168 171 170
3 172 171 168
3 172 173 171
3 173 170 171
3 174 173 172
3 174 175 173
3 173 175 176
3 173 176 177
3 173 177 170
3 176 175 178
3 176 178 179
3 180 179 178
3 180 178 181
3 175 181 178
3 175 174 181
3 174 180 181
3 174 182 180
3 174 183 182
3 174 172 183
3 183 172 168
3 183 168 169
3 184 186 185
3 184 187 186
3 188 186 187
3 188 189 186
3 190 189 188
3 190 188 191
3 190 191 192
3 190 192 193
3 194 193 192
3 194 192 195
3 196 194 195
3 196 197 194
3 198 197 196
3 198 196 199
3 198 199 184
3 198 184 185
3 200 202 201
3 200 203 202
3 204 203 200
3 204 205 203
3 206 205 204
3 206 207 205
3 207 206 208
3 207 208 209
3 209 208 210
3 209 210 211
3 206 210 208
3 206 212 210
3 212 211 210
3 212 213 211
3 214 213 212
3 206 214 212
3 206 204 214
3 214 215 213
3 215 214 201
3 215 201 202
3 214 200 201
3 214 204 200
3 216 218 217
3 216 219 218
3 220 219 216
3 220 221 219
3 221 220 222
3 221 222 223
3 223 222 224
3 223 224 225
3 225 224 226
3 225 226 227
3 228 230 229
3 228 231 230
3 229 230 217
3 229 217 218
3 231 228 227
3 231 227 226
3 232 234 233
3 232 235 234
3 236 235 232
3 236 237 235
3 238 237 236
3 238 239 237
3 239 238 240
3 239 240 241
3 241 240 242
3 241 242 243
3 238 242 240
3 238 244 242
3 244 243 242
3 244 245 243
3 246 245 244
3 238 246 244
3 238 236 246
3 246 247 245
3 247 246 233
3 247 233 234
3 246 232 233
3 246 236 232
3 248 250 249
3 248 251 250
3 252 251 248
3 252 253 251
3 253 252 254
3 253 254 255
3 255 254 256
3 255 256 257
3 257 256 258
3 257 258 259
3 260 262 261
3 260 263 262
3 261 262 249
3 261 249 250
3 263 260 259
3 263 259 258
3 264 266 265
3 264 267 266
3 265 266 268
3 265 268 269
3 270 272 271
3 270 273 272
3 273 274 272
3 274 273 275
3 275 273 276
3 271 277 270
3 271 278 277
3 270 277 279
3 279 277 280
3 280 281 279
3 280 282 281
3 270 279 283
3 272 274 284
3 272 284 285
3 286 285 284
3 286 284 287
3 274 287 284
3 274 288 287
3 288 286 287
3 288 289 286
3 290 289 288
3 274 290 288
3 274 275 290
3 289 290 291
3 291 290 292
3 293 289 291
3 293 294 289
3 294 293 295
3 293 296 295
3 293 297 296
3 294 295 298
3 295 296 299
3 296 300 299
3 296 301 300
3 293 291 273
3 293 273 270
3 302 304 303
3 302 305 304
3 304 307 306
3 306 307 308
3 309 311 310
3 309 312 311
3 310 313 309
3 310 314 313
3 313 314 315
3 316 313 315
3 316 315 317
3 315 318 317
3 315 319 318
3 315 314 319
3 319 314 320
3 319 320 321
3 319 321 322
3 319 322 323
3 321 324 322
3 321 325 324
3 325 326 324
3 325 318 326
3 327 318 325
3 327 328 318
3 318 328 317
3 317 328 316
3 316 328 329
3 316 329 330
3 329 331 330
3 329 332 331
3 333 327 325
3 333 325 334
3 318 323 326
3 318 319 323
3 324 326 335
3 336 327 333
3 336 337 327
3 338 337 336
3 338 336 339
3 324 335 340
3 340 335 341
3 335 342 341
3 335 343 342
3 343 344 342
3 341 342 344
3 341 344 345
3 343 346 344
3 323 346 343
3 326 323 343
3 326 343 335
3 323 322 346
3 340 341 345
3 347 349 348
3 347 350 349
3 339 351 320
3 339 320 338
3 320 351 352
3 320 352 321
3 353 355 354
3 353 356 355
3 357 356 353
3 357 358 356
3 359 361 360
3 359 362 361
3 363 365 364
3 363 366 365
3 364 365 367
3 364 367 368
3 369 371 370
3 369 305 371
3 304 305 369
3 304 369 307
3 361 348 349
3 361 362 348
3 372 374 373
3 372 375 374
3 376 372 373
3 376 377 372
3 376 378 377
3 376 379 378
3 376 373 380
3 374 380 373
3 374 381 380
3 381 374 382
3 382 374 375
3 382 375 383
3 382 383 384
3 382 384 385
3 379 385 384
3 379 384 378
3 381 382 386
3 376 380 387
3 388 390 389
3 388 391 390
3 392 394 393
3 392 395 394
3 396 398 397
3 396 399 398
3 389 396 397
3 389 390 396
3 400 402 401
3 400 403 402
3 404 401 402
3 405 404 402
3 405 402 406
3 407 405 406
3 407 406 408
3 404 409 401
3 410 408 403
3 410 407 408
3 411 410 403
3 411 403 400
3 409 411 400
3 409 400 401
3 412 414 413
3 412 415 414
3 414 416 413
3 413 416 417
3 413 417 412
3 418 414 415
3 418 415 419
3 414 420 416
3 414 421 420
3 420 421 422
3 422 423 420
3 422 424 423
3 424 422 421
3 424 425 423
3 424 421 426
3 427 426 421
3 427 428 426
3 418 428 427
3 421 418 427
3 418 419 428
3 415 428 419
3 415 426 428
3 424 426 415
3 421 414 418
3 424 415 412
3 423 425 429
3 423 429 430
3 429 431 430
3 429 432 431
3 433 435 434
3 433 436 435
3 435 438 437
3 438 435 439
3 440 442 441
3 442 440 443
3 442 443 444
3 444 441 442
3 444 445 441
3 441 445 446
3 447 441 446
3 447 446 448
3 446 449 448
3 446 450 449
3 446 445 450
3 450 445 451
3 450 451 452
3 440 441 447
3 440 447 453
3 453 447 454
3 447 455 454
3 455 453 454
3 447 456 455
3 455 457 453
3 448 456 447
3 449 456 448
3 458 456 449
3 458 449 459
3 449 452 459
3 449 450 452
3 460 458 459
3 460 459 461
3 451 462 452
3 463 458 460
3 463 464 458
3 465 464 463
3 465 463 466
3 451 467 462
3 466 467 451
3 466 451 465
3 468 470 469
3 468 471 470
3 469 473 472
3 469 470 473
3 474 469 472
3 474 475 469
3 476 473 470
3 477 475 476
3 477 478 475
3 476 479 473
3 476 474 479
3 476 475 474
3 480 482 481
3 480 483 482
3 484 486 485
3 484 487 486
3 487 488 486
3 487 489 488
3 489 490 488
3 489 491 490
3 486 488 492
3 486 492 493
3 485 486 493
3 485 493 494
3 488 495 492
3 488 490 495
3 490 485 494
3 491 485 490
3 491 484 485
3 490 494 495
3 496 498 497
3 496 499 498
3 497 417 496
3 500 417 497
3 412 417 500
3 439 435 501
3 436 501 435
3 502 501 436
3 501 502 503
3 504 506 505
3 504 507 506
3 507 508 506
3 507 509 508
3 510 507 504
3 510 509 507
3 511 513 512
3 511 514 513
3 515 517 516
3 518 515 516
3 518 516 519
3 519 516 520
3 516 521 520
3 516 522 521
3 522 523 521
3 524 515 518
3 524 518 525
3 524 526 515
3 518 523 525
3 518 519 523
3 525 523 522
3 525 522 527
3 525 527 524
3 528 527 522
3 528 522 529
3 530 532 531
3 530 533 532
3 534 536 535
3 534 537 536
3 538 540 539
3 538 541 540
3 541 542 540
3 541 543 542
3 544 541 538
3 544 543 541
3 545 547 546
3 545 548 547
3 549 551 550
3 552 549 550
3 552 550 553
3 553 550 554
3 550 555 554
3 550 556 555
3 556 557 555
3 558 549 552
3 558 552 559
3 558 560 549
3 552 557 559
3 552 553 557
3 559 557 556
3 559 556 561
3 559 561 558
3 562 561 556
3 562 556 563
3 564 566 565
3 564 567 566
3 568 570 569
3 568 571 570
3 572 574 573
3 572 575 574
3 573 574 576
3 573 576 577
3 578 573 577
3 578 572 573
3 579 581 580
3 579 582 581
3 583 585 584
3 586 585 583
3 586 587 585
3 587 588 585
3 585 588 589
3 585 589 590
3 590 589 591
3 592 583 593
3 592 586 583
3 592 594 586
3 586 594 591
3 586 591 587
3 594 590 591
3 594 595 590
3 594 592 595
3 596 590 595
3 596 597 590
3 598 600 599
3 598 601 600
3 602 604 603
3 602 605 604
3 606 608 607
3 606 609 608
3 607 608 610
3 607 610 611
3 612 607 611
3 612 606 607
3 613 615 614
3 613 616 615
3 617 619 618
3 620 619 617
3 620 621 619
3 621 622 619
3 619 622 623
3 619 623 624
3 624 623 625
3 626 617 627
3 626 620 617
3 626 628 620
3 620 628 625
3 620 625 621
3 628 624 625
3 628 629 624
3 628 626 629
3 630 624 629
3 630 631 624
3 632 634 633
3 632 635 634
3 636 638 637
3 636 639 638
3 640 642 641
3 640 643 642
3 644 643 640
3 644 645 643
3 646 645 644
3 646 644 647
3 648 650 649
3 648 651 650
3 651 648 652
3 651 652 653
3 654 656 655
3 654 657 656
3 658 654 655
3 658 657 654
3 658 655 659
3 658 660 657
3 658 661 660
3 658 659 661
3 12 76 1
3 659 656 661
3 659 655 656
3 650 662 649
3 650 663 662
3 19 665 664
3 19 666 665
3 667 665 666
3 668 667 666
3 668 666 67
3 669 665 667
3 669 670 665
3 666 68 67
3 67 671 668
3 671 67 672
3 672 669 671
3 669 673 670
3 669 672 673
3 673 674 670
3 672 67 62
3 672 62 675
3 19 20 666
3 666 20 68
3 676 678 677
3 676 679 678
3 680 679 676
3 680 681 679
3 681 678 679
3 681 682 678
3 683 676 677
3 683 680 676
3 684 686 685
3 684 687 686
3 688 687 684
3 688 689 687
3 689 686 687
3 689 690 686
3 691 684 685
3 691 688 684
3 682 677 678
3 682 683 677
3 690 685 686
3 690 691 685
3 664 673 19
3 673 664 674
3 692 19 673
3 692 30 19
3 675 30 692
3 675 62 30
3 30 62 60
3 30 60 58
3 58 31 30
3 57 59 56
3 0 64 66
3 0 73 64
3 693 695 694
3 693 696 695
3 697 695 696
3 697 696 698
3 694 695 699
3 694 699 700
3 700 699 701
3 700 701 702
3 703 701 699
3 703 699 704
3 704 695 697
3 704 699 695
3 705 702 701
3 705 701 703
3 705 706 702
3 706 705 707
3 706 707 708
3 707 705 709
3 705 703 709
3 707 709 710
3 711 713 712
3 711 714 713
3 712 713 715
3 712 715 716
3 717 719 718
3 717 720 719
3 717 718 721
3 717 721 722
3 723 725 724
3 723 726 725
3 727 724 725
3 727 728 724
3 726 729 725
3 726 730 729
3 730 731 729
3 730 732 731
3 733 729 731
3 733 734 729
3 734 725 729
3 734 727 725
3 735 731 732
3 735 733 731
3 735 732 736
3 736 737 735
3 736 738 737
3 737 739 735
3 735 739 733
3 737 740 739
3 741 743 742
3 741 744 743
3 744 745 743
3 744 746 745
3 747 749 748
3 747 750 749
3 747 751 750
3 747 752 751
