mtllib Sliggoo.mtl
v -0.0672341 0.1304726 -0.01965103
vt 0.277392 0.233997
vn -0.9295907 0.2158752 0.2987624
v -0.107384 0.128942 0.124608
vt 0.0970025 0.230009
vn -0.9474409 0.312432 0.0688621
v -0.0632409 0.2253644 0.1284701
vt 0.0921751 0.471057
vn -0.8554662 0.5178477 -0.003349798
v -0.116523 0.0423783 -0.035238
vt 0.29681 0.0136011
vn -0.9145671 0.384762 -0.1246
v 0 0.2260075 0.05164845
vt 0.188198 0.472666
vn 0 0.658929 -0.7522052
v -0.0672341 0.1134542 -0.1530406
vt 0.44409 0.190899
vn -0.6531619 -0.08437446 -0.7525029
v 0.0672341 0.1304726 -0.01965103
vn 0.9295907 0.2158752 0.2987624
v -0.0672341 0.2375538 -0.1008555
vt 0.379403 0.501178
vn -1 0 0
v 0.0672341 0.2543514 0.03256401
vt 0.212704 0.544276
vn 0.3161442 0.1183327 0.9413024
v -0.0672341 0.2543514 0.03256401
vn -0.3161442 0.1183327 0.9413024
v -0.0883744 0.161651 0.219654
vt -0.0218056 0.311784
vn -0.5920932 0.3274621 0.7363383
v -0.131946 0.0379508 0.0926049
vt 0.137006 0.0025323
vn -0.9621194 0.2667831 0.05615222
v -0.0431634 0.138317 0.179257
vt 0.0286906 0.253449
vn -0.3428129 0.07193019 0.9366458
v -0.0781353 0.0425888 0.170698
vt 0.0393905 0.0141272
vn -0.3877841 0.2703031 0.8812262
v 0.0632409 0.2253644 0.1284701
vn 0.8554662 0.5178477 -0.003349818
v 0 0.3725744 0.1026203
vt 0.124485 0.839048
vn 0 0.9464524 -0.3228433
v -0.0672341 0.2207562 -0.2342751
vt 0.546101 0.458081
vn -0.3163322 -0.1183257 -0.9412402
v -0.106306 0.032597 -0.161599
vt 0.454761 -0.0108523
vn -0.7541322 0.5755292 -0.3163081
v 0.0672341 0.1134542 -0.1530406
vn 0.6531619 -0.08437446 -0.7525029
v 0 0.035594 -0.237944
vt 0.550193 -0.00335974
vn 0 0.9232507 -0.3841979
v 0.0672341 0.3614971 -0.04869292
vt 0.314715 0.811457
vn 0.3162181 0.874404 0.3679999
v 0.0672341 0.2375538 -0.1008555
vn 1 0 0
v 0 0.147693 0.202974
vt -0.000954732 0.276889
vn 0 -0.05086298 0.9987056
v 0.0781353 0.0425888 0.170698
vn 0.3877841 0.2703031 0.8812262
v 0 0.2382089 0.1770658
vt 0.0314328 0.503167
vn 0 0.430642 0.9025228
v -0.0672341 0.3446995 -0.1821123
vt 0.481414 0.768359
vn -0.3162181 0.7558993 -0.5732561
v -0.0672341 0.3614971 -0.04869292
vn -0.3162181 0.874404 0.3679999
v 0.106306 0.032597 -0.161599
vn 0.7541327 0.5755287 -0.3163079
v 0.0672341 0.2207562 -0.2342751
vn 0.3163322 -0.1183257 -0.9412402
v 0.116523 0.0423783 -0.035238
vn 0.9145671 0.384762 -0.1246
v 0.0431634 0.138317 0.179257
vn 0.3428129 0.0719301 0.9366458
v 0.107384 0.128942 0.124608
vn 0.9474409 0.312432 0.0688621
v 0.131946 0.0379508 0.0926049
vn 0.9621194 0.2667831 0.05615222
v 0.0672341 0.3446995 -0.1821123
vn 0.3162181 0.7558993 -0.5732561
v 0.0883744 0.161651 0.219654
vn 0.5920932 0.3274621 0.7363383
v -0.127165 0 -0.00673522
vt 0.0260037 0.0949023
vn -0.11625 -0.9931608 -0.0108432
vt 0.0251933 0.0612295
vt 0.0278074 0.104564
v -0.144426 0 0.170253
vt 0.0230782 0.0349094
vn -0.209627 -0.96604 0.151074
vt 0.0295389 0.147396
v 0 0 0.220685
vt 0.0475559 0.0178148
vn 0 -0.9769617 0.2134149
v -0.134963 0 -0.195277
vt 0.0246821 0.158811
vn -0.108537 -0.9930448 -0.04562649
v 0.127165 0 -0.00673522
vt 0.0691081 0.0949023
vn 0.118464 -0.9928969 -0.0110497
v 0.134963 0 -0.195277
vt 0.0704298 0.158811
vn 0.108344 -0.9930696 -0.04554548
vt 0.0343134 0.0347588
v -0.0616721 0 -0.248015
vt 0.0371036 0.176688
vn -0.5017592 -0.5927392 -0.6299983
vt 0.0475559 0.173274
vt 0.065573 0.147396
v 0.0616721 0 -0.248015
vt 0.0580083 0.176688
vn 0.3235249 -0.8545897 -0.4062119
vt 0.0607985 0.0347588
v 0.144426 0 0.170253
vt 0.0720336 0.0349094
vn 0.209627 -0.96604 0.151074
v 0 0.0677927 -0.384888
vt 0.0475559 0.223083
vn 0 -0.7181856 -0.6958516
vt 0.0699185 0.0612295
vt 0.0673045 0.104564
v 0 0.2944422 0.1191347
vt 0.575187 0.29277
vn 0 -0.9974096 -0.07193177
v -0.155826 0.3662794 0.177533
vt 0.559604 0.307136
vn -0.6506979 -0.7557076 0.07415068
v -0.0842527 0.3413748 0.07855063
vt 0.566762 0.302155
vn -0.4602334 -0.8118813 -0.3592128
v -0.0883668 0.3442833 0.2626611
vt 0.56635 0.302737
vn -0.4246385 -0.8121096 0.4002002
v 0 0.3330697 0.03858555
vt 0.575187 0.300494
vn 0 -0.773374 -0.63395
v 0 0.3155482 0.2310156
vt 0.575187 0.296991
vn 0 -0.946775 0.321896
v 0.0842527 0.3413748 0.07855063
vt 0.583612 0.302155
vn 0.4602334 -0.8118813 -0.3592128
v 0.0883668 0.3442833 0.2626611
vt 0.584024 0.302737
vn 0.4246385 -0.8121096 0.4002002
v 0.155826 0.3662794 0.177533
vt 0.59077 0.307136
vn 0.6506979 -0.7557076 0.07415068
v -0.0980719 0.4247657 -0.007840578
vt 0.56538 0.318831
vn -0.4143813 -0.367969 -0.8323983
v -0.17122 0.4142392 0.06724773
vt 0.558065 0.316726
vn -0.749187 -0.4969974 -0.4378497
v 0.0980719 0.4247657 -0.007840578
vt 0.584994 0.318831
vn 0.4143813 -0.367969 -0.8323983
v 0.17122 0.4142392 0.06724773
vt 0.592309 0.316726
vn 0.749187 -0.4969974 -0.4378497
v -0.182523 0.5168868 0.0410614
vt 0.556935 0.337253
vn -0.8639868 0.05485901 -0.500517
v 0 0.4188439 -0.02923798
vt 0.575187 0.317647
vn 0 -0.356622 -0.9342488
v 0.182523 0.5168868 0.0410614
vt 0.593439 0.337253
vn 0.8639868 0.05485911 -0.500517
v -0.114627 0.5693952 -0.02038132
vt 0.563724 0.347753
vn -0.4849703 0.2305347 -0.843598
v -0.187543 0.6220347 0.1256766
vt 0.556433 0.358279
vn -0.9206977 0.3718446 -0.1185212
v 0 0.5624952 -0.05032107
vt 0.575187 0.346373
vn 0 0.17765 -0.9840938
v 0.114627 0.5693952 -0.02038132
vt 0.58665 0.347753
vn 0.4849703 0.2305347 -0.843598
v 0.187543 0.6220347 0.1256766
vt 0.593941 0.358279
vn 0.9206977 0.3718446 -0.1185212
v -0.108863 0.6768265 0.05631957
vt 0.564301 0.369236
vn -0.4831977 0.7522324 -0.4479581
v -0.12597 0.687635 0.1907268
vt 0.56259 0.371398
vn -0.4548338 0.8632094 0.2190794
v -0.172359 0.6052453 0.2706012
vt 0.557951 0.354922
vn -0.7557481 0.3677869 0.541828
v 0.108863 0.6768265 0.05631957
vt 0.586073 0.369236
vn 0.4831973 0.7522328 -0.4479578
v 0.12597 0.687635 0.1907268
vt 0.587784 0.371398
vn 0.4548338 0.8632094 0.2190794
v 0.172359 0.6052453 0.2706012
vt 0.592423 0.354922
vn 0.7557481 0.3677869 0.541828
v 0 0.6898364 0.02032086
vt 0.575187 0.371838
vn 0 0.7769197 -0.6295997
v 0 0.6919606 0.2543159
vt 0.575187 0.372263
vn 0 0.8390695 0.5440243
v -0.0533104 0.5748481 0.3533759
vt 0.569856 0.348843
vn -0.2222389 0.3322413 0.9166382
v 0 0.7140278 0.1399386
vt 0.575187 0.376675
vn 0 0.9997742 -0.0212492
v 0.0533104 0.5748481 0.3533759
vt 0.580518 0.348843
vn 0.2222389 0.3322413 0.9166382
v 0.12485 0.800364 0.1100494
vt 0.0502237 0.742893
vn -0.1231368 0.8154691 0.5655505
v 0.0963011 0.6584469 0.241172
vt 0.0392576 0.719156
vn -0.2127552 0.0001797482 0.9771055
v 0.14688 0.7751955 0.08803547
vt 0.0520648 0.738684
vn 0.9220876 -0.3781988 0.08197781
v 0.113966 0.7751955 0.08086716
vt 0.0526643 0.738684
vn -0.8391466 -0.4383818 -0.3219541
v 0.214015 0.8529765 -0.1411393
vt 0.0712311 0.751694
vn 0.8419754 -0.5301425 -0.1001321
v 0.148186 0.8529765 -0.1554753
vt 0.0724301 0.751694
vn -0.7042711 -0.5550207 -0.4426669
v 0.169954 0.9033126 -0.09711132
vt 0.067549 0.760113
vn -0.08078288 0.9251015 0.3710272
v 0.188527 0.9045188 -0.1824181
vt 0.0746834 0.760315
vn 0.1408344 0.749498 -0.6468527
v -0.12485 0.800364 0.1100494
vn 0.1231348 0.8154688 0.5655513
v -0.14688 0.7751955 0.08803547
vn -0.9220879 -0.3781979 0.08197745
v -0.0963011 0.6584469 0.241172
vn 0.2127332 0.0001812292 0.9771103
v -0.214015 0.8529765 -0.1411393
vn -0.8419762 -0.5301414 -0.1001311
v -0.113966 0.7751955 0.08086716
vn 0.8391467 -0.4383807 -0.3219552
v -0.169954 0.9033126 -0.09711142
vn 0.08078282 0.925101 0.3710284
v -0.148186 0.8529765 -0.1554753
vn 0.704272 -0.5550203 -0.4426664
v -0.188527 0.9045188 -0.1824181
vn -0.1408345 0.7494976 -0.6468532
v -0.206897 0.4495832 0.1529875
vt 0.89332 0.244933
vn -0.9900866 -0.1280068 0.05781617
vt 0.857293 0.00039183
v -0.166469 0.4387387 0.2793804
vt 0.707803 0.213098
vn -0.7960867 -0.2134622 0.566286
vt 1.01917 0.141179
vt 0.72069 0.701886
vt 1.0576 0.442506
vt 0.933406 0.751173
vt 0.732344 -0.0641806
vt 1.00258 -0.0727187
v 0.206897 0.4495832 0.1529875
vn 0.9900866 -0.1280068 0.05781617
v 0.166469 0.4387387 0.2793804
vn 0.7960867 -0.2134622 0.566286
v 0 0.3762708 0.3233417
vt 0.75 0.789716
vn 0 -0.7222877 0.6915927
vt 0.620681 0.647685
vt 0.75 0.517203
v -0.0620608 0.4370424 0.3645845
vt 0.672424 0.941623
vn -0.2894912 -0.1306675 0.9482198
vt 0.879319 0.647685
v 0.0620608 0.4370424 0.3645845
vt 0.827576 0.941623
vn 0.2894912 -0.1306675 0.9482198
vt 0.520293 0.945862
vt 0.979707 0.945862
vt 0.816638 0.979761
vt 0.683362 0.979761
v 0.154777 0.7202846 0.2387246
vt 0.0394623 0.729499
vn 0.8746594 -0.2717554 -0.4013974
v 0.125188 0.7340306 0.2958668
vt 0.0346834 0.731798
vn -0.08420946 0.004818496 0.9964364
v 0.0994786 0.6393821 0.2618259
vt 0.0375303 0.715967
vn -0.2994183 -0.8981354 0.3220271
v 0.147878 0.8009701 0.2675127
vt 0.0370546 0.742995
vn 0.2665498 0.9406714 0.2099721
v 0.1023 0.7361659 0.234211
vt 0.0398397 0.732155
vn -0.803955 0.2362568 -0.5457463
v -0.125188 0.7340306 0.2958668
vn 0.08420908 0.004818432 0.9964364
v -0.154777 0.7202836 0.2387246
vn -0.8746594 -0.2717554 -0.4013974
v -0.0994786 0.6393812 0.2618259
vn 0.2994184 -0.8981357 0.3220262
v -0.147878 0.8009701 0.2675127
vn -0.2665499 0.9406717 0.2099712
v -0.1023 0.7361659 0.234211
vn 0.803955 0.2362568 -0.5457463
o merged_0_0_node
g polygon_0
usemtl phong1_mat_id
f 1/1/1 2/2/2 3/3/3
f 1/1/1 4/4/4 2/2/2
f 1/1/1 3/3/3 5/5/5
f 1/1/1 6/6/6 4/4/4
f 1/1/1 5/5/5 7/1/7
f 1/1/1 8/7/8 6/6/6
f 1/1/1 7/1/7 9/8/9
f 1/1/1 10/8/10 8/7/8
f 1/1/1 9/8/9 10/8/10
f 2/2/2 11/9/11 3/3/3
f 2/2/2 4/4/4 12/10/12
f 2/2/2 13/11/13 11/9/11
f 2/2/2 12/10/12 14/12/14
f 2/2/2 14/12/14 13/11/13
f 11/9/11 13/11/13 3/3/3
f 5/5/5 15/3/15 7/1/7
f 5/5/5 3/3/3 16/13/16
f 5/5/5 16/13/16 15/3/15
f 6/6/6 8/7/8 17/14/17
f 6/6/6 18/15/18 4/4/4
f 6/6/6 17/14/17 19/6/19
f 6/6/6 20/16/20 18/15/18
f 6/6/6 19/6/19 20/16/20
f 9/8/9 21/17/21 10/8/10
f 9/8/9 7/1/7 22/7/22
f 9/8/9 22/7/22 21/17/21
f 14/12/14 23/18/23 13/11/13
f 14/12/14 24/12/24 23/18/23
f 3/3/3 25/19/25 16/13/16
f 3/3/3 13/11/13 25/19/25
f 13/11/13 23/18/23 25/19/25
f 16/13/16 25/19/25 15/3/15
f 8/7/8 26/20/26 17/14/17
f 8/7/8 10/8/10 27/17/27
f 8/7/8 27/17/27 26/20/26
f 10/8/10 21/17/21 27/17/27
f 19/6/19 28/15/28 20/16/20
f 19/6/19 22/7/22 7/1/7
f 19/6/19 17/14/17 29/14/29
f 19/6/19 30/4/30 28/15/28
f 19/6/19 29/14/29 22/7/22
f 19/6/19 7/1/7 30/4/30
f 17/14/17 26/20/26 29/14/29
f 24/12/24 31/11/31 23/18/23
f 24/12/24 32/2/32 31/11/31
f 24/12/24 33/10/33 32/2/32
f 30/4/30 7/1/7 32/2/32
f 30/4/30 32/2/32 33/10/33
f 25/19/25 31/11/31 15/3/15
f 25/19/25 23/18/23 31/11/31
f 7/1/7 15/3/15 32/2/32
f 21/17/21 34/20/34 27/17/27
f 21/17/21 22/7/22 34/20/34
f 34/20/34 29/14/29 26/20/26
f 34/20/34 26/20/26 27/17/27
f 34/20/34 22/7/22 29/14/29
f 31/11/31 35/9/35 15/3/15
f 31/11/31 32/2/32 35/9/35
f 35/9/35 32/2/32 15/3/15
f 36/21/36 12/22/12 4/23/4
f 36/21/36 37/24/37 12/22/12
f 36/21/36 4/23/4 18/25/18
f 36/21/36 38/26/38 37/24/37
f 36/21/36 18/25/18 39/27/39
f 36/21/36 40/28/40 38/26/38
f 36/21/36 39/27/39 41/29/41
f 36/21/36 41/29/41 40/28/40
f 12/22/12 37/24/37 14/30/14
f 37/24/37 38/26/38 14/30/14
f 18/25/18 42/31/42 39/27/39
f 18/25/18 20/32/20 42/31/42
f 41/29/41 28/33/28 40/28/40
f 41/29/41 39/27/39 43/34/43
f 41/29/41 43/34/43 28/33/28
f 39/27/39 42/31/42 43/34/43
f 38/26/38 24/35/24 14/30/14
f 38/26/38 40/28/40 44/36/44
f 38/26/38 44/36/44 24/35/24
f 20/32/20 28/33/28 43/34/43
f 20/32/20 45/37/45 42/31/42
f 20/32/20 43/34/43 45/37/45
f 45/37/45 43/34/43 42/31/42
f 40/28/40 33/38/33 44/36/44
f 40/28/40 28/33/28 30/39/30
f 40/28/40 30/39/30 33/38/33
f 33/38/33 24/35/24 44/36/44
f 46/40/46 47/41/47 48/42/48
f 46/40/46 49/43/49 47/41/47
f 46/40/46 48/42/48 50/44/50
f 46/40/46 51/45/51 49/43/49
f 46/40/46 50/44/50 52/46/52
f 46/40/46 53/47/53 51/45/51
f 46/40/46 52/46/52 54/48/54
f 46/40/46 54/48/54 53/47/53
f 48/42/48 55/49/55 50/44/50
f 48/42/48 56/50/56 55/49/55
f 52/46/52 50/44/50 57/51/57
f 52/46/52 57/51/57 58/52/58
f 56/50/56 59/53/59 55/49/55
f 50/44/50 60/54/60 57/51/57
f 50/44/50 55/49/55 60/54/60
f 58/52/58 57/51/57 61/55/61
f 59/53/59 62/56/62 55/49/55
f 59/53/59 63/57/63 62/56/62
f 60/54/60 64/58/64 57/51/57
f 60/54/60 55/49/55 64/58/64
f 55/49/55 62/56/62 64/58/64
f 61/55/61 57/51/57 65/59/65
f 61/55/61 65/59/65 66/60/66
f 57/51/57 64/58/64 65/59/65
f 63/57/63 67/61/67 62/56/62
f 63/57/63 68/62/68 67/61/67
f 63/57/63 69/63/69 68/62/68
f 66/60/66 65/59/65 70/64/70
f 66/60/66 70/64/70 71/65/71
f 66/60/66 71/65/71 72/66/72
f 64/58/64 62/56/62 73/67/73
f 64/58/64 73/67/73 65/59/65
f 65/59/65 73/67/73 70/64/70
f 62/56/62 67/61/67 73/67/73
f 69/63/69 74/68/74 68/62/68
f 69/63/69 75/69/75 74/68/74
f 71/65/71 74/68/74 72/66/72
f 71/65/71 70/64/70 76/70/76
f 71/65/71 76/70/76 74/68/74
f 76/70/76 67/61/67 68/62/68
f 76/70/76 73/67/73 67/61/67
f 76/70/76 70/64/70 73/67/73
f 76/70/76 68/62/68 74/68/74
f 75/69/75 77/71/77 74/68/74
f 74/68/74 77/71/77 72/66/72
f 78/72/78 79/73/79 80/74/80
f 78/72/78 81/75/81 79/73/79
f 78/72/78 80/74/80 82/76/82
f 78/72/78 83/77/83 81/75/81
f 78/72/78 82/76/82 84/78/84
f 78/72/78 84/78/84 83/77/83
f 81/75/81 80/74/80 79/73/79
f 81/75/81 83/77/83 82/76/82
f 81/75/81 82/76/82 80/74/80
f 84/78/84 85/79/85 83/77/83
f 84/78/84 82/76/82 85/79/85
f 85/79/85 82/76/82 83/77/83
f 86/72/86 87/74/87 88/73/88
f 86/72/86 89/76/89 87/74/87
f 86/72/86 88/73/88 90/75/90
f 86/72/86 91/78/91 89/76/89
f 86/72/86 90/75/90 92/77/92
f 86/72/86 92/77/92 91/78/91
f 90/75/90 88/73/88 87/74/87
f 90/75/90 89/76/89 92/77/92
f 90/75/90 87/74/87 89/76/89
f 91/78/91 92/77/92 93/79/93
f 91/78/91 93/79/93 89/76/89
f 89/76/89 93/79/93 92/77/92
f 94/80/94 47/81/47 95/82/95
f 94/80/94 56/83/56 47/81/47
f 94/80/94 95/82/95 69/84/69
f 94/80/94 59/85/59 56/83/56
f 94/80/94 69/84/69 63/86/63
f 94/80/94 63/86/63 59/85/59
f 47/81/47 49/87/49 95/82/95
f 47/81/47 56/83/56 48/88/48
f 96/80/96 97/82/97 54/81/54
f 96/80/96 72/84/72 97/82/97
f 96/80/96 54/81/54 58/83/58
f 96/80/96 66/86/66 72/84/72
f 96/80/96 58/83/58 61/85/61
f 96/80/96 61/85/61 66/86/66
f 97/82/97 53/87/53 54/81/54
f 58/83/58 54/81/54 52/88/52
f 98/89/98 49/90/49 51/91/51
f 98/89/98 99/92/99 49/90/49
f 98/89/98 51/91/51 53/93/53
f 98/89/98 100/94/100 99/92/99
f 98/89/98 53/93/53 100/94/100
f 49/90/49 99/92/99 95/95/95
f 53/93/53 97/96/97 100/94/100
f 99/92/99 100/94/100 77/97/77
f 99/92/99 77/97/77 75/98/75
f 101/99/101 102/100/102 103/101/103
f 101/99/101 104/102/104 102/100/102
f 101/99/101 103/101/103 105/103/105
f 101/99/101 105/103/105 104/102/104
f 105/103/105 103/101/103 102/100/102
f 105/103/105 102/100/102 104/102/104
f 106/100/106 107/99/107 108/101/108
f 106/100/106 109/102/109 107/99/107
f 106/100/106 108/101/108 110/103/110
f 106/100/106 110/103/110 109/102/109
f 110/103/110 108/101/108 107/99/107
f 110/103/110 107/99/107 109/102/109
vt 0.862371 0.782584
vt 0.253846 0.780465
vt 0.915633 0.990688
vt 0.210094 0.952697
o merged_1_0_node
g polygon_0
usemtl TEX_ANIM_EYE_mat_id
f 95/104/95 99/105/99 69/106/69
f 99/105/99 75/107/75 69/106/69
f 77/107/77 100/105/100 72/106/72
f 72/106/72 100/105/100 97/104/97
