ply
format ascii 1.0
element vertex 877
property float x
property float y
property float z
property uchar red
property uchar green
property uchar blue
element face 1058
property list uchar int vertex_index
end_header
0.26319 -0.35059 1.52588E-07 212 213 214
0.26319 -0.35059 0.1326 212 213 214
0.36151 -0.35072 0.1326 212 213 214
0.36151 -0.35072 1.52588E-07 212 213 214
0.26339 -0.2005 1.52588E-07 212 213 214
0.3617 -0.20063 1.52588E-07 212 213 214
0.3617 -0.20063 0.1326 212 213 214
0.24269 0.20412 1.1737 209 199 144
0.24226 0.28392 0.88749 209 199 144
0.38237 0.28374 0.88749 209 199 144
0.3828 0.20394 1.1737 209 199 144
0.38237 0.28374 0.79109 209 199 144
0.24226 0.28392 0.79109 209 199 144
0.35693 0.16039 0.1326 209 199 144
0.38304 0.16035 0.1326 209 199 144
0.26903 0.16049 0.1326 209 199 144
0.24293 0.16053 0.1326 209 199 144
0.24293 0.16053 1.52588E-07 209 199 144
0.14201 0.16048 1.52588E-07 209 199 144
0.14201 0.16048 0.1326 209 199 144
0.10701 0.13263 1.52588E-07 209 199 144
0.10701 0.13263 0.1326 209 199 144
0.26341 -0.05625 1.52588E-07 209 199 144
0.26903 0.16049 1.52588E-07 209 199 144
0.26916 0.24514 0.1326 209 199 144
0.26916 0.24514 1.52588E-07 209 199 144
0.19885 -0.05625 1.52588E-07 209 199 144
0.35693 0.16039 1.52588E-07 209 199 144
0.38304 0.16035 1.52588E-07 209 199 144
0.47982 0.16039 0.1326 209 199 144
0.47982 0.16039 1.52588E-07 209 199 144
0.51068 0.13263 0.1326 209 199 144
0.51068 0.13263 1.52588E-07 209 199 144
0.41881 -0.05625 1.52588E-07 209 199 144
0.36189 -0.05625 1.52588E-07 209 199 144
0.10707 -0.16361 1.52588E-07 209 199 144
0.1988 -0.16366 1.52588E-07 209 199 144
0.1988 -0.16366 0.1326 209 199 144
0.19885 -0.05625 0.1326 209 199 144
0.26341 -0.05625 0.1326 209 199 144
0.35703 0.24502 1.52588E-07 209 199 144
0.35703 0.24502 0.1326 209 199 144
0.41909 -0.29503 1.52588E-07 212 213 214
0.41909 -0.29503 0.1326 212 213 214
0.51082 -0.29483 0.1326 212 213 214
0.51082 -0.29483 1.52588E-07 212 213 214
0.41888 -0.16767 1.52588E-07 212 213 214
0.5106 -0.16748 1.52588E-07 212 213 214
0.41888 -0.16767 0.1326 212 213 214
0.107 -0.29432 1.52588E-07 212 213 214
0.107 -0.29432 0.1326 212 213 214
0.19874 -0.29437 0.1326 212 213 214
0.19874 -0.29437 1.52588E-07 212 213 214
0.10707 -0.16361 1.52588E-07 212 213 214
0.1988 -0.16366 1.52588E-07 212 213 214
0.1988 -0.16366 0.1326 212 213 214
0.24299 0.10216 0.86581 209 199 144
0.24342 0.02236 1.1737 209 199 144
0.3816 0.02218 1.1737 209 199 144
0.38116 0.10198 0.86581 209 199 144
0.24299 0.10216 0.81277 209 199 144
0.38116 0.10198 0.81277 209 199 144
0.24366 -0.02123 0.1326 209 199 144
0.38183 -0.02141 0.1326 209 199 144
0.26929 0.34455 0.1326 212 213 214
0.26929 0.34455 1.52588E-07 212 213 214
0.35716 0.34443 1.52588E-07 212 213 214
0.35716 0.34443 0.1326 212 213 214
0.35703 0.24502 1.52588E-07 212 213 214
0.26916 0.24514 1.52588E-07 212 213 214
0.26916 0.24514 0.1326 212 213 214
0.38183 -0.02141 0.1326 218 208 150
0.36189 -0.05625 0.1326 218 208 150
0.26341 -0.05625 0.1326 218 208 150
0.24366 -0.02123 0.1326 218 208 150
0.41881 -0.05625 0.1326 218 208 150
0.51068 0.13263 0.1326 218 208 150
0.47982 0.16039 0.1326 218 208 150
0.38304 0.16035 0.1326 218 208 150
0.5106 -0.16748 0.1326 218 208 150
0.41888 -0.16767 0.1326 218 208 150
0.5106 -0.16748 0.1326 212 213 214
0.5106 -0.16748 0.1326 220 221 222
0.51082 -0.29483 0.1326 220 221 222
0.41909 -0.29503 0.1326 220 221 222
0.41888 -0.16767 0.1326 220 221 222
0.1988 -0.16366 0.1326 220 221 222
0.19874 -0.29437 0.1326 220 221 222
0.107 -0.29432 0.1326 220 221 222
0.10707 -0.16361 0.1326 220 221 222
0.10707 -0.16361 0.1326 212 213 214
0.3617 -0.20063 0.1326 220 221 222
0.36151 -0.35072 0.1326 220 221 222
0.26319 -0.35059 0.1326 220 221 222
0.26339 -0.2005 0.1326 220 221 222
0.26339 -0.2005 0.1326 212 213 214
0.26916 0.24514 0.1326 220 221 222
0.26929 0.34455 0.1326 220 221 222
0.35716 0.34443 0.1326 220 221 222
0.35703 0.24502 0.1326 220 221 222
0.35703 0.24502 0.1326 212 213 214
0.5106 -0.16748 1.52588E-07 209 199 144
0.5106 -0.16748 0.1326 209 199 144
0.41888 -0.16767 1.52588E-07 209 199 144
0.41881 -0.05625 0.1326 209 199 144
0.41888 -0.16767 0.1326 209 199 144
0.36189 -0.05625 0.1326 209 199 144
0.3617 -0.20063 0.1326 209 199 144
0.3617 -0.20063 1.52588E-07 209 199 144
0.26339 -0.2005 1.52588E-07 209 199 144
0.10707 -0.16361 0.1326 209 199 144
0.19885 -0.05625 0.1326 218 208 150
0.14201 0.16048 0.1326 218 208 150
0.10701 0.13263 0.1326 218 208 150
0.10707 -0.16361 0.1326 218 208 150
0.1988 -0.16366 0.1326 218 208 150
0.24293 0.16053 0.1326 218 208 150
0.26903 0.16049 0.1326 218 208 150
0.26916 0.24514 0.1326 218 208 150
0.35703 0.24502 0.1326 218 208 150
0.35693 0.16039 0.1326 218 208 150
0.26339 -0.2005 0.1326 218 208 150
0.3617 -0.20063 0.1326 218 208 150
0.26339 -0.2005 0.1326 209 199 144
0.43524 0.68741 1.57159 228 148 137
0.43336 1.04261 1.32499 228 148 137
0.43336 0.99948 1.26291 228 148 137
0.43524 0.64428 1.50951 228 148 137
0.16625 0.99939 1.2628 240 183 176
0.43336 0.99948 1.26291 240 183 176
0.43336 1.25933 1.08223 240 183 176
0.16625 1.25933 1.08224 240 183 176
0.19744 1.29777 1.05542 240 183 176
0.40774 1.29779 1.0555 240 183 176
-0.16625 1.25933 1.08224 240 183 176
-0.16625 0.99939 1.2628 240 183 176
-0.43338 1.25933 1.08223 240 183 176
-0.43336 0.99948 1.26291 240 183 176
-0.1974 1.29756 1.05556 240 183 176
-0.4077 1.29801 1.05535 240 183 176
-0.16625 1.41022 0.97743 240 183 176
0.16625 1.41022 0.97743 240 183 176
0.13637 1.45688 0.94502 240 183 176
-0.13638 1.45688 0.94502 240 183 176
0.16625 1.30241 1.14436 240 183 176
0.16625 1.45335 1.03951 240 183 176
-0.16625 1.45335 1.03951 240 183 176
-0.16625 1.30241 1.14436 240 183 176
-0.19739 1.34069 1.11764 240 183 176
-0.40768 1.34114 1.11743 240 183 176
-0.43336 1.3024 1.14435 240 183 176
-0.43336 1.04261 1.32499 240 183 176
-0.13638 1.50001 1.0071 240 183 176
0.13637 1.50001 1.0071 240 183 176
0.40772 1.34092 1.11758 240 183 176
0.19743 1.34089 1.11749 240 183 176
0.43334 1.3024 1.14435 240 183 176
0.43336 1.04261 1.32499 240 183 176
0.43336 1.04261 1.32499 239 155 143
0.43524 0.68741 1.57159 239 155 143
0.16625 1.04252 1.32487 239 155 143
-0.16625 1.04252 1.32487 239 155 143
-0.43524 0.68741 1.57159 239 155 143
-0.43336 1.04261 1.32499 239 155 143
0.16625 1.30241 1.14436 251 192 183
0.19743 1.34089 1.11749 251 192 183
0.40772 1.34092 1.11758 251 192 183
0.43334 1.3024 1.14435 251 192 183
0.16625 1.04252 1.32487 251 192 183
0.43336 1.04261 1.32499 251 192 183
-0.16625 1.04252 1.32487 251 192 183
-0.16625 1.30241 1.14436 251 192 183
0.16625 1.45335 1.03951 251 192 183
-0.16625 1.45335 1.03951 251 192 183
0.13637 1.50001 1.0071 251 192 183
-0.13638 1.50001 1.0071 251 192 183
-0.43336 1.3024 1.14435 251 192 183
-0.40768 1.34114 1.11743 251 192 183
-0.19739 1.34069 1.11764 251 192 183
-0.43336 1.04261 1.32499 251 192 183
0.16625 0.99939 1.2628 228 148 137
-0.16625 0.99939 1.2628 228 148 137
-0.43524 0.64428 1.50951 228 148 137
-0.43336 0.99948 1.26291 228 148 137
-0.43336 1.04261 1.32499 228 148 137
-0.43524 0.68741 1.57159 228 148 137
-0.26319 -0.35059 1.52588E-07 212 213 214
-0.36151 -0.35072 1.52588E-07 212 213 214
-0.36151 -0.35072 0.1326 212 213 214
-0.26319 -0.35059 0.1326 212 213 214
-0.26339 -0.2005 1.52588E-07 212 213 214
-0.3617 -0.20063 1.52588E-07 212 213 214
-0.3617 -0.20063 0.1326 212 213 214
-0.24269 0.20412 1.1737 209 199 144
-0.3828 0.20394 1.1737 209 199 144
-0.38237 0.28374 0.88749 209 199 144
-0.24226 0.28392 0.88749 209 199 144
-0.38237 0.28374 0.79109 209 199 144
-0.24226 0.28392 0.79109 209 199 144
-0.35693 0.16039 0.1326 209 199 144
-0.38304 0.16035 0.1326 209 199 144
-0.26903 0.16049 0.1326 209 199 144
-0.24293 0.16053 0.1326 209 199 144
-0.24293 0.16053 1.52588E-07 209 199 144
-0.14201 0.16048 1.52588E-07 209 199 144
-0.14201 0.16048 0.1326 209 199 144
-0.10701 0.13263 1.52588E-07 209 199 144
-0.10701 0.13263 0.1326 209 199 144
-0.26341 -0.05625 1.52588E-07 209 199 144
-0.26903 0.16049 1.52588E-07 209 199 144
-0.26916 0.24514 0.1326 209 199 144
-0.26916 0.24514 1.52588E-07 209 199 144
-0.19885 -0.05625 1.52588E-07 209 199 144
-0.35693 0.16039 1.52588E-07 209 199 144
-0.38304 0.16035 1.52588E-07 209 199 144
-0.47982 0.16039 0.1326 209 199 144
-0.47982 0.16039 1.52588E-07 209 199 144
-0.51068 0.13263 0.1326 209 199 144
-0.51068 0.13263 1.52588E-07 209 199 144
-0.41881 -0.05625 1.52588E-07 209 199 144
-0.36189 -0.05625 1.52588E-07 209 199 144
-0.10707 -0.16361 1.52588E-07 209 199 144
-0.1988 -0.16366 1.52588E-07 209 199 144
-0.1988 -0.16366 0.1326 209 199 144
-0.19885 -0.05625 0.1326 209 199 144
-0.26341 -0.05625 0.1326 209 199 144
-0.35703 0.24502 1.52588E-07 209 199 144
-0.35703 0.24502 0.1326 209 199 144
-0.41909 -0.29503 1.52588E-07 212 213 214
-0.51082 -0.29483 1.52588E-07 212 213 214
-0.51082 -0.29483 0.1326 212 213 214
-0.41909 -0.29503 0.1326 212 213 214
-0.41888 -0.16767 1.52588E-07 212 213 214
-0.5106 -0.16748 1.52588E-07 212 213 214
-0.41888 -0.16767 0.1326 212 213 214
-0.107 -0.29432 1.52588E-07 212 213 214
-0.19874 -0.29437 1.52588E-07 212 213 214
-0.19874 -0.29437 0.1326 212 213 214
-0.107 -0.29432 0.1326 212 213 214
-0.10707 -0.16361 1.52588E-07 212 213 214
-0.1988 -0.16366 1.52588E-07 212 213 214
-0.1988 -0.16366 0.1326 212 213 214
-0.24299 0.10216 0.86581 209 199 144
-0.38116 0.10198 0.86581 209 199 144
-0.3816 0.02218 1.1737 209 199 144
-0.24342 0.02236 1.1737 209 199 144
-0.24299 0.10216 0.81277 209 199 144
-0.38116 0.10198 0.81277 209 199 144
-0.24366 -0.02123 0.1326 209 199 144
-0.38183 -0.02141 0.1326 209 199 144
-0.26929 0.34455 0.1326 212 213 214
-0.35716 0.34443 0.1326 212 213 214
-0.35716 0.34443 1.52588E-07 212 213 214
-0.26929 0.34455 1.52588E-07 212 213 214
-0.35703 0.24502 1.52588E-07 212 213 214
-0.26916 0.24514 1.52588E-07 212 213 214
-0.26916 0.24514 0.1326 212 213 214
-0.38183 -0.02141 0.1326 218 208 150
-0.24366 -0.02123 0.1326 218 208 150
-0.26341 -0.05625 0.1326 218 208 150
-0.36189 -0.05625 0.1326 218 208 150
-0.41881 -0.05625 0.1326 218 208 150
-0.51068 0.13263 0.1326 218 208 150
-0.47982 0.16039 0.1326 218 208 150
-0.38304 0.16035 0.1326 218 208 150
-0.41888 -0.16767 0.1326 218 208 150
-0.5106 -0.16748 0.1326 218 208 150
-0.5106 -0.16748 0.1326 212 213 214
-0.5106 -0.16748 0.1326 220 221 222
-0.41888 -0.16767 0.1326 220 221 222
-0.41909 -0.29503 0.1326 220 221 222
-0.51082 -0.29483 0.1326 220 221 222
-0.1988 -0.16366 0.1326 220 221 222
-0.10707 -0.16361 0.1326 220 221 222
-0.107 -0.29432 0.1326 220 221 222
-0.19874 -0.29437 0.1326 220 221 222
-0.10707 -0.16361 0.1326 212 213 214
-0.3617 -0.20063 0.1326 220 221 222
-0.26339 -0.2005 0.1326 220 221 222
-0.26319 -0.35059 0.1326 220 221 222
-0.36151 -0.35072 0.1326 220 221 222
-0.26339 -0.2005 0.1326 212 213 214
-0.26916 0.24514 0.1326 220 221 222
-0.35703 0.24502 0.1326 220 221 222
-0.35716 0.34443 0.1326 220 221 222
-0.26929 0.34455 0.1326 220 221 222
-0.35703 0.24502 0.1326 212 213 214
-0.5106 -0.16748 0.1326 209 199 144
-0.5106 -0.16748 1.52588E-07 209 199 144
-0.41888 -0.16767 1.52588E-07 209 199 144
-0.41881 -0.05625 0.1326 209 199 144
-0.41888 -0.16767 0.1326 209 199 144
-0.36189 -0.05625 0.1326 209 199 144
-0.3617 -0.20063 0.1326 209 199 144
-0.3617 -0.20063 1.52588E-07 209 199 144
-0.26339 -0.2005 1.52588E-07 209 199 144
-0.10707 -0.16361 0.1326 209 199 144
-0.19885 -0.05625 0.1326 218 208 150
-0.14201 0.16048 0.1326 218 208 150
-0.10701 0.13263 0.1326 218 208 150
-0.10707 -0.16361 0.1326 218 208 150
-0.1988 -0.16366 0.1326 218 208 150
-0.24293 0.16053 0.1326 218 208 150
-0.26903 0.16049 0.1326 218 208 150
-0.35693 0.16039 0.1326 218 208 150
-0.35703 0.24502 0.1326 218 208 150
-0.26916 0.24514 0.1326 218 208 150
-0.26339 -0.2005 0.1326 218 208 150
-0.3617 -0.20063 0.1326 218 208 150
-0.26339 -0.2005 0.1326 209 199 144
0.77553 -1.44735 2.91099 239 227 177
0.77553 -1.44735 3.06477 239 227 177
0.91794 -1.44735 3.06477 239 227 177
0.91794 -1.44735 2.91099 239 227 177
0.74203 -1.40346 2.91099 239 227 177
0.95144 -1.40346 2.91099 239 227 177
0.95144 -1.40346 3.06477 239 227 177
0.74203 -1.40346 3.06477 239 227 177
0.74203 -0.42453 2.91099 239 227 177
0.74203 -0.42453 3.06477 239 227 177
0.95144 -0.42453 2.91099 239 227 177
0.95144 -0.42453 3.06477 239 227 177
0.95144 -0.42453 3.06477 245 233 182
0.95144 -1.40346 3.06477 245 233 182
0.74203 -1.40346 3.06477 245 233 182
0.74203 -0.42453 3.06477 245 233 182
0.77553 -1.44735 3.06477 245 233 182
0.91794 -1.44735 3.06477 245 233 182
0.13309 -0.08374 2.125 209 199 144
0.74689 -0.08427 2.77985 209 199 144
0.94658 -0.08427 2.77985 209 199 144
0.33278 -0.08374 2.125 209 199 144
0.94658 0.11542 2.77985 209 199 144
0.33278 0.11595 2.125 209 199 144
0.13309 0.11595 2.125 209 199 144
0.74689 0.11542 2.77985 209 199 144
1.12113 -0.38982 3.4554 137 182 100
0.57234 -0.38982 3.4554 137 182 100
0.52433 -0.3455 3.4554 137 182 100
1.16914 -0.3455 3.4554 137 182 100
0.52433 0.2088 3.4554 137 182 100
1.16914 0.2088 3.4554 137 182 100
1.16854 0.20823 2.75261 132 175 97
0.52493 0.20823 2.75261 132 175 97
0.52493 -0.34493 2.75261 132 175 97
1.16854 -0.34493 2.75261 132 175 97
1.12063 0.25247 2.75261 132 175 97
1.15162 0.29221 2.7833 132 175 97
1.20496 0.24296 2.7833 132 175 97
1.20496 0.24296 3.42448 132 175 97
1.15162 0.29221 3.42448 132 175 97
1.12113 0.25312 3.4554 132 175 97
0.54185 0.29221 3.42448 132 175 97
0.57234 0.25312 3.4554 132 175 97
1.16914 0.2088 3.4554 132 175 97
1.20496 -0.37966 3.42448 132 175 97
1.16914 -0.3455 3.4554 132 175 97
1.15162 -0.4289 3.42448 132 175 97
1.20496 -0.37966 2.7833 132 175 97
1.15162 -0.4289 2.7833 132 175 97
1.12113 -0.38982 3.4554 132 175 97
1.12063 -0.38917 2.75261 132 175 97
0.54185 -0.4289 2.7833 132 175 97
0.57285 -0.38917 2.75261 132 175 97
0.48851 -0.37966 2.7833 132 175 97
0.54185 -0.4289 3.42448 132 175 97
0.48851 -0.37966 3.42448 132 175 97
0.48851 0.24296 3.42448 132 175 97
0.48851 0.24296 2.7833 132 175 97
0.52433 -0.3455 3.4554 132 175 97
0.57234 -0.38982 3.4554 132 175 97
0.52433 0.2088 3.4554 132 175 97
0.54185 0.29221 2.7833 132 175 97
0.57285 0.25247 2.75261 132 175 97
0.84674 -0.4289 3.42448 132 175 97
0.82633 -0.4289 3.22538 132 175 97
0.80715 -0.4289 3.22538 132 175 97
0.80708 -0.4289 3.15744 132 175 97
0.60772 -0.4289 3.15744 132 175 97
0.80708 -0.4119 3.15744 132 175 97
0.60772 -0.4119 3.15744 132 175 97
0.65685 -0.4289 3.10238 132 175 97
0.65685 -0.4119 3.10238 132 175 97
0.74663 -0.4289 3.10238 132 175 97
0.74663 -0.4119 3.10238 132 175 97
0.94684 -0.4289 3.10238 132 175 97
1.03662 -0.4289 3.10238 132 175 97
0.94684 -0.4119 3.10238 132 175 97
0.88639 -0.4289 3.15744 132 175 97
0.86855 -0.4289 3.15744 132 175 97
0.88639 -0.4119 3.15744 132 175 97
1.08575 -0.4289 3.15744 132 175 97
1.08575 -0.4119 3.15744 132 175 97
1.03662 -0.4119 3.10238 132 175 97
0.88637 -0.4289 3.22538 132 175 97
0.86827 -0.4289 3.22538 132 175 97
0.82615 -0.4289 3.15744 132 175 97
0.57234 0.25312 3.4554 137 182 100
1.12113 0.25312 3.4554 137 182 100
-0.90084 -1.44735 2.89341 239 227 177
-0.90084 -1.44735 3.06856 239 227 177
-0.75842 -1.44735 3.06856 239 227 177
-0.75842 -1.44735 2.89341 239 227 177
-0.93433 -1.40346 2.89341 239 227 177
-0.72493 -1.40346 2.89341 239 227 177
-0.72493 -0.42484 2.89341 239 227 177
-0.93433 -0.42484 2.89341 239 227 177
-0.72493 -0.42453 3.06856 239 227 177
-0.72493 -1.40346 3.06856 239 227 177
-0.93433 -1.40346 3.06856 239 227 177
-0.93433 -0.42453 3.06856 239 227 177
-0.72493 -0.42453 3.06856 245 233 182
-0.72493 -1.40346 3.06856 245 233 182
-0.93433 -1.40346 3.06856 245 233 182
-0.93433 -0.42453 3.06856 245 233 182
-0.90084 -1.44735 3.06856 245 233 182
-0.75842 -1.44735 3.06856 245 233 182
-0.33843 -0.08374 2.125 209 199 144
-0.92948 -0.08427 2.78364 209 199 144
-0.72978 -0.08427 2.78364 209 199 144
-0.13873 -0.08374 2.125 209 199 144
-0.72978 0.11542 2.78364 209 199 144
-0.13873 0.11595 2.125 209 199 144
-0.33843 0.11595 2.125 209 199 144
-0.92948 0.11542 2.78364 209 199 144
-0.55523 -0.38982 3.45918 137 182 100
-1.10403 -0.38982 3.45918 137 182 100
-1.15203 -0.3455 3.45918 137 182 100
-0.50723 -0.3455 3.45918 137 182 100
-1.15203 0.2088 3.45918 137 182 100
-0.50723 0.2088 3.45918 137 182 100
-0.50782 0.20823 2.7564 132 175 97
-1.15144 0.20823 2.7564 132 175 97
-1.15144 -0.34493 2.7564 132 175 97
-0.50782 -0.34493 2.7564 132 175 97
-0.55574 0.25247 2.7564 132 175 97
-0.52474 0.29221 2.78708 132 175 97
-0.4714 0.24296 2.78708 132 175 97
-0.4714 0.24296 3.42827 132 175 97
-0.52474 0.29221 3.42827 132 175 97
-0.55523 0.25312 3.45918 132 175 97
-1.13452 0.29221 3.42827 132 175 97
-1.10403 0.25312 3.45918 132 175 97
-0.50723 0.2088 3.45918 132 175 97
-0.4714 -0.37966 3.42827 132 175 97
-0.50723 -0.3455 3.45918 132 175 97
-0.52474 -0.4289 3.42827 132 175 97
-0.4714 -0.37966 2.78708 132 175 97
-0.52474 -0.4289 2.78708 132 175 97
-0.55523 -0.38982 3.45918 132 175 97
-0.55574 -0.38917 2.7564 132 175 97
-1.10352 -0.38917 2.7564 132 175 97
-1.18786 0.24296 3.42827 132 175 97
-1.13452 0.29221 2.78708 132 175 97
-1.18786 0.24296 2.78708 132 175 97
-1.15203 0.2088 3.45918 132 175 97
-1.18786 -0.37966 3.42827 132 175 97
-1.15203 -0.3455 3.45918 132 175 97
-1.13452 -0.4289 3.42827 132 175 97
-1.18786 -0.37966 2.78708 132 175 97
-1.13452 -0.4289 2.78708 132 175 97
-0.82963 -0.4289 2.78708 132 175 97
-1.10403 -0.38982 3.45918 132 175 97
-1.10352 0.25247 2.7564 132 175 97
-1.06865 -0.4289 3.21536 132 175 97
-1.06865 -0.4289 3.11373 132 175 97
-1.06865 -0.4119 3.21536 132 175 97
-1.06865 -0.4119 3.11373 132 175 97
-0.86928 -0.4119 3.11373 132 175 97
-0.86928 -0.4289 3.11373 132 175 97
-0.86948 -0.4289 3.15935 132 175 97
-0.82963 -0.4289 3.42827 132 175 97
-0.85436 -0.4289 3.15935 132 175 97
-0.8057 -0.4289 3.18891 132 175 97
-0.80572 -0.4289 3.11373 132 175 97
-0.85453 -0.4289 3.11373 132 175 97
-0.78999 -0.4289 3.18891 132 175 97
-0.78998 -0.4289 3.11373 132 175 97
-0.59061 -0.4289 3.21536 132 175 97
-0.59061 -0.4289 3.11373 132 175 97
-0.59061 -0.4119 3.21536 132 175 97
-0.59061 -0.4119 3.11373 132 175 97
-0.78998 -0.4119 3.11373 132 175 97
-1.10403 0.25312 3.45918 137 182 100
-0.55523 0.25312 3.45918 137 182 100
-0.07121 -1.44743 3.17113 239 227 177
-0.07121 -1.44743 3.32983 239 227 177
0.07121 -1.44743 3.32983 239 227 177
0.07121 -1.44743 3.17113 239 227 177
-0.1047 -1.40354 3.17113 239 227 177
0.1047 -1.40354 3.17113 239 227 177
0.1047 -0.42492 3.17113 239 227 177
-0.1047 -0.42492 3.17113 239 227 177
0.1047 -0.42461 3.32983 239 227 177
0.1047 -1.40354 3.32983 239 227 177
-0.1047 -1.40354 3.32983 239 227 177
-0.1047 -0.42461 3.32983 239 227 177
0.1047 -0.42461 3.32983 245 233 182
0.1047 -1.40354 3.32983 245 233 182
-0.1047 -1.40354 3.32983 245 233 182
-0.1047 -0.42461 3.32983 245 233 182
-0.07121 -1.44743 3.32983 245 233 182
0.07121 -1.44743 3.32983 245 233 182
-0.09985 -0.08454 2.125 209 199 144
-0.09985 -0.08435 3.04491 209 199 144
0.09985 -0.08435 3.04491 209 199 144
0.09985 -0.08454 2.125 209 199 144
0.09985 0.11534 3.04491 209 199 144
0.09985 0.11515 2.125 209 199 144
-0.09985 0.11515 2.125 209 199 144
-0.09985 0.11534 3.04491 209 199 144
0.2744 -0.3899 3.72046 137 182 100
-0.2744 -0.3899 3.72046 137 182 100
-0.3224 -0.34558 3.72046 137 182 100
0.3224 -0.34558 3.72046 137 182 100
-0.3224 0.20872 3.72046 137 182 100
0.3224 0.20872 3.72046 137 182 100
0.32181 0.20815 3.01767 132 175 97
-0.32181 0.20815 3.01767 132 175 97
-0.32181 -0.34501 3.01767 132 175 97
0.32181 -0.34501 3.01767 132 175 97
0.27389 0.25239 3.01767 132 175 97
0.30489 0.29213 3.04835 132 175 97
0.35823 0.24288 3.04835 132 175 97
0.35823 0.24288 3.68954 132 175 97
0.30489 0.29213 3.68954 132 175 97
0.2744 0.25304 3.72046 132 175 97
-0.30489 0.29213 3.68954 132 175 97
-0.2744 0.25304 3.72046 132 175 97
0.3224 0.20872 3.72046 132 175 97
-0.27389 0.25239 3.01767 132 175 97
-0.35823 0.24288 3.68954 132 175 97
-0.30489 0.29213 3.04835 132 175 97
-0.35823 0.24288 3.04835 132 175 97
-0.3224 0.20872 3.72046 132 175 97
0.35823 -0.37974 3.04835 132 175 97
0.35823 -0.37974 3.68954 132 175 97
0.30489 -0.42899 3.68954 132 175 97
0.30489 -0.42899 3.04835 132 175 97
0.3224 -0.34558 3.72046 132 175 97
0.2744 -0.3899 3.72046 132 175 97
0.27389 -0.38925 3.01767 132 175 97
-0.27389 -0.38925 3.01767 132 175 97
-0.35823 -0.37974 3.04835 132 175 97
-0.35823 -0.37974 3.68954 132 175 97
-0.30489 -0.42899 3.68954 132 175 97
-0.30489 -0.42899 3.04835 132 175 97
0 -0.42899 3.04835 132 175 97
-0.3224 -0.34558 3.72046 132 175 97
-0.2744 -0.3899 3.72046 132 175 97
-0.23902 -0.42899 3.47663 132 175 97
-0.23902 -0.42899 3.375 132 175 97
-0.23902 -0.41198 3.47663 132 175 97
-0.23902 -0.41198 3.375 132 175 97
-0.03965 -0.41198 3.375 132 175 97
-0.03965 -0.42899 3.375 132 175 97
-0.03958 -0.42899 3.45572 132 175 97
0 -0.42899 3.68954 132 175 97
-0.02362 -0.42899 3.45572 132 175 97
0.02191 -0.42899 3.42537 132 175 97
0.02217 -0.42899 3.375 132 175 97
-0.02343 -0.42899 3.375 132 175 97
0.0395 -0.42899 3.42537 132 175 97
0.03965 -0.42899 3.375 132 175 97
0.23902 -0.42899 3.47663 132 175 97
0.23902 -0.42899 3.375 132 175 97
0.23902 -0.41198 3.47663 132 175 97
0.23902 -0.41198 3.375 132 175 97
0.03965 -0.41198 3.375 132 175 97
-0.2744 0.25304 3.72046 137 182 100
0.2744 0.25304 3.72046 137 182 100
-0.44141 -0.03238 1.14427 94 92 93
-0.19259 -0.03238 1.14427 94 92 93
-0.19259 0.27417 1.14427 94 92 93
-0.44141 0.27417 1.14427 94 92 93
-0.46588 -0.05596 1.17442 94 92 93
-0.16797 -0.05596 1.17442 94 92 93
-0.46588 -0.05596 1.30821 94 92 93
-0.16797 -0.05596 1.30821 94 92 93
-0.16797 0.29775 1.17442 94 92 93
-0.16797 0.29775 1.30821 94 92 93
-0.46588 0.29775 1.30821 94 92 93
-0.51666 0.61387 1.30821 94 92 93
-0.51666 -0.3722 1.30821 94 92 93
-0.46588 0.29775 1.17442 94 92 93
0.16797 -0.05596 1.30821 94 92 93
0.51686 -0.3722 1.30821 94 92 93
0.43987 -0.44298 1.30821 94 92 93
-0.43975 -0.44298 1.30821 94 92 93
0.16797 0.29775 1.30821 94 92 93
0.51686 0.61387 1.30821 94 92 93
0.46588 0.29775 1.30821 94 92 93
-0.43975 0.68475 1.30821 94 92 93
0.43987 0.68475 1.30821 94 92 93
0.46658 0.71899 1.34835 94 92 93
-0.46645 0.71899 1.34835 94 92 93
0.46588 0.29775 1.17442 94 92 93
0.16797 0.29775 1.17442 94 92 93
0.16797 -0.05596 1.17442 94 92 93
0.19259 0.27417 1.14427 94 92 93
0.19259 -0.03238 1.14427 94 92 93
0.44141 0.27417 1.14427 94 92 93
0.44141 -0.03238 1.14427 94 92 93
0.46588 -0.05596 1.17442 94 92 93
0.46588 -0.05596 1.30821 94 92 93
0.54823 0.6438 1.34835 94 92 93
0.54823 -0.40214 1.34835 94 92 93
0.54823 0.6438 1.54744 94 92 93
0.54823 -0.40214 1.54744 94 92 93
0.46658 -0.47722 1.34835 94 92 93
0.46658 -0.47722 1.54744 94 92 93
0.34859 -0.47722 1.54744 94 92 93
0.46658 0.71899 1.54744 94 92 93
-0.46645 0.71899 1.54744 94 92 93
-0.54804 0.6438 1.34835 94 92 93
-0.54804 0.6438 1.54744 94 92 93
-0.54804 -0.40214 1.34835 94 92 93
-0.54804 -0.40214 1.54744 94 92 93
-0.46645 -0.47722 1.34835 94 92 93
-0.46645 -0.47722 1.54744 94 92 93
-0.34859 -0.47722 1.54744 94 92 93
-0.10301 -0.47722 1.54744 94 92 93
0.10301 -0.47722 1.54744 94 92 93
-0.12467 -0.47724 1.57634 94 92 93
-0.31913 -0.47724 1.57634 94 92 93
-0.12464 -0.47725 1.71034 94 92 93
-0.3191 -0.47725 1.71034 94 92 93
0.31913 -0.47724 1.57634 94 92 93
0.12467 -0.47724 1.57634 94 92 93
0.3191 -0.47725 1.71034 94 92 93
0.12464 -0.47725 1.71034 94 92 93
0.29679 -0.47725 1.74042 94 92 93
0.14857 -0.47725 1.74042 94 92 93
-0.29679 -0.47725 1.74042 94 92 93
-0.14857 -0.47725 1.74042 94 92 93
-0.54823 -0.40189 2.26867 132 175 97
-0.54804 -0.40214 1.54744 132 175 97
-0.54804 0.6438 1.54744 132 175 97
-0.54823 0.64367 2.26867 132 175 97
-0.46645 0.71899 1.54744 132 175 97
-0.4666 0.71904 2.26867 132 175 97
-0.41994 0.65922 2.31598 132 175 97
-0.49341 0.59139 2.31598 132 175 97
-0.49341 -0.34961 2.31598 132 175 97
-0.4666 -0.47725 2.26867 132 175 97
-0.41994 -0.41744 2.31598 132 175 97
-0.46645 -0.47722 1.54744 132 175 97
0.4666 -0.47725 2.26867 132 175 97
0.41994 -0.41744 2.31598 132 175 97
0.4666 0.71904 2.26867 132 175 97
0.46658 0.71899 1.54744 132 175 97
0.41994 0.65922 2.31598 132 175 97
0.49341 -0.34961 2.31598 132 175 97
0.54823 -0.40189 2.26867 132 175 97
0.46658 -0.47722 1.54744 132 175 97
0.54823 -0.40214 1.54744 132 175 97
0.49341 0.59139 2.31598 132 175 97
0.54823 0.64367 2.26867 132 175 97
0.54823 0.6438 1.54744 132 175 97
0.3191 -0.47725 1.71034 132 175 97
0.29679 -0.47725 1.74042 132 175 97
0.14857 -0.47725 1.74042 132 175 97
-0.14857 -0.47725 1.74042 132 175 97
-0.29679 -0.47725 1.74042 132 175 97
-0.12464 -0.47725 1.71034 132 175 97
0.12464 -0.47725 1.71034 132 175 97
-0.12467 -0.47724 1.57634 132 175 97
0.12467 -0.47724 1.57634 132 175 97
-0.10301 -0.47722 1.54744 132 175 97
0.10301 -0.47722 1.54744 132 175 97
-0.3191 -0.47725 1.71034 132 175 97
-0.31913 -0.47724 1.57634 132 175 97
-0.34859 -0.47722 1.54744 132 175 97
-0.41994 -0.41744 2.31598 137 182 100
-0.49341 -0.34961 2.31598 137 182 100
0.49341 -0.34961 2.31598 137 182 100
0.41994 -0.41744 2.31598 137 182 100
0.49341 0.59139 2.31598 137 182 100
-0.49341 0.59139 2.31598 137 182 100
-0.41994 0.65922 2.31598 137 182 100
0.41994 0.65922 2.31598 137 182 100
0.08063 -0.46077 3.49836 94 92 93
0 -0.46077 3.61798 94 92 93
0.10485 -0.46077 3.51872 94 92 93
0.10485 -0.42129 3.51872 94 92 93
0.08063 -0.42129 3.49836 94 92 93
0.24948 -0.46077 4.36536 94 92 93
0.13394 -0.46077 4.38464 94 92 93
0.24948 -0.42129 4.36536 94 92 93
0 -0.42129 3.61798 94 92 93
0.13394 -0.42129 4.38464 94 92 93
-0.13394 -0.46077 4.38464 94 92 93
-0.24948 -0.46077 4.36536 94 92 93
-0.10485 -0.46077 3.51872 94 92 93
-0.08063 -0.46077 3.49836 94 92 93
-0.10485 -0.42129 3.51872 94 92 93
-0.08063 -0.42129 3.49836 94 92 93
-0.24948 -0.42129 4.36536 94 92 93
-0.13394 -0.42129 4.38464 94 92 93
0.24392 -0.46077 4.38141 94 92 93
0.14441 -0.46077 4.39801 94 92 93
0.24392 -0.42129 4.38141 94 92 93
0.14441 -0.42129 4.39801 94 92 93
-0.24392 -0.42129 4.38141 94 92 93
-0.14441 -0.42129 4.39801 94 92 93
-0.14441 -0.46077 4.39801 94 92 93
-0.24392 -0.46077 4.38141 94 92 93
0.14441 -0.46077 4.39801 104 102 103
0.14441 -0.42129 4.39801 104 102 103
0.24392 -0.42129 4.38141 104 102 103
0.24392 -0.46077 4.38141 104 102 103
-0.14441 -0.46077 4.39801 104 102 103
-0.24392 -0.46077 4.38141 104 102 103
-0.24392 -0.42129 4.38141 104 102 103
-0.14441 -0.42129 4.39801 104 102 103
0.9265 -0.4572 3.23557 94 92 93
0.84586 -0.4572 3.35519 94 92 93
0.95071 -0.4572 3.25593 94 92 93
0.95071 -0.41772 3.25593 94 92 93
0.9265 -0.41772 3.23557 94 92 93
1.09534 -0.4572 4.10257 94 92 93
0.9798 -0.4572 4.12185 94 92 93
1.09534 -0.41772 4.10257 94 92 93
0.84586 -0.41772 3.35519 94 92 93
0.9798 -0.41772 4.12185 94 92 93
0.71192 -0.4572 4.12185 94 92 93
0.59639 -0.4572 4.10257 94 92 93
0.74102 -0.4572 3.25593 94 92 93
0.76523 -0.4572 3.23557 94 92 93
0.74102 -0.41772 3.25593 94 92 93
0.76523 -0.41772 3.23557 94 92 93
0.59639 -0.41772 4.10257 94 92 93
0.71192 -0.41772 4.12185 94 92 93
1.08978 -0.4572 4.11862 94 92 93
0.99027 -0.4572 4.13522 94 92 93
1.08978 -0.41772 4.11862 94 92 93
0.99027 -0.41772 4.13522 94 92 93
0.60194 -0.41772 4.11862 94 92 93
0.70146 -0.41772 4.13522 94 92 93
0.70146 -0.4572 4.13522 94 92 93
0.60194 -0.4572 4.11862 94 92 93
0.99027 -0.4572 4.13522 104 102 103
0.99027 -0.41772 4.13522 104 102 103
1.08978 -0.41772 4.11862 104 102 103
1.08978 -0.4572 4.11862 104 102 103
0.70146 -0.4572 4.13522 104 102 103
0.60194 -0.4572 4.11862 104 102 103
0.60194 -0.41772 4.11862 104 102 103
0.70146 -0.41772 4.13522 104 102 103
-0.74974 -0.4572 3.23557 94 92 93
-0.83037 -0.4572 3.35519 94 92 93
-0.72553 -0.4572 3.25593 94 92 93
-0.72553 -0.41772 3.25593 94 92 93
-0.74974 -0.41772 3.23557 94 92 93
-0.5809 -0.4572 4.10257 94 92 93
-0.69643 -0.4572 4.12185 94 92 93
-0.5809 -0.41772 4.10257 94 92 93
-0.83037 -0.41772 3.35519 94 92 93
-0.69643 -0.41772 4.12185 94 92 93
-0.96431 -0.4572 4.12185 94 92 93
-1.07985 -0.4572 4.10257 94 92 93
-0.93522 -0.4572 3.25593 94 92 93
-0.911 -0.4572 3.23557 94 92 93
-0.93522 -0.41772 3.25593 94 92 93
-0.911 -0.41772 3.23557 94 92 93
-1.07985 -0.41772 4.10257 94 92 93
-0.96431 -0.41772 4.12185 94 92 93
-0.58645 -0.4572 4.11862 94 92 93
-0.68597 -0.4572 4.13522 94 92 93
-0.58645 -0.41772 4.11862 94 92 93
-0.68597 -0.41772 4.13522 94 92 93
-1.07429 -0.41772 4.11862 94 92 93
-0.97478 -0.41772 4.13522 94 92 93
-0.97478 -0.4572 4.13522 94 92 93
-1.07429 -0.4572 4.11862 94 92 93
-0.68597 -0.4572 4.13522 104 102 103
-0.68597 -0.41772 4.13522 104 102 103
-0.58645 -0.41772 4.11862 104 102 103
-0.58645 -0.4572 4.11862 104 102 103
-0.97478 -0.4572 4.13522 104 102 103
-1.07429 -0.4572 4.11862 104 102 103
-1.07429 -0.41772 4.11862 104 102 103
-0.97478 -0.41772 4.13522 104 102 103
0.93599 -0.41923 3.13062 58 57 57
0.93599 -0.41923 3.1638 58 57 57
0.95883 -0.41923 3.1638 58 57 57
0.95883 -0.41923 3.13062 58 57 57
0.95883 -0.40744 3.1638 58 57 57
0.95883 -0.40744 3.13062 58 57 57
0.93599 -0.40744 3.13062 58 57 57
0.93599 -0.40744 3.1638 58 57 57
0.75749 -0.41923 3.13062 58 57 57
0.73464 -0.41923 3.13062 58 57 57
0.73464 -0.41923 3.1638 58 57 57
0.75749 -0.41923 3.1638 58 57 57
0.73464 -0.40744 3.1638 58 57 57
0.73464 -0.40744 3.13062 58 57 57
0.75749 -0.40744 3.13062 58 57 57
0.75749 -0.40744 3.1638 58 57 57
1.03662 -0.4119 3.10238 255 246 240
0.94684 -0.4119 3.10238 255 246 240
0.88639 -0.4119 3.15744 255 246 240
1.08575 -0.4119 3.15744 255 246 240
0.65685 -0.4119 3.10238 255 246 240
0.60772 -0.4119 3.15744 255 246 240
0.80708 -0.4119 3.15744 255 246 240
0.74663 -0.4119 3.10238 255 246 240
-0.75334 -0.41923 3.1107 58 57 57
-0.75334 -0.41923 3.13819 58 57 57
-0.72316 -0.41923 3.15439 58 57 57
-0.72316 -0.41923 3.1107 58 57 57
-0.72316 -0.40744 3.15439 58 57 57
-0.72316 -0.40744 3.1107 58 57 57
-0.75334 -0.40744 3.1107 58 57 57
-0.75334 -0.40744 3.13819 58 57 57
-0.90592 -0.41923 3.1107 58 57 57
-0.9361 -0.41923 3.1107 58 57 57
-0.9361 -0.41923 3.15439 58 57 57
-0.90592 -0.41923 3.13819 58 57 57
-0.9361 -0.40744 3.15439 58 57 57
-0.9361 -0.40744 3.1107 58 57 57
-0.90592 -0.40744 3.1107 58 57 57
-0.90592 -0.40744 3.13819 58 57 57
-0.59061 -0.4119 3.11373 255 246 240
-0.78998 -0.4119 3.11373 255 246 240
-0.59061 -0.4119 3.21536 255 246 240
-1.06865 -0.4119 3.11373 255 246 240
-1.06865 -0.4119 3.21536 255 246 240
-0.86928 -0.4119 3.11373 255 246 240
0.07629 -0.41931 3.37197 58 57 57
0.07629 -0.41931 3.39946 58 57 57
0.10647 -0.41931 3.41566 58 57 57
0.10647 -0.41931 3.37197 58 57 57
0.10647 -0.40752 3.41566 58 57 57
0.10647 -0.40752 3.37197 58 57 57
0.07629 -0.40752 3.37197 58 57 57
0.07629 -0.40752 3.39946 58 57 57
-0.07629 -0.41931 3.37197 58 57 57
-0.10647 -0.41931 3.37197 58 57 57
-0.10647 -0.41931 3.41566 58 57 57
-0.07629 -0.41931 3.39946 58 57 57
-0.10647 -0.40752 3.41566 58 57 57
-0.10647 -0.40752 3.37197 58 57 57
-0.07629 -0.40752 3.37197 58 57 57
-0.07629 -0.40752 3.39946 58 57 57
0.23902 -0.41198 3.375 255 246 240
0.03965 -0.41198 3.375 255 246 240
0.23902 -0.41198 3.47663 255 246 240
-0.23902 -0.41198 3.375 255 246 240
-0.23902 -0.41198 3.47663 255 246 240
-0.03965 -0.41198 3.375 255 246 240
-0.86928 -0.4289 3.11373 115 153 84
-0.86948 -0.4289 3.15935 115 153 84
-0.85436 -0.4289 3.15935 115 153 84
-0.85453 -0.4289 3.11373 115 153 84
-0.8057 -0.4289 3.18891 115 153 84
-0.78999 -0.4289 3.18891 115 153 84
-0.78998 -0.4289 3.11373 115 153 84
-0.80572 -0.4289 3.11373 115 153 84
0.02191 -0.42899 3.42537 115 153 84
0.0395 -0.42899 3.42537 115 153 84
0.03965 -0.42899 3.375 115 153 84
0.02217 -0.42899 3.375 115 153 84
-0.03965 -0.42899 3.375 115 153 84
-0.03958 -0.42899 3.45572 115 153 84
-0.02362 -0.42899 3.45572 115 153 84
-0.02343 -0.42899 3.375 115 153 84
0.86827 -0.4289 3.22538 115 153 84
0.88637 -0.4289 3.22538 115 153 84
0.88639 -0.4289 3.15744 115 153 84
0.86855 -0.4289 3.15744 115 153 84
0.80708 -0.4289 3.15744 115 153 84
0.80715 -0.4289 3.22538 115 153 84
0.82633 -0.4289 3.22538 115 153 84
0.82615 -0.4289 3.15744 115 153 84
0.34859 -0.47722 1.54744 132 175 97
0.31913 -0.47724 1.57634 132 175 97
3 0 2 1
3 0 3 2
3 4 3 0
3 4 5 3
3 5 2 3
3 5 6 2
3 7 9 8
3 7 10 9
3 8 9 11
3 8 11 12
3 12 11 13
3 13 11 14
3 12 13 15
3 12 15 16
3 15 17 16
3 16 17 18
3 16 18 19
3 19 18 20
3 19 20 21
3 22 18 17
3 17 23 22
3 15 23 17
3 23 15 24
3 23 24 25
3 26 18 22
3 26 20 18
3 14 27 13
3 14 28 27
3 28 14 29
3 28 29 30
3 30 29 31
3 30 31 32
3 33 28 30
3 32 33 30
3 33 34 28
3 23 34 22
3 27 28 34
3 23 27 34
3 26 35 20
3 26 36 35
3 26 37 36
3 26 38 37
3 38 26 22
3 38 22 39
3 13 27 40
3 13 40 41
3 27 25 40
3 27 23 25
3 42 44 43
3 42 45 44
3 46 45 42
3 46 47 45
3 48 42 43
3 48 46 42
3 49 51 50
3 49 52 51
3 53 52 49
3 53 54 52
3 54 51 52
3 54 55 51
3 56 58 57
3 56 59 58
3 59 10 58
3 59 9 10
3 8 56 57
3 8 57 7
3 60 59 56
3 60 61 59
3 61 9 59
3 61 11 9
3 12 56 8
3 12 60 56
3 62 61 60
3 62 63 61
3 63 11 61
3 63 14 11
3 16 60 12
3 16 62 60
3 64 66 65
3 64 67 66
3 68 65 66
3 68 69 65
3 69 64 65
3 69 70 64
3 71 73 72
3 71 74 73
3 71 72 75
3 76 71 75
3 76 77 71
3 71 77 78
3 76 80 79
3 76 75 80
3 47 44 45
3 47 81 44
3 82 84 83
3 82 85 84
3 86 88 87
3 86 89 88
3 90 49 50
3 90 53 49
3 91 93 92
3 91 94 93
3 95 0 1
3 95 4 0
3 96 98 97
3 96 99 98
3 100 66 67
3 100 68 66
3 32 102 101
3 32 31 102
3 32 101 103
3 32 103 33
3 104 33 103
3 104 103 105
3 106 33 104
3 106 34 33
3 107 34 106
3 107 108 34
3 108 22 34
3 108 109 22
3 21 35 110
3 21 20 35
3 74 111 73
3 111 74 112
3 111 112 113
3 111 113 114
3 111 114 115
3 112 74 116
3 117 119 118
3 117 120 119
3 121 72 73
3 121 122 72
3 109 39 22
3 109 123 39
3 124 126 125
3 124 127 126
3 128 130 129
3 128 131 130
3 130 131 132
3 130 132 133
3 128 134 131
3 128 135 134
3 135 136 134
3 135 137 136
3 136 138 134
3 136 139 138
3 131 134 140
3 131 140 141
3 142 141 140
3 142 140 143
3 144 131 141
3 144 141 145
3 134 146 140
3 134 147 146
3 134 148 147
3 134 138 148
3 138 149 148
3 138 139 149
3 150 149 139
3 150 139 136
3 151 150 136
3 151 136 137
3 146 143 140
3 146 152 143
3 142 143 152
3 142 152 153
3 145 142 153
3 145 141 142
3 132 154 133
3 132 155 154
3 131 155 132
3 131 144 155
3 156 133 154
3 156 130 133
3 157 130 156
3 157 129 130
3 158 160 159
3 161 159 160
3 161 162 159
3 163 162 161
3 164 166 165
3 164 167 166
3 167 164 168
3 167 168 169
3 164 170 168
3 164 171 170
3 172 171 164
3 172 173 171
3 174 173 172
3 174 175 173
3 176 170 171
3 171 177 176
3 171 178 177
3 176 179 170
3 180 126 127
3 181 180 127
3 181 127 182
3 181 182 183
3 182 184 183
3 182 185 184
3 186 188 187
3 186 189 188
3 190 186 187
3 190 187 191
3 191 187 188
3 191 188 192
3 193 195 194
3 193 196 195
3 196 197 195
3 196 198 197
3 198 199 197
3 199 200 197
3 198 201 199
3 198 202 201
3 201 202 203
3 202 204 203
3 202 205 204
3 205 206 204
3 205 207 206
3 208 203 204
3 203 208 209
3 201 203 209
3 209 210 201
3 209 211 210
3 212 204 206
3 212 208 204
3 200 199 213
3 200 213 214
3 214 215 200
3 214 216 215
3 216 217 215
3 216 218 217
3 219 216 214
3 218 216 219
3 219 214 220
3 209 208 220
3 213 220 214
3 209 220 213
3 212 206 221
3 212 221 222
3 212 222 223
3 212 223 224
3 224 208 212
3 224 225 208
3 199 226 213
3 199 227 226
3 213 226 211
3 213 211 209
3 228 230 229
3 228 231 230
3 232 228 229
3 232 229 233
3 234 228 232
3 234 231 228
3 235 237 236
3 235 238 237
3 239 235 236
3 239 236 240
3 240 236 237
3 240 237 241
3 242 244 243
3 242 245 244
3 243 244 194
3 243 194 195
3 196 245 242
3 196 193 245
3 246 242 243
3 246 243 247
3 247 243 195
3 247 195 197
3 198 242 246
3 198 196 242
3 248 246 247
3 248 247 249
3 249 247 197
3 249 197 200
3 202 246 248
3 202 198 246
3 250 252 251
3 250 253 252
3 254 252 253
3 254 253 255
3 255 253 250
3 255 250 256
3 257 259 258
3 257 260 259
3 257 261 260
3 262 261 257
3 262 257 263
3 257 264 263
3 262 265 261
3 262 266 265
3 233 230 267
3 233 229 230
3 268 270 269
3 268 271 270
3 272 274 273
3 272 275 274
3 276 235 239
3 276 238 235
3 277 279 278
3 277 280 279
3 281 186 190
3 281 189 186
3 282 284 283
3 282 285 284
3 286 252 254
3 286 251 252
3 218 287 217
3 218 288 287
3 218 289 288
3 218 219 289
3 290 289 219
3 290 291 289
3 292 290 219
3 292 219 220
3 293 292 220
3 293 220 294
3 294 220 208
3 294 208 295
3 207 221 206
3 207 296 221
3 258 259 297
3 297 298 258
3 297 299 298
3 297 300 299
3 297 301 300
3 298 302 258
3 303 305 304
3 303 306 305
3 307 260 308
3 307 259 260
3 295 225 309
3 295 208 225
3 310 312 311
3 310 313 312
3 314 313 310
3 314 315 313
3 315 312 313
3 315 316 312
3 317 310 311
3 317 314 310
3 318 314 317
3 315 314 318
3 318 317 319
3 315 318 320
3 320 316 315
3 320 321 316
3 322 324 323
3 322 325 324
3 323 324 326
3 323 326 327
3 328 330 329
3 328 331 330
3 331 332 330
3 331 333 332
3 334 328 329
3 334 329 335
3 335 333 334
3 335 332 333
3 336 338 337
3 336 339 338
3 339 340 338
3 339 341 340
3 342 344 343
3 342 345 344
3 346 342 343
3 347 342 346
3 347 348 342
3 347 349 348
3 347 350 349
3 349 350 351
3 351 350 352
3 347 352 350
3 351 352 353
3 349 351 354
3 355 349 354
3 355 354 356
3 357 355 356
3 357 358 355
3 358 349 355
3 358 348 349
3 357 359 358
3 357 356 360
3 348 358 345
3 348 345 342
3 358 361 345
3 358 359 361
3 361 359 362
3 361 362 363
3 345 361 363
3 345 363 344
3 364 363 362
3 364 344 363
3 365 364 362
3 365 366 364
3 364 366 367
3 364 367 368
3 368 344 364
3 365 369 366
3 365 370 369
3 366 369 371
3 366 371 367
3 367 371 353
3 367 353 352
3 372 367 352
3 372 368 367
3 372 343 368
3 372 373 343
3 346 343 373
3 346 373 372
3 347 372 352
3 346 372 347
3 374 370 365
3 365 375 374
3 365 376 375
3 376 365 377
3 377 365 378
3 378 379 377
3 378 380 379
3 381 380 378
3 362 381 378
3 362 378 365
3 381 382 380
3 383 382 381
3 362 383 381
3 383 384 382
3 377 384 383
3 377 379 384
3 359 383 362
3 359 385 383
3 359 386 385
3 387 385 386
3 388 385 387
3 389 385 388
3 383 385 389
3 388 387 390
3 391 388 390
3 359 391 386
3 359 357 391
3 357 388 391
3 386 391 392
3 391 390 392
3 386 392 393
3 387 386 393
3 357 394 388
3 374 394 357
3 360 374 357
3 374 395 394
3 375 389 395
3 374 375 395
3 375 396 389
3 383 389 396
3 383 396 377
3 360 370 374
3 341 397 340
3 341 398 397
3 368 343 344
3 399 401 400
3 399 402 401
3 403 402 399
3 403 404 402
3 404 401 402
3 403 405 404
3 403 406 405
3 407 404 405
3 407 408 404
3 404 408 401
3 409 399 400
3 409 403 399
3 410 403 409
3 410 406 403
3 411 413 412
3 411 414 413
3 412 413 415
3 412 415 416
3 417 419 418
3 417 420 419
3 420 421 419
3 420 422 421
3 423 417 418
3 423 418 424
3 424 422 423
3 424 421 422
3 425 427 426
3 425 428 427
3 428 429 427
3 428 430 429
3 431 433 432
3 431 434 433
3 435 431 432
3 436 431 435
3 436 437 431
3 436 438 437
3 436 439 438
3 438 439 440
3 440 439 441
3 436 441 439
3 440 441 442
3 438 440 443
3 444 438 443
3 444 443 445
3 446 444 445
3 446 447 444
3 447 438 444
3 447 437 438
3 446 448 447
3 446 445 449
3 437 447 434
3 437 434 431
3 447 450 434
3 447 448 450
3 434 450 451
3 434 451 433
3 452 442 441
3 453 452 441
3 453 454 452
3 452 455 442
3 456 455 452
3 456 457 455
3 458 457 456
3 458 456 459
3 459 433 451
3 459 456 452
3 459 452 454
3 454 433 459
3 458 459 460
3 459 451 460
3 451 461 460
3 458 462 457
3 453 432 454
3 453 463 432
3 435 432 463
3 435 463 453
3 435 453 436
3 436 453 441
3 460 464 458
3 460 465 464
3 465 466 464
3 465 467 466
3 464 466 468
3 464 468 469
3 469 467 465
3 469 468 467
3 460 469 465
3 461 469 460
3 469 458 464
3 470 458 469
3 470 471 458
3 471 462 458
3 471 470 472
3 471 472 473
3 472 474 473
3 472 475 474
3 471 473 476
3 446 471 476
3 449 471 446
3 446 476 477
3 446 477 478
3 448 446 478
3 448 478 479
3 477 448 479
3 479 478 480
3 479 480 481
3 477 479 481
3 478 482 480
3 478 477 482
3 477 481 482
3 448 477 461
3 461 474 475
3 461 477 474
3 461 475 469
3 450 448 461
3 450 461 451
3 449 462 471
3 430 483 429
3 430 484 483
3 454 432 433
3 485 487 486
3 485 488 487
3 489 488 485
3 489 490 488
3 490 487 488
3 489 491 490
3 489 492 491
3 493 490 491
3 493 494 490
3 490 494 487
3 495 485 486
3 495 489 485
3 496 489 495
3 496 492 489
3 497 499 498
3 497 500 499
3 498 499 501
3 498 501 502
3 503 505 504
3 503 506 505
3 506 507 505
3 506 508 507
3 509 503 504
3 509 504 510
3 510 508 509
3 510 507 508
3 511 513 512
3 511 514 513
3 514 515 513
3 514 516 515
3 517 519 518
3 517 520 519
3 521 517 518
3 522 517 521
3 522 523 517
3 522 524 523
3 522 525 524
3 524 525 526
3 526 525 527
3 522 527 525
3 526 527 528
3 524 526 529
3 521 518 530
3 531 528 527
3 532 531 527
3 532 530 518
3 522 532 527
3 521 532 522
3 521 530 532
3 532 533 531
3 532 518 533
3 531 534 528
3 535 524 536
3 535 523 524
3 537 535 536
3 537 538 535
3 537 536 539
3 537 539 540
3 536 529 539
3 536 524 529
3 523 535 520
3 523 520 517
3 535 541 520
3 535 538 541
3 520 541 542
3 520 542 519
3 543 519 542
3 533 519 543
3 543 531 533
3 543 544 531
3 545 544 543
3 545 543 546
3 543 542 546
3 542 547 546
3 541 538 547
3 541 547 542
3 545 548 544
3 545 549 548
3 544 534 531
3 544 548 534
3 533 518 519
3 546 550 545
3 546 551 550
3 551 552 550
3 551 553 552
3 550 552 554
3 550 554 555
3 555 553 551
3 555 554 553
3 546 555 551
3 555 545 550
3 547 555 546
3 556 545 555
3 545 556 557
3 557 549 545
3 557 556 558
3 557 558 559
3 558 560 559
3 558 561 560
3 557 559 562
3 557 562 537
3 540 557 537
3 537 562 563
3 537 563 564
3 538 537 564
3 538 564 565
3 563 538 565
3 565 564 566
3 565 566 567
3 563 565 567
3 564 568 566
3 564 563 568
3 563 567 568
3 538 563 547
3 547 563 560
3 547 560 561
3 547 561 555
3 540 549 557
3 516 569 515
3 516 570 569
3 571 573 572
3 571 574 573
3 575 571 572
3 575 572 576
3 576 572 573
3 577 575 576
3 577 576 578
3 578 576 579
3 576 573 579
3 578 579 580
3 581 575 577
3 582 581 577
3 582 577 583
3 578 583 577
3 581 584 575
3 584 571 575
3 584 574 571
3 579 574 584
3 580 579 584
3 580 584 581
3 579 573 574
3 585 583 578
3 585 586 583
3 583 586 587
3 583 587 588
3 582 580 581
3 589 580 582
3 580 589 585
3 580 585 578
3 589 582 590
3 589 590 591
3 592 590 582
3 592 593 590
3 592 594 593
3 594 590 593
3 592 595 594
3 589 591 596
3 589 596 597
3 585 589 597
3 585 597 598
3 598 597 599
3 598 599 600
3 597 601 599
3 597 596 601
3 596 602 601
3 596 603 602
3 603 600 602
3 602 600 599
3 602 599 601
3 603 598 600
3 604 598 603
3 604 585 598
3 591 604 603
3 590 604 591
3 590 586 604
3 585 604 586
3 591 603 596
3 605 586 590
3 605 606 586
3 607 606 605
3 607 608 606
3 608 609 606
3 608 610 609
3 609 610 611
3 612 607 605
3 612 605 594
3 594 605 590
3 594 613 612
3 594 595 613
3 613 595 614
3 613 614 615
3 615 614 616
3 615 616 617
3 614 595 592
3 614 592 582
3 616 614 582
3 616 582 583
3 618 616 583
3 617 616 618
3 617 618 619
3 618 583 588
3 587 618 588
3 587 609 618
3 606 609 587
3 606 587 586
3 618 620 619
3 609 621 618
3 618 621 620
3 609 622 621
3 609 611 622
3 623 620 621
3 623 624 620
3 625 624 623
3 625 626 624
3 627 622 611
3 627 628 622
3 629 628 627
3 629 630 628
3 631 630 629
3 631 632 630
3 633 626 625
3 633 625 634
3 635 637 636
3 635 638 637
3 638 639 637
3 638 640 639
3 638 641 640
3 638 642 641
3 635 642 638
3 635 643 642
3 644 643 635
3 644 645 643
3 635 646 644
3 635 636 646
3 645 644 647
3 645 647 648
3 649 639 640
3 641 649 640
3 649 650 639
3 641 651 649
3 647 652 648
3 647 653 652
3 653 647 654
3 653 654 655
3 653 656 652
3 653 657 656
3 657 649 651
3 657 650 649
3 657 651 656
3 657 658 650
3 653 658 657
3 653 655 658
3 654 647 659
3 659 647 660
3 647 661 660
3 644 661 647
3 644 662 661
3 644 663 662
3 661 662 664
3 661 664 665
3 665 664 666
3 665 666 667
3 667 666 668
3 667 668 669
3 644 670 663
3 646 670 644
3 646 671 670
3 646 672 671
3 673 675 674
3 673 676 675
3 674 675 677
3 674 677 678
3 678 680 679
3 678 677 680
3 681 683 682
3 681 684 683
3 681 685 684
3 682 683 686
3 682 686 687
3 683 688 686
3 683 684 688
3 689 682 687
3 689 687 690
3 689 691 682
3 682 691 692
3 682 692 693
3 694 682 693
3 682 694 681
3 694 693 695
3 694 695 696
3 681 696 685
3 681 694 696
3 693 697 695
3 693 692 697
3 689 698 691
3 687 686 699
3 687 699 700
3 686 701 699
3 686 688 701
3 688 702 701
3 688 690 702
3 690 700 702
3 690 688 684
3 690 684 689
3 689 684 685
3 685 696 689
3 689 696 695
3 698 689 695
3 698 695 697
3 690 687 700
3 698 697 703
3 698 703 704
3 691 698 704
3 691 704 705
3 697 706 703
3 697 692 706
3 692 705 706
3 692 691 705
3 707 709 708
3 707 710 709
3 711 713 712
3 711 714 713
3 715 717 716
3 715 718 717
3 715 719 718
3 716 717 720
3 716 720 721
3 717 722 720
3 717 718 722
3 723 716 721
3 723 721 724
3 723 725 716
3 716 725 726
3 716 726 727
3 728 716 727
3 716 728 715
3 728 727 729
3 728 729 730
3 715 730 719
3 715 728 730
3 727 731 729
3 727 726 731
3 723 732 725
3 721 720 733
3 721 733 734
3 720 735 733
3 720 722 735
3 722 736 735
3 722 724 736
3 724 734 736
3 724 722 718
3 724 718 723
3 723 718 719
3 719 730 723
3 723 730 729
3 732 723 729
3 732 729 731
3 724 721 734
3 732 731 737
3 732 737 738
3 725 732 738
3 725 738 739
3 731 740 737
3 731 726 740
3 726 739 740
3 726 725 739
3 741 743 742
3 741 744 743
3 745 747 746
3 745 748 747
3 749 751 750
3 749 752 751
3 749 753 752
3 750 751 754
3 750 754 755
3 751 756 754
3 751 752 756
3 757 750 755
3 757 755 758
3 757 759 750
3 750 759 760
3 750 760 761
3 762 750 761
3 750 762 749
3 762 761 763
3 762 763 764
3 749 764 753
3 749 762 764
3 761 765 763
3 761 760 765
3 757 766 759
3 755 754 767
3 755 767 768
3 754 769 767
3 754 756 769
3 756 770 769
3 756 758 770
3 758 768 770
3 758 756 752
3 758 752 757
3 757 752 753
3 753 764 757
3 757 764 763
3 766 757 763
3 766 763 765
3 758 755 768
3 766 765 771
3 766 771 772
3 759 766 772
3 759 772 773
3 765 774 771
3 765 760 774
3 760 773 774
3 760 759 773
3 775 777 776
3 775 778 777
3 779 781 780
3 779 782 781
3 783 785 784
3 783 786 785
3 786 787 785
3 786 788 787
3 788 786 783
3 789 783 784
3 788 783 789
3 789 784 790
3 791 793 792
3 791 794 793
3 792 793 795
3 792 795 796
3 796 791 792
3 797 794 791
3 796 797 791
3 797 798 794
3 799 801 800
3 799 802 801
3 803 805 804
3 803 806 805
3 807 809 808
3 807 810 809
3 810 811 809
3 810 812 811
3 813 807 808
3 813 808 814
3 815 817 816
3 815 818 817
3 816 817 819
3 816 819 820
3 821 818 815
3 821 822 818
3 823 825 824
3 826 828 827
3 829 831 830
3 829 832 831
3 832 833 831
3 832 834 833
3 835 829 830
3 835 830 836
3 837 839 838
3 837 840 839
3 838 839 841
3 838 841 842
3 843 840 837
3 843 844 840
3 845 847 846
3 848 850 849
3 851 853 852
3 851 854 853
3 855 857 856
3 855 858 857
3 859 861 860
3 859 862 861
3 863 865 864
3 863 866 865
3 867 869 868
3 867 870 869
3 871 873 872
3 871 874 873
3 654 876 875
3 654 659 876
