mtllib Seedot.mtl
v 0 0.438237 0
vt 0.5 2.17293
vn 0 0.9998563 0.01695391
v 0.089365 0.410863 -0.0851113
vt 0.756667 0.94607
vn 0.3595921 0.8604952 -0.3608901
v 0 0.417052 -0.0986473
vt 0.5 1.22342
vn 0 0.9196303 -0.3927851
v 0.0937886 0.42277 0
vt 0.769372 1.4797
vn 0.3747699 0.9271178 -0.000186147
v -0.089365 0.410863 -0.0851113
vt 0.243333 0.94607
vn -0.3595921 0.8604952 -0.3608901
v 0.089365 0.410863 0.0817664
vn 0.3310861 0.8471242 0.4156471
v -0.0937885 0.42277 0
vt 0.230628 1.4797
vn -0.3747699 0.9271178 -0.000186147
v 0 0.410863 0.115635
vt 0.5 0.94607
vn 0 0.8468925 0.5317643
v -0.089365 0.410863 0.0817664
vn -0.3310861 0.8471242 0.4156471
v 0 0.363584 -0.181306
vt 0.5 -1.17293
vn 0 0.57906 -0.815285
v 0.184518 0.363586 0.00026265
vt 1 -1.17285
vn 0.8203737 0.5718257 0.001568039
v 0.123201 0.363586 -0.124467
vt 0.833847 -1.17283
vn 0.5404738 0.6392958 -0.5469818
v -0.184518 0.363586 0.00026265
vt 0 -1.17285
vn -0.8203737 0.5718257 0.001568109
v 0.123201 0.363586 0.122054
vn 0.4510501 0.644803 0.617076
v -0.123201 0.363586 0.122054
vt 0.166153 -1.17283
vn -0.4510501 0.644803 0.617076
v 0 0.363586 0.172539
vt 0.5 -1.17283
vn 0 0.656345 0.7544609
v -0.123201 0.363586 -0.124467
vn -0.540473 0.6392961 -0.546982
v 0.0515914 0.537898 0
vt 0.584393 0.707027
vn 0.7970837 0.6038688 0
v -0.0515914 0.537898 0
vt 0.415607 0.707027
vn -0.7970837 0.6038688 0
v 0 0.537898 0.0515914
vt 0.5 0.707027
vn 0 0.6038682 0.7970842
v 0 0.537898 -0.0515914
vn 0 0.6038688 -0.7970837
v 0 0.434716 0
vt 0.5 0.538241
vn 0 -1 0
v 0.000151142 0.284129 -0.222322
vt 0.494905 -1.0237
vn 0.001659459 0.121862 -0.9925457
v 0.14311 0.313402 -0.150247
vt 0.806513 0.486632
vn 0.5493068 0.6040767 -0.5773677
v 0.159586 0.284163 -0.16485
vt 0.842427 -1.02192
vn 0.6886958 0.160037 -0.7071678
v 0 0.313418 -0.194846
vt 0.494576 0.487414
vn 1.66937E-05 0.5129941 -0.8583922
v -0.14311 0.313402 -0.150247
vt 0.182638 0.486632
vn -0.5407981 0.6172061 -0.5714841
v -0.160402 0.284095 -0.165459
vt 0.144946 -1.02543
vn -0.6879711 0.160601 -0.7077451
v 0.199471 0.31342 -0.000170223
vt 0.929365 0.487533
vn 0.8422086 0.5391518 0.000113496
v 0.227892 0.28418 -0.000410394
vt 0.991314 -1.02105
vn 0.9652335 0.2605469 -0.02096639
v -0.199471 0.31342 -0.000170223
vt 0.0597864 0.487533
v -0.230885 0.284082 -0.000410394
vt -0.00868624 -1.0261
vn -0.9654027 0.25993 -0.02083319
v 0.159518 0.284167 0.162487
vt 0.842279 -1.0217
vn 0.6483098 0.195938 0.7357328
v 0.14311 0.313402 0.148047
vn 0.528428 0.588258 0.612141
v -0.160333 0.284099 0.163198
vt 0.145095 -1.02522
vn -0.645838 0.19756 0.7374709
v 0.000151142 0.284134 0.230449
vt 0.494905 -1.02341
vn 0.001845549 0.1301509 0.9914925
v 0 0.313402 0.209441
vt 0.494576 0.486632
vn -3.04347E-05 0.5850031 0.8110311
v -0.14311 0.313402 0.148047
vn -0.521957 0.599807 0.606459
v 0.149755 0.254459 -0.152047
vt 0.829684 0.405473
vn 0.6831151 -0.196495 -0.70338
vt 1 1.40521
v 0.215761 0.254451 0
vt 0.973558 0.40521
vn 0.9895635 -0.1303221 -0.06148423
vt 0.851113 1.40465
vt 0.503592 1.40348
v 0 0.254458 -0.209171
vt 0.503262 0.405443
vn 0.000112355 -0.206655 -0.9784139
v 0.172416 0.254459 0.151138
vn 0.6638212 -0.05084221 0.7461612
v -0.149755 0.254459 -0.152047
vt 0.17684 0.405473
vn -0.6767517 -0.2231749 -0.7015697
vt 0.850965 1.40479
vt 0.153633 1.40236
vt 0 1.40192
v -0.215761 0.254451 0
vt 0.0329658 0.40521
vn -0.9851379 -0.160361 -0.06154459
v 0 0.254459 0.213742
vt 0.503262 0.405473
vn 0.000171164 -0.176638 0.9842759
vt 0.503592 1.40367
v -0.172416 0.254459 0.151138
vn -0.661544 -0.07623969 0.7460209
vt 0.153782 1.40249
vt 0.14128 -1.74504
vt 0.0636302 0.643398
vt 2.68221E-06 -1.7442
vt 0.208639 0.610758
vt 0.500003 0.610758
vt 0.500003 -1.74504
vt 0.858725 -1.74504
vt 0.791366 0.610758
vt 0.936375 0.643398
vt 1 -1.7442
vt 0.500003 0.751165
vt 0.500003 -1.74431
o merged_0_0_node
g polygon_0
usemtl mat_head_mat_id
f 1/1/1 2/2/2 3/3/3
f 1/1/1 4/4/4 2/2/2
f 1/1/1 3/3/3 5/5/5
f 1/1/1 6/2/6 4/4/4
f 1/1/1 5/5/5 7/6/7
f 1/1/1 8/7/8 6/2/6
f 1/1/1 7/6/7 9/5/9
f 1/1/1 9/5/9 8/7/8
f 2/2/2 10/8/10 3/3/3
f 2/2/2 4/4/4 11/9/11
f 2/2/2 12/10/12 10/8/10
f 2/2/2 11/9/11 12/10/12
f 4/4/4 6/2/6 11/9/11
f 3/3/3 10/8/10 5/5/5
f 7/6/7 13/11/13 9/5/9
f 7/6/7 5/5/5 13/11/13
f 8/7/8 14/10/14 6/2/6
f 8/7/8 9/5/9 15/12/15
f 8/7/8 16/13/16 14/10/14
f 8/7/8 15/12/15 16/13/16
f 15/12/15 9/5/9 13/11/13
f 14/10/14 11/9/11 6/2/6
f 10/8/10 17/12/17 5/5/5
f 5/5/5 17/12/17 13/11/13
f 18/14/18 19/15/19 20/16/20
f 18/14/18 21/16/21 19/15/19
f 18/14/18 20/16/20 22/17/22
f 18/14/18 22/17/22 21/16/21
f 22/17/22 20/16/20 19/15/19
f 22/17/22 19/15/19 21/16/21
f 23/18/23 24/19/24 25/20/25
f 23/18/23 26/21/26 24/19/24
f 23/18/23 27/22/27 26/21/26
f 23/18/23 28/23/28 27/22/27
f 25/20/25 24/19/24 29/24/29
f 25/20/25 29/24/29 30/25/30
f 28/23/28 31/26/13 27/22/27
f 28/23/28 32/27/31 31/26/13
f 29/24/29 33/28/32 30/25/30
f 29/24/29 34/19/33 33/28/32
f 32/27/31 35/29/34 31/26/13
f 34/19/33 36/30/35 33/28/32
f 34/19/33 37/31/36 36/30/35
f 35/29/34 38/22/37 31/26/13
f 35/29/34 36/30/35 38/22/37
f 38/22/37 36/30/35 37/31/36
f 39/32/38 30/33/30 40/34/39
f 39/32/38 25/35/25 30/33/30
f 39/32/38 23/36/23 25/35/25
f 39/32/38 41/37/40 23/36/23
f 40/34/39 30/33/30 42/32/41
f 41/37/40 43/38/42 23/36/23
f 30/33/30 33/39/32 42/32/41
f 43/38/42 28/40/28 23/36/23
f 43/38/42 32/41/31 28/40/28
f 43/38/42 44/42/43 32/41/31
f 33/39/32 45/43/44 42/32/41
f 33/39/32 36/44/35 45/43/44
f 44/42/43 46/38/45 32/41/31
f 36/44/35 35/45/34 45/43/44
f 35/45/34 46/38/45 45/43/44
f 35/45/34 32/41/31 46/38/45
f 38/46/37 13/47/13 31/48/13
f 38/46/37 15/49/15 13/47/13
f 38/46/37 16/50/16 15/49/15
f 38/46/37 37/51/36 16/50/16
f 31/48/13 13/47/13 27/46/27
f 37/51/36 34/52/33 16/50/16
f 13/47/13 17/49/17 27/46/27
f 34/52/33 14/53/14 16/50/16
f 34/52/33 11/54/11 14/53/14
f 34/52/33 29/55/29 11/54/11
f 17/49/17 10/56/10 27/46/27
f 29/55/29 24/52/24 11/54/11
f 10/56/10 26/57/26 27/46/27
f 10/56/10 24/52/24 26/57/26
f 10/56/10 12/53/12 24/52/24
f 24/52/24 12/53/12 11/54/11
v 0 0.216286 0.213129
vt 0.942162 0.863475
vn 0 -0.137709 0.9904727
v -0.158492 0.103264 0.135382
vt 0.175693 0.753954
vn -0.5135161 -0.4131741 0.7520561
v 0 0.103264 0.19146
vt 0.942162 0.753954
vn 0 -0.4030381 0.9151832
v -0.183823 0.216286 0.147275
vt 0.0531946 0.863475
vn -0.6009858 -0.127673 0.7889967
v 0.158492 0.103264 0.135382
vn 0.5135161 -0.4131741 0.7520561
vt 0.108357 0.900928
v 0.183823 0.216286 0.147275
vn 0.6009858 -0.127673 0.7889967
vt 0.942162 0.900928
v 0 0.14313 -0.204703
vt -0.920663 -2.36485
vn 0 -0.3386849 -0.9408998
v 0.137661 0.103264 -0.135382
vt -0.601651 -2.53896
vn 0.6023851 -0.4624551 -0.6505901
v 0 0.04383601 -0.117786
vt -0.920663 -2.7985
vn 0 -0.8255529 -0.5643249
v 0.159662 0.216286 -0.157438
vt -0.550665 -2.04535
vn 0.6966122 -0.09727903 -0.7108222
v -0.137661 0.103264 -0.135382
vt -1.23968 -2.53896
vn -0.6023851 -0.4624551 -0.6505901
vt -0.920663 -1.87865
v -0.159662 0.216286 -0.157438
vt -1.29066 -2.04535
vn -0.6966122 -0.09727913 -0.7108222
v 0.0957423 0.04383601 -0.083287
vt -0.698792 -2.7985
vn 0.3271429 -0.8498048 -0.4132909
v 0.209584 0.153 0
vt -0.434977 -2.32175
vn 0.9613041 -0.265824 -0.0723324
v 0.156462 0.063188 0
vt -0.558081 -2.71398
vn 0.7764149 -0.6288829 -0.0410634
v -0.209584 0.153 0
vt -1.40635 -2.32175
vn -0.9613041 -0.265824 -0.0723324
v -0.0957423 0.04383601 -0.083287
vt -1.14253 -2.7985
vn -0.3271429 -0.8498048 -0.4132909
v -0.156462 0.063188 0
vt -1.28325 -2.71398
vn -0.7764144 -0.6288834 -0.04106342
vt -0.573624 -1.87864
vt -1.2677 -1.87864
v 0 0.025485 0
vt -0.920663 -2.87864
vt -0.553377 -2.53896
vt -0.420663 -1.87868
vt -0.494676 -2.04535
vt -1.28795 -2.53896
vt -1.42066 -1.87868
vt -1.34665 -2.04535
v 0 0.04383601 0.117786
vn 0 -0.8508677 0.5253798
v -0.0957423 0.04383601 0.083287
vn -0.273131 -0.8395199 0.469687
v 0.0957423 0.04383601 0.083287
vn 0.273131 -0.8395199 0.469687
vt -0.521109 -1.87864
vt -1.32022 -1.87864
vt -0.920663 -2.53896
v 0.0515914 0.0386553 0
vt 1.00775 -9.8708
vn 0.2897571 0.9571002 0
v -0.0515914 0.0386553 0
vt 0.00774878 -9.8708
vn -0.2897571 0.9571002 0
v 0 0.0386553 0.0515914
vt 0.507749 -9.8708
vn 0 0.9571002 0.2897571
v 0 0.0386553 -0.0515914
vn 0 0.9571002 -0.2897571
v 0 0.00272018 0
vt 0.507749 -10.8708
o merged_1_0_node
g polygon_0
usemtl TEX_ANIM_EYE_mat_id
f 47/58/46 48/59/47 49/60/48
f 47/58/46 50/61/49 48/59/47
f 47/58/46 49/60/48 51/59/50
f 47/58/46 46/62/45 50/61/49
f 47/58/46 51/59/50 52/61/51
f 47/58/46 45/63/44 46/62/45
f 47/58/46 52/61/51 42/62/41
f 47/58/46 42/62/41 45/63/44
f 53/64/52 54/65/53 55/66/54
f 53/64/52 56/67/55 54/65/53
f 53/64/52 55/66/54 57/68/56
f 53/64/52 41/69/40 56/67/55
f 53/64/52 57/68/56 58/70/57
f 53/64/52 58/70/57 41/69/40
f 54/65/53 59/71/58 55/66/54
f 54/65/53 56/67/55 60/72/59
f 54/65/53 61/73/60 59/71/58
f 54/65/53 60/72/59 61/73/60
f 57/68/56 62/74/61 58/70/57
f 57/68/56 55/66/54 63/75/62
f 57/68/56 64/76/63 62/74/61
f 57/68/56 63/75/62 64/76/63
f 41/69/40 39/77/38 56/67/55
f 41/69/40 58/70/57 43/78/42
f 59/71/58 65/79/22 55/66/54
f 55/66/54 65/79/22 63/75/62
f 60/72/59 51/80/50 61/73/60
f 60/72/59 56/67/55 40/81/39
f 60/72/59 52/82/51 51/80/50
f 60/72/59 40/81/39 52/82/51
f 56/67/55 39/77/38 40/81/39
f 62/74/61 64/76/63 48/83/47
f 62/74/61 44/84/43 58/70/57
f 62/74/61 48/83/47 50/85/49
f 62/74/61 50/85/49 44/84/43
f 58/70/57 44/84/43 43/78/42
f 65/79/22 66/66/64 67/75/65
f 65/79/22 68/71/66 66/66/64
f 64/76/63 67/75/65 48/83/47
f 61/73/60 51/80/50 68/71/66
f 52/82/51 40/81/39 42/86/41
f 50/85/49 46/87/45 44/84/43
f 66/66/64 49/88/48 67/75/65
f 66/66/64 68/71/66 49/88/48
f 49/88/48 48/83/47 67/75/65
f 49/88/48 68/71/66 51/80/50
f 69/89/67 70/90/68 71/91/69
f 69/89/67 72/91/70 70/90/68
f 69/89/67 71/91/69 73/92/22
f 69/89/67 73/92/22 72/91/70
f 73/92/22 71/91/69 70/90/68
f 73/92/22 70/90/68 72/91/70
v -0.0861529 0 0
vt 0.5 0
vn -0.1611781 -0.9869254 0
vt 4.16352 0.693739
vt 0.5 0.403321
vt -3.16352 0.693739
v 0.086153 0 0
vn 0.1611781 -0.9869254 0
vt 0.5 1
o merged_2_0_node
g polygon_0
usemtl mat_foot_mat_id
f 74/93/71 63/94/62 65/95/22
f 67/96/65 74/93/71 65/95/22
f 75/93/72 68/96/66 65/95/22
f 59/94/58 61/97/60 75/93/72
f 61/97/60 68/96/66 75/93/72
f 67/96/65 64/97/63 74/93/71
f 64/97/63 63/94/62 74/93/71
f 59/94/58 75/93/72 65/95/22
