mtllib Unown_I.mtl
v 0 0.225 -0.0632906
vt 0.5 -0.5
vn 0 0 -1
v 0 0.350261 -0.0450122
vt 0.5 -1
vn 0 0.894837 -0.446393
v 0.0885727 0.313573 -0.0450122
vt 0.853553 -0.853553
vn 0.6327453 0.6327453 -0.4463932
v -0.0885727 0.313573 -0.0450122
vt 0.146447 -0.853553
vn -0.6327453 0.6327453 -0.4463932
v 0.125261 0.225 -0.0450122
vt 1 -0.5
vn 0.894837 0 -0.446393
v -0.125261 0.225 -0.0450122
vt 0 -0.5
vn -0.894837 0 -0.446393
v 0.0885727 0.136427 -0.0450122
vt 0.853553 -0.146447
vn 0.6327453 -0.6327453 -0.4463932
v -0.0885727 0.136427 -0.0450122
vt 0.146447 -0.146447
vn -0.6327453 -0.6327453 -0.4463932
v 0 0.0997393 -0.0450122
vt 0.5 0
vn 0 -0.894837 -0.446393
v -0.0356771 0.115839 -0.03
vt 0 0.5
vn -0.6435848 0 -0.7653748
v 0.0356771 0.0221087 -0.03
vt 1 0
vn 0.6319311 -0.23436 -0.7387412
v -0.0356771 0.0221087 -0.03
vt 0 0
vn -0.6319311 -0.23436 -0.7387412
v 0.0356771 0.115839 -0.03
vt 1 0.5
vn 0.6435848 0 -0.7653748
v -0.0356771 0.115839 0.03
vn -0.6435848 0 0.7653748
v 0.0356771 0.427891 -0.03
vt 1 1
vn 0.64373 0.07742281 -0.7613261
v -0.0356771 0.427891 0.03
vt 0 1
vn -0.64373 0.07742281 0.7613261
v -0.0356771 0.427891 -0.03
vn -0.64373 0.07742281 -0.7613261
v 0 0.003446393 0
vn 0 -1 0
v 0.0356771 0.0221087 0.03
vn 0.6319311 -0.23436 0.7387412
v 0.0356771 0.115839 0.03
vn 0.6435848 0 0.7653748
v -0.0356771 0.0221087 0.03
vn -0.6319311 -0.23436 0.7387412
v 0 0.446554 0
vt 0.5 1
vn 0 1 0
v 0.0356771 0.427891 0.03
vn 0.64373 0.07742281 0.7613261
vt 0.125 0
v 0.0885727 0.313573 0.0426161
vn 0.703783 0.705002 0.0875312
v 0 0.350261 0.0426161
vt 0.125 1
vn -0.0008618455 0.9961614 0.08753125
vt 0.25 0
v -0.0885727 0.313573 0.0426161
vt 0.25 1
vn -0.705002 0.703783 0.0875312
vt 0.375 0
v -0.125261 0.225 0.0426161
vt 0.375 1
vn -0.9961614 -0.0008618184 0.08753134
v -0.0885727 0.136427 0.0426161
vn -0.703783 -0.705002 0.0875313
vt 0.625 0
v 0 0.0997393 0.0426161
vt 0.625 1
vn 0.0008618415 -0.9961614 0.08753125
vt 0.75 0
v 0.0885727 0.136427 0.0426161
vt 0.75 1
vn 0.705002 -0.703783 0.0875313
vt 0.875 0
v 0.125261 0.225 0.0426161
vt 0.875 1
vn 0.9961614 0.0008618903 0.08753134
vt 0.853553 1.85355
vt 0.5 2
v 0.0727545 0.297755 0.0495704
vt 0.676777 1.67678
vn 0.1868591 0.1911201 0.9636165
v 0.10289 0.225 0.0495704
vt 0.75 1.5
vn 0.2672718 0.003012988 0.9636164
vt 1 1.5
v 0 0.32789 0.0495704
vt 0.5 1.75
vn -0.003013031 0.2672721 0.9636164
vt 0.146447 1.85355
v 0.0727545 0.152245 0.0495704
vt 0.676777 1.32322
vn 0.1911201 -0.1868591 0.9636165
v -0.0727545 0.297755 0.0495704
vt 0.323223 1.67678
vn -0.1911199 0.1868589 0.9636166
vt 0 1.5
vt 0.853553 1.14645
v 0 0.12211 0.0495704
vt 0.5 1.25
vn 0.003012991 -0.2672721 0.9636164
v -0.10289 0.225 0.0495704
vt 0.25 1.5
vn -0.2672721 -0.003013051 0.9636164
vt 0.146447 1.14645
v -0.0727545 0.152245 0.0495704
vt 0.323223 1.32322
vn -0.1868591 -0.1911201 0.9636165
o merged_0_0_node
g polygon_0
usemtl mat_body_mat_id
f 1/1/1 2/2/2 3/3/3
f 1/1/1 4/4/4 2/2/2
f 1/1/1 3/3/3 5/5/5
f 1/1/1 6/6/6 4/4/4
f 1/1/1 5/5/5 7/7/7
f 1/1/1 8/8/8 6/6/6
f 1/1/1 7/7/7 9/9/9
f 1/1/1 9/9/9 8/8/8
f 10/10/10 11/11/11 12/12/12
f 10/10/10 13/13/13 11/11/11
f 10/10/10 12/12/12 14/10/14
f 10/10/10 15/14/15 13/13/13
f 10/10/10 14/10/14 16/15/16
f 10/10/10 17/15/17 15/14/15
f 10/10/10 16/15/16 17/15/17
f 11/11/11 18/9/18 12/12/12
f 11/11/11 13/13/13 19/11/19
f 11/11/11 19/11/19 18/9/18
f 14/10/14 20/13/20 16/15/16
f 14/10/14 12/12/12 21/12/21
f 14/10/14 21/12/21 19/11/19
f 14/10/14 19/11/19 20/13/20
f 19/11/19 13/13/13 20/13/20
f 19/11/19 21/12/21 18/9/18
f 18/9/18 21/12/21 12/12/12
f 13/13/13 15/14/15 20/13/20
f 17/15/17 16/15/16 22/16/22
f 17/15/17 22/16/22 15/14/15
f 20/13/20 23/14/23 16/15/16
f 20/13/20 15/14/15 23/14/23
f 23/14/23 22/16/22 16/15/16
f 2/17/2 24/15/24 3/12/3
f 2/17/2 25/18/25 24/15/24
f 2/17/2 4/19/4 25/18/25
f 4/19/4 26/20/26 25/18/25
f 4/19/4 6/21/6 26/20/26
f 6/21/6 27/22/27 26/20/26
f 6/21/6 8/9/8 27/22/27
f 8/9/8 28/16/28 27/22/27
f 8/9/8 9/23/9 28/16/28
f 9/23/9 29/24/29 28/16/28
f 9/23/9 7/25/7 29/24/29
f 7/25/7 30/26/30 29/24/29
f 7/25/7 5/27/5 30/26/30
f 5/27/5 31/28/31 30/26/30
f 5/27/5 3/11/3 31/28/31
f 3/11/3 24/14/24 31/28/31
f 24/29/24 25/30/25 32/31/32
f 24/29/24 32/31/32 33/32/33
f 24/29/24 33/32/33 31/33/31
f 25/30/25 34/34/34 32/31/32
f 25/30/25 26/35/26 34/34/34
f 33/32/33 35/36/35 31/33/31
f 26/35/26 36/37/36 34/34/34
f 26/35/26 27/38/27 36/37/36
f 35/36/35 30/39/30 31/33/31
f 35/36/35 37/40/37 30/39/30
f 27/38/27 38/41/38 36/37/36
f 27/38/27 28/42/28 38/41/38
f 37/40/37 29/16/29 30/39/30
f 37/40/37 39/43/39 29/16/29
f 39/43/39 38/41/38 28/42/28
f 39/43/39 28/42/28 29/16/29
f 15/12/15 22/12/22 23/12/23
v 0 0.225 0.0767688
vt 0.5 0.875002
vn 0 0 1
vt 0.853553 0.963283
vt 0.5 0.999851
vt 0.146447 0.963283
vt 0 0.875002
vt 0.146447 0.786721
vt 0.5 0.750153
vt 0.853553 0.786721
vt 1 0.875002
o merged_1_0_node
g polygon_0
usemtl TEX_ANIM_EYE_mat_id
f 40/44/40 32/45/32 34/46/34
f 40/44/40 34/46/34 36/47/36
f 40/44/40 36/47/36 38/48/38
f 40/44/40 38/48/38 39/49/39
f 40/44/40 39/49/39 37/50/37
f 40/44/40 37/50/37 35/51/35
f 40/44/40 35/51/35 33/52/33
f 40/44/40 33/52/33 32/45/32
