mtllib Nidorino.mtl
v 0.234327 0.447871 0.187662
vt 0.127287 0.498684
vn 0.9263498 -0.04592079 0.3738549
v 0.347291 0.598394 -0.0127483
vt 0.22824 0.979692
vn -0.3773979 0.6885847 -0.6192108
v 0.252249 0.522591 0.200264
vt 0.0223097 0.589577
vn -0.593365 0.7849029 0.178453
v 0.347683 0.49993 -0.00738995
vt 0.348329 0.851793
vn 0.4895859 -0.3080299 -0.8157348
v 0.20987 0.371343 0.308063
vt 0.0630343 0.231678
vn -0.4035001 0.09435763 0.9101013
v 0.281336 0.307223 0.121762
vt 0.40919 0.416928
vn 0.414889 -0.7782831 -0.47132
v 0.223216 0.31135 0.253902
vt 0.216828 0.231552
vn 0.309162 -0.8396871 0.4464801
v -0.139993 0.174324 0.154142
vt 0.935857 0.951039
vn -0.5496209 -0.5068309 -0.6641079
v -0.113614 0.08880931 0.263382
vn -0.392188 -0.9055419 -0.16181
v -0.213638 0.19755 0.279125
vn -0.946096 -0.321744 0.0371911
v 0 0.110749 0.168182
vn 0 -0.8444148 -0.5356899
v -0.206603 0.287932 0.185007
vn -0.8549632 0.147851 -0.4971701
v 0 0.194402 0.100221
vn 0 -0.392893 -0.9195842
v -0.0865204 0.305057 0.0897214
vn -0.359235 0.218965 -0.907196
v -0.0752584 0.08085772 0.378803
vn -0.28346 -0.949305 0.135906
v 0.113614 0.08880931 0.263382
vn 0.413873 -0.8949722 -0.166535
v -0.140673 0.41851 0.228967
vn -0.5524548 0.7367517 -0.3898598
v -0.198953 0.35669 0.312143
vn -0.9190485 0.3354158 0.2069929
v 0.139993 0.174324 0.154142
vn 0.5496209 -0.5068309 -0.6641079
v 0.0865204 0.305057 0.0897214
vn 0.3592469 0.218971 -0.9071898
v 0.0752387 0.08085772 0.378803
vn 0.3223241 -0.9321882 0.164719
v -0.110357 0.442628 0.346441
vn -0.3741001 0.8601512 0.3466831
v -0.145328 0.322464 0.43205
vn -0.6518618 0.2828019 0.7036328
v 0 0.404992 0.137744
vn -2.91049E-05 0.701102 -0.713061
v 0.213638 0.19755 0.279125
vn 0.9477056 -0.3150599 0.05090518
v 0.206603 0.287932 0.185007
vn 0.8549522 0.147904 -0.4971732
v 0 0.468585 0.242482
vn -0.0001809769 0.9856866 -0.1685879
v 0.140648 0.418542 0.228973
vn 0.5523379 0.7366588 -0.3902009
v 0.198953 0.35669 0.312143
vn 0.9160943 0.3221841 0.2386811
v 0.110611 0.442676 0.346492
vt 0.688074 0.667889
vn 0.3805582 0.8553123 0.3515911
vt 0.708955 0.89372
vt 0.482857 0.9079
vt 0.849328 0.732538
v 0 0.407463 0.435037
vt 0.491103 0.70745
vn 0.000279213 0.730495 0.682918
vt 0.789881 0.5423
v 0.135939 0.322464 0.43205
vt 0.616703 0.559239
vn 0.6463161 0.283955 0.7082691
vt 0.820435 0.989039
vt 0.355484 0.864747
v 0 0.322931 0.484599
vt 0.413622 0.641201
vn -6.382728E-05 0.3424729 0.9395277
vt 0.958981 0.631557
vt 0.957278 0.943363
v -4.91979E-06 0.116649 0.464012
vt 0.40876 0.0138792
vn 0 -0.9250157 0.3799289
vt 0.710736 0.016028
v -0.0806577 0.125874 0.466853
vt 0.417148 0.128304
vn -0.492186 -0.7389389 0.4601329
v 0.0806479 0.125874 0.466853
vn 0.492165 -0.738989 0.460075
v -0.0346767 0.124128 0.493934
vt 0.241987 0.0952872
vn -0.2246109 -0.7099376 0.6674867
v 0.0346767 0.124128 0.493934
vn 0.2246209 -0.7099457 0.6674747
v -0.168227 0.175945 0.395041
vt 0.608814 0.332803
vn -0.8607618 -0.3075469 0.4055909
vt 0.968884 0.463656
v 0.168227 0.175945 0.395041
vn 0.8682788 -0.2764129 0.4119319
v 0 0.163771 0.524636
vt 0.130409 0.216742
vn 0 0.1052151 0.9944495
v 0.087739 0.165626 0.490952
vt 0.316863 0.251874
vn 0.5421503 0.04535962 0.8390564
v -0.087739 0.165626 0.490952
vn -0.5290698 0.03542189 0.8478387
v -0.234327 0.447871 0.187662
vn -0.9263498 -0.04592079 0.3738549
v -0.252249 0.522591 0.200264
vn 0.5933651 0.784903 0.178452
v -0.347291 0.598394 -0.0127483
vn 0.377397 0.688585 -0.619211
v -0.20987 0.371343 0.308063
vn 0.4035001 0.09435802 0.9101012
v -0.347683 0.49993 -0.00738995
vn -0.4895859 -0.3080299 -0.8157348
v -0.223216 0.31135 0.253902
vn -0.309162 -0.8396871 0.4464801
v -0.281336 0.307223 0.121762
vn -0.414889 -0.7782831 -0.47132
v -0.203122 0.428037 0.178399
vt 0.93754 0.931294
vn 0.9355413 0.05366232 -0.3491171
v 0.203122 0.428037 0.178399
vn -0.9355413 0.05366232 -0.3491171
v 0 0.324358 0.636185
vt 0.954377 0.940475
vn 0 0.01382381 0.9999045
v 0.0512059 0.321766 0.448707
vn 0.9646717 0.003641949 0.2634299
v 0 0.369398 0.448048
vn 0 0.9725193 0.2328221
v 0 0.274134 0.449365
vn 0 -0.9657117 0.2596169
v -0.0512059 0.321766 0.448707
vn -0.9646717 0.003641859 0.2634299
vt 0.922682 0.93731
vt 0.153426 0.888904
vt 0.00905693 0.98859
vt 0.0119325 0.497036
o merged_0_0_node
g polygon_0
usemtl lambert4_mat_id
f 1/1/1 2/2/2 3/3/3
f 1/1/1 4/4/4 2/2/2
f 1/1/1 3/3/3 5/5/5
f 1/1/1 6/6/6 4/4/4
f 1/1/1 5/5/5 7/7/7
f 1/1/1 7/7/7 6/6/6
f 8/8/8 9/8/9 10/8/10
f 8/8/8 11/8/11 9/8/9
f 8/8/8 10/8/10 12/8/12
f 8/8/8 13/8/13 11/8/11
f 8/8/8 12/8/12 14/8/14
f 8/8/8 14/8/14 13/8/13
f 9/8/9 15/8/15 10/8/10
f 9/8/9 11/8/11 16/8/16
f 9/8/9 16/8/16 15/8/15
f 12/8/12 17/8/17 14/8/14
f 12/8/12 10/8/10 18/8/18
f 12/8/12 18/8/18 17/8/17
f 13/8/13 19/8/19 11/8/11
f 13/8/13 14/8/14 20/8/20
f 13/8/13 20/8/20 19/8/19
f 11/8/11 19/8/19 16/8/16
f 15/8/15 16/8/16 21/8/21
f 18/8/18 22/8/22 17/8/17
f 18/8/18 23/8/23 22/8/22
f 14/8/14 24/8/24 20/8/20
f 14/8/14 17/8/17 24/8/24
f 19/8/19 25/8/25 16/8/16
f 19/8/19 20/8/20 26/8/26
f 19/8/19 26/8/26 25/8/25
f 16/8/16 25/8/25 21/8/21
f 22/8/22 27/8/27 17/8/17
f 17/8/17 27/8/27 24/8/24
f 20/8/20 28/8/28 26/8/26
f 25/8/25 26/8/26 29/8/29
f 30/9/30 27/10/27 22/11/22
f 30/9/30 28/12/28 27/10/27
f 30/9/30 22/11/22 31/13/31
f 30/9/30 29/14/29 28/12/28
f 30/9/30 31/13/31 32/15/32
f 30/9/30 32/15/32 29/14/29
f 27/10/27 28/12/28 24/16/24
f 22/11/22 23/17/23 31/13/31
f 32/15/32 31/13/31 33/18/33
f 33/18/33 31/13/31 23/17/23
f 29/14/29 26/19/26 28/12/28
f 24/16/24 28/12/28 20/20/20
f 34/21/34 15/22/15 21/22/21
f 34/21/34 35/23/35 15/22/15
f 34/21/34 21/22/21 36/23/36
f 34/21/34 37/24/37 35/23/35
f 34/21/34 36/23/36 38/24/38
f 34/21/34 38/24/38 37/24/37
f 15/22/15 35/23/35 39/25/39
f 15/22/15 39/25/39 10/26/10
f 21/22/21 40/25/40 36/23/36
f 21/22/21 25/26/25 40/25/40
f 38/24/38 41/27/41 37/24/37
f 38/24/38 36/23/36 42/28/42
f 38/24/38 42/28/42 41/27/41
f 42/28/42 36/23/36 40/25/40
f 35/23/35 43/28/43 39/25/39
f 35/23/35 37/24/37 43/28/43
f 43/28/43 37/24/37 41/27/41
f 44/1/44 45/3/45 46/2/46
f 44/1/44 47/5/47 45/3/45
f 44/1/44 46/2/46 48/4/48
f 44/1/44 49/7/49 47/5/47
f 44/1/44 48/4/48 50/6/50
f 44/1/44 50/6/50 49/7/49
f 51/29/51 46/29/46 45/29/45
f 51/29/51 45/29/45 47/29/47
f 51/29/51 47/29/47 49/29/49
f 51/29/51 49/29/49 50/29/50
f 51/29/51 50/29/50 48/29/48
f 52/29/52 3/29/3 2/29/2
f 52/29/52 5/29/5 3/29/3
f 52/29/52 7/29/7 5/29/5
f 52/29/52 6/29/6 7/29/7
f 52/29/52 4/29/4 6/29/6
f 53/30/53 54/30/54 55/30/55
f 53/30/53 56/30/56 54/30/54
f 53/30/53 55/30/55 57/30/57
f 53/30/53 57/30/57 56/30/56
f 33/31/33 23/31/23 43/31/43
f 33/31/33 43/31/43 41/31/41
f 33/31/33 41/31/41 42/31/42
f 33/31/33 42/31/42 32/31/32
f 48/32/48 46/33/46 51/34/51
f 4/32/4 52/34/52 2/33/2
v 0 0.283715 0.0702175
vt 0.855086 0.935056
vn 0 0.9835235 0.1807799
v 0 0.217075 0.19693
vn 0 0.6142818 0.7890868
v 0.110071 0.224673 0.126505
vn 0.600054 0.716916 0.354918
v -0.110071 0.224673 0.126505
vn -0.600054 0.716916 0.354918
v 0.122935 0.24144 -0.106017
vn 0.6514012 0.7147902 -0.2544631
v -0.122935 0.24144 -0.106017
vn -0.6514012 0.7147902 -0.2544631
v 0 0.286533 -0.0542159
vn 0 0.9938 -0.111183
v 0 0.1443062 0.2078778
vn 0 0.105044 0.9944676
v 0 0.243477 -0.17515
vn 0 0.7092201 -0.7049871
v 0 0.148224 -0.2231704
vn 0 0.190154 -0.9817543
v 0.15657 0.1453542 0.1368341
vn 0.8304406 0.2244567 0.5098898
v -0.15657 0.1453542 0.1368341
vn -0.8304406 0.2244567 0.5098898
v 0 0.0756384 0.2054541
vn 0 -0.6159018 0.7878229
v 0.0246649 0.235794 0.0137697
vt 0.858929 0.935315
vn 0.9798154 0.1275809 0.1538989
v 0 0.236847 -0.137464
vn 0 -0.7569077 -0.6535218
v 0 0.284093 -0.192184
vn 0 -0.195151 -0.9807732
v 0 0.288847 -0.123125
vn 0 0.6678979 -0.7442529
v 0 0.344042 -0.147545
vn 0 0.088524 -0.996074
v 0 0.318266 -0.0821376
vn 0 0.890112 -0.455742
v 0 0.37488 -0.0979202
vn 0 0.7345517 -0.6785527
v 0 0.329346 -0.035803
v 0 0.402302 -0.0419676
vn 0 0.9794834 0.2015251
v 0 0.317607 0.0101681
vn 0 0.810102 0.586289
v 0 0.350911 0.0314177
vn 0 0.6340891 0.7732601
v 0 0.249748 0.0778142
vn 0 0.4168798 0.9089616
v -0.0246649 0.235794 0.0137697
vn -0.9798154 0.1275809 0.1538989
v 0 0.0568992 0.00870056
vt 0.441781 0.480157
vn 0 -0.9999651 0.008351441
v 0.112065 -1.156898E-05 0.1511543
vt 0.207631 0.270696
vn 0.1760741 -0.9091175 0.3774959
vt 0.0143915 0.477673
v 0.156594 0.07420675 0.06333733
vt 0.358448 0.0775462
vn 0.6471192 -0.7540575 -0.1124015
v -0.112065 -1.156898E-05 0.1511543
vn -0.1760741 -0.9091175 0.3774959
v -0.156594 0.07420675 0.06333733
vn -0.6471192 -0.7540575 -0.1124015
v 0.128081 -1.41476E-05 -0.1567077
vt 0.753612 0.244999
vn 0.1920388 -0.8895808 -0.4144476
v 0.165248 0.0679957 -0.03862083
vt 0.547042 0.0564199
vn 0.7606685 -0.6213675 0.1878454
v 0 0.07605101 -0.211976
vt 0.973229 0.483246
vn 0 -0.6774542 -0.735565
v -0.128081 -1.41476E-05 -0.1567077
vn -0.1920388 -0.8895808 -0.4144476
v -0.165248 0.0679957 -0.03862083
vn -0.7606685 -0.6213675 0.1878454
vt 0.0573031 0.0758583
v 0.176555 0.147884 -0.1342643
vt 0.892868 0.0293925
vn 0.8639913 0.2419711 -0.4415529
v -0.176555 0.147884 -0.1342643
vn -0.8639913 0.2419711 -0.4415529
vt 0.630015 0.759223
vt 0.570717 0.971978
vt 7.43866E-05 0.759223
vt 0.991543 0.759223
vt 0.419291 0.536043
vt 0.991543 0.554894
vt 0.0249276 0.971978
vt 0.176907 0.550572
v -0.196789 0.186896 0.330785
vt 0.751515 0.557365
vn -0.9324152 0.06621362 0.3552711
v -0.176392 0.18101 0.361051
vn 0.9883059 -0.08893839 -0.123861
v -0.200755 0.193912 0.294705
vn 0.8277563 -0.003908501 -0.5610742
v -0.191312 0.120003 0.315764
vn 0.9261584 -0.108487 -0.3611942
v 0.196789 0.186896 0.330785
vn 0.9324152 0.06621362 0.3552711
v 0.200755 0.193912 0.294705
vn -0.8277563 -0.003908901 -0.5610742
v 0.176392 0.18101 0.361051
vn -0.9883057 -0.08893847 -0.123862
v 0.191312 0.120003 0.315764
vn -0.9261581 -0.108487 -0.361195
vt 0.848522 0.936099
o merged_1_0_node
g polygon_0
usemtl lambert3_mat_id
f 58/35/58 59/35/59 60/35/60
f 58/35/58 61/35/61 59/35/59
f 58/35/58 60/35/60 62/35/62
f 58/35/58 63/35/63 61/35/61
f 58/35/58 62/35/62 64/35/64
f 58/35/58 64/35/64 63/35/63
f 59/35/59 65/35/65 60/35/60
f 59/35/59 61/35/61 65/35/65
f 62/35/62 66/35/66 64/35/64
f 62/35/62 67/35/67 66/35/66
f 66/35/66 67/35/67 63/35/63
f 66/35/66 63/35/63 64/35/64
f 60/35/60 65/35/65 68/35/68
f 61/35/61 69/35/69 65/35/65
f 68/35/68 65/35/65 70/35/70
f 70/35/70 65/35/65 69/35/69
f 71/36/71 72/36/72 73/36/73
f 71/36/71 73/36/73 74/36/74
f 71/36/71 74/36/74 75/36/75
f 71/36/71 75/36/75 76/36/76
f 71/36/71 76/36/76 77/36/77
f 71/36/71 77/36/77 78/36/76
f 71/36/71 78/36/76 79/36/78
f 71/36/71 79/36/78 80/36/79
f 71/36/71 80/36/79 81/36/80
f 71/36/71 81/36/80 82/36/81
f 72/36/72 83/36/82 73/36/73
f 83/36/82 74/36/74 73/36/73
f 83/36/82 75/36/75 74/36/74
f 83/36/82 76/36/76 75/36/75
f 83/36/82 78/36/76 77/36/77
f 83/36/82 80/36/79 79/36/78
f 83/36/82 82/36/81 81/36/80
f 83/36/82 77/36/77 76/36/76
f 83/36/82 79/36/78 78/36/76
f 83/36/82 81/36/80 80/36/79
f 84/37/83 85/38/84 70/39/70
f 84/37/83 86/40/85 85/38/84
f 84/37/83 70/39/70 87/38/86
f 84/37/83 87/38/86 88/40/87
f 84/37/83 89/41/88 90/42/89
f 84/37/83 91/43/90 89/41/88
f 84/37/83 92/41/91 91/43/90
f 84/37/83 93/42/92 92/41/91
f 86/40/85 68/44/68 85/38/84
f 85/38/84 68/44/68 70/39/70
f 87/38/86 69/44/69 88/40/87
f 87/38/86 70/39/70 69/44/69
f 90/42/89 89/41/88 94/45/93
f 94/45/93 89/41/88 91/43/90
f 93/42/92 95/45/94 92/41/91
f 92/41/91 95/45/94 91/43/90
f 94/46/93 62/47/62 68/48/68
f 94/46/93 67/49/67 62/47/62
f 94/46/93 68/48/68 90/50/89
f 94/46/93 91/51/90 67/49/67
f 62/47/62 60/52/60 68/48/68
f 90/50/89 68/48/68 86/53/85
f 91/51/90 95/46/94 67/49/67
f 95/46/94 63/47/63 67/49/67
f 95/46/94 69/48/69 63/47/63
f 95/46/94 93/50/92 69/48/69
f 63/47/63 69/48/69 61/52/61
f 93/50/92 88/53/87 69/48/69
f 96/54/95 97/54/96 98/54/97
f 96/54/95 99/54/98 97/54/96
f 96/54/95 98/54/97 99/54/98
f 99/54/98 98/54/97 97/54/96
f 100/54/99 101/54/100 102/54/101
f 100/54/99 103/54/102 101/54/100
f 100/54/99 102/54/101 103/54/102
f 103/54/102 102/54/101 101/54/100
f 84/55/83 90/55/89 86/55/85
f 84/55/83 88/55/87 93/55/92
vt 0.855034 1.01555
vt 0.283611 0.969957
vt 1.03411 0.793346
vt 0.393 0.767301
vt -0.0504897 0.759168
o merged_2_0_node
g polygon_0
usemtl TEX_ANIM_EYE_mat_id
f 29/56/29 32/57/32 25/58/25
f 39/59/39 43/60/43 23/57/23
f 10/58/10 23/57/23 18/56/18
f 32/57/32 42/60/42 40/59/40
f 32/57/32 40/59/40 25/58/25
f 39/59/39 23/57/23 10/58/10
