mtllib Slowpoke.mtl
v 0 0.0425097 0.00904845
vt 0.0539609 0.391942
vn 0 -0.9999312 0.0117316
v -0.16546 -1.473622E-05 -0.1629721
vt 0.0488358 0.0110735
vn -0.2612264 -0.899945 -0.3490843
v 0 0.0624298 -0.2124622
vt 0.0473613 0.44847
vn 0 -0.8298213 -0.5580292
v -0.171853 0.05404951 -0.03889713
vt 0.0525324 0.424691
vn -0.8278705 -0.5454153 0.1309681
v 0.165459 -1.473622E-05 -0.1629721
vn 0.2612264 -0.899945 -0.3490843
v -0.171853 0.06050876 0.06586922
vt 0.0556539 0.443018
vn -0.8692877 -0.4783578 -0.12455
v 0.171853 0.05404951 -0.03889713
vn 0.8278705 -0.5454153 0.1309681
v -0.16546 -1.286134E-05 0.1571964
vt 0.0583748 0.0110735
vn -0.34561 -0.6406626 0.6856422
v 0.171853 0.06050876 0.06586932
vn 0.8692877 -0.4783578 -0.12455
v 0 0.06199709 0.2136672
vt 0.0600573 0.447249
vn 0 -0.4155541 0.9095685
v 0.165459 -1.286134E-05 0.1571964
vn 0.34561 -0.6406626 0.6856422
v -0.09180631 0.161292 -0.1867829
vt 0.0481263 0.451703
vn -0.5570273 0.1812256 -0.81048
v -0.183613 0.1532629 -0.1299822
vt 0.0498187 0.451703
vn -0.9306361 0.2991499 -0.2107741
v 0.183613 0.1532629 -0.1299812
vn 0.9306364 0.299149 -0.2107742
v 0.09180631 0.161292 -0.1867829
vn 0.5570273 0.1812256 -0.81048
v -0.183613 0.153263 0.1423041
vt 0.0579311 0.451703
vn -0.8221622 0.2521758 0.5103495
v 0.183613 0.153263 0.1423041
vn 0.8221622 0.2521758 0.5103495
v -0.12785 0.247841 -0.108381
vt 0.0504622 0.451703
vn -0.667066 0.729561 -0.150877
v 0 0.247841 -0.179055
vt 0.0483566 0.451703
vn 0 0.9271659 -0.374651
v 0.12785 0.247841 -0.108381
vn 0.667066 0.729561 -0.150877
v 0 0.153263 0.2161869
vt 0.0601324 0.451703
vn 0 0.115224 0.9933395
v 0 0.284864 0.00160864
vt 0.0537392 0.451703
vn 0 0.9999904 -0.004375722
v -0.12785 0.247841 0.131562
vt 0.0576111 0.451703
vn -0.654785 0.667694 0.354177
v 0.12785 0.247841 0.131562
vn 0.654785 0.667694 0.354177
v 0 0.247841 0.204802
vt 0.0597932 0.451703
vn 0 0.6005588 0.7995807
v 0.154243 0.14254 0.249593
vt 0.274935 0.0548189
vn 0.593163 -0.7983579 -0.103838
v 0 0.115765 0.262169
vn 0 -0.9978876 0.06496428
v 0 0.126078 0.170554
vn 0 -0.9138921 -0.4059571
v 0 0.136601 0.353784
vn 0 -0.9848183 0.1735881
v 0.128017 0.197612 0.121656
vn 0.5344979 -0.5976739 -0.5975769
v 0.114955 0.157937 0.360961
vn 0.371664 -0.8889139 0.267765
v 0.207136 0.241823 0.249673
vn 0.967236 -0.248541 -0.0517863
v 0.142716 0.197612 0.377711
vn 0.7727497 -0.4615268 0.4357189
v -0.154243 0.14254 0.249593
vn -0.593163 -0.7983579 -0.103838
v 0.188928 0.313358 0.132908
vn 0.8647709 0.017493 -0.5018619
v 0 0.207786 0.0607443
vn 0 -0.5596381 -0.8287371
v 0.0791187 0.313358 0.042537
vn 0.3587348 0 -0.9334396
v 0.188928 0.277842 0.342283
vn 0.9494676 -0.02724979 0.3126799
v 0.144138 0.263372 0.419515
vn 0.6941511 -0.129246 0.7081311
v -0.114955 0.157937 0.360961
vn -0.371664 -0.8889139 0.267765
v -0.128017 0.197612 0.121656
vn -0.5344982 -0.5976742 -0.5975762
v 0.128017 0.429104 0.121656
vn 0.5708494 0.6092224 -0.5504354
v 0.193604 0.384893 0.249673
vn 0.9225242 0.3859231 0.003538951
v 0.152319 0.3515 0.402976
vn 0.754448 0.295102 0.586279
v -0.142716 0.197612 0.377711
vn -0.7727497 -0.4615268 0.4357189
v -0.0791187 0.313358 0.042537
vn -0.3587348 0 -0.9334396
v 0.116764 0.484177 0.249673
vn 0.5063759 0.8623128 0.00025263
v 0 0.41893 0.0607443
vn 0 0.5596381 -0.8287371
v 0 0.500639 0.170554
vn 0 0.9441169 -0.329611
v 0.128017 0.429104 0.364535
vn 0.5786459 0.6671498 0.4691269
v 0.064949 0.362198 0.447704
vn 0.199244 0.314797 0.9280111
v -0.207136 0.241823 0.249673
vn -0.967236 -0.248541 -0.0517862
v -0.188928 0.277842 0.342283
vn -0.9494676 -0.02724979 0.3126799
v -0.144138 0.263372 0.419515
vn -0.6941511 -0.129246 0.7081311
v -0.128017 0.429104 0.121656
vn -0.5708494 0.6092224 -0.5504354
v 0 0.500639 0.328791
vn 0 0.9482549 0.31751
v -0.116764 0.484177 0.249673
vn -0.5063759 0.8623128 0.0002526459
v 0 0.438661 0.410977
vn 0 0.6875058 0.7261788
v -0.064949 0.362198 0.447704
vn -0.199244 0.314797 0.9280111
v 0.0539895 0.284419 0.456808
vn 0.109377 0.1793149 0.9776926
v -0.152319 0.3515 0.402976
vn -0.7544484 0.2951021 0.5862783
v -0.188928 0.313358 0.132908
vn -0.8647709 0.017493 -0.5018619
v -0.193604 0.384893 0.249673
vn -0.9225242 0.3859231 0.003538951
v -0.0539895 0.284419 0.456808
vn -0.109377 0.1793149 0.9776926
v -0.128017 0.429104 0.364535
vn -0.5786459 0.6671498 0.4691269
v -0.0511016 0.187434 -0.270281
vt 0.184332 0.240993
vn -0.9201683 0.03149521 -0.3902541
vt 0.184332 0.0695818
vt 0.184332 0.128512
v 0 0.139776 -0.29993
vt 0.184332 0.231119
vn 0 -0.6374931 -0.7704561
vt 0.184332 0.195936
v 0 0.284668 -0.387447
vt 0.184332 0.451801
vn 0 0.5373661 -0.8433491
v 0 0.242039 -0.249755
vt 0.184332 0.266736
vn 0 0.9879046 0.1550629
v 0.0511016 0.187434 -0.270281
vn 0.9201685 0.03149509 -0.3902538
v 0.0578267 0.185248 0.454024
vt 0.397221 0.648304
vn 0.2006141 -0.4478531 0.8713102
vt 0.980337 0.691193
vt 0.990104 0.913849
v 0.0516944 0.148589 0.423097
vt 0.355097 0.537359
vn 0.1862161 -0.8471845 0.4975963
v 0.063959 0.243478 0.46997
vt 0.439344 0.850295
vn 0.1719541 -0.04362871 0.9841384
v -0.0578267 0.185248 0.454024
vt -0.397221 0.648304
vn -0.2006141 -0.4478531 0.8713102
v -0.063959 0.243478 0.46997
vt -0.439345 0.850295
vn -0.1719541 -0.04362871 0.9841384
vt 0.370862 0.993408
v -0.0516944 0.148589 0.423097
vt -0.355097 0.537359
vn -0.186216 -0.8471848 0.4975958
vt -0.370862 0.993408
vt -0.990104 0.919307
vt -0.980337 0.691193
v 0.217534 0.465816 0.258186
vt 0.383966 0.0464913
vn 0.5668281 0.5201501 -0.6388661
v 0.137389 0.454822 0.258186
vn -0.5705131 0.675447 -0.467211
v 0.201921 0.484964 0.311727
vn 0.177308 0.9458972 0.2717361
v 0.162369 0.419013 0.228715
vn 0.248778 0.288912 -0.9244671
v 0.233147 0.446667 0.311727
vn 0.935077 0.117498 0.334403
vn 0.6359867 -0.6283197 -0.4480349
v 0.221239 0.386601 0.311727
vn 0.6108229 -0.7364678 0.2907069
v 0.134784 0.474544 0.311727
vn -0.7205727 0.5885178 0.3666359
v 0.12362 0.376553 0.311727
vn -0.4621898 -0.5813068 0.6696737
v -0.217534 0.465816 0.258186
vn -0.5668281 0.5201501 -0.6388661
v -0.201921 0.484964 0.311727
vn -0.1773071 0.9458973 0.2717361
v -0.137389 0.454822 0.258186
vn 0.5705131 0.675447 -0.467211
v -0.233147 0.446667 0.311727
vn -0.9350768 0.117499 0.3344029
v -0.162369 0.419013 0.228715
vn -0.248778 0.288912 -0.9244671
v -0.221239 0.386601 0.311727
vn -0.6108229 -0.7364678 0.2907069
vn -0.6359867 -0.6283197 -0.4480349
v -0.134784 0.474544 0.311727
vn 0.7205727 0.5885178 0.3666359
v -0.12362 0.376553 0.311727
vn 0.4621898 -0.5813068 0.6696737
v 0.180556 0.432563 0.345799
vt 0.597866 0.176459
vn -0.06719908 -0.05226688 0.9963697
vt 0.868163 0.2131
vt 0.707673 0.312589
vt 0.806962 0.0570552
vt 0.362617 0.285521
vt 0.30524 0.030954
v -0.180556 0.432563 0.345799
vn 0.06719898 -0.05226688 0.9963697
vt 0.353704 0.540824
vt 0.967339 0.603008
vt 0.975621 0.681996
vt 0.976425 0.685318
o merged_0_0_node
g polygon_0
usemtl lambert2_mat_id
f 1/1/1 2/2/2 3/3/3
f 1/1/1 4/4/4 2/2/2
f 1/1/1 3/3/3 5/2/5
f 1/1/1 6/5/6 4/4/4
f 1/1/1 5/2/5 7/4/7
f 1/1/1 8/6/8 6/5/6
f 1/1/1 7/4/7 9/5/9
f 1/1/1 10/7/10 8/6/8
f 1/1/1 9/5/9 11/6/11
f 1/1/1 11/6/11 10/7/10
f 2/2/2 12/8/12 3/3/3
f 2/2/2 4/4/4 13/9/13
f 2/2/2 13/9/13 12/8/12
f 5/2/5 14/9/14 7/4/7
f 5/2/5 3/3/3 15/8/15
f 5/2/5 15/8/15 14/9/14
f 6/5/6 8/6/8 16/10/16
f 6/5/6 16/10/16 4/4/4
f 4/4/4 16/10/16 13/9/13
f 8/6/8 10/7/10 16/10/16
f 9/5/9 17/10/17 11/6/11
f 9/5/9 7/4/7 17/10/17
f 7/4/7 14/9/14 17/10/17
f 11/6/11 17/10/17 10/7/10
f 12/8/12 13/9/13 18/11/18
f 12/8/12 18/11/18 19/12/19
f 13/9/13 16/10/16 18/11/18
f 15/8/15 20/11/20 14/9/14
f 15/8/15 19/12/19 20/11/20
f 14/9/14 20/11/20 17/10/17
f 10/7/10 21/13/21 16/10/16
f 10/7/10 17/10/17 21/13/21
f 18/11/18 22/14/22 19/12/19
f 18/11/18 16/10/16 23/15/23
f 18/11/18 23/15/23 22/14/22
f 16/10/16 21/13/21 23/15/23
f 19/12/19 22/14/22 20/11/20
f 17/10/17 24/15/24 21/13/21
f 17/10/17 20/11/20 24/15/24
f 20/11/20 22/14/22 24/15/24
f 23/15/23 21/13/21 25/16/25
f 23/15/23 25/16/25 22/14/22
f 25/16/25 24/15/24 22/14/22
f 25/16/25 21/13/21 24/15/24
f 26/17/26 27/17/27 28/17/28
f 26/17/26 29/17/29 27/17/27
f 26/17/26 28/17/28 30/17/30
f 26/17/26 31/17/31 29/17/29
f 26/17/26 30/17/30 32/17/32
f 26/17/26 33/17/33 31/17/31
f 26/17/26 32/17/32 33/17/33
f 27/17/27 34/17/34 28/17/28
f 27/17/27 29/17/29 34/17/34
f 30/17/30 35/17/35 32/17/32
f 30/17/30 28/17/28 36/17/36
f 30/17/30 37/17/37 35/17/35
f 30/17/30 36/17/36 37/17/37
f 33/17/33 32/17/32 38/17/38
f 33/17/33 38/17/38 39/17/39
f 29/17/29 40/17/40 34/17/34
f 28/17/28 41/17/41 36/17/36
f 28/17/28 34/17/34 41/17/41
f 35/17/35 37/17/37 42/17/42
f 35/17/35 43/17/43 32/17/32
f 35/17/35 42/17/42 43/17/43
f 32/17/32 43/17/43 38/17/38
f 39/17/39 38/17/38 44/17/44
f 38/17/38 43/17/43 44/17/44
f 40/17/40 45/17/45 34/17/34
f 36/17/36 41/17/41 46/17/46
f 36/17/36 46/17/46 37/17/37
f 42/17/42 47/17/47 43/17/43
f 42/17/42 37/17/37 48/17/48
f 42/17/42 49/17/49 47/17/47
f 42/17/42 48/17/48 49/17/49
f 37/17/37 46/17/46 48/17/48
f 44/17/44 43/17/43 50/17/50
f 44/17/44 50/17/50 51/17/51
f 43/17/43 47/17/47 50/17/50
f 45/17/45 52/17/52 34/17/34
f 45/17/45 53/17/53 52/17/52
f 45/17/45 54/17/54 53/17/53
f 34/17/34 52/17/52 41/17/41
f 49/17/49 48/17/48 55/17/55
f 49/17/49 56/17/56 47/17/47
f 49/17/49 55/17/55 57/17/57
f 49/17/49 57/17/57 56/17/56
f 47/17/47 56/17/56 50/17/50
f 48/17/48 46/17/46 55/17/55
f 51/17/51 50/17/50 58/17/58
f 51/17/51 58/17/58 59/17/59
f 51/17/51 59/17/59 60/17/60
f 50/17/50 56/17/56 58/17/58
f 54/17/54 61/17/61 53/17/53
f 52/17/52 62/17/62 41/17/41
f 52/17/52 53/17/53 63/17/63
f 52/17/52 63/17/63 62/17/62
f 62/17/62 46/17/46 41/17/41
f 62/17/62 63/17/63 55/17/55
f 62/17/62 55/17/55 46/17/46
f 55/17/55 63/17/63 57/17/57
f 53/17/53 61/17/61 63/17/63
f 59/17/59 64/17/64 60/17/60
f 59/17/59 58/17/58 65/17/65
f 59/17/59 65/17/65 61/17/61
f 65/17/65 58/17/58 56/17/56
f 65/17/65 57/17/57 63/17/63
f 65/17/65 63/17/63 61/17/61
f 65/17/65 56/17/56 57/17/57
f 66/18/66 3/19/3 12/20/12
f 66/18/66 67/21/67 3/19/3
f 66/18/66 12/20/12 19/22/19
f 66/18/66 68/23/68 67/21/67
f 66/18/66 19/22/19 69/24/69
f 66/18/66 69/24/69 68/23/68
f 3/19/3 67/21/67 70/18/70
f 3/19/3 70/18/70 15/20/15
f 70/18/70 19/22/19 15/20/15
f 70/18/70 69/24/69 19/22/19
f 70/18/70 67/21/67 68/23/68
f 70/18/70 68/23/68 69/24/69
f 71/25/71 33/26/33 39/27/39
f 71/25/71 72/28/72 33/26/33
f 71/25/71 39/27/39 73/29/73
f 71/25/71 74/30/74 72/28/72
f 71/25/71 73/29/73 75/31/75
f 71/25/71 75/31/75 74/30/74
f 39/27/39 60/32/60 73/29/73
f 72/28/72 74/30/74 76/33/76
f 75/31/75 73/29/73 64/34/64
f 75/31/75 54/35/54 74/30/74
f 75/31/75 64/34/64 54/35/54
f 64/34/64 73/29/73 60/32/60
f 76/33/76 74/30/74 45/36/45
f 45/36/45 74/30/74 54/35/54
f 77/37/77 78/37/78 79/37/79
f 77/37/77 80/37/80 78/37/78
f 77/37/77 79/37/79 81/37/81
f 77/37/77 43/37/82 80/37/80
f 77/37/77 81/37/81 82/37/83
f 77/37/77 82/37/83 43/37/82
f 78/37/78 83/37/84 79/37/79
f 78/37/78 84/37/85 83/37/84
f 84/37/85 43/37/82 82/37/83
f 85/37/86 86/37/87 87/37/88
f 85/37/86 88/37/89 86/37/87
f 85/37/86 87/37/88 89/37/90
f 85/37/86 90/37/91 88/37/89
f 85/37/86 89/37/90 63/37/92
f 85/37/86 63/37/92 90/37/91
f 86/37/87 91/37/93 87/37/88
f 63/37/92 92/37/94 90/37/91
f 92/37/94 87/37/88 91/37/93
f 93/38/95 81/39/81 79/40/79
f 93/38/95 82/41/83 81/39/81
f 93/38/95 79/40/79 83/42/84
f 93/38/95 84/43/85 82/41/83
f 93/38/95 83/42/84 84/43/85
f 94/38/96 86/40/87 88/39/89
f 94/38/96 91/42/93 86/40/87
f 94/38/96 88/39/89 90/41/91
f 94/38/96 92/43/94 91/42/93
f 94/38/96 90/41/91 92/43/94
f 72/44/72 29/45/29 31/46/31
f 72/44/72 76/44/76 29/45/29
f 72/44/72 31/46/31 33/47/33
f 76/44/76 40/46/40 29/45/29
f 76/44/76 45/47/45 40/46/40
vt 0.989506 0.967732
vt 0.909115 0.751246
vt 0.131008 0.994012
vt 0.0233199 0.802948
o merged_1_0_node
g polygon_0
usemtl TEX_ANIM_EYE_mat_id
f 61/48/61 54/49/54 59/50/59
f 59/50/59 54/49/54 64/51/64
f 60/51/60 39/49/39 51/50/51
f 51/50/51 39/49/39 44/48/44
