mtllib Aegislash_Tate.mtl
v 0 1.1288 -0.0579125
vt 0 0.375835
vn 0 0.9961947 -0.08715568
v 0.0551654 0.820283 -0.126835
vt 0.0689568 -0.000834942
vn 0.4695182 0.2716321 -0.8401004
v -0.0551654 0.820283 -0.126835
vt -0.0689569 -0.000834942
vn -0.4695178 0.2716319 -0.8401007
v 0.110331 0.82861 -0.0316494
vt 0.137914 -0.000834942
vn 0.9390362 0.3425101 -0.02996561
v -0.110331 0.82861 -0.0316494
vt -0.137914 -0.000834942
vn -0.9390362 0.3425101 -0.0299658
v 0.0551654 0.836938 0.0635363
vn 0.4695181 0.4133871 0.7801691
v -0.0551654 0.836938 0.0635363
vn -0.4695181 0.4133871 0.7801691
v -0.066884 0.591771 0.152002
vt 0.603852 0.905768
vn -0.2480621 0.7391523 0.6261942
v 0.0928937 0.652756 0.0258151
vt 0.803741 0.995387
vn 0.341523 0.9394309 -0.0288385
v -0.0930923 0.652756 0.0258151
vt 0.571258 0.995387
vn -0.341548 0.9394231 -0.0287946
v 0.066884 0.591771 0.152002
vt 0.771062 0.905768
vn 0.248269 0.7392389 0.6260099
v -0.235566 0.533662 0.0362345
vt 0.393167 0.84595
vn -0.8648009 0.502025 0.00950088
v 0 0.414955 0.239422
vt 0.687624 0.654403
vn 0 0.08715568 0.9961947
v -0.169356 0.506114 0.159496
vt 0.471712 0.791457
vn -0.6281831 0.4213291 0.6541161
v 0.235367 0.533662 0.0362345
vt 0.981833 0.84595
vn 0.8647987 0.5020308 0.009390987
v 0.169356 0.506114 0.159496
vt 0.903199 0.791458
vn 0.6285928 0.4214278 0.6536587
v 0 0.758777 -0.0255398
vt 0.593983 0.297302
v 0.0789875 0.751147 -0.112753
vt 0.597932 0.297302
v -0.0789875 0.751147 -0.112753
vt 0.590033 0.297302
v 0.14055 0.758777 -0.0255398
vt 0.60101 0.297302
v -0.14055 0.758777 -0.0255398
vt 0.586955 0.297302
v 0.0789875 0.762388 0.0157338
v -0.0789875 0.762388 0.0157338
v 0.222603 0.777999 -0.0272214
vt 0.599542 0.221164
vn 0.90798 -0.417419 0.0365195
v 0.180515 0.794447 -0.0798718
vt 0.597438 0.222213
vn 0.669434 -0.362546 -0.648397
v 0.226586 0.890988 -0.0371067
vt 0.599741 0.226836
vn 0.999384 -0.0349605 0.00305864
v 0.152271 0.742433 -0.0241098
vt 0.596025 0.219379
vn 0.4526329 -0.8883038 0.07771649
v 0.180515 0.80334 0.0217729
vn 0.6694337 -0.2444459 0.7015017
v -0.222603 0.777998 -0.0272214
vt 0.577282 0.221164
vn -0.9041606 -0.4255673 0.03723232
v -0.226586 0.890987 -0.0371067
vt 0.577083 0.226836
vn -0.999384 -0.0349598 0.00305859
v -0.180515 0.794447 -0.0798718
vt 0.579386 0.222213
vn -0.669434 -0.362546 -0.648397
v -0.180515 0.803339 0.0217729
vn -0.6694337 -0.2444459 0.7015017
v -0.152271 0.742433 -0.0241098
vt 0.580798 0.219379
vn -0.4526321 -0.8883042 0.07771651
v 0.393737 0.62774 -0.0428693
vt 0.601916 0.156383
vn 0.008207023 0.013278 -0.9998782
v 0.196471 0.788536 -0.0561965
vt 0.592053 0.16445
vn 0.0361567 0.09743518 -0.9945849
v 0.478372 0.625033 -0.0426325
vt 0.606148 0.156247
vn 0.02722179 0.04518688 -0.9986076
v 0.184006 0.766055 -0.0261765
vt 0.59143 0.163199
vn -0.6064188 -0.7921197 0.06930108
v 0.227786 0.436982 -0.0543932
vt 0.593619 0.146931
vn 0.02611899 0.01944609 -0.9994697
v 0.168112 0.539904 -0.0515818
vt 0.590635 0.152045
v 0.208936 0.815889 -0.0305363
vt 0.592676 0.165701
vn 0.621285 0.780603 -0.0682935
vt 0.612311 0.157221
vn -0.0178651 -0.0977664 0.995049
vt 0.616543 0.157085
vn 0.0037844 -0.0611246 0.998123
v 0.196471 0.793408 -0.000516397
vt 0.602448 0.165288
vn 0.2013881 0.1688671 0.9648455
v 0.227786 0.436982 -0.0543933
vt 0.604013 0.14777
vn -0.02611889 -0.01944649 0.9994697
vt 0.601824 0.164037
vt 0.60103 0.152884
vt 0.603071 0.166539
v -0.393737 0.627565 -0.0448579
vt 0.578973 0.15085
vn -0.08408668 0.07892867 -0.9933276
v -0.478372 0.6248589 -0.0446211
vt 0.574741 0.150714
vn -0.104101 0.111537 -0.9882928
v -0.196471 0.788536 -0.0561965
vt 0.588836 0.158917
vn -0.03027221 0.100729 -0.9944533
v -0.227786 0.434004 -0.0884279
vt 0.58727 0.141399
vn -0.06005017 0.01616179 -0.9980645
v -0.184006 0.766055 -0.0261765
vt 0.589459 0.157667
vn 0.6064188 -0.7921197 0.06930118
v -0.168112 0.536441 -0.0911652
vt 0.590254 0.146513
v -0.208936 0.815889 -0.0305365
vt 0.588213 0.160168
vn -0.621285 0.7806029 -0.0682937
vt 0.57562 0.149341
vn 0.0924787 -0.16186 0.9824709
v -0.196471 0.793408 -0.000516403
vt 0.585483 0.157408
vn -0.2068661 0.165182 0.9643243
vt 0.571388 0.149205
vn 0.07347631 -0.126614 0.9892271
vt 0.586106 0.156157
v -0.227786 0.434004 -0.0884278
vt 0.583917 0.13989
vn 0.06005037 -0.01616189 0.9980645
v -0.168112 0.536441 -0.09116511
vt 0.586901 0.145004
vt 0.58486 0.158659
vt 1.28756 0.191522
v 0.267663 0.351198 0.052198
vt 1.32793 -0.037428
vn 0.9834186 -0.1681159 0.06800628
v 0.17467 0.190743 0.0662361
vt 1.21169 -0.238764
vn 0.6418728 -0.7574298 0.11958
v -0.174869 0.190743 0.0662361
vt 0.774769 -0.238764
vn -0.6418878 -0.7574047 0.119659
vt 0.698898 0.191522
vt 1.10947 0.340959
v -9.93818E-05 0.127374 0.0717801
vt 0.993231 -0.318277
vn -1.464779E-05 -0.9901546 0.139978
vt 0.87699 0.340959
v -0.267862 0.351198 0.052198
vt 0.658528 -0.037428
vn -0.983413 -0.168099 0.06812911
v 0 0.350542 -0.0395424
vt 0.650894 0.285286
vn 0 -0.06084571 -0.9981472
v -0.14713 0.227679 -0.0110479
vt 0.643537 0.279042
vn -0.4763251 -0.238219 -0.8463842
v -0.171227 0.349462 -0.0124847
vt 0.642332 0.285114
vn -0.3465509 -0.07959908 -0.9346477
v 0 0.275425 -0.0329706
vt 0.650894 0.281515
vn 0 -0.08715568 -0.9961947
v 0.14713 0.227679 -0.0110479
vt 0.65825 0.279042
vn 0.4763251 -0.238219 -0.8463842
v 0.171227 0.349462 -0.0124847
vt 0.659455 0.285114
vn 0.3465509 -0.07959908 -0.9346477
v -0.267663 0.351198 0.052198
vt 0.637511 0.284918
vt 0.664277 0.284918
v -0.17467 0.190743 0.0662361
vt 0.64216 0.276865
vt 0.659627 0.276865
v -0.0648303 0.647559 0.0251695
vt 0.590741 0.291541
vn -0.5799721 0.09316861 0.8092911
v -0.166619 0.16569 0.0263486
vt 0.585652 0.267534
vn -0.5621657 0.1207529 0.8181616
v -0.0872578 0.155366 0.0583703
vt 0.58962 0.26688
v -0.0896537 0.645736 -0.01565
vt 0.5895 0.291628
vn -0.5938292 0.08068582 0.8005353
vn -0.6170452 -0.06243162 0.7844473
vn -0.5568511 -0.0004019591 0.8306122
v 0.0648303 0.640443 -0.0561658
vt 0.597224 0.291541
vn 0.641709 -0.117249 -0.7579329
v 0.164915 0.16569 0.0263487
vt 0.602229 0.267534
vn 0.5682261 -0.0231719 -0.8225461
v 0.087178 0.149963 -0.00339381
vt 0.598342 0.26688
v 0.0896537 0.645736 -0.01565
vt 0.598465 0.291628
vn 0.7851252 -0.3747711 -0.4930771
v 0.05692 0.0777146 0.0240073
vt 0.596829 0.263163
vn 0.3926658 -0.4653148 -0.7932816
v 7.73844E-05 0.0630955 0.00444595
vt 0.593987 0.26252
v 0.0475395 0.0487608 0.0365786
vt 0.59636 0.261666
v 0.117471 0.137957 0.0187368
vt 0.599856 0.266186
v 0.0961964 0.0972325 0.0323379
vt 0.598793 0.264098
v -0.00191254 -0.000213718 0.0408633
vt 0.593887 0.259207
v 0.0648302 0.647559 0.0251695
vn 0.5855811 0.09221071 0.8053521
vn 0.6170452 -0.06243152 0.7844473
vn 0.5568511 -0.0004018841 0.8306122
vn 0.5995731 0.07954561 0.7963571
vn 0.568227 0.120014 0.814073
v 0.0871781 0.155366 0.0583703
vn 0 -0.9961947 0.08715587
v 0.0990691 0.820534 -0.150433
vt 0.600944 0.216241
vn 0.3712148 -0.4344218 -0.8206566
v 0.0800189 0.749033 -0.1212
vt 0.599992 0.212552
vn 0.3273941 -0.4310071 -0.8408602
v -0.0800188 0.749033 -0.1212
vt 0.59199 0.212552
vn -0.3273938 -0.4310067 -0.8408605
v 0.160038 0.757413 -0.0254204
vt 0.603993 0.212552
vn 0.8910152 -0.4522461 0.03956641
v -0.099069 0.820534 -0.150433
vt 0.591038 0.216241
vn -0.371214 -0.4344219 -0.8206569
v 0.198138 0.830908 -0.0318504
vt 0.605898 0.216241
v -0.160038 0.757413 -0.0254204
vt 0.587989 0.212552
vn -0.8885117 -0.4571078 0.03999149
v 0.099069 0.841283 0.0867317
vn 0.3712139 -0.2853169 0.8836257
v -0.198138 0.830908 -0.0318505
vt 0.586084 0.216241
v -0.099069 0.841283 0.0867317
vn -0.3712148 -0.2853168 0.8836254
v -0.0800188 0.765792 0.0703593
vn -0.3273942 -0.2784451 0.9029294
v 0.0800188 0.765792 0.0703593
vn 0.3273942 -0.2784451 0.9029294
v -0.13421 0.476018 -0.0647142
vt 0.405956 0.47989
vn 0.03416931 -0.0196897 -0.9992221
v -0.460018 0.152493 -0.0694804
vt 0.175315 0.0432916
v -0.589989 0.426127 -0.08160441
vt 0.493238 0.0432914
v -0.0512206 0.29358 -0.0605689
vt 0.155963 0.47989
vt 0.319762 0.736268
vt 0.173114 0.736268
v -0.13421 0.476018 -0.0647143
vn -0.0341691 0.0196896 0.9992221
v -0.460018 0.152493 -0.0694805
v -0.0512207 0.29358 -0.060569
v 0.13421 0.472555 -0.104298
vn -0.03902239 -0.04177469 -0.9983647
v 0.589989 0.422664 -0.121188
v 0.460018 0.149515 -0.103515
v 0.0512207 0.290602 -0.0946034
vn 0.03902189 0.04177499 0.9983647
v 0.0512207 0.290602 -0.09460351
v -0.192585 0.374879 0.170977
vn -0.7143559 -0.06551709 0.6967089
v -0.125701 0.259474 0.181074
vn -0.4662788 -0.4937068 0.7340556
v 0 0.213897 0.185062
vn 8.523125E-05 -0.6629276 0.7486836
v 0.125701 0.259474 0.181074
vn 0.4665802 -0.4938922 0.7337393
v 0.192585 0.374879 0.170977
vn 0.714835 -0.065616 0.696208
vt 0.657728 0.604327
vt 0.431194 0.722605
vt 0.398315 0.551004
vt 0.481964 0.406222
vt 0.647052 0.348993
vt 0.704779 0.603106
vt 0.716553 0.34782
vt 0.881388 0.405754
vt 0.964418 0.550893
vt 0.930811 0.722352
vt 0.103461 0.78125
vn 0 -0.178137 -0.9840057
vt 0.103461 0.628877
vn 0 -0.106975 -0.9942617
v -0.0872587 0.149963 -0.00339381
vt -0.103461 0.628877
v -0.0648302 0.640443 -0.0561658
vt -0.103461 0.78125
vt 0.103461 0.9375
vn 0 -0.4551432 -0.8904183
vt -0.103461 0.9375
vn -0.389821 -0.474434 -0.7892731
v -0.117455 0.137957 0.0187368
vt 0.58811 0.266186
v -0.0569353 0.0777146 0.0240073
vt 0.591136 0.263163
vn 0 0.06730188 0.9977326
vn 0.396925 -0.316445 0.861576
v 0.117471 0.1397 0.0386607
v 0.05692 0.0794577 0.0439312
v 7.64539E-05 0.0684534 0.0656869
vn -0.6368801 -0.116544 -0.7621031
vn -0.7851252 -0.3747711 -0.4930771
vn -0.5621687 -0.02315268 -0.8266985
vn -0.3949461 -0.3214711 0.8606242
v -0.117455 0.1397 0.0386607
v -0.0569353 0.0794577 0.0439312
vn -0.3929738 -0.3025339 0.8683576
v -0.0490838 0.0487608 0.0365786
vt 0.591529 0.261666
vn -0.3910819 -0.4537229 -0.8007438
v -0.097727 0.0972325 0.0323379
vt 0.589096 0.264098
vn -0.8950163 0.4443361 -0.03887441
vn 0.8950163 0.4443361 -0.03887441
vt -0.103461 0.691377
vt 0.103461 0.498433
vt -0.103461 0.498433
vn -0.480871 -0.8734549 0.0764174
vn 0.494101 -0.8660961 0.0757736
vn -0.9672912 -0.2527031 0.02210871
vn -0.4170482 -0.9054255 0.07921714
vn 0.9542579 -0.297847 0.0260582
vn 0.4009869 -0.3282119 0.8552698
vn 0.4302059 -0.8992957 0.07867817
vn -0.3815871 -0.3070681 0.8718374
v -0.129979 0.758138 -0.0190429
vt 0.855059 0.968878
vn -0.7932737 -0.4444739 0.4161249
v -0.069906 0.689127 0.0217636
vt 0.965194 0.901122
vn -0.6047177 -0.5087978 0.6127327
v -0.108045 0.762173 0.0270819
vt 0.915612 0.995446
vn -0.6986651 -0.351165 0.623338
v 0.069906 0.689127 0.0217636
vn 0.6047178 -0.5087988 0.6127318
v 0.129979 0.758138 -0.0190429
vn 0.7932733 -0.4444752 0.4161242
v 0.108045 0.762173 0.0270819
vn 0.6986653 -0.3511662 0.6233372
o merged_0_0_node
g polygon_0
usemtl phong1_mat_id
f 1/1/1 2/2/2 3/3/3
f 1/1/1 4/4/4 2/2/2
f 1/1/1 3/3/3 5/5/5
f 1/1/1 6/2/6 4/4/4
f 1/1/1 5/5/5 7/3/7
f 1/1/1 7/3/7 6/2/6
f 8/6/8 9/7/9 10/8/10
f 8/6/8 11/9/11 9/7/9
f 8/6/8 10/8/10 12/10/12
f 8/6/8 13/11/13 11/9/11
f 8/6/8 12/10/12 14/12/14
f 8/6/8 14/12/14 13/11/13
f 9/7/9 11/9/11 15/13/15
f 13/11/13 16/14/16 11/9/11
f 11/9/11 16/14/16 15/13/15
f 17/15/1 18/16/1 19/17/1
f 17/15/1 20/18/1 18/16/1
f 17/15/1 19/17/1 21/19/1
f 17/15/1 22/16/1 20/18/1
f 17/15/1 21/19/1 23/17/1
f 17/15/1 23/17/1 22/16/1
f 24/20/17 25/21/18 26/22/19
f 24/20/17 27/23/20 25/21/18
f 24/20/17 26/22/19 28/21/21
f 24/20/17 28/21/21 27/23/20
f 29/24/22 30/25/23 31/26/24
f 29/24/22 32/26/25 30/25/23
f 29/24/22 31/26/24 33/27/26
f 29/24/22 33/27/26 32/26/25
f 34/28/27 35/29/28 36/30/29
f 34/28/27 37/31/30 35/29/28
f 34/28/27 36/30/29 38/32/31
f 34/28/27 38/32/31 39/33/31
f 35/29/28 40/34/32 36/30/29
f 34/35/33 36/36/34 41/37/35
f 34/35/33 42/38/36 36/36/34
f 34/35/33 41/37/35 37/39/30
f 34/35/33 39/40/36 42/38/36
f 36/36/34 40/41/32 41/37/35
f 43/42/37 44/43/38 45/44/39
f 43/42/37 46/45/40 44/43/38
f 43/42/37 45/44/39 47/46/41
f 43/42/37 48/47/40 46/45/40
f 44/43/38 49/48/42 45/44/39
f 43/49/43 50/50/44 44/51/45
f 43/49/43 47/52/41 50/50/44
f 43/49/43 44/51/45 51/53/46
f 43/49/43 51/53/46 52/54/46
f 50/50/44 49/55/42 44/51/45
f 15/56/15 53/57/47 54/58/48
f 15/56/15 54/58/48 55/59/49
f 15/56/15 55/59/49 12/60/12
f 15/56/15 12/60/12 9/61/9
f 54/58/48 56/62/50 55/59/49
f 12/60/12 10/63/10 9/61/9
f 12/60/12 55/59/49 57/64/51
f 58/65/52 59/66/53 60/67/54
f 58/65/52 61/68/55 59/66/53
f 58/65/52 62/69/56 61/68/55
f 58/65/52 63/70/57 62/69/56
f 60/67/54 59/66/53 64/71/51
f 63/70/57 53/72/47 62/69/56
f 59/66/53 65/73/49 64/71/51
f 53/72/47 54/74/48 62/69/56
f 66/75/58 67/76/59 68/77/59
f 66/75/58 69/78/60 67/76/59
f 66/75/58 21/19/61 69/78/60
f 66/75/58 23/17/62 21/19/61
f 70/79/63 71/80/64 72/81/64
f 70/79/63 73/82/63 71/80/64
f 70/79/63 20/18/65 73/82/63
f 70/79/63 18/16/65 20/18/65
f 74/83/66 75/84/66 72/81/66
f 74/83/66 76/85/66 75/84/66
f 74/83/66 72/81/66 77/86/66
f 74/83/66 77/86/66 78/87/66
f 76/85/66 79/88/66 75/84/66
f 72/81/66 71/80/66 77/86/66
f 80/79/67 20/18/68 22/16/69
f 80/79/67 73/82/70 20/18/68
f 80/79/67 71/80/71 73/82/70
f 80/79/67 81/81/71 71/80/71
f 3/3/72 2/2/72 4/4/72
f 3/3/72 4/4/72 6/2/72
f 3/3/72 6/2/72 7/3/72
f 3/3/72 7/3/72 5/5/72
f 82/89/73 83/90/74 84/91/75
f 82/89/73 85/92/76 83/90/74
f 82/89/73 84/91/75 86/93/77
f 82/89/73 87/94/76 85/92/76
f 84/91/75 88/95/78 86/93/77
f 87/94/76 89/89/79 85/92/76
f 88/95/78 90/96/78 86/93/77
f 88/95/78 91/93/80 90/96/78
f 88/95/78 92/91/81 91/93/80
f 89/89/79 93/90/82 85/92/76
f 89/89/79 91/93/80 93/90/82
f 93/90/82 91/93/80 92/91/81
f 94/97/83 95/98/83 96/99/83
f 94/97/83 97/100/83 95/98/83
f 94/97/83 39/101/31 97/100/83
f 39/101/31 38/102/31 97/100/83
f 98/97/84 96/99/84 99/98/84
f 98/97/84 99/98/84 100/100/84
f 98/97/84 100/100/84 39/101/36
f 100/100/84 42/102/36 39/101/36
f 101/97/85 102/99/85 103/98/85
f 101/97/85 103/98/85 104/100/85
f 101/97/85 104/100/85 48/101/40
f 104/100/85 46/102/40 48/101/40
f 101/97/86 103/98/86 102/99/86
f 101/97/86 105/100/86 103/98/86
f 101/97/86 52/101/46 105/100/86
f 52/101/46 51/102/46 105/100/86
f 57/7/51 14/14/14 12/13/12
f 57/7/51 106/9/87 14/14/14
f 57/7/51 55/8/49 106/9/87
f 55/8/49 107/6/88 106/9/87
f 55/8/49 56/10/50 107/6/88
f 56/10/50 108/12/89 107/6/88
f 54/7/48 108/14/89 56/13/50
f 54/7/48 109/9/90 108/14/89
f 54/7/48 53/8/47 109/9/90
f 53/8/47 110/6/91 109/9/90
f 53/8/47 15/10/15 110/6/91
f 15/10/15 16/12/16 110/6/91
f 13/103/13 14/104/14 106/105/87
f 13/103/13 106/105/87 107/106/88
f 13/103/13 107/106/88 108/107/89
f 13/108/13 108/109/89 109/110/90
f 13/108/13 109/110/90 110/111/91
f 13/108/13 110/111/91 16/112/16
f 70/113/92 72/114/93 111/115/93
f 70/113/92 111/115/93 112/116/92
f 70/113/92 112/116/92 18/117/94
f 112/116/92 19/118/94 18/117/94
f 111/77/95 113/119/95 67/76/95
f 111/77/95 114/120/95 113/119/95
f 111/77/95 75/84/95 114/120/95
f 66/116/96 68/115/96 81/114/96
f 66/116/96 81/114/96 80/113/96
f 66/116/96 80/113/96 23/118/13
f 80/113/96 22/117/13 23/118/13
f 81/81/97 115/86/97 71/80/97
f 81/81/97 116/83/97 115/86/97
f 81/81/97 117/84/97 116/83/97
f 117/84/97 76/85/97 116/83/97
f 117/84/97 79/88/97 76/85/97
f 112/75/98 69/78/98 19/17/99
f 112/75/98 67/76/100 69/78/98
f 112/75/98 111/77/100 67/76/100
f 19/17/99 69/78/98 21/19/99
f 68/77/101 118/119/101 119/120/101
f 68/77/101 67/76/101 118/119/101
f 68/77/101 119/120/101 117/84/101
f 84/91/72 92/91/72 88/95/72
f 84/91/72 93/90/72 92/91/72
f 84/91/72 83/90/72 93/90/72
f 83/90/72 85/92/72 93/90/72
f 89/89/1 87/94/1 82/89/1
f 89/89/1 82/89/1 86/93/1
f 89/89/1 86/93/1 91/93/1
f 86/93/1 90/96/1 91/93/1
f 117/84/102 120/121/102 79/88/102
f 117/84/102 119/120/102 120/121/102
f 120/121/103 114/120/103 75/84/103
f 120/121/103 75/84/103 79/88/103
f 114/120/103 121/122/103 113/119/103
f 25/21/104 28/21/104 26/22/104
f 25/21/104 27/23/104 28/21/104
f 32/26/105 31/26/105 30/25/105
f 32/26/105 33/27/105 31/26/105
f 111/123/55 72/124/55 75/125/55
f 67/76/106 113/119/106 118/119/106
f 81/124/13 68/123/13 117/125/13
f 71/80/107 115/86/107 77/86/107
f 114/120/108 120/121/108 119/120/108
f 121/122/109 114/120/109 119/120/109
f 77/86/76 115/86/76 78/87/76
f 74/83/110 116/83/110 76/85/110
f 115/86/111 116/83/111 78/87/111
f 78/87/112 116/83/112 74/83/112
f 121/122/113 119/120/113 118/119/113
f 118/119/22 113/119/22 121/122/22
f 122/126/114 123/127/115 124/128/116
f 125/127/117 126/126/118 127/128/119
v -0.0434228 0.765067 0.060154
vt 0.282885 0.946902
vn -0.128662 -0.127796 0.9834197
vt -0.0875527 0.932946
v -0.0434228 0.699419 0.0516231
vt 0.282885 0.866084
vn -0.177975 -0.298665 0.9376162
vt 0.110777 0.838622
v 0.0434228 0.699419 0.0516231
vt 0.717114 0.866084
vn 0.177975 -0.298666 0.9376159
v 0.0434228 0.765067 0.060154
vt 0.717114 0.946902
vn 0.128662 -0.127796 0.9834197
v 0 0.660785 0.02409
vt 0.5 0.803098
vn 0 -0.6614693 0.7499723
vt 0.889222 0.838622
vt 1.08755 0.932946
o merged_1_0_node
g polygon_0
usemtl TEX_ANIM_EYE_mat_id
f 128/129/120 124/130/116 129/131/121
f 129/131/121 124/130/116 123/132/115
f 129/131/121 130/133/122 128/129/120
f 128/129/120 130/133/122 131/134/123
f 123/132/115 132/135/124 129/131/121
f 129/131/121 132/135/124 130/133/122
f 132/135/124 125/136/117 130/133/122
f 131/134/123 130/133/122 127/137/119
f 127/137/119 130/133/122 125/136/117
