ply
format ascii 1.0
element vertex 425
property float x
property float y
property float z
property uchar red
property uchar green
property uchar blue
element face 404
property list uchar int vertex_index
end_header
-0.34494 -0.47633 0.07328 180 148 122
-0.34494 -0.47633 1.18851 180 148 122
0.34494 -0.47633 1.18851 180 148 122
0.34494 -0.47633 0.07328 180 148 122
0.41679 -0.40384 1.18851 180 148 122
0.41679 -0.40384 0.07328 180 148 122
0.33837 -0.45448 1.2254 180 148 122
-0.33837 -0.45448 1.2254 180 148 122
0.39472 -0.39861 1.2254 180 148 122
0.41679 0.27283 0.07328 180 148 122
0.41679 0.27283 1.18851 180 148 122
-0.41679 -0.40384 1.18851 180 148 122
-0.41679 -0.40384 0.07328 180 148 122
0.39472 0.26749 1.2254 180 148 122
-0.39472 -0.39861 1.2254 180 148 122
-0.30425 -0.39999 1.25991 189 155 128
-0.3397 -0.36617 1.25991 189 155 128
0.3397 -0.36617 1.25991 189 155 128
0.30425 -0.39999 1.25991 189 155 128
-0.33837 -0.45448 1.2254 189 155 128
-0.39472 -0.39861 1.2254 189 155 128
0.33837 -0.45448 1.2254 189 155 128
0.39472 -0.39861 1.2254 189 155 128
0.39472 0.26749 1.2254 189 155 128
0.3397 0.23526 1.25991 189 155 128
0.33837 0.32738 1.2254 189 155 128
0.30425 0.27289 1.25991 189 155 128
-0.30425 0.27289 1.25991 189 155 128
-0.33837 0.32738 1.2254 189 155 128
-0.3397 0.23526 1.25991 189 155 128
-0.39472 0.26749 1.2254 189 155 128
-0.34494 0.34924 0.07328 180 148 122
-0.34494 0.34924 1.18851 180 148 122
-0.41679 0.27283 1.18851 180 148 122
-0.41679 0.27283 0.07328 180 148 122
0.34494 0.34924 0.07328 180 148 122
0.34494 0.34924 1.18851 180 148 122
-0.39472 0.26749 1.2254 180 148 122
-0.33837 0.32738 1.2254 180 148 122
0.33837 0.32738 1.2254 180 148 122
-0.14034 -0.59761 0.77951 249 236 244
-0.14034 -0.59761 0.83558 249 236 244
-0.03504 -0.59761 0.83558 249 236 244
-0.03504 -0.59761 0.77951 249 236 244
-0.15304 -0.59761 0.86854 227 174 205
-0.17101 -0.58012 0.88546 227 174 205
0.17101 -0.58012 0.88546 227 174 205
0.15304 -0.59761 0.86854 227 174 205
-0.17993 -0.59761 0.84558 227 174 205
0.17993 -0.59761 0.84558 227 174 205
-0.14034 -0.59761 0.83558 227 174 205
-0.03504 -0.59761 0.83558 227 174 205
0.17993 -0.59761 0.67638 227 174 205
0.20105 -0.58012 0.85945 227 174 205
0.20105 -0.58012 0.6625 227 174 205
-0.03504 -0.59761 0.77951 227 174 205
-0.17993 -0.59761 0.67638 227 174 205
-0.14034 -0.59761 0.77951 227 174 205
-0.15304 -0.59761 0.65342 227 174 205
0.15304 -0.59761 0.65342 227 174 205
-0.17101 -0.58012 0.6365 227 174 205
-0.20105 -0.58012 0.6625 227 174 205
0.17101 -0.58012 0.6365 227 174 205
-0.17101 -0.45941 0.6365 227 174 205
0.17101 -0.45941 0.6365 227 174 205
0.20105 -0.45941 0.6625 227 174 205
0.20105 -0.45941 0.85945 227 174 205
-0.20105 -0.58012 0.85945 227 174 205
-0.20105 -0.45941 0.6625 227 174 205
-0.20105 -0.45941 0.85945 227 174 205
-0.17101 -0.45941 0.88546 227 174 205
0.17101 -0.45941 0.88546 227 174 205
0.11406 -0.51021 1.13388 36 33 33
0.11406 -0.44296 1.13388 36 33 33
0.20232 -0.44296 1.13388 36 33 33
0.20232 -0.51021 1.13388 36 33 33
0.11406 -0.51021 0.98184 36 33 33
0.11406 -0.44296 0.98184 36 33 33
0.20232 -0.51021 0.98184 36 33 33
0.20232 -0.44296 0.98184 36 33 33
0.13143 -0.51021 1.12241 36 33 33
0.18264 -0.51021 1.12241 36 33 33
0.18264 -0.51021 1.07656 36 33 33
0.13143 -0.51021 1.07656 36 33 33
0.11406 -0.44296 0.94216 36 33 33
0.11406 -0.51021 0.94216 36 33 33
0.20232 -0.51021 0.94216 36 33 33
0.20232 -0.44296 0.94216 36 33 33
0.13143 -0.51021 1.07656 253 253 253
0.13143 -0.51021 1.12241 253 253 253
0.18264 -0.51021 1.12241 253 253 253
0.18264 -0.51021 1.07656 253 253 253
-0.11406 -0.51021 1.13388 36 33 33
-0.20232 -0.51021 1.13388 36 33 33
-0.20232 -0.44296 1.13388 36 33 33
-0.11406 -0.44296 1.13388 36 33 33
-0.11406 -0.51021 0.98184 36 33 33
-0.11406 -0.44296 0.98184 36 33 33
-0.20232 -0.51021 0.98184 36 33 33
-0.20232 -0.44296 0.98184 36 33 33
-0.13143 -0.51021 1.12241 36 33 33
-0.18264 -0.51021 1.12241 36 33 33
-0.18264 -0.51021 1.07656 36 33 33
-0.13143 -0.51021 1.07656 36 33 33
-0.11406 -0.51021 0.94216 36 33 33
-0.11406 -0.44296 0.94216 36 33 33
-0.20232 -0.51021 0.94216 36 33 33
-0.20232 -0.44296 0.94216 36 33 33
-0.13143 -0.51021 1.07656 253 253 253
-0.18264 -0.51021 1.07656 253 253 253
-0.18264 -0.51021 1.12241 253 253 253
-0.13143 -0.51021 1.12241 253 253 253
-0.49887 -0.32226 0.14717 191 201 197
-0.49887 -0.32226 0.17812 191 201 197
-0.30109 -0.32226 0.17812 191 201 197
-0.30109 -0.32226 0.14717 191 201 197
-0.49887 -0.22486 0.14717 191 201 197
-0.49887 -0.22486 0.17812 191 201 197
-0.30109 -0.22486 0.14717 191 201 197
-0.30109 -0.22486 0.17812 191 201 197
-0.49887 -0.32226 0.17812 196 206 203
-0.49887 -0.22486 0.17812 196 206 203
-0.30109 -0.22486 0.17812 196 206 203
-0.30109 -0.32226 0.17812 196 206 203
0.034 -0.6302 0.07794 191 201 197
0.034 -0.6302 0.10703 191 201 197
0.1298 -0.6302 0.10703 191 201 197
0.1298 -0.6302 0.07794 191 201 197
0.1298 -0.55494 0.10703 191 201 197
0.1298 -0.55494 0.07794 191 201 197
0.034 -0.55494 0.07794 191 201 197
0.034 -0.55494 0.10703 191 201 197
0.034 -0.6302 0.10703 196 206 203
0.034 -0.55494 0.10703 196 206 203
0.1298 -0.55494 0.10703 196 206 203
0.1298 -0.6302 0.10703 196 206 203
-0.01981 0.2529 0.24152 146 153 146
-0.01981 0.39416 0.24152 146 153 146
0.25676 0.39416 0.24152 146 153 146
0.25676 0.2529 0.24152 146 153 146
-0.01981 0.39416 0.24152 142 149 142
-0.01981 0.39416 0.13488 142 149 142
0.25676 0.39416 0.13488 142 149 142
0.25676 0.39416 0.24152 142 149 142
0.25676 0.2529 0.13488 142 149 142
0.25676 0.2529 0.24152 142 149 142
-0.01981 0.2529 0.24152 142 149 142
-0.01981 0.2529 0.13488 142 149 142
-0.45035 0.03497 0.13488 142 149 142
-0.45035 0.03497 0.20327 142 149 142
-0.2999 0.03497 0.20327 142 149 142
-0.2999 0.03497 0.13488 142 149 142
-0.45035 0.23864 0.13488 142 149 142
-0.45035 0.23864 0.20327 142 149 142
-0.2999 0.23864 0.13488 142 149 142
-0.2999 0.23864 0.20327 142 149 142
-0.45035 0.03497 0.20327 146 153 146
-0.45035 0.23864 0.20327 146 153 146
-0.2999 0.23864 0.20327 146 153 146
-0.2999 0.03497 0.20327 146 153 146
0.20615 -0.52098 0.15203 142 149 142
0.20615 -0.52098 0.20327 142 149 142
0.34895 -0.52098 0.20327 142 149 142
0.34895 -0.52098 0.15203 142 149 142
0.34895 -0.41248 0.20327 142 149 142
0.34895 -0.41248 0.15203 142 149 142
0.20615 -0.41248 0.15203 142 149 142
0.20615 -0.41248 0.20327 142 149 142
0.20615 -0.52098 0.20327 146 153 146
0.20615 -0.41248 0.20327 146 153 146
0.34895 -0.41248 0.20327 146 153 146
0.34895 -0.52098 0.20327 146 153 146
-0.32006 -0.52024 0.14906 142 149 142
-0.32006 -0.52024 0.24152 142 149 142
-0.04348 -0.52024 0.24152 142 149 142
-0.04348 -0.52024 0.14906 142 149 142
-0.04348 -0.37801 0.24152 142 149 142
-0.04348 -0.37801 0.14906 142 149 142
-0.32006 -0.37801 0.14906 142 149 142
-0.32006 -0.37801 0.24152 142 149 142
-0.32006 -0.52024 0.24152 146 153 146
-0.32006 -0.37801 0.24152 146 153 146
-0.04348 -0.37801 0.24152 146 153 146
-0.04348 -0.52024 0.24152 146 153 146
0.30215 -0.3894 0.13488 142 149 142
0.30215 -0.3894 0.24152 142 149 142
0.45945 -0.3894 0.24152 142 149 142
0.45945 -0.3894 0.13488 142 149 142
0.45945 -0.1353 0.24152 142 149 142
0.45945 -0.1353 0.13488 142 149 142
0.30215 -0.1353 0.24152 142 149 142
0.30215 -0.1353 0.13488 142 149 142
0.30215 -0.3894 0.24152 146 153 146
0.30215 -0.1353 0.24152 146 153 146
0.45945 -0.1353 0.24152 146 153 146
0.45945 -0.3894 0.24152 146 153 146
0.47639 -0.32138 0.07622 191 201 197
0.47639 -0.32138 0.18571 191 201 197
0.61673 -0.32138 0.18571 191 201 197
0.61673 -0.32138 0.07622 191 201 197
0.61673 -0.1753 0.18571 191 201 197
0.61673 -0.1753 0.07622 191 201 197
0.47639 -0.1753 0.18571 191 201 197
0.47639 -0.1753 0.07622 191 201 197
0.47639 -0.32138 0.18571 196 206 203
0.47639 -0.1753 0.18571 196 206 203
0.61673 -0.1753 0.18571 196 206 203
0.61673 -0.32138 0.18571 196 206 203
-0.20387 0.39567 0.0774 191 201 197
-0.20387 0.39567 0.19723 191 201 197
-0.06354 0.39567 0.19723 191 201 197
-0.06354 0.39567 0.0774 191 201 197
-0.06354 0.54174 0.19723 191 201 197
-0.06354 0.54174 0.0774 191 201 197
-0.20387 0.54174 0.19723 191 201 197
-0.20387 0.54174 0.0774 191 201 197
-0.20387 0.39567 0.19723 196 206 203
-0.20387 0.54174 0.19723 196 206 203
-0.06354 0.54174 0.19723 196 206 203
-0.06354 0.39567 0.19723 196 206 203
-0.26206 -0.6716 0.07752 191 201 197
-0.26206 -0.6716 0.12907 191 201 197
-0.11758 -0.6716 0.12907 191 201 197
-0.11758 -0.6716 0.07752 191 201 197
-0.11758 -0.554 0.12907 191 201 197
-0.11758 -0.554 0.07752 191 201 197
-0.26206 -0.554 0.07752 191 201 197
-0.26206 -0.554 0.12907 191 201 197
-0.26206 -0.6716 0.12907 196 206 203
-0.26206 -0.554 0.12907 196 206 203
-0.11758 -0.554 0.12907 196 206 203
-0.11758 -0.6716 0.12907 196 206 203
0.2913 0.0154 0.14255 191 201 197
0.2913 0.0154 0.2055 191 201 197
0.4978 0.0154 0.2055 191 201 197
0.4978 0.0154 0.14255 191 201 197
0.4978 0.27479 0.2055 191 201 197
0.4978 0.27479 0.14255 191 201 197
0.2913 0.27479 0.2055 191 201 197
0.2913 0.27479 0.14255 191 201 197
0.2913 0.0154 0.2055 196 206 203
0.2913 0.27479 0.2055 196 206 203
0.4978 0.27479 0.2055 196 206 203
0.4978 0.0154 0.2055 196 206 203
0.16684 0.42711 0.12334 196 206 203
0.16684 0.57318 0.12334 196 206 203
0.30717 0.57318 0.12334 196 206 203
0.30717 0.42711 0.12334 196 206 203
0.16684 0.57318 0.12334 191 201 197
0.16684 0.57318 0.07915 191 201 197
0.30717 0.57318 0.07915 191 201 197
0.30717 0.57318 0.12334 191 201 197
0.30717 0.42711 0.07915 191 201 197
0.30717 0.42711 0.12334 191 201 197
0.16684 0.42711 0.12334 191 201 197
0.16684 0.42711 0.07915 191 201 197
-0.63503 -0.10025 0.07353 191 201 197
-0.63503 -0.10025 0.17812 191 201 197
-0.47643 -0.10025 0.17812 191 201 197
-0.47643 -0.10025 0.07353 191 201 197
-0.47643 0.06485 0.17812 191 201 197
-0.47643 0.06485 0.07353 191 201 197
-0.63503 0.06485 0.17812 191 201 197
-0.63503 0.06485 0.07353 191 201 197
-0.63503 -0.10025 0.17812 196 206 203
-0.63503 0.06485 0.17812 196 206 203
-0.47643 0.06485 0.17812 196 206 203
-0.47643 -0.10025 0.17812 196 206 203
0.48717 -0.55678 0.08106 142 149 142
0.55678 -0.55678 0.08106 142 149 142
0.55678 -0.55678 -2.13623E-08 142 149 142
0.48717 -0.55678 -2.13623E-08 142 149 142
0.55678 -0.40466 0.08106 142 149 142
0.55678 -0.55678 0.15487 142 149 142
0.55678 -0.40466 -2.13623E-08 142 149 142
0.55678 -0.04622 0.15487 142 149 142
0.55678 0.02239 0.08106 142 149 142
0.55678 0.20573 0.08106 142 149 142
0.55678 0.20573 -2.13623E-08 142 149 142
0.55678 0.02239 -2.13623E-08 142 149 142
0.55678 0.46434 0.15487 142 149 142
0.55678 0.4165 0.08106 142 149 142
0.55678 0.46434 0.08106 142 149 142
0.38522 0.46434 0.08106 142 149 142
0.38522 0.46434 -2.13623E-08 142 149 142
0.55678 0.46434 -2.13623E-08 142 149 142
0.55678 0.4165 -2.13623E-08 142 149 142
0.67561 0.4165 0.08106 142 149 142
0.67561 0.4165 -2.13623E-08 142 149 142
0.67561 0.20573 0.08106 142 149 142
0.67561 0.20573 -2.13623E-08 142 149 142
0 0.46434 0.15487 142 149 142
-0.24671 0.46434 0.08106 142 149 142
-0.55678 0.46434 0.15487 142 149 142
-0.40744 0.46434 0.08106 142 149 142
-0.40744 0.46434 -2.13623E-08 142 149 142
-0.24671 0.46434 -2.13623E-08 142 149 142
-0.55678 0.46434 0.08106 142 149 142
-0.55678 0.27332 0.08106 142 149 142
-0.55678 0.17562 0.08106 142 149 142
-0.55678 -0.04622 0.15487 142 149 142
-0.55678 -0.3581 0.08106 142 149 142
-0.55678 -0.55678 0.15487 142 149 142
-0.55678 -0.55678 0.08106 142 149 142
-0.55678 -0.55678 -2.13623E-08 142 149 142
-0.55678 -0.3581 -2.13623E-08 142 149 142
-0.36665 -0.55678 0.08106 142 149 142
-0.36665 -0.55678 -2.13623E-08 142 149 142
0 -0.55678 0.15487 142 149 142
0.15981 -0.55678 0.08106 142 149 142
0.33159 -0.55678 0.08106 142 149 142
0.33159 -0.55678 -2.13623E-08 142 149 142
0.15981 -0.55678 -2.13623E-08 142 149 142
-0.36665 -0.70352 -2.13623E-08 142 149 142
-0.36665 -0.70352 0.08106 142 149 142
0.15981 -0.70352 -2.13623E-08 142 149 142
0.15981 -0.70352 0.08106 142 149 142
0.33159 -0.66186 -2.13623E-08 142 149 142
0.33159 -0.66186 0.08106 142 149 142
0.48717 -0.66186 -2.13623E-08 142 149 142
0.48717 -0.66186 0.08106 142 149 142
0.55678 -0.04622 0.15487 146 153 146
0.55678 -0.55678 0.15487 146 153 146
0 -0.55678 0.15487 146 153 146
-0.55678 -0.04622 0.15487 146 153 146
0 0.46434 0.15487 146 153 146
-0.55678 -0.55678 0.15487 146 153 146
-0.55678 0.46434 0.15487 146 153 146
0.55678 0.46434 0.15487 146 153 146
0 -0.04622 -2.13623E-08 96 103 96
0.55678 0.4165 -2.13623E-08 96 103 96
0.55678 0.46434 -2.13623E-08 96 103 96
0.55678 0.20573 -2.13623E-08 96 103 96
0.67561 0.4165 -2.13623E-08 96 103 96
0.67561 0.20573 -2.13623E-08 96 103 96
0.55678 0.02239 -2.13623E-08 96 103 96
0.55678 -0.40466 -2.13623E-08 96 103 96
0.63579 0.02239 -2.13623E-08 96 103 96
0.63579 -0.40466 -2.13623E-08 96 103 96
0.55678 -0.55678 -2.13623E-08 96 103 96
0.48717 -0.55678 -2.13623E-08 96 103 96
0.33159 -0.55678 -2.13623E-08 96 103 96
0.48717 -0.66186 -2.13623E-08 96 103 96
0.33159 -0.66186 -2.13623E-08 96 103 96
0.15981 -0.55678 -2.13623E-08 96 103 96
-0.36665 -0.55678 -2.13623E-08 96 103 96
0.15981 -0.70352 -2.13623E-08 96 103 96
-0.36665 -0.70352 -2.13623E-08 96 103 96
-0.55678 -0.55678 -2.13623E-08 96 103 96
-0.55678 -0.3581 -2.13623E-08 96 103 96
-0.55678 0.17562 -2.13623E-08 96 103 96
-0.68606 -0.3581 -2.13623E-08 96 103 96
-0.68606 0.17562 -2.13623E-08 96 103 96
-0.55678 0.27332 -2.13623E-08 96 103 96
-0.55678 0.46434 -2.13623E-08 96 103 96
-0.62762 0.27332 -2.13623E-08 96 103 96
-0.62762 0.53251 -2.13623E-08 96 103 96
-0.40744 0.46434 -2.13623E-08 96 103 96
-0.40744 0.53251 -2.13623E-08 96 103 96
-0.24671 0.46434 -2.13623E-08 96 103 96
0.38522 0.46434 -2.13623E-08 96 103 96
-0.24671 0.6234 -2.13623E-08 96 103 96
0.38522 0.6234 -2.13623E-08 96 103 96
-0.62762 0.53251 0.08106 142 149 142
-0.62762 0.53251 -2.13623E-08 142 149 142
-0.40744 0.53251 -2.13623E-08 142 149 142
-0.40744 0.53251 0.08106 142 149 142
-0.62762 0.27332 0.08106 142 149 142
-0.62762 0.27332 -2.13623E-08 142 149 142
-0.55678 0.27332 -2.13623E-08 142 149 142
-0.55678 0.17562 -2.13623E-08 142 149 142
-0.68606 0.17562 -2.13623E-08 142 149 142
-0.68606 0.17562 0.08106 142 149 142
-0.68606 -0.3581 -2.13623E-08 142 149 142
-0.68606 -0.3581 0.08106 142 149 142
0.15981 -0.55678 0.08106 146 153 146
0.15981 -0.70352 0.08106 146 153 146
-0.36665 -0.70352 0.08106 146 153 146
-0.36665 -0.55678 0.08106 146 153 146
0.48717 -0.55678 0.08106 146 153 146
0.48717 -0.66186 0.08106 146 153 146
0.33159 -0.66186 0.08106 146 153 146
0.33159 -0.55678 0.08106 146 153 146
0.63579 -0.40466 0.08106 142 149 142
0.63579 0.02239 0.08106 142 149 142
0.63579 0.02239 -2.13623E-08 142 149 142
0.63579 -0.40466 -2.13623E-08 142 149 142
0.55678 0.02239 0.08106 146 153 146
0.63579 0.02239 0.08106 146 153 146
0.63579 -0.40466 0.08106 146 153 146
0.55678 -0.40466 0.08106 146 153 146
0.55678 0.4165 0.08106 146 153 146
0.67561 0.4165 0.08106 146 153 146
0.67561 0.20573 0.08106 146 153 146
0.55678 0.20573 0.08106 146 153 146
-0.24671 0.6234 -2.13623E-08 142 149 142
0.38522 0.6234 -2.13623E-08 142 149 142
0.38522 0.6234 0.08106 142 149 142
-0.24671 0.6234 0.08106 142 149 142
-0.55678 -0.3581 0.08106 146 153 146
-0.68606 -0.3581 0.08106 146 153 146
-0.68606 0.17562 0.08106 146 153 146
-0.55678 0.17562 0.08106 146 153 146
-0.55678 0.46434 0.08106 146 153 146
-0.62762 0.53251 0.08106 146 153 146
-0.40744 0.53251 0.08106 146 153 146
-0.40744 0.46434 0.08106 146 153 146
-0.55678 0.27332 0.08106 146 153 146
-0.62762 0.27332 0.08106 146 153 146
-0.24671 0.46434 0.08106 146 153 146
-0.24671 0.6234 0.08106 146 153 146
0.38522 0.6234 0.08106 146 153 146
0.38522 0.46434 0.08106 146 153 146
-0.17101 -0.58012 0.88546 235 180 212
-0.17101 -0.45941 0.88546 235 180 212
0.17101 -0.45941 0.88546 235 180 212
0.17101 -0.58012 0.88546 235 180 212
0.20232 -0.51021 0.98184 58 50 45
0.20232 -0.51021 0.94216 58 50 45
0.11406 -0.51021 0.94216 58 50 45
0.11406 -0.51021 0.98184 58 50 45
-0.11406 -0.51021 0.98184 58 50 45
-0.11406 -0.51021 0.94216 58 50 45
-0.20232 -0.51021 0.94216 58 50 45
-0.20232 -0.51021 0.98184 58 50 45
3 0 2 1
3 0 3 2
3 3 4 2
3 3 5 4
3 1 2 6
3 1 6 7
3 2 8 6
3 2 4 8
3 4 5 9
3 4 9 10
3 11 0 1
3 7 11 1
3 11 12 0
3 13 4 10
3 13 8 4
3 7 14 11
3 15 17 16
3 15 18 17
3 16 19 15
3 19 18 15
3 16 20 19
3 19 21 18
3 21 17 18
3 21 22 17
3 17 22 23
3 17 23 24
3 24 23 25
3 24 25 26
3 27 26 25
3 27 25 28
3 29 26 27
3 29 24 26
3 28 29 27
3 16 24 29
3 29 20 16
3 29 30 20
3 28 30 29
3 16 17 24
3 31 33 32
3 31 34 33
3 32 35 31
3 32 36 35
3 32 33 37
3 32 37 38
3 38 36 32
3 10 35 36
3 10 9 35
3 33 34 12
3 33 12 11
3 38 39 36
3 39 10 36
3 39 13 10
3 14 33 11
3 14 37 33
3 40 42 41
3 40 43 42
3 44 46 45
3 44 47 46
3 48 47 44
3 45 48 44
3 48 49 47
3 49 46 47
3 49 48 50
3 49 50 51
3 52 49 51
3 52 53 49
3 49 53 46
3 52 54 53
3 52 51 55
3 56 52 55
3 56 55 57
3 48 57 50
3 48 56 57
3 52 56 58
3 52 58 59
3 56 60 58
3 60 59 58
3 56 61 60
3 60 62 59
3 62 52 59
3 62 54 52
3 63 62 60
3 63 64 62
3 65 62 64
3 65 54 62
3 53 54 65
3 53 65 66
3 67 61 56
3 68 61 67
3 60 68 63
3 60 61 68
3 68 67 69
3 69 67 45
3 69 45 70
3 67 56 48
3 45 67 48
3 46 66 71
3 46 53 66
3 72 74 73
3 72 75 74
3 73 76 72
3 73 77 76
3 74 75 78
3 74 78 79
3 75 72 80
3 75 80 81
3 82 75 81
3 82 78 75
3 83 72 76
3 83 80 72
3 83 78 82
3 83 76 78
3 76 77 84
3 76 84 85
3 84 86 85
3 79 78 86
3 84 87 86
3 79 86 87
3 88 90 89
3 88 91 90
3 92 94 93
3 92 95 94
3 95 92 96
3 95 96 97
3 94 98 93
3 94 99 98
3 93 100 92
3 93 101 100
3 102 93 98
3 102 101 93
3 103 92 100
3 103 96 92
3 103 98 96
3 103 102 98
3 97 96 104
3 97 104 105
3 105 104 106
3 105 106 107
3 98 107 106
3 98 99 107
3 108 110 109
3 108 111 110
3 112 114 113
3 112 115 114
3 116 112 113
3 116 113 117
3 117 118 116
3 117 119 118
3 120 122 121
3 120 123 122
3 124 126 125
3 124 127 126
3 127 128 126
3 127 129 128
3 130 124 125
3 130 125 131
3 132 134 133
3 132 135 134
3 136 138 137
3 136 139 138
3 140 142 141
3 140 143 142
3 144 142 143
3 144 143 145
3 141 146 140
3 141 147 146
3 148 150 149
3 148 151 150
3 152 148 149
3 152 149 153
3 153 154 152
3 153 155 154
3 156 158 157
3 156 159 158
3 160 162 161
3 160 163 162
3 163 164 162
3 163 165 164
3 166 160 161
3 166 161 167
3 168 170 169
3 168 171 170
3 172 174 173
3 172 175 174
3 175 176 174
3 175 177 176
3 178 172 173
3 178 173 179
3 180 182 181
3 180 183 182
3 184 186 185
3 184 187 186
3 187 188 186
3 187 189 188
3 190 188 189
3 190 189 191
3 192 194 193
3 192 195 194
3 196 198 197
3 196 199 198
3 199 200 198
3 199 201 200
3 202 200 201
3 202 201 203
3 203 197 202
3 203 196 197
3 204 206 205
3 204 207 206
3 208 210 209
3 208 211 210
3 211 212 210
3 211 213 212
3 214 212 213
3 214 213 215
3 215 209 214
3 215 208 209
3 216 218 217
3 216 219 218
3 220 222 221
3 220 223 222
3 223 224 222
3 223 225 224
3 226 220 221
3 226 221 227
3 228 230 229
3 228 231 230
3 232 234 233
3 232 235 234
3 235 236 234
3 235 237 236
3 238 236 237
3 238 237 239
3 240 242 241
3 240 243 242
3 244 246 245
3 244 247 246
3 248 250 249
3 248 251 250
3 252 250 251
3 252 251 253
3 249 254 248
3 249 255 254
3 256 258 257
3 256 259 258
3 259 260 258
3 259 261 260
3 262 260 261
3 262 261 263
3 263 257 262
3 263 256 257
3 264 266 265
3 264 267 266
3 268 270 269
3 268 271 270
3 270 272 269
3 269 272 273
3 273 268 269
3 270 274 272
3 273 272 275
3 275 272 276
3 275 276 277
3 276 278 277
3 276 279 278
3 275 277 280
3 280 277 281
3 280 281 282
3 283 280 282
3 284 283 282
3 284 282 285
3 281 285 282
3 281 286 285
3 286 281 287
3 286 287 288
3 289 288 287
3 289 290 288
3 277 290 289
3 277 278 290
3 283 291 280
3 292 291 283
3 293 291 292
3 293 292 294
3 295 294 292
3 295 292 296
3 293 294 297
3 297 298 293
3 293 298 299
3 293 299 300
3 300 299 301
3 300 301 302
3 302 301 303
3 301 304 303
3 301 305 304
3 304 306 303
3 304 307 306
3 303 308 302
3 303 306 308
3 308 306 309
3 308 309 310
3 309 311 310
3 309 312 311
3 308 310 268
3 308 268 273
3 306 307 313
3 306 313 314
3 314 313 315
3 314 315 316
3 312 316 315
3 312 309 316
3 310 311 317
3 310 317 318
3 318 317 319
3 318 319 320
3 271 320 319
3 271 268 320
3 321 323 322
3 324 323 321
3 324 321 325
3 326 323 324
3 324 325 327
3 325 321 328
3 329 331 330
3 329 330 332
3 332 330 333
3 332 333 334
3 329 332 335
3 329 335 336
3 336 335 337
3 336 337 338
3 329 336 339
3 340 329 339
3 341 329 340
3 341 340 342
3 341 342 343
3 344 329 341
3 345 329 344
3 345 344 346
3 345 346 347
3 348 329 345
3 349 329 348
3 350 329 349
3 350 349 351
3 350 351 352
3 353 329 350
3 354 329 353
3 354 353 355
3 354 355 356
3 357 354 356
3 354 357 329
3 357 356 358
3 329 357 359
3 329 359 360
3 360 359 361
3 360 361 362
3 329 360 331
3 363 365 364
3 363 366 365
3 294 365 366
3 294 295 365
3 364 367 363
3 364 368 367
3 369 367 368
3 369 298 367
3 298 369 370
3 298 370 299
3 299 370 371
3 299 371 372
3 372 371 373
3 372 373 374
3 305 374 373
3 305 301 374
3 375 377 376
3 375 378 377
3 379 381 380
3 379 382 381
3 383 385 384
3 383 386 385
3 272 386 383
3 272 274 386
3 279 384 385
3 279 276 384
3 387 389 388
3 387 390 389
3 391 393 392
3 391 394 393
3 395 397 396
3 395 398 397
3 296 398 395
3 296 292 398
3 283 396 397
3 283 284 396
3 399 401 400
3 399 402 401
3 403 405 404
3 403 406 405
3 407 403 404
3 407 404 408
3 409 411 410
3 409 412 411
3 413 415 414
3 413 416 415
3 417 419 418
3 417 420 419
3 421 423 422
3 421 424 423
