mtllib Wormadam_Kusa.mtl
v 0 0.00111697 0.00239784
vt 0.0764574 0.0486526
vn 0.00111543 -0.9998612 -0.0166253
v -0.0698964 0.0503496 -0.052024
vn -0.6612129 -0.4957419 -0.5630609
v -0.000911215 0.0445528 -0.0882317
vn -0.001669921 -0.7148554 -0.6992704
v -0.0813 0.000900364 -0.0557317
vn -0.371803 -0.8578959 -0.354651
v 0.0698964 0.0503496 -0.052024
vn 0.6563708 -0.4985988 -0.5661949
v -0.0765041 0.0419854 0.0264599
vn -0.7126941 -0.6424961 0.2815421
v 0.0813249 0.000914693 -0.0557776
vn 0.3717939 -0.8579147 -0.3546149
v -0.0334723 0.037124 0.0779941
vn -0.4742599 -0.6598898 0.5827719
v 0.0765041 0.0419854 0.0264599
vn 0.712631 -0.6425691 0.281535
v 0 -0.00862281 0.0825191
vn 0 -0.9235412 0.3834991
v 0.0334723 0.037124 0.0779941
vn 0.4742599 -0.6598898 0.5827719
v 0.0605126 0.120663 -0.122845
vn 0.3526749 -0.5745288 -0.7386048
v -0.0605126 0.120663 -0.122845
vn -0.3525168 -0.5741026 -0.7390116
v 0 0.0926788 0.131149
vn 0 -0.6851763 0.7283773
v 0.0804056 0.101097 0.0881014
vn 0.5863062 -0.6585782 0.4717202
v -0.108513 0.105889 -0.00519004
vn -0.7580529 -0.6406779 -0.122015
v -0.0804056 0.101097 0.0881014
vn -0.5863062 -0.6585782 0.4717202
v 0.108513 0.105889 -0.00519004
vn 0.7571483 -0.6418132 -0.121665
v -0.0568899 0.16147 0.18314
vn -0.3776711 -0.3188541 0.8693082
v 0.0568899 0.16147 0.18314
vn 0.3776711 -0.3188541 0.8693082
v -0.18825 0.200697 -0.0728326
vn -0.8550665 -0.3107719 -0.4150688
v -0.157497 0.160587 0.0848398
vn -0.7777947 -0.4240709 0.4638958
v 0.188716 0.200697 -0.0727636
vn 0.8549259 -0.309828 -0.416063
v -0.000222831 0.239709 -0.193838
vn -6.522312E-05 -0.172267 -0.9850503
v 0.118735 0.226674 -0.160865
vn 0.5408073 -0.1561931 -0.8265175
v 0.157497 0.160587 0.0848398
vn 0.777531 -0.424204 0.464216
v -0.220156 0.163057 0.0135483
vn -0.8597487 -0.5054289 0.07330747
v -0.11918 0.226674 -0.160934
vn -0.5423979 -0.156334 -0.8254479
v -0.196445 0.279483 0.0276475
vn -0.9419306 0.2819109 0.1824639
v -0.153673 0.314765 -0.0874539
vn -0.7719187 0.4534778 -0.4455328
v 0.153673 0.314765 -0.0874539
vn 0.7713168 0.4535429 -0.4465079
v 0.0560782 0.336723 -0.167168
vn 0.3105031 0.5333901 -0.7868181
v 0.220312 0.16305 0.0135784
vn 0.8599589 -0.504669 0.07602509
v 0.196445 0.279483 0.0276475
vn 0.9414443 0.2828761 0.1834771
v -0.146815 0.352496 0.0233584
vn -0.7844503 0.6163902 0.06856233
v -0.0560782 0.336723 -0.167168
vn -0.30999 0.5342291 -0.7864512
v -0.0907365 0.382489 -0.0551636
vn -0.470111 0.793034 -0.387418
v 0.146815 0.352496 0.0233584
vn 0.7844503 0.6163902 0.06856233
v 0.0907365 0.382489 -0.0551636
vn 0.4701102 0.7930344 -0.3874182
v -0.13391 0.303967 0.0949783
vn -0.6996483 0.4043342 0.5890722
v 0 0.377934 -0.0932395
vn 0 0.8670723 -0.4981822
v 0.13391 0.303967 0.0949783
vn 0.6996483 0.4043342 0.5890722
v 0 0.431019 -0.0251708
vt 0.725572 0.862037
vn 0 0.9385861 -0.345045
vt 1.11638 0.557263
vt 0.89777 0.583415
v -0.0827607 0.419851 0.0233584
vt 0.44695 0.797919
vn -0.477665 0.8785421 0
v 0.0827607 0.419851 0.0233584
vn 0.477665 0.8785421 0
v 0 0.431019 0.0718877
vt 0.168328 0.862037
vn 0 0.9351493 0.3542541
vt 0.44695 0.411217
v -0.0907365 0.382489 0.10188
vt -0.00387043 0.583415
vn -0.528075 0.599145 0.601799
v 0.0907365 0.382489 0.10188
vn 0.528075 0.599145 0.601799
v 0 0.375587 0.139242
vt -0.218374 0.543787
vn 0 0.5815849 0.8134858
vt 0.0357569 0.132594
v 0 0.315748 0.176491
vt 0.881188 0.964002
vn 0 0.7716258 0.6360768
v -0.0136801 0.298277 0.176368
vt 0.880679 0.961948
vn -0.879311 -0.0427778 0.474323
v 0 0.292297 0.201449
vt 0.984039 0.961245
vn 0 -0.1147579 0.9933935
v -0.0280391 0.303967 0.15041
vt 0.773703 0.962617
vn -0.146054 0.350226 0.925208
v 0.0136801 0.298277 0.176368
vn 0.879311 -0.0427779 0.474323
v 0 0.339777 0.144826
vt 0.750691 0.966826
vn 0 0.241479 0.9704061
v 0.0280391 0.303967 0.15041
vn 0.146054 0.350226 0.925208
v 0 0.283271 0.173417
vt 0.868518 0.960184
vn 0 -0.9519093 0.3063801
v 0 0.28325 0.173346
vt 0.868227 0.960182
vn 0 -0.9450808 0.3268369
v 0 0.664739 0
vt 0.953452 0.245321
vn -0.2964589 0.9550456 0
v 0.00994999 0.596304 -0.0296046
vt 0.974149 0.0908651
vn 0.2917148 0.2404889 -0.9257795
v -0.0196547 0.579212 -0.0296047
vt 0.932755 0.0908651
vn -0.7064909 0.148719 -0.6919199
v 0.0247523 0.604851 0
vt 0.994847 0.0908651
vn 0.9682642 0.249929 0
v -0.034457 0.570666 0
vt 0.912057 0.0908651
vn -0.9949913 0.09996133 0
v 0.00994998 0.596304 0.0296046
vn 0.2917149 0.2404879 0.9257796
v -0.0196547 0.579212 0.0296046
vn -0.7064909 0.148719 0.6919199
v 0.00485234 0.570949 -0.0128869
vt 0.94565 0.00582027
vn 0.2253379 -0.119399 -0.9669368
v 0.0145175 0.57653 -0.00644345
vt 0.961254 0.00582027
vn 0.9240857 -0.04223239 -0.3798449
v -0.00481283 0.565369 0.00644344
vn -0.8249327 -0.1594559 0.5422728
v -0.00481283 0.565369 -0.00644345
vt 0.937847 0.00582027
vn -0.824932 -0.159456 -0.542274
v 0.0145175 0.57653 0.00644344
vt 0.969057 0.00582027
vn 0.9240857 -0.04223249 0.3798449
v 0.00485234 0.570949 0.0128869
vn 0.2253379 -0.1194 0.9669366
v 0.0264685 0.449375 0
vt 0.934986 0.179989
vn 0 -1 0
v 0.0132342 0.449375 0.0229224
vt 0.929903 0.179989
v -0.0132342 0.449375 0.0229224
vt 0.919736 0.179989
v -0.0264685 0.449375 0
vt 0.914653 0.179989
v -0.0132342 0.449375 -0.0229224
v 0.0132342 0.449375 -0.0229224
vn -0.496891 0.124458 -0.858842
vt 0.922345 0.128465
vn 0.501616 0.0800688 -0.861377
vt 0.91987 0.128465
vn -0.9881552 0.153458 0
vt 0.927294 0.128465
vn 0.997876 0.0651419 0
vn -0.4968911 0.124457 0.8588421
vt 0.92977 0.128465
vn 0.501616 0.0800688 0.861377
v -0.14415 0.385807 0.00912105
vt 0.665779 0.00987542
vn 0.551277 -0.8327271 -0.0515687
v -0.15746 0.369794 -0.0712903
vt 0.665779 0.240875
vn 0.4687461 -0.8779632 0.09725112
v -0.051081 0.427231 -0.0141857
vt 0.634037 0.124875
vn 0.4267249 -0.8978887 0.108175
v -0.228454 0.330347 -0.0570285
vt 0.82957 0.240875
vn 0.5675492 -0.8054252 -0.170816
v -0.187834 0.321748 0.0530365
vt 0.82957 0.00987539
vn 0.597863 -0.751347 -0.279352
v -0.255028 0.29653 0.0244128
vt 0.86439 0.123435
vn 0.425018 -0.876684 -0.225355
vn -0.551277 0.832727 0.0515691
vn -0.4267249 0.8978888 -0.108174
vn -0.4687461 0.8779632 -0.09725112
vn -0.5675492 0.8054252 0.170816
vn -0.5978628 0.7513468 0.2793529
vn -0.425018 0.876684 0.225355
v 0.14415 0.385807 0.00912105
vn -0.551277 -0.832727 -0.051569
v 0.051081 0.427231 -0.0141857
vn -0.4267249 -0.8978888 0.108174
v 0.15746 0.369794 -0.0712903
vn -0.4687462 -0.8779632 0.09725023
v 0.228454 0.330347 -0.0570285
vn -0.5675492 -0.8054252 -0.170816
v 0.187834 0.321748 0.0530365
vn -0.597863 -0.751347 -0.279352
v 0.255028 0.29653 0.0244128
vn -0.425018 -0.876684 -0.225355
vn 0.551277 0.8327271 0.0515688
vn 0.4687461 0.8779632 -0.09725112
vn 0.4267249 0.8978887 -0.108175
vn 0.5675492 0.8054252 0.170816
vn 0.5978633 0.7513463 0.2793531
vn 0.425018 0.876684 0.225355
v -0.0525482 0.464814 -0.0412202
vt 0.654966 0.1776
vn -0.2834621 0.04918462 0.9577214
v -0.115343 0.435669 -0.0583093
vn -0.2879899 0.06009858 0.9557458
v -0.0602968 0.393623 -0.0451654
vn -0.2511209 -0.02628959 0.9675986
v -0.119019 0.502899 -0.0688231
vn -0.3159739 0.129708 0.9398597
vn 0.2879899 -0.06009858 -0.9557458
vn 0.2834621 -0.04918462 -0.9577214
v -0.0602967 0.393623 -0.0451654
vn 0.2511209 0.02628959 -0.9675986
vn 0.3159739 -0.129708 -0.9398597
v 0.115343 0.435669 -0.0583093
vn 0.2879899 0.06009858 0.9557458
v 0.0525482 0.464814 -0.0412202
vn 0.2834621 0.04918462 0.9577214
v 0.0602967 0.393623 -0.0451654
vn 0.2511209 -0.02628959 0.9675986
v 0.119019 0.502899 -0.0688231
vn 0.3159739 0.129708 0.9398597
vn -0.2834621 -0.04918472 -0.9577214
vn -0.2879899 -0.06009869 -0.9557458
vn -0.2511209 0.02628959 -0.9675986
vn -0.315973 -0.129708 -0.93986
o merged_0_0_node
g polygon_0
usemtl mat_kao_mat_id
f 1/1/1 2/1/2 3/1/3
f 1/1/1 4/1/4 2/1/2
f 1/1/1 3/1/3 5/1/5
f 1/1/1 6/1/6 4/1/4
f 1/1/1 5/1/5 7/1/7
f 1/1/1 8/1/8 6/1/6
f 1/1/1 7/1/7 9/1/9
f 1/1/1 10/1/10 8/1/8
f 1/1/1 9/1/9 11/1/11
f 1/1/1 11/1/11 10/1/10
f 10/1/10 11/1/11 8/1/8
f 7/1/7 5/1/5 9/1/9
f 4/1/4 6/1/6 2/1/2
f 3/1/3 12/1/12 5/1/5
f 3/1/3 2/1/2 13/1/13
f 3/1/3 13/1/13 12/1/12
f 11/1/11 14/1/14 8/1/8
f 11/1/11 9/1/9 15/1/15
f 11/1/11 15/1/15 14/1/14
f 6/1/6 16/1/16 2/1/2
f 6/1/6 8/1/8 17/1/17
f 6/1/6 17/1/17 16/1/16
f 8/1/8 14/1/14 17/1/17
f 2/1/2 16/1/16 13/1/13
f 5/1/5 12/1/12 18/1/18
f 5/1/5 18/1/18 9/1/9
f 9/1/9 18/1/18 15/1/15
f 14/1/14 19/1/19 17/1/17
f 14/1/14 15/1/15 20/1/20
f 14/1/14 20/1/20 19/1/19
f 16/1/16 21/1/21 13/1/13
f 16/1/16 17/1/17 22/1/22
f 16/1/16 22/1/22 21/1/21
f 17/1/17 19/1/19 22/1/22
f 12/1/12 23/1/23 18/1/18
f 12/1/12 13/1/13 24/1/24
f 12/1/12 25/1/25 23/1/23
f 12/1/12 24/1/24 25/1/25
f 15/1/15 26/1/26 20/1/20
f 15/1/15 18/1/18 26/1/26
f 18/1/18 23/1/23 26/1/26
f 21/1/21 22/1/22 27/1/27
f 21/1/21 28/1/28 13/1/13
f 21/1/21 27/1/27 29/1/29
f 21/1/21 30/1/30 28/1/28
f 21/1/21 29/1/29 30/1/30
f 27/1/27 22/1/22 29/1/29
f 13/1/13 28/1/28 24/1/24
f 25/1/25 31/1/31 23/1/23
f 25/1/25 24/1/24 32/1/32
f 25/1/25 32/1/32 31/1/31
f 26/1/26 23/1/23 33/1/33
f 26/1/26 33/1/33 34/1/34
f 23/1/23 31/1/31 34/1/34
f 23/1/23 34/1/34 33/1/33
f 30/1/30 29/1/29 35/1/35
f 30/1/30 36/1/36 28/1/28
f 30/1/30 35/1/35 37/1/37
f 30/1/30 37/1/37 36/1/36
f 24/1/24 36/1/36 32/1/32
f 24/1/24 28/1/28 36/1/36
f 31/1/31 38/1/38 34/1/34
f 31/1/31 32/1/32 39/1/39
f 31/1/31 39/1/39 38/1/38
f 29/1/29 40/1/40 35/1/35
f 37/1/37 41/1/41 36/1/36
f 41/1/41 39/1/39 32/1/32
f 41/1/41 32/1/32 36/1/36
f 34/1/34 38/1/38 42/1/42
f 43/2/43 41/3/41 37/4/37
f 43/2/43 39/4/39 41/3/41
f 43/2/43 37/4/37 44/5/44
f 43/2/43 45/5/45 39/4/39
f 43/2/43 44/5/44 46/6/46
f 43/2/43 46/6/46 45/5/45
f 37/4/37 35/7/35 44/5/44
f 39/4/39 45/5/45 38/7/38
f 46/6/46 44/5/44 47/8/47
f 46/6/46 48/8/48 45/5/45
f 46/6/46 47/8/47 49/9/49
f 46/6/46 49/9/49 48/8/48
f 45/5/45 48/8/48 38/7/38
f 44/5/44 35/7/35 47/8/47
f 48/8/48 42/10/42 38/7/38
f 35/7/35 40/10/40 47/8/47
f 50/11/50 51/12/51 52/13/52
f 50/11/50 53/14/53 51/12/51
f 50/11/50 52/13/52 54/12/54
f 50/11/50 55/15/55 53/14/53
f 50/11/50 54/12/54 56/14/56
f 50/11/50 56/14/56 55/15/55
f 51/12/51 57/16/57 52/13/52
f 51/12/51 53/14/53 58/17/58
f 51/12/51 58/17/58 57/16/57
f 54/12/54 58/17/58 56/14/56
f 54/12/54 52/13/52 57/16/57
f 54/12/54 57/16/57 58/17/58
f 59/18/59 60/19/60 61/20/61
f 59/18/59 62/21/62 60/19/60
f 59/18/59 61/20/61 63/22/63
f 59/18/59 64/19/64 62/21/62
f 59/18/59 63/22/63 65/20/65
f 59/18/59 65/20/65 64/19/64
f 60/19/60 66/23/66 61/20/61
f 60/19/60 62/21/62 67/24/67
f 60/19/60 67/24/67 66/23/66
f 63/22/63 68/23/68 65/20/65
f 63/22/63 61/20/61 69/25/69
f 63/22/63 69/25/69 68/23/68
f 69/25/69 61/20/61 66/23/66
f 64/19/64 70/26/70 62/21/62
f 64/19/64 65/20/65 71/24/71
f 64/19/64 71/24/71 70/26/70
f 70/26/70 67/24/67 62/21/62
f 71/24/71 65/20/65 68/23/68
f 72/27/72 73/28/72 74/29/72
f 72/27/72 74/29/72 75/30/72
f 72/27/72 75/30/72 76/29/72
f 72/27/72 76/29/72 77/28/72
f 76/29/73 66/31/66 77/28/74
f 76/29/73 69/32/69 66/31/66
f 76/29/73 75/30/75 69/32/69
f 77/28/74 66/31/66 67/33/67
f 77/28/74 67/33/67 72/27/76
f 75/30/75 68/31/68 69/32/69
f 75/30/75 74/29/77 68/31/68
f 67/33/67 70/34/70 72/27/76
f 74/29/77 71/33/71 68/31/68
f 74/29/77 73/28/78 71/33/71
f 73/28/78 72/27/76 70/34/70
f 73/28/78 70/34/70 71/33/71
f 78/35/79 79/36/80 80/37/81
f 78/35/79 81/38/82 79/36/80
f 78/35/79 82/39/83 81/38/82
f 82/39/83 83/40/84 81/38/82
f 78/35/85 80/37/86 79/36/87
f 78/35/85 79/36/87 81/38/88
f 78/35/85 81/38/88 82/39/89
f 81/38/88 83/40/90 82/39/89
f 84/35/91 85/37/92 86/36/93
f 84/35/91 86/36/93 87/38/94
f 84/35/91 87/38/94 88/39/95
f 87/38/94 89/40/96 88/39/95
f 84/35/97 86/36/98 85/37/99
f 84/35/97 87/38/100 86/36/98
f 84/35/97 88/39/101 87/38/100
f 88/39/101 89/40/102 87/38/100
f 90/41/103 91/41/104 92/41/105
f 90/41/103 93/41/106 91/41/104
f 91/41/107 90/41/108 94/41/109
f 91/41/107 93/41/110 90/41/108
f 95/41/111 96/41/112 97/41/113
f 95/41/111 98/41/114 96/41/112
f 96/41/115 95/41/116 97/41/117
f 96/41/115 98/41/118 95/41/116
vt -0.291944 0.829233
vt -0.0960277 0
v -0.117042 0.259785 0.145512
vt 0.124992 0.691852
vn -0.657688 0.103445 0.746154
vt 0.33327 0.00615445
vt 0.666794 0.00615445
v 0 0.259233 0.194059
vt 0.500032 0.687999
vn 0 0.144437 0.989514
v 0.117042 0.259785 0.145512
vt 0.875072 0.691852
vn 0.657688 0.103445 0.746154
vt 1.09609 0
vt 1.29201 0.829233
vt 1.02819 1
v 0.0560782 0.303967 0.15041
vt 0.697675 1
vn 0.375633 0.379488 0.845511
vt 0.500032 0.855511
vn 0 0.6598422 0.7514042
vt 0.397951 1
v -0.0560782 0.303967 0.15041
vt 0.302388 1
vn -0.375633 0.379488 0.845511
vt 0.602113 1
vt -0.0281236 1
o merged_1_0_node
g polygon_0
usemtl mat_body_mat_id
f 29/42/29 22/43/22 99/44/119
f 19/45/19 20/46/20 100/47/120
f 101/48/121 26/49/26 34/50/34
f 100/47/120 20/46/20 101/48/121
f 101/48/121 20/46/20 26/49/26
f 100/47/120 99/44/119 19/45/19
f 19/45/19 99/44/119 22/43/22
f 34/50/34 42/51/42 101/48/121
f 42/51/42 102/52/122 101/48/121
f 100/47/120 102/52/122 58/53/123
f 53/54/53 103/55/124 58/53/123
f 102/52/122 56/56/56 58/53/123
f 100/47/120 58/53/123 103/55/124
f 100/47/120 103/55/124 99/44/119
f 102/52/122 100/47/120 101/48/121
f 29/42/29 99/44/119 40/57/40
f 40/57/40 99/44/119 103/55/124
vt 0.222317 0.754382
vt -0.329595 0.972892
vt 0.64536 0.994706
vt 1.05861 0.752997
vt -0.329595 0.868828
vt 0.00280895 0.771779
o merged_2_0_node
g polygon_0
usemtl TEX_ANIM_EYE_mat_id
f 103/58/124 49/59/49 47/60/47
f 47/60/47 40/61/40 103/58/124
f 48/60/48 102/58/122 42/61/42
f 48/60/48 49/59/49 102/58/122
f 49/59/49 55/62/55 102/58/122
f 102/58/122 55/62/55 56/63/56
f 53/63/53 55/62/55 103/58/124
f 103/58/124 55/62/55 49/59/49
