ply
format ascii 1.0
element vertex 666
property float x
property float y
property float z
property uchar red
property uchar green
property uchar blue
element face 804
property list uchar int vertex_index
end_header
0.35178 0.17872 0.87614 254 251 112
0.35178 0.17872 0.68668 254 251 112
0.48539 0.17872 0.68668 254 251 112
0.48539 0.17872 0.87614 254 251 112
0.35178 0.04511 0.78486 254 251 112
0.35178 0.04511 0.87614 254 251 112
0.48539 0.14244 0.65112 254 251 112
0.48539 0.04511 0.78486 254 251 112
0.35178 0.14244 0.65112 254 251 112
0.48539 0.04511 0.87614 254 251 112
0.35178 -0.04854 0.78486 255 254 133
0.35178 0.04511 0.78486 255 254 133
0.48539 0.04511 0.78486 255 254 133
0.48539 -0.04854 0.78486 255 254 133
0.30733 -0.07762 0.60683 254 251 112
0.30733 -0.375 0.607 254 251 112
0.52984 -0.375 0.607 254 251 112
0.52984 -0.07762 0.60683 254 251 112
0.30733 -0.0774 0.82934 254 251 112
0.30733 -0.375 0.82952 254 251 112
0.52984 -0.375 0.82952 254 251 112
0.52984 -0.0774 0.82934 254 251 112
0.32958 -0.40126 0.62926 254 251 112
0.32958 -0.40126 0.80727 254 251 112
0.50759 -0.40126 0.62926 254 251 112
0.50759 -0.40126 0.80727 254 251 112
0.48539 -0.04854 0.78486 254 251 112
0.35178 -0.04854 0.78486 254 251 112
0.48539 -0.04867 0.65125 254 251 112
0.35178 -0.04867 0.65125 254 251 112
0.30733 -0.375 0.82952 255 254 133
0.30733 -0.0774 0.82934 255 254 133
0.52984 -0.0774 0.82934 255 254 133
0.52984 -0.375 0.82952 255 254 133
0.50759 -0.40126 0.80727 255 254 133
0.32958 -0.40126 0.80727 255 254 133
0.20811 -0.48637 0.83905 255 254 133
0.20811 -0.45873 0.81275 255 254 133
0.31833 -0.45873 0.81275 255 254 133
0.31833 -0.48637 0.83905 255 254 133
0.20811 -0.7492 0.83905 255 254 133
0.31833 -0.7492 0.83905 255 254 133
0.31505 0.17089 0.53528 254 251 112
0.31505 0.17089 0.40452 254 251 112
0.44581 0.17089 0.40452 254 251 112
0.44581 0.17089 0.53528 254 251 112
0.46959 0.14015 0.55905 254 251 112
0.46959 0.14015 0.38074 254 251 112
0.29128 0.14015 0.38074 254 251 112
0.46959 -0.21446 0.38074 254 251 112
0.29128 -0.21446 0.38074 254 251 112
0.29128 -0.21446 0.55905 254 251 112
0.29128 0.14015 0.55905 254 251 112
0.46959 -0.21446 0.55905 254 251 112
0.20811 -0.21446 0.61322 254 251 112
0.55275 -0.21446 0.61322 254 251 112
0.55275 -0.21446 0.32657 254 251 112
0.20811 -0.21446 0.32657 254 251 112
0.55275 -0.45873 0.32657 254 251 112
0.20811 -0.45873 0.32657 254 251 112
0.20811 -0.45873 0.61322 254 251 112
0.55275 -0.45873 0.61322 254 251 112
0.20811 -0.62103 0.32657 254 251 112
0.20811 -0.62103 0.6785 254 251 112
0.20811 -0.45873 0.81275 254 251 112
0.55275 -0.45873 0.28473 254 251 112
0.20811 -0.45873 0.28473 254 251 112
0.55275 -0.48958 0.25656 254 251 112
0.20811 -0.48958 0.25656 254 251 112
0.55275 -0.62103 0.32657 254 251 112
0.31833 -0.45873 0.81275 254 251 112
0.31833 -0.45873 0.6785 254 251 112
0.31833 -0.62103 0.6785 254 251 112
0.20811 -0.48637 0.83905 254 251 112
0.55275 -0.69934 0.25656 254 251 112
0.20811 -0.69934 0.25656 254 251 112
0.31833 -0.48637 0.83905 254 251 112
0.44374 -0.45873 0.6785 254 251 112
0.55275 -0.45873 0.81275 254 251 112
0.44374 -0.45873 0.81275 254 251 112
0.31833 -0.7492 0.83905 254 251 112
0.31833 -0.7492 0.6785 254 251 112
0.20811 -0.7492 0.6785 254 251 112
0.20811 -0.7492 0.83905 254 251 112
0.44374 -0.62103 0.6785 254 251 112
0.55275 -0.62103 0.6785 254 251 112
0.55275 -0.7492 0.6785 254 251 112
0.44374 -0.7492 0.6785 254 251 112
0.55275 -0.7492 0.83905 254 251 112
0.44374 -0.7492 0.83905 254 251 112
0.55275 -0.48637 0.83905 254 251 112
0.44374 -0.48637 0.83905 254 251 112
0.20811 -0.69934 0.32657 254 251 112
0.55275 -0.69934 0.32657 254 251 112
0.29128 0.14015 0.55905 255 254 133
0.31505 0.17089 0.53528 255 254 133
0.44581 0.17089 0.53528 255 254 133
0.46959 0.14015 0.55905 255 254 133
0.29128 -0.21446 0.55905 255 254 133
0.46959 -0.21446 0.55905 255 254 133
0.20811 -0.45873 0.61322 255 254 133
0.20811 -0.21446 0.61322 255 254 133
0.55275 -0.21446 0.61322 255 254 133
0.55275 -0.45873 0.61322 255 254 133
0.31833 -0.45873 0.6785 255 254 133
0.44374 -0.45873 0.6785 255 254 133
0.44374 -0.62103 0.6785 255 254 133
0.31833 -0.62103 0.6785 255 254 133
0.44374 -0.45873 0.81275 255 254 133
0.55275 -0.45873 0.81275 255 254 133
0.55275 -0.48637 0.83905 255 254 133
0.44374 -0.48637 0.83905 255 254 133
0.44374 -0.7492 0.83905 255 254 133
0.55275 -0.7492 0.83905 255 254 133
0.55275 -0.62103 0.32657 255 254 133
0.55275 -0.69934 0.32657 255 254 133
0.20811 -0.69934 0.32657 255 254 133
0.20811 -0.62103 0.32657 255 254 133
0.29379 -0.04045 0.86507 154 120 124
0.29379 -0.04045 1.02311 154 120 124
0.34991 -0.08956 1.02311 154 120 124
0.34991 -0.08956 0.86507 154 120 124
0.55417 -0.08956 0.86507 154 120 124
0.55417 -0.08956 1.02311 154 120 124
0.60425 -0.04045 0.86507 154 120 124
0.60425 -0.04045 1.02311 154 120 124
0.60425 0.26421 1.02311 154 120 124
0.60425 0.26421 0.86507 154 120 124
0.37171 -0.05935 1.068 154 120 124
0.32401 -0.0176 1.068 154 120 124
0.53472 -0.05935 1.068 154 120 124
0.57728 -0.0176 1.068 154 120 124
0.57728 0.24136 1.068 154 120 124
0.37702 -0.04927 0.86507 154 120 124
0.52998 -0.04927 0.86507 154 120 124
0.33213 -0.00998 0.86507 154 120 124
0.57004 -0.00998 0.86507 154 120 124
0.33213 0.23375 0.86507 154 120 124
0.29379 0.26421 0.86507 154 120 124
0.37702 0.27304 0.86507 154 120 124
0.34991 0.31333 0.86507 154 120 124
0.29379 0.26421 1.02311 154 120 124
0.34991 0.31333 1.02311 154 120 124
0.55417 0.31333 1.02311 154 120 124
0.55417 0.31333 0.86507 154 120 124
0.37171 0.28311 1.068 154 120 124
0.53472 0.28311 1.068 154 120 124
0.32401 0.24136 1.068 154 120 124
0.52998 0.27304 0.86507 154 120 124
0.57004 0.23375 0.86507 154 120 124
0.53472 0.28311 1.068 164 128 132
0.57728 0.24136 1.068 164 128 132
0.32401 0.24136 1.068 164 128 132
0.37171 0.28311 1.068 164 128 132
0.32401 -0.0176 1.068 164 128 132
0.57728 -0.0176 1.068 164 128 132
0.37171 -0.05935 1.068 164 128 132
0.53472 -0.05935 1.068 164 128 132
0.16753 -0.05527 1.90019 248 235 192
0.18282 -0.05527 1.91833 248 235 192
0.29113 -0.05527 1.91833 248 235 192
0.30642 -0.05527 1.90019 248 235 192
0.16743 -0.05527 1.75767 248 235 192
0.30654 -0.05527 1.75767 248 235 192
0.1581 -0.05527 1.9743 255 254 133
0.1581 0.1987 1.9743 255 254 133
0.175 0.1987 1.98746 255 254 133
0.175 -0.05527 1.98746 255 254 133
0.29959 0.1987 1.98746 255 254 133
0.29959 -0.05527 1.98746 255 254 133
0.3165 -0.05527 1.9743 255 254 133
0.3165 0.1987 1.9743 255 254 133
0.1581 0.1987 1.9743 254 251 112
0.3165 0.1987 1.9743 254 251 112
0.29959 0.1987 1.98746 254 251 112
0.175 0.1987 1.98746 254 251 112
0.38272 0.1987 1.75767 254 251 112
0.38272 -0.05527 1.75767 254 251 112
0.3165 -0.05527 1.9743 254 251 112
0.09421 0.1987 1.75767 254 251 112
0.1581 -0.05527 1.9743 254 251 112
0.09421 -0.05527 1.75767 254 251 112
0.16743 -0.05527 1.75767 254 251 112
0.16753 -0.05527 1.90019 254 251 112
0.18282 -0.05527 1.91833 254 251 112
0.175 -0.05527 1.98746 254 251 112
0.29113 -0.05527 1.91833 254 251 112
0.29959 -0.05527 1.98746 254 251 112
0.30642 -0.05527 1.90019 254 251 112
0.30654 -0.05527 1.75767 254 251 112
-0.15358 0.27157 0.6355 255 254 133
-0.15358 0.64942 0.6355 255 254 133
0.15358 0.64942 0.6355 255 254 133
0.15358 0.27157 0.6355 255 254 133
0.15358 0.69879 0.68069 255 254 133
-0.15358 0.69879 0.68069 255 254 133
0.15386 0.99365 0.68006 254 251 112
0.13579 0.97601 1.01923 254 251 112
-0.13579 0.97601 1.01923 254 251 112
-0.15386 0.99365 0.68006 254 251 112
-0.13579 0.71583 1.01923 254 251 112
-0.15358 0.69879 0.68069 254 251 112
0.13579 0.71583 1.01923 254 251 112
0.15358 0.69879 0.68069 254 251 112
0.15358 0.99306 0.39407 254 251 112
-0.15358 0.99306 0.39407 254 251 112
0.15358 0.94602 0.35131 254 251 112
-0.15358 0.94602 0.35131 254 251 112
0.15358 0.64942 0.6355 254 251 112
0.15358 0.27157 0.35131 254 251 112
-0.15358 0.27157 0.35131 254 251 112
-0.15358 0.64942 0.6355 254 251 112
-0.15358 0.27157 0.6355 254 251 112
0.15358 0.27157 0.6355 254 251 112
-0.08433 0.76514 1.5149 255 254 133
-0.08433 0.92671 1.5149 255 254 133
0.08433 0.92671 1.5149 255 254 133
0.08433 0.76514 1.5149 255 254 133
-0.12403 0.7271 1.18897 254 251 112
-0.10326 0.747 1.48969 254 251 112
0.10326 0.747 1.48969 254 251 112
0.12403 0.7271 1.18897 254 251 112
0.10326 0.94485 1.48969 254 251 112
0.12403 0.96474 1.18897 254 251 112
-0.10326 0.94485 1.48969 254 251 112
-0.12403 0.96474 1.18897 254 251 112
0.08433 0.76514 1.5149 254 251 112
-0.08433 0.76514 1.5149 254 251 112
0.08433 0.92671 1.5149 254 251 112
-0.08433 0.92671 1.5149 254 251 112
-0.13579 0.71583 1.01923 154 120 124
-0.12403 0.7271 1.18897 154 120 124
0.12403 0.7271 1.18897 154 120 124
0.13579 0.71583 1.01923 154 120 124
0.12403 0.96474 1.18897 154 120 124
0.13579 0.97601 1.01923 154 120 124
-0.12403 0.96474 1.18897 154 120 124
-0.13579 0.97601 1.01923 154 120 124
-0.39224 -0.18569 1.76261 255 254 133
-0.39224 0.37301 1.76261 255 254 133
0.39224 0.37301 1.76261 255 254 133
0.39224 -0.18569 1.76261 255 254 133
0.34111 -0.23799 1.76261 255 254 133
-0.34111 -0.23799 1.76261 255 254 133
0.34111 0.42531 1.76261 255 254 133
-0.34111 0.42531 1.76261 255 254 133
0.39224 0.37301 1.02174 254 251 112
0.34111 0.42531 1.02174 254 251 112
0.34111 -0.23799 1.02174 254 251 112
0.39224 -0.18569 1.02174 254 251 112
0.43582 -0.22346 1.0661 254 251 112
0.43582 0.41079 1.0661 254 251 112
0.37901 0.46889 1.0661 254 251 112
0.43582 0.41079 1.71768 254 251 112
0.37901 0.46889 1.71768 254 251 112
0.34111 0.42531 1.76261 254 251 112
-0.37901 0.46889 1.71768 254 251 112
-0.34111 0.42531 1.76261 254 251 112
0.39224 0.37301 1.76261 254 251 112
0.37901 -0.28157 1.0661 254 251 112
0.37901 -0.28157 1.71768 254 251 112
0.43582 -0.22346 1.71768 254 251 112
0.39224 -0.18569 1.76261 254 251 112
0.34111 -0.23799 1.76261 254 251 112
0.14369 -0.28157 1.18923 254 251 112
0.14369 -0.28157 1.0661 254 251 112
0.11002 -0.23799 1.02174 254 251 112
0.11064 -0.28157 1.21937 254 251 112
-0.11064 -0.28157 1.21937 254 251 112
-0.37901 -0.28157 1.71768 254 251 112
-0.34111 -0.23799 1.76261 254 251 112
-0.39224 -0.18569 1.76261 254 251 112
-0.43582 -0.22346 1.71768 254 251 112
-0.43582 -0.22346 1.0661 254 251 112
-0.43582 0.41079 1.71768 254 251 112
-0.43582 0.41079 1.0661 254 251 112
-0.37901 -0.28157 1.0661 254 251 112
-0.39224 0.37301 1.76261 254 251 112
-0.34111 -0.23799 1.02174 254 251 112
-0.11002 -0.23799 1.02174 254 251 112
-0.14369 -0.28157 1.0661 254 251 112
-0.39224 -0.18569 1.02174 254 251 112
-0.39224 0.37301 1.02174 254 251 112
-0.37901 0.46889 1.0661 254 251 112
-0.34111 0.42531 1.02174 254 251 112
-0.14369 -0.28157 1.18923 254 251 112
0.14369 -0.28157 1.0661 248 235 192
0.14369 -0.35517 1.06593 248 235 192
0.14369 -0.35517 1.18923 248 235 192
0.14369 -0.28157 1.18923 248 235 192
0.11002 -0.23799 1.02174 248 235 192
0.11002 -0.35497 1.02197 248 235 192
-0.11002 -0.23799 1.02174 248 235 192
-0.11002 -0.35497 1.02197 248 235 192
-0.14369 -0.35517 1.06593 248 235 192
-0.14369 -0.28157 1.0661 248 235 192
-0.14369 -0.35517 1.18923 248 235 192
-0.14369 -0.28157 1.18923 248 235 192
0.04337 -0.35517 1.06591 248 235 192
0.04352 -0.35517 1.10702 248 235 192
0.11064 -0.35512 1.21937 248 235 192
0.02617 -0.35517 1.10702 248 235 192
-0.02617 -0.35517 1.10702 248 235 192
0.02621 -0.35517 1.06591 248 235 192
-0.02621 -0.35517 1.06591 248 235 192
-0.11064 -0.35512 1.21937 248 235 192
-0.04352 -0.35517 1.10702 248 235 192
-0.04337 -0.35517 1.06591 248 235 192
0.11064 -0.35512 1.21937 251 239 195
-0.11064 -0.35512 1.21937 251 239 195
-0.11064 -0.28157 1.21937 251 239 195
0.11064 -0.28157 1.21937 251 239 195
0.14369 -0.28157 1.18923 251 239 195
0.14369 -0.35517 1.18923 251 239 195
-0.14369 -0.28157 1.18923 251 239 195
-0.14369 -0.35517 1.18923 251 239 195
-0.29899 -0.04142 0.59135 254 251 112
-0.29899 -0.14916 0.65433 254 251 112
-0.29899 -0.06112 0.56929 254 251 112
-0.29899 0.19706 0.59135 254 251 112
-0.29899 0.36295 0.65433 254 251 112
-0.29899 0.21676 0.56929 254 251 112
-0.29899 0.21676 0.35688 254 251 112
-0.29899 0.36295 0.33525 254 251 112
-0.2518 0.40588 0.33525 254 251 112
-0.2518 0.40588 0.65433 254 251 112
-0.25912 0.32881 0.29608 254 251 112
-0.21823 0.36602 0.29608 254 251 112
-0.29899 0.19706 0.33525 254 251 112
0.2518 0.40588 0.65433 254 251 112
0.2518 0.40588 0.33525 254 251 112
0.21823 0.36602 0.29608 254 251 112
-0.29899 -0.04142 0.33525 254 251 112
-0.25912 -0.11502 0.29608 254 251 112
-0.29899 -0.14916 0.33525 254 251 112
-0.21823 -0.15223 0.29608 254 251 112
-0.2518 -0.19209 0.33525 254 251 112
-0.2518 -0.19209 0.65433 254 251 112
0.25912 0.32881 0.29608 254 251 112
0.29899 0.36295 0.65433 254 251 112
0.29899 0.36295 0.33525 254 251 112
0.2518 -0.19209 0.33525 254 251 112
0.21823 -0.15223 0.29608 254 251 112
0.29899 0.19706 0.33525 254 251 112
0.29899 -0.14916 0.33525 254 251 112
0.25912 -0.11502 0.29608 254 251 112
0.2518 -0.19209 0.65433 254 251 112
0.29899 -0.14916 0.65433 254 251 112
0.29899 0.19706 0.59135 254 251 112
0.29899 -0.04142 0.59135 254 251 112
0.29899 -0.06112 0.56929 254 251 112
0.29899 0.21676 0.35688 254 251 112
0.29899 0.21676 0.56929 254 251 112
0.29899 -0.04142 0.33525 254 251 112
0.29899 -0.06112 0.35688 254 251 112
-0.2518 -0.19209 1.02693 51 57 71
-0.2518 -0.19209 0.80936 51 57 71
-0.29899 -0.14916 0.80936 51 57 71
-0.29899 -0.14916 1.02693 51 57 71
-0.29899 0.36295 1.02693 51 57 71
-0.29899 0.36295 0.80936 51 57 71
-0.17132 -0.19209 0.82598 51 57 71
-0.18792 -0.19209 0.80936 51 57 71
-0.17132 -0.19209 0.94478 51 57 71
-0.15203 -0.19209 0.96411 51 57 71
0.2518 -0.19209 1.02693 51 57 71
0.15203 -0.19209 0.96411 51 57 71
0.17132 -0.19209 0.94478 51 57 71
0.17132 -0.19209 0.82598 51 57 71
0.2518 -0.19209 0.80936 51 57 71
0.29899 -0.14916 0.80936 51 57 71
0.29899 -0.14916 1.02693 51 57 71
0.29899 0.36295 1.02693 51 57 71
0.29899 0.36295 0.80936 51 57 71
0.18792 -0.19209 0.80936 51 57 71
-0.1685 0.40588 0.92453 51 57 71
-0.15689 0.40588 0.93648 51 57 71
-0.2518 0.40588 1.02693 51 57 71
0.15689 0.40588 0.93648 51 57 71
0.2518 0.40588 1.02693 51 57 71
0.1685 0.40588 0.92453 51 57 71
-0.2518 0.40588 0.80936 51 57 71
-0.1685 0.40588 0.82064 51 57 71
-0.18063 0.40588 0.80936 51 57 71
0.2518 0.40588 0.80936 51 57 71
0.1685 0.40588 0.82064 51 57 71
0.18063 0.40588 0.80936 51 57 71
-0.29899 -0.14916 0.80936 154 120 124
-0.2518 -0.19209 0.80936 154 120 124
-0.2518 -0.19209 0.65433 154 120 124
-0.29899 -0.14916 0.65433 154 120 124
-0.29899 0.36295 0.80936 154 120 124
-0.29899 0.36295 0.65433 154 120 124
-0.2518 0.40588 0.80936 154 120 124
-0.2518 0.40588 0.65433 154 120 124
-0.18063 0.40588 0.80936 154 120 124
-0.18792 -0.19209 0.80936 154 120 124
0.18792 -0.19209 0.80936 154 120 124
0.2518 -0.19209 0.65433 154 120 124
0.2518 -0.19209 0.80936 154 120 124
0.29899 -0.14916 0.80936 154 120 124
0.29899 -0.14916 0.65433 154 120 124
0.29899 0.36295 0.80936 154 120 124
0.29899 0.36295 0.65433 154 120 124
0.2518 0.40588 0.80936 154 120 124
0.2518 0.40588 0.65433 154 120 124
0.18063 0.40588 0.80936 154 120 124
0.17132 -0.19209 0.82598 154 120 124
-0.17132 -0.19209 0.82598 154 120 124
0.17132 -0.19209 0.94478 154 120 124
-0.17132 -0.19209 0.94478 154 120 124
-0.15203 -0.19209 0.96411 154 120 124
0.15203 -0.19209 0.96411 154 120 124
-0.1685 0.40588 0.82064 154 120 124
0.1685 0.40588 0.82064 154 120 124
-0.1685 0.40588 0.92453 154 120 124
0.1685 0.40588 0.92453 154 120 124
-0.15689 0.40588 0.93648 154 120 124
0.15689 0.40588 0.93648 154 120 124
-0.29899 -0.04142 0.59135 51 57 71
-0.29899 -0.06112 0.56929 51 57 71
-0.29899 0.21676 0.56929 51 57 71
-0.29899 0.19706 0.59135 51 57 71
-0.29899 0.21676 0.35688 51 57 71
-0.29899 -0.06112 0.35688 51 57 71
-0.29899 0.19706 0.33525 51 57 71
-0.29899 -0.04142 0.33525 51 57 71
0.29899 0.21676 0.35688 51 57 71
0.29899 0.19706 0.33525 51 57 71
0.29899 -0.04142 0.33525 51 57 71
0.29899 -0.06112 0.35688 51 57 71
0.29899 0.21676 0.56929 51 57 71
0.29899 -0.06112 0.56929 51 57 71
0.29899 -0.04142 0.59135 51 57 71
0.29899 0.19706 0.59135 51 57 71
-0.16753 -0.05527 1.90019 248 235 192
-0.30642 -0.05527 1.90019 248 235 192
-0.29113 -0.05527 1.91833 248 235 192
-0.18282 -0.05527 1.91833 248 235 192
-0.16743 -0.05527 1.75767 248 235 192
-0.30654 -0.05527 1.75767 248 235 192
-0.1581 -0.05527 1.9743 255 254 133
-0.175 -0.05527 1.98746 255 254 133
-0.175 0.1987 1.98746 255 254 133
-0.1581 0.1987 1.9743 255 254 133
-0.29959 0.1987 1.98746 255 254 133
-0.29959 -0.05527 1.98746 255 254 133
-0.3165 -0.05527 1.9743 255 254 133
-0.3165 0.1987 1.9743 255 254 133
-0.1581 0.1987 1.9743 254 251 112
-0.175 0.1987 1.98746 254 251 112
-0.29959 0.1987 1.98746 254 251 112
-0.3165 0.1987 1.9743 254 251 112
-0.38272 0.1987 1.75767 254 251 112
-0.38272 -0.05527 1.75767 254 251 112
-0.3165 -0.05527 1.9743 254 251 112
-0.09421 0.1987 1.75767 254 251 112
-0.1581 -0.05527 1.9743 254 251 112
-0.09421 -0.05527 1.75767 254 251 112
-0.16743 -0.05527 1.75767 254 251 112
-0.16753 -0.05527 1.90019 254 251 112
-0.18282 -0.05527 1.91833 254 251 112
-0.175 -0.05527 1.98746 254 251 112
-0.29113 -0.05527 1.91833 254 251 112
-0.29959 -0.05527 1.98746 254 251 112
-0.30642 -0.05527 1.90019 254 251 112
-0.30654 -0.05527 1.75767 254 251 112
0.02621 -0.34318 1.06591 221 197 131
0.02617 -0.34318 1.10702 221 197 131
0.04352 -0.34318 1.10702 221 197 131
0.04337 -0.34318 1.06591 221 197 131
0.02621 -0.35517 1.06591 221 197 131
0.04337 -0.35517 1.06591 221 197 131
0.04352 -0.35517 1.10702 221 197 131
0.02617 -0.35517 1.10702 221 197 131
-0.04352 -0.34318 1.10702 221 197 131
-0.02617 -0.34318 1.10702 221 197 131
-0.02621 -0.34318 1.06591 221 197 131
-0.04337 -0.34318 1.06591 221 197 131
-0.04352 -0.35517 1.10702 221 197 131
-0.04337 -0.35517 1.06591 221 197 131
-0.02621 -0.35517 1.06591 221 197 131
-0.02617 -0.35517 1.10702 221 197 131
-0.29899 -0.06112 0.35688 254 251 112
-0.29379 -0.04045 0.86507 154 120 124
-0.34991 -0.08956 0.86507 154 120 124
-0.34991 -0.08956 1.02311 154 120 124
-0.29379 -0.04045 1.02311 154 120 124
-0.55417 -0.08956 0.86507 154 120 124
-0.55417 -0.08956 1.02311 154 120 124
-0.60425 -0.04045 0.86507 154 120 124
-0.60425 -0.04045 1.02311 154 120 124
-0.60425 0.26421 1.02311 154 120 124
-0.60425 0.26421 0.86507 154 120 124
-0.37171 -0.05935 1.068 154 120 124
-0.32401 -0.0176 1.068 154 120 124
-0.53472 -0.05935 1.068 154 120 124
-0.57728 -0.0176 1.068 154 120 124
-0.57728 0.24136 1.068 154 120 124
-0.37702 -0.04927 0.86507 154 120 124
-0.52998 -0.04927 0.86507 154 120 124
-0.33213 -0.00998 0.86507 154 120 124
-0.57004 -0.00998 0.86507 154 120 124
-0.33213 0.23375 0.86507 154 120 124
-0.29379 0.26421 0.86507 154 120 124
-0.37702 0.27304 0.86507 154 120 124
-0.34991 0.31333 0.86507 154 120 124
-0.29379 0.26421 1.02311 154 120 124
-0.34991 0.31333 1.02311 154 120 124
-0.55417 0.31333 1.02311 154 120 124
-0.55417 0.31333 0.86507 154 120 124
-0.37171 0.28311 1.068 154 120 124
-0.53472 0.28311 1.068 154 120 124
-0.32401 0.24136 1.068 154 120 124
-0.52998 0.27304 0.86507 154 120 124
-0.57004 0.23375 0.86507 154 120 124
-0.53472 0.28311 1.068 164 128 132
-0.37171 0.28311 1.068 164 128 132
-0.32401 0.24136 1.068 164 128 132
-0.57728 0.24136 1.068 164 128 132
-0.32401 -0.0176 1.068 164 128 132
-0.57728 -0.0176 1.068 164 128 132
-0.37171 -0.05935 1.068 164 128 132
-0.53472 -0.05935 1.068 164 128 132
-0.20811 -0.48637 0.83905 255 254 133
-0.31833 -0.48637 0.83905 255 254 133
-0.31833 -0.45873 0.81275 255 254 133
-0.20811 -0.45873 0.81275 255 254 133
-0.20811 -0.7492 0.83905 255 254 133
-0.31833 -0.7492 0.83905 255 254 133
-0.31505 0.17089 0.53528 254 251 112
-0.44581 0.17089 0.53528 254 251 112
-0.44581 0.17089 0.40452 254 251 112
-0.31505 0.17089 0.40452 254 251 112
-0.46959 0.14015 0.55905 254 251 112
-0.46959 0.14015 0.38074 254 251 112
-0.29128 0.14015 0.38074 254 251 112
-0.46959 -0.21446 0.38074 254 251 112
-0.29128 -0.21446 0.38074 254 251 112
-0.29128 -0.21446 0.55905 254 251 112
-0.29128 0.14015 0.55905 254 251 112
-0.46959 -0.21446 0.55905 254 251 112
-0.20811 -0.21446 0.61322 254 251 112
-0.55275 -0.21446 0.61322 254 251 112
-0.55275 -0.21446 0.32657 254 251 112
-0.20811 -0.21446 0.32657 254 251 112
-0.55275 -0.45873 0.32657 254 251 112
-0.20811 -0.45873 0.32657 254 251 112
-0.20811 -0.45873 0.61322 254 251 112
-0.55275 -0.45873 0.61322 254 251 112
-0.20811 -0.62103 0.32657 254 251 112
-0.20811 -0.62103 0.6785 254 251 112
-0.20811 -0.45873 0.81275 254 251 112
-0.55275 -0.45873 0.28473 254 251 112
-0.20811 -0.45873 0.28473 254 251 112
-0.55275 -0.48958 0.25656 254 251 112
-0.20811 -0.48958 0.25656 254 251 112
-0.55275 -0.62103 0.32657 254 251 112
-0.31833 -0.45873 0.81275 254 251 112
-0.31833 -0.45873 0.6785 254 251 112
-0.31833 -0.62103 0.6785 254 251 112
-0.20811 -0.48637 0.83905 254 251 112
-0.55275 -0.69934 0.25656 254 251 112
-0.20811 -0.69934 0.25656 254 251 112
-0.31833 -0.48637 0.83905 254 251 112
-0.44374 -0.45873 0.6785 254 251 112
-0.44374 -0.45873 0.81275 254 251 112
-0.55275 -0.45873 0.81275 254 251 112
-0.31833 -0.7492 0.83905 254 251 112
-0.31833 -0.7492 0.6785 254 251 112
-0.20811 -0.7492 0.6785 254 251 112
-0.20811 -0.7492 0.83905 254 251 112
-0.44374 -0.62103 0.6785 254 251 112
-0.55275 -0.62103 0.6785 254 251 112
-0.55275 -0.7492 0.6785 254 251 112
-0.44374 -0.7492 0.6785 254 251 112
-0.55275 -0.7492 0.83905 254 251 112
-0.44374 -0.7492 0.83905 254 251 112
-0.55275 -0.48637 0.83905 254 251 112
-0.44374 -0.48637 0.83905 254 251 112
-0.55275 -0.69934 0.32657 254 251 112
-0.20811 -0.69934 0.32657 254 251 112
-0.29128 0.14015 0.55905 255 254 133
-0.46959 0.14015 0.55905 255 254 133
-0.44581 0.17089 0.53528 255 254 133
-0.31505 0.17089 0.53528 255 254 133
-0.29128 -0.21446 0.55905 255 254 133
-0.46959 -0.21446 0.55905 255 254 133
-0.20811 -0.45873 0.61322 255 254 133
-0.55275 -0.45873 0.61322 255 254 133
-0.55275 -0.21446 0.61322 255 254 133
-0.20811 -0.21446 0.61322 255 254 133
-0.31833 -0.45873 0.6785 255 254 133
-0.31833 -0.62103 0.6785 255 254 133
-0.44374 -0.62103 0.6785 255 254 133
-0.44374 -0.45873 0.6785 255 254 133
-0.44374 -0.45873 0.81275 255 254 133
-0.44374 -0.48637 0.83905 255 254 133
-0.55275 -0.48637 0.83905 255 254 133
-0.55275 -0.45873 0.81275 255 254 133
-0.44374 -0.7492 0.83905 255 254 133
-0.55275 -0.7492 0.83905 255 254 133
-0.55275 -0.62103 0.32657 255 254 133
-0.20811 -0.62103 0.32657 255 254 133
-0.20811 -0.69934 0.32657 255 254 133
-0.55275 -0.69934 0.32657 255 254 133
-0.35178 0.17872 0.87614 254 251 112
-0.48539 0.17872 0.87614 254 251 112
-0.48539 0.17872 0.68668 254 251 112
-0.35178 0.17872 0.68668 254 251 112
-0.35178 0.04511 0.78486 254 251 112
-0.35178 0.04511 0.87614 254 251 112
-0.48539 0.14244 0.65112 254 251 112
-0.48539 0.04511 0.78486 254 251 112
-0.35178 0.14244 0.65112 254 251 112
-0.48539 0.04511 0.87614 254 251 112
-0.35178 -0.04854 0.78486 255 254 133
-0.48539 -0.04854 0.78486 255 254 133
-0.48539 0.04511 0.78486 255 254 133
-0.35178 0.04511 0.78486 255 254 133
-0.30733 -0.07762 0.60683 254 251 112
-0.52984 -0.07762 0.60683 254 251 112
-0.52984 -0.375 0.607 254 251 112
-0.30733 -0.375 0.607 254 251 112
-0.30733 -0.0774 0.82934 254 251 112
-0.30733 -0.375 0.82952 254 251 112
-0.52984 -0.375 0.82952 254 251 112
-0.52984 -0.0774 0.82934 254 251 112
-0.32958 -0.40126 0.62926 254 251 112
-0.32958 -0.40126 0.80727 254 251 112
-0.50759 -0.40126 0.62926 254 251 112
-0.50759 -0.40126 0.80727 254 251 112
-0.48539 -0.04854 0.78486 254 251 112
-0.35178 -0.04854 0.78486 254 251 112
-0.48539 -0.04867 0.65125 254 251 112
-0.35178 -0.04867 0.65125 254 251 112
-0.30733 -0.375 0.82952 255 254 133
-0.52984 -0.375 0.82952 255 254 133
-0.52984 -0.0774 0.82934 255 254 133
-0.30733 -0.0774 0.82934 255 254 133
-0.32958 -0.40126 0.80727 255 254 133
-0.50759 -0.40126 0.80727 255 254 133
0.12559 -0.2899 1.3095 82 79 61
0.12559 -0.2899 1.25838 82 79 61
0.09442 -0.2899 1.25838 82 79 61
0.09442 -0.2899 1.33224 82 79 61
0.09442 -0.27694 1.25838 82 79 61
0.12559 -0.27694 1.25838 82 79 61
0.09442 -0.27694 1.33224 82 79 61
0.28571 -0.27694 1.40195 82 79 61
0.28571 -0.2899 1.40195 82 79 61
0.29331 -0.2899 1.37124 82 79 61
0.29331 -0.27694 1.37124 82 79 61
0.12559 -0.27694 1.3095 82 79 61
-0.12559 -0.2899 1.3095 82 79 61
-0.09442 -0.2899 1.33224 82 79 61
-0.09442 -0.2899 1.25838 82 79 61
-0.12559 -0.2899 1.25838 82 79 61
-0.09442 -0.27694 1.25838 82 79 61
-0.12559 -0.27694 1.25838 82 79 61
-0.09442 -0.27694 1.33224 82 79 61
-0.28571 -0.27694 1.40195 82 79 61
-0.28571 -0.2899 1.40195 82 79 61
-0.29331 -0.2899 1.37124 82 79 61
-0.29331 -0.27694 1.37124 82 79 61
-0.12559 -0.27694 1.3095 82 79 61
3 0 2 1
3 0 3 2
3 0 1 4
3 0 4 5
3 1 2 6
3 7 6 2
3 7 2 3
3 1 6 8
3 4 1 8
3 7 3 9
3 10 12 11
3 10 13 12
3 14 16 15
3 14 17 16
3 18 14 15
3 18 15 19
3 20 16 17
3 20 17 21
3 19 15 22
3 19 22 23
3 23 22 24
3 15 24 22
3 15 16 24
3 23 24 25
3 16 25 24
3 16 20 25
3 26 18 21
3 26 27 18
3 28 26 21
3 28 21 17
3 29 28 17
3 29 17 14
3 27 14 18
3 27 29 14
3 30 32 31
3 30 33 32
3 4 29 27
3 4 8 29
3 8 28 29
3 8 6 28
3 26 28 6
3 26 6 7
3 4 7 9
3 4 9 5
3 33 35 34
3 33 30 35
3 36 38 37
3 36 39 38
3 39 36 40
3 39 40 41
3 42 44 43
3 42 45 44
3 46 44 45
3 46 47 44
3 47 43 44
3 47 48 43
3 48 42 43
3 48 47 49
3 48 49 50
3 48 50 51
3 48 51 52
3 48 52 42
3 53 47 46
3 53 49 47
3 53 51 54
3 53 54 55
3 49 53 55
3 49 55 56
3 50 49 56
3 50 56 57
3 51 57 54
3 51 50 57
3 57 56 58
3 57 58 59
3 54 57 59
3 54 59 60
3 61 56 55
3 61 58 56
3 60 59 62
3 60 62 63
3 60 63 64
3 59 58 65
3 59 65 66
3 62 59 66
3 66 65 67
3 66 67 68
3 62 66 68
3 58 69 65
3 65 69 67
3 60 64 70
3 60 70 71
3 61 60 71
3 72 71 70
3 64 63 73
3 68 67 74
3 68 74 75
3 72 70 76
3 61 71 77
3 77 78 61
3 77 79 78
3 72 76 80
3 72 80 81
3 82 81 80
3 82 80 83
3 73 82 83
3 63 81 82
3 63 72 81
3 73 63 82
3 62 72 63
3 69 72 62
3 69 84 72
3 69 85 84
3 61 85 69
3 61 69 58
3 61 78 85
3 84 85 86
3 84 86 87
3 87 86 88
3 85 88 86
3 87 88 89
3 85 90 88
3 85 78 90
3 91 87 89
3 91 84 87
3 79 84 91
3 77 84 79
3 62 75 92
3 93 92 75
3 93 75 74
3 67 93 74
3 67 69 93
3 62 68 75
3 94 96 95
3 94 97 96
3 98 97 94
3 98 99 97
3 100 102 101
3 100 103 102
3 104 106 105
3 104 107 106
3 108 110 109
3 108 111 110
3 110 111 112
3 110 112 113
3 114 116 115
3 114 117 116
3 118 120 119
3 118 121 120
3 120 121 122
3 120 122 123
3 123 122 124
3 123 124 125
3 124 126 125
3 124 127 126
3 119 120 128
3 119 128 129
3 120 130 128
3 120 123 130
3 123 131 130
3 123 125 131
3 125 132 131
3 125 126 132
3 122 121 133
3 122 133 134
3 124 122 134
3 134 133 135
3 121 135 133
3 134 135 136
3 124 134 136
3 121 118 135
3 118 137 135
3 136 135 137
3 118 138 137
3 138 139 137
3 138 140 139
3 141 140 138
3 141 142 140
3 140 142 143
3 140 143 144
3 144 143 126
3 144 126 127
3 143 142 145
3 143 145 146
3 126 143 146
3 142 147 145
3 142 141 147
3 126 146 132
3 140 148 139
3 140 144 148
3 144 149 148
3 144 127 149
3 149 139 148
3 149 137 139
3 127 136 149
3 127 124 136
3 136 137 149
3 150 152 151
3 150 153 152
3 151 152 154
3 151 154 155
3 155 154 156
3 155 156 157
3 158 160 159
3 158 161 160
3 162 161 158
3 162 163 161
3 164 166 165
3 164 167 166
3 168 166 167
3 168 167 169
3 168 169 170
3 168 170 171
3 172 174 173
3 172 175 174
3 172 173 176
3 177 176 173
3 177 173 178
3 172 176 179
3 179 180 172
3 179 181 180
3 180 181 182
3 180 182 183
3 184 180 183
3 184 185 180
3 186 185 184
3 186 187 185
3 178 187 186
3 178 186 188
3 177 178 188
3 177 188 189
3 190 192 191
3 190 193 192
3 191 192 194
3 191 194 195
3 196 198 197
3 196 199 198
3 199 200 198
3 199 201 200
3 201 202 200
3 201 203 202
3 203 197 202
3 203 196 197
3 204 196 203
3 204 199 196
3 204 205 199
3 205 201 199
3 203 206 204
3 205 204 206
3 205 206 207
3 201 205 207
3 203 208 206
3 207 206 209
3 207 209 210
3 201 207 211
3 211 210 212
3 211 207 210
3 209 208 213
3 209 206 208
3 214 216 215
3 214 217 216
3 218 220 219
3 218 221 220
3 221 222 220
3 221 223 222
3 223 224 222
3 223 225 224
3 225 219 224
3 225 218 219
3 219 220 226
3 219 226 227
3 224 219 227
3 220 228 226
3 220 222 228
3 222 229 228
3 222 224 229
3 224 227 229
3 230 232 231
3 230 233 232
3 233 234 232
3 233 235 234
3 235 236 234
3 235 237 236
3 237 231 236
3 237 230 231
3 238 240 239
3 238 241 240
3 242 241 238
3 242 238 243
3 239 240 244
3 239 244 245
3 246 248 247
3 246 249 248
3 250 248 249
3 251 250 249
3 251 249 246
3 252 251 246
3 252 253 251
3 252 254 253
3 253 254 255
3 255 254 256
3 252 256 254
3 255 256 257
3 253 255 258
3 252 246 247
3 250 259 248
3 260 259 250
3 260 250 261
3 250 253 261
3 250 251 253
3 260 261 262
3 260 262 263
3 261 258 262
3 261 253 258
3 264 259 260
3 264 265 259
3 259 265 266
3 259 266 248
3 264 260 267
3 260 268 267
3 260 269 268
3 263 269 260
3 263 270 269
3 269 270 271
3 269 271 272
3 269 272 273
3 273 272 274
3 273 274 275
3 269 273 276
3 272 277 274
3 272 271 277
3 273 278 276
3 276 278 279
3 276 279 280
3 273 281 278
3 275 281 273
3 275 282 281
3 283 282 275
3 283 275 274
3 283 274 256
3 274 257 256
3 274 277 257
3 283 284 282
3 284 281 282
3 284 278 281
3 252 283 256
3 247 283 252
3 247 284 283
3 247 279 284
3 285 276 280
3 285 269 276
3 285 268 269
3 247 266 279
3 284 279 278
3 247 248 266
3 286 288 287
3 286 289 288
3 290 286 287
3 290 287 291
3 291 292 290
3 291 293 292
3 292 293 294
3 292 294 295
3 295 294 296
3 295 296 297
3 298 287 288
3 298 288 299
3 300 299 288
3 300 301 299
3 300 302 301
3 303 301 302
3 293 291 303
3 303 302 304
3 293 303 304
3 300 305 302
3 306 305 296
3 302 305 306
3 294 306 296
3 294 307 306
3 293 307 294
3 293 304 307
3 303 287 298
3 303 291 287
3 308 310 309
3 308 311 310
3 312 311 308
3 312 308 313
3 314 309 310
3 314 315 309
3 316 318 317
3 317 319 316
3 317 320 319
3 320 321 319
3 320 322 321
3 320 323 322
3 324 323 320
3 324 320 325
3 324 326 323
3 324 327 326
3 323 326 328
3 322 323 328
3 324 325 329
3 324 329 330
3 327 324 330
3 327 330 331
3 326 332 328
3 326 333 332
3 333 334 332
3 334 333 335
3 334 335 336
3 317 334 336
3 317 336 337
3 327 338 326
3 327 331 338
3 330 338 331
3 330 329 339
3 330 339 340
3 330 340 338
3 335 341 336
3 335 342 341
3 333 342 335
3 340 343 338
3 344 341 342
3 344 342 345
3 333 345 342
3 336 346 337
3 336 341 346
3 347 341 344
3 347 346 341
3 347 348 339
3 347 349 348
3 349 347 350
3 350 347 344
3 339 351 340
3 340 351 343
3 339 352 351
3 339 348 352
3 345 353 344
3 338 353 345
3 338 343 353
3 354 344 353
3 350 344 354
3 355 357 356
3 355 358 357
3 357 358 359
3 357 359 360
3 355 356 361
3 361 356 362
3 355 361 363
3 355 363 364
3 365 355 364
3 365 364 366
3 365 366 367
3 365 367 368
3 365 368 369
3 365 369 370
3 365 370 371
3 370 372 371
3 370 373 372
3 369 368 374
3 375 377 376
3 377 378 376
3 377 379 378
3 379 380 378
3 381 377 375
3 360 377 381
3 360 359 377
3 381 375 382
3 381 382 383
3 384 380 379
3 373 384 379
3 373 379 372
3 384 385 380
3 384 386 385
3 387 389 388
3 387 390 389
3 390 387 391
3 390 391 392
3 392 391 393
3 392 393 394
3 394 393 395
3 389 396 388
3 389 397 396
3 389 398 397
3 397 398 399
3 400 399 398
3 400 398 401
3 401 402 400
3 401 403 402
3 403 404 402
3 403 405 404
3 405 406 404
3 394 406 405
3 394 395 406
3 407 396 397
3 407 408 396
3 409 408 407
3 409 410 408
3 411 410 409
3 411 409 412
3 413 406 395
3 413 414 406
3 415 414 413
3 415 416 414
3 417 416 415
3 417 418 416
3 419 421 420
3 419 422 421
3 420 421 423
3 420 423 424
3 424 423 425
3 424 425 426
3 326 345 333
3 326 338 345
3 427 429 428
3 427 430 429
3 431 430 427
3 431 432 430
3 433 432 431
3 433 431 434
3 435 437 436
3 435 438 437
3 439 435 436
3 439 436 440
3 441 443 442
3 441 444 443
3 445 442 443
3 445 446 442
3 445 447 446
3 445 448 447
3 449 451 450
3 449 452 451
3 449 453 452
3 454 452 453
3 454 455 452
3 449 456 453
3 456 449 457
3 456 457 458
3 457 459 458
3 457 460 459
3 461 460 457
3 461 457 462
3 463 461 462
3 463 462 464
3 455 463 464
3 455 465 463
3 454 465 455
3 454 466 465
3 467 469 468
3 467 470 469
3 471 470 467
3 471 472 470
3 472 469 470
3 472 473 469
3 473 468 469
3 473 474 468
3 474 467 468
3 474 471 467
3 475 477 476
3 475 478 477
3 479 478 475
3 479 480 478
3 480 477 478
3 480 481 477
3 481 476 477
3 481 482 476
3 482 475 476
3 482 479 475
3 317 483 334
3 317 318 483
3 334 483 332
3 484 486 485
3 484 487 486
3 486 488 485
3 486 489 488
3 489 490 488
3 489 491 490
3 490 491 492
3 490 492 493
3 487 494 486
3 487 495 494
3 486 496 489
3 486 494 496
3 489 497 491
3 489 496 497
3 491 498 492
3 491 497 498
3 488 499 485
3 488 500 499
3 490 500 488
3 500 501 499
3 500 502 501
3 490 502 500
3 485 499 501
3 485 501 484
3 484 501 503
3 502 503 501
3 484 503 504
3 504 503 505
3 504 505 506
3 507 504 506
3 507 506 508
3 506 509 508
3 506 510 509
3 510 492 509
3 510 493 492
3 509 511 508
3 509 512 511
3 492 512 509
3 508 513 507
3 508 511 513
3 492 498 512
3 506 514 510
3 506 505 514
3 510 515 493
3 510 514 515
3 515 505 503
3 515 514 505
3 493 515 502
3 493 502 490
3 502 515 503
3 516 518 517
3 516 519 518
3 519 520 518
3 519 521 520
3 521 522 520
3 521 523 522
3 524 526 525
3 524 527 526
3 525 528 524
3 525 529 528
3 530 532 531
3 530 533 532
3 534 531 532
3 534 532 535
3 535 532 533
3 535 533 536
3 536 533 530
3 536 537 535
3 536 538 537
3 536 539 538
3 536 540 539
3 536 530 540
3 541 535 537
3 541 534 535
3 541 542 539
3 541 543 542
3 537 543 541
3 537 544 543
3 538 544 537
3 538 545 544
3 539 545 538
3 539 542 545
3 545 546 544
3 545 547 546
3 542 547 545
3 542 548 547
3 549 544 546
3 549 543 544
3 548 550 547
3 548 551 550
3 548 552 551
3 547 553 546
3 547 554 553
3 550 554 547
3 554 555 553
3 554 556 555
3 550 556 554
3 546 553 557
3 553 555 557
3 548 558 552
3 548 559 558
3 549 559 548
3 560 558 559
3 552 561 551
3 556 562 555
3 556 563 562
3 560 564 558
3 549 565 559
3 565 567 566
3 565 549 567
3 560 568 564
3 560 569 568
3 570 568 569
3 570 571 568
3 561 571 570
3 551 569 560
3 551 570 569
3 561 570 551
3 550 551 560
3 557 550 560
3 557 560 572
3 557 572 573
3 549 557 573
3 549 546 557
3 549 573 567
3 572 574 573
3 572 575 574
3 575 576 574
3 573 574 576
3 575 577 576
3 573 576 578
3 573 578 567
3 579 575 572
3 579 577 575
3 566 579 572
3 565 566 572
3 550 563 556
3 580 563 581
3 580 562 563
3 550 581 563
3 555 562 580
3 555 580 557
3 582 584 583
3 582 585 584
3 586 582 583
3 586 583 587
3 588 590 589
3 588 591 590
3 592 594 593
3 592 595 594
3 596 598 597
3 596 599 598
3 598 600 597
3 598 601 600
3 602 604 603
3 602 605 604
3 606 608 607
3 606 609 608
3 606 610 609
3 606 611 610
3 609 612 608
3 613 608 612
3 613 607 608
3 609 614 612
3 610 614 609
3 613 615 607
3 616 618 617
3 616 619 618
3 620 622 621
3 620 623 622
3 624 623 620
3 624 625 623
3 626 621 622
3 626 627 621
3 625 628 623
3 625 629 628
3 629 630 628
3 623 630 622
3 623 628 630
3 629 631 630
3 622 631 626
3 622 630 631
3 632 624 633
3 632 627 624
3 634 627 632
3 634 621 627
3 635 621 634
3 635 620 621
3 633 620 635
3 633 624 620
3 636 638 637
3 636 639 638
3 610 635 614
3 610 633 635
3 614 635 634
3 614 634 612
3 632 612 634
3 632 613 612
3 610 615 613
3 610 611 615
3 637 640 636
3 637 641 640
3 642 644 643
3 642 645 644
3 646 643 644
3 645 646 644
3 646 647 643
3 645 648 646
3 649 648 645
3 649 645 650
3 651 649 650
3 645 651 650
3 645 642 651
3 651 652 649
3 642 652 651
3 642 653 652
3 653 643 647
3 653 642 643
3 654 656 655
3 654 657 656
3 658 656 657
3 655 656 658
3 658 657 659
3 655 658 660
3 661 655 660
3 661 662 655
3 663 662 661
3 655 663 654
3 655 662 663
3 663 661 664
3 654 663 664
3 654 664 665
3 665 657 654
3 665 659 657
