ply
format ascii 1.0
element vertex 676
property float x
property float y
property float z
property uchar red
property uchar green
property uchar blue
element face 804
property list uchar int vertex_index
end_header
0.35178 0.17872 0.87614 248 222 74
0.35178 0.17872 0.68668 248 222 74
0.48539 0.17872 0.68668 248 222 74
0.48539 0.17872 0.87614 248 222 74
0.35178 0.04511 0.78486 248 222 74
0.35178 0.04511 0.87614 248 222 74
0.48539 0.14244 0.65112 248 222 74
0.48539 0.04511 0.78486 248 222 74
0.35178 0.14244 0.65112 248 222 74
0.48539 0.04511 0.87614 248 222 74
0.35178 -0.04854 0.78486 254 228 81
0.35178 0.04511 0.78486 254 228 81
0.48539 0.04511 0.78486 254 228 81
0.48539 -0.04854 0.78486 254 228 81
0.48539 0.04511 0.87614 254 228 81
0.35178 0.04511 0.87614 254 228 81
0.30733 -0.07762 0.60683 248 222 74
0.30733 -0.375 0.607 248 222 74
0.52984 -0.375 0.607 248 222 74
0.52984 -0.07762 0.60683 248 222 74
0.30733 -0.0774 0.82934 248 222 74
0.30733 -0.375 0.82952 248 222 74
0.52984 -0.375 0.82952 248 222 74
0.52984 -0.0774 0.82934 248 222 74
0.32958 -0.40126 0.62926 248 222 74
0.32958 -0.40126 0.80727 248 222 74
0.50759 -0.40126 0.62926 248 222 74
0.50759 -0.40126 0.80727 248 222 74
0.48539 -0.04854 0.78486 248 222 74
0.35178 -0.04854 0.78486 248 222 74
0.48539 -0.04867 0.65125 248 222 74
0.35178 -0.04867 0.65125 248 222 74
0.30733 -0.375 0.82952 254 228 81
0.30733 -0.0774 0.82934 254 228 81
0.52984 -0.0774 0.82934 254 228 81
0.52984 -0.375 0.82952 254 228 81
0.50759 -0.40126 0.80727 254 228 81
0.32958 -0.40126 0.80727 254 228 81
0.20811 -0.48637 0.83905 254 228 81
0.20811 -0.45873 0.81275 254 228 81
0.31833 -0.45873 0.81275 254 228 81
0.31833 -0.48637 0.83905 254 228 81
0.20811 -0.7492 0.83905 254 228 81
0.31833 -0.7492 0.83905 254 228 81
0.31505 0.17089 0.53528 248 222 74
0.31505 0.17089 0.40452 248 222 74
0.44581 0.17089 0.40452 248 222 74
0.44581 0.17089 0.53528 248 222 74
0.46959 0.14015 0.55905 248 222 74
0.46959 0.14015 0.38074 248 222 74
0.29128 0.14015 0.38074 248 222 74
0.46959 -0.21446 0.38074 248 222 74
0.29128 -0.21446 0.38074 248 222 74
0.29128 -0.21446 0.55905 248 222 74
0.29128 0.14015 0.55905 248 222 74
0.46959 -0.21446 0.55905 248 222 74
0.20811 -0.21446 0.61322 248 222 74
0.55275 -0.21446 0.61322 248 222 74
0.55275 -0.21446 0.32657 248 222 74
0.20811 -0.21446 0.32657 248 222 74
0.55275 -0.45873 0.32657 248 222 74
0.20811 -0.45873 0.32657 248 222 74
0.20811 -0.45873 0.61322 248 222 74
0.55275 -0.45873 0.61322 248 222 74
0.20811 -0.62103 0.32657 248 222 74
0.20811 -0.62103 0.6785 248 222 74
0.20811 -0.45873 0.81275 248 222 74
0.55275 -0.45873 0.28473 248 222 74
0.20811 -0.45873 0.28473 248 222 74
0.55275 -0.48958 0.25656 248 222 74
0.20811 -0.48958 0.25656 248 222 74
0.55275 -0.62103 0.32657 248 222 74
0.31833 -0.45873 0.81275 248 222 74
0.31833 -0.45873 0.6785 248 222 74
0.31833 -0.62103 0.6785 248 222 74
0.20811 -0.48637 0.83905 248 222 74
0.55275 -0.69934 0.25656 248 222 74
0.20811 -0.69934 0.25656 248 222 74
0.31833 -0.48637 0.83905 248 222 74
0.44374 -0.45873 0.6785 248 222 74
0.55275 -0.45873 0.81275 248 222 74
0.44374 -0.45873 0.81275 248 222 74
0.31833 -0.7492 0.83905 248 222 74
0.31833 -0.7492 0.6785 248 222 74
0.20811 -0.7492 0.6785 248 222 74
0.20811 -0.7492 0.83905 248 222 74
0.44374 -0.62103 0.6785 248 222 74
0.55275 -0.62103 0.6785 248 222 74
0.55275 -0.7492 0.6785 248 222 74
0.44374 -0.7492 0.6785 248 222 74
0.55275 -0.7492 0.83905 248 222 74
0.44374 -0.7492 0.83905 248 222 74
0.55275 -0.48637 0.83905 248 222 74
0.44374 -0.48637 0.83905 248 222 74
0.20811 -0.69934 0.32657 248 222 74
0.55275 -0.69934 0.32657 248 222 74
0.29128 0.14015 0.55905 254 228 81
0.31505 0.17089 0.53528 254 228 81
0.44581 0.17089 0.53528 254 228 81
0.46959 0.14015 0.55905 254 228 81
0.29128 -0.21446 0.55905 254 228 81
0.46959 -0.21446 0.55905 254 228 81
0.20811 -0.45873 0.61322 254 228 81
0.20811 -0.21446 0.61322 254 228 81
0.55275 -0.21446 0.61322 254 228 81
0.55275 -0.45873 0.61322 254 228 81
0.44374 -0.45873 0.81275 254 228 81
0.55275 -0.45873 0.81275 254 228 81
0.55275 -0.48637 0.83905 254 228 81
0.44374 -0.48637 0.83905 254 228 81
0.44374 -0.7492 0.83905 254 228 81
0.55275 -0.7492 0.83905 254 228 81
0.55275 -0.62103 0.32657 254 228 81
0.55275 -0.69934 0.32657 254 228 81
0.20811 -0.69934 0.32657 254 228 81
0.20811 -0.62103 0.32657 254 228 81
0.29379 -0.04045 0.86507 125 106 102
0.29379 -0.04045 1.02311 125 106 102
0.34991 -0.08956 1.02311 125 106 102
0.34991 -0.08956 0.86507 125 106 102
0.55417 -0.08956 0.86507 125 106 102
0.55417 -0.08956 1.02311 125 106 102
0.60425 -0.04045 0.86507 125 106 102
0.60425 -0.04045 1.02311 125 106 102
0.60425 0.26421 1.02311 125 106 102
0.60425 0.26421 0.86507 125 106 102
0.37171 -0.05935 1.068 125 106 102
0.32401 -0.0176 1.068 125 106 102
0.53472 -0.05935 1.068 125 106 102
0.57728 -0.0176 1.068 125 106 102
0.57728 0.24136 1.068 125 106 102
0.37702 -0.04927 0.86507 125 106 102
0.52998 -0.04927 0.86507 125 106 102
0.33213 -0.00998 0.86507 125 106 102
0.33213 0.23375 0.86507 125 106 102
0.29379 0.26421 0.86507 125 106 102
0.37702 0.27304 0.86507 125 106 102
0.34991 0.31333 0.86507 125 106 102
0.29379 0.26421 1.02311 125 106 102
0.34991 0.31333 1.02311 125 106 102
0.55417 0.31333 1.02311 125 106 102
0.55417 0.31333 0.86507 125 106 102
0.37171 0.28311 1.068 125 106 102
0.53472 0.28311 1.068 125 106 102
0.32401 0.24136 1.068 125 106 102
0.52998 0.27304 0.86507 125 106 102
0.57004 0.23375 0.86507 125 106 102
0.57004 -0.00998 0.86507 125 106 102
0.53472 0.28311 1.068 134 114 109
0.57728 0.24136 1.068 134 114 109
0.32401 0.24136 1.068 134 114 109
0.37171 0.28311 1.068 134 114 109
0.32401 -0.0176 1.068 134 114 109
0.57728 -0.0176 1.068 134 114 109
0.37171 -0.05935 1.068 134 114 109
0.53472 -0.05935 1.068 134 114 109
0.52998 -0.04927 0.86507 44 44 58
0.57004 -0.00998 0.86507 44 44 58
0.33213 -0.00998 0.86507 44 44 58
0.37702 -0.04927 0.86507 44 44 58
0.33213 0.23375 0.86507 44 44 58
0.57004 0.23375 0.86507 44 44 58
0.37702 0.27304 0.86507 44 44 58
0.52998 0.27304 0.86507 44 44 58
0.16753 -0.05527 1.90019 245 228 182
0.18282 -0.05527 1.91833 245 228 182
0.29113 -0.05527 1.91833 245 228 182
0.30642 -0.05527 1.90019 245 228 182
0.16743 -0.05527 1.75767 245 228 182
0.30654 -0.05527 1.75767 245 228 182
0.1581 -0.05527 1.9743 254 228 81
0.1581 0.1987 1.9743 254 228 81
0.175 0.1987 1.98746 254 228 81
0.175 -0.05527 1.98746 254 228 81
0.29959 0.1987 1.98746 254 228 81
0.29959 -0.05527 1.98746 254 228 81
0.3165 -0.05527 1.9743 254 228 81
0.3165 0.1987 1.9743 254 228 81
0.1581 0.1987 1.9743 248 222 74
0.3165 0.1987 1.9743 248 222 74
0.29959 0.1987 1.98746 248 222 74
0.175 0.1987 1.98746 248 222 74
0.38272 0.1987 1.75767 248 222 74
0.38272 -0.05527 1.75767 248 222 74
0.3165 -0.05527 1.9743 248 222 74
0.09421 0.1987 1.75767 248 222 74
0.1581 -0.05527 1.9743 248 222 74
0.09421 -0.05527 1.75767 248 222 74
0.16743 -0.05527 1.75767 248 222 74
0.16753 -0.05527 1.90019 248 222 74
0.18282 -0.05527 1.91833 248 222 74
0.175 -0.05527 1.98746 248 222 74
0.29113 -0.05527 1.91833 248 222 74
0.29959 -0.05527 1.98746 248 222 74
0.30642 -0.05527 1.90019 248 222 74
0.30654 -0.05527 1.75767 248 222 74
-0.15358 0.27157 0.6355 254 228 81
-0.15358 0.64942 0.6355 254 228 81
0.15358 0.64942 0.6355 254 228 81
0.15358 0.27157 0.6355 254 228 81
0.15358 0.69879 0.68069 254 228 81
-0.15358 0.69879 0.68069 254 228 81
0.15386 0.99365 0.68006 248 222 74
0.13579 0.97601 1.01923 248 222 74
-0.13579 0.97601 1.01923 248 222 74
-0.15386 0.99365 0.68006 248 222 74
-0.13579 0.71583 1.01923 248 222 74
-0.15358 0.69879 0.68069 248 222 74
0.13579 0.71583 1.01923 248 222 74
0.15358 0.69879 0.68069 248 222 74
0.15358 0.99306 0.39407 248 222 74
-0.15358 0.99306 0.39407 248 222 74
0.15358 0.94602 0.35131 248 222 74
-0.15358 0.94602 0.35131 248 222 74
0.15358 0.64942 0.6355 248 222 74
0.15358 0.27157 0.35131 248 222 74
-0.15358 0.27157 0.35131 248 222 74
-0.15358 0.64942 0.6355 248 222 74
-0.15358 0.27157 0.6355 248 222 74
0.15358 0.27157 0.6355 248 222 74
-0.08433 0.76514 1.5149 254 228 81
-0.08433 0.92671 1.5149 254 228 81
0.08433 0.92671 1.5149 254 228 81
0.08433 0.76514 1.5149 254 228 81
-0.12403 0.7271 1.18897 248 222 74
-0.10326 0.747 1.48969 248 222 74
0.10326 0.747 1.48969 248 222 74
0.12403 0.7271 1.18897 248 222 74
0.10326 0.94485 1.48969 248 222 74
0.12403 0.96474 1.18897 248 222 74
-0.10326 0.94485 1.48969 248 222 74
-0.12403 0.96474 1.18897 248 222 74
0.08433 0.76514 1.5149 248 222 74
-0.08433 0.76514 1.5149 248 222 74
0.08433 0.92671 1.5149 248 222 74
-0.08433 0.92671 1.5149 248 222 74
-0.13579 0.71583 1.01923 125 106 102
-0.12403 0.7271 1.18897 125 106 102
0.12403 0.7271 1.18897 125 106 102
0.13579 0.71583 1.01923 125 106 102
0.12403 0.96474 1.18897 125 106 102
0.13579 0.97601 1.01923 125 106 102
-0.12403 0.96474 1.18897 125 106 102
-0.13579 0.97601 1.01923 125 106 102
-0.39224 -0.18569 1.76261 254 228 81
-0.39224 0.37301 1.76261 254 228 81
0.39224 0.37301 1.76261 254 228 81
0.39224 -0.18569 1.76261 254 228 81
0.34111 -0.23799 1.76261 254 228 81
-0.34111 -0.23799 1.76261 254 228 81
0.34111 0.42531 1.76261 254 228 81
-0.34111 0.42531 1.76261 254 228 81
0.39224 0.37301 1.02174 248 222 74
0.34111 0.42531 1.02174 248 222 74
0.34111 -0.23799 1.02174 248 222 74
0.39224 -0.18569 1.02174 248 222 74
0.43582 -0.22346 1.0661 248 222 74
0.43582 0.41079 1.0661 248 222 74
0.37901 0.46889 1.0661 248 222 74
0.43582 0.41079 1.71768 248 222 74
0.37901 0.46889 1.71768 248 222 74
0.34111 0.42531 1.76261 248 222 74
-0.37901 0.46889 1.71768 248 222 74
-0.34111 0.42531 1.76261 248 222 74
0.39224 0.37301 1.76261 248 222 74
0.37901 -0.28157 1.0661 248 222 74
0.37901 -0.28157 1.71768 248 222 74
0.43582 -0.22346 1.71768 248 222 74
0.39224 -0.18569 1.76261 248 222 74
0.34111 -0.23799 1.76261 248 222 74
0.14369 -0.28157 1.18923 248 222 74
0.14369 -0.28157 1.0661 248 222 74
0.11002 -0.23799 1.02174 248 222 74
0.11064 -0.28157 1.21937 248 222 74
-0.11064 -0.28157 1.21937 248 222 74
-0.37901 -0.28157 1.71768 248 222 74
-0.34111 -0.23799 1.76261 248 222 74
-0.39224 -0.18569 1.76261 248 222 74
-0.43582 -0.22346 1.71768 248 222 74
-0.43582 -0.22346 1.0661 248 222 74
-0.43582 0.41079 1.71768 248 222 74
-0.43582 0.41079 1.0661 248 222 74
-0.37901 -0.28157 1.0661 248 222 74
-0.39224 0.37301 1.76261 248 222 74
-0.34111 -0.23799 1.02174 248 222 74
-0.11002 -0.23799 1.02174 248 222 74
-0.14369 -0.28157 1.0661 248 222 74
-0.39224 -0.18569 1.02174 248 222 74
-0.39224 0.37301 1.02174 248 222 74
-0.37901 0.46889 1.0661 248 222 74
-0.34111 0.42531 1.02174 248 222 74
-0.14369 -0.28157 1.18923 248 222 74
0.14369 -0.28157 1.0661 245 228 182
0.14369 -0.35517 1.06593 245 228 182
0.14369 -0.35517 1.18923 245 228 182
0.14369 -0.28157 1.18923 245 228 182
0.11002 -0.23799 1.02174 245 228 182
0.11002 -0.35497 1.02197 245 228 182
0.11064 -0.35512 1.21937 245 228 182
0.11064 -0.28157 1.21937 245 228 182
-0.11002 -0.23799 1.02174 245 228 182
-0.11002 -0.35497 1.02197 245 228 182
-0.14369 -0.35517 1.06593 245 228 182
-0.14369 -0.28157 1.0661 245 228 182
-0.14369 -0.35517 1.18923 245 228 182
-0.14369 -0.28157 1.18923 245 228 182
-0.11064 -0.35512 1.21937 245 228 182
-0.11064 -0.28157 1.21937 245 228 182
-0.04352 -0.35517 1.10702 245 228 182
0.04337 -0.35517 1.06591 245 228 182
-0.02617 -0.35517 1.10702 245 228 182
0.02617 -0.35517 1.10702 245 228 182
0.02621 -0.35517 1.06591 245 228 182
-0.02621 -0.35517 1.06591 245 228 182
-0.04337 -0.35517 1.06591 245 228 182
0.04352 -0.35517 1.10702 245 228 182
0.11064 -0.35512 1.21937 247 230 184
-0.11064 -0.35512 1.21937 247 230 184
-0.11064 -0.28157 1.21937 247 230 184
0.11064 -0.28157 1.21937 247 230 184
-0.29899 -0.04142 0.59135 248 222 74
-0.29899 -0.14916 0.65433 248 222 74
-0.29899 -0.06112 0.56929 248 222 74
-0.29899 0.19706 0.59135 248 222 74
-0.29899 0.36295 0.65433 248 222 74
-0.29899 0.21676 0.56929 248 222 74
-0.29899 0.21676 0.35688 248 222 74
-0.29899 0.36295 0.33525 248 222 74
-0.2518 0.40588 0.33525 248 222 74
-0.2518 0.40588 0.65433 248 222 74
-0.25912 0.32881 0.29608 248 222 74
-0.21823 0.36602 0.29608 248 222 74
-0.29899 0.19706 0.33525 248 222 74
0.2518 0.40588 0.65433 248 222 74
0.2518 0.40588 0.33525 248 222 74
0.21823 0.36602 0.29608 248 222 74
-0.29899 -0.04142 0.33525 248 222 74
-0.25912 -0.11502 0.29608 248 222 74
-0.29899 -0.14916 0.33525 248 222 74
-0.21823 -0.15223 0.29608 248 222 74
-0.2518 -0.19209 0.33525 248 222 74
-0.2518 -0.19209 0.65433 248 222 74
0.25912 0.32881 0.29608 248 222 74
0.29899 0.36295 0.65433 248 222 74
0.29899 0.36295 0.33525 248 222 74
0.2518 -0.19209 0.33525 248 222 74
0.21823 -0.15223 0.29608 248 222 74
0.29899 0.19706 0.33525 248 222 74
0.29899 -0.14916 0.33525 248 222 74
0.25912 -0.11502 0.29608 248 222 74
0.2518 -0.19209 0.65433 248 222 74
0.29899 -0.14916 0.65433 248 222 74
0.29899 0.19706 0.59135 248 222 74
0.29899 -0.04142 0.59135 248 222 74
0.29899 -0.06112 0.56929 248 222 74
0.29899 0.21676 0.35688 248 222 74
0.29899 0.21676 0.56929 248 222 74
0.29899 -0.04142 0.33525 248 222 74
0.29899 -0.06112 0.35688 248 222 74
-0.2518 -0.19209 1.02693 44 44 58
-0.2518 -0.19209 0.80936 44 44 58
-0.29899 -0.14916 0.80936 44 44 58
-0.29899 -0.14916 1.02693 44 44 58
-0.29899 0.36295 1.02693 44 44 58
-0.29899 0.36295 0.80936 44 44 58
-0.17132 -0.19209 0.82598 44 44 58
-0.18792 -0.19209 0.80936 44 44 58
-0.17132 -0.19209 0.94478 44 44 58
-0.15203 -0.19209 0.96411 44 44 58
0.2518 -0.19209 1.02693 44 44 58
0.15203 -0.19209 0.96411 44 44 58
0.17132 -0.19209 0.94478 44 44 58
0.17132 -0.19209 0.82598 44 44 58
0.2518 -0.19209 0.80936 44 44 58
0.29899 -0.14916 0.80936 44 44 58
0.29899 -0.14916 1.02693 44 44 58
0.29899 0.36295 1.02693 44 44 58
0.29899 0.36295 0.80936 44 44 58
0.18792 -0.19209 0.80936 44 44 58
-0.1685 0.40588 0.92453 44 44 58
-0.15689 0.40588 0.93648 44 44 58
-0.2518 0.40588 1.02693 44 44 58
0.15689 0.40588 0.93648 44 44 58
0.2518 0.40588 1.02693 44 44 58
0.1685 0.40588 0.92453 44 44 58
-0.2518 0.40588 0.80936 44 44 58
-0.1685 0.40588 0.82064 44 44 58
-0.18063 0.40588 0.80936 44 44 58
0.2518 0.40588 0.80936 44 44 58
0.1685 0.40588 0.82064 44 44 58
0.18063 0.40588 0.80936 44 44 58
-0.29899 -0.14916 0.80936 125 106 102
-0.2518 -0.19209 0.80936 125 106 102
-0.2518 -0.19209 0.65433 125 106 102
-0.29899 -0.14916 0.65433 125 106 102
-0.29899 0.36295 0.80936 125 106 102
-0.29899 0.36295 0.65433 125 106 102
-0.2518 0.40588 0.80936 125 106 102
-0.2518 0.40588 0.65433 125 106 102
-0.18063 0.40588 0.80936 125 106 102
-0.18792 -0.19209 0.80936 125 106 102
0.18792 -0.19209 0.80936 125 106 102
0.2518 -0.19209 0.65433 125 106 102
0.2518 -0.19209 0.80936 125 106 102
0.29899 -0.14916 0.80936 125 106 102
0.29899 -0.14916 0.65433 125 106 102
0.29899 0.36295 0.80936 125 106 102
0.29899 0.36295 0.65433 125 106 102
0.2518 0.40588 0.80936 125 106 102
0.2518 0.40588 0.65433 125 106 102
0.18063 0.40588 0.80936 125 106 102
0.17132 -0.19209 0.82598 125 106 102
-0.17132 -0.19209 0.82598 125 106 102
0.17132 -0.19209 0.94478 125 106 102
-0.17132 -0.19209 0.94478 125 106 102
-0.15203 -0.19209 0.96411 125 106 102
0.15203 -0.19209 0.96411 125 106 102
-0.1685 0.40588 0.82064 125 106 102
0.1685 0.40588 0.82064 125 106 102
-0.1685 0.40588 0.92453 125 106 102
0.1685 0.40588 0.92453 125 106 102
-0.15689 0.40588 0.93648 125 106 102
0.15689 0.40588 0.93648 125 106 102
-0.29899 -0.04142 0.59135 44 44 58
-0.29899 -0.06112 0.56929 44 44 58
-0.29899 0.21676 0.56929 44 44 58
-0.29899 0.19706 0.59135 44 44 58
-0.29899 0.21676 0.35688 44 44 58
-0.29899 -0.06112 0.35688 44 44 58
-0.29899 0.19706 0.33525 44 44 58
-0.29899 -0.04142 0.33525 44 44 58
0.29899 0.21676 0.35688 44 44 58
0.29899 0.19706 0.33525 44 44 58
0.29899 -0.04142 0.33525 44 44 58
0.29899 -0.06112 0.35688 44 44 58
0.29899 0.21676 0.56929 44 44 58
0.29899 -0.06112 0.56929 44 44 58
0.29899 -0.04142 0.59135 44 44 58
0.29899 0.19706 0.59135 44 44 58
-0.16753 -0.05527 1.90019 245 228 182
-0.30642 -0.05527 1.90019 245 228 182
-0.29113 -0.05527 1.91833 245 228 182
-0.18282 -0.05527 1.91833 245 228 182
-0.16743 -0.05527 1.75767 245 228 182
-0.30654 -0.05527 1.75767 245 228 182
-0.1581 -0.05527 1.9743 254 228 81
-0.175 -0.05527 1.98746 254 228 81
-0.175 0.1987 1.98746 254 228 81
-0.1581 0.1987 1.9743 254 228 81
-0.29959 0.1987 1.98746 254 228 81
-0.29959 -0.05527 1.98746 254 228 81
-0.3165 -0.05527 1.9743 254 228 81
-0.3165 0.1987 1.9743 254 228 81
-0.1581 0.1987 1.9743 248 222 74
-0.175 0.1987 1.98746 248 222 74
-0.29959 0.1987 1.98746 248 222 74
-0.3165 0.1987 1.9743 248 222 74
-0.38272 0.1987 1.75767 248 222 74
-0.38272 -0.05527 1.75767 248 222 74
-0.3165 -0.05527 1.9743 248 222 74
-0.09421 0.1987 1.75767 248 222 74
-0.1581 -0.05527 1.9743 248 222 74
-0.09421 -0.05527 1.75767 248 222 74
-0.16743 -0.05527 1.75767 248 222 74
-0.16753 -0.05527 1.90019 248 222 74
-0.18282 -0.05527 1.91833 248 222 74
-0.175 -0.05527 1.98746 248 222 74
-0.29113 -0.05527 1.91833 248 222 74
-0.29959 -0.05527 1.98746 248 222 74
-0.30642 -0.05527 1.90019 248 222 74
-0.30654 -0.05527 1.75767 248 222 74
0.02621 -0.34318 1.06591 221 197 131
0.02617 -0.34318 1.10702 221 197 131
0.04352 -0.34318 1.10702 221 197 131
0.04337 -0.34318 1.06591 221 197 131
0.02621 -0.35517 1.06591 221 197 131
0.04337 -0.35517 1.06591 221 197 131
0.04352 -0.35517 1.10702 221 197 131
0.02617 -0.35517 1.10702 221 197 131
-0.04352 -0.34318 1.10702 221 197 131
-0.02617 -0.34318 1.10702 221 197 131
-0.02621 -0.34318 1.06591 221 197 131
-0.04337 -0.34318 1.06591 221 197 131
-0.04352 -0.35517 1.10702 221 197 131
-0.04337 -0.35517 1.06591 221 197 131
-0.02621 -0.35517 1.06591 221 197 131
-0.02617 -0.35517 1.10702 221 197 131
-0.29899 -0.06112 0.35688 248 222 74
-0.29379 -0.04045 0.86507 125 106 102
-0.34991 -0.08956 0.86507 125 106 102
-0.34991 -0.08956 1.02311 125 106 102
-0.29379 -0.04045 1.02311 125 106 102
-0.55417 -0.08956 0.86507 125 106 102
-0.55417 -0.08956 1.02311 125 106 102
-0.60425 -0.04045 0.86507 125 106 102
-0.60425 -0.04045 1.02311 125 106 102
-0.60425 0.26421 1.02311 125 106 102
-0.60425 0.26421 0.86507 125 106 102
-0.37171 -0.05935 1.068 125 106 102
-0.32401 -0.0176 1.068 125 106 102
-0.53472 -0.05935 1.068 125 106 102
-0.57728 -0.0176 1.068 125 106 102
-0.57728 0.24136 1.068 125 106 102
-0.37702 -0.04927 0.86507 125 106 102
-0.52998 -0.04927 0.86507 125 106 102
-0.33213 -0.00998 0.86507 125 106 102
-0.57004 -0.00998 0.86507 125 106 102
-0.57004 0.23375 0.86507 125 106 102
-0.55417 0.31333 0.86507 125 106 102
-0.55417 0.31333 1.02311 125 106 102
-0.34991 0.31333 0.86507 125 106 102
-0.34991 0.31333 1.02311 125 106 102
-0.29379 0.26421 1.02311 125 106 102
-0.29379 0.26421 0.86507 125 106 102
-0.37171 0.28311 1.068 125 106 102
-0.53472 0.28311 1.068 125 106 102
-0.32401 0.24136 1.068 125 106 102
-0.37702 0.27304 0.86507 125 106 102
-0.33213 0.23375 0.86507 125 106 102
-0.52998 0.27304 0.86507 125 106 102
-0.53472 0.28311 1.068 134 114 109
-0.37171 0.28311 1.068 134 114 109
-0.32401 0.24136 1.068 134 114 109
-0.57728 0.24136 1.068 134 114 109
-0.32401 -0.0176 1.068 134 114 109
-0.57728 -0.0176 1.068 134 114 109
-0.37171 -0.05935 1.068 134 114 109
-0.53472 -0.05935 1.068 134 114 109
-0.52998 -0.04927 0.86507 44 44 58
-0.37702 -0.04927 0.86507 44 44 58
-0.33213 -0.00998 0.86507 44 44 58
-0.57004 -0.00998 0.86507 44 44 58
-0.33213 0.23375 0.86507 44 44 58
-0.57004 0.23375 0.86507 44 44 58
-0.37702 0.27304 0.86507 44 44 58
-0.52998 0.27304 0.86507 44 44 58
-0.20811 -0.48637 0.83905 254 228 81
-0.31833 -0.48637 0.83905 254 228 81
-0.31833 -0.45873 0.81275 254 228 81
-0.20811 -0.45873 0.81275 254 228 81
-0.20811 -0.7492 0.83905 254 228 81
-0.31833 -0.7492 0.83905 254 228 81
-0.31505 0.17089 0.53528 248 222 74
-0.44581 0.17089 0.53528 248 222 74
-0.44581 0.17089 0.40452 248 222 74
-0.31505 0.17089 0.40452 248 222 74
-0.46959 0.14015 0.55905 248 222 74
-0.46959 0.14015 0.38074 248 222 74
-0.29128 0.14015 0.38074 248 222 74
-0.46959 -0.21446 0.38074 248 222 74
-0.29128 -0.21446 0.38074 248 222 74
-0.29128 -0.21446 0.55905 248 222 74
-0.29128 0.14015 0.55905 248 222 74
-0.46959 -0.21446 0.55905 248 222 74
-0.20811 -0.21446 0.61322 248 222 74
-0.55275 -0.21446 0.61322 248 222 74
-0.55275 -0.21446 0.32657 248 222 74
-0.20811 -0.21446 0.32657 248 222 74
-0.55275 -0.45873 0.32657 248 222 74
-0.20811 -0.45873 0.32657 248 222 74
-0.20811 -0.45873 0.61322 248 222 74
-0.55275 -0.45873 0.61322 248 222 74
-0.20811 -0.62103 0.32657 248 222 74
-0.20811 -0.62103 0.6785 248 222 74
-0.20811 -0.45873 0.81275 248 222 74
-0.55275 -0.45873 0.28473 248 222 74
-0.20811 -0.45873 0.28473 248 222 74
-0.55275 -0.48958 0.25656 248 222 74
-0.20811 -0.48958 0.25656 248 222 74
-0.55275 -0.62103 0.32657 248 222 74
-0.31833 -0.45873 0.81275 248 222 74
-0.31833 -0.45873 0.6785 248 222 74
-0.31833 -0.62103 0.6785 248 222 74
-0.20811 -0.48637 0.83905 248 222 74
-0.55275 -0.69934 0.25656 248 222 74
-0.20811 -0.69934 0.25656 248 222 74
-0.31833 -0.48637 0.83905 248 222 74
-0.44374 -0.45873 0.6785 248 222 74
-0.44374 -0.45873 0.81275 248 222 74
-0.55275 -0.45873 0.81275 248 222 74
-0.31833 -0.7492 0.83905 248 222 74
-0.31833 -0.7492 0.6785 248 222 74
-0.20811 -0.7492 0.6785 248 222 74
-0.20811 -0.7492 0.83905 248 222 74
-0.44374 -0.62103 0.6785 248 222 74
-0.55275 -0.62103 0.6785 248 222 74
-0.55275 -0.7492 0.6785 248 222 74
-0.44374 -0.7492 0.6785 248 222 74
-0.55275 -0.7492 0.83905 248 222 74
-0.44374 -0.7492 0.83905 248 222 74
-0.55275 -0.48637 0.83905 248 222 74
-0.44374 -0.48637 0.83905 248 222 74
-0.55275 -0.69934 0.32657 248 222 74
-0.20811 -0.69934 0.32657 248 222 74
-0.29128 0.14015 0.55905 254 228 81
-0.46959 0.14015 0.55905 254 228 81
-0.44581 0.17089 0.53528 254 228 81
-0.31505 0.17089 0.53528 254 228 81
-0.29128 -0.21446 0.55905 254 228 81
-0.46959 -0.21446 0.55905 254 228 81
-0.20811 -0.45873 0.61322 254 228 81
-0.55275 -0.45873 0.61322 254 228 81
-0.55275 -0.21446 0.61322 254 228 81
-0.20811 -0.21446 0.61322 254 228 81
-0.44374 -0.45873 0.81275 254 228 81
-0.44374 -0.48637 0.83905 254 228 81
-0.55275 -0.48637 0.83905 254 228 81
-0.55275 -0.45873 0.81275 254 228 81
-0.44374 -0.7492 0.83905 254 228 81
-0.55275 -0.7492 0.83905 254 228 81
-0.55275 -0.62103 0.32657 254 228 81
-0.20811 -0.62103 0.32657 254 228 81
-0.20811 -0.69934 0.32657 254 228 81
-0.55275 -0.69934 0.32657 254 228 81
-0.35178 0.17872 0.87614 248 222 74
-0.48539 0.17872 0.87614 248 222 74
-0.48539 0.17872 0.68668 248 222 74
-0.35178 0.17872 0.68668 248 222 74
-0.35178 0.04511 0.78486 248 222 74
-0.35178 0.04511 0.87614 248 222 74
-0.48539 0.14244 0.65112 248 222 74
-0.48539 0.04511 0.78486 248 222 74
-0.35178 0.14244 0.65112 248 222 74
-0.48539 0.04511 0.87614 248 222 74
-0.35178 -0.04854 0.78486 254 228 81
-0.48539 -0.04854 0.78486 254 228 81
-0.48539 0.04511 0.78486 254 228 81
-0.35178 0.04511 0.78486 254 228 81
-0.48539 0.04511 0.87614 254 228 81
-0.35178 0.04511 0.87614 254 228 81
-0.30733 -0.07762 0.60683 248 222 74
-0.52984 -0.07762 0.60683 248 222 74
-0.52984 -0.375 0.607 248 222 74
-0.30733 -0.375 0.607 248 222 74
-0.30733 -0.0774 0.82934 248 222 74
-0.30733 -0.375 0.82952 248 222 74
-0.52984 -0.375 0.82952 248 222 74
-0.52984 -0.0774 0.82934 248 222 74
-0.32958 -0.40126 0.62926 248 222 74
-0.32958 -0.40126 0.80727 248 222 74
-0.50759 -0.40126 0.62926 248 222 74
-0.50759 -0.40126 0.80727 248 222 74
-0.48539 -0.04854 0.78486 248 222 74
-0.35178 -0.04854 0.78486 248 222 74
-0.48539 -0.04867 0.65125 248 222 74
-0.35178 -0.04867 0.65125 248 222 74
-0.30733 -0.375 0.82952 254 228 81
-0.52984 -0.375 0.82952 254 228 81
-0.52984 -0.0774 0.82934 254 228 81
-0.30733 -0.0774 0.82934 254 228 81
-0.32958 -0.40126 0.80727 254 228 81
-0.50759 -0.40126 0.80727 254 228 81
0.12559 -0.2899 1.3095 82 79 61
0.12559 -0.2899 1.25838 82 79 61
0.09442 -0.2899 1.25838 82 79 61
0.09442 -0.2899 1.33224 82 79 61
0.09442 -0.27694 1.25838 82 79 61
0.12559 -0.27694 1.25838 82 79 61
0.09442 -0.27694 1.33224 82 79 61
0.28571 -0.27694 1.40195 82 79 61
0.28571 -0.2899 1.40195 82 79 61
0.29331 -0.2899 1.37124 82 79 61
0.29331 -0.27694 1.37124 82 79 61
0.12559 -0.27694 1.3095 82 79 61
-0.12559 -0.2899 1.3095 82 79 61
-0.09442 -0.2899 1.33224 82 79 61
-0.09442 -0.2899 1.25838 82 79 61
-0.12559 -0.2899 1.25838 82 79 61
-0.09442 -0.27694 1.25838 82 79 61
-0.12559 -0.27694 1.25838 82 79 61
-0.09442 -0.27694 1.33224 82 79 61
-0.28571 -0.27694 1.40195 82 79 61
-0.28571 -0.2899 1.40195 82 79 61
-0.29331 -0.2899 1.37124 82 79 61
-0.29331 -0.27694 1.37124 82 79 61
-0.12559 -0.27694 1.3095 82 79 61
3 0 2 1
3 0 3 2
3 0 1 4
3 0 4 5
3 1 2 6
3 7 6 2
3 7 2 3
3 1 6 8
3 4 1 8
3 7 3 9
3 10 12 11
3 10 13 12
3 11 12 14
3 11 14 15
3 16 18 17
3 16 19 18
3 20 16 17
3 20 17 21
3 22 18 19
3 22 19 23
3 21 17 24
3 21 24 25
3 25 24 26
3 17 26 24
3 17 18 26
3 25 26 27
3 18 27 26
3 18 22 27
3 28 20 23
3 28 29 20
3 30 28 23
3 30 23 19
3 31 30 19
3 31 19 16
3 29 16 20
3 29 31 16
3 32 34 33
3 32 35 34
3 4 31 29
3 4 8 31
3 8 30 31
3 8 6 30
3 28 30 6
3 28 6 7
3 35 37 36
3 35 32 37
3 38 40 39
3 38 41 40
3 41 38 42
3 41 42 43
3 44 46 45
3 44 47 46
3 48 46 47
3 48 49 46
3 49 45 46
3 49 50 45
3 50 44 45
3 50 49 51
3 50 51 52
3 50 52 53
3 50 53 54
3 50 54 44
3 55 49 48
3 55 51 49
3 55 53 56
3 55 56 57
3 51 55 57
3 51 57 58
3 52 51 58
3 52 58 59
3 53 59 56
3 53 52 59
3 59 58 60
3 59 60 61
3 56 59 61
3 56 61 62
3 63 58 57
3 63 60 58
3 62 61 64
3 62 64 65
3 62 65 66
3 61 60 67
3 61 67 68
3 64 61 68
3 68 67 69
3 68 69 70
3 64 68 70
3 60 71 67
3 67 71 69
3 62 66 72
3 62 72 73
3 63 62 73
3 74 73 72
3 66 65 75
3 70 69 76
3 70 76 77
3 74 72 78
3 63 73 79
3 79 80 63
3 79 81 80
3 74 78 82
3 74 82 83
3 84 83 82
3 84 82 85
3 75 84 85
3 65 83 84
3 65 74 83
3 75 65 84
3 64 74 65
3 71 74 64
3 71 86 74
3 71 87 86
3 63 87 71
3 63 71 60
3 73 74 86
3 73 86 79
3 63 80 87
3 86 87 88
3 86 88 89
3 89 88 90
3 87 90 88
3 89 90 91
3 87 92 90
3 87 80 92
3 93 89 91
3 93 86 89
3 81 86 93
3 79 86 81
3 64 77 94
3 95 94 77
3 95 77 76
3 69 95 76
3 69 71 95
3 64 70 77
3 96 98 97
3 96 99 98
3 100 99 96
3 100 101 99
3 102 104 103
3 102 105 104
3 106 108 107
3 106 109 108
3 108 109 110
3 108 110 111
3 112 114 113
3 112 115 114
3 116 118 117
3 116 119 118
3 118 119 120
3 118 120 121
3 121 120 122
3 121 122 123
3 122 124 123
3 122 125 124
3 117 118 126
3 117 126 127
3 118 128 126
3 118 121 128
3 121 129 128
3 121 123 129
3 123 130 129
3 123 124 130
3 120 119 131
3 120 131 132
3 122 120 132
3 119 133 131
3 119 116 133
3 116 134 133
3 116 135 134
3 135 136 134
3 135 137 136
3 138 137 135
3 138 139 137
3 137 139 140
3 137 140 141
3 141 140 124
3 141 124 125
3 140 139 142
3 140 142 143
3 124 140 143
3 139 144 142
3 139 138 144
3 124 143 130
3 137 145 136
3 137 141 145
3 141 146 145
3 141 125 146
3 125 147 146
3 125 122 147
3 122 132 147
3 148 150 149
3 148 151 150
3 149 150 152
3 149 152 153
3 153 152 154
3 153 154 155
3 156 158 157
3 156 159 158
3 157 158 160
3 157 160 161
3 161 160 162
3 161 162 163
3 164 166 165
3 164 167 166
3 168 167 164
3 168 169 167
3 170 172 171
3 170 173 172
3 174 172 173
3 174 173 175
3 174 175 176
3 174 176 177
3 178 180 179
3 178 181 180
3 178 179 182
3 183 182 179
3 183 179 184
3 178 182 185
3 185 186 178
3 185 187 186
3 186 187 188
3 186 188 189
3 190 186 189
3 190 191 186
3 192 191 190
3 192 193 191
3 184 193 192
3 184 192 194
3 183 184 194
3 183 194 195
3 196 198 197
3 196 199 198
3 197 198 200
3 197 200 201
3 202 204 203
3 202 205 204
3 205 206 204
3 205 207 206
3 207 208 206
3 207 209 208
3 209 203 208
3 209 202 203
3 210 202 209
3 210 205 202
3 210 211 205
3 211 207 205
3 209 212 210
3 211 210 212
3 211 212 213
3 207 211 213
3 209 214 212
3 213 212 215
3 213 215 216
3 207 213 217
3 217 216 218
3 217 213 216
3 215 214 219
3 215 212 214
3 220 222 221
3 220 223 222
3 224 226 225
3 224 227 226
3 227 228 226
3 227 229 228
3 229 230 228
3 229 231 230
3 231 225 230
3 231 224 225
3 225 226 232
3 225 232 233
3 230 225 233
3 226 234 232
3 226 228 234
3 228 235 234
3 228 230 235
3 230 233 235
3 236 238 237
3 236 239 238
3 239 240 238
3 239 241 240
3 241 242 240
3 241 243 242
3 243 237 242
3 243 236 237
3 244 246 245
3 244 247 246
3 248 247 244
3 248 244 249
3 245 246 250
3 245 250 251
3 252 254 253
3 252 255 254
3 256 254 255
3 257 256 255
3 257 255 252
3 258 257 252
3 258 259 257
3 258 260 259
3 259 260 261
3 261 260 262
3 258 262 260
3 261 262 263
3 259 261 264
3 258 252 253
3 256 265 254
3 266 265 256
3 266 256 267
3 256 259 267
3 256 257 259
3 266 267 268
3 266 268 269
3 267 264 268
3 267 259 264
3 270 265 266
3 270 271 265
3 265 271 272
3 265 272 254
3 270 266 273
3 266 274 273
3 266 275 274
3 269 275 266
3 269 276 275
3 275 276 277
3 275 277 278
3 275 278 279
3 279 278 280
3 279 280 281
3 275 279 282
3 278 283 280
3 278 277 283
3 279 284 282
3 282 284 285
3 282 285 286
3 279 287 284
3 281 287 279
3 281 288 287
3 289 288 281
3 289 281 280
3 289 280 262
3 280 263 262
3 280 283 263
3 289 290 288
3 290 287 288
3 290 284 287
3 258 289 262
3 253 289 258
3 253 290 289
3 253 285 290
3 291 282 286
3 291 275 282
3 291 274 275
3 253 272 285
3 290 285 284
3 253 254 272
3 292 294 293
3 292 295 294
3 296 292 293
3 296 293 297
3 295 298 294
3 295 299 298
3 297 300 296
3 297 301 300
3 300 301 302
3 300 302 303
3 303 302 304
3 303 304 305
3 305 304 306
3 305 306 307
3 308 306 304
3 302 308 304
3 309 293 294
3 310 306 308
3 298 306 310
3 298 310 311
3 312 311 310
3 312 293 309
3 312 310 313
3 301 312 313
3 302 314 308
3 301 314 302
3 301 313 314
3 312 297 293
3 301 297 312
3 309 294 315
3 298 315 294
3 298 311 315
3 316 318 317
3 316 319 318
3 320 322 321
3 321 323 320
3 321 324 323
3 324 325 323
3 324 326 325
3 324 327 326
3 328 327 324
3 328 324 329
3 328 330 327
3 328 331 330
3 327 330 332
3 326 327 332
3 328 329 333
3 328 333 334
3 331 328 334
3 331 334 335
3 330 336 332
3 330 337 336
3 337 338 336
3 338 337 339
3 338 339 340
3 321 338 340
3 321 340 341
3 331 342 330
3 331 335 342
3 334 342 335
3 334 333 343
3 334 343 344
3 334 344 342
3 339 345 340
3 339 346 345
3 337 346 339
3 344 347 342
3 348 345 346
3 348 346 349
3 337 349 346
3 340 350 341
3 340 345 350
3 351 345 348
3 351 350 345
3 351 352 343
3 351 353 352
3 353 351 354
3 354 351 348
3 343 355 344
3 344 355 347
3 343 356 355
3 343 352 356
3 349 357 348
3 342 357 349
3 342 347 357
3 358 348 357
3 354 348 358
3 359 361 360
3 359 362 361
3 361 362 363
3 361 363 364
3 359 360 365
3 365 360 366
3 359 365 367
3 359 367 368
3 369 359 368
3 369 368 370
3 369 370 371
3 369 371 372
3 369 372 373
3 369 373 374
3 369 374 375
3 374 376 375
3 374 377 376
3 373 372 378
3 379 381 380
3 381 382 380
3 381 383 382
3 383 384 382
3 385 381 379
3 364 381 385
3 364 363 381
3 385 379 386
3 385 386 387
3 388 384 383
3 377 388 383
3 377 383 376
3 388 389 384
3 388 390 389
3 391 393 392
3 391 394 393
3 394 391 395
3 394 395 396
3 396 395 397
3 396 397 398
3 398 397 399
3 393 400 392
3 393 401 400
3 393 402 401
3 401 402 403
3 404 403 402
3 404 402 405
3 405 406 404
3 405 407 406
3 407 408 406
3 407 409 408
3 409 410 408
3 398 410 409
3 398 399 410
3 411 400 401
3 411 412 400
3 413 412 411
3 413 414 412
3 415 414 413
3 415 413 416
3 417 410 399
3 417 418 410
3 419 418 417
3 419 420 418
3 421 420 419
3 421 422 420
3 423 425 424
3 423 426 425
3 424 425 427
3 424 427 428
3 428 427 429
3 428 429 430
3 330 349 337
3 330 342 349
3 431 433 432
3 431 434 433
3 435 434 431
3 435 436 434
3 437 436 435
3 437 435 438
3 439 441 440
3 439 442 441
3 443 439 440
3 443 440 444
3 445 447 446
3 445 448 447
3 449 446 447
3 449 450 446
3 449 451 450
3 449 452 451
3 453 455 454
3 453 456 455
3 453 457 456
3 458 456 457
3 458 459 456
3 453 460 457
3 460 453 461
3 460 461 462
3 461 463 462
3 461 464 463
3 465 464 461
3 465 461 466
3 467 465 466
3 467 466 468
3 459 467 468
3 459 469 467
3 458 469 459
3 458 470 469
3 471 473 472
3 471 474 473
3 475 474 471
3 475 476 474
3 476 473 474
3 476 477 473
3 477 472 473
3 477 478 472
3 478 471 472
3 478 475 471
3 479 481 480
3 479 482 481
3 483 482 479
3 483 484 482
3 484 481 482
3 484 485 481
3 485 480 481
3 485 486 480
3 486 479 480
3 486 483 479
3 321 487 338
3 321 322 487
3 338 487 336
3 488 490 489
3 488 491 490
3 490 492 489
3 490 493 492
3 493 494 492
3 493 495 494
3 494 495 496
3 494 496 497
3 491 498 490
3 491 499 498
3 490 500 493
3 490 498 500
3 493 501 495
3 493 500 501
3 495 502 496
3 495 501 502
3 492 503 489
3 492 504 503
3 494 504 492
3 489 503 505
3 494 506 504
3 497 506 494
3 497 507 506
3 508 507 497
3 508 497 496
3 508 496 509
3 510 508 509
3 510 509 511
3 512 510 511
3 512 513 510
3 509 514 511
3 509 515 514
3 496 515 509
3 511 516 512
3 511 514 516
3 496 502 515
3 513 517 510
3 513 518 517
3 488 518 513
3 488 505 518
3 489 505 488
3 510 519 508
3 510 517 519
3 508 519 507
3 520 522 521
3 520 523 522
3 523 524 522
3 523 525 524
3 525 526 524
3 525 527 526
3 528 530 529
3 528 531 530
3 531 532 530
3 531 533 532
3 533 534 532
3 533 535 534
3 536 538 537
3 536 539 538
3 537 540 536
3 537 541 540
3 542 544 543
3 542 545 544
3 546 543 544
3 546 544 547
3 547 544 545
3 547 545 548
3 548 545 542
3 548 549 547
3 548 550 549
3 548 551 550
3 548 552 551
3 548 542 552
3 553 547 549
3 553 546 547
3 553 554 551
3 553 555 554
3 549 555 553
3 549 556 555
3 550 556 549
3 550 557 556
3 551 557 550
3 551 554 557
3 557 558 556
3 557 559 558
3 554 559 557
3 554 560 559
3 561 556 558
3 561 555 556
3 560 562 559
3 560 563 562
3 560 564 563
3 559 565 558
3 559 566 565
3 562 566 559
3 566 567 565
3 566 568 567
3 562 568 566
3 558 565 569
3 565 567 569
3 560 570 564
3 560 571 570
3 561 571 560
3 572 570 571
3 564 573 563
3 568 574 567
3 568 575 574
3 572 576 570
3 561 577 571
3 577 579 578
3 577 561 579
3 572 580 576
3 572 581 580
3 582 580 581
3 582 583 580
3 573 583 582
3 563 581 572
3 563 582 581
3 573 582 563
3 562 563 572
3 569 562 572
3 569 572 584
3 569 584 585
3 561 569 585
3 561 558 569
3 571 584 572
3 571 577 584
3 561 585 579
3 584 586 585
3 584 587 586
3 587 588 586
3 585 586 588
3 587 589 588
3 585 588 590
3 585 590 579
3 591 587 584
3 591 589 587
3 578 591 584
3 577 578 584
3 562 575 568
3 592 575 593
3 592 574 575
3 562 593 575
3 567 574 592
3 567 592 569
3 594 596 595
3 594 597 596
3 598 594 595
3 598 595 599
3 600 602 601
3 600 603 602
3 604 606 605
3 604 607 606
3 606 608 605
3 606 609 608
3 610 612 611
3 610 613 612
3 614 616 615
3 614 617 616
3 614 618 617
3 614 619 618
3 617 620 616
3 621 616 620
3 621 615 616
3 617 622 620
3 618 622 617
3 621 623 615
3 624 626 625
3 624 627 626
3 627 628 626
3 627 629 628
3 630 632 631
3 630 633 632
3 634 633 630
3 634 635 633
3 636 631 632
3 636 637 631
3 635 638 633
3 635 639 638
3 639 640 638
3 633 640 632
3 633 638 640
3 639 641 640
3 632 641 636
3 632 640 641
3 642 634 643
3 642 637 634
3 644 637 642
3 644 631 637
3 645 631 644
3 645 630 631
3 643 630 645
3 643 634 630
3 646 648 647
3 646 649 648
3 618 645 622
3 618 643 645
3 622 645 644
3 622 644 620
3 642 620 644
3 642 621 620
3 647 650 646
3 647 651 650
3 652 654 653
3 652 655 654
3 656 653 654
3 655 656 654
3 656 657 653
3 655 658 656
3 659 658 655
3 659 655 660
3 661 659 660
3 655 661 660
3 655 652 661
3 661 662 659
3 652 662 661
3 652 663 662
3 663 653 657
3 663 652 653
3 664 666 665
3 664 667 666
3 668 666 667
3 665 666 668
3 668 667 669
3 665 668 670
3 671 665 670
3 671 672 665
3 673 672 671
3 665 673 664
3 665 672 673
3 673 671 674
3 664 673 674
3 664 674 675
3 675 667 664
3 675 669 667
