ply
format ascii 1.0
element vertex 475
property float x
property float y
property float z
property uchar red
property uchar green
property uchar blue
element face 556
property list uchar int vertex_index
end_header
-0.05283 -1.35596 2.31151 67 56 52
-0.05283 -1.35596 2.37764 67 56 52
0.05283 -1.35596 2.37764 67 56 52
0.05283 -1.35596 2.31151 67 56 52
-0.05283 -1.28983 2.31151 67 56 52
0.05283 -1.28983 2.31151 67 56 52
0.05283 -1.28983 2.37764 67 56 52
-0.05283 -1.28983 2.37764 67 56 52
-0.05283 -1.35596 2.37764 76 63 59
-0.05283 -1.28983 2.37764 76 63 59
0.05283 -1.28983 2.37764 76 63 59
0.05283 -1.35596 2.37764 76 63 59
0.17316 -1.20885 2.38804 252 127 104
0.17316 -1.20885 2.42934 252 127 104
0.21809 -1.20885 2.42934 252 127 104
0.21809 -1.20885 2.38804 252 127 104
0.17316 -1.19946 2.38804 252 127 104
0.21809 -1.19946 2.38804 252 127 104
0.21809 -1.19946 2.42934 252 127 104
0.17316 -1.19946 2.42934 252 127 104
-0.17316 -1.20885 2.38804 252 127 104
-0.21809 -1.20885 2.38804 252 127 104
-0.21809 -1.20885 2.42934 252 127 104
-0.17316 -1.20885 2.42934 252 127 104
-0.17316 -1.19946 2.38804 252 127 104
-0.21809 -1.19946 2.38804 252 127 104
-0.21809 -1.19946 2.42934 252 127 104
-0.17316 -1.19946 2.42934 252 127 104
-0.04981 -1.25367 2.52382 248 159 145
-0.04981 -1.25367 2.55347 248 159 145
0.04981 -1.25367 2.55347 248 159 145
0.04981 -1.25367 2.52382 248 159 145
-0.04981 -1.25367 2.62345 224 124 108
-0.04981 -1.21397 2.62345 224 124 108
0.04981 -1.21397 2.62345 224 124 108
0.04981 -1.25367 2.62345 224 124 108
0.04981 -1.25367 2.55347 224 124 108
0.04981 -1.21397 2.55347 224 124 108
0.04981 -1.25367 2.52382 224 124 108
0.04981 -1.21397 2.52382 224 124 108
-0.04981 -1.21397 2.52382 224 124 108
-0.04981 -1.25367 2.52382 224 124 108
-0.04981 -1.25367 2.55347 224 124 108
-0.04981 -1.21397 2.55347 224 124 108
0.0005 -1.25367 2.58881 224 124 108
-0.03047 -1.25367 2.58881 224 124 108
0.0005 -1.25367 2.61868 224 124 108
-0.03047 -1.25367 2.61868 224 124 108
-0.03047 -1.25367 2.58881 248 223 219
-0.03047 -1.25367 2.61868 248 223 219
0.0005 -1.25367 2.61868 248 223 219
0.0005 -1.25367 2.58881 248 223 219
0.06268 -1.07682 2.74219 132 125 113
0.41881 -0.95069 3.10661 132 125 113
0.49232 -1.01168 3.05588 132 125 113
0.13619 -1.1378 2.69146 132 125 113
0.16512 -1.05582 2.63482 132 125 113
0.47372 -0.94644 2.9505 132 125 113
0.53472 -0.95778 3.05253 132 125 113
0.50411 -0.90781 2.9481 132 125 113
0.70781 -0.46722 2.71359 132 125 113
0.62816 -0.55624 2.70519 132 125 113
0.69676 -0.43225 2.65554 132 125 113
0.62024 -0.53118 2.66359 132 125 113
0.34064 -0.55838 2.29113 132 125 113
0.31169 -0.64043 2.34782 132 125 113
0.46121 -0.89679 3.10326 139 132 119
0.6343 -0.40623 2.76432 139 132 119
0.70781 -0.46722 2.71359 139 132 119
0.53472 -0.95778 3.05253 139 132 119
0.69676 -0.43225 2.65554 139 132 119
0.62325 -0.37127 2.70627 139 132 119
0.62325 -0.37127 2.70627 132 125 113
0.26713 -0.49739 2.34186 132 125 113
0.23818 -0.57944 2.39855 132 125 113
0.54643 -0.47058 2.71435 132 125 113
0.6343 -0.40623 2.76432 132 125 113
0.55434 -0.4956 2.75589 132 125 113
0.46121 -0.89679 3.10326 132 125 113
0.43048 -0.84663 2.99842 132 125 113
0.40014 -0.88519 3.00082 132 125 113
0.09161 -0.99484 2.68555 132 125 113
0.23818 -0.57944 2.39855 255 251 200
0.54643 -0.47058 2.71435 255 251 200
0.40014 -0.88519 3.00082 255 251 200
0.09161 -0.99484 2.68555 255 251 200
0.43048 -0.84663 2.99842 255 251 200
0.55434 -0.4956 2.75589 255 251 200
0.49232 -1.01168 3.05588 139 132 119
0.41881 -0.95069 3.10661 139 132 119
0.47372 -0.94644 2.9505 234 160 173
0.50411 -0.90781 2.9481 234 160 173
0.62816 -0.55624 2.70519 234 160 173
0.62024 -0.53118 2.66359 234 160 173
0.31169 -0.64043 2.34782 234 160 173
0.16512 -1.05582 2.63482 234 160 173
-0.06268 -1.07682 2.74219 132 125 113
-0.13619 -1.1378 2.69146 132 125 113
-0.49232 -1.01168 3.05588 132 125 113
-0.41881 -0.95069 3.10661 132 125 113
-0.16512 -1.05582 2.63482 132 125 113
-0.47372 -0.94644 2.9505 132 125 113
-0.53472 -0.95778 3.05253 132 125 113
-0.50411 -0.90781 2.9481 132 125 113
-0.70781 -0.46722 2.71359 132 125 113
-0.62816 -0.55624 2.70519 132 125 113
-0.69676 -0.43225 2.65554 132 125 113
-0.62024 -0.53118 2.66359 132 125 113
-0.34064 -0.55838 2.29113 132 125 113
-0.31169 -0.64043 2.34782 132 125 113
-0.46121 -0.89679 3.10326 139 132 119
-0.53472 -0.95778 3.05253 139 132 119
-0.70781 -0.46722 2.71359 139 132 119
-0.6343 -0.40623 2.76432 139 132 119
-0.69676 -0.43225 2.65554 139 132 119
-0.62325 -0.37127 2.70627 139 132 119
-0.62325 -0.37127 2.70627 132 125 113
-0.26713 -0.49739 2.34186 132 125 113
-0.23818 -0.57944 2.39855 132 125 113
-0.54643 -0.47058 2.71435 132 125 113
-0.6343 -0.40623 2.76432 132 125 113
-0.55434 -0.4956 2.75589 132 125 113
-0.46121 -0.89679 3.10326 132 125 113
-0.43048 -0.84663 2.99842 132 125 113
-0.40014 -0.88519 3.00082 132 125 113
-0.09161 -0.99484 2.68555 132 125 113
-0.23818 -0.57944 2.39855 255 251 200
-0.09161 -0.99484 2.68555 255 251 200
-0.40014 -0.88519 3.00082 255 251 200
-0.54643 -0.47058 2.71435 255 251 200
-0.43048 -0.84663 2.99842 255 251 200
-0.55434 -0.4956 2.75589 255 251 200
-0.41881 -0.95069 3.10661 139 132 119
-0.49232 -1.01168 3.05588 139 132 119
-0.47372 -0.94644 2.9505 234 160 173
-0.62024 -0.53118 2.66359 234 160 173
-0.62816 -0.55624 2.70519 234 160 173
-0.50411 -0.90781 2.9481 234 160 173
-0.31169 -0.64043 2.34782 234 160 173
-0.16512 -1.05582 2.63482 234 160 173
0.13481 0.79568 0.51018 252 244 195
0.13481 0.86061 0.45691 252 244 195
-0.13481 0.86061 0.45691 252 244 195
-0.13481 0.79568 0.51018 252 244 195
0.13481 1.0653 0.72031 252 244 195
0.13481 1.0653 1.40283 252 244 195
-0.13481 1.0653 1.40283 252 244 195
-0.13481 1.0653 0.72031 252 244 195
0.13481 0.79568 1.40283 252 244 195
-0.13481 0.79568 1.40283 252 244 195
0.13481 1.70801 0.45691 252 244 195
0.13481 1.49788 0.72031 252 244 195
-0.13481 1.70801 0.45691 252 244 195
-0.13481 1.49788 0.72031 252 244 195
0.13481 1.76262 0.51924 252 244 195
-0.13481 1.76262 0.51924 252 244 195
0.13481 1.49788 1.00098 252 244 195
-0.13481 1.49788 1.00098 252 244 195
-0.13481 1.76262 1.51066 252 244 195
-0.13481 1.49832 1.30462 252 244 195
0.13481 1.76262 1.51066 252 244 195
0.13481 1.49832 1.30462 252 244 195
0.13481 1.69379 1.58064 252 244 195
0.13481 1.26786 1.30462 252 244 195
0.13481 1.23402 1.58064 252 244 195
-0.13481 1.69379 1.58064 252 244 195
-0.13481 1.23402 1.58064 252 244 195
-0.13481 1.26786 1.30462 252 244 195
-0.13481 1.16026 1.51362 252 244 195
-0.13481 1.16026 1.05399 252 244 195
0.13481 1.16026 1.51362 252 244 195
0.13481 1.16026 1.05399 252 244 195
-0.13481 1.26786 1.20864 252 244 195
-0.13481 1.20373 1.00098 252 244 195
0.13481 1.20373 1.00098 252 244 195
-0.13481 1.4073 1.00098 252 244 195
0.13481 1.4073 1.00098 252 244 195
0.13481 1.26786 1.20864 252 244 195
0.13481 1.4073 1.20864 252 244 195
-0.13481 1.4073 1.20864 252 244 195
-0.10111 0.82938 1.44354 255 251 200
-0.10111 1.0316 1.44354 255 251 200
0.10111 1.0316 1.44354 255 251 200
0.10111 0.82938 1.44354 255 251 200
0.13481 0.79568 1.40283 255 251 200
-0.13481 0.79568 1.40283 255 251 200
0.13481 1.0653 1.40283 255 251 200
-0.13481 1.0653 1.40283 255 251 200
-0.13481 1.0653 0.72031 255 251 200
-0.13481 1.49788 0.72031 255 251 200
0.13481 1.49788 0.72031 255 251 200
0.13481 1.0653 0.72031 255 251 200
-0.13481 1.23402 1.58064 255 251 200
-0.13481 1.69379 1.58064 255 251 200
0.13481 1.69379 1.58064 255 251 200
0.13481 1.23402 1.58064 255 251 200
-0.13481 1.16026 1.51362 255 251 200
0.13481 1.16026 1.51362 255 251 200
0.13481 1.76262 1.51066 255 251 200
-0.13481 1.76262 1.51066 255 251 200
0.13481 1.4073 1.20864 239 232 185
0.13481 1.49832 1.30462 239 232 185
0.13481 1.49788 1.00098 239 232 185
0.13481 1.4073 1.00098 239 232 185
-0.13481 1.49788 1.00098 239 232 185
-0.13481 1.4073 1.00098 239 232 185
0.13481 1.26786 1.30462 239 232 185
0.13481 1.26786 1.20864 239 232 185
-0.13481 1.49832 1.30462 239 232 185
-0.13481 1.4073 1.20864 239 232 185
-0.13481 1.26786 1.20864 239 232 185
-0.13481 1.26786 1.30462 239 232 185
0.17333 -0.94205 -9.34617E-18 252 244 195
0.17333 -0.94205 0.20423 252 244 195
0.40989 -0.94205 0.20423 252 244 195
0.40989 -0.94205 -2.48109E-17 252 244 195
0.13627 -0.85197 0 252 244 195
0.44695 -0.85197 0 252 244 195
0.13627 -0.52503 0 252 244 195
0.44695 -0.52503 0 252 244 195
0.44695 -0.85197 0.20423 252 244 195
0.13627 -0.85197 0.20423 252 244 195
0.44695 -0.85197 0.68023 252 244 195
0.13627 -0.85197 0.68023 252 244 195
0.44695 -0.52503 0.68023 252 244 195
0.13627 -0.52503 0.68023 252 244 195
0.18643 -0.47097 0.68023 252 244 195
0.18643 -0.47097 -7.10543E-17 252 244 195
0.3968 -0.47097 -7.10543E-17 252 244 195
0.3968 -0.47097 0.68023 252 244 195
0.17333 0.28504 -2.59827E-18 252 244 195
0.17333 0.28504 0.20423 252 244 195
0.40989 0.28504 0.20423 252 244 195
0.40989 0.28504 -6.89751E-18 252 244 195
0.13627 0.37512 0 252 244 195
0.44695 0.37512 0 252 244 195
0.13627 0.70206 0 252 244 195
0.44695 0.70206 0 252 244 195
0.44695 0.37512 0.20423 252 244 195
0.13627 0.37512 0.20423 252 244 195
0.44695 0.37512 0.68023 252 244 195
0.13627 0.37512 0.68023 252 244 195
0.44695 0.70206 0.68023 252 244 195
0.13627 0.70206 0.68023 252 244 195
0.18643 0.75613 0.68023 252 244 195
0.18643 0.75613 -7.10543E-17 252 244 195
0.3968 0.75613 -7.10543E-17 252 244 195
0.3968 0.75613 0.68023 252 244 195
0.46278 0.81131 0.6598 252 244 195
0.51382 0.81126 0.74387 252 244 195
0.43563 0.8891 0.74387 252 244 195
0.46278 -1.0095 0.6598 252 244 195
0.51382 -1.02601 0.74387 252 244 195
0.51382 0.81126 1.48397 252 244 195
0.43563 0.8891 1.48397 252 244 195
0.4356 0.75469 1.56201 252 244 195
0.38268 0.81131 1.56201 252 244 195
0.51382 -1.02601 1.48397 252 244 195
0.43564 -0.4036 1.56201 252 244 195
-0.46278 -1.0095 0.6598 252 244 195
-0.46278 0.81131 0.6598 252 244 195
-0.43563 0.8891 0.74387 252 244 195
-0.43563 0.8891 1.48397 252 244 195
-0.38268 0.81131 1.56201 252 244 195
0.43568 -0.97172 1.56201 252 244 195
0.43568 -0.97206 1.955 252 244 195
0.43568 -0.40301 2.70298 252 244 195
0.36857 -0.32185 2.70298 252 244 195
0.36789 -0.32408 1.56201 252 244 195
-0.36789 -0.32408 1.56201 252 244 195
-0.36857 -0.32185 2.70298 252 244 195
0.33241 -0.36716 2.75514 252 244 195
0.39169 -0.44163 2.75514 252 244 195
0.43568 -1.14232 2.70298 252 244 195
0.39169 -1.10298 2.75514 252 244 195
0.35265 -1.2166 2.70298 252 244 195
0.31835 -1.17113 2.75514 252 244 195
-0.33241 -0.36716 2.75514 252 244 195
-0.31835 -1.17113 2.75514 252 244 195
-0.35265 -1.2166 2.70298 252 244 195
0.35265 -1.2166 2.56449 252 244 195
0.35265 -1.2166 2.37372 252 244 195
0.43568 -1.14232 2.31647 252 244 195
0.20377 -1.2166 2.56449 252 244 195
0.20377 -1.20143 2.56449 252 244 195
0.35265 -1.20143 2.56449 252 244 195
0.07995 -1.20143 2.37372 252 244 195
0.07995 -1.2166 2.37372 252 244 195
0.35376 -1.29626 2.37372 252 244 195
0.35265 -1.20143 2.37372 252 244 195
-0.39169 -1.10298 2.75514 252 244 195
-0.43568 -1.14232 2.70298 252 244 195
-0.39169 -0.44163 2.75514 252 244 195
-0.43568 -0.40301 2.70298 252 244 195
-0.43564 -0.4036 1.56201 252 244 195
-0.43568 -0.97206 1.955 252 244 195
-0.43568 -0.97172 1.56201 252 244 195
-0.51382 -1.02601 1.48397 252 244 195
-0.4356 0.75469 1.56201 252 244 195
-0.51382 0.81126 1.48397 252 244 195
-0.51382 0.81126 0.74387 252 244 195
-0.51382 -1.02601 0.74387 252 244 195
-0.43568 -1.29531 1.955 252 244 195
-0.3537 -1.02904 1.91234 252 244 195
-0.35375 -1.29514 1.91234 252 244 195
0.3537 -1.02904 1.91234 252 244 195
0.35375 -1.29514 1.91234 252 244 195
0.43568 -1.29531 1.955 252 244 195
0.43568 -1.29602 2.31647 252 244 195
0.35376 -1.35233 2.31653 252 244 195
0.35716 -1.35133 1.955 252 244 195
0.24257 -1.35183 2.19414 252 244 195
0.03898 -1.35183 2.19414 252 244 195
0.00969 -1.35183 2.22198 252 244 195
0.24266 -1.35136 2.05633 252 244 195
-0.35716 -1.35133 1.955 252 244 195
-0.24266 -1.35136 2.05633 252 244 195
-0.35376 -1.35233 2.31653 252 244 195
-0.43568 -1.29602 2.31647 252 244 195
-0.35376 -1.29626 2.37372 252 244 195
-0.00991 -1.35233 2.31653 252 244 195
-0.00987 -1.35183 2.22176 252 244 195
-0.43568 -1.14232 2.31647 252 244 195
-0.24257 -1.35183 2.19414 252 244 195
-0.35265 -1.2166 2.37372 252 244 195
-0.35265 -1.2166 2.56449 252 244 195
-0.35265 -1.20143 2.56449 252 244 195
-0.20377 -1.20143 2.56449 252 244 195
-0.20377 -1.2166 2.56449 252 244 195
-0.07995 -1.20143 2.37372 252 244 195
-0.07995 -1.2166 2.37372 252 244 195
-0.35265 -1.20143 2.37372 252 244 195
0.00977 -1.35233 2.31653 252 244 195
0.43554 -1.07505 0.74387 252 244 195
0.43554 -1.07505 1.48397 252 244 195
0.35311 -1.02871 1.56201 252 244 195
-0.43554 -1.07505 0.74387 252 244 195
-0.35311 -1.02871 1.56201 252 244 195
-0.43554 -1.07505 1.48397 252 244 195
0.44695 -0.85197 0.20423 255 251 200
0.40989 -0.94205 0.20423 255 251 200
0.17333 -0.94205 0.20423 255 251 200
0.13627 -0.85197 0.20423 255 251 200
0.44695 0.37512 0.20423 255 251 200
0.40989 0.28504 0.20423 255 251 200
0.17333 0.28504 0.20423 255 251 200
0.13627 0.37512 0.20423 255 251 200
0.4356 0.75469 1.56201 255 251 200
0.43564 -0.4036 1.56201 255 251 200
0.36789 -0.32408 1.56201 255 251 200
0.38268 0.81131 1.56201 255 251 200
-0.38268 0.81131 1.56201 255 251 200
-0.36789 -0.32408 1.56201 255 251 200
-0.4356 0.75469 1.56201 255 251 200
-0.43564 -0.4036 1.56201 255 251 200
0.31835 -1.17113 2.75514 255 251 200
-0.31835 -1.17113 2.75514 255 251 200
-0.33241 -0.36716 2.75514 255 251 200
0.33241 -0.36716 2.75514 255 251 200
0.39169 -1.10298 2.75514 255 251 200
0.39169 -0.44163 2.75514 255 251 200
0.24266 -1.26241 2.19412 176 125 145
0.03902 -1.26241 2.19412 176 125 145
0.03898 -1.35183 2.19414 176 125 145
0.24257 -1.35183 2.19414 176 125 145
0.24266 -1.26235 2.05633 176 125 145
-0.03902 -1.26241 2.19412 176 125 145
0 -1.26241 2.23117 176 125 145
-0.24266 -1.26235 2.05633 176 125 145
0.24266 -1.35136 2.05633 176 125 145
-0.24266 -1.35136 2.05633 176 125 145
-0.24266 -1.26241 2.19412 176 125 145
-0.03898 -1.35183 2.19414 176 125 145
-0.24257 -1.35183 2.19414 176 125 145
0.00969 -1.35183 2.22198 176 125 145
0 -1.35183 2.23118 176 125 145
-0.00987 -1.35183 2.22176 176 125 145
0.35265 -1.20143 2.56449 255 255 255
0.35265 -1.20143 2.37372 255 255 255
0.07995 -1.20143 2.37372 255 255 255
0.20377 -1.20143 2.56449 255 255 255
-0.17333 -0.94205 -9.34617E-18 252 244 195
-0.40989 -0.94205 -2.48109E-17 252 244 195
-0.40989 -0.94205 0.20423 252 244 195
-0.17333 -0.94205 0.20423 252 244 195
-0.13627 -0.85197 0 252 244 195
-0.44695 -0.85197 0 252 244 195
-0.13627 -0.52503 0 252 244 195
-0.44695 -0.52503 0 252 244 195
-0.44695 -0.85197 0.20423 252 244 195
-0.13627 -0.85197 0.20423 252 244 195
-0.44695 -0.85197 0.68023 252 244 195
-0.13627 -0.85197 0.68023 252 244 195
-0.44695 -0.52503 0.68023 252 244 195
-0.13627 -0.52503 0.68023 252 244 195
-0.18642 -0.47097 0.68023 252 244 195
-0.3968 -0.47097 0.68023 252 244 195
-0.3968 -0.47097 -7.10543E-17 252 244 195
-0.18642 -0.47097 -7.10543E-17 252 244 195
-0.17333 0.28504 -2.59827E-18 252 244 195
-0.40989 0.28504 -6.89751E-18 252 244 195
-0.40989 0.28504 0.20423 252 244 195
-0.17333 0.28504 0.20423 252 244 195
-0.13627 0.37512 0 252 244 195
-0.44695 0.37512 0 252 244 195
-0.13627 0.70206 0 252 244 195
-0.44695 0.70206 0 252 244 195
-0.44695 0.37512 0.20423 252 244 195
-0.13627 0.37512 0.20423 252 244 195
-0.44695 0.37512 0.68023 252 244 195
-0.13627 0.37512 0.68023 252 244 195
-0.44695 0.70206 0.68023 252 244 195
-0.13627 0.70206 0.68023 252 244 195
-0.18642 0.75613 0.68023 252 244 195
-0.3968 0.75613 0.68023 252 244 195
-0.3968 0.75613 -1.23996E-16 252 244 195
-0.18642 0.75613 -1.23996E-16 252 244 195
-0.44695 -0.85197 0.20423 255 251 200
-0.13627 -0.85197 0.20423 255 251 200
-0.17333 -0.94205 0.20423 255 251 200
-0.40989 -0.94205 0.20423 255 251 200
-0.44695 0.37512 0.20423 255 251 200
-0.13627 0.37512 0.20423 255 251 200
-0.17333 0.28504 0.20423 255 251 200
-0.40989 0.28504 0.20423 255 251 200
-0.39169 -1.10298 2.75514 255 251 200
-0.39169 -0.44163 2.75514 255 251 200
0.25039 -1.32328 2.10563 206 157 178
0.25039 -1.32328 2.04935 206 157 178
-0.25039 -1.32328 2.04935 206 157 178
-0.25039 -1.32328 2.10563 206 157 178
0.25039 -1.25458 2.10563 206 157 178
-0.25039 -1.25458 2.10563 206 157 178
-0.35265 -1.20143 2.56449 255 255 255
-0.20377 -1.20143 2.56449 255 255 255
-0.07995 -1.20143 2.37372 255 255 255
-0.35265 -1.20143 2.37372 255 255 255
0.15007 -1.34695 2.14129 255 255 255
0.15007 -1.34695 2.19758 255 255 255
0.206 -1.34695 2.19758 255 255 255
0.206 -1.34695 2.14129 255 255 255
0.15007 -1.29984 2.14129 255 255 255
0.206 -1.29984 2.14129 255 255 255
0.206 -1.29984 2.19758 255 255 255
0.15007 -1.29984 2.19758 255 255 255
-0.15007 -1.34695 2.14129 255 255 255
-0.206 -1.34695 2.14129 255 255 255
-0.206 -1.34695 2.19758 255 255 255
-0.15007 -1.34695 2.19758 255 255 255
-0.15007 -1.29984 2.14129 255 255 255
-0.206 -1.29984 2.14129 255 255 255
-0.206 -1.29984 2.19758 255 255 255
-0.15007 -1.29984 2.19758 255 255 255
0.17316 -1.20885 2.42934 233 117 96
0.17316 -1.20885 2.5812 233 117 96
0.21809 -1.20885 2.5812 233 117 96
0.21809 -1.20885 2.42934 233 117 96
0.21809 -1.19946 2.5812 233 117 96
0.21809 -1.19946 2.42934 233 117 96
0.17316 -1.19946 2.42934 233 117 96
0.17316 -1.19946 2.5812 233 117 96
-0.21809 -1.20885 2.42934 233 117 96
-0.21809 -1.20885 2.5812 233 117 96
-0.17316 -1.20885 2.5812 233 117 96
-0.17316 -1.20885 2.42934 233 117 96
-0.21809 -1.19946 2.42934 233 117 96
-0.21809 -1.19946 2.5812 233 117 96
-0.17316 -1.19946 2.5812 233 117 96
-0.17316 -1.19946 2.42934 233 117 96
-0.00991 -1.35233 2.31653 239 231 185
0 -1.35183 2.23118 239 231 185
-0.00987 -1.35183 2.22176 239 231 185
0.00977 -1.35233 2.31653 239 231 185
0.00969 -1.35183 2.22198 239 231 185
-0.03898 -1.35183 2.19414 252 244 195
3 0 2 1
3 0 3 2
3 4 3 0
3 4 0 1
3 4 5 3
3 3 6 2
3 3 5 6
3 4 1 7
3 8 10 9
3 8 11 10
3 7 5 4
3 7 6 5
3 12 14 13
3 12 15 14
3 16 15 12
3 16 12 13
3 16 17 15
3 15 18 14
3 15 17 18
3 16 13 19
3 20 22 21
3 20 23 22
3 24 20 21
3 24 23 20
3 24 21 25
3 21 26 25
3 21 22 26
3 24 27 23
3 28 30 29
3 28 31 30
3 32 34 33
3 32 35 34
3 36 34 35
3 36 37 34
3 38 37 36
3 38 39 37
3 40 39 38
3 40 38 41
3 40 41 42
3 40 42 43
3 43 32 33
3 43 42 32
3 42 36 44
3 42 44 45
3 32 42 45
3 36 46 44
3 36 35 46
3 35 47 46
3 35 32 47
3 32 45 47
3 48 50 49
3 48 51 50
3 52 54 53
3 52 55 54
3 54 55 56
3 54 56 57
3 58 54 57
3 58 57 59
3 60 58 59
3 60 59 61
3 62 60 61
3 62 61 63
3 64 62 63
3 64 63 65
3 66 68 67
3 66 69 68
3 67 68 70
3 67 70 71
3 72 64 73
3 72 62 64
3 72 73 74
3 72 74 75
3 76 72 75
3 76 75 77
3 78 76 77
3 78 77 79
3 53 78 79
3 53 79 80
3 52 53 80
3 52 80 81
3 82 84 83
3 82 85 84
3 83 84 86
3 83 86 87
3 69 89 88
3 69 66 89
3 90 92 91
3 90 93 92
3 94 93 90
3 94 90 95
3 96 98 97
3 96 99 98
3 98 100 97
3 98 101 100
3 102 101 98
3 102 103 101
3 104 103 102
3 104 105 103
3 106 105 104
3 106 107 105
3 108 107 106
3 108 109 107
3 110 112 111
3 110 113 112
3 113 114 112
3 113 115 114
3 116 108 106
3 116 117 108
3 116 118 117
3 116 119 118
3 120 119 116
3 120 121 119
3 122 121 120
3 122 123 121
3 99 123 122
3 99 124 123
3 96 124 99
3 96 125 124
3 126 128 127
3 126 129 128
3 129 130 128
3 129 131 130
3 111 132 110
3 111 133 132
3 134 136 135
3 134 137 136
3 138 134 135
3 138 139 134
3 140 142 141
3 140 143 142
3 140 141 144
3 140 144 145
3 146 145 144
3 146 144 147
3 140 145 148
3 143 140 148
3 143 148 149
3 147 143 149
3 142 143 147
3 147 149 146
3 144 141 150
3 144 150 151
3 141 152 150
3 141 142 152
3 142 147 153
3 142 153 152
3 151 150 154
3 154 150 152
3 154 152 155
3 152 153 155
3 153 151 156
3 153 156 157
3 157 155 153
3 157 158 155
3 159 158 157
3 160 151 154
3 160 156 151
3 154 158 160
3 154 155 158
3 160 161 156
3 162 161 160
3 162 163 161
3 162 164 163
3 159 165 158
3 166 165 159
3 166 159 167
3 166 167 168
3 169 168 167
3 169 170 168
3 169 171 170
3 169 167 172
3 169 172 173
3 173 171 169
3 173 174 171
3 175 174 173
3 175 176 174
3 176 177 174
3 174 177 171
3 171 177 163
3 176 178 177
3 173 179 175
3 173 172 179
3 171 163 170
3 163 164 170
3 180 182 181
3 180 183 182
3 184 182 183
3 185 184 183
3 185 183 180
3 184 186 182
3 186 181 182
3 186 187 181
3 187 185 180
3 187 180 181
3 188 190 189
3 188 191 190
3 192 194 193
3 192 195 194
3 195 192 196
3 195 196 197
3 198 193 194
3 198 199 193
3 200 202 201
3 200 203 202
3 204 202 203
3 204 203 205
3 200 201 206
3 200 206 207
3 204 209 208
3 204 205 209
3 208 209 210
3 208 210 211
3 212 214 213
3 212 215 214
3 216 215 212
3 216 217 215
3 217 214 215
3 218 217 216
3 218 219 217
3 217 219 220
3 217 220 214
3 218 216 221
3 221 212 213
3 221 216 212
3 221 220 222
3 221 222 223
3 218 221 223
3 220 224 222
3 220 219 224
3 218 223 225
3 226 228 227
3 226 229 228
3 224 228 229
3 224 219 228
3 219 227 228
3 219 218 227
3 218 226 227
3 218 225 226
3 230 232 231
3 230 233 232
3 234 233 230
3 234 235 233
3 235 232 233
3 236 235 234
3 236 237 235
3 235 237 238
3 235 238 232
3 236 234 239
3 239 230 231
3 239 234 230
3 239 238 240
3 239 240 241
3 236 239 241
3 238 242 240
3 238 237 242
3 236 241 243
3 244 246 245
3 244 247 246
3 242 246 247
3 242 237 246
3 237 245 246
3 237 236 245
3 236 244 245
3 236 243 244
3 248 250 249
3 251 248 249
3 251 249 252
3 253 249 250
3 252 249 253
3 253 250 254
3 255 253 254
3 255 254 256
3 257 253 255
3 252 253 257
3 257 255 258
3 248 251 259
3 248 259 260
3 250 248 260
3 250 260 261
3 254 250 261
3 254 261 262
3 256 254 262
3 256 262 263
3 257 258 264
3 264 258 265
3 265 258 266
3 267 266 258
3 267 258 268
3 267 268 269
3 267 269 270
3 266 267 271
3 271 267 270
3 266 271 272
3 273 266 272
3 273 272 274
3 275 273 274
3 275 274 276
3 271 270 277
3 275 276 278
3 275 278 279
3 275 280 273
3 273 280 281
3 273 281 282
3 266 273 282
3 275 283 280
3 280 283 284
3 280 284 285
3 281 280 285
3 283 286 284
3 283 287 286
3 288 281 287
3 287 289 286
3 287 281 289
3 281 285 289
3 279 278 290
3 279 290 291
3 291 290 292
3 291 292 293
3 293 292 277
3 293 277 270
3 270 294 293
3 270 269 294
3 295 293 294
3 296 295 294
3 297 296 294
3 297 294 298
3 297 298 299
3 298 262 299
3 298 263 262
3 299 262 261
3 299 261 300
3 260 300 261
3 259 300 260
3 259 301 300
3 301 299 300
3 301 297 299
3 302 295 303
3 302 303 304
3 305 304 303
3 305 306 304
3 307 306 305
3 307 305 265
3 265 308 307
3 307 308 309
3 288 309 308
3 307 309 310
3 306 307 310
3 265 282 308
3 310 309 311
3 309 312 311
3 309 313 312
3 310 311 314
3 306 310 315
3 306 315 304
3 310 316 315
3 310 314 316
3 266 282 265
3 304 315 302
3 302 315 317
3 302 317 318
3 319 318 317
3 320 319 317
3 321 320 317
3 295 302 318
3 295 318 322
3 315 323 317
3 315 316 323
3 293 295 322
3 293 322 291
3 291 322 324
3 291 324 325
3 324 326 325
3 325 326 327
3 325 327 328
3 328 327 329
3 328 329 330
3 319 330 324
3 330 331 324
3 330 329 331
3 324 331 326
3 279 291 325
3 328 279 325
3 328 330 287
3 328 287 283
3 328 275 279
3 328 283 275
3 288 287 330
3 288 330 319
3 332 288 319
3 332 319 320
3 309 288 332
3 332 313 309
3 257 333 252
3 257 334 333
3 334 257 264
3 334 264 335
3 252 333 251
3 251 333 336
3 251 336 259
3 334 335 337
3 334 337 338
3 333 338 336
3 333 334 338
3 335 264 265
3 335 265 305
3 305 337 335
3 297 336 338
3 297 301 336
3 301 259 336
3 338 296 297
3 338 337 296
3 337 295 296
3 337 303 295
3 305 303 337
3 339 341 340
3 339 342 341
3 343 345 344
3 343 346 345
3 347 349 348
3 347 350 349
3 349 350 351
3 349 351 352
3 353 352 351
3 353 354 352
3 355 357 356
3 355 358 357
3 358 355 359
3 358 359 360
3 282 288 308
3 282 281 288
3 361 363 362
3 361 364 363
3 365 361 362
3 365 362 366
3 366 362 367
3 365 366 368
3 369 365 368
3 369 368 370
3 368 366 371
3 371 366 372
3 371 372 373
3 367 362 374
3 367 374 375
3 365 364 361
3 365 369 364
3 367 375 376
3 368 373 370
3 368 371 373
3 377 379 378
3 377 380 379
3 381 383 382
3 381 384 383
3 385 381 382
3 385 382 386
3 386 382 383
3 387 385 386
3 387 386 388
3 386 389 388
3 386 383 389
3 387 390 385
3 390 381 385
3 390 384 381
3 390 391 389
3 390 392 391
3 387 392 390
3 389 393 388
3 389 391 393
3 387 394 392
3 395 397 396
3 395 398 397
3 394 398 395
3 394 387 398
3 387 397 398
3 387 388 397
3 388 396 397
3 388 393 396
3 399 401 400
3 399 402 401
3 403 399 400
3 403 400 404
3 404 400 401
3 405 403 404
3 405 404 406
3 404 407 406
3 404 401 407
3 405 408 403
3 408 399 403
3 408 402 399
3 408 409 407
3 408 410 409
3 405 410 408
3 407 411 406
3 407 409 411
3 405 412 410
3 413 415 414
3 413 416 415
3 412 416 413
3 412 405 416
3 405 415 416
3 405 406 415
3 406 414 415
3 406 411 414
3 417 419 418
3 417 420 419
3 421 423 422
3 421 424 423
3 322 319 324
3 322 318 319
3 357 425 356
3 357 426 425
3 427 429 428
3 427 430 429
3 431 430 427
3 431 432 430
3 433 435 434
3 433 436 435
3 437 439 438
3 437 440 439
3 441 440 437
3 441 437 438
3 441 442 440
3 440 443 439
3 440 442 443
3 441 438 444
3 444 442 441
3 444 443 442
3 445 447 446
3 445 448 447
3 449 445 446
3 449 448 445
3 449 446 450
3 446 451 450
3 446 447 451
3 449 452 448
3 452 450 451
3 452 449 450
3 453 455 454
3 453 456 455
3 456 457 455
3 456 458 457
3 459 453 454
3 459 454 460
3 461 463 462
3 461 464 463
3 465 461 462
3 465 462 466
3 464 467 463
3 464 468 467
3 469 471 470
3 469 470 472
3 472 470 473
3 374 362 363
3 317 474 321
3 317 323 474
3 366 376 372
3 367 376 366
