mtllib Gloom_F.mtl
v 0.303939 0.204159 0
vt 0.0616509 0.156512
vn 0.9486181 -0.29915 -0.103116
v 0.271903 0.297363 0.153184
vn 0.85374 0.256203 0.453308
v 0.33219 0.165575 0.199102
vn 0.7504098 -0.5122339 0.4177339
v 0.290629 0.417985 0
vn 0.9353393 0.3534201 0.01531801
v 0.189564 0.138083 0.189564
vn 0.4584961 -0.6008251 0.654821
v 0.271903 0.311072 -0.168045
vn 0.846745 0.0574867 -0.528884
v 0.213891 0.0864099 0
vn 0.7512161 -0.6600552 0.00121973
v 0.189564 0.138083 -0.189564
vn 0.6128101 -0.4839601 -0.6246971
v 0.171962 0.489538 -0.171963
vn 0.6067488 0.4708848 -0.6404088
v 0.171962 0.489538 0.171963
vn 0.6017988 0.4320809 0.6716728
v 0.223536 0.492178 0
vn 0.7417042 0.6707272 0
v 0.126711 0.05829589 -0.12976
vn 0.2247499 -0.8635148 -0.4514749
v 0.12534 0.05829589 0.131809
vn 0.2349449 -0.8659346 0.4415408
v 0.124288 -8.940697E-09 0
vn 0.209398 -0.9778299 0.00105716
v 0.113867 0.311072 -0.298107
vn 0.362203 0.0516529 -0.930667
v 0.18528 0.297363 0.245604
vn 0.486741 0.0437923 0.872448
v 0 0.0311702 0
vn 0 -0.9999992 -0.00124259
v 0 0.153289 -0.279227
vn 0 -0.52979 -0.8481289
v -0.126711 0.05829589 -0.12976
vn -0.2247499 -0.8635148 -0.4514749
v 0 0.468855 -0.261311
vn 0 0.5010579 -0.8654138
v 0 0.529915 -0.183184
vn 0 0.7879097 -0.6157908
v 0 0.529915 0.183184
vn 0 0.7879102 0.6157902
v 0 0.468855 0.261311
vn 0 0.4274091 0.9040583
v 0 0.140453 0.266391
vn 0 -0.5245159 0.8514007
v -0.189564 0.138083 -0.189564
vn -0.6128101 -0.4839601 -0.6246971
v -0.124288 -8.940697E-09 0
vn -0.209398 -0.9778299 0.00105716
v -0.213891 0.0864099 0
vn -0.7512161 -0.6600552 0.00121971
v -0.113867 0.311072 -0.298107
vn -0.362203 0.0516529 -0.930667
v -0.171962 0.489538 -0.171963
vn -0.6067488 0.4708848 -0.6404088
v -0.171962 0.489538 0.171963
vn -0.6017988 0.4320809 0.6716728
v -0.12534 0.05829589 0.131809
vn -0.2349449 -0.8659346 0.4415408
v -0.189564 0.138083 0.189564
vn -0.4584961 -0.6008251 0.654821
v -0.271903 0.311072 -0.168045
vn -0.846745 0.0574867 -0.528884
v -0.303939 0.204159 0
vn -0.9486181 -0.29915 -0.103116
v -0.271903 0.297363 0.153184
vn -0.8537406 0.2562022 0.4533073
v -0.18528 0.297363 0.245604
vn -0.486741 0.0437923 0.872448
v -0.290629 0.417985 0
vn -0.9353393 0.3534201 0.01531801
v -0.223536 0.492178 0
vn -0.7417042 0.6707272 0
v -0.33219 0.165575 0.199102
vn -0.7504098 -0.5122339 0.4177339
vt 0.5 0.0574229
vt 1.05369 0.995246
v 0 0.297363 0.293111
vt 0.5 0.995246
vn 0 0.01526009 0.9998835
vt 1.0665 0.0432605
vt -0.0536929 0.995246
vt -0.0664955 0.0432605
o merged_0_0_node
g polygon_0
usemtl mat_kuti_mat_id
f 1/1/1 2/1/2 3/1/3
f 1/1/1 4/1/4 2/1/2
f 1/1/1 3/1/3 5/1/5
f 1/1/1 6/1/6 4/1/4
f 1/1/1 5/1/5 7/1/7
f 1/1/1 8/1/8 6/1/6
f 1/1/1 7/1/7 8/1/8
f 3/1/3 2/1/2 5/1/5
f 4/1/4 6/1/6 9/1/9
f 4/1/4 10/1/10 2/1/2
f 4/1/4 9/1/9 11/1/11
f 4/1/4 11/1/11 10/1/10
f 7/1/7 12/1/12 8/1/8
f 7/1/7 5/1/5 13/1/13
f 7/1/7 14/1/14 12/1/12
f 7/1/7 13/1/13 14/1/14
f 6/1/6 15/1/15 9/1/9
f 6/1/6 8/1/8 15/1/15
f 2/1/2 10/1/10 16/1/16
f 2/1/2 16/1/16 5/1/5
f 12/1/12 14/1/14 17/1/17
f 12/1/12 18/1/18 8/1/8
f 12/1/12 17/1/17 19/1/19
f 12/1/12 19/1/19 18/1/18
f 8/1/8 18/1/18 15/1/15
f 14/1/14 13/1/13 17/1/17
f 9/1/9 15/1/15 20/1/20
f 9/1/9 20/1/20 21/1/21
f 10/1/10 22/1/22 23/1/23
f 5/1/5 24/1/24 13/1/13
f 19/1/19 25/1/25 18/1/18
f 19/1/19 17/1/17 26/1/26
f 19/1/19 27/1/27 25/1/25
f 19/1/19 26/1/26 27/1/27
f 15/1/15 28/1/28 20/1/20
f 15/1/15 18/1/18 28/1/28
f 18/1/18 25/1/25 28/1/28
f 21/1/21 20/1/20 29/1/29
f 20/1/20 28/1/28 29/1/29
f 22/1/22 30/1/30 23/1/23
f 24/1/24 31/1/31 13/1/13
f 24/1/24 32/1/32 31/1/31
f 31/1/31 17/1/17 13/1/13
f 31/1/31 27/1/27 26/1/26
f 31/1/31 32/1/32 27/1/27
f 31/1/31 26/1/26 17/1/17
f 25/1/25 33/1/33 28/1/28
f 25/1/25 27/1/27 34/1/34
f 25/1/25 34/1/34 33/1/33
f 27/1/27 32/1/32 34/1/34
f 28/1/28 33/1/33 29/1/29
f 30/1/30 35/1/35 36/1/36
f 30/1/30 37/1/37 35/1/35
f 30/1/30 38/1/38 37/1/37
f 37/1/37 34/1/34 35/1/35
f 37/1/37 29/1/29 33/1/33
f 37/1/37 38/1/38 29/1/29
f 37/1/37 33/1/33 34/1/34
f 36/1/36 35/1/35 32/1/32
f 34/1/34 39/1/39 35/1/35
f 34/1/34 32/1/32 39/1/39
f 39/1/39 32/1/32 35/1/35
f 24/2/24 16/3/16 40/4/40
f 24/2/24 5/5/5 16/3/16
f 24/2/24 40/4/40 36/6/36
f 24/2/24 36/6/36 32/7/32
v -0.247679 0.476111 0.135056
vt 0.44909 0.534738
vn -0.5411698 0.7828286 0.3071069
v -0.289334 0.331205 0.291916
vt 0.948257 0.534738
vn -0.541213 0.6466851 0.5374821
v -0.195471 0.487235 0.1987
vn -0.4201768 0.8058096 0.4172798
v -0.13219 0.476111 0.251347
vn -0.310843 0.782829 0.539032
vn 0.429256 -0.7962481 -0.426296
v -0.104982 0.521577 0.108835
vt 0.0265032 0.534738
vn 0.2518971 -0.9348622 -0.2501611
vn -0.1844991 0.9656024 0.1832271
vn 0.5101348 -0.6950547 -0.5066178
v 0.132454 0.470584 0.253606
vn 0.315477 0.782829 0.536333
v 0.289942 0.325679 0.292819
vn 0.5458249 0.6466849 0.5327979
v 0.195279 0.481708 0.200416
vn 0.4237571 0.8058092 0.4136441
v 0.246937 0.470584 0.136325
vn 0.5437959 0.7828288 0.3024319
vn -0.432914 -0.796248 -0.422581
v 0.104019 0.51605 0.111334
vn -0.254044 -0.9348621 -0.247981
vn 0.1860711 0.9656023 0.1816311
vn -0.514482 -0.695055 -0.502202
v 0.421702 0.531728 -0.0661602
vt 0.835715 0.534738
vn -0.367278 0.915621 -0.163539
v 0.414483 0.540828 0.00100346
vt 0.832416 0.534738
vn -0.4162372 0.9092544 0.001740791
v 0.507695 0.606692 0.000756622
vn -0.5770717 0.8166906 0.002177419
v 0.422108 0.531657 0.0681126
vn -0.3662791 0.9154462 0.1667271
vn 0.6581714 -0.7528644 -0.002389081
vn 0.4873222 -0.8726053 0.03282041
vn 0.4871122 -0.8725683 -0.03669212
v 0.295098 0.474082 0.00132895
vn 0.159578 -0.9871848 -0.00100646
v 0.290455 0.48992 0.101729
vn 0.156219 -0.9745201 0.160954
v 0.289848 0.490027 -0.0990241
vn 0.15524 -0.974348 -0.162931
vn -0.2041239 0.9788765 0.01158679
vn -0.2041869 0.9788876 -0.009312826
v 0.133499 0.481653 0.0018215
vn -0.05304071 0.9985921 0.0006904331
vn -0.04679592 -0.9989044 -0.0003887682
v 0.208932 0.366683 -0.38724
vn -0.311154 -0.6950551 0.648137
v 0.222179 0.511588 -0.225486
vn -0.261822 -0.7962481 0.545379
v 0.0744285 0.511588 -0.296417
vn 0.1125069 0.7828286 -0.6119817
v 0.15168 0.522712 -0.267985
vn 0.2562849 0.8058095 -0.5338437
vn 0.3301101 0.6466852 -0.6876232
vn 0.4071738 0.7828286 -0.4705198
v 0.0964868 0.557054 -0.153017
vn -0.153643 -0.9348623 0.3200411
vn 0.112534 0.9656024 -0.2344101
v -0.0692385 0.477493 -0.288307
vn -0.108331 0.7828291 -0.6127341
v -0.203119 0.332587 -0.380046
vn -0.3254129 0.6466848 -0.6898588
v -0.146682 0.488617 -0.260403
vn -0.252638 0.8058097 -0.5355789
v -0.217469 0.477493 -0.218385
vn -0.4039549 0.7828288 -0.4732859
vn 0.258097 -0.7962479 0.5471519
v -0.0922743 0.522959 -0.145061
vn 0.151457 -0.9348621 0.321082
vn -0.110933 0.9656022 -0.235173
vn 0.306727 -0.6950549 0.6502439
v -0.396672 0.24642 -0.00662041
vt 0.937013 0.468251
vn 0.8803663 0.4735261 0.02698781
v -0.424256 0.300452 -0.0548509
vt 0.803484 0.468251
vn 0.925131 -0.379041 0.0214592
v -0.426782 0.299699 0.0407468
vn 0.9443188 -0.3282709 0.02236579
vn -0.9461172 0.137416 0.2932221
v -0.360648 0.430272 0.100968
vt 0.642008 0.468251
vn -0.5681442 0.8059793 0.1661611
v -0.441447 0.301593 -0.00746093
vn -0.9788586 0.2029509 -0.02543129
v -0.367697 0.44606 -0.0028463
vn -0.579914 0.814632 -0.00862843
vn -0.7760389 -0.6301759 -0.0253376
vn -0.9287149 0.146926 -0.340443
vn 0.5745559 -0.8184187 0.008737888
v -0.35517 0.431905 -0.106379
vn 0.599229 -0.800521 0.00953065
v -0.0650137 0.572911 0.0063152
vt 0.00924068 0.468251
vn 0.435692 -0.900085 0.00442608
vn -0.3864408 0.9223096 -0.002926958
vn -0.5596699 0.8081909 -0.183295
o merged_1_0_node
g polygon_0
usemtl mat_leaf_mat_id
f 41/8/41 42/9/42 43/8/43
f 43/8/43 42/9/42 44/8/44
f 44/8/45 41/8/45 45/10/46
f 45/10/47 43/8/43 44/8/44
f 45/10/47 41/8/41 43/8/43
f 41/8/45 44/8/45 42/9/48
f 46/8/49 47/9/50 48/8/51
f 48/8/51 47/9/50 49/8/52
f 49/8/53 46/8/53 50/10/54
f 50/10/55 48/8/51 49/8/52
f 50/10/55 46/8/49 48/8/51
f 46/8/53 49/8/53 47/9/56
f 51/11/57 52/12/58 53/9/59
f 53/9/59 52/12/58 54/11/60
f 53/9/61 54/11/62 51/11/63
f 51/11/63 54/11/62 55/8/64
f 55/8/64 54/11/62 56/8/65
f 55/8/64 57/8/66 51/11/63
f 56/8/67 57/8/68 58/10/69
f 58/10/70 55/8/64 56/8/65
f 58/10/70 57/8/66 55/8/64
f 51/11/57 57/8/68 52/12/58
f 52/12/58 57/8/68 56/8/67
f 54/11/60 52/12/58 56/8/67
f 59/9/71 60/8/72 61/8/72
f 61/8/73 62/8/74 59/9/75
f 59/9/75 62/8/74 60/8/76
f 61/8/72 60/8/72 63/10/77
f 63/10/78 62/8/74 61/8/73
f 63/10/78 60/8/76 62/8/74
f 64/8/79 65/9/80 66/8/81
f 65/9/80 67/8/82 66/8/81
f 67/8/83 64/8/83 68/10/84
f 68/10/85 66/8/81 67/8/82
f 68/10/85 64/8/79 66/8/81
f 65/9/86 64/8/83 67/8/83
f 69/13/87 70/14/88 71/14/89
f 71/14/90 72/15/91 73/14/92
f 73/14/92 72/15/91 74/15/93
f 69/13/94 73/14/92 70/14/95
f 72/15/96 75/15/97 76/16/98
f 76/16/99 74/15/93 72/15/91
f 76/16/99 75/15/100 74/15/93
f 71/14/89 70/14/88 72/15/96
f 72/15/96 70/14/88 75/15/97
f 71/14/90 73/14/92 69/13/94
f 70/14/95 73/14/92 75/15/100
f 75/15/100 73/14/92 74/15/93
v 0 0.729538 0.306037
vt 0.500064 0.264836
vn 0 0.8846303 0.4662932
v -0.13337 0.609538 0.306037
vt 0.127451 0.0474308
vn -0.7222369 0 0.6916459
v 0 0.609538 0.350548
vt 0.500064 0.0468085
vn 0 0 1
v -0.171962 0.729538 0.171963
vt 0.00698345 0.453681
vn -0.2774489 0.9198066 0.2774489
v 0.13337 0.609538 0.306037
vt 0.88082 0.0474308
vn 0.7222373 0 0.6916453
v 0.171962 0.729538 0.171963
vt 0.993136 0.453681
vn 0.2774489 0.9198066 0.2774489
v 0 0.729538 -0.306037
vn 0 0.8846303 -0.4662932
v 0.13337 0.609538 -0.306037
vn 0.7222373 0 -0.6916453
v 0 0.609538 -0.350548
vn 0 0 -1
v 0.171962 0.729538 -0.171963
vn 0.2774489 0.9198066 -0.2774489
v -0.13337 0.609538 -0.306037
vn -0.7222373 0 -0.6916453
v -0.171962 0.729538 -0.171963
vn -0.2774489 0.9198066 -0.2774489
v 0.306037 0.729538 0
vn 0.4662932 0.8846303 0
v 0.306037 0.609538 0.13337
vn 0.6916459 0 0.7222369
v 0.350548 0.609538 0
vn 1 0 0
v 0.306037 0.609538 -0.13337
vn 0.6916459 0 -0.7222369
v -0.306037 0.729538 0
vn -0.4662932 0.8846303 0
v -0.306037 0.609538 -0.13337
vn -0.6916459 0 -0.7222369
v -0.350548 0.609538 0
vn -1 0 0
v -0.306037 0.609538 0.13337
vn -0.6916459 0 0.7222369
v 0 0.489538 0.306037
vt 0.58304 0.47912
vn 0 -0.8846298 0.4662939
v 0 0.489538 -0.306037
vn 0 -0.8846303 -0.4662932
v 0.306037 0.489538 0
vn 0.4662932 -0.8846303 0
v -0.306037 0.489538 0
vn -0.4662932 -0.8846303 0
o merged_2_0_node
g polygon_0
usemtl mat_flower_tex_mat_id
f 77/17/101 78/18/102 79/19/103
f 77/17/101 80/20/104 78/18/102
f 77/17/101 79/19/103 81/21/105
f 77/17/101 82/22/106 80/20/104
f 77/17/101 81/21/105 82/22/106
f 83/17/107 84/18/108 85/19/109
f 83/17/107 86/20/110 84/18/108
f 83/17/107 85/19/109 87/21/111
f 83/17/107 88/22/112 86/20/110
f 83/17/107 87/21/111 88/22/112
f 89/17/113 90/18/114 91/19/115
f 89/17/113 82/20/106 90/18/114
f 89/17/113 91/19/115 92/21/116
f 89/17/113 86/22/110 82/20/106
f 89/17/113 92/21/116 86/22/110
f 93/17/117 94/18/118 95/19/119
f 93/17/117 88/20/112 94/18/118
f 93/17/117 95/19/119 96/21/120
f 93/17/117 80/22/104 88/20/112
f 93/17/117 96/21/120 80/22/104
f 97/23/121 79/23/103 78/23/102
f 97/23/121 81/23/105 79/23/103
f 85/23/109 98/23/122 87/23/111
f 85/23/109 84/23/108 98/23/122
f 99/23/123 91/23/115 90/23/114
f 99/23/123 92/23/116 91/23/115
f 95/23/119 100/23/124 96/23/120
f 95/23/119 94/23/118 100/23/124
v 0 0.685094 0
vt 0 0
vn 0 1 0
vt -1.22959 0
vt 0 -1.22959
vt 1.22959 0
vt 0 1.22959
vn 0.6175291 -0.6828801 0.3902981
vt -1.09414 -1.09414
vn -0.61753 -0.68288 0.390297
vt -1.57096 -0.617314
vt -0.617314 -1.57096
vn 0.61753 -0.68288 -0.390297
vt 1.57096 0.617314
vt 1.09414 1.09414
vn -0.61753 -0.68288 -0.390297
vt 0.617314 1.57096
vn 0.3902972 -0.6828804 -0.6175293
vt 1.09414 -1.09414
vn 0.3902972 -0.6828804 0.6175293
vt 0.617314 -1.57096
vt 1.57096 -0.617314
vn -0.3902972 -0.6828804 -0.6175293
vn -0.3902972 -0.6828804 0.6175293
vt -1.09414 1.09414
vt -1.57096 0.617314
vt -0.617314 1.57096
o merged_3_0_node
g polygon_0
usemtl mat_flower_mat_id
f 101/24/125 80/25/104 82/26/106
f 101/24/125 86/27/110 88/28/112
f 101/24/125 82/26/106 86/27/110
f 101/24/125 88/28/112 80/25/104
f 10/26/126 97/29/121 30/25/127
f 30/25/127 97/29/121 78/30/102
f 82/26/106 81/31/105 10/26/126
f 10/26/126 81/31/105 97/29/121
f 30/25/127 78/30/102 80/25/104
f 86/27/110 9/27/128 84/32/108
f 84/32/108 9/27/128 98/33/122
f 9/27/128 29/28/129 98/33/122
f 98/33/122 29/28/129 87/34/111
f 29/28/129 88/28/112 87/34/111
f 9/27/130 99/35/123 10/26/131
f 10/26/131 99/35/123 90/36/114
f 86/27/110 92/37/116 9/27/130
f 9/27/130 92/37/116 99/35/123
f 10/26/131 90/36/114 82/26/106
f 29/28/132 30/25/133 100/38/124
f 100/38/124 30/25/133 96/39/120
f 30/25/133 80/25/104 96/39/120
f 88/28/112 29/28/132 94/40/118
f 94/40/118 29/28/132 100/38/124
vt 0.997622 0.770684
vt -0.0658334 1.01676
vt 0.921182 1.04644
vt -0.0658334 0.770684
o merged_4_0_node
g polygon_0
usemtl TEX_ANIM_EYE_mat_id
f 36/41/36 23/42/23 30/43/30
f 16/41/16 23/42/23 40/44/40
f 36/41/36 40/44/40 23/42/23
f 10/43/10 23/42/23 16/41/16
