mtllib Lapras.mtl
v -0.180328 0.9892578 0.2185135
vt 0.053702 0.95535
vn -0.129394 0.6863438 -0.7156739
v -0.285771 0.9926033 0.1415896
vn 0.1256834 -0.06090393 -0.9901991
v -0.21879 1.100752 0.2772568
vn 0.3652841 0.9296258 -0.04861363
v -0.270699 0.9003652 0.2556728
vn -0.6202139 -0.3979958 -0.6759689
v -0.164477 1.039273 0.412661
vn -0.3861913 0.8795384 0.2779718
v -0.266129 0.8249905 0.2106514
vn -0.8356935 -0.01695159 -0.5489346
v 0 1.078999 0.3031105
vn 0 0.9831321 -0.182897
v -0.111449 0.8440592 0.08163256
vn -0.3652783 0.1361036 -0.920895
v 0 0.9878796 0.1294499
vn 0 0.680936 -0.732343
v -0.3231 1.071818 0.2095272
vn -0.4005842 0.8422911 -0.3606632
v -0.327234 0.9010063 0.2827236
vn -0.8417034 -0.5377193 0.04892174
v -0.364289 0.9892008 0.2197297
vn -0.9689404 -0.142721 -0.2019539
v 0 1.045604 0.5290176
vn 0 0.8826371 0.470055
v -0.166986 0.9352342 0.5840394
vn -0.5597454 0.4691699 0.6830554
v -0.291776 0.9004083 0.3921371
vn -0.9126809 0.1990234 0.356936
v -0.180328 0.6654729 0.1706597
vn -0.5626735 -0.5274398 -0.6365578
v 0.180328 0.9892578 0.2185135
vn 0.129394 0.6863438 -0.7156739
v 0.111449 0.8440592 0.08163256
vn 0.3652783 0.1361036 -0.920895
v 0 0.912608 0.6387441
vn 0 0.4023172 0.9155003
v 0.164477 1.039273 0.412661
vn 0.3861913 0.8795384 0.2779718
v 0.166986 0.9352342 0.5840394
vn 0.5597454 0.4691699 0.6830554
v 0 0.6925557 0.08580255
vn 0 -0.4399779 -0.8980087
v 0 0.5551012 0.2256815
vn 0 -0.8881928 -0.4594709
v -0.111449 0.7627017 0.6321073
vn -0.4500891 -0.03342497 0.8923579
v 0.291776 0.9004083 0.3921371
vn 0.9126809 0.1990234 0.356936
v 0.111449 0.7627017 0.6321073
vn 0.4500891 -0.03342497 0.8923579
v 0.266129 0.8249905 0.2106514
vn 0.8356935 -0.01695149 -0.5489346
v 0.21879 1.100752 0.2772568
vn -0.3652841 0.9296258 -0.04861394
v 0.270699 0.9003652 0.2556728
vn 0.6202137 -0.3979966 -0.6759687
v 0.285771 0.9926033 0.1415896
vn -0.1256834 -0.06090393 -0.9901991
v 0.180328 0.6654729 0.1706597
vn 0.5626735 -0.5274398 -0.6365578
v 0 0.758032 0.6637047
vn 0 0.031838 0.9994931
v 0.3231 1.071818 0.2095272
vn 0.4005842 0.8422911 -0.3606632
v 0.327234 0.9010063 0.2827236
vn 0.841703 -0.53772 0.04892141
v 0.364289 0.9892008 0.2197297
vn 0.9689404 -0.142721 -0.2019539
v 0 0.5217135 0.4515886
vt 0.568812 0.00418481
vn 0 -0.9819263 0.189264
vt 1.17214 0.0933537
v 0.164477 0.5614321 0.342038
vt 0.861387 0.110262
vn 0.5079293 -0.8578089 -0.07856034
v -0.164477 0.5614321 0.342038
vn -0.5079293 -0.8578089 -0.07856044
v 0.166986 0.631317 0.560441
vt 0.278102 0.296901
vn 0.5990026 -0.6277992 0.4970554
v -0.166986 0.631317 0.560441
vn -0.5990026 -0.6277992 0.4970554
v 0 0.6092229 0.6496437
vt 0.0398711 0.237896
vn 0 -0.6918486 0.7220426
v 0.291776 0.7002988 0.3625619
vt 0.806575 0.481131
vn 0.9261512 -0.3765488 0.02133409
v -0.291776 0.7002988 0.3625619
vn -0.9261512 -0.3765488 0.02133409
vt 0.0867055 0.647789
vt 0.00231877 0.635317
v 0.0439608 1.043984 0.6671082
vt 0.0557453 0.934939
vn 0.949664 0.1882742 0.2503821
v 0 1.008839 0.6935319
vn 0 -0.57078 0.821103
v 0.0787688 0.9273931 0.5120572
vn 0.9842727 0.1061696 0.1411924
v -0.0439608 1.043984 0.6671082
vn -0.949664 0.1882742 0.2503821
v 0 0.990358 0.4647115
vn 0 0.89284 -0.450374
v 0 1.079129 0.6406834
vn 0 0.947281 -0.320404
v 0 0.8644281 0.5594038
vn 0 -0.6805291 0.7327211
v -0.0787688 0.9273931 0.5120572
vn -0.9842727 0.1061696 0.1411924
vt 0.0632802 0.944755
vt 0.617093 0.542371
vt 0.159397 0.264511
vt 0.104584 0.63538
vt 0.510288 0.968392
vt 0.0605127 0.927558
vt 0.472893 0.607049
vt 0.985403 0.51404
vt 0.878597 0.940061
vt 0.0570771 0.924991
o merged_0_0_node
g polygon_0
usemtl face_mat_id
f 1/1/1 2/1/2 3/1/3
f 1/1/1 4/1/4 2/1/2
f 1/1/1 3/1/3 5/1/5
f 1/1/1 6/1/6 4/1/4
f 1/1/1 5/1/5 7/1/7
f 1/1/1 8/1/8 6/1/6
f 1/1/1 7/1/7 9/1/9
f 1/1/1 9/1/9 8/1/8
f 2/1/2 10/1/10 3/1/3
f 2/1/2 4/1/4 11/1/11
f 2/1/2 12/1/12 10/1/10
f 2/1/2 11/1/11 12/1/12
f 5/1/5 13/1/13 7/1/7
f 5/1/5 14/1/14 13/1/13
f 5/1/5 15/1/15 14/1/14
f 6/1/6 8/1/8 16/1/16
f 9/1/9 7/1/7 17/1/17
f 9/1/9 18/1/18 8/1/8
f 9/1/9 17/1/17 18/1/18
f 13/1/13 14/1/14 19/1/19
f 13/1/13 20/1/20 7/1/7
f 13/1/13 19/1/19 21/1/21
f 13/1/13 21/1/21 20/1/20
f 7/1/7 20/1/20 17/1/17
f 16/1/16 8/1/8 22/1/22
f 16/1/16 22/1/22 23/1/23
f 8/1/8 18/1/18 22/1/22
f 14/1/14 24/1/24 19/1/19
f 21/1/21 25/1/25 20/1/20
f 21/1/21 19/1/19 26/1/26
f 17/1/17 27/1/27 18/1/18
f 17/1/17 20/1/20 28/1/28
f 17/1/17 29/1/29 27/1/27
f 17/1/17 28/1/28 30/1/30
f 17/1/17 30/1/30 29/1/29
f 23/1/23 22/1/22 31/1/31
f 31/1/31 18/1/18 27/1/27
f 31/1/31 22/1/22 18/1/18
f 24/1/24 32/1/32 19/1/19
f 19/1/19 32/1/32 26/1/26
f 28/1/28 33/1/33 30/1/30
f 29/1/29 30/1/30 34/1/34
f 33/1/33 35/1/35 30/1/30
f 30/1/30 35/1/35 34/1/34
f 36/2/36 23/3/23 37/4/37
f 36/2/36 38/4/38 23/3/23
f 36/2/36 37/4/37 39/5/39
f 36/2/36 40/5/40 38/4/38
f 36/2/36 39/5/39 41/6/41
f 36/2/36 41/6/41 40/5/40
f 37/4/37 42/7/42 39/5/39
f 38/4/38 40/5/40 43/7/43
f 41/6/41 39/5/39 26/8/26
f 41/6/41 24/8/24 40/5/40
f 41/6/41 26/8/26 32/9/32
f 41/6/41 32/9/32 24/8/24
f 44/10/44 45/10/45 46/10/46
f 44/10/44 47/10/47 45/10/45
f 44/10/44 46/10/46 48/10/48
f 44/10/44 49/10/49 47/10/47
f 44/10/44 48/10/48 49/10/49
f 45/10/45 50/10/50 46/10/46
f 45/10/45 47/10/47 50/10/50
f 48/10/48 51/10/51 49/10/49
f 51/10/51 47/10/47 49/10/49
f 51/10/51 50/10/50 47/10/47
f 15/11/15 11/11/11 4/11/4
f 15/11/15 4/11/4 6/11/6
f 15/11/15 6/11/6 43/11/43
f 29/11/29 34/11/34 25/11/25
f 29/11/29 25/11/25 27/11/27
f 16/12/16 38/13/38 43/14/43
f 16/12/16 43/14/43 6/15/6
f 31/16/31 37/16/37 23/16/23
f 31/16/31 42/16/42 37/16/37
f 23/16/23 38/16/38 16/16/16
f 42/17/42 31/18/31 27/19/27
f 42/20/42 27/20/27 25/20/25
v 0.0926658 0.171752 -0.330662
vt 0.857484 0.664837
vn 0.7321879 -0.110156 -0.6721359
v 0 0.152768 -0.508843
vt 0.868455 0.136778
vn 0 0.02017379 -0.9997965
v 0 0.220578 -0.376826
vt 0.861564 0.839999
vn 0 0.7944503 -0.6073292
v 0.0463329 0.06385589 -0.361667
vt 0.857352 0.0725591
vn 0.2915902 -0.8240655 -0.4856863
v 0.0813304 0.252341 -0.335381
vt 0.857623 1.31233
vn 0.545136 0.143044 -0.826054
v 0.139642 0 -0.20034
vt 0.84817 0.0390004
vn 0.331747 -0.920307 -0.207314
v 0.279283 0.163906 -0.16895
vt 0.845393 0.857085
vn 0.7577516 -0.6033577 -0.2485399
v -0.0926658 0.171752 -0.330662
vn -0.7321879 -0.110156 -0.6721359
v -0.0463329 0.06385589 -0.361667
vn -0.29159 -0.8240659 -0.4856859
v -0.0813304 0.252341 -0.335381
vn -0.545136 0.143044 -0.826054
v -0.139642 0 -0.20034
vn -0.331747 -0.920307 -0.207314
v -0.279283 0.163906 -0.16895
vn -0.7577516 -0.6033577 -0.2485399
v 0 0.5350764 0.3476164
vt 0.659562 -0.0843549
vn 0 0.520831 0.8536597
v -0.0814633 0.5195963 0.2722561
vt 0.673103 0.411623
vn -0.8705739 0.4877112 0.06510583
v -0.0671865 0.3492586 0.4019121
vt 0.683069 -0.310139
vn -0.2735555 0.03798176 0.961106
v 0 0.6314743 0.2750522
vt 0.651959 0.3341
vn 0 0.9919615 -0.1265401
v 0.0814633 0.5195963 0.2722561
vn 0.8705792 0.4877143 0.06501213
v 0.0671865 0.3492586 0.4019121
vn 0.2735555 0.03798186 0.961106
v -0.133009 0.3447121 0.2788621
vt 0.691863 0.52023
vn -0.8404006 0.4496846 0.3025071
v -0.13174 0.1713248 0.3746957
vt 0.70683 -0.276192
vn -0.2731241 -0.3498389 0.8961115
v 0.133009 0.3447121 0.2788621
vn 0.8404274 0.4497125 0.3023911
v 0.13174 0.1713248 0.3746957
vn 0.2731241 -0.3498389 0.8961115
v 0.304534 -0.00299621 0.15522
vt 0.661005 0.0130865
vn -0.0534032 -0.997391 0.0485737
v 0.218058 0.0280796 0.250211
vt 0.671764 0.0883889
vn -0.176798 -0.971657 0.156924
v 0.224019 0.0176774 0
vt 0.643425 0.057903
vn -0.09722344 -0.9919053 -0.08167913
v 0.489377 0.007236336 0.1581278
vt 0.661335 0.11521
vn 0.05539716 -0.9984633 -0.001522969
v -0.304534 -0.00299621 0.15522
vn 0.0534033 -0.997391 0.0485737
v -0.224019 0.0176774 0
vn 0.09722353 -0.9919053 -0.08167902
v -0.218058 0.0280796 0.250211
vn 0.176798 -0.971657 0.156924
v -0.489377 0.007236316 0.1581278
vt 0.661335 0.0273603
vn -0.05539706 -0.9984633 -0.001522959
v 0.314675 0.122742 0.158274
vt 0.661351 0.958178
vn 0.119875 0.9926782 -0.0148316
vn -0.08802544 0.8524033 -0.5154222
vn -0.354814 0.8120819 0.4632819
vn 0.5461133 0.8263685 -0.1373881
v -0.314675 0.122742 0.158274
vn -0.119875 0.9926782 -0.0148315
vn 0.354814 0.8120819 0.4632819
vn 0.08802515 0.8524034 -0.5154222
vn -0.5461133 0.8263685 -0.1373881
v 0.150357 0.0899226 -0.313049
vt 0.669868 0.931946
vn -0.2031079 0.9522665 0.2278939
v 0.187162 0 -0.229816
vt 0.654182 0.0680535
vn 0.5300021 -0.790643 0.306564
v 0.301212 0.09066699 -0.471115
vt 0.695481 0.0680535
vn -0.0281941 0.9993559 -0.0222015
v 0.0938533 0 -0.360792
vt 0.678865 0.0680535
vn -0.2089 -0.859372 -0.466734
vn 0.295467 -0.9318751 -0.210495
v -0.150357 0.0899226 -0.313049
vn 0.2031079 0.9522665 0.2278939
v -0.301212 0.09066699 -0.471115
vn 0.028194 0.9993559 -0.0222015
v -0.187162 0 -0.229816
vn -0.5300021 -0.790643 0.306564
v -0.0938533 0 -0.360792
vn 0.2089 -0.859372 -0.466734
vn -0.295467 -0.9318751 -0.210495
v -0.15068 0 0.250211
vt 0.201635 0.664915
vn -0.2167409 -0.8946187 0.3907439
v -0.156641 0 0
vn -0.2818331 -0.9593473 -0.0149307
v 0.15068 0 0.250211
vn 0.2167409 -0.8946187 0.3907439
v 0.156641 0 0
vn 0.2818331 -0.9593473 -0.0149307
vt 0.713816 0.0393865
v -0.30136 0.179155 0.160354
vt 0.562697 0.773292
vn -0.8973657 -0.3072579 0.3167449
v -0.313281 0.1755 0
vt 0.713816 0.914925
vn -0.7530784 -0.6571503 -0.03203682
vt 0.67498 -0.122174
v 0.30136 0.179155 0.160354
vn 0.8973714 -0.3072701 0.3167171
v 0.313281 0.1755 0
vn 0.7530784 -0.6571503 -0.03203682
vt 1.10117 0.0393865
vt 0.890457 0.857085
vt 0.851307 0.0393865
vt 1.10117 0.914925
vt 0.249726 0.411393
vt 0.667711 0.857085
vt 0.878427 0.0393865
vt 0.628561 0.0390004
vt 0.878427 0.914925
v -0.0694482 0.418559 0.154368
vt 0.449621 0.578382
vn -0.7412698 0.5877178 -0.3242019
vt 0.596506 0.0749149
v 0 0.5041162 0.1968957
vt 0.502609 0.152065
vn 0.0001822221 0.6088269 -0.7933031
vt 0.604741 0.94649
v 0.0694482 0.418479 0.154368
vt 0.449621 0.578782
vn 0.741282 0.58765 -0.324297
vt 0.17713 0.580473
vt 0.289699 1.39512
vt 0.4289 0.617264
vt 0.323348 -0.224521
vt -0.0243792 0.624474
vt 0.114822 1.40233
vt 0.227391 0.587683
vt 0.0811724 -0.217311
vt 0.454248 0.896189
vt 0.416667 0
vt 0.5 0.2
vt 0.333333 0.2
vt 0.478504 0.856439
o merged_1_0_node
g polygon_0
usemtl body1_mat_id
f 52/21/52 53/22/53 54/23/54
f 52/21/52 55/24/55 53/22/53
f 52/21/52 54/23/54 56/25/56
f 52/21/52 57/26/57 55/24/55
f 52/21/52 56/25/56 58/27/58
f 52/21/52 58/27/58 57/26/57
f 53/22/53 59/21/59 54/23/54
f 53/22/53 55/24/55 60/24/60
f 53/22/53 60/24/60 59/21/59
f 56/25/56 54/23/54 61/25/61
f 54/23/54 59/21/59 61/25/61
f 57/26/57 62/26/62 55/24/55
f 60/24/60 62/26/62 59/21/59
f 60/24/60 55/24/55 62/26/62
f 61/25/61 59/21/59 63/27/63
f 63/27/63 59/21/59 62/26/62
f 64/28/64 65/29/65 66/30/66
f 64/28/64 67/31/67 65/29/65
f 64/28/64 68/29/68 67/31/67
f 64/28/64 69/30/69 68/29/68
f 66/30/66 65/29/65 70/32/70
f 66/30/66 70/32/70 71/33/71
f 69/30/69 72/32/72 68/29/68
f 69/30/69 73/33/73 72/32/72
f 74/34/74 75/35/75 76/36/76
f 74/34/74 77/37/77 75/35/75
f 74/34/74 76/36/76 77/37/77
f 78/34/78 79/36/79 80/35/80
f 78/34/78 81/38/81 79/36/79
f 78/34/78 80/35/80 81/38/81
f 82/39/82 76/36/83 75/35/84
f 82/39/82 77/37/85 76/36/83
f 82/39/82 75/35/84 77/37/85
f 83/39/86 80/35/87 79/36/88
f 83/39/86 81/38/89 80/35/87
f 83/39/86 79/36/88 81/38/89
f 84/40/90 85/41/91 86/42/92
f 84/40/90 87/43/93 85/41/91
f 84/40/90 86/42/92 87/43/93
f 85/41/91 87/43/93 86/42/94
f 88/40/95 89/42/96 90/41/97
f 88/40/95 91/43/98 89/42/96
f 88/40/95 90/41/97 91/43/98
f 90/41/97 89/42/99 91/43/98
f 92/44/100 93/44/101 94/44/102
f 92/44/100 94/44/102 73/44/73
f 92/44/100 73/44/73 71/44/71
f 93/44/101 95/44/103 94/44/102
f 73/44/73 69/44/69 71/44/71
f 69/44/69 66/44/66 71/44/71
f 69/44/69 64/44/64 66/44/66
f 93/45/101 96/46/104 97/47/105
f 93/45/101 92/48/100 96/46/104
f 98/46/106 95/45/103 99/47/107
f 98/46/106 94/48/102 95/45/103
f 93/49/101 63/50/63 62/51/62
f 93/49/101 97/52/105 63/50/63
f 62/53/62 95/53/103 93/53/101
f 62/53/62 57/53/57 95/53/103
f 58/54/58 95/55/103 57/56/57
f 58/54/58 99/57/107 95/55/103
f 100/58/108 65/59/65 101/60/109
f 100/58/108 70/61/70 65/59/65
f 101/60/109 68/59/68 102/62/110
f 68/59/68 72/61/72 102/62/110
f 71/63/71 70/64/70 96/65/104
f 71/63/71 96/65/104 92/66/100
f 98/67/106 72/68/72 73/69/73
f 98/67/106 73/69/73 94/70/102
f 67/71/67 101/71/109 65/71/65
f 67/71/67 68/71/68 101/71/109
f 101/72/109 102/73/110 100/74/108
f 100/75/108 96/75/104 70/75/70
f 98/75/106 102/75/110 72/75/72
vt 0.174831 0
vn -0.8685592 0.4395271 0.2289561
vt 0.0120761 0
vn -0.2459829 0.4880408 0.8374417
v -0.164541 0.488395 0.0857377
vt 0.079107 0.849021
vn -0.6536322 0.7329202 0.1886611
vn 0.180357 0.553146 0.813327
vn 0.868526 0.439538 0.229061
v 0.164541 0.488395 0.0857377
vn 0.6420881 0.738839 0.204548
v -0.164541 0.42167 -0.261814
vt 0.8516 0.696352
vn -0.6231158 0.5980228 -0.5040788
v 0 0.515505 -0.102155
vt 0.529534 1
vn 0 0.9817951 -0.189943
v 0.164541 0.42167 -0.261814
vn 0.5998939 0.5965369 -0.5331709
vt 0.664274 0
vn 0.8846136 0.2525519 -0.3920158
vt 1 0
vn 0.287314 0.259402 -0.9220419
vn -0.3793429 0.2055309 -0.9021397
vn -0.8846136 0.2525519 -0.3920158
vt 0.323467 0
vn 0.9056375 0.4194352 -0.06240863
vn -0.9056375 0.4194352 -0.06240863
v 0 0.472451 0.0799681
vt 0 0.155132
vn 0 0.5574738 0.8301946
v 0.0585991 0.4814 0.0220563
vn 0.7353238 0.6697668 0.103495
v 0 0.544234 0.0317659
vt 0 0.965526
vn 0 0.9882708 0.152712
v 0 0.490349 -0.0358555
vn 0 0.7820601 -0.623203
v -0.0585991 0.4814 0.0220563
vn -0.7353238 0.6697668 0.103495
v 0.107929 0.46892 -0.10964
vt 0 0.150207
vn 0.1609361 0.8037594 0.5727743
v 0.163356 0.437372 -0.148954
vt 0.38763 0.150207
vn 0.9302721 0.365869 0.0270863
v 0.136527 0.507255 -0.17147
vt 0.609634 0.965526
vn 0.378085 0.905334 -0.193448
v 0.12166 0.441514 -0.211062
vt 1 0.150207
vn 0.351533 0.423359 -0.8349801
v 0.0662331 0.473062 -0.171748
vt 0.61237 0.150207
vn -0.4178032 0.8612494 -0.2892922
v -0.178534 0.363164 -0.136748
vt 0 0.15267
vn -0.663313 0.341301 0.66598
v -0.141183 0.409806 -0.181943
vt 0.432148 0.15267
vn -0.144881 0.988693 0.0386734
v -0.21765 0.399077 -0.194113
vt 0.548514 0.977838
vn -0.8175001 0.5691241 -0.08826852
v -0.162788 0.369563 -0.24133
vt 1 0.15267
vn -0.4447528 0.4301088 -0.7856216
v -0.200138 0.322921 -0.196135
vt 0.567852 0.15267
vn -0.9631846 -0.2172829 -0.1583149
v -0.221367 0.306703 0.0878718
vt 0 0.137895
vn -0.611852 0.277698 0.740622
v -0.191924 0.356962 0.0407534
vt 0.447222 0.137895
vn -0.2031719 0.9753047 0.08661338
v -0.268392 0.341456 0.0359929
vt 0.492407 0.955677
vn -0.8570106 0.5151108 0.01391749
v -0.216894 0.316991 -0.017486
vt 1 0.137895
vn -0.5497687 0.4204998 -0.7217577
v -0.246338 0.266732 0.0296323
vt 0.552778 0.137895
vn -0.9584476 -0.2771069 -0.06774908
v -0.100251 0.481846 -0.0685329
vn -0.3784929 0.7103668 0.5933988
v -0.0482326 0.49498 -0.111071
vt 0.449338 0.15267
vn 0.4115641 0.9098572 -0.05267791
v -0.112273 0.523107 -0.125596
vt 0.60277 1
vn -0.380262 0.906144 -0.185213
v -0.0843457 0.46917 -0.163202
vn -0.136927 0.51785 -0.8444421
v -0.136364 0.456036 -0.120663
vt 0.550662 0.15267
vn -0.9269834 0.3183601 -0.1983651
v 0.194638 0.375219 0.0595124
vn 0.3919781 0.7123502 0.5821601
v 0.232329 0.312306 0.0442014
vt 0.172883 0.137895
vn 0.9151399 -0.160885 0.369642
v 0.256935 0.379378 0.0124776
vt 0.531093 0.958139
vn 0.8516628 0.5218959 -0.04790699
v 0.221325 0.32354 -0.0290499
vn 0.7623931 -0.004954991 -0.6470951
v 0.183633 0.386453 -0.0137389
vt 0.827117 0.137895
vn 0.2392321 0.8682803 -0.4345771
v 0.185636 0.337203 -0.206041
vt 0 0.147745
vn 0.9629641 0.269564 0.005953921
v 0.16299 0.274338 -0.239926
vt 0.344889 0.147745
vn 0.6486372 -0.6030152 -0.4643732
v 0.186966 0.334176 -0.284141
vt 0.794918 0.986658
vn 0.665128 0.154218 -0.730631
v 0.111833 0.313421 -0.278247
vt 0.734931 0.147745
vn -0.06142862 -0.06053152 -0.9962743
v 0.134479 0.376286 -0.244362
vt 0.390042 0.147745
vn 0.252898 0.812047 -0.525949
o merged_2_0_node
g polygon_0
usemtl koura_mat_id
f 96/76/111 100/77/112 103/78/113
f 103/78/113 100/77/112 102/77/114
f 98/76/115 104/78/116 102/77/114
f 102/77/114 104/78/116 103/78/113
f 105/79/117 106/80/118 107/79/119
f 58/81/120 56/82/121 107/79/119
f 107/79/119 56/82/121 105/79/117
f 56/82/121 61/82/122 105/79/117
f 105/79/117 61/82/122 63/81/123
f 58/81/120 107/79/119 99/83/124
f 98/76/115 99/83/124 104/78/116
f 99/83/124 107/79/119 104/78/116
f 63/81/123 97/83/125 105/79/117
f 96/76/111 103/78/113 97/83/125
f 97/83/125 103/78/113 105/79/117
f 103/78/113 104/78/116 106/80/118
f 106/80/118 104/78/116 107/79/119
f 103/78/113 106/80/118 105/79/117
f 108/84/126 109/84/127 110/85/128
f 110/85/128 111/84/129 112/84/130
f 109/84/127 111/84/129 110/85/128
f 112/84/130 108/84/126 110/85/128
f 113/86/131 114/87/132 115/88/133
f 115/88/133 116/89/134 117/90/135
f 114/87/132 116/89/134 115/88/133
f 117/90/135 113/86/131 115/88/133
f 118/91/136 119/92/137 120/93/138
f 120/93/138 121/94/139 122/95/140
f 119/92/137 121/94/139 120/93/138
f 122/95/140 118/91/136 120/93/138
f 123/96/141 124/97/142 125/98/143
f 125/98/143 126/99/144 127/100/145
f 124/97/142 126/99/144 125/98/143
f 127/100/145 123/96/141 125/98/143
f 128/91/146 129/101/147 130/102/148
f 130/102/148 131/94/149 132/103/150
f 129/101/147 131/94/149 130/102/148
f 132/103/150 128/91/146 130/102/148
f 133/96/151 134/104/152 135/105/153
f 135/105/153 136/99/154 137/106/155
f 134/104/152 136/99/154 135/105/153
f 137/106/155 133/96/151 135/105/153
f 138/107/156 139/108/157 140/109/158
f 140/109/158 141/110/159 142/111/160
f 139/108/157 141/110/159 140/109/158
f 142/111/160 138/107/156 140/109/158
vt 1.03497 0.800506
vt 1.08561 0.396398
v -0.30824 1.026461 0.3095904
vt 0.629774 0.562163
vn -0.6737049 0.4755997 0.5656205
vt 0.745284 0.0378413
vt 0.264088 0.00547499
vt -0.104876 0.736684
vt 0.531619 1.0132
v 0.30824 1.026461 0.3095904
vn 0.6737049 0.4755997 0.5656205
o merged_3_0_node
g polygon_0
usemtl mimi_mat_id
f 10/112/10 12/113/12 143/114/161
f 11/115/11 15/116/15 143/114/161
f 143/114/161 15/116/15 5/117/5
f 143/114/161 12/113/12 11/115/11
f 3/118/3 10/112/10 143/114/161
f 5/117/5 3/118/3 143/114/161
f 33/112/33 144/114/162 35/113/35
f 34/115/34 144/114/162 25/116/25
f 25/116/25 144/114/162 20/117/20
f 144/114/162 34/115/34 35/113/35
f 28/118/28 144/114/162 33/112/33
f 20/117/20 144/114/162 28/118/28
vt 1.19425 0.774534
v 0.222877 0.7757165 0.5440477
vt 0.39622 0.854684
vn 0.82525 -0.06053779 0.5615135
vt 0.194705 0.692943
vt 0.114285 1.04007
v -0.222877 0.7757165 0.5440477
vn -0.82525 -0.06053779 0.5615135
vt -0.194251 0.84379
vt 1.09346 1.00211
o merged_4_0_node
g polygon_0
usemtl TEX_ANIM_EYE_mat_id
f 42/119/42 145/120/163 39/121/39
f 14/122/14 146/120/164 24/123/24
f 21/122/21 26/123/26 145/120/163
f 145/120/163 26/123/26 39/121/39
f 25/124/25 145/120/163 42/119/42
f 21/122/21 145/120/163 25/124/25
f 43/119/43 40/121/40 146/120/164
f 146/120/164 40/121/40 24/123/24
f 15/124/15 146/120/164 14/122/14
f 43/119/43 146/120/164 15/124/15
