ply
format ascii 1.0
element vertex 816
property float x
property float y
property float z
property uchar red
property uchar green
property uchar blue
element face 1044
property list uchar int vertex_index
end_header
0.1956 -0.97766 2.36113 255 255 255
0.1956 -0.97766 2.38112 255 255 255
0.22563 -0.97766 2.40129 255 255 255
0.22563 -0.97766 2.36113 255 255 255
0.22563 -0.96806 2.40129 255 255 255
0.22563 -0.96806 2.36113 255 255 255
0.1956 -0.96806 2.36113 255 255 255
0.1956 -0.96806 2.38112 255 255 255
0.34241 -0.97076 2.4778 255 255 255
0.34241 -0.97076 2.29249 255 255 255
0.24856 -0.97076 2.3279 255 255 255
0.24856 -0.97076 2.41621 255 255 255
0.24856 -0.97076 2.29249 255 255 255
0.24856 -0.97076 2.29249 88 115 65
0.21837 -0.97076 2.31576 88 115 65
0.21837 -0.97076 2.32788 88 115 65
0.24856 -0.97076 2.3279 88 115 65
0.14551 -0.97076 2.29249 88 115 65
0.17254 -0.97076 2.31576 88 115 65
0.17254 -0.97076 2.32785 88 115 65
0.14551 -0.97076 2.32783 88 115 65
0.06142 -0.97076 2.29249 255 255 255
0.14551 -0.97076 2.32783 255 255 255
0.14551 -0.97076 2.29249 255 255 255
0.14551 -0.97076 2.34792 255 255 255
0.14551 -0.97076 2.34792 34 48 29
0.17254 -0.97076 2.36606 34 48 29
0.17254 -0.97076 2.32785 34 48 29
0.14551 -0.97076 2.32783 34 48 29
0.17254 -0.97076 2.36606 29 38 22
0.21837 -0.97076 2.39671 29 38 22
0.21837 -0.97076 2.32788 29 38 22
0.17254 -0.97076 2.32785 29 38 22
0.17254 -0.97076 2.31576 29 38 22
0.21837 -0.97076 2.31576 29 38 22
0.21837 -0.97076 2.39671 34 48 29
0.24856 -0.97076 2.41621 34 48 29
0.24856 -0.97076 2.3279 34 48 29
0.21837 -0.97076 2.32788 34 48 29
0.61184 0.21217 1.07085 203 166 188
0.61184 0.21217 1.69999 203 166 188
0.61184 0.70559 1.69999 203 166 188
0.61184 0.70559 1.07085 203 166 188
0.55878 0.16537 1.69999 203 166 188
0.55878 0.16537 1.07085 203 166 188
0.57573 0.23997 1.75181 203 166 188
0.52541 0.19558 1.75181 203 166 188
0.57573 0.67779 1.75181 203 166 188
0.52541 0.72218 1.75181 203 166 188
0.55878 0.75239 1.69999 203 166 188
0.55878 0.75239 1.07085 203 166 188
0.23783 0.75239 1.69999 203 166 188
0.2712 0.72218 1.75181 203 166 188
0.56279 0.66209 1.0246 203 166 188
0.51602 0.70334 1.0246 203 166 188
0.56279 0.25567 1.0246 203 166 188
0.51602 0.21442 1.0246 203 166 188
0.23783 0.16537 1.07085 203 166 188
0.28059 0.21442 1.0246 203 166 188
0.18477 0.70559 1.69999 203 166 188
0.23783 0.75239 1.07085 203 166 188
0.18477 0.70559 1.07085 203 166 188
0.22087 0.67779 1.75181 203 166 188
0.18477 0.21217 1.69999 203 166 188
0.22087 0.23997 1.75181 203 166 188
0.23783 0.16537 1.69999 203 166 188
0.18477 0.21217 1.07085 203 166 188
0.2712 0.19558 1.75181 203 166 188
0.23382 0.66209 1.0246 203 166 188
0.28059 0.70334 1.0246 203 166 188
0.23382 0.37307 1.0246 203 166 188
0.23382 0.25567 1.0246 203 166 188
0.23382 0.37307 0.86706 203 166 188
0.23382 0.40728 0.83548 203 166 188
0.23382 0.8912 0.83548 203 166 188
0.23382 0.8912 1.0246 203 166 188
0.23382 1.03483 1.0246 203 166 188
0.26686 0.8912 1.21367 203 166 188
0.26686 1.03483 1.21367 203 166 188
0.46471 1.03483 1.0246 203 166 188
0.43167 1.03483 1.21367 203 166 188
0.46471 0.8912 1.0246 203 166 188
0.43167 0.8912 1.21367 203 166 188
0.37351 1.03483 0.68459 203 166 188
0.46437 1.03483 0.42435 203 166 188
0.3736 1.03483 0.42435 203 166 188
0.37351 0.8912 0.68459 203 166 188
0.32495 0.89132 0.68473 203 166 188
0.32495 1.03483 0.68473 203 166 188
0.3736 0.89144 0.42435 203 166 188
0.46437 0.89144 0.42435 203 166 188
0.46471 0.8912 0.83548 203 166 188
0.46471 0.70334 1.0246 203 166 188
0.46471 0.40728 0.83548 203 166 188
0.46471 0.66209 1.0246 203 166 188
0.46471 0.37307 1.0246 203 166 188
0.46471 0.37307 0.86706 203 166 188
0.32493 0.89144 0.42435 203 166 188
0.23415 0.89144 0.42435 203 166 188
0.32493 1.03483 0.42435 203 166 188
0.38135 0.89144 0.41188 203 166 188
0.45399 0.89144 0.41188 203 166 188
0.38135 1.03483 0.41188 203 166 188
0.45399 1.03483 0.41188 203 166 188
0.24453 0.89144 0.41188 203 166 188
0.31717 0.89144 0.41188 203 166 188
0.31717 1.03483 0.41188 203 166 188
0.24453 1.03483 0.41188 203 166 188
0.23415 1.03483 0.42435 203 166 188
0.23382 0.66209 1.0246 211 173 196
0.23382 0.8912 1.0246 211 173 196
0.28059 0.70334 1.0246 211 173 196
0.46471 0.8912 1.0246 211 173 196
0.46471 0.70334 1.0246 211 173 196
0.28181 1.03483 1.23184 211 173 196
0.41671 1.03483 1.23184 211 173 196
0.41671 0.8912 1.23184 211 173 196
0.28181 0.8912 1.23184 211 173 196
0.28181 1.03483 1.23184 203 166 188
0.28181 0.8912 1.23184 203 166 188
0.41671 0.8912 1.23184 203 166 188
0.41671 1.03483 1.23184 203 166 188
1.33501 1.00145 2.12906 211 173 196
1.9234 1.00145 2.12906 211 173 196
1.9234 0.30287 2.12906 211 173 196
1.04761 0.72568 2.12906 211 173 196
1.04761 1.14829 2.12906 211 173 196
0.36083 0.30287 2.12906 211 173 196
0.36083 0.72568 2.12906 211 173 196
1.33501 1.14829 2.12906 211 173 196
1.31228 1.17634 2.12906 211 173 196
1.07034 1.17634 2.12906 211 173 196
1.07034 1.17634 2.06416 102 101 169
1.31228 1.17634 2.06416 102 101 169
1.31228 1.17634 2.12906 102 101 169
1.07034 1.17634 2.12906 102 101 169
1.04761 1.14829 2.06416 102 101 169
1.04761 1.14829 2.12906 102 101 169
1.33501 1.14829 2.06416 102 101 169
1.33501 1.00145 2.06416 102 101 169
1.33501 1.14829 2.12906 102 101 169
1.33501 1.00145 2.12906 102 101 169
1.04761 0.72568 2.06416 102 101 169
1.9234 0.30287 2.06416 102 101 169
1.9234 1.00145 2.06416 102 101 169
0.36083 0.30287 2.06416 102 101 169
0.36083 0.72568 2.06416 102 101 169
0.36083 0.72568 2.12906 102 101 169
1.04761 0.72568 2.12906 102 101 169
1.9234 1.00145 2.12906 102 101 169
0.36083 0.17242 2.16641 211 173 196
0.36083 0.31659 2.16641 211 173 196
1.91024 0.31659 2.16641 211 173 196
1.8124 0.17242 2.16641 211 173 196
1.92561 0.17242 2.16641 211 173 196
1.92561 0.07451 2.16641 211 173 196
2.01917 0.07451 2.16641 211 173 196
1.81279 0.07469 2.16657 211 173 196
2.16932 0.17242 2.16641 211 173 196
1.91024 1.16701 2.16641 211 173 196
2.16932 1.16701 2.16641 211 173 196
1.92561 -0.069 2.16641 211 173 196
2.01917 -0.069 2.16641 211 173 196
2.07438 0.07451 2.16641 211 173 196
2.07438 -0.069 2.16641 211 173 196
2.16932 -0.069 2.16641 211 173 196
2.14874 1.19602 2.16641 211 173 196
1.93082 1.19602 2.16641 211 173 196
0.36083 0.31659 2.16641 203 166 188
0.36083 0.31659 2.02581 203 166 188
1.91024 0.31659 2.02581 203 166 188
1.91024 0.31659 2.16641 203 166 188
1.91024 1.16701 2.16641 203 166 188
1.91024 1.16701 2.02581 203 166 188
2.16932 0.17242 2.02581 203 166 188
2.16932 1.16701 2.02581 203 166 188
2.16932 1.16701 2.16641 203 166 188
2.16932 0.17242 2.16641 203 166 188
1.92561 0.17242 2.02581 203 166 188
1.8124 0.17242 2.02581 203 166 188
1.81279 0.07469 2.02565 203 166 188
1.8124 0.17242 2.16641 203 166 188
1.81279 0.07469 2.16657 203 166 188
1.92561 0.07451 2.02581 203 166 188
1.92561 0.07451 2.16641 203 166 188
0.36083 0.17242 2.02581 203 166 188
2.01917 0.07451 2.02581 203 166 188
2.01917 -0.069 2.02581 203 166 188
1.92561 -0.069 2.02581 203 166 188
2.07438 0.07451 2.02581 203 166 188
0.36083 0.17242 2.16641 203 166 188
2.07438 0.07451 2.16641 203 166 188
2.07438 -0.069 2.02581 203 166 188
2.07438 -0.069 2.16641 203 166 188
2.16932 -0.069 2.02581 203 166 188
2.16932 -0.069 2.16641 203 166 188
1.93082 1.19602 2.02581 203 166 188
2.14874 1.19602 2.02581 203 166 188
2.14874 1.19602 2.16641 203 166 188
1.93082 1.19602 2.16641 203 166 188
1.92561 -0.069 2.16641 203 166 188
2.01917 -0.069 2.16641 203 166 188
2.01917 0.07451 2.16641 203 166 188
0.21722 -1.39978 1.91556 185 133 127
0.21722 -1.39978 2.00622 185 133 127
0.21722 -0.6766 2.00622 185 133 127
0.21722 -0.6766 1.91556 185 133 127
-0.21722 -1.39978 1.91556 185 133 127
-0.21722 -1.39978 2.00622 185 133 127
-0.21722 -0.6766 2.00622 185 133 127
-0.21722 -0.6766 1.91556 185 133 127
0.28769 -1.37227 1.9267 255 255 255
0.28769 -1.37227 2.00612 255 255 255
0.34395 -1.37227 2.00612 255 255 255
0.34395 -1.37227 1.9267 255 255 255
0.34395 -0.98349 2.00612 255 255 255
0.28769 -0.98349 2.00612 255 255 255
0.34395 -0.98349 1.9267 255 255 255
0.28769 -0.98349 1.9267 255 255 255
0.30468 -0.94423 2.54007 211 173 196
-0.30468 -0.94423 2.54007 211 173 196
-0.35035 -0.89752 2.54007 211 173 196
0.35035 -0.89752 2.54007 211 173 196
0.35035 -0.29024 2.54007 211 173 196
-0.35035 -0.29024 2.54007 211 173 196
0.30468 -0.24352 2.54007 211 173 196
-0.30468 -0.24352 2.54007 211 173 196
0.38928 -0.93125 2.26429 203 166 188
0.38928 -0.93125 2.49936 203 166 188
0.38928 -0.2565 2.49936 203 166 188
0.33854 -0.98316 2.301 203 166 188
0.33854 -0.98316 2.46308 203 166 188
0.33854 -0.98316 2.49936 203 166 188
0.35035 -0.89752 2.54007 203 166 188
0.30468 -0.94423 2.54007 203 166 188
0.35035 -0.29024 2.54007 203 166 188
0.30468 -0.24352 2.54007 203 166 188
0.33854 -0.20459 2.49936 203 166 188
0.33854 -0.20459 1.81024 203 166 188
0.38928 -0.2565 1.81024 203 166 188
-0.33854 -0.20459 2.49936 203 166 188
-0.30468 -0.24352 2.54007 203 166 188
0.35035 -0.29024 1.75715 203 166 188
0.30468 -0.24352 1.75715 203 166 188
0.16927 -0.20459 2.1548 203 166 188
0.16927 -0.20459 1.81024 203 166 188
-0.30468 -0.24352 1.75715 203 166 188
-0.35035 -0.29024 1.75715 203 166 188
0.33875 -1.39283 1.75715 203 166 188
0.38928 -0.68408 1.93044 203 166 188
0.38937 -1.44929 1.81024 203 166 188
0.38928 -0.68408 2.11117 203 166 188
0.38937 -1.53912 2.11117 203 166 188
0.38937 -1.53912 2.26429 203 166 188
0.33877 -1.50192 2.301 203 166 188
-0.16927 -0.20459 1.81024 203 166 188
0.38937 -1.44929 1.93044 203 166 188
-0.33854 -0.20459 1.81024 203 166 188
-0.38928 -0.2565 1.81024 203 166 188
-0.38928 -0.2565 2.49936 203 166 188
-0.35035 -0.29024 2.54007 203 166 188
-0.38928 -0.93125 2.49936 203 166 188
-0.35035 -0.89752 2.54007 203 166 188
-0.33854 -0.98316 2.49936 203 166 188
-0.33854 -0.98316 2.46308 203 166 188
-0.30468 -0.94423 2.54007 203 166 188
-0.16927 -0.20459 2.1548 203 166 188
-0.33854 -0.98316 2.301 203 166 188
-0.38928 -0.93125 2.26429 203 166 188
-0.09246 -0.98316 2.301 203 166 188
-0.33854 -0.96654 2.46308 203 166 188
-0.33854 -0.96654 2.301 203 166 188
0.09246 -0.98316 2.301 203 166 188
0.33854 -0.96654 2.46308 203 166 188
0.33854 -0.96654 2.301 203 166 188
0.16927 0.10274 2.1548 203 166 188
0.16927 0.10274 1.81024 203 166 188
-0.16927 0.10274 1.81024 203 166 188
-0.16927 0.10274 2.1548 203 166 188
0.3388 -1.58617 2.11117 203 166 188
0.3388 -1.58617 2.26429 203 166 188
0.29224 -1.55108 2.301 203 166 188
0.09021 -1.58617 2.26429 203 166 188
0.09021 -1.55097 2.301 203 166 188
0.09018 -1.58617 2.32386 203 166 188
0.09019 -1.55099 2.35965 203 166 188
0.09021 -1.40663 2.35965 203 166 188
0.09021 -1.40663 2.301 203 166 188
0.33629 -1.50261 2.11117 203 166 188
0.30192 -1.53913 2.11117 203 166 188
0.11734 -1.58617 2.11117 203 166 188
0.06202 -1.58617 2.32386 203 166 188
0.06203 -1.58617 2.27852 203 166 188
0.33625 -0.68408 2.11117 203 166 188
0.33625 -0.68408 1.93044 203 166 188
0.11734 -1.53914 2.11117 203 166 188
0.08285 -1.58617 2.06119 203 166 188
-0.11734 -1.58617 2.11117 203 166 188
-0.08285 -1.58617 2.06119 203 166 188
0.08285 -1.53914 2.06119 203 166 188
-0.08285 -1.53914 2.06119 203 166 188
-0.11734 -1.53914 2.11117 203 166 188
-0.3388 -1.58617 2.11117 203 166 188
-0.3388 -1.58617 2.26429 203 166 188
-0.38937 -1.53912 2.26429 203 166 188
-0.38937 -1.53912 2.11117 203 166 188
-0.29224 -1.55108 2.301 203 166 188
-0.09021 -1.58617 2.26429 203 166 188
-0.09021 -1.55097 2.301 203 166 188
-0.33877 -1.50192 2.301 203 166 188
-0.09018 -1.58617 2.32386 203 166 188
-0.09019 -1.55099 2.35965 203 166 188
-0.09021 -1.40663 2.35965 203 166 188
-0.09021 -1.40663 2.301 203 166 188
-0.33629 -1.50261 2.11117 203 166 188
-0.30192 -1.53913 2.11117 203 166 188
-0.38928 -0.68408 2.11117 203 166 188
-0.33625 -0.68408 2.11117 203 166 188
-0.38928 -0.68408 1.93044 203 166 188
-0.33625 -0.68408 1.93044 203 166 188
-0.06202 -1.58617 2.32386 203 166 188
-0.06203 -1.58617 2.27852 203 166 188
0 -1.58617 2.26429 203 166 188
-0.04603 -1.58617 2.27852 203 166 188
0 -1.58617 2.27852 203 166 188
0 -1.58617 2.32386 203 166 188
-0.04602 -1.58617 2.32386 203 166 188
0.04602 -1.58617 2.32386 203 166 188
0.04603 -1.58617 2.27852 203 166 188
0.2924 -1.4422 1.75715 203 166 188
0.3388 -1.49634 1.81024 203 166 188
0.3388 -1.49634 1.93044 203 166 188
-0.2924 -1.4422 1.75715 203 166 188
-0.33875 -1.39283 1.75715 203 166 188
-0.3388 -1.49634 1.81024 203 166 188
-0.38937 -1.44929 1.81024 203 166 188
-0.38937 -1.44929 1.93044 203 166 188
-0.3388 -1.49634 1.93044 203 166 188
0.09021 -1.40663 2.301 211 173 196
-0.09021 -1.40663 2.301 211 173 196
-0.09246 -0.98316 2.301 211 173 196
0.09246 -0.98316 2.301 211 173 196
-0.33854 -0.98316 2.301 211 173 196
-0.33854 -0.96654 2.301 211 173 196
-0.09246 -0.96654 2.301 211 173 196
-0.27247 -0.96654 2.301 211 173 196
-0.33877 -1.50192 2.301 211 173 196
-0.09021 -1.55097 2.301 211 173 196
-0.29224 -1.55108 2.301 211 173 196
0.33854 -0.96654 2.301 211 173 196
0.33854 -0.98316 2.301 211 173 196
0.33877 -1.50192 2.301 211 173 196
0.09021 -1.55097 2.301 211 173 196
0.29224 -1.55108 2.301 211 173 196
0.27247 -0.96654 2.301 211 173 196
0.09246 -0.96654 2.301 211 173 196
0.33625 -0.68408 2.11117 125 67 77
0.11734 -1.53914 2.11117 125 67 77
0.33629 -1.50261 2.11117 125 67 77
-0.11734 -1.53914 2.11117 125 67 77
-0.33625 -0.68408 2.11117 125 67 77
0.33625 -0.68408 1.93044 125 67 77
-0.33625 -0.68408 1.93044 125 67 77
-0.3363 -1.41277 1.93044 125 67 77
0.3363 -1.41277 1.93044 125 67 77
-0.29992 -1.44929 1.93044 125 67 77
0.29992 -1.44929 1.93044 125 67 77
-0.33629 -1.50261 2.11117 125 67 77
-0.30192 -1.53913 2.11117 125 67 77
0.30192 -1.53913 2.11117 125 67 77
0.12273 -0.96654 2.32107 203 166 188
0.09246 -0.96654 2.301 203 166 188
0.27247 -0.96654 2.41994 203 166 188
0.09019 -1.55099 2.35965 211 173 196
-0.09019 -1.55099 2.35965 211 173 196
-0.09021 -1.40663 2.35965 211 173 196
0.09021 -1.40663 2.35965 211 173 196
0 -1.58617 2.32386 211 173 196
0.06202 -1.58617 2.32386 211 173 196
0.09018 -1.58617 2.32386 211 173 196
0.04602 -1.58617 2.32386 211 173 196
-0.06202 -1.58617 2.32386 211 173 196
-0.09018 -1.58617 2.32386 211 173 196
-0.04602 -1.58617 2.32386 211 173 196
0.33625 -0.68408 1.93044 211 173 196
0.38928 -0.68408 1.93044 211 173 196
0.38937 -1.44929 1.93044 211 173 196
0.3363 -1.41277 1.93044 211 173 196
0.29992 -1.44929 1.93044 211 173 196
0.3388 -1.49634 1.93044 211 173 196
-0.3388 -1.49634 1.93044 211 173 196
-0.29992 -1.44929 1.93044 211 173 196
-0.38937 -1.44929 1.93044 211 173 196
-0.3363 -1.41277 1.93044 211 173 196
-0.33625 -0.68408 1.93044 211 173 196
-0.38928 -0.68408 1.93044 211 173 196
-0.28769 -1.37227 1.9267 255 255 255
-0.34395 -1.37227 1.9267 255 255 255
-0.34395 -1.37227 2.00612 255 255 255
-0.28769 -1.37227 2.00612 255 255 255
-0.34395 -0.98349 2.00612 255 255 255
-0.28769 -0.98349 2.00612 255 255 255
-0.34395 -0.98349 1.9267 255 255 255
-0.28769 -0.98349 1.9267 255 255 255
-0.12273 -0.96654 2.32107 203 166 188
-0.27247 -0.96654 2.41994 203 166 188
-0.09246 -0.96654 2.301 203 166 188
0.16927 0.10274 2.1548 211 173 196
0.16927 -0.20459 2.1548 211 173 196
-0.16927 -0.20459 2.1548 211 173 196
-0.16927 0.10274 2.1548 211 173 196
0.4139 0.09178 1.25804 203 166 188
0.4139 0.09178 2.19935 203 166 188
0.4139 0.82598 2.19935 203 166 188
0.4139 0.82598 1.25804 203 166 188
0.36083 0.04498 2.19935 203 166 188
0.36083 0.04498 1.25804 203 166 188
0.36561 0.13461 2.25117 203 166 188
0.31874 0.09327 2.25117 203 166 188
0.36561 0.78315 2.25117 203 166 188
0.31807 0.09403 1.21178 203 166 188
0.36485 0.13529 1.21178 203 166 188
0.36485 0.78247 1.21178 203 166 188
0.36083 0.87278 1.25804 203 166 188
0.36083 0.87278 2.19935 203 166 188
0.31874 0.82449 2.25117 203 166 188
-0.36083 0.87278 2.19935 203 166 188
-0.31874 0.82449 2.25117 203 166 188
0.31807 0.82373 1.21178 203 166 188
-0.36083 0.04498 1.25804 203 166 188
-0.31807 0.09403 1.21178 203 166 188
-0.4139 0.82598 2.19935 203 166 188
-0.36083 0.87278 1.25804 203 166 188
-0.4139 0.82598 1.25804 203 166 188
-0.36561 0.78315 2.25117 203 166 188
-0.36485 0.78247 1.21178 203 166 188
-0.31807 0.82373 1.21178 203 166 188
-0.36485 0.13529 1.21178 203 166 188
-0.4139 0.09178 1.25804 203 166 188
-0.36083 0.04498 2.19935 203 166 188
-0.4139 0.09178 2.19935 203 166 188
-0.36561 0.13461 2.25117 203 166 188
-0.31874 0.09327 2.25117 203 166 188
0.31874 0.09327 2.25117 211 173 196
0.09206 0.35043 2.25117 211 173 196
0.11784 0.37317 2.25117 211 173 196
0.36561 0.13461 2.25117 211 173 196
0.11784 0.56143 2.25117 211 173 196
0.36561 0.78315 2.25117 211 173 196
0.09206 0.58417 2.25117 211 173 196
0.31874 0.82449 2.25117 211 173 196
-0.31874 0.82449 2.25117 211 173 196
-0.09206 0.58417 2.25117 211 173 196
-0.31874 0.09327 2.25117 211 173 196
-0.09206 0.35043 2.25117 211 173 196
-0.11784 0.37317 2.25117 211 173 196
-0.36561 0.13461 2.25117 211 173 196
-0.11784 0.56143 2.25117 211 173 196
-0.36561 0.78315 2.25117 211 173 196
0.09206 0.35043 2.25117 203 166 188
0.09209 0.35087 2.50388 203 166 188
0.1177 0.37463 2.50388 203 166 188
0.11784 0.37317 2.25117 203 166 188
0.1177 0.56045 2.50388 203 166 188
0.11784 0.56143 2.25117 203 166 188
-0.09206 0.35043 2.25117 203 166 188
-0.09209 0.35087 2.50388 203 166 188
-0.1177 0.37463 2.50388 203 166 188
-0.11784 0.37317 2.25117 203 166 188
-0.1177 0.56045 2.50388 203 166 188
-0.11784 0.56143 2.25117 203 166 188
-0.08288 0.36253 2.52526 203 166 188
-0.10593 0.38392 2.52526 203 166 188
-0.10593 0.55116 2.52526 203 166 188
-0.09209 0.58421 2.50388 203 166 188
-0.09206 0.58417 2.25117 203 166 188
0.09209 0.58421 2.50388 203 166 188
0.09206 0.58417 2.25117 203 166 188
-0.08288 0.57254 2.52526 203 166 188
0.08288 0.57254 2.52526 203 166 188
0.10593 0.55116 2.52526 203 166 188
0.08288 0.36253 2.52526 203 166 188
0.10593 0.38392 2.52526 203 166 188
0.10593 0.38392 2.52526 211 173 196
0.08288 0.36253 2.52526 211 173 196
-0.08288 0.36253 2.52526 211 173 196
-0.10593 0.38392 2.52526 211 173 196
0.10593 0.55116 2.52526 211 173 196
-0.10593 0.55116 2.52526 211 173 196
-0.08288 0.57254 2.52526 211 173 196
0.08288 0.57254 2.52526 211 173 196
-0.19807 0.84704 1.68869 211 173 196
-0.14366 1.39789 1.68875 211 173 196
0.14366 1.39789 1.68875 211 173 196
0.19807 0.84704 1.68869 211 173 196
0.13495 1.42273 1.71624 211 173 196
-0.13495 1.42273 1.71624 211 173 196
-0.06334 1.51927 2.64505 211 173 196
-0.06334 1.69229 2.64477 211 173 196
0.06334 1.69229 2.64477 211 173 196
0.06334 1.51927 2.64505 211 173 196
0.08427 1.51923 2.62128 211 173 196
0.08427 1.69225 2.62101 211 173 196
-0.08427 1.69225 2.62101 211 173 196
-0.08427 1.51923 2.62128 211 173 196
-0.07857 1.69225 2.31008 203 166 188
-0.13495 1.69262 1.3365 203 166 188
0.13495 1.69262 1.3365 203 166 188
0.07857 1.69225 2.31008 203 166 188
-0.13495 1.42273 1.71624 203 166 188
-0.07857 1.51923 2.31035 203 166 188
0.14366 1.65304 1.29248 203 166 188
0.14366 1.39789 1.68875 203 166 188
0.19807 0.84704 1.29255 203 166 188
0.19807 0.84704 1.68869 203 166 188
0.13495 1.42273 1.71624 203 166 188
-0.14366 1.65304 1.29248 203 166 188
-0.14366 1.39789 1.68875 203 166 188
-0.19807 0.84704 1.29255 203 166 188
-0.19807 0.84704 1.68869 203 166 188
0.07857 1.51923 2.31035 203 166 188
-0.08427 1.69225 2.62101 203 166 188
0.08427 1.69225 2.62101 203 166 188
0.17411 1.69225 2.31008 203 166 188
0.17411 1.51923 2.31035 203 166 188
0.08427 1.51923 2.62128 203 166 188
-0.17411 1.69225 2.31008 203 166 188
-0.08427 1.51923 2.62128 203 166 188
-0.17411 1.51923 2.31035 203 166 188
-0.06334 1.69229 2.64477 203 166 188
0.06334 1.69229 2.64477 203 166 188
0.06334 1.51927 2.64505 203 166 188
-0.06334 1.51927 2.64505 203 166 188
-0.06203 -1.57731 2.27852 119 93 111
-0.06202 -1.57731 2.32386 119 93 111
-0.04602 -1.57731 2.32386 119 93 111
-0.04603 -1.57731 2.27852 119 93 111
-0.06203 -1.58617 2.27852 119 93 111
-0.04603 -1.58617 2.27852 119 93 111
-0.04602 -1.58617 2.32386 119 93 111
-0.06202 -1.58617 2.32386 119 93 111
0.04603 -1.57731 2.27852 119 93 111
0.04602 -1.57731 2.32386 119 93 111
0.06202 -1.57731 2.32386 119 93 111
0.06203 -1.57731 2.27852 119 93 111
0.04603 -1.58617 2.27852 119 93 111
0.06203 -1.58617 2.27852 119 93 111
0.06202 -1.58617 2.32386 119 93 111
0.04602 -1.58617 2.32386 119 93 111
-1.33501 1.00145 2.12906 211 173 196
-1.9234 0.30287 2.12906 211 173 196
-1.9234 1.00145 2.12906 211 173 196
-1.04761 0.72568 2.12906 211 173 196
-1.04761 1.14829 2.12906 211 173 196
-0.36083 0.30287 2.12906 211 173 196
-0.36083 0.72568 2.12906 211 173 196
-1.33501 1.14829 2.12906 211 173 196
-1.31228 1.17634 2.12906 211 173 196
-1.07034 1.17634 2.12906 211 173 196
-1.07034 1.17634 2.06416 102 101 169
-1.07034 1.17634 2.12906 102 101 169
-1.31228 1.17634 2.12906 102 101 169
-1.31228 1.17634 2.06416 102 101 169
-1.04761 1.14829 2.06416 102 101 169
-1.04761 1.14829 2.12906 102 101 169
-1.33501 1.14829 2.06416 102 101 169
-1.33501 1.00145 2.06416 102 101 169
-1.33501 1.14829 2.12906 102 101 169
-1.33501 1.00145 2.12906 102 101 169
-1.04761 0.72568 2.06416 102 101 169
-1.9234 0.30287 2.06416 102 101 169
-1.9234 1.00145 2.06416 102 101 169
-0.36083 0.30287 2.06416 102 101 169
-0.36083 0.72568 2.06416 102 101 169
-0.36083 0.72568 2.12906 102 101 169
-1.04761 0.72568 2.12906 102 101 169
-1.9234 1.00145 2.12906 102 101 169
-0.36083 0.17242 2.16641 211 173 196
-1.8124 0.17242 2.16641 211 173 196
-1.91024 0.31659 2.16641 211 173 196
-0.36083 0.31659 2.16641 211 173 196
-1.92561 0.17242 2.16641 211 173 196
-1.92561 0.07451 2.16641 211 173 196
-2.01917 0.07451 2.16641 211 173 196
-1.81279 0.07469 2.16657 211 173 196
-2.16932 0.17242 2.16641 211 173 196
-1.91024 1.16701 2.16641 211 173 196
-2.16932 1.16701 2.16641 211 173 196
-1.92561 -0.069 2.16641 211 173 196
-2.01917 -0.069 2.16641 211 173 196
-2.07438 0.07451 2.16641 211 173 196
-2.07438 -0.069 2.16641 211 173 196
-2.16932 -0.069 2.16641 211 173 196
-2.14874 1.19602 2.16641 211 173 196
-1.93082 1.19602 2.16641 211 173 196
-0.36083 0.31659 2.16641 203 166 188
-1.91024 0.31659 2.16641 203 166 188
-1.91024 0.31659 2.02581 203 166 188
-0.36083 0.31659 2.02581 203 166 188
-1.91024 1.16701 2.16641 203 166 188
-1.91024 1.16701 2.02581 203 166 188
-2.16932 0.17242 2.02581 203 166 188
-2.16932 1.16701 2.02581 203 166 188
-2.16932 1.16701 2.16641 203 166 188
-2.16932 0.17242 2.16641 203 166 188
-1.92561 0.17242 2.02581 203 166 188
-1.8124 0.17242 2.02581 203 166 188
-1.81279 0.07469 2.02565 203 166 188
-1.8124 0.17242 2.16641 203 166 188
-1.81279 0.07469 2.16657 203 166 188
-1.92561 0.07451 2.02581 203 166 188
-1.92561 0.07451 2.16641 203 166 188
-0.36083 0.17242 2.02581 203 166 188
-2.01917 0.07451 2.02581 203 166 188
-2.01917 -0.069 2.02581 203 166 188
-1.92561 -0.069 2.02581 203 166 188
-2.07438 0.07451 2.02581 203 166 188
-0.36083 0.17242 2.16641 203 166 188
-2.07438 0.07451 2.16641 203 166 188
-2.07438 -0.069 2.02581 203 166 188
-2.07438 -0.069 2.16641 203 166 188
-2.16932 -0.069 2.02581 203 166 188
-2.16932 -0.069 2.16641 203 166 188
-1.93082 1.19602 2.02581 203 166 188
-1.93082 1.19602 2.16641 203 166 188
-2.14874 1.19602 2.16641 203 166 188
-2.14874 1.19602 2.02581 203 166 188
-2.01917 -0.069 2.16641 203 166 188
-1.92561 -0.069 2.16641 203 166 188
-2.01917 0.07451 2.16641 203 166 188
-0.61184 0.21217 1.07085 203 166 188
-0.61184 0.70559 1.07085 203 166 188
-0.61184 0.70559 1.69999 203 166 188
-0.61184 0.21217 1.69999 203 166 188
-0.55878 0.16537 1.69999 203 166 188
-0.55878 0.16537 1.07085 203 166 188
-0.57573 0.23997 1.75181 203 166 188
-0.52541 0.19558 1.75181 203 166 188
-0.57573 0.67779 1.75181 203 166 188
-0.52541 0.72218 1.75181 203 166 188
-0.55878 0.75239 1.69999 203 166 188
-0.55878 0.75239 1.07085 203 166 188
-0.23783 0.75239 1.69999 203 166 188
-0.2712 0.72218 1.75181 203 166 188
-0.56279 0.66209 1.0246 203 166 188
-0.51602 0.70334 1.0246 203 166 188
-0.56279 0.25567 1.0246 203 166 188
-0.51602 0.21442 1.0246 203 166 188
-0.23783 0.16537 1.07085 203 166 188
-0.28059 0.21442 1.0246 203 166 188
-0.18477 0.70559 1.69999 203 166 188
-0.23783 0.75239 1.07085 203 166 188
-0.18477 0.70559 1.07085 203 166 188
-0.22087 0.67779 1.75181 203 166 188
-0.18477 0.21217 1.69999 203 166 188
-0.22087 0.23997 1.75181 203 166 188
-0.23783 0.16537 1.69999 203 166 188
-0.18477 0.21217 1.07085 203 166 188
-0.2712 0.19558 1.75181 203 166 188
-0.23382 0.66209 1.0246 203 166 188
-0.28059 0.70334 1.0246 203 166 188
-0.23382 0.37307 1.0246 203 166 188
-0.23382 0.25567 1.0246 203 166 188
-0.23382 0.37307 0.86706 203 166 188
-0.23382 0.40728 0.83548 203 166 188
-0.23382 0.8912 0.83548 203 166 188
-0.46471 0.70334 1.0246 203 166 188
-0.46471 0.66209 1.0246 203 166 188
-0.46471 0.37307 1.0246 203 166 188
-0.46471 0.40728 0.83548 203 166 188
-0.46471 0.37307 0.86706 203 166 188
-0.46471 0.8912 0.83548 203 166 188
-0.46471 0.8912 1.0246 203 166 188
-0.46471 1.03483 1.0246 203 166 188
-0.46437 0.89144 0.42435 203 166 188
-0.46437 1.03483 0.42435 203 166 188
-0.37351 1.03483 0.68459 203 166 188
-0.3736 1.03483 0.42435 203 166 188
-0.37351 0.8912 0.68459 203 166 188
-0.32495 0.89132 0.68473 203 166 188
-0.32495 1.03483 0.68473 203 166 188
-0.3736 0.89144 0.42435 203 166 188
-0.23382 1.03483 1.0246 203 166 188
-0.26686 1.03483 1.21367 203 166 188
-0.26686 0.8912 1.21367 203 166 188
-0.23382 0.8912 1.0246 203 166 188
-0.43167 1.03483 1.21367 203 166 188
-0.43167 0.8912 1.21367 203 166 188
-0.28181 0.8912 1.23184 203 166 188
-0.28181 1.03483 1.23184 203 166 188
-0.41671 0.8912 1.23184 203 166 188
-0.41671 1.03483 1.23184 203 166 188
-0.32493 0.89144 0.42435 203 166 188
-0.23415 0.89144 0.42435 203 166 188
-0.32493 1.03483 0.42435 203 166 188
-0.38135 0.89144 0.41188 203 166 188
-0.45399 0.89144 0.41188 203 166 188
-0.38135 1.03483 0.41188 203 166 188
-0.45399 1.03483 0.41188 203 166 188
-0.24453 0.89144 0.41188 203 166 188
-0.31717 0.89144 0.41188 203 166 188
-0.31717 1.03483 0.41188 203 166 188
-0.24453 1.03483 0.41188 203 166 188
-0.23415 1.03483 0.42435 203 166 188
-0.23382 0.66209 1.0246 211 173 196
-0.28059 0.70334 1.0246 211 173 196
-0.23382 0.8912 1.0246 211 173 196
-0.46471 0.8912 1.0246 211 173 196
-0.46471 0.70334 1.0246 211 173 196
-0.28181 1.03483 1.23184 211 173 196
-0.28181 0.8912 1.23184 211 173 196
-0.41671 0.8912 1.23184 211 173 196
-0.41671 1.03483 1.23184 211 173 196
0.14116 -0.4342 2.52785 203 166 188
0.14116 -0.4342 2.82185 203 166 188
0.16626 -0.4571 2.82185 203 166 188
0.16626 -0.4571 2.52785 203 166 188
0.14116 -0.2917 2.52785 203 166 188
0.14116 -0.2917 2.82185 203 166 188
0.30441 -0.4571 2.52785 203 166 188
0.30441 -0.4571 2.82185 203 166 188
0.32948 -0.4342 2.52785 203 166 188
0.32948 -0.4342 2.82185 203 166 188
0.32948 -0.2917 2.82185 203 166 188
0.32948 -0.2917 2.52785 203 166 188
0.17777 -0.44141 2.84493 203 166 188
0.15686 -0.42232 2.84493 203 166 188
0.15686 -0.30357 2.84493 203 166 188
0.16626 -0.26879 2.82185 203 166 188
0.16626 -0.26879 2.52785 203 166 188
0.30441 -0.26879 2.82185 203 166 188
0.30441 -0.26879 2.52785 203 166 188
0.17777 -0.28448 2.84493 203 166 188
0.2929 -0.28448 2.84493 203 166 188
0.31378 -0.30357 2.84493 203 166 188
0.2929 -0.44141 2.84493 203 166 188
0.31378 -0.42232 2.84493 203 166 188
0.31378 -0.42232 2.84493 211 173 196
0.2929 -0.44141 2.84493 211 173 196
0.17777 -0.44141 2.84493 211 173 196
0.15686 -0.42232 2.84493 211 173 196
0.31378 -0.30357 2.84493 211 173 196
0.15686 -0.30357 2.84493 211 173 196
0.2929 -0.28448 2.84493 211 173 196
0.17777 -0.28448 2.84493 211 173 196
-0.14116 -0.4342 2.52785 203 166 188
-0.16626 -0.4571 2.52785 203 166 188
-0.16626 -0.4571 2.82185 203 166 188
-0.14116 -0.4342 2.82185 203 166 188
-0.14116 -0.2917 2.52785 203 166 188
-0.14116 -0.2917 2.82185 203 166 188
-0.30441 -0.4571 2.52785 203 166 188
-0.30441 -0.4571 2.82185 203 166 188
-0.32948 -0.4342 2.52785 203 166 188
-0.32948 -0.4342 2.82185 203 166 188
-0.32948 -0.2917 2.82185 203 166 188
-0.32948 -0.2917 2.52785 203 166 188
-0.17777 -0.44141 2.84493 203 166 188
-0.15686 -0.42232 2.84493 203 166 188
-0.15686 -0.30357 2.84493 203 166 188
-0.16626 -0.26879 2.82185 203 166 188
-0.16626 -0.26879 2.52785 203 166 188
-0.30441 -0.26879 2.82185 203 166 188
-0.30441 -0.26879 2.52785 203 166 188
-0.17777 -0.28448 2.84493 203 166 188
-0.2929 -0.28448 2.84493 203 166 188
-0.31378 -0.30357 2.84493 203 166 188
-0.2929 -0.44141 2.84493 203 166 188
-0.31378 -0.42232 2.84493 203 166 188
-0.31378 -0.42232 2.84493 211 173 196
-0.15686 -0.42232 2.84493 211 173 196
-0.17777 -0.44141 2.84493 211 173 196
-0.2929 -0.44141 2.84493 211 173 196
-0.31378 -0.30357 2.84493 211 173 196
-0.15686 -0.30357 2.84493 211 173 196
-0.2929 -0.28448 2.84493 211 173 196
-0.17777 -0.28448 2.84493 211 173 196
-0.1956 -0.97766 2.36113 255 255 255
-0.22563 -0.97766 2.36113 255 255 255
-0.22563 -0.97766 2.40129 255 255 255
-0.1956 -0.97766 2.38112 255 255 255
-0.22563 -0.96806 2.40129 255 255 255
-0.22563 -0.96806 2.36113 255 255 255
-0.1956 -0.96806 2.36113 255 255 255
-0.1956 -0.96806 2.38112 255 255 255
-0.34241 -0.97076 2.4778 255 255 255
-0.24856 -0.97076 2.41621 255 255 255
-0.24856 -0.97076 2.3279 255 255 255
-0.34241 -0.97076 2.29249 255 255 255
-0.24856 -0.97076 2.29249 255 255 255
-0.24856 -0.97076 2.29249 88 115 65
-0.24856 -0.97076 2.3279 88 115 65
-0.21837 -0.97076 2.32788 88 115 65
-0.21837 -0.97076 2.31576 88 115 65
-0.14551 -0.97076 2.29249 88 115 65
-0.17254 -0.97076 2.31576 88 115 65
-0.17254 -0.97076 2.32785 88 115 65
-0.14551 -0.97076 2.32783 88 115 65
-0.06142 -0.97076 2.29249 255 255 255
-0.14551 -0.97076 2.29249 255 255 255
-0.14551 -0.97076 2.32783 255 255 255
-0.14551 -0.97076 2.34792 255 255 255
-0.14551 -0.97076 2.34792 34 48 29
-0.14551 -0.97076 2.32783 34 48 29
-0.17254 -0.97076 2.32785 34 48 29
-0.17254 -0.97076 2.36606 34 48 29
-0.17254 -0.97076 2.36606 29 38 22
-0.17254 -0.97076 2.32785 29 38 22
-0.21837 -0.97076 2.32788 29 38 22
-0.21837 -0.97076 2.39671 29 38 22
-0.17254 -0.97076 2.31576 29 38 22
-0.21837 -0.97076 2.31576 29 38 22
-0.21837 -0.97076 2.39671 34 48 29
-0.21837 -0.97076 2.32788 34 48 29
-0.24856 -0.97076 2.3279 34 48 29
-0.24856 -0.97076 2.41621 34 48 29
3 0 2 1
3 0 3 2
3 3 4 2
3 3 5 4
3 5 3 0
3 6 0 1
3 5 0 6
3 6 1 7
3 8 10 9
3 8 11 10
3 9 10 12
3 13 15 14
3 13 16 15
3 17 13 14
3 17 14 18
3 17 18 19
3 17 19 20
3 21 23 22
3 21 22 24
3 25 27 26
3 25 28 27
3 29 31 30
3 29 32 31
3 33 31 32
3 33 34 31
3 35 37 36
3 35 38 37
3 39 41 40
3 39 42 41
3 43 39 40
3 43 44 39
3 43 40 45
3 43 45 46
3 40 47 45
3 40 41 47
3 41 48 47
3 41 49 48
3 50 49 41
3 50 41 42
3 48 49 51
3 50 51 49
3 48 51 52
3 50 42 53
3 50 53 54
3 42 55 53
3 42 39 55
3 39 56 55
3 39 44 56
3 56 44 57
3 56 57 58
3 59 52 51
3 60 59 51
3 50 60 51
3 60 61 59
3 59 62 52
3 63 62 59
3 63 64 62
3 65 64 63
3 65 66 57
3 65 63 66
3 66 58 57
3 66 63 59
3 66 59 61
3 65 67 64
3 60 68 61
3 60 69 68
3 61 68 70
3 66 71 58
3 45 64 67
3 45 67 46
3 46 67 65
3 46 65 43
3 43 65 57
3 43 57 44
3 47 64 45
3 47 62 64
3 48 62 47
3 48 52 62
3 70 68 72
3 72 68 73
3 73 68 74
3 74 68 75
3 76 74 75
3 76 75 77
3 76 77 78
3 79 76 78
3 79 78 80
3 81 79 80
3 81 80 82
3 75 81 82
3 75 82 77
3 76 79 83
3 83 79 84
3 83 84 85
3 86 83 85
3 83 86 87
3 83 87 88
3 76 83 88
3 86 85 89
3 79 90 84
3 79 91 90
3 79 81 91
3 92 91 81
3 92 93 91
3 93 92 94
3 53 94 92
3 95 94 53
3 95 53 55
3 53 92 54
3 93 94 96
3 54 92 50
3 50 92 60
3 60 92 69
3 94 95 96
3 95 72 96
3 93 96 72
3 93 72 73
3 95 70 72
3 93 73 74
3 93 74 91
3 55 70 95
3 55 71 70
3 56 71 55
3 56 58 71
3 66 70 71
3 61 70 66
3 74 86 91
3 91 86 89
3 91 89 90
3 74 87 86
3 74 97 87
3 74 98 97
3 88 87 97
3 88 97 99
3 90 89 100
3 90 100 101
3 101 100 102
3 101 102 103
3 89 102 100
3 89 85 102
3 85 103 102
3 85 84 103
3 84 101 103
3 84 90 101
3 97 98 104
3 97 104 105
3 106 105 104
3 106 104 107
3 98 107 104
3 98 108 107
3 76 98 74
3 76 108 98
3 76 99 108
3 76 88 99
3 99 105 106
3 108 99 106
3 99 97 105
3 108 106 107
3 109 111 110
3 112 110 111
3 112 111 113
3 114 116 115
3 114 117 116
3 78 119 118
3 78 77 119
3 77 120 119
3 77 82 120
3 82 121 120
3 82 80 121
3 80 78 118
3 80 118 121
3 122 124 123
3 125 124 122
3 122 126 125
3 125 127 124
3 125 128 127
3 122 129 126
3 126 129 130
3 126 130 131
3 132 134 133
3 132 135 134
3 136 135 132
3 136 137 135
3 138 136 132
3 139 136 138
3 140 139 138
3 140 141 139
3 139 142 136
3 143 142 139
3 143 139 144
3 143 145 142
3 142 145 146
3 147 142 146
3 147 148 142
3 136 148 137
3 136 142 148
3 140 138 133
3 138 132 133
3 140 133 134
3 141 144 139
3 141 149 144
3 150 152 151
3 150 153 152
3 152 153 154
3 155 154 153
3 154 155 156
3 155 153 157
3 158 152 154
3 158 159 152
3 158 160 159
3 156 155 161
3 156 161 162
3 154 163 158
3 154 156 163
3 158 163 164
3 158 164 165
3 159 160 166
3 159 166 167
3 168 170 169
3 168 171 170
3 170 171 172
3 170 172 173
3 174 170 173
3 174 173 175
3 174 175 176
3 174 176 177
3 174 178 170
3 179 170 178
3 178 180 179
3 181 179 180
3 181 180 182
3 178 183 180
3 183 182 180
3 183 184 182
3 169 170 179
3 169 179 185
3 178 186 183
3 174 186 178
3 183 186 187
3 183 187 188
3 174 189 186
3 185 181 190
3 185 179 181
3 191 189 192
3 191 192 193
3 194 193 192
3 194 195 193
3 174 192 189
3 174 194 192
3 177 194 174
3 177 195 194
3 196 198 197
3 196 199 198
3 176 197 198
3 176 175 197
3 175 196 197
3 175 173 196
3 173 199 196
3 173 172 199
3 187 200 188
3 187 201 200
3 186 201 187
3 186 202 201
3 189 202 186
3 189 191 202
3 184 188 200
3 184 183 188
3 203 205 204
3 203 206 205
3 204 207 203
3 204 208 207
3 205 208 204
3 207 208 209
3 205 209 208
3 207 209 210
3 211 213 212
3 211 214 213
3 212 213 215
3 214 215 213
3 212 215 216
3 214 217 215
3 218 212 216
3 218 211 212
3 216 217 218
3 216 215 217
3 219 221 220
3 219 222 221
3 223 221 222
3 223 224 221
3 225 224 223
3 225 226 224
3 227 229 228
3 228 230 227
3 228 231 230
3 232 231 228
3 232 228 233
3 232 233 234
3 228 235 233
3 228 229 235
3 229 236 235
3 229 237 236
3 238 237 229
3 238 229 239
3 236 237 240
3 236 240 241
3 238 239 242
3 238 242 243
3 244 237 238
3 244 238 245
3 243 245 238
3 242 246 243
3 246 242 247
3 247 242 248
3 249 239 229
3 249 250 239
3 249 229 251
3 251 229 227
3 252 251 227
3 252 227 253
3 253 227 230
3 253 230 254
3 255 243 246
3 255 245 243
3 249 256 250
3 257 246 247
3 246 257 255
3 257 247 258
3 257 258 259
3 257 259 240
3 259 241 240
3 259 260 241
3 261 260 259
3 261 262 260
3 263 262 261
3 263 261 264
3 263 265 262
3 232 265 263
3 232 263 264
3 232 234 265
3 266 257 240
3 266 255 257
3 237 266 240
3 237 244 266
3 261 267 264
3 261 268 267
3 268 261 259
3 232 264 231
3 231 264 269
3 270 269 264
3 267 270 264
3 267 271 270
3 231 269 272
3 272 273 231
3 230 231 273
3 230 273 274
3 244 276 275
3 244 245 276
3 277 276 245
3 277 245 255
3 266 277 255
3 266 278 277
3 253 279 252
3 253 280 279
3 253 281 280
3 281 282 280
3 281 283 282
3 253 254 281
3 282 283 284
3 284 283 285
3 283 286 285
3 283 287 286
3 279 288 252
3 279 289 288
3 280 290 279
3 280 282 290
3 282 284 291
3 282 291 292
3 251 252 288
3 251 288 293
3 249 251 293
3 249 293 294
3 279 295 289
3 279 290 295
3 295 290 296
3 296 290 297
3 296 297 298
3 299 296 298
3 295 296 299
3 299 298 300
3 301 298 297
3 301 300 298
3 302 301 297
3 303 302 297
3 304 302 303
3 304 305 302
3 304 303 306
3 306 303 307
3 303 297 307
3 306 307 308
3 304 306 309
3 307 310 308
3 310 311 308
3 308 311 312
3 308 312 313
3 302 305 314
3 302 314 315
3 302 315 301
3 316 314 305
3 316 317 314
3 318 317 316
3 318 319 317
3 307 320 310
3 307 321 320
3 322 321 307
3 322 323 321
3 322 324 323
3 323 324 325
3 323 325 326
3 324 327 325
3 324 328 327
3 322 328 324
3 322 292 328
3 322 282 292
3 282 322 290
3 290 322 297
3 297 322 307
3 239 248 242
3 239 250 248
3 329 248 250
3 329 250 330
3 256 330 250
3 256 331 330
3 248 329 332
3 248 332 333
3 247 248 333
3 329 334 332
3 329 330 334
3 331 334 330
3 258 247 333
3 258 333 335
3 332 335 333
3 332 334 335
3 336 335 334
3 336 334 337
3 331 337 334
3 338 340 339
3 338 341 340
3 339 340 342
3 340 343 342
3 344 343 340
3 343 344 345
3 342 346 339
3 346 347 339
3 346 348 347
3 349 341 350
3 338 350 341
3 350 338 351
3 351 338 352
3 351 352 353
3 354 341 349
3 341 354 355
3 356 358 357
3 356 357 359
3 356 359 360
3 361 356 360
3 361 360 362
3 361 362 363
3 361 363 364
3 364 363 365
3 364 365 366
3 360 359 367
3 367 359 368
3 357 358 369
3 370 272 371
3 370 273 272
3 273 370 372
3 373 375 374
3 373 376 375
3 377 373 374
3 378 373 377
3 379 373 378
3 378 377 380
3 377 374 381
3 381 374 382
3 377 381 383
3 286 313 312
3 286 287 313
3 384 386 385
3 384 387 386
3 388 386 387
3 388 389 386
3 388 390 389
3 388 391 390
3 391 392 390
3 391 393 392
3 394 392 393
3 394 395 392
3 396 398 397
3 396 399 398
3 399 400 398
3 397 398 400
3 399 401 400
3 397 400 402
3 403 399 396
3 403 401 399
3 401 402 400
3 401 403 402
3 318 258 335
3 318 259 258
3 318 316 259
3 316 268 259
3 305 268 316
3 305 304 268
3 304 267 268
3 304 309 267
3 318 335 336
3 269 405 404
3 405 269 270
3 269 404 406
3 299 301 295
3 299 300 301
3 407 409 408
3 407 410 409
3 411 413 412
3 411 414 413
3 415 411 412
3 415 416 411
3 415 412 417
3 415 417 418
3 412 419 417
3 412 413 419
3 411 416 420
3 411 420 421
3 414 411 421
3 414 421 422
3 423 414 422
3 423 413 414
3 423 424 413
3 413 424 425
3 413 425 419
3 425 424 426
3 423 426 424
3 425 426 427
3 423 422 428
3 420 416 429
3 420 429 430
3 431 427 426
3 432 431 426
3 423 432 426
3 428 432 423
3 432 433 431
3 431 434 427
3 432 435 433
3 432 436 435
3 428 436 432
3 433 435 437
3 433 437 438
3 438 430 429
3 438 437 430
3 439 438 429
3 439 440 438
3 438 440 431
3 438 431 433
3 439 441 440
3 439 442 441
3 440 434 431
3 440 441 434
3 420 430 437
3 420 437 421
3 421 437 435
3 418 442 439
3 418 439 415
3 415 439 429
3 415 429 416
3 421 435 422
3 422 435 436
3 422 436 428
3 443 445 444
3 443 446 445
3 446 447 445
3 446 448 447
3 448 449 447
3 448 450 449
3 449 450 451
3 449 451 452
3 444 453 443
3 444 454 453
3 453 454 455
3 453 455 456
3 456 455 457
3 456 457 458
3 458 452 451
3 458 457 452
3 459 461 460
3 459 462 461
3 462 463 461
3 462 464 463
3 460 465 459
3 460 466 465
3 465 466 467
3 465 467 468
3 468 467 469
3 468 469 470
3 467 466 471
3 467 471 472
3 469 467 472
3 469 472 473
3 474 469 473
3 470 469 474
3 470 474 475
3 476 475 474
3 476 477 475
3 464 477 476
3 464 476 463
3 474 473 478
3 476 474 478
3 463 476 479
3 476 478 479
3 463 479 480
3 466 481 471
3 466 460 481
3 460 482 481
3 460 461 482
3 461 480 482
3 461 463 480
3 483 485 484
3 483 486 485
3 487 486 483
3 487 488 486
3 489 488 487
3 489 487 490
3 491 493 492
3 491 494 493
3 492 493 495
3 492 495 496
3 497 499 498
3 497 500 499
3 501 499 500
3 501 502 499
3 503 497 498
3 503 504 497
3 505 507 506
3 505 508 507
3 505 506 509
3 505 509 510
3 506 507 511
3 512 511 507
3 513 511 512
3 513 512 514
3 512 507 515
3 515 507 508
3 506 511 516
3 509 506 516
3 509 516 517
3 517 516 518
3 517 518 519
3 515 508 520
3 508 505 521
3 508 521 522
3 508 522 523
3 524 523 522
3 524 522 525
3 521 505 526
3 526 527 521
3 526 528 527
3 522 521 529
3 522 529 530
3 516 513 518
3 516 511 513
3 509 520 510
3 509 515 520
3 510 520 525
3 510 525 527
3 525 520 524
3 520 523 524
3 520 508 523
3 510 527 528
3 505 510 528
3 505 528 526
3 527 525 531
3 527 531 532
3 533 535 534
3 533 536 535
3 537 536 533
3 537 538 536
3 538 535 536
3 538 539 535
3 539 534 535
3 539 540 534
3 540 533 534
3 540 537 533
3 541 543 542
3 541 544 543
3 545 544 541
3 545 546 544
3 546 543 544
3 546 547 543
3 547 542 543
3 547 548 542
3 548 541 542
3 548 545 541
3 549 551 550
3 552 549 550
3 549 552 553
3 552 550 554
3 552 554 555
3 549 553 556
3 553 557 556
3 553 558 557
3 559 561 560
3 559 562 561
3 563 560 564
3 563 559 560
3 565 559 563
3 566 565 563
3 567 565 566
3 567 566 568
3 566 563 569
3 570 566 569
3 570 571 566
3 570 569 572
3 569 573 572
3 574 573 569
3 574 569 575
3 563 564 575
3 563 575 569
3 567 562 565
3 565 562 559
3 567 561 562
3 568 571 576
3 568 566 571
3 577 579 578
3 577 580 579
3 579 581 578
3 582 578 581
3 581 583 582
3 582 584 578
3 585 581 579
3 585 579 586
3 585 586 587
3 583 588 582
3 583 589 588
3 581 590 583
3 581 585 590
3 585 591 590
3 585 592 591
3 586 593 587
3 586 594 593
3 595 597 596
3 595 598 597
3 597 599 596
3 597 600 599
3 601 600 597
3 601 602 600
3 601 603 602
3 601 604 603
3 601 597 605
3 606 605 597
3 605 606 607
3 608 607 606
3 608 609 607
3 605 607 610
3 610 607 609
3 610 609 611
3 598 606 597
3 598 612 606
3 605 610 613
3 601 605 613
3 610 614 613
3 610 615 614
3 601 613 616
3 612 608 606
3 612 617 608
3 618 619 616
3 618 620 619
3 621 619 620
3 621 620 622
3 601 619 621
3 601 616 619
3 604 601 621
3 604 621 622
3 623 625 624
3 623 626 625
3 603 625 626
3 603 626 602
3 602 626 623
3 602 623 600
3 600 623 624
3 600 624 599
3 614 628 627
3 614 615 628
3 613 614 627
3 613 627 629
3 616 613 629
3 616 629 618
3 611 628 615
3 611 615 610
3 630 632 631
3 630 633 632
3 634 633 630
3 634 630 635
3 634 636 633
3 634 637 636
3 633 636 638
3 633 638 632
3 632 638 639
3 632 639 640
3 641 632 640
3 641 631 632
3 639 642 640
3 641 640 642
3 639 643 642
3 641 644 631
3 641 645 644
3 631 644 646
3 631 646 630
3 630 647 635
3 630 646 647
3 647 648 635
3 647 649 648
3 650 642 643
3 651 642 650
3 641 642 651
3 651 650 652
3 650 643 653
3 654 650 653
3 654 653 655
3 656 654 655
3 656 657 654
3 656 648 657
3 657 648 649
3 657 650 654
3 657 652 650
3 656 655 658
3 651 652 659
3 651 659 660
3 652 661 659
3 657 649 662
3 636 658 655
3 636 637 658
3 637 656 658
3 637 634 656
3 634 648 656
3 634 635 648
3 638 636 655
3 638 655 653
3 639 638 653
3 639 653 643
3 661 663 659
3 663 664 659
3 664 665 659
3 651 660 666
3 641 651 666
3 645 641 666
3 644 645 666
3 644 666 667
3 668 644 667
3 668 646 644
3 669 667 666
3 669 670 667
3 666 671 669
3 666 672 671
3 673 671 672
3 673 674 671
3 673 675 674
3 676 675 673
3 676 677 675
3 678 677 676
3 676 679 678
3 676 680 679
3 678 681 677
3 682 676 673
3 682 680 676
3 673 683 682
3 682 683 684
3 682 684 685
3 673 686 683
3 672 686 673
3 672 687 686
3 685 687 672
3 685 684 687
3 682 685 665
3 665 685 659
3 683 688 684
3 683 689 688
3 686 689 683
3 684 690 687
3 684 688 690
3 687 690 691
3 687 691 686
3 686 691 689
3 647 662 649
3 647 646 662
3 646 661 662
3 646 668 661
3 668 663 661
3 668 670 663
3 669 663 670
3 669 664 663
3 667 670 668
3 669 665 664
3 669 671 665
3 657 662 661
3 652 657 661
3 665 671 678
3 671 681 678
3 671 674 681
3 665 678 679
3 665 679 692
3 665 692 693
3 680 692 679
3 680 694 692
3 674 695 681
3 674 696 695
3 696 697 695
3 696 698 697
3 681 695 697
3 681 697 677
3 677 697 698
3 677 698 675
3 675 698 696
3 675 696 674
3 692 699 693
3 692 700 699
3 701 699 700
3 701 702 699
3 693 699 702
3 693 702 703
3 682 693 703
3 682 665 693
3 682 703 694
3 682 694 680
3 694 700 692
3 694 701 700
3 703 701 694
3 703 702 701
3 704 706 705
3 707 705 706
3 707 708 705
3 709 711 710
3 709 712 711
3 713 715 714
3 713 716 715
3 717 713 714
3 717 714 718
3 715 716 719
3 715 719 720
3 720 719 721
3 720 721 722
3 721 723 722
3 721 724 723
3 714 715 725
3 714 725 726
3 718 714 726
3 718 726 727
3 728 718 727
3 718 728 729
3 718 729 717
3 729 728 730
3 729 730 731
3 731 730 723
3 731 723 724
3 730 728 732
3 728 727 732
3 730 732 733
3 723 730 733
3 722 723 734
3 723 733 734
3 715 735 725
3 715 720 735
3 720 736 735
3 720 722 736
3 722 734 736
3 737 739 738
3 737 740 739
3 741 740 737
3 741 742 740
3 743 742 741
3 743 744 742
3 745 747 746
3 745 748 747
3 749 748 745
3 749 750 748
3 747 751 746
3 747 752 751
3 752 753 751
3 752 754 753
3 753 754 755
3 753 755 756
3 748 757 747
3 748 758 757
3 750 758 748
3 750 759 758
3 760 759 750
3 750 761 760
3 750 749 761
3 761 762 760
3 761 763 762
3 763 755 762
3 763 756 755
3 762 764 760
3 760 764 759
3 762 765 764
3 755 765 762
3 754 766 755
3 755 766 765
3 747 757 767
3 747 767 752
3 752 767 768
3 752 768 754
3 754 768 766
3 769 771 770
3 769 772 771
3 773 769 770
3 773 770 774
3 775 773 774
3 775 774 776
3 777 779 778
3 777 780 779
3 778 779 781
3 778 781 782
3 782 777 778
3 783 780 777
3 782 783 777
3 783 784 780
3 785 787 786
3 785 788 787
3 788 789 787
3 790 792 791
3 790 793 792
3 794 793 790
3 794 795 793
3 794 796 795
3 794 797 796
3 798 800 799
3 798 801 800
3 802 804 803
3 802 805 804
3 806 808 807
3 806 809 808
3 810 807 808
3 810 808 811
3 812 814 813
3 812 815 814
