ply
format ascii 1.0
element vertex 827
property float x
property float y
property float z
property uchar red
property uchar green
property uchar blue
element face 1044
property list uchar int vertex_index
end_header
0.1956 -0.97766 2.36113 255 255 255
0.1956 -0.97766 2.38112 255 255 255
0.22563 -0.97766 2.40129 255 255 255
0.22563 -0.97766 2.36113 255 255 255
0.22563 -0.96806 2.40129 255 255 255
0.22563 -0.96806 2.36113 255 255 255
0.1956 -0.96806 2.36113 255 255 255
0.1956 -0.96806 2.38112 255 255 255
0.34241 -0.97076 2.4778 255 255 255
0.34241 -0.97076 2.29249 255 255 255
0.24856 -0.97076 2.3279 255 255 255
0.24856 -0.97076 2.41621 255 255 255
0.24856 -0.97076 2.29249 255 255 255
0.24856 -0.97076 2.29249 55 77 56
0.21837 -0.97076 2.31576 55 77 56
0.21837 -0.97076 2.32788 55 77 56
0.24856 -0.97076 2.3279 55 77 56
0.14551 -0.97076 2.29249 55 77 56
0.17254 -0.97076 2.31576 55 77 56
0.17254 -0.97076 2.32785 55 77 56
0.14551 -0.97076 2.32783 55 77 56
0.06142 -0.97076 2.29249 255 255 255
0.14551 -0.97076 2.32783 255 255 255
0.14551 -0.97076 2.29249 255 255 255
0.14551 -0.97076 2.34792 255 255 255
0.14551 -0.97076 2.34792 33 24 24
0.17254 -0.97076 2.36606 33 24 24
0.17254 -0.97076 2.32785 33 24 24
0.14551 -0.97076 2.32783 33 24 24
0.17254 -0.97076 2.36606 28 20 20
0.21837 -0.97076 2.39671 28 20 20
0.21837 -0.97076 2.32788 28 20 20
0.17254 -0.97076 2.32785 28 20 20
0.17254 -0.97076 2.31576 28 20 20
0.21837 -0.97076 2.31576 28 20 20
0.21837 -0.97076 2.39671 33 24 24
0.24856 -0.97076 2.41621 33 24 24
0.24856 -0.97076 2.3279 33 24 24
0.21837 -0.97076 2.32788 33 24 24
0.61184 0.21217 1.07085 193 189 208
0.61184 0.21217 1.69999 193 189 208
0.61184 0.70559 1.69999 193 189 208
0.61184 0.70559 1.07085 193 189 208
0.55878 0.16537 1.69999 193 189 208
0.55878 0.16537 1.07085 193 189 208
0.57573 0.23997 1.75181 193 189 208
0.52541 0.19558 1.75181 193 189 208
0.57573 0.67779 1.75181 193 189 208
0.52541 0.72218 1.75181 193 189 208
0.55878 0.75239 1.69999 193 189 208
0.55878 0.75239 1.07085 193 189 208
0.23783 0.75239 1.69999 193 189 208
0.2712 0.72218 1.75181 193 189 208
0.56279 0.66209 1.0246 193 189 208
0.51602 0.70334 1.0246 193 189 208
0.56279 0.25567 1.0246 193 189 208
0.51602 0.21442 1.0246 193 189 208
0.23783 0.16537 1.07085 193 189 208
0.28059 0.21442 1.0246 193 189 208
0.18477 0.70559 1.69999 193 189 208
0.23783 0.75239 1.07085 193 189 208
0.18477 0.70559 1.07085 193 189 208
0.22087 0.67779 1.75181 193 189 208
0.18477 0.21217 1.69999 193 189 208
0.22087 0.23997 1.75181 193 189 208
0.23783 0.16537 1.69999 193 189 208
0.18477 0.21217 1.07085 193 189 208
0.2712 0.19558 1.75181 193 189 208
0.23382 0.66209 1.0246 193 189 208
0.28059 0.70334 1.0246 193 189 208
0.23382 0.37307 1.0246 193 189 208
0.23382 0.25567 1.0246 193 189 208
0.23382 0.37307 0.86706 193 189 208
0.23382 0.40728 0.83548 193 189 208
0.23382 0.8912 0.83548 193 189 208
0.46471 0.37307 1.0246 193 189 208
0.46471 0.37307 0.86706 193 189 208
0.46471 0.40728 0.83548 193 189 208
0.46471 0.66209 1.0246 193 189 208
0.46471 0.8912 0.83548 193 189 208
0.37351 0.8912 0.68459 193 189 208
0.3736 0.89144 0.42435 193 189 208
0.46437 0.89144 0.42435 193 189 208
0.32495 0.89132 0.68473 193 189 208
0.32493 0.89144 0.42435 193 189 208
0.23415 0.89144 0.42435 193 189 208
0.32495 1.03483 0.68473 193 189 208
0.32493 1.03483 0.42435 193 189 208
0.38135 0.89144 0.41188 193 189 208
0.45399 0.89144 0.41188 193 189 208
0.38135 1.03483 0.41188 193 189 208
0.45399 1.03483 0.41188 193 189 208
0.3736 1.03483 0.42435 193 189 208
0.46437 1.03483 0.42435 193 189 208
0.37351 1.03483 0.68459 193 189 208
0.46471 1.03483 1.0246 193 189 208
0.23382 1.03483 1.0246 193 189 208
0.26686 1.03483 1.21367 193 189 208
0.26686 0.8912 1.21367 193 189 208
0.23382 0.8912 1.0246 193 189 208
0.43167 1.03483 1.21367 193 189 208
0.46471 0.8912 1.0246 193 189 208
0.43167 0.8912 1.21367 193 189 208
0.46471 0.70334 1.0246 193 189 208
0.57573 0.23997 1.75181 199 195 214
0.52541 0.19558 1.75181 199 195 214
0.2712 0.19558 1.75181 199 195 214
0.22087 0.23997 1.75181 199 195 214
0.57573 0.67779 1.75181 199 195 214
0.22087 0.67779 1.75181 199 195 214
0.52541 0.72218 1.75181 199 195 214
0.2712 0.72218 1.75181 199 195 214
0.23382 0.66209 1.0246 199 195 214
0.23382 0.8912 1.0246 199 195 214
0.28059 0.70334 1.0246 199 195 214
0.46471 0.8912 1.0246 199 195 214
0.46471 0.70334 1.0246 199 195 214
0.28181 1.03483 1.23184 199 195 214
0.41671 1.03483 1.23184 199 195 214
0.41671 0.8912 1.23184 199 195 214
0.28181 0.8912 1.23184 199 195 214
0.31717 1.03483 0.41188 193 189 208
0.24453 1.03483 0.41188 193 189 208
0.24453 0.89144 0.41188 193 189 208
0.31717 0.89144 0.41188 193 189 208
0.23415 1.03483 0.42435 193 189 208
0.28181 1.03483 1.23184 193 189 208
0.28181 0.8912 1.23184 193 189 208
0.41671 0.8912 1.23184 193 189 208
0.41671 1.03483 1.23184 193 189 208
1.33501 1.00145 2.12906 199 194 214
1.9234 1.00145 2.12906 199 194 214
1.9234 0.30287 2.12906 199 194 214
1.04761 0.72568 2.12906 199 194 214
1.04761 1.14829 2.12906 199 194 214
0.36083 0.30287 2.12906 199 194 214
0.36083 0.72568 2.12906 199 194 214
1.33501 1.14829 2.12906 199 194 214
1.31228 1.17634 2.12906 199 194 214
1.07034 1.17634 2.12906 199 194 214
1.07034 1.17634 2.06416 164 137 181
1.31228 1.17634 2.06416 164 137 181
1.31228 1.17634 2.12906 164 137 181
1.07034 1.17634 2.12906 164 137 181
1.04761 1.14829 2.06416 164 137 181
1.04761 1.14829 2.12906 164 137 181
1.33501 1.14829 2.06416 164 137 181
1.33501 1.00145 2.06416 164 137 181
1.33501 1.14829 2.12906 164 137 181
1.33501 1.00145 2.12906 164 137 181
1.04761 0.72568 2.06416 164 137 181
1.9234 0.30287 2.06416 164 137 181
1.9234 1.00145 2.06416 164 137 181
0.36083 0.30287 2.06416 164 137 181
0.36083 0.72568 2.06416 164 137 181
0.36083 0.72568 2.12906 164 137 181
1.04761 0.72568 2.12906 164 137 181
1.9234 1.00145 2.12906 164 137 181
0.36083 0.17242 2.16641 199 194 214
0.36083 0.31659 2.16641 199 194 214
1.91024 0.31659 2.16641 199 194 214
1.8124 0.17242 2.16641 199 194 214
1.92561 0.17242 2.16641 199 194 214
1.92561 0.07451 2.16641 199 194 214
2.01917 0.07451 2.16641 199 194 214
1.81279 0.07469 2.16657 199 194 214
2.16932 0.17242 2.16641 199 194 214
1.91024 1.16701 2.16641 199 194 214
2.16932 1.16701 2.16641 199 194 214
1.92561 -0.069 2.16641 199 194 214
2.01917 -0.069 2.16641 199 194 214
2.07438 0.07451 2.16641 199 194 214
2.07438 -0.069 2.16641 199 194 214
2.16932 -0.069 2.16641 199 194 214
2.14874 1.19602 2.16641 199 194 214
1.93082 1.19602 2.16641 199 194 214
0.36083 0.31659 2.16641 193 189 208
0.36083 0.31659 2.02581 193 189 208
1.91024 0.31659 2.02581 193 189 208
1.91024 0.31659 2.16641 193 189 208
1.91024 1.16701 2.16641 193 189 208
1.91024 1.16701 2.02581 193 189 208
2.16932 0.17242 2.02581 193 189 208
2.16932 1.16701 2.02581 193 189 208
2.16932 1.16701 2.16641 193 189 208
2.16932 0.17242 2.16641 193 189 208
1.92561 0.17242 2.02581 193 189 208
1.8124 0.17242 2.02581 193 189 208
1.81279 0.07469 2.02565 193 189 208
1.8124 0.17242 2.16641 193 189 208
1.81279 0.07469 2.16657 193 189 208
1.92561 0.07451 2.02581 193 189 208
1.92561 0.07451 2.16641 193 189 208
0.36083 0.17242 2.02581 193 189 208
2.01917 0.07451 2.02581 193 189 208
2.01917 -0.069 2.02581 193 189 208
1.92561 -0.069 2.02581 193 189 208
2.07438 0.07451 2.02581 193 189 208
0.36083 0.17242 2.16641 193 189 208
2.07438 0.07451 2.16641 193 189 208
2.07438 -0.069 2.02581 193 189 208
2.07438 -0.069 2.16641 193 189 208
2.16932 -0.069 2.02581 193 189 208
2.16932 -0.069 2.16641 193 189 208
1.93082 1.19602 2.02581 193 189 208
2.14874 1.19602 2.02581 193 189 208
2.14874 1.19602 2.16641 193 189 208
1.93082 1.19602 2.16641 193 189 208
1.92561 -0.069 2.16641 193 189 208
2.01917 -0.069 2.16641 193 189 208
2.01917 0.07451 2.16641 193 189 208
0.21722 -1.39978 1.91556 177 140 136
0.21722 -1.39978 2.00622 177 140 136
0.21722 -0.6766 2.00622 177 140 136
0.21722 -0.6766 1.91556 177 140 136
-0.21722 -1.39978 1.91556 177 140 136
-0.21722 -1.39978 2.00622 177 140 136
-0.21722 -0.6766 2.00622 177 140 136
-0.21722 -0.6766 1.91556 177 140 136
0.28769 -1.37227 1.9267 255 255 255
0.28769 -1.37227 2.00612 255 255 255
0.34395 -1.37227 2.00612 255 255 255
0.34395 -1.37227 1.9267 255 255 255
0.34395 -0.98349 2.00612 255 255 255
0.28769 -0.98349 2.00612 255 255 255
0.34395 -0.98349 1.9267 255 255 255
0.28769 -0.98349 1.9267 255 255 255
0.30468 -0.94423 2.54007 199 195 214
-0.30468 -0.94423 2.54007 199 195 214
-0.35035 -0.89752 2.54007 199 195 214
0.35035 -0.89752 2.54007 199 195 214
0.35035 -0.29024 2.54007 199 195 214
-0.35035 -0.29024 2.54007 199 195 214
0.30468 -0.24352 2.54007 199 195 214
-0.30468 -0.24352 2.54007 199 195 214
0.38928 -0.93125 2.26429 193 189 208
0.38928 -0.93125 2.49936 193 189 208
0.38928 -0.2565 2.49936 193 189 208
0.33854 -0.98316 2.301 193 189 208
0.33854 -0.98316 2.46308 193 189 208
0.33854 -0.98316 2.49936 193 189 208
0.35035 -0.89752 2.54007 193 189 208
0.30468 -0.94423 2.54007 193 189 208
0.35035 -0.29024 2.54007 193 189 208
0.30468 -0.24352 2.54007 193 189 208
0.33854 -0.20459 2.49936 193 189 208
0.33854 -0.20459 1.81024 193 189 208
0.38928 -0.2565 1.81024 193 189 208
-0.33854 -0.20459 2.49936 193 189 208
-0.30468 -0.24352 2.54007 193 189 208
0.35035 -0.29024 1.75715 193 189 208
0.30468 -0.24352 1.75715 193 189 208
0.16927 -0.20459 2.1548 193 189 208
0.16927 -0.20459 1.81024 193 189 208
-0.30468 -0.24352 1.75715 193 189 208
-0.35035 -0.29024 1.75715 193 189 208
0.33875 -1.39283 1.75715 193 189 208
0.38928 -0.68408 1.93044 193 189 208
0.38937 -1.44929 1.81024 193 189 208
0.38928 -0.68408 2.11117 193 189 208
0.38937 -1.53912 2.11117 193 189 208
0.38937 -1.53912 2.26429 193 189 208
0.33877 -1.50192 2.301 193 189 208
-0.16927 -0.20459 1.81024 193 189 208
0.38937 -1.44929 1.93044 193 189 208
-0.33854 -0.20459 1.81024 193 189 208
-0.38928 -0.2565 1.81024 193 189 208
-0.38928 -0.2565 2.49936 193 189 208
-0.35035 -0.29024 2.54007 193 189 208
-0.38928 -0.93125 2.49936 193 189 208
-0.35035 -0.89752 2.54007 193 189 208
-0.33854 -0.98316 2.49936 193 189 208
-0.33854 -0.98316 2.46308 193 189 208
-0.30468 -0.94423 2.54007 193 189 208
-0.16927 -0.20459 2.1548 193 189 208
-0.33854 -0.98316 2.301 193 189 208
-0.38928 -0.93125 2.26429 193 189 208
-0.09246 -0.98316 2.301 193 189 208
-0.33854 -0.96654 2.46308 193 189 208
-0.33854 -0.96654 2.301 193 189 208
0.09246 -0.98316 2.301 193 189 208
0.33854 -0.96654 2.46308 193 189 208
0.33854 -0.96654 2.301 193 189 208
0.16927 0.10274 2.1548 193 189 208
0.16927 0.10274 1.81024 193 189 208
-0.16927 0.10274 1.81024 193 189 208
-0.16927 0.10274 2.1548 193 189 208
0.3388 -1.58617 2.11117 193 189 208
0.3388 -1.58617 2.26429 193 189 208
0.29224 -1.55108 2.301 193 189 208
0.09021 -1.58617 2.26429 193 189 208
0.09021 -1.55097 2.301 193 189 208
0.09018 -1.58617 2.32386 193 189 208
0.09019 -1.55099 2.35965 193 189 208
0.09021 -1.40663 2.35965 193 189 208
0.09021 -1.40663 2.301 193 189 208
0.33629 -1.50261 2.11117 193 189 208
0.30192 -1.53913 2.11117 193 189 208
0.11734 -1.58617 2.11117 193 189 208
0.06202 -1.58617 2.32386 193 189 208
0.06203 -1.58617 2.27852 193 189 208
0.33625 -0.68408 2.11117 193 189 208
0.33625 -0.68408 1.93044 193 189 208
0 -1.58617 2.32386 193 189 208
0.04602 -1.58617 2.32386 193 189 208
0 -1.58617 2.27852 193 189 208
-0.04603 -1.58617 2.27852 193 189 208
-0.04602 -1.58617 2.32386 193 189 208
0.04603 -1.58617 2.27852 193 189 208
0 -1.58617 2.26429 193 189 208
-0.06202 -1.58617 2.32386 193 189 208
-0.09019 -1.55099 2.35965 193 189 208
-0.09018 -1.58617 2.32386 193 189 208
-0.09021 -1.55097 2.301 193 189 208
-0.09021 -1.40663 2.35965 193 189 208
-0.09021 -1.40663 2.301 193 189 208
-0.09021 -1.58617 2.26429 193 189 208
-0.29224 -1.55108 2.301 193 189 208
-0.3388 -1.58617 2.26429 193 189 208
-0.38937 -1.53912 2.26429 193 189 208
-0.3388 -1.58617 2.11117 193 189 208
-0.38937 -1.53912 2.11117 193 189 208
-0.33877 -1.50192 2.301 193 189 208
-0.33629 -1.50261 2.11117 193 189 208
-0.30192 -1.53913 2.11117 193 189 208
-0.11734 -1.58617 2.11117 193 189 208
-0.38928 -0.68408 2.11117 193 189 208
-0.33625 -0.68408 2.11117 193 189 208
-0.38928 -0.68408 1.93044 193 189 208
-0.33625 -0.68408 1.93044 193 189 208
-0.11734 -1.53914 2.11117 193 189 208
-0.08285 -1.58617 2.06119 193 189 208
0.08285 -1.58617 2.06119 193 189 208
0.08285 -1.53914 2.06119 193 189 208
-0.08285 -1.53914 2.06119 193 189 208
0.11734 -1.53914 2.11117 193 189 208
-0.06203 -1.58617 2.27852 193 189 208
0.2924 -1.4422 1.75715 193 189 208
0.3388 -1.49634 1.81024 193 189 208
0.3388 -1.49634 1.93044 193 189 208
-0.2924 -1.4422 1.75715 193 189 208
-0.33875 -1.39283 1.75715 193 189 208
-0.3388 -1.49634 1.81024 193 189 208
-0.38937 -1.44929 1.81024 193 189 208
-0.38937 -1.44929 1.93044 193 189 208
-0.3388 -1.49634 1.93044 193 189 208
0.09021 -1.40663 2.301 199 195 214
-0.09021 -1.40663 2.301 199 195 214
-0.09246 -0.98316 2.301 199 195 214
0.09246 -0.98316 2.301 199 195 214
-0.33854 -0.98316 2.301 199 195 214
-0.33877 -1.50192 2.301 199 195 214
-0.09021 -1.55097 2.301 199 195 214
-0.29224 -1.55108 2.301 199 195 214
0.33854 -0.98316 2.301 199 195 214
0.33877 -1.50192 2.301 199 195 214
0.09021 -1.55097 2.301 199 195 214
0.29224 -1.55108 2.301 199 195 214
0.33625 -0.68408 2.11117 117 76 83
0.11734 -1.53914 2.11117 117 76 83
0.30192 -1.53913 2.11117 117 76 83
0.33629 -1.50261 2.11117 117 76 83
-0.11734 -1.53914 2.11117 117 76 83
-0.33625 -0.68408 2.11117 117 76 83
0.33625 -0.68408 1.93044 117 76 83
-0.33625 -0.68408 1.93044 117 76 83
-0.3363 -1.41277 1.93044 117 76 83
0.3363 -1.41277 1.93044 117 76 83
-0.30192 -1.53913 2.11117 117 76 83
-0.33629 -1.50261 2.11117 117 76 83
-0.29992 -1.44929 1.93044 117 76 83
0.29992 -1.44929 1.93044 117 76 83
0.12273 -0.96654 2.32107 193 189 208
0.09246 -0.96654 2.301 193 189 208
0.27247 -0.96654 2.41994 193 189 208
0.09246 -0.98316 2.301 199 194 214
0.09246 -0.96654 2.301 199 194 214
0.27247 -0.96654 2.301 199 194 214
0.33854 -0.96654 2.301 199 194 214
0.33854 -0.98316 2.301 199 194 214
0.09019 -1.55099 2.35965 199 195 214
-0.09019 -1.55099 2.35965 199 195 214
-0.09021 -1.40663 2.35965 199 195 214
0.09021 -1.40663 2.35965 199 195 214
0.33625 -0.68408 1.93044 199 194 214
0.38928 -0.68408 1.93044 199 194 214
0.38937 -1.44929 1.93044 199 194 214
0.3363 -1.41277 1.93044 199 194 214
0.29992 -1.44929 1.93044 199 194 214
0.3388 -1.49634 1.93044 199 194 214
-0.3388 -1.49634 1.93044 199 194 214
-0.29992 -1.44929 1.93044 199 194 214
-0.38937 -1.44929 1.93044 199 194 214
-0.3363 -1.41277 1.93044 199 194 214
-0.33625 -0.68408 1.93044 199 194 214
-0.38928 -0.68408 1.93044 199 194 214
-0.28769 -1.37227 1.9267 255 255 255
-0.34395 -1.37227 1.9267 255 255 255
-0.34395 -1.37227 2.00612 255 255 255
-0.28769 -1.37227 2.00612 255 255 255
-0.34395 -0.98349 2.00612 255 255 255
-0.28769 -0.98349 2.00612 255 255 255
-0.34395 -0.98349 1.9267 255 255 255
-0.28769 -0.98349 1.9267 255 255 255
-0.12273 -0.96654 2.32107 193 189 208
-0.27247 -0.96654 2.41994 193 189 208
-0.09246 -0.96654 2.301 193 189 208
-0.33854 -0.96654 2.301 199 194 214
-0.27247 -0.96654 2.301 199 194 214
-0.09246 -0.96654 2.301 199 194 214
-0.09246 -0.98316 2.301 199 194 214
-0.33854 -0.98316 2.301 199 194 214
0.16927 0.10274 2.1548 199 195 214
0.16927 -0.20459 2.1548 199 195 214
-0.16927 -0.20459 2.1548 199 195 214
-0.16927 0.10274 2.1548 199 195 214
0.4139 0.09178 1.25804 193 189 208
0.4139 0.09178 2.19935 193 189 208
0.4139 0.82598 2.19935 193 189 208
0.4139 0.82598 1.25804 193 189 208
0.36083 0.04498 2.19935 193 189 208
0.36083 0.04498 1.25804 193 189 208
0.36561 0.13461 2.25117 193 189 208
0.31874 0.09327 2.25117 193 189 208
0.36561 0.78315 2.25117 193 189 208
0.31807 0.09403 1.21178 193 189 208
0.36485 0.13529 1.21178 193 189 208
0.36485 0.78247 1.21178 193 189 208
0.36083 0.87278 1.25804 193 189 208
0.36083 0.87278 2.19935 193 189 208
0.31874 0.82449 2.25117 193 189 208
-0.36083 0.87278 2.19935 193 189 208
-0.31874 0.82449 2.25117 193 189 208
0.31807 0.82373 1.21178 193 189 208
-0.36083 0.04498 1.25804 193 189 208
-0.31807 0.09403 1.21178 193 189 208
-0.4139 0.82598 2.19935 193 189 208
-0.36083 0.87278 1.25804 193 189 208
-0.4139 0.82598 1.25804 193 189 208
-0.36561 0.78315 2.25117 193 189 208
-0.36485 0.78247 1.21178 193 189 208
-0.31807 0.82373 1.21178 193 189 208
-0.36485 0.13529 1.21178 193 189 208
-0.4139 0.09178 1.25804 193 189 208
-0.36083 0.04498 2.19935 193 189 208
-0.4139 0.09178 2.19935 193 189 208
-0.36561 0.13461 2.25117 193 189 208
-0.31874 0.09327 2.25117 193 189 208
0.31874 0.09327 2.25117 199 195 214
0.09206 0.35043 2.25117 199 195 214
0.11784 0.37317 2.25117 199 195 214
0.36561 0.13461 2.25117 199 195 214
0.11784 0.56143 2.25117 199 195 214
0.36561 0.78315 2.25117 199 195 214
0.09206 0.58417 2.25117 199 195 214
0.31874 0.82449 2.25117 199 195 214
-0.31874 0.82449 2.25117 199 195 214
-0.09206 0.58417 2.25117 199 195 214
-0.31874 0.09327 2.25117 199 195 214
-0.09206 0.35043 2.25117 199 195 214
-0.11784 0.37317 2.25117 199 195 214
-0.36561 0.13461 2.25117 199 195 214
-0.11784 0.56143 2.25117 199 195 214
-0.36561 0.78315 2.25117 199 195 214
0.09206 0.35043 2.25117 193 189 208
0.09209 0.35087 2.50388 193 189 208
0.1177 0.37463 2.50388 193 189 208
0.11784 0.37317 2.25117 193 189 208
0.1177 0.56045 2.50388 193 189 208
0.11784 0.56143 2.25117 193 189 208
-0.09206 0.35043 2.25117 193 189 208
-0.09209 0.35087 2.50388 193 189 208
-0.1177 0.37463 2.50388 193 189 208
-0.11784 0.37317 2.25117 193 189 208
-0.1177 0.56045 2.50388 193 189 208
-0.11784 0.56143 2.25117 193 189 208
-0.08288 0.36253 2.52526 193 189 208
-0.10593 0.38392 2.52526 193 189 208
-0.10593 0.55116 2.52526 193 189 208
-0.09209 0.58421 2.50388 193 189 208
-0.09206 0.58417 2.25117 193 189 208
0.09209 0.58421 2.50388 193 189 208
0.09206 0.58417 2.25117 193 189 208
-0.08288 0.57254 2.52526 193 189 208
0.08288 0.57254 2.52526 193 189 208
0.10593 0.55116 2.52526 193 189 208
0.08288 0.36253 2.52526 193 189 208
0.10593 0.38392 2.52526 193 189 208
0.10593 0.38392 2.52526 199 195 214
0.08288 0.36253 2.52526 199 195 214
-0.08288 0.36253 2.52526 199 195 214
-0.10593 0.38392 2.52526 199 195 214
0.10593 0.55116 2.52526 199 195 214
-0.10593 0.55116 2.52526 199 195 214
-0.08288 0.57254 2.52526 199 195 214
0.08288 0.57254 2.52526 199 195 214
-0.19807 0.84704 1.68869 199 195 214
-0.14366 1.39789 1.68875 199 195 214
0.14366 1.39789 1.68875 199 195 214
0.19807 0.84704 1.68869 199 195 214
-0.06334 1.51927 2.64505 199 194 214
-0.06334 1.69229 2.64477 199 194 214
0.06334 1.69229 2.64477 199 194 214
0.06334 1.51927 2.64505 199 194 214
0.08427 1.51923 2.62128 199 194 214
0.08427 1.69225 2.62101 199 194 214
-0.08427 1.69225 2.62101 199 194 214
-0.08427 1.51923 2.62128 199 194 214
-0.07857 1.69225 2.31008 193 189 208
-0.13495 1.69262 1.3365 193 189 208
0.13495 1.69262 1.3365 193 189 208
0.07857 1.69225 2.31008 193 189 208
-0.13495 1.42273 1.71624 193 189 208
-0.07857 1.51923 2.31035 193 189 208
0.14366 1.65304 1.29248 193 189 208
0.14366 1.39789 1.68875 193 189 208
0.19807 0.84704 1.29255 193 189 208
0.19807 0.84704 1.68869 193 189 208
0.13495 1.42273 1.71624 193 189 208
-0.14366 1.65304 1.29248 193 189 208
-0.14366 1.39789 1.68875 193 189 208
-0.19807 0.84704 1.29255 193 189 208
-0.19807 0.84704 1.68869 193 189 208
0.07857 1.51923 2.31035 193 189 208
-0.08427 1.69225 2.62101 193 189 208
0.08427 1.69225 2.62101 193 189 208
0.17411 1.69225 2.31008 193 189 208
0.17411 1.51923 2.31035 193 189 208
0.08427 1.51923 2.62128 193 189 208
-0.17411 1.69225 2.31008 193 189 208
-0.08427 1.51923 2.62128 193 189 208
-0.17411 1.51923 2.31035 193 189 208
-0.06334 1.69229 2.64477 193 189 208
0.06334 1.69229 2.64477 193 189 208
0.06334 1.51927 2.64505 193 189 208
-0.06334 1.51927 2.64505 193 189 208
-0.06203 -1.57731 2.27852 130 127 141
-0.06202 -1.57731 2.32386 130 127 141
-0.04602 -1.57731 2.32386 130 127 141
-0.04603 -1.57731 2.27852 130 127 141
-0.06203 -1.58617 2.27852 130 127 141
-0.04603 -1.58617 2.27852 130 127 141
-0.04602 -1.58617 2.32386 130 127 141
-0.06202 -1.58617 2.32386 130 127 141
0.04603 -1.57731 2.27852 130 127 141
0.04602 -1.57731 2.32386 130 127 141
0.06202 -1.57731 2.32386 130 127 141
0.06203 -1.57731 2.27852 130 127 141
0.04603 -1.58617 2.27852 130 127 141
0.06203 -1.58617 2.27852 130 127 141
0.06202 -1.58617 2.32386 130 127 141
0.04602 -1.58617 2.32386 130 127 141
-1.33501 1.00145 2.12906 199 194 214
-1.9234 0.30287 2.12906 199 194 214
-1.9234 1.00145 2.12906 199 194 214
-1.04761 0.72568 2.12906 199 194 214
-1.04761 1.14829 2.12906 199 194 214
-0.36083 0.30287 2.12906 199 194 214
-0.36083 0.72568 2.12906 199 194 214
-1.33501 1.14829 2.12906 199 194 214
-1.31228 1.17634 2.12906 199 194 214
-1.07034 1.17634 2.12906 199 194 214
-1.07034 1.17634 2.06416 164 137 181
-1.07034 1.17634 2.12906 164 137 181
-1.31228 1.17634 2.12906 164 137 181
-1.31228 1.17634 2.06416 164 137 181
-1.04761 1.14829 2.06416 164 137 181
-1.04761 1.14829 2.12906 164 137 181
-1.33501 1.14829 2.06416 164 137 181
-1.33501 1.00145 2.06416 164 137 181
-1.33501 1.14829 2.12906 164 137 181
-1.33501 1.00145 2.12906 164 137 181
-1.04761 0.72568 2.06416 164 137 181
-1.9234 0.30287 2.06416 164 137 181
-1.9234 1.00145 2.06416 164 137 181
-0.36083 0.30287 2.06416 164 137 181
-0.36083 0.72568 2.06416 164 137 181
-0.36083 0.72568 2.12906 164 137 181
-1.04761 0.72568 2.12906 164 137 181
-1.9234 1.00145 2.12906 164 137 181
-0.36083 0.17242 2.16641 199 194 214
-1.8124 0.17242 2.16641 199 194 214
-1.91024 0.31659 2.16641 199 194 214
-0.36083 0.31659 2.16641 199 194 214
-1.92561 0.17242 2.16641 199 194 214
-1.92561 0.07451 2.16641 199 194 214
-2.01917 0.07451 2.16641 199 194 214
-1.81279 0.07469 2.16657 199 194 214
-2.16932 0.17242 2.16641 199 194 214
-1.91024 1.16701 2.16641 199 194 214
-2.16932 1.16701 2.16641 199 194 214
-1.92561 -0.069 2.16641 199 194 214
-2.01917 -0.069 2.16641 199 194 214
-2.07438 0.07451 2.16641 199 194 214
-2.07438 -0.069 2.16641 199 194 214
-2.16932 -0.069 2.16641 199 194 214
-2.14874 1.19602 2.16641 199 194 214
-1.93082 1.19602 2.16641 199 194 214
-0.36083 0.31659 2.16641 193 189 208
-1.91024 0.31659 2.16641 193 189 208
-1.91024 0.31659 2.02581 193 189 208
-0.36083 0.31659 2.02581 193 189 208
-1.91024 1.16701 2.16641 193 189 208
-1.91024 1.16701 2.02581 193 189 208
-2.16932 0.17242 2.02581 193 189 208
-2.16932 1.16701 2.02581 193 189 208
-2.16932 1.16701 2.16641 193 189 208
-2.16932 0.17242 2.16641 193 189 208
-1.92561 0.17242 2.02581 193 189 208
-1.8124 0.17242 2.02581 193 189 208
-1.81279 0.07469 2.02565 193 189 208
-1.8124 0.17242 2.16641 193 189 208
-1.81279 0.07469 2.16657 193 189 208
-1.92561 0.07451 2.02581 193 189 208
-1.92561 0.07451 2.16641 193 189 208
-0.36083 0.17242 2.02581 193 189 208
-2.01917 0.07451 2.02581 193 189 208
-2.01917 -0.069 2.02581 193 189 208
-1.92561 -0.069 2.02581 193 189 208
-2.07438 0.07451 2.02581 193 189 208
-0.36083 0.17242 2.16641 193 189 208
-2.07438 0.07451 2.16641 193 189 208
-2.07438 -0.069 2.02581 193 189 208
-2.07438 -0.069 2.16641 193 189 208
-2.16932 -0.069 2.02581 193 189 208
-2.16932 -0.069 2.16641 193 189 208
-1.93082 1.19602 2.02581 193 189 208
-1.93082 1.19602 2.16641 193 189 208
-2.14874 1.19602 2.16641 193 189 208
-2.14874 1.19602 2.02581 193 189 208
-2.01917 -0.069 2.16641 193 189 208
-1.92561 -0.069 2.16641 193 189 208
-2.01917 0.07451 2.16641 193 189 208
-0.61184 0.21217 1.07085 193 189 208
-0.61184 0.70559 1.07085 193 189 208
-0.61184 0.70559 1.69999 193 189 208
-0.61184 0.21217 1.69999 193 189 208
-0.55878 0.16537 1.69999 193 189 208
-0.55878 0.16537 1.07085 193 189 208
-0.57573 0.23997 1.75181 193 189 208
-0.52541 0.19558 1.75181 193 189 208
-0.57573 0.67779 1.75181 193 189 208
-0.52541 0.72218 1.75181 193 189 208
-0.55878 0.75239 1.69999 193 189 208
-0.55878 0.75239 1.07085 193 189 208
-0.23783 0.75239 1.69999 193 189 208
-0.2712 0.72218 1.75181 193 189 208
-0.56279 0.66209 1.0246 193 189 208
-0.51602 0.70334 1.0246 193 189 208
-0.56279 0.25567 1.0246 193 189 208
-0.51602 0.21442 1.0246 193 189 208
-0.23783 0.16537 1.07085 193 189 208
-0.28059 0.21442 1.0246 193 189 208
-0.18477 0.70559 1.69999 193 189 208
-0.23783 0.75239 1.07085 193 189 208
-0.18477 0.70559 1.07085 193 189 208
-0.22087 0.67779 1.75181 193 189 208
-0.18477 0.21217 1.69999 193 189 208
-0.22087 0.23997 1.75181 193 189 208
-0.23783 0.16537 1.69999 193 189 208
-0.18477 0.21217 1.07085 193 189 208
-0.2712 0.19558 1.75181 193 189 208
-0.23382 0.66209 1.0246 193 189 208
-0.28059 0.70334 1.0246 193 189 208
-0.23382 0.37307 1.0246 193 189 208
-0.23382 0.25567 1.0246 193 189 208
-0.23382 0.37307 0.86706 193 189 208
-0.23382 0.40728 0.83548 193 189 208
-0.23382 0.8912 0.83548 193 189 208
-0.46471 0.37307 1.0246 193 189 208
-0.46471 0.37307 0.86706 193 189 208
-0.46471 0.40728 0.83548 193 189 208
-0.46471 0.66209 1.0246 193 189 208
-0.46471 0.8912 0.83548 193 189 208
-0.37351 0.8912 0.68459 193 189 208
-0.3736 0.89144 0.42435 193 189 208
-0.46437 0.89144 0.42435 193 189 208
-0.32495 0.89132 0.68473 193 189 208
-0.32493 0.89144 0.42435 193 189 208
-0.23415 0.89144 0.42435 193 189 208
-0.32495 1.03483 0.68473 193 189 208
-0.32493 1.03483 0.42435 193 189 208
-0.38135 0.89144 0.41188 193 189 208
-0.45399 0.89144 0.41188 193 189 208
-0.38135 1.03483 0.41188 193 189 208
-0.45399 1.03483 0.41188 193 189 208
-0.3736 1.03483 0.42435 193 189 208
-0.46437 1.03483 0.42435 193 189 208
-0.37351 1.03483 0.68459 193 189 208
-0.46471 1.03483 1.0246 193 189 208
-0.23382 1.03483 1.0246 193 189 208
-0.26686 1.03483 1.21367 193 189 208
-0.26686 0.8912 1.21367 193 189 208
-0.23382 0.8912 1.0246 193 189 208
-0.43167 1.03483 1.21367 193 189 208
-0.46471 0.8912 1.0246 193 189 208
-0.43167 0.8912 1.21367 193 189 208
-0.28181 0.8912 1.23184 193 189 208
-0.28181 1.03483 1.23184 193 189 208
-0.41671 0.8912 1.23184 193 189 208
-0.41671 1.03483 1.23184 193 189 208
-0.46471 0.70334 1.0246 193 189 208
-0.57573 0.23997 1.75181 199 195 214
-0.22087 0.23997 1.75181 199 195 214
-0.2712 0.19558 1.75181 199 195 214
-0.52541 0.19558 1.75181 199 195 214
-0.57573 0.67779 1.75181 199 195 214
-0.22087 0.67779 1.75181 199 195 214
-0.52541 0.72218 1.75181 199 195 214
-0.2712 0.72218 1.75181 199 195 214
-0.23382 0.66209 1.0246 199 195 214
-0.28059 0.70334 1.0246 199 195 214
-0.23382 0.8912 1.0246 199 195 214
-0.46471 0.8912 1.0246 199 195 214
-0.46471 0.70334 1.0246 199 195 214
-0.28181 1.03483 1.23184 199 195 214
-0.28181 0.8912 1.23184 199 195 214
-0.41671 0.8912 1.23184 199 195 214
-0.41671 1.03483 1.23184 199 195 214
-0.31717 1.03483 0.41188 193 189 208
-0.31717 0.89144 0.41188 193 189 208
-0.24453 0.89144 0.41188 193 189 208
-0.24453 1.03483 0.41188 193 189 208
-0.23415 1.03483 0.42435 193 189 208
0.14116 -0.4342 2.52785 193 189 208
0.14116 -0.4342 2.82185 193 189 208
0.16626 -0.4571 2.82185 193 189 208
0.16626 -0.4571 2.52785 193 189 208
0.14116 -0.2917 2.52785 193 189 208
0.14116 -0.2917 2.82185 193 189 208
0.30441 -0.4571 2.52785 193 189 208
0.30441 -0.4571 2.82185 193 189 208
0.32948 -0.4342 2.52785 193 189 208
0.32948 -0.4342 2.82185 193 189 208
0.32948 -0.2917 2.82185 193 189 208
0.32948 -0.2917 2.52785 193 189 208
0.17777 -0.44141 2.84493 193 189 208
0.15686 -0.42232 2.84493 193 189 208
0.15686 -0.30357 2.84493 193 189 208
0.16626 -0.26879 2.82185 193 189 208
0.16626 -0.26879 2.52785 193 189 208
0.30441 -0.26879 2.82185 193 189 208
0.30441 -0.26879 2.52785 193 189 208
0.17777 -0.28448 2.84493 193 189 208
0.2929 -0.28448 2.84493 193 189 208
0.31378 -0.30357 2.84493 193 189 208
0.2929 -0.44141 2.84493 193 189 208
0.31378 -0.42232 2.84493 193 189 208
0.31378 -0.42232 2.84493 199 194 214
0.2929 -0.44141 2.84493 199 194 214
0.17777 -0.44141 2.84493 199 194 214
0.15686 -0.42232 2.84493 199 194 214
0.31378 -0.30357 2.84493 199 194 214
0.15686 -0.30357 2.84493 199 194 214
0.2929 -0.28448 2.84493 199 194 214
0.17777 -0.28448 2.84493 199 194 214
-0.14116 -0.4342 2.52785 193 189 208
-0.16626 -0.4571 2.52785 193 189 208
-0.16626 -0.4571 2.82185 193 189 208
-0.14116 -0.4342 2.82185 193 189 208
-0.14116 -0.2917 2.52785 193 189 208
-0.14116 -0.2917 2.82185 193 189 208
-0.30441 -0.4571 2.52785 193 189 208
-0.30441 -0.4571 2.82185 193 189 208
-0.32948 -0.4342 2.52785 193 189 208
-0.32948 -0.4342 2.82185 193 189 208
-0.32948 -0.2917 2.82185 193 189 208
-0.32948 -0.2917 2.52785 193 189 208
-0.17777 -0.44141 2.84493 193 189 208
-0.15686 -0.42232 2.84493 193 189 208
-0.15686 -0.30357 2.84493 193 189 208
-0.16626 -0.26879 2.82185 193 189 208
-0.16626 -0.26879 2.52785 193 189 208
-0.30441 -0.26879 2.82185 193 189 208
-0.30441 -0.26879 2.52785 193 189 208
-0.17777 -0.28448 2.84493 193 189 208
-0.2929 -0.28448 2.84493 193 189 208
-0.31378 -0.30357 2.84493 193 189 208
-0.2929 -0.44141 2.84493 193 189 208
-0.31378 -0.42232 2.84493 193 189 208
-0.31378 -0.42232 2.84493 199 194 214
-0.15686 -0.42232 2.84493 199 194 214
-0.17777 -0.44141 2.84493 199 194 214
-0.2929 -0.44141 2.84493 199 194 214
-0.31378 -0.30357 2.84493 199 194 214
-0.15686 -0.30357 2.84493 199 194 214
-0.2929 -0.28448 2.84493 199 194 214
-0.17777 -0.28448 2.84493 199 194 214
-0.1956 -0.97766 2.36113 255 255 255
-0.22563 -0.97766 2.36113 255 255 255
-0.22563 -0.97766 2.40129 255 255 255
-0.1956 -0.97766 2.38112 255 255 255
-0.22563 -0.96806 2.40129 255 255 255
-0.22563 -0.96806 2.36113 255 255 255
-0.1956 -0.96806 2.36113 255 255 255
-0.1956 -0.96806 2.38112 255 255 255
-0.34241 -0.97076 2.4778 255 255 255
-0.24856 -0.97076 2.41621 255 255 255
-0.24856 -0.97076 2.3279 255 255 255
-0.34241 -0.97076 2.29249 255 255 255
-0.24856 -0.97076 2.29249 255 255 255
-0.24856 -0.97076 2.29249 55 77 56
-0.24856 -0.97076 2.3279 55 77 56
-0.21837 -0.97076 2.32788 55 77 56
-0.21837 -0.97076 2.31576 55 77 56
-0.14551 -0.97076 2.29249 55 77 56
-0.17254 -0.97076 2.31576 55 77 56
-0.17254 -0.97076 2.32785 55 77 56
-0.14551 -0.97076 2.32783 55 77 56
-0.06142 -0.97076 2.29249 255 255 255
-0.14551 -0.97076 2.29249 255 255 255
-0.14551 -0.97076 2.32783 255 255 255
-0.14551 -0.97076 2.34792 255 255 255
-0.14551 -0.97076 2.34792 33 24 24
-0.14551 -0.97076 2.32783 33 24 24
-0.17254 -0.97076 2.32785 33 24 24
-0.17254 -0.97076 2.36606 33 24 24
-0.17254 -0.97076 2.36606 28 20 20
-0.17254 -0.97076 2.32785 28 20 20
-0.21837 -0.97076 2.32788 28 20 20
-0.21837 -0.97076 2.39671 28 20 20
-0.17254 -0.97076 2.31576 28 20 20
-0.21837 -0.97076 2.31576 28 20 20
-0.21837 -0.97076 2.39671 33 24 24
-0.21837 -0.97076 2.32788 33 24 24
-0.24856 -0.97076 2.3279 33 24 24
-0.24856 -0.97076 2.41621 33 24 24
3 0 2 1
3 0 3 2
3 3 4 2
3 3 5 4
3 5 3 0
3 6 0 1
3 5 0 6
3 6 1 7
3 8 10 9
3 8 11 10
3 9 10 12
3 13 15 14
3 13 16 15
3 17 13 14
3 17 14 18
3 17 18 19
3 17 19 20
3 21 23 22
3 21 22 24
3 25 27 26
3 25 28 27
3 29 31 30
3 29 32 31
3 33 31 32
3 33 34 31
3 35 37 36
3 35 38 37
3 39 41 40
3 39 42 41
3 43 39 40
3 43 44 39
3 43 40 45
3 43 45 46
3 40 47 45
3 40 41 47
3 41 48 47
3 41 49 48
3 50 49 41
3 50 41 42
3 48 49 51
3 50 51 49
3 48 51 52
3 50 42 53
3 50 53 54
3 42 55 53
3 42 39 55
3 39 56 55
3 39 44 56
3 56 44 57
3 56 57 58
3 59 52 51
3 60 59 51
3 50 60 51
3 60 61 59
3 59 62 52
3 63 62 59
3 63 64 62
3 65 64 63
3 65 66 57
3 65 63 66
3 66 58 57
3 66 63 59
3 66 59 61
3 65 67 64
3 60 68 61
3 60 69 68
3 61 68 70
3 66 71 58
3 46 67 65
3 46 65 43
3 43 65 57
3 43 57 44
3 70 68 72
3 72 68 73
3 73 68 74
3 66 70 71
3 61 70 66
3 55 71 70
3 56 71 55
3 56 58 71
3 55 70 75
3 75 70 72
3 75 72 76
3 77 76 72
3 77 72 73
3 78 75 76
3 77 73 74
3 77 74 79
3 74 80 79
3 79 80 81
3 79 81 82
3 74 83 80
3 74 84 83
3 74 85 84
3 86 83 84
3 86 84 87
3 82 81 88
3 82 88 89
3 89 88 90
3 89 90 91
3 81 90 88
3 81 92 90
3 92 91 90
3 92 93 91
3 94 93 92
3 94 95 93
3 80 94 92
3 94 80 83
3 94 83 86
3 80 92 81
3 96 94 86
3 96 95 94
3 95 96 97
3 96 98 97
3 96 99 98
3 95 97 100
3 101 95 100
3 101 100 102
3 99 101 102
3 99 102 98
3 95 82 93
3 95 79 82
3 95 101 79
3 103 79 101
3 96 74 99
3 74 68 99
3 103 77 79
3 77 103 78
3 53 78 103
3 75 78 53
3 75 53 55
3 53 103 54
3 77 78 76
3 54 103 50
3 50 103 60
3 60 103 69
3 93 82 89
3 93 89 91
3 104 106 105
3 104 107 106
3 108 107 104
3 108 109 107
3 110 109 108
3 110 111 109
3 112 114 113
3 115 113 114
3 115 114 116
3 117 119 118
3 117 120 119
3 121 123 122
3 121 124 123
3 84 123 124
3 87 84 124
3 87 124 121
3 84 85 123
3 85 122 123
3 85 125 122
3 125 87 121
3 96 125 85
3 96 87 125
3 96 85 74
3 96 86 87
3 125 121 122
3 97 127 126
3 97 98 127
3 98 128 127
3 98 102 128
3 102 129 128
3 102 100 129
3 100 97 126
3 100 126 129
3 130 132 131
3 133 132 130
3 130 134 133
3 133 135 132
3 133 136 135
3 130 137 134
3 134 137 138
3 134 138 139
3 140 142 141
3 140 143 142
3 144 143 140
3 144 145 143
3 146 144 140
3 147 144 146
3 148 147 146
3 148 149 147
3 147 150 144
3 151 150 147
3 151 147 152
3 151 153 150
3 150 153 154
3 155 150 154
3 155 156 150
3 144 156 145
3 144 150 156
3 148 146 141
3 146 140 141
3 148 141 142
3 149 152 147
3 149 157 152
3 158 160 159
3 158 161 160
3 160 161 162
3 163 162 161
3 162 163 164
3 163 161 165
3 166 160 162
3 166 167 160
3 166 168 167
3 164 163 169
3 164 169 170
3 162 171 166
3 162 164 171
3 166 171 172
3 166 172 173
3 167 168 174
3 167 174 175
3 176 178 177
3 176 179 178
3 178 179 180
3 178 180 181
3 182 178 181
3 182 181 183
3 182 183 184
3 182 184 185
3 182 186 178
3 187 178 186
3 186 188 187
3 189 187 188
3 189 188 190
3 186 191 188
3 191 190 188
3 191 192 190
3 177 178 187
3 177 187 193
3 186 194 191
3 182 194 186
3 191 194 195
3 191 195 196
3 182 197 194
3 193 189 198
3 193 187 189
3 199 197 200
3 199 200 201
3 202 201 200
3 202 203 201
3 182 200 197
3 182 202 200
3 185 202 182
3 185 203 202
3 204 206 205
3 204 207 206
3 184 205 206
3 184 183 205
3 183 204 205
3 183 181 204
3 181 207 204
3 181 180 207
3 195 208 196
3 195 209 208
3 194 209 195
3 194 210 209
3 197 210 194
3 197 199 210
3 192 196 208
3 192 191 196
3 211 213 212
3 211 214 213
3 212 215 211
3 212 216 215
3 213 216 212
3 215 216 217
3 213 217 216
3 215 217 218
3 219 221 220
3 219 222 221
3 220 221 223
3 222 223 221
3 220 223 224
3 222 225 223
3 226 220 224
3 226 219 220
3 224 225 226
3 224 223 225
3 227 229 228
3 227 230 229
3 231 229 230
3 231 232 229
3 233 232 231
3 233 234 232
3 235 237 236
3 236 238 235
3 236 239 238
3 240 239 236
3 240 236 241
3 240 241 242
3 236 243 241
3 236 237 243
3 237 244 243
3 237 245 244
3 246 245 237
3 246 237 247
3 244 245 248
3 244 248 249
3 246 247 250
3 246 250 251
3 252 245 246
3 252 246 253
3 251 253 246
3 250 254 251
3 254 250 255
3 255 250 256
3 257 247 237
3 257 258 247
3 257 237 259
3 259 237 235
3 260 259 235
3 260 235 261
3 261 235 238
3 261 238 262
3 263 251 254
3 263 253 251
3 257 264 258
3 265 254 255
3 254 265 263
3 265 255 266
3 265 266 267
3 265 267 248
3 267 249 248
3 267 268 249
3 269 268 267
3 269 270 268
3 271 270 269
3 271 269 272
3 271 273 270
3 240 273 271
3 240 271 272
3 240 242 273
3 274 265 248
3 274 263 265
3 245 274 248
3 245 252 274
3 269 275 272
3 269 276 275
3 276 269 267
3 240 272 239
3 239 272 277
3 278 277 272
3 275 278 272
3 275 279 278
3 239 277 280
3 280 281 239
3 238 239 281
3 238 281 282
3 252 284 283
3 252 253 284
3 285 284 253
3 285 253 263
3 274 285 263
3 274 286 285
3 261 287 260
3 261 288 287
3 261 289 288
3 289 290 288
3 289 291 290
3 261 262 289
3 290 291 292
3 292 291 293
3 291 294 293
3 291 295 294
3 287 296 260
3 287 297 296
3 288 298 287
3 288 290 298
3 290 292 299
3 292 293 299
3 290 299 300
3 259 260 296
3 259 296 301
3 257 259 301
3 257 301 302
3 299 293 303
3 299 303 304
3 305 304 303
3 306 305 303
3 306 303 307
3 305 308 304
3 309 305 306
3 309 300 308
3 309 308 305
3 290 309 298
3 309 290 300
3 303 310 307
3 303 311 310
3 310 311 312
3 312 311 313
3 313 311 314
3 313 314 315
3 316 312 313
3 316 310 312
3 317 316 313
3 317 318 316
3 319 318 317
3 319 320 318
3 319 321 320
3 319 317 322
3 320 321 323
3 320 323 324
3 318 325 316
3 318 320 325
3 326 323 321
3 326 327 323
3 328 327 326
3 328 329 327
3 320 330 325
3 320 324 330
3 330 331 325
3 332 325 331
3 333 332 331
3 333 331 334
3 330 334 331
3 332 298 325
3 335 332 333
3 335 298 332
3 287 298 335
3 287 335 297
3 298 309 325
3 325 309 316
3 309 336 316
3 316 336 310
3 309 306 336
3 247 256 250
3 247 258 256
3 337 256 258
3 337 258 338
3 264 338 258
3 264 339 338
3 256 337 340
3 256 340 341
3 255 256 341
3 337 342 340
3 337 338 342
3 339 342 338
3 266 255 341
3 266 341 343
3 340 343 341
3 340 342 343
3 344 343 342
3 344 342 345
3 339 345 342
3 346 348 347
3 346 349 348
3 347 348 350
3 350 351 347
3 351 352 347
3 351 353 352
3 346 354 349
3 354 346 355
3 355 346 356
3 355 356 357
3 358 360 359
3 358 361 360
3 358 359 362
3 358 362 363
3 364 358 363
3 364 363 365
3 364 365 366
3 364 366 367
3 363 362 368
3 363 368 369
3 367 366 370
3 367 370 371
3 372 280 373
3 372 281 280
3 281 372 374
3 375 377 376
3 377 375 378
3 378 375 379
3 380 382 381
3 380 383 382
3 294 315 314
3 294 295 315
3 384 386 385
3 384 387 386
3 388 386 387
3 388 389 386
3 388 390 389
3 388 391 390
3 391 392 390
3 391 393 392
3 394 392 393
3 394 395 392
3 396 398 397
3 396 399 398
3 399 400 398
3 397 398 400
3 399 401 400
3 397 400 402
3 403 399 396
3 403 401 399
3 401 402 400
3 401 403 402
3 328 266 343
3 328 267 266
3 328 326 267
3 326 276 267
3 321 276 326
3 321 319 276
3 319 275 276
3 319 322 275
3 328 343 344
3 277 405 404
3 405 277 278
3 277 404 406
3 407 409 408
3 409 407 410
3 410 407 411
3 333 330 335
3 333 334 330
3 412 414 413
3 412 415 414
3 416 418 417
3 416 419 418
3 420 416 417
3 420 421 416
3 420 417 422
3 420 422 423
3 417 424 422
3 417 418 424
3 416 421 425
3 416 425 426
3 419 416 426
3 419 426 427
3 428 419 427
3 428 418 419
3 428 429 418
3 418 429 430
3 418 430 424
3 430 429 431
3 428 431 429
3 430 431 432
3 428 427 433
3 425 421 434
3 425 434 435
3 436 432 431
3 437 436 431
3 428 437 431
3 433 437 428
3 437 438 436
3 436 439 432
3 437 440 438
3 437 441 440
3 433 441 437
3 438 440 442
3 438 442 443
3 443 435 434
3 443 442 435
3 444 443 434
3 444 445 443
3 443 445 436
3 443 436 438
3 444 446 445
3 444 447 446
3 445 439 436
3 445 446 439
3 425 435 442
3 425 442 426
3 426 442 440
3 423 447 444
3 423 444 420
3 420 444 434
3 420 434 421
3 426 440 427
3 427 440 441
3 427 441 433
3 448 450 449
3 448 451 450
3 451 452 450
3 451 453 452
3 453 454 452
3 453 455 454
3 454 455 456
3 454 456 457
3 449 458 448
3 449 459 458
3 458 459 460
3 458 460 461
3 461 460 462
3 461 462 463
3 463 457 456
3 463 462 457
3 464 466 465
3 464 467 466
3 467 468 466
3 467 469 468
3 465 470 464
3 465 471 470
3 470 471 472
3 470 472 473
3 473 472 474
3 473 474 475
3 472 471 476
3 472 476 477
3 474 472 477
3 474 477 478
3 479 474 478
3 475 474 479
3 475 479 480
3 481 480 479
3 481 482 480
3 469 482 481
3 469 481 468
3 479 478 483
3 481 479 483
3 468 481 484
3 481 483 484
3 468 484 485
3 471 486 476
3 471 465 486
3 465 487 486
3 465 466 487
3 466 485 487
3 466 468 485
3 488 490 489
3 488 491 490
3 492 491 488
3 492 493 491
3 494 493 492
3 494 492 495
3 496 498 497
3 496 499 498
3 500 502 501
3 500 503 502
3 504 502 503
3 504 505 502
3 506 500 501
3 506 507 500
3 508 510 509
3 508 511 510
3 508 509 512
3 508 512 513
3 509 510 514
3 515 514 510
3 516 514 515
3 516 515 517
3 515 510 518
3 518 510 511
3 509 514 519
3 512 509 519
3 512 519 520
3 520 519 521
3 520 521 522
3 518 511 523
3 511 508 524
3 511 524 525
3 511 525 526
3 527 526 525
3 527 525 528
3 524 508 529
3 529 530 524
3 529 531 530
3 525 524 532
3 525 532 533
3 520 518 512
3 520 515 518
3 512 518 523
3 512 523 513
3 513 523 528
3 513 528 530
3 528 523 527
3 523 526 527
3 523 511 526
3 513 530 531
3 508 513 531
3 508 531 529
3 530 528 534
3 530 534 535
3 519 516 521
3 519 514 516
3 536 538 537
3 536 539 538
3 540 539 536
3 540 541 539
3 541 538 539
3 541 542 538
3 542 537 538
3 542 543 537
3 543 536 537
3 543 540 536
3 544 546 545
3 544 547 546
3 548 547 544
3 548 549 547
3 549 546 547
3 549 550 546
3 550 545 546
3 550 551 545
3 551 544 545
3 551 548 544
3 303 293 311
3 552 554 553
3 555 552 553
3 552 555 556
3 555 553 557
3 555 557 558
3 552 556 559
3 556 560 559
3 556 561 560
3 562 564 563
3 562 565 564
3 566 563 567
3 566 562 563
3 568 562 566
3 569 568 566
3 570 568 569
3 570 569 571
3 569 566 572
3 573 569 572
3 573 574 569
3 573 572 575
3 572 576 575
3 577 576 572
3 577 572 578
3 566 567 578
3 566 578 572
3 570 565 568
3 568 565 562
3 570 564 565
3 571 574 579
3 571 569 574
3 580 582 581
3 580 583 582
3 582 584 581
3 585 581 584
3 584 586 585
3 585 587 581
3 588 584 582
3 588 582 589
3 588 589 590
3 586 591 585
3 586 592 591
3 584 593 586
3 584 588 593
3 588 594 593
3 588 595 594
3 589 596 590
3 589 597 596
3 598 600 599
3 598 601 600
3 600 602 599
3 600 603 602
3 604 603 600
3 604 605 603
3 604 606 605
3 604 607 606
3 604 600 608
3 609 608 600
3 608 609 610
3 611 610 609
3 611 612 610
3 608 610 613
3 613 610 612
3 613 612 614
3 601 609 600
3 601 615 609
3 608 613 616
3 604 608 616
3 613 617 616
3 613 618 617
3 604 616 619
3 615 611 609
3 615 620 611
3 621 622 619
3 621 623 622
3 624 622 623
3 624 623 625
3 604 622 624
3 604 619 622
3 607 604 624
3 607 624 625
3 626 628 627
3 626 629 628
3 606 628 629
3 606 629 605
3 605 629 626
3 605 626 603
3 603 626 627
3 603 627 602
3 617 631 630
3 617 618 631
3 616 617 630
3 616 630 632
3 619 616 632
3 619 632 621
3 614 631 618
3 614 618 613
3 633 635 634
3 633 636 635
3 637 636 633
3 637 633 638
3 637 639 636
3 637 640 639
3 636 639 641
3 636 641 635
3 635 641 642
3 635 642 643
3 644 635 643
3 644 634 635
3 642 645 643
3 644 643 645
3 642 646 645
3 644 647 634
3 644 648 647
3 634 647 649
3 634 649 633
3 633 650 638
3 633 649 650
3 650 651 638
3 650 652 651
3 653 645 646
3 654 645 653
3 644 645 654
3 654 653 655
3 653 646 656
3 657 653 656
3 657 656 658
3 659 657 658
3 659 660 657
3 659 651 660
3 660 651 652
3 660 653 657
3 660 655 653
3 659 658 661
3 654 655 662
3 654 662 663
3 655 664 662
3 660 652 665
3 640 659 661
3 640 637 659
3 637 651 659
3 637 638 651
3 664 666 662
3 666 667 662
3 667 668 662
3 660 665 664
3 655 660 664
3 649 664 665
3 650 649 665
3 650 665 652
3 649 669 664
3 669 666 664
3 669 670 666
3 671 666 670
3 671 667 666
3 672 670 669
3 671 668 667
3 671 673 668
3 668 673 674
3 673 675 674
3 673 676 675
3 668 674 677
3 668 677 678
3 668 678 679
3 680 678 677
3 680 681 678
3 676 682 675
3 676 683 682
3 683 684 682
3 683 685 684
3 675 682 684
3 675 684 686
3 686 684 685
3 686 685 687
3 688 686 687
3 688 687 689
3 674 686 688
3 688 677 674
3 688 680 677
3 674 675 686
3 690 688 689
3 690 680 688
3 689 691 690
3 690 691 692
3 690 692 693
3 689 694 691
3 695 694 689
3 695 696 694
3 693 696 695
3 693 692 696
3 689 687 676
3 689 676 673
3 690 693 668
3 668 693 662
3 691 697 692
3 691 698 697
3 694 698 691
3 692 699 696
3 692 697 699
3 696 699 700
3 696 700 694
3 694 700 698
3 687 683 676
3 687 685 683
3 701 695 673
3 689 673 695
3 701 673 671
3 671 672 701
3 647 701 672
3 669 647 672
3 669 649 647
3 647 648 701
3 671 670 672
3 648 644 701
3 644 654 701
3 654 663 701
3 702 704 703
3 702 705 704
3 706 702 703
3 706 703 707
3 708 706 707
3 708 707 709
3 710 712 711
3 713 711 712
3 713 714 711
3 715 717 716
3 715 718 717
3 719 721 720
3 719 722 721
3 678 720 721
3 681 720 678
3 681 719 720
3 678 721 679
3 679 721 722
3 679 722 723
3 723 719 681
3 690 679 723
3 690 723 681
3 690 668 679
3 690 681 680
3 723 722 719
3 724 726 725
3 724 727 726
3 728 724 725
3 728 725 729
3 726 727 730
3 726 730 731
3 731 730 732
3 731 732 733
3 732 734 733
3 732 735 734
3 725 726 736
3 725 736 737
3 729 725 737
3 729 737 738
3 739 729 738
3 729 739 740
3 729 740 728
3 740 739 741
3 740 741 742
3 742 741 734
3 742 734 735
3 741 739 743
3 739 738 743
3 741 743 744
3 734 741 744
3 733 734 745
3 734 744 745
3 726 746 736
3 726 731 746
3 731 747 746
3 731 733 747
3 733 745 747
3 748 750 749
3 748 751 750
3 752 751 748
3 752 753 751
3 754 753 752
3 754 755 753
3 756 758 757
3 756 759 758
3 760 759 756
3 760 761 759
3 758 762 757
3 758 763 762
3 763 764 762
3 763 765 764
3 764 765 766
3 764 766 767
3 759 768 758
3 759 769 768
3 761 769 759
3 761 770 769
3 771 770 761
3 761 772 771
3 761 760 772
3 772 773 771
3 772 774 773
3 774 766 773
3 774 767 766
3 773 775 771
3 771 775 770
3 773 776 775
3 766 776 773
3 765 777 766
3 766 777 776
3 758 768 778
3 758 778 763
3 763 778 779
3 763 779 765
3 765 779 777
3 780 782 781
3 780 783 782
3 784 780 781
3 784 781 785
3 786 784 785
3 786 785 787
3 788 790 789
3 788 791 790
3 789 790 792
3 789 792 793
3 793 788 789
3 794 791 788
3 793 794 788
3 794 795 791
3 796 798 797
3 796 799 798
3 799 800 798
3 801 803 802
3 801 804 803
3 805 804 801
3 805 806 804
3 805 807 806
3 805 808 807
3 809 811 810
3 809 812 811
3 813 815 814
3 813 816 815
3 817 819 818
3 817 820 819
3 821 818 819
3 821 819 822
3 823 825 824
3 823 826 825
