mtllib Plusle.mtl
v 0.0573374 0.0342722 0.0873338
vt 0.502542 0.49644
vn 0.3998169 -0.541854 0.7392839
v -0.0608004 0.0884007 0.105309
vt 0.497305 0.498839
vn -0.188504 0.00678506 0.982049
v -0.0573374 0.0342722 0.0873338
vt 0.497458 0.49644
vn -0.3998169 -0.541854 0.7392839
v 0.0608004 0.0884007 0.105309
vt 0.502695 0.498839
vn 0.188504 0.00678499 0.982049
v 0 0.0169234 0
vt 0.5 0.495671
vn 0 -0.9999993 0.00121285
v 0.121601 0.0884007 0
vt 0.50539 0.498839
vn 0.9635 -0.0538189 -0.262243
v 0.0573382 0 0
vt 0.502542 0.494921
vn 0.138004 -0.9904272 -0.00297566
v 0.114675 0.0342722 0
vt 0.505083 0.49644
vn 0.9272478 -0.3744439 -0.00176051
v -0.121601 0.0884007 0
vt 0.49461 0.498839
vn -0.9635 -0.0538187 -0.262243
v -0.0469363 0.216044 0.0510107
vt 0.497919 0.504497
vn 0.0004248799 0.5924328 0.8056198
v 0.0573374 0.0342722 -0.10726
vn 0.416151 -0.464939 -0.781441
v -0.0573382 0 0
vt 0.497458 0.494921
vn -0.138004 -0.9904272 -0.00297575
v -0.0573374 0.0342722 -0.10726
vn -0.416151 -0.464939 -0.781441
v 0.0608004 0.0884007 -0.105309
vn 0.4928699 0.163492 -0.8546049
v 0.0469363 0.209052 -0.0738393
vt 0.50208 0.504187
vn 0.4569651 0.3994771 -0.7947332
v 0.0938725 0.217188 0
vt 0.504161 0.504548
vn 0.7826621 0.4921721 -0.3810601
v -0.114675 0.0342722 0
vt 0.494917 0.49644
vn -0.9272478 -0.3744439 -0.00176083
v -0.0608004 0.0884007 -0.105309
vn -0.4928699 0.163492 -0.8546049
v -0.0469362 0.209052 -0.0738393
vt 0.497919 0.504187
vn -0.4569648 0.3994768 -0.7947336
v -0.0938725 0.217188 0
vt 0.495839 0.504548
vn -0.7826618 0.4921719 -0.3810609
v 0.0469362 0.216044 0.0510107
vt 0.50208 0.504497
v 0 0.229166 0
vt 0.5 0.505079
vn 0 0.9987386 -0.05021158
v 0 0.23872 -0.124169
vt 0.18565 0.957103
vn 0 -0.8695279 -0.4938839
v 0 0.211861 -0.00844712
vt 0.18565 0.954845
vn 0 -0.9997284 0.02330431
v -0.0994681 0.235108 -0.00844712
vt 0.177291 0.956799
vn -0.4387317 -0.8982245 -0.02659368
v 0.0994681 0.235108 -0.00844712
vt 0.19401 0.956799
vn 0.4387317 -0.8982245 -0.02659368
v -0.11598 0.29862 -0.142972
vt 0.175903 0.962137
vn -0.5923678 -0.5414399 -0.5966098
v 0.11598 0.29862 -0.142972
vt 0.195397 0.962137
vn 0.5923678 -0.5414399 -0.5966098
v 0 0.316244 -0.187442
vt 0.18565 0.963618
vn 0 -0.258901 -0.9659039
v 0 0.244469 0.117917
vt 0.18565 0.957586
vn 0 -0.9225791 0.3858081
v -0.124306 0.377889 -0.152168
vt 0.175203 0.968799
vn -0.6869822 0.05190312 -0.7248182
v -0.171332 0.29862 -0.00844712
vt 0.171251 0.962137
vn -0.8613135 -0.5037763 -0.06594343
v -0.186862 0.370401 -0.00844712
vt 0.169946 0.968169
vn -0.9971489 0.0581232 -0.0481221
v 0.171332 0.29862 -0.00844712
vt 0.200049 0.962137
vn 0.8613135 -0.5037763 -0.06594343
v 0.124306 0.377889 -0.152168
vt 0.196097 0.968799
vn 0.6869822 0.05190312 -0.7248182
v 0.186862 0.370401 -0.00844712
vt 0.201354 0.968169
vn 0.9971489 0.0581232 -0.0481222
v -0.130522 0.287015 0.120548
vt 0.174681 0.961161
vn -0.6036909 -0.6634609 0.4420149
v 0.130522 0.287015 0.120548
vt 0.19662 0.961161
vn 0.6036909 -0.6634609 0.4420149
v 0 0.283127 0.171557
vt 0.18565 0.960835
vn 0 -0.6510563 0.7590294
v -0.10825 0.457159 -0.14041
vt 0.176553 0.975461
vn -0.581646 0.536997 -0.611001
v 0 0.435791 -0.180074
vt 0.18565 0.973665
vn 0 0.301415 -0.9534931
v 0.10825 0.457159 -0.14041
vt 0.194748 0.975461
vn 0.581646 0.536997 -0.611001
v 0.161827 0.457159 -0.00844712
vt 0.19925 0.975461
vn 0.8849406 0.4653678 -0.01769499
v 0.121823 0.441275 0.121416
vt 0.195888 0.975461
vn 0.5807568 0.4069238 0.7050777
v 0.140669 0.357147 0.123547
vt 0.197472 0.967055
vn 0.7206546 0.06744846 0.6900056
v -0.161827 0.457159 -0.00844712
vt 0.17205 0.975461
vn -0.8849406 0.4653678 -0.01769479
v -0.121823 0.441275 0.121416
vt 0.175412 0.975461
vn -0.5807568 0.4069238 0.7050777
v -0.140669 0.357147 0.123547
vt 0.173828 0.967055
vn -0.7206551 0.06744861 0.6900051
v 0.0994681 0.530661 -0.00844712
vt 0.19401 0.981638
vn 0.5270779 0.8497178 0.0129856
v 0 0.516926 -0.11668
vt 0.18565 0.980484
vn 0 0.843756 -0.536727
v -0.0994681 0.530661 -0.00844712
vt 0.177291 0.981638
vn -0.5270779 0.8497178 0.0129857
v 0 0.535648 0.091021
vt 0.18565 0.982057
vn 0 0.8451343 0.5345542
v 0 0.441275 0.171877
vt 0.18565 0.975461
vn 0 0.3313661 0.9435022
v 0 0.54684 -0.00844712
vt 0.18565 0.982998
vn 0 0.9961004 -0.08822703
vt 0.0403647 0.170461
vt 1.44064 0.296435
vt 1.44064 -0.392997
vt 1.44064 1.07563
vt 0.00780959 0.931759
v 0.0652611 0.315945 0.158932
vt 1.31091 -0.804209
vn 0.3913091 -0.220756 0.8933891
vt 2.47708 -1.39064
vt 0.144738 -1.32117
vt -0.0365812 -0.067964
v 0.0703346 0.351011 0.157285
vt 1.22025 -0.177605
vn 0.418047 0.136485 0.8981139
v -0.0652611 0.315945 0.158932
vn -0.3913091 -0.220756 0.8933891
v -0.0703346 0.351011 0.157285
vn -0.418047 0.136485 0.8981139
o merged_0_0_node
g polygon_0
usemtl hoppe_mat_id
f 1/1/1 2/2/2 3/3/3
f 1/1/1 4/4/4 2/2/2
f 1/1/1 3/3/3 5/5/5
f 1/1/1 6/6/6 4/4/4
f 1/1/1 5/5/5 7/7/7
f 1/1/1 8/8/8 6/6/6
f 1/1/1 7/7/7 8/8/8
f 2/2/2 9/9/9 3/3/3
f 2/2/2 4/4/4 10/10/10
f 5/5/5 11/1/11 7/7/7
f 5/5/5 3/3/3 12/11/12
f 5/5/5 13/3/13 11/1/11
f 5/5/5 12/11/12 13/3/13
f 7/7/7 11/1/11 8/8/8
f 6/6/6 8/8/8 14/4/14
f 6/6/6 14/4/14 15/12/15
f 6/6/6 15/12/15 16/13/16
f 11/1/11 13/3/13 14/4/14
f 11/1/11 14/4/14 8/8/8
f 9/9/9 17/14/17 3/3/3
f 9/9/9 18/2/18 17/14/17
f 9/9/9 19/15/19 18/2/18
f 9/9/9 20/16/20 19/15/19
f 18/2/18 15/12/15 14/4/14
f 18/2/18 14/4/14 13/3/13
f 18/2/18 13/3/13 17/14/17
f 18/2/18 19/15/19 15/12/15
f 17/14/17 12/11/12 3/3/3
f 17/14/17 13/3/13 12/11/12
f 4/4/4 21/17/10 10/10/10
f 16/13/16 15/12/15 22/18/21
f 16/13/16 22/18/21 21/17/10
f 22/18/21 19/15/19 20/16/20
f 22/18/21 20/16/20 10/10/10
f 22/18/21 15/12/15 19/15/19
f 22/18/21 10/10/10 21/17/10
f 23/19/22 24/20/23 25/21/24
f 23/19/22 26/22/25 24/20/23
f 23/19/22 25/21/24 27/23/26
f 23/19/22 28/24/27 26/22/25
f 23/19/22 27/23/26 29/25/28
f 23/19/22 29/25/28 28/24/27
f 24/20/23 30/26/29 25/21/24
f 24/20/23 26/22/25 30/26/29
f 27/23/26 31/27/30 29/25/28
f 27/23/26 25/21/24 32/28/31
f 27/23/26 33/29/32 31/27/30
f 27/23/26 32/28/31 33/29/32
f 28/24/27 34/30/33 26/22/25
f 28/24/27 29/25/28 35/31/34
f 28/24/27 36/32/35 34/30/33
f 28/24/27 35/31/34 36/32/35
f 30/26/29 37/33/36 25/21/24
f 30/26/29 26/22/25 38/34/37
f 30/26/29 39/35/38 37/33/36
f 30/26/29 38/34/37 39/35/38
f 31/27/30 33/29/32 40/36/39
f 31/27/30 41/37/40 29/25/28
f 31/27/30 40/36/39 41/37/40
f 29/25/28 41/37/40 35/31/34
f 36/32/35 35/31/34 42/38/41
f 36/32/35 42/38/41 43/39/42
f 36/32/35 43/39/42 44/40/43
f 36/32/35 44/40/43 45/41/44
f 35/31/34 41/37/40 42/38/41
f 33/29/32 46/42/45 40/36/39
f 33/29/32 47/43/46 46/42/45
f 33/29/32 48/44/47 47/43/46
f 43/39/42 49/45/48 44/40/43
f 43/39/42 42/38/41 49/45/48
f 41/37/40 40/36/39 50/46/49
f 41/37/40 50/46/49 42/38/41
f 42/38/41 50/46/49 49/45/48
f 46/42/45 47/43/46 51/47/50
f 46/42/45 51/47/50 40/36/39
f 40/36/39 51/47/50 50/46/49
f 44/40/43 49/45/48 52/48/51
f 44/40/43 52/48/51 53/49/52
f 47/43/46 52/48/51 51/47/50
f 47/43/46 53/49/52 52/48/51
f 50/46/49 54/50/53 49/45/48
f 50/46/49 51/47/50 54/50/53
f 54/50/53 51/47/50 52/48/51
f 54/50/53 52/48/51 49/45/48
f 37/51/36 32/52/31 25/53/24
f 37/51/36 33/54/32 32/52/31
f 37/51/36 48/55/47 33/54/32
f 38/51/37 26/53/25 34/52/33
f 38/51/37 34/52/33 36/54/35
f 38/51/37 36/54/35 45/55/44
f 55/56/54 39/57/38 38/58/37
f 55/56/54 38/58/37 45/59/44
f 55/56/54 45/59/44 56/60/55
f 39/57/38 57/56/56 37/58/36
f 57/56/56 48/59/47 37/58/36
f 57/56/56 58/60/57 48/59/47
v 0.00132666 0.0122857 -0.195201
vt 0.9375 0.0625
vn 1 0 0
v 0.00132666 0.0247251 -0.236009
v 0.00132666 0.0563634 -0.182096
v 0.00132666 0.0687407 -0.222702
v 0.00132666 0.108954 -0.21101
v 0.00132666 0.152736 -0.19685
v 0.00132666 0.0962449 -0.169321
v 0.00132666 0.140297 -0.156042
vt 1.00724 0.106161
vt 0.996887 0.893839
v 0.00132666 0.043637 -0.135946
vt 0.156274 0.331615
v 0.00132666 0.0821643 -0.12416
vt 0.156274 0.660506
v 0.00132666 0.08114089 -0.263295
v 0.00132666 0.121367 -0.250565
vn -1 0 0
v 0.187317 0.561854 -0.0688789
vt 0.949465 0.952058
vn -0.134514 -0.349349 -0.927287
v 0.15547 0.6048031 -0.0517637
vn -0.7386902 0.6555912 -0.156643
v 0.216983 0.6456211 -0.0754655
vn -0.2588979 0.9108786 -0.3213598
v 0.194161 0.5816231 -0.0184489
vn 0.110685 0.3589109 0.9267858
v 0.235193 0.5338911 -0.0352536
vn 0.7387888 -0.6555098 0.156518
v 0.274572 0.5943971 -0.0635392
vn 0.9767955 -0.2080499 -0.05085167
vt 1.0075 1.27776
v 0.178137 0.498701 -0.0142879
vt 1.07976 0.309249
vn 0.2735269 -0.9074978 0.3187959
v 0.12322 0.496927 -0.00635116
vt 0.259114 0.117737
vn -0.6178817 -0.6994237 0.3592058
v 0.273465 0.6478161 -0.0837696
vn 0.7015836 0.6270186 -0.3385678
vt 1.07456 1.59673
v 0.121764 0.548844 -0.0259623
vt 0.0986239 0.891886
vn -0.9811022 0.183282 0.06201692
v -0.196444 0.571861 -0.0646191
vn 0.019318 -0.371485 -0.928238
v -0.238705 0.5568551 -0.0308465
vn -0.8274846 -0.5322008 0.1789739
v -0.268977 0.623116 -0.0573957
vn -0.9992383 -0.03052401 -0.02431241
v -0.198318 0.591841 -0.0138442
vn -0.0339413 0.351666 0.93551
v -0.149369 0.614186 -0.0505735
vn 0.8273966 0.5322978 -0.1790919
v -0.204444 0.66453 -0.0716458
vn 0.4080879 0.8546188 -0.3210779
v -0.124064 0.553342 -0.0262647
vn 0.9988025 0.04492578 0.01937189
v -0.133037 0.502179 -0.00667301
vn 0.6077567 -0.7306427 0.3111159
v -0.260132 0.675823 -0.0775898
vn -0.5148869 0.7919359 -0.328221
v -0.187234 0.5128031 -0.0123157
vn -0.3828799 -0.8641329 0.326615
o merged_1_0_node
g polygon_0
usemtl ear_mat_mat_id
f 59/61/58 60/61/58 61/61/58
f 61/61/58 60/61/58 62/61/58
f 63/61/58 64/61/58 65/61/58
f 65/61/58 64/61/58 66/61/58
f 61/62/58 65/63/58 67/64/58
f 67/64/58 65/63/58 68/65/58
f 65/61/58 61/61/58 63/61/58
f 61/61/58 62/61/58 63/61/58
f 62/61/58 69/61/58 63/61/58
f 69/61/58 70/61/58 63/61/58
f 59/61/59 61/61/59 60/61/59
f 60/61/59 61/61/59 62/61/59
f 66/61/59 64/61/59 65/61/59
f 65/61/59 64/61/59 63/61/59
f 61/62/59 67/64/59 65/63/59
f 65/63/59 67/64/59 68/65/59
f 65/61/59 63/61/59 61/61/59
f 61/61/59 63/61/59 62/61/59
f 70/61/59 69/61/59 63/61/59
f 63/61/59 69/61/59 62/61/59
f 71/66/60 72/66/61 73/66/62
f 72/66/61 74/66/63 73/66/62
f 75/66/64 76/66/65 74/66/63
f 71/67/60 77/68/66 78/69/67
f 71/66/60 73/66/62 79/66/68
f 73/66/62 74/66/63 79/66/68
f 74/66/63 76/66/65 79/66/68
f 76/66/65 71/66/60 79/66/68
f 74/70/63 80/71/69 78/69/67
f 74/66/63 77/66/66 75/66/64
f 74/66/63 72/66/61 80/66/69
f 74/70/63 78/69/67 77/68/66
f 80/71/69 71/67/60 78/69/67
f 80/66/69 72/66/61 71/66/60
f 71/66/60 76/66/65 75/66/64
f 77/66/66 71/66/60 75/66/64
f 81/66/70 82/66/71 83/66/72
f 82/66/71 84/66/73 83/66/72
f 85/66/74 86/66/75 84/66/73
f 81/67/70 87/68/76 88/69/77
f 81/66/70 83/66/72 89/66/78
f 83/66/72 84/66/73 89/66/78
f 84/66/73 86/66/75 89/66/78
f 86/66/75 81/66/70 89/66/78
f 84/70/73 90/71/79 88/69/77
f 84/66/73 87/66/76 85/66/74
f 84/66/73 82/66/71 90/66/79
f 84/70/73 88/69/77 87/68/76
f 90/71/79 81/67/70 88/69/77
f 90/66/79 82/66/71 81/66/70
f 81/66/70 86/66/75 85/66/74
f 87/66/76 81/66/70 85/66/74
v -0.167564 0.160516 0.112616
vt 0.5 2.78011
vn -0.7842599 0.112899 0.610074
vt 0 -1.7801
vn -0.0004249429 0.5924328 0.8056198
vt 1 -1.7801
v 0.167564 0.160516 0.112616
vn 0.7842599 0.112899 0.610074
o merged_2_0_node
g polygon_0
usemtl hand_mat_id
f 91/72/80 10/73/81 20/74/20
f 21/73/81 92/72/82 16/73/16
f 9/73/9 2/74/2 91/72/80
f 2/73/2 10/73/81 91/72/80
f 9/73/9 91/72/80 20/73/20
f 6/74/6 92/72/82 4/74/4
f 6/74/6 16/73/16 92/72/82
f 4/74/4 92/72/82 21/73/81
v 0 0.344875 0.190802
vt 0.974076 0.644068
vn 0 -0.07278477 0.9973477
vt -0.598287 0.141258
vt 0.974076 -0.686515
v 0 0.36557 0.181814
vt 0.974076 1.09
vn 0 0.144649 0.9894831
vt -0.54874 0.776285
vt -0.71646 0.776285
vt -0.566737 0.776285
o merged_3_0_node
g polygon_0
usemtl mouth1_mat_id
f 93/75/83 57/76/56 39/77/38
f 94/78/84 58/79/57 93/75/83
f 93/75/83 58/80/57 57/76/56
f 94/78/84 93/75/83 56/81/55
f 93/75/83 55/76/54 56/80/55
f 93/75/83 39/77/38 55/76/54
vt -0.0149444 0.78767
vt 1.31148 0.807687
vt 0.162763 1.02534
vt 1.31148 1.02534
vt 0.648269 0.773089
o merged_4_0_node
g polygon_0
usemtl TEX_ANIM_EYE_mat_id
f 48/82/47 94/83/84 47/84/46
f 47/84/46 94/83/84 53/85/52
f 53/85/52 94/83/84 44/84/43
f 44/84/43 94/83/84 45/82/44
f 94/83/84 56/86/55 45/82/44
f 94/83/84 48/82/47 58/86/57
