mtllib Finneon_M.mtl
v 0.0725134 0.03422611 -0.0494911
vt 1.39 -0.71463
vn 0.5256601 -0.8294331 -0.189003
v 0.121387 0.08576841 -0.0494911
vt 1.39 -0.282118
vn 0.8736274 -0.4673772 -0.1354021
v 0.0815802 0.0429735 0.0337021
vt 1.00428 -0.641228
vn 0.6491677 -0.7507907 0.1220439
v 0.131206 0.119412 0.0645041
vt 0.440824 -0.057315
vn 0.9462395 -0.2482678 0.2073499
v 0.0638349 0.0558229 0.149804
vt 0.465984 -0.533403
vn 0.5861033 -0.7000583 0.4079232
vt 0.442707 -0.694961
vt 0.612317 -0.337912
v 0.0925669 0.119495 0.168843
vt 0.16719 -0.0565206
vn 0.8516052 -0.210127 0.4802241
v 0 0.00103334 0.0346259
vt 0.440824 -1.04488
vn 0 -0.9938837 0.110432
vt 0.612317 -0.767942
v 0.08682 0.08555371 -0.133478
vt 0.783546 -0.339703
vn 0.6647128 -0.5605638 -0.4938878
v 0.145027 0.164589 -0.0494911
vt 0.612317 0.319705
vn 0.9951603 -0.06022252 -0.07764901
v 0 0.0766794 0.204404
vt 0.094689 -0.413744
vn 0 -0.6353189 0.7722499
vt 0.206006 -0.587755
v 0 0.03795401 -0.133478
vt 0.783546 -0.736839
vn 0 -0.8519569 -0.523612
v 0.132114 0.238556 0.0645043
vt 0.440824 0.936829
vn 0.9690856 0.106373 0.2226159
v 0.122765 0.183309 -0.133516
vt 0.783623 0.475893
vn 0.8951157 -0.02756529 -0.4449809
v 0.0639046 0.136415 0.209221
vt 0.0987597 0.0846464
vn 0.6571029 -0.217751 0.721665
v 0 0.0277437 0.130933
vt 0.244478 -0.822026
vn 0 -0.9295397 0.3687219
v 0 0.008508147 -0.049491
vt 0.612317 -0.982513
vn 0 -0.9779345 -0.2089121
v 0.13261 0.293468 -0.0494911
vt 0.612317 1.39497
vn 0.9354912 0.3267 -0.134623
v 0 0.100757 -0.207043
vt 0.933526 -0.212861
vn 0 -0.6516972 -0.7584793
v 0 0.158836 0.250308
vt 0.00808377 0.271705
vn 0 -0.083496 0.9965081
v -0.0638349 0.0558229 0.149804
vn -0.5861033 -0.7000583 0.4079232
v -0.0725134 0.03422611 -0.0494911
vn -0.5256601 -0.8294331 -0.189003
v 0.118734 0.306758 0.0346259
vt 0.440824 1.50586
vn 0.8863462 0.4309111 0.169429
v 0.0600325 0.250506 -0.207043
vt 0.933526 1.03654
vn 0.589935 0.260254 -0.7643589
v 0.0925667 0.303144 -0.133478
vt 0.783546 1.47571
vn 0.720207 0.492738 -0.488376
v 0.0600325 0.150433 -0.207043
vt 0.933526 0.201599
vn 0.6303451 -0.249394 -0.7351651
v 0.0630918 0.203555 0.209212
vt 0.096875 0.644809
vn 0.6461096 0.1442019 0.7494986
v -0.0925669 0.119495 0.168843
vn -0.8516052 -0.210127 0.4802241
v -0.08682 0.08555371 -0.133478
vn -0.6647128 -0.5605638 -0.4938878
v -0.0815802 0.0429735 0.0337021
vn -0.6491682 -0.7507902 0.122044
v 0.0782508 0.30683 0.142792
vt 0.2203 1.50645
vn 0.6940849 0.4676549 0.547307
v 0.0725134 0.366713 -0.0494911
vt 0.612317 2.00608
vn 0.5785549 0.7836258 -0.2262849
v 0 0.300182 -0.207043
vt 0.933526 1.451
vn 0 0.5975132 -0.8018591
v 0 0.170895 -0.240189
vt 0.989932 0.372321
vn 0 -0.05756937 -0.9983415
v 0.093573 0.238558 0.169242
vt 0.166374 0.936848
vn 0.8337061 0.180902 0.5217361
v 0 0.266862 0.219102
vt 0.0647224 1.17299
vn 0 0.4632618 0.8862215
v -0.0639047 0.136415 0.209221
vn -0.6571029 -0.217751 0.721665
v -0.121387 0.08576841 -0.0494911
vn -0.8736274 -0.4673772 -0.1354021
v -0.131206 0.119412 0.0645041
vn -0.9462395 -0.2482678 0.2073499
v 0 0.362985 -0.133478
vt 0.783546 1.97497
vn 0 0.8399123 -0.5427222
v 0.075337 0.373186 0.0346259
vt 0.440824 2.06009
vn 0.6275939 0.7767269 0.05311559
v -0.0600325 0.150433 -0.207043
vn -0.6303451 -0.249394 -0.7351651
v 0 0.356296 0.153149
vt 0.199185 1.91916
vn 0 0.7335277 0.6796597
v -0.0630918 0.203555 0.209212
vn -0.6461096 0.1442019 0.7494986
v -0.145027 0.164589 -0.0494911
vn -0.9951603 -0.06022252 -0.07764901
v -0.122765 0.183309 -0.133516
vn -0.8951157 -0.02756529 -0.4449809
v -0.0925667 0.303144 -0.133478
vn -0.720207 0.492738 -0.488376
v 0.0575689 0.36853 0.0999248
vt 0.307696 2.02124
vn 0.514157 0.766293 0.385276
v 0 0.392431 -0.049491
vt 0.612317 2.22065
vn 0 0.9781764 -0.2077761
v -0.0600325 0.250506 -0.207043
vn -0.589935 0.260254 -0.7643589
v -0.0782508 0.30683 0.142792
vn -0.6940849 0.4676549 0.547307
v -0.093573 0.238558 0.169242
vn -0.8337061 0.180902 0.5217361
v -0.13261 0.293468 -0.049491
vn -0.9354908 0.3267009 -0.134623
v 0 0.399906 0.0346259
vt 0.440824 2.28301
vn 0 0.9967062 0.08109672
v -0.0725134 0.366713 -0.049491
vn -0.5785549 0.7836258 -0.2262849
v -0.132114 0.238556 0.0645043
vn -0.9690856 0.106373 0.2226159
v -0.0575689 0.36853 0.0999248
vn -0.514157 0.766293 0.385276
v -0.118734 0.306758 0.0346259
vn -0.8863462 0.4309111 0.169429
v -0.075337 0.373186 0.0346259
vn -0.6275939 0.7767269 0.05311559
o merged_0_0_node
g polygon_0
usemtl lambert3_mat_id
f 1/1/1 2/2/2 3/3/3
f 3/3/3 4/4/4 5/5/5
f 4/4/4 3/6/3 2/7/2
f 5/5/5 4/4/4 6/8/6
f 3/6/3 7/9/7 1/10/1
f 2/7/2 1/10/1 8/11/8
f 4/4/4 2/7/2 9/12/9
f 6/8/6 10/13/10 5/14/5
f 3/6/3 5/14/5 7/9/7
f 1/10/1 11/15/11 8/11/8
f 4/4/4 9/12/9 12/16/12
f 2/7/2 13/17/13 9/12/9
f 2/7/2 8/11/8 13/17/13
f 6/8/6 14/18/14 10/13/10
f 5/14/5 10/13/10 15/19/15
f 5/14/5 15/19/15 7/9/7
f 1/10/1 16/20/16 11/15/11
f 1/10/1 7/9/7 16/20/16
f 12/16/12 9/12/9 17/21/17
f 9/12/9 13/17/13 17/21/17
f 8/11/8 11/15/11 18/22/18
f 14/18/14 19/23/19 10/13/10
f 15/19/15 10/13/10 20/14/20
f 15/19/15 20/14/20 7/9/7
f 16/20/16 21/10/21 11/15/11
f 16/20/16 7/9/7 21/10/21
f 12/16/12 17/21/17 22/24/22
f 13/17/13 23/25/23 24/26/24
f 8/11/8 18/22/18 25/27/25
f 13/17/13 24/26/24 17/21/17
f 13/17/13 25/27/25 23/25/23
f 13/17/13 8/11/8 25/27/25
f 14/18/14 26/28/26 19/23/19
f 10/13/10 27/8/27 20/14/20
f 11/15/11 21/10/21 28/11/28
f 11/15/11 28/11/28 18/22/18
f 7/9/7 29/6/29 21/10/21
f 7/9/7 20/14/20 29/6/29
f 12/16/12 22/24/22 30/29/30
f 24/26/24 31/30/31 17/21/17
f 17/21/17 31/30/31 22/24/22
f 23/25/23 32/31/32 24/26/24
f 25/27/25 18/22/18 33/32/33
f 23/25/23 33/32/33 32/31/32
f 23/25/23 25/27/25 33/32/33
f 26/28/26 34/33/34 35/34/35
f 34/33/34 12/16/12 30/29/30
f 34/33/34 30/29/30 35/34/35
f 26/28/26 35/34/35 19/23/19
f 10/13/10 19/23/19 36/18/36
f 10/13/10 36/18/36 27/8/27
f 28/11/28 21/10/21 37/7/37
f 29/6/29 38/4/38 37/7/37
f 31/30/31 24/26/24 39/35/39
f 24/26/24 32/31/32 39/35/39
f 22/24/22 31/30/31 40/36/40
f 18/22/18 28/11/28 41/27/41
f 18/22/18 41/27/41 33/32/33
f 30/29/30 42/37/42 35/34/35
f 19/23/19 43/28/43 36/18/36
f 19/23/19 35/34/35 43/28/43
f 27/8/27 38/4/38 20/5/20
f 37/7/37 44/12/44 45/17/45
f 37/7/37 45/17/45 28/11/28
f 28/11/28 45/17/45 41/27/41
f 37/7/37 38/4/38 44/12/44
f 32/31/32 46/26/46 39/35/39
f 22/24/22 47/38/47 30/29/30
f 30/29/30 47/38/47 42/37/42
f 22/24/22 40/36/40 47/38/47
f 31/30/31 39/35/39 48/39/48
f 31/30/31 48/39/48 40/36/40
f 33/32/33 49/25/49 32/31/32
f 49/25/49 45/17/45 46/26/46
f 49/25/49 41/27/41 45/17/45
f 49/25/49 33/32/33 41/27/41
f 49/25/49 46/26/46 32/31/32
f 35/34/35 50/29/50 51/33/51
f 35/34/35 51/33/51 43/28/43
f 35/34/35 42/37/42 50/29/50
f 20/5/20 38/4/38 29/3/29
f 44/12/44 52/21/52 45/17/45
f 45/17/45 52/21/52 46/26/46
f 47/38/47 53/40/53 42/37/42
f 40/36/40 48/39/48 53/40/53
f 40/36/40 53/40/53 47/38/47
f 39/35/39 46/26/46 54/30/54
f 46/26/46 52/21/52 54/30/54
f 39/35/39 54/30/54 48/39/48
f 51/33/51 50/29/50 55/16/55
f 44/12/44 38/4/38 55/16/55
f 44/12/44 55/16/55 52/21/52
f 29/3/29 37/2/37 21/1/21
f 42/37/42 56/38/56 50/29/50
f 42/37/42 53/40/53 56/38/56
f 54/30/54 52/21/52 57/24/57
f 50/29/50 57/24/57 55/16/55
f 55/16/55 57/24/57 52/21/52
f 50/29/50 56/38/56 57/24/57
f 48/39/48 54/30/54 58/36/58
f 58/36/58 53/40/53 48/39/48
f 58/36/58 57/24/57 56/38/56
f 58/36/58 54/30/54 57/24/57
f 58/36/58 56/38/56 53/40/53
v 0.0925241 0.410199 -0.437428
vt 0.927342 1
vn 0.9168282 0 0.3992821
v 0.0280099 0.349883 -0.289291
vt 0.162264 0.843811
v 0.103408 0.279234 -0.46242
vt 1.05642 0.660861
v 0.00503451 0.200847 -0.236535
vt -0.110203 0.457875
v 0.0790609 0.148471 -0.406514
vt 0.767681 0.322244
v 0.036669 0.140492 -0.309174
vt 0.264953 0.301583
v 0.00879331 0.08355537 -0.245166
vt -0.0656272 0.154142
v 0.0477457 0.06722377 -0.334608
vt 0.396312 0.111851
v 0.0268855 0.02403057 -0.286709
vt 0.14893 0
vn -0.9168282 0 -0.3992821
v -0.0925241 0.410199 -0.437428
vn 0.9168282 0 -0.3992821
v -0.0280099 0.349883 -0.289291
v -0.103408 0.279234 -0.46242
v -0.00503451 0.200847 -0.236535
v -0.0790609 0.148471 -0.406514
v -0.036669 0.140492 -0.309174
v -0.00879331 0.08355537 -0.245166
v -0.0477457 0.06722377 -0.334608
v -0.0268856 0.02403057 -0.286709
vn -0.9168282 0 0.3992821
v 0.019039 0.415029 0.0339304
vt 0.0577585 0.968896
vn -0.298788 -0.409176 0.8621489
v 0.0973272 0.454945 -0.051936
vn 0.9314381 -0.218812 0.290765
v 0.0678665 0.511376 -0.0313568
vn 0.101609 0.8656512 0.4902281
v -0.0678665 0.511376 -0.0313568
vn -0.101609 0.8656512 0.4902281
v -0.0973272 0.454945 -0.051936
vn -0.9314381 -0.218812 0.290765
v -0.019039 0.415029 0.0339304
vn 0.298788 -0.409176 0.8621489
v 0.104928 0.508751 -0.162797
vn 0.4449061 0.4171281 -0.7925041
v 0.0394315 0.469362 -0.0703441
vn -0.9243134 0.2396661 -0.2969931
v -0.061434 0.414851 -0.0867233
vn 0.04296048 -0.8943657 -0.4452688
v -0.0394315 0.469362 -0.0703441
vn 0.9243134 0.2396661 -0.2969931
v 0.061434 0.414851 -0.0867233
vn -0.04296048 -0.8943657 -0.4452688
v -0.104928 0.508751 -0.162797
vn -0.4449061 0.4171281 -0.7925041
v -0.192419 0.0419215 -0.0548851
vt 0.230177 0.967213
vn 0.8671986 -0.008506166 -0.4978898
v -0.214001 0.139922 -0.0968858
v -0.160488 0.081001 -0.00267314
v -0.138252 0.141305 0.037762
vn -0.8671986 0.008506166 0.4978898
v 0.192419 0.0419215 -0.0548851
vn 0.8671986 0.008506166 0.4978898
v 0.214001 0.139922 -0.0968858
v 0.160488 0.081001 -0.00267314
v 0.138252 0.141305 0.037762
vn -0.8671986 -0.008506166 -0.4978898
o merged_1_0_node
g polygon_0
usemtl lambert4_mat_id
f 59/41/59 60/42/59 61/43/59
f 60/42/59 62/44/59 61/43/59
f 61/43/59 62/44/59 63/45/59
f 63/45/59 62/44/59 64/46/59
f 62/44/59 65/47/59 64/46/59
f 64/46/59 65/47/59 66/48/59
f 65/47/59 67/49/59 66/48/59
f 59/41/60 61/43/60 60/42/60
f 60/42/60 61/43/60 62/44/60
f 61/43/60 63/45/60 62/44/60
f 63/45/60 64/46/60 62/44/60
f 62/44/60 64/46/60 65/47/60
f 67/49/60 65/47/60 66/48/60
f 65/47/60 64/46/60 66/48/60
f 68/41/61 69/42/61 70/43/61
f 69/42/61 71/44/61 70/43/61
f 70/43/61 71/44/61 72/45/61
f 72/45/61 71/44/61 73/46/61
f 71/44/61 74/47/61 73/46/61
f 73/46/61 74/47/61 75/48/61
f 74/47/61 76/49/61 75/48/61
f 68/41/62 70/43/62 69/42/62
f 69/42/62 70/43/62 71/44/62
f 70/43/62 72/45/62 71/44/62
f 72/45/62 73/46/62 71/44/62
f 71/44/62 73/46/62 74/47/62
f 76/49/62 74/47/62 75/48/62
f 74/47/62 73/46/62 75/48/62
f 77/50/63 78/50/64 79/50/65
f 80/50/66 81/50/67 82/50/68
f 83/50/69 84/50/70 79/50/65
f 85/50/71 86/50/72 82/50/68
f 87/50/73 83/50/69 78/50/64
f 78/50/64 83/50/69 79/50/65
f 87/50/73 78/50/64 77/50/63
f 88/50/74 85/50/71 81/50/67
f 81/50/67 85/50/71 82/50/68
f 88/50/74 81/50/67 80/50/66
f 87/50/73 77/50/63 84/50/70
f 84/50/70 77/50/63 79/50/65
f 87/50/73 84/50/70 83/50/69
f 88/50/74 80/50/66 86/50/72
f 86/50/72 80/50/66 82/50/68
f 88/50/74 86/50/72 85/50/71
f 89/51/75 90/51/75 91/51/75
f 91/51/75 90/51/75 92/51/75
f 92/51/76 90/51/76 91/51/76
f 91/51/76 90/51/76 89/51/76
f 93/51/77 94/51/77 95/51/77
f 95/51/77 94/51/77 96/51/77
f 96/51/78 94/51/78 95/51/78
f 95/51/78 94/51/78 93/51/78
vt 0.308422 0.987515
vt -0.0283472 0.915748
vt 0.310277 0.762084
vt -0.0283472 0.793448
vt 1.04064 0.762084
vt 1.04064 0.987511
o merged_2_0_node
g polygon_0
usemtl TEX_ANIM_EYE_mat_id
f 34/52/34 26/53/26 6/54/6
f 6/54/6 26/53/26 14/55/14
f 6/54/6 4/56/4 12/57/12
f 6/54/6 12/57/12 34/52/34
f 51/52/51 27/54/27 43/53/43
f 43/53/43 27/54/27 36/55/36
f 27/54/27 55/57/55 38/56/38
f 27/54/27 51/52/51 55/57/55
