mtllib Mewtwo_Megax.mtl
v 0 0.50418 0.147043
vt 0.323198 0.806563
vn 0 -0.9805999 0.19602
v -0.136189 0.522338 -0.00914394
vt 0.372664 0.812314
vn -0.5092902 -0.8452683 -0.1616941
v 0 0.491717 -0.0152163
vt 0.374587 0.802616
vn 0 -0.9854903 -0.169732
v -0.0830342 0.551382 0.166776
vt 0.316948 0.821513
vn -0.7302319 -0.527777 0.4338349
v 0.136189 0.522338 -0.00914394
vn 0.5092897 -0.8452686 -0.1616939
v -0.0661466 0.542905 0.202066
vt 0.305772 0.818828
vn -0.6647328 -0.4711858 0.5797538
v 0.0830342 0.551382 0.166776
vn 0.7302319 -0.527777 0.4338349
v 0 0.52056 0.206233
vt 0.304452 0.811751
vn 0 -0.8945506 0.4469668
v 0.0661466 0.542905 0.202066
vn 0.6647328 -0.4711858 0.5797538
v 0 0.555016 -0.148994
vt 0.416956 0.822663
vn 0 -0.734191 -0.678943
v -0.199788 0.596558 0.0152023
vt 0.364953 0.83582
vn -0.9268594 -0.3492712 0.1376271
v -0.158796 0.638452 -0.156225
vt 0.419246 0.849089
vn -0.6329359 -0.3716529 -0.6791659
v -0.0810895 0.655735 0.189357
vt 0.309797 0.854562
vn -0.814371 -0.108568 0.570099
v -0.0452301 0.604 0.204834
vt 0.303214 0.838177
vn -0.3235421 0.04868941 0.9449602
v 0.0810895 0.655735 0.189357
vn 0.814371 -0.108568 0.570099
v 0.199788 0.596558 0.0152023
vn 0.9268596 -0.3492709 0.137627
v -0.159205 0.7395 -0.146738
vt 0.416241 0.881091
vn -0.650541 0.376855 -0.659376
v -0.199732 0.678019 0.0166975
vt 0.36448 0.86162
vn -0.9689834 0.02603099 0.2457508
v 0.158796 0.638452 -0.156225
vn 0.6329359 -0.3716529 -0.6791659
v 0 0.672396 -0.205726
vt 0.434923 0.859839
vn 0 -0.171534 -0.9851782
v -0.060393 0.675028 0.214577
vt 0.299725 0.860673
vn -0.4073161 0.0227359 0.9130042
v 0 0.608576 0.211897
vt 0.302658 0.839626
vn 0 0.07772797 0.9969746
v 0.0452301 0.604 0.204834
vn 0.3235421 0.04868951 0.9449602
v 0.060393 0.675028 0.214577
vn 0.4073161 0.02273581 0.9130042
v 0.11039 0.765307 0.172219
vt 0.306377 0.885595
vn 0.6146211 0.4384031 0.6557771
v 0.183299 0.739994 0.0340606
vt 0.358981 0.881248
vn 0.9246296 -0.02418629 0.3800988
v -0.175396 0.768705 -0.0741386
vt 0.393248 0.890341
vn -0.8240813 0.121272 -0.5533382
v -0.183299 0.739994 0.0340606
vn -0.9246296 -0.02418639 0.3800988
v 0.159205 0.7395 -0.146738
vn 0.650541 0.376855 -0.659376
v 0 0.771628 -0.197307
vt 0.432257 0.891267
vn 0 0.42316 -0.906055
v -0.11039 0.765307 0.172219
vn -0.6146211 0.4384031 0.6557771
v 0.214664 0.84408 -0.017682
vt 0.375368 0.914213
vn 0.925714 0.142962 0.350165
v 0.175396 0.768705 -0.0741386
vn 0.8240813 0.121272 -0.5533382
v 0.199732 0.678019 0.0166975
vn 0.9689834 0.02603099 0.2457508
v 0 0.668565 0.224216
vt 0.302001 0.858626
vn 0 0.00466469 0.9999891
v 0.0522539 0.738791 0.197251
vt 0.307297 0.880867
vn 0.320053 0.629433 0.708082
v -0.147445 0.838608 -0.00866367
vt 0.372512 0.91248
vn -0.16336 0.9358223 -0.3123301
v -0.214664 0.84408 -0.017682
vn -0.925714 0.142962 0.350165
v -0.240094 0.971179 -0.0971136
vt 0.400525 0.954466
vn 0.8090443 0.1956291 -0.5542352
vn -0.9670424 -0.03595411 0.2520641
v 0 0.87662 -0.11346
vt 0.405702 0.924519
vn 0 0.8677318 -0.4970329
v 0.240094 0.971179 -0.0971136
vn 0.9670424 -0.03595411 0.2520641
v 0.147445 0.838608 -0.00866367
vn -0.01834659 0.8604066 0.5092778
v -0.0522539 0.738791 0.197251
vn -0.320053 0.629433 0.708082
v 0 0.748181 0.213474
vt 0.301343 0.877625
vn 0 0.479141 0.877738
vn 0.01834659 0.8604066 0.5092778
vn 0.16336 0.9358223 -0.3123301
v 0 0.819855 0.142591
vt 0.324608 0.90654
vn 0 0.8093477 0.5873298
v 0 0.885216 0.0213659
vt 0.363001 0.927241
vn 0 0.9710528 0.238865
vn -0.8090443 0.1956291 -0.5542352
v -0.0235282 0.356458 -0.338242
vt 0.92262 0.838759
vn -0.7925774 -0.1954191 -0.5776093
v -0.0711005 0.206188 -0.13487
vt 0.882474 0.809095
vn -0.7958275 -0.4946667 -0.3492328
v -0.0571722 0.270947 -0.131904
vt 0.881888 0.821879
vn -0.7690939 0.5602559 0.307584
v 0 0.163189 -0.140782
vt 0.883641 0.800607
vn 0.000116642 -0.9199687 -0.3919919
v -0.0234337 0.414664 -0.297965
vt 0.914669 0.850249
vn -0.700252 0.540129 0.466806
v 0.0232572 0.356458 -0.338242
vn 0.7922553 -0.1950571 -0.5781732
v -0.0160535 0.543802 -0.376386
vt 0.93015 0.875741
vn -0.6944249 -0.174604 -0.6980599
v 0.0156236 0.543802 -0.376386
vn 0.6940671 -0.174574 -0.6984231
v 0 0.179889 0.0105039
vt 0.853777 0.803904
vn 0 -0.9939624 0.109721
v 0.0571725 0.270947 -0.131904
vn 0.7694313 0.5603992 0.3064771
v 0.0231626 0.414664 -0.297965
vn 0.7001669 0.5407339 0.4662329
v 0.0711008 0.206188 -0.13487
vn 0.7957471 -0.49433 -0.349892
v 0.0273582 0.638683 -0.4001
vt 0.934831 0.894471
vn 0.6780878 0.02248979 -0.7346368
v -0.0159892 0.551532 -0.340319
vt 0.92303 0.877267
vn -0.886184 -0.0246005 0.46268
v -0.0276971 0.638683 -0.4001
vn -0.6778552 0.02294951 -0.7348372
v -0.0275858 0.604193 -0.311865
vt 0.917413 0.887663
vn -0.8422692 -0.06859481 0.5346751
v 0.0155594 0.551532 -0.34032
vn 0.8862069 -0.0247001 0.4626309
v -0.000180769 0.655008 -0.353787
vt 0.925689 0.897694
vn -7.739637E-05 0.9420887 0.3353639
v 0.0272469 0.604193 -0.311865
vn 0.8425016 -0.06926157 0.5342228
v 0.116786 0.517562 0.0109328
vt 0.860695 0.953522
vn 0.0772174 0.987582 0.136818
v 0 0.488496 -0.0166692
vt 0.87285 0.940722
vn 0 0.9883659 0.152095
v 0.0262773 0.472527 0.0980333
vt 0.822336 0.933689
vn -0.4611259 0.8142599 0.352624
v 0.0744172 0.525899 -0.172784
vt 0.941603 0.957194
vn 0.2073779 0.9374027 -0.2797689
v 0.0740098 0.501914 0.11036
vt 0.816907 0.946631
vn -0.105267 0.9078321 0.4059061
v 0.117669 0.479948 -0.0750747
vt 0.898572 0.936957
vn 0.9581919 -0.0173497 -0.2856
v 0.102839 0.472813 0.0979661
vt 0.822365 0.933815
vn 0.7359952 0.3245001 0.5941471
v 0.14 0.472813 -0.000361219
vt 0.865668 0.933815
vn 0.9818127 0.1836319 -0.04819988
v 0 0.5278 -0.188426
vt 0.948492 0.958031
vn 0 0.9328673 -0.3602201
v -0.0744172 0.525899 -0.172784
vn -0.2073779 0.9374027 -0.2797689
v -0.116786 0.517562 0.0109328
vn -0.0772173 0.987582 0.136818
v -0.0262773 0.472527 0.0980333
vn 0.4611259 0.8142599 0.352624
v 0.0564337 0.438261 0.135799
vt 0.805704 0.918598
vn 0.05282181 0.159114 0.9858461
v 0.0120199 0.353258 0.126083
vt 0.809983 0.881163
vn -0.5419238 0.07450587 0.8371186
v 0.0595362 0.407855 -0.0971861
vt 0.90831 0.905207
vn 0.6302631 -0.6745771 -0.3843361
v 0.0778096 0.449332 -0.14298
vt 0.928478 0.923474
vn 0.6047971 -0.4596431 -0.6503451
v 0 0.441785 -0.159437
vt 0.935725 0.92015
vn 0 -0.5317201 -0.8469202
v -0.0740098 0.501914 0.11036
vn 0.105267 0.9078317 0.4059069
v -0.117669 0.479948 -0.0750747
vn -0.9581919 -0.0173497 -0.2856
v -0.102839 0.472813 0.0979661
vn -0.7359952 0.3245001 0.5941471
v -0.14 0.472813 -0.000361219
vn -0.9818127 0.1836319 -0.04819968
v 0.0388577 0.374609 0.140916
vt 0.80345 0.890566
vn -0.06440408 -0.01449489 0.9978186
v 0.0554516 0.343799 0.128307
vt 0.809003 0.876997
vn 0.4595959 -0.175141 0.8706878
v 0 0.37729 -0.096752
vt 0.908119 0.891747
v -0.0564337 0.438261 0.135799
vn -0.05282171 0.159114 0.9858462
v -0.0120199 0.353258 0.126083
vn 0.5419238 0.07450587 0.8371186
v -0.0778096 0.449332 -0.14298
vn -0.6047971 -0.4596431 -0.6503451
v -0.0595362 0.407855 -0.0971861
vn -0.6302631 -0.6745771 -0.3843361
v -0.0388577 0.374609 0.140916
vn 0.06440417 -0.01449489 0.9978186
v -0.0554516 0.343799 0.128307
vn -0.4595959 -0.175141 0.8706878
v 0 0.511991 0
vt 0.378442 0.812764
vn 0 0.9996104 0.02790971
vt 0.37855 0.801061
vn -0.7960303 0.3663851 -0.4817652
vt 0.349176 0.801061
vn -0.09423418 0.7469029 0.6582219
v -0.0658801 0.485307 -0.0982492
vt 0.407791 0.804793
vn -0.4491901 0.2416161 -0.8601453
v 0 0.472813 0.0979661
vn 0 0.5885899 0.8084318
v 0.0658805 0.485307 -0.0982492
vn 0.4491909 0.241616 -0.8601449
vn 0.09423429 0.7469029 0.6582219
vn 0.7960308 0.3663859 -0.4817638
v -0.265546 0.399293 0.157937
vt 0.331262 0.779098
vn -0.8633987 -0.2546589 0.4355358
v -0.12365 0.335696 0
vt 0.378442 0.7601
vn -0.9214414 -0.145209 -0.3603611
v 0.12365 0.335696 0
vn 0.9214416 -0.145208 -0.3603609
v 0.0536215 0.335647 -0.096195
vt 0.407178 0.760086
vn 0.4044321 0.09600392 -0.9095153
v 0.265546 0.399293 0.157937
vn 0.863399 -0.254658 0.435536
v 0.0671295 0.343692 0.128332
vt 0.340105 0.762489
vn 0.3363082 -0.06768653 0.9393165
v -0.0671292 0.343692 0.128332
vn -0.3363082 -0.06768703 0.9393165
v -0.0536211 0.335647 -0.096195
vn -0.4044321 0.09600382 -0.9095153
vt 0.417845 0.740758
vn 0.4637247 0.4047438 -0.7881255
v 0.0895416 0.206188 0.143594
vt 0.335546 0.721412
vn 0.4824629 -0.3246869 0.8135158
v -0.0895413 0.206188 0.143594
vn -0.4824621 -0.3246871 0.8135163
vn -0.4637251 0.4047441 -0.7881252
vt 0.418731 0.721412
vn 0.3994799 -0.264673 -0.8777038
vt 0.375304 0.713556
vn -0.8204806 -0.5664168 0.07735347
v 0.121591 0.00070101 -0.011883
vt 0.381991 0.660028
vn 0.1853109 -0.9765985 -0.109157
v 0.171693 0.206188 0.0105039
vt 0.375304 0.721412
vn 0.9995758 -0.0118108 -0.02662389
v -0.121591 0.00070101 -0.011883
vn -0.1853109 -0.9765985 -0.109157
vn 0.8204798 -0.5664179 0.07735348
v -0.171692 0.206188 0.0105039
vn -0.9995758 -0.01181 -0.026624
vn -0.3994791 -0.2646731 -0.8777042
v -0.0751 0.543984 -0.08059031
vt 0.432812 0.818665
vn -0.9274648 -0.05675459 0.3695779
v -0.0528239 0.450788 -0.0968046
vt 0.438849 0.783965
vn -0.2173501 -0.6670413 -0.7126113
v -0.0677557 0.477681 -0.0565111
vt 0.423847 0.793978
vn -0.911996 0.137422 0.3864951
v -0.062028 0.559047 -0.126982
vt 0.450085 0.824273
vn -0.281318 0.264847 -0.9223428
v -0.0179462 0.477681 -0.0717032
vt 0.429503 0.793978
vn 0.9724553 0.137422 -0.188271
v -0.041919 0.619262 -0.0610515
vt 0.425537 0.846693
vn -0.1914559 0.7545315 -0.6277156
v -0.0252905 0.543984 -0.0957824
vt 0.438469 0.818665
vn 0.9758497 -0.05675488 -0.210941
v -0.0621044 0.5845929 -0.0299533
vt 0.413958 0.833784
vn -0.8184485 -0.3287538 0.4712357
v 0.00300654 0.459597 -0.0110356
vt 0.406915 0.787245
vn 0.9220037 0.3184939 -0.2201609
v -0.0253529 0.420006 -0.00673714
vt 0.405314 0.772504
vn -0.09147568 -0.9495698 -0.2999159
v -0.0512839 0.459597 0.00552319
vt 0.400749 0.787245
vn -0.8879298 0.3184939 0.3318769
v -0.00781394 0.5845929 -0.0465121
vt 0.420124 0.833784
vn 0.9421242 -0.3287541 -0.06574682
v 0.0751 0.543984 -0.08059031
vn 0.9274648 -0.05675469 0.3695779
v 0.0528238 0.450788 -0.0968046
vn 0.2173501 -0.6670413 -0.7126113
v 0.062028 0.559047 -0.126982
vn 0.2813188 0.2648478 -0.9223423
v 0.0677557 0.477681 -0.0565111
vn 0.911996 0.137422 0.3864951
v 0.041919 0.619262 -0.0610514
vn 0.191456 0.754532 -0.6277151
v 0.0179462 0.477681 -0.0717032
vn -0.9724553 0.137422 -0.188271
v 0.0621044 0.5845929 -0.0299533
vn 0.8184488 -0.3287539 0.4712349
v 0.0252905 0.543984 -0.0957824
vn -0.9758497 -0.05675478 -0.210941
v -0.00300656 0.459597 -0.0110356
vn -0.9220039 0.318494 -0.22016
v 0.0253529 0.420006 -0.00673715
vn 0.09147578 -0.9495697 -0.2999159
v 0.0512839 0.459597 0.00552319
vn 0.8879298 0.3184939 0.3318769
v 0.00781394 0.5845929 -0.0465121
vn -0.9421247 -0.3287529 -0.06574668
v 0 0.551748 0.238275
vt 6.17504E-05 0.837712
vn 0 -0.152427 0.9883147
vt -0.000257134 0.97815
vt 0.112834 0.95986
vt 0.113101 0.95986
vt 0.165124 0.802887
vt 0.165074 0.802887
vt -1.44243E-05 0.735502
v 0 0.180205 0.127196
vt 0.830741 0.803966
vn 0 -0.969786 0.243957
vt 0.827504 0.809095
v 0 0.233922 0.179207
vt 0.820474 0.81457
vn 0 0.03455749 0.9994027
vn 0 -0.9999963 0.002714861
vt -0.164775 0.366572
vt -0.236806 0.0236979
vt 0 0.0764573
vt 0.164775 0.366572
vt 0 0.687504
vt -0.250849 0.686151
vt 0.236806 0.0236979
vt 0.250849 0.686151
vt 0.731894 0.591286
vt 1.28586 0.534883
vt 0.714139 0.534883
vt 1.26811 0.591286
vt 1.3294 0.721753
vt 0.670599 0.721753
vt 0.608751 0.0182148
vt 0.635011 0.341986
vt 0.972186 0.0182148
vt 0.276026 0.0182148
vt 0.26964 0.250151
vt 0.782844 0.452712
vt 0.266587 0.593889
o merged_0_0_node
g polygon_0
usemtl mat_body_mat_id
f 1/1/1 2/2/2 3/3/3
f 1/1/1 4/4/4 2/2/2
f 1/1/1 3/3/3 5/2/5
f 1/1/1 6/5/6 4/4/4
f 1/1/1 5/2/5 7/4/7
f 1/1/1 8/6/8 6/5/6
f 1/1/1 7/4/7 9/5/9
f 1/1/1 9/5/9 8/6/8
f 2/2/2 10/7/10 3/3/3
f 2/2/2 4/4/4 11/8/11
f 2/2/2 12/9/12 10/7/10
f 2/2/2 11/8/11 12/9/12
f 3/3/3 10/7/10 5/2/5
f 6/5/6 13/10/13 4/4/4
f 6/5/6 14/11/14 13/10/13
f 7/4/7 15/10/15 9/5/9
f 7/4/7 5/2/5 16/8/16
f 11/8/11 17/12/17 12/9/12
f 11/8/11 18/13/18 17/12/17
f 10/7/10 19/9/19 5/2/5
f 10/7/10 12/9/12 20/14/20
f 10/7/10 20/14/20 19/9/19
f 12/9/12 17/12/17 20/14/20
f 5/2/5 19/9/19 16/8/16
f 14/11/14 21/15/21 13/10/13
f 14/11/14 22/16/22 21/15/21
f 15/10/15 23/11/23 9/5/9
f 15/10/15 24/15/24 23/11/23
f 15/10/15 25/17/25 24/15/24
f 15/10/15 26/18/26 25/17/25
f 23/11/23 24/15/24 22/16/22
f 18/13/18 27/19/27 17/12/17
f 18/13/18 28/18/28 27/19/27
f 20/14/20 29/12/29 19/9/19
f 20/14/20 17/12/17 30/20/30
f 20/14/20 30/20/30 29/12/29
f 19/9/19 29/12/29 16/8/16
f 13/10/13 21/15/21 31/17/31
f 13/10/13 31/17/31 28/18/28
f 26/18/26 32/21/32 25/17/25
f 26/18/26 33/19/33 32/21/32
f 26/18/26 34/13/34 33/19/33
f 34/13/34 29/12/29 33/19/33
f 34/13/34 16/8/16 29/12/29
f 24/15/24 35/22/35 22/16/22
f 24/15/24 25/17/25 36/23/36
f 24/15/24 36/23/36 35/22/35
f 22/16/22 35/22/35 21/15/21
f 27/19/27 37/24/37 17/12/17
f 27/19/27 28/18/28 38/21/38
f 27/19/27 39/25/39 37/24/37
f 27/19/27 38/21/38 39/25/40
f 28/18/28 31/17/31 38/21/38
f 30/20/30 40/26/41 29/12/29
f 30/20/30 17/12/17 40/26/41
f 17/12/17 37/24/37 40/26/41
f 32/21/32 33/19/33 41/25/42
f 32/21/32 42/24/43 25/17/25
f 32/21/32 41/25/42 42/24/43
f 42/24/43 36/23/36 25/17/25
f 35/22/35 43/23/44 21/15/21
f 35/22/35 36/23/36 44/27/45
f 35/22/35 44/27/45 43/23/44
f 21/15/21 43/23/44 31/17/31
f 39/25/40 38/21/38 37/24/46
f 37/24/46 31/17/31 43/23/44
f 37/24/46 38/21/38 31/17/31
f 29/12/29 40/26/41 42/24/47
f 29/12/29 42/24/47 33/19/33
f 37/24/37 43/23/44 45/28/48
f 37/24/37 46/29/49 40/26/41
f 37/24/37 45/28/48 46/29/49
f 45/28/48 44/27/45 36/23/36
f 45/28/48 42/24/47 46/29/49
f 45/28/48 43/23/44 44/27/45
f 45/28/48 36/23/36 42/24/47
f 46/29/49 42/24/47 40/26/41
f 33/19/33 42/24/47 41/25/50
f 47/30/51 48/31/52 49/32/53
f 47/30/51 50/33/54 48/31/52
f 47/30/51 49/32/53 51/34/55
f 47/30/51 52/30/56 50/33/54
f 47/30/51 51/34/55 53/35/57
f 47/30/51 54/35/58 52/30/56
f 47/30/51 53/35/57 54/35/58
f 48/31/52 50/33/54 55/36/59
f 49/32/53 56/32/60 51/34/55
f 52/30/56 54/35/58 57/34/61
f 52/30/56 58/31/62 50/33/54
f 52/30/56 56/32/60 58/31/62
f 52/30/56 57/34/61 56/32/60
f 56/32/60 57/34/61 51/34/55
f 58/31/62 55/36/59 50/33/54
f 53/35/57 59/37/63 54/35/58
f 53/35/57 51/34/55 60/38/64
f 53/35/57 61/37/65 59/37/63
f 53/35/57 60/38/64 62/39/66
f 53/35/57 62/39/66 61/37/65
f 57/34/61 54/35/58 63/38/67
f 57/34/61 63/38/67 51/34/55
f 60/38/64 63/38/67 62/39/66
f 60/38/64 51/34/55 63/38/67
f 59/37/63 61/37/65 64/40/68
f 59/37/63 65/39/69 54/35/58
f 59/37/63 64/40/68 65/39/69
f 65/39/69 62/39/66 63/38/67
f 65/39/69 63/38/67 54/35/58
f 65/39/69 64/40/68 62/39/66
f 62/39/66 64/40/68 61/37/65
f 66/41/70 67/42/71 68/43/72
f 66/41/70 69/44/73 67/42/71
f 66/41/70 68/43/72 70/45/74
f 66/41/70 71/46/75 69/44/73
f 66/41/70 70/45/74 72/47/76
f 66/41/70 73/48/77 71/46/75
f 66/41/70 72/47/76 73/48/77
f 67/42/71 69/44/73 74/49/78
f 67/42/71 74/49/78 75/44/79
f 67/42/71 75/44/79 76/41/80
f 67/42/71 76/41/80 77/43/81
f 68/43/72 78/50/82 70/45/74
f 68/43/72 79/51/83 78/50/82
f 70/45/74 78/50/82 72/47/76
f 71/46/75 73/48/77 80/52/84
f 71/46/75 81/53/85 69/44/73
f 71/46/75 80/52/84 81/53/85
f 74/49/78 82/54/86 75/44/79
f 74/49/78 69/44/73 82/54/86
f 69/44/73 81/53/85 82/54/86
f 76/41/80 83/45/87 77/43/81
f 76/41/80 75/44/79 84/46/88
f 76/41/80 85/47/89 83/45/87
f 76/41/80 84/46/88 86/48/90
f 76/41/80 86/48/90 85/47/89
f 79/51/83 87/55/91 78/50/82
f 79/51/83 88/56/92 87/55/91
f 88/56/92 72/47/76 78/50/82
f 88/56/92 78/50/82 87/55/91
f 80/52/84 89/57/10 81/53/85
f 81/53/85 89/57/10 82/54/86
f 77/43/81 83/45/87 90/50/93
f 77/43/81 90/50/93 91/51/94
f 83/45/87 85/47/89 90/50/93
f 75/44/79 92/53/95 84/46/88
f 75/44/79 82/54/86 92/53/95
f 82/54/86 89/57/10 92/53/95
f 86/48/90 84/46/88 93/52/96
f 93/52/96 92/53/95 89/57/10
f 93/52/96 84/46/88 92/53/95
f 91/51/94 90/50/93 94/55/97
f 91/51/94 94/55/97 95/56/98
f 95/56/98 90/50/93 85/47/89
f 95/56/98 94/55/97 90/50/93
f 96/58/99 86/59/100 85/60/101
f 96/58/99 97/61/102 86/59/100
f 96/58/99 85/60/101 98/60/103
f 96/58/99 99/61/104 97/61/102
f 96/58/99 98/60/103 72/60/105
f 96/58/99 73/59/106 99/61/104
f 96/58/99 72/60/105 73/59/106
f 86/59/100 100/62/107 85/60/101
f 86/59/100 97/61/102 101/63/108
f 99/61/104 73/59/106 102/63/109
f 99/61/104 102/63/109 103/64/110
f 72/60/105 104/62/111 73/59/106
f 72/60/105 105/65/112 104/62/111
f 104/62/111 105/65/112 102/63/109
f 100/62/107 106/65/113 85/60/101
f 100/62/107 101/63/108 106/65/113
f 97/61/102 107/64/114 101/63/108
f 103/64/110 102/63/109 56/66/115
f 105/65/112 108/67/116 102/63/109
f 106/65/113 101/63/108 109/67/117
f 107/64/114 49/66/118 101/63/108
f 56/66/115 102/63/109 58/68/119
f 108/67/116 55/69/120 110/70/121
f 108/67/116 110/70/121 111/71/122
f 110/70/121 58/68/119 111/71/122
f 110/70/121 55/69/120 58/68/119
f 109/67/117 112/70/123 55/69/124
f 109/67/117 113/71/125 112/70/123
f 49/66/118 48/68/126 101/63/108
f 48/68/126 55/69/124 112/70/123
f 48/68/126 112/70/123 113/71/125
f 114/72/127 115/73/128 116/74/129
f 114/72/127 117/75/130 115/73/128
f 114/72/127 116/74/129 118/76/131
f 114/72/127 119/77/132 117/75/130
f 114/72/127 118/76/131 120/78/133
f 114/72/127 121/79/134 119/77/132
f 114/72/127 120/78/133 121/79/134
f 117/75/130 120/78/133 115/73/128
f 117/75/130 119/77/132 120/78/133
f 116/74/129 122/80/135 118/76/131
f 116/74/129 115/73/128 123/81/136
f 116/74/129 124/82/137 122/80/135
f 116/74/129 123/81/136 124/82/137
f 118/76/131 115/73/128 120/78/133
f 118/76/131 122/80/135 123/81/136
f 118/76/131 123/81/136 115/73/128
f 121/79/134 120/78/133 125/83/138
f 125/83/138 120/78/133 119/77/132
f 126/72/139 127/73/140 128/75/141
f 126/72/139 129/74/142 127/73/140
f 126/72/139 128/75/141 130/77/143
f 126/72/139 131/76/144 129/74/142
f 126/72/139 130/77/143 132/79/145
f 126/72/139 133/78/146 131/76/144
f 126/72/139 132/79/145 133/78/146
f 128/75/141 127/73/140 133/78/146
f 128/75/141 133/78/146 130/77/143
f 129/74/142 131/76/144 134/80/147
f 129/74/142 135/81/148 127/73/140
f 129/74/142 134/80/147 136/82/149
f 129/74/142 136/82/149 135/81/148
f 131/76/144 133/78/146 127/73/140
f 131/76/144 135/81/148 134/80/147
f 131/76/144 127/73/140 135/81/148
f 132/79/145 137/83/150 133/78/146
f 133/78/146 137/83/150 130/77/143
f 138/84/151 22/85/22 14/86/14
f 138/84/151 23/87/23 22/85/22
f 138/84/151 14/86/14 6/88/6
f 138/84/151 9/89/9 23/87/23
f 138/84/151 6/88/6 8/90/8
f 138/84/151 8/90/8 9/89/9
f 139/91/152 108/92/116 140/93/153
f 139/91/152 55/36/154 108/92/116
f 139/91/152 140/93/153 109/92/117
f 139/91/152 109/92/117 55/36/154
f 106/94/113 109/95/117 140/96/153
f 106/94/113 140/96/153 105/97/112
f 106/94/113 105/97/112 98/98/103
f 106/94/113 98/98/103 85/99/101
f 140/96/153 108/100/116 105/97/112
f 98/98/103 105/97/112 72/101/105
f 107/102/114 56/103/115 49/104/118
f 107/102/114 103/105/110 56/103/115
f 107/102/114 99/106/104 103/105/110
f 107/102/114 97/107/102 99/106/104
f 113/108/125 101/109/108 48/110/126
f 113/108/125 109/111/117 101/109/108
f 111/108/122 102/109/109 108/111/116
f 111/108/122 58/110/119 102/109/109
f 101/112/108 100/113/107 86/114/100
f 104/113/111 102/112/109 73/114/106
vt 1.02537 0.813994
vt 0.0730708 0.757132
vt 1.01877 0.915531
vt -0.0253651 0.887831
vt 0.900592 0.992856
vt 1.02536 0.813981
vt 1.01877 0.915521
vt 0.073077 0.757122
vt 0.900588 0.992878
o merged_1_0_node
g polygon_0
usemtl TEX_ANIM_EYE_mat_id
f 11/115/11 4/116/4 18/117/18
f 18/117/18 4/116/4 13/118/13
f 28/119/28 18/117/18 13/118/13
f 16/120/16 34/121/34 7/122/7
f 34/121/34 15/118/15 7/122/7
f 26/123/26 15/118/15 34/121/34
