ply
format ascii 1.0
element vertex 724
property float x
property float y
property float z
property uchar red
property uchar green
property uchar blue
element face 878
property list uchar int vertex_index
end_header
0.48004 -1.00804 1.11403 255 255 255
0.48004 -1.00804 1.46083 255 255 255
0.52773 -1.00804 1.46083 255 255 255
0.52773 -1.00804 1.11403 255 255 255
0.52773 -0.66124 1.46083 255 255 255
0.48004 -0.66124 1.46083 255 255 255
0.52773 -0.66124 1.11403 255 255 255
0.48004 -0.66124 1.11403 255 255 255
0.52773 -0.70699 1.41508 255 255 255
0.52773 -0.70699 1.15977 255 255 255
0.52773 -0.74114 1.15977 255 255 255
0.52773 -0.96229 1.41508 255 255 255
0.52773 -0.96229 1.15977 255 255 255
0.52773 -0.8838 1.15977 255 255 255
0.52773 -0.91442 1.30441 255 255 255
0.52773 -0.91442 1.38736 255 255 255
0.52773 -0.83147 1.38736 255 255 255
0.52773 -0.83147 1.30441 255 255 255
0.52773 -0.8838 1.23865 50 48 48
0.52773 -0.91442 1.30441 50 48 48
0.52773 -0.83147 1.30441 50 48 48
0.52773 -0.7411 1.23865 50 48 48
0.52773 -0.83147 1.38736 50 48 48
0.52773 -0.70699 1.41508 50 48 48
0.52773 -0.91442 1.38736 50 48 48
0.52773 -0.96229 1.41508 50 48 48
0.52773 -0.96229 1.15977 50 48 48
0.52773 -0.8838 1.15977 50 48 48
0.52773 -0.70699 1.15977 50 48 48
0.52773 -0.74114 1.15977 50 48 48
0.52773 -0.8838 1.23865 83 80 80
0.52773 -0.7411 1.23865 83 80 80
0.52773 -0.74114 1.15977 83 80 80
0.52773 -0.8838 1.15977 83 80 80
-0.48004 -1.00804 1.11403 255 255 255
-0.52773 -1.00804 1.11403 255 255 255
-0.52773 -1.00804 1.46083 255 255 255
-0.48004 -1.00804 1.46083 255 255 255
-0.52773 -0.66124 1.46083 255 255 255
-0.48004 -0.66124 1.46083 255 255 255
-0.52773 -0.66124 1.11403 255 255 255
-0.48004 -0.66124 1.11403 255 255 255
-0.52773 -0.70699 1.41508 255 255 255
-0.52773 -0.70699 1.15977 255 255 255
-0.52773 -0.74114 1.15977 255 255 255
-0.52773 -0.96229 1.41508 255 255 255
-0.52773 -0.96229 1.15977 255 255 255
-0.52773 -0.8838 1.15977 255 255 255
-0.52773 -0.91442 1.30441 255 255 255
-0.52773 -0.83147 1.30441 255 255 255
-0.52773 -0.83147 1.38736 255 255 255
-0.52773 -0.91442 1.38736 255 255 255
-0.52773 -0.8838 1.23865 50 48 48
-0.52773 -0.7411 1.23865 50 48 48
-0.52773 -0.83147 1.30441 50 48 48
-0.52773 -0.91442 1.30441 50 48 48
-0.52773 -0.83147 1.38736 50 48 48
-0.52773 -0.70699 1.41508 50 48 48
-0.52773 -0.91442 1.38736 50 48 48
-0.52773 -0.96229 1.41508 50 48 48
-0.52773 -0.96229 1.15977 50 48 48
-0.52773 -0.8838 1.15977 50 48 48
-0.52773 -0.70699 1.15977 50 48 48
-0.52773 -0.74114 1.15977 50 48 48
-0.52773 -0.8838 1.23865 83 80 80
-0.52773 -0.8838 1.15977 83 80 80
-0.52773 -0.74114 1.15977 83 80 80
-0.52773 -0.7411 1.23865 83 80 80
-0.17081 -1.22578 1.01294 107 82 82
-0.17081 -1.22578 1.19316 107 82 82
0.17081 -1.22578 1.19316 107 82 82
0.17081 -1.22578 1.01294 107 82 82
-0.17081 -1.28856 1.01294 107 82 82
0.17081 -1.28856 1.01294 107 82 82
0.17081 -1.28856 1.19316 107 82 82
-0.17081 -1.28856 1.19316 107 82 82
-0.24271 -1.28856 1.25018 245 188 189
-0.24271 -1.18512 1.25018 245 188 189
0.24271 -1.18512 1.25018 245 188 189
0.24271 -1.28856 1.25018 245 188 189
-0.24271 -1.18512 0.95592 235 180 182
-0.24271 -1.28856 0.95592 235 180 182
0.24271 -1.28856 0.95592 235 180 182
0.24271 -1.18512 0.95592 235 180 182
0.24271 -1.18512 1.25018 235 180 182
0.24271 -1.28856 1.25018 235 180 182
0.17081 -1.28856 1.19316 235 180 182
0.17081 -1.28856 1.01294 235 180 182
-0.17081 -1.28856 1.19316 235 180 182
-0.24271 -1.28856 1.25018 235 180 182
-0.17081 -1.28856 1.01294 235 180 182
-0.24271 -1.18512 1.25018 235 180 182
0.08514 -1.28378 1.13508 255 255 255
0.08514 -1.28378 1.19796 255 255 255
0.13854 -1.28378 1.19796 255 255 255
0.13854 -1.28378 1.13508 255 255 255
0.08514 -1.24394 1.13508 255 255 255
0.13854 -1.24394 1.13508 255 255 255
0.08514 -1.24394 1.19796 255 255 255
0.13854 -1.24394 1.19796 255 255 255
-0.08514 -1.28378 1.13508 255 255 255
-0.13854 -1.28378 1.13508 255 255 255
-0.13854 -1.28378 1.19796 255 255 255
-0.08514 -1.28378 1.19796 255 255 255
-0.08514 -1.24394 1.13508 255 255 255
-0.13854 -1.24394 1.13508 255 255 255
-0.08514 -1.24394 1.19796 255 255 255
-0.13854 -1.24394 1.19796 255 255 255
0.49121 -0.91634 0.98289 89 89 86
0.49121 -0.91634 1.07462 89 89 86
0.51193 -0.91634 1.07462 89 89 86
0.51193 -0.91634 0.98289 89 89 86
0.51193 -0.61511 1.07462 89 89 86
0.49121 -0.61511 1.07462 89 89 86
0.51193 -0.61511 0.98289 89 89 86
0.49121 -0.61511 0.98289 89 89 86
0.49121 -0.95352 0.83393 89 89 86
0.49121 -0.95352 0.92136 89 89 86
0.51193 -0.95352 0.92136 89 89 86
0.51193 -0.95352 0.83393 89 89 86
0.51193 -0.71127 0.92136 89 89 86
0.49121 -0.71127 0.92136 89 89 86
0.51193 -0.71127 0.83393 89 89 86
0.49121 -0.71127 0.83393 89 89 86
-0.49121 -0.91634 0.98289 89 89 86
-0.51193 -0.91634 0.98289 89 89 86
-0.51193 -0.91634 1.07462 89 89 86
-0.49121 -0.91634 1.07462 89 89 86
-0.51193 -0.61511 1.07462 89 89 86
-0.49121 -0.61511 1.07462 89 89 86
-0.51193 -0.61511 0.98289 89 89 86
-0.49121 -0.61511 0.98289 89 89 86
-0.49121 -0.95352 0.83393 89 89 86
-0.51193 -0.95352 0.83393 89 89 86
-0.51193 -0.95352 0.92136 89 89 86
-0.49121 -0.95352 0.92136 89 89 86
-0.51193 -0.71127 0.92136 89 89 86
-0.49121 -0.71127 0.92136 89 89 86
-0.51193 -0.71127 0.83393 89 89 86
-0.49121 -0.71127 0.83393 89 89 86
-0.0504 -0.67567 1.65362 228 235 205
-0.0504 -0.67567 2.10688 228 235 205
0.0504 -0.67567 2.10688 228 235 205
0.0504 -0.67567 1.65362 228 235 205
0.0504 -0.5082 1.9061 228 235 205
0.0504 -0.5082 1.65362 228 235 205
0.0504 -0.45089 1.89599 228 235 205
0.0504 -0.27934 1.86648 228 235 205
0.0504 -0.27934 1.65362 228 235 205
0.0504 -0.45089 1.65362 228 235 205
0.0504 -0.09298 1.97645 228 235 205
0.0504 -0.21881 1.85757 228 235 205
0.0504 -0.03695 1.82804 228 235 205
0.0504 -0.03695 1.65362 228 235 205
0.0504 -0.21881 1.65362 228 235 205
0.0504 0.01991 1.81913 228 235 205
0.0504 0.20721 1.78363 228 235 205
0.0504 0.20721 1.65362 228 235 205
0.0504 0.01991 1.65362 228 235 205
0.0504 0.385 1.86933 228 235 205
0.0504 0.25857 1.77472 228 235 205
0.0504 0.41734 1.82693 228 235 205
0.0504 0.41734 1.65362 228 235 205
0.0504 0.25857 1.65362 228 235 205
-0.0504 -0.67567 2.10688 235 240 217
-0.0504 -0.09298 1.97645 235 240 217
0.0504 -0.09298 1.97645 235 240 217
0.0504 -0.67567 2.10688 235 240 217
-0.0504 0.385 1.86933 235 240 217
0.0504 0.385 1.86933 235 240 217
-0.0504 0.385 1.86933 228 235 205
-0.0504 0.41734 1.82693 228 235 205
-0.0504 0.25857 1.77472 228 235 205
-0.0504 0.20721 1.78363 228 235 205
-0.0504 0.01991 1.81913 228 235 205
-0.0504 0.01991 1.65362 228 235 205
-0.0504 0.20721 1.65362 228 235 205
-0.0504 -0.09298 1.97645 228 235 205
-0.0504 -0.03695 1.82804 228 235 205
-0.0504 -0.21881 1.85757 228 235 205
-0.0504 -0.21881 1.65362 228 235 205
-0.0504 -0.03695 1.65362 228 235 205
-0.0504 -0.27934 1.86648 228 235 205
-0.0504 -0.45089 1.89599 228 235 205
-0.0504 -0.45089 1.65362 228 235 205
-0.0504 -0.27934 1.65362 228 235 205
-0.0504 -0.5082 1.9061 228 235 205
-0.0504 -0.5082 1.65362 228 235 205
0.0504 -0.5082 1.9061 201 213 165
0.0504 -0.45089 1.89599 201 213 165
0.0504 -0.45089 1.65362 201 213 165
0.0504 -0.5082 1.65362 201 213 165
-0.0504 -0.45089 1.89599 201 213 165
-0.0504 -0.5082 1.9061 201 213 165
-0.0504 -0.5082 1.65362 201 213 165
-0.0504 -0.45089 1.65362 201 213 165
0.0504 -0.27934 1.86648 201 213 165
0.0504 -0.21881 1.85757 201 213 165
0.0504 -0.21881 1.65362 201 213 165
0.0504 -0.27934 1.65362 201 213 165
-0.0504 -0.21881 1.85757 201 213 165
-0.0504 -0.27934 1.86648 201 213 165
-0.0504 -0.27934 1.65362 201 213 165
-0.0504 -0.21881 1.65362 201 213 165
0.0504 -0.03695 1.82804 201 213 165
0.0504 0.01991 1.81913 201 213 165
0.0504 0.01991 1.65362 201 213 165
0.0504 -0.03695 1.65362 201 213 165
-0.0504 0.01991 1.81913 201 213 165
-0.0504 -0.03695 1.82804 201 213 165
-0.0504 -0.03695 1.65362 201 213 165
-0.0504 0.01991 1.65362 201 213 165
0.0504 0.20721 1.78363 201 213 165
0.0504 0.25857 1.77472 201 213 165
0.0504 0.25857 1.65362 201 213 165
0.0504 0.20721 1.65362 201 213 165
-0.0504 0.25857 1.77472 201 213 165
-0.0504 0.20721 1.78363 201 213 165
-0.0504 0.20721 1.65362 201 213 165
-0.0504 0.25857 1.65362 201 213 165
-0.1167 -1.04849 1.6394 227 227 172
-0.1166 -1.04842 2.04499 227 227 172
-0.08388 -1.08016 2.04499 227 227 172
-0.08388 -1.08026 1.6394 227 227 172
-0.1167 -0.87863 1.6394 227 227 172
-0.1166 -0.8787 2.04499 227 227 172
-0.08388 -0.84686 1.6394 227 227 172
-0.08388 -0.84696 2.04499 227 227 172
0.08481 -1.08026 1.6394 227 227 172
0.08481 -1.08016 2.04499 227 227 172
0.08481 -0.84696 2.04499 227 227 172
0.08481 -0.84686 1.6394 227 227 172
-0.07129 -0.86445 2.0684 227 227 172
0.0721 -0.86445 2.0684 227 227 172
-0.0991 -0.89143 2.0684 227 227 172
-0.0991 -1.03569 2.0684 227 227 172
-0.07129 -1.06267 2.0684 227 227 172
0.0721 -1.06267 2.0684 227 227 172
0.09912 -1.03569 2.0684 240 238 182
0.0721 -1.06267 2.0684 240 238 182
-0.07129 -1.06267 2.0684 240 238 182
-0.0991 -1.03569 2.0684 240 238 182
0.09912 -0.89143 2.0684 240 238 182
-0.0991 -0.89143 2.0684 240 238 182
0.0721 -0.86445 2.0684 240 238 182
-0.07129 -0.86445 2.0684 240 238 182
0.1167 -1.04849 1.6394 227 227 172
0.1166 -1.04842 2.04499 227 227 172
0.1166 -0.8787 2.04499 227 227 172
0.1167 -0.87863 1.6394 227 227 172
0.09912 -1.03569 2.0684 227 227 172
0.09912 -0.89143 2.0684 227 227 172
0.48452 0.24203 1.31252 89 89 86
0.48452 0.24203 1.46895 89 89 86
0.51334 0.24203 1.46895 89 89 86
0.51334 0.24203 1.31252 89 89 86
0.51334 0.40433 1.46895 89 89 86
0.48452 0.40433 1.46895 89 89 86
0.51334 0.40433 1.31252 89 89 86
0.48452 0.40433 1.31252 89 89 86
0.48452 -0.10704 1.17233 89 89 86
0.48452 -0.10704 1.30849 89 89 86
0.51334 -0.10704 1.30849 89 89 86
0.51334 -0.10704 1.17233 89 89 86
0.51334 0.03672 1.30849 89 89 86
0.48452 0.03672 1.30849 89 89 86
0.51334 0.03672 1.17233 89 89 86
0.48452 0.03672 1.17233 89 89 86
-0.48452 0.24203 1.31252 89 89 86
-0.51334 0.24203 1.31252 89 89 86
-0.51334 0.24203 1.46895 89 89 86
-0.48452 0.24203 1.46895 89 89 86
-0.51334 0.40433 1.46895 89 89 86
-0.48452 0.40433 1.46895 89 89 86
-0.51334 0.40433 1.31252 89 89 86
-0.48452 0.40433 1.31252 89 89 86
-0.48452 -0.10704 1.17233 89 89 86
-0.51334 -0.10704 1.17233 89 89 86
-0.51334 -0.10704 1.30849 89 89 86
-0.48452 -0.10704 1.30849 89 89 86
-0.51334 0.03672 1.30849 89 89 86
-0.48452 0.03672 1.30849 89 89 86
-0.51334 0.03672 1.17233 89 89 86
-0.48452 0.03672 1.17233 89 89 86
0.34544 -1.13523 1.65192 235 165 84
-0.34544 -1.13523 1.65192 235 165 84
-0.43494 -1.06019 1.65192 235 165 84
0.43494 -1.06019 1.65192 235 165 84
-0.43494 0.53054 1.65192 235 165 84
0.43494 0.53054 1.65192 235 165 84
-0.34544 0.60558 1.65192 235 165 84
0.34544 0.60558 1.65192 235 165 84
0.3466 0.60696 0.40488 228 235 205
-0.3466 0.60696 0.40488 228 235 205
-0.43631 0.53173 0.40488 228 235 205
0.43631 0.53173 0.40488 228 235 205
0.39738 0.66747 0.48611 228 235 205
0.49682 0.58409 0.48611 228 235 205
0.49682 0.58409 1.08148 228 235 205
0.39738 0.66747 1.08148 228 235 205
0.43631 -0.21903 0.40488 228 235 205
0.49682 -0.21903 0.48611 228 235 205
0.49682 -0.21903 1.08148 228 235 205
-0.43631 -0.21903 0.40488 228 235 205
-0.39738 0.66747 1.08148 228 235 205
-0.39738 0.66747 0.48611 228 235 205
0.49682 -1.11373 0.48611 225 159 80
0.49682 -1.11373 1.57943 225 159 80
0.49682 -0.21903 1.08148 225 159 80
0.49682 -0.21903 0.48611 225 159 80
0.39738 -1.19711 1.57943 225 159 80
0.39738 -1.19711 0.48611 225 159 80
0.43494 -1.06019 1.65192 225 159 80
0.34544 -1.13523 1.65192 225 159 80
0.43494 0.53054 1.65192 225 159 80
0.49682 0.58409 1.57943 225 159 80
0.34544 0.60558 1.65192 225 159 80
0.39738 0.66747 1.57943 225 159 80
-0.39738 0.66747 1.57943 225 159 80
-0.34544 0.60558 1.65192 225 159 80
0.3466 -1.1366 0.40488 225 159 80
-0.39738 -1.19711 0.48611 225 159 80
-0.3466 -1.1366 0.40488 225 159 80
0.43631 -1.06138 0.40488 225 159 80
-0.43631 -1.06138 0.40488 225 159 80
0.43631 -0.21903 0.40488 225 159 80
-0.43631 -0.21903 0.40488 225 159 80
0.49682 0.58409 1.08148 225 159 80
0.39738 0.66747 1.08148 225 159 80
-0.39738 0.66747 1.08148 225 159 80
0.32227 -1.19711 0.54043 225 159 80
0.32227 -1.19711 1.11179 225 159 80
-0.39738 -1.19711 1.57943 225 159 80
-0.32227 -1.19711 1.11179 225 159 80
-0.49682 -1.11373 0.48611 225 159 80
-0.49682 -1.11373 1.57943 225 159 80
-0.49682 -0.21903 1.08148 225 159 80
-0.49682 -0.21903 0.48611 225 159 80
-0.43494 -1.06019 1.65192 225 159 80
-0.34544 -1.13523 1.65192 225 159 80
-0.43494 0.53054 1.65192 225 159 80
-0.49682 0.58409 1.57943 225 159 80
-0.32227 -1.19711 0.54043 225 159 80
-0.49682 0.58409 1.08148 225 159 80
-0.49682 0.58409 1.08148 228 235 205
-0.49682 0.58409 0.48611 228 235 205
-0.49682 -0.21903 0.48611 228 235 205
-0.49682 -0.21903 1.08148 228 235 205
0.32227 -1.19711 1.11179 228 235 205
0.32227 -1.19711 0.54043 228 235 205
-0.32227 -1.19711 0.54043 228 235 205
-0.32227 -1.19711 1.11179 228 235 205
0.22313 -0.54362 1.66472 97 96 94
0.44506 -0.54362 1.66472 97 96 94
0.42774 -0.54362 1.64244 97 96 94
0.22313 -0.54362 1.64244 97 96 94
0.22313 -0.76977 1.66472 97 96 94
0.22313 -0.76977 1.64244 97 96 94
-0.22313 -0.54362 1.66472 97 96 94
-0.13114 0.11526 1.66472 97 96 94
0.13114 0.11526 1.66472 97 96 94
0.44506 0.11526 1.66472 97 96 94
0.13114 0.11526 1.64244 97 96 94
0.42774 0.11526 1.64244 97 96 94
0.13114 0.50939 1.64244 97 96 94
0.13114 0.50939 1.66472 97 96 94
-0.22313 -0.76977 1.66472 97 96 94
-0.13114 0.50939 1.66472 97 96 94
-0.13114 0.50939 1.64244 97 96 94
-0.22313 -0.76977 1.64244 97 96 94
0.48484 -0.54362 0.78709 89 89 86
0.51344 -0.54362 0.78709 89 89 86
0.51344 -0.40025 0.78709 89 89 86
0.48484 -0.40025 0.78709 89 89 86
0.51339 -0.54362 1.58438 89 89 86
0.48505 -0.54362 1.57512 89 89 86
0.44506 -0.54362 1.66472 89 89 86
0.42774 -0.54362 1.64244 89 89 86
0.44506 0.11526 1.66472 89 89 86
0.51339 0.11526 1.58438 89 89 86
0.42774 0.11526 1.64244 89 89 86
0.48505 0.11526 1.57512 89 89 86
0.48484 0.11519 1.375 89 89 86
0.51344 0.11519 1.375 89 89 86
0.51344 -0.40025 1.375 89 89 86
0.48484 -0.40025 1.375 89 89 86
-0.22313 -0.54362 1.64244 97 96 94
-0.42774 -0.54362 1.64244 97 96 94
-0.44506 -0.54362 1.66472 97 96 94
-0.44506 0.11526 1.66472 97 96 94
-0.13114 0.11526 1.64244 97 96 94
-0.42774 0.11526 1.64244 97 96 94
-0.48484 -0.54362 0.78709 89 89 86
-0.48484 -0.40025 0.78709 89 89 86
-0.51344 -0.40025 0.78709 89 89 86
-0.51344 -0.54362 0.78709 89 89 86
-0.51339 -0.54362 1.58438 89 89 86
-0.48505 -0.54362 1.57512 89 89 86
-0.44506 -0.54362 1.66472 89 89 86
-0.42774 -0.54362 1.64244 89 89 86
-0.44506 0.11526 1.66472 89 89 86
-0.51339 0.11526 1.58438 89 89 86
-0.42774 0.11526 1.64244 89 89 86
-0.48505 0.11526 1.57512 89 89 86
-0.51344 -0.40025 1.375 89 89 86
-0.48484 -0.40025 1.375 89 89 86
-0.48484 0.11519 1.375 89 89 86
-0.51344 0.11519 1.375 89 89 86
0.48846 -0.3556 0.5576 228 235 205
0.48846 -0.3556 1.09154 228 235 205
0.95828 -0.3556 1.09154 228 235 205
0.95828 -0.3556 0.5576 228 235 205
0.48846 -0.27977 0.5576 228 235 205
0.95828 -0.27977 0.5576 228 235 205
0.48846 -0.27977 1.09154 228 235 205
0.95828 -0.27977 1.09154 228 235 205
1.0018 -0.27977 0.59308 228 235 205
1.0018 -0.3556 0.59308 228 235 205
1.0018 -0.27977 1.05605 228 235 205
1.0018 -0.3556 1.05605 228 235 205
0.48846 -0.3556 1.09154 235 240 217
0.48846 -0.27977 1.09154 235 240 217
0.95828 -0.27977 1.09154 235 240 217
0.95828 -0.3556 1.09154 235 240 217
1.0018 -0.3556 1.05605 235 240 217
1.0018 -0.27977 1.05605 235 240 217
0.58134 -0.3627 0.88311 108 119 69
0.58134 -0.3627 1.01524 108 119 69
0.71748 -0.3627 1.01524 108 119 69
0.71748 -0.3627 0.88311 108 119 69
0.71748 -0.27183 1.01524 108 119 69
0.58134 -0.27183 1.01524 108 119 69
0.71748 -0.27183 0.88311 108 119 69
0.58134 -0.27183 0.88311 108 119 69
0.80175 -0.3627 0.81961 108 119 69
0.80175 -0.3627 0.90297 108 119 69
0.88601 -0.3627 0.90297 108 119 69
0.88601 -0.3627 0.81961 108 119 69
0.88601 -0.27183 0.90297 108 119 69
0.80175 -0.27183 0.90297 108 119 69
0.88601 -0.27183 0.81961 108 119 69
0.80175 -0.27183 0.81961 108 119 69
-0.48846 -0.3556 0.5576 228 235 205
-0.95828 -0.3556 0.5576 228 235 205
-0.95828 -0.3556 1.09154 228 235 205
-0.48846 -0.3556 1.09154 228 235 205
-0.48846 -0.27977 0.5576 228 235 205
-0.95828 -0.27977 0.5576 228 235 205
-0.48846 -0.27977 1.09154 228 235 205
-0.95828 -0.27977 1.09154 228 235 205
-1.0018 -0.27977 0.59308 228 235 205
-1.0018 -0.3556 0.59308 228 235 205
-1.0018 -0.27977 1.05605 228 235 205
-1.0018 -0.3556 1.05605 228 235 205
-0.48846 -0.3556 1.09154 235 240 217
-0.95828 -0.3556 1.09154 235 240 217
-0.95828 -0.27977 1.09154 235 240 217
-0.48846 -0.27977 1.09154 235 240 217
-1.0018 -0.3556 1.05605 235 240 217
-1.0018 -0.27977 1.05605 235 240 217
-0.58134 -0.3627 0.88311 108 119 69
-0.71748 -0.3627 0.88311 108 119 69
-0.71748 -0.3627 1.01524 108 119 69
-0.58134 -0.3627 1.01524 108 119 69
-0.71748 -0.27183 1.01524 108 119 69
-0.58134 -0.27183 1.01524 108 119 69
-0.71748 -0.27183 0.88311 108 119 69
-0.58134 -0.27183 0.88311 108 119 69
-0.80175 -0.3627 0.81961 108 119 69
-0.88601 -0.3627 0.81961 108 119 69
-0.88601 -0.3627 0.90297 108 119 69
-0.80175 -0.3627 0.90297 108 119 69
-0.88601 -0.27183 0.90297 108 119 69
-0.80175 -0.27183 0.90297 108 119 69
-0.88601 -0.27183 0.81961 108 119 69
-0.80175 -0.27183 0.81961 108 119 69
-0.0504 0.41734 1.65362 228 235 205
-0.0504 0.25857 1.65362 228 235 205
-0.28192 0.75942 2.10954 235 240 217
-0.28229 0.87465 2.10954 235 240 217
-0.22243 0.87484 2.05267 235 240 217
-0.22206 0.75961 2.05267 235 240 217
-1.24649 0.87156 2.10954 235 240 217
-1.24612 0.75633 2.10954 235 240 217
-1.30738 0.87137 1.25025 228 235 205
-1.30738 0.87137 2.06693 228 235 205
-1.30701 0.75614 2.06693 228 235 205
-1.30701 0.75614 1.25025 228 235 205
-1.24649 0.87156 1.20764 228 235 205
-1.24612 0.75633 1.20764 228 235 205
-0.75795 0.87313 1.20764 228 235 205
-0.75758 0.7579 1.20764 228 235 205
-0.75795 0.87313 1.07073 228 235 205
-0.75758 0.7579 1.07073 228 235 205
-1.24612 0.75633 2.10954 228 235 205
-0.22206 0.75961 1.30978 228 235 205
-0.22206 0.75961 2.05267 228 235 205
-0.22206 0.75961 0.89755 228 235 205
-0.48982 0.75875 0.58402 228 235 205
-0.22206 0.75961 0.23398 228 235 205
-0.91213 0.7574 0.58402 228 235 205
-0.9125 0.87263 0.58402 228 235 205
-0.49019 0.87398 0.58402 228 235 205
-0.28192 0.75942 2.10954 228 235 205
-0.91213 0.7574 1.07073 228 235 205
-0.95629 0.75726 1.03349 228 235 205
-0.95629 0.75726 0.62126 228 235 205
-0.95666 0.87249 0.62126 228 235 205
-0.95666 0.87249 1.03349 228 235 205
-0.48982 0.75875 0.4773 228 235 205
-0.49019 0.87398 0.4773 228 235 205
-0.28699 0.7594 0.17463 228 235 205
-0.64703 0.75825 0.17463 228 235 205
-0.64703 0.75825 0.4773 228 235 205
-0.69978 0.75808 0.44603 228 235 205
-0.69978 0.75808 0.2059 228 235 205
-0.70015 0.87331 0.2059 228 235 205
-0.70015 0.87331 0.44603 228 235 205
-0.64739 0.87348 0.17463 228 235 205
-0.28229 0.87465 2.10954 228 235 205
-1.24649 0.87156 2.10954 228 235 205
-0.22243 0.87484 2.05267 228 235 205
-0.22243 0.87484 1.30978 228 235 205
-0.22243 0.87484 0.89755 228 235 205
0.22243 0.87484 1.30978 228 235 205
0.22243 0.87484 0.89755 228 235 205
-0.9125 0.87263 1.07073 228 235 205
-0.22243 0.87484 0.23398 228 235 205
-0.28736 0.87463 0.17463 228 235 205
-0.64739 0.87348 0.4773 228 235 205
-0.10939 0.75953 0.89755 228 235 205
0.10939 0.75953 0.89755 228 235 205
0.22206 0.75961 0.89755 228 235 205
0.22206 0.75961 0.23398 228 235 205
0.22243 0.87484 0.23398 228 235 205
0.28699 0.7594 0.17463 228 235 205
0.28736 0.87463 0.17463 228 235 205
0.49019 0.87398 0.58402 228 235 205
0.49019 0.87398 0.4773 228 235 205
0.64703 0.75825 0.17463 228 235 205
0.64739 0.87348 0.17463 228 235 205
0.64739 0.87348 0.4773 228 235 205
0.70015 0.87331 0.2059 228 235 205
0.70015 0.87331 0.44603 228 235 205
0.75795 0.87313 1.07073 228 235 205
0.75795 0.87313 1.20764 228 235 205
0.9125 0.87263 0.58402 228 235 205
0.9125 0.87263 1.07073 228 235 205
0.95666 0.87249 0.62126 228 235 205
0.95666 0.87249 1.03349 228 235 205
0.22243 0.87484 2.05267 228 235 205
0.22206 0.75961 1.30978 228 235 205
0.22206 0.75961 2.05267 228 235 205
0.28229 0.87465 2.10954 228 235 205
1.24649 0.87156 2.10954 228 235 205
1.24649 0.87156 1.20764 228 235 205
1.30738 0.87137 1.25025 228 235 205
1.30738 0.87137 2.06693 228 235 205
0.48982 0.75875 0.58402 228 235 205
0.91213 0.7574 0.58402 228 235 205
0.75758 0.7579 1.07073 228 235 205
0.75758 0.7579 1.20764 228 235 205
1.24612 0.75633 1.20764 228 235 205
1.24612 0.75633 2.10954 228 235 205
1.30701 0.75614 1.25025 228 235 205
1.30701 0.75614 2.06693 228 235 205
0.28192 0.75942 2.10954 228 235 205
0.10939 0.75953 1.30978 228 235 205
0.07374 0.72026 0.89755 228 235 205
0.07374 0.72026 1.30978 228 235 205
-0.07374 0.72026 0.89755 228 235 205
-0.10939 0.75953 1.30978 228 235 205
-0.07374 0.72026 1.30978 228 235 205
0.07392 0.53126 0.89755 228 235 205
-0.07392 0.53126 0.89755 228 235 205
-0.75758 0.7579 1.07073 235 240 217
-0.91213 0.7574 1.07073 235 240 217
-0.9125 0.87263 1.07073 235 240 217
-0.75795 0.87313 1.07073 235 240 217
-0.95666 0.87249 1.03349 235 240 217
-0.95629 0.75726 1.03349 235 240 217
-0.48982 0.75875 0.4773 235 240 217
-0.64703 0.75825 0.4773 235 240 217
-0.64739 0.87348 0.4773 235 240 217
-0.49019 0.87398 0.4773 235 240 217
-0.70015 0.87331 0.44603 235 240 217
-0.69978 0.75808 0.44603 235 240 217
-0.22243 0.87484 1.30978 235 240 217
-0.10939 0.75953 1.30978 235 240 217
-0.22206 0.75961 1.30978 235 240 217
0.10939 0.75953 1.30978 235 240 217
-0.07374 0.72026 1.30978 235 240 217
0.07374 0.72026 1.30978 235 240 217
-0.07392 0.53126 1.30978 235 240 217
0.07392 0.53126 1.30978 235 240 217
-1.30701 0.75614 2.06693 235 240 217
-1.30738 0.87137 2.06693 235 240 217
-0.95331 0.74203 1.73798 108 119 69
-0.95331 0.74203 1.98057 108 119 69
-0.66764 0.74295 1.98057 108 119 69
-0.66764 0.74295 1.73798 108 119 69
-0.6681 0.887 1.98057 108 119 69
-0.95377 0.88608 1.98057 108 119 69
-0.95377 0.88608 1.73798 108 119 69
-0.6681 0.887 1.73798 108 119 69
-0.83531 0.74241 0.90444 108 119 69
-0.83531 0.74241 1.01858 108 119 69
-0.68007 0.74291 1.01858 108 119 69
-0.68007 0.74291 0.90444 108 119 69
-0.68053 0.88696 1.01858 108 119 69
-0.83577 0.88646 1.01858 108 119 69
-0.83577 0.88646 0.90444 108 119 69
-0.68053 0.88696 0.90444 108 119 69
-0.45172 0.74364 0.36283 108 119 69
-0.45172 0.74364 0.46599 108 119 69
-0.3283 0.74403 0.46599 108 119 69
-0.3283 0.74403 0.36283 108 119 69
-0.32876 0.88808 0.46599 108 119 69
-0.45218 0.88769 0.46599 108 119 69
-0.45218 0.88769 0.36283 108 119 69
-0.32876 0.88808 0.36283 108 119 69
-1.08565 0.74227 1.51299 201 213 165
-1.08565 0.74227 1.58235 201 213 165
-0.36345 0.74392 1.58235 201 213 165
-0.36345 0.74392 1.51299 201 213 165
-0.36391 0.88797 1.58235 201 213 165
-1.08611 0.88763 1.58235 201 213 165
-1.08611 0.88763 1.51299 201 213 165
-0.36391 0.88797 1.51299 201 213 165
-0.79484 0.74254 0.78696 201 213 165
-0.79484 0.74254 0.84657 201 213 165
-0.3296 0.74403 0.84657 201 213 165
-0.3296 0.74403 0.78696 201 213 165
-0.33007 0.88808 0.84657 201 213 165
-0.7953 0.88659 0.84657 201 213 165
-0.7953 0.88659 0.78696 201 213 165
-0.33007 0.88808 0.78696 201 213 165
-0.61084 0.74313 0.29381 201 213 165
-0.61084 0.74313 0.34452 201 213 165
-0.31176 0.74409 0.34452 201 213 165
-0.31176 0.74409 0.29381 201 213 165
-0.31223 0.88814 0.34452 201 213 165
-0.6113 0.88718 0.34452 201 213 165
-0.6113 0.88718 0.29381 201 213 165
-0.31223 0.88814 0.29381 201 213 165
-0.07392 0.53126 1.30978 228 235 205
0.28192 0.75942 2.10954 235 240 217
0.22206 0.75961 2.05267 235 240 217
0.22243 0.87484 2.05267 235 240 217
0.28229 0.87465 2.10954 235 240 217
1.24649 0.87156 2.10954 235 240 217
1.24612 0.75633 2.10954 235 240 217
0.95629 0.75726 0.62126 228 235 205
0.95629 0.75726 1.03349 228 235 205
0.91213 0.7574 1.07073 228 235 205
0.75758 0.7579 1.07073 235 240 217
0.75795 0.87313 1.07073 235 240 217
0.9125 0.87263 1.07073 235 240 217
0.91213 0.7574 1.07073 235 240 217
0.95666 0.87249 1.03349 235 240 217
0.95629 0.75726 1.03349 235 240 217
0.48982 0.75875 0.4773 228 235 205
0.64703 0.75825 0.4773 228 235 205
0.69978 0.75808 0.44603 228 235 205
0.69978 0.75808 0.2059 228 235 205
0.48982 0.75875 0.4773 235 240 217
0.49019 0.87398 0.4773 235 240 217
0.64739 0.87348 0.4773 235 240 217
0.64703 0.75825 0.4773 235 240 217
0.70015 0.87331 0.44603 235 240 217
0.69978 0.75808 0.44603 235 240 217
0.22243 0.87484 1.30978 235 240 217
0.22206 0.75961 1.30978 235 240 217
1.30738 0.87137 2.06693 235 240 217
1.30701 0.75614 2.06693 235 240 217
0.95331 0.74203 1.73798 108 119 69
0.66764 0.74295 1.73798 108 119 69
0.66764 0.74295 1.98057 108 119 69
0.95331 0.74203 1.98057 108 119 69
0.6681 0.887 1.98057 108 119 69
0.95377 0.88608 1.98057 108 119 69
0.95377 0.88608 1.73798 108 119 69
0.6681 0.887 1.73798 108 119 69
0.83531 0.74241 0.90444 108 119 69
0.68007 0.74291 0.90444 108 119 69
0.68007 0.74291 1.01858 108 119 69
0.83531 0.74241 1.01858 108 119 69
0.68053 0.88696 1.01858 108 119 69
0.83577 0.88646 1.01858 108 119 69
0.83577 0.88646 0.90444 108 119 69
0.68053 0.88696 0.90444 108 119 69
0.45172 0.74364 0.36283 108 119 69
0.3283 0.74403 0.36283 108 119 69
0.3283 0.74403 0.46599 108 119 69
0.45172 0.74364 0.46599 108 119 69
0.32876 0.88808 0.46599 108 119 69
0.45218 0.88769 0.46599 108 119 69
0.45218 0.88769 0.36283 108 119 69
0.32876 0.88808 0.36283 108 119 69
1.08565 0.74227 1.51299 201 213 165
0.36345 0.74392 1.51299 201 213 165
0.36345 0.74392 1.58235 201 213 165
1.08565 0.74227 1.58235 201 213 165
0.36391 0.88797 1.58235 201 213 165
1.08611 0.88763 1.58235 201 213 165
1.08611 0.88763 1.51299 201 213 165
0.36391 0.88797 1.51299 201 213 165
0.79484 0.74254 0.78696 201 213 165
0.3296 0.74403 0.78696 201 213 165
0.3296 0.74403 0.84657 201 213 165
0.79484 0.74254 0.84657 201 213 165
0.33007 0.88808 0.84657 201 213 165
0.7953 0.88659 0.84657 201 213 165
0.7953 0.88659 0.78696 201 213 165
0.33007 0.88808 0.78696 201 213 165
0.61084 0.74313 0.29381 201 213 165
0.31176 0.74409 0.29381 201 213 165
0.31176 0.74409 0.34452 201 213 165
0.61084 0.74313 0.34452 201 213 165
0.31223 0.88814 0.34452 201 213 165
0.6113 0.88718 0.34452 201 213 165
0.6113 0.88718 0.29381 201 213 165
0.31223 0.88814 0.29381 201 213 165
0.07392 0.53126 1.30978 228 235 205
3 0 2 1
3 0 3 2
3 1 2 4
3 1 4 5
3 5 4 6
3 5 6 7
3 7 3 0
3 7 6 3
3 6 4 8
3 6 8 9
3 10 6 9
3 3 6 10
3 4 11 8
3 4 2 11
3 2 12 11
3 2 3 12
3 3 13 12
3 3 10 13
3 14 16 15
3 14 17 16
3 18 20 19
3 18 21 20
3 21 22 20
3 21 23 22
3 23 24 22
3 23 25 24
3 25 19 24
3 19 26 18
3 25 26 19
3 26 27 18
3 28 23 21
3 21 29 28
3 30 32 31
3 30 33 32
3 34 36 35
3 34 37 36
3 37 38 36
3 37 39 38
3 39 40 38
3 39 41 40
3 41 35 40
3 41 34 35
3 40 42 38
3 40 43 42
3 44 43 40
3 35 44 40
3 38 45 36
3 38 42 45
3 36 46 35
3 36 45 46
3 35 46 47
3 35 47 44
3 48 50 49
3 48 51 50
3 52 54 53
3 52 55 54
3 53 54 56
3 53 56 57
3 57 56 58
3 57 58 59
3 59 58 55
3 55 52 60
3 59 55 60
3 60 52 61
3 62 53 57
3 53 62 63
3 64 66 65
3 64 67 66
3 68 70 69
3 68 71 70
3 72 71 68
3 72 73 71
3 73 70 71
3 73 74 70
3 74 69 70
3 74 75 69
3 76 78 77
3 76 79 78
3 80 82 81
3 80 83 82
3 82 83 84
3 82 84 85
3 82 85 86
3 82 86 87
3 85 88 86
3 85 89 88
3 81 82 87
3 81 87 90
3 89 90 88
3 89 81 90
3 80 81 89
3 80 89 91
3 75 68 69
3 75 72 68
3 92 94 93
3 92 95 94
3 96 95 92
3 96 97 95
3 98 97 96
3 98 99 97
3 95 99 94
3 95 97 99
3 96 93 98
3 96 92 93
3 100 102 101
3 100 103 102
3 104 100 101
3 104 101 105
3 106 104 105
3 106 105 107
3 101 107 105
3 101 102 107
3 104 103 100
3 104 106 103
3 108 110 109
3 108 111 110
3 109 110 112
3 111 112 110
3 109 112 113
3 113 112 114
3 111 114 112
3 113 114 115
3 115 111 108
3 115 114 111
3 116 118 117
3 116 119 118
3 117 118 120
3 119 120 118
3 117 120 121
3 121 120 122
3 119 122 120
3 121 122 123
3 123 119 116
3 123 122 119
3 124 126 125
3 124 127 126
3 127 128 126
3 125 126 128
3 127 129 128
3 129 130 128
3 125 128 130
3 129 131 130
3 131 125 130
3 131 124 125
3 132 134 133
3 132 135 134
3 135 136 134
3 133 134 136
3 135 137 136
3 137 138 136
3 133 136 138
3 137 139 138
3 139 133 138
3 139 132 133
3 140 142 141
3 140 143 142
3 143 144 142
3 143 145 144
3 142 144 146
3 142 146 147
3 146 148 147
3 146 149 148
3 142 147 150
3 150 147 151
3 150 151 152
3 151 153 152
3 151 154 153
3 150 152 155
3 150 155 156
3 155 157 156
3 155 158 157
3 150 156 159
3 159 156 160
3 160 161 159
3 160 162 161
3 160 163 162
3 164 166 165
3 164 167 166
3 165 169 168
3 165 166 169
3 170 161 171
3 170 159 161
3 170 171 172
3 173 170 172
3 174 170 173
3 173 175 174
3 173 176 175
3 174 177 170
3 178 177 174
3 179 177 178
3 178 180 179
3 178 181 180
3 182 177 179
3 141 177 182
3 141 182 183
3 182 184 183
3 182 185 184
3 141 183 186
3 186 140 141
3 186 187 140
3 188 190 189
3 188 191 190
3 192 194 193
3 192 195 194
3 196 198 197
3 196 199 198
3 200 202 201
3 200 203 202
3 204 206 205
3 204 207 206
3 208 210 209
3 208 211 210
3 212 214 213
3 212 215 214
3 216 218 217
3 216 219 218
3 220 222 221
3 220 223 222
3 224 220 221
3 224 221 225
3 225 226 224
3 225 227 226
3 222 223 228
3 222 228 229
3 226 227 230
3 226 230 231
3 230 227 232
3 230 232 233
3 227 234 232
3 227 225 234
3 225 235 234
3 225 221 235
3 221 236 235
3 221 222 236
3 222 237 236
3 222 229 237
3 238 240 239
3 238 241 240
3 242 241 238
3 242 243 241
3 244 243 242
3 244 245 243
3 246 248 247
3 246 249 248
3 229 246 247
3 229 228 246
3 231 248 249
3 231 230 248
3 229 247 250
3 229 250 237
3 247 251 250
3 247 248 251
3 248 233 251
3 248 230 233
3 252 254 253
3 252 255 254
3 253 254 256
3 255 256 254
3 253 256 257
3 257 256 258
3 255 258 256
3 257 258 259
3 259 255 252
3 259 258 255
3 260 262 261
3 260 263 262
3 261 262 264
3 263 264 262
3 261 264 265
3 265 264 266
3 263 266 264
3 265 266 267
3 267 263 260
3 267 266 263
3 268 270 269
3 268 271 270
3 271 272 270
3 269 270 272
3 271 273 272
3 273 274 272
3 269 272 274
3 273 275 274
3 275 269 274
3 275 268 269
3 276 278 277
3 276 279 278
3 279 280 278
3 277 278 280
3 279 281 280
3 281 282 280
3 277 280 282
3 281 283 282
3 283 277 282
3 283 276 277
3 284 286 285
3 284 287 286
3 287 288 286
3 287 289 288
3 289 290 288
3 289 291 290
3 292 294 293
3 292 295 294
3 296 295 292
3 296 297 295
3 296 298 297
3 296 299 298
3 297 300 295
3 297 301 300
3 302 297 298
3 302 301 297
3 295 303 294
3 295 300 303
3 296 304 299
3 296 305 304
3 292 305 296
3 292 293 305
3 306 308 307
3 306 309 308
3 310 306 307
3 310 311 306
3 310 307 312
3 310 312 313
3 307 314 312
3 307 315 314
3 315 316 314
3 315 317 316
3 316 317 318
3 316 318 319
3 306 311 320
3 320 311 321
3 320 321 322
3 323 320 322
3 306 320 323
3 323 322 324
3 325 323 324
3 325 306 323
3 325 324 326
3 327 317 315
3 327 328 317
3 328 318 317
3 325 309 306
3 307 327 315
3 307 308 327
3 328 329 318
3 311 331 330
3 311 310 331
3 331 310 332
3 331 332 333
3 321 333 332
3 330 321 311
3 332 334 321
3 332 335 334
3 334 335 336
3 334 336 337
3 332 338 335
3 332 339 338
3 335 338 340
3 335 340 341
3 341 340 319
3 341 319 318
3 334 322 321
3 334 324 322
3 321 342 333
3 330 342 321
3 343 341 318
3 335 343 336
3 335 341 343
3 343 318 329
3 326 334 337
3 326 324 334
3 305 344 304
3 305 345 344
3 305 294 345
3 305 293 294
3 345 294 303
3 345 303 346
3 347 345 346
3 347 344 345
3 348 350 349
3 348 351 350
3 313 332 310
3 313 339 332
3 352 354 353
3 352 355 354
3 355 352 356
3 355 356 357
3 356 352 358
3 352 359 358
3 352 360 359
3 360 352 353
3 360 353 361
3 362 360 361
3 362 361 363
3 360 362 364
3 360 364 365
3 359 360 365
3 356 358 366
3 364 367 365
3 359 365 367
3 364 368 367
3 356 369 357
3 356 366 369
3 370 372 371
3 370 373 372
3 374 370 371
3 374 371 372
3 374 375 370
3 376 375 374
3 376 377 375
3 374 378 376
3 374 379 378
3 380 378 379
3 380 379 381
3 382 381 379
3 382 379 383
3 374 383 379
3 384 382 383
3 374 384 383
3 374 372 384
3 384 385 382
3 385 372 373
3 385 384 372
3 358 387 386
3 358 388 387
3 386 366 358
3 386 369 366
3 359 388 358
3 359 389 388
3 390 389 359
3 390 391 389
3 359 368 390
3 359 367 368
3 392 394 393
3 392 395 394
3 396 395 392
3 396 394 395
3 396 392 397
3 398 396 397
3 398 397 399
3 396 398 400
3 396 400 401
3 402 401 400
3 402 403 401
3 404 393 394
3 396 404 394
3 404 405 393
3 404 406 405
3 404 407 406
3 403 407 401
3 403 406 407
3 396 407 404
3 396 401 407
3 408 410 409
3 408 411 410
3 412 411 408
3 412 413 411
3 414 413 412
3 414 415 413
3 411 413 416
3 411 416 417
3 410 411 417
3 417 416 418
3 413 418 416
3 413 415 418
3 417 418 419
3 410 417 419
3 420 422 421
3 420 423 422
3 422 423 424
3 422 424 425
3 426 428 427
3 426 429 428
3 427 428 430
3 429 430 428
3 427 430 431
3 431 430 432
3 429 432 430
3 431 432 433
3 433 429 426
3 433 432 429
3 433 427 431
3 433 426 427
3 434 436 435
3 434 437 436
3 435 436 438
3 437 438 436
3 435 438 439
3 439 438 440
3 437 440 438
3 439 440 441
3 441 437 434
3 441 440 437
3 441 435 439
3 441 434 435
3 442 444 443
3 442 445 444
3 446 442 443
3 446 443 447
3 448 446 447
3 448 447 449
3 443 450 447
3 443 451 450
3 444 451 443
3 451 452 450
3 447 452 449
3 447 450 452
3 451 453 452
3 444 453 451
3 454 456 455
3 454 457 456
3 456 458 455
3 456 459 458
3 460 462 461
3 460 463 462
3 463 464 462
3 461 462 464
3 463 465 464
3 465 466 464
3 461 464 466
3 465 467 466
3 467 461 466
3 467 460 461
3 467 463 460
3 467 465 463
3 468 470 469
3 468 471 470
3 471 472 470
3 469 470 472
3 471 473 472
3 473 474 472
3 469 472 474
3 473 475 474
3 475 469 474
3 475 468 469
3 475 471 468
3 475 473 471
3 171 162 476
3 171 161 162
3 172 171 476
3 172 476 477
3 478 480 479
3 478 481 480
3 478 479 482
3 478 482 483
3 484 486 485
3 484 487 486
3 488 487 484
3 488 489 487
3 489 486 487
3 490 489 488
3 490 491 489
3 492 491 490
3 492 493 491
3 491 494 489
3 489 494 486
3 493 495 491
3 491 495 496
3 493 497 495
3 493 498 497
3 497 498 499
3 493 500 498
3 498 500 501
3 498 501 502
3 491 503 494
3 491 496 503
3 493 504 500
3 500 504 505
3 500 505 506
3 507 506 505
3 507 505 508
3 501 506 507
3 501 500 506
3 499 498 509
3 498 510 509
3 498 502 510
3 499 509 511
3 511 509 512
3 512 509 513
3 512 513 514
3 512 514 515
3 514 516 515
3 514 517 516
3 518 515 516
3 518 512 515
3 519 490 520
3 521 490 519
3 520 490 488
3 520 488 484
3 520 484 485
3 522 490 521
3 495 522 521
3 495 521 496
3 523 490 522
3 523 522 524
3 523 524 525
3 523 492 490
3 502 492 523
3 502 501 492
3 492 501 526
3 526 501 507
3 526 507 508
3 502 523 527
3 502 527 528
3 511 528 527
3 511 527 499
3 523 499 527
3 502 528 510
3 523 497 499
3 528 511 512
3 528 512 518
3 510 528 518
3 510 518 529
3 529 518 516
3 529 516 517
3 497 523 530
3 523 531 530
3 523 525 531
3 532 531 525
3 525 533 532
3 525 534 533
3 535 533 534
3 535 534 536
3 537 536 534
3 537 534 525
3 537 538 536
3 536 539 535
3 536 540 539
3 538 540 536
3 538 541 540
3 541 542 540
3 541 543 542
3 537 525 544
3 525 545 544
3 525 524 545
3 537 544 546
3 544 547 546
3 547 548 546
3 547 549 548
3 524 550 545
3 551 550 524
3 551 552 550
3 550 553 545
3 553 554 545
3 554 555 545
3 554 556 555
3 554 557 556
3 558 546 559
3 558 537 546
3 560 558 559
3 560 532 558
3 532 533 558
3 560 551 532
3 560 561 551
3 544 561 560
3 544 545 561
3 545 562 561
3 545 555 562
3 561 562 563
3 561 552 551
3 555 564 562
3 555 556 564
3 556 565 564
3 562 565 563
3 562 564 565
3 556 557 565
3 561 563 566
3 561 566 552
3 551 531 532
3 551 567 531
3 567 568 531
3 567 569 568
3 530 531 568
3 530 568 570
3 571 530 570
3 495 530 571
3 495 497 530
3 571 570 572
3 573 570 568
3 573 574 570
3 575 577 576
3 575 578 577
3 576 577 579
3 576 579 580
3 581 583 582
3 581 584 583
3 582 583 585
3 582 585 586
3 587 589 588
3 590 588 591
3 590 591 592
3 593 592 591
3 593 594 592
3 483 596 595
3 483 482 596
3 597 599 598
3 597 600 599
3 598 599 601
3 598 601 602
3 603 600 597
3 603 598 602
3 603 597 598
3 603 604 600
3 602 604 603
3 602 601 604
3 600 604 601
3 600 601 599
3 605 607 606
3 605 608 607
3 606 607 609
3 606 609 610
3 611 608 605
3 611 606 610
3 611 605 606
3 611 612 608
3 610 612 611
3 610 609 612
3 608 612 609
3 608 609 607
3 613 615 614
3 613 616 615
3 614 615 617
3 614 617 618
3 619 616 613
3 619 614 618
3 619 613 614
3 619 620 616
3 618 620 619
3 618 617 620
3 616 620 617
3 616 617 615
3 621 623 622
3 621 624 623
3 622 623 625
3 622 625 626
3 627 624 621
3 627 622 626
3 627 621 622
3 627 628 624
3 626 628 627
3 626 625 628
3 624 628 625
3 624 625 623
3 629 631 630
3 629 632 631
3 630 631 633
3 630 633 634
3 635 632 629
3 635 630 634
3 635 629 630
3 635 636 632
3 634 636 635
3 634 633 636
3 632 636 633
3 632 633 631
3 637 639 638
3 637 640 639
3 638 639 641
3 638 641 642
3 643 640 637
3 643 638 642
3 643 637 638
3 643 644 640
3 642 644 643
3 642 641 644
3 640 644 641
3 640 641 639
3 570 645 572
3 570 574 645
3 646 648 647
3 646 649 648
3 646 650 649
3 646 651 650
3 548 653 652
3 548 549 653
3 546 548 652
3 546 652 559
3 559 652 653
3 559 653 654
3 560 559 654
3 655 657 656
3 655 658 657
3 658 659 657
3 658 660 659
3 558 538 537
3 558 661 538
3 533 661 558
3 533 535 661
3 535 539 661
3 539 662 661
3 539 663 662
3 539 664 663
3 663 664 542
3 663 542 543
3 540 664 539
3 540 542 664
3 665 667 666
3 665 668 667
3 668 669 667
3 668 670 669
3 671 590 672
3 587 590 671
3 587 588 590
3 651 673 650
3 651 674 673
3 675 677 676
3 675 678 677
3 678 679 677
3 678 680 679
3 681 675 676
3 681 678 675
3 681 680 678
3 681 676 682
3 680 682 679
3 680 681 682
3 676 679 682
3 676 677 679
3 683 685 684
3 683 686 685
3 686 687 685
3 686 688 687
3 689 683 684
3 689 686 683
3 689 688 686
3 689 684 690
3 688 690 687
3 688 689 690
3 684 687 690
3 684 685 687
3 691 693 692
3 691 694 693
3 694 695 693
3 694 696 695
3 697 691 692
3 697 694 691
3 697 696 694
3 697 692 698
3 696 698 695
3 696 697 698
3 692 695 698
3 692 693 695
3 699 701 700
3 699 702 701
3 702 703 701
3 702 704 703
3 705 699 700
3 705 702 699
3 705 704 702
3 705 700 706
3 704 706 703
3 704 705 706
3 700 703 706
3 700 701 703
3 707 709 708
3 707 710 709
3 710 711 709
3 710 712 711
3 713 707 708
3 713 710 707
3 713 712 710
3 713 708 714
3 712 714 711
3 712 713 714
3 708 711 714
3 708 709 711
3 715 717 716
3 715 718 717
3 718 719 717
3 718 720 719
3 721 715 716
3 721 718 715
3 721 720 718
3 721 716 722
3 720 722 719
3 720 721 722
3 716 719 722
3 716 717 719
3 568 723 573
3 568 569 723
