ply
format ascii 1.0
element vertex 728
property float x
property float y
property float z
property uchar red
property uchar green
property uchar blue
element face 878
property list uchar int vertex_index
end_header
0.48004 -1.00804 1.11403 255 255 255
0.48004 -1.00804 1.46083 255 255 255
0.52773 -1.00804 1.46083 255 255 255
0.52773 -1.00804 1.11403 255 255 255
0.52773 -0.66124 1.46083 255 255 255
0.48004 -0.66124 1.46083 255 255 255
0.52773 -0.66124 1.11403 255 255 255
0.48004 -0.66124 1.11403 255 255 255
0.52773 -0.70699 1.41508 255 255 255
0.52773 -0.70699 1.15977 255 255 255
0.52773 -0.74114 1.15977 255 255 255
0.52773 -0.96229 1.41508 255 255 255
0.52773 -0.96229 1.15977 255 255 255
0.52773 -0.8838 1.15977 255 255 255
0.52773 -0.91442 1.30441 255 255 255
0.52773 -0.91442 1.38736 255 255 255
0.52773 -0.83147 1.38736 255 255 255
0.52773 -0.83147 1.30441 255 255 255
0.52773 -0.8838 1.23865 50 48 48
0.52773 -0.91442 1.30441 50 48 48
0.52773 -0.83147 1.30441 50 48 48
0.52773 -0.7411 1.23865 50 48 48
0.52773 -0.83147 1.38736 50 48 48
0.52773 -0.70699 1.41508 50 48 48
0.52773 -0.91442 1.38736 50 48 48
0.52773 -0.96229 1.41508 50 48 48
0.52773 -0.96229 1.15977 50 48 48
0.52773 -0.8838 1.15977 50 48 48
0.52773 -0.70699 1.15977 50 48 48
0.52773 -0.74114 1.15977 50 48 48
0.52773 -0.8838 1.23865 83 80 80
0.52773 -0.7411 1.23865 83 80 80
0.52773 -0.74114 1.15977 83 80 80
0.52773 -0.8838 1.15977 83 80 80
-0.48004 -1.00804 1.11403 255 255 255
-0.52773 -1.00804 1.11403 255 255 255
-0.52773 -1.00804 1.46083 255 255 255
-0.48004 -1.00804 1.46083 255 255 255
-0.52773 -0.66124 1.46083 255 255 255
-0.48004 -0.66124 1.46083 255 255 255
-0.52773 -0.66124 1.11403 255 255 255
-0.48004 -0.66124 1.11403 255 255 255
-0.52773 -0.70699 1.41508 255 255 255
-0.52773 -0.70699 1.15977 255 255 255
-0.52773 -0.74114 1.15977 255 255 255
-0.52773 -0.96229 1.41508 255 255 255
-0.52773 -0.96229 1.15977 255 255 255
-0.52773 -0.8838 1.15977 255 255 255
-0.52773 -0.91442 1.30441 255 255 255
-0.52773 -0.83147 1.30441 255 255 255
-0.52773 -0.83147 1.38736 255 255 255
-0.52773 -0.91442 1.38736 255 255 255
-0.52773 -0.8838 1.23865 50 48 48
-0.52773 -0.7411 1.23865 50 48 48
-0.52773 -0.83147 1.30441 50 48 48
-0.52773 -0.91442 1.30441 50 48 48
-0.52773 -0.83147 1.38736 50 48 48
-0.52773 -0.70699 1.41508 50 48 48
-0.52773 -0.91442 1.38736 50 48 48
-0.52773 -0.96229 1.41508 50 48 48
-0.52773 -0.96229 1.15977 50 48 48
-0.52773 -0.8838 1.15977 50 48 48
-0.52773 -0.70699 1.15977 50 48 48
-0.52773 -0.74114 1.15977 50 48 48
-0.52773 -0.8838 1.23865 83 80 80
-0.52773 -0.8838 1.15977 83 80 80
-0.52773 -0.74114 1.15977 83 80 80
-0.52773 -0.7411 1.23865 83 80 80
-0.17081 -1.22578 1.01294 105 85 92
-0.17081 -1.22578 1.19316 105 85 92
0.17081 -1.22578 1.19316 105 85 92
0.17081 -1.22578 1.01294 105 85 92
-0.17081 -1.28856 1.01294 105 85 92
0.17081 -1.28856 1.01294 105 85 92
0.17081 -1.28856 1.19316 105 85 92
-0.17081 -1.28856 1.19316 105 85 92
-0.24271 -1.28856 1.25018 240 194 210
-0.24271 -1.18512 1.25018 240 194 210
0.24271 -1.18512 1.25018 240 194 210
0.24271 -1.28856 1.25018 240 194 210
-0.24271 -1.18512 0.95592 230 186 202
-0.24271 -1.28856 0.95592 230 186 202
0.24271 -1.28856 0.95592 230 186 202
0.24271 -1.18512 0.95592 230 186 202
0.24271 -1.18512 1.25018 230 186 202
0.24271 -1.28856 1.25018 230 186 202
0.17081 -1.28856 1.19316 230 186 202
0.17081 -1.28856 1.01294 230 186 202
-0.17081 -1.28856 1.19316 230 186 202
-0.24271 -1.28856 1.25018 230 186 202
-0.17081 -1.28856 1.01294 230 186 202
-0.24271 -1.18512 1.25018 230 186 202
0.08514 -1.28378 1.13508 229 232 238
0.08514 -1.28378 1.19796 229 232 238
0.13854 -1.28378 1.19796 229 232 238
0.13854 -1.28378 1.13508 229 232 238
0.08514 -1.24394 1.13508 229 232 238
0.13854 -1.24394 1.13508 229 232 238
0.08514 -1.24394 1.19796 229 232 238
0.13854 -1.24394 1.19796 229 232 238
-0.08514 -1.28378 1.13508 229 232 238
-0.13854 -1.28378 1.13508 229 232 238
-0.13854 -1.28378 1.19796 229 232 238
-0.08514 -1.28378 1.19796 229 232 238
-0.08514 -1.24394 1.13508 229 232 238
-0.13854 -1.24394 1.13508 229 232 238
-0.08514 -1.24394 1.19796 229 232 238
-0.13854 -1.24394 1.19796 229 232 238
0.49121 -0.91634 0.98289 71 70 68
0.49121 -0.91634 1.07462 71 70 68
0.51193 -0.91634 1.07462 71 70 68
0.51193 -0.91634 0.98289 71 70 68
0.51193 -0.61511 1.07462 71 70 68
0.49121 -0.61511 1.07462 71 70 68
0.51193 -0.61511 0.98289 71 70 68
0.49121 -0.61511 0.98289 71 70 68
0.49121 -0.95352 0.83393 71 70 68
0.49121 -0.95352 0.92136 71 70 68
0.51193 -0.95352 0.92136 71 70 68
0.51193 -0.95352 0.83393 71 70 68
0.51193 -0.71127 0.92136 71 70 68
0.49121 -0.71127 0.92136 71 70 68
0.51193 -0.71127 0.83393 71 70 68
0.49121 -0.71127 0.83393 71 70 68
-0.49121 -0.91634 0.98289 71 70 68
-0.51193 -0.91634 0.98289 71 70 68
-0.51193 -0.91634 1.07462 71 70 68
-0.49121 -0.91634 1.07462 71 70 68
-0.51193 -0.61511 1.07462 71 70 68
-0.49121 -0.61511 1.07462 71 70 68
-0.51193 -0.61511 0.98289 71 70 68
-0.49121 -0.61511 0.98289 71 70 68
-0.49121 -0.95352 0.83393 71 70 68
-0.51193 -0.95352 0.83393 71 70 68
-0.51193 -0.95352 0.92136 71 70 68
-0.49121 -0.95352 0.92136 71 70 68
-0.51193 -0.71127 0.92136 71 70 68
-0.49121 -0.71127 0.92136 71 70 68
-0.51193 -0.71127 0.83393 71 70 68
-0.49121 -0.71127 0.83393 71 70 68
-0.0504 -0.67567 1.65362 227 230 236
-0.0504 -0.67567 2.10688 227 230 236
0.0504 -0.67567 2.10688 227 230 236
0.0504 -0.67567 1.65362 227 230 236
0.0504 -0.5082 1.9061 227 230 236
0.0504 -0.5082 1.65362 227 230 236
0.0504 -0.45089 1.89599 227 230 236
0.0504 -0.27934 1.86648 227 230 236
0.0504 -0.27934 1.65362 227 230 236
0.0504 -0.45089 1.65362 227 230 236
0.0504 -0.09298 1.97645 227 230 236
0.0504 -0.21881 1.85757 227 230 236
0.0504 -0.03695 1.82804 227 230 236
0.0504 -0.03695 1.65362 227 230 236
0.0504 -0.21881 1.65362 227 230 236
0.0504 0.01991 1.81913 227 230 236
0.0504 0.20721 1.78363 227 230 236
0.0504 0.20721 1.65362 227 230 236
0.0504 0.01991 1.65362 227 230 236
0.0504 0.385 1.86933 227 230 236
0.0504 0.25857 1.77472 227 230 236
0.0504 0.41734 1.82693 227 230 236
0.0504 0.41734 1.65362 227 230 236
0.0504 0.25857 1.65362 227 230 236
-0.0504 -0.67567 2.10688 235 238 244
-0.0504 -0.09298 1.97645 235 238 244
0.0504 -0.09298 1.97645 235 238 244
0.0504 -0.67567 2.10688 235 238 244
-0.0504 0.385 1.86933 235 238 244
0.0504 0.385 1.86933 235 238 244
-0.0504 0.385 1.86933 227 230 236
-0.0504 0.41734 1.82693 227 230 236
-0.0504 0.25857 1.77472 227 230 236
-0.0504 0.20721 1.78363 227 230 236
-0.0504 0.01991 1.81913 227 230 236
-0.0504 0.01991 1.65362 227 230 236
-0.0504 0.20721 1.65362 227 230 236
-0.0504 -0.09298 1.97645 227 230 236
-0.0504 -0.03695 1.82804 227 230 236
-0.0504 -0.21881 1.85757 227 230 236
-0.0504 -0.21881 1.65362 227 230 236
-0.0504 -0.03695 1.65362 227 230 236
-0.0504 -0.27934 1.86648 227 230 236
-0.0504 -0.45089 1.89599 227 230 236
-0.0504 -0.45089 1.65362 227 230 236
-0.0504 -0.27934 1.65362 227 230 236
-0.0504 -0.5082 1.9061 227 230 236
-0.0504 -0.5082 1.65362 227 230 236
0.0504 -0.5082 1.9061 206 209 215
0.0504 -0.45089 1.89599 206 209 215
0.0504 -0.45089 1.65362 206 209 215
0.0504 -0.5082 1.65362 206 209 215
-0.0504 -0.45089 1.89599 206 209 215
-0.0504 -0.5082 1.9061 206 209 215
-0.0504 -0.5082 1.65362 206 209 215
-0.0504 -0.45089 1.65362 206 209 215
0.0504 -0.27934 1.86648 206 209 215
0.0504 -0.21881 1.85757 206 209 215
0.0504 -0.21881 1.65362 206 209 215
0.0504 -0.27934 1.65362 206 209 215
-0.0504 -0.21881 1.85757 206 209 215
-0.0504 -0.27934 1.86648 206 209 215
-0.0504 -0.27934 1.65362 206 209 215
-0.0504 -0.21881 1.65362 206 209 215
0.0504 -0.03695 1.82804 206 209 215
0.0504 0.01991 1.81913 206 209 215
0.0504 0.01991 1.65362 206 209 215
0.0504 -0.03695 1.65362 206 209 215
-0.0504 0.01991 1.81913 206 209 215
-0.0504 -0.03695 1.82804 206 209 215
-0.0504 -0.03695 1.65362 206 209 215
-0.0504 0.01991 1.65362 206 209 215
0.0504 0.20721 1.78363 206 209 215
0.0504 0.25857 1.77472 206 209 215
0.0504 0.25857 1.65362 206 209 215
0.0504 0.20721 1.65362 206 209 215
-0.0504 0.25857 1.77472 206 209 215
-0.0504 0.20721 1.78363 206 209 215
-0.0504 0.20721 1.65362 206 209 215
-0.0504 0.25857 1.65362 206 209 215
-0.1167 -1.04849 1.6394 230 213 189
-0.1166 -1.04842 2.04499 230 213 189
-0.08388 -1.08016 2.04499 230 213 189
-0.08388 -1.08026 1.6394 230 213 189
-0.1167 -0.87863 1.6394 230 213 189
-0.1166 -0.8787 2.04499 230 213 189
-0.08388 -0.84686 1.6394 230 213 189
-0.08388 -0.84696 2.04499 230 213 189
0.08481 -1.08026 1.6394 230 213 189
0.08481 -1.08016 2.04499 230 213 189
0.08481 -0.84696 2.04499 230 213 189
0.08481 -0.84686 1.6394 230 213 189
-0.07129 -0.86445 2.0684 230 213 189
0.0721 -0.86445 2.0684 230 213 189
-0.0991 -0.89143 2.0684 230 213 189
-0.0991 -1.03569 2.0684 230 213 189
-0.07129 -1.06267 2.0684 230 213 189
0.0721 -1.06267 2.0684 230 213 189
0.09912 -1.03569 2.0684 243 225 200
0.0721 -1.06267 2.0684 243 225 200
-0.07129 -1.06267 2.0684 243 225 200
-0.0991 -1.03569 2.0684 243 225 200
0.09912 -0.89143 2.0684 243 225 200
-0.0991 -0.89143 2.0684 243 225 200
0.0721 -0.86445 2.0684 243 225 200
-0.07129 -0.86445 2.0684 243 225 200
0.1167 -1.04849 1.6394 230 213 189
0.1166 -1.04842 2.04499 230 213 189
0.1166 -0.8787 2.04499 230 213 189
0.1167 -0.87863 1.6394 230 213 189
0.09912 -1.03569 2.0684 230 213 189
0.09912 -0.89143 2.0684 230 213 189
0.48452 0.24203 1.31252 71 70 68
0.48452 0.24203 1.46895 71 70 68
0.51334 0.24203 1.46895 71 70 68
0.51334 0.24203 1.31252 71 70 68
0.51334 0.40433 1.46895 71 70 68
0.48452 0.40433 1.46895 71 70 68
0.51334 0.40433 1.31252 71 70 68
0.48452 0.40433 1.31252 71 70 68
0.48452 -0.10704 1.17233 71 70 68
0.48452 -0.10704 1.30849 71 70 68
0.51334 -0.10704 1.30849 71 70 68
0.51334 -0.10704 1.17233 71 70 68
0.51334 0.03672 1.30849 71 70 68
0.48452 0.03672 1.30849 71 70 68
0.51334 0.03672 1.17233 71 70 68
0.48452 0.03672 1.17233 71 70 68
-0.48452 0.24203 1.31252 71 70 68
-0.51334 0.24203 1.31252 71 70 68
-0.51334 0.24203 1.46895 71 70 68
-0.48452 0.24203 1.46895 71 70 68
-0.51334 0.40433 1.46895 71 70 68
-0.48452 0.40433 1.46895 71 70 68
-0.51334 0.40433 1.31252 71 70 68
-0.48452 0.40433 1.31252 71 70 68
-0.48452 -0.10704 1.17233 71 70 68
-0.51334 -0.10704 1.17233 71 70 68
-0.51334 -0.10704 1.30849 71 70 68
-0.48452 -0.10704 1.30849 71 70 68
-0.51334 0.03672 1.30849 71 70 68
-0.48452 0.03672 1.30849 71 70 68
-0.51334 0.03672 1.17233 71 70 68
-0.48452 0.03672 1.17233 71 70 68
0.34544 -1.13523 1.65192 235 120 84
-0.34544 -1.13523 1.65192 235 120 84
-0.43494 -1.06019 1.65192 235 120 84
0.43494 -1.06019 1.65192 235 120 84
-0.43494 0.53054 1.65192 235 120 84
0.43494 0.53054 1.65192 235 120 84
-0.34544 0.60558 1.65192 235 120 84
0.34544 0.60558 1.65192 235 120 84
0.3466 0.60696 0.40488 227 230 236
-0.3466 0.60696 0.40488 227 230 236
-0.43631 0.53173 0.40488 227 230 236
0.43631 0.53173 0.40488 227 230 236
0.39738 0.66747 0.48611 227 230 236
0.49682 0.58409 0.48611 227 230 236
0.49682 0.58409 1.08148 227 230 236
0.39738 0.66747 1.08148 227 230 236
0.43631 -0.21903 0.40488 227 230 236
0.49682 -0.21903 0.48611 227 230 236
0.49682 -0.21903 1.08148 227 230 236
-0.43631 -0.21903 0.40488 227 230 236
-0.39738 0.66747 1.08148 227 230 236
-0.39738 0.66747 0.48611 227 230 236
0.49682 -1.11373 0.48611 225 115 80
0.49682 -1.11373 1.57943 225 115 80
0.49682 -0.21903 1.08148 225 115 80
0.49682 -0.21903 0.48611 225 115 80
0.39738 -1.19711 1.57943 225 115 80
0.39738 -1.19711 0.48611 225 115 80
0.43494 -1.06019 1.65192 225 115 80
0.34544 -1.13523 1.65192 225 115 80
0.43494 0.53054 1.65192 225 115 80
0.49682 0.58409 1.57943 225 115 80
0.34544 0.60558 1.65192 225 115 80
0.39738 0.66747 1.57943 225 115 80
-0.39738 0.66747 1.57943 225 115 80
-0.34544 0.60558 1.65192 225 115 80
0.3466 -1.1366 0.40488 225 115 80
-0.39738 -1.19711 0.48611 225 115 80
-0.3466 -1.1366 0.40488 225 115 80
0.43631 -1.06138 0.40488 225 115 80
-0.43631 -1.06138 0.40488 225 115 80
0.43631 -0.21903 0.40488 225 115 80
-0.43631 -0.21903 0.40488 225 115 80
0.49682 0.58409 1.08148 225 115 80
0.39738 0.66747 1.08148 225 115 80
-0.39738 0.66747 1.08148 225 115 80
0.32227 -1.19711 0.54043 225 115 80
0.32227 -1.19711 1.11179 225 115 80
-0.39738 -1.19711 1.57943 225 115 80
-0.32227 -1.19711 1.11179 225 115 80
-0.49682 -1.11373 0.48611 225 115 80
-0.49682 -1.11373 1.57943 225 115 80
-0.49682 -0.21903 1.08148 225 115 80
-0.49682 -0.21903 0.48611 225 115 80
-0.43494 -1.06019 1.65192 225 115 80
-0.34544 -1.13523 1.65192 225 115 80
-0.43494 0.53054 1.65192 225 115 80
-0.49682 0.58409 1.57943 225 115 80
-0.32227 -1.19711 0.54043 225 115 80
-0.49682 0.58409 1.08148 225 115 80
-0.49682 0.58409 1.08148 227 230 236
-0.49682 0.58409 0.48611 227 230 236
-0.49682 -0.21903 0.48611 227 230 236
-0.49682 -0.21903 1.08148 227 230 236
0.32227 -1.19711 1.11179 227 230 236
0.32227 -1.19711 0.54043 227 230 236
-0.32227 -1.19711 0.54043 227 230 236
-0.32227 -1.19711 1.11179 227 230 236
0.22313 -0.54362 1.66472 71 70 68
0.44506 -0.54362 1.66472 71 70 68
0.42774 -0.54362 1.64244 71 70 68
0.22313 -0.54362 1.64244 71 70 68
0.48505 -0.54362 1.57512 71 70 68
0.51339 -0.54362 1.58438 71 70 68
0.44506 0.11526 1.66472 71 70 68
0.51339 0.11526 1.58438 71 70 68
0.42774 0.11526 1.64244 71 70 68
0.48505 0.11526 1.57512 71 70 68
0.48484 -0.54362 0.78709 71 70 68
0.51344 -0.54362 0.78709 71 70 68
0.51344 -0.40025 0.78709 71 70 68
0.48484 -0.40025 0.78709 71 70 68
0.48484 0.11519 1.375 71 70 68
0.51344 0.11519 1.375 71 70 68
0.51344 -0.40025 1.375 71 70 68
0.48484 -0.40025 1.375 71 70 68
0.13114 0.11526 1.64244 71 70 68
0.13114 0.11526 1.66472 71 70 68
0.13114 0.50939 1.64244 71 70 68
0.13114 0.50939 1.66472 71 70 68
-0.13114 0.50939 1.66472 71 70 68
-0.13114 0.50939 1.64244 71 70 68
0.22313 -0.54362 1.66472 80 78 76
-0.22313 -0.54362 1.66472 80 78 76
-0.13114 0.11526 1.66472 80 78 76
0.13114 0.11526 1.66472 80 78 76
0.22313 -0.76977 1.66472 80 78 76
-0.22313 -0.76977 1.66472 80 78 76
0.44506 -0.54362 1.66472 80 78 76
0.44506 0.11526 1.66472 80 78 76
0.13114 0.50939 1.66472 80 78 76
-0.13114 0.50939 1.66472 80 78 76
0.22313 -0.76977 1.64244 71 70 68
0.22313 -0.76977 1.66472 71 70 68
-0.22313 -0.76977 1.64244 71 70 68
-0.22313 -0.76977 1.66472 71 70 68
-0.22313 -0.54362 1.66472 71 70 68
-0.22313 -0.54362 1.64244 71 70 68
-0.42774 -0.54362 1.64244 71 70 68
-0.44506 -0.54362 1.66472 71 70 68
-0.48505 -0.54362 1.57512 71 70 68
-0.51339 -0.54362 1.58438 71 70 68
-0.44506 0.11526 1.66472 71 70 68
-0.51339 0.11526 1.58438 71 70 68
-0.42774 0.11526 1.64244 71 70 68
-0.48505 0.11526 1.57512 71 70 68
-0.48484 -0.54362 0.78709 71 70 68
-0.51344 -0.54362 0.78709 71 70 68
-0.51344 -0.40025 0.78709 71 70 68
-0.48484 -0.40025 0.78709 71 70 68
-0.51344 -0.40025 1.375 71 70 68
-0.48484 -0.40025 1.375 71 70 68
-0.48484 0.11519 1.375 71 70 68
-0.51344 0.11519 1.375 71 70 68
-0.13114 0.11526 1.64244 71 70 68
-0.13114 0.11526 1.66472 71 70 68
-0.44506 -0.54362 1.66472 80 78 76
-0.44506 0.11526 1.66472 80 78 76
0.48846 -0.3556 0.5576 227 230 236
0.48846 -0.3556 1.09154 227 230 236
0.95828 -0.3556 1.09154 227 230 236
0.95828 -0.3556 0.5576 227 230 236
0.48846 -0.27977 0.5576 227 230 236
0.95828 -0.27977 0.5576 227 230 236
0.48846 -0.27977 1.09154 227 230 236
0.95828 -0.27977 1.09154 227 230 236
1.0018 -0.27977 0.59308 227 230 236
1.0018 -0.3556 0.59308 227 230 236
1.0018 -0.27977 1.05605 227 230 236
1.0018 -0.3556 1.05605 227 230 236
0.48846 -0.3556 1.09154 235 238 244
0.48846 -0.27977 1.09154 235 238 244
0.95828 -0.27977 1.09154 235 238 244
0.95828 -0.3556 1.09154 235 238 244
1.0018 -0.3556 1.05605 235 238 244
1.0018 -0.27977 1.05605 235 238 244
0.58134 -0.3627 0.88311 102 103 106
0.58134 -0.3627 1.01524 102 103 106
0.71748 -0.3627 1.01524 102 103 106
0.71748 -0.3627 0.88311 102 103 106
0.71748 -0.27183 1.01524 102 103 106
0.58134 -0.27183 1.01524 102 103 106
0.71748 -0.27183 0.88311 102 103 106
0.58134 -0.27183 0.88311 102 103 106
0.80175 -0.3627 0.81961 102 103 106
0.80175 -0.3627 0.90297 102 103 106
0.88601 -0.3627 0.90297 102 103 106
0.88601 -0.3627 0.81961 102 103 106
0.88601 -0.27183 0.90297 102 103 106
0.80175 -0.27183 0.90297 102 103 106
0.88601 -0.27183 0.81961 102 103 106
0.80175 -0.27183 0.81961 102 103 106
-0.48846 -0.3556 0.5576 227 230 236
-0.95828 -0.3556 0.5576 227 230 236
-0.95828 -0.3556 1.09154 227 230 236
-0.48846 -0.3556 1.09154 227 230 236
-0.48846 -0.27977 0.5576 227 230 236
-0.95828 -0.27977 0.5576 227 230 236
-0.48846 -0.27977 1.09154 227 230 236
-0.95828 -0.27977 1.09154 227 230 236
-1.0018 -0.27977 0.59308 227 230 236
-1.0018 -0.3556 0.59308 227 230 236
-1.0018 -0.27977 1.05605 227 230 236
-1.0018 -0.3556 1.05605 227 230 236
-0.48846 -0.3556 1.09154 235 238 244
-0.95828 -0.3556 1.09154 235 238 244
-0.95828 -0.27977 1.09154 235 238 244
-0.48846 -0.27977 1.09154 235 238 244
-1.0018 -0.3556 1.05605 235 238 244
-1.0018 -0.27977 1.05605 235 238 244
-0.58134 -0.3627 0.88311 102 103 106
-0.71748 -0.3627 0.88311 102 103 106
-0.71748 -0.3627 1.01524 102 103 106
-0.58134 -0.3627 1.01524 102 103 106
-0.71748 -0.27183 1.01524 102 103 106
-0.58134 -0.27183 1.01524 102 103 106
-0.71748 -0.27183 0.88311 102 103 106
-0.58134 -0.27183 0.88311 102 103 106
-0.80175 -0.3627 0.81961 102 103 106
-0.88601 -0.3627 0.81961 102 103 106
-0.88601 -0.3627 0.90297 102 103 106
-0.80175 -0.3627 0.90297 102 103 106
-0.88601 -0.27183 0.90297 102 103 106
-0.80175 -0.27183 0.90297 102 103 106
-0.88601 -0.27183 0.81961 102 103 106
-0.80175 -0.27183 0.81961 102 103 106
-0.0504 0.41734 1.65362 227 230 236
-0.0504 0.25857 1.65362 227 230 236
-0.28192 0.75942 2.10954 235 238 244
-0.28229 0.87465 2.10954 235 238 244
-0.22243 0.87484 2.05267 235 238 244
-0.22206 0.75961 2.05267 235 238 244
-1.24649 0.87156 2.10954 235 238 244
-1.24612 0.75633 2.10954 235 238 244
-1.30738 0.87137 1.25025 227 230 236
-1.30738 0.87137 2.06693 227 230 236
-1.30701 0.75614 2.06693 227 230 236
-1.30701 0.75614 1.25025 227 230 236
-1.24649 0.87156 1.20764 227 230 236
-1.24612 0.75633 1.20764 227 230 236
-0.75795 0.87313 1.20764 227 230 236
-0.75758 0.7579 1.20764 227 230 236
-0.75795 0.87313 1.07073 227 230 236
-0.75758 0.7579 1.07073 227 230 236
-1.24612 0.75633 2.10954 227 230 236
-0.22206 0.75961 1.30978 227 230 236
-0.22206 0.75961 2.05267 227 230 236
-0.22206 0.75961 0.89755 227 230 236
-0.48982 0.75875 0.58402 227 230 236
-0.22206 0.75961 0.23398 227 230 236
-0.91213 0.7574 0.58402 227 230 236
-0.9125 0.87263 0.58402 227 230 236
-0.49019 0.87398 0.58402 227 230 236
-0.28192 0.75942 2.10954 227 230 236
-0.91213 0.7574 1.07073 227 230 236
-0.95629 0.75726 1.03349 227 230 236
-0.95629 0.75726 0.62126 227 230 236
-0.95666 0.87249 0.62126 227 230 236
-0.95666 0.87249 1.03349 227 230 236
-0.48982 0.75875 0.4773 227 230 236
-0.49019 0.87398 0.4773 227 230 236
-0.28699 0.7594 0.17463 227 230 236
-0.64703 0.75825 0.17463 227 230 236
-0.64703 0.75825 0.4773 227 230 236
-0.69978 0.75808 0.44603 227 230 236
-0.69978 0.75808 0.2059 227 230 236
-0.70015 0.87331 0.2059 227 230 236
-0.70015 0.87331 0.44603 227 230 236
-0.64739 0.87348 0.17463 227 230 236
-0.28229 0.87465 2.10954 227 230 236
-1.24649 0.87156 2.10954 227 230 236
-0.22243 0.87484 2.05267 227 230 236
-0.22243 0.87484 1.30978 227 230 236
-0.22243 0.87484 0.89755 227 230 236
0.22243 0.87484 1.30978 227 230 236
0.22243 0.87484 0.89755 227 230 236
-0.9125 0.87263 1.07073 227 230 236
-0.22243 0.87484 0.23398 227 230 236
-0.28736 0.87463 0.17463 227 230 236
-0.64739 0.87348 0.4773 227 230 236
-0.10939 0.75953 0.89755 227 230 236
0.10939 0.75953 0.89755 227 230 236
0.22206 0.75961 0.89755 227 230 236
0.22206 0.75961 0.23398 227 230 236
0.22243 0.87484 0.23398 227 230 236
0.28699 0.7594 0.17463 227 230 236
0.28736 0.87463 0.17463 227 230 236
0.49019 0.87398 0.58402 227 230 236
0.49019 0.87398 0.4773 227 230 236
0.64703 0.75825 0.17463 227 230 236
0.64739 0.87348 0.17463 227 230 236
0.64739 0.87348 0.4773 227 230 236
0.70015 0.87331 0.2059 227 230 236
0.70015 0.87331 0.44603 227 230 236
0.75795 0.87313 1.07073 227 230 236
0.75795 0.87313 1.20764 227 230 236
0.9125 0.87263 0.58402 227 230 236
0.9125 0.87263 1.07073 227 230 236
0.95666 0.87249 0.62126 227 230 236
0.95666 0.87249 1.03349 227 230 236
0.22243 0.87484 2.05267 227 230 236
0.22206 0.75961 1.30978 227 230 236
0.22206 0.75961 2.05267 227 230 236
0.28229 0.87465 2.10954 227 230 236
1.24649 0.87156 2.10954 227 230 236
1.24649 0.87156 1.20764 227 230 236
1.30738 0.87137 1.25025 227 230 236
1.30738 0.87137 2.06693 227 230 236
0.48982 0.75875 0.58402 227 230 236
0.91213 0.7574 0.58402 227 230 236
0.75758 0.7579 1.07073 227 230 236
0.75758 0.7579 1.20764 227 230 236
1.24612 0.75633 1.20764 227 230 236
1.24612 0.75633 2.10954 227 230 236
1.30701 0.75614 1.25025 227 230 236
1.30701 0.75614 2.06693 227 230 236
0.28192 0.75942 2.10954 227 230 236
0.10939 0.75953 1.30978 227 230 236
0.07374 0.72026 0.89755 227 230 236
0.07374 0.72026 1.30978 227 230 236
-0.07374 0.72026 0.89755 227 230 236
-0.10939 0.75953 1.30978 227 230 236
-0.07374 0.72026 1.30978 227 230 236
0.07392 0.53126 0.89755 227 230 236
-0.07392 0.53126 0.89755 227 230 236
-0.75758 0.7579 1.07073 235 238 244
-0.91213 0.7574 1.07073 235 238 244
-0.9125 0.87263 1.07073 235 238 244
-0.75795 0.87313 1.07073 235 238 244
-0.95666 0.87249 1.03349 235 238 244
-0.95629 0.75726 1.03349 235 238 244
-0.48982 0.75875 0.4773 235 238 244
-0.64703 0.75825 0.4773 235 238 244
-0.64739 0.87348 0.4773 235 238 244
-0.49019 0.87398 0.4773 235 238 244
-0.70015 0.87331 0.44603 235 238 244
-0.69978 0.75808 0.44603 235 238 244
-0.22243 0.87484 1.30978 235 238 244
-0.10939 0.75953 1.30978 235 238 244
-0.22206 0.75961 1.30978 235 238 244
0.10939 0.75953 1.30978 235 238 244
-0.07374 0.72026 1.30978 235 238 244
0.07374 0.72026 1.30978 235 238 244
-0.07392 0.53126 1.30978 235 238 244
0.07392 0.53126 1.30978 235 238 244
-1.30701 0.75614 2.06693 235 238 244
-1.30738 0.87137 2.06693 235 238 244
-0.95331 0.74203 1.73798 102 103 106
-0.95331 0.74203 1.98057 102 103 106
-0.66764 0.74295 1.98057 102 103 106
-0.66764 0.74295 1.73798 102 103 106
-0.6681 0.887 1.98057 102 103 106
-0.95377 0.88608 1.98057 102 103 106
-0.95377 0.88608 1.73798 102 103 106
-0.6681 0.887 1.73798 102 103 106
-0.83531 0.74241 0.90444 102 103 106
-0.83531 0.74241 1.01858 102 103 106
-0.68007 0.74291 1.01858 102 103 106
-0.68007 0.74291 0.90444 102 103 106
-0.68053 0.88696 1.01858 102 103 106
-0.83577 0.88646 1.01858 102 103 106
-0.83577 0.88646 0.90444 102 103 106
-0.68053 0.88696 0.90444 102 103 106
-0.45172 0.74364 0.36283 102 103 106
-0.45172 0.74364 0.46599 102 103 106
-0.3283 0.74403 0.46599 102 103 106
-0.3283 0.74403 0.36283 102 103 106
-0.32876 0.88808 0.46599 102 103 106
-0.45218 0.88769 0.46599 102 103 106
-0.45218 0.88769 0.36283 102 103 106
-0.32876 0.88808 0.36283 102 103 106
-1.08565 0.74227 1.51299 206 209 215
-1.08565 0.74227 1.58235 206 209 215
-0.36345 0.74392 1.58235 206 209 215
-0.36345 0.74392 1.51299 206 209 215
-0.36391 0.88797 1.58235 206 209 215
-1.08611 0.88763 1.58235 206 209 215
-1.08611 0.88763 1.51299 206 209 215
-0.36391 0.88797 1.51299 206 209 215
-0.79484 0.74254 0.78696 206 209 215
-0.79484 0.74254 0.84657 206 209 215
-0.3296 0.74403 0.84657 206 209 215
-0.3296 0.74403 0.78696 206 209 215
-0.33007 0.88808 0.84657 206 209 215
-0.7953 0.88659 0.84657 206 209 215
-0.7953 0.88659 0.78696 206 209 215
-0.33007 0.88808 0.78696 206 209 215
-0.61084 0.74313 0.29381 206 209 215
-0.61084 0.74313 0.34452 206 209 215
-0.31176 0.74409 0.34452 206 209 215
-0.31176 0.74409 0.29381 206 209 215
-0.31223 0.88814 0.34452 206 209 215
-0.6113 0.88718 0.34452 206 209 215
-0.6113 0.88718 0.29381 206 209 215
-0.31223 0.88814 0.29381 206 209 215
-0.07392 0.53126 1.30978 227 230 236
0.28192 0.75942 2.10954 235 238 244
0.22206 0.75961 2.05267 235 238 244
0.22243 0.87484 2.05267 235 238 244
0.28229 0.87465 2.10954 235 238 244
1.24649 0.87156 2.10954 235 238 244
1.24612 0.75633 2.10954 235 238 244
0.95629 0.75726 0.62126 227 230 236
0.95629 0.75726 1.03349 227 230 236
0.91213 0.7574 1.07073 227 230 236
0.75758 0.7579 1.07073 235 238 244
0.75795 0.87313 1.07073 235 238 244
0.9125 0.87263 1.07073 235 238 244
0.91213 0.7574 1.07073 235 238 244
0.95666 0.87249 1.03349 235 238 244
0.95629 0.75726 1.03349 235 238 244
0.48982 0.75875 0.4773 227 230 236
0.64703 0.75825 0.4773 227 230 236
0.69978 0.75808 0.44603 227 230 236
0.69978 0.75808 0.2059 227 230 236
0.48982 0.75875 0.4773 235 238 244
0.49019 0.87398 0.4773 235 238 244
0.64739 0.87348 0.4773 235 238 244
0.64703 0.75825 0.4773 235 238 244
0.70015 0.87331 0.44603 235 238 244
0.69978 0.75808 0.44603 235 238 244
0.22243 0.87484 1.30978 235 238 244
0.22206 0.75961 1.30978 235 238 244
1.30738 0.87137 2.06693 235 238 244
1.30701 0.75614 2.06693 235 238 244
0.95331 0.74203 1.73798 102 103 106
0.66764 0.74295 1.73798 102 103 106
0.66764 0.74295 1.98057 102 103 106
0.95331 0.74203 1.98057 102 103 106
0.6681 0.887 1.98057 102 103 106
0.95377 0.88608 1.98057 102 103 106
0.95377 0.88608 1.73798 102 103 106
0.6681 0.887 1.73798 102 103 106
0.83531 0.74241 0.90444 102 103 106
0.68007 0.74291 0.90444 102 103 106
0.68007 0.74291 1.01858 102 103 106
0.83531 0.74241 1.01858 102 103 106
0.68053 0.88696 1.01858 102 103 106
0.83577 0.88646 1.01858 102 103 106
0.83577 0.88646 0.90444 102 103 106
0.68053 0.88696 0.90444 102 103 106
0.45172 0.74364 0.36283 102 103 106
0.3283 0.74403 0.36283 102 103 106
0.3283 0.74403 0.46599 102 103 106
0.45172 0.74364 0.46599 102 103 106
0.32876 0.88808 0.46599 102 103 106
0.45218 0.88769 0.46599 102 103 106
0.45218 0.88769 0.36283 102 103 106
0.32876 0.88808 0.36283 102 103 106
1.08565 0.74227 1.51299 206 209 215
0.36345 0.74392 1.51299 206 209 215
0.36345 0.74392 1.58235 206 209 215
1.08565 0.74227 1.58235 206 209 215
0.36391 0.88797 1.58235 206 209 215
1.08611 0.88763 1.58235 206 209 215
1.08611 0.88763 1.51299 206 209 215
0.36391 0.88797 1.51299 206 209 215
0.79484 0.74254 0.78696 206 209 215
0.3296 0.74403 0.78696 206 209 215
0.3296 0.74403 0.84657 206 209 215
0.79484 0.74254 0.84657 206 209 215
0.33007 0.88808 0.84657 206 209 215
0.7953 0.88659 0.84657 206 209 215
0.7953 0.88659 0.78696 206 209 215
0.33007 0.88808 0.78696 206 209 215
0.61084 0.74313 0.29381 206 209 215
0.31176 0.74409 0.29381 206 209 215
0.31176 0.74409 0.34452 206 209 215
0.61084 0.74313 0.34452 206 209 215
0.31223 0.88814 0.34452 206 209 215
0.6113 0.88718 0.34452 206 209 215
0.6113 0.88718 0.29381 206 209 215
0.31223 0.88814 0.29381 206 209 215
0.07392 0.53126 1.30978 227 230 236
3 0 2 1
3 0 3 2
3 1 2 4
3 1 4 5
3 5 4 6
3 5 6 7
3 7 3 0
3 7 6 3
3 6 4 8
3 6 8 9
3 10 6 9
3 3 6 10
3 4 11 8
3 4 2 11
3 2 12 11
3 2 3 12
3 3 13 12
3 3 10 13
3 14 16 15
3 14 17 16
3 18 20 19
3 18 21 20
3 21 22 20
3 21 23 22
3 23 24 22
3 23 25 24
3 25 19 24
3 19 26 18
3 25 26 19
3 26 27 18
3 28 23 21
3 21 29 28
3 30 32 31
3 30 33 32
3 34 36 35
3 34 37 36
3 37 38 36
3 37 39 38
3 39 40 38
3 39 41 40
3 41 35 40
3 41 34 35
3 40 42 38
3 40 43 42
3 44 43 40
3 35 44 40
3 38 45 36
3 38 42 45
3 36 46 35
3 36 45 46
3 35 46 47
3 35 47 44
3 48 50 49
3 48 51 50
3 52 54 53
3 52 55 54
3 53 54 56
3 53 56 57
3 57 56 58
3 57 58 59
3 59 58 55
3 55 52 60
3 59 55 60
3 60 52 61
3 62 53 57
3 53 62 63
3 64 66 65
3 64 67 66
3 68 70 69
3 68 71 70
3 72 71 68
3 72 73 71
3 73 70 71
3 73 74 70
3 74 69 70
3 74 75 69
3 76 78 77
3 76 79 78
3 80 82 81
3 80 83 82
3 82 83 84
3 82 84 85
3 82 85 86
3 82 86 87
3 85 88 86
3 85 89 88
3 81 82 87
3 81 87 90
3 89 90 88
3 89 81 90
3 80 81 89
3 80 89 91
3 75 68 69
3 75 72 68
3 92 94 93
3 92 95 94
3 96 95 92
3 96 97 95
3 98 97 96
3 98 99 97
3 95 99 94
3 95 97 99
3 96 93 98
3 96 92 93
3 100 102 101
3 100 103 102
3 104 100 101
3 104 101 105
3 106 104 105
3 106 105 107
3 101 107 105
3 101 102 107
3 104 103 100
3 104 106 103
3 108 110 109
3 108 111 110
3 109 110 112
3 111 112 110
3 109 112 113
3 113 112 114
3 111 114 112
3 113 114 115
3 115 111 108
3 115 114 111
3 116 118 117
3 116 119 118
3 117 118 120
3 119 120 118
3 117 120 121
3 121 120 122
3 119 122 120
3 121 122 123
3 123 119 116
3 123 122 119
3 124 126 125
3 124 127 126
3 127 128 126
3 125 126 128
3 127 129 128
3 129 130 128
3 125 128 130
3 129 131 130
3 131 125 130
3 131 124 125
3 132 134 133
3 132 135 134
3 135 136 134
3 133 134 136
3 135 137 136
3 137 138 136
3 133 136 138
3 137 139 138
3 139 133 138
3 139 132 133
3 140 142 141
3 140 143 142
3 143 144 142
3 143 145 144
3 142 144 146
3 142 146 147
3 146 148 147
3 146 149 148
3 142 147 150
3 150 147 151
3 150 151 152
3 151 153 152
3 151 154 153
3 150 152 155
3 150 155 156
3 155 157 156
3 155 158 157
3 150 156 159
3 159 156 160
3 160 161 159
3 160 162 161
3 160 163 162
3 164 166 165
3 164 167 166
3 165 169 168
3 165 166 169
3 170 161 171
3 170 159 161
3 170 171 172
3 173 170 172
3 174 170 173
3 173 175 174
3 173 176 175
3 174 177 170
3 178 177 174
3 179 177 178
3 178 180 179
3 178 181 180
3 182 177 179
3 141 177 182
3 141 182 183
3 182 184 183
3 182 185 184
3 141 183 186
3 186 140 141
3 186 187 140
3 188 190 189
3 188 191 190
3 192 194 193
3 192 195 194
3 196 198 197
3 196 199 198
3 200 202 201
3 200 203 202
3 204 206 205
3 204 207 206
3 208 210 209
3 208 211 210
3 212 214 213
3 212 215 214
3 216 218 217
3 216 219 218
3 220 222 221
3 220 223 222
3 224 220 221
3 224 221 225
3 225 226 224
3 225 227 226
3 222 223 228
3 222 228 229
3 226 227 230
3 226 230 231
3 230 227 232
3 230 232 233
3 227 234 232
3 227 225 234
3 225 235 234
3 225 221 235
3 221 236 235
3 221 222 236
3 222 237 236
3 222 229 237
3 238 240 239
3 238 241 240
3 242 241 238
3 242 243 241
3 244 243 242
3 244 245 243
3 246 248 247
3 246 249 248
3 229 246 247
3 229 228 246
3 231 248 249
3 231 230 248
3 229 247 250
3 229 250 237
3 247 251 250
3 247 248 251
3 248 233 251
3 248 230 233
3 252 254 253
3 252 255 254
3 253 254 256
3 255 256 254
3 253 256 257
3 257 256 258
3 255 258 256
3 257 258 259
3 259 255 252
3 259 258 255
3 260 262 261
3 260 263 262
3 261 262 264
3 263 264 262
3 261 264 265
3 265 264 266
3 263 266 264
3 265 266 267
3 267 263 260
3 267 266 263
3 268 270 269
3 268 271 270
3 271 272 270
3 269 270 272
3 271 273 272
3 273 274 272
3 269 272 274
3 273 275 274
3 275 269 274
3 275 268 269
3 276 278 277
3 276 279 278
3 279 280 278
3 277 278 280
3 279 281 280
3 281 282 280
3 277 280 282
3 281 283 282
3 283 277 282
3 283 276 277
3 284 286 285
3 284 287 286
3 287 288 286
3 287 289 288
3 289 290 288
3 289 291 290
3 292 294 293
3 292 295 294
3 296 295 292
3 296 297 295
3 296 298 297
3 296 299 298
3 297 300 295
3 297 301 300
3 302 297 298
3 302 301 297
3 295 303 294
3 295 300 303
3 296 304 299
3 296 305 304
3 292 305 296
3 292 293 305
3 306 308 307
3 306 309 308
3 310 306 307
3 310 311 306
3 310 307 312
3 310 312 313
3 307 314 312
3 307 315 314
3 315 316 314
3 315 317 316
3 316 317 318
3 316 318 319
3 306 311 320
3 320 311 321
3 320 321 322
3 323 320 322
3 306 320 323
3 323 322 324
3 325 323 324
3 325 306 323
3 325 324 326
3 327 317 315
3 327 328 317
3 328 318 317
3 325 309 306
3 307 327 315
3 307 308 327
3 328 329 318
3 311 331 330
3 311 310 331
3 331 310 332
3 331 332 333
3 321 333 332
3 330 321 311
3 332 334 321
3 332 335 334
3 334 335 336
3 334 336 337
3 332 338 335
3 332 339 338
3 335 338 340
3 335 340 341
3 341 340 319
3 341 319 318
3 334 322 321
3 334 324 322
3 321 342 333
3 330 342 321
3 343 341 318
3 335 343 336
3 335 341 343
3 343 318 329
3 326 334 337
3 326 324 334
3 305 344 304
3 305 345 344
3 305 294 345
3 305 293 294
3 345 294 303
3 345 303 346
3 347 345 346
3 347 344 345
3 348 350 349
3 348 351 350
3 313 332 310
3 313 339 332
3 352 354 353
3 352 355 354
3 353 354 356
3 353 356 357
3 357 358 353
3 357 359 358
3 360 358 359
3 360 359 361
3 357 356 362
3 357 362 363
3 362 364 363
3 357 363 364
3 362 365 364
3 366 361 359
3 366 359 367
3 357 367 359
3 368 366 367
3 357 368 367
3 357 364 368
3 368 369 366
3 369 364 365
3 369 368 364
3 370 358 360
3 370 371 358
3 371 370 372
3 371 372 373
3 372 374 373
3 372 375 374
3 376 378 377
3 376 379 378
3 380 376 377
3 380 377 381
3 379 376 382
3 379 382 383
3 378 379 384
3 378 384 385
3 355 387 386
3 355 352 387
3 387 388 386
3 387 389 388
3 390 392 391
3 390 393 392
3 393 394 392
3 393 395 394
3 395 393 396
3 395 396 397
3 398 397 396
3 398 399 397
3 395 400 394
3 395 401 400
3 400 401 402
3 395 402 401
3 400 402 403
3 404 403 402
3 395 404 402
3 404 405 403
3 404 406 405
3 404 407 406
3 399 407 397
3 399 406 407
3 395 407 404
3 395 397 407
3 408 398 396
3 408 396 409
3 409 375 408
3 409 374 375
3 378 411 410
3 378 410 377
3 391 389 390
3 391 388 389
3 412 414 413
3 412 415 414
3 416 415 412
3 416 417 415
3 418 417 416
3 418 419 417
3 415 417 420
3 415 420 421
3 414 415 421
3 421 420 422
3 417 422 420
3 417 419 422
3 421 422 423
3 414 421 423
3 424 426 425
3 424 427 426
3 426 427 428
3 426 428 429
3 430 432 431
3 430 433 432
3 431 432 434
3 433 434 432
3 431 434 435
3 435 434 436
3 433 436 434
3 435 436 437
3 437 433 430
3 437 436 433
3 437 431 435
3 437 430 431
3 438 440 439
3 438 441 440
3 439 440 442
3 441 442 440
3 439 442 443
3 443 442 444
3 441 444 442
3 443 444 445
3 445 441 438
3 445 444 441
3 445 439 443
3 445 438 439
3 446 448 447
3 446 449 448
3 450 446 447
3 450 447 451
3 452 450 451
3 452 451 453
3 447 454 451
3 447 455 454
3 448 455 447
3 455 456 454
3 451 456 453
3 451 454 456
3 455 457 456
3 448 457 455
3 458 460 459
3 458 461 460
3 460 462 459
3 460 463 462
3 464 466 465
3 464 467 466
3 467 468 466
3 465 466 468
3 467 469 468
3 469 470 468
3 465 468 470
3 469 471 470
3 471 465 470
3 471 464 465
3 471 467 464
3 471 469 467
3 472 474 473
3 472 475 474
3 475 476 474
3 473 474 476
3 475 477 476
3 477 478 476
3 473 476 478
3 477 479 478
3 479 473 478
3 479 472 473
3 479 475 472
3 479 477 475
3 171 162 480
3 171 161 162
3 172 171 480
3 172 480 481
3 482 484 483
3 482 485 484
3 482 483 486
3 482 486 487
3 488 490 489
3 488 491 490
3 492 491 488
3 492 493 491
3 493 490 491
3 494 493 492
3 494 495 493
3 496 495 494
3 496 497 495
3 495 498 493
3 493 498 490
3 497 499 495
3 495 499 500
3 497 501 499
3 497 502 501
3 501 502 503
3 497 504 502
3 502 504 505
3 502 505 506
3 495 507 498
3 495 500 507
3 497 508 504
3 504 508 509
3 504 509 510
3 511 510 509
3 511 509 512
3 505 510 511
3 505 504 510
3 503 502 513
3 502 514 513
3 502 506 514
3 503 513 515
3 515 513 516
3 516 513 517
3 516 517 518
3 516 518 519
3 518 520 519
3 518 521 520
3 522 519 520
3 522 516 519
3 523 494 524
3 525 494 523
3 524 494 492
3 524 492 488
3 524 488 489
3 526 494 525
3 499 526 525
3 499 525 500
3 527 494 526
3 527 526 528
3 527 528 529
3 527 496 494
3 506 496 527
3 506 505 496
3 496 505 530
3 530 505 511
3 530 511 512
3 506 527 531
3 506 531 532
3 515 532 531
3 515 531 503
3 527 503 531
3 506 532 514
3 527 501 503
3 532 515 516
3 532 516 522
3 514 532 522
3 514 522 533
3 533 522 520
3 533 520 521
3 501 527 534
3 527 535 534
3 527 529 535
3 536 535 529
3 529 537 536
3 529 538 537
3 539 537 538
3 539 538 540
3 541 540 538
3 541 538 529
3 541 542 540
3 540 543 539
3 540 544 543
3 542 544 540
3 542 545 544
3 545 546 544
3 545 547 546
3 541 529 548
3 529 549 548
3 529 528 549
3 541 548 550
3 548 551 550
3 551 552 550
3 551 553 552
3 528 554 549
3 555 554 528
3 555 556 554
3 554 557 549
3 557 558 549
3 558 559 549
3 558 560 559
3 558 561 560
3 562 550 563
3 562 541 550
3 564 562 563
3 564 536 562
3 536 537 562
3 564 555 536
3 564 565 555
3 548 565 564
3 548 549 565
3 549 566 565
3 549 559 566
3 565 566 567
3 565 556 555
3 559 568 566
3 559 560 568
3 560 569 568
3 566 569 567
3 566 568 569
3 560 561 569
3 565 567 570
3 565 570 556
3 555 535 536
3 555 571 535
3 571 572 535
3 571 573 572
3 534 535 572
3 534 572 574
3 575 534 574
3 499 534 575
3 499 501 534
3 575 574 576
3 577 574 572
3 577 578 574
3 579 581 580
3 579 582 581
3 580 581 583
3 580 583 584
3 585 587 586
3 585 588 587
3 586 587 589
3 586 589 590
3 591 593 592
3 594 592 595
3 594 595 596
3 597 596 595
3 597 598 596
3 487 600 599
3 487 486 600
3 601 603 602
3 601 604 603
3 602 603 605
3 602 605 606
3 607 604 601
3 607 602 606
3 607 601 602
3 607 608 604
3 606 608 607
3 606 605 608
3 604 608 605
3 604 605 603
3 609 611 610
3 609 612 611
3 610 611 613
3 610 613 614
3 615 612 609
3 615 610 614
3 615 609 610
3 615 616 612
3 614 616 615
3 614 613 616
3 612 616 613
3 612 613 611
3 617 619 618
3 617 620 619
3 618 619 621
3 618 621 622
3 623 620 617
3 623 618 622
3 623 617 618
3 623 624 620
3 622 624 623
3 622 621 624
3 620 624 621
3 620 621 619
3 625 627 626
3 625 628 627
3 626 627 629
3 626 629 630
3 631 628 625
3 631 626 630
3 631 625 626
3 631 632 628
3 630 632 631
3 630 629 632
3 628 632 629
3 628 629 627
3 633 635 634
3 633 636 635
3 634 635 637
3 634 637 638
3 639 636 633
3 639 634 638
3 639 633 634
3 639 640 636
3 638 640 639
3 638 637 640
3 636 640 637
3 636 637 635
3 641 643 642
3 641 644 643
3 642 643 645
3 642 645 646
3 647 644 641
3 647 642 646
3 647 641 642
3 647 648 644
3 646 648 647
3 646 645 648
3 644 648 645
3 644 645 643
3 574 649 576
3 574 578 649
3 650 652 651
3 650 653 652
3 650 654 653
3 650 655 654
3 552 657 656
3 552 553 657
3 550 552 656
3 550 656 563
3 563 656 657
3 563 657 658
3 564 563 658
3 659 661 660
3 659 662 661
3 662 663 661
3 662 664 663
3 562 542 541
3 562 665 542
3 537 665 562
3 537 539 665
3 539 543 665
3 543 666 665
3 543 667 666
3 543 668 667
3 667 668 546
3 667 546 547
3 544 668 543
3 544 546 668
3 669 671 670
3 669 672 671
3 672 673 671
3 672 674 673
3 675 594 676
3 591 594 675
3 591 592 594
3 655 677 654
3 655 678 677
3 679 681 680
3 679 682 681
3 682 683 681
3 682 684 683
3 685 679 680
3 685 682 679
3 685 684 682
3 685 680 686
3 684 686 683
3 684 685 686
3 680 683 686
3 680 681 683
3 687 689 688
3 687 690 689
3 690 691 689
3 690 692 691
3 693 687 688
3 693 690 687
3 693 692 690
3 693 688 694
3 692 694 691
3 692 693 694
3 688 691 694
3 688 689 691
3 695 697 696
3 695 698 697
3 698 699 697
3 698 700 699
3 701 695 696
3 701 698 695
3 701 700 698
3 701 696 702
3 700 702 699
3 700 701 702
3 696 699 702
3 696 697 699
3 703 705 704
3 703 706 705
3 706 707 705
3 706 708 707
3 709 703 704
3 709 706 703
3 709 708 706
3 709 704 710
3 708 710 707
3 708 709 710
3 704 707 710
3 704 705 707
3 711 713 712
3 711 714 713
3 714 715 713
3 714 716 715
3 717 711 712
3 717 714 711
3 717 716 714
3 717 712 718
3 716 718 715
3 716 717 718
3 712 715 718
3 712 713 715
3 719 721 720
3 719 722 721
3 722 723 721
3 722 724 723
3 725 719 720
3 725 722 719
3 725 724 722
3 725 720 726
3 724 726 723
3 724 725 726
3 720 723 726
3 720 721 723
3 572 727 577
3 572 573 727
