mtllib Chespin.mtl
v 0.0682432 0.0960059 -0.120933
vt 0.959854 0.684415
vn 0.6925836 0.3428728 -0.6346387
v 0.0732649 0.0418774 -0.111786
vt 0.936986 0.616755
vn 0.496308 -0.716969 -0.489524
v 0.0312056 0.0726869 -0.131068
vt 0.985192 0.655266
vn 0.7778157 -0.143313 -0.6119348
v 0.122162 0.0342722 0.0006186141
vt 0.655975 0.616755
vn 0.9828577 -0.1839639 0.0121625
v 0 0.105854 -0.127708
vt 0.976791 0.696725
vn 0 0.7147891 -0.6993401
v 0.105299 0.140204 0.00975898
vt 0.633124 0.742988
vn 0.960459 0.270563 0.0656822
v 0.0439453 0.217188 -0.0412595
vt 0.806865 0.845399
vn 0.3852589 0.7105108 -0.5888548
v 0.0738512 0.217188 0.019518
vt 0.608727 0.845399
vn 0.832158 0.533175 0.152439
v 0 0.0397395 -0.119286
vt 0.955737 0.614082
vn 0 -0.9547586 -0.2973819
v 0 0.0169234 0
vt 0.628599 0.595068
vn 0 -0.9988868 -0.04717229
v 0.0543451 0.139091 0.0877404
vt 0.412823 0.741597
vn 0.3193801 0.112774 0.9408923
v 0.0648088 0.0342722 0.0842012
vt 0.399486 0.616755
vn 0.2620121 -0.2964171 0.9184153
v -0.0439453 0.217188 -0.0412595
vn -0.3852589 0.7105108 -0.5888548
v -0.0682431 0.0960059 -0.120933
vn -0.6925831 0.342873 -0.6346391
v -0.0312055 0.0726869 -0.131068
vn -0.7778152 -0.143314 -0.6119351
v -0.0732649 0.0418774 -0.111786
vn -0.496308 -0.716969 -0.489524
v -0.0648088 0.0342722 0.0842011
vn -0.2620121 -0.2964171 0.9184153
v 0.0388735 0.217188 0.0686592
vt 0.485874 0.845399
vn 0.3679658 0.4330488 0.8228426
v 0 0.229166 0.019518
vt 0.608727 0.860371
vn 0 1 -0.000107024
v -0.0543451 0.139091 0.0877404
vn -0.3193801 0.112774 0.9408923
v -0.122162 0.0342722 0.0006186141
vn -0.9828576 -0.1839649 0.0121622
v -0.0738512 0.217188 0.0195179
vn -0.832158 0.533175 0.152439
v -0.105299 0.140204 0.00975895
vn -0.9604591 0.270563 0.06568171
v -0.0388735 0.217188 0.0686592
vn -0.3679658 0.4330488 0.8228426
v -0.197837 0.376836 0.0212315
vt 0.827121 0.934535
vn -0.9989909 0.0302879 -0.0331643
v -0.12987 0.305055 -0.0940911
vt 0.535906 0.910449
vn -0.5928951 -0.4638731 -0.6582531
v -0.171514 0.285611 0.00922472
vt 0.845585 0.912083
vn -0.8129773 -0.5742802 -0.09628133
v -0.138685 0.384325 -0.103287
vt 0.471879 0.928951
vn -0.673008 0.05140349 -0.7378469
v -0.159986 0.344678 0.118686
vt 0.99232 0.936193
vn -0.8455862 -0.06928951 0.5293231
v -0.121686 0.463595 -0.091529
vt 0.459072 0.948528
vn -0.5765003 0.5304372 -0.6215173
v -0.135286 0.440733 0.136964
vt 0.99232 0.957682
vn -0.7885662 0.260689 0.5569601
v -0.171332 0.463595 0.0212315
vt 0.781647 0.955301
vn -0.8740868 0.4856789 -0.009395069
v -0.10531 0.237426 -0.005028
vt 0.836002 0.899818
vn -0.387848 -0.9052061 -0.173712
v 0 0.322679 -0.157763
vt 0.417965 0.912385
vn 0 -0.251775 -0.9677858
v 0 0.245156 -0.0944901
vt 0.613265 0.897076
vn 0 -0.8026109 -0.596503
v -0.137707 0.262199 0.097992
vt 0.99232 0.91424
vn -0.6691369 -0.7095799 0.2207989
v -0.10531 0.537097 0.0212315
vt 0.743122 0.972895
vn -0.4681241 0.8836122 -0.009449702
v 0 0.442226 -0.150395
vt 0.373316 0.941378
vn 0 0.298131 -0.954525
v 0 0.523362 -0.0870014
vt 0.485752 0.964052
vn 0 0.818835 -0.574029
v -0.0918954 0.48534 0.147104
vt 0.99232 0.969498
vn -0.3885519 0.7165338 0.5793158
v 0 0.221225 -0.00645172
vt 0.841013 0.895867
vn 0 -0.9937131 -0.111956
v 0.12987 0.305055 -0.0940911
vn 0.5928947 -0.4638728 -0.6582537
v 0.10531 0.237426 -0.005028
vn 0.387848 -0.9052061 -0.173712
v -0.0688416 0.23019 0.0903539
vt 0.99232 0.90198
vn -0.297355 -0.952402 0.0671607
v 0.121686 0.463595 -0.091529
vn 0.5765003 0.5304372 -0.6215173
v 0 0.553275 0.0212315
vt 0.734642 0.976767
vn 0 0.9973724 0.07244454
v 0.10531 0.537097 0.0212315
vn 0.4681241 0.8836122 -0.009449852
v 0 0.5058 0.150727
vt 0.99232 0.974862
vn 0 0.7904433 0.6125352
v 0.171514 0.285611 0.00922472
vn 0.8129773 -0.5742802 -0.09628124
v 0.197837 0.376836 0.0212315
vn 0.9989909 0.0302878 -0.0331645
v 0.138685 0.384325 -0.103287
vn 0.673008 0.05140349 -0.7378469
v 0 0.217758 0.0876306
vt 0.99232 0.898692
vn 0 -0.9999985 -0.001722409
v 0.0688416 0.23019 0.0903539
vn 0.297355 -0.9524019 0.0671609
v 0.0918954 0.48534 0.147104
vn 0.388551 0.7165341 0.5793161
v 0.171332 0.463595 0.0212315
vn 0.8740868 0.4856789 -0.009395339
v 0.137707 0.262199 0.097992
vn 0.6691369 -0.7095799 0.2207989
v 0.159986 0.344678 0.118686
vn 0.8455862 -0.06928962 0.5293231
v 0.135286 0.440733 0.136964
vn 0.7885662 0.260689 0.5569601
v -0.0227158 0.553495 -0.0748001
vt 0.0984722 0.418719
vn -0.267507 -0.6816279 -0.6810459
v 0.0227158 0.553495 -0.0748001
vt 0.13744 0.418719
vn 0.267507 -0.6816279 -0.6810459
v 0 0.545746 -0.0335441
vt 0.117956 0.414781
vn 0 -0.7507039 0.6606389
v 0 0.696077 -0.167052
vt 0.117956 0.487729
v -0.052383 0.566066 -0.05154051
vt 0.0647104 0.425108
vn -0.9026831 -0.316453 0.291583
v -0.0269987 0.59135 -0.0739336
vt 0.0937417 0.437958
vn -0.4901908 0.6559318 -0.5739918
v -0.0896835 0.659878 -0.134627
vt 0.0267959 0.472786
vn -0.9930951 0.09752461 -0.06520031
v 0.052383 0.566066 -0.05154051
vt 0.171201 0.425108
vn 0.9026834 -0.3164531 0.2915821
v 0.0269987 0.59135 -0.0739336
vt 0.14217 0.437958
vn 0.4901908 0.6559327 -0.5739907
v 0.0896835 0.659878 -0.134627
vt 0.209116 0.472786
vn 0.9930951 0.09752601 -0.06519861
v -0.0222485 0.587636 -0.0362512
vt 0.0984722 0.436071
vn -0.2689329 0.5937838 0.7583508
v 0.0222484 0.587636 -0.0362512
vt 0.13744 0.436071
vn 0.2689331 0.5937831 0.7583512
v 0 0.257095 0.177727
vt 0.0070718 0.0861482
vn 0 -0.6091161 0.7930811
v -0.109212 0.312254 0.164647
vt 0.260492 0.150081
vn -0.5133037 -0.1331089 0.8478215
v -0.0875328 0.256276 0.142213
vt 0.210577 0.0803633
vn -0.381823 -0.686805 0.618474
v 0 0.336679 0.215351
vt 0.0070718 0.183418
vn 0 -0.08739962 0.9961733
v 0 0.223628 0.118203
vt 0.0070718 0.0123407
vn 0 -0.9144186 0.4047698
v 0.109212 0.312254 0.164647
vt 0.260459 0.150065
vn 0.5133037 -0.1331089 0.8478215
v 0.0875328 0.256276 0.142213
vt 0.210477 0.0807289
vn 0.381823 -0.686805 0.618474
v 0 0.0829522 -0.272924
vt 0.790824 0.313015
vn 0 0.0112525 -0.9999367
vt 0.423167 0.316541
vt 0.406633 0.273591
vt 0.402204 0.356872
v -0.0775098 0 0.0133091
vt 0.657522 0.409798
vn -0.141403 -0.9899243 0.007416762
vt 0.932536 0.501914
vt 0.666421 0.480228
vt 0.707147 0.501914
vt 0.399486 0.501914
v 0.0775098 0 0.0133091
vn 0.141403 -0.9899243 0.007416772
v 0.172709 0.551559 0.0166735
vt 0.116758 0.396781
vn -0.6545666 0.7447995 -0.1296779
v 0.185046 0.519534 -0.00121959
vt 0.118363 0.385739
vn -0.2995809 -0.4402998 -0.8463967
v 0.138841 0.488778 0.0584871
vt 0.0773885 0.378496
vn -0.6888068 -0.5372798 0.4866988
v 0.285947 0.601715 -0.0547067
vt 0.211485 0.407484
vn 0.6812027 0.5258718 -0.5093347
v 0.199278 0.541203 0.0428429
vt 0.132043 0.391926
vn 0.309084 0.4476029 0.8391179
v 0.211615 0.509178 0.0249499
vt 0.133649 0.380883
vn 0.6837461 -0.7130641 0.155019
v 0.186334 0.25777 0.0598769
vt 0.121424 0.357341
vn 0.5285093 0.8483464 -0.03140692
v 0.177326 0.245837 0.0459515
vt 0.110927 0.349365
vn -0.09498046 0.02246239 -0.9952257
v 0.146962 0.264953 0.06420299
vt 0.0739828 0.355565
vn -0.8481588 0.5195359 0.103485
v 0.236337 0.210206 0.053298
vt 0.192264 0.336665
vn 0.8481603 -0.5195331 -0.103487
v 0.180334 0.245026 0.0746778
vt 0.121389 0.348287
vn 0.11324 -0.03364799 0.9929977
v 0.171326 0.233094 0.0607523
vt 0.110892 0.34031
vn -0.5102493 -0.8595314 0.02917901
v -0.172709 0.551559 0.0166735
vn 0.7218625 0.6809005 -0.1236489
v -0.138841 0.488778 0.0584871
vn 0.6888077 -0.5372778 0.4866998
v -0.185046 0.519534 -0.00121958
vn 0.3396311 -0.4707891 -0.8142532
v -0.199278 0.541203 0.0428429
vn -0.255025 0.405529 0.877786
v -0.285947 0.601715 -0.0547067
vn -0.6300541 0.45558 -0.628871
v -0.211615 0.509178 0.0249499
vn -0.6132301 -0.7734551 0.160362
v -0.186334 0.25777 0.0598769
vn -0.4577489 0.8887877 -0.02285629
v -0.146962 0.264953 0.06420299
vn 0.8481586 0.5195358 0.1034869
v -0.177326 0.245837 0.0459515
vn 0.164197 0.0649493 -0.984287
v -0.180334 0.245026 0.0746778
vn -0.04350859 0.008978267 0.9990127
v -0.236337 0.210206 0.053298
vn -0.848159 -0.5195349 -0.103488
v -0.171326 0.233094 0.0607523
vn 0.5784381 -0.8148601 0.03758191
v 0 0.341575 0.226297
vt 0.875864 0.315414
vn 0 -0.138083 0.9904206
v 0 0.360042 0.213735
vt 0.875864 0.335246
vn 0 0.5624359 0.8268409
v -0.0420149 0.345831 0.199781
vt 0.788341 0.32046
vn -0.5383648 -0.1606539 0.8272567
v 0.0420149 0.345831 0.199781
vt 0.963387 0.32046
vn 0.5383648 -0.1606539 0.8272567
v 0 0.313716 0.20918
vt 0.875864 0.287016
vn 0 -0.5234968 0.8520277
v 0.176926 0.20352 0.101
vt 0.125024 0.574436
vn 0.273987 0.9475221 0.164721
v 0.207494 0.183997 0.0546324
vt 0.240184 0.574436
vn 0.8167884 -0.103393 -0.5675973
v 0.0768918 0.213354 0.0240341
vt 0.125024 0.731103
vn -0.770351 0.217429 -0.599403
v 0.204239 0.177411 0.123121
vt 0.125024 0.524465
vn 0.7703518 -0.2174269 0.5994028
v 0.139391 0.188208 0.143686
vt 0.00986487 0.574436
vn -0.336896 -0.0320521 0.9409961
v -0.176926 0.20352 0.101
vn -0.273987 0.9475221 0.164721
v -0.0768918 0.213354 0.0240341
vn 0.770351 0.217429 -0.599403
v -0.207494 0.183997 0.0546324
vn -0.8167884 -0.103393 -0.5675973
v -0.139391 0.188208 0.143686
vn 0.336896 -0.0320521 0.9409961
v -0.204239 0.177411 0.123121
vn -0.7703518 -0.2174269 0.5994028
vt 0.477048 0.0473431
vt 0.403136 0.107412
vt 0.622777 0.0346161
vt 0.622469 0.0178295
vt 0.40342 0.107409
vt 0.621152 0.0972387
vt 0.400541 0.17798
vt 0.400546 0.17796
vt 0.35063 0.84407
vt 0.0398653 0.91662
vt 0.0606802 0.820765
vt 0.35063 0.987494
vt 0.992932 0.189737
vt 0.992932 0.161108
v 0 0.410272 0.199335
vt 0.761405 0.141216
vn 0 0.1549999 0.9879145
vt 0.992932 0.0126681
vt 0.763519 0.0928594
vt 0.992932 0.124785
vt 0.763541 0.0928584
o merged_0_0_node
g polygon_0
usemtl mat_body_mat_id
f 1/1/1 2/2/2 3/3/3
f 1/1/1 4/4/4 2/2/2
f 1/1/1 3/3/3 5/5/5
f 1/1/1 6/6/6 4/4/4
f 1/1/1 5/5/5 7/7/7
f 1/1/1 8/8/8 6/6/6
f 1/1/1 7/7/7 8/8/8
f 2/2/2 9/9/9 3/3/3
f 2/2/2 10/10/10 9/9/9
f 4/4/4 6/6/6 11/11/11
f 4/4/4 11/11/11 12/12/12
f 6/6/6 8/8/8 11/11/11
f 5/5/5 13/7/13 7/7/7
f 5/5/5 14/1/14 13/7/13
f 5/5/5 15/3/15 14/1/14
f 10/10/10 16/2/16 9/9/9
f 10/10/10 12/12/12 17/12/17
f 15/3/15 16/2/16 14/1/14
f 15/3/15 9/9/9 16/2/16
f 8/8/8 18/13/18 11/11/11
f 8/8/8 7/7/7 19/14/19
f 8/8/8 19/14/19 18/13/18
f 7/7/7 13/7/13 19/14/19
f 12/12/12 20/11/20 17/12/17
f 12/12/12 11/11/11 20/11/20
f 14/1/14 16/2/16 21/4/21
f 14/1/14 22/8/22 13/7/13
f 14/1/14 21/4/21 23/6/23
f 14/1/14 23/6/23 22/8/22
f 23/6/23 21/4/21 20/11/20
f 23/6/23 20/11/20 22/8/22
f 21/4/21 17/12/17 20/11/20
f 13/7/13 22/8/22 19/14/19
f 18/13/18 24/13/24 11/11/11
f 18/13/18 19/14/19 24/13/24
f 24/13/24 20/11/20 11/11/11
f 24/13/24 19/14/19 22/8/22
f 24/13/24 22/8/22 20/11/20
f 25/15/25 26/16/26 27/17/27
f 25/15/25 28/18/28 26/16/26
f 25/15/25 27/17/27 29/19/29
f 25/15/25 30/20/30 28/18/28
f 25/15/25 29/19/29 31/21/31
f 25/15/25 32/22/32 30/20/30
f 25/15/25 31/21/31 32/22/32
f 26/16/26 33/23/33 27/17/27
f 26/16/26 28/18/28 34/24/34
f 26/16/26 35/25/35 33/23/33
f 26/16/26 34/24/34 35/25/35
f 29/19/29 27/17/27 36/26/36
f 27/17/27 33/23/33 36/26/36
f 30/20/30 32/22/32 37/27/37
f 30/20/30 38/28/38 28/18/28
f 30/20/30 37/27/37 39/29/39
f 30/20/30 39/29/39 38/28/38
f 28/18/28 38/28/38 34/24/34
f 31/21/31 40/30/40 32/22/32
f 32/22/32 40/30/40 37/27/37
f 35/25/35 41/31/41 33/23/33
f 35/25/35 34/24/34 42/16/42
f 35/25/35 43/23/43 41/31/41
f 35/25/35 42/16/42 43/23/43
f 36/26/36 33/23/33 44/32/44
f 33/23/33 41/31/41 44/32/44
f 39/29/39 45/20/45 38/28/38
f 39/29/39 37/27/37 46/33/46
f 39/29/39 47/27/47 45/20/45
f 39/29/39 46/33/46 47/27/47
f 40/30/40 48/34/48 37/27/37
f 46/33/46 48/34/48 47/27/47
f 46/33/46 37/27/37 48/34/48
f 42/16/42 49/17/49 43/23/43
f 42/16/42 50/15/50 49/17/49
f 42/16/42 51/18/51 50/15/50
f 51/18/51 38/28/38 45/20/45
f 51/18/51 45/20/45 50/15/50
f 41/31/41 52/35/52 44/32/44
f 41/31/41 43/23/43 53/32/53
f 41/31/41 53/32/53 52/35/52
f 47/27/47 48/34/48 54/30/54
f 47/27/47 55/22/55 45/20/45
f 47/27/47 54/30/54 55/22/55
f 45/20/45 55/22/55 50/15/50
f 49/17/49 56/26/56 43/23/43
f 49/17/49 50/15/50 57/19/57
f 49/17/49 57/19/57 56/26/56
f 56/26/56 53/32/53 43/23/43
f 54/30/54 58/21/58 55/22/55
f 58/21/58 57/19/57 50/15/50
f 58/21/58 50/15/50 55/22/55
f 59/36/59 60/37/60 61/38/61
f 59/36/59 62/39/5 60/37/60
f 59/36/59 61/38/61 63/40/62
f 59/36/59 64/41/63 62/39/5
f 59/36/59 63/40/62 65/42/64
f 59/36/59 65/42/64 64/41/63
f 60/37/60 66/43/65 61/38/61
f 60/37/60 62/39/5 67/44/66
f 60/37/60 68/45/67 66/43/65
f 60/37/60 67/44/66 68/45/67
f 63/40/62 69/46/68 65/42/64
f 63/40/62 61/38/61 69/46/68
f 64/41/63 69/46/68 62/39/5
f 64/41/63 65/42/64 69/46/68
f 66/43/65 68/45/67 70/47/69
f 66/43/65 70/47/69 61/38/61
f 70/47/69 68/45/67 67/44/66
f 70/47/69 62/39/5 69/46/68
f 70/47/69 69/46/68 61/38/61
f 70/47/69 67/44/66 62/39/5
f 71/48/70 72/49/71 73/50/72
f 71/48/70 74/51/73 72/49/71
f 71/48/70 73/50/72 75/52/74
f 71/48/70 76/53/75 74/51/73
f 71/48/70 75/52/74 77/54/76
f 71/48/70 77/54/76 76/53/75
f 78/55/77 3/56/3 9/57/9
f 78/55/77 5/58/5 3/56/3
f 78/55/77 9/57/9 15/56/15
f 78/55/77 15/56/15 5/58/5
f 79/59/78 16/60/16 10/61/10
f 79/59/78 21/62/21 16/60/16
f 79/59/78 10/61/10 17/63/17
f 79/59/78 17/63/17 21/62/21
f 10/61/10 80/59/79 12/63/12
f 10/61/10 2/60/2 80/59/79
f 12/63/12 80/59/79 4/62/4
f 4/62/4 80/59/79 2/60/2
f 81/64/80 82/65/81 83/66/82
f 81/64/80 84/67/83 82/65/81
f 81/64/80 83/66/82 85/68/84
f 81/64/80 85/68/84 84/67/83
f 82/65/81 86/69/85 83/66/82
f 82/65/81 84/67/83 86/69/85
f 86/69/85 85/68/84 83/66/82
f 86/69/85 84/67/83 85/68/84
f 87/70/86 88/71/87 89/72/88
f 87/70/86 90/73/89 88/71/87
f 87/70/86 89/72/88 91/74/90
f 87/70/86 91/74/90 90/73/89
f 88/71/87 92/75/91 89/72/88
f 88/71/87 90/73/89 92/75/91
f 92/75/91 91/74/90 89/72/88
f 92/75/91 90/73/89 91/74/90
f 93/64/92 94/66/93 95/65/94
f 93/64/92 96/68/95 94/66/93
f 93/64/92 95/65/94 97/67/96
f 93/64/92 97/67/96 96/68/95
f 94/66/93 98/69/97 95/65/94
f 94/66/93 96/68/95 98/69/97
f 98/69/97 96/68/95 97/67/96
f 98/69/97 97/67/96 95/65/94
f 99/70/98 100/72/99 101/71/100
f 99/70/98 102/74/101 100/72/99
f 99/70/98 101/71/100 103/73/102
f 99/70/98 103/73/102 102/74/101
f 100/72/99 104/75/103 101/71/100
f 100/72/99 102/74/101 104/75/103
f 104/75/103 102/74/101 103/73/102
f 104/75/103 103/73/102 101/71/100
f 105/76/104 106/77/105 107/78/106
f 105/76/104 108/79/107 106/77/105
f 105/76/104 107/78/106 109/80/108
f 105/76/104 109/80/108 108/79/107
f 110/81/109 111/82/110 112/83/111
f 110/81/109 113/84/112 111/82/110
f 110/81/109 112/83/111 114/85/113
f 110/81/109 114/85/113 113/84/112
f 114/85/113 112/83/111 111/82/110
f 114/85/113 111/82/110 113/84/112
f 115/81/114 116/83/115 117/82/116
f 115/81/114 118/85/117 116/83/115
f 115/81/114 117/82/116 119/84/118
f 115/81/114 119/84/118 118/85/117
f 118/85/117 117/82/116 116/83/115
f 118/85/117 119/84/118 117/82/116
f 75/86/74 73/87/72 44/88/44
f 75/86/74 44/88/44 52/89/52
f 75/86/74 52/89/52 53/88/53
f 75/86/74 53/88/53 77/90/76
f 73/87/72 36/91/36 44/88/44
f 73/87/72 72/92/71 36/91/36
f 53/88/53 56/91/56 77/90/76
f 56/91/56 76/93/75 77/90/76
f 34/94/34 51/95/51 42/96/42
f 34/94/34 38/97/38 51/95/51
f 48/98/48 40/99/40 120/100/119
f 48/98/48 120/100/119 54/99/54
f 36/101/36 72/102/71 29/103/29
f 76/104/75 56/101/56 57/103/57
vt 0.591074 0.76051
vt 0.0160072 0.793833
v -0.0962208 0.420196 0.177651
vt 0.519775 0.8999
vn -0.4547471 0.117812 0.8827941
vt 0.0160013 0.883556
v 0.0962209 0.420196 0.177651
vt 0.519793 0.8999
vn 0.4547471 0.117812 0.8827941
vt 0.796048 0.922008
vt 0.983999 0.813955
vt 0.535733 0.980846
vt 0.535747 0.980846
o merged_1_0_node
g polygon_0
usemtl TEX_ANIM_EYE_mat_id
f 72/105/71 74/106/73 121/107/120
f 121/107/120 74/106/73 120/108/119
f 120/108/119 74/106/73 122/109/121
f 122/109/121 74/106/73 76/105/75
f 31/110/31 29/111/29 121/107/120
f 121/107/120 29/111/29 72/105/71
f 58/110/58 122/109/121 57/111/57
f 57/111/57 122/109/121 76/105/75
f 31/110/31 121/107/120 40/112/40
f 121/107/120 120/108/119 40/112/40
f 58/110/58 54/113/54 122/109/121
f 122/109/121 54/113/54 120/108/119
