ply
format ascii 1.0
element vertex 386
property float x
property float y
property float z
property uchar red
property uchar green
property uchar blue
element face 440
property list uchar int vertex_index
end_header
0.07965 -0.44273 1.90665 237 131 140
0.07965 -0.44273 1.59141 237 131 140
-0.07965 -0.44273 1.59141 237 131 140
-0.07965 -0.44273 1.90665 237 131 140
-0.07965 -0.25 1.59141 237 131 140
-0.07965 -0.25 1.90665 237 131 140
0.07965 -0.25 1.90665 237 131 140
0.07965 -0.25 1.59141 237 131 140
-0.06306 -0.44273 1.92854 237 131 140
-0.06306 -0.25 1.92854 237 131 140
0.06306 -0.44273 1.92854 237 131 140
0.06306 -0.25 1.92854 237 131 140
0.06306 -0.25 1.92854 240 154 161
0.06306 -0.44273 1.92854 240 154 161
-0.06306 -0.44273 1.92854 240 154 161
-0.06306 -0.25 1.92854 240 154 161
-0.66797 -0.44273 1.31834 237 131 140
-0.33871 -0.44273 1.31834 237 131 140
-0.33871 -0.44273 1.15903 237 131 140
-0.66797 -0.44273 1.15903 237 131 140
-0.33871 -0.25 1.15903 237 131 140
-0.66797 -0.25 1.15903 237 131 140
-0.68985 -0.44273 1.17073 237 131 140
-0.68985 -0.25 1.17073 237 131 140
-0.68985 -0.25 1.30664 237 131 140
-0.68985 -0.44273 1.30664 237 131 140
-0.66797 -0.25 1.31834 240 154 161
-0.33871 -0.25 1.31834 240 154 161
-0.33871 -0.44273 1.31834 240 154 161
-0.66797 -0.44273 1.31834 240 154 161
-0.68985 -0.25 1.30664 240 154 161
-0.68985 -0.44273 1.30664 240 154 161
0.66797 -0.44273 1.15903 237 131 140
0.33871 -0.44273 1.15903 237 131 140
0.33871 -0.44273 1.31834 237 131 140
0.66797 -0.44273 1.31834 237 131 140
0.66797 -0.25 1.15903 237 131 140
0.33871 -0.25 1.15903 237 131 140
0.68985 -0.44273 1.17073 237 131 140
0.68985 -0.44273 1.30664 237 131 140
0.68985 -0.25 1.17073 237 131 140
0.68985 -0.25 1.30664 237 131 140
0.66797 -0.44273 1.31834 240 154 161
0.33871 -0.44273 1.31834 240 154 161
0.33871 -0.25 1.31834 240 154 161
0.66797 -0.25 1.31834 240 154 161
0.68985 -0.44273 1.30664 240 154 161
0.68985 -0.25 1.30664 240 154 161
-0.07965 -0.44273 0.57072 237 131 140
-0.07965 -0.44273 0.88596 237 131 140
0.07965 -0.44273 0.88596 237 131 140
0.07965 -0.44273 0.57072 237 131 140
0.07965 -0.25 0.88596 237 131 140
0.07965 -0.25 0.57072 237 131 140
-0.07965 -0.25 0.57072 237 131 140
-0.07965 -0.25 0.88596 237 131 140
0.06306 -0.44273 0.54884 237 131 140
0.06306 -0.25 0.54884 237 131 140
-0.06306 -0.25 0.54884 237 131 140
-0.06306 -0.44273 0.54884 237 131 140
0.4949 -0.44273 0.63114 237 131 140
0.25149 -0.44273 0.87455 237 131 140
0.36414 -0.44273 0.9872 237 131 140
0.60755 -0.44273 0.74379 237 131 140
0.36414 -0.25 0.9872 237 131 140
0.60755 -0.25 0.74379 237 131 140
0.4949 -0.25 0.63114 237 131 140
0.25149 -0.25 0.87455 237 131 140
0.61129 -0.44273 0.71658 237 131 140
0.61129 -0.25 0.71658 237 131 140
0.52211 -0.25 0.6274 237 131 140
0.52211 -0.44273 0.6274 237 131 140
0.61104 -0.44273 1.73708 237 131 140
0.36358 -0.44273 1.48962 237 131 140
0.25093 -0.44273 1.60227 237 131 140
0.49839 -0.44273 1.84972 237 131 140
0.25093 -0.25 1.60227 237 131 140
0.49839 -0.25 1.84972 237 131 140
0.61104 -0.25 1.73708 237 131 140
0.36358 -0.25 1.48962 237 131 140
0.61478 -0.44273 1.76428 237 131 140
0.5256 -0.44273 1.85346 237 131 140
0.61478 -0.25 1.76428 237 131 140
0.61478 -0.25 1.76428 240 154 161
0.61478 -0.44273 1.76428 240 154 161
0.5256 -0.44273 1.85346 240 154 161
0.5256 -0.25 1.85346 240 154 161
0.49839 -0.25 1.84972 240 154 161
0.49839 -0.44273 1.84972 240 154 161
-0.49562 -0.44273 1.84695 237 131 140
-0.25094 -0.44273 1.60139 237 131 140
-0.36359 -0.44273 1.48874 237 131 140
-0.60826 -0.44273 1.7343 237 131 140
-0.36359 -0.25 1.48874 237 131 140
-0.60826 -0.25 1.7343 237 131 140
-0.49562 -0.25 1.84695 237 131 140
-0.25094 -0.25 1.60139 237 131 140
-0.612 -0.44273 1.76151 237 131 140
-0.612 -0.25 1.76151 237 131 140
-0.52282 -0.44273 1.85069 237 131 140
-0.52282 -0.25 1.85069 240 154 161
-0.52282 -0.44273 1.85069 240 154 161
-0.612 -0.44273 1.76151 240 154 161
-0.612 -0.25 1.76151 240 154 161
-0.49562 -0.44273 1.84695 240 154 161
-0.49562 -0.25 1.84695 240 154 161
-0.6097 -0.44273 0.74164 237 131 140
-0.36372 -0.44273 0.988 237 131 140
-0.25107 -0.44273 0.87535 237 131 140
-0.49705 -0.44273 0.62899 237 131 140
-0.25107 -0.25 0.87535 237 131 140
-0.49705 -0.25 0.62899 237 131 140
-0.6097 -0.25 0.74164 237 131 140
-0.36372 -0.25 0.988 237 131 140
-0.52425 -0.44273 0.62525 237 131 140
-0.52425 -0.25 0.62525 237 131 140
-0.61343 -0.25 0.71443 237 131 140
-0.61343 -0.44273 0.71443 237 131 140
-0.54072 -0.34314 1.69881 227 112 123
-0.54072 -0.27091 1.69881 227 112 123
-0.44333 -0.27091 1.7794 227 112 123
-0.44333 -0.34314 1.7794 227 112 123
-0.54072 -0.27091 0.77857 227 112 123
-0.54072 -0.34314 0.77857 227 112 123
-0.44333 -0.34314 0.69797 227 112 123
-0.44333 -0.27091 0.69797 227 112 123
0.44333 -0.27091 0.69797 227 112 123
0.44333 -0.34314 0.69797 227 112 123
0.54072 -0.27091 0.77857 227 112 123
0.54072 -0.34314 0.77857 227 112 123
0.54072 -0.27091 1.69881 227 112 123
0.54072 -0.34314 1.69881 227 112 123
0.44333 -0.27091 1.7794 227 112 123
0.44333 -0.34314 1.7794 227 112 123
-0.39748 -0.38925 1.72349 227 112 123
0.39748 -0.38925 1.72349 227 112 123
-0.4848 -0.38925 1.65122 227 112 123
-0.4848 -0.38925 0.82615 227 112 123
-0.39748 -0.38925 0.75389 227 112 123
0.39748 -0.38925 0.75389 227 112 123
0.4848 -0.38925 0.82615 227 112 123
0.4848 -0.38925 1.65122 227 112 123
0.36548 -0.38925 1.54969 227 112 123
0.36548 -0.38925 0.92768 227 112 123
0.29965 -0.38925 1.60417 227 112 123
-0.29965 -0.38925 1.60417 227 112 123
-0.36548 -0.38925 1.54969 227 112 123
-0.36548 -0.38925 0.92768 227 112 123
-0.29965 -0.38925 0.8732 227 112 123
0.29965 -0.38925 0.8732 227 112 123
-0.44333 -0.27091 1.7794 232 114 126
0.44333 -0.27091 1.7794 232 114 126
0.44333 -0.34314 1.7794 232 114 126
-0.44333 -0.34314 1.7794 232 114 126
-0.36548 -0.47129 1.54969 237 131 140
-0.29965 -0.47129 1.60417 237 131 140
0.29965 -0.47129 1.60417 237 131 140
0.36548 -0.47129 1.54969 237 131 140
0.36548 -0.47129 0.92768 237 131 140
0.36548 -0.38925 0.92768 237 131 140
0.36548 -0.38925 1.54969 237 131 140
0.29965 -0.38925 0.8732 237 131 140
0.29965 -0.47129 0.8732 237 131 140
-0.29965 -0.38925 0.8732 237 131 140
-0.29965 -0.47129 0.8732 237 131 140
-0.36548 -0.38925 0.92768 237 131 140
-0.36548 -0.47129 0.92768 237 131 140
-0.36548 -0.38925 1.54969 237 131 140
0.23414 -0.57565 1.4681 141 173 228
-0.23042 -0.57565 1.0062 141 173 228
-0.25212 -0.57565 1.24132 141 173 228
0.01023 -0.57565 1.4908 141 173 228
0.20671 -0.57565 1.4908 141 173 228
-0.25212 -0.57565 1.02415 141 173 228
-0.2952 -0.54398 1.48988 79 137 237
-0.2952 -0.44315 1.48988 79 137 237
-0.24203 -0.44315 1.53389 79 137 237
-0.24203 -0.54398 1.53389 79 137 237
-0.2952 -0.44315 0.98749 79 137 237
-0.2952 -0.54398 0.98749 79 137 237
-0.24203 -0.54398 0.94349 79 137 237
-0.24203 -0.44315 0.94349 79 137 237
0.24203 -0.54398 1.53389 79 137 237
0.24203 -0.44315 1.53389 79 137 237
0.24203 -0.44315 0.94349 79 137 237
0.24203 -0.54398 0.94349 79 137 237
0.2952 -0.54398 1.48988 79 137 237
0.2952 -0.44315 1.48988 79 137 237
0.2952 -0.54398 0.98749 79 137 237
0.2952 -0.44315 0.98749 79 137 237
-0.25212 -0.57565 1.45322 79 137 237
-0.20671 -0.57565 1.4908 79 137 237
0.01023 -0.57565 1.4908 79 137 237
0.25212 -0.57565 1.02415 79 137 237
0.20671 -0.57565 0.98657 79 137 237
-0.0498 -0.57565 0.98657 79 137 237
0.20671 -0.57565 1.4908 79 137 237
-0.25212 -0.57565 1.24132 79 137 237
-0.25212 -0.57565 1.02415 79 137 237
-0.23042 -0.57565 1.0062 79 137 237
-0.20671 -0.57565 0.98657 79 137 237
-0.13529 -0.57565 0.98657 79 137 237
0.23414 -0.57565 1.4681 79 137 237
0.25212 -0.57565 1.45322 79 137 237
0.25212 -0.57565 1.37906 79 137 237
0.25212 -0.57565 1.29174 79 137 237
0.25212 -0.57565 1.02415 63 113 199
0.20671 -0.57565 0.98657 63 113 199
-0.0498 -0.57565 0.98657 63 113 199
0.25212 -0.57565 1.29174 63 113 199
0.01023 -0.57565 1.4908 63 113 199
-0.25212 -0.57565 1.45322 63 113 199
-0.20671 -0.57565 1.4908 63 113 199
-0.25212 -0.57565 1.24132 63 113 199
0.25212 -0.57565 1.45322 63 113 199
0.25212 -0.57565 1.37906 63 113 199
0.23414 -0.57565 1.4681 63 113 199
-0.20671 -0.57565 0.98657 63 113 199
-0.23042 -0.57565 1.0062 63 113 199
-0.13529 -0.57565 0.98657 63 113 199
0.25212 -0.57565 1.29174 141 173 228
-0.0498 -0.57565 0.98657 141 173 228
-0.13529 -0.57565 0.98657 141 173 228
0.25212 -0.57565 1.37906 141 173 228
0.36548 -0.38925 1.54969 240 154 161
0.36548 -0.47129 1.54969 240 154 161
0.29965 -0.47129 1.60417 240 154 161
0.29965 -0.38925 1.60417 240 154 161
-0.29965 -0.47129 1.60417 240 154 161
-0.29965 -0.38925 1.60417 240 154 161
-0.36548 -0.47129 1.54969 240 154 161
-0.36548 -0.38925 1.54969 240 154 161
-0.20897 0.27457 0 92 139 179
-0.75712 0.27457 0 92 139 179
-0.75712 -0.28606 0 92 139 179
-0.20897 -0.28606 0 92 139 179
-0.15842 0.27457 0.06529 92 139 179
-0.8137 0.27457 0.06529 92 139 179
-0.8137 -0.28606 0.06529 92 139 179
-0.88595 0.27457 0.91865 92 139 179
-0.88595 -0.28606 0.91865 92 139 179
-0.15842 -0.28606 0.06529 92 139 179
-0.08825 -0.28606 0.52589 92 139 179
-0.08825 0.27457 0.52589 92 139 179
0.88595 0.27457 0.91865 92 139 179
0 0.27457 1.24874 92 139 179
-0.49773 0.27457 1.89583 92 139 179
-1.30475 0.27457 1.7745 92 139 179
-1.30475 0.27457 1.03548 92 139 179
-1.30475 -0.28606 1.03548 92 139 179
-0.49773 -0.28606 1.89583 92 139 179
0 -0.28606 1.24874 92 139 179
-0.38785 0.27457 2.67074 92 139 179
-0.38785 -0.28606 2.67074 92 139 179
-1.30475 -0.28606 1.7745 92 139 179
0.88595 -0.28606 0.91865 92 139 179
0.49773 -0.28606 1.89583 92 139 179
0.38785 -0.28606 2.67074 92 139 179
0.38785 0.27457 2.67074 92 139 179
0.49773 0.27457 1.89583 92 139 179
-1.38546 0.27457 1.7169 92 139 179
-1.38546 0.27457 1.09308 92 139 179
-1.38546 -0.28606 1.7169 92 139 179
-1.38546 -0.28606 1.09308 92 139 179
-0.32803 -0.28606 2.7488 92 139 179
0.32803 -0.28606 2.7488 92 139 179
1.30475 -0.28606 1.03548 92 139 179
1.30475 -0.28606 1.7745 92 139 179
1.38546 -0.28606 1.09308 92 139 179
1.38546 -0.28606 1.7169 92 139 179
1.38546 0.27457 1.09308 92 139 179
1.30475 0.27457 1.03548 92 139 179
1.38546 0.27457 1.7169 92 139 179
1.30475 0.27457 1.7745 92 139 179
0.8137 -0.28606 0.06529 92 139 179
0.8137 0.27457 0.06529 92 139 179
0.15842 -0.28606 0.06529 92 139 179
0.20897 -0.28606 0 92 139 179
0.75712 -0.28606 0 92 139 179
0.08825 -0.28606 0.52589 92 139 179
0.08825 0.27457 0.52589 92 139 179
0.15842 0.27457 0.06529 92 139 179
0.75712 0.27457 0 92 139 179
0.20897 0.27457 0 92 139 179
-0.49773 0.27457 1.89583 97 147 191
-0.49773 -0.28606 1.89583 97 147 191
-1.30475 -0.28606 1.7745 97 147 191
-1.30475 0.27457 1.7745 97 147 191
-1.38546 -0.28606 1.7169 97 147 191
-1.38546 0.27457 1.7169 97 147 191
-0.32803 0.27457 2.7488 97 147 191
0.32803 0.27457 2.7488 97 147 191
0.32803 -0.28606 2.7488 97 147 191
-0.32803 -0.28606 2.7488 97 147 191
-0.38785 -0.28606 2.67074 97 147 191
-0.38785 0.27457 2.67074 97 147 191
0.38785 -0.28606 2.67074 97 147 191
0.38785 0.27457 2.67074 97 147 191
0.49773 0.27457 1.89583 97 147 191
1.30475 0.27457 1.7745 97 147 191
1.30475 -0.28606 1.7745 97 147 191
0.49773 -0.28606 1.89583 97 147 191
1.38546 0.27457 1.7169 97 147 191
1.38546 -0.28606 1.7169 97 147 191
-0.32803 0.27457 2.7488 92 139 179
0.32803 0.27457 2.7488 92 139 179
-0.89468 0.62472 2.60318 80 130 175
-0.89468 0.25241 2.60318 80 130 175
-1.23212 0.25241 2.33846 80 130 175
-1.23212 0.62472 2.33846 80 130 175
-1.45766 0.62472 0.58801 75 123 162
-1.45766 0.25241 0.58801 75 123 162
-1.09875 0.25241 0.24597 75 123 162
-1.09875 0.62472 0.24597 75 123 162
-1.44336 0.62472 0.68613 75 123 162
-1.00132 0.62472 0.26435 75 123 162
-0.88595 0.62472 1.38674 75 123 162
-0.41935 0.62472 0.71886 75 123 162
0.41935 0.62472 0.71886 75 123 162
0.88595 0.62472 1.38674 75 123 162
-1.00132 0.25241 0.26435 75 123 162
-0.41935 0.25241 0.71886 75 123 162
-0.25 0.62472 2.2229 75 123 162
0.25 0.62472 2.2229 75 123 162
-0.81524 0.62472 2.58065 75 123 162
-1.23889 0.62472 2.25234 75 123 162
-1.23889 0.25241 2.25234 75 123 162
-0.88595 0.25241 1.38674 75 123 162
-1.23212 0.62472 2.33846 75 123 162
-0.89468 0.62472 2.60318 75 123 162
-1.23212 0.25241 2.33846 75 123 162
-0.89468 0.25241 2.60318 75 123 162
-0.81524 0.25241 2.58065 75 123 162
-0.25 0.25241 2.2229 75 123 162
0.88595 0.25241 1.38674 75 123 162
0.41935 0.25241 0.71886 75 123 162
-1.44336 0.25241 0.68613 75 123 162
1.44336 0.25241 0.68613 75 123 162
1.00132 0.25241 0.26435 75 123 162
-0.30948 0.25241 0.20724 75 123 162
-0.30948 0.62472 0.20724 75 123 162
0.30948 0.25241 0.20724 75 123 162
0.30948 0.62472 0.20724 75 123 162
-0.24966 0.62472 0.12919 75 123 162
-0.24966 0.25241 0.12919 75 123 162
0.24966 0.62472 0.12919 75 123 162
0.24966 0.25241 0.12919 75 123 162
1.45766 0.25241 0.58801 75 123 162
1.09875 0.25241 0.24597 75 123 162
1.00132 0.62472 0.26435 75 123 162
1.44336 0.62472 0.68613 75 123 162
1.09875 0.62472 0.24597 75 123 162
1.45766 0.62472 0.58801 75 123 162
1.23889 0.25241 2.25234 75 123 162
1.23889 0.62472 2.25234 75 123 162
0.81524 0.62472 2.58065 75 123 162
1.23212 0.62472 2.33846 75 123 162
0.89468 0.62472 2.60318 75 123 162
1.23212 0.25241 2.33846 75 123 162
0.89468 0.25241 2.60318 75 123 162
0.81524 0.25241 2.58065 75 123 162
0.25 0.25241 2.2229 75 123 162
-0.88595 0.25241 1.38674 80 130 175
-1.44336 0.25241 0.68613 80 130 175
-1.44336 0.62472 0.68613 80 130 175
-0.88595 0.62472 1.38674 80 130 175
-1.45766 0.62472 0.58801 80 130 175
-1.45766 0.25241 0.58801 80 130 175
-0.25 0.25241 2.2229 80 130 175
-0.81524 0.25241 2.58065 80 130 175
-0.81524 0.62472 2.58065 80 130 175
-0.25 0.62472 2.2229 80 130 175
0.25 0.62472 2.2229 80 130 175
0.25 0.25241 2.2229 80 130 175
0.81524 0.62472 2.58065 80 130 175
0.81524 0.25241 2.58065 80 130 175
0.89468 0.62472 2.60318 80 130 175
0.89468 0.25241 2.60318 80 130 175
1.23212 0.62472 2.33846 80 130 175
1.23212 0.25241 2.33846 80 130 175
0.88595 0.25241 1.38674 80 130 175
0.88595 0.62472 1.38674 80 130 175
1.44336 0.62472 0.68613 80 130 175
1.44336 0.25241 0.68613 80 130 175
1.45766 0.62472 0.58801 80 130 175
1.45766 0.25241 0.58801 80 130 175
3 0 2 1
3 0 3 2
3 3 4 2
3 3 5 4
3 6 0 1
3 6 1 7
3 5 3 8
3 5 8 9
3 3 10 8
3 3 0 10
3 0 11 10
3 0 6 11
3 12 14 13
3 12 15 14
3 16 18 17
3 16 19 18
3 19 20 18
3 19 21 20
3 21 19 22
3 21 22 23
3 24 23 22
3 24 22 25
3 19 25 22
3 19 16 25
3 26 28 27
3 26 29 28
3 29 26 30
3 29 30 31
3 32 34 33
3 32 35 34
3 36 32 33
3 36 33 37
3 35 32 38
3 35 38 39
3 40 39 38
3 32 40 38
3 32 36 40
3 40 41 39
3 42 44 43
3 42 45 44
3 45 42 46
3 45 46 47
3 48 50 49
3 48 51 50
3 51 52 50
3 51 53 52
3 54 48 49
3 54 49 55
3 53 51 56
3 53 56 57
3 58 57 56
3 48 54 58
3 58 56 59
3 51 59 56
3 51 48 59
3 48 58 59
3 60 62 61
3 60 63 62
3 63 64 62
3 63 65 64
3 66 60 61
3 66 61 67
3 65 63 68
3 65 68 69
3 70 69 68
3 60 66 70
3 70 68 71
3 63 71 68
3 63 60 71
3 60 70 71
3 72 74 73
3 72 75 74
3 75 76 74
3 75 77 76
3 78 72 73
3 78 73 79
3 75 72 80
3 75 80 81
3 72 82 80
3 72 78 82
3 83 85 84
3 83 86 85
3 87 85 86
3 87 88 85
3 89 91 90
3 89 92 91
3 92 93 91
3 92 94 93
3 95 89 90
3 95 90 96
3 94 92 97
3 94 97 98
3 92 99 97
3 92 89 99
3 100 102 101
3 100 103 102
3 104 100 101
3 104 105 100
3 106 108 107
3 106 109 108
3 109 110 108
3 109 111 110
3 112 106 107
3 112 107 113
3 111 109 114
3 111 114 115
3 116 115 114
3 106 112 116
3 116 114 117
3 109 117 114
3 109 106 117
3 106 116 117
3 118 120 119
3 118 121 120
3 122 118 119
3 122 123 118
3 122 124 123
3 122 125 124
3 124 125 126
3 124 126 127
3 127 126 128
3 127 128 129
3 129 128 130
3 129 130 131
3 132 131 130
3 132 133 131
3 133 121 134
3 133 134 135
3 131 133 135
3 121 136 134
3 121 118 136
3 118 137 136
3 118 123 137
3 123 138 137
3 123 124 138
3 124 139 138
3 124 127 139
3 127 140 139
3 127 129 140
3 129 141 140
3 131 135 141
3 129 131 141
3 140 141 142
3 140 142 143
3 139 140 143
3 141 144 142
3 141 135 144
3 135 145 144
3 135 134 145
3 134 146 145
3 134 136 146
3 136 147 146
3 136 137 147
3 137 148 147
3 137 138 148
3 138 149 148
3 138 139 149
3 139 143 149
3 150 152 151
3 150 153 152
3 154 156 155
3 154 157 156
3 158 157 154
3 159 157 158
3 159 160 157
3 161 159 158
3 161 158 162
3 163 161 162
3 163 162 164
3 158 164 162
3 165 163 164
3 165 164 166
3 158 154 166
3 158 166 164
3 167 166 154
3 167 165 166
3 168 170 169
3 168 171 170
3 168 172 171
3 169 170 173
3 174 176 175
3 174 177 176
3 178 174 175
3 178 179 174
3 178 180 179
3 178 181 180
3 176 177 182
3 176 182 183
3 180 181 184
3 180 184 185
3 183 182 186
3 183 186 187
3 188 187 186
3 188 189 187
3 185 189 188
3 185 184 189
3 177 174 190
3 177 190 191
3 192 177 191
3 182 177 192
3 185 188 193
3 185 193 194
3 195 185 194
3 182 192 196
3 174 197 190
3 174 179 197
3 197 179 198
3 179 199 198
3 179 180 199
3 199 180 200
3 180 201 200
3 180 195 201
3 180 185 195
3 202 182 196
3 186 182 202
3 186 202 203
3 204 186 203
3 188 186 204
3 188 204 205
3 188 205 193
3 206 208 207
3 206 209 208
3 210 212 211
3 210 211 213
3 214 216 215
3 215 216 217
3 217 216 218
3 215 217 219
3 220 222 221
3 220 223 222
3 224 226 225
3 224 227 226
3 227 228 226
3 227 229 228
3 229 230 228
3 229 231 230
3 232 234 233
3 232 235 234
3 236 232 233
3 236 233 237
3 237 233 234
3 237 234 238
3 239 237 238
3 239 236 237
3 239 238 240
3 241 232 236
3 241 235 232
3 242 241 236
3 242 236 243
3 239 243 236
3 244 243 239
3 244 239 245
3 246 245 239
3 239 247 246
3 239 248 247
3 240 248 239
3 240 249 248
3 250 249 240
3 240 251 250
3 250 252 246
3 250 253 252
3 250 254 249
3 255 251 240
3 250 251 256
3 253 250 256
3 255 256 251
3 253 256 257
3 246 252 258
3 246 258 259
3 245 246 259
3 248 260 247
3 248 261 260
3 249 261 248
3 261 262 260
3 261 263 262
3 254 263 249
3 249 263 261
3 254 262 263
3 264 253 257
3 264 257 265
3 256 258 257
3 256 259 258
3 256 255 266
3 256 266 267
3 267 266 268
3 267 268 269
3 266 270 268
3 266 271 270
3 271 272 270
3 270 272 269
3 270 269 268
3 271 273 272
3 244 273 271
3 244 259 273
3 259 244 245
3 255 271 266
3 255 244 271
3 244 255 274
3 244 274 275
3 255 276 274
3 274 276 277
3 274 277 278
3 255 279 276
3 255 242 279
3 242 280 279
3 242 243 280
3 255 240 242
3 242 240 238
3 242 238 241
3 238 235 241
3 238 234 235
3 281 275 282
3 281 282 283
3 283 282 278
3 283 278 277
3 275 278 282
3 275 274 278
3 276 283 277
3 276 281 283
3 279 281 276
3 279 280 281
3 244 281 280
3 244 275 281
3 244 280 243
3 284 286 285
3 284 287 286
3 287 288 286
3 287 289 288
3 290 292 291
3 290 293 292
3 294 293 290
3 294 290 295
3 296 291 292
3 296 297 291
3 298 300 299
3 298 301 300
3 299 303 302
3 299 300 303
3 304 258 252
3 304 305 258
3 306 308 307
3 306 309 308
3 310 312 311
3 310 313 312
3 314 313 310
3 314 315 313
3 315 312 313
3 316 315 314
3 316 317 315
3 318 317 316
3 318 316 319
3 317 320 315
3 315 320 312
3 317 321 320
3 319 316 322
3 319 322 323
3 316 324 322
3 316 325 324
3 316 326 325
3 316 327 326
3 324 325 328
3 324 328 329
3 325 330 328
3 325 326 330
3 326 331 330
3 326 332 331
3 327 332 326
3 327 333 332
3 334 333 327
3 327 335 334
3 327 321 335
3 321 327 336
3 321 336 320
3 320 336 311
3 320 311 312
3 335 337 334
3 335 338 337
3 339 335 321
3 321 340 339
3 321 317 340
3 339 341 335
3 335 341 342
3 317 342 340
3 343 340 342
3 339 340 343
3 339 343 344
3 343 342 345
3 343 346 344
3 343 345 346
3 317 318 342
3 335 342 318
3 338 347 337
3 338 348 347
3 341 345 342
3 341 346 345
3 344 341 339
3 344 346 341
3 319 349 318
3 319 350 349
3 318 349 338
3 318 338 335
3 350 351 349
3 350 352 351
3 352 348 351
3 349 348 338
3 349 351 348
3 352 347 348
3 319 353 334
3 319 354 353
3 319 355 354
3 355 356 354
3 355 357 356
3 354 356 358
3 354 358 353
3 353 358 359
3 353 359 360
3 334 353 360
3 334 360 361
3 334 361 333
3 319 323 355
3 362 364 363
3 362 365 364
3 363 364 366
3 363 366 367
3 368 370 369
3 368 371 370
3 369 306 307
3 369 370 306
3 368 372 371
3 368 373 372
3 373 374 372
3 373 375 374
3 375 376 374
3 375 377 376
3 376 379 378
3 376 377 379
3 380 382 381
3 380 383 382
3 383 384 382
3 383 385 384
