mtllib Pyroar_M.mtl
v 0 0.492895 0.420927
vt 0.358442 0.00460833
vn 0 0.0241698 0.9997079
v 0 0.61639 0.509079
vt 0.578414 0.00460833
vn 0 -0.438773 0.898598
v -0.187562 0.853751 0.321563
vt 0.737234 0.234727
vn -0.466508 0.649319 0.600629
v 0.187562 0.853751 0.321563
vn 0.466508 0.649319 0.600629
v -0.206489 0.596349 0.43987
vt 0.581662 0.219289
vn -0.101073 0.265523 0.9587919
v 0.206489 0.596349 0.43987
vn 0.101073 0.265523 0.9587919
v -0.161486 0.465464 0.475241
vt 0.326725 0.205593
vn -0.178903 -0.0568473 0.982223
v 0.161486 0.465464 0.475241
vn 0.178903 -0.0568473 0.982223
v -0.111416 0.294418 0.425129
vt 0.196667 0.0616256
vn -0.172362 -0.3761471 0.9103872
v 0.111416 0.294418 0.425129
vn 0.172362 -0.3761471 0.9103872
v 0 0.271126 0.448044
vt 0.114867 0.00460833
vn 0 -0.2700949 0.9628337
v -0.0568287 0.765434 0.452092
vt 0.723104 0.0705789
vn -0.0656199 0.40509 0.9119189
v 0.0568287 0.765434 0.452092
vn 0.0656199 0.40509 0.9119189
v 0 0.84806 0.337864
vt 0.796609 0.00460833
vn 0 0.9564571 0.291873
v -0.277947 0.547299 0.321563
vt 0.425191 0.345619
vn -0.9853967 -0.004091389 0.1702249
v -0.349959 0.918114 0.281408
vt 0.804882 0.43397
vn -0.735133 0.651872 -0.186125
v -0.357043 0.658198 0.321563
vt 0.561252 0.434421
vn -0.9964525 -0.08381467 0.007589546
v 0.277947 0.547299 0.321563
vn 0.9853967 -0.004091149 0.1702249
v 0.349959 0.918114 0.281408
vn 0.7351331 0.6518721 -0.186124
v 0.357043 0.658198 0.321563
vn 0.9964525 -0.08381446 0.007589726
v 0 0.112397 0.328979
vt -0.128707 0.00460815
vn 0 -0.8901652 0.4556381
v -0.291105 0.192147 0.321563
vt 0.0137942 0.325815
vn -0.3685941 -0.9293883 -0.01938791
v -0.092946 0.209343 0.321563
vt 0.0348924 0.118643
vn -0.5453411 -0.8174002 -0.185634
v -0.151274 1.03078 0.276887
vt 1 0.190205
vn -0.132094 0.967369 -0.216214
v 0.151274 1.03078 0.276887
vn 0.132093 0.9673691 -0.216214
v -0.348314 0.441191 0.321563
vt 0.295007 0.406578
vn -0.985568 -0.06984711 0.154198
v 0.348314 0.441191 0.321563
vn 0.985568 -0.06984711 0.154198
v 0.291105 0.192147 0.321563
vn 0.3685941 -0.9293883 -0.01938781
v 0.268684 0.281661 0.321563
vt 0.116325 0.320225
vn 0.9773421 -0.150223 0.149116
v -0.268684 0.281661 0.321563
vn -0.9773419 -0.150223 0.149117
v 0.092946 0.209343 0.321563
vn 0.5453411 -0.8174002 -0.185634
v 0 0.417309 0.0376968
vt 0.658895 0.834606
vn 0 -0.6210428 -0.7837767
v 0.114893 0.437335 0.0773189
vt 0.664394 0.836414
vn 0.2721789 -0.4753468 -0.8366386
vt 0.663343 0.824654
v 0 0.484888 -0.0311929
vt 0.658895 0.838588
vn 0 -0.003669531 -0.9999933
v 0.046473 0.1398069 0.1727789
vt 0.661119 0.82355
vn 0.959362 -0.1184051 -0.2561344
v -0.114893 0.437335 0.0773189
vt 0.653397 0.836414
vn -0.2721789 -0.4753468 -0.8366386
v 0 0.16221 0.00743301
vt 0.658895 0.824622
vn 0 -0.02046821 -0.9997905
vt 0.654447 0.824654
v -0.046473 0.1398069 0.1727789
vt 0.656671 0.82355
vn -0.959362 -0.1184051 -0.2561344
v 0.219602 0.330608 0.156606
vt 0.669405 0.830457
vn 0.180993 -0.6977999 -0.693049
v 0 0.505324 0.0246012
vt 0.658895 0.838819
vn 0 -0.03336271 -0.9994433
v 0.240779 0.449062 0.0857293
vt 0.670419 0.836126
vn 0.7029042 -0.01996971 -0.7110042
v 0.199616 0.536131 0.134583
vt 0.668448 0.840293
vn 0.6184243 0.2230461 -0.7535263
v 0 0.08499189 0.1011462
vt 0.658895 0.820927
vn 0 -0.8440153 -0.5363192
v 0 0.1103816 0.2395126
vt 0.658895 0.822142
vn 0 -0.9745387 0.224219
v 0 0.1237207 0.1410346
vt 0.658895 0.82278
vn 0 -0.9969623 0.07788566
v 0 0.06928233 0.2140473
vt 0.658895 0.820175
vn 0 -0.9871277 0.159934
vt 0.671754 0.828115
vt 0.672827 0.82383
v 0.0965813 0.620423 0.0555013
vt 0.663517 0.844327
vn 0.6142169 0.297174 -0.7310439
vt 0.672197 0.840828
v 0.12105 0.719453 0.180701
vt 0.664688 0.849066
vn 0.2222869 0.4134948 -0.8829556
vt 0.675983 0.846135
vt 0.675644 0.858574
v -0.219602 0.330608 0.156606
vt 0.648385 0.830457
vn -0.1809931 -0.6977994 -0.6930494
v -0.199616 0.536131 0.134583
vt 0.649342 0.840293
vn -0.6184238 0.2230459 -0.7535267
v -0.240779 0.449062 0.0857293
vt 0.647372 0.836126
vn -0.7029042 -0.01997001 -0.7110042
vt 0.658895 0.820014
vt 0.675565 0.835749
v 0 0.754868 0.181261
vt 0.658895 0.850761
vn 0 0.5599341 -0.8285371
v 0 0.600111 -0.069698
vt 0.658895 0.843355
vn 0 -0.07387456 -0.9972675
v 0 0.656222 0.0646681
vt 0.658895 0.84604
vn 0 0.8380723 -0.5455592
vt 0.667872 0.855494
vt 0.646036 0.828115
vt 0.644963 0.82383
v -0.0965813 0.620423 0.0555013
vt 0.654273 0.844327
vn -0.6142169 0.297174 -0.7310439
vt 0.645593 0.840828
v -0.12105 0.719453 0.180701
vt 0.653102 0.849066
vn -0.2222869 0.4134948 -0.8829556
vt 0.641808 0.846135
vt 0.642147 0.858574
vt 0.666135 0.863966
vt 0.642225 0.835749
vt 0.649919 0.855494
vt 0.658895 0.855222
vt 0.651655 0.863966
v -0.0682277 0.334151 0.493863
vt -0.0831456 0.491137
vn -0.4576501 -0.8673321 0.195682
v 0.0682277 0.334151 0.493863
vt 0.0831455 0.491121
vn 0.4576501 -0.8673321 0.195682
v 0 0.359151 0.562409
vt -1.95467E-05 0.536942
vn 0 -0.689422 0.72436
v 0 0.347523 0.384668
vt 0 0.360679
vn 0 -0.987018 -0.16061
v -0.0606582 0.371304 0.553757
vt -0.0541214 0.546294
vn -0.6412244 -0.4220552 0.6408594
v -0.116665 0.364308 0.350515
vt -0.191385 0.401981
vn -0.6015791 -0.7970561 0.0529557
v -0.0870989 0.472073 0.543832
vt -0.122555 0.651208
vn -0.724321 -0.0547084 0.687289
v -0.152119 0.434568 0.44876
vt -0.214155 0.572269
vn -0.8130332 -0.4247981 0.3981501
v 0.0606582 0.371304 0.553757
vt 0.0541126 0.546262
vn 0.6412244 -0.4220552 0.6408594
v 0.116665 0.364308 0.350515
vt 0.191385 0.401988
vn 0.6015791 -0.7970561 0.0529557
v 0.0870989 0.472073 0.543832
vt 0.12254 0.651261
vn 0.724321 -0.0547085 0.687289
v 0.152119 0.434568 0.44876
vt 0.214148 0.572292
vn 0.8130332 -0.4247981 0.3981501
v -0.0374879 0.47119 0.598023
vt -0.0519945 0.654706
vn -0.2955171 0.1886631 0.9365233
v -0.204529 0.468564 0.345207
vt -0.336079 0.574601
vn -0.9024356 -0.3221869 0.2860169
v 0.0374879 0.47119 0.598023
vt 0.0521513 0.654779
vn 0.2955171 0.1886631 0.9365233
v 0.204529 0.468564 0.345207
vt 0.336075 0.574618
vn 0.9024356 -0.3221869 0.2860169
v -0.179373 0.534217 0.447153
vt -0.258302 0.702389
vn -0.854362 -0.0590115 0.516317
v -0.024836 0.548072 0.545654
vt -0.034029 0.753462
vn -0.1694389 0.4551447 0.8741475
v 0.179373 0.534217 0.447153
vt 0.258297 0.702426
vn 0.854362 -0.0590115 0.516317
v 0.024836 0.548072 0.545654
vt 0.0339068 0.751742
vn 0.169439 0.4551439 0.8741479
v -0.222426 0.62854 0.343412
vt -0.354578 0.851916
vn -0.8643284 0.3045348 0.4002437
v -0.171973 0.61911 0.441914
vt -0.239517 0.823875
vn -0.6848819 0.4332329 0.5858719
v 0 0.587847 0.535726
vt -8.24146E-06 0.795702
vn 0 0.5066638 0.8621437
v 0.0908187 0.569651 0.522103
vt 0.122479 0.767243
vn 0.458355 0.315119 0.83103
v 0.222426 0.62854 0.343412
vt 0.354578 0.851943
vn 0.8643284 0.3045348 0.4002437
v -0.0986625 0.733233 0.376007
vt -0.161332 1.01437
vn -0.4881153 0.7102055 0.5072984
v -0.0703046 0.673622 0.469915
vt -0.0932253 0.899856
vn -0.249146 0.6723281 0.6970661
v -0.0908187 0.569651 0.522103
vt -0.122458 0.767121
vn -0.458355 0.315119 0.83103
v 0.0703046 0.673622 0.469915
vt 0.0932276 0.899909
vn 0.249146 0.6723281 0.6970661
v 0.171973 0.61911 0.441914
vt 0.239526 0.823931
vn 0.6848819 0.4332329 0.5858719
v 0 0.676595 0.453232
vt -5.91544E-06 0.956666
vn 0 0.7595781 0.6504161
v 0.0986625 0.733233 0.376007
vt 0.161327 1.01441
vn 0.4881161 0.7102051 0.5072981
v 0 0.1655584 0.3010851
vt 0.621821 0.753559
vn 0 -0.2700948 0.9628338
v -0.219299 0.2296918 0.1972091
vt 0.383092 0.868986
vn -0.8471577 0.1804914 0.4997468
v -0.184594 -1.796931E-05 0.2178469
vt 0.515753 0.893794
vn -0.3002647 -0.7556304 0.5821199
v 0 0.2296918 0.2995982
vt 0.555734 0.746788
vn 0 0.105438 0.9944259
v 0 0.1323088 0.09224576
vt 0.575295 0.986642
vn 0 -0.9804012 -0.197011
v 0.219299 0.2296918 0.1972091
vn 0.847158 0.1804912 0.4997464
v 0.184594 -1.796931E-05 0.2178469
vn 0.3002645 -0.7556309 0.5821195
v -0.200615 0.1572551 0.09128335
vt 0.439436 0.9901
vn -0.8089702 -0.5167836 -0.2801819
v 0.200615 0.1572551 0.09128335
vn 0.8089702 -0.5167836 -0.2801819
v 0 0.343465 -0.248139
vt 0.674099 0.910316
vn 0 0.780427 -0.625247
v -0.155537 0.343465 -0.150197
vt 0.667565 0.910316
vn -0.6553687 0.7043838 -0.2726449
v 0 0.38074 0.102628
vt 0.650699 0.912802
vn 0 0.9997792 0.0210139
v -0.193438 0.2407588 -0.1801323
vt 0.669562 0.903464
vn -0.8574802 0.3361479 -0.3895284
v 0.155537 0.343465 -0.150197
vn 0.6553693 0.7043833 -0.2726451
v 0 0.2407588 -0.2994148
vt 0.677519 0.903464
vn 0 0.335584 -0.9420103
v 0.193438 0.2407588 -0.1801323
vn 0.8574805 0.3361481 -0.3895276
v -0.177177 0.343465 0.182321
vt 0.645383 0.910316
vn -0.7286375 0.6149486 0.3015388
vt 0.64439 0.902726
v 0.177177 0.343465 0.182322
vn 0.728638 0.614948 0.301539
v -0.200615 0.1591001 -0.05389994
vt 0.661142 0.898017
vn -0.7276613 -0.6328 0.2647136
v 0 0.343465 0.28382
vt 0.638612 0.910316
vn 0 0.5338178 0.8455996
vt 0.637559 0.902726
v 0.200615 0.1591001 -0.05389984
vn 0.7276613 -0.6328 0.2647136
vt 0.651456 0.897894
vt 0.651392 0.896231
v 0 0.1448106 -0.05666554
vt 0.661327 0.897058
vn 0 -0.9745388 0.224219
v 0 0.1394949 -0.2994174
vt 1 0.900493
vn 0 -0.7855801 -0.61876
vt 1 0.981976
v 0.183209 0.1460053 -0.2211431
vt 0.809447 0.887342
vn 0.3988619 0.1444042 -0.9055697
v -0.183209 0.1460053 -0.2211431
vn -0.3988607 0.1444041 -0.9055703
v 0.184594 -2.049644E-05 -0.2258513
vt 0.832822 0.761267
vn -0.1434976 -0.9892515 -0.02810441
v -0.184594 -2.049644E-05 -0.2258513
vn 0.1434976 -0.9892515 -0.02810441
vt 0.947869 0.602884
vt 0.751565 0.969145
vt 0.785827 0.544806
v 0.204213 0.1474294 -0.1279115
vt 0.779157 0.833685
vn 0.9946342 0.07492443 -0.07133716
vt 0.75034 0.782406
v -0.204213 0.1474294 -0.1279115
vn -0.9946343 0.07492493 -0.07133705
v 0 0.345636 -0.246815
vt 0.67451 0.916404
vn 0 0.100102 -0.9949772
v 0.0244031 0.346301 -0.250903
vt 0.675155 0.916509
vn 0.289575 0.8496791 -0.440672
v 0.0254641 0.328194 -0.23999
vt 0.673433 0.913651
vn 0.73003 -0.320896 -0.603392
v 0.0308308 0.33776 -0.220643
vt 0.67038 0.915161
vn 0.8019735 0.5849527 0.1211159
v 0 0.388671 -0.250857
vt 0.675148 0.923195
v -0.0308308 0.33776 -0.220643
vn -0.8019735 0.5849527 0.1211149
v -0.0244031 0.346301 -0.250903
vn -0.289574 0.8496779 -0.4406749
v -0.025464 0.328194 -0.23999
vn -0.730031 -0.320896 -0.6033909
v 0 0.351489 -0.160888
vt 0.66095 0.917327
vn 0 0.924185 0.381945
vt 0.667249 0.943712
v -0.220358 0.1605192 -0.1078283
vt 0.651413 0.965253
vn -0.9843643 -0.170843 0.04288964
v -0.245575 0.2478494 -0.136638
vt 0.655279 0.976971
vn -0.9761212 -0.2132492 0.04137612
v -0.231804 0.2014736 -0.05909156
vt 0.644874 0.970748
vn -0.7502964 -0.417846 0.5123085
v -0.22728 0.1791093 -0.169151
vt 0.659641 0.967747
vn -0.9424359 0.3340239 -0.01557661
vt 0.644177 0.965061
v -0.238715 0.2820154 -0.2093154
vt 0.66503 0.981555
vn -0.9737539 0.1120113 -0.1981333
vt 0.666618 0.963306
vt 0.654108 0.963497
vn 0.8324488 0.5531222 0.03293585
v 0.238715 0.2820154 -0.2093154
vn 0.9737543 0.1120094 -0.1981324
v 0.22728 0.1791093 -0.169151
vn 0.9424369 0.3340209 -0.01557621
v 0.245575 0.2478494 -0.136638
vn 0.9761211 -0.2132502 0.04137561
v 0.220358 0.1605192 -0.1078273
vn 0.9843644 -0.170843 0.04288834
v 0.231804 0.2014736 -0.05909146
vn 0.7502973 -0.417847 0.5123065
vn -0.8324496 0.5531211 0.03293584
v 0.0312707 0.574008 -0.389274
vt 0.66118 0.78586
vn 0.9822653 0.1830811 -0.04045091
v 0 0.54046 -0.423839
vt 0.668271 0.778978
vn 0 -0.2888659 -0.9573696
v 0 0.605399 -0.398261
vt 0.663023 0.7923
vn 0 0.9786718 -0.20543
v 0 0.447558 -0.378549
vt 0.65898 0.759919
vn 0 -0.9347417 -0.3553279
v 0 0.583311 -0.2834
vt 0.63946 0.787768
vn 0 0.6756753 0.7371994
v 0 0.558494 -0.369902
vt 0.657206 0.782677
vn 0 -0.5754312 0.8178502
v -0.0312707 0.574008 -0.389274
vn -0.9822653 0.1830811 -0.04045101
v 0.0119609 0.449348 -0.389654
vt 0.707413 0.70198
vn 0.9750507 0.2106809 0.06992649
v 0 0.435263 -0.386738
vt 0.713834 0.685187
vn 0 -0.8918323 -0.4523661
v 0 0.435064 -0.439587
vt 0.769609 0.720589
vn 0 -0.5897511 -0.8075851
v 0 0.350785 -0.25546
vt 0.632545 0.507786
vn 0 0.146439 0.9892197
v 0 0.458615 -0.382092
vt 0.693207 0.706642
vn 0 0.8615999 0.507588
v -0.0119609 0.449348 -0.389654
vn -0.9750507 0.2106809 0.06992658
vt 0.752392 0.155068
vt 0.823042 0.446881
vt 0.991873 0.219747
o merged_0_0_node
g polygon_0
usemtl mat_body_mat_id
f 1/1/1 2/2/2 3/3/3
f 1/1/1 4/3/4 2/2/2
f 1/1/1 3/3/3 5/4/5
f 1/1/1 6/4/6 4/3/4
f 1/1/1 5/4/5 7/5/7
f 1/1/1 8/5/8 6/4/6
f 1/1/1 7/5/7 9/6/9
f 1/1/1 10/6/10 8/5/8
f 1/1/1 9/6/9 11/7/11
f 1/1/1 11/7/11 10/6/10
f 2/2/2 12/8/12 3/3/3
f 2/2/2 4/3/4 13/8/13
f 2/2/2 14/9/14 12/8/12
f 2/2/2 13/8/13 14/9/14
f 5/4/5 15/10/15 7/5/7
f 5/4/5 3/3/3 16/11/16
f 5/4/5 17/12/17 15/10/15
f 5/4/5 16/11/16 17/12/17
f 6/4/6 8/5/8 18/10/18
f 6/4/6 19/11/19 4/3/4
f 6/4/6 18/10/18 20/12/20
f 6/4/6 20/12/20 19/11/19
f 9/6/9 21/13/21 11/7/11
f 9/6/9 7/5/7 22/14/22
f 9/6/9 23/15/23 21/13/21
f 9/6/9 22/14/22 23/15/23
f 11/7/11 21/13/21 10/6/10
f 12/8/12 14/9/14 24/16/24
f 12/8/12 24/16/24 3/3/3
f 13/8/13 4/3/4 25/16/25
f 13/8/13 25/16/25 14/9/14
f 15/10/15 26/17/26 7/5/7
f 8/5/8 27/17/27 18/10/18
f 8/5/8 10/6/10 28/14/28
f 8/5/8 29/18/29 27/17/27
f 8/5/8 28/14/28 29/18/29
f 22/14/22 7/5/7 30/18/30
f 30/18/30 7/5/7 26/17/26
f 21/13/21 31/15/31 10/6/10
f 10/6/10 31/15/31 28/14/28
f 32/19/32 33/20/33 31/21/31
f 32/19/32 34/22/34 33/20/33
f 32/19/32 31/21/31 35/23/35
f 32/19/32 36/24/36 34/22/34
f 32/19/32 35/23/35 37/25/37
f 32/19/32 23/26/23 36/24/36
f 32/19/32 37/25/37 38/27/38
f 32/19/32 38/27/38 23/26/23
f 33/20/33 39/28/39 31/21/31
f 33/20/33 34/22/34 40/29/40
f 33/20/33 41/30/41 39/28/39
f 33/20/33 40/29/40 42/31/42
f 33/20/33 42/31/42 41/30/41
f 34/22/34 36/24/36 40/29/40
f 35/23/35 43/32/43 37/25/37
f 35/23/35 31/21/31 44/33/44
f 35/23/35 45/34/45 43/32/43
f 35/23/35 44/33/44 46/35/46
f 35/23/35 46/35/46 45/34/45
f 38/27/38 44/33/44 23/26/23
f 38/27/38 37/25/37 43/32/43
f 38/27/38 45/34/45 46/35/46
f 38/27/38 46/35/46 44/33/44
f 38/27/38 43/32/43 45/34/45
f 39/28/39 41/30/41 29/36/29
f 39/28/39 29/36/29 28/37/28
f 42/31/42 40/29/40 47/38/47
f 42/31/42 18/39/18 41/30/41
f 42/31/42 47/38/47 48/40/48
f 42/31/42 20/41/20 18/39/18
f 42/31/42 48/40/48 19/42/19
f 42/31/42 19/42/19 20/41/20
f 36/24/36 23/26/23 49/43/49
f 36/24/36 50/44/50 40/29/40
f 36/24/36 49/43/49 51/45/51
f 36/24/36 51/45/51 50/44/50
f 31/21/31 21/46/21 44/33/44
f 44/33/44 21/46/21 23/26/23
f 29/36/29 41/30/41 27/47/27
f 27/47/27 41/30/41 18/39/18
f 47/38/47 52/48/52 48/40/48
f 47/38/47 40/29/40 53/49/53
f 47/38/47 54/50/54 52/48/52
f 47/38/47 53/49/53 54/50/54
f 19/42/19 48/40/48 4/51/4
f 49/43/49 30/52/30 51/45/51
f 49/43/49 22/53/22 30/52/30
f 50/44/50 55/54/55 40/29/40
f 50/44/50 51/45/51 15/55/15
f 50/44/50 56/56/56 55/54/55
f 50/44/50 15/55/15 17/57/17
f 50/44/50 16/58/16 56/56/56
f 50/44/50 17/57/17 16/58/16
f 55/54/55 56/56/56 52/48/52
f 55/54/55 53/49/53 40/29/40
f 55/54/55 52/48/52 54/50/54
f 55/54/55 54/50/54 53/49/53
f 48/40/48 25/59/25 4/51/4
f 48/40/48 52/48/52 25/59/25
f 30/52/30 26/60/26 51/45/51
f 51/45/51 26/60/26 15/55/15
f 16/58/16 3/61/3 56/56/56
f 52/48/52 14/62/14 25/59/25
f 52/48/52 56/56/56 24/63/24
f 52/48/52 24/63/24 14/62/14
f 24/63/24 56/56/56 3/61/3
f 57/64/57 58/65/58 59/66/59
f 57/64/57 60/67/60 58/65/58
f 57/64/57 59/66/59 61/68/61
f 57/64/57 62/69/62 60/67/60
f 57/64/57 61/68/61 63/70/63
f 57/64/57 64/71/64 62/69/62
f 57/64/57 63/70/63 64/71/64
f 58/65/58 65/72/65 59/66/59
f 58/65/58 60/67/60 66/73/66
f 58/65/58 67/74/67 65/72/65
f 58/65/58 66/73/66 68/75/68
f 58/65/58 68/75/68 67/74/67
f 61/68/61 69/76/69 63/70/63
f 61/68/61 59/66/59 69/76/69
f 62/69/62 64/71/64 70/77/70
f 65/72/65 67/74/67 71/78/71
f 65/72/65 71/78/71 59/66/59
f 59/66/59 71/78/71 69/76/69
f 66/73/66 72/79/72 68/75/68
f 63/70/63 73/80/73 64/71/64
f 63/70/63 69/76/69 74/81/74
f 69/76/69 71/78/71 74/81/74
f 64/71/64 73/80/73 70/77/70
f 67/74/67 68/75/68 75/82/75
f 67/74/67 76/83/76 71/78/71
f 71/78/71 76/83/76 74/81/74
f 68/75/68 72/79/72 75/82/75
f 73/80/73 77/84/77 70/77/70
f 73/80/73 78/85/78 77/84/77
f 76/83/76 79/86/79 74/81/74
f 76/83/76 80/87/80 79/86/79
f 72/79/72 81/88/81 75/82/75
f 78/85/78 82/89/82 77/84/77
f 78/85/78 83/90/83 82/89/82
f 78/85/78 84/91/84 83/90/83
f 84/91/84 74/81/74 79/86/79
f 84/91/84 79/86/79 83/90/83
f 80/87/80 85/92/85 79/86/79
f 80/87/80 86/93/86 85/92/85
f 75/82/75 81/88/81 86/93/86
f 82/89/82 83/90/83 87/94/87
f 79/86/79 85/92/85 87/94/87
f 79/86/79 87/94/87 83/90/83
f 81/88/81 88/95/88 86/93/86
f 88/95/88 85/92/85 86/93/86
f 88/95/88 87/94/87 85/92/85
f 89/96/89 90/97/90 91/98/91
f 89/96/89 92/99/92 90/97/90
f 89/96/89 91/98/91 93/100/93
f 89/96/89 94/97/94 92/99/92
f 89/96/89 93/100/93 95/98/95
f 89/96/89 95/98/95 94/97/94
f 90/97/90 96/101/96 91/98/91
f 91/98/91 96/101/96 93/100/93
f 95/98/95 97/101/97 94/97/94
f 95/98/95 93/100/93 97/101/97
f 98/102/98 99/103/99 100/104/100
f 98/102/98 101/105/101 99/103/99
f 98/102/98 100/104/100 102/103/102
f 98/102/98 103/106/103 101/105/101
f 98/102/98 102/103/102 104/105/104
f 98/102/98 104/105/104 103/106/103
f 99/103/99 105/107/105 100/104/100
f 99/103/99 101/105/101 90/108/90
f 99/103/99 90/108/90 105/107/105
f 102/103/102 94/108/94 104/105/104
f 102/103/102 100/104/100 106/107/106
f 102/103/102 106/107/106 94/108/94
f 101/105/101 107/109/107 90/108/90
f 105/107/105 108/110/108 100/104/100
f 105/107/105 90/108/90 92/111/92
f 105/107/105 92/111/92 108/110/108
f 106/107/106 92/111/92 94/108/94
f 106/107/106 100/104/100 108/110/108
f 106/107/106 108/110/108 92/111/92
f 104/105/104 94/108/94 109/109/109
f 107/109/107 96/112/96 90/108/90
f 107/109/107 93/113/93 96/112/96
f 107/109/107 110/114/110 93/113/93
f 110/114/110 109/109/109 93/113/93
f 94/108/94 97/112/97 109/109/109
f 109/109/109 97/112/97 93/113/93
f 111/115/111 103/116/103 112/117/112
f 111/115/111 113/117/113 103/116/103
f 111/115/111 112/117/112 114/118/114
f 111/115/111 115/118/115 113/117/113
f 111/115/111 114/118/114 110/119/110
f 111/115/111 110/119/110 115/118/115
f 103/116/103 104/120/104 112/117/112
f 103/116/103 113/117/113 101/120/101
f 114/118/114 109/121/109 110/119/110
f 115/118/115 110/119/110 107/121/107
f 104/120/104 116/122/116 112/117/112
f 104/120/104 109/123/109 116/122/116
f 113/117/113 117/122/117 101/120/101
f 117/122/117 107/123/107 101/120/101
f 118/124/118 119/125/119 120/126/120
f 118/124/118 121/127/121 119/125/119
f 118/124/118 122/128/100 121/127/121
f 118/124/118 123/127/122 122/128/100
f 118/124/118 124/125/123 123/127/122
f 118/124/118 125/126/124 124/125/123
f 124/125/123 125/126/124 123/127/122
f 119/125/119 121/127/121 120/126/120
f 122/128/100 123/127/122 126/129/125
f 122/128/100 126/129/125 121/127/121
f 115/130/115 127/131/126 128/132/127
f 115/130/115 129/133/128 127/131/126
f 115/130/115 128/132/127 130/134/129
f 115/130/115 107/135/107 129/133/128
f 115/130/115 130/134/129 131/136/130
f 115/130/115 131/136/130 113/137/113
f 131/136/130 130/134/129 113/137/113
f 127/131/126 117/138/131 128/132/127
f 127/131/126 129/133/128 117/138/131
f 117/138/131 129/133/128 107/135/107
f 117/138/131 113/137/113 130/134/129
f 117/138/131 130/134/129 128/132/127
f 114/130/114 132/136/132 133/134/133
f 114/130/114 112/137/112 132/136/132
f 114/130/114 133/134/133 134/132/134
f 114/130/114 134/132/134 135/131/135
f 114/130/114 135/131/135 136/133/136
f 114/130/114 136/133/136 109/135/109
f 132/136/132 112/137/112 133/134/133
f 134/132/134 116/138/137 135/131/135
f 134/132/134 133/134/133 116/138/137
f 116/138/137 136/133/136 135/131/135
f 116/138/137 109/135/109 136/133/136
f 116/138/137 133/134/133 112/137/112
f 137/139/138 138/140/139 139/141/140
f 137/139/138 140/142/141 138/140/139
f 137/139/138 139/141/140 141/143/142
f 137/139/138 142/144/143 140/142/141
f 137/139/138 141/143/142 142/144/143
f 138/140/139 143/139/144 139/141/140
f 138/140/139 140/142/141 143/139/144
f 143/139/144 141/143/142 139/141/140
f 143/139/144 142/144/143 141/143/142
f 143/139/144 140/142/141 142/144/143
f 144/145/145 145/146/146 146/147/147
f 144/145/145 147/148/148 145/146/146
f 144/145/145 146/147/147 148/149/149
f 144/145/145 148/149/149 147/148/148
f 145/146/146 149/145/150 146/147/147
f 145/146/146 147/148/148 149/145/150
f 149/145/150 148/149/149 146/147/147
f 149/145/150 147/148/148 148/149/149
f 31/150/31 39/151/39 28/152/28
f 22/152/22 49/151/49 23/150/23
vt 0.215315 0.764415
vt 0.080707 0.997012
vt 0.404716 0.979259
vt 0.941979 0.969299
vt 0.907483 0.764401
vt 0.0808974 0.996973
o merged_1_0_node
g polygon_0
usemtl TEX_ANIM_EYE_mat_id
f 63/153/63 74/154/74 84/155/84
f 63/153/63 84/155/84 78/156/78
f 86/156/86 67/153/67 75/157/75
f 86/156/86 80/155/80 67/153/67
f 80/155/80 76/158/76 67/153/67
f 78/156/78 73/157/73 63/153/63
