mtllib Dustox_M.mtl
v 0 0.106348 -0.131693
vt 0.236561 0.934485
vn 0 -0.7071068 -0.7071068
v -0.114404 -0.0120648 -0.196187
vn 0.6970969 -0.3255759 -0.6387929
v -0.0976178 0.0534301 -0.183837
vn 0.6056111 -0.5668221 -0.5585231
v -0.0789745 0.0131578 -0.142966
vn 0.4899498 -0.3169768 -0.8120806
v -0.114404 0.0401153 -0.249142
vn 0.6970971 -0.6435251 -0.316119
v -0.0707054 -0.0542794 -0.153345
vn 0.43083 -0.0683496 -0.899841
v -0.0789745 0.0937024 -0.224707
vn 0.4899501 -0.8166671 -0.304965
v -0.0301656 -0.0117318 -0.117706
vn 0.187144 -0.162564 -0.968788
v -0.0707054 0.0823299 -0.291984
vn 0.4308301 -0.9007512 -0.05507081
v 0 -0.0704039 -0.136981
vn 0 0.02990229 -0.9995528
v -0.0301656 0.118592 -0.249967
vn 0.187144 -0.9710802 -0.148258
v 0.0301656 -0.0117318 -0.117706
vn -0.187144 -0.162564 -0.968788
v 0 0.0984544 -0.308348
vn 0 -0.9990031 0.0446411
v 0.0707054 -0.0542794 -0.153345
vn -0.43083 -0.0683495 -0.899841
v 0.0301656 0.118592 -0.249967
vn -0.187144 -0.9710802 -0.148258
v 0.0789745 0.0131578 -0.142966
vn -0.4899502 -0.3169771 -0.8120803
v 0.0707054 0.0823299 -0.291984
vn -0.4308301 -0.9007512 -0.05507081
v 0.114404 -0.0120648 -0.196187
vn -0.6970973 -0.3255762 -0.6387922
v 0.0789745 0.0937024 -0.224707
vn -0.4899501 -0.8166671 -0.304965
v 0.0976178 0.0534301 -0.183837
vn -0.6056117 -0.5668217 -0.5585228
v 0.114404 0.0401153 -0.249142
vn -0.6970971 -0.6435251 -0.316119
v 0 0.157694 -0.0810994
vn 0.05495102 0.7236442 0.6879822
vn 0.7321582 0.6777052 0.06826372
vn 0.2610721 0.9450402 -0.196826
vn 0.8433358 0.4375459 0.3119909
vn -0.2610721 0.9450402 -0.196826
vn 0.6834962 0.03254431 0.7292283
vn -0.6834961 0.729629 0.0217856
vn 0.2610721 -0.1828671 0.9478402
vn -0.8448476 0.3810869 0.3755068
vn -0.2610721 -0.1828671 0.9478402
vn -0.6834962 0.03254431 0.7292283
vn 0.526525 0.825267 -0.20422
vn 0.8168194 0.5511323 0.1704681
vn -0.526525 0.825267 -0.20422
vn 0 0.9453422 -0.3260801
vn 0.5265251 -0.192026 0.8281891
vn 0.851935 0.122335 0.509157
vn -0.8519346 0.1223349 0.5091578
vn -0.851935 0.510906 0.114812
vn 0 -0.3121019 0.9500486
vn -0.5265251 -0.192026 0.8281891
v 0.126946 0.455946 0.0389993
vt 0.352538 0.884714
vn 0.6452012 0.7564802 -0.107019
v 0.187348 0.339557 -0.0616088
vt 0.402437 0.516832
vn 0.8625213 0.3390761 -0.3756121
v 0.111246 0.370539 -0.0925914
vt 0.31248 0.516832
vn 0.3920151 0.6267192 -0.6734592
v 0.205403 0.316812 0.0793946
vt 0.417353 0.71732
vn 0.9615778 0.194124 0.194124
v 0 0.487295 -0.0150724
vt 0.247664 0.846192
vn 0 0.8854551 -0.464725
v 0.115787 0.420762 0.183345
vt 0.343319 1.06978
vn 0.6937938 0.5092398 0.5092398
v 0 0.516133 0.122213
vt 0.247664 1.12783
vn 0 0.9888983 0.1485941
v 0.117299 0.211375 -0.191928
vt 0.344568 0.0785874
vn 0.6239337 0.1277209 -0.7709696
v 0.195994 0.177802 -0.0596158
vt 0.40958 0.245982
vn 0.9472001 -0.226729 -0.226729
v -0.126946 0.455946 0.0389993
vt 0.142791 0.884714
vn -0.6452012 0.7564802 -0.107019
v 0 0.38839 -0.110442
vt 0.247664 0.516832
vn 0 0.6765071 -0.7364361
v -0.111246 0.370539 -0.0925914
vt 0.182849 0.516832
vn -0.3920151 0.6267192 -0.6734592
v 0 0.466814 0.229397
vt 0.247664 1.22593
vn 0 0.7071068 0.7071068
v 0 0.359631 0.278716
vn 0 0.1485941 0.9888983
v 0.187348 0.175809 0.102139
vn 0.8519008 -0.3907319 0.3487029
v 0 0.263122 -0.220952
vt 0.247664 0.117109
vn 0 0.403556 -0.914955
v 0.102634 0.0669342 -0.170483
vt 0.332453 -0.129933
vn 0.69996 -0.505003 -0.505003
v 0 0.0971032 -0.237418
vt 0.247664 -0.192263
vn 0 -0.154497 -0.9879932
v -0.115787 0.420762 0.183345
vt 0.152009 1.06978
vn -0.6937938 0.5092398 0.5092398
v -0.187348 0.339557 -0.0616088
vt 0.0928913 0.516832
vn -0.8625213 0.3390761 -0.3756121
v -0.205403 0.316812 0.0793946
vt 0.0779756 0.71732
vn -0.9615778 0.194124 0.194124
v 0.117299 0.0454896 -0.0260422
vn 0.6275048 -0.7720428 0.100934
v 0.078457 0.112441 0.165507
vn 0.351617 -0.6858081 0.637207
v -0.117299 0.211375 -0.191928
vt 0.150761 0.0785874
vn -0.6239337 0.1277209 -0.7709696
v 0 0.0386229 -0.198795
vt 0.247664 -0.225927
v -0.102634 0.0669342 -0.170483
vt 0.162875 -0.129933
vn -0.69996 -0.505003 -0.505003
v -0.195994 0.177802 -0.0596158
vt 0.0857487 0.245982
vn -0.9472001 -0.226729 -0.226729
v -0.187348 0.175809 0.102139
vn -0.8519008 -0.3907319 0.3487029
v 0 0.0164657 0.0257041
vn 0 -0.9444281 0.328718
v -0.078457 0.112441 0.165507
vn -0.351617 -0.6858081 0.637207
v 0 0 -0.140314
vn 0 -0.9879932 -0.154497
v -0.117299 0.0454896 -0.0260422
vn -0.6275048 -0.7720428 0.100934
v 0.257868 0.514666 0.240246
vt 0.869437 0.256513
vn 0.886296 -0.418588 -0.19815
v 0.183964 0.585246 0.181402
vt 0.732014 0.256513
vn 0 0.42786 -0.903845
v 0.247832 0.660043 0.309065
vt 0.732014 0.473702
vn 0.46312 0.801074 0.37921
v 0.120097 0.439095 0.204473
vt 0.732014 0.0288875
vn -0.46312 -0.801074 -0.37921
v 0.183964 0.513892 0.332135
vn 0 -0.42786 0.903845
v 0.110061 0.584473 0.273291
vt 0.60034 0.256513
vn -0.886296 0.418588 0.19815
v -0.257868 0.514665 0.240246
vt 0.600314 0.256513
vn -0.8862955 -0.4185888 -0.1981509
v -0.247832 0.660043 0.309064
vt 0.732014 0.473854
vn -0.46312 0.801074 0.37921
v -0.183965 0.585246 0.181402
v -0.183965 0.513892 0.332135
v -0.120097 0.439095 0.204473
vt 0.732014 0.0287348
vn 0.46312 -0.801074 -0.37921
v -0.110061 0.584473 0.273291
vt 0.869463 0.256513
vn 0.8862955 0.4185888 0.1981509
v 0.154065 0.0683352 0.0801435
vt 0.936916 0.81589
vn 0.974531 -0.143018 0.172729
v 0.0537189 0.019277 0.0931471
vt 0.611255 0.577573
vn -0.7024635 -0.6358705 0.3197088
v 0.0773957 0.0906877 -0.00955153
vt 0.688095 0.945837
vn -0.3841069 0.231601 -0.8937689
v 0.0773957 0.16213 0.115595
vt 0.688095 0.946055
vn -0.352031 0.842213 0.408352
v 0.154065 0.026649 0.00887921
vt 0.936916 0.8138
v 0.0537189 -0.0224091 0.0218828
vt 0.611255 0.575484
v 0.0773957 0.0490016 -0.0808158
vt 0.688095 0.943748
v 0.0773957 0.120444 0.044331
vt 0.688095 0.943966
v -0.154065 0.0683352 0.0801435
vt 0.938747 0.81589
vn -0.974531 -0.143018 0.172729
v -0.0773957 0.0906877 -0.00955153
vt 0.689925 0.945837
vn 0.3841071 0.2316 -0.8937691
v -0.0537189 0.019277 0.0931471
vt 0.613085 0.577573
vn 0.702463 -0.635871 0.319709
v -0.0773957 0.16213 0.115595
vt 0.689925 0.946055
vn 0.352031 0.842213 0.408352
v -0.154065 0.0266491 0.00887918
vt 0.938747 0.813801
v -0.0773957 0.0490016 -0.0808158
vt 0.689925 0.943748
v -0.0537189 -0.0224091 0.0218828
vt 0.613085 0.575484
v -0.0773957 0.120444 0.044331
vt 0.689925 0.943966
o merged_0_0_node
g polygon_0
usemtl mat_body1_mat_id
f 1/1/1 2/1/2 3/1/3
f 1/1/1 4/1/4 2/1/2
f 1/1/1 3/1/3 5/1/5
f 1/1/1 6/1/6 4/1/4
f 1/1/1 5/1/5 7/1/7
f 1/1/1 8/1/8 6/1/6
f 1/1/1 7/1/7 9/1/9
f 1/1/1 10/1/10 8/1/8
f 1/1/1 9/1/9 11/1/11
f 1/1/1 12/1/12 10/1/10
f 1/1/1 11/1/11 13/1/13
f 1/1/1 14/1/14 12/1/12
f 1/1/1 13/1/13 15/1/15
f 1/1/1 16/1/16 14/1/14
f 1/1/1 15/1/15 17/1/17
f 1/1/1 18/1/18 16/1/16
f 1/1/1 17/1/17 19/1/19
f 1/1/1 20/1/20 18/1/18
f 1/1/1 19/1/19 21/1/21
f 1/1/1 21/1/21 20/1/20
f 22/1/22 19/1/23 15/1/24
f 22/1/22 20/1/25 19/1/23
f 22/1/22 15/1/24 11/1/26
f 22/1/22 16/1/27 20/1/25
f 22/1/22 11/1/26 7/1/28
f 22/1/22 12/1/29 16/1/27
f 22/1/22 7/1/28 3/1/30
f 22/1/22 8/1/31 12/1/29
f 22/1/22 3/1/30 4/1/32
f 22/1/22 4/1/32 8/1/31
f 19/1/23 17/1/33 15/1/24
f 19/1/23 20/1/25 21/1/34
f 11/1/26 9/1/35 7/1/28
f 11/1/26 15/1/24 13/1/36
f 16/1/27 12/1/29 14/1/37
f 16/1/27 18/1/38 20/1/25
f 3/1/30 2/1/39 4/1/32
f 3/1/30 7/1/28 5/1/40
f 8/1/31 10/1/41 12/1/29
f 8/1/31 4/1/32 6/1/42
f 23/2/43 24/3/44 25/4/45
f 23/2/43 26/5/46 24/3/44
f 23/2/43 25/4/45 27/6/47
f 23/2/43 28/7/48 26/5/46
f 23/2/43 27/6/47 29/8/49
f 23/2/43 29/8/49 28/7/48
f 24/3/44 30/9/50 25/4/45
f 24/3/44 26/5/46 31/10/51
f 24/3/44 31/10/51 30/9/50
f 27/6/47 32/11/52 29/8/49
f 27/6/47 25/4/45 33/12/53
f 27/6/47 34/13/54 32/11/52
f 27/6/47 33/12/53 34/13/54
f 28/7/48 29/8/49 35/14/55
f 28/7/48 35/14/55 36/8/56
f 26/5/46 37/3/57 31/10/51
f 30/9/50 38/15/58 25/4/45
f 30/9/50 31/10/51 39/16/59
f 30/9/50 40/17/60 38/15/58
f 30/9/50 39/16/59 40/17/60
f 33/12/53 38/15/58 34/13/54
f 33/12/53 25/4/45 38/15/58
f 32/11/52 41/18/61 29/8/49
f 32/11/52 34/13/54 42/19/62
f 32/11/52 43/20/63 41/18/61
f 32/11/52 42/19/62 43/20/63
f 41/18/61 35/14/55 29/8/49
f 41/18/61 36/8/56 35/14/55
f 37/3/57 44/9/64 31/10/51
f 37/3/57 45/4/65 44/9/64
f 31/10/51 44/9/64 39/16/59
f 40/17/60 46/21/66 38/15/58
f 40/17/60 39/16/59 47/22/1
f 40/17/60 48/23/67 46/21/66
f 40/17/60 47/22/1 48/23/67
f 34/13/54 46/21/66 42/19/62
f 34/13/54 38/15/58 46/21/66
f 43/20/63 42/19/62 49/24/68
f 43/20/63 49/24/68 50/19/69
f 46/21/66 48/23/67 49/24/68
f 46/21/66 49/24/68 42/19/62
f 45/4/65 51/15/70 44/9/64
f 45/4/65 52/13/71 51/15/70
f 39/16/59 53/17/72 47/22/1
f 39/16/59 44/9/64 53/17/72
f 44/9/64 51/15/70 53/17/72
f 47/22/1 53/17/72 48/23/67
f 50/19/69 49/24/68 54/21/73
f 50/19/69 54/21/73 52/13/71
f 54/21/73 53/17/72 51/15/70
f 54/21/73 48/23/67 53/17/72
f 54/21/73 49/24/68 48/23/67
f 54/21/73 51/15/70 52/13/71
f 55/25/74 56/26/75 57/27/76
f 55/25/74 58/28/77 56/26/75
f 55/25/74 57/27/76 59/26/78
f 55/25/74 59/26/78 58/28/77
f 56/26/75 60/29/79 57/27/76
f 56/26/75 58/28/77 60/29/79
f 60/29/79 59/26/78 57/27/76
f 60/29/79 58/28/77 59/26/78
f 61/30/80 62/31/81 63/26/75
f 61/30/80 64/26/78 62/31/81
f 61/30/80 63/26/75 65/32/82
f 61/30/80 65/32/82 64/26/78
f 62/31/81 66/33/83 63/26/75
f 62/31/81 64/26/78 66/33/83
f 66/33/83 65/32/82 63/26/75
f 66/33/83 64/26/78 65/32/82
f 67/34/84 68/35/85 69/36/86
f 67/34/84 70/37/87 68/35/85
f 67/34/84 69/36/86 70/37/87
f 70/37/87 69/36/86 68/35/85
f 71/38/84 72/39/85 73/40/86
f 71/38/84 74/41/87 72/39/85
f 71/38/84 73/40/86 74/41/87
f 74/41/87 73/40/86 72/39/85
f 75/42/88 76/43/89 77/44/90
f 75/42/88 78/45/91 76/43/89
f 75/42/88 77/44/90 78/45/91
f 78/45/91 77/44/90 76/43/89
f 79/46/88 80/47/89 81/48/90
f 79/46/88 82/49/91 80/47/89
f 79/46/88 81/48/90 82/49/91
f 82/49/91 81/48/90 80/47/89
v 0.034193 0.1660777 -0.4066609
vt 0.104088 0.0181369
vn -0.8191594 0.4055807 -0.4055641
v 1.055896E-06 0.2727209 -0.2309673
vt 0 0.366766
v 0.1866851 0.3845353 -0.4961874
vt 0.568352 0.177346
v -2.027755E-06 0.4194927 -0.08419579
vt 0 0.729235
v 0.2987922 0.6383334 -0.4688113
vt 0.90967 0.524544
v 0.01843256 0.4922602 -0.04866147
vt 0.0561273 0.862968
v 0.3284582 0.8534731 -0.3135945
vt 1 0.981863
vn 0.8191594 -0.4055807 0.4055641
v -0.034193 0.1660777 -0.4066609
vn 0.8191594 0.4055807 -0.4055641
v -0.1866851 0.3845343 -0.4961875
v -1.056896E-06 0.272721 -0.2309673
v 2.026754E-06 0.4194928 -0.08419581
v -0.2987922 0.6383334 -0.4688113
v -0.01843256 0.4922602 -0.04866149
v -0.3284582 0.8534731 -0.3135945
vn -0.8191594 -0.4055807 0.4055641
o merged_1_0_node
g polygon_0
usemtl mat_wing1_mat_id
f 83/50/92 84/51/92 85/52/92
f 86/53/92 87/54/92 85/52/92
f 85/52/92 84/51/92 86/53/92
f 88/55/92 87/54/92 86/53/92
f 89/56/92 87/54/92 88/55/92
f 83/50/93 85/52/93 84/51/93
f 87/54/93 88/55/93 86/53/93
f 84/51/93 85/52/93 86/53/93
f 86/53/93 85/52/93 87/54/93
f 87/54/93 89/56/93 88/55/93
f 90/50/94 91/52/94 92/51/94
f 93/53/94 91/52/94 94/54/94
f 91/52/94 93/53/94 92/51/94
f 95/55/94 93/53/94 94/54/94
f 96/56/94 95/55/94 94/54/94
f 90/50/95 92/51/95 91/52/95
f 94/54/95 93/53/95 95/55/95
f 92/51/95 93/53/95 91/52/95
f 93/53/95 94/54/95 91/52/95
f 94/54/95 95/55/95 96/56/95
vt -0.372142 0.749195
v 0 0.222345 0.249878
vt -0.000186712 0.866759
vn 0 -0.3775181 0.9260022
v -0.126946 0.276417 0.218528
vt -0.46809 0.90874
vn -0.6479411 -0.07937691 0.7575431
vt -0.867904 0.794933
v 0.126946 0.276417 0.218528
vt 0.468004 0.908539
vn 0.6479411 -0.07937682 0.7575431
vt 0.370959 0.749035
vt 0.867035 0.794561
vt 1.04321 0.920968
vt 0.590638 1.0367
vt 0.000266254 0.998718
vt -1.04321 0.921416
vt -0.589844 1.03695
o merged_2_0_node
g polygon_0
usemtl TEX_ANIM_EYE_mat_id
f 52/57/71 97/58/96 98/59/97
f 98/59/97 50/60/69 52/57/71
f 99/61/98 45/62/65 37/63/57
f 99/61/98 37/63/57 26/64/46
f 99/61/98 28/65/48 36/66/56
f 26/64/46 28/65/48 99/61/98
f 99/61/98 36/66/56 97/58/96
f 97/58/96 36/66/56 98/59/97
f 45/62/65 97/58/96 52/57/71
f 99/61/98 97/58/96 45/62/65
f 43/67/63 50/60/69 98/59/97
f 43/67/63 98/59/97 41/68/61
f 41/68/61 98/59/97 36/66/56
