mtllib Magneton.mtl
v 0.3002 0.612411 0.08688369
vt 0.117717 0.549366
vn 0.275355 -0.0396164 -0.960526
v 0.229821 0.545101 0.0694844
vt -0.0182315 0.549366
v 0.269728 0.6468979 0.076726
vt 0.117717 0.600518
v 0.199349 0.5795879 0.0593266
vt -0.0182315 0.600518
v 0.239256 0.681384 0.0665682
vt 0.117717 0.65167
v 0.168878 0.614074 0.0491689
vt -0.0182315 0.65167
v 0.208784 0.715871 0.0564104
vt 0.117717 0.702821
v 0.138406 0.648561 0.0390111
vt -0.0182315 0.702821
v 0.152583 0.53486 0.0477648
vt -0.128215 0.600518
v 0.122111 0.569347 0.037607
vt -0.128215 0.65167
v 0.294514 0.6132289 0.106718
vn -0.275355 0.0396165 0.960526
v 0.264042 0.647716 0.09656029
v 0.224135 0.5459189 0.0893188
v 0.193663 0.580406 0.079161
v 0.23357 0.682202 0.08640249
v 0.203098 0.716689 0.07624479
v 0.163192 0.6148919 0.0690032
v 0.13272 0.649379 0.0588455
v 0.146897 0.535678 0.0675991
v 0.116425 0.570165 0.0574414
vn 0.7114213 0.6804013 0.1758801
vn -0.6465749 0.731768 -0.215538
vn -0.277752 0.9532611 -0.118942
vn 0.4258618 -0.8907396 0.1588229
vn 0.6465749 -0.731768 0.215538
vn -0.817371 0.516302 -0.255611
vn 0.8896912 -0.368004 0.270227
vn -0.213652 -0.9766849 -0.0209634
vn -0.9533938 -0.139474 -0.267558
v 0.437 0.463352 0.0197018
vn -0.7459418 0.4372669 0.5023629
v 0.373285 0.3975 -0.0175873
v 0.444992 0.434853 0.0563755
v 0.381277 0.369001 0.0190865
v 0.452984 0.406353 0.0930492
v 0.389269 0.340502 0.0557601
v 0.460976 0.377854 0.129723
v 0.397261 0.312002 0.0924338
v 0.338939 0.325242 -0.005692129
v 0.346931 0.296743 0.0309815
v 0.452403 0.454323 0.00932825
vn 0.7459418 -0.4372669 -0.5023629
v 0.460395 0.425824 0.046002
v 0.388688 0.388471 -0.0279608
v 0.39668 0.359972 0.00871294
v 0.468387 0.397324 0.0826757
v 0.476379 0.368825 0.119349
v 0.404672 0.331472 0.0453866
v 0.412665 0.302973 0.08206029
v 0.354342 0.316213 -0.0160656
v 0.362334 0.287714 0.020608
vn 0.6440601 0.6656631 0.3769341
vn 0.169582 -0.6047232 0.7781721
vn 0.4300958 -0.2596489 0.8646387
vn -0.3402559 0.3982168 -0.8518506
vn -0.169583 0.6047242 -0.7781711
vn -0.0141836 -0.7645438 0.6444158
vn 0.123902 0.8322279 -0.540412
vn -0.6252807 -0.2000609 -0.7543207
vn -0.4312619 -0.8919207 0.13598
v 0.174171 -0.13845 -0.00148174
vn -0.311505 -0.438217 -0.8431669
v 0.161951 -0.0495686 -0.0431616
v 0.218574 -0.139727 -0.0172227
v 0.206355 -0.0508456 -0.0589026
v 0.262977 -0.141004 -0.0329636
v 0.250758 -0.0521225 -0.0746435
v 0.307381 -0.142281 -0.0487045
v 0.295161 -0.05339929 -0.0903844
v 0.198235 0.00821647 -0.0865989
v 0.242638 0.00693956 -0.10234
v 0.180603 -0.129401 0.0159292
vn 0.311505 0.438217 0.8431669
v 0.225007 -0.130678 0.000188246
v 0.168384 -0.0405197 -0.0257507
v 0.212787 -0.0417966 -0.04149169
v 0.26941 -0.131955 -0.0155527
v 0.313813 -0.133232 -0.0312936
v 0.25719 -0.0430735 -0.0572326
v 0.301593 -0.0443504 -0.0729735
v 0.204667 0.0172654 -0.069188
v 0.24907 0.0159885 -0.08492889
vn 0.1235209 -0.8984606 0.4213208
vn 0.9421825 -0.02709421 -0.3340032
vn 0.9037166 -0.4108728 -0.120332
vn -0.9398007 0.2732689 0.2051799
vn -0.9421825 0.02709401 0.3340032
vn 0.8718243 0.2211711 -0.4370421
vn -0.7974681 -0.3619511 0.4827381
vn -0.6402867 0.7524356 -0.1545109
vn 0.4376571 0.7214372 -0.5366421
v -0.299815 0.611961 0.0585108
vn -0.0115361 0.329498 -0.9440858
v -0.269888 0.6464459 0.0701809
v -0.223402 0.552936 0.0369766
v -0.193475 0.587422 0.0486468
v -0.239961 0.6809319 0.0818511
v -0.210034 0.715417 0.09352119
v -0.163548 0.621907 0.060317
v -0.133622 0.656392 0.07198709
v -0.142699 0.5482 0.0343374
v -0.112772 0.582685 0.0460075
v -0.299577 0.605157 0.07800559
vn 0.0115358 -0.329498 0.9440858
v -0.223164 0.546132 0.0564715
v -0.26965 0.639642 0.0896758
v -0.193237 0.580618 0.0681417
v -0.239723 0.674128 0.101346
v -0.16331 0.6151029 0.0798118
v -0.209796 0.7086129 0.113016
v -0.133383 0.649588 0.09148199
v -0.142461 0.541396 0.0538322
v -0.112534 0.575881 0.0655024
vn -0.7724147 0.5966508 0.2176769
vn 0.635014 0.731736 0.247628
vn 0.241082 0.9172129 0.317175
vn -0.397963 -0.8676652 -0.2979641
vn -0.6350138 -0.7317368 -0.247626
vn 0.8230383 0.5393172 0.1781711
vn -0.9054859 -0.403995 -0.129936
vn 0.270294 -0.9079728 -0.3201979
vn 0.9968083 -0.07079802 -0.03688981
v -0.430773 0.465248 0.03236759
vn 0.6957498 0.3194789 0.6433238
v -0.444445 0.432524 0.0634045
v -0.365769 0.401457 -0.00625522
v -0.379441 0.368733 0.0247817
v -0.458117 0.3998 0.0944414
v -0.471789 0.367076 0.125478
v -0.393113 0.33601 0.0558185
v -0.406784 0.303286 0.0868553
v -0.336245 0.326345 -0.000883257
v -0.349917 0.293621 0.0301536
v -0.44514 0.458651 0.0190834
vn -0.69575 -0.319478 -0.643324
v -0.380136 0.39486 -0.0195395
v -0.458812 0.425927 0.0501202
v -0.393808 0.362136 0.0114974
v -0.472484 0.393203 0.0811571
v -0.407479 0.329413 0.04253419
v -0.486156 0.360479 0.112194
v -0.421151 0.296689 0.073571
v -0.350612 0.319748 -0.0141675
v -0.364284 0.287024 0.0168693
vn -0.6570948 0.6448258 0.3904179
vn -0.2901011 -0.6943592 0.6585642
vn -0.5445062 -0.3495311 0.7624573
vn 0.4597093 0.4901253 -0.7405705
vn 0.290102 0.694359 -0.658564
vn -0.09809671 -0.8449851 0.525716
vn -0.02070498 0.9041874 -0.4266337
vn 0.7049149 -0.131694 -0.6969589
vn 0.3730119 -0.9261047 0.05649978
v -0.173732 -0.14716 -0.0275836
vn -0.08268186 -0.4327309 -0.8977236
v -0.220574 -0.142385 -0.0255712
v -0.166561 -0.0585404 -0.0709615
v -0.213403 -0.0537651 -0.0689491
v -0.267417 -0.137609 -0.0235588
v -0.314259 -0.132834 -0.0215464
v -0.260246 -0.04898969 -0.0669367
v -0.307088 -0.0442143 -0.0649243
v -0.208638 0.005122759 -0.09777369
v -0.255481 0.009898099 -0.09576129
v -0.172025 -0.138224 -0.00904605
vn 0.08268203 0.4327312 0.8977234
v -0.164854 -0.0496048 -0.052424
v -0.218867 -0.133449 -0.00703366
v -0.211696 -0.0448294 -0.0504116
v -0.265709 -0.128674 -0.00502126
v -0.258538 -0.0400541 -0.0483992
v -0.312551 -0.123898 -0.00300887
v -0.305381 -0.0352787 -0.0463868
v -0.206931 0.0140584 -0.07923619
v -0.253773 0.0188338 -0.07722379
vn -0.07248608 -0.8958107 0.4384848
vn -0.9939362 0.101328 0.04270041
vn -0.9284905 -0.2937952 0.2271341
vn 0.9755141 0.149075 -0.161706
vn 0.9939362 -0.101328 -0.04270092
vn -0.9356239 0.343906 -0.0796022
vn 0.8661405 -0.4767497 0.1500349
vn 0.628032 0.6767989 -0.384082
vn -0.5091251 0.7927252 -0.3352291
v 0.164745 0.439326 0.149283
vt 0.350947 0.663369
vn 0.8506509 0 0.525731
v 0.101818 0.274581 0.0474654
vt 0.336631 0.686533
vn 0.525731 -0.8506509 0
v 0.164745 0.439326 -0.0543525
vt 0.350947 0.709697
vn 0.8506509 0 -0.525731
v 0.101818 0.604071 0.0474654
vn 0.525731 0.8506509 0
v 0 0.337508 -0.11728
vt 0.313467 0.724013
vn 0 -0.525731 -0.8506509
v 0 0.541144 -0.11728
vn 0 0.525731 -0.8506509
v 0 0.337508 0.21221
vt 0.313467 0.649053
vn 0 -0.525731 0.8506509
v 0 0.541144 0.21221
vn 0 0.525731 0.8506509
v -0.164745 0.439326 -0.0543525
vt 0.275987 0.709697
vn -0.8506509 0 -0.525731
v -0.101818 0.274581 0.0474654
vt 0.290303 0.686533
vn -0.525731 -0.8506509 0
v -0.164745 0.439326 0.149283
vt 0.275987 0.663369
vn -0.8506509 0 0.525731
v -0.101818 0.604071 0.0474654
vn -0.525731 0.8506509 0
v 0.357473 0.113322 0.0498426
vn 0.773564 -0.446617 0.449591
v 0.213126 0.00642957 -0.0461035
vn 0.02823859 -0.9985505 -0.04582048
v 0.342103 0.122196 -0.153018
vn 0.6941999 -0.4007969 -0.5978699
v 0.377871 0.291776 -0.0461035
vn 0.8788895 0.4748197 -0.04582048
v 0.144314 0.11882 -0.201348
vn -0.3270719 -0.4182269 -0.8474138
v 0.246132 0.295174 -0.201348
vn 0.198659 0.492366 -0.847414
v 0.169183 0.104462 0.126889
vn -0.198659 -0.492366 0.847414
v 0.271001 0.280816 0.126889
vn 0.3270719 0.4182269 0.8474138
v 0.057842 0.286314 -0.124302
vn -0.773564 0.446617 -0.449591
v 0.0374436 0.10786 -0.0283555
vn -0.8788893 -0.4748201 0.04582052
v 0.0732122 0.27744 0.0785595
vn -0.6941999 0.4007969 0.5978699
v 0.202189 0.393207 -0.0283555
vn -0.02823849 0.9985505 0.04582048
v -0.0732122 0.27744 0.0785595
vn 0.6941999 0.4007969 0.5978699
v -0.0374436 0.10786 -0.0283555
vn 0.8788893 -0.4748201 0.04582052
v -0.057842 0.286314 -0.124302
vn 0.773564 0.446617 -0.449591
v -0.202189 0.393207 -0.0283555
vn 0.02823839 0.9985505 0.04582048
v -0.144314 0.11882 -0.201348
vn 0.3270719 -0.4182269 -0.8474138
v -0.246132 0.295174 -0.201348
vn -0.198659 0.492366 -0.847414
v -0.169183 0.104462 0.126889
vn 0.198659 -0.492366 0.847414
v -0.271001 0.280816 0.126889
vn -0.3270719 0.4182269 0.8474138
v -0.342103 0.122196 -0.153018
vn -0.6941999 -0.4007969 -0.5978699
v -0.213126 0.00642957 -0.0461035
vn -0.02823861 -0.9985505 -0.04582052
v -0.357473 0.113322 0.0498426
vn -0.773564 -0.446617 0.449591
v -0.377871 0.291776 -0.0461035
vn -0.8788894 0.4748197 -0.04582058
v 0 0.644293 -0.0113555
vt 0.814938 0.593931
vn 0 -1 0
v 0.0606605 0.644293 0.049305
vt 0.775364 0.554357
v -0.0606605 0.644293 0.049305
vt 0.854512 0.554357
v 0 0.644293 0.109965
vt 0.814938 0.514783
vt 0.997952 0.992413
vn 0 0.8518149 0.5238429
vt 0.75553 0.749991
v 0 0.681597 0.049305
vt 0.997952 0.749991
vn 0 1 0
vt 0.997952 0.507569
vn 0 0.8518156 -0.5238417
v 0 0.644831 0.0206527
vt 0.747482 0.497145
vn 0 -0.2343341 -0.9721562
v 0.0286522 0.644831 0.049305
vt 0.623452 0.497145
vn 0.9721562 -0.2343341 0
v 0 0.525964 0.049305
vt 0.68611 -0.0576405
v 0 0.644831 0.0779572
vt 0.499423 0.497145
vn 0 -0.2343341 0.9721562
vt 0.559546 -0.0576405
vt 0.995542 0.497145
v -0.0286522 0.644831 0.049305
vt 0.871512 0.497145
vn -0.9721562 -0.2343341 0
vt 0.939238 -0.0576405
vt 0.816509 -0.0576405
v 0.35613 0.042179 -0.0538967
vn -0.8627301 0.498097 0.0871558
v 0.390006 0.0898747 0.00884834
v 0.383226 0.0992634 -0.111919
v 0.417102 0.146959 -0.0491737
vn 0.9981527 0.02813439 -0.05384739
vn 0.7641602 -0.4648261 0.4472091
v 0.4188 0.0759878 -0.0547865
vn 0.8627301 -0.498097 -0.08715561
vn 0.4716209 -0.8767087 -0.09463368
vn 0.7056134 -0.3837482 -0.5956904
v 0.372681 0.0695552 -0.0526975
vn -0.6907412 -0.7228922 -0.0174222
v 0.388681 0.0920836 -0.0230607
vn -0.1478409 0.04148829 0.9881406
v 0.284531 0.153508 -0.0412222
v 0.40148 0.119047 -0.0504666
vn 0.2864068 0.9563345 0.05826958
v 0.385479 0.0965183 -0.0801035
vn -0.2564931 0.1919541 -0.9472935
v -0.357326 0.0426564 -0.0573341
vn 0.8627297 0.4980978 0.08715576
v -0.386386 0.102473 -0.111527
v -0.389532 0.0868777 0.00874607
v -0.418593 0.146694 -0.0454471
vn -0.9994266 0.02492819 -0.02291499
vn -0.7213002 -0.3569501 -0.5935593
v -0.420143 0.0760939 -0.0546419
vn -0.8627301 -0.498097 -0.08715591
vn -0.4703468 -0.8735027 -0.125567
vn -0.7484729 -0.4916239 0.4450779
v -0.373954 0.0698367 -0.0542448
vn 0.6931052 -0.7169422 -0.07482761
v -0.38768 0.0980901 -0.0798423
vn 0.227381 0.241685 -0.9433379
v -0.285874 0.153614 -0.0410776
v -0.402893 0.118978 -0.0486302
vn -0.2887711 0.9503844 0.115675
v -0.389167 0.090724 -0.0230327
vn 0.176953 -0.008243149 0.9841848
v 0.106691 0.301162 0.265975
vn -0.0868244 -0.0871552 -0.9924039
v 0.0644092 0.343124 0.265989
v 0.148333 0.343124 0.258647
v 0.106051 0.385086 0.258661
vn 0.06997861 0.5960891 0.799863
vn -0.4478889 0.07424037 0.8910017
v 0.10862 0.345382 0.288025
vn 0.086824 0.0871555 0.9924039
vn 0.07793754 -0.4476072 0.8908274
vn 0.5958052 0.07424043 0.7996903
v 0.106572 0.317381 0.264608
vt 0.250701 0.497145
vn -0.011025 -0.9919667 -0.126018
v 0.0806277 0.343128 0.264617
vt 0.126671 0.497145
vn -0.9918962 -0.0185179 -0.125694
v 0.0960549 0.332769 0.144401
vt 0.189329 -0.100564
v 0.106179 0.368876 0.26012
vt 0.00264143 0.497145
vn -0.0258704 0.9549302 -0.2957011
vt 0.062765 -0.100564
vt 0.49876 0.497145
v 0.132123 0.343128 0.260111
vt 0.37473 0.497145
vn 0.9550007 -0.01851839 -0.2960249
vt 0.442456 -0.100564
vt 0.319728 -0.100564
v -0.106675 0.301162 0.265975
vn 0.0868244 -0.0871551 -0.9924039
v -0.148317 0.343124 0.258647
v -0.064393 0.343124 0.265989
v -0.106035 0.385086 0.258661
vn -0.06997861 0.5960891 0.799863
vn -0.5958052 0.07424083 0.7996902
v -0.108604 0.345382 0.288025
vn -0.08682409 0.08715569 0.9924039
vn -0.07793764 -0.4476072 0.8908274
vn 0.4478889 0.07424037 0.8910017
v -0.106555 0.317381 0.264608
vn 0.0110251 -0.9919667 -0.126018
v -0.132107 0.343128 0.260111
vn -0.9550007 -0.01851789 -0.2960249
v -0.0960387 0.332769 0.144401
v -0.106163 0.368876 0.26012
vn 0.02587031 0.9549305 -0.2957002
v -0.0806115 0.343128 0.264617
vn 0.9918962 -0.0185183 -0.125694
v 0.100638 0.0906162 0.223489
vn -0.0882614 0.229785 -0.969231
v 0.0588287 0.130892 0.236845
v 0.142744 0.132318 0.229542
v 0.100934 0.172594 0.242898
vn 0.07702374 0.3140121 0.9462895
vn -0.4466108 -0.2046019 0.8710206
v 0.103073 0.125653 0.2583
vn 0.0882613 -0.229785 0.969231
vn 0.07334119 -0.7054809 0.7049239
vn 0.5969751 -0.186867 0.7801932
v 0.1007 0.106444 0.227284
vn -0.02218741 -0.9020523 -0.4310561
v 0.0750455 0.131157 0.235479
vn -0.9921004 0.03228302 -0.1212211
v 0.0902992 0.158908 0.118029
v 0.100881 0.156745 0.239193
vn -0.01531869 0.9996986 0.01918469
v 0.126536 0.132032 0.230998
vn 0.9545943 0.06536321 -0.2906501
v -0.0998734 0.0896194 0.221951
vn 0.09118336 0.2577419 -0.9619016
v -0.14182 0.1313 0.229143
v -0.0579265 0.129312 0.236563
v -0.0998734 0.170993 0.243755
vn -0.07767116 0.2864439 0.9549435
vn -0.5993297 -0.2071859 0.7732257
v -0.102235 0.12363 0.25777
vn -0.09118299 -0.257741 0.9619019
vn -0.07767129 -0.7255399 0.6837829
vn 0.4439868 -0.2319109 0.8655016
v -0.0998776 0.105329 0.226208
vn 0.01937389 -0.8891077 -0.4572878
v -0.125616 0.130904 0.230621
vn -0.9537223 0.07782432 -0.2904431
v -0.089039 0.160931 0.11856
v -0.0998776 0.15526 0.239587
v -0.0741393 0.129685 0.235174
vn 0.9924701 0.0317018 -0.118313
o merged_0_0_node
g polygon_0
usemtl mat_body_mat_id
f 1/1/1 2/2/1 3/3/1
f 3/3/1 2/2/1 4/4/1
f 5/5/1 6/6/1 7/7/1
f 7/7/1 6/6/1 8/8/1
f 2/2/1 9/9/1 4/4/1
f 10/10/1 6/6/1 9/9/1
f 9/9/1 6/6/1 4/4/1
f 6/6/1 10/10/1 8/8/1
f 11/1/2 12/3/2 13/2/2
f 13/2/2 12/3/2 14/4/2
f 15/5/2 16/7/2 17/6/2
f 17/6/2 16/7/2 18/8/2
f 13/2/2 14/4/2 19/9/2
f 20/10/2 19/9/2 17/6/2
f 17/6/2 19/9/2 14/4/2
f 17/6/2 18/8/2 20/10/2
f 11/1/3 1/1/3 12/3/3
f 12/3/3 1/1/3 3/3/3
f 12/3/4 3/3/4 14/4/5
f 14/4/5 3/3/4 4/4/5
f 13/2/6 2/2/6 11/1/7
f 11/1/7 2/2/6 1/1/7
f 15/5/3 5/5/3 16/7/3
f 16/7/3 5/5/3 7/7/3
f 16/7/4 7/7/4 18/8/8
f 18/8/8 7/7/4 8/8/8
f 17/6/9 6/6/9 15/5/7
f 15/5/7 6/6/9 5/5/7
f 19/9/10 9/9/10 13/2/6
f 13/2/6 9/9/10 2/2/6
f 20/10/11 10/10/11 19/9/10
f 19/9/10 10/10/11 9/9/10
f 14/4/5 4/4/5 17/6/9
f 17/6/9 4/4/5 6/6/9
f 18/8/8 8/8/8 20/10/11
f 20/10/11 8/8/8 10/10/11
f 21/1/12 22/2/12 23/3/12
f 23/3/12 22/2/12 24/4/12
f 25/5/12 26/6/12 27/7/12
f 27/7/12 26/6/12 28/8/12
f 22/2/12 29/9/12 24/4/12
f 30/10/12 26/6/12 29/9/12
f 29/9/12 26/6/12 24/4/12
f 26/6/12 30/10/12 28/8/12
f 31/1/13 32/3/13 33/2/13
f 33/2/13 32/3/13 34/4/13
f 35/5/13 36/7/13 37/6/13
f 37/6/13 36/7/13 38/8/13
f 33/2/13 34/4/13 39/9/13
f 40/10/13 39/9/13 37/6/13
f 37/6/13 39/9/13 34/4/13
f 37/6/13 38/8/13 40/10/13
f 31/1/14 21/1/14 32/3/14
f 32/3/14 21/1/14 23/3/14
f 32/3/15 23/3/15 34/4/16
f 34/4/16 23/3/15 24/4/16
f 33/2/17 22/2/17 31/1/18
f 31/1/18 22/2/17 21/1/18
f 35/5/14 25/5/14 36/7/14
f 36/7/14 25/5/14 27/7/14
f 36/7/15 27/7/15 38/8/19
f 38/8/19 27/7/15 28/8/19
f 37/6/20 26/6/20 35/5/18
f 35/5/18 26/6/20 25/5/18
f 39/9/21 29/9/21 33/2/17
f 33/2/17 29/9/21 22/2/17
f 40/10/22 30/10/22 39/9/21
f 39/9/21 30/10/22 29/9/21
f 34/4/16 24/4/16 37/6/20
f 37/6/20 24/4/16 26/6/20
f 38/8/19 28/8/19 40/10/22
f 40/10/22 28/8/19 30/10/22
f 41/1/23 42/2/23 43/3/23
f 43/3/23 42/2/23 44/4/23
f 45/5/23 46/6/23 47/7/23
f 47/7/23 46/6/23 48/8/23
f 42/2/23 49/9/23 44/4/23
f 50/10/23 46/6/23 49/9/23
f 49/9/23 46/6/23 44/4/23
f 46/6/23 50/10/23 48/8/23
f 51/1/24 52/3/24 53/2/24
f 53/2/24 52/3/24 54/4/24
f 55/5/24 56/7/24 57/6/24
f 57/6/24 56/7/24 58/8/24
f 53/2/24 54/4/24 59/9/24
f 60/10/24 59/9/24 57/6/24
f 57/6/24 59/9/24 54/4/24
f 57/6/24 58/8/24 60/10/24
f 51/1/25 41/1/25 52/3/25
f 52/3/25 41/1/25 43/3/25
f 52/3/26 43/3/26 54/4/27
f 54/4/27 43/3/26 44/4/27
f 53/2/28 42/2/28 51/1/29
f 51/1/29 42/2/28 41/1/29
f 55/5/25 45/5/25 56/7/25
f 56/7/25 45/5/25 47/7/25
f 56/7/26 47/7/26 58/8/30
f 58/8/30 47/7/26 48/8/30
f 57/6/31 46/6/31 55/5/29
f 55/5/29 46/6/31 45/5/29
f 59/9/32 49/9/32 53/2/28
f 53/2/28 49/9/32 42/2/28
f 60/10/33 50/10/33 59/9/32
f 59/9/32 50/10/33 49/9/32
f 54/4/27 44/4/27 57/6/31
f 57/6/31 44/4/27 46/6/31
f 58/8/30 48/8/30 60/10/33
f 60/10/33 48/8/30 50/10/33
f 61/1/34 62/3/34 63/2/34
f 63/2/34 62/3/34 64/4/34
f 65/5/34 66/7/34 67/6/34
f 67/6/34 66/7/34 68/8/34
f 63/2/34 64/4/34 69/9/34
f 70/10/34 69/9/34 67/6/34
f 67/6/34 69/9/34 64/4/34
f 67/6/34 68/8/34 70/10/34
f 71/1/35 72/2/35 73/3/35
f 73/3/35 72/2/35 74/4/35
f 75/5/35 76/6/35 77/7/35
f 77/7/35 76/6/35 78/8/35
f 72/2/35 79/9/35 74/4/35
f 80/10/35 76/6/35 79/9/35
f 79/9/35 76/6/35 74/4/35
f 76/6/35 80/10/35 78/8/35
f 71/1/36 73/3/36 61/1/36
f 61/1/36 73/3/36 62/3/36
f 73/3/37 74/4/38 62/3/37
f 62/3/37 74/4/38 64/4/38
f 72/2/39 71/1/40 63/2/39
f 63/2/39 71/1/40 61/1/40
f 75/5/36 77/7/36 65/5/36
f 65/5/36 77/7/36 66/7/36
f 77/7/37 78/8/41 66/7/37
f 66/7/37 78/8/41 68/8/41
f 76/6/42 75/5/40 67/6/42
f 67/6/42 75/5/40 65/5/40
f 79/9/43 72/2/39 69/9/43
f 69/9/43 72/2/39 63/2/39
f 80/10/44 79/9/43 70/10/44
f 70/10/44 79/9/43 69/9/43
f 74/4/38 76/6/42 64/4/38
f 64/4/38 76/6/42 67/6/42
f 78/8/41 80/10/44 68/8/41
f 68/8/41 80/10/44 70/10/44
f 81/1/45 82/3/45 83/2/45
f 83/2/45 82/3/45 84/4/45
f 85/5/45 86/7/45 87/6/45
f 87/6/45 86/7/45 88/8/45
f 83/2/45 84/4/45 89/9/45
f 90/10/45 89/9/45 87/6/45
f 87/6/45 89/9/45 84/4/45
f 87/6/45 88/8/45 90/10/45
f 91/1/46 92/2/46 93/3/46
f 93/3/46 92/2/46 94/4/46
f 95/5/46 96/6/46 97/7/46
f 97/7/46 96/6/46 98/8/46
f 92/2/46 99/9/46 94/4/46
f 100/10/46 96/6/46 99/9/46
f 99/9/46 96/6/46 94/4/46
f 96/6/46 100/10/46 98/8/46
f 91/1/47 93/3/47 81/1/47
f 81/1/47 93/3/47 82/3/47
f 93/3/48 94/4/49 82/3/48
f 82/3/48 94/4/49 84/4/49
f 92/2/50 91/1/51 83/2/50
f 83/2/50 91/1/51 81/1/51
f 95/5/47 97/7/47 85/5/47
f 85/5/47 97/7/47 86/7/47
f 97/7/48 98/8/52 86/7/48
f 86/7/48 98/8/52 88/8/52
f 96/6/53 95/5/51 87/6/53
f 87/6/53 95/5/51 85/5/51
f 99/9/54 92/2/50 89/9/54
f 89/9/54 92/2/50 83/2/50
f 100/10/55 99/9/54 90/10/55
f 90/10/55 99/9/54 89/9/54
f 94/4/49 96/6/53 84/4/49
f 84/4/49 96/6/53 87/6/53
f 98/8/52 100/10/55 88/8/52
f 88/8/52 100/10/55 90/10/55
f 101/1/56 102/3/56 103/2/56
f 103/2/56 102/3/56 104/4/56
f 105/5/56 106/7/56 107/6/56
f 107/6/56 106/7/56 108/8/56
f 103/2/56 104/4/56 109/9/56
f 110/10/56 109/9/56 107/6/56
f 107/6/56 109/9/56 104/4/56
f 107/6/56 108/8/56 110/10/56
f 111/1/57 112/2/57 113/3/57
f 113/3/57 112/2/57 114/4/57
f 115/5/57 116/6/57 117/7/57
f 117/7/57 116/6/57 118/8/57
f 112/2/57 119/9/57 114/4/57
f 120/10/57 116/6/57 119/9/57
f 119/9/57 116/6/57 114/4/57
f 116/6/57 120/10/57 118/8/57
f 111/1/58 113/3/58 101/1/58
f 101/1/58 113/3/58 102/3/58
f 113/3/59 114/4/60 102/3/59
f 102/3/59 114/4/60 104/4/60
f 112/2/61 111/1/62 103/2/61
f 103/2/61 111/1/62 101/1/62
f 115/5/58 117/7/58 105/5/58
f 105/5/58 117/7/58 106/7/58
f 117/7/59 118/8/63 106/7/59
f 106/7/59 118/8/63 108/8/63
f 116/6/64 115/5/62 107/6/64
f 107/6/64 115/5/62 105/5/62
f 119/9/65 112/2/61 109/9/65
f 109/9/65 112/2/61 103/2/61
f 120/10/66 119/9/65 110/10/66
f 110/10/66 119/9/65 109/9/65
f 114/4/60 116/6/64 104/4/60
f 104/4/60 116/6/64 107/6/64
f 118/8/63 120/10/66 108/8/63
f 108/8/63 120/10/66 110/10/66
f 121/11/67 122/12/68 123/13/69
f 123/13/69 124/12/70 121/11/67
f 123/13/69 125/14/71 126/14/72
f 123/13/69 126/14/72 124/12/70
f 123/13/69 122/12/68 125/14/71
f 122/12/68 121/11/67 127/15/73
f 121/11/67 124/12/70 128/15/74
f 129/16/75 130/17/76 131/18/77
f 131/18/77 132/17/78 129/16/75
f 131/18/77 130/17/76 127/15/73
f 128/15/74 132/17/78 131/18/77
f 126/14/72 125/14/71 129/16/75
f 129/16/75 132/17/78 126/14/72
f 129/16/75 125/14/71 130/17/76
f 127/15/73 130/17/76 122/12/68
f 128/15/74 124/12/70 132/17/78
f 126/14/72 132/17/78 124/12/70
f 125/14/71 122/12/68 130/17/76
f 133/11/79 134/12/80 135/13/81
f 135/13/81 136/12/82 133/11/79
f 135/13/81 137/14/83 138/14/84
f 135/13/81 138/14/84 136/12/82
f 135/13/81 134/12/80 137/14/83
f 134/12/80 133/11/79 139/15/85
f 133/11/79 136/12/82 140/15/86
f 141/16/87 142/17/88 143/18/89
f 143/18/89 144/17/90 141/16/87
f 143/18/89 142/17/88 139/15/85
f 140/15/86 144/17/90 143/18/89
f 138/14/84 137/14/83 141/16/87
f 141/16/87 144/17/90 138/14/84
f 141/16/87 137/14/83 142/17/88
f 139/15/85 142/17/88 134/12/80
f 140/15/86 136/12/82 144/17/90
f 138/14/84 144/17/90 136/12/82
f 137/14/83 134/12/80 142/17/88
f 145/11/91 146/12/92 147/13/93
f 147/13/93 148/12/94 145/11/91
f 147/13/93 149/14/95 150/14/96
f 147/13/93 150/14/96 148/12/94
f 147/13/93 146/12/92 149/14/95
f 146/12/92 145/11/91 151/15/97
f 145/11/91 148/12/94 152/15/98
f 153/16/99 154/17/100 155/18/101
f 155/18/101 156/17/102 153/16/99
f 155/18/101 154/17/100 151/15/97
f 152/15/98 156/17/102 155/18/101
f 150/14/96 149/14/95 153/16/99
f 153/16/99 156/17/102 150/14/96
f 153/16/99 149/14/95 154/17/100
f 151/15/97 154/17/100 146/12/92
f 152/15/98 148/12/94 156/17/102
f 150/14/96 156/17/102 148/12/94
f 149/14/95 146/12/92 154/17/100
f 157/19/103 158/20/103 159/21/103
f 160/22/103 159/21/103 158/20/103
f 160/23/104 158/24/70 161/25/105
f 158/24/70 157/26/106 161/25/105
f 157/26/106 159/24/78 161/25/105
f 159/24/78 160/23/104 161/25/105
f 162/27/107 163/28/108 164/29/103
f 163/28/108 165/30/109 164/31/103
f 165/32/109 166/33/110 164/34/103
f 166/33/110 162/27/107 164/35/103
f 167/19/111 168/20/111 169/21/111
f 170/22/111 169/21/111 168/20/111
f 170/23/112 168/24/113 171/25/114
f 168/24/113 167/26/115 171/25/114
f 167/26/115 169/24/116 171/25/114
f 169/24/116 170/23/112 171/25/114
f 172/27/117 173/28/118 174/29/111
f 173/28/118 175/30/119 174/31/111
f 175/32/119 176/33/120 174/34/111
f 176/33/120 172/27/117 174/35/111
f 177/19/121 178/20/121 179/21/121
f 180/22/121 179/21/121 178/20/121
f 180/23/122 178/24/123 181/25/124
f 178/24/123 177/26/125 181/25/124
f 177/26/125 179/24/126 181/25/124
f 179/24/126 180/23/122 181/25/124
f 182/27/127 183/28/128 184/29/121
f 183/28/128 185/30/129 184/31/121
f 185/32/129 186/33/130 184/34/121
f 186/33/130 182/27/127 184/35/121
f 187/19/131 188/20/131 189/21/131
f 190/22/131 189/21/131 188/20/131
f 190/23/132 188/24/133 191/25/134
f 188/24/133 187/26/135 191/25/134
f 187/26/135 189/24/136 191/25/134
f 189/24/136 190/23/132 191/25/134
f 192/36/137 193/37/138 194/38/131
f 193/37/138 195/39/139 194/40/131
f 195/41/139 196/42/140 194/43/131
f 196/42/140 192/36/137 194/44/131
f 197/19/141 198/20/141 199/21/141
f 200/22/141 199/21/141 198/20/141
f 200/23/142 198/24/143 201/25/144
f 198/24/143 197/26/145 201/25/144
f 197/26/145 199/24/146 201/25/144
f 199/24/146 200/23/142 201/25/144
f 202/36/147 203/37/148 204/38/141
f 203/37/148 205/39/149 204/40/141
f 205/41/149 206/42/150 204/43/141
f 206/42/150 202/36/147 204/44/141
f 207/19/151 208/20/151 209/21/151
f 210/22/151 209/21/151 208/20/151
f 210/23/152 208/24/153 211/25/154
f 208/24/153 207/26/155 211/25/154
f 207/26/155 209/24/156 211/25/154
f 209/24/156 210/23/152 211/25/154
f 212/36/157 213/37/158 214/38/151
f 213/37/158 215/39/159 214/40/151
f 215/41/159 216/42/160 214/43/151
f 216/42/160 212/36/157 214/44/151
f 217/19/161 218/20/161 219/21/161
f 220/22/161 219/21/161 218/20/161
f 220/23/162 218/24/163 221/25/164
f 218/24/163 217/26/165 221/25/164
f 217/26/165 219/24/166 221/25/164
f 219/24/166 220/23/162 221/25/164
f 222/36/167 223/37/168 224/38/161
f 223/37/168 225/39/94 224/40/161
f 225/41/94 226/42/169 224/43/161
f 226/42/169 222/36/167 224/44/161
vt 0.486598 0.757972
vt 1.22042 0.879309
vt 0.486598 1.00065
vt -0.247221 0.879309
o merged_1_0_node
g polygon_0
usemtl TEX_ANIM_EYE_mat_id
f 127/45/73 121/46/67 128/47/74
f 127/45/73 128/47/74 131/48/77
f 139/45/85 133/46/79 140/47/86
f 139/45/85 140/47/86 143/48/89
f 151/45/97 145/46/91 152/47/98
f 151/45/97 152/47/98 155/48/101
