mtllib Drifblim.mtl
v -0.091079 0.706089 0.0664439
vt 0.766998 0.0288005
vn -0.6159958 -0.7664027 0.1821429
v 0.0971879 0.706089 0.0670112
vn 0.6134679 -0.7677208 0.1851
v 0.00539072 0.7458099 0.124883
vn -0.002182241 -0.7457624 0.6662084
v 0.00437235 0.7050959 -0.0590626
vn 0.007398492 -0.9269613 -0.3750841
v -0.0292224 0.771475 0.124779
vn -0.608263 -0.07338559 0.7903359
v -0.0976135 0.7701939 -0.0593699
vn -0.8619591 -0.0114279 -0.5068491
v -0.091079 0.8360059 0.0664439
vn -0.6202928 0.7590207 0.1977989
v 0.0349807 0.7706209 0.124973
vn 0.6123791 -0.0110483 0.7904871
v 0.10448 0.771901 -0.0587609
vn 0.8650759 0.009506689 -0.5015509
v 0.0971879 0.8360059 0.0670112
vn 0.6203814 0.7577844 0.2022121
v 0.000367665 0.7962859 0.124868
vn -0.003013731 0.8450062 0.5347481
v 0.00265172 0.8100699 0.200374
vn 0.008334079 0.139806 0.9901439
v 0.00357399 0.7710479 -0.105703
vn 0.002884001 0.004147161 -0.9999872
v 0.00249457 0.843909 -0.0590682
vn -0.005208148 0.9307846 -0.3655309
v 0.207351 0.02258014 -0.198111
vt 0.5 0.459664
vn -0.4810232 -0.7693082 0.4204541
v 0.308217 0.01288485 -0.173991
vt -0.37882 0.338796
vn 0.3898878 -0.3162088 0.8648696
v 0.11068 0.172149 -0.08904471
vt 0.5 1.27667
vn -0.7059959 -0.11269 0.6991929
v 0.269234 0.05571894 -0.208129
vt 0.155786 0.41032
vn 0.6896363 0.7012073 -0.1808591
v 0.182529 0.02300344 -0.299272
vt 1.37882 0.338796
vn -0.8875187 -0.2133719 -0.4083908
v 0.257894 0.003608905 -0.250351
vt 0.5 0.276669
vn 0.3912062 -0.7988175 -0.4569993
v 0.220004 0.05968215 -0.257199
vt 0.844214 0.41032
vn 0.2367229 0.7376698 -0.6323018
v -0.207351 0.02258014 -0.198111
vn 0.4810232 -0.7693082 0.4204541
v -0.182529 0.02300344 -0.299272
vn 0.8875188 -0.213371 -0.4083909
v -0.11068 0.172149 -0.08904471
vn 0.7059959 -0.112691 0.6991929
v -0.220004 0.05968215 -0.257199
vn -0.2367222 0.7376695 -0.6323024
v -0.308217 0.01288485 -0.173991
vn -0.3898881 -0.3162091 0.8648694
v -0.257894 0.003608905 -0.250351
vn -0.3912059 -0.7988178 -0.4569989
v -0.269234 0.05571894 -0.208129
vn -0.689637 0.701207 -0.180858
v -0.207351 -0.007184135 0.170407
vn 0.4810231 -0.6918582 -0.5384691
v -0.308217 -0.01288276 0.145043
vn -0.3898878 -0.1733089 -0.9044067
v -0.11068 0.15795 0.0867584
vn 0.7059966 0.0009822174 -0.7082146
v -0.269234 0.02391724 0.185613
vn -0.6896369 0.6630919 0.2910499
v -0.182529 -0.02300136 0.270324
vn 0.8875188 -0.276147 0.3688539
v -0.257894 -0.03429345 0.218925
vn -0.3912058 -0.8618066 0.3228739
v -0.220004 0.01995404 0.234683
vn -0.2367221 0.6266312 0.7424932
v 0.207351 -0.007184135 0.170407
vn -0.4810231 -0.6918582 -0.5384691
v 0.182528 -0.02300136 0.270324
vn -0.8875188 -0.276147 0.3688539
v 0.11068 0.15795 0.0867584
vn -0.705996 0.0009813551 -0.7082151
v 0.220004 0.01995404 0.234683
vn 0.2367228 0.6266305 0.7424935
v 0.308217 -0.01288276 0.145043
vn 0.3898878 -0.1733089 -0.9044067
v 0.257894 -0.03429345 0.218925
vn 0.3912061 -0.8618063 0.3228741
v 0.269234 0.02391724 0.185613
vn 0.6896359 0.6630929 0.29105
v -0.0336331 0.07182134 -0.0584753
vt 0.236601 0.0363568
vn -0.452123 0.415814 -0.789103
v -0.0917221 0.02074494 -0.0407704
vn -0.6726239 0.6309639 -0.3866029
v -0.0673803 0.07172734 8.57476E-05
vn -0.875681 0.48289 -9.40549E-05
v -0.0524182 0.1167259 -8.76277E-05
vn -0.9482108 0.3176219 -0.003565029
v -0.0262196 0.1167259 -0.0454136
vn -0.4774239 0.3176389 -0.8192508
v 0.0261222 0.1162059 -0.0453734
vn 0.4740661 0.3199901 -0.8202851
v 0.0337426 0.07182134 -0.0584423
vn 0.4518291 0.4173161 -0.7884781
v 0.000107695 0.02081044 -0.0814859
vn 0.0004463808 0.4114378 -0.9114377
v -0.0261222 0.1162059 0.0453734
vn -0.4737571 0.3194061 0.8206912
v -0.0337443 0.07182134 0.0584485
vn -0.4513462 0.4169821 0.7889313
v -0.0917557 0.02074504 0.0408524
vn -0.6727038 0.6308308 0.3866809
v 0.0673786 0.07172734 -7.95538E-05
vn 0.8755355 0.4831537 0.0002620319
v 0.0523527 0.1167259 -2.58059E-05
vn 0.9480401 0.318142 0.00237896
v 0.0337158 0.07182134 0.0583355
vn 0.4531752 0.4154152 0.7887093
v 0.0262196 0.1167259 0.0454136
vn 0.4773239 0.3175339 0.8193498
v 0.0917619 0.02074504 -0.0408406
vn 0.6726782 0.6308672 -0.3866661
v -4.90068E-05 0.02081044 0.0814068
vn 0.001526569 0.4112538 0.9115196
v 0.0917666 0.02074494 0.0406512
vn 0.6727717 0.6307567 0.3866838
vn 0.452123 -0.415814 0.789103
vn 0.875681 -0.48289 9.40867E-05
vn 0.6726239 -0.6309639 0.3866029
vn 0.9482108 -0.3176219 0.003565039
vn 0.4774239 -0.3176389 0.8192508
vn -0.4740661 -0.3199901 0.8202851
vn -0.4518291 -0.4173161 0.7884781
vn -0.0004463808 -0.4114378 0.9114377
vn 0.4737571 -0.3194061 -0.8206912
vn 0.4513462 -0.4169821 -0.7889313
vn 0.6727038 -0.6308308 -0.3866809
vn -0.8755355 -0.4831537 -0.0002620009
vn -0.9480401 -0.318142 -0.00237896
vn -0.4531752 -0.4154152 -0.7887093
vn -0.4773239 -0.3175339 -0.8193498
vn -0.6726779 -0.6308669 0.386667
vn -0.001526569 -0.4112538 -0.9115196
vn -0.6727717 -0.6307567 -0.3866838
o merged_0_0_node
g polygon_0
usemtl mat_ude_mat_id
f 1/1/1 2/1/2 3/1/3
f 1/1/1 4/1/4 2/1/2
f 1/1/1 3/1/3 5/1/5
f 1/1/1 6/1/6 4/1/4
f 1/1/1 5/1/5 7/1/7
f 1/1/1 7/1/7 6/1/6
f 2/1/2 8/1/8 3/1/3
f 2/1/2 4/1/4 9/1/9
f 2/1/2 10/1/10 8/1/8
f 2/1/2 9/1/9 10/1/10
f 5/1/5 11/1/11 7/1/7
f 5/1/5 3/1/3 12/1/12
f 5/1/5 12/1/12 11/1/11
f 11/1/11 8/1/8 10/1/10
f 11/1/11 10/1/10 7/1/7
f 11/1/11 12/1/12 8/1/8
f 8/1/8 12/1/12 3/1/3
f 6/1/6 13/1/13 4/1/4
f 6/1/6 7/1/7 14/1/14
f 6/1/6 14/1/14 13/1/13
f 14/1/14 10/1/10 9/1/9
f 14/1/14 7/1/7 10/1/10
f 14/1/14 9/1/9 13/1/13
f 13/1/13 9/1/9 4/1/4
f 15/2/15 16/3/16 17/4/17
f 15/2/15 18/5/18 16/3/16
f 15/2/15 17/4/17 19/6/19
f 15/2/15 20/7/20 18/5/18
f 15/2/15 19/6/19 21/8/21
f 15/2/15 21/8/21 20/7/20
f 21/8/21 17/4/17 18/5/18
f 21/8/21 19/6/19 17/4/17
f 21/8/21 18/5/18 20/7/20
f 18/5/18 17/4/17 16/3/16
f 22/2/22 23/3/23 24/4/24
f 22/2/22 25/5/25 23/3/23
f 22/2/22 24/4/24 26/6/26
f 22/2/22 27/7/27 25/5/25
f 22/2/22 26/6/26 28/8/28
f 22/2/22 28/8/28 27/7/27
f 28/8/28 24/4/24 25/5/25
f 28/8/28 26/6/26 24/4/24
f 28/8/28 25/5/25 27/7/27
f 25/5/25 24/4/24 23/3/23
f 29/2/29 30/3/30 31/4/31
f 29/2/29 32/5/32 30/3/30
f 29/2/29 31/4/31 33/6/33
f 29/2/29 34/7/34 32/5/32
f 29/2/29 33/6/33 35/8/35
f 29/2/29 35/8/35 34/7/34
f 35/8/35 31/4/31 32/5/32
f 35/8/35 33/6/33 31/4/31
f 35/8/35 32/5/32 34/7/34
f 32/5/32 31/4/31 30/3/30
f 36/2/36 37/3/37 38/4/38
f 36/2/36 39/5/39 37/3/37
f 36/2/36 38/4/38 40/6/40
f 36/2/36 41/7/41 39/5/39
f 36/2/36 40/6/40 42/8/42
f 36/2/36 42/8/42 41/7/41
f 42/8/42 38/4/38 39/5/39
f 42/8/42 40/6/40 38/4/38
f 42/8/42 39/5/39 41/7/41
f 39/5/39 38/4/38 37/3/37
f 43/9/43 44/9/44 45/9/45
f 43/9/43 45/9/45 46/9/46
f 43/9/43 46/9/46 47/9/47
f 43/9/43 47/9/47 48/9/48
f 43/9/43 48/9/48 49/9/49
f 43/9/43 49/9/49 50/9/50
f 45/9/45 51/9/51 46/9/46
f 45/9/45 52/9/52 51/9/51
f 45/9/45 53/9/53 52/9/52
f 48/9/48 54/9/54 49/9/49
f 48/9/48 55/9/55 54/9/54
f 51/9/51 52/9/52 56/9/56
f 51/9/51 56/9/56 57/9/57
f 55/9/55 56/9/56 54/9/54
f 55/9/55 57/9/57 56/9/56
f 49/9/49 54/9/54 58/9/58
f 52/9/52 59/9/59 56/9/56
f 54/9/54 56/9/56 60/9/60
f 43/9/61 45/9/62 44/9/63
f 43/9/61 46/9/64 45/9/62
f 43/9/61 47/9/65 46/9/64
f 43/9/61 48/9/66 47/9/65
f 43/9/61 49/9/67 48/9/66
f 43/9/61 50/9/68 49/9/67
f 45/9/62 46/9/64 51/9/69
f 45/9/62 51/9/69 52/9/70
f 45/9/62 52/9/70 53/9/71
f 48/9/66 49/9/67 54/9/72
f 48/9/66 54/9/72 55/9/73
f 51/9/69 56/9/74 52/9/70
f 51/9/69 57/9/75 56/9/74
f 55/9/73 54/9/72 56/9/74
f 55/9/73 56/9/74 57/9/75
f 49/9/67 58/9/76 54/9/72
f 52/9/70 56/9/74 59/9/77
f 54/9/72 60/9/78 56/9/74
v 0.093795 0.1588249 -0.151764
vt 3 0.327898
vn 0.3317929 -0.7767137 -0.5353777
v 0.151764 0.3332559 -0.245559
vt 3 1.24184
vn 0.4884549 -0.301241 -0.8189418
v 0.262357 0.2702519 -0.093795
vt 2.34851 0.892743
vn 0.8119751 -0.4804381 -0.331475
v 0 0.2676619 -0.264433
vt 3.5001 0.822497
vn 0 -0.487776 -0.8729689
v 0.163428 0.1581619 0
vt 2.0001 0.214237
vn 0.556204 -0.8310459 0.000140842
v -0.093795 0.1588249 -0.151764
vt 4 0.327898
vn -0.3319799 -0.7765048 -0.5355649
vt 3.00127 0.0524487
vn 0.158033 -0.9466677 -0.2807949
vt 4.0001 0.0557701
vn -0.1585211 -0.9464225 -0.2813461
v 0.264433 0.421609 -0.163428
vt 2.52872 1.80668
vn 0.8363721 4.710581E-05 -0.548162
v 0 0.421609 -0.303527
vt 3.5001 1.80668
vn 0 0 -1
v 0.151764 0.5099629 -0.245559
vt 3 2.37153
vn 0.4886303 0.3025312 -0.8183614
vt 2.00057 0.0557701
vn 0.3410188 -0.9400564 9.160304E-05
v 0.262357 0.2702519 0.093795
vt 1.65168 0.892743
vn 0.8119751 -0.4804381 0.331475
vt 1.0001 0.0557701
vn 0.158642 -0.9464611 0.281148
v 0.093795 0.1588249 0.151764
vt 1 0.327898
vn 0.3319791 -0.7765511 0.5354981
v 0.262357 0.5719169 -0.093795
vt 2.34851 2.72062
vn 0.8067448 0.4971378 -0.3194009
v 0.303527 0.421609 0
vt 2.0001 1.80668
vn 1 0.000156655 0
v 0 0.5755559 -0.264433
vt 3.5001 2.79087
vn 0 0.4904029 -0.8714958
v -0.093795 0.1588249 0.151764
vt 0 0.327898
vn -0.331796 -0.7767309 0.5353509
v 0.151764 0.3332559 0.245559
vt 1 1.24184
vn 0.4884549 -0.301241 0.8189418
v 0 0.2676619 0.264433
vt 0.500095 0.822497
vn 0 -0.487776 0.8729689
v 0.262357 0.5719169 0.093795
vt 1.65168 2.72062
vn 0.8067448 0.4971378 0.3194009
v 0.093795 0.6828579 -0.151764
vt 3 3.28546
vn 0.3230219 0.8019499 -0.5025269
v 0.15083 0.6834009 0
vt 2.0001 3.39913
vn 0.51318 0.858281 0
vt 0.00126702 0.0524487
vn -0.158084 -0.9466651 0.280775
v 0.264433 0.421609 0.163428
vt 1.47147 1.80668
vn 0.8363721 4.711611E-05 0.548162
v -0.151764 0.3332559 0.245559
vt 0 1.24184
vn -0.4884549 -0.301241 0.8189418
v -0.163428 0.1581619 0
vt -0.999905 0.214237
vn -0.556223 -0.8310331 -9.191141E-05
vt -1.0015 0.0557701
vn -0.341058 -0.9400422 -0.000248632
v 0.151764 0.5099629 0.245559
vt 1 2.37153
vn 0.4886303 0.3025312 0.8183614
v 0.093795 0.6828579 0.151764
vt 1 3.28546
vn 0.3230219 0.8019499 0.5025269
v -0.262357 0.2702519 0.093795
vt -0.651485 0.892743
vn -0.8119751 -0.4804381 0.331475
v -0.264433 0.421609 0.163428
vt -0.47128 1.80668
vn -0.8363721 4.710791E-05 0.548162
vt -1.9999 0.0557701
v -0.303527 0.421609 0
vt -0.999905 1.80668
vn -1 0.000156655 0
v -0.262357 0.5719169 0.093795
vt -0.651485 2.72062
vn -0.8067448 0.4971378 0.3194009
v -0.151764 0.5099629 0.245559
vt 0 2.37153
vn -0.4886303 0.3025312 0.8183614
vt -2 0.327898
v -0.262357 0.2702519 -0.093795
vt -1.34832 0.892743
vn -0.8119751 -0.4804381 -0.331475
v -0.093795 0.6828579 0.151764
vt 0 3.28546
vn -0.3230219 0.8019499 0.5025269
v -0.151764 0.3332559 -0.245559
vt -2 1.24184
vn -0.4884549 -0.301241 -0.8189418
vt -2.4999 0.822497
v -0.262357 0.5719169 -0.093795
vt -1.34832 2.72062
vn -0.8067448 0.4971378 -0.3194009
v -0.264433 0.421609 -0.163428
vt -1.52853 1.80668
vn -0.8363721 4.711611E-05 -0.548162
vt -2.4999 1.80668
v -0.15083 0.6834009 0
vt -0.999905 3.39913
vn -0.51318 0.858281 0
v -0.151764 0.5099629 -0.245559
vt -2 2.37153
vn -0.4886303 0.3025312 -0.8183614
v -0.093795 0.6828579 -0.151764
vt -2 3.28546
vn -0.3230219 0.8019499 -0.5025269
vt -2.4999 2.79087
vt 0.725689 0.159706
vn 0.009919926 -0.9999345 0.005705247
vn 0.00142622 -0.9999587 -0.008976928
vn -0.001421771 -0.9999585 0.009004935
vn -0.009919913 -0.9999344 -0.005733332
v 0 0.5755559 0.264433
vt 0.500095 2.37028
vn 0 0.4904029 0.8714958
vt 0 2.76807
vt 0 2.03302
vt 1 2.03302
vt 1 2.76807
vt 1 2.54629
vt 0 2.54629
vt 0.500095 2.1485
vt 1.65168 2.09201
vt 2.0001 2.6377
vt -0.999905 2.6377
vt -0.651485 2.09201
vt 2.34851 2.09201
vt 3 2.54629
vt -2 2.54629
vt -1.34832 2.09201
vt 3.5001 2.1485
vt 4.02872 2.54629
o merged_1_0_node
g polygon_0
usemtl mat_body_mat_id
f 61/10/79 62/11/80 63/12/81
f 61/10/79 64/13/82 62/11/80
f 61/10/79 63/12/81 65/14/83
f 61/10/79 66/15/84 64/13/82
f 61/10/79 65/14/83 48/16/85
f 61/10/79 47/17/86 66/15/84
f 61/10/79 48/16/85 47/17/86
f 62/11/80 67/18/87 63/12/81
f 62/11/80 64/13/82 68/19/88
f 62/11/80 69/20/89 67/18/87
f 62/11/80 68/19/88 69/20/89
f 65/14/83 55/21/90 48/16/85
f 65/14/83 63/12/81 70/22/91
f 65/14/83 57/23/92 55/21/90
f 65/14/83 70/22/91 71/24/93
f 65/14/83 71/24/93 57/23/92
f 67/18/87 69/20/89 72/25/94
f 67/18/87 73/26/95 63/12/81
f 67/18/87 72/25/94 73/26/95
f 63/12/81 73/26/95 70/22/91
f 68/19/88 74/27/96 69/20/89
f 71/24/93 75/28/97 57/23/92
f 71/24/93 70/22/91 76/29/98
f 71/24/93 77/30/99 75/28/97
f 71/24/93 76/29/98 77/30/99
f 72/25/94 78/31/100 73/26/95
f 72/25/94 69/20/89 79/32/101
f 72/25/94 80/33/102 78/31/100
f 79/32/101 69/20/89 74/27/96
f 57/23/92 75/28/97 51/34/103
f 70/22/91 81/35/104 76/29/98
f 70/22/91 73/26/95 81/35/104
f 73/26/95 78/31/100 81/35/104
f 77/30/99 82/36/105 75/28/97
f 51/34/103 75/28/97 83/37/106
f 51/34/103 83/37/106 46/38/107
f 78/31/100 84/39/108 81/35/104
f 78/31/100 85/40/109 84/39/108
f 82/36/105 86/41/110 75/28/97
f 82/36/105 87/42/111 86/41/110
f 75/28/97 86/41/110 83/37/106
f 46/38/107 83/37/106 47/43/86
f 87/42/111 88/44/112 86/41/110
f 87/42/111 89/45/113 88/44/112
f 87/42/111 90/46/114 89/45/113
f 83/37/106 66/47/84 47/43/86
f 83/37/106 86/41/110 91/48/115
f 83/37/106 91/48/115 66/47/84
f 86/41/110 88/44/112 91/48/115
f 90/46/114 92/49/116 89/45/113
f 66/47/84 91/48/115 93/50/117
f 66/47/84 93/50/117 64/51/82
f 88/44/112 89/45/113 94/52/118
f 88/44/112 95/53/119 91/48/115
f 88/44/112 94/52/118 95/53/119
f 91/48/115 95/53/119 93/50/117
f 64/51/82 93/50/117 68/54/88
f 89/45/113 96/55/120 94/52/118
f 95/53/119 97/56/121 93/50/117
f 95/53/119 94/52/118 97/56/121
f 93/50/117 97/56/121 68/54/88
f 94/52/118 98/57/122 97/56/121
f 68/54/88 97/56/121 74/58/96
f 74/58/96 97/56/121 98/57/122
f 55/59/123 57/59/123 51/59/124
f 55/59/123 51/59/124 46/59/124
f 55/59/123 46/59/124 48/59/125
f 46/59/124 47/59/126 48/59/125
f 99/60/127 92/61/116 90/62/114
f 99/60/127 84/63/108 85/64/109
f 85/65/109 92/66/116 99/67/127
f 85/65/109 78/68/100 80/69/102
f 92/66/116 96/70/120 89/71/113
f 80/69/102 72/72/94 79/73/101
f 96/70/120 98/74/122 94/75/118
f 79/73/101 74/76/96 98/77/122
vt 0 0
vt 2 0
v 0 0.72451 0
vt 1 1
vn 0 1 0
o merged_2_0_node
g polygon_0
usemtl mat_top_mat_id
f 92/78/116 85/79/109 100/80/128
f 79/78/101 98/79/122 100/80/128
f 80/79/102 100/80/128 85/78/109
f 96/78/120 92/79/116 100/80/128
f 96/79/120 100/80/128 98/78/122
f 80/78/102 79/79/101 100/80/128
vt 0 0.115189
vt 1 0.328228
v 0 0.421609 0.303527
vt 0 0.615189
vn 0 0 1
vt 1 0.902149
vt 0 1.11519
o merged_3_0_node
g polygon_0
usemtl mat_kuti_mat_id
f 77/81/99 76/82/98 101/83/129
f 101/83/129 76/82/98 84/84/108
f 82/82/105 77/81/99 101/83/129
f 82/82/105 101/83/129 90/84/114
f 99/85/127 101/83/129 84/84/108
f 99/85/127 90/84/114 101/83/129
vt 1 0.875
vt 0 1
vt 0 0.75
o merged_4_0_node
g polygon_0
usemtl TEX_ANIM_EYE_mat_id
f 81/86/104 84/87/108 76/88/98
f 87/86/111 82/88/105 90/87/114
