mtllib Staravia_F.mtl
v 0 0.228386 0.0853154
vt 0.484144 0.0766377
vn 0 -0.9997375 0.02291059
v -0.0945195 0.24549 0.0365995
vt 0.749908 0.0704627
vn -0.401011 -0.886144 -0.232248
v 0 0.243865 -0.0218339
vt 0.768878 0.148707
vn 0 -0.8616841 -0.507445
v -0.174196 0.297994 0.0853154
vt 0.858034 0.678769
vn -0.8843198 -0.4668649 -0.003963329
v -0.128962 0.312453 -0.0452555
vn -0.6319208 -0.3871188 -0.6714278
v 0 0.311244 -0.0868443
vn 0 -0.4287448 -0.9034256
v 0 0.250912 0.20612
vt 0.147835 0.0755091
vn 0 -0.8668335 0.4985977
v -0.0941472 0.248201 0.147201
vt 0.403941 0.00646001
vn -0.389371 -0.881978 0.265528
v -0.128962 0.312453 0.216908
vt 0.41748 0.239266
vn -0.658793 -0.315315 0.683058
vt 0.821465 0.186118
vt 0.00804263 0.0158465
v 0 0.309776 0.268808
vt 0.00804263 0.22875
vn 0 -0.3233118 0.9462925
v 0.0945195 0.24549 0.0365995
vn 0.401011 -0.886144 -0.232248
v 0.0941472 0.248201 0.147201
vn 0.389371 -0.881978 0.265528
v 0.174196 0.297994 0.0853154
vn 0.8843194 -0.4668657 -0.003963367
v 0.128962 0.312453 0.216908
vn 0.658793 -0.315315 0.683058
v 0.128962 0.312453 -0.0452555
vn 0.6319208 -0.3871188 -0.6714278
v 0.130111 0.396519 -0.0438007
vn 0.701318 0.144757 -0.697996
v 0 0.396519 -0.0992915
vn 0 0.133996 -0.9909819
v -0.130111 0.396519 -0.0438007
vn -0.701318 0.144757 -0.697996
v -0.184004 0.37878 0.0853154
vn -0.9970556 0.07418007 0.01942759
v -0.130111 0.419557 0.215044
vt 0.425149 0.625295
vn -0.715008 0.168076 0.6786119
vt 0.853175 0.477409
v 0.130111 0.419557 0.215044
vt 0.413278 0.619012
vn 0.715008 0.168076 0.6786119
v 0.184004 0.37878 0.0853154
vn 0.9970556 0.07417997 0.01942749
v 0.118635 0.480762 -0.0209201
vn 0.6830978 0.4390279 -0.5836368
v 0 0.492741 -0.0613204
vn 0 0.18231 -0.9832411
v -0.118635 0.480762 -0.0209201
vn -0.6830982 0.4390281 -0.5836362
v -0.156517 0.480762 0.0855002
vn -0.8800102 0.4747631 0.0134953
vt 0.77286 0.844671
v -0.109658 0.480762 0.189036
vt 0.372183 0.845355
vn -0.5445178 0.6468667 0.5339138
v 0 0.480762 0.244886
vt 0.00804269 0.844755
vn 0 0.5980568 0.8014538
v 0 0.419557 0.270534
vt 0.00804263 0.624458
vn 0 0.1382209 0.9904014
v 0.109658 0.480762 0.189036
vn 0.5445178 0.6468667 0.5339138
v 0.156517 0.480762 0.0855002
vn 0.8800102 0.4747631 0.0134952
v -0.089315 0.542494 0.0855683
vn -0.506251 0.851113 0.138984
v 0 0.558209 0.0853154
vn 0 0.959257 0.282535
v 0 0.542494 0.170418
vn 0 0.8795168 0.4758679
vt 0.250419 1.0664
vt 0.00804263 1.06638
v 0.0893151 0.542494 0.0855683
vn 0.506251 0.851113 0.138984
v 0.06407 0.552997 0.0318887
vn 0.6727449 0.7236739 0.153982
v -0.0644461 0.522468 -0.024766
vn -0.7187867 0.3199449 -0.6172367
v -0.06407 0.552997 0.0318887
vn -0.6727449 0.7236739 0.153982
v 0.0644461 0.522468 -0.024766
vn 0.7187867 0.3199449 -0.6172367
v -0.0233019 0.670969 -0.0152589
vn -0.7205989 -0.07062359 0.689746
v -0.0189419 0.704445 0.0292406
vn -0.9507212 -0.06850182 0.3023851
v -0.0347869 0.701677 -0.0454941
vn -0.8224354 0.4479932 -0.3505741
v 0 0.658291 0.0679558
vn 0 -0.7501709 0.661244
v -0.01084 0.724977 0.0353064
vn -0.4150281 0.8447322 0.3379041
v 0.0253937 0.608495 -0.0067706
vn 0.437337 0.628289 0.64342
v -0.0253937 0.608495 -0.0067706
vn -0.4351411 0.6260682 0.6470633
v 0.0233019 0.670969 -0.0152589
vn 0.7262021 -0.07273321 0.6836231
v -0.0506953 0.596766 -0.0417115
vn -0.9552538 0.208593 -0.209712
v -0.0253016 0.593906 -0.083716
vn -0.4306988 -0.04096229 -0.9015657
v 0 0.717072 -0.0694189
vn 0 0.622131 -0.7829131
v 0.0506952 0.596766 -0.0417115
vn 0.9552538 0.208593 -0.209712
v 0.0347869 0.701677 -0.0454941
vn 0.822435 0.447994 -0.350574
v 0.0253016 0.593906 -0.083716
vn 0.4306988 -0.04096219 -0.9015657
v 0.0189418 0.704445 0.0292406
vn 0.9507207 -0.06850148 0.3023869
v 0 0.686534 0.0222905
vn 0 -0.9862007 0.165554
v 0.0108399 0.724977 0.0353063
vn 0.4150271 0.8447323 0.3379051
o merged_0_0_node
g polygon_0
usemtl kao_mat_id
f 1/1/1 2/2/2 3/3/3
f 4/4/4 5/4/5 2/4/2
f 2/4/2 5/4/5 3/4/3
f 5/4/5 6/4/6 3/4/3
f 7/5/7 8/6/8 1/1/1
f 1/1/1 8/6/8 2/2/2
f 9/7/9 4/8/4 8/6/8
f 4/8/4 2/2/2 8/6/8
f 9/7/9 8/6/8 7/9/7
f 9/7/9 7/9/7 10/10/10
f 11/2/11 12/6/12 1/1/1
f 1/1/1 12/6/12 7/5/7
f 11/2/11 13/8/13 12/6/12
f 12/6/12 13/8/13 14/7/14
f 12/6/12 14/7/14 7/9/7
f 14/7/14 10/10/10 7/9/7
f 1/1/1 3/3/3 11/2/11
f 13/4/13 11/4/11 15/4/15
f 11/4/11 3/4/3 15/4/15
f 15/4/15 3/4/3 6/4/6
f 16/4/16 15/4/15 17/4/17
f 15/4/15 6/4/6 17/4/17
f 18/4/18 17/4/17 5/4/5
f 6/4/6 5/4/5 17/4/17
f 4/4/4 19/4/19 5/4/5
f 5/4/5 19/4/19 18/4/18
f 20/11/20 19/12/19 9/7/9
f 4/8/4 9/7/9 19/12/19
f 21/13/21 14/7/14 22/12/22
f 14/7/14 13/8/13 22/12/22
f 13/4/13 15/4/15 22/4/22
f 15/4/15 16/4/16 22/4/22
f 16/4/16 17/4/17 23/4/23
f 17/4/17 24/4/24 23/4/23
f 18/4/18 25/4/25 17/4/17
f 17/4/17 25/4/25 24/4/24
f 18/4/18 19/4/19 25/4/25
f 19/4/19 26/4/26 25/4/25
f 19/12/19 20/11/20 26/14/26
f 26/14/26 20/11/20 27/15/27
f 27/15/27 20/11/20 28/16/28
f 28/16/28 20/11/20 29/17/29
f 29/17/29 21/13/21 28/16/28
f 28/16/28 21/13/21 30/15/30
f 30/15/30 21/13/21 31/14/31
f 31/14/31 21/13/21 22/12/22
f 16/4/16 23/4/23 22/4/22
f 22/4/22 23/4/23 31/4/31
f 26/4/26 32/4/32 25/4/25
f 33/4/33 32/4/32 34/4/34
f 26/14/26 27/15/27 32/18/32
f 32/18/32 27/15/27 34/19/34
f 27/15/27 28/16/28 34/19/34
f 33/4/33 34/4/34 35/4/35
f 31/14/31 35/18/35 30/15/30
f 35/18/35 34/19/34 30/15/30
f 34/19/34 28/16/28 30/15/30
f 31/4/31 23/4/23 35/4/35
f 35/4/35 36/4/36 33/4/33
f 25/4/25 37/4/37 24/4/24
f 25/4/25 32/4/32 37/4/37
f 37/4/37 32/4/32 38/4/38
f 33/4/33 38/4/38 32/4/32
f 23/4/23 39/4/39 35/4/35
f 39/4/39 36/4/36 35/4/35
f 24/4/24 39/4/39 23/4/23
f 40/4/40 41/4/41 42/4/42
f 43/4/43 44/4/44 41/4/41
f 41/4/41 44/4/44 42/4/42
f 33/4/33 45/4/45 46/4/46
f 47/4/47 40/4/40 45/4/45
f 46/4/46 45/4/45 40/4/40
f 33/4/33 46/4/46 38/4/38
f 37/4/37 38/4/38 48/4/48
f 38/4/38 46/4/46 48/4/48
f 42/4/42 48/4/48 40/4/40
f 48/4/48 46/4/46 40/4/40
f 37/4/37 48/4/48 49/4/49
f 50/4/50 49/4/49 42/4/42
f 49/4/49 48/4/48 42/4/42
f 33/4/33 36/4/36 45/4/45
f 39/4/39 51/4/51 36/4/36
f 36/4/36 51/4/51 45/4/45
f 45/4/45 51/4/51 47/4/47
f 51/4/51 52/4/52 47/4/47
f 39/4/39 53/4/53 51/4/51
f 50/4/50 52/4/52 53/4/53
f 52/4/52 51/4/51 53/4/53
f 39/4/39 24/4/24 53/4/53
f 37/4/37 49/4/49 24/4/24
f 50/4/50 53/4/53 49/4/49
f 24/4/24 49/4/49 53/4/53
f 47/4/47 54/4/54 55/4/55
f 55/4/55 54/4/54 43/4/43
f 47/4/47 55/4/55 40/4/40
f 40/4/40 55/4/55 41/4/41
f 55/4/55 43/4/43 41/4/41
f 47/4/47 52/4/52 54/4/54
f 43/4/43 54/4/54 56/4/56
f 56/4/56 54/4/54 52/4/52
f 43/4/43 56/4/56 44/4/44
f 52/4/52 50/4/50 56/4/56
f 56/4/56 50/4/50 44/4/44
f 50/4/50 42/4/42 44/4/44
v 0 0.175809 -0.263829
vt 0.462989 0.941105
vn 0 0.8207781 0.5712471
v -0.0680309 0.132362 -0.235163
vt 0.561178 0.948288
vn -0.176706 0.719695 0.671427
v 0 0.0980825 -0.189187
vt 0.467816 0.904366
vn 0 0.6926489 0.7212749
v -0.0680309 0.165555 -0.282623
vt 0.558764 0.969857
vn -0.2611969 0.8301876 0.4925088
v 0.0680309 0.132362 -0.235163
vn 0.176706 0.719695 0.671427
v 0 0.232628 -0.370103
vt 0.462989 0.977471
vn 0 0.8818716 0.4714898
v 0.0680309 0.165555 -0.282623
vn 0.2611969 0.8301876 0.4925088
v 0 0.209905 -0.0932064
vt 0.0466893 0.94454
vn 0 0.6894399 -0.7243429
v -0.0831278 0.122063 -0.105261
vn -0.6947817 0.04528508 -0.7177936
v -0.08828463 0.2136851 -0.04297461
vn 0.09507731 0.8061749 -0.5839884
v 0 0.140332 -0.12804
vn 0 0.5838521 -0.8118601
v 0 0.242671 -0.024439
vn 0 0.9740387 -0.2263819
v 0.0831278 0.122063 -0.105261
vn 0.6947822 0.04528521 -0.7177932
v 0.08828463 0.2136851 -0.04297461
vn -0.09507745 0.8061749 -0.5839883
v 0 0.0963819 -0.181638
vn 0 -0.547631 -0.83672
v -0.09528407 0.2241103 0.02598189
vn -0.09121932 0.9841742 0.1519216
v 0.09528407 0.2241103 0.0259819
vn 0.09121905 0.9841742 0.1519217
v -0.1165889 0.1794146 -0.02565907
vt 0.735141 0.526532
vn -0.816519 -0.5747209 0.0547056
vt 0.841093 0.0564849
v -0.0831278 0.0781106 -0.0650098
vt 0.980998 0.240552
vn -0.7899461 -0.5123171 -0.336922
v -0.2546723 0.2853331 -0.08494935
vt 0.332535 0.180778
vn -0.7033495 0.1342981 -0.6980426
v -0.117937 0.117095 0.0404756
vt 0.890418 0.584873
vn -0.8908492 -0.3686721 0.2654591
v -0.1480123 0.2120845 0.04466867
vt 0.646551 0.928566
vn -0.7916819 -0.150748 0.5920429
v -0.0952846 0.171817 0.095054
vt 0.755416 1.00188
vn -0.6581072 0.05132131 0.7511732
vt 0.90809 0.0696155
v 0 0.0497205 0.0571789
vt 1.0751 1.00963
vn -8.726508E-05 -0.7750738 0.6318708
v 0 0.093164 0.112789
vt 1.0751 1.33393
vn 0 -0.5726552 0.8197963
v 0 0.0380834 -0.0419092
vt 1.0751 0.431761
vn -0.000145428 -0.9161393 -0.4008601
v 0.0831278 0.0781106 -0.0650098
vn 0.78995 -0.512292 -0.336951
v 0.117937 0.117095 0.0404756
vn 0.890877 -0.368605 0.265459
v 0.1165889 0.1794146 -0.02565908
vn 0.8165191 -0.5747206 0.05470571
v 0.2546723 0.2853332 -0.08494937
vn 0.7033493 0.1342989 -0.6980427
v 0.1480123 0.2120845 0.04466867
vn 0.7916821 -0.1507467 0.5920429
v 0.0952846 0.171817 0.095054
vn 0.6581077 0.05132137 0.7511727
v -0.0537658 0.00456511 -0.0203194
vt 0.378339 0.902636
vn -0.4409692 -0.8891793 0.1220911
vt 0.297211 0.568704
vt 0.273235 0.469731
vt 0.31743 0.651927
vt 0.305641 0.603402
v 0.0537552 0.00450086 -0.0202819
vt 0.378455 0.903111
vn 0.3025661 -0.9529642 -0.017691
v 0 0.28488 0.24147
vt 0.393308 0.970002
vn 0 -0.1828569 -0.9831395
v 0.0514473 0.31315 0.233743
vt 0.393308 0.949039
vn 0.6128647 0.5910197 -0.5244927
v 0 0.299536 0.291092
vt 0.393308 0.823709
vn 0 -0.9590456 0.2832519
v 0 0.349286 0.268286
vt 0.393308 0.921142
vn 0 0.9973944 -0.07214123
v -0.0514473 0.31315 0.233743
vn -0.6128647 0.5910197 -0.5244927
v 0 0.298587 0.358751
vt 0.393308 0.650536
vn 0 0.872346 0.488889
vn 0 -0.805963 -0.591966
vn 0.0136828 -0.8058879 -0.59191
vn -0.0136828 -0.8058879 -0.59191
vt 0.557892 0.176265
vt 0.0834872 0.836647
vt 0.0626532 0.426136
vt 0.229304 0.941818
vt 0.0473012 0.0553245
vt 0.0802028 0.947871
vn 0 -0.9999015 -0.01403789
vn 0.2415709 -0.9702876 -0.01362219
vn -0.2415709 -0.9702876 -0.01362219
o merged_1_0_node
g polygon_0
usemtl lambert3_mat_id
f 57/20/57 58/21/58 59/22/59
f 57/20/57 60/23/60 58/21/58
f 57/20/57 59/22/59 61/21/61
f 57/20/57 62/24/62 60/23/60
f 57/20/57 61/21/61 63/23/63
f 57/20/57 63/23/63 62/24/62
f 64/25/64 65/25/65 66/25/66
f 64/25/64 67/25/67 65/25/65
f 64/25/64 66/25/66 68/25/68
f 64/25/64 69/25/69 67/25/67
f 64/25/64 68/25/68 70/25/70
f 64/25/64 70/25/70 69/25/69
f 65/25/65 67/25/67 71/25/71
f 71/25/71 67/25/67 69/25/69
f 66/25/66 72/25/72 68/25/68
f 70/25/70 68/25/68 73/25/73
f 74/26/74 65/27/65 75/28/75
f 74/26/74 76/29/76 65/27/65
f 74/26/74 75/28/75 77/30/77
f 74/26/74 78/31/78 76/29/76
f 74/26/74 77/30/77 79/32/79
f 74/26/74 79/32/79 78/31/78
f 65/27/65 71/33/71 75/28/75
f 77/30/77 80/34/80 81/35/81
f 71/33/71 82/36/82 75/28/75
f 71/33/71 83/28/83 82/36/82
f 71/33/71 69/27/69 83/28/83
f 80/34/80 84/30/84 81/35/81
f 69/27/69 85/26/85 83/28/83
f 69/27/69 86/29/86 85/26/85
f 83/28/83 85/26/85 84/30/84
f 86/29/86 87/31/87 85/26/85
f 84/30/84 85/26/85 88/32/88
f 88/32/88 85/26/85 87/31/87
f 89/37/89 80/38/80 77/39/77
f 89/37/89 82/40/82 80/38/80
f 89/37/89 77/39/77 75/41/75
f 89/37/89 75/41/75 82/40/82
f 80/38/80 82/40/82 90/42/90
f 80/38/80 90/42/90 84/39/84
f 82/40/82 83/41/83 90/42/90
f 90/42/90 83/41/83 84/39/84
f 91/43/91 92/44/92 93/45/93
f 91/43/91 94/46/94 92/44/92
f 91/43/91 93/45/93 95/44/95
f 91/43/91 95/44/95 94/46/94
f 92/44/92 94/46/94 96/47/96
f 96/47/96 94/46/94 95/44/95
f 59/22/97 60/23/98 62/24/97
f 59/22/97 58/21/98 60/23/98
f 59/22/97 62/24/97 63/23/99
f 59/22/97 63/23/99 61/21/99
f 76/48/76 72/49/72 66/50/66
f 76/48/76 78/51/78 72/49/72
f 76/48/76 66/50/66 65/52/65
f 78/51/78 79/53/79 72/49/72
f 73/49/73 88/53/88 87/51/87
f 73/49/73 87/51/87 86/48/86
f 73/49/73 86/48/86 70/50/70
f 86/48/86 69/52/69 70/50/70
f 96/47/100 93/45/100 92/44/101
f 96/47/100 95/44/102 93/45/100
vt 0.0193152 1.16185
vt 0.961132 0.954486
v 0 0.247003 0.0856976
vt 0.0193149 0.770136
vn 0 0.8998135 0.4362748
vt 0.987731 0.488812
vt 0.985439 0.265595
vt 0.0193147 0.148956
v 0 0.179406 0.131819
vt 0.019315 0.479947
vn 0 0.174727 0.9846169
o merged_2_0_node
g polygon_0
usemtl lambert4_mat_id
f 68/54/68 72/55/72 97/56/103
f 72/55/72 79/57/79 97/56/103
f 77/58/77 81/59/81 79/57/79
f 81/59/81 98/60/104 79/57/79
f 84/58/84 88/57/88 81/59/81
f 88/57/88 98/60/104 81/59/81
f 79/57/79 98/60/104 97/56/103
f 98/60/104 88/57/88 97/56/103
f 88/57/88 73/55/73 97/56/103
f 73/55/73 68/54/68 97/56/103
vt 0.985392 0.991919
vt 0.96754 0.767283
vt 0.0145113 0.991432
vt 0.0145113 0.761164
o merged_3_0_node
g polygon_0
usemtl TEX_ANIM_EYE_mat_id
f 20/61/20 9/62/9 29/63/29
f 9/62/9 10/64/10 29/63/29
f 21/61/21 29/63/29 14/62/14
f 10/64/10 14/62/14 29/63/29
