mtllib Timburr.mtl
v 0 0.653698 0.259627
vt 0.440457 0.229142
vn 0 0.7639823 0.6452373
v -0.0809506 0.608463 0.184707
vt 0.43096 0.223849
vn -0.8526058 0.4675548 0.2333579
v -0.053291 0.556036 0.195563
vt 0.435708 0.219243
vn -0.7090111 -0.5698211 0.4154601
v -0.0748159 0.600927 0.0219403
vt 0.432087 0.219145
vn -0.5492502 0.8258622 -0.1275771
v 0 0.559797 0.233898
vt 0.440457 0.22189
vn 0 -0.442643 0.896698
v 0 0.634588 0.0927693
vt 0.440457 0.224738
vn 0 0.996228 -0.0867743
v 0.053291 0.556036 0.195563
vt 0.445205 0.219243
vn 0.7090111 -0.5698211 0.4154601
v 0.0748159 0.600927 0.0219403
vt 0.448826 0.219145
vn 0.5492502 0.8258622 -0.1275771
v 0.0809506 0.608463 0.184707
vt 0.449953 0.223849
vn 0.8526058 0.4675548 0.2333579
v -0.0727965 0.534425 0.0281258
vt 0.423717 0.207907
vn -0.891877 0.391544 0.226382
v 0 0.518678 0.178418
vt 0.440457 0.214638
vn 0 -0.8102149 0.5861329
v 0 0.567551 -0.105999
vt 0.440457 0.213763
vn 0 0.8634889 -0.5043679
v 0.0727965 0.534425 0.0281258
vt 0.457196 0.207907
vn 0.891877 0.391544 0.226382
v -0.0899707 0.513906 -0.103225
vt 0.421026 0.200756
vn -0.6807927 0.5865567 -0.4387169
v 0 0.522417 0.134584
vt 0.440457 0.208115
vn 0 -0.9728323 0.2315111
v -0.112987 0.482806 0.137789
vt 0.417195 0.194912
vn -0.687808 0.471797 0.551659
vn 0 0.7792037 0.6267707
v 0.0899707 0.513906 -0.103225
vt 0.459887 0.200756
vn 0.6807927 0.5865567 -0.4387169
v 0 0.441578 0.199506
vt 0.440457 0.194912
vn 0 0.3620582 0.9321555
v 0 0.467247 -0.151965
vt 0.440457 0.190599
vn 0 0.3999582 -0.9165334
v -0.120734 0.406025 -0.136294
vt 0.41672 0.178913
vn -0.607447 0.218732 -0.763652
v 0.112987 0.482806 0.137789
vt 0.463719 0.194912
vn 0.687808 0.471797 0.551659
v 0 0.348553 -0.187518
vt 0.440457 0.166471
vn 0 -0.08698021 -0.99621
v -0.12405 0.324101 -0.136841
vt 0.416068 0.162913
vn -0.6794438 -0.4050999 -0.6117599
v -0.181492 0.380413 0.00921546
vt 0.404776 0.177401
vn -0.9963096 0.08425877 -0.01635939
v 0.120734 0.406025 -0.136294
vt 0.464193 0.178913
vn 0.607447 0.218732 -0.763652
v -0.175045 0.303228 -0.000261588
vt 0.40679 0.162913
vn -0.878895 -0.470138 -0.08070761
v 0 0.260713 -0.125176
vt 0.440457 0.150824
vn 0 -0.8262012 -0.5633751
v -0.0966097 0.242554 -0.00771141
vt 0.421463 0.150095
vn -0.4306981 -0.8938302 -0.124767
v 0.12405 0.324101 -0.136841
vt 0.464845 0.162913
vn 0.6794438 -0.4050999 -0.6117599
v 0.181492 0.380413 0.00921546
vt 0.476138 0.177401
vn 0.9963096 0.08425877 -0.01635939
v -0.125573 0.2794 0.12946
vt 0.415533 0.160571
vn -0.6573458 -0.5713668 0.4913618
v -0.136627 0.345781 0.137215
vt 0.413596 0.174726
vn -0.6931119 0.05234569 0.7189269
v 0.175045 0.303228 -0.000261588
vt 0.474124 0.162913
vn 0.878895 -0.470138 -0.08070761
v 0.125573 0.2794 0.12946
vt 0.46538 0.160571
vn 0.6573452 -0.5713672 0.4913622
v 0.136627 0.345781 0.137215
vt 0.467317 0.174726
vn 0.6931119 0.05234569 0.7189269
v 0 0.218867 -0.0106199
vt 0.440457 0.145403
vn 0 -0.9939672 -0.109678
v 0.0966097 0.242554 -0.00771141
vt 0.45945 0.150095
vn 0.4306981 -0.8938302 -0.124767
v 0 0.324318 0.208645
vt 0.440457 0.172249
vn 0 -0.0486271 0.998817
v 0 0.337974 0.200797
vt 0.440457 0.174726
vn 0 0.2671079 0.9636666
v 0 0.236283 0.122221
vt 0.440457 0.151984
vn 0 -0.9625131 0.271235
v 0 0.268963 0.181714
vt 0.440457 0.159787
vn 0 -0.6846861 0.7288381
v 0.0417793 0.217188 -0.0729086
vt 0.310418 0.336493
vn 0.4863128 0.309498 -0.8171358
v 0.050149 0.0884007 -0.0901232
vt 0.312961 0.29736
vn 0.4794167 0.1659739 -0.8617495
v -0.050149 0.0884007 -0.0901232
vt 0.282485 0.29736
vn -0.479416 0.165974 -0.8617499
v 0.100298 0.0884007 0
vt 0.328199 0.29736
vn 0.9670903 0.04070571 -0.2511561
v -0.0417793 0.217188 -0.0729086
vt 0.285029 0.336493
vn -0.4863121 0.3094981 -0.8171362
v 0.0835586 0.217188 0
vt 0.323113 0.336493
vn 0.7929419 0.4508159 -0.4098879
v 0 0.229166 0
vt 0.297723 0.340132
vn 0 1 0
v -0.06133951 0.0342722 -0.09505971
vt 0.279085 0.280913
vn -0.4379798 -0.3389299 -0.8326466
v 0.06133951 0.0342722 -0.0950596
vt 0.316362 0.280913
vn 0.4379798 -0.3389299 -0.8326466
v -0.0835586 0.217188 0
vt 0.272334 0.336493
vn -0.8021991 0.4558221 -0.3856201
v -0.100298 0.0884007 0
vt 0.267247 0.29736
vn -0.9623308 0.04560039 -0.26803
v 0.0417793 0.217188 0.0729086
vn -0.002107931 0.4957122 0.8684843
v 0 0.0169234 0
vt 0.297723 0.275641
vn 0 -1 -7.45698E-05
v 0.0812907 0 0
vt 0.322424 0.270499
vn 0.173337 -0.9848608 -0.00186713
v 0.122679 0.0342722 0
vt 0.335 0.280913
vn 0.9999886 -0.002579529 -0.004018568
v -0.0417793 0.217188 0.0729086
vn -0.03125608 0.4996877 0.8656415
v -0.0812907 0 0
vt 0.273023 0.270499
vn -0.173337 -0.9848608 -0.00186717
v -0.122679 0.0342722 0
vt 0.260447 0.280913
vn -0.9999886 -0.002579549 -0.004018758
v 0.06133951 0.0342722 0.0873338
vn 0.4349402 -0.3625011 0.8242694
v 0.050149 0.0884007 0.0901232
vn 0.21705 -0.0645363 0.9740248
v -0.050149 0.0884007 0.0901232
vn -0.194918 -0.06079268 0.9789338
v -0.06133951 0.0342722 0.0873338
vn -0.4349402 -0.3625011 0.8242694
v 0.04 0.340793 0.233122
vt 0.441176 0.0576007
vn 0.9850668 -0.02799999 -0.169881
v 0 0.330312 0.169531
vt 0.489677 0.05203
vn 0 -0.1626279 -0.9866875
v 0 0.375123 0.224774
vt 0.446219 0.0838841
vn 0 0.9196586 -0.3927188
v 0 0.3056 0.236233
vt 0.440128 0.0308584
vn 0 -0.9970461 -0.07680491
v 0 0.37381 0.267449
vt 0.41398 0.0813076
vn 0 0.9200142 0.3918851
v 0 0.320538 0.276229
vt 0.409313 0.0406771
vn 0 -0.7455853 0.6664102
v 0 0.351274 0.296712
vt 0.392676 0.0631713
vn 0 0.1626269 0.9866877
v -0.04 0.340793 0.233122
vn -0.9850668 -0.02799999 -0.169881
v -0.152539 0.468816 0.0200701
vt 0.338769 0.738755
vn -0.8495299 0.524041 0.0606631
vt 0.658445 0.815132
vt 0.338769 0.52844
vt 0.338769 0.926657
v -0.127475 0.421643 0.141613
vt 0.00736713 0.686062
vn -0.7209351 0.12465 0.6817001
vt 0.0509267 0.783135
vt 0.707634 0.537365
vt 0 0.504717
v 0.152539 0.468816 0.0200701
vn 0.8495299 0.524041 0.0606631
v 0.127475 0.421643 0.141613
vn 0.7209352 0.124649 0.6817002
v 0.167564 0.176111 0.112616
vt 0.317624 0.0981535
vn 0.8397499 0.09722538 0.5341979
vt 0.0209293 0.213037
vt 0.0209294 0.0409737
vt 0.0209293 0.230041
vt 0.0209293 0.0188703
v -0.167564 0.160516 0.112616
vn -0.8425972 0.06085282 0.5350952
v 0.0738198 0.249063 -0.170054
vt 0.34086 0.414273
vn 0.9063078 -0.05150429 0.4194679
v 0.097446 0.263223 -0.285377
vt 0.350009 0.459267
vn 0.422619 0.110451 -0.899552
v 0.048723 0.297996 -0.175836
vt 0.331141 0.418805
vn 0 0.9925461 0.12187
v 0.048723 0.202983 -0.187502
vn 0 -0.9925461 -0.12187
v 0 0.237756 -0.0779611
vt 0.312273 0.378343
vn -0.422619 -0.110451 0.899552
v 0.0236262 0.251916 -0.193285
vt 0.321422 0.423337
vn -0.9063078 0.05150429 -0.4194679
v -0.0236262 0.251916 -0.193285
vt 0.303124 0.423337
vn 0.9063078 0.05150418 -0.4194679
v -0.097446 0.263223 -0.285377
vt 0.274538 0.459267
vn -0.422619 0.110451 -0.899552
v -0.048723 0.297996 -0.175836
vt 0.293406 0.418805
v -0.048723 0.202983 -0.187502
vn 0.422619 -0.110451 0.899552
v -0.0738198 0.249063 -0.170054
vt 0.283687 0.414273
vn -0.9063078 -0.05150429 0.4194679
vt 0.195338 0.434701
vt 0.00855651 0.29938
vt 0.241092 0.29938
vt 0 0.434701
vt 0.382639 0.454853
vt 0.687074 0.303523
vt 0.382639 0.293355
vt 0.730712 0.486948
v 0.209534 0.0769147 0.236491
vt 0.745737 0.00618017
vn 0 0 1
v 0.109596 0.176853 0.236491
vt 0.507922 0.243996
v 0.109596 0.0769147 0.236491
vt 0.507922 0.00618017
v 0.209534 0.176853 0.236491
vt 0.745737 0.243996
vt 1 0
v 0.109596 0.176853 -0.165943
vt 0.762185 0.991183
vt 0.762185 0
v 0.209534 0.176853 -0.165943
vt 1 0.991183
vn 0 0 -1
v 0.109596 0.0769147 -0.165943
v 0.209534 0.0769147 -0.165943
o merged_0_0_node
g polygon_0
usemtl mat_body_mat_id
f 1/1/1 2/2/2 3/3/3
f 1/1/1 4/4/4 2/2/2
f 1/1/1 3/3/3 5/5/5
f 1/1/1 6/6/6 4/4/4
f 1/1/1 5/5/5 7/7/7
f 1/1/1 8/8/8 6/6/6
f 1/1/1 7/7/7 9/9/9
f 1/1/1 9/9/9 8/8/8
f 2/2/2 10/10/10 3/3/3
f 2/2/2 4/4/4 10/10/10
f 5/5/5 11/11/11 7/7/7
f 5/5/5 3/3/3 11/11/11
f 3/3/3 10/10/10 11/11/11
f 6/6/6 8/8/8 12/12/12
f 6/6/6 12/12/12 4/4/4
f 9/9/9 7/7/7 13/13/13
f 9/9/9 13/13/13 8/8/8
f 7/7/7 11/11/11 13/13/13
f 10/10/10 4/4/4 14/14/14
f 10/10/10 15/15/15 11/11/11
f 10/10/10 16/16/16 15/15/17
f 11/11/11 15/15/15 13/13/13
f 4/4/4 12/12/12 14/14/14
f 8/8/8 13/13/13 17/17/18
f 8/8/8 17/17/18 12/12/12
f 16/16/16 18/18/19 15/15/17
f 14/14/14 12/12/12 19/19/20
f 14/14/14 19/19/20 20/20/21
f 12/12/12 17/17/18 19/19/20
f 13/13/13 15/15/17 21/21/22
f 21/21/22 15/15/17 18/18/19
f 20/20/21 19/19/20 22/22/23
f 20/20/21 22/22/23 23/23/24
f 20/20/21 23/23/24 24/24/25
f 17/17/18 25/25/26 19/19/20
f 19/19/20 25/25/26 22/22/23
f 23/23/24 26/26/27 24/24/25
f 23/23/24 22/22/23 27/27/28
f 23/23/24 28/28/29 26/26/27
f 23/23/24 27/27/28 28/28/29
f 25/25/26 29/29/30 22/22/23
f 25/25/26 30/30/31 29/29/30
f 22/22/23 29/29/30 27/27/28
f 24/24/25 26/26/27 31/31/32
f 24/24/25 31/31/32 32/32/33
f 26/26/27 28/28/29 31/31/32
f 30/30/31 33/33/34 29/29/30
f 30/30/31 34/34/35 33/33/34
f 30/30/31 35/35/36 34/34/35
f 27/27/28 36/36/37 28/28/29
f 27/27/28 29/29/30 37/37/38
f 27/27/28 37/37/38 36/36/37
f 33/33/34 34/34/35 37/37/38
f 33/33/34 37/37/38 29/29/30
f 32/32/33 38/38/39 39/39/40
f 39/39/40 38/38/39 35/35/36
f 31/31/32 28/28/29 40/40/41
f 31/31/32 40/40/41 41/41/42
f 40/40/41 28/28/29 36/36/37
f 40/40/41 34/34/35 41/41/42
f 40/40/41 36/36/37 37/37/38
f 40/40/41 37/37/38 34/34/35
f 42/42/43 43/43/44 44/44/45
f 42/42/43 45/45/46 43/43/44
f 42/42/43 44/44/45 46/46/47
f 42/42/43 47/47/48 45/45/46
f 42/42/43 46/46/47 48/48/49
f 42/42/43 48/48/49 47/47/48
f 43/43/44 49/49/50 44/44/45
f 43/43/44 50/50/51 49/49/50
f 46/46/47 51/51/52 48/48/49
f 46/46/47 44/44/45 52/52/53
f 46/46/47 52/52/53 51/51/52
f 47/47/48 48/48/49 53/42/54
f 50/50/51 54/53/55 49/49/50
f 50/50/51 55/54/56 54/53/55
f 50/50/51 56/55/57 55/54/56
f 51/51/52 57/46/58 48/48/49
f 48/48/49 57/46/58 53/42/54
f 49/49/50 54/53/55 58/56/59
f 49/49/50 58/56/59 59/57/60
f 56/55/57 60/50/61 55/54/56
f 55/54/56 60/50/61 54/53/55
f 57/46/58 61/43/62 53/42/54
f 57/46/58 62/44/63 61/43/62
f 61/43/62 62/44/63 60/50/61
f 58/56/59 63/49/64 59/57/60
f 58/56/59 54/53/55 63/49/64
f 63/49/64 60/50/61 62/44/63
f 63/49/64 54/53/55 60/50/61
f 64/58/65 65/59/66 66/60/67
f 64/58/65 67/61/68 65/59/66
f 64/58/65 66/60/67 68/62/69
f 64/58/65 69/63/70 67/61/68
f 64/58/65 68/62/69 70/64/71
f 64/58/65 70/64/71 69/63/70
f 65/59/66 71/58/72 66/60/67
f 65/59/66 67/61/68 71/58/72
f 71/58/72 70/64/71 68/62/69
f 71/58/72 67/61/68 69/63/70
f 71/58/72 68/62/69 66/60/67
f 71/58/72 69/63/70 70/64/71
f 72/65/73 14/66/14 24/67/25
f 72/65/73 10/68/10 14/66/14
f 72/65/73 24/67/25 73/69/74
f 72/65/73 16/70/16 10/68/10
f 72/65/73 73/69/74 16/70/16
f 14/66/14 20/71/21 24/67/25
f 73/69/74 24/67/25 32/72/33
f 74/65/75 21/70/22 75/69/76
f 74/65/75 13/68/13 21/70/22
f 74/65/75 75/69/76 30/67/31
f 74/65/75 17/66/18 13/68/13
f 74/65/75 30/67/31 17/66/18
f 75/69/76 35/72/36 30/67/31
f 17/66/18 30/67/31 25/71/26
f 76/73/77 47/74/48 53/75/54
f 76/73/77 45/76/46 47/74/48
f 76/73/77 53/75/54 61/77/62
f 76/73/77 61/77/62 45/76/46
f 77/73/78 57/75/58 51/74/52
f 77/73/78 62/77/63 57/75/58
f 77/73/78 51/74/52 52/76/53
f 77/73/78 52/76/53 62/77/63
f 78/78/79 79/79/80 80/80/81
f 78/78/79 81/80/82 79/79/80
f 78/78/79 80/80/81 82/81/83
f 78/78/79 82/81/83 81/80/82
f 79/79/80 83/82/84 80/80/81
f 79/79/80 81/80/82 83/82/84
f 83/82/84 82/81/83 80/80/81
f 83/82/84 81/80/82 82/81/83
f 84/83/85 85/84/86 86/85/81
f 84/83/85 87/85/82 85/84/86
f 84/83/85 86/85/81 82/81/87
f 84/83/85 82/81/87 87/85/82
f 85/84/86 88/86/88 86/85/81
f 85/84/86 87/85/82 88/86/88
f 88/86/88 82/81/87 86/85/81
f 88/86/88 87/85/82 82/81/87
f 52/87/53 49/88/50 59/89/60
f 52/87/53 44/90/45 49/88/50
f 52/87/53 59/89/60 63/88/64
f 52/87/53 63/88/64 62/90/63
f 45/87/46 60/88/61 56/89/57
f 45/87/46 61/90/62 60/88/61
f 45/87/46 56/89/57 50/88/51
f 45/87/46 50/88/51 43/90/44
f 38/91/39 31/92/32 41/93/42
f 38/91/39 32/94/33 31/92/32
f 38/91/39 41/93/42 34/92/35
f 38/91/39 34/92/35 35/94/36
f 89/95/89 90/96/89 91/97/89
f 89/95/89 92/98/89 90/96/89
f 92/99/49 93/100/49 90/101/49
f 92/99/49 94/102/49 93/100/49
f 94/98/90 95/97/90 93/96/90
f 94/98/90 96/95/90 95/97/90
f 96/102/55 91/101/55 95/100/55
f 96/102/55 89/99/55 91/101/55
f 96/99/57 92/100/57 89/102/57
f 96/99/57 94/101/57 92/100/57
f 91/100/60 93/99/60 95/101/60
f 91/100/60 90/102/60 93/99/60
vt 0.767447 0.789535
vt 0.0843134 0.789535
vt 0.721686 0.884325
vt 0.0843134 0.917878
vt 0.649249 0.959627
o merged_1_0_node
g polygon_0
usemtl TEX_ANIM_EYE_mat_id
f 32/103/33 39/104/40 73/105/74
f 73/105/74 39/104/40 18/106/19
f 18/106/19 16/107/16 73/105/74
f 18/106/19 39/104/40 75/105/76
f 39/104/40 35/103/36 75/105/76
f 18/106/19 75/105/76 21/107/22
