ply
format ascii 1.0
element vertex 532
property float x
property float y
property float z
property uchar red
property uchar green
property uchar blue
element face 714
property list uchar int vertex_index
end_header
0.1379 -0.3205 1.59063 255 255 255
0.1379 -0.3205 1.63759 255 255 255
0.31578 -0.3205 1.63759 255 255 255
0.27308 -0.3205 1.59063 255 255 255
0.31578 -0.29042 1.63759 255 255 255
0.1379 -0.29042 1.63759 255 255 255
0.31578 -0.3205 1.45694 255 255 255
0.31578 -0.29042 1.45694 255 255 255
0.31578 -0.3205 1.42393 255 255 255
0.31578 -0.29042 1.42393 255 255 255
0.27308 -0.3205 1.42393 255 255 255
0.27308 -0.3205 1.45694 255 255 255
0.1379 -0.29042 1.45694 255 255 255
0.1379 -0.3205 1.45694 255 255 255
0.1379 -0.29042 1.42393 255 255 255
0.1379 -0.3205 1.42393 255 255 255
0.17599 -0.3205 1.47887 76 83 96
0.17599 -0.3205 1.57317 76 83 96
0.23499 -0.3205 1.57317 76 83 96
0.23499 -0.3205 1.47887 76 83 96
0.27308 -0.3205 1.59063 79 132 184
0.23499 -0.3205 1.57317 79 132 184
0.17599 -0.3205 1.57317 79 132 184
0.1379 -0.3205 1.59063 79 132 184
0.23499 -0.3205 1.47887 79 132 184
0.27308 -0.3205 1.45694 79 132 184
0.1379 -0.3205 1.45694 79 132 184
0.17599 -0.3205 1.47887 79 132 184
0.27308 -0.3205 1.45694 120 159 198
0.27308 -0.3205 1.42393 120 159 198
0.1379 -0.3205 1.42393 120 159 198
0.1379 -0.3205 1.45694 120 159 198
-0.1379 -0.3205 1.59063 255 255 255
-0.27308 -0.3205 1.59063 255 255 255
-0.31578 -0.3205 1.63759 255 255 255
-0.1379 -0.3205 1.63759 255 255 255
-0.31578 -0.29042 1.63759 255 255 255
-0.1379 -0.29042 1.63759 255 255 255
-0.31578 -0.3205 1.45694 255 255 255
-0.31578 -0.29042 1.45694 255 255 255
-0.31578 -0.3205 1.42393 255 255 255
-0.31578 -0.29042 1.42393 255 255 255
-0.27308 -0.3205 1.45694 255 255 255
-0.27308 -0.3205 1.42393 255 255 255
-0.1379 -0.29042 1.42393 255 255 255
-0.1379 -0.3205 1.42393 255 255 255
-0.1379 -0.3205 1.45694 255 255 255
-0.1379 -0.29042 1.45694 255 255 255
-0.17599 -0.3205 1.47887 76 83 96
-0.23499 -0.3205 1.47887 76 83 96
-0.23499 -0.3205 1.57317 76 83 96
-0.17599 -0.3205 1.57317 76 83 96
-0.27308 -0.3205 1.45694 120 159 198
-0.1379 -0.3205 1.45694 120 159 198
-0.1379 -0.3205 1.42393 120 159 198
-0.27308 -0.3205 1.42393 120 159 198
-0.27308 -0.3205 1.59063 79 132 184
-0.1379 -0.3205 1.59063 79 132 184
-0.17599 -0.3205 1.57317 79 132 184
-0.23499 -0.3205 1.57317 79 132 184
-0.17599 -0.3205 1.47887 79 132 184
-0.1379 -0.3205 1.45694 79 132 184
-0.23499 -0.3205 1.47887 79 132 184
-0.27308 -0.3205 1.45694 79 132 184
0.15651 -0.32618 1.53651 255 255 255
0.15651 -0.32618 1.58347 255 255 255
0.20065 -0.32618 1.58347 255 255 255
0.20065 -0.32618 1.53651 255 255 255
0.20065 -0.31827 1.58347 255 255 255
0.15651 -0.31827 1.58347 255 255 255
0.15651 -0.31827 1.53651 255 255 255
0.20065 -0.31827 1.53651 255 255 255
-0.15651 -0.32618 1.53651 255 255 255
-0.20065 -0.32618 1.53651 255 255 255
-0.20065 -0.32618 1.58347 255 255 255
-0.15651 -0.32618 1.58347 255 255 255
-0.20065 -0.31827 1.58347 255 255 255
-0.15651 -0.31827 1.58347 255 255 255
-0.15651 -0.31827 1.53651 255 255 255
-0.20065 -0.31827 1.53651 255 255 255
0.09534 -0.19872 0.42421 179 219 230
0.09534 -0.19872 0.79346 179 219 230
0.13567 -0.23839 0.79346 179 219 230
0.13567 -0.23839 0.42421 179 219 230
0.09534 0.09119 0.42421 179 219 230
0.09534 0.09119 0.79346 179 219 230
0.15972 -0.20762 0.83193 179 219 230
0.12611 -0.17456 0.83193 179 219 230
0.12611 0.06704 0.83193 179 219 230
0.13567 0.13087 0.79346 179 219 230
0.13567 0.13087 0.42421 179 219 230
0.31481 0.13087 0.79346 179 219 230
0.31481 0.13087 0.42421 179 219 230
0.35515 0.09119 0.79346 179 219 230
0.35515 0.09119 0.42421 179 219 230
0.15972 0.10009 0.83193 179 219 230
0.29076 0.10009 0.83193 179 219 230
0.32438 0.06704 0.83193 179 219 230
0.35515 -0.19872 0.79346 179 219 230
0.32438 -0.17456 0.83193 179 219 230
0.31481 -0.23839 0.79346 179 219 230
0.35515 -0.19872 0.42421 179 219 230
0.31481 -0.23839 0.42421 179 219 230
0.29076 -0.20762 0.83193 179 219 230
0.32438 0.06704 0.38574 179 219 230
0.32438 -0.17456 0.38574 179 219 230
0.29076 -0.20762 0.38574 179 219 230
0.12611 -0.17456 0.38574 179 219 230
0.15972 -0.20762 0.38574 179 219 230
0.27047 -0.23839 0.42421 179 219 230
0.12611 0.06704 0.38574 179 219 230
0.15972 0.10009 0.38574 179 219 230
0.29076 0.10009 0.38574 179 219 230
0.1801 -0.23839 0.42421 179 219 230
0.16289 -0.23839 0.44778 179 219 230
0.27047 -0.49761 0.42421 179 219 230
0.1801 -0.49761 0.42421 179 219 230
0.16289 -0.51471 0.44778 179 219 230
0.28767 -0.51471 0.44778 179 219 230
0.28767 -0.23839 0.44778 179 219 230
0.28767 -0.23839 0.54486 179 219 230
0.28767 -0.43178 0.54486 179 219 230
0.16289 -0.23839 0.54486 179 219 230
0.16289 -0.43178 0.54486 179 219 230
0.25683 -0.51471 0.69686 179 219 230
0.25683 -0.51471 0.8473 179 219 230
0.28767 -0.51471 0.89026 179 219 230
0.28767 -0.43178 0.89026 179 219 230
0.16289 -0.43178 0.89026 179 219 230
0.16289 -0.51471 0.89026 179 219 230
0.17629 -0.43178 0.91351 179 219 230
0.27427 -0.43178 0.91351 179 219 230
0.27427 -0.51471 0.91351 179 219 230
0.17629 -0.51471 0.91351 179 219 230
0.19374 -0.51471 0.8473 179 219 230
0.19374 -0.51471 0.69686 179 219 230
0.32438 -0.17456 0.83193 189 224 233
0.29076 -0.20762 0.83193 189 224 233
0.15972 -0.20762 0.83193 189 224 233
0.12611 -0.17456 0.83193 189 224 233
0.32438 0.06704 0.83193 189 224 233
0.12611 0.06704 0.83193 189 224 233
0.29076 0.10009 0.83193 189 224 233
0.15972 0.10009 0.83193 189 224 233
0.28767 -0.23839 0.54486 189 224 233
0.28767 -0.43178 0.54486 189 224 233
0.16289 -0.43178 0.54486 189 224 233
0.16289 -0.23839 0.54486 189 224 233
0.27427 -0.43178 0.91351 189 224 233
0.27427 -0.51471 0.91351 189 224 233
0.17629 -0.51471 0.91351 189 224 233
0.17629 -0.43178 0.91351 189 224 233
0.16289 -0.43178 0.89026 189 224 233
0.16289 -0.51471 0.89026 189 224 233
0.28767 -0.51471 0.89026 189 224 233
0.28767 -0.43178 0.89026 189 224 233
0.25683 -0.51471 0.69686 104 157 237
0.19374 -0.51471 0.69686 104 157 237
0.19374 -0.51471 0.8473 104 157 237
0.25683 -0.51471 0.8473 104 157 237
-0.09534 -0.19872 0.42421 179 219 230
-0.13567 -0.23839 0.42421 179 219 230
-0.13567 -0.23839 0.79346 179 219 230
-0.09534 -0.19872 0.79346 179 219 230
-0.09534 0.09119 0.42421 179 219 230
-0.09534 0.09119 0.79346 179 219 230
-0.15972 -0.20762 0.83193 179 219 230
-0.12611 -0.17456 0.83193 179 219 230
-0.12611 0.06704 0.83193 179 219 230
-0.13567 0.13087 0.79346 179 219 230
-0.13567 0.13087 0.42421 179 219 230
-0.31481 0.13087 0.79346 179 219 230
-0.31481 0.13087 0.42421 179 219 230
-0.35515 0.09119 0.79346 179 219 230
-0.35515 0.09119 0.42421 179 219 230
-0.15972 0.10009 0.83193 179 219 230
-0.29076 0.10009 0.83193 179 219 230
-0.32438 0.06704 0.83193 179 219 230
-0.35515 -0.19872 0.79346 179 219 230
-0.32438 -0.17456 0.83193 179 219 230
-0.31481 -0.23839 0.79346 179 219 230
-0.35515 -0.19872 0.42421 179 219 230
-0.31481 -0.23839 0.42421 179 219 230
-0.29076 -0.20762 0.83193 179 219 230
-0.32438 0.06704 0.38574 179 219 230
-0.32438 -0.17456 0.38574 179 219 230
-0.29076 -0.20762 0.38574 179 219 230
-0.12611 -0.17456 0.38574 179 219 230
-0.15972 -0.20762 0.38574 179 219 230
-0.27047 -0.23839 0.42421 179 219 230
-0.12611 0.06704 0.38574 179 219 230
-0.15972 0.10009 0.38574 179 219 230
-0.29076 0.10009 0.38574 179 219 230
-0.1801 -0.23839 0.42421 179 219 230
-0.16289 -0.23839 0.44778 179 219 230
-0.27047 -0.49761 0.42421 179 219 230
-0.1801 -0.49761 0.42421 179 219 230
-0.16289 -0.51471 0.44778 179 219 230
-0.28767 -0.51471 0.44778 179 219 230
-0.28767 -0.23839 0.44778 179 219 230
-0.28767 -0.23839 0.54486 179 219 230
-0.28767 -0.43178 0.54486 179 219 230
-0.16289 -0.23839 0.54486 179 219 230
-0.16289 -0.43178 0.54486 179 219 230
-0.25683 -0.51471 0.69686 179 219 230
-0.25683 -0.51471 0.8473 179 219 230
-0.28767 -0.51471 0.89026 179 219 230
-0.28767 -0.43178 0.89026 179 219 230
-0.16289 -0.43178 0.89026 179 219 230
-0.16289 -0.51471 0.89026 179 219 230
-0.17629 -0.43178 0.91351 179 219 230
-0.27427 -0.43178 0.91351 179 219 230
-0.27427 -0.51471 0.91351 179 219 230
-0.17629 -0.51471 0.91351 179 219 230
-0.19374 -0.51471 0.8473 179 219 230
-0.19374 -0.51471 0.69686 179 219 230
-0.32438 -0.17456 0.83193 189 224 233
-0.12611 -0.17456 0.83193 189 224 233
-0.15972 -0.20762 0.83193 189 224 233
-0.29076 -0.20762 0.83193 189 224 233
-0.32438 0.06704 0.83193 189 224 233
-0.12611 0.06704 0.83193 189 224 233
-0.29076 0.10009 0.83193 189 224 233
-0.15972 0.10009 0.83193 189 224 233
-0.28767 -0.23839 0.54486 189 224 233
-0.16289 -0.23839 0.54486 189 224 233
-0.16289 -0.43178 0.54486 189 224 233
-0.28767 -0.43178 0.54486 189 224 233
-0.27427 -0.43178 0.91351 189 224 233
-0.17629 -0.43178 0.91351 189 224 233
-0.17629 -0.51471 0.91351 189 224 233
-0.27427 -0.51471 0.91351 189 224 233
-0.16289 -0.43178 0.89026 189 224 233
-0.16289 -0.51471 0.89026 189 224 233
-0.28767 -0.51471 0.89026 189 224 233
-0.28767 -0.43178 0.89026 189 224 233
-0.25683 -0.51471 0.69686 104 157 237
-0.25683 -0.51471 0.8473 104 157 237
-0.19374 -0.51471 0.8473 104 157 237
-0.19374 -0.51471 0.69686 104 157 237
0.19441 -0.23532 0.93722 179 219 230
0.19441 -0.23532 1.0254 179 219 230
0.28259 -0.23532 1.0254 179 219 230
0.28259 -0.23532 0.93722 179 219 230
0.18148 -0.22003 0.92429 179 219 230
0.29552 -0.22003 0.92429 179 219 230
0.18148 0.05874 0.92429 179 219 230
0.29552 0.05874 0.92429 179 219 230
0.29552 0.05874 1.03833 179 219 230
0.29552 -0.22003 1.03833 179 219 230
0.18148 -0.22003 1.03833 179 219 230
0.18148 0.05874 1.03833 179 219 230
0.18148 -0.22003 1.03833 189 224 233
0.18148 0.05874 1.03833 189 224 233
0.29552 0.05874 1.03833 189 224 233
0.29552 -0.22003 1.03833 189 224 233
0.19441 -0.23532 1.0254 189 224 233
0.28259 -0.23532 1.0254 189 224 233
0.19441 0.07403 1.0254 179 219 230
0.19441 0.07403 0.93722 179 219 230
0.28259 0.07403 0.93722 179 219 230
0.28259 0.07403 1.0254 179 219 230
0.19441 0.07403 1.0254 189 224 233
0.28259 0.07403 1.0254 189 224 233
-0.19441 -0.23532 0.93722 179 219 230
-0.28259 -0.23532 0.93722 179 219 230
-0.28259 -0.23532 1.0254 179 219 230
-0.19441 -0.23532 1.0254 179 219 230
-0.18148 -0.22003 0.92429 179 219 230
-0.29552 -0.22003 0.92429 179 219 230
-0.18148 0.05874 0.92429 179 219 230
-0.29552 0.05874 0.92429 179 219 230
-0.29552 0.05874 1.03833 179 219 230
-0.29552 -0.22003 1.03833 179 219 230
-0.18148 -0.22003 1.03833 179 219 230
-0.18148 0.05874 1.03833 179 219 230
-0.18148 -0.22003 1.03833 189 224 233
-0.29552 -0.22003 1.03833 189 224 233
-0.29552 0.05874 1.03833 189 224 233
-0.18148 0.05874 1.03833 189 224 233
-0.19441 -0.23532 1.0254 189 224 233
-0.28259 -0.23532 1.0254 189 224 233
-0.19441 0.07403 1.0254 179 219 230
-0.28259 0.07403 1.0254 179 219 230
-0.28259 0.07403 0.93722 179 219 230
-0.19441 0.07403 0.93722 179 219 230
-0.28259 0.07403 1.0254 189 224 233
-0.19441 0.07403 1.0254 189 224 233
0.05805 0.14119 0.6204 189 224 233
-0.05805 0.14119 0.6204 189 224 233
-0.05805 0.80584 0.6204 189 224 233
0.05805 0.91394 0.6204 189 224 233
-0.08116 0.82822 0.6204 189 224 233
0.01764 0.94876 0.6204 189 224 233
-0.50939 0.82822 0.6204 189 224 233
-0.50939 0.94876 0.6204 189 224 233
-0.53726 0.94876 0.65406 189 224 233
-0.53726 0.82822 0.65406 189 224 233
-0.05805 0.14119 0.5043 179 219 230
-0.05805 0.80584 0.5043 179 219 230
-0.05805 0.80584 0.6204 179 219 230
-0.05805 0.14119 0.6204 179 219 230
0.05805 0.91394 0.5043 179 219 230
0.05805 0.14119 0.5043 179 219 230
0.05805 0.91394 0.6204 179 219 230
0.01764 0.94876 0.5043 179 219 230
0.01764 0.94876 0.6204 179 219 230
0.05805 0.14119 0.6204 179 219 230
-0.50939 0.94876 0.6204 179 219 230
-0.62619 0.94876 0.5043 179 219 230
-0.08116 0.82822 0.5043 179 219 230
-0.62619 0.82822 0.5043 179 219 230
-0.08116 0.82822 0.6204 179 219 230
-0.50939 0.82822 0.6204 179 219 230
-0.53726 0.82822 0.65406 179 219 230
-0.65951 0.82822 0.53672 179 219 230
-0.65951 0.94876 0.53672 179 219 230
-0.53726 0.94876 0.65406 179 219 230
-0.53726 0.94876 1.51089 179 219 230
-0.65951 0.94876 1.51089 179 219 230
-0.65951 0.82822 1.39307 179 219 230
-0.53726 0.82822 1.39307 179 219 230
-0.53726 0.8046 1.41951 179 219 230
-0.65951 0.8046 1.41951 179 219 230
-0.53726 0.91524 1.54526 179 219 230
-0.65951 0.91524 1.54526 179 219 230
-0.65951 0.53968 1.41951 179 219 230
-0.53726 0.66209 1.41951 179 219 230
-0.65951 0.53968 1.54526 179 219 230
-0.62861 0.5073 1.54526 179 219 230
-0.62861 0.5073 1.41951 179 219 230
-0.53726 0.66209 1.54526 179 219 230
0.63989 0.5073 1.54526 179 219 230
0.53007 0.5073 1.41951 179 219 230
0.67294 0.5073 1.51057 179 219 230
0.55329 0.5073 1.38954 179 219 230
0.55329 0.5073 0.99306 179 219 230
0.55329 0.63046 0.99306 179 219 230
0.55329 0.63046 1.38954 179 219 230
0.67294 0.5073 0.99306 179 219 230
0.67294 0.63046 0.99306 179 219 230
0.67294 0.63046 1.51057 179 219 230
-0.65951 0.91524 1.54526 189 224 233
-0.65951 0.94876 1.51089 189 224 233
-0.53726 0.94876 1.51089 189 224 233
-0.53726 0.91524 1.54526 189 224 233
-0.53726 0.66209 1.54526 189 224 233
-0.65951 0.53968 1.54526 189 224 233
-0.62861 0.5073 1.54526 189 224 233
-0.51164 0.63046 1.54526 189 224 233
0.63989 0.63046 1.54526 189 224 233
0.63989 0.5073 1.54526 189 224 233
0.67294 0.5073 1.51057 189 224 233
0.67294 0.63046 1.51057 189 224 233
-0.51164 0.63046 1.41951 179 219 230
-0.51164 0.63046 1.54526 179 219 230
0.63989 0.63046 1.54526 179 219 230
0.53007 0.63046 1.41951 179 219 230
0.55329 0.63046 0.4841 179 219 230
0.55329 0.5073 0.4841 179 219 230
0.67294 0.5073 0.4841 179 219 230
0.67294 0.63046 0.4841 179 219 230
0.50848 0.67527 0.52188 179 219 230
0.50848 0.46249 0.52188 179 219 230
0.71775 0.46249 0.52188 179 219 230
0.71775 0.67527 0.52188 179 219 230
0.71775 0.67527 0.95528 179 219 230
0.50848 0.67527 0.95528 179 219 230
0.50848 0.46249 0.95528 179 219 230
0.71775 0.46249 0.95528 179 219 230
0.55329 0.63046 0.99306 189 224 233
0.55329 0.5073 0.99306 189 224 233
0.50848 0.46249 0.95528 189 224 233
0.50848 0.67527 0.95528 189 224 233
0.67294 0.63046 0.99306 189 224 233
0.71775 0.67527 0.95528 189 224 233
0.67294 0.5073 0.99306 189 224 233
0.71775 0.46249 0.95528 189 224 233
0.17929 0.02629 1.79451 189 224 233
0.3684 0.02629 1.79451 189 224 233
0.3684 -0.20263 1.79451 189 224 233
0.31465 -0.25761 1.79451 189 224 233
-0.17929 0.02629 1.79451 189 224 233
-0.17929 0.18925 1.79451 189 224 233
0.17929 0.18925 1.79451 189 224 233
-0.31465 0.31018 1.79451 189 224 233
0.31465 0.31018 1.79451 189 224 233
0.3684 0.18925 1.79451 189 224 233
0.3684 0.2552 1.79451 189 224 233
-0.31465 -0.25761 1.79451 189 224 233
-0.3684 -0.20263 1.79451 189 224 233
-0.3684 0.02629 1.79451 189 224 233
-0.3684 0.18925 1.79451 189 224 233
-0.3684 0.2552 1.79451 189 224 233
0.31465 -0.25761 1.18119 179 219 230
0.3684 -0.20263 1.18119 179 219 230
0.3684 0.2552 1.18119 179 219 230
0.31465 0.31018 1.18119 179 219 230
0.41421 0.29491 1.2249 179 219 230
0.41421 -0.24234 1.2249 179 219 230
0.35449 -0.30342 1.2249 179 219 230
0.35449 -0.30342 1.75019 179 219 230
0.41421 -0.24234 1.75019 179 219 230
0.3684 -0.20263 1.79451 179 219 230
0.31465 -0.25761 1.79451 179 219 230
0.20034 -0.25761 1.18119 179 219 230
0.23728 -0.30342 1.2249 179 219 230
0.3684 0.02629 1.79451 179 219 230
0.41421 0.02629 1.75019 179 219 230
0.41426 0.02629 1.8903 179 219 230
0.17929 0.02629 1.79451 179 219 230
0.17923 0.02629 1.8903 179 219 230
0.23728 -0.30342 1.37243 179 219 230
0.23728 -0.37753 1.37243 179 219 230
0.23728 -0.37778 1.22491 179 219 230
0.21055 -0.36763 1.40585 179 219 230
0.21055 -0.30342 1.40585 179 219 230
0.21265 -0.4067 1.37243 179 219 230
0.19483 -0.38969 1.40585 179 219 230
0.21265 -0.4067 1.22491 179 219 230
0.20034 -0.35038 1.18113 179 219 230
0.17571 -0.37304 1.18112 179 219 230
-0.21265 -0.4067 1.22491 179 219 230
-0.17571 -0.37304 1.18112 179 219 230
-0.21265 -0.4067 1.37243 179 219 230
-0.19483 -0.38969 1.40585 179 219 230
-0.21055 -0.36763 1.40585 179 219 230
-0.23728 -0.37753 1.37243 179 219 230
-0.23728 -0.30342 1.37243 179 219 230
-0.23728 -0.30342 1.2249 179 219 230
-0.35449 -0.30342 1.75019 179 219 230
-0.35449 -0.30342 1.2249 179 219 230
-0.41421 -0.24234 1.2249 179 219 230
-0.41421 -0.24234 1.75019 179 219 230
-0.41421 0.02629 1.75019 179 219 230
-0.3684 -0.20263 1.79451 179 219 230
-0.31465 -0.25761 1.79451 179 219 230
-0.20034 -0.25761 1.18119 179 219 230
-0.31465 -0.25761 1.18119 179 219 230
-0.3684 -0.20263 1.18119 179 219 230
-0.3684 0.2552 1.18119 179 219 230
-0.31465 0.31018 1.18119 179 219 230
-0.41421 0.29491 1.2249 179 219 230
-0.3684 0.02629 1.79451 179 219 230
-0.41422 0.02629 1.8903 179 219 230
-0.17929 0.02629 1.79451 179 219 230
-0.17946 0.02629 1.8903 179 219 230
-0.12295 0.25842 1.18119 179 219 230
-0.12295 0.02744 1.18119 179 219 230
0.12295 0.02744 1.18119 179 219 230
0.12295 0.25842 1.18119 179 219 230
0.12295 0.02744 1.11765 179 219 230
-0.12295 0.02744 1.11765 179 219 230
0.12295 0.25842 1.1175 179 219 230
0.18425 -0.1027 1.11765 179 219 230
-0.18425 -0.1027 1.11765 179 219 230
0.20076 -0.12802 1.08993 179 219 230
-0.20076 -0.12802 1.08993 179 219 230
0.20076 -0.12802 0.48589 179 219 230
-0.20076 -0.12802 0.48589 179 219 230
0.17843 -0.10493 0.45745 179 219 230
-0.17843 -0.10493 0.45745 179 219 230
0.21045 -0.07919 1.11765 179 219 230
0.22882 -0.10253 1.08993 179 219 230
0.22882 -0.10276 0.48589 179 219 230
0.2065 -0.08219 0.45745 179 219 230
-0.2065 -0.08219 0.45745 179 219 230
0.2065 0.2075 0.45745 179 219 230
0.22882 0.23341 0.48589 179 219 230
-0.2065 0.2075 0.45745 179 219 230
-0.22882 -0.10276 0.48589 179 219 230
-0.22882 0.23341 0.48589 179 219 230
-0.22882 -0.10253 1.08993 179 219 230
-0.21045 -0.07919 1.11765 179 219 230
0.22882 0.23169 1.08993 179 219 230
0.20076 0.25842 0.48589 179 219 230
0.17843 0.23134 0.45745 179 219 230
-0.17843 0.23134 0.45745 179 219 230
0.20076 0.25842 1.08993 179 219 230
0.21045 0.2329 1.1175 179 219 230
0.18185 0.25842 1.1175 179 219 230
-0.20076 0.25842 0.48589 179 219 230
-0.22882 0.23169 1.08993 179 219 230
-0.20076 0.25842 1.08993 179 219 230
-0.21045 0.2329 1.1175 179 219 230
-0.18185 0.25842 1.1175 179 219 230
-0.12295 0.25842 1.1175 179 219 230
-0.35449 0.35599 1.2249 179 219 230
-0.41421 0.29491 1.75019 179 219 230
-0.35449 0.35599 1.75019 179 219 230
-0.31465 0.31018 1.79451 179 219 230
0.31465 0.31018 1.79451 179 219 230
0.35449 0.35599 1.75019 179 219 230
0.41421 0.29491 1.75019 179 219 230
0.35449 0.35599 1.2249 179 219 230
0.41421 0.18925 1.75019 179 219 230
0.3684 0.18925 1.79451 179 219 230
0.3684 0.2552 1.79451 179 219 230
0.41426 0.18925 1.8903 179 219 230
0.17923 0.18925 1.8903 179 219 230
0.17929 0.18925 1.79451 179 219 230
0.19977 0.17386 1.91485 179 219 230
0.39372 0.17386 1.91485 179 219 230
0.19977 0.04168 1.91485 179 219 230
0.39372 0.04168 1.91485 179 219 230
0.39372 0.17386 1.91485 189 224 233
0.39372 0.04168 1.91485 189 224 233
0.19977 0.04168 1.91485 189 224 233
0.19977 0.17386 1.91485 189 224 233
0.19483 -0.38969 1.40585 189 224 233
-0.19483 -0.38969 1.40585 189 224 233
-0.21055 -0.36763 1.40585 189 224 233
0.21055 -0.36763 1.40585 189 224 233
-0.21055 -0.30342 1.40585 189 224 233
0.21055 -0.30342 1.40585 189 224 233
-0.20034 -0.35038 1.18113 179 219 230
-0.23728 -0.37778 1.22491 179 219 230
-0.3684 0.18925 1.79451 179 219 230
-0.41421 0.18925 1.75019 179 219 230
-0.3684 0.2552 1.79451 179 219 230
-0.41422 0.18925 1.8903 179 219 230
-0.17946 0.18925 1.8903 179 219 230
-0.17929 0.18925 1.79451 179 219 230
-0.3937 0.04168 1.91485 179 219 230
-0.3937 0.17386 1.91485 179 219 230
-0.19998 0.17386 1.91485 179 219 230
-0.19998 0.04168 1.91485 179 219 230
-0.3937 0.17386 1.91485 189 224 233
-0.19998 0.17386 1.91485 189 224 233
-0.19998 0.04168 1.91485 189 224 233
-0.3937 0.04168 1.91485 189 224 233
-0.21055 -0.30342 1.40585 179 219 230
3 0 2 1
3 0 3 2
3 1 2 4
3 1 4 5
3 5 0 1
3 6 4 2
3 6 7 4
3 8 7 6
3 8 9 7
3 10 9 8
3 8 11 10
3 8 6 11
3 11 2 3
3 11 6 2
3 12 0 5
3 12 13 0
3 14 13 12
3 14 9 10
3 14 15 13
3 14 10 15
3 16 18 17
3 16 19 18
3 20 22 21
3 20 23 22
3 24 20 21
3 24 25 20
3 24 26 25
3 24 27 26
3 23 27 22
3 23 26 27
3 28 30 29
3 28 31 30
3 32 34 33
3 32 35 34
3 35 36 34
3 35 37 36
3 32 37 35
3 38 34 36
3 38 36 39
3 40 38 39
3 40 39 41
3 40 42 38
3 42 34 38
3 42 33 34
3 40 43 42
3 41 43 40
3 44 43 41
3 44 45 43
3 44 46 45
3 44 47 46
3 47 32 46
3 47 37 32
3 48 50 49
3 48 51 50
3 52 54 53
3 52 55 54
3 56 58 57
3 56 59 58
3 57 58 60
3 57 60 61
3 62 61 60
3 62 63 61
3 63 59 56
3 63 62 59
3 64 66 65
3 64 67 66
3 65 66 68
3 67 68 66
3 65 68 69
3 70 67 64
3 70 65 69
3 70 64 65
3 70 71 67
3 67 71 68
3 72 74 73
3 72 75 74
3 75 76 74
3 73 74 76
3 75 77 76
3 78 72 73
3 78 75 72
3 78 77 75
3 78 73 79
3 73 76 79
3 80 82 81
3 80 83 82
3 84 80 81
3 84 81 85
3 81 82 86
3 81 86 87
3 85 81 87
3 85 87 88
3 89 85 88
3 85 89 90
3 85 90 84
3 90 89 91
3 90 91 92
3 92 91 93
3 92 93 94
3 91 89 95
3 89 88 95
3 91 95 96
3 93 91 96
3 93 96 97
3 98 93 97
3 98 97 99
3 100 98 99
3 100 101 98
3 101 93 98
3 101 94 93
3 100 102 101
3 100 99 103
3 82 100 103
3 82 103 86
3 92 94 104
3 94 105 104
3 94 101 105
3 101 106 105
3 101 102 106
3 106 107 105
3 106 108 107
3 102 109 106
3 83 107 108
3 83 80 107
3 80 110 107
3 105 110 104
3 105 107 110
3 80 84 110
3 84 111 110
3 104 110 111
3 84 90 111
3 90 112 111
3 104 111 112
3 90 92 112
3 92 104 112
3 108 113 83
3 106 113 108
3 106 109 113
3 114 83 113
3 113 109 115
3 113 115 116
3 114 113 116
3 115 117 116
3 114 116 117
3 115 118 117
3 109 118 115
3 109 119 118
3 118 119 120
3 118 120 121
3 102 120 119
3 102 100 120
3 82 120 100
3 82 122 120
3 122 83 114
3 122 82 83
3 102 119 109
3 123 114 117
3 123 122 114
3 117 118 124
3 118 125 124
3 118 126 125
3 118 127 126
3 118 121 127
3 121 128 127
3 121 123 128
3 117 128 123
3 117 129 128
3 127 128 130
3 127 130 131
3 129 126 132
3 129 132 133
3 126 134 125
3 126 129 134
3 129 135 134
3 129 117 135
3 117 124 135
3 136 138 137
3 136 139 138
3 140 139 136
3 140 141 139
3 142 141 140
3 142 143 141
3 144 146 145
3 144 147 146
3 148 150 149
3 148 151 150
3 152 150 151
3 152 153 150
3 154 148 149
3 154 155 148
3 156 158 157
3 156 159 158
3 160 162 161
3 160 163 162
3 164 163 160
3 164 165 163
3 163 166 162
3 163 167 166
3 165 167 163
3 165 168 167
3 169 168 165
3 165 170 169
3 165 164 170
3 170 171 169
3 170 172 171
3 172 173 171
3 172 174 173
3 171 175 169
3 169 175 168
3 171 176 175
3 173 176 171
3 173 177 176
3 178 177 173
3 178 179 177
3 180 179 178
3 180 178 181
3 181 178 173
3 181 173 174
3 180 181 182
3 180 183 179
3 162 183 180
3 162 166 183
3 172 184 174
3 174 185 181
3 174 184 185
3 181 186 182
3 181 185 186
3 186 185 187
3 186 187 188
3 182 186 189
3 161 188 187
3 161 187 160
3 160 187 190
3 185 190 187
3 185 184 190
3 160 190 164
3 164 190 191
3 184 191 190
3 164 191 170
3 170 191 192
3 184 192 191
3 170 192 172
3 172 192 184
3 188 161 193
3 186 193 189
3 186 188 193
3 194 193 161
3 193 195 189
3 193 196 195
3 194 196 193
3 195 196 197
3 194 197 196
3 195 197 198
3 189 195 198
3 189 198 199
3 198 200 199
3 198 201 200
3 182 199 200
3 182 200 180
3 162 180 200
3 162 200 202
3 202 161 162
3 202 194 161
3 182 189 199
3 203 194 202
3 203 197 194
3 197 204 198
3 198 204 205
3 198 205 206
3 198 206 207
3 198 207 201
3 201 207 208
3 201 208 203
3 197 203 208
3 197 208 209
3 207 210 208
3 207 211 210
3 209 212 206
3 209 213 212
3 206 214 209
3 206 205 214
3 209 215 197
3 209 214 215
3 197 215 204
3 216 218 217
3 216 219 218
3 220 216 217
3 220 217 221
3 222 220 221
3 222 221 223
3 224 226 225
3 224 227 226
3 228 230 229
3 228 231 230
3 232 229 230
3 232 230 233
3 234 231 228
3 234 228 235
3 236 238 237
3 236 239 238
3 240 242 241
3 240 243 242
3 244 243 240
3 244 245 243
3 245 242 243
3 246 245 244
3 246 247 245
3 245 247 248
3 245 248 249
3 245 249 242
3 246 244 250
3 250 240 241
3 250 244 240
3 246 250 251
3 252 254 253
3 252 255 254
3 255 252 256
3 255 256 257
3 258 260 259
3 258 261 260
3 248 260 261
3 248 247 260
3 247 259 260
3 247 246 259
3 246 258 259
3 246 251 258
3 253 263 262
3 253 254 263
3 264 266 265
3 264 267 266
3 268 264 265
3 268 265 269
3 269 265 266
3 270 268 269
3 270 269 271
3 269 272 271
3 269 273 272
3 269 266 273
3 270 274 268
3 274 264 268
3 274 267 264
3 270 275 274
3 276 278 277
3 276 279 278
3 277 280 276
3 277 281 280
3 282 284 283
3 282 285 284
3 272 283 284
3 272 284 271
3 271 284 285
3 271 285 270
3 270 285 282
3 270 282 275
3 279 286 278
3 279 287 286
3 288 290 289
3 288 291 290
3 291 292 290
3 291 293 292
3 293 294 292
3 293 295 294
3 294 295 296
3 294 296 297
3 298 300 299
3 298 301 300
3 302 298 299
3 302 303 298
3 304 303 302
3 305 304 302
3 305 306 304
3 304 307 303
3 305 308 306
3 305 309 308
3 310 309 305
3 310 311 309
3 312 311 310
3 299 312 310
3 299 300 312
3 312 313 311
3 314 311 313
3 314 315 311
3 315 309 311
3 315 316 309
3 309 317 308
3 309 316 317
3 316 318 317
3 316 319 318
3 315 319 316
3 314 320 315
3 315 320 319
3 314 321 320
3 317 321 314
3 317 318 321
3 320 321 322
3 320 322 323
3 318 322 321
3 318 324 322
3 323 319 320
3 323 325 319
3 322 326 323
3 322 327 326
3 324 327 322
3 323 328 325
3 323 326 328
3 329 328 326
3 329 326 330
3 324 331 327
3 330 332 329
3 330 333 332
3 334 332 333
3 334 333 335
3 334 335 336
3 335 337 336
3 335 338 337
3 334 336 339
3 334 339 340
3 334 340 341
3 342 344 343
3 342 345 344
3 342 346 345
3 342 347 346
3 348 346 347
3 348 349 346
3 348 350 349
3 348 351 350
3 352 350 351
3 352 353 350
3 330 327 354
3 330 326 327
3 331 354 327
3 331 355 354
3 354 355 356
3 354 356 357
3 330 354 357
3 330 357 333
3 357 335 333
3 357 338 335
3 341 357 356
3 341 338 357
3 341 337 338
3 341 340 337
3 358 360 359
3 358 361 360
3 359 362 358
3 359 363 362
3 361 364 360
3 361 365 364
3 358 365 361
3 358 362 365
3 366 365 362
3 366 362 367
3 367 363 368
3 367 362 363
3 368 363 364
3 368 364 369
3 369 364 365
3 369 365 366
3 360 364 363
3 360 363 359
3 370 372 371
3 370 373 372
3 374 373 370
3 374 375 373
3 376 375 374
3 376 377 375
3 371 377 376
3 371 372 377
3 378 380 379
3 378 381 380
3 381 378 382
3 378 383 382
3 378 384 383
3 384 385 383
3 384 386 385
3 386 384 387
3 386 387 388
3 381 382 389
3 382 390 389
3 382 391 390
3 385 392 383
3 385 393 392
3 394 396 395
3 394 397 396
3 398 395 396
3 398 399 395
3 399 394 395
3 399 400 394
3 401 400 399
3 401 399 402
3 401 402 403
3 401 403 404
3 400 405 394
3 400 406 405
3 401 406 400
3 402 407 403
3 402 408 407
3 399 408 402
3 407 408 409
3 410 407 409
3 410 409 411
3 401 412 406
3 406 412 413
3 406 413 414
3 412 415 413
3 412 416 415
3 401 416 412
3 415 417 413
3 414 413 417
3 415 418 417
3 414 417 419
3 420 414 419
3 420 419 421
3 421 419 422
3 417 422 419
3 421 422 423
3 417 424 422
3 418 424 417
3 418 425 424
3 426 424 425
3 426 427 424
3 428 427 426
3 429 427 428
3 430 429 428
3 430 431 429
3 430 432 431
3 430 433 432
3 432 433 434
3 430 435 433
3 430 436 435
3 431 437 429
3 431 438 437
3 432 438 431
3 432 439 438
3 438 439 440
3 438 440 441
3 442 439 432
3 442 440 439
3 404 436 430
3 404 430 401
3 433 443 434
3 433 435 443
3 443 444 434
3 445 444 443
3 445 446 444
3 447 438 441
3 438 447 448
3 438 448 437
3 449 437 448
3 449 405 437
3 449 394 405
3 450 394 449
3 394 450 397
3 451 449 448
3 451 450 449
3 451 448 452
3 452 448 447
3 451 453 450
3 454 451 452
3 454 452 455
3 456 454 455
3 456 455 457
3 458 456 457
3 458 457 459
3 460 458 459
3 460 459 461
3 462 451 454
3 456 462 454
3 456 463 462
3 458 463 456
3 458 464 463
3 465 458 460
3 465 464 458
3 465 460 461
3 465 461 466
3 466 461 459
3 467 465 466
3 467 464 465
3 467 468 464
3 467 466 469
3 469 466 470
3 466 459 470
3 469 470 471
3 459 472 470
3 459 457 472
3 457 473 472
3 457 455 473
3 473 455 452
3 463 464 468
3 463 468 474
3 474 468 475
3 476 475 468
3 476 468 467
3 476 467 469
3 476 469 477
3 474 475 478
3 478 479 474
3 478 480 479
3 462 474 479
3 462 463 474
3 451 462 479
3 451 479 453
3 453 479 480
3 478 453 480
3 477 469 471
3 477 471 481
3 476 481 475
3 476 477 481
3 482 481 471
3 482 483 481
3 475 483 478
3 475 481 483
3 483 482 484
3 483 484 485
3 486 483 485
3 486 485 484
3 478 486 453
3 478 483 486
3 453 486 447
3 453 447 450
3 397 450 447
3 397 447 441
3 397 441 487
3 487 441 440
3 487 440 442
3 487 442 488
3 487 488 489
3 488 490 489
3 491 489 490
3 491 492 489
3 493 492 491
3 494 492 493
3 494 489 492
3 494 487 489
3 397 487 494
3 494 493 398
3 495 398 493
3 496 495 493
3 496 493 497
3 493 491 497
3 494 396 397
3 494 398 396
3 495 496 498
3 496 499 498
3 496 500 499
3 500 411 499
3 500 410 411
3 408 495 498
3 408 498 409
3 399 398 495
3 399 495 408
3 498 499 501
3 498 501 502
3 499 503 501
3 499 411 503
3 409 498 502
3 409 502 504
3 411 409 504
3 411 504 503
3 505 507 506
3 505 508 507
3 509 511 510
3 509 512 511
3 512 513 511
3 512 514 513
3 405 414 420
3 405 406 414
3 420 437 405
3 420 515 437
3 421 515 420
3 421 423 515
3 437 515 516
3 437 516 429
3 517 488 518
3 517 519 488
3 488 519 490
3 518 520 517
3 517 520 521
3 517 521 522
3 522 521 446
3 522 446 445
3 434 520 518
3 434 444 520
3 442 518 488
3 432 518 442
3 432 434 518
3 520 444 523
3 520 523 524
3 521 520 524
3 521 524 525
3 446 521 525
3 446 525 526
3 444 446 526
3 444 526 523
3 527 529 528
3 527 530 529
3 401 531 416
3 401 430 531
3 430 428 531
3 428 426 531
3 429 516 427
3 516 424 427
3 516 422 424
3 515 422 516
3 515 423 422
3 452 447 486
3 452 484 473
3 452 486 484
3 473 484 482
3 473 482 472
3 472 482 471
3 472 471 470
3 302 310 305
3 302 299 310
