mtllib Hypno_M.mtl
v -0.188976 0.208574 -0.00421312
vt 0.913695 0.919839
vn -0.9697044 -0.03562941 -0.2416691
v -0.0944877 0.208574 -0.176884
vn -0.5194499 0.149351 -0.8413478
v -0.18098 0.117999 -0.00458001
vn -0.9503647 -0.3110569 -0.007117248
v -0.0723632 0.42867 -0.131209
vn -0.485781 0.371252 -0.7913209
v -0.0904901 0.117999 0.141639
vn -0.4181509 -0.4965208 0.7606688
v -0.144726 0.42867 0
vn -0.7963321 0.487712 -0.35776
v -0.0944878 0.208574 0.168458
vn -0.2522771 -0.117298 0.9605194
v -0.258389 0.34115 0.162064
vn -0.8567972 0.112696 0.5031881
v -0.0904901 0.117999 -0.180962
vn -0.4342631 -0.4345691 -0.7890281
v 0.0723632 0.42867 -0.131209
vn 0.485781 0.371252 -0.7913209
v 0.0944878 0.208574 -0.176884
vn 0.5194499 0.149351 -0.8413478
v 0.0904901 0.117999 0.141639
vn 0.4181501 -0.496521 0.7606691
v -0.088417 1.490116E-08 0
vn -0.198284 -0.980144 -0.00113403
v 0 0.07174611 -0.005577411
vn 0 -0.9999577 -0.009197528
v -0.0723632 0.42867 0.131209
vn -0.06931595 0.4951403 0.8660436
v 0 0.45223 0
vn 0 1 0
v 0.0904901 0.117999 -0.180962
vn 0.4342631 -0.4345691 -0.7890281
v 0.188976 0.208574 -0.00421309
vn 0.9756033 -0.04556692 -0.2147601
v 0.18098 0.117999 -0.00458001
vn 0.9503647 -0.3110569 -0.007116958
v 0.0944878 0.208574 0.168458
vn 0.2851761 -0.124878 0.9503053
v 0.088417 1.490116E-08 0
vn 0.198283 -0.9801441 -0.00113396
v 0.144726 0.42867 0
vn 0.7813142 0.4815601 -0.3970491
v 0.0723632 0.42867 0.131209
vn 0.02065481 0.4885162 0.8723103
v 0.258389 0.383369 0.162279
vn 0.8492341 0.171444 0.4994081
v -0.215176 0.650067 -0.0124901
vn -0.9969777 0.05678628 0.05301619
v -0.186687 0.5535361 -0.183262
vn -0.60265 -0.528963 -0.597504
v -0.204706 0.5535361 -0.0124901
vn -0.9249117 -0.3792509 0.02659199
v -0.193087 0.660138 -0.191843
vn -0.6918848 0.07755367 -0.7178308
v -0.169706 0.548035 0.158417
vn -0.8143585 -0.3451158 0.4665997
v -0.165634 0.766741 -0.180871
vn -0.600036 0.5246469 -0.6039059
v -0.175224 0.6046931 0.151025
vn -0.8329641 0.133447 0.5369941
v -0.197369 0.766741 -0.0124901
vn -0.9126572 0.3935101 0.110484
v -0.133383 0.468125 -0.0124901
vn -0.461371 -0.881395 -0.101388
v 0.00210788 0.577237 -0.224756
vn 2.64106E-06 -0.193739 -0.9810531
v 0.00210788 0.472982 -0.165717
vn 0.0001504249 -0.8406036 -0.5416508
v -0.0755416 0.589671 0.228105
vn -0.7508133 0.07037032 0.6567552
v -0.127593 0.480836 0.1351
vn -0.502075 -0.8227879 0.266347
v -0.0367168 0.507692 0.227024
vn -0.5050762 -0.7947922 0.3364571
v -0.124613 0.865587 -0.0124901
vn -0.5215141 0.8512811 0.05782381
v 0.00210788 0.738005 -0.217881
vn 0 0.201036 -0.9795839
v 0.00210788 0.8504031 -0.164956
vn 0 0.814457 -0.580224
v 0.00210788 0.436862 -0.0124901
vn -3.667878E-05 -0.9988045 -0.04888288
v 0.193396 0.5535361 -0.183262
vn 0.605828 -0.5274881 -0.5955911
v 0.135961 0.468125 -0.0124901
vn 0.4575747 -0.8834764 -0.1004729
v -0.0325811 0.645246 0.232366
vn -0.435845 0.3823 0.814792
v -0.130043 0.73919 0.161225
vn -0.6650888 0.4279799 0.6119559
v 0.00210788 0.474356 0.19461
vn 0.0003125202 -0.8949426 0.4461813
v -0.0884565 0.574075 0.279557
vn -0.8511137 -0.0007459528 0.5249809
v 0.0404076 0.5076901 0.22707
vn 0.497837 -0.79902 0.337232
v 0.00210788 0.478198 0.358157
vn -0.01219891 -0.6305873 0.7760224
v 0.16985 0.766741 -0.180871
vn 0.600036 0.5246469 -0.6039059
v 0.00210788 0.880224 -0.0124901
v 0.128829 0.865587 -0.0124901
vn 0.5215141 0.8512811 0.05782381
v 0.00210788 0.457818 0.13639
vn -7.847111E-05 -0.9871981 0.159499
v 0.197302 0.660138 -0.191843
vn 0.6884551 0.08406901 -0.7203901
v 0.00210788 0.650586 0.23871
vn 0.00179843 0.334365 0.942442
v 0.00210788 0.851258 0.127629
vn 0 0.8482662 0.5295701
v 0.00210788 0.772395 0.214858
vn 0 0.4876231 0.8730542
v 0.083159 0.57443 0.279749
vn 0.8298117 0.06941268 0.5537098
v 0.131808 0.480836 0.1351
vn 0.502642 -0.822858 0.265058
v 0.0787073 0.5764 0.228197
vn 0.7294924 0.03086162 0.6832923
v 0.173922 0.548035 0.158417
vn 0.8198512 -0.3471291 0.4553521
v 0.000339555 0.591635 0.297959
vn -0.001963679 0.5586018 0.8294337
v 0.219392 0.650067 -0.0124901
vn 0.9967188 0.05903089 0.05538169
v 0.208922 0.5535361 -0.0124901
vn 0.9222524 -0.3852402 0.03225581
v 0.134259 0.73919 0.161225
vn 0.663801 0.427638 0.613591
v 0.0368019 0.648385 0.228853
vn 0.4597847 0.3406268 0.8201045
v 0.179439 0.6046931 0.151025
vn 0.8278695 0.1360261 0.5441774
v 0.201584 0.766741 -0.0124901
vn 0.9126572 0.3935101 0.110484
v -0.234071 0.980777 -0.128782
vt -0.147379 1.06208
vn -0.860205 0.418143 -0.291897
v -0.164613 0.7639151 -0.110776
vt 0.227821 0.051283
vn -0.7400561 -0.2875111 -0.6079921
v -0.122686 0.852357 -0.037174
vt 0.608684 0.996395
vn -0.2368 0.4196751 0.8762412
vt 0.135854 0.279963
vn 0.516237 -0.679055 0.521904
vt 0.209129 0.0936382
v -0.0767892 0.8284991 -0.113615
vt 0.103371 0.076915
v 0.234071 0.980777 -0.128782
vn 0.8602052 0.4181431 -0.2918961
v 0.122686 0.852357 -0.037174
vn 0.2367989 0.4196748 0.8762416
v 0.164613 0.7639151 -0.110776
vn 0.7400561 -0.2875111 -0.6079921
vn -0.5162362 -0.6790553 0.5219042
v 0.0767892 0.8284991 -0.113615
o merged_0_0_node
g polygon_0
usemtl ear3_mat_id
f 1/1/1 2/1/2 3/1/3
f 1/1/1 4/1/4 2/1/2
f 1/1/1 3/1/3 5/1/5
f 1/1/1 6/1/6 4/1/4
f 1/1/1 5/1/5 7/1/7
f 1/1/1 8/1/8 6/1/6
f 1/1/1 7/1/7 8/1/8
f 2/1/2 9/1/9 3/1/3
f 2/1/2 4/1/4 10/1/10
f 2/1/2 11/1/11 9/1/9
f 2/1/2 10/1/10 11/1/11
f 5/1/5 12/1/12 7/1/7
f 5/1/5 3/1/3 13/1/13
f 5/1/5 14/1/14 12/1/12
f 5/1/5 13/1/13 14/1/14
f 13/1/13 9/1/9 14/1/14
f 13/1/13 3/1/3 9/1/9
f 6/1/6 8/1/8 15/1/15
f 6/1/6 16/1/16 4/1/4
f 6/1/6 15/1/15 16/1/16
f 4/1/4 16/1/16 10/1/10
f 8/1/8 7/1/7 15/1/15
f 11/1/11 17/1/17 9/1/9
f 11/1/11 10/1/10 18/1/18
f 11/1/11 19/1/19 17/1/17
f 11/1/11 18/1/18 19/1/19
f 9/1/9 17/1/17 14/1/14
f 12/1/12 20/1/20 7/1/7
f 12/1/12 19/1/19 18/1/18
f 12/1/12 14/1/14 21/1/21
f 12/1/12 18/1/18 20/1/20
f 12/1/12 21/1/21 19/1/19
f 21/1/21 17/1/17 19/1/19
f 21/1/21 14/1/14 17/1/17
f 7/1/7 20/1/20 15/1/15
f 16/1/16 22/1/22 10/1/10
f 16/1/16 15/1/15 23/1/23
f 16/1/16 23/1/23 22/1/22
f 15/1/15 20/1/20 23/1/23
f 10/1/10 22/1/22 18/1/18
f 20/1/20 24/1/24 23/1/23
f 20/1/20 18/1/18 24/1/24
f 24/1/24 22/1/22 23/1/23
f 24/1/24 18/1/18 22/1/22
f 25/1/25 26/1/26 27/1/27
f 25/1/25 28/1/28 26/1/26
f 25/1/25 27/1/27 29/1/29
f 25/1/25 30/1/30 28/1/28
f 25/1/25 29/1/29 31/1/31
f 25/1/25 32/1/32 30/1/30
f 25/1/25 31/1/31 32/1/32
f 26/1/26 33/1/33 27/1/27
f 26/1/26 28/1/28 34/1/34
f 26/1/26 35/1/35 33/1/33
f 26/1/26 34/1/34 35/1/35
f 29/1/29 36/1/36 31/1/31
f 29/1/29 27/1/27 37/1/37
f 29/1/29 38/1/38 36/1/36
f 29/1/29 37/1/37 38/1/38
f 27/1/27 33/1/33 37/1/37
f 30/1/30 32/1/32 39/1/39
f 30/1/30 40/1/40 28/1/28
f 30/1/30 39/1/39 41/1/41
f 30/1/30 41/1/41 40/1/40
f 28/1/28 40/1/40 34/1/34
f 35/1/35 42/1/42 33/1/33
f 35/1/35 34/1/34 43/1/43
f 35/1/35 44/1/44 42/1/42
f 35/1/35 43/1/43 44/1/44
f 31/1/31 36/1/36 45/1/45
f 31/1/31 46/1/46 32/1/32
f 32/1/32 46/1/46 39/1/39
f 38/1/38 37/1/37 47/1/47
f 38/1/38 48/1/48 36/1/36
f 38/1/38 47/1/47 49/1/49
f 38/1/38 50/1/50 48/1/48
f 38/1/38 49/1/49 50/1/50
f 36/1/36 48/1/48 45/1/45
f 41/1/41 51/1/51 40/1/40
f 41/1/41 39/1/39 52/1/16
f 41/1/41 53/1/52 51/1/51
f 41/1/41 52/1/16 53/1/52
f 33/1/33 42/1/42 54/1/53
f 33/1/33 54/1/53 37/1/37
f 37/1/37 54/1/53 47/1/47
f 42/1/42 44/1/44 54/1/53
f 34/1/34 55/1/54 43/1/43
f 34/1/34 40/1/40 55/1/54
f 40/1/40 51/1/51 55/1/54
f 46/1/46 45/1/45 56/1/55
f 46/1/46 57/1/56 39/1/39
f 46/1/46 56/1/55 58/1/57
f 46/1/46 58/1/57 57/1/56
f 52/1/16 57/1/56 53/1/52
f 52/1/16 39/1/39 57/1/56
f 49/1/49 59/1/58 50/1/50
f 49/1/49 47/1/47 60/1/59
f 49/1/49 61/1/60 59/1/58
f 49/1/49 60/1/59 62/1/61
f 49/1/49 62/1/61 61/1/60
f 54/1/53 44/1/44 60/1/59
f 54/1/53 60/1/59 47/1/47
f 48/1/48 63/1/62 45/1/45
f 48/1/48 50/1/50 63/1/62
f 50/1/50 59/1/58 63/1/62
f 45/1/45 63/1/62 56/1/55
f 43/1/43 55/1/54 64/1/63
f 43/1/43 65/1/64 44/1/44
f 43/1/43 64/1/63 65/1/64
f 65/1/64 64/1/63 62/1/61
f 65/1/64 60/1/59 44/1/44
f 65/1/64 62/1/61 60/1/59
f 55/1/54 51/1/51 64/1/63
f 58/1/57 66/1/65 57/1/56
f 58/1/57 56/1/55 66/1/65
f 57/1/56 66/1/65 53/1/52
f 61/1/60 67/1/66 59/1/58
f 61/1/60 62/1/61 68/1/67
f 61/1/60 68/1/67 67/1/66
f 67/1/66 56/1/55 63/1/62
f 67/1/66 66/1/65 56/1/55
f 67/1/66 63/1/62 59/1/58
f 62/1/61 64/1/63 68/1/67
f 51/1/51 53/1/52 69/1/68
f 51/1/51 69/1/68 64/1/63
f 69/1/68 53/1/52 66/1/65
f 69/1/68 66/1/65 68/1/67
f 69/1/68 68/1/67 64/1/63
f 70/2/69 71/3/70 72/4/71
f 72/5/72 71/6/72 73/7/72
f 74/2/73 75/4/74 76/3/75
f 75/5/76 77/7/76 76/6/76
v 0.166188 0.435044 -0.159174
vt 1.16632 0.520495
vn 0.326937 -0.8007851 -0.501852
v 0 0.446997 -0.226966
vt 0.499978 0.520495
vn 0 -0.7783458 -0.6278358
v 0.14357 0.472854 -0.114634
vt 1.07563 0.732131
vn 0.4150099 0.8600297 -0.2968429
v 0 0.482125 -0.16721
vt 0.499978 0.732131
vn 0 0.893396 -0.44927
v -0.14357 0.472854 -0.114634
vt -0.0756745 0.732131
vn -0.4150099 0.8600297 -0.2968429
v -0.166188 0.435044 -0.159174
vt -0.166359 0.520495
vn -0.326937 -0.8007851 -0.501852
vt 1.00868 0.709504
vt 1.15586 0.499228
v -0.203039 0.450473 0.0122975
vt 0.500057 0.709504
vn -0.6239926 0.7695585 0.1356939
v -0.235025 0.406185 0.0044884
vt 0.500057 0.499228
vn -0.4841999 -0.8616648 -0.151935
v -0.166188 0.377327 0.168151
vt -0.155747 0.499228
vn -0.3269371 -0.9241353 0.1977021
v -0.14357 0.428092 0.139229
vt -0.00856227 0.709504
vn -0.4150099 0.706637 0.5730889
v 0 0.365374 0.235943
vn 0 -0.9461382 0.3237631
v 0 0.418821 0.191805
vn 0 0.6858582 0.7277352
v 0.14357 0.428092 0.139229
vn 0.4150099 0.706637 0.5730889
v 0.166188 0.377327 0.168151
vn 0.3269371 -0.9241353 0.1977021
v 0.203039 0.450473 0.0122975
vn 0.6239926 0.7695585 0.1356939
v 0.235025 0.406185 0.0044884
vn 0.4841999 -0.8616648 -0.151935
v 0 0.347934 -0.00578296
vt 0.499978 0.208574
vn 0 -0.9848078 -0.173648
vt 0.500057 0.189308
v 0 0.57626 0.0344771
vt 0.499978 1.48222
vn 0 0.9848078 0.173648
vt 0.500057 1.45478
o merged_1_0_node
g polygon_0
usemtl mat_kubi_mat_id
f 78/8/77 79/9/78 80/10/79
f 80/10/79 79/9/78 81/11/80
f 81/11/80 79/9/78 82/12/81
f 82/12/81 79/9/78 83/13/82
f 82/14/81 83/15/82 84/16/83
f 84/16/83 83/15/82 85/17/84
f 85/17/84 86/18/85 84/16/83
f 84/16/83 86/18/85 87/19/86
f 86/13/85 88/9/87 87/12/86
f 87/12/86 88/9/87 89/11/88
f 89/11/88 88/9/87 90/10/89
f 90/10/89 88/9/87 91/8/90
f 90/19/89 91/18/90 92/16/91
f 92/16/91 91/18/90 93/17/92
f 93/17/92 78/15/77 92/16/91
f 92/16/91 78/15/77 80/14/79
f 79/9/78 78/8/77 94/20/93
f 83/13/82 79/9/78 94/20/93
f 85/17/84 83/15/82 94/21/93
f 86/18/85 85/17/84 94/21/93
f 88/9/87 86/13/85 94/20/93
f 91/8/90 88/9/87 94/20/93
f 93/17/92 91/18/90 94/21/93
f 78/15/77 93/17/92 94/21/93
f 80/10/79 81/11/80 95/22/94
f 81/11/80 82/12/81 95/22/94
f 82/14/81 84/16/83 95/23/94
f 84/16/83 87/19/86 95/23/94
f 87/12/86 89/11/88 95/22/94
f 89/11/88 90/10/89 95/22/94
f 90/19/89 92/16/91 95/23/94
f 92/16/91 80/14/79 95/23/94
v 0.219534 0.234276 0.196018
vt 0.25 1
vn 1 0 0
v 0.244515 0.259257 0.196018
vt 0 1
vn 0 -1 0
v 0.182063 0.234276 0.205566
vt 0.25 0.666667
vn -0.7536901 0 0.6572301
v 0.244515 0.296728 0.205566
vt 0 0.666667
vn 0 0.7536901 0.6572301
v 0.244515 0.209295 0.196018
vt 0.5 1
v 0.244515 0.171824 0.205566
vt 0.5 0.666667
vn 0 -0.7536901 0.6572301
v 0.269496 0.234276 0.196018
vt 0.75 1
vn -1 0 0
v 0.306967 0.234276 0.205566
vt 0.75 0.666667
vn 0.7536901 0 0.6572301
vt 1 1
vt 1 0.666667
v 0.182063 0.234276 0.18647
vt 0.25 0.333333
vn -0.7536901 0 -0.6572301
v 0.244515 0.296728 0.18647
vt 0 0.333333
vn 0 0.7536901 -0.6572301
v 0.244515 0.171824 0.18647
vt 0.5 0.333333
vn 0 -0.7536901 -0.6572301
v 0.306967 0.234276 0.18647
vt 0.75 0.333333
vn 0.7536901 0 -0.6572301
vt 1 0.333333
vt 0.25 0
vt 0 0
vt 0.5 0
vt 0.75 0
vt 1 0
o merged_2_0_node
g polygon_0
usemtl blinn1_mat_id
f 96/24/95 97/25/96 98/26/97
f 98/26/97 97/25/96 99/27/98
f 100/28/16 96/24/95 101/29/99
f 101/29/99 96/24/95 98/26/97
f 102/30/100 100/28/16 103/31/101
f 103/31/101 100/28/16 101/29/99
f 97/32/96 102/30/100 99/33/98
f 99/33/98 102/30/100 103/31/101
f 98/26/97 99/27/98 104/34/102
f 104/34/102 99/27/98 105/35/103
f 101/29/99 98/26/97 106/36/104
f 106/36/104 98/26/97 104/34/102
f 103/31/101 101/29/99 107/37/105
f 107/37/105 101/29/99 106/36/104
f 99/33/98 103/31/101 105/38/103
f 105/38/103 103/31/101 107/37/105
f 104/34/102 105/35/103 96/39/95
f 96/39/95 105/35/103 97/40/96
f 106/36/104 104/34/102 100/41/16
f 100/41/16 104/34/102 96/39/95
f 107/37/105 106/36/104 102/42/100
f 102/42/100 106/36/104 100/41/16
f 105/38/103 107/37/105 97/43/96
f 97/43/96 107/37/105 102/42/100
vt 0.157938 1.05608
vt 1.01655 0.840903
vt -0.123846 0.664678
vt -14.3284 -2.09952
vn 0.3958142 0.3232051 -0.8595753
vt -14.8868 -2.46845
vt -15.3284 -1.46845
vt -14.6202 -1.96323
vn -0.395814 0.323206 -0.859575
o merged_3_0_node
g polygon_0
usemtl TEX_ANIM_EYE_mat_id
f 66/44/65 67/45/66 68/46/67
f 46/44/46 31/46/31 45/45/45
f 73/47/106 71/48/70 70/49/69
f 72/50/71 73/47/106 70/49/69
f 77/47/107 74/49/73 76/48/75
f 75/50/74 74/49/73 77/47/107
