mtllib Pidgey.mtl
v 0 0.22815 0.0852462
vt 0.551263 0.0113268
vn 0 -0.9995054 0.03144832
v -0.106472 0.245273 0.0852462
vt 0.600346 0.0621897
vn -0.4206229 -0.9072029 0.007699619
v 0 0.243647 -0.0220271
vt 0.953475 0.0573596
vn 0 -0.9029679 -0.429708
v -0.174397 0.297838 0.0852462
vt 0.641878 0.207002
vn -0.8739759 -0.4859659 -0.00180462
v -0.129112 0.312314 -0.0454758
vt 1.13368 0.25
vn -0.6170688 -0.4634958 -0.6359228
v 0 0.299969 -0.0871127
vt 1.24583 0.21333
vn 0 -0.43832 -0.898819
v 0 0.250702 0.198995
vt 0.222225 0.0783142
vn 0 -0.8621742 0.5066121
v -0.129112 0.312314 0.201399
vt 0.332792 0.25
vn -0.6047911 -0.5343591 0.5904981
v 0 0.312314 0.249511
vt 0.0597273 0.25
vn 0 -0.475949 0.8794729
v 0.106472 0.245273 0.0852462
vn 0.4206229 -0.9072029 0.007699609
v 0.174397 0.297838 0.0852462
vn 0.8739759 -0.4859659 -0.00180471
v 0.129112 0.312314 0.201399
vn 0.6047911 -0.5343591 0.5904981
v 0.129112 0.312314 -0.0454758
vn 0.6170688 -0.4634958 -0.6359228
v 0.130261 0.396478 -0.0440193
vt 1.12976 0.5
vn 0.7024289 0.117698 -0.701955
v 0 0.396478 -0.0995744
vt 1.2794 0.5
vn 0 0.108422 -0.994105
v -0.130261 0.396478 -0.0440193
vn -0.7024289 0.117698 -0.701955
v -0.184217 0.378718 0.0852462
vt 0.698512 0.448995
vn -0.9985519 0.05365509 0.003905819
v -0.130261 0.378718 0.21613
vt 0.319542 0.448995
vn -0.6959528 0.02739399 0.7175648
v 0 0.378718 0.271686
vt -0.0368155 0.448995
vn 0 0.00153817 0.9999989
v 0.130261 0.378718 0.21613
vn 0.6959528 0.02739389 0.7175648
v 0.184217 0.378718 0.0852462
vn 0.9985519 0.05365509 0.00390574
v 0.122266 0.480641 -0.0244316
vt 1.077 0.75
vn 0.6268602 0.5037752 -0.5943542
v 0 0.492987 -0.0660686
vt 1.18915 0.786671
vn 0 0.5139432 -0.8578243
v -0.122266 0.480641 -0.0244316
vn -0.6268602 0.5037752 -0.5943542
v -0.161308 0.480641 0.0852462
vt 0.698512 0.75
vn -0.9015846 0.4326028 0.0002332339
v -0.122266 0.480641 0.201399
vt 0.321465 0.75
vn -0.6267889 0.479894 0.6138709
v 0 0.480641 0.249511
vt 0.228108 0.744819
vn 0 0.4543581 0.8908191
v 0.122266 0.480641 0.201399
vn 0.6267883 0.4798943 0.6138713
v 0.161308 0.480641 0.0852462
vn 0.901585 0.432602 0.000233182
v 0 0.564805 0.0852462
vt 0.593371 0.841981
vn 0 0.9993067 0.03723169
v 0 0.549308 -0.00473593
vt 0.789281 0.814082
vn 0 0.8879206 -0.4599968
v -0.0998299 0.542253 0.0852462
vt 0.581468 0.933012
vn -0.4768391 0.8789662 0.006557121
v 0 0.542253 0.180085
vt 0.329016 0.831984
vn 0 0.8831308 0.4691269
v 0.0998299 0.542253 0.0852462
vn 0.4768391 0.8789662 0.006557032
v 0.043319 0.310603 0.270811
vt 0.883896 0.954438
vn 0.7169127 -0.6751198 -0.1739239
v 0 0.271497 0.305737
vt 0.920701 0.992837
vn 0 -0.9965413 0.08309893
v 0 0.267611 0.259134
vt 0.878724 0.965799
vn 0 -0.9776402 -0.210285
v -0.043319 0.310603 0.270811
vn -0.7169127 -0.6751198 -0.1739239
vn 0.6820648 0.5592708 0.4711728
v 0 0.353596 0.282488
vt 0.992254 0.965799
vn 0 0.8341655 0.5515143
vn 0 0.2724689 0.9621646
vn -0.6820648 0.5592708 0.4711728
v -0.043319 0.328595 0.215004
vt 0.883698 0.887547
vn -0.7991941 0.173457 -0.5755011
v 0 0.371587 0.226681
vt 0.992254 0.887445
vn 0 0.9371 -0.349061
v 0 0.285602 0.203327
vt 0.878724 0.887445
vn 0 -0.6006438 -0.7995167
v 0.043319 0.328595 0.215004
vn 0.7991945 0.1734569 -0.5755007
v -0.0407695 0.0954304 -0.292631
vt 0.275708 0.952854
vn -0.1532271 0.9664323 -0.2062281
v -0.0407695 0.0969507 -0.257956
vt 0.227496 1.00012
vn -0.35482 0.9319359 0.07482199
v 0 0.111604 -0.24713
vt 0.101038 0.90124
vn 0 0.9971675 0.07521256
v 0 0.0974127 -0.187346
vt 0.0179135 0.982732
vn 0 0.9729645 0.2309549
v 0.0407695 0.0954304 -0.292631
vt 0.0528981 0.725581
vn 0.1532271 0.9664323 -0.2062281
v 0.0407695 0.0969507 -0.257956
vt 0.00468571 0.772846
vn 0.35482 0.9319359 0.07482199
v 0 0.0954304 -0.304873
vt 0.181324 0.822531
vn 0 0.9629402 -0.2697151
v 0 0.0992611 -0.245686
vt 0.0990311 0.903208
vn 0 -0.9998899 0.0148372
vn 0 -0.9983789 0.05691769
vn -0.03589171 -0.9985903 0.03910491
vn -0.0282595 -0.9979801 0.05689501
vn 0 -0.9994985 -0.03166718
vn 0.03589171 -0.9985903 0.03910491
vn 0.0282595 -0.9979801 0.05689501
o merged_0_0_node
g polygon_0
usemtl poppo_mat_id
f 1/1/1 2/2/2 3/3/3
f 4/4/4 5/5/5 2/2/2
f 2/2/2 5/5/5 3/3/3
f 5/5/5 6/6/6 3/3/3
f 1/1/1 7/7/7 2/2/2
f 4/4/4 2/2/2 8/8/8
f 2/2/2 7/7/7 8/8/8
f 8/8/8 7/7/7 9/9/9
f 1/1/1 10/2/10 7/7/7
f 11/4/11 12/8/12 10/2/10
f 10/2/10 12/8/12 7/7/7
f 12/8/12 9/9/9 7/7/7
f 1/1/1 3/3/3 10/2/10
f 11/4/11 10/2/10 13/5/13
f 10/2/10 3/3/3 13/5/13
f 13/5/13 3/3/3 6/6/6
f 14/10/14 13/5/13 15/11/15
f 13/5/13 6/6/6 15/11/15
f 16/10/16 15/11/15 5/5/5
f 6/6/6 5/5/5 15/11/15
f 4/4/4 17/12/17 5/5/5
f 5/5/5 17/12/17 16/10/16
f 18/13/18 17/12/17 8/8/8
f 4/4/4 8/8/8 17/12/17
f 18/13/18 8/8/8 19/14/19
f 8/8/8 9/9/9 19/14/19
f 20/13/20 19/14/19 12/8/12
f 9/9/9 12/8/12 19/14/19
f 20/13/20 12/8/12 21/12/21
f 12/8/12 11/4/11 21/12/21
f 11/4/11 13/5/13 21/12/21
f 13/5/13 14/10/14 21/12/21
f 14/10/14 15/11/15 22/15/22
f 15/11/15 23/16/23 22/15/22
f 16/10/16 24/15/24 15/11/15
f 15/11/15 24/15/24 23/16/23
f 16/10/16 17/12/17 24/15/24
f 17/12/17 25/17/25 24/15/24
f 17/12/17 26/18/26 25/17/25
f 19/14/19 27/19/27 26/18/26
f 19/14/19 28/18/28 27/19/27
f 21/12/21 29/17/29 28/18/28
f 14/10/14 22/15/22 21/12/21
f 21/12/21 22/15/22 29/17/29
f 30/20/30 31/21/31 32/22/32
f 25/17/25 32/22/32 24/15/24
f 32/22/32 31/21/31 24/15/24
f 31/21/31 23/16/23 24/15/24
f 30/20/30 32/22/32 33/23/33
f 25/17/25 26/18/26 32/22/32
f 32/22/32 26/18/26 33/23/33
f 26/18/26 27/19/27 33/23/33
f 30/20/30 33/23/33 34/22/34
f 29/17/29 34/22/34 28/18/28
f 34/22/34 33/23/33 28/18/28
f 33/23/33 27/19/27 28/18/28
f 30/20/30 34/22/34 31/21/31
f 29/17/29 22/15/22 34/22/34
f 34/22/34 22/15/22 31/21/31
f 22/15/22 23/16/23 31/21/31
f 35/24/35 36/25/36 37/26/37
f 37/26/37 36/25/36 38/24/38
f 35/24/39 39/27/40 36/25/41
f 39/27/40 38/24/42 36/25/41
f 38/24/42 39/27/40 40/28/43
f 40/28/43 39/27/40 41/29/44
f 42/30/45 40/28/43 43/28/46
f 43/28/46 40/28/43 41/29/44
f 37/26/37 42/30/45 35/24/35
f 35/24/35 42/30/45 43/28/46
f 35/24/39 43/28/46 39/27/40
f 39/27/40 43/28/46 41/29/44
f 40/28/43 42/30/45 38/24/38
f 38/24/38 42/30/45 37/26/37
f 44/31/47 45/32/48 46/33/49
f 45/32/48 47/34/50 46/33/49
f 48/35/51 46/33/49 49/36/52
f 47/34/50 49/36/52 46/33/49
f 44/31/47 46/33/49 50/37/53
f 46/33/49 48/35/51 50/37/53
f 51/38/54 50/37/55 49/36/56
f 49/36/56 50/37/55 48/35/57
f 51/38/54 47/34/58 45/32/59
f 51/38/54 49/36/56 47/34/58
f 51/38/54 45/32/59 50/37/55
f 50/37/55 45/32/59 44/31/60
v 0.120737 0.586586 0.0615607
vt 0.638001 0.0532132
vn 0.4354999 0.8956508 0.09027439
v 4.26687E-06 0.564451 0.031904
vt 0.5 0.0125882
vn 0 -0.8971467 -0.4417329
v -0.120728 0.586586 0.0615607
vt 0.361999 0.0532132
vn -0.4354999 0.8956508 0.09027439
v 0.208478 0.536497 -0.0111609
vt 0.814844 0.0125882
vn 0.07100777 -0.9151645 -0.3967768
v 4.26687E-06 0.637872 0.057117
vt 0.5 0.0532132
vn 0 0.9999841 0.005627281
v 0.129245 0.493897 0.206225
vn 0.0702609 -0.9382461 -0.338759
v 0.0571123 0.527719 0.240819
vt 0.63973 0.0916427
vn 0.262144 0.6812961 0.683459
v -0.0571037 0.527719 0.240819
vt 0.360129 0.0918875
vn -0.262144 0.6812961 0.683459
v -0.129237 0.493897 0.206225
vn -0.0702609 -0.9382461 -0.338759
v 4.26687E-06 0.420319 0.284783
vt 0.638032 0.0125882
vn 0 -0.9514853 -0.3076941
v -0.208469 0.536497 -0.0111609
vn -0.07100766 -0.9151645 -0.3967768
v -0.1164559 0.1792116 -0.02562998
vt 0.227628 0.501876
vn -0.816519 -0.5747209 0.05470549
v -0.0830335 0.121924 -0.105142
vt 0.163115 0.245749
vn -0.6947822 0.04528511 -0.7177932
v -0.0830335 0.078022 -0.064936
vt 0.163115 0.375261
vn -0.7899464 -0.5123166 -0.3369218
v -0.2543833 0.2850101 -0.08485298
vt 0.493831 0.312
vn -0.6440558 -0.746793 0.1658073
v -0.117803 0.116962 0.0404296
vt 0.179769 0.709622
vn -0.7903047 -0.4427758 0.4235188
v -0.1478443 0.2118435 0.04461795
vt 0.288211 0.76329
vn -0.7916827 -0.150748 0.5920418
v -0.09517585 0.1716215 0.09494726
vt 0.186553 0.891
vn -0.5593265 -0.180723 0.8090074
v 0 0.0962725 -0.181432
vt 0.010837 0
vn 0 -0.547631 -0.83672
v 0 0.067293 0.0688667
vt 0.010837 0.806271
vn -4.14529E-05 -0.66143 0.750007
v 0 0.0380402 -0.0418617
vt 0.010837 0.449589
vn -0.000192754 -0.9404959 -0.339805
v 0.0830335 0.078022 -0.064936
vn 0.78995 -0.512292 -0.336951
v 0.0830335 0.121924 -0.105142
vn 0.6947822 0.04528531 -0.7177932
v 0 0.147862 0.128731
vt 0.010837 0.999108
vn 0 -0.3430302 0.9393244
v 0.0951764 0.171622 0.0949461
vn 0.5593228 -0.1807249 0.8090097
v 0.117803 0.116962 0.0404297
vn 0.7903473 -0.4427022 0.4235162
v 0.1164559 0.1792116 -0.02562989
vn 0.8165191 -0.5747206 0.05470561
v 0.2543832 0.2850102 -0.08485301
vn 0.6440565 -0.7467924 0.165808
v 0.1478443 0.2118435 0.04461795
vn 0.7916828 -0.1507477 0.5920417
v 0 0.242395 -0.0244113
vt 0.98993 0.506692
vn 0 0.9740387 -0.2263819
v -0.0881851 0.213443 -0.0429253
vt 0.826941 0.447054
vn 0.09507901 0.8061741 -0.5839891
v -0.09517598 0.2238563 0.02595238
vt 0.813447 0.668924
vn -0.09121932 0.9841742 0.1519216
v 0 0.209667 -0.0931006
vt 0.98993 0.285428
vn 0 0.6894399 -0.7243429
v 0 0.246723 0.0856003
vt 0.98993 0.861065
vn 0 0.8487252 0.5288341
v 0.08818442 0.2134431 -0.04292583
vn -0.0950775 0.8061753 -0.5839877
v 0.09517597 0.2238563 0.02595238
vn 0.09121916 0.9841742 0.1519217
vt 0.506169 0.312006
vn 0.403529 0.8117626 -0.4221442
vt 0.836885 0.24664
vt 0.813447 0.89117
vt 0.98993 1
vn -0.4035299 0.8117623 -0.422144
v 0 0.140173 -0.127895
vt 0.98993 0.173348
vn 0 0.5838521 -0.8118601
vt 0.98993 0.00089158
vt 0.711789 0.764182
v -0.0537048 0.00455993 -0.0202963
vt 0.199131 0.0307003
vn -0.3864789 -0.9065579 0.169667
vt 0.148716 0.369906
vt 0.164795 0.413463
vt 0.211325 0.291983
vt 0.224371 0.367625
v 0.0536941 0.00449575 -0.0202588
vt 0.19911 0.0304818
vn 0.3025661 -0.9529642 -0.017691
o merged_1_0_node
g polygon_0
usemtl poppo1_mat_id
f 52/39/61 53/40/62 54/41/63
f 52/39/61 55/42/64 53/40/62
f 52/39/61 54/41/63 56/43/65
f 52/39/61 57/42/66 55/42/64
f 52/39/61 56/43/65 58/44/67
f 52/39/61 58/44/67 57/42/66
f 55/42/64 57/42/66 53/40/62
f 54/41/63 59/45/68 56/43/65
f 56/43/65 59/45/68 58/44/67
f 57/42/66 60/42/69 53/40/62
f 57/42/66 58/44/67 61/46/70
f 57/42/66 61/40/70 60/42/69
f 61/40/70 58/44/67 59/45/68
f 53/40/62 60/42/69 62/42/71
f 53/40/62 62/42/71 54/44/63
f 62/42/71 60/42/69 54/44/63
f 61/46/70 59/44/68 60/42/69
f 60/42/69 59/44/68 54/44/63
f 63/47/72 64/48/73 65/49/74
f 63/47/72 66/50/75 64/48/73
f 63/47/72 65/49/74 67/51/76
f 63/47/72 68/52/77 66/50/75
f 63/47/72 67/51/76 69/53/78
f 63/47/72 69/53/78 68/52/77
f 64/48/73 70/54/79 65/49/74
f 67/51/76 71/55/80 69/53/78
f 70/54/79 72/56/81 65/49/74
f 70/54/79 73/49/82 72/56/81
f 70/54/79 74/48/83 73/49/82
f 71/55/80 75/57/84 69/53/78
f 71/55/80 76/53/85 75/57/84
f 71/55/80 77/51/86 76/53/85
f 74/48/83 78/47/87 73/49/82
f 74/48/83 79/50/88 78/47/87
f 77/51/86 78/47/87 76/53/85
f 77/51/86 73/49/82 78/47/87
f 79/50/88 80/52/89 78/47/87
f 78/47/87 80/52/89 76/53/85
f 81/58/90 82/59/91 83/60/92
f 81/58/90 84/61/93 82/59/91
f 81/58/90 83/60/92 85/62/94
f 81/58/90 86/59/95 84/61/93
f 81/58/90 85/62/94 87/60/96
f 81/58/90 87/60/96 86/59/95
f 82/59/91 66/63/97 83/60/92
f 82/59/91 84/61/93 64/64/73
f 82/59/91 64/64/73 66/63/97
f 85/62/94 76/65/85 87/60/96
f 85/62/94 83/60/92 69/65/78
f 85/62/94 75/66/84 76/65/85
f 85/62/94 69/65/78 75/66/84
f 86/59/95 74/64/83 84/61/93
f 86/59/95 87/60/96 79/63/98
f 86/59/95 79/63/98 74/64/83
f 64/64/73 84/61/93 88/67/99
f 64/64/73 88/67/99 70/68/79
f 88/67/99 84/61/93 74/64/83
f 88/67/99 74/64/83 70/68/79
f 66/63/97 68/69/77 83/60/92
f 83/60/92 68/69/77 69/65/78
f 76/65/85 80/69/89 87/60/96
f 87/60/96 80/69/89 79/63/98
f 89/70/100 71/71/80 67/72/76
f 89/70/100 72/73/81 71/71/80
f 89/70/100 67/72/76 65/74/74
f 89/70/100 65/74/74 72/73/81
f 71/71/80 72/73/81 90/75/101
f 71/71/80 90/75/101 77/72/86
f 72/73/81 73/74/82 90/75/101
f 90/75/101 73/74/82 77/72/86
vt 0.652771 0.752317
vt 0.651503 0.90073
vt 1.2889 0.752317
vt -0.0512837 0.752317
o merged_2_0_node
g polygon_0
usemtl TEX_ANIM_EYE_mat_id
f 18/76/18 26/77/26 17/78/17
f 18/76/18 19/79/19 26/77/26
f 20/76/20 28/77/28 19/79/19
f 20/76/20 21/78/21 28/77/28
