ply
format ascii 1.0
element vertex 794
property float x
property float y
property float z
property uchar red
property uchar green
property uchar blue
element face 872
property list uchar int vertex_index
end_header
0.68436 -0.28195 2.36938 76 126 171
0.5216 -0.28195 2.57283 76 126 171
0.85706 -0.28195 2.84119 76 126 171
1.01982 -0.28195 2.63773 76 126 171
0.68436 -0.0214 2.36938 76 126 171
1.01982 -0.0214 2.63773 76 126 171
1.09082 0.08404 2.5595 76 126 171
1.09082 -0.3874 2.5595 76 126 171
0.79633 -0.3874 2.92764 76 126 171
1.13461 -0.4097 2.56596 76 126 171
0.81225 -0.4097 2.96893 76 126 171
1.76239 -0.33463 3.1643 76 126 171
1.53381 -0.33463 3.45003 76 126 171
1.76239 0.03128 3.1643 76 126 171
1.13461 0.10634 2.56596 76 126 171
0.85706 -0.0214 2.84119 76 126 171
0.79633 0.08404 2.92764 76 126 171
1.77881 0.00384 3.21258 76 126 171
1.77881 -0.30719 3.21258 76 126 171
1.58451 -0.30719 3.45545 76 126 171
0.81225 0.10634 2.96893 76 126 171
1.53381 0.03128 3.45003 76 126 171
1.58451 0.00384 3.45545 76 126 171
0.5216 -0.0214 2.57283 76 126 171
0.5216 -0.28195 2.57283 82 134 183
0.5216 -0.0214 2.57283 82 134 183
0.85706 -0.0214 2.84119 82 134 183
0.85706 -0.28195 2.84119 82 134 183
0.81225 0.10634 2.96893 82 134 183
1.53381 0.03128 3.45003 82 134 183
1.53381 -0.33463 3.45003 82 134 183
0.81225 -0.4097 2.96893 82 134 183
1.58451 -0.30719 3.45545 82 134 183
1.58451 0.00384 3.45545 82 134 183
0.9747 -0.69068 1.94515 76 126 171
0.9747 -0.69068 2.2057 76 126 171
1.10816 -0.69068 2.2057 76 126 171
1.10816 -0.69068 1.94515 76 126 171
0.9747 -0.43013 1.94515 76 126 171
1.10816 -0.43013 1.94515 76 126 171
1.13589 -0.44967 1.96469 76 126 171
1.13589 -0.67114 1.96469 76 126 171
1.13589 -0.67114 2.18616 76 126 171
0.9747 -0.69068 2.2057 82 134 183
0.9747 -0.43013 2.2057 82 134 183
1.10816 -0.43013 2.2057 82 134 183
1.10816 -0.69068 2.2057 82 134 183
1.13589 -0.67114 2.18616 82 134 183
1.13589 -0.44967 2.18616 82 134 183
0.9747 -0.43013 2.2057 76 126 171
1.10816 -0.43013 2.2057 76 126 171
1.13589 -0.44967 2.18616 76 126 171
0.9747 -0.69068 1.05358 76 126 171
0.9747 -0.69068 1.31413 76 126 171
1.10816 -0.69068 1.31413 76 126 171
1.10816 -0.69068 1.05358 76 126 171
0.9747 -0.43013 1.05358 76 126 171
1.10816 -0.43013 1.05358 76 126 171
1.13589 -0.67114 1.07312 76 126 171
1.13589 -0.44967 1.07312 76 126 171
1.13589 -0.44967 1.29459 76 126 171
1.13589 -0.67114 1.29459 76 126 171
1.10816 -0.43013 1.31413 76 126 171
0.9747 -0.43013 1.31413 76 126 171
0.9747 -0.69068 1.31413 82 134 183
0.9747 -0.43013 1.31413 82 134 183
1.10816 -0.43013 1.31413 82 134 183
1.10816 -0.69068 1.31413 82 134 183
1.13589 -0.67114 1.29459 82 134 183
1.13589 -0.44967 1.29459 82 134 183
-0.9747 -0.69068 1.94515 76 126 171
-1.10816 -0.69068 1.94515 76 126 171
-1.10816 -0.69068 2.2057 76 126 171
-0.9747 -0.69068 2.2057 76 126 171
-0.9747 -0.43013 1.94515 76 126 171
-1.10816 -0.43013 1.94515 76 126 171
-1.13589 -0.67114 2.18616 76 126 171
-1.13589 -0.67114 1.96469 76 126 171
-1.13589 -0.44967 2.18616 76 126 171
-1.13589 -0.44967 1.96469 76 126 171
-1.10816 -0.43013 2.2057 76 126 171
-0.9747 -0.43013 2.2057 76 126 171
-0.9747 -0.69068 2.2057 82 134 183
-1.10816 -0.69068 2.2057 82 134 183
-1.10816 -0.43013 2.2057 82 134 183
-0.9747 -0.43013 2.2057 82 134 183
-1.13589 -0.44967 2.18616 82 134 183
-1.13589 -0.67114 2.18616 82 134 183
-0.9747 -0.69068 1.05358 76 126 171
-1.10816 -0.69068 1.05358 76 126 171
-1.10816 -0.69068 1.31413 76 126 171
-0.9747 -0.69068 1.31413 76 126 171
-0.9747 -0.43013 1.05358 76 126 171
-1.10816 -0.43013 1.05358 76 126 171
-1.13589 -0.67114 1.29459 76 126 171
-1.13589 -0.67114 1.07312 76 126 171
-1.13589 -0.44967 1.29459 76 126 171
-1.13589 -0.44967 1.07312 76 126 171
-1.10816 -0.43013 1.31413 76 126 171
-0.9747 -0.43013 1.31413 76 126 171
-0.9747 -0.69068 1.31413 82 134 183
-1.10816 -0.69068 1.31413 82 134 183
-1.10816 -0.43013 1.31413 82 134 183
-0.9747 -0.43013 1.31413 82 134 183
-1.13589 -0.44967 1.29459 82 134 183
-1.13589 -0.67114 1.29459 82 134 183
0.96413 -0.32028 1.48327 76 126 171
0.96413 -0.32028 1.82207 76 126 171
1.61183 -0.2895 1.79128 76 126 171
1.61183 -0.2895 1.51406 76 126 171
0.96413 0.01852 1.48327 76 126 171
1.61183 -0.01227 1.51406 76 126 171
1.64088 -0.04092 1.54271 76 126 171
1.64088 -0.26085 1.54271 76 126 171
1.64088 -0.26085 1.76264 76 126 171
0.96413 -0.32028 1.82207 82 134 183
0.96413 0.01852 1.82207 82 134 183
1.61183 -0.01227 1.79128 82 134 183
1.61183 -0.2895 1.79128 82 134 183
1.64088 -0.26085 1.76264 82 134 183
1.64088 -0.04092 1.76264 82 134 183
0.96413 0.01852 1.82207 76 126 171
1.61183 -0.01227 1.79128 76 126 171
1.64088 -0.04092 1.76264 76 126 171
0.96413 -0.32028 0.63021 76 126 171
0.96413 -0.32028 0.96901 76 126 171
1.61183 -0.2895 0.93822 76 126 171
1.61183 -0.2895 0.66099 76 126 171
0.96413 0.01852 0.63021 76 126 171
1.61183 -0.01227 0.66099 76 126 171
1.64088 -0.04092 0.68964 76 126 171
1.64088 -0.26085 0.68964 76 126 171
1.64088 -0.26085 0.90957 76 126 171
0.96413 -0.32028 0.96901 82 134 183
0.96413 0.01852 0.96901 82 134 183
1.61183 -0.01227 0.93822 82 134 183
1.61183 -0.2895 0.93822 82 134 183
1.64088 -0.26085 0.90957 82 134 183
1.64088 -0.04092 0.90957 82 134 183
0.96413 0.01852 0.96901 76 126 171
1.61183 -0.01227 0.93822 76 126 171
1.64088 -0.04092 0.90957 76 126 171
-0.96413 -0.32028 1.48327 76 126 171
-1.61183 -0.2895 1.51406 76 126 171
-1.61183 -0.2895 1.79128 76 126 171
-0.96413 -0.32028 1.82207 76 126 171
-0.96413 0.01852 1.48327 76 126 171
-1.61183 -0.01227 1.51406 76 126 171
-1.64088 -0.26085 1.76264 76 126 171
-1.64088 -0.26085 1.54271 76 126 171
-1.64088 -0.04092 1.76264 76 126 171
-1.64088 -0.04092 1.54271 76 126 171
-0.96413 -0.32028 1.82207 82 134 183
-1.61183 -0.2895 1.79128 82 134 183
-1.61183 -0.01227 1.79128 82 134 183
-0.96413 0.01852 1.82207 82 134 183
-1.64088 -0.04092 1.76264 82 134 183
-1.64088 -0.26085 1.76264 82 134 183
-0.96413 0.01852 1.82207 76 126 171
-1.61183 -0.01227 1.79128 76 126 171
-0.96413 -0.32028 0.63021 76 126 171
-1.61183 -0.2895 0.66099 76 126 171
-1.61183 -0.2895 0.93822 76 126 171
-0.96413 -0.32028 0.96901 76 126 171
-0.96413 0.01852 0.63021 76 126 171
-1.61183 -0.01227 0.66099 76 126 171
-1.64088 -0.26085 0.90957 76 126 171
-1.64088 -0.26085 0.68964 76 126 171
-1.64088 -0.04092 0.90957 76 126 171
-1.64088 -0.04092 0.68964 76 126 171
-0.96413 -0.32028 0.96901 82 134 183
-1.61183 -0.2895 0.93822 82 134 183
-1.61183 -0.01227 0.93822 82 134 183
-0.96413 0.01852 0.96901 82 134 183
-1.64088 -0.04092 0.90957 82 134 183
-1.64088 -0.26085 0.90957 82 134 183
-0.96413 0.01852 0.96901 76 126 171
-1.61183 -0.01227 0.93822 76 126 171
-0.68436 -0.28195 2.36938 76 126 171
-1.01982 -0.28195 2.63773 76 126 171
-0.85706 -0.28195 2.84119 76 126 171
-0.5216 -0.28195 2.57283 76 126 171
-0.68436 -0.0214 2.36938 76 126 171
-1.01982 -0.0214 2.63773 76 126 171
-1.09082 0.08404 2.5595 76 126 171
-1.09082 -0.3874 2.5595 76 126 171
-0.79633 -0.3874 2.92764 76 126 171
-1.13461 -0.4097 2.56596 76 126 171
-0.81225 -0.4097 2.96893 76 126 171
-1.76239 -0.33463 3.1643 76 126 171
-1.53381 -0.33463 3.45003 76 126 171
-1.76239 0.03128 3.1643 76 126 171
-1.13461 0.10634 2.56596 76 126 171
-0.85706 -0.0214 2.84119 76 126 171
-0.79633 0.08404 2.92764 76 126 171
-1.77881 0.00384 3.21258 76 126 171
-1.77881 -0.30719 3.21258 76 126 171
-1.58451 -0.30719 3.45545 76 126 171
-0.81225 0.10634 2.96893 76 126 171
-1.53381 0.03128 3.45003 76 126 171
-1.58451 0.00384 3.45545 76 126 171
-0.5216 -0.0214 2.57283 76 126 171
-0.5216 -0.28195 2.57283 82 134 183
-0.85706 -0.28195 2.84119 82 134 183
-0.85706 -0.0214 2.84119 82 134 183
-0.5216 -0.0214 2.57283 82 134 183
-0.81225 0.10634 2.96893 82 134 183
-0.81225 -0.4097 2.96893 82 134 183
-1.53381 -0.33463 3.45003 82 134 183
-1.53381 0.03128 3.45003 82 134 183
-1.58451 -0.30719 3.45545 82 134 183
-1.58451 0.00384 3.45545 82 134 183
0.19351 -0.75193 1.49401 59 58 60
0.19351 -0.75193 1.59157 59 58 60
0.23501 -0.75193 1.59157 59 58 60
0.23501 -0.75193 1.49401 59 58 60
0.19351 -0.73723 1.49401 59 58 60
0.23501 -0.73723 1.49401 59 58 60
0.23501 -0.73723 1.59157 59 58 60
0.19351 -0.73723 1.59157 59 58 60
-0.19351 -0.75193 1.49401 59 58 60
-0.23501 -0.75193 1.49401 59 58 60
-0.23501 -0.75193 1.59157 59 58 60
-0.19351 -0.75193 1.59157 59 58 60
-0.19351 -0.73723 1.49401 59 58 60
-0.23501 -0.73723 1.49401 59 58 60
-0.23501 -0.73723 1.59157 59 58 60
-0.19351 -0.73723 1.59157 59 58 60
0.17741 -0.74574 1.25802 70 69 71
0.17741 -0.74574 1.36203 70 69 71
0.21282 -0.74574 1.36203 70 69 71
0.21282 -0.74574 1.25802 70 69 71
0.21282 -0.73518 1.36203 70 69 71
0.21282 -0.73518 1.25802 70 69 71
0.17741 -0.73518 1.25802 70 69 71
0.17741 -0.73518 1.36203 70 69 71
0.02838 -0.74574 1.25802 70 69 71
0.02838 -0.74574 1.36203 70 69 71
0.0638 -0.74574 1.36203 70 69 71
0.0638 -0.74574 1.25802 70 69 71
0.0638 -0.73518 1.36203 70 69 71
0.0638 -0.73518 1.25802 70 69 71
0.02838 -0.73518 1.25802 70 69 71
0.02838 -0.73518 1.36203 70 69 71
0.16844 0.97688 2.36462 82 134 183
0.16844 1.56648 2.36462 82 134 183
0.3444 1.56648 2.36462 82 134 183
0.3444 0.97688 2.36462 82 134 183
0.16844 1.56648 2.36462 76 126 171
0.16844 1.56648 1.71717 76 126 171
0.3444 1.56648 1.86443 76 126 171
0.3444 1.56648 2.36462 76 126 171
0.3444 0.97688 1.86443 76 126 171
0.3444 0.97688 2.36462 76 126 171
0.20771 1.56648 1.67978 76 126 171
0.3444 1.56648 1.67978 76 126 171
0.48816 1.56648 1.86443 76 126 171
0.52645 1.56648 1.82598 76 126 171
0.52645 1.56648 1.23618 76 126 171
0.3444 1.56648 1.35626 76 126 171
0.52645 0.97688 1.23618 76 126 171
0.52645 0.97688 1.82598 76 126 171
0.49013 1.56648 1.19403 76 126 171
0.49013 0.97688 1.19403 76 126 171
0.3444 0.97688 1.19403 76 126 171
0.3444 1.56648 1.19403 76 126 171
0.3444 0.97688 0.72031 76 126 171
0.3444 1.56648 0.72031 76 126 171
0.15114 0.97688 0.72031 76 126 171
0.15114 1.56648 0.72031 76 126 171
0.15114 1.56648 1.31577 76 126 171
0.1855 1.56648 1.35626 76 126 171
0.20771 1.56648 1.67978 58 90 120
0.20771 0.97688 1.67978 58 90 120
0.3444 0.97688 1.67978 58 90 120
0.3444 1.56648 1.67978 58 90 120
0.16844 0.97688 1.71717 58 90 120
0.16844 1.56648 1.71717 58 90 120
0.16844 0.97688 2.36462 58 90 120
0.16844 1.56648 2.36462 58 90 120
0.3444 1.56648 1.35626 58 90 120
0.3444 0.97688 1.35626 58 90 120
0.1855 1.56648 1.35626 58 90 120
0.1855 0.97688 1.35626 58 90 120
0.15114 1.56648 1.31577 58 90 120
0.15114 0.97688 1.31577 58 90 120
0.15114 1.56648 0.72031 58 90 120
0.15114 0.97688 0.72031 58 90 120
0.52645 0.97688 1.82598 82 134 183
0.48816 0.97688 1.86443 82 134 183
0.48816 1.56648 1.86443 82 134 183
0.52645 1.56648 1.82598 82 134 183
0.3444 1.56648 1.86443 82 134 183
0.3444 0.97688 1.86443 82 134 183
-0.16844 0.97688 2.36462 82 134 183
-0.3444 0.97688 2.36462 82 134 183
-0.3444 1.56648 2.36462 82 134 183
-0.16844 1.56648 2.36462 82 134 183
-0.16844 1.56648 2.36462 76 126 171
-0.3444 1.56648 2.36462 76 126 171
-0.3444 1.56648 1.86443 76 126 171
-0.16844 1.56648 1.71717 76 126 171
-0.3444 0.97688 1.86443 76 126 171
-0.3444 0.97688 2.36462 76 126 171
-0.20771 1.56648 1.67978 76 126 171
-0.3444 1.56648 1.67978 76 126 171
-0.48816 1.56648 1.86443 76 126 171
-0.52645 1.56648 1.82598 76 126 171
-0.52645 1.56648 1.23618 76 126 171
-0.3444 1.56648 1.35626 76 126 171
-0.52645 0.97688 1.23618 76 126 171
-0.52645 0.97688 1.82598 76 126 171
-0.49013 1.56648 1.19403 76 126 171
-0.49013 0.97688 1.19403 76 126 171
-0.3444 0.97688 1.19403 76 126 171
-0.3444 1.56648 1.19403 76 126 171
-0.3444 0.97688 0.72031 76 126 171
-0.3444 1.56648 0.72031 76 126 171
-0.15114 0.97688 0.72031 76 126 171
-0.15114 1.56648 0.72031 76 126 171
-0.15114 1.56648 1.31577 76 126 171
-0.1855 1.56648 1.35626 76 126 171
-0.20771 1.56648 1.67978 58 90 120
-0.3444 1.56648 1.67978 58 90 120
-0.3444 0.97688 1.67978 58 90 120
-0.20771 0.97688 1.67978 58 90 120
-0.16844 0.97688 1.71717 58 90 120
-0.16844 1.56648 1.71717 58 90 120
-0.16844 0.97688 2.36462 58 90 120
-0.16844 1.56648 2.36462 58 90 120
-0.3444 1.56648 1.35626 58 90 120
-0.3444 0.97688 1.35626 58 90 120
-0.1855 1.56648 1.35626 58 90 120
-0.1855 0.97688 1.35626 58 90 120
-0.15114 1.56648 1.31577 58 90 120
-0.15114 0.97688 1.31577 58 90 120
-0.15114 1.56648 0.72031 58 90 120
-0.15114 0.97688 0.72031 58 90 120
-0.52645 0.97688 1.82598 82 134 183
-0.52645 1.56648 1.82598 82 134 183
-0.48816 1.56648 1.86443 82 134 183
-0.48816 0.97688 1.86443 82 134 183
-0.3444 1.56648 1.86443 82 134 183
-0.3444 0.97688 1.86443 82 134 183
-0.42267 0.05279 1.951 103 93 159
-0.36322 0.1136 1.951 103 93 159
0.36322 0.1136 1.951 103 93 159
0.42267 0.05279 1.951 103 93 159
-0.42267 -0.65297 1.951 103 93 159
0.42267 -0.65297 1.951 103 93 159
0.36322 -0.71378 1.951 103 93 159
-0.36322 -0.71378 1.951 103 93 159
-0.42267 -0.65297 1.01212 97 88 150
-0.36322 -0.71378 1.01212 97 88 150
0.36322 -0.71378 1.01212 97 88 150
0.42267 -0.65297 1.01212 97 88 150
-0.40729 -0.76446 1.06408 97 88 150
0.40729 -0.76446 1.06408 97 88 150
0.47335 -0.69689 1.06408 97 88 150
-0.47335 -0.69689 1.06408 97 88 150
0.32198 -0.76446 1.26175 97 88 150
0.40729 -0.76446 1.45004 97 88 150
0.34411 -0.76446 1.35732 97 88 150
0.34411 -0.73737 1.35732 97 88 150
0.32198 -0.73737 1.26175 97 88 150
-0.34411 -0.76446 1.35732 97 88 150
-0.34411 -0.73737 1.35732 97 88 150
0.09795 -0.76446 1.45004 97 88 150
0.40729 -0.73997 1.45004 97 88 150
0.09795 -0.73997 1.45004 97 88 150
0.40729 -0.76446 1.75557 97 88 150
0.40729 -0.73997 1.75557 97 88 150
-0.32198 -0.76446 1.26175 97 88 150
-0.40729 -0.76446 1.45004 97 88 150
-0.32198 -0.73737 1.26175 97 88 150
-0.09795 -0.76446 1.45004 97 88 150
-0.40729 -0.73997 1.45004 97 88 150
-0.09795 -0.73997 1.45004 97 88 150
-0.40729 -0.76446 1.75557 97 88 150
-0.47335 -0.69689 1.48122 97 88 150
0.40729 -0.76446 1.89837 97 88 150
0.47335 -0.69689 1.48122 97 88 150
0.47335 -0.69689 1.89837 97 88 150
0.47335 0.09671 1.89837 97 88 150
0.42267 -0.65297 1.951 97 88 150
0.36322 -0.71378 1.951 97 88 150
0.42267 0.05279 1.951 97 88 150
-0.40729 -0.76446 1.89837 97 88 150
-0.36322 -0.71378 1.951 97 88 150
-0.42267 -0.65297 1.951 97 88 150
-0.47335 -0.69689 1.89837 97 88 150
-0.42267 0.05279 1.951 97 88 150
-0.47335 0.09671 1.89837 97 88 150
-0.36322 0.1136 1.951 97 88 150
-0.40729 0.16428 1.89837 97 88 150
0.36322 0.1136 1.951 97 88 150
0.40729 0.16428 1.89837 97 88 150
0.40729 0.16428 1.06408 97 88 150
0.47335 0.09671 1.06408 97 88 150
0.42267 0.05279 1.01212 97 88 150
0.36322 0.1136 1.01212 97 88 150
-0.40729 0.16428 1.06408 97 88 150
-0.47335 0.09671 1.06408 97 88 150
-0.42267 0.05279 1.01212 97 88 150
-0.36322 0.1136 1.01212 97 88 150
0.40729 -0.73997 1.75557 233 233 234
0.40729 -0.73997 1.45004 233 233 234
0.09795 -0.73997 1.45004 233 233 234
-0.40729 -0.73997 1.75557 97 88 150
-0.40729 -0.73997 1.75557 233 233 234
-0.09795 -0.73997 1.45004 233 233 234
-0.40729 -0.73997 1.45004 233 233 234
0.34411 -0.73737 1.35732 232 232 233
0.32198 -0.73737 1.26175 232 232 233
-0.32198 -0.73737 1.26175 232 232 233
-0.34411 -0.73737 1.35732 232 232 233
0.34369 0.83262 2.49935 162 183 200
0.34369 -0.54058 2.49935 162 183 200
0.29456 -0.54058 2.5536 162 183 200
0.29456 0.83262 2.5536 162 183 200
-0.29456 -0.54058 2.5536 162 183 200
-0.29456 0.83262 2.5536 162 183 200
-0.34369 0.83262 2.49935 162 183 200
-0.34369 -0.54058 2.49935 162 183 200
0.66063 -0.54058 2.19153 162 183 200
0.34369 -0.54058 2.19153 162 183 200
0.34369 0.83262 2.19153 162 183 200
0.66063 0.83262 2.19153 162 183 200
0.70641 0.83262 2.1428 162 183 200
0.70641 -0.54058 2.1428 162 183 200
0.34369 -0.54058 2.19153 152 174 191
0.66063 -0.54058 2.19153 152 174 191
0.55606 -0.54058 2.03951 152 174 191
0.24409 -0.54058 2.03946 152 174 191
0.70641 -0.54058 2.1428 152 174 191
0.55606 -0.54058 0.93476 152 174 191
0.70641 -0.54058 0.82891 152 174 191
0.70641 0.83262 2.1428 152 174 191
0.70641 0.83262 0.82891 152 174 191
0.6415 0.83262 0.7751 152 174 191
0.6415 -0.54058 0.7751 152 174 191
-0.55606 -0.54058 0.93476 152 174 191
-0.6415 -0.54058 0.7751 152 174 191
-0.70641 -0.54058 0.82891 152 174 191
-0.6415 0.83262 0.7751 152 174 191
-0.70641 0.83262 0.82891 152 174 191
-0.70641 0.83262 2.1428 152 174 191
-0.70641 -0.54058 2.1428 152 174 191
-0.55606 -0.54058 2.03951 152 174 191
-0.66063 -0.54058 2.19153 152 174 191
-0.34369 -0.54058 2.19153 152 174 191
-0.24409 -0.54058 2.03946 152 174 191
-0.24367 -0.54058 2.42359 152 174 191
-0.34369 -0.54058 2.49935 152 174 191
-0.34369 0.83262 2.49935 152 174 191
-0.34369 0.83262 2.19153 152 174 191
-0.29456 -0.54058 2.5536 152 174 191
-0.22102 -0.54058 2.45072 152 174 191
0.29456 -0.54058 2.5536 152 174 191
0.22102 -0.54058 2.45072 152 174 191
0.34369 -0.54058 2.49935 152 174 191
0.24367 -0.54058 2.42359 152 174 191
0.34369 0.83262 2.49935 152 174 191
0.34369 0.83262 2.19153 152 174 191
0.55606 -0.54058 2.03951 100 119 146
0.55606 -0.54058 0.93476 100 119 146
0.55606 0.44923 0.93476 100 119 146
0.55606 0.44923 2.03951 100 119 146
-0.55606 0.44923 0.93476 100 119 146
-0.55606 -0.54058 0.93476 100 119 146
-0.55606 0.44923 2.03951 100 119 146
0.24409 -0.54058 2.03946 100 119 146
-0.55606 -0.54058 2.03951 100 119 146
0.18489 -0.54058 2.03942 100 119 146
0.24367 -0.54058 2.42359 100 119 146
0.18489 -0.54058 2.39733 100 119 146
0.22102 -0.54058 2.45072 100 119 146
-0.18489 -0.54058 2.39733 100 119 146
-0.22102 -0.54058 2.45072 100 119 146
-0.24367 -0.54058 2.42359 100 119 146
-0.18489 -0.54058 2.03942 100 119 146
-0.24409 -0.54058 2.03946 100 119 146
0.18489 -0.54058 2.03942 152 174 191
0.15683 -1.375 2.06917 152 174 191
0.15683 -1.375 2.36758 152 174 191
0.18489 -0.54058 2.39733 152 174 191
-0.18489 -0.54058 2.03942 152 174 191
-0.15683 -1.375 2.06917 152 174 191
-0.15683 -1.375 2.36758 152 174 191
-0.18489 -0.54058 2.39733 152 174 191
-0.1333 -1.406 2.09155 152 174 191
-0.1333 -1.406 2.3452 152 174 191
0.1333 -1.406 2.3452 152 174 191
0.1333 -1.406 2.09155 152 174 191
0.15683 -1.375 2.36758 162 183 200
-0.15683 -1.375 2.36758 162 183 200
-0.18489 -0.54058 2.39733 162 183 200
0.18489 -0.54058 2.39733 162 183 200
-0.1333 -1.406 2.3452 162 183 200
0.1333 -1.406 2.3452 162 183 200
-0.66063 -0.54058 2.19153 162 183 200
-0.66063 0.83262 2.19153 162 183 200
-0.34369 0.83262 2.19153 162 183 200
-0.34369 -0.54058 2.19153 162 183 200
-0.70641 0.83262 2.1428 162 183 200
-0.70641 -0.54058 2.1428 162 183 200
0.23636 -0.78803 2.6532 76 126 171
0.18542 -0.78803 2.70669 76 126 171
0.35548 -0.78803 2.82372 76 126 171
0.47138 -0.78803 2.6532 76 126 171
0.59781 -0.78803 2.82372 76 126 171
0.65075 -0.78803 2.76814 76 126 171
0.47138 -0.78803 2.3766 76 126 171
0.65075 -0.78803 2.49154 76 126 171
0.65075 0.99546 2.76814 76 126 171
0.65075 0.99546 2.49154 76 126 171
0.52954 -0.78803 2.3187 76 126 171
0.81781 -0.78803 2.3187 76 126 171
0.93902 -0.78803 2.49154 76 126 171
0.99479 -0.78803 2.43573 76 126 171
0.81781 -0.78803 0.68623 76 126 171
0.99479 -0.78803 0.5577 76 126 171
0.94216 -0.78803 0.5033 76 126 171
0.94216 0.99546 0.5033 76 126 171
0.99479 0.99546 0.5577 76 126 171
0.43771 -0.78803 0.5033 76 126 171
0.43771 0.93222 0.5033 76 126 171
0.29769 -0.78803 0.68623 76 126 171
0.24745 -0.78803 0.63391 76 126 171
0.43771 -0.78803 0.2201 76 126 171
0.43771 0.93222 0.2201 76 126 171
0.24745 -0.78803 0.2201 76 126 171
0.24745 0.76298 0.2201 76 126 171
0.99479 0.99546 0.83079 76 126 171
0.99479 0.3246 0.83079 76 126 171
1.14029 1.07315 0.83079 76 126 171
1.13973 0.3246 0.83079 76 126 171
0.99479 0.3246 1.40529 76 126 171
1.13973 0.3246 1.40529 76 126 171
1.14029 1.07315 1.40529 76 126 171
0.99479 0.99546 1.40529 76 126 171
0.99479 0.3246 1.63424 76 126 171
0.99479 0.99546 1.63433 76 126 171
0.99479 0.3246 2.25287 76 126 171
0.99479 0.99546 2.43573 76 126 171
0.99479 0.99546 2.25287 76 126 171
0.93902 0.99546 2.49154 76 126 171
0.28677 0.99546 2.25287 76 126 171
-0.28677 0.99546 2.25287 76 126 171
-0.65075 0.99546 2.49154 76 126 171
-0.99479 0.99546 2.25287 76 126 171
-0.99479 0.99546 2.43573 76 126 171
-0.99479 0.3246 2.25287 76 126 171
-0.93902 0.99546 2.49154 76 126 171
-0.65075 0.99546 2.76814 76 126 171
-0.28116 0.99546 2.82372 76 126 171
-0.59781 0.99546 2.82372 76 126 171
0.28116 0.99546 2.82372 76 126 171
-0.28116 0.99546 3.16831 76 126 171
0.28116 0.99546 3.16831 76 126 171
0.35548 0.9355 3.16831 76 126 171
0.35548 0.9355 2.82372 76 126 171
0.59781 0.99546 2.82372 76 126 171
0.35548 -0.78803 3.16831 76 126 171
0.18542 -0.78803 3.16831 76 126 171
-0.35548 0.9355 2.82372 76 126 171
-0.35548 0.9355 3.16831 76 126 171
0.23636 -0.78803 2.6532 58 90 120
0.23636 0.81482 2.6532 58 90 120
0.18542 0.76262 2.70669 58 90 120
0.18542 -0.78803 2.70669 58 90 120
0.47138 0.81482 2.6532 58 90 120
0.47138 -0.78803 2.6532 58 90 120
0.47138 0.81482 2.3766 58 90 120
0.47138 -0.78803 2.3766 58 90 120
0.52954 -0.78803 2.3187 58 90 120
0.52954 0.81482 2.3187 58 90 120
0.81781 0.81482 2.3187 58 90 120
0.81781 -0.78803 2.3187 58 90 120
0.81781 0.81482 0.68623 58 90 120
0.81781 -0.78803 0.68623 58 90 120
0.29769 0.81482 0.68623 58 90 120
0.29769 -0.78803 0.68623 58 90 120
0.24745 -0.78803 0.63391 58 90 120
0.24745 0.76298 0.63391 58 90 120
0.24745 0.76298 0.2201 58 90 120
0.24745 -0.78803 0.2201 58 90 120
-0.52954 0.81482 2.3187 58 90 120
-0.29769 0.81482 0.68623 58 90 120
-0.81781 0.81482 0.68623 58 90 120
-0.81781 -0.78803 0.68623 58 90 120
-0.81781 -0.78803 2.3187 58 90 120
-0.81781 0.81482 2.3187 58 90 120
-0.52954 -0.78803 2.3187 58 90 120
-0.47138 0.81482 2.3766 58 90 120
-0.47138 -0.78803 2.3766 58 90 120
-0.47138 -0.78803 2.6532 58 90 120
-0.47138 0.81482 2.6532 58 90 120
-0.29769 -0.78803 0.68623 58 90 120
-0.24745 -0.78803 0.63391 58 90 120
-0.24745 0.76298 0.63391 58 90 120
-0.24745 0.76298 0.2201 58 90 120
-0.24745 -0.78803 0.2201 58 90 120
-0.23636 -0.78803 2.6532 58 90 120
-0.23636 0.81482 2.6532 58 90 120
-0.18542 0.76262 2.70669 58 90 120
-0.18542 -0.78803 2.70669 58 90 120
-0.18542 0.76262 3.16831 58 90 120
-0.18542 -0.78803 3.16831 58 90 120
-0.20827 0.81482 0.2201 58 90 120
-0.20827 0.81482 0.63391 58 90 120
-0.13266 0.81482 3.16831 58 90 120
-0.13266 0.81482 2.70669 58 90 120
0.13266 0.81482 2.70669 58 90 120
0.13266 0.81482 3.16831 58 90 120
0.18542 0.76262 3.16831 58 90 120
0.18542 -0.78803 3.16831 58 90 120
0.20827 0.81482 0.63391 58 90 120
0.20827 0.81482 0.2201 58 90 120
0.65075 0.99546 2.76814 82 134 183
0.65075 -0.78803 2.76814 82 134 183
0.59781 -0.78803 2.82372 82 134 183
0.59781 0.99546 2.82372 82 134 183
0.35548 0.9355 2.82372 82 134 183
0.35548 -0.78803 2.82372 82 134 183
0.93902 -0.78803 2.49154 82 134 183
0.65075 -0.78803 2.49154 82 134 183
0.65075 0.99546 2.49154 82 134 183
0.93902 0.99546 2.49154 82 134 183
0.99479 0.99546 2.43573 82 134 183
0.99479 -0.78803 2.43573 82 134 183
0.28116 0.99546 2.82372 82 134 183
1.07741 1.14153 2.25287 76 126 171
1.07741 1.14153 1.63433 76 126 171
1.14029 1.07315 1.63429 76 126 171
1.14029 1.07315 2.25287 76 126 171
0.4949 1.14116 1.79768 76 126 171
0.4949 1.14128 1.63424 76 126 171
0.28622 1.14116 2.25287 76 126 171
0.29706 1.1411 1.7971 76 126 171
1.13973 0.3246 1.63424 76 126 171
1.07741 1.14153 1.40529 76 126 171
1.07741 1.14153 0.83079 76 126 171
0.4949 1.14128 1.40529 76 126 171
0.4949 1.14116 1.26306 76 126 171
0.29447 1.14114 0.83079 76 126 171
0.29468 1.14111 1.26306 76 126 171
0.29284 0.99546 0.83079 76 126 171
-0.29284 0.99546 0.83079 76 126 171
-0.99479 0.99546 0.5577 76 126 171
-0.37397 0.99546 0.5033 76 126 171
0.37397 0.99546 0.5033 76 126 171
0.37397 0.99546 0.2201 76 126 171
-0.37397 0.99546 0.2201 76 126 171
-0.20827 0.81482 0.2201 76 126 171
0.20827 0.81482 0.2201 76 126 171
-0.43771 0.93222 0.2201 76 126 171
-0.43771 0.93222 0.5033 76 126 171
-0.94216 0.99546 0.5033 76 126 171
-0.24745 0.76298 0.2201 76 126 171
-0.43771 -0.78803 0.2201 76 126 171
-0.43771 -0.78803 0.5033 76 126 171
-0.24745 -0.78803 0.2201 76 126 171
-0.24745 -0.78803 0.63391 76 126 171
-0.29769 -0.78803 0.68623 76 126 171
-0.94216 -0.78803 0.5033 76 126 171
-0.81781 -0.78803 0.68623 76 126 171
-0.99479 -0.78803 0.5577 76 126 171
-0.99479 -0.78803 2.43573 76 126 171
-0.81781 -0.78803 2.3187 76 126 171
-0.93902 -0.78803 2.49154 76 126 171
-0.65075 -0.78803 2.49154 76 126 171
-0.52954 -0.78803 2.3187 76 126 171
-0.47138 -0.78803 2.3766 76 126 171
-0.65075 -0.78803 2.76814 76 126 171
-0.47138 -0.78803 2.6532 76 126 171
-0.59781 -0.78803 2.82372 76 126 171
-0.35548 -0.78803 2.82372 76 126 171
-0.23636 -0.78803 2.6532 76 126 171
-0.18542 -0.78803 2.70669 76 126 171
-0.35548 -0.78803 3.16831 76 126 171
-0.18542 -0.78803 3.16831 76 126 171
0.99479 0.99546 2.25287 82 134 183
1.07741 1.14153 2.25287 82 134 183
1.14029 1.07315 2.25287 82 134 183
0.28622 1.14116 2.25287 82 134 183
0.28677 0.99546 2.25287 82 134 183
1.13973 0.3246 2.25287 82 134 183
0.99479 0.3246 2.25287 82 134 183
1.13973 0.3246 2.25287 76 126 171
0.4949 0.99546 1.63424 76 126 171
0.99479 0.99546 1.40529 82 134 183
1.14029 1.07315 1.40529 82 134 183
1.13973 0.3246 1.40529 82 134 183
0.99479 0.3246 1.40529 82 134 183
1.07741 1.14153 1.40529 82 134 183
0.4949 1.14128 1.40529 82 134 183
0.4949 0.99546 1.40529 82 134 183
0.4949 0.99546 1.40529 76 126 171
-0.65075 0.99546 2.76814 82 134 183
-0.59781 0.99546 2.82372 82 134 183
-0.59781 -0.78803 2.82372 82 134 183
-0.65075 -0.78803 2.76814 82 134 183
-0.35548 0.9355 2.82372 82 134 183
-0.35548 -0.78803 2.82372 82 134 183
-0.93902 -0.78803 2.49154 82 134 183
-0.93902 0.99546 2.49154 82 134 183
-0.65075 0.99546 2.49154 82 134 183
-0.65075 -0.78803 2.49154 82 134 183
-0.99479 0.99546 2.43573 82 134 183
-0.99479 -0.78803 2.43573 82 134 183
-0.18542 0.76262 3.16831 82 134 183
-0.18542 -0.78803 3.16831 82 134 183
-0.35548 -0.78803 3.16831 82 134 183
-0.35548 0.9355 3.16831 82 134 183
-1.14029 1.07315 2.25287 76 126 171
-1.13973 0.3246 2.25287 76 126 171
-1.13973 0.3246 1.63424 76 126 171
-1.14029 1.07315 1.63429 76 126 171
-0.99479 0.3246 1.63424 76 126 171
-0.99479 0.3246 1.40529 76 126 171
-0.99479 0.3246 0.83079 76 126 171
-1.13973 0.3246 0.83079 76 126 171
-1.13973 0.3246 1.40529 76 126 171
-1.14029 1.07315 1.40529 76 126 171
-1.14029 1.07315 0.83079 76 126 171
-0.99479 0.99546 0.83079 76 126 171
-1.07741 1.14153 0.83079 76 126 171
-0.29447 1.14114 0.83079 76 126 171
-0.99479 0.99546 1.40529 76 126 171
-0.99479 0.99546 1.63433 76 126 171
-0.4949 1.14116 1.79768 76 126 171
-1.07741 1.14153 2.25287 76 126 171
-1.07741 1.14153 1.63433 76 126 171
-0.4949 1.14128 1.63424 76 126 171
-0.28622 1.14116 2.25287 76 126 171
-0.29706 1.1411 1.7971 76 126 171
-0.29706 1.1411 1.7971 114 164 209
-0.4949 1.14116 1.79768 114 164 209
-0.4949 1.14128 1.63424 114 164 209
-0.99479 0.99546 2.25287 82 134 183
-1.14029 1.07315 2.25287 82 134 183
-1.07741 1.14153 2.25287 82 134 183
-1.13973 0.3246 2.25287 82 134 183
-0.99479 0.3246 2.25287 82 134 183
-0.28622 1.14116 2.25287 82 134 183
-0.28677 0.99546 2.25287 82 134 183
-0.4949 0.99546 1.63424 76 126 171
-0.99479 0.99546 1.40529 82 134 183
-1.14029 1.07315 1.40529 82 134 183
-1.07741 1.14153 1.40529 82 134 183
-0.4949 1.14128 1.40529 82 134 183
-0.4949 0.99546 1.40529 82 134 183
-1.13973 0.3246 1.40529 82 134 183
-0.99479 0.3246 1.40529 82 134 183
-0.4949 0.99546 1.40529 76 126 171
-0.4949 1.14116 1.26306 76 126 171
-0.4949 1.14128 1.40529 76 126 171
-1.07741 1.14153 1.40529 76 126 171
-0.29468 1.14111 1.26306 76 126 171
-0.4949 1.14128 1.40529 58 90 120
0.4949 1.14128 1.40529 58 90 120
0.4949 1.14128 1.63424 58 90 120
-0.4949 1.14128 1.63424 58 90 120
0.29468 1.14111 1.26306 58 90 120
-0.29468 1.14111 1.26306 58 90 120
0.29447 1.14114 0.83079 58 90 120
-0.29447 1.14114 0.83079 58 90 120
-0.29706 1.1411 1.7971 58 90 120
0.29706 1.1411 1.7971 58 90 120
-0.28622 1.14116 2.25287 58 90 120
0.28622 1.14116 2.25287 58 90 120
0.28677 0.99546 2.25287 58 90 120
-0.28677 0.99546 2.25287 58 90 120
-0.29284 0.99546 0.83079 58 90 120
0.29284 0.99546 0.83079 58 90 120
0.29468 1.14111 1.26306 114 164 209
0.4949 1.14116 1.26306 114 164 209
0.4949 1.14128 1.40529 114 164 209
-0.4949 1.14128 1.40529 114 164 209
-0.4949 1.14116 1.26306 114 164 209
-0.29468 1.14111 1.26306 114 164 209
0.4949 1.14128 1.63424 114 164 209
0.4949 1.14116 1.79768 114 164 209
0.29706 1.1411 1.7971 114 164 209
-0.28116 0.99546 2.82372 82 134 183
0.28116 0.99546 3.16831 82 134 183
0.35548 0.9355 3.16831 82 134 183
0.18542 0.76262 3.16831 82 134 183
0.13266 0.81482 3.16831 82 134 183
-0.28116 0.99546 3.16831 82 134 183
-0.13266 0.81482 3.16831 82 134 183
0.35548 -0.78803 3.16831 82 134 183
0.18542 -0.78803 3.16831 82 134 183
3 0 2 1
3 0 3 2
3 4 3 0
3 4 5 3
3 3 5 6
3 3 6 7
3 2 3 7
3 2 7 8
3 8 7 9
3 8 9 10
3 10 9 11
3 10 11 12
3 9 13 11
3 9 14 13
3 15 2 8
3 15 8 16
3 16 8 10
3 11 13 17
3 11 17 18
3 12 11 18
3 12 18 19
3 16 10 20
3 7 14 9
3 7 6 14
3 6 20 14
3 14 20 21
3 14 21 13
3 13 21 22
3 13 22 17
3 18 17 22
3 18 22 19
3 6 16 20
3 5 16 6
3 5 15 16
3 23 15 5
3 23 5 4
3 24 26 25
3 24 27 26
3 28 30 29
3 28 31 30
3 29 30 32
3 29 32 33
3 34 36 35
3 34 37 36
3 38 37 34
3 38 39 37
3 37 39 40
3 37 40 41
3 36 37 41
3 36 41 42
3 43 45 44
3 43 46 45
3 45 46 47
3 45 47 48
3 49 39 38
3 49 50 39
3 39 50 51
3 39 51 40
3 41 40 51
3 41 51 42
3 52 54 53
3 52 55 54
3 56 55 52
3 56 57 55
3 54 55 58
3 55 59 58
3 55 57 59
3 57 60 59
3 58 59 60
3 58 60 61
3 57 62 60
3 63 62 57
3 63 57 56
3 54 58 61
3 64 66 65
3 64 67 66
3 66 67 68
3 66 68 69
3 70 72 71
3 70 73 72
3 74 70 71
3 74 71 75
3 71 72 76
3 71 76 77
3 77 76 78
3 77 78 79
3 75 71 77
3 75 77 79
3 80 75 79
3 81 75 80
3 81 74 75
3 80 79 78
3 82 84 83
3 82 85 84
3 83 84 86
3 83 86 87
3 88 90 89
3 88 91 90
3 92 88 89
3 92 89 93
3 89 90 94
3 89 94 95
3 95 94 96
3 95 96 97
3 93 89 95
3 93 95 97
3 98 93 97
3 99 93 98
3 99 92 93
3 98 97 96
3 100 102 101
3 100 103 102
3 101 102 104
3 101 104 105
3 106 108 107
3 106 109 108
3 110 109 106
3 110 111 109
3 109 111 112
3 109 112 113
3 108 109 113
3 108 113 114
3 115 117 116
3 115 118 117
3 117 118 119
3 117 119 120
3 121 111 110
3 121 122 111
3 111 122 123
3 111 123 112
3 113 112 123
3 113 123 114
3 124 126 125
3 124 127 126
3 128 127 124
3 128 129 127
3 127 129 130
3 127 130 131
3 126 127 131
3 126 131 132
3 133 135 134
3 133 136 135
3 135 136 137
3 135 137 138
3 139 129 128
3 139 140 129
3 129 140 141
3 129 141 130
3 131 130 141
3 131 141 132
3 142 144 143
3 142 145 144
3 146 142 143
3 146 143 147
3 143 144 148
3 143 148 149
3 147 143 149
3 149 148 150
3 149 150 151
3 147 149 151
3 152 154 153
3 152 155 154
3 153 154 156
3 153 156 157
3 158 147 159
3 158 146 147
3 159 147 151
3 159 151 150
3 160 162 161
3 160 163 162
3 164 160 161
3 164 161 165
3 161 162 166
3 161 166 167
3 165 161 167
3 167 166 168
3 167 168 169
3 165 167 169
3 170 172 171
3 170 173 172
3 171 172 174
3 171 174 175
3 176 165 177
3 176 164 165
3 177 165 169
3 177 169 168
3 178 180 179
3 178 181 180
3 182 178 179
3 182 179 183
3 179 184 183
3 179 185 184
3 180 185 179
3 180 186 185
3 186 187 185
3 186 188 187
3 188 189 187
3 188 190 189
3 187 189 191
3 187 191 192
3 193 186 180
3 193 194 186
3 194 188 186
3 189 195 191
3 189 196 195
3 190 196 189
3 190 197 196
3 194 198 188
3 185 187 192
3 185 192 184
3 184 192 198
3 192 199 198
3 192 191 199
3 191 200 199
3 191 195 200
3 196 200 195
3 196 197 200
3 184 198 194
3 183 184 194
3 183 194 193
3 201 183 193
3 201 182 183
3 202 204 203
3 202 205 204
3 206 208 207
3 206 209 208
3 209 210 208
3 209 211 210
3 212 214 213
3 212 215 214
3 216 215 212
3 216 212 213
3 216 217 215
3 215 218 214
3 215 217 218
3 216 213 219
3 220 222 221
3 220 223 222
3 224 220 221
3 224 223 220
3 224 221 225
3 221 226 225
3 221 222 226
3 224 227 223
3 228 230 229
3 228 231 230
3 231 232 230
3 231 233 232
3 234 228 229
3 234 229 235
3 236 238 237
3 236 239 238
3 239 240 238
3 239 241 240
3 242 236 237
3 242 237 243
3 244 246 245
3 244 247 246
3 248 250 249
3 248 251 250
3 252 250 251
3 252 251 253
3 249 250 254
3 254 250 255
3 255 250 256
3 255 256 257
3 255 257 258
3 255 258 259
3 257 260 258
3 257 261 260
3 259 258 262
3 258 263 262
3 258 260 263
3 264 262 263
3 264 265 262
3 259 262 265
3 265 264 266
3 265 266 267
3 267 266 268
3 267 268 269
3 270 267 269
3 270 265 267
3 271 265 270
3 259 265 271
3 272 274 273
3 272 275 274
3 272 273 276
3 272 276 277
3 277 276 278
3 277 278 279
3 274 275 280
3 274 280 281
3 281 280 282
3 281 282 283
3 283 282 284
3 283 284 285
3 285 284 286
3 285 286 287
3 288 290 289
3 288 291 290
3 292 289 290
3 292 293 289
3 294 296 295
3 294 297 296
3 298 300 299
3 298 301 300
3 302 299 300
3 302 303 299
3 301 304 300
3 304 305 300
3 305 306 300
3 305 307 306
3 305 308 307
3 305 309 308
3 307 308 310
3 307 310 311
3 309 312 308
3 308 313 310
3 308 312 313
3 314 313 312
3 314 312 315
3 309 315 312
3 315 316 314
3 315 317 316
3 317 318 316
3 317 319 318
3 320 317 315
3 320 319 317
3 321 320 315
3 309 321 315
3 322 324 323
3 322 325 324
3 322 326 325
3 322 327 326
3 327 328 326
3 327 329 328
3 324 330 323
3 324 331 330
3 331 332 330
3 331 333 332
3 333 334 332
3 333 335 334
3 335 336 334
3 335 337 336
3 338 340 339
3 338 341 340
3 342 340 341
3 342 341 343
3 344 346 345
3 344 347 346
3 348 347 344
3 348 349 347
3 350 349 348
3 350 348 351
3 352 354 353
3 352 355 354
3 354 356 353
3 354 357 356
3 358 354 355
3 358 357 354
3 359 353 356
3 359 352 353
3 360 356 357
3 360 357 361
3 360 361 362
3 360 362 363
3 360 363 364
3 363 362 365
3 363 365 366
3 367 362 361
3 367 365 362
3 367 361 368
3 367 368 369
3 370 367 369
3 370 369 371
3 361 371 368
3 361 370 371
3 360 372 356
3 372 366 365
3 364 372 360
3 372 365 373
3 372 373 356
3 373 359 356
3 372 374 366
3 364 374 372
3 370 375 367
3 365 375 373
3 367 375 365
3 375 376 373
3 375 377 376
3 378 377 375
3 370 378 375
3 378 379 373
3 380 378 370
3 380 370 381
3 380 381 382
3 381 383 382
3 380 382 384
3 380 384 385
3 382 386 384
3 382 383 386
3 385 387 380
3 380 387 378
3 387 379 378
3 385 388 387
3 387 388 389
3 387 389 390
3 387 390 379
3 390 389 391
3 390 391 392
3 392 391 393
3 392 393 394
3 395 394 393
3 395 396 394
3 383 396 395
3 397 396 383
3 397 394 396
3 397 383 398
3 383 395 386
3 397 398 399
3 397 399 400
3 398 355 399
3 398 358 355
3 401 392 394
3 397 401 394
3 400 401 397
3 401 402 392
3 401 403 402
3 400 399 403
3 401 404 403
3 400 404 401
3 400 403 404
3 402 403 352
3 402 352 359
3 403 399 355
3 403 355 352
3 405 407 406
3 359 379 402
3 373 379 359
3 402 379 392
3 392 379 390
3 373 408 378
3 378 408 377
3 373 376 408
3 409 411 410
3 412 414 413
3 412 415 414
3 381 357 358
3 381 361 357
3 381 370 361
3 358 398 381
3 381 398 383
3 416 418 417
3 416 419 418
3 419 420 418
3 419 421 420
3 422 420 421
3 422 423 420
3 424 426 425
3 424 427 426
3 428 427 424
3 428 424 429
3 430 432 431
3 430 433 432
3 431 432 434
3 434 432 435
3 434 435 436
3 436 437 434
3 436 438 437
3 436 439 438
3 436 440 439
3 436 435 440
3 440 435 441
3 440 441 442
3 443 442 441
3 443 444 442
3 440 444 439
3 440 442 444
3 443 445 444
3 443 446 445
3 443 447 446
3 447 443 441
3 447 441 448
3 449 447 448
3 450 449 448
3 450 448 451
3 450 451 452
3 450 452 453
3 454 450 453
3 454 455 450
3 452 456 453
3 452 457 456
3 458 456 457
3 458 457 459
3 459 460 458
3 459 461 460
3 430 460 461
3 462 460 430
3 462 430 463
3 430 461 433
3 464 466 465
3 464 467 466
3 465 466 468
3 468 466 467
3 465 468 469
3 468 467 470
3 471 467 464
3 472 468 470
3 472 469 468
3 473 467 471
3 474 473 471
3 474 475 473
3 475 474 476
3 476 477 475
3 476 478 477
3 477 478 479
3 479 480 477
3 479 481 480
3 480 481 470
3 470 481 472
3 482 484 483
3 482 485 484
3 483 486 482
3 483 487 486
3 486 487 488
3 486 488 489
3 488 487 490
3 488 490 491
3 492 491 490
3 483 484 492
3 492 490 493
3 487 493 490
3 487 483 493
3 483 492 493
3 494 496 495
3 494 497 496
3 494 495 498
3 494 498 499
3 500 502 501
3 500 503 502
3 504 500 501
3 504 505 500
3 480 467 473
3 480 470 467
3 506 508 507
3 508 506 509
3 508 509 510
3 510 509 511
3 511 509 512
3 511 512 513
3 513 514 511
3 513 515 514
3 513 512 516
3 513 516 517
3 513 517 518
3 518 517 519
3 519 517 520
3 519 520 521
3 521 520 522
3 521 522 523
3 521 523 524
3 525 523 522
3 525 526 523
3 522 527 525
3 522 520 527
3 525 527 528
3 529 526 525
3 529 530 526
3 525 531 529
3 525 528 531
3 532 529 531
3 532 530 529
3 521 524 533
3 521 533 534
3 534 533 535
3 534 535 536
3 537 534 536
3 537 536 538
3 535 538 536
3 535 539 538
3 540 541 537
3 540 542 541
3 521 537 541
3 521 541 519
3 543 544 519
3 543 545 544
3 545 515 544
3 544 515 546
3 519 541 543
3 547 515 545
3 548 515 547
3 548 549 515
3 550 549 548
3 551 549 550
3 552 551 550
3 551 553 549
3 514 515 549
3 514 549 554
3 514 554 555
3 555 554 556
3 514 555 557
3 557 555 558
3 557 558 559
3 560 557 559
3 560 561 557
3 514 557 562
3 563 561 560
3 563 508 561
3 507 508 563
3 507 563 564
3 565 558 555
3 565 566 558
3 567 569 568
3 567 570 569
3 567 568 571
3 567 571 572
3 572 571 573
3 572 573 574
3 575 574 573
3 575 573 576
3 575 576 577
3 575 577 578
3 578 577 579
3 576 579 577
3 578 579 580
3 580 579 581
3 576 581 579
3 580 581 582
3 583 582 581
3 583 581 584
3 583 584 585
3 583 585 586
3 581 576 587
3 581 587 588
3 587 589 588
3 590 588 589
3 591 590 589
3 591 589 592
3 587 592 589
3 593 592 587
3 593 591 592
3 593 587 594
3 593 594 595
3 596 595 594
3 596 594 597
3 590 598 588
3 599 588 598
3 599 600 588
3 599 601 600
3 599 602 601
3 603 596 597
3 603 597 604
3 594 604 597
3 603 604 605
3 603 605 606
3 607 606 605
3 607 608 606
3 594 568 604
3 594 571 568
3 609 600 601
3 609 610 600
3 610 588 600
3 605 611 607
3 605 612 611
3 604 612 605
3 613 611 612
3 604 613 612
3 604 568 613
3 613 568 569
3 614 613 569
3 613 614 611
3 614 569 615
3 615 569 570
3 615 570 616
3 617 610 609
3 617 609 618
3 584 617 618
3 584 618 585
3 581 617 584
3 581 610 617
3 581 588 610
3 619 621 620
3 619 622 621
3 621 622 623
3 621 623 624
3 625 627 626
3 625 628 627
3 629 628 625
3 629 625 630
3 623 622 631
3 632 634 633
3 632 635 634
3 636 632 633
3 636 633 637
3 634 542 633
3 638 632 636
3 638 636 639
3 541 542 634
3 541 634 640
3 641 535 642
3 641 539 535
3 535 533 642
3 642 643 641
3 642 644 643
3 645 644 642
3 533 645 642
3 645 646 644
3 533 647 645
3 524 647 533
3 524 648 647
3 524 649 648
3 650 649 524
3 650 524 651
3 651 524 523
3 650 651 652
3 650 652 653
3 652 654 653
3 652 655 654
3 656 650 653
3 656 657 650
3 657 658 650
3 658 649 650
3 659 653 654
3 659 656 653
3 660 657 656
3 660 661 657
3 526 652 651
3 523 526 651
3 526 530 652
3 532 652 530
3 532 655 652
3 659 660 656
3 659 662 660
3 661 660 662
3 661 662 663
3 661 663 664
3 665 661 664
3 665 664 666
3 667 665 666
3 667 658 665
3 661 665 658
3 667 649 658
3 668 667 666
3 668 666 669
3 670 668 669
3 671 670 669
3 671 669 672
3 671 672 673
3 674 671 673
3 671 674 554
3 671 554 549
3 674 673 675
3 676 674 675
3 677 676 675
3 677 675 678
3 678 679 677
3 679 680 677
3 679 681 680
3 680 565 677
3 680 566 565
3 682 684 683
3 685 682 683
3 682 685 686
3 682 687 684
3 682 688 687
3 543 640 689
3 543 541 640
3 634 689 640
3 634 635 689
3 542 637 633
3 542 690 637
3 691 693 692
3 691 694 693
3 691 692 695
3 696 691 695
3 696 697 691
3 521 534 537
3 698 542 540
3 698 690 542
3 699 701 700
3 699 702 701
3 701 703 700
3 701 704 703
3 705 707 706
3 705 708 707
3 709 705 706
3 709 710 705
3 711 713 712
3 711 714 713
3 715 717 716
3 715 718 717
3 552 716 717
3 552 717 719
3 719 668 552
3 552 668 551
3 667 668 719
3 667 719 720
3 667 721 649
3 720 722 721
3 720 723 722
3 724 722 723
3 724 725 722
3 721 722 725
3 721 725 726
3 649 721 726
3 726 725 727
3 726 727 728
3 728 648 726
3 729 720 719
3 729 719 730
3 731 733 732
3 731 734 733
3 735 731 732
3 735 736 731
3 732 733 718
3 732 718 715
3 730 718 733
3 719 718 730
3 719 717 718
3 737 739 738
3 740 742 741
3 740 741 743
3 740 743 744
3 745 742 740
3 746 745 740
3 730 734 747
3 730 733 734
3 748 750 749
3 751 750 748
3 751 748 752
3 748 749 753
3 748 753 754
3 755 730 747
3 755 729 730
3 727 757 756
3 727 758 757
3 728 727 756
3 728 756 759
3 758 727 725
3 758 725 724
3 760 762 761
3 760 763 762
3 760 761 764
3 760 764 765
3 765 764 766
3 765 766 767
3 762 763 768
3 762 768 769
3 769 768 770
3 769 770 771
3 772 771 770
3 772 770 773
3 766 774 767
3 766 775 774
3 776 778 777
3 779 781 780
3 782 784 783
3 571 594 573
3 576 573 594
3 576 594 587
3 667 720 721
3 700 703 785
3 786 788 787
3 786 789 788
3 789 786 790
3 789 790 791
3 790 711 791
3 790 714 711
3 788 792 787
3 788 793 792
3 661 658 657
3 648 649 726
