mtllib Ivysaur.mtl
v 0 0.0425166 0.00904993
vt 0.0662086 0.0354417
vn 0 -0.9999147 0.0130623
v -0.171881 0.06051866 0.06588002
vn -0.8658776 -0.4963058 -0.06274126
v -0.171881 0.05405831 -0.03890353
vn -0.8272628 -0.5559165 0.08119859
v -0.133223 -1.286134E-05 0.1572224
vn -0.3234589 -0.6812576 0.6567057
v -0.133223 -1.473623E-05 -0.1629991
vn -0.3378358 -0.6717914 -0.6592141
v 0 0.06200729 0.2137022
vn 0 -0.3825478 0.9239357
v 0 0.0624367 -0.212498
vn 0 -0.3690762 -0.9293991
v 0.133223 -1.286134E-05 0.1572224
vn 0.323458 -0.6812578 0.656706
v 0.133223 -1.473623E-05 -0.1629991
vn 0.3378358 -0.6717914 -0.6592141
v 0.171881 0.06051866 0.06588012
vn 0.8658776 -0.4963058 -0.06274096
v 0.171881 0.05405831 -0.03890343
vn 0.8272628 -0.5559165 0.08119848
v 0 0.1532879 -0.2160903
vt 0.518986 0.661744
vn 0 0.1977789 -0.9802467
vt 0.518986 0.568863
vt 0.406548 0.501176
vt 0.636344 0.501176
v -0.183643 0.1532879 -0.1300032
vt 0.363064 0.661744
vn -0.8377061 0.2670062 -0.4763991
v 0.183643 0.1532879 -0.1300032
vt 0.679828 0.661744
vn 0.8377061 0.2670062 -0.4763991
v -0.127871 0.247882 -0.108399
vt 0.411164 0.760829
vn -0.608613 0.731185 -0.308154
v 0.127871 0.247882 -0.108398
vt 0.631728 0.760829
vn 0.608613 0.731185 -0.308154
v 0 0.247882 -0.179084
vt 0.518986 0.760829
vn 0 0.7322081 -0.6810811
v 0 0.153288 0.2162229
vt 0.521446 0.897169
vn 0 0.08729351 0.9961826
vt 0.406548 0.736601
vt 0.521446 0.80614
v -0.183643 0.153288 0.1423281
vt 0.363064 0.897169
vn -0.8440911 0.2353967 0.4817664
vt 0.636344 0.736601
v -0.127871 0.247882 0.131583
vt 0.411164 0.996253
vn -0.6654321 0.6593391 0.3499601
v 0.183643 0.153288 0.1423281
vt 0.679828 0.897169
vn 0.8440914 0.2353968 0.4817655
v 0 0.247882 0.204836
vt 0.521446 0.996253
vn 2.040489E-05 0.5171418 0.8558997
v 0.127871 0.247882 0.131583
vt 0.631728 0.996253
vn 0.6654327 0.6593387 0.3499598
v 0 0.323274 0.00771492
vt 0.174222 0.0413014
vn 0.00513777 0.07139589 -0.9974349
v 0.149376 0.301164 0.0731407
vn 0.7174537 -0.03332319 -0.6958087
v 0.000331806 0.222562 0.0370998
vn 0.0186462 -0.468912 -0.8830481
v 0.132975 0.423985 0.0943022
vn 0.613718 0.376597 -0.69392
v -0.121607 0.197996 0.0937602
vn -0.5564488 -0.6011157 -0.5736067
v 0 0.436981 0.0610335
vn 0 0.5745128 -0.8184956
v -0.149376 0.301164 0.0731407
vn -0.7069466 -0.04277067 -0.7059726
v -0.132975 0.423985 0.0943022
vn -0.613718 0.376597 -0.69392
v 0.121912 0.197996 0.0943022
vn 0.5625342 -0.6097022 -0.5584072
v 0.217147 0.323274 0.231092
vn 0.9998564 0.009267764 -0.01418489
v 0.188055 0.222562 0.231092
vn 0.8782651 -0.4780471 -0.0110188
v -0.188055 0.222562 0.231092
vn -0.8779491 -0.4786231 -0.0111935
v 0.000331806 0.148836 0.118862
vn 0.0009725508 -0.9092168 -0.4163219
v -0.108242 0.148836 0.23055
vn -0.4613708 -0.8839927 -0.07545737
v -0.0668612 0.490341 0.139833
vn -0.1208941 0.8709993 -0.4761772
v 0.0668612 0.490341 0.139833
vn 0.12091 0.8710011 -0.47617
v 0.188055 0.423985 0.231092
vn 0.9567056 0.2876349 0.04450478
v 0.108573 0.148836 0.231092
vn 0.4628861 -0.8833362 -0.07384942
v -0.217147 0.323274 0.231092
vn -0.9998522 0.009128202 -0.0145674
v 0.000331806 0.132603 0.23055
vn 0.0002084299 -0.9999216 -0.0125198
v 0 0.5232049 0.231092
vn 1.04019E-05 0.9991231 -0.041869
v -0.176391 0.522388 0.210947
vn -0.624166 0.7743839 -0.103665
v -0.108573 0.497711 0.272294
vn -0.347523 0.8798001 0.324314
v 0.176391 0.522388 0.210947
vn 0.6241469 0.7743879 -0.10375
v -0.188055 0.423985 0.231092
vn -0.956777 0.287407 0.0444413
v 0 0.496328 0.342333
vn 1.01988E-05 0.8603082 0.5097742
v 0.1086 0.497708 0.272294
vn 0.3475312 0.8797935 0.3243232
v 0.133002 0.423984 0.367876
vn 0.6223669 0.4945179 0.6067219
v -0.132975 0.423985 0.367883
vn -0.6225749 0.4933649 0.6074469
v 0 0.423985 0.424543
v 0 0.266796 0.0740676
vn 0 0.9998761 0.0157441
v -0.076773 0.148836 0.310068
vt 0.331623 0.069877
vn -0.283761 -0.8977869 0.336836
v -0.132975 0.222562 0.401668
vt 0.131443 0.239566
vn -0.6245281 -0.5030921 0.5973801
vt 0.504216 0.239566
v 0 0.222562 0.458328
vt 0.00761843 0.239566
vn 0 -0.573238 0.8193889
vt 0.504216 0.069877
v 0.076773 0.148836 0.310068
vn 0.283399 -0.8976609 0.337476
vt 0.504216 0.0846309
v 0.132975 0.222562 0.401668
vn 0.624939 -0.5036899 0.5964459
vt 0.335047 0.897169
vt 0.0724151 0.996253
vt 0.0497848 0.897169
vt 0.323793 0.996253
vt 0.145209 0.793228
vt 0.25497 0.799995
vt 0.350648 0.736601
vt 0.0152248 0.736601
vt 0.0308256 0.661744
vt 0.316088 0.661744
vt 0.293458 0.760829
vt 0.220664 0.557804
vt 0.0420802 0.760829
vt 0.110903 0.56457
vt 0.0152248 0.501176
vt 0.350648 0.501176
v 0 0.323274 0.44467
vt 0.748987 0.237253
vn 0 0.16437 0.9863988
v -0.076773 0.323274 0.418528
vt 0.606782 0.237253
vn -0.3890189 0.151843 0.9086298
vt 0.748987 0.0559114
vt 0.748987 0.418595
v 0.076773 0.323274 0.418528
vt 0.891191 0.237253
vn 0.3863688 0.1519579 0.9097406
vt 0.502681 0.418595
vt 0.995293 0.0559114
vt 0.994304 0.418595
v 0 0.247696 -0.179071
vt 0.874368 0.751436
vn 0 -0.8577118 0.5141309
v -0.0846428 0.21733 -0.331796
vt 0.985497 0.764958
vn -0.4892327 -0.6127006 -0.6206846
v 0.0846429 0.21733 -0.331796
vt 0.764875 0.764958
vn 0.489233 -0.612701 -0.620684
v -0.169286 0.292705 -0.20605
vn -0.9784662 -0.177038 0.10612
v -0.0846428 0.368079 -0.080305
vn -0.4892331 0.2586241 0.8329253
v 0.0846428 0.368079 -0.080305
vn 0.4892331 0.2586241 0.8329253
v 0.169286 0.292705 -0.20605
vn 0.9784661 -0.177038 0.106121
v 0.0712948 0.371858 -0.397468
vt 0.764875 0.955167
vn 0.4703951 -0.128131 -0.8731042
v -0.0712948 0.371858 -0.397468
vt 0.985497 0.955167
vn -0.4703951 -0.128131 -0.8731042
v -0.14259 0.435347 -0.291553
vn -0.9407898 0.2907559 -0.1742859
v -0.0712948 0.498835 -0.185637
vn -0.4703951 0.7096432 0.5245331
v 0.0712948 0.498835 -0.185637
vn 0.4703951 0.7096432 0.5245331
v 0.14259 0.435347 -0.291553
vn 0.9407899 0.290756 -0.174285
v 0 0.529336 -0.347892
vt 0.87361 0.991482
vn 0 0.8577118 -0.5141309
v 0.197238 0.213429 -0.254071
vt 0.983938 0.661621
vn 0.06807242 0.8524652 -0.5183332
v 0.0146173 0.155848 -0.372754
vt 0.759303 0.661621
v 0 0.251536 -0.182875
vt 0.874259 0.509759
vn 0.0103817 0.8932869 -0.449367
v 0.183718 0.105122 -0.394532
vt 0.874259 0.739095
vn 0.153674 0.7752998 -0.6126129
v -0.0751075 0.159181 -0.365883
vn -0.09380218 0.8640818 -0.4945339
v -0.218185 0.245643 -0.187673
vn -0.01437249 0.8950287 -0.4457768
v -0.254339 0.135948 -0.330994
vn -0.2127461 0.8010854 -0.5594652
v -0.197238 0.283871 -0.108878
vn -0.06807239 0.9347378 -0.3487569
v -0.0146174 0.341452 0.00980496
vn -0.0103815 0.9058343 -0.4235051
v -0.183718 0.327162 0.0631267
vn -0.153674 0.9610298 -0.2297959
v 0.0751075 0.338119 0.00293391
vn 0.09380212 0.9232342 -0.3726121
v 0.218185 0.251657 -0.175276
vn 0.0143726 0.904092 -0.427096
v 0.254339 0.296336 -0.000411057
vn 0.2127459 0.9352446 -0.2829429
vn -0.06807232 -0.8524652 0.5183332
vn -0.01038169 -0.8932866 0.4493678
vn -0.153674 -0.7752998 0.6126129
vn 0.09380209 -0.8640819 0.4945339
vn 0.01437249 -0.8950287 0.4457768
vn 0.2127459 -0.8010857 0.5594648
vn 0.06807236 -0.9347374 0.3487578
vn 0.0103815 -0.9058343 0.4235051
vn 0.153674 -0.9610298 0.2297959
vn -0.09380222 -0.9232342 0.3726121
vn -0.0143726 -0.904092 0.427096
vn -0.2127459 -0.9352446 0.2829429
vt 0.254971 0.429561
vt 0.412679 0.246625
vt 0.487053 0.492383
v 0.145206 0.22255 0.362331
vt 0.47216 0.0314607
vn 0.9066185 -0.3139008 0.2819738
v 0.138557 0.180873 0.337314
v 0.159629 0.222572 0.315982
v -0.145206 0.22255 0.362331
vn -0.9066183 -0.3139011 0.2819741
v -0.159629 0.222572 0.315982
v -0.138557 0.180873 0.337314
vn -0.9066183 0.3139011 -0.2819741
vn 0.9066185 0.3139008 -0.2819738
o merged_0_0_node
g polygon_0
usemtl mat_body_mat_id
f 1/1/1 2/1/2 3/1/3
f 1/1/1 4/1/4 2/1/2
f 1/1/1 3/1/3 5/1/5
f 1/1/1 6/1/6 4/1/4
f 1/1/1 5/1/5 7/1/7
f 1/1/1 8/1/8 6/1/6
f 1/1/1 7/1/7 9/1/9
f 1/1/1 10/1/10 8/1/8
f 1/1/1 9/1/9 11/1/11
f 1/1/1 11/1/11 10/1/10
f 12/2/12 7/3/7 5/4/5
f 12/2/12 9/5/9 7/3/7
f 12/2/12 5/4/5 13/6/13
f 12/2/12 14/7/14 9/5/9
f 12/2/12 13/6/13 15/8/15
f 12/2/12 16/9/16 14/7/14
f 12/2/12 15/8/15 17/10/17
f 12/2/12 17/10/17 16/9/16
f 18/11/18 4/12/4 6/13/6
f 18/11/18 19/14/19 4/12/4
f 18/11/18 6/13/6 8/15/8
f 18/11/18 20/16/20 19/14/19
f 18/11/18 8/15/8 21/17/21
f 18/11/18 22/18/22 20/16/20
f 18/11/18 21/17/21 23/19/23
f 18/11/18 23/19/23 22/18/22
f 24/20/24 25/20/25 26/20/26
f 24/20/24 27/20/27 25/20/25
f 24/20/24 26/20/26 28/20/28
f 24/20/24 29/20/29 27/20/27
f 24/20/24 28/20/28 30/20/30
f 24/20/24 31/20/31 29/20/29
f 24/20/24 30/20/30 31/20/31
f 25/20/25 32/20/32 26/20/26
f 25/20/25 27/20/27 33/20/33
f 25/20/25 34/20/34 32/20/32
f 25/20/25 33/20/33 34/20/34
f 28/20/28 35/20/35 30/20/30
f 28/20/28 26/20/26 36/20/36
f 28/20/28 37/20/37 35/20/35
f 28/20/28 36/20/36 37/20/37
f 26/20/26 32/20/32 36/20/36
f 29/20/29 31/20/31 38/20/38
f 29/20/29 39/20/39 27/20/27
f 29/20/29 38/20/38 39/20/39
f 33/20/33 27/20/27 40/20/40
f 34/20/34 41/20/41 32/20/32
f 32/20/32 41/20/41 36/20/36
f 30/20/30 35/20/35 42/20/42
f 30/20/30 42/20/42 31/20/31
f 37/20/37 36/20/36 43/20/43
f 43/20/43 36/20/36 41/20/41
f 38/20/38 44/20/44 39/20/39
f 38/20/38 31/20/31 45/20/45
f 38/20/38 46/20/46 44/20/44
f 38/20/38 45/20/45 46/20/46
f 27/20/27 47/20/47 40/20/40
f 27/20/27 39/20/39 47/20/47
f 42/20/42 48/20/48 31/20/31
f 31/20/31 48/20/48 45/20/45
f 44/20/44 46/20/46 49/20/49
f 44/20/44 50/20/50 39/20/39
f 44/20/44 49/20/49 50/20/50
f 39/20/39 50/20/50 47/20/47
f 40/20/40 50/20/50 51/20/51
f 50/20/50 49/20/49 51/20/51
f 48/20/48 52/20/52 46/20/46
f 46/20/46 52/20/52 49/20/49
f 51/20/51 49/20/49 53/20/22
f 53/20/22 49/20/49 52/20/52
f 54/1/53 17/1/17 15/1/15
f 54/1/53 16/1/16 17/1/17
f 54/1/53 15/1/15 20/1/20
f 54/1/53 23/1/23 16/1/16
f 54/1/53 20/1/20 22/1/22
f 54/1/53 22/1/22 23/1/23
f 55/21/54 56/22/55 35/23/35
f 55/21/54 57/24/56 56/22/55
f 55/21/54 35/23/35 37/25/37
f 55/21/54 58/21/57 57/24/56
f 55/21/54 37/25/37 43/26/43
f 55/21/54 43/26/43 58/21/57
f 57/24/56 58/21/57 59/22/58
f 43/26/43 41/25/41 58/21/57
f 59/22/58 58/21/57 34/23/34
f 34/23/34 58/21/57 41/25/41
f 19/27/19 15/28/15 13/29/13
f 19/27/19 20/30/20 15/28/15
f 19/27/19 13/29/13 3/31/3
f 19/27/19 3/31/3 2/32/2
f 19/27/19 2/32/2 4/33/4
f 13/29/13 5/34/5 3/31/3
f 21/35/21 14/36/14 16/37/16
f 21/35/21 11/38/11 14/36/14
f 21/35/21 16/37/16 23/39/23
f 21/35/21 10/40/10 11/38/11
f 21/35/21 8/41/8 10/40/10
f 14/36/14 11/38/11 9/42/9
f 60/43/59 61/44/60 57/45/56
f 60/43/59 53/46/22 61/44/60
f 60/43/59 57/45/56 62/47/61
f 60/43/59 62/47/61 53/46/22
f 61/44/60 53/46/22 52/48/52
f 57/45/56 59/49/58 62/47/61
f 57/45/56 61/47/60 56/49/55
f 53/46/22 62/47/61 51/50/51
f 63/51/62 64/52/63 65/53/64
f 63/51/62 66/52/65 64/53/63
f 63/51/62 67/52/66 66/53/65
f 63/51/62 68/52/67 67/53/66
f 63/51/62 69/52/68 68/53/67
f 63/51/62 65/52/64 69/53/68
f 64/52/63 70/54/69 65/53/64
f 64/52/63 71/55/70 70/54/69
f 66/52/65 71/54/70 64/53/63
f 66/52/65 72/55/71 71/54/70
f 67/52/66 72/54/71 66/53/65
f 67/52/66 73/55/72 72/54/71
f 68/52/67 73/54/72 67/53/66
f 68/52/67 74/55/73 73/54/72
f 69/52/68 74/54/73 68/53/67
f 69/52/68 75/55/74 74/54/73
f 65/52/64 75/54/74 69/53/68
f 65/52/64 70/55/69 75/54/74
f 71/55/70 76/56/75 70/54/69
f 76/56/75 71/54/70 72/55/71
f 76/56/75 72/54/71 73/55/72
f 76/56/75 73/54/72 74/55/73
f 76/56/75 74/54/73 75/55/74
f 76/56/75 75/54/74 70/55/69
f 77/57/76 78/58/76 79/59/77
f 77/57/76 80/60/78 78/58/76
f 81/57/79 82/58/79 79/59/80
f 81/57/79 83/60/81 82/58/79
f 84/57/82 85/58/82 79/59/83
f 84/57/82 86/60/84 85/58/82
f 87/57/85 88/58/85 79/59/86
f 87/57/85 89/60/87 88/58/85
f 78/58/88 77/57/88 79/59/89
f 78/58/88 80/60/90 77/57/88
f 82/58/91 81/57/91 79/59/92
f 82/58/91 83/60/93 81/57/91
f 85/58/94 84/57/94 79/59/95
f 85/58/94 86/60/96 84/57/94
f 88/58/97 87/57/97 79/59/98
f 88/58/97 89/60/99 87/57/97
f 50/61/50 40/62/40 47/63/47
f 48/62/48 46/61/46 45/63/45
f 90/64/100 91/64/100 92/64/100
f 93/64/101 94/64/101 95/64/101
f 90/64/102 92/64/102 91/64/102
f 93/64/103 95/64/103 94/64/103
vt 1.21669 0.874281
vt 0.318655 0.750672
v -0.153546 0.323274 0.379244
vt 0.46187 0.874281
vn -0.8172006 0.08749335 0.5696737
vt 0.0331899 0.874281
v 0.153405 0.323274 0.380365
vn 0.8162459 0.08669939 0.5711619
vt 1.21669 0.750672
vt 1.21669 0.99789
vt 0.476975 0.99789
o merged_1_0_node
g polygon_0
usemtl TEX_ANIM_EYE_mat_id
f 42/65/42 56/66/55 96/67/104
f 96/67/104 56/66/55 61/68/60
f 97/67/105 62/68/61 59/66/58
f 59/66/58 34/69/34 33/65/33
f 42/65/42 96/67/104 48/70/48
f 96/67/104 52/71/52 48/70/48
f 33/65/33 40/70/40 97/67/105
f 97/67/105 40/70/40 51/71/51
f 59/66/58 33/65/33 97/67/105
f 35/69/35 56/66/55 42/65/42
f 97/67/105 51/71/51 62/68/61
f 96/67/104 61/68/60 52/71/52
