ply
format ascii 1.0
element vertex 673
property float x
property float y
property float z
property uchar red
property uchar green
property uchar blue
element face 730
property list uchar int vertex_index
end_header
-0.03779 -0.47039 1.11904 164 49 149
-0.03779 0.53815 1.11904 164 49 149
0.03779 0.53815 1.11904 164 49 149
0.03779 -0.47039 1.11904 164 49 149
0.03779 0.5708 1.09245 164 49 149
-0.03779 0.5708 1.09245 164 49 149
0.03779 0.53815 1.11904 155 48 140
0.03779 0.5708 1.09245 155 48 140
0.03779 0.5708 1 155 48 140
-0.03779 0.5708 1 155 48 140
-0.03779 0.5708 1.09245 155 48 140
0.03779 -0.47039 1 155 48 140
0.03779 -0.47039 1.11904 155 48 140
-0.03779 0.53815 1.11904 155 48 140
-0.03779 -0.47039 1 155 48 140
-0.03779 -0.47039 1.11904 155 48 140
-0.01911 0.01116 1.11303 155 48 140
-0.01911 0.01116 1.20693 155 48 140
0.01911 0.01116 1.20693 155 48 140
0.01911 0.01116 1.11303 155 48 140
0.01911 0.15789 1.20693 155 48 140
0.01911 0.15789 1.11303 155 48 140
-0.01911 0.15789 1.11303 155 48 140
-0.01911 0.15789 1.20693 155 48 140
-0.01911 0.01116 1.20693 164 49 149
-0.01911 0.15789 1.20693 164 49 149
0.01911 0.15789 1.20693 164 49 149
0.01911 0.01116 1.20693 164 49 149
-0.01911 0.32803 1.11303 155 48 140
-0.01911 0.32803 1.20693 155 48 140
0.01911 0.32803 1.20693 155 48 140
0.01911 0.32803 1.11303 155 48 140
0.01911 0.47476 1.20693 155 48 140
0.01911 0.47476 1.11303 155 48 140
-0.01911 0.47476 1.11303 155 48 140
-0.01911 0.47476 1.20693 155 48 140
-0.01911 0.32803 1.20693 164 49 149
-0.01911 0.47476 1.20693 164 49 149
0.01911 0.47476 1.20693 164 49 149
0.01911 0.32803 1.20693 164 49 149
-0.03399 -1.07656 1.30329 155 48 140
-0.03399 -1.07656 1.81977 155 48 140
0.03399 -1.07656 1.81977 155 48 140
0.03399 -1.07656 1.30329 155 48 140
0.03399 -0.99301 1.76039 155 48 140
0.03399 -0.99301 1.30329 155 48 140
-0.03399 -0.99301 1.30329 155 48 140
-0.03399 -0.99301 1.76039 155 48 140
0.03399 -1.05108 1.8408 155 48 140
-0.03399 -1.05108 1.8408 155 48 140
0.03399 -1.05108 1.8408 164 49 149
0.03399 -1.07656 1.81977 164 49 149
-0.03399 -1.07656 1.81977 164 49 149
-0.03399 -1.05108 1.8408 164 49 149
0.03356 -0.62631 1.8408 164 49 149
-0.03356 -0.62631 1.8408 164 49 149
-0.03356 -0.62631 1.8408 155 48 140
-0.03356 -0.62631 1.76039 155 48 140
0.03356 -0.62631 1.76039 155 48 140
0.03356 -0.62631 1.8408 155 48 140
-0.01095 -0.63874 1.77037 250 252 191
-0.01095 -0.63874 1.57514 250 252 191
0.01095 -0.63874 1.57514 250 252 191
0.01095 -0.63874 1.77037 250 252 191
0.01095 -1.00136 1.57514 250 252 191
0.01095 -1.00136 1.77037 250 252 191
-0.01095 -1.00136 1.77037 250 252 191
-0.01095 -1.00136 1.57514 250 252 191
0.01095 -1.00136 1.30329 250 252 191
0.01095 -1.00136 1.48665 250 252 191
0.01095 -0.63874 1.48665 250 252 191
0.01095 -0.63874 1.30329 250 252 191
-0.01095 -0.63874 1.48665 250 252 191
-0.01095 -0.63874 1.30329 250 252 191
-0.01095 -1.00136 1.48665 250 252 191
-0.01095 -1.00136 1.30329 250 252 191
-0.01095 -0.63874 1.57514 234 236 179
-0.01095 -0.63874 1.48665 234 236 179
0.01095 -0.63874 1.48665 234 236 179
0.01095 -0.63874 1.57514 234 236 179
0.01095 -1.00136 1.48665 234 236 179
0.01095 -1.00136 1.57514 234 236 179
-0.01095 -1.00136 1.57514 234 236 179
-0.01095 -1.00136 1.48665 234 236 179
0.35735 -0.88431 1.15304 155 48 140
0.35735 -0.88431 1.25456 155 48 140
0.89135 -0.88431 1.41692 155 48 140
0.8907 -0.88431 1.33016 155 48 140
0.35735 -0.8 1.15304 155 48 140
0.8907 -0.8 1.33016 155 48 140
0.89135 -0.8 1.41692 155 48 140
0.35735 -0.88431 1.25456 164 49 149
0.35735 -0.8 1.25456 164 49 149
0.89135 -0.8 1.41692 164 49 149
0.89135 -0.88431 1.41692 164 49 149
0.35735 -0.8 1.25456 155 48 140
0.35735 -0.85636 0.85701 250 252 191
0.35735 -0.85636 0.92969 250 252 191
0.875 -0.85636 0.92969 250 252 191
0.875 -0.85636 0.85681 250 252 191
0.35735 -0.82897 0.85701 250 252 191
0.875 -0.82897 0.85681 250 252 191
0.875 -0.82897 0.92969 250 252 191
0.35735 -0.82897 1.16427 250 252 191
0.35735 -0.82897 1.14275 250 252 191
0.875 -0.82897 1.14252 250 252 191
0.875 -0.82897 1.33103 250 252 191
0.875 -0.85636 1.14252 250 252 191
0.875 -0.85636 1.33103 250 252 191
0.35735 -0.85636 1.14275 250 252 191
0.35735 -0.85636 1.16427 250 252 191
0.35735 -0.82897 1.14275 234 236 179
0.35735 -0.82897 1.08101 234 236 179
0.875 -0.82897 1.08078 234 236 179
0.875 -0.82897 1.14252 234 236 179
0.875 -0.85636 1.08078 234 236 179
0.875 -0.85636 1.14252 234 236 179
0.35735 -0.85636 1.08101 234 236 179
0.35735 -0.85636 1.14275 234 236 179
0.35735 -0.82897 1.08101 250 252 191
0.35735 -0.82897 0.9926 250 252 191
0.875 -0.82897 0.9926 250 252 191
0.875 -0.82897 1.08078 250 252 191
0.875 -0.85636 0.9926 250 252 191
0.875 -0.85636 1.08078 250 252 191
0.35735 -0.85636 0.9926 250 252 191
0.35735 -0.85636 1.08101 250 252 191
0.35735 -0.82897 0.9926 234 236 179
0.35735 -0.82897 0.92969 234 236 179
0.875 -0.82897 0.92969 234 236 179
0.875 -0.82897 0.9926 234 236 179
0.35735 -0.85636 0.92969 234 236 179
0.35735 -0.85636 0.9926 234 236 179
0.875 -0.85636 0.9926 234 236 179
0.875 -0.85636 0.92969 234 236 179
0.35735 -0.82897 0.92969 250 252 191
-0.35735 -0.88431 1.15304 155 48 140
-0.8907 -0.88431 1.33016 155 48 140
-0.89135 -0.88431 1.41692 155 48 140
-0.35735 -0.88431 1.25456 155 48 140
-0.35735 -0.8 1.15304 155 48 140
-0.8907 -0.8 1.33016 155 48 140
-0.89135 -0.8 1.41692 155 48 140
-0.35735 -0.88431 1.25456 164 49 149
-0.89135 -0.88431 1.41692 164 49 149
-0.89135 -0.8 1.41692 164 49 149
-0.35735 -0.8 1.25456 164 49 149
-0.35735 -0.8 1.25456 155 48 140
-0.35735 -0.85636 0.85701 250 252 191
-0.875 -0.85636 0.85681 250 252 191
-0.875 -0.85636 0.92969 250 252 191
-0.35735 -0.85636 0.92969 250 252 191
-0.35735 -0.82897 0.85701 250 252 191
-0.875 -0.82897 0.85681 250 252 191
-0.875 -0.82897 0.92969 250 252 191
-0.35735 -0.82897 1.16427 250 252 191
-0.875 -0.82897 1.33103 250 252 191
-0.875 -0.82897 1.14252 250 252 191
-0.35735 -0.82897 1.14275 250 252 191
-0.875 -0.85636 1.14252 250 252 191
-0.875 -0.85636 1.33103 250 252 191
-0.35735 -0.85636 1.14275 250 252 191
-0.35735 -0.85636 1.16427 250 252 191
-0.35735 -0.82897 1.14275 234 236 179
-0.875 -0.82897 1.14252 234 236 179
-0.875 -0.82897 1.08078 234 236 179
-0.35735 -0.82897 1.08101 234 236 179
-0.875 -0.85636 1.08078 234 236 179
-0.875 -0.85636 1.14252 234 236 179
-0.35735 -0.85636 1.08101 234 236 179
-0.35735 -0.85636 1.14275 234 236 179
-0.35735 -0.82897 1.08101 250 252 191
-0.875 -0.82897 1.08078 250 252 191
-0.875 -0.82897 0.9926 250 252 191
-0.35735 -0.82897 0.9926 250 252 191
-0.875 -0.85636 0.9926 250 252 191
-0.875 -0.85636 1.08078 250 252 191
-0.35735 -0.85636 0.9926 250 252 191
-0.35735 -0.85636 1.08101 250 252 191
-0.35735 -0.82897 0.9926 234 236 179
-0.875 -0.82897 0.9926 234 236 179
-0.875 -0.82897 0.92969 234 236 179
-0.35735 -0.82897 0.92969 234 236 179
-0.35735 -0.85636 0.92969 234 236 179
-0.875 -0.85636 0.92969 234 236 179
-0.875 -0.85636 0.9926 234 236 179
-0.35735 -0.85636 0.9926 234 236 179
-0.35735 -0.82897 0.92969 250 252 191
-0.70501 -0.56544 1.61925 229 217 221
-0.6433 -0.56544 1.67965 229 217 221
-0.6433 -0.56544 0.26963 229 217 221
-0.70501 -0.56544 0.33004 229 217 221
-0.70501 -0.46448 1.61925 229 217 221
-0.70501 -0.46448 0.33004 229 217 221
-0.6433 -0.46448 0.26963 229 217 221
0.6433 -0.56544 0.26963 229 217 221
0.6433 -0.56544 1.67965 229 217 221
0.70501 -0.56544 0.33004 229 217 221
0.70501 -0.56544 1.61925 229 217 221
0.6433 -0.46448 0.26963 229 217 221
0.70501 -0.46448 0.33004 229 217 221
0.70501 -0.46448 1.61925 229 217 221
0.6433 -0.46448 1.67965 229 217 221
-0.6433 -0.46448 1.67965 229 217 221
-0.70501 -0.46448 1.61925 237 224 228
-0.6433 -0.46448 1.67965 237 224 228
-0.6433 -0.56544 1.67965 237 224 228
-0.70501 -0.56544 1.61925 237 224 228
0.6433 -0.56544 1.67965 237 224 228
0.6433 -0.46448 1.67965 237 224 228
0.70501 -0.46448 1.61925 237 224 228
0.70501 -0.56544 1.61925 237 224 228
-0.01911 -0.30561 1.11303 155 48 140
-0.01911 -0.30561 1.20693 155 48 140
0.01911 -0.30561 1.20693 155 48 140
0.01911 -0.30561 1.11303 155 48 140
0.01911 -0.15888 1.20693 155 48 140
0.01911 -0.15888 1.11303 155 48 140
-0.01911 -0.15888 1.11303 155 48 140
-0.01911 -0.15888 1.20693 155 48 140
-0.01911 -0.30561 1.20693 164 49 149
-0.01911 -0.15888 1.20693 164 49 149
0.01911 -0.15888 1.20693 164 49 149
0.01911 -0.30561 1.20693 164 49 149
-0.03755 -0.57567 0.32066 218 206 210
-0.03755 -0.57567 0.88842 218 206 210
0.03755 -0.57567 0.88842 218 206 210
0.03755 -0.57567 0.32066 218 206 210
-0.03755 -0.56039 0.32066 218 206 210
0.03755 -0.56039 0.32066 218 206 210
0.03755 -0.56039 0.88842 218 206 210
-0.03755 -0.56039 0.88842 218 206 210
0.58866 -0.56039 0.33733 218 206 210
0.58866 -0.57567 0.33733 218 206 210
0.64176 -0.57567 0.39043 218 206 210
0.64176 -0.56039 0.39043 218 206 210
0.09092 -0.56039 0.94134 218 206 210
0.09092 -0.57567 0.94134 218 206 210
0.64458 -0.56039 0.94134 218 206 210
0.64458 -0.57567 0.94134 218 206 210
-0.58866 -0.57567 0.33733 218 206 210
-0.58866 -0.56039 0.33733 218 206 210
-0.64176 -0.56039 0.39043 218 206 210
-0.64176 -0.57567 0.39043 218 206 210
-0.09084 -0.57567 0.94134 218 206 210
-0.09084 -0.56039 0.94134 218 206 210
-0.64458 -0.57567 0.94134 218 206 210
-0.64458 -0.56039 0.94134 218 206 210
-0.64458 -0.56039 1.01684 218 206 210
-0.64458 -0.57567 1.01684 218 206 210
-0.09084 -0.56039 1.01684 218 206 210
-0.09084 -0.57567 1.01684 218 206 210
-0.64176 -0.56039 1.56775 218 206 210
-0.64176 -0.57567 1.56775 218 206 210
-0.58866 -0.57567 1.62084 218 206 210
-0.58866 -0.56039 1.62084 218 206 210
-0.03755 -0.56039 1.06976 218 206 210
-0.03755 -0.57567 1.06976 218 206 210
-0.03755 -0.56039 1.63752 218 206 210
-0.03755 -0.57567 1.63752 218 206 210
0.03755 -0.57567 1.06976 218 206 210
0.03755 -0.57567 1.63752 218 206 210
0.03755 -0.56039 1.63752 218 206 210
0.03755 -0.56039 1.06976 218 206 210
0.58866 -0.56039 1.62084 218 206 210
0.58866 -0.57567 1.62084 218 206 210
0.64176 -0.57567 1.56775 218 206 210
0.64176 -0.56039 1.56775 218 206 210
0.09092 -0.56039 1.01684 218 206 210
0.09092 -0.57567 1.01684 218 206 210
0.64458 -0.56039 1.01684 218 206 210
0.64458 -0.57567 1.01684 218 206 210
0.08726 -0.47446 -1.17021E-17 233 166 222
0.08726 -0.47446 0.11424 233 166 222
0.25912 -0.47446 0.11424 233 166 222
0.25912 -0.47446 -1.25765E-17 233 166 222
0.05659 -0.40564 0 233 166 222
0.28978 -0.40564 0 233 166 222
0.28978 -0.40564 0.11424 233 166 222
0.28978 -0.1736 0 233 166 222
0.28978 -0.1736 0.45661 233 166 222
0.28978 -0.40564 0.45661 233 166 222
0.05659 -0.40564 0.11424 233 166 222
0.05659 -0.1736 0 233 166 222
0.05659 -0.40564 0.45661 233 166 222
0.05659 -0.1736 0.45661 233 166 222
0.07779 -0.14911 0.45661 233 166 222
0.07779 -0.14911 7.83945E-18 233 166 222
0.26859 -0.14911 4.01453E-17 233 166 222
0.26859 -0.14911 0.45661 233 166 222
0.08726 0.15562 -1.56663E-17 233 166 222
0.08726 0.15562 0.11424 233 166 222
0.25912 0.15562 0.11424 233 166 222
0.25912 0.15562 -1.56663E-17 233 166 222
0.05659 0.22444 0 233 166 222
0.28978 0.22444 0 233 166 222
0.28978 0.22444 0.11424 233 166 222
0.28978 0.45648 0 233 166 222
0.28978 0.45648 0.45661 233 166 222
0.28978 0.22444 0.45661 233 166 222
0.05659 0.22444 0.11424 233 166 222
0.05659 0.45648 0 233 166 222
0.05659 0.22444 0.45661 233 166 222
0.05659 0.45648 0.45661 233 166 222
0.21315 0.48096 0.06259 233 166 222
0.26859 0.48096 4.01453E-17 233 166 222
0.26859 0.48096 0.45661 233 166 222
0.21315 0.48096 0.15901 233 166 222
0.07779 0.48096 7.83945E-18 233 166 222
0.07779 0.48096 0.45661 233 166 222
0.13215 0.48096 0.06259 233 166 222
0.13215 0.48096 0.15901 233 166 222
0.28978 -0.40564 0.11424 239 170 228
0.25912 -0.47446 0.11424 239 170 228
0.08726 -0.47446 0.11424 239 170 228
0.05659 -0.40564 0.11424 239 170 228
0.28978 0.22444 0.11424 239 170 228
0.25912 0.15562 0.11424 239 170 228
0.08726 0.15562 0.11424 239 170 228
0.05659 0.22444 0.11424 239 170 228
0.30531 0.51052 0.44339 233 166 222
0.34105 0.51049 0.51377 233 166 222
0.2863 0.5755 0.51377 233 166 222
0.30531 -0.5 0.44339 233 166 222
0.34105 -0.5 0.51377 233 166 222
0.34105 0.51049 1.00209 233 166 222
0.2863 0.5755 1.0021 233 166 222
0.28628 0.46313 1.06407 233 166 222
0.24922 0.51052 1.06407 233 166 222
0.34105 -0.5 1.00153 233 166 222
-0.24922 0.51052 1.06407 233 166 222
-0.2863 0.5755 1.0021 233 166 222
-0.28628 0.46313 1.06407 233 166 222
-0.34105 0.51049 1.00209 233 166 222
-0.2863 0.5755 0.51377 233 166 222
-0.34105 0.51049 0.51377 233 166 222
-0.30531 0.51052 0.44339 233 166 222
-0.30531 -0.5 0.44339 233 166 222
-0.34105 -0.5 0.51377 233 166 222
-0.34105 -0.5 1.00153 233 166 222
0.28633 -0.5 1.06407 233 166 222
-0.28628 0.46313 1.06407 239 170 228
-0.24922 0.51052 1.06407 239 170 228
0.24922 0.51052 1.06407 239 170 228
0.28628 0.46313 1.06407 239 170 228
-0.28633 -0.5 1.06407 239 170 228
0.28633 -0.5 1.06407 239 170 228
-0.08726 -0.47446 -1.17021E-17 233 166 222
-0.25912 -0.47446 -1.25765E-17 233 166 222
-0.25912 -0.47446 0.11424 233 166 222
-0.08726 -0.47446 0.11424 233 166 222
-0.05659 -0.40564 0 233 166 222
-0.28978 -0.40564 0 233 166 222
-0.28978 -0.40564 0.11424 233 166 222
-0.28978 -0.1736 0 233 166 222
-0.28978 -0.1736 0.45661 233 166 222
-0.28978 -0.40564 0.45661 233 166 222
-0.05659 -0.40564 0.11424 233 166 222
-0.05659 -0.1736 0 233 166 222
-0.05659 -0.40564 0.45661 233 166 222
-0.05659 -0.1736 0.45661 233 166 222
-0.07779 -0.14911 0.45661 233 166 222
-0.26859 -0.14911 0.45661 233 166 222
-0.26859 -0.14911 -4.01453E-17 233 166 222
-0.07779 -0.14911 -7.83945E-18 233 166 222
-0.08726 0.15562 -1.56663E-17 233 166 222
-0.25912 0.15562 -1.56663E-17 233 166 222
-0.25912 0.15562 0.11424 233 166 222
-0.08726 0.15562 0.11424 233 166 222
-0.05659 0.22444 0 233 166 222
-0.28978 0.22444 0 233 166 222
-0.28978 0.22444 0.11424 233 166 222
-0.28978 0.45648 0 233 166 222
-0.28978 0.45648 0.45661 233 166 222
-0.28978 0.22444 0.45661 233 166 222
-0.05659 0.22444 0.11424 233 166 222
-0.05659 0.45648 0 233 166 222
-0.05659 0.22444 0.45661 233 166 222
-0.05659 0.45648 0.45661 233 166 222
-0.13215 0.48096 0.06259 233 166 222
-0.07779 0.48096 -7.83945E-18 233 166 222
-0.07779 0.48096 0.45661 233 166 222
-0.13215 0.48096 0.15901 233 166 222
-0.26859 0.48096 -4.01453E-17 233 166 222
-0.26859 0.48096 0.45661 233 166 222
-0.21315 0.48096 0.15901 233 166 222
-0.21315 0.48096 0.06259 233 166 222
-0.28978 -0.40564 0.11424 239 170 228
-0.05659 -0.40564 0.11424 239 170 228
-0.08726 -0.47446 0.11424 239 170 228
-0.25912 -0.47446 0.11424 239 170 228
-0.28978 0.22444 0.11424 239 170 228
-0.05659 0.22444 0.11424 239 170 228
-0.08726 0.15562 0.11424 239 170 228
-0.25912 0.15562 0.11424 239 170 228
-0.28633 -0.5 1.06407 233 166 222
-0.02289 0.71333 1.47374 155 48 140
-0.02289 0.64382 1.47374 155 48 140
0.02289 0.64382 1.47374 155 48 140
0.02289 0.71333 1.47374 155 48 140
0.02289 0.64382 1.61613 155 48 140
-0.02289 0.64382 1.61613 155 48 140
0.02289 0.71333 1.61613 155 48 140
-0.02289 0.64382 1.61613 164 49 149
-0.02289 0.71333 1.61613 164 49 149
0.02289 0.71333 1.61613 164 49 149
0.02289 0.64382 1.61613 164 49 149
-0.02289 0.71333 1.61613 155 48 140
-0.04526 0.41378 1.04924 164 49 149
-0.04526 0.70589 1.04924 164 49 149
0.04526 0.70589 1.04924 164 49 149
0.04526 0.41378 1.04924 164 49 149
0.04526 0.41378 0.98738 155 48 140
0.04526 0.41378 1.04924 155 48 140
0.04526 0.70589 1.04924 155 48 140
0.04526 0.78359 0.98738 155 48 140
0.04526 0.78359 1.7011 155 48 140
0.04526 0.70589 1.7011 155 48 140
-0.04526 0.70589 1.04924 155 48 140
-0.04526 0.70589 1.7011 155 48 140
-0.04526 0.78359 0.98738 155 48 140
-0.04526 0.41378 0.98738 155 48 140
-0.04526 0.41378 1.04924 155 48 140
-0.04526 0.78359 1.7011 155 48 140
-0.04526 0.70589 1.7011 164 49 149
-0.04526 0.78359 1.7011 164 49 149
0.04526 0.78359 1.7011 164 49 149
0.04526 0.70589 1.7011 164 49 149
-0.02289 0.71333 1.13083 155 48 140
-0.02289 0.64382 1.13083 155 48 140
0.02289 0.64382 1.13083 155 48 140
0.02289 0.71333 1.13083 155 48 140
0.02289 0.64382 1.27322 155 48 140
-0.02289 0.64382 1.27322 155 48 140
0.02289 0.71333 1.27322 155 48 140
-0.02289 0.64382 1.27322 164 49 149
-0.02289 0.71333 1.27322 164 49 149
0.02289 0.71333 1.27322 164 49 149
0.02289 0.64382 1.27322 164 49 149
-0.02289 0.71333 1.27322 155 48 140
0.17556 0.41378 0.99345 233 166 222
0.17556 0.77596 0.99399 233 166 222
0.24011 0.77596 0.93028 233 166 222
0.24011 0.41378 0.93148 233 166 222
0.24011 0.96927 0.54201 233 166 222
0.24011 0.41378 0.54201 233 166 222
-0.24011 0.41378 0.54201 233 166 222
-0.24011 0.96927 0.54201 233 166 222
0.24011 0.83717 0.99409 233 166 222
0.24011 1.03135 0.59684 233 166 222
-0.24011 1.03135 0.59684 233 166 222
0.17779 1.03324 1.70201 233 166 222
0.17818 0.77571 1.70201 233 166 222
-0.17779 1.03324 1.70201 233 166 222
0.06237 1.03348 2 233 166 222
-0.06237 1.03348 2 233 166 222
-0.17556 0.41378 0.99345 233 166 222
-0.17556 0.77596 0.99399 233 166 222
-0.39537 1.03348 1.70194 233 166 222
-0.39537 0.77585 1.70194 233 166 222
-0.17818 0.77571 1.70201 233 166 222
-0.4492 1.03348 1.74835 233 166 222
-0.06195 0.77572 2 233 166 222
0.06195 0.77572 2 233 166 222
0.39537 0.77585 1.70194 233 166 222
0.4492 0.77585 1.74835 233 166 222
0.4492 1.03348 1.74835 233 166 222
0.39537 1.03348 1.70194 233 166 222
-0.06195 0.77572 2.375 233 166 222
-0.06195 1.03348 2.375 233 166 222
0.4492 1.03348 2.375 233 166 222
0.4492 0.77585 2.375 233 166 222
0.06195 0.77572 2.375 233 166 222
0.41693 0.79731 2.40474 233 166 222
0.09421 0.7972 2.40474 233 166 222
0.41693 1.012 2.40474 233 166 222
-0.09421 1.012 2.40474 233 166 222
-0.41693 1.012 2.40474 233 166 222
-0.4492 1.03348 2.375 233 166 222
-0.09421 0.7972 2.40474 233 166 222
0.06195 1.03348 2.375 233 166 222
0.09421 1.012 2.40474 233 166 222
0.09421 1.012 2.40474 239 170 228
0.41693 1.012 2.40474 239 170 228
0.41693 0.79731 2.40474 239 170 228
0.09421 0.7972 2.40474 239 170 228
0.06195 0.77572 2 239 170 228
-0.06195 0.77572 2 239 170 228
-0.06237 1.03348 2 239 170 228
0.06237 1.03348 2 239 170 228
-0.24011 0.41378 0.93148 233 166 222
-0.24011 0.77596 0.93028 233 166 222
-0.24011 0.83717 0.99409 233 166 222
-0.4492 0.77585 1.74835 233 166 222
-0.4492 0.77585 2.375 233 166 222
-0.41693 0.79731 2.40474 233 166 222
-0.09421 1.012 2.40474 239 170 228
-0.09421 0.7972 2.40474 239 170 228
-0.41693 0.79731 2.40474 239 170 228
-0.41693 1.012 2.40474 239 170 228
0.02367 -1.1382 0.8988 18 19 24
0.02367 -1.1382 0.92993 18 19 24
0.02367 -1.1304 0.92993 18 19 24
0.02367 -1.1304 0.8988 18 19 24
-0.02367 -1.1382 0.8988 18 19 24
-0.02367 -1.1382 0.92993 18 19 24
-0.02367 -1.1304 0.92993 18 19 24
-0.02367 -1.1304 0.8988 18 19 24
0.36469 -1.07067 0.69167 233 166 222
0.36469 -0.58785 0.69167 233 166 222
0.31636 -0.58785 0.66306 233 166 222
0.3164 -1.03756 0.66306 233 166 222
0.27997 -0.53501 0.70824 233 166 222
0.3283 -0.53501 0.7331 233 166 222
0.36469 -0.84351 0.95898 233 166 222
-0.27997 -0.53501 0.70824 233 166 222
-0.31636 -0.58785 0.66306 233 166 222
-0.36469 -0.58785 0.69167 233 166 222
-0.36469 -1.07067 0.69167 233 166 222
-0.3164 -1.03756 0.66306 233 166 222
-0.3283 -0.53501 0.7331 233 166 222
-0.36469 -0.58785 0.95898 233 166 222
-0.36469 -0.84351 0.95898 233 166 222
-0.3283 -0.53501 0.95898 233 166 222
0.36469 -0.58785 0.95898 233 166 222
0.3283 -0.53501 0.95898 233 166 222
-0.36469 -0.84351 1.13074 233 166 222
-0.36469 -1.06994 1.27541 233 166 222
-0.32898 -1.13226 0.69167 233 166 222
-0.32945 -1.13211 1.27541 233 166 222
-0.2877 -1.09436 0.66306 233 166 222
-0.27553 -1.1322 0.92969 233 166 222
-0.27553 -1.13217 1.08952 233 166 222
0.32898 -1.13226 0.69167 233 166 222
0.2877 -1.09436 0.66306 233 166 222
0.36469 -1.06994 1.27541 233 166 222
0.32945 -1.13211 1.27541 233 166 222
0.27553 -1.1322 0.92969 233 166 222
0.27553 -1.13217 1.08952 233 166 222
0.36469 -0.84351 1.13074 233 166 222
0.2313 -1.13211 1.27541 233 166 222
0.10381 -1.13216 1.06155 233 166 222
0.03543 -1.13215 1.13208 233 166 222
0.11041 -1.13231 0.86048 233 166 222
0.11041 -1.13228 0.7542 233 166 222
0.10381 -1.1322 0.92969 233 166 222
0.10382 -1.11506 1.06154 233 166 222
0.27553 -1.11506 1.08952 233 166 222
0.10382 -1.1151 0.92969 233 166 222
-0.10381 -1.1322 0.92969 233 166 222
-0.10381 -1.13216 1.06155 233 166 222
-0.10382 -1.1151 0.92969 233 166 222
-0.10382 -1.11506 1.06154 233 166 222
-0.2313 -1.13211 1.27541 233 166 222
-0.03543 -1.1322 1.13208 233 166 222
-0.27553 -1.11506 1.08952 233 166 222
0 -1.13231 0.88141 233 166 222
-0.11041 -1.13231 0.86048 233 166 222
-0.11041 -1.13228 0.7542 233 166 222
-0.02688 -1.13231 0.86048 233 166 222
0.02688 -1.13231 0.86048 233 166 222
0.36469 -0.84351 1.13074 155 48 140
0.36469 -1.06994 1.27541 155 48 140
0.36469 -0.58785 1.27541 155 48 140
0.31647 -0.62885 1.31144 155 48 140
0.31647 -1.03701 1.31144 155 48 140
0.28785 -1.09405 1.31144 155 48 140
0.32945 -1.13211 1.27541 155 48 140
0.2313 -1.13211 1.27541 155 48 140
-0.2313 -1.13211 1.27541 155 48 140
-0.03543 -1.1322 1.13208 155 48 140
0.03543 -1.13215 1.13208 155 48 140
-0.28785 -1.09405 1.31144 155 48 140
-0.32945 -1.13211 1.27541 155 48 140
-0.36469 -1.06994 1.27541 155 48 140
-0.31647 -1.03701 1.31144 155 48 140
-0.31647 -0.62885 1.31144 155 48 140
-0.36469 -0.58785 1.27541 155 48 140
-0.36469 -0.84351 1.13074 155 48 140
-0.36469 -0.84351 0.95898 155 48 140
-0.36469 -0.58785 0.95898 155 48 140
-0.3283 -0.53501 1.27523 155 48 140
-0.28483 -0.58785 1.31144 155 48 140
0.3283 -0.53501 1.27523 155 48 140
0.28483 -0.58785 1.31144 155 48 140
0.3283 -0.53501 0.95898 155 48 140
0.36469 -0.58785 0.95898 155 48 140
-0.3283 -0.53501 0.95898 155 48 140
0.36469 -0.84351 0.95898 155 48 140
0.11041 -1.05777 0.7542 77 37 48
0.11041 -1.05782 0.86048 77 37 48
0.11041 -1.13231 0.86048 77 37 48
0.11041 -1.13228 0.7542 77 37 48
-0.11041 -1.13228 0.7542 77 37 48
-0.11041 -1.05777 0.7542 77 37 48
-0.11041 -1.13231 0.86048 77 37 48
-0.11041 -1.05782 0.86048 77 37 48
0.02688 -1.05782 0.86048 77 37 48
0.02688 -1.13231 0.86048 77 37 48
-0.02688 -1.05782 0.86048 77 37 48
-0.02688 -1.13231 0.86048 77 37 48
0 -1.05782 0.88141 77 37 48
0 -1.13231 0.88141 77 37 48
0.08151 -1.10877 0.80187 164 65 85
0.08151 -1.05164 0.80187 164 65 85
0.08151 -1.05164 0.74628 164 65 85
0.08151 -1.10877 0.74628 164 65 85
-0.08151 -1.10877 0.74628 164 65 85
-0.08151 -1.10877 0.80187 164 65 85
-0.08151 -1.05164 0.74628 164 65 85
-0.08151 -1.05164 0.80187 164 65 85
0.14986 -1.11508 0.97798 34 23 0
0.14986 -1.1151 0.92969 34 23 0
0.10382 -1.1151 0.92969 34 23 0
0.10382 -1.11506 1.06154 34 23 0
0.27553 -1.11506 1.08952 34 23 0
0.25842 -1.11508 0.97798 34 23 0
0.27553 -1.1151 0.92969 34 23 0
0.25842 -1.1151 0.92969 34 23 0
0.25842 -1.1151 0.92969 233 166 222
0.27553 -1.1151 0.92969 233 166 222
0.14986 -1.1151 0.92969 233 166 222
0.25842 -1.1151 0.92969 105 42 103
0.14986 -1.1151 0.92969 105 42 103
0.14986 -1.11508 0.97798 105 42 103
0.25842 -1.11508 0.97798 105 42 103
0.31647 -1.03701 1.31144 164 49 149
0.28785 -1.09405 1.31144 164 49 149
-0.28785 -1.09405 1.31144 164 49 149
-0.31647 -1.03701 1.31144 164 49 149
0.31647 -0.62885 1.31144 164 49 149
-0.31647 -0.62885 1.31144 164 49 149
0.28483 -0.58785 1.31144 164 49 149
-0.28483 -0.58785 1.31144 164 49 149
-0.14986 -1.11508 0.97798 34 23 0
-0.10382 -1.11506 1.06154 34 23 0
-0.10382 -1.1151 0.92969 34 23 0
-0.14986 -1.1151 0.92969 34 23 0
-0.27553 -1.11506 1.08952 34 23 0
-0.25842 -1.11508 0.97798 34 23 0
-0.27553 -1.1151 0.92969 34 23 0
-0.25842 -1.1151 0.92969 34 23 0
-0.25842 -1.1151 0.92969 233 166 222
-0.27553 -1.1151 0.92969 233 166 222
-0.14986 -1.1151 0.92969 233 166 222
-0.25842 -1.1151 0.92969 105 42 103
-0.25842 -1.11508 0.97798 105 42 103
-0.14986 -1.11508 0.97798 105 42 103
-0.14986 -1.1151 0.92969 105 42 103
0.13827 -1.12299 1.01088 255 255 255
0.13827 -1.12299 1.0835 255 255 255
0.19096 -1.12299 1.0835 255 255 255
0.19096 -1.12299 1.01088 255 255 255
0.13827 -1.11338 1.01088 255 255 255
0.19096 -1.11338 1.01088 255 255 255
0.19096 -1.11338 1.0835 255 255 255
0.13827 -1.11338 1.0835 255 255 255
-0.13827 -1.12299 1.01088 255 255 255
-0.19096 -1.12299 1.01088 255 255 255
-0.19096 -1.12299 1.0835 255 255 255
-0.13827 -1.12299 1.0835 255 255 255
-0.13827 -1.11338 1.01088 255 255 255
-0.19096 -1.11338 1.01088 255 255 255
-0.19096 -1.11338 1.0835 255 255 255
-0.13827 -1.11338 1.0835 255 255 255
0.13215 0.48096 0.06259 179 140 172
0.21315 0.48096 0.06259 179 140 172
0.21315 0.48096 0.15901 179 140 172
0.13215 0.48096 0.15901 179 140 172
-0.21315 0.48096 0.06259 179 140 172
-0.13215 0.48096 0.06259 179 140 172
-0.13215 0.48096 0.15901 179 140 172
-0.21315 0.48096 0.15901 179 140 172
3 0 2 1
3 0 3 2
3 1 2 4
3 1 4 5
3 6 8 7
3 7 8 9
3 7 9 10
3 11 8 6
3 11 6 12
3 10 9 13
3 13 9 14
3 13 14 15
3 16 18 17
3 16 19 18
3 19 20 18
3 19 21 20
3 22 16 17
3 22 17 23
3 24 26 25
3 24 27 26
3 23 21 22
3 23 20 21
3 28 30 29
3 28 31 30
3 31 32 30
3 31 33 32
3 34 28 29
3 34 29 35
3 36 38 37
3 36 39 38
3 35 33 34
3 35 32 33
3 40 42 41
3 40 43 42
3 43 44 42
3 43 45 44
3 46 40 41
3 46 41 47
3 42 44 48
3 47 41 49
3 50 52 51
3 50 53 52
3 53 50 54
3 53 54 55
3 56 58 57
3 56 59 58
3 48 58 59
3 48 44 58
3 44 57 58
3 44 47 57
3 47 56 57
3 47 44 45
3 47 45 46
3 47 49 56
3 60 62 61
3 60 63 62
3 64 62 63
3 64 63 65
3 61 66 60
3 61 67 66
3 68 70 69
3 68 71 70
3 72 70 71
3 72 71 73
3 73 74 72
3 73 75 74
3 76 78 77
3 76 79 78
3 80 78 79
3 80 79 81
3 77 82 76
3 77 83 82
3 84 86 85
3 84 87 86
3 88 87 84
3 88 89 87
3 87 90 86
3 87 89 90
3 91 93 92
3 91 94 93
3 95 89 88
3 95 90 89
3 96 98 97
3 96 99 98
3 100 99 96
3 100 101 99
3 99 102 98
3 99 101 102
3 103 105 104
3 103 106 105
3 107 105 106
3 107 106 108
3 109 108 110
3 109 107 108
3 111 113 112
3 111 114 113
3 115 113 114
3 115 114 116
3 117 116 118
3 117 115 116
3 119 121 120
3 119 122 121
3 123 121 122
3 123 122 124
3 125 124 126
3 125 123 124
3 127 129 128
3 127 130 129
3 131 133 132
3 131 134 133
3 134 130 133
3 134 129 130
3 135 101 100
3 135 102 101
3 136 138 137
3 136 139 138
3 140 136 137
3 140 137 141
3 137 142 141
3 137 138 142
3 143 145 144
3 143 146 145
3 147 141 142
3 147 140 141
3 148 150 149
3 148 151 150
3 152 148 149
3 152 149 153
3 149 154 153
3 149 150 154
3 155 157 156
3 155 158 157
3 159 156 157
3 159 160 156
3 161 160 159
3 161 162 160
3 163 165 164
3 163 166 165
3 167 164 165
3 167 168 164
3 169 168 167
3 169 170 168
3 171 173 172
3 171 174 173
3 175 172 173
3 175 176 172
3 177 176 175
3 177 178 176
3 179 181 180
3 179 182 181
3 183 185 184
3 183 186 185
3 184 185 180
3 184 180 181
3 187 153 154
3 187 152 153
3 188 190 189
3 188 191 190
3 192 191 188
3 192 193 191
3 191 194 190
3 191 193 194
3 189 190 195
3 189 195 196
3 196 195 197
3 196 197 198
3 190 194 199
3 190 199 195
3 195 199 200
3 201 200 199
3 198 200 201
3 198 197 200
3 195 200 197
3 201 199 202
3 202 199 194
3 202 194 203
3 203 194 193
3 203 193 192
3 204 206 205
3 204 207 206
3 205 206 208
3 205 208 209
3 209 211 210
3 209 208 211
3 212 214 213
3 212 215 214
3 215 216 214
3 215 217 216
3 218 212 213
3 218 213 219
3 220 222 221
3 220 223 222
3 219 217 218
3 219 216 217
3 224 226 225
3 224 227 226
3 228 227 224
3 228 224 225
3 228 229 227
3 227 230 226
3 227 229 230
3 228 225 231
3 226 230 232
3 226 232 233
3 234 233 232
3 234 226 233
3 234 232 235
3 236 234 235
3 236 237 234
3 234 237 226
3 237 236 238
3 237 238 239
3 231 225 240
3 231 240 241
3 242 241 240
3 242 240 243
3 244 242 243
3 244 245 242
3 245 244 246
3 245 246 247
3 248 247 246
3 248 246 249
3 250 248 249
3 250 249 251
3 251 246 244
3 251 249 246
3 251 252 250
3 251 253 252
3 252 253 254
3 252 254 255
3 256 255 254
3 256 254 257
3 253 257 254
3 253 251 257
3 258 256 257
3 258 257 259
3 259 257 260
3 259 260 261
3 258 259 261
3 258 261 262
3 261 263 262
3 261 260 263
3 260 264 263
3 260 265 264
3 266 264 265
3 266 265 260
3 266 267 264
3 268 267 266
3 268 266 269
3 266 260 269
3 269 270 268
3 269 271 270
3 238 270 271
3 238 271 239
3 269 239 271
3 269 237 239
3 243 225 244
3 243 240 225
3 272 274 273
3 272 275 274
3 276 275 272
3 276 277 275
3 277 274 275
3 277 278 274
3 277 279 278
3 276 279 277
3 278 279 280
3 278 280 281
3 282 278 281
3 282 272 273
3 282 276 272
3 283 276 282
3 276 283 279
3 282 281 284
3 283 282 284
3 283 284 285
3 286 288 287
3 286 289 288
3 280 288 289
3 280 279 288
3 279 287 288
3 279 283 287
3 283 286 287
3 283 285 286
3 290 292 291
3 290 293 292
3 294 293 290
3 294 295 293
3 295 292 293
3 295 296 292
3 295 297 296
3 294 297 295
3 296 297 298
3 296 298 299
3 300 296 299
3 300 290 291
3 300 294 290
3 301 294 300
3 294 301 297
3 300 299 302
3 301 300 302
3 301 302 303
3 304 306 305
3 304 307 306
3 298 305 306
3 298 297 305
3 297 308 305
3 308 304 305
3 297 301 308
3 301 309 308
3 309 306 307
3 301 303 309
3 308 310 304
3 309 310 308
3 309 307 311
3 309 311 310
3 312 314 313
3 312 315 314
3 316 318 317
3 316 319 318
3 320 322 321
3 323 320 321
3 323 321 324
3 325 321 322
3 324 321 325
3 325 322 326
3 327 325 326
3 327 326 328
3 324 325 329
3 330 328 326
3 330 326 331
3 331 326 322
3 332 330 331
3 332 331 333
3 333 331 334
3 320 334 322
3 331 322 334
3 333 334 335
3 336 335 334
3 337 335 336
3 323 337 336
3 337 338 335
3 338 333 335
3 338 339 333
3 320 336 334
3 323 336 320
3 329 327 340
3 329 325 327
3 341 343 342
3 341 344 343
3 344 341 345
3 344 345 346
3 347 349 348
3 347 350 349
3 351 347 348
3 351 348 352
3 352 348 349
3 352 349 353
3 352 353 354
3 351 352 354
3 353 355 354
3 353 356 355
3 357 356 353
3 357 347 351
3 357 350 347
3 358 357 351
3 351 354 358
3 357 359 356
3 358 359 357
3 358 360 359
3 361 363 362
3 361 364 363
3 360 364 361
3 360 358 364
3 358 363 364
3 358 354 363
3 354 362 363
3 354 355 362
3 365 367 366
3 365 368 367
3 369 365 366
3 369 366 370
3 370 366 367
3 370 367 371
3 370 371 372
3 369 370 372
3 371 373 372
3 371 374 373
3 375 374 371
3 375 365 369
3 375 368 365
3 376 375 369
3 369 372 376
3 375 377 374
3 376 377 375
3 376 378 377
3 379 381 380
3 379 382 381
3 378 380 381
3 378 376 380
3 376 383 380
3 383 379 380
3 376 372 383
3 372 384 383
3 372 373 384
3 381 385 384
3 381 382 385
3 384 386 383
3 384 385 386
3 383 386 379
3 387 389 388
3 387 390 389
3 391 393 392
3 391 394 393
3 339 332 333
3 339 395 332
3 396 398 397
3 396 399 398
3 397 398 400
3 399 400 398
3 397 400 401
3 399 402 400
3 403 405 404
3 403 406 405
3 407 397 401
3 407 396 397
3 408 410 409
3 408 411 410
3 412 414 413
3 412 415 414
3 414 415 416
3 414 416 417
3 418 414 417
3 418 417 419
3 420 418 419
3 418 420 421
3 418 421 422
3 420 419 423
3 424 426 425
3 424 427 426
3 428 430 429
3 428 431 430
3 429 430 432
3 431 432 430
3 429 432 433
3 431 434 432
3 435 437 436
3 435 438 437
3 439 429 433
3 439 428 429
3 440 442 441
3 440 443 442
3 443 444 442
3 443 445 444
3 444 445 446
3 444 446 447
3 441 442 448
3 442 449 448
3 442 444 449
3 449 444 447
3 449 447 450
3 448 449 451
3 451 449 450
3 448 451 452
3 452 441 448
3 451 450 453
3 454 451 453
3 454 453 455
3 441 456 440
3 441 457 456
3 453 458 455
3 459 458 453
3 459 453 460
3 458 461 455
3 452 457 441
3 452 460 457
3 452 462 460
3 452 463 462
3 463 452 464
3 463 464 465
3 464 466 465
3 464 467 466
3 455 468 462
3 455 469 468
3 465 466 470
3 465 470 471
3 463 465 471
3 463 471 472
3 472 471 473
3 472 473 474
3 471 475 473
3 471 470 475
3 468 469 476
3 469 477 476
3 469 478 477
3 455 478 469
3 455 461 478
3 468 476 479
3 464 451 467
3 464 452 451
3 451 454 467
3 467 454 466
3 466 454 480
3 454 472 480
3 454 463 472
3 466 480 470
3 480 472 474
3 480 474 481
3 470 480 481
3 470 481 475
3 482 484 483
3 482 485 484
3 486 488 487
3 486 489 488
3 456 491 490
3 456 457 491
3 490 491 447
3 490 447 446
3 457 492 491
3 491 450 447
3 491 492 450
3 492 453 450
3 492 460 453
3 460 492 457
3 462 459 460
3 462 493 459
3 462 494 493
3 462 468 494
3 459 493 461
3 461 493 494
3 459 461 458
3 461 494 478
3 478 494 495
3 478 495 477
3 494 479 495
3 494 468 479
3 496 498 497
3 496 499 498
3 500 502 501
3 500 503 502
3 501 504 500
3 501 505 504
3 502 505 501
3 504 505 506
3 502 506 505
3 504 506 507
3 500 507 503
3 500 504 507
3 508 510 509
3 508 511 510
3 509 510 512
3 509 512 513
3 509 514 508
3 510 515 512
3 510 516 515
3 511 516 510
3 517 515 516
3 518 517 516
3 518 516 519
3 511 519 516
3 517 520 515
3 521 520 517
3 517 522 521
3 517 518 522
3 521 523 520
3 509 524 514
3 525 509 513
3 525 524 509
3 522 518 526
3 518 527 526
3 528 527 518
3 528 529 527
3 528 518 519
3 528 519 530
3 531 529 528
3 531 532 529
3 533 528 530
3 533 530 534
3 533 534 511
3 533 511 508
3 533 508 535
3 533 535 536
3 537 533 536
3 537 536 538
3 508 539 535
3 540 538 536
3 540 541 538
3 542 541 540
3 543 533 537
3 543 544 533
3 537 545 543
3 538 541 546
3 538 546 547
3 541 548 546
3 541 545 548
3 541 549 545
3 541 550 549
3 550 551 549
3 550 552 551
3 532 552 550
3 553 532 550
3 554 553 550
3 554 541 542
3 554 550 541
3 553 529 532
3 532 555 552
3 556 545 549
3 543 545 556
3 556 549 557
3 531 557 549
3 557 531 528
3 557 528 558
3 544 558 528
3 544 528 533
3 556 557 559
3 543 556 560
3 561 563 562
3 562 563 564
3 562 564 565
3 566 562 565
3 567 562 566
3 566 568 567
3 566 569 568
3 568 569 570
3 568 570 571
3 566 572 569
3 572 573 569
3 573 572 574
3 572 575 574
3 574 575 576
3 574 576 577
3 578 574 577
3 577 579 578
3 577 580 579
3 581 580 577
3 581 577 576
3 581 576 582
3 583 581 582
3 583 582 584
3 583 584 564
3 583 564 563
3 585 583 563
3 585 563 586
3 581 587 580
3 563 588 586
3 563 561 588
3 589 591 590
3 589 592 591
3 589 593 592
3 589 594 593
3 594 595 593
3 594 596 595
3 590 597 589
3 591 597 590
3 591 598 597
3 599 595 596
3 594 599 596
3 589 599 594
3 589 597 599
3 599 600 595
3 601 600 599
3 599 597 601
3 601 602 600
3 597 602 601
3 597 598 602
3 603 605 604
3 603 606 605
3 603 607 606
3 603 608 607
3 604 608 603
3 608 609 607
3 608 610 609
3 604 610 608
3 611 613 612
3 611 614 613
3 615 614 611
3 615 611 616
3 617 615 616
3 617 616 618
3 619 537 620
3 537 547 620
3 537 538 547
3 545 537 619
3 545 619 621
3 545 621 548
3 622 624 623
3 622 625 624
3 626 628 627
3 626 629 628
3 630 629 626
3 630 631 629
3 632 631 630
3 632 633 631
3 534 519 511
3 534 530 519
3 634 636 635
3 634 637 636
3 638 634 635
3 638 639 634
3 640 639 638
3 640 641 639
3 642 643 531
3 531 643 555
3 531 555 532
3 549 642 531
3 549 644 642
3 549 551 644
3 645 647 646
3 645 648 647
3 649 651 650
3 649 652 651
3 653 652 649
3 653 649 650
3 653 654 652
3 652 655 651
3 652 654 655
3 653 650 656
3 657 659 658
3 657 660 659
3 661 657 658
3 661 660 657
3 661 658 662
3 658 663 662
3 658 659 663
3 661 664 660
3 508 514 539
3 665 667 666
3 665 668 667
3 669 671 670
3 669 672 671
