ply
format ascii 1.0
element vertex 683
property float x
property float y
property float z
property uchar red
property uchar green
property uchar blue
element face 730
property list uchar int vertex_index
end_header
-0.03779 -0.47039 1.11904 23 104 139
-0.03779 0.53815 1.11904 23 104 139
0.03779 0.53815 1.11904 23 104 139
0.03779 -0.47039 1.11904 23 104 139
0.03779 0.5708 1.09245 23 104 139
-0.03779 0.5708 1.09245 23 104 139
0.03779 0.53815 1.11904 21 96 128
0.03779 0.5708 1.09245 21 96 128
0.03779 0.5708 1 21 96 128
-0.03779 0.5708 1 21 96 128
-0.03779 0.5708 1.09245 21 96 128
0.03779 -0.47039 1 21 96 128
0.03779 -0.47039 1.11904 21 96 128
-0.03779 0.53815 1.11904 21 96 128
-0.03779 -0.47039 1 21 96 128
-0.03779 -0.47039 1.11904 21 96 128
-0.01911 0.01116 1.11303 21 96 128
-0.01911 0.01116 1.20693 21 96 128
0.01911 0.01116 1.20693 21 96 128
0.01911 0.01116 1.11303 21 96 128
0.01911 0.15789 1.20693 21 96 128
0.01911 0.15789 1.11303 21 96 128
-0.01911 0.15789 1.11303 21 96 128
-0.01911 0.15789 1.20693 21 96 128
-0.01911 0.01116 1.20693 23 104 139
-0.01911 0.15789 1.20693 23 104 139
0.01911 0.15789 1.20693 23 104 139
0.01911 0.01116 1.20693 23 104 139
-0.01911 0.32803 1.11303 21 96 128
-0.01911 0.32803 1.20693 21 96 128
0.01911 0.32803 1.20693 21 96 128
0.01911 0.32803 1.11303 21 96 128
0.01911 0.47476 1.20693 21 96 128
0.01911 0.47476 1.11303 21 96 128
-0.01911 0.47476 1.11303 21 96 128
-0.01911 0.47476 1.20693 21 96 128
-0.01911 0.32803 1.20693 23 104 139
-0.01911 0.47476 1.20693 23 104 139
0.01911 0.47476 1.20693 23 104 139
0.01911 0.32803 1.20693 23 104 139
-0.03399 -1.07656 1.30329 21 96 128
-0.03399 -1.07656 1.81977 21 96 128
0.03399 -1.07656 1.81977 21 96 128
0.03399 -1.07656 1.30329 21 96 128
0.03399 -0.99301 1.76039 21 96 128
0.03399 -0.99301 1.30329 21 96 128
-0.03399 -0.99301 1.30329 21 96 128
-0.03399 -0.99301 1.76039 21 96 128
0.03399 -1.05108 1.8408 21 96 128
-0.03399 -1.05108 1.8408 21 96 128
0.03399 -1.05108 1.8408 23 104 139
0.03399 -1.07656 1.81977 23 104 139
-0.03399 -1.07656 1.81977 23 104 139
-0.03399 -1.05108 1.8408 23 104 139
0.03356 -0.62631 1.8408 23 104 139
-0.03356 -0.62631 1.8408 23 104 139
-0.03356 -0.62631 1.8408 21 96 128
-0.03356 -0.62631 1.76039 21 96 128
0.03356 -0.62631 1.76039 21 96 128
0.03356 -0.62631 1.8408 21 96 128
-0.01095 -0.63874 1.77037 243 241 200
-0.01095 -0.63874 1.57514 243 241 200
0.01095 -0.63874 1.57514 243 241 200
0.01095 -0.63874 1.77037 243 241 200
0.01095 -1.00136 1.57514 243 241 200
0.01095 -1.00136 1.77037 243 241 200
-0.01095 -1.00136 1.77037 243 241 200
-0.01095 -1.00136 1.57514 243 241 200
0.01095 -1.00136 1.30329 243 241 200
0.01095 -1.00136 1.48665 243 241 200
0.01095 -0.63874 1.48665 243 241 200
0.01095 -0.63874 1.30329 243 241 200
-0.01095 -0.63874 1.48665 243 241 200
-0.01095 -0.63874 1.30329 243 241 200
-0.01095 -1.00136 1.48665 243 241 200
-0.01095 -1.00136 1.30329 243 241 200
-0.01095 -0.63874 1.57514 228 226 188
-0.01095 -0.63874 1.48665 228 226 188
0.01095 -0.63874 1.48665 228 226 188
0.01095 -0.63874 1.57514 228 226 188
0.01095 -1.00136 1.48665 228 226 188
0.01095 -1.00136 1.57514 228 226 188
-0.01095 -1.00136 1.57514 228 226 188
-0.01095 -1.00136 1.48665 228 226 188
0.35735 -0.88431 1.15304 21 96 128
0.35735 -0.88431 1.25456 21 96 128
0.89135 -0.88431 1.41692 21 96 128
0.8907 -0.88431 1.33016 21 96 128
0.35735 -0.8 1.15304 21 96 128
0.8907 -0.8 1.33016 21 96 128
0.89135 -0.8 1.41692 21 96 128
0.35735 -0.88431 1.25456 23 104 139
0.35735 -0.8 1.25456 23 104 139
0.89135 -0.8 1.41692 23 104 139
0.89135 -0.88431 1.41692 23 104 139
0.35735 -0.8 1.25456 21 96 128
0.35735 -0.85636 0.85701 243 241 200
0.35735 -0.85636 0.92969 243 241 200
0.875 -0.85636 0.92969 243 241 200
0.875 -0.85636 0.85681 243 241 200
0.35735 -0.82897 0.85701 243 241 200
0.875 -0.82897 0.85681 243 241 200
0.875 -0.82897 0.92969 243 241 200
0.35735 -0.82897 1.16427 243 241 200
0.35735 -0.82897 1.14275 243 241 200
0.875 -0.82897 1.14252 243 241 200
0.875 -0.82897 1.33103 243 241 200
0.875 -0.85636 1.14252 243 241 200
0.875 -0.85636 1.33103 243 241 200
0.35735 -0.85636 1.14275 243 241 200
0.35735 -0.85636 1.16427 243 241 200
0.35735 -0.82897 1.14275 228 226 188
0.35735 -0.82897 1.08101 228 226 188
0.875 -0.82897 1.08078 228 226 188
0.875 -0.82897 1.14252 228 226 188
0.875 -0.85636 1.08078 228 226 188
0.875 -0.85636 1.14252 228 226 188
0.35735 -0.85636 1.08101 228 226 188
0.35735 -0.85636 1.14275 228 226 188
0.35735 -0.82897 1.08101 243 241 200
0.35735 -0.82897 0.9926 243 241 200
0.875 -0.82897 0.9926 243 241 200
0.875 -0.82897 1.08078 243 241 200
0.875 -0.85636 0.9926 243 241 200
0.875 -0.85636 1.08078 243 241 200
0.35735 -0.85636 0.9926 243 241 200
0.35735 -0.85636 1.08101 243 241 200
0.35735 -0.82897 0.9926 228 226 188
0.35735 -0.82897 0.92969 228 226 188
0.875 -0.82897 0.92969 228 226 188
0.875 -0.82897 0.9926 228 226 188
0.35735 -0.85636 0.92969 228 226 188
0.35735 -0.85636 0.9926 228 226 188
0.875 -0.85636 0.9926 228 226 188
0.875 -0.85636 0.92969 228 226 188
0.35735 -0.82897 0.92969 243 241 200
-0.35735 -0.88431 1.15304 21 96 128
-0.8907 -0.88431 1.33016 21 96 128
-0.89135 -0.88431 1.41692 21 96 128
-0.35735 -0.88431 1.25456 21 96 128
-0.35735 -0.8 1.15304 21 96 128
-0.8907 -0.8 1.33016 21 96 128
-0.89135 -0.8 1.41692 21 96 128
-0.35735 -0.88431 1.25456 23 104 139
-0.89135 -0.88431 1.41692 23 104 139
-0.89135 -0.8 1.41692 23 104 139
-0.35735 -0.8 1.25456 23 104 139
-0.35735 -0.8 1.25456 21 96 128
-0.35735 -0.85636 0.85701 243 241 200
-0.875 -0.85636 0.85681 243 241 200
-0.875 -0.85636 0.92969 243 241 200
-0.35735 -0.85636 0.92969 243 241 200
-0.35735 -0.82897 0.85701 243 241 200
-0.875 -0.82897 0.85681 243 241 200
-0.875 -0.82897 0.92969 243 241 200
-0.35735 -0.82897 1.16427 243 241 200
-0.875 -0.82897 1.33103 243 241 200
-0.875 -0.82897 1.14252 243 241 200
-0.35735 -0.82897 1.14275 243 241 200
-0.875 -0.85636 1.14252 243 241 200
-0.875 -0.85636 1.33103 243 241 200
-0.35735 -0.85636 1.14275 243 241 200
-0.35735 -0.85636 1.16427 243 241 200
-0.35735 -0.82897 1.14275 228 226 188
-0.875 -0.82897 1.14252 228 226 188
-0.875 -0.82897 1.08078 228 226 188
-0.35735 -0.82897 1.08101 228 226 188
-0.875 -0.85636 1.08078 228 226 188
-0.875 -0.85636 1.14252 228 226 188
-0.35735 -0.85636 1.08101 228 226 188
-0.35735 -0.85636 1.14275 228 226 188
-0.35735 -0.82897 1.08101 243 241 200
-0.875 -0.82897 1.08078 243 241 200
-0.875 -0.82897 0.9926 243 241 200
-0.35735 -0.82897 0.9926 243 241 200
-0.875 -0.85636 0.9926 243 241 200
-0.875 -0.85636 1.08078 243 241 200
-0.35735 -0.85636 0.9926 243 241 200
-0.35735 -0.85636 1.08101 243 241 200
-0.35735 -0.82897 0.9926 228 226 188
-0.875 -0.82897 0.9926 228 226 188
-0.875 -0.82897 0.92969 228 226 188
-0.35735 -0.82897 0.92969 228 226 188
-0.35735 -0.85636 0.92969 228 226 188
-0.875 -0.85636 0.92969 228 226 188
-0.875 -0.85636 0.9926 228 226 188
-0.35735 -0.85636 0.9926 228 226 188
-0.35735 -0.82897 0.92969 243 241 200
-0.70501 -0.56544 1.61925 224 218 229
-0.6433 -0.56544 1.67965 224 218 229
-0.6433 -0.56544 0.26963 224 218 229
-0.70501 -0.56544 0.33004 224 218 229
-0.70501 -0.46448 1.61925 224 218 229
-0.70501 -0.46448 0.33004 224 218 229
-0.6433 -0.46448 0.26963 224 218 229
0.6433 -0.56544 0.26963 224 218 229
0.6433 -0.56544 1.67965 224 218 229
0.70501 -0.56544 0.33004 224 218 229
0.70501 -0.56544 1.61925 224 218 229
0.6433 -0.46448 0.26963 224 218 229
0.70501 -0.46448 0.33004 224 218 229
0.70501 -0.46448 1.61925 224 218 229
0.70501 -0.46448 1.61925 135 206 228
0.6433 -0.46448 1.67965 135 206 228
0.6433 -0.46448 0.26963 135 206 228
0.70501 -0.46448 0.33004 135 206 228
-0.6433 -0.46448 0.26963 135 206 228
-0.6433 -0.46448 1.67965 135 206 228
-0.70501 -0.46448 0.33004 135 206 228
-0.70501 -0.46448 1.61925 135 206 228
-0.70501 -0.46448 1.61925 232 226 237
-0.6433 -0.46448 1.67965 232 226 237
-0.6433 -0.56544 1.67965 232 226 237
-0.70501 -0.56544 1.61925 232 226 237
0.6433 -0.56544 1.67965 232 226 237
0.6433 -0.46448 1.67965 232 226 237
0.70501 -0.46448 1.61925 232 226 237
0.70501 -0.56544 1.61925 232 226 237
-0.01911 -0.30561 1.11303 21 96 128
-0.01911 -0.30561 1.20693 21 96 128
0.01911 -0.30561 1.20693 21 96 128
0.01911 -0.30561 1.11303 21 96 128
0.01911 -0.15888 1.20693 21 96 128
0.01911 -0.15888 1.11303 21 96 128
-0.01911 -0.15888 1.11303 21 96 128
-0.01911 -0.15888 1.20693 21 96 128
-0.01911 -0.30561 1.20693 23 104 139
-0.01911 -0.15888 1.20693 23 104 139
0.01911 -0.15888 1.20693 23 104 139
0.01911 -0.30561 1.20693 23 104 139
-0.03755 -0.57567 0.32066 213 207 218
-0.03755 -0.57567 0.88842 213 207 218
0.03755 -0.57567 0.88842 213 207 218
0.03755 -0.57567 0.32066 213 207 218
-0.03755 -0.56039 0.32066 213 207 218
0.03755 -0.56039 0.32066 213 207 218
0.03755 -0.56039 0.88842 213 207 218
-0.03755 -0.56039 0.88842 213 207 218
0.58866 -0.56039 0.33733 213 207 218
0.58866 -0.57567 0.33733 213 207 218
0.64176 -0.57567 0.39043 213 207 218
0.64176 -0.56039 0.39043 213 207 218
0.09092 -0.56039 0.94134 213 207 218
0.09092 -0.57567 0.94134 213 207 218
0.64458 -0.56039 0.94134 213 207 218
0.64458 -0.57567 0.94134 213 207 218
-0.58866 -0.57567 0.33733 213 207 218
-0.58866 -0.56039 0.33733 213 207 218
-0.64176 -0.56039 0.39043 213 207 218
-0.64176 -0.57567 0.39043 213 207 218
-0.09084 -0.57567 0.94134 213 207 218
-0.09084 -0.56039 0.94134 213 207 218
-0.64458 -0.57567 0.94134 213 207 218
-0.64458 -0.56039 0.94134 213 207 218
-0.64458 -0.56039 1.01684 213 207 218
-0.64458 -0.57567 1.01684 213 207 218
-0.09084 -0.56039 1.01684 213 207 218
-0.09084 -0.57567 1.01684 213 207 218
-0.64176 -0.56039 1.56775 213 207 218
-0.64176 -0.57567 1.56775 213 207 218
-0.58866 -0.57567 1.62084 213 207 218
-0.58866 -0.56039 1.62084 213 207 218
-0.03755 -0.56039 1.06976 213 207 218
-0.03755 -0.57567 1.06976 213 207 218
-0.03755 -0.56039 1.63752 213 207 218
-0.03755 -0.57567 1.63752 213 207 218
0.03755 -0.57567 1.06976 213 207 218
0.03755 -0.57567 1.63752 213 207 218
0.03755 -0.56039 1.63752 213 207 218
0.03755 -0.56039 1.06976 213 207 218
0.58866 -0.56039 1.62084 213 207 218
0.58866 -0.57567 1.62084 213 207 218
0.64176 -0.57567 1.56775 213 207 218
0.64176 -0.56039 1.56775 213 207 218
0.09092 -0.56039 1.01684 213 207 218
0.09092 -0.57567 1.01684 213 207 218
0.64458 -0.56039 1.01684 213 207 218
0.64458 -0.57567 1.01684 213 207 218
0.08726 -0.47446 -1.17021E-17 135 206 228
0.08726 -0.47446 0.11424 135 206 228
0.25912 -0.47446 0.11424 135 206 228
0.25912 -0.47446 -1.25765E-17 135 206 228
0.05659 -0.40564 0 135 206 228
0.28978 -0.40564 0 135 206 228
0.28978 -0.40564 0.11424 135 206 228
0.28978 -0.1736 0 135 206 228
0.28978 -0.1736 0.45661 135 206 228
0.28978 -0.40564 0.45661 135 206 228
0.05659 -0.40564 0.11424 135 206 228
0.05659 -0.1736 0 135 206 228
0.05659 -0.40564 0.45661 135 206 228
0.05659 -0.1736 0.45661 135 206 228
0.07779 -0.14911 0.45661 135 206 228
0.07779 -0.14911 7.83945E-18 135 206 228
0.26859 -0.14911 4.01453E-17 135 206 228
0.26859 -0.14911 0.45661 135 206 228
0.08726 0.15562 -1.56663E-17 135 206 228
0.08726 0.15562 0.11424 135 206 228
0.25912 0.15562 0.11424 135 206 228
0.25912 0.15562 -1.56663E-17 135 206 228
0.05659 0.22444 0 135 206 228
0.28978 0.22444 0 135 206 228
0.28978 0.22444 0.11424 135 206 228
0.28978 0.45648 0 135 206 228
0.28978 0.45648 0.45661 135 206 228
0.28978 0.22444 0.45661 135 206 228
0.05659 0.22444 0.11424 135 206 228
0.05659 0.45648 0 135 206 228
0.05659 0.22444 0.45661 135 206 228
0.05659 0.45648 0.45661 135 206 228
0.21315 0.48096 0.06259 135 206 228
0.26859 0.48096 4.01453E-17 135 206 228
0.26859 0.48096 0.45661 135 206 228
0.21315 0.48096 0.15901 135 206 228
0.07779 0.48096 7.83945E-18 135 206 228
0.07779 0.48096 0.45661 135 206 228
0.13215 0.48096 0.06259 135 206 228
0.13215 0.48096 0.15901 135 206 228
0.28978 -0.40564 0.11424 139 212 235
0.25912 -0.47446 0.11424 139 212 235
0.08726 -0.47446 0.11424 139 212 235
0.05659 -0.40564 0.11424 139 212 235
0.28978 0.22444 0.11424 139 212 235
0.25912 0.15562 0.11424 139 212 235
0.08726 0.15562 0.11424 139 212 235
0.05659 0.22444 0.11424 139 212 235
0.30531 0.51052 0.44339 135 206 228
0.34105 0.51049 0.51377 135 206 228
0.2863 0.5755 0.51377 135 206 228
0.30531 -0.5 0.44339 135 206 228
0.34105 -0.5 0.51377 135 206 228
0.34105 0.51049 1.00209 135 206 228
0.2863 0.5755 1.0021 135 206 228
0.28628 0.46313 1.06407 135 206 228
0.24922 0.51052 1.06407 135 206 228
0.34105 -0.5 1.00153 135 206 228
-0.24922 0.51052 1.06407 135 206 228
-0.2863 0.5755 1.0021 135 206 228
-0.28628 0.46313 1.06407 135 206 228
-0.34105 0.51049 1.00209 135 206 228
-0.2863 0.5755 0.51377 135 206 228
-0.34105 0.51049 0.51377 135 206 228
-0.30531 0.51052 0.44339 135 206 228
-0.30531 -0.5 0.44339 135 206 228
-0.34105 -0.5 0.51377 135 206 228
-0.34105 -0.5 1.00153 135 206 228
0.28633 -0.5 1.06407 135 206 228
-0.28628 0.46313 1.06407 139 212 235
-0.24922 0.51052 1.06407 139 212 235
0.24922 0.51052 1.06407 139 212 235
0.28628 0.46313 1.06407 139 212 235
-0.28633 -0.5 1.06407 139 212 235
0.28633 -0.5 1.06407 139 212 235
-0.08726 -0.47446 -1.17021E-17 135 206 228
-0.25912 -0.47446 -1.25765E-17 135 206 228
-0.25912 -0.47446 0.11424 135 206 228
-0.08726 -0.47446 0.11424 135 206 228
-0.05659 -0.40564 0 135 206 228
-0.28978 -0.40564 0 135 206 228
-0.28978 -0.40564 0.11424 135 206 228
-0.28978 -0.1736 0 135 206 228
-0.28978 -0.1736 0.45661 135 206 228
-0.28978 -0.40564 0.45661 135 206 228
-0.05659 -0.40564 0.11424 135 206 228
-0.05659 -0.1736 0 135 206 228
-0.05659 -0.40564 0.45661 135 206 228
-0.05659 -0.1736 0.45661 135 206 228
-0.07779 -0.14911 0.45661 135 206 228
-0.26859 -0.14911 0.45661 135 206 228
-0.26859 -0.14911 -4.01453E-17 135 206 228
-0.07779 -0.14911 -7.83945E-18 135 206 228
-0.08726 0.15562 -1.56663E-17 135 206 228
-0.25912 0.15562 -1.56663E-17 135 206 228
-0.25912 0.15562 0.11424 135 206 228
-0.08726 0.15562 0.11424 135 206 228
-0.05659 0.22444 0 135 206 228
-0.28978 0.22444 0 135 206 228
-0.28978 0.22444 0.11424 135 206 228
-0.28978 0.45648 0 135 206 228
-0.28978 0.45648 0.45661 135 206 228
-0.28978 0.22444 0.45661 135 206 228
-0.05659 0.22444 0.11424 135 206 228
-0.05659 0.45648 0 135 206 228
-0.05659 0.22444 0.45661 135 206 228
-0.05659 0.45648 0.45661 135 206 228
-0.13215 0.48096 0.06259 135 206 228
-0.07779 0.48096 -7.83945E-18 135 206 228
-0.07779 0.48096 0.45661 135 206 228
-0.13215 0.48096 0.15901 135 206 228
-0.26859 0.48096 -4.01453E-17 135 206 228
-0.26859 0.48096 0.45661 135 206 228
-0.21315 0.48096 0.15901 135 206 228
-0.21315 0.48096 0.06259 135 206 228
-0.28978 -0.40564 0.11424 139 212 235
-0.05659 -0.40564 0.11424 139 212 235
-0.08726 -0.47446 0.11424 139 212 235
-0.25912 -0.47446 0.11424 139 212 235
-0.28978 0.22444 0.11424 139 212 235
-0.05659 0.22444 0.11424 139 212 235
-0.08726 0.15562 0.11424 139 212 235
-0.25912 0.15562 0.11424 139 212 235
-0.28633 -0.5 1.06407 135 206 228
-0.02289 0.71333 1.47374 21 96 128
-0.02289 0.64382 1.47374 21 96 128
0.02289 0.64382 1.47374 21 96 128
0.02289 0.71333 1.47374 21 96 128
0.02289 0.64382 1.61613 21 96 128
0.02289 0.71333 1.61613 21 96 128
-0.02289 0.64382 1.61613 21 96 128
-0.02289 0.71333 1.61613 21 96 128
-0.02289 0.64382 1.47374 23 104 139
-0.02289 0.64382 1.61613 23 104 139
0.02289 0.64382 1.61613 23 104 139
0.02289 0.64382 1.47374 23 104 139
-0.04526 0.41378 1.04924 23 104 139
-0.04526 0.70589 1.04924 23 104 139
0.04526 0.70589 1.04924 23 104 139
0.04526 0.41378 1.04924 23 104 139
0.04526 0.41378 0.98738 21 96 128
0.04526 0.41378 1.04924 21 96 128
0.04526 0.70589 1.04924 21 96 128
0.04526 0.78359 0.98738 21 96 128
0.04526 0.78359 1.7011 21 96 128
0.04526 0.70589 1.7011 21 96 128
-0.04526 0.70589 1.04924 21 96 128
-0.04526 0.70589 1.7011 21 96 128
-0.04526 0.78359 0.98738 21 96 128
-0.04526 0.41378 0.98738 21 96 128
-0.04526 0.41378 1.04924 21 96 128
-0.04526 0.78359 1.7011 21 96 128
-0.04526 0.70589 1.7011 23 104 139
-0.04526 0.78359 1.7011 23 104 139
0.04526 0.78359 1.7011 23 104 139
0.04526 0.70589 1.7011 23 104 139
-0.02289 0.71333 1.13083 21 96 128
-0.02289 0.64382 1.13083 21 96 128
0.02289 0.64382 1.13083 21 96 128
0.02289 0.71333 1.13083 21 96 128
0.02289 0.64382 1.27322 21 96 128
0.02289 0.71333 1.27322 21 96 128
-0.02289 0.64382 1.27322 21 96 128
-0.02289 0.71333 1.27322 21 96 128
-0.02289 0.64382 1.13083 23 104 139
-0.02289 0.64382 1.27322 23 104 139
0.02289 0.64382 1.27322 23 104 139
0.02289 0.64382 1.13083 23 104 139
0.17556 0.41378 0.99345 135 206 228
0.17556 0.77596 0.99399 135 206 228
0.24011 0.77596 0.93028 135 206 228
0.24011 0.41378 0.93148 135 206 228
0.24011 0.96927 0.54201 135 206 228
0.24011 0.41378 0.54201 135 206 228
-0.24011 0.41378 0.54201 135 206 228
-0.24011 0.96927 0.54201 135 206 228
0.24011 0.83717 0.99409 135 206 228
0.24011 1.03135 0.59684 135 206 228
-0.24011 1.03135 0.59684 135 206 228
0.17779 1.03324 1.70201 135 206 228
0.17818 0.77571 1.70201 135 206 228
-0.17779 1.03324 1.70201 135 206 228
0.06237 1.03348 2 135 206 228
-0.06237 1.03348 2 135 206 228
-0.39537 1.03348 1.70194 135 206 228
-0.39537 0.77585 1.70194 135 206 228
-0.17818 0.77571 1.70201 135 206 228
-0.4492 1.03348 1.74835 135 206 228
-0.4492 1.03348 2.375 135 206 228
-0.06195 1.03348 2.375 135 206 228
-0.06195 0.77572 2.375 135 206 228
-0.06195 0.77572 2 135 206 228
0.06195 0.77572 2 135 206 228
0.39537 0.77585 1.70194 135 206 228
0.4492 0.77585 1.74835 135 206 228
0.4492 1.03348 1.74835 135 206 228
0.39537 1.03348 1.70194 135 206 228
0.4492 1.03348 2.375 135 206 228
0.4492 0.77585 2.375 135 206 228
0.06195 0.77572 2.375 135 206 228
0.41693 0.79731 2.40474 135 206 228
0.09421 0.7972 2.40474 135 206 228
0.41693 1.012 2.40474 135 206 228
-0.41693 1.012 2.40474 135 206 228
-0.17556 0.77596 0.99399 135 206 228
-0.09421 1.012 2.40474 135 206 228
-0.09421 0.7972 2.40474 135 206 228
0.06195 1.03348 2.375 135 206 228
0.09421 1.012 2.40474 135 206 228
0.09421 1.012 2.40474 139 212 235
0.41693 1.012 2.40474 139 212 235
0.41693 0.79731 2.40474 139 212 235
0.09421 0.7972 2.40474 139 212 235
0.06195 0.77572 2 139 212 235
-0.06195 0.77572 2 139 212 235
-0.06237 1.03348 2 139 212 235
0.06237 1.03348 2 139 212 235
-0.17556 0.41378 0.99345 135 206 228
-0.24011 0.41378 0.93148 135 206 228
-0.24011 0.77596 0.93028 135 206 228
-0.24011 0.83717 0.99409 135 206 228
0.17556 0.77596 0.99399 139 212 235
0.17556 0.41378 0.99345 139 212 235
-0.17556 0.41378 0.99345 139 212 235
-0.17556 0.77596 0.99399 139 212 235
-0.4492 0.77585 1.74835 135 206 228
-0.4492 0.77585 2.375 135 206 228
-0.41693 0.79731 2.40474 135 206 228
-0.09421 1.012 2.40474 139 212 235
-0.09421 0.7972 2.40474 139 212 235
-0.41693 0.79731 2.40474 139 212 235
-0.41693 1.012 2.40474 139 212 235
0.02367 -1.1382 0.8988 18 20 24
0.02367 -1.1382 0.92993 18 20 24
0.02367 -1.1304 0.92993 18 20 24
0.02367 -1.1304 0.8988 18 20 24
-0.02367 -1.1382 0.8988 18 20 24
-0.02367 -1.1382 0.92993 18 20 24
-0.02367 -1.1304 0.92993 18 20 24
-0.02367 -1.1304 0.8988 18 20 24
0.36469 -1.07067 0.69167 135 206 228
0.36469 -0.58785 0.69167 135 206 228
0.31636 -0.58785 0.66306 135 206 228
0.3164 -1.03756 0.66306 135 206 228
0.27997 -0.53501 0.70824 135 206 228
0.3283 -0.53501 0.7331 135 206 228
0.36469 -0.84351 0.95898 135 206 228
-0.27997 -0.53501 0.70824 135 206 228
-0.31636 -0.58785 0.66306 135 206 228
-0.36469 -0.58785 0.69167 135 206 228
-0.36469 -1.07067 0.69167 135 206 228
-0.3164 -1.03756 0.66306 135 206 228
-0.3283 -0.53501 0.7331 135 206 228
-0.36469 -0.58785 0.95898 135 206 228
-0.36469 -0.84351 0.95898 135 206 228
-0.3283 -0.53501 0.95898 135 206 228
0.36469 -0.58785 0.95898 135 206 228
0.3283 -0.53501 0.95898 135 206 228
-0.36469 -0.84351 1.13074 135 206 228
-0.36469 -1.06994 1.27541 135 206 228
-0.32898 -1.13226 0.69167 135 206 228
-0.32945 -1.13211 1.27541 135 206 228
-0.28785 -1.09405 1.31144 135 206 228
-0.2877 -1.09436 0.66306 135 206 228
-0.27553 -1.1322 0.92969 135 206 228
-0.27553 -1.13217 1.08952 135 206 228
-0.2313 -1.13211 1.27541 135 206 228
-0.10381 -1.13216 1.06155 135 206 228
0.32898 -1.13226 0.69167 135 206 228
0.2877 -1.09436 0.66306 135 206 228
0.36469 -1.06994 1.27541 135 206 228
0.32945 -1.13211 1.27541 135 206 228
0.28785 -1.09405 1.31144 135 206 228
0.27553 -1.1322 0.92969 135 206 228
0.27553 -1.13217 1.08952 135 206 228
0.2313 -1.13211 1.27541 135 206 228
0.36469 -0.84351 1.13074 135 206 228
0.10381 -1.13216 1.06155 135 206 228
0.03543 -1.13215 1.13208 135 206 228
0.11041 -1.13231 0.86048 135 206 228
0.11041 -1.13228 0.7542 135 206 228
0.10381 -1.1322 0.92969 135 206 228
0.10382 -1.11506 1.06154 135 206 228
0.27553 -1.11506 1.08952 135 206 228
0.10382 -1.1151 0.92969 135 206 228
-0.10381 -1.1322 0.92969 135 206 228
-0.10382 -1.1151 0.92969 135 206 228
-0.10382 -1.11506 1.06154 135 206 228
-0.27553 -1.11506 1.08952 135 206 228
-0.03543 -1.1322 1.13208 135 206 228
0 -1.13231 0.88141 135 206 228
-0.11041 -1.13231 0.86048 135 206 228
-0.11041 -1.13228 0.7542 135 206 228
-0.02688 -1.13231 0.86048 135 206 228
0.02688 -1.13231 0.86048 135 206 228
0.36469 -0.84351 1.13074 21 96 128
0.36469 -1.06994 1.27541 21 96 128
0.36469 -0.58785 1.27541 21 96 128
0.31647 -0.62885 1.31144 21 96 128
0.31647 -1.03701 1.31144 21 96 128
0.28785 -1.09405 1.31144 21 96 128
0.2313 -1.13211 1.27541 21 96 128
-0.2313 -1.13211 1.27541 21 96 128
-0.03543 -1.1322 1.13208 21 96 128
0.03543 -1.13215 1.13208 21 96 128
-0.28785 -1.09405 1.31144 21 96 128
-0.36469 -1.06994 1.27541 21 96 128
-0.31647 -1.03701 1.31144 21 96 128
-0.31647 -0.62885 1.31144 21 96 128
-0.36469 -0.58785 1.27541 21 96 128
-0.36469 -0.84351 1.13074 21 96 128
-0.36469 -0.84351 0.95898 21 96 128
-0.36469 -0.58785 0.95898 21 96 128
-0.3283 -0.53501 1.27523 21 96 128
-0.28483 -0.58785 1.31144 21 96 128
0.3283 -0.53501 1.27523 21 96 128
0.28483 -0.58785 1.31144 21 96 128
0.3283 -0.53501 0.95898 21 96 128
0.36469 -0.58785 0.95898 21 96 128
-0.3283 -0.53501 0.95898 21 96 128
0.36469 -0.84351 0.95898 21 96 128
0.11041 -1.05777 0.7542 77 37 48
0.11041 -1.05782 0.86048 77 37 48
0.11041 -1.13231 0.86048 77 37 48
0.11041 -1.13228 0.7542 77 37 48
-0.11041 -1.13228 0.7542 77 37 48
-0.11041 -1.05777 0.7542 77 37 48
-0.11041 -1.13231 0.86048 77 37 48
-0.11041 -1.05782 0.86048 77 37 48
0.02688 -1.05782 0.86048 77 37 48
0.02688 -1.13231 0.86048 77 37 48
-0.02688 -1.05782 0.86048 77 37 48
-0.02688 -1.13231 0.86048 77 37 48
0 -1.05782 0.88141 77 37 48
0 -1.13231 0.88141 77 37 48
0.08151 -1.10877 0.80187 164 65 85
0.08151 -1.05164 0.80187 164 65 85
0.08151 -1.05164 0.74628 164 65 85
0.08151 -1.10877 0.74628 164 65 85
-0.08151 -1.10877 0.74628 164 65 85
-0.08151 -1.10877 0.80187 164 65 85
-0.08151 -1.05164 0.74628 164 65 85
-0.08151 -1.05164 0.80187 164 65 85
0.14986 -1.11508 0.97798 31 0 0
0.14986 -1.1151 0.92969 31 0 0
0.10382 -1.1151 0.92969 31 0 0
0.10382 -1.11506 1.06154 31 0 0
0.27553 -1.11506 1.08952 31 0 0
0.25842 -1.11508 0.97798 31 0 0
0.27553 -1.1151 0.92969 31 0 0
0.25842 -1.1151 0.92969 31 0 0
0.25842 -1.1151 0.92969 135 206 228
0.27553 -1.1151 0.92969 135 206 228
0.14986 -1.1151 0.92969 135 206 228
0.25842 -1.1151 0.92969 62 47 87
0.14986 -1.1151 0.92969 62 47 87
0.14986 -1.11508 0.97798 62 47 87
0.25842 -1.11508 0.97798 62 47 87
0.31647 -1.03701 1.31144 23 104 139
0.28785 -1.09405 1.31144 23 104 139
-0.28785 -1.09405 1.31144 23 104 139
-0.31647 -1.03701 1.31144 23 104 139
0.31647 -0.62885 1.31144 23 104 139
-0.31647 -0.62885 1.31144 23 104 139
0.28483 -0.58785 1.31144 23 104 139
-0.28483 -0.58785 1.31144 23 104 139
-0.14986 -1.11508 0.97798 31 0 0
-0.10382 -1.11506 1.06154 31 0 0
-0.10382 -1.1151 0.92969 31 0 0
-0.14986 -1.1151 0.92969 31 0 0
-0.27553 -1.11506 1.08952 31 0 0
-0.25842 -1.11508 0.97798 31 0 0
-0.27553 -1.1151 0.92969 31 0 0
-0.25842 -1.1151 0.92969 31 0 0
-0.25842 -1.1151 0.92969 135 206 228
-0.27553 -1.1151 0.92969 135 206 228
-0.14986 -1.1151 0.92969 135 206 228
-0.25842 -1.1151 0.92969 62 47 87
-0.25842 -1.11508 0.97798 62 47 87
-0.14986 -1.11508 0.97798 62 47 87
-0.14986 -1.1151 0.92969 62 47 87
0.13827 -1.12299 1.01088 255 255 255
0.13827 -1.12299 1.0835 255 255 255
0.19096 -1.12299 1.0835 255 255 255
0.19096 -1.12299 1.01088 255 255 255
0.13827 -1.11338 1.01088 255 255 255
0.19096 -1.11338 1.01088 255 255 255
0.19096 -1.11338 1.0835 255 255 255
0.13827 -1.11338 1.0835 255 255 255
-0.13827 -1.12299 1.01088 255 255 255
-0.19096 -1.12299 1.01088 255 255 255
-0.19096 -1.12299 1.0835 255 255 255
-0.13827 -1.12299 1.0835 255 255 255
-0.13827 -1.11338 1.01088 255 255 255
-0.19096 -1.11338 1.01088 255 255 255
-0.19096 -1.11338 1.0835 255 255 255
-0.13827 -1.11338 1.0835 255 255 255
0.13215 0.48096 0.06259 101 119 133
0.21315 0.48096 0.06259 101 119 133
0.21315 0.48096 0.15901 101 119 133
0.13215 0.48096 0.15901 101 119 133
-0.21315 0.48096 0.06259 101 119 133
-0.13215 0.48096 0.06259 101 119 133
-0.13215 0.48096 0.15901 101 119 133
-0.21315 0.48096 0.15901 101 119 133
3 0 2 1
3 0 3 2
3 1 2 4
3 1 4 5
3 6 8 7
3 7 8 9
3 7 9 10
3 11 8 6
3 11 6 12
3 10 9 13
3 13 9 14
3 13 14 15
3 16 18 17
3 16 19 18
3 19 20 18
3 19 21 20
3 22 16 17
3 22 17 23
3 24 26 25
3 24 27 26
3 23 21 22
3 23 20 21
3 28 30 29
3 28 31 30
3 31 32 30
3 31 33 32
3 34 28 29
3 34 29 35
3 36 38 37
3 36 39 38
3 35 33 34
3 35 32 33
3 40 42 41
3 40 43 42
3 43 44 42
3 43 45 44
3 46 40 41
3 46 41 47
3 42 44 48
3 47 41 49
3 50 52 51
3 50 53 52
3 53 50 54
3 53 54 55
3 56 58 57
3 56 59 58
3 48 58 59
3 48 44 58
3 44 57 58
3 44 47 57
3 47 56 57
3 47 44 45
3 47 45 46
3 47 49 56
3 60 62 61
3 60 63 62
3 64 62 63
3 64 63 65
3 61 66 60
3 61 67 66
3 68 70 69
3 68 71 70
3 72 70 71
3 72 71 73
3 73 74 72
3 73 75 74
3 76 78 77
3 76 79 78
3 80 78 79
3 80 79 81
3 77 82 76
3 77 83 82
3 84 86 85
3 84 87 86
3 88 87 84
3 88 89 87
3 87 90 86
3 87 89 90
3 91 93 92
3 91 94 93
3 95 89 88
3 95 90 89
3 96 98 97
3 96 99 98
3 100 99 96
3 100 101 99
3 99 102 98
3 99 101 102
3 103 105 104
3 103 106 105
3 107 105 106
3 107 106 108
3 109 108 110
3 109 107 108
3 111 113 112
3 111 114 113
3 115 113 114
3 115 114 116
3 117 116 118
3 117 115 116
3 119 121 120
3 119 122 121
3 123 121 122
3 123 122 124
3 125 124 126
3 125 123 124
3 127 129 128
3 127 130 129
3 131 133 132
3 131 134 133
3 134 130 133
3 134 129 130
3 135 101 100
3 135 102 101
3 136 138 137
3 136 139 138
3 140 136 137
3 140 137 141
3 137 142 141
3 137 138 142
3 143 145 144
3 143 146 145
3 147 141 142
3 147 140 141
3 148 150 149
3 148 151 150
3 152 148 149
3 152 149 153
3 149 154 153
3 149 150 154
3 155 157 156
3 155 158 157
3 159 156 157
3 159 160 156
3 161 160 159
3 161 162 160
3 163 165 164
3 163 166 165
3 167 164 165
3 167 168 164
3 169 168 167
3 169 170 168
3 171 173 172
3 171 174 173
3 175 172 173
3 175 176 172
3 177 176 175
3 177 178 176
3 179 181 180
3 179 182 181
3 183 185 184
3 183 186 185
3 184 185 180
3 184 180 181
3 187 153 154
3 187 152 153
3 188 190 189
3 188 191 190
3 192 191 188
3 192 193 191
3 191 194 190
3 191 193 194
3 189 190 195
3 189 195 196
3 196 195 197
3 196 197 198
3 190 194 199
3 190 199 195
3 195 199 200
3 195 200 197
3 198 197 200
3 198 200 201
3 202 204 203
3 202 205 204
3 203 204 206
3 203 206 207
3 207 206 208
3 207 208 209
3 210 212 211
3 210 213 212
3 211 212 214
3 211 214 215
3 215 217 216
3 215 214 217
3 218 220 219
3 218 221 220
3 221 222 220
3 221 223 222
3 224 218 219
3 224 219 225
3 226 228 227
3 226 229 228
3 225 223 224
3 225 222 223
3 230 232 231
3 230 233 232
3 234 233 230
3 234 230 231
3 234 235 233
3 233 236 232
3 233 235 236
3 234 231 237
3 232 236 238
3 232 238 239
3 240 239 238
3 240 232 239
3 240 238 241
3 242 240 241
3 242 243 240
3 240 243 232
3 243 242 244
3 243 244 245
3 237 231 246
3 237 246 247
3 248 247 246
3 248 246 249
3 250 248 249
3 250 251 248
3 251 250 252
3 251 252 253
3 254 253 252
3 254 252 255
3 256 254 255
3 256 255 257
3 257 252 250
3 257 255 252
3 257 258 256
3 257 259 258
3 258 259 260
3 258 260 261
3 262 261 260
3 262 260 263
3 259 263 260
3 259 257 263
3 264 262 263
3 264 263 265
3 265 263 266
3 265 266 267
3 264 265 267
3 264 267 268
3 267 269 268
3 267 266 269
3 266 270 269
3 266 271 270
3 272 270 271
3 272 271 266
3 272 273 270
3 274 273 272
3 274 272 275
3 272 266 275
3 275 276 274
3 275 277 276
3 244 276 277
3 244 277 245
3 275 245 277
3 275 243 245
3 249 231 250
3 249 246 231
3 278 280 279
3 278 281 280
3 282 281 278
3 282 283 281
3 283 280 281
3 283 284 280
3 283 285 284
3 282 285 283
3 284 285 286
3 284 286 287
3 288 284 287
3 288 278 279
3 288 282 278
3 289 282 288
3 282 289 285
3 288 287 290
3 289 288 290
3 289 290 291
3 292 294 293
3 292 295 294
3 286 294 295
3 286 285 294
3 285 293 294
3 285 289 293
3 289 292 293
3 289 291 292
3 296 298 297
3 296 299 298
3 300 299 296
3 300 301 299
3 301 298 299
3 301 302 298
3 301 303 302
3 300 303 301
3 302 303 304
3 302 304 305
3 306 302 305
3 306 296 297
3 306 300 296
3 307 300 306
3 300 307 303
3 306 305 308
3 307 306 308
3 307 308 309
3 310 312 311
3 310 313 312
3 304 311 312
3 304 303 311
3 303 314 311
3 314 310 311
3 303 307 314
3 307 315 314
3 315 312 313
3 307 309 315
3 314 316 310
3 315 316 314
3 315 313 317
3 315 317 316
3 318 320 319
3 318 321 320
3 322 324 323
3 322 325 324
3 326 328 327
3 329 326 327
3 329 327 330
3 331 327 328
3 330 327 331
3 331 328 332
3 333 331 332
3 333 332 334
3 330 331 335
3 336 334 332
3 336 332 337
3 337 332 328
3 338 336 337
3 338 337 339
3 339 337 340
3 326 340 328
3 337 328 340
3 339 340 341
3 342 341 340
3 343 341 342
3 329 343 342
3 343 344 341
3 344 339 341
3 344 345 339
3 326 342 340
3 329 342 326
3 335 333 346
3 335 331 333
3 347 349 348
3 347 350 349
3 350 347 351
3 350 351 352
3 353 355 354
3 353 356 355
3 357 353 354
3 357 354 358
3 358 354 355
3 358 355 359
3 358 359 360
3 357 358 360
3 359 361 360
3 359 362 361
3 363 362 359
3 363 353 357
3 363 356 353
3 364 363 357
3 357 360 364
3 363 365 362
3 364 365 363
3 364 366 365
3 367 369 368
3 367 370 369
3 366 370 367
3 366 364 370
3 364 369 370
3 364 360 369
3 360 368 369
3 360 361 368
3 371 373 372
3 371 374 373
3 375 371 372
3 375 372 376
3 376 372 373
3 376 373 377
3 376 377 378
3 375 376 378
3 377 379 378
3 377 380 379
3 381 380 377
3 381 371 375
3 381 374 371
3 382 381 375
3 375 378 382
3 381 383 380
3 382 383 381
3 382 384 383
3 385 387 386
3 385 388 387
3 384 386 387
3 384 382 386
3 382 389 386
3 389 385 386
3 382 378 389
3 378 390 389
3 378 379 390
3 387 391 390
3 387 388 391
3 390 392 389
3 390 391 392
3 389 392 385
3 393 395 394
3 393 396 395
3 397 399 398
3 397 400 399
3 345 338 339
3 345 401 338
3 402 404 403
3 402 405 404
3 405 406 404
3 405 407 406
3 408 406 407
3 408 407 409
3 410 412 411
3 410 413 412
3 409 403 408
3 409 402 403
3 414 416 415
3 414 417 416
3 418 420 419
3 418 421 420
3 420 421 422
3 420 422 423
3 424 420 423
3 424 423 425
3 426 424 425
3 424 426 427
3 424 427 428
3 426 425 429
3 430 432 431
3 430 433 432
3 434 436 435
3 434 437 436
3 437 438 436
3 437 439 438
3 440 438 439
3 440 439 441
3 442 444 443
3 442 445 444
3 441 435 440
3 441 434 435
3 446 448 447
3 446 449 448
3 449 450 448
3 449 451 450
3 450 451 452
3 450 452 453
3 447 448 454
3 448 455 454
3 448 450 455
3 455 450 453
3 455 453 456
3 454 455 457
3 457 455 456
3 454 457 458
3 458 447 454
3 457 456 459
3 460 457 459
3 460 459 461
3 459 462 461
3 463 462 459
3 463 459 464
3 462 465 461
3 461 465 466
3 461 466 467
3 461 467 468
3 461 468 469
3 458 469 464
3 458 470 469
3 470 458 471
3 470 471 472
3 471 473 472
3 471 474 473
3 472 473 475
3 472 475 476
3 470 472 476
3 470 476 477
3 477 476 478
3 477 478 479
3 476 480 478
3 476 475 480
3 467 466 481
3 458 464 482
3 458 482 447
3 467 481 483
3 468 467 483
3 468 483 484
3 471 457 474
3 471 458 457
3 457 460 474
3 474 460 473
3 473 460 485
3 460 477 485
3 460 470 477
3 473 485 475
3 485 477 479
3 485 479 486
3 475 485 486
3 475 486 480
3 487 489 488
3 487 490 489
3 491 493 492
3 491 494 493
3 495 497 496
3 495 482 497
3 496 497 453
3 496 453 452
3 482 498 497
3 497 456 453
3 497 498 456
3 498 459 456
3 498 464 459
3 464 498 482
3 499 501 500
3 499 502 501
3 469 463 464
3 469 503 463
3 469 504 503
3 469 468 504
3 463 503 465
3 465 503 504
3 463 465 462
3 465 504 466
3 466 504 505
3 466 505 481
3 504 484 505
3 504 468 484
3 506 508 507
3 506 509 508
3 510 512 511
3 510 513 512
3 511 514 510
3 511 515 514
3 512 515 511
3 514 515 516
3 512 516 515
3 514 516 517
3 510 517 513
3 510 514 517
3 518 520 519
3 518 521 520
3 519 520 522
3 519 522 523
3 519 524 518
3 520 525 522
3 520 526 525
3 521 526 520
3 527 525 526
3 528 527 526
3 528 526 529
3 521 529 526
3 527 530 525
3 531 530 527
3 527 532 531
3 527 528 532
3 531 533 530
3 519 534 524
3 535 519 523
3 535 534 519
3 532 528 536
3 528 537 536
3 538 537 528
3 538 539 537
3 539 540 537
3 538 528 529
3 538 529 541
3 542 539 538
3 542 543 539
3 540 539 544
3 544 539 543
3 544 543 545
3 546 538 541
3 546 541 547
3 546 547 521
3 546 521 518
3 546 518 548
3 546 548 549
3 549 548 550
3 551 546 549
3 551 549 552
3 550 553 549
3 553 552 549
3 518 554 548
3 553 555 552
3 556 555 553
3 557 546 551
3 557 558 546
3 551 559 557
3 552 555 560
3 552 560 561
3 555 562 560
3 555 559 562
3 555 563 559
3 555 545 563
3 545 564 563
3 545 565 564
3 543 565 545
3 543 566 565
3 567 555 556
3 567 545 555
3 567 544 545
3 568 559 563
3 557 559 568
3 568 563 569
3 542 569 563
3 569 542 538
3 569 538 570
3 558 570 538
3 558 538 546
3 568 569 571
3 557 568 572
3 573 575 574
3 574 575 576
3 574 576 577
3 578 574 577
3 578 580 579
3 579 580 581
3 579 581 582
3 578 583 580
3 583 585 584
3 584 585 586
3 584 586 587
3 588 584 587
3 587 589 588
3 587 590 589
3 591 590 587
3 591 587 586
3 591 586 592
3 593 591 592
3 593 592 594
3 593 594 576
3 593 576 575
3 595 593 575
3 595 575 596
3 591 597 590
3 575 598 596
3 575 573 598
3 599 601 600
3 599 602 601
3 599 603 602
3 599 604 603
3 604 605 603
3 604 606 605
3 600 607 599
3 601 607 600
3 601 608 607
3 609 605 606
3 604 609 606
3 599 609 604
3 599 607 609
3 609 610 605
3 611 610 609
3 609 607 611
3 611 612 610
3 607 612 611
3 607 608 612
3 613 615 614
3 613 616 615
3 613 617 616
3 613 618 617
3 614 618 613
3 618 619 617
3 618 620 619
3 614 620 618
3 621 623 622
3 621 624 623
3 625 624 621
3 625 621 626
3 627 625 626
3 627 626 628
3 629 551 630
3 551 561 630
3 551 552 561
3 559 551 629
3 559 629 631
3 559 631 562
3 632 634 633
3 632 635 634
3 636 638 637
3 636 639 638
3 640 639 636
3 640 641 639
3 642 641 640
3 642 643 641
3 547 529 521
3 547 541 529
3 644 646 645
3 644 647 646
3 648 644 645
3 648 649 644
3 650 649 648
3 650 651 649
3 652 653 542
3 542 653 566
3 542 566 543
3 563 652 542
3 563 654 652
3 563 564 654
3 655 657 656
3 655 658 657
3 659 661 660
3 659 662 661
3 663 662 659
3 663 659 660
3 663 664 662
3 662 665 661
3 662 664 665
3 663 660 666
3 667 669 668
3 667 670 669
3 671 667 668
3 671 670 667
3 671 668 672
3 668 673 672
3 668 669 673
3 671 674 670
3 518 524 554
3 675 677 676
3 675 678 677
3 679 681 680
3 679 682 681
