mtllib Magmar.mtl
v 0.179361 0.815232 -0.11642
vt 0.80156 0.712663
vn 0.6738976 0.1743239 -0.7179646
v 0.223399 0.676675 -0.115624
vt 0.772669 0.413201
vn 0.8444617 -0.05272109 -0.5330149
v 0.0912189 0.730888 -0.213807
vt 0.995613 0.511179
vn 0.2867201 0.149167 -0.9463302
v 0.258023 0.749096 0.0295783
vt 0.472883 0.598279
vn 0.993512 0.0494649 -0.102407
v 0.0723464 0.848463 -0.12989
vt 0.837204 0.781883
vn -0.0876656 0.59969 -0.795416
v 0.233381 0.865524 0.045924
vt 0.460368 0.853251
vn 0.7771589 0.6252739 0.07110969
v 0.0892525 0.958231 -0.112327
vt 0.82075 1.12876
vn -0.585911 0.420985 -0.692445
v 0.24459 0.920853 -0.0680716
vt 0.717722 1.02429
vn 0.9287838 0.06544589 -0.3647979
v 0.175232 1.07108 -0.124131
vt 0.932986 1.47205
vn 0.2152479 -0.02595049 -0.9762146
v 0 0.86002 -0.131152
vt 0.8422 0.806626
vn 0 0.797307 -0.603574
v -0.0912189 0.730888 -0.213807
vn -0.2867201 0.149167 -0.9463302
v 0.23826 0.785452 0.220629
vt 0.066881 0.714358
vn 0.8569527 0.07537947 0.5098528
v 0.037231 0.894596 0.0343779
vt 0.491035 0.913852
vn -0.292582 0.9524278 0.08530609
v 0.161676 0.952268 0.0369219
vt 0.496843 1.15246
vn 0.0318767 0.7103019 0.7031749
v 0.165532 0.998423 -0.0687983
vt 0.734504 1.26695
vn -0.0181622 0.786839 0.616891
vn -0.1500071 0.6116174 0.7768025
v -0.0723464 0.848463 -0.12989
vn 0.0876656 0.59969 -0.795416
v -0.179361 0.815232 -0.11642
vn -0.6738976 0.1743239 -0.7179646
v -0.223399 0.676675 -0.115624
vn -0.8444617 -0.05272109 -0.5330149
v 0.148621 0.89175 0.249651
vt 0.0249661 0.949911
vn 0.2244919 0.8270276 0.5153918
v -0.037231 0.894596 0.0343779
vn 0.2925819 0.9524277 0.08530638
v 0 0.871274 0.0851692
vt 0.37663 0.873379
vn 0 0.9769201 0.213605
v -0.258023 0.749096 0.0295783
vn -0.993512 0.0494649 -0.102407
v -0.0892525 0.958231 -0.112327
vn 0.585911 0.420985 -0.692445
v 0 0.826283 0.213671
vt 0.089932 0.801287
vn 0 0.7156836 0.6984246
v -0.148621 0.89175 0.249651
vn -0.2244919 0.8270276 0.5153918
v -0.233381 0.865524 0.045924
vn -0.7771589 0.6252739 0.07110989
v -0.23826 0.785452 0.220629
vn -0.8569527 0.07537947 0.5098528
v -0.175232 1.07108 -0.124131
vn -0.2152479 -0.02595049 -0.9762146
v -0.161676 0.952268 0.0369219
vn -0.0318767 0.7103019 0.7031749
v -0.165532 0.998423 -0.0687983
vn 0.0181621 0.786839 0.616891
vn 0.150007 0.6116169 0.7768028
v -0.24459 0.920853 -0.0680716
vn -0.9287841 0.06544591 -0.364797
v -0.0517763 0.100831 -0.318325
vt 0.714104 0.801125
vn -0.8054399 -0.484202 -0.341782
v -0.103875 0.115676 -0.194161
vt 0.581422 0.886285
vn -0.743477 -0.513307 -0.42867
v -0.108148 0.209391 -0.191647
vn -0.5797589 0.2923879 -0.7605188
v 0 0.0675405 -0.177101
vn 0 -0.9996807 0.02526939
v -0.0403901 0.169824 -0.301435
vt 0.666636 0.995029
vn -0.3829729 0.8512728 -0.3587009
v 0 0.075093 -0.323962
vt 0.729946 0.728788
vn 0 -0.9467618 -0.3219349
v 0 0.170949 -0.473854
vt 1.15121 0.99819
vn 0 0.536738 -0.843749
v 0 0.0809237 0
vn 0 -0.9987491 0.05000221
v 0.108148 0.209391 -0.191647
vn 0.5860851 0.2760431 -0.7617772
v 0.0517764 0.100831 -0.318325
vn 0.8054396 -0.4842027 -0.3417818
v 0.0403902 0.169824 -0.301435
vn 0.515502 0.781472 -0.35151
v 0.103875 0.115676 -0.194161
vn 0.7434773 -0.5133072 -0.4286692
v 0 0.45041 -0.0914448
vt 0.0380575 0.968941
vn 0 -0.9067378 -0.4216949
v 0.121611 0.461496 0.00349869
vn 0.4401928 -0.8901736 -0.1175639
v 0 0.433512 0.0948992
vn 0 -0.9921227 0.12527
v 0.151374 0.540522 -0.14133
vn 0.5481609 -0.5131719 -0.660435
v -0.121611 0.461496 0.00349869
vn -0.4401928 -0.8901736 -0.1175639
v 0 0.5591 -0.211966
vn 0 -0.397789 -0.917477
v -0.151374 0.540522 -0.14133
vn -0.5481609 -0.5131719 -0.660435
v 0.22856 0.547472 0.011295
vn 0.8621862 -0.4944581 -0.11021
v -0.22856 0.547472 0.011295
vn -0.8621864 -0.4944576 -0.1102099
v 0.075687 0.470905 0.154457
vt 0.335739 0.0471978
vn 0.2851841 -0.9242793 0.2537281
vt 1.12968 -0.0267722
v 0.151374 0.51318 0.160181
vt 0.564943 0.184243
vn 0.6543009 -0.6524999 0.3822749
vt 6.36578E-05 -0.0898477
v 0.0752125 0.520939 0.277174
vt 0.197769 0.195052
vn 0.6273897 -0.2977909 0.7195156
v -0.075687 0.470905 0.154457
vt -0.335611 0.0471978
vn -0.2851841 -0.9242793 0.2537281
v 0 0.490074 0.277097
vt 6.36578E-05 0.0961871
vn 0 -0.875966 0.482373
v 0.0994807 0.596634 0.206925
vt 0.328487 0.465073
vn 0.5032419 0.09639037 0.8587528
v 0.198834 0.59057 0.174198
vt 0.540611 0.536439
vn 0.6878736 -0.3642818 0.6277966
vt -1.12955 -0.0267722
v -0.0752125 0.520939 0.277174
vt -0.197642 0.195052
vn -0.6273897 -0.2977909 0.7195156
v 0 0.554572 0.310664
vt 6.36578E-05 0.312485
vn 0 0.2290969 0.9734036
v 0 0.646823 0.243287
vt 4.23789E-05 0.650886
vn 0 0.255795 0.9667311
v -0.151374 0.51318 0.160181
vt -0.564816 0.184243
vn -0.6543009 -0.6524999 0.3822749
v -0.0994807 0.596634 0.206925
vt -0.32836 0.465073
vn -0.5032419 0.09639048 0.8587528
v -0.198834 0.59057 0.174198
vt -0.540484 0.536439
vn -0.6878736 -0.3642818 0.6277966
v 0.238589 0.62951 0.112902
vt 0.0396088 0.97193
vn 0.9590538 -0.121702 0.255743
v 0.194339 0.672515 0.183733
vn 0.7036867 -0.3655278 0.6092737
v 0.0924088 0.738297 0.301595
vn 0.0137695 -0.182066 0.9831899
v 0 0.677254 0.247379
vn 0 -0.3423249 0.9395816
v -0.0924088 0.738297 0.301595
vn -0.0137695 -0.182066 0.9831899
v -0.194339 0.672515 0.183733
vn -0.7036867 -0.3655278 0.6092737
v -0.238589 0.62951 0.112902
vn -0.9590538 -0.121702 0.255743
v 0 0.305723 -0.261808
vt 0.0303359 0.964739
vn 0 0.9991275 -0.04176418
v -0.00817701 0.222837 -0.157962
vn -0.9885155 -0.07016697 -0.1338419
v 0 0.293346 -0.121832
vn 0 0.9961139 0.08807429
v 0.00817701 0.222837 -0.157962
vn 0.9885155 -0.07016697 -0.1338419
v 0 0.368878 -0.241925
v -0.00817701 0.285993 -0.138079
v 0 0.356502 -0.10195
v 0.00817701 0.285993 -0.138079
v 0 0.433204 -0.223213
v -0.00817701 0.350318 -0.119366
v 0 0.420827 -0.0832369
v 0.00817701 0.350318 -0.119366
v 0 0.625809 -0.308038
vn 0 0.9383322 -0.3457351
v -0.00817701 0.578708 -0.183798
vn -0.9885156 -0.107784 -0.105923
v 0 0.656894 -0.170997
vn 0 0.9752257 -0.2212119
v 0.00817701 0.578708 -0.183798
vn 0.9885156 -0.107784 -0.105923
vt 0.0202098 0.97313
o merged_0_0_node
g polygon_0
usemtl mat_kao1_mat_id
f 1/1/1 2/2/2 3/3/3
f 1/1/1 4/4/4 2/2/2
f 1/1/1 3/3/3 5/5/5
f 1/1/1 6/6/6 4/4/4
f 1/1/1 5/5/5 7/7/7
f 1/1/1 8/8/8 6/6/6
f 1/1/1 7/7/7 9/9/9
f 1/1/1 9/9/9 8/8/8
f 3/3/3 10/10/10 5/5/5
f 3/3/3 11/3/11 10/10/10
f 4/4/4 6/6/6 12/11/12
f 7/7/7 5/5/5 13/12/13
f 7/7/7 13/12/13 14/13/14
f 7/7/7 14/13/14 15/14/15
f 7/7/7 15/14/15 9/9/16
f 14/13/14 6/6/6 8/8/8
f 14/13/14 13/12/13 6/6/6
f 14/13/14 8/8/8 15/14/15
f 15/14/15 8/8/8 9/9/16
f 5/5/5 10/10/10 13/12/13
f 11/3/11 16/5/17 10/10/10
f 11/3/11 17/1/18 16/5/17
f 11/3/11 18/2/19 17/1/18
f 12/11/12 6/6/6 19/15/20
f 6/6/6 13/12/13 19/15/20
f 10/10/10 16/5/17 20/12/21
f 10/10/10 21/16/22 13/12/13
f 10/10/10 20/12/21 21/16/22
f 13/12/13 21/16/22 19/15/20
f 18/2/19 22/4/23 17/1/18
f 16/5/17 23/7/24 20/12/21
f 16/5/17 17/1/18 23/7/24
f 21/16/22 24/17/25 19/15/20
f 21/16/22 20/12/21 25/15/26
f 21/16/22 25/15/26 24/17/25
f 22/4/23 26/6/27 17/1/18
f 22/4/23 27/11/28 26/6/27
f 25/15/26 20/12/21 26/6/27
f 25/15/26 26/6/27 27/11/28
f 23/7/24 17/1/18 28/9/29
f 23/7/24 29/13/30 20/12/21
f 23/7/24 30/14/31 29/13/30
f 23/7/24 28/9/32 30/14/31
f 20/12/21 29/13/30 26/6/27
f 17/1/18 31/8/33 28/9/29
f 17/1/18 26/6/27 31/8/33
f 31/8/33 30/14/31 28/9/32
f 31/8/33 29/13/30 30/14/31
f 31/8/33 26/6/27 29/13/30
f 32/18/34 33/19/35 34/19/36
f 32/18/34 35/19/37 33/19/35
f 32/18/34 34/19/36 36/20/38
f 32/18/34 37/21/39 35/19/37
f 32/18/34 36/20/38 38/22/40
f 32/18/34 38/22/40 37/21/39
f 33/19/35 35/19/37 39/19/41
f 34/19/36 40/19/42 36/20/38
f 38/22/40 41/18/43 37/21/39
f 38/22/40 36/20/38 42/20/44
f 38/22/40 42/20/44 41/18/43
f 42/20/44 36/20/38 40/19/42
f 42/20/44 40/19/42 41/18/43
f 37/21/39 41/18/43 35/19/37
f 39/19/41 35/19/37 43/19/45
f 43/19/45 41/18/43 40/19/42
f 43/19/45 35/19/37 41/18/43
f 44/23/46 45/23/47 46/23/48
f 44/23/46 47/23/49 45/23/47
f 44/23/46 46/23/48 48/23/50
f 44/23/46 49/23/51 47/23/49
f 44/23/46 48/23/50 50/23/52
f 44/23/46 50/23/52 49/23/51
f 45/23/47 47/23/49 51/23/53
f 48/23/50 52/23/54 50/23/52
f 49/23/51 3/23/3 47/23/49
f 49/23/51 50/23/52 11/23/11
f 49/23/51 11/23/11 3/23/3
f 51/23/53 47/23/49 2/23/2
f 51/23/53 2/23/2 4/23/4
f 2/23/2 47/23/49 3/23/3
f 52/23/54 18/23/19 50/23/52
f 52/23/54 22/23/23 18/23/19
f 18/23/19 11/23/11 50/23/52
f 53/24/55 45/25/47 54/26/56
f 53/24/55 46/27/48 45/25/47
f 53/24/55 54/26/56 55/28/57
f 53/24/55 56/29/58 46/27/48
f 53/24/55 55/28/57 57/30/59
f 53/24/55 57/30/59 56/29/58
f 54/26/56 58/31/60 55/28/57
f 54/26/56 59/32/61 58/31/60
f 46/27/48 56/29/58 48/33/50
f 57/30/59 55/28/57 60/34/62
f 57/30/59 60/34/62 56/29/58
f 58/31/60 61/35/63 55/28/57
f 58/31/60 62/36/64 61/35/63
f 55/28/57 61/35/63 60/34/62
f 48/33/50 56/29/58 63/37/65
f 56/29/58 60/34/62 63/37/65
f 62/36/64 64/38/66 61/35/63
f 60/34/62 64/38/66 63/37/65
f 60/34/62 61/35/63 64/38/66
f 63/37/65 64/38/66 65/39/67
f 66/40/68 59/40/61 51/40/53
f 66/40/68 67/40/69 59/40/61
f 66/40/68 51/40/53 4/40/4
f 66/40/68 4/40/4 67/40/69
f 59/40/61 54/40/56 51/40/53
f 4/40/4 12/40/12 67/40/69
f 54/40/56 45/40/47 51/40/53
f 12/40/12 68/40/70 67/40/69
f 12/40/12 19/40/20 68/40/70
f 19/40/20 24/40/25 68/40/70
f 24/40/25 69/40/71 68/40/70
f 24/40/25 70/40/72 69/40/71
f 24/40/25 25/40/26 70/40/72
f 25/40/26 27/40/28 70/40/72
f 27/40/28 71/40/73 70/40/72
f 27/40/28 22/40/23 71/40/73
f 22/40/23 72/40/74 71/40/73
f 22/40/23 52/40/54 72/40/74
f 71/40/73 72/40/74 65/40/67
f 72/40/74 52/40/54 65/40/67
f 52/40/54 63/40/65 65/40/67
f 52/40/54 48/40/50 63/40/65
f 73/41/75 74/41/76 75/41/77
f 73/41/75 76/41/78 74/41/76
f 73/41/75 75/41/77 76/41/78
f 77/41/75 78/41/76 79/41/77
f 77/41/75 80/41/78 78/41/76
f 77/41/75 79/41/77 80/41/78
f 81/41/75 82/41/76 83/41/77
f 81/41/75 84/41/78 82/41/76
f 81/41/75 83/41/77 84/41/78
f 85/41/79 86/41/80 87/41/81
f 85/41/79 88/41/82 86/41/80
f 85/41/79 87/41/81 88/41/82
f 69/42/71 67/42/69 68/42/70
f 69/42/71 70/42/72 71/42/73
vt 1 0.0726722
v -0.20775 0.115676 0.000888239
vt 0.666278 0.0726722
vn -0.9573293 -0.2889991 0.0004230961
vt 1 0.400523
v -0.216295 0.209391 0
vt 0.666278 0.400523
vn -0.9722021 0.0130518 -0.233779
v -0.103875 0.115676 0.162582
vt 0.344244 0.0726722
vn -0.37918 -0.5347319 0.7551718
v -0.108148 0.209391 0.191647
vt 0.344244 0.400523
vn -0.2342729 -0.07234266 0.9694755
vt 0 0.0726722
v 0.103875 0.115676 0.162583
vn 0.37918 -0.5347319 0.7551718
vt 0 0.400523
v 0.108148 0.209391 0.191647
vn 0.2342729 -0.07234276 0.9694755
v 0.20775 0.115676 0.000888239
vn 0.9573293 -0.2889991 0.0004233941
v 0.216295 0.209391 0
vn 0.9722021 0.0130518 -0.233779
v 0.0771592 0.430289 -0.126597
vt 0 1.89401
vn 0.4550731 0.4210421 -0.7846222
v -0.0771591 0.430289 -0.126597
vt 0.344245 1.89401
vn -0.455072 0.421042 -0.784623
vt 1 1.7117
v -0.154318 0.430289 0
vt 0.666278 1.7117
vn -0.7954164 0.5014372 -0.3404022
v -0.0771592 0.430289 0.126597
vt 0 1.27528
vn -0.05262509 0.5626189 0.8250398
v 0.0771592 0.430289 0.126597
vt 0.344244 1.27528
vn 0.05262499 0.5626189 0.8250398
v 0.154318 0.430289 0
vn 0.7954159 0.501438 -0.340402
vt 0.165686 -0.0489057
v 0 0.234137 -0.562028
vt 0.227443 0.754771
vn 0 -0.4458791 -0.8950932
v 0 0.316827 -0.536987
vt 0.210491 0.489735
vn 0 0.22506 -0.9743449
v 0.0693769 0.268915 -0.4964
vt 0.183016 0.643301
vn 0.997071 -0.057575 0.0503447
v 0 0.397001 -0.522011
vt 0.200354 0.232764
vn 0 0.9784586 -0.2064429
v -0.0693769 0.268915 -0.4964
vn -0.997071 -0.0575748 0.0503448
v 0 0.253365 -0.424481
vt 0.134332 0.693142
vn 0 -0.105603 0.9944084
v 0 0.350347 -0.466955
vt 0.163084 0.382298
vn 0 0.6212491 0.7836131
v 0 0.186519 -0.480217
vt 0.172061 0.907394
vn 0 -0.9888345 0.1490179
o merged_1_0_node
g polygon_0
usemtl mat_body1_mat_id
f 33/43/35 89/44/83 34/45/36
f 34/45/36 89/44/83 90/46/84
f 89/44/83 91/47/85 90/46/84
f 90/46/84 91/47/85 92/48/86
f 91/49/85 93/47/87 92/50/86
f 92/50/86 93/47/87 94/48/88
f 95/44/89 96/46/90 93/47/87
f 93/47/87 96/46/90 94/48/88
f 43/43/45 40/45/42 95/44/89
f 95/44/89 40/45/42 96/46/90
f 40/50/42 34/48/36 97/51/91
f 97/51/91 34/48/36 98/52/92
f 34/45/36 90/46/84 98/53/92
f 98/53/92 90/46/84 99/54/93
f 92/50/86 94/48/88 100/55/94
f 100/55/94 94/48/88 101/56/95
f 40/45/42 97/53/91 96/46/90
f 96/46/90 97/53/91 102/54/96
f 93/47/87 91/49/85 39/57/41
f 103/58/97 104/59/98 105/60/99
f 105/60/99 104/59/98 106/61/100
f 103/58/97 107/60/101 104/59/98
f 104/59/98 107/60/101 106/61/100
f 108/62/102 109/63/103 107/60/101
f 107/60/101 109/63/103 106/61/100
f 106/61/100 109/63/103 105/60/99
f 105/60/99 109/63/103 108/62/102
f 110/64/104 103/58/97 105/60/99
f 110/64/104 107/60/101 103/58/97
f 110/64/104 108/62/102 107/60/101
f 110/64/104 105/60/99 108/62/102
vt 0.280285 0.996241
v -0.265546 0.341584 0.203321
vt 0.477332 0.393711
vn -0.8061935 0.1398941 0.5748754
vt 0.00773192 0.735697
v 0.265546 0.341584 0.203321
vn 0.8061935 0.1398941 0.5748754
vt 0.417174 0.205252
v 0 0.480776 0
vn 0 1 0
vt 0.855248 0.897338
vt 1 0.356277
vt 0 0.111382
v -0.125359 0 0
vt 0.48436 0.362643
vn -0.163327 -0.986447 -0.0157038
vt 1.0398 0.259442
vt 1.12159 0.265158
v 0.125359 0 0
vn 0.163327 -0.986447 -0.0157038
vt -0.0494252 -0.0295157
vt 0.59321 -0.0662225
o merged_2_0_node
g polygon_0
usemtl mat_arm1_mat_id
f 99/65/93 111/66/105 100/67/94
f 101/67/95 112/66/106 102/65/96
f 97/68/91 98/68/92 113/68/107
f 98/68/92 99/68/93 113/68/107
f 99/68/93 100/68/94 113/68/107
f 100/68/94 101/68/95 113/68/107
f 101/68/95 102/68/96 113/68/107
f 102/68/96 97/68/91 113/68/107
f 90/69/84 92/70/86 111/66/105
f 111/66/105 92/71/86 100/67/94
f 90/69/84 111/66/105 99/65/93
f 94/70/88 96/69/90 112/66/106
f 112/66/106 96/69/90 102/65/96
f 94/71/88 112/66/106 101/67/95
f 114/72/108 33/73/35 39/74/41
f 91/74/85 114/72/108 39/74/41
f 115/72/109 93/74/87 39/74/41
f 43/75/45 95/76/89 115/72/109
f 43/73/45 115/72/109 39/74/41
f 95/76/89 93/74/87 115/72/109
f 91/74/85 89/76/83 114/72/108
f 89/76/83 33/75/35 114/72/108
vt 0.976948 0.819202
vt 0.435108 0.82395
vt 0.952433 0.929567
vt -0.107427 0.929209
vt -0.107427 0.888285
o merged_3_0_node
g polygon_0
usemtl TEX_ANIM_EYE_mat_id
f 65/77/67 64/78/66 71/79/73
f 69/80/71 71/79/73 62/81/64
f 62/81/64 71/79/73 64/78/66
f 59/77/61 67/79/69 58/78/60
f 69/80/71 62/81/64 67/79/69
f 62/81/64 58/78/60 67/79/69
