mtllib Spheal.mtl
v 0.0630871 0.396868 0.039261
vt 0.972242 0.0376331
vn 0.0428783 0.990514 0.130551
v 0.115084 0.385765 -0.0474615
vn 0.517984 0.789116 -0.330134
v 0 0.403851 -0.0282104
vn 0 0.9924473 -0.122672
v 0.123972 0.37831 0.0278843
vn 0.6997341 0.7139541 0.0253325
v -0.0630871 0.396868 0.039261
vn -0.0428785 0.990514 0.130551
v 0.104866 0.407274 0.0566941
vn 0.2236941 0.9424564 -0.2484691
v -0.0630871 0.36937 0.0993798
vn -0.0455527 0.8030049 0.594229
v 0.0778565 0.404192 0.0911468
vn -0.2572601 0.6686451 0.6976611
v 0.0630871 0.36937 0.0993798
vn 0.0455526 0.8030049 0.594229
v 0 0.377806 -0.125936
vn 0 0.7913728 -0.6113339
v 0.204154 0.280955 -0.0204742
vn 0.9374778 0.3302209 -0.109952
v 0.126174 0.296165 -0.15468
vn 0.5638438 0.4684048 -0.6802037
v -0.0778565 0.404192 0.0911468
vn 0.2572601 0.6686451 0.6976611
v -0.115084 0.385765 -0.0474615
vn -0.517984 0.789116 -0.330134
v -0.104866 0.407274 0.0566942
vn -0.2236939 0.9424568 -0.2484679
v -0.123972 0.37831 0.0278843
vn -0.6997336 0.7139546 0.02533269
v 0.129145 0.391868 0.0799728
vn 0.7707179 0.3793109 0.5119739
v 0 0.335292 0.148343
vn 0 0.6836397 0.7298197
v 0.186209 0.171051 -0.134578
vn 0.8600091 -0.107169 -0.498898
v 0.126174 0.357782 0.0794713
vn 0.7786118 0.4989839 0.3804979
v -0.129145 0.391868 0.0799728
vn -0.7707176 0.3793118 0.5119737
v -0.126174 0.296165 -0.15468
vn -0.5638438 0.4684048 -0.6802037
v 0 0.270454 -0.210053
vn 0 0.3899129 -0.9208518
v 0.07798 0.148841 -0.220835
vn 0.3487971 -0.1544181 -0.9243894
v 0.126174 0.0460969 -0.113856
vn 0.586041 -0.6951531 -0.416315
v -0.126174 0.357782 0.0794713
vn -0.7786118 0.4989839 0.3804979
v -0.204154 0.280955 -0.0204742
vn -0.9374778 0.3302209 -0.109952
v 0 0.0418675 -0.17476
vn 0 -0.735275 -0.677769
v 0 -0.00733378 -0.0477397
vn 0 -0.9952343 -0.09751302
v -0.07798 0.148841 -0.220835
vn -0.3487971 -0.1544181 -0.9243894
v -0.186209 0.171051 -0.134578
vn -0.8600091 -0.107169 -0.498898
v -0.126174 0.0460969 -0.113856
vn -0.586041 -0.6951531 -0.416315
v 0.186209 0.234134 0.110419
vt 0.200596 0.626147
vn 0.8929771 0.137402 0.4286171
v 0.13126 0.108404 0.15038
vt 0.185597 0.23677
vn 0.5936699 -0.3569589 0.7212048
v 0.210851 0.144089 0.023529
vt 0.556917 0.443785
vn 0.969565 -0.238098 0.057035
v 0.118091 0.194889 0.183341
vt 0.0255851 0.414433
vn 0.438173 -0.0330715 0.8982821
vt 0.548123 0.903582
v 0.108422 0.261151 0.163929
vt 0.0114059 0.626563
vn 0.4612512 0.3237672 0.8260884
vt 0.133704 1.02575
v 0.120852 0.324522 0.123864
vt 0.0237227 0.871196
vn 0.5684919 0.5253379 0.633117
v 0.174287 0.0927691 0.0522298
vt 0.523294 0.258721
vn 0.9305922 -0.357646 0.07802272
v 0 0.101069 0.185141
vt 0.0837649 0.18632
vn 0 -0.4105411 0.9118421
v 0.110331 0.0558088 0.121554
vt 0.351848 0.0749781
vn 0.2836609 -0.7265147 0.6258698
vt 1.00739 0.689352
v 0.211155 0.00563457 0.0790164
vt 0.480608 0.00652352
vn 0.6513488 -0.7237808 0.2277849
vt 1.07428 0.289744
v 0.112447 0.0167246 0.0128327
vt 0.72138 0.069468
vn 0.3578141 -0.9337873 0.003205331
v 0 0.0271769 0.125394
vt 0.369926 -0.0156449
vn 0 -0.8854372 0.4647591
v -0.110331 0.0558088 0.121554
vn -0.2836609 -0.7265147 0.6258698
v -0.13126 0.108404 0.15038
vn -0.5936699 -0.3569589 0.7212048
v -0.118091 0.194889 0.183341
vn -0.438173 -0.0330714 0.8982821
vt 0.940069 0.0290202
v -0.174287 0.0927691 0.0522298
vn -0.9305922 -0.357646 0.07802282
v -0.112447 0.0167246 0.0128327
vn -0.3578141 -0.9337873 0.003205331
v -0.211155 0.00563457 0.0790164
vn -0.6513488 -0.7237808 0.2277849
v -0.186209 0.234134 0.110419
vn -0.8929771 0.137402 0.4286171
v -0.108422 0.261151 0.163929
vn -0.4612512 0.3237672 0.8260884
v -0.210851 0.144089 0.023529
vn -0.969565 -0.238098 0.057035
v -0.120852 0.324522 0.123864
vn -0.5684919 0.5253379 0.633117
v -0.0720607 0.252514 0.188585
vt 0.920197 0.106035
vn -0.1670349 -0.06663538 0.9836966
v -0.0829876 0.236914 0.175969
vn -0.4173231 -0.3765211 0.8270872
v -0.0738663 0.270608 0.182049
vn -0.225009 0.4781251 0.8489802
v -0.0386897 0.247774 0.182346
vn 0.141854 -0.258797 0.9554589
v 0 0.274854 0.181838
vn 0 0.4560409 0.8899588
v 0.0386897 0.247774 0.182346
vn -0.141854 -0.258797 0.9554589
v 0.0720607 0.252514 0.188585
vn 0.1670349 -0.06663538 0.9836966
v 0.0738663 0.270608 0.182049
vn 0.225009 0.4781251 0.8489802
v 0.0829876 0.236914 0.175969
vn 0.4173228 -0.3765208 0.8270876
v 0 0.188965 0.199483
vt 0.0589852 0.117212
vn 0 0.0128613 0.9999173
vn 0 0.229689 0.9732641
vt 0.987267 0.791872
vt 0.806999 0.953484
vt 0.751896 0.82001
vt 0.998351 0.919353
v -0.0498396 0.247916 0.182297
vt 0.828701 0.396128
vn 0.2497821 -0.4468432 -0.8590344
v -0.063128 0.22126 0.192299
v -0.0792709 0.240226 0.177739
vn -0.2497819 0.4468428 0.8590347
v 0.0498397 0.247916 0.182297
vn 0.2497821 0.4468432 0.8590344
v 0.063128 0.22126 0.192299
v 0.0792709 0.240226 0.177739
vn -0.2497819 -0.4468428 -0.8590347
o merged_0_0_node
g polygon_0
usemtl mat_body_mat_id
f 1/1/1 2/1/2 3/1/3
f 1/1/1 4/1/4 2/1/2
f 1/1/1 3/1/3 5/1/5
f 1/1/1 6/1/6 4/1/4
f 1/1/1 5/1/5 7/1/7
f 1/1/1 8/1/8 6/1/6
f 1/1/1 7/1/7 9/1/9
f 1/1/1 9/1/9 8/1/8
f 2/1/2 10/1/10 3/1/3
f 2/1/2 4/1/4 11/1/11
f 2/1/2 12/1/12 10/1/10
f 2/1/2 11/1/11 12/1/12
f 5/1/5 13/1/13 7/1/7
f 5/1/5 3/1/3 14/1/14
f 5/1/5 15/1/15 13/1/13
f 5/1/5 14/1/14 16/1/16
f 5/1/5 16/1/16 15/1/15
f 3/1/3 10/1/10 14/1/14
f 6/1/6 8/1/8 17/1/17
f 6/1/6 17/1/17 4/1/4
f 9/1/9 7/1/7 18/1/18
f 11/1/11 19/1/19 12/1/12
f 11/1/11 4/1/4 20/1/20
f 20/1/20 4/1/4 17/1/17
f 13/1/13 15/1/15 21/1/21
f 15/1/15 16/1/16 21/1/21
f 10/1/10 22/1/22 14/1/14
f 10/1/10 23/1/23 22/1/22
f 19/1/19 24/1/24 12/1/12
f 19/1/19 25/1/25 24/1/24
f 12/1/12 24/1/24 23/1/23
f 16/1/16 26/1/26 21/1/21
f 16/1/16 14/1/14 27/1/27
f 16/1/16 27/1/27 26/1/26
f 14/1/14 22/1/22 27/1/27
f 25/1/25 28/1/28 24/1/24
f 25/1/25 29/1/29 28/1/28
f 23/1/23 30/1/30 22/1/22
f 23/1/23 24/1/24 30/1/30
f 24/1/24 28/1/28 30/1/30
f 27/1/27 22/1/22 31/1/31
f 22/1/22 30/1/30 31/1/31
f 29/1/29 32/1/32 28/1/28
f 32/1/32 30/1/30 28/1/28
f 32/1/32 31/1/31 30/1/30
f 33/2/33 34/3/34 35/4/35
f 33/2/33 36/5/36 34/3/34
f 33/2/33 35/4/35 11/6/11
f 33/2/33 37/7/37 36/5/36
f 33/2/33 11/6/11 20/8/20
f 33/2/33 38/9/38 37/7/37
f 33/2/33 20/8/20 38/9/38
f 34/3/34 39/10/39 35/4/35
f 34/3/34 36/5/36 40/11/40
f 34/3/34 41/12/41 39/10/39
f 34/3/34 40/11/40 41/12/41
f 11/6/11 35/4/35 19/13/19
f 39/10/39 41/12/41 42/14/42
f 39/10/39 25/15/25 35/4/35
f 39/10/39 42/14/42 43/16/43
f 39/10/39 43/16/43 25/15/25
f 42/14/42 41/12/41 43/16/43
f 35/4/35 25/15/25 19/13/19
f 40/11/40 44/17/44 41/12/41
f 40/11/40 45/12/45 44/17/44
f 40/11/40 46/3/46 45/12/45
f 40/11/40 47/5/47 46/3/46
f 41/12/41 44/17/44 43/16/43
f 25/15/25 43/16/43 29/18/29
f 43/16/43 44/17/44 29/18/29
f 45/12/45 46/3/46 48/10/48
f 45/12/45 49/16/49 44/17/44
f 45/12/45 48/10/48 50/14/50
f 45/12/45 50/14/50 49/16/49
f 50/14/50 48/10/48 49/16/49
f 44/17/44 49/16/49 29/18/29
f 47/5/47 51/2/51 46/3/46
f 47/5/47 52/7/52 51/2/51
f 48/10/48 32/15/32 49/16/49
f 48/10/48 46/3/46 53/4/53
f 48/10/48 53/4/53 32/15/32
f 46/3/46 51/2/51 53/4/53
f 49/16/49 32/15/32 29/18/29
f 52/7/52 54/9/54 51/2/51
f 53/4/53 31/13/31 32/15/32
f 53/4/53 51/2/51 27/6/27
f 53/4/53 27/6/27 31/13/31
f 54/9/54 26/8/26 51/2/51
f 51/2/51 26/8/26 27/6/27
f 55/19/55 52/19/52 56/19/56
f 55/19/55 57/19/57 52/19/52
f 55/19/55 56/19/56 58/19/58
f 55/19/55 59/19/59 57/19/57
f 55/19/55 58/19/58 59/19/59
f 59/19/59 60/19/60 61/19/61
f 59/19/59 61/19/61 62/19/62
f 60/19/60 63/19/63 61/19/61
f 62/19/62 61/19/61 37/19/37
f 37/19/37 61/19/61 63/19/63
f 64/20/64 36/20/36 59/20/65
f 64/20/64 40/20/40 36/20/36
f 64/20/64 59/20/65 47/20/47
f 64/20/64 47/20/47 40/20/40
f 36/20/36 37/20/37 59/20/65
f 47/20/47 59/20/65 52/20/52
f 20/21/20 8/22/8 9/23/9
f 20/21/20 17/24/17 8/22/8
f 13/22/13 26/21/26 7/23/7
f 13/22/13 21/24/21 26/21/26
f 65/25/66 66/25/66 67/25/66
f 66/25/67 65/25/67 67/25/67
f 68/25/68 69/25/68 70/25/68
f 69/25/69 68/25/69 70/25/69
vt 0.5 1.02073
vt 1 1.00579
vt 0.957819 0.88776
vt 0 0.756859
vt 0 0.895206
vt 0.585431 0.748834
v -0.060426 0.331124 0.141225
vt 0.478909 0.891483
vn -0.2006939 0.6398739 0.7418109
v 0.060426 0.331124 0.141225
vn 0.2006939 0.6398739 0.7418109
vt 0.859303 0.740809
o merged_1_0_node
g polygon_0
usemtl TEX_ANIM_EYE_mat_id
f 7/26/7 26/27/26 54/28/54
f 59/29/59 18/30/18 57/31/57
f 12/1/12 23/1/23 10/1/10
f 38/28/38 20/27/20 9/26/9
f 54/28/54 71/32/70 7/26/7
f 7/26/7 71/32/70 18/30/18
f 38/28/38 72/32/71 62/31/62
f 62/31/62 72/32/71 18/30/18
f 52/33/52 57/31/57 54/28/54
f 18/30/18 71/32/70 57/31/57
f 57/31/57 71/32/70 54/28/54
f 38/28/38 9/26/9 72/32/71
f 72/32/71 9/26/9 18/30/18
f 18/30/18 59/29/59 62/31/62
f 38/28/38 62/31/62 37/33/37
v 0.104799 0.118027 -0.273186
vt 1 0.982956
vn 0.9773011 0.130116 0.16719
v -0.000564083 0.138208 -0.27982
vt -0.00538254 0.893688
vn -0.0006848932 0.7983493 0.6021942
v 0.0799447 0.0574686 -0.221091
vt 0.785624 0.385939
vn 0.266926 0.56517 0.7805981
v 0 0.000388966 -0.133394
vt 0 0.00266158
vn 0 0.7292531 0.6842441
v -0.0799447 0.0574686 -0.221091
vt -0.785624 0.385939
vn -0.2672371 0.5646511 0.7808671
v -0.104799 0.118027 -0.273186
vt -1 0.982956
vn -0.9835743 0.108729 0.144082
v 0 0.115614 -0.299595
vt 0 0.988037
vn 0.00065567 -0.4513399 -0.8923519
v 0 0.0448295 -0.233186
vt 0 0.655079
vn 0 -0.815632 -0.578571
o merged_2_0_node
g polygon_0
usemtl mat_tail_mat_id
f 73/34/72 74/35/73 75/36/74
f 76/37/75 75/36/74 77/38/76
f 77/38/76 75/36/74 74/35/73
f 77/38/76 74/35/73 78/39/77
f 78/39/77 74/35/73 79/40/78
f 79/40/78 74/35/73 73/34/72
f 76/37/75 77/38/76 80/41/79
f 80/41/79 77/38/76 78/39/77
f 78/39/77 79/40/78 80/41/79
f 80/41/79 79/40/78 73/34/72
f 73/34/72 75/36/74 80/41/79
f 80/41/79 75/36/74 76/37/75
