ply
format ascii 1.0
element vertex 390
property float x
property float y
property float z
property uchar red
property uchar green
property uchar blue
element face 534
property list uchar int vertex_index
end_header
-0.38362 -0.59926 0.86952 241 237 90
-0.38362 -0.59926 1.56288 241 237 90
-0.32206 -0.65443 1.56288 241 237 90
-0.32206 -0.65443 0.86952 241 237 90
-0.38362 0.05764 0.86952 241 237 90
-0.38362 0.05764 1.56288 241 237 90
0.32206 -0.65443 0.86952 241 237 90
0.32206 -0.65443 1.56288 241 237 90
0.38362 -0.59926 0.86952 241 237 90
0.38362 -0.59926 1.56288 241 237 90
0.38362 0.05764 1.56288 241 237 90
0.38362 0.05764 0.86952 241 237 90
-0.28449 -0.60967 1.61271 241 237 90
-0.33886 -0.56094 1.61271 241 237 90
-0.33886 0.01932 1.61271 241 237 90
-0.32206 0.11281 1.56288 241 237 90
-0.32206 0.11281 0.86952 241 237 90
0.32206 0.11281 1.56288 241 237 90
0.32206 0.11281 0.86952 241 237 90
-0.28449 0.06805 1.61271 241 237 90
0.33886 0.01932 1.61271 241 237 90
0.33886 -0.56094 1.61271 241 237 90
0.28449 0.06805 1.61271 241 237 90
-0.28474 0.06835 0.83547 241 237 90
-0.33916 0.01958 0.83547 241 237 90
-0.33916 -0.5612 0.83547 241 237 90
-0.28474 -0.60997 0.83547 241 237 90
0.33916 0.01958 0.83547 241 237 90
0.28474 0.06835 0.83547 241 237 90
0.28474 -0.60997 0.83547 241 237 90
0.33916 -0.5612 0.83547 241 237 90
-0.28449 0.06805 1.61271 247 244 101
-0.28449 -0.60967 1.61271 247 244 101
-0.33886 -0.56094 1.61271 247 244 101
-0.33886 0.01932 1.61271 247 244 101
0.28449 -0.60967 1.61271 247 244 101
0.28449 0.06805 1.61271 247 244 101
0.28449 -0.60967 1.61271 241 237 90
0.33886 0.01932 1.61271 247 244 101
0.33886 -0.56094 1.61271 247 244 101
-0.10763 -0.3506 1.60403 240 241 241
-0.10736 -0.3504 1.8859 240 241 241
-0.07811 -0.37817 1.8859 240 241 241
-0.07811 -0.37844 1.60403 240 241 241
-0.10763 -0.19102 1.60403 240 241 241
-0.10736 -0.19122 1.8859 240 241 241
0.07728 -0.37844 1.60403 240 241 241
0.07728 -0.37817 1.8859 240 241 241
0.10763 -0.3506 1.60403 240 241 241
0.10736 -0.3504 1.8859 240 241 241
0.10736 -0.19122 1.8859 240 241 241
0.10763 -0.19102 1.60403 240 241 241
-0.06671 -0.36248 1.90673 240 241 241
-0.09168 -0.33877 1.90673 240 241 241
-0.09168 -0.20285 1.90673 240 241 241
-0.07811 -0.16345 1.8859 240 241 241
-0.07811 -0.16318 1.60403 240 241 241
0.07728 -0.16345 1.8859 240 241 241
0.07728 -0.16318 1.60403 240 241 241
-0.06671 -0.17914 1.90673 240 241 241
0.06598 -0.17914 1.90673 240 241 241
0.09166 -0.20285 1.90673 240 241 241
0.06598 -0.36248 1.90673 240 241 241
0.09166 -0.33877 1.90673 240 241 241
0.09166 -0.33877 1.90673 246 247 247
0.06598 -0.36248 1.90673 246 247 247
-0.06671 -0.36248 1.90673 246 247 247
-0.09168 -0.33877 1.90673 246 247 247
0.09166 -0.20285 1.90673 246 247 247
-0.09168 -0.20285 1.90673 246 247 247
0.06598 -0.17914 1.90673 246 247 247
-0.06671 -0.17914 1.90673 246 247 247
-0.22561 -0.43118 0.49682 241 237 90
-0.22561 -0.43118 0.85538 241 237 90
-0.16405 -0.48635 0.85538 241 237 90
-0.16405 -0.48635 0.49682 241 237 90
-0.22561 -0.07768 0.49682 241 237 90
-0.22561 -0.07768 0.85538 241 237 90
0.16405 -0.48635 0.49682 241 237 90
0.16405 -0.48635 0.85538 241 237 90
0.22561 -0.43118 0.49682 241 237 90
0.22561 -0.43118 0.85538 241 237 90
0.22561 -0.07768 0.85538 241 237 90
0.22561 -0.07768 0.49682 241 237 90
-0.19831 -0.40625 0.46277 241 237 90
-0.13873 -0.45964 0.46277 241 237 90
-0.19831 -0.10261 0.46277 241 237 90
-0.13873 -0.04922 0.46277 241 237 90
-0.16405 -0.02251 0.49682 241 237 90
-0.16405 -0.02251 0.85538 241 237 90
0.16405 -0.02251 0.85538 241 237 90
0.16405 -0.02251 0.49682 241 237 90
0.13873 -0.04922 0.46277 241 237 90
0.19831 -0.10261 0.46277 241 237 90
0.13873 -0.45964 0.46277 241 237 90
0.19831 -0.40625 0.46277 241 237 90
-0.20438 -0.24564 0.12748 241 237 90
-0.20438 -0.24564 0.43486 241 237 90
-0.14283 -0.30081 0.43486 241 237 90
-0.14283 -0.30081 0.12748 241 237 90
-0.20438 0.04129 0.12748 241 237 90
-0.20438 0.04129 0.43486 241 237 90
0.14283 -0.30081 0.12748 241 237 90
0.14283 -0.30081 0.43486 241 237 90
0.20438 -0.24564 0.12748 241 237 90
0.20438 -0.24564 0.43486 241 237 90
0.20438 0.04129 0.43486 241 237 90
0.20438 0.04129 0.12748 241 237 90
-0.10525 -0.25605 0.47818 241 237 90
-0.15963 -0.20732 0.47818 241 237 90
-0.15963 0.00297 0.47818 241 237 90
-0.14283 0.09645 0.43486 241 237 90
-0.14283 0.09645 0.12748 241 237 90
0.14283 0.09645 0.43486 241 237 90
0.14283 0.09645 0.12748 241 237 90
-0.10525 0.0517 0.47818 241 237 90
0.15963 0.00297 0.47818 241 237 90
0.15963 -0.20732 0.47818 241 237 90
0.10525 0.0517 0.47818 241 237 90
-0.10551 0.052 0.09343 241 237 90
-0.15993 0.00322 0.09343 241 237 90
0.10551 0.052 0.09343 241 237 90
0.15993 0.00322 0.09343 241 237 90
0.10551 -0.25635 0.09343 241 237 90
0.15993 -0.20758 0.09343 241 237 90
-0.10551 -0.25635 0.09343 241 237 90
-0.15993 -0.20758 0.09343 241 237 90
-0.10525 0.0517 0.47818 247 244 101
-0.10525 -0.25605 0.47818 247 244 101
-0.15963 -0.20732 0.47818 247 244 101
-0.15963 0.00297 0.47818 247 244 101
0.10525 -0.25605 0.47818 247 244 101
0.10525 0.0517 0.47818 247 244 101
0.10525 -0.25605 0.47818 241 237 90
0.15963 0.00297 0.47818 247 244 101
0.15963 -0.20732 0.47818 247 244 101
-0.17137 0.10353 0.03456 241 237 90
-0.17137 0.10353 0.2653 241 237 90
-0.13526 0.07071 0.2653 241 237 90
-0.13526 0.07071 0.03456 241 237 90
-0.17137 0.37223 0.03456 241 237 90
-0.17137 0.37223 0.2653 241 237 90
0.13525 0.07071 0.03456 241 237 90
0.13525 0.07071 0.2653 241 237 90
0.17137 0.10353 0.03456 241 237 90
0.17137 0.10353 0.2653 241 237 90
0.17137 0.37223 0.2653 241 237 90
0.17137 0.37223 0.03456 241 237 90
-0.13784 0.13636 0.30211 241 237 90
-0.13784 0.3394 0.30211 241 237 90
-0.10666 0.10461 0.30211 241 237 90
0.10666 0.10461 0.30211 241 237 90
0.13784 0.13636 0.30211 241 237 90
0.13784 0.3394 0.30211 241 237 90
0.10556 0.10612 0.00051 241 237 90
0.13626 0.13741 0.00051 241 237 90
0.13626 0.33836 0.00051 241 237 90
0.13525 0.40505 0.03456 241 237 90
0.13525 0.40505 0.2653 241 237 90
-0.13526 0.40505 0.03456 241 237 90
-0.13526 0.40505 0.2653 241 237 90
-0.10666 0.37115 0.30211 241 237 90
0.10666 0.37115 0.30211 241 237 90
-0.10556 0.36964 0.00051 241 237 90
-0.13626 0.33836 0.00051 241 237 90
0.10556 0.36964 0.00051 241 237 90
-0.10666 0.37115 0.30211 247 244 101
-0.10666 0.10461 0.30211 247 244 101
-0.13784 0.13636 0.30211 247 244 101
-0.13784 0.3394 0.30211 247 244 101
0.10666 0.10461 0.30211 247 244 101
0.10666 0.37115 0.30211 247 244 101
-0.10556 0.10612 0.00051 241 237 90
-0.13626 0.13741 0.00051 241 237 90
0.13784 0.3394 0.30211 247 244 101
0.13784 0.13636 0.30211 247 244 101
-0.14445 0.40652 0.17391 241 237 90
-0.14445 0.40652 0.35649 241 237 90
-0.12145 0.38322 0.35649 241 237 90
-0.12145 0.38322 0.17391 241 237 90
-0.14445 0.63861 0.17391 241 237 90
-0.14445 0.63861 0.35649 241 237 90
0.12145 0.38322 0.17391 241 237 90
0.12145 0.38322 0.35649 241 237 90
0.14445 0.40652 0.17391 241 237 90
0.14445 0.40652 0.35649 241 237 90
0.14445 0.63861 0.35649 241 237 90
0.14445 0.63861 0.17391 241 237 90
-0.09514 0.40841 0.3894 241 237 90
-0.12031 0.43381 0.3894 241 237 90
-0.12031 0.61131 0.3894 241 237 90
-0.12145 0.6619 0.35649 241 237 90
-0.12145 0.6619 0.17391 241 237 90
0.12145 0.6619 0.35649 241 237 90
0.12145 0.6619 0.17391 241 237 90
-0.09514 0.63671 0.3894 241 237 90
0.12031 0.61131 0.3894 241 237 90
0.12031 0.43381 0.3894 241 237 90
0.09514 0.63671 0.3894 241 237 90
-0.09636 0.6379 0.13986 241 237 90
-0.12156 0.61245 0.13986 241 237 90
0.09636 0.6379 0.13986 241 237 90
0.12156 0.61245 0.13986 241 237 90
0.09636 0.40722 0.13986 241 237 90
0.12156 0.43267 0.13986 241 237 90
0.09514 0.40841 0.3894 241 237 90
-0.09514 0.63671 0.3894 247 244 101
-0.09514 0.40841 0.3894 247 244 101
-0.12031 0.43381 0.3894 247 244 101
-0.12031 0.61131 0.3894 247 244 101
0.09514 0.40841 0.3894 247 244 101
0.09514 0.63671 0.3894 247 244 101
-0.09636 0.40722 0.13986 241 237 90
-0.12156 0.43267 0.13986 241 237 90
0.12031 0.61131 0.3894 247 244 101
0.12031 0.43381 0.3894 247 244 101
0.17207 -0.67245 1.39818 255 255 255
0.17207 -0.67245 1.43516 255 255 255
0.20793 -0.67245 1.43516 255 255 255
0.20793 -0.67245 1.39818 255 255 255
0.14769 -0.67245 1.44175 67 59 55
0.14769 -0.6513 1.44175 67 59 55
0.24415 -0.6513 1.44175 67 59 55
0.24415 -0.67245 1.44175 67 59 55
0.24415 -0.67245 1.34528 67 59 55
0.24415 -0.6513 1.34528 67 59 55
0.14769 -0.6513 1.34528 67 59 55
0.14769 -0.67245 1.34528 67 59 55
0.20793 -0.67245 1.39818 67 59 55
0.17207 -0.67245 1.39818 67 59 55
0.20793 -0.67245 1.43516 67 59 55
0.17207 -0.67245 1.43516 67 59 55
-0.17207 -0.67245 1.39818 255 255 255
-0.20793 -0.67245 1.39818 255 255 255
-0.20793 -0.67245 1.43516 255 255 255
-0.17207 -0.67245 1.43516 255 255 255
-0.14769 -0.67245 1.44175 67 59 55
-0.24415 -0.67245 1.44175 67 59 55
-0.24415 -0.6513 1.44175 67 59 55
-0.14769 -0.6513 1.44175 67 59 55
-0.24415 -0.67245 1.34528 67 59 55
-0.24415 -0.6513 1.34528 67 59 55
-0.14769 -0.6513 1.34528 67 59 55
-0.14769 -0.67245 1.34528 67 59 55
-0.20793 -0.67245 1.39818 67 59 55
-0.17207 -0.67245 1.39818 67 59 55
-0.20793 -0.67245 1.43516 67 59 55
-0.17207 -0.67245 1.43516 67 59 55
-0.18916 -0.74782 1.09099 248 177 197
-0.18916 -0.74782 1.29733 248 177 197
-0.1474 -0.78089 1.29733 248 177 197
-0.1474 -0.78089 1.09099 248 177 197
-0.18916 -0.65059 1.09099 248 177 197
-0.18916 -0.65059 1.29733 248 177 197
0.14754 -0.78089 1.09099 248 177 197
0.14754 -0.78089 1.29733 248 177 197
0.18916 -0.74782 1.09099 248 177 197
0.18916 -0.74782 1.29733 248 177 197
0.18916 -0.65059 1.29733 248 177 197
0.18916 -0.65059 1.09099 248 177 197
-0.16907 -0.73646 1.31679 248 177 197
-0.16907 -0.65059 1.31679 248 177 197
-0.13175 -0.7613 1.31679 248 177 197
0.13187 -0.7613 1.31679 248 177 197
0.16907 -0.73646 1.31679 248 177 197
0.16907 -0.65059 1.31679 248 177 197
-0.1328 -0.76252 1.06327 248 177 197
0.13292 -0.76252 1.06327 248 177 197
0.17042 -0.73606 1.06327 248 177 197
0.17042 -0.65059 1.06327 248 177 197
-0.17042 -0.65059 1.06327 248 177 197
-0.17042 -0.73606 1.06327 248 177 197
0.16907 -0.65059 1.31679 255 182 203
0.16907 -0.73646 1.31679 255 182 203
-0.16907 -0.73646 1.31679 255 182 203
-0.16907 -0.65059 1.31679 255 182 203
-0.13175 -0.7613 1.31679 255 182 203
0.13187 -0.7613 1.31679 255 182 203
-0.08064 -0.78567 1.286 248 201 214
-0.00929 -0.78567 1.286 248 201 214
-0.00929 -0.78567 1.22025 248 201 214
-0.08064 -0.78567 1.22025 248 201 214
-0.08064 -0.77886 1.286 248 201 214
-0.00929 -0.77886 1.286 248 201 214
-0.00929 -0.77886 1.22025 248 201 214
-0.08064 -0.77886 1.22025 248 201 214
0.05736 -0.53241 0.61374 248 177 197
0.05736 -0.53241 0.72031 248 177 197
0.16277 -0.53241 0.72031 248 177 197
0.16277 -0.53241 0.61374 248 177 197
0.16277 -0.47504 0.72031 248 177 197
0.05736 -0.47504 0.72031 248 177 197
0.05736 -0.47504 0.61374 248 177 197
0.16277 -0.47504 0.61374 248 177 197
-0.16299 -0.53241 0.61374 248 177 197
-0.16299 -0.53241 0.72031 248 177 197
-0.05757 -0.53241 0.72031 248 177 197
-0.05757 -0.53241 0.61374 248 177 197
-0.05757 -0.47504 0.72031 248 177 197
-0.16299 -0.47504 0.72031 248 177 197
-0.16299 -0.47504 0.61374 248 177 197
-0.05757 -0.47504 0.61374 248 177 197
0.05593 -0.34064 0.23563 248 177 197
0.05593 -0.34064 0.32034 248 177 197
0.14047 -0.34064 0.32034 248 177 197
0.14047 -0.34064 0.23563 248 177 197
0.14047 -0.29796 0.32034 248 177 197
0.05593 -0.29796 0.32034 248 177 197
0.05593 -0.29796 0.23563 248 177 197
0.14047 -0.29796 0.23563 248 177 197
-0.14085 -0.34064 0.23563 248 177 197
-0.14085 -0.34064 0.32034 248 177 197
-0.05632 -0.34064 0.32034 248 177 197
-0.05632 -0.34064 0.23563 248 177 197
-0.05632 -0.29796 0.32034 248 177 197
-0.14085 -0.29796 0.32034 248 177 197
-0.14085 -0.29796 0.23563 248 177 197
-0.05632 -0.29796 0.23563 248 177 197
0.20131 0.20655 0.03705 248 177 197
0.20131 0.20655 0.11286 248 177 197
0.20131 0.2825 0.11286 248 177 197
0.20131 0.2825 0.03705 248 177 197
0.1673 0.2825 0.11286 248 177 197
0.1673 0.20655 0.11286 248 177 197
0.1673 0.20655 0.03705 248 177 197
0.1673 0.2825 0.03705 248 177 197
-0.20131 0.20655 0.03705 248 177 197
-0.20131 0.2825 0.03705 248 177 197
-0.20131 0.2825 0.11286 248 177 197
-0.20131 0.20655 0.11286 248 177 197
-0.1673 0.2825 0.11286 248 177 197
-0.1673 0.20655 0.11286 248 177 197
-0.1673 0.20655 0.03705 248 177 197
-0.1673 0.2825 0.03705 248 177 197
0.17823 0.49295 0.17579 248 177 197
0.17823 0.49295 0.2516 248 177 197
0.17823 0.5689 0.2516 248 177 197
0.17823 0.5689 0.17579 248 177 197
0.14115 0.5689 0.2516 248 177 197
0.14115 0.49295 0.2516 248 177 197
0.14115 0.49295 0.17579 248 177 197
0.14115 0.5689 0.17579 248 177 197
-0.17823 0.49295 0.17579 248 177 197
-0.17823 0.5689 0.17579 248 177 197
-0.17823 0.5689 0.2516 248 177 197
-0.17823 0.49295 0.2516 248 177 197
-0.14115 0.5689 0.2516 248 177 197
-0.14115 0.49295 0.2516 248 177 197
-0.14115 0.49295 0.17579 248 177 197
-0.14115 0.5689 0.17579 248 177 197
-0.05196 0.48528 0.37872 240 241 241
-0.07138 0.47076 0.40865 240 241 241
-0.05501 0.45274 0.40865 240 241 241
-0.03871 0.47217 0.37872 240 241 241
-0.05196 0.56297 0.37872 240 241 241
-0.07138 0.57749 0.40865 240 241 241
-0.05501 0.453 0.61913 240 241 241
-0.07112 0.47095 0.61913 240 241 241
-0.07112 0.5773 0.61913 240 241 241
-0.05501 0.5955 0.40865 240 241 241
-0.05501 0.59525 0.61913 240 241 241
-0.03871 0.57608 0.37872 240 241 241
0.03795 0.47217 0.37872 240 241 241
0.05425 0.45274 0.40865 240 241 241
0.05425 0.59525 0.61913 240 241 241
0.05425 0.5955 0.40865 240 241 241
0.05425 0.453 0.61913 240 241 241
0.03795 0.57608 0.37872 240 241 241
0.05196 0.48528 0.37872 240 241 241
0.07138 0.47076 0.40865 240 241 241
0.07138 0.57749 0.40865 240 241 241
0.05196 0.56297 0.37872 240 241 241
0.07112 0.5773 0.61913 240 241 241
0.07112 0.47095 0.61913 240 241 241
0.06004 0.47924 0.63909 240 241 241
0.04579 0.46409 0.63909 240 241 241
-0.04644 0.46409 0.63909 240 241 241
-0.06004 0.47924 0.63909 240 241 241
0.06004 0.56901 0.63909 240 241 241
0.04579 0.58416 0.63909 240 241 241
-0.04644 0.58416 0.63909 240 241 241
-0.06004 0.56901 0.63909 240 241 241
0.06004 0.47924 0.63909 246 247 247
0.04579 0.46409 0.63909 246 247 247
-0.04644 0.46409 0.63909 246 247 247
-0.06004 0.47924 0.63909 246 247 247
0.06004 0.56901 0.63909 246 247 247
-0.06004 0.56901 0.63909 246 247 247
0.04579 0.58416 0.63909 246 247 247
-0.04644 0.58416 0.63909 246 247 247
3 0 2 1
3 0 3 2
3 4 0 1
3 4 1 5
3 2 3 6
3 2 6 7
3 7 6 8
3 7 8 9
3 8 10 9
3 8 11 10
3 1 2 12
3 1 12 13
3 5 1 13
3 5 13 14
3 15 5 14
3 5 15 16
3 5 16 4
3 16 15 17
3 16 17 18
3 18 17 10
3 18 10 11
3 15 14 19
3 17 15 19
3 9 10 20
3 9 20 21
3 10 17 22
3 17 19 22
3 10 22 20
3 4 16 23
3 4 23 24
3 0 4 24
3 0 24 25
3 3 0 25
3 3 25 26
3 18 11 27
3 18 27 28
3 29 28 27
3 29 27 30
3 16 28 23
3 16 18 28
3 6 3 26
3 6 26 29
3 8 6 29
3 8 29 30
3 11 30 27
3 11 8 30
3 26 28 29
3 26 23 28
3 26 24 23
3 26 25 24
3 31 33 32
3 31 34 33
3 31 32 35
3 31 35 36
3 2 37 12
3 2 7 37
3 7 21 37
3 7 9 21
3 36 39 38
3 36 35 39
3 40 42 41
3 40 43 42
3 44 40 41
3 44 41 45
3 42 43 46
3 42 46 47
3 47 46 48
3 47 48 49
3 48 50 49
3 48 51 50
3 41 42 52
3 41 52 53
3 45 41 53
3 45 53 54
3 55 45 54
3 45 55 56
3 45 56 44
3 56 55 57
3 56 57 58
3 58 57 50
3 58 50 51
3 57 55 59
3 55 54 59
3 57 59 60
3 50 57 60
3 49 50 61
3 50 60 61
3 42 62 52
3 42 47 62
3 47 63 62
3 47 49 63
3 49 61 63
3 64 66 65
3 64 67 66
3 68 67 64
3 68 69 67
3 70 69 68
3 70 71 69
3 72 74 73
3 72 75 74
3 76 72 73
3 76 73 77
3 74 75 78
3 74 78 79
3 79 78 80
3 79 80 81
3 80 82 81
3 80 83 82
3 75 72 84
3 75 84 85
3 78 75 85
3 72 86 84
3 72 76 86
3 76 87 86
3 76 88 87
3 77 88 76
3 77 89 88
3 88 89 90
3 88 90 91
3 91 90 82
3 91 82 83
3 88 92 87
3 88 91 92
3 91 93 92
3 91 83 93
3 94 92 93
3 94 93 95
3 83 95 93
3 83 80 95
3 80 94 95
3 80 78 94
3 78 85 94
3 85 92 94
3 85 87 92
3 85 86 87
3 85 84 86
3 96 98 97
3 96 99 98
3 100 96 97
3 100 97 101
3 98 99 102
3 98 102 103
3 103 102 104
3 103 104 105
3 104 106 105
3 104 107 106
3 97 98 108
3 97 108 109
3 101 97 109
3 101 109 110
3 111 101 110
3 101 111 112
3 101 112 100
3 112 111 113
3 112 113 114
3 114 113 106
3 114 106 107
3 111 110 115
3 113 111 115
3 105 106 116
3 105 116 117
3 106 113 118
3 113 115 118
3 106 118 116
3 100 112 119
3 100 119 120
3 112 121 119
3 112 114 121
3 114 122 121
3 114 107 122
3 123 121 122
3 123 122 124
3 107 124 122
3 107 104 124
3 104 123 124
3 104 102 123
3 102 125 123
3 102 99 125
3 99 126 125
3 99 96 126
3 96 120 126
3 125 126 120
3 96 100 120
3 125 121 123
3 125 119 121
3 125 120 119
3 127 129 128
3 127 130 129
3 127 128 131
3 127 131 132
3 98 133 108
3 98 103 133
3 103 117 133
3 103 105 117
3 132 135 134
3 132 131 135
3 136 138 137
3 136 139 138
3 140 136 137
3 140 137 141
3 138 139 142
3 138 142 143
3 143 142 144
3 143 144 145
3 144 146 145
3 144 147 146
3 141 137 148
3 141 148 149
3 137 150 148
3 137 138 150
3 138 151 150
3 138 143 151
3 143 152 151
3 143 145 152
3 145 153 152
3 145 146 153
3 144 142 154
3 144 154 155
3 147 144 155
3 147 155 156
3 157 147 156
3 157 146 147
3 157 158 146
3 159 158 157
3 159 160 158
3 141 160 159
3 141 159 140
3 160 141 149
3 160 149 161
3 158 160 161
3 146 158 162
3 158 161 162
3 146 162 153
3 140 159 163
3 140 163 164
3 159 165 163
3 159 157 165
3 157 156 165
3 154 165 156
3 154 156 155
3 166 168 167
3 166 169 168
3 166 167 170
3 166 170 171
3 139 173 172
3 139 136 173
3 136 164 173
3 172 173 164
3 136 140 164
3 142 139 172
3 142 172 154
3 172 165 154
3 172 163 165
3 172 164 163
3 171 175 174
3 171 170 175
3 176 178 177
3 176 179 178
3 180 176 177
3 180 177 181
3 178 179 182
3 178 182 183
3 183 182 184
3 183 184 185
3 184 186 185
3 184 187 186
3 177 178 188
3 177 188 189
3 181 177 189
3 181 189 190
3 191 181 190
3 181 191 192
3 181 192 180
3 192 191 193
3 192 193 194
3 194 193 186
3 194 186 187
3 191 190 195
3 193 191 195
3 185 186 196
3 185 196 197
3 186 193 198
3 193 195 198
3 186 198 196
3 180 192 199
3 180 199 200
3 192 201 199
3 192 194 201
3 194 202 201
3 194 187 202
3 203 201 202
3 203 202 204
3 183 197 205
3 178 183 205
3 178 205 188
3 183 185 197
3 206 208 207
3 206 209 208
3 206 207 210
3 206 210 211
3 179 213 212
3 179 176 213
3 176 200 213
3 212 213 200
3 176 180 200
3 182 179 212
3 182 212 203
3 184 182 203
3 184 203 204
3 187 184 204
3 187 204 202
3 212 201 203
3 212 199 201
3 212 200 199
3 211 215 214
3 211 210 215
3 216 218 217
3 216 219 218
3 220 222 221
3 220 223 222
3 224 222 223
3 224 225 222
3 226 225 224
3 226 220 221
3 226 224 227
3 226 227 220
3 227 224 228
3 227 228 229
3 220 227 229
3 224 230 228
3 224 223 230
3 223 231 230
3 223 220 231
3 220 229 231
3 232 234 233
3 232 235 234
3 236 238 237
3 236 239 238
3 240 237 238
3 240 238 241
3 242 240 241
3 242 239 236
3 242 243 240
3 242 236 243
3 243 244 240
3 243 245 244
3 236 245 243
3 240 246 237
3 240 244 246
3 237 247 236
3 237 246 247
3 236 247 245
3 248 250 249
3 248 251 250
3 252 248 249
3 252 249 253
3 250 251 254
3 250 254 255
3 255 254 256
3 255 256 257
3 256 258 257
3 256 259 258
3 253 249 260
3 253 260 261
3 249 262 260
3 249 250 262
3 250 263 262
3 250 255 263
3 255 264 263
3 255 257 264
3 257 265 264
3 257 258 265
3 254 251 266
3 254 266 267
3 256 254 267
3 259 256 268
3 256 267 268
3 259 268 269
3 268 270 269
3 268 271 270
3 267 271 268
3 267 266 271
3 251 271 266
3 251 248 271
3 248 270 271
3 248 252 270
3 272 274 273
3 272 275 274
3 273 274 276
3 273 276 277
3 278 280 279
3 278 281 280
3 282 278 279
3 282 279 283
3 283 279 280
3 281 284 280
3 283 280 284
3 281 285 284
3 278 285 281
3 278 282 285
3 286 288 287
3 286 289 288
3 287 288 290
3 289 290 288
3 287 290 291
3 292 289 286
3 292 287 291
3 292 286 287
3 292 293 289
3 289 293 290
3 294 296 295
3 294 297 296
3 295 296 298
3 297 298 296
3 295 298 299
3 300 297 294
3 300 295 299
3 300 294 295
3 300 301 297
3 297 301 298
3 302 304 303
3 302 305 304
3 303 304 306
3 305 306 304
3 303 306 307
3 308 305 302
3 308 303 307
3 308 302 303
3 308 309 305
3 305 309 306
3 310 312 311
3 310 313 312
3 311 312 314
3 313 314 312
3 311 314 315
3 316 313 310
3 316 311 315
3 316 310 311
3 316 317 313
3 313 317 314
3 318 320 319
3 318 321 320
3 319 320 322
3 321 322 320
3 319 322 323
3 324 321 318
3 324 325 321
3 321 325 322
3 324 319 323
3 324 318 319
3 326 328 327
3 326 329 328
3 329 330 328
3 327 328 330
3 329 331 330
3 332 326 327
3 332 327 333
3 327 330 333
3 332 329 326
3 332 331 329
3 334 336 335
3 334 337 336
3 335 336 338
3 337 338 336
3 335 338 339
3 340 337 334
3 340 341 337
3 337 341 338
3 340 335 339
3 340 334 335
3 342 344 343
3 342 345 344
3 345 346 344
3 343 344 346
3 345 347 346
3 348 342 343
3 348 343 349
3 343 346 349
3 348 345 342
3 348 347 345
3 350 352 351
3 350 353 352
3 354 350 351
3 354 351 355
3 351 352 356
3 351 356 357
3 355 351 357
3 355 357 358
3 358 359 355
3 358 360 359
3 355 359 361
3 355 361 354
3 352 353 362
3 352 362 363
3 356 352 363
3 359 360 364
3 359 364 365
3 361 359 365
3 356 363 366
3 361 365 367
3 363 362 368
3 363 368 369
3 366 363 369
3 368 370 369
3 368 371 370
3 365 364 372
3 369 372 373
3 366 369 373
3 369 370 372
3 365 372 370
3 367 365 370
3 367 370 371
3 366 373 374
3 366 374 375
3 356 366 375
3 356 375 376
3 357 356 376
3 357 376 377
3 373 378 374
3 373 372 378
3 372 379 378
3 372 364 379
3 364 380 379
3 364 360 380
3 360 381 380
3 360 358 381
3 358 377 381
3 358 357 377
3 382 384 383
3 382 385 384
3 386 385 382
3 386 387 385
3 388 387 386
3 388 389 387
