ply
format ascii 1.0
element vertex 863
property float x
property float y
property float z
property uchar red
property uchar green
property uchar blue
element face 1026
property list uchar int vertex_index
end_header
0.67657 -0.40097 0.10458 205 205 212
0.70432 -0.34967 0.10458 205 205 212
0.70432 -0.34967 2.90871E-07 205 205 212
0.67657 -0.40097 2.90871E-07 205 205 212
0.43461 -0.40097 0.10458 205 205 212
0.43461 -0.40097 2.90871E-07 205 205 212
0.40199 -0.34967 2.90871E-07 205 205 212
0.40199 -0.34967 0.10458 205 205 212
0.70432 -0.34967 2.90871E-07 197 152 195
0.75681 -0.34967 2.90871E-07 197 152 195
0.75681 0.06026 2.90871E-07 197 152 195
0.354 0.06026 2.90871E-07 197 152 195
0.40199 -0.34967 2.90871E-07 197 152 195
0.354 -0.34967 2.90871E-07 197 152 195
0.40199 -0.34967 0.10458 197 152 195
0.70432 -0.34967 0.10458 197 152 195
0.75681 -0.34967 0.38839 197 152 195
0.354 -0.34967 0.38839 197 152 195
0.354 0.06026 0.38839 197 152 195
0.39298 0.09551 0.38839 197 152 195
0.39298 0.09551 2.90871E-07 197 152 195
0.71783 0.09551 2.90871E-07 197 152 195
0.71783 0.09551 0.38839 197 152 195
0.75681 0.06026 0.38839 197 152 195
0.43461 -0.40097 0.10458 215 215 222
0.40199 -0.34967 0.10458 215 215 222
0.70432 -0.34967 0.10458 215 215 222
0.67657 -0.40097 0.10458 215 215 222
0.70432 0.60628 0.10458 197 152 195
0.75681 0.60628 0.38839 197 152 195
0.75681 0.60628 3.05176E-07 197 152 195
0.75681 1.09348 3.05176E-07 197 152 195
0.70432 0.60628 3.05176E-07 197 152 195
0.75681 1.09348 0.38839 197 152 195
0.354 0.60628 0.38839 197 152 195
0.40199 0.60628 0.10458 197 152 195
0.354 0.60628 3.05176E-07 197 152 195
0.40199 0.60628 3.05176E-07 197 152 195
0.354 1.09348 3.05176E-07 197 152 195
0.354 1.09348 0.38839 197 152 195
0.39298 1.12873 0.38839 197 152 195
0.39298 1.12873 3.05176E-07 197 152 195
0.71783 1.12873 3.05176E-07 197 152 195
0.71783 1.12873 0.38839 197 152 195
0.67709 0.55497 3.05176E-07 205 205 212
0.43409 0.55497 3.05176E-07 205 205 212
0.43409 0.55497 0.10458 205 205 212
0.67709 0.55497 0.10458 205 205 212
0.70432 0.60628 3.05176E-07 205 205 212
0.40199 0.60628 3.05176E-07 205 205 212
0.70432 0.60628 0.10458 205 205 212
0.40199 0.60628 0.10458 205 205 212
0.43409 0.55497 0.10458 215 215 222
0.40199 0.60628 0.10458 215 215 222
0.70432 0.60628 0.10458 215 215 222
0.67709 0.55497 0.10458 215 215 222
-0.10521 -0.32337 1.28257 197 152 195
-0.0751 -0.28435 1.85816 197 152 195
0.0751 -0.28435 1.85816 197 152 195
0.10521 -0.32337 1.28257 197 152 195
0.0751 -0.15199 1.85816 197 152 195
0.10521 -0.11296 1.28257 197 152 195
-0.10521 -0.11296 1.28257 197 152 195
-0.0751 -0.15199 1.85816 197 152 195
0.05758 -0.26891 1.88705 197 152 195
-0.05758 -0.26891 1.88705 197 152 195
0.05758 -0.16743 1.88705 197 152 195
-0.05758 -0.16743 1.88705 197 152 195
-0.05758 -0.26891 1.88705 202 156 200
-0.05758 -0.16743 1.88705 202 156 200
0.05758 -0.16743 1.88705 202 156 200
0.05758 -0.26891 1.88705 202 156 200
-0.1432 0.01075 1.28148 197 152 195
-0.09533 0.05042 2.02803 197 152 195
0.09533 0.05042 2.02803 197 152 195
0.1432 0.01075 1.28148 197 152 195
0.09533 0.25748 2.02803 197 152 195
0.1432 0.29715 1.28148 197 152 195
-0.1432 0.29715 1.28148 197 152 195
-0.09533 0.25748 2.02803 197 152 195
-0.07308 0.07458 2.05692 202 156 200
-0.07308 0.23332 2.05692 202 156 200
0.07308 0.23332 2.05692 202 156 200
0.07308 0.07458 2.05692 202 156 200
-0.09533 0.05042 2.02803 202 156 200
0.09533 0.05042 2.02803 202 156 200
0.09533 0.25748 2.02803 202 156 200
-0.09533 0.25748 2.02803 202 156 200
-0.10521 0.41999 1.28257 197 152 195
-0.08047 0.45518 1.72359 197 152 195
0.08047 0.45518 1.72359 197 152 195
0.10521 0.41999 1.28257 197 152 195
0.08047 0.6374 1.72359 197 152 195
0.10521 0.67134 1.28257 197 152 195
-0.10521 0.67134 1.28257 197 152 195
-0.08047 0.6374 1.72359 197 152 195
0.06169 0.47644 1.75248 197 152 195
-0.06169 0.47644 1.75248 197 152 195
0.06169 0.61614 1.75248 197 152 195
-0.06169 0.61614 1.75248 197 152 195
-0.06169 0.47644 1.75248 202 156 200
-0.06169 0.61614 1.75248 202 156 200
0.06169 0.61614 1.75248 202 156 200
0.06169 0.47644 1.75248 202 156 200
-0.14608 0.80431 1.28025 197 152 195
-0.09649 0.86025 1.58452 197 152 195
0.09649 0.86025 1.58452 197 152 195
0.14608 0.80431 1.28025 197 152 195
0.09649 1.08038 1.58452 197 152 195
0.14608 1.12237 1.28025 197 152 195
-0.14608 1.12237 1.28025 197 152 195
-0.09649 1.08038 1.58452 197 152 195
0.07397 0.88593 1.61341 197 152 195
-0.07397 0.88593 1.61341 197 152 195
0.07397 1.0547 1.61341 197 152 195
-0.07397 1.0547 1.61341 197 152 195
-0.07397 0.88593 1.61341 202 156 200
-0.07397 1.0547 1.61341 202 156 200
0.07397 1.0547 1.61341 202 156 200
0.07397 0.88593 1.61341 202 156 200
-0.10521 1.25267 1.21059 202 156 200
-0.07824 1.53877 1.18647 202 156 200
0.07824 1.53877 1.18647 202 156 200
0.10521 1.25267 1.21059 202 156 200
0.05998 1.56547 1.16755 202 156 200
-0.05998 1.56547 1.16755 202 156 200
-0.05998 1.56547 1.16755 197 152 195
-0.05998 1.56547 1.04321 197 152 195
0.05998 1.56547 1.04321 197 152 195
0.05998 1.56547 1.16755 197 152 195
0.07824 1.53877 1.18647 197 152 195
0.07824 1.53877 1.02429 197 152 195
0.10521 1.25267 1.21059 197 152 195
0.10521 1.25267 1.00018 197 152 195
-0.07824 1.53877 1.02429 197 152 195
-0.10521 1.25267 1.00018 197 152 195
-0.07824 1.53877 1.18647 197 152 195
-0.10521 1.25267 1.21059 197 152 195
0.63647 0.51244 0.96574 138 94 143
0.63647 0.51244 1.13907 138 94 143
0.65421 0.51244 1.13907 138 94 143
0.65421 0.51244 0.96574 138 94 143
0.65421 0.66493 1.13907 138 94 143
0.63647 0.66493 1.13907 138 94 143
0.63647 0.66493 0.96574 138 94 143
0.65421 0.66493 0.96574 138 94 143
0.63647 0.13748 0.81247 138 94 143
0.63647 0.13748 1.02616 138 94 143
0.65421 0.13748 1.02616 138 94 143
0.65421 0.13748 0.81247 138 94 143
0.65421 0.32579 1.02616 138 94 143
0.63647 0.32579 1.02616 138 94 143
0.63647 0.32579 0.81247 138 94 143
0.65421 0.32579 0.81247 138 94 143
-0.63647 0.51244 0.96574 138 94 143
-0.65421 0.51244 0.96574 138 94 143
-0.65421 0.51244 1.13907 138 94 143
-0.63647 0.51244 1.13907 138 94 143
-0.65421 0.66493 1.13907 138 94 143
-0.63647 0.66493 1.13907 138 94 143
-0.63647 0.66493 0.96574 138 94 143
-0.65421 0.66493 0.96574 138 94 143
-0.63647 0.13748 0.81247 138 94 143
-0.65421 0.13748 0.81247 138 94 143
-0.65421 0.13748 1.02616 138 94 143
-0.63647 0.13748 1.02616 138 94 143
-0.65421 0.32579 1.02616 138 94 143
-0.63647 0.32579 1.02616 138 94 143
-0.63647 0.32579 0.81247 138 94 143
-0.65421 0.32579 0.81247 138 94 143
0.64326 -0.87149 1.22165 197 152 195
0.57894 -0.81628 1.29517 197 152 195
0.57894 1.13733 1.29517 197 152 195
0.64326 1.20476 1.22165 197 152 195
0.64326 -0.87149 0.73452 197 152 195
0.64324 1.20476 0.33939 197 152 195
0.57535 1.27173 1.22152 197 152 195
0.50916 1.20476 1.29517 197 152 195
0.57533 1.27173 0.39925 197 152 195
0.5195 1.27173 0.35042 197 152 195
-0.57533 1.27173 0.39925 197 152 195
-0.5195 1.27173 0.35042 197 152 195
-0.57881 1.20476 0.28305 197 152 195
0.57881 1.20476 0.28305 197 152 195
-0.64324 1.20476 0.33939 197 152 195
-0.64326 1.20476 1.22165 197 152 195
-0.57535 1.27173 1.22152 197 152 195
-0.57894 1.13733 1.29517 197 152 195
-0.64326 -0.87149 1.22165 197 152 195
-0.57894 -0.81628 1.29517 197 152 195
-0.50916 1.20476 1.29517 197 152 195
-0.64326 -0.87149 0.73452 197 152 195
0.57875 -1.00342 0.28299 197 152 195
-0.57875 -1.00342 0.28299 197 152 195
-0.57894 1.13733 1.29517 202 156 200
-0.50916 1.20476 1.29517 202 156 200
0.50916 1.20476 1.29517 202 156 200
0.57894 1.13733 1.29517 202 156 200
-0.57894 -0.81628 1.29517 202 156 200
0.57894 -0.81628 1.29517 202 156 200
0.36253 0.1525 0.65489 197 152 195
0.36253 0.15208 0.45247 197 152 195
0.74828 0.15208 0.45247 197 152 195
0.74828 0.1525 0.65489 197 152 195
0.79309 0.0947 0.65477 197 152 195
0.79309 0.0947 0.45247 197 152 195
0.79309 -0.38411 0.45247 197 152 195
0.79309 -0.38411 0.65477 197 152 195
0.31772 0.0947 0.45247 197 152 195
0.31772 0.0947 0.65477 197 152 195
0.31772 -0.38411 0.65477 197 152 195
0.31772 -0.38411 0.45247 197 152 195
0.74942 -0.34214 0.70361 202 156 200
0.36139 -0.34214 0.70361 202 156 200
0.36139 0.05273 0.70361 202 156 200
0.74942 0.05273 0.70361 202 156 200
0.79309 -0.38411 0.65477 202 156 200
0.79309 0.0947 0.65477 202 156 200
0.31772 0.0947 0.65477 202 156 200
0.31772 -0.38411 0.65477 202 156 200
0.71284 0.11195 0.70343 202 156 200
0.39796 0.11195 0.70343 202 156 200
0.74828 0.1525 0.65489 202 156 200
0.36253 0.1525 0.65489 202 156 200
0.39513 -0.38839 0.7037 202 156 200
0.71568 -0.38839 0.7037 202 156 200
0.35905 -0.4328 0.38839 180 139 178
0.35905 -0.4328 0.45247 180 139 178
0.75175 -0.4328 0.45247 180 139 178
0.75175 -0.4328 0.38839 180 139 178
0.31772 -0.38411 0.38839 180 139 178
0.79309 -0.38411 0.38839 180 139 178
0.354 -0.34967 0.38839 180 139 178
0.75681 -0.34967 0.38839 180 139 178
0.79309 -0.38411 0.45247 180 139 178
0.31772 -0.38411 0.45247 180 139 178
0.79309 0.0947 0.45247 180 139 178
0.79309 0.0947 0.38839 180 139 178
0.75681 0.06026 0.38839 180 139 178
0.74828 0.15208 0.38839 180 139 178
0.74828 0.15208 0.45247 180 139 178
0.36253 0.15208 0.45247 180 139 178
0.36253 0.15208 0.38839 180 139 178
0.31772 0.0947 0.38839 180 139 178
0.39298 0.09551 0.38839 180 139 178
0.354 0.06026 0.38839 180 139 178
0.31772 0.0947 0.45247 180 139 178
0.75175 -0.43285 0.65483 202 156 200
0.35905 -0.43285 0.65483 202 156 200
0.35905 -0.4328 0.45247 197 152 195
0.35905 -0.43285 0.65483 197 152 195
0.75175 -0.43285 0.65483 197 152 195
0.75175 -0.4328 0.45247 197 152 195
-0.36253 0.1525 0.65489 197 152 195
-0.74828 0.1525 0.65489 197 152 195
-0.74828 0.15208 0.45247 197 152 195
-0.36253 0.15208 0.45247 197 152 195
-0.31772 0.0947 0.65477 197 152 195
-0.31772 0.0947 0.45247 197 152 195
-0.31772 -0.38411 0.65477 197 152 195
-0.31772 -0.38411 0.45247 197 152 195
-0.79309 0.0947 0.45247 197 152 195
-0.79309 0.0947 0.65477 197 152 195
-0.79309 -0.38411 0.45247 197 152 195
-0.79309 -0.38411 0.65477 197 152 195
-0.74942 -0.34214 0.70361 202 156 200
-0.74942 0.05273 0.70361 202 156 200
-0.36139 0.05273 0.70361 202 156 200
-0.36139 -0.34214 0.70361 202 156 200
-0.79309 -0.38411 0.65477 202 156 200
-0.79309 0.0947 0.65477 202 156 200
-0.31772 0.0947 0.65477 202 156 200
-0.31772 -0.38411 0.65477 202 156 200
-0.36253 0.1525 0.65489 202 156 200
-0.39796 0.11195 0.70343 202 156 200
-0.74828 0.1525 0.65489 202 156 200
-0.71284 0.11195 0.70343 202 156 200
-0.71568 -0.38839 0.7037 202 156 200
-0.39513 -0.38839 0.7037 202 156 200
-0.35905 -0.4328 0.38839 180 139 178
-0.75175 -0.4328 0.38839 180 139 178
-0.75175 -0.4328 0.45247 180 139 178
-0.35905 -0.4328 0.45247 180 139 178
-0.31772 -0.38411 0.38839 180 139 178
-0.31772 -0.38411 0.45247 180 139 178
-0.79309 -0.38411 0.45247 180 139 178
-0.79309 -0.38411 0.38839 180 139 178
-0.79309 0.0947 0.38839 180 139 178
-0.79309 0.0947 0.45247 180 139 178
-0.75681 0.06026 0.38839 180 139 178
-0.71783 0.09551 0.38839 180 139 178
-0.74828 0.15208 0.38839 180 139 178
-0.36253 0.15208 0.38839 180 139 178
-0.39298 0.09551 0.38839 180 139 178
-0.75681 -0.34967 0.38839 180 139 178
-0.354 -0.34967 0.38839 180 139 178
-0.354 0.06026 0.38839 180 139 178
-0.31772 0.0947 0.38839 180 139 178
-0.31772 0.0947 0.45247 180 139 178
-0.36253 0.15208 0.45247 180 139 178
-0.74828 0.15208 0.45247 180 139 178
-0.35905 -0.43285 0.65483 202 156 200
-0.75175 -0.43285 0.65483 202 156 200
-0.35905 -0.4328 0.45247 197 152 195
-0.75175 -0.4328 0.45247 197 152 195
-0.75175 -0.43285 0.65483 197 152 195
-0.35905 -0.43285 0.65483 197 152 195
0.36253 1.18559 0.74808 197 152 195
0.36253 1.18531 0.45458 197 152 195
0.74828 1.18531 0.45458 197 152 195
0.74828 1.18559 0.74808 197 152 195
0.79309 1.12792 0.74813 197 152 195
0.79309 1.12792 0.45458 197 152 195
0.79309 0.57184 0.45458 197 152 195
0.79309 0.57184 0.74813 197 152 195
0.31772 1.12792 0.45458 197 152 195
0.31772 1.12792 0.74813 197 152 195
0.31772 0.57184 0.74813 197 152 195
0.31772 0.57184 0.45458 197 152 195
0.74942 0.6138 0.79698 202 156 200
0.36139 0.6138 0.79698 202 156 200
0.36139 1.08596 0.79698 202 156 200
0.74942 1.08596 0.79698 202 156 200
0.79309 0.57184 0.74813 202 156 200
0.79309 1.12792 0.74813 202 156 200
0.31772 1.12792 0.74813 202 156 200
0.31772 0.57184 0.74813 202 156 200
0.71284 1.142 0.79688 202 156 200
0.39796 1.142 0.79688 202 156 200
0.74828 1.18559 0.74808 202 156 200
0.36253 1.18559 0.74808 202 156 200
0.39513 0.56251 0.79709 202 156 200
0.71568 0.56251 0.79709 202 156 200
0.35905 0.52314 0.38839 180 139 178
0.35905 0.52314 0.45458 180 139 178
0.75175 0.52314 0.45458 180 139 178
0.75175 0.52314 0.38839 180 139 178
0.31772 0.57184 0.38839 180 139 178
0.79309 0.57184 0.38839 180 139 178
0.354 0.60628 0.38839 180 139 178
0.75681 0.60628 0.38839 180 139 178
0.79309 0.57184 0.45458 180 139 178
0.31772 0.57184 0.45458 180 139 178
0.79309 1.12792 0.45458 180 139 178
0.79309 1.12792 0.38839 180 139 178
0.75681 1.09348 0.38839 180 139 178
0.74828 1.18531 0.38839 180 139 178
0.74828 1.18531 0.45458 180 139 178
0.36253 1.18531 0.45458 180 139 178
0.36253 1.18531 0.38839 180 139 178
0.31772 1.12792 0.38839 180 139 178
0.39298 1.12873 0.38839 180 139 178
0.354 1.09348 0.38839 180 139 178
0.31772 1.12792 0.45458 180 139 178
0.75175 0.52267 0.74817 202 156 200
0.35905 0.52267 0.74817 202 156 200
0.35905 0.52314 0.45458 197 152 195
0.35905 0.52267 0.74817 197 152 195
0.75175 0.52267 0.74817 197 152 195
0.75175 0.52314 0.45458 197 152 195
-0.36253 1.18559 0.74808 197 152 195
-0.74828 1.18559 0.74808 197 152 195
-0.74828 1.18531 0.45458 197 152 195
-0.36253 1.18531 0.45458 197 152 195
-0.31772 1.12792 0.74813 197 152 195
-0.31772 1.12792 0.45458 197 152 195
-0.31772 0.57184 0.74813 197 152 195
-0.31772 0.57184 0.45458 197 152 195
-0.79309 1.12792 0.45458 197 152 195
-0.79309 1.12792 0.74813 197 152 195
-0.79309 0.57184 0.45458 197 152 195
-0.79309 0.57184 0.74813 197 152 195
-0.74942 0.6138 0.79698 202 156 200
-0.74942 1.08596 0.79698 202 156 200
-0.36139 1.08596 0.79698 202 156 200
-0.36139 0.6138 0.79698 202 156 200
-0.79309 0.57184 0.74813 202 156 200
-0.79309 1.12792 0.74813 202 156 200
-0.31772 1.12792 0.74813 202 156 200
-0.31772 0.57184 0.74813 202 156 200
-0.36253 1.18559 0.74808 202 156 200
-0.39796 1.142 0.79688 202 156 200
-0.74828 1.18559 0.74808 202 156 200
-0.71284 1.142 0.79688 202 156 200
-0.71568 0.56251 0.79709 202 156 200
-0.39513 0.56251 0.79709 202 156 200
-0.35905 0.52314 0.38839 180 139 178
-0.75175 0.52314 0.38839 180 139 178
-0.75175 0.52314 0.45458 180 139 178
-0.35905 0.52314 0.45458 180 139 178
-0.31772 0.57184 0.38839 180 139 178
-0.31772 0.57184 0.45458 180 139 178
-0.79309 0.57184 0.45458 180 139 178
-0.79309 0.57184 0.38839 180 139 178
-0.79309 1.12792 0.38839 180 139 178
-0.79309 1.12792 0.45458 180 139 178
-0.75681 1.09348 0.38839 180 139 178
-0.71783 1.12873 0.38839 180 139 178
-0.74828 1.18531 0.38839 180 139 178
-0.36253 1.18531 0.38839 180 139 178
-0.39298 1.12873 0.38839 180 139 178
-0.75681 0.60628 0.38839 180 139 178
-0.354 0.60628 0.38839 180 139 178
-0.354 1.09348 0.38839 180 139 178
-0.31772 1.12792 0.38839 180 139 178
-0.31772 1.12792 0.45458 180 139 178
-0.36253 1.18531 0.45458 180 139 178
-0.74828 1.18531 0.45458 180 139 178
-0.35905 0.52267 0.74817 202 156 200
-0.75175 0.52267 0.74817 202 156 200
-0.35905 0.52314 0.45458 197 152 195
-0.75175 0.52314 0.45458 197 152 195
-0.75175 0.52267 0.74817 197 152 195
-0.35905 0.52267 0.74817 197 152 195
0.78923 0.63341 0.56804 138 94 143
0.78923 0.63341 0.70871 138 94 143
0.80431 0.63341 0.70871 138 94 143
0.80431 0.63341 0.56804 138 94 143
0.80431 0.80206 0.70871 138 94 143
0.78923 0.80206 0.70871 138 94 143
0.78923 0.80206 0.56804 138 94 143
0.80431 0.80206 0.56804 138 94 143
-0.78923 0.63341 0.56804 138 94 143
-0.80431 0.63341 0.56804 138 94 143
-0.80431 0.63341 0.70871 138 94 143
-0.78923 0.63341 0.70871 138 94 143
-0.80431 0.80206 0.70871 138 94 143
-0.78923 0.80206 0.70871 138 94 143
-0.78923 0.80206 0.56804 138 94 143
-0.80431 0.80206 0.56804 138 94 143
0.71783 0.09551 0.38839 180 139 178
0.71783 1.12873 0.38839 180 139 178
0.15673 -0.65009 1.28533 155 105 160
0.15673 -0.65009 1.30917 155 105 160
0.39994 -0.65009 1.30917 155 105 160
0.39994 -0.65009 1.28533 155 105 160
0.39994 -0.43635 1.30917 155 105 160
0.15673 -0.43635 1.30917 155 105 160
0.39994 -0.43635 1.28533 155 105 160
0.15673 -0.43635 1.28533 155 105 160
-0.02099 -0.84383 1.28533 155 105 160
-0.02099 -0.84383 1.30917 155 105 160
0.0997 -0.84383 1.30917 155 105 160
0.0997 -0.84383 1.28533 155 105 160
0.0997 -0.71853 1.30917 155 105 160
-0.02099 -0.71853 1.30917 155 105 160
0.0997 -0.71853 1.28533 155 105 160
-0.02099 -0.71853 1.28533 155 105 160
-0.67657 -0.40097 0.10458 205 205 212
-0.67657 -0.40097 2.90871E-07 205 205 212
-0.70432 -0.34967 2.90871E-07 205 205 212
-0.70432 -0.34967 0.10458 205 205 212
-0.43461 -0.40097 0.10458 205 205 212
-0.43461 -0.40097 2.90871E-07 205 205 212
-0.40199 -0.34967 2.90871E-07 205 205 212
-0.40199 -0.34967 0.10458 205 205 212
-0.70432 -0.34967 2.90871E-07 197 152 195
-0.75681 0.06026 2.90871E-07 197 152 195
-0.75681 -0.34967 2.90871E-07 197 152 195
-0.354 0.06026 2.90871E-07 197 152 195
-0.40199 -0.34967 2.90871E-07 197 152 195
-0.354 -0.34967 2.90871E-07 197 152 195
-0.40199 -0.34967 0.10458 197 152 195
-0.70432 -0.34967 0.10458 197 152 195
-0.75681 -0.34967 0.38839 197 152 195
-0.354 -0.34967 0.38839 197 152 195
-0.75681 0.06026 0.38839 197 152 195
-0.71783 0.09551 2.90871E-07 197 152 195
-0.71783 0.09551 0.38839 197 152 195
-0.39298 0.09551 0.38839 197 152 195
-0.39298 0.09551 2.90871E-07 197 152 195
-0.354 0.06026 0.38839 197 152 195
-0.43461 -0.40097 0.10458 215 215 222
-0.67657 -0.40097 0.10458 215 215 222
-0.70432 -0.34967 0.10458 215 215 222
-0.40199 -0.34967 0.10458 215 215 222
-0.70432 0.60628 0.10458 197 152 195
-0.75681 0.60628 3.05176E-07 197 152 195
-0.75681 0.60628 0.38839 197 152 195
-0.354 0.60628 0.38839 197 152 195
-0.40199 0.60628 0.10458 197 152 195
-0.70432 0.60628 3.05176E-07 197 152 195
-0.75681 1.09348 3.05176E-07 197 152 195
-0.354 0.60628 3.05176E-07 197 152 195
-0.40199 0.60628 3.05176E-07 197 152 195
-0.354 1.09348 3.05176E-07 197 152 195
-0.39298 1.12873 3.05176E-07 197 152 195
-0.71783 1.12873 3.05176E-07 197 152 195
-0.39298 1.12873 0.38839 197 152 195
-0.71783 1.12873 0.38839 197 152 195
-0.75681 1.09348 0.38839 197 152 195
-0.354 1.09348 0.38839 197 152 195
-0.67709 0.55497 3.05176E-07 205 205 212
-0.67709 0.55497 0.10458 205 205 212
-0.43409 0.55497 0.10458 205 205 212
-0.43409 0.55497 3.05176E-07 205 205 212
-0.70432 0.60628 3.05176E-07 205 205 212
-0.40199 0.60628 3.05176E-07 205 205 212
-0.70432 0.60628 0.10458 205 205 212
-0.40199 0.60628 0.10458 205 205 212
-0.43409 0.55497 0.10458 215 215 222
-0.67709 0.55497 0.10458 215 215 222
-0.70432 0.60628 0.10458 215 215 222
-0.40199 0.60628 0.10458 215 215 222
0.73092 -0.39494 1.3833 66 144 144
0.71063 -0.44349 1.40429 66 144 144
0.64702 -0.60936 1.52154 66 144 144
1.08428 0.20566 1.93534 66 144 144
1.11971 0.29183 1.89339 66 144 144
0.75511 -0.28233 1.15293 66 144 144
1.16484 0.51978 1.39674 66 144 144
1.14204 0.49741 1.29968 66 144 144
0.70479 -0.31761 0.88588 66 144 144
0.73855 -0.30248 1.09706 66 144 144
0.62494 -0.63039 1.42516 66 144 144
0.63347 -0.5873 1.33127 66 144 144
0.66139 -0.44629 1.02404 66 144 144
0.67007 -0.40244 0.92851 66 144 144
0.5888 -0.71573 1.45837 202 156 200
0.44702 -0.64873 1.47624 202 156 200
0.47462 -0.62244 1.59671 202 156 200
0.6164 -0.68944 1.57885 202 156 200
1.19111 0.38179 2.12273 202 156 200
1.04934 0.44878 2.1406 202 156 200
1.37297 0.72076 2.29487 202 156 200
1.2312 0.78775 2.31273 202 156 200
0.44702 -0.64873 1.47624 197 152 195
0.50344 -0.3638 0.85543 197 152 195
0.54683 -0.25776 0.80214 197 152 195
0.47462 -0.62244 1.59671 197 152 195
1.04934 0.44878 2.1406 197 152 195
1.12155 0.81347 1.34602 197 152 195
0.68861 -0.32476 0.78427 197 152 195
1.26332 0.74647 1.32816 197 152 195
1.15004 0.84142 1.46735 197 152 195
1.29182 0.77443 1.44948 197 152 195
1.12508 0.71535 1.74203 197 152 195
1.26686 0.64836 1.72417 197 152 195
1.21645 0.88567 1.82851 197 152 195
1.35823 0.81867 1.81064 197 152 195
1.20193 0.81232 1.98833 197 152 195
1.34371 0.74532 1.97046 197 152 195
1.11056 0.642 1.90185 197 152 195
1.10183 0.59793 1.99787 197 152 195
1.25233 0.57501 1.88399 197 152 195
1.24361 0.53094 1.98001 197 152 195
1.2473 0.86908 2.13554 197 152 195
1.38908 0.80209 2.11768 197 152 195
1.2312 0.78775 2.31273 197 152 195
1.37297 0.72076 2.29487 197 152 195
0.64522 -0.4308 0.83756 197 152 195
0.5888 -0.71573 1.45837 197 152 195
0.70479 -0.31761 0.88588 197 152 195
0.67007 -0.40244 0.92851 197 152 195
0.66139 -0.44629 1.02404 197 152 195
1.14204 0.49741 1.29968 197 152 195
1.16484 0.51978 1.39674 197 152 195
0.63347 -0.5873 1.33127 197 152 195
0.62494 -0.63039 1.42516 197 152 195
0.6164 -0.68944 1.57885 197 152 195
0.64702 -0.60936 1.52154 197 152 195
1.19111 0.38179 2.12273 197 152 195
1.08428 0.20566 1.93534 197 152 195
1.11971 0.29183 1.89339 197 152 195
0.71063 -0.44349 1.40429 197 152 195
0.73855 -0.30248 1.09706 197 152 195
0.75511 -0.28233 1.15293 197 152 195
0.73092 -0.39494 1.3833 197 152 195
1.11056 0.642 1.90185 202 156 200
1.20193 0.81232 1.98833 202 156 200
1.34371 0.74532 1.97046 202 156 200
1.25233 0.57501 1.88399 202 156 200
-0.73092 -0.39494 1.3833 66 144 144
-1.08428 0.20566 1.93534 66 144 144
-0.64702 -0.60936 1.52154 66 144 144
-0.71063 -0.44349 1.40429 66 144 144
-1.11971 0.29183 1.89339 66 144 144
-0.75511 -0.28233 1.15293 66 144 144
-1.16484 0.51978 1.39674 66 144 144
-1.14204 0.49741 1.29968 66 144 144
-0.70479 -0.31761 0.88588 66 144 144
-0.73855 -0.30248 1.09706 66 144 144
-0.62494 -0.63039 1.42516 66 144 144
-0.63347 -0.5873 1.33127 66 144 144
-0.66139 -0.44629 1.02404 66 144 144
-0.67007 -0.40244 0.92851 66 144 144
-0.5888 -0.71573 1.45837 202 156 200
-0.6164 -0.68944 1.57885 202 156 200
-0.47462 -0.62244 1.59671 202 156 200
-0.44702 -0.64873 1.47624 202 156 200
-1.19111 0.38179 2.12273 202 156 200
-1.04934 0.44878 2.1406 202 156 200
-1.37297 0.72076 2.29487 202 156 200
-1.2312 0.78775 2.31273 202 156 200
-0.44702 -0.64873 1.47624 197 152 195
-0.47462 -0.62244 1.59671 197 152 195
-0.54683 -0.25776 0.80214 197 152 195
-0.50344 -0.3638 0.85543 197 152 195
-1.04934 0.44878 2.1406 197 152 195
-1.12155 0.81347 1.34602 197 152 195
-0.68861 -0.32476 0.78427 197 152 195
-1.26332 0.74647 1.32816 197 152 195
-1.15004 0.84142 1.46735 197 152 195
-1.29182 0.77443 1.44948 197 152 195
-1.12508 0.71535 1.74203 197 152 195
-1.26686 0.64836 1.72417 197 152 195
-1.21645 0.88567 1.82851 197 152 195
-1.35823 0.81867 1.81064 197 152 195
-1.20193 0.81232 1.98833 197 152 195
-1.34371 0.74532 1.97046 197 152 195
-1.11056 0.642 1.90185 197 152 195
-1.10183 0.59793 1.99787 197 152 195
-1.25233 0.57501 1.88399 197 152 195
-1.24361 0.53094 1.98001 197 152 195
-1.2473 0.86908 2.13554 197 152 195
-1.38908 0.80209 2.11768 197 152 195
-1.2312 0.78775 2.31273 197 152 195
-1.37297 0.72076 2.29487 197 152 195
-0.64522 -0.4308 0.83756 197 152 195
-0.5888 -0.71573 1.45837 197 152 195
-0.70479 -0.31761 0.88588 197 152 195
-0.67007 -0.40244 0.92851 197 152 195
-0.66139 -0.44629 1.02404 197 152 195
-1.14204 0.49741 1.29968 197 152 195
-1.16484 0.51978 1.39674 197 152 195
-0.63347 -0.5873 1.33127 197 152 195
-0.62494 -0.63039 1.42516 197 152 195
-0.6164 -0.68944 1.57885 197 152 195
-0.64702 -0.60936 1.52154 197 152 195
-1.19111 0.38179 2.12273 197 152 195
-1.08428 0.20566 1.93534 197 152 195
-1.11971 0.29183 1.89339 197 152 195
-0.71063 -0.44349 1.40429 197 152 195
-0.73855 -0.30248 1.09706 197 152 195
-0.75511 -0.28233 1.15293 197 152 195
-0.73092 -0.39494 1.3833 197 152 195
-1.11056 0.642 1.90185 202 156 200
-1.25233 0.57501 1.88399 202 156 200
-1.34371 0.74532 1.97046 202 156 200
-1.20193 0.81232 1.98833 202 156 200
0.311 -1.09272 0.37462 187 136 156
0.311 -1.09272 0.48393 187 136 156
0.311 -0.95356 0.48393 187 136 156
0.311 -0.95356 0.37462 187 136 156
-0.311 -1.09272 0.37462 187 136 156
-0.311 -1.09272 0.48393 187 136 156
-0.311 -0.95356 0.48393 187 136 156
-0.311 -0.95356 0.37462 187 136 156
0.26964 -0.94562 0.81208 255 255 255
0.26964 -0.94562 0.9067 255 255 255
0.32575 -0.94562 0.9067 255 255 255
0.32575 -0.94562 0.81208 255 255 255
0.39291 -0.94562 0.81213 53 45 38
0.39291 -0.94562 0.97048 53 45 38
0.39291 -0.92378 0.97048 53 45 38
0.39291 -0.92378 0.81207 53 45 38
0.32575 -0.94562 0.81208 53 45 38
0.32575 -0.94562 0.9067 53 45 38
0.26964 -0.94562 0.9067 53 45 38
0.1683 -0.94562 0.97048 53 45 38
0.39291 -0.94562 0.77023 53 45 38
0.39291 -0.92378 0.77023 53 45 38
0.26964 -0.94562 0.81208 53 45 38
0.1683 -0.94562 0.81209 53 45 38
0.1683 -0.94562 0.77023 111 94 75
0.26964 -0.94562 0.81208 111 94 75
0.32575 -0.94562 0.81208 111 94 75
0.39291 -0.94562 0.77023 111 94 75
0.1683 -0.94562 0.81209 111 94 75
0.39291 -0.94562 0.81213 111 94 75
0.27295 -1.12874 0.52307 255 255 255
0.27295 -1.12874 0.61556 255 255 255
0.36452 -1.12874 0.61556 255 255 255
0.36452 -1.12874 0.52307 255 255 255
0.27295 -1.03626 0.52307 255 255 255
0.36452 -1.03626 0.52307 255 255 255
0.36452 -1.03626 0.61556 255 255 255
0.27295 -1.03626 0.61556 255 255 255
0.56742 -0.96271 1.22165 197 152 195
0.56742 -0.96271 0.77609 197 152 195
0.51458 -0.89838 1.29517 197 152 195
0.12626 -0.89838 1.29517 197 152 195
0.12626 -0.96271 1.22165 197 152 195
0.51544 -0.96271 1.00919 197 152 195
0.51549 -0.96271 0.77609 197 152 195
0.12626 -0.96271 0.998 197 152 195
0.09241 -1.36462 1.47236 197 152 195
0.09241 -1.43469 1.30375 197 152 195
-0.09241 -1.43469 1.30375 197 152 195
-0.12626 -0.96271 0.998 197 152 195
-0.15329 -0.96271 0.83654 197 152 195
0.15329 -0.96271 0.83654 197 152 195
0.15334 -0.96271 0.89891 197 152 195
-0.15334 -0.96271 0.89891 197 152 195
0.07701 -1.39961 1.47043 197 152 195
0.07701 -1.458 1.32991 197 152 195
-0.07701 -1.39961 1.47043 197 152 195
-0.07701 -1.458 1.32991 197 152 195
0.1778 -0.96271 0.89891 197 152 195
0.17757 -0.96271 0.77609 197 152 195
-0.09241 -1.36462 1.47236 197 152 195
-0.12626 -0.96271 1.22165 197 152 195
-0.56742 -0.96271 1.22165 197 152 195
-0.12626 -0.89838 1.29517 197 152 195
-0.51458 -0.89838 1.29517 197 152 195
-0.56742 -0.96271 0.77609 197 152 195
-0.51544 -0.96271 1.00919 197 152 195
-0.51549 -0.96271 0.77609 197 152 195
-0.51544 -0.92986 1.00919 197 152 195
-0.51549 -0.92986 0.77609 197 152 195
-0.1778 -0.96271 0.89891 197 152 195
-0.17757 -0.96271 0.77609 197 152 195
-0.17682 -0.92986 0.77609 197 152 195
-0.64322 -1.0646 0.73452 197 152 195
-0.64322 -1.0646 0.33946 197 152 195
-0.56089 -1.14191 0.33946 197 152 195
-0.50736 -1.06272 0.28299 197 152 195
0.50736 -1.06272 0.28299 197 152 195
0.56089 -1.14191 0.33946 197 152 195
0.64322 -1.0646 0.33946 197 152 195
0.64322 -1.0646 0.73452 197 152 195
0.56089 -1.14191 0.73452 197 152 195
0.50895 -1.07339 0.77609 197 152 195
0.15363 -1.14191 0.73452 197 152 195
0.15363 -1.07339 0.77609 197 152 195
0.56748 -1.04141 0.77609 197 152 195
0.15363 -1.14191 0.61249 197 152 195
0.416 -1.14191 0.61249 197 152 195
0.416 -1.14191 0.38417 197 152 195
0.15363 -1.20707 0.80776 197 152 195
0.15363 -1.20707 0.5993 197 152 195
0.09228 -1.20707 0.65976 197 152 195
0.09228 -1.20707 0.60966 197 152 195
0.15363 -1.18295 0.57045 197 152 195
0.15363 -1.14191 0.57045 197 152 195
0 -1.20707 0.5993 197 152 195
-0.15363 -1.18295 0.57045 197 152 195
-0.15363 -1.14191 0.57045 197 152 195
0 -1.20707 0.80776 197 152 195
0.06579 -1.20707 0.65976 197 152 195
-0.06579 -1.20707 0.65976 197 152 195
-0.15363 -1.20707 0.80776 197 152 195
-0.09228 -1.20707 0.65976 197 152 195
-0.15363 -1.20707 0.5993 197 152 195
-0.09228 -1.20707 0.60966 197 152 195
-0.06579 -1.20707 0.60966 197 152 195
0.06579 -1.20707 0.60966 197 152 195
0.416 -0.95641 0.38417 149 98 113
-0.416 -0.95641 0.38417 149 98 113
-0.416 -0.95641 0.61249 149 98 113
0.416 -0.95641 0.61249 149 98 113
0.416 -1.14191 0.38417 149 98 113
0.416 -1.14191 0.61249 149 98 113
0.15363 -1.14191 0.61249 149 98 113
-0.416 -1.14191 0.38417 149 98 113
-0.15363 -1.14191 0.61249 149 98 113
-0.416 -1.14191 0.61249 149 98 113
0.50895 -1.07339 0.77609 202 156 200
0.17757 -0.96271 0.77609 202 156 200
0.51549 -0.96271 0.77609 202 156 200
0.15363 -1.07339 0.77609 202 156 200
0.15327 -0.96271 0.77609 202 156 200
0.51549 -0.92986 0.77609 255 255 255
0.17682 -0.92986 0.77609 255 255 255
0.51544 -0.92986 1.00919 255 255 255
0.51549 -0.92986 0.77609 197 152 195
0.51544 -0.92986 1.00919 197 152 195
0.17682 -0.92986 0.77609 197 152 195
0 -1.20707 0.80776 202 156 200
-0.15363 -1.20707 0.80776 202 156 200
-0.15329 -1.17753 0.83654 202 156 200
0.15329 -1.17753 0.83654 202 156 200
0.15363 -1.20707 0.80776 202 156 200
-0.15329 -0.96271 0.83654 202 156 200
0.15329 -0.96271 0.83654 202 156 200
0.15329 -1.17753 0.83654 197 152 195
0.15327 -0.96271 0.77609 197 152 195
0.09241 -1.36462 1.47236 202 156 200
-0.09241 -1.36462 1.47236 202 156 200
-0.12626 -0.89838 1.29517 202 156 200
0.12626 -0.89838 1.29517 202 156 200
-0.416 -1.14191 0.38417 197 152 195
-0.416 -1.14191 0.61249 197 152 195
-0.56089 -1.14191 0.73452 197 152 195
-0.50895 -1.07339 0.77609 197 152 195
-0.15363 -1.14191 0.73452 197 152 195
-0.15363 -1.07339 0.77609 197 152 195
-0.56748 -1.04141 0.77609 197 152 195
-0.15363 -1.14191 0.61249 197 152 195
-0.15329 -1.17753 0.83654 197 152 195
0.56742 -0.96271 0.77609 202 156 200
0.56748 -1.04141 0.77609 202 156 200
0.17757 -0.96271 0.77609 186 143 184
0.15329 -0.96271 0.83654 186 143 184
0.1778 -0.96271 0.89891 186 143 184
0.15334 -0.96271 0.89891 186 143 184
0.15327 -0.96271 0.77609 186 143 184
0.51458 -0.89838 1.29517 202 156 200
-0.51458 -0.89838 1.29517 202 156 200
0.09228 -1.18953 0.65976 167 120 169
0.09228 -1.18953 0.60966 167 120 169
0.06579 -1.18953 0.60966 167 120 169
0.06579 -1.18953 0.65976 167 120 169
0.09228 -1.20707 0.65976 167 120 169
0.06579 -1.20707 0.65976 167 120 169
0.06579 -1.20707 0.60966 167 120 169
0.09228 -1.20707 0.60966 167 120 169
0.07701 -1.39961 1.47043 202 156 200
-0.07701 -1.39961 1.47043 202 156 200
-0.26964 -0.94562 0.81208 255 255 255
-0.32575 -0.94562 0.81208 255 255 255
-0.32575 -0.94562 0.9067 255 255 255
-0.26964 -0.94562 0.9067 255 255 255
-0.39291 -0.94562 0.81213 53 45 38
-0.39291 -0.92378 0.81207 53 45 38
-0.39291 -0.92378 0.97048 53 45 38
-0.39291 -0.94562 0.97048 53 45 38
-0.32575 -0.94562 0.81208 53 45 38
-0.32575 -0.94562 0.9067 53 45 38
-0.26964 -0.94562 0.9067 53 45 38
-0.1683 -0.94562 0.97048 53 45 38
-0.39291 -0.94562 0.77023 53 45 38
-0.39291 -0.92378 0.77023 53 45 38
-0.26964 -0.94562 0.81208 53 45 38
-0.1683 -0.94562 0.81209 53 45 38
-0.1683 -0.94562 0.77023 111 94 75
-0.39291 -0.94562 0.77023 111 94 75
-0.32575 -0.94562 0.81208 111 94 75
-0.26964 -0.94562 0.81208 111 94 75
-0.1683 -0.94562 0.81209 111 94 75
-0.39291 -0.94562 0.81213 111 94 75
-0.27295 -1.12874 0.52307 255 255 255
-0.36452 -1.12874 0.52307 255 255 255
-0.36452 -1.12874 0.61556 255 255 255
-0.27295 -1.12874 0.61556 255 255 255
-0.27295 -1.03626 0.52307 255 255 255
-0.36452 -1.03626 0.52307 255 255 255
-0.36452 -1.03626 0.61556 255 255 255
-0.27295 -1.03626 0.61556 255 255 255
-0.17757 -0.96271 0.77609 202 156 200
-0.15327 -0.96271 0.77609 202 156 200
-0.15363 -1.07339 0.77609 202 156 200
-0.50895 -1.07339 0.77609 202 156 200
-0.51549 -0.96271 0.77609 202 156 200
-0.51549 -0.92986 0.77609 255 255 255
-0.51544 -0.92986 1.00919 255 255 255
-0.17682 -0.92986 0.77609 255 255 255
-0.15327 -0.96271 0.77609 197 152 195
-0.56742 -0.96271 0.77609 202 156 200
-0.56748 -1.04141 0.77609 202 156 200
-0.17757 -0.96271 0.77609 186 143 184
-0.1778 -0.96271 0.89891 186 143 184
-0.15329 -0.96271 0.83654 186 143 184
-0.15334 -0.96271 0.89891 186 143 184
-0.15327 -0.96271 0.77609 186 143 184
-0.09228 -1.18953 0.65976 167 120 169
-0.06579 -1.18953 0.65976 167 120 169
-0.06579 -1.18953 0.60966 167 120 169
-0.09228 -1.18953 0.60966 167 120 169
-0.09228 -1.20707 0.65976 167 120 169
-0.06579 -1.20707 0.65976 167 120 169
-0.06579 -1.20707 0.60966 167 120 169
-0.09228 -1.20707 0.60966 167 120 169
3 0 2 1
3 0 3 2
3 3 0 4
3 3 4 5
3 5 2 3
3 5 6 2
3 7 5 4
3 7 6 5
3 8 10 9
3 11 10 8
3 11 8 12
3 11 12 13
3 13 12 14
3 15 8 9
3 15 9 16
3 17 15 16
3 17 14 15
3 13 14 17
3 11 13 17
3 11 17 18
3 11 18 19
3 11 19 20
3 19 21 20
3 19 22 21
3 23 21 22
3 23 10 21
3 10 20 21
3 10 11 20
3 10 23 16
3 10 16 9
3 24 26 25
3 24 27 26
3 28 30 29
3 31 29 30
3 32 31 30
3 30 28 32
3 31 33 29
3 34 28 29
3 34 35 28
3 36 35 34
3 36 37 35
3 38 32 37
3 38 36 34
3 38 34 39
3 38 39 40
3 38 40 41
3 40 42 41
3 40 43 42
3 33 42 43
3 33 31 42
3 31 41 42
3 31 38 41
3 38 31 32
3 38 37 36
3 44 46 45
3 44 47 46
3 45 48 44
3 48 47 44
3 45 49 48
3 48 50 47
3 51 45 46
3 51 49 45
3 52 54 53
3 52 55 54
3 56 58 57
3 56 59 58
3 59 60 58
3 59 61 60
3 62 56 57
3 62 57 63
3 57 58 64
3 57 64 65
3 58 66 64
3 58 60 66
3 63 57 65
3 63 65 67
3 60 63 67
3 63 60 61
3 63 61 62
3 60 67 66
3 68 70 69
3 68 71 70
3 72 74 73
3 72 75 74
3 75 76 74
3 75 77 76
3 78 72 73
3 78 73 79
3 80 82 81
3 80 83 82
3 84 83 80
3 84 85 83
3 85 82 83
3 85 86 82
3 87 84 80
3 87 80 81
3 86 87 81
3 86 81 82
3 79 77 78
3 79 76 77
3 88 90 89
3 88 91 90
3 91 92 90
3 91 93 92
3 94 88 89
3 94 89 95
3 89 90 96
3 89 96 97
3 90 98 96
3 90 92 98
3 95 89 97
3 95 97 99
3 92 95 99
3 95 92 93
3 95 93 94
3 92 99 98
3 100 102 101
3 100 103 102
3 104 106 105
3 104 107 106
3 107 108 106
3 107 109 108
3 110 104 105
3 110 105 111
3 105 106 112
3 105 112 113
3 106 114 112
3 106 108 114
3 111 105 113
3 111 113 115
3 108 111 115
3 111 108 109
3 111 109 110
3 108 115 114
3 116 118 117
3 116 119 118
3 120 122 121
3 120 123 122
3 121 122 124
3 121 124 125
3 126 128 127
3 126 129 128
3 130 128 129
3 130 131 128
3 131 127 128
3 132 131 130
3 132 133 131
3 134 131 133
3 131 134 127
3 134 126 127
3 134 133 135
3 135 136 134
3 134 136 126
3 135 137 136
3 138 140 139
3 138 141 140
3 139 140 142
3 141 142 140
3 139 142 143
3 144 141 138
3 144 145 141
3 141 145 142
3 143 145 144
3 143 142 145
3 146 148 147
3 146 149 148
3 147 148 150
3 149 150 148
3 147 150 151
3 152 149 146
3 152 153 149
3 149 153 150
3 151 153 152
3 151 150 153
3 154 156 155
3 154 157 156
3 157 158 156
3 155 156 158
3 157 159 158
3 160 154 155
3 160 155 161
3 155 158 161
3 159 161 158
3 159 160 161
3 162 164 163
3 162 165 164
3 165 166 164
3 163 164 166
3 165 167 166
3 168 162 163
3 168 163 169
3 163 166 169
3 167 169 166
3 167 168 169
3 170 172 171
3 170 173 172
3 174 173 170
3 174 175 173
3 176 172 173
3 176 177 172
3 173 178 176
3 173 175 178
3 175 179 178
3 180 178 179
3 176 178 180
3 180 179 181
3 179 182 181
3 179 183 182
3 175 183 179
3 184 181 182
3 184 180 181
3 185 180 184
3 185 186 180
3 176 180 186
3 186 185 187
3 188 187 185
3 188 189 187
3 186 187 190
3 176 190 177
3 176 186 190
3 191 185 184
3 191 188 185
3 182 183 192
3 182 192 193
3 194 196 195
3 194 197 196
3 198 197 194
3 198 199 197
3 200 202 201
3 200 203 202
3 204 202 203
3 204 205 202
3 206 205 204
3 206 204 207
3 208 200 201
3 208 209 200
3 208 210 209
3 208 211 210
3 212 214 213
3 212 215 214
3 215 212 216
3 215 216 217
3 213 214 218
3 213 218 219
3 214 215 220
3 214 220 221
3 218 214 221
3 221 220 222
3 215 222 220
3 215 217 222
3 221 222 223
3 218 221 223
3 212 213 224
3 212 224 225
3 226 228 227
3 226 229 228
3 230 229 226
3 230 231 229
3 231 228 229
3 232 231 230
3 232 233 231
3 231 234 228
3 235 226 227
3 235 230 226
3 231 236 234
3 231 237 236
3 233 237 231
3 233 238 237
3 236 237 239
3 236 239 240
3 241 240 239
3 241 239 242
3 243 241 242
3 242 244 243
3 244 245 243
3 245 230 243
3 243 230 235
3 243 235 246
3 243 246 241
3 245 232 230
3 225 248 247
3 225 224 248
3 213 248 224
3 213 219 248
3 216 225 247
3 216 212 225
3 249 251 250
3 249 252 251
3 206 251 252
3 206 207 251
3 210 249 250
3 210 211 249
3 253 255 254
3 253 256 255
3 257 256 253
3 257 258 256
3 258 257 259
3 258 259 260
3 261 254 255
3 261 262 254
3 263 262 261
3 263 264 262
3 265 267 266
3 265 268 267
3 266 269 265
3 266 270 269
3 268 271 267
3 268 272 271
3 267 271 273
3 267 273 274
3 266 267 274
3 274 273 275
3 274 275 276
3 270 276 275
3 270 266 276
3 266 274 276
3 268 265 277
3 268 277 278
3 279 281 280
3 279 282 281
3 283 282 279
3 283 284 282
3 285 280 281
3 285 286 280
3 286 279 280
3 286 283 279
3 286 288 287
3 286 285 288
3 289 287 290
3 291 290 287
3 292 290 291
3 292 293 290
3 294 287 289
3 294 286 287
3 295 286 294
3 295 283 286
3 296 283 295
3 296 297 283
3 297 284 283
3 297 298 284
3 298 297 292
3 298 292 299
3 299 292 291
3 299 291 300
3 297 293 292
3 296 293 297
3 287 300 291
3 287 288 300
3 277 301 278
3 277 302 301
3 265 302 277
3 265 269 302
3 272 278 301
3 272 268 278
3 303 305 304
3 303 306 305
3 260 306 303
3 260 259 306
3 264 304 305
3 264 263 304
3 307 309 308
3 307 310 309
3 311 309 310
3 311 312 309
3 313 312 311
3 313 311 314
3 315 307 308
3 315 316 307
3 315 317 316
3 315 318 317
3 319 321 320
3 319 322 321
3 322 319 323
3 322 323 324
3 320 321 325
3 320 325 326
3 321 322 327
3 321 327 328
3 325 321 328
3 328 327 329
3 322 329 327
3 322 324 329
3 328 329 330
3 325 328 330
3 319 320 331
3 319 331 332
3 333 335 334
3 333 336 335
3 337 336 333
3 337 338 336
3 338 335 336
3 339 338 337
3 339 340 338
3 338 341 335
3 342 333 334
3 342 337 333
3 338 343 341
3 338 344 343
3 340 344 338
3 340 345 344
3 343 344 346
3 343 346 347
3 348 347 346
3 348 346 349
3 350 348 349
3 349 351 350
3 351 352 350
3 352 337 350
3 350 337 342
3 350 342 353
3 350 353 348
3 352 339 337
3 332 355 354
3 332 331 355
3 320 355 331
3 320 326 355
3 323 332 354
3 323 319 332
3 356 358 357
3 356 359 358
3 313 358 359
3 313 314 358
3 317 356 357
3 317 318 356
3 360 362 361
3 360 363 362
3 364 363 360
3 364 365 363
3 365 364 366
3 365 366 367
3 368 361 362
3 368 369 361
3 370 369 368
3 370 371 369
3 372 374 373
3 372 375 374
3 373 376 372
3 373 377 376
3 375 378 374
3 375 379 378
3 374 378 380
3 374 380 381
3 373 374 381
3 381 380 382
3 381 382 383
3 377 383 382
3 377 373 383
3 373 381 383
3 375 372 384
3 375 384 385
3 386 388 387
3 386 389 388
3 390 389 386
3 390 391 389
3 392 387 388
3 392 393 387
3 393 386 387
3 393 390 386
3 393 395 394
3 393 392 395
3 396 394 397
3 398 397 394
3 399 397 398
3 399 400 397
3 401 394 396
3 401 393 394
3 402 393 401
3 402 390 393
3 403 390 402
3 403 404 390
3 404 391 390
3 404 405 391
3 405 404 399
3 405 399 406
3 406 399 398
3 406 398 407
3 394 407 398
3 394 395 407
3 404 400 399
3 403 400 404
3 384 408 385
3 384 409 408
3 372 409 384
3 372 376 409
3 379 385 408
3 379 375 385
3 410 412 411
3 410 413 412
3 367 413 410
3 367 366 413
3 371 411 412
3 371 370 411
3 414 416 415
3 414 417 416
3 415 416 418
3 417 418 416
3 415 418 419
3 420 417 414
3 420 421 417
3 417 421 418
3 419 421 420
3 419 418 421
3 422 424 423
3 422 425 424
3 425 426 424
3 423 424 426
3 425 427 426
3 428 422 423
3 428 423 429
3 423 426 429
3 427 429 426
3 427 428 429
3 237 430 239
3 239 430 244
3 239 244 242
3 238 430 237
3 344 431 346
3 345 431 344
3 346 431 351
3 346 351 349
3 432 434 433
3 432 435 434
3 433 434 436
3 435 436 434
3 433 436 437
3 435 438 436
3 439 433 437
3 439 432 433
3 437 438 439
3 437 436 438
3 440 442 441
3 440 443 442
3 441 442 444
3 443 444 442
3 441 444 445
3 443 446 444
3 447 441 445
3 447 440 441
3 445 446 447
3 445 444 446
3 448 450 449
3 448 451 450
3 449 452 448
3 449 453 452
3 453 449 450
3 453 450 454
3 455 453 454
3 455 452 453
3 456 458 457
3 459 456 457
3 459 460 456
3 459 461 460
3 461 462 460
3 463 458 456
3 463 464 458
3 465 463 462
3 465 464 463
3 461 465 462
3 457 464 466
3 457 458 464
3 466 467 457
3 466 468 467
3 469 467 468
3 469 470 467
3 457 467 470
3 457 470 459
3 459 470 469
3 459 469 471
3 459 471 465
3 459 465 461
3 472 474 473
3 472 475 474
3 476 478 477
3 479 478 476
3 479 476 480
3 477 481 476
3 481 477 482
3 483 479 480
3 483 480 484
3 485 484 481
3 485 481 482
3 482 486 485
3 482 487 486
3 488 486 487
3 485 486 488
3 488 487 489
3 490 487 482
3 490 489 487
3 482 478 490
3 482 477 478
3 485 488 491
3 485 491 479
3 485 479 483
3 485 483 484
3 492 494 493
3 492 495 494
3 495 492 496
3 496 492 493
3 495 496 497
3 496 493 498
3 499 495 497
3 499 494 495
3 500 502 501
3 500 503 502
3 504 506 505
3 504 507 506
3 507 504 508
3 508 504 509
3 508 509 510
3 510 509 511
3 512 511 509
3 512 509 513
3 505 506 514
3 505 514 515
3 512 513 516
3 512 516 517
3 518 520 519
3 518 521 520
3 520 521 522
3 520 522 523
3 523 522 524
3 523 524 525
3 526 528 527
3 526 529 528
3 528 529 530
3 528 530 531
3 532 528 531
3 532 531 533
3 533 531 534
3 533 534 535
3 535 534 536
3 531 536 534
3 535 536 537
3 537 536 538
3 537 538 539
3 539 538 540
3 536 540 538
3 539 540 541
3 536 542 540
3 531 542 536
3 531 530 542
3 542 530 543
3 544 542 543
3 544 543 545
3 545 543 546
3 545 546 547
3 548 547 546
3 543 548 546
3 548 549 547
3 543 530 548
3 527 532 550
3 527 528 532
3 527 550 551
3 527 551 526
3 550 532 552
3 550 552 553
3 554 550 553
3 551 550 554
3 532 555 552
3 532 533 555
3 533 556 555
3 533 535 556
3 535 537 556
3 551 554 557
3 551 557 558
3 559 551 558
3 559 558 560
3 561 559 560
3 561 560 562
3 545 561 562
3 545 562 563
3 561 545 547
3 561 547 549
3 563 544 545
3 556 544 563
3 556 537 544
3 544 537 539
3 544 539 541
3 554 564 557
3 554 565 564
3 564 565 566
3 564 566 567
3 568 570 569
3 568 571 570
3 572 574 573
3 572 575 574
3 573 576 572
3 576 577 572
3 576 578 577
3 578 579 577
3 580 577 579
3 580 581 577
3 575 582 574
3 575 583 582
3 580 584 581
3 580 585 584
3 586 588 587
3 586 589 588
3 588 590 587
3 588 591 590
3 591 592 590
3 591 593 592
3 594 596 595
3 594 597 596
3 596 598 595
3 596 599 598
3 600 599 596
3 600 601 599
3 601 602 599
3 601 603 602
3 603 604 602
3 599 602 604
3 603 605 604
3 605 606 604
3 605 607 606
3 607 608 606
3 604 606 608
3 607 609 608
3 604 608 610
3 599 610 598
3 599 604 610
3 610 611 598
3 612 611 610
3 612 613 611
3 613 614 611
3 613 615 614
3 616 614 615
3 611 614 616
3 616 615 617
3 611 616 598
3 597 600 596
3 597 618 600
3 597 619 618
3 597 594 619
3 618 620 600
3 618 621 620
3 622 621 618
3 619 622 618
3 600 620 623
3 600 623 601
3 601 623 624
3 601 624 603
3 603 624 605
3 619 625 622
3 619 626 625
3 627 626 619
3 627 628 626
3 629 628 627
3 629 630 628
3 613 630 629
3 613 631 630
3 629 615 613
3 629 617 615
3 631 613 612
3 624 612 605
3 624 631 612
3 612 607 605
3 612 609 607
3 622 625 632
3 622 632 633
3 632 634 633
3 632 635 634
3 636 638 637
3 636 639 638
3 640 642 641
3 640 643 642
3 641 644 640
3 641 645 644
3 642 645 641
3 644 645 646
3 642 646 645
3 644 646 647
3 648 650 649
3 648 651 650
3 652 654 653
3 652 655 654
3 656 652 653
3 656 653 657
3 653 658 657
3 653 659 658
3 660 655 652
3 660 661 655
3 659 662 658
3 659 663 662
3 664 666 665
3 664 667 666
3 665 668 664
3 667 669 666
3 670 672 671
3 670 673 672
3 674 673 670
3 674 670 671
3 674 675 673
3 673 676 672
3 673 675 676
3 674 671 677
3 677 675 674
3 677 676 675
3 678 174 170
3 678 679 174
3 678 170 171
3 678 171 680
3 681 678 680
3 681 682 678
3 679 678 683
3 679 683 684
3 685 678 682
3 683 678 685
3 682 681 686
3 685 682 686
3 685 686 687
3 685 687 688
3 685 688 689
3 690 685 689
3 691 685 690
3 685 691 692
3 690 689 693
3 687 686 694
3 687 694 695
3 695 688 687
3 695 694 696
3 695 696 697
3 688 697 696
3 695 697 688
3 698 685 692
3 683 685 698
3 683 698 699
3 689 688 700
3 688 696 700
3 689 700 701
3 689 701 702
3 703 702 701
3 701 700 703
3 703 704 702
3 702 704 189
3 702 189 188
3 702 188 191
3 702 191 705
3 705 706 702
3 705 707 706
3 707 708 706
3 707 709 708
3 706 689 702
3 706 710 689
3 710 693 689
3 706 711 710
3 712 709 707
3 712 707 711
3 191 714 713
3 713 714 715
3 714 716 715
3 717 715 716
3 717 718 715
3 719 718 717
3 719 717 192
3 720 718 719
3 720 721 718
3 720 722 721
3 722 723 721
3 722 724 723
3 720 725 722
3 174 720 719
3 721 723 726
3 721 726 727
3 718 721 727
3 718 727 728
3 726 723 729
3 726 729 730
3 730 729 731
3 730 731 732
3 726 730 733
3 726 733 734
3 733 730 735
3 734 733 736
3 733 735 736
3 734 736 737
3 738 731 729
3 738 739 731
3 740 739 738
3 740 738 741
3 740 741 742
3 743 742 741
3 736 735 743
3 743 744 742
3 735 744 743
3 745 739 740
3 735 745 744
3 745 746 739
3 735 746 745
3 730 746 735
3 730 732 746
3 747 749 748
3 747 750 749
3 751 750 747
3 751 747 748
3 751 752 750
3 750 752 753
3 751 748 754
3 754 748 749
3 750 755 749
3 750 753 755
3 749 755 756
3 754 749 756
3 757 759 758
3 757 758 760
3 760 758 761
3 174 725 720
3 174 679 725
3 762 764 763
3 684 766 765
3 684 683 766
3 767 684 765
3 767 699 684
3 683 767 766
3 683 699 767
3 768 770 769
3 768 771 770
3 772 771 768
3 771 773 770
3 771 774 773
3 775 776 691
3 775 724 776
3 723 775 729
3 723 724 775
3 777 779 778
3 777 780 779
3 183 719 192
3 183 175 719
3 174 719 175
3 717 193 192
3 717 716 193
3 714 193 716
3 182 193 714
3 182 714 184
3 191 184 714
3 718 781 715
3 718 728 781
3 715 781 782
3 715 782 783
3 713 715 783
3 713 783 784
3 784 783 785
3 784 785 786
3 713 784 787
3 783 788 785
3 783 782 788
3 785 789 786
3 785 741 789
3 788 741 785
3 788 743 741
3 788 736 743
3 788 737 736
3 726 737 788
3 726 734 737
3 790 757 791
3 790 759 757
3 792 794 793
3 793 794 795
3 792 793 796
3 780 198 779
3 780 199 198
3 780 797 199
3 779 198 798
3 799 801 800
3 799 802 801
3 803 802 799
3 803 804 802
3 804 801 802
3 804 805 801
3 805 800 801
3 805 806 800
3 806 799 800
3 806 803 799
3 807 778 808
3 807 777 778
3 809 811 810
3 809 812 811
3 813 815 814
3 813 816 815
3 817 816 813
3 817 818 816
3 816 818 819
3 816 819 820
3 821 813 814
3 821 814 822
3 820 819 823
3 820 823 824
3 825 827 826
3 825 828 827
3 828 825 829
3 826 827 830
3 831 833 832
3 831 834 833
3 835 831 832
3 835 834 831
3 835 832 836
3 832 837 836
3 832 833 837
3 835 838 834
3 838 836 837
3 838 835 836
3 839 841 840
3 842 841 839
3 842 839 843
3 191 787 705
3 191 713 787
3 844 846 845
3 789 847 786
3 789 690 847
3 848 842 843
3 848 849 842
3 850 852 851
3 852 853 851
3 850 854 852
3 855 857 856
3 855 858 857
3 859 855 856
3 859 856 860
3 860 856 857
3 860 857 861
3 861 857 858
3 861 858 862
3 862 855 859
3 862 858 855
3 706 712 711
3 706 708 712
