ply
format ascii 1.0
element vertex 835
property float x
property float y
property float z
property uchar red
property uchar green
property uchar blue
element face 1026
property list uchar int vertex_index
end_header
0.67657 -0.40097 0.10458 209 205 212
0.70432 -0.34967 0.10458 209 205 212
0.70432 -0.34967 2.90871E-07 209 205 212
0.67657 -0.40097 2.90871E-07 209 205 212
0.43461 -0.40097 0.10458 209 205 212
0.43461 -0.40097 2.90871E-07 209 205 212
0.40199 -0.34967 2.90871E-07 209 205 212
0.40199 -0.34967 0.10458 209 205 212
0.70432 -0.34967 2.90871E-07 149 153 199
0.75681 -0.34967 2.90871E-07 149 153 199
0.75681 0.06026 2.90871E-07 149 153 199
0.354 0.06026 2.90871E-07 149 153 199
0.40199 -0.34967 2.90871E-07 149 153 199
0.354 -0.34967 2.90871E-07 149 153 199
0.40199 -0.34967 0.10458 149 153 199
0.70432 -0.34967 0.10458 149 153 199
0.75681 -0.34967 0.38839 149 153 199
0.354 -0.34967 0.38839 149 153 199
0.354 0.06026 0.38839 149 153 199
0.39298 0.09551 0.38839 149 153 199
0.39298 0.09551 2.90871E-07 149 153 199
0.71783 0.09551 2.90871E-07 149 153 199
0.71783 0.09551 0.38839 149 153 199
0.75681 0.06026 0.38839 149 153 199
0.43461 -0.40097 0.10458 225 220 228
0.40199 -0.34967 0.10458 225 220 228
0.70432 -0.34967 0.10458 225 220 228
0.67657 -0.40097 0.10458 225 220 228
0.70432 0.60628 0.10458 149 153 199
0.75681 0.60628 0.38839 149 153 199
0.75681 0.60628 3.05176E-07 149 153 199
0.75681 1.09348 3.05176E-07 149 153 199
0.70432 0.60628 3.05176E-07 149 153 199
0.75681 1.09348 0.38839 149 153 199
0.354 0.60628 0.38839 149 153 199
0.40199 0.60628 0.10458 149 153 199
0.354 0.60628 3.05176E-07 149 153 199
0.40199 0.60628 3.05176E-07 149 153 199
0.354 1.09348 3.05176E-07 149 153 199
0.354 1.09348 0.38839 149 153 199
0.39298 1.12873 0.38839 149 153 199
0.39298 1.12873 3.05176E-07 149 153 199
0.71783 1.12873 3.05176E-07 149 153 199
0.71783 1.12873 0.38839 149 153 199
0.67709 0.55497 3.05176E-07 209 205 212
0.43409 0.55497 3.05176E-07 209 205 212
0.43409 0.55497 0.10458 209 205 212
0.67709 0.55497 0.10458 209 205 212
0.70432 0.60628 3.05176E-07 209 205 212
0.40199 0.60628 3.05176E-07 209 205 212
0.70432 0.60628 0.10458 209 205 212
0.40199 0.60628 0.10458 209 205 212
0.43409 0.55497 0.10458 225 220 228
0.40199 0.60628 0.10458 225 220 228
0.70432 0.60628 0.10458 225 220 228
0.67709 0.55497 0.10458 225 220 228
-0.10521 -0.32337 1.28257 149 153 199
-0.0751 -0.28435 1.85816 149 153 199
0.0751 -0.28435 1.85816 149 153 199
0.10521 -0.32337 1.28257 149 153 199
0.0751 -0.15199 1.85816 149 153 199
0.10521 -0.11296 1.28257 149 153 199
-0.10521 -0.11296 1.28257 149 153 199
-0.0751 -0.15199 1.85816 149 153 199
0.05758 -0.26891 1.88705 149 153 199
-0.05758 -0.26891 1.88705 149 153 199
0.05758 -0.16743 1.88705 149 153 199
-0.05758 -0.16743 1.88705 149 153 199
-0.05758 -0.26891 1.88705 153 157 204
-0.05758 -0.16743 1.88705 153 157 204
0.05758 -0.16743 1.88705 153 157 204
0.05758 -0.26891 1.88705 153 157 204
-0.1432 0.01075 1.28148 149 153 199
-0.09533 0.05042 2.02803 149 153 199
0.09533 0.05042 2.02803 149 153 199
0.1432 0.01075 1.28148 149 153 199
0.09533 0.25748 2.02803 149 153 199
0.1432 0.29715 1.28148 149 153 199
-0.1432 0.29715 1.28148 149 153 199
-0.09533 0.25748 2.02803 149 153 199
0.07308 0.07458 2.05692 149 153 199
-0.07308 0.07458 2.05692 149 153 199
0.07308 0.23332 2.05692 149 153 199
-0.07308 0.23332 2.05692 149 153 199
-0.07308 0.07458 2.05692 153 157 204
-0.07308 0.23332 2.05692 153 157 204
0.07308 0.23332 2.05692 153 157 204
0.07308 0.07458 2.05692 153 157 204
-0.10521 0.41999 1.28257 149 153 199
-0.08047 0.45518 1.72359 149 153 199
0.08047 0.45518 1.72359 149 153 199
0.10521 0.41999 1.28257 149 153 199
0.08047 0.6374 1.72359 149 153 199
0.10521 0.67134 1.28257 149 153 199
-0.10521 0.67134 1.28257 149 153 199
-0.08047 0.6374 1.72359 149 153 199
0.06169 0.47644 1.75248 149 153 199
-0.06169 0.47644 1.75248 149 153 199
0.06169 0.61614 1.75248 149 153 199
-0.06169 0.61614 1.75248 149 153 199
-0.06169 0.47644 1.75248 153 157 204
-0.06169 0.61614 1.75248 153 157 204
0.06169 0.61614 1.75248 153 157 204
0.06169 0.47644 1.75248 153 157 204
-0.14608 0.80431 1.28025 149 153 199
-0.09649 0.86025 1.58452 149 153 199
0.09649 0.86025 1.58452 149 153 199
0.14608 0.80431 1.28025 149 153 199
0.09649 1.08038 1.58452 149 153 199
0.14608 1.12237 1.28025 149 153 199
-0.14608 1.12237 1.28025 149 153 199
-0.09649 1.08038 1.58452 149 153 199
0.07397 0.88593 1.61341 149 153 199
-0.07397 0.88593 1.61341 149 153 199
0.07397 1.0547 1.61341 149 153 199
-0.07397 1.0547 1.61341 149 153 199
-0.07397 0.88593 1.61341 153 157 204
-0.07397 1.0547 1.61341 153 157 204
0.07397 1.0547 1.61341 153 157 204
0.07397 0.88593 1.61341 153 157 204
-0.10521 1.25267 1.21059 153 157 204
-0.07824 1.53877 1.18647 153 157 204
0.07824 1.53877 1.18647 153 157 204
0.10521 1.25267 1.21059 153 157 204
0.05998 1.56547 1.16755 153 157 204
-0.05998 1.56547 1.16755 153 157 204
-0.05998 1.56547 1.16755 149 153 199
-0.05998 1.56547 1.04321 149 153 199
0.05998 1.56547 1.04321 149 153 199
0.05998 1.56547 1.16755 149 153 199
0.07824 1.53877 1.18647 149 153 199
0.07824 1.53877 1.02429 149 153 199
0.10521 1.25267 1.21059 149 153 199
0.10521 1.25267 1.00018 149 153 199
-0.07824 1.53877 1.02429 149 153 199
-0.10521 1.25267 1.00018 149 153 199
-0.07824 1.53877 1.18647 149 153 199
-0.10521 1.25267 1.21059 149 153 199
0.63647 0.51244 0.96574 112 118 184
0.63647 0.51244 1.13907 112 118 184
0.65421 0.51244 1.13907 112 118 184
0.65421 0.51244 0.96574 112 118 184
0.65421 0.66493 1.13907 112 118 184
0.63647 0.66493 1.13907 112 118 184
0.63647 0.66493 0.96574 112 118 184
0.65421 0.66493 0.96574 112 118 184
0.63647 0.13748 0.81247 112 118 184
0.63647 0.13748 1.02616 112 118 184
0.65421 0.13748 1.02616 112 118 184
0.65421 0.13748 0.81247 112 118 184
0.65421 0.32579 1.02616 112 118 184
0.63647 0.32579 1.02616 112 118 184
0.63647 0.32579 0.81247 112 118 184
0.65421 0.32579 0.81247 112 118 184
-0.63647 0.51244 0.96574 112 118 184
-0.65421 0.51244 0.96574 112 118 184
-0.65421 0.51244 1.13907 112 118 184
-0.63647 0.51244 1.13907 112 118 184
-0.65421 0.66493 1.13907 112 118 184
-0.63647 0.66493 1.13907 112 118 184
-0.63647 0.66493 0.96574 112 118 184
-0.65421 0.66493 0.96574 112 118 184
-0.63647 0.13748 0.81247 112 118 184
-0.65421 0.13748 0.81247 112 118 184
-0.65421 0.13748 1.02616 112 118 184
-0.63647 0.13748 1.02616 112 118 184
-0.65421 0.32579 1.02616 112 118 184
-0.63647 0.32579 1.02616 112 118 184
-0.63647 0.32579 0.81247 112 118 184
-0.65421 0.32579 0.81247 112 118 184
0.64326 -0.87149 1.22165 149 153 199
0.57894 -0.81628 1.29517 149 153 199
0.57894 1.13733 1.29517 149 153 199
0.64326 1.20476 1.22165 149 153 199
0.64326 -0.87149 0.73452 149 153 199
0.64324 1.20476 0.33939 149 153 199
0.57535 1.27173 1.22152 149 153 199
0.50916 1.20476 1.29517 149 153 199
0.57533 1.27173 0.39925 149 153 199
0.5195 1.27173 0.35042 149 153 199
-0.57533 1.27173 0.39925 149 153 199
-0.5195 1.27173 0.35042 149 153 199
-0.57881 1.20476 0.28305 149 153 199
0.57881 1.20476 0.28305 149 153 199
-0.64324 1.20476 0.33939 149 153 199
-0.64326 1.20476 1.22165 149 153 199
-0.57535 1.27173 1.22152 149 153 199
-0.57894 1.13733 1.29517 149 153 199
-0.64326 -0.87149 1.22165 149 153 199
-0.57894 -0.81628 1.29517 149 153 199
-0.50916 1.20476 1.29517 149 153 199
-0.64326 -0.87149 0.73452 149 153 199
0.57875 -1.00342 0.28299 149 153 199
-0.57875 -1.00342 0.28299 149 153 199
-0.57894 1.13733 1.29517 153 157 204
-0.50916 1.20476 1.29517 153 157 204
0.50916 1.20476 1.29517 153 157 204
0.57894 1.13733 1.29517 153 157 204
-0.57894 -0.81628 1.29517 153 157 204
0.57894 -0.81628 1.29517 153 157 204
0.36253 0.1525 0.65489 149 153 199
0.36253 0.15208 0.45247 149 153 199
0.74828 0.15208 0.45247 149 153 199
0.74828 0.1525 0.65489 149 153 199
0.39796 0.11195 0.70343 149 153 199
0.71284 0.11195 0.70343 149 153 199
0.79309 0.0947 0.65477 149 153 199
0.79309 0.0947 0.45247 149 153 199
0.79309 -0.38411 0.45247 149 153 199
0.79309 -0.38411 0.65477 149 153 199
0.74942 0.05273 0.70361 149 153 199
0.74942 -0.34214 0.70361 149 153 199
0.36139 0.05273 0.70361 149 153 199
0.36139 -0.34214 0.70361 149 153 199
0.31772 0.0947 0.65477 149 153 199
0.31772 -0.38411 0.65477 149 153 199
0.31772 0.0947 0.45247 149 153 199
0.31772 -0.38411 0.45247 149 153 199
0.39513 -0.38839 0.7037 149 153 199
0.71568 -0.38839 0.7037 149 153 199
0.35905 -0.4328 0.38839 137 141 189
0.35905 -0.4328 0.45247 137 141 189
0.75175 -0.4328 0.45247 137 141 189
0.75175 -0.4328 0.38839 137 141 189
0.31772 -0.38411 0.38839 137 141 189
0.79309 -0.38411 0.38839 137 141 189
0.354 -0.34967 0.38839 137 141 189
0.75681 -0.34967 0.38839 137 141 189
0.79309 -0.38411 0.45247 137 141 189
0.31772 -0.38411 0.45247 137 141 189
0.79309 0.0947 0.45247 137 141 189
0.79309 0.0947 0.38839 137 141 189
0.75681 0.06026 0.38839 137 141 189
0.74828 0.15208 0.38839 137 141 189
0.74828 0.15208 0.45247 137 141 189
0.36253 0.15208 0.45247 137 141 189
0.36253 0.15208 0.38839 137 141 189
0.31772 0.0947 0.38839 137 141 189
0.39298 0.09551 0.38839 137 141 189
0.354 0.06026 0.38839 137 141 189
0.31772 0.0947 0.45247 137 141 189
0.75175 -0.43285 0.65483 149 153 199
0.35905 -0.43285 0.65483 149 153 199
0.35905 -0.4328 0.45247 149 153 199
0.75175 -0.4328 0.45247 149 153 199
-0.36253 0.1525 0.65489 149 153 199
-0.74828 0.1525 0.65489 149 153 199
-0.74828 0.15208 0.45247 149 153 199
-0.36253 0.15208 0.45247 149 153 199
-0.39796 0.11195 0.70343 149 153 199
-0.71284 0.11195 0.70343 149 153 199
-0.31772 0.0947 0.65477 149 153 199
-0.31772 0.0947 0.45247 149 153 199
-0.31772 -0.38411 0.65477 149 153 199
-0.36139 -0.34214 0.70361 149 153 199
-0.36139 0.05273 0.70361 149 153 199
-0.74942 -0.34214 0.70361 149 153 199
-0.74942 0.05273 0.70361 149 153 199
-0.79309 -0.38411 0.65477 149 153 199
-0.79309 0.0947 0.65477 149 153 199
-0.79309 -0.38411 0.45247 149 153 199
-0.79309 0.0947 0.45247 149 153 199
-0.31772 -0.38411 0.45247 149 153 199
-0.71568 -0.38839 0.7037 149 153 199
-0.39513 -0.38839 0.7037 149 153 199
-0.35905 -0.4328 0.38839 137 141 189
-0.75175 -0.4328 0.38839 137 141 189
-0.75175 -0.4328 0.45247 137 141 189
-0.35905 -0.4328 0.45247 137 141 189
-0.31772 -0.38411 0.38839 137 141 189
-0.31772 -0.38411 0.45247 137 141 189
-0.79309 -0.38411 0.45247 137 141 189
-0.79309 -0.38411 0.38839 137 141 189
-0.79309 0.0947 0.38839 137 141 189
-0.79309 0.0947 0.45247 137 141 189
-0.75681 0.06026 0.38839 137 141 189
-0.71783 0.09551 0.38839 137 141 189
-0.74828 0.15208 0.38839 137 141 189
-0.36253 0.15208 0.38839 137 141 189
-0.39298 0.09551 0.38839 137 141 189
-0.75681 -0.34967 0.38839 137 141 189
-0.354 -0.34967 0.38839 137 141 189
-0.354 0.06026 0.38839 137 141 189
-0.31772 0.0947 0.38839 137 141 189
-0.31772 0.0947 0.45247 137 141 189
-0.36253 0.15208 0.45247 137 141 189
-0.74828 0.15208 0.45247 137 141 189
-0.35905 -0.43285 0.65483 149 153 199
-0.75175 -0.43285 0.65483 149 153 199
-0.35905 -0.4328 0.45247 149 153 199
-0.75175 -0.4328 0.45247 149 153 199
0.36253 1.18559 0.74808 149 153 199
0.36253 1.18531 0.45458 149 153 199
0.74828 1.18531 0.45458 149 153 199
0.74828 1.18559 0.74808 149 153 199
0.39796 1.142 0.79688 149 153 199
0.71284 1.142 0.79688 149 153 199
0.79309 1.12792 0.74813 149 153 199
0.79309 1.12792 0.45458 149 153 199
0.79309 0.57184 0.45458 149 153 199
0.79309 0.57184 0.74813 149 153 199
0.74942 1.08596 0.79698 149 153 199
0.74942 0.6138 0.79698 149 153 199
0.31772 1.12792 0.45458 149 153 199
0.31772 1.12792 0.74813 149 153 199
0.31772 0.57184 0.74813 149 153 199
0.36139 0.6138 0.79698 149 153 199
0.36139 1.08596 0.79698 149 153 199
0.31772 0.57184 0.45458 149 153 199
0.74942 0.6138 0.79698 153 157 204
0.36139 0.6138 0.79698 153 157 204
0.36139 1.08596 0.79698 153 157 204
0.74942 1.08596 0.79698 153 157 204
0.71284 1.142 0.79688 153 157 204
0.39796 1.142 0.79688 153 157 204
0.39513 0.56251 0.79709 153 157 204
0.71568 0.56251 0.79709 153 157 204
0.35905 0.52314 0.38839 137 141 189
0.35905 0.52314 0.45458 137 141 189
0.75175 0.52314 0.45458 137 141 189
0.75175 0.52314 0.38839 137 141 189
0.31772 0.57184 0.38839 137 141 189
0.79309 0.57184 0.38839 137 141 189
0.354 0.60628 0.38839 137 141 189
0.75681 0.60628 0.38839 137 141 189
0.79309 0.57184 0.45458 137 141 189
0.31772 0.57184 0.45458 137 141 189
0.79309 1.12792 0.45458 137 141 189
0.79309 1.12792 0.38839 137 141 189
0.75681 1.09348 0.38839 137 141 189
0.74828 1.18531 0.38839 137 141 189
0.74828 1.18531 0.45458 137 141 189
0.36253 1.18531 0.45458 137 141 189
0.36253 1.18531 0.38839 137 141 189
0.31772 1.12792 0.38839 137 141 189
0.39298 1.12873 0.38839 137 141 189
0.354 1.09348 0.38839 137 141 189
0.31772 1.12792 0.45458 137 141 189
0.71568 0.56251 0.79709 149 153 199
0.75175 0.52267 0.74817 149 153 199
0.35905 0.52267 0.74817 149 153 199
0.39513 0.56251 0.79709 149 153 199
0.35905 0.52314 0.45458 149 153 199
0.75175 0.52314 0.45458 149 153 199
-0.36253 1.18559 0.74808 149 153 199
-0.74828 1.18559 0.74808 149 153 199
-0.74828 1.18531 0.45458 149 153 199
-0.36253 1.18531 0.45458 149 153 199
-0.39796 1.142 0.79688 149 153 199
-0.71284 1.142 0.79688 149 153 199
-0.31772 1.12792 0.74813 149 153 199
-0.31772 1.12792 0.45458 149 153 199
-0.31772 0.57184 0.74813 149 153 199
-0.36139 0.6138 0.79698 149 153 199
-0.36139 1.08596 0.79698 149 153 199
-0.31772 0.57184 0.45458 149 153 199
-0.79309 1.12792 0.45458 149 153 199
-0.79309 1.12792 0.74813 149 153 199
-0.79309 0.57184 0.45458 149 153 199
-0.79309 0.57184 0.74813 149 153 199
-0.74942 1.08596 0.79698 149 153 199
-0.74942 0.6138 0.79698 149 153 199
-0.74942 0.6138 0.79698 153 157 204
-0.74942 1.08596 0.79698 153 157 204
-0.36139 1.08596 0.79698 153 157 204
-0.36139 0.6138 0.79698 153 157 204
-0.39796 1.142 0.79688 153 157 204
-0.71284 1.142 0.79688 153 157 204
-0.71568 0.56251 0.79709 153 157 204
-0.39513 0.56251 0.79709 153 157 204
-0.35905 0.52314 0.38839 137 141 189
-0.75175 0.52314 0.38839 137 141 189
-0.75175 0.52314 0.45458 137 141 189
-0.35905 0.52314 0.45458 137 141 189
-0.31772 0.57184 0.38839 137 141 189
-0.31772 0.57184 0.45458 137 141 189
-0.79309 0.57184 0.45458 137 141 189
-0.79309 0.57184 0.38839 137 141 189
-0.79309 1.12792 0.38839 137 141 189
-0.79309 1.12792 0.45458 137 141 189
-0.75681 1.09348 0.38839 137 141 189
-0.71783 1.12873 0.38839 137 141 189
-0.74828 1.18531 0.38839 137 141 189
-0.36253 1.18531 0.38839 137 141 189
-0.39298 1.12873 0.38839 137 141 189
-0.75681 0.60628 0.38839 137 141 189
-0.354 0.60628 0.38839 137 141 189
-0.354 1.09348 0.38839 137 141 189
-0.31772 1.12792 0.38839 137 141 189
-0.31772 1.12792 0.45458 137 141 189
-0.36253 1.18531 0.45458 137 141 189
-0.74828 1.18531 0.45458 137 141 189
-0.71568 0.56251 0.79709 149 153 199
-0.39513 0.56251 0.79709 149 153 199
-0.35905 0.52267 0.74817 149 153 199
-0.75175 0.52267 0.74817 149 153 199
-0.35905 0.52314 0.45458 149 153 199
-0.75175 0.52314 0.45458 149 153 199
0.78923 0.63341 0.56804 112 118 184
0.78923 0.63341 0.70871 112 118 184
0.80431 0.63341 0.70871 112 118 184
0.80431 0.63341 0.56804 112 118 184
0.80431 0.80206 0.70871 112 118 184
0.78923 0.80206 0.70871 112 118 184
0.78923 0.80206 0.56804 112 118 184
0.80431 0.80206 0.56804 112 118 184
-0.78923 0.63341 0.56804 112 118 184
-0.80431 0.63341 0.56804 112 118 184
-0.80431 0.63341 0.70871 112 118 184
-0.78923 0.63341 0.70871 112 118 184
-0.80431 0.80206 0.70871 112 118 184
-0.78923 0.80206 0.70871 112 118 184
-0.78923 0.80206 0.56804 112 118 184
-0.80431 0.80206 0.56804 112 118 184
0.71783 0.09551 0.38839 137 141 189
0.71783 1.12873 0.38839 137 141 189
0.15673 -0.65009 1.28533 112 118 184
0.15673 -0.65009 1.30917 112 118 184
0.39994 -0.65009 1.30917 112 118 184
0.39994 -0.65009 1.28533 112 118 184
0.39994 -0.43635 1.30917 112 118 184
0.15673 -0.43635 1.30917 112 118 184
0.39994 -0.43635 1.28533 112 118 184
0.15673 -0.43635 1.28533 112 118 184
-0.02099 -0.84383 1.28533 112 118 184
-0.02099 -0.84383 1.30917 112 118 184
0.0997 -0.84383 1.30917 112 118 184
0.0997 -0.84383 1.28533 112 118 184
0.0997 -0.71853 1.30917 112 118 184
-0.02099 -0.71853 1.30917 112 118 184
0.0997 -0.71853 1.28533 112 118 184
-0.02099 -0.71853 1.28533 112 118 184
-0.67657 -0.40097 0.10458 209 205 212
-0.67657 -0.40097 2.90871E-07 209 205 212
-0.70432 -0.34967 2.90871E-07 209 205 212
-0.70432 -0.34967 0.10458 209 205 212
-0.43461 -0.40097 0.10458 209 205 212
-0.43461 -0.40097 2.90871E-07 209 205 212
-0.40199 -0.34967 2.90871E-07 209 205 212
-0.40199 -0.34967 0.10458 209 205 212
-0.70432 -0.34967 2.90871E-07 149 153 199
-0.75681 0.06026 2.90871E-07 149 153 199
-0.75681 -0.34967 2.90871E-07 149 153 199
-0.354 0.06026 2.90871E-07 149 153 199
-0.40199 -0.34967 2.90871E-07 149 153 199
-0.354 -0.34967 2.90871E-07 149 153 199
-0.40199 -0.34967 0.10458 149 153 199
-0.70432 -0.34967 0.10458 149 153 199
-0.75681 -0.34967 0.38839 149 153 199
-0.354 -0.34967 0.38839 149 153 199
-0.75681 0.06026 0.38839 149 153 199
-0.71783 0.09551 2.90871E-07 149 153 199
-0.71783 0.09551 0.38839 149 153 199
-0.39298 0.09551 0.38839 149 153 199
-0.39298 0.09551 2.90871E-07 149 153 199
-0.354 0.06026 0.38839 149 153 199
-0.43461 -0.40097 0.10458 225 220 228
-0.67657 -0.40097 0.10458 225 220 228
-0.70432 -0.34967 0.10458 225 220 228
-0.40199 -0.34967 0.10458 225 220 228
-0.70432 0.60628 0.10458 149 153 199
-0.75681 0.60628 3.05176E-07 149 153 199
-0.75681 0.60628 0.38839 149 153 199
-0.354 0.60628 0.38839 149 153 199
-0.40199 0.60628 0.10458 149 153 199
-0.70432 0.60628 3.05176E-07 149 153 199
-0.75681 1.09348 3.05176E-07 149 153 199
-0.354 0.60628 3.05176E-07 149 153 199
-0.40199 0.60628 3.05176E-07 149 153 199
-0.354 1.09348 3.05176E-07 149 153 199
-0.39298 1.12873 3.05176E-07 149 153 199
-0.71783 1.12873 3.05176E-07 149 153 199
-0.39298 1.12873 0.38839 149 153 199
-0.71783 1.12873 0.38839 149 153 199
-0.75681 1.09348 0.38839 149 153 199
-0.354 1.09348 0.38839 149 153 199
-0.67709 0.55497 3.05176E-07 209 205 212
-0.67709 0.55497 0.10458 209 205 212
-0.43409 0.55497 0.10458 209 205 212
-0.43409 0.55497 3.05176E-07 209 205 212
-0.70432 0.60628 3.05176E-07 209 205 212
-0.40199 0.60628 3.05176E-07 209 205 212
-0.70432 0.60628 0.10458 209 205 212
-0.40199 0.60628 0.10458 209 205 212
-0.43409 0.55497 0.10458 225 220 228
-0.67709 0.55497 0.10458 225 220 228
-0.70432 0.60628 0.10458 225 220 228
-0.40199 0.60628 0.10458 225 220 228
0.73092 -0.39494 1.3833 125 96 97
0.71063 -0.44349 1.40429 125 96 97
0.64702 -0.60936 1.52154 125 96 97
1.08428 0.20566 1.93534 125 96 97
1.11971 0.29183 1.89339 125 96 97
0.75511 -0.28233 1.15293 125 96 97
1.16484 0.51978 1.39674 125 96 97
1.14204 0.49741 1.29968 125 96 97
0.70479 -0.31761 0.88588 125 96 97
0.73855 -0.30248 1.09706 125 96 97
0.62494 -0.63039 1.42516 125 96 97
0.63347 -0.5873 1.33127 125 96 97
0.66139 -0.44629 1.02404 125 96 97
0.67007 -0.40244 0.92851 125 96 97
0.5888 -0.71573 1.45837 153 157 204
0.44702 -0.64873 1.47624 153 157 204
0.47462 -0.62244 1.59671 153 157 204
0.6164 -0.68944 1.57885 153 157 204
1.19111 0.38179 2.12273 153 157 204
1.04934 0.44878 2.1406 153 157 204
1.37297 0.72076 2.29487 153 157 204
1.2312 0.78775 2.31273 153 157 204
0.44702 -0.64873 1.47624 149 153 199
0.50344 -0.3638 0.85543 149 153 199
0.54683 -0.25776 0.80214 149 153 199
0.47462 -0.62244 1.59671 149 153 199
1.04934 0.44878 2.1406 149 153 199
1.12155 0.81347 1.34602 149 153 199
0.68861 -0.32476 0.78427 149 153 199
1.26332 0.74647 1.32816 149 153 199
1.15004 0.84142 1.46735 149 153 199
1.29182 0.77443 1.44948 149 153 199
1.12508 0.71535 1.74203 149 153 199
1.26686 0.64836 1.72417 149 153 199
1.21645 0.88567 1.82851 149 153 199
1.35823 0.81867 1.81064 149 153 199
1.20193 0.81232 1.98833 149 153 199
1.34371 0.74532 1.97046 149 153 199
1.11056 0.642 1.90185 149 153 199
1.10183 0.59793 1.99787 149 153 199
1.25233 0.57501 1.88399 149 153 199
1.24361 0.53094 1.98001 149 153 199
1.2473 0.86908 2.13554 149 153 199
1.38908 0.80209 2.11768 149 153 199
1.2312 0.78775 2.31273 149 153 199
1.37297 0.72076 2.29487 149 153 199
0.64522 -0.4308 0.83756 149 153 199
0.5888 -0.71573 1.45837 149 153 199
0.70479 -0.31761 0.88588 149 153 199
0.67007 -0.40244 0.92851 149 153 199
0.66139 -0.44629 1.02404 149 153 199
1.14204 0.49741 1.29968 149 153 199
1.16484 0.51978 1.39674 149 153 199
0.63347 -0.5873 1.33127 149 153 199
0.62494 -0.63039 1.42516 149 153 199
0.6164 -0.68944 1.57885 149 153 199
0.64702 -0.60936 1.52154 149 153 199
1.19111 0.38179 2.12273 149 153 199
1.08428 0.20566 1.93534 149 153 199
1.11971 0.29183 1.89339 149 153 199
0.71063 -0.44349 1.40429 149 153 199
0.73855 -0.30248 1.09706 149 153 199
0.75511 -0.28233 1.15293 149 153 199
0.73092 -0.39494 1.3833 149 153 199
1.11056 0.642 1.90185 153 157 204
1.20193 0.81232 1.98833 153 157 204
1.34371 0.74532 1.97046 153 157 204
1.25233 0.57501 1.88399 153 157 204
-0.73092 -0.39494 1.3833 125 96 97
-1.08428 0.20566 1.93534 125 96 97
-0.64702 -0.60936 1.52154 125 96 97
-0.71063 -0.44349 1.40429 125 96 97
-1.11971 0.29183 1.89339 125 96 97
-0.75511 -0.28233 1.15293 125 96 97
-1.16484 0.51978 1.39674 125 96 97
-1.14204 0.49741 1.29968 125 96 97
-0.70479 -0.31761 0.88588 125 96 97
-0.73855 -0.30248 1.09706 125 96 97
-0.62494 -0.63039 1.42516 125 96 97
-0.63347 -0.5873 1.33127 125 96 97
-0.66139 -0.44629 1.02404 125 96 97
-0.67007 -0.40244 0.92851 125 96 97
-0.5888 -0.71573 1.45837 153 157 204
-0.6164 -0.68944 1.57885 153 157 204
-0.47462 -0.62244 1.59671 153 157 204
-0.44702 -0.64873 1.47624 153 157 204
-1.19111 0.38179 2.12273 153 157 204
-1.04934 0.44878 2.1406 153 157 204
-1.37297 0.72076 2.29487 153 157 204
-1.2312 0.78775 2.31273 153 157 204
-0.44702 -0.64873 1.47624 149 153 199
-0.47462 -0.62244 1.59671 149 153 199
-0.54683 -0.25776 0.80214 149 153 199
-0.50344 -0.3638 0.85543 149 153 199
-1.04934 0.44878 2.1406 149 153 199
-1.12155 0.81347 1.34602 149 153 199
-0.68861 -0.32476 0.78427 149 153 199
-1.26332 0.74647 1.32816 149 153 199
-1.15004 0.84142 1.46735 149 153 199
-1.29182 0.77443 1.44948 149 153 199
-1.12508 0.71535 1.74203 149 153 199
-1.26686 0.64836 1.72417 149 153 199
-1.21645 0.88567 1.82851 149 153 199
-1.35823 0.81867 1.81064 149 153 199
-1.20193 0.81232 1.98833 149 153 199
-1.34371 0.74532 1.97046 149 153 199
-1.11056 0.642 1.90185 149 153 199
-1.10183 0.59793 1.99787 149 153 199
-1.25233 0.57501 1.88399 149 153 199
-1.24361 0.53094 1.98001 149 153 199
-1.2473 0.86908 2.13554 149 153 199
-1.38908 0.80209 2.11768 149 153 199
-1.2312 0.78775 2.31273 149 153 199
-1.37297 0.72076 2.29487 149 153 199
-0.64522 -0.4308 0.83756 149 153 199
-0.5888 -0.71573 1.45837 149 153 199
-0.70479 -0.31761 0.88588 149 153 199
-0.67007 -0.40244 0.92851 149 153 199
-0.66139 -0.44629 1.02404 149 153 199
-1.14204 0.49741 1.29968 149 153 199
-1.16484 0.51978 1.39674 149 153 199
-0.63347 -0.5873 1.33127 149 153 199
-0.62494 -0.63039 1.42516 149 153 199
-0.6164 -0.68944 1.57885 149 153 199
-0.64702 -0.60936 1.52154 149 153 199
-1.19111 0.38179 2.12273 149 153 199
-1.08428 0.20566 1.93534 149 153 199
-1.11971 0.29183 1.89339 149 153 199
-0.71063 -0.44349 1.40429 149 153 199
-0.73855 -0.30248 1.09706 149 153 199
-0.75511 -0.28233 1.15293 149 153 199
-0.73092 -0.39494 1.3833 149 153 199
-1.11056 0.642 1.90185 153 157 204
-1.25233 0.57501 1.88399 153 157 204
-1.34371 0.74532 1.97046 153 157 204
-1.20193 0.81232 1.98833 153 157 204
0.311 -1.09272 0.37462 187 135 156
0.311 -1.09272 0.48393 187 135 156
0.311 -0.95356 0.48393 187 135 156
0.311 -0.95356 0.37462 187 135 156
-0.311 -1.09272 0.37462 187 135 156
-0.311 -1.09272 0.48393 187 135 156
-0.311 -0.95356 0.48393 187 135 156
-0.311 -0.95356 0.37462 187 135 156
0.26964 -0.94562 0.81208 255 255 255
0.26964 -0.94562 0.9067 255 255 255
0.32575 -0.94562 0.9067 255 255 255
0.32575 -0.94562 0.81208 255 255 255
0.39291 -0.94562 0.81213 44 38 53
0.39291 -0.94562 0.97048 44 38 53
0.39291 -0.92378 0.97048 44 38 53
0.39291 -0.92378 0.81207 44 38 53
0.32575 -0.94562 0.81208 44 38 53
0.32575 -0.94562 0.9067 44 38 53
0.26964 -0.94562 0.9067 44 38 53
0.1683 -0.94562 0.97048 44 38 53
0.39291 -0.94562 0.77023 44 38 53
0.39291 -0.92378 0.77023 44 38 53
0.26964 -0.94562 0.81208 44 38 53
0.1683 -0.94562 0.81209 44 38 53
0.1683 -0.94562 0.77023 88 76 106
0.26964 -0.94562 0.81208 88 76 106
0.32575 -0.94562 0.81208 88 76 106
0.39291 -0.94562 0.77023 88 76 106
0.1683 -0.94562 0.81209 88 76 106
0.39291 -0.94562 0.81213 88 76 106
0.27295 -1.12874 0.52307 255 255 255
0.27295 -1.12874 0.61556 255 255 255
0.36452 -1.12874 0.61556 255 255 255
0.36452 -1.12874 0.52307 255 255 255
0.27295 -1.03626 0.52307 255 255 255
0.36452 -1.03626 0.52307 255 255 255
0.36452 -1.03626 0.61556 255 255 255
0.27295 -1.03626 0.61556 255 255 255
0.56742 -0.96271 1.22165 149 153 199
0.56742 -0.96271 0.77609 149 153 199
0.51458 -0.89838 1.29517 149 153 199
0.12626 -0.89838 1.29517 149 153 199
0.12626 -0.96271 1.22165 149 153 199
0.51544 -0.96271 1.00919 149 153 199
0.51549 -0.96271 0.77609 149 153 199
0.12626 -0.96271 0.998 149 153 199
0.09241 -1.36462 1.47236 149 153 199
0.09241 -1.43469 1.30375 149 153 199
-0.09241 -1.43469 1.30375 149 153 199
-0.12626 -0.96271 0.998 149 153 199
-0.15329 -0.96271 0.83654 149 153 199
0.15329 -0.96271 0.83654 149 153 199
0.15334 -0.96271 0.89891 149 153 199
-0.15334 -0.96271 0.89891 149 153 199
0.07701 -1.39961 1.47043 149 153 199
0.07701 -1.458 1.32991 149 153 199
-0.07701 -1.39961 1.47043 149 153 199
-0.07701 -1.458 1.32991 149 153 199
0.1778 -0.96271 0.89891 149 153 199
0.17757 -0.96271 0.77609 149 153 199
0.15327 -0.96271 0.77609 149 153 199
-0.09241 -1.36462 1.47236 149 153 199
-0.12626 -0.96271 1.22165 149 153 199
-0.56742 -0.96271 1.22165 149 153 199
-0.12626 -0.89838 1.29517 149 153 199
-0.51458 -0.89838 1.29517 149 153 199
-0.56742 -0.96271 0.77609 149 153 199
-0.51544 -0.96271 1.00919 149 153 199
-0.51549 -0.96271 0.77609 149 153 199
-0.51544 -0.92986 1.00919 149 153 199
-0.51549 -0.92986 0.77609 149 153 199
-0.1778 -0.96271 0.89891 149 153 199
-0.17757 -0.96271 0.77609 149 153 199
-0.15327 -0.96271 0.77609 149 153 199
-0.17682 -0.92986 0.77609 149 153 199
-0.64322 -1.0646 0.73452 149 153 199
-0.64322 -1.0646 0.33946 149 153 199
-0.56089 -1.14191 0.33946 149 153 199
-0.50736 -1.06272 0.28299 149 153 199
0.50736 -1.06272 0.28299 149 153 199
0.56089 -1.14191 0.33946 149 153 199
0.64322 -1.0646 0.33946 149 153 199
0.64322 -1.0646 0.73452 149 153 199
0.56089 -1.14191 0.73452 149 153 199
0.50895 -1.07339 0.77609 149 153 199
0.15363 -1.14191 0.73452 149 153 199
0.15363 -1.07339 0.77609 149 153 199
0.56748 -1.04141 0.77609 149 153 199
0.15363 -1.14191 0.61249 149 153 199
0.416 -1.14191 0.61249 149 153 199
0.416 -1.14191 0.38417 149 153 199
0.15363 -1.20707 0.80776 149 153 199
0.15363 -1.20707 0.5993 149 153 199
0.09228 -1.20707 0.65976 149 153 199
0.09228 -1.20707 0.60966 149 153 199
0.15363 -1.18295 0.57045 149 153 199
0.15363 -1.14191 0.57045 149 153 199
0 -1.20707 0.5993 149 153 199
-0.15363 -1.18295 0.57045 149 153 199
-0.15363 -1.14191 0.57045 149 153 199
0 -1.20707 0.80776 149 153 199
0.06579 -1.20707 0.65976 149 153 199
-0.06579 -1.20707 0.65976 149 153 199
-0.15363 -1.20707 0.80776 149 153 199
-0.09228 -1.20707 0.65976 149 153 199
-0.15363 -1.20707 0.5993 149 153 199
-0.09228 -1.20707 0.60966 149 153 199
-0.06579 -1.20707 0.60966 149 153 199
0.06579 -1.20707 0.60966 149 153 199
0.416 -0.95641 0.38417 149 98 113
-0.416 -0.95641 0.38417 149 98 113
-0.416 -0.95641 0.61249 149 98 113
0.416 -0.95641 0.61249 149 98 113
0.416 -1.14191 0.38417 149 98 113
0.416 -1.14191 0.61249 149 98 113
0.15363 -1.14191 0.61249 149 98 113
-0.416 -1.14191 0.38417 149 98 113
-0.15363 -1.14191 0.61249 149 98 113
-0.416 -1.14191 0.61249 149 98 113
0.50895 -1.07339 0.77609 153 157 204
0.17757 -0.96271 0.77609 153 157 204
0.51549 -0.96271 0.77609 153 157 204
0.15363 -1.07339 0.77609 153 157 204
0.51549 -0.92986 0.77609 255 255 255
0.17682 -0.92986 0.77609 255 255 255
0.51544 -0.92986 1.00919 255 255 255
0.51549 -0.92986 0.77609 149 153 199
0.51544 -0.92986 1.00919 149 153 199
0.17682 -0.92986 0.77609 149 153 199
0 -1.20707 0.80776 153 157 204
-0.15363 -1.20707 0.80776 153 157 204
-0.15329 -1.17753 0.83654 153 157 204
0.15329 -1.17753 0.83654 153 157 204
0.15363 -1.20707 0.80776 153 157 204
-0.15329 -0.96271 0.83654 153 157 204
0.15329 -0.96271 0.83654 153 157 204
0.15329 -1.17753 0.83654 149 153 199
0.09241 -1.36462 1.47236 153 157 204
-0.09241 -1.36462 1.47236 153 157 204
-0.12626 -0.89838 1.29517 153 157 204
0.12626 -0.89838 1.29517 153 157 204
-0.416 -1.14191 0.38417 149 153 199
-0.416 -1.14191 0.61249 149 153 199
-0.56089 -1.14191 0.73452 149 153 199
-0.50895 -1.07339 0.77609 149 153 199
-0.15363 -1.14191 0.73452 149 153 199
-0.15363 -1.07339 0.77609 149 153 199
-0.56748 -1.04141 0.77609 149 153 199
-0.15363 -1.14191 0.61249 149 153 199
-0.15329 -1.17753 0.83654 149 153 199
0.56742 -0.96271 0.77609 153 157 204
0.56748 -1.04141 0.77609 153 157 204
0.51458 -0.89838 1.29517 153 157 204
-0.51458 -0.89838 1.29517 153 157 204
0.09228 -1.18953 0.65976 121 124 162
0.09228 -1.18953 0.60966 121 124 162
0.06579 -1.18953 0.60966 121 124 162
0.06579 -1.18953 0.65976 121 124 162
0.09228 -1.20707 0.65976 121 124 162
0.06579 -1.20707 0.65976 121 124 162
0.06579 -1.20707 0.60966 121 124 162
0.09228 -1.20707 0.60966 121 124 162
0.07701 -1.39961 1.47043 153 157 204
-0.07701 -1.39961 1.47043 153 157 204
-0.26964 -0.94562 0.81208 255 255 255
-0.32575 -0.94562 0.81208 255 255 255
-0.32575 -0.94562 0.9067 255 255 255
-0.26964 -0.94562 0.9067 255 255 255
-0.39291 -0.94562 0.81213 44 38 53
-0.39291 -0.92378 0.81207 44 38 53
-0.39291 -0.92378 0.97048 44 38 53
-0.39291 -0.94562 0.97048 44 38 53
-0.32575 -0.94562 0.81208 44 38 53
-0.32575 -0.94562 0.9067 44 38 53
-0.26964 -0.94562 0.9067 44 38 53
-0.1683 -0.94562 0.97048 44 38 53
-0.39291 -0.94562 0.77023 44 38 53
-0.39291 -0.92378 0.77023 44 38 53
-0.26964 -0.94562 0.81208 44 38 53
-0.1683 -0.94562 0.81209 44 38 53
-0.1683 -0.94562 0.77023 88 76 106
-0.39291 -0.94562 0.77023 88 76 106
-0.32575 -0.94562 0.81208 88 76 106
-0.26964 -0.94562 0.81208 88 76 106
-0.1683 -0.94562 0.81209 88 76 106
-0.39291 -0.94562 0.81213 88 76 106
-0.27295 -1.12874 0.52307 255 255 255
-0.36452 -1.12874 0.52307 255 255 255
-0.36452 -1.12874 0.61556 255 255 255
-0.27295 -1.12874 0.61556 255 255 255
-0.27295 -1.03626 0.52307 255 255 255
-0.36452 -1.03626 0.52307 255 255 255
-0.36452 -1.03626 0.61556 255 255 255
-0.27295 -1.03626 0.61556 255 255 255
-0.51549 -0.92986 0.77609 255 255 255
-0.51544 -0.92986 1.00919 255 255 255
-0.17682 -0.92986 0.77609 255 255 255
-0.56742 -0.96271 0.77609 153 157 204
-0.51549 -0.96271 0.77609 153 157 204
-0.50895 -1.07339 0.77609 153 157 204
-0.56748 -1.04141 0.77609 153 157 204
-0.09228 -1.18953 0.65976 121 124 162
-0.06579 -1.18953 0.65976 121 124 162
-0.06579 -1.18953 0.60966 121 124 162
-0.09228 -1.18953 0.60966 121 124 162
-0.09228 -1.20707 0.65976 121 124 162
-0.06579 -1.20707 0.65976 121 124 162
-0.06579 -1.20707 0.60966 121 124 162
-0.09228 -1.20707 0.60966 121 124 162
-0.17757 -0.96271 0.77609 153 157 204
-0.15363 -1.07339 0.77609 153 157 204
3 0 2 1
3 0 3 2
3 3 0 4
3 3 4 5
3 5 2 3
3 5 6 2
3 7 5 4
3 7 6 5
3 8 10 9
3 11 10 8
3 11 8 12
3 11 12 13
3 13 12 14
3 15 8 9
3 15 9 16
3 17 15 16
3 17 14 15
3 13 14 17
3 11 13 17
3 11 17 18
3 11 18 19
3 11 19 20
3 19 21 20
3 19 22 21
3 23 21 22
3 23 10 21
3 10 20 21
3 10 11 20
3 10 23 16
3 10 16 9
3 24 26 25
3 24 27 26
3 28 30 29
3 31 29 30
3 32 31 30
3 30 28 32
3 31 33 29
3 34 28 29
3 34 35 28
3 36 35 34
3 36 37 35
3 38 32 37
3 38 36 34
3 38 34 39
3 38 39 40
3 38 40 41
3 40 42 41
3 40 43 42
3 33 42 43
3 33 31 42
3 31 41 42
3 31 38 41
3 38 31 32
3 38 37 36
3 44 46 45
3 44 47 46
3 45 48 44
3 48 47 44
3 45 49 48
3 48 50 47
3 51 45 46
3 51 49 45
3 52 54 53
3 52 55 54
3 56 58 57
3 56 59 58
3 59 60 58
3 59 61 60
3 62 56 57
3 62 57 63
3 57 58 64
3 57 64 65
3 58 66 64
3 58 60 66
3 63 57 65
3 63 65 67
3 60 63 67
3 63 60 61
3 63 61 62
3 60 67 66
3 68 70 69
3 68 71 70
3 72 74 73
3 72 75 74
3 75 76 74
3 75 77 76
3 78 72 73
3 78 73 79
3 73 74 80
3 73 80 81
3 74 82 80
3 74 76 82
3 79 73 81
3 79 81 83
3 76 79 83
3 79 76 77
3 79 77 78
3 76 83 82
3 84 86 85
3 84 87 86
3 88 90 89
3 88 91 90
3 91 92 90
3 91 93 92
3 94 88 89
3 94 89 95
3 89 90 96
3 89 96 97
3 90 98 96
3 90 92 98
3 95 89 97
3 95 97 99
3 92 95 99
3 95 92 93
3 95 93 94
3 92 99 98
3 100 102 101
3 100 103 102
3 104 106 105
3 104 107 106
3 107 108 106
3 107 109 108
3 110 104 105
3 110 105 111
3 105 106 112
3 105 112 113
3 106 114 112
3 106 108 114
3 111 105 113
3 111 113 115
3 108 111 115
3 111 108 109
3 111 109 110
3 108 115 114
3 116 118 117
3 116 119 118
3 120 122 121
3 120 123 122
3 121 122 124
3 121 124 125
3 126 128 127
3 126 129 128
3 130 128 129
3 130 131 128
3 131 127 128
3 132 131 130
3 132 133 131
3 134 131 133
3 131 134 127
3 134 126 127
3 134 133 135
3 135 136 134
3 134 136 126
3 135 137 136
3 138 140 139
3 138 141 140
3 139 140 142
3 141 142 140
3 139 142 143
3 144 141 138
3 144 145 141
3 141 145 142
3 143 145 144
3 143 142 145
3 146 148 147
3 146 149 148
3 147 148 150
3 149 150 148
3 147 150 151
3 152 149 146
3 152 153 149
3 149 153 150
3 151 153 152
3 151 150 153
3 154 156 155
3 154 157 156
3 157 158 156
3 155 156 158
3 157 159 158
3 160 154 155
3 160 155 161
3 155 158 161
3 159 161 158
3 159 160 161
3 162 164 163
3 162 165 164
3 165 166 164
3 163 164 166
3 165 167 166
3 168 162 163
3 168 163 169
3 163 166 169
3 167 169 166
3 167 168 169
3 170 172 171
3 170 173 172
3 174 173 170
3 174 175 173
3 176 172 173
3 176 177 172
3 173 178 176
3 173 175 178
3 175 179 178
3 180 178 179
3 176 178 180
3 180 179 181
3 179 182 181
3 179 183 182
3 175 183 179
3 184 181 182
3 184 180 181
3 185 180 184
3 185 186 180
3 176 180 186
3 186 185 187
3 188 187 185
3 188 189 187
3 186 187 190
3 176 190 177
3 176 186 190
3 191 185 184
3 191 188 185
3 182 183 192
3 182 192 193
3 194 196 195
3 194 197 196
3 198 197 194
3 198 199 197
3 200 202 201
3 200 203 202
3 204 203 200
3 204 205 203
3 206 202 203
3 206 207 202
3 208 207 206
3 208 206 209
3 210 209 206
3 210 203 205
3 210 206 203
3 210 211 209
3 211 210 212
3 212 205 204
3 212 210 205
3 211 212 213
3 213 212 214
3 214 204 200
3 214 212 204
3 213 214 215
3 216 215 214
3 216 217 215
3 216 214 200
3 216 200 201
3 211 213 218
3 211 218 219
3 220 222 221
3 220 223 222
3 224 223 220
3 224 225 223
3 225 222 223
3 226 225 224
3 226 227 225
3 225 228 222
3 229 220 221
3 229 224 220
3 225 230 228
3 225 231 230
3 227 231 225
3 227 232 231
3 230 231 233
3 230 233 234
3 235 234 233
3 235 233 236
3 237 235 236
3 236 238 237
3 238 239 237
3 239 224 237
3 237 224 229
3 237 229 240
3 237 240 235
3 239 226 224
3 219 242 241
3 219 218 242
3 243 241 242
3 243 244 241
3 213 242 218
3 213 215 242
3 215 243 242
3 209 219 241
3 209 211 219
3 208 241 244
3 208 209 241
3 215 217 243
3 245 247 246
3 245 248 247
3 249 245 246
3 249 246 250
3 251 248 245
3 251 252 248
3 252 251 253
3 254 253 251
3 254 251 255
3 255 245 249
3 255 251 245
3 256 254 255
3 256 255 257
3 257 249 250
3 257 255 249
3 257 258 256
3 257 259 258
3 259 250 246
3 259 257 250
3 260 258 259
3 260 259 261
3 261 246 247
3 261 259 246
3 252 253 262
3 254 256 263
3 254 263 264
3 265 267 266
3 265 268 267
3 269 268 265
3 269 270 268
3 271 266 267
3 271 272 266
3 272 265 266
3 272 269 265
3 272 274 273
3 272 271 274
3 275 273 276
3 277 276 273
3 278 276 277
3 278 279 276
3 280 273 275
3 280 272 273
3 281 272 280
3 281 269 272
3 282 269 281
3 282 283 269
3 283 270 269
3 283 284 270
3 284 283 278
3 284 278 285
3 285 278 277
3 285 277 286
3 283 279 278
3 282 279 283
3 273 286 277
3 273 274 286
3 263 287 264
3 263 288 287
3 289 287 288
3 289 288 290
3 256 288 263
3 256 258 288
3 258 290 288
3 253 264 287
3 253 254 264
3 262 287 289
3 262 253 287
3 258 260 290
3 291 293 292
3 291 294 293
3 295 294 291
3 295 296 294
3 297 293 294
3 297 298 293
3 299 298 297
3 299 297 300
3 301 300 297
3 301 294 296
3 301 297 294
3 301 302 300
3 303 291 292
3 303 304 291
3 304 295 291
3 303 305 304
3 306 304 305
3 306 307 304
3 304 307 295
3 303 308 305
3 309 311 310
3 309 312 311
3 311 312 313
3 311 313 314
3 309 310 315
3 309 315 316
3 317 319 318
3 317 320 319
3 321 320 317
3 321 322 320
3 322 319 320
3 323 322 321
3 323 324 322
3 322 325 319
3 326 317 318
3 326 321 317
3 322 327 325
3 322 328 327
3 324 328 322
3 324 329 328
3 327 328 330
3 327 330 331
3 332 331 330
3 332 330 333
3 334 332 333
3 333 335 334
3 335 336 334
3 336 321 334
3 334 321 326
3 334 326 337
3 334 337 332
3 336 323 321
3 338 340 339
3 338 341 340
3 342 339 340
3 342 343 339
3 306 340 341
3 306 305 340
3 305 342 340
3 300 338 339
3 300 302 338
3 299 339 343
3 299 300 339
3 305 308 342
3 344 346 345
3 344 347 346
3 348 344 345
3 348 345 349
3 350 347 344
3 350 351 347
3 351 350 352
3 353 352 350
3 353 350 354
3 354 344 348
3 354 350 344
3 351 352 355
3 356 345 346
3 356 357 345
3 357 349 345
3 358 357 356
3 358 359 357
3 360 357 359
3 357 360 349
3 360 359 361
3 362 364 363
3 362 365 364
3 363 364 366
3 363 366 367
3 365 362 368
3 365 368 369
3 370 372 371
3 370 373 372
3 374 373 370
3 374 375 373
3 376 371 372
3 376 377 371
3 377 370 371
3 377 374 370
3 377 379 378
3 377 376 379
3 380 378 381
3 382 381 378
3 383 381 382
3 383 384 381
3 385 378 380
3 385 377 378
3 386 377 385
3 386 374 377
3 387 374 386
3 387 388 374
3 388 375 374
3 388 389 375
3 389 388 383
3 389 383 390
3 390 383 382
3 390 382 391
3 378 391 382
3 378 379 391
3 388 384 383
3 387 384 388
3 392 394 393
3 392 395 394
3 396 394 395
3 396 395 397
3 361 395 392
3 361 359 395
3 359 397 395
3 352 393 394
3 352 353 393
3 355 394 396
3 355 352 394
3 359 358 397
3 398 400 399
3 398 401 400
3 399 400 402
3 401 402 400
3 399 402 403
3 404 401 398
3 404 405 401
3 401 405 402
3 403 405 404
3 403 402 405
3 406 408 407
3 406 409 408
3 409 410 408
3 407 408 410
3 409 411 410
3 412 406 407
3 412 407 413
3 407 410 413
3 411 413 410
3 411 412 413
3 231 414 233
3 233 414 238
3 233 238 236
3 232 414 231
3 328 415 330
3 329 415 328
3 330 415 335
3 330 335 333
3 416 418 417
3 416 419 418
3 417 418 420
3 419 420 418
3 417 420 421
3 419 422 420
3 423 417 421
3 423 416 417
3 421 422 423
3 421 420 422
3 424 426 425
3 424 427 426
3 425 426 428
3 427 428 426
3 425 428 429
3 427 430 428
3 431 425 429
3 431 424 425
3 429 430 431
3 429 428 430
3 432 434 433
3 432 435 434
3 433 436 432
3 433 437 436
3 437 433 434
3 437 434 438
3 439 437 438
3 439 436 437
3 440 442 441
3 443 440 441
3 443 444 440
3 443 445 444
3 445 446 444
3 447 442 440
3 447 448 442
3 449 447 446
3 449 448 447
3 445 449 446
3 441 448 450
3 441 442 448
3 450 451 441
3 450 452 451
3 453 451 452
3 453 454 451
3 441 451 454
3 441 454 443
3 443 454 453
3 443 453 455
3 443 455 449
3 443 449 445
3 456 458 457
3 456 459 458
3 460 462 461
3 463 462 460
3 463 460 464
3 461 465 460
3 465 461 466
3 467 463 464
3 467 464 468
3 469 468 465
3 469 465 466
3 466 470 469
3 466 471 470
3 472 470 471
3 469 470 472
3 472 471 473
3 474 471 466
3 474 473 471
3 466 462 474
3 466 461 462
3 469 472 475
3 469 475 463
3 469 463 467
3 469 467 468
3 476 478 477
3 476 479 478
3 479 476 480
3 480 476 477
3 479 480 481
3 480 477 482
3 483 479 481
3 483 478 479
3 484 486 485
3 484 487 486
3 488 490 489
3 488 491 490
3 491 488 492
3 492 488 493
3 492 493 494
3 494 493 495
3 496 495 493
3 496 493 497
3 489 490 498
3 489 498 499
3 496 497 500
3 496 500 501
3 502 504 503
3 502 505 504
3 504 505 506
3 504 506 507
3 507 506 508
3 507 508 509
3 510 512 511
3 510 513 512
3 512 513 514
3 512 514 515
3 516 512 515
3 516 515 517
3 517 515 518
3 517 518 519
3 519 518 520
3 515 520 518
3 519 520 521
3 521 520 522
3 521 522 523
3 523 522 524
3 520 524 522
3 523 524 525
3 520 526 524
3 515 526 520
3 515 514 526
3 526 514 527
3 528 526 527
3 528 527 529
3 529 527 530
3 529 530 531
3 532 531 530
3 527 532 530
3 532 533 531
3 527 514 532
3 511 516 534
3 511 512 516
3 511 534 535
3 511 535 510
3 534 516 536
3 534 536 537
3 538 534 537
3 535 534 538
3 516 539 536
3 516 517 539
3 517 540 539
3 517 519 540
3 519 521 540
3 535 538 541
3 535 541 542
3 543 535 542
3 543 542 544
3 545 543 544
3 545 544 546
3 529 545 546
3 529 546 547
3 545 529 531
3 545 531 533
3 547 528 529
3 540 528 547
3 540 521 528
3 528 521 523
3 528 523 525
3 538 548 541
3 538 549 548
3 548 549 550
3 548 550 551
3 552 554 553
3 552 555 554
3 556 558 557
3 556 559 558
3 557 560 556
3 560 561 556
3 560 562 561
3 562 563 561
3 564 561 563
3 564 565 561
3 559 566 558
3 559 567 566
3 564 568 565
3 564 569 568
3 570 572 571
3 570 573 572
3 572 574 571
3 572 575 574
3 575 576 574
3 575 577 576
3 578 580 579
3 578 581 580
3 580 582 579
3 580 583 582
3 584 583 580
3 584 585 583
3 585 586 583
3 585 587 586
3 587 588 586
3 583 586 588
3 587 589 588
3 589 590 588
3 589 591 590
3 591 592 590
3 588 590 592
3 591 593 592
3 588 592 594
3 583 594 582
3 583 588 594
3 594 595 582
3 596 595 594
3 596 597 595
3 597 598 595
3 597 599 598
3 600 598 599
3 595 598 600
3 600 599 601
3 595 600 582
3 581 584 580
3 581 602 584
3 581 603 602
3 581 578 603
3 602 604 584
3 602 605 604
3 606 605 602
3 603 606 602
3 584 604 607
3 584 607 585
3 585 607 608
3 585 608 587
3 587 608 589
3 603 609 606
3 603 610 609
3 611 610 603
3 611 612 610
3 613 612 611
3 613 614 612
3 597 614 613
3 597 615 614
3 613 599 597
3 613 601 599
3 615 597 596
3 608 596 589
3 608 615 596
3 596 591 589
3 596 593 591
3 606 609 616
3 606 616 617
3 616 618 617
3 616 619 618
3 620 622 621
3 620 623 622
3 624 626 625
3 624 627 626
3 625 628 624
3 625 629 628
3 626 629 625
3 628 629 630
3 626 630 629
3 628 630 631
3 632 634 633
3 632 635 634
3 636 638 637
3 636 639 638
3 640 636 637
3 640 637 641
3 637 642 641
3 637 643 642
3 644 639 636
3 644 645 639
3 643 646 642
3 643 647 646
3 648 650 649
3 648 651 650
3 649 652 648
3 651 653 650
3 654 656 655
3 654 657 656
3 658 657 654
3 658 654 655
3 658 659 657
3 657 660 656
3 657 659 660
3 658 655 661
3 661 659 658
3 661 660 659
3 662 174 170
3 662 663 174
3 662 170 171
3 662 171 664
3 665 662 664
3 665 666 662
3 663 662 667
3 663 667 668
3 669 662 666
3 667 662 669
3 666 665 670
3 669 666 670
3 669 670 671
3 669 671 672
3 669 672 673
3 674 669 673
3 675 669 674
3 669 675 676
3 674 673 677
3 671 670 678
3 671 678 679
3 679 672 671
3 679 678 680
3 679 680 681
3 672 681 680
3 679 681 672
3 682 669 676
3 667 669 682
3 675 682 676
3 683 682 675
3 667 682 683
3 683 675 684
3 673 672 685
3 672 680 685
3 673 685 686
3 673 686 687
3 688 687 686
3 686 685 688
3 688 689 687
3 687 689 189
3 687 189 188
3 687 188 191
3 687 191 690
3 690 691 687
3 690 692 691
3 692 693 691
3 692 694 693
3 691 673 687
3 691 695 673
3 695 677 673
3 691 696 695
3 696 674 695
3 674 677 695
3 696 697 674
3 698 694 692
3 698 692 696
3 191 700 699
3 699 700 701
3 700 702 701
3 703 701 702
3 703 704 701
3 705 704 703
3 705 703 192
3 706 704 705
3 706 707 704
3 706 708 707
3 708 709 707
3 708 710 709
3 706 711 708
3 174 706 705
3 707 709 712
3 707 712 713
3 704 707 713
3 704 713 714
3 712 709 715
3 712 715 716
3 716 715 717
3 716 717 718
3 712 716 719
3 712 719 720
3 719 716 721
3 720 719 722
3 719 721 722
3 720 722 723
3 724 717 715
3 724 725 717
3 726 725 724
3 726 724 727
3 726 727 728
3 729 728 727
3 722 721 729
3 729 730 728
3 721 730 729
3 731 725 726
3 721 731 730
3 731 732 725
3 721 732 731
3 716 732 721
3 716 718 732
3 733 735 734
3 733 736 735
3 737 736 733
3 737 733 734
3 737 738 736
3 736 738 739
3 737 734 740
3 740 734 735
3 736 741 735
3 736 739 741
3 735 741 742
3 740 735 742
3 743 745 744
3 743 744 746
3 174 711 706
3 174 663 711
3 747 749 748
3 668 751 750
3 668 667 751
3 752 668 750
3 752 683 668
3 667 752 751
3 667 683 752
3 753 755 754
3 753 756 755
3 757 756 753
3 756 758 755
3 756 759 758
3 760 684 675
3 760 710 684
3 710 683 684
3 709 760 715
3 709 710 760
3 761 763 762
3 761 764 763
3 183 705 192
3 183 175 705
3 174 705 175
3 703 193 192
3 703 702 193
3 700 193 702
3 182 193 700
3 182 700 184
3 191 184 700
3 704 765 701
3 704 714 765
3 701 765 766
3 701 766 767
3 699 701 767
3 699 767 768
3 768 767 769
3 768 769 770
3 699 768 771
3 767 772 769
3 767 766 772
3 769 773 770
3 769 727 773
3 772 727 769
3 772 729 727
3 772 722 729
3 772 723 722
3 712 723 772
3 712 720 723
3 774 743 775
3 774 745 743
3 764 198 763
3 764 199 198
3 764 776 199
3 763 198 777
3 778 780 779
3 778 781 780
3 782 781 778
3 782 783 781
3 783 780 781
3 783 784 780
3 784 779 780
3 784 785 779
3 785 778 779
3 785 782 778
3 786 762 787
3 786 761 762
3 788 790 789
3 788 791 790
3 792 794 793
3 792 795 794
3 796 795 792
3 796 797 795
3 795 797 798
3 795 798 799
3 800 792 793
3 800 793 801
3 799 798 802
3 799 802 803
3 804 806 805
3 804 807 806
3 807 804 808
3 805 806 809
3 810 812 811
3 810 813 812
3 814 810 811
3 814 813 810
3 814 811 815
3 811 816 815
3 811 812 816
3 814 817 813
3 817 815 816
3 817 814 815
3 696 770 697
3 773 697 770
3 773 674 697
3 191 771 690
3 191 699 771
3 818 820 819
3 821 823 822
3 821 824 823
3 825 827 826
3 825 828 827
3 829 825 826
3 829 826 830
3 830 826 827
3 830 827 831
3 831 827 828
3 831 828 832
3 832 825 829
3 832 828 825
3 691 698 696
3 691 693 698
3 823 834 833
3 823 833 822
