mtllib Starly_F.mtl
v 0 0.184888 0.0621423
vt 0.858034 0.678769
vn 0 -0.9997375 0.02291019
v -0.0946289 0.202011 0.0133701
vn -0.4010109 -0.8861437 -0.2322489
v 0 0.200385 -0.0451309
vn 0 -0.8616841 -0.507445
v -0.174397 0.254576 0.0621423
vn -0.8843192 -0.4668661 -0.003963261
v -0.129112 0.269052 -0.0685796
vn -0.6319208 -0.3871188 -0.6714278
v 0 0.267842 -0.110217
vn 0 -0.4287452 -0.9034255
v 0 0.20744 0.183087
vt 0.583869 0.0831285
vn 0 -0.8668335 0.4985977
v -0.0942561 0.204726 0.124099
vt 0.910639 0.0680928
vn -0.389371 -0.881978 0.265528
vt 1.25386 -0.0417995
vt 1.52404 0.0530572
v -0.129112 0.269052 0.193887
vt 0.580356 0.268936
vn -0.658793 -0.315315 0.683058
vt 1.17528 0.206796
vt 0.00669812 0.104953
v 0 0.266372 0.245848
vt 0.00669812 0.257431
vn 0 -0.3233109 0.9462928
v 0.0946289 0.202011 0.0133701
vn 0.4010109 -0.8861437 -0.2322489
v 0.0942561 0.204726 0.124099
vn 0.389371 -0.881978 0.265528
v 0.174397 0.254576 0.0621423
vn 0.8843192 -0.4668661 -0.003963261
v 0.129112 0.269052 0.193887
vn 0.658793 -0.315315 0.683058
v 0.129112 0.269052 -0.0685796
vn 0.6319208 -0.3871188 -0.6714278
v 0.130261 0.353216 -0.0671231
vn 0.701318 0.144757 -0.697996
v 0 0.353216 -0.122678
vn 0 0.133996 -0.9909819
v -0.130261 0.353216 -0.0671231
vn -0.701318 0.144757 -0.697996
v -0.184217 0.335456 0.0621423
vn -0.9970556 0.07417997 0.01942769
v -0.130261 0.376281 0.192021
vt 0.58895 0.630843
vn -0.715008 0.168076 0.6786119
vt 1.17521 0.455594
v 0.130261 0.376281 0.192021
vt 0.589013 0.630843
vn 0.715008 0.168076 0.6786119
v 0.184217 0.335456 0.0621423
vt 1.17527 0.455594
vn 0.9970556 0.07417997 0.01942759
v 0.118772 0.437556 -0.044216
vn 0.6204079 0.5230189 -0.5844189
v 0 0.449549 -0.0846631
vn 0 0.5505001 -0.8348352
v -0.118772 0.437556 -0.044216
vn -0.6204079 0.5230189 -0.5844189
v -0.156698 0.437556 0.0623274
vn -0.8800102 0.4747631 0.0134954
vt 1.17454 0.893882
v -0.109785 0.437556 0.165983
vt 0.558864 0.893882
vn -0.5445181 0.6468661 0.5339141
v 0 0.437556 0.221898
vt 0.00669812 0.893882
vn 0 0.5980568 0.8014538
v 0 0.376281 0.247576
vt 0.00669812 0.630843
vn 0 0.13822 0.9904016
v 0.109785 0.437556 0.165983
vt 0.558928 0.893882
vn 0.5445181 0.6468661 0.5339141
v 0.156698 0.437556 0.0623274
vt 1.17461 0.893882
vn 0.8800102 0.4747631 0.0134952
v 0 0.515092 0.0621423
vn 0 0.9993033 0.03732261
v 0 0.505678 -0.0182021
vn 0 0.8941683 -0.4477311
v -0.0894184 0.49936 0.0623956
vn -0.474571 0.8801121 0.013605
v 0 0.49936 0.147343
vn 0 0.8795168 0.4758679
vt 1.17441 1.15919
vt 0.00669812 1.15919
v 0.0894184 0.49936 0.0623956
vn 0.474571 0.8801121 0.0136051
vt 1.17447 1.15919
v 0 0.546111 -0.0228439
vt 0.869426 0.840558
vn 0 -0.7880216 -0.6156477
v 0 0.605175 -0.0244377
vn 0 0.6805094 -0.7327394
v 0.01535 0.578367 -0.00057664
vn 0.9975529 0.0144763 -0.06840149
v 0 0.637452 0.0389814
vn 0 0.9947803 -0.10204
v -0.01535 0.578367 -0.00057664
vn -0.9975529 0.0144763 -0.06840149
v 0 0.590454 0.0213752
vn 0 0.01647031 0.9998643
v 0 0.519965 0.0508069
vn 0 -0.9169914 0.3989072
o merged_0_0_node
g polygon_0
usemtl lambert2_mat_id
f 1/1/1 2/1/2 3/1/3
f 4/1/4 5/1/5 2/1/2
f 2/1/2 5/1/5 3/1/3
f 5/1/5 6/1/6 3/1/3
f 7/2/7 8/3/8 1/4/1
f 1/4/1 8/3/8 2/5/2
f 9/6/9 4/7/4 8/3/8
f 4/7/4 2/5/2 8/3/8
f 9/6/9 8/3/8 7/2/7
f 9/6/9 7/8/7 10/9/10
f 11/5/11 12/3/12 1/4/1
f 1/4/1 12/3/12 7/2/7
f 11/5/11 13/7/13 12/3/12
f 12/3/12 13/7/13 14/6/14
f 12/3/12 14/6/14 7/2/7
f 14/6/14 10/9/10 7/8/7
f 1/1/1 3/1/3 11/1/11
f 13/1/13 11/1/11 15/1/15
f 11/1/11 3/1/3 15/1/15
f 15/1/15 3/1/3 6/1/6
f 16/1/16 15/1/15 17/1/17
f 15/1/15 6/1/6 17/1/17
f 18/1/18 17/1/17 5/1/5
f 6/1/6 5/1/5 17/1/17
f 4/1/4 19/1/19 5/1/5
f 5/1/5 19/1/19 18/1/18
f 20/10/20 19/11/19 9/6/9
f 4/7/4 9/6/9 19/11/19
f 21/12/21 14/6/14 22/13/22
f 14/6/14 13/7/13 22/13/22
f 13/1/13 15/1/15 22/1/22
f 15/1/15 16/1/16 22/1/22
f 16/1/16 17/1/17 23/1/23
f 17/1/17 24/1/24 23/1/23
f 18/1/18 25/1/25 17/1/17
f 17/1/17 25/1/25 24/1/24
f 18/1/18 19/1/19 25/1/25
f 19/1/19 26/1/26 25/1/25
f 19/11/19 20/10/20 26/14/26
f 26/14/26 20/10/20 27/15/27
f 27/15/27 20/10/20 28/16/28
f 28/16/28 20/10/20 29/17/29
f 29/17/29 21/12/21 28/16/28
f 28/16/28 21/12/21 30/18/30
f 30/18/30 21/12/21 31/19/31
f 31/19/31 21/12/21 22/13/22
f 16/1/16 23/1/23 22/1/22
f 22/1/22 23/1/23 31/1/31
f 32/1/32 33/1/33 34/1/34
f 26/1/26 34/1/34 25/1/25
f 34/1/34 33/1/33 25/1/25
f 33/1/33 24/1/24 25/1/25
f 32/1/32 34/1/34 35/1/35
f 26/14/26 27/15/27 34/20/34
f 34/20/34 27/15/27 35/21/35
f 27/15/27 28/16/28 35/21/35
f 32/1/32 35/1/35 36/1/36
f 31/19/31 36/22/36 30/18/30
f 36/22/36 35/21/35 30/18/30
f 35/21/35 28/16/28 30/18/30
f 32/1/32 36/1/36 33/1/33
f 31/1/31 23/1/23 36/1/36
f 36/1/36 23/1/23 33/1/33
f 23/1/23 24/1/24 33/1/33
f 37/23/37 38/23/38 39/23/39
f 39/23/39 38/23/38 40/23/40
f 37/23/37 41/23/41 38/23/38
f 38/23/38 41/23/41 40/23/40
f 41/23/41 42/23/42 40/23/40
f 40/23/40 42/23/42 39/23/39
f 43/23/43 37/23/37 39/23/39
f 43/23/43 41/23/41 37/23/37
f 43/23/43 42/23/42 41/23/41
f 43/23/43 39/23/39 42/23/42
v 0 0.106731 -0.240226
vt 0.462989 0.941105
vn 0 0.9302529 0.366919
v -0.0407695 0.102929 -0.253813
vt 0.561178 0.948288
vn -0.2026549 0.9136127 0.3524809
v 0 0.07986931 -0.187073
vt 0.467816 0.904366
vn 0 0.8925038 0.4510399
v -0.0407695 0.113034 -0.287018
vt 0.558764 0.969857
vn -0.08584997 0.9747556 0.2061099
v 0.0407695 0.102929 -0.253813
vn 0.2026549 0.9136127 0.3524809
v 0 0.117108 -0.298562
vt 0.462989 0.977471
vn 0 0.984545 0.175132
v 0.0407695 0.113034 -0.287018
vn 0.08585007 0.9747556 0.2061099
v 0 0.188617 -0.090946
vt -0.124731 0.0939482
vn 0 0.6894399 -0.7243429
v -0.080411 0.103645 -0.102607
vt 0.0791974 0.0348029
vn -0.7113261 0.0338417 -0.702047
v -0.08539926 0.1922731 -0.04235602
vt 0.0918497 0.340407
vn 0.09507731 0.8061749 -0.5839884
v 0 0.121318 -0.124641
vt -0.124731 -0.0769581
vn 0 0.5838521 -0.8118601
v 0 0.220311 -0.0244261
vt -0.124731 0.431347
vn 0 0.9740387 -0.2263819
v 0.080411 0.103645 -0.102607
vn 0.7113265 0.03384168 -0.7020466
v 0.08539925 0.1922731 -0.04235593
vn -0.09507745 0.8061749 -0.5839883
v -0.2463486 0.2615798 -0.08295894
vt 0.5 0.134476
vn -0.7033494 0.1343 -0.6980425
v 0 0.0788035 -0.176488
vt -0.124731 -0.339931
vn 0 -0.547631 -0.83672
v 0.0921699 0.2023572 0.02434695
vt 0.10902 0.678729
vn 0.09491543 0.9843407 0.1485408
v -0.09216991 0.2023573 0.02434685
vn -0.09491559 0.9843407 0.1485407
v 0.2463486 0.2615799 -0.08295898
vn 0.7033493 0.1342989 -0.6980427
v -0.1431751 0.1907244 0.04242289
vt 0.238369 0.77041
vn -0.7999448 -0.130175 0.5857839
v 0.1431751 0.1907244 0.04242288
vn 0.7999449 -0.1301747 0.5857838
v 0.0973795 0.151773 0.0911616
vt 0.10902 1.01762
vn 0.6594211 0.121209 0.7419381
v -0.0973795 0.151773 0.0911616
vn -0.6594211 0.121209 0.7419381
v -0.1127778 0.1591226 -0.02560639
vt 0.697326 0.517229
vn -0.8289863 -0.557721 0.0415801
vt 0.843572 -0.00165188
v -0.080411 0.0611294 -0.063671
vt 0.904168 0.276631
vn -0.7943807 -0.5134458 -0.3245499
vt 0.358609 0.226343
v -0.114083 0.0875138 0.0513111
vt 0.821151 0.699129
vn -0.8839667 -0.3772799 0.2761569
vt 0.62024 0.862276
vt 0.749589 1.10949
vt 0.98334 -0.191034
v 0 0.0239589 0.0626145
vt 0.98334 0.923661
vn 0 -0.8049256 0.5933757
v 0 0.0756908 0.113171
vt 0.98334 1.1965
vn 0 -0.454611 0.8906901
v 0 0.0224103 -0.0413254
vt 0.98334 0.437498
vn 0 -0.9221309 -0.386878
v 0.080411 0.0611294 -0.063671
vn 0.794381 -0.513446 -0.324549
v 0.114083 0.0875138 0.0513112
vn 0.8839667 -0.3772799 0.2761569
v 0.1127778 0.1591226 -0.0256063
vn 0.8289865 -0.5577208 0.04158022
v -0.052 0 -0.0091
vt 0.378339 0.902636
vn -0.442392 -0.895689 0.0450633
vt 0.297211 0.568704
vt 0.273235 0.469731
vt 0.31743 0.651927
vt 0.305641 0.603402
v 0.052 0 -0.0091
vt 0.378455 0.903111
vn 0.3025661 -0.9529642 -0.017691
v 0 0.240659 0.217195
vt 0.393308 0.970002
vn 0 -0.03572349 -0.9993618
v 0.0452173 0.269334 0.22482
vt 0.393308 0.949039
vn 0.5287129 0.5340889 -0.6597058
v 0 0.257369 0.257138
vt 0.393308 0.823709
vn 0 -0.9225314 0.3859222
v 0 0.31214 0.239813
vt 0.393308 0.921142
vn 0 0.9505525 -0.3105639
v -0.0452173 0.269334 0.22482
vn -0.5287129 0.5340889 -0.6597058
v 0 0.268304 0.318037
vt 0.393308 0.650536
vn 0 0.8723633 0.4888582
vn 0 -0.9504188 -0.3109729
vn -0.0108027 -0.9503632 -0.310955
vn 0.0108027 -0.9503632 -0.310955
vn 0 -0.9842574 0.1767411
vn 0.360734 -0.9179861 0.164841
vn -0.360734 -0.9179861 0.164841
o merged_1_0_node
g polygon_0
usemtl lambert3_mat_id
f 44/24/44 45/25/45 46/26/46
f 44/24/44 47/27/47 45/25/45
f 44/24/44 46/26/46 48/25/48
f 44/24/44 49/28/49 47/27/47
f 44/24/44 48/25/48 50/27/50
f 44/24/44 50/27/50 49/28/49
f 51/29/51 52/30/52 53/31/53
f 51/29/51 54/32/54 52/30/52
f 51/29/51 53/31/53 55/33/55
f 51/29/51 56/30/56 54/32/54
f 51/29/51 55/33/55 57/31/57
f 51/29/51 57/31/57 56/30/56
f 52/30/52 58/34/58 53/31/53
f 52/30/52 54/32/54 59/35/59
f 59/35/59 54/32/54 56/30/56
f 55/33/55 60/36/60 57/31/57
f 55/33/55 53/31/53 61/36/61
f 53/31/53 58/34/58 61/36/61
f 56/30/56 57/31/57 62/34/62
f 57/31/57 60/36/60 62/34/62
f 58/34/58 63/37/63 61/36/61
f 60/36/60 64/37/64 62/34/62
f 60/36/60 65/38/65 64/37/64
f 63/37/63 66/38/66 61/36/61
f 67/39/67 52/40/52 68/41/68
f 67/39/67 58/42/58 52/40/52
f 67/39/67 68/41/68 69/43/69
f 67/39/67 63/44/63 58/42/58
f 67/39/67 69/43/69 66/45/66
f 67/39/67 66/45/66 63/44/63
f 52/40/52 59/46/59 68/41/68
f 69/43/69 70/47/70 71/48/71
f 59/46/59 72/49/72 68/41/68
f 59/46/59 73/41/73 72/49/72
f 59/46/59 56/40/56 73/41/73
f 70/47/70 74/43/74 71/48/71
f 56/40/56 75/39/75 73/41/73
f 56/40/56 62/42/62 75/39/75
f 73/41/73 75/39/75 74/43/74
f 62/42/62 64/44/64 75/39/75
f 74/43/74 75/39/75 65/45/65
f 65/45/65 75/39/75 64/44/64
f 76/50/76 70/51/70 69/52/69
f 76/50/76 72/53/72 70/51/70
f 76/50/76 69/52/69 68/54/68
f 76/50/76 68/54/68 72/53/72
f 70/51/70 72/53/72 77/55/77
f 70/51/70 77/55/77 74/52/74
f 72/53/72 73/54/73 77/55/77
f 77/55/77 73/54/73 74/52/74
f 78/56/78 79/57/79 80/58/80
f 78/56/78 81/59/81 79/57/79
f 78/56/78 80/58/80 82/57/82
f 78/56/78 82/57/82 81/59/81
f 79/57/79 81/59/81 83/60/83
f 83/60/83 81/59/81 82/57/82
f 49/28/84 46/26/84 45/25/85
f 49/28/84 48/25/86 46/26/84
f 49/28/84 45/25/85 47/27/85
f 49/28/84 50/27/86 48/25/86
f 83/60/87 80/58/87 79/57/88
f 83/60/87 82/57/89 80/58/87
vt 0.0191628 1.03908
vt 0.868491 0.823278
v 0 0.224502 0.082111
vt 0.0191626 0.631429
vn 0 0.892723 0.450606
vt 0.868492 0.305446
vt 0.943896 0.0212273
vt 0.0191623 0.00664937
v 0 0.159114 0.118635
vt 0.0191627 0.329436
vn 0 0.206355 0.9784772
o merged_2_0_node
g polygon_0
usemtl lambert4_mat_id
f 55/61/55 61/62/61 84/63/90
f 61/62/61 66/64/66 84/63/90
f 69/65/69 71/66/71 66/64/66
f 71/66/71 85/67/91 66/64/66
f 74/65/74 65/64/65 71/66/71
f 65/64/65 85/67/91 71/66/71
f 66/64/66 85/67/91 84/63/90
f 85/67/91 65/64/65 84/63/90
f 65/64/65 60/62/60 84/63/90
f 60/62/60 55/61/55 84/63/90
vt 0.969127 0.99194
vt 0.958878 0.763764
vt -0.19221 0.99194
vt -0.19221 0.75806
o merged_3_0_node
g polygon_0
usemtl TEX_ANIM_EYE_mat_id
f 20/68/20 9/69/9 29/70/29
f 9/69/9 10/71/10 29/70/29
f 21/68/21 29/70/29 14/69/14
f 10/71/10 14/69/14 29/70/29
