ply
format ascii 1.0
element vertex 540
property float x
property float y
property float z
property uchar red
property uchar green
property uchar blue
element face 650
property list uchar int vertex_index
end_header
0.17365 -0.6383 0.00898 83 141 79
0.17365 -0.6383 0.15457 83 141 79
0.29847 -0.63849 0.15457 83 141 79
0.29847 -0.63849 0.00898 83 141 79
0.14941 -0.60837 0.00898 83 141 79
0.32284 -0.60867 0.00898 83 141 79
0.15068 0.09914 0.00898 83 141 79
0.32411 0.09884 0.00898 83 141 79
0.32284 -0.60867 0.15457 83 141 79
0.32382 -0.07453 0.15457 83 141 79
0.32413 0.0989 0.31 83 141 79
0.32382 -0.07453 0.31 83 141 79
0.15039 -0.07422 0.15457 83 141 79
0.15039 -0.07422 0.31 83 141 79
0.14941 -0.60837 0.15457 83 141 79
0.30375 0.12906 0.00897 83 141 79
0.30378 0.12912 0.30999 83 141 79
0.17116 0.12935 0.30999 83 141 79
0.17113 0.12929 0.00897 83 141 79
0.1507 0.09921 0.31 83 141 79
0.32382 -0.07453 0.15457 86 147 82
0.32284 -0.60867 0.15457 86 147 82
0.14941 -0.60837 0.15457 86 147 82
0.15039 -0.07422 0.15457 86 147 82
0.17365 -0.6383 0.15457 86 147 82
0.29847 -0.63849 0.15457 86 147 82
0.46928 -0.15227 0.59245 83 141 79
0.46928 -0.15227 0.8104 83 141 79
0.98607 -0.15227 0.8104 83 141 79
0.98607 -0.15227 0.59245 83 141 79
0.46928 0.06568 0.59245 83 141 79
0.98607 0.06568 0.59245 83 141 79
1.04118 0.0348 0.62333 83 141 79
1.04118 -0.1214 0.62333 83 141 79
1.04118 -0.1214 0.77953 83 141 79
0.46928 -0.15227 0.8104 86 147 82
0.46928 0.06568 0.8104 86 147 82
0.98607 0.06568 0.8104 86 147 82
0.98607 -0.15227 0.8104 86 147 82
1.04118 -0.1214 0.77953 86 147 82
1.04118 0.0348 0.77953 86 147 82
0.46928 0.06568 0.8104 83 141 79
0.98607 0.06568 0.8104 83 141 79
1.04118 0.0348 0.77953 83 141 79
-0.46928 -0.15227 0.59245 83 141 79
-0.98607 -0.15227 0.59245 83 141 79
-0.98607 -0.15227 0.8104 83 141 79
-0.46928 -0.15227 0.8104 83 141 79
-0.46928 0.06568 0.59245 83 141 79
-0.98607 0.06568 0.59245 83 141 79
-1.04118 0.0348 0.62333 83 141 79
-1.04118 -0.1214 0.62333 83 141 79
-1.04118 -0.1214 0.77953 83 141 79
-0.46928 -0.15227 0.8104 86 147 82
-0.98607 -0.15227 0.8104 86 147 82
-0.98607 0.06568 0.8104 86 147 82
-0.46928 0.06568 0.8104 86 147 82
-1.04118 -0.1214 0.77953 86 147 82
-1.04118 0.0348 0.77953 86 147 82
-0.46928 0.06568 0.8104 83 141 79
-0.98607 0.06568 0.8104 83 141 79
-1.04118 0.0348 0.77953 83 141 79
-0.6036 -0.52312 0.34159 83 141 79
-0.6036 -0.52312 1.40544 83 141 79
-0.52492 -0.6036 1.40544 83 141 79
-0.52492 -0.6036 0.34159 83 141 79
-0.6036 0.52312 0.34159 83 141 79
-0.6036 0.52312 1.40544 83 141 79
-0.52492 0.6036 0.34159 83 141 79
-0.52492 0.6036 1.40544 83 141 79
-0.13114 -0.6036 0.87227 83 141 79
-0.13114 -0.6036 0.99774 83 141 79
0.52492 0.6036 1.40544 83 141 79
0.52492 0.6036 0.34159 83 141 79
0.6036 0.52312 1.40544 83 141 79
0.6036 0.52312 0.34159 83 141 79
0.6036 -0.52312 0.34159 83 141 79
0.6036 -0.52312 1.40544 83 141 79
0.52492 -0.6036 1.40544 83 141 79
0.52492 -0.6036 0.34159 83 141 79
-0.47243 -0.54324 0.28279 83 141 79
0.47243 -0.54324 0.28279 83 141 79
-0.47243 0.54324 0.28279 83 141 79
0.47243 0.54324 0.28279 83 141 79
0.54324 0.47081 0.28279 83 141 79
-0.54324 0.47081 0.28279 83 141 79
-0.54324 -0.47081 0.28279 83 141 79
0.54324 -0.47081 0.28279 83 141 79
0.13114 -0.6036 0.99774 83 141 79
0.13114 -0.6036 0.87227 83 141 79
0.13114 -0.53205 0.87227 94 47 48
-0.13114 -0.53205 0.87227 94 47 48
-0.13114 -0.53205 0.99774 94 47 48
0.13114 -0.53205 0.99774 94 47 48
0.13114 -0.6036 0.87227 94 47 48
0.13114 -0.6036 0.99774 94 47 48
-0.13114 -0.6036 0.99774 94 47 48
-0.13114 -0.6036 0.87227 94 47 48
0.16983 -0.63429 1.04907 207 143 122
0.16983 -0.63429 1.10639 207 143 122
0.22714 -0.63429 1.10639 207 143 122
0.22714 -0.63429 1.04907 207 143 122
0.15251 -0.63429 1.1237 126 79 60
0.15251 -0.60075 1.1237 126 79 60
0.24446 -0.60075 1.1237 126 79 60
0.24446 -0.63429 1.1237 126 79 60
0.24446 -0.63429 1.03175 126 79 60
0.24446 -0.60075 1.03175 126 79 60
0.15251 -0.60075 1.03175 126 79 60
0.15251 -0.63429 1.03175 126 79 60
0.22714 -0.63429 1.10639 126 79 60
0.22714 -0.63429 1.04907 126 79 60
0.16983 -0.63429 1.10639 126 79 60
0.16983 -0.63429 1.04907 126 79 60
-0.16983 -0.63429 1.04907 207 143 122
-0.22714 -0.63429 1.04907 207 143 122
-0.22714 -0.63429 1.10639 207 143 122
-0.16983 -0.63429 1.10639 207 143 122
-0.15251 -0.63429 1.1237 126 79 60
-0.24446 -0.63429 1.1237 126 79 60
-0.24446 -0.60075 1.1237 126 79 60
-0.15251 -0.60075 1.1237 126 79 60
-0.24446 -0.63429 1.03175 126 79 60
-0.24446 -0.60075 1.03175 126 79 60
-0.15251 -0.60075 1.03175 126 79 60
-0.15251 -0.63429 1.03175 126 79 60
-0.22714 -0.63429 1.10639 126 79 60
-0.22714 -0.63429 1.04907 126 79 60
-0.16983 -0.63429 1.10639 126 79 60
-0.16983 -0.63429 1.04907 126 79 60
-0.1393 -0.58759 0.83342 140 66 67
-0.1393 -0.58759 0.90778 140 66 67
0.1393 -0.58759 0.90778 140 66 67
0.1393 -0.58759 0.83342 140 66 67
0.1393 -0.52263 0.90778 140 66 67
-0.1393 -0.52263 0.90778 140 66 67
0.44893 -0.58029 1.79103 210 131 60
0.44893 -0.58029 2.02503 210 131 60
0.58021 -0.46052 2.02503 210 131 60
0.58021 -0.46052 1.79103 210 131 60
-0.44893 -0.58029 2.02503 210 131 60
-0.44893 -0.58029 1.79103 210 131 60
-0.58021 -0.46052 1.79103 210 131 60
-0.58021 -0.46052 2.02503 210 131 60
0.58021 0.46052 1.79103 210 131 60
0.58021 0.46052 2.02503 210 131 60
-0.58021 0.46052 2.02503 210 131 60
-0.58021 0.46052 1.79103 210 131 60
0.44893 0.58029 1.79103 210 131 60
0.44893 0.58029 2.02503 210 131 60
-0.44893 0.58029 2.02503 210 131 60
-0.44893 0.58029 1.79103 210 131 60
0.41046 0.53056 2.06866 210 131 60
0.53049 0.42106 2.06866 210 131 60
0.53049 -0.42106 2.06866 210 131 60
0.41046 -0.53056 2.06866 210 131 60
-0.41046 -0.53056 2.06866 210 131 60
-0.53049 -0.42106 2.06866 210 131 60
-0.53049 0.42106 2.06866 210 131 60
-0.41046 0.53056 2.06866 210 131 60
-0.34916 0.27714 2.01823 220 159 95
-0.27016 0.34921 2.01823 220 159 95
-0.27016 -0.34921 2.01823 220 159 95
-0.34916 -0.27714 2.01823 220 159 95
0.27016 -0.34921 2.01823 220 159 95
0.27016 0.34921 2.01823 220 159 95
0.34916 -0.27714 2.01823 220 159 95
0.34916 0.27714 2.01823 220 159 95
-0.53049 0.42106 2.06866 219 137 62
-0.38452 0.3052 2.06866 219 137 62
-0.38452 -0.3052 2.06866 219 137 62
-0.53049 -0.42106 2.06866 219 137 62
-0.29751 -0.38457 2.06866 219 137 62
-0.41046 -0.53056 2.06866 219 137 62
0.29751 -0.38457 2.06866 219 137 62
0.41046 -0.53056 2.06866 219 137 62
0.38452 -0.3052 2.06866 219 137 62
0.53049 -0.42106 2.06866 219 137 62
0.38452 0.3052 2.06866 219 137 62
0.53049 0.42106 2.06866 219 137 62
0.29751 0.38457 2.06866 219 137 62
0.41046 0.53056 2.06866 219 137 62
-0.29751 0.38457 2.06866 219 137 62
-0.41046 0.53056 2.06866 219 137 62
-0.38452 0.3052 2.06866 113 130 91
-0.34916 0.27714 2.01823 113 130 91
-0.34916 -0.27714 2.01823 113 130 91
-0.38452 -0.3052 2.06866 113 130 91
-0.27016 -0.34921 2.01823 113 130 91
-0.29751 -0.38457 2.06866 113 130 91
0.27016 -0.34921 2.01823 113 130 91
0.29751 -0.38457 2.06866 113 130 91
0.34916 -0.27714 2.01823 113 130 91
0.38452 -0.3052 2.06866 113 130 91
0.34916 0.27714 2.01823 113 130 91
0.38452 0.3052 2.06866 113 130 91
0.27016 0.34921 2.01823 113 130 91
0.29751 0.38457 2.06866 113 130 91
-0.27016 0.34921 2.01823 113 130 91
-0.29751 0.38457 2.06866 113 130 91
0 1.21539 1.43233 234 147 66
0.09478 1.31154 1.43233 234 147 66
0.09478 1.31154 1.82987 234 147 66
0 1.21539 1.82987 234 147 66
0.95024 1.31154 1.43233 234 147 66
0.95024 1.31154 1.82987 234 147 66
1.06503 1.21539 1.43233 234 147 66
1.06503 1.21539 1.82987 234 147 66
1.06503 0.56169 1.82987 234 147 66
1.06503 0.56169 1.43233 234 147 66
0.12424 1.2605 1.88593 234 147 66
0.03988 1.17301 1.88593 234 147 66
0.92072 1.2605 1.88593 234 147 66
1.01596 1.17301 1.88593 234 147 66
1.01596 0.56169 1.88593 234 147 66
1.06503 0.43056 1.43233 234 147 66
1.06503 0.43056 1.82987 234 147 66
0.03988 0.56169 1.88593 234 147 66
0 0.56169 1.82987 234 147 66
0 0.43056 1.82987 234 147 66
0.03988 0.43056 1.88593 234 147 66
1.01596 0.43056 1.88593 234 147 66
-0.03988 0.56169 1.88593 234 147 66
-0.03988 0.43056 1.88593 234 147 66
-0.03988 1.17301 1.88593 234 147 66
-0.12424 1.2605 1.88593 234 147 66
-0.09478 1.31154 1.82987 234 147 66
-0.09478 1.31154 1.43233 234 147 66
-0.92072 1.2605 1.88593 234 147 66
-0.95024 1.31154 1.82987 234 147 66
-0.95024 1.31154 1.43233 234 147 66
-1.06503 1.21539 1.43233 234 147 66
-1.06503 1.21539 1.82987 234 147 66
-1.06503 0.56169 1.82987 234 147 66
-1.06503 0.56169 1.43233 234 147 66
-1.01596 1.17301 1.88593 234 147 66
-1.01596 0.56169 1.88593 234 147 66
-0.03988 1.17301 1.37627 234 147 66
-0.12424 1.2605 1.37627 234 147 66
-0.92072 1.2605 1.37627 234 147 66
-0.03988 0.56169 1.37627 234 147 66
-1.01596 1.17301 1.37627 234 147 66
-1.01596 0.56169 1.37627 234 147 66
-0.03988 0.43056 1.37627 234 147 66
-1.01596 0.43056 1.37627 234 147 66
-1.06503 0.43056 1.43233 234 147 66
0 0.43056 1.43233 234 147 66
0 0.56169 1.43233 234 147 66
0.03988 0.56169 1.37627 234 147 66
0.03988 1.17301 1.37627 234 147 66
1.01596 1.17301 1.37627 234 147 66
1.01596 0.56169 1.37627 234 147 66
0.12424 1.2605 1.37627 234 147 66
0.92072 1.2605 1.37627 234 147 66
0.03988 0.43056 1.37627 234 147 66
1.01596 0.43056 1.37627 234 147 66
1.01596 0.43056 1.88593 235 154 76
0.90503 0.56169 1.88593 235 154 76
1.01596 0.56169 1.88593 235 154 76
0.90503 1.09593 1.88593 235 154 76
1.01596 1.17301 1.88593 235 154 76
0.85485 1.15373 1.88593 235 154 76
0.92072 1.2605 1.88593 235 154 76
0.12424 1.2605 1.88593 235 154 76
0.20099 1.15373 1.88593 235 154 76
0.03988 1.17301 1.88593 235 154 76
0.15082 1.09593 1.88593 235 154 76
0.15082 0.56169 1.88593 235 154 76
0.03988 0.56169 1.88593 235 154 76
0.03988 0.43056 1.88593 235 154 76
0.90503 0.56169 1.88593 236 166 100
0.15082 0.56169 1.88593 236 166 100
0.15082 1.09593 1.88593 236 166 100
0.90503 1.09593 1.88593 236 166 100
0.20099 1.15373 1.88593 236 166 100
0.85485 1.15373 1.88593 236 166 100
1.31879 -0.50011 1.42593 234 147 66
1.31879 -0.50011 1.8807 234 147 66
1.42483 -0.40391 1.8807 234 147 66
1.42483 -0.40391 1.42593 234 147 66
0.48437 -0.50011 1.42593 234 147 66
0.48437 -0.50011 1.8807 234 147 66
1.42483 0.40357 1.42593 234 147 66
1.42483 0.40357 1.8807 234 147 66
1.31879 0.49976 1.42593 234 147 66
1.31879 0.49976 1.8807 234 147 66
0.48437 0.49976 1.8807 234 147 66
0.48437 0.49976 1.42593 234 147 66
1.2764 -0.45104 1.93676 234 147 66
0.48437 -0.45105 1.93676 234 147 66
1.37378 -0.36126 1.93676 234 147 66
1.37378 0.36092 1.93676 234 147 66
1.2764 0.4507 1.93676 234 147 66
0.48437 0.4507 1.93676 234 147 66
1.21415 -0.23222 1.93676 235 154 76
1.21415 0.23188 1.93676 235 154 76
1.37378 0.36092 1.93676 235 154 76
1.37378 -0.36126 1.93676 235 154 76
1.2764 0.4507 1.93676 235 154 76
1.1487 0.30854 1.93676 235 154 76
0.48437 0.4507 1.93676 235 154 76
0.48437 0.30854 1.93676 235 154 76
1.2764 -0.45104 1.93676 235 154 76
1.1487 -0.30888 1.93676 235 154 76
0.48437 -0.30888 1.93676 235 154 76
0.48437 -0.45105 1.93676 235 154 76
1.2764 0.4507 1.36987 234 147 66
0.48437 0.4507 1.36987 234 147 66
0.48437 -0.45105 1.36987 234 147 66
1.2764 -0.45104 1.36987 234 147 66
1.37378 -0.36126 1.36987 234 147 66
1.37378 0.36092 1.36987 234 147 66
1.1487 0.30854 1.93676 236 166 100
1.21415 0.23188 1.93676 236 166 100
1.21415 -0.23222 1.93676 236 166 100
1.1487 -0.30888 1.93676 236 166 100
0.48437 0.30854 1.93676 236 166 100
0.48437 -0.30888 1.93676 236 166 100
-0.15082 0.56169 1.88593 235 154 76
-0.03988 0.56169 1.88593 235 154 76
-0.03988 0.43056 1.88593 235 154 76
-0.03988 1.17301 1.88593 235 154 76
-0.15082 1.09593 1.88593 235 154 76
-0.20099 1.15373 1.88593 235 154 76
-0.12424 1.2605 1.88593 235 154 76
-0.85485 1.15373 1.88593 235 154 76
-0.92072 1.2605 1.88593 235 154 76
-1.01596 1.17301 1.88593 235 154 76
-0.90503 1.09593 1.88593 235 154 76
-1.01596 0.56169 1.88593 235 154 76
-0.90503 0.56169 1.88593 235 154 76
-1.01596 0.43056 1.88593 235 154 76
-1.06503 0.43056 1.82987 234 147 66
-1.01596 0.43056 1.88593 234 147 66
-0.90503 0.56169 1.88593 236 166 100
-0.90503 1.09593 1.88593 236 166 100
-0.15082 1.09593 1.88593 236 166 100
-0.15082 0.56169 1.88593 236 166 100
-0.20099 1.15373 1.88593 236 166 100
-0.85485 1.15373 1.88593 236 166 100
-1.31879 -0.50011 1.42593 234 147 66
-1.42483 -0.40391 1.42593 234 147 66
-1.42483 -0.40391 1.8807 234 147 66
-1.31879 -0.50011 1.8807 234 147 66
-0.48437 -0.50011 1.42593 234 147 66
-0.48437 -0.50011 1.8807 234 147 66
-1.42483 0.40357 1.42593 234 147 66
-1.42483 0.40357 1.8807 234 147 66
-1.31879 0.49976 1.42593 234 147 66
-1.31879 0.49976 1.8807 234 147 66
-0.48437 0.49976 1.8807 234 147 66
-0.48437 0.49976 1.42593 234 147 66
-1.2764 -0.45104 1.93676 234 147 66
-0.48437 -0.45105 1.93676 234 147 66
-1.37378 -0.36126 1.93676 234 147 66
-1.37378 0.36092 1.93676 234 147 66
-1.2764 0.4507 1.93676 234 147 66
-0.48437 0.4507 1.93676 234 147 66
-1.21415 -0.23222 1.93676 235 154 76
-1.37378 -0.36126 1.93676 235 154 76
-1.37378 0.36092 1.93676 235 154 76
-1.21415 0.23188 1.93676 235 154 76
-1.2764 0.4507 1.93676 235 154 76
-1.1487 0.30854 1.93676 235 154 76
-0.48437 0.4507 1.93676 235 154 76
-0.48437 0.30854 1.93676 235 154 76
-1.2764 -0.45104 1.93676 235 154 76
-1.1487 -0.30888 1.93676 235 154 76
-0.48437 -0.30888 1.93676 235 154 76
-0.48437 -0.45105 1.93676 235 154 76
-1.2764 0.4507 1.36987 234 147 66
-1.2764 -0.45104 1.36987 234 147 66
-0.48437 -0.45105 1.36987 234 147 66
-0.48437 0.4507 1.36987 234 147 66
-1.37378 -0.36126 1.36987 234 147 66
-1.37378 0.36092 1.36987 234 147 66
-1.1487 0.30854 1.93676 236 166 100
-1.1487 -0.30888 1.93676 236 166 100
-1.21415 -0.23222 1.93676 236 166 100
-1.21415 0.23188 1.93676 236 166 100
-0.48437 0.30854 1.93676 236 166 100
-0.48437 -0.30888 1.93676 236 166 100
-0.86356 -1.20518 1.43233 234 147 66
-0.86356 -1.20518 1.82987 234 147 66
-0.79881 -1.29444 1.82987 234 147 66
-0.79881 -1.29444 1.43233 234 147 66
0.79881 -1.29444 1.43233 234 147 66
0.79881 -1.29444 1.82987 234 147 66
0.86356 -1.20518 1.43233 234 147 66
0.86356 -1.20518 1.82987 234 147 66
0.86356 -0.56623 1.82987 234 147 66
0.86356 -0.56623 1.43233 234 147 66
-0.75843 -1.2314 1.88593 234 147 66
-0.80599 -1.1628 1.88593 234 147 66
0.75843 -1.2314 1.88593 234 147 66
0.80599 -1.1628 1.88593 234 147 66
0.80599 -0.56623 1.88593 234 147 66
0.86356 -0.42814 1.43233 234 147 66
0.86356 -0.42814 1.82987 234 147 66
-0.80599 -0.56623 1.88593 234 147 66
-0.86356 -0.56623 1.82987 234 147 66
-0.86356 -0.42814 1.82987 234 147 66
-0.86356 -0.42814 1.43233 234 147 66
-0.86356 -0.56623 1.43233 234 147 66
-0.80599 -0.42814 1.88593 234 147 66
0.80599 -0.42814 1.88593 234 147 66
-0.62699 -0.56623 1.88593 235 154 76
-0.80599 -0.56623 1.88593 235 154 76
-0.80599 -0.42814 1.88593 235 154 76
-0.80599 -1.1628 1.88593 235 154 76
-0.62699 -1.00871 1.88593 235 154 76
-0.57558 -1.07338 1.88593 235 154 76
-0.75843 -1.2314 1.88593 235 154 76
0.57558 -1.07338 1.88593 235 154 76
0.75843 -1.2314 1.88593 235 154 76
0.80599 -1.1628 1.88593 235 154 76
0.62699 -1.00871 1.88593 235 154 76
0.80599 -0.56623 1.88593 235 154 76
0.62699 -0.56623 1.88593 235 154 76
0.80599 -0.42814 1.88593 235 154 76
0.80599 -1.1628 1.37627 234 147 66
0.80599 -0.56623 1.37627 234 147 66
-0.80599 -0.56623 1.37627 234 147 66
-0.80599 -1.1628 1.37627 234 147 66
-0.75843 -1.2314 1.37627 234 147 66
0.75843 -1.2314 1.37627 234 147 66
-0.80599 -0.42814 1.37627 234 147 66
0.80599 -0.42814 1.37627 234 147 66
0.62699 -0.56623 1.88593 236 166 100
0.62699 -1.00871 1.88593 236 166 100
-0.62699 -1.00871 1.88593 236 166 100
-0.62699 -0.56623 1.88593 236 166 100
-0.57558 -1.07338 1.88593 236 166 100
0.57558 -1.07338 1.88593 236 166 100
0.69489 -0.22794 1.92678 253 209 163
0.69489 -0.22794 1.9462 253 209 163
0.82875 -0.22794 1.9462 253 209 163
0.82875 -0.22794 1.92678 253 209 163
0.82875 -0.09407 1.9462 253 209 163
0.82875 -0.09407 1.92678 253 209 163
0.69489 -0.09407 1.92678 253 209 163
0.69489 -0.09407 1.9462 253 209 163
0.89649 0.01229 1.92678 253 209 163
0.89649 0.01229 1.94829 253 209 163
1.10479 0.01229 1.94829 253 209 163
1.10479 0.01229 1.92678 253 209 163
1.10479 0.2206 1.94829 253 209 163
1.10479 0.2206 1.92678 253 209 163
0.89649 0.2206 1.92678 253 209 163
0.89649 0.2206 1.94829 253 209 163
-1.02601 -0.04882 1.92678 253 209 163
-1.02601 -0.04882 1.9462 253 209 163
-0.89215 -0.04882 1.9462 253 209 163
-0.89215 -0.04882 1.92678 253 209 163
-0.89215 0.08504 1.9462 253 209 163
-0.89215 0.08504 1.92678 253 209 163
-1.02601 0.08504 1.92678 253 209 163
-1.02601 0.08504 1.9462 253 209 163
-0.37136 -0.94298 1.87682 253 209 163
-0.37136 -0.94298 1.89834 253 209 163
-0.16305 -0.94298 1.89834 253 209 163
-0.16305 -0.94298 1.87682 253 209 163
-0.16305 -0.73468 1.89834 253 209 163
-0.37136 -0.73468 1.89834 253 209 163
-0.16305 -0.73468 1.87682 253 209 163
-0.37136 -0.73468 1.87682 253 209 163
0.31559 -1.0041 1.87682 253 209 163
0.31559 -1.0041 1.89625 253 209 163
0.44945 -1.0041 1.89625 253 209 163
0.44945 -1.0041 1.87682 253 209 163
0.44945 -0.87023 1.89625 253 209 163
0.31559 -0.87023 1.89625 253 209 163
0.44945 -0.87023 1.87682 253 209 163
0.31559 -0.87023 1.87682 253 209 163
-0.4395 0.95211 1.87571 253 209 163
-0.4395 0.95211 1.89513 253 209 163
-0.30564 0.95211 1.89513 253 209 163
-0.30564 0.95211 1.87571 253 209 163
-0.30564 1.08597 1.89513 253 209 163
-0.4395 1.08597 1.89513 253 209 163
-0.30564 1.08597 1.87571 253 209 163
-0.4395 1.08597 1.87571 253 209 163
0.61763 0.6571 1.87571 253 209 163
0.61763 0.6571 1.89513 253 209 163
0.75149 0.6571 1.89513 253 209 163
0.75149 0.6571 1.87571 253 209 163
0.75149 0.79096 1.89513 253 209 163
0.61763 0.79096 1.89513 253 209 163
0.75149 0.79096 1.87571 253 209 163
0.61763 0.79096 1.87571 253 209 163
0.32261 0.76246 1.87571 253 209 163
0.32261 0.76246 1.89513 253 209 163
0.45648 0.76246 1.89513 253 209 163
0.45648 0.76246 1.87571 253 209 163
0.45648 0.89632 1.89513 253 209 163
0.32261 0.89632 1.89513 253 209 163
0.45648 0.89632 1.87571 253 209 163
0.32261 0.89632 1.87571 253 209 163
-0.76471 0.655 1.87571 253 209 163
-0.76471 0.655 1.89722 253 209 163
-0.5564 0.655 1.89722 253 209 163
-0.5564 0.655 1.87571 253 209 163
-0.5564 0.8633 1.89722 253 209 163
-0.76471 0.8633 1.89722 253 209 163
-0.5564 0.8633 1.87571 253 209 163
-0.76471 0.8633 1.87571 253 209 163
-0.08829 -0.78986 1.87682 253 209 163
-0.08829 -0.78986 1.89625 253 209 163
0.04557 -0.78986 1.89625 253 209 163
0.04557 -0.78986 1.87682 253 209 163
0.04557 -0.656 1.89625 253 209 163
-0.08829 -0.656 1.89625 253 209 163
0.04557 -0.656 1.87682 253 209 163
-0.08829 -0.656 1.87682 253 209 163
-0.17365 -0.6383 0.00898 83 141 79
-0.29847 -0.63849 0.00898 83 141 79
-0.29847 -0.63849 0.15457 83 141 79
-0.17365 -0.6383 0.15457 83 141 79
-0.14941 -0.60837 0.00898 83 141 79
-0.32284 -0.60867 0.00898 83 141 79
-0.15068 0.09914 0.00898 83 141 79
-0.32411 0.09884 0.00898 83 141 79
-0.32284 -0.60867 0.15457 83 141 79
-0.32382 -0.07453 0.15457 83 141 79
-0.32413 0.0989 0.31 83 141 79
-0.32382 -0.07453 0.31 83 141 79
-0.15039 -0.07422 0.15457 83 141 79
-0.15039 -0.07422 0.31 83 141 79
-0.14941 -0.60837 0.15457 83 141 79
-0.30375 0.12906 0.00897 83 141 79
-0.30378 0.12912 0.30999 83 141 79
-0.17116 0.12935 0.30999 83 141 79
-0.17113 0.12929 0.00897 83 141 79
-0.1507 0.09921 0.31 83 141 79
-0.32382 -0.07453 0.15457 86 147 82
-0.15039 -0.07422 0.15457 86 147 82
-0.14941 -0.60837 0.15457 86 147 82
-0.32284 -0.60867 0.15457 86 147 82
-0.17365 -0.6383 0.15457 86 147 82
-0.29847 -0.63849 0.15457 86 147 82
3 0 2 1
3 0 3 2
3 4 3 0
3 4 5 3
3 5 2 3
3 6 5 4
3 6 7 5
3 7 8 5
3 5 8 2
3 7 9 8
3 9 7 10
3 9 10 11
3 12 9 11
3 12 11 13
3 14 4 0
3 14 0 1
3 10 7 15
3 10 15 16
3 17 16 15
3 17 15 18
3 7 18 15
3 7 6 18
3 6 17 18
3 6 19 17
3 19 12 13
3 19 6 12
3 12 6 4
3 12 4 14
3 20 22 21
3 20 23 22
3 21 22 24
3 21 24 25
3 26 28 27
3 26 29 28
3 30 29 26
3 30 31 29
3 29 31 32
3 29 32 33
3 28 29 33
3 28 33 34
3 35 37 36
3 35 38 37
3 37 38 39
3 37 39 40
3 41 31 30
3 41 42 31
3 31 42 43
3 31 43 32
3 33 32 43
3 33 43 34
3 44 46 45
3 44 47 46
3 48 44 45
3 48 45 49
3 45 50 49
3 45 51 50
3 46 51 45
3 46 52 51
3 53 55 54
3 53 56 55
3 55 57 54
3 55 58 57
3 59 49 60
3 59 48 49
3 49 61 60
3 49 50 61
3 51 61 50
3 51 52 61
3 62 64 63
3 62 65 64
3 66 62 63
3 66 63 67
3 67 68 66
3 67 69 68
3 70 64 65
3 70 71 64
3 68 69 72
3 68 72 73
3 73 72 74
3 73 74 75
3 76 75 74
3 76 74 77
3 78 76 77
3 78 79 76
3 79 70 65
3 79 65 80
3 79 80 81
3 76 79 81
3 66 68 82
3 68 83 82
3 68 73 83
3 84 82 83
3 73 84 83
3 73 75 84
3 84 85 82
3 66 82 85
3 62 66 85
3 62 85 86
3 81 80 86
3 65 86 80
3 65 62 86
3 75 87 84
3 75 76 87
3 76 81 87
3 81 86 87
3 87 85 84
3 87 86 85
3 79 78 88
3 64 88 78
3 64 71 88
3 79 88 89
3 79 89 70
3 90 92 91
3 90 93 92
3 94 93 90
3 94 95 93
3 95 92 93
3 95 96 92
3 96 91 92
3 96 97 91
3 97 90 91
3 97 94 90
3 98 100 99
3 98 101 100
3 102 104 103
3 102 105 104
3 106 104 105
3 106 107 104
3 108 102 103
3 108 109 102
3 106 105 110
3 106 110 111
3 105 112 110
3 105 102 112
3 102 113 112
3 102 109 113
3 109 111 113
3 109 106 111
3 108 106 109
3 108 107 106
3 114 116 115
3 114 117 116
3 118 120 119
3 118 121 120
3 122 119 120
3 122 120 123
3 124 121 118
3 124 118 125
3 122 126 119
3 122 127 126
3 119 128 118
3 119 126 128
3 118 129 125
3 118 128 129
3 125 129 127
3 125 127 122
3 124 125 122
3 124 122 123
3 130 132 131
3 130 133 132
3 131 132 134
3 131 134 135
3 136 138 137
3 136 139 138
3 140 136 137
3 140 141 136
3 140 142 141
3 140 143 142
3 144 138 139
3 144 145 138
3 146 142 143
3 146 147 142
3 148 145 144
3 148 149 145
3 148 150 149
3 148 151 150
3 150 151 147
3 150 147 146
3 145 149 152
3 145 152 153
3 138 145 153
3 138 153 154
3 137 138 154
3 137 154 155
3 140 137 155
3 140 155 156
3 143 140 156
3 146 143 157
3 143 156 157
3 146 157 158
3 150 146 158
3 149 159 152
3 150 158 159
3 149 150 159
3 160 162 161
3 160 163 162
3 161 162 164
3 161 164 165
3 165 164 166
3 165 166 167
3 168 170 169
3 168 171 170
3 171 172 170
3 171 173 172
3 173 174 172
3 173 175 174
3 175 176 174
3 175 177 176
3 177 178 176
3 177 179 178
3 179 180 178
3 179 181 180
3 181 182 180
3 181 183 182
3 183 169 182
3 183 168 169
3 184 186 185
3 184 187 186
3 187 188 186
3 187 189 188
3 189 190 188
3 189 191 190
3 191 192 190
3 191 193 192
3 193 194 192
3 193 195 194
3 195 196 194
3 195 197 196
3 197 198 196
3 197 199 198
3 199 185 198
3 199 184 185
3 200 202 201
3 200 203 202
3 202 204 201
3 202 205 204
3 205 206 204
3 205 207 206
3 206 207 208
3 206 208 209
3 203 210 202
3 203 211 210
3 202 212 205
3 202 210 212
3 205 213 207
3 205 212 213
3 207 214 208
3 207 213 214
3 208 215 209
3 208 216 215
3 214 216 208
3 217 211 203
3 217 203 218
3 219 217 218
3 219 220 217
3 214 221 216
3 219 218 222
3 219 222 223
3 222 218 203
3 222 203 224
3 203 225 224
3 203 226 225
3 200 226 203
3 200 227 226
3 226 228 225
3 226 229 228
3 226 230 229
3 226 227 230
3 229 230 231
3 229 231 232
3 231 233 232
3 231 234 233
3 229 235 228
3 229 232 235
3 232 236 235
3 232 233 236
3 227 200 237
3 227 237 238
3 230 227 238
3 230 238 239
3 239 238 237
3 200 240 237
3 241 237 240
3 239 237 241
3 241 240 242
3 231 239 241
3 231 230 239
3 242 231 241
3 242 240 243
3 242 243 244
3 245 242 244
3 245 234 242
3 242 234 231
3 233 234 245
3 240 246 243
3 240 247 246
3 248 246 247
3 200 248 247
3 200 247 240
3 200 249 248
3 250 248 249
3 250 251 248
3 201 249 200
3 201 252 249
3 204 252 201
3 204 253 252
3 253 249 252
3 253 250 249
3 206 253 204
3 206 250 253
3 251 250 206
3 251 254 248
3 248 254 246
3 251 255 254
3 215 255 251
3 215 251 209
3 251 206 209
3 256 258 257
3 258 259 257
3 258 260 259
3 260 261 259
3 260 262 261
3 261 262 263
3 261 263 264
3 264 263 265
3 264 265 266
3 265 267 266
3 256 257 267
3 265 268 267
3 256 267 269
3 269 267 268
3 270 272 271
3 270 273 272
3 273 274 272
3 273 275 274
3 276 278 277
3 276 279 278
3 280 276 277
3 280 277 281
3 278 279 282
3 278 282 283
3 283 282 284
3 283 284 285
3 284 286 285
3 284 287 286
3 281 277 288
3 281 288 289
3 277 290 288
3 277 278 290
3 278 291 290
3 278 283 291
3 283 292 291
3 283 285 292
3 285 293 292
3 285 286 293
3 294 296 295
3 294 297 296
3 298 295 296
3 298 299 295
3 299 298 300
3 299 300 301
3 294 302 297
3 294 303 302
3 302 303 304
3 302 304 305
3 306 308 307
3 306 309 308
3 276 308 309
3 279 276 309
3 279 309 310
3 282 279 310
3 282 310 311
3 311 309 306
3 311 310 309
3 276 280 308
3 287 306 307
3 287 284 306
3 284 311 306
3 284 282 311
3 312 314 313
3 312 315 314
3 316 315 312
3 316 317 315
3 318 320 319
3 321 318 319
3 321 322 318
3 323 322 321
3 323 321 324
3 325 323 324
3 325 324 326
3 327 325 326
3 327 328 325
3 329 328 327
3 329 330 328
3 331 330 329
3 331 318 330
3 331 320 318
3 233 245 332
3 236 233 332
3 236 332 333
3 334 336 335
3 334 337 336
3 335 336 338
3 335 338 339
3 340 342 341
3 340 343 342
3 344 343 340
3 344 345 343
3 342 346 341
3 342 347 346
3 347 348 346
3 347 349 348
3 348 349 350
3 348 350 351
3 345 352 343
3 345 353 352
3 343 354 342
3 343 352 354
3 342 355 347
3 342 354 355
3 347 356 349
3 347 355 356
3 349 357 350
3 349 356 357
3 358 360 359
3 358 361 360
3 362 360 361
3 362 361 363
3 363 364 362
3 363 365 364
3 358 359 366
3 358 366 367
3 366 368 367
3 366 369 368
3 370 372 371
3 370 373 372
3 340 371 372
3 341 371 340
3 341 374 371
3 346 374 341
3 346 375 374
3 375 371 374
3 375 370 371
3 340 372 344
3 351 373 370
3 351 370 348
3 348 375 346
3 348 370 375
3 376 378 377
3 376 379 378
3 380 376 377
3 380 377 381
3 382 384 383
3 382 385 384
3 384 385 386
3 384 386 387
3 387 386 388
3 387 388 389
3 388 390 389
3 388 391 390
3 383 384 392
3 383 392 393
3 384 394 392
3 384 387 394
3 387 395 394
3 387 389 395
3 389 396 395
3 389 390 396
3 390 391 397
3 390 397 398
3 396 390 398
3 399 383 393
3 399 400 383
3 401 400 399
3 402 400 401
3 402 403 400
3 401 399 404
3 400 382 383
3 400 403 382
3 396 398 405
3 406 408 407
3 409 406 407
3 409 410 406
3 411 410 409
3 411 409 412
3 413 411 412
3 413 412 414
3 415 413 414
3 415 416 413
3 417 416 415
3 417 418 416
3 419 418 417
3 419 406 418
3 419 408 406
3 420 422 421
3 420 423 422
3 382 422 423
3 385 382 423
3 385 423 424
3 386 385 424
3 386 424 425
3 425 423 420
3 425 424 423
3 382 403 422
3 388 425 420
3 388 386 425
3 421 388 420
3 421 422 426
3 421 426 427
3 397 421 427
3 397 391 421
3 421 391 388
3 422 402 426
3 422 403 402
3 428 430 429
3 428 431 430
3 429 430 432
3 429 432 433
3 434 436 435
3 434 437 436
3 437 438 436
3 437 439 438
3 440 434 435
3 440 435 441
3 435 438 441
3 435 436 438
3 441 438 439
3 441 439 440
3 442 444 443
3 442 445 444
3 445 446 444
3 445 447 446
3 448 442 443
3 449 447 448
3 449 446 447
3 443 446 449
3 443 444 446
3 448 443 449
3 450 452 451
3 450 453 452
3 453 454 452
3 453 455 454
3 456 450 451
3 457 455 456
3 457 454 455
3 451 454 457
3 451 452 454
3 456 451 457
3 458 460 459
3 458 461 460
3 459 460 462
3 461 462 460
3 459 462 463
3 463 462 464
3 461 464 462
3 463 464 465
3 465 459 463
3 465 458 459
3 466 468 467
3 466 469 468
3 467 468 470
3 469 470 468
3 467 470 471
3 471 470 472
3 469 472 470
3 471 472 473
3 473 467 471
3 473 466 467
3 474 476 475
3 474 477 476
3 475 476 478
3 477 478 476
3 475 478 479
3 479 478 480
3 477 480 478
3 479 480 481
3 481 475 479
3 481 474 475
3 482 484 483
3 482 485 484
3 483 484 486
3 485 486 484
3 483 486 487
3 487 486 488
3 485 488 486
3 487 488 489
3 489 483 487
3 489 482 483
3 490 492 491
3 490 493 492
3 491 492 494
3 493 494 492
3 491 494 495
3 495 494 496
3 493 496 494
3 495 496 497
3 497 491 495
3 497 490 491
3 498 500 499
3 498 501 500
3 499 500 502
3 501 502 500
3 499 502 503
3 503 502 504
3 501 504 502
3 503 504 505
3 505 499 503
3 505 498 499
3 506 508 507
3 506 509 508
3 507 508 510
3 509 510 508
3 507 510 511
3 511 510 512
3 509 512 510
3 511 512 513
3 513 507 511
3 513 506 507
3 514 516 515
3 514 517 516
3 518 514 515
3 518 515 519
3 519 515 516
3 520 518 519
3 520 519 521
3 521 519 522
3 519 516 522
3 521 522 523
3 523 524 521
3 523 525 524
3 526 525 523
3 526 527 525
3 528 514 518
3 528 517 514
3 524 529 521
3 524 530 529
3 531 529 530
3 531 532 529
3 521 532 520
3 521 529 532
3 520 532 531
3 520 531 533
3 533 526 520
3 533 527 526
3 526 518 520
3 526 528 518
3 534 536 535
3 534 537 536
3 537 538 536
3 537 539 538
