ply
format ascii 1.0
element vertex 556
property float x
property float y
property float z
property uchar red
property uchar green
property uchar blue
element face 666
property list uchar int vertex_index
end_header
0.17365 -0.6383 0.00898 96 116 152
0.17365 -0.6383 0.15457 96 116 152
0.29847 -0.63849 0.15457 96 116 152
0.29847 -0.63849 0.00898 96 116 152
0.14941 -0.60837 0.00898 96 116 152
0.32284 -0.60867 0.00898 96 116 152
0.15068 0.09914 0.00898 96 116 152
0.32411 0.09884 0.00898 96 116 152
0.32284 -0.60867 0.15457 96 116 152
0.32382 -0.07453 0.15457 96 116 152
0.32413 0.0989 0.31 96 116 152
0.32382 -0.07453 0.31 96 116 152
0.15039 -0.07422 0.15457 96 116 152
0.15039 -0.07422 0.31 96 116 152
0.14941 -0.60837 0.15457 96 116 152
0.30375 0.12906 0.00897 96 116 152
0.30378 0.12912 0.30999 96 116 152
0.17116 0.12935 0.30999 96 116 152
0.17113 0.12929 0.00897 96 116 152
0.1507 0.09921 0.31 96 116 152
0.32382 -0.07453 0.15457 100 121 158
0.32284 -0.60867 0.15457 100 121 158
0.14941 -0.60837 0.15457 100 121 158
0.15039 -0.07422 0.15457 100 121 158
0.17365 -0.6383 0.15457 100 121 158
0.29847 -0.63849 0.15457 100 121 158
0.46928 -0.15227 0.59245 96 116 152
0.46928 -0.15227 0.8104 96 116 152
0.98607 -0.15227 0.8104 96 116 152
0.98607 -0.15227 0.59245 96 116 152
0.46928 0.06568 0.59245 96 116 152
0.98607 0.06568 0.59245 96 116 152
1.04118 0.0348 0.62333 96 116 152
1.04118 -0.1214 0.62333 96 116 152
1.04118 -0.1214 0.77953 96 116 152
0.46928 -0.15227 0.8104 100 121 158
0.46928 0.06568 0.8104 100 121 158
0.98607 0.06568 0.8104 100 121 158
0.98607 -0.15227 0.8104 100 121 158
1.04118 -0.1214 0.77953 100 121 158
1.04118 0.0348 0.77953 100 121 158
0.46928 0.06568 0.8104 96 116 152
0.98607 0.06568 0.8104 96 116 152
1.04118 0.0348 0.77953 96 116 152
-0.46928 -0.15227 0.59245 96 116 152
-0.98607 -0.15227 0.59245 96 116 152
-0.98607 -0.15227 0.8104 96 116 152
-0.46928 -0.15227 0.8104 96 116 152
-0.46928 0.06568 0.59245 96 116 152
-0.98607 0.06568 0.59245 96 116 152
-1.04118 0.0348 0.62333 96 116 152
-1.04118 -0.1214 0.62333 96 116 152
-1.04118 -0.1214 0.77953 96 116 152
-0.46928 -0.15227 0.8104 100 121 158
-0.98607 -0.15227 0.8104 100 121 158
-0.98607 0.06568 0.8104 100 121 158
-0.46928 0.06568 0.8104 100 121 158
-1.04118 -0.1214 0.77953 100 121 158
-1.04118 0.0348 0.77953 100 121 158
-0.46928 0.06568 0.8104 96 116 152
-0.98607 0.06568 0.8104 96 116 152
-1.04118 0.0348 0.77953 96 116 152
-0.6036 -0.52312 0.34159 96 116 152
-0.6036 -0.52312 1.40544 96 116 152
-0.52492 -0.6036 1.40544 96 116 152
-0.52492 -0.6036 0.34159 96 116 152
-0.6036 0.52312 0.34159 96 116 152
-0.6036 0.52312 1.40544 96 116 152
-0.52492 0.6036 0.34159 96 116 152
-0.52492 0.6036 1.40544 96 116 152
-0.13114 -0.6036 0.87227 96 116 152
-0.13114 -0.6036 0.99774 96 116 152
0.52492 0.6036 1.40544 96 116 152
0.52492 0.6036 0.34159 96 116 152
0.6036 0.52312 1.40544 96 116 152
0.6036 0.52312 0.34159 96 116 152
0.6036 -0.52312 0.34159 96 116 152
0.6036 -0.52312 1.40544 96 116 152
0.52492 -0.6036 1.40544 96 116 152
0.52492 -0.6036 0.34159 96 116 152
-0.47243 -0.54324 0.28279 96 116 152
0.47243 -0.54324 0.28279 96 116 152
-0.47243 0.54324 0.28279 96 116 152
0.47243 0.54324 0.28279 96 116 152
0.54324 0.47081 0.28279 96 116 152
-0.54324 0.47081 0.28279 96 116 152
-0.54324 -0.47081 0.28279 96 116 152
0.54324 -0.47081 0.28279 96 116 152
0.13114 -0.6036 0.99774 96 116 152
0.13114 -0.6036 0.87227 96 116 152
0.13114 -0.53205 0.87227 76 34 35
-0.13114 -0.53205 0.87227 76 34 35
-0.13114 -0.53205 0.99774 76 34 35
0.13114 -0.53205 0.99774 76 34 35
0.13114 -0.6036 0.87227 76 34 35
0.13114 -0.6036 0.99774 76 34 35
-0.13114 -0.6036 0.99774 76 34 35
-0.13114 -0.6036 0.87227 76 34 35
0.16983 -0.63429 1.04907 214 138 137
0.16983 -0.63429 1.10639 214 138 137
0.22714 -0.63429 1.10639 214 138 137
0.22714 -0.63429 1.04907 214 138 137
0.15251 -0.63429 1.1237 140 73 72
0.15251 -0.60075 1.1237 140 73 72
0.24446 -0.60075 1.1237 140 73 72
0.24446 -0.63429 1.1237 140 73 72
0.24446 -0.63429 1.03175 140 73 72
0.24446 -0.60075 1.03175 140 73 72
0.15251 -0.60075 1.03175 140 73 72
0.15251 -0.63429 1.03175 140 73 72
0.22714 -0.63429 1.10639 140 73 72
0.22714 -0.63429 1.04907 140 73 72
0.16983 -0.63429 1.10639 140 73 72
0.16983 -0.63429 1.04907 140 73 72
-0.16983 -0.63429 1.04907 214 138 137
-0.22714 -0.63429 1.04907 214 138 137
-0.22714 -0.63429 1.10639 214 138 137
-0.16983 -0.63429 1.10639 214 138 137
-0.15251 -0.63429 1.1237 140 73 72
-0.24446 -0.63429 1.1237 140 73 72
-0.24446 -0.60075 1.1237 140 73 72
-0.15251 -0.60075 1.1237 140 73 72
-0.24446 -0.63429 1.03175 140 73 72
-0.24446 -0.60075 1.03175 140 73 72
-0.15251 -0.60075 1.03175 140 73 72
-0.15251 -0.63429 1.03175 140 73 72
-0.22714 -0.63429 1.10639 140 73 72
-0.22714 -0.63429 1.04907 140 73 72
-0.16983 -0.63429 1.10639 140 73 72
-0.16983 -0.63429 1.04907 140 73 72
-0.1393 -0.58759 0.83342 124 56 57
-0.1393 -0.58759 0.90778 124 56 57
0.1393 -0.58759 0.90778 124 56 57
0.1393 -0.58759 0.83342 124 56 57
0.1393 -0.52263 0.90778 124 56 57
-0.1393 -0.52263 0.90778 124 56 57
0.44893 -0.58029 1.87425 217 102 119
0.44893 -0.58029 1.9685 217 102 119
0.58021 -0.46052 1.9685 217 102 119
0.58021 -0.46052 1.87425 217 102 119
-0.44893 -0.58029 1.87425 217 102 119
-0.44893 -0.58029 1.9685 217 102 119
-0.58021 -0.46052 1.87425 217 102 119
-0.58021 -0.46052 1.9685 217 102 119
0.58021 0.46052 1.9685 217 102 119
0.58021 0.46052 1.87425 217 102 119
0.44893 0.58029 1.9685 217 102 119
0.44893 0.58029 1.87425 217 102 119
-0.44893 0.58029 1.9685 217 102 119
-0.44893 0.58029 1.87425 217 102 119
-0.58021 0.46052 1.87425 217 102 119
-0.58021 0.46052 1.9685 217 102 119
-0.34916 0.27714 2.01823 207 159 121
-0.27016 0.34921 2.01823 207 159 121
-0.27016 -0.34921 2.01823 207 159 121
-0.34916 -0.27714 2.01823 207 159 121
0.27016 -0.34921 2.01823 207 159 121
0.27016 0.34921 2.01823 207 159 121
0.34916 -0.27714 2.01823 207 159 121
0.34916 0.27714 2.01823 207 159 121
-0.44893 -0.58029 2.02503 210 143 68
-0.44893 -0.58029 1.9685 210 143 68
-0.58021 -0.46052 1.9685 210 143 68
-0.58021 -0.46052 2.02503 210 143 68
0.44893 -0.58029 2.02503 210 143 68
0.44893 -0.58029 1.9685 210 143 68
0.58021 -0.46052 2.02503 210 143 68
0.58021 -0.46052 1.9685 210 143 68
-0.58021 0.46052 1.9685 210 143 68
-0.58021 0.46052 2.02503 210 143 68
0.58021 0.46052 1.9685 210 143 68
0.58021 0.46052 2.02503 210 143 68
0.44893 0.58029 1.9685 210 143 68
0.44893 0.58029 2.02503 210 143 68
0.53049 0.42106 2.06866 210 143 68
0.53049 -0.42106 2.06866 210 143 68
0.41046 -0.53056 2.06866 210 143 68
-0.41046 -0.53056 2.06866 210 143 68
-0.53049 -0.42106 2.06866 210 143 68
-0.53049 0.42106 2.06866 210 143 68
0.41046 0.53056 2.06866 210 143 68
-0.41046 0.53056 2.06866 210 143 68
-0.44893 0.58029 2.02503 210 143 68
-0.44893 0.58029 1.9685 210 143 68
-0.53049 0.42106 2.06866 220 150 71
-0.38452 0.3052 2.06866 220 150 71
-0.38452 -0.3052 2.06866 220 150 71
-0.53049 -0.42106 2.06866 220 150 71
-0.29751 -0.38457 2.06866 220 150 71
-0.41046 -0.53056 2.06866 220 150 71
0.29751 -0.38457 2.06866 220 150 71
0.41046 -0.53056 2.06866 220 150 71
0.38452 -0.3052 2.06866 220 150 71
0.53049 -0.42106 2.06866 220 150 71
0.38452 0.3052 2.06866 220 150 71
0.53049 0.42106 2.06866 220 150 71
0.29751 0.38457 2.06866 220 150 71
0.41046 0.53056 2.06866 220 150 71
-0.29751 0.38457 2.06866 220 150 71
-0.41046 0.53056 2.06866 220 150 71
-0.38452 0.3052 2.06866 112 90 99
-0.34916 0.27714 2.01823 112 90 99
-0.34916 -0.27714 2.01823 112 90 99
-0.38452 -0.3052 2.06866 112 90 99
-0.27016 -0.34921 2.01823 112 90 99
-0.29751 -0.38457 2.06866 112 90 99
0.27016 -0.34921 2.01823 112 90 99
0.29751 -0.38457 2.06866 112 90 99
0.34916 -0.27714 2.01823 112 90 99
0.38452 -0.3052 2.06866 112 90 99
0.34916 0.27714 2.01823 112 90 99
0.38452 0.3052 2.06866 112 90 99
0.27016 0.34921 2.01823 112 90 99
0.29751 0.38457 2.06866 112 90 99
-0.27016 0.34921 2.01823 112 90 99
-0.29751 0.38457 2.06866 112 90 99
0 1.21539 1.43233 217 102 119
0.09478 1.31154 1.43233 217 102 119
0.09478 1.31154 1.82987 217 102 119
0 1.21539 1.82987 217 102 119
0.95024 1.31154 1.43233 217 102 119
0.95024 1.31154 1.82987 217 102 119
1.06503 1.21539 1.43233 217 102 119
1.06503 1.21539 1.82987 217 102 119
1.06503 0.56169 1.82987 217 102 119
1.06503 0.56169 1.43233 217 102 119
0.12424 1.2605 1.88593 217 102 119
0.03988 1.17301 1.88593 217 102 119
0.92072 1.2605 1.88593 217 102 119
1.01596 1.17301 1.88593 217 102 119
1.01596 0.56169 1.88593 217 102 119
1.06503 0.43056 1.43233 217 102 119
1.06503 0.43056 1.82987 217 102 119
0.03988 0.56169 1.88593 217 102 119
0 0.56169 1.82987 217 102 119
0 0.43056 1.82987 217 102 119
0.03988 0.43056 1.88593 217 102 119
0.15082 0.56169 1.88593 217 102 119
0.90503 0.56169 1.88593 217 102 119
1.01596 0.43056 1.88593 217 102 119
-0.03988 0.56169 1.88593 217 102 119
-0.03988 0.43056 1.88593 217 102 119
-1.01596 0.43056 1.88593 217 102 119
-0.15082 0.56169 1.88593 217 102 119
-0.90503 0.56169 1.88593 217 102 119
-1.01596 0.56169 1.88593 217 102 119
-0.03988 1.17301 1.88593 217 102 119
-0.12424 1.2605 1.88593 217 102 119
-0.09478 1.31154 1.82987 217 102 119
-0.09478 1.31154 1.43233 217 102 119
-0.92072 1.2605 1.88593 217 102 119
-0.95024 1.31154 1.82987 217 102 119
-0.95024 1.31154 1.43233 217 102 119
-1.06503 1.21539 1.43233 217 102 119
-1.06503 1.21539 1.82987 217 102 119
-1.06503 0.56169 1.82987 217 102 119
-1.06503 0.56169 1.43233 217 102 119
-1.01596 1.17301 1.88593 217 102 119
-0.03988 1.17301 1.37627 217 102 119
-0.12424 1.2605 1.37627 217 102 119
-0.92072 1.2605 1.37627 217 102 119
-0.03988 0.56169 1.37627 217 102 119
-1.01596 1.17301 1.37627 217 102 119
-1.01596 0.56169 1.37627 217 102 119
-0.03988 0.43056 1.37627 217 102 119
-1.01596 0.43056 1.37627 217 102 119
-1.06503 0.43056 1.43233 217 102 119
-1.06503 0.43056 1.82987 217 102 119
0 0.43056 1.43233 217 102 119
0 0.56169 1.43233 217 102 119
0.03988 0.56169 1.37627 217 102 119
0.03988 1.17301 1.37627 217 102 119
1.01596 1.17301 1.37627 217 102 119
1.01596 0.56169 1.37627 217 102 119
0.12424 1.2605 1.37627 217 102 119
0.92072 1.2605 1.37627 217 102 119
0.03988 0.43056 1.37627 217 102 119
1.01596 0.43056 1.37627 217 102 119
0.85485 1.15373 1.88593 225 106 123
0.20099 1.15373 1.88593 225 106 123
0.12424 1.2605 1.88593 225 106 123
0.92072 1.2605 1.88593 225 106 123
1.01596 1.17301 1.88593 225 106 123
0.90503 1.09593 1.88593 225 106 123
1.01596 0.56169 1.88593 225 106 123
0.90503 0.56169 1.88593 225 106 123
0.03988 1.17301 1.88593 225 106 123
0.15082 1.09593 1.88593 225 106 123
0.15082 0.56169 1.88593 225 106 123
0.03988 0.56169 1.88593 225 106 123
0.90503 0.56169 1.88593 230 127 142
0.15082 0.56169 1.88593 230 127 142
0.15082 1.09593 1.88593 230 127 142
0.90503 1.09593 1.88593 230 127 142
0.20099 1.15373 1.88593 230 127 142
0.85485 1.15373 1.88593 230 127 142
1.31879 -0.50011 1.42593 217 102 119
1.31879 -0.50011 1.8807 217 102 119
1.42483 -0.40391 1.8807 217 102 119
1.42483 -0.40391 1.42593 217 102 119
0.48437 -0.50011 1.42593 217 102 119
0.48437 -0.50011 1.8807 217 102 119
1.42483 0.40357 1.42593 217 102 119
1.42483 0.40357 1.8807 217 102 119
1.31879 0.49976 1.42593 217 102 119
1.31879 0.49976 1.8807 217 102 119
0.48437 0.49976 1.8807 217 102 119
0.48437 0.49976 1.42593 217 102 119
1.2764 -0.45104 1.93676 217 102 119
0.48437 -0.45105 1.93676 217 102 119
1.37378 -0.36126 1.93676 217 102 119
1.37378 0.36092 1.93676 217 102 119
1.2764 0.4507 1.93676 217 102 119
0.48437 0.4507 1.93676 217 102 119
1.21415 -0.23222 1.93676 225 106 123
1.21415 0.23188 1.93676 225 106 123
1.37378 0.36092 1.93676 225 106 123
1.37378 -0.36126 1.93676 225 106 123
1.2764 0.4507 1.93676 225 106 123
1.1487 0.30854 1.93676 225 106 123
0.48437 0.4507 1.93676 225 106 123
0.48437 0.30854 1.93676 225 106 123
1.2764 -0.45104 1.93676 225 106 123
1.1487 -0.30888 1.93676 225 106 123
0.48437 -0.30888 1.93676 225 106 123
0.48437 -0.45105 1.93676 225 106 123
1.2764 0.4507 1.36987 217 102 119
0.48437 0.4507 1.36987 217 102 119
0.48437 -0.45105 1.36987 217 102 119
1.2764 -0.45104 1.36987 217 102 119
1.37378 -0.36126 1.36987 217 102 119
1.37378 0.36092 1.36987 217 102 119
1.1487 0.30854 1.93676 230 127 142
1.21415 0.23188 1.93676 230 127 142
1.21415 -0.23222 1.93676 230 127 142
1.1487 -0.30888 1.93676 230 127 142
0.48437 0.30854 1.93676 230 127 142
0.48437 -0.30888 1.93676 230 127 142
-0.85485 1.15373 1.88593 225 106 123
-0.92072 1.2605 1.88593 225 106 123
-0.12424 1.2605 1.88593 225 106 123
-0.20099 1.15373 1.88593 225 106 123
-1.01596 1.17301 1.88593 225 106 123
-0.90503 1.09593 1.88593 225 106 123
-1.01596 0.56169 1.88593 225 106 123
-0.90503 0.56169 1.88593 225 106 123
-0.03988 1.17301 1.88593 225 106 123
-0.15082 1.09593 1.88593 225 106 123
-0.15082 0.56169 1.88593 225 106 123
-0.03988 0.56169 1.88593 225 106 123
-0.90503 0.56169 1.88593 230 127 142
-0.90503 1.09593 1.88593 230 127 142
-0.15082 1.09593 1.88593 230 127 142
-0.15082 0.56169 1.88593 230 127 142
-0.20099 1.15373 1.88593 230 127 142
-0.85485 1.15373 1.88593 230 127 142
-1.31879 -0.50011 1.42593 217 102 119
-1.42483 -0.40391 1.42593 217 102 119
-1.42483 -0.40391 1.8807 217 102 119
-1.31879 -0.50011 1.8807 217 102 119
-0.48437 -0.50011 1.42593 217 102 119
-0.48437 -0.50011 1.8807 217 102 119
-1.42483 0.40357 1.42593 217 102 119
-1.42483 0.40357 1.8807 217 102 119
-1.31879 0.49976 1.42593 217 102 119
-1.31879 0.49976 1.8807 217 102 119
-0.48437 0.49976 1.8807 217 102 119
-0.48437 0.49976 1.42593 217 102 119
-1.2764 -0.45104 1.93676 217 102 119
-0.48437 -0.45105 1.93676 217 102 119
-1.37378 -0.36126 1.93676 217 102 119
-1.37378 0.36092 1.93676 217 102 119
-1.2764 0.4507 1.93676 217 102 119
-0.48437 0.4507 1.93676 217 102 119
-1.21415 -0.23222 1.93676 225 106 123
-1.37378 -0.36126 1.93676 225 106 123
-1.37378 0.36092 1.93676 225 106 123
-1.21415 0.23188 1.93676 225 106 123
-1.2764 0.4507 1.93676 225 106 123
-1.1487 0.30854 1.93676 225 106 123
-0.48437 0.4507 1.93676 225 106 123
-0.48437 0.30854 1.93676 225 106 123
-1.2764 -0.45104 1.93676 225 106 123
-1.1487 -0.30888 1.93676 225 106 123
-0.48437 -0.30888 1.93676 225 106 123
-0.48437 -0.45105 1.93676 225 106 123
-1.2764 0.4507 1.36987 217 102 119
-1.2764 -0.45104 1.36987 217 102 119
-0.48437 -0.45105 1.36987 217 102 119
-0.48437 0.4507 1.36987 217 102 119
-1.37378 -0.36126 1.36987 217 102 119
-1.37378 0.36092 1.36987 217 102 119
-1.1487 0.30854 1.93676 230 127 142
-1.1487 -0.30888 1.93676 230 127 142
-1.21415 -0.23222 1.93676 230 127 142
-1.21415 0.23188 1.93676 230 127 142
-0.48437 0.30854 1.93676 230 127 142
-0.48437 -0.30888 1.93676 230 127 142
-0.86356 -1.20518 1.43233 217 102 119
-0.86356 -1.20518 1.82987 217 102 119
-0.79881 -1.29444 1.82987 217 102 119
-0.79881 -1.29444 1.43233 217 102 119
0.79881 -1.29444 1.43233 217 102 119
0.79881 -1.29444 1.82987 217 102 119
0.86356 -1.20518 1.43233 217 102 119
0.86356 -1.20518 1.82987 217 102 119
0.86356 -0.56623 1.82987 217 102 119
0.86356 -0.56623 1.43233 217 102 119
-0.75843 -1.2314 1.88593 217 102 119
-0.80599 -1.1628 1.88593 217 102 119
0.75843 -1.2314 1.88593 217 102 119
0.80599 -1.1628 1.88593 217 102 119
0.80599 -0.56623 1.88593 217 102 119
0.86356 -0.42814 1.43233 217 102 119
0.86356 -0.42814 1.82987 217 102 119
-0.80599 -0.56623 1.88593 217 102 119
0.80599 -0.42814 1.88593 217 102 119
-0.80599 -0.42814 1.88593 217 102 119
-0.62699 -0.56623 1.88593 217 102 119
0.62699 -0.56623 1.88593 217 102 119
-0.86356 -0.42814 1.82987 217 102 119
-0.86356 -0.56623 1.82987 217 102 119
-0.86356 -0.42814 1.43233 217 102 119
-0.86356 -0.56623 1.43233 217 102 119
0.80599 -1.1628 1.37627 217 102 119
0.80599 -0.56623 1.37627 217 102 119
-0.80599 -0.56623 1.37627 217 102 119
-0.80599 -1.1628 1.37627 217 102 119
-0.75843 -1.2314 1.37627 217 102 119
0.75843 -1.2314 1.37627 217 102 119
-0.80599 -0.42814 1.37627 217 102 119
0.80599 -0.42814 1.37627 217 102 119
0.80599 -1.1628 1.88593 225 106 123
0.75843 -1.2314 1.88593 225 106 123
0.57558 -1.07338 1.88593 225 106 123
0.62699 -1.00871 1.88593 225 106 123
0.80599 -0.56623 1.88593 225 106 123
0.62699 -0.56623 1.88593 225 106 123
-0.75843 -1.2314 1.88593 225 106 123
-0.57558 -1.07338 1.88593 225 106 123
-0.80599 -1.1628 1.88593 225 106 123
-0.62699 -1.00871 1.88593 225 106 123
-0.62699 -0.56623 1.88593 225 106 123
-0.80599 -0.56623 1.88593 225 106 123
0.62699 -0.56623 1.88593 230 127 142
0.62699 -1.00871 1.88593 230 127 142
-0.62699 -1.00871 1.88593 230 127 142
-0.62699 -0.56623 1.88593 230 127 142
-0.57558 -1.07338 1.88593 230 127 142
0.57558 -1.07338 1.88593 230 127 142
0.69489 -0.22794 1.92678 255 188 197
0.69489 -0.22794 1.9462 255 188 197
0.82875 -0.22794 1.9462 255 188 197
0.82875 -0.22794 1.92678 255 188 197
0.82875 -0.09407 1.9462 255 188 197
0.82875 -0.09407 1.92678 255 188 197
0.69489 -0.09407 1.92678 255 188 197
0.69489 -0.09407 1.9462 255 188 197
0.89649 0.01229 1.92678 255 188 197
0.89649 0.01229 1.94829 255 188 197
1.10479 0.01229 1.94829 255 188 197
1.10479 0.01229 1.92678 255 188 197
1.10479 0.2206 1.94829 255 188 197
1.10479 0.2206 1.92678 255 188 197
0.89649 0.2206 1.92678 255 188 197
0.89649 0.2206 1.94829 255 188 197
-1.02601 -0.04882 1.92678 255 188 197
-1.02601 -0.04882 1.9462 255 188 197
-0.89215 -0.04882 1.9462 255 188 197
-0.89215 -0.04882 1.92678 255 188 197
-0.89215 0.08504 1.9462 255 188 197
-0.89215 0.08504 1.92678 255 188 197
-1.02601 0.08504 1.92678 255 188 197
-1.02601 0.08504 1.9462 255 188 197
-0.37136 -0.94298 1.87682 255 188 197
-0.37136 -0.94298 1.89834 255 188 197
-0.16305 -0.94298 1.89834 255 188 197
-0.16305 -0.94298 1.87682 255 188 197
-0.16305 -0.73468 1.89834 255 188 197
-0.37136 -0.73468 1.89834 255 188 197
-0.16305 -0.73468 1.87682 255 188 197
-0.37136 -0.73468 1.87682 255 188 197
0.31559 -1.0041 1.87682 255 188 197
0.31559 -1.0041 1.89625 255 188 197
0.44945 -1.0041 1.89625 255 188 197
0.44945 -1.0041 1.87682 255 188 197
0.44945 -0.87023 1.89625 255 188 197
0.31559 -0.87023 1.89625 255 188 197
0.44945 -0.87023 1.87682 255 188 197
0.31559 -0.87023 1.87682 255 188 197
-0.4395 0.95211 1.87571 255 188 197
-0.4395 0.95211 1.89513 255 188 197
-0.30564 0.95211 1.89513 255 188 197
-0.30564 0.95211 1.87571 255 188 197
-0.30564 1.08597 1.89513 255 188 197
-0.4395 1.08597 1.89513 255 188 197
-0.30564 1.08597 1.87571 255 188 197
-0.4395 1.08597 1.87571 255 188 197
0.61763 0.6571 1.87571 255 188 197
0.61763 0.6571 1.89513 255 188 197
0.75149 0.6571 1.89513 255 188 197
0.75149 0.6571 1.87571 255 188 197
0.75149 0.79096 1.89513 255 188 197
0.61763 0.79096 1.89513 255 188 197
0.75149 0.79096 1.87571 255 188 197
0.61763 0.79096 1.87571 255 188 197
0.32261 0.76246 1.87571 255 188 197
0.32261 0.76246 1.89513 255 188 197
0.45648 0.76246 1.89513 255 188 197
0.45648 0.76246 1.87571 255 188 197
0.45648 0.89632 1.89513 255 188 197
0.32261 0.89632 1.89513 255 188 197
0.45648 0.89632 1.87571 255 188 197
0.32261 0.89632 1.87571 255 188 197
-0.76471 0.655 1.87571 255 188 197
-0.76471 0.655 1.89722 255 188 197
-0.5564 0.655 1.89722 255 188 197
-0.5564 0.655 1.87571 255 188 197
-0.5564 0.8633 1.89722 255 188 197
-0.76471 0.8633 1.89722 255 188 197
-0.5564 0.8633 1.87571 255 188 197
-0.76471 0.8633 1.87571 255 188 197
-0.08829 -0.78986 1.87682 255 188 197
-0.08829 -0.78986 1.89625 255 188 197
0.04557 -0.78986 1.89625 255 188 197
0.04557 -0.78986 1.87682 255 188 197
0.04557 -0.656 1.89625 255 188 197
-0.08829 -0.656 1.89625 255 188 197
0.04557 -0.656 1.87682 255 188 197
-0.08829 -0.656 1.87682 255 188 197
-0.17365 -0.6383 0.00898 96 116 152
-0.29847 -0.63849 0.00898 96 116 152
-0.29847 -0.63849 0.15457 96 116 152
-0.17365 -0.6383 0.15457 96 116 152
-0.14941 -0.60837 0.00898 96 116 152
-0.32284 -0.60867 0.00898 96 116 152
-0.15068 0.09914 0.00898 96 116 152
-0.32411 0.09884 0.00898 96 116 152
-0.32284 -0.60867 0.15457 96 116 152
-0.32382 -0.07453 0.15457 96 116 152
-0.32413 0.0989 0.31 96 116 152
-0.32382 -0.07453 0.31 96 116 152
-0.15039 -0.07422 0.15457 96 116 152
-0.15039 -0.07422 0.31 96 116 152
-0.14941 -0.60837 0.15457 96 116 152
-0.30375 0.12906 0.00897 96 116 152
-0.30378 0.12912 0.30999 96 116 152
-0.17116 0.12935 0.30999 96 116 152
-0.17113 0.12929 0.00897 96 116 152
-0.1507 0.09921 0.31 96 116 152
-0.32382 -0.07453 0.15457 100 121 158
-0.15039 -0.07422 0.15457 100 121 158
-0.14941 -0.60837 0.15457 100 121 158
-0.32284 -0.60867 0.15457 100 121 158
-0.17365 -0.6383 0.15457 100 121 158
-0.29847 -0.63849 0.15457 100 121 158
3 0 2 1
3 0 3 2
3 4 3 0
3 4 5 3
3 5 2 3
3 6 5 4
3 6 7 5
3 7 8 5
3 5 8 2
3 7 9 8
3 9 7 10
3 9 10 11
3 12 9 11
3 12 11 13
3 14 4 0
3 14 0 1
3 10 7 15
3 10 15 16
3 17 16 15
3 17 15 18
3 7 18 15
3 7 6 18
3 6 17 18
3 6 19 17
3 19 12 13
3 19 6 12
3 12 6 4
3 12 4 14
3 20 22 21
3 20 23 22
3 21 22 24
3 21 24 25
3 26 28 27
3 26 29 28
3 30 29 26
3 30 31 29
3 29 31 32
3 29 32 33
3 28 29 33
3 28 33 34
3 35 37 36
3 35 38 37
3 37 38 39
3 37 39 40
3 41 31 30
3 41 42 31
3 31 42 43
3 31 43 32
3 33 32 43
3 33 43 34
3 44 46 45
3 44 47 46
3 48 44 45
3 48 45 49
3 45 50 49
3 45 51 50
3 46 51 45
3 46 52 51
3 53 55 54
3 53 56 55
3 55 57 54
3 55 58 57
3 59 49 60
3 59 48 49
3 49 61 60
3 49 50 61
3 51 61 50
3 51 52 61
3 62 64 63
3 62 65 64
3 66 62 63
3 66 63 67
3 67 68 66
3 67 69 68
3 70 64 65
3 70 71 64
3 68 69 72
3 68 72 73
3 73 72 74
3 73 74 75
3 76 75 74
3 76 74 77
3 78 76 77
3 78 79 76
3 79 70 65
3 79 65 80
3 79 80 81
3 76 79 81
3 66 68 82
3 68 83 82
3 68 73 83
3 84 82 83
3 73 84 83
3 73 75 84
3 84 85 82
3 66 82 85
3 62 66 85
3 62 85 86
3 81 80 86
3 65 86 80
3 65 62 86
3 75 87 84
3 75 76 87
3 76 81 87
3 81 86 87
3 87 85 84
3 87 86 85
3 79 78 88
3 64 88 78
3 64 71 88
3 79 88 89
3 79 89 70
3 90 92 91
3 90 93 92
3 94 93 90
3 94 95 93
3 95 92 93
3 95 96 92
3 96 91 92
3 96 97 91
3 97 90 91
3 97 94 90
3 98 100 99
3 98 101 100
3 102 104 103
3 102 105 104
3 106 104 105
3 106 107 104
3 108 102 103
3 108 109 102
3 106 105 110
3 106 110 111
3 105 112 110
3 105 102 112
3 102 113 112
3 102 109 113
3 109 111 113
3 109 106 111
3 108 106 109
3 108 107 106
3 114 116 115
3 114 117 116
3 118 120 119
3 118 121 120
3 122 119 120
3 122 120 123
3 124 121 118
3 124 118 125
3 122 126 119
3 122 127 126
3 119 128 118
3 119 126 128
3 118 129 125
3 118 128 129
3 125 129 127
3 125 127 122
3 124 125 122
3 124 122 123
3 130 132 131
3 130 133 132
3 131 132 134
3 131 134 135
3 136 138 137
3 136 139 138
3 140 136 137
3 140 137 141
3 141 142 140
3 141 143 142
3 144 138 139
3 144 139 145
3 146 144 145
3 146 145 147
3 147 148 146
3 147 149 148
3 150 148 149
3 150 151 148
3 142 151 150
3 142 143 151
3 152 154 153
3 152 155 154
3 153 154 156
3 153 156 157
3 157 156 158
3 157 158 159
3 160 162 161
3 160 163 162
3 161 164 160
3 161 165 164
3 165 166 164
3 165 167 166
3 168 162 163
3 168 163 169
3 166 167 170
3 166 170 171
3 171 170 172
3 171 172 173
3 166 171 174
3 166 174 175
3 164 166 175
3 164 175 176
3 160 164 176
3 160 176 177
3 163 160 177
3 163 177 178
3 169 163 178
3 169 178 179
3 171 180 174
3 171 173 180
3 173 181 180
3 173 182 181
3 182 179 181
3 182 169 179
3 172 182 173
3 172 183 182
3 183 169 182
3 183 168 169
3 184 186 185
3 184 187 186
3 187 188 186
3 187 189 188
3 189 190 188
3 189 191 190
3 191 192 190
3 191 193 192
3 193 194 192
3 193 195 194
3 195 196 194
3 195 197 196
3 197 198 196
3 197 199 198
3 199 185 198
3 199 184 185
3 200 202 201
3 200 203 202
3 203 204 202
3 203 205 204
3 205 206 204
3 205 207 206
3 207 208 206
3 207 209 208
3 209 210 208
3 209 211 210
3 211 212 210
3 211 213 212
3 213 214 212
3 213 215 214
3 215 201 214
3 215 200 201
3 216 218 217
3 216 219 218
3 218 220 217
3 218 221 220
3 221 222 220
3 221 223 222
3 222 223 224
3 222 224 225
3 219 226 218
3 219 227 226
3 218 228 221
3 218 226 228
3 221 229 223
3 221 228 229
3 223 230 224
3 223 229 230
3 224 231 225
3 224 232 231
3 230 232 224
3 233 227 219
3 233 219 234
3 235 233 234
3 235 236 233
3 236 237 233
3 237 236 238
3 238 236 230
3 230 236 239
3 230 239 232
3 235 234 240
3 235 240 241
3 240 242 241
3 243 242 240
3 244 242 243
3 242 244 245
3 240 234 219
3 240 219 246
3 219 247 246
3 219 248 247
3 216 248 219
3 216 249 248
3 248 250 247
3 248 251 250
3 248 252 251
3 248 249 252
3 251 252 253
3 251 253 254
3 253 255 254
3 254 255 245
3 253 256 255
3 251 257 250
3 251 254 257
3 254 245 257
3 249 216 258
3 249 258 259
3 252 249 259
3 252 259 260
3 260 259 258
3 216 261 258
3 262 258 261
3 260 258 262
3 262 261 263
3 253 260 262
3 253 252 260
3 263 253 262
3 263 261 264
3 263 264 265
3 266 263 265
3 266 256 263
3 263 256 253
3 255 256 266
3 255 266 267
3 261 268 264
3 261 269 268
3 270 268 269
3 216 270 269
3 216 269 261
3 216 271 270
3 272 270 271
3 272 273 270
3 217 271 216
3 217 274 271
3 220 274 217
3 220 275 274
3 275 271 274
3 275 272 271
3 222 275 220
3 222 272 275
3 273 272 222
3 273 276 270
3 270 276 268
3 273 277 276
3 231 277 273
3 231 273 225
3 273 222 225
3 278 280 279
3 278 281 280
3 282 281 278
3 282 278 283
3 284 282 283
3 284 283 285
3 279 280 286
3 279 286 287
3 286 288 287
3 286 289 288
3 290 292 291
3 290 293 292
3 293 294 292
3 293 295 294
3 296 298 297
3 296 299 298
3 300 296 297
3 300 297 301
3 298 299 302
3 298 302 303
3 303 302 304
3 303 304 305
3 304 306 305
3 304 307 306
3 301 297 308
3 301 308 309
3 297 310 308
3 297 298 310
3 298 311 310
3 298 303 311
3 303 312 311
3 303 305 312
3 305 313 312
3 305 306 313
3 314 316 315
3 314 317 316
3 318 315 316
3 318 319 315
3 319 318 320
3 319 320 321
3 314 322 317
3 314 323 322
3 322 323 324
3 322 324 325
3 326 328 327
3 326 329 328
3 296 328 329
3 299 296 329
3 299 329 330
3 302 299 330
3 302 330 331
3 331 329 326
3 331 330 329
3 296 300 328
3 307 326 327
3 307 304 326
3 304 331 326
3 304 302 331
3 332 334 333
3 332 335 334
3 336 335 332
3 336 337 335
3 338 340 339
3 338 341 340
3 342 338 339
3 342 343 338
3 344 343 342
3 344 345 343
3 341 346 340
3 341 347 346
3 346 347 348
3 346 348 349
3 245 267 242
3 245 255 267
3 350 352 351
3 350 353 352
3 351 352 354
3 351 354 355
3 356 358 357
3 356 359 358
3 360 359 356
3 360 361 359
3 358 362 357
3 358 363 362
3 363 364 362
3 363 365 364
3 364 365 366
3 364 366 367
3 361 368 359
3 361 369 368
3 359 370 358
3 359 368 370
3 358 371 363
3 358 370 371
3 363 372 365
3 363 371 372
3 365 373 366
3 365 372 373
3 374 376 375
3 374 377 376
3 378 376 377
3 378 377 379
3 379 380 378
3 379 381 380
3 374 375 382
3 374 382 383
3 382 384 383
3 382 385 384
3 386 388 387
3 386 389 388
3 356 387 388
3 357 387 356
3 357 390 387
3 362 390 357
3 362 391 390
3 391 387 390
3 391 386 387
3 356 388 360
3 367 389 386
3 367 386 364
3 364 391 362
3 364 386 391
3 392 394 393
3 392 395 394
3 396 392 393
3 396 393 397
3 398 400 399
3 398 401 400
3 400 401 402
3 400 402 403
3 403 402 404
3 403 404 405
3 404 406 405
3 404 407 406
3 399 400 408
3 399 408 409
3 400 410 408
3 400 403 410
3 403 411 410
3 403 405 411
3 405 412 411
3 405 406 412
3 406 407 413
3 406 413 414
3 412 406 414
3 415 399 409
3 416 415 412
3 412 414 416
3 415 416 417
3 412 415 418
3 412 418 419
3 420 415 417
3 420 421 415
3 415 421 399
3 422 421 420
3 422 423 421
3 421 398 399
3 421 423 398
3 424 426 425
3 424 427 426
3 398 426 427
3 401 398 427
3 401 427 428
3 402 401 428
3 402 428 429
3 429 427 424
3 429 428 427
3 398 423 426
3 404 429 424
3 404 402 429
3 425 404 424
3 425 426 430
3 425 430 431
3 413 425 431
3 413 407 425
3 425 407 404
3 426 422 430
3 426 423 422
3 432 434 433
3 432 435 434
3 436 435 432
3 436 437 435
3 434 438 433
3 434 439 438
3 439 440 438
3 439 441 440
3 440 441 442
3 440 442 443
3 444 446 445
3 444 447 446
3 445 446 448
3 445 448 449
3 450 452 451
3 450 453 452
3 453 454 452
3 453 455 454
3 456 450 451
3 456 451 457
3 451 454 457
3 451 452 454
3 457 454 455
3 457 455 456
3 458 460 459
3 458 461 460
3 461 462 460
3 461 463 462
3 464 458 459
3 465 463 464
3 465 462 463
3 459 462 465
3 459 460 462
3 464 459 465
3 466 468 467
3 466 469 468
3 469 470 468
3 469 471 470
3 472 466 467
3 473 471 472
3 473 470 471
3 467 470 473
3 467 468 470
3 472 467 473
3 474 476 475
3 474 477 476
3 475 476 478
3 477 478 476
3 475 478 479
3 479 478 480
3 477 480 478
3 479 480 481
3 481 475 479
3 481 474 475
3 482 484 483
3 482 485 484
3 483 484 486
3 485 486 484
3 483 486 487
3 487 486 488
3 485 488 486
3 487 488 489
3 489 483 487
3 489 482 483
3 490 492 491
3 490 493 492
3 491 492 494
3 493 494 492
3 491 494 495
3 495 494 496
3 493 496 494
3 495 496 497
3 497 491 495
3 497 490 491
3 498 500 499
3 498 501 500
3 499 500 502
3 501 502 500
3 499 502 503
3 503 502 504
3 501 504 502
3 503 504 505
3 505 499 503
3 505 498 499
3 506 508 507
3 506 509 508
3 507 508 510
3 509 510 508
3 507 510 511
3 511 510 512
3 509 512 510
3 511 512 513
3 513 507 511
3 513 506 507
3 514 516 515
3 514 517 516
3 515 516 518
3 517 518 516
3 515 518 519
3 519 518 520
3 517 520 518
3 519 520 521
3 521 515 519
3 521 514 515
3 522 524 523
3 522 525 524
3 523 524 526
3 525 526 524
3 523 526 527
3 527 526 528
3 525 528 526
3 527 528 529
3 529 523 527
3 529 522 523
3 530 532 531
3 530 533 532
3 534 530 531
3 534 531 535
3 535 531 532
3 536 534 535
3 536 535 537
3 537 535 538
3 535 532 538
3 537 538 539
3 539 540 537
3 539 541 540
3 542 541 539
3 542 543 541
3 544 530 534
3 544 533 530
3 540 545 537
3 540 546 545
3 547 545 546
3 547 548 545
3 537 548 536
3 537 545 548
3 536 548 547
3 536 547 549
3 549 542 536
3 549 543 542
3 542 534 536
3 542 544 534
3 550 552 551
3 550 553 552
3 553 554 552
3 553 555 554
