ply
format ascii 1.0
element vertex 278
property float x
property float y
property float z
property uchar red
property uchar green
property uchar blue
element face 376
property list uchar int vertex_index
end_header
0.27854 -0.38946 0.6065 240 185 235
0.30183 -0.42172 0.58944 240 185 235
0.27212 -0.45037 0.54986 240 185 235
0.23792 -0.40092 0.56486 240 185 235
0.23792 0.13301 0.70916 240 185 235
0.23792 -0.40027 0.36808 240 185 235
0.27895 0.13301 0.75392 240 185 235
0.27895 0.51902 0.75392 240 185 235
0.23792 0.55553 0.70916 240 185 235
0.2789 0.59647 0.70741 240 185 235
0.30455 0.54837 0.75392 240 185 235
0.23792 0.55553 0.36808 240 185 235
0.27895 -0.37288 0.33873 240 185 235
0.27895 0.52714 0.33873 240 185 235
0.2789 0.59647 0.36811 240 185 235
0.56283 0.59647 0.36811 240 185 235
0.56283 0.59647 0.70741 240 185 235
0.31177 0.55553 0.33873 240 185 235
0.56269 0.52714 0.33873 240 185 235
0.52987 0.55553 0.33873 240 185 235
0.27212 -0.45037 0.36808 240 185 235
0.31303 -0.40426 0.33873 240 185 235
0.56952 -0.45037 0.36808 240 185 235
0.52861 -0.40426 0.33873 240 185 235
0.56952 -0.45037 0.54986 240 185 235
0.53981 -0.42172 0.58944 240 185 235
0.56269 -0.37288 0.33873 240 185 235
0.60381 -0.40027 0.36808 240 185 235
0.60381 0.55553 0.36808 240 185 235
0.60381 -0.40092 0.56486 240 185 235
0.56228 -0.38946 0.6065 240 185 235
0.60381 0.13301 0.70916 240 185 235
0.60381 0.55553 0.70916 240 185 235
0.56269 0.13301 0.75392 240 185 235
0.56269 0.51902 0.75392 240 185 235
0.53709 0.54837 0.75392 240 185 235
0.56228 -0.38946 0.6065 238 197 237
0.27854 -0.38946 0.6065 238 197 237
0.27895 0.13301 0.75392 238 197 237
0.56269 0.13301 0.75392 238 197 237
0.27895 0.51902 0.75392 238 197 237
0.56269 0.51902 0.75392 238 197 237
0.53709 0.54837 0.75392 238 197 237
0.30455 0.54837 0.75392 238 197 237
0.30183 -0.42172 0.58944 238 197 237
0.53981 -0.42172 0.58944 238 197 237
0.31917 -0.19206 1.29151 255 255 255
0.31917 -0.19206 1.59167 255 255 255
0.35945 -0.19206 1.59167 255 255 255
0.35945 -0.19206 1.29151 255 255 255
0.35945 0.1081 1.59167 255 255 255
0.31917 0.1081 1.59167 255 255 255
0.35945 0.1081 1.29151 255 255 255
0.31917 0.1081 1.29151 255 255 255
0.35945 -0.00196 1.40157 255 255 255
0.35945 -0.082 1.40157 255 255 255
0.35945 -0.00196 1.48161 255 255 255
0.35945 -0.082 1.48161 255 255 255
0.35945 -0.082 1.40157 18 26 36
0.35945 -0.082 1.48161 18 26 36
0.35945 -0.00196 1.48161 18 26 36
0.35945 -0.00196 1.40157 18 26 36
-0.31917 -0.19206 1.29151 255 255 255
-0.35945 -0.19206 1.29151 255 255 255
-0.35945 -0.19206 1.59167 255 255 255
-0.31917 -0.19206 1.59167 255 255 255
-0.35945 0.1081 1.59167 255 255 255
-0.31917 0.1081 1.59167 255 255 255
-0.35945 0.1081 1.29151 255 255 255
-0.31917 0.1081 1.29151 255 255 255
-0.35945 -0.00196 1.40157 255 255 255
-0.35945 -0.082 1.40157 255 255 255
-0.35945 -0.00196 1.48161 255 255 255
-0.35945 -0.082 1.48161 255 255 255
-0.35945 -0.082 1.40157 18 26 36
-0.35945 -0.00196 1.40157 18 26 36
-0.35945 -0.00196 1.48161 18 26 36
-0.35945 -0.082 1.48161 18 26 36
0.24028 -0.389 1.6647 88 180 251
-0.24028 -0.389 1.6647 88 180 251
-0.2763 -0.35216 1.6647 88 180 251
0.2763 -0.35216 1.6647 88 180 251
0.2763 0.29249 1.6647 88 180 251
-0.2763 0.29249 1.6647 88 180 251
0.24028 0.32933 1.6647 88 180 251
-0.24028 0.32933 1.6647 88 180 251
0.32449 -0.39393 1.40858 84 175 243
0.32449 -0.39393 1.62151 84 175 243
0.32449 0.33426 1.62151 84 175 243
0.2763 0.29249 1.6647 84 175 243
0.2763 -0.35216 1.6647 84 175 243
0.28219 -0.43719 1.62151 84 175 243
0.24028 -0.389 1.6647 84 175 243
0.24028 0.32933 1.6647 84 175 243
0.28219 0.37752 1.62151 84 175 243
0.28219 0.37752 1.04735 84 175 243
0.32449 0.33426 1.04735 84 175 243
-0.28219 0.37752 1.62151 84 175 243
-0.24028 0.32933 1.6647 84 175 243
0.2763 0.29249 1.00459 84 175 243
0.24028 0.32933 1.00459 84 175 243
0.32447 -0.43737 1.04749 84 175 243
0.27616 -0.43737 1.0046 84 175 243
-0.28219 0.37752 1.04735 84 175 243
-0.28219 -0.43719 1.62151 84 175 243
-0.24028 -0.389 1.6647 84 175 243
-0.24028 0.32933 1.00459 84 175 243
-0.24052 -0.43737 1.0046 84 175 243
0.24052 -0.43737 1.0046 84 175 243
-0.2763 0.29249 1.00459 84 175 243
-0.27616 -0.43737 1.0046 84 175 243
0.32447 -0.43737 1.40858 84 175 243
0.28219 -0.43719 1.44592 84 175 243
-0.28219 -0.43719 1.44592 84 175 243
0.28217 -0.66543 1.04763 240 185 235
-0.28217 -0.66543 1.04763 240 185 235
-0.28217 -0.66543 1.40858 240 185 235
0.28217 -0.66543 1.40858 240 185 235
0.32445 -0.61888 1.40858 240 185 235
0.32445 -0.61888 1.04763 240 185 235
0.24056 -0.61783 1.0046 240 185 235
-0.24056 -0.61783 1.0046 240 185 235
0.27613 -0.587 1.0046 240 185 235
-0.25043 -0.61791 1.44592 240 185 235
0.25043 -0.61791 1.44592 240 185 235
0.28217 -0.5894 1.44592 240 185 235
0.32447 -0.43737 1.40858 240 185 235
0.28219 -0.43719 1.44592 240 185 235
0.32447 -0.43737 1.04749 240 185 235
0.27616 -0.43737 1.0046 240 185 235
0.24052 -0.43737 1.0046 240 185 235
-0.24052 -0.43737 1.0046 240 185 235
0.25043 -0.61791 1.44592 238 197 237
-0.25043 -0.61791 1.44592 238 197 237
-0.28217 -0.5894 1.44592 238 197 237
0.28217 -0.5894 1.44592 238 197 237
0.28219 -0.43719 1.44592 238 197 237
-0.28219 -0.43719 1.44592 238 197 237
-0.32447 -0.43737 1.04749 84 175 243
-0.32449 0.33426 1.04735 84 175 243
-0.32449 -0.39393 1.40858 84 175 243
-0.32449 0.33426 1.62151 84 175 243
-0.2763 0.29249 1.6647 84 175 243
-0.32449 -0.39393 1.62151 84 175 243
-0.2763 -0.35216 1.6647 84 175 243
-0.32447 -0.43737 1.40858 84 175 243
-0.32445 -0.61888 1.40858 240 185 235
-0.32445 -0.61888 1.04763 240 185 235
-0.27613 -0.587 1.0046 240 185 235
-0.28217 -0.5894 1.44592 240 185 235
-0.27616 -0.43737 1.0046 240 185 235
-0.32447 -0.43737 1.04749 240 185 235
-0.32447 -0.43737 1.40858 240 185 235
-0.28219 -0.43719 1.44592 240 185 235
0.25222 -0.10693 0.77174 84 175 243
0.25222 -0.10693 0.97417 84 175 243
0.25222 0.59174 0.97417 84 175 243
0.25222 0.59174 0.47559 84 175 243
0.25222 -0.24119 0.47559 84 175 243
0.21813 -0.21492 0.43142 84 175 243
0.21813 0.57082 0.43142 84 175 243
0.25222 -0.24119 0.77174 84 175 243
0.2233 0.56929 1.01812 84 175 243
0.20271 0.64976 0.97417 84 175 243
0.17947 0.61858 1.01821 84 175 243
0.2233 -0.10693 1.01812 84 175 243
0.20271 0.64976 0.47565 84 175 243
-0.20271 0.64976 0.97417 84 175 243
-0.20271 0.64976 0.47565 84 175 243
-0.17947 0.61858 1.01821 84 175 243
-0.25222 0.59174 0.97417 84 175 243
-0.2233 0.56929 1.01812 84 175 243
-0.25222 -0.10693 0.97417 84 175 243
-0.2233 -0.10693 1.01812 84 175 243
-0.25222 0.59174 0.47559 84 175 243
-0.21813 0.57082 0.43142 84 175 243
-0.18929 0.61581 0.43142 84 175 243
-0.21813 -0.21492 0.43142 84 175 243
-0.25222 -0.24119 0.47559 84 175 243
-0.25222 -0.10693 0.77174 84 175 243
-0.25222 -0.24119 0.77174 84 175 243
0.18929 0.61581 0.43142 84 175 243
0.21812 -0.29849 0.47565 240 185 235
0.25222 -0.24119 0.77174 240 185 235
0.25222 -0.24119 0.47559 240 185 235
0.21813 -0.21492 0.43142 240 185 235
0.18929 -0.25991 0.43142 240 185 235
-0.21813 -0.21492 0.43142 240 185 235
-0.18929 -0.25991 0.43142 240 185 235
-0.21812 -0.29849 0.47565 240 185 235
-0.25222 -0.24119 0.47559 240 185 235
-0.25222 -0.24119 0.77174 240 185 235
0.21812 -0.29849 0.97417 240 185 235
-0.21812 -0.29849 0.97417 240 185 235
-0.25222 -0.24119 0.97417 240 185 235
-0.19311 -0.29849 1.01782 240 185 235
0.19311 -0.29849 1.01782 240 185 235
0.2233 -0.24119 1.01812 240 185 235
-0.2233 -0.24119 1.01812 240 185 235
0.2233 -0.10693 1.01812 240 185 235
-0.2233 -0.10693 1.01812 240 185 235
-0.25222 -0.10693 0.97417 240 185 235
-0.25222 -0.10693 0.77174 240 185 235
0.25222 -0.24119 0.97417 240 185 235
0.25222 -0.10693 0.97417 240 185 235
0.25222 -0.10693 0.77174 240 185 235
0.17947 0.61858 1.01821 88 180 251
0.2233 0.56929 1.01812 88 180 251
-0.2233 0.56929 1.01812 88 180 251
-0.17947 0.61858 1.01821 88 180 251
-0.2233 -0.10693 1.01812 88 180 251
0.2233 -0.10693 1.01812 88 180 251
-0.13579 0.57532 0.63129 240 185 235
-0.09199 1.02342 1.38878 240 185 235
0.09199 1.02342 1.38878 240 185 235
0.13579 0.57532 0.63129 240 185 235
0.09199 1.25605 1.27244 240 185 235
0.13579 0.9187 0.45955 240 185 235
-0.09199 1.25605 1.27244 240 185 235
-0.13579 0.9187 0.45955 240 185 235
0.11316 0.57695 0.56303 240 185 235
0.11316 0.86311 0.41991 240 185 235
-0.11316 0.86311 0.41991 240 185 235
-0.11316 0.57695 0.56303 240 185 235
0.07309 1.0706 1.40762 240 185 235
-0.07309 1.0706 1.40762 240 185 235
0.07309 1.24282 1.32148 240 185 235
-0.07309 1.24282 1.32148 240 185 235
-0.07309 1.0706 1.40762 238 197 237
-0.07309 1.24282 1.32148 238 197 237
0.07309 1.24282 1.32148 238 197 237
0.07309 1.0706 1.40762 238 197 237
-0.27854 -0.38946 0.6065 240 185 235
-0.23792 -0.40092 0.56486 240 185 235
-0.27212 -0.45037 0.54986 240 185 235
-0.30183 -0.42172 0.58944 240 185 235
-0.23792 0.13301 0.70916 240 185 235
-0.23792 -0.40027 0.36808 240 185 235
-0.27895 0.13301 0.75392 240 185 235
-0.27895 0.51902 0.75392 240 185 235
-0.23792 0.55553 0.70916 240 185 235
-0.2789 0.59647 0.70741 240 185 235
-0.30455 0.54837 0.75392 240 185 235
-0.23792 0.55553 0.36808 240 185 235
-0.27895 -0.37288 0.33873 240 185 235
-0.27895 0.52714 0.33873 240 185 235
-0.2789 0.59647 0.36811 240 185 235
-0.56283 0.59647 0.36811 240 185 235
-0.56283 0.59647 0.70741 240 185 235
-0.31177 0.55553 0.33873 240 185 235
-0.56269 0.52714 0.33873 240 185 235
-0.52987 0.55553 0.33873 240 185 235
-0.27212 -0.45037 0.36808 240 185 235
-0.31303 -0.40426 0.33873 240 185 235
-0.56952 -0.45037 0.36808 240 185 235
-0.52861 -0.40426 0.33873 240 185 235
-0.56952 -0.45037 0.54986 240 185 235
-0.53981 -0.42172 0.58944 240 185 235
-0.56269 -0.37288 0.33873 240 185 235
-0.60381 -0.40027 0.36808 240 185 235
-0.60381 0.55553 0.36808 240 185 235
-0.60381 -0.40092 0.56486 240 185 235
-0.56228 -0.38946 0.6065 240 185 235
-0.60381 0.13301 0.70916 240 185 235
-0.60381 0.55553 0.70916 240 185 235
-0.56269 0.13301 0.75392 240 185 235
-0.56269 0.51902 0.75392 240 185 235
-0.53709 0.54837 0.75392 240 185 235
-0.56228 -0.38946 0.6065 238 197 237
-0.56269 0.13301 0.75392 238 197 237
-0.27895 0.13301 0.75392 238 197 237
-0.27854 -0.38946 0.6065 238 197 237
-0.27895 0.51902 0.75392 238 197 237
-0.56269 0.51902 0.75392 238 197 237
-0.53709 0.54837 0.75392 238 197 237
-0.30455 0.54837 0.75392 238 197 237
-0.30183 -0.42172 0.58944 238 197 237
-0.53981 -0.42172 0.58944 238 197 237
3 0 2 1
3 0 3 2
3 0 4 3
3 4 5 3
3 5 2 3
3 0 6 4
3 4 6 7
3 4 7 8
3 9 8 7
3 9 7 10
3 9 11 8
3 4 8 11
3 4 11 5
3 12 5 11
3 12 11 13
3 14 13 11
3 9 14 11
3 9 15 14
3 9 16 15
3 14 17 13
3 18 13 17
3 18 17 19
3 14 19 17
3 14 15 19
3 20 5 12
3 20 12 21
3 22 20 21
3 22 21 23
3 24 20 22
3 24 2 20
3 5 20 2
3 1 2 24
3 1 24 25
3 26 13 18
3 26 12 13
3 26 21 12
3 26 23 21
3 22 23 26
3 22 26 27
3 27 26 18
3 27 18 28
3 29 22 27
3 29 24 22
3 30 24 29
3 31 30 29
3 31 27 28
3 31 29 27
3 31 28 32
3 31 33 30
3 32 28 15
3 18 15 28
3 32 15 16
3 34 31 32
3 34 33 31
3 16 34 32
3 16 35 34
3 30 25 24
3 18 19 15
3 36 38 37
3 36 39 38
3 40 38 39
3 40 39 41
3 40 41 42
3 40 42 43
3 36 37 44
3 36 44 45
3 9 35 16
3 9 10 35
3 46 48 47
3 46 49 48
3 47 48 50
3 47 50 51
3 51 50 52
3 51 52 53
3 53 49 46
3 53 52 49
3 49 52 54
3 49 54 55
3 48 49 55
3 52 56 54
3 52 50 56
3 50 57 56
3 50 48 57
3 48 55 57
3 58 60 59
3 58 61 60
3 62 64 63
3 62 65 64
3 65 66 64
3 65 67 66
3 67 68 66
3 67 69 68
3 69 63 68
3 69 62 63
3 63 70 68
3 63 71 70
3 64 71 63
3 68 72 66
3 68 70 72
3 66 73 64
3 66 72 73
3 64 73 71
3 74 76 75
3 74 77 76
3 78 80 79
3 78 81 80
3 80 81 82
3 80 82 83
3 83 82 84
3 83 84 85
3 86 88 87
3 87 88 89
3 87 89 90
3 91 87 90
3 91 86 87
3 91 90 92
3 88 93 89
3 88 94 93
3 95 94 88
3 95 88 96
3 86 96 88
3 93 94 97
3 95 97 94
3 93 97 98
3 95 96 99
3 95 99 100
3 99 96 101
3 101 96 86
3 99 101 102
3 95 103 97
3 100 103 95
3 92 104 91
3 92 105 104
3 100 106 103
3 100 107 106
3 100 108 107
3 109 106 107
3 109 107 110
3 101 86 111
3 86 112 111
3 91 112 86
3 91 113 112
3 91 104 113
3 114 116 115
3 114 117 116
3 118 117 114
3 118 114 119
3 120 114 115
3 119 114 120
3 120 115 121
3 119 120 122
3 117 123 116
3 117 124 123
3 118 124 117
3 118 125 124
3 126 125 118
3 126 127 125
3 128 118 119
3 128 126 118
3 129 119 122
3 129 128 119
3 130 122 120
3 130 129 122
3 131 120 121
3 131 130 120
3 99 108 100
3 99 102 108
3 132 134 133
3 132 135 134
3 134 135 136
3 134 136 137
3 138 140 139
3 109 138 139
3 103 109 139
3 103 139 141
3 139 140 141
3 103 141 97
3 141 98 97
3 141 142 98
3 143 142 141
3 141 140 143
3 143 144 142
3 104 144 143
3 104 143 140
3 104 105 144
3 103 106 109
3 109 110 138
3 104 140 113
3 140 145 113
3 138 145 140
3 146 115 116
3 146 147 115
3 147 121 115
3 147 148 121
3 146 116 123
3 146 123 149
3 150 121 148
3 150 131 121
3 151 148 147
3 151 150 148
3 152 147 146
3 152 151 147
3 153 146 149
3 153 152 146
3 154 156 155
3 154 157 156
3 157 154 158
3 157 158 159
3 157 159 160
3 158 154 161
3 155 156 162
3 162 156 163
3 163 156 157
3 162 163 164
3 155 162 165
3 163 157 166
3 160 166 157
3 166 167 163
3 166 168 167
3 163 169 164
3 163 167 169
3 170 167 168
3 171 167 170
3 171 169 167
3 171 170 172
3 171 172 173
3 170 168 174
3 172 170 174
3 175 174 168
3 175 168 176
3 174 175 177
3 174 177 178
3 179 174 178
3 172 174 179
3 179 178 180
3 166 176 168
3 166 181 176
3 181 175 176
3 181 160 175
3 160 181 166
3 175 160 159
3 175 159 177
3 182 184 183
3 182 185 184
3 182 186 185
3 187 185 186
3 187 186 188
3 189 187 188
3 189 190 187
3 189 191 190
3 192 189 182
3 183 192 182
3 192 193 189
3 193 191 189
3 193 194 191
3 195 194 193
3 196 195 193
3 196 193 192
3 197 195 196
3 197 198 195
3 195 198 194
3 199 198 197
3 199 200 198
3 200 194 198
3 200 201 194
3 194 202 191
3 194 201 202
3 196 192 203
3 196 203 197
3 203 199 197
3 203 204 199
3 183 204 203
3 183 205 204
3 203 192 183
3 206 208 207
3 206 209 208
3 207 208 210
3 207 210 211
3 212 214 213
3 212 215 214
3 215 216 214
3 215 217 216
3 218 216 217
3 218 217 219
3 217 215 220
3 217 220 221
3 222 221 220
3 222 220 223
3 215 223 220
3 215 212 223
3 219 217 221
3 219 221 222
3 212 219 222
3 219 212 213
3 219 213 218
3 212 222 223
3 213 214 224
3 213 224 225
3 218 213 225
3 214 226 224
3 214 216 226
3 216 227 226
3 216 218 227
3 218 225 227
3 228 230 229
3 228 231 230
3 182 188 186
3 182 189 188
3 232 234 233
3 232 235 234
3 232 233 236
3 236 233 237
3 237 233 234
3 232 236 238
3 236 239 238
3 236 240 239
3 241 239 240
3 241 242 239
3 241 240 243
3 236 243 240
3 236 237 243
3 244 243 237
3 244 245 243
3 246 243 245
3 241 243 246
3 241 246 247
3 241 247 248
3 246 245 249
3 250 249 245
3 250 251 249
3 246 251 247
3 246 249 251
3 252 244 237
3 252 253 244
3 254 253 252
3 254 255 253
3 256 254 252
3 256 252 234
3 237 234 252
3 235 256 234
3 235 257 256
3 258 250 245
3 258 245 244
3 258 244 253
3 258 253 255
3 254 258 255
3 254 259 258
3 259 250 258
3 259 260 250
3 261 259 254
3 261 254 256
3 262 261 256
3 263 261 262
3 263 260 259
3 263 259 261
3 263 264 260
3 263 262 265
3 264 247 260
3 250 260 247
3 264 248 247
3 266 263 265
3 266 264 263
3 248 264 266
3 248 266 267
3 262 256 257
3 250 247 251
3 268 270 269
3 268 271 270
3 272 269 270
3 272 273 269
3 272 274 273
3 272 275 274
3 268 276 271
3 268 277 276
3 241 267 242
3 241 248 267
