mtllib Phione.mtl
v 0 0.218019 0.083646
vt 0.953727 0.932199
vn 0 -0.9884951 0.151253
v 0 0.218019 -0.0455488
vn 0 -0.9536838 -0.300811
v 0.125255 0.232528 0.0198086
vn 0.4833561 -0.8627391 -0.148486
v -0.125255 0.232528 0.0198086
vn -0.4833561 -0.8627391 -0.148486
v 0.124142 0.24322 0.0923213
vn 0.5570462 -0.7826373 0.2778101
v -0.124142 0.24322 0.0923213
vn -0.5570462 -0.7826373 0.2778101
v 0.0920173 0.252423 0.139387
vn 0.3666919 -0.6824268 0.6323218
v -0.0920173 0.252423 0.139387
vn -0.3666919 -0.6824268 0.6323218
v 0 0.256443 0.166902
vn 0 -0.7498326 0.6616276
v 0.114056 0.281068 -0.0854722
vn 0.532268 -0.612595 -0.58431
v -0.114056 0.281068 -0.0854722
vn -0.532268 -0.612595 -0.58431
v 0 0.273107 -0.124652
vn 0 -0.6568208 -0.7540467
v 0.155008 0.320014 0.112946
vn 0.8478795 -0.1545649 0.5071587
v 0.184546 0.320035 0.0190486
vn 0.985693 -0.14141 -0.09171961
v -0.155008 0.320014 0.112946
vn -0.8478795 -0.1545649 0.5071587
v -0.184546 0.320035 0.0190486
vn -0.985693 -0.14141 -0.09171951
v 0.0515623 0.348488 -0.15007
vn 0.338056 0.0617643 -0.939097
v -0.0515623 0.348488 -0.15007
vn -0.338056 0.0617643 -0.939097
v 0.148305 0.412693 0.110202
vn 0.8298455 0.3291718 0.4505577
v -0.148305 0.412693 0.110202
vn -0.8298455 0.3291718 0.4505577
v 0.147751 0.348488 -0.0762848
vn 0.7927635 0.1257381 -0.5964193
v -0.147751 0.348488 -0.0762848
vn -0.7927635 0.1257381 -0.5964193
v 0.15635 0.449304 0.0190486
vn 0.8503514 0.5140002 -0.1127221
v 0.0858597 0.475715 0.107779
vn 0.471403 0.785755 0.40046
v -0.15635 0.449304 0.0190486
vn -0.8503514 0.5140002 -0.1127221
v -0.0858597 0.475715 0.107779
vn -0.471403 0.785755 0.40046
v 0 0.469637 -0.113949
vn 0 0.5716327 -0.8205096
v 0.0858597 0.475715 -0.0696818
vn 0.5514409 0.5943508 -0.5853718
v 0.0660758 0.508614 0.0190486
vn 0.411834 0.9112589 0
v 0 0.518449 0.0678555
vn 0 0.9649279 0.262515
v -0.0660758 0.508614 0.0190486
vn -0.411834 0.9112589 0
v -0.0858597 0.475715 -0.0696818
vn -0.5514409 0.5943508 -0.5853718
v 0 0.518449 -0.0297584
vn 0 0.956103 -0.293031
v -0.121601 0.0875083 -0.0122789
vt 0.93006 0.937829
vn -0.924419 -0.0562318 -0.37721
v -0.0608004 0.0667998 0.0909743
vn -0.108333 -0.3657031 0.9244053
v -0.185169 0.136373 0.112162
vn -0.845043 0.0325948 0.533704
v -0.0710739 0.0343274 -0.0227997
vn -0.654621 -0.74143 -0.147489
v -0.0734566 0.213781 0.0130464
vn -0.7431506 0.6115797 -0.2714728
v -0.0608004 0.108217 -0.115532
vn -0.4478521 0.2542161 -0.8572063
v -0.0367283 0.225631 -0.046038
vn -0.4421722 0.5910923 -0.6746063
v -0.0367283 0.201931 0.0721308
vn -0.02815111 0.3852321 0.9223903
v -0.0355369 0.0239257 0.0291596
vn -0.1762539 -0.8703915 0.4597317
v 0.0355369 0.0239257 0.0291596
vn 0.1762539 -0.8703915 0.4597317
v 0.0608004 0.0667998 0.0909743
vn 0.1083321 -0.3657032 0.9244054
v 0.0367283 0.225631 -0.046038
vn 0.4421722 0.5910923 -0.6746063
v 0 0.236801 0.0191604
vn 0 0.9797947 0.2000059
v 0 0.000833572 -0.0292333
vn 0 -0.9817727 -0.1900589
v -0.0355369 0.0444137 -0.0762613
vn -0.182327 -0.62111 -0.76222
v 0.0710738 0.0343274 -0.0227997
vn 0.654621 -0.74143 -0.147489
v 0.121601 0.0875083 -0.0122789
vn 0.924419 -0.0562319 -0.37721
v 0.185169 0.136373 0.112162
vn 0.845043 0.0325948 0.533704
v 0.0367283 0.201931 0.0721308
vn 0.02815101 0.3852321 0.9223903
v 0.0608004 0.108217 -0.115532
vn 0.447853 0.254216 -0.8572059
v 0.0734566 0.213781 0.0130464
vn 0.7431508 0.6115798 -0.2714719
v 0.0355369 0.0444137 -0.0762613
vn 0.182327 -0.62111 -0.76222
v 0 0.4959691 -0.434276
vt 0.0586011 0.0707829
vn 0 0.9429063 -0.3330581
v -0.06 0.4696571 -0.427742
vn -0.9999025 -0.003366122 -0.01355471
v 0 0.53636 -0.245632
vn 0 0.9873868 -0.158327
v -0.0344991 0.4615491 -0.460391
vn -0.198604 -0.2362271 -0.9511852
v 0.06 0.4696571 -0.427742
vn 0.9999025 -0.003366262 -0.01355471
v 0 0.4433461 -0.421207
v 0.0344991 0.4615491 -0.460391
vn 0.198604 -0.2362271 -0.9511852
v 0.0393126 0.516132 -0.240608
vn 0.9865791 0.039356 0.15847
v -0.0393126 0.516132 -0.240608
vn -0.9865791 0.039356 0.15847
v 0 0.553226 -0.0912485
vn 0 0.2410299 0.9705177
v 0 0.495904 -0.235585
vn 0 -0.9467349 0.322014
v 0.0993726 0.553083 0.0805137
vn 0.8474043 0 0.5309482
v 0.0614156 0.494899 0.0190981
vn 0.3823912 -0.9240005 0
v 0.0993726 0.553083 -0.0423175
vn 0.8474038 0 -0.5309489
v 0 0.517124 0.118471
vn 0 -0.675416 0.737437
v 0.0614156 0.611267 0.0190981
vn 0.3823912 0.9240005 0
v 0 0.589043 0.118471
vn 0 0.675416 0.737437
v 0 0.517124 -0.0802744
vn 0 -0.675416 -0.737437
v -0.0614156 0.494899 0.0190981
vn -0.3823912 -0.9240005 0
v -0.0614156 0.611267 0.0190981
vn -0.3823912 0.9240005 0
v 0 0.589043 -0.0802744
vn 0 0.675416 -0.737437
v -0.0993726 0.553083 0.0805137
vn -0.8474043 0 0.5309482
v -0.0993726 0.553083 -0.0423175
vn -0.8474043 0 -0.5309482
v 0 0.482205 0.136685
vt 0.928375 0.951524
vn 0 0.8180381 0.5751641
v -0.0730429 0.436415 0.158713
vn -0.376294 0.397003 0.8371329
v 0 0.447198 0.168886
vn 0 0.3891708 0.9211656
v 0.0730429 0.436415 0.158713
vn 0.376294 0.397003 0.8371329
vt 1.71005 0.0983774
vt 0.57107 0.89503
vt 0.289946 0.0983774
vt 1.42893 0.89503
vt 0.624162 0.917011
v 0.0475134 0.302436 0.170417
vt 0.0494007 0.710585
vn 0.2384141 -0.2412241 0.9407283
v 0 0.308416 0.180364
vt 0.000244871 0.98365
vn 0 -0.179576 0.9837441
v -0.0475134 0.302436 0.170417
vn -0.2384141 -0.2412241 0.9407283
vt 0.921915 0.952444
vt 0.736896 0.08519
vt -0.0179821 0.509784
vt 0.415683 0.913366
vt 0.365738 0.360016
o merged_0_0_node
g polygon_0
usemtl mat_body_mat_id
f 1/1/1 2/1/2 3/1/3
f 1/1/1 4/1/4 2/1/2
f 1/1/1 3/1/3 5/1/5
f 1/1/1 6/1/6 4/1/4
f 1/1/1 5/1/5 7/1/7
f 1/1/1 8/1/8 6/1/6
f 1/1/1 7/1/7 9/1/9
f 1/1/1 9/1/9 8/1/8
f 2/1/2 10/1/10 3/1/3
f 2/1/2 4/1/4 11/1/11
f 2/1/2 12/1/12 10/1/10
f 2/1/2 11/1/11 12/1/12
f 5/1/5 13/1/13 7/1/7
f 5/1/5 3/1/3 14/1/14
f 5/1/5 14/1/14 13/1/13
f 3/1/3 10/1/10 14/1/14
f 6/1/6 8/1/8 15/1/15
f 6/1/6 16/1/16 4/1/4
f 6/1/6 15/1/15 16/1/16
f 4/1/4 16/1/16 11/1/11
f 12/1/12 17/1/17 10/1/10
f 12/1/12 11/1/11 18/1/18
f 12/1/12 18/1/18 17/1/17
f 13/1/13 14/1/14 19/1/19
f 15/1/15 20/1/20 16/1/16
f 10/1/10 17/1/17 21/1/21
f 10/1/10 21/1/21 14/1/14
f 11/1/11 22/1/22 18/1/18
f 11/1/11 16/1/16 22/1/22
f 19/1/19 14/1/14 23/1/23
f 19/1/19 23/1/23 24/1/24
f 14/1/14 21/1/21 23/1/23
f 20/1/20 25/1/25 16/1/16
f 20/1/20 26/1/26 25/1/25
f 16/1/16 25/1/25 22/1/22
f 17/1/17 18/1/18 27/1/27
f 17/1/17 28/1/28 21/1/21
f 17/1/17 27/1/27 28/1/28
f 21/1/21 28/1/28 23/1/23
f 24/1/24 23/1/23 29/1/29
f 24/1/24 29/1/29 30/1/30
f 23/1/23 28/1/28 29/1/29
f 26/1/26 31/1/31 25/1/25
f 26/1/26 30/1/30 31/1/31
f 22/1/22 32/1/32 18/1/18
f 22/1/22 25/1/25 32/1/32
f 25/1/25 31/1/31 32/1/32
f 18/1/18 32/1/32 27/1/27
f 28/1/28 33/1/33 29/1/29
f 28/1/28 27/1/27 33/1/33
f 33/1/33 30/1/30 29/1/29
f 33/1/33 31/1/31 30/1/30
f 33/1/33 27/1/27 32/1/32
f 33/1/33 32/1/32 31/1/31
f 34/2/34 35/2/35 36/2/36
f 34/2/34 37/2/37 35/2/35
f 34/2/34 36/2/36 38/2/38
f 34/2/34 39/2/39 37/2/37
f 34/2/34 38/2/38 40/2/40
f 34/2/34 40/2/40 39/2/39
f 35/2/35 41/2/41 36/2/36
f 35/2/35 37/2/37 42/2/42
f 35/2/35 42/2/42 43/2/43
f 35/2/35 43/2/43 44/2/44
f 36/2/36 41/2/41 38/2/38
f 40/2/40 45/2/45 39/2/39
f 40/2/40 38/2/38 46/2/46
f 40/2/40 46/2/46 45/2/45
f 38/2/38 41/2/41 46/2/46
f 37/2/37 47/2/47 42/2/42
f 37/2/37 39/2/39 48/2/48
f 37/2/37 48/2/48 47/2/47
f 42/2/42 47/2/47 43/2/43
f 44/2/44 43/2/43 49/2/49
f 44/2/44 49/2/49 50/2/50
f 44/2/44 50/2/50 51/2/51
f 44/2/44 51/2/51 52/2/52
f 43/2/43 47/2/47 49/2/49
f 41/2/41 52/2/52 46/2/46
f 45/2/45 53/2/53 39/2/39
f 45/2/45 50/2/50 53/2/53
f 45/2/45 46/2/46 54/2/54
f 45/2/45 54/2/54 50/2/50
f 54/2/54 52/2/52 51/2/51
f 54/2/54 46/2/46 52/2/52
f 54/2/54 51/2/51 50/2/50
f 50/2/50 49/2/49 53/2/53
f 39/2/39 53/2/53 48/2/48
f 47/2/47 55/2/55 49/2/49
f 47/2/47 48/2/48 55/2/55
f 55/2/55 48/2/48 53/2/53
f 55/2/55 53/2/53 49/2/49
f 56/3/56 57/3/57 58/3/58
f 56/3/56 59/3/59 57/3/57
f 56/3/56 58/3/58 60/3/60
f 56/3/56 61/3/1 59/3/59
f 56/3/56 60/3/60 62/3/61
f 56/3/56 62/3/61 61/3/1
f 62/3/61 60/3/60 61/3/1
f 59/3/59 61/3/1 57/3/57
f 58/3/58 63/3/62 60/3/60
f 58/3/58 57/3/57 64/3/63
f 58/3/58 65/3/64 63/3/62
f 58/3/58 64/3/63 65/3/64
f 61/3/1 60/3/60 66/3/65
f 61/3/1 66/3/65 57/3/57
f 66/3/65 60/3/60 63/3/62
f 66/3/65 64/3/63 57/3/57
f 66/3/65 65/3/64 64/3/63
f 66/3/65 63/3/62 65/3/64
f 67/3/66 68/3/67 69/3/68
f 67/3/66 70/3/69 68/3/67
f 67/3/66 69/3/68 71/3/70
f 67/3/66 72/3/71 70/3/69
f 67/3/66 71/3/70 72/3/71
f 68/3/67 73/3/72 69/3/68
f 68/3/67 70/3/69 74/3/73
f 68/3/67 74/3/73 73/3/72
f 71/3/70 75/3/74 72/3/71
f 71/3/70 69/3/68 76/3/75
f 71/3/70 76/3/75 75/3/74
f 69/3/68 73/3/72 76/3/75
f 70/3/69 77/3/76 74/3/73
f 70/3/69 72/3/71 77/3/76
f 72/3/71 75/3/74 77/3/76
f 73/3/72 78/3/77 76/3/75
f 73/3/72 74/3/73 78/3/77
f 78/3/77 77/3/76 75/3/74
f 78/3/77 75/3/74 76/3/75
f 78/3/77 74/3/73 77/3/76
f 79/4/78 80/4/79 81/4/80
f 79/4/78 26/4/26 80/4/79
f 79/4/78 81/4/80 82/4/81
f 79/4/78 82/4/81 24/4/24
f 44/5/44 41/6/41 35/7/35
f 44/5/44 52/8/52 41/6/41
f 9/9/9 83/10/82 84/11/83
f 9/9/9 84/11/83 85/10/84
f 30/12/30 79/12/78 24/12/24
f 30/12/30 26/12/26 79/12/78
f 9/13/9 85/13/84 8/13/8
f 9/13/9 7/13/7 83/13/82
f 26/14/26 20/15/20 80/16/79
f 24/14/24 82/16/81 19/15/19
vt 0.0263394 0.840004
v 0 0.36039 0.186609
vt 0.531739 0.736675
vn 0 0.0833176 0.996523
vt -0.0306989 0.732098
vt 0.0762844 0.978341
v -0.0950269 0.348429 0.168272
vt 0.527437 0.880367
vn -0.4637119 0.004049649 0.8859768
v 0.0950269 0.348429 0.168272
vn 0.4637119 0.004049679 0.8859768
vt 0.647733 1.00349
vt 1.10558 0.913253
vt 0.841546 0.825181
vt 0.843697 0.753335
o merged_1_0_node
g polygon_0
usemtl TEX_ANIM_EYE_mat_id
f 80/17/79 86/18/85 81/19/80
f 80/17/79 20/20/20 87/21/86
f 19/20/19 82/17/81 88/21/87
f 19/20/19 88/21/87 13/22/13
f 13/22/13 88/21/87 7/23/7
f 88/21/87 86/18/85 83/24/82
f 86/18/85 84/25/83 83/24/82
f 87/21/86 85/24/84 86/18/85
f 84/25/83 86/18/85 85/24/84
f 8/23/8 85/24/84 87/21/86
f 88/21/87 83/24/82 7/23/7
f 86/18/85 82/17/81 81/19/80
f 87/21/86 86/18/85 80/17/79
f 88/21/87 82/17/81 86/18/85
f 20/20/20 15/22/15 87/21/86
f 87/21/86 15/22/15 8/23/8
