mtllib Scizor_Normalm.mtl
v -0.138604 0.828786 0.0833598
vt 0.927027 0.0734416
vn -0.4478052 0.7817203 0.4340322
v 0 1.0482 -0.182218
vt 0.95696 0.0981714
vn 0 0.5986579 -0.8010048
v 0 0.828544 -0.178458
vt 0.956536 0.0734141
vn 0 0.4549958 -0.8904936
v 0 0.8486 0.0730614
vt 0.928187 0.0756747
vn 0 0.7819669 0.62332
v -0.143549 0.8009651 -0.122519
vt 0.950231 0.0703058
vn -0.254208 0.689645 -0.678062
v 0 0.7440341 0.19836
vt 0.914065 0.0638889
vn 0 0.5805399 0.8142318
v -0.330531 0.966295 -0.170172
vt 0.955602 0.0889401
vn -0.3324589 0.7492236 -0.5728307
v -0.100348 0.734866 0.188318
vt 0.915197 0.0628557
vn -0.2996001 0.5054441 0.8091761
v -0.22734 0.73226 0.0305784
vt 0.932976 0.062562
vn -0.9680325 0.05529927 0.2446529
v -0.16658 0.680829 0.171304
vt 0.917114 0.0567652
vn -0.8124205 0.08172855 0.5773156
v 0.138604 0.828786 0.0833598
vn 0.4478052 0.7817203 0.4340322
v -0.0926636 0.603412 0.232343
vt 0.910235 0.0480396
vn -0.4452159 -0.07193829 0.8925288
v -0.211851 0.67033 -0.132298
vt 0.951334 0.0555819
vn -0.8771355 0.09283495 -0.4711847
v -0.088718 0.690569 -0.24258
vt 0.963763 0.057863
vn -0.364621 0.19163 -0.9112241
v 0.100348 0.734866 0.188318
vn 0.2996001 0.5054441 0.8091761
v 0.143549 0.8009651 -0.122519
vn 0.254208 0.689645 -0.678062
v 0.16658 0.680829 0.171304
vn 0.8124202 0.08172862 0.5773162
v 0.330531 0.966295 -0.170172
vn 0.332459 0.7492241 -0.5728301
v 0.22734 0.73226 0.0305784
vn 0.9680325 0.05529917 0.2446529
v -0.232267 0.565001 -0.00433868
vt 0.936911 0.0437103
vn -0.9399821 -0.338293 0.0446262
v -0.142349 0.504724 0.150778
vt 0.91793 0.0366415
vn -0.6830488 -0.5749638 0.4504009
v 0 0.5997651 0.242671
vt 0.90907 0.0476286
vn 0 0.09618208 0.9953638
v 0 0.471575 0.226493
vt 0.91216 0.0346456
vn 0 -0.7557771 0.6548291
v 0.088718 0.690569 -0.24258
vn 0.364621 0.19163 -0.9112241
v -0.143549 0.5447351 -0.169541
vt 0.955531 0.0414261
vn -0.57333 -0.522603 -0.631014
v 0 0.5696371 -0.241806
vt 0.963676 0.0442329
vn 0 -0.4372042 -0.8993623
v 0.0926636 0.603412 0.232343
vn 0.4452159 -0.07193829 0.8925288
v 0.211851 0.67033 -0.132298
vn 0.8771352 0.09283503 -0.4711851
v 0.232267 0.565001 -0.00433868
vn 0.9399821 -0.338293 0.0446263
v -0.130931 0.455107 -0.024506
vt 0.939184 0.0313241
vn -0.500861 -0.857031 -0.12098
v 0 0.419167 0.0687005
vt 0.928679 0.0272733
vn 0 -0.9912129 0.132276
v 0.143549 0.5447351 -0.169541
vn 0.57333 -0.522603 -0.631014
v 0 0.454605 -0.1244
vt 0.950443 0.0312675
vn 0 -0.8809959 -0.4731239
v 0.142349 0.504724 0.150778
vn 0.6830488 -0.5749638 0.4504009
v 0.130931 0.455107 -0.024506
vn 0.500861 -0.857031 -0.12098
v 0.0658804 0.420201 0.0509402
vt 0.197264 0.730053
vn 0.08859385 0.5225952 0.8479654
v -0.0658802 0.420201 0.0509402
vt -0.194697 0.730052
vn -0.08859387 0.5225948 0.8479657
v 0 0.259358 0.0645608
vt -0.00192373 0.378772
vn 0 0.03150079 0.9995037
v 0 0.454429 -0.0431111
vt 0.000815511 0.922922
vn 0 0.9968546 0.07925217
v 0.0809296 0.25949 0.0628963
vt 0.197072 0.378772
vn 0.5082709 -0.104621 0.8548188
v 0.131761 0.427812 -0.0450194
vt 0.28847 0.881992
vn 0.8293709 0.425137 -0.362495
v 0.167664 0.368053 0.0414151
vt 0.328075 0.527379
vn 0.8620709 -0.060238 0.503195
v 0.133083 0.426682 0.0256389
vt 0.328075 0.638178
vn 0.440509 0.815265 0.375892
vt 0.445059 0.730053
v -0.0809294 0.25949 0.0628963
vt -0.20092 0.378772
vn -0.5082713 -0.1046211 0.8548185
v -0.13176 0.427812 -0.0450194
vt -0.288214 0.883832
vn -0.8293709 0.425137 -0.362495
v 0.0658805 0.435597 -0.143163
vt 0.105194 1.01332
vn 0.4410531 0.4126641 -0.7969822
v 0.141462 0.269081 -0.0580214
vt 0.445059 0.378772
vn 0.971751 0.0208342 -0.235087
v 0.0850224 0.165962 0.0610694
vt 0.227232 0.128017
vn 0.4359709 -0.6138349 0.6581308
v 0.146063 0.175954 -0.0649078
vt 0.489046 0.146317
vn 0.8435397 -0.5354158 -0.04207829
v -0.0850221 0.165962 0.0610694
vt -0.227507 0.128016
vn -0.4359709 -0.6138349 0.6581308
v -0.0658801 0.435597 -0.143163
vt -0.104681 1.01516
vn -0.4410531 0.4126641 -0.7969822
v 0 0.0745398 -0.0729823
vt 0.421234 -0.0730078
vn 0 -0.9968948 -0.07874469
vt -0.00169873 -0.0901842
vt 0.227507 0.128016
v -0.146063 0.175954 -0.0649078
vn -0.8435395 -0.5354163 -0.04207862
v -0.141461 0.269081 -0.0580214
vn -0.9717508 0.0208343 -0.235088
v -0.167663 0.368053 0.0414151
vn -0.8620713 -0.06023782 0.5031942
v -0.133083 0.426682 0.0256389
vn -0.4405088 0.8152647 0.3758928
v 0.0809297 0.278995 -0.183017
vt 0.467673 0.378772
vn 0.4066059 0.1897909 -0.8936728
v 0.0850225 0.18608 -0.19257
vt 0.469117 0.103966
vn 0.339784 -0.36659 -0.866117
v -0.0850221 0.18608 -0.19257
vn -0.339784 -0.36659 -0.866117
vt 0.454984 0.103966
v -0.0809293 0.278995 -0.183017
vn -0.4066059 0.1897909 -0.8936728
vt 0.455009 0.378772
vt 0.464911 0.730053
vt 0.454967 0.730053
v 0.268281 0.436465 0.289395
vt 0.998567 0.64901
vn 0.104889 0.9498888 0.2944649
v 0.212446 0.421258 0.123386
vt 0.966955 0.164525
vn -0.105706 0.9371549 -0.332516
v 0.159275 0.381636 0.16039
vt 0.855884 0.211465
vn -0.9558161 0.262359 0.132602
v 0.276719 0.380892 0.120958
vn 0.8450908 0.2509469 -0.4720669
v 0.204008 0.389982 0.293462
vt 0.870606 0.599652
vn -0.849093 0.243959 0.468535
v 0.321452 0.389238 0.25403
vn 0.9625123 0.2324791 -0.139727
v 0.292866 0.347782 0.36429
vt 0.749836 0.863269
vn 0.3183471 0.0190313 0.9477832
v 0.187445 0.341858 0.0504224
vt 0.749829 -0.0516966
vn -0.3183111 -0.00280762 -0.9479822
v 0.215083 0.30287 0.291387
vt 0.629156 0.599652
vn -0.8201393 -0.3449731 0.4564702
v 0.17035 0.306188 0.158095
vt 0.64667 0.211465
vn -0.9151219 -0.37558 0.1466
v 0.310378 0.302266 0.259391
vn 0.9254386 -0.3560359 -0.129622
v 0.268281 0.256337 0.292795
vt 0.500755 0.64901
vn 0.105116 -0.9378382 0.3307721
v 0.265645 0.305585 0.126099
vn 0.8138258 -0.3865369 -0.4339089
v 0.212446 0.265268 0.12633
vt 0.535853 0.164525
vn -0.105583 -0.9491639 -0.296547
v -0.268281 0.436465 0.289395
vn -0.104889 0.9498888 0.2944649
v -0.159275 0.381636 0.16039
vn 0.9558159 0.26236 0.132602
v -0.212446 0.421258 0.123386
vn 0.105706 0.9371549 -0.332516
v -0.204008 0.389982 0.293462
vn 0.849093 0.243959 0.468535
v -0.276719 0.380892 0.120958
vn -0.8450908 0.2509469 -0.4720669
v -0.292866 0.347782 0.36429
vn -0.3183471 0.0190315 0.9477832
v -0.321452 0.389238 0.25403
vn -0.9625124 0.2324791 -0.1397261
v -0.187445 0.341858 0.0504224
vn 0.3183111 -0.002808131 -0.9479822
v -0.17035 0.306188 0.158095
vn 0.9151219 -0.37558 0.1466
v -0.310378 0.302266 0.259391
vn -0.9254386 -0.3560359 -0.129622
v -0.215082 0.30287 0.291387
vn 0.8201393 -0.3449731 0.4564702
v -0.265645 0.305585 0.126099
vn -0.8138261 -0.386537 -0.433908
v -0.212446 0.265268 0.12633
vn 0.105583 -0.9491642 -0.2965461
v -0.268281 0.256337 0.292795
vn -0.105116 -0.9378382 0.3307721
vt 0.314207 0.902239
vt 0.329615 0.925903
vt 0.298264 0.925546
vt 0.340928 0.920842
vt 0.287069 0.92023
vt 0.997853 0.685747
vt 0.997853 1.12048
vt 0.637185 1.02232
o merged_0_0_node
g polygon_0
usemtl mat_body_mat_id
f 1/1/1 2/2/2 3/3/3
f 1/1/1 4/4/4 2/2/2
f 1/1/1 3/3/3 5/5/5
f 1/1/1 6/6/6 4/4/4
f 1/1/1 5/5/5 7/7/7
f 1/1/1 8/8/8 6/6/6
f 1/1/1 7/7/7 9/9/9
f 1/1/1 10/10/10 8/8/8
f 1/1/1 9/9/9 10/10/10
f 7/7/7 5/5/5 9/9/9
f 2/2/2 11/1/11 3/3/3
f 2/2/2 4/4/4 11/1/11
f 4/4/4 6/6/6 11/1/11
f 8/8/8 10/10/10 12/11/12
f 8/8/8 12/11/12 6/6/6
f 5/5/5 13/12/13 9/9/9
f 5/5/5 3/3/3 14/13/14
f 5/5/5 14/13/14 13/12/13
f 11/1/11 6/6/6 15/8/15
f 11/1/11 16/5/16 3/3/3
f 11/1/11 15/8/15 17/10/17
f 11/1/11 18/7/18 16/5/16
f 11/1/11 17/10/17 19/9/19
f 11/1/11 19/9/19 18/7/18
f 18/7/18 19/9/19 16/5/16
f 10/10/10 9/9/9 20/14/20
f 10/10/10 20/14/20 21/15/21
f 9/9/9 13/12/13 20/14/20
f 12/11/12 22/16/22 6/6/6
f 12/11/12 23/17/23 22/16/22
f 14/13/14 3/3/3 24/13/24
f 14/13/14 25/18/25 13/12/13
f 14/13/14 24/13/24 26/19/26
f 14/13/14 26/19/26 25/18/25
f 13/12/13 25/18/25 20/14/20
f 3/3/3 16/5/16 24/13/24
f 15/8/15 27/11/27 17/10/17
f 15/8/15 6/6/6 27/11/27
f 27/11/27 22/16/22 23/17/23
f 27/11/27 6/6/6 22/16/22
f 19/9/19 28/12/28 16/5/16
f 19/9/19 17/10/17 29/14/29
f 19/9/19 29/14/29 28/12/28
f 16/5/16 28/12/28 24/13/24
f 21/15/21 20/14/20 30/20/30
f 21/15/21 30/20/30 31/21/31
f 20/14/20 25/18/25 30/20/30
f 26/19/26 24/13/24 32/18/32
f 26/19/26 33/22/33 25/18/25
f 26/19/26 32/18/32 33/22/33
f 30/20/30 33/22/33 31/21/31
f 30/20/30 25/18/25 33/22/33
f 28/12/28 29/14/29 32/18/32
f 28/12/28 32/18/32 24/13/24
f 17/10/17 34/15/34 29/14/29
f 31/21/31 33/22/33 35/20/35
f 31/21/31 35/20/35 34/15/34
f 35/20/35 33/22/33 32/18/32
f 35/20/35 29/14/29 34/15/34
f 35/20/35 32/18/32 29/14/29
f 36/23/36 37/24/37 38/25/38
f 36/23/36 39/26/39 37/24/37
f 36/23/36 38/25/38 40/27/40
f 36/23/36 41/28/41 39/26/39
f 36/23/36 40/27/40 42/29/42
f 36/23/36 42/29/42 43/30/43
f 36/23/36 43/30/43 41/31/41
f 43/30/43 42/29/42 41/31/41
f 37/24/37 44/32/44 38/25/38
f 37/24/37 39/26/39 45/33/45
f 41/28/41 46/34/46 39/26/39
f 40/27/40 47/35/47 42/29/42
f 40/27/40 38/25/38 48/36/48
f 40/27/40 49/37/49 47/35/47
f 40/27/40 48/36/48 49/37/49
f 47/35/47 41/31/41 42/29/42
f 44/32/44 50/38/50 38/25/38
f 38/25/38 50/38/50 48/36/48
f 45/33/45 39/26/39 51/39/51
f 51/39/51 39/26/39 46/34/46
f 49/37/49 48/36/48 52/40/52
f 50/38/50 52/41/52 48/36/48
f 52/40/52 50/42/50 53/37/53
f 50/42/50 44/27/44 53/37/53
f 44/27/44 54/35/54 53/37/53
f 44/27/44 55/29/55 54/35/54
f 44/27/44 37/23/37 55/29/55
f 54/35/54 55/29/55 45/31/45
f 37/23/37 56/30/56 55/29/55
f 37/23/37 45/31/45 56/30/56
f 56/30/56 45/31/45 55/29/55
f 57/43/57 58/44/58 59/44/59
f 57/43/57 49/45/49 58/44/58
f 57/43/57 59/44/59 60/43/60
f 57/43/57 47/46/47 49/45/49
f 57/43/57 60/43/60 46/47/46
f 57/43/57 46/47/46 47/46/47
f 59/44/59 53/45/53 60/43/60
f 46/47/46 41/48/41 47/46/47
f 46/47/46 60/43/60 51/47/51
f 53/45/53 54/46/54 60/43/60
f 60/43/60 54/46/54 51/47/51
f 54/46/54 45/48/45 51/47/51
f 61/49/61 62/50/62 63/51/63
f 61/49/61 64/51/64 62/50/62
f 61/49/61 63/51/63 65/52/65
f 61/49/61 66/52/66 64/51/64
f 61/49/61 65/52/65 67/53/67
f 61/49/61 67/53/67 66/52/66
f 62/50/62 68/54/68 63/51/63
f 62/50/62 64/51/64 68/54/68
f 65/52/65 69/55/69 67/53/67
f 65/52/65 63/51/63 70/56/70
f 65/52/65 70/56/70 69/55/69
f 63/51/63 68/54/68 70/56/70
f 66/52/66 71/55/71 64/51/64
f 66/52/66 67/53/67 71/55/71
f 69/55/69 70/56/70 72/57/72
f 69/55/69 72/57/72 67/53/67
f 67/53/67 72/57/72 71/55/71
f 68/54/68 64/51/64 73/56/73
f 68/54/68 74/58/74 70/56/70
f 68/54/68 73/56/73 74/58/74
f 73/56/73 71/55/71 72/57/72
f 73/56/73 64/51/64 71/55/71
f 73/56/73 72/57/72 74/58/74
f 74/58/74 72/57/72 70/56/70
f 75/49/75 76/51/76 77/50/77
f 75/49/75 78/52/78 76/51/76
f 75/49/75 77/50/77 79/51/79
f 75/49/75 80/53/80 78/52/78
f 75/49/75 79/51/79 81/52/81
f 75/49/75 81/52/81 80/53/80
f 76/51/76 82/54/82 77/50/77
f 76/51/76 78/52/78 83/56/83
f 76/51/76 83/56/83 82/54/82
f 77/50/77 82/54/82 79/51/79
f 81/52/81 84/55/84 80/53/80
f 81/52/81 79/51/79 84/55/84
f 78/52/78 85/55/85 83/56/83
f 78/52/78 80/53/80 85/55/85
f 82/54/82 86/56/86 79/51/79
f 82/54/82 83/56/83 87/58/87
f 82/54/82 87/58/87 86/56/86
f 79/51/79 86/56/86 84/55/84
f 80/53/80 88/57/88 85/55/85
f 80/53/80 84/55/84 88/57/88
f 88/57/88 83/56/83 85/55/85
f 88/57/88 87/58/87 83/56/83
f 88/57/88 84/55/84 86/56/86
f 88/57/88 86/56/86 87/58/87
f 52/59/52 59/60/59 58/61/58
f 52/59/52 53/62/53 59/60/59
f 52/59/52 58/61/58 49/63/49
f 31/64/31 23/65/23 21/66/21
f 31/64/31 34/66/34 23/65/23
v -0.241201 0.603808 -0.476373
vt 1 0.96218
vn 0.8660255 0.03953028 -0.4984347
v -0.131654 0.53965 -0.291125
vt 0.417008 0.830964
v -0.187787 0.450883 -0.395696
vt 0.715742 0.573504
v -0.0532969 0.378026 -0.167798
vt 0 0.428185
vn -0.8660255 -0.03953018 0.4984347
v -0.19081 0.338714 -0.409903
vt 1.00986 0.322186
v -0.124658 0.390798 -0.290833
vt 0.656162 0.481803
v -0.147499 0.244688 -0.342108
vt 0.781767 0.0846995
v -0.0533663 0.37804 -0.167977
vt 0.27686 0.469947
v 0.0532969 0.378026 -0.167798
vn -0.8660253 0.03953022 -0.4984352
v 0.131654 0.53965 -0.291125
v 0.187787 0.450884 -0.395696
v 0.241201 0.603808 -0.476372
vn 0.8660253 -0.03953022 0.4984352
v 0.0535688 0.37804 -0.167977
v 0.12486 0.390798 -0.290833
v 0.147701 0.244688 -0.342108
v 0.191012 0.338714 -0.409903
v 0.206321 0.142338 -0.0696392
vt 0.238139 0.0638322
vn 0.9566804 -0.2738961 -0.09870974
v 0.129038 0.139896 -0.150236
vt 0.23154 0.106997
vn 0.0036317 -0.0798671 -0.9967989
v 0.155554 0.183861 -0.0666166
vt 0.350361 0.0622134
vn 0.03311219 0.9992778 0.0186425
v 0.0413155 0.142338 -0.0696392
vn -0.9953656 0.03421859 0.08986927
v 0.148362 0.139314 0.0109613
vt 0.229966 0.0206657
vn 0.0482084 -0.118359 0.9918
v 0.108228 3.018971E-06 -0.0695474
vt -0.00535202 0.0637829
vn -0.207046 -0.9772102 0.04682081
v -0.206321 0.142338 -0.0696392
vn -0.9566804 -0.2738961 -0.09870974
v -0.155554 0.183861 -0.0666166
vn -0.03311209 0.9992778 0.0186426
v -0.129038 0.139896 -0.150236
v -0.0413155 0.142338 -0.0696392
vn 0.9953656 0.03421869 0.08986926
v -0.148362 0.139314 0.0109613
vn -0.0482085 -0.118359 0.9918
v -0.108228 3.018971E-06 -0.0695474
vn 0.207046 -0.9772102 0.04682091
o merged_1_0_node
g polygon_0
usemtl mat_wing_mat_id
f 89/67/89 90/68/89 91/69/89
f 91/69/89 90/68/89 92/70/89
f 92/70/90 90/68/90 91/69/90
f 91/69/90 90/68/90 89/67/90
f 93/71/89 94/72/89 95/73/89
f 95/73/89 94/72/89 96/74/89
f 96/74/90 94/72/90 95/73/90
f 95/73/90 94/72/90 93/71/90
f 97/70/91 98/68/91 99/69/91
f 99/69/91 98/68/91 100/67/91
f 97/70/92 99/69/92 98/68/92
f 98/68/92 99/69/92 100/67/92
f 101/74/91 102/72/91 103/73/91
f 103/73/91 102/72/91 104/71/91
f 101/74/92 103/73/92 102/72/92
f 102/72/92 103/73/92 104/71/92
f 105/75/93 106/76/94 107/77/95
f 106/76/94 108/75/96 107/77/95
f 108/75/96 109/78/97 107/77/95
f 107/77/95 109/78/97 105/75/93
f 110/79/98 106/76/94 105/75/93
f 110/79/98 108/75/96 106/76/94
f 110/79/98 109/78/97 108/75/96
f 110/79/98 105/75/93 109/78/97
f 111/75/99 112/77/100 113/76/94
f 113/76/94 112/77/100 114/75/101
f 114/75/101 112/77/100 115/78/102
f 112/77/100 111/75/99 115/78/102
f 116/79/103 111/75/99 113/76/94
f 116/79/103 113/76/94 114/75/101
f 116/79/103 114/75/101 115/78/102
f 116/79/103 115/78/102 111/75/99
vt 0.901031 0.993702
vt 0.225388 0.8926
vt 0.901031 0.758937
vt -0.174635 0.711313
o merged_2_0_node
g polygon_0
usemtl TEX_ANIM_EYE_mat_id
f 17/80/17 27/81/27 34/82/34
f 23/83/23 12/81/12 21/82/21
f 27/81/27 23/83/23 34/82/34
f 10/80/10 21/82/21 12/81/12
