mtllib Electabuzz.mtl
v -0.103875 0.101337 -0.171855
vt 0.366272 0.358681
vn -0.400948 -0.480251 -0.780128
v 0.108148 0.209391 -0.191647
vt 0.183166 0.543521
vn 0.480994 0.138069 -0.8657839
v 0.103875 0.101337 -0.171855
vt 0.171668 0.358381
vn 0.400948 -0.480251 -0.780128
v -0.108148 0.209391 -0.191647
vt 0.354698 0.543521
vn -0.4809932 0.1380691 -0.8657843
v 0 0.0665845 0
vt 0.269331 0.0520054
vn 0 -1 -0.000188444
v -0.216295 0.209391 0
vt 0.533235 0.614323
vn -0.9745995 0.0009254015 -0.2239529
v -0.132634 -7.450581E-09 0
vt 0.452818 0.118671
vn -0.177542 -0.9840991 -0.00527731
v -0.20775 0.101337 0.000888239
vt 0.549237 0.428123
vn -0.9624839 -0.271332 0.00190296
v 0.216295 0.209391 0
vt 0.00462946 0.614323
vn 0.9745995 0.0009254655 -0.2239529
v 0.0771592 0.430289 -0.126597
vt 0.198665 0.941826
vn 0.4534002 0.4290792 -0.7812294
v -0.103875 0.101337 0.162582
vt 0.548697 -0.0804165
vn -0.393725 -0.496527 0.7735901
v 0.132634 -7.450581E-09 0
vt 0.0777746 0.118671
vn 0.177542 -0.9840991 -0.005277241
v 0.103875 0.101337 0.162583
vt -0.00516904 -0.0804165
vn 0.393725 -0.496527 0.7735901
v -0.0771591 0.430289 -0.126597
vt 0.3392 0.941826
vn -0.4533999 0.4290789 -0.7812297
v -0.154318 0.430289 0
vt 0.468947 0.987952
vn -0.7857158 0.5106239 -0.3491619
v 0.20775 0.101337 0.000888239
vt -0.0100355 0.428123
vn 0.9624842 -0.2713311 0.00190326
v 0.154318 0.430289 0
vt 0.0689175 0.987952
vn 0.7857158 0.5106239 -0.3491619
v 0 0.454282 0
vt 0.268932 0.991969
vn 0 1 0
v -0.0898231 0.534983 -0.252129
vt 0.0225168 0.949949
vn -0.3691182 -0.09545584 -0.9244674
v 0 0.483844 -0.207428
vn 0 -0.8578609 -0.513882
v -0.15513 0.476257 -0.131533
vn -0.3445629 -0.8722609 -0.347041
v 0.0898231 0.534983 -0.252129
vn 0.3507981 -0.05522711 -0.9348212
v -0.2592 0.534983 -0.132848
vn -0.829328 -0.10578 -0.548658
v 0.0418184 0.612264 -0.203358
vn 0.2904859 0.3983358 -0.8700267
v -0.176724 0.61765 -0.11563
vn -0.6703328 0.4379789 -0.5990229
v -0.0418184 0.612264 -0.203358
vn -0.3292979 0.3757959 -0.8662218
v 0 0.422911 -0.0637746
vn 0 -0.9771804 -0.2124109
v 0.15513 0.476257 -0.131533
vn 0.3445629 -0.8722609 -0.347041
v -0.249998 0.585843 0.0262927
vn -0.8870116 0.4596508 0.04394988
v -0.305489 0.527088 0.0266553
vn -0.8581049 -0.5113059 0.04714179
v 0 0.755903 -0.188441
vn 0 0.4957178 -0.8684837
v 0.176724 0.61765 -0.11563
vn 0.6703328 0.4379789 -0.5990229
v 0.120391 0.767472 -0.119288
vn 0.604346 0.546387 -0.579851
v 0.138925 0.435187 0.0261881
vn 0.3370038 -0.9414995 0.002666579
v 0.2592 0.534983 -0.132848
vn 0.829328 -0.10578 -0.548658
v 0.305489 0.527088 0.0266553
vn 0.8581049 -0.5113059 0.04714179
v -0.231489 0.707046 0.0260485
vn -0.8943434 0.4473592 -0.004418532
v -0.120391 0.767472 -0.119288
vn -0.604346 0.546387 -0.579851
v -0.138925 0.435187 0.0261881
vn -0.3370038 -0.9414995 0.002666569
v 0.231489 0.707046 0.0260485
vn 0.8943434 0.4473592 -0.004418632
v 0 0.848812 -0.0637746
vn 0 0.9482871 -0.317414
v 0.0989926 0.830094 0.0260485
vn 0.4886618 0.8689687 0.07812167
v 0.151658 0.476257 0.163139
vn 0.43374 -0.8018361 0.4110091
v 0 0.422911 0.115872
vn 0 -0.9819137 0.189329
v 0.249998 0.585843 0.0262927
vn 0.8870116 0.4596508 0.04394978
v -0.177148 0.593614 0.15056
vn -0.6592299 0.246802 0.7102849
v -0.214489 0.547841 0.15861
vn -0.747026 -0.0437007 0.663357
v 0 0.829338 0.101266
vn 0 0.8890392 0.4578311
v 0.145464 0.731704 0.161011
vn 0.5881482 0.4544952 0.6689662
v -0.0989926 0.830094 0.0260485
vn -0.4886623 0.8689685 0.07812185
v 0 0.460496 0.21463
vn -0.00127256 -0.874792 0.484497
v 0.214489 0.547841 0.15861
vn 0.747026 -0.0437007 0.663357
v -0.151658 0.476257 0.163139
vn -0.43374 -0.8018361 0.4110091
v -0.145464 0.731704 0.161011
vn -0.587611 0.4529629 0.670476
v -0.0898231 0.521259 0.247971
vn -0.476526 -0.0915672 0.8743789
v 0.177148 0.593614 0.15056
vn 0.6613815 0.2467028 0.7083165
v 0.0898231 0.521259 0.247971
vn 0.480555 -0.0979172 0.871481
v -0.00671656 0.160193 -0.412247
vt 0.718923 0.731784
vn -0.002414261 -0.9934522 -0.114223
v 0.0120732 0.110856 -0.297355
vt 0.610295 0.72978
vn 0.7970104 -0.6039283 -0.006701664
v -0.0398883 0.110856 -0.297355
vn -0.8205611 -0.571557 0.00145815
v 0.0252198 0.21342 -0.3979
vt 0.718315 0.737507
vn 0.7201291 0.66799 0.187626
v -0.0384785 0.213815 -0.399029
vt 0.719303 0.737507
vn -0.7177661 0.6872651 0.111707
v 0.0343548 0.154412 -0.52131
vt 0.830028 0.725869
vn 0.9192072 -0.3680491 -0.139993
v -0.0343548 0.154412 -0.52131
vn -0.8891271 -0.403897 -0.215221
v 0 0.10804 -0.180089
vt 0.52162 0.737507
vn 0 -0.9997119 -0.0240059
v -0.0139075 0.151101 -0.277221
vt 0.608528 0.737507
vn -0.0429072 0.804057 0.593002
vn 0.8580341 0.5036771 0.100434
v 0 0.21054 -0.54107
vt 0.832799 0.737507
vn 0.0244914 0.9050441 -0.424612
v 0 0.167297 -0.55702
vt 0.836744 0.707784
vn 0 -0.9406447 -0.3393929
vn -0.7414601 0.232193 -0.6295421
vn -0.8625264 0.4051752 0.3031192
vn 0.7414593 0.2321931 -0.6295432
v -0.108148 0.209391 0.191647
vt 0.679415 0.428713
vn -0.2488889 -0.06916007 0.9660596
vt 0.548779 0.493549
vt 0.683087 0.621156
vt 0.861847 0.621156
v 0.108148 0.209391 0.191647
vt 0.86552 0.428712
vn 0.2488889 -0.06916007 0.9660596
v -0.0771592 0.430289 0.126597
vt 0.706075 0.0323978
vn -0.03768718 0.5737706 0.8181485
v -0.265546 0.341584 0.203321
vt 0.54564 0.214619
vn -0.8061935 0.1398941 0.5748754
vt 0.575453 0.672011
vt 1.0491 0.520958
vt 1.02243 0.699419
v 0.0771592 0.430289 0.126597
vt 0.838859 0.0323976
vn 0.03768718 0.5737706 0.8181485
vt 0.772467 0.00328966
vt 0.639685 0.00328927
v 0.265546 0.341584 0.203321
vt 1.00175 0.214618
vn 0.8061939 0.139894 0.5748749
vt 0.905249 0.00328983
v 0.308548 0.834305 -0.0374187
vt 0.0150854 0.979592
vn 0.7716126 -0.6360927 0
v 0.237014 0.856985 -0.101162
vn -0.2558371 -0.3103441 -0.9155512
v 0.281063 0.910419 -0.0555387
vn 0.5823759 0.7064508 -0.4022009
v 0.228589 0.846765 -0.0192988
vn -0.5823759 -0.7064508 0.4022009
v 0.272638 0.900199 0.0263247
vn 0.2558371 0.3103441 0.9155512
v 0.201104 0.922878 -0.0374187
vn -0.7716131 0.6360921 0
v -0.308548 0.834305 -0.0374187
vn -0.7716122 -0.6360932 0
v -0.281063 0.910419 -0.0555387
vn -0.5823759 0.7064508 -0.4022009
v -0.237014 0.856985 -0.101162
vn 0.2558371 -0.3103432 -0.9155515
v -0.272638 0.900199 0.0263247
vn -0.255838 0.310344 0.9155509
v -0.228589 0.846765 -0.0192988
vn 0.5823759 -0.7064508 0.4022009
v -0.201104 0.922878 -0.0374187
vn 0.7716122 0.6360932 0
v 0.000939823 0.589967 0.25447
vt 0.865696 0.852213
vn 0.00101037 0.280321 0.9599058
vt 1.10898 1.02696
vt 0.984832 0.70264
v 0.00187965 0.515609 0.284012
vt 0.865935 0.652373
vn 0.003434499 -0.27692 0.9608869
vt 0.671406 0.784352
vt 0.768729 0.990658
vt 0.649466 1.00169
vt 0.872773 0.794569
vt 0.872509 0.794569
vt 0.962321 0.951297
vt 0.962321 0.951283
v 0 1.00285 0.12802
v 0.0476244 0.806965 0.050009
vn 0.898356 0.332653 -0.286877
v -0.0476244 0.806965 0.050009
vn -0.898356 0.332653 -0.286877
v 0 0.773 0.135295
vn 0 0.03163289 0.9994996
v 0 1.05494 -0.044331
vn 0 0.9999489 0.0101159
v 0.0476244 0.810428 -0.0130142
vn 0.899239 0.121318 -0.420299
v -0.0476244 0.810428 -0.0130142
vn -0.899239 0.121318 -0.420299
v 0 0.82209 0.0780424
vn 0 0.46522 0.8851951
v 0.135204 0.466709 0.20804
vt 0.985577 0.0302198
vn 0.6869391 -0.4064701 0.6024091
v 0.104047 0.512101 0.227553
vn -0.1611219 -0.4810297 0.8617715
v 0.109528 0.529613 0.203781
vn -0.4027991 -0.2244871 -0.8873323
v 0.143934 0.531929 0.201316
vn 0.9110767 -0.1610839 -0.3794618
v -0.135204 0.466709 0.20804
vn -0.6869382 -0.4064701 0.6024101
v -0.109528 0.529613 0.203781
vn 0.4027991 -0.2244871 -0.8873323
v -0.104047 0.512101 0.227553
vn 0.161122 -0.481029 0.8617719
v -0.143934 0.531929 0.201316
vn -0.911077 -0.161084 -0.379461
v 0.247974 0.870279 -0.0326862
v 0.102115 0.728501 0.0984366
vn -0.05378688 0.7072628 0.7049018
v 0.143972 0.673806 0.0629739
vn 0.8659496 -0.4945768 -0.07433087
v 0.0822955 0.70446 0.0275112
vn -0.4892771 0.178991 -0.8535632
v -0.247974 0.870279 -0.0326862
v -0.143972 0.673806 0.0629739
vn -0.8659496 -0.4945768 -0.07433156
v -0.102115 0.728501 0.0984366
vn 0.05378632 0.7072622 0.7049022
v -0.0822955 0.70446 0.0275112
vn 0.489277 0.178992 -0.8535631
vt 0.555918 1.15746
v 0 0.735275 0.21606
vt 0.488231 0.812119
vn -0.00078144 0.508208 0.861234
vt 0.684194 0.808818
vt 0.469273 0.96168
o merged_0_0_node
g polygon_0
usemtl mat_body1_mat_id
f 1/1/1 2/2/2 3/3/3
f 1/1/1 4/4/4 2/2/2
f 1/1/1 3/3/3 5/5/5
f 1/1/1 6/6/6 4/4/4
f 1/1/1 5/5/5 7/7/7
f 1/1/1 8/8/8 6/6/6
f 1/1/1 7/7/7 8/8/8
f 2/2/2 9/9/9 3/3/3
f 2/2/2 4/4/4 10/10/10
f 2/2/2 10/10/10 9/9/9
f 5/5/5 11/11/11 7/7/7
f 5/5/5 3/3/3 12/12/12
f 5/5/5 12/12/12 13/13/13
f 7/7/7 11/11/11 8/8/8
f 6/6/6 14/14/14 4/4/4
f 6/6/6 15/15/15 14/14/14
f 4/4/4 14/14/14 10/10/10
f 9/9/9 16/16/16 3/3/3
f 9/9/9 10/10/10 17/17/17
f 16/16/16 12/12/12 3/3/3
f 16/16/16 13/13/13 12/12/12
f 15/15/15 18/18/18 14/14/14
f 18/18/18 10/10/10 14/14/14
f 18/18/18 17/17/17 10/10/10
f 19/19/19 20/19/20 21/19/21
f 19/19/19 22/19/22 20/19/20
f 19/19/19 21/19/21 23/19/23
f 19/19/19 24/19/24 22/19/22
f 19/19/19 23/19/23 25/19/25
f 19/19/19 26/19/26 24/19/24
f 19/19/19 25/19/25 26/19/26
f 20/19/20 27/19/27 21/19/21
f 20/19/20 22/19/22 28/19/28
f 20/19/20 28/19/28 27/19/27
f 23/19/23 29/19/29 25/19/25
f 23/19/23 21/19/21 30/19/30
f 23/19/23 30/19/30 29/19/29
f 24/19/24 26/19/26 31/19/31
f 24/19/24 32/19/32 22/19/22
f 24/19/24 31/19/31 33/19/33
f 24/19/24 33/19/33 32/19/32
f 28/19/28 34/19/34 27/19/27
f 28/19/28 22/19/22 35/19/35
f 28/19/28 36/19/36 34/19/34
f 28/19/28 35/19/35 36/19/36
f 22/19/22 32/19/32 35/19/35
f 25/19/25 29/19/29 37/19/37
f 25/19/25 38/19/38 26/19/26
f 25/19/25 37/19/37 38/19/38
f 26/19/26 38/19/38 31/19/31
f 21/19/21 39/19/39 30/19/30
f 21/19/21 27/19/27 39/19/39
f 33/19/33 40/19/40 32/19/32
f 33/19/33 31/19/31 41/19/41
f 33/19/33 42/19/42 40/19/40
f 33/19/33 41/19/41 42/19/42
f 31/19/31 38/19/38 41/19/41
f 34/19/34 36/19/36 43/19/43
f 34/19/34 44/19/44 27/19/27
f 34/19/34 43/19/43 44/19/44
f 27/19/27 44/19/44 39/19/39
f 35/19/35 32/19/32 45/19/45
f 35/19/35 45/19/45 36/19/36
f 32/19/32 40/19/40 45/19/45
f 29/19/29 46/19/46 37/19/37
f 29/19/29 30/19/30 47/19/47
f 29/19/29 47/19/47 46/19/46
f 42/19/42 41/19/41 48/19/48
f 42/19/42 49/19/49 40/19/40
f 42/19/42 48/19/48 49/19/49
f 38/19/38 37/19/37 50/19/50
f 38/19/38 50/19/50 41/19/41
f 41/19/41 50/19/50 48/19/48
f 43/19/43 51/19/51 44/19/44
f 43/19/43 36/19/36 52/19/52
f 36/19/36 45/19/45 52/19/52
f 39/19/39 53/19/53 30/19/30
f 39/19/39 44/19/44 53/19/53
f 53/19/53 47/19/47 30/19/30
f 53/19/53 44/19/44 51/19/51
f 46/19/46 54/19/54 37/19/37
f 46/19/46 47/19/47 55/19/55
f 54/19/54 50/19/50 37/19/37
f 54/19/54 48/19/48 50/19/50
f 40/19/40 49/19/49 56/19/56
f 40/19/40 56/19/56 45/19/45
f 45/19/45 56/19/56 52/19/52
f 56/19/56 57/19/57 52/19/52
f 58/20/58 59/21/59 60/21/60
f 58/20/58 61/22/61 59/21/59
f 58/20/58 60/21/60 62/23/62
f 58/20/58 63/24/63 61/22/61
f 58/20/58 62/23/62 64/24/64
f 58/20/58 64/24/64 63/24/63
f 59/21/59 65/25/65 60/21/60
f 59/21/59 61/22/61 66/26/66
f 59/21/59 66/26/66 65/25/67
f 62/23/62 67/27/68 64/24/64
f 62/23/62 60/21/60 66/26/66
f 62/23/62 66/26/66 61/22/61
f 62/23/62 61/22/61 67/27/68
f 61/22/61 63/24/63 67/27/68
f 64/24/64 68/28/69 63/24/63
f 64/24/64 67/27/68 68/28/70
f 60/21/60 65/25/71 66/26/66
f 63/24/63 68/28/72 67/27/68
f 69/29/73 6/30/6 11/31/11
f 69/29/73 11/31/11 13/32/13
f 69/29/73 13/32/13 70/33/74
f 69/29/73 70/33/74 71/34/75
f 69/29/73 71/34/75 72/35/76
f 69/29/73 72/35/76 6/29/6
f 6/30/6 8/36/8 11/31/11
f 13/32/13 9/37/9 70/33/74
f 13/32/13 16/38/16 9/37/9
f 71/34/75 15/34/15 72/35/76
f 71/34/75 70/33/74 73/39/77
f 71/34/75 73/39/77 18/40/18
f 71/34/75 18/40/18 15/41/15
f 72/35/76 15/34/15 6/29/6
f 70/33/74 74/42/78 73/39/77
f 70/33/74 9/33/9 74/42/78
f 18/40/18 73/39/77 17/43/17
f 9/33/9 17/39/17 74/42/78
f 74/42/78 17/39/17 73/39/77
f 75/44/79 76/44/80 77/44/81
f 75/44/79 78/44/82 76/44/80
f 75/44/79 77/44/81 79/44/83
f 75/44/79 79/44/83 78/44/82
f 76/44/80 80/44/84 77/44/81
f 76/44/80 78/44/82 80/44/84
f 80/44/84 79/44/83 77/44/81
f 80/44/84 78/44/82 79/44/83
f 81/44/85 82/44/86 83/44/87
f 81/44/85 84/44/88 82/44/86
f 81/44/85 83/44/87 85/44/89
f 81/44/85 85/44/89 84/44/88
f 82/44/86 86/44/90 83/44/87
f 82/44/86 84/44/88 86/44/90
f 86/44/90 85/44/89 83/44/87
f 86/44/90 84/44/88 85/44/89
f 87/45/91 46/46/46 55/47/55
f 87/45/91 55/47/55 88/48/92
f 87/45/91 88/48/92 57/47/57
f 87/45/91 57/47/57 56/46/56
f 51/49/51 57/50/57 88/51/92
f 51/49/51 43/52/43 57/50/57
f 51/49/51 88/51/92 55/50/55
f 51/49/51 55/50/55 53/53/53
f 43/52/43 52/54/52 57/50/57
f 55/50/55 47/55/47 53/53/53
f 89/44/48 90/44/93 91/44/94
f 89/44/48 92/44/95 90/44/93
f 89/44/48 91/44/94 92/44/95
f 93/44/96 94/44/97 95/44/98
f 93/44/96 96/44/99 94/44/97
f 93/44/96 95/44/98 96/44/99
f 97/56/100 98/56/101 99/56/102
f 97/56/100 100/56/103 98/56/101
f 97/56/100 99/56/102 100/56/103
f 101/56/104 102/56/105 103/56/106
f 101/56/104 104/56/107 102/56/105
f 101/56/104 103/56/106 104/56/107
f 105/44/81 106/44/108 107/44/109
f 105/44/81 108/44/110 106/44/108
f 105/44/81 107/44/109 108/44/110
f 109/44/86 110/44/111 111/44/112
f 109/44/86 112/44/113 110/44/111
f 109/44/86 111/44/112 112/44/113
f 48/57/48 113/58/114 49/59/49
f 48/57/48 54/59/54 113/58/114
f 13/60/13 11/60/11 5/60/5
vt 0.176769 0.985058
vt 0.96062 0.983408
vt -0.00249818 0.803819
vt 1.03257 0.807987
o merged_1_0_node
g polygon_0
usemtl TEX_ANIM_EYE_mat_id
f 113/61/114 54/62/54 87/63/91
f 54/62/54 46/64/46 87/63/91
f 113/61/114 87/63/91 49/62/49
f 49/62/49 87/63/91 56/64/56
