ply
format ascii 1.0
element vertex 674
property float x
property float y
property float z
property uchar red
property uchar green
property uchar blue
element face 814
property list uchar int vertex_index
end_header
0.24646 0.25099 0.76092 197 152 195
0.54495 0.25099 0.76092 197 152 195
0.54495 0.25099 0.09149 197 152 195
0.24646 0.25099 0.09149 197 152 195
0.50897 0.28468 0.79909 197 152 195
0.24646 0.28468 0.79909 197 152 195
0.58233 0.29518 0.12656 197 152 195
0.58233 0.29518 0.76092 197 152 195
0.54495 0.32191 0.79909 197 152 195
0.24646 0.74534 0.76092 197 152 195
0.24646 0.58691 0.09149 197 152 195
0.24646 0.58691 0 197 152 195
0.24646 0.25099 0 197 152 195
0.24646 0.70729 0.79909 197 152 195
0.54495 0.58691 0.09149 197 152 195
0.27902 0.2099 0 197 152 195
0.54495 0.25099 0 197 152 195
0.54495 0.58691 0 197 152 195
0.50498 0.63491 0 197 152 195
0.50498 0.63491 0.09149 197 152 195
0.29412 0.63491 0 197 152 195
0.29412 0.63491 0.09149 197 152 195
0.51539 0.2099 0 197 152 195
0.27902 0.2099 0.09149 197 152 195
0.51539 0.2099 0.09149 197 152 195
0.24645 0.69943 0.09149 197 152 195
0.51883 0.69943 0.09149 197 152 195
0.24646 0.74534 0.12673 197 152 195
0.54495 0.74534 0.12673 197 152 195
0.54495 0.74534 0.76092 197 152 195
0.58233 0.70813 0.12656 197 152 195
0.54504 0.67705 0.09149 197 152 195
0.58233 0.70813 0.76092 197 152 195
0.50398 0.70729 0.79909 197 152 195
0.54495 0.67916 0.79909 197 152 195
0.50398 0.70729 0.79909 202 156 200
0.54495 0.67916 0.79909 202 156 200
0.54495 0.32191 0.79909 202 156 200
0.50897 0.28468 0.79909 202 156 200
0.24646 0.28468 0.79909 202 156 200
0.24646 0.70729 0.79909 202 156 200
0.54495 0.25099 0.09149 202 156 200
0.51539 0.2099 0.09149 202 156 200
0.27902 0.2099 0.09149 202 156 200
0.24646 0.25099 0.09149 202 156 200
0.57906 0.48436 0.43786 138 94 143
0.57906 0.48436 0.61101 138 94 143
0.59358 0.48436 0.61101 138 94 143
0.59358 0.48436 0.43786 138 94 143
0.59358 0.61977 0.61101 138 94 143
0.57906 0.61977 0.61101 138 94 143
0.57906 0.61977 0.43786 138 94 143
0.59358 0.61977 0.43786 138 94 143
0.2877 -0.23634 0.3825 197 152 195
0.54488 -0.23634 0.3825 197 152 195
0.54488 -0.2363 0.06651 197 152 195
0.2877 -0.2363 0.06651 197 152 195
0.54488 -0.02419 0.3825 197 152 195
0.54488 -0.02415 0 197 152 195
0.54488 -0.2363 0 197 152 195
0.2877 -0.2363 0 197 152 195
0.2877 -0.02415 0 197 152 195
0.51938 -0.2696 0.06651 197 152 195
0.51938 -0.2696 1.07571E-18 197 152 195
0.30731 -0.26849 0.06651 197 152 195
0.30731 -0.26849 -2.07073E-18 197 152 195
0.2877 -0.02419 0.3825 197 152 195
0.51273 -0.20982 0.41294 197 152 195
0.31985 -0.20982 0.41294 197 152 195
0.3173 0.01217 0.38245 197 152 195
0.3173 0.01217 4.85348E-06 197 152 195
0.51528 0.01217 4.85348E-06 197 152 195
0.51528 0.01217 0.38245 197 152 195
0.34205 -0.01451 0.41284 197 152 195
0.49053 -0.01451 0.41284 197 152 195
0.31985 -0.05071 0.41294 197 152 195
0.51273 -0.05071 0.41294 197 152 195
0.51938 -0.2696 0.06651 202 156 200
0.30731 -0.26849 0.06651 202 156 200
0.2877 -0.2363 0.06651 202 156 200
0.54488 -0.2363 0.06651 202 156 200
0.51273 -0.20982 0.41294 202 156 200
0.31985 -0.20982 0.41294 202 156 200
0.31985 -0.05071 0.41294 202 156 200
0.51273 -0.05071 0.41294 202 156 200
0.49053 -0.01451 0.41284 202 156 200
0.34205 -0.01451 0.41284 202 156 200
0.43327 -0.19693 0.70594 197 152 195
0.54367 -0.28665 0.70206 197 152 195
0.59975 -0.21816 0.71416 197 152 195
0.48935 -0.12844 0.71804 197 152 195
0.19965 -0.50028 1.07309 197 152 195
0.20685 -0.49526 1.162 197 152 195
0.98517 0.44744 1.50935 197 152 195
1.09557 0.35773 1.50547 197 152 195
0.45608 -0.20575 1.55978 197 152 195
0.99329 0.45354 1.59973 197 152 195
1.1037 0.36382 1.59586 197 152 195
0.70267 0.08063 1.95331 197 152 195
0.87579 0.30096 1.7844 197 152 195
0.82028 0.22888 1.87164 197 152 195
0.799 0.20125 1.90508 197 152 195
0.93068 0.13916 1.86776 197 152 195
0.90941 0.11153 1.9012 197 152 195
0.88481 0.30093 2.04204 197 152 195
0.99522 0.21121 2.03817 197 152 195
0.82115 0.21827 2.14208 197 152 195
0.75968 0.15019 1.96688 197 152 195
0.86697 0.28312 1.94617 197 152 195
0.92248 0.3552 1.85893 197 152 195
0.98619 0.21124 1.78053 197 152 195
1.03289 0.26548 1.85506 197 152 195
0.31005 -0.59 1.06921 197 152 195
0.31726 -0.58497 1.15812 197 152 195
0.3747 -0.51117 1.08606 197 152 195
0.38023 -0.50732 1.15422 197 152 195
0.56649 -0.29547 1.55591 197 152 195
0.81308 -0.00909 1.94943 197 152 195
0.81622 -0.00094 1.85004 197 152 195
0.87008 0.06047 1.963 197 152 195
0.85992 0.0524 1.86044 197 152 195
0.93156 0.12855 2.13821 197 152 195
0.59822 -0.25413 1.50213 197 152 195
1.03903 0.28496 1.57896 197 152 195
1.03279 0.28029 1.50967 197 152 195
0.5968 -0.22609 0.81385 197 152 195
0.55381 -0.2786 0.80458 197 152 195
0.49488 -0.35512 0.89719 197 152 195
0.97738 0.1934 1.94229 197 152 195
0.4336 -0.4347 0.9935 197 152 195
0.51734 -0.33742 1.12733 197 152 195
0.57873 -0.25771 1.03085 197 152 195
0.99522 0.21121 2.03817 202 156 200
0.93156 0.12855 2.13821 202 156 200
0.82115 0.21827 2.14208 202 156 200
0.88481 0.30093 2.04204 202 156 200
0.81622 -0.00094 1.85004 66 144 144
0.85992 0.0524 1.86044 66 144 144
1.03903 0.28496 1.57896 66 144 144
1.03279 0.28029 1.50967 66 144 144
0.59822 -0.25413 1.50213 66 144 144
0.57873 -0.25771 1.03085 66 144 144
0.51734 -0.33742 1.12733 66 144 144
0.5968 -0.22609 0.81385 66 144 144
0.38023 -0.50732 1.15422 66 144 144
0.4336 -0.4347 0.9935 66 144 144
0.49488 -0.35512 0.89719 66 144 144
0.3747 -0.51117 1.08606 66 144 144
0.55381 -0.2786 0.80458 66 144 144
0.99329 0.45354 1.59973 202 156 200
1.1037 0.36382 1.59586 202 156 200
0.98619 0.21124 1.78053 202 156 200
0.87579 0.30096 1.7844 202 156 200
1.03289 0.26548 1.85506 202 156 200
0.97738 0.1934 1.94229 202 156 200
0.86697 0.28312 1.94617 202 156 200
0.92248 0.3552 1.85893 202 156 200
-0.43327 -0.19693 0.70594 197 152 195
-0.48935 -0.12844 0.71804 197 152 195
-0.59975 -0.21816 0.71416 197 152 195
-0.54367 -0.28665 0.70206 197 152 195
-0.19965 -0.50028 1.07309 197 152 195
-0.20685 -0.49526 1.162 197 152 195
-0.98517 0.44744 1.50935 197 152 195
-1.09557 0.35773 1.50547 197 152 195
-0.45608 -0.20575 1.55978 197 152 195
-0.99329 0.45354 1.59973 197 152 195
-1.1037 0.36382 1.59585 197 152 195
-0.70267 0.08063 1.95331 197 152 195
-0.87579 0.30096 1.7844 197 152 195
-0.82028 0.22888 1.87164 197 152 195
-0.799 0.20125 1.90508 197 152 195
-0.93068 0.13916 1.86776 197 152 195
-0.90941 0.11153 1.9012 197 152 195
-0.88481 0.30093 2.04204 197 152 195
-0.99522 0.21121 2.03817 197 152 195
-0.82115 0.21827 2.14208 197 152 195
-0.75968 0.15019 1.96688 197 152 195
-0.86697 0.28312 1.94617 197 152 195
-0.92248 0.3552 1.85893 197 152 195
-0.98619 0.21124 1.78053 197 152 195
-1.03289 0.26548 1.85506 197 152 195
-0.31005 -0.59 1.06921 197 152 195
-0.31726 -0.58497 1.15812 197 152 195
-0.3747 -0.51117 1.08606 197 152 195
-0.38023 -0.50732 1.15422 197 152 195
-0.56649 -0.29547 1.55591 197 152 195
-0.81308 -0.00909 1.94943 197 152 195
-0.81622 -0.00094 1.85004 197 152 195
-0.87008 0.06047 1.963 197 152 195
-0.85992 0.0524 1.86044 197 152 195
-0.93156 0.12855 2.13821 197 152 195
-0.59822 -0.25413 1.50213 197 152 195
-1.03903 0.28496 1.57896 197 152 195
-1.03279 0.28029 1.50967 197 152 195
-0.5968 -0.22609 0.81385 197 152 195
-0.55381 -0.2786 0.80458 197 152 195
-0.49488 -0.35512 0.89719 197 152 195
-0.97738 0.1934 1.94229 197 152 195
-0.4336 -0.4347 0.9935 197 152 195
-0.51734 -0.33742 1.12733 197 152 195
-0.57873 -0.25771 1.03085 197 152 195
-0.99522 0.21121 2.03817 202 156 200
-0.88481 0.30093 2.04204 202 156 200
-0.82115 0.21827 2.14208 202 156 200
-0.93156 0.12855 2.13821 202 156 200
-0.81622 -0.00094 1.85004 66 144 144
-1.03279 0.28029 1.50967 66 144 144
-1.03903 0.28496 1.57896 66 144 144
-0.85992 0.0524 1.86044 66 144 144
-0.59822 -0.25413 1.50213 66 144 144
-0.57873 -0.25771 1.03085 66 144 144
-0.51734 -0.33742 1.12733 66 144 144
-0.5968 -0.22609 0.81385 66 144 144
-0.38023 -0.50732 1.15422 66 144 144
-0.4336 -0.4347 0.9935 66 144 144
-0.49488 -0.35512 0.89719 66 144 144
-0.3747 -0.51117 1.08606 66 144 144
-0.55381 -0.2786 0.80458 66 144 144
-0.99329 0.45354 1.59973 202 156 200
-0.87579 0.30096 1.7844 202 156 200
-0.98619 0.21124 1.78053 202 156 200
-1.1037 0.36382 1.59585 202 156 200
-1.03289 0.26548 1.85506 202 156 200
-0.92248 0.3552 1.85893 202 156 200
-0.86697 0.28312 1.94617 202 156 200
-0.97738 0.1934 1.94229 202 156 200
-0.13304 -0.39824 0.71713 197 152 195
-0.06701 -0.74946 1.02837 197 152 195
0.06701 -0.74946 1.02837 197 152 195
0.13304 -0.39824 0.71713 197 152 195
0.06701 -0.67532 1.14071 197 152 195
0.13304 -0.25105 0.94016 197 152 195
-0.13304 -0.25105 0.94016 197 152 195
-0.06701 -0.67532 1.14071 197 152 195
0.05138 -0.75913 1.05358 197 152 195
-0.05138 -0.75913 1.05358 197 152 195
0.05138 -0.70229 1.1397 197 152 195
-0.05138 -0.70229 1.1397 197 152 195
-0.06701 -0.67532 1.14071 202 156 200
-0.13304 -0.25105 0.94016 202 156 200
0.13304 -0.25105 0.94016 202 156 200
0.06701 -0.67532 1.14071 202 156 200
-0.11926 0.1223 1.08456 197 152 195
-0.0846 0.15677 1.29163 197 152 195
0.0846 0.15677 1.29163 197 152 195
0.11926 0.1223 1.08456 197 152 195
0.0846 0.3215 1.29163 197 152 195
0.11926 0.35449 1.08456 197 152 195
-0.11926 0.35449 1.08456 197 152 195
-0.0846 0.3215 1.29163 197 152 195
0.06768 0.17325 1.31014 197 152 195
-0.06768 0.17325 1.31014 197 152 195
0.06768 0.30503 1.31014 197 152 195
-0.06768 0.30503 1.31014 197 152 195
-0.06768 0.17325 1.31014 202 156 200
-0.06768 0.30503 1.31014 202 156 200
0.06768 0.30503 1.31014 202 156 200
0.06768 0.17325 1.31014 202 156 200
-0.10423 0.49661 1.08456 197 152 195
-0.07058 0.52641 1.22269 197 152 195
0.07058 0.52641 1.22269 197 152 195
0.10423 0.49661 1.08456 197 152 195
0.07058 0.66833 1.22269 197 152 195
0.10423 0.69955 1.08456 197 152 195
-0.10423 0.69955 1.08456 197 152 195
-0.07058 0.66833 1.22269 197 152 195
0.05646 0.5406 1.2412 197 152 195
-0.05646 0.5406 1.2412 197 152 195
0.05646 0.65414 1.2412 197 152 195
-0.05646 0.65414 1.2412 197 152 195
-0.05646 0.5406 1.2412 202 156 200
-0.05646 0.65414 1.2412 202 156 200
0.05646 0.65414 1.2412 202 156 200
0.05646 0.5406 1.2412 202 156 200
-0.08437 0.76235 1.02762 202 156 200
-0.06029 0.97995 1.00409 202 156 200
0.06029 0.97995 1.00409 202 156 200
0.08437 0.76235 1.02762 202 156 200
0.04823 0.99541 0.99206 202 156 200
-0.04823 0.99541 0.99206 202 156 200
-0.04823 0.99541 0.99206 197 152 195
-0.04823 0.99564 0.89559 197 152 195
0.04823 0.99564 0.89559 197 152 195
0.04823 0.99541 0.99206 197 152 195
0.06029 0.97995 1.00409 197 152 195
0.06029 0.98023 0.8835 197 152 195
0.08437 0.76235 1.02762 197 152 195
0.08437 0.76235 0.85887 197 152 195
-0.06029 0.98023 0.8835 197 152 195
-0.08437 0.76235 0.85887 197 152 195
-0.06029 0.97995 1.00409 197 152 195
-0.08437 0.76235 1.02762 197 152 195
0.19667 0.32119 1.08442 197 152 195
0.23104 0.35556 1.18007 197 152 195
0.28721 0.35556 1.18007 197 152 195
0.32158 0.32119 1.08442 197 152 195
0.28721 0.41174 1.18007 197 152 195
0.32158 0.44611 1.08442 197 152 195
0.19667 0.44611 1.08442 197 152 195
0.23104 0.41174 1.18007 197 152 195
0.23104 0.35556 1.18007 202 156 200
0.23104 0.41174 1.18007 202 156 200
0.28721 0.41174 1.18007 202 156 200
0.28721 0.35556 1.18007 202 156 200
0.21311 0.5436 1.08446 197 152 195
0.23843 0.56892 1.14684 197 152 195
0.27982 0.56892 1.14684 197 152 195
0.30514 0.5436 1.08446 197 152 195
0.27982 0.6103 1.14684 197 152 195
0.30514 0.63562 1.08446 197 152 195
0.21311 0.63562 1.08446 197 152 195
0.23843 0.6103 1.14684 197 152 195
0.23843 0.56892 1.14684 202 156 200
0.23843 0.6103 1.14684 202 156 200
0.27982 0.6103 1.14684 202 156 200
0.27982 0.56892 1.14684 202 156 200
-0.19667 0.32119 1.08442 197 152 195
-0.32158 0.32119 1.08442 197 152 195
-0.28721 0.35556 1.18007 197 152 195
-0.23104 0.35556 1.18007 197 152 195
-0.28721 0.41174 1.18007 197 152 195
-0.32158 0.44611 1.08442 197 152 195
-0.19667 0.44611 1.08442 197 152 195
-0.23104 0.41174 1.18007 197 152 195
-0.23104 0.35556 1.18007 202 156 200
-0.28721 0.35556 1.18007 202 156 200
-0.28721 0.41174 1.18007 202 156 200
-0.23104 0.41174 1.18007 202 156 200
-0.21311 0.5436 1.08446 197 152 195
-0.30514 0.5436 1.08446 197 152 195
-0.27982 0.56892 1.14684 197 152 195
-0.23843 0.56892 1.14684 197 152 195
-0.27982 0.6103 1.14684 197 152 195
-0.30514 0.63562 1.08446 197 152 195
-0.21311 0.63562 1.08446 197 152 195
-0.23843 0.6103 1.14684 197 152 195
-0.23843 0.56892 1.14684 202 156 200
-0.27982 0.56892 1.14684 202 156 200
-0.27982 0.6103 1.14684 202 156 200
-0.23843 0.6103 1.14684 202 156 200
0.4322 0.06642 0.60624 138 94 143
0.4322 0.06642 0.72304 138 94 143
0.44672 0.06642 0.72304 138 94 143
0.44672 0.06642 0.60624 138 94 143
0.44672 0.19019 0.72304 138 94 143
0.4322 0.19019 0.72304 138 94 143
0.4322 0.19019 0.60624 138 94 143
0.44672 0.19019 0.60624 138 94 143
0.4322 -0.02327 0.51304 138 94 143
0.4322 -0.02327 0.5755 138 94 143
0.44672 -0.02327 0.5755 138 94 143
0.44672 -0.02327 0.51304 138 94 143
0.44672 0.03597 0.5755 138 94 143
0.4322 0.03597 0.5755 138 94 143
0.4322 0.03597 0.51304 138 94 143
0.44672 0.03597 0.51304 138 94 143
-0.4322 0.06642 0.60624 138 94 143
-0.44672 0.06642 0.60624 138 94 143
-0.44672 0.06642 0.72304 138 94 143
-0.4322 0.06642 0.72304 138 94 143
-0.44672 0.19019 0.72304 138 94 143
-0.4322 0.19019 0.72304 138 94 143
-0.4322 0.19019 0.60624 138 94 143
-0.44672 0.19019 0.60624 138 94 143
-0.4322 -0.02327 0.51304 138 94 143
-0.44672 -0.02327 0.51304 138 94 143
-0.44672 -0.02327 0.5755 138 94 143
-0.4322 -0.02327 0.5755 138 94 143
-0.44672 0.03597 0.5755 138 94 143
-0.4322 0.03597 0.5755 138 94 143
-0.4322 0.03597 0.51304 138 94 143
-0.44672 0.03597 0.51304 138 94 143
0.09843 -0.77382 0.36288 255 255 255
0.09843 -0.77382 0.5384 255 255 255
0.09843 -0.73639 0.5384 255 255 255
0.09843 -0.73639 0.36288 255 255 255
-0.09843 -0.77382 0.36288 255 255 255
-0.09843 -0.77382 0.5384 255 255 255
-0.09843 -0.73639 0.5384 255 255 255
-0.09843 -0.73639 0.36288 255 255 255
0.43624 -0.59179 0.89679 197 152 195
0.43624 -0.59179 0.61145 197 152 195
0.37031 -0.65922 0.66292 197 152 195
0.37031 -0.65922 0.84909 197 152 195
0.37031 -0.65922 0.89679 197 152 195
0.37058 -0.54795 0.95185 197 152 195
0.32633 -0.60864 0.95185 197 152 195
0.37058 -0.20461 0.95226 197 152 195
0.43624 -0.13818 0.8972 197 152 195
0.36985 -0.73227 0.66292 197 152 195
0.43642 -0.73212 0.61145 197 152 195
0.36985 -0.77746 0.61157 197 152 195
0.43629 -0.73277 0.23715 197 152 195
0.37029 -0.77782 0.23732 197 152 195
0.32376 -0.73987 0.18274 197 152 195
-0.37029 -0.77782 0.23732 197 152 195
-0.32376 -0.73987 0.18274 197 152 195
0.37175 -0.70579 0.18269 197 152 195
0.15014 -0.77746 0.53216 197 152 195
0.07854 -0.77746 0.61157 197 152 195
0.15014 -0.77782 0.28776 197 152 195
-0.15014 -0.77782 0.28776 197 152 195
-0.37175 -0.70579 0.18269 197 152 195
0.43624 -0.13762 1.03972 197 152 195
0.43693 0.76228 1.03817 197 152 195
-0.43629 -0.73277 0.23715 197 152 195
-0.36985 -0.77746 0.61157 197 152 195
-0.43642 -0.73212 0.61145 197 152 195
-0.36985 -0.73227 0.66292 197 152 195
-0.07854 -0.77746 0.61157 197 152 195
-0.07854 -0.73227 0.66292 197 152 195
-0.43624 -0.59179 0.61145 197 152 195
-0.37031 -0.65922 0.66292 197 152 195
-0.43624 -0.59179 0.89679 197 152 195
-0.37031 -0.65922 0.84909 197 152 195
-0.37031 -0.65922 0.89679 197 152 195
-0.37058 -0.54795 0.95185 197 152 195
-0.32633 -0.60864 0.95185 197 152 195
-0.37058 -0.20461 0.95226 197 152 195
-0.43624 -0.13818 0.8972 197 152 195
-0.43624 -0.13735 0.23719 197 152 195
-0.43693 0.76228 1.03817 197 152 195
-0.43693 0.76228 0.23662 197 152 195
-0.43624 -0.13762 1.03972 197 152 195
-0.37072 -0.2045 1.03959 197 152 195
0.37072 -0.2045 1.03959 197 152 195
-0.3232 -0.13774 1.09275 197 152 195
0.3232 -0.13774 1.09275 197 152 195
0.3707 -0.09356 1.09275 197 152 195
-0.3707 -0.09356 1.09275 197 152 195
-0.36969 0.7351 0.18305 197 152 195
-0.36969 -0.13727 0.18275 197 152 195
0.36985 -0.73227 0.66292 202 156 200
0.12211 -0.65922 0.66292 202 156 200
0.37031 -0.65922 0.66292 202 156 200
0.07854 -0.73227 0.66292 202 156 200
-0.12211 -0.65922 0.66292 202 156 200
-0.07854 -0.73227 0.66292 202 156 200
-0.36985 -0.73227 0.66292 202 156 200
-0.37031 -0.65922 0.66292 202 156 200
0.36969 -0.13727 0.18275 197 152 195
0.43624 -0.13735 0.23719 197 152 195
0.36969 0.7351 0.18305 197 152 195
0.33141 0.77705 0.18305 197 152 195
0.43693 0.76228 0.23662 197 152 195
0.36969 0.8256 0.23671 197 152 195
0.37061 0.8256 1.03825 197 152 195
0.37043 0.7351 1.09275 197 152 195
0.33095 0.77686 1.09275 197 152 195
-0.36969 0.8256 0.23671 197 152 195
-0.37061 0.8256 1.03825 197 152 195
-0.33141 0.77705 0.18305 197 152 195
-0.33095 0.77686 1.09275 197 152 195
-0.37043 0.7351 1.09275 197 152 195
0.37031 -0.63679 0.66292 255 255 255
0.12211 -0.63679 0.66292 255 255 255
0.37035 -0.63679 0.84915 255 255 255
0.37031 -0.63679 0.66292 197 152 195
0.37035 -0.63679 0.84915 197 152 195
0.12211 -0.63679 0.66292 197 152 195
0.12211 -0.65922 0.66292 197 152 195
0.08453 -0.65922 0.84909 197 152 195
0.08453 -0.65922 0.89679 197 152 195
0.08453 -0.60864 0.95185 197 152 195
-0.08453 -0.65922 0.84909 197 152 195
-0.12211 -0.65922 0.66292 197 152 195
-0.08453 -0.65922 0.89679 197 152 195
-0.08453 -0.60864 0.95185 197 152 195
-0.12211 -0.63679 0.66292 197 152 195
-0.37035 -0.63679 0.84915 197 152 195
-0.37031 -0.63679 0.66292 197 152 195
0.08453 -0.65922 0.89679 138 94 143
-0.08453 -0.65922 0.89679 138 94 143
-0.08453 -0.60864 0.95185 138 94 143
0.08453 -0.60864 0.95185 138 94 143
0.08453 -0.65922 0.84909 138 94 143
-0.08453 -0.65922 0.84909 138 94 143
-0.08453 -0.54795 0.95185 138 94 143
0.08453 -0.54795 0.95185 138 94 143
0.15014 -0.59179 0.53216 149 98 113
-0.15014 -0.59179 0.53216 149 98 113
-0.15014 -0.77746 0.53216 149 98 113
0.15014 -0.77746 0.53216 149 98 113
0.15014 -0.59179 0.28776 149 98 113
-0.15014 -0.59179 0.28776 149 98 113
0.15014 -0.77782 0.28776 149 98 113
-0.15014 -0.77782 0.28776 149 98 113
-0.3707 -0.09356 1.09275 202 156 200
-0.37043 0.7351 1.09275 202 156 200
0.37043 0.7351 1.09275 202 156 200
0.3707 -0.09356 1.09275 202 156 200
-0.33095 0.77686 1.09275 202 156 200
0.33095 0.77686 1.09275 202 156 200
0.32633 -0.60864 0.95185 202 156 200
0.08453 -0.60864 0.95185 202 156 200
0.08453 -0.54795 0.95185 202 156 200
0.37058 -0.54795 0.95185 202 156 200
0.37058 -0.20461 0.95226 202 156 200
-0.08453 -0.54795 0.95185 202 156 200
-0.37058 -0.20461 0.95226 202 156 200
-0.37058 -0.54795 0.95185 202 156 200
-0.32633 -0.60864 0.95185 202 156 200
-0.08453 -0.60864 0.95185 202 156 200
-0.37031 -0.63679 0.66292 255 255 255
-0.37035 -0.63679 0.84915 255 255 255
-0.12211 -0.63679 0.66292 255 255 255
-0.15014 -0.77746 0.53216 197 152 195
-0.06556 -0.77746 0.61157 197 152 195
-0.06556 -0.77734 0.64019 197 152 195
-0.07854 -0.7773 0.68148 197 152 195
-0.07854 -0.73235 0.68143 197 152 195
-0.04132 -0.77734 0.64019 197 152 195
0 -0.7773 0.68148 197 152 195
0.04132 -0.77734 0.64019 197 152 195
0.06556 -0.77734 0.64019 197 152 195
0.07854 -0.7773 0.68148 197 152 195
0.06556 -0.77746 0.61157 197 152 195
0.07854 -0.73235 0.68143 197 152 195
0.07854 -0.73227 0.66292 197 152 195
0.04132 -0.77746 0.61157 197 152 195
-0.04132 -0.77746 0.61157 197 152 195
0.15824 -0.73224 0.39575 200 130 158
0.15824 -0.73224 0.2817 200 130 158
-0.15824 -0.73224 0.2817 200 130 158
-0.15824 -0.73224 0.39575 200 130 158
0.15824 -0.58252 0.39575 200 130 158
-0.15824 -0.58252 0.39575 200 130 158
0.3232 -0.13774 1.09275 202 156 200
-0.3232 -0.13774 1.09275 202 156 200
0 -0.7773 0.68148 202 156 200
-0.07854 -0.7773 0.68148 202 156 200
-0.07854 -0.73235 0.68143 202 156 200
0.07854 -0.73235 0.68143 202 156 200
0.07854 -0.7773 0.68148 202 156 200
0.30069 -0.63421 0.65958 170 97 90
0.30069 -0.6431 0.65958 170 97 90
0.30068 -0.6431 0.80925 170 97 90
0.30068 -0.63421 0.80925 170 97 90
0.28147 -0.6431 0.71808 170 97 90
0.28153 -0.6431 0.78725 170 97 90
0.25111 -0.6431 0.77332 170 97 90
0.25099 -0.6431 0.71812 170 97 90
0.25113 -0.6431 0.65958 170 97 90
0.25099 -0.6431 0.71812 70 13 22
0.25113 -0.6431 0.65958 70 13 22
0.10113 -0.6431 0.65958 70 13 22
0.25111 -0.6431 0.77332 70 13 22
0.25111 -0.6431 0.77332 204 155 150
0.28153 -0.6431 0.78725 204 155 150
0.28147 -0.6431 0.71808 204 155 150
0.25099 -0.6431 0.71812 204 155 150
-0.30069 -0.63421 0.65958 170 97 90
-0.30068 -0.63421 0.80925 170 97 90
-0.30068 -0.6431 0.80925 170 97 90
-0.30069 -0.6431 0.65958 170 97 90
-0.28147 -0.6431 0.71808 170 97 90
-0.28153 -0.6431 0.78725 170 97 90
-0.25111 -0.6431 0.77332 170 97 90
-0.25099 -0.6431 0.71812 170 97 90
-0.25113 -0.6431 0.65958 170 97 90
-0.25099 -0.6431 0.71812 70 13 22
-0.10113 -0.6431 0.65958 70 13 22
-0.25113 -0.6431 0.65958 70 13 22
-0.25111 -0.6431 0.77332 70 13 22
-0.25111 -0.6431 0.77332 204 155 150
-0.25099 -0.6431 0.71812 204 155 150
-0.28147 -0.6431 0.71808 204 155 150
-0.28153 -0.6431 0.78725 204 155 150
-0.3173 0.01217 0.38245 197 152 195
-0.51528 0.01217 0.38245 197 152 195
-0.51528 0.01217 4.85348E-06 197 152 195
-0.3173 0.01217 4.85348E-06 197 152 195
-0.34205 -0.01451 0.41284 197 152 195
-0.49053 -0.01451 0.41284 197 152 195
-0.54488 -0.02419 0.3825 197 152 195
-0.54488 -0.02415 0 197 152 195
-0.2877 -0.02415 0 197 152 195
-0.2877 -0.02419 0.3825 197 152 195
-0.31985 -0.05071 0.41294 197 152 195
-0.31985 -0.20982 0.41294 197 152 195
-0.2877 -0.23634 0.3825 197 152 195
-0.51273 -0.05071 0.41294 197 152 195
-0.54488 -0.23634 0.3825 197 152 195
-0.51273 -0.20982 0.41294 197 152 195
-0.54488 -0.2363 0.06651 197 152 195
-0.54488 -0.2363 0 197 152 195
-0.51938 -0.2696 0.06651 197 152 195
-0.51938 -0.2696 1.07571E-18 197 152 195
-0.30731 -0.26849 0.06651 197 152 195
-0.30731 -0.26849 -2.07073E-18 197 152 195
-0.2877 -0.2363 0 197 152 195
-0.2877 -0.2363 0.06651 197 152 195
-0.51938 -0.2696 0.06651 202 156 200
-0.54488 -0.2363 0.06651 202 156 200
-0.2877 -0.2363 0.06651 202 156 200
-0.30731 -0.26849 0.06651 202 156 200
-0.51273 -0.20982 0.41294 202 156 200
-0.51273 -0.05071 0.41294 202 156 200
-0.31985 -0.05071 0.41294 202 156 200
-0.31985 -0.20982 0.41294 202 156 200
-0.49053 -0.01451 0.41284 202 156 200
-0.34205 -0.01451 0.41284 202 156 200
-0.24646 0.25099 0.76092 197 152 195
-0.24646 0.25099 0.09149 197 152 195
-0.54495 0.25099 0.09149 197 152 195
-0.54495 0.25099 0.76092 197 152 195
-0.50897 0.28468 0.79909 197 152 195
-0.24646 0.28468 0.79909 197 152 195
-0.58233 0.29518 0.12656 197 152 195
-0.58233 0.29518 0.76092 197 152 195
-0.54495 0.32191 0.79909 197 152 195
-0.24646 0.74534 0.76092 197 152 195
-0.24646 0.58691 0.09149 197 152 195
-0.24646 0.58691 0 197 152 195
-0.24646 0.25099 0 197 152 195
-0.24646 0.70729 0.79909 197 152 195
-0.54495 0.58691 0.09149 197 152 195
-0.27902 0.2099 0 197 152 195
-0.54495 0.25099 0 197 152 195
-0.54495 0.58691 0 197 152 195
-0.50498 0.63491 0 197 152 195
-0.50498 0.63491 0.09149 197 152 195
-0.29412 0.63491 0 197 152 195
-0.29412 0.63491 0.09149 197 152 195
-0.51539 0.2099 0 197 152 195
-0.27902 0.2099 0.09149 197 152 195
-0.51539 0.2099 0.09149 197 152 195
-0.24645 0.69943 0.09149 197 152 195
-0.51883 0.69943 0.09149 197 152 195
-0.24646 0.74534 0.12673 197 152 195
-0.54495 0.74534 0.12673 197 152 195
-0.54495 0.74534 0.76092 197 152 195
-0.58233 0.70813 0.12656 197 152 195
-0.54504 0.67705 0.09149 197 152 195
-0.58233 0.70813 0.76092 197 152 195
-0.50398 0.70729 0.79909 197 152 195
-0.54495 0.67916 0.79909 197 152 195
-0.50398 0.70729 0.79909 202 156 200
-0.50897 0.28468 0.79909 202 156 200
-0.54495 0.32191 0.79909 202 156 200
-0.54495 0.67916 0.79909 202 156 200
-0.24646 0.28468 0.79909 202 156 200
-0.24646 0.70729 0.79909 202 156 200
-0.54495 0.25099 0.09149 202 156 200
-0.24646 0.25099 0.09149 202 156 200
-0.27902 0.2099 0.09149 202 156 200
-0.51539 0.2099 0.09149 202 156 200
-0.57906 0.48436 0.43786 138 94 143
-0.59358 0.48436 0.43786 138 94 143
-0.59358 0.48436 0.61101 138 94 143
-0.57906 0.48436 0.61101 138 94 143
-0.59358 0.61977 0.61101 138 94 143
-0.57906 0.61977 0.61101 138 94 143
-0.57906 0.61977 0.43786 138 94 143
-0.59358 0.61977 0.43786 138 94 143
0.06556 -0.76734 0.64014 118 91 116
0.06556 -0.76747 0.61153 118 91 116
0.04132 -0.76747 0.61153 118 91 116
0.04132 -0.76734 0.64014 118 91 116
0.06556 -0.77734 0.64019 118 91 116
0.04132 -0.77734 0.64019 118 91 116
0.04132 -0.77746 0.61157 118 91 116
0.06556 -0.77746 0.61157 118 91 116
-0.04132 -0.76734 0.64014 118 91 116
-0.04132 -0.76747 0.61153 118 91 116
-0.06556 -0.76747 0.61153 118 91 116
-0.06556 -0.76734 0.64014 118 91 116
-0.04132 -0.77734 0.64019 118 91 116
-0.06556 -0.77734 0.64019 118 91 116
-0.06556 -0.77746 0.61157 118 91 116
-0.04132 -0.77746 0.61157 118 91 116
0.05138 -0.70229 1.1397 202 156 200
-0.05138 -0.70229 1.1397 202 156 200
3 0 2 1
3 0 3 2
3 0 1 4
3 0 4 5
3 1 2 6
3 1 6 7
3 7 4 1
3 7 8 4
3 9 0 5
3 10 0 9
3 0 10 3
3 3 10 11
3 3 11 12
3 9 5 13
3 6 2 14
3 3 12 15
3 16 15 12
3 14 2 16
3 14 16 17
3 18 14 17
3 18 19 14
3 20 19 18
3 20 21 19
3 10 21 20
3 10 20 11
3 11 18 17
3 11 20 18
3 11 17 16
3 11 16 12
3 16 22 15
3 22 23 15
3 22 24 23
3 16 24 22
3 16 2 24
3 3 15 23
3 25 19 21
3 10 25 21
3 25 26 19
3 27 26 25
3 27 28 26
3 9 28 27
3 9 29 28
3 30 26 28
3 30 31 26
3 28 32 30
3 28 29 32
3 6 30 32
3 6 32 7
3 32 29 33
3 32 33 34
3 13 29 9
3 13 33 29
3 6 14 30
3 32 8 7
3 32 34 8
3 19 26 31
3 14 19 31
3 10 9 27
3 35 37 36
3 35 38 37
3 39 38 35
3 39 35 40
3 41 43 42
3 41 44 43
3 45 47 46
3 45 48 47
3 46 47 49
3 48 49 47
3 46 49 50
3 51 48 45
3 51 52 48
3 48 52 49
3 50 52 51
3 50 49 52
3 14 31 30
3 10 27 25
3 53 55 54
3 53 56 55
3 55 57 54
3 55 58 57
3 59 58 55
3 58 59 60
3 58 60 61
3 61 60 56
3 61 56 53
3 59 55 62
3 59 62 63
3 63 60 59
3 63 62 64
3 63 64 65
3 63 65 60
3 56 65 64
3 56 60 65
3 61 53 66
3 53 54 67
3 53 67 68
3 69 71 70
3 69 72 71
3 72 69 73
3 72 73 74
3 57 71 72
3 57 58 71
3 58 70 71
3 58 61 70
3 61 69 70
3 61 66 69
3 66 73 69
3 66 75 73
3 66 68 75
3 66 53 68
3 76 72 74
3 76 57 72
3 54 57 76
3 54 76 67
3 77 79 78
3 77 80 79
3 81 83 82
3 81 84 83
3 83 84 85
3 83 85 86
3 87 89 88
3 87 90 89
3 91 90 87
3 91 92 90
3 89 90 93
3 89 93 94
3 90 92 95
3 90 95 93
3 94 93 96
3 94 96 97
3 93 95 98
3 93 99 96
3 93 100 99
3 93 98 100
3 100 98 101
3 102 100 101
3 102 101 103
3 103 101 104
3 103 104 105
3 101 106 104
3 101 107 106
3 107 98 106
3 101 98 107
3 99 100 108
3 99 108 109
3 110 99 109
3 110 109 111
3 112 92 91
3 112 113 92
3 91 88 112
3 91 87 88
3 113 112 114
3 113 114 115
3 92 113 116
3 115 116 113
3 92 116 95
3 95 116 117
3 116 118 117
3 119 117 118
3 119 118 120
3 120 103 119
3 119 103 105
3 119 105 121
3 117 119 121
3 98 117 121
3 95 117 98
3 98 121 106
3 116 122 118
3 122 116 115
3 120 102 103
3 123 102 120
3 123 110 102
3 97 110 123
3 94 97 123
3 94 123 124
3 89 94 124
3 89 124 125
3 88 89 125
3 88 125 126
3 127 88 126
3 102 110 111
3 102 111 128
3 100 102 128
3 100 128 108
3 112 88 127
3 112 127 129
3 127 130 129
3 127 131 130
3 112 129 114
3 132 134 133
3 132 135 134
3 136 138 137
3 136 139 138
3 136 140 139
3 140 141 139
3 140 142 141
3 143 139 141
3 142 140 144
3 145 142 144
3 143 141 146
3 145 144 147
3 143 146 148
3 149 151 150
3 149 152 151
3 153 155 154
3 153 156 155
3 157 159 158
3 157 160 159
3 161 157 158
3 161 158 162
3 159 163 158
3 159 164 163
3 158 165 162
3 163 165 158
3 164 166 163
3 164 167 166
3 163 168 165
3 163 166 169
3 163 170 168
3 163 169 170
3 170 171 168
3 172 171 170
3 172 173 171
3 173 174 171
3 173 175 174
3 171 174 176
3 171 176 177
3 177 176 168
3 171 177 168
3 169 178 170
3 169 179 178
3 180 179 169
3 180 181 179
3 182 162 183
3 182 161 162
3 161 182 160
3 161 160 157
3 183 184 182
3 183 185 184
3 162 186 183
3 185 183 186
3 162 165 186
3 165 187 186
3 186 187 188
3 189 188 187
3 189 190 188
3 190 189 173
3 189 175 173
3 189 191 175
3 187 191 189
3 168 191 187
3 165 168 187
3 168 176 191
3 186 188 192
3 192 185 186
3 190 173 172
3 193 190 172
3 193 172 180
3 167 193 180
3 164 193 167
3 164 194 193
3 159 194 164
3 159 195 194
3 160 195 159
3 160 196 195
3 197 196 160
3 172 181 180
3 172 198 181
3 170 198 172
3 170 178 198
3 182 197 160
3 182 199 197
3 197 199 200
3 197 200 201
3 182 184 199
3 202 204 203
3 202 205 204
3 206 208 207
3 206 209 208
3 206 207 210
3 210 207 211
3 210 211 212
3 213 211 207
3 212 214 210
3 215 214 212
3 213 216 211
3 215 217 214
3 213 218 216
3 219 221 220
3 219 222 221
3 223 225 224
3 223 226 225
3 227 229 228
3 227 230 229
3 230 231 229
3 230 232 231
3 233 227 228
3 233 228 234
3 228 229 235
3 228 235 236
3 234 228 236
3 236 235 237
3 229 237 235
3 229 231 237
3 236 237 238
3 234 236 238
3 239 241 240
3 239 242 241
3 243 245 244
3 243 246 245
3 246 247 245
3 246 248 247
3 249 243 244
3 249 244 250
3 244 245 251
3 244 251 252
3 245 253 251
3 245 247 253
3 247 254 253
3 247 250 254
3 250 252 254
3 250 244 252
3 250 247 248
3 250 248 249
3 255 257 256
3 255 258 257
3 259 261 260
3 259 262 261
3 262 263 261
3 262 264 263
3 265 259 260
3 265 260 266
3 260 261 267
3 260 267 268
3 261 269 267
3 261 263 269
3 263 270 269
3 263 266 270
3 266 268 270
3 266 260 268
3 266 263 264
3 266 264 265
3 271 273 272
3 271 274 273
3 275 277 276
3 275 278 277
3 276 277 279
3 276 279 280
3 281 283 282
3 281 284 283
3 285 283 284
3 285 286 283
3 286 282 283
3 287 286 285
3 287 288 286
3 289 286 288
3 286 289 282
3 289 281 282
3 289 288 290
3 290 291 289
3 289 291 281
3 290 292 291
3 293 295 294
3 293 296 295
3 296 297 295
3 296 298 297
3 299 293 294
3 299 294 300
3 301 303 302
3 301 304 303
3 300 298 299
3 300 297 298
3 305 307 306
3 305 308 307
3 308 309 307
3 308 310 309
3 311 305 306
3 311 306 312
3 313 315 314
3 313 316 315
3 312 310 311
3 312 309 310
3 317 319 318
3 317 320 319
3 318 319 321
3 318 321 322
3 323 320 317
3 323 324 320
3 325 327 326
3 325 328 327
3 324 322 321
3 324 323 322
3 329 331 330
3 329 332 331
3 330 331 333
3 330 333 334
3 335 332 329
3 335 336 332
3 337 339 338
3 337 340 339
3 336 334 333
3 336 335 334
3 341 343 342
3 341 344 343
3 342 343 345
3 344 345 343
3 342 345 346
3 347 344 341
3 347 348 344
3 344 348 345
3 346 348 347
3 346 345 348
3 349 351 350
3 349 352 351
3 350 351 353
3 352 353 351
3 350 353 354
3 355 352 349
3 355 356 352
3 352 356 353
3 354 356 355
3 354 353 356
3 357 359 358
3 357 360 359
3 360 361 359
3 358 359 361
3 360 362 361
3 363 357 358
3 363 358 364
3 358 361 364
3 362 364 361
3 362 363 364
3 365 367 366
3 365 368 367
3 368 369 367
3 366 367 369
3 368 370 369
3 371 365 366
3 371 366 372
3 366 369 372
3 370 372 369
3 370 371 372
3 373 375 374
3 373 376 375
3 374 377 373
3 374 378 377
3 377 378 379
3 377 379 380
3 373 380 376
3 373 377 380
3 381 383 382
3 383 381 384
3 384 381 385
3 385 381 386
3 385 386 387
3 381 388 386
3 381 389 388
3 382 389 381
3 382 383 390
3 382 390 391
3 391 390 392
3 393 391 392
3 393 392 394
3 393 394 395
3 395 394 396
3 395 396 397
3 393 395 398
3 398 395 397
3 394 392 399
3 399 392 400
3 394 399 401
3 394 402 396
3 394 401 402
3 398 397 403
3 389 404 388
3 389 405 404
3 406 397 396
3 406 403 397
3 406 396 407
3 406 407 408
3 408 407 409
3 410 409 407
3 410 411 409
3 412 408 409
3 412 409 413
3 413 414 412
3 414 413 415
3 414 415 416
3 416 417 414
3 416 418 417
3 414 417 419
3 414 419 420
3 412 414 420
3 421 412 420
3 422 421 420
3 421 422 423
3 422 420 424
3 420 419 424
3 419 425 424
3 388 425 419
3 388 426 425
3 426 427 425
3 424 425 427
3 426 428 427
3 404 428 426
3 388 404 426
3 404 429 428
3 424 427 430
3 421 423 431
3 421 431 432
3 433 435 434
3 433 434 436
3 436 434 437
3 436 437 438
3 438 437 439
3 439 437 440
3 441 393 398
3 441 442 393
3 441 398 403
3 441 403 432
3 443 441 432
3 443 432 431
3 444 443 431
3 445 443 444
3 445 444 446
3 446 405 445
3 446 447 405
3 448 405 447
3 448 447 449
3 447 446 450
3 447 450 451
3 449 447 451
3 446 452 450
3 446 444 452
3 444 431 452
3 449 451 453
3 404 405 448
3 404 448 429
3 423 452 431
3 423 450 452
3 450 422 451
3 450 423 422
3 454 451 422
3 454 453 451
3 424 454 422
3 424 430 454
3 455 457 456
3 383 459 458
3 383 384 459
3 384 460 459
3 384 461 460
3 461 383 458
3 461 458 460
3 461 384 462
3 384 463 462
3 384 385 463
3 385 464 463
3 385 387 464
3 461 462 465
3 461 465 466
3 466 465 415
3 415 465 467
3 415 467 416
3 416 467 468
3 416 468 418
3 415 469 466
3 415 470 469
3 413 470 415
3 413 471 470
3 466 471 413
3 466 469 471
3 472 474 473
3 472 475 474
3 476 472 473
3 476 473 477
3 475 478 474
3 475 479 478
3 480 482 481
3 480 483 482
3 484 480 481
3 484 483 480
3 484 481 485
3 485 481 482
3 486 484 485
3 484 486 483
3 486 485 487
3 485 482 487
3 405 442 445
3 442 405 389
3 442 389 382
3 442 443 445
3 442 441 443
3 488 490 489
3 488 491 490
3 490 492 489
3 490 493 492
3 382 391 393
3 442 382 393
3 494 496 495
3 494 497 496
3 498 496 497
3 498 499 496
3 498 500 499
3 500 501 499
3 502 499 501
3 502 503 499
3 432 406 421
3 432 403 406
3 421 406 412
3 412 406 408
3 504 506 505
3 396 507 407
3 396 402 507
3 507 410 407
3 507 508 410
3 410 508 509
3 410 509 510
3 411 410 510
3 411 510 511
3 510 509 512
3 510 512 513
3 512 514 513
3 513 514 515
3 513 515 516
3 400 516 515
3 400 515 517
3 400 518 516
3 400 519 518
3 392 519 400
3 392 390 519
3 399 400 517
3 399 517 520
3 521 514 512
3 521 520 514
3 399 520 521
3 399 521 507
3 507 521 508
3 522 524 523
3 522 525 524
3 526 525 522
3 526 527 525
3 376 379 375
3 376 380 379
3 528 488 529
3 528 491 488
3 530 532 531
3 533 532 530
3 436 532 533
3 436 438 532
3 533 530 534
3 535 537 536
3 535 538 537
3 537 539 536
3 537 540 539
3 541 540 537
3 536 539 542
3 536 542 543
3 544 546 545
3 547 546 544
3 548 550 549
3 548 551 550
3 552 554 553
3 552 555 554
3 554 555 556
3 554 556 557
3 558 554 557
3 555 559 556
3 555 560 559
3 561 563 562
3 564 561 562
3 565 567 566
3 565 568 567
3 569 571 570
3 569 572 571
3 570 573 569
3 570 574 573
3 575 570 571
3 575 571 576
3 576 571 572
3 576 572 577
3 577 572 569
3 577 569 578
3 578 569 573
3 578 573 579
3 578 579 580
3 578 580 581
3 582 570 575
3 582 574 570
3 583 582 575
3 583 584 582
3 585 575 576
3 585 583 575
3 586 585 576
3 586 587 585
3 586 588 587
3 588 589 587
3 588 590 589
3 588 591 590
3 588 586 591
3 576 591 586
3 592 590 591
3 592 589 590
3 577 592 591
3 576 577 591
3 577 581 592
3 581 585 592
3 581 583 585
3 577 578 581
3 581 584 583
3 581 580 584
3 593 595 594
3 593 596 595
3 597 599 598
3 597 600 599
3 599 601 598
3 599 602 601
3 603 605 604
3 603 606 605
3 603 607 606
3 603 608 607
3 606 609 605
3 606 610 609
3 610 606 607
3 610 607 611
3 612 608 603
3 613 612 603
3 603 604 613
3 604 614 613
3 604 615 614
3 612 616 608
3 609 617 605
3 604 618 615
3 619 615 618
3 617 619 605
3 617 620 619
3 621 620 617
3 621 617 622
3 623 621 622
3 623 622 624
3 613 623 624
3 613 614 623
3 614 621 623
3 614 620 621
3 614 619 620
3 614 615 619
3 619 618 625
3 625 618 626
3 625 626 627
3 619 625 627
3 619 627 605
3 604 626 618
3 628 624 622
3 613 624 628
3 628 622 629
3 630 628 629
3 630 629 631
3 612 630 631
3 612 631 632
3 633 631 629
3 633 629 634
3 631 635 632
3 631 633 635
3 609 635 633
3 609 610 635
3 635 636 632
3 635 637 636
3 616 632 636
3 616 612 632
3 609 633 617
3 622 634 629
3 617 634 622
3 613 630 612
3 635 611 637
3 635 610 611
3 638 640 639
3 638 641 640
3 642 638 639
3 642 643 638
3 644 646 645
3 644 647 646
3 648 650 649
3 648 651 650
3 651 652 650
3 649 650 652
3 651 653 652
3 654 648 649
3 654 649 655
3 649 652 655
3 653 655 652
3 653 654 655
3 617 633 634
3 613 628 630
3 656 658 657
3 656 659 658
3 660 659 656
3 660 661 659
3 661 658 659
3 661 662 658
3 663 656 657
3 663 660 656
3 664 666 665
3 664 667 666
3 668 667 664
3 668 669 667
3 669 666 667
3 669 670 666
3 671 664 665
3 671 668 664
3 662 657 658
3 662 663 657
3 670 665 666
3 670 671 665
3 242 673 672
3 242 239 673
