ply
format ascii 1.0
element vertex 872
property float x
property float y
property float z
property uchar red
property uchar green
property uchar blue
element face 1090
property list uchar int vertex_index
end_header
0.20202 -0.39833 0 186 187 215
0.20202 -0.39833 0.14637 186 187 215
0.54493 -0.39827 0.14637 186 187 215
0.54493 -0.39827 0 186 187 215
0.17211 -0.36182 0 186 187 215
0.57482 -0.36175 1.19209E-09 186 187 215
0.57471 0.25629 0 186 187 215
0.172 0.25622 1.19209E-09 186 187 215
0.57482 -0.36175 0.14637 186 187 215
0.17211 -0.36182 0.14637 186 187 215
0.17208 -0.17662 0.14637 186 187 215
0.172 0.25622 0.14637 186 187 215
0.1721 -0.29412 0.50677 186 187 215
0.57481 -0.29405 0.50677 186 187 215
0.57481 -0.29405 0.65119 186 187 215
0.1721 -0.29412 0.65119 186 187 215
0.57479 -0.17655 1.06015 186 187 215
0.17208 -0.17662 1.06015 186 187 215
0.17202 0.13872 0.65119 186 187 215
0.172 0.25622 1.06015 186 187 215
0.17202 0.13872 0.50677 186 187 215
0.57479 -0.17655 0.14637 186 187 215
0.53988 -0.13904 1.11676 186 187 215
0.20697 -0.1391 1.11676 186 187 215
0.53997 0.25533 1.11676 186 187 215
0.20706 0.25527 1.11676 186 187 215
0.57471 0.25629 1.06015 186 187 215
0.21002 0.30172 1.06021 186 187 215
0.20997 0.18515 0.64463 186 187 215
0.53672 0.18522 0.64467 186 187 215
0.53677 0.3018 1.0603 186 187 215
0.53672 0.18497 0.51408 186 187 215
0.20997 0.1849 0.51413 186 187 215
0.53675 0.30247 0.15369 186 187 215
0.21 0.3024 0.15374 186 187 215
0.53672 0.30363 1.49925E-16 186 187 215
0.20997 0.30357 1.31786E-16 186 187 215
0.57473 0.13879 0.65119 186 187 215
0.57473 0.13879 0.50677 186 187 215
0.57471 0.25629 0.14637 186 187 215
0.57479 -0.17655 0.14637 193 194 223
0.57482 -0.36175 0.14637 193 194 223
0.17211 -0.36182 0.14637 193 194 223
0.17208 -0.17662 0.14637 193 194 223
0.20202 -0.39833 0.14637 193 194 223
0.54493 -0.39827 0.14637 193 194 223
0.60811 -0.18025 2.37472 186 187 215
1.10891 -0.18025 2.37443 186 187 215
1.10865 -0.18025 1.92693 186 187 215
0.60785 -0.18025 1.92722 186 187 215
1.10846 0.2943 1.56399 186 187 215
1.10891 0.2943 2.37443 186 187 215
0.60767 0.2943 1.56428 186 187 215
0.60811 0.2943 2.37472 186 187 215
1.1084 0.23564 1.50116 186 187 215
1.10865 -0.56112 1.92693 186 187 215
1.1084 -0.56112 1.50116 186 187 215
1.06305 -0.13675 2.44602 186 187 215
0.65406 -0.13675 2.44626 186 187 215
1.06305 0.2508 2.44602 186 187 215
0.65406 0.2508 2.44626 186 187 215
1.10871 -0.98177 2.02755 186 187 215
1.10871 -0.56112 2.02755 186 187 215
1.10834 -0.98177 1.40054 186 187 215
1.06646 -1.03689 1.4513 186 187 215
1.06677 -1.03689 1.97684 186 187 215
0.64948 -1.03689 1.45155 186 187 215
0.64979 -1.03689 1.97708 186 187 215
0.60791 -0.98177 2.02785 186 187 215
1.10834 -0.56112 1.40054 186 187 215
0.60785 -0.56112 1.92722 186 187 215
0.85831 -0.56112 2.0277 186 187 215
0.52923 -0.56112 2.10836 186 187 215
0.49268 -0.56112 2.07249 186 187 215
0.49251 -0.56112 1.77028 186 187 215
0.60776 -0.56112 1.77022 186 187 215
0.85836 -0.56112 2.10817 186 187 215
0.85831 -0.79901 2.0277 186 187 215
0.85836 -0.79901 2.10817 186 187 215
0.60791 -0.79901 2.02785 186 187 215
0.52923 -0.79901 2.10836 186 187 215
0.49268 -0.79901 2.07249 186 187 215
0.49251 -0.79901 1.77028 186 187 215
0.60776 -0.79901 1.77022 186 187 215
0.6076 -0.56112 1.50146 186 187 215
0.6076 0.23564 1.50146 186 187 215
0.60754 -0.56112 1.40083 186 187 215
0.60754 -0.98177 1.40083 186 187 215
0.65406 0.2508 2.44626 193 194 223
1.06305 0.2508 2.44602 193 194 223
1.06305 -0.13675 2.44602 193 194 223
0.65406 -0.13675 2.44626 193 194 223
1.10865 -0.18025 1.92693 193 194 223
1.10865 -0.56112 1.92693 193 194 223
0.60785 -0.56112 1.92722 193 194 223
0.60785 -0.18025 1.92722 193 194 223
0.85831 -0.79901 2.0277 193 194 223
0.85831 -0.56112 2.0277 193 194 223
1.10871 -0.56112 2.02755 193 194 223
1.10871 -0.98177 2.02755 193 194 223
0.60791 -0.98177 2.02785 193 194 223
0.60791 -0.79901 2.02785 193 194 223
0.52923 -0.79901 2.10836 193 194 223
0.52923 -0.56112 2.10836 193 194 223
0.85836 -0.56112 2.10817 193 194 223
0.85836 -0.79901 2.10817 193 194 223
1.10135 -0.46966 1.67309 211 128 128
1.12466 -0.46966 1.67309 211 128 128
1.12461 -0.46966 1.59431 211 128 128
1.1013 -0.46966 1.59431 211 128 128
1.12461 -0.09651 1.59431 211 128 128
1.12466 -0.09651 1.67309 211 128 128
1.1013 -0.09651 1.59431 211 128 128
1.10135 -0.09651 1.67309 211 128 128
1.10153 -0.46966 1.83251 211 128 128
1.12484 -0.46966 1.8325 211 128 128
1.12479 -0.46966 1.75175 211 128 128
1.10148 -0.46966 1.75176 211 128 128
1.12479 -0.09651 1.75175 211 128 128
1.12484 -0.09651 1.8325 211 128 128
1.10148 -0.09651 1.75176 211 128 128
1.10153 -0.09651 1.83251 211 128 128
1.10154 -0.06241 1.92914 211 128 128
1.12486 -0.06241 1.92913 211 128 128
1.12486 0.01652 1.92913 211 128 128
1.10154 0.01652 1.92914 211 128 128
1.12503 0.01652 2.22654 211 128 128
1.10172 0.01652 2.22655 211 128 128
1.10172 -0.06241 2.22655 211 128 128
1.12503 -0.06241 2.22654 211 128 128
1.10154 0.09996 1.92914 211 128 128
1.12486 0.09996 1.92913 211 128 128
1.12486 0.17889 1.92913 211 128 128
1.10154 0.17889 1.92914 211 128 128
1.12503 0.17889 2.22654 211 128 128
1.10172 0.17889 2.22655 211 128 128
1.10172 0.09996 2.22655 211 128 128
1.12503 0.09996 2.22654 211 128 128
-0.20202 -0.39833 0 186 187 215
-0.54493 -0.39827 0 186 187 215
-0.54493 -0.39827 0.14637 186 187 215
-0.20202 -0.39833 0.14637 186 187 215
-0.17211 -0.36182 0 186 187 215
-0.57482 -0.36175 1.19209E-09 186 187 215
-0.57471 0.25629 0 186 187 215
-0.172 0.25622 1.19209E-09 186 187 215
-0.57482 -0.36175 0.14637 186 187 215
-0.17211 -0.36182 0.14637 186 187 215
-0.17208 -0.17662 0.14637 186 187 215
-0.172 0.25622 0.14637 186 187 215
-0.1721 -0.29412 0.50677 186 187 215
-0.57481 -0.29405 0.50677 186 187 215
-0.57481 -0.29405 0.65119 186 187 215
-0.1721 -0.29412 0.65119 186 187 215
-0.57479 -0.17655 1.06015 186 187 215
-0.17208 -0.17662 1.06015 186 187 215
-0.17202 0.13872 0.65119 186 187 215
-0.172 0.25622 1.06015 186 187 215
-0.17202 0.13872 0.50677 186 187 215
-0.57479 -0.17655 0.14637 186 187 215
-0.53988 -0.13904 1.11676 186 187 215
-0.20697 -0.1391 1.11676 186 187 215
-0.53997 0.25533 1.11676 186 187 215
-0.20706 0.25527 1.11676 186 187 215
-0.57471 0.25629 1.06015 186 187 215
-0.21002 0.30172 1.06021 186 187 215
-0.53677 0.3018 1.0603 186 187 215
-0.53672 0.18522 0.64467 186 187 215
-0.20997 0.18515 0.64463 186 187 215
-0.53672 0.18497 0.51408 186 187 215
-0.20997 0.1849 0.51413 186 187 215
-0.53675 0.30247 0.15369 186 187 215
-0.21 0.3024 0.15374 186 187 215
-0.53672 0.30363 1.49925E-16 186 187 215
-0.20997 0.30357 1.31786E-16 186 187 215
-0.57473 0.13879 0.65119 186 187 215
-0.57473 0.13879 0.50677 186 187 215
-0.57471 0.25629 0.14637 186 187 215
-0.57479 -0.17655 0.14637 193 194 223
-0.17208 -0.17662 0.14637 193 194 223
-0.17211 -0.36182 0.14637 193 194 223
-0.57482 -0.36175 0.14637 193 194 223
-0.20202 -0.39833 0.14637 193 194 223
-0.54493 -0.39827 0.14637 193 194 223
0.39107 -0.77225 2.37666 193 194 223
0.34972 -0.75786 2.37666 193 194 223
0.34954 -0.51395 2.37666 193 194 223
0.3907 -0.51395 2.37666 193 194 223
0.32734 -0.82411 2.37666 193 194 223
0.31167 -0.78413 2.37666 193 194 223
-0.32734 -0.82411 2.37666 193 194 223
-0.31167 -0.78413 2.37666 193 194 223
-0.34972 -0.75786 2.37666 193 194 223
-0.39107 -0.77225 2.37666 193 194 223
-0.34954 -0.51395 2.37666 193 194 223
-0.3907 -0.51395 2.37666 193 194 223
0.31167 -0.82217 2.52662 186 187 215
0 -0.86215 2.52662 186 187 215
0.32729 -0.86215 2.52662 186 187 215
0.39107 -0.81029 2.52662 186 187 215
0.34972 -0.7959 2.52662 186 187 215
0.39107 -0.81029 2.65483 186 187 215
0.32725 -0.86215 2.65483 186 187 215
0.29956 -0.81997 2.69671 186 187 215
0.34009 -0.78065 2.69671 186 187 215
0.04934 -0.86215 2.53946 186 187 215
0.04934 -0.86215 2.58781 186 187 215
0 -0.86215 2.65483 186 187 215
0.02467 -0.86215 2.58781 186 187 215
0 -0.86215 2.58781 186 187 215
-0.02467 -0.86215 2.58781 186 187 215
0 -0.86215 2.53946 186 187 215
-0.02467 -0.86215 2.53946 186 187 215
0.02467 -0.86215 2.53946 186 187 215
-0.04934 -0.86215 2.58781 186 187 215
-0.32725 -0.86215 2.65483 186 187 215
-0.29956 -0.81997 2.69671 186 187 215
-0.39107 -0.81029 2.65483 186 187 215
-0.32729 -0.86215 2.52662 186 187 215
-0.39107 -0.81029 2.52662 186 187 215
-0.31167 -0.82217 2.52662 186 187 215
-0.34972 -0.7959 2.52662 186 187 215
-0.34009 -0.78065 2.69671 186 187 215
-0.04934 -0.86215 2.53946 186 187 215
0.3907 -0.51395 2.37666 186 187 215
0.34954 -0.51395 2.37666 186 187 215
0.34954 -0.51395 2.52662 186 187 215
0.3907 -0.51395 2.52662 186 187 215
0.3907 0.09152 2.30588 186 187 215
0.3907 -0.51395 2.65483 186 187 215
0.3907 0.09152 2.88557 186 187 215
0.32748 0.14136 2.30588 186 187 215
0.32748 0.14136 2.88557 186 187 215
0.28737 0.09439 2.94311 186 187 215
0.3404 0.05055 2.94311 186 187 215
0.34038 0.04977 2.25882 186 187 215
0.28798 0.09351 2.25882 186 187 215
0.20312 0.09439 2.94311 186 187 215
0.20316 0.14136 2.88557 186 187 215
-0.32748 0.14136 2.30588 186 187 215
-0.28798 0.09351 2.25882 186 187 215
-0.34038 0.04977 2.25882 186 187 215
-0.3907 0.09152 2.30588 186 187 215
-0.3907 0.09152 2.88557 186 187 215
-0.32748 0.14136 2.88557 186 187 215
-0.28737 0.09439 2.94311 186 187 215
-0.3404 0.05055 2.94311 186 187 215
-0.20312 0.09439 2.94311 186 187 215
-0.20316 0.14136 2.88557 186 187 215
-0.20322 0.14136 2.71308 186 187 215
-0.3907 -0.51395 2.52662 186 187 215
-0.3907 -0.51395 2.65483 186 187 215
-0.13768 0.14136 2.71308 186 187 215
-0.03855 0.14136 2.71308 186 187 215
-0.13768 0.14136 2.88557 186 187 215
-0.03868 0.14136 2.88557 186 187 215
-0.13783 0.09439 2.94311 186 187 215
-0.03851 0.09439 2.94311 186 187 215
-0.3907 -0.51395 2.37666 186 187 215
-0.34954 -0.51395 2.52662 186 187 215
-0.34954 -0.51395 2.37666 186 187 215
0.03855 0.14136 2.71308 186 187 215
0.13768 0.14136 2.71308 186 187 215
0.13768 0.14136 2.88557 186 187 215
0.03868 0.14136 2.88557 186 187 215
0.13783 0.09439 2.94311 186 187 215
0.03851 0.09439 2.94311 186 187 215
0.20322 0.14136 2.71308 186 187 215
0.34018 -0.56379 2.69671 186 187 215
-0.34972 -0.7959 2.52662 129 68 94
-0.31167 -0.82217 2.52662 129 68 94
0.31167 -0.82217 2.52662 129 68 94
0.34972 -0.7959 2.52662 129 68 94
0.34954 -0.51395 2.37666 129 68 94
-0.34954 -0.51395 2.37666 129 68 94
-0.34954 -0.51395 2.52662 129 68 94
0.34954 -0.51395 2.52662 129 68 94
-0.34972 -0.75786 2.37666 129 68 94
0.34972 -0.75786 2.37666 129 68 94
0.31167 -0.78413 2.37666 129 68 94
-0.31167 -0.78413 2.37666 129 68 94
-0.34018 -0.56379 2.69671 186 187 215
-0.27436 -0.70148 2.36934 153 128 149
-0.27436 -0.70148 2.45217 153 128 149
0.27436 -0.70148 2.45217 153 128 149
0.27436 -0.70148 2.36934 153 128 149
0.27436 -0.50869 2.45217 153 128 149
-0.27436 -0.50869 2.45217 153 128 149
0.27436 -0.50869 2.36934 153 128 149
-0.27436 -0.50869 2.36934 153 128 149
0.25105 -0.79544 2.37441 255 255 255
0.25105 -0.79544 2.43283 255 255 255
0.30984 -0.79544 2.43283 255 255 255
0.30984 -0.79544 2.37441 255 255 255
0.30984 -0.7291 2.43283 255 255 255
0.25105 -0.7291 2.43283 255 255 255
0.30984 -0.7291 2.37441 255 255 255
0.25105 -0.7291 2.37441 255 255 255
0.24075 -0.84021 2.53128 255 255 255
0.24075 -0.84021 2.47285 255 255 255
0.18016 -0.84021 2.47285 255 255 255
0.18016 -0.84021 2.53128 255 255 255
0.18016 -0.77387 2.47285 255 255 255
0.24075 -0.77387 2.47285 255 255 255
0.18016 -0.77387 2.53128 255 255 255
0.24075 -0.77387 2.53128 255 255 255
-0.25105 -0.79544 2.37441 255 255 255
-0.30984 -0.79544 2.37441 255 255 255
-0.30984 -0.79544 2.43283 255 255 255
-0.25105 -0.79544 2.43283 255 255 255
-0.30984 -0.7291 2.43283 255 255 255
-0.25105 -0.7291 2.43283 255 255 255
-0.30984 -0.7291 2.37441 255 255 255
-0.25105 -0.7291 2.37441 255 255 255
-0.24075 -0.84021 2.53128 255 255 255
-0.18016 -0.84021 2.53128 255 255 255
-0.18016 -0.84021 2.47285 255 255 255
-0.24075 -0.84021 2.47285 255 255 255
-0.18016 -0.77387 2.47285 255 255 255
-0.24075 -0.77387 2.47285 255 255 255
-0.18016 -0.77387 2.53128 255 255 255
-0.24075 -0.77387 2.53128 255 255 255
0.18277 -0.55335 2.708 42 22 26
0.18277 -0.55335 2.71792 42 22 26
0.22768 -0.55335 2.71792 42 22 26
0.22768 -0.55335 2.708 42 22 26
0.22768 -0.55335 2.7907 42 22 26
0.18277 -0.55335 2.7907 42 22 26
0.27293 -0.55335 2.71792 145 76 88
0.27293 -0.55335 2.81591 145 76 88
0.27293 -0.54139 2.81591 145 76 88
0.27293 -0.54139 2.69023 145 76 88
0.22768 -0.55335 2.71792 145 76 88
0.22768 -0.55335 2.7907 145 76 88
0.18277 -0.55335 2.7907 145 76 88
0.11199 -0.55335 2.81591 145 76 88
0.18277 -0.55335 2.71792 145 76 88
0.11199 -0.55335 2.71792 145 76 88
0.11199 -0.54139 2.81591 145 76 88
0.11199 -0.54139 2.69023 145 76 88
0.11199 -0.55335 2.69023 145 76 88
0.27293 -0.55335 2.69023 145 76 88
0.11199 -0.55335 2.69023 169 88 102
0.18277 -0.55335 2.708 169 88 102
0.22768 -0.55335 2.708 169 88 102
0.27293 -0.55335 2.69023 169 88 102
0.22768 -0.55335 2.71792 169 88 102
0.27293 -0.55335 2.71792 169 88 102
0.18277 -0.55335 2.71792 169 88 102
0.11199 -0.55335 2.71792 169 88 102
-0.18277 -0.55335 2.708 42 22 26
-0.22768 -0.55335 2.708 42 22 26
-0.22768 -0.55335 2.71792 42 22 26
-0.18277 -0.55335 2.71792 42 22 26
-0.18277 -0.55335 2.7907 42 22 26
-0.22768 -0.55335 2.7907 42 22 26
-0.27293 -0.55335 2.69023 145 76 88
-0.27293 -0.54139 2.69023 145 76 88
-0.27293 -0.55335 2.71792 145 76 88
-0.27293 -0.55335 2.81591 145 76 88
-0.22768 -0.55335 2.7907 145 76 88
-0.18277 -0.55335 2.7907 145 76 88
-0.11199 -0.55335 2.81591 145 76 88
-0.18277 -0.55335 2.71792 145 76 88
-0.11199 -0.55335 2.71792 145 76 88
-0.11199 -0.54139 2.81591 145 76 88
-0.11199 -0.55335 2.69023 145 76 88
-0.11199 -0.54139 2.69023 145 76 88
-0.22768 -0.55335 2.71792 145 76 88
-0.27293 -0.54139 2.81591 145 76 88
-0.11199 -0.55335 2.69023 169 88 102
-0.27293 -0.55335 2.69023 169 88 102
-0.22768 -0.55335 2.708 169 88 102
-0.18277 -0.55335 2.708 169 88 102
-0.22768 -0.55335 2.71792 169 88 102
-0.27293 -0.55335 2.71792 169 88 102
-0.11199 -0.55335 2.71792 169 88 102
-0.18277 -0.55335 2.71792 169 88 102
-0.78248 -0.2568 1.57242 186 187 215
-0.78248 -0.2568 2.48293 186 187 215
-0.72187 -0.32711 2.48293 186 187 215
-0.72187 -0.32711 1.57242 186 187 215
-0.78248 0.44324 1.57242 186 187 215
-0.78248 0.44324 2.48293 186 187 215
0.72187 -0.32711 1.57242 186 187 215
0.72187 -0.32711 2.48293 186 187 215
0.78248 -0.2568 1.57242 186 187 215
0.78248 -0.2568 2.48293 186 187 215
0.78248 0.44324 2.48293 186 187 215
0.78248 0.44324 1.57242 186 187 215
-0.68181 -0.28507 2.54882 186 187 215
-0.73905 -0.2218 2.54882 186 187 215
-0.73905 0.40824 2.54882 186 187 215
-0.72187 0.51354 2.48293 186 187 215
-0.72187 0.51354 1.57242 186 187 215
0.72187 0.51354 2.48293 186 187 215
0.72187 0.51354 1.57242 186 187 215
-0.68181 0.47151 2.54882 186 187 215
0.68181 0.47151 2.54882 186 187 215
0.73905 0.40824 2.54882 186 187 215
-0.68181 0.47151 1.50654 186 187 215
-0.73905 0.40824 1.50654 186 187 215
-0.73905 -0.2218 1.50654 186 187 215
0.73905 -0.2218 1.50654 186 187 215
0.73905 0.40824 1.50654 186 187 215
-0.68181 -0.28507 1.50654 186 187 215
0.68181 -0.28507 1.50654 186 187 215
0.68181 0.47151 1.50654 186 187 215
0.73905 -0.2218 2.54882 186 187 215
0.68181 -0.28507 2.54882 186 187 215
0.73905 -0.2218 2.54882 193 194 223
0.68181 -0.28507 2.54882 193 194 223
-0.68181 -0.28507 2.54882 193 194 223
-0.73905 -0.2218 2.54882 193 194 223
0.73905 0.40824 2.54882 193 194 223
-0.73905 0.40824 2.54882 193 194 223
0.68181 0.47151 2.54882 193 194 223
-0.68181 0.47151 2.54882 193 194 223
0.49295 0.42885 1.2621 195 185 122
0.49295 0.42885 1.402 195 185 122
0.35082 0.42885 1.402 195 185 122
0.35082 0.42885 1.2621 195 185 122
0.35082 0.39004 1.402 195 185 122
0.49295 0.39004 1.402 195 185 122
0.49295 0.39004 1.2621 195 185 122
0.35082 0.39004 1.2621 195 185 122
0.61682 0.17412 1.2621 195 185 122
0.61682 0.17412 1.402 195 185 122
0.61682 0.30605 1.402 195 185 122
0.61682 0.30605 1.2621 195 185 122
0.57801 0.30605 1.402 195 185 122
0.57801 0.17412 1.402 195 185 122
0.57801 0.17412 1.2621 195 185 122
0.57801 0.30605 1.2621 195 185 122
0.61682 -0.1314 1.2621 195 185 122
0.61682 -0.1314 1.402 195 185 122
0.61682 0.00675 1.402 195 185 122
0.61682 0.00675 1.2621 195 185 122
0.57801 0.00675 1.402 195 185 122
0.57801 -0.1314 1.402 195 185 122
0.57801 -0.1314 1.2621 195 185 122
0.57801 0.00675 1.2621 195 185 122
0.21037 0.42885 1.2621 195 185 122
0.21037 0.42885 1.402 195 185 122
0.06992 0.42885 1.402 195 185 122
0.06992 0.42885 1.2621 195 185 122
0.06992 0.39004 1.402 195 185 122
0.21037 0.39004 1.402 195 185 122
0.21037 0.39004 1.2621 195 185 122
0.06992 0.39004 1.2621 195 185 122
0.3393 -0.24405 1.2621 195 185 122
0.3393 -0.24405 1.402 195 185 122
0.48034 -0.24405 1.402 195 185 122
0.48034 -0.24405 1.2621 195 185 122
0.48034 -0.20524 1.402 195 185 122
0.3393 -0.20524 1.402 195 185 122
0.3393 -0.20524 1.2621 195 185 122
0.48034 -0.20524 1.2621 195 185 122
-0.49152 0.42885 1.2621 195 185 122
-0.35226 0.42885 1.2621 195 185 122
-0.35226 0.42885 1.402 195 185 122
-0.49152 0.42885 1.402 195 185 122
-0.35226 0.39004 1.402 195 185 122
-0.49152 0.39004 1.402 195 185 122
-0.49152 0.39004 1.2621 195 185 122
-0.35226 0.39004 1.2621 195 185 122
-0.61682 0.17412 1.2621 195 185 122
-0.61682 0.30605 1.2621 195 185 122
-0.61682 0.30605 1.402 195 185 122
-0.61682 0.17412 1.402 195 185 122
-0.57801 0.30605 1.402 195 185 122
-0.57801 0.17412 1.402 195 185 122
-0.57801 0.17412 1.2621 195 185 122
-0.57801 0.30605 1.2621 195 185 122
-0.61682 -0.1314 1.2621 195 185 122
-0.61682 0.00675 1.2621 195 185 122
-0.61682 0.00675 1.402 195 185 122
-0.61682 -0.1314 1.402 195 185 122
-0.57801 0.00675 1.402 195 185 122
-0.57801 -0.1314 1.402 195 185 122
-0.57801 -0.1314 1.2621 195 185 122
-0.57801 0.00675 1.2621 195 185 122
-0.21065 0.42885 1.2621 195 185 122
-0.06964 0.42885 1.2621 195 185 122
-0.06964 0.42885 1.402 195 185 122
-0.21065 0.42885 1.402 195 185 122
-0.06964 0.39004 1.402 195 185 122
-0.21065 0.39004 1.402 195 185 122
-0.21065 0.39004 1.2621 195 185 122
-0.06964 0.39004 1.2621 195 185 122
-0.34205 -0.24405 1.2621 195 185 122
-0.47759 -0.24405 1.2621 195 185 122
-0.47759 -0.24405 1.402 195 185 122
-0.34205 -0.24405 1.402 195 185 122
-0.47759 -0.20524 1.402 195 185 122
-0.34205 -0.20524 1.402 195 185 122
-0.34205 -0.20524 1.2621 195 185 122
-0.47759 -0.20524 1.2621 195 185 122
0.3907 -0.51395 2.88557 186 187 215
0.3404 -0.47297 2.94311 186 187 215
0.34018 -0.56379 2.88557 186 187 215
0.34018 -0.56379 2.86012 186 187 215
0.2032 -0.56379 2.88557 186 187 215
0.20329 -0.56379 2.79103 186 187 215
0.2032 -0.51682 2.94311 186 187 215
0.30006 -0.51682 2.94311 186 187 215
0.13925 -0.56379 2.69671 186 187 215
0.13925 -0.54516 2.69671 186 187 215
0.34018 -0.54516 2.86012 186 187 215
0.34018 -0.54516 2.69671 186 187 215
0.13764 -0.56379 2.79107 186 187 215
0.03867 -0.56379 2.79098 186 187 215
0.03871 -0.56379 2.88557 186 187 215
0.13772 -0.56379 2.88557 186 187 215
0.03859 -0.51682 2.94311 186 187 215
0.13783 -0.51682 2.94311 186 187 215
-0.03867 -0.56379 2.79098 186 187 215
-0.13925 -0.56379 2.69671 186 187 215
-0.13764 -0.56379 2.79107 186 187 215
-0.20329 -0.56379 2.79103 186 187 215
-0.34018 -0.56379 2.86012 186 187 215
-0.2032 -0.56379 2.88557 186 187 215
-0.34018 -0.56379 2.88557 186 187 215
-0.3907 -0.51395 2.88557 186 187 215
-0.2032 -0.51682 2.94311 186 187 215
-0.30006 -0.51682 2.94311 186 187 215
-0.3404 -0.47297 2.94311 186 187 215
-0.13925 -0.54516 2.69671 186 187 215
-0.34018 -0.54516 2.86012 186 187 215
-0.34018 -0.54516 2.69671 186 187 215
-0.13772 -0.56379 2.88557 186 187 215
-0.03871 -0.56379 2.88557 186 187 215
-0.03859 -0.51682 2.94311 186 187 215
-0.13783 -0.51682 2.94311 186 187 215
0.03851 0.20414 3.0713 174 170 171
-0.03851 0.20414 3.0713 174 170 171
-0.03868 0.25526 3.01312 174 170 171
0.03868 0.25526 3.01312 174 170 171
-0.03859 -0.60462 3.0713 174 170 171
0.03859 -0.60462 3.0713 174 170 171
0.30645 -0.77254 2.2588 186 187 215
-0.30645 -0.77254 2.2588 186 187 215
-0.32738 -0.82411 2.30619 186 187 215
0.32738 -0.82411 2.30619 186 187 215
0.39107 -0.77225 2.3062 186 187 215
0.34022 -0.74242 2.2588 186 187 215
0.39107 -0.77225 2.37666 186 187 215
0.32734 -0.82411 2.37666 186 187 215
-0.39107 -0.77225 2.3062 186 187 215
-0.34022 -0.74242 2.2588 186 187 215
-0.32734 -0.82411 2.37666 186 187 215
-0.39107 -0.77225 2.37666 186 187 215
0.34018 -0.54516 2.86012 255 255 255
0.34018 -0.54516 2.69671 255 255 255
0.13925 -0.54516 2.69671 255 255 255
0.13783 -0.51682 2.94311 193 194 223
0.03859 -0.51682 2.94311 193 194 223
0.03851 0.09439 2.94311 193 194 223
0.13783 0.09439 2.94311 193 194 223
0.2032 -0.57938 3.03469 174 170 171
0.13783 -0.57938 3.03469 174 170 171
0.13783 0.16967 3.03469 174 170 171
0.20312 0.16967 3.03469 174 170 171
0.2032 -0.62531 2.99917 174 170 171
0.13772 -0.62531 2.99917 174 170 171
0.28737 0.09439 2.94311 193 194 223
0.3404 0.05055 2.94311 193 194 223
0.3404 -0.47297 2.94311 193 194 223
0.30006 -0.51682 2.94311 193 194 223
0.2032 -0.51682 2.94311 193 194 223
0.20312 0.09439 2.94311 193 194 223
0.13768 0.22079 2.97651 174 170 171
0.20316 0.22079 2.97651 174 170 171
0.20316 0.22079 2.97651 167 163 164
0.13768 0.22079 2.97651 167 163 164
0.13768 0.22079 2.71308 167 163 164
0.20322 0.22079 2.71308 167 163 164
0.20322 0.14136 2.71308 167 163 164
0.13768 0.14136 2.71308 167 163 164
0.20316 0.14136 2.88557 167 163 164
0.20312 0.09439 2.94311 167 163 164
0.20312 0.16967 3.03469 167 163 164
0.13768 0.14136 2.88557 167 163 164
0.13783 0.16967 3.03469 167 163 164
0.13783 0.09439 2.94311 167 163 164
0.13783 -0.57938 3.03469 167 163 164
0.13783 -0.51682 2.94311 167 163 164
0.13772 -0.62531 2.99917 167 163 164
0.2032 -0.62531 2.99917 167 163 164
0.20329 -0.62531 2.79103 167 163 164
0.13764 -0.62531 2.79107 167 163 164
0.13764 -0.56379 2.79107 167 163 164
0.20329 -0.56379 2.79103 167 163 164
0.13772 -0.56379 2.88557 167 163 164
0.2032 -0.56379 2.88557 167 163 164
0.2032 -0.57938 3.03469 167 163 164
0.2032 -0.51682 2.94311 167 163 164
0.03859 -0.51682 2.94311 167 163 164
0.03859 -0.60462 3.0713 167 163 164
0.03851 0.20414 3.0713 167 163 164
0.03851 0.09439 2.94311 167 163 164
0.03871 -0.56379 2.88557 167 163 164
0.03871 -0.65054 3.03578 167 163 164
0.0387 -0.65059 2.79105 167 163 164
0.03867 -0.56379 2.79098 167 163 164
0.03868 0.14136 2.88557 167 163 164
0.03868 0.25526 3.01312 167 163 164
0.03855 0.25526 2.71308 167 163 164
0.03855 0.14136 2.71308 167 163 164
-0.03855 0.14136 2.71308 167 163 164
-0.03855 0.25526 2.71308 167 163 164
-0.03868 0.25526 3.01312 167 163 164
-0.03868 0.14136 2.88557 167 163 164
0.13925 -0.56379 2.69671 193 194 223
0.34018 -0.56379 2.69671 193 194 223
0.34009 -0.78065 2.69671 193 194 223
0.29956 -0.81997 2.69671 193 194 223
-0.29956 -0.81997 2.69671 193 194 223
-0.13925 -0.56379 2.69671 193 194 223
-0.34009 -0.78065 2.69671 193 194 223
-0.34018 -0.56379 2.69671 193 194 223
-0.34018 -0.54516 2.86012 255 255 255
-0.13925 -0.54516 2.69671 255 255 255
-0.34018 -0.54516 2.69671 255 255 255
-0.13783 -0.51682 2.94311 193 194 223
-0.13783 0.09439 2.94311 193 194 223
-0.03851 0.09439 2.94311 193 194 223
-0.03859 -0.51682 2.94311 193 194 223
0.03871 -0.65054 3.03578 174 170 171
-0.03871 -0.65054 3.03578 174 170 171
-0.2032 -0.57938 3.03469 174 170 171
-0.20312 0.16967 3.03469 174 170 171
-0.13783 0.16967 3.03469 174 170 171
-0.13783 -0.57938 3.03469 174 170 171
-0.2032 -0.62531 2.99917 174 170 171
-0.13772 -0.62531 2.99917 174 170 171
-0.28737 0.09439 2.94311 193 194 223
-0.30006 -0.51682 2.94311 193 194 223
-0.3404 -0.47297 2.94311 193 194 223
-0.3404 0.05055 2.94311 193 194 223
-0.2032 -0.51682 2.94311 193 194 223
-0.20312 0.09439 2.94311 193 194 223
-0.20316 0.22079 2.97651 174 170 171
-0.13768 0.22079 2.97651 174 170 171
-0.20316 0.22079 2.97651 167 163 164
-0.20322 0.22079 2.71308 167 163 164
-0.13768 0.22079 2.71308 167 163 164
-0.13768 0.22079 2.97651 167 163 164
-0.20322 0.14136 2.71308 167 163 164
-0.13768 0.14136 2.71308 167 163 164
-0.20316 0.14136 2.88557 167 163 164
-0.20312 0.09439 2.94311 167 163 164
-0.20312 0.16967 3.03469 167 163 164
-0.13768 0.14136 2.88557 167 163 164
-0.13783 0.16967 3.03469 167 163 164
-0.13783 0.09439 2.94311 167 163 164
-0.13783 -0.57938 3.03469 167 163 164
-0.13783 -0.51682 2.94311 167 163 164
-0.13772 -0.62531 2.99917 167 163 164
-0.13764 -0.62531 2.79107 167 163 164
-0.20329 -0.62531 2.79103 167 163 164
-0.2032 -0.62531 2.99917 167 163 164
-0.13764 -0.56379 2.79107 167 163 164
-0.20329 -0.56379 2.79103 167 163 164
-0.13772 -0.56379 2.88557 167 163 164
-0.2032 -0.56379 2.88557 167 163 164
-0.2032 -0.57938 3.03469 167 163 164
-0.2032 -0.51682 2.94311 167 163 164
-0.03859 -0.51682 2.94311 167 163 164
-0.03851 0.09439 2.94311 167 163 164
-0.03851 0.20414 3.0713 167 163 164
-0.03859 -0.60462 3.0713 167 163 164
-0.03871 -0.56379 2.88557 167 163 164
-0.03871 -0.65054 3.03578 167 163 164
-0.0387 -0.65059 2.79105 167 163 164
-0.03867 -0.56379 2.79098 167 163 164
-0.05042 -0.2583 1.36854 199 120 123
-0.05042 -0.2583 1.49183 199 120 123
0.00641 -0.2583 1.4136 199 120 123
0.00641 -0.2583 1.36854 199 120 123
-0.05042 -0.24182 1.36854 199 120 123
0.00641 -0.24182 1.36854 199 120 123
-0.05042 -0.24182 1.49183 199 120 123
0.05777 -0.24182 1.49183 199 120 123
0.05777 -0.2583 1.49183 199 120 123
0.05777 -0.2583 1.4136 199 120 123
0.05777 -0.24182 1.4136 199 120 123
0.00641 -0.24182 1.4136 199 120 123
0.58422 -0.15698 1.15999 69 77 72
0.58422 -0.15698 1.51564 69 77 72
0.58422 0.33845 1.51564 69 77 72
0.58422 0.33845 1.15999 69 77 72
0.52389 -0.21175 1.51564 69 77 72
0.52389 -0.21175 1.15999 69 77 72
0.26195 -0.21175 1.51564 69 77 72
0.26195 -0.21175 1.15999 69 77 72
0.52389 0.39323 1.15999 69 77 72
0.52389 0.39323 1.51564 69 77 72
-0.52389 0.39323 1.51564 69 77 72
-0.52389 0.39323 1.15999 69 77 72
-0.58422 0.33845 1.51564 69 77 72
-0.58422 0.33845 1.15999 69 77 72
0.26195 -0.24827 1.51564 195 185 122
0.26195 -0.24827 1.15999 195 185 122
0.13367 -0.24827 1.23571 195 185 122
0.13367 -0.24827 1.43991 195 185 122
0.26195 -0.21175 1.15999 195 185 122
0.26195 -0.21175 1.51564 195 185 122
-0.26195 -0.21175 1.15999 195 185 122
-0.26195 -0.24827 1.15999 195 185 122
-0.26195 -0.24827 1.51564 195 185 122
-0.13367 -0.24827 1.23571 195 185 122
-0.13367 -0.24827 1.43991 195 185 122
-0.26195 -0.21175 1.51564 195 185 122
0.58422 -0.15698 1.11389 76 70 96
0.58422 0.25034 1.11389 76 70 96
0.15451 0.25034 1.11389 76 70 96
0.15451 0.25034 0.87765 76 70 96
0.58422 0.25034 0.87764 76 70 96
0.52389 0.39323 0.87764 76 70 96
0.58422 0.33845 0.87764 76 70 96
0.58422 0.33845 1.15999 76 70 96
0.58422 -0.15698 1.15999 76 70 96
0.52389 -0.21175 1.11389 76 70 96
0.52389 -0.21175 1.15999 76 70 96
0.52389 0.39323 1.15999 76 70 96
0.15451 -0.21175 1.11389 76 70 96
0.26195 -0.21175 1.15999 76 70 96
-0.52389 0.39323 1.15999 76 70 96
-0.52389 0.39323 0.87764 76 70 96
-0.58422 0.33845 1.15999 76 70 96
-0.58422 0.33845 0.87764 76 70 96
-0.58422 0.25034 1.11389 76 70 96
-0.58422 0.25034 0.87764 76 70 96
-0.15451 0.25034 0.87765 76 70 96
-0.15451 0.25034 1.11389 76 70 96
-0.58422 -0.15698 1.11389 76 70 96
-0.58422 -0.15698 1.15999 76 70 96
-0.52389 -0.21175 1.11389 76 70 96
-0.52389 -0.21175 1.15999 76 70 96
-0.26195 -0.21175 1.15999 76 70 96
-0.15451 -0.21175 1.11389 76 70 96
-0.15451 -0.1836 0.87765 76 70 96
-0.15451 -0.21175 0.90844 76 70 96
0.15451 -0.1836 0.87765 76 70 96
0.15451 -0.21175 0.90844 76 70 96
0.13367 -0.24827 1.23571 166 157 104
0.09221 -0.24827 1.27895 166 157 104
0.09221 -0.24827 1.39668 166 157 104
0.13367 -0.24827 1.43991 166 157 104
-0.13367 -0.24827 1.23571 166 157 104
-0.09221 -0.24827 1.27895 166 157 104
-0.09221 -0.24827 1.39668 166 157 104
-0.13367 -0.24827 1.43991 166 157 104
-0.58422 -0.15698 1.15999 69 77 72
-0.58422 -0.15698 1.51564 69 77 72
-0.52389 -0.21175 1.51564 69 77 72
-0.52389 -0.21175 1.15999 69 77 72
-0.26195 -0.21175 1.51564 69 77 72
-0.26195 -0.21175 1.15999 69 77 72
0.09221 -0.24827 1.39668 195 185 122
0.09221 -0.24827 1.27895 195 185 122
-0.09221 -0.24827 1.27895 195 185 122
-0.09221 -0.24827 1.39668 195 185 122
0.02467 -0.84923 2.58781 154 155 178
0.04934 -0.84923 2.58781 154 155 178
0.04934 -0.84923 2.53946 154 155 178
0.02467 -0.84923 2.53946 154 155 178
0.02467 -0.86215 2.58781 154 155 178
0.02467 -0.86215 2.53946 154 155 178
0.04934 -0.86215 2.53946 154 155 178
0.04934 -0.86215 2.58781 154 155 178
-0.04934 -0.84923 2.53946 154 155 178
-0.04934 -0.84923 2.58781 154 155 178
-0.02467 -0.84923 2.58781 154 155 178
-0.02467 -0.84923 2.53946 154 155 178
-0.04934 -0.86215 2.53946 154 155 178
-0.02467 -0.86215 2.53946 154 155 178
-0.02467 -0.86215 2.58781 154 155 178
-0.04934 -0.86215 2.58781 154 155 178
-0.60811 -0.18025 2.37472 186 187 215
-0.60785 -0.18025 1.92722 186 187 215
-1.10865 -0.18025 1.92693 186 187 215
-1.10891 -0.18025 2.37443 186 187 215
-1.10846 0.2943 1.56399 186 187 215
-1.10891 0.2943 2.37443 186 187 215
-0.60767 0.2943 1.56428 186 187 215
-0.60811 0.2943 2.37472 186 187 215
-1.1084 0.23564 1.50116 186 187 215
-1.10865 -0.56112 1.92693 186 187 215
-1.1084 -0.56112 1.50116 186 187 215
-1.06305 -0.13675 2.44602 186 187 215
-0.65406 -0.13675 2.44626 186 187 215
-1.06305 0.2508 2.44602 186 187 215
-0.65406 0.2508 2.44626 186 187 215
-1.10871 -0.98177 2.02755 186 187 215
-1.10871 -0.56112 2.02755 186 187 215
-1.10834 -0.98177 1.40054 186 187 215
-1.06646 -1.03689 1.4513 186 187 215
-1.06677 -1.03689 1.97684 186 187 215
-0.64948 -1.03689 1.45155 186 187 215
-0.64979 -1.03689 1.97708 186 187 215
-0.60791 -0.98177 2.02785 186 187 215
-1.10834 -0.56112 1.40054 186 187 215
-0.60785 -0.56112 1.92722 186 187 215
-0.85831 -0.56112 2.0277 186 187 215
-0.52923 -0.56112 2.10836 186 187 215
-0.49268 -0.56112 2.07249 186 187 215
-0.49251 -0.56112 1.77028 186 187 215
-0.60776 -0.56112 1.77022 186 187 215
-0.85836 -0.56112 2.10817 186 187 215
-0.85831 -0.79901 2.0277 186 187 215
-0.85836 -0.79901 2.10817 186 187 215
-0.60791 -0.79901 2.02785 186 187 215
-0.52923 -0.79901 2.10836 186 187 215
-0.49268 -0.79901 2.07249 186 187 215
-0.49251 -0.79901 1.77028 186 187 215
-0.60776 -0.79901 1.77022 186 187 215
-0.6076 -0.56112 1.50146 186 187 215
-0.6076 0.23564 1.50146 186 187 215
-0.60754 -0.56112 1.40083 186 187 215
-0.60754 -0.98177 1.40083 186 187 215
-0.65406 0.2508 2.44626 193 194 223
-0.65406 -0.13675 2.44626 193 194 223
-1.06305 -0.13675 2.44602 193 194 223
-1.06305 0.2508 2.44602 193 194 223
-1.10865 -0.18025 1.92693 193 194 223
-0.60785 -0.18025 1.92722 193 194 223
-0.60785 -0.56112 1.92722 193 194 223
-1.10865 -0.56112 1.92693 193 194 223
-0.85831 -0.79901 2.0277 193 194 223
-1.10871 -0.98177 2.02755 193 194 223
-1.10871 -0.56112 2.02755 193 194 223
-0.85831 -0.56112 2.0277 193 194 223
-0.60791 -0.98177 2.02785 193 194 223
-0.60791 -0.79901 2.02785 193 194 223
-0.52923 -0.79901 2.10836 193 194 223
-0.85836 -0.79901 2.10817 193 194 223
-0.85836 -0.56112 2.10817 193 194 223
-0.52923 -0.56112 2.10836 193 194 223
-1.10135 -0.46966 1.67309 211 128 128
-1.1013 -0.46966 1.59431 211 128 128
-1.12461 -0.46966 1.59431 211 128 128
-1.12466 -0.46966 1.67309 211 128 128
-1.12461 -0.09651 1.59431 211 128 128
-1.12466 -0.09651 1.67309 211 128 128
-1.1013 -0.09651 1.59431 211 128 128
-1.10135 -0.09651 1.67309 211 128 128
-1.10153 -0.46966 1.83251 211 128 128
-1.10148 -0.46966 1.75176 211 128 128
-1.12479 -0.46966 1.75175 211 128 128
-1.12484 -0.46966 1.8325 211 128 128
-1.12479 -0.09651 1.75175 211 128 128
-1.12484 -0.09651 1.8325 211 128 128
-1.10148 -0.09651 1.75176 211 128 128
-1.10153 -0.09651 1.83251 211 128 128
-1.10154 -0.06241 1.92914 211 128 128
-1.10154 0.01652 1.92914 211 128 128
-1.12486 0.01652 1.92913 211 128 128
-1.12486 -0.06241 1.92913 211 128 128
-1.12503 0.01652 2.22654 211 128 128
-1.10172 0.01652 2.22655 211 128 128
-1.10172 -0.06241 2.22655 211 128 128
-1.12503 -0.06241 2.22654 211 128 128
-1.10154 0.09996 1.92914 211 128 128
-1.10154 0.17889 1.92914 211 128 128
-1.12486 0.17889 1.92913 211 128 128
-1.12486 0.09996 1.92913 211 128 128
-1.12503 0.17889 2.22654 211 128 128
-1.10172 0.17889 2.22655 211 128 128
-1.10172 0.09996 2.22655 211 128 128
-1.12503 0.09996 2.22654 211 128 128
3 0 2 1
3 0 3 2
3 4 3 0
3 4 5 3
3 5 2 3
3 6 5 4
3 6 4 7
3 5 8 2
3 9 0 1
3 9 4 0
3 10 4 9
3 10 7 4
3 10 11 7
3 11 10 12
3 10 13 12
3 12 13 14
3 12 14 15
3 15 14 16
3 15 16 17
3 18 15 17
3 18 17 19
3 20 15 18
3 20 12 15
3 11 12 20
3 10 21 13
3 17 16 22
3 17 22 23
3 23 22 24
3 16 24 22
3 23 24 25
3 16 26 24
3 27 29 28
3 27 30 29
3 28 29 31
3 28 31 32
3 32 31 33
3 32 33 34
3 34 33 35
3 34 35 36
3 26 29 30
3 26 30 24
3 26 37 29
3 37 31 29
3 14 37 26
3 14 26 16
3 13 37 14
3 13 38 37
3 37 38 31
3 38 33 31
3 21 38 13
3 21 39 38
3 38 39 33
3 39 35 33
3 21 6 39
3 39 6 35
3 6 36 35
3 21 5 6
3 21 8 5
3 6 7 36
3 7 34 36
3 7 11 34
3 11 32 34
3 11 20 32
3 20 28 32
3 20 18 28
3 18 27 28
3 18 19 27
3 27 19 25
3 19 23 25
3 19 17 23
3 30 27 25
3 30 25 24
3 40 42 41
3 40 43 42
3 41 42 44
3 41 44 45
3 46 48 47
3 46 49 48
3 47 48 50
3 47 50 51
3 51 50 52
3 51 52 53
3 50 48 54
3 54 48 55
3 54 55 56
3 46 47 57
3 46 57 58
3 47 59 57
3 47 51 59
3 51 60 59
3 51 53 60
3 61 56 55
3 61 55 62
3 61 63 56
3 64 63 61
3 64 61 65
3 65 66 64
3 65 67 66
3 67 65 61
3 67 61 68
3 56 63 69
3 70 62 55
3 70 71 62
3 72 71 70
3 72 70 73
3 70 74 73
3 70 75 74
3 72 76 71
3 77 71 76
3 77 76 78
3 79 77 78
3 79 78 80
3 81 79 80
3 73 81 80
3 73 80 72
3 73 82 81
3 73 74 82
3 75 82 74
3 75 83 82
3 81 83 79
3 81 82 83
3 84 83 75
3 75 85 84
3 85 56 84
3 85 54 56
3 85 50 54
3 85 52 50
3 49 52 85
3 49 85 75
3 53 52 49
3 53 49 46
3 53 46 58
3 53 58 60
3 84 56 69
3 84 69 86
3 86 69 63
3 86 63 87
3 87 84 86
3 87 83 84
3 64 87 63
3 64 66 87
3 66 68 87
3 66 67 68
3 87 68 83
3 83 68 79
3 49 75 70
3 88 90 89
3 88 91 90
3 92 94 93
3 92 95 94
3 96 98 97
3 96 99 98
3 100 99 96
3 100 96 101
3 102 104 103
3 102 105 104
3 106 108 107
3 106 109 108
3 107 108 110
3 107 110 111
3 111 110 112
3 111 112 113
3 113 107 111
3 113 106 107
3 109 110 108
3 109 112 110
3 114 116 115
3 114 117 116
3 115 116 118
3 115 118 119
3 119 118 120
3 119 120 121
3 121 115 119
3 121 114 115
3 117 118 116
3 117 120 118
3 122 124 123
3 122 125 124
3 125 126 124
3 125 127 126
3 128 122 123
3 128 123 129
3 123 126 129
3 123 124 126
3 129 126 127
3 129 127 128
3 130 132 131
3 130 133 132
3 133 134 132
3 133 135 134
3 136 130 131
3 136 131 137
3 131 134 137
3 131 132 134
3 137 134 135
3 137 135 136
3 138 140 139
3 138 141 140
3 142 138 139
3 142 139 143
3 143 139 140
3 144 142 143
3 144 145 142
3 143 140 146
3 147 138 142
3 147 141 138
3 148 147 142
3 148 142 145
3 148 145 149
3 149 150 148
3 148 150 151
3 150 152 151
3 150 153 152
3 153 154 152
3 153 155 154
3 156 155 153
3 156 157 155
3 158 153 150
3 158 156 153
3 149 158 150
3 148 151 159
3 155 160 154
3 155 161 160
3 161 162 160
3 154 160 162
3 161 163 162
3 154 162 164
3 165 167 166
3 165 168 167
3 168 169 167
3 168 170 169
3 170 171 169
3 170 172 171
3 172 173 171
3 172 174 173
3 164 166 167
3 164 162 166
3 164 167 175
3 175 167 169
3 152 164 175
3 152 154 164
3 151 152 175
3 151 175 176
3 175 169 176
3 176 169 171
3 159 151 176
3 159 176 177
3 176 171 177
3 177 171 173
3 159 177 144
3 177 173 144
3 144 173 174
3 159 144 143
3 159 143 146
3 144 174 145
3 145 174 172
3 145 172 149
3 149 172 170
3 149 170 158
3 158 170 168
3 158 168 156
3 156 168 165
3 156 165 157
3 165 163 157
3 157 163 161
3 157 161 155
3 166 163 165
3 166 162 163
3 178 180 179
3 178 181 180
3 181 182 180
3 181 183 182
3 184 186 185
3 184 187 186
3 188 184 185
3 188 185 189
3 190 188 189
3 190 189 191
3 190 191 192
3 190 192 193
3 193 192 194
3 193 194 195
3 196 198 197
3 199 198 196
3 199 196 200
3 201 198 199
3 201 202 198
3 203 202 201
3 203 201 204
3 202 205 198
3 197 198 205
3 202 206 205
3 206 202 207
3 202 203 207
3 206 207 208
3 208 207 209
3 207 210 209
3 210 211 209
3 211 208 209
3 210 212 211
3 212 197 211
3 211 213 208
3 214 210 207
3 214 207 215
3 207 216 215
3 207 203 216
3 216 217 215
3 217 218 215
3 218 214 215
3 217 219 218
3 219 220 218
3 219 221 220
3 216 222 217
3 218 223 214
3 218 212 223
3 218 197 212
3 197 213 211
3 220 197 218
3 197 205 213
3 196 197 220
3 224 226 225
3 224 227 226
3 224 228 227
3 227 230 229
3 227 228 230
3 231 230 228
3 231 232 230
3 230 232 233
3 230 233 234
3 231 228 235
3 231 235 236
3 232 237 233
3 232 238 237
3 236 239 231
3 236 240 239
3 235 240 236
3 239 240 241
3 235 241 240
3 239 241 242
3 239 242 243
3 239 243 244
3 243 245 244
3 243 246 245
3 244 245 247
3 244 247 248
3 249 244 248
3 249 239 244
3 250 243 242
3 250 251 243
3 249 252 239
3 239 252 253
3 254 253 252
3 254 255 253
3 256 255 254
3 256 257 255
3 258 259 250
3 258 260 259
3 258 250 242
3 239 253 261
3 239 261 231
3 231 261 262
3 263 262 261
3 263 261 264
3 265 263 264
3 265 264 266
3 231 262 267
3 231 267 232
3 232 267 238
3 199 226 227
3 199 200 226
3 199 227 229
3 199 229 201
3 229 204 201
3 229 268 204
3 269 271 270
3 269 272 271
3 273 275 274
3 273 276 275
3 277 273 274
3 277 278 273
3 279 278 277
3 279 277 280
3 219 259 221
3 219 250 259
3 219 251 250
3 219 217 251
3 251 217 222
3 251 222 281
3 276 269 275
3 276 272 269
3 282 284 283
3 282 285 284
3 283 284 286
3 285 286 284
3 283 286 287
3 285 288 286
3 289 283 287
3 289 282 283
3 290 292 291
3 290 293 292
3 291 292 294
3 293 294 292
3 291 294 295
3 293 296 294
3 297 291 295
3 297 290 291
3 295 296 297
3 295 294 296
3 298 300 299
3 298 301 300
3 299 300 302
3 301 302 300
3 299 302 303
3 301 304 302
3 305 299 303
3 305 298 299
3 303 304 305
3 303 302 304
3 306 308 307
3 306 309 308
3 309 310 308
3 307 308 310
3 309 311 310
3 307 310 312
3 313 309 306
3 313 311 309
3 311 312 310
3 311 313 312
3 314 316 315
3 314 317 316
3 317 318 316
3 315 316 318
3 317 319 318
3 315 318 320
3 321 317 314
3 321 319 317
3 319 320 318
3 319 321 320
3 322 324 323
3 322 325 324
3 323 324 326
3 323 326 327
3 328 330 329
3 328 331 330
3 332 328 329
3 332 329 333
3 329 334 333
3 329 335 334
3 335 336 334
3 335 337 336
3 338 337 335
3 339 337 338
3 337 339 340
3 341 331 328
3 342 344 343
3 342 345 344
3 345 346 344
3 345 347 346
3 348 342 343
3 348 349 342
3 350 352 351
3 350 353 352
3 352 353 354
3 352 354 355
3 356 358 357
3 357 358 359
3 358 360 359
3 359 360 361
3 359 361 362
3 362 361 363
3 362 363 364
3 364 365 362
3 366 365 364
3 365 366 367
3 358 368 360
3 357 359 369
3 370 372 371
3 370 373 372
3 371 372 374
3 371 374 375
3 376 373 370
3 376 377 373
3 378 380 379
3 378 381 380
3 382 378 379
3 382 379 383
3 380 381 384
3 380 384 385
3 385 384 386
3 385 386 387
3 386 388 387
3 386 389 388
3 379 380 390
3 379 390 391
3 383 379 391
3 383 391 392
3 393 383 392
3 383 393 394
3 383 394 382
3 394 393 395
3 394 395 396
3 396 395 388
3 396 388 389
3 395 393 397
3 393 392 397
3 395 397 398
3 388 395 398
3 387 388 399
3 388 398 399
3 382 394 400
3 382 400 401
3 378 382 401
3 378 401 402
3 403 402 401
3 403 401 404
3 396 389 404
3 389 403 404
3 404 401 400
3 381 378 402
3 381 402 405
3 384 381 405
3 384 405 406
3 406 402 403
3 406 405 402
3 396 404 407
3 404 400 407
3 394 407 400
3 394 396 407
3 386 406 403
3 386 384 406
3 389 386 403
3 387 399 408
3 385 387 408
3 385 408 409
3 380 385 409
3 380 409 390
3 410 412 411
3 410 413 412
3 414 413 410
3 414 415 413
3 416 415 414
3 416 417 415
3 418 420 419
3 418 421 420
3 419 420 422
3 421 422 420
3 419 422 423
3 424 421 418
3 424 419 423
3 424 418 419
3 424 425 421
3 421 425 422
3 426 428 427
3 426 429 428
3 427 428 430
3 429 430 428
3 427 430 431
3 432 429 426
3 432 433 429
3 429 433 430
3 432 427 431
3 432 426 427
3 434 436 435
3 434 437 436
3 435 436 438
3 437 438 436
3 435 438 439
3 440 437 434
3 440 441 437
3 437 441 438
3 440 435 439
3 440 434 435
3 442 444 443
3 442 445 444
3 443 444 446
3 445 446 444
3 443 446 447
3 448 445 442
3 448 443 447
3 448 442 443
3 448 449 445
3 445 449 446
3 450 452 451
3 450 453 452
3 451 452 454
3 453 454 452
3 451 454 455
3 456 453 450
3 456 451 455
3 456 450 451
3 456 457 453
3 453 457 454
3 458 460 459
3 458 461 460
3 461 462 460
3 459 460 462
3 461 463 462
3 464 458 459
3 464 461 458
3 464 463 461
3 464 459 465
3 459 462 465
3 466 468 467
3 466 469 468
3 469 470 468
3 467 468 470
3 469 471 470
3 472 466 467
3 472 467 473
3 467 470 473
3 472 469 466
3 472 471 469
3 474 476 475
3 474 477 476
3 477 478 476
3 475 476 478
3 477 479 478
3 480 474 475
3 480 475 481
3 475 478 481
3 480 477 474
3 480 479 477
3 482 484 483
3 482 485 484
3 485 486 484
3 483 484 486
3 485 487 486
3 488 482 483
3 488 485 482
3 488 487 485
3 488 483 489
3 483 486 489
3 490 492 491
3 490 493 492
3 493 494 492
3 491 492 494
3 493 495 494
3 496 490 491
3 496 493 490
3 496 495 493
3 496 491 497
3 491 494 497
3 229 230 498
3 498 230 234
3 498 234 499
3 500 498 499
3 500 501 498
3 502 501 500
3 502 503 501
3 504 502 500
3 504 500 505
3 500 499 505
3 506 501 503
3 501 506 507
3 501 507 508
3 506 509 507
3 506 268 509
3 268 508 509
3 268 501 508
3 498 268 229
3 498 501 268
3 506 503 510
3 506 510 511
3 510 512 511
3 510 513 512
3 514 512 513
3 514 513 515
3 506 511 516
3 506 516 517
3 517 516 518
3 517 518 519
3 517 519 520
3 521 520 519
3 521 522 520
3 522 523 520
3 524 522 521
3 524 525 522
3 522 526 523
3 522 525 526
3 523 526 246
3 523 246 243
3 251 523 243
3 520 527 517
3 520 528 527
3 517 527 529
3 517 529 281
3 281 528 520
3 281 529 528
3 523 281 520
3 523 251 281
3 518 531 530
3 532 530 531
3 532 533 530
3 518 516 531
3 534 536 535
3 534 537 536
3 534 535 538
3 534 538 539
3 540 542 541
3 540 543 542
3 544 543 540
3 544 540 545
3 235 544 545
3 235 228 544
3 546 543 544
3 546 547 543
3 547 542 543
3 548 541 542
3 548 549 541
3 540 549 545
3 540 541 549
3 241 549 548
3 241 548 242
3 547 550 542
3 551 542 550
3 551 548 542
3 552 554 553
3 555 557 556
3 555 558 557
3 559 561 560
3 559 562 561
3 560 563 559
3 560 564 563
3 565 567 566
3 565 568 567
3 565 569 568
3 565 570 569
3 562 571 561
3 562 572 571
3 573 575 574
3 573 576 575
3 577 575 576
3 577 578 575
3 579 577 576
3 579 576 573
3 580 573 581
3 580 579 573
3 578 574 575
3 578 582 574
3 582 583 574
3 582 584 583
3 584 585 583
3 584 586 585
3 587 589 588
3 587 590 589
3 591 589 590
3 591 592 589
3 593 591 590
3 593 590 587
3 586 587 585
3 586 593 587
3 592 588 589
3 592 594 588
3 594 595 588
3 594 596 595
3 596 581 595
3 596 580 581
3 597 599 598
3 597 600 599
3 601 597 598
3 601 598 602
3 603 601 602
3 603 604 601
3 605 607 606
3 605 608 607
3 607 608 609
3 607 609 610
3 607 611 606
3 607 610 611
3 612 610 609
3 612 611 610
3 600 606 599
3 600 605 606
3 613 615 614
3 613 616 615
3 613 617 616
3 613 618 617
3 618 619 617
3 618 620 619
3 224 544 228
3 224 546 544
3 621 623 622
3 624 626 625
3 624 627 626
3 539 629 628
3 539 538 629
3 630 632 631
3 630 633 632
3 633 630 634
3 633 634 635
3 636 638 637
3 636 639 638
3 636 637 640
3 636 640 641
3 631 643 642
3 631 632 643
3 644 646 645
3 644 647 646
3 648 645 646
3 648 646 649
3 650 645 648
3 650 644 645
3 651 644 650
3 651 652 644
3 649 647 653
3 649 646 647
3 653 647 654
3 653 654 655
3 655 654 656
3 655 656 657
3 658 660 659
3 658 661 660
3 662 659 660
3 662 660 663
3 664 659 662
3 664 658 659
3 657 658 664
3 657 656 658
3 663 661 665
3 663 660 661
3 665 661 666
3 665 666 667
3 667 666 652
3 667 652 651
3 668 670 669
3 668 671 670
3 672 671 668
3 672 673 671
3 674 673 672
3 674 672 675
3 669 611 612
3 669 670 611
3 602 674 603
3 602 673 674
3 603 674 675
3 603 675 604
3 258 548 551
3 258 242 548
3 545 241 235
3 545 549 241
3 676 678 677
3 676 679 678
3 680 679 676
3 680 676 677
3 680 681 679
3 680 677 682
3 683 682 677
3 683 677 684
3 685 683 684
3 677 685 684
3 677 678 685
3 685 686 683
3 678 686 685
3 679 687 678
3 679 681 687
3 678 687 686
3 688 690 689
3 688 691 690
3 692 688 689
3 692 693 688
3 694 693 692
3 694 695 693
3 696 690 691
3 696 697 690
3 696 698 697
3 696 699 698
3 699 700 698
3 699 701 700
3 702 704 703
3 702 705 704
3 706 702 703
3 706 707 702
3 703 708 706
3 703 709 708
3 704 709 703
3 708 709 710
3 710 709 711
3 704 711 709
3 710 711 712
3 702 712 705
3 702 710 712
3 708 710 713
3 714 716 715
3 715 716 717
3 715 717 718
3 719 718 717
3 719 720 718
3 715 718 720
3 715 720 721
3 721 714 715
3 721 722 714
3 722 723 714
3 723 716 714
3 722 724 723
3 721 720 719
3 721 719 725
3 716 726 717
3 723 726 716
3 724 727 723
3 723 727 726
3 719 728 725
3 719 729 728
3 730 728 729
3 730 729 731
3 732 730 731
3 732 731 733
3 732 733 734
3 719 734 729
3 732 734 735
3 736 732 735
3 730 736 737
3 730 732 736
3 737 736 738
3 738 736 735
3 737 738 739
3 739 738 740
3 727 741 726
3 727 740 741
3 738 741 740
3 738 735 741
3 735 734 741
3 741 734 742
3 741 742 743
3 734 744 742
3 734 717 744
3 719 717 734
3 726 741 743
3 726 743 745
3 745 742 744
3 745 743 742
3 717 745 744
3 717 726 745
3 746 748 747
3 746 749 748
3 747 750 746
3 747 751 750
3 750 751 752
3 749 752 748
3 750 752 753
3 749 753 752
3 754 700 701
3 754 755 700
3 756 755 754
3 756 754 757
3 758 756 757
3 758 757 759
3 760 762 761
3 760 763 762
3 729 733 731
3 729 734 733
3 764 766 765
3 764 767 766
3 768 767 764
3 768 769 767
3 769 766 767
3 769 770 766
3 770 765 766
3 770 771 765
3 771 764 765
3 771 768 764
3 772 774 773
3 772 775 774
3 776 775 772
3 776 777 775
3 777 774 775
3 777 778 774
3 778 773 774
3 778 779 773
3 779 772 773
3 779 776 772
3 780 782 781
3 780 783 782
3 783 784 782
3 783 785 784
3 785 786 784
3 785 787 786
3 784 788 782
3 788 789 782
3 788 790 789
3 780 791 783
3 780 792 791
3 783 793 785
3 783 791 793
3 785 794 787
3 785 793 794
3 795 789 790
3 795 796 789
3 795 790 797
3 798 795 797
3 798 799 795
3 799 798 800
3 799 800 801
3 801 795 799
3 801 802 795
3 790 803 797
3 804 789 796
3 804 796 805
3 806 804 805
3 806 807 804
3 804 807 808
3 804 808 809
3 806 805 810
3 811 810 805
3 811 812 810
3 813 812 811
3 813 814 812
3 815 814 813
3 807 814 815
3 807 806 814
3 807 815 816
3 807 816 808
3 809 808 816
3 809 816 817
3 815 817 816
3 815 813 817
3 818 809 817
3 809 818 819
3 819 818 790
3 819 790 788
3 819 788 784
3 819 784 786
3 781 819 786
3 781 809 819
3 787 781 786
3 787 780 781
3 787 792 780
3 787 794 792
3 818 803 790
3 818 820 803
3 820 797 803
3 820 821 797
3 821 820 818
3 821 818 817
3 798 797 821
3 798 821 800
3 800 821 802
3 800 802 801
3 821 817 802
3 817 813 802
3 781 804 809
3 822 824 823
3 822 825 824
3 826 828 827
3 826 829 828
3 830 832 831
3 830 833 832
3 834 830 831
3 834 835 830
3 836 838 837
3 836 839 838
3 840 842 841
3 840 843 842
3 843 844 842
3 843 845 844
3 845 846 844
3 845 847 846
3 847 843 840
3 847 845 843
3 841 844 846
3 841 842 844
3 848 850 849
3 848 851 850
3 851 852 850
3 851 853 852
3 853 854 852
3 853 855 854
3 855 851 848
3 855 853 851
3 849 852 854
3 849 850 852
3 856 858 857
3 856 859 858
3 857 858 860
3 857 860 861
3 862 859 856
3 862 863 859
3 859 860 858
3 859 863 860
3 863 861 860
3 863 862 861
3 864 866 865
3 864 867 866
3 865 866 868
3 865 868 869
3 870 867 864
3 870 871 867
3 867 868 866
3 867 871 868
3 871 869 868
3 871 870 869
