ply
format ascii 1.0
element vertex 882
property float x
property float y
property float z
property uchar red
property uchar green
property uchar blue
element face 1090
property list uchar int vertex_index
end_header
0.20202 -0.39833 0 167 198 147
0.20202 -0.39833 0.14637 167 198 147
0.54493 -0.39827 0.14637 167 198 147
0.54493 -0.39827 0 167 198 147
0.17211 -0.36182 0 167 198 147
0.57482 -0.36175 1.19209E-09 167 198 147
0.57471 0.25629 0 167 198 147
0.172 0.25622 1.19209E-09 167 198 147
0.57482 -0.36175 0.14637 167 198 147
0.17211 -0.36182 0.14637 167 198 147
0.17208 -0.17662 0.14637 167 198 147
0.172 0.25622 0.14637 167 198 147
0.1721 -0.29412 0.50677 167 198 147
0.57481 -0.29405 0.50677 167 198 147
0.57481 -0.29405 0.65119 167 198 147
0.1721 -0.29412 0.65119 167 198 147
0.57479 -0.17655 1.06015 167 198 147
0.17208 -0.17662 1.06015 167 198 147
0.17202 0.13872 0.65119 167 198 147
0.172 0.25622 1.06015 167 198 147
0.17202 0.13872 0.50677 167 198 147
0.57479 -0.17655 0.14637 167 198 147
0.53988 -0.13904 1.11676 167 198 147
0.20697 -0.1391 1.11676 167 198 147
0.53997 0.25533 1.11676 167 198 147
0.20706 0.25527 1.11676 167 198 147
0.57471 0.25629 1.06015 167 198 147
0.21002 0.30172 1.06021 167 198 147
0.20997 0.18515 0.64463 167 198 147
0.53672 0.18522 0.64467 167 198 147
0.53677 0.3018 1.0603 167 198 147
0.53672 0.18497 0.51408 167 198 147
0.20997 0.1849 0.51413 167 198 147
0.53675 0.30247 0.15369 167 198 147
0.21 0.3024 0.15374 167 198 147
0.53672 0.30363 1.49925E-16 167 198 147
0.20997 0.30357 1.31786E-16 167 198 147
0.57473 0.13879 0.65119 167 198 147
0.57473 0.13879 0.50677 167 198 147
0.57471 0.25629 0.14637 167 198 147
0.57479 -0.17655 0.14637 175 207 154
0.57482 -0.36175 0.14637 175 207 154
0.17211 -0.36182 0.14637 175 207 154
0.17208 -0.17662 0.14637 175 207 154
0.20202 -0.39833 0.14637 175 207 154
0.54493 -0.39827 0.14637 175 207 154
0.60811 -0.18025 2.37472 167 198 147
1.10891 -0.18025 2.37443 167 198 147
1.10865 -0.18025 1.92693 167 198 147
0.60785 -0.18025 1.92722 167 198 147
1.10846 0.2943 1.56399 167 198 147
1.10891 0.2943 2.37443 167 198 147
0.60767 0.2943 1.56428 167 198 147
0.60811 0.2943 2.37472 167 198 147
1.1084 0.23564 1.50116 167 198 147
1.10865 -0.56112 1.92693 167 198 147
1.1084 -0.56112 1.50116 167 198 147
1.06305 -0.13675 2.44602 167 198 147
0.65406 -0.13675 2.44626 167 198 147
1.06305 0.2508 2.44602 167 198 147
0.65406 0.2508 2.44626 167 198 147
1.10871 -0.98177 2.02755 167 198 147
1.10871 -0.56112 2.02755 167 198 147
1.10834 -0.98177 1.40054 167 198 147
1.06646 -1.03689 1.4513 167 198 147
1.06677 -1.03689 1.97684 167 198 147
0.64948 -1.03689 1.45155 167 198 147
0.64979 -1.03689 1.97708 167 198 147
0.60791 -0.98177 2.02785 167 198 147
1.10834 -0.56112 1.40054 167 198 147
0.60785 -0.56112 1.92722 167 198 147
0.85831 -0.56112 2.0277 167 198 147
0.52923 -0.56112 2.10836 167 198 147
0.49268 -0.56112 2.07249 167 198 147
0.49251 -0.56112 1.77028 167 198 147
0.60776 -0.56112 1.77022 167 198 147
0.85836 -0.56112 2.10817 167 198 147
0.85831 -0.79901 2.0277 167 198 147
0.85836 -0.79901 2.10817 167 198 147
0.60791 -0.79901 2.02785 167 198 147
0.52923 -0.79901 2.10836 167 198 147
0.49268 -0.79901 2.07249 167 198 147
0.49251 -0.79901 1.77028 167 198 147
0.60776 -0.79901 1.77022 167 198 147
0.6076 -0.56112 1.50146 167 198 147
0.6076 0.23564 1.50146 167 198 147
0.60754 -0.56112 1.40083 167 198 147
0.60754 -0.98177 1.40083 167 198 147
0.65406 0.2508 2.44626 175 207 154
1.06305 0.2508 2.44602 175 207 154
1.06305 -0.13675 2.44602 175 207 154
0.65406 -0.13675 2.44626 175 207 154
1.10865 -0.18025 1.92693 175 207 154
1.10865 -0.56112 1.92693 175 207 154
0.60785 -0.56112 1.92722 175 207 154
0.60785 -0.18025 1.92722 175 207 154
0.85831 -0.79901 2.0277 175 207 154
0.85831 -0.56112 2.0277 175 207 154
1.10871 -0.56112 2.02755 175 207 154
1.10871 -0.98177 2.02755 175 207 154
0.60791 -0.98177 2.02785 175 207 154
0.60791 -0.79901 2.02785 175 207 154
0.52923 -0.79901 2.10836 175 207 154
0.52923 -0.56112 2.10836 175 207 154
0.85836 -0.56112 2.10817 175 207 154
0.85836 -0.79901 2.10817 175 207 154
1.10135 -0.46966 1.67309 128 176 211
1.12466 -0.46966 1.67309 128 176 211
1.12461 -0.46966 1.59431 128 176 211
1.1013 -0.46966 1.59431 128 176 211
1.12461 -0.09651 1.59431 128 176 211
1.12466 -0.09651 1.67309 128 176 211
1.1013 -0.09651 1.59431 128 176 211
1.10135 -0.09651 1.67309 128 176 211
1.10153 -0.46966 1.83251 128 176 211
1.12484 -0.46966 1.8325 128 176 211
1.12479 -0.46966 1.75175 128 176 211
1.10148 -0.46966 1.75176 128 176 211
1.12479 -0.09651 1.75175 128 176 211
1.12484 -0.09651 1.8325 128 176 211
1.10148 -0.09651 1.75176 128 176 211
1.10153 -0.09651 1.83251 128 176 211
1.10154 -0.06241 1.92914 128 176 211
1.12486 -0.06241 1.92913 128 176 211
1.12486 0.01652 1.92913 128 176 211
1.10154 0.01652 1.92914 128 176 211
1.12503 0.01652 2.22654 128 176 211
1.10172 0.01652 2.22655 128 176 211
1.10172 -0.06241 2.22655 128 176 211
1.12503 -0.06241 2.22654 128 176 211
1.10154 0.09996 1.92914 128 176 211
1.12486 0.09996 1.92913 128 176 211
1.12486 0.17889 1.92913 128 176 211
1.10154 0.17889 1.92914 128 176 211
1.12503 0.17889 2.22654 128 176 211
1.10172 0.17889 2.22655 128 176 211
1.10172 0.09996 2.22655 128 176 211
1.12503 0.09996 2.22654 128 176 211
-0.20202 -0.39833 0 167 198 147
-0.54493 -0.39827 0 167 198 147
-0.54493 -0.39827 0.14637 167 198 147
-0.20202 -0.39833 0.14637 167 198 147
-0.17211 -0.36182 0 167 198 147
-0.57482 -0.36175 1.19209E-09 167 198 147
-0.57471 0.25629 0 167 198 147
-0.172 0.25622 1.19209E-09 167 198 147
-0.57482 -0.36175 0.14637 167 198 147
-0.17211 -0.36182 0.14637 167 198 147
-0.17208 -0.17662 0.14637 167 198 147
-0.172 0.25622 0.14637 167 198 147
-0.1721 -0.29412 0.50677 167 198 147
-0.57481 -0.29405 0.50677 167 198 147
-0.57481 -0.29405 0.65119 167 198 147
-0.1721 -0.29412 0.65119 167 198 147
-0.57479 -0.17655 1.06015 167 198 147
-0.17208 -0.17662 1.06015 167 198 147
-0.17202 0.13872 0.65119 167 198 147
-0.172 0.25622 1.06015 167 198 147
-0.17202 0.13872 0.50677 167 198 147
-0.57479 -0.17655 0.14637 167 198 147
-0.53988 -0.13904 1.11676 167 198 147
-0.20697 -0.1391 1.11676 167 198 147
-0.53997 0.25533 1.11676 167 198 147
-0.20706 0.25527 1.11676 167 198 147
-0.57471 0.25629 1.06015 167 198 147
-0.21002 0.30172 1.06021 167 198 147
-0.53677 0.3018 1.0603 167 198 147
-0.53672 0.18522 0.64467 167 198 147
-0.20997 0.18515 0.64463 167 198 147
-0.53672 0.18497 0.51408 167 198 147
-0.20997 0.1849 0.51413 167 198 147
-0.53675 0.30247 0.15369 167 198 147
-0.21 0.3024 0.15374 167 198 147
-0.53672 0.30363 1.49925E-16 167 198 147
-0.20997 0.30357 1.31786E-16 167 198 147
-0.57473 0.13879 0.65119 167 198 147
-0.57473 0.13879 0.50677 167 198 147
-0.57471 0.25629 0.14637 167 198 147
-0.57479 -0.17655 0.14637 175 207 154
-0.17208 -0.17662 0.14637 175 207 154
-0.17211 -0.36182 0.14637 175 207 154
-0.57482 -0.36175 0.14637 175 207 154
-0.20202 -0.39833 0.14637 175 207 154
-0.54493 -0.39827 0.14637 175 207 154
0.39107 -0.77225 2.37666 175 207 154
0.34972 -0.75786 2.37666 175 207 154
0.34954 -0.51395 2.37666 175 207 154
0.3907 -0.51395 2.37666 175 207 154
0.32734 -0.82411 2.37666 175 207 154
0.31167 -0.78413 2.37666 175 207 154
-0.32734 -0.82411 2.37666 175 207 154
-0.31167 -0.78413 2.37666 175 207 154
-0.34972 -0.75786 2.37666 175 207 154
-0.39107 -0.77225 2.37666 175 207 154
-0.34954 -0.51395 2.37666 175 207 154
-0.3907 -0.51395 2.37666 175 207 154
0.31167 -0.82217 2.52662 167 198 147
0 -0.86215 2.52662 167 198 147
0.32729 -0.86215 2.52662 167 198 147
0.39107 -0.81029 2.52662 167 198 147
0.34972 -0.7959 2.52662 167 198 147
0.39107 -0.81029 2.65483 167 198 147
0.32725 -0.86215 2.65483 167 198 147
0.29956 -0.81997 2.69671 167 198 147
0.34009 -0.78065 2.69671 167 198 147
0.04934 -0.86215 2.53946 167 198 147
0.04934 -0.86215 2.58781 167 198 147
0 -0.86215 2.65483 167 198 147
0.02467 -0.86215 2.58781 167 198 147
0 -0.86215 2.58781 167 198 147
-0.02467 -0.86215 2.58781 167 198 147
0 -0.86215 2.53946 167 198 147
-0.02467 -0.86215 2.53946 167 198 147
0.02467 -0.86215 2.53946 167 198 147
-0.04934 -0.86215 2.58781 167 198 147
-0.32725 -0.86215 2.65483 167 198 147
-0.29956 -0.81997 2.69671 167 198 147
-0.39107 -0.81029 2.65483 167 198 147
-0.32729 -0.86215 2.52662 167 198 147
-0.39107 -0.81029 2.52662 167 198 147
-0.31167 -0.82217 2.52662 167 198 147
-0.34972 -0.7959 2.52662 167 198 147
-0.34009 -0.78065 2.69671 167 198 147
-0.04934 -0.86215 2.53946 167 198 147
0.3907 -0.51395 2.37666 167 198 147
0.34954 -0.51395 2.37666 167 198 147
0.34954 -0.51395 2.52662 167 198 147
0.3907 -0.51395 2.52662 167 198 147
0.3907 0.09152 2.30588 167 198 147
0.3907 -0.51395 2.65483 167 198 147
0.3907 0.09152 2.88557 167 198 147
0.32748 0.14136 2.30588 167 198 147
0.32748 0.14136 2.88557 167 198 147
0.28737 0.09439 2.94311 167 198 147
0.3404 0.05055 2.94311 167 198 147
0.34038 0.04977 2.25882 167 198 147
0.28798 0.09351 2.25882 167 198 147
0.20312 0.09439 2.94311 167 198 147
0.20316 0.14136 2.88557 167 198 147
-0.32748 0.14136 2.30588 167 198 147
-0.28798 0.09351 2.25882 167 198 147
-0.34038 0.04977 2.25882 167 198 147
-0.3907 0.09152 2.30588 167 198 147
-0.3907 0.09152 2.88557 167 198 147
-0.32748 0.14136 2.88557 167 198 147
-0.28737 0.09439 2.94311 167 198 147
-0.3404 0.05055 2.94311 167 198 147
-0.20312 0.09439 2.94311 167 198 147
-0.20316 0.14136 2.88557 167 198 147
-0.20322 0.14136 2.71308 167 198 147
-0.3907 -0.51395 2.52662 167 198 147
-0.3907 -0.51395 2.65483 167 198 147
-0.13768 0.14136 2.71308 167 198 147
-0.03855 0.14136 2.71308 167 198 147
-0.13768 0.14136 2.88557 167 198 147
-0.03868 0.14136 2.88557 167 198 147
-0.13783 0.09439 2.94311 167 198 147
-0.03851 0.09439 2.94311 167 198 147
-0.3907 -0.51395 2.37666 167 198 147
-0.34954 -0.51395 2.52662 167 198 147
-0.34954 -0.51395 2.37666 167 198 147
0.03855 0.14136 2.71308 167 198 147
0.13768 0.14136 2.71308 167 198 147
0.13768 0.14136 2.88557 167 198 147
0.03868 0.14136 2.88557 167 198 147
0.13783 0.09439 2.94311 167 198 147
0.03851 0.09439 2.94311 167 198 147
0.20322 0.14136 2.71308 167 198 147
0.34018 -0.56379 2.69671 167 198 147
-0.34972 -0.7959 2.52662 140 81 116
-0.31167 -0.82217 2.52662 140 81 116
0.31167 -0.82217 2.52662 140 81 116
0.34972 -0.7959 2.52662 140 81 116
0.34954 -0.51395 2.37666 140 81 116
-0.34954 -0.51395 2.37666 140 81 116
-0.34954 -0.51395 2.52662 140 81 116
0.34954 -0.51395 2.52662 140 81 116
-0.34972 -0.75786 2.37666 140 81 116
0.34972 -0.75786 2.37666 140 81 116
0.31167 -0.78413 2.37666 140 81 116
-0.31167 -0.78413 2.37666 140 81 116
-0.34018 -0.56379 2.69671 167 198 147
-0.27436 -0.70148 2.36934 161 137 161
-0.27436 -0.70148 2.45217 161 137 161
0.27436 -0.70148 2.45217 161 137 161
0.27436 -0.70148 2.36934 161 137 161
0.27436 -0.50869 2.45217 161 137 161
-0.27436 -0.50869 2.45217 161 137 161
0.27436 -0.50869 2.36934 161 137 161
-0.27436 -0.50869 2.36934 161 137 161
0.25105 -0.79544 2.37441 255 255 255
0.25105 -0.79544 2.43283 255 255 255
0.30984 -0.79544 2.43283 255 255 255
0.30984 -0.79544 2.37441 255 255 255
0.30984 -0.7291 2.43283 255 255 255
0.25105 -0.7291 2.43283 255 255 255
0.30984 -0.7291 2.37441 255 255 255
0.25105 -0.7291 2.37441 255 255 255
0.24075 -0.84021 2.53128 255 255 255
0.24075 -0.84021 2.47285 255 255 255
0.18016 -0.84021 2.47285 255 255 255
0.18016 -0.84021 2.53128 255 255 255
0.18016 -0.77387 2.47285 255 255 255
0.24075 -0.77387 2.47285 255 255 255
0.18016 -0.77387 2.53128 255 255 255
0.24075 -0.77387 2.53128 255 255 255
-0.25105 -0.79544 2.37441 255 255 255
-0.30984 -0.79544 2.37441 255 255 255
-0.30984 -0.79544 2.43283 255 255 255
-0.25105 -0.79544 2.43283 255 255 255
-0.30984 -0.7291 2.43283 255 255 255
-0.25105 -0.7291 2.43283 255 255 255
-0.30984 -0.7291 2.37441 255 255 255
-0.25105 -0.7291 2.37441 255 255 255
-0.24075 -0.84021 2.53128 255 255 255
-0.18016 -0.84021 2.53128 255 255 255
-0.18016 -0.84021 2.47285 255 255 255
-0.24075 -0.84021 2.47285 255 255 255
-0.18016 -0.77387 2.47285 255 255 255
-0.24075 -0.77387 2.47285 255 255 255
-0.18016 -0.77387 2.53128 255 255 255
-0.24075 -0.77387 2.53128 255 255 255
0.18277 -0.55335 2.708 22 37 42
0.18277 -0.55335 2.71792 22 37 42
0.22768 -0.55335 2.71792 22 37 42
0.22768 -0.55335 2.708 22 37 42
0.22768 -0.55335 2.7907 22 37 42
0.18277 -0.55335 2.7907 22 37 42
0.27293 -0.55335 2.71792 76 125 145
0.27293 -0.55335 2.81591 76 125 145
0.27293 -0.54139 2.81591 76 125 145
0.27293 -0.54139 2.69023 76 125 145
0.22768 -0.55335 2.71792 76 125 145
0.22768 -0.55335 2.7907 76 125 145
0.27293 -0.55335 2.69023 76 125 145
0.11199 -0.55335 2.71792 167 198 147
0.11199 -0.55335 2.69023 167 198 147
0.11199 -0.54139 2.69023 167 198 147
0.11199 -0.54139 2.81591 167 198 147
0.11199 -0.55335 2.81591 167 198 147
0.27293 -0.55335 2.81591 167 198 147
0.18277 -0.55335 2.7907 167 198 147
0.22768 -0.55335 2.7907 167 198 147
0.11199 -0.55335 2.69023 88 145 169
0.18277 -0.55335 2.708 88 145 169
0.22768 -0.55335 2.708 88 145 169
0.27293 -0.55335 2.69023 88 145 169
0.22768 -0.55335 2.71792 88 145 169
0.27293 -0.55335 2.71792 88 145 169
0.18277 -0.55335 2.71792 88 145 169
0.11199 -0.55335 2.71792 88 145 169
0.11199 -0.55335 2.81591 76 125 145
0.18277 -0.55335 2.7907 76 125 145
0.18277 -0.55335 2.71792 76 125 145
0.11199 -0.55335 2.71792 76 125 145
-0.18277 -0.55335 2.708 22 37 42
-0.22768 -0.55335 2.708 22 37 42
-0.22768 -0.55335 2.71792 22 37 42
-0.18277 -0.55335 2.71792 22 37 42
-0.18277 -0.55335 2.7907 22 37 42
-0.22768 -0.55335 2.7907 22 37 42
-0.27293 -0.55335 2.69023 76 125 145
-0.27293 -0.54139 2.69023 76 125 145
-0.27293 -0.55335 2.71792 76 125 145
-0.27293 -0.55335 2.81591 76 125 145
-0.22768 -0.55335 2.7907 76 125 145
-0.22768 -0.55335 2.71792 76 125 145
-0.27293 -0.54139 2.81591 76 125 145
-0.11199 -0.54139 2.81591 167 198 147
-0.11199 -0.54139 2.69023 167 198 147
-0.11199 -0.55335 2.69023 167 198 147
-0.11199 -0.55335 2.71792 167 198 147
-0.11199 -0.55335 2.81591 167 198 147
-0.27293 -0.55335 2.81591 167 198 147
-0.18277 -0.55335 2.7907 167 198 147
-0.22768 -0.55335 2.7907 167 198 147
-0.11199 -0.55335 2.69023 88 145 169
-0.27293 -0.55335 2.69023 88 145 169
-0.22768 -0.55335 2.708 88 145 169
-0.18277 -0.55335 2.708 88 145 169
-0.22768 -0.55335 2.71792 88 145 169
-0.27293 -0.55335 2.71792 88 145 169
-0.11199 -0.55335 2.71792 88 145 169
-0.18277 -0.55335 2.71792 88 145 169
-0.11199 -0.55335 2.81591 76 125 145
-0.11199 -0.55335 2.71792 76 125 145
-0.18277 -0.55335 2.71792 76 125 145
-0.18277 -0.55335 2.7907 76 125 145
-0.78248 -0.2568 1.57242 167 198 147
-0.78248 -0.2568 2.48293 167 198 147
-0.72187 -0.32711 2.48293 167 198 147
-0.72187 -0.32711 1.57242 167 198 147
-0.78248 0.44324 1.57242 167 198 147
-0.78248 0.44324 2.48293 167 198 147
0.72187 -0.32711 1.57242 167 198 147
0.72187 -0.32711 2.48293 167 198 147
0.78248 -0.2568 1.57242 167 198 147
0.78248 -0.2568 2.48293 167 198 147
0.78248 0.44324 2.48293 167 198 147
0.78248 0.44324 1.57242 167 198 147
-0.68181 -0.28507 2.54882 167 198 147
-0.73905 -0.2218 2.54882 167 198 147
-0.73905 0.40824 2.54882 167 198 147
-0.72187 0.51354 2.48293 167 198 147
-0.72187 0.51354 1.57242 167 198 147
0.72187 0.51354 2.48293 167 198 147
0.72187 0.51354 1.57242 167 198 147
-0.68181 0.47151 2.54882 167 198 147
0.68181 0.47151 2.54882 167 198 147
0.73905 0.40824 2.54882 167 198 147
-0.68181 0.47151 1.50654 167 198 147
-0.73905 0.40824 1.50654 167 198 147
-0.73905 -0.2218 1.50654 167 198 147
0.73905 -0.2218 1.50654 167 198 147
0.73905 0.40824 1.50654 167 198 147
-0.68181 -0.28507 1.50654 167 198 147
0.68181 -0.28507 1.50654 167 198 147
0.68181 0.47151 1.50654 167 198 147
0.73905 -0.2218 2.54882 167 198 147
0.68181 -0.28507 2.54882 167 198 147
0.73905 -0.2218 2.54882 175 207 154
0.68181 -0.28507 2.54882 175 207 154
-0.68181 -0.28507 2.54882 175 207 154
-0.73905 -0.2218 2.54882 175 207 154
0.73905 0.40824 2.54882 175 207 154
-0.73905 0.40824 2.54882 175 207 154
0.68181 0.47151 2.54882 175 207 154
-0.68181 0.47151 2.54882 175 207 154
0.49295 0.42885 1.2621 195 185 122
0.49295 0.42885 1.402 195 185 122
0.35082 0.42885 1.402 195 185 122
0.35082 0.42885 1.2621 195 185 122
0.35082 0.39004 1.402 195 185 122
0.49295 0.39004 1.402 195 185 122
0.49295 0.39004 1.2621 195 185 122
0.35082 0.39004 1.2621 195 185 122
0.61682 0.17412 1.2621 195 185 122
0.61682 0.17412 1.402 195 185 122
0.61682 0.30605 1.402 195 185 122
0.61682 0.30605 1.2621 195 185 122
0.57801 0.30605 1.402 195 185 122
0.57801 0.17412 1.402 195 185 122
0.57801 0.17412 1.2621 195 185 122
0.57801 0.30605 1.2621 195 185 122
0.61682 -0.1314 1.2621 195 185 122
0.61682 -0.1314 1.402 195 185 122
0.61682 0.00675 1.402 195 185 122
0.61682 0.00675 1.2621 195 185 122
0.57801 0.00675 1.402 195 185 122
0.57801 -0.1314 1.402 195 185 122
0.57801 -0.1314 1.2621 195 185 122
0.57801 0.00675 1.2621 195 185 122
0.21037 0.42885 1.2621 195 185 122
0.21037 0.42885 1.402 195 185 122
0.06992 0.42885 1.402 195 185 122
0.06992 0.42885 1.2621 195 185 122
0.06992 0.39004 1.402 195 185 122
0.21037 0.39004 1.402 195 185 122
0.21037 0.39004 1.2621 195 185 122
0.06992 0.39004 1.2621 195 185 122
0.3393 -0.24405 1.2621 195 185 122
0.3393 -0.24405 1.402 195 185 122
0.48034 -0.24405 1.402 195 185 122
0.48034 -0.24405 1.2621 195 185 122
0.48034 -0.20524 1.402 195 185 122
0.3393 -0.20524 1.402 195 185 122
0.3393 -0.20524 1.2621 195 185 122
0.48034 -0.20524 1.2621 195 185 122
-0.49152 0.42885 1.2621 195 185 122
-0.35226 0.42885 1.2621 195 185 122
-0.35226 0.42885 1.402 195 185 122
-0.49152 0.42885 1.402 195 185 122
-0.35226 0.39004 1.402 195 185 122
-0.49152 0.39004 1.402 195 185 122
-0.49152 0.39004 1.2621 195 185 122
-0.35226 0.39004 1.2621 195 185 122
-0.61682 0.17412 1.2621 195 185 122
-0.61682 0.30605 1.2621 195 185 122
-0.61682 0.30605 1.402 195 185 122
-0.61682 0.17412 1.402 195 185 122
-0.57801 0.30605 1.402 195 185 122
-0.57801 0.17412 1.402 195 185 122
-0.57801 0.17412 1.2621 195 185 122
-0.57801 0.30605 1.2621 195 185 122
-0.61682 -0.1314 1.2621 195 185 122
-0.61682 0.00675 1.2621 195 185 122
-0.61682 0.00675 1.402 195 185 122
-0.61682 -0.1314 1.402 195 185 122
-0.57801 0.00675 1.402 195 185 122
-0.57801 -0.1314 1.402 195 185 122
-0.57801 -0.1314 1.2621 195 185 122
-0.57801 0.00675 1.2621 195 185 122
-0.21065 0.42885 1.2621 195 185 122
-0.06964 0.42885 1.2621 195 185 122
-0.06964 0.42885 1.402 195 185 122
-0.21065 0.42885 1.402 195 185 122
-0.06964 0.39004 1.402 195 185 122
-0.21065 0.39004 1.402 195 185 122
-0.21065 0.39004 1.2621 195 185 122
-0.06964 0.39004 1.2621 195 185 122
-0.34205 -0.24405 1.2621 195 185 122
-0.47759 -0.24405 1.2621 195 185 122
-0.47759 -0.24405 1.402 195 185 122
-0.34205 -0.24405 1.402 195 185 122
-0.47759 -0.20524 1.402 195 185 122
-0.34205 -0.20524 1.402 195 185 122
-0.34205 -0.20524 1.2621 195 185 122
-0.47759 -0.20524 1.2621 195 185 122
0.3907 -0.51395 2.88557 167 198 147
0.3404 -0.47297 2.94311 167 198 147
0.34018 -0.56379 2.88557 167 198 147
0.34018 -0.56379 2.86012 167 198 147
0.2032 -0.56379 2.88557 167 198 147
0.20329 -0.56379 2.79103 167 198 147
0.2032 -0.51682 2.94311 167 198 147
0.30006 -0.51682 2.94311 167 198 147
0.13925 -0.56379 2.69671 167 198 147
0.13925 -0.54516 2.69671 167 198 147
0.34018 -0.54516 2.86012 167 198 147
0.34018 -0.54516 2.69671 167 198 147
0.13764 -0.56379 2.79107 167 198 147
0.03867 -0.56379 2.79098 167 198 147
0.03871 -0.56379 2.88557 167 198 147
0.13772 -0.56379 2.88557 167 198 147
0.03859 -0.51682 2.94311 167 198 147
0.13783 -0.51682 2.94311 167 198 147
-0.03867 -0.56379 2.79098 167 198 147
-0.13925 -0.56379 2.69671 167 198 147
-0.13764 -0.56379 2.79107 167 198 147
-0.20329 -0.56379 2.79103 167 198 147
-0.34018 -0.56379 2.86012 167 198 147
-0.2032 -0.56379 2.88557 167 198 147
-0.34018 -0.56379 2.88557 167 198 147
-0.3907 -0.51395 2.88557 167 198 147
-0.2032 -0.51682 2.94311 167 198 147
-0.30006 -0.51682 2.94311 167 198 147
-0.3404 -0.47297 2.94311 167 198 147
-0.13925 -0.54516 2.69671 167 198 147
-0.34018 -0.54516 2.86012 167 198 147
-0.34018 -0.54516 2.69671 167 198 147
-0.13772 -0.56379 2.88557 167 198 147
-0.03871 -0.56379 2.88557 167 198 147
-0.03859 -0.51682 2.94311 167 198 147
-0.13783 -0.51682 2.94311 167 198 147
0.03851 0.20414 3.0713 208 195 135
-0.03851 0.20414 3.0713 208 195 135
-0.03868 0.25526 3.01312 208 195 135
0.03868 0.25526 3.01312 208 195 135
-0.03859 -0.60462 3.0713 208 195 135
0.03859 -0.60462 3.0713 208 195 135
0.30645 -0.77254 2.2588 167 198 147
-0.30645 -0.77254 2.2588 167 198 147
-0.32738 -0.82411 2.30619 167 198 147
0.32738 -0.82411 2.30619 167 198 147
0.39107 -0.77225 2.3062 167 198 147
0.34022 -0.74242 2.2588 167 198 147
0.39107 -0.77225 2.37666 167 198 147
0.32734 -0.82411 2.37666 167 198 147
-0.39107 -0.77225 2.3062 167 198 147
-0.34022 -0.74242 2.2588 167 198 147
-0.32734 -0.82411 2.37666 167 198 147
-0.39107 -0.77225 2.37666 167 198 147
0.34018 -0.54516 2.86012 255 255 255
0.34018 -0.54516 2.69671 255 255 255
0.13925 -0.54516 2.69671 255 255 255
0.13783 -0.51682 2.94311 175 207 154
0.03859 -0.51682 2.94311 175 207 154
0.03851 0.09439 2.94311 175 207 154
0.13783 0.09439 2.94311 175 207 154
0.2032 -0.57938 3.03469 208 195 135
0.13783 -0.57938 3.03469 208 195 135
0.13783 0.16967 3.03469 208 195 135
0.20312 0.16967 3.03469 208 195 135
0.2032 -0.62531 2.99917 208 195 135
0.13772 -0.62531 2.99917 208 195 135
0.28737 0.09439 2.94311 175 207 154
0.3404 0.05055 2.94311 175 207 154
0.3404 -0.47297 2.94311 175 207 154
0.30006 -0.51682 2.94311 175 207 154
0.2032 -0.51682 2.94311 175 207 154
0.20312 0.09439 2.94311 175 207 154
0.13768 0.22079 2.97651 208 195 135
0.20316 0.22079 2.97651 208 195 135
0.20316 0.22079 2.97651 201 188 128
0.13768 0.22079 2.97651 201 188 128
0.13768 0.22079 2.71308 201 188 128
0.20322 0.22079 2.71308 201 188 128
0.20322 0.14136 2.71308 201 188 128
0.13768 0.14136 2.71308 201 188 128
0.20316 0.14136 2.88557 201 188 128
0.20312 0.09439 2.94311 201 188 128
0.20312 0.16967 3.03469 201 188 128
0.13768 0.14136 2.88557 201 188 128
0.13783 0.16967 3.03469 201 188 128
0.13783 0.09439 2.94311 201 188 128
0.13783 -0.57938 3.03469 201 188 128
0.13783 -0.51682 2.94311 201 188 128
0.13772 -0.62531 2.99917 201 188 128
0.2032 -0.62531 2.99917 201 188 128
0.20329 -0.62531 2.79103 201 188 128
0.13764 -0.62531 2.79107 201 188 128
0.13764 -0.56379 2.79107 201 188 128
0.20329 -0.56379 2.79103 201 188 128
0.13772 -0.56379 2.88557 201 188 128
0.2032 -0.56379 2.88557 201 188 128
0.2032 -0.57938 3.03469 201 188 128
0.2032 -0.51682 2.94311 201 188 128
0.03859 -0.51682 2.94311 201 188 128
0.03859 -0.60462 3.0713 201 188 128
0.03851 0.20414 3.0713 201 188 128
0.03851 0.09439 2.94311 201 188 128
0.03871 -0.56379 2.88557 201 188 128
0.03871 -0.65054 3.03578 201 188 128
0.0387 -0.65059 2.79105 201 188 128
0.03867 -0.56379 2.79098 201 188 128
0.03868 0.14136 2.88557 201 188 128
0.03868 0.25526 3.01312 201 188 128
0.03855 0.25526 2.71308 201 188 128
0.03855 0.14136 2.71308 201 188 128
-0.03855 0.14136 2.71308 201 188 128
-0.03855 0.25526 2.71308 201 188 128
-0.03868 0.25526 3.01312 201 188 128
-0.03868 0.14136 2.88557 201 188 128
0.13925 -0.56379 2.69671 175 207 154
0.34018 -0.56379 2.69671 175 207 154
0.34009 -0.78065 2.69671 175 207 154
0.29956 -0.81997 2.69671 175 207 154
-0.29956 -0.81997 2.69671 175 207 154
-0.13925 -0.56379 2.69671 175 207 154
-0.34009 -0.78065 2.69671 175 207 154
-0.34018 -0.56379 2.69671 175 207 154
-0.34018 -0.54516 2.86012 255 255 255
-0.13925 -0.54516 2.69671 255 255 255
-0.34018 -0.54516 2.69671 255 255 255
-0.13783 -0.51682 2.94311 175 207 154
-0.13783 0.09439 2.94311 175 207 154
-0.03851 0.09439 2.94311 175 207 154
-0.03859 -0.51682 2.94311 175 207 154
0.03871 -0.65054 3.03578 208 195 135
-0.03871 -0.65054 3.03578 208 195 135
-0.2032 -0.57938 3.03469 208 195 135
-0.20312 0.16967 3.03469 208 195 135
-0.13783 0.16967 3.03469 208 195 135
-0.13783 -0.57938 3.03469 208 195 135
-0.2032 -0.62531 2.99917 208 195 135
-0.13772 -0.62531 2.99917 208 195 135
-0.28737 0.09439 2.94311 175 207 154
-0.30006 -0.51682 2.94311 175 207 154
-0.3404 -0.47297 2.94311 175 207 154
-0.3404 0.05055 2.94311 175 207 154
-0.2032 -0.51682 2.94311 175 207 154
-0.20312 0.09439 2.94311 175 207 154
-0.20316 0.22079 2.97651 208 195 135
-0.13768 0.22079 2.97651 208 195 135
-0.20316 0.22079 2.97651 201 188 128
-0.20322 0.22079 2.71308 201 188 128
-0.13768 0.22079 2.71308 201 188 128
-0.13768 0.22079 2.97651 201 188 128
-0.20322 0.14136 2.71308 201 188 128
-0.13768 0.14136 2.71308 201 188 128
-0.20316 0.14136 2.88557 201 188 128
-0.20312 0.09439 2.94311 201 188 128
-0.20312 0.16967 3.03469 201 188 128
-0.13768 0.14136 2.88557 201 188 128
-0.13783 0.16967 3.03469 201 188 128
-0.13783 0.09439 2.94311 201 188 128
-0.13783 -0.57938 3.03469 201 188 128
-0.13783 -0.51682 2.94311 201 188 128
-0.13772 -0.62531 2.99917 201 188 128
-0.13764 -0.62531 2.79107 201 188 128
-0.20329 -0.62531 2.79103 201 188 128
-0.2032 -0.62531 2.99917 201 188 128
-0.13764 -0.56379 2.79107 201 188 128
-0.20329 -0.56379 2.79103 201 188 128
-0.13772 -0.56379 2.88557 201 188 128
-0.2032 -0.56379 2.88557 201 188 128
-0.2032 -0.57938 3.03469 201 188 128
-0.2032 -0.51682 2.94311 201 188 128
-0.03859 -0.51682 2.94311 201 188 128
-0.03851 0.09439 2.94311 201 188 128
-0.03851 0.20414 3.0713 201 188 128
-0.03859 -0.60462 3.0713 201 188 128
-0.03871 -0.56379 2.88557 201 188 128
-0.03871 -0.65054 3.03578 201 188 128
-0.0387 -0.65059 2.79105 201 188 128
-0.03867 -0.56379 2.79098 201 188 128
-0.05042 -0.2583 1.36854 120 176 199
-0.05042 -0.2583 1.49183 120 176 199
0.00641 -0.2583 1.4136 120 176 199
0.00641 -0.2583 1.36854 120 176 199
-0.05042 -0.24182 1.36854 120 176 199
0.00641 -0.24182 1.36854 120 176 199
-0.05042 -0.24182 1.49183 120 176 199
0.05777 -0.24182 1.49183 120 176 199
0.05777 -0.2583 1.49183 120 176 199
0.05777 -0.2583 1.4136 120 176 199
0.05777 -0.24182 1.4136 120 176 199
0.00641 -0.24182 1.4136 120 176 199
0.58422 -0.15698 1.15999 71 77 67
0.58422 -0.15698 1.51564 71 77 67
0.58422 0.33845 1.51564 71 77 67
0.58422 0.33845 1.15999 71 77 67
0.52389 -0.21175 1.51564 71 77 67
0.52389 -0.21175 1.15999 71 77 67
0.26195 -0.21175 1.51564 71 77 67
0.26195 -0.21175 1.15999 71 77 67
0.52389 0.39323 1.15999 71 77 67
0.52389 0.39323 1.51564 71 77 67
-0.52389 0.39323 1.51564 71 77 67
-0.52389 0.39323 1.15999 71 77 67
-0.58422 0.33845 1.51564 71 77 67
-0.58422 0.33845 1.15999 71 77 67
0.26195 -0.24827 1.51564 195 185 122
0.26195 -0.24827 1.15999 195 185 122
0.13367 -0.24827 1.23571 195 185 122
0.13367 -0.24827 1.43991 195 185 122
0.26195 -0.21175 1.15999 195 185 122
0.26195 -0.21175 1.51564 195 185 122
-0.26195 -0.21175 1.15999 195 185 122
-0.26195 -0.24827 1.15999 195 185 122
-0.26195 -0.24827 1.51564 195 185 122
-0.13367 -0.24827 1.23571 195 185 122
-0.13367 -0.24827 1.43991 195 185 122
-0.26195 -0.21175 1.51564 195 185 122
0.58422 -0.15698 1.11389 74 96 69
0.58422 0.25034 1.11389 74 96 69
0.15451 0.25034 1.11389 74 96 69
0.15451 0.25034 0.87765 74 96 69
0.58422 0.25034 0.87764 74 96 69
0.52389 0.39323 0.87764 74 96 69
0.58422 0.33845 0.87764 74 96 69
0.58422 0.33845 1.15999 74 96 69
0.58422 -0.15698 1.15999 74 96 69
0.52389 -0.21175 1.11389 74 96 69
0.52389 -0.21175 1.15999 74 96 69
0.52389 0.39323 1.15999 74 96 69
0.15451 -0.21175 1.11389 74 96 69
0.26195 -0.21175 1.15999 74 96 69
-0.52389 0.39323 1.15999 74 96 69
-0.52389 0.39323 0.87764 74 96 69
-0.58422 0.33845 1.15999 74 96 69
-0.58422 0.33845 0.87764 74 96 69
-0.58422 0.25034 1.11389 74 96 69
-0.58422 0.25034 0.87764 74 96 69
-0.15451 0.25034 0.87765 74 96 69
-0.15451 0.25034 1.11389 74 96 69
-0.58422 -0.15698 1.11389 74 96 69
-0.58422 -0.15698 1.15999 74 96 69
-0.52389 -0.21175 1.11389 74 96 69
-0.52389 -0.21175 1.15999 74 96 69
-0.26195 -0.21175 1.15999 74 96 69
-0.15451 -0.21175 1.11389 74 96 69
-0.15451 -0.1836 0.87765 74 96 69
-0.15451 -0.21175 0.90844 74 96 69
0.15451 -0.1836 0.87765 74 96 69
0.15451 -0.21175 0.90844 74 96 69
0.13367 -0.24827 1.23571 166 157 104
0.09221 -0.24827 1.27895 166 157 104
0.09221 -0.24827 1.39668 166 157 104
0.13367 -0.24827 1.43991 166 157 104
-0.13367 -0.24827 1.23571 166 157 104
-0.09221 -0.24827 1.27895 166 157 104
-0.09221 -0.24827 1.39668 166 157 104
-0.13367 -0.24827 1.43991 166 157 104
-0.58422 -0.15698 1.15999 71 77 67
-0.58422 -0.15698 1.51564 71 77 67
-0.52389 -0.21175 1.51564 71 77 67
-0.52389 -0.21175 1.15999 71 77 67
-0.26195 -0.21175 1.51564 71 77 67
-0.26195 -0.21175 1.15999 71 77 67
0.09221 -0.24827 1.39668 195 185 122
0.09221 -0.24827 1.27895 195 185 122
-0.09221 -0.24827 1.27895 195 185 122
-0.09221 -0.24827 1.39668 195 185 122
0.02467 -0.84923 2.58781 133 158 115
0.04934 -0.84923 2.58781 133 158 115
0.04934 -0.84923 2.53946 133 158 115
0.02467 -0.84923 2.53946 133 158 115
0.02467 -0.86215 2.58781 133 158 115
0.02467 -0.86215 2.53946 133 158 115
0.04934 -0.86215 2.53946 133 158 115
0.04934 -0.86215 2.58781 133 158 115
-0.04934 -0.84923 2.53946 133 158 115
-0.04934 -0.84923 2.58781 133 158 115
-0.02467 -0.84923 2.58781 133 158 115
-0.02467 -0.84923 2.53946 133 158 115
-0.04934 -0.86215 2.53946 133 158 115
-0.02467 -0.86215 2.53946 133 158 115
-0.02467 -0.86215 2.58781 133 158 115
-0.04934 -0.86215 2.58781 133 158 115
-0.60811 -0.18025 2.37472 167 198 147
-0.60785 -0.18025 1.92722 167 198 147
-1.10865 -0.18025 1.92693 167 198 147
-1.10891 -0.18025 2.37443 167 198 147
-1.10846 0.2943 1.56399 167 198 147
-1.10891 0.2943 2.37443 167 198 147
-0.60767 0.2943 1.56428 167 198 147
-0.60811 0.2943 2.37472 167 198 147
-1.1084 0.23564 1.50116 167 198 147
-1.10865 -0.56112 1.92693 167 198 147
-1.1084 -0.56112 1.50116 167 198 147
-1.06305 -0.13675 2.44602 167 198 147
-0.65406 -0.13675 2.44626 167 198 147
-1.06305 0.2508 2.44602 167 198 147
-0.65406 0.2508 2.44626 167 198 147
-1.10871 -0.98177 2.02755 167 198 147
-1.10871 -0.56112 2.02755 167 198 147
-1.10834 -0.98177 1.40054 167 198 147
-1.06646 -1.03689 1.4513 167 198 147
-1.06677 -1.03689 1.97684 167 198 147
-0.64948 -1.03689 1.45155 167 198 147
-0.64979 -1.03689 1.97708 167 198 147
-0.60791 -0.98177 2.02785 167 198 147
-1.10834 -0.56112 1.40054 167 198 147
-0.60785 -0.56112 1.92722 167 198 147
-0.85831 -0.56112 2.0277 167 198 147
-0.52923 -0.56112 2.10836 167 198 147
-0.49268 -0.56112 2.07249 167 198 147
-0.49251 -0.56112 1.77028 167 198 147
-0.60776 -0.56112 1.77022 167 198 147
-0.85836 -0.56112 2.10817 167 198 147
-0.85831 -0.79901 2.0277 167 198 147
-0.85836 -0.79901 2.10817 167 198 147
-0.60791 -0.79901 2.02785 167 198 147
-0.52923 -0.79901 2.10836 167 198 147
-0.49268 -0.79901 2.07249 167 198 147
-0.49251 -0.79901 1.77028 167 198 147
-0.60776 -0.79901 1.77022 167 198 147
-0.6076 -0.56112 1.50146 167 198 147
-0.6076 0.23564 1.50146 167 198 147
-0.60754 -0.56112 1.40083 167 198 147
-0.60754 -0.98177 1.40083 167 198 147
-0.65406 0.2508 2.44626 175 207 154
-0.65406 -0.13675 2.44626 175 207 154
-1.06305 -0.13675 2.44602 175 207 154
-1.06305 0.2508 2.44602 175 207 154
-1.10865 -0.18025 1.92693 175 207 154
-0.60785 -0.18025 1.92722 175 207 154
-0.60785 -0.56112 1.92722 175 207 154
-1.10865 -0.56112 1.92693 175 207 154
-0.85831 -0.79901 2.0277 175 207 154
-1.10871 -0.98177 2.02755 175 207 154
-1.10871 -0.56112 2.02755 175 207 154
-0.85831 -0.56112 2.0277 175 207 154
-0.60791 -0.98177 2.02785 175 207 154
-0.60791 -0.79901 2.02785 175 207 154
-0.52923 -0.79901 2.10836 175 207 154
-0.85836 -0.79901 2.10817 175 207 154
-0.85836 -0.56112 2.10817 175 207 154
-0.52923 -0.56112 2.10836 175 207 154
-1.10135 -0.46966 1.67309 128 176 211
-1.1013 -0.46966 1.59431 128 176 211
-1.12461 -0.46966 1.59431 128 176 211
-1.12466 -0.46966 1.67309 128 176 211
-1.12461 -0.09651 1.59431 128 176 211
-1.12466 -0.09651 1.67309 128 176 211
-1.1013 -0.09651 1.59431 128 176 211
-1.10135 -0.09651 1.67309 128 176 211
-1.10153 -0.46966 1.83251 128 176 211
-1.10148 -0.46966 1.75176 128 176 211
-1.12479 -0.46966 1.75175 128 176 211
-1.12484 -0.46966 1.8325 128 176 211
-1.12479 -0.09651 1.75175 128 176 211
-1.12484 -0.09651 1.8325 128 176 211
-1.10148 -0.09651 1.75176 128 176 211
-1.10153 -0.09651 1.83251 128 176 211
-1.10154 -0.06241 1.92914 128 176 211
-1.10154 0.01652 1.92914 128 176 211
-1.12486 0.01652 1.92913 128 176 211
-1.12486 -0.06241 1.92913 128 176 211
-1.12503 0.01652 2.22654 128 176 211
-1.10172 0.01652 2.22655 128 176 211
-1.10172 -0.06241 2.22655 128 176 211
-1.12503 -0.06241 2.22654 128 176 211
-1.10154 0.09996 1.92914 128 176 211
-1.10154 0.17889 1.92914 128 176 211
-1.12486 0.17889 1.92913 128 176 211
-1.12486 0.09996 1.92913 128 176 211
-1.12503 0.17889 2.22654 128 176 211
-1.10172 0.17889 2.22655 128 176 211
-1.10172 0.09996 2.22655 128 176 211
-1.12503 0.09996 2.22654 128 176 211
3 0 2 1
3 0 3 2
3 4 3 0
3 4 5 3
3 5 2 3
3 6 5 4
3 6 4 7
3 5 8 2
3 9 0 1
3 9 4 0
3 10 4 9
3 10 7 4
3 10 11 7
3 11 10 12
3 10 13 12
3 12 13 14
3 12 14 15
3 15 14 16
3 15 16 17
3 18 15 17
3 18 17 19
3 20 15 18
3 20 12 15
3 11 12 20
3 10 21 13
3 17 16 22
3 17 22 23
3 23 22 24
3 16 24 22
3 23 24 25
3 16 26 24
3 27 29 28
3 27 30 29
3 28 29 31
3 28 31 32
3 32 31 33
3 32 33 34
3 34 33 35
3 34 35 36
3 26 29 30
3 26 30 24
3 26 37 29
3 37 31 29
3 14 37 26
3 14 26 16
3 13 37 14
3 13 38 37
3 37 38 31
3 38 33 31
3 21 38 13
3 21 39 38
3 38 39 33
3 39 35 33
3 21 6 39
3 39 6 35
3 6 36 35
3 21 5 6
3 21 8 5
3 6 7 36
3 7 34 36
3 7 11 34
3 11 32 34
3 11 20 32
3 20 28 32
3 20 18 28
3 18 27 28
3 18 19 27
3 27 19 25
3 19 23 25
3 19 17 23
3 30 27 25
3 30 25 24
3 40 42 41
3 40 43 42
3 41 42 44
3 41 44 45
3 46 48 47
3 46 49 48
3 47 48 50
3 47 50 51
3 51 50 52
3 51 52 53
3 50 48 54
3 54 48 55
3 54 55 56
3 46 47 57
3 46 57 58
3 47 59 57
3 47 51 59
3 51 60 59
3 51 53 60
3 61 56 55
3 61 55 62
3 61 63 56
3 64 63 61
3 64 61 65
3 65 66 64
3 65 67 66
3 67 65 61
3 67 61 68
3 56 63 69
3 70 62 55
3 70 71 62
3 72 71 70
3 72 70 73
3 70 74 73
3 70 75 74
3 72 76 71
3 77 71 76
3 77 76 78
3 79 77 78
3 79 78 80
3 81 79 80
3 73 81 80
3 73 80 72
3 73 82 81
3 73 74 82
3 75 82 74
3 75 83 82
3 81 83 79
3 81 82 83
3 84 83 75
3 75 85 84
3 85 56 84
3 85 54 56
3 85 50 54
3 85 52 50
3 49 52 85
3 49 85 75
3 53 52 49
3 53 49 46
3 53 46 58
3 53 58 60
3 84 56 69
3 84 69 86
3 86 69 63
3 86 63 87
3 87 84 86
3 87 83 84
3 64 87 63
3 64 66 87
3 66 68 87
3 66 67 68
3 87 68 83
3 83 68 79
3 49 75 70
3 88 90 89
3 88 91 90
3 92 94 93
3 92 95 94
3 96 98 97
3 96 99 98
3 100 99 96
3 100 96 101
3 102 104 103
3 102 105 104
3 106 108 107
3 106 109 108
3 107 108 110
3 107 110 111
3 111 110 112
3 111 112 113
3 113 107 111
3 113 106 107
3 109 110 108
3 109 112 110
3 114 116 115
3 114 117 116
3 115 116 118
3 115 118 119
3 119 118 120
3 119 120 121
3 121 115 119
3 121 114 115
3 117 118 116
3 117 120 118
3 122 124 123
3 122 125 124
3 125 126 124
3 125 127 126
3 128 122 123
3 128 123 129
3 123 126 129
3 123 124 126
3 129 126 127
3 129 127 128
3 130 132 131
3 130 133 132
3 133 134 132
3 133 135 134
3 136 130 131
3 136 131 137
3 131 134 137
3 131 132 134
3 137 134 135
3 137 135 136
3 138 140 139
3 138 141 140
3 142 138 139
3 142 139 143
3 143 139 140
3 144 142 143
3 144 145 142
3 143 140 146
3 147 138 142
3 147 141 138
3 148 147 142
3 148 142 145
3 148 145 149
3 149 150 148
3 148 150 151
3 150 152 151
3 150 153 152
3 153 154 152
3 153 155 154
3 156 155 153
3 156 157 155
3 158 153 150
3 158 156 153
3 149 158 150
3 148 151 159
3 155 160 154
3 155 161 160
3 161 162 160
3 154 160 162
3 161 163 162
3 154 162 164
3 165 167 166
3 165 168 167
3 168 169 167
3 168 170 169
3 170 171 169
3 170 172 171
3 172 173 171
3 172 174 173
3 164 166 167
3 164 162 166
3 164 167 175
3 175 167 169
3 152 164 175
3 152 154 164
3 151 152 175
3 151 175 176
3 175 169 176
3 176 169 171
3 159 151 176
3 159 176 177
3 176 171 177
3 177 171 173
3 159 177 144
3 177 173 144
3 144 173 174
3 159 144 143
3 159 143 146
3 144 174 145
3 145 174 172
3 145 172 149
3 149 172 170
3 149 170 158
3 158 170 168
3 158 168 156
3 156 168 165
3 156 165 157
3 165 163 157
3 157 163 161
3 157 161 155
3 166 163 165
3 166 162 163
3 178 180 179
3 178 181 180
3 181 182 180
3 181 183 182
3 184 186 185
3 184 187 186
3 188 184 185
3 188 185 189
3 190 188 189
3 190 189 191
3 190 191 192
3 190 192 193
3 193 192 194
3 193 194 195
3 196 198 197
3 199 198 196
3 199 196 200
3 201 198 199
3 201 202 198
3 203 202 201
3 203 201 204
3 202 205 198
3 197 198 205
3 202 206 205
3 206 202 207
3 202 203 207
3 206 207 208
3 208 207 209
3 207 210 209
3 210 211 209
3 211 208 209
3 210 212 211
3 212 197 211
3 211 213 208
3 214 210 207
3 214 207 215
3 207 216 215
3 207 203 216
3 216 217 215
3 217 218 215
3 218 214 215
3 217 219 218
3 219 220 218
3 219 221 220
3 216 222 217
3 218 223 214
3 218 212 223
3 218 197 212
3 197 213 211
3 220 197 218
3 197 205 213
3 196 197 220
3 224 226 225
3 224 227 226
3 224 228 227
3 227 230 229
3 227 228 230
3 231 230 228
3 231 232 230
3 230 232 233
3 230 233 234
3 231 228 235
3 231 235 236
3 232 237 233
3 232 238 237
3 236 239 231
3 236 240 239
3 235 240 236
3 239 240 241
3 235 241 240
3 239 241 242
3 239 242 243
3 239 243 244
3 243 245 244
3 243 246 245
3 244 245 247
3 244 247 248
3 249 244 248
3 249 239 244
3 250 243 242
3 250 251 243
3 249 252 239
3 239 252 253
3 254 253 252
3 254 255 253
3 256 255 254
3 256 257 255
3 258 259 250
3 258 260 259
3 258 250 242
3 239 253 261
3 239 261 231
3 231 261 262
3 263 262 261
3 263 261 264
3 265 263 264
3 265 264 266
3 231 262 267
3 231 267 232
3 232 267 238
3 199 226 227
3 199 200 226
3 199 227 229
3 199 229 201
3 229 204 201
3 229 268 204
3 269 271 270
3 269 272 271
3 273 275 274
3 273 276 275
3 277 273 274
3 277 278 273
3 279 278 277
3 279 277 280
3 219 259 221
3 219 250 259
3 219 251 250
3 219 217 251
3 251 217 222
3 251 222 281
3 276 269 275
3 276 272 269
3 282 284 283
3 282 285 284
3 283 284 286
3 285 286 284
3 283 286 287
3 285 288 286
3 289 283 287
3 289 282 283
3 290 292 291
3 290 293 292
3 291 292 294
3 293 294 292
3 291 294 295
3 293 296 294
3 297 291 295
3 297 290 291
3 295 296 297
3 295 294 296
3 298 300 299
3 298 301 300
3 299 300 302
3 301 302 300
3 299 302 303
3 301 304 302
3 305 299 303
3 305 298 299
3 303 304 305
3 303 302 304
3 306 308 307
3 306 309 308
3 309 310 308
3 307 308 310
3 309 311 310
3 307 310 312
3 313 309 306
3 313 311 309
3 311 312 310
3 311 313 312
3 314 316 315
3 314 317 316
3 317 318 316
3 315 316 318
3 317 319 318
3 315 318 320
3 321 317 314
3 321 319 317
3 319 320 318
3 319 321 320
3 322 324 323
3 322 325 324
3 323 324 326
3 323 326 327
3 328 330 329
3 328 331 330
3 332 328 329
3 332 329 333
3 334 331 328
3 335 337 336
3 337 335 338
3 338 335 339
3 340 339 341
3 340 341 342
3 343 345 344
3 343 346 345
3 346 347 345
3 346 348 347
3 349 343 344
3 349 350 343
3 351 353 352
3 351 354 353
3 355 357 356
3 355 358 357
3 357 358 359
3 357 359 360
3 361 363 362
3 362 363 364
3 363 365 364
3 363 366 365
3 362 364 367
3 368 370 369
3 370 368 371
3 371 368 372
3 373 374 372
3 373 375 374
3 376 378 377
3 376 379 378
3 377 378 380
3 377 380 381
3 382 379 376
3 382 383 379
3 384 386 385
3 384 387 386
3 388 390 389
3 388 391 390
3 392 388 389
3 392 389 393
3 390 391 394
3 390 394 395
3 395 394 396
3 395 396 397
3 396 398 397
3 396 399 398
3 389 390 400
3 389 400 401
3 393 389 401
3 393 401 402
3 403 393 402
3 393 403 404
3 393 404 392
3 404 403 405
3 404 405 406
3 406 405 398
3 406 398 399
3 405 403 407
3 403 402 407
3 405 407 408
3 398 405 408
3 397 398 409
3 398 408 409
3 392 404 410
3 392 410 411
3 388 392 411
3 388 411 412
3 413 412 411
3 413 411 414
3 406 399 414
3 399 413 414
3 414 411 410
3 391 388 412
3 391 412 415
3 394 391 415
3 394 415 416
3 416 412 413
3 416 415 412
3 406 414 417
3 414 410 417
3 404 417 410
3 404 406 417
3 396 416 413
3 396 394 416
3 399 396 413
3 397 409 418
3 395 397 418
3 395 418 419
3 390 395 419
3 390 419 400
3 420 422 421
3 420 423 422
3 424 423 420
3 424 425 423
3 426 425 424
3 426 427 425
3 428 430 429
3 428 431 430
3 429 430 432
3 431 432 430
3 429 432 433
3 434 431 428
3 434 429 433
3 434 428 429
3 434 435 431
3 431 435 432
3 436 438 437
3 436 439 438
3 437 438 440
3 439 440 438
3 437 440 441
3 442 439 436
3 442 443 439
3 439 443 440
3 442 437 441
3 442 436 437
3 444 446 445
3 444 447 446
3 445 446 448
3 447 448 446
3 445 448 449
3 450 447 444
3 450 451 447
3 447 451 448
3 450 445 449
3 450 444 445
3 452 454 453
3 452 455 454
3 453 454 456
3 455 456 454
3 453 456 457
3 458 455 452
3 458 453 457
3 458 452 453
3 458 459 455
3 455 459 456
3 460 462 461
3 460 463 462
3 461 462 464
3 463 464 462
3 461 464 465
3 466 463 460
3 466 461 465
3 466 460 461
3 466 467 463
3 463 467 464
3 468 470 469
3 468 471 470
3 471 472 470
3 469 470 472
3 471 473 472
3 474 468 469
3 474 471 468
3 474 473 471
3 474 469 475
3 469 472 475
3 476 478 477
3 476 479 478
3 479 480 478
3 477 478 480
3 479 481 480
3 482 476 477
3 482 477 483
3 477 480 483
3 482 479 476
3 482 481 479
3 484 486 485
3 484 487 486
3 487 488 486
3 485 486 488
3 487 489 488
3 490 484 485
3 490 485 491
3 485 488 491
3 490 487 484
3 490 489 487
3 492 494 493
3 492 495 494
3 495 496 494
3 493 494 496
3 495 497 496
3 498 492 493
3 498 495 492
3 498 497 495
3 498 493 499
3 493 496 499
3 500 502 501
3 500 503 502
3 503 504 502
3 501 502 504
3 503 505 504
3 506 500 501
3 506 503 500
3 506 505 503
3 506 501 507
3 501 504 507
3 229 230 508
3 508 230 234
3 508 234 509
3 510 508 509
3 510 511 508
3 512 511 510
3 512 513 511
3 514 512 510
3 514 510 515
3 510 509 515
3 516 511 513
3 511 516 517
3 511 517 518
3 516 519 517
3 516 268 519
3 268 518 519
3 268 511 518
3 508 268 229
3 508 511 268
3 516 513 520
3 516 520 521
3 520 522 521
3 520 523 522
3 524 522 523
3 524 523 525
3 516 521 526
3 516 526 527
3 527 526 528
3 527 528 529
3 527 529 530
3 531 530 529
3 531 532 530
3 532 533 530
3 534 532 531
3 534 535 532
3 532 536 533
3 532 535 536
3 533 536 246
3 533 246 243
3 251 533 243
3 530 537 527
3 530 538 537
3 527 537 539
3 527 539 281
3 281 538 530
3 281 539 538
3 533 281 530
3 533 251 281
3 528 541 540
3 542 540 541
3 542 543 540
3 528 526 541
3 544 546 545
3 544 547 546
3 544 545 548
3 544 548 549
3 550 552 551
3 550 553 552
3 554 553 550
3 554 550 555
3 235 554 555
3 235 228 554
3 556 553 554
3 556 557 553
3 557 552 553
3 558 551 552
3 558 559 551
3 550 559 555
3 550 551 559
3 241 559 558
3 241 558 242
3 557 560 552
3 561 552 560
3 561 558 552
3 562 564 563
3 565 567 566
3 565 568 567
3 569 571 570
3 569 572 571
3 570 573 569
3 570 574 573
3 575 577 576
3 575 578 577
3 575 579 578
3 575 580 579
3 572 581 571
3 572 582 581
3 583 585 584
3 583 586 585
3 587 585 586
3 587 588 585
3 589 587 586
3 589 586 583
3 590 583 591
3 590 589 583
3 588 584 585
3 588 592 584
3 592 593 584
3 592 594 593
3 594 595 593
3 594 596 595
3 597 599 598
3 597 600 599
3 601 599 600
3 601 602 599
3 603 601 600
3 603 600 597
3 596 597 595
3 596 603 597
3 602 598 599
3 602 604 598
3 604 605 598
3 604 606 605
3 606 591 605
3 606 590 591
3 607 609 608
3 607 610 609
3 611 607 608
3 611 608 612
3 613 611 612
3 613 614 611
3 615 617 616
3 615 618 617
3 617 618 619
3 617 619 620
3 617 621 616
3 617 620 621
3 622 620 619
3 622 621 620
3 610 616 609
3 610 615 616
3 623 625 624
3 623 626 625
3 623 627 626
3 623 628 627
3 628 629 627
3 628 630 629
3 224 554 228
3 224 556 554
3 631 633 632
3 634 636 635
3 634 637 636
3 549 639 638
3 549 548 639
3 640 642 641
3 640 643 642
3 643 640 644
3 643 644 645
3 646 648 647
3 646 649 648
3 646 647 650
3 646 650 651
3 641 653 652
3 641 642 653
3 654 656 655
3 654 657 656
3 658 655 656
3 658 656 659
3 660 655 658
3 660 654 655
3 661 654 660
3 661 662 654
3 659 657 663
3 659 656 657
3 663 657 664
3 663 664 665
3 665 664 666
3 665 666 667
3 668 670 669
3 668 671 670
3 672 669 670
3 672 670 673
3 674 669 672
3 674 668 669
3 667 668 674
3 667 666 668
3 673 671 675
3 673 670 671
3 675 671 676
3 675 676 677
3 677 676 662
3 677 662 661
3 678 680 679
3 678 681 680
3 682 681 678
3 682 683 681
3 684 683 682
3 684 682 685
3 679 621 622
3 679 680 621
3 612 684 613
3 612 683 684
3 613 684 685
3 613 685 614
3 258 558 561
3 258 242 558
3 555 241 235
3 555 559 241
3 686 688 687
3 686 689 688
3 690 689 686
3 690 686 687
3 690 691 689
3 690 687 692
3 693 692 687
3 693 687 694
3 695 693 694
3 687 695 694
3 687 688 695
3 695 696 693
3 688 696 695
3 689 697 688
3 689 691 697
3 688 697 696
3 698 700 699
3 698 701 700
3 702 698 699
3 702 703 698
3 704 703 702
3 704 705 703
3 706 700 701
3 706 707 700
3 706 708 707
3 706 709 708
3 709 710 708
3 709 711 710
3 712 714 713
3 712 715 714
3 716 712 713
3 716 717 712
3 713 718 716
3 713 719 718
3 714 719 713
3 718 719 720
3 720 719 721
3 714 721 719
3 720 721 722
3 712 722 715
3 712 720 722
3 718 720 723
3 724 726 725
3 725 726 727
3 725 727 728
3 729 728 727
3 729 730 728
3 725 728 730
3 725 730 731
3 731 724 725
3 731 732 724
3 732 733 724
3 733 726 724
3 732 734 733
3 731 730 729
3 731 729 735
3 726 736 727
3 733 736 726
3 734 737 733
3 733 737 736
3 729 738 735
3 729 739 738
3 740 738 739
3 740 739 741
3 742 740 741
3 742 741 743
3 742 743 744
3 729 744 739
3 742 744 745
3 746 742 745
3 740 746 747
3 740 742 746
3 747 746 748
3 748 746 745
3 747 748 749
3 749 748 750
3 737 751 736
3 737 750 751
3 748 751 750
3 748 745 751
3 745 744 751
3 751 744 752
3 751 752 753
3 744 754 752
3 744 727 754
3 729 727 744
3 736 751 753
3 736 753 755
3 755 752 754
3 755 753 752
3 727 755 754
3 727 736 755
3 756 758 757
3 756 759 758
3 757 760 756
3 757 761 760
3 760 761 762
3 759 762 758
3 760 762 763
3 759 763 762
3 764 710 711
3 764 765 710
3 766 765 764
3 766 764 767
3 768 766 767
3 768 767 769
3 770 772 771
3 770 773 772
3 739 743 741
3 739 744 743
3 774 776 775
3 774 777 776
3 778 777 774
3 778 779 777
3 779 776 777
3 779 780 776
3 780 775 776
3 780 781 775
3 781 774 775
3 781 778 774
3 782 784 783
3 782 785 784
3 786 785 782
3 786 787 785
3 787 784 785
3 787 788 784
3 788 783 784
3 788 789 783
3 789 782 783
3 789 786 782
3 790 792 791
3 790 793 792
3 793 794 792
3 793 795 794
3 795 796 794
3 795 797 796
3 794 798 792
3 798 799 792
3 798 800 799
3 790 801 793
3 790 802 801
3 793 803 795
3 793 801 803
3 795 804 797
3 795 803 804
3 805 799 800
3 805 806 799
3 805 800 807
3 808 805 807
3 808 809 805
3 809 808 810
3 809 810 811
3 811 805 809
3 811 812 805
3 800 813 807
3 814 799 806
3 814 806 815
3 816 814 815
3 816 817 814
3 814 817 818
3 814 818 819
3 816 815 820
3 821 820 815
3 821 822 820
3 823 822 821
3 823 824 822
3 825 824 823
3 817 824 825
3 817 816 824
3 817 825 826
3 817 826 818
3 819 818 826
3 819 826 827
3 825 827 826
3 825 823 827
3 828 819 827
3 819 828 829
3 829 828 800
3 829 800 798
3 829 798 794
3 829 794 796
3 791 829 796
3 791 819 829
3 797 791 796
3 797 790 791
3 797 802 790
3 797 804 802
3 828 813 800
3 828 830 813
3 830 807 813
3 830 831 807
3 831 830 828
3 831 828 827
3 808 807 831
3 808 831 810
3 810 831 812
3 810 812 811
3 831 827 812
3 827 823 812
3 791 814 819
3 832 834 833
3 832 835 834
3 836 838 837
3 836 839 838
3 840 842 841
3 840 843 842
3 844 840 841
3 844 845 840
3 846 848 847
3 846 849 848
3 850 852 851
3 850 853 852
3 853 854 852
3 853 855 854
3 855 856 854
3 855 857 856
3 857 853 850
3 857 855 853
3 851 854 856
3 851 852 854
3 858 860 859
3 858 861 860
3 861 862 860
3 861 863 862
3 863 864 862
3 863 865 864
3 865 861 858
3 865 863 861
3 859 862 864
3 859 860 862
3 866 868 867
3 866 869 868
3 867 868 870
3 867 870 871
3 872 869 866
3 872 873 869
3 869 870 868
3 869 873 870
3 873 871 870
3 873 872 871
3 874 876 875
3 874 877 876
3 875 876 878
3 875 878 879
3 880 877 874
3 880 881 877
3 877 878 876
3 877 881 878
3 881 879 878
3 881 880 879
