mtllib Dragonair.mtl
v 0.0696131 0.272017 -0.0507893
vt 0.958391 0.281894
vn 0.5562561 0.82833 0.06669752
v 0.0577263 0.330747 -0.240263
vn 0.4913821 0.8531482 0.1751621
v -0.0577263 0.330747 -0.240263
vn -0.4913817 0.8531485 0.1751619
v 0.115453 0.236579 -0.273871
vn 0.990614 0.04394981 -0.129431
v -0.069613 0.272017 -0.0507893
vn -0.5562549 0.8283308 0.06669738
v 0.139226 0.153526 -0.0731022
vn 0.9940697 -0.08509099 -0.06771259
v -0.0662457 0.288785 0.156522
vn -0.5858791 0.7610761 -0.2784041
v 0.143661 0.158902 0.1649
vn 0.9832905 -0.1347909 0.1223569
v 0.0662457 0.288785 0.156522
vn 0.5858791 0.7610761 -0.2784041
v -0.0398915 0.366436 -0.455381
vn -0.44843 0.891012 -0.0707683
v 0.0797831 0.297507 -0.460155
vn 0.9729275 0.1278649 -0.1925169
v 0.0398915 0.366436 -0.455381
vn 0.44843 0.891012 -0.0707684
v -0.143662 0.158902 0.1649
vn -0.9832906 -0.13479 0.122357
v -0.115453 0.236579 -0.273871
vn -0.990614 0.0439501 -0.129431
v -0.139226 0.153526 -0.0731022
vn -0.9940697 -0.08509067 -0.06771258
v 0.121321 0.268619 0.269357
vn 0.9541424 -0.05529392 0.2942021
v 0 0.464296 0.216324
vn 0 0.6555311 -0.7551681
v 0.0874199 0.441792 0.288609
vn 0.8762357 0.4678528 0.115433
v 0 0.242936 -0.748466
vn 0 -0.04821091 -0.9988372
v -0.0797831 0.297507 -0.460155
vn -0.9729273 0.1278659 -0.1925169
v -0.121321 0.268619 0.269357
vn -0.9541424 -0.05529382 0.2942021
v -0.0874199 0.441792 0.288609
vn -0.8762357 0.4678528 0.115433
v 0.136152 0.777291 0.4294
vt 0.578616 0.268276
vn 0.4379918 0.8878816 0.1408169
v 0 0.803382 0.346698
vn 0 0.9729283 -0.2311071
v 0 0.792662 0.484782
vn 0 0.9578242 0.2873551
v 0.148195 0.737167 0.285368
vn 0.4913271 0.6805072 -0.5436062
v 0 0.745057 0.577648
vn 0 0.7668939 0.6417739
v 0.222515 0.695423 0.372061
vn 0.9290556 0.3408678 -0.1437529
v 0.108828 0.687654 0.577307
vn 0.565964 0.372992 0.735229
v 0.206635 0.691385 0.465542
vn 0.8217568 0.3336809 0.4619229
v -0.136152 0.777291 0.4294
vn -0.4379918 0.8878816 0.1408169
v 0 0.738837 0.231692
vn 0 0.6439509 -0.7650669
v -0.148195 0.737167 0.285368
vn -0.4913271 0.6805072 -0.5436062
v 0.21627 0.531172 0.477089
vn 0.908545 -0.0456264 0.415288
v 0.193067 0.596671 0.25829
vn 0.8097052 0.05715242 -0.5840471
v 0.221288 0.493677 0.358991
vn 0.9439026 -0.2877839 -0.1619519
v 0 0.662158 0.626049
vn 0 0.227886 0.9736878
v 0.103015 0.521815 0.59772
vn 0.6887053 0.1746651 0.7036883
v -0.0915897 0.60646 0.183067
vn -0.2985841 0.141534 -0.9438303
v 0.0915897 0.60646 0.183067
vn 0.298585 0.141534 -0.94383
v -0.108828 0.687654 0.577307
vn -0.565964 0.372992 0.735229
v -0.222515 0.695423 0.372061
vn -0.9290556 0.3408678 -0.1437529
v -0.206635 0.691385 0.465542
vn -0.8217568 0.3336809 0.4619229
v 0.180894 0.436938 0.496955
vn 0.8292927 -0.4929108 0.2632729
v 0 0.535844 0.639199
vn 0 0.415669 0.909516
v 0.0878619 0.463247 0.670358
vn 0.652587 -0.0413463 0.7565849
v 0 0.510176 0.690852
vn 0 0.4042318 0.9146566
v 0 0.482987 0.186627
vn 0 -0.419726 -0.9076509
v -0.193067 0.596671 0.25829
vn -0.8097052 0.05715242 -0.5840471
v -0.148195 0.462927 0.249681
vn -0.5310038 -0.4963968 -0.6867498
v 0.148195 0.462927 0.249681
vn 0.5310038 -0.4963968 -0.6867498
v -0.21627 0.531172 0.477089
vn -0.908545 -0.0456264 0.415288
v -0.103015 0.521815 0.59772
vn -0.6887053 0.1746651 0.7036883
v 0.0982142 0.368424 0.586387
vn 0.5268698 -0.7941856 0.3027829
v 0.135169 0.385258 0.353415
vn 0.4366461 -0.8761052 -0.204401
v -0.221288 0.493677 0.358991
vn -0.9439026 -0.2877839 -0.1619519
v 0 0.374219 0.290851
vn 0 -0.9148384 -0.4038202
v -0.135169 0.385258 0.353415
vn -0.4366461 -0.8761052 -0.204401
v -0.0878619 0.463247 0.670358
vn -0.652587 -0.0413463 0.7565849
v 0 0.400596 0.672078
vn 0 -0.6312551 0.7755752
v -0.180894 0.436938 0.496955
vn -0.8292924 -0.4929112 0.2632731
v -0.0982142 0.368424 0.586387
vn -0.5268698 -0.7941856 0.3027829
v 0 0.340401 0.550106
vn 0 -0.9987915 0.04914872
v -0.276105 0.613903 0.362233
vt 0.319152 0.504159
vn -0.9705045 -0.1782199 0.1623539
v -0.305873 0.764187 0.16059
vt 0.97988 0.754575
vn -0.9916593 -0.112824 0.06230962
v -0.261667 0.571372 0.22259
vt 0.776724 0.43329
vn -0.9651352 -0.2609631 -0.0203086
v -0.308923 0.94647 0.320998
vt 0.454267 1.05831
vn -0.9903618 -0.08408488 0.110061
v -0.235121 0.50433 0.307293
vt 0.499176 0.321579
vn -0.9137107 -0.3932019 0.102592
v -0.267075 0.766048 0.381699
vt 0.255366 0.757677
vn -0.8562408 -0.0152484 0.5163519
v -0.21805 0.534279 0.432932
vt 0.0874916 0.371482
vn -0.8779842 -0.3581341 0.3176221
v -0.230902 0.627429 0.451051
vt 0.0281179 0.526697
vn -0.8819949 -0.0900114 0.4625829
v 0.276105 0.613903 0.362233
vn 0.9705045 -0.1782199 0.1623539
v 0.261667 0.571372 0.22259
vn 0.9651352 -0.2609631 -0.0203089
v 0.305873 0.764187 0.16059
vn 0.9916593 -0.112824 0.06230962
v 0.235121 0.504331 0.307293
vn 0.913711 -0.393201 0.102592
v 0.308924 0.94647 0.320998
vn 0.9903618 -0.08408498 0.110061
v 0.21805 0.534279 0.432932
vn 0.8779847 -0.3581329 0.3176219
v 0.267075 0.766048 0.381699
vn 0.8562408 -0.0152482 0.5163519
v 0.230902 0.627429 0.451051
vn 0.8819949 -0.09001099 0.4625829
v 0.0577263 0.142412 -0.307478
vt 0.195136 0.0178256
vn 0.4877309 -0.7589447 -0.4314179
v -0.0577263 0.142412 -0.307478
vt -0.204092 0.0178256
vn -0.4877309 -0.7589447 -0.4314179
v 0.0398915 0.228577 -0.464929
vt 0.195136 0.0142356
vn 0.533927 -0.776076 -0.335601
v -0.0696131 0.035035 -0.0954151
vt -0.324339 0.023735
vn -0.4522819 -0.8735078 -0.18007
vt 0.68989 0.0278119
v 0.069613 0.035035 -0.0954151
vt 0.195135 0.023735
vn 0.4522819 -0.8735078 -0.18007
vt 0.685205 0.0441288
v -0.0398915 0.228577 -0.464929
vt -0.185861 0.0142356
vn -0.5339281 -0.7760752 -0.3356011
v 0.0718307 0.0387034 0.197014
vt 0.195135 0.0278979
vn 0.4191359 -0.8494008 0.3206919
v -0.0718308 0.0387034 0.197014
vt -0.334671 0.0278979
vn -0.4191359 -0.8494008 0.3206919
vt 0.555172 0.0128075
vt 0.669343 0.0580362
vt 0 0.00509025
v -0.0606606 0.217393 0.348244
vt -0.282628 0.0638663
vn -0.3796551 -0.4374931 0.8151453
vt 0.500086 0.00290471
v 0.0606606 0.217393 0.348244
vt 0.282628 0.0638663
vn 0.3796551 -0.4374931 0.8151453
vt 0.654607 0.0726442
vt 0.407304 0.305033
v 0 0.419287 0.360895
vt 0 0.305033
vn 0 0.2558471 0.9667173
v 0 0.441792 0.288609
vt -0.407304 0.305033
vt 0.195135 0.0259206
v 0 0.75503 0.682617
vt 0.102937 0.933385
vn 0 0.5258162 0.8505982
v 0.0493852 0.697136 0.588964
vn 0.9124202 0.215193 0.3481111
v 0 0.739143 0.562996
vn 0 0.9912958 -0.131654
v 0 0.655129 0.614931
vn 0 -0.5609099 0.8278769
v -0.0493852 0.697136 0.588964
vn -0.9124202 0.215193 0.3481111
vt 1 0.21086
vt 0.807881 0.246762
vt 0.735593 0.0162218
vt 1 -0.0456891
vt 1.26441 0.0162218
vt 1.19212 0.246762
vn 0.9708096 0.1673689 -0.1718029
vn -0.97081 0.167368 -0.171802
o merged_0_0_node
g polygon_0
usemtl mat_body_mat_id
f 1/1/1 2/1/2 3/1/3
f 1/1/1 4/1/4 2/1/2
f 1/1/1 3/1/3 5/1/5
f 1/1/1 6/1/6 4/1/4
f 1/1/1 5/1/5 7/1/7
f 1/1/1 8/1/8 6/1/6
f 1/1/1 7/1/7 9/1/9
f 1/1/1 9/1/9 8/1/8
f 2/1/2 10/1/10 3/1/3
f 2/1/2 4/1/4 11/1/11
f 2/1/2 12/1/12 10/1/10
f 2/1/2 11/1/11 12/1/12
f 5/1/5 13/1/13 7/1/7
f 5/1/5 3/1/3 14/1/14
f 5/1/5 15/1/15 13/1/13
f 5/1/5 14/1/14 15/1/15
f 9/1/9 16/1/16 8/1/8
f 9/1/9 7/1/7 17/1/17
f 9/1/9 18/1/18 16/1/16
f 9/1/9 17/1/17 18/1/18
f 10/1/10 12/1/12 19/1/19
f 10/1/10 20/1/20 3/1/3
f 10/1/10 19/1/19 20/1/20
f 20/1/20 14/1/14 3/1/3
f 19/1/19 12/1/12 11/1/11
f 13/1/13 21/1/21 7/1/7
f 17/1/17 7/1/7 22/1/22
f 22/1/22 7/1/7 21/1/21
f 23/2/23 24/2/24 25/2/25
f 23/2/23 26/2/26 24/2/24
f 23/2/23 25/2/25 27/2/27
f 23/2/23 28/2/28 26/2/26
f 23/2/23 27/2/27 29/2/29
f 23/2/23 30/2/30 28/2/28
f 23/2/23 29/2/29 30/2/30
f 24/2/24 31/2/31 25/2/25
f 24/2/24 26/2/26 32/2/32
f 24/2/24 33/2/33 31/2/31
f 24/2/24 32/2/32 33/2/33
f 25/2/25 31/2/31 27/2/27
f 28/2/28 30/2/30 34/2/34
f 28/2/28 35/2/35 26/2/26
f 28/2/28 34/2/34 36/2/36
f 28/2/28 36/2/36 35/2/35
f 29/2/29 27/2/27 37/2/37
f 29/2/29 37/2/37 38/2/38
f 32/2/32 39/2/39 33/2/33
f 32/2/32 26/2/26 40/2/40
f 32/2/32 40/2/40 39/2/39
f 26/2/26 35/2/35 40/2/40
f 31/2/31 41/2/41 27/2/27
f 31/2/31 33/2/33 42/2/42
f 31/2/31 43/2/43 41/2/41
f 31/2/31 42/2/42 43/2/43
f 27/2/27 41/2/41 37/2/37
f 34/2/34 44/2/44 36/2/36
f 38/2/38 37/2/37 45/2/45
f 38/2/38 46/2/46 44/2/44
f 38/2/38 45/2/45 47/2/47
f 38/2/38 47/2/47 46/2/46
f 39/2/39 40/2/40 48/2/48
f 39/2/39 49/2/49 33/2/33
f 39/2/39 48/2/48 50/2/50
f 39/2/39 50/2/50 49/2/49
f 33/2/33 49/2/49 42/2/42
f 35/2/35 36/2/36 51/2/51
f 35/2/35 51/2/51 40/2/40
f 40/2/40 51/2/51 48/2/48
f 43/2/43 42/2/42 52/2/52
f 41/2/41 53/2/53 37/2/37
f 45/2/45 53/2/53 47/2/47
f 45/2/45 37/2/37 53/2/53
f 44/2/44 46/2/46 54/2/54
f 44/2/44 55/2/55 36/2/36
f 44/2/44 54/2/54 55/2/55
f 36/2/36 55/2/55 51/2/51
f 50/2/50 56/2/56 49/2/49
f 50/2/50 48/2/48 57/2/57
f 50/2/50 58/2/58 56/2/56
f 50/2/50 57/2/57 58/2/58
f 57/2/57 51/2/51 55/2/55
f 57/2/57 48/2/48 51/2/51
f 42/2/42 56/2/56 52/2/52
f 42/2/42 49/2/49 56/2/56
f 47/2/47 53/2/53 59/2/59
f 47/2/47 60/2/60 46/2/46
f 47/2/47 59/2/59 60/2/60
f 46/2/46 60/2/60 54/2/54
f 58/2/58 61/2/61 56/2/56
f 58/2/58 62/2/62 61/2/61
f 61/2/61 52/2/52 56/2/56
f 61/2/61 59/2/59 53/2/53
f 61/2/61 62/2/62 59/2/59
f 59/2/59 62/2/62 60/2/60
f 54/2/54 60/2/60 63/2/63
f 63/2/63 60/2/60 62/2/62
f 64/3/64 65/4/65 66/5/66
f 64/3/64 67/6/67 65/4/65
f 64/3/64 66/5/66 68/7/68
f 64/3/64 69/8/69 67/6/67
f 64/3/64 68/7/68 70/9/70
f 64/3/64 71/10/71 69/8/69
f 64/3/64 70/9/70 71/10/71
f 72/3/72 73/5/73 74/4/74
f 72/3/72 75/7/75 73/5/73
f 72/3/72 74/4/74 76/6/76
f 72/3/72 77/9/77 75/7/75
f 72/3/72 76/6/76 78/8/78
f 72/3/72 79/10/79 77/9/77
f 72/3/72 78/8/78 79/10/79
f 80/11/80 81/12/81 82/13/82
f 80/11/80 83/14/83 81/12/81
f 80/11/80 82/13/82 4/15/4
f 80/11/80 84/16/84 83/14/83
f 80/11/80 4/15/4 6/17/6
f 80/11/80 6/17/6 84/16/84
f 81/12/81 85/18/85 82/13/82
f 83/14/83 84/16/84 86/19/86
f 83/14/83 86/19/86 87/20/87
f 4/15/4 82/13/82 11/21/11
f 6/17/6 8/22/8 84/16/84
f 84/16/84 8/22/8 86/19/86
f 85/18/85 19/23/19 82/13/82
f 87/20/87 86/19/86 88/24/88
f 11/21/11 82/13/82 19/25/19
f 8/22/8 89/26/89 86/19/86
f 8/22/8 16/27/16 89/26/89
f 86/19/86 89/26/89 88/24/88
f 19/25/19 85/13/85 20/21/20
f 16/27/16 18/28/18 89/26/89
f 88/24/88 89/26/89 90/29/90
f 89/26/89 18/28/18 90/29/90
f 85/13/85 14/15/14 20/21/20
f 85/13/85 81/11/81 14/15/14
f 18/28/18 91/29/25 90/29/90
f 18/28/18 17/29/17 91/29/25
f 81/11/81 15/17/15 14/15/14
f 81/11/81 83/16/83 15/17/15
f 90/29/90 91/29/25 22/30/22
f 90/29/90 22/28/22 88/26/88
f 22/30/22 91/29/25 17/29/17
f 15/17/15 83/31/83 13/22/13
f 22/28/22 21/27/21 88/26/88
f 21/27/21 13/22/13 88/26/88
f 83/31/83 87/19/87 13/22/13
f 13/22/13 87/19/87 88/26/88
f 92/32/91 93/32/92 94/32/93
f 92/32/91 95/32/94 93/32/92
f 92/32/91 94/32/93 96/32/95
f 92/32/91 96/32/95 95/32/94
f 63/33/63 62/34/62 58/35/58
f 63/33/63 58/35/58 57/36/57
f 63/33/63 57/36/57 55/37/55
f 63/33/63 55/37/55 54/38/54
f 71/10/96 70/9/96 68/7/96
f 71/10/96 68/7/96 66/5/96
f 71/10/96 66/5/96 65/4/96
f 71/10/96 65/4/96 69/8/96
f 65/4/96 67/6/96 69/8/96
f 78/8/97 75/7/97 79/10/97
f 78/8/97 73/5/97 75/7/97
f 78/8/97 74/4/97 73/5/97
f 78/8/97 76/6/97 74/4/97
f 79/10/97 75/7/97 77/9/97
v 0.0753958 0.261527 -0.667802
vn 1 0 0
v 0 0.249143 -0.722859
vn 0 -0.2194431 -0.9756253
v 0 0.335085 -0.684347
vn 0 0.9756253 -0.2194431
v -0.0753958 0.261527 -0.667802
vn -1 0 0
v 0 0.273911 -0.612745
vn 0 0.2194431 0.9756253
v 0 0.187969 -0.651257
vn 0 -0.9756253 0.2194431
v 0.0876942 0.273099 -0.614768
v 0 0.256368 -0.689152
v 0 0.358655 -0.634012
v -0.0876942 0.273099 -0.614768
v 0 0.289829 -0.540384
v 0 0.187542 -0.595524
v 0.0657535 0.277866 0.407918
v 0 0.277866 0.342164
vn 0 0 -1
v 0 0.343619 0.407918
vn 0 1 0
v -0.0657535 0.277866 0.407918
v 0 0.277866 0.473671
vn 0 0 1
v 0 0.212112 0.407918
vn 0 -1 0
o merged_1_0_node
g polygon_0
usemtl ENV_mat_ref_mat_id
f 97//98 98//99 99//100
f 98//99 100//101 99//100
f 100//101 101//102 99//100
f 99//100 101//102 97//98
f 102//103 98//99 97//98
f 102//103 100//101 98//99
f 102//103 101//102 100//101
f 102//103 97//98 101//102
f 103//98 104//99 105//100
f 104//99 106//101 105//100
f 106//101 107//102 105//100
f 105//100 107//102 103//98
f 108//103 104//99 103//98
f 108//103 106//101 104//99
f 108//103 107//102 106//101
f 108//103 103//98 107//102
f 109//98 110//104 111//105
f 110//104 112//101 111//105
f 112//101 113//106 111//105
f 111//105 113//106 109//98
f 114//107 110//104 109//98
f 114//107 112//101 110//104
f 114//107 113//106 112//101
f 114//107 109//98 113//106
vt 0.0749166 0.814595
vt 0.168968 1.01791
vt 0.884583 0.825582
vt 0.896204 1.02244
vt 0.706816 0.716708
o merged_2_0_node
g polygon_0
usemtl TEX_ANIM_EYE_mat_id
f 53/39/53 41/40/41 52/41/52
f 52/41/52 41/40/41 43/42/43
f 34/41/34 38/39/38 44/43/44
f 30/42/30 29/40/29 34/41/34
f 34/41/34 29/40/29 38/39/38
f 52/41/52 61/43/61 53/39/53
