mtllib Altaria_Normal.mtl
v 0.0779529 0.683473 0.0683403
vt 0.924851 0.384564
vn 0.3943042 0.8654103 -0.3091751
v 0 0.623606 -0.0198467
vn 0 0.5693839 -0.8220719
v -0.0779529 0.683473 0.0683403
vn -0.3943042 0.8654103 -0.3091751
v 0.156238 0.568196 0.00970621
vn 0.6705991 0.3081281 -0.6747991
v 0 0.699725 0.171901
vn 0 0.993948 0.109851
v 0.17727 0.608657 0.144735
vn 0.7847901 0.619698 0.008878671
v 0.0760502 0.65995 0.275766
vn 0.364193 0.785467 0.500405
v -0.156238 0.568196 0.00970621
vn -0.6705989 0.308129 -0.674799
v 0 0.508345 -0.0676629
vn 0 0.09588466 -0.9953925
v -0.0760502 0.65995 0.275766
vn -0.3641938 0.7854667 0.5004048
v 0.225732 0.489767 0.144735
vn 0.9939968 0.08393159 -0.07018469
v 0.1612 0.563993 0.29321
vn 0.7048081 0.361087 0.6106241
v -0.156985 0.413088 0.00331321
vn -0.6608613 -0.2941991 -0.6904413
v 0.156985 0.413088 0.00331321
vn 0.6608611 -0.2942001 -0.6904411
v 0 0.404766 -0.0441144
vn 0 -0.4240641 -0.9056322
v -0.17727 0.608657 0.144735
vn -0.7847901 0.619698 0.008878671
v -0.0701717 0.332931 0.0327952
vn -0.2740939 -0.8644308 -0.4214639
v -0.225732 0.489767 0.144735
vn -0.9939968 0.08393159 -0.07018449
v -0.205089 0.386393 0.144735
vn -0.8299946 -0.5481364 -0.1032261
v 0.205089 0.386393 0.144735
vn 0.8299944 -0.5481363 -0.103227
v -0.1612 0.563993 0.29321
vn -0.7048081 0.361087 0.6106241
v 0.0701717 0.332931 0.0327952
vn 0.2740939 -0.8644308 -0.4214639
v -0.130061 0.335791 0.207313
vn -0.340025 -0.9369061 0.08117811
v -0.156985 0.36963 0.284976
vn -0.4713162 -0.6880862 0.5517232
v 0.130061 0.335791 0.207313
vn 0.340025 -0.9369061 0.08117811
v 0.156985 0.36963 0.284976
vn 0.4713162 -0.6880862 0.5517232
v 0 0.310597 0.144735
vn 0 -0.9999891 0.004668111
v 0 0.335791 0.266748
vn 0 -0.9044111 0.4266621
v 0 0.39774 0.343066
vn 0 -0.522781 0.852467
v 0 0.274197 0.052679
vt 0.879396 0.313399
vn 0 0.9770889 -0.212832
v 0 0.260617 -0.178161
vt 0.879396 0.355114
vn 0 0.9854629 -0.169891
v -0.111553 0.226696 -0.157562
vt 0.847473 0.351392
vn -0.4653531 0.8418432 -0.2733981
v 0.111553 0.226696 -0.157562
vt 0.911318 0.351392
vn 0.4653531 0.8418432 -0.2733981
v -0.0854738 0.238816 0.0600997
vt 0.854936 0.312058
vn -0.5100729 0.8601098 -0.006070059
v 0.0854738 0.238816 0.0600997
vt 0.903855 0.312058
vn 0.5100741 0.8601091 -0.006069821
v 0 0.380457 0.148627
vt 0.879396 0.29606
vn 0 0.7518398 0.6593458
v 0 0.198551 -0.23957
vt 0.879396 0.366212
vn 0 0.0389268 -0.9992421
v -0.0881063 0.177358 0.0999797
vt 0.852037 0.304851
vn -0.650295 0.10178 0.7528329
v 0.0881063 0.177358 0.0999797
vt 0.906755 0.304851
vn 0.650295 0.10178 0.7528329
v -0.0993149 0.110105 -0.14963
vt 0.850975 0.349959
vn -0.5070552 -0.2647381 -0.8202493
v 0.0993149 0.110105 -0.14963
vt 0.907816 0.349959
vn 0.5070552 -0.2647381 -0.8202493
v 0 0.190694 0.144296
vt 0.879396 0.296843
vn 0 -0.02282089 0.9997396
v 0 0.0894222 -0.178891
vt 0.879396 0.355247
vn 0 -0.4859561 -0.8739832
v 0.000692465 0.425756 0.393815
vt 0.0394469 0.148426
vn -0.000502912 0.419773 0.907629
v 0.000692465 0.465137 0.35866
vt 0.109377 0.22676
vn 0.0003046349 0.7166638 0.6974187
v -0.068783 0.417822 0.362385
vt 0.101967 0.132645
vn -0.588728 0.4833879 0.6478699
v 0.068783 0.417822 0.362385
vn 0.5944203 0.4801603 0.6450664
v -0.0727442 0.392092 0.364366
vt 0.0980262 0.0814619
vn -0.6405652 0.1338511 0.7561482
v 0.0727442 0.392092 0.364366
vn 0.645579 0.133925 0.751859
v 0.000692465 0.385349 0.39587
vt 0.0353597 0.068049
vn -0.0002445369 0.05078508 0.9987096
v -0.080415 0.439729 0.321497
vt 0.183299 0.176221
vn -0.6844812 0.5434822 0.4859141
v 0.080415 0.439729 0.321497
vn 0.6892916 0.5385277 0.4846287
v -0.0993921 0.398326 0.305751
vt 0.214621 0.0938627
vn -0.8867285 0.2339879 0.3987008
v 0.0993921 0.398326 0.305751
vn 0.8867285 0.2339879 0.3987008
v -0.170853 0.420872 0.300153
vt 0.51177 0.648721
vn -0.7139552 -0.132661 0.6875092
vt 1.40489 0.435481
vt 0.536646 0.333915
vt 1.47966 1.06989
vt -0.319404 0.503718
v -0.160192 0.472115 0.300736
vt 0.470269 0.962731
vn -0.6435168 0.05378629 0.7635399
v 0.170853 0.420872 0.300153
vn 0.7139552 -0.132661 0.6875092
v 0.160192 0.472115 0.300736
vn 0.6435168 0.05378639 0.7635399
v -0.0730723 0.000269362 -0.04671741
vt 0.858485 0.331361
vn -0.149559 -0.9885762 0.0186865
v 0 0.0457698 -0.00977818
vt 0.879396 0.324686
vn -0.0002643729 -0.8859944 0.4636957
v -0.131882 0.0660967 -0.00734329
vt 0.841656 0.324246
vn -0.5418699 -0.7315768 0.4137299
v 0 0.0481371 -0.0922412
vt 0.879396 0.339588
vn -0.000346761 -0.87089 -0.491478
v -0.129293 0.0666483 -0.0982294
vt 0.842397 0.34067
vn -0.4717351 -0.7541191 -0.4569141
v 0.0730578 0.000187305 -0.0467473
vt 0.900302 0.331367
vn 0.302566 -0.8894429 -0.342557
v 0.131882 0.0660966 -0.00734323
vt 0.917136 0.324246
vn 0.5419772 -0.7312883 0.4140992
v 0.129293 0.0666483 -0.0982294
vt 0.916395 0.34067
vn 0.4721237 -0.7536735 -0.4572477
v 0.000692465 0.369427 0.308253
vt 0.209644 0.0363793
vn 0.000241439 -0.9929348 0.118661
vn -0.227259 -0.96928 0.0940728
vn -0.277884 -0.9603099 0.0241956
vn 0.0002101131 -0.9845933 0.17486
vn 0.230207 -0.9684388 0.09555679
vn 0.2815048 -0.9592085 0.02596019
v -0.0806399 0.180438 -0.370654
vt 0.855585 0.331551
vn -0.04964609 0.9837248 -0.1726869
v -0.0818686 0.154942 -0.409299
vt 0.854888 0.347787
vn 0.135971 0.8249531 -0.548602
v -0.139162 0.154932 -0.400074
vt 0.822389 0.343912
vn -0.2981299 0.9303366 -0.2135239
v -0.00514857 0.196083 -0.263974
vt 0.898406 0.28673
vn -0.02999831 0.9918013 -0.124219
v 0 0.193933 -0.348448
vt 0.642547 0.111002
v -0.0523786 0.178638 -0.363826
vt 0.301557 0.0681298
vn -0.2312291 0.9586565 -0.1658641
v 0 0.197632 -0.25694
vt 0.642547 0.366115
vn -0.269541 0.962203 -0.0388982
v 0.0523786 0.178657 -0.363844
vt 0.983538 0.0680811
vn 0.230834 0.958744 -0.165908
vn 0.269201 0.962298 -0.0389021
v 0.0806399 0.180458 -0.370672
vt 0.947067 0.331559
vn 0.04929598 0.9837347 -0.1727309
v 0.139162 0.154971 -0.400109
vt 0.980263 0.343927
vn 0.2977281 0.9304314 -0.2136711
v 0.0818686 0.154961 -0.409316
vt 0.947764 0.347795
vn -0.1363801 0.8248994 -0.5485812
v 0.00514765 0.196085 -0.263974
vt 0.90468 0.28673
vn 0.0295098 0.991796 -0.124378
vt 0.903812 0.28673
v -0.0512227 0.751392 -0.141585
vt 0.903953 0.322377
vn 0.06262422 -0.9940022 0.08965451
v -0.0273737 0.776828 -0.2251
vn -0.02130971 -0.9546872 -0.296847
v 0.00815968 0.751392 -0.145848
v 0.0204222 0.787124 0.0618901
vn 0.07661182 -0.9969413 0.01544451
v -0.0461061 0.7789631 0.0666659
v 0.00124696 0.723155 0.17359
vn 0.07190798 -0.8708008 -0.4863489
vn -0.06301077 0.9938084 -0.09151205
vn 0.02130971 0.9546872 0.296847
vn -0.07664379 0.9969798 -0.012528
vn -0.07190798 0.8708008 0.4863489
v 0.116997 0.688071 -0.124598
vn -0.107182 -0.9646534 0.2407401
v 0.0597379 0.68524 -0.140655
v 0.110712 0.698078 -0.214324
vn 0.08150301 -0.9898872 -0.116106
v 0.0230577 0.750192 0.0320966
vn -0.121981 -0.9809248 0.151351
v 0.0872073 0.74054 0.0500853
v 0.00124696 0.711977 0.17359
vn -0.06880081 -0.9604002 -0.269996
vn 0.104047 0.9664431 -0.234866
vn -0.08150301 0.9898872 0.116106
vn 0.121248 0.9820801 -0.144283
vn 0.06880081 0.9604002 0.269996
v 0 0.563993 0.358065
vt 0.0758883 0.953488
vn 0 0.3012389 0.9535487
vn 0.04076479 -0.9668206 0.2521829
vn -0.04037179 -0.9668217 0.2522419
o merged_0_0_node
g polygon_0
usemtl lambert3_mat_id
f 1/1/1 2/1/2 3/1/3
f 1/1/1 4/1/4 2/1/2
f 1/1/1 3/1/3 5/1/5
f 1/1/1 6/1/6 4/1/4
f 1/1/1 5/1/5 7/1/7
f 1/1/1 7/1/7 6/1/6
f 2/1/2 8/1/8 3/1/3
f 2/1/2 4/1/4 9/1/9
f 2/1/2 9/1/9 8/1/8
f 5/1/5 10/1/10 7/1/7
f 5/1/5 3/1/3 10/1/10
f 6/1/6 11/1/11 4/1/4
f 6/1/6 7/1/7 12/1/12
f 6/1/6 12/1/12 11/1/11
f 9/1/9 13/1/13 8/1/8
f 9/1/9 4/1/4 14/1/14
f 9/1/9 15/1/15 13/1/13
f 9/1/9 14/1/14 15/1/15
f 4/1/4 11/1/11 14/1/14
f 3/1/3 16/1/16 10/1/10
f 3/1/3 8/1/8 16/1/16
f 13/1/13 15/1/15 17/1/17
f 13/1/13 18/1/18 8/1/8
f 13/1/13 17/1/17 19/1/19
f 13/1/13 19/1/19 18/1/18
f 8/1/8 18/1/18 16/1/16
f 11/1/11 20/1/20 14/1/14
f 10/1/10 16/1/16 21/1/21
f 21/1/21 16/1/16 18/1/18
f 15/1/15 22/1/22 17/1/17
f 15/1/15 14/1/14 22/1/22
f 14/1/14 20/1/20 22/1/22
f 19/1/19 17/1/17 23/1/23
f 19/1/19 23/1/23 24/1/24
f 20/1/20 25/1/25 22/1/22
f 20/1/20 26/1/26 25/1/25
f 17/1/17 27/1/27 23/1/23
f 17/1/17 22/1/22 27/1/27
f 22/1/22 25/1/25 27/1/27
f 24/1/24 23/1/23 28/1/28
f 24/1/24 28/1/28 29/1/29
f 28/1/28 25/1/25 26/1/26
f 28/1/28 23/1/23 27/1/27
f 28/1/28 26/1/26 29/1/29
f 28/1/28 27/1/27 25/1/25
f 30/2/30 31/3/31 32/4/32
f 30/2/30 33/5/33 31/3/31
f 30/2/30 32/4/32 34/6/34
f 30/2/30 35/7/35 33/5/33
f 30/2/30 34/6/34 36/8/36
f 30/2/30 36/8/36 35/7/35
f 31/3/31 37/9/37 32/4/32
f 31/3/31 33/5/33 37/9/37
f 34/6/34 38/10/38 36/8/36
f 35/7/35 36/8/36 39/11/39
f 32/4/32 37/9/37 40/12/40
f 33/5/33 41/13/41 37/9/37
f 38/10/38 42/14/42 36/8/36
f 36/8/36 42/14/42 39/11/39
f 40/12/40 37/9/37 43/15/43
f 43/15/43 37/9/37 41/13/41
f 44/16/44 45/17/45 46/18/46
f 44/16/44 47/18/47 45/17/45
f 44/16/44 46/18/46 48/19/48
f 44/16/44 49/19/49 47/18/47
f 44/16/44 48/19/48 50/20/50
f 44/16/44 50/20/50 49/19/49
f 45/17/45 51/21/51 46/18/46
f 45/17/45 47/18/47 52/21/52
f 48/19/48 46/18/46 53/22/53
f 53/22/53 46/18/46 51/21/51
f 49/19/49 54/22/54 47/18/47
f 47/18/47 54/22/54 52/21/52
f 55/23/55 19/24/19 24/25/24
f 55/23/55 18/26/18 19/24/19
f 55/23/55 24/25/24 29/27/29
f 55/23/55 56/28/56 18/26/18
f 55/23/55 29/27/29 56/28/56
f 29/27/29 57/23/57 58/28/58
f 29/27/29 26/25/26 57/23/57
f 58/28/58 57/23/57 11/26/11
f 26/25/26 20/24/20 57/23/57
f 57/23/57 20/24/20 11/26/11
f 59/29/59 60/30/60 61/31/61
f 59/29/59 62/32/62 60/30/60
f 59/29/59 61/31/61 63/33/63
f 59/29/59 63/33/63 62/32/62
f 60/30/60 62/32/62 64/34/64
f 60/30/60 64/34/64 65/35/65
f 62/32/62 66/36/66 64/34/64
f 64/34/64 66/36/66 65/35/65
f 67/37/67 48/19/68 53/22/69
f 67/37/67 50/20/70 48/19/68
f 67/37/67 49/19/71 50/20/70
f 67/37/67 54/22/72 49/19/71
f 68/38/73 69/39/74 70/40/75
f 68/38/73 71/41/76 69/39/74
f 68/38/73 70/40/75 71/41/76
f 72/42/30 73/43/77 74/44/78
f 72/42/30 75/45/79 73/43/77
f 72/42/30 74/44/80 75/45/79
f 76/46/81 77/47/82 78/48/83
f 76/46/81 79/49/84 77/47/82
f 76/46/81 78/48/83 79/50/84
f 80/51/85 81/51/86 82/51/85
f 80/51/85 82/51/85 83/51/87
f 80/51/85 83/51/87 84/51/87
f 83/51/87 85/51/88 84/51/87
f 80/51/89 82/51/89 81/51/90
f 80/51/89 83/51/91 82/51/89
f 80/51/89 84/51/91 83/51/91
f 84/51/91 85/51/92 83/51/91
f 86/51/93 87/51/93 88/51/94
f 86/51/93 89/51/95 87/51/93
f 86/51/93 90/51/95 89/51/95
f 90/51/95 91/51/96 89/51/95
f 86/51/97 88/51/98 87/51/97
f 86/51/97 87/51/97 89/51/99
f 86/51/97 89/51/99 90/51/99
f 89/51/99 91/51/100 90/51/99
f 92/52/101 10/52/10 21/52/21
f 92/52/101 7/52/7 10/52/10
f 92/52/101 12/52/12 7/52/7
f 21/52/21 18/52/18 56/52/56
f 12/52/12 58/52/58 11/52/11
f 75/45/70 74/44/70 73/43/70
f 70/40/102 69/39/102 71/41/102
f 79/49/103 78/48/103 77/47/103
v -0.155177 0.188169 -0.158876
vt 0.30518 0.682947
vn 0.17493 0.250616 -0.9521508
v -0.1830056 0.2499371 -0.03670341
vt 0.270243 0.529563
vn 0.4561463 0.8882902 0.05358223
vt 0.359949 0.681297
vn -0.10648 0.5509142 -0.8277413
v -0.0854738 0.238816 0.0600996
vt 0.39269 0.40803
vn -0.157484 0.9330853 0.3233431
v -0.16218 0.189656 0.0770991
vt 0.296388 0.386687
vn 0.7718387 -0.4166088 0.4803148
v -0.2707603 0.328907 -0.1285583
vt 0.160081 0.64488
vn 0.332146 0.889875 0.3127322
v -0.2882619 0.3200978 -0.001682462
vt 0.13811 0.485598
vn 0.5813875 0.7128846 -0.3921532
v -0.3573464 0.2086768 -0.1915399
vt 0.0513808 0.723948
vn -0.265608 -0.9076661 -0.3249531
v -0.152024 0.064044 -0.144511
vt 0.309138 0.664913
vn -0.444053 -0.7926871 -0.417689
v -0.384873 0.2168918 -0.05124041
vt 0.0168252 0.547814
vn -0.8276615 -0.5100142 0.2342268
v -0.182342 0.0769038 0.0448471
vt 0.271075 0.427179
vn -0.147755 -0.7469271 0.6482811
v -0.3394752 0.2568597 0.02855014
vt 0.0738167 0.447644
vn -0.4000091 -0.09651385 0.9114153
v -0.3982761 0.3196108 -0.086955
vt 0 0.592651
vn -0.8606071 0.3253862 -0.3917642
v -0.3078812 0.2613143 -0.214269
vt 0.113479 0.752483
vn -0.4083336 -0.2495349 -0.8780638
v -0.0557382 0.203684 0.15466
vt 0.430022 0.289312
vn -0.3167131 0.5882521 0.7440781
v 0 0.0358922 -0.160819
vt 0.5 0.685387
vn 0 -0.9341735 -0.3568192
v -0.0926163 0.025157 -0.00930134
vt 0.383723 0.495161
vn 0.478661 -0.8516809 -0.213362
v 0 0.0907494 -0.206337
vt 0.5 0.742532
vn 0 -0.04566419 -0.9989569
vt 0.640051 0.681297
vn 0.895712 0.426519 -0.125625
v -0.113335 0.101865 0.128935
vt 0.357711 0.321609
vn -0.560464 -0.316509 0.7653119
v 0 0.0499332 0.144413
vt 0.5 0.302177
vn 0 -0.8599739 0.5103379
v 0.113335 0.101865 0.128935
vt 0.642289 0.321609
vn 0.5604641 -0.316508 0.7653121
v 0.182342 0.0769038 0.0448471
vt 0.728925 0.427179
vn 0.5694583 -0.7640424 0.3032432
v 0.16218 0.189656 0.077099
vt 0.703612 0.386687
vn 0.377688 0.291992 0.878688
v 0 0.135 0.18795
vt 0.5 0.247518
vn 0 -0.103844 0.9945936
v 0.0557382 0.203684 0.15466
vt 0.569978 0.289312
vn 0.283749 0.6442869 0.7101979
vt 0.60731 0.40803
vn 0.14701 0.9341208 0.3252789
v 0.152024 0.064044 -0.144511
vt 0.690862 0.664913
vn 0.444053 -0.7926871 -0.417689
v 0.155177 0.188169 -0.158876
vt 0.69482 0.682947
vn -0.17493 0.250616 -0.9521508
v 0.0926163 0.025157 -0.00930134
vt 0.616277 0.495161
vn 0.2118939 -0.9752345 0.06339257
v 0.1830055 0.2499371 -0.03670341
vt 0.729757 0.529563
vn -0.4561466 0.88829 0.05358233
v 0.2707602 0.328907 -0.1285583
vt 0.83992 0.64488
vn -0.5813882 0.7128841 -0.392153
v 0.3078811 0.2613145 -0.214269
vt 0.886522 0.752483
vn 0.4083337 -0.2495342 -0.878064
v 0.398276 0.319611 -0.08695503
vt 1 0.592651
vn 0.8606068 0.3253871 -0.3917642
v 0.2882618 0.3200979 -0.001682445
vt 0.86189 0.485598
vn -0.3321469 0.8898746 0.3127326
v 0.3573464 0.208677 -0.1915399
vt 0.948619 0.723948
vn 0.2656088 -0.9076658 -0.3249535
v 0.3848729 0.216892 -0.05124046
vt 0.983175 0.547814
vn 0.8276619 -0.5100135 0.2342266
v 0.3394751 0.2568598 0.02855014
vt 0.926183 0.447644
vn 0.4000092 -0.09651378 0.9114152
o merged_1_0_node
g polygon_0
usemtl bird_lambert2_mat_id
f 93/53/104 94/54/105 32/55/106
f 95/56/107 32/55/106 94/54/105
f 95/56/107 94/54/105 96/57/108
f 97/58/109 98/59/110 94/54/105
f 98/59/110 96/57/108 94/54/105
f 97/58/109 94/54/105 93/53/104
f 99/60/111 100/61/112 101/62/113
f 100/61/112 102/63/114 101/62/113
f 103/64/115 101/62/113 102/63/114
f 99/60/111 101/62/113 104/65/116
f 98/59/110 103/64/115 96/57/108
f 96/57/108 103/64/115 102/63/114
f 98/59/110 104/65/116 103/64/115
f 104/65/116 101/62/113 103/64/115
f 93/53/104 105/66/117 97/58/109
f 97/58/109 105/66/117 104/65/116
f 104/65/116 98/59/110 97/58/109
f 93/53/104 100/61/112 105/66/117
f 105/66/117 100/61/112 99/60/111
f 104/65/116 105/66/117 99/60/111
f 106/67/118 95/56/107 96/57/108
f 107/68/119 108/69/120 100/61/112
f 107/68/119 100/61/112 109/70/121
f 109/70/121 100/61/112 93/53/104
f 93/53/104 32/55/106 109/70/121
f 33/71/122 109/70/121 32/55/106
f 100/61/112 108/69/120 102/63/114
f 110/72/123 102/63/114 111/73/124
f 111/73/124 102/63/114 108/69/120
f 96/57/108 102/63/114 110/72/123
f 112/74/125 113/75/126 114/76/127
f 110/72/123 111/73/124 115/77/128
f 96/57/108 110/72/123 106/67/118
f 106/67/118 110/72/123 115/77/128
f 114/76/127 116/78/129 112/74/125
f 112/74/125 116/78/129 115/77/128
f 114/76/127 35/79/130 116/78/129
f 107/68/119 109/70/121 117/80/131
f 117/80/131 109/70/121 118/81/132
f 119/82/133 107/68/119 117/80/131
f 109/70/121 33/71/122 118/81/132
f 112/74/125 111/73/124 113/75/126
f 113/75/126 111/73/124 119/82/133
f 113/75/126 119/82/133 117/80/131
f 115/77/128 111/73/124 112/74/125
f 116/78/129 106/67/118 115/77/128
f 106/67/118 116/78/129 95/56/107
f 95/56/107 116/78/129 35/79/130
f 108/69/120 107/68/119 119/82/133
f 111/73/124 108/69/120 119/82/133
f 35/79/130 114/76/127 120/83/134
f 33/71/122 120/83/134 118/81/132
f 35/79/130 120/83/134 33/71/122
f 118/81/132 121/84/135 122/85/136
f 122/85/136 121/84/135 123/86/137
f 114/76/127 124/87/138 120/83/134
f 120/83/134 124/87/138 121/84/135
f 120/83/134 121/84/135 118/81/132
f 125/88/139 117/80/131 122/85/136
f 122/85/136 117/80/131 118/81/132
f 113/75/126 117/80/131 126/89/140
f 126/89/140 117/80/131 125/88/139
f 127/90/141 113/75/126 126/89/140
f 123/86/137 125/88/139 122/85/136
f 124/87/138 114/76/127 127/90/141
f 127/90/141 114/76/127 113/75/126
f 124/87/138 127/90/141 123/86/137
f 123/86/137 127/90/141 126/89/140
f 123/86/137 121/84/135 124/87/138
f 125/88/139 123/86/137 126/89/140
v 0 0.463766 0.358836
vt -0.183345 0.842496
vn 0 -0.09061807 0.9958857
vt 0.88638 0.856434
vt -0.183345 0.73227
vt -0.183345 1.00982
vt 0.893116 1.00982
o merged_2_0_node
g polygon_0
usemtl TEX_ANIM_EYE_mat_id
f 128/91/142 56/92/56 29/93/29
f 58/92/58 128/91/142 29/93/29
f 128/91/142 92/94/101 56/92/56
f 56/92/56 92/94/101 21/95/21
f 128/91/142 58/92/58 92/94/101
f 92/94/101 58/92/58 12/95/12
