mtllib Illumise.mtl
v 0 0.241312 -0.0764363
vt 0.873893 0.0981569
vn 0 -0.9414921 -0.337035
v 0 0.222835 0.00527123
vt 0.860505 0.0951293
vn 0 -0.9753725 -0.2205641
v -0.0955869 0.245175 0.0370702
vt 0.855295 0.0987898
vn 0.0544733 -0.9912201 -0.12048
v 0.0955869 0.245175 0.0370702
vn -0.05447361 -0.9912201 -0.12048
v -0.200138 0.267136 -0.0538618
vt 0.870194 0.102388
vn -0.699709 -0.653042 -0.28973
v 0.200138 0.267136 -0.0538618
vn 0.699709 -0.653042 -0.28973
v -0.128697 0.292215 -0.141329
vt 0.884527 0.106498
vn -0.3700161 -0.5661591 -0.7365812
v 0.128697 0.292215 -0.141329
vn 0.370017 -0.566159 -0.736581
v 0 0.312885 -0.181653
vt 0.891134 0.109885
vn 0 -0.4429048 -0.8965687
v -0.1659 0.256572 0.0825576
vt 0.850664 0.100657
vn -0.4021479 -0.8729277 0.2761779
v -0.114946 0.301268 0.163472
vt 0.837135 0.107981
vn 0.7310718 -0.3112829 0.6071548
v -0.119659 0.368225 0.120044
vt 0.847274 0.119385
vn 0.8877842 0.4232461 -0.180837
v -0.164646 0.306208 0.0370702
vt 0.855295 0.108791
vn 0.563382 0.4856139 -0.668416
v 0.1659 0.256572 0.0825576
vn 0.4021482 -0.8729275 0.2761782
v 0.114946 0.301268 0.163472
vn -0.7310718 -0.3112829 0.6071548
v 0.119659 0.368225 0.120044
vn -0.8877842 0.4232461 -0.180837
v 0.164646 0.306208 0.0370702
vn -0.563382 0.4856139 -0.668416
v -0.150361 0.410855 -0.148777
vt 0.885747 0.125938
vn -0.6078979 0.157716 -0.7781939
v 0.150361 0.410855 -0.148777
vn 0.6078979 0.157716 -0.7781939
v -0.180642 0.304364 0.114658
vt 0.847417 0.110244
vn -0.8919838 -0.184478 0.4127139
v -0.150042 0.361601 0.0534276
vt 0.85523 0.120237
vn 0.5883137 0.2562449 -0.7669587
v 0.180642 0.304364 0.114658
vn 0.8919838 -0.184478 0.4127139
v 0.150042 0.361601 0.0534276
vn -0.588313 0.256245 -0.7669591
v 0.12054 0.361435 0.165515
vt 0.838674 0.115052
vn -0.201769 0.292589 0.934709
v 0.158473 0.39338 0.118201
vt 0.840213 0.122124
vn 0.351491 0.9360781 -0.0145579
v 0 0.439627 -0.200827
vt 0.894276 0.130652
vn 0 0.180349 -0.9836027
v -0.221034 0.364598 -0.010804
vt 0.865744 0.119111
vn -0.9915038 0.126856 0.02877119
v 0 0.548177 -0.144857
vt 0.885105 0.148439
vn 0 0.799015 -0.6013111
v -0.168729 0.50122 -0.0771511
vt 0.87401 0.140744
vn -0.716997 0.644835 -0.26477
v -0.12054 0.361435 0.165515
vn 0.201769 0.292589 0.934709
v -0.177231 0.3564 0.132473
vt 0.843815 0.116184
vn -0.9088678 0.164221 0.3833939
v -0.158473 0.39338 0.118201
vn -0.351491 0.9360781 -0.0145581
v 0.221034 0.364598 -0.010804
vn 0.9915038 0.126856 0.02877109
v 0.177231 0.3564 0.132473
vn 0.9088678 0.164221 0.3833939
v 0 0.555111 -0.0458018
vt 0.868874 0.149575
vn 0 0.9934094 0.11462
v -0.12994 0.445731 0.0259673
vt 0.858634 0.131652
vn -0.6285197 0.5292478 0.5699647
v -0.0798686 0.50475 0.00566674
vt 0.86044 0.141323
vn -0.391948 0.813674 0.429315
vn -0.5246924 0.5961224 0.6077303
v 0.168729 0.50122 -0.0771511
vn 0.716997 0.644835 -0.26477
vn 0.524693 0.596122 0.60773
v 0 0.517741 -0.00386945
vt 0.862003 0.143451
vn 0 0.7465521 0.6653271
v 0.12994 0.445731 0.0259673
vn 0.6285197 0.5292478 0.5699647
v 0.0798686 0.50475 0.00566675
vn 0.3919488 0.8136737 0.4293149
v 0 0.254171 0.126705
vt 0.609482 0.104166
vn 0 -0.9064395 0.4223358
vt 0.627921 0.102316
vn -0.3276699 -0.8970818 0.29644
vt 0.634463 0.0977205
vn 0 -0.968282 0.24986
v -0.125429 0.295056 0.129233
vt 0.608962 0.112577
vn -0.554661 -0.5902 0.586528
vn 0.3276699 -0.8970818 0.29644
v 0 0.29132 0.178252
vt 0.598879 0.111809
vn 0 -0.5538798 0.8325967
v 0.125429 0.295056 0.129233
vn 0.554661 -0.5902 0.586528
vt 0.627921 0.114871
vn -0.8539501 -0.415633 0.313079
vn 0.8539501 -0.415633 0.313079
vt 0.62784 0.129242
vn -0.936154 0.207593 0.283762
v -0.13518 0.350395 0.132115
vt 0.608369 0.123961
vn -0.679852 0.117685 0.723845
v 0 0.344499 0.192533
vt 0.595941 0.122748
vn 0 0.06996622 0.9975494
vn 0.936154 0.207593 0.283762
v -0.110433 0.426614 0.119709
vt 0.610922 0.13964
vn -0.5555541 0.5461851 0.6269302
vt 0.632114 0.143572
vn -0.7947917 0.5406688 0.2756509
v 0.13518 0.350395 0.132115
vn 0.6798521 0.117684 0.7238451
vt 0.634381 0.155713
vn -0.3944091 0.8426901 0.36649
v 0 0.498813 0.0855353
vt 0.617951 0.154492
vn 0 0.8614584 0.5078282
v 0 0.426614 0.168201
vt 0.600946 0.13964
vn 0 0.5351121 0.8447811
v 0.110433 0.426614 0.119709
vn 0.5555541 0.5461851 0.6269302
vn 0.7947917 0.5406688 0.2756509
vt 0.636343 0.158386
vn 0 0.978316 0.207118
v 0.0798686 0.50475 0.00566674
vn 0.3944091 0.8426901 0.36649
v 0.114795 0.509835 0.125458
vt 0.372266 0.108621
vn 0.896879 -0.442276 0
v 0.0971597 0.518532 0.110583
vt 0.377706 0.114612
vn 0 0 -1
v 0.13167 0.588515 0.125458
vt 0.372266 0.148691
vn 0.4422752 0.8968794 4.014452E-06
v 0.0626491 0.448549 0.125458
vt 0.372266 0.0805328
vn -0.442278 -0.896878 2.26456E-06
v 0.0971597 0.518532 0.140332
vt 0.366826 0.114612
vn 0 0 1
v 0.0795246 0.527228 0.125458
vt 0.372266 0.120602
vn -0.896879 0.442276 0
v -0.114795 0.509836 0.125458
vn -0.896879 -0.442276 0
v -0.13167 0.588515 0.125458
vn -0.4422732 0.8968804 0
v -0.0971597 0.518532 0.110583
v -0.0971597 0.518532 0.140332
v -0.0626491 0.448549 0.125458
vn 0.4422772 -0.8968784 0
v -0.0795246 0.527228 0.125458
vn 0.896879 0.442276 0
vt 0.0083501 0.991906
vt 1.71991 0.317227
vt 0.0083501 0.266248
v 0.1298999 0.253858 -0.2636171
vt 0.144804 0.105511
vn -0.8660251 0 -0.5000004
v 0.08621455 0.334864 -0.1879531
vt 0.106656 0.147241
v 0.160342 0.393025 -0.3163456
vt 0.156122 0.151726
v 0.05814946 0.205118 -0.1393428
vt 0.094128 0.11285
vn 0.8660251 0 0.5000004
v -0.1298929 0.253858 -0.2636132
vn 0.8660251 0 -0.5000004
v -0.160336 0.393025 -0.3163417
v -0.08620778 0.334864 -0.1879481
v -0.05814259 0.205118 -0.1393379
vn -0.8660251 0 0.5000004
o merged_0_0_node
g polygon_0
usemtl mat_head_mat_id
f 1/1/1 2/2/2 3/3/3
f 1/1/1 4/3/4 2/2/2
f 1/1/1 3/3/3 5/4/5
f 1/1/1 6/4/6 4/3/4
f 1/1/1 5/4/5 7/5/7
f 1/1/1 8/5/8 6/4/6
f 1/1/1 7/5/7 9/6/9
f 1/1/1 9/6/9 8/5/8
f 3/3/3 10/7/10 5/4/5
f 3/3/3 11/8/11 10/7/10
f 3/3/3 12/9/12 11/8/11
f 3/3/3 13/10/13 12/9/12
f 4/3/4 6/4/6 14/7/14
f 4/3/4 14/7/14 15/8/15
f 4/3/4 15/8/15 16/9/16
f 4/3/4 16/9/16 17/10/17
f 7/5/7 18/11/18 9/6/9
f 7/5/7 5/4/5 18/11/18
f 8/5/8 19/11/19 6/4/6
f 8/5/8 9/6/9 19/11/19
f 10/7/10 11/8/11 20/12/20
f 10/7/10 20/12/20 5/4/5
f 13/10/13 21/13/21 12/9/12
f 14/7/14 22/12/22 15/8/15
f 14/7/14 6/4/6 22/12/22
f 16/9/16 23/13/23 17/10/17
f 16/9/16 15/8/15 24/14/24
f 16/9/16 25/15/25 23/13/23
f 16/9/16 24/14/24 25/15/25
f 18/11/18 26/16/26 9/6/9
f 18/11/18 5/4/5 27/17/27
f 18/11/18 28/18/28 26/16/26
f 18/11/18 27/17/27 29/19/29
f 18/11/18 29/19/29 28/18/28
f 26/16/26 28/18/28 19/11/19
f 26/16/26 19/11/19 9/6/9
f 5/4/5 20/12/20 27/17/27
f 11/8/11 12/9/12 30/14/30
f 11/8/11 31/20/31 20/12/20
f 11/8/11 30/14/30 31/20/31
f 21/13/21 32/15/32 12/9/12
f 21/13/21 20/12/20 31/20/31
f 21/13/21 31/20/31 32/15/32
f 32/15/32 31/20/31 30/14/30
f 32/15/32 30/14/30 12/9/12
f 6/4/6 33/17/33 22/12/22
f 6/4/6 19/11/19 33/17/33
f 15/8/15 34/20/34 24/14/24
f 15/8/15 22/12/22 34/20/34
f 34/20/34 23/13/23 25/15/25
f 34/20/34 25/15/25 24/14/24
f 34/20/34 22/12/22 23/13/23
f 29/19/29 35/21/35 28/18/28
f 29/19/29 27/17/27 36/22/36
f 29/19/29 37/23/37 35/21/35
f 29/19/29 36/22/36 37/23/37
f 20/12/20 21/13/38 27/17/27
f 27/17/27 21/13/38 36/22/36
f 19/11/19 38/19/39 33/17/33
f 19/11/19 28/18/28 38/19/39
f 28/18/28 35/21/35 38/19/39
f 22/12/22 33/17/33 23/13/40
f 37/23/37 39/24/41 35/21/35
f 38/19/39 40/22/42 33/17/33
f 38/19/39 35/21/35 41/23/43
f 38/19/39 41/23/43 40/22/42
f 40/22/42 23/13/40 33/17/33
f 41/23/43 35/21/35 39/24/41
f 42/25/44 3/26/45 2/27/46
f 42/25/44 43/28/47 3/26/45
f 42/25/44 2/27/46 4/26/48
f 42/25/44 44/29/49 43/28/47
f 42/25/44 4/26/48 45/28/50
f 42/25/44 45/28/50 44/29/49
f 3/26/45 43/28/47 13/30/51
f 4/26/48 17/30/52 45/28/50
f 43/28/47 21/31/53 13/30/51
f 43/28/47 46/32/54 21/31/53
f 43/28/47 47/33/55 46/32/54
f 17/30/52 23/31/56 45/28/50
f 21/31/53 46/32/54 48/34/57
f 21/31/53 48/34/57 36/35/58
f 47/33/55 45/28/50 49/32/59
f 45/28/50 23/31/56 49/32/59
f 48/34/57 37/36/60 36/35/58
f 48/34/57 50/37/61 37/36/60
f 48/34/57 51/38/62 50/37/61
f 23/31/56 52/34/63 49/32/59
f 23/31/56 40/35/64 52/34/63
f 51/38/62 52/34/63 50/37/61
f 37/36/60 50/37/61 39/39/65
f 40/35/64 53/36/66 52/34/63
f 53/36/66 39/39/65 50/37/61
f 53/36/66 50/37/61 52/34/63
f 54/40/67 55/41/68 56/42/69
f 54/40/67 57/43/70 55/41/68
f 54/40/67 56/42/69 58/44/71
f 54/40/67 58/44/71 57/43/70
f 55/41/68 59/45/72 56/42/69
f 55/41/68 57/43/70 59/45/72
f 59/45/72 58/44/71 56/42/69
f 59/45/72 57/43/70 58/44/71
f 60/40/73 61/42/74 62/41/68
f 60/40/73 63/44/71 61/42/74
f 60/40/73 62/41/68 64/43/75
f 60/40/73 64/43/75 63/44/71
f 61/42/74 65/45/76 62/41/68
f 61/42/74 63/44/71 65/45/76
f 65/45/76 64/43/75 62/41/68
f 65/45/76 63/44/71 64/43/75
f 47/46/55 43/47/47 44/48/49
f 47/46/55 44/48/49 45/47/50
f 66/49/77 67/50/77 68/51/77
f 66/49/77 69/52/77 67/50/77
f 66/49/78 68/51/78 67/50/78
f 66/49/78 67/50/78 69/52/78
f 70/49/79 71/51/79 72/50/79
f 70/49/79 72/50/79 73/52/79
f 70/49/80 72/50/80 71/51/80
f 70/49/80 73/52/80 72/50/80
v -0.0648088 0.0342722 0.103214
vt -0.187381 0.240868
vn -0.5150309 -0.6319558 0.5791159
v -0.136486 0.0884007 0
vt -0.497272 0.385751
vn -0.9708504 -0.01245941 -0.2393621
v -0.129618 0.0342722 0.0006186141
vt -0.374762 0.184467
vn -0.9033176 -0.4289699 0.00146303
v -0.0682432 0.0884007 0.120933
vt -0.203633 0.385751
vn -0.382281 -0.196837 0.902838
v -0.0573382 0 0
vt -0.171093 0
vn -0.1124039 -0.9936595 -0.002471729
v 0 0.0884007 0.120933
vt 0 0.385751
vn 0 0.0844823 0.996425
v 0 0.0169234 0
vt 0 0.103391
vn 0 -0.9999993 0.00115813
v 0.0648088 0.0342722 0.103214
vt 0.187381 0.240868
vn 0.5150309 -0.6319558 0.5791159
v -0.167564 0.160516 0.128299
vt -0.5 0.700437
vn -0.8127772 0.149886 0.5629632
v 0.0682431 0.0884007 0.120933
vt 0.203633 0.385751
vn 0.382281 -0.196837 0.902838
v 0.0573382 0 0
vt 0.171093 0
vn 0.1124039 -0.9936595 -0.002471669
v -0.0477949 0.227942 0.0784182
vt -0.16365 0.947734
vn -0.120146 0.742847 0.6585919
v 0.136486 0.0884007 0
vt 0.497272 0.385751
vn 0.9708505 -0.01245929 -0.2393619
v 0.167564 0.160516 0.128299
vt 0.5 0.700437
vn 0.8127772 0.149886 0.5629632
v 0.0477949 0.227942 0.0784182
vt 0.16365 0.947734
vn 0.1201449 0.7428466 0.6585926
v 0.129618 0.0342722 0.0006186141
vt 0.374762 0.184467
vn 0.9033176 -0.4289699 0.001463289
v -0.0955898 0.227942 -0.0161303
vt -0.503017 0.947734
vn -0.8028092 0.4916201 -0.3373531
v 0 0.243504 0
vt 0 1
vn 0 0.9999289 0.0119284
v 0.0955898 0.227942 -0.0161303
vt 0.503017 0.947734
vn 0.8028092 0.4916201 -0.3373531
v 0.0477949 0.227942 -0.0999253
vt 1.08255 0.821426
vn 0.4584289 0.3681119 -0.8089108
v 0.0682432 0.0884007 -0.120933
vt 1.10271 0.537962
vn 0.5243162 0.1282761 -0.8418062
v -0.0682431 0.0884007 -0.120933
vt 0.897288 0.537962
vn -0.5243158 0.1282759 -0.8418066
vt 1.16509 0.821426
v -0.0477949 0.227942 -0.0999253
vt 0.917455 0.821426
vn -0.4584289 0.3681119 -0.8089108
vt 1 0.847789
vt 1.20542 0.537962
vt 0.83491 0.821426
vt 0.794575 0.537962
v -0.0648088 0.0342722 -0.123141
vt 0.812619 0.240868
vn -0.414886 -0.512447 -0.7518429
vt 0.625238 0.184467
vt 0.796367 0.385751
vt 0.828907 0
vt 1 0.103391
v 0.0648088 0.0342722 -0.123141
vt 1.18738 0.240868
vn 0.414886 -0.512447 -0.7518429
vt 0.592734 0.385751
vt 1.17109 0
vt 1.37476 0.184467
vt 1.20363 0.385751
vt 1.40727 0.385751
vt 0.75971 0.385751
vt 0.816247 0.947734
vt 1.5 0.700437
vt 1.24029 0.385751
vt 1.18375 0.947734
o merged_1_0_node
g polygon_0
usemtl mat_body_mat_id
f 74/53/81 75/54/82 76/55/83
f 74/53/81 77/56/84 75/54/82
f 74/53/81 76/55/83 78/57/85
f 74/53/81 79/58/86 77/56/84
f 74/53/81 78/57/85 80/59/87
f 74/53/81 81/60/88 79/58/86
f 74/53/81 80/59/87 81/60/88
f 75/54/82 77/56/84 82/61/89
f 79/58/86 81/60/88 83/62/90
f 80/59/87 84/63/91 81/60/88
f 77/56/84 85/64/92 82/61/89
f 83/62/90 81/60/88 86/65/93
f 83/62/90 86/65/93 87/66/94
f 83/62/90 87/66/94 88/67/95
f 84/63/91 89/68/96 81/60/88
f 81/60/88 89/68/96 86/65/93
f 85/64/92 90/69/97 82/61/89
f 85/64/92 88/67/95 91/70/98
f 85/64/92 91/70/98 90/69/97
f 87/66/94 92/71/99 88/67/95
f 88/67/95 92/71/99 91/70/98
f 93/72/100 94/73/101 95/74/102
f 93/72/100 92/75/99 94/73/101
f 93/72/100 95/74/102 96/76/103
f 93/72/100 91/77/98 92/75/99
f 93/72/100 96/76/103 91/77/98
f 94/73/101 92/75/99 86/78/93
f 95/74/102 90/79/97 96/76/103
f 95/74/102 75/80/82 90/79/97
f 90/79/97 91/77/98 96/76/103
f 97/81/104 76/82/83 95/83/102
f 97/81/104 78/84/85 76/82/83
f 97/81/104 80/85/87 78/84/85
f 97/81/104 98/86/105 80/85/87
f 95/83/102 76/82/83 75/87/82
f 98/86/105 84/88/91 80/85/87
f 98/86/105 89/89/96 84/88/91
f 98/86/105 94/90/101 89/89/96
f 94/90/101 86/91/93 89/89/96
f 75/92/82 82/66/89 90/93/97
f 87/94/94 86/95/93 92/96/99
vt 1.13804 0.752274
vt -0.514477 0.752274
vt 0.983596 0.996991
vt -0.514476 0.996991
o merged_2_0_node
g polygon_0
usemtl TEX_ANIM_EYE_mat_id
f 46/97/54 47/98/55 48/99/57
f 48/99/57 47/98/55 51/100/62
f 51/100/62 47/98/55 52/99/63
f 52/99/63 47/98/55 49/97/59
vt -1.02488 0.00506639
vt 0 0.00506639
vt -0.941232 0.991408
vt 0.941232 0.991408
vt 1.02488 0.00506639
o merged_3_0_node
g polygon_0
usemtl mat_chest_mat_id
f 77/101/84 79/102/86 85/103/92
f 85/103/92 79/102/86 88/104/95
f 79/102/86 83/105/90 88/104/95
vt 1.12443 0.00733702
vt -1.12443 0.00733702
vt 1.22195 1.04223
vt -1.22195 1.04223
o merged_4_0_node
g polygon_0
usemtl mat_hip_mat_id
f 98/106/105 97/107/104 94/108/101
f 94/108/101 97/107/104 95/109/102
