mtllib Vullaby.mtl
v 0 0.19171 0.000507818
vt 0.910587 0.415478
vn 0 0.9986658 0.05164009
v -0.160793 0.161726 0
vt 0.862493 0.415554
vn -0.1814969 0.9706087 0.158043
v -0.103598 0.13963 0.11507
vt 0.8796 0.398346
vn -0.4015698 0.9143216 0.05251447
v -0.113698 0.175147 -0.113698
vt 0.87658 0.432558
vn -0.1492329 0.9887886 0.005165358
v -0.0457104 0.20064 0.153681
vt 0.896915 0.392571
vn -0.3402338 0.9273785 -0.1555959
v 0 0.186743 -0.160793
vt 0.910587 0.439601
vn 0 0.9995262 -0.03078001
v -0.0212116 0.179575 0.157237
vt 0.904243 0.392039
vn -0.02605919 0.9969426 0.07366407
v 0.113698 0.175147 -0.113698
vt 0.944594 0.432558
vn 0.1492329 0.9887886 0.005165198
v 0 0.200957 0.160793
vt 0.910587 0.391508
vn 0 0.9983401 -0.05759371
v 0.160793 0.161726 0
vt 0.958681 0.415554
vn 0.1814969 0.9706087 0.158043
v 0.0212116 0.179575 0.157237
vt 0.916931 0.392039
vn 0.02605919 0.9969426 0.07366417
v 0.103598 0.13963 0.11507
vt 0.941574 0.398346
vn 0.4015702 0.9143214 0.05251472
v 0.0457104 0.20064 0.153681
vt 0.924259 0.392571
vn 0.3402341 0.9273784 -0.1555961
v 0 0.225002 0
vt 0.629297 0.675456
vn 0 -1 0
v -0.0806531 0.225002 -0.139695
vt 0.583398 0.675456
vn -0.243294 -0.8736319 -0.4213969
v 0 0.249228 -0.141129
vt 0.629297 0.682349
vn 0 -0.8181437 -0.5750138
v -0.122222 0.249228 -0.0705647
vt 0.567433 0.682349
vn -0.4979768 -0.8181436 -0.2875068
v 0.0806532 0.225002 -0.139695
vt 0.675196 0.675456
vn 0.243294 -0.8736319 -0.4213969
v -0.161306 0.225002 0
vt 0.537499 0.675456
vn -0.486587 -0.8736321 0
v 0.122222 0.249228 -0.0705647
vt 0.691162 0.682349
vn 0.4979768 -0.8181436 -0.2875068
v -0.122222 0.249228 0.0705647
vn -0.4979768 -0.8181436 0.2875068
v 0.161306 0.225002 0
vt 0.721096 0.675456
vn 0.486587 -0.8736321 0
v -0.0806532 0.225002 0.139695
vn -0.243294 -0.8736319 0.4213969
v 0.122222 0.249228 0.0705647
vn 0.4979768 -0.8181436 0.2875068
v 0 0.249228 0.141129
vn 0 -0.8181437 0.5750138
v 0.0806531 0.225002 0.139695
vn 0.243294 -0.8736319 0.4213969
v -0.0865716 0.303827 -0.149946
vt 0.583398 0.697885
vn -0.281039 0.8270841 -0.4867741
v 0.0865716 0.303827 -0.149946
vt 0.675196 0.697885
vn 0.2810389 0.8270848 -0.4867729
v -0.173143 0.303827 0
vt 0.537499 0.697885
vn -0.5620781 0.8270841 0
v 0.173143 0.303827 0
vt 0.721096 0.697885
vn 0.5620776 0.8270845 0
v -0.0865716 0.303827 0.149946
vn -0.281039 0.8270841 0.4867741
v 0.0865716 0.303827 0.149946
vn 0.2810389 0.8270848 0.4867729
v 0 0.279601 -0.125525
vt 0.629297 0.690992
vn 0 0.9356109 -0.353033
v -0.108708 0.279601 -0.0627624
vt 0.567433 0.690992
vn -0.305735 0.9356111 -0.176516
v 0 0.303827 0
vt 0.629297 0.697885
vn 0 1 0
v 0.108708 0.279601 -0.0627624
vt 0.691162 0.690992
vn 0.305736 0.9356108 -0.176516
v -0.108708 0.279601 0.0627624
vn -0.305736 0.9356108 0.176516
v 0 0.279601 0.125525
vn 0 0.9356109 0.353033
v 0.108708 0.279601 0.0627624
vn 0.305736 0.9356108 0.176516
v 0 0.730075 -0.208178
vt 0.171234 0.72166
vn 0 0.8403242 -0.5420842
v -0.0258037 0.61013 -0.173766
vt 0.14225 0.671147
vn -0.7980716 -0.4677358 -0.3798748
v -0.0409101 0.639076 -0.149475
vt 0.121791 0.683337
vn -0.9976312 0.05780511 -0.03728971
v 0 0.636183 -0.189061
vt 0.155132 0.682119
vn 0 0.2749849 -0.9614486
v -0.0258037 0.649271 -0.113089
vt 0.0911454 0.687631
vn -0.7980711 0.153244 0.582751
v 0.0258037 0.61013 -0.173766
vn 0.7980716 -0.4677358 -0.3798748
v 0 0.673948 -0.130519
vt 0.105826 0.698023
vn 0 0.9893042 0.145867
v 0.0409101 0.639076 -0.149475
vn 0.9976313 0.05780511 -0.03728941
v 0.0258037 0.649271 -0.113089
vn 0.7980711 0.153244 0.582751
v 0 0.548076 -0.090772
vt 0.0723488 0.645015
vn 0 -0.8403238 0.5420849
v 0 0.628077 -0.249733
vt 0.206234 0.678706
vn 0 -0.6869467 -0.7267078
v 0 0.725882 -0.09812
vt 0.0785376 0.719893
vn 0 0.3788509 0.9254577
v 0.0477653 0.226171 -0.0863765
vt 0.149497 0.823223
vn 0.379865 0.439678 -0.813871
v 0.0561256 0.102658 -0.109621
vt 0.154792 0.779978
vn 0.3201601 0.2441581 -0.9153603
v -0.0561256 0.102658 -0.109621
vt 0.0837042 0.779978
vn -0.3201601 0.2441581 -0.9153603
v 0.135554 0.160181 0
vt 0.205093 0.798192
vn 0.8758277 0.04010528 -0.4809548
v -0.0477653 0.226171 -0.0863765
vt 0.0889988 0.823223
vn -0.379865 0.439678 -0.813871
v 0.0955306 0.216977 0
vt 0.179746 0.823223
vn 0.5967261 0.654476 -0.464305
v 0 0.252422 0
vt 0.119248 0.8274
vn 0 0.997252 -0.07408341
v -0.135554 0.160181 0
vt 0.0334034 0.798192
vn -0.8758277 0.04010548 -0.4809548
v 0.0477653 0.239229 0.0863765
vn -0.0328003 0.582197 0.8123859
v -0.0955306 0.216977 0
vt 0.0587496 0.823223
vn -0.5967261 0.654476 -0.464305
v -0.0477653 0.239229 0.0863765
vn 0.0328002 0.582197 0.8123859
v 0.0874097 0.141919 0.0974279
vt 0.174603 0.79241
vn 0.1223809 -0.3036218 0.9449004
v -0.0874098 0.141919 0.0974279
vt 0.0638924 0.79241
vn -0.1223809 -0.3036218 0.9449004
v 0.0945759 0.0565881 -0.0945759
vt 0.285345 0.480954
vn 0.6095698 -0.4108139 -0.6779798
v 0 0.0565881 -0.13375
vt 0.5 0.480954
vn 0 -0.4552391 -0.8903692
vt 0.241945 0.610617
vn 0.642957 -0.224379 -0.732298
v 0 0.0131558 0
vt 0.5 0.37235
vn 0 -0.9949191 -0.100678
vt 0.0671581 0.600268
vn 0.9400134 -0.2189871 -0.2615711
v 0.0668752 0.0368637 -0.0369074
vt 0.326372 0.407639
vn 0.3185131 -0.9341624 -0.1609041
v 0.134063 0.0631248 0
vt 0.103436 0.481335
vn 0.9049069 -0.353583 -0.236902
vt 0.5 0.622654
vn 0 -0.2116259 -0.9773508
v -0.0945759 0.0565881 -0.0945759
vt 0.714655 0.480954
vn -0.6095698 -0.4108139 -0.6779798
vt 0.758055 0.610617
vn -0.642957 -0.224379 -0.732298
v 0.0344846 0.0223755 0.0115216
vt 0.380359 0.365156
vn 0.2216 -0.9686951 0.111907
vt 0.932842 0.600268
vn -0.9400134 -0.2189871 -0.2615711
v -0.0668752 0.0368637 -0.0369074
vt 0.673628 0.407639
vn -0.3185131 -0.9341624 -0.1609041
v -0.134063 0.0631248 0
vt 0.896564 0.481335
vn -0.9049069 -0.353583 -0.236902
v -0.0344846 0.0223755 0.0115216
vt 0.619641 0.365156
vn -0.2216 -0.9686951 0.111907
v 0 0.0954126 0.144139
vt 0.496271 0.200619
vn 0 -0.444389 0.895834
vt 0.448128 0.302196
vn -0.2265679 -0.1739699 0.9583327
v -0.0498847 0.098109 0.133881
vt 0.365338 0.200619
vn -0.3502991 -0.3503731 0.8686364
vt 0.544414 0.302196
vn 0.2265679 -0.1739709 0.9583325
v -0.0419891 0.045427 0.0942675
vt 0.40097 0.120755
vn -0.0896606 -0.8346499 0.543434
v 0.0498847 0.098109 0.133881
vt 0.627204 0.200619
vn 0.3502991 -0.3503731 0.8686364
v 0.0419891 0.045427 0.0942675
vt 0.591572 0.120755
vn 0.0896606 -0.8346499 0.543434
vt 0.261138 0.256865
vn -0.6551542 -0.145427 0.7413663
vt 0.496271 0.326461
vn 0 -0.164037 0.9864542
vt 0.392524 0.326101
vn -0.3438939 -0.2470429 0.9059287
vt 0.496271 0.0311951
v -0.0965074 0.100363 0.103967
vt 0.277232 0.203178
vn -0.5727287 -0.4732068 0.6693707
vt 0.418002 0.041658
vt 0.731404 0.256865
vn 0.6551542 -0.145427 0.7413663
v 0.0965074 0.100363 0.103967
vt 0.71531 0.192225
vn 0.5727287 -0.4732068 0.6693707
vt 0.57454 0.041658
v -0.127373 0.0946141 0.063038
vt 0.185952 0.194828
vn -0.8585553 -0.2835521 0.4271781
vt 0.0300959 0.28194
vt 0.600018 0.326101
vn 0.3438939 -0.2470429 0.9059287
v 0.127373 0.0946141 0.063038
vt 0.80659 0.20578
vn 0.8585553 -0.2835521 0.4271781
vt 0.0241288 0.160918
vt 0.962446 0.28194
vt 0.968413 0.160918
v -0.0880567 0 0.0268635
vt 0.880186 0.629384
vn -0.3795901 -0.9116002 0.157786
vt 0.96658 0.671219
vn -0.305598 -0.7768421 -0.5505691
vt 0.900971 0.654777
vn 0.381097 -0.924371 -0.0174173
vt 0.91658 0.70102
vt 0.78887 0.680936
vn -0.279652 -0.6966639 0.6606469
vt 0.831178 0.736755
vt 0.77573 0.74328
v 0.0880567 0 0.0268636
vn 0.3795888 -0.9116007 0.1577859
vn 0.305598 -0.7768421 -0.5505691
vn -0.381097 -0.924371 -0.0174175
vn 0.279652 -0.6966639 0.6606469
v 0.109477 0.485668 -0.112145
vt 0.828274 0.910442
vn 0.5627279 0.6148139 -0.5525769
v 0.161567 0.38633 -0.102287
vt 0.868317 0.872259
vn 0.855696 0 -0.517479
v 0.0676606 0.38633 -0.181455
vt 0.796128 0.872259
vn 0.3653229 0 -0.9308808
v 0.177138 0.447724 0
vt 0.880287 0.895857
vn 0.93209 0.355235 0.0708252
v 0 0.476936 -0.165505
vt 0.744115 0.907085
vn 0 0.566545 -0.8240309
v 0.0998541 0.532934 0
vt 0.820876 0.928609
vn 0.49996 0.8659729 0.0114432
v 0 0.547062 -0.0693095
vt 0.744115 0.934039
vn 0 0.9458263 -0.3246731
v 0.109477 0.286991 -0.112145
vt 0.828274 0.834077
vn 0.5627279 -0.6148139 -0.5525769
v 0.177138 0.324935 0
vt 0.880287 0.848661
vn 0.9261696 -0.3693388 0.07614956
v -0.109477 0.485668 -0.112145
vt 0.659956 0.910442
vn -0.5627279 0.6148139 -0.5525769
v -0.0676606 0.38633 -0.181455
vt 0.692102 0.872259
vn -0.3653229 0 -0.9308808
v 0.101378 0.485668 0.112145
vt 0.822047 0.910442
vn 0.5641378 0.5548308 0.6114828
v 0 0.547062 0.0693095
vn 0 0.9418777 0.3359559
v 0.0998541 0.239725 0
vt 0.820876 0.815909
vn 0.5079827 -0.8600455 0.04769947
v 0.135309 0.38633 0.102288
vt 0.848132 0.872259
vn 0.8096787 0.02438159 0.5863668
v 0.101378 0.301073 0.124947
vt 0.822047 0.839489
vn 0.579313 -0.531279 0.618174
v 0 0.295723 -0.165505
vt 0.744115 0.837433
vn 0 -0.566545 -0.8240309
v -0.0998541 0.532934 0
vt 0.667354 0.928609
vn -0.49996 0.8659729 0.0114431
v -0.161567 0.38633 -0.102287
vt 0.619913 0.872259
vn -0.855696 0 -0.517479
v -0.177138 0.447724 0
vt 0.607943 0.895857
vn -0.93209 0.355235 0.07082511
v 0 0.476936 0.147003
vn 0 0.5411732 0.8409112
v 0 0.225597 0.0693095
vt 0.744115 0.810479
vn 0 -0.9391589 0.343483
v 0 0.225597 -0.0693095
vn 0 -0.9458263 -0.3246731
v -0.109477 0.286991 -0.112145
vt 0.659956 0.834077
vn -0.5627279 -0.6148139 -0.5525769
v -0.101378 0.485668 0.112145
vt 0.666183 0.910442
vn -0.5641378 0.5548308 0.6114828
v -0.177138 0.324935 0
vt 0.607943 0.848661
vn -0.9261696 -0.3693388 0.07614956
v -0.135309 0.38633 0.102287
vt 0.640098 0.872259
vn -0.8096787 0.02438159 0.5863668
v 0 0.295723 0.160042
vn 0 -0.5743593 0.8186033
v 0.0532338 0.38633 0.162633
vt 0.785038 0.872259
vn 0.407096 0.0599022 0.911419
v -0.0998541 0.239725 0
vt 0.667354 0.815909
vn -0.5079827 -0.8600455 0.04769947
v -0.101378 0.301073 0.124947
vt 0.666183 0.839489
vn -0.579313 -0.531279 0.618174
v 0 0.38633 0.17571
vt 0.744115 0.872259
vn 0 0.06924429 0.9975998
v -0.0532338 0.38633 0.162633
vt 0.703192 0.872259
vn -0.407096 0.0599023 0.911419
v -0.211724 0.243739 0.14915
vt 0.458907 0.963822
vn -0.6829479 0.227972 0.6939819
vt 0.151936 0.964164
vt 0.237328 0.879632
vt 0.32403 0.799813
v 0.211724 0.243739 0.14915
vn 0.6829479 0.227972 0.6939819
v 0 0.432528 0.158779
vt 0.419576 0.72944
vn 0 0.6846211 0.7288991
v 0 0.369855 0.217645
vt 0.333632 0.683689
v 0.0362076 0.369815 0.158779
vt 0.419576 0.68366
vn 0.7644558 0.4413589 0.4699039
v -0.0362076 0.369815 0.158779
vn -0.7644558 0.4413589 0.4699039
v 0 0.315272 0.158779
vt 0.419576 0.643844
vn 0 -0.6846211 0.7288991
v 0 0.36978 0.209975
vt 0.344829 0.683634
v -0.0375128 0.369815 0.158779
vn -0.7054821 -0.48521 0.5165911
v 0.0375128 0.369815 0.158779
vn 0.7054821 -0.48521 0.5165911
o merged_0_0_node
g polygon_0
usemtl mat_body_mat_id
f 1/1/1 2/2/2 3/3/3
f 1/1/1 4/4/4 2/2/2
f 1/1/1 3/3/3 5/5/5
f 1/1/1 6/6/6 4/4/4
f 1/1/1 5/5/5 7/7/7
f 1/1/1 8/8/8 6/6/6
f 1/1/1 7/7/7 9/9/9
f 1/1/1 10/10/10 8/8/8
f 1/1/1 9/9/9 11/11/11
f 1/1/1 12/12/12 10/10/10
f 1/1/1 11/11/11 13/13/13
f 1/1/1 13/13/13 12/12/12
f 14/14/14 15/15/15 16/16/16
f 14/14/14 17/17/17 15/15/15
f 14/14/14 16/16/16 18/18/18
f 14/14/14 19/19/19 17/17/17
f 14/14/14 18/18/18 20/20/20
f 14/14/14 21/17/21 19/19/19
f 14/14/14 20/20/20 22/21/22
f 14/14/14 23/15/23 21/17/21
f 14/14/14 22/21/22 24/20/24
f 14/14/14 25/16/25 23/15/23
f 14/14/14 24/20/24 26/18/26
f 14/14/14 26/18/26 25/16/25
f 15/15/15 27/22/27 16/16/16
f 15/15/15 17/17/17 27/22/27
f 18/18/18 28/23/28 20/20/20
f 18/18/18 16/16/16 28/23/28
f 19/19/19 21/17/21 29/24/29
f 19/19/19 29/24/29 17/17/17
f 22/21/22 30/25/30 24/20/24
f 22/21/22 20/20/20 30/25/30
f 23/15/23 25/16/25 31/22/31
f 23/15/23 31/22/31 21/17/21
f 26/18/26 24/20/24 32/23/32
f 26/18/26 32/23/32 25/16/25
f 27/22/27 33/26/33 16/16/16
f 27/22/27 17/17/17 34/27/34
f 27/22/27 35/28/35 33/26/33
f 27/22/27 34/27/34 35/28/35
f 34/27/34 17/17/17 29/24/29
f 34/27/34 29/24/29 35/28/35
f 33/26/33 28/23/28 16/16/16
f 33/26/33 35/28/35 28/23/28
f 20/20/20 36/29/36 30/25/30
f 20/20/20 28/23/28 36/29/36
f 36/29/36 35/28/35 30/25/30
f 36/29/36 28/23/28 35/28/35
f 31/22/31 37/27/37 21/17/21
f 31/22/31 25/16/25 38/26/38
f 31/22/31 35/28/35 37/27/37
f 31/22/31 38/26/38 35/28/35
f 38/26/38 25/16/25 32/23/32
f 38/26/38 32/23/32 35/28/35
f 37/27/37 29/24/29 21/17/21
f 37/27/37 35/28/35 29/24/29
f 24/20/24 30/25/30 39/29/39
f 24/20/24 39/29/39 32/23/32
f 39/29/39 35/28/35 32/23/32
f 39/29/39 30/25/30 35/28/35
f 40/30/40 41/31/41 42/32/42
f 40/30/40 43/33/43 41/31/41
f 40/30/40 42/32/42 44/34/44
f 40/30/40 45/31/45 43/33/43
f 40/30/40 44/34/44 46/35/46
f 40/30/40 47/32/47 45/31/45
f 40/30/40 46/35/46 48/34/48
f 40/30/40 48/34/48 47/32/47
f 41/31/41 49/36/49 42/32/42
f 41/31/41 43/33/43 50/37/50
f 41/31/41 50/37/50 49/36/49
f 45/31/45 47/32/47 49/36/49
f 45/31/45 50/37/50 43/33/43
f 45/31/45 49/36/49 50/37/50
f 47/32/47 48/34/48 49/36/49
f 42/32/42 49/36/49 44/34/44
f 46/35/46 51/38/51 48/34/48
f 46/35/46 44/34/44 51/38/51
f 51/38/51 44/34/44 49/36/49
f 51/38/51 49/36/49 48/34/48
f 52/39/52 53/40/53 54/41/54
f 52/39/52 55/42/55 53/40/53
f 52/39/52 54/41/54 56/43/56
f 52/39/52 57/44/57 55/42/55
f 52/39/52 56/43/56 58/45/58
f 52/39/52 58/45/58 57/44/57
f 54/41/54 59/46/59 56/43/56
f 58/45/58 60/39/60 57/44/57
f 58/45/58 56/43/56 61/47/61
f 58/45/58 62/43/62 60/39/60
f 58/45/58 61/47/61 62/43/62
f 61/47/61 56/43/56 59/46/59
f 60/39/60 62/43/62 63/48/63
f 62/43/62 64/49/64 63/48/63
f 65/50/65 66/51/66 8/52/67
f 65/50/65 67/53/68 66/51/66
f 65/50/65 8/52/67 10/54/69
f 65/50/65 68/55/70 67/53/68
f 65/50/65 10/54/69 69/56/71
f 65/50/65 69/56/71 68/55/70
f 66/51/66 6/57/72 8/52/67
f 66/51/66 67/53/68 70/58/73
f 66/51/66 4/59/74 6/57/72
f 66/51/66 70/58/73 4/59/74
f 68/55/70 71/60/75 67/53/68
f 70/58/73 2/61/76 4/59/74
f 70/58/73 67/53/68 72/62/77
f 70/58/73 73/63/78 2/61/76
f 70/58/73 72/62/77 73/63/78
f 67/53/68 74/64/79 72/62/77
f 75/65/80 7/66/81 76/67/82
f 75/65/80 11/68/83 7/66/81
f 75/65/80 76/67/82 77/69/84
f 75/65/80 78/70/85 11/68/83
f 75/65/80 77/69/84 79/71/86
f 75/65/80 79/71/86 78/70/85
f 7/66/81 3/72/87 76/67/82
f 7/66/81 11/68/83 9/73/88
f 7/66/81 5/74/89 3/72/87
f 77/69/84 67/75/68 79/71/86
f 77/69/84 76/67/82 80/76/90
f 77/69/84 74/77/79 67/75/68
f 76/67/82 3/72/87 80/76/90
f 78/70/85 12/78/91 11/68/83
f 78/70/85 79/71/86 81/79/92
f 78/70/85 81/79/92 12/78/91
f 67/75/68 71/80/75 79/71/86
f 3/72/87 82/81/93 80/76/90
f 3/72/87 2/82/76 82/81/93
f 11/68/83 12/78/91 13/83/94
f 81/79/92 83/84/95 12/78/91
f 2/82/76 73/85/78 82/81/93
f 83/84/95 10/86/69 12/78/91
f 83/84/95 69/87/71 10/86/69
f 84/88/96 72/89/97 74/90/98
f 84/88/96 73/91/78 72/89/97
f 84/88/96 74/90/98 77/92/99
f 84/88/96 82/93/93 73/91/78
f 84/88/96 77/92/99 80/94/90
f 84/88/96 80/94/90 82/93/93
f 85/88/100 68/89/101 69/91/71
f 85/88/100 71/90/102 68/89/101
f 85/88/100 69/91/71 83/93/95
f 85/88/100 79/92/103 71/90/102
f 85/88/100 83/93/95 81/94/92
f 85/88/100 81/94/92 79/92/103
f 86/95/104 87/96/105 88/97/106
f 86/95/104 89/98/107 87/96/105
f 86/95/104 88/97/106 90/99/108
f 86/95/104 91/100/109 89/98/107
f 86/95/104 90/99/108 92/101/110
f 86/95/104 92/101/110 91/100/109
f 87/96/105 93/102/111 88/97/106
f 87/96/105 89/98/107 94/103/112
f 87/96/105 94/103/112 93/102/111
f 90/99/108 95/104/113 92/101/110
f 90/99/108 88/97/106 96/105/114
f 90/99/108 96/105/114 95/104/113
f 91/100/109 97/106/115 89/98/107
f 91/100/109 92/101/110 98/101/116
f 91/100/109 98/101/116 97/106/115
f 94/103/112 99/107/117 93/102/111
f 94/103/112 89/98/107 100/108/118
f 94/103/112 101/109/119 99/107/117
f 94/103/112 100/108/118 101/109/119
f 88/97/106 102/110/120 96/105/114
f 88/97/106 93/102/111 102/110/120
f 95/104/113 103/111/121 92/101/110
f 95/104/113 96/105/114 104/112/122
f 95/104/113 105/113/123 103/111/121
f 95/104/113 104/112/122 105/113/123
f 92/101/110 103/111/121 98/101/116
f 97/106/115 98/101/116 106/99/124
f 99/107/117 101/109/119 107/114/125
f 99/107/117 108/114/126 93/102/111
f 99/107/117 107/114/125 108/114/126
f 93/102/111 108/114/126 102/110/120
f 96/105/114 109/115/127 104/112/122
f 96/105/114 102/110/120 109/115/127
f 102/110/120 108/114/126 109/115/127
f 105/113/123 110/116/128 103/111/121
f 105/113/123 104/112/122 111/117/129
f 105/113/123 111/117/129 112/118/130
f 110/116/128 106/99/124 98/101/116
f 110/116/128 98/101/116 103/111/121
f 104/112/122 109/115/127 111/117/129
f 101/109/119 113/110/131 107/114/125
f 101/109/119 114/119/132 113/110/131
f 108/114/126 115/120/133 109/115/127
f 108/114/126 107/114/125 115/120/133
f 109/115/127 115/120/133 111/117/129
f 112/118/130 111/117/129 116/121/134
f 115/120/133 107/114/125 116/121/134
f 115/120/133 116/121/134 111/117/129
f 107/114/125 113/110/131 116/121/134
f 106/99/124 117/122/135 114/119/132
f 106/99/124 118/123/136 117/122/135
f 113/110/131 118/123/136 116/121/134
f 113/110/131 114/119/132 117/122/135
f 113/110/131 117/122/135 118/123/136
f 119/124/137 62/125/62 61/126/61
f 119/124/137 64/126/64 62/125/62
f 119/124/137 61/126/61 59/127/59
f 119/124/137 59/127/59 64/126/64
f 120/124/138 57/126/57 60/125/60
f 120/124/138 55/127/55 57/126/57
f 120/124/138 60/125/60 63/126/63
f 120/124/138 63/126/63 55/127/55
f 121/128/139 122/129/139 123/130/140
f 121/128/139 124/130/141 122/129/139
f 125/131/142 126/132/142 127/130/143
f 125/131/142 128/130/144 126/132/142
f 124/130/14 123/130/14 122/129/14
vt 0.221754 0.86628
vt -0.0774277 0.979539
vt 0.49233 0.990454
vt 0.68303 0.86628
vt 0.492329 0.75971
vt 1.1154 0.943024
o merged_1_0_node
g polygon_0
usemtl TEX_ANIM_EYE_mat_id
f 118/133/136 106/134/124 110/135/128
f 110/135/128 112/136/130 118/133/136
f 97/135/115 114/133/132 100/136/118
f 100/136/118 114/133/132 101/137/119
f 97/135/115 100/136/118 89/138/107
f 97/135/115 106/134/124 114/133/132
f 112/136/130 116/137/134 118/133/136
f 105/138/123 112/136/130 110/135/128
