mtllib Amaura.mtl
v 0 0.07012652 0.08158145
vt 0 0.19771
vn 0 -0.9809107 -0.1944588
v 0 0.07136373 -0.08376572
vt 0 -0.215664
vn 0 -0.9917278 0.1283581
v 0.142862 0.0887756 0.00278355
vt 0.357155 0
vn 0.3801262 -0.9249294 0.003099301
v -0.142862 0.0887756 0.00278355
vt -0.357155 0
vn -0.3801262 -0.9249294 0.003099311
v 0.131908 0.103191 0.08088041
vt 0.32977 0.195955
vn 0.6893061 -0.7092853 -0.1475517
v -0.131908 0.103191 0.08088041
vt -0.32977 0.195955
vn -0.6893061 -0.7092853 -0.1475517
v 0.104866 -0.001390132 0.1502677
vt 0.26213 0.351155
vn 0.4260658 -0.6745102 0.6029128
v -0.104866 -0.001390132 0.1502677
vt -0.26213 0.351155
vn -0.4260658 -0.6745102 0.6029128
v 0 0.07619549 0.2048548
vt 0 0.516469
vn 0 -0.3558201 0.9345545
v 0.122465 0.09666139 -0.08175217
vt 0.306162 -0.21063
vn 0.7076806 -0.6932856 0.1361732
v -0.122465 0.09666139 -0.08175217
vt -0.306162 -0.21063
vn -0.7076806 -0.6932856 0.1361732
v 0.171041 0.141372 0.00321302
vt 0.501296 0
vn 0.9824921 0.185336 -0.0189661
v -0.171041 0.141372 0.00321302
vt -0.501296 0
vn -0.9824921 0.185336 -0.0189661
v 0.152035 0.1592336 0.1484161
vt 0.380122 0.734752
vn 0.764606 0.1060917 0.6357061
vt 0.502447 0.552706
v -0.152035 0.1592336 0.1484161
vt -0.380122 0.734752
vn -0.764606 0.1060917 0.6357061
vt -0.502447 0.552706
v 0 0.1512555 0.2268009
vt 0 0.714698
vn 0 0.01324515 0.9999123
v 0.131803 0.253258 0.00310477
vt 0.799656 0.571706
vn 0.6289538 0.7767208 -0.03349489
vt 0.791747 0.566588
vt 0.79965 0.565616
v 0.1154 0.237928 0.137559
vt 0.792338 0.570871
vn 0.7502378 0.5027599 0.4293899
v 0.13924 0.1723205 -0.1205671
vt 0.806387 0.5673
vn 0.8420091 0.09778965 -0.530526
v 0 0.283077 0.0732462
vt 0.795839 0.573328
vn 0 0.78442 -0.62023
v 0.1154 0.237928 -0.104933
vt 0.805537 0.570871
vn 0.5542241 0.7813291 -0.2869851
v 0 0.285737 -0.0312167
vt 0.801524 0.573473
vn 0 0.9948127 -0.101724
vt 0.795423 0.563538
vt 0.787481 0.566154
v 0.0613574 0.193673 -0.186874
vt 0.809996 0.568463
vn 0.712413 0.207918 -0.670252
vt 0.804275 0.563183
v 0 0.1296252 -0.2216722
vt 0.81189 0.564977
vn 0 -0.1820471 -0.9832898
v -0.131803 0.253258 0.00310477
vn -0.6289538 0.7767208 -0.03349489
v 0 0.545082 0.0827772
vt 0.79532 0.587589
vn 0 0.9775324 0.2107851
v -0.1154 0.237928 0.137559
vn -0.7502378 0.5027599 0.4293899
v 0 0.264084 0.20858
vt 0.788473 0.572295
vn 0 0.3457372 0.9383314
v 0 0.241749 -0.176538
vt 0.809434 0.571079
vn 0 0.9636478 -0.2671759
v 0 0.238971 -0.29331
vt 0.815789 0.570928
vn 0 0.243269 -0.9699589
v -0.0613574 0.193673 -0.186874
vn -0.712413 0.207918 -0.670252
v -0.13924 0.1723205 -0.1205671
vn -0.8420091 0.09778955 -0.530526
v -0.1154 0.237928 -0.104933
vn -0.5542241 0.7813291 -0.2869851
v 0 0.6349339 0.35653
vt 0.480637 0.23163
vn 0 0.3988419 0.9170197
v -0.115454 0.599087 0.324895
vt 0.482359 0.231027
vn -0.6364231 0.3096011 0.7064791
v -0.0773172 0.529932 0.360515
vt 0.48042 0.225915
vn -0.3905832 0.03387071 0.9199443
v -0.0614794 0.6989909 0.294169
vt 0.484031 0.235117
vn -0.3457122 0.7827293 0.5175112
v 0 0.535332 0.381399
vt 0.478913 0.226209
vn 0 0.08506098 0.9963757
v 0.0614794 0.6989909 0.294169
vn 0.3457122 0.7827293 0.5175112
v 0.0773172 0.529932 0.360515
vn 0.3905832 0.03387071 0.9199443
v 0.115454 0.599087 0.324895
vn 0.6364231 0.3096011 0.7064791
v -0.156631 0.666196 0.191323
vt 0.489629 0.234261
vn -0.80548 0.532134 0.260836
v 0 0.485792 0.377738
vt 0.479258 0.223513
vn 0 -0.3239031 0.9460903
v -0.130738 0.470386 0.316853
vt 0.482797 0.222674
vn -0.6513699 -0.3498429 0.6732959
v 0.156631 0.666196 0.191323
vn 0.80548 0.532134 0.260836
v 0 0.733547 0.206856
vt 0.488783 0.236998
vn 0 0.9901528 0.139991
v 0.108593 0.7098249 0.170354
vt 0.49077 0.23615
vn 0.4280522 0.9033533 0.02691091
v -0.108593 0.7098249 0.170354
vn -0.428053 0.9033529 0.0269109
v -0.167119 0.661155 0.0738304
vt 0.496024 0.233057
vn -0.8184652 0.5395571 -0.197466
v -0.198806 0.5406719 0.174425
vt 0.493471 0.226492
vn -0.9965409 0.082142 -0.0126053
v -0.12254 0.42583 0.257403
vt 0.486032 0.220249
vn -0.462624 -0.831221 0.308303
v 0 0.428899 0.340389
vt 0.481516 0.220416
vn 0 -0.8009009 0.598797
v -0.193187 0.476552 0.183002
vt 0.490014 0.22301
vn -0.8939202 -0.4235251 0.146742
v 0.130738 0.470386 0.316853
vn 0.6513699 -0.3498429 0.6732959
v 0.167119 0.661155 0.0738304
vn 0.8184652 0.5395571 -0.197466
v 0.198806 0.5406719 0.174425
vn 0.9965409 0.08214189 -0.0126053
v -0.162488 0.5613669 0.00304669
vt 0.499876 0.227626
vn -0.7879171 0.0004123281 -0.6157811
v -0.112013 0.68515 0.0351853
vt 0.498127 0.234363
vn -0.4070211 0.7090772 -0.5757982
v 0 0.7298059 0.0895672
vt 0.495167 0.236794
v 0 0.392928 0.239976
vt 0.486981 0.218459
vn 0 -0.9844126 0.1758749
v 0.12254 0.42583 0.257403
vn 0.462624 -0.831221 0.308303
v -0.177535 0.475142 0.0896146
vt 0.495165 0.222933
vn -0.8389329 -0.462507 -0.286843
v -0.116389 0.407734 0.170354
vt 0.49077 0.219264
vn -0.44552 -0.8927321 -0.0673897
v 0.162488 0.5613669 0.00304669
vn 0.7879171 0.0004123341 -0.6157811
v 0.177535 0.475142 0.0896146
vn 0.8389329 -0.462507 -0.286843
v 0.193187 0.476552 0.183002
vn 0.8939202 -0.4235251 0.146742
v 0.112013 0.68515 0.0351853
vn 0.4070208 0.7090777 -0.5757977
v -0.0788644 0.5613669 -0.0411478
vt 0.502282 0.227626
vn -0.2821879 -0.0115497 -0.9592897
v 0 0.6563179 -0.0225568
vt 0.50127 0.232794
vn 0 0.5871658 -0.8094667
v 0 0.392928 0.0895672
vt 0.495167 0.218459
vn 0 -0.9542875 -0.2988901
v -0.127605 0.457266 0.0396384
vt 0.497885 0.22196
vn -0.4547862 -0.6771093 -0.5785263
v 0.116389 0.407734 0.170354
vn 0.44552 -0.8927321 -0.0673897
v 0.127605 0.457266 0.0396384
vn 0.4547862 -0.6771093 -0.5785263
v 0.0788644 0.5613669 -0.0411478
vn 0.2821879 -0.0115497 -0.9592897
v 0 0.466417 -0.0225568
vt 0.50127 0.222458
vn 0 -0.5988719 -0.8008448
v 0 0.09026069 -0.2092018
vt 1 0.541345
vn 0 -0.2831191 -0.9590848
vt 0.651524 0.734752
v 0.104866 -0.00139137 -0.1363452
vt 0.738023 0.347529
vn 0.4921475 -0.6313952 -0.5992755
vt 1 0.645802
vt 1 0.198996
vt 1.34848 0.734752
v -0.104866 -0.00139137 -0.1363452
vt 1.26198 0.347529
vn -0.4921475 -0.6313952 -0.5992755
vt 0.575725 0.557458
vt 1.30616 0.119086
vt 0.693838 0.119087
vt 1.42427 0.557458
v -0.222744 0.859188 0.159653
vt 0.838797 0.922964
vn 0.9429998 0.3068489 -0.128822
v -0.21399 0.799549 0.0857271
vt 0.828385 0.847596
v -0.244699 0.88138 0.0671336
vt 0.893307 0.869194
vn 0.9366776 0.3183469 -0.1459119
vt 0.695511 0.871483
vn 0.9400944 0.3045571 -0.1531911
v -0.239173 0.939118 0.231876
vt 0.861706 0.990267
v -0.262669 0.9819009 0.176101
vt 0.907431 0.949915
v -0.258063 0.947785 0.129252
vt 0.896811 0.922881
vt 0.731819 0.792347
vn 0.9389707 0.3268109 -0.107372
v -0.195843 0.7276 0.0374832
vt 0.806583 0.787706
v -0.222887 0.794538 0.0124748
vt 0.861194 0.796102
v -0.140792 0.71319 0.360899
vt 0.669286 0.999096
vn 0.9382752 0.2981091 -0.175416
v -0.182108 0.674392 0.00658865
vt 0.763062 0.76071
vt 0.606227 0.936881
vn 0.9288307 0.282061 -0.2402399
vt 0.548635 0.93703
vn 0.8846329 0.307144 -0.350838
vn -0.9409972 -0.3135701 0.127272
vn -0.9366776 -0.3183469 0.1459119
vn -0.9400944 -0.3045571 0.1531911
vn -0.9389707 -0.3268109 0.107372
vn -0.9382752 -0.2981091 0.175416
vn -0.9288307 -0.282061 0.2402399
vn -0.8846329 -0.307144 0.350838
v 0.222744 0.859188 0.159653
vn 0.9429998 -0.3068489 0.128822
v 0.21399 0.799549 0.0857271
v 0.244699 0.88138 0.0671336
vn 0.9366776 -0.3183469 0.1459119
vn 0.9400944 -0.3045571 0.1531911
v 0.239173 0.939118 0.231876
v 0.262669 0.9819009 0.176101
v 0.258063 0.947785 0.129252
vn 0.9389707 -0.3268109 0.107372
v 0.195843 0.7276 0.0374832
v 0.222887 0.794538 0.0124748
v 0.140792 0.71319 0.360899
vn 0.9382752 -0.2981091 0.175416
v 0.182108 0.674392 0.00658865
vn 0.9288307 -0.282061 0.2402399
vn 0.8846329 -0.307144 0.350838
vn -0.9409972 0.3135701 -0.127272
vn -0.9366776 0.3183469 -0.1459119
vn -0.9400944 0.3045571 -0.1531911
vn -0.9389707 0.3268109 -0.107372
vn -0.9382752 0.2981091 -0.175416
vn -0.9288307 0.282061 -0.2402399
vn -0.8846329 0.307144 -0.350838
v 0.187658 0.208695 0.00311554
vt 0.56362 0.326629
vn 0.9499692 0.3107371 -0.03163851
v 0.142225 0.19621 -0.0506347
vt 0.608952 0.316099
vn 0.7081922 0.2558541 -0.6580292
v 0.133841 0.246905 0.00311554
vt 0.56362 0.358855
vn 0.5784591 0.8147302 -0.03999721
v 0.168968 0.145515 0.00311554
vt 0.56362 0.273343
vn 0.9577197 -0.2833039 -0.05011928
v 0.146655 0.19621 0.0568658
vt 0.518287 0.316099
vn 0.7370769 0.2617399 0.6230649
v -0.187658 0.208695 0.00311554
vn 0.9499692 -0.3107371 0.03163861
v -0.142225 0.19621 -0.0506347
vn 0.7081922 -0.2558541 0.6580292
v -0.133841 0.246905 0.00311554
vn 0.5784591 -0.8147302 0.03999711
v -0.168968 0.145515 0.00311554
vn 0.9577193 0.2833051 0.05011952
v -0.146655 0.19621 0.0568658
vn 0.7370771 -0.261739 -0.6230651
vt 1 -0.0211225
vt 1 0.12111
vt 0.673156 0.0825944
vt 1.32684 0.0825944
o merged_0_0_node
g polygon_0
usemtl phong1_mat_id
f 1/1/1 2/2/2 3/3/3
f 1/1/1 4/4/4 2/2/2
f 1/1/1 3/3/3 5/5/5
f 1/1/1 6/6/6 4/4/4
f 1/1/1 5/5/5 7/7/7
f 1/1/1 8/8/8 6/6/6
f 1/1/1 7/7/7 9/9/9
f 1/1/1 9/9/9 8/8/8
f 2/2/2 10/10/10 3/3/3
f 2/2/2 4/4/4 11/11/11
f 5/5/5 3/3/3 12/12/12
f 12/12/12 3/3/3 10/10/10
f 6/6/6 13/13/13 4/4/4
f 4/4/4 13/13/13 11/11/11
f 7/7/7 14/14/14 9/9/9
f 7/7/7 5/15/5 14/14/14
f 8/8/8 9/9/9 15/16/15
f 8/8/8 15/16/15 6/17/6
f 14/14/14 16/18/16 9/9/9
f 9/9/9 16/18/16 15/16/15
f 17/19/17 14/20/14 12/21/12
f 17/19/17 18/22/18 14/20/14
f 17/19/17 12/21/12 19/23/19
f 17/19/17 20/24/20 18/22/18
f 17/19/17 19/23/19 21/25/21
f 17/19/17 22/26/22 20/24/20
f 17/19/17 21/25/21 22/26/22
f 14/20/14 5/27/5 12/21/12
f 14/20/14 18/22/18 16/28/16
f 19/23/19 23/29/23 21/25/21
f 19/23/19 12/21/12 10/30/10
f 19/23/19 24/31/24 23/29/23
f 20/24/20 22/26/22 25/19/25
f 20/24/20 26/32/26 18/22/18
f 20/24/20 25/19/25 27/22/27
f 20/24/20 27/22/27 26/32/26
f 16/28/16 18/22/18 28/33/28
f 16/28/16 28/33/28 27/22/27
f 16/28/16 27/22/27 15/20/15
f 27/22/27 25/19/25 15/20/15
f 27/22/27 28/33/28 26/32/26
f 26/32/26 28/33/28 18/22/18
f 21/25/21 23/29/23 29/34/29
f 21/25/21 29/34/29 22/26/22
f 24/31/24 30/35/30 23/29/23
f 24/31/24 31/29/31 30/35/30
f 24/31/24 32/23/32 31/29/31
f 30/35/30 29/34/29 23/29/23
f 30/35/30 31/29/31 29/34/29
f 25/19/25 13/21/13 15/20/15
f 25/19/25 22/26/22 33/25/33
f 25/19/25 32/23/32 13/21/13
f 25/19/25 33/25/33 32/23/32
f 33/25/33 31/29/31 32/23/32
f 33/25/33 29/34/29 31/29/31
f 33/25/33 22/26/22 29/34/29
f 15/20/15 13/21/13 6/27/6
f 32/23/32 11/30/11 13/21/13
f 34/36/34 35/37/35 36/38/36
f 34/36/34 37/39/37 35/37/35
f 34/36/34 36/38/36 38/40/38
f 34/36/34 39/39/39 37/39/37
f 34/36/34 38/40/38 40/38/40
f 34/36/34 41/37/41 39/39/39
f 34/36/34 40/38/40 41/37/41
f 35/37/35 37/39/37 42/41/42
f 36/38/36 43/42/43 38/40/38
f 36/38/36 44/43/44 43/42/43
f 38/40/38 43/42/43 40/38/40
f 39/39/39 41/37/41 45/41/45
f 39/39/39 46/44/46 37/39/37
f 39/39/39 45/41/45 47/45/47
f 39/39/39 47/45/47 46/44/46
f 42/41/42 37/39/37 48/45/48
f 42/41/42 48/45/48 49/46/49
f 42/41/42 49/46/49 50/47/50
f 37/39/37 46/44/46 48/45/48
f 44/43/44 51/48/51 52/49/52
f 44/43/44 53/50/53 51/48/51
f 43/42/43 54/43/54 40/38/40
f 45/41/45 55/46/55 47/45/47
f 45/41/45 56/47/56 55/46/55
f 49/46/49 57/51/57 50/47/50
f 49/46/49 48/45/48 58/52/58
f 49/46/49 58/52/58 57/51/57
f 46/44/46 47/45/47 59/53/29
f 46/44/46 59/53/29 48/45/48
f 48/45/48 59/53/29 58/52/58
f 52/49/52 51/48/51 60/54/59
f 52/49/52 61/48/60 54/43/54
f 52/49/52 60/54/59 61/48/60
f 53/50/53 50/47/50 62/55/61
f 53/50/53 63/56/62 51/48/51
f 53/50/53 62/55/61 63/56/62
f 51/48/51 63/56/62 60/54/59
f 50/47/50 57/51/57 62/55/61
f 56/47/56 64/51/63 55/46/55
f 56/47/56 65/55/64 64/51/63
f 56/47/56 66/50/65 65/55/64
f 54/43/54 61/48/60 66/50/65
f 47/45/47 67/52/66 59/53/29
f 47/45/47 55/46/55 67/52/66
f 55/46/55 64/51/63 67/52/66
f 58/52/58 68/57/67 57/51/57
f 58/52/58 59/53/29 69/58/68
f 58/52/58 69/58/68 68/57/67
f 59/53/29 67/52/66 69/58/68
f 63/56/62 70/59/69 60/54/59
f 63/56/62 62/55/61 71/60/70
f 63/56/62 71/60/70 70/59/69
f 57/51/57 68/57/67 71/60/70
f 57/51/57 71/60/70 62/55/61
f 65/55/64 66/50/65 72/56/71
f 65/55/64 73/60/72 64/51/63
f 65/55/64 72/56/71 73/60/72
f 72/56/71 66/50/65 61/48/60
f 72/56/71 60/54/59 70/59/69
f 72/56/71 70/59/69 73/60/72
f 72/56/71 61/48/60 60/54/59
f 67/52/66 74/57/73 69/58/68
f 67/52/66 64/51/63 74/57/73
f 64/51/63 73/60/72 74/57/73
f 69/58/68 74/57/73 68/57/67
f 71/60/70 75/61/74 70/59/69
f 71/60/70 68/57/67 75/61/74
f 75/61/74 73/60/72 70/59/69
f 75/61/74 68/57/67 74/57/73
f 75/61/74 74/57/73 73/60/72
f 76/62/75 19/63/19 77/64/76
f 76/62/75 24/65/24 19/63/19
f 76/62/75 77/64/76 2/66/2
f 76/62/75 32/67/32 24/65/24
f 76/62/75 2/66/2 78/68/77
f 76/62/75 78/68/77 32/67/32
f 19/63/19 10/69/10 77/64/76
f 2/66/2 11/70/11 78/68/77
f 2/66/2 77/64/76 10/71/10
f 32/67/32 78/68/77 11/72/11
f 79/73/78 80/74/78 81/75/79
f 79/73/78 42/76/80 80/74/78
f 79/73/78 82/77/80 42/76/80
f 79/73/78 83/78/79 82/77/80
f 79/73/78 84/79/79 83/78/79
f 80/74/78 42/76/80 49/80/81
f 80/74/78 49/80/81 85/81/79
f 80/74/78 85/81/79 86/82/79
f 82/77/80 87/83/82 42/76/80
f 49/80/81 88/84/79 85/81/79
f 87/83/82 35/85/83 42/76/80
f 87/83/82 36/86/84 35/85/83
f 80/74/85 79/73/85 81/75/86
f 80/74/85 42/76/87 79/73/85
f 80/74/85 49/80/88 42/76/87
f 80/74/85 85/81/86 49/80/88
f 80/74/85 86/82/86 85/81/86
f 79/73/85 42/76/87 82/77/87
f 79/73/85 82/77/87 83/78/86
f 79/73/85 83/78/86 84/79/86
f 49/80/88 85/81/86 88/84/86
f 42/76/87 87/83/89 82/77/87
f 42/76/87 35/85/90 87/83/89
f 35/85/90 36/86/91 87/83/89
f 89/73/92 90/74/92 91/75/93
f 89/73/92 45/76/94 90/74/92
f 89/73/92 92/77/94 45/76/94
f 89/73/92 93/78/93 92/77/94
f 89/73/92 94/79/93 93/78/93
f 90/74/92 45/76/94 55/80/95
f 90/74/92 55/80/95 95/81/93
f 90/74/92 95/81/93 96/82/93
f 92/77/94 97/83/96 45/76/94
f 55/80/95 98/84/93 95/81/93
f 97/83/96 41/85/97 45/76/94
f 97/83/96 40/86/98 41/85/97
f 90/74/99 89/73/99 91/75/100
f 90/74/99 45/76/101 89/73/99
f 90/74/99 55/80/102 45/76/101
f 90/74/99 95/81/100 55/80/102
f 90/74/99 96/82/100 95/81/100
f 89/73/99 45/76/101 92/77/101
f 89/73/99 92/77/101 93/78/100
f 89/73/99 93/78/100 94/79/100
f 55/80/102 95/81/100 98/84/100
f 45/76/101 97/83/103 92/77/101
f 45/76/101 41/85/104 97/83/103
f 41/85/104 40/86/105 97/83/103
f 99/87/106 100/88/107 101/89/108
f 99/87/106 102/90/109 100/88/107
f 99/87/106 101/89/108 103/91/110
f 99/87/106 103/91/110 102/90/109
f 104/87/111 105/88/112 106/89/113
f 104/87/111 107/90/114 105/88/112
f 104/87/111 106/89/113 108/91/115
f 104/87/111 108/91/115 107/90/114
f 52/92/52 43/93/43 44/94/44
f 52/92/52 54/95/54 43/93/43
vt 0.99653 0.837641
vt 0.84912 0.99835
v 0.174684 0.568295 0.251335
vt 0.643528 0.869298
vn 0.9094888 0.118204 0.3985699
vt 0.29885 0.75165
vt 0.951508 0.758644
vt 0.00346977 0.826474
vt 0.198275 0.918495
v -0.174684 0.568295 0.251335
vn -0.9094888 0.118204 0.3985699
o merged_1_0_node
g polygon_0
usemtl TEX_ANIM_EYE_mat_id
f 56/96/56 45/97/45 109/98/116
f 54/99/54 66/100/65 109/98/116
f 56/96/56 109/98/116 66/100/65
f 44/99/44 36/101/36 35/102/35
f 109/98/116 45/97/45 41/102/41
f 54/99/54 109/98/116 41/102/41
f 54/99/54 41/102/41 40/101/40
f 35/102/35 42/97/42 110/98/117
f 44/99/44 35/102/35 110/98/117
f 42/97/42 50/96/50 110/98/117
f 44/99/44 110/98/117 53/100/53
f 50/96/50 53/100/53 110/98/117
