mtllib Zigzagoon.mtl
v 0.0845129 0.2163504 -0.1652329
vt 0.949767 0.0679597
vn -0.1459633 -0.3014962 -0.9422286
v 0.145519 0.1904861 -0.2093644
vt 0.951496 0.0577685
vn -0.4702354 -0.1892045 -0.8620211
v 0 0.05233856 -0.09965928
vt 0.932881 0.036117
vn 0 -0.9453087 -0.3261769
v 0.125003 0.1176952 -0.1482957
vt 0.953225 0.0475774
vn -0.1308384 -0.418552 -0.8987188
v 0.154899 0.02731026 -0.1505867
vt 0.960202 0.0294402
vn 0.5088544 -0.8559425 -0.09181274
v -0.0845129 0.2163504 -0.1652329
vt 0.915996 0.0679597
vn 0.1459633 -0.3014962 -0.9422286
v -0.05649 0.259163 -0.2104544
vt 0.924439 0.0671521
vn 0.2487703 -0.4036915 -0.880424
v 0 0.2518769 -0.1663689
vt 0.932881 0.0663445
vn 0 -0.3170701 -0.948402
v 0.05649 0.259163 -0.2104544
vt 0.941324 0.0671521
vn -0.2487703 -0.4036915 -0.880424
v -0.154899 0.02731036 -0.1505867
vt 0.90556 0.0294402
vn -0.5088544 -0.8559425 -0.09181285
v -0.125003 0.1176952 -0.1482957
vt 0.912537 0.0475774
vn 0.1308384 -0.418552 -0.8987188
v -0.145519 0.1904861 -0.2093644
vt 0.914267 0.0577685
vn 0.4702354 -0.1892045 -0.8620211
v 0.133932 0.129299 -0.0724983
vt 0.943053 0.0418472
vn 0.786352 0.152788 0.598587
v 0 0.0678615 0.0324953
vn 0 -0.401628 0.915803
vn 0.7424288 0.5859218 0.3248
vn 0.6278482 0.7114142 0.3157474
vn 0.9932876 -0.01868082 -0.1141523
v 0 0.222405 0.00329878
vn 0 0.5821642 0.8130713
vn 0.4215107 0.8685266 0.2607494
vn 0 0.9852474 0.1711359
vn -0.6278482 0.7114142 0.3157474
vn -0.4215108 0.8685268 0.2607485
v -0.133932 0.129299 -0.0724983
vt 0.922709 0.0418472
vn -0.786352 0.152788 0.598587
vn -0.9932876 -0.01868122 -0.1141523
vn -0.7424284 0.5859222 0.3248003
v 0.0413802 0.07625607 -0.1323052
vt 0.394554 0.280373
vn -0.7097241 -0.6839071 0.1690056
v 0.114415 0.0006994413 -0.1313143
vt 0.392799 -0.0130529
vn -0.288564 -0.9340492 0.2104352
v 0.120956 0.07625608 -0.06563738
vt 0.276615 0.280373
vn -0.1321391 -0.6437665 0.7537267
v 0.120956 0.07625607 -0.1321312
vt 0.394247 0.280373
vn 0.659334 -0.06519627 -0.7490181
v -0.0413802 0.07625617 -0.1323052
vn 0.7097241 -0.6839071 0.1690056
v -0.120956 0.07625617 -0.06563738
vn 0.1321391 -0.6437665 0.7537267
v -0.114415 0.0006994383 -0.1313143
vn 0.288564 -0.9340492 0.2104352
v -0.120956 0.07625617 -0.1321312
vn -0.659334 -0.06519616 -0.7490181
v 0.0436785 0.07625812 0.1251685
vt 0.0177752 0.280373
vn -0.7494977 -0.649938 -0.1258328
v 0.112856 0.000703673 0.1033419
vt 0.0563896 -0.0130529
vn -0.4903345 -0.8287945 -0.2695773
v 0.123254 0.07625812 0.09642387
vt 0.0686273 0.280373
vn 0.7916098 -0.05321981 0.6087049
v 0.123254 0.07625811 0.03290731
vt 0.180994 0.280373
vn -0.3334929 -0.6179068 -0.7120208
v -0.0436785 0.07625821 0.1251685
vn 0.7494977 -0.649938 -0.1258328
v -0.123254 0.07625821 0.09642387
vn -0.7916098 -0.05321991 0.6087049
v -0.112856 0.00070367 0.1033419
vn 0.4903345 -0.8287945 -0.2695773
v -0.123254 0.0762582 0.03290731
vn 0.3334929 -0.6179068 -0.7120208
v 0.205626 0.408976 0.248433
vt 0.571419 0.210821
vn -0.3469191 -0.1671771 -0.9228753
v 0.189302 0.330171 0.25974
vt 0.568644 0.185132
vn -0.5308829 0.307606 -0.7896467
v 0.116263 0.308191 0.300283
vt 0.546035 0.173754
vn -0.5516578 -0.4140359 -0.7240497
v 0.240544 0.294016 0.18392
vt 0.586284 0.179809
vn -0.6757697 0.08534167 -0.7321557
v 0.0805348 0.452105 0.215432
vt 0.530592 0.222457
vn -0.06443135 -0.5186567 -0.8525514
v 0.130433 0.388333 0.271334
vt 0.548154 0.200822
vn 0.1433719 -0.3585538 -0.9224336
v 0.0844901 0.263634 0.362485
vt 0.537111 0.155309
vn -0.5971851 -0.4757121 -0.645808
vn 0.7518232 -0.2301921 0.6178782
vn 0.738445 -0.147026 0.65809
vn 0.4297181 0.2627401 0.8638923
vn 0.4506038 0.2876208 0.8451216
vn -0.09939599 0.610807 0.785516
vn -0.0100746 0.5925078 0.8055017
v -0.205626 0.408976 0.248433
vn 0.3469191 -0.1671771 -0.9228753
v -0.116263 0.308191 0.300283
vn 0.5516578 -0.4140359 -0.7240497
v -0.189302 0.330171 0.25974
vn 0.530883 0.307605 -0.789647
v -0.240544 0.294016 0.18392
vn 0.6757703 0.08534144 -0.7321553
v -0.0805348 0.452105 0.215432
vn 0.06443188 -0.5186559 -0.8525518
v -0.130433 0.388333 0.271334
vn -0.1433719 -0.3585538 -0.9224336
v -0.08449 0.263634 0.362485
vn 0.5971851 -0.4757121 -0.645808
vn -0.7518229 -0.230191 0.617879
vn -0.429719 0.26274 0.863892
vn -0.738445 -0.147025 0.6580901
vn -0.4506039 0.2876199 0.8451218
vn 0.099395 0.610807 0.785516
vn 0.0100742 0.5925072 0.8055022
v 0 -0.00264036 0.236691
vt 0.55914 0.0280623
vn 0 -0.9998843 -0.0152099
v -0.0904653 0.0206065 0.236691
vt 0.545052 0.0313547
vn -0.4860628 -0.8735857 -0.02431159
v 0 0.0242184 0.12097
vt 0.55914 0.0318662
vn 0 -0.8716532 -0.4901231
v 0 0.101742 0.0576966
vt 0.55914 0.0428459
vn 0 -0.258901 -0.9659039
v -0.11598 0.084118 0.102166
vt 0.542713 0.0403498
vn -0.6127759 -0.5415279 -0.575546
v -0.157902 0.084118 0.236691
vt 0.534874 0.0403498
vn -0.860155 -0.510032 0.000882839
v 0 0.0206086 0.351023
vt 0.55914 0.0326805
vn 0 -0.9370788 0.3491179
v -0.0955285 0.0671128 0.365686
vt 0.543557 0.0387062
vn -0.5775432 -0.6634132 0.4757381
v 0 0.0644872 0.432266
vt 0.55914 0.0377882
vn 0 -0.676774 0.7361909
v 0.0904653 0.0206065 0.236691
vt 0.573227 0.0313547
vn 0.4860628 -0.8735857 -0.02431159
v 0.0955285 0.0671128 0.365686
vt 0.574723 0.0387062
vn 0.5775432 -0.6634132 0.4757381
v 0.157902 0.084118 0.236691
vt 0.583405 0.0403498
vn 0.860155 -0.510032 0.000882918
v 0.11598 0.084118 0.102166
vt 0.575566 0.0403498
vn 0.6127759 -0.5415279 -0.575546
v -0.175931 0.155899 0.236691
vt 0.532674 0.0505162
vn -0.9998683 -0.006753042 0.0147583
v -0.124306 0.163388 0.0929704
vt 0.541534 0.0515768
vn -0.7061606 0.05243447 -0.7061076
v -0.122798 0.114853 0.361979
vt 0.541387 0.04584
vn -0.7184019 -0.0171489 0.6954169
v 0 0.134047 0.472761
vt 0.00185733 0.876064
vn 0 0.1153789 0.9933215
vt 0.410485 0.553315
vt 0.00185733 0.513846
v 0.122798 0.114853 0.361979
vt 0.576892 0.04584
vn 0.7184014 -0.01714911 0.6954174
v 0.175931 0.155899 0.236691
vt 0.585605 0.0505162
vn 0.9998683 -0.006753182 0.0147584
v 0.124306 0.163388 0.0929704
vt 0.576745 0.0515768
vn 0.7061606 0.05243467 -0.7061076
v 0 0.221289 0.0650644
vt 0.55914 0.0597773
vn 0 0.301415 -0.9534931
v -0.10825 0.242657 0.104729
vt 0.543808 0.0628037
vn -0.5914533 0.5316002 -0.6062872
v -0.161827 0.242657 0.236691
vt 0.53622 0.0628037
vn -0.9116269 0.40933 -0.0372215
v -0.121266 0.235389 0.345906
vt 0.545103 0.0619995
vn -0.6452571 0.3425691 0.6828541
v 0.121266 0.235389 0.345906
vt 0.573177 0.0619995
vn 0.6452566 0.3425688 0.6828547
v 0.161827 0.242657 0.236691
vt 0.582059 0.0628037
vn 0.9116269 0.40933 -0.03722139
v 0.10825 0.242657 0.104729
vt 0.574471 0.0628037
vn 0.5914529 0.5315999 -0.6062879
v 0 0.332338 0.236691
vt 0.55914 0.0755051
vn 0 0.9978772 -0.06512392
v 0 0.302424 0.128458
vt 0.55914 0.0712685
vn 0 0.8437555 -0.5367277
v -0.0994681 0.31616 0.236691
vt 0.545052 0.0732138
vn -0.5143858 0.8575577 0.001433389
v 0 0.315957 0.332268
vt 0.55914 0.0731852
vn 0 0.8600488 0.5102119
v 0 0.246201 0.413826
vt 0.55914 0.0628037
vn 0 0.3378649 0.9411947
v 0.0994681 0.31616 0.236691
vt 0.573227 0.0732138
vn 0.514385 0.8575581 0.00143339
v 0 0.150428 0.430061
vt 0.00185733 0.973641
vn 0 0.326457 0.9452121
vt 0.477247 0.745861
v -0.15548 0.0315229 0.104088
vt 0.522779 0.278364
vn 0.34474 0.0784782 -0.935412
v -0.14372 0.131357 0.154194
vt 0.52401 0.300667
vn 0.09105651 -0.05851471 -0.9941251
v 0 0.114497 0.16835
vt 0.55377 0.302096
v -0.188696 0.214084 0.104088
vt 0.512986 0.324482
vn 0.3240501 0.003540311 -0.9460333
v 0.15548 0.0315229 0.104088
vt 0.584761 0.278364
vn -0.34474 0.0784783 -0.935412
v 0 0.0394653 0.228464
vt 0.55377 0.287432
vn 0 -0.6252542 -0.7804212
v 0.188696 0.214084 0.104088
vt 0.594554 0.324482
vn -0.3240501 0.003540271 -0.9460333
v 0.14372 0.131357 0.154194
vt 0.58353 0.300667
vn -0.09105641 -0.05851461 -0.9941251
v 0 0.31635 0.139492
vt 0.55377 0.344979
vn 0 -0.141525 -0.9899347
v 0.0796254 0.33967 0.0838653
vt 0.562241 0.337172
vn -0.104349 -0.316812 -0.9427309
v 0.110595 0.267839 0.150837
vt 0.570712 0.329365
vn 0.09098279 -0.177534 -0.9798999
v -0.110595 0.267839 0.150837
vt 0.536828 0.329365
vn -0.0909826 -0.177534 -0.9798999
v -0.0796254 0.33967 0.0838653
vt 0.545299 0.337172
vn 0.104349 -0.316812 -0.9427309
vn -0.8114919 0.266776 0.5199149
vn -0.8846095 -0.1635699 0.4367047
v 0 0.126555 0.44352
vt 0.55377 0.296745
vn 0 -0.2301071 0.9731653
vn -0.72809 -0.496582 0.472537
vn 0 -0.9268832 0.3753501
vn 0.72809 -0.496582 0.472537
vn 0.8846095 -0.1635699 0.4367047
vn 0.8114919 0.266776 0.5199149
vn 0.593017 0.614257 0.520595
vn 0 0.8482769 0.529553
vn 0.2682009 0.8015797 0.5343578
vn -0.2682 0.8015799 0.534358
vn -0.593017 0.614257 0.520595
v -0.105118 0.138663 -0.576653
vt 1.47438 0.105412
vn 0.2422291 0.6403092 -0.7289233
v -0.12665 0.220657 -0.454591
vt 1.20573 0.397182
vn 0.008633566 0.2744609 -0.9615595
v 0 0.248046 -0.445636
vt 1.20573 0.467676
vn 0 0.347729 -0.9375951
v -0.170085 0.32871 -0.514517
vt 1.47438 0.602869
vn 0.4430538 0.1851679 -0.8771637
v 0.105118 0.138663 -0.576653
vn -0.2422291 0.6403092 -0.7289233
v 0 0.133197 -0.483186
vt 1.20573 -0.0151572
v 0.170085 0.32871 -0.514517
vn -0.4430538 0.1851679 -0.8771637
v 0.12665 0.220657 -0.454591
vn -0.008633587 0.2744609 -0.9615595
v 0 0.446165 -0.476115
vt 1.47438 1.16035
vn 0 -0.152056 -0.9883719
v 0.0782738 0.362171 -0.408323
vt 1.20573 0.778053
vn 0.0177171 0.2997151 -0.9538642
v -0.0782738 0.362171 -0.408323
vn -0.0177172 0.2997151 -0.9538642
vn -0.8326456 0.1348769 0.5371308
vn -0.8452899 -0.394507 0.360346
v 0 0.171453 -0.211369
vt 0.333271 0.476589
vn 0 -0.3209081 0.9471104
vn -0.5377491 -0.811798 0.227618
vn 0 -0.9902407 0.139368
vn 0.5377491 -0.811798 0.227618
vn 0.8452896 -0.3945078 0.3603458
vn 0.8326456 0.1348769 0.5371308
vn 0.5002258 0.5141798 0.6967018
vn 0 0.6939251 0.7200471
vn -0.5002262 0.5141802 0.6967012
o merged_0_0_node
g polygon_0
usemtl mat_body_mat_id
f 1/1/1 2/2/2 3/3/3
f 2/2/2 4/4/4 3/3/3
f 3/3/3 4/4/4 5/5/5
f 6/6/6 7/7/7 3/3/3
f 7/7/7 8/8/8 3/3/3
f 1/1/1 3/3/3 9/9/9
f 3/3/3 8/8/8 9/9/9
f 10/10/10 11/11/11 3/3/3
f 6/6/6 3/3/3 12/12/12
f 3/3/3 11/11/11 12/12/12
f 13/13/13 14/3/14 5/5/5
f 2/2/15 1/1/16 13/13/13
f 4/4/17 2/2/15 13/13/13
f 15/3/18 13/13/13 1/1/16
f 1/1/16 9/9/19 15/3/18
f 9/9/19 8/8/20 15/3/18
f 6/6/21 15/3/18 7/7/22
f 8/8/20 7/7/22 15/3/18
f 15/3/18 6/6/21 16/14/23
f 11/11/24 16/14/23 12/12/25
f 6/6/21 12/12/25 16/14/23
f 15/3/18 16/14/23 14/3/14
f 10/10/10 14/3/14 16/14/23
f 10/10/10 16/14/23 11/11/24
f 3/3/3 14/3/14 10/10/10
f 5/5/5 4/4/17 13/13/13
f 14/3/14 13/13/13 15/3/18
f 3/3/3 5/5/5 14/3/14
f 17/15/26 18/16/27 19/17/28
f 18/16/27 17/15/26 20/18/29
f 19/17/28 18/16/27 20/18/29
f 21/15/30 22/17/31 23/16/32
f 23/16/32 24/18/33 21/15/30
f 22/17/31 24/18/33 23/16/32
f 25/19/34 26/20/35 27/21/36
f 26/20/35 25/19/34 28/22/37
f 27/21/36 26/20/35 28/22/37
f 29/19/38 30/21/39 31/20/40
f 31/20/40 32/22/41 29/19/38
f 30/21/39 32/22/41 31/20/40
f 33/23/42 34/24/43 35/25/44
f 35/25/44 34/24/43 36/26/45
f 37/27/46 38/28/47 35/25/44
f 35/25/44 38/28/47 33/23/42
f 36/26/45 39/29/48 35/25/44
f 39/29/48 37/27/46 35/25/44
f 36/26/49 34/24/50 39/29/51
f 34/24/50 33/23/52 39/29/51
f 37/27/53 39/29/51 38/28/54
f 33/23/52 38/28/54 39/29/51
f 40/23/55 41/25/56 42/24/57
f 41/25/56 43/26/58 42/24/57
f 44/27/59 41/25/56 45/28/60
f 41/25/56 40/23/55 45/28/60
f 43/26/58 41/25/56 46/29/61
f 46/29/61 41/25/56 44/27/59
f 43/26/62 46/29/63 42/24/64
f 42/24/64 46/29/63 40/23/65
f 44/27/66 45/28/67 46/29/63
f 40/23/65 46/29/63 45/28/67
f 47/30/68 48/31/69 49/32/70
f 50/33/71 49/32/70 51/34/72
f 49/32/70 48/31/69 51/34/72
f 51/34/72 48/31/69 52/35/73
f 47/30/68 53/36/74 48/31/69
f 52/35/73 48/31/69 54/37/75
f 48/31/69 53/36/74 54/37/75
f 54/37/75 53/36/74 55/38/76
f 47/30/68 56/39/77 53/36/74
f 55/38/76 53/36/74 57/40/78
f 53/36/74 56/39/77 57/40/78
f 57/40/78 56/39/77 58/41/79
f 47/30/68 49/32/70 56/39/77
f 58/41/79 56/39/77 59/42/80
f 56/39/77 49/32/70 59/42/80
f 59/42/80 49/32/70 50/33/71
f 52/35/73 60/43/81 51/34/72
f 60/43/81 61/44/82 51/34/72
f 54/37/75 62/45/83 52/35/73
f 60/43/81 52/35/73 62/45/83
f 63/46/84 54/47/75 55/48/76
f 63/46/84 55/48/76 57/47/78
f 57/40/78 58/41/79 64/49/85
f 58/41/79 65/50/86 64/49/85
f 66/51/87 65/50/86 59/42/80
f 58/41/79 59/42/80 65/50/86
f 67/52/88 61/44/82 68/53/89
f 61/44/82 60/43/81 68/53/89
f 68/53/89 60/43/81 69/54/90
f 69/54/90 60/43/81 70/55/91
f 60/43/81 62/45/83 70/55/91
f 64/49/85 65/50/86 71/56/92
f 72/57/93 71/56/92 65/50/86
f 66/51/87 73/58/94 65/50/86
f 65/50/86 73/58/94 72/57/93
f 74/59/95 75/60/96 76/61/97
f 67/52/88 68/53/89 75/60/96
f 75/60/96 68/53/89 76/61/97
f 68/53/89 69/54/90 76/61/97
f 74/59/95 76/61/97 77/62/98
f 69/54/90 70/55/91 76/61/97
f 76/61/97 70/55/91 77/62/98
f 70/55/91 78/63/99 77/62/98
f 74/59/95 77/62/98 79/64/100
f 78/63/99 71/56/92 77/62/98
f 77/62/98 71/56/92 79/64/100
f 71/56/92 72/57/93 79/64/100
f 74/59/95 79/64/100 75/60/96
f 72/57/93 73/58/94 79/64/100
f 79/64/100 73/58/94 75/60/96
f 73/58/94 67/52/88 75/60/96
f 61/44/82 50/33/71 51/34/72
f 50/33/71 66/51/87 59/42/80
f 67/52/88 73/58/94 66/51/87
f 66/51/87 50/33/71 67/52/88
f 67/52/88 50/33/71 61/44/82
f 80/65/101 63/46/84 64/66/85
f 80/65/101 62/66/83 63/46/84
f 63/46/84 57/47/78 64/66/85
f 63/46/84 62/66/83 54/47/75
f 81/67/102 82/68/103 83/69/71
f 83/69/71 82/68/103 84/70/104
f 85/71/105 86/72/106 83/69/71
f 83/69/71 86/72/106 81/67/102
f 87/73/107 88/74/108 83/69/71
f 83/69/71 88/74/108 85/71/105
f 89/75/109 90/76/110 83/69/71
f 90/76/110 91/77/111 83/69/71
f 83/69/71 91/77/111 87/73/107
f 84/70/104 92/78/112 83/69/71
f 89/75/109 83/69/71 93/79/113
f 83/69/71 92/78/112 93/79/113
f 84/70/114 82/68/115 94/80/116
f 82/68/115 81/67/117 94/80/116
f 81/67/117 86/72/118 94/80/116
f 86/72/118 85/71/119 94/80/116
f 85/71/119 88/74/120 94/80/116
f 88/74/120 87/73/121 94/80/116
f 87/73/121 91/77/122 94/80/116
f 89/75/123 94/80/116 90/76/124
f 91/77/122 90/76/124 94/80/116
f 89/75/123 93/79/125 94/80/116
f 93/79/125 92/78/126 94/80/116
f 92/78/126 84/70/114 94/80/116
f 95/81/127 96/82/128 97/83/129
f 97/83/129 96/82/128 98/84/130
f 99/81/131 100/85/88 97/83/129
f 97/83/129 100/85/88 95/81/127
f 101/84/132 102/82/133 97/83/129
f 97/83/129 102/82/133 99/81/131
f 103/86/134 104/87/135 97/83/129
f 97/83/129 104/87/135 101/84/132
f 98/84/130 105/87/136 97/83/129
f 97/83/129 105/87/136 103/86/134
f 98/84/137 96/82/138 106/88/139
f 96/82/138 95/81/140 106/88/139
f 95/81/140 100/85/141 106/88/139
f 100/85/141 99/81/142 106/88/139
f 99/81/142 102/82/143 106/88/139
f 102/82/143 101/84/144 106/88/139
f 101/84/144 104/87/145 106/88/139
f 104/87/145 103/86/146 106/88/139
f 103/86/146 105/87/147 106/88/139
f 105/87/147 98/84/137 106/88/139
v -0.141117 0.1302884 -0.1177393
vt 0.837603 0.513359
vn -0.9024771 0.04797035 -0.4280582
v -0.118785 0.0397723 -0.117776
vt 0.837858 0.269201
vn -0.7466331 -0.537214 -0.3923521
v -0.141117 0.1302887 0.08841704
vt -0.036559 0.513359
vn -0.9124132 0.02966404 0.4081938
v -0.118785 0.03977156 0.0996916
vt -0.0157192 0.269201
vn -0.7356992 -0.5098984 0.4458143
v 0 0.03414373 0.1424473
vt -0.158386 0.293834
vn 0 -0.490637 0.871364
v 0 0.1300707 0.1443553
vt -0.16323 0.513359
vn 0 0.07843933 0.9969189
v 0.118785 0.03977156 0.0996916
vn 0.7356989 -0.5098991 0.445814
v 0.141117 0.1302887 0.08841704
vn 0.9124132 0.02966334 0.4081938
v -0.114012 0.21463 -0.101384
vt 0.795813 0.683619
vn -0.7105502 0.5939792 -0.3772361
v -0.114012 0.21463 0.0802834
vt -0.0156279 0.683619
vn -0.7458122 0.5231312 0.4124292
v 0 0.229483 0.135736
vt -0.14136 0.683619
vn 0 0.4440752 0.8959895
v 0.114012 0.21463 0.0802834
vn 0.7458122 0.5231312 0.4124292
v 0.141117 0.1302884 -0.1177393
vn 0.9024778 0.04796974 -0.4280571
v 0.114012 0.21463 -0.101384
vn 0.7105502 0.5939792 -0.3772361
v 0 0.013656 -0.012475
vt 0.459858 0.00492845
vn 0 -0.9999985 -0.001763371
vt -0.158836 0.00492844
v 0.118785 0.0397723 -0.117776
vn 0.7466331 -0.537214 -0.3923521
v 0 0.03459397 -0.1801876
vt 1.25554 0.294868
vn 0 -0.5238231 -0.8518271
v 0 0.1300704 -0.1829081
vt 1.26245 0.513359
vn 0 0.107719 -0.9941814
v 0 0.234831 -0.154894
vt 1.19137 0.683619
vn 0 0.6875048 -0.7261798
vt 1.10341 0.00492841
vt 1.19044 0.992526
v 0 0.24936 0.0367438
vt 0.201708 0.992526
vn 0 0.9996039 0.0281449
vt -0.140414 0.992526
o merged_1_0_node
g polygon_0
usemtl mat_zigu_mat_id
f 107/89/148 108/90/149 109/91/150
f 109/91/150 108/90/149 110/92/151
f 111/93/152 112/94/153 110/92/151
f 110/92/151 112/94/153 109/91/150
f 111/93/152 113/92/154 112/94/153
f 112/94/153 113/92/154 114/91/155
f 107/89/148 109/91/150 115/95/156
f 115/95/156 109/91/150 116/96/157
f 109/91/150 112/94/153 116/96/157
f 116/96/157 112/94/153 117/97/158
f 114/91/155 118/96/159 112/94/153
f 112/94/153 118/96/159 117/97/158
f 119/89/160 120/95/161 114/91/155
f 114/91/155 120/95/161 118/96/159
f 121/98/162 110/92/151 108/90/149
f 111/99/152 110/92/151 121/98/162
f 113/92/154 111/99/152 121/98/162
f 121/98/162 122/90/163 113/92/154
f 113/92/154 122/90/163 114/91/155
f 114/91/155 122/90/163 119/89/160
f 123/100/164 108/90/149 124/101/165
f 124/101/165 108/90/149 107/89/148
f 123/100/164 124/101/165 122/90/163
f 122/90/163 124/101/165 119/89/160
f 107/89/148 115/95/156 124/101/165
f 124/101/165 115/95/156 125/102/166
f 119/89/160 124/101/165 120/95/161
f 120/95/161 124/101/165 125/102/166
f 108/90/149 123/103/164 121/98/162
f 123/103/164 122/90/163 121/98/162
f 125/104/166 115/95/156 126/105/167
f 115/95/156 116/96/157 126/105/167
f 116/96/157 117/106/158 126/105/167
f 117/106/158 118/96/159 126/105/167
f 118/96/159 120/95/161 126/105/167
f 120/95/161 125/104/166 126/105/167
vt 1.03854 0.732721
vt 0.00481466 0.812086
vt 0.964518 0.996504
vt 0.00481466 1.00963
o merged_2_0_node
g polygon_0
usemtl TEX_ANIM_EYE_mat_id
f 62/107/83 80/108/101 70/109/91
f 70/109/91 80/108/101 78/110/99
f 78/110/99 80/108/101 71/109/92
f 71/109/92 80/108/101 64/107/85
