mtllib Ampharos_Mega.mtl
v 0 0.60688 -0.263861
vt 0.90738 0.802797
vn 0 0.2196691 -0.9755744
v -0.204149 0.54952 -0.512601
vt 0.960598 0.793224
vn -0.117557 -0.022735 -0.9928059
v -0.281854 0.624656 -0.217371
vt 0.897434 0.804699
vn -0.9933857 -0.103223 0.05029859
v -0.169761 0.371798 -0.217371
vt 0.897434 0.77765
vn -0.5668421 -0.8172181 0.104138
v -0.204149 0.737198 -0.512601
vt 0.960598 0.821016
vn -0.06615809 -0.0133452 -0.9977199
v 0 0.396256 -0.51368
vt 0.960828 0.780266
vn 0 -0.349276 -0.9370199
v -0.155119 0.825475 -0.217371
vt 0.897434 0.828902
vn -0.5548081 0.641656 -0.5295901
v 0.169761 0.371798 -0.217371
vn 0.5668409 -0.8172188 0.104138
v 0.155119 0.825475 -0.217371
vn 0.5548081 0.641656 -0.5295901
v 0.204149 0.54952 -0.512601
vn 0.117556 -0.0227347 -0.992806
v 0.204149 0.737197 -0.512601
vn 0.0661574 -0.0133467 -0.9977199
v 0.281854 0.624656 -0.217371
vn 0.9933856 -0.103224 0.05029858
v 0.187963 0.841314 -0.00143857
vt 0.851236 0.827875
vn 0.9478003 0.110125 0.2992441
v 0 0.93027 -0.436691
vt 0.944357 0.837391
vn 0 0.1782369 -0.9839876
v 0 1.01132 -0.107746
vt 0.87398 0.846061
vn 0 0.9996411 -0.0267893
v -0.187963 0.841314 -0.00143857
vn -0.9478002 0.110126 0.299244
v 0 0.457654 -0.0638347
vt 0.864585 0.786834
vn 0 -0.6034511 0.7974001
v 0 0.901441 0.0234915
vt 0.845902 0.834307
vn 0 0.9272394 0.3744692
v -0.15521 0.832004 0.16092
vt 0.8165 0.826035
vn -0.815439 -0.211138 0.538962
v 0.15521 0.832004 0.16092
vn 0.815439 -0.211138 0.538962
v 0 0.783188 0.257991
vt 0.795732 0.821657
vn 0 -0.4693801 0.8829963
v 0 0.916876 0.120107
vt 0.825232 0.835958
vn 0 0.9384475 0.3454218
v 0.0891797 0.199963 -0.156231
vt 0.337827 0.727833
vn 0.5560169 0.3259799 -0.7645798
v 0.0895417 0.0894933 -0.152177
vt 0.336907 0.70035
vn 0.6918123 -0.4613022 -0.5555142
v 0 0.105362 -0.245704
vt 0.358122 0.720186
vn 0 0.08742867 -0.9961708
v 0.177864 0.0808644 0
vt 0.302388 0.689564
vn 0.9454868 -0.325599 0.006320848
v -0.0891794 0.199963 -0.156231
vn -0.534617 0.32998 -0.7780089
v 0.16962 0.199963 0
vt 0.302388 0.727833
vn 0.9756433 -0.0206714 -0.2183871
v -0.059198 0.342097 -0.101355
vt 0.325379 0.793033
vn -0.4012741 0.3874471 -0.8299782
v 0.118397 0.342097 -0.0128888
vt 0.305312 0.793033
vn 0.7979613 0.5646212 -0.2108571
v 0.0591984 0.342097 -0.101354
vn 0.4307683 0.3867413 -0.8153955
v 0.0908661 -7.450581E-09 0
vt 0.302388 0.588483
vn 0.2204081 -0.9750912 -0.02484681
v -0.0895413 0.0894933 -0.152177
vn -0.691812 -0.461303 -0.555514
v 0.25309 0.283135 0.157937
vt 0.266563 0.761616
vn 0.8115831 0.09218641 0.5769181
v 0.0895416 0.0808644 0.148233
vt 0.268764 0.689564
vn 0.4295321 -0.5740811 0.6970891
v 0.0891797 0.199963 0.133663
vt 0.272069 0.727833
vn 0.34775 -0.0139958 0.9374829
v 0 0.526476 -0.0501145
vt 0.313756 0.98849
vn 0 0.9969921 -0.07750381
v -0.118396 0.342097 -0.0128888
vn -0.7979611 0.5646211 -0.210858
v -0.177863 0.0808644 0
vn -0.9454871 -0.3255981 0.006320631
v -0.0908661 -7.450581E-09 0
vn -0.2204081 -0.9750912 -0.02484691
v 0.0591984 0.342097 0.0736087
vt 0.285691 0.793033
vn 0.142404 0.6438141 0.7518141
v -0.16962 0.199963 0
vn -0.975643 -0.0206719 -0.218388
v -0.0591981 0.342097 0.0736087
vn -0.142417 0.643781 0.75184
v -0.25309 0.283135 0.157937
vn -0.8115831 0.09218621 0.5769181
v -0.0895413 0.0808644 0.148233
vn -0.4295322 -0.5738172 0.6973063
v -0.0891794 0.199963 0.133663
vn -0.3473259 -0.0136139 0.9376457
v 0 0.0337768 0
vt -4.64916E-06 0.406571
vn 0 -0.9988159 0.04864939
vt -0.225832 0.205074
v 0 0.045665 -0.145761
vt 0 0.227661
vn 0 -0.9678661 -0.251466
vt -0.242825 0.407861
vt 0.225831 0.205074
vt -0.219799 0.606658
vt 0.242825 0.407861
vt 0.21982 0.606656
vt 0 0.0901467
v 0.000181067 0.165025 0.163801
vt 0.000386834 0.710291
vn 0.000118341 0.1770471 0.9842024
vt -0.223134 0.761133
vt 0.223191 0.761139
vt -0.147896 0.992264
vt 0.147884 0.992264
v -0.0800673 0.164147 -0.633294
vt 0.763787 0.561828
vn -0.7788977 -0.3848498 -0.4951858
v -0.0800673 0.206061 -0.35663
vt 0.479179 0.243133
vn -0.9522123 0.2412131 0.1873711
v -0.0800673 0.258322 -0.614185
vt 0.524069 0.569708
vn -0.9640948 0.265076 -0.0160036
v -0.0800673 0.0901852 -0.39057
vt 0.782771 0.261051
vn -0.9286095 -0.3665792 0.05748143
v 0 0.392875 -0.760675
vt 0.408111 0.60248
v 0 0.0171697 -0.525953
vt 0.991432 0.384097
vn 0 -0.9437731 -0.330594
v 0.0800673 0.164147 -0.633294
vn 0.7788973 -0.3848501 -0.4951862
v 0 0.257635 -0.405779
vt 0.388845 0.318126
vn 0 0.9847335 0.1740691
v 0 0.0992649 -0.113321
vt 0.655725 -0.0970827
vn 0 -0.3129949 0.9497548
v 0 0.264488 -0.311694
vt 0.310515 0.206902
vn 0 0.856088 0.5168301
v 0.0800673 0.258322 -0.614185
vn 0.9640948 0.265076 -0.0160036
v 0 0.323196 -0.601021
vt 0.358935 0.575136
vn 0 0.9334106 0.3588099
v 0 0.010253 -0.420036
vt 0.994935 0.254079
vn 0 -0.9989664 -0.04545532
v 0.0800673 0.0901852 -0.39057
vn 0.9286091 -0.36658 0.05748141
v 0.0800673 0.206061 -0.35663
vn 0.9522123 0.2412131 0.1873711
v 0.438845 0.897034 -0.0953799
vt 0.928034 0.711707
vn -0.1720781 -0.1280801 -0.9767214
v 0.3847 0.847313 -0.0331989
vt 0.90528 0.69963
vn -0.7194989 -0.632322 -0.287211
v 0.400256 0.920774 -0.0366587
vt 0.905243 0.721898
vn -0.9029056 0.4199158 -0.09182657
v 0.459368 0.854282 -0.0383537
vt 0.944979 0.697241
vn 0.3085299 -0.9427568 -0.126566
v 0.430308 0.947481 -0.0433711
vt 0.918404 0.728473
vn -0.3564949 0.9331706 -0.04587018
v 0.489241 0.8811911 -0.0450611
vt 0.95802 0.70389
vn 0.883392 -0.461507 -0.0814241
v 0.485515 0.9376991 -0.0630171
vt 0.949226 0.721894
vn 0.651865 0.59161 -0.474415
v 0.430108 0.887218 -0.0150184
vt 0.925655 0.709577
vn -0.128193 -0.138998 0.9819603
v 0.472479 0.9246441 -0.00552164
vt 0.94453 0.718877
vn 0.3711819 0.307653 0.8761128
vn -0.111351 -0.124131 0.9859982
v -0.438845 0.897034 -0.0953799
vn 0.101501 -0.06492942 -0.9927143
v -0.400256 0.920774 -0.0366587
vn 0.832656 0.501177 0.235596
v -0.3847 0.847314 -0.0331989
vn 0.699382 -0.630351 0.336931
v -0.430308 0.947481 -0.0433711
vn 0.362063 0.9107241 0.198726
v -0.459368 0.854282 -0.0383537
vn -0.405738 -0.8918201 0.200084
v -0.485515 0.9376991 -0.0630171
vn -0.6896387 0.6225277 -0.3699428
v -0.48924 0.8811911 -0.0450611
vn -0.8666449 -0.4713779 0.163492
v -0.430108 0.887218 -0.0150184
vn 0.0339919 -0.05565911 0.997871
v -0.472479 0.9246441 -0.00552163
vn -0.4114838 0.3443008 0.8438826
vn 0.111352 -0.124129 0.9859983
v -0.170732 0.482483 -0.061875
vt 0.653715 0.913337
vn -0.564752 -0.7789061 -0.272691
v -0.139976 0.46691 0.105377
vt 0.606662 0.911157
vn -0.514016 -0.832692 0.205941
v -0.226602 0.585666 0.0704728
vt 0.616443 0.927867
vn -0.9576088 -0.2434569 0.153994
v 0 0.435104 0.08405
vt 0.612746 0.90591
vn -4.025879E-06 -0.9963216 0.08569297
v -0.219791 0.60771 -0.10544
vt 0.665984 0.930971
vn -0.8944572 -0.184766 -0.4071951
v 0 0.454763 -0.0996237
vt 0.664347 0.909433
vn 0 -0.9063705 -0.4224838
v -0.101852 0.566916 -0.19411
vt 0.690956 0.925226
vn -0.3015448 -0.4084408 -0.8615375
v -0.178491 0.590251 0.19815
vt 0.58096 0.928631
vn -0.83246 -0.197639 0.5176381
v -0.0833289 0.529113 0.259394
vt 0.564834 0.920302
vn -0.5065931 -0.6122331 0.6070701
v 0 0.490596 0.244206
vt 0.569085 0.914873
vn -5.694737E-06 -0.8899266 0.4561038
v 0.170732 0.482483 -0.061875
vn 0.5647519 -0.7789059 -0.272692
v 0.139976 0.466908 0.10538
vn 0.5140138 -0.8326936 0.2059399
v -0.176002 0.732909 -0.162555
vt 0.68207 0.948601
vn -0.6035807 0.3492058 -0.7167606
v -0.226602 0.738531 -0.00660547
vt 0.63815 0.949392
vn -0.934632 0.352175 -0.049354
v -0.0865491 0.619601 0.286877
vt 0.557241 0.93308
vn -0.5060049 0.10197 0.8564819
v -0.122993 0.717154 0.231757
vt 0.571617 0.94653
vn -0.5250378 0.4251068 0.7373056
v 0.0833289 0.529113 0.259394
vn 0.5065913 -0.6122264 0.6070784
v 0 0.559654 0.327182
vt 0.545082 0.927115
vn 0 -0.216389 0.9763072
v 0.101852 0.566916 -0.19411
vn 0.3015448 -0.4084408 -0.8615375
v -0.201108 0.74431 0.113125
vt 0.604435 0.950205
vn -0.8908193 0.2817801 0.3564281
v 0 0.696335 -0.229938
vt 0.701046 0.94345
v -0.135151 0.841506 -0.0559287
vt 0.652041 0.963893
vn -0.4533289 0.8633979 -0.221443
v 0 0.82828 -0.148302
vt 0.678055 0.96203
vn 1.66113E-05 0.7886511 -0.614841
v 0 0.691717 0.284639
vt 0.557689 0.943189
vn 0 0.4946369 0.8690998
v -0.142836 0.814999 0.136311
vt 0.597901 0.96016
vn -0.4783162 0.7942513 0.3746711
v 0 0.81629 0.186247
vt 0.583926 0.960364
vn 5.22628E-05 0.7804109 0.625267
v 0.178491 0.590251 0.19815
vn 0.8324602 -0.197633 0.5176402
v 0.226602 0.585666 0.0704728
vn 0.9576092 -0.2434561 0.153993
v 0.176002 0.732909 -0.162555
vn 0.6035807 0.3492058 -0.7167606
v -0.000143139 0.876448 0.0534124
vt 0.621247 0.968812
vn -0.000135814 0.996124 0.0879601
v 0.135151 0.841506 -0.0559287
vn 0.4531369 0.8635518 -0.2212359
v 0.0865491 0.619601 0.286877
vn 0.5060049 0.10197 0.8564819
v 0.219791 0.60771 -0.10544
vn 0.8944572 -0.184766 -0.4071951
v 0.142836 0.814999 0.136311
vn 0.4780891 0.7944791 0.374478
v 0.226602 0.738531 -0.00660547
vn 0.934632 0.352175 -0.0493541
v 0.122993 0.717154 0.231757
vn 0.5250378 0.4251068 0.7373056
v 0.201108 0.74431 0.113125
vn 0.8908193 0.2817801 0.3564281
v 0.0240995 0.267516 -0.420255
vt 0.872565 0.937252
vn 1 0 0
v -0.0487987 0.267516 -0.493153
vt 0.8956 0.900638
vn 0 0 -1
v -0.0487987 0.340415 -0.420255
vt 0.945793 0.948769
vn 0 1 -1.4995E-06
v -0.0487987 0.194618 -0.420255
vt 0.799336 0.925734
vn 0 -1 1.6066E-06
v -0.0487987 0.267516 -0.347357
vt 0.849529 0.973866
vn 0 0 1
v -0.121697 0.267516 -0.420255
vn -1 0 0
v 0.173995 0.159053 -0.467372
v 0.101097 0.159053 -0.54027
v 0.101097 0.231951 -0.467372
v 0.101097 0.0861545 -0.467372
v 0.101097 0.159053 -0.394474
v 0.0281989 0.159053 -0.467372
v 0.165894 0.251409 -0.655276
v 0.092996 0.251409 -0.728174
v 0.092996 0.324307 -0.655276
v 0.092996 0.178511 -0.655276
v 0.092996 0.251409 -0.582378
v 0.0200977 0.251409 -0.655276
v 0.0728982 0.0520761 -0.294852
v 0 0.0520761 -0.36775
v 0 0.124974 -0.294852
v 0 -0.0208221 -0.294852
v 0 0.0520761 -0.221954
v -0.0728982 0.0520761 -0.294852
v 0.334725 0.8877831 -0.0312442
vt 0.623978 0.716156
vn -0.5968729 0.8022339 0.0127812
v 0.366348 0.838048 -0.0913859
vt 0.644778 0.698521
vn -0.06576668 -0.03304289 -0.9972878
v 0.317103 0.800386 -0.0271864
vt 0.620177 0.688134
vn -0.7996358 -0.5960948 0.07248218
v 0.423425 0.879645 -0.0368239
vt 0.674836 0.71028
vn 0.7996354 0.5960953 -0.07248234
v 0.37418 0.8419831 0.0273756
vt 0.650234 0.699892
vn 0.06576519 0.0330427 0.9972879
v 0.405804 0.7922491 -0.0327661
vt 0.671034 0.682258
vn 0.5968741 -0.8022331 -0.0127813
v 0.269948 0.8528891 -0.0258164
vt 0.842148 0.708712
vn -0.5249102 0.8511335 0.006414844
v 0.300586 0.793889 -0.0927922
vt 0.864501 0.686279
v 0.240025 0.755996 -0.0206328
vt 0.833484 0.676019
vn -0.8486133 -0.5239081 0.07332011
v 0.369924 0.836192 -0.031856
vt 0.902136 0.698202
vn 0.8486131 0.5239082 -0.07332002
v 0.309363 0.7982991 0.0403034
vt 0.871119 0.687941
v 0.340001 0.739299 -0.0266724
vt 0.893471 0.665509
vn 0.5249098 -0.8511337 -0.006414898
v 0.183774 0.851972 -0.0201032
vt 0.544529 0.70848
vn -0.4489511 0.8935562 0
v 0.224828 0.752696 -0.126953
vt 0.571991 0.675275
v 0.166562 0.723421 -0.0147089
vt 0.53957 0.667131
vn -0.8911331 -0.447733 0.07359981
v 0.297187 0.789051 -0.0254975
vt 0.613839 0.685788
vn 0.8911331 0.447733 -0.07360001
v 0.238921 0.759776 0.08674641
vt 0.581418 0.677643
v 0.279975 0.6605 -0.0201032
vt 0.608881 0.644439
vn 0.4489507 -0.8935565 0
v -0.334725 0.8877831 -0.0312442
vn 0.5968741 0.8022331 0.0127811
v -0.317103 0.800386 -0.0271864
vn 0.7996349 -0.5960959 0.07248219
v -0.366348 0.838048 -0.0913859
vn 0.06576569 -0.033043 -0.9972879
v -0.37418 0.8419831 0.0273756
vn -0.06576648 0.03304249 0.9972878
v -0.423425 0.879645 -0.0368239
vn -0.7996354 0.5960953 -0.07248203
v -0.405804 0.7922491 -0.0327661
vn -0.5968741 -0.8022331 -0.0127809
v -0.269948 0.8528891 -0.0258164
vn 0.5249098 0.8511337 0.006414798
v -0.240025 0.755996 -0.0206328
vn 0.8486134 -0.5239077 0.07332045
v -0.300586 0.793889 -0.0927922
v -0.309363 0.7982991 0.0403034
v -0.369924 0.836192 -0.031856
vn -0.8486133 0.5239081 -0.07332052
v -0.340001 0.739299 -0.0266724
vn -0.5249102 -0.8511335 -0.006414823
v -0.183774 0.851972 -0.0201032
vn 0.4489511 0.8935562 0
v -0.166562 0.723421 -0.0147089
vn 0.8911331 -0.447733 0.07360001
v -0.224828 0.752696 -0.126953
v -0.23892 0.759776 0.08674641
v -0.297187 0.789051 -0.0254975
vn -0.8911331 0.447733 -0.07360011
v -0.279975 0.6605 -0.0201032
vn -0.4489511 -0.8935562 0
v 0.0728982 0.862763 0.208883
v 0 0.862763 0.135985
v 0 0.935661 0.208883
v 0 0.789865 0.208883
v 0 0.862763 0.281782
v -0.0728982 0.862763 0.208883
vt 0.382536 0.768753
vt 0.732072 0.810685
vt 0.382236 0.974637
vt 0.732037 0.810685
o merged_0_0_node
g polygon_0
usemtl mat_body_mat_id
f 1/1/1 2/2/2 3/3/3
f 1/1/1 4/4/4 2/2/2
f 1/1/1 3/3/3 5/5/5
f 1/1/1 6/6/6 4/4/4
f 1/1/1 5/5/5 7/7/7
f 1/1/1 8/4/8 6/6/6
f 1/1/1 7/7/7 9/7/9
f 1/1/1 10/2/10 8/4/8
f 1/1/1 9/7/9 11/5/11
f 1/1/1 12/3/12 10/2/10
f 1/1/1 11/5/11 12/3/12
f 11/5/11 9/7/9 12/3/12
f 10/2/10 12/3/12 8/4/8
f 6/6/6 8/4/8 4/4/4
f 5/5/5 3/3/3 7/7/7
f 2/2/2 4/4/4 3/3/3
f 9/7/9 13/8/13 12/3/12
f 9/7/9 7/7/7 14/9/14
f 9/7/9 15/10/15 13/8/13
f 9/7/9 14/9/14 15/10/15
f 14/9/14 7/7/7 15/10/15
f 12/3/12 13/8/13 8/4/8
f 4/4/4 16/8/16 3/3/3
f 4/4/4 8/4/8 17/11/17
f 4/4/4 17/11/17 16/8/16
f 7/7/7 16/8/16 15/10/15
f 7/7/7 3/3/3 16/8/16
f 8/4/8 13/8/13 17/11/17
f 15/10/15 16/8/16 18/12/18
f 15/10/15 18/12/18 13/8/13
f 17/11/17 19/13/19 16/8/16
f 17/11/17 13/8/13 20/13/20
f 17/11/17 21/14/21 19/13/19
f 17/11/17 20/13/20 21/14/21
f 18/12/18 16/8/16 22/15/22
f 18/12/18 22/15/22 13/8/13
f 22/15/22 16/8/16 19/13/19
f 22/15/22 21/14/21 20/13/20
f 22/15/22 20/13/20 13/8/13
f 22/15/22 19/13/19 21/14/21
f 23/16/23 24/17/24 25/18/25
f 23/16/23 26/19/26 24/17/24
f 23/16/23 25/18/25 27/16/27
f 23/16/23 28/20/28 26/19/26
f 23/16/23 27/16/27 29/21/29
f 23/16/23 30/22/30 28/20/28
f 23/16/23 29/21/29 31/21/31
f 23/16/23 31/21/31 30/22/30
f 24/17/24 26/19/26 32/23/32
f 25/18/25 33/17/33 27/16/27
f 28/20/28 30/22/30 34/24/34
f 28/20/28 35/25/35 26/19/26
f 28/20/28 34/24/34 36/26/36
f 28/20/28 36/26/36 35/25/35
f 35/25/35 32/23/32 26/19/26
f 29/21/29 37/27/37 31/21/31
f 29/21/29 27/16/27 38/22/38
f 29/21/29 38/22/38 37/27/37
f 31/21/31 37/27/37 30/22/30
f 33/17/33 39/19/39 27/16/27
f 33/17/33 40/23/40 39/19/39
f 34/24/34 41/28/41 36/26/36
f 34/24/34 30/22/30 41/28/41
f 30/22/30 37/27/37 41/28/41
f 38/22/38 27/16/27 42/20/42
f 38/22/38 43/28/43 37/27/37
f 38/22/38 42/20/42 44/24/44
f 38/22/38 44/24/44 43/28/43
f 37/27/37 43/28/43 41/28/41
f 27/16/27 39/19/39 42/20/42
f 40/23/40 45/25/45 39/19/39
f 39/19/39 45/25/45 42/20/42
f 44/24/44 46/26/46 43/28/43
f 44/24/44 42/20/42 46/26/46
f 46/26/46 42/20/42 45/25/45
f 47/29/47 33/30/33 48/31/48
f 47/29/47 40/32/40 33/30/33
f 47/29/47 48/31/48 24/33/24
f 47/29/47 45/34/45 40/32/40
f 47/29/47 24/33/24 32/35/32
f 47/29/47 35/36/35 45/34/45
f 47/29/47 32/35/32 35/36/35
f 33/30/33 25/37/25 48/31/48
f 48/31/48 25/37/25 24/33/24
f 45/34/45 35/36/35 49/38/49
f 45/34/45 49/38/49 46/39/46
f 35/36/35 36/40/36 49/38/49
f 46/39/46 49/38/49 43/41/43
f 36/40/36 41/42/41 49/38/49
f 49/38/49 41/42/41 43/41/43
f 50/43/50 51/44/51 52/45/52
f 50/43/50 53/46/53 51/44/51
f 50/43/50 52/45/52 54/47/25
f 50/43/50 55/48/54 53/46/53
f 50/43/50 54/47/25 56/43/55
f 50/43/50 56/43/55 55/48/54
f 51/44/51 57/49/56 52/45/52
f 51/44/51 53/46/53 58/50/57
f 51/44/51 59/51/58 57/49/56
f 51/44/51 58/50/57 59/51/58
f 54/47/25 60/45/59 56/43/55
f 54/47/25 52/45/52 61/52/60
f 54/47/25 61/52/60 60/45/59
f 61/52/60 57/49/56 60/45/59
f 61/52/60 52/45/52 57/49/56
f 55/48/54 62/53/61 53/46/53
f 55/48/54 56/43/55 63/46/62
f 55/48/54 63/46/62 62/53/61
f 62/53/61 58/50/57 53/46/53
f 62/53/61 63/46/62 58/50/57
f 56/43/55 60/45/59 63/46/62
f 59/51/58 64/44/63 57/49/56
f 59/51/58 58/50/57 64/44/63
f 64/44/63 63/46/62 60/45/59
f 64/44/63 60/45/59 57/49/56
f 64/44/63 58/50/57 63/46/62
f 65/54/64 66/55/65 67/56/66
f 65/54/64 68/57/67 66/55/65
f 65/54/64 67/56/66 69/58/68
f 65/54/64 70/59/69 68/57/67
f 65/54/64 69/58/68 71/60/70
f 65/54/64 71/60/70 70/59/69
f 66/55/65 72/61/71 67/56/66
f 66/55/65 68/57/67 72/61/71
f 72/61/71 69/58/68 67/56/66
f 72/61/71 68/57/67 70/59/69
f 71/60/70 69/58/68 73/62/72
f 71/60/70 73/62/72 70/59/69
f 69/58/68 72/61/73 73/62/72
f 73/62/72 72/61/73 70/59/69
f 74/54/74 75/56/75 76/55/76
f 74/54/74 77/58/77 75/56/75
f 74/54/74 76/55/76 78/57/78
f 74/54/74 79/60/79 77/58/77
f 74/54/74 78/57/78 80/59/80
f 74/54/74 80/59/80 79/60/79
f 75/56/75 81/61/81 76/55/76
f 75/56/75 77/58/77 81/61/81
f 81/61/81 78/57/78 76/55/76
f 81/61/81 80/59/80 78/57/78
f 79/60/79 82/62/82 77/58/77
f 79/60/79 80/59/80 82/62/82
f 77/58/77 82/62/82 81/61/83
f 81/61/83 82/62/82 80/59/80
f 83/63/84 84/64/85 85/65/86
f 83/63/84 86/66/87 84/64/85
f 83/63/84 85/65/86 87/67/88
f 83/63/84 88/68/89 86/66/87
f 83/63/84 87/67/88 89/69/90
f 83/63/84 89/69/90 88/68/89
f 84/64/85 90/70/91 85/65/86
f 84/64/85 91/71/92 90/70/91
f 84/64/85 92/72/93 91/71/92
f 86/66/87 88/68/89 93/63/94
f 86/66/87 93/63/94 94/64/95
f 87/67/88 95/73/96 89/69/90
f 87/67/88 85/65/86 96/74/97
f 87/67/88 96/74/97 95/73/96
f 90/70/91 91/71/92 97/75/98
f 90/70/91 97/75/98 98/76/99
f 92/72/93 94/64/95 99/71/100
f 92/72/93 100/77/101 91/71/92
f 92/72/93 99/71/100 100/77/101
f 91/71/92 100/77/101 97/75/98
f 88/68/89 101/69/102 93/63/94
f 88/68/89 89/69/90 101/69/102
f 85/65/86 102/78/103 96/74/97
f 95/73/96 103/79/14 89/69/90
f 95/73/96 96/74/97 104/80/104
f 95/73/96 105/81/105 103/79/14
f 95/73/96 104/80/104 105/81/105
f 89/69/90 103/79/14 101/69/102
f 98/76/99 97/75/98 106/82/106
f 98/76/99 107/83/107 102/78/103
f 98/76/99 106/82/106 108/84/108
f 98/76/99 108/84/108 107/83/107
f 96/74/97 107/83/107 104/80/104
f 96/74/97 102/78/103 107/83/107
f 97/75/98 100/77/101 106/82/106
f 94/64/95 109/70/109 99/71/100
f 94/64/95 93/63/94 110/65/110
f 94/64/95 110/65/110 109/70/109
f 105/81/105 111/73/111 103/79/14
f 105/81/105 104/80/104 112/85/112
f 105/81/105 113/80/113 111/73/111
f 105/81/105 112/85/112 113/80/113
f 107/83/107 108/84/108 112/85/112
f 107/83/107 112/85/112 104/80/104
f 103/79/14 111/73/111 101/69/102
f 100/77/101 114/75/114 106/82/106
f 100/77/101 99/71/100 114/75/114
f 99/71/100 109/70/109 114/75/114
f 93/63/94 115/67/115 110/65/110
f 93/63/94 101/69/102 115/67/115
f 101/69/102 111/73/111 115/67/115
f 113/80/113 112/85/112 116/83/116
f 113/80/113 117/74/117 111/73/111
f 113/80/113 116/83/116 117/74/117
f 115/67/115 117/74/117 110/65/110
f 115/67/115 111/73/111 117/74/117
f 112/85/112 108/84/108 116/83/116
f 106/82/106 114/75/114 118/76/118
f 106/82/106 118/76/118 108/84/108
f 108/84/108 118/76/118 116/83/116
f 114/75/114 109/70/109 118/76/118
f 110/65/110 117/74/117 119/78/119
f 119/78/119 116/83/116 118/76/118
f 119/78/119 117/74/117 116/83/116
f 120/86/120 121/87/121 122/88/122
f 120/86/120 123/89/123 121/87/121
f 120/86/120 122/88/122 124/90/124
f 120/86/120 124/90/124 123/89/123
f 121/87/121 125/86/125 122/88/122
f 121/87/121 123/89/123 125/86/125
f 125/86/125 124/90/124 122/88/122
f 125/86/125 123/89/123 124/90/124
f 126/86/120 127/87/121 128/88/122
f 126/86/120 129/89/123 127/87/121
f 126/86/120 128/88/122 130/90/124
f 126/86/120 130/90/124 129/89/123
f 127/87/121 131/86/125 128/88/122
f 127/87/121 129/89/123 131/86/125
f 131/86/125 130/90/124 128/88/122
f 131/86/125 129/89/123 130/90/124
f 132/86/120 133/87/121 134/88/122
f 132/86/120 135/89/123 133/87/121
f 132/86/120 134/88/122 136/90/124
f 132/86/120 136/90/124 135/89/123
f 133/87/121 137/86/125 134/88/122
f 133/87/121 135/89/123 137/86/125
f 137/86/125 136/90/124 134/88/122
f 137/86/125 135/89/123 136/90/124
f 138/86/120 139/87/121 140/88/122
f 138/86/120 141/89/123 139/87/121
f 138/86/120 140/88/122 142/90/124
f 138/86/120 142/90/124 141/89/123
f 139/87/121 143/86/125 140/88/122
f 139/87/121 141/89/123 143/86/125
f 143/86/125 142/90/124 140/88/122
f 143/86/125 141/89/123 142/90/124
f 144/91/126 145/92/127 146/93/128
f 144/91/126 147/94/129 145/92/127
f 144/91/126 146/93/128 148/95/130
f 144/91/126 148/95/130 147/94/129
f 145/92/127 149/96/131 146/93/128
f 145/92/127 147/94/129 149/96/131
f 149/96/131 148/95/130 146/93/128
f 149/96/131 147/94/129 148/95/130
f 150/97/132 151/98/127 152/99/133
f 150/97/132 153/100/134 151/98/127
f 150/97/132 152/99/133 154/101/130
f 150/97/132 154/101/130 153/100/134
f 151/98/127 155/102/135 152/99/133
f 151/98/127 153/100/134 155/102/135
f 155/102/135 154/101/130 152/99/133
f 155/102/135 153/100/134 154/101/130
f 156/103/136 157/104/127 158/105/137
f 156/103/136 159/106/138 157/104/127
f 156/103/136 158/105/137 160/107/130
f 156/103/136 160/107/130 159/106/138
f 157/104/127 161/108/139 158/105/137
f 157/104/127 159/106/138 161/108/139
f 161/108/139 160/107/130 158/105/137
f 161/108/139 159/106/138 160/107/130
f 162/91/140 163/93/141 164/92/142
f 162/91/140 165/95/143 163/93/141
f 162/91/140 164/92/142 166/94/144
f 162/91/140 166/94/144 165/95/143
f 163/93/141 167/96/145 164/92/142
f 163/93/141 165/95/143 167/96/145
f 167/96/145 165/95/143 166/94/144
f 167/96/145 166/94/144 164/92/142
f 168/97/146 169/99/147 170/98/142
f 168/97/146 171/101/143 169/99/147
f 168/97/146 170/98/142 172/100/148
f 168/97/146 172/100/148 171/101/143
f 169/99/147 173/102/149 170/98/142
f 169/99/147 171/101/143 173/102/149
f 173/102/149 171/101/143 172/100/148
f 173/102/149 172/100/148 170/98/142
f 174/103/150 175/105/151 176/104/142
f 174/103/150 177/107/143 175/105/151
f 174/103/150 176/104/142 178/106/152
f 174/103/150 178/106/152 177/107/143
f 175/105/151 179/108/153 176/104/142
f 175/105/151 177/107/143 179/108/153
f 179/108/153 177/107/143 178/106/152
f 179/108/153 178/106/152 176/104/142
f 180/86/120 181/87/121 182/88/122
f 180/86/120 183/89/123 181/87/121
f 180/86/120 182/88/122 184/90/124
f 180/86/120 184/90/124 183/89/123
f 181/87/121 185/86/125 182/88/122
f 181/87/121 183/89/123 185/86/125
f 185/86/125 184/90/124 182/88/122
f 185/86/125 183/89/123 184/90/124
f 86/109/87 94/110/95 92/111/93
f 86/109/87 92/111/93 84/112/85
vt 0.976295 0.776906
vt 0.719895 0.97309
vt 0.311739 0.781172
vt 0.0237052 0.942338
vt 0.976259 0.776911
vt 0.311751 0.781177
vt 0.0237832 0.942328
o merged_1_0_node
g polygon_0
usemtl TEX_ANIM_EYE_mat_id
f 110/113/110 119/114/119 109/115/109
f 119/114/119 118/116/118 109/115/109
f 85/117/86 90/118/91 102/114/103
f 102/114/103 90/118/91 98/119/99
