mtllib Nuzleaf_M.mtl
v 0.115967 0.321688 -0.0095601
vt 0.941612 0.921158
vn 0.344377 -0.938707 -0.0152847
v 0 0.332643 0.133454
vn 0 -0.9119169 0.410375
v 0 0.294483 -0.0095601
vn 0 -0.99971 0.024082
v 0.152172 0.382433 0.136431
vn 0.6858411 -0.5289451 0.4998391
v 0 0.325915 -0.140529
vn 0 -0.8626486 -0.5058038
v 0.157858 0.345928 -0.0095601
vn 0.5286316 -0.8462084 -0.06693256
v 0.135217 0.396014 -0.16181
vn 0.579771 -0.508597 -0.636549
v -0.115967 0.321688 -0.0095601
vn -0.344377 -0.938707 -0.0152846
v 0 0.377884 0.184589
vn 0 -0.654328 0.7562109
v -0.152172 0.382433 0.136431
vn -0.6858416 -0.5289448 0.4998387
v 0.182073 0.363178 -0.0095601
vn 0.7687363 -0.6357213 -0.07002192
v 0.19975 0.396014 -0.0095601
vn 0.9711668 -0.2369369 0.026381
v 0.217856 0.488552 -0.0095601
vn 0.9974315 0.06021016 0.03879728
v 0.144924 0.488782 -0.172217
vn 0.675975 0.04765739 -0.735382
v -0.157858 0.345928 -0.0095601
vn -0.5286316 -0.8462084 -0.06693256
v -0.182073 0.363178 -0.0095601
vn -0.7687367 -0.6357207 -0.07002197
v -0.135217 0.396014 -0.16181
vn -0.579771 -0.508597 -0.636549
v 0.126205 0.58155 -0.15891
vn 0.5812783 0.5213723 -0.6247292
v -0.19975 0.396014 -0.0095601
vn -0.9711668 -0.2369369 0.02638089
v 0.18518 0.58155 -0.0095601
vn 0.9380772 0.3446931 0.03461021
v 0.172675 0.600774 -0.0095601
vn 0.717156 0.696029 -0.0350837
v 0.115967 0.652285 -0.0095601
vn 0.490724 0.871315 0.000378748
v -0.217856 0.488552 -0.0095601
vn -0.9974315 0.06021027 0.03879708
v 0.142029 0.58155 0.133328
vn 0.6636281 0.5252291 0.5326651
v -0.144924 0.488782 -0.172217
vn -0.675976 0.0476574 -0.735381
v -0.126205 0.58155 -0.15891
vn -0.5812783 0.5213723 -0.6247292
v -0.18518 0.58155 -0.0095601
vn -0.9380772 0.3446931 0.03460991
v -0.172675 0.600774 -0.0095601
vn -0.717156 0.696029 -0.0350835
v -0.115967 0.652285 -0.0095601
vn -0.490724 0.871315 0.000378786
v -0.142029 0.58155 0.133328
vn -0.6636277 0.5252298 0.5326648
v 0 0.409919 0.202669
vt 0.5 0.129231
vn 0 -0.2623781 0.9649652
vt 1.21152 -0.00903082
vt 0.5 -0.0319167
v 0 0.443128 0.205177
vt 0.5 0.296284
vn 0 -0.102934 0.9946882
v 0 0.472381 0.329348
vt 0.15911 0.883421
vn 0 0 1
v 0 0.498696 0.195948
vn 0 0.981094 0.193532
v -0.0263147 0.472381 0.195948
vn -0.981094 0 0.193532
v 0.0263147 0.472381 0.195948
vn 0.981094 0 0.193532
v 0 0.446067 0.195948
vn 0 -0.9810938 0.193533
v 0 0.416639 -0.212139
vt 0.87733 0.210662
vn 0 -0.2521099 -0.9676986
vt 0.87733 0.144543
vt 0.819017 0.195631
vt 0.935644 0.195631
vt 0.814831 0.26324
vt 0.93983 0.26324
vt 0.999554 0.567657
vt -0.18679 0.539077
vt 0.999554 0.498556
v 0.162079 0.425799 0.138128
vt -0.200581 0.649588
vn 0.8060461 -0.138763 0.5753561
v 0.190929 0.48861 0.0651327
vt 0.392591 0.761248
vn 0.9517066 0.06328378 0.3004159
vt 0.999554 0.762396
vt 0.999554 0.958101
v 0.153016 0.543654 0.136577
vt -0.187973 0.8591
vn 0.7883351 0.259607 0.5577921
vt -0.161573 0.958101
vt 0.999554 0.998556
v -0.190929 0.48861 0.0651327
vn -0.9517066 0.06328388 0.3004159
v -0.162079 0.425799 0.138128
vn -0.8060461 -0.138763 0.5753561
v -0.153016 0.543654 0.136577
vn -0.7883351 0.259607 0.5577921
v 0 0.503064 0.204177
vt 0.0750681 0.788094
vn 0 0.2430739 0.9700078
v 0 0.479201 0.207742
vn 0 0.0380207 0.999277
v 0 0.457928 0.206045
vn 0 -0.07187963 0.9974133
o merged_0_0_node
g polygon_0
usemtl mat_face_mat_id
f 1/1/1 2/1/2 3/1/3
f 1/1/1 4/1/4 2/1/2
f 1/1/1 3/1/3 5/1/5
f 1/1/1 6/1/6 4/1/4
f 1/1/1 5/1/5 7/1/7
f 1/1/1 7/1/7 6/1/6
f 2/1/2 8/1/8 3/1/3
f 2/1/2 4/1/4 9/1/9
f 2/1/2 10/1/10 8/1/8
f 2/1/2 9/1/9 10/1/10
f 3/1/3 8/1/8 5/1/5
f 7/1/7 11/1/11 6/1/6
f 7/1/7 12/1/12 11/1/11
f 7/1/7 13/1/13 12/1/12
f 7/1/7 14/1/14 13/1/13
f 11/1/11 4/1/4 6/1/6
f 10/1/10 15/1/15 8/1/8
f 10/1/10 16/1/16 15/1/15
f 5/1/5 8/1/8 17/1/17
f 15/1/15 16/1/16 17/1/17
f 15/1/15 17/1/17 8/1/8
f 14/1/14 18/1/18 13/1/13
f 16/1/16 19/1/19 17/1/17
f 18/1/18 20/1/20 13/1/13
f 18/1/18 21/1/21 20/1/20
f 18/1/18 22/1/22 21/1/21
f 19/1/19 23/1/23 17/1/17
f 22/1/22 24/1/24 21/1/21
f 23/1/23 25/1/25 17/1/17
f 23/1/23 26/1/26 25/1/25
f 23/1/23 27/1/27 26/1/26
f 27/1/27 28/1/28 26/1/26
f 28/1/28 29/1/29 26/1/26
f 28/1/28 30/1/30 29/1/29
f 31/2/31 10/3/10 9/4/9
f 31/2/31 32/5/32 10/3/10
f 31/2/31 9/4/9 4/3/4
f 31/2/31 4/3/4 32/5/32
f 33/6/33 34/6/34 35/6/35
f 33/6/33 36/6/36 34/6/34
f 33/6/33 35/6/35 37/6/37
f 33/6/33 37/6/37 36/6/36
f 38/7/38 5/8/5 17/9/17
f 38/7/38 7/10/7 5/8/5
f 38/7/38 17/9/17 25/11/25
f 38/7/38 14/12/14 7/10/7
f 12/13/12 4/14/4 11/15/11
f 12/13/12 39/16/39 4/14/4
f 12/13/12 40/17/40 39/16/39
f 12/13/12 13/18/13 40/17/40
f 13/18/13 20/19/20 40/17/40
f 20/19/20 41/20/41 40/17/40
f 20/19/20 24/21/24 41/20/41
f 20/19/20 21/22/21 24/21/24
f 19/13/19 42/17/42 23/18/23
f 19/13/19 43/16/43 42/17/42
f 19/13/19 10/14/10 43/16/43
f 19/13/19 16/15/16 10/14/10
f 23/18/23 42/17/42 27/19/27
f 42/17/42 44/20/44 27/19/27
f 44/20/44 30/21/30 27/19/27
f 30/21/30 28/22/28 27/19/27
f 45/23/45 30/23/30 44/23/44
f 45/23/45 44/23/44 46/23/46
f 45/23/45 46/23/46 41/23/41
f 45/23/45 41/23/41 24/23/24
f 32/23/32 39/23/39 47/23/47
f 32/23/32 4/23/4 39/23/39
f 32/23/32 47/23/47 43/23/43
f 32/23/32 43/23/43 10/23/10
v 0.0784881 0.0552504 -0.13425
vt 0.735776 0.385773
vn 0.422079 -0.267051 -0.8663331
v -0.0784881 0.0552504 -0.13425
vt 0.264254 0.385773
vn -0.4220783 -0.2670512 -0.8663335
v 0.0832285 0.178469 -0.126231
vt 0.750015 0.968471
vn 0.4481801 0.1927521 -0.8729153
v -0.0832285 0.178469 -0.126231
vt 0.250015 0.968471
vn -0.4481801 0.1927521 -0.8729153
v -0.156976 0.0552504 -0.00128783
vt 0.028493 0.385773
vn -0.9702758 -0.2419379 -0.005563129
v -0.166457 0.17847 0
vt 1.49012E-05 0.968471
vn -0.9779857 -0.0194984 -0.2077589
v -0.0784881 0.0552504 0.106973
vn -0.402685 -0.340771 0.8495411
v -0.0832285 0.17847 0.126231
vn -0.236728 -0.136045 0.962004
v 0.0784881 0.0552504 0.106973
vn 0.402685 -0.340771 0.8495411
v 0.0832285 0.17847 0.126231
vn 0.236728 -0.136045 0.962004
v 0.156976 0.0552504 -0.00128783
vt 0.971537 0.385773
vn 0.9702758 -0.2419379 -0.005562789
v 0.166457 0.17847 0
vt 1.00001 0.968471
vn 0.9779857 -0.0194984 -0.2077589
vt 0.520211 0.955515
vt 0.509449 0.955515
v 0.0612394 0.297319 -0.0757472
vt 0.518984 0.972183
vn 0.3623 0.530781 -0.766166
v -0.0612393 0.297319 -0.0757472
vt 0.510676 0.972183
vn -0.3623 0.530781 -0.766166
vt 0.504068 0.955515
v -0.122479 0.297319 0
vt 0.506522 0.972183
vn -0.6846187 0.6550286 -0.3197418
vt 0.525592 0.955515
v 0.122479 0.297319 0
vt 0.523138 0.972183
vn 0.6846188 0.6550288 -0.3197409
v 0 0.0231661 0
vt 0.500015 0.373398
vn 0 -0.9999936 0.003571909
v -0.0784891 7.450581E-09 0
vt 0.264251 0.0126712
vn -0.178932 -0.9838551 -0.0035426
v 0.0784891 7.450581E-09 0
vt 0.735779 0.0126712
vn 0.178932 -0.9838551 -0.00354254
v 0 0.3137 0
vt 0.51483 0.973733
vn 0 0.9999933 -0.003654151
vt 0.476862 0.972183
v -0.0612394 0.297319 0.100477
vt 0.481016 0.972183
vn -0.07451662 0.6237482 0.7780653
vt 0.48517 0.973733
v 0.0612394 0.297319 0.100477
vt 0.489324 0.972183
vn 0.07451662 0.6237482 0.7780653
vt 0.493478 0.972183
v -0.229375 0.219727 0.154159
vt 0.470341 0.964848
vn -0.8310459 -0.0464383 0.5542619
v 0.229375 0.219727 0.154159
vt 0.5 0.964848
vn 0.8310459 -0.0464385 0.5542619
vt 0.474408 0.955515
vt 0.479789 0.955515
vt 0.490551 0.955515
vt 0.495932 0.955515
vt 0.529659 0.964848
o merged_1_0_node
g polygon_0
usemtl mat_body_mat_id
f 48/24/48 49/25/49 50/26/50
f 50/26/50 49/25/49 51/27/51
f 49/25/49 52/28/52 51/27/51
f 51/27/51 52/28/52 53/29/53
f 52/28/52 54/25/54 53/29/53
f 53/29/53 54/25/54 55/27/55
f 54/25/54 56/24/56 55/27/55
f 55/27/55 56/24/56 57/26/57
f 58/30/58 59/31/59 56/24/56
f 56/24/56 59/31/59 57/26/57
f 48/24/48 50/26/50 58/30/58
f 58/30/58 50/26/50 59/31/59
f 50/32/50 51/33/51 60/34/60
f 60/34/60 51/33/51 61/35/61
f 51/33/51 53/36/53 61/35/61
f 61/35/61 53/36/53 62/37/62
f 50/32/50 60/34/60 59/38/59
f 59/38/59 60/34/60 63/39/63
f 49/25/49 48/24/48 64/40/64
f 65/41/65 49/25/49 64/40/64
f 54/25/54 65/41/65 64/40/64
f 56/24/56 54/25/54 64/40/64
f 66/42/66 56/24/56 64/40/64
f 48/24/48 58/30/58 66/42/66
f 60/34/60 61/35/61 67/43/67
f 61/35/61 62/37/62 67/43/67
f 62/44/62 68/45/68 67/46/67
f 68/45/68 69/47/69 67/46/67
f 69/47/69 63/48/63 67/46/67
f 63/39/63 60/34/60 67/43/67
f 48/24/48 66/42/66 64/40/64
f 58/30/58 56/24/56 66/42/66
f 54/25/54 52/28/52 65/41/65
f 52/28/52 49/25/49 65/41/65
f 62/44/62 70/49/70 68/45/68
f 69/47/69 71/50/71 63/48/63
f 53/51/53 55/52/55 70/49/70
f 70/49/70 55/52/55 68/45/68
f 53/36/53 70/50/70 62/37/62
f 57/53/57 59/54/59 71/50/71
f 71/55/71 59/38/59 63/39/63
f 57/53/57 71/50/71 69/47/69
vt -0.15974 -0.096879
vt 1.16012 -0.096879
vt 0.0146154 0.436534
vt 0.985769 0.436534
v 0 0.556543 -0.2038
vt 0.5 0.66156
vn 0 0.2795832 -0.9601215
vt 1.06381 0.595837
vt 0.990981 0.706752
vt 0.5 0.797132
vt 0.0383865 0.860568
v 0 0.591164 0.171698
vt 0.5 0.840157
vn 0 0.5249562 0.8511292
v 0 0.686501 -0.0095601
vt 0.5 0.881962
vn 0 0.999715 0.0238723
v 0 0.668945 -0.132054
vt 0.5 0.816547
vn 0 0.8572243 -0.5149432
vt 0.95115 0.84287
v 0 0.663096 0.103014
vt 0.5 0.896906
vn 0 0.8889902 0.4579262
vt 0.961614 0.860568
vt 0.04885 0.84287
vt 0.00901878 0.706752
vt -0.0638051 0.595837
vt 0.5 0.498632
o merged_2_0_node
g polygon_0
usemtl mat_line_mat_id
f 55/56/55 57/57/57 68/58/68
f 68/58/68 57/57/57 69/59/69
f 72/60/72 25/61/25 26/62/26
f 45/63/45 24/64/24 73/65/73
f 74/66/74 75/67/75 29/68/29
f 72/60/72 26/62/26 75/67/75
f 75/67/75 26/62/26 29/68/29
f 74/66/74 29/68/29 76/69/76
f 29/68/29 30/70/30 76/69/76
f 30/70/30 73/65/73 76/69/76
f 74/66/74 76/69/76 22/71/22
f 73/65/73 24/64/24 76/69/76
f 76/69/76 24/64/24 22/71/22
f 74/66/74 22/71/22 75/67/75
f 22/71/22 18/72/18 75/67/75
f 18/72/18 72/60/72 75/67/75
f 72/60/72 18/72/18 14/73/14
f 14/73/14 38/74/38 72/60/72
f 72/60/72 38/74/38 25/61/25
f 45/63/45 73/65/73 30/70/30
v 0.224861 0.729091 -0.36154
vt 0.865339 0.760879
vn 0.05774829 0.9887368 -0.138075
v 0.221725 0.6627111 -0.511638
vt 0.414116 1
vn 0.164436 0.9008338 -0.4018199
v 0.1088 0.729091 -0.409035
vt 0.0274169 0.745007
v 0.0176973 0.7265071 -0.094297
vt 0.448165 0.165894
vn -0.07510351 0.9829941 0.167577
v 0.0385537 0.7265071 -0.0849497
vt 0.59881 0.167439
v 0.0103189 0.745447 -0.226584
vt -0.00893661 0.372969
vn 0.0108735 0.9995897 -0.02649839
v 0.15124 0.745447 -0.163427
vt 1.00894 0.383407
v -0.00631763 0.6806391 -0.0252141
vt 0.546551 0
vn -0.217879 0.8462782 0.4861501
vn -0.05774829 -0.9887368 0.138075
vn -0.164436 -0.9008338 0.4018199
vn -0.0108735 -0.9995897 0.02649839
vn 0.07409516 -0.9834515 -0.1653269
vn 0.217879 -0.8462782 -0.4861501
o merged_3_0_node
g polygon_0
usemtl leaf_mat_id
f 77/75/77 78/76/78 79/77/77
f 80/78/79 81/79/79 82/80/80
f 82/80/80 81/79/79 83/81/80
f 82/80/80 83/81/80 79/77/77
f 79/77/77 83/81/80 77/75/77
f 81/79/79 80/78/79 84/82/81
f 77/75/82 79/77/82 78/76/83
f 83/81/84 81/79/85 82/80/84
f 82/80/84 81/79/85 80/78/85
f 82/80/84 79/77/82 83/81/84
f 83/81/84 79/77/82 77/75/82
f 81/79/85 84/82/86 80/78/85
vt -0.225406 0.908441
v -0.164002 0.487964 0.139825
vt 0.186791 0.896668
vn -0.579667 0.041262 0.8138081
vt 0.233522 0.987768
vt 1.27581 0.853868
vt 1.26866 0.818792
vt 0.18773 0.793597
v 0.164002 0.487964 0.139825
vn 0.579667 0.04126211 0.8138081
o merged_4_0_node
g polygon_0
usemtl TEX_ANIM_EYE_mat_id
f 42/83/42 85/84/87 44/85/44
f 46/86/46 85/84/87 47/87/47
f 47/87/47 85/84/87 43/88/43
f 46/86/46 47/87/47 86/84/88
f 86/84/88 47/87/47 39/88/39
f 46/86/46 86/84/88 41/85/41
f 86/84/88 40/83/40 41/85/41
f 85/84/87 42/83/42 43/88/43
f 46/86/46 44/85/44 85/84/87
f 39/88/39 40/83/40 86/84/88
