mtllib Clefable.mtl
v -0.258685 0.317203 0.00155796
vt 0.0762085 0.343124
vn -0.9581394 0.2851588 -0.02555999
v -0.225454 0.428007 -6.07384E-05
vn -0.9315599 0.36344 -0.0103729
v -0.208576 0.382704 -0.122843
vn -0.8218451 0.332195 -0.462836
v -0.206751 0.387601 0.0929998
vn -0.8859822 0.2806711 0.3691331
v -0.234142 0.242398 -0.130053
vn -0.8969406 -0.04048488 -0.4402938
v -0.191901 0.30716 0.184522
vn -0.6902899 0.237145 0.6835659
v -0.268817 0.196052 -0.00120113
vn -0.950349 -0.306372 -0.0545242
v -0.297665 0.202166 0.141281
vn -0.8984291 -0.143952 0.4148531
v -0.171156 0.509347 -0.0790728
vn -0.704735 0.5852091 -0.4010971
v -0.177697 0.508116 0.0640343
vn -0.7905552 0.5659482 0.2339341
v -0.204523 0.130757 -0.114967
vn -0.754084 -0.504874 -0.420071
v -0.169099 0.300486 -0.219846
vn -0.4904402 0.147561 -0.8588912
v -0.146806 0.157751 -0.205353
vn -0.3656279 -0.4374759 -0.8215418
v -0.186711 0.184131 0.163128
vn -0.5192801 -0.5072471 0.6877852
v -0.145488 0.474462 0.147868
vn -0.665118 0.44909 0.596604
v -0.0769261 0.171826 0.221003
vn -0.147405 -0.290363 0.9454951
v -0.0956407 0.307274 0.234325
vt 0.0902498 0.345058
vn -0.149494 -0.0546906 0.987249
v -0.10722 0.463642 -0.162287
vn -0.3708508 0.5022637 -0.7811535
v -0.0687081 0.575418 -0.0700958
vn -0.2224539 0.8317077 -0.5087008
v -0.111392 0.583321 0.000560893
vn -0.4850141 0.8732212 0.04739261
v -0.124134 0.0689698 -0.10805
vn -0.270778 -0.8395801 -0.47094
v -0.20249 0.073072 4.7127E-05
vn -0.7702131 -0.6291782 0.104435
v -0.124134 0.0689698 0.108095
vn -0.3696258 -0.7656487 0.5264588
v 0 0.0689698 0.15286
vn 0 -0.8290293 0.5592052
v 0.0769261 0.171826 0.221003
vn 0.147405 -0.290363 0.9454951
v -0.104107 0.534595 0.114205
vn -0.3638129 0.7881117 0.4965079
v -0.0579096 0.489913 0.186692
vn -0.149264 0.5768231 0.8031161
v 0 0.511238 -0.161164
vn 0 0.6297118 -0.7768288
v 0 0.603912 0.00649198
vn 0 0.9995469 0.0301021
v 0.0687082 0.575418 -0.0700958
vn 0.2224539 0.8317077 -0.5087008
v 0 0.22306 -0.258952
vn 0 -0.209204 -0.977872
v 0 0.369103 -0.237135
vn 0 0.318514 -0.9479182
v 0 0.0689698 -0.152815
vn 0 -0.8073931 -0.590014
v 0 0.035692 7.77154E-06
vn 0 -1 2.21279E-05
v 0.124134 0.0689698 0.108095
vn 0.3696258 -0.7656487 0.5264588
v 0.186711 0.184131 0.163128
vn 0.5192801 -0.5072471 0.6877852
v 0.191901 0.30716 0.184522
vn 0.6902899 0.237145 0.6835659
v 0.0956407 0.307274 0.234325
vn 0.149494 -0.0546906 0.987249
v 0 0.575418 0.0951237
vn 0 0.8756049 0.483028
v 0.10722 0.463642 -0.162287
vn 0.3708508 0.5022637 -0.7811535
v 0.111392 0.583321 0.000560894
vn 0.4850141 0.8732212 0.04739271
v 0.171156 0.509347 -0.0790728
vn 0.704735 0.5852091 -0.4010971
v 0.146806 0.157751 -0.205353
vn 0.3656279 -0.4374759 -0.8215418
v 0.169099 0.300486 -0.219846
vn 0.4904402 0.147561 -0.8588912
v 0.297665 0.202166 0.141281
vn 0.8984291 -0.143952 0.4148531
v 0.20249 0.073072 4.7127E-05
vn 0.7702127 -0.6291788 0.1044349
v 0.268817 0.196052 -0.00120113
vn 0.950349 -0.306372 -0.0545243
v 0.124134 0.0689698 -0.10805
vn 0.270778 -0.8395801 -0.47094
v 0.208576 0.382704 -0.122843
vn 0.8218451 0.332195 -0.462836
v 0.225454 0.428007 -6.07383E-05
vn 0.9315596 0.3634408 -0.0103728
v 0.104107 0.534595 0.114205
vn 0.3638129 0.7881117 0.4965079
v 0.0579096 0.489913 0.186692
vn 0.149264 0.5768231 0.8031161
vt 0.104291 0.346992
v 0.258685 0.317203 0.00155796
vn 0.9581394 0.2851588 -0.02555999
v 0.206751 0.387601 0.0929998
vn 0.8859822 0.2806711 0.3691331
v 0.145488 0.474462 0.147868
vn 0.665118 0.44909 0.596604
v 0.204523 0.130757 -0.114967
vn 0.754084 -0.504874 -0.420071
v 0.177697 0.508116 0.0640343
vn 0.7905552 0.5659482 0.2339341
v 0.234142 0.242398 -0.130053
vn 0.8969406 -0.04048498 -0.4402938
v 0.16088 0.385161 -0.216977
vt 0.030615 0.0948411
vn -0.08750679 0.0184079 0.9959939
v 0.0705742 0.371983 -0.227495
vn -0.9272798 0.03196509 0.3730019
v 0.268489 0.28973 -0.227495
vn 0.192182 -0.9422889 0.274149
v 0.299673 0.537631 -0.227495
vn -0.214427 0.9728602 0.08697172
v 0.226235 0.364894 -0.227495
vn 0.8266061 -0.350691 0.4401571
v 0.231003 0.42918 -0.227495
vn 0.9153199 0.0921851 0.392035
v 0.335654 0.411282 -0.227495
vn 0.8899809 0.211371 0.4040499
v 0.175084 0.349514 -0.264427
vn -0.233527 -0.486622 -0.841822
v 0.182516 0.428615 -0.264427
vn -0.349798 0.52088 -0.778669
v 0.205663 0.391293 -0.254645
vn 0.3919721 -0.07226931 -0.9171342
v -0.160881 0.385161 -0.216977
vn 0.08750689 0.0184078 0.9959939
v -0.268489 0.28973 -0.227495
vn -0.192182 -0.942288 0.274152
v -0.0705743 0.371983 -0.227495
vn 0.9272801 0.0319646 0.373001
v -0.226235 0.364894 -0.227495
vn -0.8266064 -0.3506902 0.4401572
v -0.299673 0.537631 -0.227495
vn 0.2144281 0.9728603 0.08696783
v -0.335654 0.411282 -0.227495
vn -0.889982 0.21137 0.404048
v -0.231003 0.42918 -0.227495
vn -0.9153199 0.0921848 0.392035
v -0.175084 0.349514 -0.264427
vn 0.2335271 -0.4866212 -0.8418224
v -0.182516 0.428615 -0.264427
vn 0.349799 0.520881 -0.7786679
v -0.205663 0.391293 -0.254645
vn -0.3919721 -0.07226931 -0.9171342
v 0.0205981 0.671169 0.0868122
vt 0.940214 0.968999
vn -0.1658529 0.8704057 -0.4635588
v -0.0952984 0.583853 0.207304
vn -0.9955214 0.01974971 0.09245024
v -0.0288612 0.680246 0.205327
vn -0.3604592 0.8977925 0.2530572
v -0.0355519 0.58915 0.0606586
vn -0.532989 -0.272415 -0.8010699
v 0.0800258 0.6341901 0.18326
vn 0.8361901 0.4618041 0.295843
v 0.0617218 0.608026 0.0844007
vn 0.6807479 -0.2512289 -0.6880889
v -0.0443616 0.485186 0.222059
vn -0.3224228 -0.9460475 0.03221458
v 0.0790897 0.510376 0.196502
vn 0.6127508 -0.7898757 -0.02515629
v 0.00302295 0.588888 0.272112
vt 0.127159 0.858009
vn 0.140349 0.08684679 0.9862859
vt -0.00516638 1.22315
vt -0.254092 0.859486
vt 0.41086 1.06649
vt -0.0534594 0.488887
vt 0.414449 0.599869
v 0.0745769 0.0574096 -0.351709
vt 0.833401 -0.106369
vn 0.157048 -0.8300251 -0.5351581
v 0.147059 0.20729 -0.417623
vt 1.16206 0.366065
vn 0.5444811 -0.08606272 -0.8343462
v 0.151913 0.131086 -0.312163
vt 1.04768 0.0515922
vn 0.8337938 -0.2001249 0.5145269
v -0.0038192 0.184187 -0.392854
vt 0.672607 0.35603
vn -0.287088 -0.265874 -0.920267
v 0.000227308 0.0634006 -0.245288
vt 0.500341 -0.126251
vn 0.07274221 -0.5657601 0.821355
v -0.0956672 0.092529 -0.308746
vt 0.282527 0.0602167
vn -0.6739692 -0.6518613 -0.3476241
v 0.122637 0.303021 -0.352704
vt 1.04768 0.627104
vn 0.6829341 0.6468761 0.3393411
v 0.0216111 0.33504 -0.415396
vt 0.814314 0.824632
vn -0.08426059 0.560989 -0.8235239
v -0.122796 0.193504 -0.244498
vt 0.162064 0.339348
vn -0.5537282 0.09279183 0.8275113
v 0.0296379 0.214551 -0.265315
vt 0.651623 0.339348
vn 0.287088 0.265874 0.920267
v -0.128402 0.264114 -0.348107
vt 0.27073 0.635607
vn -0.8349117 0.1877439 -0.5173728
v -0.0471432 0.341597 -0.310884
vt 0.500341 0.804946
vn -0.153542 0.8375282 0.5243772
v 0.402088 0.6315861 0
vt -0.110912 0.0501147
vn 0.8596342 0.5109101 0
v 0.234223 0.449763 0
vt 0.208647 0.0383014
vn 0.5886812 -0.8083653 0
v 0.198184 0.5104001 -0.0705378
vt 0.31635 0.0498854
vn 0.07998873 0.04754012 -0.9956614
v 0.198184 0.5104001 0.0705378
vn 0.07998893 0.04753952 0.9956615
v 0.162146 0.5710371 0
vt 0.209679 0.0614694
vn -0.428704 0.903445 0
v 0.166376 0.491495 0
vt 0.262756 0.0498854
vn -0.4751509 -0.7724888 -0.4212989
vn -0.4751509 -0.7724888 0.4212989
vn -0.9056417 -0.04816059 -0.4212999
vn -0.9056417 -0.04816059 0.4212999
v -0.402088 0.6315861 0
vn -0.8596356 0.5109078 0
v -0.198184 0.5104001 -0.0705378
vn -0.08000769 0.04756219 -0.9956589
v -0.234223 0.449763 0
vn -0.5887171 -0.8083391 0
v -0.162146 0.5710371 0
vn 0.4286931 0.9034502 0
v -0.198184 0.5104001 0.0705378
vn -0.08000769 0.04756209 0.9956589
v -0.1664 0.4915 0
vn 0.4753481 -0.7724431 -0.4211601
vn 0.905721 -0.0484437 -0.421097
vn 0.4753481 -0.7724431 0.4211601
vn 0.905721 -0.0484437 0.421097
v -0.174425 0.508731 -0.00755256
vt 0.0563296 0.374657
vn -0.8055298 0.5917049 -0.03173299
vt 0.0768123 0.384358
vt 0.0496823 0.377891
v 0.174425 0.508731 -0.00755256
vt 0.0710373 0.409956
vn 0.8055298 0.5917049 -0.03173239
vt 0.0915199 0.419657
vt 0.06439 0.41319
vt 0.928686 0.693599
vt 0.329004 0.854356
vt 1.05723 0.854356
v 0 0.383565 0.23135
vt 0.693115 1.16254
vn 0 0.2165309 0.9762757
o merged_0_0_node
g polygon_0
usemtl mat_body1_mat_id
f 1/1/1 2/1/2 3/1/3
f 1/1/1 4/1/4 2/1/2
f 1/1/1 3/1/3 5/1/5
f 1/1/1 6/1/6 4/1/4
f 1/1/1 5/1/5 7/1/7
f 1/1/1 8/1/8 6/1/6
f 1/1/1 7/1/7 8/1/8
f 2/1/2 9/1/9 3/1/3
f 2/1/2 4/1/4 10/1/10
f 5/1/5 11/1/11 7/1/7
f 5/1/5 3/1/3 12/1/12
f 5/1/5 13/1/13 11/1/11
f 5/1/5 12/1/12 13/1/13
f 6/1/6 8/1/8 14/1/14
f 6/1/6 15/1/15 4/1/4
f 6/1/6 14/1/14 16/1/16
f 6/1/6 16/1/16 17/2/17
f 4/1/4 15/1/15 10/1/10
f 8/1/8 7/1/7 14/1/14
f 9/1/9 18/1/18 3/1/3
f 9/1/9 19/1/19 18/1/18
f 9/1/9 20/1/20 19/1/19
f 3/1/3 18/1/18 12/1/12
f 11/1/11 13/1/13 21/1/21
f 11/1/11 22/1/22 7/1/7
f 11/1/11 21/1/21 22/1/22
f 7/1/7 22/1/22 14/1/14
f 16/1/16 14/1/14 23/1/23
f 16/1/16 23/1/23 24/1/24
f 16/1/16 24/1/24 25/1/25
f 14/1/14 22/1/22 23/1/23
f 15/1/15 26/1/26 10/1/10
f 15/1/15 27/1/27 26/1/26
f 10/1/10 26/1/26 20/1/20
f 19/1/19 28/1/28 18/1/18
f 19/1/19 20/1/20 29/1/29
f 19/1/19 30/1/30 28/1/28
f 19/1/19 29/1/29 30/1/30
f 12/1/12 31/1/31 13/1/13
f 12/1/12 18/1/18 32/1/32
f 12/1/12 32/1/32 31/1/31
f 18/1/18 28/1/28 32/1/32
f 21/1/21 13/1/13 33/1/33
f 21/1/21 33/1/33 34/1/34
f 13/1/13 31/1/31 33/1/33
f 23/1/23 34/1/34 24/1/24
f 25/1/25 24/1/24 35/1/35
f 25/1/25 35/1/35 36/1/36
f 25/1/25 36/1/36 37/1/37
f 25/1/25 37/1/37 38/2/38
f 24/1/24 34/1/34 35/1/35
f 27/1/27 39/1/39 26/1/26
f 20/1/20 39/1/39 29/1/29
f 20/1/20 26/1/26 39/1/39
f 30/1/30 40/1/40 28/1/28
f 30/1/30 29/1/29 41/1/41
f 30/1/30 42/1/42 40/1/40
f 30/1/30 41/1/41 42/1/42
f 29/1/29 39/1/39 41/1/41
f 28/1/28 40/1/40 32/1/32
f 31/1/31 43/1/43 33/1/33
f 31/1/31 32/1/32 44/1/44
f 31/1/31 44/1/44 43/1/43
f 32/1/32 40/1/40 44/1/44
f 36/1/36 45/1/45 37/1/37
f 36/1/36 35/1/35 46/1/46
f 36/1/36 47/1/47 45/1/45
f 36/1/36 46/1/46 47/1/47
f 34/1/34 33/1/33 48/1/48
f 33/1/33 43/1/43 48/1/48
f 42/1/42 49/1/49 40/1/40
f 42/1/42 50/1/50 49/1/49
f 40/1/40 49/1/49 44/1/44
f 39/1/39 51/1/51 41/1/41
f 39/1/39 52/1/52 51/1/51
f 39/1/39 27/3/27 52/1/52
f 37/1/37 45/1/45 53/1/53
f 37/1/37 53/1/53 54/1/54
f 37/1/37 54/1/54 55/1/55
f 45/1/45 47/1/47 53/1/53
f 52/1/52 55/1/55 51/1/51
f 46/1/46 48/1/48 56/1/56
f 46/1/46 56/1/56 47/1/47
f 48/1/48 43/1/43 56/1/56
f 50/1/50 53/1/53 49/1/49
f 50/1/50 57/1/57 54/1/54
f 50/1/50 54/1/54 53/1/53
f 57/1/57 41/1/41 51/1/51
f 57/1/57 55/1/55 54/1/54
f 57/1/57 51/1/51 55/1/55
f 44/1/44 58/1/58 43/1/43
f 44/1/44 49/1/49 58/1/58
f 58/1/58 53/1/53 47/1/47
f 58/1/58 47/1/47 56/1/56
f 58/1/58 56/1/56 43/1/43
f 58/1/58 49/1/49 53/1/53
f 59/4/59 60/4/60 61/4/61
f 59/4/59 62/4/62 60/4/60
f 59/4/59 61/4/61 63/4/63
f 59/4/59 64/4/64 62/4/62
f 59/4/59 63/4/63 65/4/65
f 59/4/59 65/4/65 64/4/64
f 60/4/60 66/4/66 61/4/61
f 60/4/60 62/4/62 67/4/67
f 60/4/60 67/4/67 66/4/66
f 62/4/62 64/4/64 67/4/67
f 61/4/61 66/4/66 63/4/63
f 65/4/65 68/4/68 64/4/64
f 65/4/65 63/4/63 68/4/68
f 68/4/68 67/4/67 64/4/64
f 68/4/68 63/4/63 66/4/66
f 68/4/68 66/4/66 67/4/67
f 69/4/69 70/4/70 71/4/71
f 69/4/69 72/4/72 70/4/70
f 69/4/69 71/4/71 73/4/73
f 69/4/69 74/4/74 72/4/72
f 69/4/69 73/4/73 75/4/75
f 69/4/69 75/4/75 74/4/74
f 70/4/70 76/4/76 71/4/71
f 70/4/70 72/4/72 76/4/76
f 73/4/73 77/4/77 75/4/75
f 73/4/73 71/4/71 77/4/77
f 71/4/71 76/4/76 77/4/77
f 74/4/74 78/4/78 72/4/72
f 74/4/74 75/4/75 78/4/78
f 78/4/78 76/4/76 72/4/72
f 78/4/78 75/4/75 77/4/77
f 78/4/78 77/4/77 76/4/76
f 79/5/79 80/5/80 81/5/81
f 79/5/79 82/5/82 80/5/80
f 79/5/79 81/5/81 83/5/83
f 79/5/79 84/5/84 82/5/82
f 79/5/79 83/5/83 84/5/84
f 80/5/80 82/5/82 85/5/85
f 83/5/83 86/5/86 84/5/84
f 86/5/86 82/5/82 84/5/84
f 86/5/86 85/5/85 82/5/82
f 87/6/87 81/7/81 80/8/80
f 87/6/87 83/9/83 81/7/81
f 87/6/87 80/8/80 85/10/85
f 87/6/87 86/11/86 83/9/83
f 87/6/87 85/10/85 86/11/86
f 88/12/88 89/13/89 90/14/90
f 88/12/88 91/15/91 89/13/89
f 88/12/88 90/14/90 92/16/92
f 88/12/88 93/17/93 91/15/91
f 88/12/88 92/16/92 93/17/93
f 89/13/89 94/18/94 90/14/90
f 89/13/89 91/15/91 95/19/95
f 89/13/89 95/19/95 94/18/94
f 92/16/92 96/20/96 93/17/93
f 92/16/92 90/14/90 97/21/97
f 92/16/92 97/21/97 96/20/96
f 90/14/90 94/18/94 97/21/97
f 91/15/91 98/22/98 95/19/95
f 91/15/91 93/17/93 98/22/98
f 93/17/93 96/20/96 98/22/98
f 94/18/94 99/23/99 97/21/97
f 94/18/94 95/19/95 99/23/99
f 99/23/99 98/22/98 96/20/96
f 99/23/99 96/20/96 97/21/97
f 99/23/99 95/19/95 98/22/98
f 100/24/100 101/25/101 102/26/102
f 100/24/100 103/26/103 101/25/101
f 100/24/100 102/26/102 104/27/104
f 100/24/100 104/27/104 103/26/103
f 101/25/101 105/28/105 102/26/102
f 101/25/101 103/26/103 105/28/106
f 104/27/104 102/26/102 105/28/107
f 104/27/104 105/28/108 103/26/103
f 106/24/109 107/26/110 108/25/111
f 106/24/109 109/27/112 107/26/110
f 106/24/109 108/25/111 110/26/113
f 106/24/109 110/26/113 109/27/112
f 107/26/110 111/28/114 108/25/111
f 107/26/110 109/27/112 111/28/115
f 110/26/113 108/25/111 111/28/116
f 110/26/113 111/28/117 109/27/112
f 112/29/118 2/30/2 10/29/10
f 112/29/118 9/29/9 2/30/2
f 112/29/118 10/29/10 20/31/20
f 112/29/118 20/31/20 9/29/9
f 113/32/119 50/33/50 42/32/42
f 113/32/119 57/32/57 50/33/50
f 113/32/119 42/32/42 41/34/41
f 113/32/119 41/34/41 57/32/57
f 17/35/17 25/35/25 38/35/38
f 17/35/17 16/35/16 25/35/25
f 17/36/17 38/37/38 114/38/120
vt 0.724944 0.710433
v -0.110404 0.395455 0.216346
vt 0.837877 0.879074
vn -0.3872132 0.3041931 0.8703634
vt 1.46131 0.70102
vt -0.00668563 0.856336
vt 0.436309 1.05972
v 0.110404 0.395455 0.216346
vn 0.3872132 0.3041931 0.8703634
vt 1.10626 1.02442
o merged_1_0_node
g polygon_0
usemtl TEX_ANIM_EYE_mat_id
f 17/39/17 115/40/121 6/41/6
f 114/42/120 52/43/52 27/43/27
f 52/43/52 116/40/122 55/44/55
f 27/43/27 15/44/15 115/40/121
f 115/40/121 15/44/15 6/41/6
f 114/42/120 115/40/121 17/39/17
f 27/43/27 115/40/121 114/42/120
f 38/39/38 37/41/37 116/40/122
f 116/40/122 37/41/37 55/44/55
f 114/42/120 116/40/122 52/43/52
f 38/39/38 116/40/122 114/42/120
v -0.111884 3.72529E-09 0
vt 0.488872 0.392434
vn -0.11122 -0.9937958 -6.778319E-05
vt 0.598393 0.392434
vt -1.48868 0.392434
vt 0.509547 1.2675
vt 0.475519 0.586452
vt -0.959924 0.922639
v 0.111884 3.72529E-09 0
vn 0.11122 -0.9937958 -6.776299E-05
vt 2.55236 0.392434
vt 2.07879 0.979488
o merged_2_0_node
g polygon_0
usemtl mat_asi_mat_id
f 117/45/123 21/46/21 34/47/34
f 23/48/23 117/49/123 34/50/34
f 118/49/124 35/48/35 34/50/34
f 48/46/48 46/51/46 118/45/124
f 46/52/46 35/48/35 118/49/124
f 23/48/23 22/52/22 117/49/123
f 22/51/22 21/46/21 117/45/123
f 48/46/48 118/45/124 34/47/34
