mtllib Tyranitar_Normal.mtl
v 0.0852688 0.0910858 -0.318439
vt 0.592267 0.966014
vn 0.965161 -0.207411 -0.159515
v 0.108148 0.22938 -0.191647
vn 0.7796912 0.2630731 -0.5682202
v 0.103875 0.09568701 -0.194161
vn 0.8363419 -0.423735 -0.347823
v 0.0538435 0.17081 -0.327988
vn 0.4935389 0.7605269 -0.421922
v 0.0376365 0.0453997 -0.162056
vn 0.351161 -0.9332771 0.0753639
v 0.0475577 0.149673 -0.453844
vn 0.7296667 0.6682618 -0.1449579
v 0.0409762 0.0305971 -0.324112
vn 0.306901 -0.9471869 -0.09299831
v 0.0476555 0.0659998 -0.488503
vn 0.3978031 -0.8838342 -0.24615
v 0 0.25811 -0.205009
vn 0 0.551565 -0.834132
v -0.0409762 0.0305971 -0.324112
vn -0.308341 -0.946631 -0.0938915
v -0.0376365 0.0453997 -0.162056
vn -0.3515241 -0.9331423 0.07534143
v 0.0538324 0.129578 -0.52369
vn 0.994054 -0.0406757 0.101006
v -0.0538434 0.17081 -0.327988
vn -0.498749 0.755825 -0.424238
v -0.0475576 0.149673 -0.453844
vn -0.7430828 0.6537167 -0.143117
v 0 0.177294 -0.503925
vn 0 0.8756579 0.4829319
v -0.0476555 0.0659998 -0.488503
vn -0.3978031 -0.8838342 -0.24615
v -0.0852687 0.0910858 -0.318439
vn -0.965161 -0.207411 -0.159515
v -0.103875 0.09568701 -0.194161
vn -0.8363419 -0.423735 -0.347823
v -0.0538324 0.129578 -0.52369
vn -0.9940539 -0.0406754 0.101007
v -0.108148 0.22938 -0.191647
vn -0.7796912 0.2630731 -0.5682202
v 0 0.0818617 -0.543454
vn 0 -0.9607745 -0.2773308
v 0 0.226584 0.220409
vt 0 0.343276
vn 0 0.01973461 0.9998053
v 0.118633 0.115676 0.162583
vt 0.274238 0.00301973
vn 0.3705731 -0.6635111 0.6499451
v 0.108148 0.226584 0.191647
vt 0.25 0.343276
vn 0.407912 -0.149002 0.9007809
v -0.118633 0.115676 0.162582
vt -0.274238 0.00301973
vn -0.3705731 -0.6635111 0.6499451
v 0.0771592 0.444865 0.126597
vt 0.178365 0.99698
vn 0.103373 0.737201 0.6677191
v -0.108148 0.226584 0.191647
vt -0.25 0.343276
vn -0.4079128 -0.1490019 0.9007806
v -0.0771592 0.444865 0.126597
vt -0.178365 0.99698
vn -0.103373 0.737201 0.6677191
v 0.216295 0.22938 0
vt 0.5 0.343276
vn 0.9577796 0.07130087 -0.2785219
v -0.216295 0.22938 0
vt -0.5 0.343276
vn -0.9577795 0.07130094 -0.2785222
v -0.189222 0.5416141 -0.0966218
vt 0.0187238 0.96941
vn -0.8269209 -0.313934 -0.4665269
v -0.0771591 0.444865 -0.126597
vn -0.178998 -0.925729 -0.333145
v -0.154318 0.444865 0
vn -0.575071 -0.8180831 0.00577305
v -0.0946108 0.5320851 -0.189197
vn -0.315777 -0.296114 -0.9014441
v -0.237217 0.588331 0.03432
vn -0.9721363 -0.1697681 0.1616471
v -0.0906088 0.668704 -0.201896
vn -0.285213 0.161231 -0.9448059
v -0.196543 0.6802601 -0.0991155
vn -0.8728943 0.1348771 -0.4688962
v 0 0.468858 0
vt 0.241195 0.962721
vn 0 1 0
v 0.0771592 0.444865 -0.126597
vn 0.6283303 0.4828682 -0.6099503
vn -0.6283299 0.4828679 -0.609951
v 0.154318 0.444865 0
vn 0.7857107 0.5209708 -0.3335389
vn -0.78571 0.5209711 -0.33354
v 0.146608 0.7920231 -0.115861
vt 0.0193633 0.962639
vn 0.576169 0.59895 -0.556137
v 0.196543 0.6802601 -0.0991155
vn 0.8728943 0.1348771 -0.4688962
v 0.0906088 0.668704 -0.201896
vn 0.2829361 0.159147 -0.9458432
v 0.218829 0.7494 0.0647391
vn 0.9837518 0.112097 0.140238
v 0 0.808686 -0.139467
vn 0 0.6197888 -0.7847687
v 0.133721 0.85532 0.03432
vn 0.5411339 0.8280509 0.146649
v 0 0.874241 -0.0496357
vn 0 0.5659119 -0.8244658
v 0 0.9994271 -0.0583566
vn 0 0.9990329 -0.0439696
v -0.133721 0.85532 0.03432
vn -0.5411339 0.8280509 0.146649
v 0 0.874241 0.127137
vn 0 0.8133799 0.5817329
v -0.146608 0.7920231 -0.115861
vt 0.0219128 0.967773
vn -0.5761683 0.5989503 -0.5561373
v -0.218829 0.7494 0.0647391
vn -0.9837518 0.112097 0.140238
v 0.189222 0.5416141 -0.0966218
vn 0.8269209 -0.313934 -0.4665269
v 0.237217 0.588331 0.03432
vn 0.9721363 -0.1697681 0.1616471
vn 0.575071 -0.8180831 0.005772971
v 0.0946108 0.5320851 -0.189197
vn 0.304268 -0.303965 -0.902788
vn 0.1736631 -0.9194164 -0.3528662
v -0.128861 0.760357 0.175171
vt 0.0229456 0.9787
vn -0.5503309 0.5165889 0.655951
v -0.299217 0.847329 -0.0625507
vn -0.2993849 0.8047327 -0.5126148
v -0.105574 0.6584361 0.233432
vn -0.6860061 0.109005 0.7193841
v 0 0.6412181 0.306464
vn 0 0.2894919 0.9571805
v 0.128861 0.760357 0.175171
vn 0.5503317 0.5165887 0.6559506
v 0.105574 0.6584361 0.233432
vn 0.6860061 0.109005 0.7193841
v 0.299217 0.847329 -0.0625507
vn 0.2993851 0.8047324 -0.5126153
v -0.222106 0.09568701 0.000888239
vt 0.392456 0.707304
vn -0.94116 -0.337088 -0.0242822
vt 0.392456 0.979153
vt 0.563964 0.721931
vt 0.220056 0.709945
v -0.121483 1.490116E-08 0
vt 0.392456 0.465335
vn -0.1911869 -0.9813058 0.02205899
v -0.0342968 0.0602023 0
vt 0.488753 0.515498
vn 0.150904 -0.961184 0.230983
vt 0.282852 0.547039
v 0.222106 0.09568701 0.000888239
vn 0.94116 -0.337088 -0.0242819
v 0.121483 1.490116E-08 0
vn 0.1911869 -0.9813058 0.02205909
v 0.0342968 0.0602023 0
vn -0.151309 -0.9610312 0.231354
v 0 0.165369 -0.60888
vt 0.718356 0.178286
vn 0 0.3826849 -0.9238789
v -0.0431185 0.107824 -0.469954
vt 0.49092 0.178286
vn -0.9612616 0.105482 -0.2546559
v 0 0.147661 -0.453454
vn 0 0.9935719 0.113203
v 0 0.067988 -0.486455
vn 0 -0.7826079 -0.622515
v 0.0431185 0.107824 -0.469954
vn 0.9612616 0.105482 -0.2546559
v -0.265546 0.341584 0.203321
vt 0.452719 0.181629
vn -0.8068191 0.11183 0.5801181
vt 0.710133 0.181629
v 0.265546 0.341584 0.203321
vn 0.8068191 0.11183 0.5801181
vt 0.583937 0.965111
vt 0.0265906 0.91438
vt 1.17837 1.02008
vt 1.25 0.343276
vt 1 0.439258
vt 1.5 0.343276
vt 0.821635 1.02008
vt 1.35673 1.02008
vt 0.75 0.343276
vt 0.643269 1.02008
v 0 0.5629691 0.289551
vt 0.524973 0.0902653
vn 0 -0.7122812 0.7018942
v -0.133803 0.506582 0.166428
vt 0.749874 -0.126722
vn -0.6865517 -0.5235278 0.5045448
v 0 0.471923 0.229793
vt 0.634129 -0.254893
vn 0 -0.7364213 0.6765233
v -0.135761 0.573879 0.196286
vt 0.695334 0.122142
vn -0.7642112 -0.122286 0.6332672
v 0.133803 0.506582 0.166428
vn 0.6865517 -0.5235278 0.5045448
v 0.135761 0.573879 0.196286
vn 0.7642112 -0.122286 0.6332672
vt 0.991188 0.175583
vt 1.05388 -0.354953
v 0 0.5612741 0.308159
vt 0.701745 0.139963
vn 0 -0.2056601 0.9786235
vt 0.848144 0.43686
vt 0.705066 0.384248
vt 0.920916 0.178482
vt 0.0239316 0.956173
vn -0.169254 -0.9702523 0.1731
v 0.0771591 0.444865 0.126597
vn 0.1692531 -0.9702525 0.1731001
vn 0 -0.426293 -0.9045851
vn 0.5762039 -0.3484119 -0.7393228
v 0 0.107815 -0.471183
vn -0.5762041 -0.348411 -0.7393231
vn 0 0.9411565 -0.3379712
vn -0.575093 0.769949 -0.27649
vn 0.575093 0.769949 -0.27649
vn 0.7260453 0.2621581 -0.6357132
vn -0.7260458 0.2621599 -0.6357118
vt 0.0659586 0.0723038
v 0 0.793169 0.222193
vn 0 0.6070401 0.7946712
vt 0.0229713 0.962639
vt 0.234766 0.97136
v -0.0653677 0.445175 -0.0898495
vt 0.938031 0.969668
vn 0.9669264 -0.04767672 -0.2505601
v -0.077286 0.305812 -0.109325
v -0.114409 0.403147 -0.271105
vn -0.9669264 0.04767677 0.2505598
v -0.116601 0.393081 0.0223318
vn 0.8584177 -0.2568979 -0.4439848
v -0.143866 0.301977 0.0223318
v -0.198396 0.367928 -0.12126
vn -0.8584175 0.2568981 0.4439852
v -0.106259 0.408621 0.0333361
v -0.147318 0.329767 -0.000421703
v -0.171172 0.448747 -0.115385
v -0.21756 0.301767 -0.120029
v -0.132425 0.35591 0.0132458
v -0.151765 0.264136 0.0289561
v 0.0653677 0.445175 -0.0898495
vn 0.9669264 0.04767687 0.2505598
v 0.077286 0.305812 -0.109325
v 0.114409 0.403147 -0.271105
vn -0.9669263 -0.04767692 -0.2505601
v 0.116601 0.393081 0.0223318
vn 0.8584177 0.2568979 0.4439848
v 0.143866 0.301977 0.0223318
v 0.198396 0.367928 -0.12126
vn -0.8584175 -0.2568981 -0.4439852
v 0.106259 0.408621 0.0333361
v 0.147318 0.329767 -0.000421704
v 0.171172 0.448747 -0.115385
v 0.21756 0.301767 -0.120029
v 0.132425 0.35591 0.0132458
v 0.151765 0.264136 0.0289561
v 0.059683 0.7665401 -0.111888
vt 0.052147 0.0668815
v 0.0659611 0.555817 -0.0960188
v 0.123279 0.645633 -0.334303
v 0.0645977 0.655005 -0.109631
v 0.0647838 0.447188 -0.0708056
v 0.125561 0.50877 -0.317068
v -0.059683 0.7665401 -0.111888
v -0.065961 0.555817 -0.0960188
v -0.123279 0.645633 -0.334303
v -0.0645977 0.655005 -0.109631
v -0.0647838 0.447188 -0.0708056
v -0.125561 0.50877 -0.317068
vt 0.0272655 0.965582
o merged_0_0_node
g polygon_0
usemtl mat_body1_mat_id
f 1/1/1 2/1/2 3/1/3
f 1/1/1 4/1/4 2/1/2
f 1/1/1 3/1/3 5/1/5
f 1/1/1 6/1/6 4/1/4
f 1/1/1 5/1/5 7/1/7
f 1/1/1 8/1/8 6/1/6
f 1/1/1 7/1/7 8/1/8
f 2/1/2 4/1/4 9/1/9
f 5/1/5 10/1/10 7/1/7
f 5/1/5 11/1/11 10/1/10
f 6/1/6 8/1/8 12/1/12
f 6/1/6 13/1/13 4/1/4
f 6/1/6 14/1/14 13/1/13
f 6/1/6 15/1/15 14/1/14
f 4/1/4 13/1/13 9/1/9
f 7/1/7 10/1/10 16/1/16
f 7/1/7 16/1/16 8/1/8
f 11/1/11 17/1/17 10/1/10
f 11/1/11 18/1/18 17/1/17
f 10/1/10 17/1/17 16/1/16
f 14/1/14 17/1/17 13/1/13
f 14/1/14 16/1/16 17/1/17
f 14/1/14 19/1/19 16/1/16
f 9/1/9 13/1/13 20/1/20
f 20/1/20 17/1/17 18/1/18
f 20/1/20 13/1/13 17/1/17
f 8/1/8 16/1/16 21/1/21
f 22/2/22 23/3/23 24/4/24
f 22/2/22 25/5/25 23/3/23
f 22/2/22 24/4/24 26/6/26
f 22/2/22 27/7/27 25/5/25
f 22/2/22 26/6/26 28/8/28
f 22/2/22 28/8/28 27/7/27
f 23/3/23 29/9/29 24/4/24
f 25/5/25 27/7/27 30/10/30
f 31/11/31 32/11/32 33/11/33
f 31/11/31 34/11/34 32/11/32
f 31/11/31 33/11/33 35/11/35
f 31/11/31 36/11/36 34/11/34
f 31/11/31 35/11/35 37/11/37
f 31/11/31 37/11/37 36/11/36
f 38/12/38 39/12/39 32/12/40
f 38/12/38 40/12/41 39/12/39
f 38/12/38 32/12/40 33/12/42
f 38/12/38 26/12/26 40/12/41
f 38/12/38 33/12/42 28/12/28
f 38/12/38 28/12/28 26/12/26
f 41/13/43 42/13/44 43/13/45
f 41/13/43 44/13/46 42/13/44
f 41/13/43 43/13/45 45/13/47
f 41/13/43 46/13/48 44/13/46
f 41/13/43 45/13/47 47/13/49
f 41/13/43 47/13/49 46/13/48
f 47/13/49 48/13/50 46/13/48
f 47/13/49 49/13/51 48/13/50
f 46/13/48 48/13/50 50/13/52
f 50/13/52 48/13/50 49/13/51
f 51/14/53 47/14/49 45/14/47
f 51/14/53 49/14/51 47/14/49
f 51/14/53 45/14/47 36/14/36
f 51/14/53 52/14/54 49/14/51
f 51/14/53 36/14/36 37/14/37
f 51/14/53 37/14/37 52/14/54
f 53/11/55 42/11/44 54/11/56
f 53/11/55 43/11/45 42/11/44
f 53/11/55 54/11/56 40/11/57
f 53/11/55 55/11/58 43/11/45
f 53/11/55 40/11/57 39/11/59
f 53/11/55 39/11/59 55/11/58
f 56/15/60 57/15/61 52/15/54
f 56/15/60 49/15/51 57/15/61
f 56/15/60 52/15/54 58/15/62
f 56/15/60 50/15/52 49/15/51
f 56/15/60 58/15/62 59/15/63
f 52/15/54 37/15/37 35/15/35
f 50/15/52 60/15/64 46/15/48
f 59/15/63 61/15/65 60/15/64
f 46/15/48 60/15/64 62/15/66
f 61/15/65 44/15/46 60/15/64
f 60/15/64 44/15/46 62/15/66
f 44/15/46 54/15/56 42/15/44
f 63/16/67 30/17/30 18/18/18
f 63/16/67 25/19/25 30/17/30
f 63/16/67 18/18/18 64/20/68
f 63/16/67 64/20/68 25/19/25
f 18/18/18 65/21/69 64/20/68
f 25/19/25 64/20/68 65/22/69
f 66/16/70 29/17/29 23/19/23
f 66/16/70 3/18/3 29/17/29
f 66/16/70 23/19/23 67/20/71
f 66/16/70 67/20/71 3/18/3
f 23/19/23 68/22/72 67/20/71
f 3/18/3 67/20/71 68/21/72
f 69/23/73 70/24/74 71/24/75
f 69/23/73 72/24/76 70/24/74
f 69/23/73 71/24/75 73/24/77
f 69/23/73 73/24/77 72/24/76
f 74/25/78 28/26/28 33/26/42
f 74/25/78 27/26/27 28/26/28
f 74/25/78 33/26/42 30/26/30
f 74/25/78 30/26/30 27/26/27
f 75/25/79 40/26/41 26/26/26
f 75/25/79 29/26/29 40/26/41
f 75/25/79 26/26/26 24/26/24
f 75/25/79 24/26/24 29/26/29
f 68/27/72 23/27/23 25/27/25
f 68/27/72 25/27/25 65/27/69
f 68/27/72 65/27/69 5/27/5
f 68/27/72 5/27/5 3/27/3
f 65/27/69 11/27/11 5/27/5
f 65/27/69 18/27/18 11/27/11
f 34/28/34 39/28/59 32/28/32
f 34/28/34 55/28/58 39/28/59
f 34/28/34 43/28/45 55/28/58
f 34/28/34 36/28/36 43/28/45
f 36/28/36 45/28/47 43/28/45
f 39/29/39 2/30/2 9/31/9
f 39/29/39 29/32/29 2/30/2
f 39/29/39 9/31/9 32/33/40
f 39/29/39 40/34/41 29/32/29
f 9/31/9 20/35/20 32/33/40
f 20/35/20 30/9/30 32/33/40
f 30/9/30 33/36/42 32/33/40
f 76/37/80 77/38/81 78/39/82
f 76/37/80 79/40/83 77/38/81
f 76/37/80 78/39/82 80/38/84
f 76/37/80 80/38/84 81/40/85
f 79/40/83 35/41/35 77/38/81
f 80/38/84 54/41/56 81/40/85
f 80/38/84 40/42/57 54/41/56
f 35/41/35 33/42/33 77/38/81
f 82/43/86 61/44/65 59/45/63
f 82/43/86 81/46/85 61/44/65
f 82/43/86 59/45/63 58/44/62
f 82/43/86 58/44/62 79/46/83
f 32/47/32 28/47/87 33/47/33
f 32/47/32 83/47/88 28/47/87
f 32/47/32 39/47/59 83/47/88
f 39/47/59 40/47/57 83/47/88
f 28/15/87 78/15/82 77/15/81
f 28/15/87 83/15/88 78/15/82
f 28/15/87 77/15/81 33/15/33
f 83/15/88 80/15/84 78/15/82
f 83/15/88 40/15/57 80/15/84
f 15/1/89 6/1/90 84/1/89
f 15/1/89 84/1/89 14/1/91
f 21/1/92 16/1/93 84/1/92
f 21/1/92 84/1/92 8/1/94
f 19/1/95 84/1/95 16/1/90
f 19/1/95 14/1/94 84/1/95
f 12/1/96 8/1/91 84/1/96
f 12/1/96 84/1/96 6/1/93
f 82/48/86 79/48/83 76/48/80
f 82/48/86 76/48/80 81/48/85
f 56/28/60 59/28/63 85/28/97
f 56/28/60 85/28/97 50/28/52
f 60/49/64 50/49/52 85/49/97
f 60/49/64 85/49/97 59/49/63
f 20/50/20 18/50/18 30/50/30
f 29/50/29 3/50/3 2/50/2
f 86/51/98 87/51/98 88/51/98
f 87/51/99 86/51/99 88/51/99
f 89/51/100 90/51/100 91/51/100
f 90/51/101 89/51/101 91/51/101
f 92/51/100 93/51/100 94/51/100
f 93/51/101 92/51/101 94/51/101
f 95/51/100 96/51/100 97/51/100
f 97/51/101 96/51/101 95/51/101
f 98/51/102 99/51/102 100/51/102
f 99/51/103 98/51/103 100/51/103
f 101/51/104 102/51/104 103/51/104
f 102/51/105 101/51/105 103/51/105
f 104/51/104 105/51/104 106/51/104
f 105/51/105 104/51/105 106/51/105
f 107/51/104 108/51/104 109/51/104
f 109/51/105 108/51/105 107/51/105
f 110/52/102 111/52/102 112/52/102
f 111/52/103 110/52/103 112/52/103
f 113/52/102 114/52/102 115/52/102
f 114/52/103 113/52/103 115/52/103
f 116/52/98 117/52/98 118/52/98
f 117/52/99 116/52/99 118/52/99
f 119/52/98 120/52/98 121/52/98
f 120/52/99 119/52/99 121/52/99
f 62/53/66 44/53/46 46/53/48
f 57/53/61 49/53/51 52/53/54
vt -0.0274438 0.869545
vt 0.187362 0.747302
vt 0.94807 1.00105
vt 1.12398 0.768194
o merged_1_0_node
g polygon_0
usemtl TEX_ANIM_EYE_mat_id
f 61/54/65 81/55/85 44/56/46
f 44/56/46 81/55/85 54/57/56
f 58/54/62 52/56/54 79/55/83
f 79/55/83 52/56/54 35/57/35
