mtllib Farfetch'd.mtl
v -0.0634114 0.641721 0.024143
vt 0.476415 0.733343
vn 0.05958997 0.7157596 0.6957996
v -0.0293362 0.556978 0.012108
vt 0.493817 0.690065
vn -0.2735279 -0.5495948 0.7893847
v -0.0246645 0.560239 0.012596
vt 0.496203 0.69173
vn 0.584745 0.162749 0.7947239
v -0.0945441 0.601601 0.0208907
vt 0.460515 0.712853
vn -0.7384908 -0.105676 0.6659308
v -0.0241205 0.560271 0.00717145
vt 0.49648 0.691746
vn 0.7360562 0.1646051 -0.6566022
v -0.0909185 0.601818 -0.0152598
vt 0.462367 0.712964
vn -0.5872726 -0.1008829 -0.8030775
v -0.0597858 0.641938 -0.0120075
vt 0.478266 0.733453
vn 0.1979631 0.7182134 -0.6670683
v -0.0287921 0.557011 0.00668343
vt 0.494095 0.690081
vn -0.106581 -0.548538 -0.8293049
v 0.0469363 0.217188 -0.0770094
vt 0.468749 0.776792
vn 0.4563679 0.3863679 -0.8015287
v 0.0608004 0.0884007 -0.105309
vt 0.466729 0.804231
vn 0.62155 0.282023 -0.730848
v -0.0608004 0.0884007 -0.105309
vt 0.484445 0.804231
vn -0.6202088 0.2785349 -0.7333208
v 0.121601 0.0884007 0
vt 0.457871 0.804231
vn 0.9637653 -0.05436121 -0.2611541
v -0.0469362 0.217188 -0.0770094
vt 0.482425 0.776792
vn -0.4563679 0.3863679 -0.8015287
v 0.0938725 0.217188 0
vt 0.461911 0.776792
vn 0.7832717 0.5049137 -0.3626948
v 0 0.229166 0
vt 0.475587 0.77424
vn 0 1 0
v -0.121601 0.0884007 0
vt 0.493303 0.804231
vn -0.9637653 -0.05436111 -0.2611541
v 0.167564 0.160516 0.112616
vt 0.451174 0.788866
vn 0.8318204 0.08923715 0.5478243
v -0.0938725 0.217188 0
vt 0.489264 0.776792
vn -0.7832717 0.5049137 -0.3626948
v -0.167564 0.160516 0.112616
vt 0.5 0.788866
vn -0.8318207 0.08923727 0.5478238
v 0 0.322679 -0.168973
vt 0.518803 0.818798
vn 0 -0.2593009 -0.9657966
v 0 0.245156 -0.1057
vt 0.519476 0.819172
vn 0 -0.8432829 -0.53747
v -0.127971 0.305055 -0.124503
vt 0.519482 0.818798
vn -0.5572489 -0.5311459 -0.6382458
v 0.127971 0.305055 -0.124503
vn 0.5572482 -0.5311462 -0.6382462
v -0.137158 0.384325 -0.133699
vt 0.51946 0.818347
vn -0.6556873 0.05406383 -0.7530944
v 0.137158 0.384325 -0.133699
vn 0.6556873 0.05406393 -0.7530944
v 0 0.442226 -0.161605
vt 0.518803 0.817896
vn 0 0.3025809 -0.9531237
v -0.109752 0.241544 -0.00844712
vt 0.52024 0.819172
vn -0.4228788 -0.9031756 -0.07380597
v 0.109752 0.241544 -0.00844712
vn 0.4228788 -0.9031756 -0.07380606
v -0.119442 0.463595 -0.121941
vt 0.519482 0.817896
vn -0.5439957 0.5525597 -0.6314637
v -0.184504 0.376836 -0.00844712
vt 0.52024 0.818347
vn -0.9980392 0.05662232 -0.02667521
v 0.184504 0.376836 -0.00844712
vn 0.9980392 0.05662221 -0.02667521
v 0.119442 0.463595 -0.121941
vn 0.5439957 0.5525597 -0.6314637
v -0.167098 0.463595 -0.00844712
vt 0.520315 0.817896
vn -0.8973224 0.4408082 -0.02237641
v -0.125791 0.463595 0.117806
vt 0.521044 0.817896
vn -0.6051459 0.3998579 0.6884128
v 0 0.523362 -0.0982111
vt 0.51934 0.817565
vn 0 0.8446189 -0.535368
v 0.167098 0.463595 -0.00844712
vn 0.8973224 0.4408082 -0.02237641
v 0.125791 0.463595 0.117806
vn 0.6051459 0.3998579 0.6884128
v -0.109752 0.516211 -0.00844712
vt 0.520315 0.817565
vn -0.493061 0.869532 -0.0283703
v 0 0.542084 0.091021
vt 0.521105 0.817565
vn 0 0.9314697 0.3638189
v 0.109752 0.516211 -0.00844712
vn 0.493061 0.869532 -0.0283704
v 0 0.553275 -0.00844712
vt 0.520315 0.817444
vn 0 0.9956027 -0.09367647
v -0.00503164 0.659665 0.0192423
vt 0.506229 0.742506
vn -0.3852987 0.6022656 -0.6991575
v -0.0315084 0.643018 0.0680112
vt 0.492707 0.734004
vn -0.9154308 0.3144829 0.251171
v 0.00367066 0.64212 0.0868034
vt 0.510673 0.733546
vn 0.4353397 0.1437139 0.8887213
v -0.00899765 0.561263 0.0285717
vt 0.504204 0.692253
vn -0.9698492 -0.234889 -0.06495921
v 0.0301474 0.658767 0.0380345
vt 0.524195 0.742048
vn 0.9067042 0.4217521 -0.003571651
v -0.00532435 0.560949 0.0216802
vt 0.506079 0.692092
vn -0.4125648 -0.02187449 -0.9106656
v -0.000578665 0.560827 0.0242153
vt 0.508503 0.69203
vn 0.9268712 -0.2576851 -0.2729621
v -0.00425197 0.561142 0.0311068
vt 0.506627 0.692191
vn 0.5083084 -0.5163603 0.6891985
v 0 0.293633 0.280251
vt 0.818122 0.266674
vn 0 0.6867005 0.7269405
v -0.114047 0.3386 0.13519
vt 0.819937 0.268377
vn -0.598022 0.305221 0.741087
v -0.144017 0.282495 0.120548
vt 0.81989 0.268437
vn -0.6170657 -0.6908206 0.3768248
v -0.0482761 0.360736 0.152681
vn -0.3795832 0.2793211 0.8819843
v 0 0.361635 0.184236
vt 0.818122 0.266828
vn 0 0.7663962 0.6423682
v 0.0482761 0.360736 0.152681
vn 0.3795832 0.2793211 0.8819843
v 0.114047 0.3386 0.13519
vn 0.598022 0.305221 0.741087
v 0.144017 0.282495 0.120548
vn 0.6170657 -0.6908206 0.3768248
v 0 0.39132 0.170961
vt 0.818122 0.266897
vn 0 0.09186941 0.9957711
vn 0 -0.9494317 0.3139739
v 0 0.239949 0.117917
vt 0.818574 0.265844
vn 0 -0.9631103 0.2691071
v 0.0742901 0.600196 0.0470033
vt 0.546738 0.712135
vn 0.278066 -0.07269781 0.9578071
v 0.0316456 0.557822 0.00457608
vt 0.52496 0.690496
vn -0.9640958 0.151152 0.21834
v 0.0365393 0.554013 0.00735812
vt 0.527459 0.68855
vn -0.09357393 -0.6003922 0.7942123
v 0.0498378 0.631296 0.0331021
vt 0.53425 0.728018
vn -0.5098321 0.7382901 0.441587
v 0.0915349 0.598721 0.0146506
vt 0.555545 0.711383
vn 0.965268 -0.0946274 -0.243523
v 0.0670826 0.629822 0.000749454
vt 0.543057 0.727265
vn 0.09809516 0.7335457 -0.6725237
v 0.0399905 0.553718 0.000883374
vt 0.529222 0.688399
vn 0.6448021 -0.5826121 -0.4947661
v 0.0350968 0.557527 -0.00189866
vt 0.526722 0.690345
vn -0.284934 0.158119 -0.9454158
v 0 0.0169234 0
vt 0.207593 -0.108696
vn 0 -0.9999993 0.00121285
v -0.0573374 0.0342722 -0.10726
vt -0.134139 -0.358573
vn -0.4788417 -0.6885287 -0.5446457
v 0.0573374 0.0342722 -0.10726
vt -0.122865 0.141426
vn 0.4765631 -0.6916891 -0.542636
v -0.0573382 0 0
vt 1.94946 -0.358818
vn -0.138004 -0.9904272 -0.00297575
v 0.0573382 0 0
vt 1.96073 0.141188
vn 0.138004 -0.9904272 -0.00297566
v -0.0573374 0.0342722 0.0873338
vn -0.3998169 -0.541854 0.7392839
v 0.0573374 0.0342722 0.0873338
vn 0.3998169 -0.541854 0.7392839
v -0.114675 0.0342722 0
vt -0.139775 -0.608573
vn -0.9272478 -0.3744439 -0.00176083
v 0.114675 0.0342722 0
vt -0.117224 0.391426
vn 0.9272478 -0.3744439 -0.00176051
v 0.00173151 0.113521 -0.211054
vt 0.290857 0.740209
vn 0.00283306 0.4016471 -0.9157901
vt 0.338075 0.0121102
vt 0.240699 0.0121102
vt 0.341015 2.27497
vt 0.237758 2.27497
vt 0.386763 0.0121102
vt 0.192011 0.0121102
vt 0.392644 2.27497
vt 0.18613 2.27497
v 0.0608004 0.0884007 0.105309
vn 0.2111909 -0.1180529 0.9702896
v -0.0608004 0.0884007 0.105309
vn -0.2111909 -0.1180529 0.9702896
vt 0.211323 0.139059
vt 0.162806 0.139764
v 0 0.218297 -0.00844712
vt 0.211323 0.129488
vn 0 -0.9997618 -0.0218246
vt 0.147659 0.157867
vt 0.259839 0.139764
vt 0.274986 0.157867
vt 0.25561 0.147524
vt 0.102485 0.129201
vt 0.141302 0.129201
vt 0.296772 0.147524
v -0.0469363 0.217188 0.0770094
vt 0.260303 0.191118
vn -0.04880919 0.5435649 0.8379468
vt 0.219471 0.171935
vt 0.23503 0.147524
vt 0.121893 0.123329
v 0.0469362 0.217188 0.0770094
vt 0.292079 0.191118
vn 0.04880919 0.5435649 0.8379468
vt 0.317353 0.147524
vt 0.332911 0.171935
vt 0.276191 0.195172
vt 0.531251 0.776792
vt 0.524413 0.77424
vt 0.538089 0.776792
vt 0.548826 0.788866
vt 0.533271 0.804231
vt 0.517575 0.776792
vt 0.510736 0.776792
vt 0.515555 0.804231
vt 0.499578 0.817905
v -0.173014 0.305055 -0.00844712
vt 0.461803 0.814336
vn -0.8914177 -0.4435069 -0.09314547
vt 0.4737 0.840945
vt 0.461803 0.795729
v -0.145251 0.363582 0.123547
vt 0.499578 0.799298
vn -0.7313103 0.08318304 0.6769533
v 0.173014 0.305055 -0.00844712
vn 0.8914177 -0.4435069 -0.09314538
v 0.145251 0.363582 0.123547
vn 0.7313099 0.08318269 0.6769539
vt 0.51724 0.818743
vt 0.51724 0.818514
vt 0.517774 0.818299
vt 0.517767 0.818279
vt 0.517163 0.819038
vt 0.517163 0.81833
vt 0.517922 0.818187
vt 0.920032 0.899703
vt 1.02745 0.968029
vt 0.693628 0.960243
vt 1.0232 0.74626
vt 0.0274465 0.968029
vt 0.134861 0.899703
vt 0.361265 0.960243
vt 0.0316953 0.74626
vt 0.517783 0.818277
vt 0.517934 0.818277
vt 0.517947 0.818185
o merged_0_0_node
g polygon_0
usemtl skin_mat_id
f 1/1/1 2/2/2 3/3/3
f 1/1/1 4/4/4 2/2/2
f 1/1/1 3/3/3 5/5/5
f 1/1/1 6/6/6 4/4/4
f 1/1/1 5/5/5 7/7/7
f 1/1/1 7/7/7 6/6/6
f 2/2/2 4/4/4 8/8/8
f 8/8/8 7/7/7 5/5/5
f 8/8/8 6/6/6 7/7/7
f 8/8/8 4/4/4 6/6/6
f 9/9/9 10/10/10 11/11/11
f 9/9/9 12/12/12 10/10/10
f 9/9/9 11/11/11 13/13/13
f 9/9/9 14/14/14 12/12/12
f 9/9/9 13/13/13 15/15/15
f 9/9/9 15/15/15 14/14/14
f 11/11/11 16/16/16 13/13/13
f 12/12/12 14/14/14 17/17/17
f 15/15/15 13/13/13 18/18/18
f 13/13/13 16/16/16 18/18/18
f 16/16/16 19/19/19 18/18/18
f 20/20/20 21/21/21 22/22/22
f 20/20/20 23/22/23 21/21/21
f 20/20/20 22/22/22 24/23/24
f 20/20/20 25/23/25 23/22/23
f 20/20/20 24/23/24 26/24/26
f 20/20/20 26/24/26 25/23/25
f 21/21/21 27/25/27 22/22/22
f 21/21/21 23/22/23 28/25/28
f 24/23/24 29/26/29 26/24/26
f 24/23/24 22/22/22 30/27/30
f 24/23/24 30/27/30 29/26/29
f 25/23/25 31/27/31 23/22/23
f 25/23/25 26/24/26 32/26/32
f 25/23/25 32/26/32 31/27/31
f 30/27/30 33/28/33 29/26/29
f 30/27/30 34/29/34 33/28/33
f 26/24/26 35/30/35 32/26/32
f 26/24/26 29/26/29 35/30/35
f 31/27/31 32/26/32 36/28/36
f 31/27/31 36/28/36 37/29/37
f 34/29/34 38/31/38 33/28/33
f 34/29/34 39/32/39 38/31/38
f 29/26/29 38/31/38 35/30/35
f 29/26/29 33/28/33 38/31/38
f 32/26/32 40/31/40 36/28/36
f 32/26/32 35/30/35 40/31/40
f 37/29/37 40/31/40 39/32/39
f 37/29/37 36/28/36 40/31/40
f 38/31/38 41/33/41 35/30/35
f 38/31/38 39/32/39 41/33/41
f 41/33/41 39/32/39 40/31/40
f 41/33/41 40/31/40 35/30/35
f 42/34/42 43/35/43 44/36/44
f 42/34/42 45/37/45 43/35/43
f 42/34/42 44/36/44 46/38/46
f 42/34/42 47/39/47 45/37/45
f 42/34/42 46/38/46 48/40/48
f 42/34/42 48/40/48 47/39/47
f 43/35/43 49/41/49 44/36/44
f 43/35/43 45/37/45 49/41/49
f 49/41/49 48/40/48 46/38/46
f 49/41/49 46/38/46 44/36/44
f 50/42/50 51/43/51 52/44/52
f 50/42/50 53/43/53 51/43/51
f 50/42/50 54/45/54 53/43/53
f 50/42/50 55/43/55 54/45/54
f 50/42/50 56/43/56 55/43/55
f 50/42/50 57/44/57 56/43/56
f 53/43/53 54/45/54 58/46/58
f 58/46/58 54/45/54 55/43/55
f 57/44/57 50/42/59 59/47/60
f 50/42/59 52/47/52 59/47/60
f 60/48/61 61/49/62 62/50/63
f 60/48/61 63/51/64 61/49/62
f 60/48/61 62/50/63 64/52/65
f 60/48/61 65/53/66 63/51/64
f 60/48/61 64/52/65 65/53/66
f 63/51/64 65/53/66 61/49/62
f 62/50/63 66/54/67 64/52/65
f 65/53/66 67/55/68 61/49/62
f 65/53/66 64/52/65 67/55/68
f 67/55/68 64/52/65 66/54/67
f 68/56/69 69/57/70 70/58/71
f 68/56/69 71/59/72 69/57/70
f 68/56/69 70/58/71 72/60/73
f 68/56/69 73/57/74 71/59/72
f 68/56/69 72/60/73 74/58/75
f 69/57/70 71/59/72 75/61/76
f 75/61/76 71/59/72 73/57/74
f 70/58/71 76/62/77 72/60/73
f 72/60/73 76/62/77 74/58/75
f 77/63/78 70/64/71 69/65/70
f 77/63/78 10/66/10 70/64/71
f 77/63/78 69/65/70 11/67/11
f 77/63/78 11/67/11 10/66/10
f 70/64/71 10/66/10 76/68/77
f 69/65/70 75/69/76 11/67/11
f 10/66/10 12/70/12 76/68/77
f 75/69/76 16/71/16 11/67/11
f 75/69/76 73/65/74 16/71/16
f 12/70/12 74/64/75 76/68/77
f 12/70/12 78/66/79 74/64/75
f 73/65/74 79/67/80 16/71/16
f 59/72/60 27/73/27 80/74/81
f 59/72/60 52/75/52 27/73/27
f 59/72/60 80/74/81 28/76/28
f 59/72/60 28/76/28 57/77/57
f 79/78/80 73/79/74 74/80/75
f 79/78/80 74/80/75 78/81/79
f 79/78/80 78/81/79 81/82/82
f 79/78/80 19/83/19 16/84/16
f 73/79/74 68/85/69 74/80/75
f 78/81/79 82/86/83 81/82/82
f 78/81/79 12/87/12 17/88/17
f 82/86/83 15/89/15 81/82/82
f 81/90/82 15/91/15 18/92/18
f 81/90/82 18/92/18 19/93/19
f 81/90/82 19/93/19 79/94/80
f 15/91/15 82/95/83 14/96/14
f 82/95/83 17/19/17 14/96/14
f 82/95/83 78/97/79 17/19/17
f 52/98/52 83/99/84 27/100/27
f 52/98/52 30/101/30 83/99/84
f 52/98/52 84/102/85 30/101/30
f 57/98/57 28/100/28 85/99/86
f 57/98/57 85/99/86 31/101/31
f 57/98/57 31/101/31 86/102/87
f 80/103/81 27/104/27 21/105/21
f 80/103/81 21/105/21 28/104/28
f 22/106/22 27/107/27 83/108/84
f 22/106/22 83/108/84 30/109/30
f 85/108/86 28/107/28 23/106/23
f 85/108/86 23/106/23 31/109/31
f 56/110/56 86/111/87 55/112/55
f 56/110/56 57/113/57 86/111/87
f 84/114/85 51/115/51 53/116/53
f 84/114/85 52/117/52 51/115/51
f 30/118/30 84/119/85 34/120/34
f 86/119/87 31/118/31 37/120/37
v -0.208617 0.249389 0.123363
vt 0.505347 0.824398
vn 0.155511 0.103015 0.9824481
v -0.115003 0.03433838 0.114488
vt 0.551227 0
vn 0.9569281 0.205 0.205581
v -0.189006 0.256701 0.119492
vt 0.551227 0.824398
vn 0.9337198 0.265459 0.240206
v -0.150777 0.02090519 0.0890061
vt 0.448774 0
vn -0.8563001 -0.473252 -0.20684
v -0.240624 0.237318 0.0827226
vt 0.448774 0.824398
vn -0.8711717 -0.4098748 -0.2703009
v -0.216442 0.246335 0.0779493
vn -0.183146 -0.02900669 -0.9826577
v -0.145354 0.02302209 0.120479
vn -0.727608 -0.423016 0.540041
v -0.120426 0.03222148 0.0830153
vn 0.8288907 0.155019 -0.5375029
v -0.196831 0.253647 0.0740784
vn 0.7941222 0.2109651 -0.5699682
v -0.232799 0.240373 0.128136
vn -0.7241539 -0.352627 0.5926679
v -0.305104 0.352446 0.0860892
vt 0.404647 1
vn -0.9063742 -0.2427101 -0.3458001
v -0.297279 0.3555 0.131502
vn -0.7385829 -0.1767 0.6505939
v -0.215761 0.385894 0.115412
vt 0.595354 1
vn 0.8279387 0.4438789 0.3427669
v -0.223586 0.38284 0.0699988
vn 0.656241 0.376854 -0.653704
v -0.252266 0.372283 0.122618
vt 0.509953 1
vn -0.7402126 0.0004213728 0.6723727
v -0.260091 0.369229 0.0772043
vn -0.9217656 -0.07044996 -0.3812938
v -0.273014 0.364411 0.079755
vt 0.479721 1
vn 0.539001 0.498305 -0.679095
v -0.266187 0.367093 0.125365
vt 0.477386 1
vn 0.7165179 0.5722589 0.3989009
vn 0.179937 0.0377677 0.9829529
vn -0.158771 -0.09445172 -0.9827872
o merged_1_0_node
g polygon_0
usemtl negi2_mat_id
f 87/121/88 88/122/89 89/123/90
f 90/124/91 91/125/92 92/121/93
f 93/124/94 90/124/91 88/122/89
f 88/122/89 90/124/91 94/122/95
f 88/122/89 94/122/95 89/123/90
f 89/123/90 94/122/95 95/123/96
f 90/124/91 93/124/94 91/125/92
f 91/125/92 93/124/94 96/125/97
f 91/125/92 96/125/97 97/126/98
f 97/126/98 96/125/97 98/126/99
f 89/123/90 95/123/96 99/127/100
f 99/127/100 95/123/96 100/127/101
f 101/128/102 99/127/100 102/128/103
f 102/128/103 99/127/100 100/127/101
f 92/121/93 102/128/103 95/123/96
f 95/123/96 102/128/103 100/127/101
f 87/121/88 89/123/90 101/128/102
f 101/128/102 89/123/90 99/127/100
f 97/126/98 103/129/104 91/125/92
f 91/125/92 103/129/104 92/121/93
f 98/126/99 104/130/105 97/126/98
f 97/126/98 104/130/105 103/129/104
f 87/121/88 104/130/105 96/125/97
f 96/125/97 104/130/105 98/126/99
f 87/121/88 101/128/102 92/121/93
f 92/121/93 101/128/102 102/128/103
f 92/121/93 103/129/104 87/121/88
f 87/121/88 103/129/104 104/130/105
f 87/121/88 96/125/97 93/124/94
f 87/121/106 93/124/94 88/122/89
f 94/122/95 92/121/93 95/123/96
f 90/124/91 92/121/107 94/122/95
v 0 0.463595 0.159938
vt 0.507796 0.651358
vn 0 0.451745 0.8921471
vt 0.507796 -0.0115354
v 0.0672093 0.463595 0.143037
vt 0.859722 0.651358
vn 0.3237011 0.2392181 0.9154192
vt -0.196056 0.651358
v -0.0672093 0.463595 0.143037
vt 0.15587 0.651358
vn -0.3237011 0.2392181 0.9154192
vt 0.507796 1.37124
vt 1.21165 0.651358
o merged_2_0_node
g polygon_0
usemtl mayu_mat_id
f 105/131/108 58/132/58 106/133/109
f 34/134/34 107/135/110 39/136/39
f 105/131/108 106/133/109 39/136/39
f 107/135/110 58/132/58 105/131/108
f 39/136/39 106/133/109 37/137/37
f 39/136/39 107/135/110 105/131/108
vt 1.18986 0.843619
vt 0.593022 0.998896
vt 0.815681 0.769149
vt -0.0131739 0.776081
vt 0.0893443 0.998896
o merged_3_0_node
g polygon_0
usemtl TEX_ANIM_EYE_mat_id
f 58/138/58 107/139/110 53/140/53
f 84/141/85 53/140/53 34/142/34
f 34/142/34 53/140/53 107/139/110
f 58/138/58 55/140/55 106/139/109
f 86/141/87 37/142/37 55/140/55
f 37/142/37 106/139/109 55/140/55
