mtllib Diglett.mtl
v -0.17492 0.142896 -0.0567745
vt 0.746972 0.242366
vn -0.9616873 -0.121329 -0.2458391
v 0 0.142896 -0.183861
vn 0 -0.101715 -0.9948136
v -0.156085 -0.000281811 -0.0507151
vn -0.9371234 -0.1368641 -0.3210421
v 0 -0.000281811 -0.164117
vn 0 -0.136604 -0.9906257
v -0.122586 0.142896 0.145591
vn -0.8062697 -0.07565887 0.5866898
v -0.0964657 -0.000281811 0.143988
vn -0.643834 -0.149059 0.750506
v 0.122586 0.142896 0.145591
vn 0.8062697 -0.07565897 0.5866898
v 0 0.142896 0.160071
vn 0 -0.03810629 0.9992737
v 0.0964657 -0.000281811 0.143988
vn 0.643834 -0.149059 0.750506
v 0.17492 0.142896 -0.0567745
vn 0.9616873 -0.121329 -0.2458391
v 0.156085 -0.000281811 -0.050715
vn 0.9371235 -0.1368639 -0.3210418
v 0 0.31745 -0.183861
vn 0 0.1720891 -0.9850814
v -0.17492 0.267481 -0.0886169
vn -0.8310479 0.0463293 -0.5542679
v 0.17492 0.267481 -0.0886168
vn 0.8310484 0.04632932 -0.5542672
v -0.155729 0.371485 0.0359317
vn -0.9192357 0.3523069 0.175743
v -0.114975 0.375963 -0.105933
vn -0.6014092 0.5233502 -0.6036652
v -0.122586 0.29502 0.145591
vn -0.6518412 0.07988592 0.7541362
v -0.0906778 0.368947 0.13586
vn -0.361625 0.5856661 0.7254121
v 0 0.29502 0.160071
vn 0 0.103863 0.9945917
v 0.0906778 0.368947 0.13586
vn 0.361625 0.5856661 0.7254121
v 0.122586 0.29502 0.145591
vn 0.6518412 0.07988592 0.7541362
v 0.155729 0.371485 0.0359317
vn 0.9192357 0.3523069 0.175743
v 0.114975 0.375963 -0.105933
vn 0.6014092 0.5233502 -0.6036652
v 0.06468 0.444695 -0.00278287
vn 0.3756101 0.9267752 -0.002202081
v 0 0.42916 -0.094937
vn 0 0.8225311 -0.5687201
v -0.06468 0.444695 -0.00278288
vn -0.3756101 0.9267752 -0.0022021
v 0 0.42916 0.0878148
vt 0.811764 0.270709
vn 0 0.8624842 0.5060841
v 0.0652906 0.178624 0.179175
vt 1.05556 0.750367
vn 0.7572954 0.01652601 0.6528634
v 0.0445739 0.146572 0.154187
vt 0.879278 0.548986
vn 0.3946741 -0.8240712 0.4063731
v 0.0652906 0.178703 0.129298
vn 0.996435 0.0843642 0.000132282
v 0.0403518 0.217131 0.154297
vt 0.843352 0.991754
vn 0.4307689 0.7979349 0.4215899
v 0 0.159984 0.194559
vt 0.5 0.633548
vn 0 -0.589739 0.8075939
v 0 0.203592 0.194627
vt 0.5 0.907193
vn 0 0.5747982 0.8182952
v -0.0652906 0.178703 0.129298
vt -0.0555556 0.750367
vn -0.996435 0.0843642 0.000132282
v -0.0445739 0.146572 0.154187
vt 0.120722 0.548986
vn -0.3946741 -0.8240712 0.4063731
v -0.0652906 0.178624 0.179175
vn -0.7572954 0.01652601 0.6528634
v -0.0403518 0.217131 0.154297
vt 0.156648 0.991754
vn -0.4307689 0.7979349 0.4215899
v 0.158848 -0.0918277 -0.152901
vt 0.397571 0.0509416
vn 0.154888 -0.9639943 -0.216159
v 0.126291 0 -0.267056
vt 0.328359 0.273966
vn 0.105568 -0.7599149 -0.6413929
v 0.27671 0 0
vt 0.411271 0.273966
vn 0.7189204 -0.6950924 0
v -0.126291 0 -0.267056
vt 0.208883 0.273966
vn -0.105568 -0.7599149 -0.6413929
v -0.158848 -0.0918277 -0.152901
vt 0.139672 0.0509416
vn -0.154888 -0.9639943 -0.216159
v 0 0.0305955 0
vt 0.268621 0.0306181
vn 0 1 0
v 0 0.0699 -0.252832
vt 0.268621 0.443734
vn 0 0.9510117 -0.3091549
v -0.20244 0.0761235 -0.120063
vt 0.171963 0.458849
vn -0.3064941 0.9353314 -0.1766821
v -0.126291 0 0.267056
vn -0.4170999 0.6104248 0.6733568
v 0 0.0699 0.252832
vn 0 0.9510117 0.3091549
v -0.20244 0.0761235 0.120063
vn -0.3064938 0.9353315 0.1766819
v -0.158848 -0.0918277 0.152901
vn -0.154888 -0.9639943 0.216159
vn -0.105568 -0.7599149 0.6413929
v -0.27671 0 0
vt 0.125972 0.273966
vn -0.7189204 -0.6950924 0
vn -0.4171001 0.6104241 -0.6733572
vn -0.8480089 0.529982 0
vn 0.4171001 0.6104241 -0.6733572
v 0.20244 0.0761235 -0.120063
vt 0.36528 0.458849
vn 0.3064941 0.9353314 -0.1766821
vn 0.8480089 0.529982 0
v 0.20244 0.0761235 0.120063
vn 0.3064938 0.9353315 0.1766819
v 0.158848 -0.0918277 0.152901
vn 0.154888 -0.9639943 0.216159
v 0.126291 0 0.267056
vn 0.105568 -0.7599149 0.6413929
vn 0.4170999 0.6104248 0.6733568
o merged_0_0_node
g polygon_0
usemtl mat_body_mat_id
f 1/1/1 2/1/2 3/1/3
f 3/1/3 2/1/2 4/1/4
f 5/1/5 1/1/1 6/1/6
f 6/1/6 1/1/1 3/1/3
f 7/1/7 8/1/8 9/1/9
f 9/1/9 8/1/8 6/1/6
f 6/1/6 8/1/8 5/1/5
f 7/1/7 9/1/9 10/1/10
f 10/1/10 9/1/9 11/1/11
f 10/1/10 11/1/11 2/1/2
f 2/1/2 11/1/11 4/1/4
f 12/1/12 2/1/2 13/1/13
f 13/1/13 2/1/2 1/1/1
f 10/1/10 2/1/2 14/1/14
f 14/1/14 2/1/2 12/1/12
f 15/1/15 16/1/16 13/1/13
f 13/1/13 16/1/16 12/1/12
f 1/1/1 5/1/5 15/1/15
f 5/1/5 17/1/17 15/1/15
f 15/1/15 13/1/13 1/1/1
f 15/1/15 17/1/17 18/1/18
f 17/1/17 19/1/19 18/1/18
f 18/1/18 19/1/19 20/1/20
f 19/1/19 21/1/21 20/1/20
f 7/1/7 10/1/10 22/1/22
f 10/1/10 14/1/14 22/1/22
f 22/1/22 21/1/21 7/1/7
f 21/1/21 22/1/22 20/1/20
f 22/1/22 14/1/14 23/1/23
f 14/1/14 12/1/12 23/1/23
f 24/1/24 23/1/23 25/1/25
f 26/1/26 25/1/25 16/1/16
f 23/1/23 12/1/12 25/1/25
f 12/1/12 16/1/16 25/1/25
f 27/2/27 24/2/24 26/2/26
f 26/2/26 24/2/24 25/2/25
f 15/1/15 26/1/26 16/1/16
f 15/1/15 18/1/18 26/1/26
f 26/1/26 18/1/18 27/1/27
f 18/1/18 20/1/20 27/1/27
f 22/1/22 24/1/24 20/1/20
f 20/1/20 24/1/24 27/1/27
f 22/1/22 23/1/23 24/1/24
f 28/3/28 29/4/29 30/3/30
f 30/3/30 31/5/31 28/3/28
f 32/6/32 28/3/28 33/7/33
f 29/4/29 28/3/28 32/6/32
f 28/3/28 31/5/31 33/7/33
f 34/8/34 35/9/35 36/8/36
f 36/8/36 37/10/37 34/8/34
f 32/6/32 33/7/33 36/8/36
f 36/8/36 35/9/35 32/6/32
f 33/7/33 37/10/37 36/8/36
f 32/6/32 35/9/35 29/4/29
f 33/7/33 31/5/31 37/10/37
f 38/11/38 39/12/39 40/13/40
f 39/12/39 38/11/38 41/14/41
f 41/14/41 38/11/38 42/15/42
f 43/16/43 44/17/44 45/18/45
f 46/14/46 47/17/47 48/18/48
f 49/15/49 46/14/50 50/19/51
f 45/18/45 41/14/52 50/19/53
f 39/12/54 51/20/55 40/13/56
f 43/16/43 52/20/57 51/20/55
f 51/20/55 52/20/57 40/13/56
f 40/13/40 53/11/58 38/11/38
f 53/11/58 40/13/40 54/12/59
f 54/12/60 40/13/56 52/20/57
f 53/11/58 54/12/59 49/15/49
f 49/15/49 54/12/59 46/14/50
f 49/15/49 42/15/42 53/11/58
f 53/11/58 42/15/42 38/11/38
f 39/12/54 41/14/52 44/17/44
f 44/17/44 41/14/52 45/18/45
f 51/20/55 44/17/44 43/16/43
f 39/12/54 44/17/44 51/20/55
f 52/20/57 43/16/43 47/17/47
f 47/17/47 43/16/43 48/18/48
f 54/12/60 47/17/47 46/14/46
f 52/20/57 47/17/47 54/12/60
f 46/14/46 48/18/48 50/19/53
f 43/16/43 45/18/45 48/18/48
f 45/18/45 50/19/53 48/18/48
f 50/19/51 42/15/42 49/15/49
f 41/14/41 42/15/42 50/19/51
vt 0.138601 1.00192
vt 0.999767 1.00192
vt 0.138601 0.734753
vt 0.999767 0.734753
o merged_1_0_node
g polygon_0
usemtl TEX_ANIM_EYE_mat_id
f 19/21/19 17/22/17 8/23/8
f 8/23/8 17/22/17 5/24/5
f 19/21/19 8/23/8 21/22/21
f 21/22/21 8/23/8 7/24/7
