ply
format ascii 1.0
element vertex 422
property float x
property float y
property float z
property uchar red
property uchar green
property uchar blue
element face 464
property list uchar int vertex_index
end_header
0.3211 -0.31327 1.04002 240 240 240
0.3211 -0.31327 1.17214 240 240 240
0.34883 -0.31327 1.17214 240 240 240
0.34883 -0.31327 1.04002 240 240 240
0.3211 -0.0622 1.04002 240 240 240
0.34883 -0.0622 1.04002 240 240 240
0.34883 -0.0622 1.17214 240 240 240
0.3211 -0.0622 1.17214 240 240 240
0.3211 -0.0622 1.28994 179 210 115
0.36624 -0.0622 1.28994 179 210 115
0.36624 -0.31327 1.28994 179 210 115
0.3211 -0.31327 1.28994 179 210 115
0.3211 -0.0622 1.28994 173 203 111
0.3211 -0.0622 1.17214 173 203 111
0.34883 -0.0622 1.17214 173 203 111
0.36624 -0.0622 1.28994 173 203 111
0.36624 -0.0622 1.17214 173 203 111
0.36624 -0.31327 1.17214 173 203 111
0.36624 -0.31327 1.28994 173 203 111
0.3211 -0.31327 1.28994 173 203 111
0.34883 -0.31327 1.17214 173 203 111
0.3211 -0.31327 1.17214 173 203 111
0.34738 -0.2431 1.10365 60 60 59
0.34738 -0.2431 1.17525 60 60 59
0.35751 -0.2431 1.17525 60 60 59
0.35751 -0.2431 1.10365 60 60 59
0.34738 -0.13703 1.10365 60 60 59
0.35751 -0.13703 1.10365 60 60 59
0.34738 -0.13703 1.17525 60 60 59
0.35751 -0.13703 1.17525 60 60 59
-0.3211 -0.31327 1.04002 218 234 240
-0.34883 -0.31327 1.04002 218 234 240
-0.34883 -0.31327 1.17214 218 234 240
-0.3211 -0.31327 1.17214 218 234 240
-0.3211 -0.0622 1.04002 218 234 240
-0.34883 -0.0622 1.04002 218 234 240
-0.34883 -0.0622 1.17214 218 234 240
-0.3211 -0.0622 1.17214 218 234 240
-0.3211 -0.0622 1.28994 179 210 115
-0.3211 -0.31327 1.28994 179 210 115
-0.36624 -0.31327 1.28994 179 210 115
-0.36624 -0.0622 1.28994 179 210 115
-0.3211 -0.0622 1.28994 173 203 111
-0.34883 -0.0622 1.17214 173 203 111
-0.3211 -0.0622 1.17214 173 203 111
-0.36624 -0.0622 1.28994 173 203 111
-0.36624 -0.0622 1.17214 173 203 111
-0.36624 -0.31327 1.17214 173 203 111
-0.36624 -0.31327 1.28994 173 203 111
-0.3211 -0.31327 1.28994 173 203 111
-0.34883 -0.31327 1.17214 173 203 111
-0.3211 -0.31327 1.17214 173 203 111
-0.34738 -0.2431 1.10365 60 60 59
-0.35751 -0.2431 1.10365 60 60 59
-0.35751 -0.2431 1.17525 60 60 59
-0.34738 -0.2431 1.17525 60 60 59
-0.34738 -0.13703 1.10365 60 60 59
-0.35751 -0.13703 1.10365 60 60 59
-0.34738 -0.13703 1.17525 60 60 59
-0.35751 -0.13703 1.17525 60 60 59
0.11831 -0.41926 1.7904 191 224 123
-0.11831 -0.41926 1.7904 191 224 123
-0.15273 -0.38559 1.7904 191 224 123
0.15273 -0.38559 1.7904 191 224 123
0.15273 -0.08336 1.7904 191 224 123
-0.15273 -0.08336 1.7904 191 224 123
0.11831 -0.05502 1.7904 191 224 123
-0.11831 -0.05502 1.7904 191 224 123
0.23491 0.50205 0 182 214 117
-0.23491 0.50205 0 182 214 117
-0.27895 0.4563 0 182 214 117
0.27895 0.4563 0 182 214 117
0.27417 0.56123 0.05414 182 214 117
0.32779 0.50226 0.05372 182 214 117
0.32779 0.50226 0.61289 182 214 117
0.27417 0.56121 0.61289 182 214 117
0.27898 0.45603 0.67841 182 214 117
0.23464 0.50219 0.67841 182 214 117
0.19569 0.56123 0.16529 182 214 117
0.19569 0.56121 0.52521 182 214 117
0.15429 0.56121 0.56116 182 214 117
0.19569 0.66634 0.52522 182 214 117
0.15429 0.66634 0.56116 182 214 117
0.19569 0.66634 0.16529 182 214 117
0.15429 0.66634 0.12935 182 214 117
0.15429 0.56123 0.12934 182 214 117
-0.27417 0.56123 0.05414 182 214 117
-0.15429 0.56123 0.12934 182 214 117
-0.15429 0.66634 0.12935 182 214 117
0.3278 0.45588 0.61289 182 214 117
0.3278 0.45588 0.05373 182 214 117
-0.19569 0.56123 0.16529 182 214 117
0.32784 -0.59176 0.0538 182 214 117
0.27875 -0.65091 0.0538 182 214 117
0.27875 -0.65091 0.3701 182 214 117
0.32784 -0.59176 0.3701 182 214 117
0.246 -0.60655 0 182 214 117
-0.27875 -0.65091 0.0538 182 214 117
-0.246 -0.60655 0 182 214 117
0.27897 -0.55332 0 182 214 117
-0.27875 -0.65091 0.3701 182 214 117
0.32784 -0.52976 0.3701 182 214 117
0.32784 -0.52998 0.11359 182 214 117
0.32781 0.11444 0.11359 182 214 117
0.32781 0.11444 0.05374 182 214 117
0.27896 0.11444 0 182 214 117
-0.27897 -0.55332 0 182 214 117
-0.27896 0.11444 0 182 214 117
0.246 0.06895 1.46525 182 214 117
-0.246 0.06895 1.46525 182 214 117
-0.27875 0.11331 1.41876 182 214 117
0.27875 0.11331 1.41876 182 214 117
0.32784 0.05416 1.41876 182 214 117
0.27899 0.02943 1.46525 182 214 117
0.32784 -0.59176 1.41876 182 214 117
0.27897 -0.55332 1.46525 182 214 117
0.27875 -0.65091 1.41876 182 214 117
0.246 -0.60655 1.46525 182 214 117
0.32784 0.05416 0.61289 182 214 117
0.27875 0.11331 0.67841 182 214 117
-0.13165 0.11331 1.08428 182 214 117
0.13165 0.11331 1.08428 182 214 117
0.13165 0.11331 0.75971 182 214 117
0.13165 0.22013 0.75971 182 214 117
0.13165 0.22013 1.08428 182 214 117
-0.13165 0.11331 0.75971 182 214 117
-0.13165 0.22013 0.75971 182 214 117
0.09423 0.27106 1.08428 182 214 117
0.09423 0.27106 0.75971 182 214 117
-0.09423 0.27106 0.75971 182 214 117
-0.09423 0.27106 1.08428 182 214 117
0.32783 0.11444 0.61289 182 214 117
0.32781 0.11444 0.20242 182 214 117
0.32784 -0.32161 0.37003 182 214 117
0.32784 -0.44682 0.20242 182 214 117
0.32784 -0.44699 0.3698 182 214 117
0.32784 -0.3221 0.88426 182 214 117
0.32784 -0.17728 1.06674 182 214 117
0.32784 -0.44765 1.06623 182 214 117
0.32784 -0.44748 0.88423 182 214 117
0.32784 -0.17732 1.15756 182 214 117
0.32784 -0.53826 1.15757 182 214 117
0.32784 -0.59176 0.88424 182 214 117
0.32784 -0.53738 0.88421 182 214 117
0.27875 -0.65091 0.88424 182 214 117
0.12901 -0.65091 0.97593 182 214 117
-0.27875 -0.65091 1.41876 182 214 117
-0.12901 -0.65091 0.97593 182 214 117
-0.246 -0.60655 1.46525 182 214 117
0.12901 -0.65091 0.88426 182 214 117
0.32783 0.11444 0.61289 166 195 106
0.32782 0.19545 0.61289 166 195 106
0.32781 0.11444 0.20242 166 195 106
0.27875 0.11331 0.67841 166 195 106
0.27882 0.19545 0.67841 166 195 106
0.32781 0.11444 0.11359 166 195 106
0.32784 -0.52998 0.11359 166 195 106
0.32784 -0.44682 0.20242 166 195 106
0.32784 -0.44699 0.3698 166 195 106
0.32784 -0.52976 0.3701 166 195 106
0.32784 -0.59176 0.45233 166 195 106
0.32784 -0.59176 0.3701 166 195 106
0.27875 -0.65091 0.3701 166 195 106
0.27875 -0.65091 0.45233 166 195 106
-0.27875 -0.65091 0.45233 166 195 106
-0.27875 -0.65091 0.3701 166 195 106
0.32784 -0.4165 0.45257 166 195 106
0.32784 -0.32161 0.37003 166 195 106
0.32784 -0.3221 0.88426 166 195 106
0.32784 -0.41678 0.81057 166 195 106
0.32784 -0.44748 0.88423 166 195 106
0.32784 -0.59176 0.81048 166 195 106
0.32784 -0.53738 0.88421 166 195 106
0.32784 -0.44765 1.06623 166 195 106
0.32784 -0.53826 1.15757 166 195 106
0.32784 -0.17732 1.15756 166 195 106
0.32784 -0.17728 1.06674 166 195 106
0.32784 -0.59176 0.88424 166 195 106
0.27875 -0.65091 0.81053 166 195 106
0.27875 -0.65091 0.88424 166 195 106
0.32781 0.11444 0.05374 166 195 106
0.3278 0.19545 0.05374 166 195 106
0.27896 0.19545 0 166 195 106
0.27896 0.11444 0 166 195 106
-0.27896 0.11444 0 166 195 106
-0.27896 0.19545 0 166 195 106
0.14078 -0.02404 1.46525 191 224 123
-0.14078 -0.02404 1.46525 191 224 123
-0.246 0.06895 1.46525 191 224 123
0.246 0.06895 1.46525 191 224 123
0.27899 0.02943 1.46525 191 224 123
0.18209 -0.05804 1.46525 191 224 123
0.27897 -0.55332 1.46525 191 224 123
0.18208 -0.40997 1.46525 191 224 123
0.246 -0.60655 1.46525 191 224 123
0.14078 -0.45037 1.46525 191 224 123
-0.246 -0.60655 1.46525 191 224 123
-0.14078 -0.45037 1.46525 191 224 123
0.14078 -0.02404 1.7478 182 214 117
-0.14078 -0.02404 1.7478 182 214 117
-0.14078 -0.02404 1.46525 182 214 117
0.14078 -0.02404 1.46525 182 214 117
0.18209 -0.05804 1.46525 182 214 117
0.18209 -0.05804 1.7478 182 214 117
0.18208 -0.40997 1.46525 182 214 117
0.18208 -0.40997 1.7478 182 214 117
0.14078 -0.45037 1.46525 182 214 117
0.14078 -0.45037 1.7478 182 214 117
0.11831 -0.05502 1.7904 182 214 117
-0.11831 -0.05502 1.7904 182 214 117
0.15273 -0.38559 1.7904 182 214 117
0.11831 -0.41926 1.7904 182 214 117
0.15273 -0.08336 1.7904 182 214 117
-0.14078 -0.45037 1.46525 182 214 117
-0.14078 -0.45037 1.7478 182 214 117
-0.11831 -0.41926 1.7904 182 214 117
0.16955 0.89683 0.52491 182 214 117
0.19569 0.8546 0.52523 182 214 117
0.15429 0.82456 0.56117 182 214 117
0.12887 0.8546 0.56117 182 214 117
0.16955 0.89684 0.16524 182 214 117
0.19569 0.85461 0.1653 182 214 117
0.15429 0.75161 0.56116 182 214 117
0.19569 0.75161 0.52522 182 214 117
0.19569 0.75161 0.1653 182 214 117
0.15429 0.82457 0.12936 182 214 117
0.15429 0.75161 0.12935 182 214 117
-0.15429 0.82457 0.12936 182 214 117
-0.15429 0.75161 0.12935 182 214 117
0.12886 0.85461 0.12936 182 214 117
-0.12886 0.85461 0.12936 182 214 117
-0.16955 0.89684 0.16524 182 214 117
-0.16955 0.89683 0.52491 182 214 117
-0.12887 0.8546 0.56117 182 214 117
0.15429 0.75161 0.12935 166 195 106
-0.15429 0.75161 0.12935 166 195 106
-0.15429 0.66634 0.12935 166 195 106
0.15429 0.66634 0.12935 166 195 106
0.19569 0.66634 0.16529 166 195 106
0.19569 0.75161 0.1653 166 195 106
0.19569 0.66634 0.52522 166 195 106
0.19569 0.75161 0.52522 166 195 106
0.15429 0.66634 0.56116 166 195 106
0.15429 0.75161 0.56116 166 195 106
-0.15429 0.66634 0.56116 166 195 106
-0.15429 0.75161 0.56116 166 195 106
0.27895 0.4563 0 166 195 106
-0.27895 0.4563 0 166 195 106
-0.27895 0.37275 0 166 195 106
0.27895 0.37275 0 166 195 106
0.3278 0.37275 0.05373 166 195 106
0.3278 0.45588 0.05373 166 195 106
0.32781 0.37275 0.61289 166 195 106
0.3278 0.45588 0.61289 166 195 106
0.27888 0.37275 0.67841 166 195 106
0.27898 0.45603 0.67841 166 195 106
-0.27888 0.37275 0.67841 166 195 106
-0.27898 0.45603 0.67841 166 195 106
0.27895 0.37275 0 182 214 117
-0.27895 0.37275 0 182 214 117
-0.27896 0.19545 0 182 214 117
0.27896 0.19545 0 182 214 117
0.3278 0.19545 0.05374 182 214 117
0.3278 0.37275 0.05373 182 214 117
0.32782 0.19545 0.61289 182 214 117
0.32781 0.37275 0.61289 182 214 117
0.27882 0.19545 0.67841 182 214 117
0.27888 0.37275 0.67841 182 214 117
0.27875 -0.65091 0.45233 182 214 117
0.1289 -0.65091 0.70122 182 214 117
0.12894 -0.65091 0.81062 182 214 117
0.27875 -0.65091 0.81053 182 214 117
-0.1289 -0.65091 0.70122 182 214 117
-0.27875 -0.65091 0.45233 182 214 117
0.12894 -0.65091 0.81062 166 195 106
0.12901 -0.65091 0.88426 166 195 106
0.06076 -0.65091 0.90355 166 195 106
0.06064 -0.65091 0.77313 166 195 106
0.12901 -0.65091 0.97593 166 195 106
-0.12901 -0.65091 0.97593 166 195 106
-0.06076 -0.65091 0.90355 166 195 106
-0.12901 -0.65091 0.88426 166 195 106
0.1289 -0.65091 0.70122 166 195 106
-0.06064 -0.65091 0.77313 166 195 106
-0.1289 -0.65091 0.70122 166 195 106
-0.12894 -0.65091 0.81062 166 195 106
-0.27875 -0.65091 0.81053 166 195 106
-0.27875 -0.65091 0.88424 166 195 106
0.06064 -0.65091 0.77313 182 214 117
-0.06064 -0.65091 0.77313 182 214 117
-0.06076 -0.65091 0.90355 182 214 117
0.06076 -0.65091 0.90355 182 214 117
0.32784 -0.59176 0.81048 182 214 117
0.32784 -0.59176 0.45233 182 214 117
0.32784 -0.4165 0.45257 182 214 117
0.32784 -0.41678 0.81057 182 214 117
-0.32784 -0.59176 0.0538 182 214 117
-0.32784 -0.59176 0.3701 182 214 117
-0.32784 -0.52976 0.3701 182 214 117
-0.32784 -0.52998 0.11359 182 214 117
-0.32781 0.11444 0.11359 182 214 117
-0.32781 0.11444 0.05374 182 214 117
-0.27417 0.56121 0.61289 182 214 117
-0.32779 0.50226 0.61289 182 214 117
-0.32779 0.50226 0.05372 182 214 117
-0.27898 0.45603 0.67841 182 214 117
-0.23464 0.50219 0.67841 182 214 117
-0.19569 0.56121 0.52521 182 214 117
-0.15429 0.56121 0.56116 182 214 117
-0.19569 0.66634 0.52522 182 214 117
-0.15429 0.66634 0.56116 182 214 117
-0.19569 0.66634 0.16529 182 214 117
-0.3278 0.45588 0.61289 182 214 117
-0.3278 0.45588 0.05373 182 214 117
-0.32784 -0.59176 1.41876 182 214 117
-0.27897 -0.55332 1.46525 182 214 117
-0.27899 0.02943 1.46525 182 214 117
-0.32784 0.05416 1.41876 182 214 117
-0.32784 0.05416 0.61289 182 214 117
-0.27875 0.11331 0.67841 182 214 117
-0.13165 0.22013 1.08428 182 214 117
-0.32783 0.11444 0.61289 182 214 117
-0.32781 0.11444 0.20242 182 214 117
-0.32784 -0.17728 1.06674 182 214 117
-0.32784 -0.3221 0.88426 182 214 117
-0.32784 -0.44765 1.06623 182 214 117
-0.32784 -0.44748 0.88423 182 214 117
-0.32784 -0.32161 0.37003 182 214 117
-0.32784 -0.44682 0.20242 182 214 117
-0.32784 -0.44699 0.3698 182 214 117
-0.32784 -0.17732 1.15756 182 214 117
-0.32784 -0.53826 1.15757 182 214 117
-0.32784 -0.59176 0.88424 182 214 117
-0.32784 -0.53738 0.88421 182 214 117
-0.27875 -0.65091 0.88424 182 214 117
-0.32783 0.11444 0.61289 166 195 106
-0.32781 0.11444 0.20242 166 195 106
-0.32782 0.19545 0.61289 166 195 106
-0.27875 0.11331 0.67841 166 195 106
-0.27882 0.19545 0.67841 166 195 106
-0.32781 0.11444 0.11359 166 195 106
-0.32784 -0.52998 0.11359 166 195 106
-0.32784 -0.44682 0.20242 166 195 106
-0.32784 -0.44699 0.3698 166 195 106
-0.32784 -0.52976 0.3701 166 195 106
-0.32784 -0.59176 0.45233 166 195 106
-0.32784 -0.59176 0.3701 166 195 106
-0.32784 -0.4165 0.45257 166 195 106
-0.32784 -0.32161 0.37003 166 195 106
-0.32784 -0.3221 0.88426 166 195 106
-0.32784 -0.41678 0.81057 166 195 106
-0.32784 -0.44748 0.88423 166 195 106
-0.32784 -0.59176 0.81048 166 195 106
-0.32784 -0.53738 0.88421 166 195 106
-0.32784 -0.44765 1.06623 166 195 106
-0.32784 -0.53826 1.15757 166 195 106
-0.32784 -0.17732 1.15756 166 195 106
-0.32784 -0.17728 1.06674 166 195 106
-0.32784 -0.59176 0.88424 166 195 106
-0.32781 0.11444 0.05374 166 195 106
-0.3278 0.19545 0.05374 166 195 106
0.23464 0.50219 0.67841 191 224 123
0.27898 0.45603 0.67841 191 224 123
-0.27898 0.45603 0.67841 191 224 123
-0.23464 0.50219 0.67841 191 224 123
0.13165 0.22013 1.08428 191 224 123
0.13165 0.11331 1.08428 191 224 123
-0.13165 0.11331 1.08428 191 224 123
-0.13165 0.22013 1.08428 191 224 123
0.09423 0.27106 1.08428 191 224 123
-0.09423 0.27106 1.08428 191 224 123
-0.27897 -0.55332 1.46525 191 224 123
-0.18208 -0.40997 1.46525 191 224 123
-0.18209 -0.05804 1.46525 191 224 123
-0.27899 0.02943 1.46525 191 224 123
-0.18208 -0.40997 1.46525 182 214 117
-0.18208 -0.40997 1.7478 182 214 117
-0.18209 -0.05804 1.7478 182 214 117
-0.18209 -0.05804 1.46525 182 214 117
-0.15273 -0.38559 1.7904 182 214 117
-0.15273 -0.08336 1.7904 182 214 117
0.15429 0.66634 0.56116 191 224 123
0.15429 0.56121 0.56116 191 224 123
-0.15429 0.56121 0.56116 191 224 123
-0.15429 0.66634 0.56116 191 224 123
-0.15429 0.82456 0.56117 182 214 117
-0.19569 0.8546 0.52523 182 214 117
-0.19569 0.85461 0.1653 182 214 117
-0.15429 0.75161 0.56116 182 214 117
-0.19569 0.75161 0.52522 182 214 117
-0.19569 0.75161 0.1653 182 214 117
-0.19569 0.66634 0.52522 166 195 106
-0.19569 0.75161 0.52522 166 195 106
-0.19569 0.75161 0.1653 166 195 106
-0.19569 0.66634 0.16529 166 195 106
0.15429 0.82456 0.56117 191 224 123
0.15429 0.75161 0.56116 191 224 123
-0.15429 0.75161 0.56116 191 224 123
-0.15429 0.82456 0.56117 191 224 123
0.12887 0.8546 0.56117 191 224 123
-0.12887 0.8546 0.56117 191 224 123
-0.32781 0.37275 0.61289 166 195 106
-0.3278 0.37275 0.05373 166 195 106
-0.3278 0.45588 0.05373 166 195 106
-0.3278 0.45588 0.61289 166 195 106
0.27888 0.37275 0.67841 191 224 123
0.27882 0.19545 0.67841 191 224 123
-0.27882 0.19545 0.67841 191 224 123
-0.27888 0.37275 0.67841 191 224 123
-0.32782 0.19545 0.61289 182 214 117
-0.3278 0.19545 0.05374 182 214 117
-0.3278 0.37275 0.05373 182 214 117
-0.32781 0.37275 0.61289 182 214 117
-0.27882 0.19545 0.67841 182 214 117
-0.27888 0.37275 0.67841 182 214 117
-0.32784 -0.59176 0.45233 182 214 117
-0.32784 -0.59176 0.81048 182 214 117
-0.27875 -0.65091 0.81053 182 214 117
-0.32784 -0.4165 0.45257 182 214 117
-0.32784 -0.41678 0.81057 182 214 117
-0.12901 -0.65091 0.88426 182 214 117
-0.12894 -0.65091 0.81062 182 214 117
3 0 2 1
3 0 3 2
3 4 3 0
3 4 5 3
3 3 6 2
3 3 5 6
3 7 5 4
3 7 6 5
3 8 10 9
3 8 11 10
3 12 14 13
3 14 12 15
3 14 15 16
3 17 16 15
3 17 15 18
3 19 17 18
3 19 20 17
3 20 16 17
3 20 14 16
3 21 20 19
3 22 24 23
3 22 25 24
3 26 25 22
3 26 27 25
3 28 27 26
3 28 29 27
3 25 29 24
3 25 27 29
3 30 32 31
3 30 33 32
3 34 30 31
3 34 31 35
3 31 36 35
3 31 32 36
3 37 35 36
3 37 34 35
3 38 40 39
3 38 41 40
3 42 44 43
3 43 45 42
3 43 46 45
3 47 45 46
3 47 48 45
3 49 48 47
3 49 47 50
3 50 46 43
3 50 47 46
3 51 49 50
3 52 54 53
3 52 55 54
3 56 52 53
3 56 53 57
3 58 56 57
3 58 57 59
3 53 59 57
3 53 54 59
3 60 62 61
3 60 63 62
3 62 63 64
3 62 64 65
3 65 64 66
3 65 66 67
3 68 70 69
3 68 71 70
3 72 71 68
3 72 73 71
3 72 74 73
3 72 75 74
3 75 76 74
3 75 77 76
3 75 72 78
3 75 78 79
3 80 75 79
3 80 79 81
3 80 81 82
3 79 83 81
3 79 78 83
3 78 84 83
3 78 85 84
3 85 72 86
3 85 86 87
3 84 85 87
3 84 87 88
3 89 73 74
3 89 90 73
3 90 71 73
3 86 91 87
3 76 89 74
3 68 86 72
3 68 69 86
3 92 94 93
3 92 95 94
3 92 93 96
3 96 93 97
3 96 97 98
3 92 96 99
3 93 100 97
3 93 94 100
3 92 101 95
3 92 102 101
3 92 103 102
3 92 104 103
3 99 104 92
3 99 105 104
3 106 96 98
3 106 99 96
3 105 99 106
3 105 106 107
3 108 110 109
3 108 111 110
3 112 111 108
3 112 108 113
3 114 112 113
3 114 113 115
3 116 114 115
3 116 115 117
3 118 111 112
3 118 119 111
3 111 120 110
3 111 121 120
3 111 122 121
3 111 119 122
3 121 122 123
3 121 123 124
3 123 122 125
3 119 125 122
3 123 125 126
3 127 124 123
3 127 123 128
3 128 123 126
3 127 128 129
3 128 126 129
3 127 129 130
3 119 118 131
3 118 132 131
3 133 132 118
3 134 132 133
3 134 133 135
3 133 118 136
3 136 118 137
3 138 136 137
3 138 139 136
3 112 137 118
3 112 140 137
3 114 140 112
3 114 141 140
3 142 141 114
3 142 143 141
3 144 142 114
3 144 114 116
3 145 116 146
3 145 146 147
3 117 146 116
3 117 148 146
3 145 149 144
3 145 144 116
3 150 152 151
3 153 150 151
3 153 151 154
3 151 152 155
3 156 155 152
3 156 152 157
3 158 156 157
3 158 159 156
3 160 159 158
3 160 161 159
3 162 161 160
3 162 160 163
3 162 163 164
3 162 164 165
3 160 158 166
3 166 158 167
3 166 167 168
3 166 168 169
3 170 169 168
3 170 171 169
3 170 172 171
3 173 172 170
3 173 174 172
3 175 174 173
3 175 173 176
3 172 177 171
3 178 171 177
3 178 177 179
3 180 182 181
3 180 183 182
3 182 183 184
3 182 184 185
3 181 155 180
3 151 155 181
3 186 188 187
3 186 189 188
3 190 189 186
3 190 186 191
3 192 190 191
3 192 191 193
3 194 192 193
3 194 193 195
3 195 196 194
3 195 197 196
3 198 200 199
3 198 201 200
3 202 201 198
3 202 198 203
3 204 202 203
3 204 203 205
3 206 204 205
3 206 205 207
3 208 198 199
3 203 198 208
3 208 199 209
3 207 205 210
3 207 210 211
3 205 212 210
3 205 203 212
3 203 208 212
3 207 213 206
3 207 214 213
3 211 214 207
3 211 215 214
3 72 85 78
3 216 218 217
3 216 219 218
3 217 220 216
3 217 221 220
3 222 217 218
3 222 223 217
3 223 221 217
3 223 224 221
3 224 225 221
3 224 226 225
3 227 225 226
3 227 226 228
3 229 221 225
3 229 220 221
3 229 225 227
3 220 229 230
3 229 227 230
3 220 230 231
3 220 232 216
3 220 231 232
3 216 233 219
3 216 232 233
3 234 236 235
3 234 237 236
3 238 237 234
3 238 234 239
3 240 238 239
3 240 239 241
3 242 240 241
3 242 241 243
3 243 244 242
3 243 245 244
3 246 248 247
3 246 249 248
3 250 249 246
3 250 246 251
3 252 250 251
3 252 251 253
3 254 252 253
3 254 253 255
3 255 256 254
3 255 257 256
3 258 260 259
3 258 261 260
3 262 261 258
3 262 258 263
3 264 262 263
3 264 263 265
3 266 264 265
3 266 265 267
3 268 270 269
3 268 271 270
3 268 269 272
3 268 272 273
3 179 274 178
3 179 275 274
3 276 274 275
3 276 277 274
3 275 278 276
3 276 278 279
3 276 279 280
3 281 280 279
3 282 277 283
3 282 283 284
3 285 284 283
3 280 285 283
3 280 281 285
3 281 286 285
3 281 287 286
3 288 290 289
3 288 291 290
3 274 277 282
3 268 292 271
3 268 293 292
3 292 293 294
3 292 294 295
3 296 100 297
3 296 97 100
3 296 98 97
3 296 106 98
3 296 297 298
3 296 298 299
3 296 299 300
3 296 300 301
3 106 296 301
3 106 301 107
3 86 303 302
3 86 304 303
3 86 70 304
3 86 69 70
3 302 303 305
3 302 305 306
3 302 91 86
3 302 307 91
3 308 307 302
3 308 309 307
3 308 310 309
3 307 311 91
3 307 309 311
3 91 311 88
3 91 88 87
3 312 303 304
3 305 303 312
3 312 304 313
3 313 304 70
3 146 315 314
3 146 148 315
3 314 315 316
3 314 316 317
3 317 316 109
3 317 109 110
3 318 317 110
3 318 110 319
3 110 125 319
3 110 120 125
3 120 126 125
3 120 320 126
3 130 126 320
3 130 129 126
3 319 321 318
3 318 321 322
3 317 318 323
3 324 323 318
3 325 323 324
3 325 324 326
3 327 324 318
3 327 318 322
3 328 327 322
3 328 329 327
3 317 323 330
3 314 317 330
3 314 330 331
3 332 314 331
3 332 331 333
3 334 314 332
3 334 146 314
3 335 337 336
3 338 337 335
3 338 339 337
3 337 340 336
3 341 336 340
3 341 342 336
3 343 342 341
3 343 341 344
3 345 343 344
3 345 344 346
3 165 345 346
3 165 164 345
3 345 347 343
3 347 348 343
3 347 349 348
3 347 350 349
3 351 349 350
3 351 350 352
3 351 352 353
3 354 351 353
3 354 353 355
3 356 354 355
3 356 357 354
3 353 352 358
3 286 358 352
3 286 287 358
3 359 185 184
3 359 360 185
3 360 359 340
3 337 360 340
3 361 363 362
3 361 364 363
3 75 306 77
3 75 302 306
3 80 302 75
3 80 308 302
3 119 319 125
3 365 367 366
3 365 368 367
3 369 368 365
3 369 370 368
3 196 372 371
3 196 197 372
3 371 372 373
3 371 373 374
3 374 373 187
3 374 187 188
3 213 376 375
3 213 214 376
3 375 376 377
3 375 377 378
3 378 377 199
3 378 199 200
3 214 379 376
3 214 215 379
3 376 380 377
3 376 379 380
3 377 209 199
3 377 380 209
3 381 383 382
3 381 384 383
3 232 385 233
3 232 386 385
3 386 232 231
3 386 231 387
3 388 385 386
3 388 386 389
3 389 386 387
3 389 387 390
3 390 387 227
3 390 227 228
3 230 387 231
3 230 227 387
3 244 392 391
3 244 245 392
3 391 392 393
3 391 393 394
3 394 393 235
3 394 235 236
3 395 397 396
3 395 398 397
3 399 398 395
3 399 400 398
3 401 403 402
3 401 404 403
3 402 403 247
3 402 247 248
3 256 404 401
3 256 257 404
3 405 407 406
3 405 408 407
3 409 411 410
3 409 412 411
3 410 411 259
3 410 259 260
3 413 412 409
3 413 414 412
3 154 338 153
3 154 339 338
3 273 416 415
3 273 417 416
3 416 418 415
3 416 419 418
3 147 334 420
3 147 146 334
3 273 421 417
3 273 272 421
