ply
format ascii 1.0
element vertex 414
property float x
property float y
property float z
property uchar red
property uchar green
property uchar blue
element face 464
property list uchar int vertex_index
end_header
0.3211 -0.31327 1.04002 255 255 255
0.3211 -0.31327 1.17214 255 255 255
0.34883 -0.31327 1.17214 255 255 255
0.34883 -0.31327 1.04002 255 255 255
0.3211 -0.0622 1.04002 255 255 255
0.34883 -0.0622 1.04002 255 255 255
0.34883 -0.0622 1.17214 255 255 255
0.3211 -0.0622 1.17214 255 255 255
0.3211 -0.0622 1.28994 229 121 76
0.36624 -0.0622 1.28994 229 121 76
0.36624 -0.31327 1.28994 229 121 76
0.3211 -0.31327 1.28994 229 121 76
0.36624 -0.31327 1.17214 229 121 76
0.34883 -0.31327 1.17214 229 121 76
0.36624 -0.0622 1.17214 229 121 76
0.34883 -0.0622 1.17214 229 121 76
0.3211 -0.0622 1.17214 229 121 76
0.3211 -0.31327 1.17214 229 121 76
0.34738 -0.2431 1.10365 60 59 59
0.34738 -0.2431 1.17525 60 59 59
0.35751 -0.2431 1.17525 60 59 59
0.35751 -0.2431 1.10365 60 59 59
0.34738 -0.13703 1.10365 60 59 59
0.35751 -0.13703 1.10365 60 59 59
0.34738 -0.13703 1.17525 60 59 59
0.35751 -0.13703 1.17525 60 59 59
-0.3211 -0.31327 1.04002 255 255 255
-0.34883 -0.31327 1.04002 255 255 255
-0.34883 -0.31327 1.17214 255 255 255
-0.3211 -0.31327 1.17214 255 255 255
-0.3211 -0.0622 1.04002 255 255 255
-0.34883 -0.0622 1.04002 255 255 255
-0.34883 -0.0622 1.17214 255 255 255
-0.3211 -0.0622 1.17214 255 255 255
-0.3211 -0.0622 1.28994 229 121 76
-0.3211 -0.31327 1.28994 229 121 76
-0.36624 -0.31327 1.28994 229 121 76
-0.36624 -0.0622 1.28994 229 121 76
-0.36624 -0.31327 1.17214 229 121 76
-0.34883 -0.31327 1.17214 229 121 76
-0.36624 -0.0622 1.17214 229 121 76
-0.34883 -0.0622 1.17214 229 121 76
-0.3211 -0.0622 1.17214 229 121 76
-0.3211 -0.31327 1.17214 229 121 76
-0.34738 -0.2431 1.10365 60 59 59
-0.35751 -0.2431 1.10365 60 59 59
-0.35751 -0.2431 1.17525 60 59 59
-0.34738 -0.2431 1.17525 60 59 59
-0.34738 -0.13703 1.10365 60 59 59
-0.35751 -0.13703 1.10365 60 59 59
-0.34738 -0.13703 1.17525 60 59 59
-0.35751 -0.13703 1.17525 60 59 59
0.11831 -0.41926 1.7904 245 135 89
-0.11831 -0.41926 1.7904 245 135 89
-0.15273 -0.38559 1.7904 245 135 89
0.15273 -0.38559 1.7904 245 135 89
0.15273 -0.08336 1.7904 245 135 89
-0.15273 -0.08336 1.7904 245 135 89
0.11831 -0.05502 1.7904 245 135 89
-0.11831 -0.05502 1.7904 245 135 89
0.23491 0.50205 0 235 130 86
-0.23491 0.50205 0 235 130 86
-0.27895 0.4563 0 235 130 86
0.27895 0.4563 0 235 130 86
0.27417 0.56123 0.05414 235 130 86
0.32779 0.50226 0.05372 235 130 86
0.32779 0.50226 0.61289 235 130 86
0.27417 0.56121 0.61289 235 130 86
0.27898 0.45603 0.67841 235 130 86
0.23464 0.50219 0.67841 235 130 86
0.19569 0.56123 0.16529 235 130 86
0.19569 0.56121 0.52521 235 130 86
0.15429 0.56121 0.56116 235 130 86
0.19569 0.66634 0.52522 235 130 86
0.15429 0.66634 0.56116 235 130 86
0.19569 0.66634 0.16529 235 130 86
0.15429 0.66634 0.12935 235 130 86
0.15429 0.56123 0.12934 235 130 86
-0.27417 0.56123 0.05414 235 130 86
-0.15429 0.56123 0.12934 235 130 86
-0.15429 0.66634 0.12935 235 130 86
0.3278 0.45588 0.61289 235 130 86
0.3278 0.45588 0.05373 235 130 86
-0.19569 0.56123 0.16529 235 130 86
0.32784 -0.59176 0.0538 235 130 86
0.27875 -0.65091 0.0538 235 130 86
0.27875 -0.65091 0.3701 235 130 86
0.32784 -0.59176 0.3701 235 130 86
0.246 -0.60655 0 235 130 86
-0.27875 -0.65091 0.0538 235 130 86
-0.246 -0.60655 0 235 130 86
0.27897 -0.55332 0 235 130 86
-0.27875 -0.65091 0.3701 235 130 86
0.32784 -0.52976 0.3701 235 130 86
0.32784 -0.52998 0.11359 235 130 86
0.32781 0.11444 0.11359 235 130 86
0.32781 0.11444 0.05374 235 130 86
0.27896 0.11444 0 235 130 86
-0.27897 -0.55332 0 235 130 86
-0.27896 0.11444 0 235 130 86
0.246 0.06895 1.46525 235 130 86
-0.246 0.06895 1.46525 235 130 86
-0.27875 0.11331 1.41876 235 130 86
0.27875 0.11331 1.41876 235 130 86
0.32784 0.05416 1.41876 235 130 86
0.27899 0.02943 1.46525 235 130 86
0.32784 -0.59176 1.41876 235 130 86
0.27897 -0.55332 1.46525 235 130 86
0.27875 -0.65091 1.41876 235 130 86
0.246 -0.60655 1.46525 235 130 86
0.32784 0.05416 0.61289 235 130 86
0.27875 0.11331 0.67841 235 130 86
-0.13165 0.11331 1.08428 235 130 86
0.13165 0.11331 1.08428 235 130 86
0.13165 0.11331 0.75971 235 130 86
0.13165 0.22013 0.75971 235 130 86
0.13165 0.22013 1.08428 235 130 86
-0.13165 0.11331 0.75971 235 130 86
-0.13165 0.22013 0.75971 235 130 86
0.09423 0.27106 1.08428 235 130 86
0.09423 0.27106 0.75971 235 130 86
-0.09423 0.27106 0.75971 235 130 86
-0.09423 0.27106 1.08428 235 130 86
0.32783 0.11444 0.61289 235 130 86
0.32781 0.11444 0.20242 235 130 86
0.32784 -0.32161 0.37003 235 130 86
0.32784 -0.44682 0.20242 235 130 86
0.32784 -0.44699 0.3698 235 130 86
0.32784 -0.3221 0.88426 235 130 86
0.32784 -0.17728 1.06674 235 130 86
0.32784 -0.44765 1.06623 235 130 86
0.32784 -0.44748 0.88423 235 130 86
0.32784 -0.17732 1.15756 235 130 86
0.32784 -0.53826 1.15757 235 130 86
0.32784 -0.59176 0.88424 235 130 86
0.32784 -0.53738 0.88421 235 130 86
0.27875 -0.65091 0.88424 235 130 86
0.12901 -0.65091 0.97593 235 130 86
-0.27875 -0.65091 1.41876 235 130 86
-0.12901 -0.65091 0.97593 235 130 86
-0.246 -0.60655 1.46525 235 130 86
0.12901 -0.65091 0.88426 235 130 86
0.32783 0.11444 0.61289 221 117 73
0.32782 0.19545 0.61289 221 117 73
0.32781 0.11444 0.20242 221 117 73
0.27875 0.11331 0.67841 221 117 73
0.27882 0.19545 0.67841 221 117 73
0.32781 0.11444 0.11359 221 117 73
0.32784 -0.52998 0.11359 221 117 73
0.32784 -0.44682 0.20242 221 117 73
0.32784 -0.44699 0.3698 221 117 73
0.32784 -0.52976 0.3701 221 117 73
0.32784 -0.59176 0.45233 221 117 73
0.32784 -0.59176 0.3701 221 117 73
0.27875 -0.65091 0.3701 221 117 73
0.27875 -0.65091 0.45233 221 117 73
-0.27875 -0.65091 0.45233 221 117 73
-0.27875 -0.65091 0.3701 221 117 73
0.32784 -0.4165 0.45257 221 117 73
0.32784 -0.32161 0.37003 221 117 73
0.32784 -0.3221 0.88426 221 117 73
0.32784 -0.41678 0.81057 221 117 73
0.32784 -0.44748 0.88423 221 117 73
0.32784 -0.59176 0.81048 221 117 73
0.32784 -0.53738 0.88421 221 117 73
0.32784 -0.44765 1.06623 221 117 73
0.32784 -0.53826 1.15757 221 117 73
0.32784 -0.17732 1.15756 221 117 73
0.32784 -0.17728 1.06674 221 117 73
0.32784 -0.59176 0.88424 221 117 73
0.27875 -0.65091 0.81053 221 117 73
0.27875 -0.65091 0.88424 221 117 73
0.32781 0.11444 0.05374 221 117 73
0.3278 0.19545 0.05374 221 117 73
0.27896 0.19545 0 221 117 73
0.27896 0.11444 0 221 117 73
-0.27896 0.11444 0 221 117 73
-0.27896 0.19545 0 221 117 73
0.14078 -0.02404 1.46525 245 135 89
-0.14078 -0.02404 1.46525 245 135 89
-0.246 0.06895 1.46525 245 135 89
0.246 0.06895 1.46525 245 135 89
0.27899 0.02943 1.46525 245 135 89
0.18209 -0.05804 1.46525 245 135 89
0.27897 -0.55332 1.46525 245 135 89
0.18208 -0.40997 1.46525 245 135 89
0.246 -0.60655 1.46525 245 135 89
0.14078 -0.45037 1.46525 245 135 89
-0.246 -0.60655 1.46525 245 135 89
-0.14078 -0.45037 1.46525 245 135 89
0.14078 -0.02404 1.7478 235 130 86
-0.14078 -0.02404 1.7478 235 130 86
-0.14078 -0.02404 1.46525 235 130 86
0.14078 -0.02404 1.46525 235 130 86
0.18209 -0.05804 1.46525 235 130 86
0.18209 -0.05804 1.7478 235 130 86
0.18208 -0.40997 1.46525 235 130 86
0.18208 -0.40997 1.7478 235 130 86
0.14078 -0.45037 1.46525 235 130 86
0.14078 -0.45037 1.7478 235 130 86
0.11831 -0.05502 1.7904 235 130 86
-0.11831 -0.05502 1.7904 235 130 86
0.15273 -0.38559 1.7904 235 130 86
0.11831 -0.41926 1.7904 235 130 86
0.15273 -0.08336 1.7904 235 130 86
-0.14078 -0.45037 1.46525 235 130 86
-0.14078 -0.45037 1.7478 235 130 86
-0.11831 -0.41926 1.7904 235 130 86
0.16955 0.89683 0.52491 235 130 86
0.19569 0.8546 0.52523 235 130 86
0.15429 0.82456 0.56117 235 130 86
0.12887 0.8546 0.56117 235 130 86
0.16955 0.89684 0.16524 235 130 86
0.19569 0.85461 0.1653 235 130 86
0.15429 0.75161 0.56116 235 130 86
0.19569 0.75161 0.52522 235 130 86
0.19569 0.75161 0.1653 235 130 86
0.15429 0.82457 0.12936 235 130 86
0.15429 0.75161 0.12935 235 130 86
-0.15429 0.82457 0.12936 235 130 86
-0.15429 0.75161 0.12935 235 130 86
0.12886 0.85461 0.12936 235 130 86
-0.12886 0.85461 0.12936 235 130 86
-0.16955 0.89684 0.16524 235 130 86
-0.16955 0.89683 0.52491 235 130 86
-0.12887 0.8546 0.56117 235 130 86
0.15429 0.75161 0.12935 221 117 73
-0.15429 0.75161 0.12935 221 117 73
-0.15429 0.66634 0.12935 221 117 73
0.15429 0.66634 0.12935 221 117 73
0.19569 0.66634 0.16529 221 117 73
0.19569 0.75161 0.1653 221 117 73
0.19569 0.66634 0.52522 221 117 73
0.19569 0.75161 0.52522 221 117 73
0.15429 0.66634 0.56116 221 117 73
0.15429 0.75161 0.56116 221 117 73
-0.15429 0.66634 0.56116 221 117 73
-0.15429 0.75161 0.56116 221 117 73
0.27895 0.4563 0 221 117 73
-0.27895 0.4563 0 221 117 73
-0.27895 0.37275 0 221 117 73
0.27895 0.37275 0 221 117 73
0.3278 0.37275 0.05373 221 117 73
0.3278 0.45588 0.05373 221 117 73
0.32781 0.37275 0.61289 221 117 73
0.3278 0.45588 0.61289 221 117 73
0.27888 0.37275 0.67841 221 117 73
0.27898 0.45603 0.67841 221 117 73
-0.27888 0.37275 0.67841 221 117 73
-0.27898 0.45603 0.67841 221 117 73
0.27895 0.37275 0 235 130 86
-0.27895 0.37275 0 235 130 86
-0.27896 0.19545 0 235 130 86
0.27896 0.19545 0 235 130 86
0.3278 0.19545 0.05374 235 130 86
0.3278 0.37275 0.05373 235 130 86
0.32782 0.19545 0.61289 235 130 86
0.32781 0.37275 0.61289 235 130 86
0.27882 0.19545 0.67841 235 130 86
0.27888 0.37275 0.67841 235 130 86
0.27875 -0.65091 0.45233 235 130 86
0.1289 -0.65091 0.70122 235 130 86
0.12894 -0.65091 0.81062 235 130 86
0.27875 -0.65091 0.81053 235 130 86
-0.1289 -0.65091 0.70122 235 130 86
-0.27875 -0.65091 0.45233 235 130 86
0.12894 -0.65091 0.81062 221 117 73
0.12901 -0.65091 0.88426 221 117 73
0.06076 -0.65091 0.90355 221 117 73
0.06064 -0.65091 0.77313 221 117 73
0.12901 -0.65091 0.97593 221 117 73
-0.12901 -0.65091 0.97593 221 117 73
-0.06076 -0.65091 0.90355 221 117 73
-0.12901 -0.65091 0.88426 221 117 73
0.1289 -0.65091 0.70122 221 117 73
-0.06064 -0.65091 0.77313 221 117 73
-0.1289 -0.65091 0.70122 221 117 73
-0.12894 -0.65091 0.81062 221 117 73
-0.27875 -0.65091 0.81053 221 117 73
-0.27875 -0.65091 0.88424 221 117 73
0.06064 -0.65091 0.77313 235 130 86
-0.06064 -0.65091 0.77313 235 130 86
-0.06076 -0.65091 0.90355 235 130 86
0.06076 -0.65091 0.90355 235 130 86
0.32784 -0.59176 0.81048 235 130 86
0.32784 -0.59176 0.45233 235 130 86
0.32784 -0.4165 0.45257 235 130 86
0.32784 -0.41678 0.81057 235 130 86
-0.32784 -0.59176 0.0538 235 130 86
-0.32784 -0.59176 0.3701 235 130 86
-0.32784 -0.52976 0.3701 235 130 86
-0.32784 -0.52998 0.11359 235 130 86
-0.32781 0.11444 0.11359 235 130 86
-0.32781 0.11444 0.05374 235 130 86
-0.27417 0.56121 0.61289 235 130 86
-0.32779 0.50226 0.61289 235 130 86
-0.32779 0.50226 0.05372 235 130 86
-0.27898 0.45603 0.67841 235 130 86
-0.23464 0.50219 0.67841 235 130 86
-0.19569 0.56121 0.52521 235 130 86
-0.15429 0.56121 0.56116 235 130 86
-0.19569 0.66634 0.52522 235 130 86
-0.15429 0.66634 0.56116 235 130 86
-0.19569 0.66634 0.16529 235 130 86
-0.3278 0.45588 0.61289 235 130 86
-0.3278 0.45588 0.05373 235 130 86
-0.32784 -0.59176 1.41876 235 130 86
-0.27897 -0.55332 1.46525 235 130 86
-0.27899 0.02943 1.46525 235 130 86
-0.32784 0.05416 1.41876 235 130 86
-0.32784 0.05416 0.61289 235 130 86
-0.27875 0.11331 0.67841 235 130 86
-0.13165 0.22013 1.08428 235 130 86
-0.32783 0.11444 0.61289 235 130 86
-0.32781 0.11444 0.20242 235 130 86
-0.32784 -0.17728 1.06674 235 130 86
-0.32784 -0.3221 0.88426 235 130 86
-0.32784 -0.44765 1.06623 235 130 86
-0.32784 -0.44748 0.88423 235 130 86
-0.32784 -0.32161 0.37003 235 130 86
-0.32784 -0.44682 0.20242 235 130 86
-0.32784 -0.44699 0.3698 235 130 86
-0.32784 -0.17732 1.15756 235 130 86
-0.32784 -0.53826 1.15757 235 130 86
-0.32784 -0.59176 0.88424 235 130 86
-0.32784 -0.53738 0.88421 235 130 86
-0.27875 -0.65091 0.88424 235 130 86
-0.32783 0.11444 0.61289 221 117 73
-0.32781 0.11444 0.20242 221 117 73
-0.32782 0.19545 0.61289 221 117 73
-0.27875 0.11331 0.67841 221 117 73
-0.27882 0.19545 0.67841 221 117 73
-0.32781 0.11444 0.11359 221 117 73
-0.32784 -0.52998 0.11359 221 117 73
-0.32784 -0.44682 0.20242 221 117 73
-0.32784 -0.44699 0.3698 221 117 73
-0.32784 -0.52976 0.3701 221 117 73
-0.32784 -0.59176 0.45233 221 117 73
-0.32784 -0.59176 0.3701 221 117 73
-0.32784 -0.4165 0.45257 221 117 73
-0.32784 -0.32161 0.37003 221 117 73
-0.32784 -0.3221 0.88426 221 117 73
-0.32784 -0.41678 0.81057 221 117 73
-0.32784 -0.44748 0.88423 221 117 73
-0.32784 -0.59176 0.81048 221 117 73
-0.32784 -0.53738 0.88421 221 117 73
-0.32784 -0.44765 1.06623 221 117 73
-0.32784 -0.53826 1.15757 221 117 73
-0.32784 -0.17732 1.15756 221 117 73
-0.32784 -0.17728 1.06674 221 117 73
-0.32784 -0.59176 0.88424 221 117 73
-0.32781 0.11444 0.05374 221 117 73
-0.3278 0.19545 0.05374 221 117 73
0.23464 0.50219 0.67841 245 135 89
0.27898 0.45603 0.67841 245 135 89
-0.27898 0.45603 0.67841 245 135 89
-0.23464 0.50219 0.67841 245 135 89
0.13165 0.22013 1.08428 245 135 89
0.13165 0.11331 1.08428 245 135 89
-0.13165 0.11331 1.08428 245 135 89
-0.13165 0.22013 1.08428 245 135 89
0.09423 0.27106 1.08428 245 135 89
-0.09423 0.27106 1.08428 245 135 89
-0.27897 -0.55332 1.46525 245 135 89
-0.18208 -0.40997 1.46525 245 135 89
-0.18209 -0.05804 1.46525 245 135 89
-0.27899 0.02943 1.46525 245 135 89
-0.18208 -0.40997 1.46525 235 130 86
-0.18208 -0.40997 1.7478 235 130 86
-0.18209 -0.05804 1.7478 235 130 86
-0.18209 -0.05804 1.46525 235 130 86
-0.15273 -0.38559 1.7904 235 130 86
-0.15273 -0.08336 1.7904 235 130 86
0.15429 0.66634 0.56116 245 135 89
0.15429 0.56121 0.56116 245 135 89
-0.15429 0.56121 0.56116 245 135 89
-0.15429 0.66634 0.56116 245 135 89
-0.15429 0.82456 0.56117 235 130 86
-0.19569 0.8546 0.52523 235 130 86
-0.19569 0.85461 0.1653 235 130 86
-0.15429 0.75161 0.56116 235 130 86
-0.19569 0.75161 0.52522 235 130 86
-0.19569 0.75161 0.1653 235 130 86
-0.19569 0.66634 0.52522 221 117 73
-0.19569 0.75161 0.52522 221 117 73
-0.19569 0.75161 0.1653 221 117 73
-0.19569 0.66634 0.16529 221 117 73
0.15429 0.82456 0.56117 245 135 89
0.15429 0.75161 0.56116 245 135 89
-0.15429 0.75161 0.56116 245 135 89
-0.15429 0.82456 0.56117 245 135 89
0.12887 0.8546 0.56117 245 135 89
-0.12887 0.8546 0.56117 245 135 89
-0.32781 0.37275 0.61289 221 117 73
-0.3278 0.37275 0.05373 221 117 73
-0.3278 0.45588 0.05373 221 117 73
-0.3278 0.45588 0.61289 221 117 73
0.27888 0.37275 0.67841 245 135 89
0.27882 0.19545 0.67841 245 135 89
-0.27882 0.19545 0.67841 245 135 89
-0.27888 0.37275 0.67841 245 135 89
-0.32782 0.19545 0.61289 235 130 86
-0.3278 0.19545 0.05374 235 130 86
-0.3278 0.37275 0.05373 235 130 86
-0.32781 0.37275 0.61289 235 130 86
-0.27882 0.19545 0.67841 235 130 86
-0.27888 0.37275 0.67841 235 130 86
-0.32784 -0.59176 0.45233 235 130 86
-0.32784 -0.59176 0.81048 235 130 86
-0.27875 -0.65091 0.81053 235 130 86
-0.32784 -0.4165 0.45257 235 130 86
-0.32784 -0.41678 0.81057 235 130 86
-0.12901 -0.65091 0.88426 235 130 86
-0.12894 -0.65091 0.81062 235 130 86
3 0 2 1
3 0 3 2
3 4 3 0
3 4 5 3
3 3 6 2
3 3 5 6
3 7 5 4
3 7 6 5
3 8 10 9
3 8 11 10
3 11 12 10
3 12 9 10
3 11 13 12
3 12 14 9
3 13 14 12
3 13 15 14
3 15 9 14
3 15 8 9
3 8 15 16
3 17 13 11
3 18 20 19
3 18 21 20
3 22 21 18
3 22 23 21
3 24 23 22
3 24 25 23
3 21 25 20
3 21 23 25
3 26 28 27
3 26 29 28
3 30 26 27
3 30 27 31
3 27 32 31
3 27 28 32
3 33 31 32
3 33 30 31
3 34 36 35
3 34 37 36
3 35 36 38
3 38 36 37
3 35 38 39
3 38 37 40
3 39 38 40
3 39 40 41
3 41 37 34
3 41 40 37
3 34 42 41
3 43 35 39
3 44 46 45
3 44 47 46
3 48 44 45
3 48 45 49
3 50 48 49
3 50 49 51
3 45 51 49
3 45 46 51
3 52 54 53
3 52 55 54
3 54 55 56
3 54 56 57
3 57 56 58
3 57 58 59
3 60 62 61
3 60 63 62
3 64 63 60
3 64 65 63
3 64 66 65
3 64 67 66
3 67 68 66
3 67 69 68
3 67 64 70
3 67 70 71
3 72 67 71
3 72 71 73
3 72 73 74
3 71 75 73
3 71 70 75
3 70 76 75
3 70 77 76
3 77 64 78
3 77 78 79
3 76 77 79
3 76 79 80
3 81 65 66
3 81 82 65
3 82 63 65
3 78 83 79
3 68 81 66
3 60 78 64
3 60 61 78
3 84 86 85
3 84 87 86
3 84 85 88
3 88 85 89
3 88 89 90
3 84 88 91
3 85 92 89
3 85 86 92
3 84 93 87
3 84 94 93
3 84 95 94
3 84 96 95
3 91 96 84
3 91 97 96
3 98 88 90
3 98 91 88
3 97 91 98
3 97 98 99
3 100 102 101
3 100 103 102
3 104 103 100
3 104 100 105
3 106 104 105
3 106 105 107
3 108 106 107
3 108 107 109
3 110 103 104
3 110 111 103
3 103 112 102
3 103 113 112
3 103 114 113
3 103 111 114
3 113 114 115
3 113 115 116
3 115 114 117
3 111 117 114
3 115 117 118
3 119 116 115
3 119 115 120
3 120 115 118
3 119 120 121
3 120 118 121
3 119 121 122
3 111 110 123
3 110 124 123
3 125 124 110
3 126 124 125
3 126 125 127
3 125 110 128
3 128 110 129
3 130 128 129
3 130 131 128
3 104 129 110
3 104 132 129
3 106 132 104
3 106 133 132
3 134 133 106
3 134 135 133
3 136 134 106
3 136 106 108
3 137 108 138
3 137 138 139
3 109 138 108
3 109 140 138
3 137 141 136
3 137 136 108
3 142 144 143
3 145 142 143
3 145 143 146
3 143 144 147
3 148 147 144
3 148 144 149
3 150 148 149
3 150 151 148
3 152 151 150
3 152 153 151
3 154 153 152
3 154 152 155
3 154 155 156
3 154 156 157
3 152 150 158
3 158 150 159
3 158 159 160
3 158 160 161
3 162 161 160
3 162 163 161
3 162 164 163
3 165 164 162
3 165 166 164
3 167 166 165
3 167 165 168
3 164 169 163
3 170 163 169
3 170 169 171
3 172 174 173
3 172 175 174
3 174 175 176
3 174 176 177
3 173 147 172
3 143 147 173
3 178 180 179
3 178 181 180
3 182 181 178
3 182 178 183
3 184 182 183
3 184 183 185
3 186 184 185
3 186 185 187
3 187 188 186
3 187 189 188
3 190 192 191
3 190 193 192
3 194 193 190
3 194 190 195
3 196 194 195
3 196 195 197
3 198 196 197
3 198 197 199
3 200 190 191
3 195 190 200
3 200 191 201
3 199 197 202
3 199 202 203
3 197 204 202
3 197 195 204
3 195 200 204
3 199 205 198
3 199 206 205
3 203 206 199
3 203 207 206
3 64 77 70
3 208 210 209
3 208 211 210
3 209 212 208
3 209 213 212
3 214 209 210
3 214 215 209
3 215 213 209
3 215 216 213
3 216 217 213
3 216 218 217
3 219 217 218
3 219 218 220
3 221 213 217
3 221 212 213
3 221 217 219
3 212 221 222
3 221 219 222
3 212 222 223
3 212 224 208
3 212 223 224
3 208 225 211
3 208 224 225
3 226 228 227
3 226 229 228
3 230 229 226
3 230 226 231
3 232 230 231
3 232 231 233
3 234 232 233
3 234 233 235
3 235 236 234
3 235 237 236
3 238 240 239
3 238 241 240
3 242 241 238
3 242 238 243
3 244 242 243
3 244 243 245
3 246 244 245
3 246 245 247
3 247 248 246
3 247 249 248
3 250 252 251
3 250 253 252
3 254 253 250
3 254 250 255
3 256 254 255
3 256 255 257
3 258 256 257
3 258 257 259
3 260 262 261
3 260 263 262
3 260 261 264
3 260 264 265
3 171 266 170
3 171 267 266
3 268 266 267
3 268 269 266
3 267 270 268
3 268 270 271
3 268 271 272
3 273 272 271
3 274 269 275
3 274 275 276
3 277 276 275
3 272 277 275
3 272 273 277
3 273 278 277
3 273 279 278
3 280 282 281
3 280 283 282
3 266 269 274
3 260 284 263
3 260 285 284
3 284 285 286
3 284 286 287
3 288 92 289
3 288 89 92
3 288 90 89
3 288 98 90
3 288 289 290
3 288 290 291
3 288 291 292
3 288 292 293
3 98 288 293
3 98 293 99
3 78 295 294
3 78 296 295
3 78 62 296
3 78 61 62
3 294 295 297
3 294 297 298
3 294 83 78
3 294 299 83
3 300 299 294
3 300 301 299
3 300 302 301
3 299 303 83
3 299 301 303
3 83 303 80
3 83 80 79
3 304 295 296
3 297 295 304
3 304 296 305
3 305 296 62
3 138 307 306
3 138 140 307
3 306 307 308
3 306 308 309
3 309 308 101
3 309 101 102
3 310 309 102
3 310 102 311
3 102 117 311
3 102 112 117
3 112 118 117
3 112 312 118
3 122 118 312
3 122 121 118
3 311 313 310
3 310 313 314
3 309 310 315
3 316 315 310
3 317 315 316
3 317 316 318
3 319 316 310
3 319 310 314
3 320 319 314
3 320 321 319
3 309 315 322
3 306 309 322
3 306 322 323
3 324 306 323
3 324 323 325
3 326 306 324
3 326 138 306
3 327 329 328
3 330 329 327
3 330 331 329
3 329 332 328
3 333 328 332
3 333 334 328
3 335 334 333
3 335 333 336
3 337 335 336
3 337 336 338
3 157 337 338
3 157 156 337
3 337 339 335
3 339 340 335
3 339 341 340
3 339 342 341
3 343 341 342
3 343 342 344
3 343 344 345
3 346 343 345
3 346 345 347
3 348 346 347
3 348 349 346
3 345 344 350
3 278 350 344
3 278 279 350
3 351 177 176
3 351 352 177
3 352 351 332
3 329 352 332
3 353 355 354
3 353 356 355
3 67 298 69
3 67 294 298
3 72 294 67
3 72 300 294
3 111 311 117
3 357 359 358
3 357 360 359
3 361 360 357
3 361 362 360
3 188 364 363
3 188 189 364
3 363 364 365
3 363 365 366
3 366 365 179
3 366 179 180
3 205 368 367
3 205 206 368
3 367 368 369
3 367 369 370
3 370 369 191
3 370 191 192
3 206 371 368
3 206 207 371
3 368 372 369
3 368 371 372
3 369 201 191
3 369 372 201
3 373 375 374
3 373 376 375
3 224 377 225
3 224 378 377
3 378 224 223
3 378 223 379
3 380 377 378
3 380 378 381
3 381 378 379
3 381 379 382
3 382 379 219
3 382 219 220
3 222 379 223
3 222 219 379
3 236 384 383
3 236 237 384
3 383 384 385
3 383 385 386
3 386 385 227
3 386 227 228
3 387 389 388
3 387 390 389
3 391 390 387
3 391 392 390
3 393 395 394
3 393 396 395
3 394 395 239
3 394 239 240
3 248 396 393
3 248 249 396
3 397 399 398
3 397 400 399
3 401 403 402
3 401 404 403
3 402 403 251
3 402 251 252
3 405 404 401
3 405 406 404
3 146 330 145
3 146 331 330
3 265 408 407
3 265 409 408
3 408 410 407
3 408 411 410
3 139 326 412
3 139 138 326
3 265 413 409
3 265 264 413
