mtllib Swablu.mtl
v 0.11563 0.5281999 -0.0411307
vt 0.114503 0.874037
vn -0.111686 0.9929118 0.04065059
v 0.062352 0.49541 0.00440165
vn -0.3321849 0.8181937 0.4692678
v 0.126709 0.517521 -0.0131541
vn -0.0165978 0.935558 0.352783
v 0.0478499 0.5010799 -0.0164608
vn -0.5143082 0.8369262 0.1871941
v 0.191455 0.5061929 -0.0687287
vn 0.2472499 0.9647636 -0.08999187
v 0.0455491 0.49541 -0.0417641
vn -0.5561079 0.8181939 -0.145955
v 0.106134 0.517521 -0.0696835
vn -0.239479 0.9355579 -0.259579
v 0.00262431 0.429209 0
vn -0.7807978 0.5564099 0.2841879
v 0 0.114829 -0.253891
vt 0.106428 0.897459
vn 0 -0.3936872 -0.9192445
v 0.128747 0.08600789 -0.169268
vn 0.6675949 -0.4751629 -0.5731819
v 0 0.04799528 -0.148496
vn 0 -0.9230953 -0.3845711
v 0.13124 0.186578 -0.188202
vn 0.732167 0.0658045 -0.677939
v -0.128747 0.08600789 -0.169268
vn -0.6675949 -0.4751629 -0.5731819
v 0 0.223497 -0.245419
vn 0 0.275228 -0.961379
v -0.13124 0.186578 -0.188202
vn -0.732167 0.0658045 -0.677939
v 0.0984484 0.04355238 -0.097325
vn 0.3035381 -0.9106292 -0.2803911
v 0.21863 0.154047 0.000174323
vn 0.9774079 -0.199046 -0.0710948
v 0.162155 0.06946739 3.4369E-05
vn 0.7752801 -0.6316141 0.002080061
v -0.21863 0.154047 0.000174323
vn -0.9774079 -0.199046 -0.0710948
v -0.0984484 0.04355238 -0.097325
vn -0.3035381 -0.9106292 -0.2803911
v -0.162155 0.06946739 3.4369E-05
vn -0.7752801 -0.6316141 0.0020801
v 0.120182 0.292395 -0.156222
vn 0.6584201 0.4318971 -0.6163991
v -0.120182 0.292395 -0.156222
vn -0.6584198 0.4318979 -0.6163989
v 0 0.340135 -0.181133
vn 0 0.61152 -0.791229
v 0 0.02627059 5.90689E-06
vn 0 -0.9999247 -0.0122727
v 0.143908 0.107209 0.136178
vn 0.5258831 -0.5014961 0.6869851
v 0.214103 0.261504 0.000426047
vn 0.9614303 0.266026 -0.06987152
v 0.163153 0.191167 0.152308
vn 0.6593518 -0.0230928 0.7514798
v -0.143908 0.107209 0.136178
vn -0.5258831 -0.5014961 0.6869851
v -0.214103 0.261504 0.000426047
vn -0.9614303 0.266026 -0.06987152
v -0.163153 0.191167 0.152308
vn -0.6593518 -0.0230928 0.7514798
v 0.0618163 0.394652 -0.0973027
vn 0.3837031 0.8416082 -0.3800891
v -0.0618163 0.394652 -0.0973027
vn -0.3837031 0.8416082 -0.3800891
v 0 0.04355238 0.1216
vn 0 -0.8294838 0.5585309
v -0.0984484 0.04355238 0.087167
vn -0.3191538 -0.8094446 0.4928897
v 0.0984484 0.04355238 0.087167
vn 0.3191538 -0.8094446 0.4928897
v 0.134334 0.301736 0.136963
vn 0.6132019 0.4363089 0.6584968
v 0 0.164827 0.215267
vn 0 -0.100934 0.9948931
v -0.134334 0.301736 0.136963
vn -0.6132019 0.4363089 0.6584968
v 0.159195 0.351632 0.00062318
vn 0.7279249 0.6832919 -0.05689939
v -0.159195 0.351632 0.00062318
vn -0.7279249 0.6832919 -0.05689939
v 0 0.107209 0.191716
vn 0 -0.5115873 0.8592314
v 0.0775699 0.396148 0.0842731
vn 0.3215481 0.8487312 0.4198361
v 0 0.415268 0.000721949
vn 0 0.9999998 0.0006244329
v -0.0775698 0.396148 0.0842731
vn -0.3215481 0.8487312 0.4198361
v 0 0.301736 0.193479
vn 0 0.41436 0.910113
v 0 0.106464 -0.324828
vt 0.76856 0.695313
vn 0 0.9970213 -0.07712752
v 0.043252 0.0847616 -0.283195
vt 0.992752 0.89491
vn 0.4919707 0.8686575 -0.05830017
v 0.0334626 0.0847616 -0.356063
vt 0.94201 0.545563
vn 0.4838953 0.8695725 -0.09843306
v 0 0.109691 -0.267004
vt 0.76856 0.972534
vn 0 0.9977553 -0.06696472
v 0 0.0975892 -0.382988
vt 0.76856 0.416478
vn 0 0.9609082 -0.2768671
v -0.043252 0.0847616 -0.283195
vt 0.544368 0.89491
vn -0.4919707 0.8686575 -0.05830017
v -0.0334626 0.0847616 -0.356063
vt 0.59511 0.545563
vn -0.4838949 0.8695728 -0.09843297
v 0 0.0847616 -0.414223
vt 0.76856 0.266729
vn 0 0.9250317 -0.3798899
v -0.110381 0.5281999 -0.0411307
vn 0.111686 0.9929118 0.04065059
v -0.0403005 0.49541 -0.0417641
vn 0.5561079 0.8181939 -0.145955
v -0.100885 0.517521 -0.0696835
vn 0.239479 0.9355579 -0.259579
v -0.0426013 0.5010799 -0.0164608
vn 0.5143082 0.8369264 0.1871931
v -0.186206 0.5061929 -0.0687287
vn -0.2472499 0.9647637 -0.08999178
v -0.0571034 0.49541 0.00440165
vn 0.3321849 0.8181937 0.4692678
v -0.12146 0.517521 -0.0131541
vn 0.01659779 0.9355576 0.3527838
v 0.0026243 0.429209 0
vn 0.7807981 0.5564101 0.284187
v -0.0341375 0.209153 0.226564
vt 0.259608 0.296713
vn -0.7310623 0.2176451 0.6466673
v -0.037129 0.233746 0.190933
vt 0.379823 0.379686
vn -0.7100239 0.5502599 0.4394089
v -0.0539611 0.176697 0.194224
vt 0.36872 0.18721
vn -0.849957 -0.005804101 0.5268201
v 0 0.253318 0.201255
vt 0.345 0.445722
vn 0 0.7924922 0.6098821
v 0 0.160314 0.25429
vt 0.166067 0.131936
vn 0 -0.02640421 0.9996514
v 0 0.22242 0.240422
vt 0.212853 0.341474
vn 0 0.5157039 0.8567669
v 0.0341375 0.209153 0.226564
vn 0.7310618 0.217645 0.6466678
v 0.037129 0.233746 0.190933
vn 0.7100239 0.5502599 0.4394089
v 0.0539611 0.176697 0.194224
vn 0.849957 -0.00580434 0.5268201
v -0.0861529 -0.000805879 0
vt 0.307437 0.325267
vn -0.179823 -0.9836962 -0.002347681
vt 0.190868 0.567705
vt 0.307446 0.561073
vt 0.307486 0.564351
vt 0.429694 0.567705
v 0.086153 -0.000805879 0
vn 0.179823 -0.9836962 -0.00234763
vn 0 -0.7895147 0.6137317
v 0 0.130795 0.20141
vt 0.344475 0.0323442
vn 0 -0.8731653 0.4874242
v 0.0376845 0.145408 0.192411
vt 0.374838 0.0816481
vn 0.6337029 -0.569822 0.523186
v -0.0376845 0.145408 0.192411
vn -0.6337029 -0.569822 0.523186
vn 0.7308853 -0.4117612 0.5442972
vn -0.7308853 -0.4117612 0.5442972
vn 0 -0.9970655 0.07655266
vn 0 -0.5446811 0.8386432
vn 0 -1 0
vn -0.1544811 -0.9863945 -0.05622743
vn -0.440011 -0.8835961 -0.160151
vn 0.131983 -0.9900873 0.04803762
vn -0.724833 -0.63641 -0.263817
vn 0.1544809 -0.9863946 -0.05622658
vn 0.4400102 -0.8835964 -0.1601511
vn -0.131983 -0.9900873 0.04803861
vn 0.7248333 -0.6364093 -0.2638181
o merged_0_0_node
g polygon_0
usemtl lambert3_mat_id
f 1/1/1 2/1/2 3/1/3
f 1/1/1 4/1/4 2/1/2
f 1/1/1 3/1/3 5/1/5
f 1/1/1 6/1/6 4/1/4
f 1/1/1 5/1/5 7/1/7
f 1/1/1 7/1/7 6/1/6
f 2/1/2 4/1/4 8/1/8
f 8/1/8 4/1/4 6/1/6
f 9/2/9 10/2/10 11/2/11
f 9/2/9 12/2/12 10/2/10
f 9/2/9 11/2/11 13/2/13
f 9/2/9 14/2/14 12/2/12
f 9/2/9 13/2/13 15/2/15
f 9/2/9 15/2/15 14/2/14
f 10/2/10 16/2/16 11/2/11
f 10/2/10 12/2/12 17/2/17
f 10/2/10 18/2/18 16/2/16
f 10/2/10 17/2/17 18/2/18
f 13/2/13 19/2/19 15/2/15
f 13/2/13 11/2/11 20/2/20
f 13/2/13 21/2/21 19/2/19
f 13/2/13 20/2/20 21/2/21
f 14/2/14 22/2/22 12/2/12
f 14/2/14 15/2/15 23/2/23
f 14/2/14 24/2/24 22/2/22
f 14/2/14 23/2/23 24/2/24
f 16/2/16 25/2/25 11/2/11
f 11/2/11 25/2/25 20/2/20
f 17/2/17 26/2/26 18/2/18
f 17/2/17 12/2/12 27/2/27
f 17/2/17 28/2/28 26/2/26
f 17/2/17 27/2/27 28/2/28
f 12/2/12 22/2/22 27/2/27
f 19/2/19 21/2/21 29/2/29
f 19/2/19 30/2/30 15/2/15
f 19/2/19 29/2/29 31/2/31
f 19/2/19 31/2/31 30/2/30
f 15/2/15 30/2/30 23/2/23
f 24/2/24 32/2/32 22/2/22
f 24/2/24 23/2/23 33/2/33
f 24/2/24 33/2/33 32/2/32
f 25/2/25 34/2/34 35/2/35
f 25/2/25 36/2/36 34/2/34
f 21/2/21 35/2/35 29/2/29
f 18/2/18 26/2/26 36/2/36
f 28/2/28 27/2/27 37/2/37
f 28/2/28 38/2/38 26/2/26
f 31/2/31 39/2/39 30/2/30
f 31/2/31 29/2/29 38/2/38
f 22/2/22 32/2/32 40/2/40
f 22/2/22 40/2/40 27/2/27
f 27/2/27 40/2/40 37/2/37
f 23/2/23 41/2/41 33/2/33
f 23/2/23 30/2/30 41/2/41
f 30/2/30 39/2/39 41/2/41
f 34/2/34 42/2/42 35/2/35
f 34/2/34 36/2/36 42/2/42
f 42/2/42 36/2/36 26/2/26
f 42/2/42 29/2/29 35/2/35
f 42/2/42 38/2/38 29/2/29
f 42/2/42 26/2/26 38/2/38
f 32/2/32 43/2/43 40/2/40
f 32/2/32 33/2/33 44/2/44
f 32/2/32 44/2/44 43/2/43
f 40/2/40 43/2/43 37/2/37
f 39/2/39 45/2/45 41/2/41
f 39/2/39 46/2/46 45/2/45
f 45/2/45 33/2/33 41/2/41
f 45/2/45 44/2/44 33/2/33
f 45/2/45 46/2/46 43/2/43
f 45/2/45 43/2/43 44/2/44
f 43/2/43 46/2/46 37/2/37
f 47/3/47 48/4/48 49/5/49
f 47/3/47 50/6/50 48/4/48
f 47/3/47 49/5/49 51/7/51
f 47/3/47 52/8/52 50/6/50
f 47/3/47 51/7/51 53/9/53
f 47/3/47 53/9/53 52/8/52
f 49/5/49 54/10/54 51/7/51
f 51/7/51 54/10/54 53/9/53
f 55/1/55 56/1/56 57/1/57
f 55/1/55 58/1/58 56/1/56
f 55/1/55 57/1/57 59/1/59
f 55/1/55 60/1/60 58/1/58
f 55/1/55 59/1/59 61/1/61
f 55/1/55 61/1/61 60/1/60
f 56/1/56 58/1/58 62/1/62
f 62/1/62 58/1/58 60/1/60
f 63/11/63 64/12/64 65/13/65
f 63/11/63 66/14/66 64/12/64
f 63/11/63 65/13/65 67/15/67
f 63/11/63 68/16/68 66/14/66
f 63/11/63 67/15/67 68/16/68
f 66/14/66 68/16/68 69/11/69
f 66/14/66 69/11/69 70/12/70
f 68/16/68 67/15/67 69/11/69
f 70/12/70 69/11/69 71/13/71
f 71/13/71 69/11/69 67/15/67
f 72/17/72 20/18/20 25/19/25
f 72/17/72 21/20/21 20/18/20
f 72/17/72 25/19/25 35/21/35
f 72/17/72 35/21/35 21/20/21
f 25/19/25 73/17/73 36/21/36
f 25/19/25 16/18/16 73/17/73
f 36/21/36 73/17/73 18/20/18
f 18/20/18 73/17/73 16/18/16
f 67/15/74 74/22/75 75/23/76
f 67/15/74 76/23/77 74/22/75
f 67/15/74 75/23/76 71/13/78
f 67/15/74 65/13/79 76/23/77
f 52/8/80 48/4/80 50/6/81
f 52/8/80 49/5/82 48/4/80
f 52/8/80 53/9/82 49/5/82
f 53/9/82 54/10/82 49/5/82
f 61/1/83 56/1/84 60/1/84
f 61/1/83 57/1/83 56/1/84
f 61/1/83 59/1/85 57/1/83
f 60/1/84 56/1/84 62/1/86
f 7/1/87 2/1/88 6/1/88
f 7/1/87 3/1/87 2/1/88
f 7/1/87 5/1/89 3/1/87
f 6/1/88 2/1/88 8/1/90
v 0.2732964 0.1585421 0.001343392
vt 0.173691 0.348327
vn 0.1477527 -0.7469311 0.6482769
v 0.3254374 0.2363352 0.02600757
vt 0.476988 0.130231
vn 0.4000092 -0.09651378 0.9114152
v 0.257605 0.2221246 0.02816524
vt 0.173873 0.25706
vn -0.4337599 0.181631 0.8825319
v 0.2976166 0.273302 0.003776412
vt 0.47264 0.279387
vn -0.3321469 0.8898746 0.3127326
v 0.2785638 0.1828614 -0.1234612
vt 0.472639 0.880165
vn -0.5077879 0.1082058 -0.8546596
v 0.2312057 0.2120507 -0.02878953
vt 0.15621 0.558926
vn -0.8957185 0.4265056 -0.1256244
v 0.2766925 0.2485293 -0.06484272
vt 0.47264 0.622508
vn -0.5813882 0.7128841 -0.392153
v 0.2428638 0.1476151 -0.07552473
vt 0.175597 0.74516
vn -0.4786735 -0.8516747 -0.2133587
v 0.3064186 0.1457206 -0.1013213
vt 0.476988 0.731351
vn 0.2656088 -0.9076658 -0.3249535
v 0.330796 0.1752177 -0.02077303
vt 0.476988 0.328914
vn 0.4449718 -0.8012945 0.3999091
v 0.3663648 0.2722257 -0.008848251
vt 0.771729 0.197714
vn 0.6412956 0.6449665 0.4156418
v 0.3937074 0.2429442 -0.09965528
vt 1 0.54194
vn 0.860607 0.3253868 -0.3917639
v 0.3432988 0.2682591 -0.08996467
vt 0.823778 0.597815
vn -0.08253658 0.8282748 -0.5542099
v 0.227459 0.165222 0.001736959
vt 0 0.437269
vn -0.771847 -0.4166114 0.4802988
v 0.3820842 0.206055 -0.05253862
vt 0.798683 0.36273
vn 0.8276619 -0.5100135 0.2342266
v 0.3499694 0.1938269 -0.1285442
vt 0.789851 0.759263
vn 0.4083337 -0.2495342 -0.878064
v -0.2732964 0.1585421 0.001343366
vn -0.147752 -0.7469311 0.6482771
v -0.2576051 0.2221246 0.02816519
vn 0.4337597 0.1816317 0.8825318
v -0.3254375 0.2363351 0.02600753
vn -0.4000091 -0.09651385 0.9114153
v -0.2976167 0.2733019 0.003776364
vn 0.332146 0.889875 0.3127322
v -0.2785639 0.1828614 -0.1234613
vn 0.5077878 0.108206 -0.8546597
v -0.2766926 0.2485292 -0.06484275
vn 0.5813875 0.7128846 -0.3921532
v -0.2312058 0.2120507 -0.02878957
vn 0.895718 0.4265063 -0.1256246
v -0.2428638 0.147615 -0.07552473
vn 0.4786742 -0.8516743 -0.2133584
v -0.3064186 0.1457205 -0.1013213
vn -0.265608 -0.9076661 -0.3249531
v -0.330796 0.1752176 -0.02077305
vn -0.444971 -0.8012948 0.3999094
v -0.3663639 0.2722255 -0.008848314
vn -0.6412961 0.6449661 0.4156417
v -0.3432989 0.268259 -0.0899647
vn 0.08253578 0.8282747 -0.5542101
v -0.3937075 0.242944 -0.09965529
vn -0.8606071 0.3253862 -0.3917642
v -0.227459 0.165222 0.001736915
vn 0.7718475 -0.4166107 0.4802988
v -0.3820843 0.2060549 -0.05253863
vn -0.8276615 -0.5100142 0.2342268
v -0.3499694 0.1938267 -0.1285442
vn -0.4083336 -0.2495349 -0.8780638
o merged_1_0_node
g polygon_0
usemtl lambert2_mat_id
f 77/24/91 78/25/92 79/26/93
f 79/26/93 78/25/92 80/27/94
f 81/28/95 82/29/96 83/30/97
f 83/30/97 82/29/96 80/27/94
f 82/29/96 79/26/93 80/27/94
f 82/29/96 81/28/95 84/31/98
f 84/31/98 81/28/95 85/32/99
f 85/32/99 86/33/100 84/31/98
f 84/31/98 86/33/100 77/24/91
f 86/33/100 78/25/92 77/24/91
f 87/34/101 88/35/102 89/36/103
f 82/29/96 90/37/104 79/26/93
f 91/38/105 92/39/106 88/35/102
f 88/35/102 92/39/106 89/36/103
f 91/38/105 88/35/102 87/34/101
f 84/31/98 77/24/91 90/37/104
f 90/37/104 77/24/91 79/26/93
f 84/31/98 90/37/104 82/29/96
f 80/27/94 78/25/92 87/34/101
f 87/34/101 78/25/92 91/38/105
f 81/28/95 83/30/97 89/36/103
f 87/34/101 89/36/103 80/27/94
f 89/36/103 83/30/97 80/27/94
f 85/32/99 81/28/95 92/39/106
f 92/39/106 81/28/95 89/36/103
f 78/25/92 86/33/100 91/38/105
f 92/39/106 91/38/105 85/32/99
f 86/33/100 85/32/99 91/38/105
f 93/24/107 94/26/108 95/25/109
f 94/26/108 96/27/110 95/25/109
f 97/28/111 98/30/112 99/29/113
f 98/30/112 96/27/110 99/29/113
f 99/29/113 96/27/110 94/26/108
f 99/29/113 100/31/114 97/28/111
f 100/31/114 101/32/115 97/28/111
f 101/32/115 100/31/114 102/33/116
f 100/31/114 93/24/107 102/33/116
f 102/33/116 93/24/107 95/25/109
f 103/34/117 104/36/118 105/35/119
f 99/29/113 94/26/108 106/37/120
f 107/38/121 105/35/119 108/39/122
f 105/35/119 104/36/118 108/39/122
f 107/38/121 103/34/117 105/35/119
f 100/31/114 106/37/120 93/24/107
f 106/37/120 94/26/108 93/24/107
f 100/31/114 99/29/113 106/37/120
f 96/27/110 103/34/117 95/25/109
f 103/34/117 107/38/121 95/25/109
f 97/28/111 104/36/118 98/30/112
f 103/34/117 96/27/110 104/36/118
f 104/36/118 96/27/110 98/30/112
f 101/32/115 108/39/122 97/28/111
f 108/39/122 104/36/118 97/28/111
f 95/25/109 107/38/121 102/33/116
f 108/39/122 101/32/115 107/38/121
f 102/33/116 107/38/121 101/32/115
vt -0.313652 0.737202
vt -0.313652 1.0609
vt 1.17 0.799479
vt 0.907941 1.0609
o merged_2_0_node
g polygon_0
usemtl TEX_ANIM_EYE_mat_id
f 38/40/38 46/41/46 31/42/31
f 31/42/31 46/41/46 39/43/39
f 38/40/38 28/42/28 46/41/46
f 46/41/46 28/42/28 37/43/37
