mtllib Porygon2.mtl
v 0.0299388 0.197811 -0.174718
vt 0.0837457 0.118775
vn 0.8814607 -0.3936169 0.2609459
v 3.54229E-05 0.181358 -0.197364
vn 0.0002385939 -0.8901427 -0.4556819
v 0.0261365 0.223835 -0.234348
vn 0.591876 -0.473772 -0.6520911
v -0.0261365 0.223835 -0.234348
vn -0.5921623 -0.4736482 -0.6519212
v -0.0298679 0.197811 -0.174718
vn -0.8812178 -0.3939709 0.2612319
v -0.0422897 0.253056 -0.194128
vn -0.93576 0.207275 0.28529
v 3.5431E-05 0.214791 -0.151348
vn 0.0002644509 0.1673789 0.9858927
v 0 0.266205 -0.17603
vn -0.000196004 0.5877851 0.8090171
v 0.0422897 0.253056 -0.194128
vn 0.9357009 0.207367 0.285417
v 3.5429E-05 0.272134 -0.263317
vn 0.0002379511 -0.1583101 -0.9873894
v 0.0299388 0.288588 -0.240671
vn 0.881461 0.369808 -0.293715
v -0.0298679 0.288588 -0.240671
vn -0.8812177 0.3701899 -0.2939639
v 3.5429E-05 0.305567 -0.217301
vn 0.000264801 0.8859169 0.4638439
v 0 0.179072 -0.160974
vn -0.0003417652 -0.8068134 0.5908063
v 0 0.30745 -0.254246
vn -0.0003415598 0.8112087 -0.5847567
v 0.114162 0.494241 -0.0286823
vt 0.849367 0.887025
vn 0.5521511 0.6228041 -0.5542961
v 0.168481 0.394326 -0.0186475
vn 0.8508499 0 -0.5254089
v 0.0705559 0.394326 -0.0992382
vn 0.3593718 0 -0.9331945
v 0 0.232661 0.0149236
vn 0 -0.9470531 -0.321077
v 0.104127 0.246871 0.0854795
vn 0.4811748 -0.8766247 0
v 0 0.232661 0.156035
vn 0 -0.9470531 0.321077
v 0 0.303194 0.25396
vn 0 -0.5706042 0.8212252
v -0.114162 0.294412 0.199641
vn -0.5521511 -0.6228041 0.5542961
v -0.114162 0.294412 -0.0286823
vn -0.5521511 -0.6228041 -0.5542961
v -0.104127 0.246871 0.0854795
vn -0.4811748 -0.8766247 0
v -0.184718 0.332576 0.0854795
vn -0.919889 -0.392179 0
v -0.0705559 0.394326 -0.0992382
vn -0.3593718 0 -0.9331945
v 0 0.303194 -0.0830014
vn 0 -0.5706037 -0.8212256
v 0 0.555992 0.0149236
vn 0 0.9470528 -0.3210779
v 0 0.485459 -0.0830014
vn 0 0.570603 -0.821226
v -0.114162 0.494241 -0.0286823
vn -0.5521511 0.6228041 -0.5542961
v 0 0.555992 0.156035
vn 0 0.9470531 0.321077
v 0.104127 0.541782 0.0854795
vn 0.4811748 0.8766247 0
v -0.0705559 0.394326 0.270197
vn -0.3593709 0 0.9331948
v 0 0.485459 0.25396
vn 0 0.5706042 0.8212252
v -0.114162 0.494241 0.199641
vn -0.5521508 0.6228047 0.5542958
v -0.104127 0.541782 0.0854795
vn -0.4811748 0.8766247 0
v -0.168481 0.394326 -0.0186475
vn -0.8508499 0 -0.5254089
v 0.184718 0.332576 0.0854795
vn 0.919889 -0.392179 0
v 0.114162 0.294412 -0.0286823
vn 0.5521511 -0.6228041 -0.5542961
v 0.184718 0.456077 0.0854795
vn 0.919889 0.392179 0
v 0.114162 0.294412 0.199641
vn 0.5521508 -0.6228047 0.5542958
v 0.0705559 0.394326 0.270197
vn 0.3593709 0 0.9331948
v 0.114162 0.494241 0.199641
vn 0.5521508 0.6228047 0.5542958
v -0.184718 0.456077 0.0854795
vn -0.919889 0.392179 0
v 0 0.333349 0.308113
vt 0.0571712 0.117864
vn 0 0.8147261 0.5798461
v -0.0331877 0.346036 0.261584
vn -0.5963771 0.7300091 0.333798
v -0.0497151 0.30138 0.304811
vn -0.8555759 0.14086 0.498145
v 0.0331877 0.346036 0.261584
vn 0.5963777 0.7300087 0.3337978
v 0.0497151 0.30138 0.304811
vn 0.8555759 0.14086 0.498145
v 0 0.300818 0.337963
vn 0 0.4230031 0.9061283
v -0.0746442 0.297448 0.218424
vn -0.7755134 -0.6313223 0.003344452
v 0 0.269775 0.207377
vn 0 -0.989776 -0.142631
v -0.0306237 0.266776 0.295232
vn -0.3783759 -0.9140449 0.146129
v 0.0746442 0.297448 0.218424
vn 0.7755129 -0.6313229 0.00334471
v 0.0306237 0.266776 0.295232
vn 0.3783759 -0.9140449 0.146129
v 0 0.283822 0.334008
vn 0 -0.6626273 0.7489493
v 0 0.0994723 -0.160034
vt 1 0.618211
vn 0 -0.11734 -0.9930918
v -0.0622132 0.163518 -0.136992
vt 0.921214 1.05617
vn -0.505827 0.42166 -0.7525569
v 0.0622132 0.163518 -0.136992
vn 0.5000211 0.4284161 -0.7526211
vt 0.226718 0.889992
v 0.0581178 0.213205 -0.0707816
vn 0.421466 0.857567 -0.294865
v -0.0581178 0.213205 -0.0707816
vn -0.4262271 0.8567631 -0.290323
v -0.116236 0.111148 -0.0589887
vn -0.9722287 -0.02527569 -0.2326639
v -0.0622132 0.0391699 -0.121798
vt 0.869262 0.205844
vn -0.4983559 -0.598231 -0.6275039
vt 0.654508 0.698056
v -0.0581178 0.00909209 -0.0471959
vt 0.622974 -0.0490483
vn -0.4321668 -0.8977175 -0.08564565
v 0.0622132 0.0391699 -0.121798
vn 0.5040981 -0.5915411 -0.6292571
v 0.0581178 0.00909209 -0.0471959
vn 0.4370618 -0.8957126 -0.08170756
v 0.116236 0.111148 -0.0589887
vn 0.9722287 -0.02527599 -0.2326639
v 0 0.229255 0.0347414
vn 0 0.9908059 0.135291
v 0.100663 0.180514 0.0245807
vn 0.8416049 0.51617 0.158965
v -0.100663 0.180514 0.0245806
vn -0.8416042 0.5161711 0.158965
v -0.100663 0.0626695 0.0381978
vt 0.344927 0.406001
vn -0.8431015 -0.4634757 0.2727089
v 0 0.0145928 0.0544962
vt 0.2508 -0.149312
vn 0 -0.9360109 0.351971
v 0.100663 0.0626695 0.0381978
vn 0.8431012 -0.4634761 0.2727091
v 0.0359188 0.193115 0.0972182
vn 0.382889 0.696472 0.606896
v -0.0359188 0.193115 0.0972182
vn -0.382889 0.696472 0.606896
v -0.0718376 0.130041 0.104507
vn -0.7408618 0.07709867 0.6672178
vt 0.160519 0.799127
v -0.0359188 0.0669663 0.111795
vt 0.0705713 0.395925
vn -0.3780638 -0.5480618 0.7461206
v 0.0359188 0.0669663 0.111795
vn 0.3780638 -0.5480618 0.7461206
v 0.0718376 0.130041 0.104507
vn 0.7408618 0.07709848 0.6672179
v 0 0.133268 0.132435
vn 0 0.114789 0.9933899
vt 0 0.849315
v -0.163525 0.0895786 -0.02776
vt 0.0491317 0.118843
vn 0 0.9966356 -0.08195987
v -0.113571 0.0594867 -0.02776
vn 0.9289861 0.365353 -0.05917691
v -0.163525 0.0709421 -0.0986656
vn 0 0.9072911 -0.4205031
v -0.128202 0.0424127 -0.0986656
vn 0.8847708 -0.0165692 -0.4657319
v -0.132652 0.0107969 -0.02776
vn 0.533025 -0.8460169 -0.0118219
v -0.163525 0.015235 -0.0986656
vn 0 -0.9243131 -0.3816351
v -0.194398 0.0107969 -0.02776
vn -0.533025 -0.8460169 -0.0118219
v -0.198847 0.0424127 -0.0986656
vn -0.8847708 -0.0165689 -0.4657319
v -0.213478 0.0594867 -0.02776
vn -0.9289861 0.365353 -0.05917691
v -0.141694 0.0709421 0.0293579
vn 0.4736858 0.7640737 0.4379648
v -0.185355 0.0709421 0.0293579
vn -0.4736858 0.7640737 0.4379648
v -0.128202 0.0365132 0.0293579
vn 0.8230957 -0.3129279 0.4739088
v -0.163525 0.015235 0.0293579
vn 0 -0.9081076 0.4187368
v -0.198847 0.0365132 0.0293579
vn -0.8230957 -0.3129279 0.4739088
v -0.163525 0.0425878 -0.122325
vn 0 0.005226672 -0.9999864
v -0.163525 0.0460291 0.0530169
vn 0 0.001006169 0.9999995
v 0.163525 0.0895786 -0.02776
v 0.163525 0.0709421 -0.0986656
v 0.113571 0.0594867 -0.02776
v 0.128202 0.0424127 -0.0986656
v 0.132652 0.0107969 -0.02776
v 0.163525 0.015235 -0.0986656
v 0.194398 0.0107969 -0.02776
v 0.198847 0.0424127 -0.0986656
v 0.213478 0.0594866 -0.02776
v 0.141694 0.0709421 0.0293579
v 0.185355 0.0709421 0.0293579
v 0.128202 0.0365132 0.0293579
v 0.163525 0.015235 0.0293579
v 0.198847 0.0365132 0.0293579
v 0.163525 0.0425878 -0.122325
v 0.163525 0.0460291 0.0530169
o merged_0_0_node
g polygon_0
usemtl mat_body_mat_id
f 1/1/1 2/1/2 3/1/3
f 3/1/3 2/1/2 4/1/4
f 2/1/2 5/1/5 4/1/4
f 4/1/4 5/1/5 6/1/6
f 5/1/5 7/1/7 6/1/6
f 6/1/6 7/1/7 8/1/8
f 8/1/8 7/1/7 9/1/9
f 7/1/7 1/1/1 9/1/9
f 9/1/9 1/1/1 3/1/3
f 4/1/4 10/1/10 3/1/3
f 3/1/3 10/1/10 11/1/11
f 6/1/6 12/1/12 4/1/4
f 4/1/4 12/1/12 10/1/10
f 8/1/8 13/1/13 6/1/6
f 6/1/6 13/1/13 12/1/12
f 9/1/9 13/1/13 8/1/8
f 3/1/3 11/1/11 9/1/9
f 9/1/9 11/1/11 13/1/13
f 2/1/2 1/1/1 14/1/14
f 5/1/5 2/1/2 14/1/14
f 7/1/7 5/1/5 14/1/14
f 1/1/1 7/1/7 14/1/14
f 11/1/11 10/1/10 15/1/15
f 10/1/10 12/1/12 15/1/15
f 12/1/12 13/1/13 15/1/15
f 13/1/13 11/1/11 15/1/15
f 16/2/16 17/2/17 18/2/18
f 19/2/19 20/2/20 21/2/21
f 21/2/21 22/2/22 23/2/23
f 24/2/24 25/2/25 26/2/26
f 27/2/27 28/2/28 24/2/24
f 29/2/29 30/2/30 31/2/31
f 32/2/32 33/2/33 29/2/29
f 34/2/34 35/2/35 36/2/36
f 29/2/29 37/2/37 32/2/32
f 24/2/24 38/2/38 27/2/27
f 39/2/39 40/2/40 17/2/17
f 17/2/17 40/2/40 18/2/18
f 41/2/41 17/2/17 16/2/16
f 39/2/39 17/2/17 41/2/41
f 39/2/39 42/2/42 20/2/20
f 20/2/20 42/2/42 21/2/21
f 40/2/40 20/2/20 19/2/19
f 39/2/39 20/2/20 40/2/40
f 43/2/43 34/2/34 22/2/22
f 22/2/22 34/2/34 23/2/23
f 42/2/42 22/2/22 21/2/21
f 43/2/43 22/2/22 42/2/42
f 21/2/21 23/2/23 25/2/25
f 25/2/25 23/2/23 26/2/26
f 19/2/19 25/2/25 24/2/24
f 21/2/21 25/2/25 19/2/19
f 40/2/40 19/2/19 28/2/28
f 28/2/28 19/2/19 24/2/24
f 18/2/18 28/2/28 27/2/27
f 40/2/40 28/2/28 18/2/18
f 18/2/18 27/2/27 30/2/30
f 30/2/30 27/2/27 31/2/31
f 16/2/16 30/2/30 29/2/29
f 18/2/18 30/2/30 16/2/16
f 41/2/41 16/2/16 33/2/33
f 33/2/33 16/2/16 29/2/29
f 44/2/44 33/2/33 32/2/32
f 41/2/41 33/2/33 44/2/44
f 44/2/44 32/2/32 35/2/35
f 35/2/35 32/2/32 36/2/36
f 43/2/43 35/2/35 34/2/34
f 44/2/44 35/2/35 43/2/43
f 45/2/45 36/2/36 37/2/37
f 37/2/37 36/2/36 32/2/32
f 31/2/31 37/2/37 29/2/29
f 45/2/45 37/2/37 31/2/31
f 45/2/45 31/2/31 38/2/38
f 38/2/38 31/2/31 27/2/27
f 26/2/26 38/2/38 24/2/24
f 45/2/45 38/2/38 26/2/26
f 46/3/46 47/3/47 48/3/48
f 46/3/46 49/3/49 47/3/47
f 49/3/49 46/3/46 50/3/50
f 46/3/46 48/3/48 51/3/51
f 52/3/52 53/3/53 54/3/54
f 55/3/55 56/3/56 53/3/53
f 53/3/53 56/3/56 54/3/54
f 56/3/56 57/3/57 54/3/54
f 50/3/50 46/3/46 51/3/51
f 47/3/47 52/3/52 48/3/48
f 48/3/48 52/3/52 54/3/54
f 49/3/49 50/3/50 55/3/55
f 55/3/55 50/3/50 56/3/56
f 51/3/51 48/3/48 57/3/57
f 57/3/57 48/3/48 54/3/54
f 56/3/56 50/3/50 57/3/57
f 57/3/57 50/3/50 51/3/51
f 58/4/58 59/5/59 60/5/60
f 60/6/60 59/6/59 61/6/61
f 61/6/61 59/6/59 62/6/62
f 62/6/62 59/6/59 63/6/63
f 59/5/59 64/7/64 63/8/63
f 63/8/63 64/7/64 65/9/65
f 58/4/58 66/7/66 64/7/64
f 64/7/64 66/7/66 65/9/65
f 65/9/65 66/7/66 67/9/67
f 67/9/67 66/7/66 68/8/68
f 66/7/66 60/5/60 68/8/68
f 68/6/68 60/6/60 61/6/61
f 62/6/62 69/6/69 61/6/61
f 61/6/61 69/6/69 70/6/70
f 63/6/63 71/6/71 62/6/62
f 62/6/62 71/6/71 69/6/69
f 65/9/65 72/10/72 63/8/63
f 63/6/63 72/6/72 71/6/71
f 67/9/67 73/11/73 65/9/65
f 65/9/65 73/11/73 72/10/72
f 68/8/68 74/10/74 67/9/67
f 67/9/67 74/10/74 73/11/73
f 61/6/61 70/6/70 68/6/68
f 68/6/68 70/6/70 74/6/74
f 70/6/70 69/6/69 75/6/75
f 75/6/75 69/6/69 76/6/76
f 69/6/69 71/6/71 76/6/76
f 76/6/76 71/6/71 77/6/77
f 71/6/71 72/6/72 77/6/77
f 77/12/77 72/10/72 78/13/78
f 72/10/72 73/11/73 78/13/78
f 78/13/78 73/11/73 79/13/79
f 73/11/73 74/10/74 79/13/79
f 79/13/79 74/10/74 80/12/80
f 74/6/74 70/6/70 80/6/80
f 80/6/80 70/6/70 75/6/75
f 64/7/64 59/5/59 58/4/58
f 60/5/60 66/7/66 58/4/58
f 75/6/75 76/6/76 81/6/81
f 76/6/76 77/6/77 81/6/81
f 77/12/77 78/13/78 81/14/81
f 78/13/78 79/13/79 81/14/81
f 79/13/79 80/12/80 81/14/81
f 80/6/80 75/6/75 81/6/81
f 82/15/82 83/15/83 84/15/84
f 84/15/84 83/15/83 85/15/85
f 83/15/83 86/15/86 85/15/85
f 85/15/85 86/15/86 87/15/87
f 86/15/86 88/15/88 87/15/87
f 87/15/87 88/15/88 89/15/89
f 88/15/88 90/15/90 89/15/89
f 89/15/89 90/15/90 84/15/84
f 90/15/90 82/15/82 84/15/84
f 83/15/83 82/15/82 91/15/91
f 82/15/82 92/15/92 91/15/91
f 86/15/86 83/15/83 93/15/93
f 83/15/83 91/15/91 93/15/93
f 88/15/88 86/15/86 94/15/94
f 86/15/86 93/15/93 94/15/94
f 90/15/90 88/15/88 95/15/95
f 88/15/88 94/15/94 95/15/95
f 82/15/82 90/15/90 92/15/92
f 90/15/90 95/15/95 92/15/92
f 85/15/85 96/15/96 84/15/84
f 87/15/87 96/15/96 85/15/85
f 89/15/89 96/15/96 87/15/87
f 84/15/84 96/15/96 89/15/89
f 92/15/92 97/15/97 91/15/91
f 91/15/91 97/15/97 93/15/93
f 93/15/93 97/15/97 94/15/94
f 94/15/94 97/15/97 95/15/95
f 95/15/95 97/15/97 92/15/92
f 98/15/82 99/15/84 100/15/90
f 99/15/84 101/15/89 100/15/90
f 100/15/90 101/15/89 102/15/88
f 101/15/89 103/15/87 102/15/88
f 102/15/88 103/15/87 104/15/86
f 103/15/87 105/15/85 104/15/86
f 104/15/86 105/15/85 106/15/83
f 105/15/85 99/15/84 106/15/83
f 106/15/83 99/15/84 98/15/82
f 100/15/90 107/15/92 98/15/82
f 98/15/82 107/15/92 108/15/91
f 102/15/88 109/15/95 100/15/90
f 100/15/90 109/15/95 107/15/92
f 104/15/86 110/15/94 102/15/88
f 102/15/88 110/15/94 109/15/95
f 106/15/83 111/15/93 104/15/86
f 104/15/86 111/15/93 110/15/94
f 98/15/82 108/15/91 106/15/83
f 106/15/83 108/15/91 111/15/93
f 101/15/89 99/15/84 112/15/96
f 103/15/87 101/15/89 112/15/96
f 105/15/85 103/15/87 112/15/96
f 99/15/84 105/15/85 112/15/96
f 108/15/91 107/15/92 113/15/97
f 107/15/92 109/15/95 113/15/97
f 109/15/95 110/15/94 113/15/97
f 110/15/94 111/15/93 113/15/97
f 111/15/93 108/15/91 113/15/97
vt 1.13211 0.784014
v 0.168481 0.394326 0.189606
vt 0.560421 0.865283
vn 0.8508499 0 0.5254089
vt 0.35078 0.731466
vt 0.35078 1.00875
v -0.168481 0.394326 0.189606
vn -0.8508499 0 0.5254089
vt -0.132107 0.870363
vt 1.13211 0.955387
o merged_1_0_node
g polygon_0
usemtl TEX_ANIM_EYE_mat_id
f 39/16/39 114/17/98 42/18/42
f 36/19/36 115/17/99 34/20/34
f 44/19/44 43/20/43 114/17/98
f 114/17/98 43/20/43 42/18/42
f 41/21/41 114/17/98 39/16/39
f 44/19/44 114/17/98 41/21/41
f 26/16/26 23/18/23 115/17/99
f 115/17/99 23/18/23 34/20/34
f 45/21/45 115/17/99 36/19/36
f 26/16/26 115/17/99 45/21/45
