mtllib Herdier.mtl
v 0 0.475934 0.369503
vt 0.242927 0.38597
vn -0.1251089 0.04722348 0.9910185
v -0.183602 0.575076 0.273588
vt 0.0905659 0.427106
vn -0.521472 0.6227331 0.5833271
v -0.134754 0.509493 0.285538
vt 0.131102 0.399894
vn -0.8422847 -0.2567979 0.4739318
v -0.048011 0.522056 0.292592
vt 0.203085 0.405107
vn -0.4309551 0.9012603 0.04480751
v -0.155561 0.503172 0.278502
vt 0.113836 0.397272
vn -0.45368 -0.732694 -0.507281
v -0.0166326 0.698906 0.25865
vt 0.229125 0.478486
vn -0.8169643 0.5739272 0.05636332
v -0.0476087 0.438009 0.301229
vt 0.210999 0.367437
vn -0.630922 -0.6033229 0.4877899
v 0.0231593 0.588984 0.297951
vt 0.255595 0.432877
vn 0.7086097 0.4233188 -0.5645118
v 0 0.435815 0.343232
vt 0.242927 0.369324
vn 0 -0.20363 0.9790479
v 0.0417206 0.618028 0.28026
vt 0.277758 0.448724
vn 0.8432353 0.1805971 0.5062992
v 0.0476087 0.438009 0.301229
vt 0.274856 0.367437
vn 0.630922 -0.6033229 0.4877899
v 0.048011 0.522056 0.292592
vt 0.282769 0.405107
vn 0.171206 0.9584808 -0.2280419
v 0.155561 0.503172 0.278502
vt 0.372019 0.397272
vn 0.45368 -0.732694 -0.507281
v 0.183602 0.575076 0.273588
vt 0.395288 0.427106
vn 0.5214731 0.6227331 0.5833261
v 0.134754 0.509493 0.285538
vt 0.354752 0.399894
vn 0.8422847 -0.2567979 0.4739318
v 0.0476087 0.397296 0.307266
vt 0.274856 0.353341
vn 0.6480707 0.5753707 0.4989518
v -0.0476087 0.397296 0.307266
vt 0.210999 0.353341
vn -0.6480707 0.5753707 0.4989518
v 0 0.402971 0.343232
vt 0.242927 0.355696
vn 0 0.6052799 0.7960128
v 0.0376493 0.387202 0.371351
vt 0.27417 0.349153
vn 0.4382331 0.4653992 0.7689963
v 0.103729 0.357049 0.294431
vt 0.329006 0.336642
vn 0.8169765 0.3529142 -0.4560713
v -0.0376493 0.387202 0.371351
vt 0.211684 0.349153
vn -0.438233 0.4654 0.7689959
v -0.103729 0.357049 0.294431
vt 0.156848 0.336642
vn -0.8169762 0.3529151 -0.4560711
v 0.139658 0.300967 0.321827
vt 0.358821 0.313372
vn 0.7525651 -0.05377921 -0.6563181
v 0.117843 0.301609 0.327623
vt 0.340719 0.313638
vn 0.9801207 -0.1887709 -0.06106488
v 0.135156 0.244885 0.349223
vt 0.355086 0.290103
vn 0.5262611 -0.8501342 -0.0179226
v 0 0.368477 0.382771
vt 0.242927 0.341384
vn 0 0.04775191 0.9988592
v -0.139658 0.300967 0.321827
vt 0.127033 0.313372
vn -0.7525651 -0.05377921 -0.6563181
v 0 0.297623 0.304853
vt 0.242927 0.311985
vn 0 -0.8970117 -0.4420069
v -0.135156 0.244885 0.349223
vt 0.130769 0.290103
vn -0.5262611 -0.8501342 -0.0179215
v 0.0298404 0.307091 0.366354
vt 0.26769 0.315913
vn -0.136175 -0.646583 0.750591
v -0.0298404 0.307091 0.366354
vt 0.218164 0.315913
vn 0.136175 -0.646583 0.750591
v 0 0.303576 0.369503
vt 0.242927 0.314455
vn 0 -0.467952 0.8837539
v -0.117843 0.301609 0.327623
vt 0.145136 0.313638
vn -0.9801208 -0.1887709 -0.06106459
v 0.0164373 0.267229 0.351244
vt 0.256568 0.299374
vn 0.1791791 -0.9507275 -0.2530062
v -0.0164373 0.267229 0.351244
vt 0.229287 0.299374
vn -0.17918 -0.9507269 -0.253008
v 0 0.0707578 0.00904845
vt 0.742893 0.533207
vn 0 -0.9999419 0.0107771
v -0.130889 0.08875714 0.06586922
vt 0.69958 0.607466
vn -0.583422 -0.7735969 -0.2473189
v -0.130889 0.08229795 -0.03889713
vt 0.779442 0.580822
vn -0.5238662 -0.8159325 0.2445778
v -0.133201 -1.286134E-05 0.1571964
vt 0.629965 0.262834
vn -0.1708133 -0.7914889 0.5868289
v -0.133201 -1.473622E-05 -0.1629721
vt 0.874018 0.262834
vn -0.07359546 -0.8867661 -0.4563218
v 0 0.09024593 0.2172603
vt 0.584181 0.613618
vn 0 -0.4272788 0.9041199
v 0 0.09067545 -0.2160572
vt 0.914483 0.615392
vn 0 -0.523114 -0.8522627
v 0.133201 -1.286134E-05 0.1571964
vn 0.1708133 -0.7914889 0.5868289
v 0.133201 -1.473622E-05 -0.1629721
vn 0.07359557 -0.8867661 -0.4563218
v 0.130889 0.08875714 0.06586932
vn 0.583422 -0.7735969 -0.2473189
v 0.130889 0.08229795 -0.03889713
vn 0.5238662 -0.8159325 0.2445778
v -0.1601 0.1135256 0.1423041
vt 0.641318 0.652576
vn -0.643266 -0.1065464 0.7581931
v 0 0.1135254 -0.2160553
vt 0.914479 0.709654
vn 0 0.1384399 -0.9903709
v -0.1601 0.1135254 -0.1299822
vt 0.84887 0.710443
vn -0.8301558 -0.1461562 -0.5380334
v 0.1601 0.1135256 0.1423041
vn 0.6432653 -0.1065475 0.7581936
v 0 0.1657432 0.2161869
vt 0.584997 0.925051
vn 0 0.06412783 0.9979417
v 0 0.247841 0.204802
vt 0.593675 0.960115
vn 0 0.137353 0.9905221
v 0.1601 0.1135254 -0.1299812
vn 0.830156 -0.1461573 -0.5380326
v -0.119072 0.247841 -0.108381
vt 0.807471 0.0810268
vn -0.5325831 0.8030331 -0.267382
v -0.0943229 0.1135254 -0.1730187
vt 0.854437 0.0404282
vn -0.4468029 0.3858711 -0.8071373
vt 0.824974 0.0396267
vn -0.8438069 0.3835292 -0.3753602
v 0 0.247841 -0.179055
vt 0.85302 0.0810268
vn 0 0.8229851 -0.5680631
v -0.1601 0.113527 -0.0392196
vt 0.761222 0.0363212
vn -0.9552514 0.2957951 0
v 0 0.266752 0.0740555
vt 0.689892 0.0871208
vn 0 0.9998744 0.01584791
v -0.1601 0.113527 0.0515423
vt 0.704358 0.036111
v -0.119072 0.247841 0.131562
vt 0.65283 0.0810268
vn -0.648275 0.736246 0.194117
v -0.166979 0.05806805 -0.1780828
vt 0.862607 0.0247503
vn -0.4288298 0.6216913 -0.6554425
vt 0.882816 0.0407601
vn 0 0.3764491 -0.9264373
v -0.0998577 0.05473511 -0.2287694
vt 0.895827 0.0242601
vn -0.3082585 0.6697085 -0.6756236
v -0.183812 0.04129926 -0.0366667
vt 0.761258 0.0135245
vn -0.9501062 0.3119265 -1.453771E-08
v -0.183812 0.04129915 -0.1274302
vt 0.819703 0.0135294
vt 0.605627 0.0810268
vn 0 0.8713928 0.4905859
v 0.119072 0.247841 -0.108381
vn 0.5325831 0.8030331 -0.267382
v 0.119072 0.247841 0.131562
vn 0.648275 0.736246 0.194117
v 0.0943229 0.1135254 -0.1730187
vn 0.4468037 0.3858709 -0.807137
v 0.0998577 0.05473511 -0.2287694
vn 0.3082585 0.6697085 -0.6756236
vt 0.643435 0.0389872
vn -0.881953 0.3591749 0.3052085
v -0.183812 0.04129956 0.0540935
vt 0.702764 0.0135254
vn -0.9501064 0.3119261 -1.471188E-08
v 0.0894301 0.170931 0.172791
vt 0.624665 0.0570594
vn 0.5578779 0.305326 0.7717178
v -0.0894301 0.170931 0.172791
vn -0.5578779 0.305326 0.7717178
v 0.0590274 0.148152 0.2202959
vt 0.590966 0.0514711
vn 0.6256022 0.4674971 0.6245547
v -0.0590275 0.148152 0.2202959
vn -0.6256022 0.4674971 0.6245547
vn 0.8438069 0.3835292 -0.3753602
v 0.1601 0.113527 0.0515423
vn 0.9552514 0.2957951 0
v 0.1601 0.113527 -0.0392196
vn 0.8819534 0.3591741 0.3052086
v 0.155057 0.06630243 0.1840226
vt 0.615 0.0245885
vn 0.642059 0.4679249 0.6072945
v -0.155057 0.06630243 0.1840226
vn -0.642059 0.4679249 0.6072945
v 0.16698 0.05806805 -0.1780828
vn 0.4288298 0.6216913 -0.6554425
v 0.183812 0.04129926 -0.0366667
vn 0.9501059 0.3119274 -1.453775E-08
v 0.183812 0.04129925 -0.1274292
v 0.183812 0.04129945 0.0540936
vn 0.950106 0.311927 -1.471192E-08
v 0.125971 0.563027 0.0476049
vt 0.3419 0.909455
vn 0.4120158 0.5028088 -0.7598857
v 0.211303 0.752229 0.120634
vt 0.368424 0.953999
vn 0.5474832 0.8043022 0.2309981
v 0.1913 0.494161 0.134026
vt 0.392848 0.88401
vn 0.9731385 0.1926699 0.1260149
v 0.0864591 0.585906 0.16259
vt 0.312701 0.917909
vn 0.1637501 0.8840434 0.4377822
v 0.185909 0.422889 0.0298583
vt 0.386193 0.857676
vn 0.827204 0.05001871 -0.559671
v 0 0.606778 0.0616362
vt 0.24881 0.925621
vn 0 0.941969 -0.3357
v 0.0778544 0.421977 -0.0427798
vt 0.306343 0.857339
vn 0.339275 0.06102259 -0.9387059
v 0 0.525607 -0.0280935
vt 0.24881 0.895629
vn 0 0.4838661 -0.8751421
v 0.125971 0.303956 0.0210167
vt 0.3419 0.815728
vn 0.5465117 -0.6069167 -0.5770416
v 0.197501 0.339506 0.135599
vt 0.39476 0.832211
vn 0.922192 -0.38568 0.0285087
v -0.125971 0.563027 0.0476049
vt 0.155719 0.909455
vn -0.4120162 0.5028092 -0.7598853
v 0 0.598293 0.230263
vt 0.24881 0.922486
vn 0 0.9116452 0.4109781
v -0.0864591 0.585906 0.16259
vt 0.184918 0.917909
vn -0.1637501 0.8840434 0.4377822
v 0 0.318715 -0.0338458
vt 0.24881 0.819184
vn 0 -0.46146 -0.887161
v -0.0778544 0.421977 -0.0427798
vt 0.191277 0.857339
vn -0.339275 0.06102249 -0.9387059
v 0.155701 0.443098 0.260648
vt 0.366435 0.86906
vn 0.7569286 0.1281879 0.6408017
v 0.125971 0.530088 0.263095
vt 0.3419 0.897285
vn 0.5717179 0.5285369 0.6275249
v -0.211303 0.752229 0.120634
vt 0.129195 0.953999
vn -0.547484 0.804302 0.230997
v -0.125971 0.530088 0.263095
vt 0.155719 0.897285
vn -0.5717179 0.5285369 0.6275249
v -0.1913 0.494161 0.134026
vt 0.104771 0.88401
vn -0.9731385 0.1926699 0.1260149
v 0 0.251477 0.0458251
vt 0.24881 0.79434
vn 0 -0.9210755 -0.3893842
v 0.102234 0.256506 0.140251
vt 0.324359 0.796198
vn 0.464881 -0.88512 0.0211728
v -0.185909 0.422889 0.0298583
vt 0.111426 0.857676
vn -0.827204 0.0500186 -0.559671
v -0.125971 0.303956 0.0210167
vt 0.155719 0.815728
vn -0.5465117 -0.6069167 -0.5770416
v 0.163391 0.351744 0.25212
vt 0.369553 0.831388
vn 0.7783519 -0.4265999 0.4606309
v 0.102244 0.357048 0.294483
vt 0.305213 0.833348
vn 0.48225 -0.190208 0.855135
v 0 0.514219 0.315657
vt 0.24881 0.891421
vn 0 0.3859189 0.9225327
v 0 0.414451 0.321878
vt 0.24881 0.858211
vn 0 0.104843 0.9944888
v -0.102234 0.256506 0.140251
vt 0.17326 0.796198
vn -0.464881 -0.88512 0.0211728
v 0 0.241816 0.170179
vt 0.24881 0.79077
vn 0 -0.9979802 0.06352492
v -0.197501 0.339506 0.135599
vt 0.10286 0.832211
vn -0.922192 -0.38568 0.0285087
v 0.0480717 0.266014 0.260867
vt 0.284334 0.799711
vn 0.3393159 -0.8467997 0.4096279
v 0.0343758 0.320419 0.337286
vt 0.274213 0.819813
vn 0.2985491 -0.7513992 0.5884452
v -0.155701 0.443098 0.260648
vt 0.131185 0.86906
vn -0.7569286 0.1281879 0.6408017
v -0.0480717 0.266014 0.260867
vt 0.213285 0.799711
vn -0.346971 -0.84605 0.404735
v -0.163391 0.351744 0.25212
vt 0.128066 0.831388
vn -0.7783519 -0.4265999 0.4606309
v -0.0343758 0.320419 0.337286
vt 0.223406 0.819813
vn -0.3296168 -0.7402056 0.5860447
v -0.102244 0.357048 0.294483
vt 0.192406 0.833348
vn -0.48225 -0.190208 0.855135
v 0.292324 0.422881 0.0299701
vt 0.459579 0.856048
vn 0.9949279 0.0885772 0.04767209
v 0.189279 0.424542 0.138131
vt 0.385282 0.856647
vn 0.6770492 0.3643191 0.6394342
v 0.187151 0.3346 0.143905
vt 0.383748 0.824223
vn 0.781873 -0.548128 0.297036
v 0.188059 0.404016 0.054463
vt 0.384403 0.849248
vn -0.2840569 0.6158448 -0.7348788
v 0.164318 0.349761 0.0711089
vt 0.367285 0.829688
vn 0.3384079 -0.8357347 -0.4324669
v -0.292324 0.422881 0.0299701
vt 0.03804 0.856048
vn -0.9949279 0.08857789 0.04767049
v -0.187151 0.3346 0.143905
vt 0.113872 0.824223
vn -0.7818732 -0.5481282 0.2970351
v -0.189279 0.424542 0.138131
vt 0.112337 0.856647
vn -0.6770489 0.36432 0.6394339
v -0.164318 0.349761 0.0711089
vt 0.130334 0.829688
vn -0.338408 -0.8357351 -0.432466
v -0.188059 0.404016 0.054463
vt 0.113217 0.849248
vn 0.2840569 0.6158448 -0.7348788
v 0 0.356454 -0.206184
vt 0.706975 0.204814
v 0 0.441083 -0.282503
vt 0.909975 0.232223
vn 0 0.6697068 0.7426257
v -0.0371497 0.337769 -0.250162
vt 0.756452 0.168326
vn -0.7894719 0.240011 0.5649149
v 0.0371497 0.337769 -0.250162
vn 0.7894719 0.240011 0.5649149
v 0 0.242771 -0.198248
vt 0.580908 0.120669
vn 0 0.06412779 0.9979417
v 0.020574 0.299418 -0.238578
vt 0.700115 0.144397
vn 0.8581138 0.3505809 0.3751449
v 0 0.276901 -0.262673
vt 0.714934 0.114888
vn 0 -0.6827821 -0.7306221
v 0 0.343486 -0.292368
vt 0.827601 0.15164
vn 0 0.812432 -0.583056
vn 0 -0.6366549 0.7711489
v -0.020574 0.299418 -0.238578
vn -0.8581135 0.3505812 0.3751452
v 0.247313 0.612691 0.121397
vt 0.427126 0.924476
vn 0.7772222 0.6286532 0.02685091
v 0.161482 0.515445 0.100363
vt 0.36524 0.889418
vn -0.05773026 0.2594689 -0.9640244
v 0.152923 0.524155 0.144161
vt 0.359069 0.892558
vn -0.384511 0.592037 0.708268
v 0.190951 0.494116 0.133965
vt 0.386488 0.881729
vn 0.8842776 -0.3937098 0.2510889
v -0.247313 0.612691 0.121397
vt 0.0704935 0.924476
vn -0.7772189 0.6286569 0.0268563
v -0.152923 0.524155 0.144161
vt 0.13855 0.892558
vn 0.384511 0.592037 0.708268
v -0.161482 0.515445 0.100363
vt 0.132379 0.889418
vn 0.05773222 0.2594691 -0.9640243
v -0.190951 0.494116 0.133965
vt 0.111131 0.881729
vn -0.8842771 -0.3937091 0.251092
v 0.250051 0.347479 0.0140527
vt 0.4291 0.828865
vn 0.8038175 -0.2446589 -0.5422357
v 0.174881 0.360603 0.0696083
vt 0.374901 0.833597
vn 0.4552539 0.7784999 0.4320669
v 0.124113 0.286173 0.10216
vt 0.338297 0.806764
vn 0.4954448 -0.8618367 0.108499
v 0.12486 0.303851 0.0212672
vt 0.338835 0.813137
vn 0.2561909 -0.8198237 -0.5121088
v 0.101702 0.256022 -0.0322315
vt 0.322138 0.795895
vn -0.1629869 -0.9180757 0.3613479
v 0.0885757 0.334052 0.00607388
vt 0.312674 0.824025
vn 0.288271 0.4606009 -0.8394919
v 0.128079 0.310062 0.0287799
vt 0.341156 0.815377
vn 0.5247318 -0.7370276 0.4259658
v 0.0354603 0.309722 -0.0038183
vt 0.274377 0.815254
vn -0.6711929 -0.7020619 -0.237927
v 0 0.252755 -0.0759626
vt 0.24881 0.794717
vn 0.0002933819 -0.9894545 0.1448439
v 0 0.330786 -0.0254072
vt 0.24881 0.822847
vn -0.000538638 0.543744 -0.839251
v 0.0422497 0.307246 -0.00503252
vt 0.279272 0.814361
vn 0.5979571 -0.7669172 0.2329921
v -0.0422425 0.3072 -0.005
vt 0.218352 0.814345
vn -0.597185 -0.767425 0.2333
v -0.104387 0.256022 -0.0312839
vt 0.173545 0.795895
vn 0.157488 -0.9185488 0.3625819
v -0.128079 0.310062 0.0287799
vt 0.156463 0.815377
vn -0.505064 -0.731151 0.458616
v -0.0885757 0.334052 0.00607388
vt 0.184945 0.824025
vn -0.2797358 0.4601067 -0.8426445
v -0.0354603 0.309722 -0.0038183
vt 0.223242 0.815254
vn 0.6569358 -0.7001028 -0.2798059
v -0.250051 0.347479 0.0140527
vt 0.0685199 0.828865
vn -0.8038171 -0.2446591 -0.5422361
v -0.124113 0.286173 0.10216
vt 0.159323 0.806764
vn -0.4954448 -0.8618367 0.108499
v -0.174881 0.360603 0.0696083
vt 0.122718 0.833597
vn -0.4552531 0.7785002 0.4320671
v -0.12486 0.303851 0.0212672
vt 0.158784 0.813137
vn -0.2561909 -0.8198237 -0.5121088
vt 0.00185497 0.124316
vt 0.48131 0.124316
vt 0.241582 0.215054
vt 0.241582 0.0446758
vn 0 -0.3910341 -0.9203762
vn 0 -0.4795459 -0.8775168
vn 0 -0.2987399 -0.9543346
vt 0.763158 0.0365919
vn 0.9501073 -0.3119231 0
vt 0.819738 0.0135543
vn 0.9501062 -0.3119265 1.453771E-08
vt 0.823852 0.0383827
vt 0.705253 0.0360252
vt 0.761257 0.0134052
vt 0.64906 0.035633
vn 0.9501064 -0.3119261 1.471188E-08
vt 0.702761 0.0134113
vn -0.950107 -0.311924 0
vn -0.9501059 -0.3119274 1.453775E-08
vn -0.950106 -0.311927 1.471192E-08
vt 0.84951 0.0391217
vn 0.3082585 -0.6697085 0.6756236
vt 0.896739 0.0247418
vt 0.87686 0.0377443
vn -0.4288295 -0.621692 0.6554421
vt 0.861387 0.0240697
vn 0.4288298 -0.6216913 0.6554425
vn -0.3082585 -0.6697085 0.6756236
vn 0.6256061 -0.4674951 -0.6245521
vt 0.591826 0.0509508
vn 0.6256022 -0.4674971 -0.6245547
vt 0.627791 0.0552417
vn -0.6420593 -0.4679241 -0.6072947
vt 0.615702 0.0241722
vn -0.6420632 -0.4679221 -0.6072921
vn 0.6420629 -0.4679229 -0.6072919
vn 0.642059 -0.4679249 -0.6072945
vn -0.6256061 -0.4674951 -0.6245521
vn -0.6256022 -0.4674971 -0.6245547
o merged_0_0_node
g polygon_0
usemtl mat_body_mat_id
f 1/1/1 2/2/2 3/3/3
f 1/1/1 4/4/4 2/2/2
f 1/1/1 3/3/3 5/5/5
f 1/1/1 6/6/6 4/4/4
f 1/1/1 5/5/5 7/7/7
f 1/1/1 8/8/8 6/6/6
f 1/1/1 7/7/7 9/9/9
f 1/1/1 10/10/10 8/8/8
f 1/1/1 9/9/9 11/11/11
f 1/1/1 12/12/12 10/10/10
f 1/1/1 11/11/11 13/13/13
f 1/1/1 14/14/14 12/12/12
f 1/1/1 13/13/13 15/15/15
f 1/1/1 15/15/15 14/14/14
f 12/12/12 4/4/4 8/8/8
f 12/12/12 8/8/8 10/10/10
f 12/12/12 13/13/13 11/11/11
f 12/12/12 14/14/14 15/15/15
f 12/12/12 15/15/15 13/13/13
f 4/4/4 3/3/3 2/2/2
f 4/4/4 7/7/7 5/5/5
f 4/4/4 6/6/6 8/8/8
f 4/4/4 5/5/5 3/3/3
f 9/9/9 16/16/16 11/11/11
f 9/9/9 7/7/7 17/17/17
f 9/9/9 18/18/18 16/16/16
f 9/9/9 17/17/17 18/18/18
f 16/16/16 18/18/18 19/19/19
f 16/16/16 19/19/19 20/20/20
f 17/17/17 21/21/21 18/18/18
f 17/17/17 22/22/22 21/21/21
f 19/19/19 23/23/23 20/20/20
f 19/19/19 24/24/24 23/23/23
f 19/19/19 25/25/25 24/24/24
f 19/19/19 26/26/26 25/25/25
f 22/22/22 27/27/27 21/21/21
f 22/22/22 28/28/28 27/27/27
f 24/24/24 28/28/28 23/23/23
f 24/24/24 25/25/25 28/28/28
f 23/23/23 28/28/28 20/20/20
f 26/26/26 21/21/21 29/29/29
f 26/26/26 30/30/30 25/25/25
f 26/26/26 29/29/29 31/31/31
f 26/26/26 32/32/32 30/30/30
f 26/26/26 31/31/31 32/32/32
f 25/25/25 30/30/30 28/28/28
f 27/27/27 33/33/33 21/21/21
f 27/27/27 28/28/28 33/33/33
f 29/29/29 28/28/28 31/31/31
f 29/29/29 21/21/21 33/33/33
f 29/29/29 33/33/33 28/28/28
f 32/32/32 34/34/34 30/30/30
f 32/32/32 31/31/31 35/35/35
f 32/32/32 35/35/35 28/28/28
f 32/32/32 28/28/28 34/34/34
f 28/28/28 30/30/30 34/34/34
f 28/28/28 35/35/35 31/31/31
f 36/36/36 37/37/37 38/38/38
f 36/36/36 39/39/39 37/37/37
f 36/36/36 38/38/38 40/40/40
f 36/36/36 41/41/41 39/39/39
f 36/36/36 40/40/40 42/42/42
f 36/36/36 43/39/43 41/41/41
f 36/36/36 42/42/42 44/40/44
f 36/36/36 45/37/45 43/39/43
f 36/36/36 44/40/44 46/38/46
f 36/36/36 46/38/46 45/37/45
f 37/37/37 47/43/47 38/38/38
f 37/37/37 39/39/39 47/43/47
f 39/39/39 41/41/41 47/43/47
f 40/40/40 48/44/48 42/42/42
f 40/40/40 38/38/38 49/45/49
f 40/40/40 49/45/49 48/44/48
f 49/45/49 38/38/38 47/43/47
f 42/42/42 48/44/48 44/40/44
f 43/39/43 45/37/45 50/43/50
f 43/39/43 50/43/50 41/41/41
f 45/37/45 46/38/46 50/43/50
f 47/43/47 41/41/41 51/46/51
f 47/43/47 51/46/51 52/47/52
f 51/46/51 41/41/41 50/43/50
f 51/46/51 50/43/50 52/47/52
f 48/44/48 53/45/53 44/40/44
f 53/45/53 50/43/50 46/38/46
f 53/45/53 46/38/46 44/40/44
f 54/48/54 55/49/55 49/50/56
f 54/48/54 56/51/57 55/49/55
f 54/48/54 49/50/56 57/52/58
f 54/48/54 58/53/59 56/51/57
f 54/48/54 57/52/58 59/54/58
f 54/48/54 60/55/60 58/53/59
f 54/48/54 59/54/58 60/55/60
f 55/49/55 61/56/61 49/50/56
f 55/49/55 56/51/57 48/57/62
f 55/49/55 48/57/62 62/58/63
f 57/52/58 63/59/64 59/54/58
f 57/52/58 49/50/56 64/60/64
f 58/53/59 60/55/60 52/61/65
f 58/53/59 65/48/66 56/51/57
f 58/53/59 52/61/65 66/55/67
f 58/53/59 66/55/67 65/48/66
f 48/57/62 56/51/57 67/49/68
f 48/57/62 67/49/68 68/58/69
f 56/51/57 65/48/66 67/49/68
f 59/54/58 47/62/70 60/55/60
f 59/54/58 69/63/71 47/62/70
f 52/61/65 70/64/72 66/55/67
f 52/61/65 60/55/60 71/64/73
f 52/61/65 72/65/74 70/64/72
f 52/61/65 71/64/73 73/65/75
f 60/55/60 47/62/70 71/64/73
f 65/48/66 53/50/76 67/49/68
f 65/48/66 66/55/67 74/54/77
f 65/48/66 75/52/77 53/50/76
f 65/48/66 74/54/77 75/52/77
f 70/64/72 50/62/78 66/55/67
f 70/64/72 76/66/79 50/62/78
f 66/55/67 50/62/78 74/54/77
f 47/62/70 77/66/80 71/64/73
f 67/49/68 53/50/76 78/56/81
f 75/52/77 74/54/77 79/59/82
f 75/52/77 80/60/82 53/50/76
f 50/62/78 81/63/83 74/54/77
f 82/67/84 83/68/85 84/69/86
f 82/67/84 85/70/87 83/68/85
f 82/67/84 84/69/86 86/71/88
f 82/67/84 87/72/89 85/70/87
f 82/67/84 86/71/88 88/73/90
f 82/67/84 89/74/91 87/72/89
f 82/67/84 88/73/90 89/74/91
f 83/68/85 85/70/87 84/69/86
f 86/71/88 90/75/92 88/73/90
f 86/71/88 84/69/86 91/76/93
f 86/71/88 91/76/93 90/75/92
f 87/72/89 89/74/91 92/77/94
f 87/72/89 93/78/95 85/70/87
f 87/72/89 92/77/94 94/79/96
f 87/72/89 94/79/96 93/78/95
f 88/73/90 90/75/92 95/80/97
f 88/73/90 96/81/98 89/74/91
f 88/73/90 95/80/97 96/81/98
f 89/74/91 96/81/98 92/77/94
f 84/69/86 97/82/99 91/76/93
f 84/69/86 85/70/87 98/83/100
f 84/69/86 98/83/100 97/82/99
f 85/70/87 93/78/95 98/83/100
f 94/79/96 92/77/94 99/84/101
f 94/79/96 100/85/102 93/78/95
f 94/79/96 99/84/101 101/86/103
f 94/79/96 101/86/103 100/85/102
f 99/84/101 92/77/94 101/86/103
f 90/75/92 102/87/104 95/80/97
f 90/75/92 91/76/93 103/88/105
f 90/75/92 103/88/105 102/87/104
f 96/81/98 104/89/106 92/77/94
f 96/81/98 95/80/97 105/90/107
f 96/81/98 105/90/107 104/89/106
f 95/80/97 102/87/104 105/90/107
f 92/77/94 104/89/106 101/86/103
f 97/82/99 106/91/108 91/76/93
f 97/82/99 107/92/109 106/91/108
f 91/76/93 106/91/108 103/88/105
f 98/83/100 93/78/95 108/93/110
f 98/83/100 108/93/110 109/94/111
f 108/93/110 100/85/102 109/94/111
f 108/93/110 93/78/95 100/85/102
f 102/87/104 110/95/112 105/90/107
f 102/87/104 103/88/105 111/96/113
f 102/87/104 111/96/113 110/95/112
f 104/89/106 112/97/114 101/86/103
f 104/89/106 105/90/107 112/97/114
f 105/90/107 110/95/112 112/97/114
f 107/92/109 113/98/115 106/91/108
f 107/92/109 114/99/116 113/98/115
f 103/88/105 113/98/115 111/96/113
f 103/88/105 106/91/108 113/98/115
f 100/85/102 101/86/103 115/100/117
f 101/86/103 112/97/114 115/100/117
f 110/95/112 111/96/113 116/101/118
f 110/95/112 117/102/119 112/97/114
f 110/95/112 116/101/118 117/102/119
f 113/98/115 114/99/116 116/101/118
f 113/98/115 116/101/118 111/96/113
f 112/97/114 117/102/119 115/100/117
f 114/99/116 118/103/120 116/101/118
f 117/102/119 119/104/121 115/100/117
f 117/102/119 116/101/118 119/104/121
f 119/104/121 116/101/118 118/103/120
f 120/105/122 121/106/123 122/107/124
f 120/105/122 123/108/125 121/106/123
f 120/105/122 122/107/124 124/109/126
f 120/105/122 124/109/126 123/108/125
f 125/110/127 126/111/128 127/112/129
f 125/110/127 128/113/130 126/111/128
f 125/110/127 127/112/129 129/114/131
f 125/110/127 129/114/131 128/113/130
f 130/115/110 131/116/132 132/117/133
f 130/115/110 133/117/134 131/116/132
f 130/115/110 132/117/133 134/118/135
f 130/115/110 134/118/135 133/117/134
f 135/119/136 136/120/137 137/121/138
f 135/119/136 134/118/139 136/120/137
f 135/119/136 137/121/138 138/119/140
f 135/119/136 138/119/140 134/118/139
f 138/119/140 137/121/138 136/120/137
f 138/119/140 136/120/137 134/118/139
f 139/122/141 140/123/142 141/124/143
f 139/122/141 142/125/144 140/123/142
f 139/122/141 141/124/143 142/125/144
f 143/126/145 144/127/146 145/128/147
f 143/126/145 146/129/148 144/127/146
f 143/126/145 145/128/147 146/129/148
f 147/130/149 148/131/150 149/132/151
f 147/130/149 150/133/152 148/131/150
f 147/130/149 149/132/151 150/133/152
f 151/134/153 152/135/154 153/136/155
f 151/134/153 154/137/156 152/135/154
f 151/134/153 153/136/155 154/137/156
f 155/138/157 156/139/158 157/140/159
f 155/138/157 158/141/160 156/139/158
f 155/138/157 157/140/159 158/141/160
f 159/142/161 160/143/162 161/144/163
f 159/142/161 162/145/164 160/143/162
f 159/142/161 161/144/163 162/145/164
f 163/146/165 164/147/166 165/148/167
f 163/146/165 166/149/168 164/147/166
f 163/146/165 165/148/167 166/149/168
f 21/150/21 19/151/19 18/152/18
f 21/150/21 26/153/26 19/151/19
f 132/117/169 133/117/169 134/118/170
f 132/117/169 131/116/171 133/117/169
f 57/154/172 64/155/173 49/156/173
f 57/154/172 59/157/172 63/158/173
f 59/157/172 47/159/174 69/160/174
f 75/154/175 79/158/176 74/157/175
f 75/154/175 53/156/176 80/155/176
f 74/157/175 81/160/177 50/159/177
f 55/161/178 62/162/178 48/163/178
f 67/161/179 78/164/179 53/156/179
f 49/156/180 61/164/180 55/161/180
f 48/163/181 68/162/181 67/161/181
f 52/61/182 73/165/183 71/166/182
f 50/159/184 76/167/184 70/166/185
f 71/166/186 77/167/187 47/159/187
f 70/166/188 72/165/189 52/61/188
vt 0.636771 0.789251
vt 0.154848 0.861006
vt 0.888739 0.896814
vt 0.748608 1.00555
o merged_1_0_node
g polygon_0
usemtl TEX_ANIM_EYE_mat_id
f 119/168/121 109/169/111 115/170/117
f 115/170/117 109/169/111 100/171/102
f 107/168/109 97/170/99 109/169/111
f 97/170/99 98/171/100 109/169/111
