mtllib Cubone.mtl
v -0.178117 0.213203 0.159134
vt 3.87283 0.807787
vn -0.3243411 0.3553371 0.8766633
v -0.199742 0.230617 0.117907
vt 3.70133 0.878966
vn 0.01378429 0.9308797 -0.3650659
v -0.20509 0.227611 0.14451
vt 3.65892 0.866678
vn -0.1718191 0.8693823 0.4633062
v -0.168635 0.218533 0.111966
vt 3.94803 0.829573
vn 0.0347158 0.53771 -0.8424149
v -0.219824 0.215474 0.154415
vt 3.54207 0.817067
vn -0.8607622 -0.4045881 0.3088641
v -0.160077 0.24062 0.126155
vt 4.0159 0.919852
vn -0.2320911 0.8985813 -0.3724051
v -0.187706 0.183293 0.144441
vt 3.79678 0.685526
vn -0.7312768 -0.4296998 0.5297098
v -0.154733 0.240985 0.157001
vt 4.05828 0.921345
vn -0.1616879 0.8552437 0.4923568
v -0.151612 0.189929 0.152447
vt 4.08303 0.712651
vn 0.511678 -0.192229 0.837397
v -0.130924 0.224328 0.175013
vt 4.2471 0.853261
vn 0.735559 0.0342761 0.676593
v -0.129529 0.22848 0.115816
vt 4.25816 0.870229
vn 0.8939847 0.1672349 -0.4157209
v -0.207212 0.213966 0.100285
vt 3.64209 0.810903
vn -0.6401012 -0.3402171 -0.6888562
v -0.144869 0.189755 0.122877
vt 4.1365 0.711942
vn 0.8366344 -0.02107171 -0.5473562
v -0.180521 0.181288 0.114753
vt 3.85376 0.677334
vn -0.5117998 -0.2740719 -0.8142147
v -0.125709 0.05630229 0.137394
vt 4.40082 -0.0166788
vn 0.4426821 -0.0154055 0.8965462
v -0.122028 0.05837138 0.119083
vt 4.43846 -0.00577414
vn 0.7676197 0.1517599 -0.6226788
v -0.148009 0.05124119 0.13234
vt 4.1728 -0.0433519
vn -0.7262092 -0.2765971 0.6293762
v -0.144328 0.05331029 0.114028
vt 4.21044 -0.0324473
vn -0.4355639 -0.117579 -0.8924457
v 0 0.402467 0.150799
vt 2.29916 0.503021
vn 0 0.2935672 0.9559385
v -0.0838063 0.471037 0.110184
vt 2.06462 0.710187
vn -0.6937892 0.3418111 0.6338942
v -0.0638063 0.36884 0.14993
vt 2.12059 0.401425
vn -0.7498005 0.1300839 0.6487506
v 0 0.477912 0.151249
vt 2.29916 0.710187
vn 0 0.3688559 0.9294866
v -0.0462139 0.347482 0.199291
vt 2.16983 0.336896
vn -0.595863 0.22674 0.770413
v 0.0838064 0.471037 0.110184
vt 2.53369 0.710187
vn 0.6937892 0.3418111 0.6338942
v 0.0462139 0.347482 0.199291
vt 2.42849 0.336896
vn 0.593079 0.229742 0.7716709
v 0.0638063 0.36884 0.14993
vt 2.47772 0.401425
vn 0.7490037 0.134591 0.6487517
v 0 0.546003 0.0851316
vt 2.29916 0.881372
vn 0 0.8440141 0.536321
v -0.0990616 0.547 -0.00790056
vt 1.97739 0.939688
vn -0.5964236 0.8022794 0.02503418
v -0.178665 0.381375 -0.00790056
vt 1.77117 0.439296
vn -0.9646079 0.09994438 0.244014
v -0.0593873 0.245196 0.154916
vt 2.13296 0.0278664
vn -0.6872272 -0.5429331 0.4826411
v 0 0.326124 0.212858
vt 2.29916 0.272368
vn -1.79226E-05 -0.195157 0.980772
v 0.060611 0.245196 0.154916
vt 2.46878 0.0278664
vn 0.687056 -0.543004 0.482805
v 0.178665 0.381375 -0.00790056
vt 2.82715 0.439296
vn 0.9647462 0.101311 0.242901
v 0 0.56736 -0.00790056
vt 2.29916 0.990202
vn 0 0.9998609 -0.0166832
v 0 0.542723 -0.10913
vt 2.29916 0.896801
vn 0 0.8266761 -0.562678
v -0.125128 0.471037 -0.131325
vt 1.94898 0.710187
vn -0.6046852 0.6078722 -0.5146332
v -0.132147 0.471037 -0.00790056
vt 1.92934 0.710187
vn -0.9043062 0.3080901 0.2954841
v 0.0990616 0.547 -0.00790056
vt 2.62092 0.939688
vn 0.5964229 0.8022799 0.0250344
v -0.159468 0.281662 -0.00790056
vt 1.85288 0.138037
vn -0.8459454 -0.3993892 0.3533621
v -0.143687 0.389114 -0.181449
vt 1.89704 0.462678
vn -0.584852 0.00775617 -0.811103
v -0.174084 0.26759 -0.105774
vt 1.81198 0.0955234
vn -0.687124 -0.575052 -0.4440449
v -0.158875 0.426206 -0.00790056
vt 1.85025 0.574741
vn -0.8786353 0.3878681 0.2784931
v 0 0.236371 0.176032
vt 2.29916 0.00120199
vn 6.671897E-05 -0.7081116 0.7061006
v 0.159468 0.281662 -0.00790056
vt 2.74544 0.138037
vn 0.8469877 -0.4004808 0.3496099
v 0.174084 0.26759 -0.105774
vt 2.78634 0.0955234
vn 0.687124 -0.575052 -0.4440449
v 0.143687 0.389114 -0.181449
vt 2.70127 0.462678
vn 0.584852 0.00775615 -0.811103
v 0.125128 0.471037 -0.131325
vt 2.64933 0.710187
vn 0.6046852 0.6078722 -0.5146332
v 0.158875 0.426206 -0.00790056
vt 2.74806 0.574741
vn 0.8786355 0.3878678 0.2784928
vn -0.8850363 0.2360701 0.4012251
v 0 0.448954 -0.179109
vt 2.29916 0.643467
vn 0 0.30806 -0.951367
v -0.114977 0.271708 -0.00790056
vt 1.97739 0.107965
vn -0.214406 -0.9767423 -0.00214888
v 0 0.250066 0.120875
vt 2.29916 0.0425789
vn 1.21809E-05 -0.9999318 -0.0116827
v 0.114977 0.271708 -0.00790056
vt 2.62092 0.107965
vn 0.21399 -0.976832 -0.00275313
v 0 0.304511 -0.175313
vt 2.29916 0.270198
vn 0 -0.46337 -0.886165
v 0.132147 0.471037 -0.00790056
vt 2.66898 0.710187
vn 0.9043062 0.3080901 0.2954841
v 0 0.261369 -0.10158
vt 2.29916 0.0767286
vn 0 -0.9369852 -0.349369
vn 0.8850363 0.2360701 0.4012251
v -0.120693 0.580643 -0.122884
vt 3.48077 0.941671
vn 0.2185171 0.9300552 0.295377
v -0.134439 0.478573 -0.0273078
vt 3.66627 0.228988
vn -0.791486 0.341468 0.506902
v -0.0466994 0.523045 -0.0368827
vt 4.37297 0.539504
vn 0.2632419 0.8908877 0.3701659
v -0.157019 0.56223 -0.11892
vt 3.18818 0.81311
vn -0.8274496 0.3777108 0.4155258
v -0.0328659 0.481896 -0.110427
vt 4.4844 0.252187
vn 0.5810671 0.165401 -0.7968711
v -0.151292 0.545194 -0.149369
vt 3.23431 0.694154
vn -0.5623837 -0.3698528 -0.7395496
v -0.114966 0.563606 -0.153334
vt 3.5269 0.822715
vn 0.473835 0.181422 -0.861723
v -0.120605 0.437424 -0.100852
vt 3.77769 -0.0583293
vn -0.5747019 -0.4663799 -0.6724638
v 0.118871 0.582084 -0.119337
vt -1.45768 1.06175
vn -0.0364916 0.8960589 0.4424329
v 0.0553709 0.51798 -0.0192043
vt -2.17593 0.574935
vn -0.109153 0.8592412 0.4997901
v 0.127964 0.461777 -0.0281969
vt -1.66412 0.185319
vn 0.9046819 0.170609 0.3904399
v 0.101366 0.566754 -0.147502
vt -1.58109 0.955469
vn -0.6476221 0.311359 -0.6954431
v 0.154929 0.564233 -0.126051
vt -1.20345 0.937993
vn 0.9420701 0.194337 0.273381
v 0.137424 0.548902 -0.154215
vt -1.32687 0.831715
vn 0.3969401 -0.3954141 -0.8283032
v 0.0130917 0.480951 -0.0872312
vt -2.47401 0.31824
vn -0.7267511 0.321178 -0.6071881
v 0.100184 0.437834 -0.103447
vt -1.85998 0.0193365
vn 0.3593321 -0.4970652 -0.7898143
vt 0.212205 0.937957
vt 0.998208 0.937957
vt 0.998208 0.868168
vt 0.998208 1.05621
vt -0.159791 0.778866
vt 0.998208 0.79838
vn 0.234347 -0.9701412 -0.06251021
o merged_0_0_node
g polygon_0
usemtl TEX_ANIM_EYE_mat_id
f 1/1/1 2/2/2 3/3/3
f 1/1/1 4/4/4 2/2/2
f 1/1/1 3/3/3 5/5/5
f 1/1/1 6/6/6 4/4/4
f 1/1/1 5/5/5 7/7/7
f 1/1/1 8/8/8 6/6/6
f 1/1/1 7/7/7 9/9/9
f 1/1/1 10/10/10 8/8/8
f 1/1/1 9/9/9 10/10/10
f 3/3/3 2/2/2 5/5/5
f 4/4/4 6/6/6 11/11/11
f 4/4/4 12/12/12 2/2/2
f 4/4/4 11/11/11 13/13/13
f 4/4/4 14/14/14 12/12/12
f 4/4/4 13/13/13 14/14/14
f 11/11/11 8/8/8 10/10/10
f 11/11/11 9/9/9 13/13/13
f 11/11/11 6/6/6 8/8/8
f 11/11/11 10/10/10 9/9/9
f 12/12/12 14/14/14 7/7/7
f 12/12/12 7/7/7 5/5/5
f 12/12/12 5/5/5 2/2/2
f 13/13/13 9/9/9 15/15/15
f 13/13/13 16/16/16 14/14/14
f 13/13/13 15/15/15 16/16/16
f 7/7/7 17/17/17 9/9/9
f 7/7/7 14/14/14 17/17/17
f 9/9/9 17/17/17 15/15/15
f 16/16/16 18/18/18 14/14/14
f 14/14/14 18/18/18 17/17/17
f 19/19/19 20/20/20 21/21/21
f 19/19/19 22/22/22 20/20/20
f 19/19/19 21/21/21 23/23/23
f 19/19/19 24/24/24 22/22/22
f 19/19/19 23/23/23 25/25/25
f 19/19/19 26/26/26 24/24/24
f 19/19/19 25/25/25 26/26/26
f 20/20/20 22/22/22 27/27/27
f 20/20/20 27/27/27 28/28/28
f 22/22/22 24/24/24 27/27/27
f 21/21/21 29/29/29 30/30/30
f 23/23/23 31/31/31 25/25/25
f 26/26/26 32/32/32 33/33/33
f 28/28/28 27/27/27 34/34/34
f 28/28/28 34/34/34 35/35/35
f 28/28/28 35/35/35 36/36/36
f 28/28/28 36/36/36 37/37/37
f 24/24/24 38/38/38 27/27/27
f 34/34/34 38/38/38 35/35/35
f 34/34/34 27/27/27 38/38/38
f 29/29/29 39/39/39 30/30/30
f 29/29/29 36/36/36 40/40/40
f 29/29/29 41/41/41 39/39/39
f 29/29/29 42/42/42 36/36/36
f 29/29/29 40/40/40 41/41/41
f 31/31/31 43/43/43 32/32/32
f 31/31/31 30/30/30 43/43/43
f 33/33/33 32/32/32 44/44/44
f 33/33/33 44/44/44 45/45/45
f 33/33/33 45/45/45 46/46/46
f 33/33/33 46/46/46 47/47/47
f 33/33/33 47/47/47 48/48/48
f 37/37/37 36/36/36 42/42/49
f 35/35/35 38/38/38 47/47/47
f 35/35/35 49/49/50 36/36/36
f 35/35/35 47/47/47 49/49/50
f 36/36/36 49/49/50 40/40/40
f 39/39/39 41/41/41 50/50/51
f 39/39/39 50/50/51 30/30/30
f 43/43/43 51/51/52 32/32/32
f 43/43/43 30/30/30 51/51/52
f 30/30/30 50/50/51 51/51/52
f 44/44/44 52/52/53 45/45/45
f 44/44/44 32/32/32 52/52/53
f 32/32/32 51/51/52 52/52/53
f 46/46/46 49/49/50 47/47/47
f 46/46/46 45/45/45 53/53/54
f 46/46/46 53/53/54 49/49/50
f 40/40/40 53/53/54 41/41/41
f 40/40/40 49/49/50 53/53/54
f 38/38/38 54/54/55 47/47/47
f 50/50/51 41/41/41 55/55/56
f 55/55/56 45/45/45 52/52/53
f 55/55/56 41/41/41 53/53/54
f 55/55/56 53/53/54 45/45/45
f 54/54/55 48/48/57 47/47/47
f 56/56/58 57/57/59 58/58/60
f 56/56/58 59/59/61 57/57/59
f 56/56/58 58/58/60 60/60/62
f 56/56/58 61/61/63 59/59/61
f 56/56/58 60/60/62 62/62/64
f 56/56/58 62/62/64 61/61/63
f 57/57/59 59/59/61 63/63/65
f 63/63/65 62/62/64 60/60/62
f 63/63/65 61/61/63 62/62/64
f 63/63/65 59/59/61 61/61/63
f 64/64/66 65/65/67 66/66/68
f 64/64/66 67/67/69 65/65/67
f 64/64/66 66/66/68 68/68/70
f 64/64/66 69/69/71 67/67/69
f 64/64/66 68/68/70 69/69/71
f 65/65/67 67/67/69 70/70/72
f 66/66/68 71/71/73 68/68/70
f 71/71/73 67/67/69 69/69/71
f 71/71/73 70/70/72 67/67/69
f 71/71/73 69/69/71 68/68/70
f 20/72/20 37/73/37 42/74/49
f 20/72/20 28/75/28 37/73/37
f 20/72/20 42/74/49 21/76/21
f 21/76/21 42/74/42 29/77/29
f 24/72/24 54/73/55 38/75/38
f 24/72/24 48/74/57 54/73/55
f 24/72/24 26/76/26 48/74/57
f 26/76/26 33/77/33 48/74/48
f 16/16/74 17/17/74 18/18/74
f 16/16/74 15/15/74 17/17/74
v -0.136486 0.0884007 0
vt 0.076141 -2.03037
vn -0.9704359 0.0208402 -0.240458
v -0.0477949 0.217188 -0.0784182
vt 0.34079 -1.42358
vn -0.4452711 0.4628642 -0.7664793
v -0.0682431 0.0884007 -0.120933
vt 0.279774 -2.03037
vn -0.572661 0.30576 -0.760638
v -0.0955898 0.217188 0
vt 0.198173 -1.42358
vn -0.7680451 0.5439321 -0.338001
v -0.129618 0.0342722 0.0006186141
vt 0.0966368 -2.2854
vn -0.9033176 -0.4289699 0.00146303
v -0.167564 0.160516 0.128299
vt -0.0165933 -1.69059
vn -0.8102305 0.1183251 0.5740433
v -0.0648088 0.0342722 0.103214
vt 0.290022 -2.2854
vn -0.4017588 -0.5776828 0.7105438
v -0.0682432 0.0884007 0.120933
vn -0.2233839 -0.06798568 0.9723567
v 0.0477949 0.217188 -0.0784182
vt 0.626024 -1.42358
vn 0.4452711 0.4628642 -0.7664793
v 0 0.229166 0
vt 0.483407 -1.36714
vn 0 1 0
v -0.0648088 0.0342722 -0.123141
vn -0.5318573 -0.7102613 -0.4611472
v -0.0477949 0.217188 0.0784182
vn -0.0421956 0.605925 0.7944019
v 0.0682432 0.0884007 -0.120933
vt 0.68704 -2.03037
vn 0.572753 0.308277 -0.759552
v 0.0955898 0.217188 0
vt 0.76864 -1.42358
vn 0.7680453 0.5439323 -0.3380001
v 0.136486 0.0884007 0
vt 0.890672 -2.03037
vn 0.970436 0.0208402 -0.240457
v 0.00171722 0.06133649 -0.200097
vt 0.488531 -2.15789
vn -0.7526959 -0.0209176 -0.658036
vn 0 -0.9433621 -0.331765
v 0.0648088 0.0342722 -0.123141
vt 0.676792 -2.2854
vn 0.5304279 -0.7141929 -0.4566998
v 0 0.0169234 0
vt 0.483407 -2.36714
vn 0 -0.9999993 0.00115813
v 0.0477949 0.217188 0.0784182
vn 0.0421956 0.605925 0.7944019
v 0.129618 0.0342722 0.0006186141
vt 0.870177 -2.2854
vn 0.9033176 -0.4289699 0.001463289
vn 0 0.9462306 -0.3234929
vn 0.7691908 -0.02275609 -0.6386138
v 0.167564 0.160516 0.128299
vt 0.983407 -1.69059
vn 0.8102309 0.118325 0.5740429
v 0.0682431 0.0884007 0.120933
vn 0.2233839 -0.06798568 0.9723567
v 0.0648088 0.0342722 0.103214
vn 0.401758 -0.577683 0.710544
v 0 0.21753 -0.00790056
vt 0.525594 -2.03505
vn 0 -0.9991454 -0.04133327
vt 0.0255942 -1.03505
vt 0.525594 -1.22588
vt 0.525594 -1.43451
vt 1.02559 -1.03505
v -0.00014019 0.19963 -0.148482
vt 0.880922 -1.58003
vn -0.003829278 0.4141107 -0.9102185
v 0.0318128 0.152647 -0.08955
vt 0.160534 -2.51997
vn 0.7720983 -0.2218691 -0.5955153
v -0.0315962 0.152647 -0.0892833
vt 0.157273 -2.51997
vn -0.7770813 -0.2218691 -0.5889982
v 0.000203971 0.202632 -0.0666763
vt -0.119078 -1.51997
vn -0.000154168 0.9993273 -0.03667351
v -0.00014019 0.141023 -0.148482
vt 0.999392 -1.837
v 0.0318128 0.0940404 -0.08955
vt 0.279004 -2.77694
v -0.0315962 0.0940404 -0.0892833
vt 0.275743 -2.77694
v 0.000203971 0.144025 -0.0666762
vt -0.000607789 -1.77694
vt 0.0717039 0.543293
vt 0.928181 0.543293
vt 0.27329 0.967174
vt 0.927243 0.462909
vt 0.0726417 0.462909
vt 0.726595 0.967174
vt 0.499942 0.0809815
o merged_1_0_node
g polygon_0
usemtl body1_mat_id
f 72/78/75 73/79/76 74/80/77
f 72/78/75 75/81/78 73/79/76
f 72/78/75 74/80/77 76/82/79
f 72/78/75 77/83/80 75/81/78
f 72/78/75 76/82/79 78/84/81
f 72/78/75 79/80/82 77/83/80
f 72/78/75 78/84/81 79/80/82
f 73/79/76 80/85/83 74/80/77
f 73/79/76 75/81/78 81/86/84
f 73/79/76 81/86/84 80/85/83
f 76/82/79 74/80/77 82/84/85
f 77/83/80 79/80/82 83/79/86
f 77/83/80 83/79/86 75/81/78
f 75/81/78 83/79/86 81/86/84
f 80/85/83 84/87/87 74/80/77
f 80/85/83 81/86/84 85/88/88
f 80/85/83 86/89/89 84/87/87
f 80/85/83 85/88/88 86/89/89
f 82/84/85 74/80/77 87/90/90
f 82/84/85 87/90/91 88/91/92
f 82/84/85 88/91/92 89/92/93
f 83/79/86 90/85/94 81/86/84
f 81/86/84 90/85/94 85/88/88
f 84/87/87 86/89/89 91/93/95
f 84/87/87 87/90/96 74/80/77
f 84/87/87 88/91/92 87/90/97
f 84/87/87 91/93/95 88/91/92
f 90/85/94 92/94/98 85/88/88
f 90/85/94 93/87/99 92/94/98
f 92/94/98 93/87/99 86/89/89
f 92/94/98 86/89/89 85/88/88
f 91/93/95 86/89/89 94/91/100
f 94/91/100 86/89/89 93/87/99
f 95/95/101 50/96/51 55/97/56
f 95/95/101 51/98/52 50/96/51
f 95/95/101 55/97/56 52/99/53
f 95/95/101 52/99/53 51/98/52
f 96/100/102 97/101/103 98/102/104
f 96/100/102 99/103/105 97/101/103
f 96/100/102 98/102/104 99/103/105
f 100/104/102 101/105/103 102/106/104
f 100/104/102 103/107/105 101/105/103
f 100/104/102 102/106/104 103/107/105
f 79/108/82 93/109/99 83/110/86
f 79/108/82 94/111/100 93/109/99
f 79/108/82 78/112/81 94/111/100
f 83/110/86 93/109/99 90/113/94
f 78/112/81 89/114/93 94/111/100
v -0.0573382 0 0
vt 0.278818 -0.884164
vn -0.1124039 -0.9936595 -0.002471729
vt 0.25 1.81783
vt 0.5 1.81031
v 0.0573382 0 0
vt 0.721182 -0.884164
vn 0.1124039 -0.9936595 -0.002471669
vt 0.75 1.81783
vt 1 1.81783
vt 0 1.81783
o merged_2_0_node
g polygon_0
usemtl tume_mat_id
f 104/115/106 82/116/85 89/117/93
f 78/116/81 104/115/106 89/117/93
f 105/118/107 94/119/100 89/117/93
f 88/119/92 91/120/95 105/118/107
f 88/119/92 105/118/107 89/117/93
f 91/120/95 94/119/100 105/118/107
f 78/116/81 76/121/79 104/115/106
f 76/121/79 82/116/85 104/115/106
vt -0.906193 0.636494
vt 1.39979 -1.4397
vt 0.0830857 1.18444
vt 1.07236 1.73239
o merged_3_0_node
g polygon_0
usemtl nose_mat_id
f 31/122/31 32/123/32 25/124/25
f 31/122/31 23/124/23 30/123/30
f 25/124/25 32/123/32 26/125/26
f 23/124/23 21/125/21 30/123/30
