ply
format ascii 1.0
element vertex 611
property float x
property float y
property float z
property uchar red
property uchar green
property uchar blue
element face 738
property list uchar int vertex_index
end_header
0.27058 0.55818 1.61474 227 144 159
1.09717 0.55818 1.61512 227 144 159
1.09717 0.46834 1.61512 227 144 159
0.27058 0.46834 1.61474 227 144 159
1.12746 0.46834 1.5881 227 144 159
1.12746 0.55818 1.5881 227 144 159
0.23377 0.55818 1.58319 227 144 159
0.23377 0.46834 1.58319 227 144 159
0.27058 0.46834 1.031 217 138 152
0.68803 0.46834 1.03048 217 138 152
0.68803 0.55818 1.03048 217 138 152
0.27058 0.55818 1.031 217 138 152
0.72672 0.46834 1.0652 217 138 152
0.72624 0.46834 1.22292 217 138 152
0.72624 0.55818 1.22292 217 138 152
0.72672 0.55818 1.0652 217 138 152
0.88826 0.55818 1.22309 217 138 152
0.88826 0.46834 1.22309 217 138 152
0.23377 0.46834 1.06254 217 138 152
0.23377 0.55818 1.06254 217 138 152
0.23377 0.46834 1.58319 217 138 152
0.23377 0.55818 1.58319 217 138 152
0.27058 0.46834 1.61474 217 138 152
0.92757 0.46834 1.41587 217 138 152
0.92751 0.46834 1.25797 217 138 152
1.09717 0.46834 1.61512 217 138 152
1.09717 0.46834 1.41589 217 138 152
1.09717 0.55818 1.41589 217 138 152
0.92757 0.55818 1.41587 217 138 152
1.09717 0.55818 1.61512 217 138 152
0.27058 0.55818 1.61474 217 138 152
0.92751 0.55818 1.25797 217 138 152
1.12746 0.55818 1.5881 217 138 152
1.12746 0.55818 1.44291 217 138 152
1.12746 0.46834 1.44291 217 138 152
1.12746 0.46834 1.5881 217 138 152
0.23465 -0.64259 1.3909 242 215 212
0.24901 -0.64259 1.40421 242 215 212
0.24901 -0.64259 1.26143 242 215 212
0.23465 -0.64259 1.27539 242 215 212
0.24901 -0.63554 1.26143 242 215 212
0.24901 -0.63554 1.40421 242 215 212
0.23465 -0.63554 1.27539 242 215 212
0.23465 -0.63554 1.3909 242 215 212
0.22214 -0.63554 1.26143 242 215 212
0.22214 -0.64259 1.26143 242 215 212
0.22214 -0.64259 1.27539 242 215 212
0.22214 -0.63554 1.27539 242 215 212
0.22214 -0.64259 1.3909 242 215 212
0.22214 -0.63554 1.3909 242 215 212
0.22214 -0.64259 1.40421 242 215 212
0.22214 -0.63554 1.40421 242 215 212
-0.65875 -0.56387 0.34123 252 224 221
-0.65875 -0.56387 1.71615 252 224 221
-0.56261 -0.63844 1.71615 252 224 221
-0.56261 -0.63844 0.34123 252 224 221
-0.65875 0.39894 0.34123 252 224 221
-0.65875 0.39894 1.71615 252 224 221
-0.50213 -0.56763 1.80243 252 224 221
-0.58794 -0.50107 1.80243 252 224 221
-0.58794 0.33614 1.80243 252 224 221
-0.56261 0.47352 1.71615 252 224 221
-0.56261 0.47352 0.34123 252 224 221
0.56261 0.47352 1.71615 252 224 221
0.56261 0.47352 0.34123 252 224 221
0.65875 0.39894 1.71615 252 224 221
0.65875 0.39894 0.34123 252 224 221
-0.50213 0.4027 1.80243 252 224 221
0.50213 0.4027 1.80243 252 224 221
0.58794 0.33614 1.80243 252 224 221
-0.51573 0.41862 0.27059 252 224 221
-0.60386 0.35026 0.27059 252 224 221
0.51573 0.41862 0.27059 252 224 221
0.60386 0.35026 0.27059 252 224 221
0.60386 -0.51519 0.27059 252 224 221
-0.60386 -0.51519 0.27059 252 224 221
0.65875 -0.56387 0.34123 252 224 221
0.51573 -0.58355 0.27059 252 224 221
0.56261 -0.63844 0.34123 252 224 221
0.56261 -0.63844 1.71615 252 224 221
0.65875 -0.56387 1.71615 252 224 221
0.58794 -0.50107 1.80243 252 224 221
0.50213 -0.56763 1.80243 252 224 221
-0.51573 -0.58355 0.27059 252 224 221
-0.13095 -0.63844 1.06744 252 224 221
-0.13095 -0.63844 1.21566 252 224 221
0.13095 -0.63844 1.06744 252 224 221
0.13095 -0.63844 1.21566 252 224 221
0.58794 -0.50107 1.80243 255 229 226
0.50213 -0.56763 1.80243 255 229 226
-0.50213 -0.56763 1.80243 255 229 226
-0.58794 -0.50107 1.80243 255 229 226
0.58794 0.33614 1.80243 255 229 226
-0.58794 0.33614 1.80243 255 229 226
0.50213 0.4027 1.80243 255 229 226
-0.50213 0.4027 1.80243 255 229 226
-0.13095 -0.53156 1.21566 189 150 171
0.13095 -0.53156 1.21566 189 150 171
0.13095 -0.53156 1.06744 189 150 171
-0.13095 -0.53156 1.06744 189 150 171
-0.13095 -0.63844 1.21566 189 150 171
-0.13095 -0.63844 1.06744 189 150 171
0.13095 -0.63844 1.06744 189 150 171
0.13095 -0.63844 1.21566 189 150 171
-0.14762 -0.5974 1.05867 227 200 214
-0.14762 -0.5974 1.14068 227 200 214
0.14762 -0.5974 1.14068 227 200 214
0.14762 -0.5974 1.05867 227 200 214
0.14762 -0.52809 1.14068 227 200 214
-0.14762 -0.52809 1.14068 227 200 214
0.11963 -0.65511 1.26263 79 158 123
0.11963 -0.65511 1.30217 79 158 123
0.17853 -0.65511 1.30217 79 158 123
0.17853 -0.65511 1.26263 79 158 123
0.11963 -0.63109 1.26263 79 158 123
0.17853 -0.63109 1.26263 79 158 123
0.17853 -0.63109 1.30217 79 158 123
0.11963 -0.63109 1.30217 79 158 123
0.11963 -0.65511 1.40583 255 255 255
0.11963 -0.63109 1.40583 255 255 255
0.17853 -0.63109 1.40583 255 255 255
0.17853 -0.65511 1.40583 255 255 255
0.11963 -0.65511 1.37008 255 255 255
0.17853 -0.65511 1.37008 255 255 255
0.17853 -0.63109 1.37008 255 255 255
0.11963 -0.63109 1.37008 255 255 255
0.11963 -0.65511 1.30217 4 31 4
0.11963 -0.65511 1.37008 4 31 4
0.17853 -0.65511 1.37008 4 31 4
0.17853 -0.65511 1.30217 4 31 4
0.17853 -0.63109 1.37008 4 31 4
0.17853 -0.63109 1.30217 4 31 4
0.11963 -0.63109 1.30217 4 31 4
0.11963 -0.63109 1.37008 4 31 4
-0.11963 -0.65511 1.26263 79 158 123
-0.17853 -0.65511 1.26263 79 158 123
-0.17853 -0.65511 1.30217 79 158 123
-0.11963 -0.65511 1.30217 79 158 123
-0.11963 -0.63109 1.26263 79 158 123
-0.17853 -0.63109 1.26263 79 158 123
-0.17853 -0.63109 1.30217 79 158 123
-0.11963 -0.63109 1.30217 79 158 123
-0.11963 -0.65511 1.40583 255 255 255
-0.17853 -0.65511 1.40583 255 255 255
-0.17853 -0.63109 1.40583 255 255 255
-0.11963 -0.63109 1.40583 255 255 255
-0.11963 -0.65511 1.37008 255 255 255
-0.17853 -0.65511 1.37008 255 255 255
-0.17853 -0.63109 1.37008 255 255 255
-0.11963 -0.63109 1.37008 255 255 255
-0.11963 -0.65511 1.30217 4 31 4
-0.17853 -0.65511 1.30217 4 31 4
-0.17853 -0.65511 1.37008 4 31 4
-0.11963 -0.65511 1.37008 4 31 4
-0.17853 -0.63109 1.37008 4 31 4
-0.17853 -0.63109 1.30217 4 31 4
-0.11963 -0.63109 1.30217 4 31 4
-0.11963 -0.63109 1.37008 4 31 4
-0.23465 -0.64259 1.3909 242 215 212
-0.23465 -0.64259 1.27539 242 215 212
-0.24901 -0.64259 1.26143 242 215 212
-0.24901 -0.64259 1.40421 242 215 212
-0.24901 -0.63554 1.26143 242 215 212
-0.24901 -0.63554 1.40421 242 215 212
-0.23465 -0.63554 1.27539 242 215 212
-0.23465 -0.63554 1.3909 242 215 212
-0.22214 -0.63554 1.26143 242 215 212
-0.22214 -0.64259 1.26143 242 215 212
-0.22214 -0.64259 1.27539 242 215 212
-0.22214 -0.63554 1.27539 242 215 212
-0.22214 -0.64259 1.3909 242 215 212
-0.22214 -0.63554 1.3909 242 215 212
-0.22214 -0.64259 1.40421 242 215 212
-0.22214 -0.63554 1.40421 242 215 212
-0.25113 -0.74521 1.94989 252 224 221
-0.20062 -0.80241 1.94989 252 224 221
-0.20062 -0.80241 1.58298 252 224 221
-0.25113 -0.74521 1.5477 252 224 221
-0.25113 0.19169 1.94989 252 224 221
-0.25113 0.19169 1.5477 252 224 221
-0.13112 -0.80241 1.90032 252 224 221
-0.13112 -0.80241 1.71225 252 224 221
-0.20062 -0.80241 1.5477 252 224 221
0.20062 -0.80241 1.90032 252 224 221
0.20062 -0.80241 1.94989 252 224 221
0.25113 -0.74521 1.94989 252 224 221
0.20062 -0.80241 1.5477 252 224 221
0.25113 -0.74521 1.5477 252 224 221
0.25113 0.19169 1.5477 252 224 221
0.25113 0.19169 1.94989 252 224 221
-0.026 -0.80241 1.71225 252 224 221
0.09324 -0.80241 1.58298 252 224 221
-0.026 -0.80241 1.82005 252 224 221
0.09324 -0.80241 1.82005 252 224 221
0.20378 -0.72422 1.99228 252 224 221
0.16279 -0.76832 1.99228 252 224 221
-0.16279 -0.76832 1.99228 252 224 221
-0.20378 -0.72422 1.99228 252 224 221
-0.20378 0.1707 1.99228 252 224 221
-0.20062 0.24889 1.94989 252 224 221
-0.20062 0.24889 1.5477 252 224 221
0.20062 0.24889 1.94989 252 224 221
0.20062 0.24889 1.90032 252 224 221
0.20062 0.24889 1.5477 252 224 221
-0.16279 0.21059 1.99228 252 224 221
0.16279 0.21059 1.99228 252 224 221
0.20378 0.1707 1.99228 252 224 221
-0.16795 0.20885 1.51488 252 224 221
-0.21023 0.15601 1.51488 252 224 221
0.16795 0.20885 1.51488 252 224 221
0.21023 0.15601 1.51488 252 224 221
0.21023 -0.70953 1.51488 252 224 221
-0.21023 -0.70953 1.51488 252 224 221
0.16795 -0.76237 1.51488 252 224 221
-0.16795 -0.76237 1.51488 252 224 221
0.16279 0.21059 1.99228 255 229 226
0.20378 0.1707 1.99228 255 229 226
-0.20378 0.1707 1.99228 255 229 226
-0.16279 0.21059 1.99228 255 229 226
-0.20378 -0.72422 1.99228 255 229 226
0.20378 -0.72422 1.99228 255 229 226
-0.16279 -0.76832 1.99228 255 229 226
0.16279 -0.76832 1.99228 255 229 226
-0.026 -0.80241 1.82005 242 215 212
-0.13112 -0.80241 1.90032 242 215 212
0.20062 -0.80241 1.90032 242 215 212
0.09324 -0.80241 1.82005 242 215 212
-0.13112 -0.80241 1.71225 242 215 212
-0.026 -0.80241 1.71225 242 215 212
0.09324 -0.80241 1.58298 242 215 212
0.20062 -0.80241 1.5477 242 215 212
-0.20062 -0.80241 1.5477 242 215 212
-0.20062 -0.80241 1.58298 242 215 212
-0.16795 -0.76237 1.51488 242 215 212
0.16795 -0.76237 1.51488 242 215 212
0.16862 -0.21556 1.83367 252 224 221
0.56586 -0.21556 2.19135 252 224 221
0.60146 -0.25698 2.15181 252 224 221
0.20423 -0.25698 1.79413 252 224 221
0.64274 -0.25698 2.10597 252 224 221
0.41024 -0.25698 1.56533 252 224 221
0.76621 -0.25698 1.96884 252 224 221
0.80748 -0.25698 1.923 252 224 221
0.84308 -0.21556 1.88346 252 224 221
0.44585 -0.21556 1.52579 252 224 221
0.84308 0.05807 1.88346 252 224 221
0.44585 0.05807 1.52579 252 224 221
0.41024 0.09948 1.56533 252 224 221
0.80748 0.09948 1.923 252 224 221
0.7615 -0.25698 2.21277 252 224 221
0.88484 -0.25698 2.07578 252 224 221
0.79734 -0.25698 2.21377 252 224 221
0.88958 -0.25698 2.11132 252 224 221
0.76621 0.09948 1.96884 252 224 221
0.20423 0.09948 1.79413 252 224 221
0.64274 0.09948 2.10597 252 224 221
0.60146 0.09948 2.15181 252 224 221
0.56586 0.05807 2.19135 252 224 221
0.16862 0.05807 1.83367 252 224 221
0.88484 0.09948 2.07578 252 224 221
0.7615 0.09948 2.21277 252 224 221
0.88958 0.09948 2.11132 252 224 221
0.79734 0.09948 2.21377 252 224 221
1.04917 0.03526 2.11548 113 161 79
1.04917 -0.19276 2.11548 113 161 79
0.81815 -0.19276 2.37205 113 161 79
0.81815 0.03526 2.37205 113 161 79
1.04223 -0.21556 2.06277 113 161 79
1.00663 -0.25698 2.10231 113 161 79
0.84308 -0.21556 1.88346 113 161 79
0.80748 -0.25698 1.923 113 161 79
1.04223 0.05807 2.06277 113 161 79
0.84308 0.05807 1.88346 113 161 79
1.0195 -0.22728 2.14843 113 161 79
0.80061 -0.25698 2.33112 113 161 79
0.84782 -0.22728 2.3391 113 161 79
0.76501 -0.21556 2.37066 113 161 79
0.56586 -0.21556 2.19135 113 161 79
0.60146 -0.25698 2.15181 113 161 79
0.88958 -0.25698 2.11132 113 161 79
0.88484 -0.25698 2.07578 113 161 79
0.79734 -0.25698 2.21377 113 161 79
0.7615 -0.25698 2.21277 113 161 79
0.64274 -0.25698 2.10597 113 161 79
0.76621 -0.25698 1.96884 113 161 79
1.00663 0.09948 2.10231 113 161 79
0.80748 0.09948 1.923 113 161 79
1.0195 0.06978 2.14843 113 161 79
0.84782 0.06978 2.3391 113 161 79
0.80061 0.09948 2.33112 113 161 79
0.76501 0.05807 2.37066 113 161 79
0.56586 0.05807 2.19135 113 161 79
0.60146 0.09948 2.15181 113 161 79
0.79734 0.09948 2.21377 113 161 79
0.7615 0.09948 2.21277 113 161 79
0.88958 0.09948 2.11132 113 161 79
0.76621 0.09948 1.96884 113 161 79
0.88484 0.09948 2.07578 113 161 79
0.64274 0.09948 2.10597 113 161 79
0.16862 0.05807 1.83367 255 229 226
0.56586 0.05807 2.19135 255 229 226
0.56586 -0.21556 2.19135 255 229 226
0.16862 -0.21556 1.83367 255 229 226
0.56586 0.05807 2.19135 117 167 82
0.76501 0.05807 2.37066 117 167 82
0.76501 -0.21556 2.37066 117 167 82
0.56586 -0.21556 2.19135 117 167 82
0.81815 0.03526 2.37205 117 167 82
0.81815 -0.19276 2.37205 117 167 82
-0.16862 -0.21556 1.83367 252 224 221
-0.20423 -0.25698 1.79413 252 224 221
-0.60146 -0.25698 2.15181 252 224 221
-0.56586 -0.21556 2.19135 252 224 221
-0.64274 -0.25698 2.10597 252 224 221
-0.41024 -0.25698 1.56533 252 224 221
-0.76621 -0.25698 1.96884 252 224 221
-0.80748 -0.25698 1.923 252 224 221
-0.84308 -0.21556 1.88346 252 224 221
-0.44585 -0.21556 1.52579 252 224 221
-0.84308 0.05807 1.88346 252 224 221
-0.44585 0.05807 1.52579 252 224 221
-0.41024 0.09948 1.56533 252 224 221
-0.80748 0.09948 1.923 252 224 221
-0.7615 -0.25698 2.21277 252 224 221
-0.88484 -0.25698 2.07578 252 224 221
-0.79734 -0.25698 2.21377 252 224 221
-0.88958 -0.25698 2.11132 252 224 221
-0.76621 0.09948 1.96884 252 224 221
-0.20423 0.09948 1.79413 252 224 221
-0.64274 0.09948 2.10597 252 224 221
-0.60146 0.09948 2.15181 252 224 221
-0.56586 0.05807 2.19135 252 224 221
-0.16862 0.05807 1.83367 252 224 221
-0.88484 0.09948 2.07578 252 224 221
-0.7615 0.09948 2.21277 252 224 221
-0.88958 0.09948 2.11132 252 224 221
-0.79734 0.09948 2.21377 252 224 221
-1.04917 0.03526 2.11548 113 161 79
-0.81815 0.03526 2.37205 113 161 79
-0.81815 -0.19276 2.37205 113 161 79
-1.04917 -0.19276 2.11548 113 161 79
-1.04223 -0.21556 2.06277 113 161 79
-1.00663 -0.25698 2.10231 113 161 79
-0.84308 -0.21556 1.88346 113 161 79
-0.80748 -0.25698 1.923 113 161 79
-1.04223 0.05807 2.06277 113 161 79
-0.84308 0.05807 1.88346 113 161 79
-1.0195 -0.22728 2.14843 113 161 79
-0.80061 -0.25698 2.33112 113 161 79
-0.84782 -0.22728 2.3391 113 161 79
-0.76501 -0.21556 2.37066 113 161 79
-0.56586 -0.21556 2.19135 113 161 79
-0.60146 -0.25698 2.15181 113 161 79
-1.0195 0.06978 2.14843 113 161 79
-1.00663 0.09948 2.10231 113 161 79
-0.80748 0.09948 1.923 113 161 79
-0.84782 0.06978 2.3391 113 161 79
-0.80061 0.09948 2.33112 113 161 79
-0.76501 0.05807 2.37066 113 161 79
-0.56586 0.05807 2.19135 113 161 79
-0.60146 0.09948 2.15181 113 161 79
-0.79734 0.09948 2.21377 113 161 79
-0.7615 0.09948 2.21277 113 161 79
-0.88958 0.09948 2.11132 113 161 79
-0.76621 0.09948 1.96884 113 161 79
-0.88484 0.09948 2.07578 113 161 79
-0.64274 0.09948 2.10597 113 161 79
-0.16862 0.05807 1.83367 255 229 226
-0.16862 -0.21556 1.83367 255 229 226
-0.56586 -0.21556 2.19135 255 229 226
-0.56586 0.05807 2.19135 255 229 226
-0.56586 0.05807 2.19135 117 167 82
-0.56586 -0.21556 2.19135 117 167 82
-0.76501 -0.21556 2.37066 117 167 82
-0.76501 0.05807 2.37066 117 167 82
-0.81815 -0.19276 2.37205 117 167 82
-0.81815 0.03526 2.37205 117 167 82
-0.88484 -0.25698 2.07578 113 161 79
-0.88958 -0.25698 2.11132 113 161 79
-0.79734 -0.25698 2.21377 113 161 79
-0.76621 -0.25698 1.96884 113 161 79
-0.7615 -0.25698 2.21277 113 161 79
-0.64274 -0.25698 2.10597 113 161 79
-0.27058 0.55818 1.61474 227 144 159
-0.27058 0.46834 1.61474 227 144 159
-1.09717 0.46834 1.61512 227 144 159
-1.09717 0.55818 1.61512 227 144 159
-1.12746 0.46834 1.5881 227 144 159
-1.12746 0.55818 1.5881 227 144 159
-0.23377 0.55818 1.58319 227 144 159
-0.23377 0.46834 1.58319 227 144 159
-0.27058 0.46834 1.031 217 138 152
-0.27058 0.55818 1.031 217 138 152
-0.68803 0.55818 1.03048 217 138 152
-0.68803 0.46834 1.03048 217 138 152
-0.72672 0.46834 1.0652 217 138 152
-0.72624 0.46834 1.22292 217 138 152
-0.72624 0.55818 1.22292 217 138 152
-0.72672 0.55818 1.0652 217 138 152
-0.88826 0.55818 1.22309 217 138 152
-0.88826 0.46834 1.22309 217 138 152
-0.23377 0.46834 1.06254 217 138 152
-0.23377 0.55818 1.06254 217 138 152
-0.23377 0.46834 1.58319 217 138 152
-0.23377 0.55818 1.58319 217 138 152
-0.27058 0.46834 1.61474 217 138 152
-0.92757 0.46834 1.41587 217 138 152
-0.92751 0.46834 1.25797 217 138 152
-1.09717 0.46834 1.61512 217 138 152
-1.09717 0.46834 1.41589 217 138 152
-1.09717 0.55818 1.41589 217 138 152
-0.92757 0.55818 1.41587 217 138 152
-1.09717 0.55818 1.61512 217 138 152
-0.27058 0.55818 1.61474 217 138 152
-0.92751 0.55818 1.25797 217 138 152
-1.12746 0.55818 1.5881 217 138 152
-1.12746 0.55818 1.44291 217 138 152
-1.12746 0.46834 1.44291 217 138 152
-1.12746 0.46834 1.5881 217 138 152
0.14421 0.41368 0.21337 252 224 221
0.14421 0.41368 0.87222 252 224 221
0.19765 0.48459 0.87222 252 224 221
0.19765 0.48459 0.21271 252 224 221
0.19795 0.67045 0.45502 252 224 221
0.19799 0.67046 0.72241 252 224 221
0.1989 1.33525 0.21271 252 224 221
0.19868 1.16131 0.45502 252 224 221
0.19868 1.16131 0.97833 252 224 221
0.1989 1.33525 1.21478 252 224 221
0.19765 0.48459 0.97833 252 224 221
0.19765 0.48459 1.21478 252 224 221
0.14575 1.40636 0.21337 252 224 221
0.14575 1.40636 1.215 252 224 221
-0.14422 1.40679 1.215 252 224 221
-0.14422 1.40679 0.21337 252 224 221
0.14421 0.41368 0.97833 252 224 221
0.14421 0.41368 1.215 252 224 221
0.16032 0.49457 1.26281 252 224 221
0.12663 0.45375 1.26302 252 224 221
0.16133 1.32529 1.26281 252 224 221
0.12797 1.36632 1.26302 252 224 221
-0.12663 1.36672 1.26302 252 224 221
0.12797 1.36632 0.16534 252 224 221
-0.12663 1.36672 0.16534 252 224 221
0.16133 1.32529 0.16468 252 224 221
-0.16032 1.3259 0.16468 252 224 221
0.16032 0.49457 0.16468 252 224 221
0.12663 0.45375 0.16534 252 224 221
-0.16133 0.49518 0.16468 252 224 221
-0.16032 1.3259 1.26281 255 229 226
0.16133 1.32529 1.26281 255 229 226
0.16032 0.49457 1.26281 255 229 226
-0.16133 0.49518 1.26281 255 229 226
0.12797 1.36632 1.26302 255 229 226
-0.12663 1.36672 1.26302 255 229 226
-0.14575 0.41411 1.215 252 224 221
-0.14575 0.41411 0.97833 252 224 221
-0.1989 0.48521 0.97833 252 224 221
-0.1989 0.48521 1.21478 252 224 221
-0.19765 1.33588 1.21478 252 224 221
-0.19788 1.1619 0.97833 252 224 221
-0.19788 1.1619 0.45502 252 224 221
-0.19765 1.33588 0.21271 252 224 221
-0.19861 0.67104 0.45502 252 224 221
-0.1989 0.48521 0.21271 252 224 221
-0.16133 0.49518 1.26281 252 224 221
-0.16032 1.3259 1.26281 252 224 221
-0.12797 0.45415 1.26302 252 224 221
-0.14575 0.41411 0.21337 252 224 221
-0.14575 0.41411 0.87222 252 224 221
-0.1989 0.48521 0.87222 252 224 221
-0.12797 0.45415 0.16534 252 224 221
-0.19855 0.67046 0.72241 252 224 221
-0.19838 0.78919 0.72241 252 224 221
-0.19808 1.02711 0.87222 252 224 221
-0.19808 1.02711 0.5726 252 224 221
-0.19845 0.78919 0.5726 252 224 221
-0.14575 0.41411 0.97833 236 210 207
-0.14575 0.41411 0.87222 236 210 207
-0.1989 0.48521 0.87222 236 210 207
-0.1989 0.48521 0.97833 236 210 207
0.14421 0.41368 0.97833 236 210 207
0.14421 0.41368 0.87222 236 210 207
-0.19808 1.02711 0.87222 236 210 207
-0.19788 1.1619 0.97833 236 210 207
-0.19808 1.02711 0.5726 236 210 207
-0.19788 1.1619 0.45502 236 210 207
-0.19845 0.78919 0.5726 236 210 207
-0.19861 0.67104 0.45502 236 210 207
-0.19855 0.67046 0.72241 236 210 207
-0.19838 0.78919 0.72241 236 210 207
0.19765 0.48459 0.97833 236 210 207
0.19765 0.48459 0.87222 236 210 207
0.19868 1.16131 0.97833 236 210 207
0.19848 1.02652 0.87222 236 210 207
0.19848 1.02652 0.5726 236 210 207
0.19868 1.16131 0.45502 236 210 207
0.19795 0.67045 0.45502 236 210 207
0.19808 0.78919 0.5726 236 210 207
0.19815 0.78919 0.72241 236 210 207
0.19799 0.67046 0.72241 236 210 207
0.12663 0.45375 1.26302 255 229 226
-0.12797 0.45415 1.26302 255 229 226
0.19815 0.78919 0.72241 252 224 221
0.19848 1.02652 0.87222 252 224 221
0.19848 1.02652 0.5726 252 224 221
0.19808 0.78919 0.5726 252 224 221
0.51593 -0.30157 1.27293 252 224 221
0.99158 -0.30155 1.27285 252 224 221
0.9915 -0.30141 0.91701 252 224 221
0.51593 -0.3014 0.91709 252 224 221
1.04613 -0.25648 0.95853 252 224 221
1.04619 -0.25659 1.23134 252 224 221
0.51593 0.08352 1.27311 255 229 226
0.99146 0.08353 1.273 255 229 226
0.99158 -0.30155 1.27285 255 229 226
0.51593 -0.30157 1.27293 255 229 226
1.04619 -0.25659 1.23134 255 229 226
1.0461 0.03864 1.23146 255 229 226
0.51593 0.08368 0.91727 252 224 221
0.99138 0.08367 0.91716 252 224 221
0.99146 0.08353 1.273 252 224 221
0.51593 0.08352 1.27311 252 224 221
1.04604 0.03875 0.95864 252 224 221
1.0461 0.03864 1.23146 252 224 221
-0.51593 -0.30157 1.27293 252 224 221
-0.51593 -0.3014 0.91709 252 224 221
-0.9915 -0.30141 0.91701 252 224 221
-0.99158 -0.30155 1.27285 252 224 221
-1.04613 -0.25648 0.95853 252 224 221
-1.04619 -0.25659 1.23134 252 224 221
-0.51593 0.08352 1.27311 255 229 226
-0.51593 -0.30157 1.27293 255 229 226
-0.99158 -0.30155 1.27285 255 229 226
-0.99146 0.08353 1.273 255 229 226
-1.04619 -0.25659 1.23134 255 229 226
-1.0461 0.03864 1.23146 255 229 226
-0.51593 0.08368 0.91727 252 224 221
-0.51593 0.08352 1.27311 252 224 221
-0.99146 0.08353 1.273 252 224 221
-0.99138 0.08367 0.91716 252 224 221
-1.04604 0.03875 0.95864 252 224 221
-1.0461 0.03864 1.23146 252 224 221
0.16034 -0.25461 0 252 224 221
0.21875 -0.25461 0.0843 252 224 221
0.21875 -0.25461 0 252 224 221
0.21875 -0.15166 0 252 224 221
0.44054 -0.15166 0 252 224 221
0.44054 -0.25461 0 252 224 221
0.50242 -0.25461 0 252 224 221
0.4038 -0.10193 0 252 224 221
0.25896 -0.10193 0 252 224 221
0.25896 0.03774 0 252 224 221
0.4038 0.03774 0 252 224 221
0.16034 0.0588 0 252 224 221
0.50242 0.0588 0 252 224 221
0.50242 0.0588 0.28659 252 224 221
0.50242 -0.25461 0.28659 252 224 221
0.44054 -0.25461 0.0843 252 224 221
0.16034 -0.25461 0.28659 252 224 221
0.16034 0.0588 0.28659 252 224 221
0.20051 0.10704 0 252 224 221
0.46225 0.10704 0 252 224 221
0.20051 0.10704 0.28659 252 224 221
0.46225 0.10704 0.28659 252 224 221
0.24153 -0.31191 0.0843 240 240 240
0.42048 -0.31191 0.0843 240 240 240
0.42048 -0.31191 0 240 240 240
0.24153 -0.31191 0 240 240 240
0.21875 -0.25461 0.0843 240 240 240
0.21875 -0.25461 0 240 240 240
0.44054 -0.25461 0 240 240 240
0.44054 -0.25461 0.0843 240 240 240
0.44054 -0.25461 0.0843 244 244 244
0.42048 -0.31191 0.0843 244 244 244
0.24153 -0.31191 0.0843 244 244 244
0.21875 -0.25461 0.0843 244 244 244
-0.16034 -0.25461 0 252 224 221
-0.21875 -0.25461 0 252 224 221
-0.21875 -0.25461 0.0843 252 224 221
-0.21875 -0.15166 0 252 224 221
-0.44054 -0.15166 0 252 224 221
-0.44054 -0.25461 0 252 224 221
-0.50242 -0.25461 0 252 224 221
-0.4038 -0.10193 0 252 224 221
-0.25896 -0.10193 0 252 224 221
-0.25896 0.03774 0 252 224 221
-0.4038 0.03774 0 252 224 221
-0.16034 0.0588 0 252 224 221
-0.50242 0.0588 0 252 224 221
-0.50242 0.0588 0.28659 252 224 221
-0.50242 -0.25461 0.28659 252 224 221
-0.44054 -0.25461 0.0843 252 224 221
-0.16034 -0.25461 0.28659 252 224 221
-0.16034 0.0588 0.28659 252 224 221
-0.20051 0.10704 0 252 224 221
-0.46225 0.10704 0 252 224 221
-0.20051 0.10704 0.28659 252 224 221
-0.46225 0.10704 0.28659 252 224 221
-0.24153 -0.31191 0.0843 240 240 240
-0.24153 -0.31191 0 240 240 240
-0.42048 -0.31191 0 240 240 240
-0.42048 -0.31191 0.0843 240 240 240
-0.21875 -0.25461 0.0843 240 240 240
-0.21875 -0.25461 0 240 240 240
-0.44054 -0.25461 0 240 240 240
-0.44054 -0.25461 0.0843 240 240 240
-0.44054 -0.25461 0.0843 244 244 244
-0.21875 -0.25461 0.0843 244 244 244
-0.24153 -0.31191 0.0843 244 244 244
-0.42048 -0.31191 0.0843 244 244 244
3 0 2 1
3 0 3 2
3 1 2 4
3 1 4 5
3 3 0 6
3 3 6 7
3 8 10 9
3 8 11 10
3 8 9 12
3 8 12 13
3 12 14 13
3 12 15 14
3 9 15 12
3 9 10 15
3 13 14 16
3 13 16 17
3 11 8 18
3 11 18 19
3 19 18 20
3 8 20 18
3 19 20 21
3 8 22 20
3 8 13 22
3 23 13 17
3 22 13 23
3 23 17 24
3 22 23 25
3 25 23 26
3 23 27 26
3 23 28 27
3 28 29 27
3 28 30 29
3 14 30 28
3 14 28 31
3 24 31 28
3 24 28 23
3 14 31 16
3 11 30 14
3 30 11 19
3 30 19 21
3 11 14 15
3 11 15 10
3 27 29 32
3 27 32 33
3 34 33 32
3 34 32 35
3 17 31 24
3 17 16 31
3 26 33 34
3 26 27 33
3 25 26 34
3 25 34 35
3 36 38 37
3 36 39 38
3 37 38 40
3 37 40 41
3 42 39 36
3 42 36 43
3 38 44 40
3 38 45 44
3 39 45 38
3 44 45 46
3 39 46 45
3 44 46 47
3 39 47 46
3 39 42 47
3 43 36 48
3 37 48 36
3 43 48 49
3 49 48 50
3 37 50 48
3 41 50 37
3 49 50 51
3 41 51 50
3 52 54 53
3 52 55 54
3 56 52 53
3 56 53 57
3 53 54 58
3 53 58 59
3 57 53 59
3 57 59 60
3 61 57 60
3 57 61 62
3 57 62 56
3 62 61 63
3 62 63 64
3 64 63 65
3 64 65 66
3 63 61 67
3 61 60 67
3 63 67 68
3 65 63 68
3 65 68 69
3 56 62 70
3 56 70 71
3 62 72 70
3 62 64 72
3 64 73 72
3 64 66 73
3 73 70 72
3 73 71 70
3 74 71 73
3 66 74 73
3 74 75 71
3 66 76 74
3 76 77 74
3 77 75 74
3 76 78 77
3 79 78 76
3 79 76 80
3 76 65 80
3 76 66 65
3 79 80 81
3 79 81 82
3 54 79 82
3 54 82 58
3 80 69 81
3 80 65 69
3 78 83 77
3 77 83 75
3 78 55 83
3 55 75 83
3 55 52 75
3 52 71 75
3 52 56 71
3 54 55 84
3 54 84 85
3 79 54 85
3 55 86 84
3 55 78 86
3 78 87 86
3 78 79 87
3 79 85 87
3 88 90 89
3 88 91 90
3 92 91 88
3 92 93 91
3 94 93 92
3 94 95 93
3 96 98 97
3 96 99 98
3 100 99 96
3 100 101 99
3 101 98 99
3 101 102 98
3 102 97 98
3 102 103 97
3 103 96 97
3 103 100 96
3 104 106 105
3 104 107 106
3 105 106 108
3 105 108 109
3 110 112 111
3 110 113 112
3 114 113 110
3 114 110 111
3 114 115 113
3 113 116 112
3 113 115 116
3 114 111 117
3 118 120 119
3 118 121 120
3 122 121 118
3 122 123 121
3 123 120 121
3 123 124 120
3 125 118 119
3 125 122 118
3 126 128 127
3 126 129 128
3 129 130 128
3 129 131 130
3 132 126 127
3 132 127 133
3 134 136 135
3 134 137 136
3 138 134 135
3 138 137 134
3 138 135 139
3 135 140 139
3 135 136 140
3 138 141 137
3 142 144 143
3 142 145 144
3 146 142 143
3 146 143 147
3 147 143 144
3 147 144 148
3 149 142 146
3 149 145 142
3 150 152 151
3 150 153 152
3 151 152 154
3 151 154 155
3 156 153 150
3 156 157 153
3 158 160 159
3 158 161 160
3 161 162 160
3 161 163 162
3 164 158 159
3 164 165 158
3 160 162 166
3 160 166 167
3 159 160 167
3 166 168 167
3 159 167 168
3 166 169 168
3 159 169 164
3 159 168 169
3 165 170 158
3 161 158 170
3 165 171 170
3 171 172 170
3 161 170 172
3 163 161 172
3 171 173 172
3 163 172 173
3 174 176 175
3 174 177 176
3 178 177 174
3 178 179 177
3 180 175 176
3 180 176 181
3 177 182 176
3 175 180 183
3 175 183 184
3 184 183 185
3 185 183 186
3 185 186 187
3 185 187 188
3 185 188 189
3 176 190 181
3 176 191 190
3 191 192 190
3 191 193 192
3 184 185 194
3 184 194 195
3 175 184 195
3 175 195 196
3 174 175 196
3 174 196 197
3 178 174 197
3 178 197 198
3 199 178 198
3 178 199 200
3 178 200 179
3 201 200 199
3 202 200 201
3 200 202 203
3 202 188 203
3 188 202 189
3 189 202 201
3 201 199 204
3 199 198 204
3 201 204 205
3 189 201 205
3 189 205 206
3 185 189 206
3 185 206 194
3 179 200 207
3 179 207 208
3 200 209 207
3 200 203 209
3 203 210 209
3 203 188 210
3 210 207 209
3 210 208 207
3 188 211 210
3 188 187 211
3 211 208 210
3 211 212 208
3 213 212 211
3 213 214 212
3 182 212 214
3 182 177 212
3 177 208 212
3 177 179 208
3 187 213 211
3 187 186 213
3 215 217 216
3 215 218 217
3 216 217 219
3 216 219 220
3 220 219 221
3 220 221 222
3 223 225 224
3 223 226 225
3 223 224 227
3 223 227 228
3 225 226 229
3 225 229 230
3 231 230 229
3 231 229 232
3 230 231 233
3 230 233 234
3 235 237 236
3 235 238 237
3 238 239 237
3 240 239 238
3 240 241 239
3 242 241 240
3 243 242 240
3 243 240 244
3 244 245 243
3 244 246 245
3 247 245 246
3 247 248 245
3 241 249 239
3 241 250 249
3 250 251 249
3 250 252 251
3 247 253 248
3 254 253 247
3 254 255 253
3 254 256 255
3 257 256 254
3 257 254 258
3 259 253 255
3 259 255 260
3 261 259 260
3 261 260 262
3 263 265 264
3 263 266 265
3 267 263 264
3 268 267 264
3 269 267 268
3 269 268 270
3 269 271 267
3 269 272 271
3 268 264 273
3 274 268 273
3 274 273 275
3 264 275 273
3 264 265 275
3 276 275 265
3 276 274 275
3 277 274 276
3 277 278 274
3 267 271 263
3 274 279 268
3 280 268 279
3 280 270 268
3 274 281 279
3 278 282 274
3 274 282 281
3 278 283 282
3 280 284 270
3 272 285 271
3 272 286 285
3 271 285 287
3 285 288 287
3 285 289 288
3 289 266 288
3 287 288 266
3 289 290 266
3 291 290 289
3 291 289 292
3 287 266 263
3 271 287 263
3 285 293 289
3 294 289 293
3 294 292 289
3 285 295 293
3 285 286 296
3 285 296 297
3 285 297 295
3 294 298 292
3 299 301 300
3 299 302 301
3 303 305 304
3 303 306 305
3 304 308 307
3 304 305 308
3 309 311 310
3 309 312 311
3 310 311 313
3 314 310 313
3 314 313 315
3 316 314 315
3 317 314 316
3 317 318 314
3 318 317 319
3 318 319 320
3 321 320 319
3 321 319 322
3 315 313 323
3 315 323 324
3 324 323 325
3 324 325 326
3 321 322 327
3 328 321 327
3 328 327 329
3 328 329 330
3 331 328 330
3 331 332 328
3 333 329 327
3 333 334 329
3 335 334 333
3 335 336 334
3 337 339 338
3 337 340 339
3 341 340 337
3 342 340 341
3 343 342 341
3 343 344 342
3 343 341 345
3 343 345 346
3 342 347 340
3 348 347 342
3 348 349 347
3 340 349 339
3 340 347 349
3 350 349 348
3 350 339 349
3 351 350 348
3 351 348 352
3 341 337 345
3 345 337 353
3 345 353 354
3 346 345 354
3 346 354 355
3 354 353 356
3 354 356 357
3 357 356 338
3 353 338 356
3 353 337 338
3 357 338 358
3 359 357 358
3 359 360 357
3 354 357 361
3 362 361 357
3 362 357 360
3 354 361 363
3 354 364 355
3 354 365 364
3 354 363 365
3 362 360 366
3 367 369 368
3 367 370 369
3 371 373 372
3 371 374 373
3 374 375 373
3 374 376 375
3 377 378 342
3 348 342 378
3 348 378 379
3 377 342 344
3 377 344 380
3 348 379 381
3 352 348 381
3 352 381 382
3 383 385 384
3 383 386 385
3 386 387 385
3 386 388 387
3 384 389 383
3 384 390 389
3 391 393 392
3 391 394 393
3 391 395 394
3 391 396 395
3 395 396 397
3 395 397 398
3 394 398 393
3 394 395 398
3 396 399 397
3 396 400 399
3 392 401 391
3 392 402 401
3 402 403 401
3 391 401 403
3 402 404 403
3 391 403 405
3 391 405 396
3 406 400 396
3 405 406 396
3 406 407 400
3 405 408 406
3 408 409 406
3 406 409 410
3 406 410 411
3 411 410 412
3 411 412 413
3 397 411 413
3 397 414 411
3 407 411 414
3 407 406 411
3 397 399 414
3 392 397 413
3 413 402 392
3 413 404 402
3 392 398 397
3 392 393 398
3 410 415 412
3 410 416 415
3 417 415 416
3 417 418 415
3 400 414 399
3 400 407 414
3 409 416 410
3 409 417 416
3 408 417 409
3 408 418 417
3 419 421 420
3 419 422 421
3 421 422 423
3 421 423 424
3 425 423 422
3 425 426 423
3 425 427 426
3 425 428 427
3 428 429 427
3 428 430 429
3 431 428 425
3 431 432 428
3 431 433 432
3 431 434 433
3 435 429 430
3 435 430 436
3 436 430 437
3 436 437 438
3 430 439 437
3 430 428 439
3 428 440 439
3 428 432 440
3 432 441 440
3 432 433 441
3 434 431 442
3 434 442 443
3 444 443 442
3 431 444 442
3 444 445 443
3 431 425 444
3 425 446 444
3 425 422 446
3 422 447 446
3 422 419 447
3 444 448 445
3 444 446 448
3 449 451 450
3 449 452 451
3 449 450 453
3 449 453 454
3 455 457 456
3 455 458 457
3 456 436 455
3 456 435 436
3 459 457 458
3 459 460 457
3 459 461 460
3 459 462 461
3 433 462 459
3 433 434 462
3 462 463 461
3 462 464 463
3 459 458 465
3 459 465 466
3 433 459 466
3 458 467 465
3 458 455 467
3 455 438 467
3 455 436 438
3 433 466 441
3 464 462 445
3 464 445 448
3 468 464 448
3 469 464 468
3 469 468 419
3 469 419 420
3 469 470 464
3 470 463 464
3 419 468 471
3 468 448 471
3 419 471 447
3 448 447 471
3 448 446 447
3 462 443 445
3 462 434 443
3 470 472 463
3 470 473 472
3 470 474 473
3 474 475 473
3 473 475 476
3 477 479 478
3 477 480 479
3 478 481 477
3 478 482 481
3 480 483 479
3 480 484 483
3 484 485 483
3 484 486 485
3 486 487 485
3 486 488 487
3 487 488 489
3 487 489 490
3 482 491 481
3 482 492 491
3 492 493 491
3 492 494 493
3 493 494 495
3 493 495 496
3 497 496 495
3 497 495 498
3 497 498 499
3 497 499 500
3 451 502 501
3 451 452 502
3 503 505 504
3 421 503 504
3 421 424 503
3 503 506 505
3 507 509 508
3 507 510 509
3 508 509 511
3 508 511 512
3 513 515 514
3 513 516 515
3 514 515 517
3 514 517 518
3 519 521 520
3 519 522 521
3 510 519 520
3 510 520 509
3 509 520 523
3 509 523 511
3 511 523 524
3 520 524 523
3 520 521 524
3 511 524 512
3 525 527 526
3 525 528 527
3 528 529 527
3 528 530 529
3 531 533 532
3 531 534 533
3 534 535 533
3 534 536 535
3 537 539 538
3 537 540 539
3 526 540 537
3 526 527 540
3 527 541 540
3 527 529 541
3 529 542 541
3 540 542 539
3 540 541 542
3 529 530 542
3 543 545 544
3 543 546 545
3 545 546 547
3 545 547 548
3 547 549 548
3 550 547 546
3 550 546 551
3 552 550 551
3 552 553 550
3 554 553 552
3 551 554 552
3 551 546 554
3 554 555 553
3 550 553 555
3 550 555 547
3 547 555 549
3 549 555 556
3 549 556 557
3 558 549 557
3 558 548 549
3 559 558 557
3 559 544 558
3 543 544 559
3 560 543 559
3 560 554 543
3 554 546 543
3 555 554 561
3 555 561 562
3 563 562 561
3 554 563 561
3 563 564 562
3 556 562 564
3 556 555 562
3 554 560 563
3 565 567 566
3 565 568 567
3 569 568 565
3 569 570 568
3 570 567 568
3 570 571 567
3 571 566 567
3 571 572 566
3 573 575 574
3 573 576 575
3 577 579 578
3 577 578 580
3 578 581 580
3 578 582 581
3 581 582 583
3 584 580 581
3 584 585 580
3 586 585 584
3 586 584 587
3 588 586 587
3 585 588 580
3 585 586 588
3 588 587 589
3 584 589 587
3 584 581 589
3 581 583 589
3 583 590 589
3 583 591 590
3 592 591 583
3 592 583 582
3 593 592 579
3 593 591 592
3 577 593 579
3 594 593 577
3 594 577 588
3 588 577 580
3 589 595 588
3 589 596 595
3 597 595 596
3 588 595 597
3 597 596 598
3 590 596 589
3 590 598 596
3 588 597 594
3 599 601 600
3 599 602 601
3 603 599 600
3 603 600 604
3 604 600 601
3 604 601 605
3 605 601 602
3 605 602 606
3 607 609 608
3 607 610 609
