ply
format ascii 1.0
element vertex 623
property float x
property float y
property float z
property uchar red
property uchar green
property uchar blue
element face 738
property list uchar int vertex_index
end_header
0.27058 0.55818 1.61474 220 166 176
1.09717 0.55818 1.61512 220 166 176
1.09717 0.46834 1.61512 220 166 176
0.27058 0.46834 1.61474 220 166 176
1.12746 0.46834 1.5881 220 166 176
1.12746 0.55818 1.5881 220 166 176
0.23377 0.55818 1.58319 220 166 176
0.23377 0.46834 1.58319 220 166 176
0.27058 0.46834 1.031 210 159 168
0.68803 0.46834 1.03048 210 159 168
0.68803 0.55818 1.03048 210 159 168
0.27058 0.55818 1.031 210 159 168
0.72672 0.46834 1.0652 210 159 168
0.72624 0.46834 1.22292 210 159 168
0.72624 0.55818 1.22292 210 159 168
0.72672 0.55818 1.0652 210 159 168
0.88826 0.55818 1.22309 210 159 168
0.88826 0.46834 1.22309 210 159 168
0.23377 0.46834 1.06254 210 159 168
0.23377 0.55818 1.06254 210 159 168
0.23377 0.46834 1.58319 210 159 168
0.23377 0.55818 1.58319 210 159 168
0.27058 0.46834 1.61474 210 159 168
0.92757 0.46834 1.41587 210 159 168
0.92751 0.46834 1.25797 210 159 168
1.09717 0.46834 1.61512 210 159 168
1.09717 0.46834 1.41589 210 159 168
1.09717 0.55818 1.41589 210 159 168
0.92757 0.55818 1.41587 210 159 168
1.09717 0.55818 1.61512 210 159 168
0.27058 0.55818 1.61474 210 159 168
0.92751 0.55818 1.25797 210 159 168
1.12746 0.55818 1.5881 210 159 168
1.12746 0.55818 1.44291 210 159 168
1.12746 0.46834 1.44291 210 159 168
1.12746 0.46834 1.5881 210 159 168
0.23465 -0.64259 1.3909 236 204 190
0.24901 -0.64259 1.40421 236 204 190
0.24901 -0.64259 1.26143 236 204 190
0.23465 -0.64259 1.27539 236 204 190
0.24901 -0.63554 1.26143 236 204 190
0.24901 -0.63554 1.40421 236 204 190
0.23465 -0.63554 1.27539 236 204 190
0.23465 -0.63554 1.3909 236 204 190
0.22214 -0.63554 1.26143 236 204 190
0.22214 -0.64259 1.26143 236 204 190
0.22214 -0.64259 1.27539 236 204 190
0.22214 -0.63554 1.27539 236 204 190
0.22214 -0.64259 1.3909 236 204 190
0.22214 -0.63554 1.3909 236 204 190
0.22214 -0.64259 1.40421 236 204 190
0.22214 -0.63554 1.40421 236 204 190
-0.65875 -0.56387 0.34123 248 215 201
-0.65875 -0.56387 1.71615 248 215 201
-0.56261 -0.63844 1.71615 248 215 201
-0.56261 -0.63844 0.34123 248 215 201
-0.65875 0.39894 0.34123 248 215 201
-0.65875 0.39894 1.71615 248 215 201
-0.50213 -0.56763 1.80243 248 215 201
-0.58794 -0.50107 1.80243 248 215 201
-0.58794 0.33614 1.80243 248 215 201
-0.56261 0.47352 1.71615 248 215 201
-0.56261 0.47352 0.34123 248 215 201
0.56261 0.47352 1.71615 248 215 201
0.56261 0.47352 0.34123 248 215 201
0.65875 0.39894 1.71615 248 215 201
0.65875 0.39894 0.34123 248 215 201
-0.50213 0.4027 1.80243 248 215 201
0.50213 0.4027 1.80243 248 215 201
0.58794 0.33614 1.80243 248 215 201
-0.51573 0.41862 0.27059 248 215 201
-0.60386 0.35026 0.27059 248 215 201
0.51573 0.41862 0.27059 248 215 201
0.60386 0.35026 0.27059 248 215 201
0.60386 -0.51519 0.27059 248 215 201
-0.60386 -0.51519 0.27059 248 215 201
0.65875 -0.56387 0.34123 248 215 201
0.51573 -0.58355 0.27059 248 215 201
0.56261 -0.63844 0.34123 248 215 201
0.56261 -0.63844 1.71615 248 215 201
0.65875 -0.56387 1.71615 248 215 201
0.58794 -0.50107 1.80243 248 215 201
0.50213 -0.56763 1.80243 248 215 201
-0.51573 -0.58355 0.27059 248 215 201
-0.13095 -0.63844 1.06744 248 215 201
-0.13095 -0.63844 1.21566 248 215 201
0.13095 -0.63844 1.06744 248 215 201
0.13095 -0.63844 1.21566 248 215 201
0.58794 -0.50107 1.80243 250 220 207
0.50213 -0.56763 1.80243 250 220 207
-0.50213 -0.56763 1.80243 250 220 207
-0.58794 -0.50107 1.80243 250 220 207
0.58794 0.33614 1.80243 250 220 207
-0.58794 0.33614 1.80243 250 220 207
0.50213 0.4027 1.80243 250 220 207
-0.50213 0.4027 1.80243 250 220 207
-0.13095 -0.53156 1.21566 187 144 148
0.13095 -0.53156 1.21566 187 144 148
0.13095 -0.53156 1.06744 187 144 148
-0.13095 -0.53156 1.06744 187 144 148
-0.13095 -0.63844 1.21566 187 144 148
-0.13095 -0.63844 1.06744 187 144 148
0.13095 -0.63844 1.06744 187 144 148
0.13095 -0.63844 1.21566 187 144 148
-0.14762 -0.5974 1.05867 228 174 179
-0.14762 -0.5974 1.14068 228 174 179
0.14762 -0.5974 1.14068 228 174 179
0.14762 -0.5974 1.05867 228 174 179
0.14762 -0.52809 1.14068 228 174 179
-0.14762 -0.52809 1.14068 228 174 179
0.11963 -0.65511 1.26263 109 101 97
0.11963 -0.65511 1.30217 109 101 97
0.17853 -0.65511 1.30217 109 101 97
0.17853 -0.65511 1.26263 109 101 97
0.11963 -0.65511 1.40583 255 255 255
0.11963 -0.63109 1.40583 255 255 255
0.17853 -0.63109 1.40583 255 255 255
0.17853 -0.65511 1.40583 255 255 255
0.11963 -0.65511 1.37008 255 255 255
0.17853 -0.65511 1.37008 255 255 255
0.17853 -0.63109 1.37008 255 255 255
0.11963 -0.63109 1.37008 255 255 255
0.11963 -0.63109 1.26263 108 101 97
0.11963 -0.65511 1.26263 108 101 97
0.17853 -0.65511 1.26263 108 101 97
0.17853 -0.63109 1.26263 108 101 97
0.17853 -0.63109 1.30217 108 101 97
0.17853 -0.65511 1.30217 108 101 97
0.11963 -0.65511 1.30217 108 101 97
0.11963 -0.63109 1.30217 108 101 97
0.11963 -0.65511 1.30217 37 4 0
0.11963 -0.65511 1.37008 37 4 0
0.17853 -0.65511 1.37008 37 4 0
0.17853 -0.65511 1.30217 37 4 0
0.17853 -0.63109 1.37008 37 4 0
0.17853 -0.63109 1.30217 37 4 0
0.11963 -0.63109 1.30217 37 4 0
0.11963 -0.63109 1.37008 37 4 0
-0.11963 -0.65511 1.26263 109 101 97
-0.17853 -0.65511 1.26263 109 101 97
-0.17853 -0.65511 1.30217 109 101 97
-0.11963 -0.65511 1.30217 109 101 97
-0.11963 -0.65511 1.40583 255 255 255
-0.17853 -0.65511 1.40583 255 255 255
-0.17853 -0.63109 1.40583 255 255 255
-0.11963 -0.63109 1.40583 255 255 255
-0.11963 -0.65511 1.37008 255 255 255
-0.17853 -0.65511 1.37008 255 255 255
-0.17853 -0.63109 1.37008 255 255 255
-0.11963 -0.63109 1.37008 255 255 255
-0.11963 -0.63109 1.26263 108 101 97
-0.17853 -0.63109 1.26263 108 101 97
-0.17853 -0.65511 1.26263 108 101 97
-0.11963 -0.65511 1.26263 108 101 97
-0.17853 -0.63109 1.30217 108 101 97
-0.17853 -0.65511 1.30217 108 101 97
-0.11963 -0.65511 1.30217 108 101 97
-0.11963 -0.63109 1.30217 108 101 97
-0.11963 -0.65511 1.30217 37 4 0
-0.17853 -0.65511 1.30217 37 4 0
-0.17853 -0.65511 1.37008 37 4 0
-0.11963 -0.65511 1.37008 37 4 0
-0.17853 -0.63109 1.37008 37 4 0
-0.17853 -0.63109 1.30217 37 4 0
-0.11963 -0.63109 1.30217 37 4 0
-0.11963 -0.63109 1.37008 37 4 0
-0.23465 -0.64259 1.3909 236 204 190
-0.23465 -0.64259 1.27539 236 204 190
-0.24901 -0.64259 1.26143 236 204 190
-0.24901 -0.64259 1.40421 236 204 190
-0.24901 -0.63554 1.26143 236 204 190
-0.24901 -0.63554 1.40421 236 204 190
-0.23465 -0.63554 1.27539 236 204 190
-0.23465 -0.63554 1.3909 236 204 190
-0.22214 -0.63554 1.26143 236 204 190
-0.22214 -0.64259 1.26143 236 204 190
-0.22214 -0.64259 1.27539 236 204 190
-0.22214 -0.63554 1.27539 236 204 190
-0.22214 -0.64259 1.3909 236 204 190
-0.22214 -0.63554 1.3909 236 204 190
-0.22214 -0.64259 1.40421 236 204 190
-0.22214 -0.63554 1.40421 236 204 190
-0.25113 -0.74521 1.94989 248 215 200
-0.20062 -0.80241 1.94989 248 215 200
-0.20062 -0.80241 1.58298 248 215 200
-0.25113 -0.74521 1.5477 248 215 200
-0.25113 0.19169 1.94989 248 215 200
-0.25113 0.19169 1.5477 248 215 200
-0.13112 -0.80241 1.90032 248 215 200
-0.13112 -0.80241 1.71225 248 215 200
-0.20062 -0.80241 1.5477 248 215 200
0.20062 -0.80241 1.90032 248 215 200
0.20062 -0.80241 1.94989 248 215 200
0.25113 -0.74521 1.94989 248 215 200
0.20062 -0.80241 1.5477 248 215 200
0.25113 -0.74521 1.5477 248 215 200
0.25113 0.19169 1.5477 248 215 200
0.25113 0.19169 1.94989 248 215 200
-0.026 -0.80241 1.71225 248 215 200
0.09324 -0.80241 1.58298 248 215 200
-0.026 -0.80241 1.82005 248 215 200
0.09324 -0.80241 1.82005 248 215 200
0.20378 -0.72422 1.99228 248 215 200
0.16279 -0.76832 1.99228 248 215 200
-0.16279 -0.76832 1.99228 248 215 200
-0.20378 -0.72422 1.99228 248 215 200
-0.20378 0.1707 1.99228 248 215 200
-0.20062 0.24889 1.94989 248 215 200
-0.20062 0.24889 1.5477 248 215 200
0.20062 0.24889 1.94989 248 215 200
0.20062 0.24889 1.90032 248 215 200
0.20062 0.24889 1.5477 248 215 200
-0.16279 0.21059 1.99228 248 215 200
0.16279 0.21059 1.99228 248 215 200
0.20378 0.1707 1.99228 248 215 200
-0.16795 0.20885 1.51488 248 215 200
-0.21023 0.15601 1.51488 248 215 200
0.16795 0.20885 1.51488 248 215 200
0.21023 0.15601 1.51488 248 215 200
0.21023 -0.70953 1.51488 248 215 200
-0.21023 -0.70953 1.51488 248 215 200
0.16795 -0.76237 1.51488 248 215 200
-0.16795 -0.76237 1.51488 248 215 200
0.16279 0.21059 1.99228 250 220 207
0.20378 0.1707 1.99228 250 220 207
-0.20378 0.1707 1.99228 250 220 207
-0.16279 0.21059 1.99228 250 220 207
-0.20378 -0.72422 1.99228 250 220 207
0.20378 -0.72422 1.99228 250 220 207
-0.16279 -0.76832 1.99228 250 220 207
0.16279 -0.76832 1.99228 250 220 207
-0.026 -0.80241 1.82005 231 201 187
-0.13112 -0.80241 1.90032 231 201 187
0.20062 -0.80241 1.90032 231 201 187
0.09324 -0.80241 1.82005 231 201 187
-0.13112 -0.80241 1.71225 231 201 187
-0.026 -0.80241 1.71225 231 201 187
0.09324 -0.80241 1.58298 231 201 187
0.20062 -0.80241 1.5477 231 201 187
-0.20062 -0.80241 1.5477 231 201 187
-0.20062 -0.80241 1.58298 231 201 187
-0.16795 -0.76237 1.51488 231 201 187
0.16795 -0.76237 1.51488 231 201 187
0.16862 -0.21556 1.83367 248 215 200
0.56586 -0.21556 2.19135 248 215 200
0.60146 -0.25698 2.15181 248 215 200
0.20423 -0.25698 1.79413 248 215 200
0.64274 -0.25698 2.10597 248 215 200
0.41024 -0.25698 1.56533 248 215 200
0.76621 -0.25698 1.96884 248 215 200
0.80748 -0.25698 1.923 248 215 200
0.84308 -0.21556 1.88346 248 215 200
0.44585 -0.21556 1.52579 248 215 200
0.84308 0.05807 1.88346 248 215 200
0.44585 0.05807 1.52579 248 215 200
0.41024 0.09948 1.56533 248 215 200
0.80748 0.09948 1.923 248 215 200
0.7615 -0.25698 2.21277 248 215 200
0.88484 -0.25698 2.07578 248 215 200
0.79734 -0.25698 2.21377 248 215 200
0.88958 -0.25698 2.11132 248 215 200
0.76621 0.09948 1.96884 248 215 200
0.20423 0.09948 1.79413 248 215 200
0.64274 0.09948 2.10597 248 215 200
0.60146 0.09948 2.15181 248 215 200
0.56586 0.05807 2.19135 248 215 200
0.16862 0.05807 1.83367 248 215 200
0.88484 0.09948 2.07578 248 215 200
0.7615 0.09948 2.21277 248 215 200
0.88958 0.09948 2.11132 248 215 200
0.79734 0.09948 2.21377 248 215 200
1.04917 0.03526 2.11548 104 90 77
1.04917 -0.19276 2.11548 104 90 77
0.81815 -0.19276 2.37205 104 90 77
0.81815 0.03526 2.37205 104 90 77
1.04223 -0.21556 2.06277 104 90 77
1.00663 -0.25698 2.10231 104 90 77
0.84308 -0.21556 1.88346 104 90 77
0.80748 -0.25698 1.923 104 90 77
1.04223 0.05807 2.06277 104 90 77
0.84308 0.05807 1.88346 104 90 77
1.0195 -0.22728 2.14843 104 90 77
0.80061 -0.25698 2.33112 104 90 77
0.84782 -0.22728 2.3391 104 90 77
0.76501 -0.21556 2.37066 104 90 77
0.56586 -0.21556 2.19135 104 90 77
0.60146 -0.25698 2.15181 104 90 77
0.88958 -0.25698 2.11132 104 90 77
0.88484 -0.25698 2.07578 104 90 77
0.79734 -0.25698 2.21377 104 90 77
0.7615 -0.25698 2.21277 104 90 77
0.64274 -0.25698 2.10597 104 90 77
0.76621 -0.25698 1.96884 104 90 77
1.00663 0.09948 2.10231 104 90 77
0.80748 0.09948 1.923 104 90 77
1.0195 0.06978 2.14843 104 90 77
0.84782 0.06978 2.3391 104 90 77
0.80061 0.09948 2.33112 104 90 77
0.76501 0.05807 2.37066 104 90 77
0.56586 0.05807 2.19135 104 90 77
0.60146 0.09948 2.15181 104 90 77
0.79734 0.09948 2.21377 104 90 77
0.7615 0.09948 2.21277 104 90 77
0.88958 0.09948 2.11132 104 90 77
0.76621 0.09948 1.96884 104 90 77
0.88484 0.09948 2.07578 104 90 77
0.64274 0.09948 2.10597 104 90 77
0.16862 0.05807 1.83367 250 220 207
0.56586 0.05807 2.19135 250 220 207
0.56586 -0.21556 2.19135 250 220 207
0.16862 -0.21556 1.83367 250 220 207
0.56586 0.05807 2.19135 109 95 81
0.76501 0.05807 2.37066 109 95 81
0.76501 -0.21556 2.37066 109 95 81
0.56586 -0.21556 2.19135 109 95 81
0.81815 0.03526 2.37205 109 95 81
0.81815 -0.19276 2.37205 109 95 81
-0.16862 -0.21556 1.83367 248 215 200
-0.20423 -0.25698 1.79413 248 215 200
-0.60146 -0.25698 2.15181 248 215 200
-0.56586 -0.21556 2.19135 248 215 200
-0.64274 -0.25698 2.10597 248 215 200
-0.41024 -0.25698 1.56533 248 215 200
-0.76621 -0.25698 1.96884 248 215 200
-0.80748 -0.25698 1.923 248 215 200
-0.84308 -0.21556 1.88346 248 215 200
-0.44585 -0.21556 1.52579 248 215 200
-0.84308 0.05807 1.88346 248 215 200
-0.44585 0.05807 1.52579 248 215 200
-0.41024 0.09948 1.56533 248 215 200
-0.80748 0.09948 1.923 248 215 200
-0.7615 -0.25698 2.21277 248 215 200
-0.88484 -0.25698 2.07578 248 215 200
-0.79734 -0.25698 2.21377 248 215 200
-0.88958 -0.25698 2.11132 248 215 200
-0.76621 0.09948 1.96884 248 215 200
-0.20423 0.09948 1.79413 248 215 200
-0.64274 0.09948 2.10597 248 215 200
-0.60146 0.09948 2.15181 248 215 200
-0.56586 0.05807 2.19135 248 215 200
-0.16862 0.05807 1.83367 248 215 200
-0.88484 0.09948 2.07578 248 215 200
-0.7615 0.09948 2.21277 248 215 200
-0.88958 0.09948 2.11132 248 215 200
-0.79734 0.09948 2.21377 248 215 200
-1.04917 0.03526 2.11548 104 90 77
-0.81815 0.03526 2.37205 104 90 77
-0.81815 -0.19276 2.37205 104 90 77
-1.04917 -0.19276 2.11548 104 90 77
-1.04223 -0.21556 2.06277 104 90 77
-1.00663 -0.25698 2.10231 104 90 77
-0.84308 -0.21556 1.88346 104 90 77
-0.80748 -0.25698 1.923 104 90 77
-1.04223 0.05807 2.06277 104 90 77
-0.84308 0.05807 1.88346 104 90 77
-1.0195 -0.22728 2.14843 104 90 77
-0.80061 -0.25698 2.33112 104 90 77
-0.84782 -0.22728 2.3391 104 90 77
-0.76501 -0.21556 2.37066 104 90 77
-0.56586 -0.21556 2.19135 104 90 77
-0.60146 -0.25698 2.15181 104 90 77
-1.0195 0.06978 2.14843 104 90 77
-1.00663 0.09948 2.10231 104 90 77
-0.80748 0.09948 1.923 104 90 77
-0.84782 0.06978 2.3391 104 90 77
-0.80061 0.09948 2.33112 104 90 77
-0.76501 0.05807 2.37066 104 90 77
-0.56586 0.05807 2.19135 104 90 77
-0.60146 0.09948 2.15181 104 90 77
-0.79734 0.09948 2.21377 104 90 77
-0.7615 0.09948 2.21277 104 90 77
-0.88958 0.09948 2.11132 104 90 77
-0.76621 0.09948 1.96884 104 90 77
-0.88484 0.09948 2.07578 104 90 77
-0.64274 0.09948 2.10597 104 90 77
-0.16862 0.05807 1.83367 250 220 207
-0.16862 -0.21556 1.83367 250 220 207
-0.56586 -0.21556 2.19135 250 220 207
-0.56586 0.05807 2.19135 250 220 207
-0.56586 0.05807 2.19135 109 95 81
-0.56586 -0.21556 2.19135 109 95 81
-0.76501 -0.21556 2.37066 109 95 81
-0.76501 0.05807 2.37066 109 95 81
-0.81815 -0.19276 2.37205 109 95 81
-0.81815 0.03526 2.37205 109 95 81
-0.88484 -0.25698 2.07578 104 90 77
-0.88958 -0.25698 2.11132 104 90 77
-0.79734 -0.25698 2.21377 104 90 77
-0.76621 -0.25698 1.96884 104 90 77
-0.7615 -0.25698 2.21277 104 90 77
-0.64274 -0.25698 2.10597 104 90 77
-0.27058 0.55818 1.61474 220 166 176
-0.27058 0.46834 1.61474 220 166 176
-1.09717 0.46834 1.61512 220 166 176
-1.09717 0.55818 1.61512 220 166 176
-1.12746 0.46834 1.5881 220 166 176
-1.12746 0.55818 1.5881 220 166 176
-0.23377 0.55818 1.58319 220 166 176
-0.23377 0.46834 1.58319 220 166 176
-0.27058 0.46834 1.031 210 159 168
-0.27058 0.55818 1.031 210 159 168
-0.68803 0.55818 1.03048 210 159 168
-0.68803 0.46834 1.03048 210 159 168
-0.72672 0.46834 1.0652 210 159 168
-0.72624 0.46834 1.22292 210 159 168
-0.72624 0.55818 1.22292 210 159 168
-0.72672 0.55818 1.0652 210 159 168
-0.88826 0.55818 1.22309 210 159 168
-0.88826 0.46834 1.22309 210 159 168
-0.23377 0.46834 1.06254 210 159 168
-0.23377 0.55818 1.06254 210 159 168
-0.23377 0.46834 1.58319 210 159 168
-0.23377 0.55818 1.58319 210 159 168
-0.27058 0.46834 1.61474 210 159 168
-0.92757 0.46834 1.41587 210 159 168
-0.92751 0.46834 1.25797 210 159 168
-1.09717 0.46834 1.61512 210 159 168
-1.09717 0.46834 1.41589 210 159 168
-1.09717 0.55818 1.41589 210 159 168
-0.92757 0.55818 1.41587 210 159 168
-1.09717 0.55818 1.61512 210 159 168
-0.27058 0.55818 1.61474 210 159 168
-0.92751 0.55818 1.25797 210 159 168
-1.12746 0.55818 1.5881 210 159 168
-1.12746 0.55818 1.44291 210 159 168
-1.12746 0.46834 1.44291 210 159 168
-1.12746 0.46834 1.5881 210 159 168
0.14421 0.41368 0.21337 248 215 200
0.14421 0.41368 0.87222 248 215 200
0.19765 0.48459 0.87222 248 215 200
0.19765 0.48459 0.21271 248 215 200
0.19795 0.67045 0.45502 248 215 200
0.19799 0.67046 0.72241 248 215 200
0.1989 1.33525 0.21271 248 215 200
0.19868 1.16131 0.45502 248 215 200
0.19868 1.16131 0.97833 248 215 200
0.1989 1.33525 1.21478 248 215 200
0.19765 0.48459 0.97833 248 215 200
0.19765 0.48459 1.21478 248 215 200
0.14575 1.40636 0.21337 248 215 200
0.14575 1.40636 1.215 248 215 200
-0.14422 1.40679 1.215 248 215 200
-0.14422 1.40679 0.21337 248 215 200
0.14421 0.41368 0.97833 248 215 200
0.14421 0.41368 1.215 248 215 200
0.16032 0.49457 1.26281 248 215 200
0.12663 0.45375 1.26302 248 215 200
0.16133 1.32529 1.26281 248 215 200
0.12797 1.36632 1.26302 248 215 200
-0.12663 1.36672 1.26302 248 215 200
0.12797 1.36632 0.16534 248 215 200
-0.12663 1.36672 0.16534 248 215 200
0.16133 1.32529 0.16468 248 215 200
-0.16032 1.3259 0.16468 248 215 200
0.16032 0.49457 0.16468 248 215 200
0.12663 0.45375 0.16534 248 215 200
-0.16133 0.49518 0.16468 248 215 200
-0.16032 1.3259 1.26281 250 220 207
0.16133 1.32529 1.26281 250 220 207
0.16032 0.49457 1.26281 250 220 207
-0.16133 0.49518 1.26281 250 220 207
0.12797 1.36632 1.26302 250 220 207
-0.12663 1.36672 1.26302 250 220 207
-0.14575 0.41411 1.215 248 215 200
-0.14575 0.41411 0.97833 248 215 200
-0.1989 0.48521 0.97833 248 215 200
-0.1989 0.48521 1.21478 248 215 200
-0.19765 1.33588 1.21478 248 215 200
-0.19788 1.1619 0.97833 248 215 200
-0.19788 1.1619 0.45502 248 215 200
-0.19765 1.33588 0.21271 248 215 200
-0.19861 0.67104 0.45502 248 215 200
-0.1989 0.48521 0.21271 248 215 200
-0.16133 0.49518 1.26281 248 215 200
-0.16032 1.3259 1.26281 248 215 200
-0.12797 0.45415 1.26302 248 215 200
-0.14575 0.41411 0.21337 248 215 200
-0.14575 0.41411 0.87222 248 215 200
-0.1989 0.48521 0.87222 248 215 200
-0.12797 0.45415 0.16534 248 215 200
-0.19855 0.67046 0.72241 248 215 200
-0.19838 0.78919 0.72241 248 215 200
-0.19808 1.02711 0.87222 248 215 200
-0.19808 1.02711 0.5726 248 215 200
-0.19845 0.78919 0.5726 248 215 200
-0.14575 0.41411 0.97833 231 201 187
-0.14575 0.41411 0.87222 231 201 187
-0.1989 0.48521 0.87222 231 201 187
-0.1989 0.48521 0.97833 231 201 187
0.14421 0.41368 0.97833 231 201 187
0.14421 0.41368 0.87222 231 201 187
-0.19808 1.02711 0.87222 231 201 187
-0.19788 1.1619 0.97833 231 201 187
-0.19808 1.02711 0.5726 231 201 187
-0.19788 1.1619 0.45502 231 201 187
-0.19845 0.78919 0.5726 231 201 187
-0.19861 0.67104 0.45502 231 201 187
-0.19855 0.67046 0.72241 231 201 187
-0.19838 0.78919 0.72241 231 201 187
0.19765 0.48459 0.97833 231 201 187
0.19765 0.48459 0.87222 231 201 187
0.19868 1.16131 0.97833 231 201 187
0.19848 1.02652 0.87222 231 201 187
0.19848 1.02652 0.5726 231 201 187
0.19868 1.16131 0.45502 231 201 187
0.19795 0.67045 0.45502 231 201 187
0.19808 0.78919 0.5726 231 201 187
0.19815 0.78919 0.72241 231 201 187
0.19799 0.67046 0.72241 231 201 187
0.12663 0.45375 1.26302 250 220 207
-0.12797 0.45415 1.26302 250 220 207
0.19815 0.78919 0.72241 248 215 200
0.19848 1.02652 0.87222 248 215 200
0.19848 1.02652 0.5726 248 215 200
0.19808 0.78919 0.5726 248 215 200
0.51593 -0.30157 1.27293 248 215 200
0.99158 -0.30155 1.27285 248 215 200
0.9915 -0.30141 0.91701 248 215 200
0.51593 -0.3014 0.91709 248 215 200
1.04613 -0.25648 0.95853 248 215 200
1.04619 -0.25659 1.23134 248 215 200
0.51593 0.08352 1.27311 250 220 207
0.99146 0.08353 1.273 250 220 207
0.99158 -0.30155 1.27285 250 220 207
0.51593 -0.30157 1.27293 250 220 207
1.04619 -0.25659 1.23134 250 220 207
1.0461 0.03864 1.23146 250 220 207
0.51593 0.08368 0.91727 248 215 200
0.99138 0.08367 0.91716 248 215 200
0.99146 0.08353 1.273 248 215 200
0.51593 0.08352 1.27311 248 215 200
1.04604 0.03875 0.95864 248 215 200
1.0461 0.03864 1.23146 248 215 200
-0.51593 -0.30157 1.27293 248 215 200
-0.51593 -0.3014 0.91709 248 215 200
-0.9915 -0.30141 0.91701 248 215 200
-0.99158 -0.30155 1.27285 248 215 200
-1.04613 -0.25648 0.95853 248 215 200
-1.04619 -0.25659 1.23134 248 215 200
-0.51593 0.08352 1.27311 250 220 207
-0.51593 -0.30157 1.27293 250 220 207
-0.99158 -0.30155 1.27285 250 220 207
-0.99146 0.08353 1.273 250 220 207
-1.04619 -0.25659 1.23134 250 220 207
-1.0461 0.03864 1.23146 250 220 207
-0.51593 0.08368 0.91727 248 215 200
-0.51593 0.08352 1.27311 248 215 200
-0.99146 0.08353 1.273 248 215 200
-0.99138 0.08367 0.91716 248 215 200
-1.04604 0.03875 0.95864 248 215 200
-1.0461 0.03864 1.23146 248 215 200
0.16034 -0.25461 0 248 215 200
0.21875 -0.25461 0.0843 248 215 200
0.21875 -0.25461 0 248 215 200
0.21875 -0.15166 0 248 215 200
0.16034 0.0588 0 248 215 200
0.16034 0.0588 0.28659 248 215 200
0.16034 -0.25461 0.28659 248 215 200
0.44054 -0.25461 0.0843 248 215 200
0.50242 -0.25461 0.28659 248 215 200
0.50242 -0.25461 0 248 215 200
0.50242 0.0588 0.28659 248 215 200
0.50242 0.0588 0 248 215 200
0.44054 -0.15166 0 248 215 200
0.44054 -0.25461 0 248 215 200
0.4038 -0.10193 0 248 215 200
0.25896 -0.10193 0 248 215 200
0.25896 0.03774 0 248 215 200
0.4038 0.03774 0 248 215 200
0.20051 0.10704 0 248 215 200
0.46225 0.10704 0 248 215 200
0.20051 0.10704 0.28659 248 215 200
0.46225 0.10704 0.28659 248 215 200
0.24153 -0.31191 0.0843 239 239 239
0.42048 -0.31191 0.0843 239 239 239
0.42048 -0.31191 0 239 239 239
0.24153 -0.31191 0 239 239 239
0.21875 -0.25461 0.0843 239 239 239
0.21875 -0.25461 0 239 239 239
0.44054 -0.25461 0 239 239 239
0.44054 -0.15166 0 239 239 239
0.21875 -0.15166 0 239 239 239
0.44054 -0.25461 0.0843 239 239 239
0.25896 0.03774 0 228 161 168
0.25896 -0.10193 0 228 161 168
0.4038 -0.10193 0 228 161 168
0.4038 0.03774 0 228 161 168
-0.16034 -0.25461 0 248 215 200
-0.21875 -0.25461 0 248 215 200
-0.21875 -0.25461 0.0843 248 215 200
-0.21875 -0.15166 0 248 215 200
-0.16034 0.0588 0 248 215 200
-0.16034 0.0588 0.28659 248 215 200
-0.16034 -0.25461 0.28659 248 215 200
-0.44054 -0.25461 0.0843 248 215 200
-0.50242 -0.25461 0.28659 248 215 200
-0.50242 -0.25461 0 248 215 200
-0.50242 0.0588 0.28659 248 215 200
-0.50242 0.0588 0 248 215 200
-0.44054 -0.15166 0 248 215 200
-0.44054 -0.25461 0 248 215 200
-0.4038 -0.10193 0 248 215 200
-0.25896 -0.10193 0 248 215 200
-0.25896 0.03774 0 248 215 200
-0.4038 0.03774 0 248 215 200
-0.20051 0.10704 0 248 215 200
-0.46225 0.10704 0 248 215 200
-0.20051 0.10704 0.28659 248 215 200
-0.46225 0.10704 0.28659 248 215 200
-0.24153 -0.31191 0.0843 239 239 239
-0.24153 -0.31191 0 239 239 239
-0.42048 -0.31191 0 239 239 239
-0.42048 -0.31191 0.0843 239 239 239
-0.21875 -0.25461 0.0843 239 239 239
-0.21875 -0.25461 0 239 239 239
-0.44054 -0.25461 0 239 239 239
-0.44054 -0.15166 0 239 239 239
-0.21875 -0.15166 0 239 239 239
-0.44054 -0.25461 0.0843 239 239 239
-0.25896 0.03774 0 228 161 168
-0.4038 0.03774 0 228 161 168
-0.4038 -0.10193 0 228 161 168
-0.25896 -0.10193 0 228 161 168
3 0 2 1
3 0 3 2
3 1 2 4
3 1 4 5
3 3 0 6
3 3 6 7
3 8 10 9
3 8 11 10
3 8 9 12
3 8 12 13
3 12 14 13
3 12 15 14
3 9 15 12
3 9 10 15
3 13 14 16
3 13 16 17
3 11 8 18
3 11 18 19
3 19 18 20
3 8 20 18
3 19 20 21
3 8 22 20
3 8 13 22
3 23 13 17
3 22 13 23
3 23 17 24
3 22 23 25
3 25 23 26
3 23 27 26
3 23 28 27
3 28 29 27
3 28 30 29
3 14 30 28
3 14 28 31
3 24 31 28
3 24 28 23
3 14 31 16
3 11 30 14
3 30 11 19
3 30 19 21
3 11 14 15
3 11 15 10
3 27 29 32
3 27 32 33
3 34 33 32
3 34 32 35
3 17 31 24
3 17 16 31
3 26 33 34
3 26 27 33
3 25 26 34
3 25 34 35
3 36 38 37
3 36 39 38
3 37 38 40
3 37 40 41
3 42 39 36
3 42 36 43
3 38 44 40
3 38 45 44
3 39 45 38
3 44 45 46
3 39 46 45
3 44 46 47
3 39 47 46
3 39 42 47
3 43 36 48
3 37 48 36
3 43 48 49
3 49 48 50
3 37 50 48
3 41 50 37
3 49 50 51
3 41 51 50
3 52 54 53
3 52 55 54
3 56 52 53
3 56 53 57
3 53 54 58
3 53 58 59
3 57 53 59
3 57 59 60
3 61 57 60
3 57 61 62
3 57 62 56
3 62 61 63
3 62 63 64
3 64 63 65
3 64 65 66
3 63 61 67
3 61 60 67
3 63 67 68
3 65 63 68
3 65 68 69
3 56 62 70
3 56 70 71
3 62 72 70
3 62 64 72
3 64 73 72
3 64 66 73
3 73 70 72
3 73 71 70
3 74 71 73
3 66 74 73
3 74 75 71
3 66 76 74
3 76 77 74
3 77 75 74
3 76 78 77
3 79 78 76
3 79 76 80
3 76 65 80
3 76 66 65
3 79 80 81
3 79 81 82
3 54 79 82
3 54 82 58
3 80 69 81
3 80 65 69
3 78 83 77
3 77 83 75
3 78 55 83
3 55 75 83
3 55 52 75
3 52 71 75
3 52 56 71
3 54 55 84
3 54 84 85
3 79 54 85
3 55 86 84
3 55 78 86
3 78 87 86
3 78 79 87
3 79 85 87
3 88 90 89
3 88 91 90
3 92 91 88
3 92 93 91
3 94 93 92
3 94 95 93
3 96 98 97
3 96 99 98
3 100 99 96
3 100 101 99
3 101 98 99
3 101 102 98
3 102 97 98
3 102 103 97
3 103 96 97
3 103 100 96
3 104 106 105
3 104 107 106
3 105 106 108
3 105 108 109
3 110 112 111
3 110 113 112
3 114 116 115
3 114 117 116
3 118 117 114
3 118 119 117
3 119 116 117
3 119 120 116
3 121 114 115
3 121 118 114
3 122 124 123
3 122 125 124
3 124 125 126
3 124 126 127
3 122 123 128
3 122 128 129
3 130 132 131
3 130 133 132
3 133 134 132
3 133 135 134
3 136 130 131
3 136 131 137
3 138 140 139
3 138 141 140
3 142 144 143
3 142 145 144
3 146 142 143
3 146 143 147
3 147 143 144
3 147 144 148
3 149 142 146
3 149 145 142
3 150 152 151
3 150 153 152
3 152 154 151
3 152 155 154
3 150 156 153
3 150 157 156
3 158 160 159
3 158 161 160
3 159 160 162
3 159 162 163
3 164 161 158
3 164 165 161
3 166 168 167
3 166 169 168
3 169 170 168
3 169 171 170
3 172 166 167
3 172 173 166
3 168 170 174
3 168 174 175
3 167 168 175
3 174 176 175
3 167 175 176
3 174 177 176
3 167 177 172
3 167 176 177
3 173 178 166
3 169 166 178
3 173 179 178
3 179 180 178
3 169 178 180
3 171 169 180
3 179 181 180
3 171 180 181
3 182 184 183
3 182 185 184
3 186 185 182
3 186 187 185
3 188 183 184
3 188 184 189
3 185 190 184
3 183 188 191
3 183 191 192
3 192 191 193
3 193 191 194
3 193 194 195
3 193 195 196
3 193 196 197
3 184 198 189
3 184 199 198
3 199 200 198
3 199 201 200
3 192 193 202
3 192 202 203
3 183 192 203
3 183 203 204
3 182 183 204
3 182 204 205
3 186 182 205
3 186 205 206
3 207 186 206
3 186 207 208
3 186 208 187
3 209 208 207
3 210 208 209
3 208 210 211
3 210 196 211
3 196 210 197
3 197 210 209
3 209 207 212
3 207 206 212
3 209 212 213
3 197 209 213
3 197 213 214
3 193 197 214
3 193 214 202
3 187 208 215
3 187 215 216
3 208 217 215
3 208 211 217
3 211 218 217
3 211 196 218
3 218 215 217
3 218 216 215
3 196 219 218
3 196 195 219
3 219 216 218
3 219 220 216
3 221 220 219
3 221 222 220
3 190 220 222
3 190 185 220
3 185 216 220
3 185 187 216
3 195 221 219
3 195 194 221
3 223 225 224
3 223 226 225
3 224 225 227
3 224 227 228
3 228 227 229
3 228 229 230
3 231 233 232
3 231 234 233
3 231 232 235
3 231 235 236
3 233 234 237
3 233 237 238
3 239 238 237
3 239 237 240
3 238 239 241
3 238 241 242
3 243 245 244
3 243 246 245
3 246 247 245
3 248 247 246
3 248 249 247
3 250 249 248
3 251 250 248
3 251 248 252
3 252 253 251
3 252 254 253
3 255 253 254
3 255 256 253
3 249 257 247
3 249 258 257
3 258 259 257
3 258 260 259
3 255 261 256
3 262 261 255
3 262 263 261
3 262 264 263
3 265 264 262
3 265 262 266
3 267 261 263
3 267 263 268
3 269 267 268
3 269 268 270
3 271 273 272
3 271 274 273
3 275 271 272
3 276 275 272
3 277 275 276
3 277 276 278
3 277 279 275
3 277 280 279
3 276 272 281
3 282 276 281
3 282 281 283
3 272 283 281
3 272 273 283
3 284 283 273
3 284 282 283
3 285 282 284
3 285 286 282
3 275 279 271
3 282 287 276
3 288 276 287
3 288 278 276
3 282 289 287
3 286 290 282
3 282 290 289
3 286 291 290
3 288 292 278
3 280 293 279
3 280 294 293
3 279 293 295
3 293 296 295
3 293 297 296
3 297 274 296
3 295 296 274
3 297 298 274
3 299 298 297
3 299 297 300
3 295 274 271
3 279 295 271
3 293 301 297
3 302 297 301
3 302 300 297
3 293 303 301
3 293 294 304
3 293 304 305
3 293 305 303
3 302 306 300
3 307 309 308
3 307 310 309
3 311 313 312
3 311 314 313
3 312 316 315
3 312 313 316
3 317 319 318
3 317 320 319
3 318 319 321
3 322 318 321
3 322 321 323
3 324 322 323
3 325 322 324
3 325 326 322
3 326 325 327
3 326 327 328
3 329 328 327
3 329 327 330
3 323 321 331
3 323 331 332
3 332 331 333
3 332 333 334
3 329 330 335
3 336 329 335
3 336 335 337
3 336 337 338
3 339 336 338
3 339 340 336
3 341 337 335
3 341 342 337
3 343 342 341
3 343 344 342
3 345 347 346
3 345 348 347
3 349 348 345
3 350 348 349
3 351 350 349
3 351 352 350
3 351 349 353
3 351 353 354
3 350 355 348
3 356 355 350
3 356 357 355
3 348 357 347
3 348 355 357
3 358 357 356
3 358 347 357
3 359 358 356
3 359 356 360
3 349 345 353
3 353 345 361
3 353 361 362
3 354 353 362
3 354 362 363
3 362 361 364
3 362 364 365
3 365 364 346
3 361 346 364
3 361 345 346
3 365 346 366
3 367 365 366
3 367 368 365
3 362 365 369
3 370 369 365
3 370 365 368
3 362 369 371
3 362 372 363
3 362 373 372
3 362 371 373
3 370 368 374
3 375 377 376
3 375 378 377
3 379 381 380
3 379 382 381
3 382 383 381
3 382 384 383
3 385 386 350
3 356 350 386
3 356 386 387
3 385 350 352
3 385 352 388
3 356 387 389
3 360 356 389
3 360 389 390
3 391 393 392
3 391 394 393
3 394 395 393
3 394 396 395
3 392 397 391
3 392 398 397
3 399 401 400
3 399 402 401
3 399 403 402
3 399 404 403
3 403 404 405
3 403 405 406
3 402 406 401
3 402 403 406
3 404 407 405
3 404 408 407
3 400 409 399
3 400 410 409
3 410 411 409
3 399 409 411
3 410 412 411
3 399 411 413
3 399 413 404
3 414 408 404
3 413 414 404
3 414 415 408
3 413 416 414
3 416 417 414
3 414 417 418
3 414 418 419
3 419 418 420
3 419 420 421
3 405 419 421
3 405 422 419
3 415 419 422
3 415 414 419
3 405 407 422
3 400 405 421
3 421 410 400
3 421 412 410
3 400 406 405
3 400 401 406
3 418 423 420
3 418 424 423
3 425 423 424
3 425 426 423
3 408 422 407
3 408 415 422
3 417 424 418
3 417 425 424
3 416 425 417
3 416 426 425
3 427 429 428
3 427 430 429
3 429 430 431
3 429 431 432
3 433 431 430
3 433 434 431
3 433 435 434
3 433 436 435
3 436 437 435
3 436 438 437
3 439 436 433
3 439 440 436
3 439 441 440
3 439 442 441
3 443 437 438
3 443 438 444
3 444 438 445
3 444 445 446
3 438 447 445
3 438 436 447
3 436 448 447
3 436 440 448
3 440 449 448
3 440 441 449
3 442 439 450
3 442 450 451
3 452 451 450
3 439 452 450
3 452 453 451
3 439 433 452
3 433 454 452
3 433 430 454
3 430 455 454
3 430 427 455
3 452 456 453
3 452 454 456
3 457 459 458
3 457 460 459
3 457 458 461
3 457 461 462
3 463 465 464
3 463 466 465
3 464 444 463
3 464 443 444
3 467 465 466
3 467 468 465
3 467 469 468
3 467 470 469
3 441 470 467
3 441 442 470
3 470 471 469
3 470 472 471
3 467 466 473
3 467 473 474
3 441 467 474
3 466 475 473
3 466 463 475
3 463 446 475
3 463 444 446
3 441 474 449
3 472 470 453
3 472 453 456
3 476 472 456
3 477 472 476
3 477 476 427
3 477 427 428
3 477 478 472
3 478 471 472
3 427 476 479
3 476 456 479
3 427 479 455
3 456 455 479
3 456 454 455
3 470 451 453
3 470 442 451
3 478 480 471
3 478 481 480
3 478 482 481
3 482 483 481
3 481 483 484
3 485 487 486
3 485 488 487
3 486 489 485
3 486 490 489
3 488 491 487
3 488 492 491
3 492 493 491
3 492 494 493
3 494 495 493
3 494 496 495
3 495 496 497
3 495 497 498
3 490 499 489
3 490 500 499
3 500 501 499
3 500 502 501
3 501 502 503
3 501 503 504
3 505 504 503
3 505 503 506
3 505 506 507
3 505 507 508
3 459 510 509
3 459 460 510
3 511 513 512
3 429 511 512
3 429 432 511
3 511 514 513
3 515 517 516
3 515 518 517
3 516 517 519
3 516 519 520
3 521 523 522
3 521 524 523
3 522 523 525
3 522 525 526
3 527 529 528
3 527 530 529
3 518 527 528
3 518 528 517
3 517 528 531
3 517 531 519
3 519 531 532
3 528 532 531
3 528 529 532
3 519 532 520
3 533 535 534
3 533 536 535
3 536 537 535
3 536 538 537
3 539 541 540
3 539 542 541
3 542 543 541
3 542 544 543
3 545 547 546
3 545 548 547
3 534 548 545
3 534 535 548
3 535 549 548
3 535 537 549
3 537 550 549
3 548 550 547
3 548 549 550
3 537 538 550
3 551 553 552
3 551 554 553
3 555 554 551
3 556 555 551
3 556 551 557
3 551 552 557
3 557 552 558
3 557 558 559
3 558 560 559
3 560 561 559
3 560 562 561
3 563 562 560
3 563 560 564
3 558 564 560
3 565 563 554
3 565 554 566
3 566 554 555
3 566 555 567
3 555 568 567
3 555 562 568
3 565 568 562
3 565 562 563
3 562 555 569
3 562 569 570
3 571 570 569
3 555 571 569
3 571 572 570
3 561 570 572
3 561 562 570
3 555 556 571
3 573 575 574
3 573 576 575
3 577 576 573
3 577 578 576
3 578 575 576
3 578 579 575
3 579 574 575
3 578 580 579
3 578 581 580
3 579 582 574
3 582 573 574
3 582 577 573
3 583 585 584
3 583 586 585
3 587 589 588
3 587 588 590
3 591 587 590
3 592 587 591
3 592 593 587
3 587 593 589
3 593 594 589
3 593 595 594
3 594 595 596
3 596 595 597
3 596 597 598
3 599 596 598
3 599 600 596
3 594 596 600
3 601 590 599
3 601 602 590
3 602 591 590
3 602 603 591
3 591 603 604
3 591 604 598
3 601 598 604
3 601 599 598
3 598 605 591
3 598 606 605
3 607 605 606
3 591 605 607
3 607 606 608
3 597 606 598
3 597 608 606
3 591 607 592
3 609 611 610
3 609 612 611
3 613 609 610
3 613 610 614
3 614 610 611
3 614 611 615
3 615 611 612
3 614 615 616
3 614 616 617
3 615 612 618
3 618 609 613
3 618 612 609
3 619 621 620
3 619 622 621
