mtllib Jirachi.mtl
v -0.314686 0.31222 -0.0407464
vt 0.00976431 2.07655
vn -0.9991761 0.0377836 -0.0148149
v -0.124719 0.24865 -0.117811
vt 0.295088 1.77274
vn -0.4040279 -0.7339888 -0.5459139
v -0.182843 0.257503 -0.0097586
vt 0.192634 1.77274
vn -0.4397978 -0.8973597 0.03637839
v -0.126302 0.310894 -0.142918
vt 0.293426 2.10825
vn -0.3823251 -0.07849181 -0.9206881
v -0.136755 0.26509 0.139948
vt 0.246884 1.72362
vn -0.5479281 -0.5698411 0.6124181
v -0.110836 0.404907 -0.137046
vt 0.32137 2.50393
vn -0.4254101 0.4508901 -0.7846811
v -0.139022 0.327996 0.129684
vt 0.243377 2.02046
vn -0.6231093 0.1549061 0.7666414
v -0.163673 0.427075 -0.0418852
vt 0.228126 2.50393
vn -0.6254618 0.7455577 -0.2300899
v -0.13342 0.457263 0.102478
vt 0.279066 2.50393
vn -0.660737 0.530414 0.531119
v -0.0903564 0.199386 0.0141016
vt 0.336653 1.50393
vn -0.361698 -0.929531 0.07173971
v -0.00179658 0.244066 -0.155597
vt 0.509764 1.84733
vn -0.004645788 -0.4541628 -0.8909066
v -0.000821386 0.196855 -0.0882107
vt 0.509764 1.51922
vn 0.002836091 -0.9440182 -0.3298811
v -0.00270252 0.376532 -0.172402
vt 0.509764 2.41349
vn -0.00890312 0.177542 -0.984073
v 0.121971 0.25004 -0.119779
vt 0.72444 1.77274
vn 0.4041769 -0.7287068 -0.5528358
v 0.0903093 0.200404 0.0126604
vt 0.682875 1.50393
vn 0.373441 -0.9252758 0.06638199
v 0.122298 0.312295 -0.144901
vt 0.726102 2.10825
vn 0.3691121 -0.07335831 -0.9264852
v 0.105654 0.406127 -0.138773
vt 0.698159 2.50393
vn 0.4079367 0.4553367 -0.7913635
v 0.181581 0.259557 -0.0126657
vt 0.826895 1.77274
vn 0.4523269 -0.8913568 0.02972149
v 0.137597 0.266636 0.137759
vt 0.772645 1.72362
vn 0.5643968 -0.5627178 0.6039908
v 0.311427 0.315748 -0.0457411
vt 1.00976 2.07655
vn 0.9983019 0.04933209 -0.0309793
v 0.159965 0.428899 -0.044467
vt 0.791403 2.50393
vn 0.6148062 0.7511453 -0.2404041
v 0.131681 0.458757 0.100363
vt 0.740462 2.50393
vn 0.6640691 0.5366741 0.52057
v 0.13899 0.329563 0.127466
vt 0.776151 2.02046
vn 0.6343853 0.1613311 0.7559944
v 0.000133234 0.403368 0.188552
vt 0.747803 0.436168
vn 0.006290089 0.275258 0.9613498
vt 0.0821102 1.1736
v -0.000533499 0.468268 0.150827
vt 0.747803 1.1736
vn 0.002911001 0.6076242 0.7942193
v 0.0695548 0.354616 0.154492
vt 0.351797 0.184294
vn 0.4619939 0.152033 0.8737549
v 0.000472022 0.330325 0.190841
vt 1.00159 0.00663355
vn 0.007614168 0.03111689 0.9994867
v -0.0694511 0.353833 0.155601
vn -0.4494949 0.147675 0.8809918
vt -0.0208727 -0.0092361
v -0.00253174 0.660273 -0.00427061
vt 0.533651 2.53394
vn -0.006819399 0.9647418 -0.26311
v -0.00272973 0.495699 -0.105105
vt 0.533651 1.53521
vn -0.0100305 0.590019 -0.807327
v -0.111894 0.490005 -0.032243
vt -0.0535547 1.3874
vn -0.6775091 0.6530941 -0.338304
v 0.107641 0.491243 -0.0339943
vt 1.12086 1.3874
vn 0.665274 0.659688 -0.349603
v -0.0711682 0.497621 0.0377797
vt 0.240048 1.33412
vn -0.632706 0.650835 0.419639
v 0.0679535 0.498405 0.0366699
vt 0.827253 1.33412
vn 0.6326442 0.6568063 0.4103252
v -0.00108788 0.505403 0.107568
vt 0.533651 1.28085
vn 0.0006534401 0.745946 0.6660061
vt -0.0454098 0.940378
vt 1.11271 0.940378
vt 0.533651 0.779259
vt -0.175435 0.940378
vt 1.24274 0.940378
vt -0.332008 0.940378
vt 1.39931 0.940378
vt 0.533651 0.940378
v 0.000127161 0.187319 0.0380208
vt 0.49605 -0.995494
vn 0.006875377 -0.9863146 0.1647309
vt 0.533651 -0.813857
v 0.00068059 0.227544 0.144367
vn 0.008492667 -0.8934146 0.4491528
v -0.13653 0.394053 0.122862
vt 0.421496 2.0772
vn 0.04222588 0.9781875 -0.2033869
v -0.172395 0.257622 0.181956
vt 0.921496 1.28841
vn -0.6979138 0.2327339 0.6773118
v -0.112679 0.25507 0.18208
vt -0.078504 1.28841
vn 0.7124251 0.172458 0.680227
v -0.172793 0.245471 0.123436
vn -0.7073219 -0.05423469 -0.7048079
v -0.113078 0.242919 0.123559
vn 0.7030173 -0.11451 -0.7018933
v -0.144398 0.21177 0.160763
vt 0.421496 1.0772
vn -0.0202274 -0.429631 0.902778
vn -0.8212403 -0.5575292 0.121349
vn 0.7701698 -0.6255428 0.124638
vn -0.03084311 -0.7534423 -0.6567903
v 0.135827 0.395588 0.120689
vn -0.0564881 0.977631 -0.2026
v 0.114493 0.25635 0.180268
vn -0.6680448 -0.128398 0.7329598
v 0.174166 0.259575 0.179192
vn 0.7038981 -0.05425131 0.7082261
v 0.114094 0.244199 0.121747
vn -0.6772029 -0.4077509 -0.612483
v 0.173768 0.247424 0.120671
vn 0.6947402 -0.3336041 -0.6372162
v 0.146353 0.213409 0.158443
vn 0.0394682 -0.429294 0.902302
vn -0.7609833 -0.6341732 0.1368531
vn 0.8293038 -0.5482259 0.108183
vn 0.028852 -0.7531061 -0.6572661
v 0.117922 0.100388 -0.158284
vt 0.439024 1.8819
vn 0.6401097 0.3440068 0.6869636
v -0.00471613 0.191452 -0.0648262
vt -0.00916094 2.21979
vn 0.7039747 0.2768039 0.6540637
v 0.112808 0.0002026133 -0.11038
vt 0.416001 1.21979
vn 0.508812 0.350083 0.786481
v 0.174977 0.0177036 -0.119287
vt 0.643031 1.33285
vn 0.4073598 0.6041208 0.6849058
v 0.270241 -0.022091 -0.167369
vt 0.990839 1.22749
vn 0.542818 0.634225 0.550552
v -0.126365 0.100229 -0.159018
vt 0.548922 2.15444
vn 0.5407789 -0.260344 -0.7998619
v -0.00209746 0.189394 -0.0694843
vt 0.998423 2.48119
vn 0.6757338 -0.2429079 -0.6959738
v -0.118839 -0.002011431 -0.116027
vt 0.572013 1.48119
vn 0.480757 -0.309574 -0.8203881
v -0.181423 0.0146108 -0.123625
vt 0.345456 1.59615
vn -0.3232491 -0.176449 -0.9297181
v -0.276422 0.0162054 -0.07522751
vt -0.0015775 1.491
vn -0.4536559 -0.07533848 -0.8879868
vn -0.5407789 0.260344 0.7998619
vn -0.480757 0.309574 0.8203881
vn -0.6757338 0.2429079 0.6959738
vn 0.3232491 0.176449 0.9297181
vn 0.4536559 0.07533828 0.8879868
vn -0.6401097 -0.3440068 -0.6869636
vn -0.508812 -0.350083 -0.786481
vn -0.7039747 -0.2768039 -0.6540637
vn -0.4073591 -0.6041211 -0.6849061
vn -0.542818 -0.634225 -0.550552
o merged_0_0_node
g polygon_0
usemtl mat_head_mat_id
f 1/1/1 2/2/2 3/3/3
f 1/1/1 4/4/4 2/2/2
f 1/1/1 3/3/3 5/5/5
f 1/1/1 6/6/6 4/4/4
f 1/1/1 5/5/5 7/7/7
f 1/1/1 8/8/8 6/6/6
f 1/1/1 7/7/7 9/9/9
f 1/1/1 9/9/9 8/8/8
f 2/2/2 10/10/10 3/3/3
f 2/2/2 4/4/4 11/11/11
f 2/2/2 12/12/12 10/10/10
f 2/2/2 11/11/11 12/12/12
f 10/10/10 5/5/5 3/3/3
f 6/6/6 13/13/13 4/4/4
f 4/4/4 13/13/13 11/11/11
f 12/12/12 11/11/11 14/14/14
f 12/12/12 14/14/14 15/15/15
f 13/13/13 16/16/16 11/11/11
f 13/13/13 17/17/17 16/16/16
f 11/11/11 16/16/16 14/14/14
f 15/15/15 14/14/14 18/18/18
f 15/15/15 18/18/18 19/19/19
f 17/17/17 20/20/20 16/16/16
f 17/17/17 21/21/21 20/20/20
f 18/18/18 14/14/14 20/20/20
f 18/18/18 20/20/20 19/19/19
f 14/14/14 16/16/16 20/20/20
f 21/21/21 22/22/22 20/20/20
f 19/19/19 20/20/20 23/23/23
f 23/23/23 20/20/20 22/22/22
f 24/24/24 22/25/22 25/26/25
f 24/24/24 26/27/26 22/25/22
f 24/24/24 25/26/25 9/25/9
f 24/24/24 27/28/27 26/27/26
f 24/24/24 9/25/9 28/27/28
f 24/24/24 28/27/28 27/28/27
f 22/25/22 26/27/26 23/29/23
f 9/25/9 7/29/7 28/27/28
f 29/30/29 30/31/30 31/32/31
f 29/30/29 32/33/32 30/31/30
f 29/30/29 31/32/31 33/34/33
f 29/30/29 34/35/34 32/33/32
f 29/30/29 33/34/33 35/36/35
f 29/30/29 35/36/35 34/35/34
f 30/31/30 6/37/6 31/32/31
f 30/31/30 32/33/32 17/38/17
f 30/31/30 13/39/13 6/37/6
f 30/31/30 17/38/17 13/39/13
f 33/34/33 9/40/9 35/36/35
f 33/34/33 31/32/31 9/40/9
f 34/35/34 22/41/22 32/33/32
f 34/35/34 35/36/35 22/41/22
f 6/37/6 8/42/8 31/32/31
f 31/32/31 8/42/8 9/40/9
f 17/38/17 32/33/32 21/43/21
f 21/43/21 32/33/32 22/41/22
f 35/36/35 9/40/9 25/44/25
f 35/36/35 25/44/25 22/41/22
f 36/45/36 10/45/10 12/46/12
f 36/45/36 37/45/37 10/45/10
f 36/45/36 12/46/12 15/45/15
f 36/45/36 15/45/15 37/45/37
f 10/45/10 37/45/37 5/45/5
f 15/45/15 19/45/19 37/45/37
f 38/47/38 39/48/39 40/49/40
f 38/47/38 41/48/41 39/48/39
f 38/47/38 40/49/40 42/49/42
f 38/47/38 42/49/42 41/48/41
f 39/48/39 43/50/43 40/49/40
f 39/48/39 41/48/41 43/50/44
f 42/49/42 40/49/40 43/50/45
f 42/49/42 43/50/46 41/48/41
f 44/47/47 45/49/48 46/48/49
f 44/47/47 47/49/50 45/49/48
f 44/47/47 46/48/49 48/48/51
f 44/47/47 48/48/51 47/49/50
f 45/49/48 49/50/52 46/48/49
f 45/49/48 47/49/50 49/50/53
f 48/48/51 46/48/49 49/50/54
f 48/48/51 49/50/55 47/49/50
f 50/51/56 51/52/57 52/53/58
f 50/51/56 52/53/58 53/54/59
f 50/51/56 53/54/59 54/55/60
f 55/56/61 56/57/62 57/58/63
f 55/56/61 57/58/63 58/59/64
f 55/56/61 58/59/64 59/60/65
f 55/56/66 57/58/67 56/57/68
f 55/56/66 58/59/69 57/58/67
f 55/56/66 59/60/70 58/59/69
f 50/51/71 52/53/72 51/52/73
f 50/51/71 53/54/74 52/53/72
f 50/51/71 54/55/75 53/54/74
v 0.0439894 0.0427659 0.0989797
vt 0.925192 -1.69432
vn 0.479429 -0.411995 0.7748599
v -0.0456217 0.0933102 0.109012
vt 0.0517017 -0.414994
vn -0.228865 0.103353 0.9679561
v -0.0427792 0.0422081 0.100009
vt 0.0773063 -1.69432
vn -0.455583 -0.418005 0.7859491
v 0.0463874 0.0939017 0.10792
vt 0.950796 -0.414994
vn 0.250551 0.106651 0.9622109
v -0.000124651 0.0152336 0.023194
vt 0.501249 -1.505
vn 0.008109893 -0.9889873 0.147778
v 0.091358 0.0801654 0.0125841
vt 1.40034 0.358787
vn 0.9691797 -0.05499998 -0.2401369
v 0.0433849 0.0002788723 0.0249331
vt 0.925197 -1.94628
vn 0.171773 -0.9752837 0.138981
v 0.0865161 0.0314079 0.0198546
vt 1.34913 -1.05262
vn 0.9459881 -0.322196 0.0360019
v -0.0926602 0.0789826 0.0147666
vt -0.397846 0.358787
vn -0.973996 -0.0681368 -0.216077
v -0.036381 0.205535 0.0480274
vt 0.154211 3.1511
vn -0.02881531 0.7000102 0.7135512
v -0.126864 0.158679 0.106943
vt -0.737691 1.41173
vn -0.7857164 0.1985181 0.5858672
v -0.0433849 -0.0002788837 0.0259622
vt 0.0773007 -1.94628
vn -0.155878 -0.9773899 0.142867
v 0.126711 0.160309 0.103936
vt 1.74019 1.41173
vn 0.7973081 0.207638 0.5667331
v -0.087021 0.0302924 0.0219127
vt -0.346636 -1.05262
vn -0.9406489 -0.334323 0.05837729
v -0.0726282 0.195045 -0.00263285
vt -0.192828 3.71694
vn -0.8322513 0.3729241 -0.4102261
v 0.0346475 0.205991 0.047185
vt 0.848287 3.1511
vn 0.03704281 0.7006112 0.7125812
v -0.00168794 0.206284 -0.00507027
vt 0.501249 4.02925
vn -0.008642423 0.9802154 -0.1977451
v 0.0694288 0.195958 -0.00431761
vt 1.19533 3.71694
vn 0.8168238 0.3827529 -0.4316239
v -0.0446899 0.0162794 -0.0751486
vt 0.313601 1.9234
vn -0.4873861 -0.5595691 -0.6703262
v 0.0443194 0.0658377 -0.0816609
vt 0.666116 2.14769
vn 0.5015868 0.09247457 -0.8601507
v 0.0420787 0.0168371 -0.0761777
vt 0.655783 1.9234
vn 0.478504 -0.55336 -0.681782
v -0.0476897 0.0652463 -0.0805697
vt 0.303268 2.14769
vn -0.5228531 0.08551981 -0.8481221
vt 0.484692 1.72426
vt 0.14251 1.79688
vt 0.313599 1.65341
vt 0.826874 1.79688
v 0.0331826 0.185469 -0.0541423
vt 0.624746 2.65341
vn 0.478146 0.30829 -0.8223951
vt 0.84754 2.02346
vt 0.655785 1.65341
vt 0.121844 2.02346
vt 0.764801 2.56257
v -0.0378459 0.185013 -0.0532999
vt 0.344637 2.65341
vn -0.5031728 0.3012479 -0.8099796
vt 0.484692 2.61271
vt 0.984692 2.1925
vt 0.204583 2.56258
vt -0.0153081 2.1925
o merged_1_0_node
g polygon_0
usemtl mat_body_mat_id
f 60/61/76 61/62/77 62/63/78
f 60/61/76 63/64/79 61/62/77
f 60/61/76 62/63/78 64/65/80
f 60/61/76 65/66/81 63/64/79
f 60/61/76 64/65/80 66/67/82
f 60/61/76 67/68/83 65/66/81
f 60/61/76 66/67/82 67/68/83
f 61/62/77 68/69/84 62/63/78
f 61/62/77 63/64/79 69/70/85
f 61/62/77 70/71/86 68/69/84
f 61/62/77 69/70/85 70/71/86
f 64/65/80 62/63/78 71/72/87
f 65/66/81 72/73/88 63/64/79
f 68/69/84 73/74/89 62/63/78
f 62/63/78 73/74/89 71/72/87
f 69/70/85 74/75/90 70/71/86
f 69/70/85 63/64/79 75/76/91
f 69/70/85 76/77/92 74/75/90
f 69/70/85 75/76/91 76/77/92
f 63/64/79 72/73/88 75/76/91
f 76/77/92 75/76/91 77/78/93
f 77/78/93 75/76/91 72/73/88
f 78/79/94 79/80/95 80/81/96
f 78/79/94 81/82/97 79/80/95
f 78/79/94 80/81/96 64/83/80
f 78/79/94 73/84/89 81/82/97
f 78/79/94 64/83/80 71/85/87
f 78/79/94 71/85/87 73/84/89
f 79/80/95 67/86/83 80/81/96
f 79/80/95 81/82/97 82/87/98
f 79/80/95 65/88/81 67/86/83
f 79/80/95 82/87/98 65/88/81
f 64/83/80 80/81/96 66/89/82
f 66/89/82 80/81/96 67/86/83
f 73/84/89 68/90/84 81/82/97
f 82/87/98 77/91/93 65/88/81
f 82/87/98 81/82/97 83/92/99
f 82/87/98 76/93/92 77/91/93
f 82/87/98 83/92/99 76/93/92
f 81/82/97 68/90/84 83/92/99
f 65/88/81 77/91/93 72/94/88
f 76/93/92 83/92/99 74/95/90
f 83/92/99 68/90/84 74/95/90
f 68/90/84 70/96/86 74/95/90
vt 2.1333 0.923989
vt -0.402568 0.78032
v -0.0680004 0.268457 0.162438
vt 0.865368 0.775493
vn -0.267657 -0.39742 0.8777341
vt -0.436396 0.954459
v 0.0691757 0.26923 0.161344
vn 0.286088 -0.3943001 0.8733162
vt 0.848454 1.00786
o merged_2_0_node
g polygon_0
usemtl TEX_ANIM_EYE_mat_id
f 27/97/27 5/98/5 84/99/100
f 27/97/27 19/98/19 23/100/23
f 27/97/27 7/100/7 5/98/5
f 27/97/27 85/99/101 19/98/19
f 28/101/28 7/100/7 27/97/27
f 26/101/26 27/97/27 23/100/23
vt -0.412231 0.221261
vt 0.499992 -1.55738
v 0.000754592 0.271824 0.184929
vt 0.499992 0.13611
vn 0.009517409 -0.3789899 0.9253519
vt 1.41221 0.221261
vt 2.32444 0.306412
vt 0.499992 2.84109
vt -1.32445 0.306412
o merged_3_0_node
g polygon_0
usemtl mouth_mat_id
f 84/102/100 37/103/37 86/104/102
f 85/105/101 37/103/37 19/106/19
f 27/107/27 86/104/102 85/105/101
f 27/107/27 84/102/100 86/104/102
f 5/108/5 37/103/37 84/102/100
f 86/104/102 37/103/37 85/105/101
v -0.0274292 0.52577 0.10757
vt 0 0
vn 0.0025267 0.6396621 0.7686521
v 0.0241816 0.526061 0.107159
vt 0.5 0
v -0.028926 0.647719 0.006091
vt 0 1
v 0.0226848 0.64801 0.00567929
vt 0.5 1
v 0.269836 0.178667 0.0101313
vn 0.007577617 0.06761738 0.9976826
v 0.321447 0.178958 0.00971964
v 0.268965 0.319703 0.000579333
v 0.320576 0.319994 0.00016762
v -0.333978 0.171679 0.00303394
v -0.282367 0.17197 0.00262223
v -0.334849 0.312715 -0.00651808
v -0.283238 0.313006 -0.00692979
vn -0.0025267 -0.6396621 -0.7686521
vn -0.007577617 -0.06761738 -0.9976826
o merged_4_0_node
g polygon_0
usemtl mat_tanzaku_mat_id
f 87/109/103 88/110/103 89/111/103
f 89/111/103 88/110/103 90/112/103
f 91/109/104 92/110/104 93/111/104
f 93/111/104 92/110/104 94/112/104
f 95/109/104 96/110/104 97/111/104
f 97/111/104 96/110/104 98/112/104
f 87/109/105 89/111/105 88/110/105
f 88/110/105 89/111/105 90/112/105
f 91/109/106 93/111/106 92/110/106
f 92/110/106 93/111/106 94/112/106
f 95/109/106 97/111/106 96/110/106
f 96/110/106 97/111/106 98/112/106
