mtllib Beldum.mtl
v 0.056984 0.348945 0.189187
vt 0.0862556 0.584728
vn 0.9871591 0.15046 0.05365311
v 0.0804168 0.252928 0.0273137
vn 0.9887522 0.144945 0.03687711
v 0.0687506 0.34008 -0.00244486
vt 0.0307993 0.613469
vt 0.0120789 0.506218
v 0.0861993 0.260297 -0.255209
vt 0.50692 0.636405
vn 0.989769 0.140659 0.0239273
vn 0.9448541 0.326305 0.0278505
vn 0.5234332 -0.2897361 0.8012932
v 0.139473 0.102297 -0.211402
vt 0.513927 0.337227
vn 0.9532496 -0.1982189 0.2280889
v 0.0766076 0.16607 0.0205125
vt 0.067004 0.346388
vn 0.4912351 -0.2580991 0.8319092
vn 0 0.9536229 -0.301004
v -0.0861993 0.260297 -0.255209
vn 0 0.9777892 -0.209591
v -0.0687506 0.34008 -0.00244486
v -0.056984 0.348945 0.189187
vn 0 0.9989317 -0.04621119
vn -0.9871591 0.15046 0.05365321
vn -0.9889332 0.144238 0.03473511
v -0.0804167 0.252928 0.0273136
vn -0.989769 0.140659 0.0239273
v -0.0766076 0.16607 0.0205125
vn -0.4912353 -0.2580982 0.8319094
vn -0.5234332 -0.2897361 0.8012932
v -0.139473 0.102297 -0.211402
vn -0.9532496 -0.1982189 0.2280889
vn -0.9448538 0.3263059 0.0278504
v 0 0.112486 0.0353693
vt 0.067769 0.162393
vn 0 -0.5827847 0.8126266
v 0 0.00464759 -0.184327
vt 0.489104 0.0106598
vn 0 -0.8976869 0.440634
vt 0.467724 0.592999
vn 0 -0.2671841 -0.9636455
v 0 0.313994 0.199367
vn 0 -0.8041664 0.5944043
vn 0.4980677 -0.6424007 0.5824517
vn -0.4980677 -0.6424007 0.5824517
vt 0.205378 0.605384
vt 0.37614 0.742167
vt 0.0346158 0.742167
vt 0.384631 0.963889
vt 0.026125 0.963889
v 0 0.0493784 -0.180752
vt 0.971601 0.971932
vn 0 -0.9981681 -0.0605021
v 0 0.0542431 -0.261012
v 0.046566 0.0871514 -0.191225
vn 0.6228222 -0.7809302 -0.04733462
v -0.046566 0.0871514 -0.191225
vn -0.6228222 -0.7809302 -0.04733462
vn 0 0.904481 -0.426514
v 0.090501 0.200432 -0.222634
vn 0.8190128 0.3688329 -0.4395229
v 0.06787 0.167524 -0.29242
v 0.0332715 0.220407 -0.228172
vn 0.329355 0.8083321 -0.48798
v 0.0798375 0.142684 -0.206623
vn 0.952177 -0.23121 -0.199752
vn -0.8535172 -0.5201101 -0.03152551
v -0.090501 0.200432 -0.222634
vn -0.8190131 0.3688331 -0.4395221
v -0.06787 0.167524 -0.29242
v -0.0798375 0.142684 -0.206623
vn -0.952177 -0.23121 -0.199752
v -0.0332715 0.220407 -0.228172
vn -0.329355 0.8083321 -0.48798
vn 0.8535172 -0.5201101 -0.03152551
v 0.0885679 0.243881 0.0744481
vt 0.850215 0.75803
vn 0.5690062 0.5932263 -0.5694862
v 0.130709 0.15926 0.0821924
vt 0.849011 0.606646
vn 0.8506738 0.0002533339 -0.5256939
v 0.054738 0.15929 0.0196693
vt 0.981753 0.605173
vn 0.3576771 0.0004500011 -0.9338452
v 0.143306 0.106925 0.16295
vt 0.691988 0.513021
vn 0.929556 -0.368681 -0.000177685
v 0.130709 0.159182 0.243758
vt 0.552172 0.606507
vn 0.8506742 -0.0002532711 0.5256932
v 0.0885679 0.0745616 0.251502
vt 0.561675 0.455124
vn 0.5690062 -0.5932263 0.5694862
v 0 0.0223345 0.108171
vt 0.846128 0.233648
vn 0 -0.9386725 -0.3448102
v 0.0807828 0.0343429 0.162915
vt 0.700074 0.347109
vn 0.510432 -0.859918 -0.000414515
v 0 0.0222817 0.217647
vt 0.583102 0.201105
vn 0 -0.9390045 0.3439048
v -0.0885679 0.074647 0.0743665
vt 0.852889 0.435049
vn -0.569006 -0.592677 -0.570058
v -0.0807828 0.0343429 0.162915
vn -0.510432 -0.859918 -0.000414518
v -0.143306 0.106925 0.16295
vn -0.929556 -0.368681 -0.000177691
v -0.054738 0.15929 0.0196693
vn -0.3576762 0.0004500083 -0.9338456
v 0 0.0821052 0.0322288
vt 0.98221 0.397795
vn 0 -0.5406601 -0.8412412
v 0 0.296161 0.108303
vt 0.806961 0.939184
vn 0 0.9390044 -0.3439052
v 0 0.236464 0.0323031
vt 0.983223 0.811363
vn 0 0.5414708 -0.8407196
v -0.0885679 0.243881 0.0744481
vn -0.5690062 0.5932263 -0.5694862
v 0 0.296108 0.217779
vt 0.615561 0.942685
vn 0 0.9386725 0.3448102
v 0.0807828 0.2841 0.163035
vt 0.697654 0.834968
vn 0.510432 0.859918 0.000414391
v -0.0807828 0.2841 0.163035
vn -0.510432 0.859918 0.000414394
v -0.130709 0.15926 0.0821924
vn -0.8506742 0.0002532631 -0.5256932
v 0.0885679 0.074647 0.0743665
vn 0.569006 -0.592677 -0.570058
v 0.143306 0.211518 0.163
vt 0.691898 0.677378
vn 0.929556 0.368681 0.000177688
v 0.0885679 0.243796 0.251584
vt 0.478059 0.803597
vn 0.569006 0.592677 0.570058
v -0.0885679 0.0745616 0.251502
vn -0.5690062 -0.5932263 0.5694862
v 0 0.236338 0.293722
vt 0.412384 0.918661
vn 0 0.5406601 0.8412412
v -0.0885679 0.243796 0.251584
vn -0.569006 0.592677 0.570058
v -0.130709 0.159182 0.243758
vn -0.8506742 -0.0002532561 0.5256932
v -0.143306 0.211518 0.163
vn -0.929556 0.368681 0.000177665
o merged_0_0_node
g polygon_0
usemtl lambert3_mat_id
f 1/1/1 2/1/2 3/1/2
f 3/2/2 2/3/2 4/4/3
f 4/4/4 2/3/5 5/5/6
f 6/6/7 5/5/6 2/3/5
f 4/4/8 7/4/8 3/2/9
f 7/4/8 8/2/9 3/2/9
f 8/1/9 9/1/10 3/1/9
f 9/1/10 1/1/10 3/1/9
f 9/1/11 8/1/12 10/1/12
f 10/3/12 8/2/12 7/4/13
f 11/6/14 10/3/15 12/5/16
f 10/3/15 7/4/17 12/5/16
f 11/6/14 12/5/16 13/7/18
f 13/7/18 12/5/16 14/8/19
f 14/8/19 5/5/6 13/7/18
f 13/7/18 5/5/6 6/6/7
f 12/9/20 7/9/20 14/9/20
f 7/9/20 4/9/20 14/9/20
f 4/9/20 5/9/20 14/9/20
f 15/1/21 1/1/22 9/1/23
f 1/1/22 15/1/21 2/1/5
f 10/1/15 15/1/21 9/1/23
f 2/1/5 15/1/21 10/1/15
f 13/10/18 6/11/7 11/12/14
f 2/13/5 10/14/15 6/11/7
f 6/11/7 10/14/15 11/12/14
f 16/15/24 17/15/24 18/15/25
f 17/15/24 16/15/24 19/15/26
f 18/15/27 17/15/27 19/15/27
f 20/15/28 21/15/28 22/15/29
f 21/15/28 20/15/28 23/15/30
f 22/15/31 21/15/31 23/15/31
f 24/15/32 25/15/32 26/15/33
f 25/15/32 24/15/32 27/15/34
f 26/15/35 25/15/35 27/15/35
f 28/16/36 29/17/37 30/18/38
f 31/19/39 32/20/40 33/21/41
f 34/22/42 35/23/43 36/24/44
f 37/25/45 38/23/46 39/19/47
f 40/18/48 41/26/49 37/25/45
f 42/27/50 43/28/51 44/16/52
f 45/29/53 46/30/54 42/27/50
f 42/27/50 47/30/55 45/29/53
f 37/25/45 48/17/56 40/18/48
f 31/19/39 49/25/57 29/17/37
f 29/17/37 49/25/57 30/18/38
f 50/31/58 29/17/37 28/16/36
f 31/19/39 29/17/37 50/31/58
f 50/31/58 32/20/40 31/19/39
f 51/32/59 32/20/40 50/31/58
f 31/19/39 33/21/41 35/23/43
f 35/23/43 33/21/41 36/24/44
f 49/25/57 35/23/43 34/22/42
f 31/19/39 35/23/43 49/25/57
f 36/24/44 52/21/60 38/23/46
f 38/23/46 52/21/60 39/19/47
f 34/22/42 38/23/46 37/25/45
f 36/24/44 38/23/46 34/22/42
f 49/25/57 34/22/42 41/26/49
f 41/26/49 34/22/42 37/25/45
f 30/18/38 41/26/49 40/18/48
f 49/25/57 41/26/49 30/18/38
f 30/18/38 40/18/48 43/28/51
f 43/28/51 40/18/48 44/16/52
f 28/16/36 43/28/51 42/27/50
f 30/18/38 43/28/51 28/16/36
f 50/31/58 28/16/36 46/30/54
f 46/30/54 28/16/36 42/27/50
f 51/32/59 46/30/54 45/29/53
f 50/31/58 46/30/54 51/32/59
f 51/32/59 45/29/53 53/33/61
f 53/33/61 45/29/53 54/32/62
f 39/19/47 52/21/60 55/20/63
f 56/31/64 55/20/63 54/32/62
f 39/19/47 55/20/63 56/31/64
f 56/31/64 54/32/62 47/30/55
f 47/30/55 54/32/62 45/29/53
f 44/16/52 47/30/55 42/27/50
f 56/31/64 47/30/55 44/16/52
f 56/31/64 44/16/52 48/17/56
f 48/17/56 44/16/52 40/18/48
f 39/19/47 48/17/56 37/25/45
f 56/31/64 48/17/56 39/19/47
vt 0.5 0.725715
v 0 0.0819792 0.293647
vt 0.5 0.817553
vn 0 -0.5414708 0.8407196
vt 0.0803413 0.793097
v -0.054738 0.159152 0.306281
vt 0.277331 0.903142
vn -0.3576771 -0.0004499631 0.9338452
vt 0.5 0.985532
vt 0.0999317 0.998543
vt -0.0883399 0.903175
vt 0.900068 0.998543
v 0.054738 0.159152 0.306281
vt 0.722669 0.903142
vn 0.3576771 -0.0004499691 0.9338452
vt 1.08834 0.903175
vt 0.919659 0.793097
o merged_1_0_node
g polygon_0
usemtl TEX_ANIM_EYE_mat_id
f 36/34/44 57/35/65 52/36/60
f 58/37/66 53/38/61 54/39/62
f 54/39/62 55/40/63 58/37/66
f 51/41/59 59/42/67 32/43/40
f 32/43/40 59/42/67 33/44/41
f 59/42/67 58/37/66 57/35/65
f 57/35/65 58/37/66 52/36/60
f 33/44/41 57/35/65 36/34/44
f 59/42/67 57/35/65 33/44/41
f 59/42/67 53/38/61 58/37/66
f 51/41/59 53/38/61 59/42/67
f 55/40/63 52/36/60 58/37/66
