ply
format ascii 1.0
element vertex 654
property float x
property float y
property float z
property uchar red
property uchar green
property uchar blue
element face 792
property list uchar int vertex_index
end_header
0.12606 -0.49659 0.00383 206 157 89
0.12606 -0.49659 0.09102 206 157 89
0.24465 -0.4966 0.09102 206 157 89
0.24465 -0.4966 0.00383 206 157 89
0.10735 -0.46939 0.00383 206 157 89
0.26337 -0.4694 0.00383 206 157 89
0.26337 -0.4694 0.09102 206 157 89
0.10735 -0.46939 0.09102 206 157 89
0.10759 -0.04278 0.39105 252 238 192
0.10759 -0.08502 0.24719 252 238 192
0.26319 -0.08503 0.24719 252 238 192
0.26319 -0.04278 0.39105 252 238 192
0.26319 -0.08503 0.21786 252 238 192
0.10759 -0.08502 0.21786 252 238 192
0.10758 -0.1797 0.39105 252 238 192
0.10758 -0.22194 0.26069 252 238 192
0.10758 -0.22194 0.20437 252 238 192
0.10759 -0.01643 0.09102 252 238 192
0.10758 -0.15335 0.09102 252 238 192
0.26319 -0.01644 0.09102 252 238 192
0.24111 0.01462 0.09102 252 238 192
0.12968 0.01462 0.09102 252 238 192
0.24111 0.01462 0.00383 252 238 192
0.12968 0.01462 0.00383 252 238 192
0.26319 -0.01644 0.00383 252 238 192
0.10759 -0.01643 0.00383 252 238 192
0.10758 -0.24121 0.00383 252 238 192
0.10758 -0.24121 0.09102 252 238 192
0.26318 -0.24122 0.00383 252 238 192
0.26318 -0.15336 0.09102 252 238 192
0.26318 -0.22195 0.20437 252 238 192
0.26318 -0.22195 0.26069 252 238 192
0.26318 -0.17971 0.39105 252 238 192
0.26318 -0.24122 0.09102 252 238 192
0.26318 -0.15336 0.09102 255 243 203
0.26318 -0.24122 0.09102 255 243 203
0.10758 -0.24121 0.09102 255 243 203
0.10758 -0.15335 0.09102 255 243 203
0.26337 -0.4694 0.09102 216 165 93
0.24465 -0.4966 0.09102 216 165 93
0.12606 -0.49659 0.09102 216 165 93
0.10735 -0.46939 0.09102 216 165 93
0.10758 -0.24121 0.00383 206 157 89
0.26318 -0.24122 0.00383 206 157 89
0.26318 -0.24122 0.09102 206 157 89
0.10758 -0.24121 0.09102 206 157 89
0.26318 -0.24122 0.09102 216 165 93
0.10758 -0.24121 0.09102 216 165 93
0.16638 -0.47912 0 236 188 150
0.16638 -0.47912 0.00542 236 188 150
0.20359 -0.47912 0.00542 236 188 150
0.20359 -0.47912 0 236 188 150
0.16638 -0.44637 0 236 188 150
0.2036 -0.44637 0 236 188 150
0.2036 -0.44637 0.00542 236 188 150
0.16638 -0.44637 0.00542 236 188 150
0.12073 -0.4653 0 236 188 150
0.12073 -0.4653 0.00542 236 188 150
0.15795 -0.46531 0.00542 236 188 150
0.15795 -0.46531 0 236 188 150
0.12073 -0.43255 0 236 188 150
0.15795 -0.43256 0 236 188 150
0.15795 -0.43256 0.00542 236 188 150
0.12073 -0.43255 0.00542 236 188 150
0.21266 -0.46531 0 236 188 150
0.21266 -0.46531 0.00542 236 188 150
0.24988 -0.46531 0.00542 236 188 150
0.24988 -0.46531 0 236 188 150
0.21267 -0.43256 0 236 188 150
0.24988 -0.43256 0 236 188 150
0.24988 -0.43256 0.00542 236 188 150
0.21267 -0.43256 0.00542 236 188 150
0.14758 -0.10663 0 236 188 150
0.14758 -0.10663 0.00546 236 188 150
0.22227 -0.10664 0.00546 236 188 150
0.22227 -0.10664 0 236 188 150
0.14758 -0.04226 0 236 188 150
0.22227 -0.04227 0 236 188 150
0.22227 -0.04227 0.00546 236 188 150
0.14758 -0.04226 0.00546 236 188 150
-0.39764 -0.41439 1.03775 216 167 189
-0.39764 -0.41439 1.1164 216 167 189
0.39764 -0.41439 1.1164 216 167 189
0.39764 -0.41439 1.03775 216 167 189
0.39764 -0.23419 1.1164 216 167 189
-0.39764 -0.23419 1.1164 216 167 189
-0.10821 -0.50712 1.93041 192 161 55
-0.10821 -0.50712 1.97306 192 161 55
0.10821 -0.50712 1.97306 192 161 55
0.10821 -0.50712 1.93041 192 161 55
0.10821 -0.49979 1.97306 192 161 55
-0.10821 -0.49979 1.97306 192 161 55
-0.10821 -0.49979 1.93041 192 161 55
0.10821 -0.49979 1.93041 192 161 55
-0.10821 -0.50712 1.829 192 161 55
-0.10821 -0.50712 1.87166 192 161 55
0.10821 -0.50712 1.87166 192 161 55
0.10821 -0.50712 1.829 192 161 55
0.10821 -0.49979 1.87166 192 161 55
-0.10821 -0.49979 1.87166 192 161 55
-0.10821 -0.49979 1.829 192 161 55
0.10821 -0.49979 1.829 192 161 55
-0.10821 -0.50712 1.72756 192 161 55
-0.10821 -0.50712 1.77022 192 161 55
0.10821 -0.50712 1.77022 192 161 55
0.10821 -0.50712 1.72756 192 161 55
0.10821 -0.49979 1.77022 192 161 55
-0.10821 -0.49979 1.77022 192 161 55
-0.10821 -0.49979 1.72756 192 161 55
0.10821 -0.49979 1.72756 192 161 55
-0.10821 -0.50712 1.6232 192 161 55
-0.10821 -0.50712 1.66586 192 161 55
0.10821 -0.50712 1.66586 192 161 55
0.10821 -0.50712 1.6232 192 161 55
0.10821 -0.49979 1.66586 192 161 55
-0.10821 -0.49979 1.66586 192 161 55
-0.10821 -0.49979 1.6232 192 161 55
0.10821 -0.49979 1.6232 192 161 55
-0.11547 -0.50297 1.56068 249 209 72
-0.15397 -0.50297 1.6009 249 209 72
0.15397 -0.50297 1.6009 249 209 72
0.11547 -0.50297 1.56068 249 209 72
-0.11547 -0.43866 1.56068 249 209 72
0.11547 -0.43866 1.56068 249 209 72
0.15397 -0.43866 1.6009 249 209 72
-0.15397 -0.43866 1.6009 249 209 72
0.15397 -0.50297 1.98947 249 209 72
-0.15397 -0.50297 1.98947 249 209 72
0.11547 -0.50297 2.03762 249 209 72
-0.11547 -0.50297 2.03762 249 209 72
0.15397 -0.43866 1.98947 249 209 72
-0.15397 -0.43866 1.98947 249 209 72
-0.11547 -0.43866 2.03762 249 209 72
0.11547 -0.43866 2.03762 249 209 72
0.15111 -0.39176 1.74237 252 238 192
0.15111 -0.39176 2.28925 252 238 192
0.23896 -0.39176 2.28925 252 238 192
0.23896 -0.39176 1.74237 252 238 192
0.23896 -0.30434 2.28925 252 238 192
0.23896 -0.30434 1.74237 252 238 192
0.15111 -0.30434 1.74237 252 238 192
0.15111 -0.30434 2.28925 252 238 192
0.15111 -0.39176 2.28925 255 243 203
0.15111 -0.30434 2.28925 255 243 203
0.23896 -0.30434 2.28925 255 243 203
0.23896 -0.39176 2.28925 255 243 203
-0.15111 -0.39176 1.74237 252 238 192
-0.23896 -0.39176 1.74237 252 238 192
-0.23896 -0.39176 2.28925 252 238 192
-0.15111 -0.39176 2.28925 252 238 192
-0.23896 -0.30434 2.28925 252 238 192
-0.23896 -0.30434 1.74237 252 238 192
-0.15111 -0.30434 1.74237 252 238 192
-0.15111 -0.30434 2.28925 252 238 192
-0.15111 -0.39176 2.28925 255 243 203
-0.23896 -0.39176 2.28925 255 243 203
-0.23896 -0.30434 2.28925 255 243 203
-0.15111 -0.30434 2.28925 255 243 203
0.5742 -0.36791 1.5052 252 238 192
1.03738 -0.36791 1.5052 252 238 192
1.03738 -0.36791 1.41777 252 238 192
0.5742 -0.36791 1.41777 252 238 192
1.03738 -0.28048 1.41777 252 238 192
1.03738 -0.28048 1.5052 252 238 192
0.5742 -0.28048 1.41777 252 238 192
0.5742 -0.28048 1.5052 252 238 192
0.5742 -0.28048 1.5052 255 243 203
1.03738 -0.28048 1.5052 255 243 203
1.03738 -0.36791 1.5052 255 243 203
0.5742 -0.36791 1.5052 255 243 203
0.5742 -0.36791 1.31463 252 238 192
0.90933 -0.36791 1.31463 252 238 192
0.90933 -0.36791 1.2272 252 238 192
0.5742 -0.36791 1.2272 252 238 192
0.90933 -0.28048 1.2272 252 238 192
0.90933 -0.28048 1.31463 252 238 192
0.5742 -0.28048 1.2272 252 238 192
0.5742 -0.28048 1.31463 252 238 192
0.5742 -0.28048 1.31463 255 243 203
0.90933 -0.28048 1.31463 255 243 203
0.90933 -0.36791 1.31463 255 243 203
0.5742 -0.36791 1.31463 255 243 203
-0.5742 -0.36791 1.5052 252 238 192
-0.5742 -0.36791 1.41777 252 238 192
-1.03738 -0.36791 1.41777 252 238 192
-1.03738 -0.36791 1.5052 252 238 192
-1.03738 -0.28048 1.41777 252 238 192
-1.03738 -0.28048 1.5052 252 238 192
-0.5742 -0.28048 1.41777 252 238 192
-0.5742 -0.28048 1.5052 252 238 192
-0.5742 -0.28048 1.5052 255 243 203
-0.5742 -0.36791 1.5052 255 243 203
-1.03738 -0.36791 1.5052 255 243 203
-1.03738 -0.28048 1.5052 255 243 203
-0.5742 -0.36791 1.31463 252 238 192
-0.5742 -0.36791 1.2272 252 238 192
-0.90933 -0.36791 1.2272 252 238 192
-0.90933 -0.36791 1.31463 252 238 192
-0.90933 -0.28048 1.2272 252 238 192
-0.90933 -0.28048 1.31463 252 238 192
-0.5742 -0.28048 1.2272 252 238 192
-0.5742 -0.28048 1.31463 252 238 192
-0.5742 -0.28048 1.31463 255 243 203
-0.5742 -0.36791 1.31463 255 243 203
-0.90933 -0.36791 1.31463 255 243 203
-0.90933 -0.28048 1.31463 255 243 203
0.23428 -0.43971 1.1596 249 249 244
0.23428 -0.43971 1.22697 249 249 244
0.29954 -0.43971 1.22697 249 249 244
0.29954 -0.43971 1.1596 249 249 244
0.23428 -0.37858 1.1596 249 249 244
0.29954 -0.37858 1.1596 249 249 244
0.29954 -0.37858 1.22697 249 249 244
0.23428 -0.37858 1.22697 249 249 244
-0.23428 -0.43971 1.1596 249 249 244
-0.29954 -0.43971 1.1596 249 249 244
-0.29954 -0.43971 1.22697 249 249 244
-0.23428 -0.43971 1.22697 249 249 244
-0.23428 -0.37858 1.1596 249 249 244
-0.29954 -0.37858 1.1596 249 249 244
-0.29954 -0.37858 1.22697 249 249 244
-0.23428 -0.37858 1.22697 249 249 244
0.29145 -0.45346 1.49348 117 105 102
0.29145 -0.45346 1.55137 117 105 102
0.32618 -0.45346 1.55137 117 105 102
0.32618 -0.45346 1.49348 117 105 102
0.21277 -0.45346 1.59072 249 249 244
0.21277 -0.43698 1.59072 249 249 244
0.4495 -0.43698 1.59072 249 249 244
0.4495 -0.45346 1.59072 249 249 244
0.4495 -0.45346 1.313 249 249 244
0.4495 -0.43698 1.313 249 249 244
0.21277 -0.43698 1.313 249 249 244
0.21277 -0.45346 1.313 249 249 244
0.32618 -0.45346 1.35234 249 249 244
0.29145 -0.45346 1.35234 249 249 244
0.29145 -0.45346 1.55137 249 249 244
0.32618 -0.45346 1.55137 249 249 244
0.32618 -0.45346 1.49348 249 249 244
0.29145 -0.45346 1.49348 249 249 244
0.29145 -0.45346 1.35234 31 28 27
0.29145 -0.45346 1.49348 31 28 27
0.32618 -0.45346 1.49348 31 28 27
0.32618 -0.45346 1.35234 31 28 27
-0.29145 -0.45346 1.49348 117 105 102
-0.32618 -0.45346 1.49348 117 105 102
-0.32618 -0.45346 1.55137 117 105 102
-0.29145 -0.45346 1.55137 117 105 102
-0.21277 -0.45346 1.59072 249 249 244
-0.4495 -0.45346 1.59072 249 249 244
-0.4495 -0.43698 1.59072 249 249 244
-0.21277 -0.43698 1.59072 249 249 244
-0.4495 -0.45346 1.313 249 249 244
-0.4495 -0.43698 1.313 249 249 244
-0.21277 -0.43698 1.313 249 249 244
-0.21277 -0.45346 1.313 249 249 244
-0.32618 -0.45346 1.35234 249 249 244
-0.29145 -0.45346 1.35234 249 249 244
-0.29145 -0.45346 1.55137 249 249 244
-0.32618 -0.45346 1.55137 249 249 244
-0.32618 -0.45346 1.49348 249 249 244
-0.29145 -0.45346 1.49348 249 249 244
-0.29145 -0.45346 1.35234 31 28 27
-0.32618 -0.45346 1.35234 31 28 27
-0.32618 -0.45346 1.49348 31 28 27
-0.29145 -0.45346 1.49348 31 28 27
-0.3218 -0.30304 0.40425 252 238 192
-0.3218 -0.30304 0.93734 252 238 192
-0.26389 -0.35151 0.93734 252 238 192
-0.26389 -0.35151 0.40425 252 238 192
-0.3218 0.06494 0.40425 252 238 192
-0.3218 0.06494 0.93734 252 238 192
0.26353 -0.35151 0.40425 252 238 192
0.26353 -0.35151 0.93734 252 238 192
0.3218 -0.30304 0.40425 252 238 192
0.3218 -0.30304 0.93734 252 238 192
0.3218 0.06494 0.93734 252 238 192
0.3218 0.06494 0.40425 252 238 192
-0.23252 -0.31637 0.37527 252 238 192
0.2322 -0.31637 0.37527 252 238 192
-0.28354 -0.27366 0.37527 252 238 192
-0.28354 0.03556 0.37527 252 238 192
0.28353 -0.27366 0.37527 252 238 192
0.28353 0.03556 0.37527 252 238 192
0.26353 0.11341 0.40425 252 238 192
0.26353 0.11341 0.93734 252 238 192
-0.26389 0.11341 0.40425 252 238 192
-0.26389 0.11341 0.93734 252 238 192
-0.23252 0.07827 0.37527 252 238 192
0.2322 0.07827 0.37527 252 238 192
0.29925 -0.18049 0.68583 252 238 192
0.29925 -0.23113 0.82945 252 238 192
0.6581 -0.23113 0.82945 252 238 192
0.78146 -0.18049 0.68583 252 238 192
0.80549 -0.19052 0.71428 252 238 192
0.80549 -0.28246 0.97501 252 238 192
0.6581 -0.28246 0.97501 252 238 192
0.6581 -0.08751 0.88009 252 238 192
0.6581 -0.13884 1.02565 252 238 192
0.29925 -0.23113 0.82945 255 243 203
0.29925 -0.08751 0.88009 255 243 203
0.6581 -0.08751 0.88009 255 243 203
0.6581 -0.23113 0.82945 255 243 203
0.29925 -0.08751 0.88009 252 238 192
0.29925 -0.03687 0.73647 252 238 192
0.78146 -0.03687 0.73647 252 238 192
0.80549 -0.0469 0.76492 252 238 192
0.80549 -0.13884 1.02565 252 238 192
0.85335 -0.33664 0.98315 252 238 192
0.85335 -0.17664 1.03957 252 238 192
0.65005 -0.1842 1.15413 252 238 192
0.61024 -0.2134 1.14383 252 238 192
0.61024 -0.17664 1.03957 252 238 192
0.61024 -0.3734 1.08741 252 238 192
0.61024 -0.33664 0.98315 252 238 192
0.81354 -0.1842 1.15413 252 238 192
0.85335 -0.2134 1.14383 252 238 192
0.65358 -0.32817 0.95889 252 238 192
0.79992 -0.20814 1.16495 252 238 192
0.83309 -0.23248 1.15637 252 238 192
0.66367 -0.20814 1.16495 252 238 192
0.6305 -0.23248 1.15637 252 238 192
0.81001 -0.32817 0.95889 252 238 192
0.64333 -0.35999 0.97492 252 238 192
0.64333 -0.39676 1.07918 252 238 192
0.82026 -0.39676 1.07918 252 238 192
0.82026 -0.35999 0.97492 252 238 192
0.85335 -0.3734 1.08741 252 238 192
0.83309 -0.36581 1.10935 252 238 192
0.65807 -0.38527 1.10249 252 238 192
0.6305 -0.36581 1.10935 252 238 192
0.80552 -0.38527 1.10249 252 238 192
0.83309 -0.36581 1.10935 255 243 203
0.80552 -0.38527 1.10249 255 243 203
0.65807 -0.38527 1.10249 255 243 203
0.6305 -0.36581 1.10935 255 243 203
0.6305 -0.23248 1.15637 255 243 203
0.83309 -0.23248 1.15637 255 243 203
0.79992 -0.20814 1.16495 255 243 203
0.66367 -0.20814 1.16495 255 243 203
-0.29925 -0.18049 0.68583 252 238 192
-0.78146 -0.18049 0.68583 252 238 192
-0.6581 -0.23113 0.82945 252 238 192
-0.29925 -0.23113 0.82945 252 238 192
-0.80549 -0.19052 0.71428 252 238 192
-0.80549 -0.28246 0.97501 252 238 192
-0.6581 -0.28246 0.97501 252 238 192
-0.6581 -0.08751 0.88009 252 238 192
-0.6581 -0.13884 1.02565 252 238 192
-0.80549 -0.0469 0.76492 252 238 192
-0.80549 -0.13884 1.02565 252 238 192
-0.78146 -0.03687 0.73647 252 238 192
-0.29925 -0.08751 0.88009 252 238 192
-0.29925 -0.03687 0.73647 252 238 192
-0.65005 -0.1842 1.15413 252 238 192
-0.61024 -0.2134 1.14383 252 238 192
-0.61024 -0.17664 1.03957 252 238 192
-0.61024 -0.3734 1.08741 252 238 192
-0.61024 -0.33664 0.98315 252 238 192
-0.81354 -0.1842 1.15413 252 238 192
-0.85335 -0.2134 1.14383 252 238 192
-0.65358 -0.32817 0.95889 252 238 192
-0.79992 -0.20814 1.16495 252 238 192
-0.83309 -0.23248 1.15637 252 238 192
-0.66367 -0.20814 1.16495 252 238 192
-0.6305 -0.23248 1.15637 252 238 192
-0.81001 -0.32817 0.95889 252 238 192
-0.85335 -0.33664 0.98315 252 238 192
-0.85335 -0.17664 1.03957 252 238 192
-0.29925 -0.23113 0.82945 255 243 203
-0.6581 -0.23113 0.82945 255 243 203
-0.6581 -0.08751 0.88009 255 243 203
-0.29925 -0.08751 0.88009 255 243 203
-0.64333 -0.35999 0.97492 252 238 192
-0.82026 -0.35999 0.97492 252 238 192
-0.82026 -0.39676 1.07918 252 238 192
-0.64333 -0.39676 1.07918 252 238 192
-0.85335 -0.3734 1.08741 252 238 192
-0.83309 -0.36581 1.10935 252 238 192
-0.65807 -0.38527 1.10249 252 238 192
-0.6305 -0.36581 1.10935 252 238 192
-0.80552 -0.38527 1.10249 252 238 192
-0.83309 -0.36581 1.10935 255 243 203
-0.6305 -0.36581 1.10935 255 243 203
-0.65807 -0.38527 1.10249 255 243 203
-0.80552 -0.38527 1.10249 255 243 203
-0.6305 -0.23248 1.15637 255 243 203
-0.83309 -0.23248 1.15637 255 243 203
-0.79992 -0.20814 1.16495 255 243 203
-0.66367 -0.20814 1.16495 255 243 203
-0.07893 0 0.58265 252 238 192
-0.07893 0.64419 0.58265 252 238 192
0.07893 0.64419 0.58265 252 238 192
0.07893 0 0.58265 252 238 192
0.07893 0 0.42479 252 238 192
0.07893 0.76458 0.42479 252 238 192
-0.07893 0.76458 0.42479 252 238 192
-0.07893 0 0.42479 252 238 192
0.07893 0.80184 0.45949 252 238 192
-0.07893 0.80184 0.45949 252 238 192
0.07893 0.64419 0.88208 252 238 192
-0.07893 0.64419 0.88208 252 238 192
0.07893 0.80184 0.88208 252 238 192
-0.07893 0.80184 0.88208 252 238 192
-0.07893 0.39744 1.04844 206 157 89
-0.07893 0.36104 1.07624 206 157 89
0.07893 0.36104 1.07624 206 157 89
0.07893 0.39744 1.04844 206 157 89
-0.07893 0.36104 1.47895 206 157 89
0.07893 0.36104 1.47895 206 157 89
0.07893 0.4714 1.24509 206 157 89
0.07893 0.57907 1.24509 206 157 89
0.07893 0.57907 1.04844 206 157 89
-0.07893 0.57907 1.04844 206 157 89
0.07893 0.4714 1.31578 206 157 89
0.07893 0.80184 1.47895 206 157 89
0.07893 0.64419 1.31578 206 157 89
0.07893 0.64419 1.04844 206 157 89
0.07893 0.80184 0.88208 206 157 89
-0.07893 0.80184 1.47895 206 157 89
-0.07893 0.80184 0.88208 206 157 89
-0.05852 0.76025 1.50481 206 157 89
0.05852 0.76025 1.50481 206 157 89
0.05852 0.40263 1.50481 206 157 89
-0.07893 0.4714 1.24509 206 157 89
-0.05852 0.40263 1.50481 206 157 89
-0.07893 0.4714 1.31578 206 157 89
-0.07893 0.64419 1.31578 206 157 89
-0.07893 0.64419 1.04844 206 157 89
-0.07893 0.64419 0.88208 206 157 89
0.07893 0.64419 0.88208 206 157 89
-0.07893 0.57907 1.24509 206 157 89
-0.07893 0.64419 1.04844 180 137 78
-0.07893 0.57907 1.04844 180 137 78
0.07893 0.57907 1.04844 180 137 78
0.07893 0.64419 1.04844 180 137 78
0.07893 0.57907 1.24509 180 137 78
0.07893 0.64419 1.31578 180 137 78
0.07893 0.4714 1.31578 180 137 78
0.07893 0.4714 1.24509 180 137 78
-0.05852 0.76025 1.50481 216 165 93
0.05852 0.76025 1.50481 216 165 93
0.05852 0.40263 1.50481 216 165 93
-0.05852 0.40263 1.50481 216 165 93
-0.07893 0.57907 1.24509 180 137 78
-0.07893 0.64419 1.31578 180 137 78
-0.07893 0.4714 1.31578 180 137 78
-0.07893 0.4714 1.24509 180 137 78
0.59557 -0.38775 0.97188 252 238 192
0.59557 -0.38775 1.71721 252 238 192
0.59557 0.15522 1.71721 252 238 192
0.59557 0.15522 0.97188 252 238 192
0.54161 -0.44261 1.71721 252 238 192
0.54161 -0.44261 0.97188 252 238 192
0.56015 -0.36638 1.76346 252 238 192
0.5157 -0.40936 1.76346 252 238 192
0.56015 0.13175 1.76346 252 238 192
0.55983 -0.36656 0.92462 252 238 192
0.55983 0.13131 0.92462 252 238 192
0.5156 -0.40959 0.92462 252 238 192
-0.54161 -0.44261 0.97188 252 238 192
-0.5156 -0.40959 0.92462 252 238 192
0.38637 -0.44261 1.04526 252 238 192
0.38637 -0.44261 1.25317 252 238 192
-0.54161 -0.44261 1.71721 252 238 192
-0.59557 -0.38775 0.97188 252 238 192
-0.59557 -0.38775 1.71721 252 238 192
-0.59557 0.15522 1.71721 252 238 192
-0.59557 0.15522 0.97188 252 238 192
-0.5157 -0.40936 1.76346 252 238 192
-0.56015 -0.36638 1.76346 252 238 192
-0.56015 0.13175 1.76346 252 238 192
-0.55983 -0.36656 0.92462 252 238 192
-0.55983 0.13131 0.92462 252 238 192
-0.38637 -0.44261 1.04526 252 238 192
-0.38637 -0.44261 1.25317 252 238 192
-0.34918 -0.44261 1.22465 252 238 192
0.34918 -0.44261 1.22465 252 238 192
-0.5156 0.17463 0.92462 252 238 192
-0.54161 0.21008 0.97188 252 238 192
0.5156 0.17463 0.92462 252 238 192
0.54161 0.21008 0.97188 252 238 192
0.54161 0.21008 1.71721 252 238 192
0.5157 0.17472 1.76346 252 238 192
-0.54161 0.21008 1.71721 252 238 192
-0.5157 0.17472 1.76346 252 238 192
0.38637 -0.44261 1.04526 163 118 138
0.38637 -0.33864 1.04526 163 118 138
0.38637 -0.33864 1.25317 163 118 138
0.38637 -0.44261 1.25317 163 118 138
0.34918 -0.33864 1.22465 163 118 138
0.34918 -0.44261 1.22465 163 118 138
-0.34918 -0.44261 1.22465 163 118 138
-0.34918 -0.33864 1.22465 163 118 138
-0.38637 -0.44261 1.25317 163 118 138
-0.38637 -0.33864 1.25317 163 118 138
-0.38637 -0.44261 1.04526 163 118 138
-0.38637 -0.33864 1.04526 163 118 138
0.5157 0.17472 1.76346 255 243 203
0.56015 0.13175 1.76346 255 243 203
-0.56015 0.13175 1.76346 255 243 203
-0.5157 0.17472 1.76346 255 243 203
-0.56015 -0.36638 1.76346 255 243 203
0.56015 -0.36638 1.76346 255 243 203
-0.5157 -0.40936 1.76346 255 243 203
0.5157 -0.40936 1.76346 255 243 203
0.14038 -0.21625 1.7591 94 92 89
0.14038 -0.21625 2.06111 94 92 89
0.23629 -0.21625 1.94712 94 92 89
0.23629 -0.21625 1.7591 94 92 89
0.14038 -0.02079 1.7591 94 92 89
0.14038 -0.02079 2.06111 94 92 89
0.18931 -0.21625 2.1103 94 92 89
0.25522 -0.21625 1.96729 94 92 89
0.40862 -0.21625 1.96729 94 92 89
0.47519 -0.21625 2.1103 94 92 89
0.42821 -0.21625 1.94712 94 92 89
0.52153 -0.21625 2.06111 94 92 89
0.42821 -0.21625 1.7591 94 92 89
0.52153 -0.21625 1.7591 94 92 89
0.14038 -0.21625 2.06111 108 106 102
0.14038 -0.02079 2.06111 108 106 102
0.18931 -0.02079 2.1103 108 106 102
0.18931 -0.21625 2.1103 108 106 102
0.52153 -0.02079 2.06111 94 92 89
0.47519 -0.02079 2.1103 94 92 89
0.18931 -0.02079 2.1103 94 92 89
0.45951 -0.02079 1.7591 94 92 89
0.52153 -0.02079 1.7591 94 92 89
0.20499 -0.02079 1.7591 94 92 89
0.47519 -0.02079 2.1103 108 106 102
0.47519 -0.21625 2.1103 108 106 102
0.52153 -0.21625 2.06111 108 106 102
0.52153 -0.02079 2.06111 108 106 102
0.42821 -0.21625 1.94712 231 157 119
0.23629 -0.21625 1.94712 231 157 119
0.25522 -0.21625 1.96729 231 157 119
0.40862 -0.21625 1.96729 231 157 119
0.23629 -0.21625 1.7591 231 157 119
0.42821 -0.21625 1.7591 231 157 119
-0.14038 -0.21625 1.7591 94 92 89
-0.23629 -0.21625 1.7591 94 92 89
-0.23629 -0.21625 1.94712 94 92 89
-0.14038 -0.21625 2.06111 94 92 89
-0.14038 -0.02079 1.7591 94 92 89
-0.14038 -0.02079 2.06111 94 92 89
-0.18931 -0.21625 2.1103 94 92 89
-0.25522 -0.21625 1.96729 94 92 89
-0.40862 -0.21625 1.96729 94 92 89
-0.47519 -0.21625 2.1103 94 92 89
-0.42821 -0.21625 1.94712 94 92 89
-0.52153 -0.21625 2.06111 94 92 89
-0.42821 -0.21625 1.7591 94 92 89
-0.52153 -0.21625 1.7591 94 92 89
-0.14038 -0.21625 2.06111 108 106 102
-0.18931 -0.21625 2.1103 108 106 102
-0.18931 -0.02079 2.1103 108 106 102
-0.14038 -0.02079 2.06111 108 106 102
-0.52153 -0.02079 2.06111 94 92 89
-0.18931 -0.02079 2.1103 94 92 89
-0.47519 -0.02079 2.1103 94 92 89
-0.20499 -0.02079 1.7591 94 92 89
-0.45951 -0.02079 1.7591 94 92 89
-0.52153 -0.02079 1.7591 94 92 89
-0.47519 -0.21625 2.1103 108 106 102
-0.47519 -0.02079 2.1103 108 106 102
-0.52153 -0.21625 2.06111 108 106 102
-0.52153 -0.02079 2.06111 108 106 102
-0.42821 -0.21625 1.94712 231 157 119
-0.40862 -0.21625 1.96729 231 157 119
-0.25522 -0.21625 1.96729 231 157 119
-0.23629 -0.21625 1.94712 231 157 119
-0.23629 -0.21625 1.7591 231 157 119
-0.42821 -0.21625 1.7591 231 157 119
-0.12606 -0.49659 0.00383 206 157 89
-0.24465 -0.4966 0.00383 206 157 89
-0.24465 -0.4966 0.09102 206 157 89
-0.12606 -0.49659 0.09102 206 157 89
-0.10735 -0.46939 0.00383 206 157 89
-0.26337 -0.4694 0.00383 206 157 89
-0.26337 -0.4694 0.09102 206 157 89
-0.10735 -0.46939 0.09102 206 157 89
-0.10759 -0.04278 0.39105 252 238 192
-0.26319 -0.04278 0.39105 252 238 192
-0.26319 -0.08503 0.24719 252 238 192
-0.10759 -0.08502 0.24719 252 238 192
-0.26319 -0.08503 0.21786 252 238 192
-0.10759 -0.08502 0.21786 252 238 192
-0.10758 -0.1797 0.39105 252 238 192
-0.10758 -0.22194 0.26069 252 238 192
-0.10758 -0.22194 0.20437 252 238 192
-0.10759 -0.01643 0.09102 252 238 192
-0.10758 -0.15335 0.09102 252 238 192
-0.26319 -0.01644 0.09102 252 238 192
-0.24111 0.01462 0.09102 252 238 192
-0.12968 0.01462 0.09102 252 238 192
-0.24111 0.01462 0.00383 252 238 192
-0.12968 0.01462 0.00383 252 238 192
-0.26319 -0.01644 0.00383 252 238 192
-0.10759 -0.01643 0.00383 252 238 192
-0.10758 -0.24121 0.00383 252 238 192
-0.10758 -0.24121 0.09102 252 238 192
-0.26318 -0.24122 0.00383 252 238 192
-0.26318 -0.15336 0.09102 252 238 192
-0.26318 -0.22195 0.20437 252 238 192
-0.26318 -0.22195 0.26069 252 238 192
-0.26318 -0.17971 0.39105 252 238 192
-0.26318 -0.24122 0.09102 252 238 192
-0.26318 -0.15336 0.09102 255 243 203
-0.10758 -0.15335 0.09102 255 243 203
-0.10758 -0.24121 0.09102 255 243 203
-0.26318 -0.24122 0.09102 255 243 203
-0.26337 -0.4694 0.09102 216 165 93
-0.10735 -0.46939 0.09102 216 165 93
-0.12606 -0.49659 0.09102 216 165 93
-0.24465 -0.4966 0.09102 216 165 93
-0.10758 -0.24121 0.00383 206 157 89
-0.26318 -0.24122 0.00383 206 157 89
-0.26318 -0.24122 0.09102 206 157 89
-0.10758 -0.24121 0.09102 206 157 89
-0.26318 -0.24122 0.09102 216 165 93
-0.10758 -0.24121 0.09102 216 165 93
-0.16638 -0.47912 0 236 188 150
-0.20359 -0.47912 0 236 188 150
-0.20359 -0.47912 0.00542 236 188 150
-0.16638 -0.47912 0.00542 236 188 150
-0.16638 -0.44637 0 236 188 150
-0.2036 -0.44637 0 236 188 150
-0.2036 -0.44637 0.00542 236 188 150
-0.16638 -0.44637 0.00542 236 188 150
-0.12073 -0.4653 0 236 188 150
-0.15795 -0.46531 0 236 188 150
-0.15795 -0.46531 0.00542 236 188 150
-0.12073 -0.4653 0.00542 236 188 150
-0.12073 -0.43255 0 236 188 150
-0.15795 -0.43256 0 236 188 150
-0.15795 -0.43256 0.00542 236 188 150
-0.12073 -0.43255 0.00542 236 188 150
-0.21266 -0.46531 0 236 188 150
-0.24988 -0.46531 0 236 188 150
-0.24988 -0.46531 0.00542 236 188 150
-0.21266 -0.46531 0.00542 236 188 150
-0.21267 -0.43256 0 236 188 150
-0.24988 -0.43256 0 236 188 150
-0.24988 -0.43256 0.00542 236 188 150
-0.21267 -0.43256 0.00542 236 188 150
-0.14758 -0.10663 0 236 188 150
-0.22227 -0.10664 0 236 188 150
-0.22227 -0.10664 0.00546 236 188 150
-0.14758 -0.10663 0.00546 236 188 150
-0.14758 -0.04226 0 236 188 150
-0.22227 -0.04227 0 236 188 150
-0.22227 -0.04227 0.00546 236 188 150
-0.14758 -0.04226 0.00546 236 188 150
3 0 2 1
3 0 3 2
3 4 3 0
3 4 5 3
3 5 2 3
3 5 6 2
3 7 0 1
3 7 4 0
3 8 10 9
3 8 11 10
3 9 10 12
3 9 12 13
3 9 14 8
3 9 15 14
3 13 15 9
3 13 16 15
3 17 16 13
3 17 18 16
3 13 19 17
3 13 12 19
3 17 19 20
3 17 20 21
3 21 20 22
3 19 22 20
3 21 22 23
3 19 24 22
3 24 23 22
3 24 25 23
3 25 21 23
3 25 17 21
3 18 17 25
3 18 25 26
3 18 26 27
3 24 26 25
3 24 28 26
3 29 24 19
3 29 19 12
3 29 12 30
3 18 29 30
3 18 30 16
3 16 30 31
3 16 31 15
3 15 31 32
3 15 32 14
3 31 11 32
3 31 10 11
3 30 10 31
3 30 12 10
3 29 28 24
3 29 33 28
3 34 36 35
3 34 37 36
3 38 40 39
3 38 41 40
3 42 5 4
3 42 43 5
3 43 6 5
3 43 44 6
3 45 42 4
3 45 4 7
3 46 41 38
3 46 47 41
3 48 50 49
3 48 51 50
3 52 51 48
3 52 53 51
3 51 54 50
3 51 53 54
3 55 53 52
3 55 54 53
3 52 49 55
3 52 48 49
3 56 58 57
3 56 59 58
3 60 59 56
3 60 61 59
3 59 62 58
3 59 61 62
3 63 61 60
3 63 62 61
3 60 57 63
3 60 56 57
3 64 66 65
3 64 67 66
3 68 67 64
3 68 69 67
3 67 70 66
3 67 69 70
3 71 69 68
3 71 70 69
3 68 65 71
3 68 64 65
3 72 74 73
3 72 75 74
3 76 75 72
3 76 77 75
3 75 78 74
3 75 77 78
3 79 77 76
3 79 78 77
3 76 73 79
3 76 72 73
3 80 82 81
3 80 83 82
3 81 82 84
3 81 84 85
3 86 88 87
3 86 89 88
3 87 88 90
3 89 90 88
3 87 90 91
3 92 89 86
3 92 87 91
3 92 86 87
3 92 93 89
3 89 93 90
3 94 96 95
3 94 97 96
3 95 96 98
3 97 98 96
3 95 98 99
3 100 97 94
3 100 95 99
3 100 94 95
3 100 101 97
3 97 101 98
3 102 104 103
3 102 105 104
3 103 104 106
3 105 106 104
3 103 106 107
3 108 105 102
3 108 103 107
3 108 102 103
3 108 109 105
3 105 109 106
3 110 112 111
3 110 113 112
3 111 112 114
3 113 114 112
3 111 114 115
3 116 113 110
3 116 111 115
3 116 110 111
3 116 117 113
3 113 117 114
3 118 120 119
3 118 121 120
3 122 121 118
3 122 118 119
3 122 123 121
3 121 124 120
3 121 123 124
3 122 119 125
3 119 120 126
3 119 126 127
3 127 126 128
3 127 128 129
3 120 130 126
3 120 124 130
3 125 119 127
3 125 127 131
3 131 124 125
3 131 130 124
3 132 130 131
3 132 133 130
3 129 133 132
3 131 129 132
3 129 128 133
3 126 133 128
3 126 130 133
3 131 127 129
3 125 124 123
3 125 123 122
3 134 136 135
3 134 137 136
3 137 138 136
3 137 139 138
3 140 134 135
3 140 135 141
3 142 144 143
3 142 145 144
3 141 139 140
3 141 138 139
3 146 148 147
3 146 149 148
3 147 148 150
3 147 150 151
3 152 149 146
3 152 153 149
3 154 156 155
3 154 157 156
3 153 151 150
3 153 152 151
3 158 160 159
3 158 161 160
3 159 160 162
3 161 162 160
3 159 162 163
3 161 164 162
3 163 164 165
3 163 162 164
3 166 168 167
3 166 169 168
3 170 172 171
3 170 173 172
3 171 172 174
3 173 174 172
3 171 174 175
3 173 176 174
3 175 176 177
3 175 174 176
3 178 180 179
3 178 181 180
3 182 184 183
3 182 185 184
3 185 186 184
3 183 184 186
3 185 187 186
3 183 186 188
3 187 188 186
3 187 189 188
3 190 192 191
3 190 193 192
3 194 196 195
3 194 197 196
3 197 198 196
3 195 196 198
3 197 199 198
3 195 198 200
3 199 200 198
3 199 201 200
3 202 204 203
3 202 205 204
3 206 208 207
3 206 209 208
3 210 209 206
3 210 206 207
3 210 211 209
3 209 212 208
3 209 211 212
3 210 207 213
3 213 211 210
3 213 212 211
3 214 216 215
3 214 217 216
3 218 214 215
3 218 217 214
3 218 215 219
3 215 220 219
3 215 216 220
3 218 221 217
3 221 219 220
3 221 218 219
3 222 224 223
3 222 225 224
3 226 228 227
3 226 229 228
3 230 228 229
3 230 231 228
3 232 231 230
3 232 226 227
3 232 230 233
3 232 233 226
3 233 230 234
3 233 234 235
3 226 233 235
3 229 226 236
3 229 236 237
3 238 229 237
3 230 238 234
3 230 229 238
3 226 235 239
3 226 239 236
3 240 242 241
3 240 243 242
3 244 246 245
3 244 247 246
3 248 250 249
3 248 251 250
3 252 249 250
3 252 250 253
3 254 252 253
3 254 251 248
3 254 255 252
3 254 248 255
3 255 256 252
3 255 257 256
3 248 257 255
3 249 258 248
3 249 259 258
3 260 259 249
3 252 260 249
3 252 256 260
3 248 261 257
3 248 258 261
3 262 264 263
3 262 265 264
3 266 268 267
3 266 269 268
3 270 266 267
3 270 267 271
3 268 269 272
3 268 272 273
3 273 272 274
3 273 274 275
3 274 276 275
3 274 277 276
3 272 269 278
3 272 278 279
3 274 272 279
3 269 280 278
3 269 266 280
3 279 278 280
3 266 281 280
3 282 280 281
3 274 279 282
3 279 280 282
3 282 281 283
3 277 282 283
3 277 274 282
3 284 277 283
3 284 276 277
3 284 285 276
3 286 285 284
3 286 287 285
3 271 287 286
3 271 286 270
3 266 270 281
3 270 288 281
3 270 286 288
3 283 281 288
3 286 289 288
3 286 284 289
3 284 283 289
3 283 288 289
3 290 292 291
3 290 293 292
3 292 293 294
3 292 294 295
3 292 295 296
3 297 292 296
3 297 296 298
3 299 301 300
3 299 302 301
3 303 305 304
3 303 297 305
3 304 305 293
3 304 293 290
3 305 297 306
3 294 305 306
3 294 293 305
3 294 306 307
3 294 307 295
3 306 298 307
3 306 297 298
3 308 295 307
3 308 307 309
3 310 307 298
3 311 310 298
3 311 298 312
3 312 313 311
3 312 314 313
3 310 315 307
3 307 316 309
3 307 315 316
3 296 312 298
3 296 314 312
3 314 296 317
3 316 315 318
3 316 318 319
3 315 320 318
3 315 310 320
3 310 321 320
3 310 311 321
3 322 317 296
3 322 296 295
3 308 322 295
3 323 325 324
3 323 326 325
3 326 327 325
3 326 308 327
3 313 323 324
3 313 314 323
3 327 308 309
3 327 309 316
3 327 316 319
3 327 319 328
3 325 327 328
3 313 324 329
3 313 329 330
3 311 313 330
3 311 330 321
3 324 331 329
3 324 325 331
3 325 328 331
3 326 322 308
3 323 322 326
3 323 317 322
3 314 317 323
3 332 334 333
3 332 335 334
3 332 336 335
3 332 337 336
3 336 337 338
3 336 338 339
3 340 342 341
3 340 343 342
3 342 344 341
3 342 345 344
3 342 346 345
3 347 346 342
3 347 348 346
3 344 350 349
3 344 345 350
3 349 350 348
3 349 348 347
3 351 349 347
3 352 351 347
3 352 353 351
3 353 341 351
3 353 340 341
3 344 351 341
3 344 349 351
3 354 348 350
3 355 348 354
3 355 356 348
3 356 355 357
3 356 357 358
3 354 350 359
3 350 360 359
3 346 356 358
3 346 348 356
3 358 361 346
3 360 362 359
3 360 363 362
3 359 364 354
3 359 362 364
3 354 365 355
3 354 364 365
3 366 346 361
3 366 345 346
3 367 345 366
3 367 350 345
3 367 368 350
3 350 368 360
3 369 371 370
3 369 372 371
3 373 375 374
3 373 376 375
3 374 375 377
3 374 377 367
3 357 376 373
3 357 373 358
3 377 368 367
3 377 360 368
3 377 363 360
3 377 378 363
3 375 378 377
3 357 379 376
3 357 380 379
3 355 380 357
3 355 365 380
3 376 381 375
3 376 379 381
3 375 381 378
3 374 367 366
3 373 366 361
3 358 373 361
3 373 374 366
3 382 384 383
3 382 385 384
3 382 383 386
3 382 386 387
3 386 388 387
3 386 389 388
3 390 392 391
3 390 393 392
3 394 392 393
3 394 395 392
3 396 395 394
3 396 394 397
3 392 395 398
3 398 395 396
3 398 396 399
3 399 396 391
3 391 396 397
3 391 397 390
3 391 392 400
3 391 400 401
3 399 391 401
3 392 402 400
3 392 398 402
3 398 403 402
3 398 399 403
3 399 401 403
3 404 406 405
3 404 407 406
3 408 405 406
3 408 406 409
3 409 406 410
3 406 411 410
3 406 412 411
3 406 407 412
3 413 412 407
3 413 407 404
3 413 404 405
3 409 410 414
3 415 409 414
3 415 414 416
3 417 415 416
3 417 418 415
3 418 419 415
3 418 420 419
3 415 419 421
3 415 421 422
3 422 409 415
3 422 423 409
3 413 405 424
3 408 424 405
3 408 423 425
3 421 408 425
3 421 419 408
3 408 409 423
3 408 426 424
3 419 426 408
3 419 427 426
3 420 427 419
3 420 428 427
3 420 429 428
3 429 417 428
3 429 430 417
3 430 418 417
3 413 424 431
3 432 434 433
3 432 435 434
3 436 434 435
3 436 435 437
3 436 437 438
3 436 438 439
3 440 442 441
3 440 443 442
3 444 446 445
3 444 447 446
3 433 444 445
3 433 445 432
3 448 450 449
3 448 451 450
3 452 448 449
3 452 453 448
3 452 449 454
3 452 454 455
3 449 456 454
3 449 450 456
3 451 448 457
3 451 457 458
3 448 459 457
3 448 453 459
3 459 453 460
3 459 460 461
3 452 462 453
3 462 460 453
3 452 463 462
3 455 464 452
3 464 465 460
3 465 461 460
3 464 466 465
3 465 466 467
3 465 467 468
3 455 469 464
3 464 470 466
3 464 469 470
3 466 471 467
3 466 470 471
3 468 472 465
3 465 472 461
3 459 472 457
3 459 461 472
3 457 472 473
3 468 473 472
3 462 474 460
3 464 460 474
3 464 474 475
3 476 464 475
3 452 464 476
3 452 476 477
3 452 477 463
3 457 473 458
3 458 473 478
3 479 478 473
3 480 478 479
3 458 478 480
3 481 458 480
3 480 479 481
3 481 451 458
3 481 450 451
3 481 482 450
3 450 482 483
3 483 482 484
3 481 484 482
3 481 479 484
3 483 484 485
3 450 483 456
3 479 467 484
3 467 485 484
3 479 468 467
3 467 471 485
3 479 473 468
3 486 488 487
3 486 489 488
3 489 490 488
3 490 487 488
3 489 491 490
3 490 491 492
3 490 492 493
3 494 493 492
3 494 495 493
3 496 495 494
3 487 496 486
3 496 497 495
3 487 497 496
3 497 493 495
3 490 497 487
3 490 493 497
3 498 500 499
3 498 501 500
3 499 500 502
3 499 502 503
3 503 502 504
3 503 504 505
3 506 508 507
3 506 509 508
3 510 506 507
3 510 507 511
3 507 508 512
3 512 508 513
3 512 513 514
3 512 514 515
3 515 514 516
3 515 516 517
3 517 516 518
3 517 518 519
3 520 522 521
3 520 523 522
3 524 526 525
3 524 511 526
3 524 527 511
3 527 524 528
3 519 528 524
3 519 524 517
3 511 527 529
3 511 529 510
3 522 531 530
3 522 523 531
3 530 531 532
3 530 532 533
3 534 536 535
3 534 537 536
3 534 535 538
3 534 538 539
3 540 542 541
3 540 543 542
3 544 543 540
3 544 545 543
3 543 546 542
3 546 547 542
3 546 548 547
3 546 549 548
3 549 550 548
3 549 551 550
3 551 552 550
3 551 553 552
3 554 556 555
3 554 557 556
3 558 559 545
3 558 560 559
3 545 561 558
3 561 545 544
3 558 561 562
3 558 562 563
3 553 558 563
3 553 551 558
3 556 564 555
3 556 565 564
3 565 566 564
3 565 567 566
3 568 570 569
3 568 571 570
3 568 572 571
3 568 573 572
3 574 576 575
3 574 577 576
3 578 574 575
3 578 575 579
3 579 575 576
3 579 576 580
3 581 574 578
3 581 577 574
3 582 584 583
3 582 585 584
3 585 586 584
3 585 587 586
3 585 582 588
3 585 588 589
3 587 585 589
3 587 589 590
3 591 587 590
3 591 590 592
3 587 593 586
3 587 591 593
3 591 594 593
3 591 595 594
3 595 596 594
3 593 594 596
3 595 597 596
3 593 596 598
3 598 596 597
3 598 597 599
3 599 595 591
3 599 597 595
3 592 599 591
3 592 600 599
3 592 601 600
3 598 599 600
3 598 600 602
3 603 593 598
3 603 586 593
3 603 604 586
3 592 604 603
3 592 590 604
3 590 605 604
3 590 589 605
3 589 606 605
3 589 588 606
3 605 606 583
3 605 583 584
3 604 584 586
3 604 605 584
3 603 598 602
3 603 602 607
3 608 610 609
3 608 611 610
3 612 614 613
3 612 615 614
3 616 579 617
3 616 578 579
3 617 579 580
3 617 580 618
3 619 578 616
3 619 581 578
3 620 613 621
3 620 612 613
3 622 624 623
3 622 625 624
3 626 622 623
3 626 623 627
3 623 628 627
3 623 624 628
3 629 627 628
3 629 626 627
3 626 629 625
3 626 625 622
3 630 632 631
3 630 633 632
3 634 630 631
3 634 631 635
3 631 636 635
3 631 632 636
3 637 635 636
3 637 634 635
3 634 637 633
3 634 633 630
3 638 640 639
3 638 641 640
3 642 638 639
3 642 639 643
3 639 644 643
3 639 640 644
3 645 643 644
3 645 642 643
3 642 645 641
3 642 641 638
3 646 648 647
3 646 649 648
3 650 646 647
3 650 647 651
3 647 652 651
3 647 648 652
3 653 651 652
3 653 650 651
3 650 653 649
3 650 649 646
