mtllib Cherrim_Posi.mtl
v 0.230455 0.5272781 0.140083
vt 0.371849 0.811065
vn 1 0 0
v 0.191976 0.5939257 0.140083
vt 0.279853 0.970406
v 0.191976 0.4606304 0.140083
vt 0.279853 0.651724
v 0.115018 0.5939257 0.140083
vt 0.095862 0.970406
v 0.07653899 0.5272781 0.140083
vt 0.00386655 0.811065
v 0.115018 0.4606304 0.140083
vt 0.0958621 0.651724
o tama_0_0_node
g polygon_0
usemtl mat_body2_mat_id
f 1/1/1 2/2/1 3/3/1
f 2/2/1 4/4/1 3/3/1
f 4/4/1 5/5/1 3/3/1
f 5/5/1 6/6/1 3/3/1
v -0.230455 0.5272781 0.140083
v -0.191976 0.4606304 0.140083
v -0.191976 0.5939257 0.140083
v -0.115018 0.4606304 0.140083
v -0.07653899 0.5272781 0.140083
v -0.115018 0.5939257 0.140083
o tama1_1_0_node
g polygon_0
usemtl mat_body2_mat_id
f 7/1/1 8/3/1 9/2/1
f 8/3/1 10/6/1 9/2/1
f 10/6/1 11/5/1 9/2/1
f 11/5/1 12/4/1 9/2/1
v -0.0637752 0.0815105 -0.110462
vt 0.597808 0.956714
vn -0.4803239 -0.100513 -0.8713129
v 0.0637752 0.0815105 -0.110462
vn 0.4803239 -0.100513 -0.8713129
v 0 0.0319702 -0.133084
vn 0 -0.9854242 -0.170115
v 0.0437836 0.2026 -0.0718367
vn 0.4402409 0.4565789 -0.7731259
v 0 0.0987198 -0.00319836
vn 0.2127779 -0.9770986 0.001954139
v -0.0437835 0.2026 -0.0718367
vn -0.4402401 0.4565791 -0.7731262
v -0.1415 0.0319702 -4.73734E-05
vn 0.05247042 -0.9986184 0.002859281
v -0.12755 0.0815105 0
vn -0.9468371 0.152011 -0.283535
vn -0.210448 -0.977093 0.0316387
v 0.12755 0.0815105 0
vn 0.9468374 0.1520111 -0.2835341
v 0.1415 0.0319702 -4.73734E-05
vn -0.05247042 -0.9986184 0.002859111
v -0.0637752 0.0815105 0.110462
vn -0.112487 -0.3983159 0.9103248
v 0 0.0319702 0.133913
vn 0 -0.9877945 0.1557629
v -0.0875671 0.2026 0
vn -0.7599916 0.5491068 -0.3476988
v 0.0875671 0.2026 0
vn 0.7599919 0.549107 -0.347698
v 0.0637752 0.0815105 0.110462
vn 0.112487 -0.3983159 0.9103248
vn -0.214886 -0.9762591 -0.0272416
v -0.156309 0.149734 0.105052
vn -0.8282738 0.139969 0.5425599
v 0.156309 0.149734 0.105052
vn 0.8282739 0.139968 0.5425599
v 0.0437836 0.2026 0.0718367
vn 0.05448508 0.5813258 0.8118447
v -0.0437836 0.2026 0.0718367
vn -0.05448518 0.5813257 0.8118446
v -0.0534861 0.0319702 -0.0808737
vt 0.188877 0.0953918
vn -0.3907101 -0.5696191 -0.7231042
v 0.0578408 0.0815105 -0.100183
vn 0.4165651 -0.3344951 -0.8453322
v 0.0534861 0.0319702 -0.0808737
vn 0.3907099 -0.5696198 -0.7231038
v -0.0578407 0.0815105 -0.100183
vn -0.4165651 -0.3344951 -0.8453322
v 0 0.0157866 0
vn 0 -1 -5.0944E-05
v -0.115682 0.0815105 0
vn -0.9702231 -0.242213 0
v -0.0534868 3.72529E-09 0
vn -0.136639 -0.9906209 0.000128243
v -0.106972 0.0319702 0
vn -0.9036585 -0.4282537 5.032067E-05
v 0.115682 0.0815105 0
vn 0.9702231 -0.242213 0
v -0.0534861 0.0319702 0.0814676
vn -0.3916743 -0.5672594 0.7244364
v 0.0534868 3.72529E-09 0
vn 0.136639 -0.9906209 0.000128297
v 0.0534861 0.0319702 0.0814676
vn 0.391674 -0.567259 0.7244369
v 0.106972 0.0319702 0
vn 0.9036583 -0.4282542 5.060872E-05
v 0.0578407 0.0815105 0.100183
vn 0.4205599 -0.326545 0.8464619
v -0.0578408 0.0815105 0.100183
vn -0.4205599 -0.326545 0.8464619
v 0 0.213773 0
vt 1 0.821077
vn 0 1 0
vt 1.13208 1.03779
vt 0.867919 1.03779
vt 1.26416 0.821077
vt 0.735838 0.821077
vt 1.13058 0.604368
vt 0.869417 0.604368
vt 1.18803 0.247366
vt 0.811975 0.247366
v 0.1224 0.490508 -0.1224
vt 0.0592976 0.554222
vn 0.5586994 0.6095663 -0.5623913
v 0.180638 0.377366 -0.111641
vn 0.8500319 -0.00438018 -0.526713
v 0.0756471 0.377366 -0.198047
vn 0.3581961 -0.0001915721 -0.9336464
v 0.198047 0.44921 0
vn 0.9232629 0.383094 0.0287176
v 0 0.481005 -0.180638
vn 0 0.5568968 -0.8305817
v 0.111641 0.541952 0
vn 0.484248 0.8749309 0
v 0 0.55733 -0.0756471
vn 0 0.946232 -0.323489
v 0.1224 0.265228 -0.1224
vn 0.5564233 -0.6322843 -0.5390823
v 0.198047 0.315567 0
vn 0.9309139 -0.364052 -0.0294219
v -0.1224 0.490508 -0.1224
vn -0.5587 0.609566 -0.562391
v -0.0756471 0.377366 -0.198047
vn -0.3581961 -0.0001915541 -0.9336464
v 0.1224 0.490508 0.1224
vn 0.570092 0.571447 0.590291
v 0 0.55733 0.0756471
vn 0 0.946232 0.323489
v 0.111641 0.222825 0
vn 0.4729318 -0.8809127 -0.01811839
v 0.180638 0.349067 0.124318
vn 0.8587879 -0.03490449 0.5111409
v 0.1224 0.258195 0.1224
vn 0.5169052 -0.7144113 0.4716202
v 0 0.274731 -0.180638
vn 0 -0.5718249 -0.8203757
v -0.111641 0.541952 0
vn -0.484248 0.8749309 0
v -0.180638 0.377366 -0.111641
vn -0.8500319 -0.00438028 -0.526713
v -0.198047 0.44921 0
vn -0.9232629 0.383094 0.0287176
v 0 0.207447 0.0756471
vn 0 -0.967365 0.253387
v 0 0.207447 -0.0756471
vn 0 -0.9585519 -0.284918
v 0 0.481005 0.180638
vn 0 0.50056 0.8657019
v -0.1224 0.265228 -0.1224
vn -0.5564233 -0.6322843 -0.5390823
v -0.1224 0.490508 0.1224
vn -0.570092 0.571447 0.590291
v -0.198047 0.315567 0
vn -0.9309139 -0.364052 -0.0294219
v -0.180638 0.349067 0.124318
vn -0.8587879 -0.0349044 0.5111409
v 0 0.267699 0.180638
vn 0 -0.6385409 0.7695879
v -0.111641 0.222825 0
vn -0.4729318 -0.8809127 -0.01811839
v -0.1224 0.258195 0.1224
vn -0.5169052 -0.7144113 0.4716202
v 0.0769524 0.368916 -0.212908
vt 0.0876572 0.0670322
vn 0.8486903 0.5288902 0
v 0 0.39831 -0.244848
vn 0 0.771671 -0.636022
v 0 0.39831 -0.180968
vn 0 0.9086426 0.4175748
v 0.0475592 0.321357 -0.264587
vn 0.418751 0 -0.9081011
v 0.0475592 0.321357 -0.161229
vn 0.6973458 0 0.7167348
v 0.0769524 0.273798 -0.212908
vn 0.8486903 -0.5288902 0
v -0.0769524 0.368916 -0.212908
vn -0.8486903 0.5288902 0
v -0.0475592 0.321357 -0.264587
vn -0.418751 0 -0.9081011
v 0 0.244405 -0.180968
vn 0 -0.9086424 0.4175752
v -0.0475592 0.321357 -0.161229
vn -0.6973458 0 0.7167348
v 0 0.244405 -0.244848
vn 0 -0.771671 -0.636022
v -0.0769524 0.273798 -0.212908
vn -0.8486903 -0.5288902 0
vt 0.00129104 0.0811869
v 0.101074 0.349067 0.176235
vt 0.386494 0.39129
vn 0.4117201 -0.0120788 0.9112303
v 0 0.349067 0.198047
vt 0.00129104 0.39129
vn 0 0.0008788507 0.9999996
vt 0.467768 0.0449672
v -0.101074 0.349067 0.176235
vn -0.4117201 -0.0120788 0.9112303
vt 0.412586 0.39003
o merged_2_0_node
g polygon_0
usemtl mat_body2_mat_id
f 13/7/2 14/7/3 15/7/4
f 13/7/2 16/7/5 14/7/3
f 13/7/2 15/7/4 17/7/6
f 13/7/2 18/7/7 16/7/5
f 13/7/2 17/7/6 19/7/8
f 13/7/2 20/7/9 18/7/7
f 13/7/2 19/7/8 20/7/9
f 14/7/3 17/7/10 15/7/4
f 14/7/3 16/7/5 21/7/11
f 14/7/3 22/7/12 17/7/10
f 14/7/3 21/7/11 22/7/12
f 17/7/6 23/7/13 19/7/8
f 17/7/6 24/7/14 23/7/13
f 19/7/8 23/7/13 20/7/9
f 18/7/7 20/7/9 25/7/15
f 16/7/5 26/7/16 21/7/11
f 22/7/12 21/7/11 27/7/17
f 22/7/12 27/7/17 17/7/18
f 24/7/14 27/7/17 23/7/13
f 24/7/14 17/7/18 27/7/17
f 20/7/9 28/7/19 25/7/15
f 20/7/9 23/7/13 28/7/19
f 26/7/16 29/7/20 21/7/11
f 26/7/16 30/7/21 29/7/20
f 29/7/20 27/7/17 21/7/11
f 29/7/20 30/7/21 27/7/17
f 25/7/15 28/7/19 31/7/22
f 31/7/22 28/7/19 23/7/13
f 32/8/23 33/8/24 34/8/25
f 32/8/23 35/8/26 33/8/24
f 32/8/23 34/8/25 36/8/27
f 32/8/23 37/8/28 35/8/26
f 32/8/23 36/8/27 38/8/29
f 32/8/23 39/8/30 37/8/28
f 32/8/23 38/8/29 39/8/30
f 33/8/24 40/8/31 34/8/25
f 36/8/27 41/8/32 38/8/29
f 36/8/27 34/8/25 42/8/33
f 36/8/27 43/8/34 41/8/32
f 36/8/27 42/8/33 43/8/34
f 39/8/30 41/8/32 37/8/28
f 39/8/30 38/8/29 41/8/32
f 40/8/31 44/8/35 34/8/25
f 40/8/31 43/8/34 44/8/35
f 40/8/31 45/8/36 43/8/34
f 44/8/35 42/8/33 34/8/25
f 44/8/35 43/8/34 42/8/33
f 37/8/28 41/8/32 46/8/37
f 46/8/37 43/8/34 45/8/36
f 46/8/37 41/8/32 43/8/34
f 47/9/38 16/10/5 18/11/7
f 47/9/38 26/12/16 16/10/5
f 47/9/38 18/11/7 25/13/15
f 47/9/38 30/14/21 26/12/16
f 47/9/38 25/13/15 31/15/22
f 47/9/38 31/15/22 30/14/21
f 31/15/22 27/16/17 30/14/21
f 31/15/22 23/17/13 27/16/17
f 48/18/39 49/18/40 50/18/41
f 48/18/39 51/18/42 49/18/40
f 48/18/39 50/18/41 52/18/43
f 48/18/39 53/18/44 51/18/42
f 48/18/39 52/18/43 54/18/45
f 48/18/39 54/18/45 53/18/44
f 49/18/40 55/18/46 50/18/41
f 49/18/40 51/18/42 56/18/47
f 49/18/40 56/18/47 55/18/46
f 52/18/43 57/18/48 54/18/45
f 52/18/43 50/18/41 58/18/49
f 52/18/43 58/18/49 57/18/48
f 53/18/44 59/18/50 51/18/42
f 53/18/44 54/18/45 60/18/51
f 53/18/44 60/18/51 59/18/50
f 56/18/47 61/18/52 55/18/46
f 56/18/47 51/18/42 62/18/53
f 56/18/47 63/18/54 61/18/52
f 56/18/47 62/18/53 63/18/54
f 62/18/53 51/18/42 59/18/50
f 50/18/41 64/18/55 58/18/49
f 50/18/41 55/18/46 64/18/55
f 57/18/48 65/18/56 54/18/45
f 57/18/48 58/18/49 66/18/57
f 57/18/48 67/18/58 65/18/56
f 57/18/48 66/18/57 67/18/58
f 54/18/45 65/18/56 60/18/51
f 61/18/52 63/18/54 68/18/59
f 61/18/52 69/18/60 55/18/46
f 61/18/52 68/18/59 69/18/60
f 55/18/46 69/18/60 64/18/55
f 59/18/50 60/18/51 70/18/61
f 58/18/49 71/18/62 66/18/57
f 58/18/49 64/18/55 71/18/62
f 64/18/55 69/18/60 71/18/62
f 67/18/58 72/18/63 65/18/56
f 67/18/58 66/18/57 73/18/64
f 67/18/58 74/18/65 72/18/63
f 67/18/58 73/18/64 74/18/65
f 72/18/63 70/18/61 60/18/51
f 72/18/63 60/18/51 65/18/56
f 66/18/57 71/18/62 73/18/64
f 63/18/54 75/18/66 68/18/59
f 69/18/60 76/18/67 71/18/62
f 69/18/60 68/18/59 76/18/67
f 71/18/62 76/18/67 73/18/64
f 74/18/65 73/18/64 77/18/68
f 77/18/68 68/18/59 75/18/66
f 77/18/68 76/18/67 68/18/59
f 77/18/68 73/18/64 76/18/67
f 78/19/69 79/19/70 80/19/71
f 78/19/69 81/19/72 79/19/70
f 78/19/69 80/19/71 82/19/73
f 78/19/69 83/19/74 81/19/72
f 78/19/69 82/19/73 83/19/74
f 79/19/70 84/19/75 80/19/71
f 79/19/70 81/19/72 85/19/76
f 79/19/70 85/19/76 84/19/75
f 82/19/73 86/19/77 83/19/74
f 80/19/71 84/19/75 87/19/78
f 81/19/72 88/19/79 85/19/76
f 81/19/72 83/19/74 88/19/79
f 83/19/74 86/19/77 88/19/79
f 84/19/75 89/19/80 87/19/78
f 84/19/75 85/19/76 89/19/80
f 89/19/80 88/19/79 86/19/77
f 89/19/80 86/19/77 87/19/78
f 89/19/80 85/19/76 88/19/79
f 75/20/66 90/21/81 91/22/82
f 75/20/66 63/23/54 90/21/81
f 75/20/66 91/22/82 92/21/83
f 75/20/66 92/21/83 77/23/68
f 63/23/54 62/24/53 90/21/81
f 92/21/83 74/24/65 77/23/68
v 0 0.563112 0.134692
vt 0.526015 0.355977
vn 0 0.6427391 0.7660851
v 0 0.699917 -0.00841227
vt -0.0796187 0.987407
vn 0 0.7228373 0.6910183
v -0.100832 0.54983 0.118633
vt 1.14871 0.517479
vn -0.202374 0.636735 0.744052
v 0.100832 0.54983 0.118633
vn 0.202374 0.636735 0.744052
v 0 0.444793 0.205507
vt 0.945863 -0.0817535
vn 0 0.5135499 0.8580598
vn 0 -0.6427391 -0.7660851
vn 0.202374 -0.636735 -0.744052
vn 0 -0.7228373 -0.6910183
vn -0.202374 -0.636735 -0.744052
vn 0 -0.5135499 -0.8580598
v 0.153497 0.42469 -0.193656
vn 0.133016 0.117295 0.9841487
v 0.295866 0.550233 -0.249911
vn 0.213124 0.187934 0.95878
v 0.0841434 0.49797 -0.214191
vn 0.003467771 0.2728751 0.9620433
v 0.217522 0.346713 -0.214191
vn 0.2711651 -0.03070191 0.9620431
v 0.0500917 0.333507 -0.190963
vn 0.0146528 0.012921 0.9998091
vn -0.133017 -0.117295 -0.9841486
vn -0.003467891 -0.2728751 -0.9620433
vn -0.213124 -0.187934 -0.95878
vn -0.2711651 0.03070191 -0.9620431
vn -0.0146529 -0.012921 -0.9998091
v -0.153497 0.42469 -0.193656
vn -0.133016 0.117295 0.9841487
v -0.0841433 0.49797 -0.214191
v -0.295866 0.550233 -0.249911
vn -0.213124 0.1879349 0.9587798
v -0.217522 0.346713 -0.214191
vn -0.2711651 -0.0307021 0.9620431
v -0.0500917 0.333507 -0.190963
vn -0.0146527 0.0129211 0.9998091
vn 0.133016 -0.117295 -0.9841487
vn 0.213124 -0.1879349 -0.9587798
vn 0.2711651 0.0307021 -0.9620431
vn 0.0146527 -0.0129212 -0.9998091
v 0.148544 0.211179 -0.193656
vn 0.126645 -0.124147 0.9841487
v 0.284094 0.0783026 -0.249911
vn 0.202916 -0.198913 0.9587799
v 0.216593 0.285671 -0.214191
vn 0.272407 0.0163579 0.962043
v 0.0754222 0.141659 -0.214191
vn -0.0109286 -0.2726781 0.9620433
v 0.0500917 0.307689 -0.190963
vn 0.0139512 -0.0136758 0.9998091
vn -0.126645 0.124147 -0.9841487
vn -0.272407 -0.0163578 -0.962043
vn -0.202916 0.198913 -0.9587799
vn 0.0109286 0.2726781 -0.9620433
vn -0.0139512 0.0136759 -0.9998091
v -0.148544 0.211179 -0.193656
vn -0.126645 -0.124147 0.9841487
v -0.216593 0.285671 -0.214191
vn -0.2724061 0.01635781 0.9620433
v -0.284094 0.0783027 -0.249911
vn -0.202916 -0.198913 0.9587799
v -0.0754221 0.141659 -0.214191
vn 0.0109284 -0.2726781 0.9620433
v -0.0500917 0.307689 -0.190963
vn -0.0139509 -0.0136758 0.9998091
vn 0.126645 0.124147 -0.9841487
vn 0.202916 0.198913 -0.9587799
vn 0.2724061 -0.01635781 -0.9620433
vn -0.0109284 0.2726781 -0.9620433
vn 0.0139508 0.0136759 -0.9998091
o merged_3_0_node
g polygon_0
usemtl mat_flower1_mat_id
f 93/25/84 94/26/85 95/27/86
f 96/27/87 94/26/85 93/25/84
f 97/28/88 93/25/84 95/27/86
f 97/28/88 96/27/87 93/25/84
f 93/25/89 95/27/90 94/26/91
f 96/27/92 93/25/89 94/26/91
f 97/28/93 95/27/90 93/25/89
f 97/28/93 93/25/89 96/27/92
f 98/25/94 99/26/95 100/27/96
f 101/27/97 99/26/95 98/25/94
f 102/28/98 98/25/94 100/27/96
f 102/28/98 101/27/97 98/25/94
f 98/25/99 100/27/100 99/26/101
f 101/27/102 98/25/99 99/26/101
f 102/28/103 100/27/100 98/25/99
f 102/28/103 98/25/99 101/27/102
f 103/25/104 104/27/96 105/26/105
f 106/27/106 103/25/104 105/26/105
f 107/28/107 104/27/96 103/25/104
f 107/28/107 103/25/104 106/27/106
f 103/25/108 105/26/109 104/27/100
f 106/27/110 105/26/109 103/25/108
f 107/28/111 103/25/108 104/27/100
f 107/28/111 106/27/110 103/25/108
f 108/25/112 109/26/113 110/27/114
f 111/27/115 109/26/113 108/25/112
f 112/28/116 108/25/112 110/27/114
f 112/28/116 111/27/115 108/25/112
f 108/25/117 110/27/118 109/26/119
f 111/27/120 108/25/117 109/26/119
f 112/28/121 110/27/118 108/25/117
f 112/28/121 108/25/117 111/27/120
f 113/25/122 114/27/123 115/26/124
f 116/27/125 113/25/122 115/26/124
f 117/28/126 114/27/123 113/25/122
f 117/28/126 113/25/122 116/27/125
f 113/25/127 115/26/128 114/27/129
f 116/27/130 115/26/128 113/25/127
f 117/28/131 113/25/127 114/27/129
f 117/28/131 116/27/130 113/25/127
vt 0.555702 0.816172
vt -0.130195 1.05183
vt 0.744299 1.06881
vt 1.21172 0.816172
vt -0.166428 0.816172
o merged_4_0_node
g polygon_0
usemtl TEX_ANIM_EYE_mat_id
f 92/29/83 70/30/61 72/31/63
f 72/31/63 74/32/65 92/29/83
f 59/31/50 90/29/81 62/32/53
f 90/29/81 70/30/61 91/33/82
f 91/33/82 70/30/61 92/29/83
f 59/31/50 70/30/61 90/29/81
