mtllib Unown_Exq.mtl
v 0.0885727 0.215169 -0.0450122
vt 0 0
vn 0.6327453 0.6327453 -0.4463932
v 0 0.251857 -0.0450122
vt 0.125 0
vn 0 0.894837 -0.446393
v 0.0885727 0.215169 0.0426161
vt 0 1
vn 0.703783 0.705002 0.0875313
v 0 0.251857 0.0426161
vt 0.125 1
vn -0.0008618464 0.9961614 0.08753144
v -0.0885727 0.215169 -0.0450122
vt 0.25 0
vn -0.6327453 0.6327453 -0.4463932
v -0.0885727 0.215169 0.0426161
vt 0.25 1
vn -0.705002 0.703783 0.0875312
v -0.125261 0.126596 -0.0450122
vt 0.375 0
vn -0.894837 0 -0.446393
v -0.125261 0.126596 0.0426161
vt 0.375 1
vn -0.9961614 -0.0008617943 0.08753134
v -0.0885727 0.0380234 -0.0450122
vt 0.5 0
vn -0.6327453 -0.6327453 -0.4463932
v -0.0885727 0.0380234 0.0426161
vt 0.5 1
vn -0.703783 -0.705002 0.0875313
v 0 0.00133543 -0.0450122
vt 0.625 0
vn 0 -0.894837 -0.446393
v 0 0.00133543 0.0426161
vt 0.625 1
vn 0.0008618005 -0.9961614 0.08753125
v 0.0885727 0.0380234 -0.0450122
vt 0.75 0
vn 0.6327453 -0.6327453 -0.4463932
v 0.0885727 0.0380234 0.0426161
vt 0.75 1
vn 0.705002 -0.703783 0.0875313
v 0.125261 0.126596 -0.0450122
vt 0.875 0
vn 0.894837 0 -0.446393
v 0.125261 0.126596 0.0426161
vt 0.875 1
vn 0.9961614 0.0008618905 0.08753125
vt 1 0
vt 1 1
vt 0.5 -1
vt 0.853553 -0.853553
v 0 0.126596 -0.0632906
vt 0.5 -0.5
vn 0 0 -1
vt 0.146447 -0.853553
vt 0 -0.5
vt 0.146447 -0.146447
vt 0.853553 -0.146447
vt 1 -0.5
vt 0.853553 1.85355
vt 0.5 2
v 0.0727545 0.199351 0.0495704
vt 0.676777 1.67678
vn 0.1868591 0.1911201 0.9636165
v 0 0.229487 0.0495704
vt 0.5 1.75
vn -0.003013011 0.2672721 0.9636164
vt 0.146447 1.85355
v -0.0727545 0.199351 0.0495704
vt 0.323223 1.67678
vn -0.1911199 0.1868589 0.9636166
vt 0 1.5
v -0.10289 0.126596 0.0495704
vt 0.25 1.5
vn -0.2672721 -0.003013041 0.9636164
vt 0.146447 1.14645
v -0.0727545 0.0538416 0.0495704
vt 0.323223 1.32322
vn -0.1868591 -0.1911201 0.9636165
v 0 0.0237057 0.0495704
vt 0.5 1.25
vn 0.003013051 -0.2672721 0.9636164
vt 0.853553 1.14645
v 0.0727545 0.0538416 0.0495704
vt 0.676777 1.32322
vn 0.1911201 -0.1868591 0.9636165
vt 1 1.5
v 0.10289 0.126596 0.0495704
vt 0.75 1.5
vn 0.2672718 0.003013008 0.9636164
v -0.0351562 0.229503 0.03
vn -0.6302588 -0.2393069 0.7385838
v 0.0351562 0.229503 0.03
vn 0.6302588 -0.2393069 0.7385838
v -0.0351562 0.414684 0.03
vn -0.6495631 0.06788521 0.7572711
v 0.0351562 0.414684 0.03
vn 0.6495631 0.06788521 0.7572711
v -0.0351562 0.229503 -0.03
vn -0.6302588 -0.2393069 -0.7385838
v -0.0351562 0.414684 -0.03
vn -0.6495631 0.06788521 -0.7572711
v 0.0351562 0.229503 -0.03
vn 0.6302588 -0.2393069 -0.7385838
v 0.0351562 0.414684 -0.03
vn 0.6495631 0.06788521 -0.7572711
v 0 0.439684 0
vn 0 1 0
o merged_0_0_node
g polygon_0
usemtl mat_body_mat_id
f 1/1/1 2/2/2 3/3/3
f 3/3/3 2/2/2 4/4/4
f 2/2/2 5/5/5 4/4/4
f 4/4/4 5/5/5 6/6/6
f 5/5/5 7/7/7 6/6/6
f 6/6/6 7/7/7 8/8/8
f 7/7/7 9/9/9 8/8/8
f 8/8/8 9/9/9 10/10/10
f 9/9/9 11/11/11 10/10/10
f 10/10/10 11/11/11 12/12/12
f 11/11/11 13/13/13 12/12/12
f 12/12/12 13/13/13 14/14/14
f 13/13/13 15/15/15 14/14/14
f 14/14/14 15/15/15 16/16/16
f 15/15/15 1/17/1 16/16/16
f 16/16/16 1/17/1 3/18/3
f 2/19/2 1/20/1 17/21/17
f 5/22/5 2/19/2 17/21/17
f 7/23/7 5/22/5 17/21/17
f 9/24/9 7/23/7 17/21/17
f 11/9/11 9/24/9 17/21/17
f 13/25/13 11/9/11 17/21/17
f 15/26/15 13/25/13 17/21/17
f 1/20/1 15/26/15 17/21/17
f 3/27/3 4/28/4 18/29/18
f 4/28/4 19/30/19 18/29/18
f 4/28/4 6/31/6 19/30/19
f 6/31/6 20/32/20 19/30/19
f 6/31/6 8/33/8 20/32/20
f 8/33/8 21/34/21 20/32/20
f 8/33/8 10/35/10 21/34/21
f 10/35/10 22/36/22 21/34/21
f 10/35/10 12/10/12 22/36/22
f 12/10/12 23/37/23 22/36/22
f 12/10/12 14/38/14 23/37/23
f 14/38/14 24/39/24 23/37/23
f 14/38/14 16/40/16 24/39/24
f 16/40/16 25/41/25 24/39/24
f 16/40/16 3/27/3 25/41/25
f 3/27/3 18/29/18 25/41/25
f 26/1/26 27/17/27 28/3/28
f 28/3/28 27/17/27 29/18/29
f 30/1/30 31/3/31 32/17/32
f 32/17/32 31/3/31 33/18/33
f 30/1/30 32/17/32 26/1/26
f 26/1/26 32/17/32 27/17/27
f 32/17/32 33/18/33 27/17/27
f 27/17/27 33/18/33 29/18/29
f 29/18/29 34/10/34 28/3/28
f 31/3/31 30/1/30 28/3/28
f 28/3/28 30/1/30 26/1/26
f 33/18/33 31/3/31 34/10/34
f 34/10/34 31/3/31 28/3/28
f 33/18/33 34/10/34 29/18/29
v 0 0.126596 0.0767688
vt 0.5 0.875002
vn 0 0 1
vt 0.853553 0.963283
vt 0.5 0.999851
vt 0.146447 0.963283
vt 0 0.875002
vt 0.146447 0.786721
vt 0.5 0.750153
vt 0.853553 0.786721
vt 1 0.875002
o merged_1_0_node
g polygon_0
usemtl TEX_ANIM_EYE_mat_id
f 35/42/35 18/43/18 19/44/19
f 35/42/35 19/44/19 20/45/20
f 35/42/35 20/45/20 21/46/21
f 35/42/35 21/46/21 22/47/22
f 35/42/35 22/47/22 23/48/23
f 35/42/35 23/48/23 24/49/24
f 35/42/35 24/49/24 25/50/25
f 35/42/35 25/50/25 18/43/18
