mtllib Nincada.mtl
v 0.113165 0.151997 0.146022
vt 0.947136 0.0905748
vn 0.5638429 -0.6274478 -0.5370199
v 0.16701 0.254681 0.156211
vn 0.855696 0 -0.517479
v 0.183105 0.191219 0.261945
vn 0.9209863 -0.3769471 0.09846393
v 0.06994 0.254681 0.0743772
vn 0.3468079 -0.01459559 -0.9378226
v 0.103218 0.103138 0.261945
vn 0.4672768 -0.8814867 0.06807088
v 0 0.133793 0.0988734
vn 0 -0.682841 -0.730567
v 0 0.0914116 0.223938
vn 0 -0.9908264 -0.135141
v 0.183105 0.318144 0.261945
vn 0.93209 0.355235 0.07082511
v 0.113165 0.357366 0.146022
vn 0.5627279 0.6148139 -0.5525769
v 0.0917581 0.166553 0.391101
vn 0.6104993 -0.5424423 0.5771022
v -0.113165 0.151997 0.146022
vn -0.5638429 -0.6274478 -0.5370199
v -0.103218 0.103138 0.261945
vn -0.4672768 -0.8814867 0.06807088
v 0 0.34834 0.0908644
vn 0 0.566545 -0.8240309
v -0.06994 0.254681 0.0743772
vn -0.3468079 -0.01459559 -0.9378226
v 0.103218 0.406225 0.261945
vn 0.49996 0.8659729 0.0114428
v 0.104793 0.357366 0.377868
vn 0.5598 0.563971 0.607092
v 0.06994 0.254682 0.423533
vn 0.4650708 0.08500657 0.8811827
v 0 0.146607 0.451702
vn 0 -0.5450933 0.8383754
v -0.183105 0.191219 0.261945
vn -0.9209863 -0.3769471 0.09846393
v -0.0917581 0.166553 0.391101
vn -0.6104993 -0.5424423 0.5771022
v -0.113165 0.357366 0.146022
vn -0.5627279 0.6148139 -0.5525769
v 0 0.420829 0.1903
vn 0 0.9458263 -0.3246731
v 0 0.420829 0.333589
vn 0 0.9418777 0.3359559
v 0 0.34834 0.4139
vn 0 0.5318472 0.8468403
v -0.06994 0.254682 0.423533
vn -0.4650708 0.08500647 0.8811827
v -0.16701 0.254681 0.156211
vn -0.855696 0 -0.517479
v -0.104793 0.357366 0.377868
vn -0.5598 0.563971 0.607092
v -0.103218 0.406225 0.261945
vn -0.49996 0.8659729 0.0114428
v -0.183105 0.318144 0.261945
vn -0.93209 0.355235 0.07082511
v 0 0.117366 0.37043
vt 0.5 0.161501
vn 0 -0.9387959 0.344474
vt 0.5 -0.419505
vt 0.95318 -0.252634
vt 0.0468202 -0.252634
vt 0.902865 0.314429
vt 0.0971351 0.314429
vt 0.5 0.580495
v 0 0.254682 0.443574
vt 0 0.482774
vn 0 0.18033 0.9836062
vt 0 -0.193969
vt 0.439171 0.482774
vt 0 1.07568
vt 0.664779 1.132
v 0.0931428 0.121255 0.427285
vt 0.143013 0.210808
vn 0.9995432 0.013867 -0.02685321
v 0.0752688 0.118698 0.410464
vn -0.02478351 -0.132626 -0.9908562
v 0.0743579 0.197958 0.417488
vn -0.01730621 0.9910694 -0.1322191
v 0.0770444 0.0440672 0.438019
vn 0.01730661 -0.9910694 0.1322191
v 0.0761336 0.123327 0.445044
vn 0.02478331 0.132626 0.9908562
v 0.0582596 0.120771 0.428222
vn -0.9995432 -0.0138669 0.02685301
v -0.0931428 0.121255 0.427285
vn -0.9995432 0.013867 -0.02685281
v -0.0743579 0.197958 0.417488
vn 0.01730551 0.9910693 -0.13222
v -0.0752688 0.118698 0.410464
vn 0.02478311 -0.132626 -0.9908563
v -0.0761336 0.123327 0.445044
vn -0.02478311 0.132626 0.9908563
v -0.0770445 0.0440672 0.438019
vn -0.0173043 -0.9910697 0.132217
v -0.0582596 0.120771 0.428222
vn 0.9995432 -0.0138669 0.02685251
o merged_0_0_node
g polygon_0
usemtl mat_kao_mat_id
f 1/1/1 2/1/2 3/1/3
f 1/1/1 4/1/4 2/1/2
f 1/1/1 3/1/3 5/1/5
f 1/1/1 6/1/6 4/1/4
f 1/1/1 5/1/5 7/1/7
f 1/1/1 7/1/7 6/1/6
f 2/1/2 8/1/8 3/1/3
f 2/1/2 4/1/4 9/1/9
f 2/1/2 9/1/9 8/1/8
f 5/1/5 3/1/3 10/1/10
f 7/1/7 11/1/11 6/1/6
f 7/1/7 12/1/12 11/1/11
f 4/1/4 13/1/13 9/1/9
f 4/1/4 6/1/6 14/1/14
f 4/1/4 14/1/14 13/1/13
f 6/1/6 11/1/11 14/1/14
f 8/1/8 9/1/9 15/1/15
f 8/1/8 15/1/15 16/1/16
f 10/1/10 17/1/17 18/1/18
f 12/1/12 19/1/19 11/1/11
f 12/1/12 20/1/20 19/1/19
f 13/1/13 14/1/14 21/1/21
f 13/1/13 22/1/22 9/1/9
f 13/1/13 21/1/21 22/1/22
f 9/1/9 22/1/22 15/1/15
f 16/1/16 15/1/15 23/1/23
f 16/1/16 23/1/23 24/1/24
f 15/1/15 22/1/22 23/1/23
f 18/1/18 25/1/25 20/1/20
f 11/1/11 19/1/19 26/1/26
f 11/1/11 26/1/26 14/1/14
f 14/1/14 26/1/26 21/1/21
f 24/1/24 23/1/23 27/1/27
f 22/1/22 21/1/21 28/1/28
f 22/1/22 28/1/28 23/1/23
f 23/1/23 28/1/28 27/1/27
f 19/1/19 29/1/29 26/1/26
f 29/1/29 28/1/28 21/1/21
f 29/1/29 27/1/27 28/1/28
f 29/1/29 21/1/21 26/1/26
f 30/2/30 7/3/7 5/4/5
f 30/2/30 12/5/12 7/3/7
f 30/2/30 5/4/5 10/6/10
f 30/2/30 20/7/20 12/5/12
f 30/2/30 10/6/10 18/8/18
f 30/2/30 18/8/18 20/7/20
f 31/9/31 18/10/18 17/11/17
f 31/9/31 25/11/25 18/10/18
f 31/9/31 17/11/17 24/12/24
f 31/9/31 24/12/24 25/11/25
f 17/11/17 16/13/16 24/12/24
f 25/11/25 24/12/24 27/13/27
f 32/14/32 33/14/33 34/14/34
f 32/14/32 35/14/35 33/14/33
f 32/14/32 34/14/34 36/14/36
f 32/14/32 36/14/36 35/14/35
f 33/14/33 37/14/37 34/14/34
f 33/14/33 35/14/35 37/14/37
f 37/14/37 36/14/36 34/14/34
f 37/14/37 35/14/35 36/14/36
f 38/14/38 39/14/39 40/14/40
f 38/14/38 41/14/41 39/14/39
f 38/14/38 40/14/40 42/14/42
f 38/14/38 42/14/42 41/14/41
f 39/14/39 43/14/43 40/14/40
f 39/14/39 41/14/41 43/14/43
f 43/14/43 42/14/42 40/14/40
f 43/14/43 41/14/41 42/14/42
v -0.116691 0.253111 -0.0994614
vt 0 0.912552
vn -0.6309423 0.7669753 -0.1168791
v 0 0.279195 -0.104678
vn 0 0.9757049 -0.219089
v -0.0836286 0.199529 -0.212793
vt 1 0.912552
vn -0.328122 0.4561339 -0.8272109
v 0.0836286 0.199529 -0.212793
vn 0.3281221 0.4561332 -0.8272113
v 0.116691 0.253111 -0.0994613
vn 0.6309429 0.7669749 -0.116879
v -0.118966 0.12269 -0.174296
vn -0.751148 -0.232745 -0.617743
v -0.165999 0.159208 -0.0816594
vn -0.9758682 0.203786 -0.07843792
v -0.087238 0.0458507 -0.135799
vn -0.29722 -0.8956521 -0.330859
v -0.132658 0.0392214 -0.0586404
vn -0.4590588 -0.8862407 -0.06198837
vt 1 0.912738
v 0.0872379 0.0458507 -0.135799
vn 0.252922 -0.9213431 -0.295224
vt 0 0.912738
v 0.132658 0.0392214 -0.0586404
vn 0.4397568 -0.8956866 -0.06602618
v 0.118966 0.12269 -0.174296
vn 0.7511478 -0.2327459 -0.6177429
v 0.165999 0.159208 -0.0816594
vn 0.9758684 0.2037851 -0.07843793
v 0.10162 0.231134 0.0292367
vt 0 0.927543
vn 0.6539688 0.7379098 0.166775
vt 1 0.927543
v 0 0.257218 0.0292367
vn 0 0.9887578 0.149526
v -0.10162 0.231134 0.0292367
vn -0.6539683 0.7379103 0.1667751
v -0.152952 0.159208 0.0292367
vn -0.9521474 0.2537338 0.1703949
v -0.125285 0.0429391 0.0292367
vn -0.3851261 -0.9093193 0.1575321
v 0.125285 0.0429391 0.0292367
vn 0.4126779 -0.8971477 0.1575529
v 0.152952 0.159208 0.0292367
vn 0.9521477 0.2537329 0.1703949
v -0.0901304 0.219067 0.138828
vt 0 0.790662
vn -0.5802511 0.6738642 0.4574011
v 0 0.245152 0.138828
vn 0 0.8732057 0.4873518
vt 1 0.790662
v 0.0901304 0.219067 0.138828
vn 0.5802522 0.6738632 0.4574012
vt 1 0.0119451
v -0.128215 0.159208 0.138828
vt 0.0224865 0.0119449
vn -0.827682 0.183885 0.530216
vt 1 0.67406
vt 0.0224865 0.563957
vt 1 0.710318
vt 1 0.703372
vt 0 0.710318
v -0.0997759 0.0628309 0.138828
vt 0 0.70456
vn -0.294375 -0.7853599 0.544567
v 0.0997758 0.0628309 0.138828
vn 0.3209989 -0.7525698 0.5749769
v 0.128215 0.159208 0.138828
vn 0.8276821 0.183884 0.530216
vt 1 0.747052
v 0 0.0639994 -0.232987
vt 0 0.747052
vn 0 -0.5237699 -0.8518598
vt 0.56346 0.563957
vt 0.56346 0.760144
v 0 0.1566 0.188389
vt 0.291627 0.369394
vn 0 -0.105974 0.9943689
vt 0.56346 0.0119449
v 0.234455 0.1354125 -0.1109525
vt 0.163373 0.139301
vn 0.9396763 0.3418301 0.01267119
v 0.199567 0.1298091 -0.1459026
vn -0.05309312 0.1823608 -0.9817971
v 0.155958 0.2474762 -0.08589213
vn -0.337883 0.9219112 0.189512
v 0.16841 0.111387 -0.1118426
vn -0.9396763 -0.3418301 -0.01267129
v 0.203298 0.1169914 -0.07689276
vn 0.05309321 -0.1823608 0.9817971
v 0.246907 -0.0006758415 -0.136903
vn 0.3378829 -0.921911 -0.189513
v -0.234455 0.1354125 -0.1109525
vn -0.9396763 0.3418301 0.01267109
v -0.155958 0.2474762 -0.08589213
vn 0.3378839 0.9219109 0.189512
v -0.199566 0.1298091 -0.1459026
vn 0.05309291 0.1823618 -0.9817969
v -0.16841 0.111387 -0.1118435
vn 0.9396763 -0.3418301 -0.01267099
v -0.203298 0.1169914 -0.07689276
vn -0.05309301 -0.1823618 0.9817969
v -0.246907 -0.0006758295 -0.136903
vn -0.3378821 -0.9219115 -0.1895121
o merged_1_0_node
g polygon_0
usemtl mat_body_mat_id
f 44/15/44 45/15/45 46/16/46
f 46/16/46 45/15/45 47/16/47
f 47/16/47 45/15/45 48/15/48
f 49/16/49 50/15/50 46/16/46
f 46/16/46 50/15/50 44/15/44
f 51/16/51 52/15/52 49/16/49
f 49/16/49 52/15/52 50/15/50
f 51/17/51 53/17/53 52/18/52
f 52/18/52 53/17/53 54/18/54
f 53/16/53 55/16/55 54/15/54
f 54/15/54 55/16/55 56/15/56
f 55/16/55 47/16/47 56/15/56
f 56/15/56 47/16/47 48/15/48
f 57/19/57 48/20/48 58/19/58
f 58/19/58 48/20/48 45/20/45
f 45/20/45 44/20/44 58/19/58
f 58/19/58 44/20/44 59/19/59
f 44/20/44 50/20/50 59/19/59
f 59/19/59 50/20/50 60/19/60
f 60/19/60 50/20/50 61/19/61
f 61/19/61 50/20/50 52/20/52
f 52/20/52 54/20/54 61/19/61
f 61/19/61 54/20/54 62/19/62
f 54/20/54 56/20/56 62/19/62
f 62/19/62 56/20/56 63/19/63
f 48/20/48 57/19/57 56/20/56
f 56/20/56 57/19/57 63/19/63
f 64/21/64 65/21/65 59/22/59
f 59/22/59 65/21/65 58/22/58
f 58/22/58 65/21/65 57/22/57
f 57/22/57 65/21/65 66/21/66
f 60/23/60 67/24/67 59/25/59
f 59/25/59 67/24/67 64/26/64
f 60/27/60 61/28/61 67/29/67
f 67/29/67 61/28/61 68/30/68
f 61/28/61 62/28/62 68/30/68
f 68/30/68 62/28/62 69/30/69
f 69/30/69 62/28/62 70/29/70
f 70/29/70 62/28/62 63/27/63
f 63/23/63 57/25/57 70/24/70
f 70/24/70 57/25/57 66/26/66
f 46/31/46 47/31/47 71/32/71
f 49/31/49 46/31/46 71/32/71
f 51/31/51 49/31/49 71/32/71
f 53/31/53 51/31/51 71/32/71
f 55/31/55 53/31/53 71/32/71
f 47/31/47 55/31/55 71/32/71
f 66/33/66 65/34/65 72/35/72
f 72/35/72 65/34/65 64/33/64
f 64/33/64 67/36/67 72/35/72
f 67/36/67 68/36/68 72/35/72
f 68/36/68 69/36/69 72/35/72
f 69/36/69 70/36/70 72/35/72
f 70/36/70 66/33/66 72/35/72
f 73/37/73 74/37/74 75/37/75
f 74/37/74 76/37/76 75/37/75
f 76/37/76 77/37/77 75/37/75
f 75/37/75 77/37/77 73/37/73
f 78/37/78 74/37/74 73/37/73
f 78/37/78 76/37/76 74/37/74
f 78/37/78 77/37/77 76/37/76
f 78/37/78 73/37/73 77/37/77
f 79/37/79 80/37/80 81/37/81
f 81/37/81 80/37/80 82/37/82
f 82/37/82 80/37/80 83/37/83
f 80/37/80 79/37/79 83/37/83
f 84/37/84 79/37/79 81/37/81
f 84/37/84 81/37/81 82/37/82
f 84/37/84 82/37/82 83/37/83
f 84/37/84 83/37/83 79/37/79
v 0.154815 0.206286 -0.0369416
vt 0.822777 0.0122309
vn 0.8881921 0.320383 0.329347
v 0.139706 0.262598 -0.0509724
vt 1.08819 0.713043
v 0.144093 0.185019 0.0126621
vt 0.379827 0.0199987
v 0.113258 0.202492 0.0788225
vt -0.0238357 0.657544
vn -0.8881924 -0.3203832 -0.3293462
v -0.113258 0.202492 0.0788225
vn -0.8881926 0.3203829 0.3293459
v -0.139706 0.262598 -0.0509724
v -0.144093 0.185019 0.0126621
v -0.154815 0.206286 -0.0369416
vn 0.8881926 -0.3203829 -0.3293459
v 0.220363 0.1083009 0.126961
vt 0.0644709 0.870078
vn 0.9888399 0.1488296 -0.00674137
v 0.171377 0.09449317 0.09218173
vn 3.221152E-06 -0.1797893 -0.9837051
v 0.155958 0.2027628 0.1097041
vn -0.1462125 0.9882489 -0.04456368
v 0.12239 0.09391895 0.1295882
vn -0.9888554 -0.1414762 0.04636198
v 0.171377 0.110011 0.1769996
vn 0 0.1797092 0.9837198
v 0.186795 -0.0005423643 0.1468441
vn 0.1462806 -0.9400643 0.3080277
v -0.220363 0.1083009 0.126961
vn -0.9888396 0.1488316 -0.006738278
v -0.155958 0.2027628 0.1097041
vn 0.1462105 0.9882502 -0.04454219
v -0.171377 0.09449317 0.09218383
v -0.12239 0.09391895 0.1295882
vn 0.9888555 -0.1414742 0.04636609
v -0.171377 0.110011 0.1769996
v -0.186795 -0.0005423643 0.1468441
vn -0.1462815 -0.9400557 0.3080535
o merged_2_0_node
g polygon_0
usemtl mat_wing_mat_id
f 85/38/85 86/39/85 87/40/85
f 87/40/85 86/39/85 88/41/85
f 85/38/86 87/40/86 86/39/86
f 86/39/86 87/40/86 88/41/86
f 89/41/87 90/39/87 91/40/87
f 91/40/87 90/39/87 92/38/87
f 92/38/88 90/39/88 91/40/88
f 91/40/88 90/39/88 89/41/88
f 93/42/89 94/42/90 95/42/91
f 94/42/90 96/42/92 95/42/91
f 96/42/92 97/42/93 95/42/91
f 95/42/91 97/42/93 93/42/89
f 98/42/94 94/42/90 93/42/89
f 98/42/94 96/42/92 94/42/90
f 98/42/94 97/42/93 96/42/92
f 98/42/94 93/42/89 97/42/93
f 99/42/95 100/42/96 101/42/90
f 101/42/90 100/42/96 102/42/97
f 102/42/97 100/42/96 103/42/93
f 100/42/96 99/42/95 103/42/93
f 104/42/98 99/42/95 101/42/90
f 104/42/98 101/42/90 102/42/97
f 104/42/98 102/42/97 103/42/93
f 104/42/98 103/42/93 99/42/95
vt 1.19505 0.770556
v 0.139867 0.254682 0.367678
vt 0.495213 0.870442
vn 0.8190527 -0.01999599 0.5733698
vt 0.195686 0.731594
vt 0.311863 1.03301
v -0.139867 0.254682 0.367678
vn -0.8190527 -0.01999599 0.5733698
vt -0.0510571 0.870442
vt 1.19505 0.971051
o merged_3_0_node
g polygon_0
usemtl TEX_ANIM_EYE_mat_id
f 3/43/3 105/44/99 10/45/10
f 27/46/27 106/44/100 25/47/25
f 16/46/16 17/47/17 105/44/99
f 105/44/99 17/47/17 10/45/10
f 8/48/8 105/44/99 3/43/3
f 16/46/16 105/44/99 8/48/8
f 19/43/19 20/45/20 106/44/100
f 106/44/100 20/45/20 25/47/25
f 29/48/29 106/44/100 27/46/27
f 19/43/19 106/44/100 29/48/29
