mtllib Lumineon_F.mtl
v 0 0.00133738 0.0453327
vt 0.808809 -0.926096
vn 0 -0.993713 0.111958
v -0.131538 0.05810333 0.0441232
vt 0.812219 -0.926096
vn -0.574926 -0.8066569 0.136985
v -0.116919 0.04626373 -0.0647943
vt 0.926333 -0.926096
vn -0.4619052 -0.8630052 -0.2046111
v -0.102926 0.07549503 0.196125
vt 0.383691 -0.926096
vn -0.5175239 -0.7433479 0.4237959
v 0 0.01145453 -0.0647943
vn -1.37734E-06 -0.9763119 -0.216368
v 0 0.03748983 0.171419
vt 0.453341 -0.926096
vn 0 -0.9227989 0.385282
v 0.116919 0.04626373 -0.0647943
vn 0.4619049 -0.8630068 -0.204605
v 0.102926 0.07549503 0.196125
vn 0.5175239 -0.7433479 0.4237959
v 0.131538 0.05810333 0.0441232
vn 0.574926 -0.8066569 0.136985
v -0.195722 0.116026 -0.0647943
vt 0.926333 -0.465386
vn -0.8126172 -0.5482062 -0.1977961
v -0.225426 0.161531 0.0453327
vt 0.808809 0.0518542
vn -0.9409429 -0.261769 0.214717
v 1.77584E-06 0.05130954 -0.174751
vn 3.240169E-06 -0.8577058 -0.5141409
v 0 0.103724 0.267608
vt 0.185725 -0.60522
vn 0 -0.5936537 0.8047206
v 0.195722 0.116026 -0.0647943
vn 0.8126259 -0.548194 -0.197794
v 0.225426 0.161531 0.0453327
vn 0.9409429 -0.261769 0.214717
v -0.233838 0.222709 -0.0647943
vt 0.926333 0.747259
vn -0.9872454 -0.06034052 -0.1473281
v -0.162144 0.161675 0.221051
vt 0.316982 0.0534991
vn -0.8065136 -0.2507989 0.5353838
v -0.21869 0.331183 0.0453327
vt 0.808809 1.97444
vn -0.9632914 0.1289541 0.2354581
v -0.139983 0.115736 -0.174751
vt 0.926333 -0.468689
vn -0.6068016 -0.5963766 -0.5254776
v 0.139986 0.115736 -0.174751
vn 0.6067941 -0.5963971 -0.5254631
v 0.162144 0.161675 0.221051
vn 0.8065136 -0.2507989 0.5353838
v -0.213817 0.3971471 -0.0647943
vt 0.926333 1.97444
vn -0.8973789 0.397899 -0.190755
v -0.191444 0.415136 0.0453327
vn -0.8476472 0.4888321 0.206246
v -0.152445 0.331186 0.221574
vt 0.315506 1.97444
vn -0.7890211 0.214372 0.5757521
v 0 0.214923 0.332302
vt 0.00333803 0.658747
vn 0 -0.3304579 0.9438208
v -0.0878142 0.258587 0.276938
vt 0.159422 1.15507
vn -0.515912 0.101786 0.850573
v -0.197966 0.248048 -0.174751
vt 0.926333 1.03527
vn -0.8558708 -0.02597879 -0.5165369
v 0.197943 0.248048 -0.174801
vn 0.855852 -0.0259769 -0.516568
v 0.233838 0.222709 -0.0647943
vn 0.987236 -0.060339 -0.147392
v 0 0.127985 -0.271063
vt 0.926333 -0.32945
vn -1.99207E-06 -0.6611658 -0.7502398
v -0.12617 0.415232 0.186946
vt 0.409569 1.97444
vn -0.611381 0.520196 0.59633
v -0.116919 0.496285 -0.0647943
vn -0.5113482 0.8214953 -0.2523261
v -0.0928227 0.498744 0.130823
vt 0.567792 1.97444
vn -0.451674 0.789732 0.415107
v -0.121472 0.505046 0.0453327
vn -0.5659308 0.8223037 0.05948997
v 0 0.241209 0.315145
vt 0.0517093 0.957535
vn 0 0.5465939 0.8373978
v 0 0.361136 0.286852
vt 0.131473 1.97444
vn 0 0.4433462 0.8963504
vn 0 0.2296121 0.9732822
v 0.0878142 0.258587 0.276938
vn 0.515912 0.101786 0.850573
v 0.152445 0.331186 0.221574
vn 0.7890213 0.2143711 0.5757522
v -0.0967949 0.195222 -0.271063
vt 0.926333 0.434815
vn -0.5580031 -0.270694 -0.7844471
v -0.149249 0.410244 -0.174751
vn -0.646818 0.5259351 -0.5522851
v -0.0967949 0.3306711 -0.271063
vn -0.516013 0.263732 -0.81497
v 0.21869 0.331183 0.0453327
vn 0.9632914 0.1289541 0.2354581
v 0.0967949 0.195222 -0.271063
vn 0.5579339 -0.270733 -0.7844829
v 0.213817 0.3971471 -0.0647943
vn 0.89739 0.397875 -0.190753
v 0.0967949 0.3306711 -0.271063
vn 0.5159498 0.2637669 -0.8149987
v 0.149252 0.410244 -0.174751
vn 0.6468139 0.5259529 -0.5522729
v 0 0.541211 0.0453327
vn 0 0.9957368 0.09224088
v 0 0.482185 0.200505
vt 0.371342 1.97444
vn 0 0.7306467 0.6827558
v 0.191444 0.415136 0.0453327
vn 0.8476472 0.4888321 0.206246
v 0.12617 0.415232 0.186946
vn 0.611381 0.520196 0.59633
v 0 0.397908 -0.271063
vn -1.78706E-06 0.561529 -0.8274571
v 0 0.2260671 -0.314459
vt 0.926333 0.785428
vn 0 -0.04842529 -0.9988269
v 0 0.5310941 -0.0647943
vn -1.37002E-06 0.9766027 -0.2150519
v 1.77584E-06 0.4912391 -0.174751
vn 3.3756E-06 0.8200011 -0.5723621
v 0.0928227 0.498744 0.130823
vn 0.451674 0.789732 0.415107
v 0.116919 0.496285 -0.0647943
vn 0.5113479 0.8214977 -0.2523189
v 0.121472 0.505046 0.0453327
vn 0.5659308 0.8223037 0.05949017
o merged_0_0_node
g polygon_0
usemtl karada_mat_id
f 1/1/1 2/2/2 3/3/3
f 1/1/1 4/4/4 2/2/2
f 1/1/1 3/3/3 5/3/5
f 1/1/1 6/5/6 4/4/4
f 1/1/1 5/3/5 7/3/7
f 1/1/1 8/4/8 6/5/6
f 1/1/1 7/3/7 9/2/9
f 1/1/1 9/2/9 8/4/8
f 2/2/2 10/6/10 3/3/3
f 2/2/2 4/4/4 11/7/11
f 2/2/2 11/7/11 10/6/10
f 5/3/5 12/3/12 7/3/7
f 5/3/5 3/3/3 12/3/12
f 6/5/6 8/4/8 13/8/13
f 6/5/6 13/8/13 4/4/4
f 9/2/9 7/3/7 14/6/14
f 9/2/9 15/7/15 8/4/8
f 9/2/9 14/6/14 15/7/15
f 11/7/11 16/9/16 10/6/10
f 11/7/11 4/4/4 17/10/17
f 11/7/11 18/11/18 16/9/16
f 4/4/4 13/8/13 17/10/17
f 3/3/3 19/12/19 12/3/12
f 3/3/3 10/6/10 19/12/19
f 7/3/7 20/12/20 14/6/14
f 7/3/7 12/3/12 20/12/20
f 8/4/8 15/7/15 21/10/21
f 8/4/8 21/10/21 13/8/13
f 18/11/18 22/13/22 16/9/16
f 18/11/18 23/11/23 22/13/22
f 18/11/18 24/14/24 23/11/23
f 17/10/17 13/8/13 25/15/25
f 17/10/17 26/16/26 24/14/24
f 17/10/17 25/15/25 26/16/26
f 13/8/13 21/10/21 25/15/25
f 10/6/10 27/17/27 19/12/19
f 10/6/10 16/9/16 27/17/27
f 16/9/16 22/13/22 27/17/27
f 14/6/14 20/12/20 28/17/28
f 14/6/14 29/9/29 15/7/15
f 14/6/14 28/17/28 29/9/29
f 12/3/12 19/12/19 30/18/30
f 12/3/12 30/18/30 20/12/20
f 23/11/23 24/14/24 31/19/31
f 23/11/23 32/13/32 22/13/22
f 23/11/23 31/19/31 33/20/33
f 23/11/23 34/11/34 32/13/32
f 23/11/23 33/20/33 34/11/34
f 26/16/26 25/15/25 35/21/35
f 26/16/26 36/22/36 24/14/24
f 26/16/26 35/21/37 36/22/36
f 24/14/24 36/22/36 31/19/31
f 21/10/21 37/16/38 25/15/25
f 21/10/21 38/14/39 37/16/38
f 37/16/38 35/21/35 25/15/25
f 37/16/38 36/22/36 35/21/37
f 37/16/38 38/14/39 36/22/36
f 27/17/27 39/23/40 19/12/19
f 27/17/27 22/13/22 40/13/41
f 27/17/27 41/13/42 39/23/40
f 27/17/27 40/13/41 41/13/42
f 22/13/22 32/13/32 40/13/41
f 19/12/19 39/23/40 30/18/30
f 15/7/15 29/9/29 42/11/43
f 28/17/28 20/12/20 43/23/44
f 28/17/28 44/13/45 29/9/29
f 28/17/28 43/23/44 45/13/46
f 28/17/28 46/13/47 44/13/45
f 28/17/28 45/13/46 46/13/47
f 29/9/29 44/13/45 42/11/43
f 20/12/20 30/18/30 43/23/44
f 33/20/33 47/11/48 34/11/34
f 33/20/33 31/19/31 48/24/49
f 33/20/33 48/24/49 47/11/48
f 31/19/31 36/22/36 48/24/49
f 38/14/39 42/11/43 49/11/50
f 38/14/39 50/19/51 36/22/36
f 38/14/39 49/11/50 50/19/51
f 36/22/36 50/19/51 48/24/49
f 42/11/43 44/13/45 49/11/50
f 41/13/42 40/13/41 51/13/52
f 41/13/42 52/25/53 39/23/40
f 41/13/42 51/13/52 52/25/53
f 52/25/53 51/13/52 45/13/46
f 52/25/53 43/23/44 30/18/30
f 52/25/53 30/18/30 39/23/40
f 52/25/53 45/13/46 43/23/44
f 45/13/46 51/13/52 46/13/47
f 32/13/32 34/11/34 53/13/54
f 32/13/32 54/13/55 40/13/41
f 32/13/32 53/13/54 54/13/55
f 51/13/52 54/13/55 46/13/47
f 51/13/52 40/13/41 54/13/55
f 34/11/34 47/11/48 53/13/54
f 50/19/51 55/20/56 48/24/49
f 50/19/51 49/11/50 55/20/56
f 48/24/49 55/20/56 47/11/48
f 44/13/45 46/13/47 56/13/57
f 44/13/45 56/13/57 49/11/50
f 54/13/55 53/13/54 56/13/57
f 54/13/55 56/13/57 46/13/47
f 55/20/56 57/11/58 47/11/48
f 55/20/56 49/11/50 57/11/58
f 57/11/58 56/13/57 53/13/54
f 57/11/58 53/13/54 47/11/48
f 57/11/58 49/11/50 56/13/57
v -0.0375831 0.362616 -0.515236
vt 0.0201558 0.928456
vn -0.5031031 0.692531 0.5169991
v -0.0375831 0.337147 -0.541685
vt 0.0201558 0.927555
vn -0.4816181 -0.4954881 -0.7228662
v -0.0357442 0.269778 -0.45158
vt 0.0290126 0.664738
vn -0.9384807 -0.3119319 0.148164
v 0 0.372268 -0.548205
vt 0.201169 0.998747
vn 0 0.7295241 -0.6839551
v 0 0.283757 -0.441656
vt 0.201169 0.672703
vn 0 0.7777807 0.6285357
v 0.0375831 0.362616 -0.515236
vt 0.382183 0.928456
vn 0.5031031 0.692531 0.5169991
v 0 0.2558 -0.461505
vt 0.201169 0.656773
vn 0 -0.9041879 -0.427135
v 0.0375831 0.337147 -0.541685
vt 0.382183 0.927555
vn 0.4816181 -0.4954881 -0.7228662
v 0 0.234702 -0.327852
vt 0.201169 0.402921
vn 0 0.918319 0.395841
v 0.0357442 0.269778 -0.45158
vt 0.373326 0.664738
vn 0.9384807 -0.3119319 0.148164
vn 0 -0.9877689 -0.155925
v 0.200341 0.450452 0.0254097
vt -0.0498676 0.497132
vn 0.6265259 0.0331136 0.7786969
v 0.43806 0.6169851 -0.194829
vt 0.913361 0.868978
vn 0.6222261 0.154262 0.7674881
v 0.352474 0.6490121 -0.142844
vt 0.686 0.940492
vn 0.5683817 0.2429459 0.7860786
v 0.455156 0.379815 -0.17957
vt 0.846623 0.339407
v 0.322999 0.227811 -0.091667
vt 0.462175 0
vn 0.6119279 -0.07681298 0.7871748
v 0.46534 0.675663 -0.245184
vt 1.13359 1
vn 0.5789911 0.3590201 0.7320341
vn -0.6222261 -0.154262 -0.7674881
vn -0.6265259 -0.0331136 -0.7786969
vn -0.5683811 -0.242946 -0.786079
vn -0.5789919 -0.359021 -0.732033
vn -0.6119279 0.07681298 -0.7871748
v 0.325336 0.156991 -0.10734
vt 0.527184 0.137241
vn 0.913542 0.287344 0.287879
v 0.322934 0.241159 -0.199762
vt 0.939112 0.313941
vn 0.9176992 0.3053081 0.2541951
v 0.21557 0.408249 -0.0128401
vt 0.105996 0.664726
vn 0.9155873 0.2987611 0.2691501
v 0.304283 0.149566 -0.0404943
vt 0.229252 0.121653
vn 0.9105797 0.2660379 0.3163359
v 0.398705 0.00243115 -0.18855
vt 0.425882 0.0135119
vn -0.9135423 -0.2873431 -0.2878791
vn -0.915587 -0.298762 -0.26915
vn -0.9176992 -0.3053091 -0.2541941
vn -0.9079907 -0.2745889 -0.3164709
v 0.398705 0.00243108 -0.18855
v -0.200341 0.450452 0.0254097
vn 0.6265259 -0.0331136 -0.7786969
v -0.43806 0.6169851 -0.194829
vn 0.6222261 -0.154262 -0.7674881
v -0.352474 0.6490121 -0.142844
vn 0.5683817 -0.2429459 -0.7860786
v -0.455156 0.379815 -0.17957
v -0.322999 0.227811 -0.091667
vn 0.6119279 0.07681298 -0.7871748
v -0.46534 0.675663 -0.245184
vn 0.5789911 -0.3590201 -0.7320341
vn -0.6222261 0.154262 0.7674881
vn -0.6265259 0.0331136 0.7786969
vn -0.5683811 0.242946 0.786079
vn -0.5789919 0.359021 0.732033
vn -0.6119279 -0.07681298 0.7871748
v -0.325336 0.156991 -0.10734
vn 0.913542 -0.287344 -0.287879
v -0.322934 0.241159 -0.199762
vn 0.9176992 -0.3053081 -0.2541951
v -0.21557 0.408249 -0.0128401
vn 0.9155873 -0.2987611 -0.2691501
v -0.304283 0.149566 -0.0404943
vn 0.9105797 -0.2660379 -0.3163359
v -0.398705 0.00243115 -0.18855
vn -0.9135423 0.2873431 0.2878791
vn -0.915587 0.298762 0.26915
vn -0.9176992 0.3053091 0.2541941
vn -0.9079907 0.2745889 0.3164709
v -0.398705 0.00243108 -0.18855
vt 0.382183 0.656773
v 0.0804302 -0.131196 0.0611593
vt 0.901737 0.187316
vn 0.908821 0.404014 0.104005
v 0.0791564 -0.09965666 -0.0502258
v 0.0249261 -0.00165583 0.042962
v -0.0791564 -0.09965666 -0.0502258
vn -0.908821 0.404014 0.104005
v -0.0804302 -0.131196 0.0611593
v -0.0249261 -0.00165583 0.042962
vn -0.908821 -0.404014 -0.104005
vn 0.908821 -0.404014 -0.104005
o merged_1_0_node
g polygon_0
usemtl hire_mat_id
f 58/26/59 59/27/60 60/28/61
f 58/26/59 61/29/62 59/27/60
f 58/26/59 60/28/61 62/30/63
f 58/26/59 63/31/64 61/29/62
f 58/26/59 62/30/63 63/31/64
f 59/27/60 64/32/65 60/28/61
f 61/29/62 63/31/64 65/33/66
f 62/30/63 60/28/61 66/34/67
f 62/30/63 67/35/68 63/31/64
f 62/30/63 66/34/67 67/35/68
f 65/33/66 67/35/68 64/32/65
f 65/33/66 63/31/64 67/35/68
f 60/28/61 64/32/65 66/34/69
f 66/34/69 64/32/65 67/35/68
f 68/36/70 69/37/71 70/38/72
f 68/36/70 71/39/70 69/37/71
f 68/36/70 72/40/73 71/39/70
f 70/38/72 69/37/71 73/41/74
f 69/37/75 68/36/76 70/38/77
f 69/37/75 71/39/76 68/36/76
f 69/37/75 70/38/77 73/41/78
f 71/39/76 72/40/79 68/36/76
f 74/42/80 75/43/81 76/44/82
f 74/42/80 76/44/82 77/45/83
f 74/42/80 77/45/83 78/46/83
f 74/42/84 76/44/85 75/43/86
f 74/42/84 77/45/87 76/44/85
f 74/42/84 79/46/87 77/45/87
f 80/36/88 81/37/89 82/38/90
f 80/36/88 83/39/88 81/37/89
f 80/36/88 84/40/91 83/39/88
f 82/38/90 81/37/89 85/41/92
f 81/37/93 80/36/94 82/38/95
f 81/37/93 83/39/94 80/36/94
f 81/37/93 82/38/95 85/41/96
f 83/39/94 84/40/97 80/36/94
f 86/42/98 87/43/99 88/44/100
f 86/42/98 88/44/100 89/45/101
f 86/42/98 89/45/101 90/46/101
f 86/42/102 88/44/103 87/43/104
f 86/42/102 89/45/105 88/44/103
f 86/42/102 91/46/105 89/45/105
f 59/47/60 65/47/66 64/47/65
f 59/47/60 61/47/62 65/47/66
f 92/48/106 93/48/106 94/48/106
f 95/48/107 96/48/107 97/48/107
f 92/48/108 94/48/108 93/48/108
f 96/48/109 95/48/109 97/48/109
vt 0.991222 0.757268
vt 0.0116966 0.75747
vt 0.991222 0.993695
vt 0.00877828 0.9937
o merged_2_0_node
g polygon_0
usemtl TEX_ANIM_EYE_mat_id
f 11/49/11 17/50/17 18/51/18
f 17/50/17 24/52/24 18/51/18
f 15/49/15 42/51/43 21/50/21
f 21/50/21 42/51/43 38/52/39
