mtllib Cubchoo.mtl
v -0.0559866 0.05953 -0.09798791
vt 0.0542177 0.0263414
vn -0.450879 -0.342308 -0.8243381
v -0.111973 0.05953 0.0006186141
vt 0.0325971 0.0263414
vn -0.9749455 -0.2224239 0.002988558
v -0.108494 0.128744 0
vt 0.0334801 0.0502649
vn -0.9781999 0.06587309 -0.196941
v -0.0515859 0 0
vt 0.0556982 0.0176625
vn -0.117986 -0.9930152 -0.0002382431
v -0.0542471 0.128744 -0.0957801
vt 0.0546592 0.0502649
vn -0.4569869 0.236598 -0.8574289
v 0 0.0421811 0
vt 0.0758382 0.0219481
vn 0 -1 -8.447401E-05
v 0.0542471 0.128744 -0.09578
vt 0.0970173 0.0502649
vn 0.4569877 0.2365979 -0.8574285
v 0.0559866 0.05953 -0.09798791
vt 0.0974587 0.0263414
vn 0.450879 -0.342308 -0.8243381
v -0.0559866 0.05953 0.100153
vn -0.4660959 -0.3735049 0.8020279
v 0.108494 0.128744 0
vt 0.118196 0.0502649
vn 0.9781999 0.06587299 -0.196941
v -0.0542471 0.128744 0.102784
vn -0.2758739 -0.07080228 0.9585826
v 0.0515859 0 0
vt 0.0959783 0.0176625
vn 0.117986 -0.9930152 -0.0002381991
v 0.0559866 0.05953 0.100153
vn 0.4660959 -0.3735049 0.8020279
v 0.111973 0.05953 0.0006186141
vt 0.119079 0.0263414
vn 0.9749455 -0.2224239 0.002988839
v 0.0542471 0.128744 0.102784
vn 0.2758739 -0.07080217 0.9585826
v 0 0.229166 0
vt 0.219164 0.95897
vn 0 0.9999891 -0.00466769
v 0.0408399 0.217188 -0.0532654
vt 0.295954 0.93645
vn 0.4063452 0.5324523 -0.7425484
v -0.0408399 0.217188 -0.0532654
vt 0.142374 0.93645
vn -0.4063452 0.5324523 -0.7425484
v 0.0816798 0.217188 0
vt 0.372743 0.93645
vn 0.742117 0.600279 -0.298207
v -0.0816798 0.217188 0
vt 0.065584 0.93645
vn -0.742117 0.600279 -0.298207
v 0.0408399 0.217188 0.0784182
vn 0.09106254 0.6781293 0.7292793
v -0.0408399 0.217188 0.0784182
vn -0.09106248 0.6781298 0.7292788
v 0 0.225658 -0.10158
vt 0.0704865 0.815352
vn 0 -0.9061343 -0.4229901
v 0 0.21753 -0.00790056
vt 0.0704865 0.812988
vn 0 -0.9994897 -0.03194559
v -0.114977 0.236861 -0.00790056
vt 0.0370466 0.81861
vn -0.3555589 -0.9344277 -0.02056049
v 0.114977 0.236861 -0.00790056
vt 0.103926 0.81861
vn 0.355116 -0.9345729 -0.0215899
v -0.174084 0.283983 -0.105774
vt 0.0198559 0.832316
vn -0.6734998 -0.5237439 -0.5216229
v 0.174084 0.283983 -0.105774
vt 0.121117 0.832316
vn 0.6734998 -0.5237439 -0.5216229
v 0 0.285369 -0.175313
vt 0.0704865 0.8279
vn 0 -0.4486782 -0.8936934
v -0.159468 0.266402 -0.00790056
vt 0.0241066 0.827202
vn -0.7926828 -0.5155039 0.3254379
v 0.159468 0.266402 -0.00790056
vt 0.116866 0.827202
vn 0.7935507 -0.5165318 0.3216709
v -0.143687 0.367035 -0.157939
vt 0.0286964 0.85647
vn -0.6141642 -0.03117781 -0.7885622
v 0.143687 0.367035 -0.157939
vt 0.112277 0.85647
vn 0.6141642 -0.03117781 -0.7885622
v 0 0.435467 -0.188578
vt 0.0704865 0.884634
vn 0 0.2579911 -0.9661473
v -0.178665 0.328316 -0.00790056
vt 0.0185235 0.846066
vn -0.9673476 0.05533088 0.2473399
v 0.178665 0.328316 -0.00790056
vt 0.12245 0.846066
vn 0.967644 0.0562645 0.245966
v -0.137034 0.463202 -0.131325
vt 0.0306316 0.88444
vn -0.6851623 0.5190423 -0.5110263
v 0.137034 0.463202 -0.131325
vt 0.110341 0.88444
vn 0.6851619 0.519042 -0.5110269
v 0 0.542723 -0.10913
vt 0.0704865 0.907568
vn 0 0.8398977 -0.5427448
v 0.0704927 0.53509 -0.00790056
vt 0.0909886 0.908811
vn 0.5746002 0.8171673 0.04552052
v -0.0704926 0.53509 -0.00790056
vt 0.0499844 0.908811
vn -0.5746002 0.8171673 0.04552062
v 0 0.56736 -0.00790056
vt 0.0704865 0.914733
vn 0 0.9998646 -0.01645659
v 0.144721 0.460256 -0.00790056
vt 0.112577 0.88444
vn 0.8843269 0.435333 0.168675
v -0.144721 0.460256 -0.00790056
vt 0.0283958 0.88444
vn -0.8843269 0.435333 0.168675
v 0 0.546003 0.0851316
vt 0.0704865 0.908522
vn 0 0.85224 0.523151
v 0.0917803 0.460256 0.110184
vt 0.09718 0.88444
vn 0.7149086 0.4504067 0.5348267
v -0.0917803 0.460256 0.110184
vt 0.0437931 0.88444
vn -0.7149081 0.450407 0.5348271
v 0.216222 0.426142 -0.142642
vt 0.0846823 0.91663
vn 0 0 -1
v 0.166477 0.52698 -0.127679
vt 0.0571271 0.964357
vn -0.4795808 0.7168757 -0.5060548
v 0.265967 0.52698 -0.127679
vt 0.112238 0.964357
vn 0.4795808 0.7168757 -0.5060548
v 0.116733 0.426142 -0.127679
vt 0.0295717 0.91663
vn -0.8689129 0 -0.494965
v 0.315711 0.426142 -0.127679
vt 0.139793 0.91663
vn 0.8689129 0 -0.494965
v 0.166477 0.325304 -0.127679
vt 0.0571271 0.868903
vn -0.4795811 -0.7168761 -0.5060541
v 0.265967 0.325304 -0.127679
vt 0.112238 0.868903
vn 0.4795811 -0.7168761 -0.5060541
v 0.265967 0.52698 -0.0708504
vn 0.4795808 0.7168757 0.5060548
v 0.166477 0.52698 -0.0708504
vn -0.4795808 0.7168757 0.5060548
v 0.265967 0.325304 -0.0708504
vn 0.4795811 -0.7168761 0.5060541
v 0.315711 0.426142 -0.0708504
vn 0.8689129 0 0.494965
v 0.116733 0.426142 -0.0708504
vn -0.8689129 0 0.494965
v 0.166477 0.325304 -0.0708504
vn -0.4795811 -0.7168761 0.5060541
v 0.216222 0.426142 -0.0558873
vn 0 0 1
v -0.227233 0.426142 -0.142642
vt 0.0941428 0.933974
v -0.276978 0.52698 -0.127679
vt 0.0665876 0.981701
v -0.177489 0.52698 -0.127679
vt 0.121698 0.981701
v -0.326723 0.426142 -0.127679
vt 0.0390322 0.933974
v -0.127744 0.426142 -0.127679
vt 0.149253 0.933974
v -0.276978 0.325304 -0.127679
vt 0.0665876 0.886247
v -0.177489 0.325304 -0.127679
vt 0.121698 0.886247
v -0.177489 0.52698 -0.0708504
v -0.276978 0.52698 -0.0708504
v -0.177489 0.325304 -0.0708504
v -0.127744 0.426142 -0.0708504
v -0.326723 0.426142 -0.0708504
v -0.276978 0.325304 -0.0708504
v -0.227233 0.426142 -0.0558873
v 0 0.12661 -0.173498
vt 0.065258 0.0982842
vn 0 0.9767499 -0.214382
v -0.051011 0.0755986 -0.173498
vt 0.0322317 0.065258
vn -0.9767499 0 -0.214382
v 0 0.12661 -0.114595
vn 0 0.9767499 0.214382
v 0 0.0755986 -0.202949
vt 0.065258 0.065258
v 0.051011 0.0755986 -0.114595
vt 0.0982842 0.065258
vn 0.9767499 0 0.214382
v 0.051011 0.0755986 -0.173498
vn 0.9767499 0 -0.214382
v -0.051011 0.0755986 -0.114595
vn -0.9767499 0 0.214382
v 0 0.0245876 -0.173498
vt 0.065258 0.0322317
vn 0 -0.9767499 -0.214382
v 0 0.0755986 -0.0851442
v 0 0.0245876 -0.114595
vn -0.0005018298 -0.9751745 0.2214369
v 0 0.122691 0.184654
vt 0.802014 0.118667
vn 0 0.09797806 -0.9951886
v -0.044306 0.122691 0.22896
vt 0.78038 0.118667
vn -0.9960723 0.08840713 -0.004918311
v 0 0.375232 0.232276
vt 0.802014 0.207037
vn 0 0.9999795 0.006399177
v -0.0355911 0.0815941 0.22896
vt 0.784635 0.0986001
vn -0.9360328 -0.3519129 0
v 0.044306 0.122691 0.22896
vt 0.823647 0.118667
vn 0.9960723 0.08840713 -0.004918251
v 0 0.0815941 0.193369
vt 0.802014 0.0986001
vn 0 -0.3519129 -0.9360328
v 0 0.122691 0.273266
vn 0 0.0786553 0.9969019
v 0 0.0815941 0.264551
vn 0 -0.3519129 0.9360328
v 0 0.0693299 0.22896
vt 0.802014 0.0926119
vn 0 -1 -8.4474E-05
v 0.0355911 0.0815941 0.22896
vt 0.819392 0.0986001
vn 0.9360328 -0.3519129 0
v -0.0593873 0.25781 0.131673
vt 0.742583 0.347295
vn -0.6410474 -0.5957963 0.4838233
vt 1.04459 0.39253
vt 1.04459 0.311842
vt 1.02745 0.536605
v 0 0.219433 0.0920406
vt 0.721674 0.292337
v -0.120201 0.352548 0.0710146
vt 0.840565 0.576296
vn -0.849479 -0.00280913 0.527615
v -0.0800947 0.379726 0.14993
vt 0.652392 0.634271
vn -0.8828821 0.103411 0.458067
vt 1.04459 0.245079
vt 0.768735 0.806056
v 0 0.443399 0.169555
vt 0.605594 0.770097
vn 0 0.7110592 0.7031322
v 0 0.462994 0.151249
vt 0.649246 0.811895
vn 0 0.6387655 0.7694016
v 0.0800947 0.379726 0.14993
vn 0.8827356 0.1086209 0.4571428
v 0.060611 0.25781 0.131673
vn 0.6404918 -0.5963639 0.4838599
vt 0.761072 0.988968
v 0.120201 0.352548 0.0710146
vn 0.8501391 0.0014835 0.5265561
v -0.143181 0.160516 0.128299
vt 0.935353 0.017397
vn -0.8254052 -0.03982671 0.5631342
vt 0.875997 0.0966898
vt 0.982656 0.0935364
v 0.143181 0.160516 0.128299
vn 0.8254052 -0.03982721 0.5631341
v 0 0.377782 0.241102
vt 0.243393 0.612695
vn 0 0.291991 0.9564211
v 0 0.300177 0.215997
vt 0.243393 0.451752
vn -0.0006668356 -0.6131277 0.7899836
v 0.0624466 0.377782 0.229343
vt 0.472775 0.612695
vn 0.7518241 0.123676 0.647661
v -0.0624465 0.377782 0.229343
vt 0.00445755 0.612695
vn -0.7537879 0.122646 0.6455709
vt 0.243393 0.755233
vt 0.538762 0.22032
vt 0.573088 0.0680296
vt 0.295316 0.0680296
vt 0.831907 0.0680296
vt 0.329641 0.22032
vt 0.733614 0.22032
vt 0.0364963 0.0680296
vt 0.134789 0.22032
vt 0.492703 0.720191
vt 0.616842 0.669837
vt 0.594719 0.864166
vt 0.610052 0.27513
vt 0.501324 0.504391
v 0 0.248985 0.152789
vt 0.581301 0.246018
vn 0 -0.8297038 0.5582039
vt 0.627274 0.206652
vt 0.617723 0.0680296
vt 0.288136 0.22032
vt 0.241665 0.0680296
vt 0.571252 0.22032
vt 0.245327 0.459829
vt 0.0518344 0.280695
vt 0.245327 0.238225
o merged_0_0_node
g polygon_0
usemtl mat_body_mat_id
f 1/1/1 2/2/2 3/3/3
f 1/1/1 4/4/4 2/2/2
f 1/1/1 3/3/3 5/5/5
f 1/1/1 6/6/6 4/4/4
f 1/1/1 5/5/5 7/7/7
f 1/1/1 8/8/8 6/6/6
f 1/1/1 7/7/7 8/8/8
f 2/2/2 9/1/9 3/3/3
f 2/2/2 4/4/4 9/1/9
f 4/4/4 6/6/6 9/1/9
f 7/7/7 10/9/10 8/8/8
f 3/3/3 9/1/9 11/5/11
f 6/6/6 8/8/8 12/10/12
f 6/6/6 13/8/13 9/1/9
f 6/6/6 12/10/12 13/8/13
f 9/1/9 13/8/13 11/5/11
f 10/9/10 14/11/14 8/8/8
f 10/9/10 13/8/13 14/11/14
f 10/9/10 15/7/15 13/8/13
f 13/8/13 12/10/12 14/11/14
f 13/8/13 15/7/15 11/5/11
f 14/11/14 12/10/12 8/8/8
f 16/12/16 17/13/17 18/14/18
f 16/12/16 19/15/19 17/13/17
f 16/12/16 18/14/18 20/16/20
f 16/12/16 21/13/21 19/15/19
f 16/12/16 20/16/20 22/14/22
f 16/12/16 22/14/22 21/13/21
f 23/17/23 24/18/24 25/19/25
f 23/17/23 26/20/26 24/18/24
f 23/17/23 25/19/25 27/21/27
f 23/17/23 28/22/28 26/20/26
f 23/17/23 27/21/27 29/23/29
f 23/17/23 29/23/29 28/22/28
f 25/19/25 30/24/30 27/21/27
f 26/20/26 28/22/28 31/25/31
f 29/23/29 27/21/27 32/26/32
f 29/23/29 33/27/33 28/22/28
f 29/23/29 32/26/32 34/28/34
f 29/23/29 34/28/34 33/27/33
f 30/24/30 35/29/35 27/21/27
f 27/21/27 35/29/35 32/26/32
f 31/25/31 28/22/28 36/30/36
f 28/22/28 33/27/33 36/30/36
f 34/28/34 32/26/32 37/31/37
f 34/28/34 38/32/38 33/27/33
f 34/28/34 37/31/37 39/33/39
f 34/28/34 39/33/39 38/32/38
f 33/27/33 38/32/38 36/30/36
f 32/26/32 35/29/35 37/31/37
f 39/33/39 40/34/40 38/32/38
f 39/33/39 37/31/37 41/35/41
f 39/33/39 42/36/42 40/34/40
f 39/33/39 41/35/41 42/36/42
f 36/30/36 38/32/38 43/37/43
f 38/32/38 40/34/40 43/37/43
f 35/29/35 44/38/44 37/31/37
f 37/31/37 44/38/44 41/35/41
f 42/36/42 45/39/45 40/34/40
f 42/36/42 41/35/41 45/39/45
f 43/37/43 40/34/40 46/40/46
f 46/40/46 40/34/40 45/39/45
f 44/38/44 47/41/47 41/35/41
f 41/35/41 47/41/47 45/39/45
f 48/42/48 49/43/49 50/44/50
f 48/42/48 51/45/51 49/43/49
f 48/42/48 50/44/50 52/46/52
f 48/42/48 53/47/53 51/45/51
f 48/42/48 52/46/52 54/48/54
f 48/42/48 54/48/54 53/47/53
f 49/43/49 55/44/55 50/44/50
f 49/43/49 51/45/51 56/43/56
f 49/43/49 56/43/56 55/44/55
f 52/46/52 57/48/57 54/48/54
f 52/46/52 50/44/50 58/46/58
f 52/46/52 58/46/58 57/48/57
f 50/44/50 55/44/55 58/46/58
f 53/47/53 59/45/59 51/45/51
f 53/47/53 54/48/54 60/47/60
f 53/47/53 60/47/60 59/45/59
f 54/48/54 57/48/57 60/47/60
f 51/45/51 59/45/59 56/43/56
f 55/44/55 61/42/61 58/46/58
f 55/44/55 56/43/56 61/42/61
f 61/42/61 60/47/60 57/48/57
f 61/42/61 56/43/56 59/45/59
f 61/42/61 57/48/57 58/46/58
f 61/42/61 59/45/59 60/47/60
f 62/49/48 63/50/49 64/51/50
f 62/49/48 65/52/51 63/50/49
f 62/49/48 64/51/50 66/53/52
f 62/49/48 67/54/53 65/52/51
f 62/49/48 66/53/52 68/55/54
f 62/49/48 68/55/54 67/54/53
f 63/50/49 69/51/55 64/51/50
f 63/50/49 65/52/51 70/50/56
f 63/50/49 70/50/56 69/51/55
f 66/53/52 71/55/57 68/55/54
f 66/53/52 64/51/50 72/53/58
f 66/53/52 72/53/58 71/55/57
f 64/51/50 69/51/55 72/53/58
f 67/54/53 73/52/59 65/52/51
f 67/54/53 68/55/54 74/54/60
f 67/54/53 74/54/60 73/52/59
f 68/55/54 71/55/57 74/54/60
f 65/52/51 73/52/59 70/50/56
f 69/51/55 75/49/61 72/53/58
f 69/51/55 70/50/56 75/49/61
f 75/49/61 74/54/60 71/55/57
f 75/49/61 70/50/56 73/52/59
f 75/49/61 71/55/57 72/53/58
f 75/49/61 73/52/59 74/54/60
f 76/56/62 77/57/63 78/56/64
f 76/56/62 79/58/48 77/57/63
f 76/56/62 78/56/64 80/59/65
f 76/56/62 81/59/66 79/58/48
f 76/56/62 80/59/65 81/59/66
f 77/57/63 82/57/67 78/56/64
f 77/57/63 79/58/48 83/60/68
f 77/57/63 83/60/68 82/57/67
f 79/58/48 81/59/66 83/60/68
f 80/59/65 78/56/64 84/58/61
f 80/59/65 85/60/69 81/59/66
f 80/59/65 84/58/61 85/60/69
f 85/60/69 82/57/67 83/60/68
f 85/60/69 83/60/68 81/59/66
f 85/60/69 84/58/61 82/57/67
f 82/57/67 84/58/61 78/56/64
f 86/61/70 87/62/71 88/63/72
f 86/61/70 89/64/73 87/62/71
f 86/61/70 88/63/72 90/65/74
f 86/61/70 91/66/75 89/64/73
f 86/61/70 90/65/74 91/66/75
f 87/62/71 92/61/76 88/63/72
f 87/62/71 89/64/73 93/66/77
f 87/62/71 93/66/77 92/61/76
f 88/63/72 92/61/76 90/65/74
f 91/66/75 94/67/78 89/64/73
f 91/66/75 90/65/74 95/68/79
f 91/66/75 95/68/79 94/67/78
f 95/68/79 92/61/76 93/66/77
f 95/68/79 90/65/74 92/61/76
f 95/68/79 93/66/77 94/67/78
f 94/67/78 93/66/77 89/64/73
f 96/69/80 30/70/30 25/71/25
f 96/69/80 35/72/35 30/70/30
f 96/69/80 25/71/25 97/73/69
f 96/69/80 98/74/81 35/72/35
f 96/69/80 99/75/82 98/74/81
f 25/71/25 24/76/24 97/73/69
f 99/75/82 47/77/47 98/74/81
f 99/75/82 100/78/83 47/77/47
f 24/76/24 26/71/26 97/73/69
f 100/78/83 101/79/84 47/77/47
f 100/78/83 46/77/46 101/79/84
f 100/78/83 102/75/85 46/77/46
f 26/71/26 103/69/86 97/73/69
f 26/71/26 31/70/31 103/69/86
f 47/77/47 101/79/84 45/80/45
f 45/80/45 101/79/84 46/77/46
f 102/75/85 103/69/86 104/74/87
f 102/75/85 104/74/87 46/77/46
f 31/70/31 36/72/36 103/69/86
f 103/69/86 36/72/36 104/74/87
f 105/81/88 22/82/22 20/83/20
f 105/81/88 11/82/11 22/82/22
f 105/81/88 20/83/20 3/83/3
f 105/81/88 3/83/3 11/82/11
f 106/81/89 19/83/19 21/82/21
f 106/81/89 10/83/10 19/83/19
f 106/81/89 21/82/21 15/82/15
f 106/81/89 15/82/15 10/83/10
f 107/84/90 108/85/91 109/86/92
f 107/84/90 110/87/93 108/85/91
f 107/84/90 109/86/92 100/88/83
f 107/84/90 100/88/83 110/87/93
f 17/89/17 7/90/7 5/91/5
f 17/89/17 10/92/10 7/90/7
f 17/89/17 5/91/5 18/93/18
f 17/89/17 19/94/19 10/92/10
f 5/91/5 3/95/3 18/93/18
f 3/95/3 20/96/20 18/93/18
f 109/97/92 102/98/85 100/99/83
f 109/97/92 103/100/86 102/98/85
f 109/97/92 108/101/91 103/100/86
f 100/99/83 99/98/82 110/97/93
f 108/101/91 110/97/93 96/100/80
f 110/97/93 99/98/82 96/100/80
f 103/100/86 111/102/94 97/103/69
f 97/103/69 111/102/94 96/100/80
f 15/104/15 22/105/22 11/106/11
f 15/104/15 21/107/21 22/105/22
f 108/108/91 96/109/80 111/110/94
f 108/108/91 111/110/94 103/109/86
vt 0.953085 0.751142
vt 0.862388 0.986296
vt 0.354972 0.79433
vt -0.0325957 0.986296
o merged_1_0_node
g polygon_0
usemtl TEX_ANIM_EYE_mat_id
f 36/111/36 43/112/43 104/113/87
f 98/113/81 47/114/47 44/112/44
f 104/113/87 43/112/43 46/114/46
f 98/113/81 44/112/44 35/111/35
