mtllib Bastiodon.mtl
v 0 0.05890673 0.09224541
vt 0.13143 0.271461
vn 0 -0.9987999 -0.0489784
v -0.238159 0.0838533 0.091283
vt 0.132122 0.159672
vn -0.7401019 -0.6687915 -0.07047838
v -0.238159 0.07490314 -0.05390485
vt 0.236568 0.154432
vn -0.6823058 -0.7260923 0.08514063
v -0.184594 0.0076517 0.2178471
vt 0.0410777 0.00214264
vn -0.3429402 -0.6869025 0.6407472
v 0 0.06060467 -0.05417605
vt 0.236763 0.271461
vn 0 -0.9989113 0.04665105
v 0 0.08591617 0.2961066
vt -0.0152187 0.272049
vn 0 -0.3793858 0.9252385
v 0.238159 0.07490324 -0.05390475
vn 0.6823058 -0.7260923 0.08514033
v 0.184594 0.0076517 0.2178471
vn 0.3429402 -0.6869025 0.6407472
v 0.238159 0.0838533 0.091283
vn 0.7401009 -0.6687924 -0.07047818
v -0.254455 0.1556272 0.1972093
vt 0.055923 0.179615
vn -0.8114095 0.3614064 0.4593473
v 0.184594 0.01515218 -0.2258521
vt 0.360258 0.00214264
vn 0.24853 -0.9103185 -0.330988
v -0.184594 0.01515218 -0.2258521
vn -0.2485301 -0.9103188 -0.3309872
v 0 0.08651222 -0.2825043
vt 0.401013 0.273505
vn 0 -0.8806358 -0.4737938
v 0 0.1819956 0.2995988
vt -0.0177322 0.446829
vn 0 0.135159 0.9908239
v 0.254455 0.1556272 0.1972093
vn 0.8114095 0.3614064 0.4593473
v -0.254455 0.1556278 -0.1801325
vt 0.327372 0.180863
vn -0.8786799 0.4068619 -0.2497704
v 0.08591521 0.174194 -0.2825017
vt 0.401013 0.300277
vn 0.6078655 0.1747568 -0.7745706
v 0.254455 0.1556278 -0.1801325
vn 0.8786799 0.4068619 -0.2497704
v -0.173796 0.251347 0.182321
vt 0.0666326 0.47953
vn -0.6763721 0.673566 0.298043
v 0.173796 0.251347 0.182322
vn 0.6763721 0.673566 0.298043
v 0 0.28064 0.28382
vt -0.00638298 0.481464
vn 0 0.5866991 0.809805
v -0.0859153 0.174194 -0.2825017
vn -0.6078644 0.1747568 -0.7745714
v 0.165686 0.251797 -0.150197
vt 0.305837 0.480303
vn 0.6614411 0.7298971 -0.17247
v -0.165686 0.251797 -0.150197
vn -0.6614411 0.7298971 -0.17247
v 0 0.395937 0.102628
vt 0.318324 0.997895
vn 0 0.9930325 0.1178409
vt 0.761117 0.659265
vt 0.17875 0.644344
v 0 0.367629 -0.109223
vt 0.689357 0.997896
vn 0 0.9522841 -0.305213
vt 0.000986196 0.997896
v 0 0.243156 -0.2825
vt 0.992831 0.997896
vn 0 0.8333626 -0.5527267
vt 0.992831 0.812171
v 0.1901 0.08160996 0.508988
vt 0.14986 0.526293
vn 0.1415 -0.8844771 0.44461
v -0.205215 0.147055 0.551242
vt 0.101601 0.534282
vn -0.175013 0.05506351 0.9830251
v -0.1901 0.08160996 0.508988
vt 0.103446 0.526293
vn -0.145546 -0.8914931 0.429018
v 0.205215 0.147055 0.551242
vt 0.151705 0.534282
vn 0.168646 0.02861721 0.9852612
v -0.1901 0.08160996 0.408906
vn -0.260919 -0.917936 -0.298856
v 0.246636 0.155049 0.44696
vt 0.156762 0.535258
vn 0.9868773 -0.109686 -0.1185
v 0.1901 0.08160996 0.408906
vn 0.260919 -0.917936 -0.298856
v -0.246636 0.155049 0.44696
vt 0.0965444 0.535258
vn -0.9868773 -0.109686 -0.1185
v 0.205186 0.177893 0.507036
vt 0.151701 0.540375
vn 0.103904 0.8161909 0.568363
v -0.205186 0.177893 0.507036
vt 0.101604 0.540375
vn -0.103916 0.81619 0.568362
v 0.181341 0.193388 0.314805
vt 0.150158 0.539938
vn 0.6045441 -0.229991 -0.7626471
v 0 0.118877 0.281598
vt 0.126653 0.539573
vn 0 -0.7717623 -0.6359112
v -0.205156 0.246886 0.407888
vt 0.101608 0.546469
vn -0.4951971 0.8241722 0.2748091
v 0.205156 0.246886 0.407888
vt 0.151698 0.546469
vn 0.4951608 0.8241837 0.2748399
v -0.181341 0.193388 0.314805
vt 0.103148 0.539938
vn -0.6045441 -0.229991 -0.7626471
v 0.125026 0.3313969 0.295412
vt 0.141916 0.550397
vn 0.6138731 0.4205341 -0.6680651
v 0 0.2512429 0.224317
vt 0.126653 0.548399
vn 0 -0.03482601 -0.9993934
v -0.125026 0.3313969 0.295412
vt 0.11139 0.550397
vn -0.6138731 0.4205341 -0.6680651
v -0.098205 0.420947 0.407888
vt 0.114664 0.567718
vn -0.6249571 0.6886451 -0.367691
v 0.098205 0.420947 0.407888
vt 0.138642 0.567718
vn 0.6249568 0.6886448 -0.3676919
v 0 0.415395 0.298511
vt 0.126653 0.557225
vn 0 0.6851109 -0.7284389
v 0 0.4713939 0.407888
vt 0.126653 0.573877
vn 0 0.8901211 -0.4557241
v 0 0.175493 -0.462445
vt 0.984357 0.594885
vn 0 -0.103648 -0.9946141
vt 0.61649 0.594885
vt 0.61649 0.531269
v 0.186056 -0.0002200408 -0.2283932
vt 0.693826 0.340538
vn 0.2771057 -0.9359545 -0.2172598
v 0.149771 0.06834754 -0.2584129
vt 0.674661 0.28943
vn 0.4491037 -0.2533802 -0.8567989
v 0.249443 0.09989017 -0.1951023
vt 0.668272 0.28943
vn 0.7441331 -0.4352483 -0.5067788
v 0.099461 0.03530375 -0.2503326
vt 0.681049 0.28943
vn -0.2658496 -0.8847237 -0.3828681
v 0.0989189 0.02761044 -0.1514484
vt 0.693826 0.28943
vn -0.1020578 -0.9668537 0.2340473
vt 0.71938 0.28943
v 0.248425 0.08956105 -0.1434371
vt 0.712992 0.28943
vn 0.8528599 -0.5022163 -0.1428592
v 0.238193 0.05182638 -0.086932
vt 0.706603 0.28943
vn 0.5755506 -0.8161809 0.05089292
v 0.315393 0.2036523 -0.139553
vt 0.668272 0.340538
vn 0.8606195 -0.5023616 -0.0834676
v 0.27219 0.1933479 -0.2303758
vn 0.577997 -0.407531 -0.7069922
v 0.309396 0.1531412 -0.07632188
vt 0.71938 0.340538
vn 0.8090563 -0.5458091 -0.2179919
v -0.186056 -0.0002200408 -0.2283932
vn -0.2771066 -0.9359542 -0.2172597
v -0.249443 0.09989017 -0.1951013
vn -0.7441331 -0.4352483 -0.5067788
v -0.149771 0.06834754 -0.2584129
vn -0.4491037 -0.2533802 -0.8567989
v -0.099461 0.03530375 -0.2503326
vn 0.2658506 -0.8847235 -0.3828679
v -0.0989189 0.02761044 -0.1514484
vn 0.1020578 -0.9668537 0.2340473
v -0.248425 0.08956105 -0.1434371
vn -0.8528599 -0.5022163 -0.1428592
v -0.238193 0.05182638 -0.086932
vn -0.5755506 -0.8161809 0.05089292
v -0.315393 0.2036523 -0.139553
vn -0.8606195 -0.5023616 -0.08346771
v -0.27219 0.1933479 -0.2303758
vn -0.5779977 -0.4075308 -0.7069918
v -0.309396 0.1531412 -0.07632197
vn -0.8090565 -0.5458092 -0.2179909
vn -0.2771057 0.9359545 0.2172598
vn -0.7441331 0.4352483 0.5067788
vn -0.4491037 0.2533802 0.8567989
vn 0.2658496 0.8847237 0.3828681
vn 0.1020578 0.9668537 -0.2340473
vn -0.8528599 0.5022163 0.1428592
vn -0.5755506 0.8161809 -0.05089292
vn -0.8606195 0.5023616 0.0834676
vn -0.577997 0.407531 0.7069922
vn -0.8090563 0.5458091 0.2179919
vn 0.2771066 0.9359542 0.2172597
vn 0.4491037 0.2533802 0.8567989
vn 0.7441335 0.4352485 0.5067781
vn -0.2658506 0.8847235 0.3828679
vn -0.1020578 0.9668537 -0.2340473
vn 0.8528599 0.5022163 0.1428592
vn 0.5755506 0.8161809 -0.05089292
vn 0.8606195 0.5023616 0.08346771
vn 0.5779977 0.4075308 0.7069918
vn 0.8090565 0.5458092 0.2179909
v 0 0.334163 0.532827
vt 0.287532 0.544671
vn 0 1 0
v 0 0.2892529 0.487917
vt 0.280226 0.544671
vn 0 0 -1
v -0.234379 0.2892529 0.532827
vt 0.294838 0.529699
vn -1 0 0
v 0.234379 0.2892529 0.532827
vt 0.294838 0.559643
vn 1 0 0
v 0 0.2892529 0.577737
vt 0.294838 0.544671
vn 0 0 1
v 0 0.244343 0.532827
vt 0.302144 0.544671
vn 0 -1 0
vt 0.30945 0.544671
v 0 0.454213 0.00380945
vt 0.331149 0.596701
vn 0 0.9918554 -0.1273689
v -0.030555 0.354224 -0.0600096
vt 0.31962 0.56892
vn -0.7019868 0.5230338 -0.4833738
v -0.030555 0.373593 0.0908213
vt 0.325384 0.56892
vn -0.7019868 0.6281938 0.3355399
v 0.030555 0.373593 0.0908213
vt 0.331149 0.56892
vn 0.7019868 0.6281938 0.3355399
v 0.030555 0.354224 -0.0600096
vt 0.336913 0.56892
vn 0.7019871 0.523034 -0.483373
vt 0.342678 0.56892
v 9.12837E-05 0.418657 -0.117642
vn 0 0.9195902 -0.3928791
v -0.0304637 0.309932 -0.153874
vn -0.6813219 0.3965159 -0.6152849
v -0.0304637 0.369677 -0.0140329
vn -0.6813221 0.7186981 0.138828
v 0.0306463 0.369677 -0.0140329
vn 0.6813221 0.7186981 0.138828
v 0.0306463 0.309932 -0.153874
vn 0.6813219 0.3965159 -0.6152849
v 0 0.362195 -0.213719
vn 0 0.7918882 -0.6106661
v -0.030555 0.241853 -0.216934
vn -0.7101847 0.1983649 -0.6754917
v -0.030555 0.334717 -0.096512
vn -0.7101848 0.7037268 -0.02015849
v 0.030555 0.334717 -0.096512
vn 0.7101848 0.7037268 -0.02015829
v 0.030555 0.241853 -0.216934
vn 0.7101847 0.1983649 -0.6754917
v 0 0.453088 0.131747
vn 0 0.9693267 0.2457759
v -0.030555 0.371108 0.0325196
vn -0.7430142 0.6100651 -0.2752281
v -0.030555 0.333733 0.179925
vn -0.7430143 0.4052222 0.5326582
v 0.030555 0.333733 0.179925
vn 0.7430143 0.4052222 0.5326582
v 0.030555 0.371108 0.0325196
vn 0.7430142 0.6100651 -0.2752281
v 0.00100093 0.396456 0.233234
vn 0 0.851693 0.5240411
v -0.0295541 0.355106 0.118516
vn -0.7170241 0.6945161 -0.0593628
v -0.0295541 0.275415 0.248033
vn -0.7170241 0.260072 0.646714
v 0.031556 0.275415 0.248033
vn 0.7170241 0.260072 0.646714
v 0.031556 0.355106 0.118516
vn 0.7170241 0.6945161 -0.0593629
v 0.185391 -0.01413049 0.2190785
vn 0.2410913 -0.8849369 0.3984492
v 0.09917331 0.04500635 0.2624788
vn 0.001975871 -0.611456 0.791276
v 0.0995011 0.02448233 0.1512676
vn -0.2110024 -0.9400411 -0.2679566
v 0.226098 0.05564519 0.1163647
vn 0.5538555 -0.7892541 -0.2651831
v 0.242914 0.07972199 0.1619224
vn 0.8462558 -0.5219949 0.1066408
v 0.244272 0.103708 0.2169125
vn 0.611711 -0.3707485 0.6988243
v 0.284729 0.1871081 0.2267658
vn 0.3924154 -0.2933756 0.8717458
v -0.185391 -0.01413049 0.2190785
vn -0.2410913 -0.8849369 0.3984492
v -0.0995011 0.02448233 0.1512676
vn 0.2110024 -0.9400411 -0.2679566
v -0.09917331 0.04500635 0.2624788
v -0.226098 0.05564519 0.1163647
vn -0.5538555 -0.7892541 -0.2651831
v -0.242914 0.07972199 0.1619224
vn -0.8462563 -0.5219943 0.1066409
v -0.244272 0.103708 0.2169125
vn -0.6117103 -0.3707491 0.6988245
v -0.284729 0.1871081 0.2267658
vn -0.3924146 -0.2933758 0.8717462
vn -0.2410913 0.8849369 -0.3984492
vn 0.2110024 0.9400411 0.2679566
vn -0.001975781 0.611456 -0.791276
vn -0.5538555 0.7892541 0.2651831
vn -0.8462558 0.5219949 -0.1066408
vn -0.611711 0.3707485 -0.6988243
vn -0.3924154 0.2933756 -0.8717458
vn 0.2410913 0.8849369 -0.3984492
vn -0.2110024 0.9400411 0.2679566
vn 0.5538555 0.7892541 0.2651831
vn 0.8462558 0.5219949 -0.1066408
vn 0.6117103 0.3707491 -0.6988245
vn 0.3924146 0.2933758 -0.8717462
v 0.140139 0.01020346 0.458595
vt 0.0412982 0.596288
v 0.1901 0.08160996 0.408634
vt 0.0271753 0.52953
vn 0.5026341 -0.7033612 -0.5026351
v 0.1901 0.08160996 0.508557
vt 0.0342368 0.52953
vn 0.5026341 -0.7033612 0.5026351
v 0.0901774 0.08160996 0.508557
vt 0.0412982 0.52953
vn -0.5026341 -0.7033612 0.5026351
v 0.0901774 0.08160996 0.408634
vt 0.0483597 0.52953
vn -0.5026341 -0.7033612 -0.5026351
vt 0.0554211 0.52953
v -0.140139 0.01020346 0.458595
v -0.1901 0.08160996 0.508557
v -0.1901 0.08160996 0.408634
v -0.0901774 0.08160996 0.508557
v -0.0901774 0.08160996 0.408634
v 0.0552788 0.03145736 0.458578
v 0.0903678 0.08160795 0.423489
v 0.0903679 0.08160795 0.493667
v 0.0201897 0.08160795 0.493667
v 0.0201897 0.08160795 0.423489
v -0.0552788 0.03145736 0.458595
v -0.0903679 0.08160795 0.493685
v -0.0903678 0.08160795 0.423506
v -0.0201897 0.08160795 0.493685
v -0.0201897 0.08160795 0.423506
v 0.155321 0.6438279 0.457522
vt 0.293399 0.599714
v 0.10536 0.572421 0.40756
vt 0.278036 0.568988
vn -0.5026341 0.7033612 -0.5026351
v 0.10536 0.572421 0.507483
vt 0.285718 0.568988
vn -0.5026341 0.7033612 0.5026351
v 0.205283 0.572421 0.507483
vt 0.293399 0.568988
vn 0.5026341 0.7033612 0.5026351
v 0.205283 0.572421 0.40756
vt 0.301081 0.568988
vn 0.5026341 0.7033612 -0.5026351
vt 0.308762 0.568988
v -0.155479 0.6438279 0.457522
v -0.20544 0.572421 0.40756
v -0.20544 0.572421 0.507483
v -0.105517 0.572421 0.507483
v -0.105517 0.572421 0.40756
v 0 0.6225719 0.457522
v -0.0350891 0.572421 0.422432
v -0.0350891 0.572421 0.492611
v 0.0350891 0.572421 0.492611
v 0.0350891 0.572421 0.422432
v 0.0701 0.6225719 0.457522
v 0.0350109 0.572421 0.422432
v 0.0350109 0.572421 0.492611
v 0.105189 0.572421 0.492611
v 0.105189 0.572421 0.422432
v -0.0701 0.6225719 0.457522
v -0.105189 0.572421 0.422432
v -0.105189 0.572421 0.492611
v -0.0350109 0.572421 0.492611
v -0.0350109 0.572421 0.422432
v 0.060877 0.262013 0.532909
vt 0.328168 0.556061
vn 0 0.9986274 0.05237622
v 0.0982031 0.178195 0.506814
vt 0.316113 0.530316
vn 0.9036809 0.423052 -0.06624179
v 0.0235508 0.178195 0.506814
vt 0.32415 0.530316
vn -0.9036809 0.423052 -0.0662422
v 0.060877 0.146997 0.551131
vt 0.332186 0.530316
vn 0 0.1564769 0.9876816
vt 0.340223 0.530316
v 0.166303 0.262013 0.532909
v 0.203629 0.178195 0.506814
v 0.128977 0.178195 0.506814
v 0.166303 0.146997 0.551131
v -0.060877 0.262013 0.532903
v -0.0235508 0.178195 0.506808
v -0.0982031 0.178195 0.506808
v -0.060877 0.146997 0.551125
v -0.166303 0.262013 0.532903
v -0.128977 0.178195 0.506808
v -0.203629 0.178195 0.506808
v -0.166303 0.146997 0.551125
vt 0.477987 0.568977
vt 0.40088 0.552151
vt 0.477992 0.552151
vt 0.400886 0.568977
v -0.205198 0.195622 0.507096
vt 0.41018 0.540787
v 0.205219 0.195622 0.407096
vt 0.467107 0.554657
v 0.205219 0.195622 0.507096
vt 0.467107 0.540787
v -0.205198 0.195622 0.407096
vt 0.41018 0.554657
v 0.323317 0.2048558 0.1454048
vn 0.8358504 -0.5104414 0.2019993
v 0.29082 0.1332701 0.07418232
vn 0.7787499 -0.6258398 0.04328015
v -0.323317 0.2048558 0.1454048
vn -0.8358504 -0.5104414 0.2019993
v -0.29082 0.1332701 0.07418232
vn -0.7787495 -0.6258403 0.04328018
vn -0.8358504 0.5104414 -0.2019993
vn -0.7787499 0.6258398 -0.04328015
vn 0.8358504 0.5104414 -0.2019993
vn 0.7787495 0.6258403 -0.04328018
vt 0.634961 0.168011
vt 0.841401 0.0044327
vt 0.951455 0.168011
vt 0.975885 0.172847
vt 0.635297 0.171318
vt 0.842201 0.0107343
o merged_0_0_node
g polygon_0
usemtl mat_body_mat_id
f 1/1/1 2/2/2 3/3/3
f 1/1/1 4/4/4 2/2/2
f 1/1/1 3/3/3 5/5/5
f 1/1/1 6/6/6 4/4/4
f 1/1/1 5/5/5 7/3/7
f 1/1/1 8/4/8 6/6/6
f 1/1/1 7/3/7 9/2/9
f 1/1/1 9/2/9 8/4/8
f 2/2/2 10/7/10 3/3/3
f 2/2/2 4/4/4 10/7/10
f 5/5/5 11/8/11 7/3/7
f 5/5/5 3/3/3 12/8/12
f 5/5/5 13/9/13 11/8/11
f 5/5/5 12/8/12 13/9/13
f 6/6/6 8/4/8 14/10/14
f 6/6/6 14/10/14 4/4/4
f 4/4/4 14/10/14 10/7/10
f 9/2/9 7/3/7 15/7/15
f 9/2/9 15/7/15 8/4/8
f 8/4/8 15/7/15 14/10/14
f 3/3/3 16/11/16 12/8/12
f 3/3/3 10/7/10 16/11/16
f 11/8/11 13/9/13 17/12/17
f 11/8/11 18/11/18 7/3/7
f 11/8/11 17/12/17 18/11/18
f 7/3/7 18/11/18 15/7/15
f 14/10/14 19/13/19 10/7/10
f 14/10/14 15/7/15 20/13/20
f 14/10/14 21/14/21 19/13/19
f 14/10/14 20/13/20 21/14/21
f 12/8/12 16/11/16 22/12/22
f 12/8/12 22/12/22 13/9/13
f 17/12/17 23/15/23 18/11/18
f 23/15/23 15/7/15 18/11/18
f 23/15/23 20/13/20 15/7/15
f 10/7/10 19/13/19 24/15/24
f 10/7/10 24/15/24 16/11/16
f 16/11/16 24/15/24 22/12/22
f 25/16/25 24/17/24 19/18/19
f 25/16/25 26/19/26 24/17/24
f 25/16/25 19/18/19 21/20/21
f 25/16/25 23/17/23 26/19/26
f 25/16/25 21/20/21 20/18/20
f 25/16/25 20/18/20 23/17/23
f 24/17/24 26/19/26 27/21/27
f 24/17/24 27/21/27 22/22/22
f 26/19/26 23/17/23 27/21/27
f 23/17/23 17/22/17 27/21/27
f 28/23/28 29/24/29 30/25/30
f 28/23/28 31/26/31 29/24/29
f 28/23/28 30/25/30 32/25/32
f 28/23/28 33/27/33 31/26/31
f 28/23/28 32/25/32 34/23/34
f 28/23/28 34/23/34 33/27/33
f 29/24/29 35/28/35 30/25/30
f 29/24/29 31/26/31 36/29/36
f 29/24/29 37/30/37 35/28/35
f 29/24/29 36/29/36 37/30/37
f 31/26/31 33/27/33 36/29/36
f 30/25/30 35/28/35 32/25/32
f 34/23/34 38/31/38 33/27/33
f 34/23/34 32/25/32 39/32/39
f 34/23/34 39/32/39 38/31/38
f 37/30/37 40/33/40 35/28/35
f 36/29/36 33/27/33 41/34/41
f 33/27/33 38/31/38 41/34/41
f 32/25/32 42/35/42 39/32/39
f 32/25/32 35/28/35 42/35/42
f 35/28/35 40/33/40 42/35/42
f 38/31/38 43/36/43 41/34/41
f 38/31/38 39/32/39 44/37/44
f 38/31/38 44/37/44 43/36/43
f 39/32/39 42/35/42 44/37/44
f 40/33/40 45/38/45 42/35/42
f 40/33/40 46/39/46 45/38/45
f 42/35/42 45/38/45 44/37/44
f 41/34/41 43/36/43 47/40/47
f 46/39/46 48/41/48 45/38/45
f 46/39/46 49/42/49 48/41/48
f 48/41/48 43/36/43 44/37/44
f 48/41/48 49/42/49 47/40/47
f 48/41/48 44/37/44 45/38/45
f 48/41/48 47/40/47 43/36/43
f 50/43/50 13/44/13 22/45/22
f 50/43/50 17/45/17 13/44/13
f 50/43/50 22/45/22 27/44/27
f 50/43/50 27/44/27 17/45/17
f 51/46/51 52/47/52 53/48/53
f 51/46/51 54/49/54 52/47/52
f 51/46/51 55/50/55 54/49/54
f 51/46/51 53/51/53 56/52/56
f 51/46/51 56/52/56 57/53/57
f 53/48/53 58/54/58 56/50/56
f 53/51/53 52/50/52 59/46/59
f 56/50/56 60/55/60 57/51/57
f 61/46/61 62/48/62 63/47/63
f 61/46/61 63/47/63 64/49/64
f 61/46/61 64/49/64 65/50/65
f 61/46/61 66/52/66 62/51/62
f 61/46/61 67/53/67 66/52/66
f 62/48/62 66/50/66 68/54/68
f 62/51/62 69/46/69 63/50/63
f 66/50/66 67/51/67 70/55/70
f 51/46/71 53/48/72 52/47/73
f 51/46/71 52/47/73 54/49/74
f 51/46/71 54/49/74 55/50/75
f 51/46/71 56/52/76 53/51/72
f 51/46/71 57/53/77 56/52/76
f 53/48/72 56/50/76 58/54/78
f 53/51/72 59/46/79 52/50/73
f 56/50/76 57/51/77 60/55/80
f 61/46/81 63/47/82 62/48/83
f 61/46/81 64/49/84 63/47/82
f 61/46/81 65/50/85 64/49/84
f 61/46/81 62/51/83 66/52/86
f 61/46/81 66/52/86 67/53/87
f 62/48/83 68/54/88 66/50/86
f 62/51/83 63/50/82 69/46/89
f 66/50/86 70/55/90 67/51/87
f 71/56/91 72/57/92 73/58/93
f 71/56/91 74/59/94 72/57/92
f 71/56/91 73/58/93 75/60/95
f 71/56/91 75/60/95 74/59/94
f 73/58/93 76/61/96 75/60/95
f 73/58/93 72/62/92 76/61/96
f 76/61/96 74/59/94 75/60/95
f 76/61/96 72/62/92 74/59/94
f 77/63/97 78/64/98 79/65/99
f 77/63/97 79/65/99 80/66/100
f 77/63/97 80/66/100 81/67/101
f 77/63/97 81/67/101 78/68/98
f 82/63/102 83/64/103 84/65/104
f 82/63/102 84/65/104 85/66/105
f 82/63/102 85/66/105 86/67/106
f 82/63/102 86/67/106 83/68/103
f 87/63/107 88/64/108 89/65/109
f 87/63/107 89/65/109 90/66/110
f 87/63/107 90/66/110 91/67/111
f 87/63/107 91/67/111 88/68/108
f 92/63/112 93/64/113 94/65/114
f 92/63/112 94/65/114 95/66/115
f 92/63/112 95/66/115 96/67/116
f 92/63/112 96/67/116 93/68/113
f 97/63/117 98/64/118 99/65/119
f 97/63/117 99/65/119 100/66/120
f 97/63/117 100/66/120 101/67/121
f 97/63/117 101/67/121 98/68/118
f 102/46/122 103/49/123 104/50/124
f 102/46/122 104/50/124 105/53/125
f 102/46/122 105/53/125 106/52/126
f 102/46/122 106/52/126 107/51/127
f 107/51/127 108/46/128 103/48/123
f 109/46/129 110/50/130 111/49/123
f 109/46/129 112/53/131 110/50/130
f 109/46/129 113/52/132 112/53/131
f 109/46/129 114/51/133 113/52/132
f 114/51/133 111/48/123 115/46/134
f 102/46/135 104/50/136 103/49/137
f 102/46/135 105/53/138 104/50/136
f 102/46/135 106/52/139 105/53/138
f 102/46/135 107/51/140 106/52/139
f 107/51/140 103/48/137 108/46/141
f 109/46/142 111/49/137 110/50/143
f 109/46/142 110/50/143 112/53/144
f 109/46/142 112/53/144 113/52/145
f 109/46/142 113/52/145 114/51/146
f 114/51/146 115/46/147 111/48/137
f 116/69/96 117/70/148 118/71/149
f 116/69/96 118/71/149 119/72/150
f 116/69/96 119/72/150 120/73/151
f 116/69/96 120/73/151 117/74/148
f 121/69/96 122/71/150 123/70/151
f 121/69/96 124/72/149 122/71/150
f 121/69/96 125/73/148 124/72/149
f 121/69/96 123/74/151 125/73/148
f 126/69/96 127/70/148 128/71/149
f 126/69/96 128/71/149 129/72/150
f 126/69/96 129/72/150 130/73/151
f 126/69/96 130/73/151 127/74/148
f 131/69/96 132/71/150 133/70/151
f 131/69/96 134/72/149 132/71/150
f 131/69/96 135/73/148 134/72/149
f 131/69/96 133/74/151 135/73/148
f 136/75/91 137/76/152 138/77/153
f 136/75/91 138/77/153 139/78/154
f 136/75/91 139/78/154 140/79/155
f 136/75/91 140/79/155 137/80/152
f 141/75/91 142/76/152 143/77/153
f 141/75/91 143/77/153 144/78/154
f 141/75/91 144/78/154 145/79/155
f 141/75/91 145/79/155 142/80/152
f 146/69/91 147/70/152 148/71/153
f 146/69/91 148/71/153 149/72/154
f 146/69/91 149/72/154 150/73/155
f 146/69/91 150/73/155 147/74/152
f 151/69/91 152/70/152 153/71/153
f 151/69/91 153/71/153 154/72/154
f 151/69/91 154/72/154 155/73/155
f 151/69/91 155/73/155 152/74/152
f 156/69/91 157/70/152 158/71/153
f 156/69/91 158/71/153 159/72/154
f 156/69/91 159/72/154 160/73/155
f 156/69/91 160/73/155 157/74/152
f 161/81/156 162/82/157 163/83/158
f 161/81/156 163/83/158 164/84/159
f 161/81/156 164/84/159 162/85/157
f 165/81/156 166/82/157 167/83/158
f 165/81/156 167/83/158 168/84/159
f 165/81/156 168/84/159 166/85/157
f 169/81/156 170/83/157 171/82/158
f 169/81/156 172/84/159 170/83/157
f 169/81/156 171/85/158 172/84/159
f 173/81/156 174/83/157 175/82/158
f 173/81/156 176/84/159 174/83/157
f 173/81/156 175/85/158 176/84/159
f 41/86/41 37/87/37 36/88/36
f 41/86/41 40/89/40 37/87/37
f 177/90/96 178/91/96 179/92/96
f 177/90/96 180/93/96 178/91/96
f 106/50/126 181/54/160 107/48/127
f 106/50/126 105/51/125 182/55/161
f 113/50/132 114/48/133 183/54/162
f 113/50/132 184/55/163 112/51/131
f 106/50/139 107/48/140 181/54/164
f 106/50/139 182/55/165 105/51/138
f 113/50/145 183/54/166 114/48/146
f 113/50/145 112/51/144 184/55/167
f 55/94/55 51/95/51 57/96/57
f 65/94/65 67/96/67 61/95/61
f 55/94/75 57/96/77 51/95/71
f 65/94/85 61/95/81 67/96/87
f 107/97/127 103/98/123 102/99/122
f 114/97/133 109/99/129 111/98/123
f 107/97/140 102/99/135 103/98/137
f 114/97/146 111/98/137 109/99/142
v -0.205198 0.291777 0.507096
vt -0.652186 0.0146014
vn -0.1870191 0 0.9823563
v 0.205219 0.291777 0.507096
vt 0.652186 0.0146014
vn 0.1870191 0 0.9823563
v -0.205198 0.572529 0.507096
vt -0.652186 1.00729
vn -0.114016 0.333349 0.935884
v 0.205219 0.572529 0.507096
vt 0.652186 1.00729
vn 0.114016 0.333349 0.935884
vt 0.037074 0.339321
vt 0.0901838 0.339321
v -0.205198 0.572529 0.407096
vn -0.09384068 0.2553129 -0.9622937
v 0.205219 0.572529 0.407096
vn 0.09384068 0.2553129 -0.9622937
vt 0.037074 0.289363
vn -0.07735358 0 -0.9970037
vt 0.0901838 0.289363
vn 0.07735358 0 -0.9970037
vn 0.120933 0 0.9926607
vt 0.0901838 0.302991
vt 0.037074 0.302991
vn -0.120933 0 0.9926607
v 0 0.459558 0.506747
vt 0.0817018 0.598595
vn 0 0.5404611 0.841369
v -0.063977 0.289687 0.506747
vt 0.0683251 0.563077
vn -0.8626608 0 0.5057829
v 0 0.289687 0.615866
vt 0.0817018 0.563077
vt 1.19092 0.981216
v 0 0.119815 0.506747
vt 0.721946 0.373685
vn 0 -0.5404611 0.841369
vt 0.669309 0.932044
v 0.063977 0.289687 0.506747
vn 0.8626602 0 0.5057841
vt 0.0950783 0.563077
o merged_1_0_node
g polygon_0
usemtl mat_face_mat_id
f 185/100/168 186/101/169 187/102/170
f 187/102/170 186/101/169 188/103/171
f 187/104/170 188/105/171 189/104/172
f 189/104/172 188/105/171 190/105/173
f 189/104/172 190/105/173 180/106/174
f 180/106/174 190/105/173 178/107/175
f 179/107/176 178/107/175 186/108/169
f 178/107/175 190/105/173 186/108/169
f 190/105/173 188/105/171 186/108/169
f 189/104/172 180/106/174 185/109/168
f 180/106/174 177/106/177 185/109/168
f 185/109/168 187/104/170 189/104/172
f 191/110/178 192/111/179 193/112/95
f 192/113/179 194/114/180 193/115/95
f 194/114/180 195/113/181 193/115/95
f 195/116/181 191/110/178 193/112/95
vt -1.07372 0.997278
vt -1.07372 0.749959
vt 1.07372 0.997278
vt 1.07372 0.749959
o merged_2_0_node
g polygon_0
usemtl TEX_ANIM_EYE_mat_id
f 185/117/168 177/118/177 186/119/169
f 186/119/169 177/118/177 179/120/176
