ply
format ascii 1.0
element vertex 420
property float x
property float y
property float z
property uchar red
property uchar green
property uchar blue
element face 468
property list uchar int vertex_index
end_header
0.53367 -0.15783 0.78371 53 130 166
0.53359 -0.15783 0.87854 53 130 166
0.74979 -0.15783 0.87881 53 130 166
0.74987 -0.15783 0.78398 53 130 166
0.53367 -0.03117 0.78371 53 130 166
0.74987 -0.03117 0.78398 53 130 166
0.7501 -0.03117 0.63317 53 130 166
0.7501 -0.15783 0.63317 53 130 166
0.88055 -0.15783 0.63326 53 130 166
0.7626 -0.14755 0.6065 53 130 166
0.8681 -0.14755 0.60658 53 130 166
0.8799 -0.15783 1.16583 53 130 166
0.74945 -0.15783 1.16573 53 130 166
0.8799 -0.03117 1.16583 53 130 166
0.88055 -0.03117 0.63326 53 130 166
0.86452 -0.14518 1.1983 53 130 166
0.76478 -0.14518 1.19823 53 130 166
0.76478 -0.04382 1.19823 53 130 166
0.86452 -0.04382 1.1983 53 130 166
0.74945 -0.03117 1.16573 53 130 166
0.74979 -0.03117 0.87881 53 130 166
0.53359 -0.03117 0.87854 53 130 166
0.8681 -0.04145 0.60658 53 130 166
0.7626 -0.04145 0.6065 53 130 166
0.53359 -0.15783 0.87854 55 135 173
0.53359 -0.03117 0.87854 55 135 173
0.74979 -0.03117 0.87881 55 135 173
0.74979 -0.15783 0.87881 55 135 173
0.74945 -0.15783 1.16573 55 135 173
0.74945 -0.03117 1.16573 55 135 173
0.76478 -0.14518 1.19823 55 135 173
0.76478 -0.04382 1.19823 55 135 173
-0.53367 -0.15783 0.78371 53 130 166
-0.74987 -0.15783 0.78398 53 130 166
-0.74979 -0.15783 0.87881 53 130 166
-0.53359 -0.15783 0.87854 53 130 166
-0.53367 -0.03117 0.78371 53 130 166
-0.74987 -0.03117 0.78398 53 130 166
-0.7501 -0.03117 0.63317 53 130 166
-0.7501 -0.15783 0.63317 53 130 166
-0.88055 -0.15783 0.63326 53 130 166
-0.7626 -0.14755 0.6065 53 130 166
-0.8681 -0.14755 0.60658 53 130 166
-0.8799 -0.15783 1.16583 53 130 166
-0.74945 -0.15783 1.16573 53 130 166
-0.8799 -0.03117 1.16583 53 130 166
-0.88055 -0.03117 0.63326 53 130 166
-0.86452 -0.14518 1.1983 53 130 166
-0.76478 -0.14518 1.19823 53 130 166
-0.76478 -0.04382 1.19823 53 130 166
-0.86452 -0.04382 1.1983 53 130 166
-0.74945 -0.03117 1.16573 53 130 166
-0.74979 -0.03117 0.87881 53 130 166
-0.53359 -0.03117 0.87854 53 130 166
-0.8681 -0.04145 0.60658 53 130 166
-0.7626 -0.04145 0.6065 53 130 166
-0.53359 -0.15783 0.87854 55 135 173
-0.74979 -0.15783 0.87881 55 135 173
-0.74979 -0.03117 0.87881 55 135 173
-0.53359 -0.03117 0.87854 55 135 173
-0.74945 -0.15783 1.16573 55 135 173
-0.74945 -0.03117 1.16573 55 135 173
-0.76478 -0.14518 1.19823 55 135 173
-0.76478 -0.04382 1.19823 55 135 173
0.36695 -0.10207 2.37476 178 116 167
0.37797 -0.10207 2.38698 178 116 167
0.43145 -0.10207 2.38698 178 116 167
0.44248 -0.10207 2.37476 178 116 167
0.36696 -0.10207 2.27905 178 116 167
0.44247 -0.10207 2.27905 178 116 167
0.34626 -0.10207 2.41836 55 135 173
0.34626 0.02114 2.41836 55 135 173
0.46317 0.02114 2.41836 55 135 173
0.46317 -0.10207 2.41836 55 135 173
0.33111 0.02114 2.40266 53 130 166
0.33098 0.02117 2.27905 53 130 166
0.47844 0.02117 2.27905 53 130 166
0.47832 0.02114 2.40266 53 130 166
0.47844 -0.10207 2.27905 53 130 166
0.47832 -0.10207 2.40266 53 130 166
0.33111 -0.10207 2.40266 53 130 166
0.33098 -0.10207 2.27905 53 130 166
0.34626 0.02114 2.41836 53 130 166
0.46317 0.02114 2.41836 53 130 166
0.46317 -0.10207 2.41836 53 130 166
0.43145 -0.10207 2.38698 53 130 166
0.44248 -0.10207 2.37476 53 130 166
0.34626 -0.10207 2.41836 53 130 166
0.44247 -0.10207 2.27905 53 130 166
0.37797 -0.10207 2.38698 53 130 166
0.36695 -0.10207 2.37476 53 130 166
0.36696 -0.10207 2.27905 53 130 166
0.24744 -0.43659 1.9142 222 222 222
0.24744 -0.43659 2.04061 222 222 222
0.33805 -0.43659 2.04061 222 222 222
0.33805 -0.43659 1.9142 222 222 222
0.24744 -0.34598 1.9142 222 222 222
0.33805 -0.34598 1.9142 222 222 222
0.33805 -0.34598 2.04061 222 222 222
0.24744 -0.34598 2.04061 222 222 222
-0.24744 -0.43659 1.9142 222 222 222
-0.33805 -0.43659 1.9142 222 222 222
-0.33805 -0.43659 2.04061 222 222 222
-0.24744 -0.43659 2.04061 222 222 222
-0.24744 -0.34598 1.9142 222 222 222
-0.33805 -0.34598 1.9142 222 222 222
-0.33805 -0.34598 2.04061 222 222 222
-0.24744 -0.34598 2.04061 222 222 222
0.30835 -0.43659 0.95975 222 222 222
0.30835 -0.43659 0.83334 222 222 222
0.21775 -0.43659 0.83334 222 222 222
0.21775 -0.43659 0.95975 222 222 222
0.21775 -0.34598 0.83334 222 222 222
0.21775 -0.34598 0.95975 222 222 222
0.30835 -0.34598 0.95975 222 222 222
0.30835 -0.34598 0.83334 222 222 222
0.30835 -0.34598 0.95975 241 241 241
0.30835 -0.43659 0.95975 241 241 241
0.21775 -0.43659 0.95975 241 241 241
0.21775 -0.34598 0.95975 241 241 241
-0.30835 -0.43659 0.95975 222 222 222
-0.21775 -0.43659 0.95975 222 222 222
-0.21775 -0.43659 0.83334 222 222 222
-0.30835 -0.43659 0.83334 222 222 222
-0.21775 -0.34598 0.83334 222 222 222
-0.21775 -0.34598 0.95975 222 222 222
-0.30835 -0.34598 0.95975 222 222 222
-0.30835 -0.34598 0.83334 222 222 222
-0.30835 -0.34598 0.95975 241 241 241
-0.21775 -0.34598 0.95975 241 241 241
-0.21775 -0.43659 0.95975 241 241 241
-0.30835 -0.43659 0.95975 241 241 241
0.28848 -0.44071 2.08273 36 36 36
0.28848 -0.44071 2.18093 36 36 36
0.3126 -0.44071 2.18093 36 36 36
0.3126 -0.44071 2.08273 36 36 36
0.3126 -0.43101 2.18093 36 36 36
0.3126 -0.43101 2.08273 36 36 36
0.28848 -0.43101 2.08273 36 36 36
0.28848 -0.43101 2.18093 36 36 36
-0.28848 -0.44071 2.08273 36 36 36
-0.3126 -0.44071 2.08273 36 36 36
-0.3126 -0.44071 2.18093 36 36 36
-0.28848 -0.44071 2.18093 36 36 36
-0.3126 -0.43101 2.18093 36 36 36
-0.3126 -0.43101 2.08273 36 36 36
-0.28848 -0.43101 2.08273 36 36 36
-0.28848 -0.43101 2.18093 36 36 36
-0.54422 -0.37044 0.78046 53 130 166
-0.54422 0.37577 0.78046 53 130 166
-0.54422 0.37577 2.22393 53 130 166
-0.54422 -0.37044 2.22393 53 130 166
-0.46363 -0.45287 2.22393 53 130 166
-0.46363 -0.45287 0.78046 53 130 166
-0.4824 -0.31687 2.28575 53 130 166
-0.40987 -0.39105 2.28575 53 130 166
-0.4824 0.32219 2.28575 53 130 166
-0.40987 -0.39105 0.71946 53 130 166
-0.4824 -0.31687 0.71946 53 130 166
-0.4824 0.32219 0.71946 53 130 166
-0.46363 0.45819 0.78046 53 130 166
-0.46363 0.45819 2.22393 53 130 166
-0.40987 0.39637 2.28575 53 130 166
-0.40987 0.39637 0.71946 53 130 166
0.46363 0.45819 2.22393 53 130 166
0.46363 0.45819 0.78046 53 130 166
0.40987 0.39637 0.71946 53 130 166
0.40987 -0.39105 0.71946 53 130 166
0.4824 -0.31687 0.71946 53 130 166
0.54422 0.37577 2.22393 53 130 166
0.54422 0.37577 0.78046 53 130 166
0.40987 0.39637 2.28575 53 130 166
0.4824 0.32219 2.28575 53 130 166
0.4824 0.32219 0.71946 53 130 166
0.54422 -0.37044 0.78046 53 130 166
0.46363 -0.45287 0.78046 53 130 166
0.46363 -0.45287 2.22393 53 130 166
0.54422 -0.37044 2.22393 53 130 166
0.4824 -0.31687 2.28575 53 130 166
0.40987 -0.39105 2.28575 53 130 166
-0.20623 -0.45287 2.17297 53 130 166
-0.3957 -0.45287 2.17297 53 130 166
-0.20623 -0.4353 2.17297 53 130 166
-0.3957 -0.4353 2.17297 53 130 166
-0.23231 -0.4353 2.09034 53 130 166
-0.23231 -0.45287 2.09034 53 130 166
-0.36658 -0.4353 2.09034 53 130 166
-0.36658 -0.45287 2.09034 53 130 166
-0.37468 -0.45287 2.03589 53 130 166
-0.37468 -0.45287 0.84078 53 130 166
0.37468 -0.45287 0.84078 53 130 166
0.20623 -0.45287 2.17297 53 130 166
0.23231 -0.45287 2.09034 53 130 166
0.23231 -0.4353 2.09034 53 130 166
0.20623 -0.4353 2.17297 53 130 166
0.3957 -0.45287 2.17297 53 130 166
0.3957 -0.4353 2.17297 53 130 166
0.36658 -0.4353 2.09034 53 130 166
0.36658 -0.45287 2.09034 53 130 166
0.37468 -0.45287 2.03589 53 130 166
-0.37468 -0.17115 2.03589 55 56 55
0.37468 -0.17115 2.03589 55 56 55
0.37468 -0.17115 0.84078 55 56 55
-0.37468 -0.17115 0.84078 55 56 55
0.37468 -0.45287 0.84078 55 56 55
-0.37468 -0.45287 0.84078 55 56 55
-0.37468 -0.45287 2.03589 55 56 55
0.37468 -0.45287 2.03589 55 56 55
-0.3957 -0.4353 2.17297 241 241 241
-0.20623 -0.4353 2.17297 241 241 241
-0.23231 -0.4353 2.09034 241 241 241
-0.36658 -0.4353 2.09034 241 241 241
-0.4824 -0.31687 2.28575 55 135 173
-0.4824 0.32219 2.28575 55 135 173
0.4824 0.32219 2.28575 55 135 173
0.4824 -0.31687 2.28575 55 135 173
-0.40987 -0.39105 2.28575 55 135 173
0.40987 -0.39105 2.28575 55 135 173
0.3957 -0.4353 2.17297 241 241 241
0.36658 -0.4353 2.09034 241 241 241
0.23231 -0.4353 2.09034 241 241 241
0.20623 -0.4353 2.17297 241 241 241
-0.40987 0.39637 2.28575 55 135 173
0.40987 0.39637 2.28575 55 135 173
-0.36695 -0.10207 2.37476 178 116 167
-0.44248 -0.10207 2.37476 178 116 167
-0.43145 -0.10207 2.38698 178 116 167
-0.37797 -0.10207 2.38698 178 116 167
-0.36696 -0.10207 2.27905 178 116 167
-0.44247 -0.10207 2.27905 178 116 167
-0.34626 -0.10207 2.41836 55 135 173
-0.46317 -0.10207 2.41836 55 135 173
-0.46317 0.02114 2.41836 55 135 173
-0.34626 0.02114 2.41836 55 135 173
-0.33111 0.02114 2.40266 53 130 166
-0.47832 0.02114 2.40266 53 130 166
-0.47844 0.02117 2.27905 53 130 166
-0.33098 0.02117 2.27905 53 130 166
-0.47844 -0.10207 2.27905 53 130 166
-0.47832 -0.10207 2.40266 53 130 166
-0.33111 -0.10207 2.40266 53 130 166
-0.33098 -0.10207 2.27905 53 130 166
-0.34626 0.02114 2.41836 53 130 166
-0.46317 0.02114 2.41836 53 130 166
-0.46317 -0.10207 2.41836 53 130 166
-0.43145 -0.10207 2.38698 53 130 166
-0.44248 -0.10207 2.37476 53 130 166
-0.34626 -0.10207 2.41836 53 130 166
-0.44247 -0.10207 2.27905 53 130 166
-0.37797 -0.10207 2.38698 53 130 166
-0.36695 -0.10207 2.37476 53 130 166
-0.36696 -0.10207 2.27905 53 130 166
0.5 -0.02683 1.67105 53 130 166
0.5 -0.02683 1.80629 53 130 166
0.7954 -0.02683 1.80629 53 130 166
0.89607 -0.02683 1.67105 53 130 166
0.5 0.10841 1.67105 53 130 166
0.89607 0.10841 1.67105 53 130 166
0.93278 -0.02683 1.71091 53 130 166
0.93278 0.10841 1.71091 53 130 166
0.7954 0.10841 1.80629 53 130 166
0.5 0.10841 1.80629 53 130 166
0.7954 -0.02683 2.70449 53 130 166
0.7954 0.10841 2.70449 53 130 166
0.93278 -0.02683 2.62236 53 130 166
0.93278 0.10841 2.62236 53 130 166
0.83608 -0.02683 2.7494 53 130 166
0.83608 0.10841 2.7494 53 130 166
2.22881 0.10841 2.62236 53 130 166
2.22881 -0.02683 2.62236 53 130 166
2.22881 0.10841 2.7494 53 130 166
2.22881 -0.02683 2.7494 53 130 166
0.5 -0.02683 1.80629 55 135 173
0.5 0.10841 1.80629 55 135 173
0.7954 0.10841 1.80629 55 135 173
0.7954 -0.02683 1.80629 55 135 173
0.83608 0.10841 2.7494 55 135 173
0.83608 -0.02683 2.7494 55 135 173
0.7954 -0.02683 2.70449 55 135 173
0.7954 0.10841 2.70449 55 135 173
2.22881 -0.02683 2.7494 55 135 173
2.22881 0.10841 2.7494 55 135 173
0.88862 0.00263 1.71443 180 107 168
1.31431 0.00263 1.3138 180 107 168
0.5 0.00263 1.3138 180 107 168
0.5 0.00263 1.71443 180 107 168
1.31431 0.07931 1.3138 180 107 168
0.5 0.07931 1.3138 180 107 168
1.31431 0.07931 1.71349 180 107 168
1.31431 0.00263 1.71349 180 107 168
2.2116 0.00263 2.16758 166 99 155
2.2116 0.00263 2.24302 166 99 155
2.2116 0.07931 2.24302 166 99 155
2.2116 0.07931 2.16758 166 99 155
1.83024 0.00263 2.16758 166 99 155
1.83024 0.07931 2.16758 166 99 155
1.8303 0.07931 2.24302 166 99 155
0.88862 0.07931 2.24302 166 99 155
0.88862 0.07931 2.1671 166 99 155
1.31431 0.00263 1.71349 166 99 155
1.83024 0.00263 1.71349 166 99 155
1.83024 0.07931 1.71349 166 99 155
1.31431 0.07931 1.71349 166 99 155
1.83024 0.00263 1.78662 166 99 155
1.31453 0.00263 1.78662 166 99 155
0.88862 0.00263 1.78662 166 99 155
0.88862 0.00263 1.71443 166 99 155
1.83024 0.00263 1.78662 180 107 168
1.83024 0.00263 2.16758 180 107 168
1.83024 0.07931 2.16758 180 107 168
1.83024 0.07931 1.78662 180 107 168
1.31453 0.07931 1.78662 180 107 168
0.88862 0.07931 2.1671 180 107 168
0.88862 0.07931 1.78662 180 107 168
2.2116 0.00263 2.64218 180 107 168
1.8303 0.00263 2.24302 180 107 168
0.88862 0.00263 2.64218 180 107 168
2.2116 0.00263 2.24302 180 107 168
2.2116 0.07931 2.64218 180 107 168
2.2116 0.07931 2.24302 180 107 168
1.8303 0.07931 2.24302 180 107 168
0.88862 0.00263 2.24302 180 107 168
0.88862 0.07931 2.64218 180 107 168
0.88862 0.07931 2.24302 180 107 168
0.88862 0.07931 1.71443 180 107 168
0.5 0.07931 1.71443 180 107 168
1.31453 0.07931 1.78662 166 99 155
0.88862 0.07931 1.78662 166 99 155
0.88862 0.07931 1.71443 166 99 155
1.83024 0.07931 1.78662 166 99 155
1.31453 0.00263 1.78662 180 107 168
0.88862 0.00263 2.1671 180 107 168
0.88862 0.00263 1.78662 180 107 168
1.8303 0.00263 2.24302 166 99 155
0.88862 0.00263 2.24302 166 99 155
0.88862 0.00263 2.1671 166 99 155
-0.5 -0.02683 1.67105 53 130 166
-0.89607 -0.02683 1.67105 53 130 166
-0.7954 -0.02683 1.80629 53 130 166
-0.5 -0.02683 1.80629 53 130 166
-0.5 0.10841 1.67105 53 130 166
-0.89607 0.10841 1.67105 53 130 166
-0.93278 -0.02683 1.71091 53 130 166
-0.93278 0.10841 1.71091 53 130 166
-0.7954 0.10841 1.80629 53 130 166
-0.5 0.10841 1.80629 53 130 166
-0.7954 -0.02683 2.70449 53 130 166
-0.7954 0.10841 2.70449 53 130 166
-0.93278 -0.02683 2.62236 53 130 166
-0.93278 0.10841 2.62236 53 130 166
-0.83608 -0.02683 2.7494 53 130 166
-0.83608 0.10841 2.7494 53 130 166
-2.22881 0.10841 2.62236 53 130 166
-2.22881 -0.02683 2.62236 53 130 166
-2.22881 0.10841 2.7494 53 130 166
-2.22881 -0.02683 2.7494 53 130 166
-0.5 -0.02683 1.80629 55 135 173
-0.7954 -0.02683 1.80629 55 135 173
-0.7954 0.10841 1.80629 55 135 173
-0.5 0.10841 1.80629 55 135 173
-0.83608 0.10841 2.7494 55 135 173
-0.7954 0.10841 2.70449 55 135 173
-0.7954 -0.02683 2.70449 55 135 173
-0.83608 -0.02683 2.7494 55 135 173
-2.22881 -0.02683 2.7494 55 135 173
-2.22881 0.10841 2.7494 55 135 173
-0.88862 0.00263 1.71443 180 107 168
-0.5 0.00263 1.71443 180 107 168
-0.5 0.00263 1.3138 180 107 168
-1.31431 0.00263 1.3138 180 107 168
-1.31431 0.07931 1.3138 180 107 168
-0.5 0.07931 1.3138 180 107 168
-1.31431 0.07931 1.71349 180 107 168
-1.31431 0.00263 1.71349 180 107 168
-2.2116 0.00263 2.16758 166 99 155
-2.2116 0.07931 2.16758 166 99 155
-2.2116 0.07931 2.24302 166 99 155
-2.2116 0.00263 2.24302 166 99 155
-1.83024 0.00263 2.16758 166 99 155
-1.83024 0.07931 2.16758 166 99 155
-1.8303 0.07931 2.24302 166 99 155
-0.88862 0.07931 2.24302 166 99 155
-0.88862 0.07931 2.1671 166 99 155
-1.31431 0.00263 1.71349 166 99 155
-1.31431 0.07931 1.71349 166 99 155
-1.83024 0.07931 1.71349 166 99 155
-1.83024 0.00263 1.71349 166 99 155
-1.83024 0.00263 1.78662 166 99 155
-1.31453 0.00263 1.78662 166 99 155
-0.88862 0.00263 1.78662 166 99 155
-0.88862 0.00263 1.71443 166 99 155
-1.83024 0.00263 1.78662 180 107 168
-1.83024 0.07931 1.78662 180 107 168
-1.83024 0.07931 2.16758 180 107 168
-1.83024 0.00263 2.16758 180 107 168
-1.31453 0.07931 1.78662 180 107 168
-0.88862 0.07931 2.1671 180 107 168
-0.88862 0.07931 1.78662 180 107 168
-2.2116 0.00263 2.64218 180 107 168
-0.88862 0.00263 2.64218 180 107 168
-1.8303 0.00263 2.24302 180 107 168
-2.2116 0.00263 2.24302 180 107 168
-2.2116 0.07931 2.64218 180 107 168
-2.2116 0.07931 2.24302 180 107 168
-1.8303 0.07931 2.24302 180 107 168
-0.88862 0.00263 2.24302 180 107 168
-0.88862 0.07931 2.64218 180 107 168
-0.88862 0.07931 2.24302 180 107 168
-0.5 0.07931 1.71443 180 107 168
-0.88862 0.07931 1.71443 180 107 168
-0.88862 0.07931 1.71443 166 99 155
-0.88862 0.07931 1.78662 166 99 155
-1.31453 0.07931 1.78662 166 99 155
-1.83024 0.07931 1.78662 166 99 155
-1.31453 0.00263 1.78662 180 107 168
-0.88862 0.00263 2.1671 180 107 168
-0.88862 0.00263 1.78662 180 107 168
-1.8303 0.00263 2.24302 166 99 155
-0.88862 0.00263 2.24302 166 99 155
-0.88862 0.00263 2.1671 166 99 155
3 0 2 1
3 0 3 2
3 4 3 0
3 4 5 3
3 3 5 6
3 3 6 7
3 8 3 7
3 8 7 9
3 8 9 10
3 11 3 8
3 11 2 3
3 2 11 12
3 13 11 8
3 13 8 14
3 12 11 15
3 12 15 16
3 17 16 15
3 17 15 18
3 11 18 15
3 11 13 18
3 13 17 18
3 13 19 17
3 13 20 19
3 13 5 20
3 13 14 5
3 21 20 5
3 21 5 4
3 5 14 6
3 6 14 22
3 6 22 23
3 9 23 22
3 9 22 10
3 7 23 9
3 7 6 23
3 14 10 22
3 14 8 10
3 24 26 25
3 24 27 26
3 26 27 28
3 26 28 29
3 29 28 30
3 29 30 31
3 32 34 33
3 32 35 34
3 36 32 33
3 36 33 37
3 33 38 37
3 33 39 38
3 40 39 33
3 40 41 39
3 40 42 41
3 43 33 34
3 43 40 33
3 34 44 43
3 45 40 43
3 45 46 40
3 44 47 43
3 44 48 47
3 49 47 48
3 49 50 47
3 43 50 45
3 43 47 50
3 45 50 49
3 45 49 51
3 45 51 52
3 45 37 46
3 45 52 37
3 53 37 52
3 53 36 37
3 37 38 46
3 38 54 46
3 38 55 54
3 41 54 55
3 41 42 54
3 39 55 38
3 39 41 55
3 46 54 42
3 46 42 40
3 56 58 57
3 56 59 58
3 58 60 57
3 58 61 60
3 61 62 60
3 61 63 62
3 64 66 65
3 64 67 66
3 68 67 64
3 68 69 67
3 70 72 71
3 70 73 72
3 74 76 75
3 74 77 76
3 78 76 77
3 78 77 79
3 75 80 74
3 75 81 80
3 77 74 82
3 77 82 83
3 79 77 83
3 79 83 84
3 85 79 84
3 85 86 79
3 74 87 82
3 74 80 87
3 78 79 86
3 78 86 88
3 85 84 87
3 85 87 89
3 89 87 80
3 89 80 90
3 80 91 90
3 80 81 91
3 92 94 93
3 92 95 94
3 96 95 92
3 96 92 93
3 96 97 95
3 95 98 94
3 95 97 98
3 96 93 99
3 99 97 96
3 99 98 97
3 100 102 101
3 100 103 102
3 104 100 101
3 104 103 100
3 104 101 105
3 101 106 105
3 101 102 106
3 104 107 103
3 107 105 106
3 107 104 105
3 108 110 109
3 108 111 110
3 111 112 110
3 111 113 112
3 114 108 109
3 114 109 115
3 115 113 114
3 115 112 113
3 116 118 117
3 116 119 118
3 120 122 121
3 120 123 122
3 121 122 124
3 121 124 125
3 126 123 120
3 126 127 123
3 127 125 124
3 127 126 125
3 128 130 129
3 128 131 130
3 132 134 133
3 132 135 134
3 135 136 134
3 135 137 136
3 138 132 133
3 138 133 139
3 140 142 141
3 140 143 142
3 141 142 144
3 141 144 145
3 146 143 140
3 146 147 143
3 148 150 149
3 148 151 150
3 152 151 148
3 152 148 153
3 152 154 151
3 152 155 154
3 151 156 150
3 151 154 156
3 148 157 153
3 148 158 157
3 149 158 148
3 149 159 158
3 160 159 149
3 160 149 150
3 160 150 161
3 150 162 161
3 150 156 162
3 160 163 159
3 160 161 164
3 162 164 161
3 160 164 165
3 163 160 165
3 163 165 166
3 158 167 157
3 158 168 167
3 165 164 169
3 165 169 170
3 162 171 164
3 169 164 171
3 169 171 172
3 165 173 166
3 165 170 173
3 170 168 173
3 163 166 173
3 170 174 168
3 174 167 168
3 174 175 167
3 176 175 174
3 176 174 177
3 174 169 177
3 174 170 169
3 176 177 178
3 176 178 179
3 155 176 179
3 155 152 176
3 177 172 178
3 177 169 172
3 180 176 152
3 180 152 181
3 181 182 180
3 181 183 182
3 180 182 184
3 180 184 185
3 185 184 186
3 185 186 187
3 187 183 181
3 187 186 183
3 152 187 181
3 152 188 187
3 188 185 187
3 188 152 189
3 189 152 153
3 189 153 175
3 189 175 190
3 157 175 153
3 157 167 175
3 185 191 180
3 185 192 191
3 188 192 185
3 191 192 193
3 191 193 194
3 195 191 194
3 195 194 196
3 192 197 193
3 192 198 197
3 198 196 197
3 198 195 196
3 198 176 195
3 176 191 195
3 192 199 198
3 190 175 199
3 176 199 175
3 199 176 198
3 180 191 176
3 188 199 192
3 200 202 201
3 200 203 202
3 203 204 202
3 204 201 202
3 203 205 204
3 205 203 200
3 205 200 206
3 204 207 201
3 200 207 206
3 200 201 207
3 208 210 209
3 208 211 210
3 212 214 213
3 212 215 214
3 216 215 212
3 216 217 215
3 218 220 219
3 218 221 220
3 159 168 158
3 159 173 168
3 163 173 159
3 213 223 222
3 213 214 223
3 224 226 225
3 224 227 226
3 228 224 225
3 228 225 229
3 230 232 231
3 230 233 232
3 234 236 235
3 234 237 236
3 238 235 236
3 238 239 235
3 237 234 240
3 237 240 241
3 235 242 234
3 235 243 242
3 239 243 235
3 239 244 243
3 245 244 239
3 245 239 246
3 234 247 240
3 234 242 247
3 238 246 239
3 238 248 246
3 245 247 244
3 245 249 247
3 249 240 247
3 249 250 240
3 240 250 251
3 240 251 241
3 252 254 253
3 252 255 254
3 256 255 252
3 256 257 255
3 254 255 258
3 258 255 257
3 258 257 259
3 257 260 259
3 261 260 257
3 261 257 256
3 260 254 262
3 260 262 263
3 259 260 263
3 254 264 262
3 254 258 264
3 258 265 264
3 258 259 265
3 259 263 265
3 262 264 266
3 265 263 267
3 264 265 268
3 264 268 269
3 266 264 269
3 265 267 270
3 265 270 268
3 269 268 270
3 269 270 271
3 266 269 271
3 272 274 273
3 272 275 274
3 276 278 277
3 276 279 278
3 276 277 280
3 276 280 281
3 282 284 283
3 282 285 284
3 284 286 283
3 284 287 286
3 283 286 288
3 283 288 289
3 289 282 283
3 290 292 291
3 290 293 292
3 294 293 290
3 294 295 293
3 295 292 293
3 295 296 292
3 295 297 296
3 295 298 297
3 299 301 300
3 299 302 301
3 303 299 300
3 303 304 299
3 299 304 305
3 299 305 306
3 307 309 308
3 307 310 309
3 309 310 311
3 311 312 309
3 311 313 312
3 314 316 315
3 314 315 317
3 317 318 314
3 317 319 318
3 319 320 318
3 315 316 321
3 320 322 318
3 320 323 322
3 287 324 286
3 287 325 324
3 286 324 288
3 302 327 326
3 302 328 327
3 326 301 302
3 326 329 301
3 300 301 329
3 300 329 303
3 308 330 307
3 330 308 331
3 330 331 332
3 291 294 290
3 291 333 294
3 294 333 334
3 294 334 335
3 336 338 337
3 336 339 338
3 340 336 337
3 340 337 341
3 338 342 337
3 342 341 337
3 342 343 341
3 341 343 344
3 345 341 344
3 345 340 341
3 344 346 338
3 344 347 346
3 343 347 344
3 338 348 342
3 338 346 348
3 342 348 349
3 342 349 343
3 343 349 347
3 346 350 348
3 349 351 347
3 348 352 349
3 348 353 352
3 350 353 348
3 349 354 351
3 349 352 354
3 353 354 352
3 353 355 354
3 350 355 353
3 356 358 357
3 356 359 358
3 360 362 361
3 360 363 362
3 360 364 363
3 360 365 364
3 366 368 367
3 366 369 368
3 368 369 370
3 368 370 371
3 369 372 370
3 369 373 372
3 373 369 366
3 374 376 375
3 374 377 376
3 378 374 375
3 378 375 379
3 379 375 376
3 379 376 380
3 379 380 381
3 379 381 382
3 383 385 384
3 383 386 385
3 387 386 383
3 387 383 388
3 383 389 388
3 383 390 389
3 391 393 392
3 391 394 393
3 393 395 392
3 395 393 396
3 395 396 397
3 398 400 399
3 398 401 400
3 401 398 402
3 401 402 403
3 403 402 404
3 400 405 399
3 404 402 406
3 404 406 407
3 371 409 408
3 371 370 409
3 370 372 409
3 384 411 410
3 384 412 411
3 412 384 385
3 412 385 413
3 386 413 385
3 386 387 413
3 394 391 414
3 414 415 394
3 414 416 415
3 377 378 417
3 377 374 378
3 378 418 417
3 378 419 418
