mtllib Torterra.mtl
v 0.165546 0.252331 0.218168
vt 0.250015 0.923125
vn 0.234738 0.0781025 -0.9689159
v 0 0.378156 0.230406
vn 0 0.4032598 -0.9150856
v 0.1372 0.377628 0.299574
vn 0.5326071 0.7776972 -0.3339411
v -0.165546 0.252331 0.218168
vn -0.234738 0.0781025 -0.9689159
v 0.19457 0.302965 0.294178
vn 0.8555455 0.4492342 -0.2573532
v 0 0.0734835 0.230406
vn 0 -0.3822562 -0.9240564
v 0.205207 0.17296 0.26136
vn 0.703818 -0.224005 -0.674138
v 0.1372 0.0750859 0.26154
vn 0.3299977 -0.6541745 -0.6805565
v 0 0.437121 0.308418
vn 0 0.9889736 -0.1480919
v -0.1372 0.377628 0.299574
vn -0.5326071 0.7776972 -0.3339411
v 0.214567 0.233514 0.345242
vn 0.9882068 0.151263 -0.0238087
v 0.199809 0.288046 0.416788
vn 0.783277 0.56503 0.259265
vn 0.9641535 0.09354596 0.2483089
v 0 0.0468118 0.337977
vn 0 -0.9998449 0.0176142
v -0.1372 0.0750859 0.26154
vn -0.3299977 -0.6541745 -0.6805565
v -0.12514 0.374389 0.445167
vn -0.5291539 0.7880178 0.3146809
v -0.19457 0.302965 0.294178
vn -0.8555455 0.4492342 -0.2573532
v -0.199809 0.288046 0.416788
vn -0.783277 0.56503 0.259265
v 0.208669 0.108483 0.341891
vn 0.6852946 -0.7282646 0.001427149
v 0.12514 0.374389 0.445167
vn 0.5291539 0.7880178 0.3146809
v 0.205781 0.165631 0.41805
vn 0.9072843 -0.2049661 0.3671841
v -0.12514 0.0632353 0.37907
vn -0.263422 -0.9571918 0.11997
v 0.12514 0.0632353 0.37907
vn 0.263422 -0.9571918 0.11997
v 0 0.0852209 0.563118
vn 0 -0.9568228 0.2906719
v -0.205207 0.17296 0.26136
vn -0.703818 -0.224005 -0.674138
v 0 0.407436 0.465677
vn 0 0.9175259 0.397676
v 0.126906 0.100526 0.516171
vn 0.4422429 -0.8206217 0.3619409
v -0.208669 0.108483 0.341891
vn -0.6852951 -0.7282641 0.00142716
v -0.126906 0.100526 0.516171
vn -0.4422429 -0.8206217 0.3619409
v -0.214567 0.233514 0.345242
vn -0.9882068 0.151263 -0.0238086
vn -0.9641535 0.09354596 0.2483089
v -0.205781 0.165631 0.41805
vn -0.9072843 -0.2049661 0.3671841
v 0 0.156827 0.636296
vt 0.00500541 0.543993
vn 0 -0.2456739 0.9693525
v -0.063888 0.132581 0.580187
vt 0.273513 0.424335
vn -0.4638508 -0.4883208 0.7391788
v 0 0.0747774 0.565968
vt 0.371532 0.161782
vn 0 -0.6507882 0.7592593
v -0.0991019 0.197971 0.587983
vt 0.273096 0.778343
vn -0.473849 -0.116372 0.872883
v 0.063888 0.132581 0.580187
vn 0.4638511 -0.4883201 0.7391791
v 0 0.224156 0.620282
vt 0.08912 0.927489
vn 0 0.2313829 0.9728628
v 0.0991019 0.197971 0.587983
vn 0.473849 -0.116372 0.872883
vt 0.107567 0.927489
vn 0 0.3570308 0.9340926
v 0 0.317607 0.573932
vt 0.371578 1.45978
vn 0 0.6547481 0.7558471
v -0.107939 0.293322 0.561075
vt 0.44481 1.32146
vn -0.4829972 0.5451912 0.6851863
v 0.107939 0.293322 0.561075
vn 0.4829972 0.5451912 0.6851863
vt 0.234783 0.820914
vn -0.424179 0.209319 0.8810549
vn 0.4241782 0.2093191 0.8810553
v -0.154228 0.227147 0.539977
vt 0.56498 0.944528
vn -0.7402518 0.3312799 0.5850478
v 0.154228 0.227147 0.539977
vn 0.7402518 0.3312799 0.5850478
vt 0.137753 0.0234175
vt 0.0995666 0.0234175
vt 0.860788 0.0234175
vt 0.906272 0.0234177
vt 0.874556 0.0234177
vt 0.125723 0.0234176
v 0.134543 0.138413 0.537483
vt 0.579187 0.439106
vn 0.7547533 -0.3111911 0.5775012
vt 0.31141 0.762734
vn 0.6154771 -0.2635631 0.7427801
vt 0.358653 0.439944
vn 0.3973541 -0.5781652 0.7126253
vn 0.8726954 -0.1001159 0.4778907
vt 0.365749 0.368993
vt 0.700577 0.223307
vt 1.25947 0.594137
vt 0.43317 0.136127
vn -0.3973541 -0.5781652 0.7126253
v -0.134543 0.138413 0.537483
vn -0.7547533 -0.3111911 0.5775012
vn -0.6154771 -0.2635631 0.7427801
vn -0.8726954 -0.1001159 0.4778907
vt 0.416941 0.0766416
vn -0.4125192 -0.2397671 -0.8788285
vt 0.317503 0.376089
vn 0.4125189 -0.2397669 -0.8788288
o merged_0_0_node
g polygon_0
usemtl mat_kao_mat_id
f 1/1/1 2/1/2 3/1/3
f 1/1/1 4/1/4 2/1/2
f 1/1/1 3/1/3 5/1/5
f 1/1/1 6/1/6 4/1/4
f 1/1/1 5/1/5 7/1/7
f 1/1/1 8/1/8 6/1/6
f 1/1/1 7/1/7 8/1/8
f 2/1/2 9/1/9 3/1/3
f 2/1/2 4/1/4 10/1/10
f 2/1/2 10/1/10 9/1/9
f 5/1/5 11/1/11 7/1/7
f 5/1/5 3/1/3 12/1/12
f 5/1/5 12/1/13 11/1/11
f 6/1/6 8/1/8 13/1/14
f 6/1/6 14/1/15 4/1/4
f 6/1/6 13/1/14 14/1/15
f 10/1/10 15/1/16 9/1/9
f 10/1/10 4/1/4 16/1/17
f 10/1/10 17/1/18 15/1/16
f 10/1/10 16/1/17 17/1/18
f 7/1/7 18/1/19 8/1/8
f 3/1/3 19/1/20 12/1/12
f 3/1/3 9/1/9 19/1/20
f 12/1/13 20/1/21 11/1/11
f 13/1/14 21/1/22 14/1/15
f 13/1/14 8/1/8 22/1/23
f 13/1/14 23/1/24 21/1/22
f 13/1/14 22/1/23 23/1/24
f 8/1/8 18/1/19 22/1/23
f 4/1/4 24/1/25 16/1/17
f 4/1/4 14/1/15 24/1/25
f 15/1/16 25/1/26 9/1/9
f 9/1/9 25/1/26 19/1/20
f 20/1/21 26/1/27 18/1/19
f 26/1/27 23/1/24 22/1/23
f 26/1/27 22/1/23 18/1/19
f 21/1/22 27/1/28 14/1/15
f 21/1/22 23/1/24 28/1/29
f 21/1/22 28/1/29 27/1/28
f 14/1/15 27/1/28 24/1/25
f 16/1/17 24/1/25 29/1/30
f 16/1/17 29/1/30 17/1/31
f 28/1/29 30/1/32 27/1/28
f 30/1/32 17/1/31 29/1/30
f 31/2/33 32/3/34 33/4/35
f 31/2/33 34/5/36 32/3/34
f 31/2/33 33/4/35 35/3/37
f 31/2/33 36/6/38 34/5/36
f 31/2/33 35/3/37 37/5/39
f 31/2/33 37/5/39 36/6/38
f 36/7/40 38/8/41 39/9/42
f 36/7/40 40/9/43 38/8/41
f 36/7/40 39/9/42 34/10/44
f 36/7/40 37/10/45 40/9/43
f 39/9/42 41/11/46 34/10/44
f 37/10/45 42/11/47 40/9/43
f 40/12/43 42/13/47 12/14/12
f 40/12/43 12/14/12 19/15/20
f 40/12/43 19/15/20 25/16/26
f 40/12/43 25/16/26 38/17/41
f 25/16/26 39/12/42 38/17/41
f 25/16/26 15/15/16 39/12/42
f 15/15/16 17/14/18 39/12/42
f 17/14/18 41/13/46 39/12/42
f 43/18/48 37/19/49 35/20/50
f 43/18/48 42/11/51 37/19/49
f 43/18/48 35/21/50 26/22/27
f 43/18/48 26/22/27 20/23/21
f 35/21/50 23/24/24 26/22/27
f 23/24/24 32/21/52 28/22/29
f 32/21/52 44/18/53 28/22/29
f 44/18/53 30/23/32 28/22/29
f 44/18/53 34/19/54 41/11/55
f 44/18/53 32/20/52 34/19/54
f 33/25/56 32/26/56 23/24/56
f 33/25/57 23/24/57 35/26/57
v 0 0.06976751 -0.101451
vt 0.457661 0.0293847
vn 0 -0.9959852 0.08951866
v 0.207738 0.0774333 -0.1005079
vt 0.456543 0.21688
vn 0.5980074 -0.7991445 0.06128041
v 0 0.06844368 0.06636059
vt 0.258708 0.0214972
vn 0 -0.9982091 -0.05982166
v -0.207738 0.0774333 -0.1005079
vt 0.461143 0.313625
vn -0.5980074 -0.7991445 0.06128041
v -0.23034 0.208622 -0.18883
vt 0.571636 0.850025
vn -0.8590051 -0.195916 -0.4729981
v -0.161432 0.0006937442 -0.2337197
vt 0.627791 -0.000104159
vn -0.4522406 -0.8334377 -0.3175848
v -0.0671678 0.1126378 -0.3392059
vt 0.75976 0.457568
vn -0.4951606 -0.4823205 -0.7226222
v -0.0964611 0.238844 -0.330276
vt 0.748589 0.973599
vn -0.7778782 0.3636411 -0.5125141
v 0.23034 0.208622 -0.18883
vn 0.8590051 -0.195916 -0.4729981
v 0.263651 0.211774 -0.0386079
vt 0.383702 0.862915
vn 0.9294987 -0.3653279 -0.05067209
v 0.0671678 0.1126378 -0.3392059
vn 0.4951606 -0.4823205 -0.7226222
v 0.161432 0.0006937442 -0.2337197
vn 0.4522406 -0.8334377 -0.3175848
v 0.0964611 0.238844 -0.330276
vn 0.7778782 0.3636411 -0.5125141
v 0.205358 0.07759667 0.05543289
vt 0.266053 0.314293
vn 0.6161487 -0.7816616 -0.09677729
vt 0.271663 0.217855
vt 0.462322 0.282281
v -0.205358 0.07759667 0.05543289
vn -0.6161487 -0.7816616 -0.09677729
v -0.263651 0.211774 -0.0386079
vn -0.9294987 -0.3653279 -0.05067219
v 0 0.08401448 -0.2823721
vt 0.68866 0.340534
vn 0 -0.9529902 -0.303001
v 0.27559 0.244333 0.126829
vt 0.176734 0.99604
vn 0.9220889 -0.33802 0.1884
v 0.219762 0.211742 0.268099
vt 0 0.862784
vn 0.4155941 -0.245281 0.8758532
v 0.161853 -0.0002867454 0.1502104
vt 0.147485 -0.00411293
vn 0.3086145 -0.8905925 0.3340689
vt 0.252382 0.276869
v 0 0.09271854 0.2438302
vt 0.030363 0.376123
vn 0 -0.5501228 0.8350838
v -0.161853 -0.0002867454 0.1502104
vn -0.3086145 -0.8905925 0.3340689
v -0.219762 0.211742 0.268099
vn -0.413449 -0.244015 0.877221
v -0.27559 0.244333 0.126829
vn -0.9220889 -0.33802 0.1884
v 0 0.254124 -0.531237
vt 1 0.780228
vn 0 0.5676192 -0.8232912
v 0.21615 0.334262 0.268099
vt 0 1.36375
vn 0.190216 0.005607062 0.9817262
v -0.21615 0.334262 0.268099
vn -0.187903 0.00553888 0.982172
v 0.241306 0.326747 -0.0387188
vt 0.943879 0.00511606
vn 0.9672159 0.161057 -0.196352
v 0.223159 0.44195 -0.075821
vt 0.950899 0.0893664
vn 0.8963872 -0.4359711 -0.08012032
v 0.173707 0.456339 0.00582059
vt 0.928359 0.0998894
vn 0.4681741 0.8011202 0.3728531
v 0.217383 0.498244 -0.0221791
vt 0.939198 0.130535
vn 0.6928372 0.6695812 0.2676521
v 0.317535 0.511395 -0.168395
vt 0.956413 0.140153
vn 0.7606421 -0.05913901 -0.6464721
v 0.0272235 0.662768 0.0707013
vt 0.914323 0.250854
vn 0.3023041 0.9528053 0.02782591
v 0.06656 0.584021 -0.250059
vt 0.977028 0.193265
vn 0.145032 0.8661197 -0.4783328
v 0.200967 0.526142 -0.110676
vt 0.960306 0.150938
vn 0.263971 0.918264 -0.295145
v 0.148162 0.4488 -0.160493
vt 0.972128 0.0943759
vn 0.06681118 -0.2507609 -0.9657407
v 0.112027 0.358095 -0.195204
vt 0.975376 0.0280418
vn 0.319867 0.294039 -0.900681
v 0.150678 0.447652 0.124738
vt 0.924811 0.093536
vn 0.364061 0.921125 0.137798
v 0.00224566 0.446037 -0.0471959
vt 0.904456 0.0923555
vn -0.3483639 0.8772858 -0.3301699
v 0.0937152 0.495887 -0.0544694
vt 0.904818 0.128811
vn -0.9397887 -0.2788239 0.1976219
vt 0.887209 0.193265
vt 0.882309 0.0943759
vt 0.885557 0.0280418
o merged_1_0_node
g polygon_0
usemtl mat_body_mat_id
f 45/27/58 46/28/59 47/29/60
f 48/30/61 49/31/62 50/32/63
f 51/33/64 50/32/63 49/31/62
f 51/33/64 49/31/62 52/34/65
f 46/30/59 53/31/66 54/35/67
f 55/33/68 53/31/66 56/32/69
f 53/31/66 55/33/68 57/34/70
f 46/30/59 54/35/67 58/36/71
f 46/28/59 58/37/71 47/29/60
f 46/30/59 56/32/69 53/31/66
f 56/32/69 46/30/59 45/38/58
f 47/29/60 59/37/72 48/28/61
f 60/35/73 48/30/61 59/36/72
f 45/38/58 48/30/61 50/32/63
f 47/29/60 48/28/61 45/27/58
f 45/38/58 61/39/74 56/32/69
f 45/38/58 50/32/63 61/39/74
f 50/32/63 51/33/64 61/39/74
f 55/33/68 61/39/74 51/33/64
f 56/32/69 61/39/74 55/33/68
f 48/30/61 60/35/73 49/31/62
f 62/40/75 63/41/76 64/42/77
f 47/43/60 65/44/78 66/42/79
f 66/42/79 65/44/78 67/41/80
f 64/42/77 58/36/71 62/40/75
f 62/40/75 58/36/71 54/35/67
f 58/36/71 64/42/77 47/43/60
f 47/43/60 64/42/77 65/44/78
f 65/44/78 64/42/77 63/41/76
f 66/42/79 59/36/72 47/43/60
f 66/42/79 68/40/81 59/36/72
f 59/36/72 68/40/81 60/35/73
f 67/41/80 68/40/81 66/42/79
f 65/44/78 63/41/76 67/41/80
f 57/34/70 55/33/68 69/45/82
f 51/33/64 69/45/82 55/33/68
f 69/45/82 51/33/64 52/34/65
f 52/34/65 57/34/70 69/45/82
f 70/46/83 63/41/76 62/40/75
f 71/46/84 68/40/81 67/41/80
f 70/46/83 71/46/84 63/41/76
f 63/41/76 71/46/84 67/41/80
f 72/47/85 73/48/86 74/49/87
f 74/49/87 73/48/86 75/50/88
f 75/50/88 73/48/86 76/51/89
f 77/52/90 75/50/88 78/53/91
f 78/53/91 75/50/88 79/54/92
f 79/54/92 75/50/88 76/51/89
f 76/51/89 80/55/93 79/54/92
f 79/54/92 80/55/93 78/53/91
f 76/51/89 73/48/86 80/55/93
f 81/56/94 80/55/93 72/47/85
f 73/48/86 72/47/85 80/55/93
f 72/47/85 74/49/87 82/57/95
f 82/57/95 74/49/87 83/58/96
f 84/59/97 83/58/96 74/49/87
f 77/52/90 84/59/97 75/50/88
f 74/49/87 75/50/88 84/59/97
f 84/59/97 77/52/90 78/60/91
f 78/60/91 80/61/93 84/59/97
f 84/59/97 80/61/93 81/62/94
f 81/62/94 83/58/96 84/59/97
v 0.246325 0.326846 -0.0386079
vt 0.511577 0.364
vn 0.8304483 0.5237802 -0.1897631
v 0.300057 0.244333 0.126829
vt 0.240373 0
vn 0.8797198 0.4754709 -0.00452538
v 0.287057 0.211774 -0.0386079
vt 0.511577 0
vn 0.9267129 0.328031 -0.1833
v 0.188528 0.437836 0.114559
vt 0.106808 0.596
vn 0.6102349 0.7906018 -0.05061849
v 0.250789 0.208622 -0.18883
vt 0.782781 0
vn 0.7992979 0.419609 -0.4301759
v 0.146813 0.414759 -0.0552073
vt 0.519543 0.768271
vn 0.4130329 0.8723739 -0.261472
v 0.169934 0.342454 -0.195732
vt 0.915353 0.4045
vn 0.5539051 0.6675292 -0.4975881
v 0.23534 0.333401 0.290264
vt -0.0308315 0
vn 0.800153 0.578927 0.15684
v 0.105025 0.24204 -0.34536
vt 1.05398 0
vn 0.3518091 0.6251881 -0.6966851
v 0 0.477547 0.0801249
vt 0.107431 0.798649
vn 0 0.99451 -0.104642
v 0 0.434621 -0.134541
vn 0 0.9237725 -0.3829418
v -0.146813 0.414759 -0.0552073
vn -0.4130329 0.8723739 -0.261472
v 0.125367 0.466279 0.268099
vn 0.2909491 0.9460573 0.142563
v -0.188528 0.437836 0.114559
vn -0.6102349 0.7906018 -0.05061849
v -0.125367 0.466279 0.268099
vn -0.2909491 0.9460573 0.142563
v 0 0.336547 -0.278274
vt 1 0.702666
vn 0 0.7588599 -0.6512539
v -0.169934 0.342454 -0.195732
vt 0.592005 0.595269
vn -0.5539051 0.6675292 -0.4975881
vt 1 0.331108
v -0.105025 0.24204 -0.34536
vt 0.747845 1
vn -0.3518091 0.6251881 -0.6966851
vt 1.40799 0.595269
vt 1.25215 1
v -0.246325 0.326846 -0.0386079
vt 0.0168871 0.363823
vn -0.8304483 0.5237802 -0.1897631
v -0.300057 0.244333 0.126829
vt 0.0162292 0
vn -0.8797198 0.4754709 -0.00452534
vt 0.014001 0.596
v -0.287057 0.211774 -0.0386079
vt 0.0194445 0
vn -0.9267129 0.328031 -0.1833
v -0.250789 0.208622 -0.18883
vt 0.0231435 0
vn -0.7992979 0.419609 -0.4301759
vt 0.0235662 0.404731
v -0.23534 0.333401 0.290264
vt 0.00941026 0
vn -0.800153 0.578927 0.15684
vt 0.00711197 0.363823
vt 0.0259253 0
v -0.081703 0.443347 0.421396
vt 0.00633484 0
vn -0.125165 0.9753811 0.181564
vt 0.688377 0.636177
vt 1.31162 0.636177
vt 1 0.19443
v 0.081703 0.443347 0.421396
vt 1.20309 0.99988
vn 0.125165 0.9753811 0.181564
vt 0.796913 0.99988
vt 0.0957589 0.788256
vt 0.010948 0
vt 0.91989 0.730805
vn 0 -0.766295 0.642489
vn 0 -0.8780729 0.4785269
vn 0 -0.9811795 0.1930981
vn 0 -0.9997799 0.0209805
vn 0 -0.9779603 -0.2087911
vt 0.101128 0.787997
o merged_2_0_node
g polygon_0
usemtl mat_koura2_mat_id
f 85/63/98 86/64/99 87/65/100
f 85/63/98 88/66/101 86/64/99
f 85/63/98 87/65/100 89/67/102
f 85/63/98 90/68/103 88/66/101
f 85/63/98 89/67/102 91/69/104
f 85/63/98 91/69/104 90/68/103
f 86/64/99 88/66/101 92/70/105
f 89/67/102 93/71/106 91/69/104
f 94/72/107 90/72/103 95/72/108
f 94/72/107 88/72/101 90/72/103
f 94/72/107 95/72/108 96/72/109
f 94/72/107 97/72/110 88/72/101
f 94/72/107 96/72/109 98/72/111
f 94/72/107 98/72/111 99/72/112
f 100/73/113 101/74/114 95/75/108
f 100/73/113 102/76/115 101/74/114
f 100/73/113 95/75/108 91/77/104
f 100/73/113 93/78/106 102/76/115
f 100/73/113 91/77/104 93/78/106
f 103/79/116 104/80/117 98/81/111
f 103/79/116 105/82/118 104/80/117
f 103/79/116 106/83/119 105/82/118
f 103/79/116 101/84/114 106/83/119
f 98/81/111 104/80/117 107/85/120
f 98/81/111 107/85/120 99/86/112
f 101/84/114 102/87/115 106/83/119
f 107/85/120 108/88/121 99/86/112
f 99/89/112 97/90/110 94/91/107
f 99/89/112 109/92/122 97/90/110
f 99/89/112 108/93/121 109/92/122
f 96/94/109 103/94/116 98/94/111
f 96/94/109 101/94/114 103/94/116
f 96/94/109 95/94/108 101/94/114
f 97/86/110 92/95/105 88/81/101
f 97/86/110 109/88/122 92/95/105
f 109/96/123 107/96/123 92/96/123
f 109/96/123 108/96/123 107/96/123
f 92/96/124 104/96/124 86/96/124
f 92/96/124 107/96/124 104/96/124
f 86/96/125 105/96/125 87/96/125
f 86/96/125 104/96/125 105/96/125
f 87/96/126 106/96/126 89/96/126
f 87/96/126 105/96/126 106/96/126
f 89/96/127 102/96/127 93/96/127
f 89/96/127 106/96/127 102/96/127
f 90/97/103 91/97/104 95/97/108
v 0.327121 0.432546 -0.159291
vt 0.587091 0.108851
vn -0.0142141 -0.9937997 0.110273
v 0.202324 0.534887 -0.174916
vt 0.594767 0.298986
vn -0.9916669 -0.09618258 0.08570779
v 0.291233 0.444994 -0.302348
vt 0.969815 0.293064
vn 0.07679201 -0.674894 -0.7339081
v 0.230942 0.539039 -0.335682
vt 1.00693 0.595383
vn -0.643061 0.0229185 -0.765472
v 0.429387 0.519848 -0.170051
vt 0.509201 0.654175
vn 0.9869431 0.133804 -0.08966471
v 0.323105 0.479503 0.00337472
vt 0.120718 0.0547707
vn 0.1111929 -0.5214537 0.8460036
v 0.262836 0.59288 0.0229487
vt 0.00246775 0.357797
vn -0.6053846 0.2220959 0.7643185
v 0.286677 0.60367 -0.264179
vt 0.74609 0.849789
vn 0.1925559 0.8034768 -0.5633359
v 0.312413 0.645867 -0.0897672
vt 0.241248 0.815671
vn 0.2471109 0.9464868 0.2076029
v 0.229945 0.584038 -0.0946423
vt 0.462936 0.646693
vn 0.8237999 -0.5659099 0.0331625
v -0.0353248 0.537688 -0.310285
vt 0.841146 0.196294
vn -0.2482011 -0.8325023 -0.4953142
v 0.160495 0.63052 -0.400858
vt 1 0.655053
vn 0.5630398 -0.04468789 -0.8252207
v 0.153013 0.791116 -0.137929
vt 0.538856 0.991135
vn 0.4750308 0.8720406 -0.1178599
v -0.117137 0.50774 -0.0593414
vt 0.401023 0.0236639
vn -0.5942331 -0.7895661 0.153207
v -0.0130717 0.585162 0.161219
vt 0.0141885 0.327975
vn -0.2277921 -0.6374522 0.7360472
v 0.167549 0.674983 0.169309
vt 0 0.760161
vn 0.6407239 0.168785 0.7489889
v -0.0973548 0.741672 -0.285273
vt 0.797279 0.553764
vn -0.6431193 0.6283174 -0.4377383
v -0.0540795 0.78128 0.0465586
vt 0.215288 0.696278
vn -0.5445281 0.7661371 0.341355
o merged_3_0_node
g polygon_0
usemtl mat_tree_mat_id
f 110/98/128 111/99/129 112/100/130
f 112/100/130 111/99/129 113/101/131
f 110/98/128 112/100/130 114/102/132
f 114/102/132 115/103/133 110/98/128
f 116/104/134 111/99/129 115/103/133
f 115/103/133 111/99/129 110/98/128
f 117/105/135 118/106/136 114/102/132
f 118/106/136 117/105/135 111/99/129
f 115/103/133 118/106/136 116/104/134
f 118/106/136 115/103/133 114/102/132
f 116/104/134 118/106/136 111/99/129
f 113/101/131 117/105/135 112/100/130
f 117/105/135 113/101/131 111/99/129
f 117/105/135 114/102/132 112/100/130
f 119/107/137 120/108/138 121/109/139
f 119/107/137 121/109/139 122/110/140
f 119/107/137 123/111/141 120/108/138
f 124/112/142 119/107/137 125/113/143
f 123/111/141 119/107/137 124/112/142
f 119/107/137 122/110/140 125/113/143
f 126/114/144 123/111/141 127/115/145
f 127/115/145 122/110/140 126/114/144
f 124/112/142 125/113/143 127/115/145
f 127/115/145 123/111/141 124/112/142
f 125/113/143 122/110/140 127/115/145
f 121/109/139 120/108/138 126/114/144
f 126/114/144 122/110/140 121/109/139
f 126/114/144 120/108/138 123/111/141
v -0.129598 0.348996 -0.171679
vt 0.499061 -0.0825354
vn 0.5926172 0.8054723 -0.004379542
v -0.13129 0.302597 -0.254624
vt 1.03287 -0.0825355
vn 0.00218564 0.145568 -0.9893458
v -0.24582 0.434158 -0.23552
vt 0.5 0.98925
vn -0.5666467 0.7239677 -0.3934238
v -0.18907 0.298325 -0.179266
vn -0.874869 -0.444857 -0.191589
v -0.187378 0.344724 -0.0963209
vt 0.014932 -0.0825353
vn -0.5613292 0.5688152 0.6011313
v -0.146295 0.386722 0.204991
vn 0.58628 0.7935649 -0.162882
v -0.193596 0.35791 0.127738
vn -0.477266 0.34123 -0.809802
v -0.269999 0.482254 0.225162
vn -0.6142039 0.7847288 0.08339268
v -0.206214 0.338243 0.219877
vn -0.8922207 -0.4026839 0.2044209
v -0.158913 0.367055 0.29713
vn -0.128806 0.43311 0.8920901
v -0.14836 0.396806 0.0245132
vn 0.610874 0.790854 -0.0371886
v -0.178912 0.35103 -0.0894927
vn -0.220635 0.281891 -0.9337332
v -0.313403 0.522861 -0.0058385
vn -0.6094407 0.7786437 -0.1493189
v -0.230686 0.33237 0.0245132
vn -0.9144423 -0.4030041 -0.03718871
v -0.200134 0.378145 0.138519
vn -0.3807372 0.4864442 0.7863913
v -0.380999 0.169595 0.344327
vt 0.526296 0.906804
vn -0.9985966 0.0003403779 -0.05295958
vt 0.0543321 0.551768
vn -0.4264568 -0.01830449 -0.9043227
vt 0.512436 0.55876
vn -0.3344421 -0.9411143 -0.04952202
v 0.380999 0.169595 0.344327
vn 0.9985966 0.0003402659 -0.05295958
vn 0.4264568 -0.01830449 -0.9043227
vt 0.531499 0.570671
vn 0.3584771 0.9329154 0.03410431
vt 0.945668 0.552927
vn 0.3882299 -0.06747849 0.9190888
vn 0.3344418 -0.9411144 -0.04952196
vn -0.3882299 -0.06747839 0.9190888
vn -0.3584771 0.9329154 0.03410431
o merged_4_0_node
g polygon_0
usemtl mat_isi_mat_id
f 128/116/146 129/117/147 130/118/148
f 129/117/147 131/116/149 130/118/148
f 131/116/149 132/119/150 130/118/148
f 130/118/148 132/119/150 128/116/146
f 133/116/151 134/119/152 135/118/153
f 134/119/152 136/116/154 135/118/153
f 136/116/154 137/117/155 135/118/153
f 135/118/153 137/117/155 133/116/151
f 138/116/156 139/119/157 140/118/158
f 139/119/157 141/116/159 140/118/158
f 141/116/159 142/117/160 140/118/158
f 140/118/158 142/117/160 138/116/156
f 143/120/161 24/121/162 27/122/163
f 144/120/164 7/121/165 11/123/166
f 144/120/164 11/123/166 20/124/167
f 144/120/164 20/124/167 18/122/168
f 144/120/164 18/122/168 7/121/165
f 143/120/161 27/122/163 30/124/169
f 143/120/161 30/124/169 29/123/170
f 143/120/161 29/123/170 24/121/162
vt 0.196787 0.892688
vt 0.210995 0.766332
vt 0.891277 0.80509
vt 0.898465 0.979407
o merged_5_0_node
g polygon_0
usemtl TEX_ANIM_EYE_mat_id
f 42/125/51 43/126/48 20/127/21
f 20/127/21 12/128/13 42/125/51
f 44/126/53 41/125/55 30/127/32
f 41/125/55 17/128/31 30/127/32
