mtllib Heracross_Normalm.mtl
v 0 0.633837 0.299699
vt 0.691965 0.94469
vn 0 -0.346733 0.9379639
v -0.128499 0.606604 0.233375
vn -0.8714121 -0.164525 0.4621391
v 0 0.664372 0.278633
vn 0 0.177055 -0.984201
v -0.121159 0.817451 0.278774
vn -0.9620282 0.2519081 -0.105091
v 0.128499 0.606604 0.233375
vn 0.8714121 -0.164525 0.4621391
v 0 0.686277 0.311434
vn 0 0.377759 0.925904
v 0.121159 0.817451 0.278774
vn 0.9620276 0.2519099 -0.105092
v -0.109945 0.286365 -0.164405
vt 0.2098 0.644349
vn -0.456258 0.190906 -0.869128
v -0.109945 0.420344 -0.12575
vt 0.216159 0.908923
vn -0.4574759 0.3009549 -0.8367448
v 0 0.428354 -0.153515
vt 0.0127995 0.923981
vn 0 0.349174 -0.9370579
v -0.1777 0.334616 -0.0867908
vt 0.343527 0.747771
vn -0.8476431 0.147077 -0.5097741
v 0 0.294376 -0.19217
vt 0.0127996 0.672126
vn 0 0.2304701 -0.9730794
v -0.1777 0.204185 -0.124422
vt 0.365786 0.505765
vn -0.8012334 -0.1369771 -0.5824623
v -0.0678755 0.180796 -0.194681
vt 0.137077 0.458617
vn -0.3603739 -0.2158419 -0.9074927
v -0.1777 0.468595 -0.0481362
vt 0.343527 0.999626
vn -0.8020539 0.423691 -0.420946
v 0.109945 0.286365 -0.164405
vn 0.456258 0.190906 -0.869128
v 0.109945 0.420344 -0.12575
vn 0.4574759 0.3009549 -0.8367448
v -0.109825 0.0882098 -0.11863
vt 0.294355 0.24372
vn -0.4966089 -0.6761318 -0.5442659
v 0 0.180796 -0.204559
vt 0.0127995 0.458617
vn 0 -0.2199659 -0.9755076
v 0 0.0750342 -0.141227
vt 0.0127995 0.28039
vn 0 -0.722498 -0.691373
v -0.210037 0.376009 0.0279151
vt 0.493051 0.889683
vn -0.9972478 0.07123519 0.0205524
v -0.210037 0.242031 -0.0107395
vt 0.493051 0.65082
vn -0.9971886 -0.07199647 -0.02077209
v 0.1777 0.334616 -0.0867908
vn 0.8476431 0.147077 -0.5097741
v 0.1777 0.468595 -0.0481362
vn 0.8020539 0.423691 -0.420946
v 0.0678755 0.180796 -0.194681
vn 0.3603739 -0.2158419 -0.9074927
v -0.177894 0.136394 -0.041217
vt 0.493051 0.418106
vn -0.8645719 -0.482816 -0.139299
v -0.1777 0.279875 0.102943
vt 0.652579 0.763582
vn -0.8476431 -0.147077 0.5097741
v -0.1777 0.413854 0.141598
vt 0.667994 0.973804
vn -0.7938358 0.142567 0.5911848
v 0.210037 0.376009 0.0279151
vn 0.9972478 0.07123519 0.0205524
v 0.1777 0.204185 -0.124422
vn 0.8012338 -0.136977 -0.5824619
v 0.109825 0.0882098 -0.11863
vn 0.4966089 -0.6761318 -0.5442659
v -0.1777 0.149445 0.0653118
vt 0.660324 0.526182
vn -0.8012338 -0.4261949 0.4199789
v -0.109825 0.0543782 -0.00136828
vt 0.756571 0.306817
vn -0.4809428 -0.8720746 0.09044275
vt 0.68293 0.152734
v -0.109945 0.331674 0.181581
vt 0.798034 0.88002
vn -0.5824011 -0.189129 0.7905942
v 0.210037 0.242031 -0.0107395
vn 0.9971886 -0.07199647 -0.02077209
v 0.1777 0.279875 0.102943
vn 0.8476431 -0.147077 0.5097741
v 0.1777 0.413854 0.141598
vn 0.7938358 0.142567 0.5911848
v 0.177894 0.136394 -0.041217
vn 0.8645719 -0.482816 -0.139299
v 0 0.0402247 -0.0689632
vt 0.992352 0.178576
vn 0 -0.9761416 -0.2171349
vt 0.992352 0.0347611
v -0.109945 0.197696 0.142926
vt 0.798034 0.636164
vn -0.4723891 -0.3176651 0.8221542
v -0.0678755 0.0922233 0.112314
vt 0.871433 0.437823
vn -0.2822471 -0.6712401 0.6854001
v 0.109945 0.331674 0.181581
vn 0.5824659 -0.189102 0.7905529
v 0.1777 0.149445 0.0653118
vn 0.8012338 -0.4261949 0.4199789
v 0 0.0437071 0.0349175
vt 0.992352 0.318306
vn 0 -0.958505 0.285076
v -0.0550072 0.318 0.2035
vt 0.898089 0.854223
vn -0.1898791 -0.2819721 0.9404455
v 0 0.189685 0.170691
vt 0.992352 0.621584
vn -8.091918E-06 -0.3764309 0.9264447
v 0.109945 0.197696 0.142926
vn 0.472392 -0.317679 0.8221471
v 0.0550367 0.318 0.2035
vn 0.189928 -0.2819901 0.9404302
v 0.109825 0.0543782 -0.00136828
vn 0.4809428 -0.8720747 0.09044266
v 0.0678755 0.0922233 0.112314
vn 0.2822471 -0.6712401 0.6854001
v 0.0678755 0.525816 -0.0951384
vt 0.944155 0.943382
vn 0.2822471 0.6712401 -0.6854001
v -0.0678755 0.525816 -0.0951384
vn -0.2822471 0.6712401 -0.6854001
v 0.109825 0.563661 0.018544
vn 0.4809441 0.8720741 -0.09044101
v 0 0.574332 -0.0177418
vn 0 0.9585046 -0.2850769
v 0.177894 0.481645 0.0583926
vn 0.8645719 0.482816 0.139299
v -0.109825 0.563661 0.018544
vn -0.4809441 0.8720741 -0.09044101
v 0 0.577815 0.0861388
vn 0 0.9701784 0.2423921
v 0.109825 0.529829 0.135806
vn 0.505632 0.685655 0.523654
v -0.177894 0.481645 0.0583926
vn -0.8645719 0.482816 0.139299
v 0.091878 0.369472 0.191147
vn 0.419484 0.180379 0.889661
v -0.109825 0.529829 0.135806
vn -0.505632 0.685655 0.523654
v 0.0549724 0.356214 0.217585
vn 0.200505 -0.08864491 0.975674
v -0.0918781 0.369472 0.191147
vn -0.419484 0.180379 0.889661
v -0.0549724 0.356214 0.217585
vn -0.2005621 -0.08863313 0.9756634
v 0 0.53821 0.269289
vn 0 -0.3630629 0.9317647
v -0.0575927 0.487738 0.178308
vn -0.5849767 0.2469319 0.7725457
v 0 0.415936 0.213006
vn 0 0.01785339 0.9998406
v -0.0310314 0.567604 0.247019
vn -0.9561651 0.193524 0.219765
v 0.0575927 0.487738 0.178308
vn 0.5849767 0.2469319 0.7725457
v 0 0.670855 0.299498
vn 0 0.5183049 0.8551959
v 0.0310314 0.567604 0.247019
vn 0.9561651 0.193524 0.219765
v 0 0.535926 0.15392
vn 0 0.9622452 0.2721841
v 0 0.588456 0.232158
vn 0 0.7288793 -0.6846423
v 0.272418 0.108574 -0.0418857
vt 0.607699 0.027042
vn 0.9990753 -0.04299441 0
v 0.2 0.108574 -0.114303
vn 0 -0.04299441 -0.9990753
v 0.2 0.180991 -0.0418857
vt 0.425757 0.027042
vn 0 1 0
v 0.2 0 -0.0418857
vt 0.880479 0.0270419
vn 0 -1 0
v 0.2 0.108574 0.0305318
vn 0 -0.04299441 0.9990753
v 0.127582 0.108574 -0.0418857
vn -0.9990753 -0.04299441 0
v -0.127582 0.108574 -0.0418857
v -0.2 0.108574 -0.114303
v -0.2 0.180991 -0.0418857
v -0.2 0 -0.0418857
v -0.2 0.108574 0.0305318
v -0.272418 0.108574 -0.0418857
v 0.197738 0.52142 0.188418
vn 0.7711949 -0.450389 -0.449898
v 0.16941 0.563924 0.178955
vn 0 0.7067217 -0.7074917
v 0.192794 0.558006 0.224964
vn 0.6365991 0.5456141 0.54502
v 0.146025 0.517922 0.184923
vn -0.6366001 -0.5456141 -0.545019
v 0.16941 0.512004 0.230932
vn 0 -0.7067222 0.7074912
v 0.141081 0.554508 0.22147
vn -0.7711949 0.450389 0.449898
v -0.197738 0.52142 0.188417
vn -0.7711953 -0.4503882 -0.4498982
v -0.192794 0.558006 0.224964
vn -0.6366038 0.5456148 0.5450138
v -0.16941 0.563924 0.178955
v -0.16941 0.512004 0.230932
v -0.146025 0.517922 0.184923
vn 0.6272592 -0.5510022 -0.5504022
v -0.141081 0.554508 0.22147
vn 0.7711953 0.4503882 0.4498982
v 0.209542 0.380478 0.0322372
vt 0.474739 0.0142073
vn 0.0214829 0.956442 0.291131
v 0.251729 0.325549 -0.0482653
vn 0.5831029 0.2252019 -0.7805608
v 0.120581 0.325076 -0.0466257
vt 0.356958 0.0142075
vn -0.8272668 0.155738 -0.5397919
v 0.342919 0.28322 0.0984494
vt 0.903139 0.014207
vn 0.827267 -0.155737 0.539792
v 0.167355 0.291108 0.0711077
vn -0.540137 -0.233291 0.808596
v 0.209542 0.23618 -0.00939477
vn 0.02148289 -0.9645305 -0.2630959
v -0.209542 0.380478 0.0322372
vn -0.0214828 0.956442 0.291131
v -0.120581 0.325076 -0.0466258
vn 0.8272661 0.155738 -0.5397931
v -0.25173 0.325549 -0.0482653
vn -0.5831029 0.2252019 -0.7805608
v -0.167355 0.291108 0.0711077
vn 0.540137 -0.233291 0.808596
v -0.342918 0.28322 0.0984495
vn -0.8272661 -0.155738 0.5397931
v -0.209542 0.23618 -0.00939476
vn -0.02148301 -0.9645304 -0.2630961
vt 0.46181 0.327148
vt 0.664443 0.130047
vt 0.517517 0.0739006
v 0 0.36162 0.225198
vt 0.35961 0.122208
vn 0 0.219013 0.975722
vn 0 -0.8152779 0.5790699
vt 0.103254 0.0370232
vt 0.342589 0.228003
vt 0.00774312 0.187427
vt 0.316237 0.0227305
v 0.115066 0.491387 0.158418
v 0.15446 0.542113 0.191308
vn -0.5058529 0.7102608 -0.4895329
v 0.171263 0.523409 0.190405
v 0.15446 0.524332 0.209107
vn -0.5058532 -0.4887592 0.7107933
v -0.115066 0.491387 0.158418
v -0.15446 0.542113 0.191308
vn -0.505852 -0.71026 0.489535
v -0.171263 0.523409 0.190405
v -0.15446 0.524332 0.209107
vn -0.5058527 0.4887577 -0.7107946
vt 0.945297 0.957525
vn 0.08771238 -0.3443889 0.9347208
vn -0.08764303 -0.3444511 0.9347043
o merged_0_0_node
g polygon_0
usemtl HERAKUROSU_01_mat_id
f 1/1/1 2/1/2 3/1/3
f 1/1/1 4/1/4 2/1/2
f 1/1/1 3/1/3 5/1/5
f 1/1/1 6/1/6 4/1/4
f 1/1/1 5/1/5 7/1/7
f 1/1/1 7/1/7 6/1/6
f 3/1/3 2/1/2 4/1/4
f 3/1/3 7/1/7 5/1/5
f 3/1/3 6/1/6 7/1/7
f 3/1/3 4/1/4 6/1/6
f 8/2/8 9/3/9 10/4/10
f 8/2/8 11/5/11 9/3/9
f 8/2/8 10/4/10 12/6/12
f 8/2/8 13/7/13 11/5/11
f 8/2/8 12/6/12 14/8/14
f 8/2/8 14/8/14 13/7/13
f 9/3/9 11/5/11 15/9/15
f 10/4/10 16/2/16 12/6/12
f 10/4/10 17/3/17 16/2/16
f 14/8/14 18/10/18 13/7/13
f 14/8/14 12/6/12 19/11/19
f 14/8/14 20/12/20 18/10/18
f 14/8/14 19/11/19 20/12/20
f 11/5/11 21/13/21 15/9/15
f 11/5/11 13/7/13 22/14/22
f 11/5/11 22/14/22 21/13/21
f 17/3/17 23/5/23 16/2/16
f 17/3/17 24/9/24 23/5/23
f 12/6/12 25/8/25 19/11/19
f 12/6/12 16/2/16 25/8/25
f 19/11/19 25/8/25 20/12/20
f 18/10/18 26/15/26 13/7/13
f 13/7/13 26/15/26 22/14/22
f 21/13/21 22/14/22 27/16/27
f 21/13/21 27/16/27 28/17/28
f 24/9/24 29/13/29 23/5/23
f 16/2/16 30/7/30 25/8/25
f 16/2/16 23/5/23 30/7/30
f 20/12/20 25/8/25 31/10/31
f 25/8/25 30/7/30 31/10/31
f 26/15/26 32/18/32 22/14/22
f 26/15/26 33/19/33 32/18/32
f 26/15/26 18/20/18 33/19/33
f 22/14/22 32/18/32 27/16/27
f 28/17/28 27/16/27 34/21/34
f 29/13/29 35/14/35 23/5/23
f 29/13/29 36/16/36 35/14/35
f 29/13/29 37/17/37 36/16/36
f 23/5/23 35/14/35 30/7/30
f 31/10/31 30/7/30 38/15/38
f 30/7/30 35/14/35 38/15/38
f 18/20/18 39/22/39 33/19/33
f 18/20/18 20/23/20 39/22/39
f 32/18/32 40/24/40 27/16/27
f 32/18/32 33/19/33 41/25/41
f 32/18/32 41/25/41 40/24/40
f 27/16/27 40/24/40 34/21/34
f 37/17/37 42/21/42 36/16/36
f 35/14/35 43/18/43 38/15/38
f 35/14/35 36/16/36 43/18/43
f 20/23/20 31/20/31 39/22/39
f 33/19/33 44/26/44 41/25/41
f 33/19/33 39/22/39 44/26/44
f 40/24/40 45/27/45 34/21/34
f 40/24/40 41/25/41 46/28/46
f 40/24/40 46/28/46 45/27/45
f 42/21/42 47/24/47 36/16/36
f 42/21/42 48/27/48 47/24/47
f 48/27/48 45/27/45 46/28/46
f 48/27/48 46/28/46 47/24/47
f 36/16/36 47/24/47 43/18/43
f 38/15/38 49/19/49 31/20/31
f 38/15/38 43/18/43 49/19/49
f 39/22/39 49/19/49 44/26/44
f 39/22/39 31/20/31 49/19/49
f 41/25/41 50/25/50 46/28/46
f 41/25/41 44/26/44 50/25/50
f 50/25/50 47/24/47 46/28/46
f 50/25/50 49/19/49 43/18/43
f 50/25/50 44/26/44 49/19/49
f 50/25/50 43/18/43 47/24/47
f 51/29/51 17/29/17 10/29/10
f 51/29/51 24/29/24 17/29/17
f 51/29/51 10/29/10 52/29/52
f 51/29/51 53/29/53 24/29/24
f 51/29/51 52/29/52 54/29/54
f 51/29/51 54/29/54 53/29/53
f 10/29/10 9/29/9 52/29/52
f 24/29/24 53/29/53 55/29/55
f 24/29/24 55/29/55 29/29/29
f 54/29/54 52/29/52 56/29/56
f 54/29/54 57/29/57 53/29/53
f 54/29/54 56/29/56 57/29/57
f 9/29/9 15/29/15 52/29/52
f 52/29/52 15/29/15 56/29/56
f 55/29/55 37/29/37 29/29/29
f 55/29/55 53/29/53 58/29/58
f 55/29/55 58/29/58 37/29/37
f 58/29/58 53/29/53 57/29/57
f 15/29/15 59/29/59 56/29/56
f 15/29/15 21/29/21 59/29/59
f 37/29/37 60/29/60 42/29/42
f 57/29/57 56/29/56 61/29/61
f 56/29/56 59/29/59 61/29/61
f 21/29/21 28/29/28 59/29/59
f 59/29/59 28/29/28 61/29/61
f 60/29/60 62/29/62 42/29/42
f 28/29/28 34/29/34 63/29/63
f 34/29/34 64/29/64 63/29/63
f 65/29/65 66/29/66 67/29/67
f 65/29/65 68/29/68 66/29/66
f 65/29/65 67/29/67 69/29/69
f 65/29/65 70/29/70 68/29/68
f 65/29/65 69/29/69 71/29/71
f 65/29/65 71/29/71 70/29/70
f 66/29/66 68/29/68 72/29/72
f 69/29/69 72/29/72 71/29/71
f 70/29/70 73/29/73 68/29/68
f 70/29/70 71/29/71 73/29/73
f 73/29/73 71/29/71 72/29/72
f 73/29/73 72/29/72 68/29/68
f 74/30/74 75/30/75 76/31/76
f 74/30/74 77/32/77 75/30/75
f 74/30/74 76/31/76 78/30/78
f 74/30/74 78/30/78 77/32/77
f 75/30/75 79/30/79 76/31/76
f 75/30/75 77/32/77 79/30/79
f 79/30/79 78/30/78 76/31/76
f 79/30/79 77/32/77 78/30/78
f 80/30/74 81/30/75 82/31/76
f 80/30/74 83/32/77 81/30/75
f 80/30/74 82/31/76 84/30/78
f 80/30/74 84/30/78 83/32/77
f 81/30/75 85/30/79 82/31/76
f 81/30/75 83/32/77 85/30/79
f 85/30/79 84/30/78 82/31/76
f 85/30/79 83/32/77 84/30/78
f 86/1/80 87/1/81 88/1/82
f 86/1/80 89/1/83 87/1/81
f 86/1/80 88/1/82 90/1/84
f 86/1/80 90/1/84 89/1/83
f 87/1/81 91/1/85 88/1/82
f 87/1/81 89/1/83 91/1/85
f 91/1/85 90/1/84 88/1/82
f 91/1/85 89/1/83 90/1/84
f 92/1/86 93/1/87 94/1/81
f 92/1/86 95/1/84 93/1/87
f 92/1/86 94/1/81 96/1/88
f 92/1/86 96/1/88 95/1/84
f 93/1/87 97/1/89 94/1/81
f 93/1/87 95/1/84 97/1/89
f 97/1/89 96/1/88 94/1/81
f 97/1/89 95/1/84 96/1/88
f 98/33/90 99/33/91 100/34/92
f 98/33/90 101/35/93 99/33/91
f 98/33/90 100/34/92 102/33/94
f 98/33/90 102/33/94 101/35/93
f 99/33/91 103/33/95 100/34/92
f 99/33/91 101/35/93 103/33/95
f 103/33/95 102/33/94 100/34/92
f 103/33/95 101/35/93 102/33/94
f 104/33/96 105/34/97 106/33/98
f 104/33/96 107/33/99 105/34/97
f 104/33/96 106/33/98 108/35/100
f 104/33/96 108/35/100 107/33/99
f 105/34/97 109/33/101 106/33/98
f 105/34/97 107/33/99 109/33/101
f 109/33/101 108/35/100 106/33/98
f 109/33/101 107/33/99 108/35/100
f 67/36/67 63/37/63 64/38/64
f 67/36/67 64/38/64 110/39/102
f 67/36/67 110/39/102 62/38/62
f 67/36/67 62/38/62 60/37/60
f 64/38/64 62/38/62 110/39/103
f 72/40/72 58/41/58 57/42/57
f 72/40/72 69/43/69 58/41/58
f 72/40/72 57/42/57 61/41/61
f 72/40/72 61/41/61 66/43/66
f 111/1/83 112/1/104 113/1/88
f 111/1/83 114/1/105 112/1/104
f 111/1/83 113/1/88 114/1/105
f 115/1/87 116/1/106 117/1/82
f 115/1/87 118/1/107 116/1/106
f 115/1/87 117/1/82 118/1/107
f 48/44/108 42/44/42 62/44/62
f 48/44/108 62/44/62 64/44/64
f 48/44/108 64/44/64 45/44/109
f 64/44/64 34/44/34 45/44/109
vt -0.983955 0.807489
vt -0.645524 0.911719
vt -0.458563 0.765849
vt -0.0106286 0.837472
vt -0.376498 0.991281
o merged_1_0_node
g polygon_0
usemtl TEX_ANIM_EYE_mat_id
f 67/45/67 66/46/66 63/47/63
f 28/48/28 66/46/66 61/49/61
f 37/48/37 58/49/58 69/46/69
f 69/46/69 60/47/60 37/48/37
f 60/47/60 69/46/69 67/45/67
f 28/48/28 63/47/63 66/46/66
