mtllib Golurk.mtl
v -0.00960433 0.338509 0.00109947
vt 0.0214126 0.978299
vn 0 -1 -1.20761E-05
v -0.00960432 0.338142 0.168072
vt 0.0214126 0.972704
vn 0 -0.9849189 -0.173017
v -0.163146 0.338141 0.151519
vt 0.0162674 0.973259
vn 0.118124 -0.9821708 -0.146244
v 0.143937 0.338141 0.151519
vt 0.0265579 0.973259
vn -0.118124 -0.9821708 -0.146244
v -0.216549 0.338141 0.00121804
vt 0.0144778 0.978295
vn 0.179617 -0.9836557 0.0126203
v 0.19734 0.338141 0.00121804
vt 0.0283474 0.978295
vn -0.179617 -0.9836557 0.0126203
v -0.143417 0.338141 -0.144406
vt 0.0169285 0.983175
vn 0.110855 -0.9816976 0.1548579
v 0.124208 0.338141 -0.144406
vt 0.0258967 0.983175
vn -0.110855 -0.9816976 0.1548579
v -0.00960433 0.33814 -0.148338
vt 0.0214126 0.983307
vn 0 -0.9853466 0.1705639
v -0.00960432 0.315369 0.245522
vt 0.0214126 0.970109
vn 0 -0.319002 0.947754
v -0.191218 0.31474 -0.193875
vt 0.0153266 0.984833
vn -0.6246873 -0.2404711 -0.7429263
v -0.293447 0.315427 0.00109552
vt 0.0119009 0.978299
vn -0.9812884 -0.1901661 -0.03016611
v 0.172009 0.31474 -0.193875
vt 0.0274985 0.984833
vn 0.6246868 -0.2404709 -0.7429268
v 0.274238 0.315427 0.00109552
vt 0.0309243 0.978299
vn 0.9812884 -0.1901661 -0.03016611
v -0.00960433 0.314273 -0.243734
vt 0.0214126 0.986504
vn 0 -0.2942879 -0.9557168
v -0.210909 0.31474 0.203849
vt 0.0146668 0.971505
vn -0.6592153 -0.2014071 0.7244794
v 0.191701 0.31474 0.203849
vt 0.0281584 0.971505
vn 0.6592152 -0.2014081 0.7244793
v -0.00960434 0.612779 -0.276093
vt 0.681544 0.317747
vn 0 -0.0393614 -0.999225
v 0.192473 0.748655 -0.189332
vt 0.880676 0.426037
vn 0.5816962 0.4125261 -0.7010362
v 0.230021 0.612778 -0.213986
vt 0.917677 0.317747
vn 0.6708372 -0.04586162 -0.7401853
v -0.00960433 0.748655 -0.243411
vt 0.681544 0.426037
vn 0 0.3887939 -0.9213248
v 0.176051 0.471699 -0.178078
vt 0.864494 0.205311
vn 0.5906792 -0.3901101 -0.7063372
v -0.211682 0.748655 -0.189332
vt 0.482411 0.426037
vn -0.5816962 0.4125261 -0.7010362
v -0.00960433 0.471269 -0.234289
vt 0.681544 0.204968
vn 0 -0.341315 -0.939949
v -0.24923 0.612778 -0.213986
vt 0.44541 0.317747
vn -0.6708372 -0.04586152 -0.7401853
v -0.19526 0.471699 -0.178078
vt 0.498594 0.205311
vn -0.5906792 -0.3901101 -0.7063372
v 0.27411 0.748719 0.00185139
vt 0.961123 0.426088
vn 0.9070937 0.4207878 -0.0108945
v 0.25989 0.472392 1.30139E-05
vt 0.94711 0.205863
vn 0.9106987 -0.4129458 -0.0101845
v -0.293319 0.748719 0.00185139
vt 0.432087 0.426088
vn -0.9070941 0.420787 -0.0108944
v -0.279099 0.472392 1.30139E-05
vt 0.4461 0.205863
vn -0.9106987 -0.4129458 -0.0101843
v 0.318716 0.612904 1.84171E-05
vt 1.00508 0.317848
vn 0.9986131 -0.05195381 -0.008524251
v -0.337925 0.612904 1.84171E-05
vt 0.388131 0.317848
vn -0.9986131 -0.05195391 -0.008524121
v -0.00960436 0.815582 0.00148432
vt 0.649734 0.103095
vn 0 0.9999877 0.004968088
v -0.00960433 0.794373 -0.165219
vt 0.649734 0.0861029
vn 0 0.9192377 -0.3937029
v -0.176612 0.794373 -0.165219
vt 0.61672 0.0861029
vn -0.2421901 0.9073172 -0.3436851
v 0.157403 0.794373 -0.165219
vt 0.682748 0.0861029
vn 0.2421898 0.9073174 -0.3436848
v -0.251155 0.794381 0.00386561
vt 0.601985 0.0861044
vn -0.4234008 0.9058927 -0.009491426
v 0.231946 0.794381 0.00386561
vt 0.697484 0.0861044
vn 0.4234008 0.9058927 -0.009491516
v -0.189767 0.794375 0.116631
vt 0.61412 0.0861032
vn -0.2732792 0.9080195 0.3175202
v 0.170558 0.794375 0.116631
vt 0.685349 0.0861032
vn 0.2732792 0.9080195 0.3175202
v -0.00960435 0.79438 0.184677
vn 0 0.9098949 0.4148389
v -0.24923 0.612779 0.226963
vt 0.422845 0.597504
vn -0.653601 -0.00643679 0.756812
v -0.218752 0.748655 0.168833
vt 0.45128 0.711702
vn -0.5767881 0.4782761 0.6622442
vt 0.305222 0.59761
v -0.00960434 0.748718 0.239482
vt 0.646406 0.711754
vn 0 0.5038779 0.8637749
vt 0.366353 0.479517
v -0.00960434 0.612904 0.287134
vt 0.646406 0.59761
vn 0 0.039543 0.9992179
v -0.200764 0.471699 0.187806
vt 0.468062 0.478935
vn -0.608402 -0.386625 0.693086
vt 0.351576 0.711755
v 0.230022 0.612779 0.226963
vt 0.869967 0.597504
vn 0.653601 -0.00643666 0.756812
v 0.199543 0.748655 0.168833
vt 0.841532 0.711702
vn 0.5767879 0.4782769 0.6622438
v -0.00960433 0.472337 0.242553
vt 0.646406 0.479471
vn 0 -0.336134 0.9418142
vt 0.987591 0.59761
v 0.181555 0.471699 0.187806
vt 0.82475 0.478935
vn 0.608402 -0.386625 0.693086
vt 0.926459 0.479517
vt 0.941237 0.711755
v -0.107295 0.961812 0.185841
vt 0.118347 0.181902
vn -0.4909922 0.1889631 0.8504232
v -0.214591 0.961812 0
vt 0.0133934 0.181902
vn -0.9819842 0.188963 0
v -0.107295 0.790845 0.185841
vt 0.118347 0.0143534
vn -0.1850369 -0.9290025 0.3204929
v -0.138578 1.11435 0
vt 0.0935175 0.311767
vn -0.6653519 0.7465299 0
v 0.107295 0.790845 0.185841
vt 0.288673 0.0143534
vn 0.1850369 -0.9290025 0.3204929
v -0.0692891 1.11435 0.120012
vt 0.148514 0.311767
vn -0.3326759 0.7465298 0.5762118
v 0.107295 0.961812 0.185841
vt 0.288673 0.181902
vn 0.4909922 0.1889631 0.8504232
v -0.214591 0.790845 0
vt 0.0133934 0.0143534
vn -0.3700741 -0.9290023 0
v 0.214591 0.790845 0
vt 0.396559 0.0143534
vn 0.3700738 -0.9290024 0
v 0.069289 1.11435 0.120012
vt 0.258507 0.311767
vn 0.3326759 0.7465298 0.5762118
v 0.214591 0.961812 0
vt 0.396559 0.181902
vn 0.9819842 0.188963 0
v 0.138578 1.11435 0
vt 0.313503 0.311767
vn 0.6653519 0.7465299 0
v 0.482981 0.755397 0.0340869
vt 0.281547 0.850584
vn 0.7342738 0.4271218 0.5276448
v 0.294665 0.8588859 -0.0102556
vt 0.14035 0.982432
vn -0.18479 0.9321942 0.3112341
v 0.370392 0.582301 0.108254
vt 0.149699 0.709387
vn 0.18479 -0.417662 0.8896129
v 0.294665 0.7880599 -0.175554
vn -0.18479 0.417662 -0.8896129
v 0.370392 0.511475 -0.0570442
vn 0.1850371 -0.9290024 -0.3204931
v 0.482981 0.684571 -0.131211
vn 0.734274 -0.0874107 -0.673202
v 0.182076 0.685791 0.0639115
vt 0.00850207 0.841235
vn -0.734274 0.08741081 0.673202
v 0.182076 0.614965 -0.101387
vn -0.734274 -0.427121 -0.5276451
v 0.305965 0.323269 0.005046439
vt 0.920314 0.0545735
vn -0.133019 -0.9909239 0.0193814
v 0.305965 0.407527 0.201691
vn -0.133019 -0.697546 0.7040849
v 0.28104 0.40633 -0.0305431
vt 0.920258 0.144408
vn -0.7338479 -0.112671 -0.6699049
v 0.512199 0.459815 0.179287
vt 0.98776 0.0539271
vn 0.5850727 -0.5154808 0.6260747
v 0.487274 0.458619 -0.0529474
vt 0.987476 0.144519
vn 0.5483282 0.2003651 -0.8119053
v 0.512199 0.375558 -0.0173579
vn 0.5850728 -0.8088588 -0.05862888
v 0.28104 0.490588 0.166102
vn -0.7338482 0.4073101 0.5436592
v 0.487274 0.542876 0.143697
vn 0.5483279 0.7260458 0.4149629
v 0.453099 0.28941 0.219906
vt 0.148598 0.766547
vn 0.201334 -0.413651 0.887895
v 0.5025589 0.369505 0.185587
vt 0.223103 0.844197
vn 0.7299111 0.4423281 0.5211292
v 0.36596 0.334872 0.200426
vt 0.0709488 0.841052
vn -0.729911 0.0722043 0.679718
v 0.5025589 0.337161 0.1101
vn 0.9639996 0.2444129 -0.104724
v 0.36596 0.302528 0.124939
vn -0.9639996 -0.2444129 0.104724
v 0.453099 0.257065 0.144419
vn 0.2659029 -0.8860866 0.3796659
v 0.41542 0.414968 0.166107
vt 0.145454 0.918701
vn -0.201334 0.9281838 0.3129529
v 0.41542 0.382624 0.09062019
vn -0.259031 0.8878047 -0.3804019
v -0.227993 0.685791 0.0639115
vt 0.995883 0.868706
vn 0.734274 0.0874112 0.673202
v -0.340582 0.8588859 -0.0102556
vt 0.868578 0.991829
vn 0.184791 0.932194 0.311234
v -0.416309 0.582301 0.108254
vt 0.872759 0.741401
vn -0.18479 -0.417662 0.8896129
v -0.340582 0.7880599 -0.175554
vn 0.18479 0.417662 -0.8896129
v -0.416309 0.511475 -0.0570442
vn -0.1850369 -0.9290025 -0.3204928
v -0.227993 0.614965 -0.101387
vn 0.734274 -0.427121 -0.5276451
v -0.528898 0.755397 0.0340869
vt 0.745455 0.864525
vn -0.734274 0.427121 0.5276451
v -0.528898 0.684571 -0.131211
vn -0.734274 -0.08741141 -0.673202
v -0.351882 0.323269 0.00504646
vn 0.133019 -0.9909239 0.0193813
v -0.326957 0.40633 -0.030543
vn 0.7338479 -0.112671 -0.6699049
v -0.351882 0.407527 0.201691
vn 0.133019 -0.697546 0.7040849
v -0.533191 0.458619 -0.0529474
vn -0.5483282 0.2003651 -0.8119053
v -0.558116 0.459815 0.179287
vn -0.5850727 -0.5154808 0.6260747
v -0.558116 0.375558 -0.0173578
vn -0.5850728 -0.8088588 -0.05862898
v -0.326957 0.490588 0.166102
vn 0.7338482 0.4073101 0.5436592
v -0.533191 0.542876 0.143697
vn -0.5483279 0.7260458 0.4149629
v -0.499016 0.28941 0.219906
vt 0.425258 0.787201
vn -0.201334 -0.413651 0.887895
v -0.411877 0.334872 0.200426
vt 0.343411 0.865733
vn 0.7299114 0.07220455 0.6797174
v -0.548476 0.369505 0.185587
vt 0.50379 0.869048
vn -0.7299111 0.4423281 0.5211292
v -0.411877 0.302528 0.124939
vn 0.9639995 -0.2444129 0.1047249
v -0.548476 0.337161 0.1101
vn -0.9639997 0.244412 -0.104725
v -0.499016 0.257065 0.144419
vn -0.2659039 -0.8860863 0.3796658
v -0.461337 0.414968 0.166107
vt 0.421943 0.94758
vn 0.201334 0.928184 0.3129521
v -0.461337 0.382624 0.0906203
vn 0.259031 0.8878047 -0.3804019
v 0.363038 0.559209 0.0203257
vt 0.0451705 0.300348
vt 0.0259574 0.259184
vt 0.0877158 0.272985
v -0.408955 0.559209 0.0203257
v 0.0954416 0 0.125643
vt 0.929102 0.00539789
vn -0.5407538 -0.3319319 0.7729207
v 0.106263 0.451425 0
vt 0.954475 0.483832
vn -0.05481669 0.9983049 -0.0195588
v 0.062742 0 -0.0533889
vn -0.7852301 -0.3879251 -0.4826261
v 0.24982 0 0.0974459
vt 0.979848 0.00539789
vn 0.8382483 -0.2385651 0.4903331
v 0.217121 0 -0.0815857
vn 0.6371909 -0.286077 -0.715645
v -0.106263 0.451425 0
vn 0.05481659 0.9983049 -0.0195589
v -0.0954416 0 0.125643
vn 0.5407538 -0.3319319 0.7729207
v -0.062742 0 -0.0533889
vn 0.7852301 -0.3879251 -0.4826261
v -0.24982 0 0.0974459
vn -0.8382483 -0.2385651 0.4903331
v -0.217121 0 -0.0815857
vn -0.6371909 -0.286077 -0.715645
v 0.376851 0.300105 0.195388
vt 0.60844 0.0692697
vn -0.105042 0.124112 0.9866927
v 0.544097 0.239837 0.20778
vt 0.716942 0.0112042
vn 0.8813583 -0.06606132 0.4678071
v 0.507314 0.446522 0.144287
vt 0.732346 0.127429
vn 0.8626586 0.2813239 0.4203297
v 0.419974 0.208234 0.221063
vt 0.610869 0.0111541
vn -0.118565 -0.6485952 0.7518422
v 0.31445 0.398821 0.168034
vt 0.562568 0.127385
vn -0.7534267 -0.106962 0.6487737
v 0.355906 0.29299 0.200596
vt 0.577326 0.0702171
vn -0.8639698 -0.4260779 0.2683539
v 0.544097 0.203194 0.122258
vn 0.8810498 -0.3847609 -0.275155
v 0.419974 0.17159 0.135541
vn -0.07976702 -0.9949362 -0.06114971
v 0.37678 0.254046 0.087705
vn -0.104235 -0.617246 -0.7798349
v 0.507314 0.391729 0.0164085
vn 0.8620816 -0.110374 -0.4946038
v 0.31445 0.34213 0.0357258
vn -0.7498419 -0.5433989 -0.3774319
v 0.356005 0.247505 0.0928711
vn -0.8566208 -0.4993588 0.129775
vt 0.542583 0.0583511
vt 0.542117 0.0595139
vt 0.54305 0.0571882
vt 0.543983 0.0548626
v -0.423528 0.29864 0.195857
vt 0.689551 0.0693167
vn 0.127095 0.135454 0.9825981
v -0.403542 0.296406 0.199312
vt 0.718615 0.0707737
vn 0.8628497 -0.4285778 0.2679769
v -0.360367 0.398821 0.168034
vn 0.7362931 -0.117709 0.6663461
v -0.553231 0.446522 0.144287
vn -0.8625382 0.281404 0.4205231
v -0.590014 0.239837 0.20778
vt 0.583301 0.0111704
vn -0.8790038 -0.07575919 0.4707579
v -0.461634 0.207178 0.221561
vt 0.689178 0.0112042
vn 0.110484 -0.6535629 0.7487649
v -0.590014 0.203194 0.122258
vn -0.878633 -0.393626 -0.270301
v -0.461634 0.170534 0.136039
vn 0.07192665 -0.9959425 -0.05408473
v -0.423452 0.25275 0.08852759
vn 0.122802 -0.6070053 -0.7851524
v -0.553231 0.391729 0.0164085
vn -0.8619331 -0.110632 -0.494805
v -0.360367 0.34213 0.0357258
vn 0.7328538 -0.5635579 -0.3812189
v -0.403609 0.250642 0.0910808
vn 0.856582 -0.49895 0.131591
vt 0.523118 0.0583666
vt 0.523579 0.0595139
vt 0.522658 0.0572193
vt 0.521737 0.0549247
vt 0.51456 0.97292
vt 0.695113 0.972973
v -0.165424 0.411905 -0.165856
vt 0.67591 0.984141
vn -0.6163219 0.06993528 -0.7843828
v -0.00960432 0.411164 -0.196263
vt 0.51456 0.984056
vn 0 0.07182313 -0.9974174
v 0.146215 0.411905 -0.165856
vn 0.6163219 0.06993538 -0.7843828
vt 0.811636 0.148128
vt 0.812371 0.0108606
vt 0.811636 0.0108606
vt 0.812512 0.148128
vt 0.810901 0.0108606
vt 0.810761 0.148128
v 0.236095 0.412996 -0.000527804
vt 0.812795 0.0108606
vn 0.9952886 0.08728416 -0.04221509
vt 0.812908 0.148128
v -0.255304 0.412996 -0.000527804
vt 0.810477 0.0108606
vn -0.9952886 0.08728416 -0.04221499
vt 0.812538 0.148128
vt 0.810365 0.148128
vt 0.810735 0.148128
v -0.177147 0.411905 0.172526
vt 0.810846 0.0108606
vn -0.641757 0.0961411 0.760858
v 0.157938 0.411905 0.172526
vt 0.812427 0.0108606
vn 0.641757 0.096141 0.760858
v -0.00960431 0.412902 0.216433
vn 0 0.0653092 0.9978651
vt 0.51456 0.973046
vt 0.51456 0.984256
vt 0.683538 0.984141
vt 0.710083 0.972973
vt 0.802379 0.148128
vt 0.802379 0.0108606
vt 0.834365 0.0108606
vt 0.770393 0.0108606
vt 0.829932 0.148128
vt 0.774826 0.148128
vt 0.845769 0.0108606
vt 0.758989 0.0108606
vt 0.765437 0.148128
vt 0.83932 0.148128
vt 0.833284 0.0108606
vt 0.771474 0.0108606
vt 0.776838 0.148128
vt 0.82792 0.148128
vt 0.100837 0.358356
vt 0.0378386 0.358356
vt 0.0535883 0.331077
v -0.069289 1.11435 -0.120012
vt 0.0535883 0.385635
vn -0.3326759 0.7465298 -0.5762118
vt 0.0850876 0.331077
v 0.0692891 1.11435 -0.120012
vt 0.0850876 0.385635
vn 0.3326759 0.7465298 -0.5762118
v 0.46493 0.9034539 -0.127175
vt 0.0544328 0.231536
vn 0.5205092 0.7848452 -0.3362861
v 0.338136 0.7578799 -0.146495
vt 0.0171333 0.205086
vn -0.1466111 0.2545581 -0.9558794
v 0.338136 0.8170289 -0.00844879
vn -0.146611 0.867668 0.4750341
v 0.448966 0.724889 -0.0506639
vt 0.0497364 0.19082
vn 0.9966403 -0.07528282 0.03225701
v -0.510847 0.9034539 -0.127175
vt 0.858702 0.631928
vn -0.5205092 0.7848452 -0.3362861
v -0.384053 0.8170289 -0.00844877
vt 0.847565 0.620844
vn 0.14661 0.8676682 0.4750341
v -0.384053 0.7578799 -0.146495
vn 0.1466099 0.2545579 -0.9558796
v -0.494883 0.724889 -0.0506639
vt 0.857299 0.614866
vn -0.9966403 -0.07528313 0.03225691
v 0.0219503 1.07739 0
vt 0.551758 0.0318462
vn -0.6858361 -0.7277561 -1.49897E-06
v 0.117847 1.19642 0.0292044
vt 0.593515 0.0956516
vn 0.204708 0.171263 0.9637238
v -0.130115 1.28034 0
vt 0.485542 0.132192
vn -0.9413571 -0.337412 -1.82598E-06
v 0.117847 1.19642 -0.0292044
vn 0.204708 0.171263 -0.9637238
vt 0.514539 0.971339
vt 0.51631 0.981521
vt 0.727161 0.971267
vt 0.696605 0.981408
v 0.107295 0.790845 -0.185841
vt 0.395736 0.0143534
v -0.107295 0.790845 -0.185841
vt 0.41298 0.0143534
vn -0.1850369 -0.9290025 -0.3204929
v 0.107295 0.961812 -0.185841
vt 0.394232 0.181902
vn 0.4909922 0.1889631 -0.8504232
vt 0.39973 0.181902
vt 0.398012 0.0143534
v -0.107295 0.961812 -0.185841
vt 0.411476 0.181902
vn -0.4909922 0.1889631 -0.8504232
vt 0.408051 0.0143534
vt 0.408051 0.181902
vt 0.382912 0.226124
vt 0.383735 0.311767
vt 0.491489 0.103931
vt 0.521973 0.121531
vt 0.511812 0.103931
vt 0.491489 0.139131
vt 0.481328 0.121531
vt 0.511812 0.139131
vt 0.297237 0.538127
vt 0.306586 0.265082
vt 0.438434 0.406279
vt 0.165389 0.396931
vt 0.262579 0.933024
vt 0.205127 0.967373
vt 0.547316 0.055851
vt 0.546483 0.0607183
vt 0.288007 0.564972
vt 0.0375792 0.560791
vt 0.160703 0.688095
vt 0.164883 0.437668
vt 0.519212 0.0607183
vt 0.518379 0.055851
o merged_0_0_node
g polygon_0
usemtl mat_body1_mat_id
f 1/1/1 2/2/2 3/3/3
f 1/1/1 4/4/4 2/2/2
f 1/1/1 3/3/3 5/5/5
f 1/1/1 6/6/6 4/4/4
f 1/1/1 5/5/5 7/7/7
f 1/1/1 8/8/8 6/6/6
f 1/1/1 7/7/7 9/9/9
f 1/1/1 9/9/9 8/8/8
f 2/2/2 10/10/10 3/3/3
f 2/2/2 4/4/4 10/10/10
f 5/5/5 11/11/11 7/7/7
f 5/5/5 3/3/3 12/12/12
f 5/5/5 12/12/12 11/11/11
f 6/6/6 8/8/8 13/13/13
f 6/6/6 14/14/14 4/4/4
f 6/6/6 13/13/13 14/14/14
f 9/9/9 7/7/7 15/15/15
f 9/9/9 15/15/15 8/8/8
f 15/15/15 7/7/7 11/11/11
f 15/15/15 13/13/13 8/8/8
f 10/10/10 16/16/16 3/3/3
f 10/10/10 4/4/4 17/17/17
f 17/17/17 4/4/4 14/14/14
f 3/3/3 16/16/16 12/12/12
f 18/18/18 19/19/19 20/20/20
f 18/18/18 21/21/21 19/19/19
f 18/18/18 20/20/20 22/22/22
f 18/18/18 23/23/23 21/21/21
f 18/18/18 22/22/22 24/24/24
f 18/18/18 25/25/25 23/23/23
f 18/18/18 24/24/24 26/26/26
f 18/18/18 26/26/26 25/25/25
f 19/19/19 27/27/27 20/20/20
f 22/22/22 20/20/20 28/28/28
f 23/23/23 25/25/25 29/29/29
f 26/26/26 30/30/30 25/25/25
f 27/27/27 31/31/31 20/20/20
f 20/20/20 31/31/31 28/28/28
f 29/29/29 25/25/25 32/32/32
f 32/32/32 25/25/25 30/30/30
f 33/33/33 34/34/34 35/35/35
f 33/33/33 36/36/36 34/34/34
f 33/33/33 35/35/35 37/37/37
f 33/33/33 38/38/38 36/36/36
f 33/33/33 37/37/37 39/39/39
f 33/33/33 40/40/40 38/38/38
f 33/33/33 39/39/39 41/34/41
f 33/33/33 41/34/41 40/40/40
f 42/41/42 43/42/43 32/43/32
f 42/41/42 44/44/44 43/42/43
f 42/41/42 32/43/32 30/45/30
f 42/41/42 45/46/45 44/44/44
f 42/41/42 30/45/30 46/47/46
f 42/41/42 46/47/46 45/46/45
f 43/42/43 29/48/29 32/43/32
f 44/44/44 45/46/45 47/49/47
f 44/44/44 47/49/47 48/50/48
f 46/47/46 49/51/49 45/46/45
f 47/49/47 31/52/31 48/50/48
f 47/49/47 45/46/45 50/53/50
f 47/49/47 28/54/28 31/52/31
f 47/49/47 50/53/50 28/54/28
f 50/53/50 45/46/45 49/51/49
f 48/50/48 31/52/31 27/55/27
f 51/56/51 52/57/52 53/58/53
f 51/56/51 54/59/54 52/57/52
f 51/56/51 53/58/53 55/60/55
f 51/56/51 56/61/56 54/59/54
f 51/56/51 55/60/55 57/62/57
f 51/56/51 57/62/57 56/61/56
f 52/57/52 58/63/58 53/58/53
f 55/60/55 59/64/59 57/62/57
f 56/61/56 57/62/57 60/65/60
f 59/64/59 61/66/61 57/62/57
f 57/62/57 61/66/61 60/65/60
f 61/66/61 62/67/62 60/65/60
f 63/68/63 64/69/64 65/70/65
f 63/68/63 66/69/66 64/69/64
f 63/68/63 65/70/65 67/70/67
f 63/68/63 68/68/68 66/69/66
f 63/68/63 67/70/67 68/68/68
f 64/69/64 69/71/69 65/70/65
f 64/69/64 66/69/66 69/71/69
f 66/69/66 70/71/70 69/71/69
f 71/72/71 72/72/72 73/73/73
f 71/72/71 74/74/74 72/72/72
f 71/72/71 73/73/73 75/75/75
f 71/72/71 76/74/76 74/74/74
f 71/72/71 75/75/75 76/74/76
f 72/72/72 77/73/77 73/73/73
f 72/72/72 74/74/74 77/73/77
f 75/75/75 78/75/78 76/74/76
f 78/75/78 77/73/77 74/74/74
f 78/75/78 74/74/74 76/74/76
f 79/76/79 80/77/80 81/78/81
f 79/76/79 82/77/82 80/77/80
f 79/76/79 81/78/81 83/78/83
f 79/76/79 84/76/84 82/77/82
f 79/76/79 83/78/83 84/76/84
f 80/77/80 85/79/85 81/78/81
f 80/77/80 82/77/82 85/79/85
f 81/78/81 85/79/85 83/78/83
f 82/77/82 86/79/86 85/79/85
f 85/79/85 86/79/86 83/78/83
f 87/80/87 88/81/88 89/82/89
f 87/80/87 90/81/90 88/81/88
f 87/80/87 89/82/89 91/82/91
f 87/80/87 92/80/92 90/81/90
f 87/80/87 91/82/91 92/80/92
f 88/81/88 93/83/93 89/82/89
f 88/81/88 90/81/90 93/83/93
f 89/82/89 93/83/93 91/82/91
f 90/81/90 94/83/94 93/83/93
f 93/83/93 94/83/94 91/82/91
f 95/72/95 96/73/96 97/72/97
f 95/72/95 98/75/98 96/73/96
f 95/72/95 97/72/97 99/74/99
f 95/72/95 100/74/100 98/75/98
f 95/72/95 99/74/99 100/74/100
f 96/73/96 101/73/101 97/72/97
f 97/72/97 101/73/101 99/74/99
f 98/75/98 100/74/100 102/75/102
f 102/75/102 99/74/99 101/73/101
f 102/75/102 100/74/100 99/74/99
f 103/84/103 104/85/104 105/86/105
f 103/84/103 106/85/106 104/85/104
f 103/84/103 105/86/105 107/86/107
f 103/84/103 108/84/108 106/85/106
f 103/84/103 107/86/107 108/84/108
f 104/85/104 109/87/109 105/86/105
f 104/85/104 106/85/106 109/87/109
f 105/86/105 109/87/109 107/86/107
f 106/85/106 110/87/110 109/87/109
f 109/87/109 110/87/110 107/86/107
f 111/88/86 73/89/73 77/89/77
f 111/88/86 75/90/75 73/89/73
f 111/88/86 77/89/77 78/90/78
f 111/88/86 78/90/78 75/90/75
f 112/88/110 101/89/101 96/89/96
f 112/88/110 102/90/102 101/89/101
f 112/88/110 96/89/96 98/90/98
f 112/88/110 98/90/98 102/90/102
f 113/91/111 114/92/112 115/91/113
f 113/91/111 116/93/114 114/92/112
f 113/91/111 115/91/113 117/93/115
f 113/91/111 117/93/115 116/93/114
f 117/93/115 114/92/112 116/93/114
f 117/93/115 115/91/113 114/92/112
f 118/92/116 119/91/117 120/91/118
f 118/92/116 121/93/119 119/91/117
f 118/92/116 120/91/118 122/93/120
f 118/92/116 122/93/120 121/93/119
f 122/93/120 120/91/118 119/91/117
f 122/93/120 119/91/117 121/93/119
f 123/94/121 124/95/122 125/96/123
f 123/94/121 126/97/124 124/95/122
f 123/94/121 125/96/123 127/98/125
f 123/94/121 127/98/125 128/99/126
f 126/97/124 129/95/127 124/95/122
f 126/97/124 130/97/128 129/95/127
f 130/97/128 131/94/129 129/95/127
f 131/94/129 132/96/130 129/95/127
f 131/94/129 133/98/131 132/96/130
f 131/94/129 134/99/132 133/98/131
f 134/100/132 128/100/126 127/101/125
f 134/100/132 123/102/121 128/100/126
f 134/100/132 127/101/125 133/101/131
f 134/100/132 131/102/129 123/102/121
f 131/102/129 126/103/124 123/102/121
f 131/102/129 130/103/128 126/103/124
f 135/104/133 136/105/134 137/96/135
f 135/104/133 137/96/135 138/98/136
f 135/104/133 138/98/136 139/106/137
f 135/104/133 139/106/137 140/107/138
f 139/106/137 141/106/139 140/107/138
f 141/106/139 142/107/140 140/107/138
f 141/106/139 143/104/141 142/107/140
f 141/106/139 144/98/142 143/104/141
f 144/98/142 145/96/143 143/104/141
f 145/96/143 146/105/144 143/104/141
f 146/108/144 145/109/143 137/109/135
f 146/108/144 137/109/135 136/108/134
f 146/108/144 136/108/134 135/110/133
f 146/108/144 135/110/133 143/110/141
f 135/110/133 140/111/138 143/110/141
f 140/111/138 142/111/140 143/110/141
f 15/112/15 11/113/11 147/114/145
f 15/112/15 147/114/145 148/115/146
f 15/112/15 148/115/146 149/114/147
f 15/112/15 149/114/147 13/113/13
f 24/116/24 149/117/147 148/118/146
f 24/116/24 22/119/22 149/117/147
f 24/116/24 148/118/146 147/120/145
f 24/116/24 147/120/145 26/121/26
f 22/119/22 150/122/148 149/117/147
f 22/119/22 28/123/28 150/122/148
f 147/120/145 151/124/149 26/121/26
f 28/123/28 50/125/50 150/122/148
f 151/124/149 30/126/30 26/121/26
f 151/124/149 46/127/46 30/126/30
f 151/124/149 152/128/150 46/127/46
f 50/125/50 153/129/151 150/122/148
f 50/125/50 49/116/49 153/129/151
f 46/127/46 152/128/150 49/116/49
f 153/129/151 49/116/49 154/118/152
f 154/118/152 49/116/49 152/128/150
f 10/130/10 152/114/150 16/113/16
f 10/130/10 154/131/152 152/114/150
f 10/130/10 153/132/151 154/131/152
f 10/130/10 17/133/17 153/132/151
f 41/134/41 44/135/44 48/136/48
f 41/134/41 43/137/43 44/135/44
f 41/134/41 48/136/48 40/138/40
f 41/134/41 39/139/39 43/137/43
f 48/136/48 27/140/27 40/138/40
f 39/139/39 29/141/29 43/137/43
f 39/139/39 37/142/37 29/141/29
f 27/140/27 38/143/38 40/138/40
f 27/140/27 19/144/19 38/143/38
f 37/142/37 23/145/23 29/141/29
f 37/142/37 35/146/35 23/145/23
f 19/144/19 36/147/36 38/143/38
f 19/144/19 21/135/21 36/147/36
f 23/145/23 35/146/35 21/135/21
f 36/147/36 21/135/21 34/134/34
f 34/134/34 21/135/21 35/146/35
f 62/148/62 54/149/54 56/150/56
f 62/148/62 155/151/153 54/149/54
f 62/148/62 56/150/56 60/152/60
f 62/148/62 156/153/154 155/151/153
f 157/154/155 158/155/156 159/155/157
f 157/154/155 160/156/158 158/155/156
f 157/154/155 159/155/157 160/156/158
f 161/157/159 162/158/160 163/158/161
f 161/157/159 164/159/162 162/158/160
f 161/157/159 163/158/161 164/159/162
f 165/160/163 166/161/164 167/162/165
f 165/160/163 168/161/166 166/161/164
f 165/160/163 167/162/165 168/161/166
f 168/161/166 167/162/165 166/161/164
f 12/163/12 151/164/149 11/165/11
f 12/163/12 152/166/150 151/164/149
f 12/163/12 16/165/16 152/166/150
f 11/165/11 151/164/149 147/166/145
f 150/164/148 153/166/151 14/163/14
f 150/164/148 14/163/14 13/165/13
f 150/164/148 13/165/13 149/166/147
f 153/166/151 17/165/17 14/163/14
f 169/167/67 170/168/167 171/169/168
f 169/167/67 171/169/168 61/170/61
f 169/167/67 61/170/61 59/171/59
f 170/168/167 172/172/169 171/169/168
f 170/168/167 58/173/58 172/172/169
f 58/173/58 52/174/52 172/172/169
f 171/175/168 172/175/169 156/176/154
f 171/175/168 156/176/154 62/176/62
f 171/175/168 62/176/62 61/175/61
f 172/175/169 155/176/153 156/176/154
f 172/175/169 52/175/52 155/176/153
f 52/175/52 54/176/54 155/176/153
f 53/177/53 59/178/59 55/179/55
f 53/177/53 170/180/167 59/178/59
f 53/177/53 58/181/58 170/180/167
f 59/178/59 170/180/167 169/182/67
f 68/183/68 70/184/70 66/185/66
f 68/183/68 67/186/67 70/184/70
f 67/187/67 69/188/69 70/188/70
f 67/187/67 65/187/65 69/188/69
f 129/189/127 125/190/123 124/189/122
f 129/189/127 132/190/130 125/190/123
f 92/191/92 94/192/94 90/193/90
f 92/191/92 91/194/91 94/192/94
f 138/195/136 141/196/139 139/196/137
f 138/195/136 144/195/142 141/196/139
