ply
format ascii 1.0
element vertex 688
property float x
property float y
property float z
property uchar red
property uchar green
property uchar blue
element face 780
property list uchar int vertex_index
end_header
0.56067 -1.16712 2.60984 110 42 78
0.62262 -1.16712 2.53674 110 42 78
0.39804 -1.16712 2.53674 110 42 78
0.4574 -1.16712 2.60984 110 42 78
0.62262 -1.16712 2.7592 110 42 78
0.56067 -1.16712 2.7592 110 42 78
0.39804 -1.16712 2.60984 110 42 78
0.4574 -1.16712 2.63737 110 42 78
0.39804 -1.16712 2.63737 110 42 78
0.62262 -1.14646 2.88467 35 13 25
0.62262 -1.16712 2.88467 35 13 25
0.39804 -1.16712 2.88467 35 13 25
0.39804 -1.14646 2.88467 35 13 25
0.62262 -1.16712 2.7592 35 13 25
0.62262 -1.14646 2.53674 35 13 25
0.56067 -1.16712 2.7592 35 13 25
0.56044 -1.16712 2.82197 35 13 25
0.4574 -1.16712 2.82193 35 13 25
0.62262 -1.16712 2.53674 35 13 25
0.39804 -1.16712 2.63737 35 13 25
0.39804 -1.16712 2.60984 35 13 25
0.39804 -1.14646 2.53674 35 13 25
0.39804 -1.16712 2.53674 35 13 25
0.4574 -1.16712 2.63737 35 13 25
0.42009 -1.17496 2.73305 255 255 255
0.42009 -1.17496 2.86088 255 255 255
0.50517 -1.17496 2.86088 255 255 255
0.50517 -1.17496 2.73305 255 255 255
0.50517 -1.16225 2.86088 255 255 255
0.42009 -1.16225 2.86088 255 255 255
0.42009 -1.16225 2.73305 255 255 255
0.50517 -1.16225 2.73305 255 255 255
0.4574 -1.16712 2.82193 27 10 19
0.56044 -1.16712 2.82197 27 10 19
0.56067 -1.16712 2.7592 27 10 19
0.4574 -1.16712 2.63737 27 10 19
0.56067 -1.16712 2.60984 27 10 19
0.4574 -1.16712 2.60984 27 10 19
-0.10074 -1.16712 2.60984 110 42 78
0.00253 -1.16712 2.60984 110 42 78
0.06189 -1.16712 2.53674 110 42 78
-0.16268 -1.16712 2.53674 110 42 78
-0.16268 -1.16712 2.7592 110 42 78
-0.10074 -1.16712 2.7592 110 42 78
0.06189 -1.16712 2.60984 110 42 78
0.00253 -1.16712 2.63737 110 42 78
0.06189 -1.16712 2.63737 110 42 78
-0.16268 -1.14646 2.88467 35 13 25
0.06189 -1.14646 2.88467 35 13 25
0.06189 -1.16712 2.88467 35 13 25
-0.16268 -1.16712 2.88467 35 13 25
-0.16268 -1.16712 2.7592 35 13 25
-0.16268 -1.14646 2.53674 35 13 25
-0.10074 -1.16712 2.7592 35 13 25
-0.10051 -1.16712 2.82197 35 13 25
0.00253 -1.16712 2.82193 35 13 25
-0.16268 -1.16712 2.53674 35 13 25
0.06189 -1.16712 2.63737 35 13 25
0.06189 -1.16712 2.60984 35 13 25
0.06189 -1.14646 2.53674 35 13 25
0.06189 -1.16712 2.53674 35 13 25
0.00253 -1.16712 2.63737 35 13 25
0.03985 -1.17496 2.73305 255 255 255
-0.04524 -1.17496 2.73305 255 255 255
-0.04524 -1.17496 2.86088 255 255 255
0.03985 -1.17496 2.86088 255 255 255
-0.04524 -1.16225 2.86088 255 255 255
0.03985 -1.16225 2.86088 255 255 255
0.03985 -1.16225 2.73305 255 255 255
-0.04524 -1.16225 2.73305 255 255 255
0.00253 -1.16712 2.82193 27 10 19
0.00253 -1.16712 2.63737 27 10 19
-0.10074 -1.16712 2.7592 27 10 19
-0.10051 -1.16712 2.82197 27 10 19
-0.10074 -1.16712 2.60984 27 10 19
0.00253 -1.16712 2.60984 27 10 19
0.58139 -1.03606 0.12508 127 173 221
0.58139 -0.91063 0 127 173 221
0.46397 -0.91063 0 127 173 221
0.46397 -1.03606 0.12508 127 173 221
0.58139 -0.33321 0.70074 127 173 221
0.46397 0.94166 0 127 173 221
0.58139 0.99142 0 127 173 221
0.58139 -1.03606 1.87165 127 173 221
0.46397 -1.03606 1.87165 127 173 221
0.58139 -1.03606 2.22694 127 173 221
-0.00403 -1.03606 1.87165 127 173 221
-0.12146 -1.03606 2.22694 127 173 221
-0.12146 -1.03606 1.87165 127 173 221
-0.12146 -1.03606 0.12508 127 173 221
-0.00403 -1.03606 0.12508 127 173 221
-0.00403 -0.91063 0 127 173 221
-0.12146 -0.91063 0 127 173 221
-0.00403 0.39286 0 127 173 221
-0.12146 0.3107 0 127 173 221
-0.08591 0.49751 0 127 173 221
-0.21479 0.42848 0 127 173 221
-0.21479 0.42848 0.70074 127 173 221
-0.12146 0.3107 0.70074 127 173 221
-0.59254 0.42848 0.70074 127 173 221
-0.59254 0.42848 0 127 173 221
-0.68668 0.3107 0.70074 127 173 221
-0.68668 0.3107 0 127 173 221
-0.68282 0.49763 0 127 173 221
-0.77158 0.39543 0 127 173 221
-0.77334 -0.67184 0 127 173 221
-0.68668 -0.67184 0 127 173 221
-0.77334 -0.80085 0.12134 127 173 221
-0.68668 -0.80085 0.12134 127 173 221
-0.77334 -0.80085 0.70074 127 173 221
-0.68668 -0.80085 0.70074 127 173 221
-0.93746 -0.65739 1.37205 127 173 221
-0.83624 -0.65739 1.37205 127 173 221
-0.12146 -0.33321 2.22694 127 173 221
-0.12146 -0.33321 0.70074 127 173 221
0.58139 -0.33321 2.22694 127 173 221
0.58139 0.99142 0.70074 127 173 221
0.45663 1.1094 0 127 173 221
0.45663 1.1094 0.70074 127 173 221
0.38744 1.02331 0 127 173 221
-1.24457 1.1094 0 127 173 221
-1.24457 1.1094 0.70074 127 173 221
-1.37546 0.99142 0 127 173 221
-1.37546 0.99142 0.70074 127 173 221
-1.20809 1.02267 0 127 173 221
-1.28883 0.94959 0 127 173 221
-1.28883 -0.67184 0 127 173 221
-1.37546 -0.67184 0 127 173 221
-1.37546 -0.14017 0.70074 127 173 221
-1.37546 -0.80085 0.12134 127 173 221
-1.37546 -0.80085 0.70074 127 173 221
-1.28883 -0.80085 0.70074 127 173 221
-1.28883 -0.80085 0.12134 127 173 221
-1.22589 -0.65739 1.37205 127 173 221
-1.22589 -0.28363 1.37205 127 173 221
-0.68668 -0.14017 0.70074 127 173 221
-0.83624 -0.28363 1.37205 127 173 221
-1.12253 -0.65739 1.37205 127 173 221
-0.12146 -0.33321 0.70074 131 178 228
-0.12146 0.3107 0.70074 131 178 228
0.58139 0.99142 0.70074 131 178 228
0.58139 -0.33321 0.70074 131 178 228
0.45663 1.1094 0.70074 131 178 228
-0.21479 0.42848 0.70074 131 178 228
-1.24457 1.1094 0.70074 131 178 228
-0.59254 0.42848 0.70074 131 178 228
-0.68668 0.3107 0.70074 131 178 228
-1.37546 0.99142 0.70074 131 178 228
-1.37546 -0.14017 0.70074 131 178 228
-0.68668 -0.14017 0.70074 131 178 228
0.46397 -0.91063 0 243 247 249
-0.00403 -0.91063 0 243 247 249
-0.00403 -1.03606 0.12508 243 247 249
0.46397 -1.03606 0.12508 243 247 249
0.46397 0.94166 0 243 247 249
-0.00403 0.39286 0 243 247 249
0.38744 1.02331 0 243 247 249
-0.08591 0.49751 0 243 247 249
-1.20809 1.02267 0 243 247 249
-0.68282 0.49763 0 243 247 249
-1.28883 0.94959 0 243 247 249
-0.77158 0.39543 0 243 247 249
-1.28883 -0.67184 0 243 247 249
-0.77334 -0.67184 0 243 247 249
-1.28883 -0.80085 0.12134 243 247 249
-0.77334 -0.80085 0.12134 243 247 249
-1.28883 -0.80085 0.70074 243 247 249
-0.77334 -0.80085 0.70074 243 247 249
-1.12253 -0.65739 1.37205 243 247 249
-0.93746 -0.65739 1.37205 243 247 249
0.46397 -1.03606 1.87165 243 247 249
-0.00403 -1.03606 1.87165 243 247 249
0.69186 -1.01741 2.81105 243 247 249
0.7716 -1.01741 2.81105 243 247 249
0.7716 -0.67414 2.46779 243 247 249
0.69186 -0.67414 2.46779 243 247 249
0.7716 -1.01958 2.87431 243 247 249
0.69186 -1.01958 2.87431 243 247 249
0.7716 -0.61089 2.46562 243 247 249
0.69186 -0.61089 2.46562 243 247 249
0.7716 -0.8504 2.80772 243 247 249
0.7716 -0.66245 2.99567 243 247 249
0.7716 -0.65193 2.60924 243 247 249
0.7716 -0.42626 2.65025 243 247 249
0.7716 -0.59988 2.66129 243 247 249
0.7716 -0.66241 2.8864 243 247 249
0.7716 -0.74369 2.80511 243 247 249
0.7716 -0.66005 3.23384 243 247 249
0.7716 -0.59649 3.17028 243 247 249
0.7716 -0.27712 3.61676 243 247 249
0.7716 -0.21356 3.5532 243 247 249
0.7716 -0.21388 3.61459 243 247 249
0.7716 -0.18303 3.58374 243 247 249
0.7716 -0.5483 3.12208 243 247 249
0.7716 -0.43967 3.1022 243 247 249
0.7716 -0.16537 3.50501 243 247 249
0.7716 -0.10111 3.44075 243 247 249
0.7716 -0.13484 3.53554 243 247 249
0.7716 -0.07058 3.47129 243 247 249
0.69186 -0.42626 2.65025 243 247 249
0.7716 -0.39721 3.05974 243 247 249
0.7716 -0.37165 2.70487 243 247 249
0.7716 -0.29108 3.01441 243 247 249
0.7716 -0.05866 3.3983 243 247 249
0.7716 0.01707 3.32257 243 247 249
0.7716 -0.02812 3.42883 243 247 249
0.7716 0.04761 3.3531 243 247 249
0.7716 -0.24748 2.97081 243 247 249
0.7716 -0.25136 2.82515 243 247 249
0.69186 -0.25136 2.82515 243 247 249
0.69186 0.13156 3.20807 243 247 249
0.7716 0.13156 3.20807 243 247 249
0.69186 0.12939 3.27132 243 247 249
0.7716 0.12939 3.27132 243 247 249
0.69186 -0.24748 2.97081 243 247 249
0.69186 0.06067 3.27896 243 247 249
0.69186 0.09121 3.3095 243 247 249
0.69186 -0.37165 2.70487 243 247 249
0.7716 0.09121 3.3095 243 247 249
0.7716 0.06067 3.27896 243 247 249
0.69186 0.12939 3.27132 249 253 255
0.7716 0.12939 3.27132 249 253 255
0.7716 0.09121 3.3095 249 253 255
0.69186 0.09121 3.3095 249 253 255
0.69186 -0.27712 3.61676 249 253 255
0.69186 -0.21388 3.61459 249 253 255
0.7716 -0.21388 3.61459 249 253 255
0.7716 -0.27712 3.61676 249 253 255
0.7716 -0.18303 3.58374 249 253 255
0.69186 -0.18303 3.58374 249 253 255
0.69186 -1.01958 2.87431 249 253 255
0.69186 -0.66005 3.23384 249 253 255
0.7716 -0.66005 3.23384 249 253 255
0.7716 -1.01958 2.87431 249 253 255
0.69186 -0.37165 2.70487 191 195 196
0.69186 -0.42626 2.65025 191 195 196
0.7716 -0.42626 2.65025 191 195 196
0.7716 -0.37165 2.70487 191 195 196
0.7716 -0.66241 2.8864 191 195 196
0.7716 -0.66245 2.99567 191 195 196
0.7716 -0.8504 2.80772 191 195 196
0.7716 -0.74369 2.80511 191 195 196
0.7716 -0.65193 2.60924 191 195 196
0.7716 -0.59988 2.66129 191 195 196
0.69186 -0.66005 3.23384 243 247 249
0.69186 -0.59649 3.17028 243 247 249
0.69186 -0.21356 3.5532 243 247 249
0.69186 -0.27712 3.61676 243 247 249
0.69186 -0.18303 3.58374 243 247 249
0.69186 -0.21388 3.61459 243 247 249
0.69186 -0.5483 3.12208 243 247 249
0.69186 -0.43967 3.1022 243 247 249
0.69186 -0.10111 3.44075 243 247 249
0.69186 -0.16537 3.50501 243 247 249
0.69186 -0.07058 3.47129 243 247 249
0.69186 -0.13484 3.53554 243 247 249
0.69186 -0.39721 3.05974 243 247 249
0.69186 -0.29108 3.01441 243 247 249
0.69186 0.01707 3.32257 243 247 249
0.69186 -0.05866 3.3983 243 247 249
0.69186 0.04761 3.3531 243 247 249
0.69186 -0.02812 3.42883 243 247 249
0.7716 -0.18303 3.58374 191 195 196
0.7716 -0.13484 3.53554 191 195 196
0.7716 -0.16537 3.50501 191 195 196
0.7716 -0.21356 3.5532 191 195 196
0.7716 -0.5483 3.12208 191 195 196
0.7716 -0.59649 3.17028 191 195 196
0.69186 -0.18303 3.58374 191 195 196
0.69186 -0.13484 3.53554 191 195 196
0.69186 -0.21356 3.5532 191 195 196
0.69186 -0.16537 3.50501 191 195 196
0.69186 -0.59649 3.17028 191 195 196
0.69186 -0.5483 3.12208 191 195 196
0.7716 -0.07058 3.47129 249 253 255
0.7716 -0.13484 3.53554 249 253 255
0.69186 -0.13484 3.53554 249 253 255
0.69186 -0.07058 3.47129 249 253 255
0.7716 -0.07058 3.47129 191 195 196
0.7716 -0.02812 3.42883 191 195 196
0.7716 -0.05866 3.3983 191 195 196
0.7716 -0.10111 3.44075 191 195 196
0.7716 -0.39721 3.05974 191 195 196
0.7716 -0.43967 3.1022 191 195 196
0.69186 -0.07058 3.47129 191 195 196
0.69186 -0.02812 3.42883 191 195 196
0.69186 -0.10111 3.44075 191 195 196
0.69186 -0.05866 3.3983 191 195 196
0.69186 -0.43967 3.1022 191 195 196
0.69186 -0.39721 3.05974 191 195 196
0.7716 0.04761 3.3531 249 253 255
0.7716 -0.02812 3.42883 249 253 255
0.69186 -0.02812 3.42883 249 253 255
0.69186 0.04761 3.3531 249 253 255
0.7716 0.04761 3.3531 191 195 196
0.7716 0.09121 3.3095 191 195 196
0.7716 0.06067 3.27896 191 195 196
0.7716 0.01707 3.32257 191 195 196
0.7716 -0.24748 2.97081 191 195 196
0.7716 -0.29108 3.01441 191 195 196
0.69186 0.04761 3.3531 191 195 196
0.69186 0.09121 3.3095 191 195 196
0.69186 0.01707 3.32257 191 195 196
0.69186 0.06067 3.27896 191 195 196
0.69186 -0.29108 3.01441 191 195 196
0.69186 -0.24748 2.97081 191 195 196
-0.23193 -1.01741 2.81105 243 247 249
-0.23193 -0.67414 2.46779 243 247 249
-0.31167 -0.67414 2.46779 243 247 249
-0.31167 -1.01741 2.81105 243 247 249
-0.31167 -1.01958 2.87431 243 247 249
-0.23193 -1.01958 2.87431 243 247 249
-0.31167 -0.61089 2.46562 243 247 249
-0.23193 -0.61089 2.46562 243 247 249
-0.31167 -0.8504 2.80772 243 247 249
-0.31167 -0.66245 2.99567 243 247 249
-0.31167 -0.65193 2.60924 243 247 249
-0.31167 -0.42626 2.65025 243 247 249
-0.31167 -0.59988 2.66129 243 247 249
-0.31167 -0.66241 2.8864 243 247 249
-0.31167 -0.74369 2.80511 243 247 249
-0.31167 -0.66005 3.23384 243 247 249
-0.31167 -0.59649 3.17028 243 247 249
-0.31167 -0.27712 3.61676 243 247 249
-0.31167 -0.21356 3.5532 243 247 249
-0.31167 -0.21388 3.61459 243 247 249
-0.31167 -0.18303 3.58374 243 247 249
-0.31167 -0.5483 3.12208 243 247 249
-0.31167 -0.43967 3.1022 243 247 249
-0.31167 -0.16537 3.50501 243 247 249
-0.31167 -0.10111 3.44075 243 247 249
-0.31167 -0.13484 3.53554 243 247 249
-0.31167 -0.07058 3.47129 243 247 249
-0.23193 -0.42626 2.65025 243 247 249
-0.31167 -0.39721 3.05974 243 247 249
-0.31167 -0.37165 2.70487 243 247 249
-0.31167 -0.29108 3.01441 243 247 249
-0.31167 -0.05866 3.3983 243 247 249
-0.31167 0.01707 3.32257 243 247 249
-0.31167 -0.02812 3.42883 243 247 249
-0.31167 0.04761 3.3531 243 247 249
-0.31167 -0.24748 2.97081 243 247 249
-0.31167 -0.25136 2.82515 243 247 249
-0.23193 -0.25136 2.82515 243 247 249
-0.23193 0.13156 3.20807 243 247 249
-0.31167 0.13156 3.20807 243 247 249
-0.23193 0.12939 3.27132 243 247 249
-0.31167 0.12939 3.27132 243 247 249
-0.23193 -0.24748 2.97081 243 247 249
-0.23193 0.06067 3.27896 243 247 249
-0.23193 0.09121 3.3095 243 247 249
-0.23193 -0.37165 2.70487 243 247 249
-0.31167 0.09121 3.3095 243 247 249
-0.31167 0.06067 3.27896 243 247 249
-0.23193 -0.29108 3.01441 243 247 249
-0.23193 -0.39721 3.05974 243 247 249
-0.23193 0.01707 3.32257 243 247 249
-0.23193 -0.05866 3.3983 243 247 249
-0.23193 0.04761 3.3531 243 247 249
-0.23193 -0.02812 3.42883 243 247 249
-0.23193 -0.43967 3.1022 243 247 249
-0.23193 -0.5483 3.12208 243 247 249
-0.23193 -0.10111 3.44075 243 247 249
-0.23193 -0.16537 3.50501 243 247 249
-0.23193 -0.07058 3.47129 243 247 249
-0.23193 -0.13484 3.53554 243 247 249
-0.23193 -0.59649 3.17028 243 247 249
-0.23193 -0.66005 3.23384 243 247 249
-0.23193 -0.21356 3.5532 243 247 249
-0.23193 -0.27712 3.61676 243 247 249
-0.23193 -0.18303 3.58374 243 247 249
-0.23193 -0.21388 3.61459 243 247 249
-0.23193 0.12939 3.27132 249 253 255
-0.23193 0.09121 3.3095 249 253 255
-0.31167 0.09121 3.3095 249 253 255
-0.31167 0.12939 3.27132 249 253 255
-0.23193 -0.27712 3.61676 249 253 255
-0.31167 -0.27712 3.61676 249 253 255
-0.31167 -0.21388 3.61459 249 253 255
-0.23193 -0.21388 3.61459 249 253 255
-0.31167 -0.18303 3.58374 249 253 255
-0.23193 -0.18303 3.58374 249 253 255
-0.23193 -1.01958 2.87431 249 253 255
-0.31167 -1.01958 2.87431 249 253 255
-0.31167 -0.66005 3.23384 249 253 255
-0.23193 -0.66005 3.23384 249 253 255
-0.23193 -0.37165 2.70487 191 195 196
-0.31167 -0.37165 2.70487 191 195 196
-0.31167 -0.42626 2.65025 191 195 196
-0.23193 -0.42626 2.65025 191 195 196
-0.31167 -0.66241 2.8864 191 195 196
-0.31167 -0.66245 2.99567 191 195 196
-0.31167 -0.8504 2.80772 191 195 196
-0.31167 -0.74369 2.80511 191 195 196
-0.31167 -0.65193 2.60924 191 195 196
-0.31167 -0.59988 2.66129 191 195 196
-0.31167 -0.18303 3.58374 191 195 196
-0.31167 -0.21356 3.5532 191 195 196
-0.31167 -0.16537 3.50501 191 195 196
-0.31167 -0.13484 3.53554 191 195 196
-0.31167 -0.5483 3.12208 191 195 196
-0.31167 -0.59649 3.17028 191 195 196
-0.23193 -0.18303 3.58374 191 195 196
-0.23193 -0.13484 3.53554 191 195 196
-0.23193 -0.21356 3.5532 191 195 196
-0.23193 -0.16537 3.50501 191 195 196
-0.23193 -0.59649 3.17028 191 195 196
-0.23193 -0.5483 3.12208 191 195 196
-0.31167 -0.07058 3.47129 249 253 255
-0.23193 -0.07058 3.47129 249 253 255
-0.23193 -0.13484 3.53554 249 253 255
-0.31167 -0.13484 3.53554 249 253 255
-0.31167 -0.07058 3.47129 191 195 196
-0.31167 -0.10111 3.44075 191 195 196
-0.31167 -0.05866 3.3983 191 195 196
-0.31167 -0.02812 3.42883 191 195 196
-0.31167 -0.39721 3.05974 191 195 196
-0.31167 -0.43967 3.1022 191 195 196
-0.23193 -0.07058 3.47129 191 195 196
-0.23193 -0.02812 3.42883 191 195 196
-0.23193 -0.10111 3.44075 191 195 196
-0.23193 -0.05866 3.3983 191 195 196
-0.23193 -0.43967 3.1022 191 195 196
-0.23193 -0.39721 3.05974 191 195 196
-0.31167 0.04761 3.3531 249 253 255
-0.23193 0.04761 3.3531 249 253 255
-0.23193 -0.02812 3.42883 249 253 255
-0.31167 -0.02812 3.42883 249 253 255
-0.31167 0.04761 3.3531 191 195 196
-0.31167 0.01707 3.32257 191 195 196
-0.31167 0.06067 3.27896 191 195 196
-0.31167 0.09121 3.3095 191 195 196
-0.31167 -0.24748 2.97081 191 195 196
-0.31167 -0.29108 3.01441 191 195 196
-0.23193 0.04761 3.3531 191 195 196
-0.23193 0.09121 3.3095 191 195 196
-0.23193 0.01707 3.32257 191 195 196
-0.23193 0.06067 3.27896 191 195 196
-0.23193 -0.29108 3.01441 191 195 196
-0.23193 -0.24748 2.97081 191 195 196
0.12233 -1.13209 2.78461 243 247 249
0.14711 -1.38005 2.95789 243 247 249
0.31282 -1.38005 2.95789 243 247 249
0.3376 -1.13209 2.78461 243 247 249
0.31282 -1.3052 3.08015 243 247 249
0.3376 -1.04739 2.95717 243 247 249
0.12233 -1.04739 2.95717 243 247 249
0.14711 -1.3052 3.08015 243 247 249
0.29556 -1.38933 2.99312 243 247 249
0.16437 -1.38933 2.99312 243 247 249
0.29556 -1.33954 3.07571 243 247 249
0.16437 -1.33954 3.07571 243 247 249
0.14711 -1.3052 3.08015 249 253 255
0.12233 -1.04739 2.95717 249 253 255
0.3376 -1.04739 2.95717 249 253 255
0.31282 -1.3052 3.08015 249 253 255
-1.29565 -0.67379 1.40918 61 130 203
-1.29565 -0.67379 1.50407 61 130 203
-1.23418 -0.73232 1.50407 61 130 203
-1.23418 -0.73232 1.40918 61 130 203
-1.29565 -0.26276 1.40918 61 130 203
-1.29565 -0.26276 1.50407 61 130 203
-1.26046 -0.64639 1.36324 61 130 203
-1.20718 -0.69711 1.36324 61 130 203
-0.85679 -0.69711 1.36324 61 130 203
-0.80278 -0.64639 1.36324 61 130 203
-0.82988 -0.73232 1.40918 61 130 203
-1.26046 -0.29016 1.36324 61 130 203
-0.76757 -0.67379 1.40918 61 130 203
-0.80278 -0.29016 1.36324 61 130 203
-1.20718 -0.23944 1.36324 61 130 203
-1.23418 -0.20423 1.40918 61 130 203
-0.85679 -0.23944 1.36324 61 130 203
-0.82988 -0.20423 1.40918 61 130 203
-0.82988 -0.20423 1.50407 61 130 203
-1.23418 -0.20423 1.50407 61 130 203
-0.76757 -0.26276 1.50407 61 130 203
-0.76757 -0.26276 1.40918 61 130 203
-0.76757 -0.67379 1.50407 61 130 203
-0.82988 -0.73232 1.50407 61 130 203
-0.80278 -0.29016 1.84785 55 117 183
-0.80278 -0.64639 1.84785 55 117 183
-1.26046 -0.64639 1.84785 55 117 183
-1.26046 -0.29016 1.84785 55 117 183
-0.85679 -0.23944 1.84785 55 117 183
-0.76757 -0.26276 1.80402 55 117 183
-0.82988 -0.20423 1.80402 55 117 183
-1.20718 -0.23944 1.84785 55 117 183
-1.23418 -0.20423 1.80402 55 117 183
-1.29565 -0.26276 1.80402 55 117 183
-1.23418 -0.20423 1.50407 55 117 183
-1.29565 -0.26276 1.50407 55 117 183
-1.29565 -0.67379 1.80402 55 117 183
-1.20718 -0.69711 1.84785 55 117 183
-1.23418 -0.73232 1.80402 55 117 183
-0.85679 -0.69711 1.84785 55 117 183
-0.82988 -0.73232 1.80402 55 117 183
-0.76757 -0.67379 1.80402 55 117 183
-0.76757 -0.67379 1.50407 55 117 183
-0.82988 -0.73232 1.50407 55 117 183
-1.19349 -0.73232 1.77534 55 117 183
-1.02591 -0.73232 1.77534 55 117 183
-1.29565 -0.67379 1.50407 55 117 183
-1.23418 -0.73232 1.50407 55 117 183
-1.19349 -0.73232 1.61168 55 117 183
-1.02591 -0.73232 1.61168 55 117 183
-1.19349 -0.73232 1.77534 184 211 240
-1.02591 -0.73232 1.77534 184 211 240
-1.02591 -0.73232 1.61168 184 211 240
-1.19349 -0.73232 1.61168 184 211 240
-0.76757 -0.26276 1.50407 55 117 183
-0.82988 -0.20423 1.50407 55 117 183
-1.22387 -0.5919 1.87613 61 130 203
-1.22387 -0.5919 1.93666 61 130 203
-1.17627 -0.63722 1.93666 61 130 203
-1.17627 -0.63722 1.87613 61 130 203
-1.22387 -0.30914 1.87613 61 130 203
-1.22387 -0.30914 1.93666 61 130 203
-1.19662 -0.57068 1.84057 61 130 203
-1.15536 -0.60996 1.84057 61 130 203
-0.89207 -0.63722 1.87613 61 130 203
-0.9129 -0.60996 1.84057 61 130 203
-1.19662 -0.33036 1.84057 61 130 203
-0.84381 -0.5919 1.87613 61 130 203
-0.87108 -0.57068 1.84057 61 130 203
-0.84381 -0.5919 1.93666 61 130 203
-0.84381 -0.30914 1.93666 61 130 203
-0.84381 -0.30914 1.87613 61 130 203
-0.89207 -0.26382 1.87613 61 130 203
-0.89207 -0.26382 1.93666 61 130 203
-1.17627 -0.26382 1.87613 61 130 203
-1.17627 -0.26382 1.93666 61 130 203
-0.9129 -0.29108 1.84057 61 130 203
-1.15536 -0.29108 1.84057 61 130 203
-0.87108 -0.33036 1.84057 61 130 203
-0.89207 -0.63722 1.93666 61 130 203
-0.87108 -0.33036 2.19175 55 117 183
-0.87108 -0.57068 2.19175 55 117 183
-1.19662 -0.57068 2.19175 55 117 183
-1.19662 -0.33036 2.19175 55 117 183
-0.9129 -0.29108 2.19175 55 117 183
-0.84381 -0.30914 2.1578 55 117 183
-0.89207 -0.26382 2.1578 55 117 183
-1.15536 -0.29108 2.19175 55 117 183
-1.17627 -0.26382 2.1578 55 117 183
-1.22387 -0.30914 2.1578 55 117 183
-1.17627 -0.26382 1.93666 55 117 183
-1.22387 -0.30914 1.93666 55 117 183
-1.22387 -0.5919 2.1578 55 117 183
-1.15536 -0.60996 2.19175 55 117 183
-1.17627 -0.63722 2.1578 55 117 183
-0.9129 -0.60996 2.19175 55 117 183
-0.89207 -0.63722 2.1578 55 117 183
-0.84381 -0.5919 2.1578 55 117 183
-0.84381 -0.5919 1.93666 55 117 183
-0.89207 -0.63722 1.93666 55 117 183
-1.04386 -0.63722 2.03294 55 117 183
-1.04386 -0.63722 2.1356 55 117 183
-1.14476 -0.63722 2.1356 55 117 183
-1.22387 -0.5919 1.93666 55 117 183
-1.17627 -0.63722 1.93666 55 117 183
-0.84381 -0.30914 1.93666 55 117 183
-1.14476 -0.63722 2.03294 55 117 183
-1.14476 -0.63722 2.1356 184 211 240
-1.04386 -0.63722 2.1356 184 211 240
-1.04386 -0.63722 2.03294 184 211 240
-1.14476 -0.63722 2.03294 184 211 240
-0.89207 -0.26382 1.93666 55 117 183
-1.12095 -0.53704 2.18796 127 173 221
-1.12113 -0.53722 2.36664 127 173 221
-0.94336 -0.53722 2.36664 127 173 221
-0.94354 -0.53704 2.18796 127 173 221
-0.94336 -0.35945 2.36664 127 173 221
-0.94354 -0.35963 2.18796 127 173 221
-1.12095 -0.35963 2.18796 127 173 221
-1.12113 -0.35945 2.36664 127 173 221
-0.9697 -0.51089 2.39925 127 173 221
-1.09479 -0.51089 2.39925 127 173 221
-0.9697 -0.38579 2.39925 127 173 221
-1.09479 -0.38579 2.39925 127 173 221
-1.09479 -0.51089 2.39925 131 178 228
-1.09479 -0.38579 2.39925 131 178 228
-0.9697 -0.38579 2.39925 131 178 228
-0.9697 -0.51089 2.39925 131 178 228
-0.01073 -1.2174 1.78046 61 130 203
-0.01073 -1.2174 1.86699 61 130 203
0.04533 -1.27078 1.86699 61 130 203
0.04533 -1.27078 1.78046 61 130 203
-0.01073 -1.02806 1.78046 61 130 203
-0.01073 -1.02806 1.86699 61 130 203
0.02137 -1.19241 1.73857 61 130 203
0.06995 -1.23867 1.73857 61 130 203
0.38949 -1.23867 1.73857 61 130 203
0.43874 -1.19241 1.73857 61 130 203
0.41403 -1.27078 1.78046 61 130 203
0.02137 -1.02806 1.73857 61 130 203
0.47085 -1.2174 1.78046 61 130 203
0.43874 -1.02806 1.73857 61 130 203
0.47085 -1.02806 1.78046 61 130 203
0.47085 -1.02806 1.86699 61 130 203
0.47085 -1.2174 1.86699 61 130 203
0.41403 -1.27078 1.86699 61 130 203
0.43874 -1.02806 2.1805 55 117 183
0.43874 -1.19241 2.1805 55 117 183
0.02137 -1.19241 2.1805 55 117 183
0.02137 -1.02806 2.1805 55 117 183
-0.01073 -1.02806 2.14053 55 117 183
-0.01073 -1.2174 2.14053 55 117 183
0.06995 -1.23867 2.1805 55 117 183
0.04533 -1.27078 2.14053 55 117 183
0.38949 -1.23867 2.1805 55 117 183
0.41403 -1.27078 2.14053 55 117 183
0.47085 -1.2174 2.14053 55 117 183
0.47085 -1.2174 1.86699 55 117 183
0.41403 -1.27078 1.86699 55 117 183
0.47085 -1.02806 2.14053 55 117 183
0.08244 -1.27078 2.11438 55 117 183
0.23526 -1.27078 2.11438 55 117 183
-0.01073 -1.2174 1.86699 55 117 183
0.04533 -1.27078 1.86699 55 117 183
0.08244 -1.27078 1.96513 55 117 183
0.23526 -1.27078 1.96513 55 117 183
-0.01073 -1.02806 1.86699 55 117 183
0.08244 -1.27078 2.11438 184 211 240
0.23526 -1.27078 2.11438 184 211 240
0.23526 -1.27078 1.96513 184 211 240
0.08244 -1.27078 1.96513 184 211 240
0.47085 -1.02806 1.86699 55 117 183
-0.24543 -1.08098 2.49867 127 173 221
-0.24543 -1.25343 2.2667 127 173 221
-0.24543 -0.33975 2.26725 127 173 221
-0.19256 -0.38567 2.21288 127 173 221
-0.1676 -0.27026 2.26725 127 173 221
-0.24543 -0.33975 3.00139 127 173 221
-0.1676 -0.27026 3.00139 127 173 221
-0.13004 -0.31432 3.05727 127 173 221
-0.20137 -0.37802 3.05727 127 173 221
-0.12252 -0.32313 2.21288 127 173 221
-0.19292 -1.21025 2.21288 127 173 221
0.62754 -0.27026 3.00139 127 173 221
0.62754 -0.27026 2.26725 127 173 221
0.58246 -0.32313 2.21288 127 173 221
-0.24543 -1.25343 2.49867 127 173 221
-0.16761 -1.2353 2.53874 127 173 221
-0.1676 -1.15047 2.53874 127 173 221
0.70536 -0.33975 3.00139 127 173 221
0.70536 -0.33975 2.26725 127 173 221
0.58997 -0.31432 3.05727 127 173 221
0.66131 -0.37802 3.05727 127 173 221
0.6525 -0.38567 2.21288 127 173 221
0.70536 -1.25343 2.2667 127 173 221
0.65286 -1.21025 2.21288 127 173 221
0.58757 -1.27413 2.21288 127 173 221
-0.12764 -1.27413 2.21288 127 173 221
0.70536 -1.08098 2.49867 127 173 221
0.70536 -1.25343 2.49867 127 173 221
0.62754 -1.2353 2.53874 127 173 221
0.62754 -1.15047 2.53874 127 173 221
-0.1676 -1.15047 3.00139 127 173 221
-0.24543 -1.08098 3.00139 127 173 221
-0.20137 -1.04272 3.05727 127 173 221
-0.13004 -1.10642 3.05727 127 173 221
0.62754 -1.15047 3.00139 127 173 221
0.58997 -1.10642 3.05727 127 173 221
0.70536 -1.08098 3.00139 127 173 221
0.66131 -1.04272 3.05727 127 173 221
-0.16762 -1.33624 2.49867 127 173 221
-0.16762 -1.33624 2.2667 127 173 221
-0.12737 -1.27389 2.53874 127 173 221
0.62756 -1.33624 2.49867 127 173 221
0.62756 -1.33624 2.2667 127 173 221
0.58731 -1.27389 2.53874 127 173 221
-0.13004 -1.10642 3.05727 131 178 228
-0.20137 -1.04272 3.05727 131 178 228
0.66131 -1.04272 3.05727 131 178 228
0.58997 -1.10642 3.05727 131 178 228
0.66131 -0.37802 3.05727 131 178 228
-0.20137 -0.37802 3.05727 131 178 228
-0.13004 -0.31432 3.05727 131 178 228
0.58997 -0.31432 3.05727 131 178 228
-0.16761 -1.2353 2.53874 131 178 228
-0.1676 -1.15047 2.53874 131 178 228
0.62754 -1.15047 2.53874 131 178 228
0.62754 -1.2353 2.53874 131 178 228
-0.12737 -1.27389 2.53874 131 178 228
0.58731 -1.27389 2.53874 131 178 228
0.29556 -1.33954 3.07571 249 253 255
0.16437 -1.33954 3.07571 249 253 255
3 0 2 1
3 0 3 2
3 0 1 4
3 0 4 5
3 2 3 6
3 6 3 7
3 6 7 8
3 9 11 10
3 9 12 11
3 13 9 10
3 13 14 9
3 10 15 13
3 11 16 10
3 10 16 15
3 11 17 16
3 18 14 13
3 19 17 11
3 12 19 11
3 12 20 19
3 12 21 20
3 21 22 20
3 19 23 17
3 24 26 25
3 24 27 26
3 25 26 28
3 27 28 26
3 25 28 29
3 30 27 24
3 30 25 29
3 30 24 25
3 30 31 27
3 27 31 28
3 32 34 33
3 32 35 34
3 34 35 36
3 36 35 37
3 38 40 39
3 38 41 40
3 38 42 41
3 38 43 42
3 40 44 39
3 44 45 39
3 44 46 45
3 47 49 48
3 47 50 49
3 51 50 47
3 51 47 52
3 50 51 53
3 49 50 54
3 50 53 54
3 49 54 55
3 56 51 52
3 57 49 55
3 48 49 57
3 48 57 58
3 48 58 59
3 59 58 60
3 57 55 61
3 62 64 63
3 62 65 64
3 65 66 64
3 63 64 66
3 65 67 66
3 68 62 63
3 68 65 62
3 68 67 65
3 68 63 69
3 63 66 69
3 70 72 71
3 70 73 72
3 72 74 71
3 74 75 71
3 76 78 77
3 76 79 78
3 76 77 80
3 77 78 81
3 77 81 82
3 83 79 76
3 83 76 80
3 83 84 79
3 85 84 83
3 85 86 84
3 85 87 86
3 88 86 87
3 89 86 88
3 89 90 86
3 91 90 89
3 91 89 92
3 93 91 92
3 93 92 94
3 95 93 94
3 96 95 94
3 94 97 96
3 94 98 97
3 96 97 99
3 96 99 100
3 100 99 101
3 100 101 102
3 103 100 102
3 103 96 100
3 103 95 96
3 104 103 102
3 105 104 102
3 105 102 106
3 106 107 105
3 106 108 107
3 109 107 108
3 109 108 110
3 111 109 110
3 111 110 112
3 113 80 114
3 113 115 80
3 113 114 88
3 88 114 89
3 92 89 114
3 92 114 98
3 92 98 94
3 113 88 87
3 83 80 115
3 83 115 85
3 80 82 116
3 117 116 82
3 117 118 116
3 80 77 82
3 82 119 117
3 82 81 119
3 118 117 120
3 118 120 121
3 122 121 120
3 122 123 121
3 117 124 120
3 117 119 124
3 120 125 122
3 120 124 125
3 122 125 126
3 122 126 127
3 123 122 127
3 123 127 128
3 126 129 127
3 128 127 129
3 128 129 130
3 129 131 130
3 129 132 131
3 126 132 129
3 128 130 133
3 128 133 134
3 135 128 134
3 135 134 136
3 130 137 133
3 130 131 137
3 110 135 136
3 110 136 112
3 108 135 110
3 106 135 108
3 102 135 106
3 102 101 135
3 138 140 139
3 138 141 140
3 142 139 140
3 142 143 139
3 143 142 144
3 143 144 145
3 146 145 144
3 146 144 147
3 146 147 148
3 146 148 149
3 150 152 151
3 150 153 152
3 154 150 151
3 154 151 155
3 156 154 155
3 156 155 157
3 158 156 157
3 158 157 159
3 160 158 159
3 160 159 161
3 162 160 161
3 162 161 163
3 163 164 162
3 163 165 164
3 166 164 165
3 166 165 167
3 168 166 167
3 168 167 169
3 170 152 153
3 170 171 152
3 172 174 173
3 172 175 174
3 172 173 176
3 174 176 173
3 172 176 177
3 175 172 177
3 174 178 176
3 179 174 175
3 179 178 174
3 175 177 179
3 180 176 178
3 181 176 180
3 180 178 182
3 183 182 178
3 183 184 182
3 184 183 185
3 184 185 186
3 181 187 176
3 181 188 187
3 189 187 188
3 189 188 190
3 191 189 190
3 191 190 192
3 181 193 188
3 181 194 193
3 195 193 194
3 195 194 196
3 197 195 196
3 197 196 198
3 199 183 178
3 199 178 179
3 181 200 194
3 201 200 181
3 201 202 200
3 203 200 202
3 203 202 204
3 205 203 204
3 205 204 206
3 201 207 202
3 208 207 201
3 209 208 201
3 210 208 209
3 210 211 208
3 212 211 210
3 212 213 211
3 210 209 214
3 210 214 215
3 210 216 212
3 210 215 216
3 209 201 217
3 217 214 209
3 218 211 213
3 218 219 211
3 219 208 211
3 219 207 208
3 199 214 217
3 220 222 221
3 220 223 222
3 224 226 225
3 224 227 226
3 228 225 226
3 228 229 225
3 230 232 231
3 230 233 232
3 231 232 227
3 231 227 224
3 234 236 235
3 234 237 236
3 237 238 236
3 237 239 238
3 238 239 240
3 238 240 241
3 241 240 242
3 241 242 243
3 244 245 177
3 246 245 244
3 246 244 247
3 248 246 247
3 248 247 249
3 177 245 250
3 177 250 251
3 252 251 250
3 252 250 253
3 254 252 253
3 254 253 255
3 177 251 256
3 177 256 179
3 179 256 257
3 258 257 256
3 258 256 259
3 260 258 259
3 260 259 261
3 179 257 214
3 179 214 199
3 262 264 263
3 262 265 264
3 265 266 264
3 265 267 266
3 263 268 262
3 263 269 268
3 269 270 268
3 269 271 270
3 271 272 270
3 271 273 272
3 274 276 275
3 274 277 276
3 278 280 279
3 278 281 280
3 281 282 280
3 281 283 282
3 279 284 278
3 279 285 284
3 285 286 284
3 285 287 286
3 287 288 286
3 287 289 288
3 290 292 291
3 290 293 292
3 294 296 295
3 294 297 296
3 297 298 296
3 297 299 298
3 295 300 294
3 295 301 300
3 301 302 300
3 301 303 302
3 303 304 302
3 303 305 304
3 306 308 307
3 306 309 308
3 306 310 309
3 308 309 310
3 306 311 310
3 307 311 306
3 308 310 312
3 313 308 312
3 313 307 308
3 307 313 311
3 314 312 310
3 315 314 310
3 314 316 312
3 317 312 316
3 317 316 318
3 318 319 317
3 318 320 319
3 315 310 321
3 315 321 322
3 323 322 321
3 323 324 322
3 325 324 323
3 325 326 324
3 315 322 327
3 315 327 328
3 329 328 327
3 329 330 328
3 331 330 329
3 331 332 330
3 333 312 317
3 333 313 312
3 315 328 334
3 335 315 334
3 335 334 336
3 337 336 334
3 337 338 336
3 339 338 337
3 339 340 338
3 335 336 341
3 342 335 341
3 343 335 342
3 344 343 342
3 344 342 345
3 346 344 345
3 346 345 347
3 344 348 343
3 344 349 348
3 344 350 349
3 344 346 350
3 343 351 335
3 351 343 348
3 352 347 345
3 352 345 353
3 353 342 341
3 353 345 342
3 333 351 348
3 313 333 348
3 313 348 354
3 313 354 355
3 356 355 354
3 356 357 355
3 358 357 356
3 358 359 357
3 311 313 355
3 311 355 360
3 311 360 361
3 362 361 360
3 362 363 361
3 364 363 362
3 364 365 363
3 311 361 366
3 367 311 366
3 368 367 366
3 368 369 367
3 370 369 368
3 370 371 369
3 372 374 373
3 372 375 374
3 376 378 377
3 376 379 378
3 380 378 379
3 380 379 381
3 382 384 383
3 382 385 384
3 385 377 384
3 385 376 377
3 386 388 387
3 386 389 388
3 387 388 390
3 387 390 391
3 390 392 391
3 390 393 392
3 393 394 392
3 393 395 394
3 396 398 397
3 396 399 398
3 397 398 400
3 397 400 401
3 399 396 402
3 399 402 403
3 403 402 404
3 403 404 405
3 405 404 406
3 405 406 407
3 408 410 409
3 408 411 410
3 412 414 413
3 412 415 414
3 413 414 416
3 413 416 417
3 415 412 418
3 415 418 419
3 419 418 420
3 419 420 421
3 421 420 422
3 421 422 423
3 424 426 425
3 424 427 426
3 428 430 429
3 428 431 430
3 429 430 432
3 429 432 433
3 431 428 434
3 431 434 435
3 435 434 436
3 435 436 437
3 437 436 438
3 437 438 439
3 440 442 441
3 440 443 442
3 443 444 442
3 443 445 444
3 446 440 441
3 446 441 447
3 441 442 448
3 441 448 449
3 447 441 449
3 449 448 450
3 442 450 448
3 442 444 450
3 449 450 451
3 447 449 451
3 452 454 453
3 452 455 454
3 456 458 457
3 456 459 458
3 460 456 457
3 460 457 461
3 459 456 462
3 459 462 463
3 464 463 462
3 464 462 465
3 466 463 464
3 466 459 463
3 458 459 466
3 456 467 462
3 456 460 467
3 468 464 465
3 468 466 464
3 465 462 467
3 465 467 469
3 469 467 470
3 460 470 467
3 460 471 470
3 471 472 470
3 469 470 472
3 471 473 472
3 473 469 472
3 471 474 473
3 471 475 474
3 473 474 476
3 473 476 477
3 473 477 469
3 468 477 476
3 468 476 478
3 477 465 469
3 477 468 465
3 461 471 460
3 461 475 471
3 478 466 468
3 478 479 466
3 458 466 479
3 480 482 481
3 480 483 482
3 484 483 480
3 485 484 480
3 485 486 484
3 486 487 484
3 484 487 483
3 486 488 487
3 488 483 487
3 488 489 483
3 489 488 490
3 489 490 491
3 489 482 483
3 489 492 482
3 481 482 493
3 492 493 482
3 491 492 489
3 492 494 493
3 494 495 493
3 494 496 495
3 496 481 495
3 481 493 495
3 496 497 481
3 496 498 497
3 496 499 498
3 497 480 481
3 497 485 480
3 496 494 500
3 496 500 501
3 502 494 492
3 502 503 494
3 504 503 499
3 494 504 500
3 494 503 504
3 504 499 505
3 505 496 501
3 505 499 496
3 491 502 492
3 506 508 507
3 506 509 508
3 498 485 497
3 498 510 485
3 510 486 485
3 510 511 486
3 511 488 486
3 511 490 488
3 512 514 513
3 512 515 514
3 516 512 513
3 516 513 517
3 515 512 518
3 515 518 519
3 520 515 519
3 514 515 520
3 520 519 521
3 512 522 518
3 512 516 522
3 523 520 521
3 523 521 524
3 525 520 523
3 523 526 525
3 523 527 526
3 528 526 527
3 528 529 526
3 530 529 528
3 530 531 529
3 530 528 532
3 530 532 533
3 516 530 533
3 516 533 522
3 528 534 532
3 528 527 534
3 527 524 534
3 527 523 524
3 517 530 516
3 517 531 530
3 525 535 520
3 514 520 535
3 536 538 537
3 536 539 538
3 540 539 536
3 541 540 536
3 541 542 540
3 542 543 540
3 540 543 539
3 542 544 543
3 544 539 543
3 544 545 539
3 545 544 546
3 545 546 547
3 545 538 539
3 545 548 538
3 537 538 549
3 548 549 538
3 547 548 545
3 548 550 549
3 550 551 549
3 550 552 551
3 552 537 551
3 537 549 551
3 552 553 537
3 552 554 553
3 552 555 554
3 553 536 537
3 553 541 536
3 554 541 553
3 556 555 552
3 556 552 557
3 552 558 557
3 552 550 558
3 559 550 548
3 559 560 550
3 560 558 550
3 556 560 555
3 554 561 541
3 547 559 548
3 560 562 558
3 556 562 560
3 563 565 564
3 563 566 565
3 567 544 542
3 567 546 544
3 561 567 542
3 561 542 541
3 568 570 569
3 568 571 570
3 571 572 570
3 571 573 572
3 574 568 569
3 574 569 575
3 569 570 576
3 569 576 577
3 570 578 576
3 570 572 578
3 579 578 572
3 579 572 575
3 575 577 579
3 575 569 577
3 575 572 573
3 575 573 574
3 580 582 581
3 580 583 582
3 584 586 585
3 584 587 586
3 588 584 585
3 588 585 589
3 587 584 590
3 587 590 591
3 592 591 590
3 592 590 593
3 594 591 592
3 594 587 591
3 586 587 594
3 584 595 590
3 584 588 595
3 593 590 595
3 596 592 593
3 596 594 592
3 593 595 597
3 598 593 597
3 598 596 593
3 596 598 599
3 596 599 600
3 600 594 596
3 600 601 594
3 586 594 601
3 602 604 603
3 602 605 604
3 606 604 605
3 606 607 604
3 607 608 604
3 603 604 608
3 607 609 608
3 609 610 608
3 603 608 610
3 609 611 610
3 611 603 610
3 611 612 603
3 612 602 603
3 611 613 612
3 611 614 613
3 612 615 602
3 611 609 616
3 611 616 617
3 618 609 607
3 618 619 609
3 620 619 614
3 609 620 616
3 609 619 620
3 620 614 621
3 621 611 617
3 621 614 611
3 622 607 606
3 622 618 607
3 623 625 624
3 623 626 625
3 613 615 612
3 613 627 615
3 628 630 629
3 631 629 630
3 632 631 630
3 632 630 633
3 632 633 634
3 633 635 634
3 633 636 635
3 632 637 631
3 631 638 629
3 632 634 639
3 635 639 634
3 632 639 640
3 637 632 640
3 637 640 641
3 628 629 642
3 628 642 643
3 628 643 644
3 640 639 645
3 640 645 646
3 635 647 639
3 645 639 647
3 645 647 648
3 640 649 641
3 640 646 649
3 637 641 649
3 649 646 650
3 649 650 651
3 637 649 631
3 631 651 638
3 631 649 651
3 638 651 652
3 638 652 653
3 654 650 646
3 650 654 655
3 654 656 655
3 654 657 656
3 658 628 644
3 658 659 628
3 658 660 659
3 658 661 660
3 659 660 636
3 659 636 633
3 661 658 662
3 661 662 663
3 658 657 662
3 658 644 657
3 662 657 654
3 662 654 664
3 654 645 664
3 654 646 645
3 662 665 663
3 662 664 665
3 664 648 665
3 664 645 648
3 642 667 666
3 642 629 667
3 642 666 668
3 642 668 643
3 638 667 629
3 638 653 667
3 667 669 666
3 667 670 669
3 653 670 667
3 653 652 670
3 655 669 670
3 655 670 650
3 666 671 668
3 666 669 671
3 655 671 669
3 655 656 671
3 651 670 652
3 651 650 670
3 672 674 673
3 672 675 674
3 673 674 676
3 673 676 677
3 677 679 678
3 677 676 679
3 680 682 681
3 680 683 682
3 684 683 680
3 684 685 683
3 630 659 633
3 630 628 659
3 455 687 686
3 455 452 687
