mtllib Vivillon_Area2.mtl
v -0.0810672 0.300509 -0.0203175
vt 0.810799 0.826887
vn -0.9964656 0.08283247 0.0139693
v -0.0382249 0.256163 -0.0894995
vt 0.841982 0.758167
vn -0.448828 -0.281769 -0.8480329
v -0.0764499 0.246104 -0.0296293
vt 0.810987 0.757893
vn -0.9155646 -0.3962748 -0.06861267
v -0.0405336 0.31234 -0.0895196
vt 0.846642 0.827456
vn -0.4777032 0.2222401 -0.8499464
v -0.0382249 0.236282 0.0277587
vt 0.781263 0.757407
vn -0.4437129 -0.557339 0.7017779
v -0.0312908 0.387503 -0.0575139
vt 0.836739 0.926653
vn -0.4573187 0.5098757 -0.7286195
v -0.0405336 0.288656 0.0488809
vt 0.774957 0.826289
vn -0.472509 -0.0866287 0.877058
v -0.0625817 0.378842 -0.0069102
vt 0.810528 0.926224
vn -0.9282601 0.366602 0.06273891
v -0.0312908 0.370181 0.0436935
vt 0.784318 0.925796
vn -0.457323 0.238545 0.85671
v 0 0.202835 -0.0370352
vt 0.811137 0.703021
vn 0 -0.9859682 -0.166933
v 0.0405336 0.31234 -0.0895196
vn 0.477704 0.22224 -0.849946
v 0.038225 0.256163 -0.0894995
vn 0.448828 -0.281769 -0.8480329
v 0.0405336 0.288656 0.0488809
vn 0.472509 -0.0866287 0.877058
v 0.0382249 0.236282 0.0277587
vn 0.4437129 -0.557339 0.7017779
v 0 0.426257 0.00120517
vt 0.810364 0.986353
vn 0 0.9856666 0.1687049
v 0.0810672 0.300509 -0.0203175
vn 0.9964656 0.08283237 0.0139697
v 0.0764499 0.246104 -0.0296293
vn 0.9155647 -0.3962749 -0.06861237
v 0.0312908 0.387503 -0.0575139
vn 0.457319 0.5098761 -0.728619
v 0.0312908 0.370181 0.0436935
vn 0.457323 0.238545 0.85671
v 0.0625817 0.378842 -0.00691019
vn 0.9282601 0.366602 0.06273921
v -0.101977 0.430127 0.0132582
vt 0.938731 0.632179
vn -0.3831299 -0.9236907 -0.002660339
v 0 0.421816 -0.0742102
vt 0.958122 0.621791
vn 0 -0.9256839 -0.378298
v 0 0.412259 0.0132582
vt 0.938731 0.609844
vn 0 -0.9991964 0.04008342
v -0.107698 0.465804 -0.0895452
vt 0.961522 0.676775
vn -0.4669001 -0.7343122 -0.4927371
v -0.0369736 0.435731 0.114281
vt 0.916335 0.639184
vn -0.1621449 -0.8764687 0.4533339
v -0.17088 0.475077 0.0132582
vt 0.938731 0.688367
vn -0.73202 -0.680818 -0.0251743
v -0.126648 0.47732 0.105882
vt 0.918197 0.691171
vn -0.529846 -0.726246 0.437984
v 0.101977 0.430127 0.0132582
vn 0.3831299 -0.9236907 -0.002660109
v 0 0.46886 -0.131103
vt 0.970735 0.680596
vn 2.01806E-05 -0.674618 -0.738167
v 0.107698 0.465804 -0.0895452
vn 0.4668948 -0.7343097 -0.4927458
v -0.0491003 0.481193 0.165105
vt 0.905068 0.696012
vn -0.1684179 -0.6456376 0.7448406
v 0.0369736 0.435731 0.114281
vn 0.1621449 -0.8764687 0.4533339
v -0.15852 0.524615 -0.0833906
vt 0.960157 0.75029
vn -0.8105423 0.004321431 -0.5856642
v -0.178524 0.524615 0.0872053
vt 0.922338 0.75029
vn -0.9138489 0.0205144 0.4055359
v -0.186965 0.524824 -0.00511921
vt 0.942805 0.750551
vn -0.9877576 0.07985467 -0.134008
v 0.0697416 0.524615 -0.161505
vt 0.977478 0.750288
vn 0.338373 0.00203176 -0.9410099
v -0.0697331 0.524614 -0.161518
vn -0.3383179 0.00202897 -0.9410297
v 0.0491004 0.481193 0.165105
vn 0.168418 -0.645637 0.744841
v -0.126429 0.524615 0.147206
vt 0.909036 0.75029
vn -0.6194442 0.05985982 0.7827553
v -0.0391038 0.524615 0.191782
vt 0.899154 0.75029
vn -0.201813 -0.06801289 0.9770598
v 0.17088 0.475077 0.0132582
vn 0.73202 -0.680818 -0.0251742
v 0.126648 0.47732 0.105882
vn 0.529846 -0.726246 0.437984
v -0.157889 0.615338 0.00155954
vt 0.941325 0.863693
vn -0.8371982 0.5304921 -0.132956
v 0 0.624574 -0.131696
vt 0.970866 0.875238
vn 1.425939E-05 0.5309078 -0.8474296
v 0.15852 0.524615 -0.0833906
vn 0.8105418 0.004316349 -0.5856649
v 0.10231 0.621197 -0.087748
vt 0.961123 0.871017
vn 0.5509622 0.5829952 -0.5971242
v 0 0.624058 0.163607
vt 0.9054 0.874593
vn 0 0.5440288 0.8390666
v -0.0602162 0.62164 0.146673
vt 0.913289 0.871571
vn -0.426245 0.573508 0.699574
v 0.0391038 0.524615 0.191782
vn 0.201813 -0.06801289 0.9770598
v 0.126429 0.524615 0.147206
vn 0.6194442 0.05985982 0.7827553
v 0.178524 0.524615 0.0872053
vn 0.9138489 0.0205146 0.4055359
v -0.10231 0.621197 -0.087748
vn -0.5509663 0.5829983 -0.5971173
v -0.0922788 0.687689 0.0211365
vt 0.938696 0.954132
vn -0.5094381 0.8604902 0.005429781
v 0.157889 0.615338 0.00155954
vn 0.8371982 0.5304921 -0.132956
v 0 0.6802 -0.0755076
vt 0.95841 0.94477
vn -5.466642E-05 0.8512433 -0.5247712
v 0.0922788 0.687689 0.0211365
vn 0.5095712 0.8604112 0.005450071
v 0 0.687284 0.0882726
vt 0.922101 0.953625
vn -5.36761E-05 0.863265 0.504751
v 0.186965 0.524824 -0.00511921
vn 0.9877576 0.07985497 -0.134008
v 0.0602162 0.62164 0.146673
vn 0.4262442 0.5735083 0.6995743
v 6.71867E-05 0.712229 0.0167415
vt 0.937959 0.995571
vn 0.0001244 0.9985827 -0.05322358
v 0.0932852 0.3583 0.0566886
vt 0.944702 0.439573
vn 1 0 0
v 0.0621543 0.3583 0.0255577
vt 0.983616 0.439573
vn 0 0 -1
v 0.0621543 0.389431 0.0566886
vt 0.944702 0.478486
vn 0 1 0
v 0.0621543 0.327169 0.0566886
vt 0.944702 0.400659
vn 0 -1 0
v 0.0621543 0.3583 0.0878196
vt 0.905789 0.439573
vn 0 0 1
v 0.0310233 0.3583 0.0566886
vn -1 0 0
v -0.0932852 0.3583 0.0566886
v -0.0621543 0.389431 0.0566886
v -0.0621543 0.3583 0.0255577
v -0.0621543 0.3583 0.0878196
v -0.0621543 0.327169 0.0566886
v -0.0310233 0.3583 0.0566886
v 0.0967928 0.236916 0.0130198
vt 0.815766 0.527999
v 0.0746383 0.229859 -0.00798072
vt 0.843459 0.528031
vn 0 -0.3185419 -0.9479088
v 0.0746383 0.291908 -0.00545985
vt 0.815683 0.600515
vn 0 0.9479091 -0.318541
v 0.0746383 0.181925 0.0314994
vt 0.81585 0.455482
vn 0 -0.9479091 0.318541
v 0.0746383 0.243973 0.0340203
vt 0.788073 0.527967
vn 0 0.3185419 0.9479088
v 0.0524837 0.236916 0.0130198
v -0.0967928 0.236916 0.0130198
v -0.0746383 0.291908 -0.00545985
v -0.0746383 0.229859 -0.00798073
v -0.0746383 0.243973 0.0340203
v -0.0746383 0.181925 0.0314994
v -0.0524837 0.236916 0.0130198
v -0.142516 0.9144999 0.129221
vt 0.687963 0.87471
vn -0.9825121 -0.186199 0
v -0.125325 0.990979 0.124134
vt 0.687963 0.963236
vn -0.1857349 0.9800645 -0.07054237
v -0.11152 0.9181389 0.098168
vt 0.726871 0.87471
vn 0.0131351 -0.06930868 -0.9975088
v -0.112338 0.9224539 0.160275
vt 0.649053 0.87471
vn -0.0131349 0.06930849 0.9975088
v -0.0985341 0.849614 0.134309
vt 0.687963 0.786076
vn 0.1857351 -0.9800644 0.07054293
v -0.0813428 0.9260929 0.129221
vn 0.9825121 0.186199 0
v 0.142516 0.9144999 0.129221
vn 0.9825121 -0.186199 0
v 0.11152 0.9181389 0.098168
vn -0.0131353 -0.06930819 -0.9975088
v 0.125325 0.990979 0.124134
vn 0.185735 0.9800642 -0.07054631
v 0.0985341 0.849614 0.134309
vn -0.185735 -0.9800642 0.07054541
v 0.112338 0.9224539 0.160275
vn 0.0131353 0.06930899 0.9975088
v 0.0813428 0.9260929 0.129221
vn -0.9825121 0.186199 0
v -0.4224924 0.760536 -0.3190683
vt 0.531756 0.553647
vn 0.5090948 0.01231407 -0.8606223
v -0.03154185 0.372776 -0.09335375
vt 0.015632 0.0179911
vn 0.5048292 -0.001480601 -0.863218
v -0.53642 0.598531 -0.3907401
vt 0.718184 0.367865
v -0.1576347 0.672128 -0.166153
vt 0.161592 0.407648
v -0.4515923 0.85827 -0.3358694
vt 0.56115 0.679213
v -0.4836015 0.805978 -0.3543496
vt 0.612125 0.618524
v -0.5086811 0.387211 -0.3688306
vt 0.699522 0.100771
vn 0.4993162 -0.02386281 -0.8660911
v -0.461708 0.953915 -0.3417098
vt 0.565665 0.799556
v -0.3258609 0.345752 -0.2632785
vt 0.441708 0.0243666
v -0.4957412 0.895528 -0.3613591
vt 0.614595 0.731585
vn -0.5048292 0.001480401 0.863218
vn -0.4993162 0.02386261 0.8660911
vn -0.5090948 -0.01231407 0.8606223
v -0.3258609 0.345752 -0.2632795
v 0.4224944 0.760536 -0.3190763
vn -0.5090941 0.01231387 -0.8606228
v 0.536422 0.598531 -0.3907471
vn -0.5074641 -0.0001853596 -0.8616729
v 0.03154374 0.372776 -0.09336105
v 0.1576367 0.672128 -0.166161
v 0.4515943 0.85827 -0.3358764
v 0.4836034 0.805978 -0.3543566
v 0.5086831 0.387211 -0.3688376
vn -0.4993162 -0.02386241 -0.8660911
v 0.46171 0.953915 -0.3417168
v 0.3258629 0.345752 -0.2632855
v 0.4957433 0.895528 -0.3613661
vn 0.5048292 0.001480401 0.863218
vn 0.4993162 0.02386241 0.8660911
v 0.3258629 0.345752 -0.2632865
vn 0.5090941 -0.01231398 0.8606228
v -0.10537 0.8514159 0.127907
vt 0.697525 0.709684
vn -0.8156309 0.138394 -0.561777
v -0.0989327 0.8535109 0.139598
vt 0.682759 0.711226
vn -0.03749548 0.4714198 0.8811116
v -0.0923807 0.8538129 0.127369
vt 0.697976 0.712722
vn 0.697164 0.418915 -0.581784
v -0.0646375 0.6711069 0.146982
vt 0.690247 0.483157
vn -0.122937 -0.876893 -0.464699
v 0.10537 0.8514159 0.127907
vn 0.8156309 0.138394 -0.561777
v 0.0923807 0.8538129 0.127369
vn -0.697164 0.418915 -0.581784
v 0.0989327 0.8535109 0.139598
vn 0.03749548 0.4714198 0.8811116
v 0.0646375 0.6711069 0.146982
vn 0.122937 -0.876893 -0.464699
v -0.02815772 0.372159 -0.1026488
vt 0.0712267 0.433017
vn 0.5516186 -0.1250798 -0.8246648
v -0.3754582 0.11071 -0.2952987
vt 0.284596 0.987723
v -0.3911813 0.319398 -0.3374725
vt 0.0180575 0.974824
v -0.2333907 -0.00424789 -0.1828312
vt 0.475246 0.799066
vn -0.5516186 0.1250798 0.8246648
v 0.3754602 0.11071 -0.2953057
vn -0.5516186 -0.1250798 -0.8246648
v 0.02815961 0.372159 -0.1026568
v 0.3911833 0.319398 -0.3374795
v 0.2333927 -0.00424789 -0.1828382
vn 0.5516186 0.1250798 0.8246648
vt 0.971483 0.0578237
vt 0.853223 0.118485
vt 0.848732 0.0578237
vt 0.96699 0.118485
o merged_0_0_node
g polygon_0
usemtl mat_body_mat_id
f 1/1/1 2/2/2 3/3/3
f 1/1/1 4/4/4 2/2/2
f 1/1/1 3/3/3 5/5/5
f 1/1/1 6/6/6 4/4/4
f 1/1/1 5/5/5 7/7/7
f 1/1/1 8/8/8 6/6/6
f 1/1/1 7/7/7 9/9/9
f 1/1/1 9/9/9 8/8/8
f 2/2/2 10/10/10 3/3/3
f 2/2/2 4/4/4 11/4/11
f 2/2/2 12/2/12 10/10/10
f 2/2/2 11/4/11 12/2/12
f 4/4/4 6/6/6 11/4/11
f 3/3/3 10/10/10 5/5/5
f 7/7/7 13/7/13 9/9/9
f 7/7/7 5/5/5 14/5/14
f 7/7/7 14/5/14 13/7/13
f 5/5/5 10/10/10 14/5/14
f 8/8/8 15/11/15 6/6/6
f 8/8/8 9/9/9 15/11/15
f 12/2/12 11/4/11 16/1/16
f 12/2/12 17/3/17 10/10/10
f 12/2/12 16/1/16 17/3/17
f 14/5/14 16/1/16 13/7/13
f 14/5/14 10/10/10 17/3/17
f 14/5/14 17/3/17 16/1/16
f 6/6/6 15/11/15 18/6/18
f 6/6/6 18/6/18 11/4/11
f 11/4/11 18/6/18 16/1/16
f 9/9/9 13/7/13 19/9/19
f 9/9/9 19/9/19 15/11/15
f 13/7/13 16/1/16 19/9/19
f 18/6/18 15/11/15 20/8/20
f 18/6/18 20/8/20 16/1/16
f 20/8/20 15/11/15 19/9/19
f 20/8/20 19/9/19 16/1/16
f 21/12/21 22/13/22 23/14/23
f 21/12/21 24/15/24 22/13/22
f 21/12/21 23/14/23 25/16/25
f 21/12/21 26/17/26 24/15/24
f 21/12/21 25/16/25 27/18/27
f 21/12/21 27/18/27 26/17/26
f 22/13/22 28/12/28 23/14/23
f 22/13/22 24/15/24 29/19/29
f 22/13/22 30/15/30 28/12/28
f 22/13/22 29/19/29 30/15/30
f 25/16/25 31/20/31 27/18/27
f 25/16/25 23/14/23 32/16/32
f 25/16/25 32/16/32 31/20/31
f 23/14/23 28/12/28 32/16/32
f 26/17/26 33/21/33 24/15/24
f 26/17/26 27/18/27 34/22/34
f 26/17/26 35/23/35 33/21/33
f 26/17/26 34/22/34 35/23/35
f 29/19/29 36/24/36 30/15/30
f 29/19/29 24/15/24 37/24/37
f 29/19/29 37/24/37 36/24/36
f 24/15/24 33/21/33 37/24/37
f 31/20/31 32/16/32 38/20/38
f 31/20/31 39/25/39 27/18/27
f 31/20/31 40/26/40 39/25/39
f 39/25/39 34/22/34 27/18/27
f 28/12/28 30/15/30 41/17/41
f 28/12/28 42/18/42 32/16/32
f 28/12/28 41/17/41 42/18/42
f 32/16/32 42/18/42 38/20/38
f 35/23/35 43/27/43 33/21/33
f 36/24/36 37/24/37 44/28/44
f 36/24/36 45/21/45 30/15/30
f 36/24/36 44/28/44 46/29/46
f 36/24/36 46/29/46 45/21/45
f 30/15/30 45/21/45 41/17/41
f 40/26/40 47/30/47 48/31/48
f 40/26/40 49/26/49 47/30/47
f 42/18/42 50/25/50 38/20/38
f 42/18/42 41/17/41 51/22/51
f 42/18/42 51/22/51 50/25/50
f 50/25/50 49/26/49 38/20/38
f 43/27/43 52/29/52 33/21/33
f 43/27/43 53/32/53 52/29/52
f 37/24/37 52/29/52 44/28/44
f 37/24/37 33/21/33 52/29/52
f 46/29/46 54/27/54 45/21/45
f 46/29/46 44/28/44 55/33/55
f 46/29/46 56/32/56 54/27/54
f 46/29/46 55/33/55 56/32/56
f 52/29/52 53/32/53 55/33/55
f 52/29/52 55/33/55 44/28/44
f 48/31/48 47/30/47 57/34/57
f 48/31/48 57/34/57 53/32/53
f 41/17/41 58/23/58 51/22/51
f 41/17/41 45/21/45 58/23/58
f 58/23/58 45/21/45 54/27/54
f 49/26/49 59/31/59 47/30/47
f 59/31/59 56/32/56 57/34/57
f 59/31/59 57/34/57 47/30/47
f 55/33/55 53/32/53 60/35/60
f 55/33/55 60/35/60 56/32/56
f 60/35/60 53/32/53 57/34/57
f 60/35/60 57/34/57 56/32/56
f 61/36/61 62/37/62 63/38/63
f 61/36/61 64/39/64 62/37/62
f 61/36/61 63/38/63 65/40/65
f 61/36/61 65/40/65 64/39/64
f 62/37/62 66/36/66 63/38/63
f 62/37/62 64/39/64 66/36/66
f 66/36/66 65/40/65 63/38/63
f 66/36/66 64/39/64 65/40/65
f 67/36/66 68/38/63 69/37/62
f 67/36/66 70/40/65 68/38/63
f 67/36/66 69/37/62 71/39/64
f 67/36/66 71/39/64 70/40/65
f 68/38/63 72/36/61 69/37/62
f 68/38/63 70/40/65 72/36/61
f 72/36/61 71/39/64 69/37/62
f 72/36/61 70/40/65 71/39/64
f 73/41/61 74/42/67 75/43/68
f 73/41/61 76/44/69 74/42/67
f 73/41/61 75/43/68 77/45/70
f 73/41/61 77/45/70 76/44/69
f 74/42/67 78/41/66 75/43/68
f 74/42/67 76/44/69 78/41/66
f 78/41/66 77/45/70 75/43/68
f 78/41/66 76/44/69 77/45/70
f 79/41/66 80/43/68 81/42/67
f 79/41/66 82/45/70 80/43/68
f 79/41/66 81/42/67 83/44/69
f 79/41/66 83/44/69 82/45/70
f 80/43/68 84/41/61 81/42/67
f 80/43/68 82/45/70 84/41/61
f 84/41/61 83/44/69 81/42/67
f 84/41/61 82/45/70 83/44/69
f 85/46/71 86/47/72 87/48/73
f 85/46/71 88/49/74 86/47/72
f 85/46/71 87/48/73 89/50/75
f 85/46/71 89/50/75 88/49/74
f 86/47/72 90/46/76 87/48/73
f 86/47/72 88/49/74 90/46/76
f 90/46/76 89/50/75 87/48/73
f 90/46/76 88/49/74 89/50/75
f 91/46/77 92/48/78 93/47/79
f 91/46/77 94/50/80 92/48/78
f 91/46/77 93/47/79 95/49/81
f 91/46/77 95/49/81 94/50/80
f 92/48/78 96/46/82 93/47/79
f 92/48/78 94/50/80 96/46/82
f 96/46/82 95/49/81 93/47/79
f 96/46/82 94/50/80 95/49/81
f 97/51/83 98/52/84 99/53/84
f 97/51/83 100/54/84 98/52/84
f 97/51/83 101/55/84 100/54/84
f 97/51/83 102/56/84 101/55/84
f 99/53/84 98/52/84 103/57/85
f 100/54/84 101/55/84 104/58/84
f 98/52/84 105/59/84 103/57/85
f 101/55/84 106/60/84 104/58/84
f 98/52/86 99/53/86 103/57/87
f 98/52/86 97/51/88 99/53/86
f 98/52/86 103/57/87 107/59/86
f 98/52/86 100/54/86 97/51/88
f 100/54/86 101/55/86 97/51/88
f 100/54/86 104/58/86 101/55/86
f 97/51/88 101/55/86 102/56/86
f 104/58/86 106/60/86 101/55/86
f 108/51/89 109/53/90 110/52/90
f 108/51/89 110/52/90 111/54/90
f 108/51/89 111/54/90 112/55/90
f 108/51/89 112/55/90 113/56/90
f 109/53/90 114/57/91 110/52/90
f 111/54/90 115/58/90 112/55/90
f 114/57/91 116/59/90 110/52/90
f 115/58/90 117/60/90 112/55/90
f 110/52/92 114/57/93 109/53/92
f 110/52/92 118/59/92 114/57/93
f 110/52/92 109/53/92 108/51/94
f 110/52/92 108/51/94 111/54/92
f 108/51/94 112/55/92 111/54/92
f 108/51/94 113/56/92 112/55/92
f 111/54/92 112/55/92 115/58/92
f 112/55/92 117/60/92 115/58/92
f 119/61/95 120/62/96 121/63/97
f 119/61/95 122/64/98 120/62/96
f 119/61/95 121/63/97 122/64/98
f 122/64/98 121/63/97 120/62/96
f 123/61/99 124/63/100 125/62/101
f 123/61/99 126/64/102 124/63/100
f 123/61/99 125/62/101 126/64/102
f 126/64/102 125/62/101 124/63/100
f 127/65/103 128/66/103 129/67/103
f 127/65/103 130/68/103 128/66/103
f 128/66/104 127/65/104 129/67/104
f 128/66/104 130/68/104 127/65/104
f 131/66/105 132/65/105 133/67/105
f 131/66/105 134/68/105 132/65/105
f 132/65/106 131/66/106 133/67/106
f 132/65/106 134/68/106 131/66/106
f 38/69/38 40/70/40 31/71/31
f 38/69/38 49/72/49 40/70/40
vt 0.881371 0.878835
vt 0.66537 0.765432
vt 0.947532 0.765693
v -0.133508 0.613318 0.0848589
vt 0.582663 0.87631
vn -0.6897669 0.5532359 0.4670669
vt 0.259041 0.886713
vt 0.401259 0.765432
vt 0.0662778 0.765432
v 0.133508 0.613318 0.0848589
vn 0.6897669 0.5532359 0.4670669
vt 0.710771 0.984568
o merged_1_0_node
g polygon_0
usemtl TEX_ANIM_EYE_mat_id
f 54/73/54 51/74/51 58/75/58
f 135/76/107 43/73/43 34/74/34
f 35/75/35 34/74/34 43/73/43
f 48/77/48 135/76/107 39/78/39
f 135/76/107 34/74/34 39/78/39
f 48/77/48 39/78/39 40/79/40
f 49/79/49 50/78/50 59/77/59
f 136/76/108 59/77/59 50/78/50
f 50/78/50 51/74/51 136/76/108
f 51/74/51 54/73/54 136/76/108
f 56/80/56 136/76/108 54/73/54
f 135/76/107 48/77/48 53/80/53
f 56/80/56 59/77/59 136/76/108
f 53/80/53 43/73/43 135/76/107
