mtllib Slaking.mtl
v -0.173666 0.467067 0.0982814
vt 0.658548 0.0679543
vn -0.5410222 -0.8356303 0.09495804
v -0.157714 0.475096 -0.0194099
vt 1.15295 0.0848172
vn -0.4854508 -0.8483057 -0.2114589
v 0 0.436128 0.088678
vt 0.69889 0.00296944
vn 0 -0.9992223 -0.03943071
v -0.237706 0.594811 -0.00936679
vt 1.11076 0.336268
vn -0.9687199 -0.217492 -0.119495
v 0 0.442411 0.161183
vt 0.394309 0.0161648
vn 0 -0.9367318 0.3500479
v -0.229844 0.567614 0.103529
vt 0.636504 0.279144
vn -0.9481339 -0.242587 0.205411
v -0.145575 0.499453 0.192286
vt 0.263652 0.135978
vn -0.4708091 -0.6747441 0.568383
v 0 0.455246 -0.115227
vt 1.55546 0.0431246
vn 0 -0.9262182 -0.3769881
v -0.216812 0.660489 0.12463
vt 0.547861 0.474218
vn -0.9234756 0.1179109 0.3650888
v -0.225568 0.764178 -0.00936679
vt 1.11076 0.692008
vn -0.9285076 0.3704638 -0.02510459
v 0 0.497255 0.247492
vt 0.0317426 0.131359
vn 0 -0.6293909 0.7770889
v 0.173666 0.467067 0.0982814
vn 0.5410222 -0.8356303 0.09495794
v 0.145575 0.499453 0.192286
vn 0.4708091 -0.6747441 0.568383
v 0.157714 0.475096 -0.0194099
vn 0.4854508 -0.8483057 -0.2114589
v -0.1747 0.574501 0.199779
vt 0.232175 0.293608
vn -0.7122895 -0.005601334 0.7018635
v -0.19657 0.730272 0.1411
vt 0.478675 0.62079
vn -0.788573 0.291905 0.541243
v -0.146911 0.820632 0.137544
vt 0.493614 0.810584
vn -0.5565431 0.6501592 0.5172551
v -0.133997 0.887038 -0.00936679
vt 1.11076 0.950064
vn -0.532078 0.846691 0.0027378
v 0.0837633 0.573639 0.264212
vt 0.0245142 0.291798
vn 0.278816 0.029862 0.9598801
v -0.0837633 0.573639 0.264212
vn -0.278816 0.0298619 0.9598801
v 0.237706 0.594811 -0.00936679
vn 0.9687199 -0.217492 -0.119495
v -0.123908 0.639436 0.199031
vt 0.235317 0.429998
vn -0.454611 0.28461 0.8439941
v -0.0865092 0.727205 0.212691
vt 0.236211 0.614348
vn -0.346851 0.26799 0.8988191
v 0 0.906888 0.0763064
vt 0.750861 0.991757
vn 0 0.9530742 0.3027371
v 0 0.909399 -0.095141
vt 1.47108 0.997031
vn 0 0.9424979 -0.334212
v 0.1747 0.574501 0.199779
vn 0.71229 -0.00560133 0.701863
v 0.229844 0.567614 0.103529
vn 0.9481339 -0.242587 0.205411
v 0 0.660489 0.22834
vt 0.0230585 0.474218
vn 0 0.2764501 0.9610283
v 0 0.841564 0.173436
vt 0.00433987 0.852219
vn 0 0.6865709 0.7270629
v 0 0.724138 0.235707
vt 0.00433987 0.607907
v 0.133997 0.887038 -0.00936679
vn 0.5320787 0.8466905 0.002737788
vt 0.342839 0.886519
v 0.146911 0.820632 0.137544
vn 0.5565438 0.6501588 0.5172548
v 0.216812 0.660489 0.12463
vn 0.9234756 0.1179109 0.3650888
v 0.123908 0.639436 0.199031
vn 0.4546109 0.2846109 0.8439938
v 0.0865092 0.727205 0.212691
vn 0.346851 0.26799 0.8988191
v 0.225568 0.764178 -0.00936679
vn 0.9285076 0.3704638 -0.02510459
v 0.19657 0.730272 0.1411
vn 0.788573 0.291905 0.541243
v 0.146911 0.820632 -0.146234
vt 0.912147 0.498346
vn 0.5803289 0.5906189 -0.5607029
v 0.216812 0.681067 -0.143364
vn 0.8583758 0.05310989 -0.5102649
v 0.0907957 0.681067 -0.247073
vn 0.336156 0.05075319 -0.9404379
v 0 0.823429 -0.206092
vn 0 0.5757762 -0.8176073
v 0.159219 0.541502 -0.156277
vn 0.5785102 -0.5575912 -0.5953302
v -0.146911 0.820632 -0.146234
vn -0.5803289 0.5906189 -0.5607029
v -0.0907958 0.681067 -0.247073
vn -0.3361568 0.05075328 -0.9404375
v 0 0.55377 -0.226179
vn 0 -0.5173362 -0.8557823
v -0.216812 0.681067 -0.143364
vn -0.8583758 0.05310999 -0.5102649
v -0.159219 0.541502 -0.156277
vn -0.5785102 -0.5575912 -0.5953302
v 0.0816302 0.946621 -0.00936679
vt 0.88815 0.519877
vn 0.7242488 -0.6895388 0
v 0.0569904 0.97008 -0.04338801
vn 0 0 -1
v 0.107706 1.02335 -0.00936679
vn 0.6895388 0.7242488 0
v 0.0062747 0.9168121 -0.00936679
vn -0.6895382 -0.7242492 0
v 0.0569904 0.97008 0.0246544
vn 0 0 1
v 0.0323506 0.993539 -0.00936679
vn -0.7242492 0.6895382 0
v -0.0256409 0.993639 -0.0282375
vn 0.7755126 0.5952717 -0.2103139
v -0.0520248 0.962054 -0.0531603
vn 0 -0.3331279 -0.9428816
v -0.09845941 1.02717 -0.0400837
vn -0.6313323 0.7312164 -0.2583451
v -0.0055902 0.919606 -0.00208102
vn 0.6313326 -0.7312165 0.2583438
v -0.0520248 0.984721 0.0109956
vn 0 0.3331279 0.9428816
v -0.07840871 0.953136 -0.0139272
vn -0.7755131 -0.5952711 0.210314
v -0.112882 0.573893 0.242689
vt 0.926995 0.506727
vn -0.5819141 -0.06828841 0.8103781
v -0.134099 0.612966 0.230745
v -0.160744 0.574516 0.208372
vn 0.5819129 0.06828839 -0.8103789
v 0.114974 0.573893 0.242689
vn 0.5819129 -0.06828839 0.8103789
v 0.162837 0.574516 0.208372
v 0.136192 0.612966 0.230745
vn -0.5819129 0.06828849 -0.8103789
o merged_0_0_node
g polygon_0
usemtl mat_kao_mat_id
f 1/1/1 2/2/2 3/3/3
f 1/1/1 4/4/4 2/2/2
f 1/1/1 3/3/3 5/5/5
f 1/1/1 6/6/6 4/4/4
f 1/1/1 5/5/5 7/7/7
f 1/1/1 7/7/7 6/6/6
f 2/2/2 8/8/8 3/3/3
f 4/4/4 6/6/6 9/9/9
f 4/4/4 9/9/9 10/10/10
f 5/5/5 11/11/11 7/7/7
f 5/5/5 3/3/3 12/1/12
f 5/5/5 13/7/13 11/11/11
f 5/5/5 12/1/12 13/7/13
f 8/8/8 14/2/14 3/3/3
f 3/3/3 14/2/14 12/1/12
f 6/6/6 15/12/15 9/9/9
f 6/6/6 7/7/7 15/12/15
f 10/10/10 9/9/9 16/13/16
f 10/10/10 16/13/16 17/14/17
f 10/10/10 17/14/17 18/15/18
f 11/11/11 13/7/13 19/16/19
f 11/11/11 20/16/20 7/7/7
f 11/11/11 19/16/19 20/16/20
f 7/7/7 20/16/20 15/12/15
f 14/2/14 21/4/21 12/1/12
f 9/9/9 15/12/15 22/17/22
f 15/12/15 20/16/20 22/17/22
f 16/13/16 23/18/23 17/14/17
f 18/15/18 17/14/17 24/19/24
f 18/15/18 24/19/24 25/20/25
f 13/7/13 26/12/26 19/16/19
f 13/7/13 12/1/12 27/6/27
f 13/7/13 27/6/27 26/12/26
f 12/1/12 21/4/21 27/6/27
f 20/16/20 28/21/28 22/17/22
f 20/16/20 19/16/19 28/21/28
f 23/18/23 29/22/29 17/14/17
f 23/18/23 30/23/28 29/22/29
f 24/19/24 31/15/30 25/20/25
f 24/19/24 17/14/17 29/24/29
f 24/19/24 32/14/31 31/15/30
f 24/19/24 29/24/29 32/14/31
f 26/12/26 27/6/27 33/9/32
f 26/12/26 34/17/33 19/16/19
f 26/12/26 33/9/32 34/17/33
f 34/17/33 28/21/28 19/16/19
f 27/6/27 21/4/21 33/9/32
f 30/23/28 35/18/34 29/22/29
f 29/22/29 35/18/34 32/14/31
f 31/15/30 32/14/31 36/10/35
f 21/4/21 36/10/35 33/9/32
f 35/18/34 37/13/36 32/14/31
f 37/13/36 36/10/35 32/14/31
f 37/13/36 33/9/32 36/10/35
f 38/25/37 39/25/38 40/25/39
f 38/25/37 36/25/35 39/25/38
f 38/25/37 40/25/39 41/25/40
f 38/25/37 31/25/30 36/25/35
f 38/25/37 41/25/40 25/25/25
f 38/25/37 25/25/25 31/25/30
f 39/25/38 42/25/41 40/25/39
f 39/25/38 36/25/35 21/25/21
f 39/25/38 21/25/21 42/25/41
f 41/25/40 43/25/42 25/25/25
f 41/25/40 40/25/39 44/25/43
f 41/25/40 44/25/43 43/25/42
f 21/25/21 14/25/14 42/25/41
f 25/25/25 43/25/42 18/25/18
f 40/25/39 45/25/44 44/25/43
f 40/25/39 42/25/41 45/25/44
f 14/25/14 8/25/8 42/25/41
f 42/25/41 8/25/8 45/25/44
f 43/25/42 10/25/10 18/25/18
f 43/25/42 44/25/43 46/25/45
f 43/25/42 46/25/45 10/25/10
f 8/25/8 47/25/46 45/25/44
f 8/25/8 2/25/2 47/25/46
f 44/25/43 47/25/46 46/25/45
f 44/25/43 45/25/44 47/25/46
f 10/25/10 46/25/45 4/25/4
f 4/25/4 47/25/46 2/25/2
f 4/25/4 46/25/45 47/25/46
f 48/26/47 49/26/48 50/26/49
f 48/26/47 51/26/50 49/26/48
f 48/26/47 50/26/49 52/26/51
f 48/26/47 52/26/51 51/26/50
f 49/26/48 53/26/52 50/26/49
f 49/26/48 51/26/50 53/26/52
f 53/26/52 52/26/51 50/26/49
f 53/26/52 51/26/50 52/26/51
f 54/26/53 55/26/54 56/26/55
f 54/26/53 57/26/56 55/26/54
f 54/26/53 56/26/55 58/26/57
f 54/26/53 58/26/57 57/26/56
f 55/26/54 59/26/58 56/26/55
f 55/26/54 57/26/56 59/26/58
f 59/26/58 58/26/57 56/26/55
f 59/26/58 57/26/56 58/26/57
f 60/27/59 61/27/59 62/27/59
f 60/27/60 62/27/60 61/27/60
f 63/27/61 64/27/61 65/27/61
f 63/27/62 65/27/62 64/27/62
v -0.226011 0.208753 0
vt 0.0453632 0.409846
vn -0.9426259 0.06022959 -0.328373
v -0.217082 0.08448271 0.0009281391
vt -0.0224048 0.174522
vn -0.9267448 -0.3463459 -0.145563
v -0.144652 0.225347 0.191471
vt 0.38024 0.344262
vn -0.4193711 -0.191291 0.8874321
v -0.108541 0.08448271 0.169886
vt 0.549423 0.105055
vn -0.3415858 -0.6370167 0.6910346
v 0.144652 0.225347 0.191471
vt 1.61976 0.344262
vn 0.4193711 -0.191291 0.8874321
v 0 0.227656 0.211715
vt 1 0.359945
vn 0 0.107112 0.994247
v 0.108541 0.08448271 0.169886
vt 1.45058 0.105055
vn 0.3415858 -0.6370167 0.6910346
v 0.217082 0.08448271 0.0009281391
vt 2.0224 0.174522
vn 0.9267448 -0.3463459 -0.145563
v 0.226011 0.208753 0
vt 1.95464 0.409846
vn 0.9426259 0.06022969 -0.328373
v -0.120089 0.449618 0.128529
vt 0.3041 0.939255
vn -0.08896212 0.7153821 0.6930471
v 0.120089 0.449618 0.128529
vt 1.6959 0.939255
vn 0.08896202 0.7153821 0.6930471
v -0.108131 1.490116E-08 0
vt 0.179947 -0.110538
vn -0.196218 -0.980544 -0.00566148
v -0.108541 0.08448271 -0.202883
vt 0.388557 0.233055
vn -0.4437911 -0.3941521 -0.8047941
v 0 0.035423 0
vt 0.179947 0.144146
vn 0 -0.9999958 0.002911309
vt -0.010281 0.249666
vt 1 -0.0467238
v 0.108131 1.490116E-08 0
vn 0.196218 -0.980544 -0.00566136
v 0.108541 0.08448271 -0.202883
vn 0.4437911 -0.3941521 -0.8047941
vt 0.178908 0.194833
v 0 0.474689 0
vt 1 1.02182
vn 0 0.9998893 0.0148821
v -0.16125 0.449618 0
vt -0.137767 0.429599
vn -0.7979811 0.4651691 -0.383202
v -0.277474 0.356928 0.212454
vt 0.168966 -0.0622563
vn -0.8648472 0.166033 0.4737851
vt 0.0608577 0.391505
v 0.277474 0.356928 0.212455
vn 0.8648472 0.166033 0.4737851
v 0.16125 0.449618 0
vn 0.7979808 0.4651698 -0.3832019
vt 0.331177 0.552001
vt 0.441555 0.444292
o merged_1_0_node
g polygon_0
usemtl mat_body_mat_id
f 66/28/63 67/29/64 68/30/65
f 68/30/65 67/29/64 69/31/66
f 70/32/67 71/33/68 72/34/69
f 72/34/69 71/33/68 69/31/66
f 69/31/66 71/33/68 68/30/65
f 72/34/69 73/35/70 70/32/67
f 70/32/67 73/35/70 74/36/71
f 68/30/65 71/33/68 75/37/72
f 75/37/72 71/33/68 76/38/73
f 71/33/68 70/32/67 76/38/73
f 77/39/74 78/40/75 79/41/76
f 69/42/66 77/39/74 79/41/76
f 72/34/69 69/31/66 79/43/76
f 80/39/77 72/42/69 79/41/76
f 81/40/78 73/44/70 80/39/77
f 75/37/72 76/38/73 82/45/79
f 81/40/78 80/39/77 79/41/76
f 73/44/70 72/42/69 80/39/77
f 69/42/66 67/44/64 77/39/74
f 67/44/64 78/40/75 77/39/74
f 83/46/80 84/47/81 75/48/72
f 76/48/73 85/47/82 86/46/83
f 66/49/63 68/50/65 84/47/81
f 84/47/81 68/50/65 75/48/72
f 66/49/63 84/47/81 83/46/80
f 70/50/67 74/49/71 85/47/82
f 85/47/82 74/49/71 86/46/83
f 70/50/67 85/47/82 76/48/73
vt 0.532004 -0.433107
vt -0.532004 -0.433107
v 0.113006 0.208753 -0.200256
vt 0.446543 -0.0452848
vn 0.4982091 0.1744981 -0.8493162
v -0.113006 0.208753 -0.200256
vt -0.446543 -0.0452848
vn -0.498208 0.174498 -0.849317
vt -1.06401 -0.433107
vt -1.09904 0.256738
vt 1.06401 -0.433107
vt 1.09904 0.256738
v 0.0806253 0.449618 -0.132284
vt 0.310087 0.913044
vn 0.4565107 0.4150817 -0.7869595
v -0.0806252 0.449618 -0.132284
vt -0.310087 0.908183
vn -0.4565101 0.4150811 -0.7869601
vt -0.73549 1.04837
vt 0.73549 1.04837
vt 0.812619 0.149552
vt 1.18738 0.149552
vt 1 0.0738478
vt 0.20628 0.91762
vt -0.20628 0.995129
vt 0 1.12233
vt -0.557078 1.34948
vt -0.11614 0.820502
vt 0.557078 1.34948
vt 0.116141 0.820502
v -0.142768 0.447475 0.0640152
vt 0.214595 0.910774
vn -0.199262 -0.9766752 -0.08000191
v -0.210119 0.460569 0.0719136
v -0.148743 0.45417 -0.00284183
v -0.142768 0.447475 0.0640151
vn 0.199262 0.9766752 0.08000171
v -0.148743 0.45417 -0.00284179
v -0.12858 0.449323 0.0471408
vn -0.2373729 -0.9686586 -0.07317537
v -0.199867 0.472045 -0.0223878
v -0.114164 0.451301 -0.025797
vn 0.2373729 0.9686586 0.07317577
v -0.118772 0.447405 -0.0150674
vn -0.3109071 -0.9438124 -0.112049
v -0.157986 0.470881 -0.104006
v -0.0815771 0.443605 -0.0862677
vn 0.310908 0.9438121 0.112049
v 0.15399 0.448305 0.0640152
vn 0.199262 -0.9766752 -0.08000171
v 0.159965 0.455 -0.00284183
v 0.221342 0.461399 0.0719136
v 0.15399 0.448305 0.0640151
vn -0.199262 0.9766752 0.08000152
v 0.159965 0.455 -0.00284179
v 0.139802 0.450153 0.0471408
vn 0.2373729 -0.9686585 -0.07317656
v 0.125387 0.452131 -0.025797
v 0.21109 0.472875 -0.0223878
vn -0.2373729 0.9686585 0.07317676
v 0.129994 0.448235 -0.0150674
vn 0.310908 -0.9438121 -0.112049
v 0.0927996 0.444435 -0.0862677
v 0.169208 0.471711 -0.104006
vn -0.310908 0.9438121 0.112049
o merged_2_0_node
g polygon_0
usemtl mat_back_mat_id
f 81/51/78 78/52/75 87/53/84
f 87/53/84 78/52/75 88/54/85
f 78/52/75 67/55/64 88/54/85
f 88/54/85 67/55/64 66/56/63
f 81/51/78 87/53/84 73/57/70
f 73/57/70 87/53/84 74/58/71
f 87/53/84 88/54/85 89/59/86
f 89/59/86 88/54/85 90/60/87
f 88/54/85 66/56/63 90/60/87
f 90/60/87 66/56/63 83/61/80
f 87/53/84 89/59/86 74/58/71
f 74/58/71 89/59/86 86/62/83
f 78/63/75 81/64/78 79/65/76
f 89/66/86 90/67/87 82/68/79
f 90/67/87 83/61/80 82/68/79
f 83/61/80 75/69/72 82/70/79
f 76/71/73 86/62/83 82/72/79
f 86/62/83 89/66/86 82/68/79
f 91/73/88 92/73/88 93/73/88
f 94/73/89 95/73/89 92/73/89
f 96/73/90 97/73/90 98/73/90
f 96/73/91 98/73/91 97/73/91
f 99/73/92 100/73/92 101/73/92
f 99/73/93 101/73/93 100/73/93
f 102/73/94 103/73/94 104/73/94
f 105/73/95 104/73/95 106/73/95
f 107/73/96 108/73/96 109/73/96
f 107/73/97 109/73/97 108/73/97
f 110/73/98 111/73/98 112/73/98
f 110/73/99 112/73/99 111/73/99
v 0.0824069 0.625624 0.268919
vt 1 0.710336
vn 0.7996316 0.2191279 0.5590817
v 0.02843 0.568676 0.258294
vt 0.344996 0.0192831
vn 0.3782771 -0.6333962 0.6750672
v 0.0805034 0.594374 0.213964
vt 0.976901 0.331124
vn 0.9709558 -0.220877 0.09196808
v 0.0509302 0.668314 0.213295
vt 0.618034 1.22838
vn 0.461959 0.8662319 0.190358
v 0 0.60553 0.295928
vt 0 0.466495
vn 0 -0.1583921 0.9873763
v 0 0.652659 0.276623
vt 0 1.03841
vn 0 0.7631249 0.646251
v -0.0805034 0.594374 0.213964
vt -0.976901 0.331124
vn -0.9709558 -0.2208769 0.09196848
v -0.0284301 0.568676 0.258294
vt -0.344996 0.0192831
vn -0.3782771 -0.6333962 0.6750672
v -0.0824069 0.625624 0.268919
vt -1 0.710336
vn -0.7996308 0.2191279 0.5590829
v -0.0509303 0.668314 0.213295
vt -0.618034 1.22838
vn -0.4619597 0.8662314 0.1903589
v 0 0.644319 0.225412
vt 0 0.937206
vn 0 0.9869984 -0.1607301
o merged_3_0_node
g polygon_0
usemtl mat_hana_mat_id
f 113/74/100 114/75/101 115/76/102
f 115/76/102 116/77/103 113/74/100
f 117/78/104 113/74/100 118/79/105
f 114/75/101 113/74/100 117/78/104
f 113/74/100 116/77/103 118/79/105
f 119/80/106 120/81/107 121/82/108
f 121/82/108 122/83/109 119/80/106
f 117/78/104 118/79/105 121/82/108
f 121/82/108 120/81/107 117/78/104
f 118/79/105 122/83/109 121/82/108
f 117/78/104 120/81/107 114/75/101
f 116/77/103 123/84/110 118/79/105
f 118/79/105 123/84/110 122/83/109
vt 1.09134 0.816517
vt 0.627922 0.790262
vt 0.99037 0.903538
vt 0.441371 0.899713
vt 0.00985104 0.816517
vn 0 0.273162 0.9619681
vt 0.00985104 0.895889
o merged_4_0_node
g polygon_0
usemtl TEX_ANIM_EYE_mat_id
f 9/85/9 22/86/22 16/87/16
f 16/87/16 22/86/22 23/88/23
f 33/85/32 37/87/36 34/86/33
f 35/88/34 34/86/33 37/87/36
f 34/86/33 35/88/34 28/89/111
f 35/88/34 30/90/111 28/89/111
f 22/86/22 28/89/111 23/88/23
f 28/89/111 30/90/111 23/88/23
