mtllib Swadloon.mtl
v 0 0.0327907 0
vt 0.000250399 1.01881
vn 0 -1 0
v 0 0.0327907 0.118268
vt 0.000250399 1.11817
vn 0 -0.9230467 0.3846879
v -0.0940019 0.0327907 0.0904729
vt 0.130136 1.10605
vn -0.0895283 -0.961466 0.259938
v 0.0940019 0.0327907 0.0904729
vn 0.0895282 -0.961466 0.259938
v -0.155041 0.0327907 0.0271032
vt 0.213844 1.04968
vn -0.140383 -0.9857663 0.09250653
v 0.155041 0.0327907 0.0271032
vn 0.140383 -0.9857663 0.09250653
v -0.088204 0.0327907 -0.196806
vt 0.133284 0.804447
vn -0.05417648 -0.9949166 -0.08488707
v 0.088204 0.0327907 -0.196806
vn 0.05417648 -0.9949166 -0.08488707
v -0.0578984 0.0327907 -0.278669
vt 0.0791411 0.693342
vn -0.119475 -0.9863819 -0.113033
v 0.0578984 0.0327907 -0.278669
vn 0.119475 -0.9863819 -0.113033
v 0 0.0327907 -0.309914
vt 0.000250399 0.661197
vn 0 -0.995312 -0.0967165
v 0 0.0968344 0.186636
vt 0.583886 0.169738
vn 0 -0.6358318 0.7718277
v -0.124311 0.0968344 0.131981
vt 0.296855 0.169752
vn -0.7659553 -0.04442402 0.6413572
v -0.131295 0.0671359 0.141096
vt 0.282353 0.0943337
vn -0.425069 -0.5517201 0.7175801
v -0.0727966 0.122376 0.179391
vt 0.414784 0.234611
vn -0.416519 -0.303229 0.8570671
vt 0.365452 0.018594
v 0 0.150594 0.209228
vt 0.583886 0.306278
vn 0 -0.09743776 0.9952416
vt 0.583886 0.018594
v 0.0727966 0.122376 0.179391
vt 0.752294 0.234611
vn 0.416519 -0.303229 0.8570671
vt 0.801625 0.018594
v 0.124311 0.0968344 0.131981
vt 0.870276 0.169752
vn 0.7659553 -0.04442402 0.6413572
v 0.131295 0.0671359 0.141096
vt 0.884725 0.0943337
vn 0.425069 -0.5517201 0.7175801
v -0.211227 0.062354 0.0135516
vt 0.0964201 0.082212
vn -0.9069873 -0.2822781 0.3125591
v -0.139064 0.17927 0.143089
vt 0.261621 0.379089
vn -0.8128976 -0.02281339 0.5819597
v -0.20048 0.0968344 0
vt 0.117739 0.169707
vn -0.9968691 0.020278 0.07642481
v -0.216444 0.17927 0
vt 0.0893683 0.379098
vn -0.9983928 0.0465211 0.0323661
vt 0.224447 0.018594
v 0.0879093 0.203437 0.173941
vt 0.787363 0.440451
vn 0.453044 0.107088 0.885033
v -0.0879093 0.203437 0.173941
vt 0.379715 0.440451
vn -0.453044 0.107088 0.885033
v 0 0.226862 0.20683
vt 0.583886 0.499961
vn 0 0.134472 0.9909174
vt 0.942631 0.018594
v 0.139064 0.17927 0.143089
vt 0.905457 0.379089
vn 0.8128976 -0.02281339 0.5819597
v 0.211227 0.062354 0.0135516
vt 1.07066 0.082212
vn 0.9069873 -0.2822781 0.3125591
v 0.216444 0.17927 0
vt 1.08021 0.379098
vn 0.9983928 0.04652099 0.0323661
v 0.20048 0.0968344 0
vt 1.04934 0.169707
vn 0.9968691 0.020278 0.07642471
v -0.121914 0.235448 0.14276
vt 0.288366 0.521742
vn -0.7763219 0.292351 0.55844
v -0.190955 0.270766 0
vt 0.141484 0.61147
vn -0.9268103 0.3736401 0.03762641
v 0 0.270766 0.185057
vt 0.583886 0.611467
vn 0 0.5877764 0.8090235
v -0.0419302 0.257303 0.180202
vt 0.486075 0.577277
vn -0.3907081 0.4213341 0.8184282
v 0.0419302 0.257303 0.180202
vt 0.681003 0.577277
vn 0.3907079 0.421335 0.8184279
v 0.121914 0.235448 0.14276
vt 0.878712 0.521742
vn 0.7763219 0.292351 0.55844
v 0.190955 0.270766 0
vt 1.02559 0.61147
vn 0.9268103 0.3736401 0.03762641
v -0.110265 0.270766 0.133534
vt 0.339196 0.611444
vn -0.6034997 0.4982807 0.6224986
v -0.0898159 0.337983 0.0917915
vt 0.375157 0.819581
vn -0.5148209 0.6760028 0.5272379
v -0.148729 0.337983 0
vt 0.23903 0.820829
vn -0.7403008 0.6720688 0.0166792
v 0.110265 0.270766 0.133534
vt 0.827882 0.611444
vn 0.603499 0.498281 0.622499
v -0.0822306 0.377957 0
vt 0.392645 0.937556
vn -0.3879448 0.9216416 0.008691496
v 0.0898159 0.337983 0.0917915
vt 0.791937 0.819581
vn 0.5148209 0.6760028 0.5272379
v 0.148729 0.337983 0
vt 0.928048 0.820829
vn 0.7403008 0.6720688 0.0166792
v 0.0822306 0.377957 0
vt 0.774433 0.937556
vn 0.3879448 0.9216416 0.008691496
v -0.153049 0.17927 -0.160212
vt 0.749342 0.793575
vn -0.7287091 0.05859411 -0.6823121
v 0 0.17927 -0.226575
vt 0.749342 0.984694
vn 0 0.0452193 -0.9989771
v -0.0741856 0.0968344 -0.1791
vt 0.745261 0.872385
vn -0.3885521 -0.002138461 -0.9214243
v -0.135026 0.270766 -0.146484
vt 0.753871 0.859754
vn -0.6730691 0.367016 -0.6420881
v -0.148371 0.0968344 -0.139947
vt 0.745261 0.800906
vn -0.7952214 0.2003351 -0.5722663
vt 0.753871 0.745013
vt 0.745261 0.758006
vt 0.749342 0.741941
v 0 0.0803622 -0.209829
vt 0.744446 0.984694
vn 0 0.2885469 -0.9574658
v 0.0741856 0.0968344 -0.1791
vn 0.3885521 -0.002138471 -0.9214243
v 0.153049 0.17927 -0.160212
vn 0.7287091 0.05859411 -0.6823121
v 0.135026 0.270766 -0.146484
vn 0.6730691 0.367016 -0.6420881
v -0.196871 0.0591367 -0.131724
vt 0.743395 0.781643
vn -0.8629351 0.3210631 -0.3902071
v -0.123085 0.0534723 -0.201769
vt 0.743115 0.835412
vn -0.4145548 0.2829919 -0.8649046
v 0.0577608 0.0616809 -0.198165
vt 0.743521 0.89897
vn 0.3668221 0.6767941 -0.6382721
v -0.0577608 0.0616809 -0.198165
vn -0.3668221 0.6767941 -0.6382721
v 0 0.0569764 -0.268209
vt 0.743281 0.984694
vn 0 0.9187933 -0.3947391
vt 0.743555 0.759367
v 0.123085 0.0534723 -0.201769
vn 0.4145548 0.2829919 -0.8649046
v 0.148371 0.0968344 -0.139947
vn 0.7952214 0.2003351 -0.5722663
vt 0.741953 0.89791
vt 0.741953 0.984694
v -0.158392 0.0327907 -0.163675
vt 0.741954 0.818003
vn -0.3191951 -0.9024563 -0.2892871
vt 0.741953 0.850415
v -0.195834 0.0327907 -0.0656499
vt 0.741953 0.787256
vn -0.3046349 -0.9523687 -0.0138388
vt 0.741953 0.822989
v 0.196871 0.0591367 -0.131724
vn 0.8629351 0.3210631 -0.3902071
v 0.158392 0.0327907 -0.163675
vn 0.3191951 -0.9024563 -0.2892871
v 0.195834 0.0327907 -0.0656499
vn 0.3046349 -0.9523687 -0.0138388
v 0 0.377958 0.0741863
vt 0.760781 0.984694
vn 0 0.9096915 0.4152848
vt 0.761005 0.85816
v 0 0.398317 0
vt 0.761889 0.984694
vn 0 0.9999996 -0.0008359127
vt 0.758647 0.832114
v 0 0.337983 0.13361
vt 0.758281 0.984694
vn 0 0.6959892 0.7180523
vt 0.755232 0.984694
v 0 0.337983 -0.161349
vt 0.579569 0.984694
vn 0 0.69137 -0.7225009
v 0 0.270766 -0.207159
vt 0.483264 0.984694
vn 0 0.360917 -0.932598
vt 0.464942 0.839077
v -0.0970175 0.337983 -0.114091
vt 0.579569 0.862101
vn -0.488609 0.7409081 -0.4607781
v 0.0970175 0.337983 -0.114091
vn 0.488609 0.7409081 -0.4607781
v 0 0.377957 -0.0892085
vt 0.638202 0.984694
vn 0 0.9382419 -0.34598
vt 0.376373 0.984694
vt 0.698483 0.842927
vt 0.557907 0.734404
vt 0.537708 0.734404
vt 0.483264 0.744395
vt 0.735596 0.984694
v 0.292025 0.03 -0.156078
vt 0.0190377 0.0230922
v 0.230419 0.03 -0.238952
vt 0.0210112 0.0226339
v 0.286628 0.03 -0.217012
vt 0.0204275 0.0231598
v 0.137953 0.03 -0.197133
vt 0.0213927 0.0214931
v 0.232548 0.03 0.0533445
v 0.320948 0.03 -0.0794939
v 0.375305 0.03 -0.0757443
vt 0.0196105 0.0245682
v 0.330307 0.03 -0.194895
v 0.107367 0.03 -0.0172963
vt 0.0196105 0.02014
v 0.0718132 0.03 -0.101192
v 0.329519 0.03 0.0234555
v 0.357169 0.03 -0.030227
v 0.41735 0.03 -0.219471
vt 0.0196105 0.0255174
v 0.0980177 0.03 0.0299119
v 0.456816 0.03 -0.11497
v 0.485348 0.03 -0.185491
vt 0.0182875 0.0260443
v -0.292025 0.03 -0.156078
v -0.230419 0.03 -0.238952
v -0.286628 0.03 -0.217012
v -0.137953 0.03 -0.197133
v -0.232548 0.03 0.0533445
v -0.320948 0.03 -0.0794939
v -0.375305 0.03 -0.0757443
v -0.330307 0.03 -0.194895
v -0.107367 0.03 -0.0172963
v -0.0718132 0.03 -0.101192
v -0.329519 0.03 0.0234555
v -0.357169 0.03 -0.030227
v -0.41735 0.03 -0.219471
v -0.0980177 0.03 0.0299119
v -0.456816 0.03 -0.11497
v -0.485348 0.03 -0.185491
v 0.106265 0.535521 -0.0334514
vt 0.972581 0.981765
vn -1.70713E-06 0.6026538 0.7980028
v 0.0899691 0.420499 0.0534133
vt 0.977636 0.918074
v 0.11924 0.497465 -0.00471114
vt 0.977636 0.960535
v 0.0526781 0.394617 0.0729601
vt 0.972581 0.896843
v 0.070262 0.568183 -0.0581173
vt 0.967526 0.981765
v 0.114344 0.456623 0.0261324
vt 0.977636 0.939304
v 0 0.383432 0.0814064
vt 0.967526 0.896843
v -0.070262 0.568183 -0.0581173
v -0.0526781 0.394617 0.0729601
v -0.106265 0.535521 -0.0334514
v -0.0899691 0.420499 0.0534133
v -0.11924 0.497465 -0.00471114
v -0.114344 0.456623 0.0261324
vn 1.650371E-06 -0.6026543 -0.7980024
o merged_0_0_node
g polygon_0
usemtl lambert3_mat_id
f 1/1/1 2/2/2 3/3/3
f 1/1/1 4/3/4 2/2/2
f 1/1/1 3/3/3 5/4/5
f 1/1/1 6/4/6 4/3/4
f 1/1/1 5/4/5 7/5/7
f 1/1/1 8/5/8 6/4/6
f 1/1/1 7/5/7 9/6/9
f 1/1/1 10/6/10 8/5/8
f 1/1/1 9/6/9 11/7/11
f 1/1/1 11/7/11 10/6/10
f 12/8/12 13/9/13 14/10/14
f 12/8/12 15/11/15 13/9/13
f 12/8/12 14/10/14 3/12/3
f 12/8/12 16/13/16 15/11/15
f 12/8/12 3/12/3 2/14/2
f 12/8/12 17/15/17 16/13/16
f 12/8/12 2/14/2 4/16/4
f 12/8/12 18/17/18 17/15/17
f 12/8/12 4/16/4 19/18/19
f 12/8/12 19/18/19 18/17/18
f 13/9/13 20/19/20 14/10/14
f 13/9/13 15/11/15 21/20/21
f 13/9/13 22/21/22 20/19/20
f 13/9/13 21/20/21 23/22/23
f 13/9/13 23/22/23 22/21/22
f 3/12/3 14/10/14 5/23/5
f 5/23/5 14/10/14 20/19/20
f 16/13/16 17/15/17 24/24/24
f 16/13/16 25/25/25 15/11/15
f 16/13/16 24/24/24 26/26/26
f 16/13/16 26/26/26 25/25/25
f 15/11/15 25/25/25 21/20/21
f 4/16/4 6/27/6 19/18/19
f 18/17/18 27/28/27 17/15/17
f 18/17/18 19/18/19 28/29/28
f 18/17/18 29/30/29 27/28/27
f 18/17/18 28/29/28 30/31/30
f 18/17/18 30/31/30 29/30/29
f 28/29/28 19/18/19 6/27/6
f 17/15/17 27/28/27 24/24/24
f 23/22/23 21/20/21 31/32/31
f 23/22/23 31/32/31 32/33/32
f 21/20/21 25/25/25 31/32/31
f 26/26/26 33/34/33 34/35/34
f 26/26/26 35/36/35 33/34/33
f 29/30/29 36/37/36 27/28/27
f 29/30/29 37/38/37 36/37/36
f 27/28/27 36/37/36 24/24/24
f 32/33/32 31/32/31 38/39/38
f 32/33/32 38/39/38 39/40/39
f 32/33/32 39/40/39 40/41/40
f 38/39/38 34/35/34 33/34/33
f 38/39/38 33/34/33 39/40/39
f 35/36/35 41/42/41 33/34/33
f 36/37/36 37/38/37 41/42/41
f 40/41/40 39/40/39 42/43/42
f 33/34/33 41/42/41 43/44/43
f 41/42/41 37/38/37 43/44/43
f 37/38/37 44/45/44 43/44/43
f 44/45/44 45/46/45 43/44/43
f 46/47/46 47/48/47 48/49/48
f 46/47/46 49/50/49 47/48/47
f 46/47/46 48/49/48 50/51/50
f 46/47/46 32/52/32 49/50/49
f 46/47/46 50/51/50 22/53/22
f 46/47/46 23/54/23 32/52/32
f 46/47/46 22/53/22 23/54/23
f 47/48/47 51/55/51 48/49/48
f 47/48/47 52/49/52 51/55/51
f 47/48/47 53/47/53 52/49/52
f 47/48/47 54/50/54 53/47/53
f 50/51/50 55/56/55 22/53/22
f 50/51/50 48/49/48 56/57/56
f 50/51/50 56/57/56 55/56/55
f 51/55/51 52/49/52 57/58/57
f 51/55/51 58/58/58 48/49/48
f 51/55/51 57/58/57 59/59/59
f 51/55/51 59/59/59 58/58/58
f 48/49/48 58/58/58 56/57/56
f 54/50/54 37/52/37 53/47/53
f 22/53/22 55/56/55 20/60/20
f 52/49/52 60/57/60 57/58/57
f 52/49/52 53/47/53 61/51/61
f 52/49/52 61/51/61 60/57/60
f 59/59/59 9/61/9 58/58/58
f 59/59/59 57/58/57 10/61/10
f 59/59/59 11/62/11 9/61/9
f 59/59/59 10/61/10 11/62/11
f 56/57/56 62/63/62 55/56/55
f 56/57/56 58/58/58 7/64/7
f 56/57/56 7/64/7 62/63/62
f 58/58/58 9/61/9 7/64/7
f 37/52/37 29/54/29 53/47/53
f 20/60/20 55/56/55 63/65/63
f 20/60/20 63/65/63 5/66/5
f 63/65/63 55/56/55 62/63/62
f 63/65/63 7/64/7 5/66/5
f 63/65/63 62/63/62 7/64/7
f 61/51/61 64/56/64 60/57/60
f 61/51/61 53/47/53 30/53/30
f 61/51/61 30/53/30 64/56/64
f 53/47/53 29/54/29 30/53/30
f 57/58/57 8/64/8 10/61/10
f 57/58/57 60/57/60 8/64/8
f 64/56/64 30/53/30 28/60/28
f 64/56/64 65/63/65 60/57/60
f 64/56/64 28/60/28 66/65/66
f 64/56/64 66/65/66 65/63/65
f 65/63/65 66/65/66 8/64/8
f 65/63/65 8/64/8 60/57/60
f 28/60/28 6/66/6 66/65/66
f 66/65/66 6/66/6 8/64/8
f 67/67/67 45/68/45 68/69/68
f 67/67/67 43/70/43 45/68/45
f 67/67/67 68/69/68 42/68/42
f 67/67/67 69/71/69 43/70/43
f 67/67/67 42/68/42 39/70/39
f 67/67/67 39/70/39 69/71/69
f 43/70/43 69/71/69 33/72/33
f 33/72/33 69/71/69 39/70/39
f 70/73/70 71/74/71 49/75/49
f 70/73/70 54/75/54 71/74/71
f 70/73/70 49/75/49 72/76/72
f 70/73/70 73/76/73 54/75/54
f 70/73/70 72/76/72 74/77/74
f 70/73/70 74/77/74 73/76/73
f 71/74/71 47/78/47 49/75/49
f 71/74/71 54/75/54 47/78/47
f 72/76/72 42/79/42 74/77/74
f 72/76/72 49/75/49 40/80/40
f 72/76/72 40/80/40 42/79/42
f 73/76/73 44/81/44 54/75/54
f 73/76/73 74/77/74 45/79/45
f 73/76/73 45/79/45 44/81/44
f 49/75/49 32/82/32 40/80/40
f 42/79/42 68/83/68 74/77/74
f 74/77/74 68/83/68 45/79/45
f 54/75/54 44/81/44 37/82/37
f 75/84/1 76/85/1 77/86/1
f 75/84/1 78/87/1 76/85/1
f 75/84/1 79/87/1 78/87/1
f 75/84/1 80/84/1 79/87/1
f 75/84/1 81/88/1 80/84/1
f 75/84/1 82/88/1 81/88/1
f 78/87/1 79/87/1 83/89/1
f 78/87/1 83/89/1 84/89/1
f 80/84/1 85/85/1 79/87/1
f 80/84/1 86/86/1 85/85/1
f 82/88/1 87/90/1 81/88/1
f 83/89/1 79/87/1 88/89/1
f 87/90/1 89/90/1 81/88/1
f 87/90/1 90/91/1 89/90/1
f 91/84/68 92/85/68 93/86/68
f 91/84/68 94/87/68 92/85/68
f 91/84/68 95/87/68 94/87/68
f 91/84/68 96/84/68 95/87/68
f 91/84/68 97/88/68 96/84/68
f 91/84/68 98/88/68 97/88/68
f 94/87/68 95/87/68 99/89/68
f 94/87/68 99/89/68 100/89/68
f 96/84/68 101/85/68 95/87/68
f 96/84/68 102/86/68 101/85/68
f 98/88/68 103/90/68 97/88/68
f 99/89/68 95/87/68 104/89/68
f 103/90/68 105/90/68 97/88/68
f 103/90/68 106/91/68 105/90/68
f 75/84/68 77/86/68 76/85/68
f 75/84/68 76/85/68 78/87/68
f 75/84/68 78/87/68 79/87/68
f 75/84/68 79/87/68 80/84/68
f 75/84/68 80/84/68 81/88/68
f 75/84/68 81/88/68 82/88/68
f 78/87/68 83/89/68 79/87/68
f 78/87/68 84/89/68 83/89/68
f 80/84/68 79/87/68 85/85/68
f 80/84/68 85/85/68 86/86/68
f 81/88/68 87/90/68 82/88/68
f 81/88/68 89/90/68 87/90/68
f 83/89/68 88/89/68 79/87/68
f 89/90/68 90/91/68 87/90/68
f 91/84/1 93/86/1 92/85/1
f 91/84/1 92/85/1 94/87/1
f 91/84/1 94/87/1 95/87/1
f 91/84/1 95/87/1 96/84/1
f 91/84/1 96/84/1 97/88/1
f 91/84/1 97/88/1 98/88/1
f 94/87/1 99/89/1 95/87/1
f 94/87/1 100/89/1 99/89/1
f 96/84/1 95/87/1 101/85/1
f 96/84/1 101/85/1 102/86/1
f 97/88/1 103/90/1 98/88/1
f 97/88/1 105/90/1 103/90/1
f 99/89/1 104/89/1 95/87/1
f 105/90/1 106/91/1 103/90/1
f 107/92/75 108/93/75 109/94/75
f 107/92/75 110/95/75 108/93/75
f 107/92/75 111/96/75 110/95/75
f 109/94/75 108/93/75 112/97/75
f 111/96/75 113/98/75 110/95/75
f 113/98/75 114/96/75 115/95/75
f 114/96/75 116/92/75 115/95/75
f 116/92/75 117/93/75 115/95/75
f 116/92/75 118/94/75 117/93/75
f 118/94/75 119/97/75 117/93/75
f 108/93/76 107/92/76 109/94/76
f 108/93/76 110/95/76 107/92/76
f 108/93/76 109/94/76 112/97/76
f 110/95/76 111/96/76 107/92/76
f 110/95/76 113/98/76 111/96/76
f 113/98/76 115/95/76 114/96/76
f 115/95/76 116/92/76 114/96/76
f 115/95/76 117/93/76 116/92/76
f 117/93/76 118/94/76 116/92/76
f 117/93/76 119/97/76 118/94/76
vt 0.622474 0.792762
vt 0.768898 0.965108
vt 0.23812 0.930671
vt -0.112837 0.852742
vt 0.952583 0.874696
o merged_1_0_node
g polygon_0
usemtl TEX_ANIM_EYE_mat_id
f 24/99/24 41/100/41 35/101/35
f 24/99/24 35/101/35 26/102/26
f 36/103/36 41/100/41 24/99/24
f 31/103/31 25/99/25 38/100/38
f 25/99/25 26/102/26 34/101/34
f 25/99/25 34/101/34 38/100/38
