mtllib Meloetta_Step.mtl
v -0.108341 0.0819737 0.0243793
vt 0.0572868 0.258341
vn -0.04923112 -0.9982144 -0.03382911
v -0.160202 0.0836148 0.148656
vt 0.024874 0.260393
vn -0.757005 0.65272 -0.0299984
v -0.0562739 0.102303 0.0998094
vt 0.0898288 0.279156
vn -0.2901421 0.6823472 0.6709843
v -0.081456 0.070369 0.109248
vt 0.07409 0.243835
vn 0.101458 -0.9948265 -0.005148698
v -0.107033 0.102303 0.0242851
vt 0.0581043 0.279156
vn -0.9224383 0.3814401 0.06009271
v 0 0.126489 0.0175692
vt 0.125 0.256155
vn -1.087359E-06 -0.9999485 0.0101463
v -0.0562738 0.102303 -0.062903
vn -0.3979749 0.601023 -0.6930999
v -0.0721499 0.0703216 -0.0729366
vt 0.0799063 0.243776
vn 0.110066 -0.993903 0.00650069
v -0.144767 0.0836148 -0.128133
vt 0.0345205 0.260393
vn -0.856975 0.503152 -0.111499
v 0 0.084872 0.102069
vt 0.125 0.261964
vn 0 -0.990366 -0.138474
v -0.0573563 0.21663 -8.67862E-05
vt 0.0891523 0.422065
vn -0.8864073 0.4601881 -0.05009111
v -0.0286781 0.21663 0.0418164
vt 0.107076 0.422065
vn -0.3643439 0.5379719 0.7601578
v 0 0.0873291 -0.0631226
vt 0.125 0.265035
vn 0 -0.9959586 0.08981337
v 0.056274 0.102303 0.0998094
vt 0.160171 0.279156
vn 0.2901421 0.6823472 0.6709843
v 0.0814562 0.070369 0.109248
vt 0.17591 0.243835
vn -0.10146 -0.9948263 -0.005146611
v 0.160202 0.0836148 0.148656
vt 0.225126 0.260393
vn 0.7570032 0.6527222 -0.03000041
v -0.0286781 0.21663 -0.0429434
vn -0.4079051 0.3235821 -0.8537612
v 0 0.229951 0
vt 0.125 0.438717
vn 0 0.9999998 0.0006539748
v 0.0721501 0.0703216 -0.0729366
vt 0.170094 0.243776
vn -0.110068 -0.9939029 0.006498799
v 0.0562741 0.102303 -0.062903
vn 0.397976 0.6010231 -0.6930991
v 0.144767 0.0836148 -0.128133
vt 0.215479 0.260393
vn 0.8569738 0.5031539 -0.111499
v 0.108341 0.0819733 0.0243793
vt 0.192713 0.258341
vn 0.04923092 -0.9982144 -0.03382911
v 0.0286783 0.21663 0.0418164
vt 0.142924 0.422065
vn 0.3643439 0.5379719 0.7601578
v 0.0286783 0.21663 -0.0429434
vn 0.4079051 0.3235821 -0.8537612
v 0.107033 0.102303 0.0242851
vt 0.191896 0.279156
vn 0.9224387 0.3814389 0.06009309
v 0.0573565 0.21663 -8.67862E-05
vt 0.160848 0.422065
vn 0.8864073 0.4601882 -0.05009041
v -0.17694 0.376391 0.00866084
vt 0.324168 0.779451
vn -0.9958827 0.08475988 -0.03214439
v -0.109822 0.317621 -0.132036
vt 0.34809 0.689725
vn -0.6116284 -0.4728413 -0.6342964
v -0.162235 0.30493 0.00188931
vt 0.324168 0.689725
vn -0.8782225 -0.4703287 -0.08669566
v -0.117706 0.397404 -0.133713
vt 0.351926 0.788812
vn -0.7033832 0.117427 -0.7010442
v -0.112764 0.278134 0.104116
vt 0.162924 0.675219
vn -0.6323377 -0.6600857 0.4055068
v -0.102503 0.475211 -0.114529
vt 0.347021 0.887899
vn -0.6071858 0.5823128 -0.5405898
v -0.133201 0.353121 0.113733
vt 0.159175 0.762884
vn -0.6876065 -0.1093149 0.7178075
v -0.143503 0.462763 0.0168453
vt 0.324168 0.887899
vn -0.8885274 0.4559872 0.05093903
v -0.118027 0.417419 0.126114
vt 0.154073 0.846607
vn -0.57388 0.280611 0.7693629
v -0.094187 0.241702 -0.0041021
vt 0.324168 0.610336
vn -0.4766019 -0.8693469 -0.130716
v 0 0.339361 -0.174645
vt 0.36664 0.711755
vn 0 -0.16635 -0.9860668
v 0 0.256214 -0.118967
vt 0.340246 0.614851
vn 0 -0.8201909 -0.57209
v -0.094187 0.535937 0.0237792
vt 0.324168 0.979777
vn -0.5517759 0.8183879 0.160576
v 0 0.45768 -0.156032
vt 0.363567 0.861189
vn 0 0.3893359 -0.9210958
v 0 0.532473 -0.0852668
vt 0.337122 0.962608
vn 0.003902559 0.8902887 -0.4553798
v 0 0.218559 -0.00629511
vt 0.324168 0.581277
vn 0 -0.9921181 -0.125306
v 0.109822 0.317621 -0.132036
vn 0.611628 -0.472841 -0.634297
v 0.094187 0.241702 -0.0041021
vn 0.4766019 -0.8693469 -0.130716
v 0 0.228781 0.0972372
vt 0.166213 0.622037
vn 0 -0.9580671 0.286544
v 0.102503 0.475211 -0.114529
vn 0.6148972 0.6028412 -0.5084132
v 0 0.552043 0.0253054
vt 0.324168 1
vn -0.06667341 0.99727 0.0317345
v 0.0524519 0.545802 0.0237792
vn 0.508894 0.850031 0.13592
v 0 0.526991 0.0936545
vt 0.187047 0.967835
vn 0.0148904 0.7532252 0.6575942
v 0.117706 0.397404 -0.133713
vn 0.7033831 0.117428 -0.7010441
v 0.112764 0.278134 0.104116
vn 0.6323377 -0.6600857 0.4055068
v 0.162235 0.30493 0.00188931
vn 0.8782222 -0.4703291 -0.08669582
v 0.118027 0.417419 0.126114
vn 0.579865 0.304407 0.755707
v 0.153235 0.462763 0.0168453
vn 0.8142946 0.5738157 0.08752135
v 0.17694 0.376391 0.00866084
vn 0.9980928 0.04729089 -0.03967839
v 0.133201 0.353121 0.113733
vn 0.687606 -0.109315 0.717808
v -0.0552119 0.0745391 -0.058877
vt 0.168429 0.565002
vn -0.3295729 -0.5189469 -0.7887178
v 0.0525363 0.102303 -0.0585742
vt 0.213851 0.576446
vn 0.07075278 0.9875538 -0.140469
v 0.0552122 0.0745391 -0.058877
vt 0.213947 0.565002
vn 0.3295738 -0.5189468 -0.7887176
v -0.052536 0.102303 -0.0585742
vt 0.168525 0.576446
vn -0.07075278 0.9875538 -0.140469
v 0 0.0571219 0.0242851
vt 0.191188 0.557822
vn 0 -0.9982259 0.05953909
v -0.0999238 0.102303 0.0245089
vt 0.148083 0.576446
vn -0.143376 0.9896681 0.0005891011
v -0.0560288 0 0.00916629
vt 0.168093 0.534276
vn -0.103972 -0.9886371 -0.108565
v -0.103514 0.0745391 0.0242851
vt 0.147549 0.565002
vn -0.959918 -0.278487 0.0316632
v 0.099924 0.102303 0.0245089
vt 0.234294 0.576446
vn 0.143376 0.9896681 0.0005891651
v 0.0525362 0.102303 0.0949439
vn 0.05897923 0.9889435 0.1360601
v -0.0552119 0.0745391 0.0959555
vn -0.3022139 -0.5165549 0.8011478
v 0.0560288 0 0.00916629
vt 0.214284 0.534276
vn 0.103972 -0.9886371 -0.108565
v 0.0552121 0.0745391 0.0959555
vn 0.3022149 -0.5165548 0.8011476
v 0.103515 0.0745391 0.0242851
vt 0.234828 0.565002
vn 0.9599179 -0.278487 0.0316635
v -0.0525361 0.102303 0.0949439
vn -0.05897917 0.9889435 0.1360599
v -0.203815 0.640463 0.214048
vt 0.0679809 0.0601433
vn -0.413866 0 0.9103379
v -0.101943 0.692625 0.208271
vt 0.0499286 0.0705658
vn 0.7753629 0.4997669 0.3860639
v -0.18419 0.744787 0.17088
vt 0.0679809 0.0809883
vn -0.0126442 0.9995332 0.02781221
v -0.101943 0.588301 0.208271
vt 0.0499286 0.0497208
vn 0.775364 -0.499766 0.386063
v -0.266436 0.692625 0.133488
vt 0.0860332 0.0705658
vn -0.8006521 0.4997661 -0.3304391
v -0.18419 0.536139 0.17088
vt 0.0679809 0.0392982
vn -0.0126442 -0.9995332 0.02781281
v -0.266436 0.588301 0.133488
vt 0.0860332 0.0497208
vn -0.8006517 -0.4997668 -0.3304389
v -0.170829 0.640463 0.141492
vn 0.413866 0 -0.9103379
v -0.156952 0.81772 0.214517
vt 0.0594178 0.095561
v -0.18419 0.733115 0.17088
vt 0.0679809 0.0786561
vn -0.4113609 -0.8920798 -0.187018
v -0.122071 0.804863 0.199121
vt 0.0543463 0.0929921
vn 0.8120948 -0.4518769 0.3692009
v -0.168282 0.8305761 0.178112
vt 0.0644893 0.09813
vn -0.8120948 0.4518769 -0.3692009
v -0.106163 0.902324 0.206353
vt 0.0508547 0.112466
vn 0.4113589 0.8920808 0.187018
v -0.133401 0.81772 0.162715
v -0.234978 0.81772 0.179044
vt 0.0765439 0.095561
vn 0.4113571 -0.8920822 0.1870151
v -0.200097 0.8305761 0.163648
vt 0.0714724 0.09813
vn 0.8120953 0.4518742 0.3692032
v -0.246309 0.804863 0.142638
vt 0.0816154 0.0929922
vn -0.8120956 -0.4518738 -0.3692028
v -0.262216 0.902325 0.135406
vt 0.085107 0.112466
vn -0.4113581 0.8920822 -0.1870131
v -0.211428 0.81772 0.127242
v -0.0948039 0.487597 0.169575
vt 0.0526571 0.0306259
v -0.1371 0.523726 0.192288
vt 0.0592107 0.0345312
vn -0.571075 0.77876 -0.259627
v -0.08353791 0.511549 0.216639
vt 0.0487518 0.0371795
vn 0.7089344 0.6273224 0.3223022
v -0.137674 0.463645 0.192027
vt 0.0565624 0.0240723
vn -0.7089347 -0.6273217 -0.3223028
v -0.084112 0.451468 0.216378
vt 0.0461034 0.0267206
vn 0.571075 -0.77876 0.259627
v -0.126408 0.487597 0.239091
v 0 0.270254 0.146075
vt 0.000614239 0.688921
vn 0 -0.5394071 0.8420451
v -0.0617962 0.273877 0.128438
vt 0.0784213 0.692302
vn -0.370424 -0.428042 0.824358
vt 0.000614239 0.61192
v 0 0.335599 0.168564
vt 0.000614239 0.786036
vn 0 -0.123448 0.9923511
v 0.0617962 0.273877 0.128438
vn 0.3704239 -0.4280428 0.8243576
vt 0.156228 0.695683
v 0 0.46725 0.142434
vt 0.00163081 0.904142
vn 0 0.5056782 0.8627222
vt 0.144272 0.846607
v 0 0.386869 0.169662
vt 0.00163081 0.811476
vn 0 0.05850241 0.9982873
vt 0.00163081 0.967835
v 0.102356 0.183444 0.0984055
vt 0.274288 0.307609
vn -0.334975 0.7898051 0.5138091
v 0.0989018 0.174378 0.0546075
vt 0.306508 0.364382
vn -0.3754199 0.3882819 -0.8416039
v 0.0872699 0.147394 0.0885033
vt 0.329185 0.303608
vn -0.8642053 -0.4748112 0.1664441
v 0.136541 0.174465 0.0790139
vt 0.295705 0.334825
vn 0.8642057 0.4748108 -0.1664429
v 0.124909 0.14748 0.11291
vt 0.318382 0.274051
vn 0.3754201 -0.3882831 0.8416032
v 0.121454 0.138415 0.0691117
vt 0.350602 0.330824
vn 0.334975 -0.7898051 -0.5138091
v -0.149088 0.155955 0.058209
vn 0.2743179 -0.9598745 0.05822868
v -0.172926 0.177356 0.0337353
vn -0.5619359 -0.2091419 -0.8003048
v -0.129877 0.189789 0.0358789
vn 0.7803705 0.1868179 -0.5967587
v -0.183938 0.176847 0.0772194
vn -0.7803707 -0.1868169 0.5967588
v -0.140889 0.18928 0.079363
vn 0.561936 0.209141 0.8003049
v -0.164727 0.210681 0.0548893
vn -0.2743179 0.9598746 -0.05822848
v 0 0.727542 0.210041
vt 0.9976 0.166667
vn 0.03970899 0.167854 -0.9850118
v -0.149708 0.520041 0.121105
vt 0.619444 0.0653833
vn 0.34383 0.176125 -0.922367
v -0.166458 0.7334881 0.156433
vt 0.9976 0.0653833
v 0 0.514095 0.171765
vt 0.619444 0.166667
v 0.132174 0.512965 0.143873
vt 0.619444 0.286306
vn -0.8025441 0.139267 -0.5801101
v 0.153875 0.725855 0.166554
vt 0.9976 0.286306
v -0.332007 0.563844 0.0605502
vt 0.619444 0
v -0.344404 0.777291 0.0971223
vt 0.9976 0
v 0.195354 0.515454 0
vt 0.619444 0.302547
vn -0.9756261 0.135044 0.172965
v 0.220102 0.72801 0
vt 0.9976 0.302547
v 0.157924 0.719578 -0.173136
vt 0.9976 0.416667
vn -0.537558 0.155291 0.828804
v 0.131701 0.505714 -0.149321
vt 0.619444 0.416667
v 0 0.716515 -0.233962
vt 0.9976 0.500341
vn 0.2193281 0.1440301 0.9649614
v 0 0.502177 -0.198074
vt 0.619444 0.500341
v -0.128947 0.50886 -0.146567
vt 0.619444 0.583333
vn 0.8371148 0.121971 0.5332559
v -0.148526 0.722301 -0.163739
vt 0.9976 0.583333
v -0.187673 0.511874 0
vt 0.619444 0.703521
vn 0.9574235 0.1272739 -0.2591169
v -0.211877 0.724911 0
vt 0.9976 0.703521
v -0.120014 0.513247 0.121141
vt 0.619444 0.722437
vn 0.5467609 0.150149 -0.8237159
v -0.142847 0.726099 0.144126
vt 0.9976 0.722437
vt 0.619444 0.833333
vn 0.3995311 0.151328 -0.9041431
vt 0.9976 0.833333
vn -0.01970449 -0.1520559 -0.9881755
vn -0.7229967 -0.1295519 -0.6785957
vn 0.705267 -0.153295 -0.69217
vn -0.7350299 -0.129017 -0.6656469
vn 0.722742 -0.152593 -0.674062
vn -0.9916757 -0.126471 0.02417389
vn 0.9908413 -0.135006 0.002646271
vn -0.6828149 -0.144485 0.7161619
vn 0.6656132 -0.14979 0.7311102
vn -0.3995311 -0.151328 0.9041431
vn 0.2380149 -0.149333 0.9597127
v 0.119018 0.677972 0.126092
vt 0.9976 0.944229
vn -0.6676601 0.182458 -0.7217611
v 0.196282 0.678403 0
vt 0.9976 1
vn -0.8426968 0.177853 -0.5081639
v 0.150097 0.464956 0
vt 0.619444 1
v 0.0916405 0.464525 0.0986735
vt 0.619444 0.944229
v 0 0.466975 0.139833
vn -0.02878351 0.1890671 -0.9815422
v 0 0.680422 0.181206
v -0.13324 0.676492 0.134433
vn 0.6682603 0.2023341 -0.7158834
v -0.102292 0.463045 0.103382
v -0.192627 0.675303 0
vn 0.9775622 0.209915 -0.0175455
v -0.146546 0.461856 0
v -0.138537 0.672693 -0.152727
vn 0.7318329 0.2296759 0.6416149
v -0.104125 0.459246 -0.118354
v 0 0.666908 -0.218227
vn 0.0235837 0.2530499 0.9671658
v 0 0.453461 -0.159946
v 0.10635 0.456523 -0.120578
vn -0.7111571 0.2545391 0.6553361
v 0.147303 0.669971 -0.161492
vn -0.7249295 0.2538282 0.6403504
vn -0.9739481 0.22677 -0.000729977
vn -0.9726585 0.2262321 -0.05248423
v 0.106731 0.491466 0.116178
vn -0.733489 0.220833 -0.642827
v 0.143526 0.704913 0.155352
vn -0.66462 0.219441 -0.714231
vn -0.365384 0.196566 -0.9098661
vn 0.6674603 -0.1824561 0.7219464
vn 0.8426968 -0.177853 0.5081639
vn 0.03014131 -0.1890521 0.9815044
vn -0.673806 -0.202416 0.7106429
vn -0.9776099 -0.209945 0.0142159
vn -0.7235308 -0.2301139 -0.6508078
vn -0.02142499 -0.2531009 -0.9672027
vn 0.7111573 -0.2545381 -0.6553363
vn 0.7249299 -0.253828 -0.6403499
vn 0.9739481 -0.22677 0.0007300401
vn 0.9726585 -0.2262321 0.05248423
vn 0.733489 -0.220833 0.642827
vn 0.6646202 -0.2194401 0.7142312
vn 0.365384 -0.196566 0.9098661
v -0.127655 0.480824 0.214627
vt 0.0540798 0.0282457
vn -0.106958 0.5472119 0.8301319
v -0.114058 0.480824 0.184719
vn 0.5552008 0.5472118 -0.6263477
vn -0.7440771 -0.576122 -0.338279
v 0.070185 0.204079 -0.00976861
vt 0.293396 0.464123
vn -0.73214 0.125083 -0.669571
v 0.111641 0.155557 0.0679753
vt 0.327015 0.338857
vn -0.200323 -0.8755498 -0.4396399
v 0.103424 0.17493 0.0805785
vt 0.294182 0.328869
vn -0.7699819 0.467596 0.434145
v 0.123789 0.174207 0.0710957
vt 0.299529 0.344247
vn 0.7803539 0.538159 -0.318485
v -0.070185 0.204079 -0.00976858
vn 0.432599 0.0690934 -0.898935
v -0.144813 0.173624 0.0503998
vn 0.02561601 -0.9043683 -0.4259832
v -0.151542 0.197169 0.0489715
vn -0.4408908 0.7279987 -0.5250078
v -0.137551 0.189346 0.0647262
vn 0.6959539 0.2399509 0.6768099
vn -0.3313259 -0.175947 0.9269658
vn -0.314331 -0.173263 0.9333681
vn -0.3494989 -0.17877 0.9197237
o merged_0_0_node
g polygon_0
usemtl mat_body_mat_id
f 1/1/1 2/2/2 3/3/3
f 1/1/1 4/4/4 2/2/2
f 1/1/1 3/3/3 5/5/5
f 1/1/1 6/6/6 4/4/4
f 1/1/1 5/5/5 7/3/7
f 1/1/1 8/7/8 6/6/6
f 1/1/1 7/3/7 9/8/9
f 1/1/1 9/8/9 8/7/8
f 2/2/2 10/9/10 3/3/3
f 2/2/2 4/4/4 10/9/10
f 4/4/4 6/6/6 10/9/10
f 5/5/5 11/10/11 7/3/7
f 5/5/5 3/3/3 12/11/12
f 5/5/5 12/11/12 11/10/11
f 9/8/9 13/12/13 8/7/8
f 9/8/9 7/3/7 13/12/13
f 8/7/8 13/12/13 6/6/6
f 10/9/10 14/13/14 3/3/3
f 10/9/10 6/6/6 15/14/15
f 10/9/10 16/15/16 14/13/14
f 10/9/10 15/14/15 16/15/16
f 3/3/3 14/13/14 12/11/12
f 11/10/11 17/11/17 7/3/7
f 11/10/11 12/11/12 18/16/18
f 11/10/11 18/16/18 17/11/17
f 13/12/13 19/17/19 6/6/6
f 13/12/13 7/3/7 20/13/20
f 13/12/13 21/18/21 19/17/19
f 13/12/13 20/13/20 21/18/21
f 15/14/15 22/19/22 16/15/16
f 15/14/15 6/6/6 22/19/22
f 21/18/21 22/19/22 19/17/19
f 21/18/21 20/13/20 22/19/22
f 19/17/19 22/19/22 6/6/6
f 16/15/16 22/19/22 14/13/14
f 12/11/12 23/20/23 18/16/18
f 12/11/12 14/13/14 23/20/23
f 17/11/17 24/20/24 7/3/7
f 17/11/17 18/16/18 24/20/24
f 7/3/7 24/20/24 20/13/20
f 22/19/22 25/21/25 14/13/14
f 22/19/22 20/13/20 25/21/25
f 14/13/14 25/21/25 23/20/23
f 18/16/18 26/22/26 24/20/24
f 18/16/18 23/20/23 26/22/26
f 26/22/26 25/21/25 20/13/20
f 26/22/26 20/13/20 24/20/24
f 26/22/26 23/20/23 25/21/25
f 27/23/27 28/24/28 29/25/29
f 27/23/27 30/26/30 28/24/28
f 27/23/27 29/25/29 31/27/31
f 27/23/27 32/28/32 30/26/30
f 27/23/27 31/27/31 33/29/33
f 27/23/27 34/30/34 32/28/32
f 27/23/27 33/29/33 35/31/35
f 27/23/27 35/31/35 34/30/34
f 28/24/28 36/32/36 29/25/29
f 28/24/28 30/26/30 37/33/37
f 28/24/28 38/34/38 36/32/36
f 28/24/28 37/33/37 38/34/38
f 29/25/29 36/32/36 31/27/31
f 32/28/32 34/30/34 39/35/39
f 32/28/32 40/36/40 30/26/30
f 32/28/32 39/35/39 41/37/41
f 32/28/32 41/37/41 40/36/40
f 30/26/30 40/36/40 37/33/37
f 34/30/34 35/31/35 39/35/39
f 38/34/38 42/38/42 36/32/36
f 38/34/38 37/33/37 43/24/43
f 38/34/38 44/32/44 42/38/42
f 38/34/38 43/24/43 44/32/44
f 31/27/31 36/32/36 45/39/45
f 42/38/42 44/32/44 45/39/45
f 42/38/42 45/39/45 36/32/36
f 41/37/41 46/28/46 40/36/40
f 41/37/41 39/35/39 47/40/47
f 41/37/41 48/35/48 46/28/46
f 41/37/41 47/40/47 48/35/48
f 35/31/35 49/41/49 39/35/39
f 47/40/47 49/41/49 48/35/48
f 47/40/47 39/35/39 49/41/49
f 37/33/37 50/26/50 43/24/43
f 37/33/37 40/36/40 50/26/50
f 40/36/40 46/28/46 50/26/50
f 44/32/44 51/27/51 45/39/45
f 44/32/44 43/24/43 52/25/52
f 44/32/44 52/25/52 51/27/51
f 48/35/48 49/41/49 53/31/53
f 48/35/48 54/30/54 46/28/46
f 48/35/48 53/31/53 54/30/54
f 50/26/50 55/23/55 43/24/43
f 50/26/50 46/28/46 55/23/55
f 54/30/54 53/31/53 55/23/55
f 54/30/54 55/23/55 46/28/46
f 52/25/52 55/23/55 51/27/51
f 52/25/52 43/24/43 55/23/55
f 53/31/53 56/29/56 55/23/55
f 55/23/55 56/29/56 51/27/51
f 57/42/57 58/43/58 59/44/59
f 57/42/57 60/45/60 58/43/58
f 57/42/57 59/44/59 61/46/61
f 57/42/57 62/47/62 60/45/60
f 57/42/57 61/46/61 63/48/63
f 57/42/57 64/49/64 62/47/62
f 57/42/57 63/48/63 64/49/64
f 58/43/58 65/50/65 59/44/59
f 58/43/58 60/45/60 66/43/66
f 58/43/58 66/43/66 65/50/65
f 60/45/60 62/47/62 66/43/66
f 61/46/61 67/42/67 63/48/63
f 61/46/61 59/44/59 68/51/68
f 61/46/61 69/44/69 67/42/67
f 61/46/61 68/51/68 69/44/69
f 64/49/64 67/42/67 62/47/62
f 64/49/64 63/48/63 67/42/67
f 65/50/65 66/43/66 69/44/69
f 65/50/65 70/52/70 59/44/59
f 65/50/65 69/44/69 70/52/70
f 70/52/70 68/51/68 59/44/59
f 70/52/70 69/44/69 68/51/68
f 62/47/62 67/42/67 71/45/71
f 62/47/62 71/45/71 66/43/66
f 71/45/71 67/42/67 69/44/69
f 71/45/71 69/44/69 66/43/66
f 72/53/72 73/54/73 74/55/74
f 72/53/72 75/56/75 73/54/73
f 72/53/72 74/55/74 76/57/76
f 72/53/72 77/58/77 75/56/75
f 72/53/72 76/57/76 78/59/78
f 72/53/72 78/59/78 77/58/77
f 73/54/73 79/53/79 74/55/74
f 73/54/73 75/56/75 79/53/79
f 79/53/79 78/59/78 76/57/76
f 79/53/79 75/56/75 77/58/77
f 79/53/79 76/57/76 74/55/74
f 79/53/79 77/58/77 78/59/78
f 80/60/72 81/61/80 82/62/81
f 80/60/72 83/63/82 81/61/80
f 80/60/72 82/62/81 84/64/83
f 80/60/72 84/64/83 83/63/82
f 81/61/80 85/60/79 82/62/81
f 81/61/80 83/63/82 85/60/79
f 85/60/79 84/64/83 82/62/81
f 85/60/79 83/63/82 84/64/83
f 86/65/72 81/61/84 87/66/85
f 86/65/72 88/67/86 81/61/84
f 86/65/72 87/66/85 89/68/87
f 86/65/72 89/68/87 88/67/86
f 81/61/84 90/65/79 87/66/85
f 81/61/84 88/67/86 90/65/79
f 90/65/79 89/68/87 87/66/85
f 90/65/79 88/67/86 89/68/87
f 91/69/79 92/70/88 93/71/89
f 91/69/79 94/72/90 92/70/88
f 91/69/79 93/71/89 95/73/91
f 91/69/79 95/73/91 94/72/90
f 92/70/88 96/69/72 93/71/89
f 92/70/88 94/72/90 96/69/72
f 96/69/72 95/73/91 93/71/89
f 96/69/72 94/72/90 95/73/91
f 97/74/92 98/75/93 45/76/45
f 97/74/92 99/77/94 98/75/93
f 97/74/92 45/76/45 100/75/95
f 97/74/92 100/75/95 99/77/94
f 98/75/93 31/78/31 45/76/45
f 100/75/95 45/76/45 51/78/51
f 101/79/96 35/80/35 102/81/97
f 101/79/96 49/82/49 35/80/35
f 101/79/96 102/81/97 53/80/53
f 101/79/96 53/80/53 49/82/49
f 103/83/98 104/84/99 105/85/100
f 103/83/98 106/86/101 104/84/99
f 103/83/98 105/85/100 107/87/102
f 103/83/98 107/87/102 106/86/101
f 104/84/99 108/88/103 105/85/100
f 104/84/99 106/86/101 108/88/103
f 108/88/103 107/87/102 105/85/100
f 108/88/103 106/86/101 107/87/102
f 109/83/104 110/85/105 111/84/106
f 109/83/104 112/87/107 110/85/105
f 109/83/104 111/84/106 113/86/108
f 109/83/104 113/86/108 112/87/107
f 110/85/105 114/88/109 111/84/106
f 110/85/105 112/87/107 114/88/109
f 114/88/109 113/86/108 111/84/106
f 114/88/109 112/87/107 113/86/108
f 115/89/110 116/90/111 117/91/111
f 115/89/110 118/92/110 116/90/111
f 115/89/110 119/93/112 118/92/110
f 115/89/110 120/94/112 119/93/112
f 117/91/111 116/90/111 121/95/111
f 117/91/111 121/95/111 122/96/111
f 120/94/112 123/97/113 119/93/112
f 120/94/112 124/98/113 123/97/113
f 124/98/113 125/99/114 123/97/113
f 125/99/114 126/100/114 123/97/113
f 125/99/114 127/101/115 126/100/114
f 127/101/115 128/102/115 126/100/114
f 127/101/115 129/103/116 128/102/115
f 127/101/115 130/104/116 129/103/116
f 130/104/116 131/105/117 129/103/116
f 130/104/116 132/106/117 131/105/117
f 132/106/117 133/107/118 131/105/117
f 132/106/117 134/108/118 133/107/118
f 134/108/118 118/109/119 133/107/118
f 134/108/118 115/110/119 118/109/119
f 127/101/120 128/102/120 129/103/121
f 127/101/120 126/100/122 128/102/120
f 127/101/120 129/103/121 130/104/123
f 127/101/120 125/99/124 126/100/122
f 129/103/121 131/105/125 130/104/123
f 125/99/124 123/97/126 126/100/122
f 125/99/124 124/98/126 123/97/126
f 131/105/125 132/106/125 130/104/123
f 131/105/125 133/107/127 132/106/125
f 124/98/126 120/94/128 123/97/126
f 133/107/127 134/108/127 132/106/125
f 133/107/127 118/109/129 134/108/127
f 120/94/128 119/93/128 123/97/126
f 120/94/128 115/89/130 119/93/128
f 118/109/129 115/110/129 134/108/127
f 115/89/130 118/92/130 119/93/128
f 135/111/131 136/112/132 137/113/132
f 135/111/131 137/113/132 138/114/131
f 135/111/131 138/114/131 139/109/133
f 135/111/131 139/109/133 140/110/133
f 139/109/133 141/108/134 140/110/133
f 139/109/133 142/107/134 141/108/134
f 142/107/134 143/106/135 141/108/134
f 142/107/134 144/105/135 143/106/135
f 144/105/135 145/104/136 143/106/135
f 144/105/135 146/103/136 145/104/136
f 146/103/136 147/101/137 145/104/136
f 146/103/136 148/102/137 147/101/137
f 148/102/137 149/100/138 147/101/137
f 149/100/138 150/99/139 147/101/137
f 149/100/138 137/97/140 150/99/139
f 137/97/140 136/98/141 150/99/139
f 137/97/140 151/93/142 136/98/141
f 151/93/142 152/94/143 136/98/141
f 151/93/142 118/92/144 152/94/143
f 118/92/144 115/89/144 152/94/143
f 135/111/145 138/114/145 137/113/146
f 135/111/145 139/109/147 138/114/145
f 135/111/145 137/113/146 136/112/146
f 135/111/145 140/110/147 139/109/147
f 140/110/147 141/108/148 139/109/147
f 141/108/148 142/107/148 139/109/147
f 141/108/148 143/106/149 142/107/148
f 143/106/149 144/105/149 142/107/148
f 143/106/149 145/104/150 144/105/149
f 145/104/150 146/103/150 144/105/149
f 145/104/150 147/101/151 146/103/150
f 147/101/151 148/102/151 146/103/150
f 147/101/151 149/100/152 148/102/151
f 147/101/151 150/99/153 149/100/152
f 150/99/153 137/97/154 149/100/152
f 150/99/153 136/98/155 137/97/154
f 136/98/155 151/93/156 137/97/154
f 136/98/155 152/94/157 151/93/156
f 152/94/157 118/92/158 151/93/156
f 152/94/157 115/89/158 118/92/158
f 77/58/87 153/115/159 154/115/160
f 77/58/87 94/72/161 153/115/159
f 77/58/87 154/115/160 94/72/161
f 155/116/162 156/117/163 157/118/164
f 155/116/162 158/119/165 156/117/163
f 155/116/162 157/118/164 158/119/165
f 159/116/166 160/118/167 161/117/168
f 159/116/166 162/119/169 160/118/167
f 159/116/166 161/117/168 162/119/169
f 116/90/170 118/92/171 115/89/171
f 116/90/170 115/89/171 117/91/170
f 116/90/170 117/91/170 121/95/172
f 117/91/170 122/96/172 121/95/172
vt 0.944266 0.876575
vt 0.775287 0.762141
vt 0.47138 0.762141
vt 0.0174152 0.856552
vt 0.0174152 0.940005
vt 0.838683 1.00076
o merged_1_0_node
g polygon_0
usemtl TEX_ANIM_EYE_mat_id
f 33/120/33 31/121/31 98/122/93
f 56/120/56 99/123/94 100/122/95
f 99/123/94 102/124/97 33/120/33
f 33/120/33 102/124/97 35/125/35
f 99/123/94 56/120/56 102/124/97
f 102/124/97 56/120/56 53/125/53
f 56/120/56 100/122/95 51/121/51
f 98/122/93 99/123/94 33/120/33
