mtllib Unown_C.mtl
v -0.0256103 0.0497124 0.03
vt 0.5 0.166667
vn -0.4540821 -0.7478291 0.4843151
v -0.0256103 0.023057 0.03
vt 0.5 0
vn -0.8173004 -0.3838332 0.4297582
v 0.0275438 0.023057 0.03
vt 0.75 0.0833333
vn 0.9170462 -0.1670491 0.3621061
v -0.0256103 0.023057 -0.03
vn -0.8173004 -0.3838332 -0.4297582
v 0.0275438 0.0991912 0.03
vt 0.75 0.333333
vn 0.7846132 0.5482122 0.2895611
v -0.0256103 0.0497124 -0.03
vn -0.4540821 -0.7478291 -0.4843151
v -0.0256514 0.0991912 0.03
vt 0.5 0.333333
vn 0.231458 0.877945 0.419094
v -0.144022 0.0949563 0.03
vt 0.125 0.166667
vn -0.678278 -0.66875 0.304487
v -0.102933 0.13359 0.03
vt 0.25 0.333333
vn 0.62275 0.551543 0.554962
v 0.000966751 0.00504558 0
vt 0.625 0.0416667
vn 0 -1 0
v -0.0256514 0.0991912 -0.03
vn 0.231458 0.877945 -0.419094
v 0.0275438 0.0991912 -0.03
vn 0.7846132 0.5482122 -0.2895611
v -0.144022 0.0949563 -0.03
vn -0.678278 -0.66875 -0.304487
v 0.0275438 0.023057 -0.03
vn 0.9170462 -0.1670491 -0.3621061
v -0.102933 0.13359 -0.03
vn 0.62275 0.551543 -0.554962
v -0.208332 0.235038 0.03
vt 0 0.458333
vn -0.9529526 -0.0004653253 0.3031192
v -0.145965 0.235038 0.03
vt 0.25 0.583333
vn 0.7914293 0.07643994 0.6064623
v -0.145965 0.235038 -0.03
vn 0.7914293 0.07643994 -0.6064623
v -0.208332 0.235038 -0.03
vn -0.9529523 -0.0004653251 -0.30312
v -0.119053 0.300487 0.03
vt 0.3125 0.833333
vn -0.1230189 -0.5453567 0.8291276
v -0.14416 0.378467 0.03
vt 0.125 0.958333
vn -0.6577991 0.6987371 0.2811881
v -0.119053 0.300487 -0.03
vn -0.123019 -0.5453571 -0.8291272
v -0.0787176 0.349761 0.03
vt 0.5 0.833333
vn 0.5487188 0.07245028 0.8328617
v -0.14416 0.378467 -0.03
vn -0.6577993 0.6987374 -0.2811871
v 0 0.431164 0.03
vt 0.5 1
vn -0.0241072 0.9669689 0.253752
v 0.0159797 0.259877 0.03
vt 0.5 0.666667
vn 0.3181672 0.7728264 0.5490983
v -0.0181978 0.206217 -0.03
vt 0.59375 0.541667
vn -0.2710651 -0.9116313 -0.3089531
v -0.0181978 0.206217 0.03
vn -0.2710651 -0.9116313 0.3089531
v 0 0.431164 -0.03
vn -0.0241072 0.9669691 -0.253751
v 8.00751E-05 0.380296 0.03
vt 0.625 0.833333
vn -0.03412832 -0.8864204 0.4616212
v 0.144192 0.385656 0.03
vt 0.875 0.958333
vn 0.5837339 0.7359648 0.3429439
v 0.102685 0.342777 0.03
vt 0.75 0.833333
vn -0.510665 -0.592583 0.62295
v 0.0159797 0.259877 -0.03
vn 0.3181672 0.7728264 -0.5490983
v -0.0787176 0.349761 -0.03
vn 0.5487188 0.07245028 -0.8328617
v 0.140004 0.259715 0.03
vt 0.75 0.666667
vn -0.3440689 0.3598609 0.8672467
v 0.102685 0.342777 -0.03
vn -0.510665 -0.592583 -0.62295
v 8.00753E-05 0.380296 -0.03
vn -0.03412832 -0.8864204 -0.4616212
v 0.197993 0.274125 0.03
vt 1 0.666667
vn 0.8962176 0.2687149 0.3529679
v 0.144192 0.385656 -0.03
vn 0.5837339 0.7359648 -0.3429439
v 0.197993 0.206217 -0.03
vt 1 0.5
vn 0.2887352 -0.9192104 -0.2677391
v 0.140004 0.259715 -0.03
vn -0.3440689 0.3598609 -0.8672467
v 0.197993 0.274125 -0.03
vn 0.8962176 0.2687149 -0.3529679
v 0.197993 0.206217 0.03
vn 0.2887349 -0.9192106 0.2677389
v 0 0.235943 -0.0632906
vt 0.5 -0.5
vn 0 0 -1
v 0 0.361203 -0.0450122
vt 0.5 -1
vn 0 0.894837 -0.446393
v 0.0885727 0.324515 -0.0450122
vt 0.853553 -0.853553
vn 0.6327453 0.6327453 -0.4463932
v -0.0885727 0.324515 -0.0450122
vt 0.146447 -0.853553
vn -0.6327453 0.6327453 -0.4463932
v 0.125261 0.235943 -0.0450122
vt 1 -0.5
vn 0.894837 0 -0.446393
v -0.125261 0.235943 -0.0450122
vt 0 -0.5
vn -0.894837 0 -0.446393
v 0.0885727 0.14737 -0.0450122
vt 0.853553 -0.146447
vn 0.6327453 -0.6327453 -0.4463932
v -0.0885727 0.14737 -0.0450122
vt 0.146447 -0.146447
vn -0.6327453 -0.6327453 -0.4463932
v 0 0.110682 -0.0450122
vn 0 -0.894837 -0.446393
vt 0.125 0
v 0.0885727 0.324515 0.0426161
vt 0 1
vn 0.703783 0.705002 0.0875312
vt 0 0
v 0 0.361203 0.0426161
vt 0.125 1
vn -0.0008618464 0.9961614 0.08753144
vt 0.25 0
v -0.0885727 0.324515 0.0426161
vt 0.25 1
vn -0.705002 0.703783 0.0875313
vt 0.375 0
v -0.125261 0.235943 0.0426161
vt 0.375 1
vn -0.9961614 -0.0008618213 0.08753134
v -0.0885727 0.14737 0.0426161
vn -0.703783 -0.705002 0.0875313
vt 0.625 0
v 0 0.110682 0.0426161
vt 0.625 1
vn 0.0008618393 -0.9961614 0.08753134
vt 0.75 0
v 0.0885727 0.14737 0.0426161
vt 0.75 1
vn 0.705002 -0.703783 0.0875313
vt 0.875 0
v 0.125261 0.235943 0.0426161
vt 0.875 1
vn 0.9961614 0.0008618854 0.08753134
vt 1 0
vt 1 1
vt 0.853553 1.85355
vt 0.5 2
v 0.0727545 0.308697 0.0495704
vt 0.676777 1.67678
vn 0.1868591 0.1911201 0.9636165
v 0.10289 0.235943 0.0495704
vt 0.75 1.5
vn 0.2672721 0.003012991 0.9636164
vt 1 1.5
v 0 0.338833 0.0495704
vt 0.5 1.75
vn -0.003013041 0.2672721 0.9636164
vt 0.146447 1.85355
v 0.0727545 0.163188 0.0495704
vt 0.676777 1.32322
vn 0.1911201 -0.1868591 0.9636165
v -0.0727545 0.308697 0.0495704
vt 0.323223 1.67678
vn -0.1911201 0.1868591 0.9636165
vt 0 1.5
vt 0.853553 1.14645
v 0 0.133052 0.0495704
vt 0.5 1.25
vn 0.003012988 -0.2672718 0.9636164
v -0.10289 0.235943 0.0495704
vt 0.25 1.5
vn -0.2672721 -0.003013051 0.9636164
vt 0.146447 1.14645
v -0.0727545 0.163188 0.0495704
vt 0.323223 1.32322
vn -0.1868591 -0.1911201 0.9636165
o merged_0_0_node
g polygon_0
usemtl mat_body_mat_id
f 1/1/1 2/2/2 3/3/3
f 1/1/1 4/2/4 2/2/2
f 1/1/1 3/3/3 5/4/5
f 1/1/1 6/1/6 4/2/4
f 1/1/1 5/4/5 7/5/7
f 1/1/1 8/6/8 6/1/6
f 1/1/1 7/5/7 9/7/9
f 1/1/1 9/7/9 8/6/8
f 2/2/2 10/8/10 3/3/3
f 2/2/2 4/2/4 10/8/10
f 5/4/5 11/5/11 7/5/7
f 5/4/5 3/3/3 12/4/12
f 5/4/5 12/4/12 11/5/11
f 6/1/6 8/6/8 13/6/13
f 6/1/6 14/3/14 4/2/4
f 6/1/6 12/4/12 14/3/14
f 6/1/6 15/7/15 11/5/11
f 6/1/6 13/6/13 15/7/15
f 6/1/6 11/5/11 12/4/12
f 14/3/14 10/8/10 4/2/4
f 14/3/14 12/4/12 3/3/3
f 14/3/14 3/3/3 10/8/10
f 7/5/7 15/7/15 9/7/9
f 7/5/7 11/5/11 15/7/15
f 8/6/8 16/9/16 13/6/13
f 8/6/8 9/7/9 17/10/17
f 8/6/8 17/10/17 16/9/16
f 15/7/15 13/6/13 18/10/18
f 15/7/15 18/10/18 9/7/9
f 9/7/9 18/10/18 17/10/17
f 16/9/16 19/9/19 13/6/13
f 16/9/16 17/10/17 20/11/20
f 16/9/16 21/12/21 19/9/19
f 16/9/16 20/11/20 21/12/21
f 13/6/13 19/9/19 18/10/18
f 17/10/17 22/11/22 20/11/20
f 17/10/17 18/10/18 22/11/22
f 18/10/18 19/9/19 22/11/22
f 21/12/21 20/11/20 23/13/23
f 21/12/21 24/12/24 19/9/19
f 21/12/21 23/13/23 25/14/25
f 21/12/21 25/14/25 24/12/24
f 19/9/19 24/12/24 22/11/22
f 20/11/20 26/15/26 23/13/23
f 20/11/20 22/11/22 27/16/27
f 20/11/20 28/16/28 26/15/26
f 20/11/20 27/16/27 28/16/28
f 25/14/25 29/14/29 24/12/24
f 25/14/25 23/13/23 30/17/30
f 25/14/25 31/18/31 29/14/29
f 25/14/25 30/17/30 32/19/32
f 25/14/25 32/19/32 31/18/31
f 22/11/22 33/15/33 27/16/27
f 22/11/22 24/12/24 34/13/34
f 22/11/22 34/13/34 33/15/33
f 24/12/24 29/14/29 34/13/34
f 26/15/26 28/16/28 35/20/35
f 26/15/26 34/13/34 23/13/23
f 26/15/26 35/20/35 33/15/33
f 26/15/26 33/15/33 34/13/34
f 30/17/30 36/19/36 32/19/32
f 30/17/30 23/13/23 37/17/37
f 30/17/30 37/17/37 36/19/36
f 37/17/37 34/13/34 29/14/29
f 37/17/37 23/13/23 34/13/34
f 37/17/37 29/14/29 36/19/36
f 31/18/31 32/19/32 38/21/38
f 31/18/31 39/18/39 29/14/29
f 31/18/31 38/21/38 39/18/39
f 29/14/29 39/18/39 36/19/36
f 27/16/27 40/22/40 28/16/28
f 27/16/27 33/15/33 41/20/41
f 27/16/27 41/20/41 40/22/40
f 32/19/32 35/20/35 38/21/38
f 32/19/32 36/19/36 41/20/41
f 32/19/32 41/20/41 35/20/35
f 33/15/33 35/20/35 41/20/41
f 39/18/39 38/21/38 42/21/42
f 39/18/39 42/21/42 36/19/36
f 41/20/41 42/21/42 40/22/40
f 41/20/41 36/19/36 42/21/42
f 28/16/28 43/22/43 35/20/35
f 28/16/28 40/22/40 43/22/43
f 43/22/43 38/21/38 35/20/35
f 43/22/43 40/22/40 42/21/42
f 43/22/43 42/21/42 38/21/38
f 44/23/44 45/24/45 46/25/46
f 44/23/44 47/26/47 45/24/45
f 44/23/44 46/25/46 48/27/48
f 44/23/44 49/28/49 47/26/47
f 44/23/44 48/27/48 50/29/50
f 44/23/44 51/30/51 49/28/49
f 44/23/44 50/29/50 52/2/52
f 44/23/44 52/2/52 51/30/51
f 45/31/45 53/32/53 46/33/46
f 45/31/45 54/34/54 53/32/53
f 45/31/45 47/35/47 54/34/54
f 47/35/47 55/36/55 54/34/54
f 47/35/47 49/37/49 55/36/55
f 49/37/49 56/38/56 55/36/55
f 49/37/49 51/2/51 56/38/56
f 51/2/51 57/14/57 56/38/56
f 51/2/51 52/39/52 57/14/57
f 52/39/52 58/40/58 57/14/57
f 52/39/52 50/41/50 58/40/58
f 50/41/50 59/42/59 58/40/58
f 50/41/50 48/43/48 59/42/59
f 48/43/48 60/44/60 59/42/59
f 48/43/48 46/45/46 60/44/60
f 46/45/46 53/46/53 60/44/60
f 53/47/53 54/48/54 61/49/61
f 53/47/53 61/49/61 62/50/62
f 53/47/53 62/50/62 60/51/60
f 54/48/54 63/52/63 61/49/61
f 54/48/54 55/53/55 63/52/63
f 62/50/62 64/54/64 60/51/60
f 55/53/55 65/55/65 63/52/63
f 55/53/55 56/56/56 65/55/65
f 64/54/64 59/57/59 60/51/60
f 64/54/64 66/58/66 59/57/59
f 56/56/56 67/59/67 65/55/65
f 56/56/56 57/60/57 67/59/67
f 66/58/66 58/14/58 59/57/59
f 66/58/66 68/61/68 58/14/58
f 68/61/68 67/59/67 57/60/57
f 68/61/68 57/60/57 58/14/58
v 0 0.235943 0.0767688
vt 0.5 0.875002
vn 0 0 1
vt 0.853553 0.963283
vt 0.5 0.999851
vt 0.146447 0.963283
vt 0 0.875002
vt 0.146447 0.786721
vt 0.5 0.750153
vt 0.853553 0.786721
vt 1 0.875002
o merged_1_0_node
g polygon_0
usemtl TEX_ANIM_EYE_mat_id
f 69/62/69 61/63/61 63/64/63
f 69/62/69 63/64/63 65/65/65
f 69/62/69 65/65/65 67/66/67
f 69/62/69 67/66/67 68/67/68
f 69/62/69 68/67/68 66/68/66
f 69/62/69 66/68/66 64/69/64
f 69/62/69 64/69/64 62/70/62
f 69/62/69 62/70/62 61/63/61
