mtllib Vibrava.mtl
v -0.113539 0.014629 0.3748
vt 0.516671 0.709011
vn -0.4965209 -0.8680248 0
v -0.130893 0.109431 0.489122
vt 0.557901 0.964655
vn -0.5858538 -0.5399089 0.6043788
v -0.171294 0.0724613 0.3748
vt 0.653886 0.709011
vn -0.7075801 -0.7066332 0
v 0 0.0188517 0.498286
vt 0.246922 0.985145
vn 0 -0.8423405 0.5389457
v -0.130893 0.109431 0.260477
vt 0.557901 0.453366
vn -0.5858538 -0.5399089 -0.6043788
v 0 0.00361099 0.3748
vt 0.246922 0.709011
vn 0 -1 0
v 0 0.0188517 0.251314
vt 0.246922 0.432876
vn 0 -0.842341 -0.538945
v 0.113539 0.014629 0.3748
vn 0.4965209 -0.8680248 0
v 0.130893 0.109431 0.489122
vn 0.5858542 -0.5399092 0.6043782
v 0.171294 0.0724613 0.3748
vn 0.7075801 -0.7066332 0
v 0.130893 0.109431 0.260477
vn 0.5858538 -0.5399089 -0.6043788
v 0.098053 0.33849 0.3748
vt 0.921622 0.968913
vn 0.4859659 0.8739778 0
v 0.130893 0.244563 0.489122
vn 0.588071 0.559981 0.583604
v 0.171294 0.281533 0.3748
vn 0.6138859 0.7893948 0
v 0 0.335142 0.498286
vn 0 0.8465482 0.5323121
v 0.130893 0.244563 0.260477
vn 0.5880717 0.5599808 -0.5836037
v 0 0.350383 0.3748
vn 0 1 0
v 0 0.335142 0.251314
vn 0 0.8465482 -0.5323121
v 0 0.266969 0.561325
vn 0 0.5369853 0.8435916
v 0.0881296 0.176997 0.55168
vn 0.5713079 0 0.8207358
v 0 0.266969 0.188274
vn 0 0.5369856 -0.8435914
v 0.0881296 0.176997 0.19792
vn 0.5713084 0 -0.8207355
v -0.098053 0.33849 0.3748
vn -0.4859659 0.8739778 0
v 0 0.176997 0.579531
vn 0 0 1
v -0.130893 0.244563 0.489122
vn -0.5880717 0.5599808 0.5836037
v -0.0881296 0.176997 0.55168
vn -0.5713084 0 0.8207355
v 0 0.0870249 0.561325
vn 0 -0.5369856 0.8435914
v 0 0.176997 0.170069
vn 0 0 -1
v -0.130893 0.244563 0.260477
vn -0.5880717 0.5599808 -0.5836037
v -0.0881296 0.176997 0.19792
vn -0.5713084 0 -0.8207355
v 0 0.0870249 0.188274
vn 0 -0.5369856 -0.8435914
v -0.171294 0.281533 0.3748
vn -0.6138864 0.7893944 0
v 0.20591 0.179085 0.448684
vt 0.264402 0.205878
vn 0.9197687 0 0.3924609
v 0.17776 0.061226 0.373712
vt 0.383985 0.012388
vn 0.6577187 -0.7532637 0
v 0.20591 0.179085 0.298741
vt 0.503569 0.205878
vn 0.9197687 0 -0.3924609
v 0.132213 0.106244 0.495018
vt 0.190496 0.0862946
v 0.17776 0.296944 0.373712
vt 0.383985 0.399367
vn 0.6577187 0.7532637 0
v 0.132213 0.251926 0.495018
vt 0.190496 0.325461
v 0.132213 0.106244 0.252407
vt 0.577475 0.0862946
v 0.0866663 0.061226 0.373712
vn -0.6577187 -0.7532637 0
v 0.0866663 0.296944 0.373712
vn -0.6577187 0.7532637 0
v 0.132213 0.251926 0.252407
vt 0.577475 0.325461
v 0.0585167 0.179085 0.448684
vn -0.9197687 0 0.3924609
v 0.0585167 0.179085 0.298741
vn -0.9197687 0 -0.3924609
v -0.0573462 0.179085 0.448684
v -0.0854958 0.061226 0.373712
v -0.0573462 0.179085 0.298741
v -0.131043 0.106244 0.495018
v -0.0854958 0.296944 0.373712
v -0.131043 0.251926 0.495018
v -0.131043 0.106244 0.252407
v -0.17659 0.061226 0.373712
v -0.17659 0.296944 0.373712
v -0.131043 0.251926 0.252407
v -0.204739 0.179085 0.448684
v -0.204739 0.179085 0.298741
v 0.00188777 0.275664 -0.494941
vt 0.827659 0.925185
vn -0.008311523 0.127332 -0.9918253
v 0.00104742 0.101776 -0.250494
vn 0 -0.8423409 -0.538945
v -0.126258 0.181438 -0.207112
vn -0.901857 -0.0258414 -0.431261
v 0.126258 0.181438 -0.207112
vn 0.9043604 -0.02589301 -0.4259832
v 0.00104742 0.269989 -0.22678
v 0 0.0334308 -0.112926
vn -0.000672807 -0.9500421 -0.312121
v 0 0.279015 -0.112926
vn -0.0006900153 0.9874195 -0.1581211
vt 0.965716 0.377507
vt 0.965716 0.217067
v 0.184096 0.0803332 0.0750236
vt 0.965716 0.697667
vn 0.7656084 -0.6431673 0.01340221
v 0 0.0334308 0.157719
vt 0.965716 0.838534
vn 0 -0.9415069 0.336994
v -0.184096 0.0803332 0.0750236
vn -0.7656084 -0.6431673 0.01340221
v 0.184096 0.232113 0.0750236
vn 0.769797 0.636183 0.051804
v -0.184096 0.232113 0.0750236
vn -0.769797 0.636183 0.051804
v 0.113777 0.156223 0.255195
vn 0.470798 0 0.882241
v -0.113777 0.156223 0.255195
vn -0.470798 0 0.882241
v 0 0.279015 0.157719
vn 0 0.9415069 0.336994
vt 0.92957 0.293845
vt 0.614137 0.435565
vt 0.92957 0.757662
vt 0.668466 0.11892
v 0.0780522 0.280429 0.716921
vn 0.3714969 0.1469709 0.9167277
v 0.0776482 0.278611 0.449381
vn 0.998625 -0.0524086 -0.00115201
v 0.0173486 0.317061 0.449381
vn -0.4496559 0.8655478 0.2205369
v 0.0141999 0.252253 0.449381
vn -0.5888573 -0.7770433 0.2223751
v -0.0780522 0.280429 0.716921
vn -0.371501 0.146971 0.916726
v -0.0173486 0.317061 0.449381
vn 0.4496559 0.8655478 0.2205369
v -0.0776482 0.278611 0.449381
vn -0.9986251 -0.05240831 -0.00115231
v -0.0141999 0.252253 0.449381
vn 0.588858 -0.7770429 0.222375
v 0.151882 0.129583 0.162309
vt 0.1773 0.491181
vn -0.8717735 -0.4469512 0.2006131
v 0.265169 0.0934134 0.180991
vn 0.4591629 0.107475 -0.8818268
v 0.303485 -0.000706472 0.219078
vn -0.436756 -0.857211 0.272825
v 0.249323 0.106716 0.225301
vn -0.3293491 0.07669591 0.9410882
v 0.186433 0.129583 0.0726219
vn -0.7664612 -0.4469511 0.4612721
v 0.299924 0.0934134 0.0552207
vn 0.1628029 0.107475 -0.9807876
v 0.348168 -0.000706472 0.0795351
vn -0.3305141 -0.8572113 0.3949041
v 0.298613 0.106716 0.102261
vn -0.0210069 0.07669561 0.9968332
v -0.151882 0.129583 0.162309
vn 0.8717729 -0.4469519 0.200614
v -0.303485 -0.000706471 0.219078
vn 0.4367561 -0.8572112 0.2728241
v -0.265169 0.0934134 0.180991
vn -0.4591629 0.107475 -0.8818268
v -0.249323 0.106716 0.225301
vn 0.3293491 0.07669552 0.9410882
v -0.186433 0.129583 0.0726219
vn 0.7664612 -0.4469511 0.4612721
v -0.348168 -0.000706476 0.0795351
vn 0.330514 -0.8572119 0.3949029
v -0.299924 0.0934134 0.0552207
vn -0.1628039 0.1074749 -0.9807875
v -0.298613 0.106716 0.102261
vn 0.0210073 0.07669561 0.9968332
v 0.173668 0.435677 -0.600812
vt 0.0144889 0.989517
vn -0.239546 0.7697851 0.5916491
v 0.0349376 0.25554 -0.422608
vt 0.0144889 0.0104831
v 0.165362 0.335741 -0.47415
vt 0.201313 0.499814
v 0.0432437 0.355476 -0.54927
vn 0.239546 -0.7697851 -0.5916491
v -0.0349376 0.25554 -0.422608
vn 0.2395479 0.7697847 0.5916488
v -0.173668 0.435677 -0.600812
v -0.165362 0.335741 -0.47415
v -0.0432437 0.355476 -0.54927
vn -0.239546 -0.7697851 -0.5916491
v 0.549318 0.5314986 -0.3325203
vn 0.08889206 0.7861562 0.6116017
v 0.06611926 0.2731621 0.06972104
v 0.3949893 0.3413584 -0.06572114
v 0.220447 0.4633022 -0.197078
vn -0.08889206 -0.7861562 -0.6116017
v 0.5755617 0.6900839 -0.09961338
vn -0.0201983 0.397333 0.9174522
v 0.4036126 0.3962359 0.02385541
v 0.2380685 0.5670102 -0.05374765
vn 0.0201984 -0.397333 -0.9174522
v -0.5493336 0.5315088 -0.3325092
vn 0.08890818 -0.7861652 -0.6115876
v -0.06611909 0.273162 0.06972109
v -0.3949987 0.3413642 -0.06571688
v -0.220453 0.4633065 -0.1970711
vn -0.08890818 0.7861652 0.6115876
vn 0.02019164 0.3973398 0.9174494
v -0.5755809 0.6900938 -0.09960967
v -0.4036233 0.3962415 0.02385686
v -0.2380768 0.5670143 -0.05374534
vn -0.02019154 -0.3973398 -0.9174494
o merged_0_0_node
g polygon_0
usemtl lambert2_mat_id
f 1/1/1 2/2/2 3/3/3
f 1/1/1 4/4/4 2/2/2
f 1/1/1 3/3/3 5/5/5
f 1/1/1 6/6/6 4/4/4
f 1/1/1 5/5/5 7/7/7
f 1/1/1 7/7/7 6/6/6
f 4/4/4 6/6/6 8/1/8
f 4/4/4 8/1/8 9/2/9
f 6/6/6 7/7/7 8/1/8
f 9/2/9 8/1/8 10/3/10
f 7/7/7 11/5/11 8/1/8
f 8/1/8 11/5/11 10/3/10
f 12/8/12 13/8/13 14/8/14
f 12/8/12 15/8/15 13/8/13
f 12/8/12 14/8/14 16/8/16
f 12/8/12 17/8/17 15/8/15
f 12/8/12 16/8/16 18/8/18
f 12/8/12 18/8/18 17/8/17
f 13/8/13 15/8/15 19/8/19
f 13/8/13 19/8/19 20/8/20
f 13/8/13 20/8/20 9/8/9
f 16/8/16 21/8/21 18/8/18
f 16/8/16 22/8/22 21/8/21
f 16/8/16 11/8/11 22/8/22
f 17/8/17 23/8/23 15/8/15
f 17/8/17 18/8/18 23/8/23
f 19/8/19 24/8/24 20/8/20
f 19/8/19 15/8/15 25/8/25
f 19/8/19 26/8/26 24/8/24
f 19/8/19 25/8/25 26/8/26
f 15/8/15 23/8/23 25/8/25
f 9/8/9 20/8/20 27/8/27
f 9/8/9 27/8/27 4/8/4
f 24/8/24 26/8/26 27/8/27
f 24/8/24 27/8/27 20/8/20
f 21/8/21 22/8/22 28/8/28
f 21/8/21 29/8/29 18/8/18
f 21/8/21 28/8/28 30/8/30
f 21/8/21 30/8/30 29/8/29
f 18/8/18 29/8/29 23/8/23
f 11/8/11 31/8/31 22/8/22
f 11/8/11 7/8/7 31/8/31
f 28/8/28 31/8/31 30/8/30
f 28/8/28 22/8/22 31/8/31
f 25/8/25 2/8/2 26/8/26
f 25/8/25 23/8/23 32/8/32
f 2/8/2 4/8/4 27/8/27
f 2/8/2 27/8/27 26/8/26
f 32/8/32 23/8/23 29/8/29
f 7/8/7 5/8/5 31/8/31
f 5/8/5 29/8/29 30/8/30
f 5/8/5 30/8/30 31/8/31
f 33/9/33 34/10/34 35/11/35
f 33/9/33 36/12/27 34/10/34
f 33/9/33 35/11/35 37/13/36
f 33/9/33 38/14/19 36/12/27
f 33/9/33 37/13/36 38/14/19
f 34/10/34 39/15/31 35/11/35
f 34/10/34 36/12/27 40/10/37
f 34/10/34 40/10/37 39/15/31
f 37/13/36 41/13/38 38/14/19
f 37/13/36 35/11/35 42/16/21
f 37/13/36 42/16/21 41/13/38
f 35/11/35 39/15/31 42/16/21
f 36/12/27 43/9/39 40/10/37
f 36/12/27 38/14/19 43/9/39
f 38/14/19 41/13/38 43/9/39
f 39/15/31 44/11/40 42/16/21
f 39/15/31 40/10/37 44/11/40
f 44/11/40 43/9/39 41/13/38
f 44/11/40 41/13/38 42/16/21
f 44/11/40 40/10/37 43/9/39
f 45/9/33 46/10/34 47/11/35
f 45/9/33 48/12/27 46/10/34
f 45/9/33 47/11/35 49/13/36
f 45/9/33 50/14/19 48/12/27
f 45/9/33 49/13/36 50/14/19
f 46/10/34 51/15/31 47/11/35
f 46/10/34 48/12/27 52/10/37
f 46/10/34 52/10/37 51/15/31
f 49/13/36 53/13/38 50/14/19
f 49/13/36 47/11/35 54/16/21
f 49/13/36 54/16/21 53/13/38
f 47/11/35 51/15/31 54/16/21
f 48/12/27 55/9/39 52/10/37
f 48/12/27 50/14/19 55/9/39
f 50/14/19 53/13/38 55/9/39
f 51/15/31 56/11/40 54/16/21
f 51/15/31 52/10/37 56/11/40
f 56/11/40 55/9/39 53/13/38
f 56/11/40 53/13/38 54/16/21
f 56/11/40 52/10/37 55/9/39
f 57/17/41 58/17/42 59/17/43
f 57/17/41 60/17/44 58/17/42
f 57/17/41 59/17/43 61/17/17
f 57/17/41 61/17/17 60/17/44
f 58/17/42 62/17/45 59/17/43
f 58/17/42 60/17/44 62/17/45
f 61/17/17 59/17/43 63/17/46
f 61/17/17 63/17/46 60/17/44
f 62/18/45 60/19/44 64/20/47
f 62/18/45 64/20/47 65/21/48
f 62/18/45 65/21/48 66/20/49
f 62/18/45 66/20/49 59/19/43
f 60/19/44 67/20/50 64/20/47
f 60/19/44 63/18/46 67/20/50
f 66/20/49 68/20/51 59/19/43
f 59/19/43 68/20/51 63/18/46
f 69/17/52 64/17/47 67/17/50
f 69/17/52 65/17/48 64/17/47
f 69/17/52 70/17/53 65/17/48
f 69/17/52 71/17/54 70/17/53
f 65/17/48 70/17/53 66/17/49
f 70/17/53 68/17/51 66/17/49
f 71/22/54 67/23/50 63/24/46
f 71/22/54 69/25/52 67/23/50
f 71/22/54 63/24/46 68/23/51
f 71/22/54 68/23/51 70/25/53
f 72/8/55 73/8/56 74/8/57
f 72/8/55 75/8/58 73/8/56
f 72/8/55 74/8/57 75/8/58
f 76/8/59 77/8/60 78/8/61
f 76/8/59 79/8/62 77/8/60
f 76/8/59 78/8/61 79/8/62
f 80/26/63 81/26/64 82/26/65
f 80/26/63 83/26/66 81/26/64
f 80/26/63 82/26/65 83/26/66
f 83/26/66 82/26/65 81/26/64
f 84/26/67 85/26/68 86/26/69
f 84/26/67 87/26/70 85/26/68
f 84/26/67 86/26/69 87/26/70
f 87/26/70 86/26/69 85/26/68
f 88/26/71 89/26/72 90/26/73
f 88/26/71 91/26/74 89/26/72
f 88/26/71 90/26/73 91/26/74
f 91/26/74 90/26/73 89/26/72
f 92/26/75 93/26/76 94/26/77
f 92/26/75 95/26/78 93/26/76
f 92/26/75 94/26/77 95/26/78
f 95/26/78 94/26/77 93/26/76
f 96/27/79 97/28/79 98/29/79
f 96/27/79 99/29/79 97/28/79
f 97/28/80 96/27/80 98/29/80
f 97/28/80 99/29/80 96/27/80
f 100/28/81 101/27/81 102/29/81
f 100/28/81 103/29/81 101/27/81
f 100/28/82 101/27/82 103/29/82
f 100/28/82 102/29/82 101/27/82
f 104/27/83 105/28/83 106/29/83
f 104/27/83 107/29/83 105/28/83
f 105/28/84 104/27/84 106/29/84
f 105/28/84 107/29/84 104/27/84
f 108/27/85 105/28/85 109/29/85
f 108/27/85 110/29/85 105/28/85
f 105/28/86 108/27/86 109/29/86
f 105/28/86 110/29/86 108/27/86
f 111/27/87 112/28/87 113/29/87
f 111/27/87 114/29/87 112/28/87
f 112/28/88 111/27/88 113/29/88
f 112/28/88 114/29/88 111/27/88
f 112/28/89 115/27/89 116/29/89
f 112/28/89 117/29/89 115/27/89
f 112/28/90 115/27/90 117/29/90
f 112/28/90 116/29/90 115/27/90
