ply
format ascii 1.0
element vertex 790
property float x
property float y
property float z
property uchar red
property uchar green
property uchar blue
element face 926
property list uchar int vertex_index
end_header
0.21153 -0.48823 2.11244 255 255 255
0.25006 -0.48823 2.11244 255 255 255
0.37576 -0.48823 2.09337 255 255 255
0.10369 -0.48823 2.09337 255 255 255
0.10369 -0.44807 2.09337 255 255 255
0.37576 -0.44807 2.09337 255 255 255
0.37576 -0.44807 2.21822 255 255 255
0.37576 -0.48823 2.21822 255 255 255
0.25006 -0.48823 2.21822 255 255 255
0.21153 -0.48823 2.21822 255 255 255
0.10369 -0.48823 2.21822 255 255 255
0.21153 -0.48823 2.21822 42 42 42
0.25006 -0.48823 2.21822 42 42 42
0.25006 -0.48823 2.11244 42 42 42
0.21153 -0.48823 2.11244 42 42 42
-0.21153 -0.48823 2.11244 255 255 255
-0.10369 -0.48823 2.09337 255 255 255
-0.37576 -0.48823 2.09337 255 255 255
-0.25006 -0.48823 2.11244 255 255 255
-0.10369 -0.44807 2.09337 255 255 255
-0.37576 -0.44807 2.09337 255 255 255
-0.37576 -0.44807 2.21822 255 255 255
-0.37576 -0.48823 2.21822 255 255 255
-0.25006 -0.48823 2.21822 255 255 255
-0.21153 -0.48823 2.21822 255 255 255
-0.10369 -0.48823 2.21822 255 255 255
-0.21153 -0.48823 2.21822 42 42 42
-0.21153 -0.48823 2.11244 42 42 42
-0.25006 -0.48823 2.11244 42 42 42
-0.25006 -0.48823 2.21822 42 42 42
-0.15619 -0.55624 2.46529 198 80 121
-0.15619 -0.55624 2.70594 198 80 121
-0.15619 -0.6049 2.70594 198 80 121
-0.15619 -0.6049 2.46529 198 80 121
-0.12062 -0.6049 2.73772 198 80 121
-0.12062 -0.55624 2.73772 198 80 121
0.12148 -0.6049 2.73772 198 80 121
0.12148 -0.55624 2.73772 198 80 121
-0.12062 -0.55624 2.43352 198 80 121
-0.12062 -0.6049 2.43352 198 80 121
0.15619 -0.6049 2.70594 198 80 121
0.15619 -0.55624 2.70594 198 80 121
0.15619 -0.6049 2.46529 198 80 121
0.15619 -0.55624 2.46529 198 80 121
0.12148 -0.6049 2.43352 198 80 121
0.12148 -0.55624 2.43352 198 80 121
-0.10591 -0.6265 2.72081 198 80 121
0.10668 -0.6265 2.72081 198 80 121
-0.13715 -0.6265 2.69166 198 80 121
-0.13715 -0.6265 2.47958 198 80 121
-0.10591 -0.6265 2.45192 198 80 121
0.10668 -0.6265 2.45192 198 80 121
0.13716 -0.6265 2.47958 198 80 121
0.13716 -0.6265 2.69166 198 80 121
0.10668 -0.6265 2.72081 180 52 75
0.13716 -0.6265 2.69166 180 52 75
0.01537 -0.6265 2.69166 180 52 75
0.01537 -0.6265 2.61738 180 52 75
0.08859 -0.6265 2.55461 180 52 75
-0.06195 -0.6265 2.69166 180 52 75
-0.10591 -0.6265 2.72081 180 52 75
-0.13715 -0.6265 2.69166 180 52 75
-0.06195 -0.6265 2.61738 180 52 75
-0.08793 -0.6265 2.55461 180 52 75
-0.10602 -0.6265 2.53657 180 52 75
-0.13715 -0.6265 2.47958 180 52 75
-0.10591 -0.6265 2.45192 180 52 75
0.10668 -0.6265 2.53657 180 52 75
0.13716 -0.6265 2.47958 180 52 75
0.10668 -0.6265 2.45192 180 52 75
0.10668 -0.6265 2.45192 209 124 153
-0.10591 -0.6265 2.45192 209 124 153
-0.10602 -0.6265 2.53657 209 124 153
0.10668 -0.6265 2.53657 209 124 153
0.08859 -0.6265 2.55461 209 124 153
-0.08793 -0.6265 2.55461 209 124 153
0.01537 -0.6265 2.61738 255 226 238
-0.06195 -0.6265 2.61738 255 226 238
-0.06195 -0.6265 2.69166 255 226 238
0.01537 -0.6265 2.69166 255 226 238
0.42207 -0.40589 2.50323 198 80 121
0.73208 -0.40589 2.50323 198 80 121
0.73208 -0.40589 2.42173 198 80 121
0.28828 -0.40589 2.42173 198 80 121
0.81449 -0.33578 2.50323 198 80 121
0.81449 -0.33578 2.42173 198 80 121
0.81449 -0.1915 2.50323 198 80 121
0.37879 -0.40589 2.55133 198 80 121
0.28828 -0.40589 3.06594 198 80 121
0.37879 -0.40589 3.06594 198 80 121
0.37879 -0.34411 3.12389 198 80 121
0.28828 -0.34411 3.12389 198 80 121
0.28828 0.55985 3.12389 198 80 121
0.37879 0.55985 3.12389 198 80 121
0.28828 0.62163 3.06594 198 80 121
0.37879 0.62163 3.06594 198 80 121
0.28828 0.62163 2.42173 198 80 121
0.37879 0.62163 2.55133 198 80 121
0.42207 0.62163 2.50323 198 80 121
0.73208 0.62163 2.42173 198 80 121
0.73208 0.62163 2.50323 198 80 121
0.81449 0.55152 2.50323 198 80 121
0.81449 0.55152 2.42173 198 80 121
0.81449 0.40728 2.50323 198 80 121
0.5683 0.03151 3.12389 196 57 82
0.5683 -0.16371 3.12389 196 57 82
0.37879 -0.34411 3.12389 196 57 82
0.37879 0.55985 3.12389 196 57 82
0.67931 -0.16371 3.12389 196 57 82
0.67931 -0.34411 3.12389 196 57 82
0.75117 -0.16319 3.12389 196 57 82
0.75117 -0.28358 3.12389 196 57 82
0.67931 0.55985 3.12389 196 57 82
0.67931 0.03151 3.12389 196 57 82
0.75117 0.03163 3.12389 196 57 82
0.75117 0.49932 3.12389 196 57 82
0.73208 -0.40589 3.06594 180 52 75
0.81449 -0.33578 3.06594 180 52 75
0.81449 -0.33578 2.50323 180 52 75
0.73208 -0.40589 2.50323 180 52 75
0.75117 -0.28358 3.12389 180 52 75
0.67931 -0.34411 3.12389 180 52 75
0.37879 -0.40589 3.06594 180 52 75
0.42207 -0.40589 2.50323 180 52 75
0.37879 -0.40589 2.55133 180 52 75
0.37879 -0.34411 3.12389 180 52 75
0.75117 -0.16319 3.12389 180 52 75
0.75117 0.03163 3.12389 180 52 75
0.81449 0.55152 3.06594 180 52 75
0.81449 -0.174 2.72877 180 52 75
0.81449 0.38978 2.72877 180 52 75
0.75117 0.49932 3.12389 180 52 75
0.67931 0.55985 3.12389 180 52 75
0.73208 0.62163 3.06594 180 52 75
0.37879 0.55985 3.12389 180 52 75
0.37879 0.62163 3.06594 180 52 75
0.81449 0.55152 2.50323 180 52 75
0.73208 0.62163 2.50323 180 52 75
0.42207 0.62163 2.50323 180 52 75
0.37879 0.62163 2.55133 180 52 75
0.81449 0.40728 2.70134 180 52 75
0.81449 0.40728 2.50323 180 52 75
0.81449 -0.1915 2.70134 180 52 75
0.81449 -0.1915 2.50323 180 52 75
0.81449 0.38978 2.72877 209 124 153
0.81449 0.40728 2.70134 209 124 153
0.81449 -0.1915 2.70134 209 124 153
0.81449 -0.174 2.72877 209 124 153
0.81449 -0.1915 2.50323 209 124 153
0.81449 0.40728 2.50323 209 124 153
0.67931 0.03151 3.12389 255 226 238
0.67931 -0.16371 3.12389 255 226 238
0.5683 -0.16371 3.12389 255 226 238
0.5683 0.03151 3.12389 255 226 238
0.75117 0.03163 3.12389 255 226 238
0.75117 -0.16319 3.12389 255 226 238
-0.37879 -0.40589 2.55133 198 80 121
-0.28828 -0.40589 2.42173 198 80 121
-0.42207 -0.40589 2.50323 198 80 121
-0.28828 -0.40589 3.06594 198 80 121
-0.37879 -0.40589 3.06594 198 80 121
-0.37879 -0.34411 3.12389 198 80 121
-0.28828 -0.34411 3.12389 198 80 121
-0.28828 0.55985 3.12389 198 80 121
-0.37879 0.55985 3.12389 198 80 121
-0.28828 0.62163 3.06594 198 80 121
-0.37879 0.62163 3.06594 198 80 121
-0.28828 0.62163 2.42173 198 80 121
-0.37879 0.62163 2.55133 198 80 121
-0.73208 -0.40589 2.50323 198 80 121
-0.73208 -0.40589 2.42173 198 80 121
-0.81449 -0.33578 2.50323 198 80 121
-0.81449 -0.33578 2.42173 198 80 121
-0.81449 -0.1915 2.50323 198 80 121
-0.42207 0.62163 2.50323 198 80 121
-0.73208 0.62163 2.42173 198 80 121
-0.73208 0.62163 2.50323 198 80 121
-0.81449 0.55152 2.50323 198 80 121
-0.81449 0.55152 2.42173 198 80 121
-0.81449 0.40728 2.50323 198 80 121
-0.5683 0.03151 3.12389 196 57 82
-0.37879 0.55985 3.12389 196 57 82
-0.37879 -0.34411 3.12389 196 57 82
-0.5683 -0.16371 3.12389 196 57 82
-0.67931 -0.16371 3.12389 196 57 82
-0.67931 -0.34411 3.12389 196 57 82
-0.75117 -0.16319 3.12389 196 57 82
-0.75117 -0.28358 3.12389 196 57 82
-0.67931 0.55985 3.12389 196 57 82
-0.67931 0.03151 3.12389 196 57 82
-0.75117 0.03163 3.12389 196 57 82
-0.75117 0.49932 3.12389 196 57 82
-0.73208 -0.40589 3.06594 180 52 75
-0.73208 -0.40589 2.50323 180 52 75
-0.81449 -0.33578 2.50323 180 52 75
-0.81449 -0.33578 3.06594 180 52 75
-0.75117 -0.28358 3.12389 180 52 75
-0.67931 -0.34411 3.12389 180 52 75
-0.42207 -0.40589 2.50323 180 52 75
-0.37879 -0.40589 2.55133 180 52 75
-0.37879 -0.40589 3.06594 180 52 75
-0.37879 -0.34411 3.12389 180 52 75
-0.81449 -0.174 2.72877 180 52 75
-0.81449 0.38978 2.72877 180 52 75
-0.81449 0.55152 3.06594 180 52 75
-0.81449 -0.1915 2.70134 180 52 75
-0.75117 -0.16319 3.12389 180 52 75
-0.75117 0.03163 3.12389 180 52 75
-0.75117 0.49932 3.12389 180 52 75
-0.67931 0.55985 3.12389 180 52 75
-0.73208 0.62163 3.06594 180 52 75
-0.37879 0.55985 3.12389 180 52 75
-0.37879 0.62163 3.06594 180 52 75
-0.81449 0.55152 2.50323 180 52 75
-0.73208 0.62163 2.50323 180 52 75
-0.42207 0.62163 2.50323 180 52 75
-0.37879 0.62163 2.55133 180 52 75
-0.81449 0.40728 2.70134 180 52 75
-0.81449 0.40728 2.50323 180 52 75
-0.81449 -0.1915 2.50323 180 52 75
-0.81449 -0.1915 2.70134 209 124 153
-0.81449 -0.1915 2.50323 209 124 153
-0.81449 0.40728 2.50323 209 124 153
-0.81449 0.40728 2.70134 209 124 153
-0.81449 0.38978 2.72877 209 124 153
-0.81449 -0.174 2.72877 209 124 153
-0.67931 0.03151 3.12389 255 226 238
-0.5683 0.03151 3.12389 255 226 238
-0.5683 -0.16371 3.12389 255 226 238
-0.67931 -0.16371 3.12389 255 226 238
-0.75117 0.03163 3.12389 255 226 238
-0.75117 -0.16319 3.12389 255 226 238
-0.54545 -0.38282 1.8802 55 55 55
-0.54545 -0.38282 2.21753 55 55 55
-0.46874 -0.45772 2.21753 55 55 55
-0.46874 -0.45772 1.8802 55 55 55
-0.54545 0.55827 1.8802 55 55 55
-0.54545 0.55827 2.21753 55 55 55
0.46874 -0.45772 1.8802 55 55 55
0.46874 -0.45772 2.21753 55 55 55
0.54545 -0.38282 1.8802 55 55 55
0.54545 -0.38282 2.21753 55 55 55
0.54545 0.55827 2.21753 55 55 55
0.54545 0.55827 1.8802 55 55 55
-0.41405 -0.39409 1.81715 55 55 55
0.41405 -0.39409 1.81715 55 55 55
-0.48181 -0.32792 1.81715 55 55 55
-0.48181 0.50337 1.81715 55 55 55
0.48181 -0.32792 1.81715 55 55 55
0.48181 0.50337 1.81715 55 55 55
0.46874 0.63318 1.8802 55 55 55
0.46874 0.63318 2.21753 55 55 55
-0.46874 0.63318 1.8802 55 55 55
-0.46874 0.63318 2.21753 55 55 55
-0.41405 0.56954 1.81715 55 55 55
0.41405 0.56954 1.81715 55 55 55
-0.13337 -0.90684 1.98495 109 193 236
-0.13337 -0.86458 2.03393 109 193 236
0.13337 -0.86458 2.03393 109 193 236
0.13337 -0.90684 1.98495 109 193 236
0.13337 -0.20645 2.03393 109 193 236
-0.13337 -0.20645 2.03393 109 193 236
-0.13337 -0.25 1.76592 106 187 229
-0.13337 -0.52873 1.76592 106 187 229
0.13337 -0.52873 1.76592 106 187 229
0.13337 -0.25 1.76592 106 187 229
-0.13337 -0.20645 2.03393 106 187 229
-0.13337 -0.20645 1.80801 106 187 229
0.13337 -0.20645 2.03393 106 187 229
0.13337 -0.86458 2.03393 106 187 229
0.13337 -0.57514 1.71233 106 187 229
0.13337 -0.90684 1.98495 106 187 229
0.13337 -0.20645 1.80801 106 187 229
-0.13337 -0.86458 2.03393 106 187 229
-0.13337 -0.57514 1.71233 106 187 229
-0.13337 -0.90684 1.98495 106 187 229
-0.09153 -0.90684 0.5 106 187 229
0.09153 -0.90684 0.5 106 187 229
0.09153 -0.64812 0.5 106 187 229
-0.09153 -0.64812 0.5 106 187 229
0.07628 -0.6642 0.47886 106 187 229
-0.07628 -0.6642 0.47886 106 187 229
0.07628 -0.89076 0.47886 106 187 229
-0.07628 -0.89076 0.47886 106 187 229
-0.24019 -0.46014 3.20792 109 193 236
-0.24019 0.63687 3.20792 109 193 236
0.24019 0.63687 3.20792 109 193 236
0.24019 -0.46014 3.20792 109 193 236
0.20195 -0.49645 3.20792 109 193 236
-0.20195 -0.49645 3.20792 109 193 236
0.20195 0.67318 3.20792 109 193 236
-0.20195 0.67318 3.20792 109 193 236
1.10479 -0.70578 2.20963 106 187 229
1.10479 -0.70578 2.37145 106 187 229
1.10479 0.88636 2.37145 106 187 229
1.10479 0.88636 2.20963 106 187 229
0.99769 -0.80555 2.37145 106 187 229
0.99769 -0.80555 2.20963 106 187 229
1.05658 -0.65476 2.43399 106 187 229
0.95674 -0.74777 2.43399 106 187 229
1.05658 0.83533 2.43399 106 187 229
0.99769 0.14208 2.20963 106 187 229
0.32606 0.14208 2.20963 106 187 229
0.99769 0.98613 2.20963 106 187 229
0.32606 -0.80555 2.20963 106 187 229
0.11009 -0.80555 2.08987 106 187 229
0.11009 0.14208 2.08987 106 187 229
-0.32606 0.14208 2.20963 106 187 229
-0.99769 0.98613 2.20963 106 187 229
0.99769 0.98613 2.37145 106 187 229
0.95674 0.92834 2.43399 106 187 229
-0.99769 0.98613 2.37145 106 187 229
-0.95674 0.92834 2.43399 106 187 229
-1.10479 0.88636 2.37145 106 187 229
-1.10479 0.88636 2.20963 106 187 229
-1.05658 0.83533 2.43399 106 187 229
-0.99769 0.14208 2.20963 106 187 229
-0.99769 -0.80555 2.20963 106 187 229
-1.10479 -0.70578 2.20963 106 187 229
-0.99769 -0.80555 2.37145 106 187 229
-0.32606 -0.80555 2.20963 106 187 229
-1.10479 -0.70578 2.37145 106 187 229
-1.05658 -0.65476 2.43399 106 187 229
-0.95674 -0.74777 2.43399 106 187 229
-0.11009 -0.80555 2.08987 106 187 229
-0.11009 0.14208 2.08987 106 187 229
-0.02402 -0.80555 2.37145 106 187 229
-0.02384 -0.74777 2.43399 106 187 229
-0.02428 -0.80555 2.20963 106 187 229
-0.02409 -0.80555 2.08987 106 187 229
-0.02409 0.14208 2.08987 106 187 229
0.262 0.73928 2.43399 109 193 236
-0.262 0.73928 2.43399 109 193 236
-0.95674 0.92834 2.43399 109 193 236
0.95674 0.92834 2.43399 109 193 236
1.05658 0.83533 2.43399 109 193 236
0.30895 0.69887 2.43399 109 193 236
-1.05658 0.83533 2.43399 109 193 236
-0.30895 0.69887 2.43399 109 193 236
0.95674 -0.74777 2.43399 109 193 236
0.262 -0.56255 2.43399 109 193 236
0.30895 -0.52214 2.43399 109 193 236
1.05658 -0.65476 2.43399 109 193 236
0.02384 -0.74777 2.43399 109 193 236
0.02403 -0.56255 2.43399 109 193 236
0.262 0.73928 3.15037 106 187 229
-0.262 0.73928 3.15037 106 187 229
-0.262 0.73928 2.43399 106 187 229
0.262 0.73928 2.43399 106 187 229
0.30895 0.69887 2.43399 106 187 229
0.30895 0.69887 3.15037 106 187 229
0.30895 -0.39093 2.63012 106 187 229
0.30895 -0.39093 2.66906 106 187 229
0.20195 0.67318 3.20792 106 187 229
-0.20195 0.67318 3.20792 106 187 229
0.24019 0.63687 3.20792 106 187 229
0.30895 -0.52214 3.15037 106 187 229
0.24019 -0.46014 3.20792 106 187 229
-0.30895 0.69887 2.43399 106 187 229
-0.30895 0.69887 3.15037 106 187 229
-0.24019 0.63687 3.20792 106 187 229
-0.30895 -0.52214 3.15037 106 187 229
-0.24019 -0.46014 3.20792 106 187 229
-0.30895 -0.39093 2.66906 106 187 229
-0.30895 -0.39093 2.63012 106 187 229
-0.30895 -0.52214 2.43399 106 187 229
-0.30895 -0.52214 2.63012 106 187 229
-0.262 -0.56255 2.43399 106 187 229
-0.262 -0.56255 2.63012 106 187 229
-0.02403 -0.56255 2.43399 106 187 229
0.262 -0.56255 2.63012 106 187 229
0.02403 -0.56255 2.43399 106 187 229
0.262 -0.56255 2.43399 106 187 229
0.30895 -0.52214 2.63012 106 187 229
0.30895 -0.52214 2.43399 106 187 229
-0.30895 -0.52214 2.66906 106 187 229
-0.262 -0.56255 3.15037 106 187 229
-0.20195 -0.49645 3.20792 106 187 229
0.20195 -0.49645 3.20792 106 187 229
0.262 -0.56255 3.15037 106 187 229
-0.262 -0.56255 2.66906 106 187 229
0.262 -0.56255 2.66906 106 187 229
0.30895 -0.52214 2.66906 106 187 229
0.02402 -0.80555 2.37145 106 187 229
0.02384 -0.74777 2.43399 106 187 229
0.02428 -0.80555 2.20963 106 187 229
0.02409 -0.80555 2.08987 106 187 229
0.02409 0.14208 2.08987 106 187 229
-0.02384 -0.74777 2.43399 109 193 236
-0.95674 -0.74777 2.43399 109 193 236
-0.262 -0.56255 2.43399 109 193 236
-0.02403 -0.56255 2.43399 109 193 236
-0.30895 -0.52214 2.43399 109 193 236
-1.05658 -0.65476 2.43399 109 193 236
0.13337 0.93598 1.98495 109 193 236
0.13337 0.89373 2.03393 109 193 236
-0.13337 0.89373 2.03393 109 193 236
-0.13337 0.93598 1.98495 109 193 236
-0.13337 0.28057 2.03393 109 193 236
0.13337 0.28057 2.03393 109 193 236
0.13337 0.32412 1.76592 106 187 229
0.13337 0.55941 1.76592 106 187 229
-0.13337 0.55941 1.76592 106 187 229
-0.13337 0.32412 1.76592 106 187 229
0.13337 0.28057 2.03393 106 187 229
0.13337 0.28057 1.80801 106 187 229
0.13337 0.89373 2.03393 106 187 229
0.13337 0.60429 1.71233 106 187 229
0.13337 0.93598 1.98495 106 187 229
-0.13337 0.28057 2.03393 106 187 229
-0.13337 0.89373 2.03393 106 187 229
-0.13337 0.60429 1.71233 106 187 229
-0.13337 0.93598 1.98495 106 187 229
0.09153 0.93598 0.70448 106 187 229
-0.09153 0.93598 0.70448 106 187 229
-0.09153 0.67727 0.70448 106 187 229
0.09153 0.67727 0.70448 106 187 229
-0.07628 0.69335 0.68333 106 187 229
0.07628 0.69335 0.68333 106 187 229
-0.07628 0.91991 0.68333 106 187 229
0.07628 0.91991 0.68333 106 187 229
-0.13337 0.28057 1.80801 106 187 229
0.59458 -0.41206 0.32655 161 152 139
0.59458 -0.41206 0.76642 161 152 139
0.59454 -0.66376 0.76642 161 152 139
0.59454 -0.66376 0.32655 161 152 139
0.84628 -0.4121 0.32655 161 152 139
0.84628 -0.4121 0.76642 161 152 139
0.62518 -0.44267 0.2929 161 152 139
0.62515 -0.63316 0.2929 161 152 139
0.81567 -0.4427 0.2929 161 152 139
0.81564 -0.63319 0.2929 161 152 139
0.19531 -0.09819 1.94238 161 152 139
0.19531 -0.09819 1.40732 161 152 139
0.33905 -0.09819 1.5122 161 152 139
0.33905 -0.09819 1.94238 161 152 139
0.37052 -0.09819 1.47278 161 152 139
0.24253 -0.09819 1.34878 161 152 139
0.33905 -0.24193 1.5122 161 152 139
0.33905 -0.24193 1.94238 161 152 139
0.19531 -0.24193 1.94238 161 152 139
0.19531 -0.24193 1.40732 161 152 139
0.75041 -0.09836 1.47278 161 152 139
0.75041 -0.09861 1.34878 161 152 139
0.79212 -0.14032 1.47278 161 152 139
0.79209 -0.14032 1.34878 161 152 139
0.79228 -0.55526 1.47278 161 152 139
0.7923 -0.43258 1.34878 161 152 139
0.64854 -0.26814 1.34878 161 152 139
0.64855 -0.43256 1.34878 161 152 139
0.79229 -0.46607 1.31178 161 152 139
0.64855 -0.46605 1.31178 161 152 139
0.79229 -0.46607 0.80007 161 152 139
0.64855 -0.46605 0.80007 161 152 139
0.64853 -0.60979 1.41666 161 152 139
0.64853 -0.60979 0.80007 161 152 139
0.64854 -0.55524 1.47278 161 152 139
0.62427 -0.24198 1.34878 161 152 139
0.24253 -0.24193 1.34878 161 152 139
0.64862 -0.26814 1.47278 161 152 139
0.84624 -0.6638 0.76642 161 152 139
0.84624 -0.6638 0.32655 161 152 139
0.79227 -0.60981 1.41666 161 152 139
0.79227 -0.60981 0.80007 161 152 139
0.64853 -0.60979 0.80007 169 159 146
0.59454 -0.66376 0.76642 169 159 146
0.59458 -0.41206 0.76642 169 159 146
0.64855 -0.46605 0.80007 169 159 146
0.84628 -0.4121 0.76642 169 159 146
0.79229 -0.46607 0.80007 169 159 146
0.79227 -0.60981 0.80007 169 159 146
0.84624 -0.6638 0.76642 169 159 146
0.37052 -0.24193 1.47278 161 152 139
0.62427 -0.24186 1.47278 161 152 139
0.64853 -0.60979 1.41666 169 159 146
0.64854 -0.55524 1.47278 169 159 146
0.79228 -0.55526 1.47278 169 159 146
0.79227 -0.60981 1.41666 169 159 146
0.37052 -0.24193 1.47278 169 159 146
0.33905 -0.24193 1.5122 169 159 146
0.33905 -0.09819 1.5122 169 159 146
0.37052 -0.09819 1.47278 169 159 146
0.62427 -0.24186 1.47278 169 159 146
0.75041 -0.09836 1.47278 169 159 146
0.64862 -0.26814 1.47278 169 159 146
0.79212 -0.14032 1.47278 169 159 146
0.52507 0.04033 0.44844 161 152 139
0.52507 0.04033 0.75492 161 152 139
0.73054 0.04033 0.75492 161 152 139
0.73054 0.04033 0.44844 161 152 139
0.73054 0.2458 0.75492 161 152 139
0.73054 0.2458 0.44844 161 152 139
0.52507 0.2458 0.44844 161 152 139
0.52507 0.2458 0.75492 161 152 139
0.55005 0.06532 0.42097 161 152 139
0.70555 0.06532 0.42097 161 152 139
0.55005 0.22082 0.42097 161 152 139
0.70555 0.22082 0.42097 161 152 139
0.27651 0.20174 1.94238 161 152 139
0.27651 0.20174 1.6577 161 152 139
0.39385 0.20174 1.74332 161 152 139
0.39385 0.20174 1.94238 161 152 139
0.41954 0.20174 1.71114 161 152 139
0.31506 0.20174 1.60992 161 152 139
0.39385 0.0844 1.74332 161 152 139
0.39385 0.0844 1.94238 161 152 139
0.27651 0.0844 1.94238 161 152 139
0.27651 0.0844 1.6577 161 152 139
0.64194 0.20174 1.71114 161 152 139
0.5418 0.20174 1.60992 161 152 139
0.31506 0.0844 1.60992 161 152 139
0.68647 0.20174 1.66533 161 152 139
0.56913 0.20174 1.57971 161 152 139
0.68647 0.20174 0.78238 161 152 139
0.56913 0.20174 0.78238 161 152 139
0.5418 0.0844 1.60992 161 152 139
0.41954 0.0844 1.71114 161 152 139
0.64194 0.0844 1.71114 161 152 139
0.56913 0.0844 1.57971 161 152 139
0.68647 0.0844 1.66533 161 152 139
0.56913 0.0844 0.78238 161 152 139
0.68647 0.0844 0.78238 161 152 139
0.68647 0.0844 0.78238 169 159 146
0.73054 0.04033 0.75492 169 159 146
0.52507 0.04033 0.75492 169 159 146
0.56913 0.0844 0.78238 169 159 146
0.68647 0.20174 0.78238 169 159 146
0.73054 0.2458 0.75492 169 159 146
0.52507 0.2458 0.75492 169 159 146
0.56913 0.20174 0.78238 169 159 146
0.68647 0.0844 1.66533 169 159 146
0.64194 0.0844 1.71114 169 159 146
0.64194 0.20174 1.71114 169 159 146
0.68647 0.20174 1.66533 169 159 146
0.41954 0.0844 1.71114 169 159 146
0.39385 0.0844 1.74332 169 159 146
0.39385 0.20174 1.74332 169 159 146
0.41954 0.20174 1.71114 169 159 146
0.80872 0.36677 0.56654 161 152 139
0.80872 0.36677 0.87302 161 152 139
1.01419 0.36677 0.87302 161 152 139
1.01419 0.36677 0.56654 161 152 139
1.01419 0.57224 0.87302 161 152 139
1.01419 0.57224 0.56654 161 152 139
0.80872 0.57224 0.56654 161 152 139
0.80872 0.57224 0.87302 161 152 139
0.8337 0.39176 0.53908 161 152 139
0.9892 0.39176 0.53908 161 152 139
0.8337 0.54726 0.53908 161 152 139
0.9892 0.54726 0.53908 161 152 139
0.33833 0.52818 1.94238 161 152 139
0.33833 0.52818 1.20358 161 152 139
0.45567 0.52818 1.28919 161 152 139
0.45567 0.52818 1.94238 161 152 139
0.48136 0.52818 1.25702 161 152 139
0.37687 0.52818 1.15579 161 152 139
0.45567 0.41084 1.28919 161 152 139
0.45567 0.41084 1.94238 161 152 139
0.33833 0.41084 1.94238 161 152 139
0.33833 0.41084 1.20358 161 152 139
0.92559 0.52818 1.25702 161 152 139
0.82544 0.52818 1.15579 161 152 139
0.37687 0.41084 1.15579 161 152 139
0.97012 0.52818 1.2112 161 152 139
0.85278 0.52818 1.12559 161 152 139
0.97012 0.52818 0.90049 161 152 139
0.85278 0.52818 0.90049 161 152 139
0.85278 0.41084 0.90049 161 152 139
0.85278 0.41084 1.12559 161 152 139
0.97012 0.41084 1.2112 161 152 139
0.97012 0.41084 0.90049 161 152 139
0.92559 0.41084 1.25702 161 152 139
0.82544 0.41084 1.15579 161 152 139
0.48136 0.41084 1.25702 161 152 139
0.97012 0.41084 0.90049 169 159 146
1.01419 0.36677 0.87302 169 159 146
0.80872 0.36677 0.87302 169 159 146
0.85278 0.41084 0.90049 169 159 146
0.97012 0.52818 0.90049 169 159 146
1.01419 0.57224 0.87302 169 159 146
0.80872 0.57224 0.87302 169 159 146
0.85278 0.52818 0.90049 169 159 146
0.97012 0.41084 1.2112 169 159 146
0.92559 0.41084 1.25702 169 159 146
0.92559 0.52818 1.25702 169 159 146
0.97012 0.52818 1.2112 169 159 146
0.48136 0.41084 1.25702 169 159 146
0.45567 0.41084 1.28919 169 159 146
0.45567 0.52818 1.28919 169 159 146
0.48136 0.52818 1.25702 169 159 146
0.82544 0.52818 1.15579 169 159 146
0.37687 0.52818 1.15579 169 159 146
0.37687 0.41084 1.15579 169 159 146
0.82544 0.41084 1.15579 169 159 146
-0.52507 0.04033 0.44844 161 152 139
-0.73054 0.04033 0.44844 161 152 139
-0.73054 0.04033 0.75492 161 152 139
-0.52507 0.04033 0.75492 161 152 139
-0.73054 0.2458 0.75492 161 152 139
-0.73054 0.2458 0.44844 161 152 139
-0.52507 0.2458 0.44844 161 152 139
-0.52507 0.2458 0.75492 161 152 139
-0.55005 0.06532 0.42097 161 152 139
-0.70555 0.06532 0.42097 161 152 139
-0.55005 0.22082 0.42097 161 152 139
-0.70555 0.22082 0.42097 161 152 139
-0.27651 0.20174 1.94238 161 152 139
-0.39385 0.20174 1.94238 161 152 139
-0.39385 0.20174 1.74332 161 152 139
-0.27651 0.20174 1.6577 161 152 139
-0.41954 0.20174 1.71114 161 152 139
-0.31506 0.20174 1.60992 161 152 139
-0.39385 0.0844 1.74332 161 152 139
-0.39385 0.0844 1.94238 161 152 139
-0.27651 0.0844 1.94238 161 152 139
-0.27651 0.0844 1.6577 161 152 139
-0.64194 0.20174 1.71114 161 152 139
-0.5418 0.20174 1.60992 161 152 139
-0.31506 0.0844 1.60992 161 152 139
-0.5418 0.0844 1.60992 161 152 139
-0.41954 0.0844 1.71114 161 152 139
-0.64194 0.0844 1.71114 161 152 139
-0.56913 0.0844 1.57971 161 152 139
-0.68647 0.0844 1.66533 161 152 139
-0.56913 0.0844 0.78238 161 152 139
-0.68647 0.0844 0.78238 161 152 139
-0.56913 0.20174 0.78238 161 152 139
-0.56913 0.20174 1.57971 161 152 139
-0.68647 0.20174 1.66533 161 152 139
-0.68647 0.20174 0.78238 161 152 139
-0.68647 0.0844 0.78238 169 159 146
-0.56913 0.0844 0.78238 169 159 146
-0.52507 0.04033 0.75492 169 159 146
-0.73054 0.04033 0.75492 169 159 146
-0.52507 0.2458 0.75492 169 159 146
-0.56913 0.20174 0.78238 169 159 146
-0.68647 0.20174 0.78238 169 159 146
-0.73054 0.2458 0.75492 169 159 146
-0.68647 0.0844 1.66533 169 159 146
-0.68647 0.20174 1.66533 169 159 146
-0.64194 0.20174 1.71114 169 159 146
-0.64194 0.0844 1.71114 169 159 146
-0.41954 0.0844 1.71114 169 159 146
-0.41954 0.20174 1.71114 169 159 146
-0.39385 0.20174 1.74332 169 159 146
-0.39385 0.0844 1.74332 169 159 146
-0.80872 0.36677 0.56654 161 152 139
-1.01419 0.36677 0.56654 161 152 139
-1.01419 0.36677 0.87302 161 152 139
-0.80872 0.36677 0.87302 161 152 139
-1.01419 0.57224 0.87302 161 152 139
-1.01419 0.57224 0.56654 161 152 139
-0.80872 0.57224 0.56654 161 152 139
-0.80872 0.57224 0.87302 161 152 139
-0.8337 0.39176 0.53908 161 152 139
-0.9892 0.39176 0.53908 161 152 139
-0.8337 0.54726 0.53908 161 152 139
-0.9892 0.54726 0.53908 161 152 139
-0.33833 0.52818 1.94238 161 152 139
-0.45567 0.52818 1.94238 161 152 139
-0.45567 0.52818 1.28919 161 152 139
-0.33833 0.52818 1.20358 161 152 139
-0.48136 0.52818 1.25702 161 152 139
-0.37687 0.52818 1.15579 161 152 139
-0.45567 0.41084 1.28919 161 152 139
-0.45567 0.41084 1.94238 161 152 139
-0.33833 0.41084 1.94238 161 152 139
-0.33833 0.41084 1.20358 161 152 139
-0.92559 0.52818 1.25702 161 152 139
-0.82544 0.52818 1.15579 161 152 139
-0.37687 0.41084 1.15579 161 152 139
-0.97012 0.52818 1.2112 161 152 139
-0.85278 0.52818 1.12559 161 152 139
-0.97012 0.52818 0.90049 161 152 139
-0.85278 0.52818 0.90049 161 152 139
-0.85278 0.41084 0.90049 161 152 139
-0.97012 0.41084 0.90049 161 152 139
-0.97012 0.41084 1.2112 161 152 139
-0.85278 0.41084 1.12559 161 152 139
-0.92559 0.41084 1.25702 161 152 139
-0.82544 0.41084 1.15579 161 152 139
-0.48136 0.41084 1.25702 161 152 139
-0.97012 0.41084 0.90049 169 159 146
-0.85278 0.41084 0.90049 169 159 146
-0.80872 0.36677 0.87302 169 159 146
-1.01419 0.36677 0.87302 169 159 146
-0.97012 0.52818 0.90049 169 159 146
-1.01419 0.57224 0.87302 169 159 146
-0.80872 0.57224 0.87302 169 159 146
-0.85278 0.52818 0.90049 169 159 146
-0.97012 0.41084 1.2112 169 159 146
-0.97012 0.52818 1.2112 169 159 146
-0.92559 0.52818 1.25702 169 159 146
-0.92559 0.41084 1.25702 169 159 146
-0.48136 0.41084 1.25702 169 159 146
-0.48136 0.52818 1.25702 169 159 146
-0.45567 0.52818 1.28919 169 159 146
-0.45567 0.41084 1.28919 169 159 146
-0.82544 0.52818 1.15579 169 159 146
-0.82544 0.41084 1.15579 169 159 146
-0.37687 0.41084 1.15579 169 159 146
-0.37687 0.52818 1.15579 169 159 146
-0.59458 -0.41206 0.32655 161 152 139
-0.59454 -0.66376 0.32655 161 152 139
-0.59454 -0.66376 0.76642 161 152 139
-0.59458 -0.41206 0.76642 161 152 139
-0.84628 -0.4121 0.32655 161 152 139
-0.84628 -0.4121 0.76642 161 152 139
-0.62518 -0.44267 0.2929 161 152 139
-0.62515 -0.63316 0.2929 161 152 139
-0.81567 -0.4427 0.2929 161 152 139
-0.81564 -0.63319 0.2929 161 152 139
-0.19531 -0.09819 1.94238 161 152 139
-0.33905 -0.09819 1.94238 161 152 139
-0.33905 -0.09819 1.5122 161 152 139
-0.19531 -0.09819 1.40732 161 152 139
-0.37052 -0.09819 1.47278 161 152 139
-0.24253 -0.09819 1.34878 161 152 139
-0.33905 -0.24193 1.5122 161 152 139
-0.33905 -0.24193 1.94238 161 152 139
-0.19531 -0.24193 1.94238 161 152 139
-0.19531 -0.24193 1.40732 161 152 139
-0.75041 -0.09836 1.47278 161 152 139
-0.75041 -0.09861 1.34878 161 152 139
-0.79212 -0.14032 1.47278 161 152 139
-0.79209 -0.14032 1.34878 161 152 139
-0.79228 -0.55526 1.47278 161 152 139
-0.7923 -0.43258 1.34878 161 152 139
-0.64854 -0.26814 1.34878 161 152 139
-0.64855 -0.43256 1.34878 161 152 139
-0.79229 -0.46607 1.31178 161 152 139
-0.64855 -0.46605 1.31178 161 152 139
-0.79229 -0.46607 0.80007 161 152 139
-0.64855 -0.46605 0.80007 161 152 139
-0.64853 -0.60979 1.41666 161 152 139
-0.64853 -0.60979 0.80007 161 152 139
-0.64854 -0.55524 1.47278 161 152 139
-0.62427 -0.24198 1.34878 161 152 139
-0.24253 -0.24193 1.34878 161 152 139
-0.64862 -0.26814 1.47278 161 152 139
-0.84624 -0.6638 0.32655 161 152 139
-0.84624 -0.6638 0.76642 161 152 139
-0.79227 -0.60981 0.80007 161 152 139
-0.79227 -0.60981 1.41666 161 152 139
-0.64853 -0.60979 0.80007 169 159 146
-0.64855 -0.46605 0.80007 169 159 146
-0.59458 -0.41206 0.76642 169 159 146
-0.59454 -0.66376 0.76642 169 159 146
-0.84628 -0.4121 0.76642 169 159 146
-0.79229 -0.46607 0.80007 169 159 146
-0.79227 -0.60981 0.80007 169 159 146
-0.84624 -0.6638 0.76642 169 159 146
-0.37052 -0.24193 1.47278 161 152 139
-0.62427 -0.24186 1.47278 161 152 139
-0.64853 -0.60979 1.41666 169 159 146
-0.79227 -0.60981 1.41666 169 159 146
-0.79228 -0.55526 1.47278 169 159 146
-0.64854 -0.55524 1.47278 169 159 146
-0.37052 -0.24193 1.47278 169 159 146
-0.37052 -0.09819 1.47278 169 159 146
-0.33905 -0.09819 1.5122 169 159 146
-0.33905 -0.24193 1.5122 169 159 146
-0.62427 -0.24186 1.47278 169 159 146
-0.75041 -0.09836 1.47278 169 159 146
-0.64862 -0.26814 1.47278 169 159 146
-0.79212 -0.14032 1.47278 169 159 146
0.262 -0.56255 2.66906 87 153 187
0.262 -0.56255 2.63012 87 153 187
-0.262 -0.56255 2.63012 87 153 187
-0.262 -0.56255 2.66906 87 153 187
0.30895 -0.52214 2.66906 87 153 187
0.30895 -0.52214 2.63012 87 153 187
-0.30895 -0.52214 2.63012 87 153 187
-0.30895 -0.52214 2.66906 87 153 187
-0.30895 -0.39093 2.66906 87 153 187
-0.30895 -0.39093 2.63012 87 153 187
0.30895 -0.39093 2.66906 87 153 187
0.30895 -0.39093 2.63012 87 153 187
-0.02402 -0.80555 2.37145 87 153 187
-0.02384 -0.74777 2.43399 87 153 187
0.02384 -0.74777 2.43399 87 153 187
0.02402 -0.80555 2.37145 87 153 187
0.02428 -0.80555 2.20963 87 153 187
-0.02428 -0.80555 2.20963 87 153 187
0.02409 -0.80555 2.08987 87 153 187
-0.02409 -0.80555 2.08987 87 153 187
-0.02409 0.14208 2.08987 87 153 187
0.02409 0.14208 2.08987 87 153 187
-0.02403 -0.56255 2.43399 87 153 187
0.02403 -0.56255 2.43399 87 153 187
3 0 2 1
3 0 3 2
3 4 2 3
3 4 5 2
3 2 5 6
3 2 6 7
3 8 2 7
3 8 1 2
3 3 0 9
3 3 9 10
3 11 13 12
3 11 14 13
3 15 17 16
3 15 18 17
3 19 16 17
3 19 17 20
3 17 21 20
3 17 22 21
3 23 17 18
3 23 22 17
3 16 24 15
3 16 25 24
3 26 28 27
3 26 29 28
3 30 32 31
3 30 33 32
3 31 32 34
3 31 34 35
3 35 34 36
3 35 36 37
3 38 33 30
3 38 39 33
3 37 36 40
3 37 40 41
3 41 40 42
3 41 42 43
3 43 42 44
3 43 44 45
3 36 34 46
3 36 46 47
3 40 36 47
3 34 48 46
3 34 32 48
3 32 49 48
3 32 33 49
3 33 50 49
3 33 39 50
3 39 51 50
3 39 44 51
3 44 52 51
3 44 42 52
3 42 53 52
3 42 40 53
3 40 47 53
3 54 56 55
3 57 55 56
3 58 55 57
3 54 59 56
3 54 60 59
3 59 60 61
3 61 62 59
3 58 57 62
3 58 62 63
3 61 63 62
3 64 63 61
3 64 61 65
3 64 65 66
3 67 55 58
3 68 55 67
3 68 67 69
3 70 72 71
3 70 73 72
3 72 73 74
3 72 74 75
3 76 78 77
3 76 79 78
3 80 82 81
3 80 83 82
3 84 81 82
3 84 82 85
3 85 86 84
3 87 83 80
3 88 83 87
3 88 87 89
3 88 89 90
3 88 90 91
3 90 92 91
3 90 93 92
3 93 94 92
3 94 91 92
3 94 88 91
3 93 95 94
3 96 94 95
3 96 95 97
3 98 96 97
3 99 96 98
3 99 98 100
3 99 100 101
3 99 101 102
3 103 102 101
3 85 102 103
3 85 103 86
3 104 106 105
3 104 107 106
3 108 105 106
3 108 106 109
3 110 108 109
3 110 109 111
3 112 107 104
3 112 104 113
3 112 113 114
3 112 114 115
3 116 118 117
3 116 119 118
3 116 117 120
3 116 120 121
3 122 119 116
3 119 122 123
3 123 122 124
3 125 116 121
3 125 122 116
3 117 126 120
3 117 127 126
3 117 128 127
3 118 129 117
3 130 117 129
3 130 128 117
3 127 128 131
3 128 132 131
3 128 133 132
3 133 134 132
3 133 135 134
3 136 133 128
3 136 137 133
3 138 133 137
3 133 138 135
3 135 138 139
3 128 140 136
3 128 130 140
3 136 140 141
3 118 142 129
3 118 143 142
3 144 146 145
3 144 147 146
3 145 146 148
3 145 148 149
3 150 152 151
3 150 153 152
3 154 150 151
3 154 151 155
3 156 158 157
3 159 156 157
3 159 160 156
3 159 161 160
3 159 162 161
3 161 162 163
3 161 163 164
3 164 163 165
3 165 163 162
3 165 162 159
3 164 165 166
3 167 166 165
3 167 168 166
3 157 158 169
3 157 169 170
3 171 170 169
3 171 172 170
3 172 171 173
3 167 174 168
3 175 174 167
3 175 176 174
3 175 177 176
3 175 178 177
3 179 177 178
3 172 179 178
3 172 173 179
3 180 182 181
3 180 183 182
3 184 182 183
3 184 185 182
3 186 185 184
3 186 187 185
3 188 180 181
3 188 189 180
3 188 190 189
3 188 191 190
3 192 194 193
3 192 195 194
3 192 196 195
3 192 197 196
3 198 192 193
3 199 192 198
3 192 199 200
3 201 192 200
3 201 197 192
3 194 195 202
3 203 202 195
3 203 195 204
3 194 202 205
3 195 196 206
3 195 206 207
3 207 208 204
3 204 208 209
3 204 209 210
3 210 209 211
3 210 211 212
3 213 204 210
3 213 210 214
3 212 215 210
3 210 215 214
3 215 212 216
3 204 217 203
3 204 213 217
3 217 213 218
3 195 207 204
3 194 205 219
3 220 222 221
3 220 223 222
3 224 223 220
3 224 220 225
3 226 228 227
3 226 229 228
3 230 229 226
3 230 231 229
3 232 234 233
3 232 235 234
3 236 232 233
3 236 233 237
3 234 235 238
3 234 238 239
3 239 238 240
3 239 240 241
3 240 242 241
3 240 243 242
3 238 235 244
3 238 244 245
3 240 238 245
3 235 246 244
3 235 232 246
3 245 244 246
3 232 247 246
3 232 236 247
3 240 245 248
3 245 246 248
3 243 240 248
3 243 248 249
3 250 243 249
3 250 242 243
3 250 251 242
3 252 251 250
3 252 253 251
3 237 253 252
3 237 252 236
3 236 252 254
3 249 254 255
3 252 255 254
3 252 250 255
3 250 249 255
3 249 247 254
3 236 254 247
3 248 247 249
3 248 246 247
3 256 258 257
3 256 259 258
3 257 258 260
3 257 260 261
3 262 264 263
3 262 265 264
3 262 263 266
3 262 266 267
3 268 264 265
3 269 264 268
3 269 270 264
3 271 270 269
3 268 265 272
3 266 263 273
3 273 263 274
3 273 274 275
3 271 275 276
3 271 276 277
3 270 271 277
3 270 277 278
3 275 279 276
3 274 278 279
3 274 270 278
3 275 274 279
3 263 270 274
3 263 264 270
3 279 278 280
3 279 280 281
3 276 279 281
3 281 280 282
3 278 282 280
3 281 282 283
3 278 277 282
3 277 276 283
3 276 281 283
3 277 283 282
3 284 286 285
3 284 287 286
3 288 287 284
3 288 284 289
3 285 286 290
3 285 290 291
3 292 294 293
3 292 295 294
3 296 292 293
3 296 297 292
3 296 293 298
3 296 298 299
3 293 300 298
3 293 294 300
3 301 292 297
3 295 292 301
3 297 302 301
3 301 302 303
3 297 304 302
3 304 297 296
3 302 304 305
3 302 305 306
3 303 302 307
3 303 307 308
3 295 301 303
3 303 294 295
3 303 309 294
3 294 309 310
3 310 309 311
3 303 311 309
3 303 308 311
3 310 311 312
3 294 310 300
3 308 313 311
3 313 312 311
3 308 314 313
3 313 315 312
3 316 308 307
3 314 308 316
3 317 316 307
3 316 317 318
3 319 318 317
3 320 319 317
3 319 321 318
3 318 321 313
3 318 313 314
3 314 316 318
3 319 322 321
3 319 323 322
3 321 315 313
3 321 322 315
3 317 307 320
3 307 324 320
3 307 325 324
3 326 323 319
3 326 327 323
3 328 319 320
3 328 326 319
3 329 320 324
3 329 328 320
3 330 324 325
3 330 329 324
3 331 333 332
3 331 334 333
3 335 334 331
3 335 331 336
3 337 332 333
3 337 338 332
3 339 341 340
3 339 342 341
3 342 336 341
3 342 335 336
3 340 343 339
3 340 344 343
3 345 347 346
3 345 348 347
3 349 348 345
3 349 345 350
3 351 349 350
3 351 350 352
3 353 345 346
3 350 345 353
3 353 346 354
3 350 353 355
3 356 350 355
3 356 352 350
3 356 355 357
3 358 346 347
3 358 359 346
3 359 354 346
3 359 360 354
3 361 360 359
3 361 362 360
3 359 363 361
3 358 363 359
3 358 364 363
3 365 366 364
3 367 366 365
3 367 368 366
3 369 368 367
3 365 364 358
3 370 368 369
3 370 369 371
3 370 371 372
3 372 373 370
3 372 374 373
3 374 351 373
3 374 349 351
3 361 363 375
3 375 376 361
3 376 362 361
3 376 377 362
3 378 377 376
3 378 376 379
3 379 357 378
3 379 356 357
3 379 376 380
3 375 380 376
3 379 380 381
3 381 356 379
3 381 382 356
3 382 352 356
3 299 383 296
3 299 384 383
3 304 296 383
3 304 383 385
3 304 385 386
3 304 386 305
3 306 305 386
3 306 386 387
3 388 390 389
3 388 391 390
3 389 390 392
3 389 392 393
3 393 392 338
3 393 338 337
3 268 267 266
3 268 272 267
3 267 272 265
3 267 265 262
3 394 396 395
3 394 397 396
3 395 396 398
3 395 398 399
3 400 402 401
3 400 403 402
3 400 401 404
3 400 404 405
3 404 401 406
3 406 401 407
3 406 407 408
3 409 402 403
3 410 402 409
3 410 411 402
3 412 411 410
3 412 408 413
3 412 413 414
3 411 412 414
3 411 414 415
3 408 416 413
3 407 415 416
3 407 411 415
3 408 407 416
3 401 411 407
3 401 402 411
3 416 415 417
3 416 417 418
3 413 416 418
3 418 417 419
3 415 419 417
3 418 419 420
3 415 414 419
3 414 413 420
3 413 418 420
3 414 420 419
3 409 405 404
3 409 421 405
3 405 421 403
3 405 403 400
3 409 403 421
3 422 424 423
3 422 425 424
3 426 422 423
3 426 423 427
3 428 425 422
3 428 429 425
3 430 429 428
3 430 422 426
3 430 428 422
3 430 431 429
3 432 434 433
3 432 435 434
3 433 434 436
3 433 436 437
3 438 434 435
3 438 435 439
3 433 440 432
3 433 441 440
3 437 436 442
3 437 442 443
3 443 442 444
3 443 444 445
3 445 444 446
3 445 446 447
3 447 448 445
3 447 449 448
3 450 449 447
3 450 451 449
3 452 451 450
3 452 453 451
3 453 454 451
3 453 455 454
3 451 454 456
3 451 456 449
3 445 457 443
3 445 448 457
3 443 457 458
3 449 459 448
3 449 456 459
3 443 458 437
3 425 460 424
3 425 461 460
3 427 460 461
3 427 461 426
3 429 461 425
3 429 431 461
3 431 426 461
3 431 430 426
3 455 462 454
3 455 463 462
3 450 462 463
3 450 463 452
3 447 462 450
3 447 446 462
3 464 466 465
3 464 467 466
3 467 468 466
3 467 469 468
3 470 465 471
3 470 464 465
3 469 470 471
3 469 471 468
3 441 439 440
3 441 438 439
3 458 438 441
3 458 472 438
3 437 458 441
3 437 441 433
3 457 472 458
3 457 473 472
3 448 473 457
3 448 459 473
3 474 476 475
3 474 477 476
3 478 480 479
3 478 481 480
3 482 481 478
3 482 483 481
3 484 483 482
3 484 485 483
3 475 485 484
3 475 476 485
3 486 488 487
3 486 489 488
3 489 490 488
3 489 491 490
3 492 486 487
3 492 487 493
3 494 489 486
3 494 495 489
3 496 495 494
3 496 497 495
3 495 491 489
3 495 497 491
3 496 494 486
3 496 486 492
3 497 492 491
3 497 496 492
3 493 491 492
3 493 490 491
3 498 500 499
3 498 501 500
3 499 500 502
3 499 502 503
3 504 500 501
3 504 501 505
3 499 506 498
3 499 507 506
3 503 507 499
3 503 502 508
3 503 508 509
3 503 510 507
3 509 508 511
3 509 511 512
3 512 511 513
3 512 513 514
3 509 510 503
3 509 515 510
3 515 516 510
3 510 516 504
3 510 504 507
3 507 504 505
3 507 505 506
3 515 517 516
3 518 517 515
3 518 519 517
3 520 519 518
3 520 521 519
3 521 511 519
3 521 513 511
3 514 520 518
3 514 518 512
3 512 518 515
3 512 515 509
3 522 524 523
3 522 525 524
3 526 522 523
3 526 523 527
3 525 528 524
3 525 529 528
3 529 527 528
3 529 526 527
3 530 532 531
3 530 533 532
3 534 536 535
3 534 537 536
3 531 537 534
3 531 532 537
3 538 540 539
3 538 541 540
3 541 542 540
3 541 543 542
3 544 538 539
3 544 539 545
3 546 541 538
3 546 547 541
3 548 547 546
3 548 549 547
3 547 543 541
3 547 549 543
3 548 546 538
3 548 538 544
3 549 544 543
3 549 548 544
3 545 543 544
3 545 542 543
3 550 552 551
3 550 553 552
3 551 552 554
3 551 554 555
3 556 552 553
3 556 553 557
3 551 558 550
3 551 559 558
3 555 559 551
3 555 554 560
3 555 560 561
3 555 562 559
3 561 560 563
3 561 563 564
3 564 563 565
3 564 565 566
3 567 569 568
3 567 570 569
3 570 563 569
3 570 565 563
3 566 567 568
3 566 568 564
3 568 569 571
3 568 571 572
3 564 568 572
3 564 572 561
3 572 571 573
3 572 573 562
3 562 573 556
3 562 556 559
3 559 556 557
3 559 557 558
3 574 576 575
3 574 577 576
3 578 574 575
3 578 575 579
3 577 580 576
3 577 581 580
3 581 579 580
3 581 578 579
3 582 584 583
3 582 585 584
3 586 588 587
3 586 589 588
3 583 589 586
3 583 584 589
3 590 592 591
3 590 593 592
3 594 596 595
3 594 597 596
3 595 596 598
3 595 598 599
3 600 597 594
3 600 601 597
3 602 594 595
3 602 595 603
3 604 602 603
3 604 603 605
3 603 595 599
3 603 599 605
3 604 594 602
3 604 600 594
3 605 600 604
3 605 599 600
3 601 600 599
3 601 599 598
3 606 608 607
3 606 609 608
3 609 610 608
3 609 611 610
3 612 607 608
3 612 613 607
3 609 606 614
3 609 614 615
3 611 616 610
3 611 617 616
3 617 611 618
3 617 618 619
3 619 618 620
3 618 612 620
3 618 615 612
3 615 613 612
3 615 614 613
3 611 615 618
3 611 609 615
3 619 620 621
3 622 619 621
3 622 621 623
3 624 622 623
3 624 623 625
3 626 622 624
3 626 627 622
3 627 619 622
3 627 617 619
3 625 623 628
3 625 628 629
3 627 629 628
3 627 626 629
3 617 627 628
3 617 628 616
3 630 632 631
3 630 633 632
3 631 632 634
3 631 634 635
3 636 633 630
3 636 637 633
3 635 637 636
3 635 634 637
3 638 640 639
3 638 641 640
3 642 644 643
3 642 645 644
3 641 642 643
3 641 643 640
3 646 648 647
3 646 649 648
3 647 648 650
3 647 650 651
3 652 649 646
3 652 653 649
3 654 646 647
3 654 647 655
3 656 654 655
3 656 655 657
3 655 647 651
3 655 651 657
3 656 646 654
3 656 652 646
3 657 652 656
3 657 651 652
3 653 652 651
3 653 651 650
3 658 660 659
3 658 661 660
3 661 662 660
3 661 663 662
3 664 659 660
3 664 665 659
3 661 658 666
3 661 666 667
3 663 661 667
3 663 668 662
3 663 669 668
3 663 667 670
3 669 671 668
3 669 672 671
3 672 673 671
3 672 674 673
3 675 677 676
3 675 678 677
3 676 677 671
3 676 671 673
3 674 678 675
3 674 672 678
3 678 679 677
3 678 680 679
3 672 680 678
3 672 669 680
3 680 681 679
3 680 670 681
3 670 664 681
3 670 667 664
3 667 665 664
3 667 666 665
3 682 684 683
3 682 685 684
3 686 685 682
3 686 687 685
3 683 684 688
3 683 688 689
3 689 687 686
3 689 688 687
3 690 692 691
3 690 693 692
3 694 696 695
3 694 697 696
3 693 694 695
3 693 695 692
3 698 700 699
3 698 701 700
3 702 704 703
3 702 705 704
3 706 705 702
3 706 707 705
3 708 702 703
3 708 703 709
3 710 708 709
3 710 702 708
3 710 706 702
3 710 709 711
3 712 714 713
3 712 715 714
3 715 716 714
3 715 717 716
3 718 713 714
3 718 719 713
3 715 712 720
3 715 720 721
3 717 722 716
3 717 723 722
3 723 724 722
3 723 725 724
3 725 726 724
3 725 727 726
3 727 725 728
3 727 728 729
3 730 727 729
3 730 729 731
3 732 730 731
3 732 731 733
3 733 731 734
3 733 734 735
3 731 736 734
3 731 729 736
3 725 737 728
3 725 723 737
3 723 738 737
3 729 728 739
3 729 739 736
3 723 717 738
3 703 741 740
3 703 704 741
3 707 740 741
3 707 706 740
3 709 703 740
3 709 740 711
3 711 740 706
3 711 706 710
3 735 743 742
3 735 734 743
3 730 742 743
3 730 732 742
3 727 730 743
3 727 743 726
3 744 746 745
3 744 747 746
3 745 746 748
3 745 748 749
3 750 747 744
3 750 751 747
3 749 751 750
3 749 748 751
3 721 719 718
3 721 720 719
3 738 721 718
3 738 718 752
3 717 721 738
3 717 715 721
3 737 738 752
3 737 752 753
3 728 737 753
3 728 753 739
3 754 756 755
3 754 757 756
3 758 760 759
3 758 761 760
3 762 758 759
3 762 759 763
3 764 762 763
3 764 763 765
3 757 764 765
3 757 765 756
3 766 768 767
3 766 769 768
3 767 770 766
3 767 771 770
3 772 768 769
3 772 769 773
3 774 772 773
3 774 775 772
3 771 776 770
3 771 777 776
3 778 780 779
3 778 781 780
3 782 781 778
3 782 778 783
3 784 782 783
3 784 783 785
3 786 784 785
3 786 787 784
3 788 779 780
3 788 780 789
