ply
format ascii 1.0
element vertex 792
property float x
property float y
property float z
property uchar red
property uchar green
property uchar blue
element face 926
property list uchar int vertex_index
end_header
0.21153 -0.48823 2.11244 255 255 255
0.25006 -0.48823 2.11244 255 255 255
0.37576 -0.48823 2.09337 255 255 255
0.10369 -0.48823 2.09337 255 255 255
0.10369 -0.44807 2.09337 255 255 255
0.37576 -0.44807 2.09337 255 255 255
0.37576 -0.44807 2.21822 255 255 255
0.37576 -0.48823 2.21822 255 255 255
0.25006 -0.48823 2.21822 255 255 255
0.21153 -0.48823 2.21822 255 255 255
0.10369 -0.48823 2.21822 255 255 255
0.21153 -0.48823 2.21822 42 42 42
0.25006 -0.48823 2.21822 42 42 42
0.25006 -0.48823 2.11244 42 42 42
0.21153 -0.48823 2.11244 42 42 42
-0.21153 -0.48823 2.11244 255 255 255
-0.10369 -0.48823 2.09337 255 255 255
-0.37576 -0.48823 2.09337 255 255 255
-0.25006 -0.48823 2.11244 255 255 255
-0.10369 -0.44807 2.09337 255 255 255
-0.37576 -0.44807 2.09337 255 255 255
-0.37576 -0.44807 2.21822 255 255 255
-0.37576 -0.48823 2.21822 255 255 255
-0.25006 -0.48823 2.21822 255 255 255
-0.21153 -0.48823 2.21822 255 255 255
-0.10369 -0.48823 2.21822 255 255 255
-0.21153 -0.48823 2.21822 42 42 42
-0.21153 -0.48823 2.11244 42 42 42
-0.25006 -0.48823 2.11244 42 42 42
-0.25006 -0.48823 2.21822 42 42 42
-0.15619 -0.55624 2.46529 103 174 125
-0.15619 -0.55624 2.70594 103 174 125
-0.15619 -0.6049 2.70594 103 174 125
-0.15619 -0.6049 2.46529 103 174 125
-0.12062 -0.6049 2.73772 103 174 125
-0.12062 -0.55624 2.73772 103 174 125
0.12148 -0.6049 2.73772 103 174 125
0.12148 -0.55624 2.73772 103 174 125
-0.12062 -0.55624 2.43352 103 174 125
-0.12062 -0.6049 2.43352 103 174 125
0.15619 -0.6049 2.70594 103 174 125
0.15619 -0.55624 2.70594 103 174 125
0.15619 -0.6049 2.46529 103 174 125
0.15619 -0.55624 2.46529 103 174 125
0.12148 -0.6049 2.43352 103 174 125
0.12148 -0.55624 2.43352 103 174 125
-0.10591 -0.6265 2.72081 103 174 125
0.10668 -0.6265 2.72081 103 174 125
-0.13715 -0.6265 2.69166 103 174 125
-0.13715 -0.6265 2.47958 103 174 125
-0.10591 -0.6265 2.45192 103 174 125
0.10668 -0.6265 2.45192 103 174 125
0.13716 -0.6265 2.47958 103 174 125
0.13716 -0.6265 2.69166 103 174 125
0.10668 -0.6265 2.72081 77 154 114
0.13716 -0.6265 2.69166 77 154 114
0.01537 -0.6265 2.69166 77 154 114
0.01537 -0.6265 2.61738 77 154 114
0.08859 -0.6265 2.55461 77 154 114
-0.06195 -0.6265 2.69166 77 154 114
-0.10591 -0.6265 2.72081 77 154 114
-0.13715 -0.6265 2.69166 77 154 114
-0.06195 -0.6265 2.61738 77 154 114
-0.08793 -0.6265 2.55461 77 154 114
-0.10602 -0.6265 2.53657 77 154 114
-0.13715 -0.6265 2.47958 77 154 114
-0.10591 -0.6265 2.45192 77 154 114
0.10668 -0.6265 2.53657 77 154 114
0.13716 -0.6265 2.47958 77 154 114
0.10668 -0.6265 2.45192 77 154 114
0.10668 -0.6265 2.45192 141 192 158
-0.10591 -0.6265 2.45192 141 192 158
-0.10602 -0.6265 2.53657 141 192 158
0.10668 -0.6265 2.53657 141 192 158
0.08859 -0.6265 2.55461 141 192 158
-0.08793 -0.6265 2.55461 141 192 158
0.01537 -0.6265 2.61738 232 249 236
-0.06195 -0.6265 2.61738 232 249 236
-0.06195 -0.6265 2.69166 232 249 236
0.01537 -0.6265 2.69166 232 249 236
0.42207 -0.40589 2.50323 103 174 125
0.73208 -0.40589 2.50323 103 174 125
0.73208 -0.40589 2.42173 103 174 125
0.28828 -0.40589 2.42173 103 174 125
0.81449 -0.33578 2.50323 103 174 125
0.81449 -0.33578 2.42173 103 174 125
0.81449 -0.1915 2.50323 103 174 125
0.37879 -0.40589 2.55133 103 174 125
0.28828 -0.40589 3.06594 103 174 125
0.37879 -0.40589 3.06594 103 174 125
0.37879 -0.34411 3.12389 103 174 125
0.28828 -0.34411 3.12389 103 174 125
0.28828 0.55985 3.12389 103 174 125
0.37879 0.55985 3.12389 103 174 125
0.28828 0.62163 3.06594 103 174 125
0.37879 0.62163 3.06594 103 174 125
0.28828 0.62163 2.42173 103 174 125
0.37879 0.62163 2.55133 103 174 125
0.42207 0.62163 2.50323 103 174 125
0.73208 0.62163 2.42173 103 174 125
0.73208 0.62163 2.50323 103 174 125
0.81449 0.55152 2.50323 103 174 125
0.81449 0.55152 2.42173 103 174 125
0.81449 0.40728 2.50323 103 174 125
0.5683 0.03151 3.12389 84 168 125
0.5683 -0.16371 3.12389 84 168 125
0.37879 -0.34411 3.12389 84 168 125
0.37879 0.55985 3.12389 84 168 125
0.67931 -0.16371 3.12389 84 168 125
0.67931 -0.34411 3.12389 84 168 125
0.75117 -0.16319 3.12389 84 168 125
0.75117 -0.28358 3.12389 84 168 125
0.67931 0.55985 3.12389 84 168 125
0.67931 0.03151 3.12389 84 168 125
0.75117 0.03163 3.12389 84 168 125
0.75117 0.49932 3.12389 84 168 125
0.73208 -0.40589 3.06594 77 154 114
0.81449 -0.33578 3.06594 77 154 114
0.81449 -0.33578 2.50323 77 154 114
0.73208 -0.40589 2.50323 77 154 114
0.75117 -0.28358 3.12389 77 154 114
0.67931 -0.34411 3.12389 77 154 114
0.37879 -0.40589 3.06594 77 154 114
0.42207 -0.40589 2.50323 77 154 114
0.37879 -0.40589 2.55133 77 154 114
0.37879 -0.34411 3.12389 77 154 114
0.75117 -0.16319 3.12389 77 154 114
0.75117 0.03163 3.12389 77 154 114
0.81449 0.55152 3.06594 77 154 114
0.81449 -0.174 2.72877 77 154 114
0.81449 0.38978 2.72877 77 154 114
0.75117 0.49932 3.12389 77 154 114
0.67931 0.55985 3.12389 77 154 114
0.73208 0.62163 3.06594 77 154 114
0.37879 0.55985 3.12389 77 154 114
0.37879 0.62163 3.06594 77 154 114
0.81449 0.55152 2.50323 77 154 114
0.73208 0.62163 2.50323 77 154 114
0.42207 0.62163 2.50323 77 154 114
0.37879 0.62163 2.55133 77 154 114
0.81449 0.40728 2.70134 77 154 114
0.81449 0.40728 2.50323 77 154 114
0.81449 -0.1915 2.70134 77 154 114
0.81449 -0.1915 2.50323 77 154 114
0.28828 0.62163 3.06594 198 80 121
0.28828 0.55985 3.12389 198 80 121
0.28828 -0.34411 3.12389 198 80 121
0.28828 -0.40589 3.06594 198 80 121
0.81449 0.38978 2.72877 141 192 158
0.81449 0.40728 2.70134 141 192 158
0.81449 -0.1915 2.70134 141 192 158
0.81449 -0.174 2.72877 141 192 158
0.81449 -0.1915 2.50323 141 192 158
0.81449 0.40728 2.50323 141 192 158
0.67931 0.03151 3.12389 232 249 236
0.67931 -0.16371 3.12389 232 249 236
0.5683 -0.16371 3.12389 232 249 236
0.5683 0.03151 3.12389 232 249 236
0.75117 0.03163 3.12389 232 249 236
0.75117 -0.16319 3.12389 232 249 236
-0.37879 -0.40589 2.55133 103 174 125
-0.28828 -0.40589 2.42173 103 174 125
-0.42207 -0.40589 2.50323 103 174 125
-0.28828 -0.40589 3.06594 103 174 125
-0.37879 -0.40589 3.06594 103 174 125
-0.37879 -0.34411 3.12389 103 174 125
-0.28828 -0.34411 3.12389 103 174 125
-0.28828 0.55985 3.12389 103 174 125
-0.37879 0.55985 3.12389 103 174 125
-0.28828 0.62163 3.06594 103 174 125
-0.37879 0.62163 3.06594 103 174 125
-0.28828 0.62163 2.42173 103 174 125
-0.37879 0.62163 2.55133 103 174 125
-0.73208 -0.40589 2.50323 103 174 125
-0.73208 -0.40589 2.42173 103 174 125
-0.81449 -0.33578 2.50323 103 174 125
-0.81449 -0.33578 2.42173 103 174 125
-0.81449 -0.1915 2.50323 103 174 125
-0.42207 0.62163 2.50323 103 174 125
-0.73208 0.62163 2.42173 103 174 125
-0.73208 0.62163 2.50323 103 174 125
-0.81449 0.55152 2.50323 103 174 125
-0.81449 0.55152 2.42173 103 174 125
-0.81449 0.40728 2.50323 103 174 125
-0.5683 0.03151 3.12389 84 168 125
-0.37879 0.55985 3.12389 84 168 125
-0.37879 -0.34411 3.12389 84 168 125
-0.5683 -0.16371 3.12389 84 168 125
-0.67931 -0.16371 3.12389 84 168 125
-0.67931 -0.34411 3.12389 84 168 125
-0.75117 -0.16319 3.12389 84 168 125
-0.75117 -0.28358 3.12389 84 168 125
-0.67931 0.55985 3.12389 84 168 125
-0.67931 0.03151 3.12389 84 168 125
-0.75117 0.03163 3.12389 84 168 125
-0.75117 0.49932 3.12389 84 168 125
-0.73208 -0.40589 3.06594 77 154 114
-0.73208 -0.40589 2.50323 77 154 114
-0.81449 -0.33578 2.50323 77 154 114
-0.81449 -0.33578 3.06594 77 154 114
-0.75117 -0.28358 3.12389 77 154 114
-0.67931 -0.34411 3.12389 77 154 114
-0.42207 -0.40589 2.50323 77 154 114
-0.37879 -0.40589 2.55133 77 154 114
-0.37879 -0.40589 3.06594 77 154 114
-0.37879 -0.34411 3.12389 77 154 114
-0.81449 -0.174 2.72877 77 154 114
-0.81449 0.38978 2.72877 77 154 114
-0.81449 0.55152 3.06594 77 154 114
-0.81449 -0.1915 2.70134 77 154 114
-0.75117 -0.16319 3.12389 77 154 114
-0.75117 0.03163 3.12389 77 154 114
-0.75117 0.49932 3.12389 77 154 114
-0.67931 0.55985 3.12389 77 154 114
-0.73208 0.62163 3.06594 77 154 114
-0.37879 0.55985 3.12389 77 154 114
-0.37879 0.62163 3.06594 77 154 114
-0.81449 0.55152 2.50323 77 154 114
-0.73208 0.62163 2.50323 77 154 114
-0.42207 0.62163 2.50323 77 154 114
-0.37879 0.62163 2.55133 77 154 114
-0.81449 0.40728 2.70134 77 154 114
-0.81449 0.40728 2.50323 77 154 114
-0.81449 -0.1915 2.50323 77 154 114
-0.28828 0.62163 3.06594 198 80 121
-0.28828 -0.40589 3.06594 198 80 121
-0.28828 -0.34411 3.12389 198 80 121
-0.28828 0.55985 3.12389 198 80 121
-0.81449 -0.1915 2.70134 141 192 158
-0.81449 -0.1915 2.50323 141 192 158
-0.81449 0.40728 2.50323 141 192 158
-0.81449 0.40728 2.70134 141 192 158
-0.81449 0.38978 2.72877 141 192 158
-0.81449 -0.174 2.72877 141 192 158
-0.67931 0.03151 3.12389 232 249 236
-0.5683 0.03151 3.12389 232 249 236
-0.5683 -0.16371 3.12389 232 249 236
-0.67931 -0.16371 3.12389 232 249 236
-0.75117 0.03163 3.12389 232 249 236
-0.75117 -0.16319 3.12389 232 249 236
-0.54545 -0.38282 1.8802 55 55 55
-0.54545 -0.38282 2.21753 55 55 55
-0.46874 -0.45772 2.21753 55 55 55
-0.46874 -0.45772 1.8802 55 55 55
-0.54545 0.55827 1.8802 55 55 55
-0.54545 0.55827 2.21753 55 55 55
0.46874 -0.45772 1.8802 55 55 55
0.46874 -0.45772 2.21753 55 55 55
0.54545 -0.38282 1.8802 55 55 55
0.54545 -0.38282 2.21753 55 55 55
0.54545 0.55827 2.21753 55 55 55
0.54545 0.55827 1.8802 55 55 55
-0.41405 -0.39409 1.81715 55 55 55
0.41405 -0.39409 1.81715 55 55 55
-0.48181 -0.32792 1.81715 55 55 55
-0.48181 0.50337 1.81715 55 55 55
0.48181 -0.32792 1.81715 55 55 55
0.48181 0.50337 1.81715 55 55 55
0.46874 0.63318 1.8802 55 55 55
0.46874 0.63318 2.21753 55 55 55
-0.46874 0.63318 1.8802 55 55 55
-0.46874 0.63318 2.21753 55 55 55
-0.41405 0.56954 1.81715 55 55 55
0.41405 0.56954 1.81715 55 55 55
-0.13337 -0.90684 1.98495 134 155 235
-0.13337 -0.86458 2.03393 134 155 235
0.13337 -0.86458 2.03393 134 155 235
0.13337 -0.90684 1.98495 134 155 235
0.13337 -0.20645 2.03393 134 155 235
-0.13337 -0.20645 2.03393 134 155 235
-0.13337 -0.25 1.76592 131 149 230
-0.13337 -0.52873 1.76592 131 149 230
0.13337 -0.52873 1.76592 131 149 230
0.13337 -0.25 1.76592 131 149 230
-0.13337 -0.20645 2.03393 131 149 230
-0.13337 -0.20645 1.80801 131 149 230
0.13337 -0.20645 2.03393 131 149 230
0.13337 -0.86458 2.03393 131 149 230
0.13337 -0.57514 1.71233 131 149 230
0.13337 -0.90684 1.98495 131 149 230
0.13337 -0.20645 1.80801 131 149 230
-0.13337 -0.86458 2.03393 131 149 230
-0.13337 -0.57514 1.71233 131 149 230
-0.13337 -0.90684 1.98495 131 149 230
-0.09153 -0.90684 0.5 131 149 230
0.09153 -0.90684 0.5 131 149 230
0.09153 -0.64812 0.5 131 149 230
-0.09153 -0.64812 0.5 131 149 230
0.07628 -0.6642 0.47886 131 149 230
-0.07628 -0.6642 0.47886 131 149 230
0.07628 -0.89076 0.47886 131 149 230
-0.07628 -0.89076 0.47886 131 149 230
-0.24019 -0.46014 3.20792 134 155 235
-0.24019 0.63687 3.20792 134 155 235
0.24019 0.63687 3.20792 134 155 235
0.24019 -0.46014 3.20792 134 155 235
0.20195 -0.49645 3.20792 134 155 235
-0.20195 -0.49645 3.20792 134 155 235
0.20195 0.67318 3.20792 134 155 235
-0.20195 0.67318 3.20792 134 155 235
1.10479 -0.70578 2.20963 131 149 230
1.10479 -0.70578 2.37145 131 149 230
1.10479 0.88636 2.37145 131 149 230
1.10479 0.88636 2.20963 131 149 230
0.99769 -0.80555 2.37145 131 149 230
0.99769 -0.80555 2.20963 131 149 230
1.05658 -0.65476 2.43399 131 149 230
0.95674 -0.74777 2.43399 131 149 230
1.05658 0.83533 2.43399 131 149 230
0.99769 0.14208 2.20963 131 149 230
0.32606 0.14208 2.20963 131 149 230
0.99769 0.98613 2.20963 131 149 230
0.32606 -0.80555 2.20963 131 149 230
0.11009 -0.80555 2.08987 131 149 230
0.11009 0.14208 2.08987 131 149 230
-0.32606 0.14208 2.20963 131 149 230
-0.99769 0.98613 2.20963 131 149 230
0.99769 0.98613 2.37145 131 149 230
0.95674 0.92834 2.43399 131 149 230
-0.99769 0.98613 2.37145 131 149 230
-0.95674 0.92834 2.43399 131 149 230
-1.10479 0.88636 2.37145 131 149 230
-1.10479 0.88636 2.20963 131 149 230
-1.05658 0.83533 2.43399 131 149 230
-0.99769 0.14208 2.20963 131 149 230
-0.99769 -0.80555 2.20963 131 149 230
-1.10479 -0.70578 2.20963 131 149 230
-0.99769 -0.80555 2.37145 131 149 230
-0.32606 -0.80555 2.20963 131 149 230
-1.10479 -0.70578 2.37145 131 149 230
-1.05658 -0.65476 2.43399 131 149 230
-0.95674 -0.74777 2.43399 131 149 230
-0.11009 -0.80555 2.08987 131 149 230
-0.11009 0.14208 2.08987 131 149 230
-0.02402 -0.80555 2.37145 131 149 230
-0.02384 -0.74777 2.43399 131 149 230
-0.02428 -0.80555 2.20963 131 149 230
-0.02409 -0.80555 2.08987 131 149 230
-0.02409 0.14208 2.08987 131 149 230
0.262 0.73928 2.43399 134 155 235
-0.262 0.73928 2.43399 134 155 235
-0.95674 0.92834 2.43399 134 155 235
0.95674 0.92834 2.43399 134 155 235
1.05658 0.83533 2.43399 134 155 235
0.30895 0.69887 2.43399 134 155 235
-1.05658 0.83533 2.43399 134 155 235
-0.30895 0.69887 2.43399 134 155 235
0.95674 -0.74777 2.43399 134 155 235
0.262 -0.56255 2.43399 134 155 235
0.30895 -0.52214 2.43399 134 155 235
1.05658 -0.65476 2.43399 134 155 235
0.02384 -0.74777 2.43399 134 155 235
0.02403 -0.56255 2.43399 134 155 235
0.262 0.73928 3.15037 131 149 230
-0.262 0.73928 3.15037 131 149 230
-0.262 0.73928 2.43399 131 149 230
0.262 0.73928 2.43399 131 149 230
0.30895 0.69887 2.43399 131 149 230
0.30895 0.69887 3.15037 131 149 230
0.30895 -0.39093 2.63012 131 149 230
0.30895 -0.39093 2.66906 131 149 230
0.20195 0.67318 3.20792 131 149 230
-0.20195 0.67318 3.20792 131 149 230
0.24019 0.63687 3.20792 131 149 230
0.30895 -0.52214 3.15037 131 149 230
0.24019 -0.46014 3.20792 131 149 230
-0.30895 0.69887 2.43399 131 149 230
-0.30895 0.69887 3.15037 131 149 230
-0.24019 0.63687 3.20792 131 149 230
-0.30895 -0.52214 3.15037 131 149 230
-0.24019 -0.46014 3.20792 131 149 230
-0.30895 -0.39093 2.66906 131 149 230
-0.30895 -0.39093 2.63012 131 149 230
-0.30895 -0.52214 2.43399 131 149 230
-0.30895 -0.52214 2.63012 131 149 230
-0.262 -0.56255 2.43399 131 149 230
-0.262 -0.56255 2.63012 131 149 230
-0.02403 -0.56255 2.43399 131 149 230
0.262 -0.56255 2.63012 131 149 230
0.02403 -0.56255 2.43399 131 149 230
0.262 -0.56255 2.43399 131 149 230
0.30895 -0.52214 2.63012 131 149 230
0.30895 -0.52214 2.43399 131 149 230
-0.30895 -0.52214 2.66906 131 149 230
-0.262 -0.56255 3.15037 131 149 230
-0.20195 -0.49645 3.20792 131 149 230
0.20195 -0.49645 3.20792 131 149 230
0.262 -0.56255 3.15037 131 149 230
-0.262 -0.56255 2.66906 131 149 230
0.262 -0.56255 2.66906 131 149 230
0.30895 -0.52214 2.66906 131 149 230
0.02402 -0.80555 2.37145 131 149 230
0.02384 -0.74777 2.43399 131 149 230
0.02428 -0.80555 2.20963 131 149 230
0.02409 -0.80555 2.08987 131 149 230
0.02409 0.14208 2.08987 131 149 230
-0.02384 -0.74777 2.43399 134 155 235
-0.95674 -0.74777 2.43399 134 155 235
-0.262 -0.56255 2.43399 134 155 235
-0.02403 -0.56255 2.43399 134 155 235
-0.30895 -0.52214 2.43399 134 155 235
-1.05658 -0.65476 2.43399 134 155 235
0.13337 0.93598 1.98495 134 155 235
0.13337 0.89373 2.03393 134 155 235
-0.13337 0.89373 2.03393 134 155 235
-0.13337 0.93598 1.98495 134 155 235
-0.13337 0.28057 2.03393 134 155 235
0.13337 0.28057 2.03393 134 155 235
0.13337 0.32412 1.76592 131 149 230
0.13337 0.55941 1.76592 131 149 230
-0.13337 0.55941 1.76592 131 149 230
-0.13337 0.32412 1.76592 131 149 230
0.13337 0.28057 2.03393 131 149 230
0.13337 0.28057 1.80801 131 149 230
0.13337 0.89373 2.03393 131 149 230
0.13337 0.60429 1.71233 131 149 230
0.13337 0.93598 1.98495 131 149 230
-0.13337 0.28057 2.03393 131 149 230
-0.13337 0.89373 2.03393 131 149 230
-0.13337 0.60429 1.71233 131 149 230
-0.13337 0.93598 1.98495 131 149 230
0.09153 0.93598 0.70448 131 149 230
-0.09153 0.93598 0.70448 131 149 230
-0.09153 0.67727 0.70448 131 149 230
0.09153 0.67727 0.70448 131 149 230
-0.07628 0.69335 0.68333 131 149 230
0.07628 0.69335 0.68333 131 149 230
-0.07628 0.91991 0.68333 131 149 230
0.07628 0.91991 0.68333 131 149 230
-0.13337 0.28057 1.80801 131 149 230
0.59458 -0.41206 0.32655 175 180 141
0.59458 -0.41206 0.76642 175 180 141
0.59454 -0.66376 0.76642 175 180 141
0.59454 -0.66376 0.32655 175 180 141
0.84628 -0.4121 0.32655 175 180 141
0.84628 -0.4121 0.76642 175 180 141
0.62518 -0.44267 0.2929 175 180 141
0.62515 -0.63316 0.2929 175 180 141
0.81567 -0.4427 0.2929 175 180 141
0.81564 -0.63319 0.2929 175 180 141
0.19531 -0.09819 1.94238 175 180 141
0.19531 -0.09819 1.40732 175 180 141
0.33905 -0.09819 1.5122 175 180 141
0.33905 -0.09819 1.94238 175 180 141
0.37052 -0.09819 1.47278 175 180 141
0.24253 -0.09819 1.34878 175 180 141
0.33905 -0.24193 1.5122 175 180 141
0.33905 -0.24193 1.94238 175 180 141
0.19531 -0.24193 1.94238 175 180 141
0.19531 -0.24193 1.40732 175 180 141
0.75041 -0.09836 1.47278 175 180 141
0.75041 -0.09861 1.34878 175 180 141
0.79212 -0.14032 1.47278 175 180 141
0.79209 -0.14032 1.34878 175 180 141
0.79228 -0.55526 1.47278 175 180 141
0.7923 -0.43258 1.34878 175 180 141
0.64854 -0.26814 1.34878 175 180 141
0.64855 -0.43256 1.34878 175 180 141
0.79229 -0.46607 1.31178 175 180 141
0.64855 -0.46605 1.31178 175 180 141
0.79229 -0.46607 0.80007 175 180 141
0.64855 -0.46605 0.80007 175 180 141
0.64853 -0.60979 1.41666 175 180 141
0.64853 -0.60979 0.80007 175 180 141
0.64854 -0.55524 1.47278 175 180 141
0.62427 -0.24198 1.34878 175 180 141
0.24253 -0.24193 1.34878 175 180 141
0.64862 -0.26814 1.47278 175 180 141
0.84624 -0.6638 0.76642 175 180 141
0.84624 -0.6638 0.32655 175 180 141
0.79227 -0.60981 1.41666 175 180 141
0.79227 -0.60981 0.80007 175 180 141
0.64853 -0.60979 0.80007 185 188 147
0.59454 -0.66376 0.76642 185 188 147
0.59458 -0.41206 0.76642 185 188 147
0.64855 -0.46605 0.80007 185 188 147
0.84628 -0.4121 0.76642 185 188 147
0.79229 -0.46607 0.80007 185 188 147
0.79227 -0.60981 0.80007 185 188 147
0.84624 -0.6638 0.76642 185 188 147
0.37052 -0.24193 1.47278 175 180 141
0.62427 -0.24186 1.47278 175 180 141
0.64853 -0.60979 1.41666 185 188 147
0.64854 -0.55524 1.47278 185 188 147
0.79228 -0.55526 1.47278 185 188 147
0.79227 -0.60981 1.41666 185 188 147
0.37052 -0.24193 1.47278 185 188 147
0.33905 -0.24193 1.5122 185 188 147
0.33905 -0.09819 1.5122 185 188 147
0.37052 -0.09819 1.47278 185 188 147
0.62427 -0.24186 1.47278 185 188 147
0.75041 -0.09836 1.47278 185 188 147
0.64862 -0.26814 1.47278 185 188 147
0.79212 -0.14032 1.47278 185 188 147
0.52507 0.04033 0.44844 175 180 141
0.52507 0.04033 0.75492 175 180 141
0.73054 0.04033 0.75492 175 180 141
0.73054 0.04033 0.44844 175 180 141
0.73054 0.2458 0.75492 175 180 141
0.73054 0.2458 0.44844 175 180 141
0.52507 0.2458 0.44844 175 180 141
0.52507 0.2458 0.75492 175 180 141
0.55005 0.06532 0.42097 175 180 141
0.70555 0.06532 0.42097 175 180 141
0.55005 0.22082 0.42097 175 180 141
0.70555 0.22082 0.42097 175 180 141
0.27651 0.20174 1.94238 175 180 141
0.27651 0.20174 1.6577 175 180 141
0.39385 0.20174 1.74332 175 180 141
0.39385 0.20174 1.94238 175 180 141
0.41954 0.20174 1.71114 175 180 141
0.31506 0.20174 1.60992 175 180 141
0.39385 0.0844 1.74332 175 180 141
0.39385 0.0844 1.94238 175 180 141
0.27651 0.0844 1.94238 175 180 141
0.27651 0.0844 1.6577 175 180 141
0.64194 0.20174 1.71114 175 180 141
0.5418 0.20174 1.60992 175 180 141
0.31506 0.0844 1.60992 175 180 141
0.68647 0.20174 1.66533 175 180 141
0.56913 0.20174 1.57971 175 180 141
0.68647 0.20174 0.78238 175 180 141
0.56913 0.20174 0.78238 175 180 141
0.5418 0.0844 1.60992 175 180 141
0.41954 0.0844 1.71114 175 180 141
0.64194 0.0844 1.71114 175 180 141
0.56913 0.0844 1.57971 175 180 141
0.68647 0.0844 1.66533 175 180 141
0.56913 0.0844 0.78238 175 180 141
0.68647 0.0844 0.78238 175 180 141
0.68647 0.0844 0.78238 185 188 147
0.73054 0.04033 0.75492 185 188 147
0.52507 0.04033 0.75492 185 188 147
0.56913 0.0844 0.78238 185 188 147
0.68647 0.20174 0.78238 185 188 147
0.73054 0.2458 0.75492 185 188 147
0.52507 0.2458 0.75492 185 188 147
0.56913 0.20174 0.78238 185 188 147
0.68647 0.0844 1.66533 185 188 147
0.64194 0.0844 1.71114 185 188 147
0.64194 0.20174 1.71114 185 188 147
0.68647 0.20174 1.66533 185 188 147
0.41954 0.0844 1.71114 185 188 147
0.39385 0.0844 1.74332 185 188 147
0.39385 0.20174 1.74332 185 188 147
0.41954 0.20174 1.71114 185 188 147
0.80872 0.36677 0.56654 175 180 141
0.80872 0.36677 0.87302 175 180 141
1.01419 0.36677 0.87302 175 180 141
1.01419 0.36677 0.56654 175 180 141
1.01419 0.57224 0.87302 175 180 141
1.01419 0.57224 0.56654 175 180 141
0.80872 0.57224 0.56654 175 180 141
0.80872 0.57224 0.87302 175 180 141
0.8337 0.39176 0.53908 175 180 141
0.9892 0.39176 0.53908 175 180 141
0.8337 0.54726 0.53908 175 180 141
0.9892 0.54726 0.53908 175 180 141
0.33833 0.52818 1.94238 175 180 141
0.33833 0.52818 1.20358 175 180 141
0.45567 0.52818 1.28919 175 180 141
0.45567 0.52818 1.94238 175 180 141
0.48136 0.52818 1.25702 175 180 141
0.37687 0.52818 1.15579 175 180 141
0.45567 0.41084 1.28919 175 180 141
0.45567 0.41084 1.94238 175 180 141
0.33833 0.41084 1.94238 175 180 141
0.33833 0.41084 1.20358 175 180 141
0.92559 0.52818 1.25702 175 180 141
0.82544 0.52818 1.15579 175 180 141
0.37687 0.41084 1.15579 175 180 141
0.82544 0.41084 1.15579 175 180 141
0.48136 0.41084 1.25702 175 180 141
0.92559 0.41084 1.25702 175 180 141
0.85278 0.41084 1.12559 175 180 141
0.97012 0.41084 1.2112 175 180 141
0.85278 0.41084 0.90049 175 180 141
0.97012 0.41084 0.90049 175 180 141
0.97012 0.52818 1.2112 175 180 141
0.97012 0.52818 0.90049 175 180 141
0.85278 0.52818 0.90049 175 180 141
0.85278 0.52818 1.12559 175 180 141
0.97012 0.41084 0.90049 185 188 147
1.01419 0.36677 0.87302 185 188 147
0.80872 0.36677 0.87302 185 188 147
0.85278 0.41084 0.90049 185 188 147
0.97012 0.52818 0.90049 185 188 147
1.01419 0.57224 0.87302 185 188 147
0.80872 0.57224 0.87302 185 188 147
0.85278 0.52818 0.90049 185 188 147
0.97012 0.41084 1.2112 185 188 147
0.92559 0.41084 1.25702 185 188 147
0.92559 0.52818 1.25702 185 188 147
0.97012 0.52818 1.2112 185 188 147
0.48136 0.41084 1.25702 185 188 147
0.45567 0.41084 1.28919 185 188 147
0.45567 0.52818 1.28919 185 188 147
0.48136 0.52818 1.25702 185 188 147
-0.52507 0.04033 0.44844 175 180 141
-0.73054 0.04033 0.44844 175 180 141
-0.73054 0.04033 0.75492 175 180 141
-0.52507 0.04033 0.75492 175 180 141
-0.73054 0.2458 0.75492 175 180 141
-0.73054 0.2458 0.44844 175 180 141
-0.52507 0.2458 0.44844 175 180 141
-0.52507 0.2458 0.75492 175 180 141
-0.55005 0.06532 0.42097 175 180 141
-0.70555 0.06532 0.42097 175 180 141
-0.55005 0.22082 0.42097 175 180 141
-0.70555 0.22082 0.42097 175 180 141
-0.27651 0.20174 1.94238 175 180 141
-0.39385 0.20174 1.94238 175 180 141
-0.39385 0.20174 1.74332 175 180 141
-0.27651 0.20174 1.6577 175 180 141
-0.41954 0.20174 1.71114 175 180 141
-0.31506 0.20174 1.60992 175 180 141
-0.39385 0.0844 1.74332 175 180 141
-0.39385 0.0844 1.94238 175 180 141
-0.27651 0.0844 1.94238 175 180 141
-0.27651 0.0844 1.6577 175 180 141
-0.64194 0.20174 1.71114 175 180 141
-0.5418 0.20174 1.60992 175 180 141
-0.31506 0.0844 1.60992 175 180 141
-0.5418 0.0844 1.60992 175 180 141
-0.41954 0.0844 1.71114 175 180 141
-0.64194 0.0844 1.71114 175 180 141
-0.56913 0.0844 1.57971 175 180 141
-0.68647 0.0844 1.66533 175 180 141
-0.56913 0.0844 0.78238 175 180 141
-0.68647 0.0844 0.78238 175 180 141
-0.56913 0.20174 0.78238 175 180 141
-0.56913 0.20174 1.57971 175 180 141
-0.68647 0.20174 1.66533 175 180 141
-0.68647 0.20174 0.78238 175 180 141
-0.68647 0.0844 0.78238 185 188 147
-0.56913 0.0844 0.78238 185 188 147
-0.52507 0.04033 0.75492 185 188 147
-0.73054 0.04033 0.75492 185 188 147
-0.52507 0.2458 0.75492 185 188 147
-0.56913 0.20174 0.78238 185 188 147
-0.68647 0.20174 0.78238 185 188 147
-0.73054 0.2458 0.75492 185 188 147
-0.68647 0.0844 1.66533 185 188 147
-0.68647 0.20174 1.66533 185 188 147
-0.64194 0.20174 1.71114 185 188 147
-0.64194 0.0844 1.71114 185 188 147
-0.41954 0.0844 1.71114 185 188 147
-0.41954 0.20174 1.71114 185 188 147
-0.39385 0.20174 1.74332 185 188 147
-0.39385 0.0844 1.74332 185 188 147
-0.80872 0.36677 0.56654 175 180 141
-1.01419 0.36677 0.56654 175 180 141
-1.01419 0.36677 0.87302 175 180 141
-0.80872 0.36677 0.87302 175 180 141
-1.01419 0.57224 0.87302 175 180 141
-1.01419 0.57224 0.56654 175 180 141
-0.80872 0.57224 0.56654 175 180 141
-0.80872 0.57224 0.87302 175 180 141
-0.8337 0.39176 0.53908 175 180 141
-0.9892 0.39176 0.53908 175 180 141
-0.8337 0.54726 0.53908 175 180 141
-0.9892 0.54726 0.53908 175 180 141
-0.33833 0.52818 1.94238 175 180 141
-0.45567 0.52818 1.94238 175 180 141
-0.45567 0.52818 1.28919 175 180 141
-0.33833 0.52818 1.20358 175 180 141
-0.48136 0.52818 1.25702 175 180 141
-0.37687 0.52818 1.15579 175 180 141
-0.45567 0.41084 1.28919 175 180 141
-0.45567 0.41084 1.94238 175 180 141
-0.33833 0.41084 1.94238 175 180 141
-0.33833 0.41084 1.20358 175 180 141
-0.92559 0.52818 1.25702 175 180 141
-0.82544 0.52818 1.15579 175 180 141
-0.37687 0.41084 1.15579 175 180 141
-0.82544 0.41084 1.15579 175 180 141
-0.48136 0.41084 1.25702 175 180 141
-0.92559 0.41084 1.25702 175 180 141
-0.85278 0.41084 1.12559 175 180 141
-0.97012 0.41084 1.2112 175 180 141
-0.85278 0.41084 0.90049 175 180 141
-0.97012 0.41084 0.90049 175 180 141
-0.97012 0.52818 1.2112 175 180 141
-0.97012 0.52818 0.90049 175 180 141
-0.85278 0.52818 0.90049 175 180 141
-0.85278 0.52818 1.12559 175 180 141
-0.97012 0.41084 0.90049 185 188 147
-0.85278 0.41084 0.90049 185 188 147
-0.80872 0.36677 0.87302 185 188 147
-1.01419 0.36677 0.87302 185 188 147
-0.97012 0.52818 0.90049 185 188 147
-1.01419 0.57224 0.87302 185 188 147
-0.80872 0.57224 0.87302 185 188 147
-0.85278 0.52818 0.90049 185 188 147
-0.97012 0.41084 1.2112 185 188 147
-0.97012 0.52818 1.2112 185 188 147
-0.92559 0.52818 1.25702 185 188 147
-0.92559 0.41084 1.25702 185 188 147
-0.48136 0.41084 1.25702 185 188 147
-0.48136 0.52818 1.25702 185 188 147
-0.45567 0.52818 1.28919 185 188 147
-0.45567 0.41084 1.28919 185 188 147
-0.59458 -0.41206 0.32655 175 180 141
-0.59454 -0.66376 0.32655 175 180 141
-0.59454 -0.66376 0.76642 175 180 141
-0.59458 -0.41206 0.76642 175 180 141
-0.84628 -0.4121 0.32655 175 180 141
-0.84628 -0.4121 0.76642 175 180 141
-0.62518 -0.44267 0.2929 175 180 141
-0.62515 -0.63316 0.2929 175 180 141
-0.81567 -0.4427 0.2929 175 180 141
-0.81564 -0.63319 0.2929 175 180 141
-0.19531 -0.09819 1.94238 175 180 141
-0.33905 -0.09819 1.94238 175 180 141
-0.33905 -0.09819 1.5122 175 180 141
-0.19531 -0.09819 1.40732 175 180 141
-0.37052 -0.09819 1.47278 175 180 141
-0.24253 -0.09819 1.34878 175 180 141
-0.33905 -0.24193 1.5122 175 180 141
-0.33905 -0.24193 1.94238 175 180 141
-0.19531 -0.24193 1.94238 175 180 141
-0.19531 -0.24193 1.40732 175 180 141
-0.75041 -0.09836 1.47278 175 180 141
-0.75041 -0.09861 1.34878 175 180 141
-0.79212 -0.14032 1.47278 175 180 141
-0.79209 -0.14032 1.34878 175 180 141
-0.79228 -0.55526 1.47278 175 180 141
-0.7923 -0.43258 1.34878 175 180 141
-0.64854 -0.26814 1.34878 175 180 141
-0.64855 -0.43256 1.34878 175 180 141
-0.79229 -0.46607 1.31178 175 180 141
-0.64855 -0.46605 1.31178 175 180 141
-0.79229 -0.46607 0.80007 175 180 141
-0.64855 -0.46605 0.80007 175 180 141
-0.64853 -0.60979 1.41666 175 180 141
-0.64853 -0.60979 0.80007 175 180 141
-0.64854 -0.55524 1.47278 175 180 141
-0.62427 -0.24198 1.34878 175 180 141
-0.24253 -0.24193 1.34878 175 180 141
-0.64862 -0.26814 1.47278 175 180 141
-0.84624 -0.6638 0.32655 175 180 141
-0.84624 -0.6638 0.76642 175 180 141
-0.79227 -0.60981 0.80007 175 180 141
-0.79227 -0.60981 1.41666 175 180 141
-0.64853 -0.60979 0.80007 185 188 147
-0.64855 -0.46605 0.80007 185 188 147
-0.59458 -0.41206 0.76642 185 188 147
-0.59454 -0.66376 0.76642 185 188 147
-0.84628 -0.4121 0.76642 185 188 147
-0.79229 -0.46607 0.80007 185 188 147
-0.79227 -0.60981 0.80007 185 188 147
-0.84624 -0.6638 0.76642 185 188 147
-0.37052 -0.24193 1.47278 175 180 141
-0.62427 -0.24186 1.47278 175 180 141
-0.64853 -0.60979 1.41666 185 188 147
-0.79227 -0.60981 1.41666 185 188 147
-0.79228 -0.55526 1.47278 185 188 147
-0.64854 -0.55524 1.47278 185 188 147
-0.37052 -0.24193 1.47278 185 188 147
-0.37052 -0.09819 1.47278 185 188 147
-0.33905 -0.09819 1.5122 185 188 147
-0.33905 -0.24193 1.5122 185 188 147
-0.62427 -0.24186 1.47278 185 188 147
-0.75041 -0.09836 1.47278 185 188 147
-0.64862 -0.26814 1.47278 185 188 147
-0.79212 -0.14032 1.47278 185 188 147
0.262 -0.56255 2.66906 113 126 209
0.262 -0.56255 2.63012 113 126 209
-0.262 -0.56255 2.63012 113 126 209
-0.262 -0.56255 2.66906 113 126 209
0.30895 -0.52214 2.66906 113 126 209
0.30895 -0.52214 2.63012 113 126 209
-0.30895 -0.52214 2.63012 113 126 209
-0.30895 -0.52214 2.66906 113 126 209
-0.30895 -0.39093 2.66906 113 126 209
-0.30895 -0.39093 2.63012 113 126 209
0.30895 -0.39093 2.66906 113 126 209
0.30895 -0.39093 2.63012 113 126 209
-0.02402 -0.80555 2.37145 113 126 209
-0.02384 -0.74777 2.43399 113 126 209
0.02384 -0.74777 2.43399 113 126 209
0.02402 -0.80555 2.37145 113 126 209
0.02428 -0.80555 2.20963 113 126 209
-0.02428 -0.80555 2.20963 113 126 209
0.02409 -0.80555 2.08987 113 126 209
-0.02409 -0.80555 2.08987 113 126 209
-0.02403 -0.56255 2.43399 113 126 209
0.02403 -0.56255 2.43399 113 126 209
-0.02409 0.14208 2.08987 87 153 187
-0.02409 -0.80555 2.08987 87 153 187
0.02409 -0.80555 2.08987 87 153 187
0.02409 0.14208 2.08987 87 153 187
3 0 2 1
3 0 3 2
3 4 2 3
3 4 5 2
3 2 5 6
3 2 6 7
3 8 2 7
3 8 1 2
3 3 0 9
3 3 9 10
3 11 13 12
3 11 14 13
3 15 17 16
3 15 18 17
3 19 16 17
3 19 17 20
3 17 21 20
3 17 22 21
3 23 17 18
3 23 22 17
3 16 24 15
3 16 25 24
3 26 28 27
3 26 29 28
3 30 32 31
3 30 33 32
3 31 32 34
3 31 34 35
3 35 34 36
3 35 36 37
3 38 33 30
3 38 39 33
3 37 36 40
3 37 40 41
3 41 40 42
3 41 42 43
3 43 42 44
3 43 44 45
3 36 34 46
3 36 46 47
3 40 36 47
3 34 48 46
3 34 32 48
3 32 49 48
3 32 33 49
3 33 50 49
3 33 39 50
3 39 51 50
3 39 44 51
3 44 52 51
3 44 42 52
3 42 53 52
3 42 40 53
3 40 47 53
3 54 56 55
3 57 55 56
3 58 55 57
3 54 59 56
3 54 60 59
3 59 60 61
3 61 62 59
3 58 57 62
3 58 62 63
3 61 63 62
3 64 63 61
3 64 61 65
3 64 65 66
3 67 55 58
3 68 55 67
3 68 67 69
3 70 72 71
3 70 73 72
3 72 73 74
3 72 74 75
3 76 78 77
3 76 79 78
3 80 82 81
3 80 83 82
3 84 81 82
3 84 82 85
3 85 86 84
3 87 83 80
3 88 83 87
3 88 87 89
3 88 89 90
3 88 90 91
3 90 92 91
3 90 93 92
3 93 94 92
3 93 95 94
3 96 94 95
3 96 95 97
3 98 96 97
3 99 96 98
3 99 98 100
3 99 100 101
3 99 101 102
3 103 102 101
3 85 102 103
3 85 103 86
3 104 106 105
3 104 107 106
3 108 105 106
3 108 106 109
3 110 108 109
3 110 109 111
3 112 107 104
3 112 104 113
3 112 113 114
3 112 114 115
3 116 118 117
3 116 119 118
3 116 117 120
3 116 120 121
3 122 119 116
3 119 122 123
3 123 122 124
3 125 116 121
3 125 122 116
3 117 126 120
3 117 127 126
3 117 128 127
3 118 129 117
3 130 117 129
3 130 128 117
3 127 128 131
3 128 132 131
3 128 133 132
3 133 134 132
3 133 135 134
3 136 133 128
3 136 137 133
3 138 133 137
3 133 138 135
3 135 138 139
3 128 140 136
3 128 130 140
3 136 140 141
3 118 142 129
3 118 143 142
3 144 146 145
3 144 147 146
3 148 150 149
3 148 151 150
3 149 150 152
3 149 152 153
3 154 156 155
3 154 157 156
3 158 154 155
3 158 155 159
3 160 162 161
3 163 160 161
3 163 164 160
3 163 165 164
3 163 166 165
3 165 166 167
3 165 167 168
3 168 167 169
3 168 169 170
3 171 170 169
3 171 172 170
3 161 162 173
3 161 173 174
3 175 174 173
3 175 176 174
3 176 175 177
3 171 178 172
3 179 178 171
3 179 180 178
3 179 181 180
3 179 182 181
3 183 181 182
3 176 183 182
3 176 177 183
3 184 186 185
3 184 187 186
3 188 186 187
3 188 189 186
3 190 189 188
3 190 191 189
3 192 184 185
3 192 193 184
3 192 194 193
3 192 195 194
3 196 198 197
3 196 199 198
3 196 200 199
3 196 201 200
3 202 196 197
3 203 196 202
3 196 203 204
3 205 196 204
3 205 201 196
3 198 199 206
3 207 206 199
3 207 199 208
3 198 206 209
3 199 200 210
3 199 210 211
3 211 212 208
3 208 212 213
3 208 213 214
3 214 213 215
3 214 215 216
3 217 208 214
3 217 214 218
3 216 219 214
3 214 219 218
3 219 216 220
3 208 221 207
3 208 217 221
3 221 217 222
3 199 211 208
3 198 209 223
3 224 226 225
3 224 227 226
3 228 230 229
3 228 231 230
3 232 231 228
3 232 228 233
3 234 236 235
3 234 237 236
3 238 237 234
3 238 239 237
3 240 242 241
3 240 243 242
3 244 240 241
3 244 241 245
3 242 243 246
3 242 246 247
3 247 246 248
3 247 248 249
3 248 250 249
3 248 251 250
3 246 243 252
3 246 252 253
3 248 246 253
3 243 254 252
3 243 240 254
3 253 252 254
3 240 255 254
3 240 244 255
3 248 253 256
3 253 254 256
3 251 248 256
3 251 256 257
3 258 251 257
3 258 250 251
3 258 259 250
3 260 259 258
3 260 261 259
3 245 261 260
3 245 260 244
3 244 260 262
3 257 262 263
3 260 263 262
3 260 258 263
3 258 257 263
3 257 255 262
3 244 262 255
3 256 255 257
3 256 254 255
3 264 266 265
3 264 267 266
3 265 266 268
3 265 268 269
3 270 272 271
3 270 273 272
3 270 271 274
3 270 274 275
3 276 272 273
3 277 272 276
3 277 278 272
3 279 278 277
3 276 273 280
3 274 271 281
3 281 271 282
3 281 282 283
3 279 283 284
3 279 284 285
3 278 279 285
3 278 285 286
3 283 287 284
3 282 286 287
3 282 278 286
3 283 282 287
3 271 278 282
3 271 272 278
3 287 286 288
3 287 288 289
3 284 287 289
3 289 288 290
3 286 290 288
3 289 290 291
3 286 285 290
3 285 284 291
3 284 289 291
3 285 291 290
3 292 294 293
3 292 295 294
3 296 295 292
3 296 292 297
3 293 294 298
3 293 298 299
3 300 302 301
3 300 303 302
3 304 300 301
3 304 305 300
3 304 301 306
3 304 306 307
3 301 308 306
3 301 302 308
3 309 300 305
3 303 300 309
3 305 310 309
3 309 310 311
3 305 312 310
3 312 305 304
3 310 312 313
3 310 313 314
3 311 310 315
3 311 315 316
3 303 309 311
3 311 302 303
3 311 317 302
3 302 317 318
3 318 317 319
3 311 319 317
3 311 316 319
3 318 319 320
3 302 318 308
3 316 321 319
3 321 320 319
3 316 322 321
3 321 323 320
3 324 316 315
3 322 316 324
3 325 324 315
3 324 325 326
3 327 326 325
3 328 327 325
3 327 329 326
3 326 329 321
3 326 321 322
3 322 324 326
3 327 330 329
3 327 331 330
3 329 323 321
3 329 330 323
3 325 315 328
3 315 332 328
3 315 333 332
3 334 331 327
3 334 335 331
3 336 327 328
3 336 334 327
3 337 328 332
3 337 336 328
3 338 332 333
3 338 337 332
3 339 341 340
3 339 342 341
3 343 342 339
3 343 339 344
3 345 340 341
3 345 346 340
3 347 349 348
3 347 350 349
3 350 344 349
3 350 343 344
3 348 351 347
3 348 352 351
3 353 355 354
3 353 356 355
3 357 356 353
3 357 353 358
3 359 357 358
3 359 358 360
3 361 353 354
3 358 353 361
3 361 354 362
3 358 361 363
3 364 358 363
3 364 360 358
3 364 363 365
3 366 354 355
3 366 367 354
3 367 362 354
3 367 368 362
3 369 368 367
3 369 370 368
3 367 371 369
3 366 371 367
3 366 372 371
3 373 374 372
3 375 374 373
3 375 376 374
3 377 376 375
3 373 372 366
3 378 376 377
3 378 377 379
3 378 379 380
3 380 381 378
3 380 382 381
3 382 359 381
3 382 357 359
3 369 371 383
3 383 384 369
3 384 370 369
3 384 385 370
3 386 385 384
3 386 384 387
3 387 365 386
3 387 364 365
3 387 384 388
3 383 388 384
3 387 388 389
3 389 364 387
3 389 390 364
3 390 360 364
3 307 391 304
3 307 392 391
3 312 304 391
3 312 391 393
3 312 393 394
3 312 394 313
3 314 313 394
3 314 394 395
3 396 398 397
3 396 399 398
3 397 398 400
3 397 400 401
3 401 400 346
3 401 346 345
3 276 275 274
3 276 280 275
3 275 280 273
3 275 273 270
3 402 404 403
3 402 405 404
3 403 404 406
3 403 406 407
3 408 410 409
3 408 411 410
3 408 409 412
3 408 412 413
3 412 409 414
3 414 409 415
3 414 415 416
3 417 410 411
3 418 410 417
3 418 419 410
3 420 419 418
3 420 416 421
3 420 421 422
3 419 420 422
3 419 422 423
3 416 424 421
3 415 423 424
3 415 419 423
3 416 415 424
3 409 419 415
3 409 410 419
3 424 423 425
3 424 425 426
3 421 424 426
3 426 425 427
3 423 427 425
3 426 427 428
3 423 422 427
3 422 421 428
3 421 426 428
3 422 428 427
3 417 413 412
3 417 429 413
3 413 429 411
3 413 411 408
3 417 411 429
3 430 432 431
3 430 433 432
3 434 430 431
3 434 431 435
3 436 433 430
3 436 437 433
3 438 437 436
3 438 430 434
3 438 436 430
3 438 439 437
3 440 442 441
3 440 443 442
3 441 442 444
3 441 444 445
3 446 442 443
3 446 443 447
3 441 448 440
3 441 449 448
3 445 444 450
3 445 450 451
3 451 450 452
3 451 452 453
3 453 452 454
3 453 454 455
3 455 456 453
3 455 457 456
3 458 457 455
3 458 459 457
3 460 459 458
3 460 461 459
3 461 462 459
3 461 463 462
3 459 462 464
3 459 464 457
3 453 465 451
3 453 456 465
3 451 465 466
3 457 467 456
3 457 464 467
3 451 466 445
3 433 468 432
3 433 469 468
3 435 468 469
3 435 469 434
3 437 469 433
3 437 439 469
3 439 434 469
3 439 438 434
3 463 470 462
3 463 471 470
3 458 470 471
3 458 471 460
3 455 470 458
3 455 454 470
3 472 474 473
3 472 475 474
3 475 476 474
3 475 477 476
3 478 473 479
3 478 472 473
3 477 478 479
3 477 479 476
3 449 447 448
3 449 446 447
3 466 446 449
3 466 480 446
3 445 466 449
3 445 449 441
3 465 480 466
3 465 481 480
3 456 481 465
3 456 467 481
3 482 484 483
3 482 485 484
3 486 488 487
3 486 489 488
3 490 489 486
3 490 491 489
3 492 491 490
3 492 493 491
3 483 493 492
3 483 484 493
3 494 496 495
3 494 497 496
3 497 498 496
3 497 499 498
3 500 494 495
3 500 495 501
3 502 497 494
3 502 503 497
3 504 503 502
3 504 505 503
3 503 499 497
3 503 505 499
3 504 502 494
3 504 494 500
3 505 500 499
3 505 504 500
3 501 499 500
3 501 498 499
3 506 508 507
3 506 509 508
3 507 508 510
3 507 510 511
3 512 508 509
3 512 509 513
3 507 514 506
3 507 515 514
3 511 515 507
3 511 510 516
3 511 516 517
3 511 518 515
3 517 516 519
3 517 519 520
3 520 519 521
3 520 521 522
3 517 518 511
3 517 523 518
3 523 524 518
3 518 524 512
3 518 512 515
3 515 512 513
3 515 513 514
3 523 525 524
3 526 525 523
3 526 527 525
3 528 527 526
3 528 529 527
3 529 519 527
3 529 521 519
3 522 528 526
3 522 526 520
3 520 526 523
3 520 523 517
3 530 532 531
3 530 533 532
3 534 530 531
3 534 531 535
3 533 536 532
3 533 537 536
3 537 535 536
3 537 534 535
3 538 540 539
3 538 541 540
3 542 544 543
3 542 545 544
3 539 545 542
3 539 540 545
3 546 548 547
3 546 549 548
3 549 550 548
3 549 551 550
3 552 546 547
3 552 547 553
3 554 549 546
3 554 555 549
3 556 555 554
3 556 557 555
3 555 551 549
3 555 557 551
3 556 554 546
3 556 546 552
3 557 552 551
3 557 556 552
3 553 551 552
3 553 550 551
3 558 560 559
3 558 561 560
3 559 560 562
3 559 562 563
3 564 560 561
3 564 561 565
3 559 566 558
3 559 567 566
3 563 567 559
3 563 562 568
3 563 568 569
3 563 570 567
3 569 570 563
3 569 571 570
3 571 572 570
3 570 572 564
3 570 564 567
3 567 564 565
3 567 565 566
3 571 573 572
3 574 573 571
3 574 575 573
3 576 575 574
3 576 577 575
3 577 578 575
3 577 579 578
3 580 576 574
3 580 574 581
3 581 574 571
3 581 571 569
3 582 584 583
3 582 585 584
3 586 582 583
3 586 583 587
3 585 588 584
3 585 589 588
3 589 587 588
3 589 586 587
3 590 592 591
3 590 593 592
3 581 579 580
3 581 578 579
3 569 578 581
3 569 568 578
3 594 596 595
3 594 597 596
3 591 597 594
3 591 592 597
3 598 600 599
3 598 601 600
3 599 600 602
3 599 602 603
3 604 601 598
3 604 605 601
3 606 598 599
3 606 599 607
3 608 606 607
3 608 607 609
3 607 599 603
3 607 603 609
3 608 598 606
3 608 604 598
3 609 604 608
3 609 603 604
3 605 604 603
3 605 603 602
3 610 612 611
3 610 613 612
3 613 614 612
3 613 615 614
3 616 611 612
3 616 617 611
3 613 610 618
3 613 618 619
3 615 620 614
3 615 621 620
3 621 615 622
3 621 622 623
3 623 622 624
3 622 616 624
3 622 619 616
3 619 617 616
3 619 618 617
3 615 619 622
3 615 613 619
3 623 624 625
3 626 623 625
3 626 625 627
3 628 626 627
3 628 627 629
3 630 626 628
3 630 631 626
3 631 623 626
3 631 621 623
3 629 627 632
3 629 632 633
3 631 633 632
3 631 630 633
3 621 631 632
3 621 632 620
3 634 636 635
3 634 637 636
3 635 636 638
3 635 638 639
3 640 637 634
3 640 641 637
3 639 641 640
3 639 638 641
3 642 644 643
3 642 645 644
3 646 648 647
3 646 649 648
3 645 646 647
3 645 647 644
3 650 652 651
3 650 653 652
3 651 652 654
3 651 654 655
3 656 653 650
3 656 657 653
3 658 650 651
3 658 651 659
3 660 658 659
3 660 659 661
3 659 651 655
3 659 655 661
3 660 650 658
3 660 656 650
3 661 656 660
3 661 655 656
3 657 656 655
3 657 655 654
3 662 664 663
3 662 665 664
3 665 666 664
3 665 667 666
3 668 663 664
3 668 669 663
3 665 662 670
3 665 670 671
3 667 665 671
3 667 672 666
3 667 673 672
3 667 671 674
3 673 667 674
3 673 674 675
3 675 674 676
3 674 668 676
3 674 671 668
3 671 669 668
3 671 670 669
3 675 676 677
3 678 675 677
3 678 677 679
3 680 678 679
3 680 679 681
3 681 679 682
3 681 682 683
3 684 678 680
3 684 685 678
3 685 675 678
3 685 673 675
3 686 688 687
3 686 689 688
3 690 689 686
3 690 691 689
3 687 688 692
3 687 692 693
3 693 691 690
3 693 692 691
3 694 696 695
3 694 697 696
3 685 683 682
3 685 684 683
3 673 685 682
3 673 682 672
3 698 700 699
3 698 701 700
3 697 698 699
3 697 699 696
3 702 704 703
3 702 705 704
3 706 705 702
3 706 707 705
3 708 702 703
3 708 703 709
3 710 708 709
3 710 702 708
3 710 706 702
3 710 709 711
3 712 714 713
3 712 715 714
3 715 716 714
3 715 717 716
3 718 713 714
3 718 719 713
3 715 712 720
3 715 720 721
3 717 722 716
3 717 723 722
3 723 724 722
3 723 725 724
3 725 726 724
3 725 727 726
3 727 725 728
3 727 728 729
3 730 727 729
3 730 729 731
3 732 730 731
3 732 731 733
3 733 731 734
3 733 734 735
3 731 736 734
3 731 729 736
3 725 737 728
3 725 723 737
3 723 738 737
3 729 728 739
3 729 739 736
3 723 717 738
3 703 741 740
3 703 704 741
3 707 740 741
3 707 706 740
3 709 703 740
3 709 740 711
3 711 740 706
3 711 706 710
3 735 743 742
3 735 734 743
3 730 742 743
3 730 732 742
3 727 730 743
3 727 743 726
3 744 746 745
3 744 747 746
3 745 746 748
3 745 748 749
3 750 747 744
3 750 751 747
3 749 751 750
3 749 748 751
3 721 719 718
3 721 720 719
3 738 721 718
3 738 718 752
3 717 721 738
3 717 715 721
3 737 738 752
3 737 752 753
3 728 737 753
3 728 753 739
3 754 756 755
3 754 757 756
3 758 760 759
3 758 761 760
3 762 758 759
3 762 759 763
3 764 762 763
3 764 763 765
3 757 764 765
3 757 765 756
3 766 768 767
3 766 769 768
3 767 770 766
3 767 771 770
3 772 768 769
3 772 769 773
3 774 772 773
3 774 775 772
3 771 776 770
3 771 777 776
3 778 780 779
3 778 781 780
3 782 781 778
3 782 778 783
3 784 782 783
3 784 783 785
3 786 779 780
3 786 780 787
3 788 790 789
3 788 791 790
