ply
format ascii 1.0
element vertex 508
property float x
property float y
property float z
property uchar red
property uchar green
property uchar blue
element face 608
property list uchar int vertex_index
end_header
-0.61529 -0.52506 2.55927 115 168 210
-0.61529 -0.52506 2.72613 115 168 210
-0.51105 -0.61529 2.72613 115 168 210
-0.51105 -0.61529 2.55927 115 168 210
-0.61529 0.52506 2.55927 115 168 210
-0.61529 0.52506 2.72613 115 168 210
-0.51105 0.61529 2.55927 115 168 210
-0.51105 0.61529 2.72613 115 168 210
0.51105 -0.61529 2.55927 115 168 210
0.51105 -0.61529 2.72613 115 168 210
0.51105 0.61529 2.72613 115 168 210
0.51105 0.61529 2.55927 115 168 210
0.61529 -0.52506 2.55927 115 168 210
0.61529 -0.52506 2.72613 115 168 210
0.61529 0.52506 2.72613 115 168 210
0.61529 0.52506 2.55927 115 168 210
-0.47375 0.5704 2.75932 115 168 210
0.47375 0.5704 2.75932 115 168 210
-0.5704 0.48674 2.75932 115 168 210
-0.5704 -0.48674 2.75932 115 168 210
-0.47375 -0.5704 2.75932 115 168 210
0.47375 -0.5704 2.75932 115 168 210
0.5704 -0.48674 2.75932 115 168 210
0.5704 0.48674 2.75932 115 168 210
0.4355 -0.37163 2.58877 40 38 32
0.36171 -0.4355 2.58877 40 38 32
-0.36171 -0.4355 2.58877 40 38 32
-0.4355 -0.37163 2.58877 40 38 32
0.4355 0.37163 2.58877 40 38 32
-0.4355 0.37163 2.58877 40 38 32
0.36171 0.4355 2.58877 40 38 32
-0.36171 0.4355 2.58877 40 38 32
-0.29994 -0.523 2.52943 115 168 210
-0.44105 -0.523 2.52943 115 168 210
-0.523 -0.45696 2.52943 115 168 210
-0.523 0.45696 2.52943 115 168 210
-0.44105 0.523 2.52943 115 168 210
0.44105 0.523 2.52943 115 168 210
0.523 0.45696 2.52943 115 168 210
0.523 -0.45696 2.52943 115 168 210
0.44105 -0.523 2.52943 115 168 210
0.30012 -0.523 2.52943 115 168 210
0.47375 0.5704 2.75932 118 173 216
0.36171 0.4355 2.75932 118 173 216
-0.36171 0.4355 2.75932 118 173 216
-0.47375 0.5704 2.75932 118 173 216
-0.4355 0.37163 2.75932 118 173 216
-0.5704 0.48674 2.75932 118 173 216
-0.4355 -0.37163 2.75932 118 173 216
-0.5704 -0.48674 2.75932 118 173 216
-0.36171 -0.4355 2.75932 118 173 216
-0.47375 -0.5704 2.75932 118 173 216
0.36171 -0.4355 2.75932 118 173 216
0.47375 -0.5704 2.75932 118 173 216
0.4355 -0.37163 2.75932 118 173 216
0.5704 -0.48674 2.75932 118 173 216
0.4355 0.37163 2.75932 118 173 216
0.5704 0.48674 2.75932 118 173 216
0.36171 0.4355 2.75932 115 168 210
0.36171 0.4355 2.58877 115 168 210
-0.36171 0.4355 2.58877 115 168 210
-0.36171 0.4355 2.75932 115 168 210
-0.4355 0.37163 2.58877 115 168 210
-0.4355 0.37163 2.75932 115 168 210
-0.4355 -0.37163 2.58877 115 168 210
-0.4355 -0.37163 2.75932 115 168 210
-0.36171 -0.4355 2.58877 115 168 210
-0.36171 -0.4355 2.75932 115 168 210
0.36171 -0.4355 2.58877 115 168 210
0.36171 -0.4355 2.75932 115 168 210
0.4355 -0.37163 2.58877 115 168 210
0.4355 -0.37163 2.75932 115 168 210
0.4355 0.37163 2.58877 115 168 210
0.4355 0.37163 2.75932 115 168 210
-0.523 -0.45696 1.00253 205 243 96
-0.523 -0.45696 2.52943 205 243 96
-0.44105 -0.523 2.52943 205 243 96
-0.44105 -0.523 1.00253 205 243 96
-0.523 0.45696 2.52943 205 243 96
-0.523 0.45696 1.00253 205 243 96
-0.44105 0.523 1.00253 205 243 96
-0.44105 0.523 2.52943 205 243 96
0.44105 0.523 2.52943 205 243 96
0.44105 0.523 1.00253 205 243 96
0.523 0.45696 2.52943 205 243 96
0.523 0.45696 1.00253 205 243 96
0.523 -0.45696 1.00253 205 243 96
0.523 -0.45696 2.52943 205 243 96
0.44105 -0.523 2.52943 205 243 96
0.44105 -0.523 1.00253 205 243 96
-0.37859 -0.44894 0.92254 205 243 96
0.37859 -0.44894 0.92254 205 243 96
-0.44894 -0.39225 0.92254 205 243 96
-0.44894 0.39225 0.92254 205 243 96
0.44894 -0.39225 0.92254 205 243 96
0.44894 0.39225 0.92254 205 243 96
-0.37859 0.44894 0.92254 205 243 96
0.37859 0.44894 0.92254 205 243 96
0.3001 -0.523 2.46544 205 243 96
0.30012 -0.523 2.52943 205 243 96
-0.3001 -0.523 2.46544 205 243 96
-0.29994 -0.523 2.52943 205 243 96
-0.29994 -0.523 2.52943 93 110 43
0.30012 -0.523 2.52943 93 110 43
0.3001 -0.523 2.46544 93 110 43
-0.3001 -0.523 2.46544 93 110 43
-0.22977 -0.56421 2.55377 250 254 249
-0.10458 -0.56421 2.55377 250 254 249
-0.10458 -0.56421 2.3872 250 254 249
-0.22977 -0.56421 2.45663 250 254 249
-0.10458 -0.51617 2.55377 250 254 249
-0.10458 -0.51617 2.3872 250 254 249
-0.38193 -0.51617 2.3872 250 254 249
-0.38193 -0.56421 2.3872 250 254 249
-0.38193 -0.56421 2.55377 250 254 249
-0.38193 -0.51617 2.55377 250 254 249
-0.26255 -0.56421 2.45663 250 254 249
-0.26255 -0.56421 2.55377 250 254 249
-0.26255 -0.56421 2.55377 58 57 56
-0.22977 -0.56421 2.55377 58 57 56
-0.22977 -0.56421 2.45663 58 57 56
-0.26255 -0.56421 2.45663 58 57 56
0.22977 -0.56421 2.55377 250 254 249
0.22977 -0.56421 2.45663 250 254 249
0.10458 -0.56421 2.3872 250 254 249
0.10458 -0.56421 2.55377 250 254 249
0.10458 -0.51617 2.55377 250 254 249
0.10458 -0.51617 2.3872 250 254 249
0.38193 -0.51617 2.3872 250 254 249
0.38193 -0.56421 2.3872 250 254 249
0.38193 -0.56421 2.55377 250 254 249
0.38193 -0.51617 2.55377 250 254 249
0.26255 -0.56421 2.45663 250 254 249
0.26255 -0.56421 2.55377 250 254 249
0.26255 -0.56421 2.55377 58 57 56
0.26255 -0.56421 2.45663 58 57 56
0.22977 -0.56421 2.45663 58 57 56
0.22977 -0.56421 2.55377 58 57 56
0.1913 -0.47473 2.78711 250 254 249
0.1913 -0.3652 2.78711 250 254 249
0.29766 -0.3652 2.78711 250 254 249
0.29766 -0.47473 2.78711 250 254 249
0.29766 -0.3652 2.68969 250 254 249
0.1913 -0.3652 2.68969 250 254 249
0.29766 -0.47473 2.68969 250 254 249
0.1913 -0.47473 2.68969 250 254 249
0.1913 -0.3652 2.68969 115 168 210
0.1913 -0.47473 2.68969 115 168 210
0.29766 -0.47473 2.68969 115 168 210
0.29766 -0.3652 2.68969 115 168 210
-0.1913 -0.47473 2.78711 250 254 249
-0.29766 -0.47473 2.78711 250 254 249
-0.29766 -0.3652 2.78711 250 254 249
-0.1913 -0.3652 2.78711 250 254 249
-0.29766 -0.3652 2.68969 250 254 249
-0.1913 -0.3652 2.68969 250 254 249
-0.29766 -0.47473 2.68969 250 254 249
-0.1913 -0.47473 2.68969 250 254 249
-0.1913 -0.3652 2.68969 115 168 210
-0.29766 -0.3652 2.68969 115 168 210
-0.29766 -0.47473 2.68969 115 168 210
-0.1913 -0.47473 2.68969 115 168 210
0.09721 -0.53675 1.65728 180 196 73
0.09721 -0.53675 1.84954 180 196 73
0.27182 -0.53675 1.84954 180 196 73
0.27182 -0.53675 1.65728 180 196 73
0.27182 -0.50927 1.84954 180 196 73
0.09721 -0.50927 1.84954 180 196 73
0.27182 -0.50927 1.65728 180 196 73
0.09721 -0.50927 1.65728 180 196 73
-0.40058 -0.53675 1.79483 180 196 73
-0.40058 -0.53675 1.9593 180 196 73
-0.25179 -0.53675 1.9593 180 196 73
-0.25179 -0.53675 1.79483 180 196 73
-0.25179 -0.50927 1.9593 180 196 73
-0.40058 -0.50927 1.9593 180 196 73
-0.25179 -0.50927 1.79483 180 196 73
-0.40058 -0.50927 1.79483 180 196 73
-0.24323 -0.53675 1.30718 180 196 73
-0.24323 -0.53675 1.39467 180 196 73
-0.16052 -0.53675 1.39467 180 196 73
-0.16052 -0.53675 1.30718 180 196 73
-0.16052 -0.50927 1.39467 180 196 73
-0.24323 -0.50927 1.39467 180 196 73
-0.16052 -0.50927 1.30718 180 196 73
-0.24323 -0.50927 1.30718 180 196 73
0.04706 -0.53675 1.09405 180 196 73
0.04706 -0.53675 1.21732 180 196 73
0.16407 -0.53675 1.21732 180 196 73
0.16407 -0.53675 1.09405 180 196 73
0.16407 -0.50927 1.21732 180 196 73
0.04706 -0.50927 1.21732 180 196 73
0.16407 -0.50927 1.09405 180 196 73
0.04706 -0.50927 1.09405 180 196 73
0.53508 -0.32862 1.88333 180 196 73
0.53508 -0.32862 2.04381 180 196 73
0.53508 -0.15372 2.04381 180 196 73
0.53508 -0.15372 1.88333 180 196 73
0.50761 -0.15372 2.04381 180 196 73
0.50761 -0.32862 2.04381 180 196 73
0.50761 -0.15372 1.88333 180 196 73
0.50761 -0.32862 1.88333 180 196 73
0.53508 0.16264 2.0261 180 196 73
0.53508 0.16264 2.14575 180 196 73
0.53508 0.29479 2.14575 180 196 73
0.53508 0.29479 2.0261 180 196 73
0.50761 0.29479 2.14575 180 196 73
0.50761 0.16264 2.14575 180 196 73
0.50761 0.29479 2.0261 180 196 73
0.50761 0.16264 2.0261 180 196 73
0.53508 0.32894 1.7989 180 196 73
0.53508 0.32894 1.88351 180 196 73
0.53508 0.40637 1.88351 180 196 73
0.53508 0.40637 1.7989 180 196 73
0.50761 0.40637 1.88351 180 196 73
0.50761 0.32894 1.88351 180 196 73
0.50761 0.40637 1.7989 180 196 73
0.50761 0.32894 1.7989 180 196 73
0.23147 0.53826 2.17927 180 196 73
0.23147 0.53826 2.38964 180 196 73
0.07644 0.53826 2.38964 180 196 73
0.07644 0.53826 2.17927 180 196 73
0.07644 0.51079 2.38964 180 196 73
0.23147 0.51079 2.38964 180 196 73
0.07644 0.51079 2.17927 180 196 73
0.23147 0.51079 2.17927 180 196 73
-0.18205 0.53826 2.00576 180 196 73
-0.18205 0.53826 2.1604 180 196 73
-0.3223 0.53826 2.1604 180 196 73
-0.3223 0.53826 2.00576 180 196 73
-0.3223 0.51079 2.1604 180 196 73
-0.18205 0.51079 2.1604 180 196 73
-0.3223 0.51079 2.00576 180 196 73
-0.18205 0.51079 2.00576 180 196 73
-0.12017 0.53826 1.23164 180 196 73
-0.12017 0.53826 1.36592 180 196 73
-0.24426 0.53826 1.36592 180 196 73
-0.24426 0.53826 1.23164 180 196 73
-0.24426 0.51079 1.36592 180 196 73
-0.12017 0.51079 1.36592 180 196 73
-0.24426 0.51079 1.23164 180 196 73
-0.12017 0.51079 1.23164 180 196 73
-0.53691 0.2134 1.69384 180 196 73
-0.53691 0.2134 1.80665 180 196 73
-0.53691 0.06058 1.80665 180 196 73
-0.53691 0.06058 1.69384 180 196 73
-0.50944 0.06058 1.80665 180 196 73
-0.50944 0.2134 1.80665 180 196 73
-0.50944 0.06058 1.69384 180 196 73
-0.50944 0.2134 1.69384 180 196 73
-0.29011 0.28766 0.91255 180 196 73
-0.29011 0.17391 0.91255 180 196 73
-0.154 0.17391 0.91255 180 196 73
-0.154 0.28766 0.91255 180 196 73
-0.154 0.17391 0.94002 180 196 73
-0.29011 0.17391 0.94002 180 196 73
-0.29011 0.28766 0.94002 180 196 73
-0.154 0.28766 0.94002 180 196 73
-0.48659 -0.29147 1.06861 164 174 98
-0.56426 -0.33644 0.99042 164 174 98
-0.56426 -0.44704 1.14838 164 174 98
-0.48659 -0.35819 1.1639 164 174 98
-1.8094 -0.33644 0.99042 164 174 98
-1.8094 -0.44704 1.14838 164 174 98
-0.48659 -0.35819 1.1639 184 195 110
-0.56426 -0.44704 1.14838 184 195 110
-0.56426 -0.08309 1.40322 184 195 110
-0.48659 -0.06105 1.37196 184 195 110
-1.8094 -0.08309 1.40322 184 195 110
-1.8094 -0.44704 1.14838 184 195 110
-1.88707 -0.35819 1.1639 184 195 110
-1.88707 0.29539 1.62154 184 195 110
-1.8094 -0.02354 1.44492 184 195 110
-1.8094 0.34036 1.69973 184 195 110
-0.56426 0.34036 1.69973 184 195 110
-0.56426 -0.02354 1.44492 184 195 110
-0.48659 -0.00146 1.41369 184 195 110
-0.48659 0.29539 1.62154 184 195 110
-0.48659 0.29539 1.62154 164 174 98
-0.56426 0.34036 1.69973 164 174 98
-0.56426 0.45097 1.54177 164 174 98
-0.48659 0.36211 1.52625 164 174 98
-1.8094 0.34036 1.69973 164 174 98
-1.8094 0.45097 1.54177 164 174 98
-1.88707 0.36211 1.52625 164 174 98
-1.88707 -0.29147 1.06861 164 174 98
-1.88707 -0.35819 1.1639 164 174 98
-1.88707 0.29539 1.62154 164 174 98
-1.8094 -0.02354 1.44492 160 170 96
-0.56426 -0.02354 1.44492 160 170 96
-0.56426 -0.08309 1.40322 160 170 96
-1.8094 -0.08309 1.40322 160 170 96
-0.48659 -0.06105 1.37196 160 170 96
-0.48659 -0.00146 1.41369 160 170 96
0.48659 -0.29147 1.06861 164 174 98
0.48659 -0.35819 1.1639 164 174 98
0.56426 -0.44704 1.14838 164 174 98
0.56426 -0.33644 0.99042 164 174 98
1.8094 -0.33644 0.99042 164 174 98
1.8094 -0.44704 1.14838 164 174 98
0.48659 -0.35819 1.1639 184 195 110
0.48659 -0.06105 1.37196 184 195 110
0.56426 -0.08309 1.40322 184 195 110
0.56426 -0.44704 1.14838 184 195 110
1.8094 -0.08309 1.40322 184 195 110
1.8094 -0.44704 1.14838 184 195 110
1.88707 -0.35819 1.1639 184 195 110
1.88707 0.29539 1.62154 184 195 110
1.8094 -0.02354 1.44492 184 195 110
1.8094 0.34036 1.69973 184 195 110
0.56426 0.34036 1.69973 184 195 110
0.56426 -0.02354 1.44492 184 195 110
0.48659 -0.00146 1.41369 184 195 110
0.48659 0.29539 1.62154 184 195 110
0.48659 0.29539 1.62154 164 174 98
0.48659 0.36211 1.52625 164 174 98
0.56426 0.45097 1.54177 164 174 98
0.56426 0.34036 1.69973 164 174 98
1.8094 0.34036 1.69973 164 174 98
1.8094 0.45097 1.54177 164 174 98
1.88707 0.36211 1.52625 164 174 98
1.88707 -0.29147 1.06861 164 174 98
1.88707 -0.35819 1.1639 164 174 98
1.88707 0.29539 1.62154 164 174 98
1.8094 -0.02354 1.44492 160 170 96
1.8094 -0.08309 1.40322 160 170 96
0.56426 -0.08309 1.40322 160 170 96
0.56426 -0.02354 1.44492 160 170 96
0.48659 -0.06105 1.37196 160 170 96
0.48659 -0.00146 1.41369 160 170 96
0.54093 -0.31473 2.85297 164 174 98
0.54093 -0.31473 3.01855 164 174 98
0.54093 0.38824 3.01855 164 174 98
0.54093 0.38824 2.85297 164 174 98
0.48974 -0.37595 3.02058 164 174 98
0.48974 -0.37595 2.85094 164 174 98
-0.48974 -0.37595 2.85094 164 174 98
-0.48974 -0.37595 3.02058 164 174 98
-0.54093 -0.31473 2.85297 164 174 98
-0.54093 -0.31473 3.01855 164 174 98
0.85462 0.38831 2.85297 164 174 98
0.85462 0.38831 3.01855 164 174 98
0.90185 0.4492 2.85301 164 174 98
0.90185 0.4492 3.0185 164 174 98
0.90185 0.77754 2.85301 164 174 98
0.90185 0.77754 3.0185 164 174 98
0.85462 0.83155 2.85297 164 174 98
0.85462 0.83155 3.01855 164 174 98
-0.85462 0.83155 2.85297 164 174 98
-0.85462 0.38831 2.85297 164 174 98
-0.90185 0.77754 2.85301 164 174 98
-0.90185 0.4492 2.85301 164 174 98
-0.90185 0.4492 3.0185 164 174 98
-0.90185 0.77754 3.0185 164 174 98
-0.85462 0.38831 3.01855 164 174 98
-0.85462 0.83155 3.01855 164 174 98
0.03197 0.83206 3.01855 164 174 98
-0.03197 0.83206 3.01855 164 174 98
-0.54093 0.38824 3.01855 164 174 98
-0.54093 0.38824 2.85297 164 174 98
0.54093 -0.31473 3.01855 184 195 110
0.48974 -0.37595 3.02058 184 195 110
0.03197 -0.31473 3.01855 184 195 110
0.54093 0.38824 3.01855 184 195 110
-0.03197 -0.31473 3.01855 184 195 110
-0.48974 -0.37595 3.02058 184 195 110
-0.54093 -0.31473 3.01855 184 195 110
-0.54093 0.38824 3.01855 184 195 110
-0.03197 0.83206 3.01855 184 195 110
-0.85462 0.83155 3.01855 184 195 110
-0.85462 0.38831 3.01855 184 195 110
-0.90185 0.4492 3.0185 184 195 110
-0.90185 0.77754 3.0185 184 195 110
0.03197 0.83206 3.01855 184 195 110
0.85462 0.83155 3.01855 184 195 110
0.85462 0.38831 3.01855 184 195 110
0.90185 0.4492 3.0185 184 195 110
0.90185 0.77754 3.0185 184 195 110
0.03197 -0.31473 3.01855 160 170 96
-0.03197 -0.31473 3.01855 160 170 96
-0.03197 0.83206 3.01855 160 170 96
0.03197 0.83206 3.01855 160 170 96
-0.05957 0.53132 2.81007 148 129 108
-0.05957 0.53132 3.06178 148 129 108
0.05957 0.53132 3.06178 148 129 108
0.05957 0.53132 2.81007 148 129 108
-0.05957 0.89637 2.99107 148 129 108
-0.05957 0.89637 3.06178 148 129 108
0.05957 0.89637 2.99107 148 129 108
0.05957 0.89637 3.06178 148 129 108
0.05957 0.89637 2.87924 148 129 108
0.05957 0.89637 2.81007 148 129 108
-0.05957 0.89637 2.81007 148 129 108
-0.05957 0.89637 2.87924 148 129 108
-0.05957 0.98228 2.87924 148 129 108
0.05957 0.98228 2.87924 148 129 108
-0.05957 1.00571 2.85255 148 129 108
0.05957 1.00571 2.85255 148 129 108
-0.05957 1.00571 0.65063 148 129 108
0.05957 1.00571 0.65063 148 129 108
0.05957 1.13192 2.95674 148 129 108
0.05957 1.09697 2.99107 148 129 108
0.05957 1.13192 0.5286 148 129 108
-0.05957 1.13192 2.95674 148 129 108
-0.05957 1.09697 2.99107 148 129 108
-0.05957 1.13192 0.5286 148 129 108
0.05957 1.08358 0.4817 148 129 108
0.05957 0.97427 0.62148 148 129 108
-0.05957 1.08358 0.4817 148 129 108
0.05957 -0.57931 0.4817 148 129 108
-0.05957 -0.57931 0.4817 148 129 108
-0.05957 0.97427 0.62148 148 129 108
-0.05957 -0.57931 0.62148 148 129 108
0.05957 -0.57931 0.62148 148 129 108
-0.05957 0.53132 3.06178 154 135 107
-0.05957 0.89637 3.06178 154 135 107
0.05957 0.89637 3.06178 154 135 107
0.05957 0.53132 3.06178 154 135 107
-0.05957 0.89637 2.99107 154 135 107
-0.05957 1.09697 2.99107 154 135 107
0.05957 1.09697 2.99107 154 135 107
0.05957 0.89637 2.99107 154 135 107
-0.05957 1.13192 2.95674 154 135 107
0.05957 1.13192 2.95674 154 135 107
0.05957 0.97427 0.62148 154 135 107
0.05957 -0.57931 0.62148 154 135 107
-0.05957 -0.57931 0.62148 154 135 107
-0.05957 0.97427 0.62148 154 135 107
0.05957 1.00571 0.65063 154 135 107
-0.05957 1.00571 0.65063 154 135 107
-0.11691 -0.94531 0.70779 212 251 92
-0.14588 -0.94531 0.68077 212 251 92
-0.14588 -0.60333 0.68077 212 251 92
-0.11691 -0.60333 0.70779 212 251 92
0.11691 -0.60333 0.70779 212 251 92
0.11691 -0.94531 0.70779 212 251 92
0.14588 -0.60333 0.68077 212 251 92
0.14588 -0.94531 0.68077 212 251 92
-0.14588 -0.60333 0.68077 205 243 96
-0.14588 -0.94531 0.68077 205 243 96
-0.14588 -0.94531 0.42241 205 243 96
-0.14588 -0.60333 0.42241 205 243 96
-0.12392 -0.96856 0.65582 205 243 96
-0.12392 -0.96856 0.44736 205 243 96
-0.11691 -0.94531 0.70779 205 243 96
-0.09183 -0.96856 0.68428 205 243 96
0.11691 -0.94531 0.70779 205 243 96
0.09183 -0.96856 0.68428 205 243 96
0.14588 -0.94531 0.68077 205 243 96
0.12392 -0.96856 0.65582 205 243 96
-0.09183 -0.96856 0.4189 205 243 96
-0.11691 -0.94531 0.39539 205 243 96
-0.11691 -0.60333 0.39539 205 243 96
0.11691 -0.94531 0.39539 205 243 96
0.11691 -0.60333 0.39539 205 243 96
0.14588 -0.60333 0.42241 205 243 96
0.14588 -0.94531 0.42241 205 243 96
0.14588 -0.60333 0.68077 205 243 96
0.12392 -0.96856 0.44736 205 243 96
0.09183 -0.96856 0.4189 205 243 96
0.04345 -0.96856 0.62709 205 243 96
0.07051 -0.96856 0.60443 205 243 96
0.07051 -0.96856 0.49875 205 243 96
0.04345 -0.96856 0.47609 205 243 96
0.04345 -1.1051 0.47609 205 243 96
0.07051 -1.1051 0.49875 205 243 96
0.07051 -1.1051 0.60443 205 243 96
-0.04345 -1.1051 0.47609 205 243 96
-0.04345 -0.96856 0.47609 205 243 96
-0.07051 -0.96856 0.49875 205 243 96
-0.07051 -1.1051 0.49875 205 243 96
0.05523 -1.1272 0.59298 205 243 96
0.05523 -1.1272 0.5102 205 243 96
-0.03404 -1.1272 0.49245 205 243 96
-0.05523 -1.1272 0.5102 205 243 96
0.03404 -1.1272 0.49245 205 243 96
-0.05523 -1.1272 0.59298 205 243 96
0.03404 -1.1272 0.61073 205 243 96
-0.03404 -1.1272 0.61073 205 243 96
-0.07051 -1.1051 0.60443 205 243 96
-0.07051 -0.96856 0.60443 205 243 96
-0.04345 -0.96856 0.62709 205 243 96
-0.12164 -0.57931 0.66945 205 243 96
-0.05957 -0.57931 0.62148 205 243 96
-0.10448 -0.57931 0.68545 205 243 96
-0.12164 -0.57931 0.43373 205 243 96
-0.05957 -0.57931 0.4817 205 243 96
0.05957 -0.57931 0.62148 205 243 96
0.10448 -0.57931 0.68545 205 243 96
0.12164 -0.57931 0.66945 205 243 96
0.05957 -0.57931 0.4817 205 243 96
0.12164 -0.57931 0.43373 205 243 96
0.10448 -0.57931 0.41773 205 243 96
-0.10448 -0.57931 0.41773 205 243 96
-0.11691 -0.60333 0.70779 205 243 96
0.11691 -0.60333 0.70779 205 243 96
0.04345 -1.1051 0.62709 212 251 92
-0.04345 -1.1051 0.62709 212 251 92
-0.04345 -0.96856 0.62709 212 251 92
0.04345 -0.96856 0.62709 212 251 92
-0.07051 -0.96856 0.60443 212 251 92
-0.07051 -1.1051 0.60443 212 251 92
0.07051 -0.96856 0.60443 212 251 92
0.07051 -1.1051 0.60443 212 251 92
0.03404 -1.1272 0.61073 212 251 92
0.05523 -1.1272 0.59298 212 251 92
-0.03404 -1.1272 0.61073 212 251 92
-0.05523 -1.1272 0.59298 212 251 92
3 0 2 1
3 0 3 2
3 4 0 1
3 4 1 5
3 5 6 4
3 5 7 6
3 2 3 8
3 2 8 9
3 6 7 10
3 6 10 11
3 9 8 12
3 9 12 13
3 12 14 13
3 11 10 14
3 12 15 14
3 11 14 15
3 10 7 16
3 10 16 17
3 14 10 17
3 7 18 16
3 7 5 18
3 5 19 18
3 5 1 19
3 1 20 19
3 1 2 20
3 2 21 20
3 2 9 21
3 9 22 21
3 9 13 22
3 13 23 22
3 13 14 23
3 14 17 23
3 24 26 25
3 24 27 26
3 28 27 24
3 28 29 27
3 30 29 28
3 30 31 29
3 32 3 33
3 3 34 33
3 3 0 34
3 0 35 34
3 0 4 35
3 4 36 35
3 4 6 36
3 6 37 36
3 6 11 37
3 11 38 37
3 11 15 38
3 15 39 38
3 15 12 39
3 12 40 39
3 12 8 40
3 8 41 40
3 8 32 41
3 8 3 32
3 42 44 43
3 42 45 44
3 45 46 44
3 45 47 46
3 47 48 46
3 47 49 48
3 49 50 48
3 49 51 50
3 51 52 50
3 51 53 52
3 53 54 52
3 53 55 54
3 55 56 54
3 55 57 56
3 57 43 56
3 57 42 43
3 58 60 59
3 58 61 60
3 61 62 60
3 61 63 62
3 63 64 62
3 63 65 64
3 65 66 64
3 65 67 66
3 67 68 66
3 67 69 68
3 69 70 68
3 69 71 70
3 71 72 70
3 71 73 72
3 73 59 72
3 73 58 59
3 74 76 75
3 74 77 76
3 78 74 75
3 78 79 74
3 78 80 79
3 78 81 80
3 82 80 81
3 82 83 80
3 84 83 82
3 84 85 83
3 86 85 84
3 86 84 87
3 86 87 88
3 86 88 89
3 89 77 90
3 89 90 91
3 86 89 91
3 77 92 90
3 91 90 92
3 77 74 92
3 74 93 92
3 94 92 93
3 86 91 94
3 91 92 94
3 94 93 95
3 74 79 93
3 79 96 93
3 95 93 96
3 79 80 96
3 80 97 96
3 95 96 97
3 80 83 97
3 83 95 97
3 83 85 95
3 85 94 95
3 85 86 94
3 89 88 98
3 98 88 99
3 89 98 100
3 89 100 77
3 100 76 77
3 100 101 76
3 102 104 103
3 102 105 104
3 106 108 107
3 106 109 108
3 108 110 107
3 108 111 110
3 112 111 108
3 112 108 113
3 113 108 109
3 112 113 114
3 112 114 115
3 113 109 116
3 113 117 114
3 113 116 117
3 118 120 119
3 118 121 120
3 122 124 123
3 122 125 124
3 124 125 126
3 124 126 127
3 128 124 127
3 128 129 124
3 129 123 124
3 128 130 129
3 128 131 130
3 129 132 123
3 129 133 132
3 129 130 133
3 134 136 135
3 134 137 136
3 138 140 139
3 138 141 140
3 139 140 142
3 139 142 143
3 143 138 139
3 144 140 141
3 144 142 140
3 143 145 138
3 141 145 144
3 141 138 145
3 146 148 147
3 146 149 148
3 150 152 151
3 150 153 152
3 153 154 152
3 153 155 154
3 155 153 150
3 156 152 154
3 156 151 152
3 155 150 157
3 151 157 150
3 151 156 157
3 158 160 159
3 158 161 160
3 162 164 163
3 162 165 164
3 163 164 166
3 165 166 164
3 163 166 167
3 165 168 166
3 169 163 167
3 169 162 163
3 169 165 162
3 169 168 165
3 170 172 171
3 170 173 172
3 171 172 174
3 173 174 172
3 171 174 175
3 173 176 174
3 177 171 175
3 177 170 171
3 177 173 170
3 177 176 173
3 178 180 179
3 178 181 180
3 179 180 182
3 181 182 180
3 179 182 183
3 181 184 182
3 185 179 183
3 185 178 179
3 185 181 178
3 185 184 181
3 186 188 187
3 186 189 188
3 187 188 190
3 189 190 188
3 187 190 191
3 189 192 190
3 193 187 191
3 193 186 187
3 193 189 186
3 193 192 189
3 194 196 195
3 194 197 196
3 195 196 198
3 197 198 196
3 195 198 199
3 197 200 198
3 201 195 199
3 201 194 195
3 201 197 194
3 201 200 197
3 202 204 203
3 202 205 204
3 203 204 206
3 205 206 204
3 203 206 207
3 205 208 206
3 209 203 207
3 209 202 203
3 209 205 202
3 209 208 205
3 210 212 211
3 210 213 212
3 211 212 214
3 213 214 212
3 211 214 215
3 213 216 214
3 217 211 215
3 217 210 211
3 217 213 210
3 217 216 213
3 218 220 219
3 218 221 220
3 219 220 222
3 221 222 220
3 219 222 223
3 221 224 222
3 225 219 223
3 225 218 219
3 225 221 218
3 225 224 221
3 226 228 227
3 226 229 228
3 227 228 230
3 229 230 228
3 227 230 231
3 229 232 230
3 233 227 231
3 233 226 227
3 233 229 226
3 233 232 229
3 234 236 235
3 234 237 236
3 235 236 238
3 237 238 236
3 235 238 239
3 237 240 238
3 241 235 239
3 241 234 235
3 241 237 234
3 241 240 237
3 242 244 243
3 242 245 244
3 243 244 246
3 245 246 244
3 243 246 247
3 245 248 246
3 249 243 247
3 249 242 243
3 249 245 242
3 249 248 245
3 250 252 251
3 250 253 252
3 251 252 254
3 253 254 252
3 251 254 255
3 256 253 250
3 256 251 255
3 256 250 251
3 256 257 253
3 253 257 254
3 258 260 259
3 258 261 260
3 260 262 259
3 260 263 262
3 264 266 265
3 264 267 266
3 268 265 266
3 268 269 265
3 270 269 268
3 271 270 268
3 271 268 272
3 273 271 272
3 274 273 272
3 274 272 275
3 276 274 275
3 276 277 274
3 278 280 279
3 278 281 280
3 281 259 280
3 281 258 259
3 280 282 279
3 280 283 282
3 259 283 280
3 259 262 283
3 262 284 283
3 262 285 284
3 263 285 262
3 263 286 285
3 285 287 284
3 285 286 287
3 283 284 287
3 283 287 282
3 288 290 289
3 288 291 290
3 292 289 290
3 292 293 289
3 294 296 295
3 294 297 296
3 296 297 298
3 296 298 299
3 300 302 301
3 300 303 302
3 304 302 303
3 304 303 305
3 306 304 305
3 307 304 306
3 307 308 304
3 309 308 307
3 310 308 309
3 310 311 308
3 312 311 310
3 312 310 313
3 314 316 315
3 314 317 316
3 315 316 297
3 315 297 294
3 316 317 318
3 316 318 319
3 297 316 319
3 297 319 298
3 298 319 320
3 298 320 321
3 299 298 321
3 299 321 322
3 321 323 322
3 321 320 323
3 319 323 320
3 319 318 323
3 324 326 325
3 324 327 326
3 328 326 327
3 328 327 329
3 330 332 331
3 330 333 332
3 330 331 334
3 330 334 335
3 334 336 335
3 334 337 336
3 338 336 337
3 338 337 339
3 332 333 340
3 332 340 341
3 341 340 342
3 341 342 343
3 343 342 344
3 340 344 342
3 343 344 345
3 340 346 344
3 346 345 344
3 346 347 345
3 340 348 346
3 348 340 349
3 349 350 348
3 349 351 350
3 352 350 351
3 352 353 350
3 354 351 349
3 354 352 351
3 348 350 353
3 348 353 355
3 346 356 347
3 346 357 356
3 346 348 357
3 358 349 359
3 358 354 349
3 338 358 359
3 338 339 358
3 330 338 359
3 335 338 330
3 335 336 338
3 330 359 333
3 357 348 355
3 360 362 361
3 362 360 363
3 361 362 364
3 361 364 365
3 366 365 364
3 364 367 366
3 364 368 367
3 369 367 368
3 369 370 367
3 369 371 370
3 369 372 371
3 362 363 373
3 374 373 363
3 374 363 375
3 374 375 376
3 374 376 377
3 378 380 379
3 378 381 380
3 349 340 333
3 349 333 359
3 382 384 383
3 382 385 384
3 386 383 387
3 387 388 386
3 387 389 388
3 384 388 389
3 385 388 384
3 385 390 388
3 385 391 390
3 392 391 385
3 392 385 382
3 393 391 392
3 393 390 391
3 392 382 393
3 393 383 386
3 393 382 383
3 390 393 394
3 390 394 395
3 395 394 396
3 395 396 397
3 397 396 398
3 397 398 399
3 400 397 399
3 400 395 397
3 388 395 401
3 400 401 395
3 400 399 402
3 403 400 402
3 403 396 394
3 403 394 404
3 393 404 394
3 393 386 404
3 403 402 405
3 396 405 398
3 396 403 405
3 406 402 399
3 406 399 407
3 408 398 405
3 408 402 406
3 408 405 402
3 408 406 409
3 408 409 410
3 411 408 410
3 411 410 412
3 406 413 409
3 406 407 413
3 408 411 398
3 414 416 415
3 414 417 416
3 418 420 419
3 418 421 420
3 422 419 420
3 422 420 423
3 388 390 395
3 424 426 425
3 424 427 426
3 428 427 424
3 428 429 427
3 430 432 431
3 430 433 432
3 434 433 430
3 434 430 435
3 436 434 435
3 436 435 437
3 438 440 439
3 438 441 440
3 439 443 442
3 439 440 443
3 442 444 439
3 442 445 444
3 445 446 444
3 445 447 446
3 448 446 447
3 448 447 449
3 440 450 443
3 440 451 450
3 441 451 440
3 441 452 451
3 452 453 451
3 452 454 453
3 453 454 455
3 453 455 456
3 455 448 456
3 456 448 449
3 455 457 448
3 456 449 458
3 458 453 456
3 458 459 453
3 459 451 453
3 459 450 451
3 449 447 460
3 449 460 461
3 458 449 461
3 458 461 462
3 463 458 462
3 463 459 458
3 464 463 462
3 464 462 465
3 462 466 465
3 462 461 466
3 463 464 467
3 463 467 468
3 468 459 463
3 469 468 467
3 469 467 470
3 465 466 471
3 465 471 472
3 464 465 472
3 470 467 473
3 470 473 474
3 472 474 473
3 467 475 473
3 467 464 475
3 464 472 475
3 472 473 475
3 472 476 474
3 472 471 476
3 476 471 477
3 476 477 478
3 479 474 476
3 479 470 474
3 480 470 479
3 480 469 470
3 443 468 469
3 443 450 468
3 442 469 480
3 442 443 469
3 481 442 480
3 481 445 442
3 460 445 481
3 460 447 445
3 468 450 459
3 482 484 483
3 483 485 482
3 483 486 485
3 487 483 484
3 487 484 488
3 487 488 489
3 490 487 489
3 490 489 491
3 491 492 490
3 486 490 492
3 486 492 493
3 486 493 485
3 493 492 454
3 454 492 491
3 493 454 452
3 485 493 452
3 485 452 441
3 482 485 441
3 482 441 438
3 494 482 438
3 494 484 482
3 488 484 494
3 488 494 495
3 489 488 495
3 489 495 457
3 491 489 457
3 491 457 455
3 454 491 455
3 496 498 497
3 496 499 498
3 497 498 500
3 497 500 501
3 502 499 496
3 502 496 503
3 503 496 504
3 503 504 505
3 496 506 504
3 496 497 506
3 497 507 506
3 497 501 507
