mtllib Nosepass.mtl
v -0.106575 -1.490116E-08 0
vt 0.360639 0.0357237
vn -0.113144 -0.821737 0.558522
v 0 0.0608272 0.111083
vt 0.564613 0.161666
v -0.168503 0.0608272 0.0769482
vt 0.242116 0.161666
v 0.106575 -1.490116E-08 0
vt 0.768586 0.0357237
vn 0.113144 -0.821737 0.558522
v 0.168503 0.0608272 0.0769482
vt 0.887109 0.161666
v -0.168503 0.0608272 -0.0769482
vn -0.113144 -0.821737 -0.558522
v 0 0.0608272 -0.111083
vn 0.300678 -0.9280708 -0.219721
v 0.168503 0.0608272 -0.0769482
vn 0.113144 -0.821737 -0.558522
vn 0.4956922 -0.8684983 0
vn -0.4956922 -0.8684983 0
vn 0.7007399 -0.7134169 0
vn -0.7007399 -0.7134169 0
v -0.210795 0.0608272 0.0882629
vt 0.0337877 0.0207659
vn -0.842276 -0.538794 -0.0164971
v -0.275302 0.160138 0.115971
vt 0.0241163 0.034246
v -0.207577 0.0608272 -0.098331
vt 0.0342702 0.0207659
v -0.270044 0.160138 -0.130195
vt 0.0249046 0.034246
vn -0.6607503 -0.5557612 0.5045182
v -0.123961 0.0608272 0.20478
vt 0.0468066 0.0207659
v -0.158129 0.160138 0.266636
vt 0.0416839 0.034246
vn 0 -0.5286881 0.8488162
v 0.123961 0.0608272 0.20478
vt 0.0839768 0.0207659
v 0.158129 0.160138 0.266636
vt 0.0890996 0.034246
v 0.210795 0.0608272 0.0882629
vt 0.0969958 0.0207659
vn 0.6607496 -0.5557616 0.5045187
v 0.275302 0.160138 0.115971
vt 0.106667 0.034246
vn 0.842276 -0.538794 -0.016497
v 0.207577 0.0608272 -0.098331
vt 0.0965132 0.0207659
v 0.270044 0.160138 -0.130195
vt 0.105879 0.034246
v 0 0.0608272 -0.229555
vt 0.0653917 0.0207659
vn 0.454311 -0.492996 -0.741995
v 0 0.160138 -0.291411
vt 0.0653917 0.034246
vn -0.454311 -0.492996 -0.741995
vn -0.7610201 0.332439 0.5570751
v -0.132048 0.349321 0.198774
vt 0.0455941 0.0599249
v -0.205888 0.374546 0.0734418
vt 0.0345234 0.0633488
vn 0 0.3376431 0.9412742
v 0.132048 0.349321 0.198774
vt 0.0851893 0.0599249
vn 0.7610201 0.332439 0.5570751
v 0.205888 0.374546 0.0734419
vt 0.0962601 0.0633488
v -0.119383 0.483695 0.196916
vt 0.047493 0.0781643
vn -0.8732762 0.4273121 0.2340791
v -0.0911761 0.635736 0.024594
vt 0.0517219 0.0988017
vn -0.8872079 0.424063 0.181749
vn -0.8830403 0.4250332 0.1989641
v -0.147526 0.570187 -0.135969
vt 0.0432735 0.0899044
vn -0.9141091 0.39377 0.09669461
v -0.200178 0.420977 -0.0260854
vt 0.0353796 0.0696512
vn -0.9208691 0.381867 0.07859921
v -0.208785 0.365163 -0.133082
vt 0.034089 0.0620752
vn -0.9559639 0.284624 -0.07156929
vn -0.9903841 0.138135 0.007615611
vn -0.9607706 0.2773429 0.0008755237
vn -0.9574943 0.2882481 -0.0108532
vt 0.248804 1.02172
vt 1.0469 0.978543
vt 1.03574 0.0350947
vt 0.0844547 0.0350947
vn -0.9523626 0.3042889 -0.02034099
vt 0.0260019 0.794545
vn -0.5317521 -0.06708141 0.8442392
vt 0.104489 0.794545
vn 0.5317521 -0.06708141 0.8442392
v 0 0.444189 0.23759
vt 0.0652455 0.834153
vn 0 -0.2232699 0.9747567
v 0.119383 0.483695 0.196916
vt 0.0832905 0.0781643
vn -0.02147869 0.7479347 0.6634248
v 0.0911761 0.635736 0.024594
vt 0.0790615 0.0988017
vn -0.003421748 0.7442757 0.6678637
vt 0.0653917 0.0728019
vn 0.02147871 0.7479352 0.6634242
vn 0.8732762 0.4273121 0.2340791
vn 0.8830405 0.4250327 0.1989639
vn 0.8872079 0.424063 0.181749
v 0.200178 0.420977 -0.0260854
vt 0.0954039 0.0696512
vn 0.920869 0.381867 0.0785994
v 0.147526 0.570187 -0.135969
vt 0.0875099 0.0899044
vn 0.9141091 0.39377 0.09669451
v 0.208785 0.365163 -0.133082
vt 0.0966944 0.0620752
vn 0.955964 0.284624 -0.071569
vn 0.9607706 0.2773429 0.0008757386
vn 0.990384 0.138136 0.00761581
vn 0.957494 0.288249 -0.010853
vn 0.9523626 0.3042889 -0.02034079
vn 0.508282 0.129503 -0.8513979
v 0 0.529676 -0.235202
vt 0.0653917 0.0844055
vn 0.5245348 0.144913 -0.8389657
vn -0.5245348 0.144913 -0.8389657
vn -0.5138922 0.134796 -0.8471982
vn 0 -1 0
v 0 0.0608272 -0.00107413
vn 0 0.9258208 -0.3779629
v 0 0.30412 0.384171
vt 0.0648583 0.681503
vn 0.7794026 0.4094428 0.4742238
v 0.00793413 0.269064 0.384255
vt 0.0673818 0.670342
vn 0.7812237 0.1782379 0.5982648
v 0.124785 0.1978 0.2529
vt 0.104547 0.647654
vn 0.78912 0.349971 0.504787
v 0.0545981 0.3085 0.28366
vt 0.0822234 0.682898
vn 0.772197 0.446161 0.452385
v 0.111811 0.275805 0.224757
vt 0.10042 0.672488
v 0 0.431174 0.231721
vt 0.0648583 0.721954
vn 0.7342573 0.5143743 0.4430412
v 0.0551523 0.375614 0.208836
vt 0.0823997 0.704265
vn 0.7157502 0.5172262 0.4692321
v -0.0551864 0.375614 0.208836
vt 0.0473061 0.704265
vn -0.970984 -0.181768 -0.155404
v -0.0209132 0.235748 0.158287
vt 0.0635705 0.658783
v -0.0545981 0.3085 0.28366
vt 0.0474932 0.682898
vn 0.0176334 0.8668391 -0.4982761
vt 0.0623858 0.657619
v -0.111811 0.275805 0.224757
vt 0.0292965 0.672488
vn 0 0.00238309 0.9999971
v -0.00793413 0.269064 0.384255
vt 0.0623348 0.670342
v 0 0.232369 0.316343
vt 0.0648583 0.655103
vn 0 -0.8795227 0.4758569
v -0.124785 0.1978 0.2529
vt 0.02517 0.647654
v 0.0497765 0.1978 0.2529
vt 0.0825006 0.647654
v -0.0497765 0.1978 0.2529
vt 0.047216 0.647654
vt 0.104523 0.921658
vn -0.522145 -0.8511389 0.0541034
vt 0.0632331 0.899644
v 0 0.22253 0.161554
vt 0.0655987 0.970392
vn 0.9710097 -0.1814769 -0.1555839
v 0.0209128 0.235748 0.158287
vt 0.0661456 0.658783
vn -0.7721771 0.4461681 0.4524121
vn -0.78912 0.349971 0.504787
vn -0.7794026 0.4094428 0.4742238
vn -0.7812234 0.1782381 0.5982653
vn -0.7341608 0.5143908 0.4431818
vn -0.7154909 0.5172619 0.469588
vt 0.0608676 0.970392
vn 0.522145 -0.8511389 0.0541034
vt 0.0219433 0.921658
vt 0.0673308 0.657619
vn -0.01763329 0.8668387 -0.4982768
v 0.282482 0.223761 -0.0507864
vt 0.100303 0.165465
vn 0.6048698 0.4235658 -0.6743327
v 0.282482 0.33864 0.0213719
vt 0.0867236 0.205285
vn 0.6236751 0.6254161 -0.4689181
v 0.326606 0.311561 0.0439415
vt 0.0779796 0.198723
v 0.282482 0.396839 0.181148
vt 0.0426562 0.234252
vn 0.6008729 0.7510698 -0.27358
vn 0.9640351 0.169683 0.204558
v 0.335631 0.24009 0.0606945
vt 0.0678229 0.178348
v 0.282482 0.33031 0.236591
vt 0.0211757 0.21813
v 0.326606 0.210727 0.127974
vt 0.0454221 0.174288
vn 0.600873 -0.404503 0.689441
v 0.282482 0.183645 0.150541
vt 0.036679 0.167725
vn 0.623675 -0.5739881 0.530629
v 0.282482 0.13338 0.0245349
vt 0.0711207 0.143563
vn 0.60487 -0.739646 0.295053
vn -1 0 0
v 0.282482 0.15871 -0.0369569
vt 0.0914866 0.146819
vt 1.0455 0.6197
vt 0.420749 1.31582
vt 0.79685 1.31506
vt 0.169284 0.621473
vn 0.9044209 -0.059187 -0.422516
vn 0.901869 0.0126636 -0.431824
vn 0.9032662 -0.0116994 -0.4289211
vn 0.9018692 -0.4270311 -0.06539492
vn 0.9044207 -0.4049229 -0.13439
vn 0.9032661 -0.419784 -0.08883551
vn 0.9040857 -0.3951389 -0.1627709
vn 0.9040859 -0.0888659 -0.418009
v -0.282482 0.223761 -0.0507864
vn -0.60487 0.423565 -0.674333
v -0.326606 0.311561 0.0439415
vn -0.6233544 0.6322905 -0.4600413
v -0.282482 0.33864 0.0213719
v -0.282483 0.396839 0.181148
vn -0.6008729 0.7510698 -0.27358
vn -0.9640351 0.169683 0.204558
v -0.335631 0.24009 0.0606945
v -0.282483 0.33031 0.236591
v -0.326606 0.210727 0.127974
vn -0.600873 -0.404503 0.689441
vn -0.6233543 -0.5664952 0.5389922
v -0.282482 0.183645 0.150541
v -0.282482 0.13338 0.0245349
vn -0.6048704 -0.7396455 0.2950532
vn 1 0 0
v -0.282482 0.15871 -0.0369569
vn -0.9044209 -0.05918759 -0.4225159
vn -0.9032662 -0.0116993 -0.4289211
vn -0.901869 0.0126641 -0.431824
vn -0.9018688 -0.4270319 -0.06539448
vn -0.9032657 -0.4197848 -0.08883517
vn -0.9044207 -0.4049229 -0.13439
vn -0.9040857 -0.3951389 -0.1627709
vn -0.9040858 -0.08886699 -0.418009
o merged_0_0_node
g polygon_0
usemtl mat_body_mat_id
f 1/1/1 2/2/1 3/3/1
f 4/4/2 5/5/2 2/2/2
f 6/3/3 7/2/4 1/1/4
f 8/5/5 4/4/5 7/2/5
f 1/1/4 7/2/4 2/2/6
f 7/2/7 4/4/7 2/2/7
f 4/4/8 8/5/8 5/5/8
f 1/1/9 3/3/9 6/3/9
f 9/6/10 10/7/10 11/8/10
f 11/8/10 10/7/10 12/9/10
f 9/6/11 13/10/11 10/7/11
f 10/7/11 13/10/11 14/11/11
f 13/10/12 15/12/12 14/11/12
f 14/11/12 15/12/12 16/13/12
f 17/14/13 18/15/13 15/12/13
f 15/12/13 18/15/13 16/13/13
f 17/14/14 19/16/14 18/15/14
f 18/15/14 19/16/14 20/17/14
f 21/18/15 22/19/15 19/16/15
f 19/16/15 22/19/15 20/17/15
f 21/18/16 11/8/16 22/19/16
f 22/19/16 11/8/16 12/9/16
f 14/11/17 23/20/17 10/7/17
f 10/7/17 23/20/17 24/21/17
f 14/11/18 16/13/18 23/20/18
f 23/20/18 16/13/18 25/22/18
f 16/13/19 18/15/19 25/22/19
f 25/22/19 18/15/19 26/23/19
f 27/24/20 28/25/21 24/21/22
f 29/26/23 30/27/24 28/25/21
f 28/25/21 30/27/24 24/21/22
f 29/26/23 31/28/25 30/27/24
f 30/27/26 31/28/27 24/21/28
f 24/29/28 31/30/27 12/31/28
f 24/29/28 12/31/28 10/32/29
f 23/33/30 25/34/31 32/35/32
f 33/36/33 34/37/34 32/38/34
f 27/24/35 32/38/34 28/25/34
f 32/38/34 34/37/34 28/25/34
f 33/36/36 26/23/37 34/37/38
f 26/23/37 35/39/39 34/37/38
f 34/37/38 35/39/39 36/40/40
f 36/40/40 35/39/39 37/41/41
f 37/41/42 35/39/43 26/23/44
f 37/30/42 26/29/44 20/31/44
f 26/29/44 18/32/45 20/31/44
f 22/19/46 38/42/46 20/17/46
f 20/17/46 38/42/46 37/41/47
f 37/41/47 38/42/46 36/40/47
f 29/26/48 38/42/49 31/28/48
f 31/28/48 38/42/49 12/9/49
f 12/9/49 38/42/49 22/19/49
f 9/6/50 11/8/50 39/18/50
f 13/10/50 9/6/50 39/18/50
f 15/12/50 13/10/50 39/18/50
f 17/14/50 15/12/50 39/18/50
f 19/16/50 17/14/50 39/18/50
f 21/18/50 19/16/50 39/18/50
f 11/8/50 21/18/50 39/18/50
f 29/26/51 28/25/51 38/42/51
f 28/25/51 34/37/51 38/42/51
f 34/37/51 36/40/51 38/42/51
f 40/43/52 41/44/53 42/45/54
f 40/43/52 42/45/54 43/46/55
f 42/45/54 44/47/19 43/46/55
f 40/43/52 43/46/55 45/48/56
f 43/46/55 46/49/57 45/48/56
f 47/50/58 48/51/58 49/52/58
f 49/52/59 48/53/59 50/54/59
f 41/44/60 40/43/60 51/55/60
f 52/56/61 51/55/61 53/57/61
f 54/58/61 42/45/61 52/56/61
f 42/45/61 41/44/61 52/56/61
f 51/55/61 52/56/61 41/44/61
f 53/57/61 55/59/61 52/56/61
f 54/60/62 52/61/62 56/62/62
f 46/49/63 43/46/63 57/63/63
f 49/52/64 50/54/17 53/57/65
f 53/57/65 40/43/66 49/52/64
f 51/55/67 40/43/66 53/57/65
f 45/48/68 49/52/64 40/43/66
f 45/48/68 47/50/69 49/52/64
f 56/64/70 52/61/70 55/65/70
f 57/66/71 43/46/71 44/47/71
f 58/67/72 59/68/73 60/69/73
f 59/68/73 61/70/74 60/69/73
f 60/69/75 61/70/75 62/71/75
f 61/70/75 63/72/75 62/71/75
f 62/71/75 63/72/75 64/73/75
f 63/72/76 65/74/77 64/73/77
f 65/74/77 66/75/78 64/73/77
f 59/68/79 58/67/79 67/76/79
f 59/77/79 63/78/79 61/79/79
f 67/76/79 65/74/79 59/68/79
f 65/80/79 63/78/79 59/77/79
f 66/75/79 65/74/79 67/76/79
f 58/67/80 60/69/81 62/71/82
f 64/73/83 66/75/84 62/71/85
f 66/75/84 67/76/86 62/71/85
f 67/76/87 58/67/80 62/71/82
f 68/67/88 69/69/89 70/68/89
f 70/68/89 69/69/89 71/70/90
f 69/69/91 72/71/91 71/70/91
f 71/70/91 72/71/91 73/72/91
f 72/71/91 74/73/91 73/72/91
f 73/72/92 74/73/93 75/74/93
f 75/74/93 74/73/93 76/75/94
f 70/68/95 77/76/95 68/67/95
f 70/77/95 71/79/95 73/78/95
f 77/76/95 70/68/95 75/74/95
f 75/80/95 70/77/95 73/78/95
f 76/75/95 77/76/95 75/74/95
f 68/67/96 72/71/97 69/69/98
f 74/73/99 72/71/100 76/75/101
f 76/75/101 72/71/100 77/76/102
f 77/76/103 72/71/97 68/67/96
vt 0.504955 0.731692
vt 0.435744 1.01495
vn -0.5780481 0.06573041 0.8133511
vt 1.17382 0.784866
vn -0.8505071 0.08733491 0.518662
vt -0.43937 0.931672
vn 0.5780481 0.06573041 0.8133511
vn 0.8505071 0.08733491 0.518662
o merged_1_0_node
g polygon_0
usemtl TEX_ANIM_EYE_mat_id
f 23/81/30 27/82/104 24/83/105
f 27/82/104 23/81/30 32/84/32
f 33/82/106 32/84/32 25/81/31
f 25/81/31 26/83/107 33/82/106
