ply
format ascii 1.0
element vertex 270
property float x
property float y
property float z
property uchar red
property uchar green
property uchar blue
element face 342
property list uchar int vertex_index
end_header
0.17081 -0.55186 0.55229 27 31 35
0.17081 -0.55186 0.60689 27 31 35
0.22541 -0.55186 0.60689 27 31 35
0.22541 -0.55186 0.55229 27 31 35
0.22541 -0.5372 0.60689 27 31 35
0.17081 -0.5372 0.60689 27 31 35
0.17081 -0.5372 0.55229 27 31 35
0.22541 -0.5372 0.55229 27 31 35
0.47393 -0.49391 0.69062 195 152 108
-0.47393 -0.49391 0.69062 195 152 108
-0.52826 -0.42901 0.69062 195 152 108
0.52826 -0.42901 0.69062 195 152 108
-0.52826 0.42901 0.69062 195 152 108
0.52826 0.42901 0.69062 195 152 108
0.47587 -0.49602 0.1655 166 129 92
0.53051 -0.43084 0.1655 166 129 92
0.53051 0.43084 0.1655 166 129 92
0.47587 0.5 0.1655 166 129 92
0.40849 0.25 0.1655 166 129 92
0.40849 -0.49602 0.1655 166 129 92
0.40827 0.25 0.24293 166 129 92
0.40827 -0.49602 0.375 166 129 92
0.40827 0.25 0.375 166 129 92
0.375 0.25 0.40223 166 129 92
0.375 0.25 0.27721 166 129 92
-0.375 0.25 0.40223 166 129 92
-0.375 0.25 0.27721 166 129 92
-0.40827 0.25 0.24293 166 129 92
-0.40827 0.25 0.375 166 129 92
-0.40827 -0.49602 0.375 166 129 92
-0.40849 -0.49602 0.1655 166 129 92
-0.40849 0.25 0.1655 166 129 92
-0.47587 -0.49602 0.1655 166 129 92
-0.47587 0.5 0.1655 166 129 92
-0.53051 0.43084 0.1655 166 129 92
-0.53051 -0.43084 0.1655 166 129 92
0.375 -0.49602 0.40214 166 129 92
-0.375 -0.49602 0.40214 166 129 92
-0.40849 0.5 0.1655 166 129 92
-0.40827 0.5 0.24293 166 129 92
-0.375 0.5 0.27721 166 129 92
0.375 0.5 0.27721 166 129 92
0.40827 0.5 0.24293 166 129 92
0.40849 0.5 0.1655 166 129 92
0.57874 -0.47001 0.22264 188 146 104
0.57874 -0.47001 0.63314 188 146 104
0.57874 0.47001 0.63314 188 146 104
0.57874 0.47001 0.22264 188 146 104
0.51754 -0.54111 0.63314 188 146 104
0.51754 -0.54111 0.22264 188 146 104
0.52826 -0.42901 0.69062 188 146 104
0.47393 -0.49391 0.69062 188 146 104
0.52826 0.42901 0.69062 188 146 104
0.47587 -0.49602 0.1655 188 146 104
0.40849 -0.49602 0.1655 188 146 104
0.44901 -0.54111 0.22264 188 146 104
0.53051 -0.43084 0.1655 188 146 104
0.53051 0.43084 0.1655 188 146 104
0.51754 0.54111 0.22264 188 146 104
0.51754 0.54111 0.63314 188 146 104
0.47393 0.49391 0.69062 188 146 104
-0.51754 0.54111 0.63314 188 146 104
-0.47393 0.49391 0.69062 188 146 104
0.47587 0.5 0.1655 188 146 104
0.44901 0.54111 0.22264 188 146 104
0.44849 0.54111 0.30006 188 146 104
0.44849 -0.54111 0.43039 188 146 104
0.40827 -0.49602 0.375 188 146 104
0.40849 0.5 0.1655 188 146 104
0.40827 0.5 0.24293 188 146 104
0.40789 -0.54111 0.45928 188 146 104
0.375 -0.49602 0.40214 188 146 104
0.40858 0.54111 0.33434 188 146 104
-0.40789 -0.54111 0.45928 188 146 104
-0.51754 -0.54111 0.63314 188 146 104
-0.47393 -0.49391 0.69062 188 146 104
-0.375 -0.49602 0.40214 188 146 104
0.375 0.5 0.27721 188 146 104
-0.375 0.5 0.27721 188 146 104
-0.40858 0.54111 0.33434 188 146 104
-0.52826 -0.42901 0.69062 188 146 104
-0.57874 -0.47001 0.63314 188 146 104
-0.57874 -0.47001 0.22264 188 146 104
-0.57874 0.47001 0.63314 188 146 104
-0.57874 0.47001 0.22264 188 146 104
-0.51754 -0.54111 0.22264 188 146 104
-0.52826 0.42901 0.69062 188 146 104
-0.47587 -0.49602 0.1655 188 146 104
-0.40849 -0.49602 0.1655 188 146 104
-0.44901 -0.54111 0.22264 188 146 104
-0.53051 -0.43084 0.1655 188 146 104
-0.53051 0.43084 0.1655 188 146 104
-0.51754 0.54111 0.22264 188 146 104
-0.47587 0.5 0.1655 188 146 104
-0.44849 -0.54111 0.43039 188 146 104
-0.40827 -0.49602 0.375 188 146 104
-0.40849 0.5 0.1655 188 146 104
-0.44901 0.54111 0.22264 188 146 104
-0.44849 0.54111 0.30006 188 146 104
-0.40827 0.5 0.24293 188 146 104
-0.47393 0.49391 0.69062 195 152 108
0.47393 0.49391 0.69062 195 152 108
-0.17081 -0.55186 0.55229 27 31 35
-0.22541 -0.55186 0.55229 27 31 35
-0.22541 -0.55186 0.60689 27 31 35
-0.17081 -0.55186 0.60689 27 31 35
-0.22541 -0.5372 0.60689 27 31 35
-0.17081 -0.5372 0.60689 27 31 35
-0.17081 -0.5372 0.55229 27 31 35
-0.22541 -0.5372 0.55229 27 31 35
0.41038 -0.23798 0.00168 241 197 126
0.31169 -0.23798 0.07198 241 197 126
0.43071 -0.23798 0.02294 241 197 126
0.43071 -0.12441 0.02294 241 197 126
0.41038 -0.12441 0.00168 241 197 126
0.31169 -0.23798 0.17259 241 197 126
0.43071 -0.23798 0.17259 241 197 126
0.31169 -0.12441 0.17259 241 197 126
0.31169 -0.12441 0.07198 241 197 126
0.43071 -0.12441 0.17259 241 197 126
0.23115 -0.12441 0.00168 241 197 126
0.23115 -0.23798 0.00168 241 197 126
0.23115 -0.23798 0.07198 241 197 126
0.2127 -0.22551 0.07198 241 197 126
0.2127 -0.22551 0.00168 241 197 126
0.2127 -0.13688 0.07198 241 197 126
0.2127 -0.13688 0.00168 241 197 126
0.23115 -0.12441 0.07198 241 197 126
0.31169 -0.12441 0.07198 250 205 131
0.31169 -0.23798 0.07198 250 205 131
0.23115 -0.23798 0.07198 250 205 131
0.23115 -0.12441 0.07198 250 205 131
0.41038 0.12545 0.00168 241 197 126
0.31169 0.12545 0.07198 241 197 126
0.43071 0.12545 0.02294 241 197 126
0.43071 0.23902 0.02294 241 197 126
0.41038 0.23902 0.00168 241 197 126
0.31169 0.12545 0.17259 241 197 126
0.43071 0.12545 0.17259 241 197 126
0.31169 0.23902 0.17259 241 197 126
0.31169 0.23902 0.07198 241 197 126
0.43071 0.23902 0.17259 241 197 126
0.23115 0.23902 0.00168 241 197 126
0.23115 0.12545 0.00168 241 197 126
0.23115 0.12545 0.07198 241 197 126
0.2127 0.13793 0.07198 241 197 126
0.2127 0.13793 0.00168 241 197 126
0.2127 0.22655 0.07198 241 197 126
0.2127 0.22655 0.00168 241 197 126
0.23115 0.23902 0.07198 241 197 126
0.31169 0.23902 0.07198 250 205 131
0.31169 0.12545 0.07198 250 205 131
0.23115 0.12545 0.07198 250 205 131
0.23115 0.23902 0.07198 250 205 131
0.12538 -0.46884 0.22363 235 117 130
0.12538 -0.46884 0.32726 235 117 130
0.22901 -0.46884 0.32726 235 117 130
0.22901 -0.46884 0.22363 235 117 130
0.1081 -0.46884 0.34453 229 174 172
0.1081 -0.44567 0.34453 229 174 172
0.24628 -0.44567 0.34453 229 174 172
0.24628 -0.46884 0.34453 229 174 172
0.24628 -0.46884 0.20635 229 174 172
0.24628 -0.44567 0.20635 229 174 172
0.1081 -0.44567 0.20635 229 174 172
0.1081 -0.46884 0.20635 229 174 172
0.22901 -0.46884 0.22363 229 174 172
0.12538 -0.46884 0.22363 229 174 172
0.22901 -0.46884 0.32726 229 174 172
0.12538 -0.46884 0.32726 229 174 172
0.40032 0.41206 0.11601 19 33 52
-0.40032 0.41206 0.11601 19 33 52
-0.45433 0.36329 0.11601 19 33 52
0.45433 0.36329 0.11601 19 33 52
0.4315 0.4458 0.15876 19 33 52
0.49042 0.3926 0.15876 19 33 52
0.49042 0.3926 0.40643 19 33 52
0.4315 0.4458 0.40643 19 33 52
0.45433 -0.36544 0.11601 19 33 52
0.49042 -0.39475 0.15876 19 33 52
0.40032 -0.41421 0.11601 19 33 52
0.4315 -0.44796 0.15876 19 33 52
0.4315 -0.44796 0.40643 19 33 52
0.49042 -0.39475 0.40643 19 33 52
-0.4315 -0.44796 0.15876 19 33 52
-0.40032 -0.41421 0.11601 19 33 52
-0.4315 -0.44796 0.40643 19 33 52
-0.4315 0.4458 0.40643 19 33 52
-0.4315 0.4458 0.15876 19 33 52
-0.49042 -0.39475 0.15876 19 33 52
-0.49042 -0.39475 0.40643 19 33 52
-0.49042 0.3926 0.40643 19 33 52
-0.49042 0.3926 0.15876 19 33 52
-0.45433 -0.36544 0.11601 19 33 52
0.23115 -0.23798 0.07198 250 204 131
0.2127 -0.22551 0.07198 250 204 131
0.2127 -0.13688 0.07198 250 204 131
0.23115 -0.12441 0.07198 250 204 131
0.23115 0.12545 0.07198 250 204 131
0.2127 0.13793 0.07198 250 204 131
0.2127 0.22655 0.07198 250 204 131
0.23115 0.23902 0.07198 250 204 131
-0.41038 -0.23798 0.00168 241 197 126
-0.43071 -0.23798 0.02294 241 197 126
-0.31169 -0.23798 0.07198 241 197 126
-0.43071 -0.12441 0.02294 241 197 126
-0.41038 -0.12441 0.00168 241 197 126
-0.31169 -0.23798 0.17259 241 197 126
-0.43071 -0.23798 0.17259 241 197 126
-0.31169 -0.12441 0.17259 241 197 126
-0.31169 -0.12441 0.07198 241 197 126
-0.43071 -0.12441 0.17259 241 197 126
-0.23115 -0.12441 0.00168 241 197 126
-0.23115 -0.23798 0.00168 241 197 126
-0.23115 -0.23798 0.07198 241 197 126
-0.2127 -0.22551 0.07198 241 197 126
-0.2127 -0.22551 0.00168 241 197 126
-0.2127 -0.13688 0.07198 241 197 126
-0.2127 -0.13688 0.00168 241 197 126
-0.23115 -0.12441 0.07198 241 197 126
-0.31169 -0.12441 0.07198 250 205 131
-0.23115 -0.12441 0.07198 250 205 131
-0.23115 -0.23798 0.07198 250 205 131
-0.31169 -0.23798 0.07198 250 205 131
-0.41038 0.12545 0.00168 241 197 126
-0.43071 0.12545 0.02294 241 197 126
-0.31169 0.12545 0.07198 241 197 126
-0.43071 0.23902 0.02294 241 197 126
-0.41038 0.23902 0.00168 241 197 126
-0.31169 0.12545 0.17259 241 197 126
-0.43071 0.12545 0.17259 241 197 126
-0.31169 0.23902 0.17259 241 197 126
-0.31169 0.23902 0.07198 241 197 126
-0.43071 0.23902 0.17259 241 197 126
-0.23115 0.23902 0.00168 241 197 126
-0.23115 0.12545 0.00168 241 197 126
-0.23115 0.12545 0.07198 241 197 126
-0.2127 0.13793 0.07198 241 197 126
-0.2127 0.13793 0.00168 241 197 126
-0.2127 0.22655 0.07198 241 197 126
-0.2127 0.22655 0.00168 241 197 126
-0.23115 0.23902 0.07198 241 197 126
-0.31169 0.23902 0.07198 250 205 131
-0.23115 0.23902 0.07198 250 205 131
-0.23115 0.12545 0.07198 250 205 131
-0.31169 0.12545 0.07198 250 205 131
-0.12538 -0.46884 0.22363 235 117 130
-0.22901 -0.46884 0.22363 235 117 130
-0.22901 -0.46884 0.32726 235 117 130
-0.12538 -0.46884 0.32726 235 117 130
-0.1081 -0.46884 0.34453 229 174 172
-0.24628 -0.46884 0.34453 229 174 172
-0.24628 -0.44567 0.34453 229 174 172
-0.1081 -0.44567 0.34453 229 174 172
-0.24628 -0.46884 0.20635 229 174 172
-0.24628 -0.44567 0.20635 229 174 172
-0.1081 -0.44567 0.20635 229 174 172
-0.1081 -0.46884 0.20635 229 174 172
-0.22901 -0.46884 0.22363 229 174 172
-0.12538 -0.46884 0.22363 229 174 172
-0.22901 -0.46884 0.32726 229 174 172
-0.12538 -0.46884 0.32726 229 174 172
-0.23115 -0.23798 0.07198 250 204 131
-0.23115 -0.12441 0.07198 250 204 131
-0.2127 -0.13688 0.07198 250 204 131
-0.2127 -0.22551 0.07198 250 204 131
-0.23115 0.12545 0.07198 250 204 131
-0.23115 0.23902 0.07198 250 204 131
-0.2127 0.22655 0.07198 250 204 131
-0.2127 0.13793 0.07198 250 204 131
3 0 2 1
3 0 3 2
3 1 2 4
3 3 4 2
3 1 4 5
3 6 3 0
3 6 1 5
3 6 0 1
3 6 7 3
3 3 7 4
3 8 10 9
3 8 11 10
3 11 12 10
3 11 13 12
3 14 16 15
3 14 17 16
3 14 18 17
3 14 19 18
3 19 20 18
3 19 21 20
3 20 21 22
3 20 22 23
3 20 23 24
3 24 23 25
3 24 25 26
3 27 26 25
3 27 25 28
3 27 28 29
3 30 27 29
3 30 31 27
3 32 31 30
3 32 33 31
3 32 34 33
3 32 35 34
3 36 22 21
3 36 23 22
3 23 37 25
3 23 36 37
3 37 28 25
3 37 29 28
3 27 31 38
3 27 38 39
3 40 27 39
3 40 26 27
3 24 26 40
3 24 40 41
3 41 20 24
3 41 42 20
3 20 42 43
3 20 43 18
3 17 18 43
3 33 38 31
3 44 46 45
3 44 47 46
3 48 44 45
3 48 49 44
3 48 45 50
3 48 50 51
3 45 52 50
3 45 46 52
3 44 49 53
3 49 54 53
3 49 55 54
3 48 55 49
3 44 53 56
3 47 44 56
3 47 56 57
3 58 47 57
3 58 46 47
3 58 59 46
3 46 59 60
3 60 59 61
3 60 61 62
3 46 60 52
3 58 57 63
3 59 58 64
3 59 64 65
3 54 55 66
3 54 66 67
3 68 58 63
3 68 64 58
3 69 64 68
3 69 65 64
3 67 66 70
3 67 70 71
3 65 72 59
3 69 72 65
3 71 70 73
3 70 74 73
3 70 48 74
3 48 70 66
3 48 66 55
3 48 75 74
3 48 51 75
3 71 73 76
3 69 77 72
3 72 77 78
3 72 78 79
3 59 72 79
3 59 79 61
3 74 75 80
3 74 80 81
3 74 81 82
3 82 81 83
3 82 83 84
3 74 82 85
3 81 86 83
3 81 80 86
3 82 87 85
3 85 87 88
3 85 88 89
3 82 90 87
3 84 90 82
3 84 91 90
3 92 91 84
3 92 83 61
3 92 84 83
3 83 62 61
3 83 86 62
3 92 93 91
3 88 94 89
3 88 95 94
3 96 93 92
3 96 92 97
3 61 97 92
3 61 98 97
3 99 97 98
3 99 96 97
3 95 73 94
3 95 76 73
3 98 61 79
3 99 98 79
3 74 94 73
3 74 89 94
3 74 85 89
3 99 79 78
3 13 100 12
3 13 101 100
3 102 104 103
3 102 105 104
3 105 106 104
3 103 104 106
3 105 107 106
3 108 102 103
3 108 105 102
3 108 107 105
3 108 103 109
3 103 106 109
3 110 112 111
3 110 113 112
3 110 114 113
3 112 115 111
3 112 116 115
3 113 116 112
3 111 115 117
3 111 117 118
3 113 119 116
3 110 120 114
3 110 121 120
3 111 121 110
3 111 122 121
3 121 122 123
3 121 123 124
3 124 123 125
3 124 125 126
3 119 118 117
3 119 113 118
3 113 114 118
3 114 127 118
3 114 120 127
3 127 120 126
3 127 126 125
3 120 124 126
3 120 121 124
3 128 130 129
3 128 131 130
3 132 134 133
3 132 135 134
3 132 136 135
3 134 137 133
3 134 138 137
3 135 138 134
3 133 137 139
3 133 139 140
3 135 141 138
3 132 142 136
3 132 143 142
3 133 143 132
3 133 144 143
3 143 144 145
3 143 145 146
3 146 145 147
3 146 147 148
3 141 140 139
3 141 135 140
3 135 136 140
3 136 149 140
3 136 142 149
3 149 142 148
3 149 148 147
3 142 146 148
3 142 143 146
3 150 152 151
3 150 153 152
3 154 156 155
3 154 157 156
3 158 160 159
3 158 161 160
3 162 160 161
3 162 163 160
3 164 163 162
3 164 158 159
3 164 162 165
3 164 165 158
3 165 162 166
3 165 166 167
3 158 165 167
3 162 168 166
3 162 161 168
3 161 169 168
3 161 158 169
3 158 167 169
3 170 172 171
3 170 173 172
3 174 173 170
3 174 170 171
3 174 175 173
3 174 176 175
3 174 177 176
3 175 178 173
3 178 172 173
3 175 179 178
3 179 180 178
3 179 181 180
3 182 181 179
3 182 179 183
3 179 176 183
3 179 175 176
3 180 181 184
3 180 184 185
3 181 186 184
3 181 182 186
3 187 177 174
3 187 174 188
3 174 171 188
3 186 189 184
3 189 185 184
3 186 190 189
3 189 190 191
3 189 191 192
3 188 191 187
3 188 192 191
3 188 172 192
3 188 171 172
3 192 193 189
3 192 172 193
3 189 193 185
3 180 185 193
3 180 193 178
3 178 193 172
3 194 196 195
3 194 197 196
3 198 200 199
3 198 201 200
3 202 204 203
3 202 203 205
3 202 205 206
3 203 204 207
3 203 207 208
3 205 203 208
3 204 209 207
3 204 210 209
3 205 208 211
3 202 206 212
3 202 212 213
3 204 202 213
3 204 213 214
3 213 215 214
3 213 216 215
3 216 217 215
3 216 218 217
3 211 210 205
3 211 209 210
3 205 210 206
3 206 210 219
3 206 219 212
3 219 218 212
3 219 217 218
3 212 218 216
3 212 216 213
3 220 222 221
3 220 223 222
3 224 226 225
3 224 225 227
3 224 227 228
3 225 226 229
3 225 229 230
3 227 225 230
3 226 231 229
3 226 232 231
3 227 230 233
3 224 228 234
3 224 234 235
3 226 224 235
3 226 235 236
3 235 237 236
3 235 238 237
3 238 239 237
3 238 240 239
3 233 232 227
3 233 231 232
3 227 232 228
3 228 232 241
3 228 241 234
3 241 240 234
3 241 239 240
3 234 240 238
3 234 238 235
3 242 244 243
3 242 245 244
3 246 248 247
3 246 249 248
3 250 252 251
3 250 253 252
3 254 251 252
3 254 252 255
3 256 254 255
3 256 253 250
3 256 257 254
3 256 250 257
3 257 258 254
3 257 259 258
3 250 259 257
3 254 260 251
3 254 258 260
3 251 261 250
3 251 260 261
3 250 261 259
3 262 264 263
3 262 265 264
3 266 268 267
3 266 269 268
