mtllib Feraligatr.mtl
v 0 0.557333 0.0694388
vt 0.0351223 0.925014
vn 0 0.9699009 0.2435
v 0.0774609 0.44009 -0.0835372
vn 0.5463341 0.5152711 -0.6603141
v 0 0.455174 -0.0632332
vn 0 0.5842307 -0.8115876
v 0.154922 0.428863 0.039244
vn 0.7791014 0.6030603 -0.1712291
v -0.0774608 0.44009 -0.0835372
vn -0.5463338 0.5152718 -0.6603138
v 0.0774608 0.417636 0.162025
vn 0.1641699 0.5706466 0.8046184
v -0.154922 0.428863 0.039244
vn -0.7791014 0.6030603 -0.1712291
v -0.0774608 0.417636 0.162025
vn -0.16417 0.5706459 0.8046188
v 0.0981448 0.220126 -0.167963
vn 0.673786 0.374649 -0.636907
v 0.215993 0.224913 0.0162255
vn 0.9734342 0.06134961 -0.220595
v -0.215993 0.224913 0.0162255
vn -0.9734342 0.06134971 -0.220595
v -0.0981447 0.220126 -0.167963
vn -0.673786 0.374649 -0.636907
v 0 0.300478 0.169714
vn 0 0.1790591 0.9838383
v 0.112646 0.2088 0.192449
vn 0.3994729 -0.2512839 0.8816336
v 0.108612 0.08709221 -0.177181
vn 0.7797828 -0.4692079 -0.4144669
v 0.224198 0.07958201 0.00844135
vn 0.953827 -0.298721 -0.0313023
v 0 0.244887 -0.142679
v -0.108612 0.08709221 -0.177181
vn -0.7797828 -0.4692079 -0.4144669
v -0.224198 0.07958201 0.00844135
vn -0.953827 -0.298721 -0.0313026
v -0.112646 0.2088 0.192449
vn -0.3994729 -0.2512839 0.8816336
v 0 0.179435 0.222073
vn 0 -0.097137 0.995271
v 0.0672267 0.122737 -0.306521
vn 0.842334 0.251648 -0.476599
v 0.0470862 0.04028079 -0.293002
vn 0.5324791 -0.8266481 -0.181986
v 0 0.0487847 -0.182314
vn 0 -0.9997366 0.02294799
v 0 0.03341131 0.00308504
vn 0 -0.9985687 -0.05348418
v -0.0672266 0.122737 -0.306521
vn -0.842334 0.251648 -0.476599
v 0 0.07267009 -0.461442
vn 0 -0.37688 -0.9262621
v 0 0.15034 -0.320069
vn -2.54204E-06 0.8426351 -0.5384851
v 0.108612 0.0517915 0.161055
vn 0.3929559 -0.65552 0.644887
v -0.108612 0.0517915 0.161055
vn -0.3929559 -0.65552 0.644887
v -0.0470861 0.04028079 -0.293002
vn -0.5324791 -0.8266481 -0.181986
v 0.0100111 0.102727 -0.36944
vt 0.0399721 0.0617066
vn 0.9998732 0.0153535 0.004232761
v 0 0.0739001 -0.416983
vn 0 -0.801075 -0.598564
v 0 0.128943 -0.490648
vn 0 -0.4185341 -0.9082011
v 0 0.135099 -0.427858
vn 0 0.5325897 -0.8463736
v 0 0.22738 -0.437995
v 0 0.164866 -0.365572
vn -4.700758E-06 0.9992226 -0.03942309
v 0 0.221422 -0.330091
vn -5.277888E-06 0.4686128 0.8834037
v 0 0.126325 -0.311664
vn -2.43819E-06 0.190232 0.9817392
v -0.0100111 0.102727 -0.36944
vn -0.9998732 0.0153535 0.004232731
v 0.0218666 0.391712 -0.0612957
vn 0.9997994 -0.003380371 -0.01973911
v 0 0.28688 -0.122599
vn 0 -0.9360831 -0.351779
v 0 0.365978 -0.33308
vn 0 -0.8337656 -0.5521187
v 0 0.404983 -0.213612
vn 0 0.1760551 -0.9843803
v 0 0.575948 -0.32118
vn -3.00268E-06 0.658903 -0.752228
v 0 0.523663 -0.102673
vn 0 0.9519225 -0.3063391
v 0 0.634592 -0.0720729
vn 0 0.836841 0.547446
v 0 0.497151 0.0251027
vn 0 0.5773119 0.8165238
v -0.0218666 0.391712 -0.0612957
vn -0.9997994 -0.003380351 -0.01973911
v 0.0225091 0.716369 0.213066
vn 0.9988713 0.03596331 0.03102961
v 0 0.677387 0.0735062
vn 0 -0.5827311 -0.8126651
v 0 0.817583 -0.0270235
v 0 0.795227 0.0891564
vn 0 0.7195036 -0.6944886
v 0 0.989899 0.104893
vn 0 0.9194174 -0.3932832
v 0 0.821315 0.258905
v 0 0.897133 0.327854
vn 0 0.2844621 0.9586873
v 0 0.705217 0.359821
vn 0 0.164304 0.9864098
v -0.0225091 0.716369 0.213066
vn -0.9988713 0.03596331 0.03102961
v -0.123286 0.001257195 0.00294324
vt 0.0772442 0.0648861
vn -0.204577 -0.9737458 -0.09983747
vt 0.293402 0.413435
vt 0.168564 0.372094
vt 0.272335 0.42389
v 0.123286 0.001257195 0.00294324
vn 0.204577 -0.9737458 -0.09983747
vt 0.815661 0.474773
vt 0.726549 0.52474
vt 0.685566 1.03579
vt 0.815661 1.12905
vt 0.945755 1.03579
vt 0.904772 0.524741
v -0.265162 0.321437 0.232742
vt 0.45927 0.162403
vn -0.7988881 0.07004591 0.5973871
vt 0.273891 0.894873
vt 0.460723 0.997167
vt 0.752754 0.878238
v 0.265162 0.321437 0.232742
vn 0.7988881 0.07004552 0.5973871
v 0.229047 0.594075 0.309809
vt 0.0867171 0.0617711
vn 0.841284 0.502941 0.198221
v 0.216323 0.571148 0.343732
vn 0.7594187 0.3701809 0.5350228
v 0.234166 0.571925 0.276662
vn 0.935506 0.342999 -0.0847363
v 0.194764 0.621563 0.307566
vn 0.597912 0.7651759 0.238762
v -0.229047 0.594075 0.309809
vn -0.8412848 0.5029399 0.1982209
v -0.234166 0.571925 0.276662
vn -0.9355067 0.3429969 -0.08473678
v -0.216323 0.571148 0.343732
vn -0.759419 0.37018 0.535023
v -0.194765 0.621563 0.307566
vn -0.597913 0.765175 0.238762
vt 0 0.795891
vt -0.252681 0.934047
vt -0.255497 0.195358
vt 0.255497 0.195358
vt 0.252681 0.934047
vt 0.984452 0.2815
vt 0.984672 0.780385
vt 0.673235 0.280472
vt 0.6939 1.12596
vt 1.10026 0.534876
vt 0.694547 0.511444
v 0.188867 0.546162 0.433649
vn 0.9207887 0.116369 0.3722989
v 0.20025 0.506205 0.417985
v 0.205839 0.546306 0.391629
v 0.0957434 0.541559 0.533317
vn 0.621384 -0.205182 0.7561629
v 0.141549 0.547525 0.497295
v 0.116756 0.601315 0.532265
v -0.188867 0.546162 0.433649
vn -0.9207888 0.116371 0.3722979
v -0.205839 0.546306 0.391629
v -0.20025 0.506205 0.417985
v -0.0957434 0.541559 0.533317
vn -0.621384 -0.205182 0.7561629
v -0.116756 0.601315 0.532265
v -0.141549 0.547525 0.497295
o merged_0_0_node
g polygon_0
usemtl mat_body1_mat_id
f 1/1/1 2/1/2 3/1/3
f 1/1/1 4/1/4 2/1/2
f 1/1/1 3/1/3 5/1/5
f 1/1/1 6/1/6 4/1/4
f 1/1/1 5/1/5 7/1/7
f 1/1/1 8/1/8 6/1/6
f 1/1/1 7/1/7 8/1/8
f 2/1/2 9/1/9 3/1/3
f 2/1/2 4/1/4 10/1/10
f 2/1/2 10/1/10 9/1/9
f 5/1/5 11/1/11 7/1/7
f 5/1/5 3/1/3 12/1/12
f 5/1/5 12/1/12 11/1/11
f 6/1/6 8/1/8 13/1/13
f 6/1/6 13/1/13 14/1/14
f 10/1/10 15/1/15 9/1/9
f 10/1/10 16/1/16 15/1/15
f 3/1/3 17/1/3 12/1/12
f 3/1/3 9/1/9 17/1/3
f 11/1/11 12/1/12 18/1/17
f 11/1/11 18/1/17 19/1/18
f 8/1/8 20/1/19 13/1/13
f 14/1/14 13/1/13 21/1/20
f 21/1/20 13/1/13 20/1/19
f 15/1/15 22/1/21 9/1/9
f 15/1/15 23/1/22 22/1/21
f 15/1/15 24/1/23 23/1/22
f 15/1/15 25/1/24 24/1/23
f 12/1/12 26/1/25 18/1/17
f 22/1/21 23/1/22 27/1/26
f 22/1/21 27/1/26 28/1/27
f 28/1/27 27/1/26 26/1/25
f 25/1/24 18/1/17 24/1/23
f 25/1/24 29/1/28 30/1/29
f 23/1/22 31/1/30 27/1/26
f 23/1/22 24/1/23 31/1/30
f 31/1/30 18/1/17 26/1/25
f 31/1/30 26/1/25 27/1/26
f 31/1/30 24/1/23 18/1/17
f 32/2/31 33/2/32 34/2/33
f 32/2/31 34/2/33 35/2/34
f 32/2/31 35/2/34 36/2/27
f 32/2/31 36/2/27 37/2/35
f 32/2/31 37/2/35 38/2/36
f 32/2/31 38/2/36 39/2/37
f 33/2/32 40/2/38 34/2/33
f 40/2/38 35/2/34 34/2/33
f 40/2/38 36/2/27 35/2/34
f 40/2/38 37/2/35 36/2/27
f 40/2/38 39/2/37 38/2/36
f 40/2/38 38/2/36 37/2/35
f 41/2/39 42/2/40 43/2/41
f 41/2/39 43/2/41 44/2/42
f 41/2/39 44/2/42 45/2/43
f 41/2/39 45/2/43 46/2/44
f 41/2/39 46/2/44 47/2/45
f 41/2/39 47/2/45 48/2/46
f 42/2/40 49/2/47 43/2/41
f 49/2/47 44/2/42 43/2/41
f 49/2/47 45/2/43 44/2/42
f 49/2/47 46/2/44 45/2/43
f 49/2/47 48/2/46 47/2/45
f 49/2/47 47/2/45 46/2/44
f 50/2/48 51/2/49 52/2/26
f 50/2/48 52/2/26 53/2/50
f 50/2/48 53/2/50 54/2/51
f 50/2/48 54/2/51 55/2/1
f 50/2/48 55/2/1 56/2/52
f 50/2/48 56/2/52 57/2/53
f 51/2/49 58/2/54 52/2/26
f 58/2/54 53/2/50 52/2/26
f 58/2/54 54/2/51 53/2/50
f 58/2/54 55/2/1 54/2/51
f 58/2/54 57/2/53 56/2/52
f 58/2/54 56/2/52 55/2/1
f 59/3/55 18/4/17 25/5/24
f 59/3/55 19/5/18 18/4/17
f 59/3/55 25/5/24 30/6/29
f 59/3/55 30/6/29 19/5/18
f 25/5/24 60/3/56 29/6/28
f 25/5/24 15/4/15 60/3/56
f 29/6/28 60/3/56 16/5/16
f 16/5/16 60/3/56 15/4/15
f 28/7/27 26/8/25 12/9/12
f 28/7/27 12/9/12 17/10/3
f 28/7/27 17/10/3 9/11/9
f 28/7/27 9/11/9 22/12/21
f 61/13/57 8/14/8 7/15/7
f 61/13/57 20/14/19 8/14/8
f 61/13/57 7/15/7 11/16/11
f 61/13/57 11/14/11 20/14/19
f 62/13/58 4/15/4 6/14/6
f 62/13/58 10/16/10 4/15/4
f 62/13/58 6/14/6 14/14/14
f 62/13/58 14/14/14 10/14/10
f 63/17/59 64/17/60 65/17/61
f 63/17/59 66/17/62 64/17/60
f 63/17/59 65/17/61 66/17/62
f 67/17/63 68/17/64 69/17/65
f 67/17/63 70/17/66 68/17/64
f 67/17/63 69/17/65 70/17/66
f 21/18/20 20/19/19 30/20/29
f 21/18/20 30/20/29 29/21/28
f 21/18/20 29/21/28 14/22/14
f 11/23/11 19/24/18 20/25/19
f 20/26/19 19/27/18 30/28/29
f 29/28/28 16/27/16 14/26/14
f 14/25/14 16/24/16 10/23/10
f 71/17/67 72/17/67 73/17/67
f 74/17/68 75/17/68 76/17/68
f 77/17/69 78/17/69 79/17/69
f 80/17/70 81/17/70 82/17/70
v 0 0.412688 0.483874
vt 0.0276833 0.11122
vn 0 -0.825727 0.56407
v 0.129232 0.382343 0.355227
vn 0.2983939 -0.9203888 0.2526769
v 0.140195 0.44869 0.465792
vn 0.524051 -0.5905759 0.6136699
v 0 0.369498 0.339322
vn 0 -0.9982651 0.05887941
v 0.0725946 0.496294 0.536539
vn 0.347306 -0.397689 0.8492479
v -0.129232 0.382343 0.355227
vn -0.2984031 -0.9203854 0.2526781
v -0.0725946 0.496294 0.536539
vn -0.347324 -0.397684 0.8492429
v -0.140195 0.44869 0.465792
vn -0.5241359 -0.5905369 0.6136349
v 0.22125 0.454649 0.364715
vn 0.8392029 -0.399989 0.368439
v -0.221215 0.454635 0.364692
vn -0.8391932 -0.4000141 0.3684341
v 0.147602 0.740729 0.11797
vt 0.925457 0.637788
vn 0.4494901 0.7432472 -0.4955221
v 0.229676 0.59904 0.151474
vn 0.9041828 0.175151 -0.3895839
v 0.135611 0.625465 0.0225907
vn 0.362106 0.170112 -0.916483
v 0.209201 0.720686 0.208565
vn 0.8929813 0.4472612 -0.05041652
v 0 0.743227 0.0721691
vn 0 0.6882359 -0.7254869
v 0.157271 0.787762 0.314431
vn 0.4536818 0.8298106 0.3249419
v 0 0.798171 0.208261
vn 0 0.9905593 -0.1370851
v 0.190407 0.483771 0.0790351
vn 0.5600129 -0.4268579 -0.7100548
v 0.218082 0.625511 0.224858
vn 0.9574609 0.228822 0.17581
v -0.147602 0.740729 0.11797
vn -0.4592212 0.7442533 -0.4849772
v -0.135611 0.625465 0.0225907
vn -0.362106 0.170112 -0.916483
v 0 0.756657 0.321084
vn 0 0.8180604 0.5751323
v 0.122854 0.67409 0.416211
vn 0.3594981 0.6959753 0.6215943
v 0 0.495799 0.0262799
vn 0 -0.3121509 -0.9500325
v 0 0.390089 0.0962735
vn 0 -0.8855459 -0.4645519
v -0.157271 0.787762 0.314431
vn -0.476687 0.821809 0.312089
v -0.229676 0.59904 0.151474
vn -0.9069757 0.1869739 -0.3774069
v -0.192947 0.720686 0.208565
vn -0.9110763 0.4118291 -0.01834921
v 0 0.664452 0.404661
v 0 0.647514 0.479283
vn 0 0.9675024 0.2528619
v 0.0872162 0.625145 0.550636
vn 0.4979521 0.4761331 0.7248041
v 0.171906 0.559379 0.468233
vn 0.8162646 0.1152169 0.5660717
v 0.177902 0.617466 0.377391
vn 0.8490467 0.3739349 0.3732189
v -0.190407 0.483771 0.0790351
vn -0.5600129 -0.4268579 -0.7100548
v -0.218063 0.625556 0.224845
vn -0.9235351 0.334938 0.186814
v -0.122854 0.67409 0.416211
vn -0.372625 0.6962699 0.6134809
v -0.0872162 0.625145 0.550636
vn -0.4979828 0.4761228 0.7247897
v -0.171898 0.559375 0.468228
vn -0.8192637 0.122721 0.5601308
v -0.169775 0.617466 0.377391
vn -0.8546867 0.3941599 0.3378589
v -0.182924 0.380901 0.215124
vt 0.94347 0.0165851
vn -0.3647989 -0.9070867 -0.2100369
vt 0.609334 0.0283054
vt 0.590055 0.0506328
vt 1.24904 0.0257143
vt 0.54256 0.130612
vt 1.29441 0.283983
v -0.262372 0.47546 0.234561
vt 0.885064 0.240235
vn -0.96019 -0.261441 -0.0984059
v 0.182924 0.380901 0.215124
vn 0.3648032 -0.9070854 -0.2100351
v -0.235615 0.563049 0.308278
vt 0.691041 0.701302
vn -0.9251856 0.2839239 0.2518309
vt 0.270056 0.681965
vt 0.276465 0.0993159
vt 1.10375 0.890757
vt 0.5425 0.130683
vt 0.11979 0.349904
vt 0.910637 1.03034
vt 0.509137 0.987751
v 0.262372 0.47546 0.234561
vn 0.9601794 -0.2614511 -0.09848315
vt 0.122452 1.0374
v 0 0.563497 0.570847
vt -0.0459729 0.703658
vn 0 -0.1677379 0.9858316
v 0.23562 0.563038 0.308282
vt 0.691033 0.701242
vn 0.9337 0.262728 0.243266
vt 0.910602 1.0301
v 0 0.643753 0.557199
vt 0.0146731 1.14272
vn 0 0.7609719 0.6487849
vt 0.240958 1.14592
vt 0.27004 0.681982
o merged_1_0_node
g polygon_0
usemtl mat_kao1_mat_id
f 83/29/71 84/29/72 85/29/73
f 83/29/71 86/29/74 84/29/72
f 83/29/71 85/29/73 87/29/75
f 83/29/71 88/29/76 86/29/74
f 83/29/71 87/29/75 89/29/77
f 83/29/71 90/29/78 88/29/76
f 83/29/71 89/29/77 90/29/78
f 84/29/72 91/29/79 85/29/73
f 88/29/76 90/29/78 92/29/80
f 93/30/81 94/30/82 95/30/83
f 93/30/81 96/30/84 94/30/82
f 93/30/81 95/30/83 97/30/85
f 93/30/81 98/30/86 96/30/84
f 93/30/81 97/30/85 99/30/87
f 93/30/81 99/30/87 98/30/86
f 94/30/82 100/30/88 95/30/83
f 94/30/82 96/30/84 101/30/89
f 97/30/85 102/30/90 99/30/87
f 97/30/85 95/30/83 103/30/91
f 97/30/85 103/30/91 102/30/90
f 98/30/86 99/30/87 104/30/92
f 98/30/86 104/30/92 105/30/93
f 100/30/88 106/30/94 95/30/83
f 100/30/88 107/30/95 106/30/94
f 95/30/83 106/30/94 103/30/91
f 102/30/90 108/30/96 99/30/87
f 102/30/90 103/30/91 109/30/97
f 102/30/90 110/30/98 108/30/96
f 102/30/90 109/30/97 110/30/98
f 99/30/87 108/30/96 104/30/92
f 105/30/93 104/30/92 111/30/92
f 105/30/93 111/30/92 112/30/99
f 105/30/93 112/30/99 113/30/100
f 105/30/93 113/30/100 114/30/101
f 105/30/93 114/30/101 115/30/102
f 107/30/95 116/30/103 106/30/94
f 116/30/103 103/30/91 106/30/94
f 116/30/103 109/30/97 103/30/91
f 110/30/98 109/30/97 117/30/104
f 108/30/96 118/30/105 104/30/92
f 111/30/92 118/30/105 112/30/99
f 111/30/92 104/30/92 118/30/105
f 112/30/99 118/30/105 119/30/106
f 118/30/105 120/30/107 119/30/106
f 118/30/105 121/30/108 120/30/107
f 122/31/109 86/32/74 88/33/76
f 122/31/109 107/34/95 86/32/74
f 122/31/109 88/33/76 92/35/80
f 122/31/109 116/36/103 107/34/95
f 122/31/109 92/35/80 123/37/110
f 122/31/109 123/37/110 116/36/103
f 86/32/74 107/34/95 124/31/111
f 86/32/74 124/31/111 84/33/72
f 92/35/80 125/38/112 123/37/110
f 92/35/80 120/39/107 125/38/112
f 92/35/80 90/40/78 120/39/107
f 116/36/103 123/37/110 109/41/97
f 123/37/110 125/38/112 109/41/97
f 107/34/95 100/36/88 124/31/111
f 84/33/72 124/31/111 91/42/79
f 90/40/78 89/43/77 120/39/107
f 125/38/112 117/44/104 109/41/97
f 125/38/112 120/39/107 121/45/108
f 125/38/112 121/45/108 117/44/104
f 100/36/88 126/37/113 124/31/111
f 100/36/88 94/41/82 126/37/113
f 124/31/111 126/37/113 91/42/79
f 89/43/77 119/46/106 120/39/107
f 89/43/77 127/47/114 119/46/106
f 89/43/77 87/43/75 127/47/114
f 94/41/82 128/48/115 126/37/113
f 94/41/82 101/49/89 128/48/115
f 126/37/113 128/48/115 91/42/79
f 119/46/106 127/47/114 129/50/116
f 119/46/106 129/50/116 112/51/99
f 87/43/75 113/46/100 127/47/114
f 87/43/75 114/52/101 113/46/100
f 87/43/75 85/40/73 114/52/101
f 113/46/100 112/51/99 129/50/116
f 113/46/100 129/50/116 127/47/114
f 91/42/79 128/48/115 114/52/101
f 91/42/79 114/52/101 85/40/73
f 101/49/89 115/45/102 128/48/115
f 128/48/115 115/45/102 114/52/101
vt 1.05673 0.932187
vt 0.0152393 0.772994
vt 0.956215 0.785402
vt 0.403637 1.03563
vt -0.224241 0.860324
vt 0.956295 0.785471
o merged_2_0_node
g polygon_0
usemtl TEX_ANIM_EYE_mat_id
f 96/53/84 115/54/102 101/55/89
f 96/53/84 98/56/86 115/54/102
f 115/54/102 98/56/86 105/57/93
f 118/57/105 108/56/96 121/54/108
f 121/54/108 108/56/96 110/53/98
f 110/53/98 117/58/104 121/54/108
