ply
format ascii 1.0
element vertex 168
property float x
property float y
property float z
property uchar red
property uchar green
property uchar blue
element face 146
property list uchar int vertex_index
end_header
-0.91694 -0.75 -0.84663 255 242 211
-0.91694 -0.75 0.84663 255 242 211
-0.75 -0.91694 0.84663 255 242 211
-0.75 -0.91694 -0.84663 255 242 211
-0.91694 0.75 -0.84663 255 242 211
-0.91694 0.75 0.84663 255 242 211
0.75 -0.91694 -0.84663 255 242 211
0.75 -0.91694 0.84663 255 242 211
0.91694 -0.75 -0.84663 255 242 211
0.91694 -0.75 0.84663 255 242 211
0.91694 0.75 0.84663 255 242 211
0.91694 0.75 -0.84663 255 242 211
-0.6875 -0.84053 0.92476 255 242 211
-0.84053 -0.6875 0.92476 255 242 211
-0.84053 0.6875 0.92476 255 242 211
-0.75 0.91694 0.84663 255 242 211
-0.75 0.91694 -0.84663 255 242 211
0.75 0.91694 0.84663 255 242 211
0.75 0.91694 -0.84663 255 242 211
-0.6875 0.84053 0.92476 255 242 211
0.6875 0.84053 0.92476 255 242 211
0.84053 0.6875 0.92476 255 242 211
-0.6875 0.84053 -0.92476 255 242 211
-0.84053 0.6875 -0.92476 255 242 211
-0.84053 -0.6875 -0.92476 255 242 211
-0.6875 -0.84053 -0.92476 255 242 211
0.6875 -0.84053 -0.92476 255 242 211
0.84053 -0.6875 -0.92476 255 242 211
0.84053 0.6875 -0.92476 255 242 211
0.6875 0.84053 -0.92476 255 242 211
0.84053 -0.6875 0.92476 255 242 211
0.6875 -0.84053 0.92476 255 242 211
0.84053 -0.6875 0.92476 255 246 223
0.6875 -0.84053 0.92476 255 246 223
-0.6875 -0.84053 0.92476 255 246 223
-0.84053 -0.6875 0.92476 255 246 223
0.84053 0.6875 0.92476 255 246 223
-0.84053 0.6875 0.92476 255 246 223
0.6875 0.84053 0.92476 255 246 223
-0.6875 0.84053 0.92476 255 246 223
0.33379 -0.93538 -0.01915 193 239 193
0.33379 -0.93538 0.18975 193 239 193
0.54269 -0.93538 0.18975 193 239 193
0.54269 -0.93538 -0.01915 193 239 193
-0.62104 -0.93538 0.2344 193 220 177
-0.62104 -0.93538 0.51904 193 220 177
-0.33639 -0.93538 0.51904 193 220 177
-0.33639 -0.93538 0.2344 193 220 177
-0.26251 -0.93538 -0.77847 193 220 177
-0.26251 -0.93538 -0.19536 193 220 177
0.3206 -0.93538 -0.19536 193 220 177
0.3206 -0.93538 -0.77847 193 220 177
-0.55631 0.93538 0.13172 193 239 193
-0.55631 0.93538 -0.0563 193 239 193
-0.36828 0.93538 -0.0563 193 239 193
-0.36828 0.93538 0.13172 193 239 193
0.25944 0.93538 -0.2937 193 220 177
0.25944 0.93538 -0.57834 193 220 177
0.54409 0.93538 -0.57834 193 220 177
0.54409 0.93538 -0.2937 193 220 177
-0.12995 0.93538 0.68558 193 220 177
-0.12995 0.93538 0.15557 193 220 177
0.40006 0.93538 0.15557 193 220 177
0.40006 0.93538 0.68558 193 220 177
0.17835 0.32279 -0.93538 193 220 177
0.17835 -0.05747 -0.93538 193 220 177
0.55861 -0.05747 -0.93538 193 220 177
0.55861 0.32279 -0.93538 193 220 177
-0.2921 0.15689 -0.93538 193 239 193
-0.2921 -0.03114 -0.93538 193 239 193
-0.10408 -0.03114 -0.93538 193 239 193
-0.10408 0.15689 -0.93538 193 239 193
-0.55748 -0.21678 -0.93538 193 220 177
-0.55748 -0.50143 -0.93538 193 220 177
-0.27283 -0.50143 -0.93538 193 220 177
-0.27283 -0.21678 -0.93538 193 220 177
-0.93538 -0.1293 -0.55682 193 239 193
-0.93538 0.05872 -0.55682 193 239 193
-0.93538 0.05872 -0.36879 193 239 193
-0.93538 -0.1293 -0.36879 193 239 193
-0.93538 0.2972 0.24504 193 220 177
-0.93538 0.58185 0.24504 193 220 177
-0.93538 0.58185 0.52968 193 220 177
-0.93538 0.2972 0.52968 193 220 177
-0.93538 -0.53919 -0.09808 193 220 177
-0.93538 -0.1446 -0.09808 193 220 177
-0.93538 -0.1446 0.29651 193 220 177
-0.93538 -0.53919 0.29651 193 220 177
0.93538 -0.44245 -0.19279 193 220 177
0.93538 0.08179 -0.19279 193 220 177
0.93538 0.08179 -0.71703 193 220 177
0.93538 -0.44245 -0.71703 193 220 177
0.93538 0.09941 0.50373 193 239 193
0.93538 0.28743 0.50373 193 239 193
0.93538 0.28743 0.3157 193 239 193
0.93538 0.09941 0.3157 193 239 193
0.93538 0.26458 0.04773 193 220 177
0.93538 0.62494 0.04773 193 220 177
0.93538 0.62494 -0.31263 193 220 177
0.93538 0.26458 -0.31263 193 220 177
0.93538 -0.57941 0.73542 193 239 193
0.93538 -0.24473 0.73542 193 239 193
0.93538 -0.24473 0.40074 193 239 193
0.93538 -0.57941 0.40074 193 239 193
-0.61188 -0.50048 0.90463 255 242 211
-0.61188 -0.50048 1.40792 255 242 211
-0.50048 -0.61188 1.40792 255 242 211
-0.50048 -0.61188 0.90463 255 242 211
-0.61188 0.50048 0.90463 255 242 211
-0.61188 0.50048 1.40792 255 242 211
0.50048 -0.61188 0.90463 255 242 211
0.50048 -0.61188 1.40792 255 242 211
0.61188 -0.50048 0.90463 255 242 211
0.61188 -0.50048 1.40792 255 242 211
0.61188 0.50048 1.40792 255 242 211
0.61188 0.50048 0.90463 255 242 211
-0.45877 -0.56089 1.46006 255 242 211
-0.56089 -0.45877 1.46006 255 242 211
-0.56089 0.45877 1.46006 255 242 211
-0.50048 0.61188 1.40792 255 242 211
-0.50048 0.61188 0.90463 255 242 211
0.50048 0.61188 1.40792 255 242 211
0.50048 0.61188 0.90463 255 242 211
-0.45877 0.56089 1.46006 255 242 211
0.45877 0.56089 1.46006 255 242 211
0.56089 0.45877 1.46006 255 242 211
0.45877 -0.56089 1.46006 255 242 211
0.56089 -0.45877 1.46006 255 242 211
0.56089 -0.45877 1.46006 255 246 223
0.45877 -0.56089 1.46006 255 246 223
-0.45877 -0.56089 1.46006 255 246 223
-0.56089 -0.45877 1.46006 255 246 223
0.56089 0.45877 1.46006 255 246 223
-0.56089 0.45877 1.46006 255 246 223
0.45877 0.56089 1.46006 255 246 223
-0.45877 0.56089 1.46006 255 246 223
-0.23119 -0.46337 1.4653 193 220 177
-0.23119 -0.27342 1.4653 193 220 177
-0.04125 -0.27342 1.4653 193 220 177
-0.04125 -0.46337 1.4653 193 220 177
-0.37875 0.26319 1.4653 193 239 193
-0.37875 0.38866 1.4653 193 239 193
-0.25328 0.38866 1.4653 193 239 193
-0.25328 0.26319 1.4653 193 239 193
0.09771 -0.24146 1.4653 193 220 177
0.09771 0.08281 1.4653 193 220 177
0.42199 0.08281 1.4653 193 220 177
0.42199 -0.24146 1.4653 193 220 177
0.10079 -0.62418 0.88578 193 220 177
0.10079 -0.62418 1.07573 193 220 177
0.29074 -0.62418 1.07573 193 220 177
0.29074 -0.62418 0.88578 193 220 177
-0.36342 0.62418 1.33205 193 239 193
-0.36342 0.62418 1.20658 193 239 193
-0.23795 0.62418 1.20658 193 239 193
-0.23795 0.62418 1.33205 193 239 193
0.04843 0.62418 1.10349 193 220 177
0.04843 0.62418 0.91355 193 220 177
0.23837 0.62418 0.91355 193 220 177
0.23837 0.62418 1.10349 193 220 177
-0.62418 -0.09824 1.04344 193 220 177
-0.62418 0.14223 1.04344 193 220 177
-0.62418 0.14223 1.28391 193 220 177
-0.62418 -0.09824 1.28391 193 220 177
0.62418 -0.32526 1.24944 193 220 177
0.62418 -0.08479 1.24944 193 220 177
0.62418 -0.08479 1.00897 193 220 177
0.62418 -0.32526 1.00897 193 220 177
3 0 2 1
3 0 3 2
3 4 0 1
3 4 1 5
3 2 3 6
3 2 6 7
3 7 6 8
3 7 8 9
3 8 10 9
3 8 11 10
3 1 2 12
3 1 12 13
3 5 1 13
3 5 13 14
3 15 5 14
3 5 15 16
3 5 16 4
3 16 15 17
3 16 17 18
3 18 17 10
3 18 10 11
3 17 15 19
3 15 14 19
3 17 19 20
3 10 17 20
3 9 10 21
3 10 20 21
3 4 16 22
3 4 22 23
3 0 4 23
3 0 23 24
3 3 0 24
3 3 24 25
3 26 25 24
3 26 24 27
3 27 24 23
3 6 25 26
3 6 3 25
3 18 11 28
3 11 27 28
3 28 23 22
3 27 23 28
3 18 28 29
3 28 22 29
3 16 29 22
3 16 18 29
3 8 26 27
3 8 6 26
3 11 8 27
3 9 21 30
3 7 9 30
3 7 30 31
3 2 7 31
3 2 31 12
3 32 34 33
3 32 35 34
3 36 35 32
3 36 37 35
3 38 37 36
3 38 39 37
3 40 42 41
3 40 43 42
3 44 46 45
3 44 47 46
3 48 50 49
3 48 51 50
3 52 54 53
3 52 55 54
3 56 58 57
3 56 59 58
3 60 62 61
3 60 63 62
3 64 66 65
3 64 67 66
3 68 70 69
3 68 71 70
3 72 74 73
3 72 75 74
3 76 78 77
3 76 79 78
3 80 82 81
3 80 83 82
3 84 86 85
3 84 87 86
3 88 90 89
3 88 91 90
3 92 94 93
3 92 95 94
3 96 98 97
3 96 99 98
3 100 102 101
3 100 103 102
3 104 106 105
3 104 107 106
3 108 104 105
3 108 105 109
3 106 107 110
3 106 110 111
3 111 110 112
3 111 112 113
3 112 114 113
3 112 115 114
3 105 106 116
3 105 116 117
3 109 105 117
3 109 117 118
3 119 109 118
3 109 119 120
3 109 120 108
3 120 119 121
3 120 121 122
3 122 121 114
3 122 114 115
3 121 119 123
3 119 118 123
3 121 123 124
3 114 121 124
3 113 114 125
3 114 124 125
3 106 126 116
3 106 111 126
3 111 127 126
3 111 113 127
3 113 125 127
3 128 130 129
3 128 131 130
3 132 131 128
3 132 133 131
3 134 133 132
3 134 135 133
3 136 138 137
3 136 139 138
3 140 142 141
3 140 143 142
3 144 146 145
3 144 147 146
3 148 150 149
3 148 151 150
3 152 154 153
3 152 155 154
3 156 158 157
3 156 159 158
3 160 162 161
3 160 163 162
3 164 166 165
3 164 167 166
