mtllib Golem.mtl
v -0.0526269 0.153237 -0.231964
vt 0.398904 0.40528
vn -0.05335929 -0.8804628 -0.4711029
v -0.162431 0.125905 -0.0381084
vt 0.335734 0.503219
vn -0.1805879 -0.9750316 -0.129234
v -0.176397 0.180257 -0.187579
vt 0.327699 0.415769
vn -0.4726232 -0.8148133 -0.3357181
v 0 0.109999 0
vt 0.42918 0.52625
vn 0.0109931 -0.9965191 -0.08263601
v -0.22576 0.233505 -0.22576
vt 0.299301 0.379315
vn -0.6573558 -0.4776769 -0.5828449
v 0.103764 0.125641 -0.0703627
vt 0.488875 0.488649
vn 0.148088 -0.9820148 -0.117119
v -0.156311 0.260242 -0.297352
vt 0.339255 0.337176
vn -0.4957079 -0.4499369 -0.7428529
v 0.0887115 0.147815 -0.203811
vt 0.480215 0.420024
vn 0.2579889 -0.8372427 -0.4821478
v -0.0723653 0.262749 -0.339576
vt 0.387548 0.31708
vn -0.04580648 -0.4413248 -0.8961776
v 0.11288 0.242288 -0.279469
vt 0.494119 0.351746
vn 0.332503 -0.595846 -0.731033
v 0.117376 0.125729 0.160752
vt 0.496705 0.593696
vn 0.168926 -0.9132069 0.370833
v -0.00196265 0.11419 0.0915667
vt 0.428051 0.566378
vn -0.04378988 -0.9938325 0.1018789
v 0.223864 0.154804 -0.0334498
vt 0.557967 0.494974
vn 0.4710822 -0.8687183 -0.1530041
v 0.253937 0.2107 -0.12855
vt 0.575268 0.43169
vn 0.6391478 -0.6830688 -0.3534219
v 0.248185 0.156297 0.116623
vt 0.571959 0.56267
vn 0.6018667 -0.7594806 0.2468719
v -0.279223 0.43957 -0.249358
vt 0.60384 0.694655
vn -0.7411132 -0.0127349 -0.6712592
v -0.173594 0.418429 -0.337019
vt 0.591677 0.77286
vn -0.4705028 -0.003711119 -0.8823907
vt 0.500673 0.76932
v -0.22576 0.633178 -0.22576
vt 0.715221 0.713681
vn -0.4406463 0.5677323 -0.6953495
vt 0.485291 0.713681
v -0.292545 0.591589 -0.180043
vt 0.691295 0.667171
vn -0.7601821 0.5309451 -0.3744601
v -0.360921 0.362499 -0.105643
vt 0.559501 0.611207
vn -0.95689 -0.145633 -0.251302
v -0.32279 0.569845 -0.119885
vt 0.678786 0.634175
vn -0.8679109 0.480857 -0.124528
v -0.353749 0.497667 -0.0888527
vt 0.637262 0.609639
vn -0.9722781 0.177965 -0.15167
vt 0.502116 0.823172
v -0.137457 0.523779 -0.323539
vt 0.652284 0.786468
vn -0.2984068 0.4012458 -0.8659995
v -0.0115516 0.397493 -0.358409
vt 0.579633 0.858629
vn -0.0106159 -0.05967049 -0.9981617
v -0.0190163 0.494332 -0.350496
vt 0.635344 0.852582
vn -0.04655621 0.190965 -0.9804922
v -0.316447 0.269841 -0.106214
vt 0.506195 0.633144
vn -0.7906122 -0.5770082 -0.2049241
v 0.187352 0.325467 -0.303642
vt 0.108719 0.689196
vn 0.4001401 -0.3797321 -0.8340812
v 0.28375 0.449267 -0.257269
vt 0.0475183 0.760417
vn 0.7830653 0.05879552 -0.6191542
v 0.270307 0.339753 -0.247102
vt 0.0510219 0.697414
vn 0.700851 -0.373219 -0.607878
v 0.187384 0.551826 -0.320083
vt 0.113675 0.819419
vn 0.4460831 0.32432 -0.8341621
vt 0.023177 0.623171
v 0.141036 0.437783 -0.348568
vt 0.144972 0.75381
vn 0.2654369 -0.07493468 -0.9612117
vt 0.137852 0.641343
vt 0.246685 0.653115
v 0.307635 0.285498 -0.138805
vt 0 0.666202
vn 0.8739389 -0.404076 -0.270099
v 0.0527644 0.604857 -0.322757
vt 0.180363 0.849927
vn 0.015047 0.5520821 -0.833654
vt 0.126797 0.586994
vt 0.222621 0.730632
vt 0.223881 0.786343
v 0.201273 0.363718 0.335364
vt 0.136914 0.133463
vn 0.3190621 -0.123373 0.9396694
vt 0.0175856 0.0443468
v 0.280888 0.347846 0.238466
vt 0.127783 0.0651945
vn 0.7800891 -0.2272431 0.5829421
v 0.092822 0.216834 0.279469
vt 0.0524122 0.16963
vn 0.154288 -0.5674022 0.8088573
v 0.325363 0.506264 0.157012
vt 0.21892 0.0187938
vn 0.7338721 0.218438 0.6432081
v -0.173935 0.363718 0.335364
vt 0.136914 0.31708
vn -0.3595461 -0.120943 0.9252564
v 0.262699 0.639208 0.173112
vt 0.295402 0.0543295
vn 0.6904711 0.5654351 0.4511461
v 0.102845 0.577342 0.327695
vt 0.25981 0.179311
vn 0.204581 0.271187 0.940534
v 0.335129 0.290146 0.11499
vt 0.0945883 0.001305
vn 0.9183021 -0.35066 0.183736
vt 0 0.121709
v 0.346206 0.494792 0.128598
vt 0.21232 0
vn 0.9662027 0.2112119 0.14779
v -0.102845 0.577342 0.327695
vt 0.25981 0.279971
vn -0.1770719 0.3071009 0.9350586
v -0.092822 0.216834 0.279469
vt 0.0524122 0.26048
vn -0.227898 -0.593271 0.77207
v 0.162678 0.661146 0.253537
vt 0.308023 0.127602
vn 0.373296 0.7418271 0.5570841
v 0 0.711651 -0.215168
vt 0.44123 0.168803
vn -0.04197811 0.8463093 -0.5310352
vt 0.311352 0.201761
v -0.134006 0.727963 -0.159877
vt 0.364137 0.137815
vn -0.3510128 0.8627304 -0.3639867
vt 0.471585 0.256018
v -0.130154 0.762981 -0.0146427
vt 0.366353 0.0592246
vn -0.306673 0.9459242 -0.105731
v 0.134006 0.727963 -0.159877
vt 0.518323 0.137815
vn 0.3504381 0.8556862 -0.3807811
v 0.130154 0.762981 -0.0146427
vt 0.516107 0.0592246
vn 0.271879 0.9616849 -0.03527199
vt 0.362152 0.28545
v -0.000627797 0.783441 0.0994814
vt 0.440869 0
vn 0.013947 0.9761518 0.2166409
v 0.22576 0.633178 -0.22576
vt 0.571109 0.201761
vn 0.6150647 0.6283067 -0.4763677
vt 0.43029 0.308266
vt 0.549031 0.27382
v -0.117181 0.131741 0.161973
vt 0.812204 0.744578
vn -0.160841 -0.9009119 0.4030979
vt 0.896141 0.623764
vt 0.896141 0.730564
vt 0.809493 0.609639
vt 0.7739 0.678293
vt 0.719143 0.77061
v -0.205916 0.138421 0
vt 0.740958 0.795626
vn -0.5525149 -0.8255238 -0.115056
v -0.240872 0.155247 0.113622
vt 0.798651 0.815737
vn -0.6533812 -0.6870532 0.3178851
vt 0.730765 0.677164
v 0.305955 0.580401 -0.10796
vt 0.360795 0.700396
vn 0.8360842 0.5191721 -0.177267
vt 0.344371 0.593696
vt 0.434442 0.674273
v 0.353749 0.497667 -0.0888527
vt 0.306602 0.676312
vn 0.9685798 0.173787 -0.177908
v 0.237047 0.690705 0.0294815
vt 0.391165 0.808841
vn 0.736717 0.67618 0.00536649
vt 0.249507 0.777397
vt 0.430231 0.610999
vt 0.323546 0.85556
vt 0.481652 0.748146
vt 0.460397 0.826975
vt 0.252009 0.797284
v -0.270688 0.358014 0.230217
vt 0.880028 0.130173
vn -0.7527121 -0.244883 0.6111111
vt 0.859355 0.013523
vt 0.959179 0.133455
v -0.343178 0.307236 0.088664
vt 0.801741 0.100962
vn -0.92127 -0.315122 0.227947
v -0.325363 0.506264 0.157012
vt 0.831131 0.215461
vn -0.69133 0.209402 0.69153
v -0.346206 0.494792 0.128598
vt 0.812337 0.208861
vn -0.9552262 0.2308031 0.185129
vt 0.981968 0.0489535
vt 0.93451 0
v -0.162678 0.661146 0.253537
vt 0.939939 0.304564
vn -0.4886629 0.5989949 0.6343609
v -0.261679 0.624652 0.166382
vt 0.86513 0.283569
vn -0.7674938 0.5809879 0.270936
vt 0.991649 0.256352
v 0.352354 0.359469 -0.0490633
vt 0.188804 0.43124
vn 0.9804901 -0.161985 -0.111355
vt 0.196103 0.531486
vt 0.120707 0.419378
vt 0.297175 0.472449
vt 0.16005 0.31708
vt 0.242749 0.369575
vt 0.114866 0.586993
vt 0.108884 0.357898
vt 0.0766291 0.4555
vt 0.0690532 0.521527
v 0 0.717011 0.208448
vt 0.681699 0.459096
vn 0.000204402 0.7717441 0.6359331
vt 0.641165 0.365509
vt 0.755065 0.459458
vt 0.577394 0.39993
vt 0.641165 0.552684
vt 0.577394 0.518263
vt 0.799615 0.384219
vt 0.669863 0.307967
v -0.216427 0.701756 0.0454234
vt 0.750349 0.583606
vn -0.6245254 0.7739754 0.1045471
vt 0.667703 0.609639
vt 0.753633 0.322725
vt 0.799615 0.533974
vt 0.916791 0.964731
vt 0.822233 0.953486
vt 0.859013 0.857926
vt 0.847955 0.995199
vt 0.904702 0.815737
vt 0.991649 0.890021
vt 0.969946 1
vt 0.833361 0.865152
vt 0.726205 0.0758219
vt 0.637854 0.181577
vt 0.625121 0.132918
vt 0.796872 0.145112
vt 0.574194 0.0730035
vt 0.746093 0.0783244
vt 0.649781 0
vt 0.771589 0.223032
vt 0.621279 0.214363
vt 0.775784 0.286712
vt 0.696954 0.307967
vt 0.623082 0.260758
o merged_0_0_node
g polygon_0
usemtl mat_iwa_mat_id
f 1/1/1 2/2/2 3/3/3
f 1/1/1 4/4/4 2/2/2
f 1/1/1 3/3/3 5/5/5
f 1/1/1 6/6/6 4/4/4
f 1/1/1 5/5/5 7/7/7
f 1/1/1 8/8/8 6/6/6
f 1/1/1 7/7/7 9/9/9
f 1/1/1 10/10/10 8/8/8
f 1/1/1 9/9/9 10/10/10
f 4/4/4 6/6/6 11/11/11
f 4/4/4 11/11/11 12/12/12
f 8/8/8 13/13/13 6/6/6
f 8/8/8 14/14/14 13/13/13
f 11/11/11 6/6/6 15/15/15
f 15/15/15 6/6/6 13/13/13
f 16/16/16 17/17/17 7/18/7
f 16/16/16 18/19/18 17/17/17
f 16/16/16 7/18/7 5/20/5
f 16/16/16 19/21/19 18/19/18
f 16/16/16 5/20/5 20/22/20
f 16/16/16 21/23/21 19/21/19
f 16/16/16 20/22/20 22/24/22
f 16/16/16 22/24/22 21/23/21
f 17/17/17 9/25/9 7/18/7
f 17/17/17 18/19/18 23/26/23
f 17/17/17 24/27/24 9/25/9
f 17/17/17 23/26/23 25/28/25
f 17/17/17 25/28/25 24/27/24
f 5/20/5 26/29/26 20/22/20
f 27/30/27 28/31/28 29/32/29
f 27/30/27 30/33/30 28/31/28
f 27/30/27 29/32/29 14/34/14
f 27/30/27 31/35/31 30/33/30
f 27/30/27 14/34/14 10/36/10
f 27/30/27 9/37/9 31/35/31
f 27/30/27 10/36/10 9/37/9
f 29/32/29 32/38/32 14/34/14
f 30/33/30 31/35/31 33/39/33
f 10/36/10 14/34/14 8/40/8
f 9/37/9 24/41/24 31/35/31
f 33/39/33 31/35/31 25/42/25
f 25/42/25 31/35/31 24/41/24
f 34/43/34 15/44/15 35/45/35
f 34/43/34 36/46/36 15/44/15
f 34/43/34 35/45/35 37/47/37
f 34/43/34 38/48/38 36/46/36
f 34/43/34 37/47/37 39/49/39
f 34/43/34 40/50/40 38/48/38
f 34/43/34 39/49/39 40/50/40
f 15/44/15 41/51/41 35/45/35
f 15/44/15 36/46/36 11/52/11
f 37/47/37 35/45/35 42/53/42
f 42/53/42 35/45/35 41/51/41
f 38/48/38 40/50/40 43/54/43
f 38/48/38 44/55/44 36/46/36
f 39/49/39 45/56/45 40/50/40
f 46/57/46 18/58/18 47/59/47
f 46/57/46 33/60/33 18/58/18
f 46/57/46 47/59/47 48/61/48
f 46/57/46 49/62/49 33/60/33
f 46/57/46 48/61/48 50/63/50
f 46/57/46 50/63/50 49/62/49
f 18/58/18 33/60/33 23/64/23
f 48/61/48 51/65/51 50/63/50
f 49/62/49 52/66/52 33/60/33
f 23/64/23 33/60/33 25/67/25
f 52/66/52 30/68/30 33/60/33
f 53/69/53 36/70/36 44/71/44
f 53/69/53 11/72/11 36/70/36
f 53/69/53 12/73/12 11/72/11
f 53/69/53 2/74/2 12/73/12
f 53/69/53 54/75/54 2/74/2
f 53/69/53 55/76/55 54/75/54
f 12/73/12 2/74/2 4/77/4
f 56/78/56 28/79/28 52/80/52
f 56/78/56 57/81/57 28/79/28
f 56/78/56 52/80/52 58/82/58
f 56/78/56 42/83/42 57/81/57
f 56/78/56 58/82/58 42/83/42
f 28/79/28 30/84/30 52/80/52
f 58/82/58 39/85/39 42/83/42
f 58/82/58 52/80/52 49/86/49
f 58/82/58 49/86/49 50/87/50
f 39/85/39 37/88/37 42/83/42
f 59/89/59 55/90/55 38/91/38
f 59/89/59 60/92/60 55/90/55
f 59/89/59 38/91/38 61/93/61
f 59/89/59 62/94/62 60/92/60
f 59/89/59 61/93/61 62/94/62
f 55/90/55 44/95/44 38/91/38
f 55/90/55 53/96/53 44/95/44
f 61/93/61 38/91/38 63/97/63
f 61/93/61 63/97/63 64/98/64
f 38/91/38 43/99/43 63/97/63
f 65/100/65 41/101/41 32/102/32
f 65/100/65 42/103/42 41/101/41
f 65/100/65 32/102/32 28/104/28
f 65/100/65 57/105/57 42/103/42
f 65/100/65 28/104/28 57/105/57
f 41/101/41 15/106/15 32/102/32
f 28/104/28 32/102/32 29/107/29
f 15/106/15 14/108/14 32/102/32
f 15/106/15 13/109/13 14/108/14
f 66/110/66 45/111/45 51/112/51
f 66/110/66 40/113/40 45/111/45
f 66/110/66 51/112/51 63/114/63
f 66/110/66 43/115/43 40/113/40
f 66/110/66 63/114/63 43/115/43
f 45/111/45 50/116/50 51/112/51
f 45/111/45 39/117/39 50/116/50
f 63/114/63 51/112/51 67/118/67
f 63/114/63 67/118/67 64/119/64
f 39/117/39 58/120/58 50/116/50
f 51/112/51 48/121/48 67/118/67
f 26/122/26 3/123/3 54/124/54
f 26/122/26 5/125/5 3/123/3
f 26/122/26 54/124/54 55/126/55
f 26/122/26 55/126/55 60/127/60
f 26/122/26 60/127/60 20/128/20
f 3/123/3 2/129/2 54/124/54
f 62/130/62 21/131/21 22/132/22
f 62/130/62 64/133/64 21/131/21
f 62/130/62 22/132/22 20/134/20
f 62/130/62 61/135/61 64/133/64
f 62/130/62 20/134/20 60/136/60
f 21/131/21 64/133/64 67/137/67
f 21/131/21 67/137/67 19/138/19
f 67/137/67 48/139/48 19/138/19
f 48/139/48 47/140/47 19/138/19
f 47/140/47 18/141/18 19/138/19
v 0 0.326432 0.252
vt 0.220354 0.0252311
vn 0 -0.2823189 -0.9593206
v 0.143362 0.318046 0.303244
vn 0.6572493 -0.3116512 -0.6862193
v 0 0.259086 0.344381
vn 0 -0.9572762 -0.2891751
v 0.117768 0.508846 0.303244
vn 0.616127 0.367349 -0.6967369
v -0.143362 0.318046 0.303244
vn -0.6572493 -0.3116512 -0.6862193
v 0 0.50046 0.252
vn 0 0.2327329 -0.9725407
v -0.117768 0.508846 0.303244
vn -0.616127 0.367349 -0.6967369
v 0.0958951 0.272654 0.423519
vn 0.4242498 -0.9025806 0.07321476
v 0.17877 0.354485 0.410943
vn 0.9779366 -0.2082209 0.01685629
v -0.17877 0.354485 0.410943
vn -0.9779366 -0.2082209 0.01685629
v -0.0958951 0.272654 0.423519
vn -0.4242498 -0.9025806 0.07321476
v 0.16146 0.472406 0.410943
vn 0.9416776 0.3349429 0.03250549
v -0.16146 0.472406 0.410943
vn -0.9416776 0.3349429 0.03250549
v -0.0486791 0.323486 0.578554
vt 0.000888413 0.208687
vn -0.214176 -0.07858111 0.9736291
v -0.0973582 0.33157 0.530936
vt 0.31018 0.23494
vn -0.7513222 -0.3889581 0.5331291
v -0.0477413 0.280314 0.536807
vt 0.272049 0.0684762
vn -0.200582 -0.9316572 0.3029551
v -0.0685697 0.411298 0.552477
vt 0.170263 0.493873
vn -0.2362019 0.1933239 0.9522786
v 0.0477413 0.280314 0.536807
vn 0.200201 -0.9314131 0.303956
v 0.0685697 0.411298 0.552477
vn 0.2469539 0.1887159 0.9504736
v 0.0486791 0.323486 0.578554
vn 0.2398659 -0.129518 0.9621276
vt 1.0079 0.0435991
vt 1.08958 0.309362
v 0.0973582 0.33157 0.530936
vn 0.7513217 -0.3889579 0.5331299
v 0 0.555638 0.321476
vt 0.0736977 0.954759
vn 0 0.9161901 -0.400744
v -0.0958951 0.554238 0.410943
vn -0.4748167 0.8783444 0.05531996
v 0.0958951 0.554238 0.410943
vn 0.4748167 0.8783444 0.05531996
v 0 0.566375 0.420241
vn 0 0.9797704 0.2001251
v 0 0.50905 0.53453
vn 0 0.6198351 0.7847321
v 0.0973582 0.508846 0.518642
vn 0.4848199 0.6111358 0.6256698
v -0.0973582 0.508846 0.518642
vn -0.4848199 0.6111358 0.6256698
v 0.451771 0.344471 0.263767
vt 0.935176 0.390162
vn 0.8196357 -0.1920849 0.5397228
v 0.154841 0.300755 0.0580393
vt 0.935176 0.816873
vn 0.14108 -0.9899752 0.006741331
v 0.231278 0.419296 -0.0158518
vn 0.786639 0.011181 -0.617312
v 0.105054 0.402573 0.169883
vn -0.2793949 -0.1300559 0.9513275
v 0.181492 0.521115 0.0959919
vn 0.3661641 0.8711002 0.3272741
v -0.451771 0.344471 0.263767
vn -0.8196357 -0.1920849 0.5397228
v -0.231278 0.419296 -0.0158518
vn -0.786639 0.011181 -0.617312
v -0.154841 0.300755 0.0580393
vn -0.14108 -0.9899752 0.006741671
v -0.181492 0.521115 0.0959919
vn -0.3661641 0.8711002 0.3272741
v -0.105054 0.402573 0.169883
vn 0.2793949 -0.1300559 0.9513275
v -0.215122 -0.001801403 0.0233782
vn -0.3606031 -0.9327193 0
v -0.230387 0.270952 0.0233782
vn -0.9984375 -0.05587978 0
v -0.125369 0.23035 -0.0892157
vn -0.148627 -0.3844301 -0.9111112
v -0.125369 0.23035 0.135972
vn -0.148627 -0.3844301 0.9111112
v -0.0203505 0.189748 0.0233782
vn 0.7011842 -0.7129802 0
v 0.215122 -0.001801403 0.0233782
vn 0.360604 -0.932719 0
v 0.125369 0.23035 -0.0892157
vn 0.148627 -0.3844301 -0.9111112
v 0.230387 0.270952 0.0233782
vn 0.9984375 -0.05587967 0
v 0.0203505 0.189748 0.0233782
vn -0.7011842 -0.7129802 0
v 0.125369 0.23035 0.135972
vn 0.148627 -0.3844301 0.9111112
vt 0.148531 0.0352246
vt 0.046455 0.05933
vt 0.588055 0.958095
vt 0.588055 0.692332
vt 1.2876 0.810676
vt -0.111489 0.810676
vt 0.527658 0.997512
o merged_1_0_node
g polygon_0
usemtl mat_kao_mat_id
f 68/142/68 69/142/69 70/142/70
f 68/142/68 71/142/71 69/142/69
f 68/142/68 70/142/70 72/142/72
f 68/142/68 73/142/73 71/142/71
f 68/142/68 72/142/72 74/142/74
f 68/142/68 74/142/74 73/142/73
f 69/142/69 75/142/75 70/142/70
f 69/142/69 71/142/71 76/142/76
f 69/142/69 76/142/76 75/142/75
f 72/142/72 77/142/77 74/142/74
f 72/142/72 70/142/70 78/142/78
f 72/142/72 78/142/78 77/142/77
f 71/142/71 79/142/79 76/142/76
f 74/142/74 77/142/77 80/142/80
f 81/143/81 82/144/82 83/145/83
f 81/143/81 84/146/84 82/144/82
f 81/143/81 83/145/83 85/145/85
f 81/143/81 86/146/86 84/146/84
f 81/143/81 85/145/85 87/143/87
f 81/143/81 87/143/87 86/146/86
f 82/144/82 78/147/78 83/145/83
f 82/144/82 77/148/77 78/147/78
f 85/145/85 88/144/88 87/143/87
f 85/145/85 75/147/75 88/144/88
f 87/143/87 88/144/88 86/146/86
f 75/147/75 76/148/76 88/144/88
f 89/149/89 73/149/73 74/149/74
f 89/149/89 71/149/71 73/149/73
f 89/149/89 74/149/74 90/149/90
f 89/149/89 91/149/91 71/149/71
f 89/149/89 90/149/90 92/149/92
f 89/149/89 92/149/92 91/149/91
f 92/149/92 93/149/93 94/149/94
f 92/149/92 95/149/95 93/149/93
f 96/150/96 97/151/97 98/151/98
f 96/150/96 99/151/99 97/151/97
f 96/150/96 98/151/98 100/151/100
f 96/150/96 100/151/100 99/151/99
f 101/150/101 102/151/102 103/151/103
f 101/150/101 104/151/104 102/151/102
f 101/150/101 103/151/103 105/151/105
f 101/150/101 105/151/105 104/151/104
f 106/150/106 107/151/107 108/151/108
f 106/150/106 109/151/109 107/151/107
f 106/150/106 108/151/108 110/151/110
f 106/150/106 110/151/110 109/151/109
f 111/150/111 112/151/112 113/151/113
f 111/150/111 114/151/114 112/151/112
f 111/150/111 113/151/113 115/151/115
f 111/150/111 115/151/115 114/151/114
f 70/152/70 83/152/83 78/152/78
f 70/152/70 85/152/85 83/152/83
f 70/152/70 75/152/75 85/152/85
f 93/153/93 86/153/86 94/153/94
f 93/153/93 84/153/84 86/153/86
f 93/153/93 95/153/95 84/153/84
f 91/154/91 79/155/79 71/156/71
f 91/154/91 94/157/94 79/155/79
f 91/154/91 92/158/92 94/157/94
f 92/158/92 90/154/90 95/157/95
f 90/154/90 80/155/80 95/157/95
f 90/154/90 74/156/74 80/155/80
vt 0.96202 0.749926
v 0.129945 0.413446 0.509175
vt 0.329618 0.84482
vn 0.8203443 0.05600312 0.5691212
vt 0.189522 0.713044
vt 0.268672 0.998362
v -0.129945 0.413446 0.509175
vn -0.8203443 0.05600312 0.5691212
vt 0.0508449 0.841364
vt 0.96202 0.939714
o merged_2_0_node
g polygon_0
usemtl TEX_ANIM_EYE_mat_id
f 76/159/76 116/160/116 88/161/88
f 95/162/95 117/160/117 84/163/84
f 94/162/94 86/163/86 116/160/116
f 116/160/116 86/163/86 88/161/88
f 79/164/79 116/160/116 76/159/76
f 94/162/94 116/160/116 79/164/79
f 77/159/77 82/161/82 117/160/117
f 117/160/117 82/161/82 84/163/84
f 80/164/80 117/160/117 95/162/95
f 77/159/77 117/160/117 80/164/80
