mtllib Rapidash.mtl
v 0.182312 0.2616361 0.1972091
vt 0.100287 0.0517577
vn 0.8206699 0.09112464 0.5640898
v 0.182312 0.261636 -0.1801323
vt 0.100287 0.0757998
vn 0.8342718 0.1955256 -0.5155193
v 0.165013 0.343465 -0.150197
vt 0.0641089 0.0738925
vn 0.6424459 0.7335209 -0.221834
v 0.181389 0.171616 -0.05390461
vt 0.209105 0.0677574
vn 0.8737763 -0.4343519 0.218754
v 0.165013 0.343465 0.182322
vt 0.0641089 0.0527062
vn 0.7854858 0.5779839 0.2212389
v 0.181389 0.1680152 0.09128334
vt 0.184892 0.0585067
vn 0.8890712 -0.3900492 -0.239612
v 0 0.343465 0.28382
vt 0.0641089 0.0462393
vn 0 0.238168 0.971224
v 0.184594 -1.796931E-05 0.2178469
vt 0.9346 0.0504428
vn 0.3679333 -0.7059497 0.6051943
v 0 0.2616361 0.2995982
vt 0.100287 0.0452341
vn 0 0.04780373 0.9988567
v 0 0.1700785 0.261501
vt 0.179302 0.0451394
vn 0 -0.2902408 0.9569537
v 0 0.343465 -0.248139
vt 0.0641089 0.0801329
vn 0 0.8437808 -0.5366879
v 0.184594 -2.049644E-05 -0.2258513
vt 0.9346 0.0787126
vn 0.3266035 -0.744458 -0.5823336
v 0 0.261636 -0.2994148
vt 0.100287 0.0833998
vn 0 0.2393399 -0.9709359
v 0 0.1706739 -0.2994174
vt 0.17769 0.0833998
vn 0 -0.2352541 -0.9719338
v 0 0.508045 0.244295
vt 0.0286622 0.0520116
vn 0 0.9767674 0.2143021
v 0 0.369672 0.102628
vt 0.0225234 0.0577839
vn 0 0.9738209 -0.227317
v 0 0.1430679 0.09224576
vt 0.252374 0.0635238
vn 0 -0.9704747 -0.2412029
v -0.182312 0.2616361 0.1972091
vn -0.8206695 0.09112491 0.5640902
v 0 0.1573178 -0.05666564
vt 0.215032 0.0734618
vn 0 -0.9984891 -0.05495036
vn 0 -0.9410987 0.3381319
v -0.182312 0.261636 -0.1801323
vn -0.8342718 0.1955256 -0.5155193
v -0.165013 0.343465 0.182321
vn -0.7854858 0.5779839 0.2212389
v -0.184594 -1.796931E-05 0.2178469
vn -0.3679335 -0.7059492 0.6051947
v -0.184594 -2.049644E-05 -0.2258513
vn -0.3266035 -0.744458 -0.5823336
v -0.181389 0.171616 -0.05390471
vn -0.8737767 -0.4343511 0.2187541
v -0.165013 0.343465 -0.150197
vn -0.6424459 0.7335209 -0.221834
v -0.181389 0.1680152 0.09128334
vn -0.8890712 -0.3900492 -0.239612
v -0.12119 0.806143 0.0707136
vt 0.885263 0.183935
vn -0.9251848 -0.3206719 0.202984
v 0 0.735092 -0.020434
vt 0.953051 0.189683
vn 0 -0.9948784 -0.101079
v 0 0.718388 0.0793466
vt 0.984486 0.183267
vn -0.1446 -0.8258108 0.5450939
v -0.0527139 0.779069 -0.0979988
vt 0.885263 0.191015
vn -0.9201206 -0.09038336 -0.3810628
v 0.123707 0.864367 0.209864
vt 0.933571 0.171593
vn 0.872339 -0.411384 0.264174
v 0 0.91259 -0.0414753
vt 0.767269 0.187882
vn 0 0.9014842 -0.4328121
v -0.123707 0.864367 0.209864
vn -0.8131222 -0.5502091 0.190006
v 0 0.896796 0.0538043
vt 0.790673 0.178374
v 0 1.01299 0.176188
vt 0.762558 0.163664
vn 0 0.9918467 -0.127437
v 0.12119 0.806143 0.0707136
vn 0.9847226 -0.06353498 -0.1621259
v 0 0.720911 -0.124356
vt 0.928213 0.194007
vn 0 -0.885359 -0.464908
v 0.0527139 0.779069 -0.0979988
vn 0.9201205 -0.09038355 -0.3810632
v 0 0.965888 0.351847
vt 0.861105 0.15741
vn 0 0.7549929 0.6557329
v 0 0.836193 0.413985
vt 0.97263 0.159589
vn 0 -0.8147161 0.57986
v 0 0.831495 -0.209858
vt 0.869942 0.224517
vn 0 -0.04120469 -0.9991508
v 0 0.823589 -0.11604
vt 0.831156 0.204638
v -0.0915427 0.672499 0.0710043
vt 0.0661256 0.907515
vn -0.261077 0.233879 -0.9365572
v 0 0.529048 0.0798291
vn 0 -0.3527502 -0.9357175
v -0.157608 0.50797 0.123696
vn -0.4777571 -0.4692591 -0.7426601
v 0.0915427 0.672499 0.0710043
vn 0.2551439 0.2427389 -0.9359377
v -0.205808 0.621089 0.162807
vn -0.8348431 -0.0348926 -0.5493811
v 0.0771136 0.801764 0.159671
vn 0.1937789 0.7476019 -0.6352489
v -0.225671 0.729578 0.194778
vn -0.841824 0.304752 -0.445487
v -0.0771136 0.801764 0.159671
vn -0.178405 0.7865411 -0.5912061
v 0 0.436147 0.159802
vn 0 -0.8631639 -0.5049239
v 0.157608 0.50797 0.123696
vn 0.4777571 -0.4692591 -0.7426601
v -0.232091 0.569752 0.30796
vn -0.9784051 -0.08636871 0.187787
v -0.214818 0.478368 0.236124
vn -0.820425 -0.5585091 -0.122354
v 0.125452 0.831466 0.266756
vn 0.07482703 0.9957274 -0.05410972
v 0.225671 0.729578 0.194778
vn 0.8418236 0.3047518 -0.4454878
v 0.120209 0.410996 0.271562
vn 0.301583 -0.952619 -0.0395568
v 0.205808 0.621089 0.162807
vn 0.8348431 -0.0348926 -0.5493811
v 0.214818 0.478368 0.236124
vn 0.820425 -0.5585091 -0.122354
v -0.210717 0.746997 0.30328
vn -0.9066194 0.3090111 0.2873211
v -0.125452 0.831466 0.266756
vn -0.07501553 0.9942104 -0.07693063
v -0.198419 0.927691 0.246801
vn 0.4580961 0.166284 -0.8732111
v -0.120209 0.410996 0.271562
vn -0.284195 -0.9584551 -0.0244322
v 0.232091 0.569752 0.30796
vn 0.9784051 -0.08636861 0.187787
v 0.168355 0.50522 0.434333
vn 0.7805533 -0.3873742 0.4905892
v -0.168355 0.50522 0.434333
vn -0.7805533 -0.3873742 0.4905892
v -0.0931806 0.811821 0.417138
vn -0.250435 0.8850259 0.392443
v -0.168443 0.709533 0.471699
vn -0.8022869 0.241862 0.545746
vn -0.6381109 0.268935 0.7214489
v 0.198419 0.927691 0.2468
vn -0.4580961 0.166284 -0.8732111
v 0.0931806 0.811821 0.417138
vn 0.227185 0.8983919 0.3758709
v 0.210717 0.746997 0.30328
vn 0.9066194 0.3090111 0.2873211
vn 0.6381114 0.2689351 0.7214484
v 0.0705794 0.439539 0.406586
vn 0.2239079 -0.9472665 0.2292409
v -0.0705794 0.439539 0.406586
vn -0.1844919 -0.9564775 0.2260829
v -0.0863413 0.726027 0.497734
vn -0.108789 0.4189041 0.9014901
v -0.0909766 0.604459 0.512873
vn -0.355518 0.04894371 0.9333871
v 0.168443 0.709533 0.471699
vn 0.8022869 0.241862 0.545746
v 0.0863413 0.726027 0.497734
vn 0.105682 0.4207949 0.9009789
v 0.10412 0.490914 0.4737
vn 0.6819509 -0.4478879 0.5782209
v 0.0909766 0.604459 0.512873
vn 0.3514271 0.04990451 0.9348843
v -0.10412 0.490914 0.4737
vn -0.6819513 -0.4478882 0.5782202
v 0.068253 0.563244 0.537595
vn 0.5794361 0.0784115 0.811237
v -0.068253 0.563244 0.537595
vn -0.5794361 0.0784115 0.811237
v 0 0.560951 0.55693
vn 0 0.4165458 0.9091147
v 0 0.433407 0.476707
vt 0.73638 0.442943
vn 0 -0.9688118 0.2477979
vt 1.09336 0.476414
v -0.0662032 0.434537 0.469549
vt 0.794996 0.452713
vn -0.4125068 -0.8692516 0.2724699
v 0.0662032 0.434537 0.469549
vn 0.4125068 -0.8692516 0.2724699
v 0 0.484323 0.546471
vt 0.411658 0.695943
vn 0 -0.5214537 0.8532796
vt 0.775323 0.719863
v -0.0694935 0.485454 0.539312
vt 0.464412 0.693989
vn -0.507453 -0.402918 0.7616749
v 0.0694935 0.485454 0.539312
vn 0.507453 -0.402918 0.7616749
v 0 0.347473 -0.564269
vt 0.819209 0.159577
vn 0 -0.5868661 -0.809684
v 0.0806708 0.307373 -0.450871
vt 0.901095 0.153504
vn 0.7102118 -0.6976058 0.09458017
v -0.0806708 0.307373 -0.450871
vn -0.7102118 -0.6976058 0.09457996
v 0.085714 0.447654 -0.53451
vt 0.819487 0.215725
vn 0.8743193 0.126403 -0.4686022
v -0.085714 0.447654 -0.53451
vn -0.8743193 0.126403 -0.4686022
v 0 0.521657 -0.591808
vt 0.765183 0.202207
vn 0 0.2213941 -0.9751844
v 0 0.354516 -0.271638
vt 0.9755 0.179926
vn 0 -0.3262149 0.9452956
v 0.0806708 0.496524 -0.384154
vt 0.903756 0.243115
vn 0.6929821 0.5563301 0.458555
v 0 0.483089 -0.528709
vt 0.822738 0.235585
vn 0 0.9999796 -0.006394298
v -0.0806708 0.496524 -0.384154
vn -0.6929821 0.5563301 0.458555
v 0 0.858329 0.554704
vt 0.0550633 0.91076
vn 0 0.6265191 0.7794061
v 0 0.800142 0.411037
vn 0 0.926865 -0.375395
v -0.0446584 0.765335 0.439016
vn -0.9575965 0.1805091 0.2245561
v 0.0446584 0.765335 0.439016
vn 0.9575965 0.1805081 0.2245571
v 0 0.730528 0.466995
vn 0 -0.5658483 0.8245094
v 0 0.399307 0.00326715
vt 0.98079 0.175847
vn 1 0 0
v 0 0.464386 0.0430826
vt 0.771446 0.179661
v 0 0.368596 0.0985685
v 0 0.34096 -0.182064
v 0 0.379277 -0.100205
v 0 0.45331 -0.0944447
v 0 0.401885 -0.222124
vn -1 0 0
vt 0.521456 0.698238
vt 0.520219 1.11461
vt 0.697467 0.723832
vt 0.310348 1.10146
vt 0.0625235 0.921879
v -0.183518 0.04103236 0.2097984
vn -0.9842739 0.03549546 0.1730464
v -0.18016 0.2115995 0.1939143
vn -0.9842746 0.03549463 0.1730424
v -0.220501 0.1021307 -0.013106
vn 0.9842746 -0.03549463 -0.1730424
vn 0.9842739 -0.03549546 -0.1730464
v 0.183518 0.04103236 0.2097984
vn 0.9842739 0.03549536 0.1730464
v 0.220501 0.1021307 -0.013106
vn 0.9842746 0.03549453 0.1730424
v 0.18016 0.2115995 0.1939143
vn -0.9842746 -0.03549463 -0.1730424
vn -0.9842739 -0.03549546 -0.1730464
v -0.181545 0.05348408 -0.2162456
vn -0.9957801 -0.001345415 0.09176244
v -0.179796 0.1753965 -0.1954739
vn -0.9957802 -0.001345403 0.09176135
v -0.198274 0.2024648 -0.3956153
vn -0.9957803 -0.001345389 0.09175999
vn 0.9957803 0.001345389 -0.09175999
vn 0.9957802 0.001345403 -0.09176135
vn 0.9957801 0.001345415 -0.09176244
v 0.181545 0.05348408 -0.2162456
vn 0.9957801 -0.001345465 0.09176244
v 0.198274 0.2024648 -0.3956153
vn 0.9957803 -0.001345439 0.09175999
v 0.179796 0.1753965 -0.1954739
vn 0.9957802 -0.001345454 0.09176135
vn -0.9957803 0.001345389 -0.09175999
vn -0.9957801 0.001345415 -0.09176244
vn -0.9957802 0.001345403 -0.09176135
vt 0.293872 1.12819
vt 0.0280025 0.277598
vt 0.538761 0.1956
o merged_0_0_node
g polygon_0
usemtl lambert3_mat_id
f 1/1/1 2/2/2 3/3/3
f 1/1/1 4/4/4 2/2/2
f 1/1/1 3/3/3 5/5/5
f 1/1/1 6/6/6 4/4/4
f 1/1/1 5/5/5 7/7/7
f 1/1/1 8/8/8 6/6/6
f 1/1/1 7/7/7 9/9/9
f 1/1/1 10/10/10 8/8/8
f 1/1/1 9/9/9 10/10/10
f 2/2/2 11/11/11 3/3/3
f 2/2/2 4/4/4 12/12/12
f 2/2/2 13/13/13 11/11/11
f 2/2/2 12/12/12 14/14/14
f 2/2/2 14/14/14 13/13/13
f 5/5/5 15/15/15 7/7/7
f 5/5/5 3/3/3 16/16/16
f 5/5/5 16/16/16 15/15/15
f 3/3/3 11/11/11 16/16/16
f 6/6/6 8/8/8 17/17/17
f 6/6/6 17/17/17 4/4/4
f 8/8/8 10/10/10 17/17/17
f 9/9/9 7/7/7 18/1/18
f 9/9/9 18/1/18 10/10/10
f 12/12/12 19/18/19 14/14/14
f 12/12/12 4/4/4 19/18/20
f 4/4/4 17/17/17 19/18/20
f 13/13/13 20/2/21 11/11/11
f 13/13/13 14/14/14 20/2/21
f 15/15/15 16/16/16 21/5/22
f 15/15/15 21/5/22 7/7/7
f 7/7/7 21/5/22 18/1/18
f 10/10/10 22/8/23 17/17/17
f 10/10/10 18/1/18 22/8/23
f 19/18/19 23/12/24 14/14/14
f 14/14/14 23/12/24 20/2/21
f 19/18/20 17/17/17 24/4/25
f 19/18/20 24/4/25 23/12/24
f 23/12/24 24/4/25 20/2/21
f 11/11/11 25/3/26 16/16/16
f 11/11/11 20/2/21 25/3/26
f 25/3/26 18/1/18 21/5/22
f 25/3/26 21/5/22 16/16/16
f 25/3/26 20/2/21 18/1/18
f 20/2/21 24/4/25 18/1/18
f 22/8/23 26/6/27 17/17/17
f 22/8/23 18/1/18 26/6/27
f 26/6/27 24/4/25 17/17/17
f 26/6/27 18/1/18 24/4/25
f 27/19/28 28/20/29 29/21/30
f 27/19/28 30/22/31 28/20/29
f 27/19/28 29/21/30 31/23/32
f 27/19/28 32/24/33 30/22/31
f 27/19/28 31/23/32 33/23/34
f 27/19/28 34/25/33 32/24/33
f 27/19/28 33/23/34 35/26/35
f 27/19/28 35/26/35 34/25/33
f 28/20/29 36/19/36 29/21/30
f 28/20/29 30/22/31 37/27/37
f 28/20/29 38/22/38 36/19/36
f 28/20/29 37/27/37 38/22/38
f 36/19/36 31/23/32 29/21/30
f 36/19/36 32/24/33 34/25/33
f 36/19/36 34/25/33 35/26/35
f 36/19/36 38/22/38 32/24/33
f 36/19/36 35/26/35 31/23/32
f 33/23/34 39/28/39 35/26/35
f 33/23/34 31/23/32 40/29/40
f 33/23/34 40/29/40 39/28/39
f 39/28/39 31/23/32 35/26/35
f 39/28/39 40/29/40 31/23/32
f 30/22/31 41/30/41 37/27/37
f 30/22/31 32/24/33 42/31/33
f 30/22/31 42/31/33 41/30/41
f 38/22/38 37/27/37 41/30/41
f 38/22/38 42/31/33 32/24/33
f 38/22/38 41/30/41 42/31/33
f 43/32/42 44/32/43 45/32/44
f 43/32/42 46/32/45 44/32/43
f 43/32/42 45/32/44 47/32/46
f 43/32/42 48/32/47 46/32/45
f 43/32/42 47/32/46 49/32/48
f 43/32/42 50/32/49 48/32/47
f 43/32/42 49/32/48 50/32/49
f 44/32/43 51/32/50 45/32/44
f 44/32/43 46/32/45 52/32/51
f 44/32/43 52/32/51 51/32/50
f 47/32/46 53/32/52 49/32/48
f 47/32/46 45/32/44 54/32/53
f 47/32/46 54/32/53 53/32/52
f 48/32/47 50/32/49 55/32/54
f 48/32/47 56/32/55 46/32/45
f 48/32/47 55/32/54 56/32/55
f 52/32/51 57/32/56 51/32/50
f 52/32/51 46/32/45 58/32/57
f 52/32/51 59/32/58 57/32/56
f 52/32/51 58/32/57 59/32/58
f 46/32/45 56/32/55 58/32/57
f 49/32/48 53/32/52 60/32/59
f 49/32/48 61/32/60 50/32/49
f 49/32/48 62/32/61 61/32/60
f 50/32/49 61/32/60 55/32/54
f 45/32/44 63/32/62 54/32/53
f 45/32/44 51/32/50 63/32/62
f 51/32/50 57/32/56 63/32/62
f 59/32/58 58/32/57 64/32/63
f 59/32/58 65/32/64 57/32/56
f 59/32/58 64/32/63 65/32/64
f 58/32/57 56/32/55 64/32/63
f 53/32/52 54/32/53 66/32/65
f 54/32/53 63/32/62 66/32/65
f 60/32/59 67/32/66 61/32/60
f 60/32/59 68/32/67 67/32/66
f 60/32/59 61/32/60 62/32/68
f 55/32/54 69/32/69 56/32/55
f 55/32/54 61/32/60 70/32/70
f 55/32/54 70/32/70 71/32/71
f 55/32/54 71/32/71 69/32/72
f 61/32/60 67/32/66 70/32/70
f 56/32/55 71/32/71 64/32/63
f 57/32/56 65/32/64 72/32/73
f 57/32/56 73/32/74 63/32/62
f 57/32/56 72/32/73 73/32/74
f 63/32/62 73/32/74 66/32/65
f 68/32/67 74/32/75 67/32/66
f 68/32/67 75/32/76 74/32/75
f 70/32/70 76/32/77 71/32/71
f 70/32/70 67/32/66 77/32/78
f 70/32/70 77/32/78 76/32/77
f 74/32/75 75/32/76 77/32/78
f 74/32/75 77/32/78 67/32/66
f 65/32/64 78/32/79 72/32/73
f 65/32/64 79/32/80 78/32/79
f 77/32/78 79/32/80 76/32/77
f 77/32/78 75/32/76 79/32/80
f 73/32/74 80/32/81 66/32/65
f 66/32/65 80/32/81 75/32/76
f 78/32/79 79/32/80 81/32/82
f 80/32/81 82/32/83 75/32/76
f 79/32/80 83/32/84 81/32/82
f 79/32/80 75/32/76 83/32/84
f 83/32/84 75/32/76 82/32/83
f 84/33/85 73/34/74 72/34/73
f 84/33/85 85/35/86 73/34/74
f 84/33/85 72/34/73 86/35/87
f 84/33/85 87/36/88 85/35/86
f 84/33/85 86/35/87 87/36/88
f 73/34/74 85/35/86 80/37/81
f 72/34/73 78/37/79 86/35/87
f 87/36/88 88/38/89 85/35/86
f 87/36/88 86/35/87 89/38/90
f 89/38/90 86/35/87 78/37/79
f 85/35/86 88/38/89 80/37/81
f 90/39/91 91/40/92 92/40/93
f 90/39/91 93/41/94 91/40/92
f 90/39/91 92/40/93 94/41/95
f 90/39/91 95/42/96 93/41/94
f 90/39/91 94/41/95 95/42/96
f 91/40/92 96/43/97 92/40/93
f 91/40/92 93/41/94 97/44/98
f 91/40/92 97/44/98 96/43/97
f 94/41/95 98/45/99 95/42/96
f 94/41/95 92/40/93 99/44/100
f 94/41/95 99/44/100 98/45/99
f 98/45/99 97/44/98 93/41/94
f 98/45/99 93/41/94 95/42/96
f 98/45/99 99/44/100 97/44/98
f 99/44/100 92/40/93 96/43/97
f 99/44/100 96/43/97 97/44/98
f 100/46/101 101/46/102 102/46/103
f 100/46/101 103/46/104 101/46/102
f 100/46/101 102/46/103 104/46/105
f 100/46/101 104/46/105 103/46/104
f 105/47/106 106/48/106 107/47/106
f 105/47/106 107/47/106 108/47/106
f 105/47/106 108/47/106 109/47/106
f 105/47/106 109/47/106 110/48/106
f 108/47/106 111/48/106 109/47/106
f 109/47/107 111/48/107 108/47/107
f 109/47/107 108/47/107 107/47/107
f 109/47/107 107/47/107 105/47/107
f 109/47/107 105/47/107 110/48/107
f 107/47/107 106/48/107 105/47/107
f 88/49/89 82/50/83 80/51/81
f 88/49/89 83/52/84 82/50/83
f 83/52/84 89/49/90 81/50/82
f 89/49/90 78/51/79 81/50/82
f 87/53/88 83/53/84 88/53/89
f 87/53/88 89/53/90 83/53/84
f 112/47/108 113/47/109 114/48/109
f 114/48/110 113/47/110 112/47/111
f 115/47/112 116/48/113 117/47/113
f 116/48/114 115/47/115 117/47/114
f 118/47/116 119/47/117 120/48/118
f 120/48/119 119/47/120 118/47/121
f 121/47/122 122/48/123 123/47/124
f 122/48/125 121/47/126 123/47/127
f 69/54/72 71/55/71 56/56/55
f 62/54/68 49/56/48 60/55/59
vt 0.0668697 1.003
vt 1.00967 0.801784
vt 1.03662 1.05693
vt -0.170204 0.851745
vt 0.282023 0.708892
o merged_1_0_node
g polygon_0
usemtl TEX_ANIM_EYE_mat_id
f 76/57/77 64/58/63 71/59/71
f 76/57/77 79/60/80 65/61/64
f 76/57/77 65/61/64 64/58/63
f 66/61/65 75/60/76 68/57/67
f 60/59/59 53/58/52 68/57/67
f 53/58/52 66/61/65 68/57/67
