mtllib Glaceon.mtl
v 0 0.246623 0.0723509
vt 0.739458 0.97035
vn 2.586931E-06 -0.9373392 -0.3484181
v 0.135514 0.308892 0.0456631
vn 0.5398962 -0.6245553 -0.5643073
v 0.152881 0.268385 0.17393
vn 0.5356801 -0.8430962 -0.04728261
v 0 0.32296 -0.0193631
vn 0 -0.5524741 -0.8335301
v 0 0.236231 0.206126
vn 0 -0.99928 0.0379419
v -0.135514 0.308892 0.0456631
vn -0.539896 -0.6245559 -0.5643069
v -0.152881 0.268385 0.17393
vn -0.5356801 -0.8430962 -0.04728261
v 0.212463 0.356884 0.168926
vn 0.9627631 -0.270189 -0.009230151
v 0.0837523 0.43004 -0.0455577
vn 0.369512 -0.0148665 -0.929107
v 0.205405 0.431021 0.0551745
vn 0.8591303 0.01836961 -0.5114272
v -0.0809986 0.262262 0.303683
vn -0.332208 -0.8580111 0.3917331
v 0.0809986 0.262262 0.303683
vn 0.332208 -0.8580111 0.3917331
v -0.0837523 0.43004 -0.0455577
vn -0.369512 -0.0148665 -0.929107
v -0.212463 0.356884 0.168926
vn -0.9627631 -0.270189 -0.009230141
v -0.205405 0.431021 0.0551745
vn -0.8591303 0.01836961 -0.5114272
v 0.20968 0.507692 0.167233
vn 0.9266574 0.3753738 0.02001379
v 0.1824 0.346618 0.284216
vn 0.8218667 -0.2329849 0.5198588
v -0.1824 0.346618 0.284216
vn -0.8218669 -0.232984 0.519859
v -0.0838378 0.344525 0.364624
vn -0.5245751 -0.174036 0.8333862
v -0.125831 0.555084 0.0406122
vn -0.5376591 0.6556811 -0.5300991
v -0.20968 0.507692 0.167233
vn -0.9266574 0.3753738 0.02001369
v 0.125831 0.555084 0.0406122
vn 0.5376591 0.6556811 -0.5300991
v 0 0.542063 -0.0245479
vn 0 0.5644959 -0.8254359
v 0.0838378 0.344525 0.364624
vn 0.5245751 -0.174036 0.8333862
v -0.129855 0.599737 0.203787
vn -0.532497 0.8442649 0.0605293
v -0.162404 0.507765 0.291703
vn -0.7729817 0.2803869 0.5691068
v 0 0.62884 0.0995026
vn 0 0.9573584 -0.2889031
v 0.129855 0.599737 0.203787
vn 0.532497 0.8442649 0.0605293
v 0.162404 0.507765 0.291703
vn 0.7729817 0.2803869 0.5691068
v -0.0652179 0.57656 0.316134
vn -0.2861051 0.7402153 0.6084613
v 0.0652179 0.57656 0.316134
vn 0.2842869 0.7394317 0.6102638
v 0 0.62267 0.237272
vn 0 0.9761928 0.216905
v 0 0.51969 0.243909
vt 0.126348 0.956711
vn 0 -0.6997439 -0.7143939
v -0.215669 0.504525 0.232975
vn 0.08365924 -0.6376183 -0.7657964
v -0.13834 0.611876 0.215255
vn 0.06359089 -0.207961 -0.9760679
v -0.176545 0.474745 0.312552
vn 0.10426 -0.9335046 -0.3430729
v -0.0484561 0.636102 0.215739
v -0.0899747 0.466516 0.380814
vn 0.0892963 -0.9468379 -0.30907
v -3.90083E-05 0.461951 0.399242
v 0.0899747 0.466516 0.380814
vn -0.08927286 -0.9468355 -0.3090838
v 0.176545 0.474745 0.312552
vn -0.1042601 -0.9335045 -0.3430732
v 0.215669 0.504525 0.232975
vn -0.08365934 -0.6376183 -0.7657964
v 0.13834 0.611876 0.215255
vn -0.06359089 -0.207961 -0.9760679
v 0.0484561 0.636102 0.215739
v 0 0.09067545 -0.2160572
vt 0.233208 0.606196
vn 0 -0.3496431 -0.936883
v -0.133201 -1.473622E-05 -0.1629721
vt 0.233208 0.98581
vn -0.2752197 -0.7679517 -0.5783635
v -0.131555 0.1657431 -0.1299822
vt 0.233208 0.537669
vn -0.8632548 0.1684914 -0.475817
v 0 0.0707578 0.00904845
vt 0.233208 0.712758
vn 0 -0.9999419 0.0107771
v 0 0.1657431 -0.2160553
vt 0.233208 0.60016
vn 0 0.2273129 -0.9738218
v 0.133201 -1.473622E-05 -0.1629721
vn 0.2752207 -0.7679514 -0.5783634
v 0.131555 0.1657431 -0.1299812
vn 0.8632553 0.1684905 -0.4758163
v -0.130889 0.08229795 -0.03889713
vt 0.233208 0.749378
vn -0.9005492 -0.3961749 0.1790438
v 0.130889 0.08229795 -0.03889713
vn 0.9005492 -0.3961749 0.1790438
v 0 0.09024593 0.2172603
vt 0.319396 0.68961
vn 0 -0.3636858 0.9315217
v -0.131555 0.1657432 0.1423041
vt 0.319396 0.620717
vn -0.8647575 0.1112029 0.4897227
v -0.133201 -1.286134E-05 0.1571964
vt 0.319396 0.969662
vn -0.2541195 -0.7799051 0.5719888
v 0 0.1657432 0.2161869
vt 0.319396 0.635701
vn 0 0.110853 0.9938368
vt 0.319396 0.683033
v 0.131555 0.1657432 0.1423041
vn 0.8647575 0.1112029 0.4897227
v 0.133201 -1.286134E-05 0.1571964
vn 0.2541185 -0.7799053 0.571989
v -0.130889 0.08875714 0.06586922
vt 0.319396 0.711593
vn -0.9309797 -0.3212279 -0.1734636
v 0.130889 0.08875714 0.06586932
vn 0.9309797 -0.3212279 -0.1734636
v 0 0.386054 -0.431885
vt 1 0.591219
vn 0 0.7384239 0.6743369
v 0 0.468956 -0.51588
vt 1 0.753532
v -0.08425481 0.372052 -0.441221
vt 0.846475 0.589757
vn -0.9878355 0.1242979 -0.09344085
v 0.08425481 0.372052 -0.441221
vt 1.14979 0.589757
vn 0.9878355 0.1242969 -0.09344085
v -0.0421274 0.291236 -0.332579
vt 0.922304 0.346031
vn -0.8909295 0.1095449 0.4407318
v 0.0421274 0.291236 -0.332579
vt 1.07396 0.346031
vn 0.8909295 0.1095449 0.4407318
v 0 0.298236 -0.327911
vt 1 0.346762
vn 0 0.8350508 0.5501729
v 0 0.358051 -0.450557
vt 1 0.588296
v 0 0.23724 -0.206053
vt 1 0.105105
vn 0 -0.549025 0.835806
v 0 0.284235 -0.337247
vt 1 0.3453
vn 0 -0.8876011 -0.460613
v 0 0.626372 0.301352
vt 0.508804 0.94488
vn 5.577542E-05 0.8572153 0.5149582
v -0.0866895 0.543145 0.357623
vt 0.564697 0.921917
vn -0.4318009 0.5345289 0.726517
v -3.90091E-05 0.553089 0.381263
vt 0.508767 0.891867
vn -2.84133E-05 0.505752 0.8626789
v -0.0488312 0.615241 0.286976
vt 0.564697 0.946595
vn -0.09598746 0.8774287 0.4700058
v 0.0866895 0.543145 0.357623
vn 0.431673 0.534503 0.726612
v 0 0.636102 0.227127
vt 0.519501 0.983146
vn 0 0.991516 0.129985
v 0.0488312 0.615241 0.286976
vn 0.09598754 0.8774284 0.4700062
vt 0.564697 0.907379
vn 2.253149E-05 0.2388859 0.9710476
vt 0.915172 0.942317
v -0.119072 0.247841 -0.108381
vn -0.7309749 0.6323439 -0.256548
v -0.119072 0.247841 0.131562
vn -0.7970988 0.5283619 0.2923479
v 0 0.247841 0.204802
vn 0 0.5208198 0.8536667
v 0 0.24689 -0.180007
vn 0 0.7615142 -0.6481482
v 0.119072 0.247841 -0.108381
vn 0.7309749 0.6323439 -0.256548
v 0.119072 0.247841 0.131562
vn 0.7970988 0.5283619 0.2923479
v 0 0.303133 0.377808
vt 0 0.0386529
vn 0 -0.7012618 0.7129038
vt -0.265766 -0.0807068
vt 0.265766 -0.0807068
vt -0.275081 0.169953
vt 0.275081 0.169953
v 0 0.356774 0.404593
vt 0 0.21377
vn 0 -0.0207323 0.9997851
v 0 0.393006 0.383334
vt 0 0.346944
vn 0 0.124484 0.9922217
v 0.22366 0.227392 0.18524
vt 0 0.865039
vn -0.9170197 -0.158136 -0.3661529
v 0.276493 0.148699 0.192828
vt 0 0.990962
vn 0.2005599 -0.9755316 -0.09007607
v 0.211246 0.215434 0.26578
vt -0.124285 0.865039
vn -0.4383929 -0.117304 0.8910957
v 0.265766 0.244012 0.116432
vt 0.120421 0.865039
vn 0.232095 0.228939 -0.945367
v 0.203336 0.484662 0.227049
vt 0 0.441727
vn -0.1954909 0.9739397 0.114999
v 0.253353 0.232054 0.196972
vn 0.916838 0.162666 0.3646201
vt 0 0.990468
vt 0.118742 0.865039
vt -0.124451 0.865039
vt 0 0.441897
v -0.22366 0.227391 0.18524
vn 0.9172556 -0.1582549 -0.3655099
v -0.211246 0.215434 0.26578
vn 0.4404229 -0.113677 0.8905646
v -0.276233 0.15401 0.191512
vn -0.2060141 -0.9731072 -0.103056
v -0.203336 0.484661 0.227049
vn 0.195493 0.9739392 0.115
v -0.265766 0.244011 0.116432
vn -0.229428 0.235833 -0.9443229
v -0.253353 0.232053 0.196972
vn -0.9164883 0.1629969 0.3653507
v 0.244925 0.671096 0.0710048
vt 0.471537 0.282082
vn 0.5431232 0.3131761 0.7790622
v 0.168725 0.563229 0.186279
vt 0.343078 -0.0143999
vn -0.6989871 -0.699707 0.14774
v 0.31768 0.614332 0.0632043
vt 0.621636 0.223195
vn 0.6398124 -0.7191855 -0.2709472
v 0.185871 0.740596 0.103937
vt 0.322247 0.343414
vn -0.7550793 0.6512643 0.07556603
v 0.353792 0.802646 -0.0390613
vt 0.619788 0.634728
vn 0.08189221 0.4025421 -0.9117311
v -0.244925 0.671096 0.0710049
vn -0.5431232 0.3131761 0.7790622
v -0.31768 0.614332 0.0632043
vn -0.6398122 -0.7191852 -0.2709481
v -0.168725 0.563229 0.186279
vn 0.6989872 -0.6997072 0.147739
v -0.353792 0.802646 -0.0390613
vn -0.08189037 0.4025409 -0.9117318
v -0.185871 0.740596 0.103937
vn 0.7550797 0.6512638 0.07556607
v 0 0.266752 0.0740555
vt 1 0.988611
vn 0 0.9998879 0.0149756
vt 1 0.24482
vt 0.651407 0.454513
vt 1.34859 0.454513
vt 0.651407 1.15696
vt 1.34859 1.15697
v 0.221828 0.656575 0.036529
vt 0.23686 0.0474754
vn -0.544561 -0.308578 -0.7798929
vt 0.23686 0.0762986
v -0.221828 0.656575 0.036529
vn 0.5445608 -0.3085789 -0.7798927
vt 0.563986 0.906605
vt 0.517266 0.898924
vn -0.3687719 0.2835059 0.8852298
vt 0.563986 0.885885
v -0.169559 0.519857 0.302852
vt 0.50778 0.92157
vn -0.6509532 0.5267301 0.5466401
vt 0.515258 0.947014
vn -0.5176878 0.7294587 0.4470899
vt 0.563986 0.941776
vn 0.3686139 0.2835179 0.8852917
vt 0.525387 0.964204
vn 0.38497 0.8851811 0.261252
vt 0.563986 0.963216
vn 0.9051127 0.4067259 0.123875
v 0.169559 0.519857 0.302851
vn 0.6509532 0.5267301 0.5466401
vn 0.5176878 0.7294587 0.4470899
vn -0.3849699 0.8851808 0.261253
vn -0.9051127 0.4067259 0.123875
vt 0.924633 0.350287
v 0.0623489 0.504737 0.365812
vn 0.331149 0.265247 0.9055299
v -0.0623489 0.504737 0.365812
vn -0.3330849 0.263081 0.9054518
vn -0.7514099 0.5415149 0.377021
vn -0.6807076 0.2532198 0.6873986
vn 0.7514099 0.5415149 0.377021
vn 0.680707 0.25322 0.6873991
vt 0.719617 0.911099
vn 0 -0.142682 -0.9897686
vn 0.755206 -0.0935259 -0.648781
vt 0.56443 0.978817
vn -0.755206 -0.0935259 -0.648781
vt 0.925372 0.350287
vt 0.798162 0.143877
o merged_0_0_node
g polygon_0
usemtl mat_body1_mat_id
f 1/1/1 2/1/2 3/1/3
f 1/1/1 4/1/4 2/1/2
f 1/1/1 3/1/3 5/1/5
f 1/1/1 6/1/6 4/1/4
f 1/1/1 5/1/5 7/1/7
f 1/1/1 7/1/7 6/1/6
f 2/1/2 8/1/8 3/1/3
f 2/1/2 4/1/4 9/1/9
f 2/1/2 10/1/10 8/1/8
f 2/1/2 9/1/9 10/1/10
f 5/1/5 11/1/11 7/1/7
f 5/1/5 3/1/3 12/1/12
f 5/1/5 12/1/12 11/1/11
f 6/1/6 13/1/13 4/1/4
f 6/1/6 7/1/7 14/1/14
f 6/1/6 15/1/15 13/1/13
f 6/1/6 14/1/14 15/1/15
f 4/1/4 13/1/13 9/1/9
f 8/1/8 10/1/10 16/1/16
f 8/1/8 17/1/17 3/1/3
f 3/1/3 17/1/17 12/1/12
f 11/1/11 18/1/18 7/1/7
f 11/1/11 19/1/19 18/1/18
f 18/1/18 14/1/14 7/1/7
f 15/1/15 20/1/20 13/1/13
f 15/1/15 14/1/14 21/1/21
f 15/1/15 21/1/21 20/1/20
f 9/1/9 22/1/22 10/1/10
f 9/1/9 13/1/13 23/1/23
f 9/1/9 23/1/23 22/1/22
f 13/1/13 20/1/20 23/1/23
f 10/1/10 22/1/22 16/1/16
f 17/1/17 24/1/24 12/1/12
f 21/1/21 25/1/25 20/1/20
f 21/1/21 26/1/26 25/1/25
f 23/1/23 27/1/27 22/1/22
f 23/1/23 20/1/20 27/1/27
f 20/1/20 25/1/25 27/1/27
f 16/1/16 22/1/22 28/1/28
f 16/1/16 28/1/28 29/1/29
f 22/1/22 27/1/27 28/1/28
f 26/1/26 30/1/30 25/1/25
f 29/1/29 28/1/28 31/1/31
f 27/1/27 25/1/25 32/1/32
f 27/1/27 32/1/32 28/1/28
f 32/1/32 25/1/25 30/1/30
f 32/1/32 31/1/31 28/1/28
f 33/2/33 34/2/34 35/2/35
f 33/2/33 36/2/36 34/2/34
f 33/2/33 35/2/35 37/2/35
f 33/2/33 38/2/37 36/2/36
f 33/2/33 39/2/1 38/2/37
f 33/2/33 40/2/38 39/2/1
f 33/2/33 41/2/39 40/2/38
f 33/2/33 42/2/40 41/2/39
f 33/2/33 43/2/41 42/2/40
f 33/2/33 44/2/41 43/2/41
f 45/3/42 46/4/43 47/5/44
f 45/3/42 48/6/45 46/4/43
f 45/3/42 47/5/44 49/7/46
f 45/3/42 50/4/47 48/6/45
f 45/3/42 49/7/46 51/5/48
f 45/3/42 51/5/48 50/4/47
f 46/4/43 52/8/49 47/5/44
f 46/4/43 48/6/45 52/8/49
f 51/5/48 53/8/50 50/4/47
f 50/4/47 53/8/50 48/6/45
f 54/9/51 55/10/52 56/11/53
f 54/9/51 57/12/54 55/10/52
f 54/9/51 56/11/53 48/13/45
f 54/9/51 58/10/55 57/12/54
f 54/9/51 48/13/45 59/11/56
f 54/9/51 59/11/56 58/10/55
f 55/10/52 60/14/57 56/11/53
f 56/11/53 60/14/57 48/13/45
f 59/11/56 61/14/58 58/10/55
f 59/11/56 48/13/45 61/14/58
f 62/15/59 63/16/23 64/17/60
f 62/15/59 65/18/61 63/16/23
f 62/15/59 64/17/60 66/19/62
f 62/15/59 67/20/63 65/18/61
f 62/15/59 66/19/62 68/21/64
f 62/15/59 68/21/64 67/20/63
f 63/16/23 69/22/33 64/17/60
f 63/16/23 65/18/61 69/22/33
f 66/19/62 70/23/65 68/21/64
f 66/19/62 64/17/60 71/24/66
f 66/19/62 71/24/66 70/23/65
f 71/24/66 67/20/63 70/23/65
f 71/24/66 69/22/33 65/18/61
f 71/24/66 64/17/60 69/22/33
f 71/24/66 65/18/61 67/20/63
f 67/20/63 68/21/64 70/23/65
f 72/25/67 73/26/68 74/27/69
f 72/25/67 75/28/70 73/26/68
f 72/25/67 74/27/69 76/26/71
f 72/25/67 77/29/72 75/28/70
f 72/25/67 76/26/71 78/28/73
f 72/25/67 78/28/73 77/29/72
f 73/26/68 39/30/74 74/27/69
f 74/27/69 39/30/74 76/26/71
f 55/31/52 79/31/75 47/31/44
f 55/31/52 80/31/76 79/31/75
f 55/31/52 47/31/44 52/31/49
f 55/31/52 81/31/77 80/31/76
f 55/31/52 52/31/49 60/31/57
f 55/31/52 57/31/54 81/31/77
f 79/31/75 82/31/78 47/31/44
f 52/31/49 48/31/45 60/31/57
f 57/31/54 58/31/55 81/31/77
f 82/31/78 49/31/46 47/31/44
f 82/31/78 51/31/48 49/31/46
f 82/31/78 83/31/79 51/31/48
f 48/31/45 53/31/50 61/31/58
f 53/31/50 58/31/55 61/31/58
f 53/31/50 51/31/48 58/31/55
f 51/31/48 83/31/79 58/31/55
f 81/31/77 58/31/55 84/31/80
f 84/31/80 58/31/55 83/31/79
f 85/32/81 11/33/11 12/34/12
f 85/32/81 19/35/19 11/33/11
f 85/32/81 12/34/12 24/36/24
f 85/32/81 86/37/82 19/35/19
f 85/32/81 24/36/24 86/37/82
f 19/35/19 86/37/82 87/38/83
f 87/38/83 86/37/82 24/36/24
f 88/39/84 89/40/85 90/41/86
f 88/39/84 91/42/87 89/40/85
f 88/39/84 90/41/86 92/43/88
f 88/39/84 92/43/88 91/42/87
f 93/39/89 89/44/85 91/45/87
f 93/39/89 90/46/86 89/44/85
f 93/39/89 91/45/87 92/47/88
f 93/39/89 92/47/88 90/46/86
f 94/39/90 95/41/91 96/40/92
f 94/39/90 97/43/93 95/41/91
f 94/39/90 96/40/92 98/42/94
f 94/39/90 98/42/94 97/43/93
f 99/39/95 98/45/94 96/44/92
f 99/39/95 97/47/93 98/45/94
f 99/39/95 96/44/92 95/46/91
f 99/39/95 95/46/91 97/47/93
f 100/48/96 101/49/97 102/50/98
f 100/48/96 103/51/99 101/49/97
f 100/48/96 102/50/98 104/52/100
f 100/48/96 104/52/100 103/51/99
f 105/48/101 106/50/102 107/49/103
f 105/48/101 108/52/104 106/50/102
f 105/48/101 107/49/103 109/51/105
f 105/48/101 109/51/105 108/52/104
f 110/53/106 82/54/78 79/55/75
f 110/53/106 83/56/79 82/54/78
f 110/53/106 79/55/75 80/57/76
f 110/53/106 84/58/80 83/56/79
f 111/59/107 101/59/97 103/60/99
f 111/59/107 102/59/98 101/59/97
f 111/59/107 104/59/100 102/59/98
f 111/59/107 103/59/99 104/59/100
f 112/59/108 109/60/105 107/59/103
f 112/59/108 107/59/103 106/59/102
f 112/59/108 106/59/102 108/59/104
f 112/59/108 108/59/104 109/59/105
f 73/61/68 38/62/109 39/63/74
f 73/61/68 113/64/110 38/62/109
f 73/61/68 35/65/111 113/64/110
f 73/61/68 75/66/70 35/65/111
f 39/63/74 40/62/112 76/61/71
f 75/66/70 37/67/113 35/65/111
f 75/66/70 33/68/114 37/67/113
f 40/62/112 114/64/115 76/61/71
f 114/64/115 43/65/116 76/61/71
f 43/65/116 78/66/73 76/61/71
f 43/65/116 44/67/117 78/66/73
f 44/67/117 33/68/118 78/66/73
f 30/69/30 31/69/31 32/69/32
f 30/69/30 115/69/119 31/69/31
f 30/69/30 116/69/120 115/69/119
f 30/69/30 26/69/26 116/69/120
f 31/69/31 115/69/119 29/69/29
f 29/69/29 17/69/17 16/69/16
f 17/69/17 8/69/8 16/69/16
f 113/2/110 35/2/111 34/2/121
f 113/2/110 34/2/121 36/2/122
f 113/2/110 36/2/122 38/2/109
f 114/2/115 42/2/123 43/2/116
f 114/2/115 41/2/124 42/2/123
f 114/2/115 40/2/112 41/2/124
f 81/70/77 110/70/106 80/70/76
f 81/70/77 84/70/80 110/70/106
f 77/29/125 78/28/126 33/71/125
f 77/29/125 33/71/125 75/28/127
f 21/72/21 18/72/18 26/72/26
f 21/72/21 14/72/14 18/72/18
f 87/73/83 115/73/119 116/73/120
vt 0.0692275 0.997774
vt 0.884 1.00178
vt 0.240407 0.745943
vt 1.01924 0.761895
vt -0.327376 0.797595
o merged_1_0_node
g polygon_0
usemtl TEX_ANIM_EYE_mat_id
f 116/74/120 26/75/26 19/76/19
f 19/76/19 26/75/26 18/77/18
f 87/78/83 24/76/24 115/74/119
f 115/74/119 24/76/24 29/75/29
f 24/76/24 17/77/17 29/75/29
f 116/74/120 19/76/19 87/78/83
