ply
format ascii 1.0
element vertex 836
property float x
property float y
property float z
property uchar red
property uchar green
property uchar blue
element face 884
property list uchar int vertex_index
end_header
-0.72076 -0.00463 0.21975 239 209 80
-0.46318 -0.00463 0.21975 239 209 80
-0.46318 0.19555 0.21975 239 209 80
-0.72076 0.19555 0.21975 239 209 80
-0.42097 0.19555 0.26542 227 195 62
-0.46318 0.19555 0.26542 227 195 62
-0.46318 0.19555 0.21975 227 195 62
-0.42097 0.19555 0.21975 227 195 62
-0.42097 -0.00463 0.21975 227 195 62
-0.46318 -0.00463 0.21975 227 195 62
-0.72076 0.19555 0.26542 227 195 62
-0.72076 0.19555 0.21975 227 195 62
-0.72076 -0.00463 0.21975 227 195 62
-0.72076 -0.00463 0.26542 227 195 62
-0.16893 0.19555 0.21975 227 195 62
-0.16893 0.19555 0.26542 227 195 62
-0.12959 0.19555 0.26542 227 195 62
-0.12959 0.19555 0.21975 227 195 62
-0.12959 -0.00463 0.21975 227 195 62
-0.16893 -0.00463 0.21975 227 195 62
0.11264 0.19555 0.21975 227 195 62
0.11264 0.19555 0.26542 227 195 62
0.15383 0.19555 0.26542 227 195 62
0.15383 0.19555 0.21975 227 195 62
0.42407 0.19555 0.26542 227 195 62
0.42407 0.19555 0.21975 227 195 62
0.42407 -0.00463 0.26542 227 195 62
0.42407 -0.00463 0.21975 227 195 62
0.15383 -0.00463 0.21975 227 195 62
0.11264 -0.00463 0.21975 227 195 62
-0.42097 -0.00463 0.21975 239 209 80
-0.16893 -0.00463 0.21975 239 209 80
-0.16893 0.19555 0.21975 239 209 80
-0.42097 0.19555 0.21975 239 209 80
-0.12959 0.19555 0.21975 239 209 80
-0.12959 -0.00463 0.21975 239 209 80
0.11264 -0.00463 0.21975 239 209 80
0.11264 0.19555 0.21975 239 209 80
0.15383 -0.00463 0.21975 239 209 80
0.42407 -0.00463 0.21975 239 209 80
0.42407 0.19555 0.21975 239 209 80
0.15383 0.19555 0.21975 239 209 80
0 1.13805 0.49757 239 209 80
0.27817 1.07537 0.49757 239 209 80
0.7654 1.07537 0.49757 239 209 80
0.72774 1.13805 0.49757 239 209 80
0.80185 1.11319 0.49757 239 209 80
0.80185 1.6 0.49757 239 209 80
0.72774 1.6 0.49757 239 209 80
-0.27817 1.07537 0.49757 239 209 80
-0.7654 1.07537 0.49757 239 209 80
-0.72774 1.13805 0.49757 239 209 80
-0.80185 1.11319 0.49757 239 209 80
-0.80185 1.6 0.49757 239 209 80
-0.72774 1.6 0.49757 239 209 80
-0.27817 0.875 0.49757 239 209 80
0.27817 0.875 0.49757 239 209 80
0.27817 0.875 0.7012 239 209 80
0.27817 1.07537 0.7012 239 209 80
0.72774 1.6 0.7012 239 209 80
0.80185 1.6 0.7012 239 209 80
0.72774 1.13805 0.7012 239 209 80
0 1.13805 0.7012 239 209 80
-0.27817 0.875 0.7012 239 209 80
-0.72774 1.13805 0.7012 239 209 80
-0.80185 1.6 0.7012 239 209 80
-0.72774 1.6 0.7012 239 209 80
-0.27817 1.07537 0.7012 239 209 80
-0.7654 1.07537 0.7012 239 209 80
-0.80185 1.11319 0.7012 239 209 80
0.80185 1.11319 0.7012 239 209 80
0.7654 1.07537 0.7012 239 209 80
0.19441 1.56732 0.54404 179 175 176
0.19441 1.11371 0.54404 179 175 176
0.30299 1.11371 0.54404 179 175 176
0.30299 1.56732 0.54404 179 175 176
0.19441 1.56732 0.65473 179 175 176
0.30299 1.56732 0.65473 179 175 176
0.30299 1.56732 0.54404 238 232 234
0.30299 1.11371 0.54404 238 232 234
0.76046 1.11371 0.54404 238 232 234
0.76046 1.56732 0.54404 238 232 234
0.19441 1.56732 0.54404 238 232 234
-0.19441 1.56732 0.54404 238 232 234
-0.19441 1.11371 0.54404 238 232 234
0.19441 1.11371 0.54404 238 232 234
-0.19441 1.56732 0.54404 179 175 176
-0.30299 1.56732 0.54404 179 175 176
-0.30299 1.11371 0.54404 179 175 176
-0.19441 1.11371 0.54404 179 175 176
-0.30299 1.56732 0.65473 179 175 176
-0.19441 1.56732 0.65473 179 175 176
-0.30299 1.56732 0.54404 238 232 234
-0.76046 1.56732 0.54404 238 232 234
-0.76046 1.11371 0.54404 238 232 234
-0.30299 1.11371 0.54404 238 232 234
-0.53418 -0.75469 0.26521 255 255 255
-0.15458 -0.75469 0.26521 255 255 255
-0.15458 -0.75469 0.21045 255 255 255
-0.53418 -0.75469 0.21045 255 255 255
-0.15458 -0.37508 0.21045 255 255 255
-0.15458 -0.37508 0.26521 255 255 255
-0.53418 -0.37508 0.21045 255 255 255
-0.53418 -0.37508 0.26521 255 255 255
-0.31516 -0.59411 0.21045 255 255 255
-0.3736 -0.59411 0.21045 255 255 255
-0.31516 -0.53567 0.21045 255 255 255
-0.3736 -0.53567 0.21045 255 255 255
-0.3736 -0.59411 0.21045 55 54 53
-0.31516 -0.59411 0.21045 55 54 53
-0.31516 -0.53567 0.21045 55 54 53
-0.3736 -0.53567 0.21045 55 54 53
-1.07647 0.46508 0.44916 255 240 100
-0.789 0.64692 0.44916 255 240 100
-1.04439 0.64689 0.44916 255 240 100
-1.07647 0.62092 0.44916 255 240 100
-1.07647 0.22089 0.44916 255 240 100
-1.22267 0.46525 0.44916 255 240 100
-1.22267 0.22041 0.44916 255 240 100
-0.789 0.03674 0.44916 255 240 100
-1.04439 0.03686 0.44916 255 240 100
-1.07647 0.06284 0.44916 255 240 100
-1.24397 0.44473 0.44916 255 240 100
-1.24397 0.24093 0.44916 255 240 100
-1.07647 0.46508 0.74961 255 240 100
-1.07647 0.62092 0.74961 255 240 100
-0.789 0.03674 0.74961 255 240 100
-1.04439 0.03686 0.74961 255 240 100
-1.07647 0.22089 0.74961 255 240 100
-1.22267 0.22041 0.74961 255 240 100
-1.24397 0.24093 0.74961 255 240 100
-1.07647 0.06284 0.74961 255 240 100
-1.24397 0.44473 0.74961 255 240 100
-1.22267 0.46525 0.74961 255 240 100
-1.04439 0.64689 0.74961 255 240 100
-0.789 0.64692 0.74961 255 240 100
0.79065 0.02459 0.45762 255 240 100
1.02129 0.02413 0.45762 255 240 100
1.04271 0.04236 0.45762 255 240 100
1.04271 0.13187 0.45762 255 240 100
1.04271 0.13187 0.74115 255 240 100
1.04271 0.04236 0.74115 255 240 100
0.79065 0.02459 0.74115 255 240 100
1.02129 0.02413 0.74115 255 240 100
1.04271 0.28119 0.45762 255 240 100
1.14226 0.28197 0.45762 255 240 100
1.04271 0.28139 0.74115 255 240 100
1.14226 0.28197 0.74115 255 240 100
1.14226 0.13194 0.45762 255 240 100
1.14226 0.13194 0.74115 255 240 100
1.04271 0.39017 0.45762 255 240 100
1.04271 0.39017 0.74115 255 240 100
1.14226 0.39016 0.45762 255 240 100
1.04271 0.54494 0.45762 255 240 100
1.14226 0.54506 0.45762 255 240 100
0.79065 0.65112 0.45762 255 240 100
1.04271 0.63296 0.45762 255 240 100
1.02129 0.65122 0.45762 255 240 100
0.79065 0.65112 0.74115 255 240 100
1.02129 0.65122 0.74115 255 240 100
1.04271 0.54494 0.74115 255 240 100
1.14226 0.54506 0.74115 255 240 100
1.04271 0.63296 0.74115 255 240 100
1.14226 0.39016 0.74115 255 240 100
1.15877 0.52678 0.74115 255 240 100
1.15877 0.52678 0.45762 255 240 100
1.15877 0.40844 0.45762 255 240 100
1.15877 0.40844 0.74115 255 240 100
0.02973 -0.76276 0.28404 255 240 100
0.13262 -0.76276 0.28404 255 240 100
0.13262 -0.76276 0.04462 255 240 100
0.02973 -0.76276 0.04462 255 240 100
0.13262 -0.72867 0.00814 255 240 100
0.02973 -0.72867 0.00814 255 240 100
0.13262 -0.65986 0.12224 255 240 100
0.13262 -0.65986 0.28404 255 240 100
0.02973 -0.63843 0.10121 255 240 100
0.02973 -0.65986 0.12224 255 240 100
0.13262 -0.4095 0.00814 255 240 100
0.02973 -0.31642 0.00814 255 240 100
0.13262 -0.4095 0.10121 255 240 100
0.13262 -0.63843 0.10121 255 240 100
0.02973 -0.31642 0.10121 255 240 100
0.06703 -0.28097 0.00814 255 240 100
0.16209 -0.37824 0.00814 255 240 100
0.06703 -0.28097 0.10121 255 240 100
0.66516 -0.37824 0.00814 255 240 100
0.66516 -0.37824 0.10121 255 240 100
0.16209 -0.37824 0.10121 255 240 100
0.5674 -0.28097 0.00814 255 240 100
0.5674 -0.28097 0.10121 255 240 100
0.69732 -0.34277 0.10121 255 240 100
0.69732 -0.34277 0.00814 255 240 100
0.58894 -0.25611 0.10121 255 240 100
0.58894 -0.25611 0.00814 255 240 100
0.58894 0.747 0.00814 255 240 100
0.58894 0.747 0.10121 255 240 100
0.69732 0.747 0.10121 255 240 100
0.69732 0.747 0.00814 255 240 100
0.68197 0.7718 0.02133 255 240 100
0.60429 0.7718 0.02133 255 240 100
0.60429 0.7718 0.08803 255 240 100
0.68197 0.7718 0.08803 255 240 100
-0.30871 0.58124 0.13 238 232 234
-0.30871 -0.1668 0.13 238 232 234
-0.16074 -0.1668 0.13 238 232 234
-0.16074 0.58124 0.13 238 232 234
-0.30871 0.58124 0.16743 222 217 219
-0.30871 0.58124 0.13 222 217 219
-0.16074 0.58124 0.13 222 217 219
-0.16074 0.58124 0.16743 222 217 219
-0.30871 -0.1668 0.16743 222 217 219
-0.16074 -0.1668 0.16743 222 217 219
-0.16074 0.58124 0.13 179 175 176
-0.16074 -0.1668 0.13 179 175 176
-0.09015 -0.1668 0.13 179 175 176
-0.09015 0.58124 0.13 179 175 176
-0.16074 0.58124 0.16743 179 175 176
-0.09015 0.58124 0.16743 179 175 176
-0.16074 -0.1668 0.16743 179 175 176
-0.09015 -0.1668 0.16743 179 175 176
-0.09015 0.58124 0.13 238 232 234
-0.09015 -0.1668 0.13 238 232 234
0.03605 -0.1668 0.13 238 232 234
0.03605 0.34427 0.13 238 232 234
0.10317 0.34427 0.13 238 232 234
0.20381 0.58124 0.13 238 232 234
0.24676 0.53936 0.13 238 232 234
0.10317 -0.1668 0.13 238 232 234
0.24676 -0.1668 0.13 238 232 234
-0.09015 0.58124 0.16743 222 217 219
-0.09015 0.58124 0.13 222 217 219
0.20381 0.58124 0.13 222 217 219
0.20381 0.58124 0.16743 222 217 219
0.10317 0.34427 0.16743 222 217 219
0.03605 0.34427 0.16743 222 217 219
-0.09015 -0.1668 0.16743 222 217 219
0.03605 -0.1668 0.16743 222 217 219
0.24676 0.53936 0.16743 222 217 219
0.10317 -0.1668 0.16743 222 217 219
0.24676 -0.1668 0.16743 222 217 219
0.24676 0.53936 0.13 222 217 219
0.24676 -0.1668 0.13 222 217 219
0.03605 -0.1668 0.16743 179 175 176
0.03605 0.34427 0.16743 179 175 176
0.10317 0.34427 0.16743 179 175 176
0.10317 -0.1668 0.16743 179 175 176
-0.33252 -0.22654 0.11326 239 209 80
-0.29746 -0.15696 0.11326 239 209 80
-0.3666 -0.19623 0.11326 239 209 80
-0.3666 -0.19623 0.18284 239 209 80
-0.33252 -0.22654 0.18284 239 209 80
0.12529 -0.22654 0.18284 239 209 80
0.25969 -0.22654 0.11326 239 209 80
0.25969 -0.15696 0.11326 239 209 80
-0.29746 -0.15696 0.18284 239 209 80
0.12529 -0.15696 0.18284 239 209 80
-0.29746 0.62014 0.11326 239 209 80
-0.3666 0.62014 0.11326 239 209 80
-0.29746 0.62014 0.18284 239 209 80
-0.3666 0.62014 0.18284 239 209 80
0.2817 -0.22654 0.13689 239 209 80
0.2817 -0.15696 0.13689 239 209 80
0.12529 -0.15696 0.26802 239 209 80
0.12529 -0.22654 0.26802 239 209 80
0.2817 -0.15696 0.26802 239 209 80
0.2817 -0.22654 0.26802 239 209 80
0.10317 0.34427 0.13 179 175 176
0.03605 0.34427 0.13 179 175 176
0.03605 -0.1668 0.13 179 175 176
0.10317 -0.1668 0.13 179 175 176
0.75707 -0.89615 0.25765 239 209 80
0.49664 -0.89615 0.25765 239 209 80
0.49664 -0.94793 0.25765 239 209 80
0.70644 -0.94793 0.25765 239 209 80
0.74397 -0.99108 0.3012 239 209 80
0.80022 -0.93355 0.3012 239 209 80
0.75707 -0.52187 0.25765 239 209 80
0.80022 -0.52187 0.3012 239 209 80
0.49664 -0.99108 0.3012 239 209 80
0.49663 -0.99108 0.46027 239 209 80
0.49664 -0.52187 0.25765 239 209 80
0.74397 -0.99108 0.89758 239 209 80
0.80022 -0.93355 0.89758 239 209 80
0.80022 -0.52187 0.89758 239 209 80
0.49663 -0.99108 0.7385 239 209 80
0.31706 -0.99108 0.73883 239 209 80
0.31706 -0.99108 0.45995 239 209 80
0.49664 -0.99108 0.89758 239 209 80
0.49664 -0.94793 0.94112 239 209 80
0.70644 -0.94793 0.94112 239 209 80
0.75707 -0.89615 0.94112 239 209 80
0.75707 -0.52187 0.94112 239 209 80
0.20701 -0.89444 0.42713 159 141 70
-0.15861 -0.89444 0.42713 159 141 70
-0.18322 -0.89444 0.4552 159 141 70
0.23161 -0.89444 0.4552 159 141 70
-0.18322 -1.10024 0.4552 159 141 70
-0.15861 -1.10024 0.42713 159 141 70
0.20701 -1.10024 0.42713 159 141 70
0.23161 -1.10024 0.4552 159 141 70
-0.18322 -1.10024 0.74357 159 141 70
-0.18322 -0.89444 0.74357 159 141 70
0.23161 -0.89444 0.74357 159 141 70
0.23161 -1.10024 0.74357 159 141 70
0.74397 0.99108 0.3012 239 209 80
-0.74397 0.99108 0.3012 239 209 80
-0.70644 0.94793 0.25765 239 209 80
0.70644 0.94793 0.25765 239 209 80
-0.75707 0.89615 0.25765 239 209 80
-0.80022 0.93355 0.3012 239 209 80
-0.80022 0.73589 0.3012 239 209 80
-0.75707 0.73589 0.25765 239 209 80
0.80022 0.93355 0.3012 239 209 80
0.75707 0.89615 0.25765 239 209 80
0.75707 0.73589 0.25765 239 209 80
0.80022 0.73589 0.3012 239 209 80
-0.74397 0.99108 0.89758 239 209 80
-0.80022 0.93355 0.89758 239 209 80
0.80022 0.73589 0.89758 239 209 80
0.80022 0.93355 0.89758 239 209 80
-0.80022 0.73589 0.89758 239 209 80
0.74397 0.99108 0.89758 239 209 80
-0.80022 -0.93355 0.3012 239 209 80
-0.74397 -0.99108 0.3012 239 209 80
-0.70644 -0.94793 0.25765 239 209 80
-0.75707 -0.89615 0.25765 239 209 80
0.42407 -0.94793 0.25765 239 209 80
0.42407 -0.99108 0.3012 239 209 80
-0.75707 -0.12824 0.25765 239 209 80
-0.80022 -0.12824 0.3012 239 209 80
-0.78364 -0.12824 0.19392 239 209 80
-0.86419 -0.12824 0.27487 239 209 80
-0.78364 0.0022 0.19392 239 209 80
-0.86419 0.0022 0.27487 239 209 80
0.42407 -0.12824 0.19392 239 209 80
0.42407 -0.12824 0.25765 239 209 80
0.42407 -0.89615 0.25765 239 209 80
0.42407 0.0022 0.19392 239 209 80
-0.23195 -0.99108 0.35136 239 209 80
-0.26867 -0.99108 0.39299 239 209 80
0.28035 -0.99108 0.35136 239 209 80
0.31706 -0.99108 0.39302 239 209 80
0.42409 -0.99108 0.39302 239 209 80
-0.86419 0.0022 0.9239 239 209 80
-0.86419 -0.12824 0.9239 239 209 80
-0.80022 -0.12824 0.89758 239 209 80
-0.80022 -0.93355 0.89758 239 209 80
-0.74397 -0.99108 0.89758 239 209 80
-0.26867 -0.99108 0.80579 239 209 80
0.28035 -0.99108 0.35136 239 228 99
-0.23195 -0.99108 0.35136 239 228 99
-0.23195 -1.10024 0.35136 239 228 99
0.28035 -1.10024 0.35136 239 228 99
-0.26867 -0.99108 0.39299 239 228 99
-0.26867 -1.10024 0.39299 239 228 99
0.31706 -1.10024 0.39299 239 228 99
0.31706 -0.99108 0.39302 239 228 99
0.31706 -0.99108 0.45995 239 228 99
0.23161 -1.10024 0.4552 239 228 99
0.20701 -1.10024 0.42713 239 228 99
-0.26867 -0.99108 0.80579 239 228 99
-0.26867 -1.10024 0.80579 239 228 99
0.31706 -1.10024 0.80579 239 228 99
0.31706 -0.99108 0.73883 239 228 99
0.31706 -0.99108 0.80575 239 228 99
0.28035 -0.99108 0.84741 239 228 99
0.28035 -1.10024 0.84741 239 228 99
0.23161 -1.10024 0.74357 239 228 99
0.20701 -1.10024 0.77164 239 228 99
-0.18322 -1.10024 0.4552 239 228 99
-0.15861 -1.10024 0.42713 239 228 99
-0.18322 -1.10024 0.74357 239 228 99
-0.15861 -1.10024 0.77164 239 228 99
-0.23195 -1.10024 0.84741 239 228 99
0.78364 0.0022 0.19392 239 209 80
0.49664 0.0022 0.19392 239 209 80
0.49664 -0.12824 0.19392 239 209 80
0.78364 -0.12824 0.19392 239 209 80
0.86419 0.0022 0.27487 239 209 80
0.86419 -0.12824 0.27487 239 209 80
0.75707 -0.12824 0.25765 239 209 80
0.80022 -0.12824 0.3012 239 209 80
0.49664 -0.12824 0.25765 239 209 80
0.49664 -0.44839 0.25765 239 209 80
0.75707 -0.44839 0.25765 239 209 80
0.80022 -0.44839 0.3012 239 209 80
0.86419 -0.12824 0.9239 239 209 80
0.86419 0.0022 0.9239 239 209 80
0.80022 -0.12824 0.89758 239 209 80
0.80022 -0.44839 0.89758 239 209 80
-0.75707 0.0022 0.25765 227 195 62
-0.80022 0.0022 0.3012 227 195 62
-0.86419 0.0022 0.27487 227 195 62
-0.78364 0.0022 0.19392 227 195 62
0.42407 0.0022 0.19392 227 195 62
0.49125 0.0022 0.25765 227 195 62
0.49664 0.0022 0.19392 227 195 62
0.49664 -0.12824 0.19392 227 195 62
0.42407 -0.12824 0.19392 227 195 62
0.49664 -0.12824 0.25765 227 195 62
0.42407 -0.12824 0.25765 227 195 62
0.49664 -0.44839 0.25765 227 195 62
0.42407 -0.89615 0.25765 227 195 62
0.49664 -0.52187 0.25765 227 195 62
0.49664 -0.89615 0.25765 227 195 62
0.49664 -0.94793 0.25765 227 195 62
0.42407 -0.94793 0.25765 227 195 62
0.49664 -0.99108 0.3012 227 195 62
0.42407 -0.99108 0.3012 227 195 62
0.42409 -0.99108 0.39302 227 195 62
0.49663 -0.99108 0.46027 227 195 62
0.31706 -0.99108 0.39302 227 195 62
0.31706 -0.99108 0.45995 227 195 62
0.75707 -0.44839 0.25765 227 195 62
0.75707 -0.52187 0.25765 227 195 62
0.80022 -0.44839 0.3012 227 195 62
0.80022 -0.52187 0.3012 227 195 62
0.80022 -0.52187 0.89758 227 195 62
0.80022 -0.44839 0.89758 227 195 62
0.80022 0.0022 0.3012 227 195 62
0.75707 0.0022 0.25765 227 195 62
0.78364 0.0022 0.19392 227 195 62
0.86419 0.0022 0.27487 227 195 62
0.86419 0.0022 0.9239 227 195 62
0.80022 0.0022 0.89758 227 195 62
0.49125 0.22584 0.25765 227 195 62
-0.75707 0.22728 0.25765 227 195 62
0.80022 0.66742 0.3012 239 209 80
0.75707 0.66742 0.25765 239 209 80
0.75707 0.0022 0.25765 239 209 80
0.80022 0.0022 0.3012 239 209 80
0.49125 0.22584 0.25765 239 209 80
0.49125 0.0022 0.25765 239 209 80
-0.75707 0.22728 0.25765 239 209 80
-0.75707 0.66742 0.25765 239 209 80
-0.80022 0.0022 0.3012 239 209 80
-0.75707 0.0022 0.25765 239 209 80
-0.80022 0.66742 0.3012 239 209 80
0.80022 0.0022 0.89758 239 209 80
0.80022 0.66742 0.89758 239 209 80
-0.80022 0.66742 0.89758 239 209 80
-0.80022 0.0022 0.89758 239 209 80
-0.75707 0.73589 0.25765 227 195 62
-0.80022 0.73589 0.3012 227 195 62
-0.80022 0.66742 0.3012 227 195 62
-0.75707 0.66742 0.25765 227 195 62
0.75707 0.73589 0.25765 227 195 62
0.75707 0.66742 0.25765 227 195 62
0.80022 0.73589 0.3012 227 195 62
0.80022 0.66742 0.3012 227 195 62
0.80022 0.66742 0.89758 227 195 62
0.80022 0.73589 0.89758 227 195 62
-0.80022 0.73589 0.89758 227 195 62
-0.80022 0.66742 0.89758 227 195 62
0.02973 -0.65986 0.28404 255 240 100
0.76046 1.56732 0.65473 222 217 219
0.30299 1.56732 0.65473 222 217 219
0.30299 1.56732 0.54404 222 217 219
0.76046 1.56732 0.54404 222 217 219
0.19441 1.56732 0.54404 222 217 219
0.19441 1.56732 0.65473 222 217 219
-0.19441 1.56732 0.65473 222 217 219
-0.19441 1.56732 0.54404 222 217 219
-0.30299 1.56732 0.54404 222 217 219
-0.30299 1.56732 0.65473 222 217 219
-0.76046 1.56732 0.65473 222 217 219
-0.76046 1.56732 0.54404 222 217 219
-0.72076 -0.00463 0.97902 249 218 83
-0.72076 0.19555 0.97902 249 218 83
-0.46318 0.19555 0.97902 249 218 83
-0.46318 -0.00463 0.97902 249 218 83
-0.42097 0.19555 0.93335 227 195 62
-0.42097 0.19555 0.97902 227 195 62
-0.46318 0.19555 0.97902 227 195 62
-0.46318 0.19555 0.93335 227 195 62
-0.42097 -0.00463 0.97902 227 195 62
-0.46318 -0.00463 0.97902 227 195 62
-0.72076 0.19555 0.93335 227 195 62
-0.72076 0.19555 0.97902 227 195 62
-0.72076 -0.00463 0.97902 227 195 62
-0.72076 -0.00463 0.93335 227 195 62
-0.16893 0.19555 0.97902 227 195 62
-0.16893 0.19555 0.93335 227 195 62
-0.12959 0.19555 0.93335 227 195 62
-0.12959 0.19555 0.97902 227 195 62
-0.12959 -0.00463 0.97902 227 195 62
-0.16893 -0.00463 0.97902 227 195 62
0.11264 0.19555 0.97902 227 195 62
0.11264 0.19555 0.93335 227 195 62
0.15383 0.19555 0.93335 227 195 62
0.15383 0.19555 0.97902 227 195 62
0.42407 0.19555 0.93335 227 195 62
0.42407 0.19555 0.97902 227 195 62
0.42407 -0.00463 0.93335 227 195 62
0.42407 -0.00463 0.97902 227 195 62
0.15383 -0.00463 0.97902 227 195 62
0.11264 -0.00463 0.97902 227 195 62
-0.42097 -0.00463 0.97902 249 218 83
-0.42097 0.19555 0.97902 249 218 83
-0.16893 0.19555 0.97902 249 218 83
-0.16893 -0.00463 0.97902 249 218 83
-0.12959 0.19555 0.97902 249 218 83
0.11264 0.19555 0.97902 249 218 83
0.11264 -0.00463 0.97902 249 218 83
-0.12959 -0.00463 0.97902 249 218 83
0.15383 -0.00463 0.97902 249 218 83
0.15383 0.19555 0.97902 249 218 83
0.42407 0.19555 0.97902 249 218 83
0.42407 -0.00463 0.97902 249 218 83
0 1.13805 0.7012 249 218 83
0.72774 1.13805 0.7012 249 218 83
0.7654 1.07537 0.7012 249 218 83
0.27817 1.07537 0.7012 249 218 83
0.80185 1.11319 0.7012 249 218 83
0.80185 1.6 0.7012 249 218 83
0.72774 1.6 0.7012 249 218 83
-0.27817 1.07537 0.7012 249 218 83
-0.7654 1.07537 0.7012 249 218 83
-0.72774 1.13805 0.7012 249 218 83
-0.80185 1.11319 0.7012 249 218 83
-0.80185 1.6 0.7012 249 218 83
-0.72774 1.6 0.7012 249 218 83
-0.27817 0.875 0.7012 249 218 83
0.27817 0.875 0.7012 249 218 83
0.30299 1.11371 0.65473 179 175 176
0.19441 1.11371 0.65473 179 175 176
0.30299 1.56732 0.65473 238 232 234
0.76046 1.56732 0.65473 238 232 234
0.76046 1.11371 0.65473 238 232 234
0.30299 1.11371 0.65473 238 232 234
0.19441 1.56732 0.65473 238 232 234
0.19441 1.11371 0.65473 238 232 234
-0.19441 1.11371 0.65473 238 232 234
-0.19441 1.56732 0.65473 238 232 234
-0.19441 1.11371 0.65473 179 175 176
-0.30299 1.11371 0.65473 179 175 176
-0.30299 1.56732 0.65473 238 232 234
-0.30299 1.11371 0.65473 238 232 234
-0.76046 1.11371 0.65473 238 232 234
-0.76046 1.56732 0.65473 238 232 234
-0.53418 -0.75469 0.93356 255 255 255
-0.53418 -0.75469 0.98832 255 255 255
-0.15458 -0.75469 0.98832 255 255 255
-0.15458 -0.75469 0.93356 255 255 255
-0.15458 -0.37508 0.98832 255 255 255
-0.15458 -0.37508 0.93356 255 255 255
-0.53418 -0.37508 0.98832 255 255 255
-0.53418 -0.37508 0.93356 255 255 255
-0.31516 -0.59411 0.98832 255 255 255
-0.3736 -0.59411 0.98832 255 255 255
-0.31516 -0.53567 0.98832 255 255 255
-0.3736 -0.53567 0.98832 255 255 255
-0.3736 -0.59411 0.98832 55 54 53
-0.3736 -0.53567 0.98832 55 54 53
-0.31516 -0.53567 0.98832 55 54 53
-0.31516 -0.59411 0.98832 55 54 53
-1.07647 0.46508 0.74961 255 243 133
-1.07647 0.62092 0.74961 255 243 133
-1.04439 0.64689 0.74961 255 243 133
-0.789 0.64692 0.74961 255 243 133
-1.07647 0.22089 0.74961 255 243 133
-1.22267 0.46525 0.74961 255 243 133
-1.22267 0.22041 0.74961 255 243 133
-0.789 0.03674 0.74961 255 243 133
-1.04439 0.03686 0.74961 255 243 133
-1.07647 0.06284 0.74961 255 243 133
-1.24397 0.44473 0.74961 255 243 133
-1.24397 0.24093 0.74961 255 243 133
1.15877 0.26427 0.45762 255 240 100
1.15877 0.14964 0.45762 255 240 100
1.15877 0.14964 0.74115 255 240 100
1.15877 0.26427 0.74115 255 240 100
0.79065 0.02459 0.74115 255 243 133
1.04271 0.13187 0.74115 255 243 133
1.04271 0.04236 0.74115 255 243 133
1.02129 0.02413 0.74115 255 243 133
1.04271 0.28139 0.74115 255 243 133
1.14226 0.13194 0.74115 255 243 133
1.14226 0.28197 0.74115 255 243 133
1.04271 0.39017 0.74115 255 243 133
0.79065 0.65112 0.74115 255 243 133
1.04271 0.54494 0.74115 255 243 133
1.14226 0.39016 0.74115 255 243 133
1.14226 0.54506 0.74115 255 243 133
1.04271 0.63296 0.74115 255 243 133
1.02129 0.65122 0.74115 255 243 133
1.15877 0.14964 0.74115 255 243 133
1.15877 0.26427 0.74115 255 243 133
1.15877 0.40844 0.74115 255 243 133
1.15877 0.52678 0.74115 255 243 133
0.02973 -0.76276 0.91474 255 240 100
0.02973 -0.76276 1.15415 255 240 100
0.13262 -0.76276 1.15415 255 240 100
0.13262 -0.76276 0.91474 255 240 100
0.13262 -0.65986 1.07653 255 240 100
0.13262 -0.65986 0.91474 255 240 100
0.02973 -0.65986 1.07653 255 240 100
0.02973 -0.63843 1.09756 255 240 100
0.13262 -0.63843 1.09756 255 240 100
0.02973 -0.31642 1.09756 255 240 100
0.13262 -0.4095 1.09756 255 240 100
0.13262 -0.72867 1.19063 255 240 100
0.13262 -0.4095 1.19063 255 240 100
0.02973 -0.31642 1.19063 255 240 100
0.02973 -0.72867 1.19063 255 240 100
0.06703 -0.28097 1.09756 255 240 100
0.16209 -0.37824 1.09756 255 240 100
0.5674 -0.28097 1.09756 255 240 100
0.66516 -0.37824 1.09756 255 240 100
0.5674 -0.28097 1.19063 255 240 100
0.06703 -0.28097 1.19063 255 240 100
0.69732 -0.34277 1.09756 255 240 100
0.69732 -0.34277 1.19063 255 240 100
0.66516 -0.37824 1.19063 255 240 100
0.58894 -0.25611 1.09756 255 240 100
0.58894 -0.25611 1.19063 255 240 100
0.58894 0.747 1.19063 255 240 100
0.58894 0.747 1.09756 255 240 100
0.69732 0.747 1.09756 255 240 100
0.69732 0.747 1.19063 255 240 100
0.60429 0.7718 1.11075 255 240 100
0.68197 0.7718 1.11075 255 240 100
0.68197 0.7718 1.17745 255 240 100
0.60429 0.7718 1.17745 255 240 100
0.13262 -0.72867 1.19063 255 243 133
0.13262 -0.76276 1.15415 255 243 133
0.02973 -0.76276 1.15415 255 243 133
0.02973 -0.72867 1.19063 255 243 133
0.13262 -0.4095 1.19063 255 243 133
0.02973 -0.31642 1.19063 255 243 133
0.06703 -0.28097 1.19063 255 243 133
0.16209 -0.37824 1.19063 255 243 133
0.66516 -0.37824 1.19063 255 243 133
0.5674 -0.28097 1.19063 255 243 133
0.69732 -0.34277 1.19063 255 243 133
0.58894 -0.25611 1.19063 255 243 133
0.69732 0.747 1.19063 255 243 133
0.58894 0.747 1.19063 255 243 133
0.68197 0.7718 1.17745 255 243 133
0.60429 0.7718 1.17745 255 243 133
0.16209 -0.37824 1.19063 255 240 100
-0.30871 0.58124 1.06878 238 232 234
-0.16074 0.58124 1.06878 238 232 234
-0.16074 -0.1668 1.06878 238 232 234
-0.30871 -0.1668 1.06878 238 232 234
-0.30871 0.58124 1.03134 222 217 219
-0.16074 0.58124 1.03134 222 217 219
-0.16074 0.58124 1.06878 222 217 219
-0.30871 0.58124 1.06878 222 217 219
-0.30871 -0.1668 1.03134 222 217 219
-0.16074 -0.1668 1.03134 222 217 219
-0.16074 0.58124 1.06878 179 175 176
-0.09015 0.58124 1.06878 179 175 176
-0.09015 -0.1668 1.06878 179 175 176
-0.16074 -0.1668 1.06878 179 175 176
-0.16074 0.58124 1.03134 179 175 176
-0.09015 0.58124 1.03134 179 175 176
-0.16074 -0.1668 1.03134 179 175 176
-0.09015 -0.1668 1.03134 179 175 176
-0.09015 0.58124 1.06878 238 232 234
0.03605 0.34427 1.06878 238 232 234
0.03605 -0.1668 1.06878 238 232 234
-0.09015 -0.1668 1.06878 238 232 234
0.10317 0.34427 1.06878 238 232 234
0.20381 0.58124 1.06878 238 232 234
0.24676 0.53936 1.06878 238 232 234
0.10317 -0.1668 1.06878 238 232 234
0.24676 -0.1668 1.06878 238 232 234
-0.09015 0.58124 1.03134 222 217 219
0.20381 0.58124 1.03134 222 217 219
0.20381 0.58124 1.06878 222 217 219
-0.09015 0.58124 1.06878 222 217 219
0.10317 0.34427 1.03134 222 217 219
0.03605 0.34427 1.03134 222 217 219
-0.09015 -0.1668 1.03134 222 217 219
0.03605 -0.1668 1.03134 222 217 219
0.24676 0.53936 1.03134 222 217 219
0.10317 -0.1668 1.03134 222 217 219
0.24676 -0.1668 1.03134 222 217 219
0.24676 0.53936 1.06878 222 217 219
0.24676 -0.1668 1.06878 222 217 219
0.03605 -0.1668 1.03134 179 175 176
0.10317 -0.1668 1.03134 179 175 176
0.10317 0.34427 1.03134 179 175 176
0.03605 0.34427 1.03134 179 175 176
-0.33252 -0.22654 1.08551 249 218 83
-0.3666 -0.19623 1.08551 249 218 83
-0.29746 -0.15696 1.08551 249 218 83
0.25969 -0.22654 1.08551 249 218 83
0.25969 -0.15696 1.08551 249 218 83
-0.29746 0.62014 1.08551 249 218 83
-0.3666 0.62014 1.08551 249 218 83
0.2817 -0.15696 1.06188 249 218 83
0.2817 -0.22654 1.06188 249 218 83
-0.3666 0.62014 1.08551 239 209 80
-0.3666 0.62014 1.01593 239 209 80
-0.29746 0.62014 1.01593 239 209 80
-0.29746 0.62014 1.08551 239 209 80
-0.29746 -0.15696 1.08551 239 209 80
-0.29746 -0.15696 1.01593 239 209 80
0.25969 -0.15696 1.08551 239 209 80
0.12529 -0.15696 1.01593 239 209 80
0.2817 -0.15696 1.06188 239 209 80
-0.3666 -0.19623 1.01593 239 209 80
-0.33252 -0.22654 1.01593 239 209 80
0.12529 -0.22654 1.01593 239 209 80
-0.3666 -0.19623 1.08551 239 209 80
0.12529 -0.15696 0.93075 239 209 80
0.12529 -0.22654 0.93075 239 209 80
0.2817 -0.15696 0.93075 239 209 80
0.2817 -0.22654 0.93075 239 209 80
0.2817 -0.22654 1.06188 239 209 80
-0.33252 -0.22654 1.08551 239 209 80
0.25969 -0.22654 1.08551 239 209 80
0.10317 0.34427 1.06878 179 175 176
0.10317 -0.1668 1.06878 179 175 176
0.03605 -0.1668 1.06878 179 175 176
0.03605 0.34427 1.06878 179 175 176
0.75707 -0.89615 0.94112 249 218 83
0.70644 -0.94793 0.94112 249 218 83
0.49664 -0.94793 0.94112 249 218 83
0.49664 -0.89615 0.94112 249 218 83
0.75707 -0.52187 0.94112 249 218 83
0.49664 -0.52187 0.94112 249 218 83
0.20701 -0.89444 0.77164 159 141 70
-0.15861 -0.89444 0.77164 159 141 70
-0.15861 -1.10024 0.77164 159 141 70
0.20701 -1.10024 0.77164 159 141 70
0.70644 0.94793 0.94112 239 209 80
-0.70644 0.94793 0.94112 239 209 80
-0.75707 0.89615 0.94112 239 209 80
-0.75707 0.73589 0.94112 239 209 80
0.75707 0.89615 0.94112 239 209 80
0.75707 0.73589 0.94112 239 209 80
-0.75707 -0.89615 0.94112 239 209 80
-0.70644 -0.94793 0.94112 239 209 80
0.42407 -0.94793 0.94112 239 209 80
0.42407 -0.99108 0.89758 239 209 80
-0.75707 -0.12824 0.94112 239 209 80
-0.78364 -0.12824 1.00485 239 209 80
0.42407 -0.12824 1.00485 239 209 80
0.42407 -0.12824 0.94112 239 209 80
-0.23195 -0.99108 0.84741 239 209 80
0.28035 -0.99108 0.84741 239 209 80
0.31706 -0.99108 0.80575 239 209 80
0.42409 -0.99108 0.80575 239 209 80
0.70644 0.94793 0.94112 249 218 83
0.75707 0.89615 0.94112 249 218 83
-0.75707 0.89615 0.94112 249 218 83
-0.70644 0.94793 0.94112 249 218 83
0.75707 0.73589 0.94112 249 218 83
-0.75707 0.73589 0.94112 249 218 83
0.28035 -0.99108 0.84741 249 241 102
0.28035 -1.10024 0.84741 249 241 102
-0.23195 -1.10024 0.84741 249 241 102
-0.23195 -0.99108 0.84741 249 241 102
-0.78364 0.0022 1.00485 249 218 83
-0.78364 -0.12824 1.00485 249 218 83
-0.86419 -0.12824 0.9239 249 218 83
-0.86419 0.0022 0.9239 249 218 83
0.42407 -0.12824 1.00485 249 218 83
0.42407 0.0022 1.00485 249 218 83
0.78364 0.0022 1.00485 249 218 83
0.78364 -0.12824 1.00485 249 218 83
0.49664 -0.12824 1.00485 249 218 83
0.49664 0.0022 1.00485 249 218 83
0.86419 0.0022 0.9239 249 218 83
0.86419 -0.12824 0.9239 249 218 83
0.75707 -0.12824 0.94112 249 218 83
0.75707 -0.44839 0.94112 249 218 83
0.49664 -0.44839 0.94112 249 218 83
0.49664 -0.12824 0.94112 249 218 83
-0.80022 0.0022 0.89758 227 195 62
-0.86419 0.0022 0.9239 227 195 62
-0.75707 0.0022 0.94112 227 195 62
-0.78364 0.0022 1.00485 227 195 62
0.42407 0.0022 1.00485 227 195 62
0.49125 0.0022 0.94112 227 195 62
0.49664 0.0022 1.00485 227 195 62
0.49664 -0.12824 1.00485 227 195 62
0.42407 -0.12824 1.00485 227 195 62
0.49664 -0.12824 0.94112 227 195 62
0.42407 -0.12824 0.94112 227 195 62
0.49664 -0.44839 0.94112 227 195 62
0.42407 -0.89615 0.94112 227 195 62
0.49664 -0.52187 0.94112 227 195 62
0.49664 -0.89615 0.94112 227 195 62
0.49664 -0.94793 0.94112 227 195 62
0.42407 -0.94793 0.94112 227 195 62
0.49664 -0.99108 0.89758 227 195 62
0.42407 -0.99108 0.89758 227 195 62
0.42409 -0.99108 0.80575 227 195 62
0.49663 -0.99108 0.7385 227 195 62
0.31706 -0.99108 0.80575 227 195 62
0.31706 -0.99108 0.73883 227 195 62
0.75707 -0.44839 0.94112 227 195 62
0.75707 -0.52187 0.94112 227 195 62
0.75707 -0.12824 0.94112 239 209 80
0.78364 -0.12824 1.00485 239 209 80
0.49664 -0.12824 1.00485 239 209 80
0.49664 -0.12824 0.94112 239 209 80
0.75707 -0.44839 0.94112 239 209 80
0.78364 0.0022 1.00485 227 195 62
0.75707 0.0022 0.94112 227 195 62
0.49125 0.22584 0.94112 227 195 62
-0.75707 0.22728 0.94112 227 195 62
0.42407 -0.94793 0.94112 249 218 83
-0.70644 -0.94793 0.94112 249 218 83
-0.75707 -0.89615 0.94112 249 218 83
0.42407 -0.89615 0.94112 249 218 83
-0.75707 -0.12824 0.94112 249 218 83
0.42407 -0.12824 0.94112 249 218 83
0.75707 0.0022 0.94112 239 209 80
0.75707 0.66742 0.94112 239 209 80
-0.75707 0.22728 0.94112 239 209 80
-0.75707 0.0022 0.94112 239 209 80
-0.75707 0.66742 0.94112 239 209 80
-0.75707 0.73589 0.94112 227 195 62
-0.75707 0.66742 0.94112 227 195 62
0.75707 0.73589 0.94112 227 195 62
0.75707 0.66742 0.94112 227 195 62
0.49125 0.22584 0.94112 249 218 83
0.75707 0.66742 0.94112 249 218 83
0.75707 0.0022 0.94112 249 218 83
0.49125 0.0022 0.94112 249 218 83
-0.75707 0.22728 0.94112 249 218 83
-0.75707 0.66742 0.94112 249 218 83
-0.23195 -0.99108 0.84741 239 228 99
0.02973 -0.65986 0.91474 255 240 100
0.09357 -1.03604 0.41958 211 165 71
0.09357 -1.03604 0.77924 211 165 71
0.24054 -1.03604 0.77924 211 165 71
0.24054 -1.03604 0.41958 211 165 71
0.09357 -0.88434 0.41958 211 165 71
0.09357 -0.88434 0.77924 211 165 71
3 0 2 1
3 0 3 2
3 4 6 5
3 4 7 6
3 6 7 8
3 6 8 9
3 6 10 5
3 6 11 10
3 10 11 12
3 10 12 13
3 14 7 4
3 14 4 15
3 16 14 15
3 16 17 14
3 14 17 18
3 14 18 19
3 20 17 16
3 20 16 21
3 22 20 21
3 22 23 20
3 24 23 22
3 24 25 23
3 26 25 24
3 26 27 25
3 20 23 28
3 20 28 29
3 30 32 31
3 30 33 32
3 34 36 35
3 34 37 36
3 38 40 39
3 38 41 40
3 42 44 43
3 42 45 44
3 45 46 44
3 45 47 46
3 45 48 47
3 42 43 49
3 42 49 50
3 42 50 51
3 51 50 52
3 51 52 53
3 51 53 54
3 43 55 49
3 43 56 55
3 57 56 43
3 57 43 58
3 44 58 43
3 47 48 59
3 47 59 60
3 48 61 59
3 48 45 61
3 45 62 61
3 45 42 62
3 49 55 63
3 42 64 62
3 42 51 64
3 54 53 65
3 52 65 53
3 54 65 66
3 51 66 64
3 51 54 66
3 49 63 67
3 49 67 68
3 49 68 50
3 50 68 69
3 50 69 52
3 52 69 65
3 47 60 70
3 47 70 46
3 46 70 71
3 46 71 44
3 44 71 58
3 72 74 73
3 72 75 74
3 75 72 76
3 75 76 77
3 78 80 79
3 78 81 80
3 82 84 83
3 82 85 84
3 86 88 87
3 86 89 88
3 86 87 90
3 86 90 91
3 92 94 93
3 92 95 94
3 96 98 97
3 96 99 98
3 97 98 100
3 97 100 101
3 102 101 100
3 102 103 101
3 103 99 96
3 103 102 99
3 99 104 98
3 99 105 104
3 102 105 99
3 98 106 100
3 98 104 106
3 100 107 102
3 100 106 107
3 102 107 105
3 108 110 109
3 108 111 110
3 112 114 113
3 112 115 114
3 116 112 113
3 116 117 112
3 116 118 117
3 116 113 119
3 116 119 120
3 116 120 121
3 118 122 117
3 118 123 122
3 115 112 124
3 117 124 112
3 115 124 125
3 120 119 126
3 120 126 127
3 121 120 127
3 118 116 128
3 121 128 116
3 118 128 129
3 123 118 129
3 123 129 130
3 121 127 131
3 121 131 128
3 123 132 122
3 123 130 132
3 117 133 124
3 122 132 133
3 122 133 117
3 115 125 134
3 115 134 114
3 114 134 135
3 114 135 113
3 136 138 137
3 136 139 138
3 138 139 140
3 138 140 141
3 137 142 136
3 137 143 142
3 138 143 137
3 138 141 143
3 136 144 139
3 139 144 145
3 145 144 146
3 145 146 147
3 139 145 148
3 148 140 139
3 148 149 140
3 136 150 144
3 146 144 150
3 146 150 151
3 152 151 150
3 153 152 150
3 153 154 152
3 150 155 153
3 155 156 153
3 155 157 156
3 157 155 158
3 157 158 159
3 156 157 159
3 154 153 160
3 156 160 153
3 154 160 161
3 156 159 162
3 156 162 160
3 152 163 151
3 136 155 150
3 154 161 164
3 154 164 165
3 152 154 165
3 152 165 166
3 163 152 166
3 163 166 167
3 165 167 166
3 165 164 167
3 168 170 169
3 168 171 170
3 172 170 171
3 172 171 173
3 169 170 174
3 169 174 175
3 176 173 171
3 176 171 177
3 173 178 172
3 173 179 178
3 172 178 180
3 172 180 181
3 176 174 181
3 176 179 173
3 176 177 174
3 177 175 174
3 181 182 176
3 181 180 182
3 176 182 179
3 183 178 179
3 183 184 178
3 185 183 179
3 185 179 182
3 183 186 184
3 184 186 187
3 184 187 188
3 178 184 188
3 183 189 186
3 185 189 183
3 185 182 180
3 185 190 189
3 188 190 185
3 185 180 188
3 188 187 190
3 191 190 187
3 192 191 187
3 192 187 186
3 191 193 190
3 190 193 194
3 190 194 189
3 193 195 194
3 193 196 195
3 191 196 193
3 192 186 189
3 192 197 191
3 191 197 196
3 192 198 197
3 194 198 192
3 194 195 198
3 195 199 198
3 195 200 199
3 201 199 200
3 201 202 199
3 198 199 202
3 196 200 195
3 196 201 200
3 198 202 197
3 197 201 196
3 197 202 201
3 192 189 194
3 203 205 204
3 203 206 205
3 207 209 208
3 207 210 209
3 211 210 207
3 211 212 210
3 213 215 214
3 213 216 215
3 217 216 213
3 217 218 216
3 219 218 217
3 219 220 218
3 221 223 222
3 221 224 223
3 221 225 224
3 221 226 225
3 226 227 225
3 227 228 225
3 227 229 228
3 230 232 231
3 230 233 232
3 234 233 230
3 234 230 235
3 236 235 230
3 236 237 235
3 234 238 233
3 239 238 234
3 239 240 238
3 241 238 240
3 233 238 241
3 241 240 242
3 233 241 232
3 243 245 244
3 243 246 245
3 247 249 248
3 247 250 249
3 247 251 250
3 247 252 251
3 247 253 252
3 248 253 247
3 248 254 253
3 255 254 248
3 255 256 254
3 249 257 248
3 249 258 257
3 258 259 257
3 248 259 255
3 248 257 259
3 258 260 259
3 250 258 249
3 250 260 258
3 255 260 250
3 250 251 255
3 251 256 255
3 251 252 256
3 255 259 260
3 253 261 252
3 262 253 254
3 262 261 253
3 256 262 254
3 252 263 256
3 252 264 263
3 256 263 265
3 256 265 262
3 262 266 261
3 262 265 266
3 261 264 252
3 261 266 264
3 267 269 268
3 267 270 269
3 271 273 272
3 271 274 273
3 275 274 271
3 273 274 275
3 275 271 276
3 276 271 277
3 277 271 272
3 276 277 278
3 273 275 279
3 280 279 275
3 277 272 281
3 276 282 275
3 276 283 282
3 278 283 276
3 278 284 283
3 275 285 280
3 275 282 285
3 280 285 286
3 280 286 287
3 285 282 288
3 289 288 282
3 289 282 290
3 282 291 290
3 282 283 291
3 283 292 291
3 283 284 292
3 293 295 294
3 293 296 295
3 294 295 297
3 294 297 298
3 293 294 298
3 293 298 299
3 299 296 293
3 299 300 296
3 295 301 297
3 295 302 301
3 296 302 295
3 300 303 296
3 296 303 302
3 300 304 303
3 305 307 306
3 305 308 307
3 306 307 309
3 308 309 307
3 306 309 310
3 309 311 310
3 309 312 311
3 313 308 305
3 313 314 308
3 308 314 309
3 309 315 312
3 309 314 315
3 314 316 315
3 314 313 316
3 310 317 306
3 310 318 317
3 311 318 310
3 313 319 316
3 313 320 319
3 305 320 313
3 311 321 318
3 306 317 322
3 305 322 320
3 306 322 305
3 323 325 324
3 323 326 325
3 324 325 327
3 327 325 326
3 324 327 328
3 329 326 323
3 329 323 330
3 330 331 329
3 330 332 331
3 333 331 332
3 333 332 334
3 329 331 335
3 335 331 333
3 329 335 336
3 327 326 337
3 337 329 336
3 337 326 329
3 335 333 338
3 339 324 328
3 340 324 339
3 339 328 341
3 342 341 328
3 342 328 343
3 332 344 334
3 332 345 344
3 330 345 332
3 330 346 345
3 323 346 330
3 323 347 346
3 324 347 323
3 324 348 347
3 340 348 324
3 340 349 348
3 350 352 351
3 350 353 352
3 354 351 352
3 354 352 355
3 356 353 350
3 356 350 357
3 356 357 358
3 353 356 359
3 353 359 360
3 355 361 354
3 355 362 361
3 358 363 356
3 358 364 363
3 363 364 365
3 363 365 366
3 363 366 367
3 356 368 359
3 367 368 363
3 356 363 368
3 367 369 368
3 370 362 355
3 371 370 355
3 371 355 352
3 353 371 352
3 353 360 371
3 370 372 362
3 373 362 372
3 373 374 362
3 367 374 373
3 367 373 369
3 375 377 376
3 375 378 377
3 378 375 379
3 378 379 380
3 381 378 380
3 377 378 381
3 381 380 382
3 377 381 383
3 381 384 383
3 381 385 384
3 385 381 382
3 385 382 386
3 379 387 380
3 379 388 387
3 380 389 382
3 380 387 389
3 382 390 386
3 382 389 390
3 391 393 392
3 391 394 393
3 391 395 394
3 391 396 395
3 396 397 395
3 398 395 397
3 398 399 395
3 399 398 400
3 399 400 401
3 401 400 402
3 403 401 402
3 403 402 404
3 405 403 404
3 406 403 405
3 406 407 403
3 407 406 408
3 407 408 409
3 409 408 410
3 408 411 410
3 411 412 410
3 411 413 412
3 414 404 402
3 414 415 404
3 415 414 416
3 415 416 417
3 416 418 417
3 416 419 418
3 420 422 421
3 420 423 422
3 396 421 422
3 396 422 397
3 420 424 423
3 420 425 424
3 426 396 391
3 426 391 427
3 428 430 429
3 428 431 430
3 432 429 430
3 432 430 433
3 429 432 434
3 429 434 435
3 435 434 436
3 434 437 436
3 435 436 438
3 428 439 431
3 428 440 439
3 436 441 438
3 436 442 441
3 443 445 444
3 443 446 445
3 447 446 443
3 447 448 446
3 449 448 447
3 449 450 448
3 449 451 450
3 449 452 451
3 445 453 444
3 445 454 453
3 178 188 180
3 177 455 175
3 455 177 171
3 455 171 168
3 170 181 174
3 170 172 181
3 456 458 457
3 456 459 458
3 460 462 461
3 460 463 462
3 464 466 465
3 464 467 466
3 468 470 469
3 468 471 470
3 472 474 473
3 472 475 474
3 474 476 473
3 474 477 476
3 474 475 478
3 474 478 479
3 478 480 479
3 478 481 480
3 482 472 473
3 482 483 472
3 484 483 482
3 484 482 485
3 482 486 485
3 482 487 486
3 488 484 485
3 488 489 484
3 490 489 488
3 490 488 491
3 492 490 491
3 492 491 493
3 494 492 493
3 494 493 495
3 488 496 491
3 488 497 496
3 498 500 499
3 498 501 500
3 502 504 503
3 502 505 504
3 506 508 507
3 506 509 508
3 510 512 511
3 510 513 512
3 511 512 514
3 511 514 515
3 511 515 516
3 510 517 513
3 510 518 517
3 510 519 518
3 519 520 518
3 519 521 520
3 519 522 521
3 513 517 523
3 513 523 524
3 76 525 77
3 76 526 525
3 527 529 528
3 527 530 529
3 531 533 532
3 531 534 533
3 91 536 535
3 91 90 536
3 537 539 538
3 537 540 539
3 541 543 542
3 541 544 543
3 544 545 543
3 544 546 545
3 547 545 546
3 547 546 548
3 548 542 547
3 548 541 542
3 542 543 549
3 542 549 550
3 547 542 550
3 543 551 549
3 543 545 551
3 545 552 551
3 545 547 552
3 547 550 552
3 553 555 554
3 553 556 555
3 557 559 558
3 557 560 559
3 561 560 557
3 561 557 562
3 561 562 563
3 561 564 560
3 561 565 564
3 561 566 565
3 563 562 567
3 563 567 568
3 569 571 570
3 569 572 571
3 149 570 571
3 149 148 570
3 145 572 569
3 145 147 572
3 148 145 569
3 148 569 570
3 573 575 574
3 573 576 575
3 573 574 577
3 577 574 578
3 577 578 579
3 573 577 580
3 573 580 581
3 581 580 582
3 582 580 583
3 582 583 584
3 581 582 585
3 581 585 586
3 579 578 587
3 579 587 588
3 584 583 589
3 584 589 590
3 591 593 592
3 591 594 593
3 594 595 593
3 594 596 595
3 597 595 596
3 598 595 597
3 598 599 595
3 599 598 600
3 599 600 601
3 602 599 601
3 602 601 603
3 598 604 600
3 598 605 604
3 598 592 605
3 598 597 592
3 606 601 600
3 606 607 601
3 607 606 608
3 607 608 609
3 606 610 608
3 606 611 610
3 606 604 611
3 606 600 604
3 612 609 608
3 613 609 612
3 613 614 609
3 612 608 615
3 608 616 615
3 608 610 616
3 615 616 617
3 615 617 618
3 612 615 618
3 612 618 619
3 613 612 619
3 613 619 620
3 619 618 621
3 619 621 622
3 620 622 623
3 621 623 622
3 621 624 623
3 618 624 621
3 618 617 624
3 620 619 622
3 625 627 626
3 625 628 627
3 628 625 629
3 628 629 630
3 631 630 629
3 631 629 632
3 631 632 633
3 631 633 634
3 635 634 633
3 635 636 634
3 636 635 637
3 636 637 638
3 638 637 639
3 638 639 640
3 641 609 614
3 641 607 609
3 603 607 641
3 603 601 607
3 642 644 643
3 642 645 644
3 646 648 647
3 646 649 648
3 650 647 651
3 650 646 647
3 652 654 653
3 652 655 654
3 656 652 653
3 656 653 657
3 658 656 657
3 658 657 659
3 660 662 661
3 660 663 662
3 660 661 664
3 660 664 665
3 665 664 666
3 666 664 667
3 666 667 668
3 669 671 670
3 669 672 671
3 673 669 670
3 673 674 669
3 675 669 674
3 675 674 676
3 673 670 677
3 678 673 677
3 678 677 679
3 680 679 677
3 670 680 677
3 680 681 679
3 670 671 680
3 682 684 683
3 682 685 684
3 686 688 687
3 688 686 689
3 688 689 690
3 687 688 691
3 687 691 692
3 693 690 689
3 693 689 694
3 695 697 696
3 695 698 697
3 699 697 698
3 699 700 697
3 700 699 701
3 700 701 702
3 702 701 703
3 704 695 696
3 700 704 696
3 704 700 705
3 705 700 702
3 705 702 706
3 700 696 697
3 704 707 695
3 706 702 708
3 706 708 709
3 702 710 708
3 702 703 710
3 703 711 710
3 703 712 711
3 712 706 709
3 712 709 711
3 713 707 704
3 713 704 705
3 713 705 706
3 713 706 714
3 714 706 712
3 715 717 716
3 715 718 717
3 719 721 720
3 719 722 721
3 723 722 719
3 723 724 722
3 725 302 303
3 725 726 302
3 726 301 302
3 726 727 301
3 725 727 726
3 725 728 727
3 728 725 303
3 728 303 304
3 322 730 729
3 322 317 730
3 317 731 730
3 317 318 731
3 731 318 321
3 731 321 732
3 320 322 729
3 320 729 733
3 733 319 320
3 733 734 319
3 347 736 735
3 347 348 736
3 348 737 736
3 348 738 737
3 739 347 735
3 739 346 347
3 346 739 740
3 346 740 345
3 739 741 740
3 739 742 741
3 743 738 348
3 349 743 348
3 743 744 738
3 745 738 744
3 745 746 738
3 747 749 748
3 747 750 749
3 749 751 748
3 749 752 751
3 753 755 754
3 753 756 755
3 757 759 758
3 757 760 759
3 761 757 758
3 761 762 757
3 763 765 764
3 763 766 765
3 764 767 763
3 764 768 767
3 769 771 770
3 769 772 771
3 393 773 392
3 393 774 773
3 775 774 776
3 775 773 774
3 775 776 777
3 775 777 778
3 778 777 779
3 780 779 777
3 780 777 781
3 781 782 780
3 781 783 782
3 783 784 782
3 785 784 783
3 785 786 784
3 787 786 785
3 788 787 785
3 788 785 789
3 789 790 788
3 789 791 790
3 791 792 790
3 790 792 793
3 793 792 794
3 793 794 795
3 796 784 786
3 796 786 797
3 797 419 796
3 797 418 419
3 798 387 799
3 798 389 387
3 800 798 799
3 800 801 798
3 802 389 798
3 802 390 389
3 425 803 424
3 425 804 803
3 778 803 804
3 778 779 803
3 805 775 778
3 805 806 775
3 807 809 808
3 807 810 809
3 810 811 809
3 810 812 811
3 440 813 439
3 440 814 813
3 815 442 816
3 817 442 815
3 817 441 442
3 818 454 819
3 818 453 454
3 820 818 819
3 820 819 821
3 452 820 821
3 452 821 451
3 822 824 823
3 822 825 824
3 823 826 822
3 823 827 826
3 361 374 828
3 361 362 374
3 597 596 829
3 829 592 597
3 829 591 592
3 593 599 602
3 593 595 599
3 830 832 831
3 830 833 832
3 834 830 831
3 834 831 835
