mtllib Pansage.mtl
v 0 0.61848 -0.117667
vt 0.861798 0.910143
vn 0 0.0110047 -0.9999394
v -0.16251 0.707835 -0.0488852
vt 0.783916 0.952966
vn -0.481814 0.876272 0.00163482
v -0.0700084 0.7114121 -0.0488852
vt 0.828247 0.954681
vn -0.2220669 0.9750308 0.00110827
v -0.169016 0.656974 -0.0488852
vt 0.780798 0.928591
vn -0.7987207 0.6016997 0.001651019
v 0 0.744847 -0.0488852
vt 0.861798 0.970704
vn 0 0.9999991 0.00131915
v -0.229824 0.61848 -0.0488852
vt 0.751656 0.910143
vn -0.9999971 0 0.00239895
v 0.0700085 0.7114121 -0.0488852
vt 0.895349 0.954681
vn 0.2220669 0.9750308 0.00110819
v -0.169016 0.579986 -0.0488852
vt 0.780798 0.891695
vn -0.7987212 -0.6016991 0.00165098
v 0.16251 0.707835 -0.0488852
vt 0.93968 0.952966
vn 0.481814 0.876272 0.00163486
v -0.16251 0.529125 -0.0488852
vt 0.783916 0.86732
vn -0.481814 -0.876272 0.00163466
v 0.169016 0.656974 -0.0488852
vt 0.942798 0.928591
vn 0.7987212 0.6016991 0.00165118
v -0.0700086 0.525548 -0.0488852
vt 0.828247 0.865606
vn -0.3026862 -0.9530895 0.001236751
v 0.229824 0.61848 -0.0488852
vt 0.97194 0.910143
vn 0.9999971 0 0.00239931
v 0 0.472562 -0.0488852
vt 0.861798 0.840213
vn 0 -0.9999985 0.001768841
v 0.169016 0.579986 -0.0488852
vt 0.942798 0.891695
vn 0.7987212 -0.6016991 0.00165098
v 0.0700085 0.525548 -0.0488852
vt 0.895349 0.865606
vn 0.3026859 -0.9530896 0.00123669
v 0.16251 0.529125 -0.0488852
vt 0.93968 0.86732
vn 0.4818128 -0.8762727 0.001634699
v 0 0.61848 0.0195409
vn 0 0.0109343 0.9999403
v -0.113971 0.461978 0.0694534
vt 0.768453 0.903875
vn -0.3950621 0.7564971 0.5211891
v -0.155972 0.437795 0.0222049
vt 0.715939 0.865193
vn -0.9072451 0.33799 0.250338
v -0.127591 0.437882 0.0842014
vt 0.745353 0.858719
vn -0.4663578 0.2304589 0.8540487
v -0.139976 0.458741 -0.00901817
vt 0.737724 0.896593
vn -0.62664 0.7720919 0.105814
v 8.81612E-05 0.437882 0.134662
vt 0.836273 0.858719
vn 0.0001696559 0.2328549 0.9725115
v -0.0994681 0.493256 -0.0402412
vt 0.759508 0.927993
vn -0.4051259 0.8964627 -0.1795209
v 0 0.461978 0.117673
vt 0.836205 0.903875
vn -0.000292406 0.737413 0.675442
v -0.0497341 0.505292 0.021495
vt 0.797857 0.929915
vn -0.2222591 0.9532795 0.2045951
v 0 0.498242 0.0542558
vt 0.836205 0.931838
vn 0 0.9098492 0.4149391
v -0.163592 0.437603 -0.0402412
vt 0.710064 0.871317
vn -0.8866848 0.4339489 -0.15962
v -0.186862 0.356418 -0.0402412
vt 0.692122 0.80442
vn -0.9897661 0.05031591 -0.133534
v -0.175554 0.349791 0.0232703
vt 0.700841 0.79931
vn -0.9555798 0.0115341 0.2945069
v 0.113971 0.461978 0.0694534
vt 0.903957 0.903875
vn 0.395362 0.756532 0.520911
v 0.127455 0.437882 0.0842014
vt 0.935943 0.858719
vn 0.464225 0.233007 0.8545191
v 0 0.509434 -0.0402412
vt 0.836205 0.940467
vn 0 0.9850818 -0.172087
v -0.171332 0.284637 -0.0402412
vt 0.704096 0.749072
vn -0.8588142 -0.4921281 -0.142296
v -0.10825 0.437603 -0.177175
vt 0.752737 0.871317
vn -0.5762252 0.6020782 -0.5526902
v -0.11598 0.284637 -0.179737
vt 0.746776 0.749072
vn -0.598736 -0.5457711 -0.586216
v -0.124306 0.363906 -0.188933
vt 0.740356 0.810195
vn -0.6826288 0.04992519 -0.7290578
v 0.155972 0.437795 0.0222049
vt 0.956471 0.865193
vn 0.9074468 0.3391349 0.2480479
v 0.0497341 0.505292 0.021495
vt 0.874554 0.929915
vn 0.2222589 0.9532796 0.2045949
v -0.162715 0.278834 0.0217708
vt 0.71074 0.744598
vn -0.8693059 -0.4313459 0.241346
v 0 0.302261 -0.224207
vt 0.836205 0.762661
vn 0 -0.2433539 -0.9699376
v 0 0.437934 -0.216839
vt 0.836205 0.854841
vn -9.109011E-05 0.360627 -0.9327101
v 0 0.47952 -0.153445
vt 0.836205 0.917402
vn -0.0003183821 0.9208512 -0.3899141
v 0.139976 0.458741 -0.00901817
vt 0.934687 0.896593
vn 0.6262357 0.7723345 0.1064349
v 0.163592 0.437712 -0.0402412
vt 0.962346 0.871317
vn 0.8867052 0.4339371 -0.159538
v 0.186862 0.356418 -0.0402412
vt 0.980289 0.80442
vn 0.9897687 0.05029659 -0.133522
v 0.175554 0.349791 0.0232703
vt 0.97157 0.79931
vn 0.9556322 0.0115284 0.2943371
v 0.0994681 0.493256 -0.0402412
vt 0.912902 0.927993
vn 0.4047122 0.8967085 -0.1792261
v -0.114995 0.236791 0.0217708
vt 0.747536 0.71218
vn -0.4078919 -0.8833178 0.2310279
v -0.0994681 0.221125 -0.0402412
vt 0.759508 0.7001
vn -0.433646 -0.8941669 -0.11143
v 0.124306 0.363906 -0.188933
vt 0.932054 0.810195
vn 0.6826828 0.04990608 -0.7290087
v 0 0.224737 -0.160934
vt 0.836205 0.702885
vn 0 -0.8751713 -0.4838132
v 0.11598 0.284637 -0.179737
vt 0.925634 0.749072
vn 0.598736 -0.5457711 -0.586216
v 0.171332 0.284637 -0.0402412
vt 0.968314 0.749072
vn 0.8588142 -0.4921281 -0.142296
v 0.162715 0.278834 0.0217708
vt 0.96167 0.744598
vn 0.8694423 -0.4301442 0.2429941
v 0.10825 0.437712 -0.177175
vt 0.919674 0.871317
vn 0.5761411 0.602044 -0.5528151
v 0 0.202945 0.0167957
vt 0.836205 0.686082
vn 0 -0.9613472 0.2753391
v 0.0994681 0.221125 -0.0402412
vt 0.912902 0.7001
vn 0.433646 -0.8941669 -0.11143
v 0 0.197878 -0.0402412
vt 0.836205 0.682175
vn 0 -0.9994115 -0.03430219
v 0.114995 0.236791 0.0217708
vt 0.924875 0.71218
vn 0.4078919 -0.8833178 0.2310279
vt 0.257852 0.0824742
vt 0.170527 0.178732
vt 0.0551441 0.175027
vt 0.257852 0.2311
vt 0.0470291 0.122346
vt 0.345178 0.178732
vt -0.0288206 0.0824743
vt 0.460561 0.175027
vt 0.468676 0.122346
vt 0.544526 0.0824742
v -0.0315105 0.169868 0.0447823
vt 0.53976 0.431713
vn -0.05059338 -0.3217449 0.9454737
v -0.0710977 0.0713277 -0.0152043
vt 0.598408 0.17198
vn -0.987589 0.0775457 -0.136582
v -0.0355489 0.0713277 0.0332988
vt 0.538275 0.187238
vn -0.2316231 -0.2720841 0.9339813
v -0.0530185 0.152885 0
vt 0.59257 0.376115
vn -0.9149151 -0.266564 -0.303107
v 0.0355489 0.0713277 0.0332988
vn 0.2316231 -0.2720841 0.9339813
v -0.167564 0.207578 0.112616
vt 0.485492 0.473782
vn -0.9651194 0.106538 0.2391531
v 0.0315105 0.169868 0.0447823
vn 0.05059309 -0.3217449 0.9454737
v -0.0469363 0.216044 0.0510107
vt 0.539406 0.475097
vn 0.126026 0.6968428 0.7060648
v -0.0573382 0 -0.0107744
vt 0.581535 0.0726358
vn -0.1704781 -0.9827044 -0.07231373
v -0.0265092 0.152885 -0.0514305
vt 0.656333 0.359936
vn -0.4585999 0.2349719 -0.8570148
v -0.0355489 0.0713277 -0.08522521
vt 0.685218 0.149954
vn -0.4316262 0.004087522 -0.9020433
v 0.0710977 0.0713277 -0.0152043
vn 0.987589 0.0775457 -0.136582
v 0 0.0596262 -0.0152043
vt 0.596541 0.143378
vn 0 -0.9997561 -0.0220856
v 0.0573382 0 -0.0107744
vn 0.1704781 -0.9827045 -0.07231344
v -0.0938725 0.217188 0
vt 0.60283 0.461847
vn -0.790982 0.316395 -0.523681
v 0.0265093 0.152885 -0.0514305
vn 0.4586003 0.2349721 -0.8570145
v -0.0469362 0.209052 -0.0404633
vt 0.651697 0.450882
v 0.0469363 0.209052 -0.0404633
v 0.0530185 0.152885 0
vn 0.9149149 -0.266565 -0.303107
v 0.0469362 0.216044 0.0510107
vn -0.126026 0.6968428 0.7060648
v 0.167564 0.207578 0.112616
vn 0.9651194 0.106538 0.2391531
v 0.0355489 0.0713277 -0.0852251
vn 0.4316262 0.004087372 -0.9020433
v 0 0.229166 0
vt 0.604741 0.491124
vn 0 0.9969901 -0.07752941
v 0.0938725 0.217188 0
vn 0.790982 0.316395 -0.523681
v 0.232434 0.358322 -0.082274
vt 0.88841 0.711191
vn 0.1784371 -0.0003586961 -0.9839513
v 0.290968 0.512234 -0.0281997
vt 0.930363 0.794865
vn 0.659838 0.6712989 0.337597
v 0.323511 0.366477 -0.0490324
vt 0.940575 0.715625
vn 0.7869483 -0.1661981 -0.5942143
v 0.190159 0.492541 -0.0772446
vt 0.869468 0.784604
vn -0.2711251 0.4351951 -0.8585432
v 0.259853 0.256297 -0.052519
vt 0.909202 0.655726
vn 0.437873 -0.813679 -0.382353
v 0.0944253 0.341431 -0.0755903
vt 0.824064 0.702008
vn -0.3565611 0.2320751 -0.9049892
v 0.127664 0.259893 -0.0803313
vt 0.838755 0.657681
vn -0.008993299 -0.6830289 -0.730336
v 0.212051 0.380415 -0.0301507
vt 0.856284 0.211057
vn -0.05317941 0.05241711 0.9972083
v 0.327875 0.380308 -0.0110486
vt 0.991092 0.26364
vn 0.410465 -0.0427416 0.9108741
vt 0.878386 0.39291
v 0.248979 0.270435 -0.00922798
vt 0.960634 0.107355
vn 0.172009 -0.5453551 0.8203661
v 0.183527 0.509956 -0.0318638
vt 0.762561 0.344618
vn -0.5775971 0.6200081 0.53101
v 0.127714 0.276522 -0.0321899
vt 0.814918 0.058364
vn -0.08356512 -0.5319232 0.8426592
v 0.0943717 0.394593 -0.0176165
vt 0.730925 0.180659
vn -0.7330819 0.5186859 0.4399499
vt 0.971231 0.237698
vt 0.751525 0.318495
vt 0.954151 0.0862424
vt 0.795169 0.0287898
vt 0.72319 0.107779
v -0.232434 0.358322 -0.082274
vn -0.2008531 0.003979751 -0.9796133
v -0.323511 0.366477 -0.0490324
vn -0.8018422 -0.08503542 -0.5914542
v -0.290968 0.512234 -0.0281997
vn -0.6602038 0.7295618 -0.178523
v -0.259853 0.256297 -0.052519
vn -0.481779 -0.7164081 -0.504627
v -0.190159 0.492541 -0.0772446
vn 0.133129 0.5173211 -0.8453731
v -0.127664 0.259893 -0.0803313
vn -0.02210119 -0.5680916 -0.8226686
v -0.0944253 0.341431 -0.0755903
vn 0.3333271 0.216791 -0.9175482
v -0.212051 0.380415 -0.0301507
vn 0.05586242 0.04842542 0.9972634
v -0.327875 0.380308 -0.0110486
vn -0.5817642 -0.02966301 0.8128164
v -0.183527 0.509956 -0.0318638
vn 0.339267 0.722429 0.6024901
v -0.248979 0.270435 -0.00922798
vn -0.133368 -0.4327529 0.8915929
v -0.0943717 0.394593 -0.0176165
vn 0.3218479 0.2576019 0.9110737
v -0.127714 0.276522 -0.0321899
vn 0.07408549 -0.3728909 0.9249128
v 0 0.105288 -0.224306
vt 0.956593 0.493322
vn 0 0.8144633 0.5802152
v 0 0.212045 -0.34835
vt 0.956593 0.734425
vn 0 0.7579452 0.6523182
v -0.0126384 0.200664 -0.353844
vt 0.939385 0.734425
vn -0.9928992 0.06384301 0.100375
v 0.0126384 0.200664 -0.353844
vt 0.9738 0.734425
vn 0.9928991 0.06384321 0.100376
v -0.00631919 0.099597 -0.227053
vt 0.947989 0.493322
vn -0.9944685 -0.1036709 -0.01687659
v 0.00631919 0.099597 -0.227053
vt 0.965196 0.493322
vn 0.9944685 -0.1036709 -0.01687639
v 0 0.0734876 -0.100262
vt 0.956593 0.252219
vn 0 -0.3260221 0.9453622
v 0 0.189282 -0.359338
vn 0 -0.8052739 -0.592903
v 0 0.0939062 -0.2298
vn 0 -0.8584844 -0.5128397
v -0.000311651 0.181383 -0.313551
vt 0.884376 0.684974
vn -0.00217281 -0.6291018 0.7773198
v -0.0508705 0.228608 -0.326032
vt 0.79706 0.753038
vn -0.6462592 0.3453841 0.6804842
v -0.0508705 0.183745 -0.362341
vn -0.6462603 -0.7375323 -0.1959431
v -0.000312128 0.243953 -0.344992
vt 0.884375 0.795163
vn -0.00107729 0.9608532 0.2770561
v -0.000312171 0.19909 -0.381301
vn -0.00107727 -0.471265 -0.881991
v 0.0508705 0.228608 -0.326032
vt 0.972769 0.753038
vn 0.6436132 0.3465391 0.6824022
v 0.0508705 0.183745 -0.362341
vn 0.6436139 -0.7396489 -0.196674
v -0.047817 0.245014 -0.392174
vt 0.802334 0.859655
vn -0.4257319 0.569244 -0.7033589
v 0.047817 0.245014 -0.392174
vt 0.967495 0.859655
vn 0.424622 0.569571 -0.703765
v 0 0.223135 0.0738325
vt 0.52273 0.434217
vn 0 -0.8851574 0.4652917
vt 0.972564 0.428913
vt 0.991789 0.367621
v -0.130522 0.273032 0.0837829
vt 0.436755 0.548451
vn -0.5710573 -0.5837643 0.5771593
v 0.130522 0.273032 0.0837829
vn 0.5716491 -0.5822571 0.5780951
vt 0.972564 0.56759
v -0.136475 0.34271 0.0863323
vt 0.414727 0.778281
vn -0.7128192 -0.04677651 0.6997862
vt 0.959608 0.801637
v -0.133427 0.384774 0.0852668
vt 0.423933 0.918513
vn -0.5231321 0.101138 0.8462292
v 0.135873 0.34271 0.0863323
vn 0.7123747 -0.05220708 0.6998548
vt 0.968814 1.07901
vt 0.433139 1.05132
v 0.134342 0.384774 0.0852669
vn 0.5255273 0.1002101 0.8448545
v 0 0.269144 0.134792
vt 0.456535 0.579386
vn -7.14891E-05 -0.600128 0.799904
vt 0.39165 0.581319
vt 0.456535 0.556514
v -0.0652611 0.301962 0.122166
vt 0.424092 0.595701
vn -0.3637161 -0.172984 0.9153072
vt 0.521421 0.581319
v 0.0652611 0.301962 0.122166
vt 0.488978 0.595701
vn 0.3567669 -0.1953759 0.9135347
vt 0.386605 0.616183
v -0.0645726 0.336574 0.12007
vt 0.42157 0.613133
vn -0.3952771 0.130377 0.9092623
vt 0.526465 0.616183
v 0.0760966 0.336574 0.12007
vt 0.4915 0.613133
vn 0.40723 0.187981 0.8937711
v 8.81612E-05 0.351133 0.144599
vt 0.00476056 0.515724
vn 0.0004889439 0.06106249 0.9981338
vt 0.255802 0.359392
vt 0.00476056 0.264141
vt 0.272372 0.482611
o merged_0_0_node
g polygon_0
usemtl YANAPPU_twoleg_YANAPPU_twoleg_mat_body1_mat_id
f 1/1/1 2/2/2 3/3/3
f 1/1/1 4/4/4 2/2/2
f 1/1/1 3/3/3 5/5/5
f 1/1/1 6/6/6 4/4/4
f 1/1/1 5/5/5 7/7/7
f 1/1/1 8/8/8 6/6/6
f 1/1/1 7/7/7 9/9/9
f 1/1/1 10/10/10 8/8/8
f 1/1/1 9/9/9 11/11/11
f 1/1/1 12/12/12 10/10/10
f 1/1/1 11/11/11 13/13/13
f 1/1/1 14/14/14 12/12/12
f 1/1/1 13/13/13 15/15/15
f 1/1/1 16/16/16 14/14/14
f 1/1/1 15/15/15 17/17/17
f 1/1/1 17/17/17 16/16/16
f 6/6/6 8/8/8 18/1/18
f 18/1/18 8/8/8 10/10/10
f 18/1/18 10/10/10 12/12/12
f 18/1/18 15/15/15 13/13/13
f 18/1/18 12/12/12 14/14/14
f 18/1/18 16/16/16 17/17/17
f 18/1/18 17/17/17 15/15/15
f 18/1/18 14/14/14 16/16/16
f 19/18/19 20/19/20 21/20/21
f 19/18/19 22/21/22 20/19/20
f 19/18/19 21/20/21 23/22/23
f 19/18/19 24/23/24 22/21/22
f 19/18/19 23/22/23 25/24/25
f 19/18/19 26/25/26 24/23/24
f 19/18/19 25/24/25 27/26/27
f 19/18/19 27/26/27 26/25/26
f 20/19/20 22/21/22 28/27/28
f 20/19/20 28/27/28 29/28/29
f 20/19/20 29/28/29 30/29/30
f 22/21/22 24/23/24 28/27/28
f 23/22/23 31/30/31 25/24/25
f 23/22/23 32/31/32 31/30/31
f 25/24/25 31/30/31 27/26/27
f 26/25/26 33/32/33 24/23/24
f 26/25/26 27/26/27 33/32/33
f 29/28/29 34/33/34 30/29/30
f 29/28/29 28/27/28 35/34/35
f 29/28/29 36/35/36 34/33/34
f 29/28/29 35/34/35 37/36/37
f 29/28/29 37/36/37 36/35/36
f 28/27/28 24/23/24 35/34/35
f 32/31/32 38/37/38 31/30/31
f 27/26/27 39/38/39 33/32/33
f 27/26/27 31/30/31 39/38/39
f 30/29/30 34/33/34 40/39/40
f 37/36/37 41/40/41 36/35/36
f 37/36/37 35/34/35 42/41/42
f 37/36/37 42/41/42 41/40/41
f 24/23/24 33/32/33 43/42/43
f 24/23/24 43/42/43 35/34/35
f 35/34/35 43/42/43 42/41/42
f 38/37/38 44/43/44 31/30/31
f 38/37/38 45/44/45 44/43/44
f 38/37/38 46/45/46 45/44/45
f 38/37/38 47/46/47 46/45/46
f 39/38/39 48/47/48 33/32/33
f 39/38/39 31/30/31 48/47/48
f 44/43/44 45/44/45 48/47/48
f 44/43/44 48/47/48 31/30/31
f 33/32/33 48/47/48 43/42/43
f 34/33/34 49/48/49 40/39/40
f 34/33/34 36/35/36 50/49/50
f 34/33/34 50/49/50 49/48/49
f 41/40/41 42/41/42 51/50/51
f 41/40/41 52/51/52 36/35/36
f 41/40/41 51/50/51 53/52/53
f 41/40/41 53/52/53 52/51/52
f 36/35/36 52/51/52 50/49/50
f 47/46/47 54/53/54 46/45/46
f 47/46/47 55/54/55 54/53/54
f 45/44/45 56/55/56 48/47/48
f 45/44/45 46/45/46 56/55/56
f 56/55/56 43/42/43 48/47/48
f 56/55/56 42/41/42 43/42/43
f 56/55/56 46/45/46 51/50/51
f 56/55/56 51/50/51 42/41/42
f 46/45/46 53/52/53 51/50/51
f 46/45/46 54/53/54 53/52/53
f 49/48/49 50/49/50 57/56/57
f 52/51/52 53/52/53 58/57/58
f 52/51/52 59/58/59 50/49/50
f 52/51/52 58/57/58 59/58/59
f 59/58/59 57/56/57 50/49/50
f 59/58/59 58/57/58 57/56/57
f 53/52/53 54/53/54 58/57/58
f 55/54/55 60/59/60 54/53/54
f 60/59/60 57/56/57 58/57/58
f 60/59/60 58/57/58 54/53/54
f 18/60/18 3/61/3 2/62/2
f 18/60/18 5/63/5 3/61/3
f 18/60/18 2/62/2 4/64/4
f 18/60/18 7/65/7 5/63/5
f 18/60/18 4/64/4 6/66/6
f 18/60/18 9/67/9 7/65/7
f 18/60/18 11/68/11 9/67/9
f 18/60/18 13/69/13 11/68/11
f 61/70/61 62/71/62 63/72/63
f 61/70/61 64/73/64 62/71/62
f 61/70/61 63/72/63 65/72/65
f 61/70/61 66/74/66 64/73/64
f 61/70/61 65/72/65 67/70/67
f 61/70/61 68/75/68 66/74/66
f 61/70/61 67/70/67 68/75/68
f 62/71/62 69/76/69 63/72/63
f 62/71/62 64/73/64 70/77/70
f 62/71/62 71/78/71 69/76/69
f 62/71/62 70/77/70 71/78/71
f 65/72/65 72/71/72 67/70/67
f 65/72/65 63/72/63 73/79/73
f 65/72/65 74/76/74 72/71/72
f 65/72/65 73/79/73 74/76/74
f 69/76/69 71/78/71 73/79/73
f 69/76/69 73/79/73 63/72/63
f 66/74/66 68/75/68 75/80/75
f 66/74/66 75/80/75 64/73/64
f 70/77/70 76/77/76 71/78/71
f 70/77/70 64/73/64 77/81/70
f 70/77/70 78/81/76 76/77/76
f 70/77/70 77/81/70 78/81/76
f 64/73/64 75/80/75 77/81/70
f 67/70/67 72/71/72 79/73/77
f 67/70/67 80/75/78 68/75/68
f 67/70/67 79/73/77 81/74/79
f 67/70/67 81/74/79 80/75/78
f 74/76/74 73/79/73 82/78/80
f 74/76/74 82/78/80 72/71/72
f 76/77/76 82/78/80 71/78/71
f 76/77/76 78/81/76 79/73/77
f 76/77/76 72/71/72 82/78/80
f 76/77/76 79/73/77 72/71/72
f 82/78/80 73/79/73 71/78/71
f 75/80/75 83/82/81 77/81/70
f 75/80/75 68/75/68 83/82/81
f 68/75/68 80/75/78 83/82/81
f 77/81/70 83/82/81 78/81/76
f 81/74/79 79/73/77 84/80/82
f 81/74/79 84/80/82 80/75/78
f 84/80/82 83/82/81 80/75/78
f 84/80/82 79/73/77 78/81/76
f 84/80/82 78/81/76 83/82/81
f 85/83/83 86/84/84 87/85/85
f 85/83/83 88/86/86 86/84/84
f 85/83/83 87/85/85 89/87/87
f 85/83/83 90/88/88 88/86/86
f 85/83/83 89/87/87 91/89/89
f 85/83/83 91/89/89 90/88/88
f 92/90/90 93/91/91 86/92/84
f 92/90/90 94/93/92 93/91/91
f 92/90/90 86/92/84 95/94/93
f 92/90/90 96/95/94 94/93/92
f 92/90/90 95/94/93 97/96/95
f 92/90/90 97/96/95 96/95/94
f 93/91/91 87/97/85 86/92/84
f 93/91/91 94/93/92 87/97/85
f 95/94/93 88/98/86 97/96/95
f 95/94/93 86/92/84 88/98/86
f 96/95/94 89/99/87 94/93/92
f 96/95/94 91/100/89 89/99/87
f 89/99/87 87/97/85 94/93/92
f 97/96/95 88/98/86 90/101/88
f 98/83/96 99/85/97 100/84/98
f 98/83/96 101/87/99 99/85/97
f 98/83/96 100/84/98 102/86/100
f 98/83/96 103/89/101 101/87/99
f 98/83/96 102/86/100 104/88/102
f 98/83/96 104/88/102 103/89/101
f 105/90/103 100/92/98 106/91/104
f 105/90/103 107/94/105 100/92/98
f 105/90/103 106/91/104 108/93/106
f 105/90/103 109/96/107 107/94/105
f 105/90/103 108/93/106 110/95/108
f 105/90/103 110/95/108 109/96/107
f 100/92/98 99/97/97 106/91/104
f 100/92/98 107/94/105 102/98/100
f 107/94/105 109/96/107 102/98/100
f 106/91/104 99/97/97 108/93/106
f 110/95/108 108/93/106 101/99/99
f 110/95/108 101/99/99 103/100/101
f 101/99/99 108/93/106 99/97/97
f 109/96/107 104/101/102 102/98/100
f 111/102/109 112/103/110 113/104/111
f 111/102/109 114/105/112 112/103/110
f 111/102/109 113/104/111 115/106/113
f 111/102/109 116/107/114 114/105/112
f 111/102/109 115/106/113 117/108/115
f 111/102/109 117/108/115 116/107/114
f 113/104/111 118/103/116 115/106/113
f 114/105/112 116/107/114 118/103/116
f 117/108/115 115/106/113 119/102/117
f 117/108/115 119/102/117 116/107/114
f 119/102/117 115/106/113 118/103/116
f 119/102/117 118/103/116 116/107/114
f 120/109/118 121/110/119 122/110/120
f 120/109/118 123/111/121 121/110/119
f 120/109/118 122/110/120 124/111/122
f 120/109/118 125/112/123 123/111/121
f 120/109/118 124/111/122 126/112/124
f 120/109/118 126/112/124 125/112/123
f 121/110/119 127/113/125 122/110/120
f 121/110/119 123/111/121 127/113/125
f 127/113/125 123/111/121 124/111/122
f 127/113/125 124/111/122 122/110/120
f 126/112/124 128/114/126 125/112/123
f 126/112/124 124/111/122 128/114/126
f 128/114/126 124/111/122 123/111/121
f 128/114/126 123/111/121 125/112/123
f 129/115/127 49/116/49 57/117/57
f 129/115/127 130/118/128 49/116/49
f 129/115/127 57/117/57 60/116/60
f 129/115/127 60/116/60 131/118/129
f 130/118/128 40/119/40 49/116/49
f 130/118/128 132/120/130 40/119/40
f 60/116/60 55/119/55 131/118/129
f 132/120/130 30/121/30 40/119/40
f 132/120/130 133/122/131 30/121/30
f 55/119/55 134/120/132 131/118/129
f 55/119/55 47/121/47 134/120/132
f 133/122/131 20/123/20 30/121/30
f 133/122/131 21/124/21 20/123/20
f 47/121/47 135/122/133 134/120/132
f 47/121/47 38/123/38 135/122/133
f 38/123/38 32/124/32 135/122/133
f 136/125/134 130/126/128 129/127/127
f 136/125/134 137/128/135 130/126/128
f 136/125/134 129/127/127 131/129/129
f 136/125/134 131/129/129 138/130/136
f 137/128/135 132/131/130 130/126/128
f 137/128/135 139/132/137 132/131/130
f 131/129/129 134/133/132 138/130/136
f 134/133/132 140/134/138 138/130/136
f 141/135/139 137/136/135 136/137/134
f 141/135/139 139/138/137 137/136/135
f 141/135/139 136/137/134 138/136/136
f 141/135/139 138/136/136 140/138/138
vt 0.955154 0.767812
vt 0.0583413 0.788545
vt 0.928544 0.871354
vt 0.522068 0.752709
vt 0.0583413 0.974896
vt 0.872365 0.974896
o merged_1_0_node
g polygon_0
usemtl TEX_ANIM_EYE_mat_id
f 132/139/130 141/140/139 133/141/131
f 135/141/133 141/140/139 134/139/132
f 141/140/139 140/142/138 134/139/132
f 141/140/139 132/139/130 139/142/137
f 141/140/139 135/141/133 23/143/23
f 23/143/23 135/141/133 32/144/32
f 141/140/139 23/143/23 133/141/131
f 133/141/131 23/143/23 21/144/21
