mtllib Hoppip.mtl
v 0.211331 0.118144 0
vt 0.923604 0.0670511
vn 0.941992 -0.332197 -0.0479204
v 0.146236 0.171108 0.175696
vn 0.6199836 -0.08270695 0.7802435
v 0.157305 0.0714046 0.0969147
vn 0.7097591 -0.6227181 0.3293391
v 0.192755 0.215699 0.119129
vn 0.8891022 -0.06303102 0.4533481
v 0.156669 0.0473125 0
vn 0.6341811 -0.7729381 -0.0195171
v 0.211331 0.22383 0
vn 0.9443874 -0.3264261 0.03973021
v 0.130609 0.0932075 -0.137382
vn 0.5892014 -0.5044833 -0.6311405
v 0.192755 0.201065 -0.119129
vn 0.7964275 -0.1927531 -0.5731924
v 0.152207 0.0876863 0.195869
vn 0.528255 -0.3805601 0.7590261
v 0.138423 0.240015 0.166707
vn 0.4395052 0.2255601 0.8694584
v 0.0702932 0.0707082 0.162774
vn 0.110256 -0.7683643 0.6304442
v 0.0857685 0.0342181 -0.0919643
vn 0.221954 -0.8023661 -0.5540261
v 0.0595644 0.0184161 0.0435938
vn 0.116475 -0.9556982 0.2703231
v 0.0970949 -4.96387E-05 -0.0754853
vn 0.2429619 -0.9440048 -0.2232139
v 0.0807211 0.201065 -0.211331
vn 0.364808 0.0322811 -0.930523
v 0.130609 0.308922 -0.130609
vn 0.307393 0.649063 -0.695864
v 0.231968 0.339671 -0.0825257
vn 0.153418 0.699976 -0.697493
v 0.301275 0.349024 -0.0529333
vn 0.9265001 0.248749 -0.28235
v 0.130609 0.308922 0.147145
vn 0.4105569 0.7117057 0.5700158
v 0.161892 0.305785 0.0743924
vn 0.4917578 0.6913847 0.5293028
v 0.243355 0.297385 0.0388286
vn 0.828898 0.0161695 0.559166
v 0 0.0254194 -0.0248318
vn 0 -0.9978874 -0.06496683
v 0 0.102688 -0.199527
vn 0 -0.548385 -0.836226
v -0.0857685 0.0342181 -0.0919643
vn -0.221954 -0.8023661 -0.5540261
v -0.0595644 0.0184161 0.0435938
vn -0.112696 -0.9548752 0.2747961
v -0.0702932 0.0707082 0.162774
vn -0.1072409 -0.7734886 0.6246717
v 0 0.11189 0.196833
vn 0 -0.3783291 0.9256712
v 0.119129 0.360241 0
vn 0.176639 0.984245 0.00777713
v 0 0.28251 -0.192755
vn 0 0.5851082 -0.8109553
v 0 0.371066 -0.0807211
vn 0 0.9388745 -0.3442598
v 0.231968 0.363329 -0.0130685
vn 0.128934 0.986794 0.0980497
v -0.130609 0.0932075 -0.137382
vn -0.589201 -0.504483 -0.6311411
v -0.0970949 -4.96387E-05 -0.0754853
vn -0.2429619 -0.9440048 -0.2232139
v -0.156669 0.0473125 0
vn -0.6341811 -0.7729381 -0.0195171
v -0.157305 0.0714046 0.0969147
vn -0.7097591 -0.6227181 0.3293391
v -0.152207 0.0876863 0.195869
vn -0.528255 -0.3805601 0.7590261
v -0.146236 0.171108 0.175696
vn -0.6199841 -0.08270702 0.7802431
v -0.0807211 0.201065 -0.211331
vn -0.364808 0.0322811 -0.930523
v 0 0.375581 0.0807211
vn 0 0.9598023 0.2806771
v -0.130609 0.308922 -0.130609
vn -0.307393 0.649063 -0.695864
v -0.119129 0.360241 0
vn -0.1811929 0.9832916 0.01751589
v -0.211331 0.118144 0
vn -0.941992 -0.332197 -0.0479204
v -0.192755 0.215699 0.119129
vn -0.8891022 -0.06303102 0.4533481
v -0.138423 0.240015 0.166707
vn -0.439506 0.22556 0.869458
v -0.231968 0.339671 -0.0825257
vn -0.197753 0.6085101 -0.7685111
v -0.130609 0.308922 0.147145
vn -0.4105569 0.7117057 0.5700158
v -0.231968 0.363329 -0.0130685
vn -0.189433 0.9418431 0.277573
v -0.161892 0.305785 0.0743924
vn -0.4917581 0.6913842 0.5293032
v -0.192755 0.201065 -0.119129
vn -0.7964278 -0.192753 -0.5731919
v 0 0.299441 0.192755
vn 0 0.647697 0.761898
v -0.301275 0.349024 -0.0529333
vn -0.9806471 -0.09176131 -0.172948
v -0.243355 0.297385 0.0388286
vn -0.828898 0.0161695 0.559166
v -0.211331 0.22383 0
vn -0.9443874 -0.3264261 0.03973021
v -0.0233031 0.0556646 -0.228127
vt 0.75 0
vn -0.9768499 -0.185916 -0.105828
v 0 0.0635481 -0.15112
vn 0 -0.02672529 0.9996428
v 0 0.07876679 -0.225073
vn 0 0.9404768 0.3398579
v 0 0.0325623 -0.23118
vn 0 -0.9616735 -0.2741971
v 0 0.113091 -0.293247
vn 0 0.333421 -0.9427781
v 0.0233031 0.0556646 -0.228127
vn 0.9768499 -0.185916 -0.105828
vt 0.915944 0.109374
v 0 0.241772 0.210388
vn 0 0.2065519 0.9784356
vt 0.0162412 -0.582804
v 0 0.184103 0.217449
vt 0.0162412 0.876097
vn 0 -0.08220901 0.9966151
vt 1.76909 0.613554
vt 0.858808 -1.41479
o merged_0_0_node
g polygon_0
usemtl mat_kao_mat_id
f 1/1/1 2/1/2 3/1/3
f 1/1/1 4/1/4 2/1/2
f 1/1/1 3/1/3 5/1/5
f 1/1/1 6/1/6 4/1/4
f 1/1/1 5/1/5 7/1/7
f 1/1/1 8/1/8 6/1/6
f 1/1/1 7/1/7 8/1/8
f 2/1/2 9/1/9 3/1/3
f 2/1/2 4/1/4 10/1/10
f 2/1/2 11/1/11 9/1/9
f 9/1/9 11/1/11 3/1/3
f 5/1/5 12/1/12 7/1/7
f 5/1/5 3/1/3 13/1/13
f 5/1/5 14/1/14 12/1/12
f 5/1/5 13/1/13 14/1/14
f 3/1/3 11/1/11 13/1/13
f 8/1/8 7/1/7 15/1/15
f 8/1/8 15/1/15 16/1/16
f 8/1/8 16/1/16 17/1/17
f 8/1/8 17/1/17 18/1/18
f 4/1/4 19/1/19 10/1/10
f 4/1/4 20/1/20 19/1/19
f 4/1/4 21/1/21 20/1/20
f 12/1/12 14/1/14 22/1/22
f 12/1/12 23/1/23 7/1/7
f 12/1/12 22/1/22 24/1/24
f 12/1/12 24/1/24 23/1/23
f 7/1/7 23/1/23 15/1/15
f 14/1/14 13/1/13 22/1/22
f 11/1/11 25/1/25 13/1/13
f 11/1/11 26/1/26 25/1/25
f 11/1/11 27/1/27 26/1/26
f 13/1/13 25/1/25 22/1/22
f 16/1/16 28/1/28 17/1/17
f 16/1/16 15/1/15 29/1/29
f 16/1/16 30/1/30 28/1/28
f 16/1/16 29/1/29 30/1/30
f 18/1/18 31/1/31 21/1/21
f 18/1/18 17/1/17 31/1/31
f 31/1/31 20/1/20 21/1/21
f 31/1/31 17/1/17 28/1/28
f 31/1/31 28/1/28 20/1/20
f 20/1/20 28/1/28 19/1/19
f 24/1/24 32/1/32 23/1/23
f 24/1/24 22/1/22 33/1/33
f 24/1/24 34/1/34 32/1/32
f 24/1/24 33/1/33 34/1/34
f 33/1/33 25/1/25 34/1/34
f 33/1/33 22/1/22 25/1/25
f 26/1/26 35/1/35 25/1/25
f 26/1/26 36/1/36 35/1/35
f 26/1/26 37/1/37 36/1/36
f 36/1/36 37/1/37 35/1/35
f 25/1/25 35/1/35 34/1/34
f 15/1/15 38/1/38 29/1/29
f 15/1/15 23/1/23 38/1/38
f 23/1/23 32/1/32 38/1/38
f 30/1/30 39/1/39 28/1/28
f 30/1/30 29/1/29 40/1/40
f 30/1/30 41/1/41 39/1/39
f 30/1/30 40/1/40 41/1/41
f 29/1/29 38/1/38 40/1/40
f 28/1/28 39/1/39 19/1/19
f 37/1/37 42/1/42 35/1/35
f 37/1/37 43/1/43 42/1/42
f 37/1/37 44/1/44 43/1/43
f 34/1/34 42/1/42 32/1/32
f 34/1/34 35/1/35 42/1/42
f 41/1/41 40/1/40 45/1/45
f 41/1/41 46/1/46 39/1/39
f 41/1/41 45/1/45 47/1/47
f 41/1/41 48/1/48 46/1/46
f 41/1/41 47/1/47 48/1/48
f 44/1/44 46/1/46 43/1/43
f 38/1/38 32/1/32 49/1/49
f 38/1/38 49/1/49 40/1/40
f 40/1/40 49/1/49 45/1/45
f 32/1/32 42/1/42 49/1/49
f 19/1/19 39/1/39 50/1/50
f 46/1/46 48/1/48 43/1/43
f 46/1/46 50/1/50 39/1/39
f 47/1/47 45/1/45 51/1/51
f 47/1/47 52/1/52 48/1/48
f 47/1/47 51/1/51 52/1/52
f 52/1/52 43/1/43 48/1/48
f 51/1/51 45/1/45 49/1/49
f 42/1/42 43/1/43 53/1/53
f 42/1/42 53/1/53 49/1/49
f 54/2/54 55/2/55 56/2/56
f 54/2/54 57/2/57 55/2/55
f 54/2/54 56/2/56 58/2/58
f 54/2/54 58/2/58 57/2/57
f 55/2/55 59/2/59 56/2/56
f 55/2/55 57/2/57 59/2/59
f 59/2/59 58/2/58 56/2/56
f 59/2/59 57/2/57 58/2/58
f 50/3/50 44/3/44 60/3/60
f 50/3/50 46/3/46 44/3/44
f 50/3/50 60/3/60 10/3/10
f 50/3/50 10/3/10 19/3/19
f 27/4/27 61/5/61 37/6/37
f 27/4/27 2/6/2 61/5/61
f 27/4/27 37/6/37 26/7/26
f 27/4/27 11/7/11 2/6/2
v 0.0968728 0.541449 -0.0804181
vt 0.670752 0.518053
vn 0.3950288 -0.8402276 -0.3714428
v 0.206075 0.558795 -0.011044
vt -0.0905007 0.695955
vn 0.2963281 -0.9039413 -0.3083501
v 0.123074 0.536838 -0.0430305
vt 0.370934 0.525588
vn 0.4491027 -0.7933105 -0.4110537
v 0.0385628 0.482069 -0.0461975
vt 0.658493 0.258082
vn 0.5107178 -0.7261028 -0.4603718
v 0.0613701 0.48017 -0.017591
vt 0.420121 0.272309
vn 0.5224101 -0.7171221 -0.4613281
v 0.00983839 0.462804 -0.053074
vt 0.78648 0.170125
vn 0.6091061 -0.5981001 -0.5208321
v 0.0564242 0.454533 0.0108798
vt 0.266722 0.185271
v 0.00301995 0.407653 -0.00121086
vt 0.492024 -0.00327218
vn 0.6243032 -0.5747252 -0.5290902
v 0.0506825 0.524375 -0.101922
vt 0.943258 0.415309
vn 0.4879059 -0.7430729 -0.4580289
v 0.252718 0.615511 -0.142515
vt 0.479107 1.00328
vn 0.2755011 -0.9143654 -0.2967071
v 0.108121 0.581376 -0.171583
vt 1.14488 0.695368
v 0.121253 0.50627 0.00684092
vt 0.0883353 0.416899
vn 0.5033528 -0.7447708 -0.4381239
v -0.108686 0.549576 -0.0202656
vn -0.4479088 -0.7429147 -0.4974488
v -0.0810364 0.605815 -0.13477
vn -0.3526188 -0.8217686 -0.4476118
v -0.0821838 0.557638 -0.0568471
vn -0.5053561 -0.688998 -0.5195161
v -0.0543626 0.481882 0.00347652
vn -0.5753167 -0.6150717 -0.5391638
v -0.0350839 0.49036 -0.0264997
vn -0.5805349 -0.6034529 -0.5466479
v -0.050334 0.454702 0.0255785
vn -0.670686 -0.47478 -0.569881
v -0.00558043 0.468614 -0.0387048
v 0.00302005 0.407653 -0.00121083
vn -0.68455 -0.449531 -0.5738581
v -0.112606 0.517627 0.0227623
vn -0.564709 -0.637152 -0.524539
v -0.222762 0.654109 -0.118695
vn -0.334208 -0.835769 -0.435655
v -0.199865 0.577839 0.0100565
v -0.0334067 0.535065 -0.0800028
vn -0.5511364 -0.6317273 -0.5451323
vn -0.395029 0.840228 0.371442
vn -0.4491027 0.7933105 0.4110537
vn -0.2963281 0.9039413 0.3083501
vn -0.5107178 0.7261028 0.4603718
vn -0.6091061 0.5981001 0.5208321
vn -0.5224101 0.7171221 0.4613281
vn -0.6243029 0.5747259 0.5290899
vn -0.4879059 0.7430729 0.4580289
vn -0.2755011 0.9143654 0.2967071
vn -0.5033528 0.7447708 0.4381239
vn 0.4479088 0.7429147 0.4974488
vn 0.5053561 0.688998 0.5195161
vn 0.3526188 0.8217686 0.4476118
vn 0.5753161 0.6150721 0.5391641
vn 0.670686 0.47478 0.569881
vn 0.5805346 0.6034526 0.5466486
vn 0.68455 0.449531 0.5738581
vn 0.564709 0.637152 0.524539
vn 0.3342082 0.8357694 0.4356542
vn 0.5511364 0.6317273 0.5451323
o merged_1_0_node
g polygon_0
usemtl mat_leaf_mat_id
f 62/8/62 63/9/63 64/10/64
f 65/11/65 66/12/66 67/13/67
f 67/13/67 66/12/66 68/14/67
f 67/13/67 68/14/67 69/15/68
f 64/10/64 66/12/66 62/8/62
f 66/12/66 65/11/65 62/8/62
f 62/8/62 65/11/65 70/16/69
f 71/17/70 63/9/63 72/18/63
f 62/8/62 72/18/63 63/9/63
f 64/10/64 73/19/71 66/12/66
f 74/8/72 75/9/73 76/10/74
f 77/11/75 78/12/76 79/13/77
f 79/13/77 78/12/76 80/14/77
f 79/13/77 80/14/77 81/15/78
f 76/10/74 78/12/76 74/8/72
f 78/12/76 77/11/75 74/8/72
f 74/8/72 77/11/75 82/16/79
f 83/17/80 75/9/73 84/18/73
f 74/8/72 84/18/73 75/9/73
f 76/10/74 85/19/81 78/12/76
f 62/8/82 64/10/83 63/9/84
f 65/11/85 67/13/86 66/12/87
f 67/13/86 68/14/86 66/12/87
f 67/13/86 69/15/88 68/14/86
f 64/10/83 62/8/82 66/12/87
f 66/12/87 62/8/82 65/11/85
f 62/8/82 70/16/89 65/11/85
f 71/17/90 72/18/84 63/9/84
f 62/8/82 63/9/84 72/18/84
f 64/10/83 66/12/87 73/19/91
f 74/8/92 76/10/93 75/9/94
f 77/11/95 79/13/96 78/12/97
f 79/13/96 80/14/96 78/12/97
f 79/13/96 81/15/98 80/14/96
f 76/10/93 74/8/92 78/12/97
f 78/12/97 74/8/92 77/11/95
f 74/8/92 82/16/99 77/11/95
f 83/17/100 84/18/94 75/9/94
f 74/8/92 75/9/94 84/18/94
f 76/10/93 78/12/97 85/19/101
vt 0.483917 0.156465
vt 0.983917 0.0037616
vt 0.706085 0.996239
vt 0.320947 0.649856
vt -0.0160835 0.101928
o merged_2_0_node
g polygon_0
usemtl mat_mimi_mat_id
f 6/20/6 8/21/8 18/22/18
f 18/22/18 21/23/21 6/20/6
f 6/20/6 21/23/21 4/24/4
f 43/24/43 52/23/52 53/20/53
f 53/20/53 52/23/52 51/22/51
f 51/22/51 49/21/49 53/20/53
vt 1.20406 0.785006
vt -0.388327 0.820383
vt 1.11898 0.972591
vt -0.388327 0.977375
o merged_3_0_node
g polygon_0
usemtl TEX_ANIM_EYE_mat_id
f 37/25/37 61/26/61 44/27/44
f 61/26/61 60/28/60 44/27/44
f 2/25/2 10/27/10 61/26/61
f 61/26/61 10/27/10 60/28/60
