mtllib Huntail.mtl
v -5.43457E-05 0.109681 0.427604
vt 0.909912 0.501741
vn -3.999789E-06 -0.9981846 -0.06022868
v -0.19763 0.114926 0.516037
vn -0.4358568 -0.8986546 -0.04948438
v -0.205825 0.134676 0.374341
vn -0.4940161 -0.8528772 -0.168963
v -0.145398 0.100036 0.579784
vn -0.1410519 -0.9084737 0.3934208
v 0 0.11719 0.28686
vn 1.68793E-05 -0.9575323 -0.2883261
v 0 0.116976 0.576702
vn -2.221101E-05 -0.9373634 0.3483531
v 0.205825 0.134676 0.374341
vn 0.4938919 -0.8529538 -0.1689399
v 0.14529 0.100036 0.579784
vn 0.140945 -0.9085067 0.3933828
v 0.19763 0.114926 0.516037
vn 0.4356531 -0.8987571 -0.04941821
v -0.189869 0.193332 0.498939
vn -0.8169643 0.3372312 0.4678082
v -0.171657 0.158745 0.571899
vn -0.4784378 0.3550569 0.8031387
v 0.132148 0.179018 0.236164
vn 0.4378497 -0.6102517 -0.6602126
v -0.132148 0.179018 0.236164
vn -0.4378497 -0.6102517 -0.6602126
v 0 0.189848 0.173012
vn 0 -0.4709472 -0.8821614
v 0 0.171985 0.601587
vn 1.949579E-05 0.7737757 0.6334597
v 0.189869 0.193332 0.498939
vn 0.8169643 0.3372312 0.4678082
v 0.171657 0.158745 0.571899
vn 0.4786179 0.3546579 0.8032078
v -0.213819 0.204869 0.31999
vn -0.9593362 -0.139197 -0.2455571
v -0.195025 0.322288 0.462737
vn -0.9436799 0.147074 0.296374
v 0.155992 0.322288 0.199927
vn 0.6334119 0.0312665 -0.7731829
v 0.213819 0.204869 0.31999
vn 0.9593362 -0.139197 -0.2455571
v -0.213307 0.381711 0.333179
vn -0.9599226 0.2617859 -0.100084
v -0.155992 0.322288 0.199927
vn -0.6334119 0.0312665 -0.7731829
v 0.213307 0.381711 0.333179
vn 0.9599226 0.2617859 -0.100084
v 0 0.307995 0.17032
vn 0.1865819 -0.00128578 -0.9824386
v 0.132148 0.435518 0.236164
vn 0.5149392 0.6226022 -0.5892403
v 0 0.425565 0.173012
vn 0 0.477356 -0.87871
v 0.195025 0.322288 0.462737
vn 0.9436799 0.147074 0.296374
v -0.132148 0.435518 0.236164
vn -0.5149389 0.6226019 -0.5892409
v -0.144567 0.489394 0.368889
vn -0.5355639 0.8441018 0.02575599
vn -0.1865819 -0.00128577 -0.9824386
v 0.144567 0.489394 0.368889
vn 0.5355639 0.8441018 0.0257559
v 0 0.505498 0.28686
vn 0 0.9530554 -0.3027961
v 0 0.505498 0.450917
vn 0 0.9530554 0.3027961
v 0.132148 0.435518 0.501614
vn 0.5917571 0.5791391 0.5607331
v 0 0.425565 0.564765
vn 0 0.5792149 0.8151749
v -0.132148 0.435518 0.501614
vn -0.5917571 0.5791391 0.5607331
v 0.12542 0.322335 0.406639
vt 0.643097 0.884471
vn 0.129822 -0.479295 0.8679991
v 0.124666 0.166515 0.545143
vt 0.639232 0.61961
vn 0.210668 0.698461 0.683938
vt 0.973565 0.686928
v 0 0.276692 0.525356
vt 0 0.730949
vn 0 0.6556928 0.7550278
vt 1 0.829919
vn -0.4721021 -0.6592612 0.5852301
v -0.12542 0.322335 0.406639
vt -0.643097 0.884471
vn -0.115824 -0.6220569 0.7743578
v 0.0816717 0.322288 0.583642
vt 0.901625 0.988409
vn -4.78854E-05 -1 -0.000274298
v -0.0816717 0.322288 0.583642
vt -0.901625 0.988409
vt 0.880183 0.587114
v -0.124666 0.166515 0.545143
vt -0.639232 0.61961
vn -0.210668 0.698461 0.683938
vt 0 0.569334
vt -1 0.829919
vn 0.4721021 -0.6592612 0.5852301
vt -0.880183 0.587114
vt -0.973565 0.686928
v 0 0.350334 -0.225211
vt 0.0828655 0.294379
vn 0 0.9918128 -0.127701
v -0.0544887 0.32601 -0.225211
vn -0.911555 0.383426 -0.148499
v 0 0.372809 -0.0469319
vn 0 0.9936984 -0.112087
v -0.0249496 0.311931 -0.446535
vn -0.9190639 0.363597 -0.152049
v 0.0544886 0.32601 -0.225211
vn 0.911555 0.383426 -0.148499
v 0 0.323069 -0.446535
vn 0 0.9918127 -0.127701
v 0.0249495 0.311931 -0.446535
vn 0.9190639 0.363597 -0.152049
v -0.08017521 0.337017 -0.0469319
vn -0.902318 0.40724 -0.141343
v 0 0.30171 -0.579666
vn 0 -0.4198311 -0.9076023
v 0.08017521 0.337017 -0.0469319
vn 0.902318 0.40724 -0.141343
v 0 0.403065 0.224264
vn 0 0.818849 0.574009
v -0.11804 0.348634 0.234677
vn -0.7606779 0.339678 0.5531619
v 0.0181854 0.273777 -0.446535
vn 0.616296 -0.7739279 -0.145653
v -0.0181855 0.273777 -0.446535
vn -0.616296 -0.7739279 -0.145653
v 0.11804 0.348634 0.234677
vn 0.7606779 0.339678 0.5531619
v -0.0397162 0.254632 -0.225211
vn -0.591551 -0.7964529 -0.12542
v 0.0397162 0.254632 -0.225211
vn 0.591551 -0.7964529 -0.12542
v 0.0584388 0.241447 -0.0469319
vn 0.547023 -0.8292531 -0.114478
v -0.0584388 0.241447 -0.0469319
vn -0.547023 -0.8292531 -0.114478
v -0.0859513 0.222647 0.234677
vn -0.4909059 -0.712337 0.5015849
v 0.0859513 0.222647 0.234677
vn 0.4909067 -0.7123366 0.5015847
v 0.0385436 0.302031 -0.6731579
vt 0.491008 0.364087
vn 0.9986727 0 -0.05150548
v 0 0.302031 -0.8007959
vt 1.16329 0.364087
vn 0 0 -1
v 0 0.380543 -0.6964629
vt 0.61376 0.46747
vn 0 0.9334506 -0.3587059
v 0 0.223519 -0.6964629
vt 0.61376 0.260703
vn 0 -0.9334506 -0.3587059
v 0 0.371841 -0.6161929
vt 0.190969 0.456011
vn 0 0.7991439 0.6011399
v 0 0.232221 -0.6161929
vt 0.190969 0.272163
vn 0 -0.799143 0.601141
v 0 0.302031 -0.5880179
vt 0.0425642 0.364087
vn 0 0 1
v -0.0385436 0.302031 -0.6731579
vn -0.9986727 0 -0.05150548
v 0 0.61741 0.372791
vt 0 0.135784
vn 0 0.3440929 -0.9389356
v -0.0877778 0.703184 0.446008
vt 0.107136 0.239608
vn -0.2477861 0.4697111 -0.8473332
v 0.0877778 0.703184 0.446008
vt 0.438889 0.239608
vn 0.2477861 0.4697111 -0.8473332
v 0.2 0.64164 0.469095
vt 1 0.165114
vn 0.3876621 0.2847361 -0.8767232
v 0 0.512659 0.349204
vt 0 0.00898907
vn 0 0.2196719 -0.9755738
v -0.2 0.64164 0.469095
vn -0.3876621 0.2847361 -0.8767232
vn 0 -0.3440929 0.9389356
vn -0.2477861 -0.4697111 0.8473332
vn 0.2477861 -0.4697111 0.8473332
vn -0.3876629 -0.284736 0.8767228
vn 0 -0.2196719 0.9755738
vn 0.3876621 -0.2847361 0.8767232
v 0 0.264613 0.557761
vt 0.482558 0.368851
vn 0 -0.5816641 -0.8134291
v 0 0.327098 0.573982
vn 0 -0.2512719 0.9679165
v -0.0382641 0.327098 0.54965
vn -0.507103 -0.409008 -0.758656
v 0.0382641 0.327098 0.54965
vn 0.507103 -0.409008 -0.758656
v 0.11205 0.216585 0.565491
vn -0.102305 0.9610404 -0.2567781
v 0.116604 0.154555 0.57692
vn 0.3630499 0.1945409 0.9112347
v 0.136441 0.161934 0.530254
vn 0.4190488 0.6166847 -0.6664068
v 0.0701113 0.161934 0.556681
vn -0.762508 0.616685 -0.195656
v 0.122702 0.264613 0.506578
vn -0.5976602 -0.5816642 -0.5517872
v 0.134621 0.327098 0.517581
vn 0.7111691 -0.2512711 0.6565831
v 0.0907867 0.327098 0.52919
vn -0.9014073 -0.4090091 -0.142044
v 0.142699 0.327098 0.472961
vn -0.2134271 -0.4090081 -0.8872212
v -0.11205 0.216585 0.565491
vn 0.102305 0.9610407 -0.2567769
v -0.136441 0.161934 0.530254
vn -0.4190472 0.6166863 -0.6664063
v -0.116604 0.154555 0.57692
vn -0.3630511 0.194541 0.9112342
v -0.0701113 0.161934 0.556681
vn 0.7625071 0.616686 -0.195656
v -0.122702 0.264613 0.506578
vn 0.5976608 -0.5816648 -0.5517858
v -0.0907867 0.327098 0.52919
vn 0.901408 -0.409008 -0.142043
v -0.134621 0.327098 0.517581
vn -0.7111699 -0.2512719 0.6565819
v -0.142699 0.327098 0.472961
vn 0.213427 -0.4090089 -0.8872207
vt -2.31292 0.696526
vt -2.38972 0.474975
vt -2.38972 0.629685
v 0 0.357256 -0.02839
vt 0.863257 0.048966
vn 1 0 0
v 0 0.444665 0.0638012
v 0 0.373304 0.0929784
v 0 0.433747 -0.0187629
vn -1 0 0
v 0 0.347394 -0.131417
v 0 0.426062 -0.048445
v 0 0.361837 -0.0221855
v 0 0.416236 -0.122753
v 0 0.338518 -0.224142
v 0 0.409319 -0.149467
v 0 0.351517 -0.125833
v 0 0.400476 -0.216344
v 0 0.33053 -0.307593
v 0 0.394251 -0.240386
v 0 0.342229 -0.219116
v 0 0.386292 -0.300575
v 0 0.32334 -0.3827
v 0 0.380689 -0.322214
v 0 0.333869 -0.30307
v 0 0.373526 -0.376384
v 0 0.31687 -0.450296
v 0 0.368484 -0.395858
v 0 0.326346 -0.378629
v 0 0.362037 -0.444612
v 0 0.311046 -0.511133
v 0 0.357499 -0.462139
v 0 0.319575 -0.446633
v 0 0.351697 -0.506016
vt 0.289523 0.29777
vn -0.3911952 0.2877671 0.8741604
vt -0.0998183 0.46539
vt 0.751491 0.481543
vt 1.13484 0.31857
vt 0.28965 0.29777
vn 0.3911952 0.2877671 0.8741604
vt 0.751618 0.481543
vt 1.13497 0.31857
vn NaN NaN NaN
v 0.234898 0.0730038 0.347025
vt 0.875 0
vn 0.7631961 0.521643 0.3813401
v 0.108028 0.106109 0.555651
vt 0.875 0.25
v 0.194644 0.0283288 0.488699
v 0.180038 0.169838 0.322557
vn -0.7618977 -0.5244329 -0.3801079
v -0.108028 0.106109 0.555651
vn -0.7631961 0.521643 0.3813401
v -0.234898 0.0730038 0.347025
v -0.194644 0.0283288 0.488699
v -0.180038 0.169838 0.322557
vn 0.7618977 -0.5244329 -0.3801079
vt 0.87403 0.269235
vt 0.165301 0.279743
v 0 0.20775 -0.6190339
vt 0.0343095 0.357845
v 0 0.236948 -0.6764879
v 0 0.152725 -0.612334
v 0 0.396312 -0.6190339
v 0 0.451337 -0.612334
v 0 0.367114 -0.6764879
o merged_0_0_node
g polygon_0
usemtl mat_body_mat_id
f 1/1/1 2/1/2 3/1/3
f 1/1/1 4/1/4 2/1/2
f 1/1/1 3/1/3 5/1/5
f 1/1/1 6/1/6 4/1/4
f 1/1/1 5/1/5 7/1/7
f 1/1/1 8/1/8 6/1/6
f 1/1/1 7/1/7 9/1/9
f 1/1/1 9/1/9 8/1/8
f 2/1/2 10/1/10 3/1/3
f 2/1/2 4/1/4 11/1/11
f 2/1/2 11/1/11 10/1/10
f 5/1/5 12/1/12 7/1/7
f 5/1/5 3/1/3 13/1/13
f 5/1/5 14/1/14 12/1/12
f 5/1/5 13/1/13 14/1/14
f 6/1/6 8/1/8 15/1/15
f 6/1/6 15/1/15 4/1/4
f 4/1/4 15/1/15 11/1/11
f 9/1/9 7/1/7 16/1/16
f 9/1/9 17/1/17 8/1/8
f 9/1/9 16/1/16 17/1/17
f 17/1/17 15/1/15 8/1/8
f 10/1/10 18/1/18 3/1/3
f 10/1/10 19/1/19 18/1/18
f 3/1/3 18/1/18 13/1/13
f 12/1/12 14/1/14 20/1/20
f 12/1/12 21/1/21 7/1/7
f 12/1/12 20/1/20 21/1/21
f 7/1/7 21/1/21 16/1/16
f 19/1/19 22/1/22 18/1/18
f 13/1/13 23/1/23 14/1/14
f 13/1/13 18/1/18 23/1/23
f 18/1/18 22/1/22 23/1/23
f 20/1/20 24/1/24 21/1/21
f 20/1/20 14/1/14 25/1/25
f 20/1/20 26/1/26 24/1/24
f 20/1/20 25/1/25 27/1/27
f 20/1/20 27/1/27 26/1/26
f 16/1/16 21/1/21 28/1/28
f 28/1/28 21/1/21 24/1/24
f 22/1/22 29/1/29 23/1/23
f 22/1/22 30/1/30 29/1/29
f 14/1/14 23/1/23 25/1/31
f 23/1/23 27/1/27 25/1/31
f 23/1/23 29/1/29 27/1/27
f 26/1/26 31/1/32 24/1/24
f 26/1/26 27/1/27 32/1/33
f 26/1/26 32/1/33 31/1/32
f 29/1/29 30/1/30 32/1/33
f 29/1/29 32/1/33 27/1/27
f 31/1/32 32/1/33 33/1/34
f 31/1/32 33/1/34 34/1/35
f 32/1/33 30/1/30 33/1/34
f 34/1/35 33/1/34 35/1/36
f 30/1/30 36/1/37 33/1/34
f 33/1/34 36/1/37 35/1/36
f 37/2/38 38/3/39 16/4/16
f 37/2/38 39/5/40 38/3/39
f 37/2/38 16/4/16 28/6/41
f 37/2/38 40/7/42 39/5/40
f 37/2/38 28/6/41 41/8/43
f 37/2/38 42/9/43 40/7/42
f 37/2/38 41/8/43 42/9/43
f 38/3/39 17/10/17 16/4/16
f 38/3/39 39/5/40 43/11/44
f 38/3/39 15/12/15 17/10/17
f 38/3/39 43/11/44 15/12/15
f 39/5/40 40/7/42 43/11/44
f 42/9/43 19/13/45 40/7/42
f 15/12/15 43/11/44 11/14/11
f 19/13/45 10/15/10 40/7/42
f 10/15/10 43/11/44 40/7/42
f 10/15/10 11/14/11 43/11/44
f 44/16/46 45/16/47 46/16/48
f 44/16/46 47/16/49 45/16/47
f 44/16/46 46/16/48 48/16/50
f 44/16/46 49/16/51 47/16/49
f 44/16/46 48/16/50 50/16/52
f 44/16/46 50/16/52 49/16/51
f 45/16/47 51/16/53 46/16/48
f 47/16/49 49/16/51 52/16/54
f 49/16/51 50/16/52 52/16/54
f 48/16/50 46/16/48 53/16/55
f 51/16/53 54/16/56 46/16/48
f 51/16/53 55/16/57 54/16/56
f 46/16/48 54/16/56 53/16/55
f 52/16/54 56/16/58 57/16/59
f 54/16/56 58/16/60 53/16/55
f 56/16/58 59/16/61 57/16/59
f 56/16/58 60/16/62 59/16/61
f 60/16/62 61/16/63 59/16/61
f 61/16/63 62/16/64 59/16/61
f 61/16/63 63/16/65 62/16/64
f 61/16/63 64/16/66 63/16/65
f 65/17/67 66/18/68 67/19/69
f 65/17/67 68/20/70 66/18/68
f 65/17/67 67/19/69 69/21/71
f 65/17/67 70/22/72 68/20/70
f 65/17/67 69/21/71 71/23/73
f 65/17/67 71/23/73 70/22/72
f 66/18/68 72/17/74 67/19/69
f 66/18/68 68/20/70 72/17/74
f 72/17/74 71/23/73 69/21/71
f 72/17/74 68/20/70 70/22/72
f 72/17/74 69/21/71 67/19/69
f 72/17/74 70/22/72 71/23/73
f 73/24/75 74/25/76 75/26/77
f 73/24/75 75/26/77 76/27/78
f 73/24/75 76/27/78 77/28/79
f 73/24/75 77/28/79 78/27/80
f 73/24/75 78/27/80 74/26/76
f 73/24/81 75/26/82 74/25/83
f 73/24/81 76/27/84 75/26/82
f 73/24/81 77/28/85 76/27/84
f 73/24/81 78/27/86 77/28/85
f 73/24/81 74/26/83 78/27/86
f 79/29/87 80/29/88 81/29/89
f 79/29/87 82/29/90 80/29/88
f 79/29/87 81/29/89 82/29/90
f 83/29/91 84/29/92 85/29/93
f 83/29/91 86/29/94 84/29/92
f 83/29/91 85/29/93 86/29/94
f 87/29/95 88/29/96 89/29/97
f 87/29/95 90/29/98 88/29/96
f 87/29/95 89/29/97 90/29/98
f 91/29/99 92/29/100 93/29/101
f 91/29/99 94/29/102 92/29/100
f 91/29/99 93/29/101 94/29/102
f 95/29/103 96/29/104 97/29/105
f 95/29/103 98/29/106 96/29/104
f 95/29/103 97/29/105 98/29/106
f 54/30/56 64/31/66 58/32/60
f 54/30/56 63/31/65 64/31/66
f 54/30/56 55/32/57 63/31/65
f 99/33/107 100/33/107 101/33/107
f 99/33/107 102/33/107 100/33/107
f 101/33/108 102/33/108 99/33/108
f 101/33/108 100/33/108 102/33/108
f 103/33/107 104/33/107 105/33/107
f 103/33/107 106/33/107 104/33/107
f 105/33/108 106/33/108 103/33/108
f 105/33/108 104/33/108 106/33/108
f 107/33/107 108/33/107 109/33/107
f 107/33/107 110/33/107 108/33/107
f 109/33/108 110/33/108 107/33/108
f 109/33/108 108/33/108 110/33/108
f 111/33/107 112/33/107 113/33/107
f 111/33/107 114/33/107 112/33/107
f 113/33/108 114/33/108 111/33/108
f 113/33/108 112/33/108 114/33/108
f 115/33/107 116/33/107 117/33/107
f 115/33/107 118/33/107 116/33/107
f 117/33/108 118/33/108 115/33/108
f 117/33/108 116/33/108 118/33/108
f 119/33/107 120/33/107 121/33/107
f 119/33/107 122/33/107 120/33/107
f 121/33/108 122/33/108 119/33/108
f 121/33/108 120/33/108 122/33/108
f 123/33/107 124/33/107 125/33/107
f 123/33/107 126/33/107 124/33/107
f 125/33/108 126/33/108 123/33/108
f 125/33/108 124/33/108 126/33/108
f 42/34/109 35/35/36 36/36/37
f 42/34/109 36/36/37 19/37/19
f 35/35/36 41/38/110 34/39/35
f 41/38/110 28/40/28 34/39/35
f 14/1/111 25/1/107 27/1/111
f 14/1/111 27/1/111 25/1/108
f 127/41/112 128/42/112 129/41/112
f 127/41/112 130/42/112 128/42/112
f 128/42/113 130/42/113 127/41/113
f 128/42/113 127/41/113 129/41/113
f 131/42/114 132/41/114 133/41/114
f 131/42/114 134/42/114 132/41/114
f 131/42/115 132/41/115 134/42/115
f 131/42/115 133/41/115 132/41/115
f 52/43/54 57/43/59 47/43/49
f 52/43/54 50/43/52 56/43/58
f 41/44/110 35/44/36 42/44/109
f 135/45/108 136/45/108 137/45/108
f 136/45/107 135/45/107 137/45/107
f 138/45/108 139/45/108 140/45/108
f 140/45/107 139/45/107 138/45/107
vt 2.16106 0.0925595
vt 0.73888 0.0165358
vt 2.16106 0.890239
vt 0.73888 0.977464
vt 2.01828 0.196285
vt -0.0734293 0.0918637
vt 2.01828 0.770701
vt -0.0734293 0.847416
vt -1.50759 -0.0294081
vt -1.50759 1.0664
o merged_1_0_node
g polygon_0
usemtl mat_body2_mat_id
f 59/46/61 62/47/64 45/48/47
f 45/48/47 62/47/64 51/49/53
f 60/46/62 48/48/50 61/47/63
f 61/47/63 48/48/50 53/49/55
f 57/50/59 59/51/61 47/52/49
f 47/52/49 59/51/61 45/53/47
f 56/50/58 50/52/52 60/51/62
f 60/51/62 50/52/52 48/53/50
f 62/47/64 63/54/65 51/49/53
f 51/49/53 63/54/65 55/55/57
f 58/55/60 64/54/66 53/49/55
f 53/49/55 64/54/66 61/47/63
vt -0.0720446 0.953027
vt 0.161997 0.736159
vt 1.07737 0.804763
vt 0.847142 1.0176
o merged_2_0_node
g polygon_0
usemtl TEX_ANIM_EYE_mat_id
f 34/56/35 28/57/28 24/58/24
f 24/58/24 31/59/32 34/56/35
f 22/58/22 19/57/19 36/56/37
f 22/58/22 36/56/37 30/59/30
