ply
format ascii 1.0
element vertex 244
property float x
property float y
property float z
property uchar red
property uchar green
property uchar blue
element face 272
property list uchar int vertex_index
end_header
0.36418 -0.91277 0 101 148 210
0.16934 -0.91266 0 101 148 210
0.16934 -0.91266 0.13389 101 148 210
0.36418 -0.91277 0.13389 101 148 210
0.14535 -0.86682 0.13389 101 148 210
0.14535 -0.86682 0 101 148 210
0.38948 -0.86686 0 101 148 210
0.38944 -0.07799 0 101 148 210
0.14531 -0.07809 0 101 148 210
0.14531 -0.07809 0.13389 101 148 210
0.38948 -0.86686 0.13389 101 148 210
0.36418 -0.91277 0.13389 106 155 220
0.16934 -0.91266 0.13389 106 155 220
0.14535 -0.86682 0.13389 106 155 220
0.38948 -0.86686 0.13389 106 155 220
0.14531 -0.07809 0.13389 106 155 220
0.38944 -0.07799 0.13389 106 155 220
0.36445 -0.03274 0.13389 101 148 210
0.17121 -0.03285 0.13389 101 148 210
0.17121 -0.03285 0 101 148 210
0.36445 -0.03274 0 101 148 210
0.38944 -0.07799 0.13389 101 148 210
0.26851 -0.90115 1.14675 255 255 255
0.19907 -0.90115 1.14676 255 255 255
0.19907 -0.90115 1.21558 255 255 255
0.26853 -0.90115 1.21558 255 255 255
0.17223 -0.90115 1.24866 255 255 255
0.17223 -0.86235 1.24866 255 255 255
0.37172 -0.90115 1.24866 255 255 255
0.41192 -0.86235 1.24866 255 255 255
0.41192 -0.90115 1.24866 255 255 255
0.41192 -0.90115 1.01284 255 255 255
0.41192 -0.86235 1.01284 255 255 255
0.17223 -0.86235 1.01284 255 255 255
0.17223 -0.90115 1.01284 255 255 255
0.17223 -0.90115 1.0512 255 255 255
0.37167 -0.90115 1.05119 255 255 255
0.3408 -0.90115 1.0512 255 255 255
0.21555 -0.90115 1.0512 255 255 255
0.34076 -0.90115 1.11103 25 15 16
0.26851 -0.90115 1.14675 25 15 16
0.26853 -0.90115 1.21558 25 15 16
0.37172 -0.90115 1.24866 25 15 16
0.19907 -0.90115 1.21558 25 15 16
0.17223 -0.90115 1.24866 25 15 16
0.21554 -0.90115 1.11104 25 15 16
0.19907 -0.90115 1.14676 25 15 16
0.17223 -0.90115 1.0512 25 15 16
0.21555 -0.90115 1.0512 25 15 16
0.37167 -0.90115 1.05119 25 15 16
0.3408 -0.90115 1.0512 25 15 16
0.21554 -0.90115 1.11104 38 28 29
0.34076 -0.90115 1.11103 38 28 29
0.3408 -0.90115 1.0512 38 28 29
0.21555 -0.90115 1.0512 38 28 29
0.21437 -0.87412 0.41442 53 39 40
0.21437 -0.87412 0.78084 53 39 40
0.2862 -0.87412 0.84527 53 39 40
0.2862 -0.87412 0.35014 53 39 40
-0.06975 -0.87412 0.41442 53 39 40
-0.14209 -0.87412 0.35014 53 39 40
-0.06975 -0.87412 0.63696 53 39 40
-0.14209 -0.87412 0.70652 53 39 40
0.06975 -0.87412 0.63696 53 39 40
0.13993 -0.87412 0.70652 53 39 40
0.06975 -0.87412 0.55876 53 39 40
0.13993 -0.87412 0.49158 53 39 40
0.00246 -0.87412 0.55876 53 39 40
0.00246 -0.87412 0.49158 53 39 40
-0.2879 -0.87412 0.84527 53 39 40
-0.21685 -0.87412 0.78084 53 39 40
-0.2879 -0.87412 0.35014 53 39 40
-0.21685 -0.87412 0.35014 53 39 40
-0.08352 0.17171 0.35986 106 155 220
-0.0836 1.00817 0.36085 106 155 220
0.0836 1.00817 0.36085 106 155 220
0.08352 0.17171 0.35986 106 155 220
-0.0836 1.00817 0.36085 101 148 210
-0.0836 1.0083 0.26181 101 148 210
0.0836 1.0083 0.26181 101 148 210
0.0836 1.00817 0.36085 101 148 210
0.08352 0.17171 0.35986 101 148 210
0.08352 0.17159 0.26054 101 148 210
-0.08352 0.17171 0.35986 101 148 210
-0.08352 0.17159 0.26054 101 148 210
-0.27389 0.4595 0.28818 221 225 239
-0.27389 0.45943 0.33728 221 225 239
0.27389 0.45943 0.33728 221 225 239
0.27389 0.4595 0.28818 221 225 239
0.3457 0.51195 0.33735 221 225 239
0.3457 0.51201 0.28825 221 225 239
-0.3457 0.51201 0.28825 221 225 239
-0.3457 1.30401 0.28929 221 225 239
0.3457 1.30401 0.28929 221 225 239
-0.27389 1.37249 0.28938 221 225 239
0.27389 1.37249 0.28938 221 225 239
-0.3457 1.30395 0.33839 221 225 239
-0.3457 0.51195 0.33735 221 225 239
0.3457 1.30395 0.33839 221 225 239
-0.27389 1.37242 0.33848 221 225 239
0.27389 1.37242 0.33848 221 225 239
-0.27389 0.45943 0.33728 226 230 244
-0.3457 0.51195 0.33735 226 230 244
0.3457 0.51195 0.33735 226 230 244
0.27389 0.45943 0.33728 226 230 244
0.3457 1.30395 0.33839 226 230 244
-0.3457 1.30395 0.33839 226 230 244
0.27389 1.37242 0.33848 226 230 244
-0.27389 1.37242 0.33848 226 230 244
0.11346 -0.86363 0.88064 244 197 220
0.11346 -0.9241 0.88064 244 197 220
0.11346 -0.9241 1.05214 244 197 220
0.11346 -0.86363 1.05214 244 197 220
-0.11346 -0.9241 0.88064 244 197 220
-0.11346 -0.86363 0.88064 244 197 220
-0.11346 -0.86363 1.05214 244 197 220
-0.11346 -0.9241 1.05214 244 197 220
-0.05551 -0.9241 0.94186 244 197 220
-0.05551 -0.9241 0.99092 244 197 220
0.05536 -0.9241 0.94186 244 197 220
0.05536 -0.9241 0.99092 244 197 220
-0.11346 -0.86363 1.05214 251 203 227
0.11346 -0.86363 1.05214 251 203 227
0.11346 -0.9241 1.05214 251 203 227
-0.11346 -0.9241 1.05214 251 203 227
0.05536 -0.89677 0.99092 80 44 66
0.05536 -0.89677 0.94186 80 44 66
-0.05551 -0.89677 0.94186 80 44 66
-0.05551 -0.89677 0.99092 80 44 66
0.05536 -0.9241 0.99092 80 44 66
-0.05551 -0.9241 0.99092 80 44 66
-0.05551 -0.9241 0.94186 80 44 66
0.05536 -0.9241 0.94186 80 44 66
0.62184 -0.7729 0.1721 101 148 210
0.62184 -0.7729 1.28591 101 148 210
0.62184 0.20222 1.28591 101 148 210
0.62184 0.20222 0.1721 101 148 210
0.50067 -0.86759 1.28591 101 148 210
0.50067 -0.86759 0.1721 101 148 210
0.55392 -0.70704 1.37757 101 148 210
0.46175 -0.79033 1.37757 101 148 210
0.55392 0.13635 1.37757 101 148 210
0.46175 0.21965 1.37757 101 148 210
0.50067 0.2969 1.28591 101 148 210
0.50067 0.2969 0.1721 101 148 210
-0.50067 0.2969 1.28591 101 148 210
-0.46175 0.21965 1.37757 101 148 210
0.55729 0.13021 0.12252 101 148 210
0.46036 0.21196 0.12252 101 148 210
0.55729 -0.70089 0.12252 101 148 210
0.46036 -0.78264 0.12252 101 148 210
-0.50067 -0.86759 0.1721 101 148 210
-0.46036 -0.78264 0.12252 101 148 210
-0.34103 -0.86759 0.25 101 148 210
0.34103 -0.86759 0.25 101 148 210
0.39722 -0.86759 0.30439 101 148 210
0.39722 -0.86759 0.8815 101 148 210
0.34103 -0.86759 0.93538 101 148 210
-0.46036 0.21196 0.12252 101 148 210
-0.55729 0.13021 0.12252 101 148 210
-0.50067 0.2969 0.1721 101 148 210
-0.62184 0.20222 1.28591 101 148 210
-0.62184 0.20222 0.1721 101 148 210
-0.55392 0.13635 1.37757 101 148 210
-0.62184 -0.7729 1.28591 101 148 210
-0.55392 -0.70704 1.37757 101 148 210
-0.50067 -0.86759 1.28591 101 148 210
-0.62184 -0.7729 0.1721 101 148 210
-0.46175 -0.79033 1.37757 101 148 210
-0.55729 -0.70089 0.12252 101 148 210
-0.34103 -0.86759 0.93538 101 148 210
-0.39722 -0.86759 0.8815 101 148 210
-0.39722 -0.86759 0.30439 101 148 210
0.55392 0.13635 1.37757 106 155 220
0.55392 -0.70704 1.37757 106 155 220
-0.55392 -0.70704 1.37757 106 155 220
-0.55392 0.13635 1.37757 106 155 220
-0.46175 -0.79033 1.37757 106 155 220
0.46175 -0.79033 1.37757 106 155 220
0.46175 0.21965 1.37757 106 155 220
-0.46175 0.21965 1.37757 106 155 220
-0.39722 -0.86759 0.8815 221 225 239
-0.34103 -0.86759 0.93538 221 225 239
0.34103 -0.86759 0.93538 221 225 239
0.39722 -0.86759 0.8815 221 225 239
-0.39722 -0.86759 0.30439 221 225 239
0.39722 -0.86759 0.30439 221 225 239
-0.34103 -0.86759 0.25 221 225 239
0.34103 -0.86759 0.25 221 225 239
-0.26851 -0.90115 1.14675 255 255 255
-0.26853 -0.90115 1.21558 255 255 255
-0.19907 -0.90115 1.21558 255 255 255
-0.19907 -0.90115 1.14676 255 255 255
-0.17223 -0.90115 1.24866 255 255 255
-0.37172 -0.90115 1.24866 255 255 255
-0.17223 -0.86235 1.24866 255 255 255
-0.41192 -0.86235 1.24866 255 255 255
-0.41192 -0.90115 1.24866 255 255 255
-0.41192 -0.90115 1.01284 255 255 255
-0.41192 -0.86235 1.01284 255 255 255
-0.17223 -0.86235 1.01284 255 255 255
-0.17223 -0.90115 1.01284 255 255 255
-0.17223 -0.90115 1.0512 255 255 255
-0.21555 -0.90115 1.0512 255 255 255
-0.3408 -0.90115 1.0512 255 255 255
-0.37167 -0.90115 1.05119 255 255 255
-0.34076 -0.90115 1.11103 25 15 16
-0.37172 -0.90115 1.24866 25 15 16
-0.26853 -0.90115 1.21558 25 15 16
-0.26851 -0.90115 1.14675 25 15 16
-0.19907 -0.90115 1.21558 25 15 16
-0.17223 -0.90115 1.24866 25 15 16
-0.21554 -0.90115 1.11104 25 15 16
-0.19907 -0.90115 1.14676 25 15 16
-0.17223 -0.90115 1.0512 25 15 16
-0.21555 -0.90115 1.0512 25 15 16
-0.37167 -0.90115 1.05119 25 15 16
-0.3408 -0.90115 1.0512 25 15 16
-0.21554 -0.90115 1.11104 38 28 29
-0.21555 -0.90115 1.0512 38 28 29
-0.3408 -0.90115 1.0512 38 28 29
-0.34076 -0.90115 1.11103 38 28 29
-0.36418 -0.91277 0 101 148 210
-0.36418 -0.91277 0.13389 101 148 210
-0.16934 -0.91266 0.13389 101 148 210
-0.16934 -0.91266 0 101 148 210
-0.14535 -0.86682 0.13389 101 148 210
-0.14535 -0.86682 0 101 148 210
-0.38948 -0.86686 0 101 148 210
-0.38944 -0.07799 0 101 148 210
-0.14531 -0.07809 0 101 148 210
-0.14531 -0.07809 0.13389 101 148 210
-0.38948 -0.86686 0.13389 101 148 210
-0.36418 -0.91277 0.13389 106 155 220
-0.38948 -0.86686 0.13389 106 155 220
-0.14535 -0.86682 0.13389 106 155 220
-0.16934 -0.91266 0.13389 106 155 220
-0.14531 -0.07809 0.13389 106 155 220
-0.38944 -0.07799 0.13389 106 155 220
-0.36445 -0.03274 0.13389 101 148 210
-0.36445 -0.03274 0 101 148 210
-0.17121 -0.03285 0 101 148 210
-0.17121 -0.03285 0.13389 101 148 210
-0.38944 -0.07799 0.13389 101 148 210
3 0 2 1
3 0 3 2
3 1 2 4
3 1 4 5
3 6 1 5
3 6 0 1
3 7 6 5
3 7 5 8
3 4 8 5
3 4 9 8
3 10 0 6
3 10 3 0
3 11 13 12
3 11 14 13
3 14 15 13
3 14 16 15
3 17 19 18
3 17 20 19
3 21 20 17
3 21 7 20
3 7 19 20
3 7 21 10
3 7 10 6
3 7 8 19
3 8 18 19
3 8 9 18
3 22 24 23
3 22 25 24
3 26 28 27
3 27 28 29
3 29 28 30
3 31 29 30
3 31 32 29
3 33 32 31
3 33 31 34
3 33 34 35
3 33 35 27
3 27 35 26
3 36 34 31
3 30 36 31
3 30 28 36
3 34 36 37
3 34 37 38
3 34 38 35
3 39 41 40
3 39 42 41
3 42 43 41
3 42 44 43
3 45 39 40
3 45 40 46
3 44 46 43
3 46 47 45
3 44 47 46
3 47 48 45
3 49 42 39
3 39 50 49
3 51 53 52
3 51 54 53
3 55 57 56
3 55 58 57
3 59 58 55
3 59 60 58
3 61 60 59
3 61 62 60
3 63 62 61
3 63 64 62
3 65 64 63
3 65 66 64
3 66 65 67
3 66 67 68
3 69 56 57
3 69 70 56
3 71 70 69
3 71 72 70
3 73 75 74
3 73 76 75
3 77 79 78
3 77 80 79
3 81 79 80
3 81 82 79
3 83 77 78
3 83 78 84
3 78 82 84
3 78 79 82
3 85 87 86
3 85 88 87
3 88 89 87
3 88 90 89
3 91 88 85
3 91 90 88
3 92 90 91
3 92 93 90
3 94 93 92
3 94 95 93
3 96 92 91
3 96 91 97
3 89 90 93
3 89 93 98
3 97 85 86
3 97 91 85
3 94 96 99
3 99 95 94
3 99 100 95
3 98 95 100
3 94 92 96
3 98 93 95
3 101 103 102
3 101 104 103
3 102 103 105
3 102 105 106
3 106 105 107
3 106 107 108
3 109 111 110
3 109 112 111
3 113 109 110
3 113 114 109
3 115 114 113
3 115 113 116
3 116 113 117
3 116 117 118
3 111 116 118
3 113 119 117
3 113 110 119
3 110 120 119
3 110 111 120
3 111 118 120
3 121 123 122
3 121 124 123
3 125 127 126
3 125 128 127
3 129 128 125
3 129 130 128
3 130 127 128
3 131 126 127
3 130 131 127
3 131 132 126
3 132 125 126
3 132 129 125
3 133 135 134
3 133 136 135
3 137 133 134
3 137 138 133
3 137 134 139
3 137 139 140
3 134 141 139
3 134 135 141
3 135 142 141
3 135 143 142
3 144 143 135
3 144 135 136
3 142 143 145
3 144 145 143
3 142 145 146
3 144 136 147
3 144 147 148
3 136 149 147
3 136 133 149
3 133 150 149
3 133 138 150
3 150 138 151
3 150 151 152
3 138 153 151
3 138 154 153
3 138 155 154
3 137 155 138
3 137 156 155
3 157 156 137
3 147 158 148
3 147 159 158
3 149 159 147
3 148 158 160
3 160 158 159
3 148 160 144
3 144 160 145
3 160 161 145
3 160 162 161
3 160 159 162
3 161 146 145
3 161 163 146
3 164 163 161
3 164 165 163
3 166 165 164
3 166 164 167
3 167 164 161
3 167 161 162
3 166 167 151
3 166 168 165
3 140 168 166
3 140 166 137
3 162 169 167
3 162 159 169
3 167 152 151
3 167 169 152
3 137 166 170
3 170 166 171
3 137 170 157
3 166 172 171
3 166 151 172
3 151 153 172
3 149 169 159
3 150 169 149
3 150 152 169
3 173 175 174
3 173 176 175
3 174 175 177
3 174 177 178
3 179 176 173
3 179 180 176
3 181 183 182
3 181 184 183
3 185 184 181
3 185 186 184
3 187 186 185
3 187 188 186
3 189 191 190
3 189 192 191
3 193 195 194
3 195 196 194
3 196 197 194
3 198 197 196
3 198 196 199
3 200 198 199
3 200 201 198
3 200 202 201
3 200 195 202
3 195 193 202
3 203 201 202
3 201 203 198
3 198 203 204
3 198 204 205
3 197 205 194
3 197 198 205
3 206 208 207
3 206 209 208
3 207 208 210
3 207 210 211
3 212 209 206
3 212 213 209
3 211 210 213
3 213 212 214
3 211 213 214
3 214 212 215
3 216 206 207
3 206 216 217
3 218 220 219
3 218 221 220
3 222 224 223
3 222 225 224
3 225 226 224
3 225 227 226
3 228 225 222
3 228 227 225
3 229 227 228
3 229 230 227
3 226 227 230
3 226 230 231
3 232 222 223
3 232 228 222
3 233 235 234
3 233 236 235
3 234 235 237
3 234 237 238
3 239 241 240
3 239 242 241
3 243 239 240
3 243 240 229
3 229 240 241
3 229 232 243
3 229 228 232
3 229 241 230
3 230 241 242
3 230 242 231
