mtllib Hariyama.mtl
v 0.337588 0.402657 0.200951
vt 0.499286 0.499373
vn -0.652512 0.0195951 -0.757525
v 0.419763 0.440133 0.129144
vt 0.493018 0.503167
vn -0.369559 0.104417 -0.9233219
v 0.393619 0.350707 0.15283
vt 0.495012 0.494113
vn -0.5067951 -0.148464 -0.8491862
v 0.368138 0.487198 0.173489
vt 0.496956 0.507931
vn -0.6738677 0.2946719 -0.6775477
v 0.34387 0.303805 0.196564
vt 0.498807 0.489365
vn -0.5810332 -0.2396011 -0.7778122
v 0.385902 0.403036 0.243597
vt 0.495601 0.499411
vn 0.6586922 0.03599051 0.7515513
v 0.272274 0.303492 0.258776
vt 0.504267 0.489334
vn -0.6908522 -0.2416901 -0.6814023
v 0.382516 0.514217 0.245333
vt 0.495859 0.510666
vn 0.7779737 0.2790309 0.5629377
v 0.27136 0.399897 0.258524
vt 0.504337 0.499093
vn -0.680848 0.0703329 -0.72904
v 0.334202 0.5138381 0.202687
vt 0.499544 0.510628
vn -0.464155 0.249865 -0.849781
v 0.272243 0.512457 0.256536
vt 0.504269 0.510488
vn -0.7869849 0.260518 -0.559272
v 0.441934 0.351086 0.195476
vt 0.491328 0.494152
vn 0.7763011 -0.139269 0.6147851
v 0.416453 0.487577 0.216135
vt 0.493271 0.507969
vn 0.5755601 0.3050311 0.7587401
v 0.468078 0.440512 0.17179
vt 0.489334 0.503205
vn 0.8753582 0.129517 0.4658041
v 0.320588 0.303871 0.301422
vt 0.500582 0.489372
vn 0.582476 -0.221623 0.7820519
v 0.392185 0.304184 0.23921
vt 0.495122 0.489404
vn 0.6918462 -0.2283271 0.6849932
v 0.320558 0.512836 0.299182
vt 0.500584 0.510527
vn 0.4550949 0.261209 0.8512688
v 0.236677 0.38684 0.373431
vt 0.506982 0.497771
vn 0.3712132 -0.07616784 0.9254184
v 0.188362 0.386461 0.330784
vt 0.510667 0.497733
vn -0.8779833 -0.09888614 -0.4683662
v 0.319675 0.400276 0.30117
vt 0.500652 0.499132
vn 0.626298 0.08588129 0.7748389
v 0.210436 0.442743 0.310995
vt 0.508983 0.503431
vn -0.6822147 0.3184019 -0.6581818
v 0.25875 0.443122 0.353641
vt 0.505298 0.503469
vn 0.556077 0.326732 0.764215
v -0.385902 0.403036 0.243597
vn -0.6586922 0.03599051 0.7515513
v -0.441934 0.351086 0.195476
vn -0.7763011 -0.139269 0.6147851
v -0.392185 0.304184 0.23921
vn -0.6918462 -0.2283271 0.6849932
v -0.468078 0.440512 0.17179
vn -0.8753582 0.129517 0.4658041
v -0.320588 0.303871 0.301422
vn -0.582476 -0.221623 0.7820519
v -0.416453 0.487577 0.216135
vn -0.5755601 0.3050311 0.7587401
v -0.319675 0.400276 0.30117
vn -0.626298 0.08588129 0.7748389
v -0.368138 0.487198 0.173489
vn 0.6738671 0.2946721 -0.6775481
v -0.320558 0.512836 0.299182
vn -0.4550949 0.261209 0.8512688
v -0.337588 0.402657 0.200951
vn 0.652512 0.0195951 -0.757525
v -0.382516 0.514217 0.245333
vn -0.7779732 0.2790311 0.5629382
v -0.393619 0.350707 0.15283
vn 0.5067951 -0.148464 -0.8491862
v -0.419763 0.440133 0.129144
vn 0.369559 0.104417 -0.9233219
v -0.236677 0.38684 0.373431
vn -0.3712132 -0.07616784 0.9254184
v -0.34387 0.303805 0.196564
vn 0.5810332 -0.2396011 -0.7778122
v -0.272273 0.303492 0.258776
vn 0.6908522 -0.2416901 -0.6814023
v -0.334202 0.5138381 0.202687
vn 0.464155 0.249865 -0.849781
v -0.27136 0.399897 0.258524
vn 0.680848 0.070333 -0.72904
v -0.272243 0.512457 0.256536
vn 0.7869849 0.260518 -0.559272
v -0.25875 0.443122 0.353641
vn -0.556077 0.326732 0.764215
v -0.188362 0.386461 0.330784
vn 0.8779833 -0.09888614 -0.4683662
v -0.210436 0.442743 0.310995
vn 0.6822152 0.3184021 -0.6581813
v -0.136051 0.439582 0.00439097
vt 0.0538434 7.88223
vn -0.5358992 -0.8066623 -0.2492151
v 0 0.459078 -0.130594
vt 0.354007 7.96942
vn 0 -0.7919405 -0.6105984
v 0 0.408325 0.00439097
vt 0.354007 7.74242
vn 0 -0.979911 -0.199435
v -0.114304 0.572265 -0.152528
vt 0.101824 8.47568
vn -0.5932217 -0.4307248 -0.6801207
v -0.0751647 0.433521 0.0858655
vt 0.188175 7.85511
vn -0.3604919 -0.8850198 0.2945939
v -0.207944 0.522092 -0.0380541
vt -0.10477 8.25127
vn -0.8163158 -0.4581169 -0.3517919
v -0.0951644 0.474459 0.115708
vt 0.14405 8.04901
vn -0.6367033 -0.5244113 0.5653333
v -0.15283 0.522563 0.0796253
vt 0.0168259 8.2572
vn -0.7707301 -0.2582141 0.5824951
v 0.136051 0.439582 0.00439097
vt 0.654171 7.88223
vn 0.5358992 -0.8066623 -0.2492151
v 0 0.537493 -0.212923
vt 0.354007 8.32016
vn -0.004155639 -0.3436279 -0.9390967
v 0.114304 0.572265 -0.152528
vt 0.606191 8.47568
vn 0.5932211 -0.4307251 -0.6801211
v 0 0.443531 0.151804
vt 0.354007 7.89989
vn 0 -0.8703007 0.4925208
v 0 0.423994 0.10923
vt 0.354007 7.84552
vn 0 -0.967634 0.252358
v -0.226628 0.6167461 0.00439097
vt -0.145993 8.74242
vn -0.3903207 -0.8363954 -0.3848277
v -0.176241 0.615414 -0.106257
vt -0.0348256 8.66868
vn -0.7482789 -0.553812 -0.3652
v 0.207944 0.522092 -0.0380541
vt 0.812785 8.25127
vn 0.8163158 -0.4581169 -0.3517919
v 0.0751647 0.433521 0.0858655
vt 0.51984 7.85511
vn 0.3604919 -0.8850198 0.2945939
v 0.15283 0.522563 0.0796253
vt 0.691189 8.2572
vn 0.7707297 -0.2582139 0.5824958
v 0.0951644 0.474459 0.115708
vt 0.563964 8.04901
vn 0.6367033 -0.5244113 0.5653333
v 0.176241 0.615414 -0.106257
vt 0.74284 8.66868
vn 0.7482793 -0.5538113 -0.3652002
v 0 0.463333 0.19071
vt 0.354007 8.00085
vn 0 -0.9643371 -0.264677
v 0.226628 0.6167461 0.00439097
vt 0.854007 8.74242
vn 0.390321 -0.8363952 -0.3848281
v -0.113768 0.430289 0.139857
vt 0.0705173 2.26055
vn -0.03317489 0.7192799 0.6939279
v -0.227535 0.430289 0
vt -0.358965 2.26055
vn -0.6559932 0.7277212 -0.2002371
v -0.391534 0.341584 0.224618
vt -0.978078 1.39354
vn -0.7467978 -0.03405109 0.6641788
v 0 0.454282 0
vt 0.5 2.49506
vn 0 0.9999506 0.009940546
v -0.136519 0.242704 0.165678
vt -0.0153704 0.427076
vn -0.4369721 -0.07249071 0.8965492
v 0.113768 0.430289 0.139857
vt 0.929483 2.26055
vn 0.0331748 0.7192799 0.6939279
v 0 0.213379 0.194544
vt 0.5 0.140457
vn 0 0.07607809 0.9971019
v -0.273037 0.268673 0
vt -0.530741 0.427076
vn -0.9995539 -0.009357459 0.0283658
v 0.227535 0.430289 0
vt 1.35897 2.26055
vn 0.6559927 0.7277216 -0.2002369
v 0.136519 0.242704 0.165678
vt 1.01537 0.427076
vn 0.4369721 -0.07249081 0.8965492
v 0.391534 0.341584 0.224618
vt 1.97808 1.39354
vn 0.7467978 -0.03405119 0.6641788
v 0.273037 0.268673 0
vt 1.53074 0.427076
vn 0.9995538 -0.009357569 0.02836629
v 0 0.430289 -0.139857
vt 0.660573 3.19069
vn 0 0.509048 -0.8607381
v 0 0.216839 -0.217721
vt 1 2.30409
vn 0 0.2752761 -0.9613652
v -0.213595 0.242704 -0.157041
vt 0.741735 2.30409
vn -0.5197742 0.2561881 -0.8149862
v 0.213595 0.242704 -0.157041
vn 0.5197749 0.2561879 -0.8149858
v -0.185027 0.430289 -0.100865
vt 0.476403 3.19069
vn -0.4757328 0.5080228 -0.7180468
v 0.185027 0.430289 -0.100864
vn 0.4757328 0.5080228 -0.7180468
vt 0 3.30409
vt 0 2.30409
vt 0 3.19069
v 0 0.654752 0.177915
vt 0.5 7.46875
vn 0 0.601671 0.798744
v 0 0.600064 0.208608
vt 0.5 7.17827
vn 0 0.292011 0.956415
v 0.0793502 0.5975261 0.151661
vt 0.732696 7.07184
vn 0.590207 0.396822 0.702985
v -0.0793502 0.5975261 0.151661
vt 0.267304 7.07184
vn -0.590207 0.396822 0.702985
v 0.147117 0.6809261 0.00439097
vt 1 7.32653
vn 0.63505 0.711276 0.301327
v -0.147117 0.6809261 0.00439097
vt 0 7.32653
vn -0.6374637 0.7178677 0.2798319
v 0 0.7170991 0.120417
vt 0.5 7.65896
vn 0 0.6862489 0.7273669
v 0.0475793 0.5546091 0.18427
vt 0.639527 6.96816
vn 0.532316 0.113703 0.838875
v -0.0475793 0.5546091 0.18427
vt 0.360473 6.96816
vn -0.5323167 0.1137039 0.8388745
v 0 0.474285 0.207218
vt 0.5 6.82896
vn 0 -0.04119311 0.9991512
v 0.0730364 0.7742801 0.00439097
vt 0.71418 7.76124
vn 0.617718 0.7639171 0.186695
v 0.132504 0.68002 -0.15113
vt 0.922046 7.32684
vn 0.6439331 0.478675 -0.5968421
v -0.0730364 0.7742801 0.00439097
vt 0.28582 7.76124
vn -0.6282409 0.7565749 0.181405
v -0.120643 0.681054 -0.149539
vt 0.0899737 7.32684
vn -0.6362851 0.4759931 -0.6071011
v 0 0.791767 -0.166028
vt 0.5 7.81459
vn 0.005057941 0.8689682 -0.4948421
v 0 0.696238 -0.195716
vt 0.5 7.31029
vn -0.004384958 0.2370379 -0.9714905
v 0 0.650442 -0.200103
vt 0.5 7.19967
vn -0.007090757 0.108844 -0.9940336
v 0 0.796478 0.00439097
vt 0.5 7.82896
vn 0 0.9717849 0.235869
v 0.249699 0.541196 -0.0458483
vt 0.108581 4.34204
vn -0.397495 0.03237391 -0.9170331
v 0.226704 0.608093 -0.0311266
vt 0.334477 4.83742
vn -0.3783471 0.2966941 -0.8768272
v 0.237757 0.6067671 -0.0103847
vt 0.225896 4.8276
vn 0.5245118 0.2309309 0.8194866
v 0.184097 0.607507 0.00489653
vt 0.753041 4.83308
vn -0.729729 0.537039 0.423184
v 0.260752 0.53987 -0.0251064
vt 0 4.33223
vn 0.5395079 -0.0325052 0.8413529
v 0.158958 0.5406871 0.015827
vt 1 4.33828
vn -0.8824982 0.0008150532 0.4703151
v 0.22456 0.474376 -0.0349178
vt 0.355539 3.84724
vn -0.3883719 -0.2310619 -0.8920637
v 0.235613 0.473051 -0.0141759
vt 0.246958 3.83742
vn 0.5161642 -0.2968301 0.8034093
v 0.181953 0.47379 0.00110528
vt 0.774104 3.8429
vn -0.7591156 -0.5353748 0.3702938
v -0.249699 0.541196 -0.0458483
vn 0.397495 0.03237391 -0.9170331
v -0.237757 0.6067671 -0.0103847
vn -0.5245118 0.2309309 0.8194866
v -0.226704 0.608093 -0.0311266
vn 0.3783471 0.2966941 -0.8768272
v -0.260752 0.53987 -0.0251064
vn -0.5395079 -0.0325052 0.8413529
v -0.184097 0.607507 0.00489653
vn 0.729729 0.537039 0.423184
v -0.22456 0.474376 -0.0349178
vn 0.3883719 -0.2310619 -0.8920637
v -0.158958 0.5406871 0.015827
vn 0.8824982 0.0008150532 0.4703151
v -0.235613 0.473051 -0.0141759
vn -0.5161642 -0.2968301 0.8034093
v -0.181953 0.47379 0.00110527
vn 0.7591156 -0.5353748 0.3702938
o merged_0_0_node
g polygon_0
usemtl mat_body_mat_id
f 1/1/1 2/2/2 3/3/3
f 1/1/1 4/4/4 2/2/2
f 1/1/1 3/3/3 5/5/5
f 1/1/1 6/6/6 4/4/4
f 1/1/1 5/5/5 7/7/7
f 1/1/1 8/8/8 6/6/6
f 1/1/1 7/7/7 9/9/9
f 1/1/1 10/10/10 8/8/8
f 1/1/1 9/9/9 11/11/11
f 1/1/1 11/11/11 10/10/10
f 2/2/2 12/12/12 3/3/3
f 2/2/2 4/4/4 13/13/13
f 2/2/2 14/14/14 12/12/12
f 2/2/2 13/13/13 14/14/14
f 14/14/14 6/6/6 12/12/12
f 14/14/14 13/13/13 6/6/6
f 13/13/13 4/4/4 6/6/6
f 5/5/5 15/15/15 7/7/7
f 5/5/5 3/3/3 16/16/16
f 5/5/5 16/16/16 15/15/15
f 16/16/16 12/12/12 6/6/6
f 16/16/16 3/3/3 12/12/12
f 16/16/16 6/6/6 15/15/15
f 8/8/8 10/10/10 17/17/17
f 8/8/8 17/17/17 6/6/6
f 11/11/11 9/9/9 17/17/17
f 11/11/11 17/17/17 10/10/10
f 7/7/7 15/15/15 18/18/18
f 7/7/7 19/19/19 9/9/9
f 7/7/7 18/18/18 19/19/19
f 6/6/6 17/17/17 20/20/20
f 6/6/6 20/20/20 15/15/15
f 15/15/15 20/20/20 18/18/18
f 17/17/17 9/9/9 20/20/20
f 19/19/19 18/18/18 21/21/21
f 19/19/19 21/21/21 9/9/9
f 20/20/20 22/22/22 18/18/18
f 20/20/20 9/9/9 22/22/22
f 22/22/22 21/21/21 18/18/18
f 22/22/22 9/9/9 21/21/21
f 23/6/23 24/12/24 25/16/25
f 23/6/23 26/14/26 24/12/24
f 23/6/23 25/16/25 27/15/27
f 23/6/23 28/13/28 26/14/26
f 23/6/23 27/15/27 29/20/29
f 23/6/23 30/4/30 28/13/28
f 23/6/23 29/20/29 31/17/31
f 23/6/23 32/1/32 30/4/30
f 23/6/23 31/17/31 33/8/33
f 23/6/23 33/8/33 32/1/32
f 24/12/24 34/3/34 25/16/25
f 24/12/24 26/14/26 35/2/35
f 24/12/24 35/2/35 34/3/34
f 35/2/35 26/14/26 28/13/28
f 35/2/35 28/13/28 30/4/30
f 35/2/35 30/4/30 32/1/32
f 35/2/35 32/1/32 34/3/34
f 27/15/27 36/18/36 29/20/29
f 27/15/27 25/16/25 37/5/37
f 27/15/27 38/7/38 36/18/36
f 27/15/27 37/5/37 38/7/38
f 37/5/37 34/3/34 32/1/32
f 37/5/37 25/16/25 34/3/34
f 37/5/37 32/1/32 38/7/38
f 31/17/31 39/10/39 33/8/33
f 31/17/31 29/20/29 40/9/40
f 31/17/31 41/11/41 39/10/39
f 31/17/31 40/9/40 41/11/41
f 32/1/32 40/9/40 38/7/38
f 32/1/32 33/8/33 39/10/39
f 32/1/32 39/10/39 41/11/41
f 32/1/32 41/11/41 40/9/40
f 36/18/36 42/22/42 29/20/29
f 36/18/36 38/7/38 43/19/43
f 36/18/36 44/21/44 42/22/42
f 36/18/36 43/19/43 44/21/44
f 40/9/40 29/20/29 42/22/42
f 40/9/40 43/19/43 38/7/38
f 40/9/40 44/21/44 43/19/43
f 40/9/40 42/22/42 44/21/44
f 45/23/45 46/24/46 47/25/47
f 45/23/45 48/26/48 46/24/46
f 45/23/45 47/25/47 49/27/49
f 45/23/45 50/28/50 48/26/48
f 45/23/45 49/27/49 51/29/51
f 45/23/45 52/30/52 50/28/50
f 45/23/45 51/29/51 52/30/52
f 46/24/46 53/31/53 47/25/47
f 46/24/46 48/26/48 54/32/54
f 46/24/46 55/33/55 53/31/53
f 46/24/46 54/32/54 55/33/55
f 49/27/49 56/34/56 51/29/51
f 49/27/49 47/25/47 57/35/57
f 49/27/49 57/35/57 56/34/56
f 50/28/50 52/30/52 58/36/58
f 50/28/50 59/37/59 48/26/48
f 50/28/50 58/36/58 59/37/59
f 53/31/53 55/33/55 60/38/60
f 53/31/53 61/39/61 47/25/47
f 53/31/53 60/38/60 62/40/62
f 53/31/53 63/41/63 61/39/61
f 53/31/53 62/40/62 63/41/63
f 61/39/61 56/34/56 57/35/57
f 61/39/61 57/35/57 47/25/47
f 61/39/61 63/41/63 56/34/56
f 54/32/54 64/42/64 55/33/55
f 55/33/55 64/42/64 60/38/60
f 51/29/51 56/34/56 65/43/65
f 65/43/65 56/34/56 63/41/63
f 62/40/62 60/38/60 66/44/66
f 66/44/66 60/38/60 64/42/64
f 67/45/67 68/46/68 69/47/69
f 67/45/67 70/48/70 68/46/68
f 67/45/67 69/47/69 71/49/71
f 67/45/67 72/50/72 70/48/70
f 67/45/67 71/49/71 73/51/73
f 67/45/67 73/51/73 72/50/72
f 68/46/68 74/52/74 69/47/69
f 69/47/69 74/52/74 71/49/71
f 70/48/70 72/50/72 75/53/75
f 73/51/73 76/54/76 72/50/72
f 75/53/75 72/50/72 77/55/77
f 75/53/75 77/55/77 78/56/78
f 77/55/77 76/54/76 78/56/78
f 77/55/77 72/50/72 76/54/76
f 79/57/79 80/58/80 81/59/81
f 79/57/79 82/59/82 80/58/80
f 79/57/79 81/59/81 83/60/83
f 79/57/79 84/60/84 82/59/82
f 79/57/79 83/60/83 70/61/70
f 79/57/79 70/61/70 84/60/84
f 81/59/81 74/62/74 83/60/83
f 82/59/82 84/60/84 78/62/78
f 70/61/70 83/60/83 68/63/68
f 70/61/70 75/63/75 84/60/84
f 84/60/84 75/63/75 78/62/78
f 68/63/68 83/60/83 74/62/74
f 85/64/85 86/65/86 87/66/87
f 85/64/85 88/67/88 86/65/86
f 85/64/85 87/66/87 89/68/89
f 85/64/85 90/69/90 88/67/88
f 85/64/85 89/68/89 91/70/91
f 85/64/85 91/70/91 90/69/90
f 86/65/86 92/71/92 87/66/87
f 86/65/86 88/67/88 93/72/93
f 86/65/86 94/73/94 92/71/92
f 86/65/86 93/72/93 94/73/94
f 89/68/89 95/74/95 91/70/91
f 89/68/89 96/75/96 95/74/95
f 90/69/90 91/70/91 97/76/97
f 90/69/90 97/76/97 98/77/98
f 96/75/96 99/78/99 95/74/95
f 96/75/96 100/79/100 99/78/99
f 96/75/96 101/80/101 100/79/100
f 98/77/98 97/76/97 99/78/99
f 98/77/98 100/79/100 101/80/101
f 98/77/98 99/78/99 100/79/100
f 91/70/91 95/74/95 102/81/102
f 91/70/91 102/81/102 97/76/97
f 102/81/102 99/78/99 97/76/97
f 102/81/102 95/74/95 99/78/99
f 103/82/103 104/83/104 105/84/105
f 103/82/103 106/85/106 104/83/104
f 103/82/103 105/84/105 107/86/107
f 103/82/103 108/87/108 106/85/106
f 103/82/103 107/86/107 109/88/109
f 103/82/103 109/88/109 108/87/108
f 106/85/106 105/84/105 104/83/104
f 107/86/107 110/89/110 109/88/109
f 108/87/108 109/88/109 111/90/111
f 111/90/111 109/88/109 110/89/110
f 112/82/112 113/84/113 114/83/114
f 112/82/112 115/86/115 113/84/113
f 112/82/112 114/83/114 116/85/116
f 112/82/112 117/88/117 115/86/115
f 112/82/112 116/85/116 118/87/118
f 112/82/112 118/87/118 117/88/117
f 116/85/116 114/83/114 113/84/113
f 115/86/115 117/88/117 119/89/119
f 118/87/118 120/90/120 117/88/117
f 117/88/117 120/90/120 119/89/119
v 0 0.08498101 -0.253594
vt 0.508323 2.21326
vn 0 -0.379541 -0.925175
v -0.192132 0.0808509 -0.191653
vt 0.194706 2.1303
vn -0.4426269 -0.3918989 -0.8065338
vt 0.508323 4.87579
vt 0.159672 4.87579
v -0.306317 0.0808509 0.000981276
vt 0.00832301 2.1303
vn -0.917663 -0.256398 0.30357
vt 0.0626453 4.87579
v -0.153159 0.0808509 0.179612
vt 0.258323 2.1303
vn -0.5210609 -0.367731 0.7702399
vt 0.285484 4.87579
vt 0.508323 4.2867
v 0.153158 0.0808509 0.179612
vt 0.758323 2.1303
vn 0.5210609 -0.367731 0.7702399
vt 0.731162 4.87579
v 0.306317 0.0808509 0.000981276
vt 1.00832 2.1303
vn 0.9176627 -0.2563979 0.3035709
vt 0.954001 4.87579
v 0.192132 0.0808509 -0.191653
vt 0.82194 2.1303
vn 0.4426277 -0.3918987 -0.8065334
vt 0.856974 4.87579
v 0 0.0339002 0
vt 0.508323 1.18712
vn 0 -0.9998496 0.01734619
v -0.133978 0 0
vt 0.289632 0.000194609
vn -0.0991641 -0.995049 0.00663064
v 0.133978 0 0
vt 0.727014 0.000194609
vn 0.0991641 -0.995049 0.00663067
v -0.0666587 0.503109 0.15486
vt 0.37623 2.68973
vn -0.376658 -0.903828 -0.203036
vt 0.5 2.54436
v -0.0882963 0.509231 0.158358
vt 0.336054 2.70725
vn -0.6184401 -0.6927891 0.3709111
v 0 0.438325 0.20611
vt 0.5 2.43944
vn 0 -0.3449661 0.9386152
v 0.0882963 0.509231 0.158358
vt 0.663946 2.70725
vn 0.6184394 -0.6927903 0.3709102
v 0.0666587 0.503109 0.15486
vt 0.62377 2.68973
vn 0.376658 -0.903828 -0.203036
v 0.269285 0.593516 0.00439097
vt 1 3.02559
vn 0.823249 0.461559 0.330491
vt 0.920796 3.17056
v -0.206699 0.6029021 -0.11162
vt 0.116207 3.06104
vn -0.6793412 -0.05905772 -0.7314422
vt 0.240386 3.43944
vt 0.5 2.81399
v -0.269285 0.593516 0.00439097
vt 0 3.02559
vn -0.8268352 0.4684711 0.3112531
vt 0.183417 3.43896
vt 0.352665 3.04073
vt 0.411656 2.87864
vt 0.816582 3.43896
vt 0.647335 3.04073
v 0.206699 0.6029021 -0.11162
vt 0.883793 3.06104
vn 0.6678533 -0.2051161 -0.7154714
vt 0.767225 3.43943
vt 0.172761 3.1083
vt 0.287764 2.94532
vt 0.5 2.661
vt 0.588344 2.87864
vt 0.079204 3.17056
vt 0.827238 3.1083
vt 0.5 3.2406
v -0.0351787 0.216105 -0.264332
vt 0.393547 2.09235
vn -3.393549E-05 0.2556039 -0.9667816
v -0.156323 0.297536 -0.242656
vt 0.030502 2.37984
v 3.55705E-05 0.294557 -0.244427
vt 0.499077 2.36932
v -0.0299304 0.435492 -0.205405
vt 0.427599 2.72563
vn -0.131402 0.154453 -0.9792231
v 0.0291671 0.435492 -0.205404
vt 0.570554 2.72563
vn 0.1294591 0.1550191 -0.9793924
vt 0.5 2.98101
vn 0.0008335877 0.06914048 -0.9976066
vt 1 3.09235
vn 0.425323 0.05503239 -0.9033669
vt 0 3.09235
vn -0.424498 0.0579583 -0.903572
v 0.159887 0.297536 -0.242656
vt 0.97812 2.37984
v 0.0387428 0.216105 -0.264332
vt 0.615074 2.09235
vn 0.131402 -0.154453 0.9792231
vn 3.394652E-05 -0.2556041 0.9667816
vn -0.1294591 -0.1550191 0.9793924
vn -0.425323 -0.05503239 0.9033669
vn -0.0008336997 -0.06914048 0.9976066
vn 0.424498 -0.0579583 0.903572
o merged_1_0_node
g polygon_0
usemtl mat_leg_mat_id
f 121/91/121 122/92/122 80/93/80
f 80/93/80 122/92/122 81/94/81
f 81/94/81 123/95/123 74/96/74
f 123/95/123 124/97/124 74/96/74
f 74/96/74 124/97/124 71/98/71
f 73/99/73 125/100/125 76/101/76
f 126/102/126 78/103/78 125/100/125
f 125/100/125 78/103/78 76/101/76
f 126/102/126 127/104/127 82/105/82
f 122/92/122 121/91/121 128/106/128
f 129/107/129 122/92/122 128/106/128
f 124/97/124 129/107/129 128/106/128
f 125/100/125 124/97/124 128/106/128
f 130/108/130 125/100/125 128/106/128
f 127/104/127 126/102/126 130/108/130
f 127/104/127 130/108/130 128/106/128
f 126/102/126 125/100/125 130/108/130
f 124/97/124 123/95/123 129/107/129
f 123/95/123 122/92/122 129/107/129
f 124/97/124 73/99/73 71/98/71
f 124/97/124 125/100/125 73/99/73
f 121/91/121 80/93/80 127/104/127
f 127/104/127 80/93/80 82/105/82
f 128/106/128 121/91/121 127/104/127
f 122/92/122 123/95/123 81/94/81
f 126/102/126 82/105/82 78/103/78
f 131/109/131 65/110/65 132/111/132
f 132/111/132 65/110/65 133/112/133
f 133/112/133 65/110/65 134/113/134
f 134/113/134 65/110/65 135/114/135
f 136/115/136 134/113/134 66/116/66
f 66/116/66 134/113/134 135/114/135
f 137/117/137 98/118/98 54/119/54
f 98/118/98 138/120/138 90/121/90
f 138/120/138 132/111/132 88/122/88
f 132/111/132 93/123/93 88/122/88
f 136/115/136 89/124/89 87/125/87
f 136/115/136 139/126/139 96/127/96
f 59/128/59 54/119/54 48/129/48
f 93/123/93 132/111/132 94/130/94
f 94/130/94 132/111/132 133/112/133
f 92/131/92 94/130/94 134/113/134
f 134/113/134 94/130/94 133/112/133
f 87/125/87 92/131/92 134/113/134
f 138/120/138 58/132/58 132/111/132
f 132/111/132 58/132/58 131/109/131
f 138/120/138 137/117/137 58/132/58
f 58/132/58 137/117/137 59/128/59
f 137/117/137 54/119/54 59/128/59
f 54/119/54 139/126/139 64/133/64
f 136/115/136 66/116/66 139/126/139
f 139/126/139 66/116/66 64/133/64
f 136/115/136 96/127/96 89/124/89
f 98/118/98 137/117/137 138/120/138
f 101/134/101 96/127/96 54/119/54
f 136/115/136 87/125/87 134/113/134
f 138/120/138 88/122/88 90/121/90
f 54/119/54 98/118/98 101/134/101
f 54/119/54 96/127/96 139/126/139
f 140/135/140 141/136/140 142/137/140
f 142/137/140 141/136/140 143/138/141
f 144/139/142 54/140/143 139/141/144
f 54/140/143 143/138/141 137/142/145
f 144/139/142 145/143/140 142/137/140
f 142/137/140 145/143/140 146/144/140
f 142/137/140 143/138/141 144/139/142
f 144/139/142 143/138/141 54/140/143
f 143/138/146 141/136/147 142/137/147
f 142/137/147 141/136/147 140/135/147
f 144/139/148 139/141/149 54/140/150
f 54/140/150 137/142/151 143/138/146
f 146/144/147 145/143/147 142/137/147
f 142/137/147 145/143/147 144/139/148
f 142/137/147 144/139/148 143/138/146
f 143/138/146 144/139/148 54/140/150
v 0.319702 0.0892038 -0.231084
vt 1.0364 -0.375
vn 0.15691 0.4832099 -0.8613289
v 0.0551208 0.0646155 -0.285819
vt 0.481807 -0.375
vt 1.0364 1
vt 0.481807 1
v -0.314728 0.0892039 -0.231084
vn -0.1577779 0.4794387 -0.8632755
v -0.0501466 0.0646155 -0.285819
v -0.340856 0.0892038 -0.180188
vn -0.7380872 0.5961472 -0.3159681
v -0.378321 0.115998 -0.0113078
v -0.23588 0.0892038 0.211726
vn -0.673476 0.5013781 0.5431851
v -0.136519 0.242704 0.165677
v -0.340856 0.115998 0.0292801
vt 0.233783 0.879983
vn 0 0.3154429 0.9489446
v 0.159558 0.0756212 0.232823
vt 0.67285 -0.302633
vn 0.03977902 0.3100261 0.9498955
v 0.136519 0.242704 0.165677
vt 0.60945 1.15926
vn 0.111399 0.3837529 0.9166918
v 0.235879 0.0892038 0.211726
vn 0.6734757 0.5013778 0.5431858
v 0.340856 0.115998 0.0292803
v 0.340856 0.0892038 -0.180188
vn 0.7380877 0.5961467 -0.3159679
v 0.378321 0.115998 -0.0113077
v -0.159558 0.0756212 0.232823
vt -0.205283 -0.302633
vn -0.03977902 0.3100261 0.9498955
vt -0.141883 1.15926
vn -0.111398 0.383753 0.916692
vn -0.15691 -0.4832099 0.8613289
vn 0.1577779 -0.4794387 0.8632755
vn 0.7380872 -0.5961472 0.3159681
vn 0.673476 -0.5013781 -0.5431851
vn 0 -0.3154429 -0.9489446
vn -0.111399 -0.3837529 -0.9166918
vn -0.03977912 -0.3100261 -0.9498955
vn -0.6734757 -0.5013778 -0.5431858
vn -0.7380877 -0.5961467 0.3159679
vn 0.03977912 -0.3100261 -0.9498955
vn 0.111399 -0.3837529 -0.9166918
o merged_2_0_node
g polygon_0
usemtl mat_mawashi_mat_id
f 147/145/152 148/146/152 82/147/152
f 82/147/152 148/146/152 80/148/152
f 149/145/153 81/147/153 150/146/153
f 150/146/153 81/147/153 80/148/153
f 151/145/154 152/146/154 81/147/154
f 81/147/154 152/146/154 74/148/154
f 153/145/155 154/147/155 155/146/155
f 155/146/155 154/147/155 74/148/155
f 73/149/156 156/150/157 157/151/158
f 158/145/159 159/146/159 157/147/159
f 157/147/159 159/146/159 78/148/159
f 160/145/160 82/147/160 161/146/160
f 161/146/160 82/147/160 78/148/160
f 162/152/161 156/150/157 73/149/156
f 162/152/161 73/149/156 154/153/162
f 147/145/163 82/147/163 148/146/163
f 148/146/163 82/147/163 80/148/163
f 80/148/164 81/147/164 150/146/164
f 150/146/164 81/147/164 149/145/164
f 151/145/165 81/147/165 152/146/165
f 152/146/165 81/147/165 74/148/165
f 74/148/166 154/147/166 155/146/166
f 155/146/166 154/147/166 153/145/166
f 73/149/167 157/151/168 156/150/169
f 158/145/170 157/147/170 159/146/170
f 159/146/170 157/147/170 78/148/170
f 78/148/171 82/147/171 161/146/171
f 161/146/171 82/147/171 160/145/171
f 162/152/172 73/149/167 156/150/169
f 162/152/172 154/153/173 73/149/167
vt -0.235287 0.9302
vt 0.673829 0.890771
vt 0.288503 0.832706
vt -1.07793 1.15742
vt 1.24456 0.810154
o merged_3_0_node
g polygon_0
usemtl TEX_ANIM_EYE_mat_id
f 62/154/62 135/155/135 63/156/63
f 131/155/131 58/157/58 52/154/52
f 62/154/62 66/157/66 135/155/135
f 135/155/135 65/158/65 63/156/63
f 51/156/51 131/155/131 52/154/52
f 131/155/131 51/156/51 65/158/65
vt -0.436066 0.644134
vt 0.128556 1.52258
vt 1.66402 0.4501
vt 1.23603 1.42457
vt -0.00806719 -0.330336
vt 1.0994 -0.428343
o merged_4_0_node
g polygon_0
usemtl mat_ear_mat_id
f 107/159/107 105/160/105 108/161/108
f 108/161/108 105/160/105 106/162/106
f 110/163/110 107/159/107 111/164/111
f 111/164/111 107/159/107 108/161/108
f 115/159/115 118/161/118 113/160/113
f 113/160/113 118/161/118 116/162/116
f 118/161/118 115/159/115 120/164/120
f 120/164/120 115/159/115 119/163/119
