ply
format ascii 1.0
element vertex 770
property float x
property float y
property float z
property uchar red
property uchar green
property uchar blue
element face 848
property list uchar int vertex_index
end_header
0.77609 0.36566 1.76549 133 183 94
0.77609 0.46695 1.76549 133 183 94
0.77609 0.46695 1.56948 133 183 94
0.77609 0.36566 1.56948 133 183 94
0.74939 0.34874 1.78816 133 183 94
0.74939 0.34874 1.54878 133 183 94
0.74939 0.48387 1.54878 133 183 94
0.25886 0.34874 1.78874 133 183 94
0.25886 0.34874 1.54878 133 183 94
0.25886 0.48387 1.54878 133 183 94
0.74939 0.48387 1.78816 133 183 94
0.25886 0.48387 1.78874 133 183 94
-0.25886 0.48387 1.54878 133 183 94
-0.25886 0.48387 1.78874 133 183 94
0.22527 0.48387 1.81847 133 183 94
-0.22527 0.48387 1.81847 133 183 94
-0.74939 0.48387 1.78816 133 183 94
-0.74939 0.48387 1.54878 133 183 94
-0.77609 0.46695 1.76549 133 183 94
-0.77609 0.46695 1.56948 133 183 94
-0.25886 0.34874 1.54878 133 183 94
-0.74939 0.34874 1.54878 133 183 94
-0.25886 0.34874 1.78874 133 183 94
-0.74939 0.34874 1.78816 133 183 94
-0.77609 0.36566 1.56948 133 183 94
-0.77609 0.36566 1.76549 133 183 94
-0.25886 0.28747 1.73688 133 183 94
-0.25886 0.17805 1.73688 133 183 94
-0.25886 0.17792 1.78874 133 183 94
-0.25886 0.28747 1.47452 133 183 94
-0.25886 0.34874 1.47831 133 183 94
-0.25886 0.34874 1.22285 133 183 94
-0.66832 0.34874 1.22285 133 183 94
-0.66832 0.34874 1.47831 133 183 94
-0.69502 0.36566 1.2423 133 183 94
-0.69502 0.36566 1.45245 133 183 94
-0.69502 0.46695 1.45245 133 183 94
-0.69502 0.46695 1.2423 133 183 94
-0.66832 0.48387 1.22285 133 183 94
-0.25886 0.48387 1.22285 133 183 94
-0.66832 0.48387 1.47831 133 183 94
-0.25886 0.48387 1.47831 133 183 94
0.25886 0.48387 1.47831 133 183 94
0.25886 0.48387 1.22285 133 183 94
0.66832 0.48387 1.47831 133 183 94
0.66832 0.48387 1.22285 133 183 94
0.69502 0.46695 1.45245 133 183 94
0.69502 0.46695 1.2423 133 183 94
0.25886 0.48387 1.14517 133 183 94
-0.25886 0.48387 1.14517 133 183 94
-0.25886 0.48387 0.88751 133 183 94
0.25886 0.48387 0.88751 133 183 94
0.74939 0.48387 1.14464 133 183 94
0.74939 0.48387 0.8873 133 183 94
0.77609 0.46695 1.12315 133 183 94
0.77609 0.46695 0.9088 133 183 94
-0.21166 0.48387 0.84305 133 183 94
0.21166 0.48387 0.84305 133 183 94
-0.74939 0.48387 1.14464 133 183 94
-0.74939 0.48387 0.8873 133 183 94
-0.25886 0.34874 0.88751 133 183 94
-0.74939 0.34874 0.8873 133 183 94
-0.25886 0.34874 1.14517 133 183 94
-0.74939 0.34874 1.14464 133 183 94
-0.77609 0.36566 0.9088 133 183 94
-0.77609 0.36566 1.12315 133 183 94
-0.77609 0.46695 1.12315 133 183 94
-0.77609 0.46695 0.9088 133 183 94
-0.25886 0.18123 1.15879 133 183 94
-0.25886 0.1844 0.88751 133 183 94
-0.21161 0.34874 0.84305 133 183 94
-0.21161 0.1844 0.84305 133 183 94
-0.15755 0.1844 0.11072 133 183 94
0.15755 0.1844 0.11072 133 183 94
0.21161 0.1844 0.84305 133 183 94
0.21161 0.34874 0.84305 133 183 94
0.25886 0.1844 0.88751 133 183 94
0.25886 0.34874 0.88751 133 183 94
0.74939 0.34874 0.8873 133 183 94
0.25886 0.34874 1.14517 133 183 94
0.74939 0.34874 1.14464 133 183 94
0.77609 0.36566 0.9088 133 183 94
0.77609 0.36566 1.12315 133 183 94
0.25886 0.18123 1.15879 133 183 94
0.25886 0.34874 1.22285 133 183 94
0.66832 0.34874 1.22285 133 183 94
0.25886 0.34874 1.47831 133 183 94
0.66832 0.34874 1.47831 133 183 94
0.69502 0.36566 1.2423 133 183 94
0.69502 0.36566 1.45245 133 183 94
0.25886 0.28747 1.47452 133 183 94
0.25886 0.17805 1.47452 133 183 94
0.25886 0.28747 1.73688 133 183 94
0.25886 0.17805 1.73688 133 183 94
0.25886 0.17792 1.78874 133 183 94
0.25886 0.48387 1.78874 140 191 99
0.74939 0.48387 1.78816 140 191 99
0.74939 0.34874 1.78816 140 191 99
0.25886 0.34874 1.78874 140 191 99
0.22531 0.34874 1.81847 140 191 99
0.22527 0.48387 1.81847 140 191 99
-0.2252 0.34874 1.81847 140 191 99
-0.22527 0.48387 1.81847 140 191 99
0.25886 0.17792 1.78874 140 191 99
0.22519 0.17792 1.81847 140 191 99
0.12943 0.28556 1.81847 140 191 99
-0.12943 0.28556 1.81847 140 191 99
0.12943 0.17792 1.81847 140 191 99
-0.25886 0.48387 1.78874 140 191 99
-0.25886 0.34874 1.78874 140 191 99
-0.22519 0.17792 1.81847 140 191 99
-0.25886 0.17792 1.78874 140 191 99
-0.12943 0.17792 1.81847 140 191 99
-0.74939 0.34874 1.78816 140 191 99
-0.74939 0.48387 1.78816 140 191 99
0.25886 0.48387 1.14517 140 191 99
0.74939 0.48387 1.14464 140 191 99
0.74939 0.34874 1.14464 140 191 99
0.25886 0.34874 1.14517 140 191 99
0.77609 0.36566 1.12315 140 191 99
0.77609 0.46695 1.12315 140 191 99
0.25886 0.48387 1.47831 140 191 99
0.66832 0.48387 1.47831 140 191 99
0.66832 0.34874 1.47831 140 191 99
0.25886 0.34874 1.47831 140 191 99
0.69502 0.36566 1.45245 140 191 99
0.69502 0.46695 1.45245 140 191 99
0.77609 0.46695 1.76549 140 191 99
0.77609 0.36566 1.76549 140 191 99
-0.25886 0.48387 1.14517 140 191 99
-0.25886 0.34874 1.14517 140 191 99
-0.74939 0.34874 1.14464 140 191 99
-0.74939 0.48387 1.14464 140 191 99
-0.77609 0.36566 1.12315 140 191 99
-0.77609 0.46695 1.12315 140 191 99
-0.25886 0.48387 1.47831 140 191 99
-0.25886 0.34874 1.47831 140 191 99
-0.66832 0.34874 1.47831 140 191 99
-0.66832 0.48387 1.47831 140 191 99
-0.15755 0.34874 0.11072 133 183 94
-0.13627 0.3382 0.08525 133 183 94
-0.13627 0.19494 0.08525 133 183 94
0.13627 0.19494 0.08525 133 183 94
0.13627 0.3382 0.08525 133 183 94
0.15755 0.34874 0.11072 133 183 94
-0.77609 0.36566 1.76549 140 191 99
-0.77609 0.46695 1.76549 140 191 99
-0.69502 0.36566 1.45245 140 191 99
-0.69502 0.46695 1.45245 140 191 99
0.24868 -0.20255 0.65752 140 191 99
0.24868 0.08626 1.06998 140 191 99
0.52795 0.08626 1.06998 140 191 99
0.52795 -0.20255 0.65752 140 191 99
0.50812 0.12042 1.08418 140 191 99
0.26851 0.12042 1.08418 140 191 99
0.26851 0.12042 1.08418 133 183 94
0.26851 0.28287 0.97043 133 183 94
0.50812 0.28287 0.97043 133 183 94
0.50812 0.12042 1.08418 133 183 94
0.52795 0.08626 1.06998 133 183 94
0.52795 0.28121 0.93347 133 183 94
0.24868 0.28121 0.93347 133 183 94
0.52795 -0.0076 0.52101 133 183 94
0.24868 -0.0076 0.52101 133 183 94
0.24868 0.23784 0.96379 133 183 94
0.24868 0.23807 0.94038 133 183 94
0.24868 0.13017 1.03924 133 183 94
0.24868 0.08626 1.06998 133 183 94
0.24868 0.10437 0.74995 133 183 94
0.24868 0.07472 0.74567 133 183 94
0.24868 -0.01943 0.81089 133 183 94
0.24868 -0.20255 0.65752 133 183 94
0.30362 -0.09325 0.58093 133 183 94
0.32781 -0.0526 0.55252 133 183 94
0.30362 -0.15755 0.62601 133 183 94
0.52795 -0.20255 0.65752 133 183 94
0.47302 -0.15755 0.62601 133 183 94
0.47302 -0.09325 0.58093 133 183 94
0.47302 -0.18941 0.57683 133 183 94
0.24868 -0.02571 0.84104 133 183 94
0.44882 -0.0526 0.55252 133 183 94
0.47302 -0.19267 0.54309 133 183 94
0.47302 -0.15805 0.48448 133 183 94
0.47302 0.07546 0.0986 133 183 94
0.47302 0.20409 0.0986 133 183 94
0.47302 0.07534 5.73055E-08 133 183 94
0.47302 0.20401 1.71917E-07 133 183 94
0.51193 0.0333 0.09875 133 183 94
0.51193 0.03317 0.00015 133 183 94
0.44882 0.23248 1.71917E-07 133 183 94
0.30362 0.20401 1.71917E-07 133 183 94
0.32781 0.23248 1.71917E-07 133 183 94
0.32781 0.23257 0.0986 133 183 94
0.44882 0.23257 0.0986 133 183 94
0.30362 0.20409 0.0986 133 183 94
0.30362 0.07534 5.73055E-08 133 183 94
0.51254 -0.09324 0.0989 133 183 94
0.51254 -0.09337 0.0003 133 183 94
0.47302 -0.18941 0.57683 140 191 99
0.47302 -0.19267 0.54309 140 191 99
0.30362 -0.19267 0.54309 140 191 99
0.30362 -0.18941 0.57683 140 191 99
0.47302 -0.15755 0.62601 140 191 99
0.30362 -0.15755 0.62601 140 191 99
0.30362 -0.15805 0.48448 133 183 94
0.30362 0.07546 0.0986 133 183 94
0.30362 -0.19267 0.54309 133 183 94
0.30362 -0.18941 0.57683 133 183 94
0.24868 0.23807 0.94038 48 77 56
0.24868 0.23784 0.96379 48 77 56
0.24868 0.13017 1.03924 48 77 56
0.24868 0.10798 1.03147 48 77 56
0.24868 -0.02571 0.84104 48 77 56
0.24868 0.10437 0.74995 48 77 56
0.24868 0.07472 0.74567 48 77 56
0.24868 -0.01943 0.81089 48 77 56
0.51254 -0.20204 0.09908 220 214 209
0.51254 -0.20216 0.00048 220 214 209
0.43075 -0.20216 0.00048 220 214 209
0.43075 -0.20204 0.09908 220 214 209
0.43075 -0.09324 0.0989 220 214 209
0.43075 -0.09337 0.0003 220 214 209
0.51254 -0.09337 0.0003 220 214 209
0.51254 -0.09324 0.0989 220 214 209
0.34516 -0.09324 0.0989 140 191 99
0.2647 0.0333 0.09875 140 191 99
0.30362 0.07546 0.0986 140 191 99
0.47302 0.07546 0.0986 140 191 99
0.43075 -0.09324 0.0989 140 191 99
0.26409 -0.09324 0.0989 140 191 99
0.51193 0.0333 0.09875 140 191 99
0.51254 -0.09324 0.0989 140 191 99
0.2647 0.0333 0.09875 133 183 94
0.26409 -0.09324 0.0989 133 183 94
0.26409 -0.09337 0.0003 133 183 94
0.2647 0.03317 0.00015 133 183 94
0.43075 -0.09337 0.0003 133 183 94
0.34516 -0.09337 0.0003 133 183 94
0.34516 -0.09324 0.0989 133 183 94
0.43075 -0.09324 0.0989 133 183 94
0.34516 -0.20216 0.00048 220 214 209
0.26409 -0.20216 0.00048 220 214 209
0.26409 -0.20204 0.09908 220 214 209
0.34516 -0.20204 0.09908 220 214 209
0.26409 -0.09337 0.0003 220 214 209
0.34516 -0.09337 0.0003 220 214 209
0.51254 -0.09324 0.0989 227 221 216
0.51254 -0.20204 0.09908 227 221 216
0.43075 -0.20204 0.09908 227 221 216
0.43075 -0.09324 0.0989 227 221 216
0.34516 -0.09324 0.0989 220 214 209
0.34516 -0.09324 0.0989 227 221 216
0.34516 -0.20204 0.09908 227 221 216
0.26409 -0.20204 0.09908 227 221 216
0.26409 -0.09324 0.0989 227 221 216
0.26409 -0.09324 0.0989 220 214 209
0.24868 0.10798 1.03147 133 183 94
-0.24826 -0.29989 1.78599 255 255 255
-0.27661 -0.29989 1.78599 255 255 255
-0.27661 -0.29989 1.84264 255 255 255
-0.24826 -0.29989 1.79347 255 255 255
-0.24826 -0.29185 1.78599 255 255 255
-0.27661 -0.29185 1.78599 255 255 255
-0.27661 -0.29185 1.84264 255 255 255
-0.29872 -0.29257 1.73883 78 63 66
-0.29869 -0.29257 1.76256 78 63 66
-0.2372 -0.29257 1.76256 78 63 66
-0.2372 -0.29257 1.73911 78 63 66
-0.18992 -0.26462 1.69763 255 255 255
-0.36076 -0.26462 1.69763 255 255 255
-0.36076 -0.29257 1.69763 255 255 255
-0.18992 -0.29257 1.69763 255 255 255
-0.36076 -0.26462 1.98806 255 255 255
-0.36076 -0.29257 1.98806 255 255 255
-0.2372 -0.29257 1.73911 255 255 255
-0.29872 -0.29257 1.73883 255 255 255
-0.29869 -0.29257 1.76256 255 255 255
-0.2372 -0.29257 1.76256 255 255 255
-0.23721 -0.29257 1.77551 255 255 255
-0.29888 -0.29257 1.88313 255 255 255
-0.2372 -0.29257 1.76256 51 41 43
-0.29869 -0.29257 1.76256 51 41 43
-0.29888 -0.29257 1.88313 51 41 43
-0.23721 -0.29257 1.77551 51 41 43
0.24826 -0.29989 1.78599 255 255 255
0.24826 -0.29989 1.79347 255 255 255
0.27661 -0.29989 1.84264 255 255 255
0.27661 -0.29989 1.78599 255 255 255
0.24826 -0.29185 1.78599 255 255 255
0.27661 -0.29185 1.78599 255 255 255
0.27661 -0.29185 1.84264 255 255 255
0.29872 -0.29257 1.73883 78 63 66
0.2372 -0.29257 1.73911 78 63 66
0.2372 -0.29257 1.76256 78 63 66
0.29869 -0.29257 1.76256 78 63 66
0.18992 -0.26462 1.69763 255 255 255
0.18992 -0.29257 1.69763 255 255 255
0.36076 -0.29257 1.69763 255 255 255
0.36076 -0.26462 1.69763 255 255 255
0.36076 -0.26462 1.98806 255 255 255
0.36076 -0.29257 1.98806 255 255 255
0.2372 -0.29257 1.73911 255 255 255
0.29872 -0.29257 1.73883 255 255 255
0.2372 -0.29257 1.76256 255 255 255
0.23721 -0.29257 1.77551 255 255 255
0.29869 -0.29257 1.76256 255 255 255
0.29888 -0.29257 1.88313 255 255 255
0.2372 -0.29257 1.76256 51 41 43
0.23721 -0.29257 1.77551 51 41 43
0.29888 -0.29257 1.88313 51 41 43
0.29869 -0.29257 1.76256 51 41 43
0.17922 0.06156 1.51506 133 183 94
0.17922 0.06156 1.70211 133 183 94
0.70872 0.06156 1.70211 133 183 94
0.70872 0.06156 1.51506 133 183 94
0.75232 0.06156 1.56027 133 183 94
0.75232 0.06156 1.6569 133 183 94
0.88911 0.06156 1.70211 133 183 94
0.84552 0.06156 1.6569 133 183 94
0.17922 0.06156 1.70211 140 191 99
0.17922 0.24861 1.70211 140 191 99
0.70872 0.06156 1.70211 140 191 99
0.86379 0.24861 1.70211 140 191 99
0.88911 0.22019 1.70211 140 191 99
0.88911 0.06156 1.70211 140 191 99
0.17922 0.24861 1.70211 133 183 94
0.17922 0.24861 1.51506 133 183 94
0.86379 0.24861 1.51506 133 183 94
0.86379 0.24861 1.70211 133 183 94
0.88911 0.22019 1.70211 133 183 94
0.88911 0.22019 1.51506 133 183 94
0.88911 0.06156 1.51506 133 183 94
0.84552 0.06156 1.56027 133 183 94
0.84552 -0.60856 0.65795 220 214 209
0.84552 -0.56286 0.60346 220 214 209
0.75232 -0.56286 0.60346 220 214 209
0.75232 -0.60856 0.65795 220 214 209
0.75232 -0.56187 1.6569 220 214 209
0.75232 -0.60856 1.60899 220 214 209
0.75232 -0.31121 0.60346 220 214 209
0.84552 -0.31121 0.60346 220 214 209
0.75232 -0.31121 1.56027 220 214 209
0.84552 -0.31121 1.56027 220 214 209
0.75232 0.06156 1.56027 220 214 209
0.84552 0.06156 1.56027 220 214 209
0.84552 -0.56187 1.6569 220 214 209
0.84552 0.06156 1.6569 220 214 209
0.75232 0.06156 1.6569 220 214 209
0.84552 -0.60856 1.60899 220 214 209
0.84552 0.06156 1.6569 227 221 216
0.84552 -0.56187 1.6569 227 221 216
0.75232 -0.56187 1.6569 227 221 216
0.75232 0.06156 1.6569 227 221 216
0.75232 -0.60856 1.60899 227 221 216
0.84552 -0.60856 1.60899 227 221 216
-0.17922 0.06156 1.51506 133 183 94
-0.70872 0.06156 1.51506 133 183 94
-0.70872 0.06156 1.70211 133 183 94
-0.17922 0.06156 1.70211 133 183 94
-0.75232 0.06156 1.56027 133 183 94
-0.75232 0.06156 1.6569 133 183 94
-0.88911 0.06156 1.70211 133 183 94
-0.84552 0.06156 1.6569 133 183 94
-0.17922 0.06156 1.70211 140 191 99
-0.70872 0.06156 1.70211 140 191 99
-0.17922 0.24861 1.70211 140 191 99
-0.86379 0.24861 1.70211 140 191 99
-0.88911 0.22019 1.70211 140 191 99
-0.88911 0.06156 1.70211 140 191 99
-0.17922 0.24861 1.70211 133 183 94
-0.86379 0.24861 1.70211 133 183 94
-0.86379 0.24861 1.51506 133 183 94
-0.17922 0.24861 1.51506 133 183 94
-0.88911 0.22019 1.70211 133 183 94
-0.88911 0.22019 1.51506 133 183 94
-0.88911 0.06156 1.51506 133 183 94
-0.84552 0.06156 1.56027 133 183 94
-0.75232 -0.60856 0.65795 220 214 209
-0.75232 -0.56286 0.60346 220 214 209
-0.84552 -0.56286 0.60346 220 214 209
-0.84552 -0.60856 0.65795 220 214 209
-0.75232 -0.31121 0.60346 220 214 209
-0.75232 -0.56187 1.6569 220 214 209
-0.75232 -0.31121 1.56027 220 214 209
-0.84552 -0.31121 0.60346 220 214 209
-0.84552 -0.31121 1.56027 220 214 209
-0.75232 0.06156 1.56027 220 214 209
-0.84552 0.06156 1.56027 220 214 209
-0.84552 -0.56187 1.6569 220 214 209
-0.84552 0.06156 1.6569 220 214 209
-0.84552 -0.60856 1.60899 220 214 209
-0.75232 0.06156 1.6569 220 214 209
-0.75232 -0.60856 1.60899 220 214 209
-0.84552 0.06156 1.6569 227 221 216
-0.75232 0.06156 1.6569 227 221 216
-0.75232 -0.56187 1.6569 227 221 216
-0.84552 -0.56187 1.6569 227 221 216
-0.75232 -0.60856 1.60899 227 221 216
-0.84552 -0.60856 1.60899 227 221 216
-0.11707 -0.32493 1.55505 121 165 85
-0.11707 -0.26923 1.55505 121 165 85
-0.67235 -0.26933 2.49394 121 165 85
-0.67235 -0.32493 2.49394 121 165 85
-0.07257 -0.32493 1.55505 121 165 85
-0.63387 -0.32493 2.49394 121 165 85
-0.63388 -0.26933 2.49394 121 165 85
-0.67235 -0.12231 2.49394 121 165 85
-0.63365 -0.12231 2.49394 121 165 85
0.11707 -0.26923 1.55505 121 165 85
0.07257 -0.32493 1.55505 121 165 85
0.11707 -0.32493 1.55505 121 165 85
0.67235 -0.26933 2.49394 121 165 85
0.67235 -0.32493 2.49394 121 165 85
0.63387 -0.32493 2.49394 121 165 85
0.63398 -0.26933 2.49394 121 165 85
0.63362 -0.12231 2.49394 121 165 85
0.67235 -0.12231 2.49394 121 165 85
-0.46274 -0.12231 1.55505 133 183 94
0.46274 -0.12231 1.55505 133 183 94
0.14507 -0.12231 2.1519 133 183 94
-0.14507 -0.12231 2.1519 133 183 94
-0.67235 -0.12231 2.49394 133 183 94
-0.63365 -0.12231 2.49394 133 183 94
-1.2691 -0.12231 2.70935 133 183 94
-1.2691 -0.26933 2.70935 133 183 94
-0.46274 -0.26933 1.55505 133 183 94
-0.80656 -0.12231 2.70935 133 183 94
-0.11707 -0.26923 1.55505 133 183 94
-0.10728 0.80981 2.23481 133 183 94
-0.14507 -0.12231 2.49394 133 183 94
-0.10728 0.80981 2.44452 133 183 94
0.10728 0.80981 2.23481 133 183 94
0.14507 -0.12231 2.49394 133 183 94
0.10728 0.80981 2.44452 133 183 94
0.67235 -0.12231 2.49394 133 183 94
1.2691 -0.12231 2.70935 133 183 94
1.2691 -0.26933 2.70935 133 183 94
0.46274 -0.26933 1.55505 133 183 94
0.80656 -0.12231 2.70935 133 183 94
0.11707 -0.26923 1.55505 133 183 94
-0.0894 0.84836 2.42312 133 183 94
-0.0894 0.84836 2.25621 133 183 94
0.0894 0.84836 2.42312 133 183 94
0.0894 0.84836 2.25621 133 183 94
0.84277 -0.12231 2.7391 133 183 94
1.24304 -0.12231 2.7391 133 183 94
0.63362 -0.12231 2.49394 133 183 94
-0.84277 -0.12231 2.7391 140 191 99
-0.84277 -0.26933 2.7391 140 191 99
-1.24304 -0.26933 2.7391 140 191 99
-1.24304 -0.12231 2.7391 140 191 99
-1.2691 -0.12231 2.70935 140 191 99
-1.2691 -0.26933 2.70935 140 191 99
-0.67235 -0.26933 2.49394 133 183 94
-0.80656 -0.26933 2.70935 133 183 94
-0.84277 -0.26933 2.7391 133 183 94
-1.24304 -0.26933 2.7391 133 183 94
-0.10728 0.80981 2.44452 140 191 99
0.10728 0.80981 2.44452 140 191 99
0.14507 -0.12231 2.49394 140 191 99
-0.14507 -0.12231 2.49394 140 191 99
0.0894 0.84836 2.42312 140 191 99
-0.0894 0.84836 2.42312 140 191 99
-0.63388 -0.26933 2.49394 140 191 99
0.63398 -0.26933 2.49394 140 191 99
0.63387 -0.32493 2.49394 140 191 99
-0.63387 -0.32493 2.49394 140 191 99
0.63362 -0.12231 2.49394 140 191 99
-0.63365 -0.12231 2.49394 140 191 99
0.84277 -0.12231 2.7391 140 191 99
1.24304 -0.12231 2.7391 140 191 99
1.24304 -0.26933 2.7391 140 191 99
0.84277 -0.26933 2.7391 140 191 99
1.2691 -0.26933 2.70935 140 191 99
1.2691 -0.12231 2.70935 140 191 99
0.80656 -0.12231 2.70935 140 191 99
0.80656 -0.26933 2.70935 140 191 99
0.80656 -0.26933 2.70935 133 183 94
0.67235 -0.26933 2.49394 133 183 94
1.24304 -0.26933 2.7391 133 183 94
0.84277 -0.26933 2.7391 133 183 94
0.25886 -0.07319 1.78874 219 214 210
0.25886 0.12811 1.78874 219 214 210
0.25886 0.12811 1.73688 219 214 210
0.25886 0.02112 1.73688 219 214 210
0.25886 0.02112 1.47452 219 214 210
0.25886 -0.07319 1.37452 219 214 210
0.25886 0.12811 1.47452 219 214 210
0.25886 0.12741 1.37442 219 214 210
0.12958 -0.07319 1.75487 219 214 210
0.02906 -0.07319 1.75487 219 214 210
0.02906 -0.07319 1.37452 219 214 210
0.12943 -0.07319 1.81847 219 214 210
0.22519 -0.07319 1.81847 219 214 210
0.25886 0.12811 1.78874 48 77 56
0.25886 0.17792 1.78874 48 77 56
0.25886 0.17805 1.73688 48 77 56
0.25886 0.12811 1.73688 48 77 56
0.25886 0.17805 1.47452 48 77 56
0.25886 0.28747 1.47452 48 77 56
0.25886 0.28747 1.73688 48 77 56
0.25886 0.12811 1.47452 48 77 56
0.25886 0.02112 1.73688 48 77 56
0.25886 0.02112 1.47452 48 77 56
0.25886 0.12741 1.37442 48 77 56
0.25886 0.12708 1.32101 48 77 56
0.25886 0.18123 1.15879 48 77 56
0.25886 0.12443 1.10728 48 77 56
0.25886 0.1844 0.88751 48 77 56
0.25886 0.12407 1.05319 48 77 56
0.25886 0.12163 0.88751 48 77 56
0.21161 0.1844 0.84305 48 77 56
0.21513 0.12163 0.84305 48 77 56
0.11987 0.12163 0.84305 48 77 56
-0.21161 0.1844 0.84305 48 77 56
-0.11987 0.12163 0.84305 48 77 56
-0.21513 0.12163 0.84305 48 77 56
-0.25886 0.12163 0.88751 48 77 56
-0.12943 -0.15113 2.04429 140 191 99
-0.12943 0.26807 2.04429 140 191 99
0.12943 0.26807 2.04429 140 191 99
0.12943 -0.15113 2.04429 140 191 99
-0.12943 0.28556 2.0277 140 191 99
0.12943 0.28556 2.0277 140 191 99
0.21513 -0.07319 0.84305 219 214 210
0.25886 -0.07319 0.88751 219 214 210
0.25886 0.12163 0.88751 219 214 210
0.21513 0.12163 0.84305 219 214 210
0.25886 0.12407 1.05319 219 214 210
0.25886 -0.07319 1.05312 219 214 210
0.11987 0.12163 0.84305 219 214 210
0.11987 0.12163 0.70905 219 214 210
0.11987 -0.07319 0.70905 219 214 210
0.11987 -0.07319 0.84305 219 214 210
-0.11987 -0.07319 0.84305 219 214 210
-0.11987 -0.07319 0.70905 219 214 210
-0.11987 0.12163 0.84305 219 214 210
-0.21513 0.12163 0.84305 219 214 210
-0.21513 -0.07319 0.84305 219 214 210
-0.25886 -0.07319 0.88751 219 214 210
-0.25886 -0.07319 1.05312 219 214 210
-0.11987 0.12163 0.70905 219 214 210
-0.25886 0.12407 1.05319 219 214 210
-0.25886 0.12163 0.88751 219 214 210
-0.10195 -0.05635 0.68458 219 214 210
0.10195 -0.05635 0.68458 219 214 210
-0.10195 0.10479 0.68458 219 214 210
0.10195 0.10479 0.68458 219 214 210
0.22519 -0.07319 1.81847 227 221 216
0.12943 -0.07319 1.81847 227 221 216
0.12943 0.12811 1.81847 227 221 216
0.22519 0.12811 1.81847 227 221 216
0.25886 0.12811 1.78874 227 221 216
0.25886 -0.07319 1.78874 227 221 216
0.22519 0.12811 1.81847 48 77 56
0.12943 0.12811 1.81847 48 77 56
0.12943 0.17792 1.81847 48 77 56
0.22519 0.17792 1.81847 48 77 56
0.12943 0.26807 2.04429 133 183 94
0.12943 0.12811 1.81847 133 183 94
0.12943 -0.07319 1.81847 133 183 94
0.12943 -0.15113 1.81847 133 183 94
0.12943 -0.15113 2.04429 133 183 94
0.12943 0.17792 1.81847 133 183 94
0.12943 0.28556 2.0277 133 183 94
-0.12943 -0.07319 1.81847 133 183 94
-0.12943 -0.15113 1.81847 133 183 94
-0.12943 -0.15113 2.04429 133 183 94
-0.12943 0.12811 1.81847 133 183 94
-0.12943 0.26807 2.04429 133 183 94
-0.02906 -0.07319 1.75487 133 183 94
0.02906 -0.07319 1.75487 133 183 94
0.12958 -0.07319 1.75487 133 183 94
-0.12958 -0.07319 1.75487 133 183 94
0.12943 0.28556 1.81847 133 183 94
-0.12943 0.28556 1.81847 133 183 94
-0.12943 0.28556 2.0277 133 183 94
-0.12943 0.17792 1.81847 133 183 94
0.25886 -0.07319 1.37452 189 185 181
0.25886 -0.07319 1.32105 189 185 181
0.02906 -0.07319 1.32105 189 185 181
0.02906 -0.07319 1.37452 189 185 181
0.25886 0.12741 1.37442 189 185 181
0.25886 0.12708 1.32101 189 185 181
-0.02906 -0.07319 1.32105 189 185 181
-0.02906 -0.07319 1.37452 189 185 181
-0.25886 -0.07319 1.37452 189 185 181
-0.25886 -0.07319 1.32105 189 185 181
-0.25886 0.12741 1.37442 189 185 181
-0.25886 0.12708 1.32101 189 185 181
-0.02906 -0.07319 1.10717 189 185 181
0.02906 -0.07319 1.10717 189 185 181
0.02906 -0.07319 1.75487 189 185 181
-0.02906 -0.07319 1.75487 189 185 181
-0.25886 -0.07319 1.05312 189 185 181
-0.25886 -0.07319 1.10717 189 185 181
-0.25886 0.12443 1.10728 189 185 181
-0.25886 0.12407 1.05319 189 185 181
0.25886 -0.07319 1.05312 189 185 181
0.25886 -0.07319 1.10717 189 185 181
0.25886 0.12443 1.10728 189 185 181
0.25886 0.12407 1.05319 189 185 181
0.25886 -0.07319 1.32105 219 214 210
0.25886 -0.07319 1.10717 219 214 210
0.02906 -0.07319 1.10717 219 214 210
0.02906 -0.07319 1.32105 219 214 210
0.25886 0.12708 1.32101 219 214 210
0.25886 0.12443 1.10728 219 214 210
-0.25886 -0.07319 1.78874 219 214 210
-0.25886 0.02112 1.73688 219 214 210
-0.25886 0.12811 1.73688 219 214 210
-0.25886 0.12811 1.78874 219 214 210
-0.25886 0.02112 1.47452 219 214 210
-0.25886 -0.07319 1.37452 219 214 210
-0.25886 0.12811 1.47452 219 214 210
-0.25886 0.12741 1.37442 219 214 210
-0.12958 -0.07319 1.75487 219 214 210
-0.12943 -0.07319 1.81847 219 214 210
-0.22519 -0.07319 1.81847 219 214 210
-0.02906 -0.07319 1.75487 219 214 210
-0.02906 -0.07319 1.37452 219 214 210
-0.25886 0.12811 1.78874 48 77 56
-0.25886 0.12811 1.73688 48 77 56
-0.25886 0.17805 1.73688 48 77 56
-0.25886 0.17792 1.78874 48 77 56
-0.25886 0.17805 1.47452 48 77 56
-0.25886 0.28747 1.47452 48 77 56
-0.25886 0.28747 1.73688 48 77 56
-0.25886 0.12811 1.47452 48 77 56
-0.25886 0.02112 1.73688 48 77 56
-0.25886 0.02112 1.47452 48 77 56
-0.25886 0.12741 1.37442 48 77 56
-0.22519 0.12811 1.81847 48 77 56
-0.22519 0.17792 1.81847 48 77 56
-0.25886 0.12708 1.32101 48 77 56
-0.25886 0.18123 1.15879 48 77 56
-0.25886 0.12443 1.10728 48 77 56
-0.25886 0.1844 0.88751 48 77 56
-0.25886 0.12407 1.05319 48 77 56
-0.12943 0.12811 1.81847 48 77 56
-0.12943 0.17792 1.81847 48 77 56
-0.25886 0.12811 1.78874 227 221 216
-0.22519 0.12811 1.81847 227 221 216
-0.22519 -0.07319 1.81847 227 221 216
-0.25886 -0.07319 1.78874 227 221 216
-0.12943 -0.07319 1.81847 227 221 216
-0.12943 0.12811 1.81847 227 221 216
-0.25886 -0.07319 1.32105 219 214 210
-0.02906 -0.07319 1.32105 219 214 210
-0.02906 -0.07319 1.10717 219 214 210
-0.25886 -0.07319 1.10717 219 214 210
-0.25886 0.12708 1.32101 219 214 210
-0.25886 0.12443 1.10728 219 214 210
-0.84277 -0.12231 2.7391 133 183 94
-1.24304 -0.12231 2.7391 133 183 94
-0.80656 -0.26933 2.70935 140 191 99
-0.80656 -0.12231 2.70935 140 191 99
0.63387 -0.32493 2.49394 133 183 94
0.07257 -0.32493 1.55505 133 183 94
-0.07257 -0.32493 1.55505 133 183 94
-0.63387 -0.32493 2.49394 133 183 94
-0.24868 -0.20255 0.65752 140 191 99
-0.52795 -0.20255 0.65752 140 191 99
-0.52795 0.08626 1.06998 140 191 99
-0.24868 0.08626 1.06998 140 191 99
-0.50812 0.12042 1.08418 140 191 99
-0.26851 0.12042 1.08418 140 191 99
-0.26851 0.12042 1.08418 133 183 94
-0.50812 0.12042 1.08418 133 183 94
-0.50812 0.28287 0.97043 133 183 94
-0.26851 0.28287 0.97043 133 183 94
-0.52795 0.08626 1.06998 133 183 94
-0.52795 0.28121 0.93347 133 183 94
-0.24868 0.28121 0.93347 133 183 94
-0.52795 -0.0076 0.52101 133 183 94
-0.24868 -0.0076 0.52101 133 183 94
-0.24868 0.23784 0.96379 133 183 94
-0.24868 0.23807 0.94038 133 183 94
-0.24868 0.13017 1.03924 133 183 94
-0.24868 0.08626 1.06998 133 183 94
-0.24868 0.10437 0.74995 133 183 94
-0.24868 0.07472 0.74567 133 183 94
-0.24868 -0.01943 0.81089 133 183 94
-0.24868 -0.20255 0.65752 133 183 94
-0.30362 -0.09325 0.58093 133 183 94
-0.32781 -0.0526 0.55252 133 183 94
-0.30362 -0.15755 0.62601 133 183 94
-0.52795 -0.20255 0.65752 133 183 94
-0.47302 -0.15755 0.62601 133 183 94
-0.47302 -0.09325 0.58093 133 183 94
-0.47302 -0.18941 0.57683 133 183 94
-0.24868 -0.02571 0.84104 133 183 94
-0.44882 -0.0526 0.55252 133 183 94
-0.47302 -0.19267 0.54309 133 183 94
-0.47302 -0.15805 0.48448 133 183 94
-0.47302 0.07546 0.0986 133 183 94
-0.47302 0.20409 0.0986 133 183 94
-0.47302 0.07534 5.73055E-08 133 183 94
-0.47302 0.20401 1.71917E-07 133 183 94
-0.51193 0.0333 0.09875 133 183 94
-0.51193 0.03317 0.00015 133 183 94
-0.44882 0.23248 1.71917E-07 133 183 94
-0.30362 0.20401 1.71917E-07 133 183 94
-0.32781 0.23248 1.71917E-07 133 183 94
-0.32781 0.23257 0.0986 133 183 94
-0.44882 0.23257 0.0986 133 183 94
-0.30362 0.20409 0.0986 133 183 94
-0.30362 0.07534 5.73055E-08 133 183 94
-0.51254 -0.09324 0.0989 133 183 94
-0.51254 -0.09337 0.0003 133 183 94
-0.47302 -0.18941 0.57683 140 191 99
-0.30362 -0.18941 0.57683 140 191 99
-0.30362 -0.19267 0.54309 140 191 99
-0.47302 -0.19267 0.54309 140 191 99
-0.47302 -0.15755 0.62601 140 191 99
-0.30362 -0.15755 0.62601 140 191 99
-0.30362 -0.15805 0.48448 133 183 94
-0.30362 0.07546 0.0986 133 183 94
-0.30362 -0.19267 0.54309 133 183 94
-0.30362 -0.18941 0.57683 133 183 94
-0.24868 0.23807 0.94038 48 77 56
-0.24868 0.10798 1.03147 48 77 56
-0.24868 0.13017 1.03924 48 77 56
-0.24868 0.23784 0.96379 48 77 56
-0.24868 -0.02571 0.84104 48 77 56
-0.24868 0.10437 0.74995 48 77 56
-0.24868 0.07472 0.74567 48 77 56
-0.24868 -0.01943 0.81089 48 77 56
-0.51254 -0.20204 0.09908 220 214 209
-0.43075 -0.20204 0.09908 220 214 209
-0.43075 -0.20216 0.00048 220 214 209
-0.51254 -0.20216 0.00048 220 214 209
-0.43075 -0.09324 0.0989 220 214 209
-0.43075 -0.09337 0.0003 220 214 209
-0.51254 -0.09337 0.0003 220 214 209
-0.51254 -0.09324 0.0989 220 214 209
-0.34516 -0.09324 0.0989 140 191 99
-0.30362 0.07546 0.0986 140 191 99
-0.2647 0.0333 0.09875 140 191 99
-0.47302 0.07546 0.0986 140 191 99
-0.43075 -0.09324 0.0989 140 191 99
-0.26409 -0.09324 0.0989 140 191 99
-0.51193 0.0333 0.09875 140 191 99
-0.51254 -0.09324 0.0989 140 191 99
-0.2647 0.0333 0.09875 133 183 94
-0.2647 0.03317 0.00015 133 183 94
-0.26409 -0.09337 0.0003 133 183 94
-0.26409 -0.09324 0.0989 133 183 94
-0.43075 -0.09337 0.0003 133 183 94
-0.34516 -0.09337 0.0003 133 183 94
-0.34516 -0.09324 0.0989 133 183 94
-0.43075 -0.09324 0.0989 133 183 94
-0.34516 -0.20216 0.00048 220 214 209
-0.34516 -0.20204 0.09908 220 214 209
-0.26409 -0.20204 0.09908 220 214 209
-0.26409 -0.20216 0.00048 220 214 209
-0.26409 -0.09337 0.0003 220 214 209
-0.34516 -0.09337 0.0003 220 214 209
-0.51254 -0.09324 0.0989 227 221 216
-0.43075 -0.09324 0.0989 227 221 216
-0.43075 -0.20204 0.09908 227 221 216
-0.51254 -0.20204 0.09908 227 221 216
-0.34516 -0.09324 0.0989 220 214 209
-0.34516 -0.09324 0.0989 227 221 216
-0.26409 -0.09324 0.0989 227 221 216
-0.26409 -0.20204 0.09908 227 221 216
-0.34516 -0.20204 0.09908 227 221 216
-0.26409 -0.09324 0.0989 220 214 209
-0.24868 0.10798 1.03147 133 183 94
-0.25886 0.17805 1.47452 133 183 94
3 0 2 1
3 0 3 2
3 4 3 0
3 4 5 3
3 5 2 3
3 5 6 2
3 7 5 4
3 7 8 5
3 8 6 5
3 8 9 6
3 9 10 6
3 6 10 1
3 6 1 2
3 9 11 10
3 11 9 12
3 11 12 13
3 14 11 13
3 14 13 15
3 12 16 13
3 12 17 16
3 17 18 16
3 17 19 18
3 20 17 12
3 20 21 17
3 22 21 20
3 22 23 21
3 23 24 21
3 23 25 24
3 25 19 24
3 21 24 19
3 25 18 19
3 21 19 17
3 20 26 22
3 22 26 27
3 22 27 28
3 20 29 26
3 30 29 20
3 29 30 31
3 30 32 31
3 30 33 32
3 33 34 32
3 33 35 34
3 36 34 35
3 36 37 34
3 32 34 37
3 32 37 38
3 31 32 38
3 31 38 39
3 39 38 40
3 38 36 40
3 38 37 36
3 39 40 41
3 42 39 41
3 42 43 39
3 43 42 44
3 43 44 45
3 45 44 46
3 45 46 47
3 12 42 41
3 30 12 41
3 30 20 12
3 12 9 42
3 39 43 48
3 39 48 49
3 48 50 49
3 48 51 50
3 51 48 52
3 51 52 53
3 53 52 54
3 53 54 55
3 51 56 50
3 51 57 56
3 50 58 49
3 50 59 58
3 60 59 50
3 60 61 59
3 62 61 60
3 62 63 61
3 63 64 61
3 63 65 64
3 66 64 65
3 66 67 64
3 61 64 67
3 61 67 59
3 59 66 58
3 59 67 66
3 60 68 62
3 60 69 68
3 69 60 70
3 69 70 71
3 70 72 71
3 73 71 72
3 73 74 71
3 75 74 73
3 76 74 75
3 76 75 77
3 51 77 75
3 51 75 57
3 77 51 53
3 77 53 78
3 79 77 78
3 79 78 80
3 80 78 81
3 80 81 82
3 54 82 81
3 54 81 55
3 78 55 81
3 78 53 55
3 57 75 70
3 57 70 56
3 50 56 70
3 77 83 76
3 77 79 83
3 83 79 84
3 79 43 84
3 79 48 43
3 84 43 45
3 84 45 85
3 86 84 85
3 86 85 87
3 87 85 88
3 87 88 89
3 46 89 88
3 46 88 47
3 85 47 88
3 85 45 47
3 83 84 90
3 90 84 86
3 83 90 91
3 8 90 86
3 86 9 8
3 86 42 9
3 8 92 90
3 7 92 8
3 7 93 92
3 7 94 93
3 95 97 96
3 95 98 97
3 95 99 98
3 95 100 99
3 101 99 100
3 101 100 102
3 99 103 98
3 99 104 103
3 101 105 99
3 101 106 105
3 99 105 107
3 99 107 104
3 108 101 102
3 108 109 101
3 109 110 101
3 109 111 110
3 101 110 112
3 101 112 106
3 108 113 109
3 108 114 113
3 115 117 116
3 115 118 117
3 116 117 119
3 116 119 120
3 121 123 122
3 121 124 123
3 122 123 125
3 122 125 126
3 96 128 127
3 96 97 128
3 129 131 130
3 129 132 131
3 132 133 131
3 132 134 133
3 135 137 136
3 135 138 137
3 62 39 49
3 62 31 39
3 50 70 60
3 70 139 72
3 72 139 140
3 72 140 141
3 142 141 140
3 142 140 143
3 73 141 142
3 73 72 141
3 144 73 142
3 144 142 143
3 139 144 143
3 144 139 70
3 144 70 75
3 139 143 140
3 75 73 144
3 114 145 113
3 114 146 145
3 138 147 137
3 138 148 147
3 149 151 150
3 149 152 151
3 150 151 153
3 150 153 154
3 155 157 156
3 155 158 157
3 159 157 158
3 159 160 157
3 160 156 157
3 160 161 156
3 161 160 162
3 161 162 163
3 161 164 156
3 161 165 164
3 156 166 155
3 156 164 166
3 155 166 167
3 168 161 163
3 168 165 161
3 163 169 168
3 163 170 169
3 163 171 170
3 171 163 172
3 163 173 172
3 171 172 174
3 175 171 174
3 175 174 176
3 162 175 176
3 175 162 160
3 175 160 159
3 162 176 177
3 177 176 178
3 170 171 179
3 171 167 179
3 163 180 173
3 163 162 180
3 180 162 177
3 177 178 181
3 177 181 182
3 177 182 183
3 177 183 184
3 184 183 185
3 184 185 186
3 185 183 187
3 185 187 188
3 189 184 186
3 190 189 186
3 190 186 185
3 190 191 189
3 189 191 192
3 189 192 193
3 189 193 184
3 193 177 184
3 193 180 177
3 180 193 192
3 194 191 190
3 194 192 191
3 180 192 173
3 172 192 194
3 172 173 192
3 190 185 195
3 188 187 196
3 188 196 197
3 198 200 199
3 198 201 200
3 202 201 198
3 202 203 201
3 204 194 205
3 204 172 194
3 182 204 205
3 182 205 183
3 206 172 204
3 205 194 190
3 205 190 195
3 181 204 182
3 181 206 204
3 207 172 206
3 174 172 207
3 208 210 209
3 208 211 210
3 212 211 208
3 212 208 213
3 212 213 214
3 212 214 215
3 216 218 217
3 216 219 218
3 220 218 219
3 220 221 218
3 221 217 218
3 221 222 217
3 222 216 217
3 222 223 216
3 224 226 225
3 227 226 224
3 227 224 228
3 224 225 229
3 227 228 230
3 230 228 231
3 232 234 233
3 232 235 234
3 205 235 232
3 205 195 235
3 236 188 197
3 236 185 188
3 195 185 236
3 195 236 237
3 236 238 237
3 236 239 238
3 195 237 235
3 235 237 234
3 240 242 241
3 240 243 242
3 244 240 241
3 244 245 240
3 246 248 247
3 246 249 248
3 245 243 240
3 245 250 243
3 251 253 252
3 251 254 253
3 255 241 242
3 255 244 241
3 179 167 256
3 256 167 166
3 257 259 258
3 257 260 259
3 261 257 258
3 261 258 262
3 258 263 262
3 258 259 263
3 264 266 265
3 264 267 266
3 268 270 269
3 268 271 270
3 270 272 269
3 270 273 272
3 270 271 274
3 270 274 275
3 276 270 275
3 276 273 270
3 271 277 274
3 271 278 277
3 279 273 276
3 280 282 281
3 280 283 282
3 284 286 285
3 284 287 286
3 288 287 284
3 288 289 287
3 287 290 286
3 287 289 290
3 291 293 292
3 291 294 293
3 295 297 296
3 295 298 297
3 297 298 299
3 297 299 300
3 297 301 296
3 297 302 301
3 300 302 297
3 296 301 303
3 296 303 304
3 300 305 302
3 306 305 300
3 307 309 308
3 307 310 309
3 311 313 312
3 311 314 313
3 313 314 315
3 313 315 316
3 317 313 316
3 317 316 318
3 319 321 320
3 320 321 322
3 322 321 323
3 323 321 324
3 325 327 326
3 325 328 327
3 327 328 329
3 327 329 330
3 314 327 330
3 314 330 331
3 331 330 329
3 331 329 317
3 314 331 332
3 314 332 315
3 331 318 332
3 331 317 318
3 326 327 314
3 326 314 311
3 333 335 334
3 333 336 335
3 337 335 336
3 337 336 338
3 339 334 335
3 337 339 335
3 339 340 334
3 341 340 339
3 337 341 339
3 341 342 340
3 343 342 341
3 343 344 342
3 344 345 342
3 345 340 342
3 345 334 340
3 345 333 334
3 344 346 345
3 347 341 337
3 347 343 341
3 348 336 333
3 348 338 336
3 345 348 333
3 349 351 350
3 349 352 351
3 350 351 353
3 350 353 354
3 355 357 356
3 355 358 357
3 357 359 356
3 357 360 359
3 361 360 357
3 361 362 360
3 363 365 364
3 365 366 364
3 366 367 364
3 367 368 364
3 369 371 370
3 369 372 371
3 371 373 370
3 371 374 373
3 356 374 371
3 356 375 374
3 375 373 374
3 375 361 373
3 356 376 375
3 356 359 376
3 375 362 361
3 375 376 362
3 372 356 371
3 372 355 356
3 377 379 378
3 377 380 379
3 381 378 379
3 382 378 381
3 382 377 378
3 382 381 383
3 381 379 384
3 383 381 384
3 383 384 385
3 386 383 385
3 386 385 387
3 387 385 388
3 388 379 380
3 388 384 379
3 388 385 384
3 387 388 389
3 388 380 390
3 391 383 386
3 391 382 383
3 392 380 377
3 392 390 380
3 382 392 377
3 393 395 394
3 393 396 395
3 396 397 395
3 396 398 397
3 399 401 400
3 399 402 401
3 402 399 403
3 399 400 403
3 402 403 404
3 404 401 402
3 404 405 401
3 405 406 401
3 405 407 406
3 403 400 408
3 403 408 409
3 409 408 410
3 410 408 411
3 410 411 412
3 413 410 412
3 413 409 410
3 412 414 413
3 412 411 414
3 415 414 411
3 415 411 416
3 417 419 418
3 417 420 419
3 421 420 417
3 421 422 420
3 417 423 421
3 417 424 423
3 417 425 424
3 423 426 421
3 417 427 425
3 428 419 420
3 429 428 420
3 420 422 429
3 429 430 428
3 428 431 419
3 432 419 431
3 432 431 433
3 434 418 419
3 418 434 435
3 418 435 436
3 418 436 437
3 435 434 438
3 439 418 437
3 417 439 427
3 417 418 439
3 428 430 440
3 428 440 441
3 431 428 441
3 441 440 442
3 441 442 443
3 433 443 442
3 433 431 443
3 431 441 443
3 435 438 444
3 435 444 445
3 434 419 446
3 446 419 432
3 447 449 448
3 447 450 449
3 451 449 450
3 451 452 449
3 421 454 453
3 421 426 454
3 453 454 424
3 425 453 424
3 425 427 453
3 424 454 455
3 424 455 456
3 457 459 458
3 457 460 459
3 457 458 461
3 457 461 462
3 459 460 463
3 459 463 464
3 465 464 463
3 465 463 466
3 459 464 467
3 463 460 468
3 469 471 470
3 469 472 471
3 473 470 471
3 473 474 470
3 475 472 469
3 475 476 472
3 434 477 438
3 434 478 477
3 478 436 477
3 437 436 478
3 437 478 439
3 477 436 479
3 477 479 480
3 481 483 482
3 481 484 483
3 481 485 484
3 486 485 481
3 486 487 485
3 487 486 488
3 481 489 486
3 486 489 490
3 486 490 491
3 492 489 481
3 492 481 493
3 494 496 495
3 494 497 496
3 498 496 497
3 499 496 498
3 499 500 496
3 498 497 501
3 502 501 497
3 502 503 501
3 504 498 501
3 505 498 504
3 505 506 498
3 507 506 505
3 508 506 507
3 508 507 509
3 508 509 510
3 510 511 508
3 512 511 510
3 513 511 512
3 513 514 511
3 513 515 514
3 515 516 514
3 514 516 517
3 518 520 519
3 518 521 520
3 520 522 519
3 520 523 522
3 524 526 525
3 524 527 526
3 525 526 528
3 525 528 529
3 530 532 531
3 530 533 532
3 532 533 534
3 532 534 535
3 536 535 534
3 534 537 536
3 534 538 537
3 534 539 538
3 537 538 539
3 534 540 539
3 536 541 535
3 539 540 542
3 539 542 543
3 537 539 543
3 529 534 533
3 529 540 534
3 529 533 524
3 529 524 525
3 532 535 544
3 532 544 545
3 545 544 546
3 535 546 544
3 535 541 546
3 545 546 547
3 531 545 547
3 541 531 547
3 531 541 536
3 531 536 530
3 541 547 546
3 531 532 545
3 533 527 524
3 533 530 527
3 548 550 549
3 548 551 550
3 552 551 548
3 552 548 553
3 554 556 555
3 554 557 556
3 495 557 554
3 495 554 494
3 558 560 559
3 560 558 561
3 561 558 562
3 558 559 563
3 558 563 564
3 561 565 560
3 561 566 565
3 567 565 566
3 565 567 568
3 568 567 569
3 560 565 570
3 560 570 571
3 560 571 572
3 565 573 570
3 564 563 574
3 564 574 575
3 564 575 576
3 576 575 577
3 569 576 577
3 569 577 568
3 578 580 579
3 578 581 580
3 579 582 578
3 579 583 582
3 581 584 580
3 581 585 584
3 586 584 585
3 586 587 584
3 587 586 588
3 587 588 589
3 580 584 590
3 580 590 591
3 592 585 581
3 592 593 585
3 591 590 594
3 595 594 590
3 594 595 596
3 594 596 597
3 591 594 598
3 599 591 598
3 598 600 599
3 598 601 600
3 602 604 603
3 602 605 604
3 603 606 602
3 603 607 606
3 608 610 609
3 608 611 610
3 612 608 609
3 608 612 613
3 614 613 612
3 613 614 615
3 616 608 613
3 617 608 616
3 617 618 608
3 613 619 616
3 613 620 619
3 621 623 622
3 621 624 623
3 625 622 623
3 626 625 623
3 626 623 627
3 625 628 622
3 629 622 628
3 629 628 630
3 631 628 625
3 624 621 632
3 624 632 633
3 634 631 625
3 634 625 635
3 636 634 635
3 637 636 635
3 637 638 636
3 637 517 638
3 514 517 637
3 633 632 639
3 633 639 640
3 641 643 642
3 641 644 643
3 642 643 645
3 642 645 646
3 647 649 648
3 647 650 649
3 650 647 651
3 650 651 652
3 426 654 653
3 426 423 654
3 655 447 448
3 655 656 447
3 657 659 658
3 657 660 659
3 661 663 662
3 661 664 663
3 664 665 663
3 664 666 665
3 667 669 668
3 667 670 669
3 671 668 669
3 671 669 672
3 672 669 670
3 672 670 673
3 673 674 672
3 673 675 674
3 673 670 676
3 673 676 677
3 670 678 676
3 670 667 678
3 667 679 678
3 680 675 673
3 680 673 677
3 675 680 681
3 675 681 682
3 675 682 683
3 683 684 675
3 675 684 685
3 683 686 684
3 687 686 683
3 687 688 686
3 674 688 687
3 687 672 674
3 687 671 672
3 674 689 688
3 689 690 688
3 682 691 683
3 683 691 679
3 675 692 674
3 675 685 692
3 692 689 674
3 689 693 690
3 689 694 693
3 689 695 694
3 689 696 695
3 696 697 695
3 696 698 697
3 697 699 695
3 697 700 699
3 701 698 696
3 702 698 701
3 702 697 698
3 702 701 703
3 701 704 703
3 701 705 704
3 701 696 705
3 705 696 689
3 705 689 692
3 692 704 705
3 706 703 704
3 706 702 703
3 692 685 704
3 684 704 685
3 684 706 704
3 702 707 697
3 700 708 699
3 700 709 708
3 710 712 711
3 710 713 712
3 714 710 711
3 714 711 715
3 716 706 684
3 716 717 706
3 694 717 716
3 694 695 717
3 718 716 684
3 717 702 706
3 717 707 702
3 693 716 718
3 693 694 716
3 719 718 684
3 686 719 684
3 720 722 721
3 720 723 722
3 724 720 721
3 724 725 720
3 724 726 725
3 724 727 726
3 728 730 729
3 728 731 730
3 732 729 730
3 732 730 733
3 733 730 731
3 733 731 734
3 734 731 728
3 734 728 735
3 736 738 737
3 739 736 737
3 739 740 736
3 736 741 738
3 739 742 740
3 742 743 740
3 744 746 745
3 744 747 746
3 717 744 745
3 717 745 707
3 748 709 700
3 748 700 697
3 707 748 697
3 707 749 748
3 748 749 750
3 748 750 751
3 707 745 749
3 745 746 749
3 752 754 753
3 752 755 754
3 756 755 752
3 756 752 757
3 758 760 759
3 758 761 760
3 757 753 762
3 757 752 753
3 763 765 764
3 763 766 765
3 767 755 756
3 767 754 755
3 691 768 679
3 768 678 679
3 29 68 769
3 31 68 29
3 62 68 31
