ply
format ascii 1.0
element vertex 762
property float x
property float y
property float z
property uchar red
property uchar green
property uchar blue
element face 848
property list uchar int vertex_index
end_header
0.77609 0.36566 1.76549 183 139 84
0.77609 0.46695 1.76549 183 139 84
0.77609 0.46695 1.56948 183 139 84
0.77609 0.36566 1.56948 183 139 84
0.74939 0.34874 1.78816 183 139 84
0.74939 0.34874 1.54878 183 139 84
0.74939 0.48387 1.54878 183 139 84
0.25886 0.34874 1.78874 183 139 84
0.25886 0.34874 1.54878 183 139 84
0.25886 0.48387 1.54878 183 139 84
0.74939 0.48387 1.78816 183 139 84
0.25886 0.48387 1.78874 183 139 84
-0.25886 0.48387 1.54878 183 139 84
-0.25886 0.48387 1.78874 183 139 84
0.22527 0.48387 1.81847 183 139 84
-0.22527 0.48387 1.81847 183 139 84
-0.74939 0.48387 1.78816 183 139 84
-0.74939 0.48387 1.54878 183 139 84
-0.77609 0.46695 1.76549 183 139 84
-0.77609 0.46695 1.56948 183 139 84
-0.25886 0.34874 1.54878 183 139 84
-0.74939 0.34874 1.54878 183 139 84
-0.25886 0.34874 1.78874 183 139 84
-0.74939 0.34874 1.78816 183 139 84
-0.77609 0.36566 1.56948 183 139 84
-0.77609 0.36566 1.76549 183 139 84
-0.25886 0.28747 1.73688 183 139 84
-0.25886 0.17805 1.73688 183 139 84
-0.25886 0.17792 1.78874 183 139 84
-0.25886 0.28747 1.47452 183 139 84
-0.25886 0.34874 1.47831 183 139 84
-0.25886 0.34874 1.22285 183 139 84
-0.66832 0.34874 1.22285 183 139 84
-0.66832 0.34874 1.47831 183 139 84
-0.69502 0.36566 1.2423 183 139 84
-0.69502 0.36566 1.45245 183 139 84
-0.69502 0.46695 1.45245 183 139 84
-0.69502 0.46695 1.2423 183 139 84
-0.66832 0.48387 1.22285 183 139 84
-0.25886 0.48387 1.22285 183 139 84
-0.66832 0.48387 1.47831 183 139 84
-0.25886 0.48387 1.47831 183 139 84
0.25886 0.48387 1.47831 183 139 84
0.25886 0.48387 1.22285 183 139 84
0.66832 0.48387 1.47831 183 139 84
0.66832 0.48387 1.22285 183 139 84
0.69502 0.46695 1.45245 183 139 84
0.69502 0.46695 1.2423 183 139 84
0.25886 0.48387 1.14517 183 139 84
-0.25886 0.48387 1.14517 183 139 84
-0.25886 0.48387 0.88751 183 139 84
0.25886 0.48387 0.88751 183 139 84
0.74939 0.48387 1.14464 183 139 84
0.74939 0.48387 0.8873 183 139 84
0.77609 0.46695 1.12315 183 139 84
0.77609 0.46695 0.9088 183 139 84
-0.21166 0.48387 0.84305 183 139 84
0.21166 0.48387 0.84305 183 139 84
-0.74939 0.48387 1.14464 183 139 84
-0.74939 0.48387 0.8873 183 139 84
-0.25886 0.34874 0.88751 183 139 84
-0.74939 0.34874 0.8873 183 139 84
-0.25886 0.34874 1.14517 183 139 84
-0.74939 0.34874 1.14464 183 139 84
-0.77609 0.36566 0.9088 183 139 84
-0.77609 0.36566 1.12315 183 139 84
-0.77609 0.46695 1.12315 183 139 84
-0.77609 0.46695 0.9088 183 139 84
-0.25886 0.18123 1.15879 183 139 84
-0.25886 0.1844 0.88751 183 139 84
-0.21161 0.34874 0.84305 183 139 84
-0.21161 0.1844 0.84305 183 139 84
-0.15755 0.1844 0.11072 183 139 84
0.15755 0.1844 0.11072 183 139 84
0.21161 0.1844 0.84305 183 139 84
0.21161 0.34874 0.84305 183 139 84
0.25886 0.1844 0.88751 183 139 84
0.25886 0.34874 0.88751 183 139 84
0.74939 0.34874 0.8873 183 139 84
0.25886 0.34874 1.14517 183 139 84
0.74939 0.34874 1.14464 183 139 84
0.77609 0.36566 0.9088 183 139 84
0.77609 0.36566 1.12315 183 139 84
0.25886 0.18123 1.15879 183 139 84
0.25886 0.34874 1.22285 183 139 84
0.66832 0.34874 1.22285 183 139 84
0.25886 0.34874 1.47831 183 139 84
0.66832 0.34874 1.47831 183 139 84
0.69502 0.36566 1.2423 183 139 84
0.69502 0.36566 1.45245 183 139 84
0.25886 0.28747 1.47452 183 139 84
0.25886 0.17805 1.47452 183 139 84
0.25886 0.28747 1.73688 183 139 84
0.25886 0.17805 1.73688 183 139 84
0.25886 0.17792 1.78874 183 139 84
0.25886 0.48387 1.78874 191 145 88
0.74939 0.48387 1.78816 191 145 88
0.74939 0.34874 1.78816 191 145 88
0.25886 0.34874 1.78874 191 145 88
0.22531 0.34874 1.81847 191 145 88
0.22527 0.48387 1.81847 191 145 88
-0.2252 0.34874 1.81847 191 145 88
-0.22527 0.48387 1.81847 191 145 88
0.25886 0.17792 1.78874 191 145 88
0.22519 0.17792 1.81847 191 145 88
0.12943 0.28556 1.81847 191 145 88
-0.12943 0.28556 1.81847 191 145 88
0.12943 0.17792 1.81847 191 145 88
-0.25886 0.48387 1.78874 191 145 88
-0.25886 0.34874 1.78874 191 145 88
-0.22519 0.17792 1.81847 191 145 88
-0.25886 0.17792 1.78874 191 145 88
-0.12943 0.17792 1.81847 191 145 88
-0.74939 0.34874 1.78816 191 145 88
-0.74939 0.48387 1.78816 191 145 88
0.25886 0.48387 1.14517 191 145 88
0.74939 0.48387 1.14464 191 145 88
0.74939 0.34874 1.14464 191 145 88
0.25886 0.34874 1.14517 191 145 88
0.77609 0.36566 1.12315 191 145 88
0.77609 0.46695 1.12315 191 145 88
0.25886 0.48387 1.47831 191 145 88
0.66832 0.48387 1.47831 191 145 88
0.66832 0.34874 1.47831 191 145 88
0.25886 0.34874 1.47831 191 145 88
0.69502 0.36566 1.45245 191 145 88
0.69502 0.46695 1.45245 191 145 88
0.77609 0.46695 1.76549 191 145 88
0.77609 0.36566 1.76549 191 145 88
-0.25886 0.48387 1.14517 191 145 88
-0.25886 0.34874 1.14517 191 145 88
-0.74939 0.34874 1.14464 191 145 88
-0.74939 0.48387 1.14464 191 145 88
-0.77609 0.36566 1.12315 191 145 88
-0.77609 0.46695 1.12315 191 145 88
-0.25886 0.48387 1.47831 191 145 88
-0.25886 0.34874 1.47831 191 145 88
-0.66832 0.34874 1.47831 191 145 88
-0.66832 0.48387 1.47831 191 145 88
-0.15755 0.34874 0.11072 183 139 84
-0.13627 0.3382 0.08525 183 139 84
-0.13627 0.19494 0.08525 183 139 84
0.13627 0.19494 0.08525 183 139 84
0.13627 0.3382 0.08525 183 139 84
0.15755 0.34874 0.11072 183 139 84
-0.77609 0.36566 1.76549 191 145 88
-0.77609 0.46695 1.76549 191 145 88
-0.69502 0.36566 1.45245 191 145 88
-0.69502 0.46695 1.45245 191 145 88
0.24868 -0.20255 0.65752 191 145 88
0.24868 0.08626 1.06998 191 145 88
0.52795 0.08626 1.06998 191 145 88
0.52795 -0.20255 0.65752 191 145 88
0.50812 0.12042 1.08418 191 145 88
0.26851 0.12042 1.08418 191 145 88
0.26851 0.12042 1.08418 183 139 84
0.26851 0.28287 0.97043 183 139 84
0.50812 0.28287 0.97043 183 139 84
0.50812 0.12042 1.08418 183 139 84
0.52795 0.08626 1.06998 183 139 84
0.52795 0.28121 0.93347 183 139 84
0.24868 0.28121 0.93347 183 139 84
0.52795 -0.0076 0.52101 183 139 84
0.24868 -0.0076 0.52101 183 139 84
0.24868 0.23784 0.96379 183 139 84
0.24868 0.23807 0.94038 183 139 84
0.24868 0.13017 1.03924 183 139 84
0.24868 0.08626 1.06998 183 139 84
0.24868 0.10437 0.74995 183 139 84
0.24868 0.07472 0.74567 183 139 84
0.24868 -0.01943 0.81089 183 139 84
0.24868 -0.20255 0.65752 183 139 84
0.30362 -0.09325 0.58093 183 139 84
0.32781 -0.0526 0.55252 183 139 84
0.30362 -0.15755 0.62601 183 139 84
0.52795 -0.20255 0.65752 183 139 84
0.47302 -0.15755 0.62601 183 139 84
0.47302 -0.09325 0.58093 183 139 84
0.47302 -0.18941 0.57683 183 139 84
0.24868 -0.02571 0.84104 183 139 84
0.44882 -0.0526 0.55252 183 139 84
0.47302 -0.19267 0.54309 183 139 84
0.47302 -0.15805 0.48448 183 139 84
0.47302 0.07546 0.0986 183 139 84
0.47302 0.20409 0.0986 183 139 84
0.47302 0.07534 5.73055E-08 183 139 84
0.47302 0.20401 1.71917E-07 183 139 84
0.51193 0.0333 0.09875 183 139 84
0.51193 0.03317 0.00015 183 139 84
0.44882 0.23248 1.71917E-07 183 139 84
0.30362 0.20401 1.71917E-07 183 139 84
0.32781 0.23248 1.71917E-07 183 139 84
0.32781 0.23257 0.0986 183 139 84
0.44882 0.23257 0.0986 183 139 84
0.30362 0.20409 0.0986 183 139 84
0.30362 0.07534 5.73055E-08 183 139 84
0.51254 -0.09324 0.0989 183 139 84
0.51254 -0.09337 0.0003 183 139 84
0.47302 -0.18941 0.57683 191 145 88
0.47302 -0.19267 0.54309 191 145 88
0.30362 -0.19267 0.54309 191 145 88
0.30362 -0.18941 0.57683 191 145 88
0.47302 -0.15755 0.62601 191 145 88
0.30362 -0.15755 0.62601 191 145 88
0.30362 -0.15805 0.48448 183 139 84
0.30362 0.07546 0.0986 183 139 84
0.30362 -0.19267 0.54309 183 139 84
0.30362 -0.18941 0.57683 183 139 84
0.24868 0.23807 0.94038 77 48 48
0.24868 0.23784 0.96379 77 48 48
0.24868 0.13017 1.03924 77 48 48
0.24868 0.10798 1.03147 77 48 48
0.24868 -0.02571 0.84104 77 48 48
0.24868 0.10437 0.74995 77 48 48
0.24868 0.07472 0.74567 77 48 48
0.24868 -0.01943 0.81089 77 48 48
0.51254 -0.20204 0.09908 220 214 209
0.51254 -0.20216 0.00048 220 214 209
0.43075 -0.20216 0.00048 220 214 209
0.43075 -0.20204 0.09908 220 214 209
0.43075 -0.09324 0.0989 220 214 209
0.43075 -0.09337 0.0003 220 214 209
0.51254 -0.09337 0.0003 220 214 209
0.51254 -0.09324 0.0989 220 214 209
0.34516 -0.09324 0.0989 191 145 88
0.2647 0.0333 0.09875 191 145 88
0.30362 0.07546 0.0986 191 145 88
0.47302 0.07546 0.0986 191 145 88
0.43075 -0.09324 0.0989 191 145 88
0.26409 -0.09324 0.0989 191 145 88
0.51193 0.0333 0.09875 191 145 88
0.51254 -0.09324 0.0989 191 145 88
0.2647 0.0333 0.09875 183 139 84
0.26409 -0.09324 0.0989 183 139 84
0.26409 -0.09337 0.0003 183 139 84
0.2647 0.03317 0.00015 183 139 84
0.43075 -0.09337 0.0003 183 139 84
0.34516 -0.09337 0.0003 183 139 84
0.34516 -0.09324 0.0989 183 139 84
0.43075 -0.09324 0.0989 183 139 84
0.34516 -0.20216 0.00048 220 214 209
0.26409 -0.20216 0.00048 220 214 209
0.26409 -0.20204 0.09908 220 214 209
0.34516 -0.20204 0.09908 220 214 209
0.26409 -0.09337 0.0003 220 214 209
0.34516 -0.09337 0.0003 220 214 209
0.51254 -0.09324 0.0989 227 221 216
0.51254 -0.20204 0.09908 227 221 216
0.43075 -0.20204 0.09908 227 221 216
0.43075 -0.09324 0.0989 227 221 216
0.34516 -0.09324 0.0989 220 214 209
0.34516 -0.09324 0.0989 227 221 216
0.34516 -0.20204 0.09908 227 221 216
0.26409 -0.20204 0.09908 227 221 216
0.26409 -0.09324 0.0989 227 221 216
0.26409 -0.09324 0.0989 220 214 209
0.24868 0.10798 1.03147 183 139 84
-0.24826 -0.29989 1.78599 238 237 238
-0.27661 -0.29989 1.78599 238 237 238
-0.27661 -0.29989 1.84264 238 237 238
-0.24826 -0.29989 1.79347 238 237 238
-0.24826 -0.29185 1.78599 238 237 238
-0.27661 -0.29185 1.78599 238 237 238
-0.27661 -0.29185 1.84264 238 237 238
-0.29872 -0.29257 1.73883 78 63 66
-0.29869 -0.29257 1.76256 78 63 66
-0.2372 -0.29257 1.76256 78 63 66
-0.2372 -0.29257 1.73911 78 63 66
-0.18992 -0.26462 1.69763 238 237 238
-0.36076 -0.26462 1.69763 238 237 238
-0.36076 -0.29257 1.69763 238 237 238
-0.18992 -0.29257 1.69763 238 237 238
-0.36076 -0.26462 1.98806 238 237 238
-0.36076 -0.29257 1.98806 238 237 238
-0.2372 -0.29257 1.73911 238 237 238
-0.29872 -0.29257 1.73883 238 237 238
-0.29888 -0.29257 1.88313 238 237 238
-0.29869 -0.29257 1.76256 238 237 238
-0.2372 -0.29257 1.76256 238 237 238
-0.23721 -0.29257 1.77551 238 237 238
-0.2372 -0.29257 1.76256 51 41 43
-0.29869 -0.29257 1.76256 51 41 43
-0.29888 -0.29257 1.88313 51 41 43
-0.23721 -0.29257 1.77551 51 41 43
0.24826 -0.29989 1.78599 238 237 238
0.24826 -0.29989 1.79347 238 237 238
0.27661 -0.29989 1.84264 238 237 238
0.27661 -0.29989 1.78599 238 237 238
0.24826 -0.29185 1.78599 238 237 238
0.27661 -0.29185 1.78599 238 237 238
0.27661 -0.29185 1.84264 238 237 238
0.29872 -0.29257 1.73883 78 63 66
0.2372 -0.29257 1.73911 78 63 66
0.2372 -0.29257 1.76256 78 63 66
0.29869 -0.29257 1.76256 78 63 66
0.18992 -0.26462 1.69763 238 237 238
0.18992 -0.29257 1.69763 238 237 238
0.36076 -0.29257 1.69763 238 237 238
0.36076 -0.26462 1.69763 238 237 238
0.36076 -0.26462 1.98806 238 237 238
0.36076 -0.29257 1.98806 238 237 238
0.2372 -0.29257 1.73911 238 237 238
0.29872 -0.29257 1.73883 238 237 238
0.29888 -0.29257 1.88313 238 237 238
0.29869 -0.29257 1.76256 238 237 238
0.2372 -0.29257 1.76256 238 237 238
0.23721 -0.29257 1.77551 238 237 238
0.2372 -0.29257 1.76256 51 41 43
0.23721 -0.29257 1.77551 51 41 43
0.29888 -0.29257 1.88313 51 41 43
0.29869 -0.29257 1.76256 51 41 43
0.17922 0.06156 1.51506 183 139 84
0.17922 0.06156 1.70211 183 139 84
0.70872 0.06156 1.70211 183 139 84
0.70872 0.06156 1.51506 183 139 84
0.75232 0.06156 1.56027 183 139 84
0.75232 0.06156 1.6569 183 139 84
0.88911 0.06156 1.70211 183 139 84
0.84552 0.06156 1.6569 183 139 84
0.17922 0.06156 1.70211 191 145 88
0.17922 0.24861 1.70211 191 145 88
0.70872 0.06156 1.70211 191 145 88
0.86379 0.24861 1.70211 191 145 88
0.88911 0.22019 1.70211 191 145 88
0.88911 0.06156 1.70211 191 145 88
0.17922 0.24861 1.70211 183 139 84
0.17922 0.24861 1.51506 183 139 84
0.86379 0.24861 1.51506 183 139 84
0.86379 0.24861 1.70211 183 139 84
0.88911 0.22019 1.70211 183 139 84
0.88911 0.22019 1.51506 183 139 84
0.88911 0.06156 1.51506 183 139 84
0.84552 0.06156 1.56027 183 139 84
0.84552 -0.60856 0.65795 220 214 209
0.84552 -0.56286 0.60346 220 214 209
0.75232 -0.56286 0.60346 220 214 209
0.75232 -0.60856 0.65795 220 214 209
0.75232 -0.56187 1.6569 220 214 209
0.75232 -0.60856 1.60899 220 214 209
0.75232 -0.31121 0.60346 220 214 209
0.84552 -0.31121 0.60346 220 214 209
0.75232 -0.31121 1.56027 220 214 209
0.84552 -0.31121 1.56027 220 214 209
0.75232 0.06156 1.56027 220 214 209
0.84552 0.06156 1.56027 220 214 209
0.84552 -0.56187 1.6569 220 214 209
0.84552 0.06156 1.6569 220 214 209
0.75232 0.06156 1.6569 220 214 209
0.84552 -0.60856 1.60899 220 214 209
0.84552 0.06156 1.6569 227 221 216
0.84552 -0.56187 1.6569 227 221 216
0.75232 -0.56187 1.6569 227 221 216
0.75232 0.06156 1.6569 227 221 216
0.75232 -0.60856 1.60899 227 221 216
0.84552 -0.60856 1.60899 227 221 216
-0.17922 0.06156 1.51506 183 139 84
-0.70872 0.06156 1.51506 183 139 84
-0.70872 0.06156 1.70211 183 139 84
-0.17922 0.06156 1.70211 183 139 84
-0.75232 0.06156 1.56027 183 139 84
-0.75232 0.06156 1.6569 183 139 84
-0.88911 0.06156 1.70211 183 139 84
-0.84552 0.06156 1.6569 183 139 84
-0.17922 0.06156 1.70211 191 145 88
-0.70872 0.06156 1.70211 191 145 88
-0.17922 0.24861 1.70211 191 145 88
-0.86379 0.24861 1.70211 191 145 88
-0.88911 0.22019 1.70211 191 145 88
-0.88911 0.06156 1.70211 191 145 88
-0.17922 0.24861 1.70211 183 139 84
-0.86379 0.24861 1.70211 183 139 84
-0.86379 0.24861 1.51506 183 139 84
-0.17922 0.24861 1.51506 183 139 84
-0.88911 0.22019 1.70211 183 139 84
-0.88911 0.22019 1.51506 183 139 84
-0.88911 0.06156 1.51506 183 139 84
-0.84552 0.06156 1.56027 183 139 84
-0.75232 -0.60856 0.65795 220 214 209
-0.75232 -0.56286 0.60346 220 214 209
-0.84552 -0.56286 0.60346 220 214 209
-0.84552 -0.60856 0.65795 220 214 209
-0.75232 -0.31121 0.60346 220 214 209
-0.75232 -0.56187 1.6569 220 214 209
-0.75232 -0.31121 1.56027 220 214 209
-0.84552 -0.31121 0.60346 220 214 209
-0.84552 -0.31121 1.56027 220 214 209
-0.75232 0.06156 1.56027 220 214 209
-0.84552 0.06156 1.56027 220 214 209
-0.84552 -0.56187 1.6569 220 214 209
-0.84552 0.06156 1.6569 220 214 209
-0.84552 -0.60856 1.60899 220 214 209
-0.75232 0.06156 1.6569 220 214 209
-0.75232 -0.60856 1.60899 220 214 209
-0.84552 0.06156 1.6569 227 221 216
-0.75232 0.06156 1.6569 227 221 216
-0.75232 -0.56187 1.6569 227 221 216
-0.84552 -0.56187 1.6569 227 221 216
-0.75232 -0.60856 1.60899 227 221 216
-0.84552 -0.60856 1.60899 227 221 216
-0.11707 -0.32493 1.55505 165 125 76
-0.11707 -0.26923 1.55505 165 125 76
-0.67235 -0.26933 2.49394 165 125 76
-0.67235 -0.32493 2.49394 165 125 76
-0.07257 -0.32493 1.55505 165 125 76
-0.63387 -0.32493 2.49394 165 125 76
-0.63388 -0.26933 2.49394 165 125 76
-0.67235 -0.12231 2.49394 165 125 76
-0.63365 -0.12231 2.49394 165 125 76
0.11707 -0.26923 1.55505 165 125 76
0.07257 -0.32493 1.55505 165 125 76
0.11707 -0.32493 1.55505 165 125 76
0.67235 -0.26933 2.49394 165 125 76
0.67235 -0.32493 2.49394 165 125 76
0.63387 -0.32493 2.49394 165 125 76
0.63398 -0.26933 2.49394 165 125 76
0.63362 -0.12231 2.49394 165 125 76
0.67235 -0.12231 2.49394 165 125 76
-0.46274 -0.12231 1.55505 183 139 84
0.46274 -0.12231 1.55505 183 139 84
0.14507 -0.12231 2.1519 183 139 84
-0.14507 -0.12231 2.1519 183 139 84
-0.67235 -0.12231 2.49394 183 139 84
-0.63365 -0.12231 2.49394 183 139 84
-1.2691 -0.12231 2.70935 183 139 84
-1.2691 -0.26933 2.70935 183 139 84
-0.46274 -0.26933 1.55505 183 139 84
-0.80656 -0.12231 2.70935 183 139 84
-0.11707 -0.26923 1.55505 183 139 84
-0.10728 0.80981 2.23481 183 139 84
-0.14507 -0.12231 2.49394 183 139 84
-0.10728 0.80981 2.44452 183 139 84
0.10728 0.80981 2.23481 183 139 84
0.14507 -0.12231 2.49394 183 139 84
0.10728 0.80981 2.44452 183 139 84
0.67235 -0.12231 2.49394 183 139 84
1.2691 -0.12231 2.70935 183 139 84
1.2691 -0.26933 2.70935 183 139 84
0.46274 -0.26933 1.55505 183 139 84
0.80656 -0.12231 2.70935 183 139 84
0.11707 -0.26923 1.55505 183 139 84
-0.0894 0.84836 2.42312 183 139 84
-0.0894 0.84836 2.25621 183 139 84
0.0894 0.84836 2.42312 183 139 84
0.0894 0.84836 2.25621 183 139 84
0.84277 -0.12231 2.7391 183 139 84
0.84277 -0.26933 2.7391 183 139 84
0.80656 -0.26933 2.70935 183 139 84
1.24304 -0.26933 2.7391 183 139 84
0.67235 -0.26933 2.49394 183 139 84
1.24304 -0.12231 2.7391 183 139 84
-0.84277 -0.12231 2.7391 191 145 88
-0.84277 -0.26933 2.7391 191 145 88
-1.24304 -0.26933 2.7391 191 145 88
-1.24304 -0.12231 2.7391 191 145 88
-0.67235 -0.26933 2.49394 183 139 84
-0.80656 -0.26933 2.70935 183 139 84
-0.84277 -0.26933 2.7391 183 139 84
-1.24304 -0.26933 2.7391 183 139 84
-1.24304 -0.12231 2.7391 183 139 84
-0.84277 -0.12231 2.7391 183 139 84
-0.10728 0.80981 2.44452 191 145 88
0.10728 0.80981 2.44452 191 145 88
0.14507 -0.12231 2.49394 191 145 88
-0.14507 -0.12231 2.49394 191 145 88
0.0894 0.84836 2.42312 191 145 88
-0.0894 0.84836 2.42312 191 145 88
-0.63388 -0.26933 2.49394 191 145 88
0.63398 -0.26933 2.49394 191 145 88
0.63387 -0.32493 2.49394 191 145 88
-0.63387 -0.32493 2.49394 191 145 88
0.63362 -0.12231 2.49394 191 145 88
-0.63365 -0.12231 2.49394 191 145 88
0.84277 -0.12231 2.7391 191 145 88
1.24304 -0.12231 2.7391 191 145 88
1.24304 -0.26933 2.7391 191 145 88
0.84277 -0.26933 2.7391 191 145 88
0.63362 -0.12231 2.49394 183 139 84
0.25886 -0.07319 1.78874 219 214 210
0.25886 0.12811 1.78874 219 214 210
0.25886 0.12811 1.73688 219 214 210
0.25886 0.02112 1.73688 219 214 210
0.25886 0.02112 1.47452 219 214 210
0.25886 -0.07319 1.37452 219 214 210
0.25886 0.12811 1.47452 219 214 210
0.25886 0.12741 1.37442 219 214 210
0.12958 -0.07319 1.75487 219 214 210
0.02906 -0.07319 1.75487 219 214 210
0.02906 -0.07319 1.37452 219 214 210
0.12943 -0.07319 1.81847 219 214 210
0.22519 -0.07319 1.81847 219 214 210
0.25886 0.12811 1.78874 77 48 48
0.25886 0.17792 1.78874 77 48 48
0.25886 0.17805 1.73688 77 48 48
0.25886 0.12811 1.73688 77 48 48
0.25886 0.17805 1.47452 77 48 48
0.25886 0.28747 1.47452 77 48 48
0.25886 0.28747 1.73688 77 48 48
0.25886 0.12811 1.47452 77 48 48
0.25886 0.02112 1.73688 77 48 48
0.25886 0.02112 1.47452 77 48 48
0.25886 0.12741 1.37442 77 48 48
0.25886 0.12708 1.32101 77 48 48
0.25886 0.18123 1.15879 77 48 48
0.25886 0.12443 1.10728 77 48 48
0.25886 0.1844 0.88751 77 48 48
0.25886 0.12407 1.05319 77 48 48
0.25886 0.12163 0.88751 77 48 48
0.21161 0.1844 0.84305 77 48 48
0.21513 0.12163 0.84305 77 48 48
0.11987 0.12163 0.84305 77 48 48
-0.21161 0.1844 0.84305 77 48 48
-0.11987 0.12163 0.84305 77 48 48
-0.21513 0.12163 0.84305 77 48 48
-0.25886 0.12163 0.88751 77 48 48
-0.12943 -0.15113 2.04429 191 145 88
-0.12943 0.26807 2.04429 191 145 88
0.12943 0.26807 2.04429 191 145 88
0.12943 -0.15113 2.04429 191 145 88
-0.12943 0.28556 2.0277 191 145 88
0.12943 0.28556 2.0277 191 145 88
0.21513 -0.07319 0.84305 219 214 210
0.25886 -0.07319 0.88751 219 214 210
0.25886 0.12163 0.88751 219 214 210
0.21513 0.12163 0.84305 219 214 210
0.25886 0.12407 1.05319 219 214 210
0.25886 -0.07319 1.05312 219 214 210
0.11987 0.12163 0.84305 219 214 210
0.11987 0.12163 0.70905 219 214 210
0.11987 -0.07319 0.70905 219 214 210
0.11987 -0.07319 0.84305 219 214 210
-0.11987 -0.07319 0.84305 219 214 210
-0.11987 -0.07319 0.70905 219 214 210
-0.11987 0.12163 0.84305 219 214 210
-0.21513 0.12163 0.84305 219 214 210
-0.21513 -0.07319 0.84305 219 214 210
-0.25886 -0.07319 0.88751 219 214 210
-0.25886 -0.07319 1.05312 219 214 210
-0.11987 0.12163 0.70905 219 214 210
-0.25886 0.12407 1.05319 219 214 210
-0.25886 0.12163 0.88751 219 214 210
-0.10195 -0.05635 0.68458 219 214 210
0.10195 -0.05635 0.68458 219 214 210
-0.10195 0.10479 0.68458 219 214 210
0.10195 0.10479 0.68458 219 214 210
0.22519 -0.07319 1.81847 227 221 216
0.12943 -0.07319 1.81847 227 221 216
0.12943 0.12811 1.81847 227 221 216
0.22519 0.12811 1.81847 227 221 216
0.25886 0.12811 1.78874 227 221 216
0.25886 -0.07319 1.78874 227 221 216
0.22519 0.12811 1.81847 77 48 48
0.12943 0.12811 1.81847 77 48 48
0.12943 0.17792 1.81847 77 48 48
0.22519 0.17792 1.81847 77 48 48
0.12943 0.26807 2.04429 183 139 84
0.12943 0.12811 1.81847 183 139 84
0.12943 -0.07319 1.81847 183 139 84
0.12943 -0.15113 1.81847 183 139 84
0.12943 -0.15113 2.04429 183 139 84
0.12943 0.17792 1.81847 183 139 84
0.12943 0.28556 2.0277 183 139 84
-0.12943 -0.07319 1.81847 183 139 84
-0.12943 -0.15113 1.81847 183 139 84
-0.12943 -0.15113 2.04429 183 139 84
-0.12943 0.12811 1.81847 183 139 84
-0.12943 0.26807 2.04429 183 139 84
-0.02906 -0.07319 1.75487 183 139 84
0.02906 -0.07319 1.75487 183 139 84
0.12958 -0.07319 1.75487 183 139 84
-0.12958 -0.07319 1.75487 183 139 84
0.12943 0.28556 1.81847 183 139 84
-0.12943 0.28556 1.81847 183 139 84
-0.12943 0.28556 2.0277 183 139 84
-0.12943 0.17792 1.81847 183 139 84
0.25886 -0.07319 1.37452 189 185 181
0.25886 -0.07319 1.32105 189 185 181
0.02906 -0.07319 1.32105 189 185 181
0.02906 -0.07319 1.37452 189 185 181
0.25886 0.12741 1.37442 189 185 181
0.25886 0.12708 1.32101 189 185 181
-0.02906 -0.07319 1.32105 189 185 181
-0.02906 -0.07319 1.37452 189 185 181
-0.25886 -0.07319 1.37452 189 185 181
-0.25886 -0.07319 1.32105 189 185 181
-0.25886 0.12741 1.37442 189 185 181
-0.25886 0.12708 1.32101 189 185 181
-0.02906 -0.07319 1.10717 189 185 181
0.02906 -0.07319 1.10717 189 185 181
0.02906 -0.07319 1.75487 189 185 181
-0.02906 -0.07319 1.75487 189 185 181
-0.25886 -0.07319 1.05312 189 185 181
-0.25886 -0.07319 1.10717 189 185 181
-0.25886 0.12443 1.10728 189 185 181
-0.25886 0.12407 1.05319 189 185 181
0.25886 -0.07319 1.05312 189 185 181
0.25886 -0.07319 1.10717 189 185 181
0.25886 0.12443 1.10728 189 185 181
0.25886 0.12407 1.05319 189 185 181
0.25886 -0.07319 1.32105 219 214 210
0.25886 -0.07319 1.10717 219 214 210
0.02906 -0.07319 1.10717 219 214 210
0.02906 -0.07319 1.32105 219 214 210
0.25886 0.12708 1.32101 219 214 210
0.25886 0.12443 1.10728 219 214 210
-0.25886 -0.07319 1.78874 219 214 210
-0.25886 0.02112 1.73688 219 214 210
-0.25886 0.12811 1.73688 219 214 210
-0.25886 0.12811 1.78874 219 214 210
-0.25886 0.02112 1.47452 219 214 210
-0.25886 -0.07319 1.37452 219 214 210
-0.25886 0.12811 1.47452 219 214 210
-0.25886 0.12741 1.37442 219 214 210
-0.12958 -0.07319 1.75487 219 214 210
-0.12943 -0.07319 1.81847 219 214 210
-0.22519 -0.07319 1.81847 219 214 210
-0.02906 -0.07319 1.75487 219 214 210
-0.02906 -0.07319 1.37452 219 214 210
-0.25886 0.12811 1.78874 77 48 48
-0.25886 0.12811 1.73688 77 48 48
-0.25886 0.17805 1.73688 77 48 48
-0.25886 0.17792 1.78874 77 48 48
-0.25886 0.17805 1.47452 77 48 48
-0.25886 0.28747 1.47452 77 48 48
-0.25886 0.28747 1.73688 77 48 48
-0.25886 0.12811 1.47452 77 48 48
-0.25886 0.02112 1.73688 77 48 48
-0.25886 0.02112 1.47452 77 48 48
-0.25886 0.12741 1.37442 77 48 48
-0.22519 0.12811 1.81847 77 48 48
-0.22519 0.17792 1.81847 77 48 48
-0.25886 0.12708 1.32101 77 48 48
-0.25886 0.18123 1.15879 77 48 48
-0.25886 0.12443 1.10728 77 48 48
-0.25886 0.1844 0.88751 77 48 48
-0.25886 0.12407 1.05319 77 48 48
-0.12943 0.12811 1.81847 77 48 48
-0.12943 0.17792 1.81847 77 48 48
-0.25886 0.12811 1.78874 227 221 216
-0.22519 0.12811 1.81847 227 221 216
-0.22519 -0.07319 1.81847 227 221 216
-0.25886 -0.07319 1.78874 227 221 216
-0.12943 -0.07319 1.81847 227 221 216
-0.12943 0.12811 1.81847 227 221 216
-0.25886 -0.07319 1.32105 219 214 210
-0.02906 -0.07319 1.32105 219 214 210
-0.02906 -0.07319 1.10717 219 214 210
-0.25886 -0.07319 1.10717 219 214 210
-0.25886 0.12708 1.32101 219 214 210
-0.25886 0.12443 1.10728 219 214 210
0.63387 -0.32493 2.49394 183 139 84
0.07257 -0.32493 1.55505 183 139 84
-0.07257 -0.32493 1.55505 183 139 84
-0.63387 -0.32493 2.49394 183 139 84
-0.24868 -0.20255 0.65752 191 145 88
-0.52795 -0.20255 0.65752 191 145 88
-0.52795 0.08626 1.06998 191 145 88
-0.24868 0.08626 1.06998 191 145 88
-0.50812 0.12042 1.08418 191 145 88
-0.26851 0.12042 1.08418 191 145 88
-0.26851 0.12042 1.08418 183 139 84
-0.50812 0.12042 1.08418 183 139 84
-0.50812 0.28287 0.97043 183 139 84
-0.26851 0.28287 0.97043 183 139 84
-0.52795 0.08626 1.06998 183 139 84
-0.52795 0.28121 0.93347 183 139 84
-0.24868 0.28121 0.93347 183 139 84
-0.52795 -0.0076 0.52101 183 139 84
-0.24868 -0.0076 0.52101 183 139 84
-0.24868 0.23784 0.96379 183 139 84
-0.24868 0.23807 0.94038 183 139 84
-0.24868 0.13017 1.03924 183 139 84
-0.24868 0.08626 1.06998 183 139 84
-0.24868 0.10437 0.74995 183 139 84
-0.24868 0.07472 0.74567 183 139 84
-0.24868 -0.01943 0.81089 183 139 84
-0.24868 -0.20255 0.65752 183 139 84
-0.30362 -0.09325 0.58093 183 139 84
-0.32781 -0.0526 0.55252 183 139 84
-0.30362 -0.15755 0.62601 183 139 84
-0.52795 -0.20255 0.65752 183 139 84
-0.47302 -0.15755 0.62601 183 139 84
-0.47302 -0.09325 0.58093 183 139 84
-0.47302 -0.18941 0.57683 183 139 84
-0.24868 -0.02571 0.84104 183 139 84
-0.44882 -0.0526 0.55252 183 139 84
-0.47302 -0.19267 0.54309 183 139 84
-0.47302 -0.15805 0.48448 183 139 84
-0.47302 0.07546 0.0986 183 139 84
-0.47302 0.20409 0.0986 183 139 84
-0.47302 0.07534 5.73055E-08 183 139 84
-0.47302 0.20401 1.71917E-07 183 139 84
-0.51193 0.0333 0.09875 183 139 84
-0.51193 0.03317 0.00015 183 139 84
-0.44882 0.23248 1.71917E-07 183 139 84
-0.30362 0.20401 1.71917E-07 183 139 84
-0.32781 0.23248 1.71917E-07 183 139 84
-0.32781 0.23257 0.0986 183 139 84
-0.44882 0.23257 0.0986 183 139 84
-0.30362 0.20409 0.0986 183 139 84
-0.30362 0.07534 5.73055E-08 183 139 84
-0.51254 -0.09324 0.0989 183 139 84
-0.51254 -0.09337 0.0003 183 139 84
-0.47302 -0.18941 0.57683 191 145 88
-0.30362 -0.18941 0.57683 191 145 88
-0.30362 -0.19267 0.54309 191 145 88
-0.47302 -0.19267 0.54309 191 145 88
-0.47302 -0.15755 0.62601 191 145 88
-0.30362 -0.15755 0.62601 191 145 88
-0.30362 -0.15805 0.48448 183 139 84
-0.30362 0.07546 0.0986 183 139 84
-0.30362 -0.19267 0.54309 183 139 84
-0.30362 -0.18941 0.57683 183 139 84
-0.24868 0.23807 0.94038 77 48 48
-0.24868 0.10798 1.03147 77 48 48
-0.24868 0.13017 1.03924 77 48 48
-0.24868 0.23784 0.96379 77 48 48
-0.24868 -0.02571 0.84104 77 48 48
-0.24868 0.10437 0.74995 77 48 48
-0.24868 0.07472 0.74567 77 48 48
-0.24868 -0.01943 0.81089 77 48 48
-0.51254 -0.20204 0.09908 220 214 209
-0.43075 -0.20204 0.09908 220 214 209
-0.43075 -0.20216 0.00048 220 214 209
-0.51254 -0.20216 0.00048 220 214 209
-0.43075 -0.09324 0.0989 220 214 209
-0.43075 -0.09337 0.0003 220 214 209
-0.51254 -0.09337 0.0003 220 214 209
-0.51254 -0.09324 0.0989 220 214 209
-0.34516 -0.09324 0.0989 191 145 88
-0.30362 0.07546 0.0986 191 145 88
-0.2647 0.0333 0.09875 191 145 88
-0.47302 0.07546 0.0986 191 145 88
-0.43075 -0.09324 0.0989 191 145 88
-0.26409 -0.09324 0.0989 191 145 88
-0.51193 0.0333 0.09875 191 145 88
-0.51254 -0.09324 0.0989 191 145 88
-0.2647 0.0333 0.09875 183 139 84
-0.2647 0.03317 0.00015 183 139 84
-0.26409 -0.09337 0.0003 183 139 84
-0.26409 -0.09324 0.0989 183 139 84
-0.43075 -0.09337 0.0003 183 139 84
-0.34516 -0.09337 0.0003 183 139 84
-0.34516 -0.09324 0.0989 183 139 84
-0.43075 -0.09324 0.0989 183 139 84
-0.34516 -0.20216 0.00048 220 214 209
-0.34516 -0.20204 0.09908 220 214 209
-0.26409 -0.20204 0.09908 220 214 209
-0.26409 -0.20216 0.00048 220 214 209
-0.26409 -0.09337 0.0003 220 214 209
-0.34516 -0.09337 0.0003 220 214 209
-0.51254 -0.09324 0.0989 227 221 216
-0.43075 -0.09324 0.0989 227 221 216
-0.43075 -0.20204 0.09908 227 221 216
-0.51254 -0.20204 0.09908 227 221 216
-0.34516 -0.09324 0.0989 220 214 209
-0.34516 -0.09324 0.0989 227 221 216
-0.26409 -0.09324 0.0989 227 221 216
-0.26409 -0.20204 0.09908 227 221 216
-0.34516 -0.20204 0.09908 227 221 216
-0.26409 -0.09324 0.0989 220 214 209
-0.24868 0.10798 1.03147 183 139 84
-0.25886 0.17805 1.47452 183 139 84
3 0 2 1
3 0 3 2
3 4 3 0
3 4 5 3
3 5 2 3
3 5 6 2
3 7 5 4
3 7 8 5
3 8 6 5
3 8 9 6
3 9 10 6
3 6 10 1
3 6 1 2
3 9 11 10
3 11 9 12
3 11 12 13
3 14 11 13
3 14 13 15
3 12 16 13
3 12 17 16
3 17 18 16
3 17 19 18
3 20 17 12
3 20 21 17
3 22 21 20
3 22 23 21
3 23 24 21
3 23 25 24
3 25 19 24
3 21 24 19
3 25 18 19
3 21 19 17
3 20 26 22
3 22 26 27
3 22 27 28
3 20 29 26
3 30 29 20
3 29 30 31
3 30 32 31
3 30 33 32
3 33 34 32
3 33 35 34
3 36 34 35
3 36 37 34
3 32 34 37
3 32 37 38
3 31 32 38
3 31 38 39
3 39 38 40
3 38 36 40
3 38 37 36
3 39 40 41
3 42 39 41
3 42 43 39
3 43 42 44
3 43 44 45
3 45 44 46
3 45 46 47
3 12 42 41
3 30 12 41
3 30 20 12
3 12 9 42
3 39 43 48
3 39 48 49
3 48 50 49
3 48 51 50
3 51 48 52
3 51 52 53
3 53 52 54
3 53 54 55
3 51 56 50
3 51 57 56
3 50 58 49
3 50 59 58
3 60 59 50
3 60 61 59
3 62 61 60
3 62 63 61
3 63 64 61
3 63 65 64
3 66 64 65
3 66 67 64
3 61 64 67
3 61 67 59
3 59 66 58
3 59 67 66
3 60 68 62
3 60 69 68
3 69 60 70
3 69 70 71
3 70 72 71
3 73 71 72
3 73 74 71
3 75 74 73
3 76 74 75
3 76 75 77
3 51 77 75
3 51 75 57
3 77 51 53
3 77 53 78
3 79 77 78
3 79 78 80
3 80 78 81
3 80 81 82
3 54 82 81
3 54 81 55
3 78 55 81
3 78 53 55
3 57 75 70
3 57 70 56
3 50 56 70
3 77 83 76
3 77 79 83
3 83 79 84
3 79 43 84
3 79 48 43
3 84 43 45
3 84 45 85
3 86 84 85
3 86 85 87
3 87 85 88
3 87 88 89
3 46 89 88
3 46 88 47
3 85 47 88
3 85 45 47
3 83 84 90
3 90 84 86
3 83 90 91
3 8 90 86
3 86 9 8
3 86 42 9
3 8 92 90
3 7 92 8
3 7 93 92
3 7 94 93
3 95 97 96
3 95 98 97
3 95 99 98
3 95 100 99
3 101 99 100
3 101 100 102
3 99 103 98
3 99 104 103
3 101 105 99
3 101 106 105
3 99 105 107
3 99 107 104
3 108 101 102
3 108 109 101
3 109 110 101
3 109 111 110
3 101 110 112
3 101 112 106
3 108 113 109
3 108 114 113
3 115 117 116
3 115 118 117
3 116 117 119
3 116 119 120
3 121 123 122
3 121 124 123
3 122 123 125
3 122 125 126
3 96 128 127
3 96 97 128
3 129 131 130
3 129 132 131
3 132 133 131
3 132 134 133
3 135 137 136
3 135 138 137
3 62 39 49
3 62 31 39
3 50 70 60
3 70 139 72
3 72 139 140
3 72 140 141
3 142 141 140
3 142 140 143
3 73 141 142
3 73 72 141
3 144 73 142
3 144 142 143
3 139 144 143
3 144 139 70
3 144 70 75
3 139 143 140
3 75 73 144
3 114 145 113
3 114 146 145
3 138 147 137
3 138 148 147
3 149 151 150
3 149 152 151
3 150 151 153
3 150 153 154
3 155 157 156
3 155 158 157
3 159 157 158
3 159 160 157
3 160 156 157
3 160 161 156
3 161 160 162
3 161 162 163
3 161 164 156
3 161 165 164
3 156 166 155
3 156 164 166
3 155 166 167
3 168 161 163
3 168 165 161
3 163 169 168
3 163 170 169
3 163 171 170
3 171 163 172
3 163 173 172
3 171 172 174
3 175 171 174
3 175 174 176
3 162 175 176
3 175 162 160
3 175 160 159
3 162 176 177
3 177 176 178
3 170 171 179
3 171 167 179
3 163 180 173
3 163 162 180
3 180 162 177
3 177 178 181
3 177 181 182
3 177 182 183
3 177 183 184
3 184 183 185
3 184 185 186
3 185 183 187
3 185 187 188
3 189 184 186
3 190 189 186
3 190 186 185
3 190 191 189
3 189 191 192
3 189 192 193
3 189 193 184
3 193 177 184
3 193 180 177
3 180 193 192
3 194 191 190
3 194 192 191
3 180 192 173
3 172 192 194
3 172 173 192
3 190 185 195
3 188 187 196
3 188 196 197
3 198 200 199
3 198 201 200
3 202 201 198
3 202 203 201
3 204 194 205
3 204 172 194
3 182 204 205
3 182 205 183
3 206 172 204
3 205 194 190
3 205 190 195
3 181 204 182
3 181 206 204
3 207 172 206
3 174 172 207
3 208 210 209
3 208 211 210
3 212 211 208
3 212 208 213
3 212 213 214
3 212 214 215
3 216 218 217
3 216 219 218
3 220 218 219
3 220 221 218
3 221 217 218
3 221 222 217
3 222 216 217
3 222 223 216
3 224 226 225
3 227 226 224
3 227 224 228
3 224 225 229
3 227 228 230
3 230 228 231
3 232 234 233
3 232 235 234
3 205 235 232
3 205 195 235
3 236 188 197
3 236 185 188
3 195 185 236
3 195 236 237
3 236 238 237
3 236 239 238
3 195 237 235
3 235 237 234
3 240 242 241
3 240 243 242
3 244 240 241
3 244 245 240
3 246 248 247
3 246 249 248
3 245 243 240
3 245 250 243
3 251 253 252
3 251 254 253
3 255 241 242
3 255 244 241
3 179 167 256
3 256 167 166
3 257 259 258
3 257 260 259
3 261 257 258
3 261 258 262
3 258 263 262
3 258 259 263
3 264 266 265
3 264 267 266
3 268 270 269
3 268 271 270
3 270 272 269
3 270 273 272
3 270 271 274
3 270 274 275
3 275 276 270
3 270 276 273
3 276 275 277
3 271 278 274
3 271 279 278
3 280 282 281
3 280 283 282
3 284 286 285
3 284 287 286
3 288 287 284
3 288 289 287
3 287 290 286
3 287 289 290
3 291 293 292
3 291 294 293
3 295 297 296
3 295 298 297
3 297 298 299
3 297 299 300
3 297 301 296
3 297 302 301
3 303 297 300
3 297 303 302
3 302 303 304
3 296 301 305
3 296 305 306
3 307 309 308
3 307 310 309
3 311 313 312
3 311 314 313
3 313 314 315
3 313 315 316
3 317 313 316
3 317 316 318
3 319 321 320
3 320 321 322
3 322 321 323
3 323 321 324
3 325 327 326
3 325 328 327
3 327 328 329
3 327 329 330
3 314 327 330
3 314 330 331
3 331 330 329
3 331 329 317
3 314 331 332
3 314 332 315
3 331 318 332
3 331 317 318
3 326 327 314
3 326 314 311
3 333 335 334
3 333 336 335
3 337 335 336
3 337 336 338
3 339 334 335
3 337 339 335
3 339 340 334
3 341 340 339
3 337 341 339
3 341 342 340
3 343 342 341
3 343 344 342
3 344 345 342
3 345 340 342
3 345 334 340
3 345 333 334
3 344 346 345
3 347 341 337
3 347 343 341
3 348 336 333
3 348 338 336
3 345 348 333
3 349 351 350
3 349 352 351
3 350 351 353
3 350 353 354
3 355 357 356
3 355 358 357
3 357 359 356
3 357 360 359
3 361 360 357
3 361 362 360
3 363 365 364
3 365 366 364
3 366 367 364
3 367 368 364
3 369 371 370
3 369 372 371
3 371 373 370
3 371 374 373
3 356 374 371
3 356 375 374
3 375 373 374
3 375 361 373
3 356 376 375
3 356 359 376
3 375 362 361
3 375 376 362
3 372 356 371
3 372 355 356
3 377 379 378
3 377 380 379
3 381 378 379
3 382 378 381
3 382 377 378
3 382 381 383
3 381 379 384
3 383 381 384
3 383 384 385
3 386 383 385
3 386 385 387
3 387 385 388
3 388 379 380
3 388 384 379
3 388 385 384
3 387 388 389
3 388 380 390
3 391 383 386
3 391 382 383
3 392 380 377
3 392 390 380
3 382 392 377
3 393 395 394
3 393 396 395
3 396 397 395
3 396 398 397
3 399 401 400
3 399 402 401
3 402 399 403
3 399 400 403
3 402 403 404
3 404 401 402
3 404 405 401
3 405 406 401
3 405 407 406
3 403 400 408
3 403 408 409
3 409 408 410
3 410 408 411
3 410 411 412
3 413 410 412
3 413 409 410
3 412 414 413
3 412 411 414
3 415 414 411
3 415 411 416
3 417 419 418
3 417 420 419
3 421 420 417
3 421 422 420
3 417 423 421
3 417 424 423
3 417 425 424
3 423 426 421
3 417 427 425
3 428 419 420
3 429 428 420
3 420 422 429
3 429 430 428
3 428 431 419
3 432 419 431
3 432 431 433
3 434 418 419
3 418 434 435
3 418 435 436
3 418 436 437
3 435 434 438
3 439 418 437
3 417 439 427
3 417 418 439
3 428 430 440
3 428 440 441
3 431 428 441
3 441 440 442
3 441 442 443
3 433 443 442
3 433 431 443
3 431 441 443
3 435 438 444
3 438 445 444
3 438 446 445
3 446 447 445
3 446 436 447
3 448 436 446
3 434 448 446
3 434 446 438
3 437 436 448
3 437 448 439
3 436 449 447
3 436 435 449
3 435 444 449
3 450 452 451
3 450 453 452
3 421 455 454
3 421 426 455
3 454 455 424
3 425 454 424
3 425 427 454
3 424 455 456
3 424 456 457
3 423 424 457
3 423 457 458
3 426 423 458
3 426 458 459
3 455 459 456
3 455 426 459
3 460 462 461
3 460 463 462
3 460 461 464
3 460 464 465
3 462 463 466
3 462 466 467
3 468 467 466
3 468 466 469
3 462 467 470
3 466 463 471
3 472 474 473
3 472 475 474
3 434 419 476
3 476 419 432
3 477 479 478
3 477 480 479
3 477 481 480
3 482 481 477
3 482 483 481
3 483 482 484
3 477 485 482
3 482 485 486
3 482 486 487
3 488 485 477
3 488 477 489
3 490 492 491
3 490 493 492
3 494 492 493
3 495 492 494
3 495 496 492
3 494 493 497
3 498 497 493
3 498 499 497
3 500 494 497
3 501 494 500
3 501 502 494
3 503 502 501
3 504 502 503
3 504 503 505
3 504 505 506
3 506 507 504
3 508 507 506
3 509 507 508
3 509 510 507
3 509 511 510
3 511 512 510
3 510 512 513
3 514 516 515
3 514 517 516
3 516 518 515
3 516 519 518
3 520 522 521
3 520 523 522
3 521 522 524
3 521 524 525
3 526 528 527
3 526 529 528
3 528 529 530
3 528 530 531
3 532 531 530
3 530 533 532
3 530 534 533
3 530 535 534
3 533 534 535
3 530 536 535
3 532 537 531
3 535 536 538
3 535 538 539
3 533 535 539
3 525 530 529
3 525 536 530
3 525 529 520
3 525 520 521
3 528 531 540
3 528 540 541
3 541 540 542
3 531 542 540
3 531 537 542
3 541 542 543
3 527 541 543
3 537 527 543
3 527 537 532
3 527 532 526
3 537 543 542
3 527 528 541
3 529 523 520
3 529 526 523
3 544 546 545
3 544 547 546
3 548 547 544
3 548 544 549
3 550 552 551
3 550 553 552
3 491 553 550
3 491 550 490
3 554 556 555
3 556 554 557
3 557 554 558
3 554 555 559
3 554 559 560
3 557 561 556
3 557 562 561
3 563 561 562
3 561 563 564
3 564 563 565
3 556 561 566
3 556 566 567
3 556 567 568
3 561 569 566
3 560 559 570
3 560 570 571
3 560 571 572
3 572 571 573
3 565 572 573
3 565 573 564
3 574 576 575
3 574 577 576
3 575 578 574
3 575 579 578
3 577 580 576
3 577 581 580
3 582 580 581
3 582 583 580
3 583 582 584
3 583 584 585
3 576 580 586
3 576 586 587
3 588 581 577
3 588 589 581
3 587 586 590
3 591 590 586
3 590 591 592
3 590 592 593
3 587 590 594
3 595 587 594
3 594 596 595
3 594 597 596
3 598 600 599
3 598 601 600
3 599 602 598
3 599 603 602
3 604 606 605
3 604 607 606
3 608 604 605
3 604 608 609
3 610 609 608
3 609 610 611
3 612 604 609
3 613 604 612
3 613 614 604
3 609 615 612
3 609 616 615
3 617 619 618
3 617 620 619
3 621 618 619
3 622 621 619
3 622 619 623
3 621 624 618
3 625 618 624
3 625 624 626
3 627 624 621
3 620 617 628
3 620 628 629
3 630 627 621
3 630 621 631
3 632 630 631
3 633 632 631
3 633 634 632
3 633 513 634
3 510 513 633
3 629 628 635
3 629 635 636
3 637 639 638
3 637 640 639
3 638 639 641
3 638 641 642
3 643 645 644
3 643 646 645
3 646 643 647
3 646 647 648
3 649 651 650
3 649 652 651
3 653 655 654
3 653 656 655
3 656 657 655
3 656 658 657
3 659 661 660
3 659 662 661
3 663 660 661
3 663 661 664
3 664 661 662
3 664 662 665
3 665 666 664
3 665 667 666
3 665 662 668
3 665 668 669
3 662 670 668
3 662 659 670
3 659 671 670
3 672 667 665
3 672 665 669
3 667 672 673
3 667 673 674
3 667 674 675
3 675 676 667
3 667 676 677
3 675 678 676
3 679 678 675
3 679 680 678
3 666 680 679
3 679 664 666
3 679 663 664
3 666 681 680
3 681 682 680
3 674 683 675
3 675 683 671
3 667 684 666
3 667 677 684
3 684 681 666
3 681 685 682
3 681 686 685
3 681 687 686
3 681 688 687
3 688 689 687
3 688 690 689
3 689 691 687
3 689 692 691
3 693 690 688
3 694 690 693
3 694 689 690
3 694 693 695
3 693 696 695
3 693 697 696
3 693 688 697
3 697 688 681
3 697 681 684
3 684 696 697
3 698 695 696
3 698 694 695
3 684 677 696
3 676 696 677
3 676 698 696
3 694 699 689
3 692 700 691
3 692 701 700
3 702 704 703
3 702 705 704
3 706 702 703
3 706 703 707
3 708 698 676
3 708 709 698
3 686 709 708
3 686 687 709
3 710 708 676
3 709 694 698
3 709 699 694
3 685 708 710
3 685 686 708
3 711 710 676
3 678 711 676
3 712 714 713
3 712 715 714
3 716 712 713
3 716 717 712
3 716 718 717
3 716 719 718
3 720 722 721
3 720 723 722
3 724 721 722
3 724 722 725
3 725 722 723
3 725 723 726
3 726 723 720
3 726 720 727
3 728 730 729
3 731 728 729
3 731 732 728
3 728 733 730
3 731 734 732
3 734 735 732
3 736 738 737
3 736 739 738
3 709 736 737
3 709 737 699
3 740 701 692
3 740 692 689
3 699 740 689
3 699 741 740
3 740 741 742
3 740 742 743
3 699 737 741
3 737 738 741
3 744 746 745
3 744 747 746
3 748 747 744
3 748 744 749
3 750 752 751
3 750 753 752
3 749 745 754
3 749 744 745
3 755 757 756
3 755 758 757
3 759 747 748
3 759 746 747
3 683 760 671
3 760 670 671
3 29 68 761
3 31 68 29
3 62 68 31
