mtllib Charmeleon.mtl
v 0 0.322914 0.143171
vt 0.500175 -0.87844
vn -0.0005997107 -0.9492895 0.3144028
v -0.120771 0.311548 -0.0102562
vt 0.000786185 -1.01387
vn -0.4870259 -0.8721818 -0.04587589
v 0 0.283322 -0.0102562
vt 0.500175 -1.35018
vn 0 -0.9999141 -0.0131041
v -0.133533 0.368752 0.146366
vt -0.155124 -0.26292
vn -0.6780373 -0.6280584 0.3818482
v 0.120771 0.311548 -0.0102562
vt 0.999564 -1.01387
vn 0.4870259 -0.8721818 -0.04587609
v -0.064336 0.366963 0.210333
vt 0.184305 -0.292053
vn -0.4282503 -0.6169534 0.6602804
v 0.133533 0.368752 0.146366
vt 1.15547 -0.26292
vn 0.6786927 -0.6290527 0.3790368
v 0 0.365297 0.218848
vt 0.500175 -0.319163
vn 0.007382316 -0.6352277 0.7722896
v 0.0664107 0.367016 0.209207
vt 0.826227 -0.291179
vn 0.4285378 -0.6175948 0.6594937
v 0 0.327311 -0.101453
vt 0.500175 -0.961612
vn 0 -0.8872151 -0.461356
v -0.167569 0.382842 -0.0102562
vt -0.262891 -0.0950298
vn -0.9311159 -0.364033 -0.0224302
v -0.114209 0.382842 -0.167049
vt -0.0821127 -0.0950298
vn -0.5712953 -0.6101733 -0.5489173
v 0.167569 0.382842 -0.0102562
vt 1.26324 -0.0950298
vn 0.9311159 -0.364033 -0.0224302
v 0.136683 0.411652 0.1482
vt 1.13804 0.248246
vn 0.9105193 0.07972202 0.4057081
v -0.136683 0.411652 0.1482
vt -0.137692 0.248246
vn -0.9087003 0.07870713 0.4099621
v -0.175782 0.426751 -0.0102562
vt -0.279535 0.428156
vn -0.9964869 0.07442089 0.0384106
v -0.122408 0.479089 -0.206448
vt -0.123914 1.05178
vn -0.735202 -0.00124526 -0.677847
v 0.114209 0.382842 -0.167049
vt 1.08246 -0.0950298
vn 0.5712953 -0.6101733 -0.5489173
v 0.175782 0.426751 -0.0102562
vt 1.27988 0.428156
vn 0.9964869 0.07442079 0.0384108
v 0.160456 0.469997 -0.0102562
vt 1.29628 0.943444
vn 0.975226 0.215099 0.051641
v 0.121257 0.453904 0.150007
vt 1.12087 0.751695
vn 0.8084451 0.254824 0.530548
v -0.160456 0.469997 -0.0102562
vt -0.295928 0.943444
vn -0.975226 0.215099 0.0516409
v -0.106597 0.575336 -0.178945
vt -0.0433039 2.1986
vn -0.698271 0.505036 -0.507303
v 0 0.549391 -0.230222
vt 0.500175 1.88946
vn 0 0.2900569 -0.9570094
v 0.122408 0.479089 -0.206448
vt 1.12426 1.05178
vn 0.735202 -0.00124525 -0.677847
v 0.106597 0.575336 -0.178945
vt 1.04365 2.1986
vn 0.698271 0.505036 -0.507303
v 0.148478 0.575336 -0.0102562
vt 1.15665 2.1986
vn 0.955467 0.295097 -0.000845083
v -0.148478 0.575336 -0.0102562
vt -0.156296 2.1986
vn -0.955467 0.295097 -0.000845083
v 0 0.658123 -0.141669
vt 0.500175 3.06326
vn 0 0.8800868 -0.4748129
v -0.10082 0.655857 -0.0102562
vt 0.112412 3.26198
vn -0.5769841 0.8165171 0.0197255
v -0.121257 0.453904 0.150007
vt -0.120524 0.751695
vn -0.8072813 0.2547011 0.5323762
v 0.10082 0.655857 -0.0102562
vt 0.887938 3.26198
vn 0.5769841 0.8165171 0.0197256
v 0.106789 0.575336 0.143037
vt 1.00243 2.1986
vn 0.6657703 0.4307192 0.6092873
v -0.106789 0.575336 0.143037
vt -0.0020842 2.1986
vn -0.66577 0.43072 0.609287
v 0 0.640514 0.0987368
vt 0.500175 3.10976
vn 0 0.8777789 0.479066
v 0 0.575336 0.164743
vt 0.500175 2.1986
vn 0 0.412998 0.910732
v 0 0.485694 0.172608
vt 0.500175 1.13048
vn -0.0009959892 0.3517001 0.9361122
v 0 0.6711 -0.0102562
vt 0.500175 3.49603
vn 0 0.9974406 0.07149928
v 0 0.404241 -0.219123
vt 0.460659 2.8651
vn 0 -0.4820208 -0.8761597
vt 0.460659 2.47172
vt -0.00585058 2.77567
vt 0.927169 2.77567
vt -0.0393406 3.17791
vt 0.960659 3.17791
vt 0.460659 3.47172
v 0 0.401804 0.235115
vt 0.497428 0.333926
vn 0.009619863 -0.114746 0.9933483
vt 0.257442 -0.267978
vt 0.497428 -0.306559
v -0.0658538 0.406551 0.219643
vt 0.263825 0.414424
vn -0.5365537 -0.01821139 0.8436696
vt 0.745149 -0.266734
v 0 0.439005 0.229225
vt 0.497428 0.985883
v 0.0679775 0.406704 0.218293
vt 0.73856 0.417019
vn 0.5370861 -0.0182921 0.8433291
vt 0.0128008 0.500927
vt -0.00044309 -0.22652
vt 0.982055 0.500927
vt 0.995299 -0.22652
v -0.0584213 0.446187 0.217463
vt 0.270113 1.10767
vn -0.4330151 0.5349532 0.7254812
v 0.0603054 0.446418 0.216232
vt 0.73207 1.11159
vn 0.4331371 0.535746 0.7248231
vt 0.0258447 1.23853
vt 0.969011 1.23853
v -0.0199982 0.765693 -0.197964
vt 0.312969 -0.294017
vn -0.6076181 0.6949792 0.3844531
v -0.044613 0.615075 -0.0136707
vt 0.0143686 -1.29402
vn -0.365745 0.747511 0.554489
v 0.044613 0.615075 -0.0136707
vt 1.01437 -1.29402
vn 0.365745 0.747511 0.554489
v -0.044613 0.615075 -0.155926
vn -0.920095 -0.0632492 -0.386555
v 0.0199982 0.765693 -0.197964
vt 0.715768 -0.294017
vn 0.6076181 0.6949792 0.3844531
v -0.0199982 0.736482 -0.225285
vt 0.312969 -0.550469
vn -0.8367302 -0.07403172 -0.5425881
v 0.044613 0.615075 -0.155926
vn 0.920095 -0.0632492 -0.386555
v 0.0199982 0.736482 -0.225285
vt 0.715768 -0.550469
vn 0.8367302 -0.07403181 -0.5425881
vt 0.499758 3.64973
vt 0.748539 2.80851
vt 0.999758 2.96885
vt 0.499758 2.64973
vt 0.258746 2.80355
vt -0.000241667 2.96885
o merged_0_0_node
g polygon_0
usemtl mat_mouth_mat_id
f 1/1/1 2/2/2 3/3/3
f 1/1/1 4/4/4 2/2/2
f 1/1/1 3/3/3 5/5/5
f 1/1/1 6/6/6 4/4/4
f 1/1/1 5/5/5 7/7/7
f 1/1/1 8/8/8 6/6/6
f 1/1/1 7/7/7 9/9/9
f 1/1/1 9/9/9 8/8/8
f 2/2/2 10/10/10 3/3/3
f 2/2/2 4/4/4 11/11/11
f 2/2/2 12/12/12 10/10/10
f 2/2/2 11/11/11 12/12/12
f 3/3/3 10/10/10 5/5/5
f 7/7/7 5/5/5 13/13/13
f 7/7/7 13/13/13 14/14/14
f 4/4/4 15/15/15 11/11/11
f 12/12/12 11/11/11 16/16/16
f 12/12/12 16/16/16 17/17/17
f 11/11/11 15/15/15 16/16/16
f 10/10/10 18/18/18 5/5/5
f 5/5/5 18/18/18 13/13/13
f 14/14/14 13/13/13 19/19/19
f 14/14/14 19/19/19 20/20/20
f 14/14/14 20/20/20 21/21/21
f 13/13/13 18/18/18 19/19/19
f 17/17/17 16/16/16 22/22/22
f 17/17/17 22/22/22 23/23/23
f 17/17/17 23/23/23 24/24/24
f 16/16/16 15/15/15 22/22/22
f 20/20/20 19/19/19 25/25/25
f 20/20/20 25/25/25 26/26/26
f 20/20/20 26/26/26 27/27/27
f 25/25/25 19/19/19 18/18/18
f 25/25/25 24/24/24 26/26/26
f 23/23/23 22/22/22 28/28/28
f 23/23/23 29/29/29 24/24/24
f 23/23/23 28/28/28 30/30/30
f 23/23/23 30/30/30 29/29/29
f 24/24/24 29/29/29 26/26/26
f 15/15/15 31/31/31 22/22/22
f 27/27/27 26/26/26 32/32/32
f 27/27/27 32/32/32 33/33/33
f 26/26/26 29/29/29 32/32/32
f 28/28/28 34/34/34 30/30/30
f 33/33/33 32/32/32 35/35/35
f 33/33/33 35/35/35 36/36/36
f 33/33/33 36/36/36 37/37/37
f 34/34/34 35/35/35 30/30/30
f 34/34/34 37/37/37 36/36/36
f 34/34/34 36/36/36 35/35/35
f 29/29/29 38/38/38 32/32/32
f 29/29/29 30/30/30 38/38/38
f 38/38/38 30/30/30 35/35/35
f 38/38/38 35/35/35 32/32/32
f 39/39/39 10/40/10 12/41/12
f 39/39/39 18/42/18 10/40/10
f 39/39/39 12/41/12 17/43/17
f 39/39/39 25/44/25 18/42/18
f 39/39/39 17/43/17 24/45/24
f 39/39/39 24/45/24 25/44/25
f 40/46/40 6/47/6 8/48/8
f 40/46/40 41/49/41 6/47/6
f 40/46/40 8/48/8 9/50/9
f 40/46/40 42/51/36 41/49/41
f 40/46/40 9/50/9 43/52/42
f 40/46/40 43/52/42 42/51/36
f 6/47/6 41/49/41 15/53/15
f 6/47/6 15/53/15 4/54/4
f 9/50/9 14/55/14 43/52/42
f 9/50/9 7/56/7 14/55/14
f 42/51/36 44/57/43 41/49/41
f 42/51/36 43/52/42 45/58/44
f 15/53/15 41/49/41 31/59/31
f 31/59/31 41/49/41 44/57/43
f 14/55/14 21/60/21 43/52/42
f 43/52/42 21/60/21 45/58/44
f 46/61/45 47/62/46 48/63/47
f 46/61/45 49/62/48 47/62/46
f 46/61/45 48/63/47 50/64/49
f 46/61/45 51/65/50 49/62/48
f 46/61/45 50/64/49 51/65/50
f 48/63/47 52/63/51 50/64/49
f 49/62/48 51/65/50 53/66/52
f 49/62/48 53/66/52 52/63/51
f 53/66/52 51/65/50 50/64/49
f 53/66/52 50/64/49 52/63/51
f 37/67/37 45/68/44 21/69/21
f 37/67/37 42/70/36 45/68/44
f 37/67/37 44/71/43 42/70/36
f 37/67/37 31/72/31 44/71/43
v 0.0781153 0.04669181 -0.146129
vt 0.825958 0.137512
vn 0.5364419 -0.6690478 -0.5143979
v -0.0781153 0.04669181 -0.146129
vt 0.164579 0.137512
vn -0.5378609 -0.665862 -0.5170429
v 0.00235898 0.200649 -0.408942
vt 0.505255 0.255611
vn 0.00261827 0.312452 -0.94993
vt -1.72513 0.0994487
vt -1.22731 0.504315
v 0.0828332 0.159754 -0.143471
vt -1.73017 0.461583
vn 0.6904891 0.445443 -0.5699171
v -0.0828331 0.159754 -0.143471
vn -0.6895151 0.4416581 -0.5740271
v 0.063945 0.295892 -0.0855748
vt -1.8032 0.897631
vn 0.4593918 0.4878578 -0.7422627
v -0.0639449 0.295892 -0.0855748
vn -0.459391 0.487858 -0.7422631
v -0.165666 0.120435 0
vt -2.00193 0.335647
vn -0.9637879 -0.07326929 -0.256407
v -0.12789 0.295892 0
vt -2.00193 0.897631
vn -0.7698477 0.5356318 -0.3470348
v -0.0828332 0.120435 0.143471
vt -0.00633174 0.364429
vn -0.1924511 -0.1576861 0.9685544
v 0.0828331 0.120435 0.143471
vt 1.00624 0.364429
vn 0.1924511 -0.1576861 0.9685544
v -0.063945 0.295892 0.104916
vt 0.109115 0.971223
vn -0.04880929 0.5435649 0.8379468
v 0.0639449 0.295892 0.104916
vt 0.890793 0.971223
vn 0.04880919 0.5435649 0.8379468
v 0.165666 0.120435 0
vn 0.9637882 -0.07326932 -0.2564061
v 0.12789 0.295892 0
vn 0.7698477 0.5356318 -0.3470348
v 0 0.31221 0
vt -2.00193 0.949896
vn 0 0.9999971 -0.00242089
vt -0.281724 0.971223
vt 0.499954 1.02766
vt 1.28163 0.971223
v -0.156231 0.04669181 0
vt -2.00193 0.0994487
vn -0.9353292 -0.3482141 -0.06250011
vt -0.454945 0.109397
v -0.0781153 0.04669181 0.106656
vt 0.0225045 0.109397
vn -0.3845279 -0.5756627 0.7216307
vt -0.512617 0.364429
v 0.0781153 0.04669181 0.106656
vt 0.977404 0.109397
vn 0.3845279 -0.5756627 0.7216307
v 0.156231 0.04669181 0
vt 1.45485 0.109397
vn 0.9353293 -0.3482141 -0.06249971
vt 1.51253 0.364429
v 0 0.0230561 0
vt 0.495269 0.0983797
vn 0 -0.999998 0.00201169
vt 0.499954 0.0276565
o merged_1_0_node
g polygon_0
usemtl mat_body_mat_id
f 54/73/53 55/74/54 56/75/55
f 54/76/53 56/77/55 57/78/56
f 58/78/57 56/77/55 55/76/54
f 57/78/56 56/77/55 58/78/57
f 57/78/56 58/78/57 59/79/58
f 59/79/58 58/78/57 60/79/59
f 61/80/60 62/81/61 58/78/57
f 58/78/57 62/81/61 60/79/59
f 63/82/62 64/83/63 65/84/64
f 65/84/64 64/83/63 66/85/65
f 67/80/66 57/78/56 68/81/67
f 68/81/67 57/78/56 59/79/58
f 59/79/58 60/79/59 69/86/68
f 60/79/59 62/81/61 69/86/68
f 62/87/61 65/84/64 69/88/68
f 65/84/64 66/85/65 69/88/68
f 66/85/65 68/89/67 69/88/68
f 68/81/67 59/79/58 69/86/68
f 70/90/69 61/80/60 55/76/54
f 55/76/54 61/80/60 58/78/57
f 70/91/69 71/92/70 61/93/60
f 61/93/60 71/92/70 63/82/62
f 71/92/70 72/94/71 63/82/62
f 63/82/62 72/94/71 64/83/63
f 73/95/72 67/96/66 72/94/71
f 72/94/71 67/96/66 64/83/63
f 73/90/72 54/76/53 67/80/66
f 67/80/66 54/76/53 57/78/56
f 55/74/54 54/73/53 74/97/73
f 72/94/71 71/92/70 74/98/73
vt 1 3.25
v -0.228286 0.218684 0.153426
vt 1 0
vn -0.8318207 0.08923717 0.5478238
v 0.228286 0.218684 0.153426
vn 0.8318204 0.08923715 0.5478243
v -0.0781163 7.450581E-09 0
vn -0.137474 -0.9904929 -0.004976079
v 0.0781163 7.450581E-09 0
vn 0.137474 -0.9904929 -0.004976
o merged_2_0_node
g polygon_0
usemtl mat_tume_mat_id
f 62/99/61 75/100/74 65/99/64
f 66/99/65 76/100/75 68/99/67
f 61/99/60 63/99/62 75/100/74
f 75/100/74 63/99/62 65/99/64
f 61/99/60 75/100/74 62/99/61
f 64/99/63 67/99/66 76/100/75
f 76/100/75 67/99/66 68/99/67
f 64/99/63 76/100/75 66/99/65
f 77/100/76 55/99/54 74/99/73
f 71/99/70 77/100/76 74/99/73
f 78/100/77 72/99/71 74/99/73
f 54/99/53 73/99/72 78/100/77
f 54/99/53 78/100/77 74/99/73
f 73/99/72 72/99/71 78/100/77
f 71/99/70 70/99/69 77/100/76
f 70/99/69 55/99/54 77/100/76
v -0.0356988 0.241304 -0.454731
vt 0 0.333333
vn -0.4259891 -0.02476401 -0.9043893
v -0.0356989 0.241304 -0.338228
vt 0.333333 0.333333
vn -0.4847209 -0.2008639 0.8512928
v -0.0343743 0.298327 -0.431249
vt 0 0.666667
vn -0.5497061 0.5010101 -0.6684401
v -0.0343743 0.298327 -0.34449
vt 0.333333 0.666667
vn -0.5814778 0.3714569 0.7238117
v 0.0651952 0.241304 -0.39648
vt 0.666667 0.333333
vn 0.9967319 0.018183 -0.07870799
v 0.0407611 0.298327 -0.38787
vt 0.666667 0.666667
vn 0.9816784 0.1904529 0.005926836
vt 1 0.333333
vt 1 0.666667
v 0.00105688 0.19414 -0.39648
vt 0.166667 0
vn 0.0137097 -0.999906 0
vt 0.5 0
vt 0.833333 0
v 0.0575141 0.3918 -0.370927
vt 0.166667 1
vn 0.06813332 0.9875814 0.141566
vt 0.5 1
vt 0.833333 1
o merged_3_0_node
g polygon_0
usemtl mat_fire_mat_id
f 79/101/78 80/102/79 81/103/80
f 81/103/80 80/102/79 82/104/81
f 83/105/82 84/106/83 80/102/79
f 80/102/79 84/106/83 82/104/81
f 83/105/82 79/107/78 84/106/83
f 84/106/83 79/107/78 81/108/80
f 80/102/79 79/101/78 85/109/84
f 83/105/82 80/102/79 85/110/84
f 79/107/78 83/105/82 85/111/84
f 81/103/80 82/104/81 86/112/85
f 82/104/81 84/106/83 86/113/85
f 84/106/83 81/108/80 86/114/85
vt 1.20063 0.973926
vt 1.20063 0.784312
vt 0.0515946 0.973926
vt 0.00953004 0.759055
vt -0.210865 0.808948
o merged_4_0_node
g polygon_0
usemtl TEX_ANIM_EYE_mat_id
f 28/115/28 22/116/22 34/117/34
f 22/116/22 31/118/31 34/117/34
f 33/117/33 37/119/37 21/118/21
f 21/118/21 20/116/20 33/117/33
f 27/115/27 33/117/33 20/116/20
f 31/118/31 37/119/37 34/117/34
