mtllib Spinda.mtl
v -0.166457 0.129346 0
vt 0.480071 0.206335
vn -0.9645178 -0.03701149 -0.261411
v -0.0832285 0.129346 -0.144156
vt 0.934304 0.206335
vn -0.4963511 0.172149 -0.8508821
v -0.156976 0.0552504 0
vt 0.509652 0.0887016
vn -0.929778 -0.368115 -0.00203674
v -0.0612393 0.297319 -0.100477
vt 0.951513 0.473007
vn -0.450057 0.415626 -0.790382
v -0.0784881 0.0552504 0.11955
vt 0.754546 0.0887016
vn -0.399922 -0.5327529 0.7458129
v -0.122479 0.297319 0
vt 0.617289 0.473007
vn -0.76947 0.529623 -0.356953
v -0.0832285 0.129346 0.144156
vt 0.707605 0.206335
vn -0.2081051 -0.105701 0.9723783
v -0.229375 0.219727 0.154159
vt 0.283756 0.349823
vn -0.8327671 0.08541271 0.546995
v -0.0784881 0.0552504 -0.146827
vn -0.4158671 -0.4564702 -0.7865682
v 0.0612394 0.297319 -0.100477
vt 1.04737 0.473007
vn 0.450057 0.415626 -0.790382
v 0.0832285 0.129346 -0.144156
vt 1.06458 0.206335
vn 0.4963511 0.172149 -0.8508821
v 0.0784881 0.0552504 0.11955
vt 1.24433 0.0887016
vn 0.399922 -0.5327529 0.7458129
v -0.0784891 7.450581E-09 0
vt 0.754543 0.0009868291
vn -0.1811699 -0.9834425 -0.004276028
v 0 0.0231661 0
vt 0.99944 0.037765
vn 0 -1 0
v -0.0612394 0.297319 0.100477
vt 0.808365 0.473007
vn -0.04826449 0.5658129 0.8231199
v 0 0.3137 0
vt 0.99944 0.499013
vn 0 1 0
v 0.0784881 0.0552504 -0.146827
vn 0.415868 -0.45647 -0.7865679
v 0.166457 0.129346 0
vt 1.51881 0.206335
vn 0.9645178 -0.03701159 -0.261411
v 0.156976 0.0552504 0
vt 1.48923 0.0887016
vn 0.929778 -0.368115 -0.00203643
v 0.0832285 0.129346 0.144156
vt 1.29128 0.206335
vn 0.2081051 -0.105701 0.9723783
v 0.0784891 7.450581E-09 0
vt 1.24434 0.0009868291
vn 0.1811699 -0.9834425 -0.004275968
v 0.122479 0.297319 0
vt 1.38159 0.473007
vn 0.7694699 0.5296239 -0.356952
v 0.0612394 0.297319 0.100477
vt 1.19052 0.473007
vn 0.04826429 0.5658129 0.8231199
v 0.229375 0.219727 0.154159
vt 1.71512 0.349823
vn 0.8327671 0.08541261 0.546995
v -0.295222 0.755027 -0.048996
vt 0.88707 0.947661
vn -0.3748939 -0.2297349 -0.8981517
v -0.236068 0.798748 -0.0489959
vt 0.895927 0.950935
vn 0.308568 0.296837 -0.9037
v -0.220724 0.716109 -0.0403192
vt 0.898225 0.944747
vn 0.2177319 -0.2945939 -0.9304876
v -0.270695 0.819472 -0.0283094
vt 0.890743 0.952486
vn -0.2395781 0.8647533 -0.4413661
v -0.274154 0.6766191 0
vt 0.890225 0.941791
vn -0.4182739 -0.9083209 0
v -0.304873 0.794211 -0.0283094
vt 0.885625 0.950595
vn -0.797103 0.479945 -0.366442
v -0.324799 0.733167 0
vt 0.882641 0.946025
vn -0.9156086 -0.4020708 0
v -0.167294 0.755598 0
vt 0.906226 0.947704
vn 0.9910735 0.1333169 0
v -0.206491 0.820608 0
vt 0.900356 0.952571
vn 0.653052 0.7573131 0
v -0.16989 0.64733 0
vt 0.905837 0.939598
vn 0.594371 -0.804191 0
v -0.295222 0.755027 0.048996
vt 0.568472 0.596892
vn -0.3748939 -0.2297349 0.8981517
vt 0.594808 0.547887
v -0.220724 0.716109 0.0403192
vt 0.661595 0.572568
vn 0.2177319 -0.2945939 0.9304876
vt 0.479038 0.59543
v -0.236068 0.798748 0.048996
vt 0.642415 0.624217
vn 0.308568 0.296837 0.9037
v -0.304873 0.794211 0.0283094
vt 0.556408 0.621382
vn -0.7971027 0.4799448 0.3664429
v -0.270695 0.819472 0.0283094
vt 0.599132 0.63717
vn -0.2395789 0.8647527 0.4413669
vt 0.725137 0.529581
vt 0.468795 0.655836
vt 0.728382 0.597249
vt 0.667185 0.656181
vt 0.563914 0.680029
v 0.295222 0.755027 -0.048996
vt 0.975482 0.947661
vn 0.3748939 -0.2297349 -0.8981517
v 0.220724 0.716109 -0.0403192
vt 0.964327 0.944747
vn -0.2177319 -0.2945939 -0.9304876
v 0.236068 0.798748 -0.0489959
vt 0.966625 0.950935
vn -0.3085689 0.2968369 -0.9036997
v 0.274154 0.6766191 0
vt 0.972328 0.941791
vn 0.4182739 -0.9083209 0
v 0.270695 0.819472 -0.0283094
vt 0.97181 0.952486
vn 0.239578 0.8647529 -0.441367
v 0.324799 0.733167 0
vt 0.979911 0.946025
vn 0.9156086 -0.4020708 0
v 0.304873 0.794211 -0.0283094
vt 0.976928 0.950595
vn 0.797103 0.479944 -0.366443
v 0.167294 0.755598 0
vt 0.956326 0.947704
vn -0.9910735 0.1333171 0
v 0.16989 0.64733 0
vt 0.956715 0.939598
vn -0.594371 -0.804191 0
v 0.206491 0.820608 0
vt 0.962196 0.952571
vn -0.653051 0.757314 0
v 0.295222 0.755027 0.048996
vt 0.931528 0.596892
vn 0.3748939 -0.2297349 0.8981517
v 0.220724 0.716109 0.0403192
vt 0.838405 0.572568
vn -0.2177319 -0.2945939 0.9304876
vt 0.905192 0.547887
v 0.236068 0.798748 0.048996
vt 0.857585 0.624217
vn -0.308568 0.296837 0.9037
vt 0.9868 0.582009
v 0.270695 0.819472 0.0283094
vt 0.900868 0.63717
vn 0.239578 0.8647529 0.441367
v 0.304873 0.794211 0.0283094
vt 0.943592 0.621382
vn 0.7971027 0.4799448 0.3664429
vt 0.774863 0.529581
vt 0.771618 0.597249
vt 0.984845 0.649025
vt 0.816954 0.650081
vt 0.909242 0.664678
v 0.0821333 0.490627 -0.215028
vt 0.351015 0.58337
vn 0.3584299 0 -0.9335567
v 0.132895 0.612687 -0.132895
vt 0.413154 0.65808
vn 0.5615612 0.6064013 -0.5629622
v 0.196127 0.490627 -0.121213
vt 0.490561 0.58337
vn 0.8507319 0 -0.5256
v 0 0.601958 -0.196127
vt 0.25047 0.651513
vn 0 0.5543402 -0.8322902
v 0.132895 0.368568 -0.132895
vt 0.413154 0.508659
vn 0.5615619 -0.606401 -0.5629619
v -0.0821333 0.490627 -0.215028
vt 0.149926 0.58337
vn -0.3584299 0 -0.9335567
v 0 0.379297 -0.196127
vt 0.25047 0.515226
vn 0 -0.5543396 -0.8322905
v -0.132895 0.612687 -0.132895
vt 0.0877861 0.65808
vn -0.5615612 0.6064013 -0.5629622
v -0.132895 0.368568 -0.132895
vt 0.0877861 0.508659
vn -0.5615609 -0.6064019 -0.5629619
v -0.196127 0.490627 -0.121213
vt 0.0103796 0.58337
vn -0.8507319 0 -0.5256
v 0.155358 0.368568 0.132895
vt 0.687097 0.7752
vn 0.5348951 -0.6828561 0.4975891
v 0.215028 0.41519 0
vt 0.874878 0.78659
vn 0.9297674 -0.3634531 -0.05860383
v 0.196127 0.457783 0.116573
vt 0.751604 0.824859
vn 0.9396729 -0.0297654 0.340777
v 0.121213 0.310491 0
vt 0.741175 0.693852
vn 0.480402 -0.876738 -0.0233362
v 0.159327 0.457783 0.174701
vt 0.699159 0.824713
vn 0.4738419 -0.0357058 0.8798858
v 0 0.293131 0.0821333
vt 0.5 0.694061
vn 0 -0.9481594 0.3177951
v 0 0.369572 0.196127
vt 0.5 0.769581
vn 0 -0.607841 0.7940589
v 0.215028 0.566064 0
vt 0.850291 0.908934
vn 0.9224593 0.3860171 0.007727453
v 0 0.457783 0.215028
vt 0.5 0.824713
vn 0 -0.0236575 0.9997201
v 0.155358 0.578207 0.141138
vt 0.675878 0.888858
vn 0.579294 0.537253 0.613007
v 0 0.567478 0.201033
vt 0.5 0.893272
vn 0 0.3924469 0.9197747
v -0.155358 0.368568 0.132895
vt 0.312903 0.7752
vn -0.5348951 -0.6828561 0.4975891
v -0.121213 0.310491 0
vt 0.258825 0.693852
vn -0.480402 -0.876738 -0.0233362
v -0.159327 0.457783 0.174701
vt 0.300841 0.824713
vn -0.4738419 -0.0357057 0.8798858
v 0.121213 0.670764 0
vt 0.694648 0.988465
vn 0.5130018 0.8559997 0.06398218
v -0.215028 0.41519 0
vt 0.125122 0.786589
vn -0.9297674 -0.3634531 -0.05860383
v -0.155358 0.578207 0.141138
vt 0.324122 0.888858
vn -0.579294 0.537253 0.613007
v 0 0.658899 0.127232
vt 0.5 0.945952
vn 0 0.8242204 0.5662692
v -0.196127 0.457783 0.116573
vt 0.248396 0.824859
vn -0.9396729 -0.0297654 0.340777
v 0 0.685946 0.0242245
vt 0.5 0.997261
vn 0 0.9884546 0.1515169
v -0.215028 0.566064 0
vt 0.149709 0.908934
vn -0.9224593 0.3860171 0.007727542
v -0.121213 0.670764 0
vt 0.305352 0.988465
vn -0.5130018 0.8559997 0.06398228
v 0 0.293131 -0.0821333
vt 0.930608 0.916965
vn 0 -0.9426513 -0.3337791
vt 0.945094 0.918002
vt 0.94649 0.921472
vt 0.916121 0.918002
vt 0.930608 0.922113
vt 0.914725 0.921472
vt 0.956305 0.924258
vt 0.90491 0.924258
vt 0.954046 0.928766
vt 0.907169 0.928766
vt 0.90491 0.933274
vt 0.956305 0.933274
vt 0.94649 0.93606
vt 0.914725 0.93606
vt 0.916121 0.93953
vt 0.945094 0.93953
v 0 0.688124 -0.0821333
vt 0.930608 0.940567
vn 0 0.9274392 -0.3739741
vt 0.930608 0.935418
vt 0.930608 0.940437
v 0.0517518 0.0985679 -0.186422
vt 0.978174 0.440225
vn 1 0 0
v 0 0.0985679 -0.227984
vt 0.943907 0.440225
vn 0 0 -1
v 0 0.15032 -0.186422
vt 0.943907 0.474493
v 0 0.0468161 -0.186422
vt 0.943907 0.405958
v 0 0.0985679 -0.14486
vn 0 0 1
v -0.0517518 0.0985679 -0.186422
vt 0.90964 0.440225
vn -1 0 0
o merged_0_0_node
g polygon_0
usemtl karada_mat_id
f 1/1/1 2/2/2 3/3/3
f 1/1/1 4/4/4 2/2/2
f 1/1/1 3/3/3 5/5/5
f 1/1/1 6/6/6 4/4/4
f 1/1/1 5/5/5 7/7/7
f 1/1/1 8/8/8 6/6/6
f 1/1/1 7/7/7 8/8/8
f 2/2/2 9/5/9 3/3/3
f 2/2/2 4/4/4 10/9/10
f 2/2/2 11/10/11 9/5/9
f 2/2/2 10/9/10 11/10/11
f 5/5/5 12/11/12 7/7/7
f 5/5/5 3/3/3 13/12/13
f 5/5/5 14/13/14 12/11/12
f 5/5/5 13/12/13 14/13/14
f 13/12/13 9/5/9 14/13/14
f 13/12/13 3/3/3 9/5/9
f 6/6/6 8/8/8 15/14/15
f 6/6/6 16/15/16 4/4/4
f 6/6/6 15/14/15 16/15/16
f 4/4/4 16/15/16 10/9/10
f 8/8/8 7/7/7 15/14/15
f 11/10/11 17/11/17 9/5/9
f 11/10/11 10/9/10 18/16/18
f 11/10/11 19/17/19 17/11/17
f 11/10/11 18/16/18 19/17/19
f 9/5/9 17/11/17 14/13/14
f 12/11/12 20/18/20 7/7/7
f 12/11/12 19/17/19 18/16/18
f 12/11/12 14/13/14 21/19/21
f 12/11/12 18/16/18 20/18/20
f 12/11/12 21/19/21 19/17/19
f 21/19/21 17/11/17 19/17/19
f 21/19/21 14/13/14 17/11/17
f 7/7/7 20/18/20 15/14/15
f 16/15/16 22/20/22 10/9/10
f 16/15/16 15/14/15 23/21/23
f 16/15/16 23/21/23 22/20/22
f 15/14/15 20/18/20 23/21/23
f 10/9/10 22/20/22 18/16/18
f 20/18/20 24/22/24 23/21/23
f 20/18/20 18/16/18 24/22/24
f 24/22/24 22/20/22 23/21/23
f 24/22/24 18/16/18 22/20/22
f 25/23/25 26/24/26 27/25/27
f 25/23/25 28/26/28 26/24/26
f 25/23/25 27/25/27 29/27/29
f 25/23/25 30/28/30 28/26/28
f 25/23/25 29/27/29 31/29/31
f 25/23/25 31/29/31 30/28/30
f 26/24/26 32/30/32 27/25/27
f 26/24/26 28/26/28 33/31/33
f 26/24/26 33/31/33 32/30/32
f 29/27/29 27/25/27 34/32/34
f 34/32/34 27/25/27 32/30/32
f 35/33/35 29/34/29 36/35/36
f 35/33/35 31/36/31 29/34/29
f 35/33/35 36/35/36 37/37/37
f 35/33/35 38/38/38 31/36/31
f 35/33/35 37/37/37 39/39/39
f 35/33/35 39/39/39 38/38/38
f 29/34/29 34/40/34 36/35/36
f 31/36/31 38/38/38 30/41/30
f 38/38/38 39/39/39 30/41/30
f 37/37/37 36/35/36 32/42/32
f 37/37/37 33/43/33 39/39/39
f 37/37/37 32/42/32 33/43/33
f 32/42/32 36/35/36 34/40/34
f 30/41/30 39/39/39 28/44/28
f 28/44/28 39/39/39 33/43/33
f 40/45/40 41/46/41 42/47/42
f 40/45/40 43/48/43 41/46/41
f 40/45/40 42/47/42 44/49/44
f 40/45/40 45/50/45 43/48/43
f 40/45/40 44/49/44 46/51/46
f 40/45/40 46/51/46 45/50/45
f 41/46/41 47/52/47 42/47/42
f 41/46/41 43/48/43 48/53/48
f 41/46/41 48/53/48 47/52/47
f 44/49/44 42/47/42 49/54/49
f 49/54/49 42/47/42 47/52/47
f 50/55/50 51/56/51 43/57/43
f 50/55/50 52/58/52 51/56/51
f 50/55/50 43/57/43 45/59/45
f 50/55/50 53/60/53 52/58/52
f 50/55/50 45/59/45 54/61/54
f 50/55/50 54/61/54 53/60/53
f 51/56/51 48/62/48 43/57/43
f 51/56/51 52/58/52 47/63/47
f 51/56/51 47/63/47 48/62/48
f 45/59/45 46/64/46 54/61/54
f 54/61/54 46/64/46 53/60/53
f 52/58/52 49/65/49 47/63/47
f 52/58/52 53/60/53 49/65/49
f 46/64/46 44/66/44 53/60/53
f 53/60/53 44/66/44 49/65/49
f 55/67/55 56/68/56 57/69/57
f 55/67/55 58/70/58 56/68/56
f 55/67/55 57/69/57 59/71/59
f 55/67/55 60/72/60 58/70/58
f 55/67/55 59/71/59 61/73/61
f 55/67/55 61/73/61 60/72/60
f 58/70/58 60/72/60 62/74/62
f 61/73/61 63/75/63 60/72/60
f 62/74/62 60/72/60 64/76/64
f 64/76/64 60/72/60 63/75/63
f 65/77/65 66/78/66 67/79/67
f 65/77/65 68/80/68 66/78/66
f 65/77/65 67/79/67 69/81/69
f 65/77/65 70/82/70 68/80/68
f 65/77/65 69/81/69 71/83/71
f 65/77/65 71/83/71 70/82/70
f 66/78/66 72/84/72 67/79/67
f 69/81/69 73/85/73 71/83/71
f 69/81/69 67/79/67 74/86/74
f 69/81/69 75/87/75 73/85/73
f 69/81/69 74/86/74 75/87/75
f 67/79/67 72/84/72 74/86/74
f 70/82/70 71/83/71 76/88/76
f 70/82/70 76/88/76 77/89/77
f 73/85/73 75/87/75 78/90/78
f 73/85/73 78/90/78 71/83/71
f 71/83/71 78/90/78 76/88/76
f 72/84/72 79/91/79 74/86/74
f 77/89/77 76/88/76 80/92/80
f 75/87/75 81/93/81 78/90/78
f 75/87/75 74/86/74 82/94/82
f 75/87/75 82/94/82 81/93/81
f 74/86/74 79/91/79 82/94/82
f 76/88/76 83/95/83 80/92/80
f 76/88/76 78/90/78 83/95/83
f 78/90/78 81/93/81 83/95/83
f 79/91/79 84/96/84 82/94/82
f 80/92/80 83/95/83 85/97/85
f 83/95/83 81/93/81 85/97/85
f 84/96/84 86/98/86 82/94/82
f 86/98/86 85/97/85 81/93/81
f 86/98/86 81/93/81 82/94/82
f 87/99/87 68/100/68 70/99/70
f 87/99/87 59/101/59 68/100/68
f 87/99/87 70/99/70 77/102/77
f 87/99/87 61/103/61 59/101/59
f 87/99/87 77/102/77 63/104/63
f 87/99/87 63/104/63 61/103/61
f 68/100/68 59/101/59 66/105/66
f 77/102/77 80/106/80 63/104/63
f 59/101/59 57/107/57 66/105/66
f 80/106/80 64/108/64 63/104/63
f 80/106/80 85/109/85 64/108/64
f 57/107/57 72/110/72 66/105/66
f 57/107/57 56/111/56 72/110/72
f 85/109/85 62/112/62 64/108/64
f 85/109/85 86/113/86 62/112/62
f 56/111/56 79/114/79 72/110/72
f 56/111/56 88/115/88 79/114/79
f 56/111/56 58/116/58 88/115/88
f 62/112/62 86/113/86 88/115/88
f 62/112/62 88/115/88 58/116/58
f 79/114/79 88/115/88 84/117/84
f 84/117/84 88/115/88 86/113/86
f 89/118/89 90/119/90 91/120/16
f 89/118/89 92/121/14 90/119/90
f 89/118/89 91/120/16 93/119/91
f 89/118/89 93/119/91 92/121/14
f 90/119/90 94/122/92 91/120/16
f 90/119/90 92/121/14 94/122/92
f 94/122/92 93/119/91 91/120/16
f 94/122/92 92/121/14 93/119/91
v -0.220724 0.716109 0.0457496
vt 0.373935 0.416484
vn 0.2217921 -0.3000871 0.9277694
v -0.295222 0.755027 0.0544264
vt 0.843092 0.661593
vn -0.3821111 -0.2301741 0.8949922
v -0.274154 0.6766191 0.00436798
vt 0.710373 0.167863
vn -0.2699401 -0.5836012 0.7658603
v -0.324799 0.733167 0.00436798
vt 1.02928 0.523941
vn -0.6848257 -0.4264818 0.5908697
v -0.236068 0.798748 0.0544264
vt 0.470599 0.936907
vn 0.3105738 0.3041179 0.9005866
v -0.167294 0.755598 0.00436799
vt 0.0375337 0.665153
vn 0.6371213 0.08680075 0.7658604
v -0.206491 0.820608 0.00436798
vt 0.284353 1.07451
vn 0.6912001 0.4167531 0.5903891
v -0.16989 0.64733 0.00436798
vt 0.0537942 -0.0166699
vn 0.258877 -0.350263 0.9001659
v -0.304873 0.794211 0.0326774
vt 0.903727 0.908279
vn -0.6063781 0.266487 0.7491931
vn 0.2007069 0.8487478 0.4892279
v -0.270695 0.819472 0.0326774
vt 0.688625 1.0674
vn -0.1278009 0.6084327 0.7832475
v 0.220724 0.716109 0.0457496
vn -0.2217921 -0.3000871 0.9277694
v 0.274154 0.6766191 0.00436798
vn 0.2699401 -0.5836012 0.7658603
v 0.295222 0.755027 0.0544264
vn 0.3821111 -0.2301741 0.8949922
v 0.324799 0.733167 0.00436798
vn 0.6848252 -0.4264821 0.5908701
v 0.236068 0.798748 0.0544264
vn -0.3105738 0.3041179 0.9005866
v 0.167294 0.755598 0.00436799
vn -0.6371208 0.08680089 0.7658607
v 0.206491 0.820608 0.00436798
vn -0.6911998 0.4167539 0.5903889
v 0.16989 0.64733 0.00436798
vn -0.2588769 -0.3502638 0.9001656
v 0.304873 0.794211 0.0326774
vn 0.6063779 0.2664879 0.7491929
v 0.270695 0.819472 0.0326774
vn 0.127801 0.6084331 0.7832471
vn -0.2007069 0.8487478 0.4892279
o merged_1_0_node
g polygon_0
usemtl mimi_mat_id
f 95/123/93 96/124/94 97/125/95
f 98/126/96 97/125/95 96/124/94
f 96/124/94 95/123/93 99/127/97
f 95/123/93 100/128/98 99/127/97
f 100/128/98 101/129/99 99/127/97
f 102/130/100 95/123/93 97/125/95
f 95/123/93 102/130/100 100/128/98
f 96/124/94 103/131/101 98/126/96
f 99/127/97 101/129/102 104/132/103
f 103/131/101 96/124/94 104/132/103
f 96/124/94 99/127/97 104/132/103
f 105/123/104 106/125/105 107/124/106
f 108/126/107 107/124/106 106/125/105
f 107/124/106 109/127/108 105/123/104
f 105/123/104 109/127/108 110/128/109
f 110/128/109 109/127/108 111/129/110
f 112/130/111 106/125/105 105/123/104
f 105/123/104 110/128/109 112/130/111
f 107/124/106 108/126/107 113/131/112
f 109/127/108 114/132/113 111/129/114
f 113/131/112 114/132/113 107/124/106
f 107/124/106 114/132/113 109/127/108
v 0 0.457783 0.217525
vt 0.00781977 0.862576
v 0 0.567478 0.203529
vt 0.00781977 1.00976
vn 0 0.193197 0.98116
v -0.159327 0.457783 0.177198
vt 0.86294 0.862576
vn -0.320766 -0.0425324 0.9462031
v -0.155358 0.578207 0.143635
vt 0.841636 1.02416
vn -0.331119 0.263444 0.906067
v 0.159327 0.457783 0.177198
vn 0.3207651 -0.04253251 0.9462034
v 0.155358 0.578207 0.143635
vn 0.331119 0.263444 0.906067
v 0.155358 0.368568 0.135391
vt 0.841636 0.74287
vn 0.3413442 -0.4112503 0.8451966
v 0 0.369572 0.198624
vt 0.00781977 0.744218
vn 0 -0.2918231 0.9564723
v -0.155358 0.368568 0.135391
vn -0.341344 -0.4112499 0.8451969
o merged_2_0_node
g polygon_0
usemtl TEX_ANIM_EYE_mat_id
f 115/133/73 116/134/115 117/135/116
f 117/135/116 116/134/115 118/136/117
f 115/133/73 119/135/118 116/134/115
f 116/134/115 119/135/118 120/136/119
f 121/137/120 119/135/118 122/138/121
f 122/138/121 119/135/118 115/133/73
f 123/137/122 122/138/121 117/135/116
f 117/135/116 122/138/121 115/133/73
