mtllib Klink.mtl
v 0.207771 0.319042 -0.04
vt 0.370644 0.099919
vn 0.0003592849 0.0005743729 -0.9999998
v 0.142915 0.377165 -0.04
vt 0.351162 0.31677
v 0.218463 0.354068 -0.04
vt 0.449912 0.14573
v 0.132192 0.342149 -0.04
vt 0.271854 0.271029
v 0.1266 0.1887 -0.0401194
vt 0 0
v 0.0543062 0.324167 -0.04
vt 0.09879 0.370947
v -0.00349438 0.270267 -0.04
vt -0.0987905 0.370947
v -0.0284581 0.297061 -0.04
vt -0.0987502 0.4625
v 0.0293188 0.350939 -0.04
vt 0.0987497 0.4625
v -0.0268651 0.193826 -0.04
vt -0.271854 0.271029
v -0.00908682 0.116819 -0.04
vt -0.370645 0.0999192
v -0.044773 0.108597 -0.04
vt -0.449912 0.14573
v -0.0625441 0.185572 -0.04
vt -0.351162 0.31677
v 0.0454288 0.058358 -0.04
vt -0.370645 -0.0999185
v 0.121008 0.0352513 -0.04
vt -0.271854 -0.271028
v 0.110285 0.000234997 -0.04
vt -0.351162 -0.31677
v 0.0347372 0.0233324 -0.04
vt -0.449912 -0.14573
v 0.198894 0.0532327 -0.04
vt -0.0987905 -0.370947
v 0.256694 0.107132 -0.04
vt 0.09879 -0.370947
v 0.281658 0.0803384 -0.04
vt 0.0987497 -0.4625
v 0.223881 0.0264606 -0.04
vt -0.0987502 -0.4625
v 0.280065 0.183575 -0.04
vt 0.271854 -0.271028
v 0.262287 0.260581 -0.0400001
vt 0.370644 -0.0999181
v 0.297973 0.268804 -0.0400001
vt 0.449911 -0.14573
v 0.315744 0.191828 -0.0400001
vt 0.351161 -0.31677
v 0.207748 0.31902 0.04
vt 0.964314 0.693669
vn -0.0003593389 -0.0005743579 0.9999998
v 0.218463 0.354068 0.04
vt 1.04366 0.73948
v 0.142915 0.377165 0.04
vt 0.944912 0.91052
v 0.132199 0.342117 0.04
vt 0.865564 0.864709
v 0.0543134 0.324136 0.04
vt 0.6925 0.964627
v 0.1266 0.1887 0.0398806
vt 0.59375 0.59375
v -0.00346358 0.270258 0.04
vt 0.495 0.964627
v 0.0293188 0.350939 0.04
vt 0.6925 1.05625
v -0.0284581 0.297061 0.04
vt 0.495 1.05625
v -0.0268342 0.193816 0.04
vt 0.321936 0.864709
v -0.00906326 0.116841 0.04
vt 0.223186 0.693669
v -0.0625441 0.185572 0.04
vt 0.242589 0.91052
v -0.0447729 0.108597 0.04
vt 0.143838 0.73948
v 0.0454523 0.05838 0.04
vt 0.223186 0.493831
v 0.121 0.0352827 0.04
vt 0.321936 0.322791
v 0.0347372 0.0233324 0.04
vt 0.143838 0.44802
v 0.110285 0.000234985 0.04
vt 0.242588 0.27698
v 0.198887 0.0532641 0.04
vt 0.495 0.222873
v 0.256664 0.107142 0.04
vt 0.6925 0.222873
v 0.223881 0.0264606 0.04
vt 0.495 0.13125
v 0.281658 0.0803385 0.04
vt 0.6925 0.13125
v 0.280034 0.183584 0.04
vt 0.865564 0.322791
v 0.262263 0.260559 0.0399999
vt 0.964314 0.493832
v 0.315744 0.191828 0.0399999
vt 0.944912 0.27698
v 0.297973 0.268804 0.0399999
vt 1.04366 0.44802
vt 0.222717 0.0710458
vn 0.9563692 -0.292161 0.000100567
vt 0.229936 0.075214
vn 0.292371 0.956305 0
vt 0.220951 0.0907763
vn -0.9562405 0.2925819 0.0001005669
vt 0.213735 0.0866145
vn -0.224951 0.97437 0.000402659
vt 0.197989 0.0957057
vn 0.7312039 0.6821589 0.00010067
vt 0.197985 0.104036
vn -0.681998 0.731354 0
vt 0.180015 0.104036
vn -0.7315041 -0.6818371 0.00010067
vt 0.180012 0.0957057
vt 0.164265 0.0866145
vt 0.157049 0.0907763
vn -0.9743701 -0.224951 0
vt 0.148064 0.075214
vn 0.2247369 -0.9744195 0.0001006699
vt 0.155277 0.0710458
vt 0.155277 0.0528632
vt 0.148064 0.0486951
vn -0.2923719 -0.9563047 0
vt 0.157049 0.0331327
vt 0.164265 0.0372946
vt 0.180012 0.0282033
vt 0.180015 0.0198732
vn 0.681998 -0.731354 0
vt 0.197985 0.0198732
vt 0.197989 0.0282033
vt 0.213735 0.0372946
vt 0.220951 0.0331327
vn 0.9743701 0.224951 -1.22604E-06
vt 0.229936 0.0486951
vt 0.222724 0.0528633
v 0.116202 0.23374 0.04
vt 0.083392 0.979085
vn -0.135792 0.588179 0.797249
v 0.0823949 0.202215 0.04
vt 0.0351546 0.979085
vn -0.577274 0.176491 0.7972489
v 0.1266 0.1887 0.075
vt 0.0592733 0.93731
v 0.0927932 0.157175 0.04
vt 0.0110359 0.93731
vn -0.441482 -0.411689 0.797249
v 0.136998 0.14366 0.04
vt 0.0351546 0.895535
vn 0.135792 -0.588179 0.797249
v 0.170805 0.175185 0.04
vt 0.083392 0.895535
vn 0.5772747 -0.1764899 0.7972486
v 0.160407 0.220225 0.04
vt 0.107511 0.93731
vn 0.441482 0.411689 0.797249
v 0.0110788 0.366184 -0.04
v 0.0477001 0.4452 -0.04
v 0.0477001 0.3662 -0.04
v 0.0110787 0.445216 -0.04
v -0.1373 0.4057 -0.0401194
v -0.0288887 0.514442 -0.04
v -0.0973325 0.553958 -0.04
v -0.0790081 0.585665 -0.04
v -0.0105921 0.546165 -0.04
v -0.177267 0.553958 -0.04
v -0.245711 0.514442 -0.04
v -0.264008 0.546165 -0.04
v -0.195592 0.585665 -0.04
v -0.285679 0.445216 -0.04
v -0.285679 0.366184 -0.04
v -0.3223 0.3662 -0.04
v -0.3223 0.4452 -0.04
v -0.245711 0.296958 -0.04
v -0.177268 0.257442 -0.04
v -0.195592 0.225735 -0.04
v -0.264008 0.265235 -0.04
v -0.0973325 0.257442 -0.04
v -0.0288886 0.296958 -0.0400001
v -0.010592 0.265235 -0.0400001
v -0.079008 0.225735 -0.0400001
v 0.0110509 0.3662 0.04
v 0.0477001 0.3662 0.04
v 0.0477001 0.4452 0.04
v 0.0110508 0.4452 0.04
v -0.0289166 0.514426 0.04
v -0.1373 0.4057 0.0398806
v -0.0973325 0.553926 0.04
v -0.0105921 0.546165 0.04
v -0.0790081 0.585665 0.04
v -0.177267 0.553926 0.04
v -0.245683 0.514426 0.04
v -0.195592 0.585665 0.04
v -0.264008 0.546165 0.04
v -0.285651 0.4452 0.04
v -0.285651 0.3662 0.04
v -0.3223 0.4452 0.04
v -0.3223 0.3662 0.04
v -0.245683 0.296974 0.04
v -0.177267 0.257474 0.04
v -0.264008 0.265235 0.04
v -0.195592 0.225735 0.04
v -0.0973325 0.257474 0.04
v -0.0289165 0.296974 0.0399999
v -0.079008 0.225735 0.0399999
v -0.0105919 0.265235 0.0399999
vn 0.000219316 -1 0.000100872
vn 1 0 0
vn 0.000219967 1 0.000100872
vn 0.8660252 0.5000002 0.0004026591
vn 0.8661351 -0.49981 0.000101076
vn 0.5000002 0.8660253 0
vn -0.8659158 0.5001899 0.000100873
vn -0.4999998 0.8660256 0
vn -0.8661351 -0.49981 0.00010067
vn -1 0 0
vn -0.5000002 -0.8660253 0
vn 0.4999998 -0.8660256 -1.320359E-06
v -0.0972681 0.428812 0.04
vn 0.5227768 0.3018259 0.7972487
v -0.1373 0.451925 0.04
vn 0 0.603652 0.7972479
v -0.1373 0.4057 0.075
v -0.177332 0.428812 0.04
vn -0.5227768 0.3018259 0.7972487
v -0.177332 0.382588 0.04
vn -0.522777 -0.301825 0.797249
v -0.1373 0.359475 0.04
vn 0 -0.6036509 0.7972488
v -0.0972681 0.382588 0.04
vn 0.522777 -0.301825 0.797249
o merged_0_0_node
g polygon_0
usemtl mat_body_mat_id
f 1/1/1 2/2/1 3/3/1
f 1/1/1 4/4/1 2/2/1
f 4/4/1 5/5/1 6/6/1
f 7/7/1 6/6/1 5/5/1
f 6/6/1 8/8/1 9/9/1
f 6/6/1 7/7/1 8/8/1
f 7/7/1 5/5/1 10/10/1
f 11/11/1 10/10/1 5/5/1
f 10/10/1 12/12/1 13/13/1
f 10/10/1 11/11/1 12/12/1
f 11/11/1 5/5/1 14/14/1
f 15/15/1 14/14/1 5/5/1
f 14/14/1 16/16/1 17/17/1
f 14/14/1 15/15/1 16/16/1
f 15/15/1 5/5/1 18/18/1
f 19/19/1 18/18/1 5/5/1
f 18/18/1 20/20/1 21/21/1
f 18/18/1 19/19/1 20/20/1
f 19/19/1 5/5/1 22/22/1
f 23/23/1 22/22/1 5/5/1
f 22/22/1 24/24/1 25/25/1
f 22/22/1 23/23/1 24/24/1
f 23/23/1 5/5/1 1/1/1
f 4/4/1 1/1/1 5/5/1
f 26/26/2 27/27/2 28/28/2
f 26/26/2 28/28/2 29/29/2
f 29/29/2 30/30/2 31/31/2
f 32/32/2 31/31/2 30/30/2
f 30/30/2 33/33/2 34/34/2
f 30/30/2 34/34/2 32/32/2
f 32/32/2 35/35/2 31/31/2
f 36/36/2 31/31/2 35/35/2
f 35/35/2 37/37/2 38/38/2
f 35/35/2 38/38/2 36/36/2
f 36/36/2 39/39/2 31/31/2
f 40/40/2 31/31/2 39/39/2
f 39/39/2 41/41/2 42/42/2
f 39/39/2 42/42/2 40/40/2
f 40/40/2 43/43/2 31/31/2
f 44/44/2 31/31/2 43/43/2
f 43/43/2 45/45/2 46/46/2
f 43/43/2 46/46/2 44/44/2
f 44/44/2 47/47/2 31/31/2
f 48/48/2 31/31/2 47/47/2
f 47/47/2 49/49/2 50/50/2
f 47/47/2 50/50/2 48/48/2
f 48/48/2 26/26/2 31/31/2
f 29/29/2 31/31/2 26/26/2
f 26/51/3 1/51/3 27/52/3
f 27/52/3 1/51/3 3/52/3
f 27/52/4 3/52/4 28/53/4
f 28/53/4 3/52/4 2/53/4
f 28/53/5 2/53/5 29/54/5
f 29/54/5 2/53/5 4/54/5
f 29/54/6 4/54/6 30/55/6
f 30/55/6 4/54/6 6/55/6
f 30/55/7 6/55/7 33/56/7
f 33/56/7 6/55/7 9/56/7
f 33/56/8 9/56/8 34/57/8
f 34/57/8 9/56/8 8/57/8
f 34/57/9 8/57/9 32/58/9
f 32/58/9 8/57/9 7/58/9
f 32/58/5 7/58/5 35/59/5
f 35/59/5 7/58/5 10/59/5
f 35/59/6 10/59/6 37/60/6
f 37/60/6 10/59/6 13/60/6
f 37/60/10 13/60/10 38/61/10
f 38/61/10 13/60/10 12/61/10
f 38/61/11 12/61/11 36/62/11
f 36/62/11 12/61/11 11/62/11
f 36/62/9 11/62/9 39/63/9
f 39/63/9 11/62/9 14/63/9
f 39/63/5 14/63/5 41/64/5
f 41/64/5 14/63/5 17/64/5
f 41/64/12 17/64/12 42/65/12
f 42/65/12 17/64/12 16/65/12
f 42/65/3 16/65/3 40/66/3
f 40/66/3 16/65/3 15/66/3
f 40/66/11 15/66/11 43/67/11
f 43/67/11 15/66/11 18/67/11
f 43/67/9 18/67/9 45/68/9
f 45/68/9 18/67/9 21/68/9
f 45/68/13 21/68/13 46/69/13
f 46/69/13 21/68/13 20/69/13
f 46/69/7 20/69/7 44/70/7
f 44/70/7 20/69/7 19/70/7
f 44/70/3 19/70/3 47/71/3
f 47/71/3 19/70/3 22/71/3
f 47/71/11 22/71/11 49/72/11
f 49/72/11 22/71/11 25/72/11
f 49/72/14 25/72/14 50/73/14
f 50/73/14 25/72/14 24/73/14
f 50/73/6 24/73/6 48/74/6
f 48/74/6 24/73/6 23/74/6
f 48/74/7 23/74/7 26/51/7
f 26/51/7 23/74/7 1/51/7
f 51/75/15 52/76/16 53/77/2
f 52/76/16 54/78/17 53/77/2
f 54/78/17 55/79/18 53/77/2
f 55/79/18 56/80/19 53/77/2
f 56/80/19 57/81/20 53/77/2
f 57/81/20 51/75/15 53/77/2
f 58/1/1 59/2/1 60/3/1
f 58/1/1 61/4/1 59/2/1
f 61/4/1 62/5/1 63/6/1
f 64/7/1 63/6/1 62/5/1
f 63/6/1 65/8/1 66/9/1
f 63/6/1 64/7/1 65/8/1
f 64/7/1 62/5/1 67/10/1
f 68/11/1 67/10/1 62/5/1
f 67/10/1 69/12/1 70/13/1
f 67/10/1 68/11/1 69/12/1
f 68/11/1 62/5/1 71/14/1
f 72/15/1 71/14/1 62/5/1
f 71/14/1 73/16/1 74/17/1
f 71/14/1 72/15/1 73/16/1
f 72/15/1 62/5/1 75/18/1
f 76/19/1 75/18/1 62/5/1
f 75/18/1 77/20/1 78/21/1
f 75/18/1 76/19/1 77/20/1
f 76/19/1 62/5/1 79/22/1
f 80/23/1 79/22/1 62/5/1
f 79/22/1 81/24/1 82/25/1
f 79/22/1 80/23/1 81/24/1
f 80/23/1 62/5/1 58/1/1
f 61/4/1 58/1/1 62/5/1
f 83/26/2 84/27/2 85/28/2
f 83/26/2 85/28/2 86/29/2
f 86/29/2 87/30/2 88/31/2
f 89/32/2 88/31/2 87/30/2
f 87/30/2 90/33/2 91/34/2
f 87/30/2 91/34/2 89/32/2
f 89/32/2 92/35/2 88/31/2
f 93/36/2 88/31/2 92/35/2
f 92/35/2 94/37/2 95/38/2
f 92/35/2 95/38/2 93/36/2
f 93/36/2 96/39/2 88/31/2
f 97/40/2 88/31/2 96/39/2
f 96/39/2 98/41/2 99/42/2
f 96/39/2 99/42/2 97/40/2
f 97/40/2 100/43/2 88/31/2
f 101/44/2 88/31/2 100/43/2
f 100/43/2 102/45/2 103/46/2
f 100/43/2 103/46/2 101/44/2
f 101/44/2 104/47/2 88/31/2
f 105/48/2 88/31/2 104/47/2
f 104/47/2 106/49/2 107/50/2
f 104/47/2 107/50/2 105/48/2
f 105/48/2 83/26/2 88/31/2
f 86/29/2 88/31/2 83/26/2
f 83/51/21 58/51/21 84/52/21
f 84/52/21 58/51/21 60/52/21
f 84/52/22 60/52/22 85/53/22
f 85/53/22 60/52/22 59/53/22
f 85/53/23 59/53/23 86/54/23
f 86/54/23 59/53/23 61/54/23
f 86/54/24 61/54/24 87/55/24
f 87/55/24 61/54/24 63/55/24
f 87/55/25 63/55/25 90/56/25
f 90/56/25 63/55/25 66/56/25
f 90/56/26 66/56/26 91/57/26
f 91/57/26 66/56/26 65/57/26
f 91/57/27 65/57/27 89/58/27
f 89/58/27 65/57/27 64/58/27
f 89/58/23 64/58/23 92/59/23
f 92/59/23 64/58/23 67/59/23
f 92/59/24 67/59/24 94/60/24
f 94/60/24 67/59/24 70/60/24
f 94/60/28 70/60/28 95/61/28
f 95/61/28 70/60/28 69/61/28
f 95/61/29 69/61/29 93/62/29
f 93/62/29 69/61/29 68/62/29
f 93/62/27 68/62/27 96/63/27
f 96/63/27 68/62/27 71/63/27
f 96/63/23 71/63/23 98/64/23
f 98/64/23 71/63/23 74/64/23
f 98/64/30 74/64/30 99/65/30
f 99/65/30 74/64/30 73/65/30
f 99/65/21 73/65/21 97/66/21
f 97/66/21 73/65/21 72/66/21
f 97/66/29 72/66/29 100/67/29
f 100/67/29 72/66/29 75/67/29
f 100/67/27 75/67/27 102/68/27
f 102/68/27 75/67/27 78/68/27
f 102/68/31 78/68/31 103/69/31
f 103/69/31 78/68/31 77/69/31
f 103/69/25 77/69/25 101/70/25
f 101/70/25 77/69/25 76/70/25
f 101/70/21 76/70/21 104/71/21
f 104/71/21 76/70/21 79/71/21
f 104/71/29 79/71/29 106/72/29
f 106/72/29 79/71/29 82/72/29
f 106/72/32 82/72/32 107/73/32
f 107/73/32 82/72/32 81/73/32
f 107/73/24 81/73/24 105/74/24
f 105/74/24 81/73/24 80/74/24
f 105/74/25 80/74/25 83/51/25
f 83/51/25 80/74/25 58/51/25
f 108/75/33 109/76/34 110/77/2
f 109/76/34 111/78/35 110/77/2
f 111/78/35 112/79/36 110/77/2
f 112/79/36 113/80/37 110/77/2
f 113/80/37 114/81/38 110/77/2
f 114/81/38 108/75/33 110/77/2
