mtllib Shelgon.mtl
v -0.253282 0.154023 0
vt 0.750399 1
vn -0.8660253 -0.5000002 0
v -0.236897 0.300256 -0.178553
vt 0.602656 0.6
vn -0.8928329 -0.17546 -0.414805
v -0.212757 0.17742 -0.178553
vt 0.750399 0.6
vn -0.7673721 -0.4430421 -0.4635231
v -0.28202 0.300256 0
vt 0.568063 1
vn -0.9812318 -0.192832 0
v -0.118448 0.0950972 -0.178553
vt 0.898143 0.6
vn -0.5983691 -0.6854861 -0.4148051
v -0.236897 0.300256 0.178553
vt 0.602656 1.4
vn -0.8928329 -0.17546 0.414805
v -0.14101 0.0560193 0
vt 0.932735 1
vn -0.6576135 -0.7533554 0
v -0.212757 0.17742 0.178553
vt 0.750399 1.4
vn -0.7673721 -0.4430421 0.4635231
v -0.118448 0.0950972 0.178553
vt 0.898143 1.4
vn -0.5983691 -0.6854861 0.4148051
v -0.146859 0.300256 -0.27315
vt 0.67108 0.3
vn -0.3525259 -0.133542 -0.9262246
v -0.0734296 0.173072 -0.27315
vt 0.829718 0.3
vn -0.2919141 -0.2385261 -0.9262244
v -0.146859 0.300256 0.27315
vt 0.67108 1.7
vn -0.3525259 -0.133542 0.9262246
v -0.0734296 0.173072 0.27315
vt 0.829718 1.7
vn -0.2919141 -0.2385261 0.9262244
v 0 0.300256 -0.238812
vt 0.750399 0
vn 0.225734 0.130328 -0.9654319
v 0 0.300256 0.238812
vt 0.750399 2
vn 0.225734 0.130328 0.9654319
v 0 0.00779066 0
vn 0 -1 0
vn -0.294464 -0.8609459 -0.4148049
v 0 0.0545851 -0.178553
vn 0 -0.8860849 -0.463523
vn -0.323618 -0.9461879 0
v 0.118448 0.0950971 -0.178553
vn 0.2944631 -0.8609462 -0.4148051
vn -0.294464 -0.8609459 0.4148049
v 0.14101 0.0560193 0
vn 0.323618 -0.9461879 0
v 0 0.0545851 0.178553
vn 0 -0.8860849 0.463523
v 0.118448 0.0950971 0.178553
vn 0.2944631 -0.8609462 0.4148051
vn -0.06061232 -0.3720681 -0.9262244
v 0.0734296 0.173072 -0.27315
vn 0.06061222 -0.3720681 -0.9262244
vn -0.06061222 -0.3720681 0.9262244
v 0.0734296 0.173072 0.27315
vn 0.06061222 -0.3720681 0.9262244
vn 0 0.260655 -0.965432
vn 0 0.260655 0.965432
v 0 0.545926 -0.178553
vt 0.248277 0.6
vn 0 0.8763748 -0.4816298
v 0.118448 0.505414 -0.178553
vt 0.102012 0.6
vn 0.2913911 0.8519645 -0.4350262
v 0.0734296 0.42744 -0.27315
vt 0.169752 0.3
vn 0.06061222 0.3720681 -0.9262244
v 0.070505 0.568606 0
vt 0.187625 1
vn 0.3927909 0.9196278 0
v -0.0734296 0.42744 -0.27315
vt 0.326803 0.3
vn -0.06061222 0.3720681 -0.9262244
v 0 0.60938 0
vt 0.248277 1
vn 0 1 0
v -0.118448 0.505414 -0.178553
vt 0.394542 0.6
vn -0.291391 0.8519641 -0.435027
v -0.0705049 0.568606 0
vt 0.306041 1
vn -0.3927909 0.9196278 0
v 0.14101 0.544492 0
vt 0.067766 1
vn 0.3236171 0.9461882 0
vt 0.248277 0
vn 0 -0.2606559 -0.9654317
v 0 0.545926 0.178553
vt 0.248277 1.4
vn 0 0.8763748 0.4816298
v -0.14101 0.544492 0
vt 0.428788 1
vn -0.323618 0.9461879 0
v 0.118448 0.505414 0.178553
vt 0.102012 1.4
vn 0.2913911 0.8519645 0.4350262
v -0.118448 0.505414 0.178553
vt 0.394542 1.4
vn -0.291391 0.8519641 0.435027
v 0.0734296 0.42744 0.27315
vt 0.169752 1.7
vn 0.06061222 0.3720681 0.9262244
v -0.0734296 0.42744 0.27315
vt 0.326803 1.7
vn -0.06061212 0.3720681 0.9262244
vt 0.248277 2
vn 0 -0.2606559 0.9654317
v -0.212757 0.423091 -0.178553
vn -0.7589626 0.4381878 -0.4816298
vn -0.592126 0.678335 -0.435027
vn -0.2919141 0.2385261 -0.9262244
v -0.197146 0.49549 0
vn -0.6000252 0.7999812 0
vn -0.3525271 0.133542 -0.9262242
v -0.267709 0.454818 0
vn -0.8660253 0.5000002 0
vn -0.883518 0.17363 -0.435027
v -0.267651 0.373372 0
vn -0.9928166 0.119646 0
vn -0.657614 0.753355 0
vn 0.225734 -0.130328 -0.9654319
v -0.212757 0.423091 0.178553
vn -0.7589626 0.4381878 0.4816298
vn -0.9812316 0.1928329 0
vn -0.5921267 0.6783346 0.4350267
vn -0.883518 0.17363 0.435027
vn -0.2919141 0.2385261 0.9262244
vn -0.3525262 0.1335421 0.9262245
vn 0.225734 -0.130328 0.9654319
v 0.212757 0.423091 -0.178553
vn 0.7589629 0.438187 -0.48163
v 0.236897 0.300256 -0.178553
vn 0.883518 0.17363 -0.435027
v 0.146859 0.300256 -0.27315
vn 0.3525271 0.133542 -0.9262242
v 0.267651 0.373372 0
vn 0.9928166 0.119646 0
vn 0.2919141 0.2385261 -0.9262244
v 0.267709 0.454818 0
vn 0.8660253 0.5000002 0
vn 0.5921271 0.6783341 -0.435027
v 0.197146 0.49549 0
vn 0.6000252 0.7999812 0
v 0.28202 0.300256 0
vn 0.9812316 0.1928329 0
vn -0.225734 -0.130328 -0.9654319
v 0.212757 0.423091 0.178553
vn 0.7589629 0.438187 0.48163
vn 0.6576135 0.7533554 0
v 0.236897 0.300256 0.178553
vn 0.883518 0.17363 0.435027
vn 0.5921271 0.6783341 0.435027
v 0.146859 0.300256 0.27315
vn 0.3525271 0.133542 0.9262242
vn 0.2919141 0.2385261 0.9262244
vn -0.225734 -0.130328 0.9654319
v 0.212757 0.17742 -0.178553
vn 0.7654369 -0.4515069 -0.458528
vn 0.5957268 -0.6824588 -0.4235088
vn 0.2919141 -0.2385261 -0.9262244
vn 0.657613 -0.753356 0
vn 0.3525262 -0.1335421 -0.9262245
v 0.253282 0.154023 0
vn 0.860576 -0.509322 0
vn 0.8928329 -0.17546 -0.414805
vn -0.225734 0.130328 -0.9654319
v 0.212757 0.17742 0.178553
vn 0.7654369 -0.4515069 0.458528
vn 0.5957272 -0.6824582 0.4235091
vn 0.9812316 -0.1928329 0
vn 0.2919141 -0.2385261 0.9262244
vn 0.8928329 -0.17546 0.414805
vn 0.3525262 -0.1335421 0.9262245
vn -0.225734 0.130328 0.9654319
v 0.165227 -0.003147175 0.1315207
vt 0.500677 0.0425092
vn 0.6543202 -0.7209231 0.2283306
v 0.193695 0.186585 0.173579
vt 0.381532 0.181771
vn 0.882477 -0.224085 0.413546
v 0.0854146 0.0894643 0.158321
vt 0.461208 0.24543
vn -0.2013459 -0.4284578 0.8808426
v 0.096238 0.0632292 0.0633858
vt 0.539168 0.24543
vn -0.143105 -0.7774548 -0.6124419
v 0.203627 0.1522 0.0176334
vt 0.619071 0.180942
vn 0.932298 -0.333351 -0.140348
v -0.165227 -0.003147165 0.1315207
vn -0.6543202 -0.7209231 0.2283306
v -0.0854146 0.0894643 0.158321
vn 0.2013459 -0.4284578 0.8808426
v -0.193695 0.186585 0.173579
vn -0.882477 -0.224085 0.413546
v -0.096238 0.0632292 0.0633858
vn 0.143105 -0.7774548 -0.6124419
v -0.203627 0.1522 0.0176334
vn -0.932298 -0.333351 -0.140348
v 0.165227 -0.003147944 -0.1315212
vn 0.6657845 -0.7170733 -0.2062445
v 0.0887076 0.0856434 -0.157216
vn -0.209517 -0.4341401 -0.8761421
v 0.193695 0.186585 -0.173579
vn 0.8939861 -0.220599 -0.3900321
v 0.0956986 0.0637482 -0.062853
vn -0.1214471 -0.7696685 0.6267864
v 0.203627 0.1522 -0.0176334
vn 0.9308846 -0.3357143 0.1440481
v -0.165227 -0.003147934 -0.1315212
vn -0.665784 -0.7170737 -0.2062447
v -0.193695 0.186585 -0.173579
vn -0.8939861 -0.220599 -0.3900321
v -0.0887076 0.0856434 -0.157216
vn 0.209517 -0.4341401 -0.8761421
v -0.0956985 0.0637482 -0.062853
vn 0.1214471 -0.7696685 0.6267864
v -0.203627 0.1522 -0.0176334
vn -0.9308844 -0.3357148 0.1440479
vt 0.431207 0.0373891
o merged_0_0_node
g polygon_0
usemtl mat_body1_mat_id
f 1/1/1 2/2/2 3/3/3
f 1/1/1 4/4/4 2/2/2
f 1/1/1 3/3/3 5/5/5
f 1/1/1 6/6/6 4/4/4
f 1/1/1 5/5/5 7/7/7
f 1/1/1 8/8/8 6/6/6
f 1/1/1 7/7/7 9/9/9
f 1/1/1 9/9/9 8/8/8
f 2/2/2 10/10/10 3/3/3
f 5/5/5 3/3/3 11/11/11
f 3/3/3 10/10/10 11/11/11
f 6/6/6 8/8/8 12/12/12
f 9/9/9 13/13/13 8/8/8
f 8/8/8 13/13/13 12/12/12
f 10/10/10 14/14/14 11/11/11
f 13/13/13 15/15/15 12/12/12
f 16/1/16 5/2/17 17/3/18
f 16/1/16 7/4/19 5/2/17
f 16/1/16 17/3/18 18/5/20
f 16/1/16 9/6/21 7/4/19
f 16/1/16 18/5/20 19/7/22
f 16/1/16 20/8/23 9/6/21
f 16/1/16 19/7/22 21/9/24
f 16/1/16 21/9/24 20/8/23
f 5/2/17 11/10/25 17/3/18
f 18/5/20 17/3/18 22/11/26
f 17/3/18 11/10/25 22/11/26
f 9/6/21 20/8/23 13/12/27
f 21/9/24 23/13/28 20/8/23
f 20/8/23 23/13/28 13/12/27
f 11/10/25 14/14/29 22/11/26
f 23/13/28 15/15/30 13/12/27
f 24/16/31 25/17/32 26/18/33
f 24/16/31 27/19/34 25/17/32
f 24/16/31 26/18/33 28/20/35
f 24/16/31 29/21/36 27/19/34
f 24/16/31 28/20/35 30/22/37
f 24/16/31 31/23/38 29/21/36
f 24/16/31 30/22/37 31/23/38
f 25/17/32 27/19/34 32/24/39
f 26/18/33 14/25/40 28/20/35
f 29/21/36 31/23/38 33/26/41
f 29/21/36 33/26/41 27/19/34
f 30/22/37 34/27/42 31/23/38
f 32/24/39 27/19/34 35/28/43
f 27/19/34 33/26/41 35/28/43
f 34/27/42 36/29/44 31/23/38
f 31/23/38 36/29/44 33/26/41
f 35/28/43 33/26/41 37/30/45
f 36/29/44 38/31/46 33/26/41
f 33/26/41 38/31/46 37/30/45
f 38/31/46 15/32/47 37/30/45
f 39/16/48 30/17/49 28/18/50
f 39/16/48 40/19/51 30/17/49
f 39/16/48 28/18/50 10/20/52
f 39/16/48 41/21/53 40/19/51
f 39/16/48 10/20/52 2/22/54
f 39/16/48 42/23/55 41/21/53
f 39/16/48 2/22/54 42/23/55
f 30/17/49 40/19/51 34/24/56
f 28/18/50 14/25/57 10/20/52
f 41/21/53 42/23/55 43/26/58
f 41/21/53 43/26/58 40/19/51
f 2/22/54 4/27/59 42/23/55
f 34/24/56 40/19/51 36/28/60
f 40/19/51 43/26/58 36/28/60
f 4/27/59 6/29/61 42/23/55
f 42/23/55 6/29/61 43/26/58
f 36/28/60 43/26/58 38/30/62
f 6/29/61 12/31/63 43/26/58
f 43/26/58 12/31/63 38/30/62
f 12/31/63 15/32/64 38/30/62
f 44/16/65 45/17/66 46/18/67
f 44/16/65 47/19/68 45/17/66
f 44/16/65 46/18/67 26/20/69
f 44/16/65 48/21/70 47/19/68
f 44/16/65 26/20/69 25/22/71
f 44/16/65 49/23/72 48/21/70
f 44/16/65 25/22/71 49/23/72
f 45/17/66 47/19/68 50/24/73
f 46/18/67 14/25/74 26/20/69
f 48/21/70 49/23/72 51/26/75
f 48/21/70 51/26/75 47/19/68
f 25/22/71 32/27/76 49/23/72
f 50/24/73 47/19/68 52/28/77
f 47/19/68 51/26/75 52/28/77
f 32/27/76 35/29/78 49/23/72
f 49/23/72 35/29/78 51/26/75
f 52/28/77 51/26/75 53/30/79
f 35/29/78 37/31/80 51/26/75
f 51/26/75 37/31/80 53/30/79
f 37/31/80 15/32/81 53/30/79
f 54/3/82 18/2/83 22/10/84
f 54/3/82 19/4/85 18/2/83
f 54/3/82 22/10/84 46/11/86
f 54/3/82 55/1/87 19/4/85
f 54/3/82 46/11/86 45/5/88
f 54/3/82 45/5/88 55/1/87
f 22/10/84 14/14/89 46/11/86
f 19/4/85 55/1/87 56/8/90
f 19/4/85 56/8/90 21/6/91
f 45/5/88 50/7/92 55/1/87
f 56/8/90 23/12/93 21/6/91
f 56/8/90 55/1/87 52/9/94
f 56/8/90 53/13/95 23/12/93
f 56/8/90 52/9/94 53/13/95
f 52/9/94 55/1/87 50/7/92
f 23/12/93 53/13/95 15/15/96
f 57/33/97 58/34/98 59/35/99
f 57/33/97 59/35/99 60/36/100
f 57/33/97 60/36/100 61/37/101
f 62/33/102 63/36/103 64/37/104
f 62/33/102 65/35/105 63/36/103
f 62/33/102 66/34/106 65/35/105
f 67/33/107 68/36/108 69/37/109
f 67/33/107 70/35/110 68/36/108
f 67/33/107 71/34/111 70/35/110
f 72/33/112 73/34/113 74/35/114
f 72/33/112 74/35/114 75/36/115
f 72/33/112 75/36/115 76/37/116
f 57/38/97 61/38/101 58/38/98
f 62/38/102 64/38/104 66/38/106
f 67/38/107 69/38/109 71/38/111
f 72/38/112 76/38/116 73/38/113
v 0 0.300256 -0.270057
vt 0.935027 0.875345
vn 0 0 -1
v -0.0734296 0.42744 -0.264437
vn -0.01912149 0.03311948 -0.9992685
v 0.0734296 0.42744 -0.264437
vn 0.01912151 0.03311951 -0.9992685
v -0.146859 0.300256 -0.264437
vn -0.03824312 0 -0.9992685
v -0.0734296 0.173072 -0.264437
vn -0.01912149 -0.03311938 -0.9992685
v 0.0734296 0.173072 -0.264437
vn 0.01912151 -0.03311941 -0.9992685
v 0.146859 0.300256 -0.264437
vn 0.03824308 0 -0.9992685
v 0 0.363848 0.264881
vt 0.920481 0.895251
vn 0 0.0624831 0.998046
v 0.0734296 0.42744 0.25993
vn 0.026549 0.04708361 0.9985381
v -0.0734296 0.42744 0.25993
vn -0.026549 0.04708361 0.9985381
v 0 0.300256 0.269832
vt 0 0.860813
vn 0 0 1
vt 0 0.969066
v -0.146859 0.300256 0.25993
vt 1 0.860813
vn -0.05522101 0 0.9984742
v -0.110144 0.363848 0.25993
vt 0.75 0.969066
vn -0.04488829 0.0259163 0.9986558
v 0 0.236664 0.264881
vt 0 0.752559
vn 0 -0.0624831 0.998046
v -0.110144 0.236664 0.25993
vt 0.75 0.752559
vn -0.04488829 -0.0259163 0.9986558
v -0.0734296 0.173072 0.25993
vn -0.026549 -0.04708361 0.9985381
v 0.0734296 0.173072 0.25993
vn 0.026549 -0.04708361 0.9985381
v 0.146859 0.300256 0.25993
vn 0.05522101 0 0.9984742
v 0.110144 0.236664 0.25993
vn 0.04488829 -0.0259163 0.9986558
v 0.110144 0.363848 0.25993
vn 0.04488829 0.0259163 0.9986558
o merged_1_0_node
g polygon_0
usemtl TEX_ANIM_EYE_mat_id
f 77/39/117 78/39/118 79/39/119
f 77/39/117 80/39/120 78/39/118
f 77/39/117 81/39/121 80/39/120
f 77/39/117 82/39/122 81/39/121
f 77/39/117 83/39/123 82/39/122
f 77/39/117 79/39/119 83/39/123
f 84/40/124 85/40/125 86/40/126
f 87/41/127 84/42/124 88/43/128
f 88/43/128 84/42/124 89/44/129
f 89/40/129 84/40/124 86/40/126
f 87/41/127 88/43/128 90/45/130
f 88/43/128 91/46/131 90/45/130
f 90/40/130 91/40/131 92/40/132
f 90/40/130 92/40/132 93/40/133
f 87/41/127 90/45/130 94/43/134
f 94/43/134 90/45/130 95/46/135
f 95/40/135 90/40/130 93/40/133
f 87/41/127 94/43/134 84/42/124
f 94/43/134 96/44/136 84/42/124
f 84/40/124 96/40/136 85/40/125
