mtllib Bulbasaur.mtl
v 0 0.0311947 0.00663999
vt 0.0662087 0.0354417
vn 0 -0.9999147 0.0130623
v -0.12611 0.04440286 0.0483366
vn -0.865878 -0.496305 -0.06274129
v -0.12611 0.03966291 -0.02854376
vn -0.8272628 -0.5559165 0.08119859
v -0.0977466 -9.496686E-06 0.115355
vn -0.3234589 -0.6812576 0.6567057
v -0.0977466 -1.085588E-05 -0.1195933
vn -0.3378358 -0.6717914 -0.6592141
v 0 0.04549504 0.1567946
vn 0 -0.3825478 0.9239357
v 0 0.04581015 -0.1559112
vn 0 -0.3690762 -0.9293991
v 0.0977465 -9.496686E-06 0.115355
vn 0.323458 -0.6812578 0.656706
v 0.0977465 -1.085588E-05 -0.1195933
vn 0.3378358 -0.6717914 -0.6592141
v 0.12611 0.04440286 0.0483366
vn 0.8658776 -0.4963058 -0.06274096
v 0.12611 0.03966291 -0.02854366
vn 0.8272628 -0.5559165 0.08119838
v 0 0.1124682 -0.1585469
vt 0.518986 0.661744
vn 0 0.1977789 -0.9802467
vt 0.518986 0.568863
vt 0.406548 0.501176
vt 0.636344 0.501176
v -0.13474 0.1124682 -0.09538397
vt 0.363064 0.661744
vn -0.8377057 0.2670062 -0.4763999
v 0.13474 0.1124682 -0.09538397
vt 0.679828 0.661744
vn 0.8377061 0.2670062 -0.4763991
v -0.0938194 0.181872 -0.0795326
vt 0.411164 0.760829
vn -0.608613 0.731185 -0.308154
v 0.0938194 0.181872 -0.0795326
vt 0.631728 0.760829
vn 0.608613 0.731185 -0.308154
v 0 0.181872 -0.131395
vt 0.518986 0.760829
vn 0 0.7322081 -0.6810811
v 0 0.1124683 0.1586437
vt 0.521446 0.897169
vn 0 0.08729351 0.9961826
vt 0.406548 0.736601
vt 0.521446 0.80614
v -0.13474 0.1124683 0.1044271
vt 0.363064 0.897169
vn -0.8440911 0.2353967 0.4817664
vt 0.636344 0.736601
v -0.0938195 0.181872 0.0965433
vt 0.411164 0.996253
vn -0.6654321 0.6593391 0.3499601
v 0.13474 0.1124683 0.1044271
vt 0.679828 0.897169
vn 0.8440914 0.2353968 0.4817655
v 0 0.181872 0.150289
vt 0.521446 0.996253
vn 0 0.5097152 0.8603432
v 0.0938194 0.181872 0.0965434
vt 0.631728 0.996253
vn 0.6654321 0.6593391 0.3499601
v 0 0.241715 -0.0025887
vt 0.174222 0.0413014
vn 0.005130718 0.07182909 -0.9974037
v 0.128035 0.223292 0.0519257
vn 0.7087067 -0.03349219 -0.7047077
v 0.000284402 0.1578 0.0218955
vn 0.0181472 -0.470319 -0.8823099
v 0.113977 0.32563 0.0695579
vn 0.6024929 0.3985889 -0.6914689
v -0.104234 0.13733 0.0691063
vn -0.545946 -0.605824 -0.578723
v 0 0.336458 0.0418376
vn 0 0.5752791 -0.8179572
v -0.128035 0.223292 0.0519257
vn -0.6980559 -0.04301959 -0.7147499
v -0.113977 0.32563 0.0695579
vn -0.6024929 0.3985889 -0.6914689
v 0.104494 0.13733 0.0695579
vn 0.5521542 -0.6147732 -0.5631872
v 0.186124 0.241715 0.183535
vn 0.9998492 0.009480532 -0.0145488
v 0.161188 0.1578 0.183535
vn 0.8730701 -0.487465 -0.0112499
v -0.161188 0.1578 0.183535
vn -0.8727466 -0.4880398 -0.01142909
v 0.000284402 0.0963693 0.0900215
vn 0.0009504923 -0.9089183 -0.4169731
v -0.0927774 0.0963693 0.183083
vn -0.4520479 -0.8887208 -0.07634199
v -0.0573089 0.38092 0.107496
vn -0.158819 0.847757 -0.506048
v 0.0573089 0.38092 0.107496
vn 0.159705 0.8488331 -0.5039611
v 0.161188 0.32563 0.183535
vn 0.934139 0.355257 0.0343066
v 0.0930618 0.0963693 0.183535
vn 0.45356 -0.888087 -0.0747325
v -0.186124 0.241715 0.183535
vn -0.9998448 0.009335638 -0.0149445
v 0.000284402 0.0828434 0.183083
vn 0.0002031981 -0.9999314 -0.0117136
v 0 0.408303 0.183535
vn 0.004664829 0.9999858 0.002573079
v -0.151191 0.407622 0.183535
vn -0.7495216 0.6556437 -0.09137125
v -0.0930618 0.387061 0.183535
vn -0.277631 0.9102859 0.307084
v 0.151191 0.407622 0.183535
vn 0.7469537 0.6589838 -0.08832116
v -0.161188 0.32563 0.183535
vn -0.9347742 0.3536211 0.03390261
v 0.0926885 0.385908 0.183535
vn 0.2762899 0.9099817 0.3091879
v 0 0.385908 0.276224
vn 0.001493839 0.8830616 0.4692548
v -0.113977 0.32563 0.297512
vn -0.598475 0.5575461 0.5753
v 0.114 0.325629 0.297506
vn 0.5984879 0.560261 0.5726429
v 0 0.32563 0.344723
v 0 0.19575 0.0543438
vn 0 0.9998761 0.0157442
v -0.0658047 0.0963693 0.24934
vt 0.331623 0.069877
vn -0.276112 -0.8997311 0.338003
v -0.113977 0.1578 0.325663
vt 0.131443 0.239566
vn -0.6154281 -0.5081252 0.6025422
vt 0.504216 0.239566
v 0 0.1578 0.372873
vt 0.00761843 0.239566
vn 0 -0.5765552 0.8170583
vt 0.504216 0.069877
v 0.0658047 0.0963693 0.24934
vn 0.275754 -0.8995988 0.3386469
vt 0.504216 0.00776647
v 0.113977 0.1578 0.325663
vn 0.6158181 -0.508752 0.6016141
vt 0.335047 0.897169
vt 0.0724151 0.996253
vt 0.0497848 0.897169
vt 0.323793 0.996253
vt 0.145209 0.793228
vt 0.25497 0.799995
vt 0.350648 0.736601
vt 0.0152249 0.736601
vt 0.0308255 0.661744
vt 0.316088 0.661744
vt 0.293458 0.760829
vt 0.220664 0.557804
vt 0.0420802 0.760829
vt 0.110903 0.56457
vt 0.0152248 0.501176
vt 0.350648 0.501176
v 0 0.241715 0.361493
vt 0.748987 0.237253
vn 0 0.164397 0.9863942
v -0.0658047 0.241715 0.339711
vt 0.606782 0.237253
vn -0.3797949 0.1524849 0.9124167
vt 0.748987 0.0559114
vt 0.748987 0.418595
v 0.0658047 0.241715 0.339711
vt 0.891191 0.237253
vn 0.3772219 0.1525919 0.9134656
vt 0.502681 0.418595
vt 0.995293 0.0559114
vt 0.994304 0.418595
v 0 0.159907 -0.0995871
vt 0.87237 0.503743
vn 0 -0.9246533 0.3808101
v -0.0665312 0.154163 -0.221847
vt 0.987659 0.514495
vn -0.4607689 -0.662948 -0.5900779
v 0.0665313 0.154163 -0.221847
vt 0.762222 0.514495
vn 0.4607689 -0.662948 -0.5900779
v -0.133063 0.198045 -0.115294
vn -0.9215376 -0.3590329 0.1478639
v -0.0665313 0.241928 -0.00874129
vn -0.460769 -0.0551179 0.885807
v 0.0665313 0.241928 -0.00874128
vn 0.460769 -0.0551178 0.885807
v 0.133063 0.198045 -0.115294
vn 0.9215376 -0.3590328 0.1478649
v 0.0734517 0.259455 -0.278174
vt 0.762222 0.777365
vn 0.4813239 -0.06711368 -0.8739698
v -0.0734516 0.259455 -0.278174
vt 0.987659 0.777365
vn -0.4813231 -0.06711382 -0.8739702
v -0.146903 0.307903 -0.160538
vn -0.962647 0.250359 -0.103108
v -0.0734517 0.35635 -0.0429018
vn -0.4813239 0.5678309 0.6677539
v 0.0734517 0.35635 -0.0429018
vn 0.4813239 0.5678309 0.6677539
v 0.146903 0.307903 -0.160538
vn 0.962647 0.250359 -0.103108
v 0 0.39856 -0.197874
vt 0.876811 0.980897
vn 0 0.9246533 -0.3808101
v -0.129221 0.143367 0.266257
vt 0.0319153 0.413262
vn 0.9608387 0.02874989 -0.275613
v -0.130956 0.154327 0.261352
v -0.128092 0.154486 0.271352
vn -0.960839 -0.0287499 0.275612
v 0.129221 0.143367 0.266257
vn -0.9608384 0.02874731 -0.2756141
v 0.128092 0.154486 0.271352
v 0.130956 0.154327 0.261352
vn 0.9608384 -0.02874731 0.2756141
o merged_0_0_node
g polygon_0
usemtl lambert10_mat_id
f 1/1/1 2/1/2 3/1/3
f 1/1/1 4/1/4 2/1/2
f 1/1/1 3/1/3 5/1/5
f 1/1/1 6/1/6 4/1/4
f 1/1/1 5/1/5 7/1/7
f 1/1/1 8/1/8 6/1/6
f 1/1/1 7/1/7 9/1/9
f 1/1/1 10/1/10 8/1/8
f 1/1/1 9/1/9 11/1/11
f 1/1/1 11/1/11 10/1/10
f 12/2/12 7/3/7 5/4/5
f 12/2/12 9/5/9 7/3/7
f 12/2/12 5/4/5 13/6/13
f 12/2/12 14/7/14 9/5/9
f 12/2/12 13/6/13 15/8/15
f 12/2/12 16/9/16 14/7/14
f 12/2/12 15/8/15 17/10/17
f 12/2/12 17/10/17 16/9/16
f 18/11/18 4/12/4 6/13/6
f 18/11/18 19/14/19 4/12/4
f 18/11/18 6/13/6 8/15/8
f 18/11/18 20/16/20 19/14/19
f 18/11/18 8/15/8 21/17/21
f 18/11/18 22/18/22 20/16/20
f 18/11/18 21/17/21 23/19/23
f 18/11/18 23/19/23 22/18/22
f 24/20/24 25/20/25 26/20/26
f 24/20/24 27/20/27 25/20/25
f 24/20/24 26/20/26 28/20/28
f 24/20/24 29/20/29 27/20/27
f 24/20/24 28/20/28 30/20/30
f 24/20/24 31/20/31 29/20/29
f 24/20/24 30/20/30 31/20/31
f 25/20/25 32/20/32 26/20/26
f 25/20/25 27/20/27 33/20/33
f 25/20/25 34/20/34 32/20/32
f 25/20/25 33/20/33 34/20/34
f 28/20/28 35/20/35 30/20/30
f 28/20/28 26/20/26 36/20/36
f 28/20/28 37/20/37 35/20/35
f 28/20/28 36/20/36 37/20/37
f 26/20/26 32/20/32 36/20/36
f 29/20/29 31/20/31 38/20/38
f 29/20/29 39/20/39 27/20/27
f 29/20/29 38/20/38 39/20/39
f 33/20/33 27/20/27 40/20/40
f 34/20/34 41/20/41 32/20/32
f 32/20/32 41/20/41 36/20/36
f 30/20/30 35/20/35 42/20/42
f 30/20/30 42/20/42 31/20/31
f 37/20/37 36/20/36 43/20/43
f 43/20/43 36/20/36 41/20/41
f 38/20/38 44/20/44 39/20/39
f 38/20/38 31/20/31 45/20/45
f 38/20/38 46/20/46 44/20/44
f 38/20/38 45/20/45 46/20/46
f 27/20/27 47/20/47 40/20/40
f 27/20/27 39/20/39 47/20/47
f 42/20/42 48/20/48 31/20/31
f 45/20/45 48/20/48 46/20/46
f 45/20/45 31/20/31 48/20/48
f 44/20/44 49/20/49 39/20/39
f 44/20/44 46/20/46 50/20/50
f 44/20/44 50/20/50 49/20/49
f 47/20/47 49/20/49 40/20/40
f 47/20/47 39/20/39 49/20/49
f 48/20/48 51/20/51 46/20/46
f 46/20/46 51/20/51 50/20/50
f 40/20/40 49/20/49 52/20/52
f 49/20/49 50/20/50 52/20/52
f 51/20/51 53/20/22 50/20/50
f 50/20/50 53/20/22 52/20/52
f 54/1/53 17/1/17 15/1/15
f 54/1/53 16/1/16 17/1/17
f 54/1/53 15/1/15 20/1/20
f 54/1/53 23/1/23 16/1/16
f 54/1/53 20/1/20 22/1/22
f 54/1/53 22/1/22 23/1/23
f 55/21/54 56/22/55 35/23/35
f 55/21/54 57/24/56 56/22/55
f 55/21/54 35/23/35 37/25/37
f 55/21/54 58/21/57 57/24/56
f 55/21/54 37/25/37 43/26/43
f 55/21/54 43/26/43 58/21/57
f 57/24/56 58/21/57 59/22/58
f 43/26/43 41/25/41 58/21/57
f 59/22/58 58/21/57 34/23/34
f 34/23/34 58/21/57 41/25/41
f 19/27/19 15/28/15 13/29/13
f 19/27/19 20/30/20 15/28/15
f 19/27/19 13/29/13 3/31/3
f 19/27/19 3/31/3 2/32/2
f 19/27/19 2/32/2 4/33/4
f 13/29/13 5/34/5 3/31/3
f 21/35/21 14/36/14 16/37/16
f 21/35/21 11/38/11 14/36/14
f 21/35/21 16/37/16 23/39/23
f 21/35/21 10/40/10 11/38/11
f 21/35/21 8/41/8 10/40/10
f 14/36/14 11/38/11 9/42/9
f 60/43/59 61/44/60 57/45/56
f 60/43/59 53/46/22 61/44/60
f 60/43/59 57/45/56 62/47/61
f 60/43/59 62/47/61 53/46/22
f 61/44/60 53/46/22 51/48/51
f 57/45/56 59/49/58 62/47/61
f 57/45/56 61/47/60 56/49/55
f 53/46/22 62/47/61 52/50/52
f 63/51/62 64/52/63 65/53/64
f 63/51/62 66/52/65 64/53/63
f 63/51/62 67/52/66 66/53/65
f 63/51/62 68/52/67 67/53/66
f 63/51/62 69/52/68 68/53/67
f 63/51/62 65/52/64 69/53/68
f 64/52/63 70/54/69 65/53/64
f 64/52/63 71/55/70 70/54/69
f 66/52/65 71/54/70 64/53/63
f 66/52/65 72/55/71 71/54/70
f 67/52/66 72/54/71 66/53/65
f 67/52/66 73/55/72 72/54/71
f 68/52/67 73/54/72 67/53/66
f 68/52/67 74/55/73 73/54/72
f 69/52/68 74/54/73 68/53/67
f 69/52/68 75/55/74 74/54/73
f 65/52/64 75/54/74 69/53/68
f 65/52/64 70/55/69 75/54/74
f 71/55/70 76/56/75 70/54/69
f 76/56/75 71/54/70 72/55/71
f 76/56/75 72/54/71 73/55/72
f 76/56/75 73/54/72 74/55/73
f 76/56/75 74/54/73 75/55/74
f 76/56/75 75/54/74 70/55/69
f 77/57/76 78/57/76 79/57/76
f 78/57/77 77/57/77 79/57/77
f 80/57/78 81/57/78 82/57/78
f 82/57/79 81/57/79 80/57/79
vt 1.21669 0.874281
vt 0.318655 0.750672
v -0.131609 0.241715 0.306979
vt 0.46187 0.874281
vn -0.809974 0.0890546 0.579665
vt 0.0331899 0.874281
v 0.131488 0.241715 0.307912
vn 0.8090073 0.08823564 0.5811383
vt 1.21669 0.750672
vt 1.21669 0.99789
vt 0.476975 0.99789
o merged_1_0_node
g polygon_0
usemtl TEX_ANIM_EYE_mat_id
f 42/58/42 56/59/55 83/60/80
f 83/60/80 56/59/55 61/61/60
f 84/60/81 62/61/61 59/59/58
f 59/59/58 34/62/34 33/58/33
f 42/58/42 83/60/80 48/63/48
f 83/60/80 51/64/51 48/63/48
f 33/58/33 40/63/40 84/60/81
f 84/60/81 40/63/40 52/64/52
f 59/59/58 33/58/33 84/60/81
f 35/62/35 56/59/55 42/58/42
f 84/60/81 52/64/52 62/61/61
f 83/60/80 61/61/60 51/64/51
