ply
format ascii 1.0
element vertex 484
property float x
property float y
property float z
property uchar red
property uchar green
property uchar blue
element face 506
property list uchar int vertex_index
end_header
0.33525 0.54809 0.70846 155 144 201
0.46944 0.81952 0.70846 155 144 201
0.46944 0.54809 0.70846 155 144 201
0.41543 0.85674 0.70846 155 144 201
0.33525 0.85674 0.70846 155 144 201
-0.49105 0.84248 0.68316 148 139 193
-0.49105 0.84248 0.6215 148 139 193
-0.43191 0.88462 0.6215 148 139 193
-0.43191 0.88462 0.68316 148 139 193
-0.49105 0.54809 0.68316 148 139 193
-0.49105 0.54809 0.6215 148 139 193
0.00644 0.88462 0.68316 148 139 193
0.44479 0.88462 0.6215 148 139 193
0.44479 0.88462 0.68316 148 139 193
0.50393 0.84248 0.68316 148 139 193
0.50393 0.84248 0.6215 148 139 193
0.50393 0.54809 0.6215 148 139 193
0.50393 0.54809 0.68316 148 139 193
-0.49105 0.84248 0.6215 138 129 179
-0.49105 0.54809 0.6215 138 129 179
-0.43191 0.54809 0.6215 138 129 179
-0.43191 0.88462 0.6215 138 129 179
0.44479 0.54809 0.6215 138 129 179
0.44479 0.88462 0.6215 138 129 179
0.50393 0.84248 0.6215 138 129 179
0.50393 0.54809 0.6215 138 129 179
-0.40256 0.85674 0.70846 148 139 193
-0.45657 0.81952 0.70846 148 139 193
-0.45657 0.54809 0.70846 148 139 193
-0.33364 0.85674 0.70846 148 139 193
-0.28754 0.85674 0.70846 148 139 193
0.28915 0.85674 0.70846 148 139 193
0.33525 0.85674 0.70846 148 139 193
0.41543 0.85674 0.70846 148 139 193
0.46944 0.81952 0.70846 148 139 193
0.46944 0.54809 0.70846 148 139 193
-0.28754 0.85674 0.70846 155 144 201
0.28915 0.85674 0.70846 155 144 201
0.28915 0.54809 0.70846 155 144 201
-0.28754 0.54809 0.70846 155 144 201
0.28915 0.54809 0.70846 138 129 179
0.28915 0.85674 0.70846 138 129 179
0.33525 0.85674 0.70846 138 129 179
0.33525 0.54809 0.70846 138 129 179
-0.33364 0.85674 0.70846 138 129 179
-0.28754 0.85674 0.70846 138 129 179
-0.28754 0.54809 0.70846 138 129 179
-0.33364 0.54809 0.70846 138 129 179
-0.45657 0.81952 0.70846 155 144 201
-0.40256 0.85674 0.70846 155 144 201
-0.33364 0.85674 0.70846 155 144 201
-0.33364 0.54809 0.70846 155 144 201
-0.45657 0.54809 0.70846 155 144 201
-0.32238 0.54809 0.3876 148 139 193
-0.45657 0.81952 0.3876 148 139 193
-0.45657 0.54809 0.3876 148 139 193
-0.49105 0.54809 0.41289 148 139 193
-0.49105 0.84248 0.41289 148 139 193
-0.40256 0.85674 0.3876 148 139 193
-0.43191 0.88462 0.41289 148 139 193
-0.32238 0.85674 0.3876 148 139 193
0.00644 0.88462 0.41289 148 139 193
-0.27627 0.85674 0.3876 148 139 193
0.30041 0.85674 0.3876 148 139 193
-0.27627 0.54809 0.3876 148 139 193
0.30041 0.54809 0.3876 148 139 193
0.34651 0.85674 0.3876 148 139 193
0.44479 0.88462 0.41289 148 139 193
0.41543 0.85674 0.3876 148 139 193
0.46944 0.81952 0.3876 148 139 193
0.50393 0.84248 0.41289 148 139 193
0.46944 0.54809 0.3876 148 139 193
0.50393 0.54809 0.41289 148 139 193
0.34651 0.54809 0.3876 148 139 193
0.50393 0.84248 0.47455 148 139 193
0.44479 0.88462 0.47455 148 139 193
0.50393 0.54809 0.47455 148 139 193
-0.43191 0.88462 0.47455 148 139 193
-0.49105 0.84248 0.47455 148 139 193
-0.49105 0.54809 0.47455 148 139 193
0.50393 0.84248 0.47455 138 129 179
0.50393 0.54809 0.47455 138 129 179
0.44479 0.54809 0.47455 138 129 179
0.44479 0.88462 0.47455 138 129 179
-0.43191 0.54809 0.47455 138 129 179
-0.43191 0.88462 0.47455 138 129 179
-0.49105 0.84248 0.47455 138 129 179
-0.49105 0.54809 0.47455 138 129 179
-0.27627 0.54809 0.3876 138 129 179
-0.27627 0.85674 0.3876 138 129 179
-0.32238 0.85674 0.3876 138 129 179
-0.32238 0.54809 0.3876 138 129 179
0.34651 0.85674 0.3876 138 129 179
0.30041 0.85674 0.3876 138 129 179
0.30041 0.54809 0.3876 138 129 179
0.34651 0.54809 0.3876 138 129 179
-0.41705 -0.50945 0.37998 57 56 54
-0.41705 -0.50945 0.72371 57 56 54
0.41705 -0.50945 0.72371 57 56 54
0.41705 -0.50945 0.37998 57 56 54
-0.45599 -0.46792 0.72371 57 56 54
-0.45599 -0.46792 0.37998 57 56 54
0.45599 -0.46792 0.72371 57 56 54
0.45599 -0.46792 0.37998 57 56 54
0.45599 0.46337 0.37998 57 56 54
0.45599 0.46337 0.72371 57 56 54
-0.45599 0.46337 0.37998 57 56 54
-0.45599 0.46337 0.72371 57 56 54
0.27008 -0.54131 0.55243 63 66 71
0.27008 -0.54131 0.57835 63 66 71
0.29601 -0.54131 0.57835 63 66 71
0.29601 -0.54131 0.55243 63 66 71
0.18582 -0.54131 0.66262 243 244 246
0.18582 -0.5088 0.66262 243 244 246
0.38027 -0.5088 0.66262 243 244 246
0.38027 -0.54131 0.66262 243 244 246
0.38027 -0.54131 0.46816 243 244 246
0.38027 -0.5088 0.46816 243 244 246
0.18582 -0.5088 0.46816 243 244 246
0.18582 -0.54131 0.46816 243 244 246
0.29601 -0.54131 0.55243 243 244 246
0.27008 -0.54131 0.55243 243 244 246
0.29601 -0.54131 0.57835 243 244 246
0.27008 -0.54131 0.57835 243 244 246
-0.27008 -0.54131 0.55243 63 66 71
-0.29601 -0.54131 0.55243 63 66 71
-0.29601 -0.54131 0.57835 63 66 71
-0.27008 -0.54131 0.57835 63 66 71
-0.18582 -0.54131 0.66262 243 244 246
-0.38027 -0.54131 0.66262 243 244 246
-0.38027 -0.5088 0.66262 243 244 246
-0.18582 -0.5088 0.66262 243 244 246
-0.38027 -0.54131 0.46816 243 244 246
-0.38027 -0.5088 0.46816 243 244 246
-0.18582 -0.5088 0.46816 243 244 246
-0.18582 -0.54131 0.46816 243 244 246
-0.29601 -0.54131 0.55243 243 244 246
-0.27008 -0.54131 0.55243 243 244 246
-0.29601 -0.54131 0.57835 243 244 246
-0.27008 -0.54131 0.57835 243 244 246
-0.07289 -0.87576 0.47728 213 171 178
0.07289 -0.87576 0.47728 213 171 178
0.07289 -0.87581 0.42552 213 171 178
-0.07289 -0.87581 0.42552 213 171 178
0.0958 -0.8402 0.42549 213 171 178
-0.0958 -0.8402 0.42549 213 171 178
-0.09605 -0.44892 0.4249 213 171 178
-0.0958 -0.84015 0.47725 213 171 178
-0.09605 -0.44887 0.47666 213 171 178
0.09605 -0.44892 0.4249 213 171 178
0.0958 -0.84015 0.47725 213 171 178
0.09605 -0.44887 0.47666 213 171 178
-0.07289 -0.87576 0.47728 221 177 184
-0.0958 -0.84015 0.47725 221 177 184
0.0958 -0.84015 0.47725 221 177 184
0.07289 -0.87576 0.47728 221 177 184
-0.01372 -0.73057 0.47694 221 177 184
-0.09605 -0.44887 0.47666 221 177 184
-0.01372 -0.44887 0.47666 221 177 184
0.01249 -0.73057 0.47694 221 177 184
0.09605 -0.44887 0.47666 221 177 184
0.01249 -0.44887 0.47666 221 177 184
-0.01372 -0.44887 0.47666 177 142 148
0.01249 -0.44887 0.47666 177 142 148
0.01249 -0.73057 0.47694 177 142 148
-0.01372 -0.73057 0.47694 177 142 148
0.625 -0.61809 0.70521 148 139 193
0.625 -0.61809 0.83021 148 139 193
0.625 0.52963 0.83021 148 139 193
0.625 0.52963 0.70521 148 139 193
0.56812 -0.67175 0.83021 148 139 193
0.56812 -0.67175 0.70521 148 139 193
0.56812 0.5833 0.70521 148 139 193
0.56812 0.5833 0.83021 148 139 193
0.58258 -0.58488 0.89228 148 139 193
0.52988 -0.63544 0.89228 148 139 193
0.58258 0.49643 0.89228 148 139 193
0.52988 0.54699 0.89228 148 139 193
0.33358 0.54699 0.89228 148 139 193
0.33358 0.5833 0.83021 148 139 193
0.33358 0.5833 0.70521 148 139 193
0.33358 -0.63544 0.89228 148 139 193
0.33358 -0.67175 0.83021 148 139 193
0.33358 -0.67175 0.70521 148 139 193
0.53192 -0.61946 0.70521 148 139 193
0.58406 -0.57026 0.70521 148 139 193
0.58406 0.48181 0.70521 148 139 193
0.53192 0.531 0.70521 148 139 193
0.29166 -0.67175 0.70521 148 139 193
0 -0.61946 0.70521 148 139 193
0.02042 -0.67175 0.70521 148 139 193
-0.02042 -0.67175 0.70521 148 139 193
-0.29166 -0.67175 0.70521 148 139 193
-0.33358 -0.67175 0.70521 148 139 193
-0.53192 -0.61946 0.70521 148 139 193
-0.56812 -0.67175 0.70521 148 139 193
-0.625 -0.61809 0.70521 148 139 193
-0.58406 -0.57026 0.70521 148 139 193
-0.625 0.52963 0.70521 148 139 193
-0.58406 0.48181 0.70521 148 139 193
-0.56812 0.5833 0.70521 148 139 193
-0.53192 0.531 0.70521 148 139 193
-0.33358 -0.67175 0.83021 148 139 193
-0.56812 -0.67175 0.83021 148 139 193
-0.33358 -0.63544 0.89228 148 139 193
-0.52988 -0.63544 0.89228 148 139 193
-0.58258 -0.58488 0.89228 148 139 193
-0.625 -0.61809 0.83021 148 139 193
-0.625 0.52963 0.83021 148 139 193
-0.56812 0.5833 0.83021 148 139 193
-0.58258 0.49643 0.89228 148 139 193
-0.52988 0.54699 0.89228 148 139 193
-0.33358 0.54699 0.89228 148 139 193
-0.33358 0.5833 0.83021 148 139 193
-0.33358 0.5833 0.70521 148 139 193
0.52988 0.54699 0.89228 155 145 201
0.52988 -0.63544 0.89228 155 145 201
0.33358 -0.63544 0.89228 155 145 201
0.33358 0.54699 0.89228 155 145 201
0.58258 -0.58488 0.89228 155 145 201
0.58258 0.49643 0.89228 155 145 201
0.53192 -0.61946 0.70521 80 70 78
0.58406 -0.57026 0.70521 80 70 78
0.58406 0.48181 0.70521 80 70 78
0.53192 0.531 0.70521 80 70 78
0 -0.61946 0.70521 80 70 78
0 0.531 0.70521 80 70 78
-0.53192 0.531 0.70521 80 70 78
-0.53192 -0.61946 0.70521 80 70 78
-0.58406 0.48181 0.70521 80 70 78
-0.58406 -0.57026 0.70521 80 70 78
0.02042 -0.67175 0.83021 148 139 193
0.29166 -0.67175 0.83021 148 139 193
0.02042 -0.63544 0.89228 148 139 193
0.29166 -0.63544 0.89228 148 139 193
0.02042 0.5833 0.70521 148 139 193
0.29166 0.5833 0.70521 148 139 193
0.29166 0.5833 0.83021 148 139 193
0.02042 0.5833 0.83021 148 139 193
0.29166 0.54699 0.89228 148 139 193
0.02042 0.54699 0.89228 148 139 193
0.02042 0.54699 0.89228 138 129 179
-0.02042 0.54699 0.89228 138 129 179
-0.02042 0.5833 0.83021 138 129 179
0.02042 0.5833 0.83021 138 129 179
0.02042 0.5833 0.70521 138 129 179
-0.02042 0.5833 0.70521 138 129 179
-0.02042 -0.63544 0.89228 138 129 179
0.02042 -0.63544 0.89228 138 129 179
-0.02042 -0.67175 0.83021 138 129 179
0.02042 -0.67175 0.83021 138 129 179
-0.02042 -0.67175 0.70521 138 129 179
0.02042 -0.67175 0.70521 138 129 179
0.29166 -0.63544 0.89228 155 145 201
0.02042 -0.63544 0.89228 155 145 201
0.02042 0.54699 0.89228 155 145 201
0.29166 0.54699 0.89228 155 145 201
0.29166 -0.67175 0.83021 138 129 179
0.33358 -0.67175 0.83021 138 129 179
0.33358 -0.67175 0.70521 138 129 179
0.29166 -0.67175 0.70521 138 129 179
0.29166 0.5833 0.70521 138 129 179
0.33358 0.5833 0.70521 138 129 179
0.33358 0.5833 0.83021 138 129 179
0.29166 0.5833 0.83021 138 129 179
0.33358 0.54699 0.89228 138 129 179
0.29166 0.54699 0.89228 138 129 179
0.33358 -0.63544 0.89228 138 129 179
0.29166 -0.63544 0.89228 138 129 179
-0.52988 0.54699 0.89228 155 145 201
-0.33358 0.54699 0.89228 155 145 201
-0.33358 -0.63544 0.89228 155 145 201
-0.52988 -0.63544 0.89228 155 145 201
-0.58258 -0.58488 0.89228 155 145 201
-0.58258 0.49643 0.89228 155 145 201
-0.02042 -0.67175 0.83021 148 139 193
-0.29166 -0.67175 0.83021 148 139 193
-0.02042 -0.63544 0.89228 148 139 193
-0.29166 -0.63544 0.89228 148 139 193
-0.02042 0.5833 0.70521 148 139 193
-0.02042 0.5833 0.83021 148 139 193
-0.29166 0.5833 0.83021 148 139 193
-0.29166 0.5833 0.70521 148 139 193
-0.29166 0.54699 0.89228 148 139 193
-0.02042 0.54699 0.89228 148 139 193
-0.29166 -0.63544 0.89228 155 145 201
-0.29166 0.54699 0.89228 155 145 201
-0.02042 0.54699 0.89228 155 145 201
-0.02042 -0.63544 0.89228 155 145 201
-0.29166 -0.67175 0.83021 138 129 179
-0.29166 -0.67175 0.70521 138 129 179
-0.33358 -0.67175 0.70521 138 129 179
-0.33358 -0.67175 0.83021 138 129 179
-0.29166 -0.63544 0.89228 138 129 179
-0.33358 -0.63544 0.89228 138 129 179
-0.29166 0.54699 0.89228 138 129 179
-0.33358 0.54699 0.89228 138 129 179
-0.29166 0.5833 0.83021 138 129 179
-0.33358 0.5833 0.83021 138 129 179
-0.29166 0.5833 0.70521 138 129 179
-0.33358 0.5833 0.70521 138 129 179
0 0.531 0.70521 148 139 193
0.28169 -0.79095 0.39027 148 139 193
0.55844 -0.79095 0.39027 148 139 193
0.55844 -0.79095 0.25875 148 139 193
0.28169 -0.79095 0.25875 148 139 193
0.59646 -0.74797 0.25875 148 139 193
0.55117 -0.71535 0.22899 148 139 193
0.59667 0.51604 0.25875 148 139 193
0.5516 0.47439 0.22899 148 139 193
0.55605 0.55574 0.25875 148 139 193
0.59667 0.51604 0.71987 148 139 193
0.59667 -0.33566 0.71987 148 139 193
0.55605 0.55574 0.71987 148 139 193
-0.55605 0.55574 0.25875 148 139 193
-0.55605 0.55574 0.71987 148 139 193
0.51504 0.51013 0.22899 148 139 193
0.51846 -0.74797 0.22899 148 139 193
0.59646 -0.74797 0.39027 148 139 193
0.32253 -0.74797 0.22899 148 139 193
0.24367 -0.74797 0.25875 148 139 193
0.29727 -0.71483 0.22899 148 139 193
0.24367 -0.63331 0.25875 148 139 193
0.29729 -0.5793 0.22899 148 139 193
-0.24367 -0.63331 0.25875 148 139 193
-0.29729 -0.5793 0.22899 148 139 193
-0.59667 0.51604 0.71987 148 139 193
-0.59667 0.51604 0.25875 148 139 193
-0.51504 0.51013 0.22899 148 139 193
-0.29727 -0.71483 0.22899 148 139 193
-0.24367 -0.74797 0.25875 148 139 193
-0.24367 -0.63331 0.39027 148 139 193
-0.24367 -0.74797 0.39027 148 139 193
-0.32253 -0.74797 0.22899 148 139 193
-0.28169 -0.79095 0.25875 148 139 193
-0.51846 -0.74797 0.22899 148 139 193
-0.55844 -0.79095 0.25875 148 139 193
-0.28169 -0.79095 0.39027 148 139 193
-0.55844 -0.79095 0.39027 148 139 193
-0.55117 -0.71535 0.22899 148 139 193
-0.5516 0.47439 0.22899 148 139 193
-0.59646 -0.74797 0.25875 148 139 193
-0.59646 -0.74797 0.39027 148 139 193
-0.59667 -0.58322 0.39027 148 139 193
-0.59667 -0.33566 0.39015 148 139 193
0.55531 -0.33573 0.39027 148 138 192
0.55531 -0.33566 0.71987 148 138 192
0.59667 -0.33566 0.71987 148 138 192
0.59667 -0.33566 0.39015 148 138 192
0.24367 -0.63331 0.39027 155 145 201
0.29815 -0.57749 0.39027 155 145 201
0.29795 -0.71265 0.39027 155 145 201
0.24367 -0.74797 0.39027 155 145 201
0.28169 -0.79095 0.39027 155 145 201
0.32971 -0.74797 0.39027 155 145 201
0.55844 -0.79095 0.39027 155 145 201
0.51613 -0.74797 0.39027 155 145 201
0.59646 -0.74797 0.39027 155 145 201
0.55512 -0.71265 0.39027 155 145 201
0.55531 -0.57742 0.39027 155 145 201
0.59667 -0.58322 0.39027 155 145 201
-0.24367 -0.63331 0.39027 155 145 201
-0.29815 -0.57749 0.39027 155 145 201
-0.29795 -0.71265 0.39027 155 145 201
-0.24367 -0.74797 0.39027 155 145 201
-0.28169 -0.79095 0.39027 155 145 201
-0.32971 -0.74797 0.39027 155 145 201
-0.55844 -0.79095 0.39027 155 145 201
-0.51613 -0.74797 0.39027 155 145 201
-0.59646 -0.74797 0.39027 155 145 201
-0.55512 -0.71265 0.39027 155 145 201
-0.55531 -0.57742 0.39027 155 145 201
-0.59667 -0.58322 0.39027 155 145 201
0.59667 -0.33566 0.39015 155 145 201
0.55531 -0.33573 0.39027 155 145 201
-0.59667 -0.33566 0.39015 155 145 201
-0.55531 -0.33566 0.39027 155 145 201
0.24367 -0.63331 0.39027 148 139 193
0.24367 -0.74797 0.39027 148 139 193
0.55531 -0.57742 0.39027 80 70 78
0.55512 -0.71265 0.39027 80 70 78
0.29795 -0.71265 0.39027 80 70 78
0.29815 -0.57749 0.39027 80 70 78
0.32971 -0.74797 0.39027 80 70 78
0.51613 -0.74797 0.39027 80 70 78
0.55531 -0.33573 0.39027 80 70 78
0.55531 0.45319 0.39027 80 70 78
-0.29815 -0.57749 0.39027 80 70 78
-0.55531 0.45319 0.39027 80 70 78
-0.55531 -0.33566 0.39027 80 70 78
-0.55531 0.45319 0.71987 80 70 78
-0.55531 -0.33566 0.71987 80 70 78
0.55531 0.45319 0.71987 80 70 78
0.55531 -0.33566 0.71987 80 70 78
-0.55531 -0.57742 0.39027 80 70 78
-0.29795 -0.71265 0.39027 80 70 78
-0.55512 -0.71265 0.39027 80 70 78
-0.32971 -0.74797 0.39027 80 70 78
-0.51613 -0.74797 0.39027 80 70 78
0.59667 -0.58322 0.39027 148 139 193
-0.59667 -0.33566 0.71987 148 139 193
-0.55531 -0.33566 0.71987 148 139 193
-0.55531 -0.33566 0.39027 148 139 193
0.59667 -0.33566 0.39015 148 139 193
0.36861 0.00027 0.88101 148 138 192
0.36861 0.00027 1.12541 148 138 192
0.40327 -0.02391 1.12541 148 138 192
0.40327 -0.02391 0.88101 148 138 192
0.36861 0.13554 0.88101 148 138 192
0.36861 0.13554 1.12541 148 138 192
0.40327 0.15972 0.88101 148 138 192
0.40327 0.15972 1.12541 148 138 192
0.51439 -0.02391 0.88101 148 138 192
0.51439 -0.02391 1.12541 148 138 192
0.51439 0.15972 1.12541 148 138 192
0.51439 0.15972 0.88101 148 138 192
0.55066 0.00027 0.88101 148 138 192
0.55066 0.00027 1.12541 148 138 192
0.55066 0.13554 1.12541 148 138 192
0.55066 0.13554 0.88101 148 138 192
0.36861 0.00027 1.12541 155 144 201
0.36861 0.13554 1.12541 155 144 201
0.40327 0.15972 1.12541 155 144 201
0.40327 -0.02391 1.12541 155 144 201
0.51439 -0.02391 1.12541 155 144 201
0.51439 0.15972 1.12541 155 144 201
0.55066 0.00027 1.12541 155 144 201
0.55066 0.13554 1.12541 155 144 201
-0.36861 0.00027 0.88101 148 138 192
-0.40327 -0.02391 0.88101 148 138 192
-0.40327 -0.02391 1.12541 148 138 192
-0.36861 0.00027 1.12541 148 138 192
-0.36861 0.13554 0.88101 148 138 192
-0.36861 0.13554 1.12541 148 138 192
-0.40327 0.15972 0.88101 148 138 192
-0.40327 0.15972 1.12541 148 138 192
-0.51439 -0.02391 0.88101 148 138 192
-0.51439 -0.02391 1.12541 148 138 192
-0.51439 0.15972 1.12541 148 138 192
-0.51439 0.15972 0.88101 148 138 192
-0.55066 0.00027 0.88101 148 138 192
-0.55066 0.00027 1.12541 148 138 192
-0.55066 0.13554 1.12541 148 138 192
-0.55066 0.13554 0.88101 148 138 192
-0.36861 0.00027 1.12541 155 144 201
-0.40327 -0.02391 1.12541 155 144 201
-0.40327 0.15972 1.12541 155 144 201
-0.36861 0.13554 1.12541 155 144 201
-0.51439 -0.02391 1.12541 155 144 201
-0.51439 0.15972 1.12541 155 144 201
-0.55066 0.00027 1.12541 155 144 201
-0.55066 0.13554 1.12541 155 144 201
0.51644 -0.23326 0.2414 148 139 193
0.51644 -0.23326 0.04606 148 139 193
0.4805 -0.26403 0.04606 148 139 193
0.4805 -0.26403 0.2414 148 139 193
0.4805 -0.03896 0.04606 148 139 193
0.51644 -0.06973 0.04606 148 139 193
0.4805 -0.03896 0.2414 148 139 193
0.51644 -0.06973 0.2414 148 139 193
0.32576 -0.26403 0.2414 148 139 193
0.32576 -0.26403 0.04606 148 139 193
0.28901 -0.23326 0.2414 148 139 193
0.28901 -0.23326 0.04606 148 139 193
0.28901 -0.06973 0.04606 148 139 193
0.28901 -0.06973 0.2414 148 139 193
0.32576 -0.03896 0.04606 148 139 193
0.32576 -0.03896 0.2414 148 139 193
-0.51644 -0.23326 0.2414 148 139 193
-0.4805 -0.26403 0.2414 148 139 193
-0.4805 -0.26403 0.04606 148 139 193
-0.51644 -0.23326 0.04606 148 139 193
-0.4805 -0.03896 0.04606 148 139 193
-0.51644 -0.06973 0.04606 148 139 193
-0.4805 -0.03896 0.2414 148 139 193
-0.51644 -0.06973 0.2414 148 139 193
-0.32576 -0.26403 0.2414 148 139 193
-0.32576 -0.26403 0.04606 148 139 193
-0.28901 -0.23326 0.2414 148 139 193
-0.28901 -0.23326 0.04606 148 139 193
-0.28901 -0.06973 0.04606 148 139 193
-0.28901 -0.06973 0.2414 148 139 193
-0.32576 -0.03896 0.04606 148 139 193
-0.32576 -0.03896 0.2414 148 139 193
3 0 2 1
3 0 1 3
3 0 3 4
3 5 7 6
3 5 8 7
3 6 9 5
3 6 10 9
3 7 8 11
3 7 11 12
3 12 11 13
3 12 13 14
3 12 14 15
3 16 15 14
3 16 14 17
3 18 20 19
3 18 21 20
3 22 20 21
3 22 21 23
3 22 23 24
3 22 24 25
3 8 27 26
3 8 5 27
3 5 28 27
3 5 9 28
3 29 8 26
3 29 11 8
3 29 30 11
3 11 30 31
3 11 31 32
3 11 32 13
3 13 32 33
3 14 13 33
3 14 33 34
3 17 14 34
3 17 34 35
3 36 38 37
3 36 39 38
3 40 42 41
3 40 43 42
3 44 46 45
3 44 47 46
3 48 50 49
3 48 51 50
3 48 52 51
3 53 55 54
3 56 54 55
3 56 57 54
3 57 58 54
3 53 54 58
3 57 59 58
3 59 60 58
3 53 58 60
3 61 60 59
3 61 62 60
3 61 63 62
3 63 64 62
3 63 65 64
3 66 63 61
3 66 61 67
3 66 67 68
3 67 69 68
3 69 66 68
3 67 70 69
3 70 71 69
3 70 72 71
3 69 73 66
3 69 71 73
3 70 75 74
3 70 67 75
3 74 72 70
3 74 76 72
3 75 67 61
3 75 61 77
3 77 61 59
3 77 59 57
3 77 57 78
3 79 78 57
3 79 57 56
3 80 82 81
3 80 83 82
3 84 82 83
3 84 83 85
3 84 85 86
3 84 86 87
3 88 90 89
3 88 91 90
3 92 94 93
3 92 95 94
3 96 98 97
3 96 99 98
3 100 96 97
3 100 101 96
3 99 102 98
3 99 103 102
3 102 103 104
3 102 104 105
3 106 101 100
3 106 100 107
3 108 110 109
3 108 111 110
3 112 114 113
3 112 115 114
3 116 114 115
3 116 117 114
3 118 117 116
3 118 112 113
3 118 116 119
3 118 119 112
3 119 116 120
3 119 120 121
3 112 119 121
3 116 122 120
3 116 115 122
3 115 123 122
3 115 112 123
3 112 121 123
3 124 126 125
3 124 127 126
3 128 130 129
3 128 131 130
3 132 129 130
3 132 130 133
3 134 132 133
3 134 131 128
3 134 135 132
3 134 128 135
3 135 136 132
3 135 137 136
3 128 137 135
3 132 138 129
3 132 136 138
3 129 139 128
3 129 138 139
3 128 139 137
3 140 142 141
3 140 143 142
3 143 144 142
3 144 141 142
3 143 145 144
3 144 145 146
3 147 146 145
3 147 143 140
3 147 145 143
3 147 148 146
3 144 146 149
3 150 144 149
3 144 150 141
3 150 149 151
3 152 154 153
3 152 155 154
3 154 156 153
3 153 156 157
3 157 156 158
3 154 159 156
3 154 160 159
3 159 160 161
3 162 164 163
3 162 165 164
3 166 168 167
3 166 169 168
3 170 166 167
3 170 171 166
3 172 168 169
3 172 173 168
3 170 167 174
3 170 174 175
3 167 176 174
3 167 168 176
3 168 177 176
3 168 173 177
3 173 178 177
3 173 179 178
3 180 173 172
3 180 179 173
3 181 170 175
3 181 182 170
3 182 171 170
3 182 183 171
3 184 171 183
3 166 171 184
3 166 184 185
3 169 166 185
3 169 185 186
3 172 169 186
3 172 186 187
3 184 183 188
3 184 188 189
3 189 188 190
3 189 190 191
3 189 191 192
3 189 192 193
3 189 193 194
3 194 193 195
3 196 194 195
3 196 197 194
3 198 197 196
3 198 199 197
3 200 199 198
3 200 201 199
3 202 195 193
3 202 203 195
3 204 203 202
3 204 205 203
3 203 205 206
3 203 206 207
3 203 207 196
3 196 207 208
3 196 208 198
3 203 196 195
3 200 198 208
3 200 208 209
3 207 210 208
3 207 206 210
3 208 211 209
3 208 210 211
3 209 211 212
3 209 212 213
3 214 209 213
3 214 200 209
3 215 217 216
3 215 218 217
3 215 216 219
3 215 219 220
3 221 223 222
3 221 224 223
3 225 224 221
3 225 226 224
3 227 226 225
3 227 225 228
3 228 229 227
3 228 230 229
3 231 188 232
3 231 190 188
3 233 231 232
3 233 232 234
3 235 237 236
3 235 238 237
3 239 237 238
3 239 238 240
3 241 243 242
3 241 244 243
3 245 243 244
3 245 246 243
3 241 242 247
3 241 247 248
3 248 247 249
3 248 249 250
3 250 249 251
3 250 251 252
3 253 255 254
3 253 256 255
3 257 259 258
3 257 260 259
3 261 263 262
3 261 264 263
3 265 263 264
3 265 264 266
3 267 265 266
3 267 266 268
3 268 258 267
3 268 257 258
3 269 271 270
3 269 272 271
3 269 273 272
3 269 274 273
3 275 192 191
3 275 276 192
3 277 276 275
3 277 278 276
3 279 281 280
3 279 282 281
3 283 280 281
3 283 284 280
3 285 287 286
3 285 288 287
3 289 291 290
3 289 292 291
3 293 292 289
3 293 294 292
3 294 293 295
3 294 295 296
3 296 295 297
3 296 297 298
3 299 298 297
3 299 300 298
3 201 200 214
3 201 214 282
3 201 282 301
3 301 282 279
3 301 279 235
3 301 235 236
3 301 236 180
3 301 180 187
3 187 180 172
3 302 304 303
3 302 305 304
3 306 303 304
3 304 307 306
3 307 308 306
3 307 309 308
3 310 308 309
3 310 311 308
3 308 311 312
3 310 313 311
3 314 313 310
3 314 315 313
3 310 309 316
3 316 314 310
3 304 317 307
3 305 317 304
3 306 318 303
3 305 319 317
3 307 317 319
3 320 319 305
3 320 321 319
3 307 319 321
3 321 320 322
3 321 322 323
3 323 322 324
3 323 324 325
3 307 321 323
3 307 323 309
3 314 326 315
3 314 327 326
3 316 328 314
3 309 328 316
3 329 325 324
3 329 324 330
3 331 330 324
3 331 332 330
3 330 333 329
3 330 334 333
3 334 335 333
3 334 336 335
3 337 336 334
3 337 338 336
3 336 339 335
3 339 333 335
3 339 329 333
3 339 327 340
3 309 340 328
3 314 340 327
3 314 328 340
3 339 341 327
3 336 341 339
3 341 336 338
3 341 338 342
3 339 325 329
3 339 340 325
3 323 325 340
3 323 340 309
3 343 341 342
3 343 327 341
3 327 343 344
3 345 347 346
3 345 348 347
3 349 351 350
3 349 352 351
3 353 351 352
3 353 354 351
3 355 354 353
3 355 356 354
3 357 356 355
3 357 358 356
3 359 358 357
3 359 357 360
3 350 361 349
3 350 362 361
3 361 362 363
3 361 363 364
3 365 364 363
3 365 363 366
3 367 365 366
3 367 366 368
3 369 367 368
3 369 368 370
3 371 369 370
3 371 372 369
3 359 360 373
3 359 373 374
3 371 375 372
3 371 376 375
3 377 320 378
3 377 322 320
3 378 320 305
3 378 305 302
3 377 324 322
3 377 331 324
3 379 381 380
3 379 382 381
3 380 381 383
3 380 383 384
3 385 382 379
3 386 382 385
3 386 387 382
3 386 388 387
3 387 388 389
3 390 389 388
3 390 391 389
3 392 388 386
3 392 390 388
3 392 386 385
3 392 385 393
3 387 389 394
3 394 395 387
3 394 396 395
3 396 397 395
3 396 398 397
3 399 318 306
3 399 306 308
3 344 401 400
3 344 402 401
3 327 344 400
3 327 400 326
3 332 334 330
3 332 337 334
3 308 312 403
3 308 403 399
3 404 406 405
3 404 407 406
3 408 404 405
3 408 405 409
3 409 410 408
3 409 411 410
3 406 407 412
3 406 412 413
3 410 411 414
3 410 414 415
3 413 412 416
3 413 416 417
3 416 418 417
3 415 414 418
3 416 419 418
3 415 418 419
3 420 422 421
3 420 423 422
3 422 423 424
3 422 424 425
3 425 424 426
3 425 426 427
3 428 430 429
3 428 431 430
3 432 431 428
3 432 433 431
3 433 432 434
3 433 434 435
3 430 436 429
3 430 437 436
3 434 438 435
3 434 439 438
3 437 440 436
3 437 441 440
3 440 441 442
3 439 442 438
3 440 442 443
3 439 443 442
3 444 446 445
3 444 447 446
3 446 448 445
3 446 449 448
3 449 450 448
3 449 451 450
3 452 454 453
3 452 455 454
3 453 454 456
3 453 456 457
3 457 456 458
3 457 458 459
3 459 453 457
3 459 452 453
3 454 455 460
3 454 460 461
3 456 454 461
3 461 460 462
3 461 462 463
3 462 464 463
3 462 465 464
3 466 463 464
3 466 461 463
3 456 461 466
3 458 456 466
3 467 464 465
3 467 466 464
3 458 466 467
3 468 470 469
3 468 471 470
3 471 472 470
3 471 473 472
3 473 474 472
3 473 475 474
3 475 471 468
3 475 473 471
3 470 476 469
3 470 477 476
3 472 477 470
3 477 478 476
3 477 479 478
3 478 479 480
3 478 480 481
3 482 479 477
3 482 480 479
3 472 482 477
3 474 482 472
3 483 480 482
3 483 481 480
3 474 483 482
