ply
format ascii 1.0
element vertex 629
property float x
property float y
property float z
property uchar red
property uchar green
property uchar blue
element face 784
property list uchar int vertex_index
end_header
0.13802 -0.25616 1.49077 180 134 78
0.13802 -0.09683 1.49077 180 134 78
0.57317 -0.09727 1.95483 180 134 78
0.57317 -0.2566 1.95483 180 134 78
0.66348 -0.2566 2.00126 180 134 78
0.66348 -0.09727 2.00126 180 134 78
0.13802 -0.09683 1.49077 175 130 76
0.39717 -0.09683 1.24783 175 130 76
0.83197 -0.09727 1.71222 175 130 76
0.57317 -0.09727 1.95483 175 130 76
0.83197 -0.2566 1.71222 175 130 76
0.39717 -0.25616 1.24783 175 130 76
0.66348 -0.09727 2.00126 175 130 76
0.87214 -0.09727 1.80468 175 130 76
0.69898 -0.12033 1.9938 175 130 76
0.8624 -0.12033 1.83984 175 130 76
0.8624 -0.23354 1.83984 175 130 76
0.69898 -0.23354 1.9938 175 130 76
0.87214 -0.2566 1.80468 175 130 76
0.76317 -0.2566 1.7761 175 130 76
0.64179 -0.2566 1.88988 175 130 76
0.66348 -0.2566 2.00126 175 130 76
0.57317 -0.2566 1.95483 175 130 76
0.43653 -0.25607 1.67067 175 130 76
0.13802 -0.25616 1.49077 175 130 76
0.20643 -0.25616 1.42662 175 130 76
0.55674 -0.25607 1.55799 175 130 76
0.32742 -0.25616 1.3132 175 130 76
0.55674 -0.25607 1.55799 20 14 11
0.32742 -0.25616 1.3132 20 14 11
0.20643 -0.25616 1.42662 20 14 11
0.43653 -0.25607 1.67067 20 14 11
0.69898 -0.12033 1.9938 180 134 78
0.69898 -0.23354 1.9938 180 134 78
0.43653 -0.25607 1.67067 79 45 7
0.64179 -0.2566 1.88988 79 45 7
0.76317 -0.2566 1.7761 79 45 7
0.55674 -0.25607 1.55799 79 45 7
0.25773 -0.65189 1.27856 12 0 0
0.241 -0.65189 1.26098 12 0 0
0.241 -0.65189 1.2786 12 0 0
0.25774 -0.65189 1.15933 12 0 0
0.19008 -0.65189 1.15933 12 0 0
0.19008 -0.65189 1.13579 12 0 0
0.25774 -0.65189 1.13579 12 0 0
0.1899 -0.65189 1.26098 12 0 0
0.15038 -0.65189 1.31872 23 0 0
0.15038 -0.63472 1.31872 23 0 0
0.1899 -0.65189 1.31872 23 0 0
0.1899 -0.65189 1.26098 23 0 0
0.15038 -0.65189 1.15933 23 0 0
0.19008 -0.65189 1.15933 23 0 0
0.241 -0.65189 1.31872 23 0 0
0.29749 -0.63472 1.31872 23 0 0
0.29749 -0.65189 1.31872 23 0 0
0.29749 -0.65189 1.15933 23 0 0
0.29749 -0.63472 1.09891 23 0 0
0.25773 -0.65189 1.27856 23 0 0
0.241 -0.65189 1.2786 23 0 0
0.25774 -0.65189 1.15933 23 0 0
0.29749 -0.65189 1.09891 23 0 0
0.15038 -0.63472 1.09891 23 0 0
0.15038 -0.65189 1.09891 23 0 0
0.25774 -0.65189 1.13579 105 59 10
0.25774 -0.65189 1.15933 105 59 10
0.29749 -0.65189 1.15933 105 59 10
0.29749 -0.65189 1.09891 105 59 10
0.19008 -0.65189 1.13579 105 59 10
0.15038 -0.65189 1.09891 105 59 10
0.19008 -0.65189 1.15933 105 59 10
0.15038 -0.65189 1.15933 105 59 10
0.1899 -0.65189 1.26098 255 255 255
0.241 -0.65189 1.2786 255 255 255
0.241 -0.65189 1.26098 255 255 255
0.1899 -0.65189 1.31872 255 255 255
0.241 -0.65189 1.31872 255 255 255
-0.25773 -0.65189 1.27856 12 0 0
-0.241 -0.65189 1.2786 12 0 0
-0.241 -0.65189 1.26098 12 0 0
-0.25774 -0.65189 1.15933 12 0 0
-0.19008 -0.65189 1.15933 12 0 0
-0.19008 -0.65189 1.13579 12 0 0
-0.25774 -0.65189 1.13579 12 0 0
-0.1899 -0.65189 1.26098 12 0 0
-0.15038 -0.65189 1.31872 23 0 0
-0.1899 -0.65189 1.31872 23 0 0
-0.15038 -0.63472 1.31872 23 0 0
-0.1899 -0.65189 1.26098 23 0 0
-0.15038 -0.65189 1.15933 23 0 0
-0.19008 -0.65189 1.15933 23 0 0
-0.241 -0.65189 1.31872 23 0 0
-0.29749 -0.63472 1.31872 23 0 0
-0.29749 -0.65189 1.31872 23 0 0
-0.29749 -0.65189 1.15933 23 0 0
-0.29749 -0.63472 1.09891 23 0 0
-0.25773 -0.65189 1.27856 23 0 0
-0.241 -0.65189 1.2786 23 0 0
-0.25774 -0.65189 1.15933 23 0 0
-0.29749 -0.65189 1.09891 23 0 0
-0.15038 -0.63472 1.09891 23 0 0
-0.15038 -0.65189 1.09891 23 0 0
-0.25774 -0.65189 1.13579 105 59 10
-0.29749 -0.65189 1.09891 105 59 10
-0.29749 -0.65189 1.15933 105 59 10
-0.25774 -0.65189 1.15933 105 59 10
-0.19008 -0.65189 1.13579 105 59 10
-0.15038 -0.65189 1.09891 105 59 10
-0.19008 -0.65189 1.15933 105 59 10
-0.15038 -0.65189 1.15933 105 59 10
-0.1899 -0.65189 1.26098 255 255 255
-0.241 -0.65189 1.26098 255 255 255
-0.241 -0.65189 1.2786 255 255 255
-0.1899 -0.65189 1.31872 255 255 255
-0.241 -0.65189 1.31872 255 255 255
0.31994 0.58721 0.35206 175 130 76
-0.31994 0.58721 0.35206 175 130 76
-0.32197 -0.36786 0.35234 175 130 76
0.32197 -0.36786 0.35234 175 130 76
0.37783 -0.36786 0.4094 175 130 76
0.37783 -0.36786 0.85399 175 130 76
0.37719 0.58721 0.85399 175 130 76
0.37719 0.58721 0.40716 175 130 76
0.32073 -0.36786 0.90956 175 130 76
0.32 0.58712 0.90956 175 130 76
0.31999 0.6432 0.85404 175 130 76
0.31995 0.6432 0.40728 175 130 76
-0.31999 0.6432 0.85404 175 130 76
-0.31995 0.6432 0.40728 175 130 76
-0.37719 0.58721 0.40716 175 130 76
-0.37783 -0.36786 0.4094 175 130 76
-0.37719 0.58721 0.85399 175 130 76
-0.37783 -0.36786 0.85399 175 130 76
-0.32073 -0.36786 0.90956 175 130 76
-0.32 0.58712 0.90956 175 130 76
0.32 0.58712 0.90956 180 134 78
0.32073 -0.36786 0.90956 180 134 78
-0.32073 -0.36786 0.90956 180 134 78
-0.32 0.58712 0.90956 180 134 78
0.22268 0.57326 0.07012 175 130 76
0.28267 0.57326 0.00455 175 130 76
0.28267 0.57326 0.36484 175 130 76
0.22268 0.57326 0.15806 175 130 76
0.31153 0.54058 0.36484 175 130 76
0.31153 0.54058 0.00455 175 130 76
0.09228 0.57326 0.00455 175 130 76
0.06342 0.54058 0.00455 175 130 76
0.09228 0.57326 0.36484 175 130 76
0.06342 0.54058 0.36484 175 130 76
0.15323 0.57326 0.07012 175 130 76
0.15323 0.57326 0.15806 175 130 76
0.31153 0.31801 0.12708 175 130 76
0.31153 0.31801 0.36484 175 130 76
0.06342 0.31801 0.36484 175 130 76
0.06342 0.31801 0.12708 175 130 76
0.31153 0.31801 0.00455 175 130 76
0.27924 0.26555 0.00455 175 130 76
0.09571 0.26555 0.00455 175 130 76
0.27924 0.26555 0.11146 175 130 76
0.09571 0.26555 0.11146 175 130 76
0.06342 0.31801 0.00455 175 130 76
0.06342 0.31801 0.12708 180 134 78
0.31153 0.31801 0.12708 180 134 78
0.27924 0.26555 0.11146 180 134 78
0.09571 0.26555 0.11146 180 134 78
0.09228 -0.06624 0.36484 175 130 76
0.09228 -0.06624 0.00455 175 130 76
0.28267 -0.06624 0.00455 175 130 76
0.28267 -0.06624 0.36484 175 130 76
0.31153 -0.09892 0.36484 175 130 76
0.31153 -0.09892 0.00455 175 130 76
0.06342 -0.09892 0.00455 175 130 76
0.25075 -0.14954 0.00455 175 130 76
0.12421 -0.14954 0.00455 175 130 76
0.06342 -0.09892 0.36484 175 130 76
0.25075 -0.28032 0.00455 175 130 76
0.31153 -0.32148 0.00455 175 130 76
0.12421 -0.28032 0.00455 175 130 76
0.06342 -0.32148 0.00455 175 130 76
0.09571 -0.37178 0.00455 175 130 76
0.06342 -0.32148 0.12708 175 130 76
0.09571 -0.37178 0.11146 175 130 76
0.27924 -0.37178 0.11146 175 130 76
0.27924 -0.37178 0.00455 175 130 76
0.31153 -0.32148 0.12708 175 130 76
0.06342 -0.32148 0.36484 175 130 76
0.31153 -0.32148 0.36484 175 130 76
0.12421 -0.14954 0.00455 241 186 122
0.12421 -0.28032 0.00455 241 186 122
0.25075 -0.28032 0.00455 241 186 122
0.25075 -0.14954 0.00455 241 186 122
0.06342 -0.32148 0.12708 180 134 78
0.31153 -0.32148 0.12708 180 134 78
0.27924 -0.37178 0.11146 180 134 78
0.09571 -0.37178 0.11146 180 134 78
-0.15323 0.57326 0.07012 175 130 76
-0.09228 0.57326 0.00455 175 130 76
-0.09228 0.57326 0.36484 175 130 76
-0.15323 0.57326 0.15806 175 130 76
-0.06342 0.54058 0.36484 175 130 76
-0.06342 0.54058 0.00455 175 130 76
-0.28267 0.57326 0.00455 175 130 76
-0.31153 0.54058 0.00455 175 130 76
-0.28267 0.57326 0.36484 175 130 76
-0.31153 0.54058 0.36484 175 130 76
-0.22268 0.57326 0.07012 175 130 76
-0.22268 0.57326 0.15806 175 130 76
-0.31153 0.31801 0.12708 175 130 76
-0.31153 0.31801 0.36484 175 130 76
-0.06342 0.31801 0.36484 175 130 76
-0.06342 0.31801 0.12708 175 130 76
-0.31153 0.31801 0.00455 175 130 76
-0.27924 0.26555 0.00455 175 130 76
-0.09571 0.26555 0.00455 175 130 76
-0.27924 0.26555 0.11146 175 130 76
-0.09571 0.26555 0.11146 175 130 76
-0.06342 0.31801 0.00455 175 130 76
-0.06342 0.31801 0.12708 180 134 78
-0.09571 0.26555 0.11146 180 134 78
-0.27924 0.26555 0.11146 180 134 78
-0.31153 0.31801 0.12708 180 134 78
-0.09228 -0.06624 0.36484 175 130 76
-0.28267 -0.06624 0.36484 175 130 76
-0.28267 -0.06624 0.00455 175 130 76
-0.09228 -0.06624 0.00455 175 130 76
-0.06342 -0.09892 0.36484 175 130 76
-0.06342 -0.09892 0.00455 175 130 76
-0.31153 -0.09892 0.00455 175 130 76
-0.25075 -0.14954 0.00455 175 130 76
-0.12421 -0.14954 0.00455 175 130 76
-0.31153 -0.09892 0.36484 175 130 76
-0.25075 -0.28032 0.00455 175 130 76
-0.31153 -0.32148 0.00455 175 130 76
-0.12421 -0.28032 0.00455 175 130 76
-0.06342 -0.32148 0.00455 175 130 76
-0.09571 -0.37178 0.00455 175 130 76
-0.06342 -0.32148 0.12708 175 130 76
-0.09571 -0.37178 0.11146 175 130 76
-0.27924 -0.37178 0.11146 175 130 76
-0.27924 -0.37178 0.00455 175 130 76
-0.31153 -0.32148 0.12708 175 130 76
-0.06342 -0.32148 0.36484 175 130 76
-0.31153 -0.32148 0.36484 175 130 76
-0.12421 -0.14954 0.00455 241 186 122
-0.25075 -0.14954 0.00455 241 186 122
-0.25075 -0.28032 0.00455 241 186 122
-0.12421 -0.28032 0.00455 241 186 122
-0.06342 -0.32148 0.12708 180 134 78
-0.09571 -0.37178 0.11146 180 134 78
-0.27924 -0.37178 0.11146 180 134 78
-0.31153 -0.32148 0.12708 180 134 78
-0.02818 -0.65449 1.08952 20 14 11
-0.02818 -0.65449 1.12426 20 14 11
0.02818 -0.65449 1.12426 20 14 11
0.02818 -0.65449 1.08952 20 14 11
0.02818 -0.63596 1.12426 20 14 11
-0.02818 -0.63596 1.12426 20 14 11
-0.02818 -0.63596 1.08952 20 14 11
0.02818 -0.63596 1.08952 20 14 11
-0.36374 -0.70902 0.3035 245 231 191
-0.36374 -0.70902 0.79962 245 231 191
-0.2929 -0.75168 0.79962 245 231 191
-0.2929 -0.75168 0.3035 245 231 191
-0.36374 -0.39713 0.3035 245 231 191
-0.36374 -0.39713 0.79962 245 231 191
0.2929 -0.75168 0.3035 245 231 191
0.2929 -0.75168 0.79962 245 231 191
0.36374 -0.70902 0.3035 245 231 191
0.36374 -0.70902 0.79962 245 231 191
0.36374 -0.39713 0.79962 245 231 191
0.36374 -0.39713 0.3035 245 231 191
-0.25873 -0.72288 0.84254 245 231 191
-0.3213 -0.6852 0.84254 245 231 191
-0.3213 -0.42095 0.84254 245 231 191
-0.33862 -0.35447 0.79962 245 231 191
-0.33862 -0.35447 0.3035 245 231 191
0.33862 -0.35447 0.79962 245 231 191
0.33862 -0.35447 0.3035 245 231 191
-0.29912 -0.38327 0.84254 245 231 191
0.29912 -0.38327 0.84254 245 231 191
0.3213 -0.42095 0.84254 245 231 191
-0.29968 -0.38286 0.25686 245 231 191
-0.32191 -0.42061 0.25686 245 231 191
0.29968 -0.38286 0.25686 245 231 191
0.32191 -0.42061 0.25686 245 231 191
0.32191 -0.68554 0.25686 245 231 191
-0.32191 -0.68554 0.25686 245 231 191
0.25922 -0.72329 0.25686 245 231 191
-0.25922 -0.72329 0.25686 245 231 191
0.3213 -0.6852 0.84254 245 231 191
0.25873 -0.72288 0.84254 245 231 191
0.3213 -0.6852 0.84254 250 236 195
0.25873 -0.72288 0.84254 250 236 195
-0.25873 -0.72288 0.84254 250 236 195
-0.3213 -0.6852 0.84254 250 236 195
0.3213 -0.42095 0.84254 250 236 195
-0.3213 -0.42095 0.84254 250 236 195
0.29912 -0.38327 0.84254 250 236 195
-0.29912 -0.38327 0.84254 250 236 195
-0.6875 -0.48293 0.49837 245 231 191
-0.6875 -0.48293 0.9485 245 231 191
-0.63944 -0.52559 0.9485 245 231 191
-0.63944 -0.52559 0.49837 245 231 191
-0.6875 0.00934 0.49837 245 231 191
-0.6875 0.00934 0.9485 245 231 191
-0.36139 -0.52559 0.49837 245 231 191
-0.36139 -0.52559 0.9485 245 231 191
-0.31333 -0.48293 0.49837 245 231 191
-0.31333 -0.48293 0.9485 245 231 191
-0.31333 0.00934 0.9485 245 231 191
-0.31333 0.00934 0.49837 245 231 191
-0.61626 -0.49679 0.99143 245 231 191
-0.65871 -0.45911 0.99143 245 231 191
-0.65871 -0.01448 0.99143 245 231 191
-0.63944 0.052 0.9485 245 231 191
-0.63944 0.052 0.49837 245 231 191
-0.36139 0.052 0.9485 245 231 191
-0.36139 0.052 0.49837 245 231 191
-0.61626 0.0232 0.99143 245 231 191
-0.38458 0.0232 0.99143 245 231 191
-0.34213 -0.01448 0.99143 245 231 191
-0.61659 0.02361 0.45173 245 231 191
-0.65912 -0.01414 0.45173 245 231 191
-0.65912 -0.45945 0.45173 245 231 191
-0.34171 -0.45945 0.45173 245 231 191
-0.34171 -0.01414 0.45173 245 231 191
-0.61659 -0.4972 0.45173 245 231 191
-0.38425 -0.4972 0.45173 245 231 191
-0.38425 0.02361 0.45173 245 231 191
-0.34213 -0.45911 0.99143 245 231 191
-0.38458 -0.49679 0.99143 245 231 191
-0.34213 -0.01448 0.99143 250 236 195
-0.34213 -0.45911 0.99143 250 236 195
-0.65871 -0.45911 0.99143 250 236 195
-0.65871 -0.01448 0.99143 250 236 195
-0.61626 -0.49679 0.99143 250 236 195
-0.38458 -0.49679 0.99143 250 236 195
-0.38458 0.0232 0.99143 250 236 195
-0.61626 0.0232 0.99143 250 236 195
0.6875 -0.48293 0.49837 245 231 191
0.63944 -0.52559 0.49837 245 231 191
0.63944 -0.52559 0.9485 245 231 191
0.6875 -0.48293 0.9485 245 231 191
0.6875 0.00934 0.49837 245 231 191
0.6875 0.00934 0.9485 245 231 191
0.36139 -0.52559 0.49837 245 231 191
0.36139 -0.52559 0.9485 245 231 191
0.31333 -0.48293 0.49837 245 231 191
0.31333 -0.48293 0.9485 245 231 191
0.31333 0.00934 0.9485 245 231 191
0.31333 0.00934 0.49837 245 231 191
0.61626 -0.49679 0.99143 245 231 191
0.65871 -0.45911 0.99143 245 231 191
0.65871 -0.01448 0.99143 245 231 191
0.63944 0.052 0.9485 245 231 191
0.63944 0.052 0.49837 245 231 191
0.36139 0.052 0.9485 245 231 191
0.36139 0.052 0.49837 245 231 191
0.61626 0.0232 0.99143 245 231 191
0.38458 0.0232 0.99143 245 231 191
0.34213 -0.01448 0.99143 245 231 191
0.61659 0.02361 0.45173 245 231 191
0.65912 -0.01414 0.45173 245 231 191
0.65912 -0.45945 0.45173 245 231 191
0.34171 -0.45945 0.45173 245 231 191
0.34171 -0.01414 0.45173 245 231 191
0.61659 -0.4972 0.45173 245 231 191
0.38425 -0.4972 0.45173 245 231 191
0.38425 0.02361 0.45173 245 231 191
0.34213 -0.45911 0.99143 245 231 191
0.38458 -0.49679 0.99143 245 231 191
0.34213 -0.01448 0.99143 250 236 195
0.65871 -0.01448 0.99143 250 236 195
0.65871 -0.45911 0.99143 250 236 195
0.34213 -0.45911 0.99143 250 236 195
0.61626 -0.49679 0.99143 250 236 195
0.38458 -0.49679 0.99143 250 236 195
0.38458 0.0232 0.99143 250 236 195
0.61626 0.0232 0.99143 250 236 195
-0.33691 0.43902 1.07252 175 130 76
-0.33691 0.75515 1.38725 175 130 76
-0.28691 0.71623 1.42598 175 130 76
-0.28691 0.40027 1.11144 175 130 76
-0.33691 0.80759 0.7023 175 130 76
-0.33691 1.12542 1.01872 175 130 76
-0.33691 1.18691 1.07994 245 231 191
-0.33691 1.12542 1.01872 245 231 191
-0.28424 1.16434 0.97999 245 231 191
-0.28424 1.22565 1.04102 245 231 191
-0.33691 0.81834 1.45015 245 231 191
-0.33691 0.75515 1.38725 245 231 191
0.28424 1.16434 0.97999 245 231 191
0.28424 1.22565 1.04102 245 231 191
-0.25108 1.23663 1.10426 245 231 191
0.25108 1.23663 1.10426 245 231 191
0.33691 1.12542 1.01872 245 231 191
0.33691 1.18691 1.07994 245 231 191
-0.29761 0.87711 1.46539 245 231 191
-0.29761 1.2024 1.13864 245 231 191
-0.15376 1.11145 1.23 245 231 191
-0.11701 1.14139 1.19992 245 231 191
0.11701 1.14139 1.19992 245 231 191
0.29761 1.2024 1.13864 245 231 191
0.33691 0.81834 1.45015 245 231 191
0.29761 0.87711 1.46539 245 231 191
0.15376 1.11145 1.23 245 231 191
-0.15376 0.96791 1.37418 245 231 191
-0.11811 0.93796 1.40426 245 231 191
-0.25344 0.84288 1.49976 245 231 191
0.11811 0.93796 1.40426 245 231 191
0.25344 0.84288 1.49976 245 231 191
0.15376 0.96791 1.37418 245 231 191
-0.10364 1.18059 1.53409 245 231 191
0.10364 1.2723 1.44196 245 231 191
0.10364 1.18059 1.53409 245 231 191
0.33691 0.75515 1.38725 245 231 191
-0.10364 1.2723 1.44196 245 231 191
-0.08464 1.20322 1.53983 245 231 191
-0.08464 1.27812 1.46459 245 231 191
0.08464 1.20322 1.53983 245 231 191
-0.06021 1.18468 1.55845 245 231 191
0.06021 1.18468 1.55845 245 231 191
0.08464 1.27812 1.46459 245 231 191
0.05965 1.29666 1.44597 245 231 191
-0.05965 1.29666 1.44597 245 231 191
0.07304 1.295 1.41916 245 231 191
-0.07304 1.295 1.41916 245 231 191
0.29817 0.41999 1.01092 175 130 76
0.29817 0.74591 0.68355 175 130 76
-0.29817 0.74591 0.68355 175 130 76
-0.29817 0.41999 1.01092 175 130 76
-0.25392 0.3857 1.04537 175 130 76
-0.25156 0.78019 0.64911 175 130 76
-0.28424 0.84633 0.66339 175 130 76
0.25156 0.78019 0.64911 175 130 76
0.28424 0.84633 0.66339 175 130 76
0.28424 1.16434 0.97999 175 130 76
-0.28424 1.16434 0.97999 175 130 76
0.33691 1.12542 1.01872 175 130 76
0.33691 0.80759 0.7023 175 130 76
0.33691 0.43902 1.07252 175 130 76
0.25392 0.3857 1.04537 175 130 76
0.28691 0.40027 1.11144 175 130 76
0.33691 0.75515 1.38725 175 130 76
0.28691 0.71623 1.42598 175 130 76
-0.28691 0.7796 1.48907 250 236 195
0.28691 0.77959 1.48907 250 236 195
0.28691 0.71623 1.42598 250 236 195
-0.28691 0.71623 1.42598 250 236 195
0.33691 0.75515 1.38725 250 236 195
0.33691 0.81834 1.45015 250 236 195
0.25344 0.84288 1.49976 250 236 195
-0.25344 0.84288 1.49976 250 236 195
-0.33691 0.81834 1.45015 250 236 195
-0.29761 0.87711 1.46539 250 236 195
0.29761 0.87711 1.46539 250 236 195
-0.33691 0.75515 1.38725 250 236 195
0.28691 0.40027 1.11144 180 134 78
0.25392 0.3857 1.04537 180 134 78
-0.25392 0.3857 1.04537 180 134 78
-0.28691 0.40027 1.11144 180 134 78
0.28691 0.71623 1.42598 180 134 78
-0.28691 0.71623 1.42598 180 134 78
-0.15376 0.96791 1.37418 250 236 195
-0.10364 1.18059 1.53409 250 236 195
-0.07373 1.15788 1.55689 250 236 195
-0.11811 0.93796 1.40426 250 236 195
0.07373 1.15788 1.55689 250 236 195
0.11811 0.93796 1.40426 250 236 195
0.10364 1.18059 1.53409 250 236 195
0.15376 0.96791 1.37418 250 236 195
-0.06021 1.18468 1.55845 250 236 195
-0.08464 1.20322 1.53983 250 236 195
0.06021 1.18468 1.55845 250 236 195
0.08464 1.20322 1.53983 250 236 195
0.53735 -0.10715 0.74796 245 231 191
0.46986 -0.14981 0.74796 245 231 191
0.46986 -0.14981 1.0618 245 231 191
0.53735 -0.10715 1.0618 245 231 191
0.53735 0.23447 0.74796 245 231 191
0.53735 0.23447 1.0618 245 231 191
0.4373 -0.12101 1.10472 245 231 191
0.49692 -0.08333 1.10472 245 231 191
0.49692 0.21064 1.10472 245 231 191
0.46986 0.27712 1.0618 245 231 191
0.46986 0.27712 0.74796 245 231 191
0.4373 0.24832 1.10472 245 231 191
0.49749 -0.08367 0.70131 245 231 191
0.43776 -0.12142 0.70131 245 231 191
0.49749 0.21098 0.70131 245 231 191
0.43776 0.24874 0.70131 245 231 191
-0.49749 -0.08367 0.70131 245 231 191
-0.49749 0.21098 0.70131 245 231 191
-0.46986 0.27712 1.0618 245 231 191
-0.4373 0.24832 1.10472 245 231 191
-0.43776 -0.12142 0.70131 245 231 191
-0.46986 -0.14981 0.74796 245 231 191
-0.43776 0.24874 0.70131 245 231 191
-0.46986 -0.14981 1.0618 245 231 191
-0.53735 -0.10715 0.74796 245 231 191
-0.53735 -0.10715 1.0618 245 231 191
-0.53735 0.23447 0.74796 245 231 191
-0.53735 0.23447 1.0618 245 231 191
-0.49692 0.21064 1.10472 245 231 191
-0.46986 0.27712 0.74796 245 231 191
-0.49692 -0.08333 1.10472 245 231 191
-0.4373 -0.12101 1.10472 245 231 191
0.49692 -0.08333 1.10472 250 236 195
-0.49692 -0.08333 1.10472 250 236 195
-0.49692 0.21064 1.10472 250 236 195
0.49692 0.21064 1.10472 250 236 195
0.4373 -0.12101 1.10472 250 236 195
-0.4373 -0.12101 1.10472 250 236 195
-0.4373 0.24832 1.10472 250 236 195
0.4373 0.24832 1.10472 250 236 195
-0.07463 -0.60432 0.93068 187 76 80
-0.07463 -0.60432 0.99752 187 76 80
0.07463 -0.60432 0.99752 187 76 80
0.07463 -0.60432 0.93068 187 76 80
0.07463 -0.55297 0.99752 187 76 80
-0.07463 -0.55297 0.99752 187 76 80
0.07463 -0.55297 0.93068 187 76 80
-0.07463 -0.55297 0.93068 187 76 80
-0.41639 -0.59451 0.88422 175 130 76
-0.41639 -0.59451 1.54211 175 130 76
-0.35874 -0.64165 1.54211 175 130 76
-0.35874 -0.64165 0.88422 175 130 76
-0.41639 0.0599 0.88422 175 130 76
-0.41639 0.0599 1.54211 175 130 76
-0.31091 -0.59174 1.58536 175 130 76
-0.36087 -0.55088 1.58536 175 130 76
-0.36087 0.01627 1.58536 175 130 76
-0.35874 0.10704 1.54211 175 130 76
-0.35874 0.10704 0.88422 175 130 76
0.35874 0.10704 1.54211 175 130 76
0.35874 0.10704 0.88422 175 130 76
0.41639 0.0599 1.54211 175 130 76
0.41639 0.0599 0.88422 175 130 76
-0.31091 0.05713 1.58536 175 130 76
0.31091 0.05713 1.58536 175 130 76
0.36087 0.01627 1.58536 175 130 76
0.41639 -0.59451 1.54211 175 130 76
0.36087 -0.55088 1.58536 175 130 76
0.35874 -0.64165 1.54211 175 130 76
0.41639 -0.59451 0.88422 175 130 76
0.35874 -0.64165 0.88422 175 130 76
0.31091 -0.59174 1.58536 175 130 76
0.36261 0.01763 0.83414 175 130 76
0.36261 -0.55224 0.83414 175 130 76
0.31241 -0.5933 0.83414 175 130 76
-0.31241 -0.5933 0.83414 175 130 76
-0.36261 -0.55224 0.83414 175 130 76
-0.36261 0.01763 0.83414 175 130 76
-0.31241 0.05869 0.83414 175 130 76
0.31241 0.05869 0.83414 175 130 76
-0.11011 -0.64165 0.93395 175 130 76
-0.11011 -0.64165 1.05166 175 130 76
0.11011 -0.64165 0.93395 175 130 76
0.11011 -0.64165 1.05166 175 130 76
0 -0.64165 1.06885 175 130 76
-0.03343 -0.64165 1.05166 175 130 76
0.03343 -0.64165 1.05166 175 130 76
-0.36087 -0.55088 1.58536 180 134 78
0.36087 -0.55088 1.58536 180 134 78
0.31091 -0.59174 1.58536 180 134 78
-0.31091 -0.59174 1.58536 180 134 78
0.36087 0.01627 1.58536 180 134 78
-0.36087 0.01627 1.58536 180 134 78
0.31091 0.05713 1.58536 180 134 78
-0.31091 0.05713 1.58536 180 134 78
-0.03343 -0.55469 1.05166 88 36 48
0 -0.55469 1.06885 88 36 48
0.03343 -0.55469 1.05166 88 36 48
-0.03343 -0.64165 1.05166 88 36 48
0 -0.64165 1.06885 88 36 48
-0.11011 -0.64165 1.05166 88 36 48
-0.11011 -0.55469 1.05166 88 36 48
-0.11011 -0.55469 0.93395 88 36 48
-0.11011 -0.64165 0.93395 88 36 48
0.11011 -0.55469 0.93395 88 36 48
0.11011 -0.64165 0.93395 88 36 48
0.11011 -0.55469 1.05166 88 36 48
0.11011 -0.64165 1.05166 88 36 48
0.03343 -0.64165 1.05166 88 36 48
-0.13802 -0.25616 1.49077 180 134 78
-0.57317 -0.2566 1.95483 180 134 78
-0.57317 -0.09727 1.95483 180 134 78
-0.13802 -0.09683 1.49077 180 134 78
-0.66348 -0.2566 2.00126 180 134 78
-0.66348 -0.09727 2.00126 180 134 78
-0.13802 -0.09683 1.49077 175 130 76
-0.57317 -0.09727 1.95483 175 130 76
-0.83197 -0.09727 1.71222 175 130 76
-0.39717 -0.09683 1.24783 175 130 76
-0.83197 -0.2566 1.71222 175 130 76
-0.39717 -0.25616 1.24783 175 130 76
-0.66348 -0.09727 2.00126 175 130 76
-0.87214 -0.09727 1.80468 175 130 76
-0.69898 -0.12033 1.9938 175 130 76
-0.8624 -0.12033 1.83984 175 130 76
-0.8624 -0.23354 1.83984 175 130 76
-0.69898 -0.23354 1.9938 175 130 76
-0.87214 -0.2566 1.80468 175 130 76
-0.76317 -0.2566 1.7761 175 130 76
-0.64179 -0.2566 1.88988 175 130 76
-0.66348 -0.2566 2.00126 175 130 76
-0.57317 -0.2566 1.95483 175 130 76
-0.43653 -0.25607 1.67067 175 130 76
-0.13802 -0.25616 1.49077 175 130 76
-0.20643 -0.25616 1.42662 175 130 76
-0.55674 -0.25607 1.55799 175 130 76
-0.32742 -0.25616 1.3132 175 130 76
-0.55674 -0.25607 1.55799 20 14 11
-0.43653 -0.25607 1.67067 20 14 11
-0.20643 -0.25616 1.42662 20 14 11
-0.32742 -0.25616 1.3132 20 14 11
-0.69898 -0.23354 1.9938 180 134 78
-0.69898 -0.12033 1.9938 180 134 78
-0.43653 -0.25607 1.67067 79 45 7
-0.55674 -0.25607 1.55799 79 45 7
-0.76317 -0.2566 1.7761 79 45 7
-0.64179 -0.2566 1.88988 79 45 7
-0.22268 0.57326 0.07012 241 186 122
-0.15323 0.57326 0.07012 241 186 122
-0.15323 0.57326 0.15806 241 186 122
-0.22268 0.57326 0.15806 241 186 122
0.15323 0.57326 0.07012 241 186 122
0.22268 0.57326 0.07012 241 186 122
0.22268 0.57326 0.15806 241 186 122
0.15323 0.57326 0.15806 241 186 122
3 0 2 1
3 0 3 2
3 2 3 4
3 2 4 5
3 6 8 7
3 6 9 8
3 7 8 10
3 7 10 11
3 8 9 12
3 8 12 13
3 13 12 14
3 13 14 15
3 16 15 14
3 16 14 17
3 10 8 13
3 10 13 18
3 19 10 18
3 18 20 19
3 18 21 20
3 21 18 16
3 18 15 16
3 18 13 15
3 21 16 17
3 21 22 20
3 20 22 23
3 23 22 24
3 23 24 25
3 26 10 19
3 11 10 26
3 11 26 27
3 28 30 29
3 28 31 30
3 5 33 32
3 5 4 33
3 34 36 35
3 34 37 36
3 38 40 39
3 41 38 39
3 41 39 42
3 41 42 43
3 41 43 44
3 42 39 45
3 46 48 47
3 46 49 48
3 50 49 46
3 50 51 49
3 47 48 52
3 47 52 53
3 53 52 54
3 55 53 54
3 55 56 53
3 57 54 52
3 55 54 57
3 57 52 58
3 55 57 59
3 60 56 55
3 61 56 60
3 46 61 50
3 46 47 61
3 61 60 62
3 50 61 62
3 63 65 64
3 63 66 65
3 67 66 63
3 67 68 66
3 68 67 69
3 68 69 70
3 71 73 72
3 71 72 74
3 74 72 75
3 76 78 77
3 79 78 76
3 79 80 78
3 79 81 80
3 79 82 81
3 80 83 78
3 84 86 85
3 84 85 87
3 88 84 87
3 88 87 89
3 86 90 85
3 86 91 90
3 91 92 90
3 93 92 91
3 93 91 94
3 95 90 92
3 93 95 92
3 95 96 90
3 93 97 95
3 98 93 94
3 99 98 94
3 84 99 86
3 84 88 99
3 99 100 98
3 88 100 99
3 101 103 102
3 101 104 103
3 105 101 102
3 105 102 106
3 106 107 105
3 106 108 107
3 109 111 110
3 109 112 111
3 112 113 111
3 114 116 115
3 114 117 116
3 118 120 119
3 118 121 120
3 120 122 119
3 120 123 122
3 121 124 120
3 123 120 124
3 121 125 124
3 126 124 125
3 126 125 127
3 121 114 125
3 127 125 114
3 117 114 121
3 117 121 118
3 127 114 115
3 128 126 127
3 128 127 115
3 116 128 115
3 116 129 128
3 128 130 126
3 129 130 128
3 129 131 130
3 130 131 132
3 130 132 133
3 133 124 126
3 130 133 126
3 133 123 124
3 134 136 135
3 134 137 136
3 138 140 139
3 138 141 140
3 142 139 140
3 142 143 139
3 143 144 139
3 144 138 139
3 143 145 144
3 145 146 144
3 146 140 141
3 145 147 146
3 146 148 144
3 144 148 138
3 146 149 148
3 146 141 149
3 150 142 151
3 152 150 151
3 152 153 150
3 150 143 142
3 150 154 143
3 150 155 154
3 154 155 156
3 157 156 155
3 150 157 155
3 157 158 156
3 153 156 158
3 153 159 156
3 154 156 159
3 153 145 159
3 154 145 143
3 154 159 145
3 147 145 153
3 147 153 152
3 160 162 161
3 160 163 162
3 164 166 165
3 164 167 166
3 168 166 167
3 168 169 166
3 169 165 166
3 169 170 165
3 170 164 165
3 170 169 171
3 170 171 172
3 170 173 164
3 169 174 171
3 169 175 174
3 175 176 174
3 175 177 176
3 177 172 176
3 175 178 177
3 179 177 178
3 179 170 177
3 177 170 172
3 179 178 180
3 181 180 178
3 181 178 182
3 175 182 178
3 183 182 175
3 183 181 182
3 183 175 169
3 184 179 183
3 184 183 185
3 183 168 185
3 183 169 168
3 173 170 179
3 173 179 184
3 186 188 187
3 186 189 188
3 190 192 191
3 190 193 192
3 194 196 195
3 194 197 196
3 198 195 196
3 198 199 195
3 199 200 195
3 200 194 195
3 199 201 200
3 201 202 200
3 201 203 202
3 200 204 194
3 202 204 200
3 196 205 202
3 196 197 205
3 202 205 204
3 206 207 203
3 208 207 206
3 208 206 209
3 206 203 201
3 206 201 210
3 206 210 211
3 210 212 211
3 213 211 212
3 206 211 213
3 213 212 214
3 209 214 212
3 209 212 215
3 210 215 212
3 215 210 201
3 209 215 199
3 215 201 199
3 198 209 199
3 198 208 209
3 216 218 217
3 216 219 218
3 220 222 221
3 220 223 222
3 224 223 220
3 224 225 223
3 225 222 223
3 225 226 222
3 226 221 222
3 225 227 226
3 225 228 227
3 226 229 221
3 226 227 230
3 226 230 231
3 231 230 232
3 231 232 233
3 233 232 228
3 231 233 234
3 235 234 233
3 235 233 225
3 233 228 225
3 235 236 234
3 237 234 236
3 237 238 234
3 231 234 238
3 239 238 237
3 239 231 238
3 239 226 231
3 240 239 235
3 240 241 239
3 239 241 229
3 239 229 226
3 224 235 225
3 224 240 235
3 242 244 243
3 242 245 244
3 246 248 247
3 246 249 248
3 250 252 251
3 250 253 252
3 251 252 254
3 253 254 252
3 251 254 255
3 256 253 250
3 256 251 255
3 256 250 251
3 256 257 253
3 253 257 254
3 258 260 259
3 258 261 260
3 262 258 259
3 262 259 263
3 260 261 264
3 260 264 265
3 265 264 266
3 265 266 267
3 266 268 267
3 266 269 268
3 259 260 270
3 259 270 271
3 263 259 271
3 263 271 272
3 273 263 272
3 263 273 274
3 263 274 262
3 274 273 275
3 274 275 276
3 276 275 268
3 276 268 269
3 275 273 277
3 273 272 277
3 275 277 278
3 268 275 278
3 267 268 279
3 268 278 279
3 262 274 280
3 262 280 281
3 274 282 280
3 274 276 282
3 276 283 282
3 276 269 283
3 283 280 282
3 283 281 280
3 284 281 283
3 269 284 283
3 284 285 281
3 269 266 284
3 266 286 284
3 286 285 284
3 266 264 286
3 264 287 286
3 286 287 285
3 264 261 287
3 261 285 287
3 261 258 285
3 258 281 285
3 258 262 281
3 267 279 288
3 265 267 288
3 265 288 289
3 260 265 289
3 260 289 270
3 290 292 291
3 290 293 292
3 294 293 290
3 294 295 293
3 296 295 294
3 296 297 295
3 298 300 299
3 298 301 300
3 302 298 299
3 302 299 303
3 300 301 304
3 300 304 305
3 305 304 306
3 305 306 307
3 306 308 307
3 306 309 308
3 299 300 310
3 299 310 311
3 303 299 311
3 303 311 312
3 313 303 312
3 303 313 314
3 303 314 302
3 314 313 315
3 314 315 316
3 316 315 308
3 316 308 309
3 315 313 317
3 313 312 317
3 315 317 318
3 308 315 318
3 307 308 319
3 308 318 319
3 302 314 320
3 302 320 321
3 298 302 321
3 298 321 322
3 323 322 321
3 323 321 324
3 316 309 324
3 309 323 324
3 324 321 320
3 301 298 322
3 301 322 325
3 304 301 325
3 304 325 326
3 326 322 323
3 326 325 322
3 316 324 327
3 324 320 327
3 314 327 320
3 314 316 327
3 306 326 323
3 306 304 326
3 309 306 323
3 307 319 328
3 305 307 328
3 305 328 329
3 300 305 329
3 300 329 310
3 330 332 331
3 330 333 332
3 331 332 334
3 331 334 335
3 336 333 330
3 336 337 333
3 338 340 339
3 338 341 340
3 342 341 338
3 342 343 341
3 340 344 339
3 340 345 344
3 345 346 344
3 345 347 346
3 346 347 348
3 346 348 349
3 341 350 340
3 341 351 350
3 343 351 341
3 343 352 351
3 353 352 343
3 343 354 353
3 343 342 354
3 354 355 353
3 354 356 355
3 356 348 355
3 356 349 348
3 355 357 353
3 353 357 352
3 355 358 357
3 348 358 355
3 347 359 348
3 348 359 358
3 342 360 354
3 342 361 360
3 338 361 342
3 338 362 361
3 363 361 362
3 363 364 361
3 356 364 349
3 349 364 363
3 364 360 361
3 339 362 338
3 339 365 362
3 344 365 339
3 344 366 365
3 366 362 365
3 366 363 362
3 356 367 364
3 364 367 360
3 354 360 367
3 354 367 356
3 346 366 344
3 346 363 366
3 349 363 346
3 347 368 359
3 345 368 347
3 345 369 368
3 340 369 345
3 340 350 369
3 370 372 371
3 370 373 372
3 373 374 372
3 373 375 374
3 376 370 371
3 376 371 377
3 378 380 379
3 378 381 380
3 382 378 379
3 382 379 383
3 384 386 385
3 384 387 386
3 385 388 384
3 385 389 388
3 390 386 387
3 390 387 391
3 391 387 392
3 391 392 393
3 394 390 391
3 394 391 395
3 384 388 396
3 384 396 397
3 387 384 397
3 387 397 392
3 392 397 398
3 392 398 399
3 393 392 399
3 393 399 400
3 401 393 400
3 395 393 401
3 402 395 401
3 402 401 403
3 395 391 393
3 401 400 404
3 403 401 404
3 397 405 398
3 397 396 405
3 396 406 405
3 396 407 406
3 407 408 406
3 407 409 408
3 409 410 408
3 409 403 410
3 403 404 410
3 398 405 411
3 410 404 412
3 410 412 413
3 414 395 402
3 414 394 395
3 398 411 415
3 415 411 416
3 415 416 417
3 417 416 418
3 418 416 419
3 418 419 420
3 413 421 418
3 417 418 421
3 413 412 421
3 417 421 422
3 417 422 423
3 404 424 412
3 404 400 424
3 400 425 424
3 400 399 425
3 399 415 425
3 399 398 415
3 412 424 422
3 412 422 421
3 424 423 422
3 424 425 423
3 425 417 423
3 425 415 417
3 426 428 427
3 426 429 428
3 378 428 429
3 381 378 429
3 381 429 430
3 378 382 428
3 382 431 428
3 427 428 431
3 382 432 431
3 432 433 431
3 427 431 433
3 432 434 433
3 434 427 433
3 432 435 434
3 432 436 435
3 434 435 437
3 434 437 438
3 434 438 427
3 438 426 427
3 438 439 426
3 440 430 429
3 439 440 426
3 440 429 426
3 439 441 440
3 383 432 382
3 383 436 432
3 439 437 442
3 439 438 437
3 442 441 439
3 442 443 441
3 444 446 445
3 444 447 446
3 445 446 448
3 445 448 449
3 444 445 450
3 444 450 451
3 452 444 451
3 452 451 453
3 445 454 450
3 445 449 454
3 455 444 452
3 455 447 444
3 456 458 457
3 456 459 458
3 460 459 456
3 460 461 459
3 462 464 463
3 462 465 464
3 465 466 464
3 465 467 466
3 467 468 466
3 467 469 468
3 463 464 470
3 463 470 471
3 464 472 470
3 464 466 472
3 466 473 472
3 466 468 473
3 474 476 475
3 474 477 476
3 478 477 474
3 478 479 477
3 477 480 476
3 477 481 480
3 479 481 477
3 479 482 481
3 483 482 479
3 479 484 483
3 479 478 484
3 483 485 482
3 475 486 474
3 475 487 486
3 474 488 478
3 474 486 488
3 478 489 484
3 478 488 489
3 488 486 490
3 488 490 491
3 489 488 491
3 485 483 492
3 484 492 483
3 485 492 493
3 486 494 490
3 486 487 494
3 487 495 494
3 495 490 494
3 487 475 495
3 489 491 496
3 476 495 475
3 476 497 495
3 498 495 497
3 495 498 490
3 498 497 499
3 500 498 499
3 500 499 501
3 492 502 493
3 492 501 502
3 501 492 503
3 501 503 500
3 500 503 496
3 484 503 492
3 501 504 502
3 501 499 504
3 499 505 504
3 499 497 505
3 480 497 476
3 480 505 497
3 498 500 491
3 498 491 490
3 489 503 484
3 489 496 503
3 500 496 491
3 506 508 507
3 506 509 508
3 510 506 507
3 510 507 511
3 509 512 508
3 509 513 512
3 514 516 515
3 514 517 516
3 515 516 518
3 517 518 516
3 515 518 519
3 517 520 518
3 521 515 519
3 521 514 515
3 522 524 523
3 522 525 524
3 526 522 523
3 526 523 527
3 523 524 528
3 523 528 529
3 527 523 529
3 527 529 530
3 531 527 530
3 527 531 532
3 527 532 526
3 532 531 533
3 532 533 534
3 534 533 535
3 534 535 536
3 533 531 537
3 531 530 537
3 533 537 538
3 535 533 538
3 535 538 539
3 540 535 539
3 540 539 541
3 542 540 541
3 542 543 540
3 543 535 540
3 543 536 535
3 542 544 543
3 542 541 545
3 542 545 528
3 542 528 524
3 534 536 546
3 536 547 546
3 536 543 547
3 543 548 547
3 543 544 548
3 544 549 548
3 544 525 549
3 525 550 549
3 548 550 547
3 548 549 550
3 525 522 550
3 522 551 550
3 547 551 546
3 547 550 551
3 546 551 552
3 546 552 553
3 522 526 551
3 526 552 551
3 526 532 552
3 532 553 552
3 532 534 553
3 534 546 553
3 524 525 554
3 524 554 555
3 525 556 554
3 525 544 556
3 544 557 556
3 544 542 557
3 558 557 542
3 558 555 559
3 558 542 524
3 558 524 555
3 557 558 560
3 561 563 562
3 561 564 563
3 561 562 565
3 561 565 566
3 567 566 565
3 567 568 566
3 569 571 570
3 570 572 569
3 570 573 572
3 571 573 570
3 569 572 574
3 569 574 575
3 574 576 575
3 575 576 569
3 574 577 576
3 577 578 576
3 569 578 571
3 569 576 578
3 577 579 578
3 579 580 578
3 571 578 580
3 579 581 580
3 581 571 580
3 581 582 571
3 571 582 573
3 583 585 584
3 583 586 585
3 585 587 584
3 585 588 587
3 589 591 590
3 589 592 591
3 592 593 591
3 592 594 593
3 591 595 590
3 591 596 595
3 596 597 595
3 596 598 597
3 599 597 598
3 599 600 597
3 593 596 591
3 593 601 596
3 602 601 593
3 601 602 603
3 601 603 604
3 604 599 601
3 601 599 598
3 601 598 596
3 604 600 599
3 604 603 605
3 603 606 605
3 606 607 605
3 606 608 607
3 609 602 593
3 594 609 593
3 594 610 609
3 611 613 612
3 611 614 613
3 588 615 587
3 588 616 615
3 617 619 618
3 617 620 619
3 621 623 622
3 621 624 623
3 625 627 626
3 625 628 627
