mtllib Sharpedo_Mega.mtl
v -0.0361432 0.971771 0.0547344
vt 0.664638 0.275349
vn -0.9964941 0.0722736 0.0421421
v 0 1.3086 -0.065
vt 0.513494 0.700816
vn -0.000334615 0.8592451 -0.5115641
v 0 1.00778 -0.045
vt 0.513494 0.321807
vn -0.000228983 -0.103734 -0.9946051
v 0 1.1429 0.0736336
vt 0.679732 0.490802
vn -9.769744E-05 0.6105736 0.7919595
v 0 0.971783 0.0200558
vt 0.581592 0.275966
vn -0.000177676 0 -1
v 0 0.970261 0.167147
vt 0.820075 0.259725
vn 0 0.369698 0.929152
v 0 0.935783 -0.045
vt 0.513494 0.231118
vn -8.569493E-05 0.2080541 -0.9781173
v -0.0479328 0.773723 0.0934246
vt 0.721573 0.0254678
vn -0.9810709 0.135759 0.138092
v 0 0.88407 -0.045
vt 0.513494 0.165982
vn 0.0002350671 -0.7481813 -0.6634943
v 0 0.8614271 0.0300558
vt 0.595762 0.136855
vn -0.0003498998 0.1482919 -0.9889436
v 0.0361432 0.9717951 0.0547235
vt 0.664621 0.275379
vn 0.9964949 0.07227019 0.0421313
v 0 0.8086621 -0.0862408
vt 0.47949 0.083831
vn -0.000608159 0.692285 -0.721624
v 0 0.7750161 0.218528
vt 0.896403 0.0258282
vn -0.000253578 0.254491 0.9670751
v 0 0.772249 -0.0936066
vt 0.467874 0.0254513
v 0.0479328 0.773771 0.0934028
vt 0.721541 0.0255288
vn 0.9810697 0.135769 0.138091
v 0.153112 0.416471 -0.158749
vt 0.954129 0.341946
vn 0.5522561 -0.7142371 -0.4299751
v 0.113225 0.330668 -0.0250358
vt 0.950236 0.353313
vn 0.2611711 -0.9136353 -0.3115451
v 0 0.362832 -0.158749
vt 0.94233 0.343976
vn 0 -0.9018291 -0.432093
v 0.191174 0.370801 -0.0350358
vt 0.956376 0.352614
vn 0.4431179 -0.8787168 -0.1774919
v 0 0.420005 -0.271613
vt 0.942899 0.335442
vn 0 -0.8216453 -0.5699992
v 0.207474 0.428928 -0.13128
vt 0.958747 0.344307
vn 0.6015939 -0.410744 -0.685109
v 0.112685 0.46668 -0.40107
vt 0.947895 0.327331
vn 0.4473989 -0.4136399 -0.7929289
v 0.216534 0.577847 -0.158749
vt 0.962251 0.332782
vn 0.7882468 0.06412578 -0.6120089
v 0.159361 0.579365 -0.271613
vt 0.952441 0.323152
vn 0.8464588 0.02328649 -0.5319449
v 0 0.317761 -0.0150358
vt 0.94233 0.354011
vn 0 -0.9599553 -0.2801531
v 0.100761 0.276411 0.179818
vt 0.949365 0.367616
vn 0.3361008 -0.8857396 -0.3201588
v 0 0.264764 0.175808
vt 0.94233 0.367336
vn 0 -0.9199009 -0.3921509
v 0.0393998 0.539965 -0.243938
vt 0.942199 0.326064
vn -0.418285 0.418284 -0.806273
v -0.153112 0.416471 -0.158749
vn -0.5522561 -0.7142371 -0.4299751
v -0.112685 0.46668 -0.40107
vn -0.4473989 -0.4136399 -0.7929289
v -0.0393998 0.539965 -0.243938
vn 0.418285 0.418284 -0.806273
v 0.168787 0.322594 0.203233
vt 0.954115 0.369251
vn 0.8418301 -0.539656 -0.009666481
v -0.113225 0.330668 -0.0250358
vn -0.2611711 -0.9136353 -0.3115451
v -0.159361 0.579365 -0.271613
vn -0.8464588 0.02328649 -0.5319449
v -0.100761 0.276411 0.179818
vn -0.3361008 -0.8857396 -0.3201588
v -0.216534 0.577847 -0.158749
vn -0.7882468 0.06412578 -0.6120089
v -0.191174 0.370801 -0.0350358
vn -0.4431179 -0.8787168 -0.1774919
v -0.207474 0.428928 -0.13128
vn -0.6015939 -0.410744 -0.685109
v -0.168787 0.322594 0.203233
vn -0.8418301 -0.539656 -0.009666511
v 0.0360457 0.249464 0.0713977
vt 0.882952 0.526144
vn 0.9939352 -0.09950031 0.04682541
v 0 -0.00966727 -0.0159393
vt 0.991476 0.185305
v 0 0.224131 -0.0146982
vt 0.991699 0.531182
vn 0 0.05732982 -0.9983553
v 0 0.133014 0.117247
vt 0.825839 0.371438
vn 0 -0.5823059 0.8129698
v 0 0.249464 0.0424434
vt 0.943806 0.562793
vn 0 -0.303284 -0.9529002
v 0 0.349574 0.188671
vt 0.737013 0.653945
vn 0 -0.3817121 0.9242813
v 0 0.286166 -0.0346982
vt 1.0159 0.610922
vn 0 -0.471137 -0.8820601
v 0.0439558 0.34648 0.110396
vt 0.834359 0.653945
vn 0.9873288 -0.121523 0.102049
v 0 0.339567 -0.0546982
vt 1.03968 0.653946
vn 0 -0.04883369 -0.9988069
v -0.0360457 0.249464 0.0713977
vn -0.9939352 -0.09950031 0.04682541
v -0.0439558 0.34648 0.110396
vn -0.9873288 -0.121523 0.102049
v 0.153112 0.732478 -0.134616
vt 0.948064 0.0552811
vn 0.5355359 0.7609918 -0.3661869
vt 0.950881 0.0677819
v 0.112685 0.69205 -0.40107
vt 0.942447 0.0709799
vn 0.4811459 0.4811459 -0.732801
vt 0.956551 0.0606004
v 0 0.738726 -0.271613
vt 0.937455 0.0706292
vn 0 0.8949865 -0.4460933
v 0.239495 0.7194611 -0.0685786
vt 0.952067 0.0517512
vn 0.7417094 0.6417894 -0.1948681
v 0 0.785899 -0.0873439
vt 0.936993 0.0530266
vn 0 0.9861821 -0.165665
v 0.120294 0.786579 -0.0216235
vt 0.944843 0.0487374
vn 0.2591929 0.9642407 -0.05530728
v 0.0393998 0.618765 -0.243938
vt 0.94609 0.075152
vn -0.418284 -0.418285 -0.806273
v 0.286789 0.597849 -0.101169
vt 0.959907 0.0545453
vn 0.9647053 0.120455 -0.2341671
v 0 0.797423 0.273183
vt 0.936993 0.0294971
vn 0 0.9911674 0.132617
v -0.153112 0.732478 -0.134616
vn -0.5355363 0.7609914 -0.3661872
v -0.120294 0.786579 -0.0216235
vn -0.2591929 0.9642407 -0.05530738
v 0.274222 0.6839321 0.220166
vt 0.95368 0.0324265
vn 0.9264069 0.367485 0.08200739
v 0.19419 0.7435551 0.263184
vt 0.947056 0.0294971
vn 0.431648 0.8849671 0.17468
v -0.112685 0.69205 -0.40107
vn -0.4811459 0.4811459 -0.732801
v -0.0393998 0.618765 -0.243938
vn 0.418284 -0.418285 -0.806273
v -0.19419 0.7435551 0.263184
vn -0.4099039 0.8952557 0.174631
v -0.239495 0.7194611 -0.0685786
vn -0.7383962 0.6433252 -0.202247
v -0.274222 0.6939321 0.220166
vn -0.9246284 0.3727861 0.07805723
v -0.286789 0.597849 -0.101169
vn -0.9652513 0.117415 -0.2334601
v 0 0.165408 0.33056
vt 0.969555 0.914827
vn 0 -0.9998022 -0.0198916
vt 0.802628 0.62676
v 0.13577 0.233411 0.290278
vt 0.765333 0.791949
vn 0.695987 -0.718047 -0.00324833
vt 0.969555 0.62676
v 0 0.217038 0.366564
vt 0.892851 0.984445
vn 0 -0.2129989 0.9770525
v -0.13577 0.233411 0.290278
vn -0.695987 -0.718047 -0.0032483
vt 0.653235 0.62676
v -0.0990493 0.28022 0.340544
vt 0.705623 0.90204
vn -0.182725 0.385491 0.9044381
v 0.0990493 0.28022 0.340544
vn 0.182725 0.385491 0.9044381
v 0 0.46404 0.652238
vt 0.958569 0.353682
vn 0 -0.9008807 0.4340669
v 0.0851091 0.497818 0.652238
vt 0.964511 0.353682
vn 0.6421408 -0.6288908 0.4383509
v 0 0.579365 0.797454
vt 0.958569 0.363822
vn 0 0 1
v 0.128342 0.451023 0.454459
vt 0.96753 0.339873
vn 0.7230123 -0.5808392 0.3740042
v -0.0851091 0.497818 0.652238
vn -0.6421408 -0.6288908 0.4383509
v 0 0.397862 0.454458
vt 0.958569 0.339873
vn 0 -0.9738481 0.2272
v -0.128342 0.451023 0.454459
vn -0.7230123 -0.5808392 0.3740042
v 0.0990493 0.393104 0.392833
vt 0.965485 0.33557
vn 0.1023279 -0.9796704 0.1725539
v 0.184625 0.381819 0.270912
vt 0.97146 0.327057
vn 0.5559858 -0.6933067 0.4584818
v -0.0990493 0.393104 0.392833
vn -0.1023279 -0.9796704 0.1725539
v -0.184625 0.381819 0.270912
vn -0.555986 -0.693307 0.458481
v 0 0.6946911 0.652238
vt 0.219237 0.979068
vn 0 0.9008807 0.4340669
vt 0.0100481 0.911077
v 0.0851091 0.660913 0.652238
vt 0.216771 0.876628
vn 0.6421408 0.6288908 0.4383509
v -0.0851091 0.660913 0.652238
vn -0.6421402 0.6288912 0.4383512
v 0.128342 0.707708 0.454458
vt 0.439863 0.822385
vn 0.6373048 0.7037778 0.3139099
v -0.128342 0.707708 0.454458
vn -0.6373048 0.7037778 0.3139099
v 0 0.760869 0.454458
vt 0.460909 0.978614
vn 0 0.9662077 0.2577649
v 0.120362 0.579365 0.652238
vt 0.180676 0.785863
vn 0.8950699 0 0.445926
v -0.120362 0.579365 0.652238
vn -0.8950699 0 0.445926
vt 0.113309 0.713248
vt 0.664323 0.963014
v 0.181503 0.579365 0.454459
vt 0.38465 0.673439
vt 0.625111 0.773516
v -0.181503 0.579365 0.454459
vt 0.287004 0.54606
v -0.4873277 0.4384031 0.08881219
vt 0.282858 0.238656
vn -0.6830139 0.07439563 0.7266067
v -0.259831 0.408572 0.0545625
vt 0.417601 0.51558
vn -0.06017109 -0.9970339 0.04798859
v -0.286939 0.453061 0.178666
vt 0.193826 0.517984
vn -0.413719 0.140005 0.899575
v -0.6501477 0.4379205 -0.09302413
vt 0.415619 0.0254513
vn -0.9153528 0.2219875 -0.3359325
v -0.269831 0.493232 0.0300601
vn -0.04847529 0.9675129 -0.248131
v -0.236746 0.420865 -0.0555094
vt 0.466951 0.559476
vn 0.0683464 -0.3757659 -0.9241909
v 0.4873293 0.4384048 0.08881097
vn 0.6830205 0.07439929 0.7266001
v 0.286939 0.453061 0.178666
vn 0.413719 0.140005 0.899575
v 0.259831 0.408572 0.0545625
vn 0.06017109 -0.9970339 0.04798869
v 0.269831 0.493232 0.0300601
vn 0.04847529 0.9675129 -0.248131
v 0.6501505 0.4379236 -0.09302345
vn 0.9153534 0.2219927 -0.3359276
v 0.236746 0.420865 -0.0555094
vn -0.0683464 -0.3757659 -0.9241909
vt 0.281356 0.307809
vt 0.281356 0.302071
vt 0.290092 0.30494
vt 0.278487 0.302071
vt 0.278487 0.307809
vt 0.278487 0.316545
vt 0.278487 0.293335
vt 0.96854 0.0518312
v 0.252862 0.646649 0.337312
vt 0.970277 0.0450602
vn 0.8456718 0.3332059 0.4169089
vt 0.972763 0.0563717
vt 0.96779 0.0337486
vt 0.983064 0.0499546
v -0.252862 0.656649 0.337312
vt 0.974459 0.0439314
vn -0.8420681 0.333358 0.424021
vt 0.969521 0.0329285
vt 0.979398 0.0549343
vt 0.279921 0.302071
vt 0.279921 0.307809
vt 0.971776 0.368733
vt 0.962587 0.373595
vt 0.965546 0.364007
v 0.294783 0.491267 0.220166
vt 0.0121853 0.0119067
vn 0.9913534 -0.04938012 0.1215731
vt 0.134233 0.551307
vt 0.238254 0.0119068
v -0.294783 0.491267 0.220166
vn -0.991624 -0.0476599 0.120043
v 0.151506 0.3425 0.29786
vt 0.96026 0.66934
vn 0.815829 -0.256187 0.518451
v 0.127663 0.35488 0.336362
vt 0.943975 0.670128
v 0.121862 0.307305 0.321982
vt 0.950047 0.650038
v 0.160291 0.428236 0.32106
vt 0.910173 0.649759
vn 0.7934829 -0.214654 0.569481
vt 0.91998 0.610076
v 0.175136 0.370554 0.278633
vt 0.928089 0.625401
v 0.131871 0.388776 0.346071
vt 0.92683 0.66671
vn 0.5932299 -0.717485 0.365094
v 0.116487 0.390805 0.36799
vt 0.916635 0.665982
vn 0.5655002 -0.7498962 0.3433151
v 0.116897 0.34887 0.357206
vt 0.924924 0.650038
v 0.141716 0.337417 0.324971
vt 0.959309 0.610076
vn 0.5477219 -0.7576419 0.354936
v 0.15976 0.385098 0.306337
vt 0.966284 0.631013
vn 0.5810049 -0.7321739 0.355464
vt 0.947042 0.629637
v -0.151506 0.3425 0.29786
vn -0.815829 -0.256187 0.518451
v -0.121862 0.307305 0.321982
v -0.127663 0.35488 0.336362
v -0.160291 0.428236 0.32106
vn -0.7934829 -0.214654 0.569481
v -0.175136 0.370554 0.278633
v -0.131871 0.388776 0.346071
vn -0.5932299 -0.717485 0.365094
v -0.116897 0.34887 0.357206
vn -0.560015 -0.75486 0.341423
v -0.116487 0.390805 0.36799
v -0.141716 0.337417 0.324971
vn -0.5477219 -0.7576419 0.354936
v -0.15976 0.385098 0.306337
vn -0.5810049 -0.7321739 0.355464
o merged_0_0_node
g polygon_0
usemtl body01_mat_id
f 1/1/1 2/2/2 3/3/3
f 1/1/1 4/4/4 2/2/2
f 1/1/1 3/3/3 5/5/5
f 1/1/1 6/6/6 4/4/4
f 1/1/1 5/5/5 7/7/7
f 1/1/1 8/8/8 6/6/6
f 1/1/1 7/7/7 9/9/9
f 1/1/1 10/10/10 8/8/8
f 1/1/1 9/9/9 10/10/10
f 2/2/2 11/11/11 3/3/3
f 2/2/2 4/4/4 11/11/11
f 9/9/9 7/7/7 11/11/11
f 9/9/9 11/11/11 10/10/10
f 5/5/5 3/3/3 11/11/11
f 5/5/5 11/11/11 7/7/7
f 4/4/4 6/6/6 11/11/11
f 8/8/8 10/10/10 12/12/12
f 8/8/8 13/13/13 6/6/6
f 8/8/8 12/12/12 14/14/7
f 11/11/11 15/15/14 10/10/10
f 11/11/11 6/6/6 15/15/14
f 15/15/14 6/6/6 13/13/13
f 15/15/14 14/14/7 12/12/12
f 15/15/14 12/12/12 10/10/10
f 16/16/15 17/17/16 18/18/17
f 16/16/15 19/19/18 17/17/16
f 16/16/15 18/18/17 20/20/19
f 16/16/15 21/21/20 19/19/18
f 16/16/15 20/20/19 22/22/21
f 16/16/15 23/23/22 21/21/20
f 16/16/15 22/22/21 24/24/23
f 16/16/15 24/24/23 23/23/22
f 17/17/16 25/25/24 18/18/17
f 17/17/16 19/19/18 26/26/25
f 17/17/16 27/27/26 25/25/24
f 17/17/16 26/26/25 27/27/26
f 20/20/19 28/28/27 22/22/21
f 20/20/19 18/18/17 29/16/28
f 20/20/19 29/16/28 30/22/29
f 20/20/19 30/22/29 31/28/30
f 22/22/21 28/28/27 24/24/23
f 19/19/18 32/29/31 26/26/25
f 25/25/24 27/27/26 33/17/32
f 25/25/24 33/17/32 18/18/17
f 18/18/17 33/17/32 29/16/28
f 30/22/29 34/24/33 31/28/30
f 30/22/29 29/16/28 34/24/33
f 27/27/26 35/26/34 33/17/32
f 29/16/28 36/23/35 34/24/33
f 29/16/28 33/17/32 37/19/36
f 29/16/28 38/21/37 36/23/35
f 29/16/28 37/19/36 38/21/37
f 33/17/32 35/26/34 37/19/36
f 35/26/34 39/29/38 37/19/36
f 40/30/39 41/31/24 42/32/40
f 40/30/39 43/33/41 41/31/24
f 40/30/39 42/32/40 44/34/42
f 40/30/39 45/35/43 43/33/41
f 40/30/39 44/34/42 46/36/44
f 40/30/39 47/37/45 45/35/43
f 40/30/39 46/36/44 48/38/46
f 40/30/39 48/38/46 47/37/45
f 41/31/24 49/30/47 42/32/40
f 41/31/24 43/33/41 49/30/47
f 46/36/44 44/34/42 49/30/47
f 46/36/44 49/30/47 48/38/46
f 44/34/42 42/32/40 49/30/47
f 43/33/41 45/35/43 49/30/47
f 48/38/46 49/30/47 50/37/48
f 50/37/48 49/30/47 45/35/43
f 51/39/49 24/40/23 52/41/50
f 51/39/49 23/42/22 24/40/23
f 51/39/49 52/41/50 53/43/51
f 51/39/49 54/44/52 23/42/22
f 51/39/49 53/43/51 55/45/53
f 51/39/49 56/46/54 54/44/52
f 51/39/49 55/45/53 56/46/54
f 24/40/23 57/47/55 52/41/50
f 52/41/50 57/47/55 53/43/51
f 23/42/22 54/44/52 58/48/56
f 55/45/53 59/49/57 56/46/54
f 55/45/53 53/43/51 60/39/58
f 55/45/53 61/46/59 59/49/57
f 55/45/53 60/39/58 61/46/59
f 54/44/52 62/50/60 58/48/56
f 54/44/52 56/46/54 63/51/61
f 54/44/52 63/51/61 62/50/60
f 63/51/61 56/46/54 59/49/57
f 53/43/51 64/41/62 60/39/58
f 53/43/51 65/47/63 64/41/62
f 61/46/59 66/51/64 59/49/57
f 61/46/59 60/39/58 67/44/65
f 61/46/59 67/44/65 66/51/64
f 65/47/63 34/40/33 64/41/62
f 64/41/62 34/40/33 60/39/58
f 67/44/65 68/50/66 66/51/64
f 67/44/65 60/39/58 36/42/35
f 67/44/65 69/48/67 68/50/66
f 67/44/65 36/42/35 69/48/67
f 36/42/35 60/39/58 34/40/33
f 70/52/68 26/53/25 71/54/69
f 70/52/68 27/55/26 26/53/25
f 70/52/68 71/54/69 72/56/70
f 70/52/68 35/53/34 27/55/26
f 70/52/68 72/56/70 73/54/71
f 70/52/68 73/54/71 35/53/34
f 26/53/25 32/57/31 71/54/69
f 72/56/70 74/58/72 73/54/71
f 72/56/70 71/54/69 75/58/73
f 75/58/73 71/54/69 32/57/31
f 35/53/34 73/54/71 39/57/38
f 39/57/38 73/54/71 74/58/72
f 76/59/74 77/60/75 78/61/76
f 76/59/74 79/62/77 77/60/75
f 76/59/74 78/61/76 80/60/78
f 76/59/74 81/63/79 79/62/77
f 76/59/74 80/60/78 82/62/80
f 76/59/74 82/62/80 81/63/79
f 79/62/77 81/63/79 83/64/81
f 79/62/77 83/64/81 84/65/82
f 82/62/80 85/64/83 81/63/79
f 82/62/80 86/65/84 85/64/83
f 87/66/85 78/67/76 88/68/86
f 87/66/85 89/68/87 78/67/76
f 87/66/85 88/68/86 90/69/88
f 87/66/85 91/69/89 89/68/87
f 87/66/85 90/69/88 92/70/90
f 87/66/85 92/70/90 91/69/89
f 78/67/76 93/71/91 88/68/86
f 78/67/76 89/68/87 94/71/92
f 78/67/76 77/72/75 93/71/91
f 78/67/76 94/71/92 80/72/78
f 90/69/88 59/73/57 92/70/90
f 90/69/88 88/68/86 95/74/91
f 90/69/88 63/75/61 59/73/57
f 90/69/88 95/74/91 63/75/61
f 93/71/91 77/72/75 95/74/91
f 93/71/91 95/74/91 88/68/86
f 92/70/90 59/73/57 91/69/89
f 89/68/87 96/74/92 94/71/92
f 89/68/87 91/69/89 96/74/92
f 94/71/92 96/74/92 80/72/78
f 77/72/75 79/76/77 95/74/91
f 59/73/57 66/75/64 91/69/89
f 91/69/89 66/75/64 96/74/92
f 80/72/78 96/74/92 82/76/80
f 97/77/93 98/78/94 99/79/95
f 97/77/93 100/80/96 98/78/94
f 97/77/93 99/79/95 101/78/97
f 97/77/93 101/78/97 100/80/96
f 98/78/94 100/80/96 102/81/98
f 102/81/98 100/80/96 101/78/97
f 103/77/99 104/79/100 105/78/101
f 103/77/99 106/78/102 104/79/100
f 103/77/99 105/78/101 107/80/103
f 103/77/99 107/80/103 106/78/102
f 105/78/101 108/81/104 107/80/103
f 107/80/103 108/81/104 106/78/102
f 28/82/27 57/83/55 24/84/23
f 28/82/27 65/85/63 57/83/55
f 28/82/27 31/86/30 65/85/63
f 28/82/27 20/87/19 31/86/30
f 57/83/55 65/85/63 53/88/51
f 63/89/61 109/90/105 62/91/60
f 63/89/61 95/92/91 109/90/105
f 66/93/64 110/94/106 96/95/92
f 66/93/64 68/96/66 110/94/106
f 34/84/33 65/97/63 31/98/30
f 84/99/82 75/100/73 32/101/31
f 111/102/107 58/103/56 62/104/60
f 74/100/72 86/99/84 39/101/38
f 112/102/108 68/104/66 69/103/67
f 113/105/109 114/106/109 115/107/109
f 116/108/110 113/109/110 117/110/110
f 118/111/111 119/112/112 120/113/112
f 121/114/113 122/115/114 118/116/111
f 123/105/115 124/107/115 125/106/115
f 126/108/116 127/110/116 123/109/116
f 128/111/117 129/113/118 130/112/118
f 131/114/119 128/116/117 132/115/120
v 0.286939 0.417062 0.171666
vt 0.427887 0.699258
vn 0.6927509 -0.7125419 0.111266
vt 0.699072 0.297396
v 0.276746 0.410128 -0.0455095
vt 0.753323 0.527419
vn 0.9131384 -0.3639052 -0.1837151
vt 0.895778 0.969188
vt 0.906846 0.394167
vt 0.969928 0.835244
v -0.276746 0.410128 -0.0455095
vn -0.9131384 -0.3639052 -0.1837151
v -0.286939 0.417062 0.171666
vn -0.6927509 -0.7125419 0.111266
v 0 0.26422 0.318544
vt 0.0448266 0.108749
vn 0 0.6910648 0.7227928
vt 0.0586506 0.111016
vt 0.0446164 0.102064
vt 0.0299992 0.622877
vt 0.270611 0.622877
vt 0.0299992 0.969188
vn 0.8990296 -0.007547976 0.4378228
vt 0.397 0.969188
v 0.268143 0.515316 0.337312
vt 0.2135 0.969188
vn 0.8606589 -0.234394 0.452024
vt 0.331587 0.249932
vn -0.8976226 -0.009573036 0.4406608
v -0.268143 0.515316 0.337312
vn -0.8653788 -0.2255729 0.4474779
vt 0.0540496 0.162563
v 0 0.413104 0.242833
vt 0.0446342 0.134092
vn 0 -0.9541782 0.2992391
vt 0.0646401 0.149873
v 0 0.364469 0.225469
vt 0.0446164 0.127204
vn 0 0.4191719 0.9079069
vt 0.0707579 0.129665
v -0.2471 0.579365 0.583652
vt 0.0491468 0.343419
vn 0 1 0
v 0 0.579365 0.667461
vt 0.0373044 0.384015
v 0 0.579365 0.539844
vt 0.0609892 0.384015
v 0.2471 0.579365 0.583652
v -0.185953 0.579365 0.663652
v 0 0.579365 0.733492
v 0 0.579365 0.633813
v 0.185953 0.579365 0.663652
v -0.292259 0.579365 0.493653
v 0 0.579365 0.597582
v 0 0.579365 0.429723
v 0.292259 0.579365 0.493653
v 0.0658867 0.394697 0.413466
vt 0.0589586 0.350273
vn 0.5076233 -0.112852 0.8541564
v 0.0259649 0.381109 0.435396
vt 0.0519125 0.359245
vn 0.5022617 -0.1608879 0.8496165
v 0.0495247 0.339962 0.416432
vt 0.0333912 0.348751
vt 0.0579284 0.369739
vn 0 -0.231596 0.9728121
v 0 0.334335 0.43841
vt 0.0310065 0.369739
vn 0 -0.2449281 0.9695413
v 0 0.233908 0.374498
vt 0.0670488 0.362014
vn 0 -0.5599371 0.8285351
v 0.0495246 0.248629 0.353554
vt 0.0731125 0.341301
vn 0.458932 -0.53796 0.707093
v 0.0248448 0.284518 0.398298
vt 0.0884967 0.351486
vn 0.4585759 -0.5524509 0.6960648
vt 0.0598995 0.362014
vn 0 -0.425556 0.9049321
v -0.0658867 0.394697 0.413466
vn -0.5076221 -0.112852 0.8541571
v -0.0495247 0.339962 0.416432
v -0.0259649 0.381109 0.435396
vn -0.502261 -0.160888 0.849617
v -0.0248448 0.284518 0.398298
vn -0.4585759 -0.5524509 0.6960648
v -0.0495246 0.248629 0.353554
vn -0.458932 -0.53796 0.707093
vn 0 -1 0
vt 0.091931 0.162815
vn -0.815829 0.256187 -0.518451
vt 0.0817181 0.143513
vt 0.0756456 0.163603
vt 0.0418441 0.143233
vn -0.7934829 0.214654 -0.569481
vt 0.05976 0.118876
vt 0.0516509 0.10355
vt 0.0585008 0.160185
vn -0.5932299 0.717485 -0.365094
vt 0.056595 0.143513
vn -0.560015 0.75486 -0.341423
vt 0.0483059 0.159456
vt 0.0909801 0.10355
vn -0.5477219 0.7576419 -0.354936
vt 0.0787129 0.123112
vt 0.097955 0.124488
vn -0.5810049 0.7321739 -0.355464
vn -0.5076221 0.112852 -0.8541571
vn -0.502261 0.160888 -0.849617
vn 0 0.2449281 -0.9695413
vn 0 0.231596 -0.9728121
vn 0 0.5599371 -0.8285351
vn -0.4585759 0.5524509 -0.6960648
vn -0.458932 0.53796 -0.707093
vn 0 0.425556 -0.9049321
vn 0.815829 0.256187 -0.518451
vn 0.7934829 0.214654 -0.569481
vn 0.5932299 0.717485 -0.365094
vn 0.5655002 0.7498962 -0.3433151
vn 0.5477219 0.7576419 -0.354936
vn 0.5810049 0.7321739 -0.355464
vn 0.5076233 0.112852 -0.8541564
vn 0.5022617 0.1608879 -0.8496165
vn 0.458932 0.53796 -0.707093
vn 0.4585759 0.5524509 -0.6960648
o merged_1_0_node
g polygon_0
usemtl body02_mat_id
f 133/117/121 19/118/18 134/119/122
f 58/120/56 21/121/20 23/122/22
f 21/121/20 58/120/56 134/119/122
f 21/121/20 134/119/122 19/118/18
f 135/119/123 37/118/36 136/117/124
f 69/120/67 36/122/35 38/121/37
f 38/121/37 135/119/123 69/120/67
f 38/121/37 37/118/36 135/119/123
f 137/123/125 74/124/72 72/125/70
f 79/126/77 84/127/82 95/128/126
f 111/129/107 84/127/82 133/117/121
f 138/130/127 84/127/82 111/129/107
f 84/127/82 32/131/31 19/118/18
f 84/127/82 19/118/18 133/117/121
f 134/119/122 58/120/56 111/129/107
f 134/119/122 111/129/107 133/117/121
f 137/123/125 72/125/70 75/124/73
f 84/127/82 138/130/127 95/128/126
f 82/126/80 96/128/128 86/127/84
f 112/129/108 136/117/124 86/127/84
f 139/130/129 86/127/84 96/128/128
f 86/127/84 37/118/36 39/131/38
f 136/117/124 37/118/36 86/127/84
f 135/119/123 112/129/108 69/120/67
f 135/119/123 136/117/124 112/129/108
f 81/132/79 140/133/130 83/134/81
f 81/132/79 85/134/83 140/133/130
f 141/135/131 74/124/72 137/123/125
f 141/135/131 140/133/130 86/136/84
f 85/134/83 86/136/84 140/133/130
f 141/135/131 86/136/84 74/124/72
f 141/135/131 137/123/125 75/124/73
f 141/135/131 84/136/82 140/133/130
f 83/134/81 140/133/130 84/136/82
f 141/135/131 75/124/73 84/136/82
f 86/127/84 139/130/129 112/129/108
f 142/137/132 143/138/132 144/139/132
f 145/137/132 144/139/132 143/138/132
f 146/137/132 147/138/132 148/139/132
f 149/137/132 148/139/132 147/138/132
f 150/137/132 151/138/132 152/139/132
f 153/137/132 152/139/132 151/138/132
f 154/140/133 155/141/134 156/142/133
f 155/141/134 81/143/135 157/144/136
f 81/143/135 155/141/134 154/140/133
f 158/145/137 159/146/138 160/147/139
f 159/146/138 158/145/137 72/148/140
f 161/140/141 162/142/141 163/141/142
f 163/141/142 157/144/136 81/143/135
f 81/143/135 161/140/141 163/141/142
f 158/145/137 164/147/143 165/146/144
f 165/146/144 72/148/140 158/145/137
f 142/137/145 144/139/145 143/138/145
f 145/137/145 143/138/145 144/139/145
f 146/137/145 148/139/145 147/138/145
f 149/137/145 147/138/145 148/139/145
f 150/137/145 152/139/145 151/138/145
f 153/137/145 151/138/145 152/139/145
f 113/149/146 115/150/146 114/151/146
f 116/152/147 117/153/147 113/154/147
f 118/155/148 120/156/149 119/157/149
f 121/158/150 118/159/148 122/160/151
f 154/140/152 156/142/152 155/141/153
f 155/141/153 157/144/154 81/143/155
f 81/143/155 154/140/152 155/141/153
f 158/145/156 160/147/157 159/146/158
f 159/146/158 72/148/159 158/145/156
f 123/149/160 125/151/160 124/150/160
f 126/152/161 123/154/161 127/153/161
f 128/155/162 130/157/163 129/156/163
f 131/158/164 132/160/165 128/159/162
f 161/140/166 163/141/167 162/142/166
f 163/141/167 81/143/155 157/144/154
f 81/143/155 163/141/167 161/140/166
f 158/145/156 165/146/168 164/147/169
f 165/146/168 158/145/156 72/148/159
vt 0.436867 0.792676
vt 0.98147 0.762044
vt 0.436867 0.960203
vt 0.98147 1.00564
vt -0.107737 0.879282
o merged_2_0_node
g polygon_0
usemtl TEX_ANIM_EYE_mat_id
f 138/161/127 111/162/107 109/163/105
f 109/163/105 111/162/107 62/164/60
f 138/161/127 109/163/105 95/165/126
f 110/163/106 139/161/129 96/165/128
f 139/161/129 110/163/106 112/162/108
f 112/162/108 110/163/106 68/164/66
