mtllib Ducklett.mtl
v 0.127699 0.490217 -0.0441325
vt 0.672894 0.626826
vn 0.5948149 0.4212919 -0.6846228
v 0 0.40369 -0.100049
vt 0.624247 0.593864
vn 0 0.4778529 -0.8784398
v 0 0.490217 -0.0763732
vt 0.624247 0.626826
vn 0 0.4549751 -0.8905042
v 0.155295 0.354083 -0.0621506
vt 0.683407 0.574966
vn 0.7049763 -0.129821 -0.6972482
v 0.0531946 0.563535 -0.00421115
vt 0.644512 0.654757
vn 0.2526321 0.8324713 -0.4931212
v 0.181043 0.354083 0.0382346
vt 0.693216 0.574966
vn 0.9126848 -0.205596 -0.3531809
v 0.092211 0.563535 0.0770175
vt 0.659375 0.654757
vn 0.5824178 0.8122577 0.03204449
v 0.186095 0.380544 0.0770175
vt 0.69514 0.585046
vn 0.9691861 0.23221 0.0822005
v 0.167496 0.490217 0.0770175
vt 0.688055 0.626826
vn 0.8823959 0.470488 0.00430721
v -0.127699 0.490217 -0.0441325
vt 0.5756 0.626826
vn -0.5948149 0.4212919 -0.6846228
v 0 0.369566 -0.153967
vt 0.624247 0.580864
vn 0 -0.1123521 -0.9936685
v -0.155295 0.354083 -0.0621506
vt 0.565087 0.574966
vn -0.7049763 -0.129821 -0.6972482
v 0 0.582279 0.0770175
vt 0.624247 0.661898
vn 0 0.9997327 -0.02311829
v -0.0531946 0.563535 -0.00421113
vt 0.603983 0.654757
vn -0.2526321 0.8324713 -0.4931212
v 0.211748 0.351286 0.0502331
vt 0.704913 0.5739
vn 0.8081525 -0.5720534 0.1401591
v 0.0962967 0.285783 -0.0277025
vt 0.660932 0.548947
vn 0.3006461 -0.8942363 -0.3315921
v 0.126307 0.286974 0.0770175
vt 0.672364 0.5494
vn 0.471597 -0.8772711 0.08939651
v 0.135507 0.490217 0.169062
vt 0.675869 0.626826
vn 0.6454241 0.394177 0.6542571
v 0 0.303648 -0.0865328
vt 0.624247 0.555752
vn 0 -0.800529 -0.599294
v -0.092211 0.563535 0.0770175
vt 0.589119 0.654757
vn -0.5824178 0.8122577 0.03204419
v 0.0666934 0.563535 0.136931
vt 0.649654 0.654757
vn 0.4313241 0.7808883 0.4518552
v -0.0666934 0.563535 0.136931
vt 0.59884 0.654757
vn -0.4313241 0.7808883 0.4518552
v 0 0.563535 0.159008
vt 0.624247 0.654757
vn 0 0.7910171 0.6117941
v 0.152904 0.354083 0.180879
vt 0.682496 0.574966
vn 0.6952211 -0.139607 0.7051081
v -0.0962967 0.285783 -0.0277025
vt 0.587563 0.548947
vn -0.3006461 -0.8942363 -0.3315921
v -0.181043 0.354083 0.0382346
vt 0.555278 0.574966
vn -0.9126845 -0.2055959 -0.3531818
v -0.0429857 0.490217 0.225948
vt 0.607872 0.626826
vn -0.2945291 0.321371 0.8999852
v -0.135507 0.490217 0.169062
vt 0.572625 0.626826
vn -0.6454241 0.394177 0.6542571
v 0.0429857 0.490217 0.225948
vt 0.640623 0.626826
vn 0.2945291 0.321371 0.8999852
v 0.0725454 0.286182 0.159527
vt 0.651883 0.549099
vn 0.2785801 -0.8788912 0.3872251
v 0 0.265504 0.0770175
vt 0.624247 0.543598
vn 0 -0.9999797 -0.006363679
v -0.186095 0.380544 0.0770175
vt 0.553354 0.585046
vn -0.9691861 0.23221 0.08220061
v -0.167496 0.490217 0.0770175
vt 0.560439 0.626826
vn -0.8823959 0.470488 0.00430702
v 0.0485044 0.354083 0.245069
vt 0.642725 0.574966
vn 0.3060091 -0.03707991 0.9513062
v -0.0485044 0.354083 0.245069
vt 0.605769 0.574966
vn -0.3060091 -0.03707981 0.9513062
v -0.126307 0.286974 0.0770175
vt 0.57613 0.5494
vn -0.471597 -0.8772711 0.08939631
v -0.0725454 0.286182 0.159528
vt 0.596611 0.549099
vn -0.2785801 -0.8788912 0.3872251
v -0.152904 0.354083 0.180879
vt 0.565998 0.574966
vn -0.6952211 -0.139607 0.7051081
v -0.211748 0.351286 0.0502331
vt 0.543581 0.5739
vn -0.8081528 -0.5720529 0.140159
v 0 0.30199 0.197904
vt 0.624247 0.555121
vn 0 -0.8036531 0.5950981
v -0.0656092 0.165129 -0.119832
vt 0.916576 0.61509
vn -0.6906849 0.308959 -0.6538339
v 0 0.157539 -0.164107
vt 0.933443 0.612199
vn 0 -0.003555359 -0.9999937
v 0 0.0886244 -0.153106
vt 0.929252 0.585946
vn 0 -0.1726151 -0.9849893
v 0 0.235628 -0.152193
vt 0.928904 0.641947
vn 0 0.7703569 -0.6376129
v -0.0841817 0.0739506 -0.0896856
vt 0.905092 0.580356
vn -0.6682759 -0.07230908 -0.7403909
v 0 0.207517 -0.104878
vt 0.910879 0.631238
vn 0 0.986712 -0.162479
v -0.101205 0.160393 -0.0511907
vt 0.890427 0.613286
vn -0.836365 0.244517 -0.490617
v -0.0980851 0.204854 -0.017593
vt 0.877628 0.630224
vn -0.445612 0.8730199 -0.198157
v 0.0656092 0.165129 -0.119832
vn 0.6906853 0.3089592 -0.6538333
v 0 0.23787 0.00660987
vt 0.868408 0.642801
vn 0 0.8833798 -0.4686579
v -0.0873286 0.20149 0.072546
vt 0.843289 0.628942
vn -0.656714 0.5963489 0.4616219
v -0.134073 0.178561 0.0099734
vt 0.867126 0.620207
vn -0.9404015 0.3357888 0.05376687
vn -0.5384977 0.6837337 -0.4924718
v 0.0841817 0.0739506 -0.0896856
vn 0.7104 -0.0862357 -0.698495
v 0.0980851 0.204854 -0.017593
vn 0.445612 0.8730199 -0.198157
v -0.0952692 0.114762 0.107741
vt 0.829882 0.595903
vn -0.687663 0.161298 0.707886
v 0 0.324025 0.0578859
vt 0.848874 0.675622
vn 0 0.511435 -0.859322
v 0 0.15994 0.143563
vt 0.816235 0.613114
vn 0 0.3079571 0.9514003
v 0 0.218164 0.106036
vt 0.830531 0.635294
vn 0 0.4634148 0.8861415
vn 0 0.4140272 0.9102645
v 0.101205 0.160393 -0.0511907
vn 0.8756067 0.1984469 -0.4403768
v -0.14127 0.105356 0.0218014
vt 0.862621 0.59232
vn -0.9668082 -0.239329 0.08946262
v 0.0873286 0.20149 0.072546
vn 0.656714 0.5963489 0.4616219
v -0.101473 0.0570208 0.00712134
vt 0.868213 0.573906
vn -0.7726486 -0.6348187 -0.004404518
v 0.0952692 0.114762 0.107741
vn 0.687663 0.161298 0.707886
v 0 0.119463 0.133453
vt 0.820086 0.597694
vn 0 -0.2423161 0.9701974
v 0.134073 0.178561 0.00997344
vn 0.9404015 0.3357888 0.05376687
vn 0.5384992 0.6837323 -0.4924722
v 0.14127 0.105356 0.0218015
vn 0.9668082 -0.239329 0.08946251
v 0.101473 0.0570208 0.00712139
vn 0.7726486 -0.6348187 -0.004404278
v 0.0707107 0.0307875 -0.0755683
vt 0.417854 0.666342
vn 0.217072 -0.9672922 -0.131246
vt 0.426059 0.67494
vn 0.7790048 -0.3607829 -0.5128229
vt 0.436591 0.615978
vn 0.9636146 -0.2354879 -0.126461
v 0 0.0646427 -0.170799
vt 0.374787 0.724344
vn 0 -0.141142 -0.9899893
v 0.1 0.030807 0.045365
vt 0.435693 0.592685
vn 0.2487491 -0.9587052 0.13787
v 0 0.0359184 -0.144037
vt 0.374787 0.708043
vn 0 -0.9238625 -0.3827248
v -0.1 0.030807 0.045365
vt 0.313879 0.592685
vn -0.253335 -0.9531539 0.165285
v -0.0707107 0.0307875 -0.0755683
vt 0.331719 0.666342
vn -0.2549101 -0.9545982 -0.154153
vt 0.374787 0.713568
vn 0 0.593671 -0.8047079
vt 0.432812 0.554693
vn 0.8001301 0.007303781 0.599782
v -0.101473 0.0570208 0.00712139
vt 0.312982 0.615978
vn -0.9636146 -0.2354879 -0.126461
v -0.0707107 0.0598661 0.130712
vt 0.331719 0.540702
vn -0.2708821 -0.7792891 0.5650941
v -0.0952691 0.114762 0.107741
vt 0.316761 0.554693
vn -0.8001301 0.007303881 0.599782
vt 0.323514 0.67494
vn -0.7790048 -0.3607829 -0.5128229
v 0.0707107 0.0598661 0.130712
vt 0.417854 0.540702
vn 0.3236031 -0.7269802 0.6056243
v 0 0.0867899 0.157578
vt 0.374787 0.524339
vn 0 -0.09905232 0.9950822
vt 0.374787 0.539033
vn 0 0.5939953 0.8044685
v -0.0895013 0.352814 0.326392
vt 0.646284 0.246239
vn -0.7775422 -0.4452361 0.4440641
v -0.0406356 0.369769 0.368128
vt 0.541942 0.264701
vn -0.4324181 0.02920291 0.9012002
v -0.0526429 0.385812 0.294614
vt 0.725729 0.353538
vn -0.4123909 0.9027057 0.122704
v 0 0.340788 0.338121
vt 0.616961 0.197505
vn 0 -0.8649604 0.5018402
v -0.11413 0.354083 0.204719
vt 0.950466 0.263251
vn -0.9778557 -0.159826 0.135107
v 0 0.318656 0.287867
vt 0.742595 0.169252
vn 0 -0.9664045 0.2570259
v -0.0621735 0.315476 0.196432
vt 0.971183 0.161077
vn -0.3788 -0.9099211 0.16898
v 0 0.382829 0.352805
vt 0.58025 0.334271
vn 0 0.9505087 0.3106979
v 0.0406356 0.369769 0.368128
vn 0.4324181 0.02920291 0.9012002
v 0 0.409255 0.237319
vt 0.868965 0.402222
vn 0 0.9982508 0.05912149
vt 0.967504 0.126398
vn 0 -0.9832708 0.18215
v 0.0895013 0.352814 0.326392
vn 0.7775426 -0.4452358 0.4440638
v 0.0526429 0.385812 0.294614
vn 0.4123909 0.9027057 0.122704
v 0.0621735 0.315476 0.196432
vn 0.3788 -0.9099211 0.16898
v 0.11413 0.354083 0.204719
vn 0.9778559 -0.159825 0.135107
v 0.0645233 0.143443 0.133287
vt 0.190403 0.623248
vn 0.2161039 0.1178949 -0.9692264
v 0.000952725 0.178681 0.147031
vt 0.125807 0.655545
vn -0.3161041 0.4129022 -0.8541604
v 0.0524599 0.191486 0.153377
vt 0.176399 0.670436
vn 0.05367811 0.4454241 -0.8937092
v -0.002 0.102427 0.129818
vt 0.126098 0.579717
vn -0.180217 0.05787359 -0.9819229
v 0.0322196 0.148959 0.168791
vt 0.158105 0.627366
vn 0.02574149 -0.3226139 0.9461806
v -0.000952702 0.178681 0.147031
vt 0.124336 0.65548
vn 0.316103 0.4129019 -0.8541609
v -0.0645233 0.143443 0.133287
vt 0.0606586 0.621534
vn -0.216105 0.117895 -0.9692262
v -0.0524598 0.191486 0.153377
vt 0.0733486 0.669019
vn -0.05367911 0.4454241 -0.8937091
v 0.00200001 0.102427 0.129818
vn 0.180216 0.05787341 -0.981923
v -0.0322196 0.148959 0.168791
vt 0.0927146 0.626404
vn -0.02574029 -0.3226139 0.9461806
v -0.0575 -7.450581E-09 -0.035673
vt 0.619113 0.063039
vn -0.0316847 -0.9994979 0
v -0.0341987 0.03505359 -0.0123717
vt 0.56086 0.150673
vn 0.567544 -0.68295 0.459862
v -0.0728661 0.03459389 -0.0123717
vt 0.56086 0.149524
vn -0.5508741 -0.6205761 0.5580531
v -0.0341987 0.03505359 -0.0589743
vt 0.677367 0.150673
vn 0.567544 -0.68295 -0.459862
v -0.0728661 0.03459389 -0.0589743
vt 0.677367 0.149524
vn -0.5508741 -0.6205761 -0.5580531
v 0.0574714 -7.450581E-09 -0.035673
vn 0.0316847 -0.9994979 0
v 0.0728376 0.03459389 -0.0123717
vn 0.5508741 -0.6205761 0.5580531
v 0.0341702 0.03505359 -0.0123717
vn -0.5675436 -0.6829506 0.4598617
v 0.0728376 0.03459389 -0.0589743
vn 0.5508741 -0.6205761 -0.5580531
v 0.0341702 0.03505359 -0.0589743
vn -0.567544 -0.68295 -0.459862
v 0 0.590972 0.0702353
vt 0.624247 0.665209
vn 0.4774079 -0.8532708 0.209787
v -0.0431881 0.662019 0.0223652
vt 0.607108 0.695481
vn 0.02748309 -0.2570669 -0.9660028
v -0.00589272 0.691243 0.0490503
vt 0.621694 0.703384
vn 0.9229658 0.3798969 -0.06174548
v -0.0828015 0.65035 0.0577445
vt 0.592522 0.687577
vn -0.8245385 -0.5492674 0.1358001
v -0.0443254 0.677499 0.0851149
vt 0.607108 0.698041
vn 0.0242513 0.164054 0.9861532
v -0.059128 0.697402 0.0477853
vt 0.601395 0.70557
vn -0.477396 0.853057 -0.210682
vn -0.4774078 -0.8532707 0.2097879
v 0.0431881 0.662019 0.0223652
vt 0.641123 0.695622
vn -0.02748309 -0.2570679 -0.9660025
v 0.0828015 0.65035 0.0577445
vt 0.655777 0.68784
vn 0.8245387 -0.5492668 0.135801
v 0.00589271 0.691243 0.0490503
vt 0.626469 0.703404
vn -0.9229652 0.3798981 -0.06174641
v 0.0443253 0.677499 0.0851149
vt 0.641123 0.698183
vn -0.0242514 0.164054 0.9861532
v 0.059128 0.697402 0.0477853
vt 0.646748 0.705758
vn 0.477395 0.853057 -0.210684
vt 0.0907211 0.201966
vt 0.369438 0.123452
vn -0.8790358 -0.308982 -0.3630789
vt 0.127421 0.0811276
v -0.0994169 0.138468 -0.0911199
vt 0.373025 0.284746
vn -0.914822 -0.11453 -0.387277
vt 0.120291 0.384979
vt 0.273202 0.339558
v 0.0994169 0.138468 -0.0911199
vn 0.914822 -0.11453 -0.387277
vn 0.8790358 -0.308982 -0.3630789
vn 0.9704082 0.227343 -0.08138262
vn -0.9704082 0.227343 -0.08138222
o merged_0_0_node
g polygon_0
usemtl mat_body_mat_id
f 1/1/1 2/2/2 3/3/3
f 1/1/1 4/4/4 2/2/2
f 1/1/1 3/3/3 5/5/5
f 1/1/1 6/6/6 4/4/4
f 1/1/1 5/5/5 7/7/7
f 1/1/1 8/8/8 6/6/6
f 1/1/1 7/7/7 9/9/9
f 1/1/1 9/9/9 8/8/8
f 2/2/2 10/10/10 3/3/3
f 2/2/2 4/4/4 11/11/11
f 2/2/2 12/12/12 10/10/10
f 2/2/2 11/11/11 12/12/12
f 5/5/5 13/13/13 7/7/7
f 5/5/5 3/3/3 14/14/14
f 5/5/5 14/14/14 13/13/13
f 3/3/3 10/10/10 14/14/14
f 6/6/6 8/8/8 15/15/15
f 6/6/6 16/16/16 4/4/4
f 6/6/6 15/15/15 17/17/17
f 6/6/6 17/17/17 16/16/16
f 9/9/9 7/7/7 18/18/18
f 9/9/9 18/18/18 8/8/8
f 11/11/11 19/19/19 12/12/12
f 11/11/11 4/4/4 19/19/19
f 4/4/4 16/16/16 19/19/19
f 13/13/13 14/14/14 20/20/20
f 13/13/13 21/21/21 7/7/7
f 13/13/13 20/20/20 22/22/22
f 13/13/13 23/23/23 21/21/21
f 13/13/13 22/22/22 23/23/23
f 7/7/7 21/21/21 18/18/18
f 14/14/14 10/10/10 20/20/20
f 15/15/15 24/24/24 17/17/17
f 15/15/15 8/8/8 24/24/24
f 8/8/8 18/18/18 24/24/24
f 12/12/12 19/19/19 25/25/25
f 12/12/12 26/26/26 10/10/10
f 12/12/12 25/25/25 26/26/26
f 19/19/19 16/16/16 25/25/25
f 22/22/22 27/27/27 23/23/23
f 22/22/22 20/20/20 28/28/28
f 22/22/22 28/28/28 27/27/27
f 21/21/21 29/29/29 18/18/18
f 21/21/21 23/23/23 29/29/29
f 23/23/23 27/27/27 29/29/29
f 17/17/17 24/24/24 30/30/30
f 17/17/17 31/31/31 16/16/16
f 17/17/17 30/30/30 31/31/31
f 16/16/16 31/31/31 25/25/25
f 10/10/10 26/26/26 32/32/32
f 10/10/10 33/33/33 20/20/20
f 10/10/10 32/32/32 33/33/33
f 33/33/33 32/32/32 28/28/28
f 33/33/33 28/28/28 20/20/20
f 27/27/27 34/34/34 29/29/29
f 27/27/27 35/35/35 34/34/34
f 24/24/24 34/34/34 30/30/30
f 31/31/31 36/36/36 25/25/25
f 31/31/31 30/30/30 37/37/37
f 31/31/31 37/37/37 36/36/36
f 25/25/25 36/36/36 26/26/26
f 32/32/32 38/38/38 28/28/28
f 32/32/32 26/26/26 39/39/39
f 32/32/32 39/39/39 38/38/38
f 38/38/38 37/37/37 35/35/35
f 38/38/38 36/36/36 37/37/37
f 38/38/38 39/39/39 36/36/36
f 36/36/36 39/39/39 26/26/26
f 34/34/34 40/40/40 30/30/30
f 34/34/34 35/35/35 40/40/40
f 40/40/40 35/35/35 37/37/37
f 40/40/40 37/37/37 30/30/30
f 41/41/41 42/42/42 43/43/43
f 41/41/41 44/44/44 42/42/42
f 41/41/41 43/43/43 45/45/45
f 41/41/41 46/46/46 44/44/44
f 41/41/41 45/45/45 47/47/47
f 41/41/41 48/48/48 46/46/46
f 41/41/41 47/47/47 48/48/48
f 42/42/42 49/41/49 43/43/43
f 42/42/42 44/44/44 49/41/49
f 44/44/44 46/46/46 49/41/49
f 48/48/48 50/49/50 46/46/46
f 48/48/48 51/50/51 50/49/50
f 48/48/48 52/51/52 51/50/51
f 48/48/48 47/47/53 52/51/52
f 43/43/43 49/41/49 53/45/54
f 46/46/46 50/49/50 54/48/55
f 46/46/46 54/48/55 49/41/49
f 51/50/51 52/51/52 55/52/56
f 51/50/51 56/53/57 50/49/50
f 51/50/51 55/52/56 57/54/58
f 51/50/51 57/54/58 58/55/59
f 51/50/51 58/55/59 56/53/60
f 53/45/54 49/41/49 59/47/61
f 59/47/61 49/41/49 54/48/55
f 52/51/52 60/56/62 55/52/56
f 56/53/57 61/50/63 50/49/50
f 58/55/59 57/54/58 61/50/63
f 58/55/59 61/50/63 56/53/60
f 50/49/50 61/50/63 54/48/55
f 60/56/62 62/57/64 55/52/56
f 57/54/58 63/52/65 61/50/63
f 57/54/58 55/52/56 64/58/66
f 57/54/58 64/58/66 63/52/65
f 54/48/55 61/50/63 65/51/67
f 54/48/55 65/51/67 59/47/68
f 61/50/63 63/52/65 65/51/67
f 63/52/65 66/56/69 65/51/67
f 63/52/65 67/57/70 66/56/69
f 68/59/71 53/60/72 67/61/73
f 68/59/71 69/62/74 53/60/72
f 68/59/71 67/61/73 70/63/75
f 68/59/71 71/64/76 69/62/74
f 68/59/71 70/63/75 72/65/77
f 68/59/71 73/66/78 71/64/76
f 68/59/71 72/65/77 73/66/78
f 71/64/76 73/66/78 69/62/74
f 53/60/72 69/62/74 43/67/79
f 67/61/73 63/68/80 70/63/75
f 72/65/77 74/69/81 73/66/78
f 72/65/77 70/63/75 75/70/82
f 72/65/77 76/71/83 74/69/81
f 72/65/77 75/70/82 76/71/83
f 69/62/74 45/72/84 43/67/79
f 69/62/74 73/66/78 45/72/84
f 45/72/84 73/66/78 74/69/81
f 63/68/80 77/73/85 70/63/75
f 63/68/80 78/74/86 77/73/85
f 63/68/80 64/75/87 78/74/86
f 78/74/86 76/71/83 75/70/82
f 78/74/86 75/70/82 77/73/85
f 78/74/86 64/75/87 76/71/83
f 77/73/85 75/70/82 70/63/75
f 79/76/88 80/77/89 81/78/90
f 79/76/88 82/79/91 80/77/89
f 79/76/88 81/78/90 83/80/92
f 79/76/88 84/81/93 82/79/91
f 79/76/88 83/80/92 85/82/94
f 79/76/88 85/82/94 84/81/93
f 80/77/89 86/83/95 81/78/90
f 80/77/89 82/79/91 87/77/96
f 80/77/89 87/77/96 86/83/95
f 83/80/92 81/78/90 88/84/97
f 81/78/90 86/83/95 88/84/97
f 85/82/94 40/85/98 84/81/93
f 82/79/91 89/76/99 87/77/96
f 82/79/91 84/81/93 89/76/99
f 86/83/95 90/78/100 88/84/97
f 86/83/95 87/77/96 90/78/100
f 87/77/96 89/76/99 90/78/100
f 40/85/98 91/82/101 84/81/93
f 84/81/93 91/82/101 89/76/99
f 88/84/97 90/78/100 92/80/102
f 92/80/102 89/76/99 91/82/101
f 92/80/102 90/78/100 89/76/99
f 93/86/103 94/87/104 95/88/105
f 93/86/103 96/89/106 94/87/104
f 93/86/103 95/88/105 97/90/107
f 93/86/103 97/90/107 96/89/106
f 97/90/107 95/88/105 94/87/104
f 97/90/107 94/87/104 96/89/106
f 98/91/108 99/92/109 100/93/110
f 98/91/108 101/89/111 99/92/109
f 98/91/108 100/93/110 102/94/112
f 98/91/108 102/94/112 101/89/111
f 102/94/112 100/93/110 99/92/109
f 102/94/112 99/92/109 101/89/111
f 103/95/113 104/96/114 105/97/115
f 103/95/113 106/98/116 104/96/114
f 103/95/113 105/97/115 107/99/117
f 103/95/113 107/99/117 106/98/116
f 108/95/118 109/97/119 110/96/120
f 108/95/118 111/99/121 109/97/119
f 108/95/118 110/96/120 112/98/122
f 108/95/118 112/98/122 111/99/121
f 113/100/123 114/101/124 115/102/125
f 113/100/123 116/103/126 114/101/124
f 113/100/123 115/102/125 117/104/127
f 113/100/123 117/104/127 116/103/126
f 114/101/124 118/105/128 115/102/125
f 114/101/124 116/103/126 118/105/128
f 118/105/128 116/103/126 117/104/127
f 118/105/128 117/104/127 115/102/125
f 113/100/129 119/106/130 120/107/131
f 113/100/129 121/108/132 119/106/130
f 113/100/129 120/107/131 122/109/133
f 113/100/129 122/109/133 121/108/132
f 119/106/130 123/110/134 120/107/131
f 119/106/130 121/108/132 123/110/134
f 123/110/134 121/108/132 122/109/133
f 123/110/134 122/109/133 120/107/131
f 60/111/62 45/112/135 62/113/64
f 60/111/62 124/114/136 45/112/135
f 60/111/62 52/115/52 124/114/136
f 52/115/52 47/116/53 124/114/136
f 125/114/137 59/116/68 65/115/67
f 125/114/137 65/115/67 66/111/69
f 125/114/137 66/111/69 53/112/138
f 66/111/69 67/113/70 53/112/138
f 124/114/139 47/116/47 45/112/45
f 53/112/140 59/116/140 125/114/140
vt 0.782373 0.785591
vt 0.175592 0.785591
vt 0.739642 0.955758
vt 0.2019 0.955758
o merged_1_0_node
g polygon_0
usemtl TEX_ANIM_EYE_mat_id
f 38/117/38 35/118/35 28/119/28
f 28/119/28 35/118/35 27/120/27
f 24/117/24 18/119/18 34/118/34
f 34/118/34 18/119/18 29/120/29
