mtllib Dialga.mtl
v -0.269012 1.03261 0.436629
vt 0.860035 0.936025
vn -0.9856268 -0.04889429 0.161707
v -0.282359 1.1966 0.0425063
vn -0.8168029 0.5764139 0.0240857
v -0.317085 1.13636 -0.120874
vn -0.20492 0.426431 -0.8810019
v -0.208083 1.136 0.413032
vn 0.6344272 0.7646752 -0.113022
v -0.21544 1.00232 0.34114
vn 0.7130858 -0.5939259 -0.3725059
v -0.236651 1.24958 0.570625
vn 0.7303291 0.5019381 0.4633331
v -0.213016 0.887406 0.402365
vn 0.114949 -0.702882 -0.701957
v -0.202174 0.987881 0.493991
vn 0.9147556 0.2378479 0.3265739
v -0.20249 0.847219 0.506086
vn -0.05375721 -0.6788892 -0.7322702
v -0.237281 0.919641 0.567763
vn -0.87551 -0.00786492 0.483136
v -0.153076 0.661069 0.587764
vn 0.9079174 -0.4124932 -0.07439934
v -0.153076 0.906565 0.61816
vn 0.6771891 0.124125 0.7252641
v 0.269012 1.03261 0.436629
vn 0.9856268 -0.04889419 0.161707
v 0.317085 1.13636 -0.120874
vn 0.204919 0.4264271 -0.8810041
v 0.282359 1.1966 0.0425063
vn 0.8168041 0.5764121 0.0240849
v 0.21544 1.00232 0.34114
vn -0.7130858 -0.5939259 -0.3725059
v 0.208083 1.136 0.413032
vn -0.6344261 0.7646761 -0.113022
v 0.213016 0.887406 0.402365
vn -0.114948 -0.7028821 -0.7019571
v 0.236651 1.24958 0.570625
vn -0.7303288 0.5019379 0.4633339
v 0.20249 0.847219 0.506086
vn 0.05375727 -0.6788887 -0.7322707
v 0.202174 0.987881 0.493991
vn -0.9147553 0.2378478 0.3265748
v 0.237281 0.919641 0.567763
vn 0.8755104 -0.007864893 0.4831353
v 0.153076 0.661069 0.587764
vn -0.907917 -0.412494 -0.0743999
v 0.153076 0.906565 0.61816
vn -0.6771886 0.1241239 0.7252646
v -0.283955 0.4075047 0.3071572
vt 0.19001 0.705952
vn -0.8667673 0.3799438 0.3230434
v -0.257011 0.534954 -0.233935
vt 0.781912 0.930386
vn -0.50688 0.8512421 -0.135866
v -0.283955 0.4075045 -0.2805595
vt 0.824132 0.702932
vn -0.937002 0.1420715 -0.3191285
v -0.146073 0.534954 0.28397
vt 0.207612 1.0336
vn -0.700726 0.712112 0.0433553
v -0.282518 0.2477446 -0.08395775
vt 0.613227 0.427117
vn -0.8217869 -0.5079823 0.2581092
v -0.282518 0.2616871 0.1421755
vt 0.367994 0.451447
vn -0.7217391 -0.599899 -0.3452737
v -0.287509 -2.79205E-05 0.3393019
vt 0.169286 -0.00375216
vn -0.2226439 -0.9735404 -0.0514649
vt 0.153304 -0.00375216
v -0.141978 0.3056886 0.4059463
vt -0.000926379 0.541015
vn -0.5504382 0.03418316 0.8341759
v -0.135067 0.40694 0.397778
vt 0.00242081 0.717687
vn -0.6375412 -0.03057671 0.7698092
v -0.0567973 0.475195 0.401612
vt -0.0678268 0.856998
vn -0.2897539 0.3966058 0.8710606
vt 0.0649614 0.789213
v -0.125041 0.3936204 -0.4271223
vt 1.05704 0.712449
vn -0.6742735 0.2270461 -0.7027127
v 0 0.534954 -0.386482
vt 0.999951 0.937769
vn 0 0.967316 -0.253574
v -0.287509 -3.185824E-05 -0.3517688
vt 0.907648 -0.00414044
vn -0.1117134 -0.9781141 -0.175536
v 0 0.2228317 0.1436745
vt 0.395039 0.487065
vn 0 -0.9665755 -0.2563821
v -0.0718772 0.1986775 0.4365326
vt -0.0366156 0.268593
vn 0.2588243 -0.8498902 0.4590172
v 0.257011 0.534954 -0.233935
vn 0.50688 0.8512421 -0.135866
v 0.125041 0.3936204 -0.4271213
vn 0.6742735 0.2270461 -0.7027127
v 0.282518 0.2616871 0.1421755
vn 0.7217395 -0.5998984 -0.3452739
v 0.287509 -2.79205E-05 0.3393019
vn 0.222643 -0.9735407 -0.05146502
v 0.283955 0.4075045 -0.2805595
vn 0.9370021 0.1420714 -0.3191282
v 0.283955 0.4075047 0.3071572
vn 0.8667673 0.3799438 0.3230434
v 0.146073 0.534954 0.28397
vn 0.700726 0.712112 0.0433552
v 0.282518 0.2477446 -0.08395755
vn 0.8217869 -0.5079823 0.2581092
v 0.287509 -3.185824E-05 -0.3517688
vn 0.1117134 -0.9781141 -0.175536
v 0.141978 0.3056886 0.4059463
vn 0.5504389 0.03418274 0.8341755
v 0.0567973 0.475195 0.401612
vn -0.371445 0.549685 0.748248
v 0.135067 0.40694 0.397778
vn 0.6375412 -0.03057691 0.7698092
v 0.0718772 0.1986775 0.4365326
vn -0.3381388 -0.3202162 0.8849428
v 0.057648 0.406033 0.481224
vt 0.477818 0.0651963
vn 0 0.6330379 0.7741209
v 0.0777106 0.312341 0.491913
vt 0.566366 0.0886995
vn -0.3381419 -0.3202159 0.8849417
vt 0.476961 0.155892
v 0.290659 0.547155 0.368267
vt 0.344442 0.338167
vn 0.2470961 0.3231981 0.9135023
vt 0.412453 0.0641996
vt 0.412453 -0.0688759
v -0.057648 0.406033 0.481224
vt 0.477817 -0.0698723
vn -0.2141001 0.5870952 0.7806922
vt 0.572651 0.163988
vt 0.673786 0.0818482
v 0 0.28961 0.496784
vt 0.587849 -0.00233805
vn 0 -0.493445 0.869777
vt 0.486843 0.355227
vt 0.673786 -0.0865243
v -0.0777106 0.312341 0.491913
vn -0.6446499 -0.172685 0.744719
v -0.290659 0.547155 0.368267
vn -0.247096 0.3231969 0.9135028
vt 0.147652 0.801933
v 0 0.2254744 -0.08825789
vn 0 -0.9828925 0.1841802
v 0 0.575773 0.159845
vt 0.349182 0.935293
vn 0 0.9593874 -0.2820921
vt 0.94911 0.935293
vt 0.781912 0.935293
vt 0.213583 0.935293
vt 0.576749 -0.000690137
vn 0 0.125678 0.9920711
vt 0.485532 0.057374
vt 0.561663 0.0679105
vn -0.02737351 0.119096 0.9925053
vt 0.485532 -0.057
v 0 0.817693 0.307584
vt 0.0447421 0.886682
vn 0 0.652842 -0.7574941
v 0 0.778152 0.442746
vn 0 0.36012 0.932906
v 0.0928094 0.797284 0.369646
vn 0.8205385 0.5185217 -0.2405238
v -0.0928095 0.797284 0.369646
vn -0.8205385 0.5185217 -0.2405238
vt 0.93757 -0.00414044
vt 1.09454 0.712449
v 0 0.2658338 -0.4663447
vt 1.10124 0.712449
vn 0 -0.8056182 -0.5924351
vt 1.14252 0.712449
vt 0.859164 0.702932
vt 1.09207 0.712449
vt 0.944263 0.712449
vt 1.01032 0.712449
vt 0.983635 0.00319713
vt 1.0655 0.506417
vt 0.854141 0.575043
vt 0.893906 0.970186
vn 0.116991 -0.07855117 -0.9900216
vn -0.116991 -0.07855127 -0.9900216
vt 0.0106747 1.08529
vt 0.0106745 0.916914
vt 0.288277 1.0011
o merged_0_0_node
g polygon_0
usemtl mat_1_mat_id
f 1/1/1 2/1/2 3/1/3
f 1/1/1 4/1/4 2/1/2
f 1/1/1 3/1/3 5/1/5
f 1/1/1 6/1/6 4/1/4
f 1/1/1 5/1/5 7/1/7
f 1/1/1 8/1/8 6/1/6
f 1/1/1 7/1/7 9/1/9
f 1/1/1 10/1/10 8/1/8
f 1/1/1 9/1/9 10/1/10
f 4/1/4 3/1/3 2/1/2
f 4/1/4 8/1/8 5/1/5
f 4/1/4 6/1/6 8/1/8
f 4/1/4 5/1/5 3/1/3
f 5/1/5 8/1/8 7/1/7
f 9/1/9 11/1/11 10/1/10
f 9/1/9 7/1/7 12/1/12
f 9/1/9 12/1/12 11/1/11
f 12/1/12 7/1/7 8/1/8
f 12/1/12 10/1/10 11/1/11
f 12/1/12 8/1/8 10/1/10
f 13/1/13 14/1/14 15/1/15
f 13/1/13 16/1/16 14/1/14
f 13/1/13 15/1/15 17/1/17
f 13/1/13 18/1/18 16/1/16
f 13/1/13 17/1/17 19/1/19
f 13/1/13 20/1/20 18/1/18
f 13/1/13 19/1/19 21/1/21
f 13/1/13 22/1/22 20/1/20
f 13/1/13 21/1/21 22/1/22
f 17/1/17 15/1/15 14/1/14
f 17/1/17 16/1/16 21/1/21
f 17/1/17 21/1/21 19/1/19
f 17/1/17 14/1/14 16/1/16
f 16/1/16 18/1/18 21/1/21
f 20/1/20 22/1/22 23/1/23
f 20/1/20 24/1/24 18/1/18
f 20/1/20 23/1/23 24/1/24
f 24/1/24 21/1/21 18/1/18
f 24/1/24 23/1/23 22/1/22
f 24/1/24 22/1/22 21/1/21
f 25/2/25 26/3/26 27/4/27
f 25/2/25 28/5/28 26/3/26
f 25/2/25 27/4/27 29/6/29
f 25/2/25 29/6/29 30/7/30
f 25/2/25 30/7/30 31/8/31
f 25/2/25 31/9/31 32/10/32
f 25/2/25 33/11/33 34/12/34
f 25/2/25 34/12/34 28/13/28
f 26/3/26 35/14/35 27/4/27
f 26/3/26 36/15/36 35/14/35
f 29/6/29 27/4/27 37/16/37
f 30/7/30 38/17/38 31/8/31
f 31/9/31 39/18/39 32/10/32
f 36/15/36 40/3/40 41/14/41
f 38/17/38 42/7/42 43/8/43
f 40/3/40 44/4/44 41/14/41
f 40/3/40 45/2/45 44/4/44
f 40/3/40 46/5/46 45/2/45
f 43/8/43 42/7/42 45/2/45
f 44/4/44 45/2/45 47/6/47
f 44/4/44 47/6/47 48/16/48
f 47/6/47 45/2/45 42/7/42
f 45/2/45 49/10/49 43/9/43
f 45/2/45 46/13/46 50/12/50
f 45/2/45 50/12/50 51/11/51
f 49/10/49 52/18/52 43/9/43
f 53/19/53 54/20/54 51/21/51
f 53/19/53 51/21/51 55/22/55
f 53/19/53 55/22/55 50/23/50
f 53/19/53 50/23/50 34/24/34
f 53/19/53 34/24/34 56/25/56
f 54/20/54 49/26/49 51/21/51
f 54/20/54 52/27/52 49/26/49
f 54/20/54 57/28/57 52/27/52
f 51/21/51 49/26/49 45/29/45
f 57/28/57 39/30/39 52/27/52
f 57/28/57 58/20/58 39/27/39
f 58/20/58 32/26/32 39/27/39
f 58/20/58 33/21/33 32/26/32
f 58/20/58 56/19/56 33/21/33
f 32/26/32 33/21/33 25/29/25
f 56/19/56 59/22/59 33/21/33
f 56/19/56 34/23/34 59/22/59
f 38/31/38 30/31/30 29/31/29
f 38/31/38 29/31/29 60/31/60
f 38/31/38 60/31/60 47/31/47
f 38/31/38 47/31/47 42/31/42
f 61/32/61 36/33/36 26/34/26
f 61/32/61 40/34/40 36/33/36
f 61/32/61 26/34/26 28/35/28
f 61/32/61 46/35/46 40/34/40
f 57/36/62 56/37/62 58/38/63
f 57/36/62 53/37/53 56/39/62
f 57/36/62 54/38/54 53/37/53
f 62/40/64 63/40/65 64/40/66
f 62/40/64 65/40/67 63/40/65
f 37/41/37 35/42/35 66/43/68
f 37/41/37 60/44/60 29/45/29
f 37/41/37 27/45/27 35/46/35
f 66/43/68 41/42/41 48/41/48
f 60/44/60 48/41/48 47/45/47
f 48/41/48 41/46/41 44/45/44
f 66/47/68 60/48/60 37/49/37
f 66/47/68 48/49/48 60/48/60
f 38/50/38 39/51/39 31/41/31
f 38/50/38 43/41/43 52/51/52
f 33/52/69 59/52/69 34/52/69
f 50/52/50 55/52/70 51/52/70
f 52/53/52 39/54/39 38/55/38
v 0.213689 0.916609 0.409088
vt 0.476674 0.380545
vn 0.9791303 -0.166864 -0.116018
v 0.169395 0.968408 0.11778
vt 0.852503 0.393117
vn 0.8586942 -0.193224 -0.4746671
v 0.195138 1.02662 0.438116
vt 0.461993 0.663276
vn 0.932178 0.361738 0.01378
v 0.143447 0.783097 0.373859
vt 0.470644 0.000736894
vn 0.6032099 -0.7461638 -0.28174
v 0.207189 0.891746 0.543261
vt 0.307801 0.345213
vn 0.8927978 -0.124507 0.4329089
v 0.104692 1.16096 0.168586
vt 0.839369 0.922165
vn 0.3931408 0.9177945 -0.05562087
v 0 0.84941 0.0863791
vn 0 -0.76592 -0.642936
v 0.139684 1.05562 0.544081
vt 0.323144 0.801528
vn 0.6847422 0.3600641 0.6336262
v 0.12817 0.759945 0.52169
vt 0.320328 -0.0478979
vn 0.5681419 -0.7748458 0.2771799
v 0.106412 0.870964 0.636507
vt 0.171969 0.306798
vn 0.5240861 -0.105231 0.8451392
v 0.132067 1.12645 0.464459
vt 0.464046 0.966265
vn 0.2088301 0.9684375 0.1360841
v -0.143447 0.783097 0.373859
vn -0.6032099 -0.7461638 -0.28174
v -0.169395 0.968408 0.11778
vn -0.8586944 -0.1932251 -0.4746662
vt 0.431537 0.961883
v 0.101601 1.09757 0.554286
vt 0.304262 0.939969
vn 0.1821341 0.8673542 0.4631672
v 0 1.06518 0.629805
vt 0.141144 0.992639
vn 0 0.549069 0.835777
v 0 0.993307 0.634147
vt 0.10047 0.832223
vn 0 0.3096541 0.9508493
v 0 0.713836 0.435057
vt 0.377322 3.5434E-05
vn 0 -0.9798439 -0.199765
vt 0.831051 3.54573E-05
v 0 0.861819 0.679938
vt 0.108697 0.292955
vn 0 -0.2909089 0.9567508
v -0.213689 0.916609 0.409088
vn -0.9791303 -0.166864 -0.116018
v -0.195138 1.02662 0.438116
vn -0.932178 0.361738 0.0137799
v -0.104692 1.16096 0.168586
vn -0.3931412 0.9177943 -0.05562062
v -0.139684 1.05562 0.544081
vn -0.6847422 0.3600641 0.6336262
v -0.101601 1.09757 0.554286
vn -0.2064451 0.8511783 0.4825722
v -0.12817 0.759945 0.52169
vn -0.5681419 -0.7748458 0.2771799
v 0 0.756919 0.559531
vt 0.265725 -0.0404366
vn 0 -0.8407866 0.5413668
v -0.106412 0.870964 0.636507
vn -0.5240861 -0.105231 0.8451392
v -0.207189 0.891746 0.543261
vn -0.8927978 -0.124507 0.4329089
v -0.132068 1.12645 0.464459
vn -0.2124701 0.9680855 0.1329171
vt 0.135298 0.425795
vt 0.000347318 0.537005
v 0 0.45403 -0.955545
vt 1.03753 0.146998
vn 0 0.161736 -0.986834
v 0 0.340761 -0.6907771
vt 0.711835 -0.0726489
vn 0 -0.9440621 -0.329768
v -0.0682715 0.408801 -0.690367
vt 0.707381 0.154874
vn -0.9721886 -0.02311301 -0.2330561
v 0.0682715 0.408801 -0.690367
vn 0.9721886 -0.02311301 -0.2330561
v 0 0.48305 -0.690508
vt 0.741365 0.378551
vn 0 0.9890991 -0.147251
vt 0.659697 0.706095
vt 0.659697 0.458974
vt 0.659697 0.686498
vt 0.659697 0.274803
vt 0.659697 0.910175
vt 0.659697 1.16389
vt 0.671365 0.684004
vt 0.972997 0.963612
vt 0.650671 0.845944
vt 1.00544 0.682755
vt 1.01015 0.452609
vt 0.643163 0.514732
vt 0.713531 0.491753
vt 0.713531 -0.181947
vt 0.700032 0.421929
vt 0.705706 -0.10424
vt 0.705706 0.414045
vt 0.700032 -0.112123
v 0 1.12828 -0.121482
vt 1.02231 0.154903
vn 0 0.3041829 -0.9526137
vt 0.609397 0.154903
vt 0.0293669 0.927567
vt 0.0348201 0.96755
vt 1.02407 0.167514
vt 0.706158 -0.139049
vt 0.693024 0.39
o merged_1_0_node
g polygon_0
usemtl mat_5_mat_id
f 67/56/71 68/57/72 69/58/73
f 67/56/71 70/59/74 68/57/72
f 67/56/71 69/58/73 71/60/75
f 67/56/71 71/60/75 70/59/74
f 68/57/72 72/61/76 69/58/73
f 68/57/72 70/59/74 73/57/77
f 71/60/75 69/58/73 74/62/78
f 71/60/75 75/63/79 70/59/74
f 71/60/75 76/64/80 75/63/79
f 72/61/76 77/65/81 69/58/73
f 73/57/77 78/59/82 79/57/83
f 74/62/78 69/58/73 77/66/81
f 74/62/78 77/66/81 80/67/84
f 74/62/78 80/67/84 81/68/85
f 74/62/78 81/68/85 82/69/86
f 70/59/74 75/63/79 83/70/87
f 70/59/74 83/70/87 73/71/77
f 73/71/77 83/70/87 78/59/82
f 76/64/80 84/72/88 75/63/79
f 79/57/83 78/59/82 85/56/89
f 79/57/83 85/56/89 86/58/90
f 79/57/83 86/58/90 87/61/91
f 81/68/85 88/62/92 82/69/86
f 81/68/85 89/67/93 88/62/92
f 83/70/87 90/63/94 78/59/82
f 84/72/88 91/73/95 75/63/79
f 84/72/88 90/63/94 91/73/95
f 84/72/88 92/64/96 90/63/94
f 85/56/89 93/60/97 86/58/90
f 85/56/89 78/59/82 93/60/97
f 93/60/97 88/62/92 86/58/90
f 93/60/97 90/63/94 92/64/96
f 93/60/97 78/59/82 90/63/94
f 87/61/91 86/58/90 94/65/98
f 82/69/86 92/74/96 84/75/88
f 82/69/86 84/75/88 76/74/80
f 89/67/93 94/66/98 88/62/92
f 88/62/92 94/66/98 86/58/90
f 95/76/99 96/77/100 97/78/101
f 95/76/99 98/78/102 96/77/100
f 95/76/99 97/78/101 99/79/103
f 95/76/99 99/79/103 98/78/102
f 41/80/41 96/81/100 98/82/102
f 41/80/41 66/83/68 96/81/100
f 41/80/41 98/82/102 99/84/103
f 41/80/41 99/84/103 36/85/36
f 66/83/68 35/80/35 96/81/100
f 36/85/36 99/84/103 35/80/35
f 96/81/100 35/80/35 97/82/101
f 97/82/101 35/80/35 99/84/103
f 64/86/66 61/87/61 62/88/64
f 64/86/66 46/89/46 61/87/61
f 64/86/66 50/90/50 46/89/46
f 64/86/66 63/91/65 50/90/50
f 62/88/64 61/87/61 65/86/67
f 63/91/65 65/86/67 34/90/34
f 61/87/61 28/89/28 65/86/67
f 65/86/67 28/89/28 34/90/34
f 94/92/98 77/93/81 87/94/91
f 94/92/98 80/95/84 77/93/81
f 94/92/98 89/96/93 80/95/84
f 87/94/91 77/93/81 72/97/76
f 87/94/91 72/97/76 100/98/104
f 89/96/93 81/99/85 80/95/84
f 73/100/77 79/100/83 100/100/104
f 73/100/77 100/100/104 68/100/72
f 83/101/87 91/101/95 90/101/94
f 83/101/87 75/101/79 91/101/95
f 100/102/104 79/103/83 87/104/91
f 100/102/104 72/104/76 68/103/72
f 34/40/34 50/40/50 63/40/65
v 0 0.615725 0.1085
vt 0.140625 0.0546875
vn 1 0 0
v 0 0.755483 0.194931
vt 0.890625 0.429688
v 0 0.577776 0.164668
vt 0 0.125
v 0 0.719198 0.251955
vt 0.75 0.5
vn -1 0 0
v 0.349284 0.755653 -0.474116
vt 0.5 0.997807
vn -0.043218 -0.6031159 -0.7964819
v 0 0.493105 -0.256356
vt 0 0.196026
vn 0 -0.6054679 -0.7958698
v 0.133415 0.885772 -0.566662
vt -0.5 0.997807
vn -0.01464091 -0.6168872 -0.7869154
v -0.133415 0.885772 -0.566662
vn 0.01464091 -0.6168872 -0.7869154
v -0.349284 0.755653 -0.474116
vn 0.043218 -0.6031159 -0.7964819
v -0.431739 0.543903 -0.325534
vn 0.05986084 -0.5888734 -0.8060055
v 0.431739 0.543903 -0.325534
vn -0.05986078 -0.5888729 -0.8060058
vn 0.043218 0.6031159 0.7964819
vn 0.01464101 0.6168872 0.7869154
vn 0 0.6054679 0.7958698
vn -0.01464101 0.6168872 0.7869154
vn -0.043218 0.6031159 0.7964819
vn -0.05986084 0.5888734 0.8060055
vn 0.05986078 0.5888729 0.8060058
o merged_2_0_node
g polygon_0
usemtl mat_kazari1_mat_id
f 101/105/105 102/106/105 103/107/105
f 103/107/105 102/106/105 104/108/105
f 104/108/106 102/106/106 103/107/106
f 103/107/106 102/106/106 101/105/106
f 105/109/107 106/110/108 107/111/109
f 107/109/109 106/110/108 108/111/110
f 108/109/110 106/110/108 109/111/111
f 109/109/111 106/110/108 110/111/112
f 111/109/113 106/110/108 105/111/107
f 105/109/114 107/111/115 106/110/116
f 107/109/115 108/111/117 106/110/116
f 108/109/117 109/111/118 106/110/116
f 109/109/118 110/111/119 106/110/116
f 111/109/120 105/111/114 106/110/116
vt 0.168567 0.792551
vt 0.0292548 0.995765
vt 0.91995 0.980418
vt 0.858579 0.75226
o merged_3_0_node
g polygon_0
usemtl TEX_ANIM_EYE_mat_id
f 92/112/96 82/113/86 88/114/92
f 92/112/96 88/114/92 93/115/97
f 82/113/86 76/112/80 74/114/78
f 71/115/75 74/114/78 76/112/80
