mtllib Jumpluff.mtl
v -0.44491 0.288348 0.021693
vt 0.416667 0.3125
vn -0.6908705 0.3988743 -0.6029904
v -0.425092 0.351048 0.122453
vt 0.416667 0.50047
vn -0.4999998 0.8660256 0
v -0.360883 0.336862 0.021693
vt 0.375 0.3125
vn 0 0.7977485 -0.6029903
v -0.296674 0.351048 0.122453
vt 0.375 0.50047
vn 0.5000002 0.8660253 0
v -0.44491 0.191322 0.021693
vt 0.458333 0.3125
vn -0.69087 -0.398874 -0.602991
v -0.4893 0.239835 0.122453
vt 0.458333 0.50047
vn -1 0 0
v -0.360883 0.142809 0.021693
vt 0.5 0.3125
vn 0 -0.797748 -0.602991
v -0.425092 0.128622 0.122453
vt 0.5 0.50047
vn -0.5000002 -0.8660253 0
v -0.276855 0.191322 0.021693
vt 0.541667 0.3125
vn 0.69087 -0.398874 -0.602991
v -0.296674 0.128622 0.122453
vt 0.541667 0.50047
vn 0.5000002 -0.8660253 0
v -0.276855 0.288348 0.021693
vt 0.583333 0.3125
vn 0.69087 0.398874 -0.602991
v -0.232466 0.239835 0.122453
vt 0.583333 0.50047
vn 1 0 0
vt 0.625 0.3125
vt 0.625 0.50047
v -0.360883 0.336862 0.223213
vt 0.375 0.68844
vn 0 0.7977489 0.6029899
v -0.44491 0.288348 0.223213
vt 0.416667 0.68844
vn -0.69087 0.398874 0.602991
v -0.44491 0.191322 0.223213
vt 0.458333 0.68844
vn -0.69087 -0.398874 0.602991
v -0.360883 0.142809 0.223213
vt 0.5 0.68844
vn 0 -0.797748 0.602991
v -0.276855 0.191322 0.223213
vt 0.541667 0.68844
vn 0.69087 -0.398874 0.602991
v -0.276855 0.288348 0.223213
vt 0.583333 0.68844
vn 0.69087 0.398874 0.602991
vt 0.625 0.68844
vt 0.421875 0.0209335
vt 0.578125 0.0209335
v -0.360883 0.239835 -0.00493896
vt 0.5 0.15
vn 0 0 -1
vt 0.34375 0.15625
vt 0.421875 0.291566
vt 0.578125 0.291566
vt 0.65625 0.15625
vt 0.578125 0.979066
vt 0.421875 0.979066
v -0.360883 0.239835 0.249845
vt 0.5 0.8375
vn 0 0 1
vt 0.34375 0.84375
vt 0.421875 0.708434
vt 0.578125 0.708434
vt 0.65625 0.84375
v 0.270607 0.288348 0.021693
v 0.290426 0.351048 0.122453
v 0.354635 0.336862 0.021693
v 0.418843 0.351048 0.122453
v 0.270607 0.191322 0.021693
v 0.226217 0.239835 0.122453
v 0.354635 0.142809 0.021693
v 0.290426 0.128622 0.122453
v 0.438662 0.191322 0.021693
v 0.418843 0.128622 0.122453
v 0.438662 0.288348 0.021693
v 0.483052 0.239835 0.122453
v 0.354635 0.336862 0.223213
v 0.270607 0.288348 0.223213
v 0.270607 0.191322 0.223213
v 0.354635 0.142809 0.223213
v 0.438662 0.191322 0.223213
v 0.438662 0.288348 0.223213
v 0.354635 0.239835 -0.00493896
v 0.354635 0.239835 0.249845
v -0.105835 0.63357 -0.160514
vn -0.69087 0.279965 -0.666572
v -0.0808727 0.734735 -0.0504763
vn -0.5000001 0.8509631 -0.160816
v 0 0.693612 -0.171861
vn 0 0.6719021 -0.74064
v 0.0808727 0.734735 -0.0504763
vn 0.5000001 0.8509631 -0.160816
v -0.105835 0.513488 -0.137821
vn -0.6908698 -0.5039089 -0.5184349
v -0.161745 0.597096 -0.024465
v 0 0.453447 -0.126475
vn 0 -0.8958453 -0.4443662
v -0.0808727 0.459456 0.00154619
vn -0.5000001 -0.8509631 0.160816
v 0.105835 0.513488 -0.137821
vn 0.6908702 -0.5039092 -0.5184342
v 0.0808727 0.459456 0.00154619
vn 0.5000001 -0.8509631 0.160816
v 0.105835 0.63357 -0.160514
vn 0.69087 0.279965 -0.666572
v 0.161745 0.597096 -0.024465
v 0 0.740744 0.0775445
vn 0 0.8958453 0.4443662
v -0.105835 0.680703 0.0888911
vn -0.6908702 0.5039092 0.5184342
v -0.105835 0.560621 0.111584
vn -0.69087 -0.279965 0.666572
v 0 0.50058 0.122931
vn 0 -0.6719021 0.74064
v 0.105835 0.560621 0.111584
vn 0.69087 -0.279965 0.666572
v 0.105835 0.680703 0.0888911
vn 0.6908698 0.5039089 0.5184349
v 0 0.5673 -0.182128
vn 0 -0.1856939 -0.9826077
v 0 0.626891 0.133198
vn 0 0.1856939 0.9826077
o merged_0_0_node
g polygon_0
usemtl mat_wata_mat_id
f 1/1/1 2/2/2 3/3/3
f 3/3/3 2/2/2 4/4/4
f 5/5/5 6/6/6 1/1/1
f 1/1/1 6/6/6 2/2/2
f 7/7/7 8/8/8 5/5/5
f 5/5/5 8/8/8 6/6/6
f 9/9/9 10/10/10 7/7/7
f 7/7/7 10/10/10 8/8/8
f 11/11/11 12/12/12 9/9/9
f 9/9/9 12/12/12 10/10/10
f 3/13/3 4/14/4 11/11/11
f 11/11/11 4/14/4 12/12/12
f 4/4/4 2/2/2 13/15/13
f 13/15/13 2/2/2 14/16/14
f 2/2/2 6/6/6 14/16/14
f 14/16/14 6/6/6 15/17/15
f 6/6/6 8/8/8 15/17/15
f 15/17/15 8/8/8 16/18/16
f 8/8/8 10/10/10 16/18/16
f 16/18/16 10/10/10 17/19/17
f 10/10/10 12/12/12 17/19/17
f 17/19/17 12/12/12 18/20/18
f 12/12/12 4/14/4 18/20/18
f 18/20/18 4/14/4 13/21/13
f 1/22/1 3/23/3 19/24/19
f 5/25/5 1/22/1 19/24/19
f 7/26/7 5/25/5 19/24/19
f 9/27/9 7/26/7 19/24/19
f 11/28/11 9/27/9 19/24/19
f 3/23/3 11/28/11 19/24/19
f 13/29/13 14/30/14 20/31/20
f 14/30/14 15/32/15 20/31/20
f 15/32/15 16/33/16 20/31/20
f 16/33/16 17/34/17 20/31/20
f 17/34/17 18/35/18 20/31/20
f 18/35/18 13/29/13 20/31/20
f 21/1/1 22/2/2 23/3/3
f 23/3/3 22/2/2 24/4/4
f 25/5/5 26/6/6 21/1/1
f 21/1/1 26/6/6 22/2/2
f 27/7/7 28/8/8 25/5/5
f 25/5/5 28/8/8 26/6/6
f 29/9/9 30/10/10 27/7/7
f 27/7/7 30/10/10 28/8/8
f 31/11/11 32/12/12 29/9/9
f 29/9/9 32/12/12 30/10/10
f 23/13/3 24/14/4 31/11/11
f 31/11/11 24/14/4 32/12/12
f 24/4/4 22/2/2 33/15/13
f 33/15/13 22/2/2 34/16/14
f 22/2/2 26/6/6 34/16/14
f 34/16/14 26/6/6 35/17/15
f 26/6/6 28/8/8 35/17/15
f 35/17/15 28/8/8 36/18/16
f 28/8/8 30/10/10 36/18/16
f 36/18/16 30/10/10 37/19/17
f 30/10/10 32/12/12 37/19/17
f 37/19/17 32/12/12 38/20/18
f 32/12/12 24/14/4 38/20/18
f 38/20/18 24/14/4 33/21/13
f 21/22/1 23/23/3 39/24/19
f 25/25/5 21/22/1 39/24/19
f 27/26/7 25/25/5 39/24/19
f 29/27/9 27/26/7 39/24/19
f 31/28/11 29/27/9 39/24/19
f 23/23/3 31/28/11 39/24/19
f 33/29/13 34/30/14 40/31/20
f 34/30/14 35/32/15 40/31/20
f 35/32/15 36/33/16 40/31/20
f 36/33/16 37/34/17 40/31/20
f 37/34/17 38/35/18 40/31/20
f 38/35/18 33/29/13 40/31/20
f 41/1/21 42/2/22 43/3/23
f 43/3/23 42/2/22 44/4/24
f 45/5/25 46/6/6 41/1/21
f 41/1/21 46/6/6 42/2/22
f 47/7/26 48/8/27 45/5/25
f 45/5/25 48/8/27 46/6/6
f 49/9/28 50/10/29 47/7/26
f 47/7/26 50/10/29 48/8/27
f 51/11/30 52/12/12 49/9/28
f 49/9/28 52/12/12 50/10/29
f 43/13/23 44/14/24 51/11/30
f 51/11/30 44/14/24 52/12/12
f 44/4/24 42/2/22 53/15/31
f 53/15/31 42/2/22 54/16/32
f 42/2/22 46/6/6 54/16/32
f 54/16/32 46/6/6 55/17/33
f 46/6/6 48/8/27 55/17/33
f 55/17/33 48/8/27 56/18/34
f 48/8/27 50/10/29 56/18/34
f 56/18/34 50/10/29 57/19/35
f 50/10/29 52/12/12 57/19/35
f 57/19/35 52/12/12 58/20/36
f 52/12/12 44/14/24 58/20/36
f 58/20/36 44/14/24 53/21/31
f 41/22/21 43/23/23 59/24/37
f 45/25/25 41/22/21 59/24/37
f 47/26/26 45/25/25 59/24/37
f 49/27/28 47/26/26 59/24/37
f 51/28/30 49/27/28 59/24/37
f 43/23/23 51/28/30 59/24/37
f 53/29/31 54/30/32 60/31/38
f 54/30/32 55/32/33 60/31/38
f 55/32/33 56/33/34 60/31/38
f 56/33/34 57/34/35 60/31/38
f 57/34/35 58/35/36 60/31/38
f 58/35/36 53/29/31 60/31/38
v 0.0850946 0.0317351 0.0520632
vt 1 0
vn 0.129543 -0.9379702 0.3216061
v 0 0.0342891 -0.0267778
vn 0 -0.9956861 -0.09278551
v 0.0987417 0.00223777 -0.0258896
vn 0.1855329 -0.9747165 -0.1245199
v -0.0850946 0.0317351 0.0520632
vn -0.129543 -0.9379702 0.3216061
v 0.14153 0.0542308 0
vn 0.7441489 -0.6648898 -0.06452928
v 0 0.0871754 0.176523
vn 0 -0.7363748 0.6765738
v 0.158996 0.0907063 0.100174
vn 0.7515599 -0.558641 0.350825
v 0.0998824 0.0889408 0.163386
vn 0.31185 -0.673168 0.670518
v 0.0850271 0.0453267 -0.102239
vn 0.2328179 -0.8165748 -0.5282059
v -0.0987417 0.00223777 -0.0258896
vn -0.1855329 -0.9747165 -0.1245199
v -0.0850271 0.0453267 -0.102239
vn -0.2328179 -0.8165748 -0.5282059
v 0.0517691 0.198892 0.226335
vn 0.131608 -0.1744771 0.9758264
v -0.0998824 0.0889408 0.163386
vn -0.31185 -0.673168 0.670518
v -0.0517691 0.198892 0.226335
vn -0.131608 -0.1744771 0.9758264
v 0.223337 0.161634 0
vn 0.9516377 -0.3063319 -0.02337589
v 0.146443 0.198892 0.199742
vn 0.5948909 -0.2432299 0.7661228
v 0.203706 0.239019 0.125897
vn 0.9254705 0.01845699 0.3783698
v -0.14153 0.0542308 0
vn -0.7441489 -0.6648898 -0.06452928
v 0.146822 0.113808 -0.13803
vn 0.6292509 -0.491192 -0.602307
v 0 0.124814 -0.203706
vn 0 -0.5071689 -0.8618467
v -0.146443 0.198892 0.199742
vn -0.5948909 -0.2432299 0.7661228
v 0.142236 0.28453 0.195872
vn 0.4624309 0.3080889 0.8314078
v 0.223337 0.316404 0
vn 0.9229373 0.3849501 -0.0005106752
v 0.13803 0.364231 0.149692
vn 0.548959 0.668841 0.501294
v -0.158996 0.0907063 0.100174
vn -0.7515599 -0.558641 0.350825
v -0.146822 0.113808 -0.13803
vn -0.6292509 -0.491192 -0.602307
v 0.203706 0.239019 -0.125897
vn 0.8525679 0.0217189 -0.522165
v 0.0853072 0.239019 -0.223337
vn 0.353558 0.00352855 -0.935406
v 0 0.371032 0.179964
vn 0 0.6409749 0.7675619
v 0 0.279027 0.219452
vn 0 0.289501 0.9571778
v -0.203706 0.239019 0.125897
vn -0.9254705 0.01845699 0.3783698
v -0.142236 0.28453 0.195872
vn -0.4624301 0.308089 0.8314081
v -0.223337 0.161634 0
vn -0.9516377 -0.3063319 -0.02337589
v -0.0853072 0.239019 -0.223337
vn -0.353558 0.00352851 -0.935406
v 0.13803 0.364231 -0.13803
vn 0.5591701 0.610631 -0.560766
v 0 0.441616 0.0853072
vn 0 0.9546105 0.2978568
v 0.125897 0.423807 0
vn 0.4947388 0.8690417 3.420249E-06
v -0.13803 0.364231 0.149692
vn -0.548959 0.668841 0.501294
v -0.203706 0.239019 -0.125897
vn -0.8525679 0.0217189 -0.522165
v -0.223337 0.316404 0
vn -0.9229373 0.3849501 -0.0005106532
v 0 0.353225 -0.203706
vn 0 0.5585253 -0.8294874
v 0 0.441616 -0.0853072
vn 0 0.943812 -0.330483
v -0.125897 0.423807 0
vn -0.4947388 0.8690417 3.435189E-06
v -0.13803 0.364231 -0.13803
vn -0.5591701 0.610631 -0.560766
v -0.057772 0.06760721 -0.302159
vn -0.931668 -0.07190491 -0.356124
v -0.0408509 0.114841 -0.223195
vn -0.5982441 0.7814911 0.177132
v 0 0.110124 -0.310743
vn 0 0.8764176 -0.4815518
v -0.0408509 0.05471231 -0.211054
vn -0.598244 -0.65154 0.466476
v 0 0.06050111 -0.337352
vn 0 -0.197916 -0.980219
v 0 0.02509011 -0.293574
vn 0 -0.9946009 -0.103774
v 0.0408509 0.114841 -0.223195
vn 0.5982436 0.7814915 0.1771319
v 0 0.0907314 -0.187631
vn 0 0.197916 0.980219
v 0.057772 0.06760721 -0.302159
vn 0.931668 -0.07190501 -0.356124
v 0.0408509 0.05471231 -0.211054
vn 0.5982436 -0.6515405 0.4664757
vt -1.09925 0.639108
vt 1.09925 0.639108
vt 0 1.48989
vt 0 -0.546965
o merged_1_0_node
g polygon_0
usemtl mat_kuti_mat_id
f 61/36/39 62/36/40 63/36/41
f 61/36/39 64/36/42 62/36/40
f 61/36/39 63/36/41 65/36/43
f 61/36/39 66/36/44 64/36/42
f 61/36/39 65/36/43 67/36/45
f 61/36/39 68/36/46 66/36/44
f 61/36/39 67/36/45 68/36/46
f 62/36/40 69/36/47 63/36/41
f 62/36/40 64/36/42 70/36/48
f 62/36/40 71/36/49 69/36/47
f 62/36/40 70/36/48 71/36/49
f 63/36/41 69/36/47 65/36/43
f 66/36/44 68/36/46 72/36/50
f 66/36/44 73/36/51 64/36/42
f 66/36/44 74/36/52 73/36/51
f 67/36/45 65/36/43 75/36/53
f 67/36/45 76/36/54 68/36/46
f 67/36/45 75/36/53 77/36/55
f 67/36/45 77/36/55 76/36/54
f 68/36/46 76/36/54 72/36/50
f 70/36/48 78/36/56 71/36/49
f 70/36/48 64/36/42 78/36/56
f 69/36/47 79/36/57 65/36/43
f 69/36/47 71/36/49 80/36/58
f 69/36/47 80/36/58 79/36/57
f 65/36/43 79/36/57 75/36/53
f 74/36/52 81/36/59 73/36/51
f 77/36/55 82/36/60 76/36/54
f 77/36/55 75/36/53 83/36/61
f 77/36/55 84/36/62 82/36/60
f 77/36/55 83/36/61 84/36/62
f 64/36/42 85/36/63 78/36/56
f 64/36/42 73/36/51 85/36/63
f 73/36/51 81/36/59 85/36/63
f 71/36/49 86/36/64 80/36/58
f 71/36/49 78/36/56 86/36/64
f 79/36/57 87/36/65 75/36/53
f 79/36/57 80/36/58 88/36/66
f 79/36/57 88/36/66 87/36/65
f 75/36/53 87/36/65 83/36/61
f 82/36/60 84/36/62 89/36/67
f 82/36/60 89/36/67 90/36/68
f 81/36/59 91/36/69 85/36/63
f 81/36/59 92/36/70 91/36/69
f 90/36/68 89/36/67 92/36/70
f 78/36/56 93/36/71 86/36/64
f 78/36/56 85/36/63 93/36/71
f 85/36/63 91/36/69 93/36/71
f 80/36/58 94/36/72 88/36/66
f 80/36/58 86/36/64 94/36/72
f 87/36/65 95/36/73 83/36/61
f 87/36/65 88/36/66 95/36/73
f 84/36/62 96/36/74 89/36/67
f 84/36/62 83/36/61 97/36/75
f 84/36/62 97/36/75 96/36/74
f 83/36/61 95/36/73 97/36/75
f 92/36/70 98/36/76 91/36/69
f 92/36/70 89/36/67 98/36/76
f 89/36/67 96/36/74 98/36/76
f 93/36/71 99/36/77 86/36/64
f 93/36/71 91/36/69 100/36/78
f 93/36/71 100/36/78 99/36/77
f 91/36/69 98/36/76 100/36/78
f 86/36/64 99/36/77 94/36/72
f 88/36/66 101/36/79 95/36/73
f 88/36/66 94/36/72 101/36/79
f 97/36/75 102/36/80 96/36/74
f 97/36/75 95/36/73 102/36/80
f 95/36/73 101/36/79 102/36/80
f 98/36/76 103/36/81 100/36/78
f 98/36/76 96/36/74 103/36/81
f 96/36/74 102/36/80 103/36/81
f 99/36/77 104/36/82 94/36/72
f 99/36/77 100/36/78 104/36/82
f 104/36/82 102/36/80 101/36/79
f 104/36/82 103/36/81 102/36/80
f 104/36/82 101/36/79 94/36/72
f 104/36/82 100/36/78 103/36/81
f 105/36/83 106/36/84 107/36/85
f 105/36/83 108/36/86 106/36/84
f 105/36/83 107/36/85 109/36/87
f 105/36/83 110/36/88 108/36/86
f 105/36/83 109/36/87 110/36/88
f 106/36/84 111/36/89 107/36/85
f 106/36/84 108/36/86 112/36/90
f 106/36/84 112/36/90 111/36/89
f 109/36/87 113/36/91 110/36/88
f 109/36/87 107/36/85 113/36/91
f 107/36/85 111/36/89 113/36/91
f 108/36/86 114/36/92 112/36/90
f 108/36/86 110/36/88 114/36/92
f 114/36/92 113/36/91 111/36/89
f 114/36/92 111/36/89 112/36/90
f 114/36/92 110/36/88 113/36/91
f 74/37/52 72/38/50 90/39/68
f 74/37/52 66/40/44 72/38/50
vt 1.05978 0.778334
vt 0.23442 0.778334
vt 1.02311 0.964983
vt -0.216902 0.952989
v 0.00108591 0.462855 -0.0594798
vt 0.0477848 0.76519
vn -0.009827547 0.8430478 0.5377489
v -0.0221337 0.438357 -0.0214973
v 0.0229022 0.438357 -0.0206743
vn 0.009827547 -0.8430478 -0.5377489
v 0.0438227 0.462855 0.0400823
vn -0.396597 0.8430479 -0.363292
v 0.0307193 0.438357 -0.00246314
v 0.000293928 0.438357 0.0307514
vn 0.3965968 -0.8430476 0.3632928
v -0.0381999 0.462855 0.0454658
vn 0.34571 0.843048 -0.412013
v 0.00373584 0.438357 0.0305255
v -0.0307698 0.438357 0.00157265
vn -0.3457099 -0.8430476 0.4120138
o merged_2_0_node
g polygon_0
usemtl TEX_ANIM_EYE_mat_id
f 81/41/59 74/42/52 92/43/70
f 92/43/70 74/42/52 90/44/68
f 76/41/54 82/43/60 72/42/50
f 72/42/50 82/43/60 90/44/68
f 115/45/93 116/45/93 117/45/93
f 115/45/94 117/45/94 116/45/94
f 118/45/95 119/45/95 120/45/95
f 118/45/96 120/45/96 119/45/96
f 121/45/97 122/45/97 123/45/97
f 121/45/98 123/45/98 122/45/98
