mtllib Serperior.mtl
v -0.00260384 0.245463 -0.626462
vt 0.426951 0.243442
vn 0.0254176 -0.8980771 0.439103
v 0.00038652 0.305736 -0.607037
vt 0.432685 0.252238
vn 0.9342098 -0.150573 0.323388
vn -0.979063 -0.016805 0.202863
v 0.00428807 0.284948 -0.627987
vt 0.429285 0.249818
vn 0.982215 0.0584858 0.178418
v -0.00358978 0.284786 -0.627963
vt 0.429285 0.248312
vn -0.9857789 0.130808 0.105495
v 0.00456932 0.270959 -0.656567
vt 0.424616 0.249818
vn 0.9851385 -0.09823046 -0.1408999
v -0.00330853 0.270797 -0.656543
vt 0.424616 0.248312
vn -0.9831216 -0.009621286 -0.1826999
v 0.00107737 0.267148 -0.685876
vt 0.421216 0.252238
vn 0.9370105 -0.3428038 -0.06705976
vn -0.9767348 -0.174755 -0.124298
v -1.34996E-06 0.327359 -0.666489
vt 0.426951 0.258351
vn -0.9980142 0.05214021 -0.03534111
vn 0.9967351 0.07596071 -0.0273707
v -0.00285803 0.302442 -0.513869
v 0.000424252 0.368599 -0.492547
v 0.00470666 0.345781 -0.515542
v -0.00394021 0.345604 -0.515516
v 0.00501537 0.330427 -0.546913
v -0.0036315 0.33025 -0.546886
v 0.00118254 0.326244 -0.579083
v -1.48175E-06 0.392333 -0.557803
v -0.00321068 0.318982 -0.409245
vn 0.02540611 -0.9906173 -0.1342831
v 0.0004766 0.367442 -0.348018
vn 0.9342101 -0.304943 0.185098
vn -0.9790631 -0.126748 0.159281
v 0.00528742 0.360497 -0.383741
vn 0.982215 -0.0505747 0.18082
v -0.00442639 0.360315 -0.383827
vn -0.9857791 0.05008131 0.16041
v 0.00563421 0.365751 -0.422624
vn 0.9851387 -0.003319609 -0.1717289
v -0.00407959 0.365569 -0.42271
vn -0.9831218 0.09357228 -0.157213
v 0.00132845 0.381936 -0.455276
vn 0.9370099 -0.247666 -0.246321
vn -0.9767344 -0.07615886 -0.2004739
v -1.66458E-06 0.430359 -0.39413
vn -0.9980143 0.06298742 -0.0003896191
vn 0.9967351 0.07835681 0.0194783
v 0 0.8172261 0.58937
vt 0.0818975 0.113546
vn 6.364407E-05 0.8005337 0.5992877
v 0 0.848248 0.487903
vt 0.0818975 0.128943
vn 0.000298751 0.9998839 0.0152323
v -0.144727 0.82882 0.484835
vt 0.0599361 0.129408
vn -0.243995 0.9696322 -0.0167259
v 0.144727 0.828732 0.484821
vt 0.103859 0.129411
vn 0.2438629 0.9696667 -0.01665709
v -0.143317 0.792192 0.562252
vt 0.0601501 0.117661
vn -0.4080498 0.7058347 0.5790448
v 0.143317 0.7922001 0.562238
vt 0.103645 0.117663
vn 0.407994 0.706089 0.578774
v -0.147733 0.72194 0.619562
vt 0.0594799 0.108964
vn -0.6740103 0.4316332 0.5995023
v 0.147733 0.72194 0.619562
vt 0.104315 0.108964
vn 0.6740038 0.4316439 0.5995018
v 0 0.658139 0.752854
vt 0.0818975 0.0874715
vn 0 0.6791918 0.7339608
v 0 0.820953 0.315814
vt 0.0818975 0.157204
vn -1.076809E-05 0.8791985 0.4764557
v -0.202109 0.796661 0.474143
vt 0.0512287 0.131031
vn -0.9471878 0.2383559 0.214527
v 0.202109 0.796661 0.474143
vt 0.112566 0.131031
vn 0.9471803 0.2384051 0.2145051
v -0.212286 0.781734 0.355496
vt 0.0496845 0.149035
vn -0.8430519 0.5040349 -0.18765
v 0.212286 0.78176 0.355451
vt 0.114111 0.149042
vn 0.8359477 0.5276638 -0.1508719
v -0.197836 0.755671 0.302716
vt 0.0592343 0.157529
vn -0.9290533 0.06856772 -0.3635361
v 0.197836 0.755623 0.302777
vt 0.104561 0.15752
vn 0.9253398 0.101103 -0.3654099
v 0 0.725899 0.155747
vt 0.0818975 0.174857
vn 0.000128193 0.0823924 -0.9966
v -0.204025 0.621766 0.270729
vt 0.050938 0.161898
vn -0.7378989 0.0313237 -0.674184
v -0.213902 1.19383 0.157093
vt 0.0753559 0.165596
vn -0.6929828 0.4924729 -0.5265409
v 0.220923 0.621766 0.270729
vt 0.115421 0.161898
vn 0.7497271 0.03203771 -0.6609711
v 0.213902 1.19378 0.157154
vt 0.0884391 0.165587
vn 0.6932062 0.4921731 -0.5265271
v 0 0.6380011 0.157495
vt 0.0818975 0.17908
vn -3.568511E-05 0.07122611 -0.9974602
v 0 0.5542791 0.163287
vt 0.0818975 0.178202
vn 0 -0.2657659 -0.9640376
v -0.192227 0.5185241 0.2674
vt 0.0527283 0.162403
vn -0.617644 -0.4199669 -0.6649389
v 0 0.454763 0.25544
vt 0.0818975 0.164218
vn 0 -0.859551 -0.51105
v 0.192227 0.5185241 0.2674
vt 0.111067 0.162403
vn 0.59556 -0.4380209 -0.673384
v 0 0.207901 -0.748466
vt 0.493982 0.255908
vn 0 -0.04821141 -0.9988372
v -0.0398915 0.331401 -0.455381
vt 0.484375 0.320313
vn -0.44843 0.891012 -0.0707683
v 0.0398915 0.331401 -0.455381
vn 0.44843 0.891012 -0.0707684
v -0.0797831 0.262472 -0.460155
vt 0.481944 0.284791
vn -0.9729273 0.1278659 -0.1925169
v 0.0797831 0.262472 -0.460155
vn 0.9729275 0.1278649 -0.1925169
v -0.0398915 0.193542 -0.464929
vt 0.505365 0.179837
vn -0.5339281 -0.7760752 -0.3356011
v 0.0398915 0.193542 -0.464929
vn 0.533927 -0.776076 -0.335601
v 0.0577263 0.295712 -0.240263
vt 0.457393 0.320453
vn 0.4913821 0.8531482 0.1751621
v -0.0577263 0.295712 -0.240263
vn -0.4913821 0.8531482 0.1751621
v -0.0577263 0.107377 -0.307478
vt 0.51182 0.0612701
vn -0.4877309 -0.7589447 -0.4314179
v 0.115453 0.201544 -0.273871
vt 0.484606 0.212353
vn 0.990614 0.0439497 -0.129431
v 0.0577263 0.107377 -0.307478
vn 0.4877309 -0.7589447 -0.4314179
v -0.115453 0.201544 -0.273871
vn -0.990614 0.0439502 -0.129431
v 0 0.26636 0.390931
vt 0.00477739 0.383
vn 0 0.187588 0.9822478
v 0.0874199 0.406757 0.288609
vt 0.121159 0.584495
vn 0.3832169 0.6052189 0.6977499
v 0 0.384252 0.375647
vt 0.00477739 0.551927
vn 0 0.2469249 0.9690346
v 0.0606606 0.182358 0.36436
vt 0.0916975 0.262634
vn 0.6026099 -0.4052139 0.6875049
v -0.0874199 0.406757 0.288609
vn -0.3832169 0.6052189 0.6977499
v 0 0.182358 0.378424
vt 0.00477739 0.262634
vn 0 -0.6134441 0.7897381
v -0.0606606 0.182358 0.36436
vn -0.6026099 -0.4052139 0.6875049
v 0.104371 0.32017 0.278983
vt 0.145513 0.455697
vn 0.9434785 -0.2506939 0.2167969
v -0.104371 0.32017 0.278983
vn -0.9434785 -0.2506939 0.2167969
v 0 0.00366843 0.211079
vt 0.00477739 0.00659204
vn 0 -0.8683049 0.4960309
v 0.0718307 0.00366842 0.197014
vt 0.107703 0.00659204
vn 0.6863362 -0.6695502 0.2839811
v -0.0718308 0.00366844 0.197014
vn -0.6863362 -0.6695502 0.2839811
v 0.116178 0.289861 0.294114
vn -0.2646549 0.5162988 0.8144897
v 0.106004 0.313125 0.195917
vn -0.4060662 0.9082004 0.101402
v 0.121199 0.275623 0.238708
vn -0.8878394 -0.4350547 -0.1498949
v 0.132543 0.282294 0.238459
vn 0.767851 0.631384 -0.108439
v 0.141256 0.243131 0.263019
vn -0.7598788 -0.6483788 0.04678809
v 0.1526 0.249803 0.26277
vn 0.9108487 0.3997439 0.102759
v 0.177103 0.196954 0.28265
vn 0.2367989 -0.1332069 0.9623836
v 0.161084 0.216749 0.184669
vn 0.2589061 -0.4908901 -0.8318621
v -0.116194 0.289861 0.294114
vn 0.2646559 0.5162979 0.8144898
v -0.121214 0.275623 0.238708
vn 0.8878393 -0.4350551 -0.149895
v -0.106019 0.313125 0.195917
vn 0.4060698 0.9081986 0.101403
v -0.141271 0.243131 0.263019
vn 0.7598788 -0.6483788 0.04678749
v -0.132558 0.282295 0.238459
vn -0.7678505 0.6313847 -0.1084389
v -0.177118 0.196954 0.28265
vn -0.236802 -0.133207 0.9623829
v -0.152615 0.249803 0.26277
vn -0.9108487 0.3997439 0.102759
v -0.1611 0.216749 0.184669
vn -0.2589059 -0.4908839 -0.8318658
v 0 0.552834 0.840894
vt 0.130739 0.804117
v -0.0674669 0.514132 0.825573
vt 0.247915 0.743084
vn -0.8016507 0.13727 0.5818188
v 0 0.485996 0.936989
vt 0.142892 0.722611
vn 0.0005443189 -0.138817 0.9903179
v -0.116008 0.62344 0.723421
vt 0.396842 0.912485
vn -0.727939 0.326662 0.602824
v 0.0674669 0.514132 0.825573
vn 0.8017689 0.136488 0.5818399
vt 0.361129 0.967284
v 0.116008 0.62344 0.723421
vn 0.727939 0.326662 0.602824
v -0.165472 0.567777 0.614518
vt 0.576499 0.826602
vn -0.9410529 -0.009960409 0.338113
v 0.165472 0.567777 0.614518
vn 0.9410522 -0.009913692 0.338116
v 0.121321 0.233584 0.269357
vt 0.475024 0.181562
vn 0.9536287 -0.121311 0.275456
vt 0.514919 0.00202579
v 0.143661 0.123867 0.1649
vt 0.499435 0.181192
vn 0.9833974 -0.136725 0.119314
vt 0.488089 0.180499
v 0.0662457 0.25375 0.156522
vt 0.472549 0.322651
vn 0.5996367 0.7478448 -0.2848929
v 0.0715392 0.402394 0.186033
vt 0.437266 0.354177
vn 0.09972896 -0.4228408 -0.9006996
vt 0.515743 0.0171148
v 0 0.424122 0.203612
vt 0.388197 0.345914
vn 0 0.9749703 -0.2223351
v -0.0662457 0.25375 0.156522
vn -0.5996367 0.7478448 -0.2848929
v -0.0715392 0.402394 0.186033
vn -0.09972906 -0.4228408 -0.9006996
v -0.121321 0.233584 0.269357
vt 0.475024 0.177918
vn -0.953629 -0.121311 0.275455
v -0.143662 0.123867 0.1649
vn -0.9833974 -0.136725 0.119314
vt 0.488089 0.176855
v -0.139226 0.118491 -0.0731022
vt 0.484606 0.175939
vn -0.9940697 -0.08509067 -0.06771258
v -0.069613 0.236982 -0.0507893
vt 0.4788 0.348224
vn -0.5562549 0.8283308 0.06669749
vt 0.194332 0.212342
vt 0.210131 0.0686108
v -0.0696131 0 -0.0954151
vt 0.52905 -0.00636324
vn -0.5434211 -0.810267 -0.219456
vt 0.194332 0.182495
vt 0.51182 0.0314238
vt 0.210676 0.336356
v 0.0696131 0.236982 -0.0507893
vn 0.5562561 0.82833 0.06669741
vt 0.20455 0.340905
vt 0.155165 0.035898
vt 0.138011 0.035898
v 0.069613 0 -0.0954151
vn 0.5434211 -0.810267 -0.219456
v 0.139226 0.118491 -0.0731022
vn 0.9940697 -0.08509117 -0.06771258
vt 0.877279 0.555147
v 0 0.427487 0.40529
vt 0.703112 0.523446
vn 0 -0.9969745 -0.07772946
v -0.13346 0.454382 0.39846
vt 0.71105 0.554704
vn -0.3316441 -0.9379132 -0.101642
v 0.13346 0.454382 0.39846
vn 0.3316449 -0.9379128 -0.101643
vt 0.863378 0.629256
v -0.179335 0.491135 0.394237
vt 0.715959 0.597422
vn -0.862807 -0.505533 -0.000798678
v 0.179335 0.491135 0.394237
vn 0.8628076 -0.5055318 -0.0008026226
v 0.215891 0.598703 0.42532
vt 0.679831 0.722446
vn 0.9910112 -0.07492901 0.110826
vt 0.859509 0.749252
v -0.215891 0.598703 0.42532
vn -0.9929909 -0.07805 0.08875519
vt 0.761039 0.923554
vt 0.828465 0.870963
vt 0.760986 0.923524
vt 0.623085 0.940873
v 0 0.421959 0.659071
vt 0.731442 0.007222
vn -0.0002267559 -0.9955947 0.09376078
vt 0.633144 0.387262
vt 0.731442 0.382232
v -0.169279 0.480343 0.584615
vt 0.606762 0.0620617
vn -0.6967651 -0.6940491 0.181147
vt 0.82974 0.387262
v 0.169279 0.480341 0.584643
vt 0.856122 0.0620417
vn 0.6968577 -0.6939577 0.1811409
vt 0.599355 0.390373
vt 0.57243 0.367479
vt 0.609566 0.0400372
vt 0.863529 0.390373
vt 0.890454 0.367479
vt 0.853318 0.0400372
vt 0.0470371 0.557065
v 0 0.444754 0.79151
vt 0.0470371 0.558335
vn -0.0002702049 -0.9766107 0.2150149
v -0.0617217 0.468562 0.805715
vt 0.0346776 0.562716
vn -0.5877057 -0.7563915 0.2871828
v 0.0617217 0.468475 0.805477
vt 0.0593966 0.562705
vn 0.5876027 -0.7564977 0.2871139
vt 0.0131397 0.570501
vt 0.0809346 0.5705
vt 0.0335272 0.576177
vt 0.0605471 0.576177
vt 0.0801721 0.592034
vt 0.0139022 0.592034
vt 0.303253 0.281469
vt 0.320457 0.281447
vt 0.311855 0.298274
vt 0.303253 0.315101
vt 0.294652 0.298296
vt 0.28605 0.281492
v -0.368099 0.595804 0.0699461
vt 0.0653001 0.452167
vn -0.5054852 0.8581553 0.08974593
vt 0.077621 0.437426
vt 0.0751188 0.43116
vt 0.0830732 0.439082
vt 0.0764107 0.437759
v 0.368099 0.595804 0.0699462
vt 0.100846 0.452167
vn 0.5054796 0.8581584 0.08974663
vt 0.0885255 0.437426
vt 0.0910277 0.43116
vt 0.0897358 0.437759
vt 0.11644 0.0925906
vt 0.0657879 0.0825291
v 0 0.519498 0.316781
vt 0.11644 0.103623
vn 0 0.9708828 0.239555
vt 0.167093 0.082529
vt 0.052905 0.578052
vt 0.052905 0.607893
vt 0.00862223 0.589452
vt 0.0971878 0.589452
vt 0.478749 0.590378
vt 0.59577 0.444061
vt 0.651779 0.41526
vt 0.651653 0.415402
vt 0.304187 0.262693
vt 0.285148 0.273606
vt 0.29705 0.255754
vt 0.311324 0.255754
vt 0.323225 0.273606
vt 0.0744798 0.0172768
vt 0.126679 0.0640985
vt 0.126385 0.033308
vt 0.754872 0.0374014
vt 0.992302 0.00293963
vt 0.99442 0.108589
vt 0.991719 0.00315351
vt 0.884733 0.555358
vt 0.88339 0.558015
vt 0.878831 0.534727
o merged_0_0_node
g polygon_0
usemtl mat_body1_mat_id
f 1/1/1 2/2/2 2/2/3
f 1/1/1 3/3/4 2/2/2
f 1/1/1 2/2/3 4/4/5
f 1/1/1 5/5/6 3/3/4
f 1/1/1 4/4/5 6/6/7
f 1/1/1 7/7/8 5/5/6
f 1/1/1 6/6/7 7/7/9
f 1/1/1 7/7/9 7/7/8
f 7/7/9 5/5/6 7/7/8
f 7/7/9 6/6/7 5/5/6
f 2/2/3 2/2/2 3/3/4
f 2/2/3 3/3/4 4/4/5
f 6/6/7 8/8/10 5/5/6
f 6/6/7 4/4/5 8/8/10
f 4/4/5 3/3/4 8/8/10
f 5/5/6 8/8/11 3/3/4
f 5/5/6 8/8/10 8/8/11
f 8/8/11 8/8/10 3/3/4
f 9/1/1 10/2/2 10/2/3
f 9/1/1 11/3/4 10/2/2
f 9/1/1 10/2/3 12/4/5
f 9/1/1 13/5/6 11/3/4
f 9/1/1 12/4/5 14/6/7
f 9/1/1 15/7/8 13/5/6
f 9/1/1 14/6/7 15/7/9
f 9/1/1 15/7/9 15/7/8
f 15/7/9 13/5/6 15/7/8
f 15/7/9 14/6/7 13/5/6
f 10/2/3 10/2/2 11/3/4
f 10/2/3 11/3/4 12/4/5
f 14/6/7 16/8/10 13/5/6
f 14/6/7 12/4/5 16/8/10
f 12/4/5 11/3/4 16/8/10
f 13/5/6 16/8/11 11/3/4
f 13/5/6 16/8/10 16/8/11
f 16/8/11 16/8/10 11/3/4
f 17/1/12 18/2/13 18/2/14
f 17/1/12 19/3/15 18/2/13
f 17/1/12 18/2/14 20/4/16
f 17/1/12 21/5/17 19/3/15
f 17/1/12 20/4/16 22/6/18
f 17/1/12 23/7/19 21/5/17
f 17/1/12 22/6/18 23/7/20
f 17/1/12 23/7/20 23/7/19
f 23/7/20 21/5/17 23/7/19
f 23/7/20 22/6/18 21/5/17
f 18/2/14 18/2/13 19/3/15
f 18/2/14 19/3/15 20/4/16
f 22/6/18 24/8/21 21/5/17
f 22/6/18 20/4/16 24/8/21
f 20/4/16 19/3/15 24/8/21
f 21/5/17 24/8/22 19/3/15
f 21/5/17 24/8/21 24/8/22
f 24/8/22 24/8/21 19/3/15
f 25/9/23 26/10/24 27/11/25
f 25/9/23 28/12/26 26/10/24
f 25/9/23 27/11/25 29/13/27
f 25/9/23 30/14/28 28/12/26
f 25/9/23 29/13/27 31/15/29
f 25/9/23 32/16/30 30/14/28
f 25/9/23 31/15/29 33/17/31
f 25/9/23 33/17/31 32/16/30
f 26/10/24 34/18/32 27/11/25
f 26/10/24 28/12/26 34/18/32
f 29/13/27 35/19/33 31/15/29
f 29/13/27 27/11/25 35/19/33
f 30/14/28 32/16/30 36/20/34
f 30/14/28 36/20/34 28/12/26
f 34/18/32 37/21/35 27/11/25
f 34/18/32 28/12/26 38/22/36
f 34/18/32 39/23/37 37/21/35
f 34/18/32 38/22/36 40/24/38
f 38/22/36 28/12/26 36/20/34
f 37/21/35 35/19/33 27/11/25
f 39/23/37 41/25/39 42/26/40
f 39/23/37 43/27/41 41/25/39
f 40/24/38 44/28/42 41/25/39
f 40/24/38 41/25/39 45/29/43
f 42/26/40 41/25/39 46/30/44
f 42/26/40 46/30/44 47/31/45
f 42/26/40 47/31/45 48/32/46
f 41/25/39 44/28/42 46/30/44
f 47/31/45 49/33/47 48/32/46
f 47/31/45 46/30/44 50/34/48
f 47/31/45 50/34/48 49/33/47
f 50/34/48 46/30/44 44/28/42
f 51/35/49 52/36/50 53/36/51
f 51/35/49 54/37/52 52/36/50
f 51/35/49 53/36/51 55/37/53
f 51/35/49 56/38/54 54/37/52
f 51/35/49 55/37/53 57/38/55
f 51/35/49 57/38/55 56/38/54
f 52/36/50 58/39/56 53/36/51
f 52/36/50 54/37/52 59/39/57
f 52/36/50 59/39/57 58/39/56
f 53/36/51 58/39/56 55/37/53
f 57/38/55 60/40/58 56/38/54
f 57/38/55 55/37/53 61/41/59
f 57/38/55 62/40/60 60/40/58
f 57/38/55 61/41/59 62/40/60
f 61/41/59 55/37/53 58/39/56
f 54/37/52 63/41/61 59/39/57
f 54/37/52 56/38/54 63/41/61
f 63/41/61 56/38/54 60/40/58
f 64/42/62 65/43/63 66/44/64
f 64/42/62 67/45/65 65/43/63
f 64/42/62 66/44/64 68/43/66
f 64/42/62 69/46/67 67/45/65
f 64/42/62 68/43/66 70/45/68
f 64/42/62 70/45/68 69/46/67
f 65/43/63 67/45/65 71/47/69
f 68/43/66 72/47/70 70/45/68
f 69/46/67 73/48/71 67/45/65
f 69/46/67 70/45/68 73/48/71
f 67/45/65 73/48/71 74/49/72
f 70/45/68 75/49/73 73/48/71
f 76/1/74 77/2/75 78/4/76
f 76/1/74 79/3/77 77/2/75
f 76/1/74 78/4/76 80/6/78
f 76/1/74 81/5/79 79/3/77
f 76/1/74 80/6/78 82/7/80
f 76/1/74 82/7/80 81/5/79
f 82/7/80 80/6/78 81/5/79
f 77/2/75 79/3/77 78/4/76
f 80/6/78 83/8/81 81/5/79
f 80/6/78 78/4/76 83/8/81
f 83/8/81 78/4/76 79/3/77
f 83/8/81 79/3/77 81/5/79
f 84/1/82 85/4/83 86/2/84
f 84/1/82 87/6/85 85/4/83
f 84/1/82 86/2/84 88/3/86
f 84/1/82 89/7/87 87/6/85
f 84/1/82 88/3/86 90/5/88
f 84/1/82 90/5/88 89/7/87
f 89/7/87 90/5/88 87/6/85
f 86/2/84 85/4/83 88/3/86
f 90/5/88 91/8/89 87/6/85
f 90/5/88 88/3/86 91/8/89
f 91/8/89 88/3/86 85/4/83
f 91/8/89 85/4/83 87/6/85
f 92/50/31 93/51/90 94/52/91
f 92/50/31 95/53/92 93/51/90
f 92/50/31 94/52/91 96/51/93
f 92/50/31 33/54/31 95/53/92
f 92/50/31 96/51/93 97/53/94
f 92/50/31 97/53/94 33/54/31
f 93/51/90 95/53/92 98/55/95
f 96/51/93 99/55/96 97/53/94
f 100/56/97 67/57/65 101/58/98
f 100/56/97 71/59/69 67/57/65
f 100/56/97 101/58/98 102/60/99
f 100/56/97 103/61/100 71/59/69
f 100/56/97 102/60/99 103/61/100
f 67/57/65 74/62/72 101/58/98
f 102/60/99 104/63/101 103/61/100
f 102/60/99 105/60/102 104/63/101
f 105/60/102 106/61/103 104/63/101
f 105/60/102 107/64/104 106/61/103
f 105/60/102 108/58/105 107/64/104
f 106/61/103 107/64/104 72/65/70
f 108/58/105 70/57/68 107/64/104
f 108/58/105 75/62/73 70/57/68
f 109/66/106 110/67/107 63/68/61
f 109/66/106 63/68/61 60/69/58
f 109/66/106 60/69/58 111/70/108
f 109/66/106 108/71/105 110/39/107
f 109/66/106 111/72/108 108/71/105
f 110/67/107 59/73/57 63/68/61
f 110/67/107 112/67/109 59/73/57
f 60/69/58 62/69/60 111/70/108
f 110/39/107 108/71/105 105/74/102
f 110/39/107 105/74/102 112/39/109
f 111/72/108 75/75/73 108/71/105
f 111/72/108 73/76/71 75/75/73
f 111/72/108 113/72/110 73/76/71
f 112/67/109 58/73/56 59/73/57
f 112/67/109 61/68/59 58/73/56
f 112/67/109 114/66/111 61/68/59
f 61/68/59 114/66/111 62/69/60
f 111/70/108 62/69/60 113/70/110
f 113/70/110 62/69/60 114/66/111
f 105/74/102 102/74/99 112/39/109
f 113/72/110 74/75/72 73/76/71
f 113/72/110 114/66/111 101/71/98
f 113/72/110 101/71/98 74/75/72
f 101/71/98 112/39/109 102/74/99
f 101/71/98 114/66/111 112/39/109
f 49/77/47 115/78/112 116/79/113
f 49/77/47 117/79/114 115/78/112
f 49/77/47 116/79/113 48/80/46
f 49/77/47 50/80/48 117/79/114
f 116/79/113 118/81/115 48/80/46
f 50/80/48 119/81/116 117/79/114
f 50/80/48 120/82/117 119/81/116
f 50/80/48 44/83/42 120/82/117
f 118/81/115 121/82/118 48/80/46
f 44/83/42 38/84/36 120/82/117
f 44/83/42 40/85/38 38/84/36
f 121/82/118 42/83/40 48/80/46
f 121/82/118 37/86/35 42/83/40
f 121/82/118 35/87/33 37/86/35
f 120/82/117 38/84/36 36/87/34
f 42/83/40 37/86/35 39/85/37
f 122/88/119 116/89/113 115/90/112
f 122/88/119 123/91/120 116/89/113
f 122/88/119 115/90/112 117/92/114
f 122/88/119 117/92/114 124/93/121
f 123/91/120 118/94/115 116/89/113
f 123/91/120 121/95/118 118/94/115
f 123/91/120 98/96/95 121/95/118
f 117/92/114 119/97/116 124/93/121
f 119/97/116 120/98/117 124/93/121
f 120/98/117 99/99/96 124/93/121
f 122/100/119 125/101/122 126/102/123
f 122/100/119 127/103/124 125/101/122
f 122/100/119 126/102/123 123/104/120
f 122/100/119 124/105/121 127/103/124
f 126/102/123 93/106/90 123/104/120
f 124/105/121 96/107/93 127/103/124
f 124/105/121 99/108/96 96/107/93
f 93/106/90 98/109/95 123/104/120
f 34/110/32 40/111/38 45/112/43
f 34/110/32 45/112/43 41/113/39
f 34/110/32 41/113/39 43/114/41
f 34/110/32 43/114/41 39/115/37
f 128/116/125 106/117/103 72/118/70
f 128/116/125 104/119/101 106/117/103
f 128/116/125 72/118/70 68/120/66
f 104/119/101 129/121/126 103/122/100
f 129/121/126 71/123/69 103/122/100
f 129/121/126 65/124/63 71/123/69
f 104/125/101 68/126/66 130/127/127
f 104/125/101 130/127/127 65/128/63
f 66/129/64 130/130/127 68/131/66
f 66/129/64 65/132/63 130/130/127
f 94/133/91 125/134/122 127/135/124
f 94/133/91 126/136/123 125/134/122
f 104/137/101 128/138/125 68/139/66
f 104/137/101 65/140/63 129/141/126
f 33/142/31 31/143/29 95/144/92
f 33/142/31 97/144/94 32/143/30
f 94/145/91 127/146/124 96/147/93
f 94/145/91 93/147/90 126/148/123
f 70/149/68 72/150/70 107/151/104
vt 0.249038 0.828036
vt 1.01663 0.987119
vt 0.936515 0.807196
vt 0.427357 0.97032
vt 0.0126339 0.902667
o merged_1_0_node
g polygon_0
usemtl TEX_ANIM_EYE_mat_id
f 98/152/95 35/153/33 121/154/118
f 99/152/96 120/154/117 36/153/34
f 99/152/96 32/155/30 97/156/94
f 99/152/96 36/153/34 32/155/30
f 98/152/95 95/156/92 31/155/29
f 98/152/95 31/155/29 35/153/33
