mtllib Omastar.mtl
v 0 0.356176 0.324818
vt -0.161453 0.464079
vn 1.85233E-06 -0.235257 0.9719332
v 0.0844658 0.350726 0.264919
vt -0.0436402 0.452216
vn 0.399821 -0.4952979 0.7712479
v 0.130386 0.42036 0.283779
vt 0.0294791 0.485532
vn 0.2623959 0.6132687 0.7450167
v 0.0326715 0.328182 0.274266
vt -0.100247 0.478953
vn 0.6042882 -0.4641742 0.6475942
v 0 0.415491 0.320966
vt -0.0531213 0.525745
vn 0.000172877 0.574089 0.8187929
v 0.0190613 0.290563 0.290181
vt -0.128762 0.41155
vn 0.4172931 -0.3264851 0.8481002
v -0.130386 0.42036 0.283779
vn -0.263567 0.6121539 0.7455199
v -0.0190613 0.290563 0.290181
vn -0.417289 -0.326488 0.8481011
v -0.0844659 0.350726 0.264919
vn -0.399821 -0.495293 0.771251
v -0.0326715 0.328182 0.274266
vn -0.6042851 -0.4641741 0.6475971
v 0.136994 0.346865 0.258729
vt -0.0136694 0.430613
vn 0.100544 -0.7613041 0.640552
v -0.000499598 0.435052 0.25993
vt 0.0562391 0.560794
vn -3.662659E-05 0.8118278 0.5838969
v -0.136994 0.346865 0.258729
vn -0.100545 -0.761304 0.640552
v 0.202132 0.383315 0.24904
vt 0.0435499 0.529486
vn 0.8892194 0.1678351 0.4255822
v 0.221816 0.271959 0.133534
vt 0.151906 0.378217
vn 0.3437431 -0.5185801 0.7828891
v 0 0.28204 0.12309
vt 0.170621 0.396278
vn 0 -0.5851309 0.8109389
v -0.158429 0.529655 0.137953
vt 0.143989 0.839939
vn -0.5783691 0.6992241 0.4202081
v 0.158429 0.529655 0.137953
vn 0.5776891 0.6995211 0.4206491
v 0 0.612781 0.05490512
vt 0.292789 0.988877
vn 4.364171E-05 0.9097502 0.4151561
v -0.221816 0.271959 0.133534
vn -0.3437431 -0.5185801 0.7828891
v -0.202132 0.383315 0.24904
vn -0.8892194 0.1678351 0.4255822
v 0.220861 0.335498 0.09835321
vt 0.214942 0.492061
vn 0.9928356 0.112223 -0.04103049
v 0.205408 0.13477 0.106395
vt 0.200532 0.13241
vn 0.4210399 -0.6005599 0.679745
v -0.131774 0.615497 -0.04779578
vt 0.476802 0.993744
vn -0.5590522 0.8290174 -0.01381111
v 0.131774 0.615497 -0.04779578
vn 0.5590522 0.8290174 -0.01381101
v 0 0.612781 -0.150497
vt 0.660814 0.988877
vn 0 0.9322376 -0.3618468
v -0.220861 0.335498 0.09835321
vn -0.9928356 0.112223 -0.04103049
v -0.205408 0.13477 0.106395
vn -0.4210399 -0.6005599 0.679745
v 0.195577 0.22163 -0.04779578
vt 0.476802 0.28804
vn 0.9806482 -0.128871 -0.147382
v 0.155423 0.06201892 -0.06263839
vt 0.503396 0.00206017
vn 0.3657679 -0.9301777 0.03135579
v 0.195577 0.466183 -0.04779578
vt 0.476802 0.726213
vn 0.973286 0.222198 -0.0578145
v -0.141891 0.529655 -0.233545
vt 0.809614 0.839939
vn -0.6464379 0.5474799 -0.5313979
v -0.195577 0.466183 -0.04779578
vn -0.973286 0.222198 -0.0578145
v -0.195577 0.22163 -0.04779578
vn -0.9806482 -0.128871 -0.147382
v -0.155423 0.06201892 -0.06263839
vn -0.4013239 -0.9148079 0.0454493
v 0.119855 0.108201 -0.137856
vt 0.638166 0.0848061
vn 0.7948706 -0.4468523 -0.4104923
v 0.0830201 0.07659041 -0.202203
vt 0.753458 0.0281683
vn 0.08422821 -0.958573 -0.272109
v 0.141891 0.529655 -0.233545
vn 0.6464379 0.5474799 -0.5313979
v -0.190326 0.343906 -0.225713
vt 0.795582 0.507127
vn -0.9382597 0 -0.3459319
v 0 0.495473 -0.293036
vt 0.916206 0.778693
vn 0 0.537181 -0.843467
v -0.0917074 0.343906 -0.336246
vt 0.993626 0.507127
vn -0.3751791 0 -0.9269524
v -0.119855 0.108201 -0.137856
vn -0.7948706 -0.4468523 -0.4104923
v -0.0830201 0.07659041 -0.202203
vn -0.1464769 -0.9074057 -0.3939028
v 0.141891 0.158157 -0.233545
vt 0.809614 0.174314
vn 0.6791491 -0.5026261 -0.5349051
v 0.190326 0.343906 -0.225713
vn 0.9382597 0 -0.3459319
v 0 0.113628 -0.187339
vt 0.726825 0.0945304
vn 0 -0.5986533 -0.8010083
v 0.0917074 0.343906 -0.336246
vn 0.3751791 0 -0.9269524
v -0.141891 0.158157 -0.233545
vn -0.6791491 -0.5026261 -0.5349051
v 0 0.192339 -0.293036
vt 0.916206 0.23556
vn 0 -0.5173212 -0.8557913
v 0 0.104376 0.01651951
vt 0.10794 0.0507613
vn 0 -0.7506309 0.6607219
vt 0.0053395 0.0867245
vt 0.21054 0.0867245
vt 0.00805974 0.00992852
vt 0.20782 0.00992852
vt 0.10794 0.0023441
vt 0.157998 0.164537
vt 0.0578815 0.164537
v 0 0.541987 -0.304574
vt 0.0626977 0.95363
vn 0 0.76006 -0.649853
v 0 0.504062 -0.210303
vn 0 0.9277389 0.37323
v 0.0407081 0.458242 -0.263893
vn 0.7677929 0.06352749 -0.6375409
v -0.0407081 0.458242 -0.263893
vn -0.7677929 0.06352749 -0.6375409
v 0 0.647935 -0.193418
vn 0 0.9271352 -0.3747271
v 0 0.5848 -0.119335
vn 0 0.7611081 0.6486251
v 0.0389946 0.559491 -0.181954
vn 0.7677934 0.2627741 -0.5843313
v -0.0389946 0.559491 -0.181954
vn -0.7677934 0.2627741 -0.5843313
v 0 0.6905 -0.01623299
vn 0 0.9897772 0.142622
v 0 0.574285 0.02459011
vn 0 0.3314189 0.9434837
v 0.0493466 0.586475 -0.06000698
vn 0.7677929 0.521086 -0.372778
v -0.0493466 0.586475 -0.06000698
vn -0.7677929 0.521086 -0.372778
v 0 0.649186 0.159009
vn 0 0.8720068 0.4894938
v 0 0.474254 0.153656
vn 0 -0.0305873 0.9995321
v 0.0701133 0.533698 0.04775961
vn 0.7677931 0.6203691 -0.160112
v -0.0701133 0.533698 0.04775961
vn -0.7677931 0.6203691 -0.160112
v 0 0.543065 0.285925
v 0 0.403641 0.281658
v 0.055882 0.451019 0.197256
v -0.055882 0.451019 0.197256
o merged_0_0_node
g polygon_0
usemtl mat_kara1_mat_id
f 1/1/1 2/2/2 3/3/3
f 1/1/1 4/4/4 2/2/2
f 1/1/1 3/3/3 5/5/5
f 1/1/1 6/6/6 4/4/4
f 1/1/1 5/5/5 7/3/7
f 1/1/1 8/6/8 6/6/6
f 1/1/1 7/3/7 9/2/9
f 1/1/1 10/4/10 8/6/8
f 1/1/1 9/2/9 10/4/10
f 2/2/2 11/7/11 3/3/3
f 5/5/5 12/8/12 7/3/7
f 5/5/5 3/3/3 12/8/12
f 9/2/9 7/3/7 13/7/13
f 11/7/11 14/9/14 3/3/3
f 11/7/11 15/10/15 14/9/14
f 11/7/11 16/11/16 15/10/15
f 12/8/12 17/12/17 7/3/7
f 12/8/12 3/3/3 18/12/18
f 12/8/12 19/13/19 17/12/17
f 12/8/12 18/12/18 19/13/19
f 3/3/3 14/9/14 18/12/18
f 13/7/13 20/10/20 16/11/16
f 13/7/13 7/3/7 21/9/21
f 13/7/13 21/9/21 20/10/20
f 7/3/7 17/12/17 21/9/21
f 15/10/15 22/14/22 14/9/14
f 15/10/15 16/11/16 23/15/23
f 15/10/15 23/15/23 22/14/22
f 14/9/14 22/14/22 18/12/18
f 19/13/19 24/16/24 17/12/17
f 19/13/19 18/12/18 25/16/25
f 19/13/19 26/17/26 24/16/24
f 19/13/19 25/16/25 26/17/26
f 20/10/20 21/9/21 27/14/27
f 20/10/20 28/15/28 16/11/16
f 20/10/20 27/14/27 28/15/28
f 21/9/21 17/12/17 27/14/27
f 23/15/23 29/18/29 22/14/22
f 23/15/23 30/19/30 29/18/29
f 18/12/18 31/20/31 25/16/25
f 18/12/18 22/14/22 31/20/31
f 22/14/22 29/18/29 31/20/31
f 24/16/24 26/17/26 32/21/32
f 24/16/24 33/20/33 17/12/17
f 24/16/24 32/21/32 33/20/33
f 17/12/17 33/20/33 27/14/27
f 28/15/28 27/14/27 34/18/34
f 28/15/28 34/18/34 35/19/35
f 27/14/27 33/20/33 34/18/34
f 30/19/30 36/22/36 29/18/29
f 30/19/30 37/23/37 36/22/36
f 25/16/25 31/20/31 38/21/38
f 25/16/25 38/21/38 26/17/26
f 32/21/32 39/24/39 33/20/33
f 32/21/32 26/17/26 40/25/40
f 32/21/32 41/26/41 39/24/39
f 32/21/32 40/25/40 41/26/41
f 26/17/26 38/21/38 40/25/40
f 33/20/33 39/24/39 34/18/34
f 35/19/35 34/18/34 42/22/42
f 35/19/35 42/22/42 43/23/43
f 29/18/29 36/22/36 44/27/44
f 29/18/29 45/24/45 31/20/31
f 29/18/29 44/27/44 45/24/45
f 31/20/31 45/24/45 38/21/38
f 37/23/37 43/23/43 46/28/46
f 37/23/37 46/28/46 36/22/36
f 36/22/36 46/28/46 44/27/44
f 43/23/43 42/22/42 46/28/46
f 41/26/41 40/25/40 47/26/47
f 41/26/41 48/27/48 39/24/39
f 41/26/41 47/26/47 49/29/49
f 41/26/41 49/29/49 48/27/48
f 48/27/48 42/22/42 34/18/34
f 48/27/48 46/28/46 42/22/42
f 48/27/48 34/18/34 39/24/39
f 48/27/48 49/29/49 46/28/46
f 47/26/47 38/21/38 45/24/45
f 47/26/47 45/24/45 44/27/44
f 47/26/47 40/25/40 38/21/38
f 47/26/47 44/27/44 49/29/49
f 49/29/49 44/27/44 46/28/46
f 50/30/50 35/31/35 30/32/30
f 50/30/50 28/33/28 35/31/35
f 50/30/50 30/32/30 23/34/23
f 50/30/50 16/35/16 28/33/28
f 50/30/50 23/34/23 16/35/16
f 35/31/35 37/36/37 30/32/30
f 35/31/35 43/37/43 37/36/37
f 51/38/51 52/38/52 53/38/53
f 51/38/51 54/38/54 52/38/52
f 51/38/51 53/38/53 54/38/54
f 55/38/55 56/38/56 57/38/57
f 55/38/55 58/38/58 56/38/56
f 55/38/55 57/38/57 58/38/58
f 59/38/59 60/38/60 61/38/61
f 59/38/59 62/38/62 60/38/60
f 59/38/59 61/38/61 62/38/62
f 63/38/63 64/38/64 65/38/65
f 63/38/63 66/38/66 64/38/64
f 63/38/63 65/38/65 66/38/66
f 67/38/63 68/38/64 69/38/65
f 67/38/63 70/38/66 68/38/64
f 67/38/63 69/38/65 70/38/66
vt 0.0476121 0.896773
vn -0.4128092 0.6982582 0.5848283
v -0.175291 0.284893 0.104294
vt 0.144163 0.939154
vn -0.6530361 0.420527 -0.629842
v -0.342713 0.219642 0.258999
vt 0.033865 0.469491
vn -0.9498032 0.157138 0.270521
v 0.175291 0.284893 0.104294
vn 0.6530361 0.420527 -0.629842
vn 0.412719 0.698176 0.58499
v 0.342713 0.219642 0.258999
vn 0.9498032 0.157138 0.270521
v -0.205274 0.145866 0.171879
vt 0.157582 0.745638
vn -0.8473892 -0.4959351 -0.189684
v 0.205274 0.145866 0.171879
vn 0.8473892 -0.4959351 -0.189684
v 0.14459 0.190699 0.30825
vt 0.016071 0.686952
vn 0.2998401 -0.03583271 0.9533163
v -0.14459 0.190699 0.30825
vn -0.2999449 -0.03590219 0.9532807
vt 0.0408858 0.900447
vn 0.05659179 0.358526 0.9318029
v -5.98051E-05 0.242824 0.31157
vt 0.0124636 0.736542
vn -1.39205E-05 0.125846 0.9920498
vn -0.0565597 0.358598 0.9317771
v -0.176115 0.144763 0.09823032
vt 0.224251 0.907178
vn -0.6216481 -0.141112 -0.7704811
v 0.176115 0.144763 0.09823032
vn 0.6004829 -0.07302779 -0.7962959
v 0 0.128906 0.02089861
vt 0.223651 0.973387
vn 0 -0.390858 -0.920451
v -0.124356 0.05166112 0.09479032
vt 0.245807 0.71615
vn -0.35945 -0.6626559 -0.6570259
v 0.124356 0.05166101 0.09479032
vn 0.271608 -0.675955 -0.685065
v -0.197935 0.07300462 0.181563
vt 0.147058 0.67632
vn -0.8742211 -0.4659891 -0.136351
v 0.197935 0.07300462 0.181563
vn 0.905534 -0.424172 0.00929465
v 0 0.02608822 0.191247
vt 0.136535 0.631685
vn 0 -0.9965883 0.08253293
v 0.138911 0.06508542 0.300279
vt 0.0180517 0.668786
vn 0.2659131 -0.4372911 0.8591082
v -0.138911 0.06508542 0.300279
vn -0.2659081 -0.4372841 0.8591132
v 0.0636009 0.220484 0.309037
vt 0.85201 0.419891
vn 0.3773299 0.3570239 0.8544917
v 0 0.242982 0.310471
vt 0.5 0.489814
vn 0 0.5345462 0.8451393
v 0 0.16262 0.3613
vt 0.5 0.251083
vn 0 -0.063576 0.997977
v -0.0636009 0.220484 0.309037
vt 0.14799 0.419891
vn -0.3773299 0.3570239 0.8544917
v -0.0899453 0.166169 0.305577
vt 0.00218332 0.251083
vn -0.5274131 -0.05401491 0.8478902
v -0.0636009 0.111854 0.302117
vt 0.14799 0.0822756
vn -0.3773302 -0.4625683 0.8022795
v 0 0.08935641 0.300684
vt 0.5 0.0123531
vn 0 -0.637469 0.770476
v 0.0636009 0.111854 0.302117
vt 0.85201 0.0822756
vn 0.3773311 -0.4625682 0.8022792
v 0.0899453 0.166169 0.305577
vt 0.997817 0.251083
vn 0.5274131 -0.05401481 0.8478902
v -0.130687 0.0001436875 0.191247
vt 0.136535 0.607003
vn -0.3039301 -0.9518043 -0.04117161
v 0.130687 0.0001436875 0.191247
vn 0.178424 -0.9814317 0.07040378
v 0.182492 0.225583 0.139996
vt 0.951557 0.949059
vn -0.7676708 -0.6287308 0.124013
v 0.28003 0.27656 0.128128
vn 0.7738746 -0.6317217 0.04523208
v 0.261903 0.298312 0.142078
vn -0.2515441 0.3694972 0.8945375
v 0.260299 0.294109 0.110836
vn -0.3452791 0.124013 -0.9302704
v 0.31017 0.394536 0.110709
vn 0.311707 0.9394481 -0.142394
v 0.291353 0.06589931 0.09797422
vn 0.4858221 -0.8578342 -0.167623
v 0.257887 0.166796 0.120307
vn 0.7232746 0.6830056 0.1018689
v 0.239373 0.145568 0.133341
vn -0.200168 -0.4041211 0.8925352
v 0.237739 0.150941 0.102817
vn -0.3134888 -0.08845065 -0.9454635
v 0.165219 0.189928 0.127113
vn -0.8952053 0.4250371 0.1339811
v 0.232476 0.109203 0.133009
vn 0.2230489 0.009825768 0.9747577
v 0.235449 0.02240922 0.117646
vn -0.107457 -0.7334821 0.6711611
v 0.221881 0.107523 0.103885
vn 0.07977472 0.04427411 -0.9958292
v 0.19747 0.133667 0.120417
vn -0.8731968 -0.03585659 0.4860469
v -0.193005 0.219813 0.127126
vn 0.6854746 -0.7231386 -0.08482406
v -0.262434 0.298237 0.152214
vn 0.3265229 0.100091 0.9398748
v -0.283634 0.282937 0.13453
vn -0.845773 -0.52991 -0.0621566
v -0.262434 0.301914 0.120865
vn 0.326523 0.314868 -0.8912019
v -0.299139 0.40413 0.148745
vn -0.1946741 0.9741894 0.114267
v -0.291178 0.06508552 0.09186082
vn -0.4828071 -0.8360052 -0.260754
v -0.238473 0.140138 0.135326
vn 0.250744 -0.5190671 0.8171272
v -0.257899 0.162588 0.126278
vn -0.7257436 0.6481246 0.2307178
v -0.238473 0.14969 0.105796
vn 0.2657551 0.04866911 -0.9628112
v -0.165305 0.186383 0.131675
vn 0.8954057 0.4201008 0.1475259
v -0.228334 0.109084 0.134522
vn -0.231555 -0.009455269 0.9727759
v -0.21774 0.107404 0.105399
vn -0.05936391 0.109766 -0.9921831
v -0.244152 0.02469891 0.114348
vn -0.0129281 -0.7766037 0.6298568
v -0.189884 0.128622 0.123468
vn 0.8514948 -0.193733 0.4872619
o merged_1_0_node
g polygon_0
usemtl mat_body1_mat_id
f 13/39/67 71/40/68 72/41/69
f 73/40/70 11/39/71 74/41/72
f 72/41/69 71/40/68 75/42/73
f 74/41/72 76/42/74 73/40/70
f 77/43/75 76/42/74 74/41/72
f 74/41/72 11/39/71 77/43/75
f 75/42/73 78/43/76 72/41/69
f 72/41/69 78/43/76 13/39/67
f 11/39/71 2/44/77 79/45/78
f 79/45/78 2/44/77 9/44/79
f 78/43/76 79/45/78 13/39/67
f 13/39/67 79/45/78 9/44/79
f 11/39/71 79/45/78 77/43/75
f 71/40/68 80/46/80 75/42/73
f 81/46/81 82/47/82 73/40/70
f 80/46/80 82/47/82 83/48/83
f 81/46/81 84/48/84 82/47/82
f 83/48/83 85/49/85 80/46/80
f 80/46/80 85/49/85 75/42/73
f 76/42/74 86/49/86 81/46/81
f 86/49/86 84/48/84 81/46/81
f 82/47/82 84/48/84 83/48/83
f 82/47/82 80/46/80 71/40/68
f 83/48/83 84/48/84 87/50/87
f 77/43/75 79/45/78 88/51/88
f 88/51/88 79/45/78 89/51/89
f 79/45/78 78/43/76 89/51/89
f 89/51/89 87/50/87 88/51/88
f 85/49/85 89/51/89 75/42/73
f 75/42/73 89/51/89 78/43/76
f 81/46/81 73/40/70 76/42/74
f 77/43/75 88/51/88 76/42/74
f 76/42/74 88/51/88 86/49/86
f 90/52/90 91/53/91 92/54/92
f 91/53/91 93/55/93 92/54/92
f 93/55/93 94/56/94 92/54/92
f 94/56/94 95/57/95 92/54/92
f 95/57/95 96/58/96 92/54/92
f 96/58/96 97/59/97 92/54/92
f 97/59/97 98/60/98 92/54/92
f 98/60/98 90/52/90 92/54/92
f 99/61/99 85/49/85 83/48/83
f 100/61/100 84/48/84 86/49/86
f 99/61/99 83/48/83 87/50/87
f 84/48/84 100/61/100 87/50/87
f 99/61/99 87/50/87 89/51/89
f 87/50/87 100/61/100 88/51/88
f 99/61/99 89/51/89 85/49/85
f 86/49/86 88/51/88 100/61/100
f 101/62/101 102/62/102 103/62/103
f 101/62/101 103/62/103 104/62/104
f 101/62/101 104/62/104 102/62/102
f 102/62/102 105/62/105 103/62/103
f 105/62/105 102/62/102 104/62/104
f 103/62/103 105/62/105 104/62/104
f 106/62/106 107/62/107 108/62/108
f 106/62/106 108/62/108 109/62/109
f 106/62/106 109/62/109 107/62/107
f 107/62/107 110/62/110 108/62/108
f 110/62/110 107/62/107 109/62/109
f 108/62/108 110/62/110 109/62/109
f 111/62/111 112/62/112 113/62/113
f 112/62/112 114/62/114 113/62/113
f 114/62/114 112/62/112 111/62/111
f 113/62/113 114/62/114 111/62/111
f 115/62/115 116/62/116 117/62/117
f 115/62/115 118/62/118 116/62/116
f 115/62/115 117/62/117 118/62/118
f 117/62/117 116/62/116 119/62/119
f 119/62/119 118/62/118 117/62/117
f 116/62/116 118/62/118 119/62/119
f 120/62/120 121/62/121 122/62/122
f 120/62/120 123/62/123 121/62/121
f 120/62/120 122/62/122 123/62/123
f 122/62/122 121/62/121 124/62/124
f 124/62/124 123/62/123 122/62/122
f 121/62/121 123/62/123 124/62/124
f 125/62/125 126/62/126 127/62/127
f 127/62/127 126/62/126 128/62/128
f 128/62/128 125/62/125 127/62/127
f 126/62/126 125/62/125 128/62/128
vt 0.498197 0.998433
vn -0.08088721 0.7386541 0.6692141
v -0.0883836 0.303712 0.316339
vt 0.498197 0.874971
vn -0.109686 0.306018 0.945686
vt 0.0703811 0.937782
vn 0.3411999 0.5427288 0.7674817
v -0.0260293 0.263371 0.300874
vt 0.0703811 0.814118
vn 0.309157 0.116015 0.9439081
v -0.0835099 0.227759 0.304533
vt 0.498197 0.751107
vn -0.109459 -0.159519 0.9811078
v -0.141382 0.257142 0.28716
vt 0.927144 0.814118
vn -0.5088506 0.04031217 0.8599104
v -0.138216 0.32306 0.266358
vt 0.927144 0.937782
vn -0.522301 0.4783819 0.7059409
vn 0.08088501 0.7386571 0.669211
vn -0.3411999 0.5427329 0.7674788
v 0.0883836 0.303712 0.316339
vn 0.109684 0.3060211 0.9456852
v 0.0260293 0.263371 0.300874
vn -0.3091579 0.116017 0.9439076
v 0.0835099 0.227759 0.304533
vn 0.109459 -0.159519 0.9811078
v 0.141382 0.257142 0.28716
vn 0.5088506 0.04031217 0.8599104
v 0.138216 0.32306 0.266358
vn 0.5222991 0.4783851 0.7059401
o merged_2_0_node
g polygon_0
usemtl TEX_ANIM_EYE_mat_id
f 9/63/129 129/64/130 10/65/131
f 10/65/131 129/64/130 130/66/132
f 130/66/132 129/64/130 131/67/133
f 131/67/133 129/64/130 132/68/134
f 132/68/134 129/64/130 133/69/135
f 133/69/135 129/64/130 9/63/129
f 2/63/136 4/65/137 134/64/138
f 4/65/137 135/66/139 134/64/138
f 135/66/139 136/67/140 134/64/138
f 136/67/140 137/68/141 134/64/138
f 137/68/141 138/69/142 134/64/138
f 138/69/142 2/63/136 134/64/138
