ply
format ascii 1.0
element vertex 691
property float x
property float y
property float z
property uchar red
property uchar green
property uchar blue
element face 839
property list uchar int vertex_index
end_header
0.20645 0.15411 0.21619 144 170 80
0.20724 0.16924 1.52588E-07 144 170 80
0.42509 0.16812 1.52588E-07 144 170 80
0.4243 0.153 0.21529 144 170 80
0.42373 0.20552 0.43532 144 170 80
0.21212 0.20606 0.43562 144 170 80
0.44972 0.11236 0.21281 144 170 80
0.4498 0.12749 1.52588E-07 144 170 80
0.18138 0.12895 1.52588E-07 144 170 80
0.22541 -0.14578 1.52588E-07 144 170 80
0.40301 -0.146 1.52588E-07 144 170 80
0.18 -0.14553 1.52588E-07 144 170 80
0.17992 -0.16079 0.17965 144 170 80
0.1813 0.11382 0.21281 144 170 80
0.17995 -0.16091 0.26473 144 170 80
0.18029 -0.11065 0.43556 144 170 80
0.18168 0.16493 0.43556 144 170 80
0.21172 0.15905 0.47396 144 170 80
0.22853 0.17718 0.47396 144 170 80
0.45009 0.16347 0.43556 144 170 80
0.4012 0.17698 0.47396 144 170 80
0.44871 -0.11027 0.43556 144 170 80
0.41813 0.15936 0.47396 144 170 80
0.42141 -0.07762 0.47396 144 170 80
0.41813 0.15936 0.47396 150 176 84
0.21172 0.15905 0.47396 150 176 84
0.22853 0.17718 0.47396 150 176 84
0.4012 0.17698 0.47396 150 176 84
0.21345 -0.07778 0.47396 150 176 84
0.42141 -0.07762 0.47396 150 176 84
0.44836 -0.1609 0.26473 144 170 80
0.44834 -0.16078 0.17965 144 170 80
0.44842 -0.14625 1.52588E-07 144 170 80
0.22541 -0.15046 0.05665 144 170 80
0.40301 -0.15069 0.05665 144 170 80
0.21345 -0.07778 0.47396 144 170 80
0.38463 -0.18449 0.05665 220 220 220
0.38463 -0.18449 1.52588E-07 220 220 220
0.24879 -0.18446 1.52588E-07 220 220 220
0.24879 -0.18446 0.05665 220 220 220
0.22541 -0.15046 0.05665 220 220 220
0.22541 -0.14578 1.52588E-07 220 220 220
0.40301 -0.146 1.52588E-07 220 220 220
0.40301 -0.15069 0.05665 220 220 220
0.40301 -0.15069 0.05665 229 229 229
0.38463 -0.18449 0.05665 229 229 229
0.24879 -0.18446 0.05665 229 229 229
0.22541 -0.15046 0.05665 229 229 229
0.29618 0.39549 1.08614 144 170 80
-0.29618 0.39549 1.08614 144 170 80
-0.19955 0.39549 0.43677 144 170 80
0.1987 0.39549 0.43677 144 170 80
0.29618 0.39549 0.10107 144 170 80
0.33494 0.35344 0.10107 144 170 80
0.33494 0.35344 1.08614 144 170 80
0.19896 0.39549 0.10107 144 170 80
-0.29618 0.39549 0.10107 144 170 80
-0.19981 0.39549 0.10107 144 170 80
-0.12671 0.7916 0.39771 144 170 80
-0.12595 0.7916 0.15467 144 170 80
0.1251 0.7916 0.15467 144 170 80
0.12586 0.7916 0.39771 144 170 80
-0.33494 0.35344 0.10107 144 170 80
-0.22213 0.31404 0.10107 144 170 80
-0.24832 0.28804 0.10107 144 170 80
-0.33494 0.35344 1.08614 144 170 80
0.33494 -0.24833 1.08614 144 170 80
0.33494 -0.24833 0.10107 144 170 80
0.24727 0.28804 0.10107 144 170 80
0.22108 0.31404 0.10107 144 170 80
-0.10567 0.81531 0.37762 144 170 80
-0.10503 0.81531 0.17483 144 170 80
0.10481 0.81531 0.37762 144 170 80
0.10418 0.81531 0.17483 144 170 80
-0.33494 -0.24833 0.10107 144 170 80
-0.24845 -0.2797 0.10107 144 170 80
-0.30362 -0.2797 0.10107 144 170 80
-0.2484 -0.2797 0.87777 144 170 80
-0.30362 -0.2797 1.08614 144 170 80
-0.33494 -0.24833 1.08614 144 170 80
-0.21137 -0.2797 0.91107 144 170 80
0.30362 -0.2797 1.08614 144 170 80
0.21008 -0.2797 0.91107 144 170 80
0.24711 -0.2797 0.87777 144 170 80
0.24722 -0.2797 0.10107 144 170 80
0.30362 -0.2797 0.10107 144 170 80
-0.2484 -0.35969 0.87777 233 225 165
-0.21137 -0.35969 0.91107 233 225 165
0.21008 -0.35969 0.91107 233 225 165
0.24711 -0.35969 0.87777 233 225 165
-0.2484 -0.2797 0.87777 233 225 165
-0.21137 -0.2797 0.91107 233 225 165
0.21008 -0.2797 0.91107 233 225 165
0.24711 -0.2797 0.87777 233 225 165
0.24722 -0.35969 0.13074 233 225 165
-0.24845 -0.35969 0.13074 233 225 165
-0.24845 -0.32573 0.10107 233 225 165
0.24722 -0.32573 0.10107 233 225 165
-0.24845 -0.2797 0.10107 233 225 165
0.24722 -0.2797 0.10107 233 225 165
-0.24832 0.28804 0.10107 233 225 165
0.24727 0.28804 0.10107 233 225 165
0.22108 0.31404 0.10107 233 225 165
-0.22213 0.31404 0.10107 233 225 165
-0.19955 0.39549 0.43677 150 176 84
-0.12671 0.7916 0.39771 150 176 84
0.12586 0.7916 0.39771 150 176 84
0.1987 0.39549 0.43677 150 176 84
0.10481 0.81531 0.37762 150 176 84
-0.10567 0.81531 0.37762 150 176 84
-0.15418 0.38628 1.01617 150 176 84
-0.10745 0.6208 0.96943 150 176 84
0.10745 0.6208 0.96943 150 176 84
0.15418 0.38628 1.01617 150 176 84
0.08787 0.64306 0.94985 150 176 84
-0.08787 0.64306 0.94985 150 176 84
-0.08787 0.64306 0.94985 144 170 80
-0.08787 0.64306 0.77412 144 170 80
0.08787 0.64306 0.77412 144 170 80
0.08787 0.64306 0.94985 144 170 80
0.10745 0.6208 0.96943 144 170 80
0.10745 0.6208 0.75454 144 170 80
0.15418 0.38628 0.7078 144 170 80
-0.10745 0.6208 0.75454 144 170 80
-0.15418 0.38628 0.7078 144 170 80
0.15418 0.38628 1.01617 144 170 80
-0.15418 0.38628 1.01617 144 170 80
-0.10745 0.6208 0.96943 144 170 80
-0.10128 0.38133 0.67333 150 176 84
-0.06655 0.53713 0.6386 150 176 84
0.06655 0.53713 0.6386 150 176 84
0.10128 0.38133 0.67333 150 176 84
0.05443 0.55939 0.62647 150 176 84
-0.05443 0.55939 0.62647 150 176 84
-0.05443 0.55939 0.62647 144 170 80
-0.05443 0.55939 0.51762 144 170 80
0.05443 0.55939 0.51762 144 170 80
0.05443 0.55939 0.62647 144 170 80
0.06655 0.53713 0.6386 144 170 80
0.06655 0.53713 0.50549 144 170 80
0.10128 0.38133 0.47077 144 170 80
-0.06655 0.53713 0.50549 144 170 80
-0.10128 0.38133 0.47077 144 170 80
0.10128 0.38133 0.67333 144 170 80
-0.10128 0.38133 0.67333 144 170 80
-0.06655 0.53713 0.6386 144 170 80
0.54911 0.29599 1.40742 206 206 206
0.54911 0.29599 1.17702 206 206 206
0.42394 0.29618 1.17702 206 206 206
0.42394 0.29618 1.62046 206 206 206
0.54928 0.40287 1.40742 206 206 206
0.54928 0.40287 1.17702 206 206 206
0.6235 0.29584 1.40742 206 206 206
0.62368 0.40272 1.40742 206 206 206
0.6235 0.29584 1.62046 206 206 206
0.64369 0.29581 1.42862 206 206 206
0.64387 0.40269 1.42862 206 206 206
0.64387 0.40269 1.59927 206 206 206
0.64369 0.29581 1.59927 206 206 206
0.52881 0.29599 1.15364 206 206 206
0.42394 0.29618 1.15364 206 206 206
0.42411 0.40307 1.15364 206 206 206
0.52899 0.40287 1.15364 206 206 206
0.62368 0.40272 1.62046 206 206 206
0.42411 0.40307 1.62046 206 206 206
0.42411 0.40307 1.17702 206 206 206
0.42411 0.40307 1.62046 210 210 210
0.62368 0.40272 1.62046 210 210 210
0.6235 0.29584 1.62046 210 210 210
0.42394 0.29618 1.62046 210 210 210
0.64369 0.29581 1.59927 210 210 210
0.64387 0.40269 1.59927 210 210 210
-0.54911 0.29599 1.40742 206 206 206
-0.42394 0.29618 1.62046 206 206 206
-0.42394 0.29618 1.17702 206 206 206
-0.54911 0.29599 1.17702 206 206 206
-0.54928 0.40287 1.40742 206 206 206
-0.54928 0.40287 1.17702 206 206 206
-0.6235 0.29584 1.40742 206 206 206
-0.62368 0.40272 1.40742 206 206 206
-0.6235 0.29584 1.62046 206 206 206
-0.64369 0.29581 1.42862 206 206 206
-0.64387 0.40269 1.42862 206 206 206
-0.64387 0.40269 1.59927 206 206 206
-0.64369 0.29581 1.59927 206 206 206
-0.52881 0.29599 1.15364 206 206 206
-0.42394 0.29618 1.15364 206 206 206
-0.42411 0.40307 1.15364 206 206 206
-0.52899 0.40287 1.15364 206 206 206
-0.62368 0.40272 1.62046 206 206 206
-0.42411 0.40307 1.62046 206 206 206
-0.42411 0.40307 1.17702 206 206 206
-0.42411 0.40307 1.62046 210 210 210
-0.42394 0.29618 1.62046 210 210 210
-0.6235 0.29584 1.62046 210 210 210
-0.62368 0.40272 1.62046 210 210 210
-0.64369 0.29581 1.59927 210 210 210
-0.64387 0.40269 1.59927 210 210 210
0.3078 -0.43393 0.93602 206 206 206
0.3078 -0.43393 1.09628 206 206 206
0.41902 -0.43393 1.09628 206 206 206
0.41902 -0.43393 0.93602 206 206 206
0.41902 -0.28742 1.09628 206 206 206
0.41902 -0.28742 0.93602 206 206 206
0.3078 -0.28742 0.93602 206 206 206
0.3078 -0.28742 1.09628 206 206 206
0.318 -0.4205 0.91799 206 206 206
0.40883 -0.4205 0.91799 206 206 206
0.40883 -0.30085 0.91799 206 206 206
0.318 -0.30085 0.91799 206 206 206
-0.3078 -0.43393 0.93602 206 206 206
-0.41902 -0.43393 0.93602 206 206 206
-0.41902 -0.43393 1.09628 206 206 206
-0.3078 -0.43393 1.09628 206 206 206
-0.41902 -0.28742 1.09628 206 206 206
-0.41902 -0.28742 0.93602 206 206 206
-0.3078 -0.28742 0.93602 206 206 206
-0.3078 -0.28742 1.09628 206 206 206
-0.40883 -0.4205 0.91799 206 206 206
-0.318 -0.4205 0.91799 206 206 206
-0.318 -0.30085 0.91799 206 206 206
-0.40883 -0.30085 0.91799 206 206 206
0.34067 -0.15547 1.30986 36 41 43
0.34067 -0.15547 1.31218 36 41 43
0.36754 -0.15547 1.36162 36 41 43
0.36754 -0.15547 1.30986 36 41 43
0.36754 -0.15547 1.57264 36 41 43
0.34067 -0.15547 1.57264 36 41 43
0.36754 -0.08549 1.39216 36 41 43
0.36754 0.05157 1.36162 36 41 43
0.36754 -0.03737 1.39216 36 41 43
0.36754 -0.08549 1.50416 36 41 43
0.36754 0.05157 1.57264 36 41 43
0.36754 -0.03737 1.50403 36 41 43
0.34067 0.05157 1.57264 36 41 43
0.34067 0.05157 1.30986 36 41 43
0.36754 0.05157 1.30986 36 41 43
0.36754 -0.08549 1.39216 255 255 255
0.36754 -0.08549 1.50416 255 255 255
0.36754 -0.03737 1.50403 255 255 255
0.36754 -0.03737 1.39216 255 255 255
-0.34067 -0.15547 1.30986 36 41 43
-0.36754 -0.15547 1.36162 36 41 43
-0.36754 -0.15547 1.57264 36 41 43
-0.34067 -0.15547 1.57264 36 41 43
-0.36754 -0.15547 1.30986 36 41 43
-0.36754 -0.08549 1.39216 36 41 43
-0.36754 -0.08549 1.50416 36 41 43
-0.36754 0.05157 1.57264 36 41 43
-0.36754 -0.03737 1.50403 36 41 43
-0.36754 0.05157 1.36162 36 41 43
-0.36754 -0.03737 1.39216 36 41 43
-0.34067 0.05157 1.57264 36 41 43
-0.34067 0.05157 1.30986 36 41 43
-0.36754 0.05157 1.30986 36 41 43
-0.36754 -0.08549 1.39216 255 255 255
-0.36754 -0.03737 1.39216 255 255 255
-0.36754 -0.03737 1.50403 255 255 255
-0.36754 -0.08549 1.50416 255 255 255
-0.36754 0.05157 1.36162 57 61 51
-0.36754 -0.15547 1.36162 57 61 51
-0.36754 -0.15547 1.30986 57 61 51
-0.36754 0.05157 1.30986 57 61 51
-0.40221 -0.16156 1.6656 144 170 80
-0.40221 0.18465 1.61863 144 170 80
-0.40221 0.18465 1.6656 144 170 80
-0.40221 -0.18609 1.38537 144 170 80
-0.35662 -0.18609 1.38537 144 170 80
-0.35662 0.18465 1.61863 144 170 80
-0.35662 -0.18609 1.32314 144 170 80
-0.40221 -0.18609 1.32314 144 170 80
-0.35662 0.18465 1.32314 144 170 80
-0.40221 0.18465 1.32314 144 170 80
-0.40221 -0.16156 1.24252 144 170 80
-0.40221 -0.21984 1.29428 144 170 80
-0.40221 0.18465 1.24252 144 170 80
-0.40221 -0.21984 1.61385 144 170 80
-0.38717 -0.4579 1.82521 206 206 206
-0.38717 -0.4579 1.55734 206 206 206
-0.4455 -0.38166 1.51824 206 206 206
-0.4455 -0.38166 1.82521 206 206 206
-0.39529 -0.33815 1.87204 206 206 206
-0.3416 -0.40769 1.87204 206 206 206
-0.39529 0.39509 1.87204 206 206 206
-0.4455 0.4386 1.82521 206 206 206
0.38717 -0.4579 1.55734 206 206 206
0.38717 -0.4579 1.82521 206 206 206
0.3416 -0.40769 1.87204 206 206 206
-0.4455 -0.21984 1.61385 206 206 206
-0.4455 -0.16156 1.6656 206 206 206
-0.4455 0.18465 1.6656 206 206 206
-0.4455 -0.38166 1.10591 206 206 206
-0.4455 -0.21984 1.29428 206 206 206
0.4455 -0.38166 1.51824 206 206 206
0.4455 -0.38166 1.82521 206 206 206
0.39529 -0.33815 1.87204 206 206 206
0.39529 0.39509 1.87204 206 206 206
0.4455 0.4386 1.82521 206 206 206
0.4455 -0.21984 1.61385 206 206 206
0.4455 -0.16156 1.6656 206 206 206
0.4455 0.18465 1.6656 206 206 206
0.4455 -0.38166 1.10591 206 206 206
0.4455 -0.21984 1.29428 206 206 206
-0.4455 0.24436 1.61385 206 206 206
-0.4455 0.4386 1.10591 206 206 206
-0.37096 0.51484 1.10591 206 206 206
-0.37096 0.51484 1.82521 206 206 206
-0.3273 0.46463 1.87204 206 206 206
-0.39529 0.39509 1.05983 206 206 206
-0.3273 0.46463 1.05983 206 206 206
0.37096 0.51484 1.82521 206 206 206
0.37096 0.51484 1.10591 206 206 206
0.3273 0.46463 1.05983 206 206 206
-0.4455 0.24436 1.29428 206 206 206
-0.4455 0.18465 1.24252 206 206 206
-0.39534 -0.67809 1.05984 206 206 206
-0.44559 -0.72583 1.10596 206 206 206
-0.4455 -0.16156 1.24252 206 206 206
-0.44554 -0.49706 1.16305 206 206 206
-0.44555 -0.62688 1.16305 206 206 206
-0.44556 -0.65038 1.18516 206 206 206
-0.44559 -0.72583 1.51824 206 206 206
-0.44556 -0.65041 1.31788 206 206 206
-0.44555 -0.6269 1.33998 206 206 206
-0.44554 -0.49708 1.33998 206 206 206
-0.38718 -0.676 1.55734 206 206 206
-0.44552 -0.47257 1.31788 206 206 206
-0.44552 -0.47257 1.18514 206 206 206
-0.37097 -0.79498 1.10596 206 206 206
-0.32731 -0.74724 1.05984 206 206 206
-0.37097 -0.79498 1.51824 206 206 206
0.37097 -0.79498 1.10596 206 206 206
0.37097 -0.79498 1.51824 206 206 206
-0.32709 -0.73307 1.55734 206 206 206
0.32731 -0.74724 1.05984 206 206 206
0.44559 -0.72583 1.10596 206 206 206
0.39534 -0.67809 1.05984 206 206 206
0.44559 -0.72583 1.51824 206 206 206
0.32709 -0.73307 1.55734 206 206 206
0.38718 -0.676 1.55734 206 206 206
0.39529 0.39509 1.05983 206 206 206
-0.40221 -0.16156 1.24252 183 183 183
-0.4455 -0.16156 1.24252 183 183 183
-0.4455 0.18465 1.24252 183 183 183
-0.40221 0.18465 1.24252 183 183 183
-0.4455 -0.21984 1.29428 183 183 183
-0.40221 -0.21984 1.29428 183 183 183
-0.4455 -0.21984 1.61385 183 183 183
-0.40221 -0.21984 1.61385 183 183 183
-0.40221 -0.16156 1.6656 183 183 183
-0.4455 -0.16156 1.6656 183 183 183
-0.40221 0.18465 1.6656 183 183 183
-0.4455 0.18465 1.6656 183 183 183
-0.4455 0.24436 1.29428 183 183 183
-0.4455 0.24436 1.61385 183 183 183
-0.40223 0.24436 1.61385 183 183 183
-0.40223 0.24436 1.29428 183 183 183
-0.39635 -0.47259 1.31788 36 41 43
-0.39638 -0.4971 1.33998 36 41 43
-0.39639 -0.62693 1.33998 36 41 43
-0.39641 -0.65043 1.31788 36 41 43
-0.39635 -0.47259 1.18514 36 41 43
-0.39641 -0.65041 1.18516 36 41 43
-0.39639 -0.62691 1.16305 36 41 43
-0.39638 -0.49709 1.16305 36 41 43
-0.40223 0.24436 1.61385 144 170 80
-0.40223 0.24436 1.29428 144 170 80
-0.44552 -0.47257 1.18514 183 183 183
-0.44552 -0.47257 1.31788 183 183 183
-0.39635 -0.47259 1.31788 183 183 183
-0.39635 -0.47259 1.18514 183 183 183
-0.44554 -0.49706 1.16305 183 183 183
-0.39638 -0.49709 1.16305 183 183 183
-0.39638 -0.4971 1.33998 183 183 183
-0.44554 -0.49708 1.33998 183 183 183
-0.44555 -0.6269 1.33998 183 183 183
-0.44556 -0.65041 1.31788 183 183 183
-0.39641 -0.65043 1.31788 183 183 183
-0.39639 -0.62693 1.33998 183 183 183
-0.39641 -0.65041 1.18516 183 183 183
-0.44556 -0.65038 1.18516 183 183 183
-0.39639 -0.62691 1.16305 183 183 183
-0.44555 -0.62688 1.16305 183 183 183
-0.35662 0.18465 1.61863 255 255 255
-0.35662 -0.18609 1.38537 255 255 255
-0.35662 -0.18609 1.32314 255 255 255
-0.35662 0.18465 1.32314 255 255 255
-0.39529 0.39509 1.87204 210 210 210
-0.3273 0.46463 1.87204 210 210 210
0.3273 0.46463 1.87204 210 210 210
0.39529 0.39509 1.87204 210 210 210
0.40221 -0.16156 1.6656 144 170 80
0.40221 0.18465 1.61863 144 170 80
0.40221 -0.18609 1.38537 144 170 80
0.35662 -0.18609 1.38537 144 170 80
0.35662 0.18465 1.61863 144 170 80
0.35662 -0.18609 1.32314 144 170 80
0.40221 -0.18609 1.32314 144 170 80
0.35662 0.18465 1.32314 144 170 80
0.40221 0.18465 1.32314 144 170 80
0.40221 -0.16156 1.24252 144 170 80
0.40221 -0.21984 1.29428 144 170 80
0.40221 0.18465 1.24252 144 170 80
0.40221 -0.21984 1.61385 144 170 80
0.40219 0.24436 1.61385 144 170 80
0.40221 0.18465 1.6656 144 170 80
0.40219 0.24436 1.29428 144 170 80
0.4455 0.4386 1.10591 206 206 206
0.3273 0.46463 1.87204 206 206 206
0.4455 0.24436 1.61385 206 206 206
0.4455 0.24436 1.29428 206 206 206
0.4455 0.18465 1.24252 206 206 206
0.4455 -0.16156 1.24252 206 206 206
0.44554 -0.49706 1.16305 206 206 206
0.44552 -0.47257 1.18514 206 206 206
0.44552 -0.47257 1.31788 206 206 206
0.44554 -0.49708 1.33998 206 206 206
0.44555 -0.6269 1.33998 206 206 206
0.44556 -0.65041 1.31788 206 206 206
0.44556 -0.65038 1.18516 206 206 206
0.44555 -0.62688 1.16305 206 206 206
0.40221 -0.16156 1.24252 183 183 183
0.40221 0.18465 1.24252 183 183 183
0.4455 0.18465 1.24252 183 183 183
0.4455 -0.16156 1.24252 183 183 183
0.4455 -0.21984 1.29428 183 183 183
0.40221 -0.21984 1.29428 183 183 183
0.4455 -0.21984 1.61385 183 183 183
0.40221 -0.21984 1.61385 183 183 183
0.40221 -0.16156 1.6656 183 183 183
0.4455 -0.16156 1.6656 183 183 183
0.40221 0.18465 1.6656 183 183 183
0.4455 0.18465 1.6656 183 183 183
0.4455 0.24436 1.29428 183 183 183
0.40219 0.24436 1.29428 183 183 183
0.40219 0.24436 1.61385 183 183 183
0.4455 0.24436 1.61385 183 183 183
-0.32709 -0.73307 1.55734 210 210 210
-0.38718 -0.676 1.55734 210 210 210
0.38718 -0.676 1.55734 210 210 210
0.32709 -0.73307 1.55734 210 210 210
0.38717 -0.4579 1.55734 210 210 210
-0.38717 -0.4579 1.55734 210 210 210
0.39641 -0.65043 1.31788 36 41 43
0.39639 -0.62693 1.33998 36 41 43
0.39638 -0.4971 1.33998 36 41 43
0.39635 -0.47259 1.31788 36 41 43
0.39635 -0.47259 1.18514 36 41 43
0.39641 -0.65041 1.18516 36 41 43
0.39639 -0.62691 1.16305 36 41 43
0.39638 -0.49709 1.16305 36 41 43
0.44552 -0.47257 1.18514 183 183 183
0.39635 -0.47259 1.18514 183 183 183
0.39635 -0.47259 1.31788 183 183 183
0.44552 -0.47257 1.31788 183 183 183
0.39638 -0.49709 1.16305 183 183 183
0.44554 -0.49706 1.16305 183 183 183
0.39638 -0.4971 1.33998 183 183 183
0.44554 -0.49708 1.33998 183 183 183
0.39639 -0.62693 1.33998 183 183 183
0.39641 -0.65043 1.31788 183 183 183
0.44556 -0.65041 1.31788 183 183 183
0.44555 -0.6269 1.33998 183 183 183
0.39641 -0.65041 1.18516 183 183 183
0.44556 -0.65038 1.18516 183 183 183
0.39639 -0.62691 1.16305 183 183 183
0.44555 -0.62688 1.16305 183 183 183
0.35662 0.18465 1.61863 255 255 255
0.35662 0.18465 1.32314 255 255 255
0.35662 -0.18609 1.32314 255 255 255
0.35662 -0.18609 1.38537 255 255 255
-0.3416 -0.40769 1.87204 210 210 210
-0.39529 -0.33815 1.87204 210 210 210
0.39529 -0.33815 1.87204 210 210 210
0.3416 -0.40769 1.87204 210 210 210
-0.27162 0.19587 1.85782 206 206 206
-0.295 0.16857 1.84145 206 206 206
-0.4446 0.16857 2.0564 206 206 206
-0.42122 0.19587 2.07277 206 206 206
-0.27162 0.34476 1.85782 206 206 206
-0.42122 0.34476 2.07277 206 206 206
-0.41589 0.16857 1.75679 206 206 206
-0.5655 0.16857 1.97175 206 206 206
-0.43831 0.19587 1.7411 206 206 206
-0.58792 0.19587 1.95605 206 206 206
-0.58792 0.34476 1.95605 206 206 206
-0.43831 0.34476 1.7411 206 206 206
-0.44982 0.20828 2.08402 206 206 206
-0.44982 0.33235 2.08402 206 206 206
-0.4693 0.18553 2.07038 206 206 206
-0.57005 0.18553 1.99984 206 206 206
-0.58873 0.20828 1.98675 206 206 206
-0.58873 0.33235 1.98675 206 206 206
-0.57005 0.35511 1.99984 210 210 210
-0.4693 0.35511 2.07038 210 210 210
-0.4693 0.18553 2.07038 210 210 210
-0.57005 0.18553 1.99984 210 210 210
-0.58873 0.20828 1.98675 210 210 210
-0.58873 0.33235 1.98675 210 210 210
-0.44982 0.33235 2.08402 210 210 210
-0.44982 0.20828 2.08402 210 210 210
-0.4446 0.37207 2.0564 206 206 206
-0.295 0.37207 1.84145 206 206 206
-0.5655 0.37207 1.97175 206 206 206
-0.41589 0.37207 1.75679 206 206 206
-0.4693 0.35511 2.07038 206 206 206
-0.57005 0.35511 1.99984 206 206 206
0.27162 0.19587 1.85782 206 206 206
0.42122 0.19587 2.07277 206 206 206
0.4446 0.16857 2.0564 206 206 206
0.295 0.16857 1.84145 206 206 206
0.27162 0.34476 1.85782 206 206 206
0.42122 0.34476 2.07277 206 206 206
0.41589 0.16857 1.75679 206 206 206
0.5655 0.16857 1.97175 206 206 206
0.43831 0.19587 1.7411 206 206 206
0.58792 0.19587 1.95605 206 206 206
0.58792 0.34476 1.95605 206 206 206
0.43831 0.34476 1.7411 206 206 206
0.44982 0.20828 2.08402 206 206 206
0.44982 0.33235 2.08402 206 206 206
0.4693 0.18553 2.07038 206 206 206
0.57005 0.18553 1.99984 206 206 206
0.58873 0.20828 1.98675 206 206 206
0.58873 0.33235 1.98675 206 206 206
0.57005 0.35511 1.99984 210 210 210
0.57005 0.18553 1.99984 210 210 210
0.4693 0.18553 2.07038 210 210 210
0.4693 0.35511 2.07038 210 210 210
0.58873 0.20828 1.98675 210 210 210
0.58873 0.33235 1.98675 210 210 210
0.44982 0.33235 2.08402 210 210 210
0.44982 0.20828 2.08402 210 210 210
0.295 0.37207 1.84145 206 206 206
0.4446 0.37207 2.0564 206 206 206
0.5655 0.37207 1.97175 206 206 206
0.41589 0.37207 1.75679 206 206 206
0.4693 0.35511 2.07038 206 206 206
0.57005 0.35511 1.99984 206 206 206
0.36754 0.05157 1.36162 57 61 51
0.36754 0.05157 1.30986 57 61 51
0.36754 -0.15547 1.30986 57 61 51
0.36754 -0.15547 1.36162 57 61 51
-0.20645 0.15411 0.21619 144 170 80
-0.4243 0.153 0.21529 144 170 80
-0.42509 0.16812 1.52588E-07 144 170 80
-0.20724 0.16924 1.52588E-07 144 170 80
-0.42373 0.20552 0.43532 144 170 80
-0.21212 0.20606 0.43562 144 170 80
-0.44972 0.11236 0.21281 144 170 80
-0.4498 0.12749 1.52588E-07 144 170 80
-0.18138 0.12895 1.52588E-07 144 170 80
-0.22541 -0.14578 1.52588E-07 144 170 80
-0.40301 -0.146 1.52588E-07 144 170 80
-0.18 -0.14553 1.52588E-07 144 170 80
-0.17992 -0.16079 0.17965 144 170 80
-0.1813 0.11382 0.21281 144 170 80
-0.17995 -0.16091 0.26473 144 170 80
-0.18029 -0.11065 0.43556 144 170 80
-0.18168 0.16493 0.43556 144 170 80
-0.21172 0.15905 0.47396 144 170 80
-0.22853 0.17718 0.47396 144 170 80
-0.4012 0.17698 0.47396 144 170 80
-0.41813 0.15936 0.47396 144 170 80
-0.44871 -0.11027 0.43556 144 170 80
-0.45009 0.16347 0.43556 144 170 80
-0.42141 -0.07762 0.47396 144 170 80
-0.41813 0.15936 0.47396 150 176 84
-0.4012 0.17698 0.47396 150 176 84
-0.22853 0.17718 0.47396 150 176 84
-0.21172 0.15905 0.47396 150 176 84
-0.21345 -0.07778 0.47396 150 176 84
-0.42141 -0.07762 0.47396 150 176 84
-0.44836 -0.1609 0.26473 144 170 80
-0.44834 -0.16078 0.17965 144 170 80
-0.44842 -0.14625 1.52588E-07 144 170 80
-0.22541 -0.15046 0.05665 144 170 80
-0.40301 -0.15069 0.05665 144 170 80
-0.21345 -0.07778 0.47396 144 170 80
-0.38463 -0.18449 0.05665 220 220 220
-0.24879 -0.18446 0.05665 220 220 220
-0.24879 -0.18446 1.52588E-07 220 220 220
-0.38463 -0.18449 1.52588E-07 220 220 220
-0.22541 -0.15046 0.05665 220 220 220
-0.22541 -0.14578 1.52588E-07 220 220 220
-0.40301 -0.146 1.52588E-07 220 220 220
-0.40301 -0.15069 0.05665 220 220 220
-0.40301 -0.15069 0.05665 229 229 229
-0.22541 -0.15046 0.05665 229 229 229
-0.24879 -0.18446 0.05665 229 229 229
-0.38463 -0.18449 0.05665 229 229 229
-0.6759 -0.23775 0.53906 144 170 80
-0.48921 -0.36964 0.5392 144 170 80
-0.21978 0.01312 0.53889 144 170 80
-0.40646 0.14501 0.53878 144 170 80
-0.34941 -0.1713 0.7931 144 170 80
-0.48901 -0.36911 0.79368 144 170 80
-0.19048 0.05433 0.5989 144 170 80
-0.34887 -0.17185 0.9752 144 170 80
-0.53566 -0.04012 0.97579 144 170 80
-0.53609 -0.03941 0.79298 144 170 80
-0.18979 0.05407 0.97539 144 170 80
-0.35746 -0.13713 1.01408 144 170 80
-0.22545 0.05039 1.01423 144 170 80
-0.49983 -0.03669 1.01456 144 170 80
-0.53827 -0.39164 0.56523 144 170 80
-0.5381 -0.39122 0.76787 144 170 80
-0.6801 -0.29086 0.76776 144 170 80
-0.68027 -0.29127 0.56512 144 170 80
-0.36781 0.15083 1.01471 150 176 84
-0.22545 0.05039 1.01423 150 176 84
-0.35746 -0.13713 1.01408 150 176 84
-0.49983 -0.03669 1.01456 150 176 84
-0.67569 -0.23722 0.79354 144 170 80
-0.37716 0.18622 0.59878 144 170 80
-0.37658 0.1858 0.97599 144 170 80
-0.36781 0.15083 1.01471 144 170 80
-0.53609 -0.03941 0.79298 150 176 84
-0.34941 -0.1713 0.7931 150 176 84
-0.48901 -0.36911 0.79368 150 176 84
-0.67569 -0.23722 0.79354 150 176 84
-0.5381 -0.39122 0.76787 150 176 84
-0.6801 -0.29086 0.76776 150 176 84
-0.71725 -0.4022 0.44741 206 206 206
-0.71617 -0.40342 1.2208 206 206 206
-0.621 -0.46972 1.22056 206 206 206
-0.62208 -0.46851 0.44717 206 206 206
-0.5547 -0.37455 1.21996 206 206 206
-0.55578 -0.37334 0.44656 206 206 206
-0.67254 -0.54369 1.22103 206 206 206
-0.7677 -0.47739 1.22127 206 206 206
-0.67168 -0.54312 1.40502 206 206 206
-0.50231 -0.30001 1.40348 206 206 206
-0.70565 -0.56219 1.24122 206 206 206
-0.77352 -0.5149 1.24139 206 206 206
-0.70497 -0.56175 1.38526 206 206 206
-0.77285 -0.51446 1.38543 206 206 206
-0.50317 -0.30058 1.21949 206 206 206
-0.59833 -0.23428 1.21973 206 206 206
-0.64987 -0.30825 1.2202 206 206 206
-0.49716 -0.26294 1.23932 206 206 206
-0.49649 -0.2625 1.38336 206 206 206
-0.62529 -0.45106 0.43044 206 206 206
-0.57335 -0.37652 0.42996 206 206 206
-0.6479 -0.32458 0.43015 206 206 206
-0.69983 -0.39913 0.43062 206 206 206
-0.56436 -0.21521 1.38353 206 206 206
-0.56504 -0.21565 1.23949 206 206 206
-0.59747 -0.23371 1.40371 206 206 206
-0.65095 -0.30704 0.4468 206 206 206
-0.76684 -0.47682 1.40526 206 206 206
-0.67168 -0.54312 1.40502 210 210 210
-0.76684 -0.47682 1.40526 210 210 210
-0.59747 -0.23371 1.40371 210 210 210
-0.50231 -0.30001 1.40348 210 210 210
-0.49649 -0.2625 1.38336 210 210 210
-0.56436 -0.21521 1.38353 210 210 210
-0.70497 -0.56175 1.38526 210 210 210
-0.77285 -0.51446 1.38543 210 210 210
0.4876 -0.32297 0.53785 144 170 80
0.48838 0.14653 0.53868 144 170 80
0.26622 0.14719 0.53832 144 170 80
0.26544 -0.32232 0.53749 144 170 80
0.26569 -0.08023 0.79146 144 170 80
0.26509 -0.32238 0.79191 144 170 80
0.2664 0.19708 0.59441 144 170 80
0.26598 -0.08086 0.97587 144 170 80
0.26666 0.19763 0.97675 144 170 80
0.48856 0.19643 0.59477 144 170 80
0.48882 0.19691 0.97654 144 170 80
0.30587 0.1723 1.01552 144 170 80
0.44952 0.17173 1.01538 144 170 80
0.44952 0.17173 1.01538 150 176 84
0.44903 -0.05671 1.01474 150 176 84
0.30538 -0.05614 1.01489 150 176 84
0.30587 0.1723 1.01552 150 176 84
0.48814 -0.08158 0.97567 144 170 80
0.48784 -0.08088 0.79182 144 170 80
0.48724 -0.32303 0.79228 144 170 80
0.44903 -0.05671 1.01474 144 170 80
0.30538 -0.05614 1.01489 144 170 80
0.45492 -0.36505 0.76043 144 170 80
0.45519 -0.3651 0.56709 144 170 80
0.29749 -0.3646 0.56682 144 170 80
0.29722 -0.36455 0.76015 144 170 80
0.48784 -0.08088 0.79182 150 176 84
0.48724 -0.32303 0.79228 150 176 84
0.26509 -0.32238 0.79191 150 176 84
0.26569 -0.08023 0.79146 150 176 84
0.45492 -0.36505 0.76043 150 176 84
0.29722 -0.36455 0.76015 150 176 84
3 0 2 1
3 0 3 2
3 0 4 3
3 0 5 4
3 6 2 3
3 6 7 2
3 7 1 2
3 7 8 1
3 8 0 1
3 9 8 7
3 9 7 10
3 9 11 8
3 8 11 12
3 8 12 13
3 8 13 0
3 13 5 0
3 13 12 14
3 13 14 15
3 13 15 16
3 13 16 5
3 5 16 17
3 5 17 18
3 19 3 4
3 19 6 3
3 5 18 20
3 21 19 22
3 21 22 23
3 4 22 19
3 4 20 22
3 5 20 4
3 24 26 25
3 24 27 26
3 24 25 28
3 24 28 29
3 21 14 30
3 21 15 14
3 30 14 12
3 30 12 31
3 6 30 31
3 6 31 32
3 6 32 7
3 19 30 6
3 19 21 30
3 31 12 33
3 31 33 34
3 32 31 34
3 12 9 33
3 12 11 9
3 32 34 10
3 10 7 32
3 15 21 23
3 15 23 35
3 16 15 35
3 16 35 17
3 36 38 37
3 36 39 38
3 40 38 39
3 40 41 38
3 41 37 38
3 41 42 37
3 42 36 37
3 42 43 36
3 44 46 45
3 44 47 46
3 48 50 49
3 48 51 50
3 51 48 52
3 48 53 52
3 48 54 53
3 51 52 55
3 56 49 50
3 56 50 57
3 57 50 58
3 57 58 59
3 55 57 59
3 51 55 60
3 55 59 60
3 51 60 61
3 62 49 56
3 62 56 63
3 62 63 64
3 62 65 49
3 53 54 66
3 53 66 67
3 68 53 67
3 55 69 57
3 57 69 56
3 56 69 63
3 69 55 52
3 69 53 68
3 69 52 53
3 59 58 70
3 59 70 71
3 60 59 71
3 71 70 72
3 71 72 73
3 61 73 72
3 61 60 73
3 60 71 73
3 74 64 75
3 74 75 76
3 77 76 75
3 77 78 76
3 78 74 76
3 78 79 74
3 80 78 77
3 81 78 80
3 81 80 82
3 81 82 83
3 81 83 84
3 81 84 85
3 74 79 65
3 74 65 62
3 67 81 85
3 84 67 85
3 67 66 81
3 62 64 74
3 68 67 84
3 86 88 87
3 86 89 88
3 87 90 86
3 87 91 90
3 92 87 88
3 92 91 87
3 93 88 89
3 93 92 88
3 94 93 89
3 94 89 86
3 94 86 95
3 90 95 86
3 96 94 95
3 96 97 94
3 98 97 96
3 98 99 97
3 100 99 98
3 100 101 99
3 100 102 101
3 100 103 102
3 90 96 95
3 90 98 96
3 99 94 97
3 99 93 94
3 104 106 105
3 104 107 106
3 105 106 108
3 105 108 109
3 110 112 111
3 110 113 112
3 111 112 114
3 111 114 115
3 116 118 117
3 116 119 118
3 120 118 119
3 120 121 118
3 121 117 118
3 122 121 120
3 123 121 122
3 121 123 117
3 123 116 117
3 123 122 124
3 122 120 125
3 123 124 126
3 123 126 127
3 123 127 116
3 128 130 129
3 128 131 130
3 129 130 132
3 129 132 133
3 134 136 135
3 134 137 136
3 138 136 137
3 138 139 136
3 139 135 136
3 140 139 138
3 141 139 140
3 139 141 135
3 141 134 135
3 141 140 142
3 140 138 143
3 141 142 144
3 141 144 145
3 141 145 134
3 146 148 147
3 146 149 148
3 150 146 147
3 150 147 151
3 149 146 152
3 146 153 152
3 146 150 153
3 149 152 154
3 154 152 155
3 152 156 155
3 155 156 157
3 155 157 158
3 154 155 158
3 152 153 156
3 151 147 159
3 147 160 159
3 147 148 160
3 161 159 160
3 161 162 159
3 151 159 162
3 150 163 153
3 150 164 163
3 150 165 164
3 150 151 165
3 165 151 161
3 161 151 162
3 153 163 157
3 153 157 156
3 166 168 167
3 166 169 168
3 167 168 170
3 167 170 171
3 172 174 173
3 172 175 174
3 176 175 172
3 176 177 175
3 173 178 172
3 172 178 179
3 172 179 176
3 173 180 178
3 180 181 178
3 178 181 182
3 181 183 182
3 181 184 183
3 180 184 181
3 178 182 179
3 177 185 175
3 175 185 186
3 175 186 174
3 187 186 185
3 187 185 188
3 177 188 185
3 176 179 189
3 176 189 190
3 176 190 191
3 176 191 177
3 191 187 177
3 187 188 177
3 179 183 189
3 179 182 183
3 192 194 193
3 192 195 194
3 195 196 194
3 195 197 196
3 198 200 199
3 198 201 200
3 201 202 200
3 201 203 202
3 204 198 199
3 204 199 205
3 201 198 206
3 201 206 207
3 203 201 207
3 203 207 208
3 204 203 208
3 205 203 204
3 205 202 203
3 204 208 209
3 209 208 207
3 209 207 206
3 198 209 206
3 198 204 209
3 210 212 211
3 210 213 212
3 211 212 214
3 211 214 215
3 216 213 210
3 216 217 213
3 210 211 218
3 210 218 219
3 220 219 218
3 220 218 221
3 211 221 218
3 211 215 221
3 216 210 219
3 216 219 220
3 215 216 220
3 217 216 215
3 217 215 214
3 215 220 221
3 222 224 223
3 222 225 224
3 223 224 226
3 223 226 227
3 226 224 228
3 228 224 229
3 228 229 230
3 226 228 231
3 232 231 233
3 230 232 233
3 232 226 231
3 230 229 232
3 234 232 229
3 234 229 235
3 235 229 236
3 237 239 238
3 237 240 239
3 241 243 242
3 241 244 243
3 241 242 245
3 246 242 243
3 246 243 247
3 248 247 243
3 248 249 247
3 250 249 248
3 250 251 249
3 252 250 248
3 252 253 250
3 250 253 254
3 246 250 242
3 246 251 250
3 255 257 256
3 255 258 257
3 259 261 260
3 259 262 261
3 263 265 264
3 263 264 266
3 264 267 266
3 264 268 267
3 266 267 269
3 266 269 270
3 270 269 271
3 270 271 272
3 272 273 270
3 274 270 273
3 274 266 270
3 272 275 273
3 276 263 266
3 274 276 266
3 277 279 278
3 277 280 279
3 277 281 280
3 277 282 281
3 280 281 283
3 280 283 284
3 277 278 285
3 277 285 286
3 282 277 286
3 282 286 287
3 280 288 279
3 289 288 280
3 284 289 280
3 284 290 289
3 288 291 279
3 288 292 291
3 286 285 293
3 286 293 294
3 286 295 287
3 286 294 295
3 294 296 295
3 294 297 296
3 294 293 298
3 299 294 298
3 297 294 299
3 297 299 300
3 298 293 301
3 298 301 302
3 284 303 290
3 304 303 284
3 305 304 284
3 305 284 306
3 284 307 306
3 284 283 307
3 305 308 304
3 305 309 308
3 308 291 304
3 305 306 310
3 307 310 306
3 305 310 311
3 309 305 311
3 309 311 312
3 304 313 303
3 314 313 304
3 291 314 304
3 308 315 291
3 315 316 291
3 291 317 314
3 291 292 317
3 318 291 316
3 316 319 318
3 319 316 320
3 321 320 316
3 321 322 320
3 321 323 322
3 323 321 324
3 279 324 321
3 279 321 325
3 279 325 278
3 324 279 326
3 291 326 279
3 291 327 326
3 291 318 327
3 316 329 328
3 316 315 329
3 321 316 328
3 321 328 330
3 330 328 331
3 329 331 328
3 330 331 332
3 321 330 333
3 321 333 325
3 329 334 331
3 315 334 329
3 335 331 334
3 335 334 336
3 315 336 334
3 337 331 335
3 337 332 331
3 337 338 332
3 330 338 333
3 330 332 338
3 337 339 338
3 308 336 315
3 308 340 336
3 341 343 342
3 341 344 343
3 345 341 342
3 345 346 341
3 347 346 345
3 347 348 346
3 349 348 347
3 349 347 350
3 351 349 350
3 351 350 352
3 353 355 354
3 353 356 355
3 344 356 353
3 344 353 343
3 354 355 351
3 354 351 352
3 357 359 358
3 357 360 359
3 361 360 357
3 361 362 360
3 361 363 362
3 361 364 363
3 265 365 264
3 365 272 264
3 272 268 264
3 272 271 268
3 365 366 272
3 366 275 272
3 367 369 368
3 367 370 369
3 371 370 367
3 371 372 370
3 368 369 373
3 368 373 374
3 375 377 376
3 375 378 377
3 376 377 379
3 376 379 380
3 380 379 381
3 380 381 382
3 382 381 372
3 382 372 371
3 374 378 375
3 374 373 378
3 383 385 384
3 383 386 385
3 387 389 388
3 387 390 389
3 391 393 392
3 392 393 394
3 392 394 395
3 393 396 394
3 393 397 396
3 397 398 396
3 397 399 398
3 399 397 400
3 401 400 397
3 401 397 393
3 399 400 402
3 403 393 391
3 401 393 403
3 404 392 399
3 405 392 404
3 391 392 405
3 404 399 406
3 406 399 402
3 311 297 407
3 311 310 297
3 297 310 408
3 307 408 310
3 297 408 296
3 311 407 340
3 311 340 312
3 340 407 301
3 407 297 409
3 407 409 410
3 411 407 410
3 301 407 411
3 309 312 340
3 309 340 308
3 340 301 336
3 336 301 335
3 297 300 409
3 301 411 412
3 301 412 302
3 301 413 335
3 413 301 414
3 301 415 414
3 301 293 415
3 293 416 415
3 416 293 417
3 337 417 293
3 293 339 337
3 293 285 339
3 417 337 418
3 337 419 418
3 337 335 419
3 335 420 419
3 420 335 413
3 421 423 422
3 421 424 423
3 425 424 421
3 425 421 426
3 427 425 426
3 427 426 428
3 429 427 428
3 429 430 427
3 431 430 429
3 431 432 430
3 433 435 434
3 433 436 435
3 422 433 434
3 422 423 433
3 436 431 435
3 436 432 431
3 437 439 438
3 437 440 439
3 438 439 441
3 438 441 442
3 443 445 444
3 443 446 445
3 447 446 443
3 447 443 448
3 447 448 449
3 447 449 450
3 451 453 452
3 451 454 453
3 455 451 452
3 455 456 451
3 454 457 453
3 454 458 457
3 459 461 460
3 459 462 461
3 461 463 460
3 461 464 463
3 464 465 463
3 464 466 465
3 465 466 456
3 465 456 455
3 457 462 459
3 457 458 462
3 467 469 468
3 467 470 469
3 399 395 398
3 399 392 395
3 471 473 472
3 471 474 473
3 472 473 390
3 472 390 387
3 475 477 476
3 475 478 477
3 479 478 475
3 479 480 478
3 477 481 476
3 477 482 481
3 482 483 481
3 482 484 483
3 483 484 485
3 483 485 486
3 480 487 478
3 480 488 487
3 478 489 477
3 478 487 489
3 477 490 482
3 477 489 490
3 482 491 484
3 482 490 491
3 484 492 485
3 484 491 492
3 493 495 494
3 493 496 495
3 493 497 496
3 493 498 497
3 495 499 494
3 495 500 499
3 480 502 501
3 480 479 502
3 502 503 501
3 502 504 503
3 504 485 503
3 504 486 485
3 503 505 501
3 503 506 505
3 485 506 503
3 501 488 480
3 501 505 488
3 485 492 506
3 507 509 508
3 507 510 509
3 511 507 508
3 511 508 512
3 509 510 513
3 509 513 514
3 514 513 515
3 514 515 516
3 515 517 516
3 515 518 517
3 512 508 519
3 512 519 520
3 508 521 519
3 508 509 521
3 509 522 521
3 509 514 522
3 514 523 522
3 514 516 523
3 516 524 523
3 516 517 524
3 525 527 526
3 525 528 527
3 525 526 529
3 525 529 530
3 527 528 531
3 527 531 532
3 512 533 511
3 512 534 533
3 533 534 535
3 533 535 536
3 536 535 517
3 536 517 518
3 535 534 537
3 535 537 538
3 517 535 538
3 534 520 537
3 534 512 520
3 517 538 524
3 539 541 540
3 539 542 541
3 543 545 544
3 543 546 545
3 543 544 547
3 543 547 548
3 549 544 545
3 549 545 550
3 550 545 546
3 550 546 551
3 551 546 543
3 552 550 551
3 552 553 550
3 552 551 554
3 551 555 554
3 551 556 555
3 551 543 556
3 556 543 548
3 556 557 555
3 556 558 557
3 556 559 558
3 556 548 559
3 548 560 559
3 548 561 560
3 548 562 561
3 548 547 562
3 547 563 562
3 564 563 565
3 564 566 563
3 547 565 563
3 565 547 544
3 565 544 549
3 567 569 568
3 567 570 569
3 567 571 570
3 567 572 571
3 564 557 558
3 564 573 557
3 573 555 557
3 573 574 555
3 549 574 573
3 549 575 574
3 549 550 575
3 565 573 564
3 565 549 573
3 574 576 555
3 574 577 576
3 575 577 574
3 555 576 552
3 555 552 554
3 575 553 577
3 553 575 550
3 558 566 564
3 558 578 566
3 559 578 558
3 559 560 578
3 579 581 580
3 579 582 581
3 583 580 581
3 583 581 584
3 584 581 582
3 584 582 585
3 585 582 579
3 585 579 586
3 587 589 588
3 587 590 589
3 591 593 592
3 591 594 593
3 592 593 595
3 592 595 596
3 593 597 595
3 597 598 595
3 599 595 598
3 599 600 595
3 597 601 598
3 601 602 598
3 601 603 602
3 598 604 599
3 598 602 604
3 596 605 592
3 596 606 605
3 607 605 606
3 607 608 605
3 592 605 608
3 592 608 591
3 609 611 610
3 609 612 611
3 613 594 591
3 613 600 594
3 600 614 594
3 615 614 600
3 614 615 601
3 614 601 597
3 594 614 597
3 615 600 599
3 594 597 593
3 615 603 601
3 615 616 603
3 599 616 615
3 599 604 616
3 591 607 613
3 591 608 607
3 617 619 618
3 617 620 619
3 620 621 619
3 620 622 621
3 623 625 624
3 623 626 625
3 626 627 625
3 626 628 627
3 624 625 629
3 624 629 630
3 631 625 627
3 631 629 625
3 631 627 632
3 630 629 633
3 630 633 634
3 634 633 635
3 629 635 633
3 629 631 635
3 634 635 636
3 632 627 637
3 627 638 637
3 627 639 638
3 632 637 640
3 632 640 641
3 628 626 642
3 628 642 643
3 644 643 642
3 644 642 645
3 626 645 642
3 626 623 645
3 646 640 647
3 646 641 640
3 637 647 640
3 637 638 647
3 638 646 647
3 638 648 646
3 648 638 639
3 648 639 624
3 649 624 639
3 649 623 624
3 639 628 649
3 639 627 628
3 648 624 650
3 650 624 630
3 650 630 634
3 650 634 636
3 649 628 643
3 649 643 644
3 623 649 644
3 623 644 645
3 651 653 652
3 651 654 653
3 653 654 655
3 653 655 656
3 651 658 657
3 651 652 658
3 659 661 660
3 659 662 661
3 662 663 661
3 662 664 663
3 660 661 665
3 661 663 665
3 665 663 666
3 665 666 667
3 668 665 667
3 660 665 668
3 668 667 669
3 669 667 670
3 669 670 671
3 672 674 673
3 672 675 674
3 676 663 677
3 676 666 663
3 669 676 677
3 669 677 668
3 677 660 668
3 678 660 677
3 678 659 660
3 666 676 679
3 666 679 680
3 667 666 680
3 667 680 670
3 676 671 679
3 676 669 671
3 659 678 681
3 659 681 682
3 681 683 682
3 681 684 683
3 664 683 684
3 664 662 683
3 662 682 683
3 662 659 682
3 685 687 686
3 685 688 687
3 686 690 689
3 686 687 690
