mtllib Ariados.mtl
v 0.0927816 0.08889148 0.0769418
vt 0.88665 0.0913038
vn 0.583517 -0.700009 -0.411698
v 0.136928 0.166844 0.0855568
vt 0.877023 0.17842
vn 0.8860334 0.01696171 -0.4633112
v 0.177562 0.109764 0.207798
vt 0.740411 0.11463
vn 0.9455512 -0.3251171 -0.0152276
v 0.0547358 0.164388 -0.0376937
vt 0.995912 0.175675
vn 0.5821481 -0.013238 -0.812975
v 0.100093 0.03067769 0.207798
vt 0.740411 0.0262468
vn 0.4267791 -0.9043241 -0.007589451
v 0 0.07678729 -0.0179241
vt 0.973819 0.0777767
vn 0 -0.7956027 -0.6058187
v 0 0.03126489 0.160023
vt 0.793802 0.026903
vn 0 -0.9812893 -0.1925391
v 0.161167 0.251698 0.207798
vt 0.740411 0.241992
vn 0.881658 0.471362 0.0222944
v 0.0927816 0.244796 0.0769417
vt 0.88665 0.265536
vn 0.5775631 0.6753881 -0.4585541
v 0 0.04345249 0.316284
vt 0.619173 0.0405233
vn 0 -0.9579761 0.286848
v 0.0889801 0.08761749 0.336955
vt 0.596072 0.08988
vn 0.5912761 -0.6000051 0.5388751
v -0.0547358 0.164388 -0.0376937
vn -0.5821481 -0.013238 -0.812975
v -0.0927816 0.08889148 0.0769418
vn -0.583517 -0.700009 -0.411698
v 0.0866276 0.302816 0.207798
vt 0.740411 0.330376
vn 0.3975299 0.9166907 -0.04059789
v 0 0.232257 -0.0243877
vt 0.981042 0.251522
vn 0 0.7352438 -0.6778028
v 0 0.304813 0.128914
vt 0.828568 0.332607
vn 0 0.9457181 -0.324988
v 0.141193 0.152728 0.295127
vt 0.622248 0.178311
vn 0.8435839 0.04796599 0.534851
v -0.100093 0.03067769 0.207798
vn -0.4267791 -0.9043241 -0.007589431
v 0 0.06970759 0.397555
vt 0.528348 0.0698647
vn 0 -0.596344 0.802729
v -0.0889801 0.08761749 0.336955
vn -0.5912761 -0.6000051 0.5388751
v 0 0.315929 0.279443
vt 0.660344 0.345031
vn 0 0.959805 0.280668
v 0.0823624 0.258947 0.323721
vt 0.610861 0.281349
vn 0.5641379 0.5489249 0.6167899
v -0.0927816 0.244796 0.0769417
vn -0.5775631 0.6753881 -0.4585541
v -0.136928 0.166844 0.0855568
vn -0.8860334 0.01696171 -0.4633112
v 0.0678225 0.153147 0.369386
vt 0.559828 0.178311
vn 0.548814 0.0987026 0.830097
v -0.177562 0.109764 0.207798
vn -0.9455512 -0.3251171 -0.0152276
v -0.0678225 0.153147 0.369386
vn -0.548814 0.0987026 0.830097
v -0.141193 0.152728 0.295127
vn -0.8435839 0.04796599 0.534851
v 0 0.250842 0.359753
vt 0.570593 0.272292
vn 0 0.5437101 0.8392732
v -0.0866276 0.302816 0.207798
vn -0.3975299 0.9166907 -0.04059789
v -0.0823624 0.258947 0.323721
vn -0.5641379 0.5489249 0.6167899
v 0 0.166747 0.389428
vt 0.53743 0.178311
vn 0 0.2146261 0.9766963
v -0.161167 0.251698 0.207798
vn -0.881658 0.471362 0.0222944
v 0.105551 0.323978 -0.268498
vt 0.207653 0.571656
vn 0.6176899 0.6468508 -0.4472619
v 0.149723 0.217971 -0.287428
vt 0.43982 0.584353
vn 0.8400697 0.110179 -0.5311718
v 0.060791 0.234686 -0.375504
vt 0.366165 0.872907
vn 0.6047019 0.129375 -0.7858739
v 0.177765 0.283032 -0.156773
vt 0.338709 0.258056
vn 0.9327574 0.3562281 0.05536502
v 0 0.317192 -0.365345
vt 0.103348 0.851388
vn 0 0.7093821 -0.7048241
v 0.107976 0.368566 -0.143969
vt 0.145281 0.265246
vn 0.5518271 0.8305251 0.07559691
v 0 0.376793 -0.255004
vt -0.0253638 0.569138
vn 0 0.936892 -0.349619
v 0 0.238099 -0.393484
vt 0.103348 0.885553
vn 0 0.1883841 -0.9820954
v 0.103882 0.302632 -0.0214204
vt 0.221672 -0.0179065
vn 0.6030819 0.5042759 0.6180599
v 0.15516 0.174318 -0.0574117
vt 0.331092 0.00649497
vn 0.8905808 -0.07695789 0.4482669
v -0.105551 0.323978 -0.268498
vn -0.6176893 0.6468513 -0.4472622
v 0 0.393266 -0.13705
vt 0 0.260567
vn 0 0.9974706 0.07108008
v -0.107976 0.368566 -0.143969
vn -0.5518278 0.8305247 0.07559687
v -0.060791 0.234686 -0.375504
vn -0.6047019 0.129375 -0.7858739
v 0 0.363542 -0.0514333
vt 0 0.0692486
vn 0 0.8300757 0.5576508
v -0.149723 0.217971 -0.287428
vn -0.8400697 0.110179 -0.5311718
v -0.103882 0.302632 -0.0214204
vn -0.6030819 0.5042759 0.6180599
v -0.177765 0.283032 -0.156773
vn -0.9327574 0.3562281 0.05536502
v -0.15516 0.174318 -0.0574117
vn -0.8905809 -0.07695779 0.448267
v 0.192705 0.14171 -0.183593
vt 0.47192 0.258056
vn 0.9440151 -0.318379 -0.08643091
vt 0.46583 0.00649497
v 0.103882 0.0838598 -0.0629398
vt 0.457513 -0.0179065
vn 0.563569 -0.771859 0.294319
vt 0.469497 0.258056
v 0.10863 0.0659469 -0.197972
vt 0.458283 0.258056
vn 0.345563 -0.9114339 -0.223326
vt 0.464948 0.568565
v 0.105551 0.15452 -0.300658
vt 0.457784 0.571656
vn 0.5012561 -0.5761391 -0.6456052
v 0.0798208 0.152809 0.0550912
vt 0.45361 -0.23792
vn 0.5394182 -0.1072151 0.8351844
v 0 0.0945392 -0.282606
vt 0.440664 0.495054
vn 0 -0.8344116 -0.5511418
v 0 0.05619 -0.0671566
vt 0.440664 -0.0200752
vn 0 -0.9967634 0.08039103
v -0.10863 0.0659469 -0.197972
vt 0.423044 0.258056
vn -0.345563 -0.9114339 -0.223326
vt 0.450524 0.872907
v 0 0.257798 0.0445016
vt 0.440664 -0.173948
vn 0 0.4230331 0.9061142
vt 0.440664 0.0692486
v 0 0.0805863 0.0536181
vt 0.440664 -0.263567
vn 0 -0.715537 0.698575
v -0.105551 0.15452 -0.300658
vt 0.423544 0.571656
vn -0.5012561 -0.5761391 -0.6456052
v 0 0.188322 -0.389802
vt 0.440664 0.887218
vn 0 -0.6066319 -0.7949829
vt 0.423814 -0.0179065
v -0.103882 0.0838598 -0.0629398
vn -0.563569 -0.771859 0.294319
v -0.0798208 0.152809 0.0550912
vt 0.427717 -0.23792
vn -0.5394183 -0.1072141 0.8351845
vt 0.430804 0.872907
v -0.192705 0.14171 -0.183593
vt 0.409408 0.258056
vn -0.9440151 -0.318379 -0.08643091
vt 0.416379 0.568565
vt 0.440664 0.921383
vt 0.415497 0.00649497
vt 0.411831 0.258056
v 0.101285 0.06717379 0.301496
vt 0.963053 0.412607
vn -0.2262031 -0.8185472 -0.5280271
v 0.134548 0.07352219 0.37508
vt 0.970708 0.414068
vn 0.883495 -0.244791 0.399392
v 0.0959661 0.04419949 0.422921
vt 0.961829 0.40732
vn -0.4561042 -0.4650452 0.7587503
v 0.145103 0.103519 0.326138
vt 0.973137 0.420971
vn 0.977714 0.109708 -0.178996
v 0.057466 0.105627 0.322698
vt 0.952969 0.421456
vn -0.9503276 -0.1626489 0.2653729
v 0.102962 0.123613 0.293354
vt 0.963439 0.425595
vn 0.0459861 0.522013 -0.851697
vn -0.6033084 0.4167503 -0.6799545
v 0.101285 0.141972 0.34734
vt 0.963053 0.429821
vn -0.2262031 0.8420112 0.4897442
v -0.101285 0.06717379 0.301496
vt 0.916435 0.412607
vn 0.2262029 -0.8185475 -0.5280267
v -0.0959662 0.04419949 0.422921
vt 0.917659 0.40732
vn 0.456105 -0.465045 0.75875
v -0.134548 0.07352219 0.37508
vt 0.90878 0.414068
vn -0.8834952 -0.2447901 0.3993921
v -0.057466 0.105627 0.322698
vt 0.926519 0.421456
vn 0.9503275 -0.1626499 0.2653729
v -0.145103 0.103519 0.326138
vt 0.906351 0.420971
vn -0.9777139 0.109709 -0.178996
v -0.102962 0.123613 0.293354
vt 0.916049 0.425595
vn -0.0459863 0.522013 -0.851697
vn 0.603308 0.41675 -0.679955
v -0.101285 0.141972 0.34734
vt 0.916435 0.429821
vn 0.2262031 0.8420112 0.4897442
v 0.271822 0.168529 0.0127015
vt 0.976885 0.873709
vn 0.7674809 0.5261371 -0.3662687
v 0.221598 0.1225128 -0.003723952
vt 0.896633 0.873709
vn -0.4034083 -0.7353914 -0.5444825
v 0.115884 0.1463448 0.02876873
vt 0.888592 0.94889
vn -0.6645204 -0.6149421 0.4245692
v 0.360286 -0.0001484713 0.1289905
vt 0.951447 0.632474
vn 0.088699 -0.8197901 0.5657532
v 0.221816 0.167688 0.06177779
vt 0.911933 0.873709
vn -0.3985841 0.247809 0.8830183
v -0.271822 0.168529 0.0127015
vn -0.7674809 0.5261371 -0.3662687
v -0.115884 0.1463448 0.02876873
vn 0.6645212 -0.614942 0.4245681
v -0.221598 0.1225128 -0.003723972
vn 0.403408 -0.7353919 -0.5444821
v -0.221816 0.167688 0.06177779
vn 0.398584 0.24781 0.8830181
v -0.360286 -0.0001484413 0.1289905
vn -0.08870026 -0.8197887 0.565755
v 0.300371 0.2045229 -0.124493
vn 0.6279164 0.7293334 -0.2716502
v 0.237305 0.1685269 -0.1433035
vn -0.6923862 -0.3253357 -0.6440172
v 0.152571 0.1551698 -0.05780289
vn -0.5248975 -0.8221959 0.2201738
v 0.40846 -0.001657984 -0.1781715
vn 0.1821177 -0.9777489 -0.104116
v 0.272698 0.1668248 -0.0658406
vn 0.02799086 -0.3610458 0.9321278
v -0.300371 0.2045229 -0.124493
vn -0.6279164 0.7293334 -0.2716502
v -0.152571 0.1551698 -0.05780279
vn 0.5248981 -0.8221953 0.2201746
v -0.237305 0.1685269 -0.1433035
vn 0.6923862 -0.3253357 -0.6440172
v -0.272698 0.1668248 -0.0658405
vn -0.02799065 -0.3610458 0.9321278
v -0.40846 -0.001658034 -0.1781715
vn -0.1821197 -0.9777489 -0.104113
v 0 0.322951 0.520135
vt 0.939744 0.47147
vn 0 0.3819931 0.9241652
v 0.0735234 0.235373 0.279549
vt 0.956664 0.451315
vn 0.9594793 0.149704 0.2387221
v 0 0.296552 0.251925
vt 0.939744 0.465394
vn 0 0.995191 -0.09795311
v 0 0.174194 0.307172
vt 0.939744 0.437236
vn 0 -0.8198037 0.5726448
v -0.0735234 0.235373 0.279549
vt 0.922824 0.451315
vn -0.9594793 0.149704 0.2387221
v -0.214883 0.484496 -0.214543
vt 0.987619 0.838795
vn -0.8980679 -0.377905 0.225082
v -0.246213 0.63829 -0.306143
vt 0.961846 0.979262
vn -0.4398579 0.7715779 -0.4595569
v -0.16944 0.477725 -0.269406
vt 0.961846 0.838796
vn 0 -0.5117171 -0.859154
v -0.16944 0.529512 -0.182458
vn 0 0.5117171 0.859154
v -0.0926673 0.368947 -0.145721
vt 0.961846 0.757325
vn 0.439857 -0.771579 0.459556
v -0.123996 0.522741 -0.237322
vt 0.935951 0.838796
vn 0.8980679 0.377905 -0.225082
v 0.214883 0.484496 -0.214542
vn 0.8980677 -0.3779049 0.2250829
v 0.16944 0.477725 -0.269406
v 0.246212 0.63829 -0.306143
vn 0.4398568 0.7715787 -0.4595568
v 0.0926673 0.368947 -0.145721
vn -0.4398561 -0.7715782 0.4595581
v 0.16944 0.529512 -0.182457
v 0.123996 0.522741 -0.237321
vn -0.8980677 0.3779049 -0.2250829
v 0 0.295883 -0.364388
vt 0.78674 0.455671
vn 0 0.9797781 -0.200087
v 0.0189137 0.255877 -0.468196
vt 0.838884 0.435575
vn 0.9380708 0.02471619 -0.3455609
v 0 0.274825 -0.467503
vt 0.838536 0.445093
vn 0 0.9582685 -0.2858698
v 0.0469964 0.248801 -0.366109
vt 0.787604 0.432021
vn 0.964058 -0.0060868 -0.265622
v -0.0189137 0.255877 -0.468196
vn -0.9380708 0.02471619 -0.3455609
v -0.0469964 0.248801 -0.366109
vn -0.964058 -0.0060868 -0.265622
v 0 0.236929 -0.468888
vt 0.839232 0.426057
vn 0 -0.9137161 -0.4063531
v 0 0.201719 -0.367831
vt 0.788469 0.408371
vn 0 -0.9443257 -0.3290119
vt 0.733662 0.609645
vt 0.51633 0.390355
vt 0.51633 0.609645
vt 0.733662 0.390355
o merged_0_0_node
g polygon_0
usemtl mat_body_mat_id
f 1/1/1 2/2/2 3/3/3
f 1/1/1 4/4/4 2/2/2
f 1/1/1 3/3/3 5/5/5
f 1/1/1 6/6/6 4/4/4
f 1/1/1 5/5/5 7/7/7
f 1/1/1 7/7/7 6/6/6
f 2/2/2 8/8/8 3/3/3
f 2/2/2 4/4/4 9/9/9
f 2/2/2 9/9/9 8/8/8
f 5/5/5 10/10/10 7/7/7
f 5/5/5 3/3/3 11/11/11
f 5/5/5 11/11/11 10/10/10
f 6/6/6 12/4/12 4/4/4
f 6/6/6 7/7/7 13/1/13
f 6/6/6 13/1/13 12/4/12
f 9/9/9 14/12/14 8/8/8
f 9/9/9 4/4/4 15/13/15
f 9/9/9 16/14/16 14/12/14
f 9/9/9 15/13/15 16/14/16
f 4/4/4 12/4/12 15/13/15
f 3/3/3 17/15/17 11/11/11
f 3/3/3 8/8/8 17/15/17
f 10/10/10 18/5/18 7/7/7
f 10/10/10 11/11/11 19/16/19
f 10/10/10 20/11/20 18/5/18
f 10/10/10 19/16/19 20/11/20
f 7/7/7 18/5/18 13/1/13
f 14/12/14 16/14/16 21/17/21
f 14/12/14 22/18/22 8/8/8
f 14/12/14 21/17/21 22/18/22
f 12/4/12 23/9/23 15/13/15
f 12/4/12 13/1/13 24/2/24
f 12/4/12 24/2/24 23/9/23
f 15/13/15 23/9/23 16/14/16
f 17/15/17 25/19/25 11/11/11
f 11/11/11 25/19/25 19/16/19
f 20/11/20 26/3/26 18/5/18
f 20/11/20 19/16/19 27/19/27
f 20/11/20 28/15/28 26/3/26
f 20/11/20 27/19/27 28/15/28
f 13/1/13 26/3/26 24/2/24
f 13/1/13 18/5/18 26/3/26
f 21/17/21 29/20/29 22/18/22
f 21/17/21 16/14/16 30/12/30
f 21/17/21 31/18/31 29/20/29
f 21/17/21 30/12/30 31/18/31
f 16/14/16 23/9/23 30/12/30
f 22/18/22 29/20/29 25/19/25
f 19/16/19 32/21/32 27/19/27
f 19/16/19 25/19/25 32/21/32
f 29/20/29 31/18/31 27/19/27
f 29/20/29 32/21/32 25/19/25
f 29/20/29 27/19/27 32/21/32
f 28/15/28 33/8/33 26/3/26
f 33/8/33 23/9/23 24/2/24
f 33/8/33 31/18/31 30/12/30
f 33/8/33 24/2/24 26/3/26
f 33/8/33 30/12/30 23/9/23
f 34/22/34 35/23/35 36/24/36
f 34/22/34 37/25/37 35/23/35
f 34/22/34 36/24/36 38/26/38
f 34/22/34 39/27/39 37/25/37
f 34/22/34 38/26/38 40/28/40
f 34/22/34 40/28/40 39/27/39
f 36/24/36 41/29/41 38/26/38
f 37/25/37 39/27/39 42/30/42
f 37/25/37 42/30/42 43/31/43
f 40/28/40 38/26/38 44/22/44
f 40/28/40 45/32/45 39/27/39
f 40/28/40 44/22/44 46/27/46
f 40/28/40 46/27/46 45/32/45
f 41/29/41 47/24/47 38/26/38
f 38/26/38 47/24/47 44/22/44
f 42/30/42 39/27/39 48/33/48
f 45/32/45 46/27/46 48/33/48
f 45/32/45 48/33/48 39/27/39
f 47/24/47 49/23/49 44/22/44
f 46/27/46 50/30/50 48/33/48
f 46/27/46 44/22/44 51/25/51
f 46/27/46 51/25/51 50/30/50
f 44/22/44 49/23/49 51/25/51
f 50/30/50 51/25/51 52/31/52
f 53/34/53 43/35/43 54/36/54
f 53/34/53 37/37/37 43/35/43
f 53/34/53 54/36/54 55/38/55
f 53/34/53 35/39/35 37/37/37
f 53/34/53 55/38/55 56/40/56
f 53/34/53 56/40/56 35/39/35
f 43/35/43 57/41/57 54/36/54
f 43/35/43 42/36/42 57/41/57
f 55/38/55 58/42/58 56/40/56
f 55/38/55 54/36/54 59/43/59
f 55/38/55 60/44/60 58/42/58
f 55/38/55 59/43/59 60/44/60
f 35/39/35 56/40/56 36/45/36
f 42/36/42 61/46/61 57/41/57
f 42/36/42 48/47/48 61/46/61
f 54/36/54 62/48/62 59/43/59
f 54/36/54 57/41/57 62/48/62
f 58/42/58 60/44/60 63/49/63
f 58/42/58 64/50/64 56/40/56
f 58/42/58 63/49/63 64/50/64
f 56/40/56 64/50/64 36/45/36
f 48/47/48 50/51/50 61/46/61
f 59/43/59 62/48/62 65/51/65
f 59/43/59 65/51/65 60/44/60
f 57/41/57 61/46/61 66/52/66
f 57/41/57 66/52/66 62/48/62
f 62/48/62 66/52/66 65/51/65
f 61/46/61 50/51/50 66/52/66
f 63/49/63 47/53/47 64/50/64
f 63/49/63 60/44/60 67/54/67
f 63/49/63 49/55/49 47/53/47
f 63/49/63 67/54/67 49/55/49
f 60/44/60 65/51/65 67/54/67
f 36/45/36 64/50/64 41/56/41
f 41/56/41 64/50/64 47/53/47
f 50/51/50 52/57/52 66/52/66
f 65/51/65 52/57/52 67/54/67
f 65/51/65 66/52/66 52/57/52
f 49/55/49 67/54/67 51/58/51
f 51/58/51 67/54/67 52/57/52
f 68/59/68 69/60/69 70/61/70
f 68/59/68 71/62/71 69/60/69
f 68/59/68 70/61/70 72/63/72
f 68/59/68 73/64/73 71/62/71
f 68/59/68 72/63/74 73/64/73
f 69/60/69 74/65/75 70/61/70
f 69/60/69 71/62/71 74/65/75
f 74/65/75 72/63/72 70/61/70
f 74/65/75 73/64/73 72/63/74
f 74/65/75 71/62/71 73/64/73
f 75/66/76 76/67/77 77/68/78
f 75/66/76 78/69/79 76/67/77
f 75/66/76 77/68/78 79/70/80
f 75/66/76 79/70/80 80/71/81
f 75/66/76 80/71/81 78/69/82
f 78/69/79 81/72/83 76/67/77
f 81/72/83 77/68/78 76/67/77
f 81/72/83 79/70/80 77/68/78
f 81/72/83 80/71/81 79/70/80
f 81/72/83 78/69/82 80/71/81
f 82/73/84 83/74/85 84/75/86
f 82/73/84 85/76/87 83/74/85
f 82/73/84 84/75/86 86/77/88
f 82/73/84 86/77/88 85/76/87
f 86/77/88 83/74/85 85/76/87
f 86/77/88 84/75/86 83/74/85
f 87/73/89 88/75/90 89/74/91
f 87/73/89 90/77/92 88/75/90
f 87/73/89 89/74/91 91/76/93
f 87/73/89 91/76/93 90/77/92
f 90/77/92 89/74/91 88/75/90
f 90/77/92 91/76/93 89/74/91
f 92/73/94 93/74/95 94/75/96
f 92/73/94 95/76/97 93/74/95
f 92/73/94 94/75/96 96/77/98
f 92/73/94 96/77/98 95/76/97
f 96/77/98 93/74/95 95/76/97
f 96/77/98 94/75/96 93/74/95
f 97/73/99 98/75/100 99/74/101
f 97/73/99 100/77/102 98/75/100
f 97/73/99 99/74/101 101/76/103
f 97/73/99 101/76/103 100/77/102
f 100/77/102 99/74/101 98/75/100
f 100/77/102 101/76/103 99/74/101
f 102/78/104 103/79/105 104/80/106
f 102/78/104 105/81/107 103/79/105
f 102/78/104 104/80/106 106/82/108
f 102/78/104 106/82/108 105/81/107
f 107/83/109 108/84/110 109/85/111
f 107/83/109 110/85/112 108/84/110
f 107/83/109 109/85/111 111/86/113
f 107/83/109 111/86/113 110/85/112
f 108/84/110 112/87/114 109/85/111
f 108/84/110 110/85/112 112/87/114
f 112/87/114 111/86/113 109/85/111
f 112/87/114 110/85/112 111/86/113
f 113/83/115 114/85/111 115/84/116
f 113/83/115 116/86/117 114/85/111
f 113/83/115 115/84/116 117/85/112
f 113/83/115 117/85/112 116/86/117
f 114/85/111 118/87/118 115/84/116
f 114/85/111 116/86/117 118/87/118
f 118/87/118 117/85/112 115/84/116
f 118/87/118 116/86/117 117/85/112
f 119/88/119 120/89/120 121/90/121
f 119/88/119 122/91/122 120/89/120
f 119/88/119 121/90/121 123/89/123
f 119/88/119 123/89/123 124/91/124
f 122/91/122 125/92/125 120/89/120
f 122/91/122 126/93/126 125/92/125
f 125/92/125 124/91/124 123/89/123
f 125/92/125 126/93/126 124/91/124
f 120/94/120 123/95/123 121/96/121
f 120/94/120 125/97/125 123/95/123
vt 0.198988 0.988843
vt 0.558482 0.752566
vt -0.0675143 0.753625
vt 1.21086 0.980576
o merged_1_0_node
g polygon_0
usemtl TEX_ANIM_EYE_mat_id
f 31/98/31 28/99/28 27/100/27
f 22/98/22 25/100/25 17/99/17
f 22/98/22 17/99/17 8/101/8
f 33/101/33 28/99/28 31/98/31
