mtllib Snorunt.mtl
v 0 0.02548501 0
vt 0.81623 0.439399
vn 0 -1 -0.000123623
v 0 0.04221771 -0.122561
vt 0.81623 0.441795
vn 0 -0.7788983 -0.6271502
v 0.0994384 0.04221771 -0.0867302
vt 0.828929 0.441795
vn 0.3246559 -0.8574947 -0.3991258
v -0.0994384 0.04221771 -0.0867302
vt 0.803531 0.441795
vn -0.3246559 -0.8574947 -0.3991258
v 0.086153 3.72529E-09 0
vt 0.827657 0.43607
vn 0.144818 -0.9894583 0.000169502
v -0.0861529 3.72529E-09 0
vt 0.804803 0.43607
vn -0.144818 -0.9894583 0.000169547
v 0.0994384 0.04221771 0.0862744
vn 0.3252149 -0.8569258 0.3998919
v -0.0994384 0.04221771 0.0862744
vn -0.3252149 -0.8569258 0.3998919
v 0 0.04221771 0.122105
vn 0 -0.8483223 0.5294802
v 0.142975 0.103297 -0.140837
vt 0.834489 0.449557
vn 0.6277822 -0.2657691 -0.7316122
v -0.142975 0.103297 -0.140837
vt 0.797971 0.449557
vn -0.6277822 -0.2657691 -0.7316122
v 0 0.152326 -0.186816
vt 0.81623 0.454764
vn 0 -0.1562499 -0.9877176
v 0.162502 0.0621075 -0.00022791
vt 0.836983 0.444323
vn 0.81793 -0.575317 -0.000955091
v -0.162502 0.0621075 -0.00022791
vt 0.795477 0.444323
vn -0.81793 -0.575317 -0.000955048
v 0.142975 0.103297 0.140381
vn 0.6548152 -0.3102981 0.6891532
v -0.142975 0.103297 0.140381
vn -0.6548152 -0.3102981 0.6891532
v 0 0.126281 0.198623
vt 0.81623 0.449557
vn 0 -0.3025788 0.9531244
v 0.131358 0.220238 -0.133935
vt 0.837407 0.464318
vn 0.6592157 0.1492329 -0.7369968
v -0.131358 0.220238 -0.133935
vt 0.795053 0.464318
vn -0.6592157 0.1492329 -0.7369968
v 0 0.26499 -0.172695
vt 0.81623 0.470491
vn 0 0.124361 -0.992237
v -0.209062 0.161931 0.000601457
vt 0.788431 0.456053
vn -0.9997426 -0.01876439 -0.0127486
v -0.138882 0.220238 0.142122
vn -0.7070802 0.163902 0.6878762
v 0.209062 0.161931 0.000601457
vt 0.844029 0.456053
vn 0.9997426 -0.01876449 -0.01274869
v -0.174098 0.268357 0.00079854
vt 0.787612 0.470955
vn -0.9238162 0.3702541 0.09734281
v -0.105205 0.308808 0.128477
vt 0.797681 0.476535
vn -0.6703001 0.446627 0.59264
v 0.138882 0.220238 0.142122
vn 0.7070802 0.163902 0.6878762
v 0.174099 0.268357 0.00079854
vt 0.844848 0.470955
vn 0.9238165 0.3702532 0.09734285
v -0.119407 0.358977 0.00079854
vt 0.79314 0.483455
vn -0.8039927 0.5261618 0.2770369
v -0.0461273 0.416239 0.0849226
vt 0.804377 0.489731
vn -0.6054321 0.6242661 0.4937041
v 0 0.337096 0.172637
vt 0.81623 0.476535
vn 0 0.4554251 0.8902742
v 0.105205 0.308808 0.128477
vt 0.834779 0.476535
vn 0.6703001 0.446627 0.59264
v 0.119407 0.358977 0.00079854
vt 0.83932 0.483455
vn 0.8039927 0.5261618 0.2770369
v -0.0701562 0.43182 0.00079854
vt 0.80379 0.491286
vn -0.7654513 0.6264802 0.146993
v -0.0359945 0.463027 -0.0533076
vn -0.6402164 0.7548475 -0.1425771
v 0.0461273 0.416239 0.0849226
vt 0.828083 0.489731
vn 0.6054317 0.6242667 0.4937038
v 0 0.416239 0.11276
vt 0.81623 0.489731
vn 0 0.702935 0.7112541
v 0 0.498849 0.00079854
vt 0.81623 0.493306
vn 0 0.964975 0.262342
v 0.0701562 0.43182 0.00079854
vt 0.82867 0.491286
vn 0.7654513 0.6264802 0.146993
v 0.0359945 0.463027 -0.0533076
vn 0.6402164 0.7548475 -0.1425771
v 0 0.471125 -0.06524
vt 0.81623 0.490539
vn 0 0.9220449 -0.3870829
v 0 0.583291 0
vt 0.0551202 0.938648
vn 0 -0.797503 0.603315
v 0 0.08532931 -0.2571
vt 0.0551202 0.974808
vn 0 -0.4587668 0.8885567
v 0.181797 0.08532931 -0.181797
vt 0.0806889 0.964216
vn -0.6283045 -0.4587667 0.6283045
v -0.181797 0.08532931 -0.181797
vt 0.0295514 0.964216
vn 0.628305 -0.4587669 0.6283039
v 0.2571 0.08532931 0
vt 0.0912799 0.938648
vn -0.8807286 -0.4186738 0.2214259
v -0.2571 0.08532931 0
vt 0.0189604 0.938648
vn 0.8807286 -0.4186738 0.2214259
v 0.188163 0.22867 0.0881089
vt 0.0815843 0.926256
vn -0.8958635 -0.4253912 -0.1283391
v -0.188163 0.22867 0.0881089
vt 0.0286561 0.926256
vn 0.8958634 -0.4253912 -0.1283401
v 0 0.484807 0.0703885
vt 0.0551202 0.928748
vn -0.5815729 -0.4730239 -0.6618318
vn 0.5815729 -0.4730239 -0.6618318
v 0.181797 0.08532931 0.181797
vt 0.0806889 0.913079
vn -0.698394 -0.369582 -0.612907
v -0.181797 0.08532931 0.181797
vt 0.0295514 0.913079
vn 0.698394 -0.369582 -0.612907
v 0.0908986 0.08532931 0.23294
vt 0.0679045 0.905886
vn -0.5298108 -0.3974868 -0.7492027
v -0.0908986 0.08532931 0.23294
vt 0.0423358 0.905886
vn 0.5298113 -0.3974872 -0.7492023
v -0.0791579 0.180736 0.20487
vt 0.0439871 0.909834
vn 0.6379079 -0.288571 -0.714003
v 0.0791579 0.180736 0.20487
vt 0.0662533 0.909834
vn -0.6379079 -0.288571 -0.714003
v 0.114196 0.140372 0.250106
vt 0.922627 0.474687
vn 0.8506509 0 0.525731
v 0.0993781 0.101579 0.22613
vt 0.940314 0.446069
vn 0.525731 -0.8506509 0
v 0.114196 0.140372 0.202155
vt 0.958001 0.474687
vn 0.8506509 0 -0.525731
v 0.0754027 0.116396 0.264924
vt 0.911696 0.457
vn 0 -0.525731 0.8506509
v 0.0993781 0.179165 0.22613
vt 0.940314 0.503305
vn 0.525731 0.8506509 0
v 0.0754027 0.164347 0.264924
vt 0.911696 0.492374
vn 0 0.525731 0.8506509
v 0.0754027 0.116396 0.187337
vt 0.968932 0.457
vn 0 -0.525731 -0.8506509
v 0.0514272 0.101579 0.22613
vn -0.525731 -0.8506509 0
v 0.0514272 0.179165 0.22613
vn -0.525731 0.8506509 0
v 0.0754027 0.164347 0.187337
vt 0.968932 0.492374
vn 0 0.525731 -0.8506509
v 0.0366095 0.140372 0.250106
vn -0.8506509 0 0.525731
v 0.0366095 0.140372 0.202155
vn -0.8506509 0 -0.525731
v -0.114196 0.140372 0.250106
v -0.114196 0.140372 0.202155
v -0.0993781 0.101579 0.22613
v -0.0993781 0.179165 0.22613
v -0.0754027 0.116396 0.264924
v -0.0754027 0.164347 0.264924
v -0.0754027 0.116396 0.187337
v -0.0754027 0.164347 0.187337
v -0.0366095 0.140372 0.250106
v -0.0514272 0.101579 0.22613
v -0.0514272 0.179165 0.22613
v -0.0366095 0.140372 0.202155
vt 0.99159 0.576553
vt 0.571259 0.94536
vt 0.529727 0.530529
v 0 0.243222 0.201608
vt 0.99159 0.991385
vn 0 0.1209909 0.9926536
v 0 0.611367 0
vt 0.35035 1.12856
vn 0 0.9070046 -0.4211208
v 0.149753 0.22785 -0.1491
vt 0.0504626 0.384251
vn 0.6335006 0.4661527 -0.6175587
v 0 0.22785 -0.21113
vt 0.35035 0.384251
vn 0 0.46538 -0.885111
v 0.211783 0.22785 0.000652586
vt -0.229243 0.384251
vn 0.8752838 0.4627309 -0.140565
v -0.149753 0.22785 -0.1491
vn -0.6335006 0.4661527 -0.6175587
v -0.211783 0.22785 0.000652586
vn -0.8752838 0.4627309 -0.140565
vt 1.0028 0.355385
vt 0.825056 0.355385
v 0.197798 0.08532931 -0.197798
vt 0.69662 0.0165677
vn 0.654147 0.4325349 -0.6204879
v 0 0.08532931 -0.279729
vt 1.05061 0.0165677
vn 0 0.4337021 -0.9010563
v -0.197798 0.08532931 -0.197798
vn -0.654147 0.4325349 -0.6204879
vt 0.499351 0.982766
vt 0.499351 0.337704
vt 0.381721 0.364419
vn -0.8112162 0.4509881 0.3722071
vt 0.381721 0.804133
vn 0 0.4860488 0.8739317
vn 0.8112162 0.4509881 0.3722071
v -0.279729 0.08532931 0
vt 0.499351 0.0165677
vn -0.9144048 0.4038459 -0.02779089
v 0.279729 0.08532931 0
vn 0.9144048 0.4038459 -0.02779089
vt 0.0220929 0.364419
vn 0.4618331 0.5342131 0.7080442
v 0.197798 0.08532931 0.197798
vt 0.25116 0.0165677
vn 0.6931648 0.4541619 0.5596959
v -0.197798 0.08532931 0.197798
vn -0.6931648 0.4541619 0.5596959
vn -0.4618331 0.5342131 0.7080442
v 0.0988991 0.08532931 0.253443
vt 0.0185155 0.0165677
vn 0.3208731 0.4815941 0.8155413
vt 0.0534892 0.0165677
vn -0.931557 -0.007687139 0.363514
v -0.0988991 0.08532931 0.253443
vn -0.320874 0.481594 0.815541
vn 0.9315565 -0.007686744 0.3635152
vt 1.04173 0.0165677
vt 0.719896 0.0165677
vt 0.568076 0.0165677
vt 0.182436 0.0165677
vt 0.385301 0.364419
o merged_0_0_node
g polygon_0
usemtl mat_body_mat_id
f 1/1/1 2/2/2 3/3/3
f 1/1/1 4/4/4 2/2/2
f 1/1/1 3/3/3 5/5/5
f 1/1/1 6/6/6 4/4/4
f 1/1/1 5/5/5 7/3/7
f 1/1/1 8/4/8 6/6/6
f 1/1/1 7/3/7 9/2/9
f 1/1/1 9/2/9 8/4/8
f 2/2/2 10/7/10 3/3/3
f 2/2/2 4/4/4 11/8/11
f 2/2/2 12/9/12 10/7/10
f 2/2/2 11/8/11 12/9/12
f 5/5/5 13/10/13 7/3/7
f 5/5/5 3/3/3 13/10/13
f 3/3/3 10/7/10 13/10/13
f 6/6/6 8/4/8 14/11/14
f 6/6/6 14/11/14 4/4/4
f 4/4/4 14/11/14 11/8/11
f 9/2/9 7/3/7 15/7/15
f 9/2/9 16/8/16 8/4/8
f 9/2/9 15/7/15 17/12/17
f 9/2/9 17/12/17 16/8/16
f 8/4/8 16/8/16 14/11/14
f 7/3/7 13/10/13 15/7/15
f 12/9/12 18/13/18 10/7/10
f 12/9/12 11/8/11 19/14/19
f 12/9/12 20/15/20 18/13/18
f 12/9/12 19/14/19 20/15/20
f 16/8/16 21/16/21 14/11/14
f 16/8/16 22/14/22 21/16/21
f 11/8/11 21/16/21 19/14/19
f 11/8/11 14/11/14 21/16/21
f 13/10/13 23/17/23 15/7/15
f 13/10/13 10/7/10 23/17/23
f 10/7/10 18/13/18 23/17/23
f 22/14/22 24/18/24 21/16/21
f 22/14/22 25/19/25 24/18/24
f 21/16/21 24/18/24 19/14/19
f 15/7/15 23/17/23 26/13/26
f 18/13/18 27/20/27 23/17/23
f 23/17/23 27/20/27 26/13/26
f 25/19/25 28/21/28 24/18/24
f 25/19/25 29/22/29 28/21/28
f 25/19/25 30/23/30 29/22/29
f 27/20/27 31/24/31 26/13/26
f 27/20/27 32/25/32 31/24/31
f 28/21/28 29/22/29 33/26/33
f 28/21/28 33/26/33 34/22/34
f 30/23/30 31/24/31 35/27/35
f 30/23/30 36/28/36 29/22/29
f 30/23/30 35/27/35 36/28/36
f 31/24/31 32/25/32 35/27/35
f 33/26/33 37/29/37 34/22/34
f 33/26/33 29/22/29 37/29/37
f 36/28/36 35/27/35 37/29/37
f 36/28/36 37/29/37 29/22/29
f 32/25/32 38/30/38 35/27/35
f 32/25/32 39/27/39 38/30/38
f 38/30/38 37/29/37 35/27/35
f 38/30/38 39/27/39 37/29/37
f 34/22/34 37/29/37 40/31/40
f 40/31/40 37/29/37 39/27/39
f 41/32/41 42/33/42 43/34/43
f 41/32/41 44/35/44 42/33/42
f 41/32/41 43/34/43 45/36/45
f 41/32/41 46/37/46 44/35/44
f 41/32/41 45/36/45 47/38/47
f 41/32/41 48/39/48 46/37/46
f 41/32/41 47/38/47 49/40/49
f 41/32/41 49/40/50 48/39/48
f 45/36/45 50/41/51 47/38/47
f 46/37/46 48/39/48 51/42/52
f 50/41/51 52/43/53 47/38/47
f 48/39/48 53/44/54 51/42/52
f 48/39/48 54/45/55 53/44/54
f 52/43/53 55/46/56 47/38/47
f 56/47/57 57/48/58 58/49/59
f 56/47/57 59/50/60 57/48/58
f 56/47/57 58/49/59 60/51/61
f 56/47/57 61/52/62 59/50/60
f 56/47/57 60/51/61 61/52/62
f 57/48/58 62/53/63 58/49/59
f 57/48/58 59/50/60 63/48/64
f 57/48/58 63/48/64 62/53/63
f 60/51/61 64/51/65 61/52/62
f 60/51/61 58/49/59 65/54/66
f 60/51/61 65/54/66 64/51/65
f 58/49/59 62/53/63 65/54/66
f 59/50/60 66/47/67 63/48/64
f 59/50/60 61/52/62 66/47/67
f 61/52/62 64/51/65 66/47/67
f 62/53/63 67/49/68 65/54/66
f 62/53/63 63/48/64 67/49/68
f 67/49/68 66/47/67 64/51/65
f 67/49/68 64/51/65 65/54/66
f 67/49/68 63/48/64 66/47/67
f 68/47/67 69/49/68 70/48/64
f 68/47/67 71/51/65 69/49/68
f 68/47/67 70/48/64 72/50/60
f 68/47/67 73/52/62 71/51/65
f 68/47/67 72/50/60 73/52/62
f 69/49/68 74/53/63 70/48/64
f 69/49/68 71/51/65 75/54/66
f 69/49/68 75/54/66 74/53/63
f 72/50/60 76/47/57 73/52/62
f 72/50/60 70/48/64 77/48/58
f 72/50/60 77/48/58 76/47/57
f 70/48/64 74/53/63 77/48/58
f 71/51/65 78/51/61 75/54/66
f 71/51/65 73/52/62 78/51/61
f 73/52/62 76/47/57 78/51/61
f 74/53/63 79/49/59 77/48/58
f 74/53/63 75/54/66 79/49/59
f 79/49/59 76/47/57 77/48/58
f 79/49/59 78/51/61 76/47/57
f 79/49/59 75/54/66 78/51/61
f 17/55/17 22/56/22 16/57/16
f 17/55/17 80/58/69 22/56/22
f 17/55/17 26/56/26 80/58/69
f 17/55/17 15/57/15 26/56/26
f 81/59/70 82/60/71 83/61/72
f 81/59/70 84/62/73 82/60/71
f 81/59/70 83/61/72 85/60/74
f 81/59/70 85/60/74 86/62/75
f 83/63/72 82/64/71 87/65/76
f 83/63/72 87/65/76 88/66/77
f 83/63/72 88/66/77 89/65/78
f 83/63/72 89/65/78 85/64/74
f 81/67/70 86/68/75 48/69/79
f 81/67/70 48/69/79 49/70/80
f 81/67/70 49/70/80 47/69/81
f 81/67/70 47/69/81 84/68/73
f 86/68/75 90/71/82 48/69/79
f 47/69/81 91/71/83 84/68/73
f 47/69/81 55/72/84 92/73/85
f 48/69/79 93/73/86 54/72/87
f 55/72/84 94/74/88 92/73/85
f 55/72/84 52/75/89 94/74/88
f 93/73/86 95/74/90 54/72/87
f 95/74/90 53/75/91 54/72/87
f 88/66/1 87/65/1 42/76/1
f 88/66/1 42/76/1 44/77/1
f 88/66/1 44/77/1 89/65/1
f 87/65/1 43/77/1 42/76/1
f 89/66/1 46/77/1 90/65/1
f 89/66/1 44/76/1 46/77/1
f 90/78/1 51/79/1 93/79/1
f 90/78/1 46/78/1 51/79/1
f 92/79/1 45/78/1 91/78/1
f 92/79/1 50/79/1 45/78/1
f 91/65/1 43/76/1 87/66/1
f 91/65/1 45/77/1 43/76/1
f 90/65/82 85/63/74 89/66/78
f 90/65/82 86/64/75 85/63/74
f 91/65/83 82/63/71 84/64/73
f 91/65/83 87/66/76 82/63/71
f 51/73/1 95/74/1 93/73/1
f 51/73/1 53/75/1 95/74/1
f 94/74/1 50/73/1 92/73/1
f 94/74/1 52/75/1 50/73/1
f 90/78/82 93/79/86 48/80/79
f 92/79/85 91/78/83 47/80/81
vt 1.03094 0.7334
vt -0.834128 0.772857
vt 0.682576 0.970627
vt -0.834128 1.03067
o merged_1_0_node
g polygon_0
usemtl TEX_ANIM_EYE_mat_id
f 22/81/22 80/82/69 25/83/25
f 25/83/25 80/82/69 30/84/30
f 26/81/26 31/83/31 80/82/69
f 80/82/69 31/83/31 30/84/30
