mtllib Zapdos.mtl
v -0.109322 0.341826 -0.0332428
vt 0.601207 0.884031
vn 0.208572 0.9357859 -0.284258
v 0 0.334941 -0.0591334
vn 0 0.9700428 -0.242934
v 0 0.302329 -0.17844
vn 0 0.9326892 -0.3606811
v 0 0.369516 0.0937794
vn 0 0.9984895 -0.05494327
v -0.182848 0.297173 -0.109297
vn -0.4577378 0.2372769 -0.8568406
v -0.106118 0.368277 0.142035
vn 0.00683722 0.905853 0.423537
v -0.338973 0.3923791 -0.1852302
vn 0.4531267 0.784257 -0.4238127
v -0.2365851 0.4098464 0.1858749
vn 0.5347131 0.8450329 0.001123529
v -0.2772371 0.3760256 -0.08298553
vn 0.2940941 0.8707321 -0.3941246
v -0.4943166 0.5992236 0.2951472
vn 0.465274 0.874082 -0.1396454
v -0.4650297 0.5102647 -0.01750643
vn 0.4080034 0.8832206 -0.2312028
v -0.3429921 0.4435717 0.03179571
vn 0.3358673 0.9147922 -0.2243843
v 0.109322 0.341826 -0.0332427
vn -0.208572 0.9357859 -0.284258
v 0 0.233584 -0.351285
vn 0 -0.05728479 -0.9983579
v -0.182848 0.170469 -0.175108
vn -0.779487 -0.27978 -0.560467
v -0.202621 0.22707 0.0112117
vn -0.8235829 -0.5435889 0.161933
vn -0.6738802 -0.7249832 -0.1424248
v -0.2920456 0.4696624 0.2759555
vn 0.2378311 -0.0269078 0.9709337
v 0 0.350764 0.393999
vn 0 0.241331 0.9704429
v -0.106118 0.235188 0.155352
vn -0.5820541 -0.48349 0.653797
v 0.182848 0.297173 -0.109297
vn 0.4577382 0.2372771 -0.8568403
v 0.106118 0.368277 0.142035
vn -0.006837107 0.9058526 0.4235378
v 0.3389753 0.3923807 -0.185228
vn -0.4531272 0.7842568 -0.4238125
v 0.2365863 0.4098468 0.1858728
vn -0.07391017 0.05085374 0.9959674
v 0.2772378 0.3760268 -0.08298448
vn -0.2940929 0.8707333 -0.3941229
v 0.4943213 0.599225 0.2951431
vn -0.4652741 0.874082 -0.1396444
v 0.4650333 0.5102666 -0.01750649
vn -0.4080035 0.8832211 -0.2312004
v 0.3429944 0.4435729 0.03179532
vn -0.3358651 0.9147933 -0.2243829
v -0.18496 0.14781 0.0344406
vn -0.7122474 -0.5626513 0.4196752
v 0 0.0858997 -0.163218
vn -0.000184801 -0.767677 -0.640837
vn -0.8158446 -0.5397722 -0.2074697
vn -0.4317191 -0.7184433 0.545397
v 0.2920473 0.4696628 0.2759522
vn -0.2378386 -0.02690917 0.9709319
v 0.106118 0.235187 0.155352
vn 0.5820547 -0.4834898 0.6537967
v 0.202621 0.22707 0.0112118
vn 0.8235829 -0.5435889 0.161933
vn 0.6506537 -0.7117935 0.2645748
v 0.182848 0.170469 -0.175108
vn 0.7795271 -0.279746 -0.5604281
vn 0.6738849 -0.7249793 -0.1424226
v 0 0.0593876 0.0469934
vn -3.28852E-05 -0.8404469 0.541894
vn -0.7329314 -0.6802108 -0.01117203
vn -0.6506505 -0.7117953 0.2645779
vn 0.8314723 -0.5478055 0.09253619
v 0 0.187177 0.186406
vn 0 -0.7649087 0.6441388
vn 0.8158488 -0.5397661 -0.2074689
v 0.184959 0.14781 0.0344407
vn 0.7122882 -0.5625981 0.4196771
vn -0.8314683 -0.5478112 0.09253791
vn 0.7329351 -0.6802068 -0.01117425
v 0.144807 0.602793 0.4250669
vt 0.820597 0.831857
vn -0.125331 0.4035418 -0.9063367
v 0.213707 0.47344 0.398555
vn 0.499612 0.0183497 -0.866055
v 0.0937669 0.5814431 0.3129019
vn 0.3167931 0.5675651 -0.7599421
v 0.392175 0.686282 0.3059679
vn 0.3867501 0.7131541 -0.5846671
v 0 0.663545 0.5032589
v 0.206186 0.617772 0.4152509
vn 0.415574 0.8722869 0.257709
v 0.180658 0.8661001 0.4497939
vn 0.04865409 0.9987698 0.009578888
v 0.28912 0.727511 0.4127029
vn 0.9643615 -0.2185679 0.1491139
v 0.180225 0.6702811 0.4755509
vn 0.8005331 0.5523941 0.232395
v 0.144807 0.351821 0.3471379
vn 0.1172199 -0.3938507 -0.9116694
v 0.251226 0.444033 0.507112
vn 0.9418419 -0.31666 0.112518
v 0.301944 0.322336 0.262816
vn 0.7063349 -0.373985 -0.6010209
v 0 0.609174 0.6783649
vn 0 0.633933 0.773388
v -0.0937669 0.5814431 0.3129019
vn -0.3167931 0.5675651 -0.7599421
v -0.180658 0.8661001 0.4497939
vn -0.04865389 0.9987698 0.009578998
v -0.144807 0.602793 0.4250669
vn 0.1253311 0.4035422 -0.9063365
v 0.134093 0.519412 0.6935959
vn 0.5237932 0.2747281 0.8063282
v 0.187123 0.266849 0.4720909
vn 0.8051644 -0.4933293 -0.3291452
v 0 0.420517 0.2626429
vn 0 -0.149704 -0.9887309
v 0 0.257464 0.3771679
vn 0 -0.7995489 -0.600601
v 0.280022 0.513875 0.5473549
vn 0.8303667 0.102905 0.5476328
v 0.178975 0.343135 0.6324189
vn 0.744961 -0.346619 0.5699899
v -0.180225 0.6702811 0.4755509
vn -0.8005331 0.5523941 0.232395
v -0.213707 0.47344 0.398555
vn -0.499612 0.0183497 -0.866055
v -0.28912 0.727511 0.4127029
vn -0.9643614 -0.2185681 0.1491141
v -0.392175 0.686282 0.3059679
vn -0.3867501 0.7131541 -0.5846671
v -0.206186 0.617772 0.4152509
vn -0.415574 0.8722869 0.257709
v 0 0.490115 0.7490019
vn 0 0.2141251 0.9768063
v -0.134093 0.519412 0.6935959
vn -0.5237932 0.2747281 0.8063282
v 0.207585 0.210529 0.4010479
vn 0.3074969 -0.8637608 -0.3992029
v 0.118843 0.262509 0.6308599
vn 0.5055677 -0.7202456 0.4750237
v -0.144807 0.351821 0.3471379
vn -0.1172199 -0.3938507 -0.9116694
v 0 0.365583 0.745912
vn 0 -0.2403341 0.9706903
v -0.251226 0.444033 0.507112
vn -0.9418419 -0.31666 0.112518
v -0.280022 0.513875 0.5473549
vn -0.8303667 0.102905 0.5476328
v 0 0.203093 0.5522729
vn 0 -0.9952314 0.09754194
v -0.301944 0.322336 0.262816
vn -0.7063349 -0.373985 -0.6010209
v -0.187123 0.266849 0.4720909
vn -0.8051648 -0.4933288 -0.3291449
v 0 0.256492 0.6856039
vn 0 -0.7215017 0.6924127
v -0.118843 0.262509 0.6308599
vn -0.5055677 -0.7202456 0.4750237
v -0.178975 0.343135 0.6324189
vn -0.744961 -0.346619 0.5699899
v -0.207585 0.210529 0.4010479
vn -0.3074969 -0.8637608 -0.3992029
v -0.0993543 -0.00052896 -0.114595
vt 0.933266 0.0204743
vn -0.342793 -0.9243729 -0.167415
vt 0.927298 0.98503
vt 0.92974 0.98503
vt 0.9339 0.98503
vt 0.935892 0.98503
v 0.0993346 -0.00063905 -0.11464
vt 0.933268 0.0199192
vn 0.3025661 -0.8770312 -0.3731891
v 0 0.326107 0.8130379
vt 0.03125 0.364038
vn 0 0.7969743 0.6040133
v -0.0861274 0.318181 0.669412
vt 0.839205 0.235589
vn -0.7599822 0.4884402 0.4287811
v 0 0.20505 0.992304
vt 0.0250992 0.241561
vn 0 0.8287364 0.5596392
v 0 0.409431 0.7463579
vt 0.526727 0.71885
v 0.0861274 0.318181 0.669412
vn 0.7599822 0.4884402 0.4287811
v 0 0.260085 0.6545869
vt 0.8125 0.03125
vn 0 -0.9869803 -0.160841
vn -0.569838 -0.811058 -0.132172
vn 0.5698387 -0.8110576 -0.1321719
o merged_0_0_node
g polygon_0
usemtl mat_body_mat_id
f 1/1/1 2/1/2 3/1/3
f 1/1/1 4/1/4 2/1/2
f 1/1/1 3/1/3 5/1/5
f 1/1/1 6/1/6 4/1/4
f 1/1/1 5/1/5 7/1/7
f 1/1/1 8/1/8 6/1/6
f 1/1/1 7/1/7 9/1/9
f 1/1/1 10/1/10 8/1/8
f 1/1/1 9/1/9 11/1/11
f 1/1/1 12/1/12 10/1/10
f 1/1/1 11/1/11 12/1/12
f 2/1/2 13/1/13 3/1/3
f 2/1/2 4/1/4 13/1/13
f 5/1/5 3/1/3 14/1/14
f 5/1/5 14/1/14 15/1/15
f 5/1/5 15/1/15 16/1/16
f 5/1/5 16/1/16 7/1/17
f 6/1/6 8/1/8 17/1/18
f 6/1/6 18/1/19 4/1/4
f 6/1/6 17/1/18 19/1/20
f 6/1/6 19/1/20 18/1/19
f 13/1/13 20/1/21 3/1/3
f 13/1/13 4/1/4 21/1/22
f 13/1/13 22/1/23 20/1/21
f 13/1/13 21/1/22 23/1/24
f 13/1/13 24/1/25 22/1/23
f 13/1/13 23/1/24 25/1/26
f 13/1/13 26/1/27 24/1/25
f 13/1/13 25/1/26 27/1/28
f 13/1/13 27/1/28 26/1/27
f 4/1/4 18/1/19 21/1/22
f 3/1/3 20/1/21 14/1/14
f 15/1/15 28/1/29 16/1/16
f 15/1/15 14/1/14 29/1/30
f 7/1/17 16/1/16 9/1/31
f 17/1/18 8/1/32 19/1/20
f 23/1/24 21/1/22 30/1/33
f 23/1/24 30/1/33 31/1/34
f 23/1/24 31/1/34 32/1/35
f 23/1/24 32/1/35 25/1/36
f 21/1/22 18/1/19 31/1/34
f 21/1/22 31/1/34 30/1/33
f 20/1/21 33/1/37 14/1/14
f 20/1/21 22/1/38 32/1/35
f 20/1/21 32/1/35 33/1/37
f 14/1/14 33/1/37 29/1/30
f 28/1/29 19/1/20 16/1/16
f 28/1/29 34/1/39 19/1/20
f 9/1/31 16/1/16 11/1/40
f 8/1/32 16/1/16 19/1/20
f 8/1/32 10/1/41 16/1/16
f 25/1/36 32/1/35 27/1/42
f 18/1/19 35/1/43 31/1/34
f 18/1/19 19/1/20 35/1/43
f 35/1/43 19/1/20 34/1/39
f 35/1/43 34/1/39 31/1/34
f 22/1/38 24/1/44 32/1/35
f 33/1/37 32/1/35 36/1/45
f 36/1/45 31/1/34 34/1/39
f 36/1/45 32/1/35 31/1/34
f 11/1/40 16/1/16 12/1/46
f 12/1/46 16/1/16 10/1/41
f 27/1/42 32/1/35 26/1/47
f 26/1/47 32/1/35 24/1/44
f 37/2/48 38/2/49 39/2/50
f 37/2/48 40/2/51 38/2/49
f 37/2/48 39/2/50 41/2/3
f 37/2/48 42/2/52 40/2/51
f 37/2/48 41/2/3 43/2/53
f 37/2/48 44/2/54 42/2/52
f 37/2/48 43/2/53 45/2/55
f 37/2/48 45/2/55 44/2/54
f 38/2/49 46/2/56 39/2/50
f 38/2/49 40/2/51 47/2/57
f 38/2/49 48/2/58 46/2/56
f 38/2/49 47/2/57 48/2/58
f 41/2/3 49/2/59 43/2/53
f 41/2/3 39/2/50 50/2/60
f 41/2/3 51/2/61 49/2/59
f 41/2/3 50/2/60 52/2/62
f 41/2/3 52/2/62 51/2/61
f 42/2/52 44/2/54 53/2/63
f 42/2/52 53/2/63 40/2/51
f 43/2/53 53/2/63 45/2/55
f 43/2/53 49/2/59 53/2/63
f 45/2/55 53/2/63 44/2/54
f 46/2/56 48/2/58 54/2/64
f 46/2/56 55/2/65 39/2/50
f 46/2/56 54/2/64 56/2/66
f 46/2/56 56/2/66 55/2/65
f 39/2/50 55/2/65 50/2/60
f 47/2/57 40/2/51 57/2/67
f 47/2/57 58/2/68 48/2/58
f 47/2/57 57/2/67 58/2/68
f 57/2/67 40/2/51 53/2/63
f 52/2/62 59/2/69 51/2/61
f 52/2/62 50/2/60 60/2/70
f 52/2/62 61/2/71 59/2/69
f 52/2/62 60/2/70 62/2/72
f 52/2/62 63/2/73 61/2/71
f 52/2/62 62/2/72 63/2/73
f 49/2/59 64/2/74 53/2/63
f 49/2/59 51/2/61 65/2/75
f 49/2/59 65/2/75 64/2/74
f 63/2/73 65/2/75 61/2/71
f 63/2/73 62/2/72 65/2/75
f 59/2/69 65/2/75 51/2/61
f 59/2/69 61/2/71 65/2/75
f 54/2/64 66/2/76 56/2/66
f 54/2/64 48/2/58 67/2/77
f 54/2/64 67/2/77 66/2/76
f 48/2/58 58/2/68 67/2/77
f 55/2/65 68/2/78 50/2/60
f 55/2/65 56/2/66 68/2/78
f 50/2/60 68/2/78 60/2/70
f 53/2/63 64/2/74 69/2/79
f 64/2/74 65/2/75 69/2/79
f 58/2/68 69/2/79 67/2/77
f 62/2/72 60/2/70 70/2/80
f 62/2/72 71/2/81 65/2/75
f 62/2/72 70/2/80 71/2/81
f 66/2/76 72/2/82 56/2/66
f 66/2/76 67/2/77 72/2/82
f 68/2/78 73/2/83 60/2/70
f 68/2/78 56/2/66 74/2/84
f 68/2/78 74/2/84 73/2/83
f 60/2/70 73/2/83 70/2/80
f 69/2/79 75/2/85 67/2/77
f 69/2/79 76/2/86 75/2/85
f 69/2/79 77/2/87 76/2/86
f 77/2/87 71/2/81 70/2/80
f 77/2/87 73/2/83 76/2/86
f 77/2/87 70/2/80 73/2/83
f 75/2/85 76/2/86 72/2/82
f 75/2/85 72/2/82 67/2/77
f 73/2/83 74/2/84 76/2/86
f 56/2/66 72/2/82 78/2/88
f 56/2/66 78/2/88 74/2/84
f 78/2/88 72/2/82 76/2/86
f 78/2/88 76/2/86 74/2/84
f 79/3/89 34/4/39 28/5/29
f 79/3/89 29/6/30 34/4/39
f 79/3/89 28/5/29 15/7/15
f 79/3/89 15/7/15 29/6/30
f 34/4/39 29/6/30 80/8/90
f 34/4/39 80/8/90 36/5/45
f 29/6/30 33/7/37 80/8/90
f 80/8/90 33/7/37 36/5/45
f 81/9/91 82/10/92 83/11/93
f 81/9/91 84/12/59 82/10/92
f 81/9/91 83/11/93 85/10/94
f 81/9/91 85/10/94 84/12/59
f 86/13/95 83/11/95 82/10/96
f 86/13/95 85/10/97 83/11/95
v -0.2809701 0.4994299 -0.0825086
vt -1.63199 -0.0023524
vn 0.4971028 0.8499079 -0.1747723
v -0.1638682 0.4448585 -0.01481844
vt -0.534865 0.290603
v 0 0.342718 -0.0453843
vt 1.00053 0.0191678
vn 0.497102 0.849908 -0.174774
v 0 0.360509 0.0411286
vt 1.00053 0.489682
v -0.3133194 0.5822939 0.2284344
vt -1.93505 1.70931
v -0.1184933 0.436584 0.07399728
vt -0.109748 0.744466
v -0.09468725 0.4543881 0.228283
vt 0.113303 1.56819
vn -0.4971028 -0.8499079 0.1747723
vn -0.497102 -0.849908 0.174774
v 0.2809726 0.4994307 -0.08250765
vn -0.4971026 0.8499079 -0.1747731
vn -0.4971011 0.8499082 -0.174776
v 0.1638695 0.4448586 -0.01481806
v 0.3133221 0.5822942 0.2284315
v 0.1184941 0.4365837 0.07399668
v 0.09468777 0.4543873 0.2282806
vn 0.4971035 -0.8499076 0.1747721
vn 0.4971019 -0.8499079 0.174775
v 0.0911544 0.265149 -0.456724
vt 0.195523 0.573271
vn 0.7671583 0.3606221 0.5304902
v 0.107234 0.323877 -0.610188
vn 0.6540321 0.6810941 0.32917
v 0.0380172 0.318447 -0.461425
vn 0.3214069 0.8097768 0.4908759
v -0.00151232 0.367499 -0.614035
vn 0.00317654 0.952266 0.305253
v -0.0373899 0.318706 -0.461448
vn -0.3126201 0.8134023 0.4905562
v -0.109373 0.321746 -0.61
vn -0.6495398 0.6855687 0.3287759
v -0.0908945 0.265774 -0.45678
vn -0.7635185 0.3693747 0.5297186
v -0.153164 0.21342 -0.600446
vn -0.9217649 0.03722909 0.3859579
v -0.0911544 0.190659 -0.450154
vn -0.7671581 -0.2622011 0.5854221
v -0.107234 0.105977 -0.590969
vn -0.654032 -0.612963 0.443304
v -0.0380172 0.137361 -0.445454
vn -0.321407 -0.7113551 0.6250371
v 0.00151231 0.06235471 -0.587122
vn -0.003176431 -0.8841353 0.4672202
v 0.0373899 0.137102 -0.445431
vn 0.3126201 -0.7149813 0.6253563
v 0.109373 0.108107 -0.591157
vn 0.6495401 -0.6174381 0.443698
v 0.0908945 0.190034 -0.450099
vn 0.7635183 -0.2709541 0.5861942
v 0.153164 0.216433 -0.600711
vn 0.9217649 0.0309012 0.3865159
v 0 0.236314 -0.358093
vn 0 0.0878571 0.9961331
v 0.0849875 0.309822 -0.456961
vt 0.879016 0.532096
vn 0.5871171 0.6313792 0.5066101
v 0.0692005 0.382229 -0.6442389
vn 0.3527461 0.8823773 0.3114171
v 0 0.344889 -0.460054
vn 0.00190101 0.874415 0.485175
v -0.073799 0.380331 -0.644071
vn -0.3527461 0.8823773 0.3114171
v -0.0849875 0.309822 -0.456961
vn -0.584429 0.6340569 0.5063739
v -0.173568 0.278265 -0.635069
vn -0.8516049 0.385447 0.355246
v -0.12019 0.225163 -0.449495
vn -0.828408 0.051104 0.557789
v -0.171663 0.135818 -0.622506
vn -0.8516049 -0.3173169 0.417228
v -0.0849875 0.140504 -0.442028
vn -0.5871172 -0.5329581 0.6093022
v -0.0692005 0.03643502 -0.6137409
vn -0.3527471 -0.8142462 0.4610561
v 0 0.105437 -0.438935
vn -0.001901159 -0.7759937 0.6307378
v 0.073799 0.03833241 -0.6139079
vn 0.3527462 -0.8142464 0.4610562
v 0.0849875 0.140504 -0.442028
vn 0.5844281 -0.5356361 0.609539
v 0.173568 0.140399 -0.62291
vn 0.8516049 -0.3173169 0.417228
v 0.12019 0.225163 -0.449495
vn 0.828408 0.0473169 0.558123
v 0.171663 0.282846 -0.635473
vn 0.8516049 0.3854479 0.355245
v 0 0.235422 -0.333182
vn -0.7671583 -0.3606221 -0.5304902
vn -0.3214069 -0.8097768 -0.4908759
vn -0.6540321 -0.6810941 -0.32917
vn 0.3126201 -0.8134023 -0.4905562
vn -0.00317661 -0.952266 -0.305253
vn 0.7635189 -0.369375 -0.5297179
vn 0.6495398 -0.6855687 -0.3287759
vn 0.7671581 0.2622011 -0.5854221
vn 0.9217649 -0.037229 -0.3859579
vn 0.321407 0.7113551 -0.6250371
vn 0.654032 0.612963 -0.443304
vn -0.3126201 0.7149813 -0.6253563
vn 0.003176611 0.8841353 -0.4672202
vn -0.7635188 0.270954 -0.5861938
vn -0.6495401 0.6174381 -0.443698
vn -0.9217649 -0.0309011 -0.3865159
vn 0 -0.0878571 -0.9961331
vn -0.5871171 -0.6313792 -0.5066101
vn -0.00190094 -0.874415 -0.485175
vn -0.3527461 -0.8823773 -0.3114171
vn 0.584429 -0.6340569 -0.5063739
vn 0.3527461 -0.8823773 -0.3114171
vn 0.828408 -0.051104 -0.557789
vn 0.8516049 -0.385447 -0.355246
vn 0.5871172 0.5329581 -0.6093022
vn 0.8516049 0.3173169 -0.417228
vn 0.001901079 0.7759937 -0.6307378
vn 0.3527471 0.8142462 -0.4610561
vn -0.5844287 0.5356358 -0.6095387
vn -0.352746 0.8142461 -0.461057
vn -0.828408 -0.0473169 -0.558123
vn -0.8516049 0.3173169 -0.417228
vn -0.8516049 -0.3854479 -0.355245
o merged_1_0_node
g polygon_0
usemtl mat_both_mat_id
f 87/14/98 88/15/98 89/16/99
f 89/16/99 88/15/98 90/17/99
f 91/18/98 92/19/98 88/15/98
f 93/20/98 90/17/99 92/19/98
f 92/19/98 90/17/99 88/15/98
f 87/14/100 89/16/101 88/15/100
f 89/16/101 90/17/101 88/15/100
f 91/18/100 88/15/100 92/19/100
f 93/20/100 92/19/100 90/17/101
f 92/19/100 88/15/100 90/17/101
f 94/14/102 89/16/103 95/15/102
f 89/16/103 90/17/103 95/15/102
f 96/18/102 95/15/102 97/19/102
f 98/20/102 97/19/102 90/17/103
f 97/19/102 95/15/102 90/17/103
f 94/14/104 95/15/104 89/16/105
f 89/16/105 95/15/104 90/17/105
f 96/18/104 97/19/104 95/15/104
f 98/20/104 90/17/105 97/19/104
f 97/19/104 90/17/105 95/15/104
f 99/21/106 100/21/107 101/21/108
f 101/21/108 102/21/109 103/21/110
f 103/21/110 104/21/111 105/21/112
f 105/21/112 106/21/113 107/21/114
f 107/21/114 108/21/115 109/21/116
f 109/21/116 110/21/117 111/21/118
f 111/21/118 112/21/119 113/21/120
f 113/21/120 114/21/121 99/21/106
f 99/21/106 101/21/108 115/21/122
f 101/21/108 103/21/110 115/21/122
f 103/21/110 105/21/112 115/21/122
f 105/21/112 107/21/114 115/21/122
f 107/21/114 109/21/116 115/21/122
f 109/21/116 111/21/118 115/21/122
f 111/21/118 113/21/120 115/21/122
f 113/21/120 99/21/106 115/21/122
f 116/22/123 117/22/124 118/22/125
f 118/22/125 119/22/126 120/22/127
f 120/22/127 121/22/128 122/22/129
f 122/22/129 123/22/130 124/22/131
f 124/22/131 125/22/132 126/22/133
f 126/22/133 127/22/134 128/22/135
f 128/22/135 129/22/136 130/22/137
f 130/22/137 131/22/138 116/22/123
f 116/22/123 118/22/125 132/22/122
f 118/22/125 120/22/127 132/22/122
f 120/22/127 122/22/129 132/22/122
f 122/22/129 124/22/131 132/22/122
f 124/22/131 126/22/133 132/22/122
f 126/22/133 128/22/135 132/22/122
f 128/22/135 130/22/137 132/22/122
f 130/22/137 116/22/123 132/22/122
f 99/21/139 101/21/140 100/21/141
f 101/21/140 103/21/142 102/21/143
f 103/21/142 105/21/144 104/21/145
f 105/21/144 107/21/146 106/21/147
f 107/21/146 109/21/148 108/21/149
f 109/21/148 111/21/150 110/21/151
f 111/21/150 113/21/152 112/21/153
f 113/21/152 99/21/139 114/21/154
f 99/21/139 115/21/155 101/21/140
f 101/21/140 115/21/155 103/21/142
f 103/21/142 115/21/155 105/21/144
f 105/21/144 115/21/155 107/21/146
f 107/21/146 115/21/155 109/21/148
f 109/21/148 115/21/155 111/21/150
f 111/21/150 115/21/155 113/21/152
f 113/21/152 115/21/155 99/21/139
f 116/22/156 118/22/157 117/22/158
f 118/22/157 120/22/159 119/22/160
f 120/22/159 122/22/161 121/22/162
f 122/22/161 124/22/163 123/22/164
f 124/22/163 126/22/165 125/22/166
f 126/22/165 128/22/167 127/22/168
f 128/22/167 130/22/169 129/22/170
f 130/22/169 116/22/156 131/22/171
f 116/22/156 132/22/155 118/22/157
f 118/22/157 132/22/155 120/22/159
f 120/22/159 132/22/155 122/22/161
f 122/22/161 132/22/155 124/22/163
f 124/22/163 132/22/155 126/22/165
f 126/22/165 132/22/155 128/22/167
f 128/22/167 132/22/155 130/22/169
f 130/22/169 132/22/155 116/22/156
vt 0.411093 0.96956
vt 0.814211 0.796346
vt -0.0259776 0.789263
vt 1.1058 0.983362
o merged_2_0_node
g polygon_0
usemtl TEX_ANIM_EYE_mat_id
f 65/23/75 77/24/87 69/25/79
f 53/23/63 69/25/79 58/24/68
f 58/24/68 57/26/67 53/23/63
f 65/23/75 71/26/81 77/24/87
