mtllib Burmy_Suna.mtl
v 0 0.163252 0.169434
vt 0.500032 0.55189
vn 0 -0.2995469 0.9540816
v 0 0.0867772 0.133529
vt 0.500032 0.291631
vn 0 -0.5284208 0.8489826
v 0.0855315 0.0796137 0.103362
vt 0.727155 0.267252
vn 0.5471961 -0.5462792 0.6341572
v -0.0855315 0.0796137 0.103362
vt 0.272909 0.267252
vn -0.5471961 -0.5462792 0.6341572
v 0.136477 0.193155 0.12369
vt 0.771601 0.653654
vn 0.7280328 -0.2338509 0.6444238
v -0.136477 0.193155 0.12369
vt 0.228463 0.653654
vn -0.7280329 -0.23385 0.644424
v 0.0560782 0.231832 0.170351
vt 0.637978 0.736146
vn 0.2797301 -0.113515 0.9533443
v -0.0560782 0.231832 0.170351
vt 0.362086 0.736146
vn -0.272099 -0.108073 0.9561811
v 0 0.0229911 0.0776415
vt 0.500032 0.074554
vn 0 -0.8719496 0.4895958
v 0.13391 0.259394 0.122258
vt 0.770513 0.87908
vn 0.8261746 0.1287049 0.5485168
v 0.177155 0.135477 0.000342886
vt 1.00761 0.457365
vn 0.9371001 -0.34899 -0.007021431
v 0.185047 0.250506 -0.00047908
vt 1.0087 0.848832
vn 0.9850524 0.1607561 -0.06188093
v -0.13391 0.259394 0.122258
vt 0.229551 0.87908
vn -0.8261743 0.128705 0.5485172
v -0.177155 0.135477 0.000342886
vt -0.00754368 0.457365
vn -0.9371001 -0.34899 -0.007021401
v -0.185047 0.250506 -0.00047908
vt -0.00863373 0.848832
vn -0.9850524 0.1607561 -0.06188093
v 0.108463 0.0391824 0.00211473
vt 1.00721 0.129656
vn 0.6497642 -0.7601302 -0.002933611
v -0.108463 0.0391824 0.00211473
vt -0.00714266 0.129656
vn -0.6497642 -0.7601302 -0.002933521
v 0 0.00108404 0.00239786
vt 1.50003 0
vn 0 -0.9998732 0.0159212
vt -0.499968 0
v 0.137854 0.199964 -0.120922
vt 1.23509 0.676827
vn 0.7289571 -0.141019 -0.6698771
v 0.119072 0.294925 -0.111554
vt 1.24603 1
vn 0.6768064 0.3919063 -0.6231714
v -0.137854 0.199964 -0.120922
vt -0.235024 0.676827
vn -0.7289571 -0.141019 -0.6698771
v -0.119072 0.294925 -0.111554
vt -0.245965 1
vn -0.676807 0.391906 -0.623171
v 0 0.020525 -0.0728459
vt 1.50003 0.0661615
vn 0 -0.8484721 -0.5292401
vt -0.499968 0.0661615
v 0.0856491 0.0816781 -0.103126
vt 1.28616 0.274278
vn 0.5253028 -0.5463307 -0.6523647
v 0.0560782 0.243962 -0.161232
vt 1.34229 0.712736
vn 0.230986 0.07452011 -0.9700991
v -0.0856491 0.0816781 -0.103126
vt -0.286093 0.274277
vn -0.5253028 -0.5463307 -0.6523647
v -0.0560782 0.243962 -0.161232
vt -0.339233 0.712736
vn -0.230986 0.07452011 -0.9700991
v 0 0.12138 -0.150886
vt 1.50003 0.409389
vn 0 -0.3514259 -0.9362156
vt -0.499968 0.409389
vt 1.66077 0.712736
v 0.0902548 0.201208 -0.113813
vt 0.494089 0.89203
vn -0.4131519 0.2609839 0.8724637
v 0.127825 0.228148 -0.119568
vt 0.603737 0.970654
vn 0.7576472 0.6513402 0.04155301
v 0.0817172 0.235982 -0.143764
vt 0.469173 0.993518
vn -0.2689379 0.8267478 -0.4941259
v 0.129582 0.177952 -0.103758
vt 0.608865 0.824157
vn 0.7949358 -0.4637719 0.3911429
v 0.0549784 0.190629 -0.142907
vt 0.391135 0.861153
vn -0.8620289 -0.181605 -0.473208
v 0.0845602 0.154764 -0.118182
vt 0.47747 0.756482
vn -0.20409 -0.976209 0.0732348
v 0.111202 0.187954 -0.158346
vt 0.555224 0.853347
vn 0.4135518 -0.2591369 -0.8728247
v -0.0923188 0.199909 0.118166
vt 0.505911 0.85797
vn 0.4131519 0.2609839 -0.8724637
v -0.129889 0.226849 0.123922
vt 0.396263 0.779346
vn -0.7576476 0.6513397 -0.04155248
v -0.0837812 0.234683 0.148118
vt 0.530827 0.756482
vn 0.2689379 0.8267478 0.4941259
v -0.131646 0.176653 0.108112
vt 0.391135 0.925843
vn -0.7949362 -0.4637711 -0.3911431
v -0.0570424 0.189329 0.14726
vt 0.608865 0.888847
vn 0.8620289 -0.181605 0.473208
v -0.0866242 0.153465 0.122535
vt 0.52253 0.993518
vn 0.20409 -0.9762089 -0.0732353
v -0.113266 0.186655 0.1627
vt 0.444776 0.896653
vn -0.4135518 -0.2591369 0.8728247
v -0.0359506 0.0812701 -0.112175
vt 0.429771 0.777619
vn -0.9815891 -0.159011 0.105822
v 0 0.102964 -0.0922032
vt 0.463004 0.911996
vn 0 0.5540292 0.8324972
v -0.00699553 0.117023 -0.135968
vt 0.413925 0.92846
vn -0.191005 0.8171701 -0.5438291
v 0.00699553 0.0571651 -0.0961331
vt 0.586075 0.82154
vn 0.191005 -0.8171701 0.5438291
v 0 0.0712233 -0.139898
vt 0.536996 0.838004
vn 0 -0.5540287 -0.8324976
v 0.0359506 0.0929177 -0.119926
vt 0.570229 0.972381
vn 0.9815891 0.159011 -0.105822
v 0.0359506 0.0781731 0.116829
vt 0.618518 0.855801
vn 0.9815891 -0.159011 -0.105822
v 0 0.0998674 0.0968569
vt 0.5 0.92732
vn 0 0.5540292 -0.8324972
v 0.00699553 0.113926 0.140622
vt 0.523062 0.973666
vn 0.1910049 0.8171704 0.5438287
v -0.00699553 0.0540681 0.100787
vt 0.476938 0.776334
vn -0.191005 -0.8171701 -0.5438291
v 0 0.0681263 0.144552
vt 0.5 0.82268
vn 0 -0.5540292 0.8324972
v -0.0359506 0.0898206 0.12458
vt 0.381482 0.894199
vn -0.9815891 0.159011 0.105822
v -0.116444 0.184884 -0.119216
vt 0.441028 0.983638
vn -0.9232703 0.2735861 0.2696711
v -0.0678803 0.181914 -0.105003
vt 0.539996 0.871778
vn 0.3475261 0.2957091 0.8898212
v -0.07184 0.206965 -0.143974
vt 0.585777 0.934749
vn 0.163699 0.9152631 -0.368098
v -0.0838309 0.139922 -0.117011
vt 0.414223 0.815251
vn -0.163699 -0.9152631 0.368098
v -0.0877906 0.164972 -0.155982
vt 0.460004 0.878222
vn -0.3475261 -0.2957091 -0.8898212
v -0.0392271 0.162003 -0.141769
vt 0.558972 0.766362
vn 0.9232703 -0.2735861 -0.2696711
v 0.11891 0.182785 0.12553
vt 0.46488 0.756482
vn 0.9232703 0.2735861 -0.2696711
v 0.0703466 0.179815 0.111318
vt 0.473997 0.90556
vn -0.3475261 0.2957091 -0.8898212
v 0.0743063 0.204866 0.150289
vt 0.397098 0.893404
vn -0.163699 0.9152631 0.368098
v 0.0862971 0.137823 0.123326
vt 0.602902 0.856596
vn 0.163699 -0.9152631 -0.368098
v 0.0902568 0.162874 0.162297
vt 0.526003 0.84444
vn 0.3475261 -0.2957091 0.8898212
v 0.0416933 0.159904 0.148084
vt 0.53512 0.993518
vn -0.9232703 -0.2735861 0.2696711
o merged_0_0_node
g polygon_0
usemtl lambert6_mat_id
f 1/1/1 2/2/2 3/3/3
f 1/1/1 4/4/4 2/2/2
f 1/1/1 3/3/3 5/5/5
f 1/1/1 6/6/6 4/4/4
f 1/1/1 5/5/5 7/7/7
f 1/1/1 8/8/8 6/6/6
f 1/1/1 7/7/7 8/8/8
f 2/2/2 9/9/9 3/3/3
f 2/2/2 4/4/4 9/9/9
f 5/5/5 10/10/10 7/7/7
f 5/5/5 3/3/3 11/11/11
f 5/5/5 12/12/12 10/10/10
f 5/5/5 11/11/11 12/12/12
f 6/6/6 8/8/8 13/13/13
f 6/6/6 14/14/14 4/4/4
f 6/6/6 13/13/13 15/15/15
f 6/6/6 15/15/15 14/14/14
f 9/9/9 16/16/16 3/3/3
f 9/9/9 4/4/4 17/17/17
f 9/9/9 18/18/18 16/16/16
f 9/9/9 17/17/17 18/19/18
f 4/4/4 14/14/14 17/17/17
f 3/3/3 16/16/16 11/11/11
f 12/12/12 11/11/11 19/20/19
f 12/12/12 19/20/19 20/21/20
f 15/15/15 21/22/21 14/14/14
f 15/15/15 22/23/22 21/22/21
f 18/18/18 23/24/23 16/16/16
f 18/19/18 17/17/17 23/25/23
f 11/11/11 24/26/24 19/20/19
f 11/11/11 16/16/16 24/26/24
f 16/16/16 23/24/23 24/26/24
f 20/21/20 19/20/19 25/27/25
f 14/14/14 21/22/21 26/28/26
f 14/14/14 26/28/26 17/17/17
f 17/17/17 26/28/26 23/25/23
f 22/23/22 27/29/27 21/22/21
f 23/24/23 28/30/28 24/26/24
f 19/20/19 28/30/28 25/27/25
f 19/20/19 24/26/24 28/30/28
f 26/28/26 28/31/28 23/25/23
f 26/28/26 21/22/21 28/31/28
f 28/31/28 21/22/21 27/29/27
f 25/27/25 28/30/28 27/32/27
f 29/33/29 30/34/30 31/35/31
f 29/33/29 32/36/32 30/34/30
f 29/33/29 31/35/31 33/37/33
f 29/33/29 34/38/34 32/36/32
f 29/33/29 33/37/33 34/38/34
f 30/34/30 35/39/35 31/35/31
f 30/34/30 32/36/32 35/39/35
f 35/39/35 34/38/34 33/37/33
f 35/39/35 33/37/33 31/35/31
f 35/39/35 32/36/32 34/38/34
f 36/40/36 37/41/37 38/42/38
f 36/40/36 39/43/39 37/41/37
f 36/40/36 38/42/38 40/44/40
f 36/40/36 41/45/41 39/43/39
f 36/40/36 40/44/40 41/45/41
f 37/41/37 42/46/42 38/42/38
f 37/41/37 39/43/39 42/46/42
f 42/46/42 41/45/41 40/44/40
f 42/46/42 40/44/40 38/42/38
f 42/46/42 39/43/39 41/45/41
f 43/47/43 44/48/44 45/49/45
f 43/47/43 46/50/46 44/48/44
f 43/47/43 45/49/45 47/51/47
f 43/47/43 47/51/47 46/50/46
f 44/48/44 48/52/48 45/49/45
f 44/48/44 46/50/46 48/52/48
f 48/52/48 47/51/47 45/49/45
f 48/52/48 46/50/46 47/51/47
f 49/53/49 50/54/50 51/55/51
f 49/53/49 52/56/52 50/54/50
f 49/53/49 51/55/51 53/57/53
f 49/53/49 53/57/53 52/56/52
f 50/54/50 54/58/54 51/55/51
f 50/54/50 52/56/52 54/58/54
f 54/58/54 53/57/53 51/55/51
f 54/58/54 52/56/52 53/57/53
f 55/59/55 56/60/56 57/61/57
f 55/59/55 58/62/58 56/60/56
f 55/59/55 57/61/57 59/63/59
f 55/59/55 59/63/59 58/62/58
f 56/60/56 60/64/60 57/61/57
f 56/60/56 58/62/58 60/64/60
f 60/64/60 59/63/59 57/61/57
f 60/64/60 58/62/58 59/63/59
f 61/65/61 62/66/62 63/67/63
f 61/65/61 64/68/64 62/66/62
f 61/65/61 63/67/63 65/69/65
f 61/65/61 65/69/65 64/68/64
f 62/66/62 66/70/66 63/67/63
f 62/66/62 64/68/64 66/70/66
f 66/70/66 65/69/65 63/67/63
f 66/70/66 64/68/64 65/69/65
v 0 0.354215 -0.13198
vt 0.94048 0.470421
vn 0 0.5928679 -0.8052998
v 0.0994041 0.383797 -0.0538559
vt 0.941368 0.476274
vn 0.5886117 0.7247576 -0.3581378
vt 0.941645 0.458147
v 0 0.429712 -0.0284805
vt 0.94048 0.47837
vn 0 0.9681849 -0.250236
vt 0.941029 0.447598
v -0.0994041 0.383797 -0.0538559
vt 0.939593 0.476274
vn -0.5886117 0.7247576 -0.3581378
vt 0.939932 0.447598
vt 0.939316 0.458147
vt 0.94229 0.448952
v 0.0827607 0.395548 0.0867262
vt 0.94129 0.484008
vn 0.5043681 0.83057 0.236149
v 0.146815 0.335489 0.0576168
vt 0.941916 0.470065
vn 0.8630973 0.4830322 0.1474551
vt 0.93867 0.448952
v -0.0827607 0.395548 0.0867262
vt 0.939671 0.484008
vn -0.5043681 0.83057 0.236149
v -0.146815 0.335489 0.0576168
vt 0.939044 0.470065
vn -0.8630974 0.4830322 0.1474541
vt 0.94179 0.460019
vt 0.939171 0.460019
v 0 0.380709 0.129501
vt 0.000161813 1.04389
vn 0 0.6956291 0.7184011
vt 0.767815 1.20251
v 0 0.404359 0.0967138
vt 0.000162473 1.0547
vn 0 0.845672 0.533703
v 0.0907365 0.344707 0.13461
vt 0.679532 0.416395
vn 0.5402632 0.4607322 0.7041602
vt -0.767491 1.20252
v 0.0353752 0.342452 0.150627
vt 0.258195 0.386369
vn 0.125053 0.353663 0.9269759
v -0.0907365 0.344707 0.13461
vt -0.679211 0.416399
vn -0.5402632 0.4607322 0.7041602
v -0.0353752 0.342452 0.150627
vt -0.257874 0.386371
vn -0.12725 0.3558941 0.9258223
vt 1.19713 0.549955
vt -1.19681 0.549963
vt 0.994243 -0.542736
v 0.103966 0.275973 0.14513
vt 0.736374 -0.371108
vn 0.4799739 0.126518 0.8681119
vt -0.994301 -0.542742
v -0.103966 0.275973 0.14513
vt -0.736432 -0.371112
vn -0.4799747 0.1265179 0.8681115
v 0 0.305488 0.156829
vt 0.124531 0.162527
vn 0 0.393478 -0.9193341
v 0 0.247022 0.163767
vn 0 -0.5977113 -0.8017114
v -0.0294381 0.276255 0.160298
vn -0.4990719 -0.102117 -0.8605228
v 0.0294381 0.276255 0.160298
vn 0.4990719 -0.102117 -0.8605228
v 0 0.280088 0.192599
vn 0 0.1178409 0.9930325
vt -0.374746 -0.902611
v -0.0387911 0.269485 0.167289
vt 0.264518 -0.454905
vn -0.111781 0.1780971 0.9776433
vt 0.374311 -0.902609
v 0.0387911 0.269485 0.167289
vt -0.264576 -0.454907
vn 0.119565 0.186936 0.9750688
v 0 0.417303 0.0712267
vt 0.840824 0.885946
vn 0 0.983388 0.181516
vt 0.932528 0.371865
vt -0.318006 0.241795
o merged_1_0_node
g polygon_0
usemtl mat_kao1_mat_id
f 67/71/67 68/72/68 20/73/20
f 67/71/67 69/74/69 68/72/68
f 67/71/67 20/73/20 25/75/25
f 67/71/67 70/76/70 69/74/69
f 67/71/67 25/75/25 27/77/27
f 67/71/67 22/78/22 70/76/70
f 67/71/67 27/77/27 22/78/22
f 68/72/68 12/79/12 20/73/20
f 68/72/68 69/74/69 71/80/71
f 68/72/68 72/81/72 12/79/12
f 68/72/68 71/80/71 72/81/72
f 70/76/70 22/78/22 15/82/15
f 70/76/70 73/83/73 69/74/69
f 70/76/70 15/82/15 74/84/74
f 70/76/70 74/84/74 73/83/73
f 12/79/12 72/81/72 10/85/10
f 15/82/15 13/86/13 74/84/74
f 75/87/75 71/88/71 76/89/76
f 75/87/75 77/90/77 71/88/71
f 75/87/75 76/89/76 73/91/73
f 75/87/75 78/92/78 77/90/77
f 75/87/75 73/91/73 79/93/79
f 75/87/75 80/94/80 78/92/78
f 75/87/75 79/93/79 80/94/80
f 71/88/71 77/90/77 72/95/72
f 73/91/73 74/96/74 79/93/79
f 77/90/77 10/97/10 72/95/72
f 77/90/77 81/98/81 10/97/10
f 74/96/74 13/99/13 79/93/79
f 13/99/13 82/100/82 79/93/79
f 83/101/83 84/101/84 85/101/85
f 83/101/83 86/101/86 84/101/84
f 83/101/83 85/101/85 87/101/87
f 83/101/83 87/101/87 86/101/86
f 87/101/87 85/101/85 84/101/84
f 87/101/87 84/101/84 86/101/86
f 7/102/7 88/103/88 8/104/8
f 7/102/7 89/105/89 88/103/88
f 7/102/7 81/100/81 89/105/89
f 7/102/7 10/99/10 81/100/81
f 8/104/8 88/103/88 82/98/82
f 8/104/8 82/98/82 13/97/13
f 90/106/90 76/106/76 71/106/71
f 90/106/90 73/106/73 76/106/76
f 90/107/90 71/107/71 69/107/69
f 90/107/90 69/107/69 73/107/73
f 78/108/78 88/108/88 89/108/89
f 78/108/78 80/108/80 88/108/88
v 0.0258667 0.457979 0.0582656
vt 0.833269 0.0731601
vn 0.4922001 0.2731421 0.8265182
v 0.0202205 0.538828 0.0350123
vt 0.833269 0.707704
vn 0.4611749 0.439588 0.7707659
v -0.0258667 0.457979 0.0582656
vt 1.00202 0.113588
vn -0.4922001 0.2731421 0.8265182
v -0.0202205 0.538828 0.0350123
vt 1.00202 0.748132
vn -0.4611749 0.439588 0.7707659
vt 0.00872675 0.5
v -0.0404411 0.5305569 0.0009800975
vt 0.17199 0.546618
vn -0.969671 0.244412 -0.0010397
vt 0.00872675 -0.134544
v -0.0517333 0.450738 0.01405219
vt 0.17199 -0.0879261
vn -0.9903213 0.137806 -0.0165296
v -0.0202205 0.522285 -0.03305211
vt 0.335253 0.587751
vn -0.5145828 0.009177076 -0.8573916
v -0.0258667 0.443497 -0.03016111
vt 0.335253 -0.0467926
vn -0.4968739 0.00221101 -0.8678199
v 0.0258667 0.443497 -0.03016111
vt 0.498517 -0.0111436
vn 0.4968739 0.00221098 -0.8678199
v 0.0202205 0.522285 -0.03305211
vt 0.498517 0.6234
vn 0.5145828 0.009177076 -0.8573916
v 0.0517333 0.450738 0.01405219
vt 0.667264 0.0327322
vn 0.9903213 0.137806 -0.0165299
v 0.040441 0.5305569 0.0009800975
vt 0.667264 0.667276
vn 0.969671 0.244412 -0.00103992
vn 0 -0.9868532 0.161619
v 0 0.600176 -0.04354981
vt 0.529904 1
vn 0 0.9322654 -0.3617752
vt 0.0604616 0.995927
o merged_2_0_node
g polygon_0
usemtl lambert5_mat_id
f 91/109/91 92/110/92 93/111/93
f 93/111/93 92/110/92 94/112/94
f 94/113/94 95/114/95 93/115/93
f 93/115/93 95/114/95 96/116/96
f 95/114/95 97/117/97 96/116/96
f 96/116/96 97/117/97 98/118/98
f 98/118/98 97/117/97 99/119/99
f 99/119/99 97/117/97 100/120/100
f 99/119/99 100/120/100 101/121/101
f 101/121/101 100/120/100 102/122/102
f 101/121/101 102/122/102 91/109/91
f 91/109/91 102/122/102 92/110/92
f 91/111/103 93/111/103 101/111/103
f 93/111/103 96/111/103 101/111/103
f 96/111/103 98/111/103 101/111/103
f 98/111/103 99/111/103 101/111/103
f 92/110/92 103/123/104 94/112/94
f 94/113/94 103/124/104 95/114/95
f 95/114/95 103/123/104 97/117/97
f 97/117/97 103/123/104 100/120/100
f 100/120/100 103/123/104 102/122/102
f 102/122/102 103/123/104 92/110/92
vt 0.839388 1.02001
vt 0.239174 0.753062
vt 0.199705 1.01201
vt 0.992255 0.776088
o merged_3_0_node
g polygon_0
usemtl TEX_ANIM_EYE_mat_id
f 79/125/79 88/126/88 80/127/80
f 82/128/82 88/126/88 79/125/79
f 89/126/89 81/128/81 77/125/77
f 89/126/89 77/125/77 78/127/78
