mtllib Mightyena.mtl
v -0.000197476 0.664036 0.15525
vt 0.640818 0.383708
vn 0 0.9998277 -0.0185625
v 0.0754162 0.64614 0.169644
vt 0.640818 0.158028
vn 0.00536752 0.9774929 0.2109
v 0.124406 0.623738 0.117604
vt 0.640818 0.0248041
vn 0.3861669 0.6925418 -0.6093119
v 0.0485224 0.609407 0.288631
vt 0.640818 0.193406
vn 0.3347138 0.7731066 0.5387698
v -0.000197477 0.636754 0.0374373
vt 0.640818 0.34655
vn 0 0.8518424 -0.5237982
v -0.000197479 0.618454 0.292319
vt 0.640818 0.326538
vn 0 0.8337106 0.5522017
v -0.124801 0.623738 0.117604
vn -0.3861669 0.6925418 -0.6093119
v -0.0489173 0.609407 0.288631
vn -0.3347138 0.7731066 0.5387698
v -0.0758112 0.64614 0.169644
vn -0.0053675 0.9774931 0.210899
v 0.137114 0.561452 0.27839
vt 0.640818 0.0114217
vn 0.6360718 0.3931979 0.6639338
v 0.131208 0.543798 -0.00497726
vt 0.640818 0.0187336
vn 0.538081 0.415348 -0.733454
v -0.00019748 0.532992 0.348486
vt 0.640818 0.323268
vn 0 0.4057169 0.9139988
v -0.131603 0.543798 -0.00497726
vn -0.5380808 0.4153489 -0.7334538
v -0.137509 0.561452 0.27839
vn -0.6360718 0.3931979 0.6639338
v 0.0728513 0.527105 0.329385
vt 0.640818 0.118074
vn 0.401616 0.333566 0.8529
v -0.00019748 0.541315 -0.0422615
vn 0 0.370421 -0.928864
v 0.136894 0.427245 -0.0143207
vt 0.640818 0.0133085
vn 0.5830061 -0.05231071 -0.8107821
v -0.0732462 0.527105 0.329385
vn -0.4016161 0.3335651 0.8529003
v 0.0328849 0.458463 0.362616
vt 0.640818 0.268529
vn 0.434755 0.34274 0.832777
v -0.000197481 0.414349 -0.0591299
vn 0 -0.09402727 -0.9955696
v 0.113073 0.324162 0.0102139
vt 0.640818 0.0698825
vn 0.191306 -0.446777 -0.8739521
v -0.137289 0.427245 -0.0143207
vn -0.5830061 -0.05231071 -0.8107821
v -0.0332799 0.458463 0.362616
vn -0.434755 0.34274 0.832777
v -0.000197481 0.322197 -0.0123512
vn 0 -0.7082389 -0.7059729
v -0.000197477 0.267488 0.0960402
vn 0 -0.9932188 -0.11626
v -0.113468 0.324162 0.0102139
vn -0.191306 -0.446777 -0.8739521
v 0.126713 0.632769 0.220632
vt 0.467257 0.583877
vn 0.2493801 0.2344131 0.9396064
vt 0.644632 0.424934
v 0.158026 0.562179 0.234495
vt 0.618617 0.525791
vn 0.899745 0.249637 0.357967
vt 0.386147 0.480916
v 0.204497 0.582876 0.155263
vt 0.500915 0.808139
vn 0.9945377 0.0630355 -0.08319418
v 0.0818738 0.693217 0.178881
vt 0.292352 0.54422
vn -0.7072489 0.6989159 -0.106375
v 0.169865 0.763517 0.195928
vt 0.0991509 0.812147
vn 0.6242719 0.7792639 0.05506878
v -0.127108 0.632769 0.220632
vn -0.2493811 0.234413 0.9396061
v -0.158421 0.562179 0.234495
vn -0.8997447 0.2496369 0.3579679
v -0.204891 0.582876 0.155263
vn -0.9945378 0.06303509 -0.08319388
v -0.17026 0.763517 0.195928
vn -0.6242719 0.7792639 0.05506869
v -0.0822688 0.693217 0.178881
vn 0.7072489 0.6989159 -0.106375
v -0.000197475 0.426273 0.41465
vt 0.0957748 0.385136
vn 0 0.2838181 0.9588782
v 0.0373341 0.360991 0.388031
vt 0.209936 0.158844
vn 0.3167071 -0.6511152 0.6897432
v 0.0713116 0.401281 0.371577
vt 0.296385 0.351464
vn 0.7020519 0.04587179 0.7106469
v -0.0377291 0.360991 0.388031
vn -0.3167071 -0.6511152 0.6897432
vt 0.199275 0.519576
v -0.0717066 0.401281 0.371577
vn -0.7020519 0.04587199 0.7106469
v 0.149943 0.376921 0.261185
vt 0.600457 0.241166
vn 0.8132171 -0.4354451 0.3860901
v 0.0913099 0.313569 0.274004
vt 0.609711 -0.049115
vn 0.5215651 -0.7636002 0.3806371
v -0.150338 0.376921 0.261185
vn -0.8132171 -0.4354451 0.3860901
v -0.0917049 0.313569 0.274004
vn -0.5215651 -0.7636002 0.3806371
v 0.125003 0.429973 0.300153
vt 0.588053 0.35347
vn 0.7137673 0.05686863 0.6980703
v -0.125398 0.429973 0.300153
vn -0.7137673 0.05686893 0.6980703
v 0.192585 0.350853 0.0785336
vt 0.95899 0.426525
vn 0.9765685 -0.1807251 -0.1168441
v 0.212371 0.467651 0.108667
vn 0.9819388 0.07441598 -0.17395
v 0.17794 0.379009 0.147686
vn 0.865707 -0.424189 0.265735
v 0.191508 0.236815 0.0362101
vn 0.46955 -0.8611271 -0.194892
v 0.105308 0.295644 0.170333
vn 0.4118541 -0.8361733 0.3622021
v 0.184677 0.569117 0.110488
vn 0.8921759 0.388324 -0.230709
v -0.000197481 0.273552 0.170333
vn 0 -0.9951407 0.09846357
v -0.105703 0.295644 0.170333
vn -0.4118541 -0.8361733 0.3622021
v -0.191903 0.236815 0.0362101
vn -0.4695489 -0.8611278 -0.194892
v -0.19298 0.350853 0.0785336
vn -0.9765685 -0.1807251 -0.1168441
v -0.178335 0.379009 0.147686
vn -0.865707 -0.424189 0.265735
v -0.212766 0.467651 0.108667
vn -0.9819388 0.07441609 -0.17395
v -0.185072 0.569117 0.110488
vn -0.8921759 0.388324 -0.230709
vt 0.989633 0.555223
vt 0.87681 0.589277
vt 0.688181 0.540518
vt 0.974696 0.673473
v 0.184231 0.451142 0.222862
vt 0.69546 0.223023
vn 0.93239 -0.0168661 0.36106
vt 0.990572 0.30779
vt 0.887304 0.0233721
v -0.184626 0.451142 0.222862
vn -0.93239 -0.016866 0.36106
v -0.00019748 0.284599 0.268646
vt 0.0747911 0.570187
vn 0 -0.9446971 0.327944
vt 0.316529 0.0414513
vt 0.568081 -0.0176486
vt 0.105461 0.601093
vt 0.116483 0.544452
o merged_0_0_node
g polygon_0
usemtl lambert13_mat_id
f 1/1/1 2/2/2 3/3/3
f 1/1/1 4/4/4 2/2/2
f 1/1/1 3/3/3 5/5/5
f 1/1/1 6/6/6 4/4/4
f 1/1/1 5/5/5 7/3/7
f 1/1/1 8/4/8 6/6/6
f 1/1/1 7/3/7 9/2/9
f 1/1/1 9/2/9 8/4/8
f 2/2/2 4/4/4 10/7/10
f 3/3/3 11/8/11 5/5/5
f 6/6/6 8/4/8 12/9/12
f 6/6/6 12/9/12 4/4/4
f 7/3/7 5/5/5 13/8/13
f 9/2/9 14/7/14 8/4/8
f 10/7/10 4/4/4 15/10/15
f 4/4/4 12/9/12 15/10/15
f 11/8/11 16/6/16 5/5/5
f 11/8/11 17/11/17 16/6/16
f 5/5/5 16/6/16 13/8/13
f 14/7/14 18/10/18 8/4/8
f 8/4/8 18/10/18 12/9/12
f 15/10/15 12/9/12 19/12/19
f 17/11/17 20/6/20 16/6/16
f 17/11/17 21/13/21 20/6/20
f 13/8/13 16/6/16 22/11/22
f 16/6/16 20/6/20 22/11/22
f 18/10/18 23/12/23 12/9/12
f 21/13/21 24/6/24 20/6/20
f 21/13/21 25/6/25 24/6/24
f 22/11/22 20/6/20 26/13/26
f 26/13/26 24/6/24 25/6/25
f 26/13/26 20/6/20 24/6/24
f 27/14/27 10/15/10 28/16/28
f 27/14/27 2/17/2 10/15/10
f 27/14/27 28/16/28 29/18/29
f 27/14/27 30/19/30 2/17/2
f 27/14/27 29/18/29 31/20/31
f 27/14/27 31/20/31 30/19/30
f 32/14/32 33/16/33 14/15/14
f 32/14/32 34/18/34 33/16/33
f 32/14/32 14/15/14 9/17/9
f 32/14/32 35/20/35 34/18/34
f 32/14/32 9/17/9 36/19/36
f 32/14/32 36/19/36 35/20/35
f 37/21/37 38/22/38 39/23/39
f 37/21/37 40/22/40 38/22/38
f 37/21/37 39/23/39 19/24/19
f 37/21/37 41/23/41 40/22/40
f 37/21/37 19/24/19 23/24/23
f 37/21/37 23/24/23 41/23/41
f 38/22/38 42/25/42 39/23/39
f 38/22/38 43/26/43 42/25/42
f 40/22/40 41/23/41 44/25/44
f 40/22/40 44/25/44 45/26/45
f 19/24/19 39/23/39 46/27/46
f 46/27/46 39/23/39 42/25/42
f 23/24/23 47/27/47 41/23/41
f 41/23/41 47/27/47 44/25/44
f 48/28/48 17/28/17 49/28/49
f 48/28/48 21/28/21 17/28/17
f 48/28/48 49/28/49 50/28/50
f 48/28/48 51/28/51 21/28/21
f 48/28/48 50/28/50 52/28/52
f 48/28/48 52/28/52 51/28/51
f 17/28/17 11/28/11 49/28/49
f 21/28/21 51/28/51 25/28/25
f 51/28/51 52/28/52 25/28/25
f 11/28/11 53/28/53 49/28/49
f 11/28/11 3/28/3 53/28/53
f 52/28/52 54/28/54 25/28/25
f 54/28/54 55/28/55 25/28/25
f 55/28/55 56/28/56 25/28/25
f 55/28/55 57/28/57 56/28/56
f 55/28/55 58/28/58 57/28/57
f 25/28/25 56/28/56 26/28/26
f 56/28/56 57/28/57 26/28/26
f 58/28/58 59/28/59 57/28/57
f 26/28/26 57/28/57 22/28/22
f 57/28/57 59/28/59 22/28/22
f 59/28/59 13/28/13 22/28/22
f 59/28/59 60/28/60 13/28/13
f 60/28/60 7/28/7 13/28/13
f 53/29/53 29/30/29 28/31/28
f 53/29/53 3/32/3 29/30/29
f 53/29/53 28/31/28 61/33/61
f 53/29/53 61/33/61 49/34/49
f 61/33/61 50/35/50 49/34/49
f 60/29/60 34/30/34 7/32/7
f 60/29/60 33/31/33 34/30/34
f 60/29/60 62/33/62 33/31/33
f 60/29/60 59/34/59 62/33/62
f 59/34/59 58/35/58 62/33/62
f 63/36/63 54/36/54 52/36/52
f 63/36/63 55/36/55 54/36/54
f 63/36/63 52/36/52 43/36/43
f 63/36/63 45/36/45 55/36/55
f 52/36/52 50/36/50 43/36/43
f 45/36/45 58/36/58 55/36/55
f 45/36/45 44/36/44 58/36/58
f 50/36/50 42/36/42 43/36/43
f 50/36/50 61/36/61 42/36/42
f 44/36/44 62/36/62 58/36/58
f 44/36/44 47/36/47 62/36/62
f 61/36/61 46/36/46 42/36/42
f 3/37/3 31/37/31 29/37/29
f 3/37/3 30/37/30 31/37/31
f 3/37/3 2/37/2 30/37/30
f 7/37/7 34/37/34 35/37/35
f 7/37/7 35/37/35 36/37/36
f 7/37/7 36/37/36 9/37/9
f 63/38/63 38/38/38 40/38/40
f 63/38/63 43/38/43 38/38/38
f 63/38/63 40/38/40 45/38/45
f 19/39/19 10/39/10 15/39/15
f 19/40/19 12/40/12 23/40/23
f 23/39/23 18/39/18 14/39/14
v 0.120761 0.265778 0.131345
vt 0.193906 0.814478
vn 0.8273231 0.495044 0.265458
v 0.131339 0.1654719 0.14207
vt 0.175377 0.521056
vn 0.8786908 0.09369447 0.4681067
v 0.131339 0.1654718 -0.1297681
vt 0.815014 0.576266
vn 0.9619606 0.0199618 -0.2724579
v 0 0.177379 0.2158318
vt 0.00833949 0.574747
vn 0 0.113624 0.9935238
v 0.0901279 0.281083 -0.108203
vt 0.737532 0.699208
vn 0.5664079 0.8075239 -0.164582
v 0 0.27397 0.19279
vt 0.0605187 0.852668
vn 0 0.4666382 0.8844483
v 0.0221059 0.290929 0.0766939
vt 0.322202 0.907152
vn 0.2172001 0.9757103 -0.02852151
v 0 0.303928 0.13925
vt 0.181764 0.987756
vn 0 0.9719318 0.2352629
v 0.130674 0.08216353 -0.03883297
vt 0.58505 0.3312
vn 0.8513441 -0.4777311 0.2167629
v 0.130674 0.08861194 0.06576096
vt 0.348184 0.360277
vn 0.7859049 -0.5426295 -0.2964909
v -0.120761 0.265778 0.131345
vn -0.8273231 0.495044 0.265458
v -0.131339 0.1654719 0.14207
vn -0.8786908 0.09369458 0.4681067
v 0.0162629 0.254647 -0.152293
vt 0.881352 0.671832
vn -0.221214 0.7781571 -0.587823
v 0 0.1654718 -0.2157001
vt 0.985574 0.599409
vn 0 0.2643789 -0.9644188
v 0 0.09052831 -0.2157018
vt 0.985574 0.183123
vn 0 -0.6498443 -0.7600673
v -0.131339 0.1654718 -0.1297681
vn -0.9619606 0.019962 -0.2724579
v -0.130674 0.08216353 -0.03883297
vn -0.8513441 -0.4777311 0.2167629
v -0.130674 0.08861194 0.06576096
vn -0.7859049 -0.5426295 -0.2964909
v -0.0221059 0.290929 0.0766939
vn -0.2172001 0.9757103 -0.02852171
v -0.0162629 0.254647 -0.152293
vn 0.2212131 0.7781572 -0.5878232
v -0.0901279 0.281083 -0.108203
vn -0.5664079 0.8075239 -0.164582
v 0 0.298475 0.0602954
vt 0.911878 0.917752
vn 0 0.987835 -0.155506
v 0 0.247434 -0.16206
vn 0 0.8276551 -0.561237
v 0.132982 -1.08013E-05 -0.1627043
vt 0.706941 0.262136
vn 0.1645614 -0.8860186 -0.4334635
vt 0.965128 0.379414
v 0 0.07064035 0.00903223
vt 1.00339 0.0198042
vn 0 -0.9999419 0.01077725
vt 0.530507 0.435563
vt 0.442842 0.0198043
v -0.132982 -1.08013E-05 -0.1627043
vn -0.1645614 -0.8860186 -0.4334635
v 0.132982 -9.417329E-06 0.156938
vn 0.1531942 -0.8991283 0.4099999
v 0 0.09009935 0.2169031
vt 1.00332 0.0198042
vn 0 -0.6185239 0.785766
v -0.132982 -9.417329E-06 0.156938
vn -0.1531942 -0.8991283 0.4099999
v 0.11119 0.2259323 -0.1999604
vt 0.586128 0.718411
vn 0.4859795 0.5760546 -0.6572556
v 0.113379 0.1052281 -0.2701817
vn -0.4590136 -0.8871132 -0.04833848
v -0.11119 0.2259323 -0.1999604
vn -0.4859795 0.5760546 -0.6572556
v -0.113379 0.1052281 -0.2701817
vn 0.4590144 -0.8871128 -0.04833845
v 0 0.404593 -0.313306
vt 0.388001 0.853523
vn 0 0.9410372 0.3383031
v 0.0648485 0.34653 -0.320182
vt 0.388381 0.853523
vn 0.9678208 0.163902 0.190943
v 0 0.35821 -0.523558
vt 0.387515 0.853523
vn 0 0.230367 -0.9731039
v 0 0.199366 -0.211646
vt 0.389133 0.853523
vn 0 -0.1856999 0.9826065
v -0.0648485 0.34653 -0.320182
vn -0.9678208 0.163902 0.190943
v 0 0.298617 -0.325856
vt 0.388695 0.853523
vn 0 -0.8779367 -0.4787768
vt 0.0374374 0.966457
vt 0.040736 0.965922
o merged_1_0_node
g polygon_0
usemtl lambert10_mat_id
f 64/41/64 65/42/65 66/43/66
f 64/41/64 67/44/67 65/42/65
f 64/41/64 66/43/66 68/45/68
f 64/41/64 69/46/69 67/44/67
f 64/41/64 68/45/68 70/47/70
f 64/41/64 71/48/71 69/46/69
f 64/41/64 70/47/70 71/48/71
f 65/42/65 72/49/72 66/43/66
f 65/42/65 73/50/73 72/49/72
f 67/44/67 69/46/69 74/41/74
f 67/44/67 74/41/74 75/42/75
f 69/46/69 71/48/71 74/41/74
f 68/45/68 76/51/76 70/47/70
f 66/43/66 77/52/77 76/51/76
f 66/43/66 78/53/78 77/52/77
f 75/42/75 74/41/74 79/43/79
f 75/42/75 79/43/79 80/49/80
f 75/42/75 80/49/80 81/50/81
f 78/53/78 79/43/79 77/52/77
f 71/48/71 82/47/82 74/41/74
f 79/43/79 83/51/83 77/52/77
f 79/43/79 74/41/74 84/45/84
f 84/45/84 74/41/74 82/47/82
f 84/45/84 82/47/82 83/51/83
f 85/54/85 76/54/76 86/54/86
f 85/54/85 70/54/70 76/54/76
f 85/54/85 86/54/86 83/54/83
f 85/54/85 71/54/71 70/54/70
f 85/54/85 83/54/83 82/54/82
f 85/54/85 82/54/82 71/54/71
f 76/54/76 77/54/77 86/54/86
f 86/54/86 77/54/77 83/54/83
f 87/55/87 72/56/72 88/57/88
f 87/55/87 66/58/66 72/56/72
f 87/55/87 88/57/88 78/59/78
f 87/55/87 78/59/78 66/58/66
f 88/57/88 89/55/89 78/59/78
f 88/57/88 80/56/80 89/55/89
f 78/59/78 89/55/89 79/58/79
f 79/58/79 89/55/89 80/56/80
f 90/55/90 91/60/91 88/59/88
f 90/55/90 65/56/65 91/60/91
f 90/55/90 88/59/88 73/58/73
f 90/55/90 73/58/73 65/56/65
f 91/60/91 92/55/92 88/59/88
f 91/60/91 75/56/75 92/55/92
f 88/59/88 92/55/92 81/58/81
f 81/58/81 92/55/92 75/56/75
f 93/61/93 66/61/66 94/61/94
f 93/61/93 68/61/68 66/61/66
f 93/61/93 94/61/94 76/61/76
f 93/61/93 76/61/76 68/61/68
f 76/61/76 94/61/94 66/61/66
f 95/61/95 96/61/96 79/61/79
f 95/61/95 83/61/83 96/61/96
f 95/61/95 79/61/79 84/61/84
f 95/61/95 84/61/84 83/61/83
f 83/61/83 79/61/79 96/61/96
f 97/62/97 98/63/98 99/64/99
f 97/62/97 100/65/100 98/63/98
f 97/62/97 99/64/99 101/63/101
f 97/62/97 101/63/101 100/65/100
f 98/63/98 102/66/102 99/64/99
f 98/63/98 100/65/100 102/66/102
f 102/66/102 100/65/100 101/63/101
f 102/66/102 101/63/101 99/64/99
f 91/67/91 65/67/65 67/67/67
f 91/67/91 67/67/67 75/67/75
f 88/68/88 72/68/72 73/68/73
f 88/68/88 81/68/81 80/68/80
vt 0.645102 0.959689
vt 1.01685 0.800603
vt 0.967498 0.968485
vt 0.569521 0.767041
vt 0.0703611 0.790871
o merged_2_0_node
g polygon_0
usemtl TEX_ANIM_EYE_mat_id
f 10/69/10 61/70/61 28/71/28
f 46/72/46 10/69/10 19/73/19
f 61/70/61 10/69/10 46/72/46
f 14/69/14 33/71/33 62/70/62
f 47/72/47 23/73/23 14/69/14
f 62/70/62 47/72/47 14/69/14
