mtllib Wingull.mtl
v 0 0.323333 0.126589
vt 0.660695 0.334078
vn 0 0.8643771 0.5028441
v 0.0903349 0.388314 0.0219469
vt 0.677209 0.344333
vn 0.499594 0.8577281 0.121278
v 0.0699276 0.322619 0.015493
vt 0.678227 0.333966
vn 0.2413201 0.8672414 -0.4354962
v 0.122993 0.260651 0.166704
vt 0.654365 0.324187
vn 0.6789158 0.4776039 0.5576449
v -0.0699276 0.322619 0.015493
vn -0.2413199 0.8672417 -0.4354959
v 0 0.251945 0.22064
vt 0.645853 0.322813
vn 0 0.4892088 0.8721667
v -0.0903349 0.388314 0.0219469
vn -0.499594 0.8577281 0.121278
v -0.122993 0.260651 0.166704
vn -0.6789158 0.4776039 0.5576449
v 0.160251 0.224292 0.0368653
vt 0.674854 0.318449
vn 0.9535529 0.301211 -0.00295989
v -0.160251 0.224292 0.0368653
vn -0.9535529 0.301211 -0.00295987
v 0 0.316398 -0.0845754
vt 0.694019 0.332984
vn 0 0.9383728 -0.3456249
v -0.0990406 0.262122 -0.134321
vt 0.701869 0.324419
vn -0.635448 0.6362441 -0.437492
v 0 0.131814 0.234788
vt 0.64362 0.303855
vn 0 0.000387788 0.9999999
v 0.0785549 0.131814 0.215791
vt 0.646618 0.303855
vn 0.4323331 -0.008464353 0.9016743
v -0.0785549 0.131814 0.215791
vn -0.4323331 -0.008464383 0.9016743
v 0.146165 0.131814 0.164568
vt 0.654702 0.303855
vn 0.9038261 -0.0915437 0.417993
v 0.0990406 0.262122 -0.134321
vn 0.635448 0.6362441 -0.437492
v -0.146165 0.163082 -0.118948
vt 0.699443 0.308789
vn -0.9306164 0 -0.3659961
v 0 0.239046 -0.197381
vt 0.715001 0.320777
vn 0 0.6434762 -0.7654662
v -0.0612105 0.163082 -0.222254
vt 0.718926 0.308789
vn -0.46274 0 -0.886494
v -0.146165 0.131814 0.164568
vn -0.9038261 -0.0915437 0.417993
v 0 0.0414788 0.22064
vt 0.645853 0.289599
vn 0 -0.6497867 0.7601166
v 0.160251 0.101871 0.0368653
vt 0.674854 0.29913
vn 0.9430127 -0.3312489 -0.03164169
v 0.0990406 0.0327731 0.173312
vt 0.653322 0.288225
vn 0.56842 -0.706736 0.421216
v -0.0990406 0.0640411 -0.134321
vt 0.701869 0.29316
vn -0.6096621 -0.6573051 -0.443015
v -0.160251 0.101871 0.0368653
vn -0.9430127 -0.3312489 -0.03164169
v 0.0612105 0.163082 -0.222254
vn 0.46274 0 -0.886494
v 0.146165 0.163082 -0.118948
vn 0.9306164 0 -0.3659961
v -0.0990406 0.0327731 0.173312
vn -0.56842 -0.706736 0.421216
v 0.0903349 0.0169168 0.0368653
vt 0.674854 0.285723
vn 0.51871 -0.8532819 -0.05338669
v 0 0.00283058 0.11021
vt 0.66328 0.2835
vn 0 -0.9917415 0.1282529
v 0 0.0871172 -0.197381
vt 0.715001 0.296801
vn 0 -0.6600419 -0.7512289
v -0.0903349 0.0169168 0.0368653
vn -0.51871 -0.8532819 -0.05338669
v 0 0.00283058 -0.068394
vt 0.691465 0.2835
vn 0 -0.9620461 -0.272887
v 0.0990406 0.0640411 -0.134321
vn 0.6096621 -0.6573051 -0.443015
v -0.0463174 0.126809 0.319972
vt 0.470513 0.673688
vn -0.9760703 0.1940691 0.09810153
v 0 0.199642 0.319972
vt 0.470513 0.971399
vn 0 0.9945131 0.104612
v -0.0463174 0.126809 0.201113
vt 0.956355 0.673688
vn -0.9807814 0.1951101 0
v 0 0.157536 0.3983
vt 0.150344 0.799288
vn 0 0.598505 0.801119
v -0.0286257 0.0557464 0.201113
vt 0.956355 0.383218
vn -0.6880691 -0.7256451 0
v 0 0.0831259 0.424403
vt 0.0436455 0.495133
vn 0 0.331025 0.943622
v -0.0286257 0.0557464 0.319972
vt 0.470513 0.383218
vn -0.6852573 -0.7188333 0.117052
v 0 0.0886811 0.384012
vt 0.208747 0.51784
vn 0.0052235 -0.9470459 0.321056
vn -1.6602E-06 -0.9906741 -0.136253
v 0 0.199642 0.201113
vt 0.956355 0.971399
vn 0 1 0
v 0.0463174 0.126809 0.319972
vn 0.9760703 0.1940691 0.09810164
v 0.0286257 0.0557464 0.201113
vn 0.6880691 -0.7256451 0
v 0.0463174 0.126809 0.201113
vn 0.9807814 0.1951101 0
v 0.0286257 0.0557464 0.319972
vn 0.6852573 -0.7188333 0.117052
v 0.3718698 0.1901107 0.008281074
vt 0.303632 0.0667201
vn 0.07290515 0.9973389 4.118395E-06
v 0.3718697 0.1408364 0.008280896
vn 0.07290073 -0.9973392 -3.140633E-06
v 0.4281046 0.1654734 -0.08023653
vt 0.369308 0.111331
vn 0.06566255 -2.632315E-06 -0.9978418
v 0.4281057 0.1654739 0.09679925
vt 0.369308 0.0221089
vn 0.06567537 2.905564E-06 0.997841
v 0.133757 0.1654729 -0.05417576
vt 0.0255436 0.0981963
vn -0.8546727 -3.218809E-06 -0.5191672
v 0.1337578 0.1654732 0.07073455
vt 0.0255436 0.0352439
vn -0.8546759 -3.375396E-07 0.5191618
v -0.3718684 0.1408357 0.008281293
vn -0.0729063 -0.9973388 -3.746896E-06
v -0.3718682 0.1901092 0.008281509
vn -0.07289822 0.9973394 4.983738E-06
v -0.4281026 0.1654713 -0.08023708
vn -0.06565975 -4.511217E-06 -0.997842
v -0.4281041 0.1654721 0.09680083
vn -0.06567581 3.897751E-06 0.997841
v -0.1337569 0.1654728 -0.05417652
vn 0.8546677 1.804509E-06 -0.5191755
v -0.1337579 0.1654733 0.07073529
vn 0.8546723 6.179711E-06 0.5191679
v 0.0713038 0.0130079 -0.108398
vt 0.386485 0.217032
vn -0.230068 -0.8374199 -0.4957789
v 0.0990406 0.0672964 -0.0957216
vn 0.4803592 -0.04084532 -0.8761203
v 0.0903349 0.050195 -0.0376778
vn 0.100158 -0.8914937 0.4418229
v 0 0.0594708 -0.0685798
vn -0.5560563 -0.8307254 -0.02639521
v -0.0713038 0.0130079 -0.108398
vn 0.230068 -0.8374199 -0.4957789
vn 0.5560563 -0.8307254 -0.02639521
v -0.0903349 0.050195 -0.0376778
vn -0.1001581 -0.8914935 0.4418232
v -0.0990406 0.0672964 -0.0957216
vn -0.4803592 -0.04084542 -0.8761203
v 0 0.161775 -0.225715
vt 0.937969 0.338242
vn 0.02022179 -0.9540426 0.2989879
v -0.147016 0.171851 -0.399202
vt 0.887703 -0.0166139
vn -0.420642 -0.9068921 0.0246361
v -0.063369 0.161884 -0.452831
vt 0.981831 -0.0221661
vn 0.05600397 -0.9690945 -0.2402489
v -0.0647046 0.2062631 -0.363278
vt 0.935841 0.093022
vn 0.180278 0.9818102 0.05956931
v 0 0.1605911 -0.225715
vt 0.937442 0.337386
v 0.0600811 0.162001 -0.451254
vt 0.98471 -0.0174916
vn -0.0800385 -0.964055 -0.253361
v 0.143905 0.169355 -0.404739
vt 0.890994 -0.0278057
vn 0.4074809 -0.9131277 0.0125336
v 0.0613795 0.204745 -0.365329
vt 0.939277 0.0905556
vn -0.156453 0.984619 0.0777676
v 0.000328813 0.217298 -0.379462
vt 0.938375 0.0839782
vn -0.0003550989 -0.9741068 -0.226088
v 0 0.161839 -0.225715
vt 0.938375 0.255541
vn 0.00113478 -0.9406729 -0.339313
v -0.0656826 0.203076 -0.454549
vt 0.985182 -0.00778186
vn 0.237729 -0.9710078 -0.0250752
v 0.0663402 0.203076 -0.454549
vt 0.891568 -0.00778186
vn -0.2375931 -0.9710444 -0.02494841
v 0.00032881 0.228421 -0.378251
vt 0.938375 0.0770935
vn 0.0004596718 0.9696025 0.2446849
vn -0.337644 0.9410509 -0.0204899
vn -0.00123246 0.9164929 0.400049
vn 0.337658 0.9410461 -0.0204762
vt 0.308525 0.334822
vt 0.483808 0.344809
vt 0.233189 0.268289
o merged_0_0_node
g polygon_0
usemtl mat_body_mat_id
f 1/1/1 2/2/2 3/3/3
f 1/1/1 4/4/4 2/2/2
f 1/1/1 3/3/3 5/3/5
f 1/1/1 6/5/6 4/4/4
f 1/1/1 5/3/5 7/2/7
f 1/1/1 8/4/8 6/5/6
f 1/1/1 7/2/7 8/4/8
f 2/2/2 9/6/9 3/3/3
f 2/2/2 4/4/4 9/6/9
f 5/3/5 10/6/10 7/2/7
f 5/3/5 3/3/3 11/7/11
f 5/3/5 12/8/12 10/6/10
f 5/3/5 11/7/11 12/8/12
f 7/2/7 10/6/10 8/4/8
f 6/5/6 13/9/13 14/10/14
f 6/5/6 15/10/15 13/9/13
f 4/4/4 16/11/16 9/6/9
f 4/4/4 14/10/14 16/11/16
f 3/3/3 17/8/17 11/7/11
f 3/3/3 9/6/9 17/8/17
f 12/8/12 18/12/18 10/6/10
f 12/8/12 11/7/11 19/13/19
f 12/8/12 20/14/20 18/12/18
f 12/8/12 19/13/19 20/14/20
f 11/7/11 17/8/17 19/13/19
f 8/4/8 21/11/21 15/10/15
f 8/4/8 10/6/10 21/11/21
f 13/9/13 22/15/22 14/10/14
f 13/9/13 15/10/15 22/15/22
f 16/11/16 23/16/23 9/6/9
f 16/11/16 14/10/14 24/17/24
f 16/11/16 24/17/24 23/16/23
f 14/10/14 22/15/22 24/17/24
f 18/12/18 20/14/20 25/18/25
f 18/12/18 26/16/26 10/6/10
f 18/12/18 25/18/25 26/16/26
f 10/6/10 26/16/26 21/11/21
f 17/8/17 27/14/27 19/13/19
f 17/8/17 9/6/9 28/12/28
f 17/8/17 28/12/28 27/14/27
f 9/6/9 23/16/23 28/12/28
f 19/13/19 27/14/27 20/14/20
f 15/10/15 29/17/29 22/15/22
f 15/10/15 21/11/21 29/17/29
f 21/11/21 26/16/26 29/17/29
f 24/17/24 30/19/30 23/16/23
f 24/17/24 22/15/22 31/20/31
f 24/17/24 31/20/31 30/19/30
f 22/15/22 29/17/29 31/20/31
f 25/18/25 20/14/20 32/21/32
f 25/18/25 33/19/33 26/16/26
f 25/18/25 32/21/32 34/22/34
f 33/19/33 31/20/31 29/17/29
f 33/19/33 29/17/29 26/16/26
f 33/19/33 34/22/34 31/20/31
f 31/20/31 34/22/34 30/19/30
f 20/14/20 27/14/27 32/21/32
f 28/12/28 23/16/23 35/18/35
f 28/12/28 35/18/35 27/14/27
f 35/18/35 34/22/34 32/21/32
f 35/18/35 23/16/23 30/19/30
f 35/18/35 32/21/32 27/14/27
f 36/23/36 37/24/37 38/25/38
f 36/23/36 39/26/39 37/24/37
f 36/23/36 38/25/38 40/27/40
f 36/23/36 41/28/41 39/26/39
f 36/23/36 40/27/40 42/29/42
f 36/23/36 42/29/42 43/30/43
f 36/23/36 43/30/43 41/28/44
f 37/24/37 44/31/45 38/25/38
f 37/24/37 39/26/39 45/23/46
f 37/24/37 45/23/46 44/31/45
f 39/26/39 41/28/41 45/23/46
f 41/28/44 43/30/43 45/23/46
f 40/27/40 46/27/47 42/29/42
f 44/31/45 45/23/46 47/25/48
f 43/30/43 42/29/42 48/29/49
f 43/30/43 48/29/49 45/23/46
f 48/29/49 42/29/42 46/27/47
f 48/29/49 46/27/47 47/25/48
f 48/29/49 47/25/48 45/23/46
f 49/32/50 50/32/51 51/33/52
f 49/32/50 52/34/53 50/32/51
f 49/32/50 51/33/52 53/35/54
f 49/32/50 54/36/55 52/34/53
f 49/32/50 53/35/54 54/36/55
f 50/32/51 53/35/54 51/33/52
f 50/32/51 52/34/53 54/36/55
f 50/32/51 54/36/55 53/35/54
f 55/32/56 56/32/57 57/33/58
f 55/32/56 58/34/59 56/32/57
f 55/32/56 57/33/58 59/35/60
f 55/32/56 60/36/61 58/34/59
f 55/32/56 59/35/60 60/36/61
f 56/32/57 59/35/60 57/33/58
f 56/32/57 58/34/59 60/36/61
f 56/32/57 60/36/61 59/35/60
f 61/37/62 62/37/63 63/37/64
f 61/37/62 64/37/65 62/37/63
f 61/37/62 63/37/64 64/37/65
f 65/37/66 64/37/67 66/37/68
f 65/37/66 67/37/69 64/37/67
f 65/37/66 66/37/68 67/37/69
f 68/38/70 69/39/71 70/40/72
f 68/38/70 71/41/73 69/39/71
f 68/38/70 70/40/72 71/41/73
f 71/41/73 70/40/72 69/39/71
f 72/42/43 73/43/74 74/44/75
f 72/42/43 75/45/76 73/43/74
f 72/42/43 74/44/75 75/45/76
f 75/45/76 74/44/75 73/43/74
f 76/46/77 77/47/78 78/48/79
f 76/46/77 79/49/80 77/47/78
f 76/46/77 78/48/79 79/49/80
f 80/50/81 78/48/82 77/47/83
f 80/50/81 79/49/84 78/48/82
f 80/50/81 77/47/83 79/49/84
f 34/51/34 35/52/35 30/53/30
f 34/51/34 33/53/33 25/52/25
vt 0.47569 0.726748
vt -0.233404 0.979159
vt 0.876815 0.99745
o merged_1_0_node
g polygon_0
usemtl TEX_ANIM_EYE_mat_id
f 15/54/15 6/55/6 8/56/8
f 4/56/4 6/55/6 14/54/14
