mtllib Gogoat.mtl
v 0 0.254313 0.141214
vt 0.315141 0.566115
vn 0 -0.7078988 -0.7063138
v -0.114819 0.433994 -0.0388702
vt 0.315141 0.543671
vn 0 0.7063138 -0.7078988
v 0 0.408123 -0.0129416
vt 0.323407 0.547095
v -0.167787 0.363073 0.0322094
vt 0.306876 0.547095
vn -0.4443991 -0.19057 -0.8753242
v 0.114819 0.433994 -0.0388702
vt 0.331673 0.550518
v -0.277198 0.328739 0.0666204
vt 0.29861 0.550518
vn -0.6761491 0.5203871 -0.5215551
v 0.167787 0.363073 0.0322094
vt 0.335097 0.558784
vn 0.4443991 -0.19057 -0.8753242
v -0.237286 0.254313 0.141214
vt 0.295186 0.558784
vn -0.6346033 -0.5470912 -0.5458662
v 0.277198 0.328739 0.0666204
vt 0.33852 0.56705
vn 1 0 0
v -0.277198 0.179887 0.215807
vt 0.291763 0.56705
vn -1 0 0
v 0.237287 0.254313 0.141214
vt 0.335097 0.575315
vn 0.6346038 -0.5470909 -0.5458659
v -0.167787 0.145553 0.250218
vt 0.295186 0.575315
vn -0.4443991 -0.8757491 -0.188608
v 0.277198 0.179887 0.215807
vt 0.331673 0.583581
vn 0.6761491 -0.5203871 0.5215551
v -0.114819 0.0746323 0.321297
vt 0.29861 0.583581
vn -0.6761491 -0.5203871 0.5215551
v 0.167787 0.145553 0.250218
vt 0.323407 0.587005
vn 0.4443991 -0.8757491 -0.188608
v 0 0.100503 0.295369
vt 0.306876 0.587005
vn 0 -0.9992671 -0.0382791
v 0.114819 0.0746323 0.321297
vt 0.315141 0.590429
vn 0 -0.7063138 0.7078988
v 0 0.336992 -0.205377
vt 1 0.684586
vn 0 -1 0
v 0.0994472 0.362818 -0.189914
vt 1.12431 0.665257
v 0.0977804 0.383109 0.18863
vt 1.12223 0.192077
v 0.0805309 0.387169 -0.232931
vt 1.10066 0.719028
vn 0.894066 -0.00544613 0.447902
v -0.0977804 0.383109 0.18863
vt 0.877774 0.192077
vn -0.3473611 -0.06581222 0.9354192
v 0.134888 0.425025 -0.29447
vt 1.16861 0.798424
vn 0.9086083 -0.142547 -0.3925701
v -0.0994472 0.362818 -0.189914
vt 0.875691 0.665257
v 0.091432 0.503647 -0.400224
vt 1.11429 0.934282
vn 0.6608227 0.04049538 -0.7494488
v -0.0805309 0.387169 -0.232931
vt 0.899336 0.719028
v 0 0.540387 -0.45138
vt 1 1
v -0.134888 0.425025 -0.29447
vt 0.83139 0.798424
v -0.091432 0.503647 -0.400224
vt 0.88571 0.934282
vn -0.6608227 0.04049509 -0.7494488
v 0 0.388219 -0.202179
vt 1 0.680588
vn -0.225383 0.9729112 -0.05144211
v 0 0.43051 0.317016
vt 0.315686 0.641607
vn 0 0.7078988 0.7063138
v 0.090307 0.512936 0.116614
vt 0.331291 0.658095
vn 0.263084 0.9647071 -0.011273
v -0.090307 0.512936 0.116614
vt 0.315686 0.664559
v 0.21802 0.430152 0.199584
vt 0.337756 0.642489
v -0.21802 0.430152 0.199584
vt 0.30008 0.658095
v 0.21802 0.313077 0.316921
vt 0.331291 0.626884
v -0.21802 0.313077 0.316921
vt 0.293616 0.642489
v 0.090307 0.230293 0.399891
vt 0.315686 0.62042
v -0.090307 0.230293 0.399891
vt 0.30008 0.626884
v 0.150603 0.412731 0.471247
vt 0.0510418 0.408438
vn 0.8438987 -0.3207039 0.4300978
v 0.222509 0.412141 0.344705
vt 0.0761702 0.408321
vn 0.7903834 -0.6090383 0.06607864
v 0.18063 0.510532 0.4531
vt 0.0546447 0.428386
vn 0.86001 0.0260655 0.509611
v 0.1483 0.35989 0.22654
vt 0.099636 0.397945
vn 0.5307728 -0.6686997 -0.5206928
v 0.0823924 0.491098 0.60929
vt 0.0248102 0.424
vn 0.688024 0.0741957 0.721885
v 0.142529 0.312401 0.363424
vt 0.0724529 0.388514
vn 0.5632219 -0.8260528 0.02044229
v 0.0459223 0.407088 0.594867
vt 0.026492 0.403423
vn 0.4106139 -0.4675339 0.7828208
v 0.0675371 0.32357 0.492536
vt 0.0443177 0.390732
vn 0.2880631 -0.9070954 0.3069161
v 0.143447 0.342391 0.520791
vt 0.0406465 0.401519
vn 0.7601997 -0.4343499 0.4831528
v 0 0.316662 0.270062
vt 0.0909932 0.38936
vn 0 -0.9504207 -0.3109669
v 0 0.317716 0.545721
vt 0.0354048 0.397077
vn 0 -0.8321403 0.5545652
v -0.0459223 0.407088 0.594867
vn -0.4106139 -0.4675339 0.7828208
v 0 0.278124 0.398579
vt 0.0654719 0.381711
vn 0 -0.9963152 -0.08576742
v -0.0675371 0.32357 0.492536
vn -0.288063 -0.9070951 0.306917
v -0.142529 0.312401 0.363424
vn -0.5632219 -0.8260528 0.02044229
v -0.1483 0.35989 0.22654
vn -0.5307728 -0.6686997 -0.5206928
v -0.150603 0.412731 0.471247
vn -0.8438987 -0.3207039 0.4300978
v -0.143447 0.342391 0.520791
vn -0.7602001 -0.43435 0.483152
v -0.0823924 0.491098 0.60929
vn -0.688024 0.0741958 0.721885
v -0.222509 0.412141 0.344705
vn -0.7903838 -0.6090379 0.06607859
v -0.18063 0.510532 0.4531
vn -0.86001 0.0260655 0.509611
v 0 0.738937 0.414881
vt 0.591255 0.360504
vn 0 0.6042333 -0.7968074
v 0.0495662 0.728004 0.428072
vt 0.653213 0.344015
vn -0.2983039 0.5960979 -0.7454408
v 0.0631348 0.6749671 0.425137
vt 0.670173 0.347683
vn 0.09210208 -0.8572218 -0.5066439
v 0.056104 0.7407241 0.479643
vt 0.661385 0.279551
vn 0.137996 0.7284659 0.6710399
v 0 0.6749671 0.425137
vt 0.591255 0.333038
vn 0 -0.785115 -0.61935
v 0 0.7407241 0.479643
vt 0.591255 0.30002
vn 0 0.9408628 0.3387879
v -0.0631348 0.6749671 0.425137
vn -0.09210208 -0.8572218 -0.5066439
v -0.056104 0.7407241 0.479643
vn -0.137996 0.7284659 0.6710399
v -0.0495662 0.728004 0.428072
vn 0.2983039 0.5960979 -0.7454408
v 0.0703202 0.6588761 0.511468
vt 0.679155 0.237517
vn 0.6357248 -0.6835128 0.3586979
v 0 0.6907771 0.548628
vt 0.591242 0.2295
vn 0 0.4518572 0.8920903
v -0.0703202 0.6588761 0.511468
vn -0.6357248 -0.6835128 0.3586979
v 0 0.61037 0.573378
vt 0.591259 0.16327
vn 0 -0.9669173 0.2550901
v 0 0.497738 0.657881
vt 0 0.110481
vn -0.003535098 0.2514089 0.9678745
vt 0.0846768 0.0986193
vt 0.0537632 0.0198455
v -0.136261 0.641008 0.4828
vt 0.121761 0.250234
vn -0.629818 0.5027549 0.5920869
vt -0.0537632 0.0198455
v 0.00185272 0.605652 0.580932
vt 0 0.198389
vn 0.00303656 0.6319479 0.7750049
vt -0.0846768 0.0986193
v 0.136261 0.641008 0.4828
vt -0.121761 0.250234
vn 0.6322061 0.5022221 0.5899901
v 0 0.713874 0.469154
vt 0 0.322921
vn -0.00127979 0.9065838 0.4220239
v -0.127585 0.7035581 0.372552
vt 0.173775 0.34978
vn -0.3654031 0.9265162 0.08971292
v -0.212002 0.643819 0.358323
vt 0.229561 0.289225
vn -0.8780647 0.4707198 0.08616967
v -0.147969 0.664587 0.233709
vt 0.323923 0.340592
vn -0.5303332 0.6413403 -0.5544632
v 0.127585 0.7035581 0.372552
vt -0.173775 0.34978
vn 0.3654031 0.9265162 0.08971292
v 0.212002 0.643819 0.358323
vt -0.229561 0.289225
vn 0.8780647 0.4707198 0.08616967
v -0.22023 0.5111611 0.226388
vt 0.36016 0.178596
vn -0.8432372 -0.0153669 -0.5373221
v 0.147969 0.664587 0.233709
vt -0.323923 0.340592
vn 0.5303332 0.6413403 -0.5544632
v 0.22023 0.5111611 0.226388
vt -0.36016 0.178596
vn 0.8432372 -0.0153669 -0.5373221
v 0.235792 0.510664 0.343781
vt -0.256851 0.154215
vn 0.9948054 -0.04058492 0.09335443
vt -0.15247 0.150785
v -0.235792 0.510664 0.343781
vt 0.256851 0.154215
vn -0.9948055 -0.04058492 0.09335434
vt 0.372942 0.0226721
vt -0.372942 0.0226721
vt -0.253327 0.0632501
vt 0.15247 0.150785
vt 0.253327 0.0632501
v 0.126284 0.7660071 0.382223
vt 0.76612 0.0641433
vn -0.902563 0.297354 -0.311385
v 0.174462 0.8031 0.412969
vt 0.761651 0.00418806
vn 0.114143 0.7713708 0.6260659
v 0.183286 0.899821 0.260708
vt 0.563336 0.0113907
vn 0.01755479 0.9507306 0.3095209
vt 0.901461 0.0217242
v 0.142351 0.8547981 0.201089
vt 0.533417 0.0998464
vn -0.9696316 0.2303099 -0.08229196
vt 0.857127 0.0711513
v 0.174462 0.728915 0.351477
vt 0.750312 0.124098
vn 0.11102 -0.8767859 -0.46789
vt 0.89141 0.128013
v 0.22264 0.7660071 0.382223
vt 0.72382 0.0641433
vn 0.9795635 -0.1065279 0.1706079
v 0.161442 0.7000641 0.470536
vt 0.902633 0.0701418
vn 0.635257 -0.434249 0.638652
v 0.183286 0.8129671 0.205135
vt 0.567012 0.140218
vn 0.02173231 -0.9689934 0.2461291
v 0.183286 0.858348 0.134126
vt 0.461873 0.143307
vn 0.0206168 0.7036719 -0.7102259
v 0.171348 0.662102 0.0705395
vt 0.534092 0.390788
vn -0.05418659 -0.8733849 0.4840069
v 0.150943 0.6978921 0.0353722
vt 0.472576 0.378552
vn -0.9471734 0.04209227 -0.3179478
vt 0.991927 0.0838984
v 0.224219 0.8547981 0.201089
vn 0.9803336 0.1833409 -0.07302097
v 0.191751 0.6978921 0.0353723
vn 0.9418699 0.0812717 -0.326
v 0.189435 0.6360871 -0.0509133
vt 0.450952 0.503116
vn -0.0226135 -0.8889472 -0.4574511
v -0.126284 0.7660071 0.382223
vn 0.902563 0.297354 -0.311385
v -0.183286 0.899821 0.260708
vn -0.01755479 0.9507306 0.3095209
v -0.174462 0.8031 0.412969
vn -0.114143 0.7713708 0.6260659
v -0.142351 0.8547981 0.201089
vn 0.9696316 0.2303099 -0.08229196
v -0.174462 0.728915 0.351477
vn -0.11102 -0.8767859 -0.46789
v -0.22264 0.7660071 0.382223
vn -0.9795635 -0.1065279 0.1706079
v -0.183286 0.858348 0.134126
vn -0.0206168 0.7036719 -0.7102259
v -0.224219 0.8547981 0.201089
vn -0.9803336 0.1833409 -0.07302107
v -0.161442 0.7000641 0.470536
vn -0.635257 -0.434249 0.638652
v -0.150943 0.6978921 0.0353722
vn 0.9471734 0.04209217 -0.3179478
v -0.183286 0.8129671 0.205135
vn -0.02173231 -0.9689934 0.2461291
v -0.171348 0.662102 0.0705395
vn 0.05418669 -0.8733849 0.4840069
v -0.191751 0.6978921 0.0353723
vn -0.94187 0.0812715 -0.326
v -0.189435 0.6360871 -0.0509133
vn 0.02261348 -0.8889474 -0.4574507
v 0 0.0728417 -0.0566667
vt 0.447185 0.743932
vn 0 -0.9951016 -0.09885776
v -0.0682088 0.1204707 0.1291344
vt 0.214935 0.803463
vn 0.05544133 -0.9844352 -0.166774
v -0.0550583 0.1159083 -0.1047764
vt 0.507322 0.79776
vn 0.03563478 -0.9913602 0.1262341
v 0 0.0728098 0.0922467
vt 0.261045 0.743891
vn 0 -0.9898122 0.142379
v 0 0.1469092 -0.2994174
vt 0.750618 0.836503
vn 0 -0.72723 -0.6863939
v 0.0682086 0.1204707 0.1291344
vt 0.214935 0.803411
vn -0.05544093 -0.9844352 -0.166774
v 0.0550582 0.1159083 -0.1047764
vt 0.507322 0.798123
vn -0.03563478 -0.9913602 0.1262341
v -0.156506 0.1462517 -0.05390471
vt 0.443734 0.811142
vn -0.8193566 -0.5536733 0.1486622
v 0 0.1463138 0.3010851
vt 2.55049E-06 0.835764
vn 0 -0.6606079 0.7507311
v -0.156506 0.155203 0.09128335
vt 0.262248 0.813469
vn -0.8759887 -0.4601716 -0.1445191
v 0.156506 0.1462527 -0.05390461
vt 0.443734 0.811982
vn 0.8193566 -0.5536733 0.1486622
v -0.186157 0.2296918 0.1972091
vt 0.129841 0.818897
vn -0.891045 0.05167734 0.4509637
v 0.156506 0.155203 0.09128335
vt 0.262248 0.812174
vn 0.8759887 -0.4601716 -0.1445191
v 0.186157 0.2296918 0.1972091
vn 0.891045 0.05167704 0.4509637
v 0.186157 0.2296917 -0.1801323
vt 0.601517 0.818897
vn 0.8920844 0.1245501 -0.4343649
v -0.186157 0.2296917 -0.1801323
vn -0.8920844 0.1245501 -0.4343649
v -0.177177 0.343465 -0.150197
vt 0.576309 0.961112
vn -0.7407669 0.6162789 -0.267329
v -0.177177 0.343465 0.182321
vt 0.148451 0.961112
vn -0.8058336 0.5104328 0.3001508
v 0 0.343465 0.28382
vt 0.0215771 0.961112
vn 0 0.5184768 0.8550917
v 0 0.2296918 0.2995982
vt 0.00185651 0.818897
vn 0 0.1183731 0.9929692
v 0.177177 0.343465 -0.150197
vn 0.7407669 0.6162789 -0.267329
v 0 0.343465 -0.248139
vt 0.746437 0.961112
vn 0 0.7659377 -0.6429148
v 0 0.2296917 -0.2994148
vt 0.778781 0.818897
vn 0 0.264108 -0.9644931
v 0 0.374575 0.102628
vt 0.248067 1
vn 0 0.9998271 0.0185912
v 0.177177 0.343465 0.182322
vn 0.8058336 0.5104328 0.3001508
v 0.0914499 0.5067691 0.123763
vt 0.205832 0.404246
vn 0.3624391 -0.009570473 -0.9319583
vt 0.194161 0.420999
vt 0.194938 0.404712
v 0 0.628495 0.147425
vt 0.20332 0.417168
vn 0 0.5421517 -0.8402806
vt 0.194922 0.388655
v -0.0914499 0.5067691 0.123763
vn -0.3624388 -0.009570515 -0.9319584
v 0 0.390397 0.159051
vt 0.202086 0.391893
vn 0 -0.5845422 -0.8113633
v 0 0.7238411 0.271081
vt 0.190194 0.427289
vn 0 0.9545575 -0.2980269
vt 0.179423 0.425136
vt 0.190302 0.384066
vt 0.169168 0.426231
v -0.184594 -2.049644E-05 -0.2258513
vt 0.697017 0.564411
vn -0.4532064 -0.7368413 -0.5016661
vt 0.515559 0.720186
vt 0.590694 0.752851
vt 0.545201 0.458684
vt 0.829814 0.622843
vt 0.791682 0.458684
v 0.184594 -2.049644E-05 -0.2258513
vn 0.4532062 -0.736841 -0.5016668
vt 0.515568 0.720206
vt 0.8298 0.62284
vt 0.590704 0.752866
v -0.184594 -1.796931E-05 0.2178469
vn -0.4260278 -0.7135937 0.5561335
vt 0.526467 0.717122
vt 0.555808 0.467936
vt 0.619267 0.740045
vt 0.782502 0.468127
vt 0.809672 0.613143
v 0.184594 -1.796931E-05 0.2178469
vn 0.4260267 -0.7135944 0.5561333
vt 0.526502 0.71717
vt 0.619288 0.740076
vt 0.555808 0.467971
vt 0.809615 0.613158
vt 0.782465 0.468153
v -0.382384 0.743137 0.297449
vt 0.293478 0.424079
vn -0.5972357 0.8020657 0
v -0.170996 0.6740631 0.297449
vt 0.241253 0.407014
vn 0.765124 0.643883 0
v -0.293802 0.6453691 0.255289
vt 0.271593 0.399925
vn 0.03956742 -0.05123792 -0.9979024
v -0.293802 0.6453691 0.339608
vn 0.03956742 -0.05123792 0.9979024
v -0.331916 0.578338 0.297449
vt 0.281009 0.383364
vn -0.5446351 -0.8386732 0
v -0.222073 0.609341 0.297449
vt 0.253872 0.391024
vn 0.6015097 -0.7988656 0
v 0.382384 0.743137 0.297449
vn 0.5972357 0.8020657 0
v 0.293802 0.6453691 0.255289
vn -0.03956742 -0.05123792 -0.9979024
v 0.170996 0.6740631 0.297449
vn -0.765124 0.643883 0
v 0.331916 0.578338 0.297449
vn 0.5446351 -0.8386732 0
v 0.293802 0.6453691 0.339608
vn -0.03956742 -0.05123792 0.9979024
v 0.222073 0.609341 0.297449
vn -0.6015097 -0.7988656 0
vt 0.125162 0.477635
vt 0.250228 0.477635
vt 0.250228 0.684792
vt 0 0.684792
vt 0 0.477635
o merged_0_0_node
g polygon_0
usemtl mat_body_mat_id
f 1/1/1 2/2/2 3/3/2
f 1/1/1 4/4/3 2/2/2
f 1/1/1 3/3/2 5/5/2
f 1/1/1 6/6/4 4/4/3
f 1/1/1 5/5/2 7/7/5
f 1/1/1 8/8/6 6/6/4
f 1/1/1 7/7/5 9/9/7
f 1/1/1 10/10/8 8/8/6
f 1/1/1 9/9/7 11/11/9
f 1/1/1 12/12/10 10/10/8
f 1/1/1 11/11/9 13/13/11
f 1/1/1 14/14/12 12/12/10
f 1/1/1 13/13/11 15/15/13
f 1/1/1 16/16/14 14/14/12
f 1/1/1 15/15/13 17/17/15
f 1/1/1 17/17/15 16/16/14
f 18/18/16 19/19/16 20/20/16
f 18/18/16 21/21/17 19/19/16
f 18/18/16 20/20/16 22/22/18
f 18/18/16 23/23/19 21/21/17
f 18/18/16 22/22/18 24/24/16
f 18/18/16 25/25/20 23/23/19
f 18/18/16 24/24/16 26/26/16
f 18/18/16 27/27/16 25/25/20
f 18/18/16 26/26/16 28/28/16
f 18/18/16 29/29/21 27/27/16
f 18/18/16 28/28/16 29/29/21
f 19/19/16 30/30/22 20/20/16
f 19/19/16 21/21/17 30/30/22
f 30/30/22 24/24/16 22/22/18
f 30/30/22 21/21/17 23/23/19
f 30/30/22 23/23/19 25/25/20
f 30/30/22 26/26/16 24/24/16
f 30/30/22 25/25/20 27/27/16
f 30/30/22 28/28/16 26/26/16
f 30/30/22 27/27/16 29/29/21
f 30/30/22 22/22/18 20/20/16
f 30/30/22 29/29/21 28/28/16
f 31/31/23 32/32/24 33/33/2
f 31/31/23 34/34/7 32/32/24
f 31/31/23 33/33/2 35/35/4
f 31/31/23 36/36/11 34/34/7
f 31/31/23 35/35/4 37/37/8
f 31/31/23 38/38/15 36/36/11
f 31/31/23 37/37/8 39/39/12
f 31/31/23 39/39/12 38/38/15
f 40/40/25 41/41/26 42/42/27
f 40/40/25 43/43/28 41/41/26
f 40/40/25 42/42/27 44/44/29
f 40/40/25 45/45/30 43/43/28
f 40/40/25 44/44/29 46/46/31
f 40/40/25 47/47/32 45/45/30
f 40/40/25 46/46/31 48/48/33
f 40/40/25 48/48/33 47/47/32
f 48/48/33 46/46/31 47/47/32
f 43/43/28 45/45/30 49/49/34
f 45/45/30 47/47/32 49/49/34
f 46/46/31 50/50/35 47/47/32
f 46/46/31 51/46/36 50/50/35
f 49/49/34 47/47/32 52/51/37
f 49/49/34 52/51/37 53/47/38
f 49/49/34 53/47/38 54/45/39
f 49/49/34 54/45/39 55/43/40
f 47/47/32 50/50/35 53/47/38
f 47/47/32 53/47/38 52/51/37
f 50/50/35 51/46/36 53/47/38
f 54/45/39 56/40/41 55/43/40
f 54/45/39 53/47/38 56/40/41
f 51/46/36 57/48/42 53/47/38
f 51/46/36 56/40/41 57/48/42
f 51/46/36 58/44/43 56/40/41
f 57/48/42 56/40/41 53/47/38
f 55/43/40 56/40/41 59/41/44
f 58/44/43 60/42/45 56/40/41
f 56/40/41 60/42/45 59/41/44
f 61/52/46 62/53/47 63/54/48
f 61/52/46 64/55/49 62/53/47
f 61/52/46 63/54/48 65/56/50
f 61/52/46 66/57/51 64/55/49
f 61/52/46 65/56/50 67/54/52
f 61/52/46 68/55/53 66/57/51
f 61/52/46 67/54/52 69/53/54
f 61/52/46 69/53/54 68/55/53
f 63/54/48 70/58/55 65/56/50
f 64/55/49 66/57/51 71/59/56
f 64/55/49 71/59/56 70/58/55
f 66/57/51 68/55/53 71/59/56
f 67/54/52 65/56/50 72/58/57
f 68/55/53 72/58/57 71/59/56
f 70/58/55 73/60/58 65/56/50
f 70/58/55 71/59/56 73/60/58
f 73/60/58 72/58/57 65/56/50
f 73/60/58 71/59/56 72/58/57
f 74/61/59 58/62/43 51/63/36
f 74/61/59 75/64/60 58/62/43
f 74/61/59 51/63/36 46/65/31
f 74/61/59 76/66/61 75/64/60
f 74/61/59 46/65/31 44/67/29
f 74/61/59 77/68/62 76/66/61
f 74/61/59 44/67/29 77/68/62
f 75/64/60 76/66/61 78/69/63
f 75/64/60 78/69/63 79/70/64
f 75/64/60 79/70/64 80/71/65
f 76/66/61 77/68/62 78/69/63
f 79/70/64 81/72/66 80/71/65
f 77/68/62 82/73/67 78/69/63
f 77/68/62 83/74/68 82/73/67
f 81/72/66 84/75/69 80/71/65
f 83/74/68 85/76/70 82/73/67
f 83/74/68 86/77/71 85/76/70
f 83/74/68 87/78/72 86/77/71
f 83/74/68 42/79/27 87/78/72
f 84/75/69 88/80/73 80/71/65
f 84/75/69 55/81/40 88/80/73
f 86/77/71 87/78/72 43/82/28
f 42/79/27 41/83/26 87/78/72
f 87/78/72 41/83/26 43/82/28
f 80/71/65 88/80/73 60/84/45
f 55/81/40 59/85/44 88/80/73
f 88/80/73 59/85/44 60/84/45
f 89/86/74 90/87/75 91/88/76
f 89/86/74 64/89/49 90/87/75
f 89/86/74 91/88/76 92/90/77
f 89/86/74 62/91/47 64/89/49
f 89/86/74 92/90/77 93/92/78
f 89/86/74 63/93/48 62/91/47
f 89/86/74 93/92/78 63/93/48
f 90/87/75 94/94/79 91/88/76
f 90/87/75 64/89/49 95/95/80
f 90/87/75 95/95/80 94/94/79
f 92/90/77 96/96/81 93/92/78
f 92/90/77 91/88/76 97/97/82
f 92/90/77 98/98/83 96/96/81
f 92/90/77 97/97/82 99/99/84
f 92/90/77 99/99/84 98/98/83
f 63/93/48 93/92/78 95/95/80
f 63/93/48 95/95/80 70/100/55
f 95/95/80 64/89/49 70/100/55
f 95/95/80 93/92/78 94/94/79
f 91/88/76 100/90/85 97/97/82
f 91/88/76 94/94/79 100/90/85
f 93/92/78 96/96/81 100/90/85
f 93/92/78 100/90/85 94/94/79
f 96/96/81 98/98/83 100/90/85
f 99/99/84 97/97/82 101/99/86
f 99/99/84 102/101/87 98/98/83
f 99/99/84 101/99/86 102/101/87
f 101/99/86 97/97/82 100/90/85
f 101/99/86 100/90/85 98/98/83
f 101/99/86 98/98/83 102/101/87
f 103/86/88 104/88/89 105/87/90
f 103/86/88 106/90/91 104/88/89
f 103/86/88 105/87/90 68/89/53
f 103/86/88 107/92/92 106/90/91
f 103/86/88 68/89/53 69/91/54
f 103/86/88 67/93/52 107/92/92
f 103/86/88 69/91/54 67/93/52
f 104/88/89 108/94/93 105/87/90
f 104/88/89 106/90/91 109/97/94
f 104/88/89 110/90/95 108/94/93
f 104/88/89 109/97/94 110/90/95
f 68/89/53 105/87/90 111/95/96
f 68/89/53 111/95/96 72/100/57
f 111/95/96 108/94/93 107/92/92
f 111/95/96 107/92/92 67/93/52
f 111/95/96 105/87/90 108/94/93
f 111/95/96 67/93/52 72/100/57
f 108/94/93 110/90/95 107/92/92
f 106/90/91 112/99/97 109/97/94
f 106/90/91 107/92/92 113/96/98
f 106/90/91 114/98/99 112/99/97
f 106/90/91 113/96/98 114/98/99
f 113/96/98 107/92/92 110/90/95
f 113/96/98 110/90/95 114/98/99
f 109/97/94 112/99/97 115/99/100
f 109/97/94 115/99/100 110/90/95
f 110/90/95 115/99/100 114/98/99
f 112/99/97 116/101/101 115/99/100
f 112/99/97 114/98/99 116/101/101
f 116/101/101 114/98/99 115/99/100
f 117/102/102 118/103/103 119/104/104
f 117/102/102 120/105/105 118/103/103
f 117/102/102 119/104/104 121/106/106
f 117/102/102 122/107/107 120/105/105
f 117/102/102 121/106/106 123/108/108
f 117/102/102 123/108/108 122/107/107
f 118/103/103 124/109/109 119/104/104
f 118/103/103 120/105/105 125/110/110
f 118/103/103 126/111/111 124/109/109
f 125/110/110 120/105/105 122/107/107
f 123/108/108 127/112/112 122/107/107
f 126/111/111 128/113/113 124/109/109
f 127/112/112 129/114/114 122/107/107
f 127/112/112 130/113/115 129/114/114
f 127/112/112 131/115/116 130/113/115
f 128/113/113 132/115/117 124/109/109
f 128/113/113 133/116/118 132/115/117
f 128/113/113 134/117/119 133/116/118
f 128/113/113 135/118/120 134/117/119
f 128/113/113 136/119/121 135/118/120
f 136/119/121 130/113/115 135/118/120
f 131/115/116 137/116/122 130/113/115
f 131/115/116 138/120/123 137/116/122
f 131/115/116 139/121/124 138/120/123
f 132/115/117 133/116/118 138/120/123
f 132/115/117 138/120/123 139/121/124
f 134/117/119 135/118/120 140/122/125
f 134/117/119 140/122/125 133/116/118
f 138/120/123 140/122/125 137/116/122
f 138/120/123 133/116/118 140/122/125
f 130/113/115 141/117/126 135/118/120
f 130/113/115 137/116/122 141/117/126
f 141/117/126 140/122/125 135/118/120
f 141/117/126 137/116/122 140/122/125
f 142/123/127 85/124/70 86/125/71
f 142/123/127 143/126/128 85/124/70
f 142/123/127 86/125/71 43/127/28
f 142/123/127 144/123/129 143/126/128
f 142/123/127 43/127/28 145/128/130
f 142/123/127 145/128/130 144/123/129
f 85/124/70 143/126/128 146/129/131
f 85/124/70 146/129/131 82/130/67
f 43/127/28 49/131/34 145/128/130
f 144/123/129 81/124/66 143/126/128
f 144/123/129 145/128/130 55/127/40
f 144/123/129 84/125/69 81/124/66
f 144/123/129 55/127/40 84/125/69
f 55/127/40 145/128/130 49/131/34
f 143/126/128 81/124/66 146/129/131
f 82/130/67 146/129/131 78/132/63
f 81/124/66 79/130/64 146/129/131
f 146/129/131 79/130/64 78/132/63
f 147/133/132 139/134/124 121/135/106
f 147/133/132 132/136/117 139/134/124
f 147/133/132 121/135/106 119/137/104
f 147/133/132 124/138/109 132/136/117
f 147/133/132 119/137/104 124/138/109
f 148/133/133 131/136/116 127/138/112
f 148/133/133 139/139/124 131/136/116
f 148/133/133 127/138/112 123/140/108
f 148/133/133 121/141/106 139/139/124
f 148/133/133 123/140/108 121/141/106
f 149/133/134 136/142/121 128/143/113
f 149/133/134 125/144/110 136/142/121
f 149/133/134 128/143/113 126/145/111
f 149/133/134 118/146/103 125/144/110
f 149/133/134 126/145/111 118/146/103
f 150/133/135 136/147/121 125/148/110
f 150/133/135 130/149/115 136/147/121
f 150/133/135 125/148/110 122/150/107
f 150/133/135 129/151/114 130/149/115
f 150/133/135 122/150/107 129/151/114
f 151/152/136 152/153/137 153/154/138
f 151/152/136 154/154/139 152/153/137
f 151/152/136 153/154/138 155/155/140
f 151/152/136 155/155/140 154/154/139
f 152/153/137 156/156/141 153/154/138
f 152/153/137 154/154/139 156/156/141
f 156/156/141 155/155/140 153/154/138
f 156/156/141 154/154/139 155/155/140
f 157/152/142 158/154/143 159/153/144
f 157/152/142 160/155/145 158/154/143
f 157/152/142 159/153/144 161/154/146
f 157/152/142 161/154/146 160/155/145
f 158/154/143 162/156/147 159/153/144
f 158/154/143 160/155/145 162/156/147
f 162/156/147 161/154/146 159/153/144
f 162/156/147 160/155/145 161/154/146
f 3/157/2 2/158/2 33/159/2
f 3/157/2 33/159/2 32/160/24
f 3/157/2 32/160/24 5/161/2
f 4/157/3 6/158/4 35/159/4
f 4/157/3 35/159/4 33/160/2
f 4/157/3 33/160/2 2/161/2
f 8/157/6 10/158/8 37/159/8
f 8/157/6 37/159/8 35/160/4
f 8/157/6 35/160/4 6/161/4
f 12/157/10 14/158/12 39/159/12
f 12/157/10 39/159/12 37/160/8
f 12/157/10 37/160/8 10/161/8
f 16/157/14 17/158/15 38/159/15
f 16/157/14 38/159/15 39/160/12
f 16/157/14 39/160/12 14/161/12
f 15/157/13 13/158/11 36/159/11
f 15/157/13 36/159/11 38/160/15
f 15/157/13 38/160/15 17/161/15
f 11/157/9 9/158/7 34/159/7
f 11/157/9 34/159/7 36/160/11
f 11/157/9 36/160/11 13/161/11
f 7/157/5 5/158/2 32/159/24
f 7/157/5 32/159/24 34/160/7
f 7/157/5 34/160/7 9/161/7
vt 0.41211 0.96678
vt 0.672174 0.800916
vt 0.995665 0.974966
vt 0.672186 0.800923
vt -0.00454274 0.786018
vt 0.412121 0.966788
vt 0.995816 0.974948
vt -0.00436848 0.786017
o merged_1_0_node
g polygon_0
usemtl TEX_ANIM_EYE_mat_id
f 77/162/62 42/163/27 83/164/68
f 60/165/45 58/166/43 75/167/60
f 80/168/65 60/165/45 75/167/60
f 44/169/29 42/163/27 77/162/62
