mtllib Musharna.mtl
v -0.0987218 0.201256 0.315816
vt 0.0612285 0.949246
vn -0.5237249 -0.0009889369 0.8518869
v -0.114119 0.343934 0.255961
vt 0.0809479 0.945373
vn -0.5288477 0.5277297 0.6646966
v -0.195907 0.25985 0.209436
vt 0.0686405 0.926499
vn -0.8568656 0.1872759 0.4803218
v 0 0.303399 0.326797
vt 0.0686405 0.956484
vn 0 0.4011978 0.9159915
v -0.176237 0.171414 0.244478
vt 0.0566567 0.927053
vn -0.8349583 -0.3085751 0.4556601
v 0 0.214934 0.352914
vt 0.0383216 0.9406
vn 0 0.04492632 0.9989903
v -0.116398 0.0960607 0.252898
vt 0.0344676 0.924806
vn -0.650093 -0.5703999 0.5020189
v 0 0.116985 0.331526
vt 0.0261867 0.930268
vn 0 -0.4687369 0.8833378
v -0.166851 0.386405 0.142769
vt 0.0898475 0.905847
vn -0.6623027 0.6909037 0.2898399
v 0 0.388889 0.269183
vt 0.0829052 0.948056
vn 0 0.7218263 0.6920743
v 0 0.462127 0.16816
vt 0.0947823 0.920719
vn 0 0.9215176 0.3883368
v -0.216612 0.175706 0.0839613
vt 0.0560162 0.888645
vn -0.8639071 -0.456394 0.213
v 0.0987218 0.201256 0.315816
vn 0.5237249 -0.0009889249 0.8518869
v -0.134033 0.0586719 0.0838071
vt 0.043033 0.882543
vn -0.6081586 -0.7819055 0.1369919
v -0.092626 0.0542114 0.220237
vt 0.03087 0.902664
vn -0.4748161 -0.7950662 0.3773851
v -0.251546 0.258144 0.0645693
vt 0.0686405 0.887382
vn -0.9668508 0.2224489 0.125364
v 0.114119 0.343934 0.255961
vn 0.5288477 0.5277297 0.6646966
v 0.116398 0.0960607 0.252898
vn 0.6500939 -0.5703989 0.5020189
v -0.0671557 0.0278281 0.12419
vt 0.0272724 0.880521
vn -0.4204609 -0.9065818 -0.03636139
v -0.0615569 0.0694947 0.10703
vt 0.0324624 0.871227
vn -0.1631589 -0.9775856 -0.133062
v 0 0.0423481 0.00657468
vt 0.0369316 0.86013
vn 0 -0.9982958 0.05835688
v 0.166851 0.386405 0.142769
vn 0.6623022 0.6909042 0.2898401
v 0.176237 0.171414 0.244478
vn 0.8349583 -0.3085751 0.4556601
v 0.092626 0.0542111 0.220237
vn 0.4748167 -0.7950655 0.3773858
v 0.134033 0.0586719 0.0838071
vn 0.6081591 -0.7819051 0.136992
v -0.0246867 0.0297071 0.0409784
vt 0.0265936 0.864552
vn -0.756519 -0.109449 -0.644748
v 0 0.00323961 0.0369135
vt 0.0215524 0.85646
vn 0 -0.9829096 -0.1840889
v 0 0.0107941 0.166395
vt 0.0206783 0.878291
vn 0 -0.9777855 0.2096079
v 0.0615569 0.0694947 0.10703
vn 0.1631589 -0.9775855 -0.1330629
v 0 0.0559322 0.0643005
vt 0.0297465 0.861431
vn 0 -0.9993973 -0.03471181
v 0.195907 0.25985 0.209436
vn 0.8568653 0.1872761 0.4803222
v 0.0671557 0.0278281 0.12419
vn 0.4204601 -0.9065821 -0.03636281
v 0 0.0415756 0.0347098
vt 0.0259148 0.848583
vn 0 0.638783 -0.769387
v 0.251546 0.258144 0.0645693
vn 0.9668508 0.2224489 0.125364
v 0.216612 0.175706 0.0839613
vn 0.8639067 -0.4563949 0.2129999
v 0.0246867 0.0297071 0.0409784
vn 0.756519 -0.109449 -0.644748
v 0.0486217 0.317916 0.445097
vt 0.622515 0.0509984
vn 0.7507134 -0.3358132 -0.5689103
v 0 0.359507 0.372368
vt 0.62579 0.0512421
vn 0 -0.231398 -0.9728592
v 0 0.431127 0.367965
vt 0.627101 0.0577307
vn 0 0.5711569 -0.8208409
v 0 0.247543 0.434302
vt 0.622501 0.0460266
vn 0 -0.769392 -0.638777
v 0 0.427388 0.402589
vt 0.625043 0.0575083
vn 0 0.9942201 0.107361
v 0 0.209022 0.515271
vt 0.618342 0.0445228
vn 0 -0.7668388 0.6418398
v 0.08968021 0.363202 0.471423
vt 0.620949 0.0536913
vn 0.9824362 0.139991 0.123376
v 0 0.514565 0.394847
vt 0.625503 0.0626925
vn 0 0.9998774 0.01566251
vn 0 -0.08845631 -0.99608
v -0.0486217 0.317916 0.445097
vn -0.750713 -0.335813 -0.568911
v 0 0.317647 0.563233
vt 0.61549 0.0509824
vn 0 -0.07468136 0.9972075
v 0 0.43991 0.503916
vt 0.619017 0.058253
vn 0 0.6919349 0.7219599
v -0.08968021 0.363202 0.471423
vn -0.9824362 0.139991 0.123376
v -0.0448401 0.566813 0.218843
vt 0.635969 0.0657995
vn -0.7696559 -0.503198 -0.392965
v 0 0.47156 0.270874
vt 0.635892 0.0618401
vn 0 -0.9680788 -0.2506459
v 0 0.473625 0.32824
vt 0.629464 0.0602579
vn -2.09098E-06 -0.817547 0.575862
v 0 0.562036 0.153142
vt 0.639876 0.0655154
vn 0 -0.50446 -0.863435
v 0 0.508375 0.325958
vt 0.6296 0.0623244
vn 0 0.06554902 0.9978493
v 0 0.657635 0.132046
vt 0.642442 0.071725
v -0.08968021 0.599706 0.260743
vt 0.633478 0.0677556
vn -0.9783092 0.123055 0.1666391
v 0 0.496982 0.412733
vt 0.624439 0.0616469
vn 0 -0.170029 0.9854391
vn 0 -0.9914911 -0.130174
v 0.0448401 0.566813 0.218843
vn 0.7696559 -0.503198 -0.392965
v 0 0.697944 0.215718
vt 0.636155 0.0735974
vn 0 0.9989035 0.04681828
v 0 0.608743 0.34329
vt 0.628569 0.068293
vn 0 0.6560048 0.7547567
v 0.08968021 0.599706 0.260743
vn 0.9783092 0.123055 0.1666391
v 0 0.466337 -0.148723
vt 0.965346 0.396437
vn 0 0.9144132 -0.4047821
v 0.155092 0.366167 -0.175584
vt 0.955322 0.381444
vn 0.6345281 0.5980681 -0.4895801
v 0 0.359237 -0.257428
vt 0.952778 0.359585
vn 0 0.560554 -0.8281179
v 0.178616 0.408568 -0.0296003
vt 0.958512 0.424172
vn 0.6844942 0.7244002 -0.08192802
v -0.155092 0.366167 -0.175584
vn -0.6345281 0.5980681 -0.4895801
v 0 0.499967 0.0307056
vt 0.965993 0.442635
vn 0 0.9994726 0.03247369
v -0.178616 0.408568 -0.0296003
vn -0.6844942 0.7244002 -0.08192793
v 0.149365 0.264149 -0.249891
vt 0.947789 0.359568
vn 0.5962283 0.3206621 -0.7359943
v 0.23741 0.241461 -0.0905461
vt 0.935746 0.40012
vn 0.9381625 0.2242771 -0.2637251
v -0.23741 0.241461 -0.0905461
vn -0.9381626 0.2242769 -0.2637249
v -0.149365 0.264149 -0.249891
vn -0.5962283 0.3206621 -0.7359943
v 0.207906 0.152485 -0.16036
vt 0.935746 0.366645
vn 0.9492114 -0.09118913 -0.3011351
v 0.216381 0.143192 -0.094532
vt 0.926415 0.40265
vn 0.9055257 -0.3433979 -0.2492009
v 0.236595 0.179254 -0.0229772
vt 0.929417 0.42307
vn 0.9461145 -0.3209789 0.04289298
v 0 0.222639 -0.305351
vt 0.944262 0.356254
vn 0 0.1502151 -0.9886534
v -0.207906 0.152485 -0.16036
vn -0.9492114 -0.09118923 -0.3011351
v -0.216381 0.143192 -0.094532
vn -0.9055257 -0.3433979 -0.2492009
v -0.236595 0.179254 -0.0229772
vn -0.9461149 -0.320978 0.0428932
v 0.15209 0.0970055 -0.118046
vt 0.91798 0.373242
vn 0.61397 -0.620689 0.487633
v 0.111043 0.168844 -0.274045
vt 0.941767 0.356246
vn 0.297259 -0.18943 -0.935817
v -0.111043 0.168844 -0.274045
vn -0.297259 -0.18943 -0.935817
v -0.15209 0.0970055 -0.118046
vn -0.61397 -0.620689 0.487633
v 0.15865 0.0732565 -0.0783809
vt 0.914912 0.398763
vn 0.2517681 -0.9329183 -0.2574421
v 0 0.102057 -0.285727
vt 0.92723 0.356254
vn 0 -0.4824412 -0.8759283
v -0.15865 0.0732565 -0.0783809
vn -0.2517681 -0.9329183 -0.2574421
v -0.113847 0.0728066 -0.208924
vt 0.925466 0.357911
vn -0.2402668 -0.8558653 -0.4580026
v 0.113847 0.0728066 -0.208924
vn 0.240267 -0.8558651 -0.458003
v 0 0.0340784 -0.124051
vt 0.90806 0.38146
v 0 0.0537492 -0.219224
vt 0.917645 0.368857
vn 0 -0.9210413 -0.3894651
v 0 0.233868 0.491064
vt 0.62023 0.0464134
v 0.0819851 0.118081 0.435084
vt 0.622821 0.0396973
vn 0.9803517 0.123159 -0.1540859
v 0 0.188941 0.400823
vt 0.624704 0.0425082
vn 0 0.8019663 -0.5973692
v 0.05 0.08824161 0.459878
vt 0.621423 0.037693
vn 0.7017437 -0.4646828 0.5400238
v -0.0819851 0.118081 0.435084
vn -0.9803517 0.123159 -0.1540859
v 0 0.152966 0.483269
vt 0.619714 0.042343
vn 0 -0.09589683 0.9953913
v -0.05 0.08824161 0.459878
vn -0.7017437 -0.4646828 0.5400238
v 0 0.101056 0.318672
vt 0.629178 0.0386029
vn 0 -0.07545711 -0.9971491
v 0 0.0247107 0.39928
vt 0.625412 0.0329813
vn 0 -0.913882 -0.40598
v 0 0.08535951 0.520418
vt 0.617715 0.0377274
vn 0 -0.5261881 0.8503682
v 0 0.152479 0.514416
vt 0.617802 0.0424308
vn 0 0.50432 0.8635169
v 0 0.704388 -0.0468944
vt 0.651772 0.0739806
vn 0 -0.4508052 0.8926224
v -0.0638216 0.704388 -0.124232
vt 0.656371 0.0739806
vn -0.9502048 -0.3068019 0.05462039
v 0 0.631026 -0.124232
vt 0.656371 0.0696181
vn 0 -1 0
v -0.0319108 0.7292091 -0.138915
vt 0.657244 0.0754566
vn -0.679607 0.7052889 -0.201747
v 0.0638216 0.704388 -0.124232
vn 0.9502048 -0.3068019 0.05462039
v 0 0.728231 -0.0856989
vt 0.654079 0.0753984
vn 0 0.8520117 0.5235228
v 0.0319108 0.7292091 -0.138915
vn 0.679607 0.7052889 -0.201747
v 0 0.704388 -0.20157
vt 0.66097 0.0739806
vn 0 -0.407821 -0.913062
v 0 0.771435 -0.124232
vt 0.656371 0.0779676
vn 0 0.9879906 -0.1545139
v 0 0.749695 -0.0774268
vt 0.653587 0.0766748
vn 0 0.634 0.773333
vn 0 -0.359625 0.9330969
vt 0.0318837 0.647503
v -0.155417 0.0648815 -0.0133347
vt 0.248679 0.596638
vn -0.438873 -0.87285 0.213362
vt 0.254933 0.414337
vt 0.192205 0.828839
vt 0.0319426 0.325139
v 0.155417 0.0648815 -0.0133347
vn 0.438873 -0.87285 0.213362
vt 0.414467 0.831004
vt 0.421573 0.553384
vt 0.533875 0.758828
vt 0.49702 0.379487
vt 0.717449 0.52985
vt 0.751828 0.86205
vt 0.951857 0.640406
vt 0.951857 0.957778
v -0.183162 0.155109 -0.253061
vt 0.879903 0.114466
vn -0.7426127 -0.1208759 -0.6587226
vt 0.878488 0.0923008
vt 0.820941 0.139723
vt 0.990903 0.168506
vt 0.813568 0.104527
v -0.171858 0.0594206 -0.176659
vt 0.872531 0.0735501
vn -0.648911 -0.6286529 -0.428614
vt 0.747233 0.138663
v -0.174882 0.0369326 -0.113602
vt 0.865158 0
vn -0.20172 -0.7166631 0.66761
v 0.183162 0.155109 -0.253061
vn 0.7426127 -0.1208759 -0.6587226
v 0.171858 0.0594206 -0.17666
vn 0.648911 -0.6286529 -0.428614
v 0.174882 0.0369326 -0.113602
vn 0.20172 -0.716664 0.667609
v -0.198776 0.02483048 -0.0409564
vt 0.621878 0
vn -0.6813752 -0.6817502 0.2663541
vt 0.711198 0.260219
vt 0.614851 0.264446
vt 0.698165 0.280192
vt 0.618935 0.278948
v 0.198776 0.02483059 -0.0409564
vn 0.681375 -0.68175 0.266355
v 0 0.0506054 0.263017
vt 0.585229 0.95727
vt 0.474158 0.95727
vt 0.625633 0.797281
vt 0.74188 0.95727
vt 0.532108 0.75622
vt 0.810304 0.841275
v 0.0734879 0.674535 0.0481392
vt 0.646645 0.0725988
vn 1 0 0
v 0 0.7052001 -0.0778957
vt 0.65328 0.074213
vn 0 0.236404 -0.9716549
v 0 0.7459401 0.0655121
vt 0.645612 0.076845
vn 0 0.9716549 0.236404
v 0 0.603131 0.0307664
vt 0.647678 0.0683526
vn 0 -0.9716549 -0.236404
v 0 0.6438711 0.174174
vt 0.64001 0.0709846
vn 0 -0.236404 0.9716549
v -0.0734879 0.674535 0.0481392
vn -1 0 0
o merged_0_0_node
g polygon_0
usemtl mat_body_mat_id
f 1/1/1 2/2/2 3/3/3
f 1/1/1 4/4/4 2/2/2
f 1/1/1 3/3/3 5/5/5
f 1/1/1 6/6/6 4/4/4
f 1/1/1 5/5/5 7/7/7
f 1/1/1 8/8/8 6/6/6
f 1/1/1 7/7/7 8/8/8
f 2/2/2 9/9/9 3/3/3
f 2/2/2 4/4/4 10/10/10
f 2/2/2 11/11/11 9/9/9
f 2/2/2 10/10/10 11/11/11
f 5/5/5 3/3/3 12/12/12
f 6/6/6 8/8/8 13/1/13
f 6/6/6 13/1/13 4/4/4
f 7/7/7 14/13/14 15/14/15
f 9/9/9 16/15/16 3/3/3
f 3/3/3 16/15/16 12/12/12
f 10/10/10 17/2/17 11/11/11
f 10/10/10 4/4/4 17/2/17
f 4/4/4 13/1/13 17/2/17
f 8/8/8 18/7/18 13/1/13
f 14/13/14 19/16/19 15/14/15
f 14/13/14 20/17/20 19/16/19
f 14/13/14 21/18/21 20/17/20
f 11/11/11 17/2/17 22/9/22
f 18/7/18 23/5/23 13/1/13
f 18/7/18 24/14/24 25/13/25
f 19/16/19 20/17/20 26/19/26
f 19/16/19 26/19/26 27/20/27
f 19/16/19 27/20/27 28/21/28
f 21/18/21 25/13/25 29/17/29
f 21/18/21 30/22/30 20/17/20
f 21/18/21 29/17/29 30/22/30
f 17/2/17 31/3/31 22/9/22
f 17/2/17 13/1/13 31/3/31
f 13/1/13 23/5/23 31/3/31
f 24/14/24 32/16/32 25/13/25
f 25/13/25 32/16/32 29/17/29
f 28/21/28 27/20/27 32/16/32
f 26/19/26 20/17/20 33/23/33
f 26/19/26 33/23/33 27/20/27
f 30/22/30 29/17/29 33/23/33
f 30/22/30 33/23/33 20/17/20
f 22/9/22 31/3/31 34/15/34
f 23/5/23 35/12/35 31/3/31
f 31/3/31 35/12/35 34/15/34
f 32/16/32 27/20/27 36/19/36
f 32/16/32 36/19/36 29/17/29
f 36/19/36 33/23/33 29/17/29
f 36/19/36 27/20/27 33/23/33
f 37/24/37 38/25/38 39/26/39
f 37/24/37 40/27/40 38/25/38
f 37/24/37 39/26/39 41/28/41
f 37/24/37 42/29/42 40/27/40
f 37/24/37 43/30/43 42/29/42
f 37/24/37 44/31/44 43/30/43
f 37/24/37 41/28/45 44/31/44
f 38/25/38 45/24/46 39/26/39
f 38/25/38 40/27/40 45/24/46
f 40/27/40 42/29/42 45/24/46
f 39/26/39 45/24/46 41/28/41
f 41/28/45 45/24/46 44/31/44
f 43/30/43 46/32/47 42/29/42
f 43/30/43 44/31/44 47/33/48
f 43/30/43 47/33/48 46/32/47
f 45/24/46 42/29/42 48/30/49
f 45/24/46 48/30/49 44/31/44
f 48/30/49 47/33/48 44/31/44
f 48/30/49 42/29/42 46/32/47
f 48/30/49 46/32/47 47/33/48
f 49/34/50 50/35/51 51/36/52
f 49/34/50 52/37/53 50/35/51
f 49/34/50 51/36/52 53/38/54
f 49/34/50 54/39/39 52/37/53
f 49/34/50 55/40/55 54/39/39
f 49/34/50 56/41/56 55/40/55
f 49/34/50 53/38/57 56/41/56
f 50/35/51 57/34/58 51/36/52
f 50/35/51 52/37/53 57/34/58
f 52/37/53 54/39/39 57/34/58
f 51/36/52 57/34/58 53/38/54
f 53/38/57 57/34/58 56/41/56
f 55/40/55 58/42/59 54/39/39
f 55/40/55 56/41/56 59/43/60
f 55/40/55 59/43/60 58/42/59
f 57/34/58 54/39/39 60/40/61
f 57/34/58 60/40/61 56/41/56
f 60/40/61 59/43/60 56/41/56
f 60/40/61 54/39/39 58/42/59
f 60/40/61 58/42/59 59/43/60
f 61/44/62 62/45/63 63/46/64
f 61/44/62 64/47/65 62/45/63
f 61/44/62 63/46/64 65/45/66
f 61/44/62 66/48/67 64/47/65
f 61/44/62 65/45/66 67/47/68
f 61/44/62 67/47/68 66/48/67
f 62/45/63 68/49/69 63/46/64
f 62/45/63 64/47/65 69/50/70
f 62/45/63 69/50/70 68/49/69
f 65/45/66 70/50/71 67/47/68
f 65/45/66 63/46/64 71/49/72
f 65/45/66 71/49/72 70/50/71
f 69/50/70 72/51/73 68/49/69
f 69/50/70 73/52/74 72/51/73
f 69/50/70 74/53/75 73/52/74
f 63/46/64 75/54/76 71/49/72
f 63/46/64 68/49/69 75/54/76
f 70/50/71 71/49/72 76/51/77
f 70/50/71 76/51/77 77/52/78
f 70/50/71 77/52/78 78/53/79
f 72/51/73 73/52/74 79/55/80
f 68/49/69 80/56/81 75/54/76
f 71/49/72 75/54/76 81/56/82
f 76/51/77 82/55/83 77/52/78
f 73/52/74 83/57/84 79/55/80
f 80/56/81 84/58/85 75/54/76
f 75/54/76 84/58/85 81/56/82
f 82/55/83 85/57/86 77/52/78
f 82/55/83 86/59/87 85/57/86
f 83/57/84 87/59/88 79/55/80
f 83/57/84 88/60/30 87/59/88
f 85/57/86 86/59/87 88/60/30
f 84/58/85 87/59/88 89/61/89
f 84/58/85 89/61/89 86/59/87
f 89/61/89 88/60/30 86/59/87
f 89/61/89 87/59/88 88/60/30
f 90/62/59 91/63/90 92/64/91
f 90/62/59 93/65/92 91/63/90
f 90/62/59 92/64/91 94/63/93
f 90/62/59 95/66/94 93/65/92
f 90/62/59 94/63/93 96/65/95
f 90/62/59 96/65/95 95/66/94
f 91/63/90 97/67/96 92/64/91
f 91/63/90 93/65/92 98/68/97
f 91/63/90 98/68/97 97/67/96
f 94/63/93 98/68/97 96/65/95
f 94/63/93 92/64/91 97/67/96
f 94/63/93 97/67/96 98/68/97
f 93/65/92 99/69/98 98/68/97
f 93/65/92 100/70/99 99/69/98
f 93/65/92 95/66/44 100/70/99
f 96/65/95 98/68/97 99/69/98
f 96/65/95 100/70/99 95/66/44
f 96/65/95 99/69/98 100/70/99
f 101/71/100 102/72/101 103/73/102
f 101/71/100 104/74/103 102/72/101
f 101/71/100 103/73/102 105/72/104
f 101/71/100 106/75/105 104/74/103
f 101/71/100 105/72/104 107/74/106
f 101/71/100 107/74/106 106/75/105
f 102/72/101 108/76/107 103/73/102
f 102/72/101 104/74/103 108/76/107
f 105/72/104 108/76/107 107/74/106
f 105/72/104 103/73/102 108/76/107
f 104/74/103 109/77/108 108/76/107
f 104/74/103 110/78/109 109/77/108
f 104/74/103 106/75/110 110/78/109
f 107/74/106 108/76/107 109/77/108
f 107/74/106 110/78/109 106/75/110
f 107/74/106 109/77/108 110/78/109
f 21/79/21 111/80/111 85/81/86
f 21/79/21 14/82/14 111/80/111
f 21/79/21 85/81/86 88/83/30
f 21/79/21 88/83/30 83/81/84
f 21/79/21 83/81/84 112/80/112
f 21/79/21 112/80/112 25/82/25
f 14/82/14 12/84/12 111/80/111
f 112/80/112 35/84/35 25/82/25
f 112/80/112 74/85/75 35/84/35
f 12/84/12 78/85/79 111/80/111
f 12/84/12 16/86/16 78/85/79
f 74/85/75 34/86/34 35/84/35
f 74/85/75 69/87/70 34/86/34
f 16/86/16 70/87/71 78/85/79
f 16/86/16 67/88/68 70/87/71
f 16/86/16 9/89/9 67/88/68
f 69/87/70 64/88/65 34/86/34
f 9/89/9 66/90/67 67/88/68
f 9/89/9 11/91/11 66/90/67
f 64/88/65 22/89/22 34/86/34
f 64/88/65 66/90/67 22/89/22
f 22/89/22 66/90/67 11/91/11
f 113/92/113 71/93/72 81/94/82
f 113/92/113 76/95/77 71/93/72
f 113/92/113 81/94/82 86/96/87
f 113/92/113 114/97/114 76/95/77
f 113/92/113 86/96/87 114/97/114
f 81/94/82 84/98/85 86/96/87
f 76/95/77 114/97/114 115/99/115
f 76/95/77 115/99/115 82/93/83
f 115/99/115 114/97/114 86/96/87
f 115/99/115 86/96/87 82/93/83
f 84/98/85 80/94/81 87/96/88
f 80/94/81 116/92/116 87/96/88
f 80/94/81 68/93/69 116/92/116
f 87/96/88 116/92/116 117/97/117
f 87/96/88 117/97/117 118/99/118
f 87/96/88 118/99/118 79/93/80
f 68/93/69 72/95/73 116/92/116
f 72/95/73 117/97/117 116/92/116
f 72/95/73 118/99/118 117/97/117
f 72/95/73 79/93/80 118/99/118
f 119/100/119 78/101/79 77/102/78
f 119/100/119 111/103/111 78/101/79
f 119/100/119 77/102/78 85/104/86
f 119/100/119 85/104/86 111/103/111
f 120/100/120 83/104/84 73/102/74
f 120/100/120 112/103/112 83/104/84
f 120/100/120 73/102/74 74/101/75
f 120/100/120 74/101/75 112/103/112
f 121/105/52 8/106/8 15/107/15
f 121/105/52 24/107/24 8/106/8
f 121/105/52 15/107/15 28/108/28
f 121/105/52 28/108/28 24/107/24
f 8/106/8 7/109/7 15/107/15
f 8/106/8 24/107/24 18/109/18
f 28/108/28 15/107/15 19/110/19
f 28/108/28 32/110/32 24/107/24
f 122/111/121 123/112/122 124/113/123
f 122/111/121 125/114/124 123/112/122
f 122/111/121 124/113/123 126/115/125
f 122/111/121 126/115/125 125/114/124
f 123/112/122 127/111/126 124/113/123
f 123/112/122 125/114/124 127/111/126
f 127/111/126 126/115/125 124/113/123
f 127/111/126 125/114/124 126/115/125
vt 0.016117 0.757596
vt 0.0299244 0.97743
vt 1.01584 0.756496
vt 0.968502 0.987311
o merged_1_0_node
g polygon_0
usemtl TEX_ANIM_EYE_mat_id
f 14/116/14 7/117/7 12/118/12
f 7/117/7 5/119/5 12/118/12
f 25/116/25 35/118/35 18/117/18
f 35/118/35 23/119/23 18/117/18
