mtllib Lombre.mtl
v 0.0784881 0.0552504 0.11955
vt 0.733982 0.101273
vn 0.399922 -0.5327529 0.7458129
v -0.0832285 0.129346 0.144156
vt 0.251886 0.397103
vn -0.2081051 -0.105701 0.9723783
v -0.0784881 0.0552504 0.11955
vt 0.266017 0.101273
vn -0.399922 -0.5327529 0.7458129
v 0.0832285 0.129346 0.144156
vt 0.748114 0.397103
vn 0.2081051 -0.105701 0.9723783
v 0 0.0231661 0
vt 0.5 0.0313348
vn 0 -0.999996 0.0028428
v 0.166457 0.129346 0
vt 0.996229 0.397103
vn 0.9645178 -0.03701159 -0.261411
v 0.0784891 7.450581E-09 0
vt 0.733986 -0.0191634
vn 0.1811699 -0.9834425 -0.004275968
v 0.156976 0.0552504 0
vt 0.967965 0.101273
vn 0.929778 -0.368115 -0.00203643
v -0.166457 0.129346 0
vt 0.00377131 0.397103
vn -0.9645178 -0.03701159 -0.261411
v -0.0612394 0.297319 0.100477
vt 0.317438 0.806199
vn -0.04826449 0.5658129 0.8231199
v -0.0784891 7.450581E-09 0
vt 0.266014 -0.0191634
vn -0.1811699 -0.9834425 -0.004276028
v -0.156976 0.0552504 0
vt 0.0320346 0.101273
vn -0.929778 -0.368115 -0.00203674
v 0.0612394 0.297319 0.100477
vt 0.682562 0.806199
vn 0.04826439 0.5658129 0.8231199
v 0 0.3137 0
vt 0.5 0.841907
vn 0 1 0
v 0.122479 0.297319 0
vt 0.865124 0.806199
vn 0.7694699 0.5296239 -0.356952
v -0.122479 0.297319 0
vt 0.134876 0.806199
vn -0.7694696 0.5296237 -0.3569528
v 0 0.540594 -0.18767
vt 0.5 0.228325
vn -0.0004730052 -0.9835173 0.1808131
v -0.364021 0.542441 -0.178573
vt 0.434071 0.166125
v -0.149109 0.504149 -0.386298
vt 0.5 0.138817
v -0.372293 0.598246 0.126543
vt 0.406762 0.232054
v -0.176077 0.635402 0.329044
vt 0.434071 0.297983
v 0.149109 0.638524 0.346062
vt 0.5 0.325292
v 0.368687 0.599817 0.135106
vt 0.565929 0.297983
v 0.372293 0.544427 -0.166779
vt 0.593238 0.232054
v 0.157815 0.5048 -0.382752
vt 0.565929 0.166125
v -0.0784881 0.0552504 -0.146827
vt 0.867275 0.100527
vn -0.4158671 -0.4564702 -0.7865682
v 0.0832285 0.129346 -0.144156
vt 0.861278 0.394034
vn 0.4963511 0.172149 -0.8508821
v 0.0784881 0.0552504 -0.146827
vt 0.861454 0.100527
vn 0.415868 -0.45647 -0.7865679
v -0.0832285 0.129346 -0.144156
vt 0.86745 0.394034
vn -0.4963511 0.172149 -0.8508821
vt 0.864364 0.0315947
vt 0.870185 0.100527
vt 0.867275 -0.0181773
vt 0.858543 0.100527
v 0.0612394 0.297319 -0.100477
vt 0.862094 0.797864
vn 0.450057 0.415626 -0.790382
vt 0.858192 0.394034
vt 0.861454 -0.0181773
vt 0.870537 0.394034
vt 0.859823 0.797864
v -0.0612393 0.297319 -0.100477
vt 0.866635 0.797864
vn -0.450057 0.415626 -0.790382
vt 0.864364 0.833059
vt 0.868906 0.797864
v -0.119065 0.577657 -0.0258533
vt 0.593238 0.234536
vn -0.02191099 0.9813187 -0.1911379
vt 0.593238 0.228325
vn -0.00463747 0.979897 -0.19945
vt 0.593238 0.138817
v 0.119112 0.577196 -0.0283691
vt 0.593238 0.2675
vn 0.012587 0.9822457 -0.187176
vt 0.593238 0.166125
v -0.00103369 0.598171 0.0859502
vt 0.593238 0.290809
vn 0.009540752 0.9872853 -0.158672
vn -0.0225639 0.9850011 -0.171066
vn 0.005669731 0.9798702 -0.199555
vt 0.593238 0.297983
vn -0.0109459 0.9872059 -0.159075
vn 0.02281399 0.9813998 -0.190615
vn 0.0222067 0.985145 -0.170283
vt 0.593238 0.325292
vt 0.481352 0.325292
vn -0.9269317 -0.141051 0.3477099
v -0.391538 0.664615 -0.207626
vt 0.462705 0.549623
vn -0.8971459 -0.278337 -0.343013
vt 0.462705 0.325292
vn -0.8889222 -0.2845511 -0.3589541
v -0.395367 0.723438 0.112968
vt 0.481352 0.549623
v -0.220913 0.757083 0.296337
vt 0.495635 0.549623
vn -0.7095141 -0.07303681 0.7008961
v -0.158351 0.623509 -0.431658
vt 0.444057 0.549623
vn -0.689635 -0.303291 -0.6575851
vt 0.444057 0.325292
vn 0.9269317 0.141051 -0.3477099
vn 0.8889222 0.2845511 0.3589541
vt 0.593238 0.549623
vn 0.8971459 0.278337 0.343013
vn 0.7115599 0.069277 -0.6992019
vn 0.689635 0.303291 0.6575851
vt 0.518648 0.325292
vn 0.3570768 -0.03978038 0.9332276
v -0.142549 0.765521 0.342326
vt 0.5 0.549623
vn -0.04315549 -0.06979118 0.9966277
vn -0.05121261 -0.08834941 0.9947721
v 0.158351 0.766212 0.346093
vt 0.518648 0.549623
vn 0.371015 -0.0270736 0.9282321
vt 0.537295 0.325292
vn 0.8980752 -0.119728 0.4232331
v 0.391538 0.725107 0.122062
vt 0.537295 0.549623
vt 0.555943 0.325292
vn 0.9141135 -0.2551942 -0.3150752
v 0.395367 0.666283 -0.198533
vt 0.555943 0.549623
vt 0.57459 0.325292
vn 0.7036979 -0.300962 -0.6436079
v 0.167596 0.6242 -0.427891
vt 0.57459 0.549623
vn -0.3570768 0.03978068 -0.9332276
vn 0.05121241 0.08834951 -0.9947721
vn 0.04315549 0.06979129 -0.9966277
vn -0.3710142 0.02707381 -0.9282324
vn -0.8980752 0.119728 -0.4232331
vn -0.9141137 0.2551939 0.3150749
vn -0.7036974 0.3009622 0.6436083
vt 0.453346 2.74278
vt 0.452342 2.16122
vt 0.483068 2.44923
vt 0.544716 2.12534
vt 0.545153 2.7008
vt 0.514446 2.43446
vt 0.47835 1.77466
vt 0.518334 1.74222
vt 0.499873 2.23555
o merged_0_0_node
g polygon_0
usemtl body1_mat_id
f 1/1/1 2/2/2 3/3/3
f 1/1/1 4/4/4 2/2/2
f 1/1/1 3/3/3 5/5/5
f 1/1/1 6/6/6 4/4/4
f 1/1/1 5/5/5 7/7/7
f 1/1/1 8/8/8 6/6/6
f 1/1/1 7/7/7 8/8/8
f 2/2/2 9/9/9 3/3/3
f 2/2/2 4/4/4 10/10/10
f 5/5/5 3/3/3 11/11/11
f 9/9/9 12/12/12 3/3/3
f 3/3/3 12/12/12 11/11/11
f 4/4/4 13/13/13 10/10/10
f 13/13/13 14/14/14 10/10/10
f 13/13/13 15/15/15 14/14/14
f 10/10/10 14/14/14 16/16/16
f 17/17/17 18/18/17 19/19/17
f 17/17/17 20/20/17 18/18/17
f 17/17/17 21/21/17 20/20/17
f 17/17/17 22/22/17 21/21/17
f 17/17/17 23/23/17 22/22/17
f 17/17/17 24/24/17 23/23/17
f 17/17/17 25/25/17 24/24/17
f 26/26/18 27/27/19 28/28/20
f 26/26/18 29/29/21 27/27/19
f 26/26/18 28/28/20 5/30/5
f 26/26/18 12/31/12 29/29/21
f 26/26/18 5/30/5 11/32/11
f 26/26/18 11/32/11 12/31/12
f 27/27/19 8/33/8 28/28/20
f 27/27/19 29/29/21 30/34/22
f 27/27/19 6/35/6 8/33/8
f 27/27/19 30/34/22 6/35/6
f 5/30/5 28/28/20 7/36/7
f 7/36/7 28/28/20 8/33/8
f 12/31/12 9/37/9 29/29/21
f 30/34/22 15/38/15 6/35/6
f 30/34/22 29/29/21 31/39/23
f 30/34/22 14/40/14 15/38/15
f 30/34/22 31/39/23 14/40/14
f 29/29/21 9/37/9 31/39/23
f 14/40/14 31/39/23 16/41/16
f 16/41/16 31/39/23 9/37/9
f 32/42/24 17/43/25 19/44/25
f 32/42/24 33/45/26 17/43/25
f 32/42/24 19/44/25 18/46/24
f 32/42/24 34/47/27 33/45/26
f 32/42/24 20/24/28 34/47/27
f 17/43/25 33/45/26 25/46/29
f 20/24/28 21/48/30 34/47/27
f 33/45/26 24/24/31 25/46/29
f 33/45/26 34/47/27 23/48/32
f 34/47/27 22/49/27 23/48/32
f 20/50/33 35/51/34 18/52/35
f 20/50/33 36/53/33 35/51/34
f 20/50/33 37/54/36 36/53/33
f 20/50/33 21/22/36 37/54/36
f 18/52/35 35/51/34 38/55/37
f 18/52/35 38/55/37 19/56/37
f 20/49/38 18/49/39 35/57/40
f 20/49/38 35/57/40 36/57/38
f 20/49/38 36/57/38 37/57/41
f 20/49/38 37/57/41 21/49/41
f 18/49/39 38/57/42 35/57/40
f 18/49/39 19/49/42 38/57/42
f 22/58/43 39/59/44 21/22/45
f 22/58/43 40/60/46 39/59/44
f 22/58/43 23/61/47 40/60/46
f 23/61/47 41/62/47 40/60/46
f 23/61/47 24/63/48 41/62/47
f 24/63/48 42/64/48 41/62/47
f 24/63/48 25/65/49 42/64/48
f 25/65/49 43/66/49 42/64/48
f 22/49/50 21/49/51 39/57/52
f 22/49/50 39/57/52 40/57/53
f 22/49/50 40/57/53 23/49/54
f 40/57/53 41/57/54 23/49/54
f 41/57/54 24/49/55 23/49/54
f 41/57/54 42/57/55 24/49/55
f 42/57/55 25/49/56 24/49/55
f 42/57/55 43/57/56 25/49/56
f 18/67/24 20/68/28 32/69/24
f 23/70/32 24/71/31 33/72/26
f 21/73/30 22/74/27 34/75/27
v 0 0.352777 0.152968
vt 0.29456 0.0690343
vn -9.872059E-05 -0.8789369 0.476938
v -0.115967 0.316193 0.0142797
vt 0.684996 0.0106285
vn -0.4283639 -0.8939298 0.131886
v 0 0.289434 0.0191894
vt 0.684996 -0.0842849
vn 0 -0.978046 0.208389
v -0.152817 0.396962 0.117648
vt 0.368381 0.222706
vn -0.5781659 -0.577023 0.576861
v 0.115967 0.316193 0.0142797
vn 0.4384279 -0.8901207 0.124363
v -0.105056 0.409814 0.200706
vt 0.139408 0.214619
vn -0.7199712 -0.2425261 0.6502482
v 0.152817 0.396969 0.117926
vt 0.367632 0.222555
vn 0.5782849 -0.5767499 0.5770149
v 0 0.418286 0.259316
vt -0.0216183 0.206683
vn -0.0003427189 -0.3271549 0.9449707
v 0.105056 0.409866 0.200819
vt 0.139229 0.214619
vn 0.7192772 -0.2427691 0.6509252
v 0 0.302188 -0.08547
vt 0.959101 0.0253752
vn 0.0003578778 -0.8824545 -0.4703977
v -0.19975 0.389298 0.000866118
vt 0.684996 0.269936
vn -0.866429 -0.497721 0.0396814
v -0.149586 0.370165 -0.103416
vt 0.973763 0.269936
vn -0.5358001 -0.5987291 -0.5953501
v 0 0.483283 0.213142
vt 0.0701279 0.458791
vn -0.0002563319 0.1994319 0.9799116
v -0.217856 0.471923 -0.014294
vt 0.684996 0.563007
vn -0.9882573 -0.139855 -0.06154712
v -0.179697 0.483897 0.136915
vt 0.274032 0.508893
vn -0.6599801 -0.172395 0.7312361
v 0.135217 0.370165 -0.103416
vn 0.5380772 -0.5844802 -0.6073352
v 0 0.381368 -0.15664
vt 1.11084 0.341892
vn -0.001165839 -0.3837059 -0.9234546
v 0.19975 0.389298 0.000866118
vn 0.8658087 -0.5002928 -0.009070727
v 0.179697 0.483897 0.136915
vn 0.6604811 -0.171381 0.7310221
v -0.18362 0.540138 0.134762
vt 0.252157 0.703241
vn -0.6703129 -0.001601289 0.7420769
v -0.160324 0.460124 -0.127161
vt 1.13969 0.593582
vn -0.549174 -0.231282 -0.803067
v 0.217856 0.471923 -0.014294
vn 0.981879 -0.149238 -0.116798
v 0.18362 0.540138 0.134762
vn 0.6703129 -0.001600889 0.7420769
v -0.185811 0.596651 0.134086
vt 0.22619 0.971222
vn -0.6620362 0.01695441 0.7492802
v 0 0.581612 0.204131
vt 0.0199556 0.804072
vn 0 0.05995889 0.9982009
vt 1.26223 0.974055
vn -0.002364471 -0.2046981 -0.9788223
v 0.144924 0.460124 -0.127161
vn 0.5518959 -0.227324 -0.8023309
v 0.185811 0.596651 0.134086
vn 0.6620361 0.0169545 0.7492801
v -0.223118 0.566155 -0.0321183
vt 0.686428 0.971222
vn -0.9959158 -0.06705429 -0.06046028
v -0.165109 0.544826 -0.148365
vt 1.15486 0.971222
vn -0.5729119 -0.224013 -0.7884099
v 0.149249 0.544826 -0.148365
vn 0.571813 -0.221022 -0.7900501
v 0 0.608839 0.200514
vt -0.0134062 1.01761
vn 0 0.04145771 0.9991403
v 0.223118 0.566155 -0.0321183
vn 0.9906062 -0.07673182 -0.113188
v -0.229375 0.219727 0.154158
vt 0.203125 0.265625
vn -0.8327671 0.08541281 0.546995
vt 0.203125 0.75
v 0.229375 0.219727 0.154159
vn 0.8327671 0.08541261 0.546995
o merged_1_0_node
g polygon_0
usemtl face_mat_id
f 44/76/57 45/77/58 46/78/59
f 44/76/57 47/79/60 45/77/58
f 44/76/57 46/78/59 48/77/61
f 44/76/57 49/80/62 47/79/60
f 44/76/57 48/77/61 50/81/63
f 44/76/57 51/82/64 49/80/62
f 44/76/57 50/81/63 52/83/65
f 44/76/57 52/83/65 51/82/64
f 45/77/58 53/84/66 46/78/59
f 45/77/58 47/79/60 54/85/67
f 45/77/58 55/86/68 53/84/66
f 45/77/58 54/85/67 55/86/68
f 46/78/59 53/84/66 48/77/61
f 49/80/62 51/82/64 56/87/69
f 49/80/62 56/87/69 47/79/60
f 56/87/69 52/83/65 50/81/63
f 56/87/69 51/82/64 52/83/65
f 54/85/67 57/88/70 55/86/68
f 54/85/67 47/79/60 58/89/71
f 54/85/67 58/89/71 57/88/70
f 53/84/66 59/86/72 48/77/61
f 53/84/66 55/86/68 60/90/73
f 53/84/66 60/90/73 59/86/72
f 50/81/63 48/77/61 61/85/74
f 50/81/63 61/85/74 62/89/75
f 48/77/61 59/86/72 61/85/74
f 58/89/71 63/91/76 57/88/70
f 55/86/68 64/92/77 60/90/73
f 55/86/68 57/88/70 64/92/77
f 62/89/75 61/85/74 65/88/78
f 62/89/75 65/88/78 66/91/79
f 61/85/74 59/86/72 65/88/78
f 63/91/76 67/93/80 57/88/70
f 63/91/76 68/94/81 67/93/80
f 60/90/73 64/92/77 17/95/82
f 60/90/73 69/92/83 59/86/72
f 60/90/73 17/95/82 69/92/83
f 59/86/72 69/92/83 65/88/78
f 66/91/79 70/93/84 68/94/81
f 66/91/79 65/88/78 70/93/84
f 57/88/70 67/93/80 71/96/85
f 57/88/70 72/97/86 64/92/77
f 57/88/70 71/96/85 72/97/86
f 72/97/86 17/95/82 64/92/77
f 69/92/83 73/97/87 65/88/78
f 69/92/83 17/95/82 73/97/87
f 68/94/81 70/93/84 74/98/88
f 68/94/81 74/98/88 67/93/80
f 65/88/78 73/97/87 75/96/89
f 65/88/78 75/96/89 70/93/84
f 76/99/90 10/100/10 16/100/16
f 76/99/90 2/100/2 10/100/10
f 76/99/90 16/100/16 9/100/9
f 76/99/90 9/100/9 2/100/2
f 77/99/91 15/100/15 13/100/13
f 77/99/91 6/100/6 15/100/15
f 77/99/91 13/100/13 4/100/4
f 77/99/91 4/100/4 6/100/6
vt 0.0364242 1.00882
vt 1.23215 1.06065
vt 0.0619726 0.883727
vt 1.23215 0.831383
vt 0.0619726 0.883082
vt 0.237012 0.667516
o merged_2_0_node
g polygon_0
usemtl TEX_ANIM_EYE_mat_id
f 66/101/79 68/102/81 62/103/75
f 68/102/81 56/104/69 62/103/75
f 68/102/81 58/105/71 56/104/69
f 56/104/69 50/106/63 62/103/75
f 56/104/69 58/105/71 47/106/60
f 58/105/71 68/102/81 63/101/76
