ply
format ascii 1.0
element vertex 512
property float x
property float y
property float z
property uchar red
property uchar green
property uchar blue
element face 622
property list uchar int vertex_index
end_header
0.25499 -0.60623 0.17357 175 131 101
0.25499 -0.60623 1.33514E-07 175 131 101
0.21978 -0.57032 1.33514E-07 175 131 101
0.21978 -0.57032 0.17357 175 131 101
0.46584 -0.60584 1.33514E-07 175 131 101
0.46584 -0.60584 0.17357 175 131 101
0.50134 -0.57047 1.33514E-07 175 131 101
0.21978 0.15307 1.33514E-07 175 131 101
0.50109 0.15275 1.33514E-07 175 131 101
0.50134 -0.57047 0.17357 175 131 101
0.25097 0.18904 0 175 131 101
0.47244 0.18905 0 175 131 101
0.50179 -0.13081 0.17357 175 131 101
0.50124 -0.07837 0.17357 175 131 101
0.21994 -0.07805 0.17357 175 131 101
0.22058 -0.13052 0.17357 175 131 101
0.5016 0.1516 0.17357 175 131 101
0.47193 0.10734 0.70056 175 131 101
0.24983 0.10766 0.70056 175 131 101
0.24965 -0.01185 0.44966 175 131 101
0.47176 -0.01217 0.44966 175 131 101
0.24934 -0.227 0.48692 175 131 101
0.24951 -0.11445 0.70056 175 131 101
0.24934 -0.227 0.41576 175 131 101
0.24982 0.16173 0.29461 175 131 101
0.47193 0.16141 0.29461 175 131 101
0.24955 -0.08612 0.29461 175 131 101
0.2203 0.15281 0.17357 175 131 101
0.25146 0.18878 0.17354 175 131 101
0.47296 0.18789 0.17355 175 131 101
0.52846 -0.13083 0.17351 75 66 80
0.50179 -0.13081 0.17357 75 66 80
0.52846 -0.13088 0.29458 75 66 80
0.50124 -0.07837 0.17357 75 66 80
0.5016 0.1516 0.17357 75 66 80
0.52827 0.20227 0.17351 75 66 80
0.22058 -0.13052 0.17357 75 66 80
0.19262 -0.13041 0.29458 75 66 80
0.19262 -0.1304 0.17351 75 66 80
0.19242 0.2028 0.29458 75 66 80
0.19242 0.2027 0.17351 75 66 80
0.25146 0.18878 0.17354 75 66 80
0.47296 0.18789 0.17355 75 66 80
0.21994 -0.07805 0.17357 75 66 80
0.2203 0.15281 0.17357 75 66 80
0.47144 -0.22732 0.48692 175 131 101
0.47162 -0.11477 0.70056 175 131 101
0.47144 -0.22732 0.41576 175 131 101
0.47166 -0.08644 0.29461 175 131 101
0.52827 0.20222 0.29458 75 66 80
0.24955 -0.08612 0.29461 85 75 90
0.47166 -0.08644 0.29461 85 75 90
0.52846 -0.13088 0.29458 85 75 90
0.19262 -0.13041 0.29458 85 75 90
0.52827 0.20222 0.29458 85 75 90
0.47193 0.16141 0.29461 85 75 90
0.24982 0.16173 0.29461 85 75 90
0.19242 0.2028 0.29458 85 75 90
0.22058 -0.13052 0.17357 183 137 105
0.50179 -0.13081 0.17357 183 137 105
0.50134 -0.57047 0.17357 183 137 105
0.21978 -0.57032 0.17357 183 137 105
0.25499 -0.60623 0.17357 183 137 105
0.46584 -0.60584 0.17357 183 137 105
0.68916 -0.18685 1.43106 175 131 101
0.69108 0.0224 1.63937 175 131 101
1.03371 0.02024 1.63601 175 131 101
1.0318 -0.189 1.4277 175 131 101
0.68879 -0.00611 1.24954 175 131 101
1.23752 -0.00901 1.245 175 131 101
1.28329 -0.03845 1.27414 175 131 101
1.28485 -0.38294 1.62277 175 131 101
1.03304 -0.38202 1.6242 175 131 101
1.28676 -0.1737 1.83108 175 131 101
1.2852 0.1708 1.48244 175 131 101
0.69108 0.0224 1.63937 183 137 105
0.6907 0.20314 1.45784 183 137 105
1.23943 0.20023 1.45331 183 137 105
1.03371 0.02024 1.63601 183 137 105
1.2852 0.1708 1.48244 183 137 105
1.03495 -0.17278 1.83251 183 137 105
1.28676 -0.1737 1.83108 183 137 105
0.6907 0.20314 1.45784 175 131 101
1.23943 0.20023 1.45331 175 131 101
1.03495 -0.17278 1.83251 175 131 101
0.93939 -0.10425 1.90093 75 66 80
0.93966 -0.23652 2.03377 75 66 80
0.93648 -0.58211 1.68971 75 66 80
0.93621 -0.44985 1.55688 75 66 80
1.3836 -0.10587 1.89841 75 66 80
1.38387 -0.23814 2.03125 75 66 80
1.03495 -0.17278 1.83251 75 66 80
1.03304 -0.38202 1.6242 75 66 80
1.38042 -0.45147 1.55435 75 66 80
1.28485 -0.38294 1.62277 75 66 80
1.28676 -0.1737 1.83108 75 66 80
1.38069 -0.58373 1.68719 75 66 80
1.38387 -0.23814 2.03125 85 75 90
1.38069 -0.58373 1.68719 85 75 90
0.93648 -0.58211 1.68971 85 75 90
0.93966 -0.23652 2.03377 85 75 90
0.93108 -0.79016 2.05132 183 137 105
0.93285 -0.59632 2.24428 183 137 105
1.38644 -0.59797 2.2417 183 137 105
1.38467 -0.79181 2.04874 183 137 105
0.8919 -0.53244 2.23799 175 131 101
0.89137 -0.27734 1.98179 175 131 101
1.42726 -0.2793 1.97874 175 131 101
1.42779 -0.53439 2.23494 175 131 101
0.89043 -0.56047 1.99147 175 131 101
0.89013 -0.4147 1.84506 175 131 101
0.93285 -0.59632 2.24428 175 131 101
1.38644 -0.59797 2.2417 175 131 101
0.84447 -0.41453 1.84532 175 131 101
0.84477 -0.5603 1.99173 175 131 101
0.84266 -0.60939 1.65131 175 131 101
0.84296 -0.75517 1.79772 175 131 101
1.0909 -0.5294 1.73044 175 131 101
0.88937 -0.67444 1.878 175 131 101
0.88959 -0.78376 1.9878 175 131 101
1.42496 -0.53062 1.72854 175 131 101
1.09014 -0.61029 1.6499 175 131 101
1.42548 -0.78571 1.98475 175 131 101
1.0912 -0.67517 1.87685 175 131 101
1.38467 -0.79181 2.04874 175 131 101
0.93108 -0.79016 2.05132 175 131 101
1.09044 -0.75607 1.79631 175 131 101
0.38389 -0.71353 1.73402 242 242 242
0.38389 -0.71353 1.48238 242 242 242
0.09287 -0.71353 1.48238 242 242 242
-0.06245 -0.74257 1.60163 237 219 199
0 -0.74257 1.97294 237 219 199
0.06245 -0.74257 1.65648 237 219 199
0.64185 -0.74257 1.97294 237 219 199
0.09328 -0.74257 1.65648 237 219 199
0.38389 -0.74257 1.73402 237 219 199
0.64185 -0.74257 0.74598 237 219 199
0.38389 -0.74257 1.48238 237 219 199
0.38389 -0.71353 1.73402 237 219 199
0.09287 -0.71353 1.48238 237 219 199
0.09287 -0.74257 1.48238 237 219 199
0.38389 -0.71353 1.48238 237 219 199
0 -0.74257 0.74598 237 219 199
0.06247 -0.74257 1.48238 237 219 199
-0.06247 -0.74257 1.48238 237 219 199
-0.64185 -0.74257 1.97294 237 219 199
-0.09328 -0.74257 1.60163 237 219 199
-0.38389 -0.74257 1.73402 237 219 199
-0.64185 -0.74257 0.74598 237 219 199
-0.38389 -0.74257 1.48238 237 219 199
-0.38389 -0.71353 1.73402 237 219 199
-0.09287 -0.71353 1.48238 237 219 199
-0.09287 -0.74257 1.48238 237 219 199
-0.38389 -0.71353 1.48238 237 219 199
-0.74257 -0.65933 0.74598 237 219 199
-0.74257 -0.65933 1.97294 237 219 199
-0.74257 0.65933 0.74598 237 219 199
-0.74257 0.65933 1.97294 237 219 199
-0.59998 -0.69413 2.03472 237 219 199
-0.69413 -0.61631 2.03472 237 219 199
-0.69413 0.61631 2.03472 237 219 199
-0.64185 0.74257 1.97294 237 219 199
-0.64185 0.74257 0.74598 237 219 199
0.64185 0.74257 1.97294 237 219 199
0.64185 0.74257 0.74598 237 219 199
0.74257 0.65933 1.97294 237 219 199
0.74257 0.65933 0.74598 237 219 199
-0.59998 0.69413 2.03472 237 219 199
0.59998 0.69413 2.03472 237 219 199
0.69413 0.61631 2.03472 237 219 199
-0.59922 0.69325 0.67854 237 219 199
-0.69325 0.61554 0.67854 237 219 199
0.69325 0.61554 0.67854 237 219 199
0.59922 0.69325 0.67854 237 219 199
0.69325 -0.61554 0.67854 237 219 199
0.74257 -0.65933 0.74598 237 219 199
0.59922 -0.69325 0.67854 237 219 199
-0.69325 -0.61554 0.67854 237 219 199
-0.59922 -0.69325 0.67854 237 219 199
0.74257 -0.65933 1.97294 237 219 199
0.69413 -0.61631 2.03472 237 219 199
0.59998 -0.69413 2.03472 237 219 199
0.09328 -0.74257 1.65648 219 202 184
0.09287 -0.74257 1.48238 219 202 184
0.06247 -0.74257 1.48238 219 202 184
0.06245 -0.74257 1.65648 219 202 184
-0.38389 -0.71353 1.73402 242 242 242
-0.09287 -0.71353 1.48238 242 242 242
-0.38389 -0.71353 1.48238 242 242 242
-0.09328 -0.74257 1.60163 219 202 184
-0.06245 -0.74257 1.60163 219 202 184
-0.06247 -0.74257 1.48238 219 202 184
-0.09287 -0.74257 1.48238 219 202 184
0.18942 -0.72139 1.52161 51 48 43
0.18942 -0.72139 1.61707 51 48 43
0.2317 -0.72139 1.61707 51 48 43
0.2317 -0.72139 1.52161 51 48 43
0.18942 -0.70994 1.52161 51 48 43
0.2317 -0.70994 1.52161 51 48 43
0.2317 -0.70994 1.61707 51 48 43
0.18942 -0.70994 1.61707 51 48 43
-0.18942 -0.72139 1.52161 51 48 43
-0.2317 -0.72139 1.52161 51 48 43
-0.2317 -0.72139 1.61707 51 48 43
-0.18942 -0.72139 1.61707 51 48 43
-0.18942 -0.70994 1.52161 51 48 43
-0.2317 -0.70994 1.52161 51 48 43
-0.2317 -0.70994 1.61707 51 48 43
-0.18942 -0.70994 1.61707 51 48 43
0.15834 -0.86858 1.4756 220 146 124
-0.15834 -0.86858 1.4756 220 146 124
-0.18222 -0.84368 1.4756 220 146 124
0.18222 -0.84368 1.4756 220 146 124
-0.18222 -0.73088 1.4756 220 146 124
0.18222 -0.73088 1.4756 220 146 124
-0.18222 -0.73088 1.17635 212 141 120
-0.18222 -0.84368 1.17635 212 141 120
0.18222 -0.84368 1.17635 212 141 120
0.18222 -0.73088 1.17635 212 141 120
0.21946 -0.73088 1.22224 212 141 120
0.21946 -0.87573 1.22224 212 141 120
0.21946 -0.73088 1.42971 212 141 120
0.21946 -0.87573 1.42971 212 141 120
0.1907 -0.90703 1.42971 212 141 120
0.1907 -0.90703 1.22224 212 141 120
0.18222 -0.84368 1.4756 212 141 120
0.15834 -0.86858 1.4756 212 141 120
0.18222 -0.73088 1.4756 212 141 120
0.15834 -0.86858 1.17635 212 141 120
0 -0.90703 1.22224 212 141 120
-0.15834 -0.86858 1.17635 212 141 120
0.10261 -0.90703 1.27014 212 141 120
0.05002 -0.90703 1.27014 212 141 120
0.10261 -0.90703 1.38951 212 141 120
0.05002 -0.90703 1.38951 212 141 120
0 -0.90703 1.42971 212 141 120
-0.05002 -0.90703 1.38951 212 141 120
-0.05002 -0.90703 1.27014 212 141 120
-0.10261 -0.90703 1.27014 212 141 120
-0.1907 -0.90703 1.22224 212 141 120
-0.21946 -0.87573 1.22224 212 141 120
-0.1907 -0.90703 1.42971 212 141 120
-0.21946 -0.87573 1.42971 212 141 120
-0.21946 -0.73088 1.42971 212 141 120
-0.21946 -0.73088 1.22224 212 141 120
-0.18222 -0.84368 1.4756 212 141 120
-0.15834 -0.86858 1.4756 212 141 120
-0.18222 -0.73088 1.4756 212 141 120
-0.10261 -0.90703 1.38951 212 141 120
0.05002 -0.88289 1.38951 118 79 67
0.10261 -0.88289 1.38951 118 79 67
0.10261 -0.88289 1.27014 118 79 67
0.05002 -0.88289 1.27014 118 79 67
0.05002 -0.90703 1.38951 118 79 67
0.05002 -0.90703 1.27014 118 79 67
0.10261 -0.90703 1.27014 118 79 67
0.10261 -0.90703 1.38951 118 79 67
-0.05002 -0.88289 1.38951 118 79 67
-0.05002 -0.88289 1.27014 118 79 67
-0.10261 -0.88289 1.27014 118 79 67
-0.10261 -0.88289 1.38951 118 79 67
-0.05002 -0.90703 1.38951 118 79 67
-0.05002 -0.90703 1.27014 118 79 67
-0.10261 -0.90703 1.27014 118 79 67
-0.10261 -0.90703 1.38951 118 79 67
0.53325 -0.7554 1.8858 196 181 165
0.59962 -0.7554 1.88581 196 181 165
0.59962 -0.7554 1.85589 196 181 165
0.50289 -0.7554 1.85589 196 181 165
0.59962 -0.73661 1.85589 196 181 165
0.50289 -0.73661 1.85589 196 181 165
0.59962 -0.73661 1.88581 196 181 165
0.50289 -0.73661 1.94632 196 181 165
0.50289 -0.7554 1.94632 196 181 165
0.53325 -0.73661 1.94632 196 181 165
0.53325 -0.7554 1.94632 196 181 165
0.53325 -0.73661 1.88581 196 181 165
0.5336 -0.7554 1.79641 196 181 165
0.5336 -0.7554 1.73608 196 181 165
0.50289 -0.7554 1.73608 196 181 165
0.50289 -0.7554 1.82927 196 181 165
0.50289 -0.73661 1.73608 196 181 165
0.50289 -0.73661 1.82927 196 181 165
0.5336 -0.73661 1.73608 196 181 165
0.59962 -0.73661 1.82927 196 181 165
0.59962 -0.7554 1.82927 196 181 165
0.59962 -0.73661 1.79641 196 181 165
0.59962 -0.7554 1.79641 196 181 165
0.5336 -0.73661 1.79641 196 181 165
0.44385 -0.7554 1.79659 196 181 165
0.37747 -0.7554 1.79659 196 181 165
0.37747 -0.7554 1.8294 196 181 165
0.47421 -0.7554 1.8294 196 181 165
0.37747 -0.73661 1.8294 196 181 165
0.47421 -0.73661 1.8294 196 181 165
0.37747 -0.73661 1.79659 196 181 165
0.47421 -0.73661 1.73608 196 181 165
0.47421 -0.7554 1.73608 196 181 165
0.44385 -0.73661 1.73608 196 181 165
0.44385 -0.7554 1.73608 196 181 165
0.44385 -0.73661 1.79659 196 181 165
0.4435 -0.7554 1.88598 196 181 165
0.4435 -0.7554 1.94632 196 181 165
0.47421 -0.7554 1.94632 196 181 165
0.47421 -0.7554 1.85601 196 181 165
0.47421 -0.73661 1.94632 196 181 165
0.47421 -0.73661 1.85601 196 181 165
0.4435 -0.73661 1.94632 196 181 165
0.37747 -0.73661 1.85601 196 181 165
0.37747 -0.7554 1.85601 196 181 165
0.37747 -0.73661 1.88598 196 181 165
0.37747 -0.7554 1.88598 196 181 165
0.4435 -0.73661 1.88598 196 181 165
-0.69413 0.61631 2.03472 241 223 203
-0.59998 0.69413 2.03472 241 223 203
0.59998 0.69413 2.03472 241 223 203
0.69413 0.61631 2.03472 241 223 203
-0.69413 -0.61631 2.03472 241 223 203
0.69413 -0.61631 2.03472 241 223 203
-0.59998 -0.69413 2.03472 241 223 203
0.59998 -0.69413 2.03472 241 223 203
-0.25499 -0.60623 0.17357 175 131 101
-0.21978 -0.57032 0.17357 175 131 101
-0.21978 -0.57032 1.33514E-07 175 131 101
-0.25499 -0.60623 1.33514E-07 175 131 101
-0.46584 -0.60584 1.33514E-07 175 131 101
-0.46584 -0.60584 0.17357 175 131 101
-0.50134 -0.57047 1.33514E-07 175 131 101
-0.21978 0.15307 1.33514E-07 175 131 101
-0.50109 0.15275 1.33514E-07 175 131 101
-0.50134 -0.57047 0.17357 175 131 101
-0.25097 0.18904 0 175 131 101
-0.47244 0.18905 0 175 131 101
-0.50124 -0.07837 0.17357 175 131 101
-0.50179 -0.13081 0.17357 175 131 101
-0.22058 -0.13052 0.17357 175 131 101
-0.21994 -0.07805 0.17357 175 131 101
-0.5016 0.1516 0.17357 175 131 101
-0.47193 0.10734 0.70056 175 131 101
-0.47176 -0.01217 0.44966 175 131 101
-0.24965 -0.01185 0.44966 175 131 101
-0.24983 0.10766 0.70056 175 131 101
-0.24934 -0.227 0.48692 175 131 101
-0.24951 -0.11445 0.70056 175 131 101
-0.24934 -0.227 0.41576 175 131 101
-0.24982 0.16173 0.29461 175 131 101
-0.47193 0.16141 0.29461 175 131 101
-0.24955 -0.08612 0.29461 175 131 101
-0.2203 0.15281 0.17357 175 131 101
-0.25146 0.18878 0.17354 175 131 101
-0.47296 0.18789 0.17355 175 131 101
-0.52846 -0.13083 0.17351 75 66 80
-0.52846 -0.13088 0.29458 75 66 80
-0.50179 -0.13081 0.17357 75 66 80
-0.50124 -0.07837 0.17357 75 66 80
-0.5016 0.1516 0.17357 75 66 80
-0.52827 0.20227 0.17351 75 66 80
-0.22058 -0.13052 0.17357 75 66 80
-0.19262 -0.13041 0.29458 75 66 80
-0.19262 -0.1304 0.17351 75 66 80
-0.19242 0.2028 0.29458 75 66 80
-0.19242 0.2027 0.17351 75 66 80
-0.25146 0.18878 0.17354 75 66 80
-0.47296 0.18789 0.17355 75 66 80
-0.21994 -0.07805 0.17357 75 66 80
-0.2203 0.15281 0.17357 75 66 80
-0.47162 -0.11477 0.70056 175 131 101
-0.47144 -0.22732 0.48692 175 131 101
-0.47144 -0.22732 0.41576 175 131 101
-0.47166 -0.08644 0.29461 175 131 101
-0.52827 0.20222 0.29458 75 66 80
-0.24955 -0.08612 0.29461 85 75 90
-0.19262 -0.13041 0.29458 85 75 90
-0.52846 -0.13088 0.29458 85 75 90
-0.47166 -0.08644 0.29461 85 75 90
-0.52827 0.20222 0.29458 85 75 90
-0.47193 0.16141 0.29461 85 75 90
-0.19242 0.2028 0.29458 85 75 90
-0.24982 0.16173 0.29461 85 75 90
-0.22058 -0.13052 0.17357 183 137 105
-0.21978 -0.57032 0.17357 183 137 105
-0.50134 -0.57047 0.17357 183 137 105
-0.50179 -0.13081 0.17357 183 137 105
-0.25499 -0.60623 0.17357 183 137 105
-0.46584 -0.60584 0.17357 183 137 105
-0.68916 -0.18685 1.43106 175 131 101
-1.0318 -0.189 1.4277 175 131 101
-1.03371 0.02024 1.63601 175 131 101
-0.69108 0.0224 1.63937 175 131 101
-0.68879 -0.00611 1.24954 175 131 101
-1.23752 -0.00901 1.245 175 131 101
-1.28329 -0.03845 1.27414 175 131 101
-1.28485 -0.38294 1.62277 175 131 101
-1.03304 -0.38202 1.6242 175 131 101
-1.28676 -0.1737 1.83108 175 131 101
-1.2852 0.1708 1.48244 175 131 101
-0.69108 0.0224 1.63937 183 137 105
-1.03371 0.02024 1.63601 183 137 105
-1.23943 0.20023 1.45331 183 137 105
-0.6907 0.20314 1.45784 183 137 105
-1.2852 0.1708 1.48244 183 137 105
-1.03495 -0.17278 1.83251 183 137 105
-1.28676 -0.1737 1.83108 183 137 105
-0.6907 0.20314 1.45784 175 131 101
-1.23943 0.20023 1.45331 175 131 101
-1.03495 -0.17278 1.83251 175 131 101
-0.93939 -0.10425 1.90093 75 66 80
-0.93621 -0.44985 1.55688 75 66 80
-0.93648 -0.58211 1.68971 75 66 80
-0.93966 -0.23652 2.03377 75 66 80
-1.3836 -0.10587 1.89841 75 66 80
-1.38387 -0.23814 2.03125 75 66 80
-1.03495 -0.17278 1.83251 75 66 80
-1.03304 -0.38202 1.6242 75 66 80
-1.38042 -0.45147 1.55435 75 66 80
-1.28485 -0.38294 1.62277 75 66 80
-1.28676 -0.1737 1.83108 75 66 80
-1.38069 -0.58373 1.68719 75 66 80
-1.38387 -0.23814 2.03125 85 75 90
-0.93966 -0.23652 2.03377 85 75 90
-0.93648 -0.58211 1.68971 85 75 90
-1.38069 -0.58373 1.68719 85 75 90
-0.93108 -0.79016 2.05132 183 137 105
-1.38467 -0.79181 2.04874 183 137 105
-1.38644 -0.59797 2.2417 183 137 105
-0.93285 -0.59632 2.24428 183 137 105
-0.8919 -0.53244 2.23799 175 131 101
-1.42779 -0.53439 2.23494 175 131 101
-1.42726 -0.2793 1.97874 175 131 101
-0.89137 -0.27734 1.98179 175 131 101
-0.89043 -0.56047 1.99147 175 131 101
-0.89013 -0.4147 1.84506 175 131 101
-0.93285 -0.59632 2.24428 175 131 101
-1.38644 -0.59797 2.2417 175 131 101
-0.84447 -0.41453 1.84532 175 131 101
-0.84477 -0.5603 1.99173 175 131 101
-0.84266 -0.60939 1.65131 175 131 101
-0.84296 -0.75517 1.79772 175 131 101
-1.0909 -0.5294 1.73044 175 131 101
-0.88937 -0.67444 1.878 175 131 101
-0.88959 -0.78376 1.9878 175 131 101
-1.42496 -0.53062 1.72854 175 131 101
-1.09014 -0.61029 1.6499 175 131 101
-1.0912 -0.67517 1.87685 175 131 101
-1.42548 -0.78571 1.98475 175 131 101
-1.38467 -0.79181 2.04874 175 131 101
-0.93108 -0.79016 2.05132 175 131 101
-1.09044 -0.75607 1.79631 175 131 101
0.2715 -0.32801 2.25948 212 141 120
0.2866 -0.32801 2.28352 212 141 120
0.4419 -0.32801 2.28352 212 141 120
0.45609 -0.32801 2.25948 212 141 120
0.27156 -0.32801 2.03148 212 141 120
0.45562 -0.32801 2.03148 212 141 120
0.22734 -0.32801 2.40754 241 223 203
0.22734 -0.06156 2.40754 241 223 203
0.50559 -0.06156 2.40754 241 223 203
0.50559 -0.32801 2.40754 241 223 203
0.53371 -0.32801 2.37893 241 223 203
0.53371 -0.06156 2.37893 241 223 203
0.19922 -0.06156 2.37893 241 223 203
0.19922 -0.32801 2.37893 241 223 203
0.58253 -0.32801 2.03148 237 219 199
0.53371 -0.32801 2.37893 237 219 199
0.53371 -0.06156 2.37893 237 219 199
0.58253 -0.06156 2.03148 237 219 199
0.45609 -0.32801 2.25948 237 219 199
0.45562 -0.32801 2.03148 237 219 199
0.4419 -0.32801 2.28352 237 219 199
0.2866 -0.32801 2.28352 237 219 199
0.19922 -0.32801 2.37893 237 219 199
0.2715 -0.32801 2.25948 237 219 199
0.27156 -0.32801 2.03148 237 219 199
0.14477 -0.32801 2.03148 237 219 199
0.14477 -0.06156 2.03148 237 219 199
0.19922 -0.06156 2.37893 237 219 199
0.50559 -0.32801 2.40754 237 219 199
0.22734 -0.32801 2.40754 237 219 199
0.22734 -0.06156 2.40754 237 219 199
0.50559 -0.06156 2.40754 237 219 199
-0.2715 -0.32801 2.25948 212 141 120
-0.45609 -0.32801 2.25948 212 141 120
-0.4419 -0.32801 2.28352 212 141 120
-0.2866 -0.32801 2.28352 212 141 120
-0.27156 -0.32801 2.03148 212 141 120
-0.45562 -0.32801 2.03148 212 141 120
-0.22734 -0.32801 2.40754 241 223 203
-0.50559 -0.32801 2.40754 241 223 203
-0.50559 -0.06156 2.40754 241 223 203
-0.22734 -0.06156 2.40754 241 223 203
-0.53371 -0.32801 2.37893 241 223 203
-0.53371 -0.06156 2.37893 241 223 203
-0.19922 -0.06156 2.37893 241 223 203
-0.19922 -0.32801 2.37893 241 223 203
-0.58253 -0.32801 2.03148 237 219 199
-0.58253 -0.06156 2.03148 237 219 199
-0.53371 -0.06156 2.37893 237 219 199
-0.53371 -0.32801 2.37893 237 219 199
-0.45609 -0.32801 2.25948 237 219 199
-0.45562 -0.32801 2.03148 237 219 199
-0.4419 -0.32801 2.28352 237 219 199
-0.2866 -0.32801 2.28352 237 219 199
-0.19922 -0.32801 2.37893 237 219 199
-0.2715 -0.32801 2.25948 237 219 199
-0.27156 -0.32801 2.03148 237 219 199
-0.14477 -0.32801 2.03148 237 219 199
-0.14477 -0.06156 2.03148 237 219 199
-0.19922 -0.06156 2.37893 237 219 199
-0.50559 -0.32801 2.40754 237 219 199
-0.22734 -0.32801 2.40754 237 219 199
-0.22734 -0.06156 2.40754 237 219 199
-0.50559 -0.06156 2.40754 237 219 199
3 0 2 1
3 0 3 2
3 4 0 1
3 2 4 1
3 4 5 0
3 6 5 4
3 2 6 4
3 7 6 2
3 7 8 6
3 6 9 5
3 8 7 10
3 8 10 11
3 9 13 12
3 14 3 15
3 13 8 16
3 17 19 18
3 17 20 19
3 21 18 19
3 21 22 18
3 23 21 19
3 20 24 19
3 20 25 24
3 26 19 24
3 26 23 19
3 14 27 7
3 7 3 14
3 3 7 2
3 7 27 28
3 7 28 10
3 29 10 28
3 29 11 10
3 16 11 29
3 16 8 11
3 30 32 31
3 33 30 31
3 34 30 33
3 34 35 30
3 32 36 31
3 32 37 36
3 37 38 36
3 38 37 39
3 38 39 40
3 35 41 40
3 35 42 41
3 34 42 35
3 43 38 40
3 43 40 44
3 44 40 41
3 13 6 8
3 6 13 9
3 17 45 20
3 17 46 45
3 45 46 22
3 45 22 21
3 45 47 20
3 47 45 21
3 47 21 23
3 47 25 20
3 47 48 25
3 48 47 23
3 48 23 26
3 32 35 49
3 32 30 35
3 49 35 40
3 49 40 39
3 36 38 43
3 50 52 51
3 50 53 52
3 51 52 54
3 51 54 55
3 55 57 56
3 55 54 57
3 56 57 53
3 56 53 50
3 58 60 59
3 58 61 60
3 60 61 62
3 60 62 63
3 64 66 65
3 64 67 66
3 68 67 64
3 68 69 67
3 67 69 70
3 67 70 71
3 67 71 72
3 70 73 71
3 70 74 73
3 75 77 76
3 75 78 77
3 77 78 79
3 79 78 80
3 79 80 81
3 82 69 68
3 82 83 69
3 70 69 83
3 70 83 74
3 66 72 84
3 66 67 72
3 85 87 86
3 85 88 87
3 89 85 86
3 89 86 90
3 91 88 85
3 91 92 88
3 92 93 88
3 92 94 93
3 94 89 93
3 94 95 89
3 95 85 89
3 95 91 85
3 88 96 87
3 88 93 96
3 93 90 96
3 93 89 90
3 97 99 98
3 97 100 99
3 101 103 102
3 101 104 103
3 105 107 106
3 105 108 107
3 109 105 106
3 109 106 110
3 106 107 110
3 108 105 111
3 108 111 112
3 109 110 113
3 109 113 114
3 115 114 113
3 115 113 110
3 115 116 114
3 115 110 117
3 105 109 118
3 105 118 119
3 110 120 117
3 110 107 120
3 115 117 121
3 119 123 122
3 119 118 123
3 119 122 124
3 119 124 125
3 122 112 124
3 122 108 112
3 122 107 108
3 122 120 107
3 105 119 125
3 105 125 111
3 123 118 116
3 118 114 116
3 118 109 114
3 123 116 126
3 115 126 116
3 115 121 126
3 117 126 121
3 117 123 126
3 122 117 120
3 122 123 117
3 127 129 128
3 130 132 131
3 133 131 132
3 133 132 134
3 133 134 135
3 136 133 135
3 136 135 137
3 137 135 138
3 135 139 138
3 135 140 139
3 135 134 140
3 140 141 139
3 140 137 141
3 137 138 141
3 142 137 140
3 142 136 137
3 142 140 143
3 143 132 130
3 142 143 144
3 143 130 144
3 145 130 131
3 145 146 130
3 145 147 146
3 148 147 145
3 148 149 147
3 142 149 148
3 149 150 147
3 147 150 151
3 147 151 152
3 147 152 146
3 142 152 149
3 142 144 152
3 152 153 149
3 152 151 153
3 149 153 150
3 154 148 145
3 154 145 155
3 156 154 155
3 156 155 157
3 155 145 158
3 155 158 159
3 157 155 159
3 157 159 160
3 161 157 160
3 157 161 162
3 157 162 156
3 162 161 163
3 162 163 164
3 164 163 165
3 164 165 166
3 163 161 167
3 161 160 167
3 163 167 168
3 165 163 168
3 165 168 169
3 156 162 170
3 156 170 171
3 170 172 171
3 164 166 172
3 172 170 173
3 162 173 170
3 162 164 173
3 164 172 173
3 171 172 174
3 166 174 172
3 166 175 174
3 175 176 174
3 177 174 176
3 171 174 177
3 177 176 178
3 148 177 178
3 178 142 148
3 176 142 178
3 148 154 177
3 154 171 177
3 154 156 171
3 175 136 176
3 136 142 176
3 133 136 175
3 133 175 179
3 175 165 179
3 175 166 165
3 133 179 180
3 133 180 181
3 181 131 133
3 179 169 180
3 179 165 169
3 158 131 181
3 145 131 158
3 182 184 183
3 182 185 184
3 186 188 187
3 189 191 190
3 189 192 191
3 193 195 194
3 193 196 195
3 197 196 193
3 197 193 194
3 197 198 196
3 196 199 195
3 196 198 199
3 197 194 200
3 201 203 202
3 201 204 203
3 205 201 202
3 205 204 201
3 205 202 206
3 202 207 206
3 202 203 207
3 205 208 204
3 209 211 210
3 209 212 211
3 212 213 211
3 212 214 213
3 215 217 216
3 215 218 217
3 219 217 218
3 219 220 217
3 220 219 221
3 220 221 222
3 223 220 222
3 223 224 220
3 223 222 225
3 223 225 226
3 222 227 225
3 222 221 227
3 220 228 217
3 220 224 228
3 228 224 229
3 217 230 216
3 217 228 230
3 228 229 230
3 229 224 231
3 229 231 232
3 224 233 231
3 224 223 233
3 223 234 233
3 223 235 234
3 235 232 234
3 232 235 229
3 226 235 223
3 229 235 236
3 229 236 237
3 229 237 238
3 229 238 239
3 230 229 239
3 240 230 239
3 241 240 239
3 241 236 235
3 241 242 240
3 240 242 243
3 240 243 244
3 241 245 242
3 241 246 245
3 235 246 241
3 242 247 243
3 242 245 247
3 244 216 240
3 244 215 216
3 240 216 230
3 239 248 241
3 239 238 248
3 241 248 236
3 226 246 235
3 249 251 250
3 249 252 251
3 253 252 249
3 253 254 252
3 254 251 252
3 254 255 251
3 255 250 251
3 255 256 250
3 256 249 250
3 256 253 249
3 257 259 258
3 257 260 259
3 261 257 258
3 261 258 262
3 262 258 259
3 262 259 263
3 263 259 260
3 263 260 264
3 264 257 261
3 264 260 257
3 265 267 266
3 265 268 267
3 268 269 267
3 268 270 269
3 267 271 266
3 267 269 271
3 272 270 268
3 272 268 273
3 265 273 268
3 273 274 272
3 273 275 274
3 265 274 275
3 265 275 273
3 265 276 274
3 276 266 271
3 276 265 266
3 277 279 278
3 277 280 279
3 280 281 279
3 280 282 281
3 279 283 278
3 279 281 283
3 284 282 280
3 284 280 285
3 277 285 280
3 285 286 284
3 285 287 286
3 277 286 287
3 277 287 285
3 277 288 286
3 288 278 283
3 288 277 278
3 289 291 290
3 289 292 291
3 292 293 291
3 292 294 293
3 291 295 290
3 291 293 295
3 296 294 292
3 296 292 297
3 289 297 292
3 297 298 296
3 297 299 298
3 289 298 299
3 289 299 297
3 289 300 298
3 300 290 295
3 300 289 290
3 301 303 302
3 301 304 303
3 304 305 303
3 304 306 305
3 303 307 302
3 303 305 307
3 308 306 304
3 308 304 309
3 301 309 304
3 309 310 308
3 309 311 310
3 301 310 311
3 301 311 309
3 301 312 310
3 312 302 307
3 312 301 302
3 313 315 314
3 315 313 316
3 316 313 317
3 316 317 318
3 318 317 319
3 318 319 320
3 321 323 322
3 321 324 323
3 325 324 321
3 323 324 325
3 325 321 326
3 327 325 326
3 323 325 327
3 328 323 327
3 328 327 329
3 327 326 330
3 329 331 328
3 329 332 331
3 333 330 334
3 322 336 335
3 333 337 329
3 338 340 339
3 338 341 340
3 342 340 341
3 342 341 343
3 344 340 342
3 339 340 345
3 339 345 346
3 347 340 344
3 347 345 340
3 336 328 348
3 336 323 328
3 323 336 322
3 328 349 348
3 328 331 349
3 350 349 331
3 350 331 332
3 337 350 332
3 337 332 329
3 351 353 352
3 354 353 351
3 355 354 351
3 355 351 356
3 352 353 357
3 352 357 358
3 358 357 359
3 359 360 358
3 359 361 360
3 356 361 362
3 356 362 363
3 355 356 363
3 364 361 359
3 364 365 361
3 365 362 361
3 330 329 327
3 329 330 333
3 338 367 366
3 338 339 367
3 367 343 366
3 367 342 343
3 367 339 368
3 368 342 367
3 368 344 342
3 368 339 346
3 368 346 369
3 369 344 368
3 369 347 344
3 352 356 351
3 352 370 356
3 370 361 356
3 370 360 361
3 357 364 359
3 371 373 372
3 371 374 373
3 374 375 373
3 374 376 375
3 376 377 375
3 376 378 377
3 378 372 377
3 378 371 372
3 379 381 380
3 379 382 381
3 381 383 380
3 381 384 383
3 385 387 386
3 385 388 387
3 389 385 386
3 389 386 390
3 386 391 390
3 386 392 391
3 386 393 392
3 391 392 394
3 391 394 395
3 396 398 397
3 396 399 398
3 398 400 397
3 400 401 397
3 400 402 401
3 403 390 404
3 403 389 390
3 391 404 390
3 391 395 404
3 387 393 386
3 387 405 393
3 406 408 407
3 406 409 408
3 410 409 406
3 410 411 409
3 412 406 407
3 412 407 413
3 413 407 414
3 413 414 415
3 415 414 410
3 415 410 416
3 416 406 412
3 416 410 406
3 407 417 414
3 407 408 417
3 414 417 411
3 414 411 410
3 418 420 419
3 418 421 420
3 422 424 423
3 422 425 424
3 426 428 427
3 426 429 428
3 430 429 426
3 430 431 429
3 429 431 428
3 427 432 426
3 427 433 432
3 430 434 431
3 430 435 434
3 436 434 435
3 436 431 434
3 436 435 437
3 436 438 431
3 426 439 430
3 426 440 439
3 431 441 428
3 431 438 441
3 436 442 438
3 440 443 439
3 440 444 443
3 440 445 444
3 440 446 445
3 444 445 433
3 444 433 427
3 444 427 428
3 444 428 441
3 426 446 440
3 426 432 446
3 443 437 439
3 439 437 435
3 439 435 430
3 443 447 437
3 436 437 447
3 436 447 442
3 438 447 443
3 438 442 447
3 444 438 443
3 444 441 438
3 448 450 449
3 448 451 450
3 452 451 448
3 452 453 451
3 454 456 455
3 454 457 456
3 458 456 457
3 458 459 456
3 460 454 455
3 460 461 454
3 462 464 463
3 462 465 464
3 462 463 466
3 462 466 467
3 463 468 466
3 463 469 468
3 463 470 469
3 469 470 471
3 470 472 471
3 470 473 472
3 474 473 470
3 474 470 475
3 470 463 476
3 470 476 477
3 464 474 475
3 464 465 474
3 464 475 478
3 464 478 479
3 480 482 481
3 480 483 482
3 484 480 481
3 484 481 485
3 486 488 487
3 486 489 488
3 490 487 488
3 490 488 491
3 492 486 493
3 492 489 486
3 494 496 495
3 494 497 496
3 494 498 497
3 494 499 498
3 497 498 500
3 497 500 501
3 497 501 502
3 501 503 502
3 502 503 504
3 502 504 505
3 506 502 505
3 506 507 502
3 502 508 497
3 502 509 508
3 496 506 495
3 496 507 506
3 496 510 507
3 496 511 510
