ply
format ascii 1.0
element vertex 524
property float x
property float y
property float z
property uchar red
property uchar green
property uchar blue
element face 622
property list uchar int vertex_index
end_header
0.25499 -0.60623 0.17357 176 174 95
0.25499 -0.60623 1.33514E-07 176 174 95
0.21978 -0.57032 1.33514E-07 176 174 95
0.21978 -0.57032 0.17357 176 174 95
0.46584 -0.60584 1.33514E-07 176 174 95
0.46584 -0.60584 0.17357 176 174 95
0.50134 -0.57047 1.33514E-07 176 174 95
0.21978 0.15307 1.33514E-07 176 174 95
0.50109 0.15275 1.33514E-07 176 174 95
0.50134 -0.57047 0.17357 176 174 95
0.25097 0.18904 0 176 174 95
0.47244 0.18905 0 176 174 95
0.50179 -0.13081 0.17357 176 174 95
0.50124 -0.07837 0.17357 176 174 95
0.21994 -0.07805 0.17357 176 174 95
0.22058 -0.13052 0.17357 176 174 95
0.5016 0.1516 0.17357 176 174 95
0.47193 0.10734 0.70056 176 174 95
0.24983 0.10766 0.70056 176 174 95
0.24965 -0.01185 0.44966 176 174 95
0.47176 -0.01217 0.44966 176 174 95
0.24934 -0.227 0.48692 176 174 95
0.24951 -0.11445 0.70056 176 174 95
0.24934 -0.227 0.41576 176 174 95
0.24982 0.16173 0.29461 176 174 95
0.47193 0.16141 0.29461 176 174 95
0.24955 -0.08612 0.29461 176 174 95
0.2203 0.15281 0.17357 176 174 95
0.25146 0.18878 0.17354 176 174 95
0.47296 0.18789 0.17355 176 174 95
0.52846 -0.13083 0.17351 66 69 80
0.50179 -0.13081 0.17357 66 69 80
0.52846 -0.13088 0.29458 66 69 80
0.50124 -0.07837 0.17357 66 69 80
0.5016 0.1516 0.17357 66 69 80
0.52827 0.20227 0.17351 66 69 80
0.22058 -0.13052 0.17357 66 69 80
0.19262 -0.13041 0.29458 66 69 80
0.19262 -0.1304 0.17351 66 69 80
0.19242 0.2028 0.29458 66 69 80
0.19242 0.2027 0.17351 66 69 80
0.25146 0.18878 0.17354 66 69 80
0.47296 0.18789 0.17355 66 69 80
0.21994 -0.07805 0.17357 66 69 80
0.2203 0.15281 0.17357 66 69 80
0.47144 -0.22732 0.48692 176 174 95
0.47162 -0.11477 0.70056 176 174 95
0.47144 -0.22732 0.41576 176 174 95
0.47166 -0.08644 0.29461 176 174 95
0.52827 0.20222 0.29458 66 69 80
0.24955 -0.08612 0.29461 75 77 90
0.47166 -0.08644 0.29461 75 77 90
0.52846 -0.13088 0.29458 75 77 90
0.19262 -0.13041 0.29458 75 77 90
0.52827 0.20222 0.29458 75 77 90
0.47193 0.16141 0.29461 75 77 90
0.24982 0.16173 0.29461 75 77 90
0.19242 0.2028 0.29458 75 77 90
0.22058 -0.13052 0.17357 183 182 99
0.50179 -0.13081 0.17357 183 182 99
0.50134 -0.57047 0.17357 183 182 99
0.21978 -0.57032 0.17357 183 182 99
0.25499 -0.60623 0.17357 183 182 99
0.46584 -0.60584 0.17357 183 182 99
0.68916 -0.18685 1.43106 176 174 95
0.69108 0.0224 1.63937 176 174 95
1.03371 0.02024 1.63601 176 174 95
1.0318 -0.189 1.4277 176 174 95
0.68879 -0.00611 1.24954 176 174 95
1.23752 -0.00901 1.245 176 174 95
1.28329 -0.03845 1.27414 176 174 95
1.28485 -0.38294 1.62277 176 174 95
1.03304 -0.38202 1.6242 176 174 95
1.28676 -0.1737 1.83108 176 174 95
1.2852 0.1708 1.48244 176 174 95
0.69108 0.0224 1.63937 183 182 99
0.6907 0.20314 1.45784 183 182 99
1.23943 0.20023 1.45331 183 182 99
1.03371 0.02024 1.63601 183 182 99
1.2852 0.1708 1.48244 183 182 99
1.03495 -0.17278 1.83251 183 182 99
1.28676 -0.1737 1.83108 183 182 99
0.6907 0.20314 1.45784 176 174 95
1.23943 0.20023 1.45331 176 174 95
1.03495 -0.17278 1.83251 176 174 95
0.93939 -0.10425 1.90093 66 69 80
0.93966 -0.23652 2.03377 66 69 80
0.93648 -0.58211 1.68971 66 69 80
0.93621 -0.44985 1.55688 66 69 80
1.3836 -0.10587 1.89841 66 69 80
1.38387 -0.23814 2.03125 66 69 80
1.03495 -0.17278 1.83251 66 69 80
1.03304 -0.38202 1.6242 66 69 80
1.38042 -0.45147 1.55435 66 69 80
1.28485 -0.38294 1.62277 66 69 80
1.28676 -0.1737 1.83108 66 69 80
1.38069 -0.58373 1.68719 66 69 80
1.38387 -0.23814 2.03125 75 77 90
1.38069 -0.58373 1.68719 75 77 90
0.93648 -0.58211 1.68971 75 77 90
0.93966 -0.23652 2.03377 75 77 90
0.93108 -0.79016 2.05132 183 182 99
0.93285 -0.59632 2.24428 183 182 99
1.38644 -0.59797 2.2417 183 182 99
1.38467 -0.79181 2.04874 183 182 99
0.8919 -0.53244 2.23799 176 174 95
0.89137 -0.27734 1.98179 176 174 95
1.42726 -0.2793 1.97874 176 174 95
1.42779 -0.53439 2.23494 176 174 95
0.89043 -0.56047 1.99147 176 174 95
0.89013 -0.4147 1.84506 176 174 95
0.93285 -0.59632 2.24428 176 174 95
1.38644 -0.59797 2.2417 176 174 95
0.84447 -0.41453 1.84532 176 174 95
0.84477 -0.5603 1.99173 176 174 95
0.84266 -0.60939 1.65131 176 174 95
0.84296 -0.75517 1.79772 176 174 95
1.0909 -0.5294 1.73044 176 174 95
0.88937 -0.67444 1.878 176 174 95
0.88959 -0.78376 1.9878 176 174 95
1.42496 -0.53062 1.72854 176 174 95
1.09014 -0.61029 1.6499 176 174 95
1.42548 -0.78571 1.98475 176 174 95
1.0912 -0.67517 1.87685 176 174 95
1.38467 -0.79181 2.04874 176 174 95
0.93108 -0.79016 2.05132 176 174 95
1.09044 -0.75607 1.79631 176 174 95
0.88937 -0.67444 1.878 183 182 99
0.84296 -0.75517 1.79772 183 182 99
0.84477 -0.5603 1.99173 183 182 99
0.89043 -0.56047 1.99147 183 182 99
1.0912 -0.67517 1.87685 183 182 99
1.09044 -0.75607 1.79631 183 182 99
0.38389 -0.71353 1.73402 242 242 242
0.38389 -0.71353 1.48238 242 242 242
0.09287 -0.71353 1.48238 242 242 242
-0.06245 -0.74257 1.60163 248 220 176
0 -0.74257 1.97294 248 220 176
0.06245 -0.74257 1.65648 248 220 176
0.64185 -0.74257 1.97294 248 220 176
0.09328 -0.74257 1.65648 248 220 176
0.38389 -0.74257 1.73402 248 220 176
0.64185 -0.74257 0.74598 248 220 176
0.38389 -0.74257 1.48238 248 220 176
0.38389 -0.71353 1.73402 248 220 176
0.09287 -0.71353 1.48238 248 220 176
0.09287 -0.74257 1.48238 248 220 176
0.38389 -0.71353 1.48238 248 220 176
0 -0.74257 0.74598 248 220 176
0.06247 -0.74257 1.48238 248 220 176
-0.06247 -0.74257 1.48238 248 220 176
-0.64185 -0.74257 1.97294 248 220 176
-0.09328 -0.74257 1.60163 248 220 176
-0.38389 -0.74257 1.73402 248 220 176
-0.64185 -0.74257 0.74598 248 220 176
-0.38389 -0.74257 1.48238 248 220 176
-0.38389 -0.71353 1.73402 248 220 176
-0.09287 -0.71353 1.48238 248 220 176
-0.09287 -0.74257 1.48238 248 220 176
-0.38389 -0.71353 1.48238 248 220 176
-0.74257 -0.65933 0.74598 248 220 176
-0.74257 -0.65933 1.97294 248 220 176
-0.74257 0.65933 0.74598 248 220 176
-0.74257 0.65933 1.97294 248 220 176
-0.59998 -0.69413 2.03472 248 220 176
-0.69413 -0.61631 2.03472 248 220 176
-0.69413 0.61631 2.03472 248 220 176
-0.64185 0.74257 1.97294 248 220 176
-0.64185 0.74257 0.74598 248 220 176
0.64185 0.74257 1.97294 248 220 176
0.64185 0.74257 0.74598 248 220 176
0.74257 0.65933 1.97294 248 220 176
0.74257 0.65933 0.74598 248 220 176
-0.59998 0.69413 2.03472 248 220 176
0.59998 0.69413 2.03472 248 220 176
0.69413 0.61631 2.03472 248 220 176
-0.59922 0.69325 0.67854 248 220 176
-0.69325 0.61554 0.67854 248 220 176
0.59922 0.69325 0.67854 248 220 176
0.69325 0.61554 0.67854 248 220 176
0.69325 -0.61554 0.67854 248 220 176
0.74257 -0.65933 0.74598 248 220 176
0.59922 -0.69325 0.67854 248 220 176
-0.69325 -0.61554 0.67854 248 220 176
-0.59922 -0.69325 0.67854 248 220 176
0.74257 -0.65933 1.97294 248 220 176
0.69413 -0.61631 2.03472 248 220 176
0.59998 -0.69413 2.03472 248 220 176
0.09328 -0.74257 1.65648 230 202 162
0.09287 -0.74257 1.48238 230 202 162
0.06247 -0.74257 1.48238 230 202 162
0.06245 -0.74257 1.65648 230 202 162
-0.38389 -0.71353 1.73402 242 242 242
-0.09287 -0.71353 1.48238 242 242 242
-0.38389 -0.71353 1.48238 242 242 242
-0.09328 -0.74257 1.60163 230 202 162
-0.06245 -0.74257 1.60163 230 202 162
-0.06247 -0.74257 1.48238 230 202 162
-0.09287 -0.74257 1.48238 230 202 162
0.18942 -0.72139 1.52161 51 48 43
0.18942 -0.72139 1.61707 51 48 43
0.2317 -0.72139 1.61707 51 48 43
0.2317 -0.72139 1.52161 51 48 43
0.18942 -0.70994 1.52161 51 48 43
0.2317 -0.70994 1.52161 51 48 43
0.2317 -0.70994 1.61707 51 48 43
0.18942 -0.70994 1.61707 51 48 43
-0.18942 -0.72139 1.52161 51 48 43
-0.2317 -0.72139 1.52161 51 48 43
-0.2317 -0.72139 1.61707 51 48 43
-0.18942 -0.72139 1.61707 51 48 43
-0.18942 -0.70994 1.52161 51 48 43
-0.2317 -0.70994 1.52161 51 48 43
-0.2317 -0.70994 1.61707 51 48 43
-0.18942 -0.70994 1.61707 51 48 43
0.15834 -0.86858 1.4756 230 150 126
-0.15834 -0.86858 1.4756 230 150 126
-0.18222 -0.84368 1.4756 230 150 126
0.18222 -0.84368 1.4756 230 150 126
-0.18222 -0.73088 1.4756 230 150 126
0.18222 -0.73088 1.4756 230 150 126
-0.18222 -0.73088 1.17635 222 146 124
-0.18222 -0.84368 1.17635 222 146 124
0.18222 -0.84368 1.17635 222 146 124
0.18222 -0.73088 1.17635 222 146 124
0.21946 -0.73088 1.22224 222 146 124
0.21946 -0.87573 1.22224 222 146 124
0.21946 -0.73088 1.42971 222 146 124
0.21946 -0.87573 1.42971 222 146 124
0.1907 -0.90703 1.42971 222 146 124
0.1907 -0.90703 1.22224 222 146 124
0.18222 -0.84368 1.4756 222 146 124
0.15834 -0.86858 1.4756 222 146 124
0.18222 -0.73088 1.4756 222 146 124
0.15834 -0.86858 1.17635 222 146 124
0 -0.90703 1.22224 222 146 124
-0.15834 -0.86858 1.17635 222 146 124
0.10261 -0.90703 1.27014 222 146 124
0.05002 -0.90703 1.27014 222 146 124
0.10261 -0.90703 1.38951 222 146 124
0.05002 -0.90703 1.38951 222 146 124
0 -0.90703 1.42971 222 146 124
-0.05002 -0.90703 1.38951 222 146 124
-0.05002 -0.90703 1.27014 222 146 124
-0.10261 -0.90703 1.27014 222 146 124
-0.1907 -0.90703 1.22224 222 146 124
-0.21946 -0.87573 1.22224 222 146 124
-0.1907 -0.90703 1.42971 222 146 124
-0.21946 -0.87573 1.42971 222 146 124
-0.21946 -0.73088 1.42971 222 146 124
-0.21946 -0.73088 1.22224 222 146 124
-0.18222 -0.84368 1.4756 222 146 124
-0.15834 -0.86858 1.4756 222 146 124
-0.18222 -0.73088 1.4756 222 146 124
-0.10261 -0.90703 1.38951 222 146 124
0.05002 -0.88289 1.38951 133 91 78
0.10261 -0.88289 1.38951 133 91 78
0.10261 -0.88289 1.27014 133 91 78
0.05002 -0.88289 1.27014 133 91 78
0.05002 -0.90703 1.38951 133 91 78
0.05002 -0.90703 1.27014 133 91 78
0.10261 -0.90703 1.27014 133 91 78
0.10261 -0.90703 1.38951 133 91 78
-0.05002 -0.88289 1.38951 133 91 78
-0.05002 -0.88289 1.27014 133 91 78
-0.10261 -0.88289 1.27014 133 91 78
-0.10261 -0.88289 1.38951 133 91 78
-0.05002 -0.90703 1.38951 133 91 78
-0.05002 -0.90703 1.27014 133 91 78
-0.10261 -0.90703 1.27014 133 91 78
-0.10261 -0.90703 1.38951 133 91 78
0.53325 -0.7554 1.8858 230 202 162
0.59962 -0.7554 1.88581 230 202 162
0.59962 -0.7554 1.85589 230 202 162
0.50289 -0.7554 1.85589 230 202 162
0.59962 -0.73661 1.85589 230 202 162
0.50289 -0.73661 1.85589 230 202 162
0.59962 -0.73661 1.88581 230 202 162
0.50289 -0.73661 1.94632 230 202 162
0.50289 -0.7554 1.94632 230 202 162
0.53325 -0.73661 1.94632 230 202 162
0.53325 -0.7554 1.94632 230 202 162
0.53325 -0.73661 1.88581 230 202 162
0.5336 -0.7554 1.79641 230 202 162
0.5336 -0.7554 1.73608 230 202 162
0.50289 -0.7554 1.73608 230 202 162
0.50289 -0.7554 1.82927 230 202 162
0.50289 -0.73661 1.73608 230 202 162
0.50289 -0.73661 1.82927 230 202 162
0.5336 -0.73661 1.73608 230 202 162
0.59962 -0.73661 1.82927 230 202 162
0.59962 -0.7554 1.82927 230 202 162
0.59962 -0.73661 1.79641 230 202 162
0.59962 -0.7554 1.79641 230 202 162
0.5336 -0.73661 1.79641 230 202 162
0.44385 -0.7554 1.79659 230 202 162
0.37747 -0.7554 1.79659 230 202 162
0.37747 -0.7554 1.8294 230 202 162
0.47421 -0.7554 1.8294 230 202 162
0.37747 -0.73661 1.8294 230 202 162
0.47421 -0.73661 1.8294 230 202 162
0.37747 -0.73661 1.79659 230 202 162
0.47421 -0.73661 1.73608 230 202 162
0.47421 -0.7554 1.73608 230 202 162
0.44385 -0.73661 1.73608 230 202 162
0.44385 -0.7554 1.73608 230 202 162
0.44385 -0.73661 1.79659 230 202 162
0.4435 -0.7554 1.88598 230 202 162
0.4435 -0.7554 1.94632 230 202 162
0.47421 -0.7554 1.94632 230 202 162
0.47421 -0.7554 1.85601 230 202 162
0.47421 -0.73661 1.94632 230 202 162
0.47421 -0.73661 1.85601 230 202 162
0.4435 -0.73661 1.94632 230 202 162
0.37747 -0.73661 1.85601 230 202 162
0.37747 -0.7554 1.85601 230 202 162
0.37747 -0.73661 1.88598 230 202 162
0.37747 -0.7554 1.88598 230 202 162
0.4435 -0.73661 1.88598 230 202 162
0.69413 0.61631 2.03472 252 224 178
0.69413 -0.61631 2.03472 252 224 178
-0.69413 -0.61631 2.03472 252 224 178
-0.69413 0.61631 2.03472 252 224 178
-0.59998 -0.69413 2.03472 252 224 178
0.59998 -0.69413 2.03472 252 224 178
0.59998 0.69413 2.03472 252 224 178
-0.59998 0.69413 2.03472 252 224 178
-0.25499 -0.60623 0.17357 176 174 95
-0.21978 -0.57032 0.17357 176 174 95
-0.21978 -0.57032 1.33514E-07 176 174 95
-0.25499 -0.60623 1.33514E-07 176 174 95
-0.46584 -0.60584 1.33514E-07 176 174 95
-0.46584 -0.60584 0.17357 176 174 95
-0.50134 -0.57047 1.33514E-07 176 174 95
-0.21978 0.15307 1.33514E-07 176 174 95
-0.50109 0.15275 1.33514E-07 176 174 95
-0.50134 -0.57047 0.17357 176 174 95
-0.25097 0.18904 0 176 174 95
-0.47244 0.18905 0 176 174 95
-0.50124 -0.07837 0.17357 176 174 95
-0.50179 -0.13081 0.17357 176 174 95
-0.22058 -0.13052 0.17357 176 174 95
-0.21994 -0.07805 0.17357 176 174 95
-0.5016 0.1516 0.17357 176 174 95
-0.47193 0.10734 0.70056 176 174 95
-0.47176 -0.01217 0.44966 176 174 95
-0.24965 -0.01185 0.44966 176 174 95
-0.24983 0.10766 0.70056 176 174 95
-0.24934 -0.227 0.48692 176 174 95
-0.24951 -0.11445 0.70056 176 174 95
-0.24934 -0.227 0.41576 176 174 95
-0.24982 0.16173 0.29461 176 174 95
-0.47193 0.16141 0.29461 176 174 95
-0.24955 -0.08612 0.29461 176 174 95
-0.2203 0.15281 0.17357 176 174 95
-0.25146 0.18878 0.17354 176 174 95
-0.47296 0.18789 0.17355 176 174 95
-0.52846 -0.13083 0.17351 66 69 80
-0.52846 -0.13088 0.29458 66 69 80
-0.50179 -0.13081 0.17357 66 69 80
-0.50124 -0.07837 0.17357 66 69 80
-0.5016 0.1516 0.17357 66 69 80
-0.52827 0.20227 0.17351 66 69 80
-0.22058 -0.13052 0.17357 66 69 80
-0.19262 -0.13041 0.29458 66 69 80
-0.19262 -0.1304 0.17351 66 69 80
-0.19242 0.2028 0.29458 66 69 80
-0.19242 0.2027 0.17351 66 69 80
-0.25146 0.18878 0.17354 66 69 80
-0.47296 0.18789 0.17355 66 69 80
-0.21994 -0.07805 0.17357 66 69 80
-0.2203 0.15281 0.17357 66 69 80
-0.47162 -0.11477 0.70056 176 174 95
-0.47144 -0.22732 0.48692 176 174 95
-0.47144 -0.22732 0.41576 176 174 95
-0.47166 -0.08644 0.29461 176 174 95
-0.52827 0.20222 0.29458 66 69 80
-0.24955 -0.08612 0.29461 75 77 90
-0.19262 -0.13041 0.29458 75 77 90
-0.52846 -0.13088 0.29458 75 77 90
-0.47166 -0.08644 0.29461 75 77 90
-0.52827 0.20222 0.29458 75 77 90
-0.47193 0.16141 0.29461 75 77 90
-0.19242 0.2028 0.29458 75 77 90
-0.24982 0.16173 0.29461 75 77 90
-0.22058 -0.13052 0.17357 183 182 99
-0.21978 -0.57032 0.17357 183 182 99
-0.50134 -0.57047 0.17357 183 182 99
-0.50179 -0.13081 0.17357 183 182 99
-0.25499 -0.60623 0.17357 183 182 99
-0.46584 -0.60584 0.17357 183 182 99
-0.68916 -0.18685 1.43106 176 174 95
-1.0318 -0.189 1.4277 176 174 95
-1.03371 0.02024 1.63601 176 174 95
-0.69108 0.0224 1.63937 176 174 95
-0.68879 -0.00611 1.24954 176 174 95
-1.23752 -0.00901 1.245 176 174 95
-1.28329 -0.03845 1.27414 176 174 95
-1.28485 -0.38294 1.62277 176 174 95
-1.03304 -0.38202 1.6242 176 174 95
-1.28676 -0.1737 1.83108 176 174 95
-1.2852 0.1708 1.48244 176 174 95
-0.69108 0.0224 1.63937 183 182 99
-1.03371 0.02024 1.63601 183 182 99
-1.23943 0.20023 1.45331 183 182 99
-0.6907 0.20314 1.45784 183 182 99
-1.2852 0.1708 1.48244 183 182 99
-1.03495 -0.17278 1.83251 183 182 99
-1.28676 -0.1737 1.83108 183 182 99
-0.6907 0.20314 1.45784 176 174 95
-1.23943 0.20023 1.45331 176 174 95
-1.03495 -0.17278 1.83251 176 174 95
-0.93939 -0.10425 1.90093 66 69 80
-0.93621 -0.44985 1.55688 66 69 80
-0.93648 -0.58211 1.68971 66 69 80
-0.93966 -0.23652 2.03377 66 69 80
-1.3836 -0.10587 1.89841 66 69 80
-1.38387 -0.23814 2.03125 66 69 80
-1.03495 -0.17278 1.83251 66 69 80
-1.03304 -0.38202 1.6242 66 69 80
-1.38042 -0.45147 1.55435 66 69 80
-1.28485 -0.38294 1.62277 66 69 80
-1.28676 -0.1737 1.83108 66 69 80
-1.38069 -0.58373 1.68719 66 69 80
-1.38387 -0.23814 2.03125 75 77 90
-0.93966 -0.23652 2.03377 75 77 90
-0.93648 -0.58211 1.68971 75 77 90
-1.38069 -0.58373 1.68719 75 77 90
-0.93108 -0.79016 2.05132 183 182 99
-1.38467 -0.79181 2.04874 183 182 99
-1.38644 -0.59797 2.2417 183 182 99
-0.93285 -0.59632 2.24428 183 182 99
-0.8919 -0.53244 2.23799 176 174 95
-1.42779 -0.53439 2.23494 176 174 95
-1.42726 -0.2793 1.97874 176 174 95
-0.89137 -0.27734 1.98179 176 174 95
-0.89043 -0.56047 1.99147 176 174 95
-0.89013 -0.4147 1.84506 176 174 95
-0.93285 -0.59632 2.24428 176 174 95
-1.38644 -0.59797 2.2417 176 174 95
-0.84447 -0.41453 1.84532 176 174 95
-0.84477 -0.5603 1.99173 176 174 95
-0.84266 -0.60939 1.65131 176 174 95
-0.84296 -0.75517 1.79772 176 174 95
-1.0909 -0.5294 1.73044 176 174 95
-0.88937 -0.67444 1.878 176 174 95
-0.88959 -0.78376 1.9878 176 174 95
-1.42496 -0.53062 1.72854 176 174 95
-1.09014 -0.61029 1.6499 176 174 95
-1.0912 -0.67517 1.87685 176 174 95
-1.42548 -0.78571 1.98475 176 174 95
-1.38467 -0.79181 2.04874 176 174 95
-0.93108 -0.79016 2.05132 176 174 95
-1.09044 -0.75607 1.79631 176 174 95
-0.88937 -0.67444 1.878 183 182 99
-0.89043 -0.56047 1.99147 183 182 99
-0.84477 -0.5603 1.99173 183 182 99
-0.84296 -0.75517 1.79772 183 182 99
-1.0912 -0.67517 1.87685 183 182 99
-1.09044 -0.75607 1.79631 183 182 99
0.2715 -0.32801 2.25948 222 146 124
0.2866 -0.32801 2.28352 222 146 124
0.4419 -0.32801 2.28352 222 146 124
0.45609 -0.32801 2.25948 222 146 124
0.27156 -0.32801 2.03148 222 146 124
0.45562 -0.32801 2.03148 222 146 124
0.22734 -0.32801 2.40754 252 224 178
0.22734 -0.06156 2.40754 252 224 178
0.50559 -0.06156 2.40754 252 224 178
0.50559 -0.32801 2.40754 252 224 178
0.53371 -0.32801 2.37893 252 224 178
0.53371 -0.06156 2.37893 252 224 178
0.19922 -0.06156 2.37893 252 224 178
0.19922 -0.32801 2.37893 252 224 178
0.58253 -0.32801 2.03148 248 220 176
0.53371 -0.32801 2.37893 248 220 176
0.53371 -0.06156 2.37893 248 220 176
0.58253 -0.06156 2.03148 248 220 176
0.45609 -0.32801 2.25948 248 220 176
0.45562 -0.32801 2.03148 248 220 176
0.4419 -0.32801 2.28352 248 220 176
0.2866 -0.32801 2.28352 248 220 176
0.19922 -0.32801 2.37893 248 220 176
0.2715 -0.32801 2.25948 248 220 176
0.27156 -0.32801 2.03148 248 220 176
0.14477 -0.32801 2.03148 248 220 176
0.14477 -0.06156 2.03148 248 220 176
0.19922 -0.06156 2.37893 248 220 176
0.50559 -0.32801 2.40754 248 220 176
0.22734 -0.32801 2.40754 248 220 176
0.22734 -0.06156 2.40754 248 220 176
0.50559 -0.06156 2.40754 248 220 176
-0.2715 -0.32801 2.25948 222 146 124
-0.45609 -0.32801 2.25948 222 146 124
-0.4419 -0.32801 2.28352 222 146 124
-0.2866 -0.32801 2.28352 222 146 124
-0.27156 -0.32801 2.03148 222 146 124
-0.45562 -0.32801 2.03148 222 146 124
-0.22734 -0.32801 2.40754 252 224 178
-0.50559 -0.32801 2.40754 252 224 178
-0.50559 -0.06156 2.40754 252 224 178
-0.22734 -0.06156 2.40754 252 224 178
-0.53371 -0.32801 2.37893 252 224 178
-0.53371 -0.06156 2.37893 252 224 178
-0.19922 -0.06156 2.37893 252 224 178
-0.19922 -0.32801 2.37893 252 224 178
-0.58253 -0.32801 2.03148 248 220 176
-0.58253 -0.06156 2.03148 248 220 176
-0.53371 -0.06156 2.37893 248 220 176
-0.53371 -0.32801 2.37893 248 220 176
-0.45609 -0.32801 2.25948 248 220 176
-0.45562 -0.32801 2.03148 248 220 176
-0.4419 -0.32801 2.28352 248 220 176
-0.2866 -0.32801 2.28352 248 220 176
-0.19922 -0.32801 2.37893 248 220 176
-0.2715 -0.32801 2.25948 248 220 176
-0.27156 -0.32801 2.03148 248 220 176
-0.14477 -0.32801 2.03148 248 220 176
-0.14477 -0.06156 2.03148 248 220 176
-0.19922 -0.06156 2.37893 248 220 176
-0.50559 -0.32801 2.40754 248 220 176
-0.22734 -0.32801 2.40754 248 220 176
-0.22734 -0.06156 2.40754 248 220 176
-0.50559 -0.06156 2.40754 248 220 176
3 0 2 1
3 0 3 2
3 4 0 1
3 2 4 1
3 4 5 0
3 6 5 4
3 2 6 4
3 7 6 2
3 7 8 6
3 6 9 5
3 8 7 10
3 8 10 11
3 9 13 12
3 14 3 15
3 13 8 16
3 17 19 18
3 17 20 19
3 21 18 19
3 21 22 18
3 23 21 19
3 20 24 19
3 20 25 24
3 26 19 24
3 26 23 19
3 14 27 7
3 7 3 14
3 3 7 2
3 7 27 28
3 7 28 10
3 29 10 28
3 29 11 10
3 16 11 29
3 16 8 11
3 30 32 31
3 33 30 31
3 34 30 33
3 34 35 30
3 32 36 31
3 32 37 36
3 37 38 36
3 38 37 39
3 38 39 40
3 35 41 40
3 35 42 41
3 34 42 35
3 43 38 40
3 43 40 44
3 44 40 41
3 13 6 8
3 6 13 9
3 17 45 20
3 17 46 45
3 45 46 22
3 45 22 21
3 45 47 20
3 47 45 21
3 47 21 23
3 47 25 20
3 47 48 25
3 48 47 23
3 48 23 26
3 32 35 49
3 32 30 35
3 49 35 40
3 49 40 39
3 36 38 43
3 50 52 51
3 50 53 52
3 51 52 54
3 51 54 55
3 55 57 56
3 55 54 57
3 56 57 53
3 56 53 50
3 58 60 59
3 58 61 60
3 60 61 62
3 60 62 63
3 64 66 65
3 64 67 66
3 68 67 64
3 68 69 67
3 67 69 70
3 67 70 71
3 67 71 72
3 70 73 71
3 70 74 73
3 75 77 76
3 75 78 77
3 77 78 79
3 79 78 80
3 79 80 81
3 82 69 68
3 82 83 69
3 70 69 83
3 70 83 74
3 66 72 84
3 66 67 72
3 85 87 86
3 85 88 87
3 89 85 86
3 89 86 90
3 91 88 85
3 91 92 88
3 92 93 88
3 92 94 93
3 94 89 93
3 94 95 89
3 95 85 89
3 95 91 85
3 88 96 87
3 88 93 96
3 93 90 96
3 93 89 90
3 97 99 98
3 97 100 99
3 101 103 102
3 101 104 103
3 105 107 106
3 105 108 107
3 109 105 106
3 109 106 110
3 106 107 110
3 108 105 111
3 108 111 112
3 109 110 113
3 109 113 114
3 115 114 113
3 115 113 110
3 115 116 114
3 115 110 117
3 105 109 118
3 105 118 119
3 110 120 117
3 110 107 120
3 115 117 121
3 119 123 122
3 119 118 123
3 119 122 124
3 119 124 125
3 122 112 124
3 122 108 112
3 122 107 108
3 122 120 107
3 105 119 125
3 105 125 111
3 122 117 120
3 122 123 117
3 117 123 126
3 117 126 121
3 115 121 126
3 115 126 116
3 127 129 128
3 127 130 129
3 131 127 128
3 131 128 132
3 133 135 134
3 136 138 137
3 139 137 138
3 139 138 140
3 139 140 141
3 142 139 141
3 142 141 143
3 143 141 144
3 141 145 144
3 141 146 145
3 141 140 146
3 146 147 145
3 146 143 147
3 143 144 147
3 148 143 146
3 148 142 143
3 148 146 149
3 149 138 136
3 148 149 150
3 149 136 150
3 151 136 137
3 151 152 136
3 151 153 152
3 154 153 151
3 154 155 153
3 148 155 154
3 155 156 153
3 153 156 157
3 153 157 158
3 153 158 152
3 148 158 155
3 148 150 158
3 158 159 155
3 158 157 159
3 155 159 156
3 160 154 151
3 160 151 161
3 162 160 161
3 162 161 163
3 161 151 164
3 161 164 165
3 163 161 165
3 163 165 166
3 167 163 166
3 163 167 168
3 163 168 162
3 168 167 169
3 168 169 170
3 170 169 171
3 170 171 172
3 169 167 173
3 167 166 173
3 169 173 174
3 171 169 174
3 171 174 175
3 162 168 176
3 162 176 177
3 168 178 176
3 168 170 178
3 170 179 178
3 170 172 179
3 179 176 178
3 179 177 176
3 172 180 179
3 180 177 179
3 172 181 180
3 181 182 180
3 182 183 180
3 180 183 177
3 182 184 183
3 154 183 184
3 184 148 154
3 182 148 184
3 154 160 183
3 160 177 183
3 160 162 177
3 181 142 182
3 142 148 182
3 139 142 181
3 139 181 185
3 181 171 185
3 181 172 171
3 139 185 186
3 139 186 187
3 187 137 139
3 185 175 186
3 185 171 175
3 164 137 187
3 151 137 164
3 188 190 189
3 188 191 190
3 192 194 193
3 195 197 196
3 195 198 197
3 199 201 200
3 199 202 201
3 203 202 199
3 203 199 200
3 203 204 202
3 202 205 201
3 202 204 205
3 203 200 206
3 207 209 208
3 207 210 209
3 211 207 208
3 211 210 207
3 211 208 212
3 208 213 212
3 208 209 213
3 211 214 210
3 215 217 216
3 215 218 217
3 218 219 217
3 218 220 219
3 221 223 222
3 221 224 223
3 225 223 224
3 225 226 223
3 226 225 227
3 226 227 228
3 229 226 228
3 229 230 226
3 229 228 231
3 229 231 232
3 228 233 231
3 228 227 233
3 226 234 223
3 226 230 234
3 234 230 235
3 223 236 222
3 223 234 236
3 234 235 236
3 235 230 237
3 235 237 238
3 230 239 237
3 230 229 239
3 229 240 239
3 229 241 240
3 241 238 240
3 238 241 235
3 232 241 229
3 235 241 242
3 235 242 243
3 235 243 244
3 235 244 245
3 236 235 245
3 246 236 245
3 247 246 245
3 247 242 241
3 247 248 246
3 246 248 249
3 246 249 250
3 247 251 248
3 247 252 251
3 241 252 247
3 248 253 249
3 248 251 253
3 250 222 246
3 250 221 222
3 246 222 236
3 245 254 247
3 245 244 254
3 247 254 242
3 232 252 241
3 255 257 256
3 255 258 257
3 259 258 255
3 259 260 258
3 260 257 258
3 260 261 257
3 261 256 257
3 261 262 256
3 262 255 256
3 262 259 255
3 263 265 264
3 263 266 265
3 267 263 264
3 267 264 268
3 268 264 265
3 268 265 269
3 269 265 266
3 269 266 270
3 270 263 267
3 270 266 263
3 271 273 272
3 271 274 273
3 274 275 273
3 274 276 275
3 273 277 272
3 273 275 277
3 278 276 274
3 278 274 279
3 271 279 274
3 279 280 278
3 279 281 280
3 271 280 281
3 271 281 279
3 271 282 280
3 282 272 277
3 282 271 272
3 283 285 284
3 283 286 285
3 286 287 285
3 286 288 287
3 285 289 284
3 285 287 289
3 290 288 286
3 290 286 291
3 283 291 286
3 291 292 290
3 291 293 292
3 283 292 293
3 283 293 291
3 283 294 292
3 294 284 289
3 294 283 284
3 295 297 296
3 295 298 297
3 298 299 297
3 298 300 299
3 297 301 296
3 297 299 301
3 302 300 298
3 302 298 303
3 295 303 298
3 303 304 302
3 303 305 304
3 295 304 305
3 295 305 303
3 295 306 304
3 306 296 301
3 306 295 296
3 307 309 308
3 307 310 309
3 310 311 309
3 310 312 311
3 309 313 308
3 309 311 313
3 314 312 310
3 314 310 315
3 307 315 310
3 315 316 314
3 315 317 316
3 307 316 317
3 307 317 315
3 307 318 316
3 318 308 313
3 318 307 308
3 319 321 320
3 319 322 321
3 320 321 323
3 320 323 324
3 325 322 319
3 325 326 322
3 327 329 328
3 327 330 329
3 331 330 327
3 329 330 331
3 331 327 332
3 333 331 332
3 329 331 333
3 334 329 333
3 334 333 335
3 333 332 336
3 335 337 334
3 335 338 337
3 339 336 340
3 328 342 341
3 339 343 335
3 344 346 345
3 344 347 346
3 348 346 347
3 348 347 349
3 350 346 348
3 345 346 351
3 345 351 352
3 353 346 350
3 353 351 346
3 342 334 354
3 342 329 334
3 329 342 328
3 334 355 354
3 334 337 355
3 356 355 337
3 356 337 338
3 343 356 338
3 343 338 335
3 357 359 358
3 360 359 357
3 361 360 357
3 361 357 362
3 358 359 363
3 358 363 364
3 364 363 365
3 365 366 364
3 365 367 366
3 362 367 368
3 362 368 369
3 361 362 369
3 370 367 365
3 370 371 367
3 371 368 367
3 336 335 333
3 335 336 339
3 344 373 372
3 344 345 373
3 373 349 372
3 373 348 349
3 373 345 374
3 374 348 373
3 374 350 348
3 374 345 352
3 374 352 375
3 375 350 374
3 375 353 350
3 358 362 357
3 358 376 362
3 376 367 362
3 376 366 367
3 363 370 365
3 377 379 378
3 377 380 379
3 380 381 379
3 380 382 381
3 382 383 381
3 382 384 383
3 384 378 383
3 384 377 378
3 385 387 386
3 385 388 387
3 387 389 386
3 387 390 389
3 391 393 392
3 391 394 393
3 395 391 392
3 395 392 396
3 392 397 396
3 392 398 397
3 392 399 398
3 397 398 400
3 397 400 401
3 402 404 403
3 402 405 404
3 404 406 403
3 406 407 403
3 406 408 407
3 409 396 410
3 409 395 396
3 397 410 396
3 397 401 410
3 393 399 392
3 393 411 399
3 412 414 413
3 412 415 414
3 416 415 412
3 416 417 415
3 418 412 413
3 418 413 419
3 419 413 420
3 419 420 421
3 421 420 416
3 421 416 422
3 422 412 418
3 422 416 412
3 413 423 420
3 413 414 423
3 420 423 417
3 420 417 416
3 424 426 425
3 424 427 426
3 428 430 429
3 428 431 430
3 432 434 433
3 432 435 434
3 436 435 432
3 436 437 435
3 435 437 434
3 433 438 432
3 433 439 438
3 436 440 437
3 436 441 440
3 442 440 441
3 442 437 440
3 442 441 443
3 442 444 437
3 432 445 436
3 432 446 445
3 437 447 434
3 437 444 447
3 442 448 444
3 446 449 445
3 446 450 449
3 446 451 450
3 446 452 451
3 450 451 439
3 450 439 433
3 450 433 434
3 450 434 447
3 432 452 446
3 432 438 452
3 450 444 449
3 450 447 444
3 444 453 449
3 444 448 453
3 442 453 448
3 442 443 453
3 454 456 455
3 454 457 456
3 458 457 454
3 458 459 457
3 460 462 461
3 460 463 462
3 464 463 460
3 464 465 463
3 466 468 467
3 466 469 468
3 470 468 469
3 470 471 468
3 472 466 467
3 472 473 466
3 474 476 475
3 474 477 476
3 474 475 478
3 474 478 479
3 475 480 478
3 475 481 480
3 475 482 481
3 481 482 483
3 482 484 483
3 482 485 484
3 486 485 482
3 486 482 487
3 482 475 488
3 482 488 489
3 476 486 487
3 476 477 486
3 476 487 490
3 476 490 491
3 492 494 493
3 492 495 494
3 496 492 493
3 496 493 497
3 498 500 499
3 498 501 500
3 502 499 500
3 502 500 503
3 504 498 505
3 504 501 498
3 506 508 507
3 506 509 508
3 506 510 509
3 506 511 510
3 509 510 512
3 509 512 513
3 509 513 514
3 513 515 514
3 514 515 516
3 514 516 517
3 518 514 517
3 518 519 514
3 514 520 509
3 514 521 520
3 508 518 507
3 508 519 518
3 508 522 519
3 508 523 522
