mtllib Budew.mtl
v -0.188626 0.135499 -0.0180681
vt 0.951492 0.940854
vn -0.9526219 -0.284328 -0.108024
v -0.123895 0.103264 -0.123182
vn -0.5704451 -0.4429321 -0.6916672
v -0.140816 0.063188 -0.000567114
vn -0.7803026 -0.6253627 0.007031266
v -0.143696 0.216286 -0.143158
vn -0.653229 0.018393 -0.756937
v -0.123895 0.0958129 0.122048
vn -0.6645961 -0.556951 0.498114
v -0.185697 0.242603 -0.0250686
vn -0.9645873 0.2218231 -0.142709
v -0.143696 0.167257 0.142024
vn -0.7729478 -0.08941968 0.6281368
v -0.17577 0.207528 0.073724
vn -0.9575701 0.04956041 0.283907
v -0.08616811 0.04383601 -0.0759997
vn -0.3525249 -0.8253139 -0.4411159
v 0 0.14313 -0.185966
vn 0 -0.248617 -0.9686019
v 0 0.04383601 -0.107245
vn 0 -0.8004408 -0.5994118
v -0.0917003 0.14029 0.159847
vn -0.372837 -0.434142 0.8200691
v -0.08616811 0.04383601 0.0748655
vn -0.3336971 -0.8470402 0.4137261
v 0 0.0958129 0.172837
vn 0 -0.6890622 0.7247022
v 0 0.04383601 0.106111
vn 0 -0.8904163 0.4551471
v -0.14226 0.28957 0.113725
vn -0.7358621 0.4227991 0.5289121
v -0.115464 0.300015 -0.134794
vn -0.5297928 0.5131508 -0.6752747
v -0.153605 0.314422 -0.000684363
vn -0.8372599 0.5454299 -0.03875729
v 0 0.025485 -0.000567114
vn 0 -0.9999986 -0.001704559
v 0 0.276162 -0.175997
vn 0 0.2891999 -0.9572687
v 0.123895 0.103264 -0.123182
vn 0.5704451 -0.4429321 -0.6916672
v 0.143696 0.216286 -0.143158
vn 0.653229 0.018393 -0.756937
v 0 0.136448 0.197621
vn 0 -0.5207118 0.8537326
v -0.105079 0.357123 0.0542203
vn -0.4613619 0.8578509 0.226356
v -0.0993934 0.357123 -0.0521933
vn -0.4304531 0.8681073 -0.2471841
v 0.08616811 0.04383601 0.0748655
vn 0.3336971 -0.8470402 0.4137261
v 0.08616811 0.04383601 -0.0759997
vn 0.3525251 -0.8253131 -0.441117
v 0.115464 0.300015 -0.134794
vn 0.5297928 0.5131508 -0.6752747
v 0.188626 0.135499 -0.0180681
vn 0.9526219 -0.284328 -0.108024
v 0.185697 0.242603 -0.0250686
vn 0.9645873 0.2218231 -0.142709
v 0.0917003 0.14029 0.159847
vn 0.372837 -0.434142 0.8200691
v 0.123895 0.0958129 0.122048
vn 0.6645961 -0.556951 0.498114
v 0 0.36115 -0.108683
vn 0 0.844063 -0.536244
v 0 0.382769 0
vn 0 0.9993965 -0.03473768
v 0 0.370632 0.0749817
vn 0 0.9645782 0.263797
v 0.140816 0.063188 -0.000567114
vn 0.7803026 -0.6253627 0.007031276
v 0.153605 0.314422 -0.000684363
vn 0.8372599 0.5454299 -0.0387575
v 0.17577 0.207528 0.073724
vn 0.9575701 0.04956031 0.283907
v 0.14226 0.28957 0.113725
vn 0.7358621 0.4227991 0.5289121
v 0.143696 0.167257 0.142024
vn 0.7729478 -0.08941977 0.6281368
v 0.105079 0.357123 0.0542203
vn 0.4613611 0.8578513 0.2263561
v 0.0993934 0.357123 -0.0521933
vn 0.4304531 0.8681073 -0.2471841
v 0 0.348319 0.131426
vt 0.500032 0.754866
vn 0 0.847402 0.530952
v 0 0.300445 0.180251
vt 0.500032 0.541123
vn 0 0.4444478 0.8958047
v 0.0663887 0.306288 0.155775
vt 0.753005 0.57428
vn 0.399016 0.536214 0.743815
v -0.0663887 0.306288 0.155775
vt 0.247059 0.57428
vn -0.399016 0.536214 0.743815
vt 0.91383 0.93043
vt 0.0862337 0.93043
vt 0.500032 0.944291
v -0.0762382 0.194989 0.187309
vt 0.257159 0.203086
vn -0.4322051 0.120306 0.8937142
v 0 0.24242 0.196666
vt 0.500032 0.352095
vn 0 0.181165 0.9834527
v 0.0762382 0.194989 0.187309
vt 0.742905 0.203086
vn 0.4322047 0.1203059 0.8937145
vt 1.06328 0.589914
vt -0.0632173 0.589914
v 0 0.155672 0.201087
vt 0.500032 0.0810511
vn 0 0.006341369 0.9999799
vt 0.00274479 0.116715
v -0.0653688 0.133008 0.184633
vt 0.286256 0.00948897
vn -0.3811631 -0.04226411 0.9235412
vt 0.997319 0.116715
v 0.0653688 0.133008 0.184633
vt 0.713807 0.00948897
vn 0.3811631 -0.04226441 0.9235412
vt 0.0480655 0.171813
vn 0 -0.122279 -0.9924958
vn 0.2966729 -0.6046267 -0.7391967
vn 0.479772 -0.18924 -0.8567421
v -0.0376035 0.0977604 0.196418
vn 0.122949 -0.08877423 -0.9884344
v 0.0376035 0.0977604 0.196418
vn -0.122949 -0.08877423 -0.9884344
vn -0.2966731 -0.6046261 -0.7391971
vn -0.479772 -0.18924 -0.8567421
v -0.105453 0.094272 0.162501
vn 0.4669108 -0.1893669 -0.8637908
v -0.16151 0.127537 0.129377
vn 0.4026171 -0.0172864 -0.9152052
vn 0.3781132 0.1225831 -0.9176076
v 0.105453 0.094272 0.162501
vn -0.4669108 -0.1893669 -0.8637908
v 0.16151 0.127537 0.129377
vn -0.4026167 -0.01728619 -0.9152054
vn -0.3781129 0.122584 -0.9176077
v -0.0775377 0 0
vt 0.694715 0.451105
vn -0.1734011 -0.9848494 0.001940321
vt 0.919078 0.451105
v 0.0775377 0 0
vn 0.1734011 -0.9848494 0.001940301
vn -0.1323731 0.006055463 0.9911815
vn 0.1323731 0.006055463 0.9911815
vn -0.4890319 -0.0115298 0.8721898
vn 0.4890319 -0.01153 0.8721898
vn -0.5240931 -0.03587371 0.8509052
vn 0.5240931 -0.03587381 0.8509051
o merged_0_0_node
g polygon_0
usemtl mat_kao1_mat_id
f 1/1/1 2/1/2 3/1/3
f 1/1/1 4/1/4 2/1/2
f 1/1/1 3/1/3 5/1/5
f 1/1/1 6/1/6 4/1/4
f 1/1/1 5/1/5 7/1/7
f 1/1/1 8/1/8 6/1/6
f 1/1/1 7/1/7 8/1/8
f 2/1/2 9/1/9 3/1/3
f 2/1/2 4/1/4 10/1/10
f 2/1/2 11/1/11 9/1/9
f 2/1/2 10/1/10 11/1/11
f 5/1/5 12/1/12 7/1/7
f 5/1/5 3/1/3 13/1/13
f 5/1/5 14/1/14 12/1/12
f 5/1/5 13/1/13 15/1/15
f 5/1/5 15/1/15 14/1/14
f 6/1/6 8/1/8 16/1/16
f 6/1/6 17/1/17 4/1/4
f 6/1/6 16/1/16 18/1/18
f 6/1/6 18/1/18 17/1/17
f 8/1/8 7/1/7 16/1/16
f 9/1/9 11/1/11 19/1/19
f 13/1/13 19/1/19 15/1/15
f 10/1/10 4/1/4 20/1/20
f 10/1/10 21/1/21 11/1/11
f 10/1/10 20/1/20 22/1/22
f 10/1/10 22/1/22 21/1/21
f 4/1/4 17/1/17 20/1/20
f 12/1/12 14/1/14 23/1/23
f 18/1/18 16/1/16 24/1/24
f 18/1/18 25/1/25 17/1/17
f 18/1/18 24/1/24 25/1/25
f 19/1/19 26/1/26 15/1/15
f 19/1/19 11/1/11 27/1/27
f 11/1/11 21/1/21 27/1/27
f 22/1/22 20/1/20 28/1/28
f 22/1/22 29/1/29 21/1/21
f 22/1/22 28/1/28 30/1/30
f 22/1/22 30/1/30 29/1/29
f 14/1/14 31/1/31 23/1/23
f 14/1/14 15/1/15 32/1/32
f 14/1/14 32/1/32 31/1/31
f 15/1/15 26/1/26 32/1/32
f 17/1/17 25/1/25 33/1/33
f 17/1/17 33/1/33 20/1/20
f 20/1/20 33/1/33 28/1/28
f 24/1/24 34/1/34 25/1/25
f 24/1/24 35/1/35 34/1/34
f 25/1/25 34/1/34 33/1/33
f 27/1/27 21/1/21 36/1/36
f 36/1/36 29/1/29 32/1/32
f 36/1/36 32/1/32 26/1/26
f 36/1/36 21/1/21 29/1/29
f 30/1/30 28/1/28 37/1/37
f 30/1/30 38/1/38 29/1/29
f 30/1/30 37/1/37 39/1/39
f 30/1/30 39/1/39 38/1/38
f 31/1/31 32/1/32 40/1/40
f 40/1/40 29/1/29 38/1/38
f 40/1/40 38/1/38 39/1/39
f 40/1/40 32/1/32 29/1/29
f 35/1/35 41/1/41 34/1/34
f 39/1/39 37/1/37 41/1/41
f 33/1/33 42/1/42 28/1/28
f 33/1/33 34/1/34 42/1/42
f 42/1/42 41/1/41 37/1/37
f 42/1/42 37/1/37 28/1/28
f 42/1/42 34/1/34 41/1/41
f 43/2/43 44/3/44 45/4/45
f 43/2/43 46/5/46 44/3/44
f 43/2/43 45/4/45 41/6/41
f 43/2/43 24/7/24 46/5/46
f 43/2/43 41/6/41 35/8/35
f 43/2/43 35/8/35 24/7/24
f 44/3/44 47/9/47 48/10/48
f 44/3/44 48/10/48 49/11/49
f 45/4/45 39/12/39 41/6/41
f 46/5/46 24/7/24 16/13/16
f 47/9/47 50/14/50 48/10/48
f 47/9/47 16/13/16 7/15/7
f 47/9/47 51/16/51 50/14/50
f 47/9/47 7/15/7 51/16/51
f 48/10/48 50/14/50 49/11/49
f 39/12/39 49/11/49 40/17/40
f 50/14/50 52/18/52 49/11/49
f 49/11/49 52/18/52 40/17/40
f 23/19/53 51/19/54 12/19/55
f 23/19/53 53/19/56 51/19/54
f 23/19/53 54/19/57 53/19/56
f 23/19/53 52/19/58 54/19/57
f 23/19/53 31/19/59 52/19/58
f 12/19/55 51/19/54 55/19/60
f 12/19/55 55/19/60 56/19/61
f 12/19/55 56/19/61 7/19/62
f 31/19/59 57/19/63 52/19/58
f 31/19/59 58/19/64 57/19/63
f 31/19/59 40/19/65 58/19/64
f 59/20/66 9/21/9 19/21/19
f 59/20/66 3/21/3 9/21/9
f 59/20/66 19/21/19 13/21/13
f 59/20/66 13/21/13 3/21/3
f 19/21/19 60/20/67 26/21/26
f 19/21/19 27/21/27 60/20/67
f 26/21/26 60/20/67 36/21/36
f 36/21/36 60/20/67 27/21/27
f 50/19/50 51/19/51 53/19/68
f 50/19/50 53/19/68 54/19/69
f 50/19/50 54/19/69 52/19/52
f 51/19/51 7/19/7 55/19/70
f 52/19/52 57/19/71 40/19/40
f 7/19/7 56/19/72 55/19/70
f 57/19/71 58/19/73 40/19/40
v 0.121913 0.434632 -0.0699171
vt 0.569296 0.344928
vn 0.7712256 -0.4577248 -0.4423788
v 0.00040648 0.434632 -0.140538
vt 0.855574 0.344928
vn 0.002501211 -0.4577251 -0.8890902
v 0.0702695 0.584443 -0.12171
vt 0.713155 0.6588
vn 0.4446079 0.4577249 -0.7699428
v -0.0702694 0.584443 -0.12171
vt 0.999741 0.6588
vn -0.444486 0.457725 -0.770013
vt 0.0002589 0.344928
v -0.121506 0.434632 -0.0706211
vt 0.28515 0.344928
vn -0.7687242 -0.4577251 -0.4467111
vt 0.143874 0.6588
v -0.140539 0.584443 0
vt 0.427557 0.6588
vn -0.8890939 0.4577249 -7.029829E-05
v -0.121913 0.434632 0.0699171
vn -0.7712253 -0.4577251 0.4423791
v -0.0702695 0.584443 0.12171
vn -0.4446079 0.4577249 0.7699428
v -0.000406442 0.434632 0.140538
vn -0.002501111 -0.4577251 0.8890902
v 0.0702694 0.584443 0.12171
vn 0.444486 0.457725 0.770013
v 0.121506 0.434632 0.0706211
vn 0.7687242 -0.4577251 0.4467111
v 0.140539 0.584443 0
vn 0.8890939 0.4577249 7.029189E-05
v 0 0.354011 0
vt 0.42756 0.0313547
vn 0 -1 0
v 0 0.665063 0
vt 0.569296 0.968645
vn 0 1 0
o merged_1_0_node
g polygon_0
usemtl mat_tubomi1_mat_id
f 61/22/74 62/23/75 63/24/76
f 63/24/76 62/23/75 64/25/77
f 62/26/75 65/27/78 64/28/77
f 64/28/77 65/27/78 66/29/79
f 65/27/78 67/22/80 66/29/79
f 66/29/79 67/22/80 68/24/81
f 67/22/80 69/23/82 68/24/81
f 68/24/81 69/23/82 70/25/83
f 69/26/82 71/27/84 70/28/83
f 70/28/83 71/27/84 72/29/85
f 71/27/84 61/22/74 72/29/85
f 72/29/85 61/22/74 63/24/76
f 62/23/75 61/22/74 73/30/86
f 65/27/78 62/26/75 73/30/86
f 67/22/80 65/27/78 73/30/86
f 69/23/82 67/22/80 73/30/86
f 71/27/84 69/26/82 73/30/86
f 61/22/74 71/27/84 73/30/86
f 63/24/76 64/25/77 74/31/87
f 64/28/77 66/29/79 74/31/87
f 66/29/79 68/24/81 74/31/87
f 68/24/81 70/25/83 74/31/87
f 70/28/83 72/29/85 74/31/87
f 72/29/85 63/24/76 74/31/87
vt 6.36578E-05 0.968831
vt 0.505883 0.98541
vt 0.485682 0.799813
vt 1.12643 0.993227
vt 0.48581 0.799813
vt 0.50601 0.98541
vt 1.12656 0.993227
o merged_2_0_node
g polygon_0
usemtl TEX_ANIM_EYE_mat_id
f 44/32/44 46/33/46 47/34/47
f 46/33/46 16/35/16 47/34/47
f 44/32/44 49/36/49 45/37/45
f 45/37/45 49/36/49 39/38/39
