mtllib Cloyster.mtl
v -0.16688 0.524068 -0.216975
vt 0.826734 0.581763
vn -0.5466512 0.5287722 -0.6492862
v -0.0944886 0.280573 -0.351074
vt 0.972332 0.345851
vn -0.3320591 -0.01585321 -0.9431254
v -0.247342 0.335932 -0.197903
vt 0.797177 0.410353
vn -0.8293148 0.005469428 -0.5587549
v -0.320563 0.242014 0
vt 0.634792 0.34043
vn -0.9415062 -0.2859861 -0.178264
v -0.238545 0.11111 0.284581
vt 0.361182 0.204903
vn -0.16109 -0.247401 0.9554281
v -0.348064 0.301399 0.286102
vt 0.35972 0.363173
vn -0.283173 -0.0460436 0.957963
v 0 0.00940928 -0.134098
vt 0.763721 0.00551856
vn 0.5262381 -0.8496861 -0.03327071
v -0.0586812 0.00437413 0.235507
vt 0.408365 0.0115803
vn 0.6720451 -0.3977471 0.624622
v -0.181903 0.0381728 0
vt 0.634792 0.14424
vn -0.5756432 -0.8133873 -0.08388044
v -0.0808146 0.741226 0.199104
vt 0.443364 0.821238
vn 0.7242601 0.3988051 0.5624961
v 0 0.667645 -0.132329
vt 0.76202 0.78882
vn 0.7001181 0.6979411 -0.150708
v -0.181903 0.641911 0
vt 0.634792 0.693583
vn -0.5516363 0.7846194 -0.2829661
v -0.16688 0.0982915 -0.216975
vt 0.843403 0.194242
vn -0.6803721 -0.5529311 -0.4810001
v -0.320563 0.494846 0
vt 0.634792 0.546217
vn -0.9285391 0.330887 -0.168312
v 0 0.31539 0.053032
vt 0.916121 0.974163
vn 0.8274801 0.0119345 0.5613681
v -0.238545 0.642772 0.277164
vn -0.04541352 0.2292131 0.9723163
vt 0.368313 0.694299
v 0 0.063821 -0.322822
vt 0.993582 0.134188
vn -0.3984819 -0.5748619 -0.7146649
v 0 0.460507 -0.318815
vt 0.993454 0.531585
vn -0.226366 0.432969 -0.872523
v 0.16688 0.524068 -0.216975
vn 0.5466512 0.5287722 -0.6492862
v 0.247342 0.335932 -0.197903
vn 0.8293148 0.005469459 -0.5587549
v 0.0944886 0.280572 -0.351074
vn 0.3320591 -0.01585321 -0.9431254
v 0.320563 0.242014 0
vn 0.9417749 -0.293011 -0.164938
v 0.348064 0.317828 0.286359
vt 0.359472 0.376837
vn 0.3230031 -0.05479432 0.9448103
v 0.241754 0.140668 0.284581
vt 0.361182 0.229488
vn 0.152353 -0.2257099 0.9622077
vn -0.523811 -0.850744 -0.0430897
v 0.181903 0.0381727 0
vn 0.579322 -0.813036 -0.0579539
v 0.0536868 0.00437412 0.235507
vn -0.6489738 -0.4114498 0.6399547
v 0.0808146 0.741226 0.199104
vn -0.7178314 0.4122482 0.5610433
v 0.181903 0.641911 0
vn 0.5602192 0.7843993 -0.2662181
vn -0.7001181 0.6979411 -0.150708
v 0.16688 0.0982915 -0.216975
vn 0.6803721 -0.5529311 -0.4810001
v 0.320563 0.494846 0
vn 0.9239706 0.3407142 -0.1737591
vn -0.8377468 0.018488 0.5457459
v 0.238545 0.626524 0.284581
vt 0.361182 0.680786
vn 0.01887661 0.2192711 0.9754813
vn 0.3984819 -0.5748619 -0.7146649
vn 0.226366 0.432969 -0.872523
v -0.0766976 0.281101 -0.333077
vt 0.213115 0.983959
vn -0.7145509 0.0009025119 0.6995829
v -0.0975742 0.396486 -0.492463
vt 0.307399 0.828163
vn -0.930352 0.29305 0.220379
v -0.0975742 0.163001 -0.492463
vt 0.116611 0.828163
vn -0.9302123 -0.2915531 0.2229391
v -0.001981 0.512735 -0.502398
vn 0.3642751 -0.3724971 -0.8535511
v -0.00101338 0.27925 -0.40009
vn 0.5803887 0.0004817907 -0.8143395
vn 0.4984351 -0.2447491 -0.8316612
v -0.001981 0.045765 -0.502398
vn 0.367587 0.371962 -0.8523639
vn 0.5007312 0.2439971 -0.8305022
v -0.000382661 0.493352 -0.333404
vt 0.386551 0.983639
vn -0.802221 0.412504 0.431604
vt 0.40239 0.818452
vn -0.7665161 0.6371811 0.08033282
v -0.000382661 0.0651482 -0.333404
vt 0.0366533 0.983639
vn -0.8057341 -0.408839 0.4285361
vt 0.0208147 0.818452
vn -0.7692013 -0.6339802 0.07999093
v 0.0756164 0.280115 -0.329744
vt 0.212309 0.987216
vn 0.7151864 0.0008518134 0.6989334
v 0.093788 0.162014 -0.493739
vt 0.115806 0.826916
vn 0.9347768 -0.2916589 0.202799
v 0.093788 0.395499 -0.493739
vt 0.306593 0.826916
vn 0.9356757 0.2907639 0.199918
vn -0.379581 -0.372621 -0.846801
vn -0.5127192 -0.2448051 -0.8229153
vn -0.5928953 -0.0004823603 -0.8052794
vn -0.376274 0.373152 -0.8480421
vn -0.510427 0.245558 -0.824115
vn 0.8091642 0.4176311 0.4133251
vn 0.7704119 0.6341779 0.06545179
vn 0.8093512 -0.4158581 0.4147441
vn 0.7677307 -0.6373807 0.06584467
v 0.241458 0.238925 0.145612
vt 0.200202 0.273433
vn 0.9136445 -0.4059958 0.02052329
v 0.263883 0.349014 0.293954
vt 0.0434903 0.386387
vn 0.4342149 0.0152731 0.9006798
v 0.174808 0.168178 0.30825
vt 0.0283877 0.200844
vn 0.125987 -0.2267509 0.9657698
v 0 0.100358 -0.110181
vt 0.333421 0.0106567
vn 0.03266641 -0.9936864 -0.107332
v 0.0986708 0.0861316 0.145612
vt 0.200202 0.116663
vn 0.3327051 -0.9425363 0.03054011
v -0.0326937 0.0607972 0.246128
vt 0.094015 0.0102671
vn -0.02784009 -0.6356518 0.7714738
v -0.0986708 0.0861316 0.145612
vn -0.4454141 -0.8953232 0.00165576
v -0.174808 0.184343 0.30825
vt 0.0283877 0.21743
vn -0.09414858 -0.211486 0.9728359
vt 0.973051 0.975014
v 0 0.29701 0.185962
vn -0.0193092 -0.02335509 0.9995407
v 0 0.649665 0.27362
vt 0.0649717 0.758885
vn 0.00244656 0.7048631 0.7093391
v 0.0986708 0.611896 0.145612
vt 0.200202 0.703756
vn 0.464123 0.8822889 0.07846209
v 0 0.60756 -0.100291
vt 0.333421 0.758885
vn 0 0.9937198 -0.111898
v -0.0989674 0.541233 0.30825
vn -0.0169362 0.126178 0.991863
v -0.263883 0.349014 0.293954
vn -0.4482601 0.0106076 0.8938403
v -0.0986708 0.611896 0.145612
vn -0.4634599 0.8828678 0.07582518
v 0.0989674 0.539818 0.30825
vn 0.01572971 0.1250371 0.9920274
v 0.241458 0.459103 0.145612
vt 0.200202 0.488918
vn 0.8501382 0.4846681 0.20582
vt 0.0283877 0.607467
v -0.241458 0.238925 0.145612
vn -0.9057702 -0.4210981 0.04750661
vt 0.0283877 0.608919
v -0.241458 0.459103 0.145612
vn -0.851182 0.483772 0.203602
v 0.082534 0.471635 0.205598
vt 0.0282856 0.744286
vn 0.8283763 -0.3689641 0.4214951
v 0 0.610711 0.489547
vn 0 0.299495 0.9540979
v -0.082534 0.471635 0.205598
vn -0.8283763 -0.3689641 0.4214951
v 0 0.608026 0.162784
vn 0 0.9999663 -0.008215331
v 0.343613 0.055806 -0.0260137
vt 0.95132 0.853668
vn 0.4501748 0.1836029 -0.8738607
v 0.350759 0.0564655 0.0383687
vn 0.6304089 0.2002379 0.7499929
v 0.31491 0.0104266 0.0102281
vn -0.273764 -0.9609551 0.0402297
v 0.253857 0.151596 0.0807406
vn 0.5827931 0.249123 0.7734921
v 0.239566 0.150277 -0.0480243
vn 0.398456 0.232109 -0.8873321
v 0.18216 0.0595184 0.0244593
vn -0.3419659 -0.9385076 0.04756948
v 0.460324 0.356301 -0.0262428
vn 0.272275 -0.8477361 -0.4552031
v 0.453724 0.422715 -0.0304443
vn 0.106428 0.8210981 -0.5607771
v 0.463063 0.393742 0.0290989
vn 0.3411008 0.09307455 0.9354076
v 0.249366 0.436139 -0.0294122
vn 0.0514232 0.825976 -0.561355
v 0.262567 0.303311 -0.0210091
vn 0.2193061 -0.8633354 -0.4544852
v 0.268045 0.378193 0.0896743
vn 0.2889759 0.08901937 0.9531886
v 0.332223 0.203306 0.152182
vn 0.2376119 -0.6795768 -0.6940577
v 0.359759 0.251521 0.178983
vn 0.8870372 0.4575201 -0.06197201
v 0.33448 0.207258 0.213668
vn 0.2908458 -0.5863686 0.7560295
v 0.316956 0.316848 0.176355
vn 0.8358442 0.5450191 -0.06571682
v 0.261882 0.220418 0.122752
vn 0.147175 -0.6607911 -0.7359991
v 0.266396 0.228323 0.245725
vn 0.2036249 -0.5619509 0.8017158
v 0.321432 0.573888 0.140366
vn 0.203558 0.6229461 -0.7553161
v 0.322009 0.573517 0.204417
vn 0.2172079 0.6141837 0.7586825
v 0.348806 0.525294 0.171867
vn 0.8506169 -0.525677 -0.0107107
v 0.239377 0.548118 0.237044
vn 0.1326941 0.5907032 0.7959033
v 0.238222 0.548859 0.108942
vn 0.118385 0.5998892 -0.7912762
v 0.29297 0.451672 0.171944
vn 0.7967201 -0.6042541 -0.0106797
v 0.201162 0.700319 -0.0443104
vn -0.2677709 0.8363986 -0.4782637
v 0.500143 0.823284 0.00334059
vn 0.7970799 0.603874 0
v 0.300842 0.568746 -0.0443104
vn 0.7326998 -0.4841649 -0.4782629
v 0.251002 0.634533 0.0986426
vn 0.2324639 0.176117 0.9565267
vn -0.797079 -0.603875 0
v -0.343613 0.055806 -0.0260137
vn -0.4501748 0.1836029 -0.8738607
v -0.31491 0.0104266 0.0102281
vn 0.273764 -0.9609551 0.04023
v -0.350759 0.0564655 0.0383687
vn -0.6304089 0.2002379 0.7499929
v -0.253857 0.151596 0.0807406
vn -0.582792 0.249123 0.7734929
v -0.239566 0.150277 -0.0480243
vn -0.398456 0.232109 -0.8873321
v -0.18216 0.0595184 0.0244593
vn 0.3419659 -0.9385076 0.04756968
v -0.460324 0.356301 -0.0262428
vn -0.272275 -0.8477361 -0.4552031
v -0.463063 0.393742 0.0290989
vn -0.3411008 0.09307455 0.9354076
v -0.453724 0.422715 -0.0304443
vn -0.106428 0.8210981 -0.5607771
v -0.249366 0.436139 -0.0294122
vn -0.0514231 0.825976 -0.561355
v -0.262567 0.303311 -0.0210091
vn -0.2193059 -0.8633357 -0.4544848
v -0.268045 0.378193 0.0896743
vn -0.2889759 0.08901926 0.9531886
v -0.332223 0.203306 0.152182
vn -0.2376121 -0.6795772 -0.6940572
v -0.33448 0.207258 0.213668
vn -0.2908458 -0.5863686 0.7560295
v -0.359759 0.251521 0.178983
vn -0.8870372 0.4575201 -0.06197161
v -0.316956 0.316848 0.176355
vn -0.8358442 0.5450191 -0.06571632
v -0.261882 0.220418 0.122752
vn -0.147175 -0.6607922 -0.7359982
v -0.266396 0.228323 0.245725
vn -0.2036249 -0.5619509 0.8017158
v -0.321432 0.573888 0.140366
vn -0.203559 0.622946 -0.7553159
v -0.348806 0.525294 0.171867
vn -0.8506169 -0.525677 -0.0107107
v -0.322009 0.573517 0.204417
vn -0.217208 0.614183 0.758683
v -0.239377 0.548118 0.237044
vn -0.1326949 0.5907027 0.7959035
v -0.238222 0.548859 0.108942
vn -0.118385 0.5998892 -0.7912762
v -0.29297 0.451672 0.171944
vn -0.7967201 -0.6042541 -0.0106797
v -0.201162 0.700319 -0.0443104
vn 0.267771 0.836399 -0.478263
v -0.300842 0.568746 -0.0443104
vn -0.7326998 -0.4841649 -0.4782629
v -0.500143 0.823284 0.00334059
vn -0.797079 0.603875 0
v -0.251002 0.634533 0.0986426
vn -0.2324639 0.176117 0.9565267
vn 0.7970799 -0.603874 0
v 0.171908 0.246924 0.205081
vt 0.852072 0.974962
vn 0.9016219 -0.32525 0.285115
v 0.156797 0.312587 0.301987
vn 0.8506509 0 0.525731
v 0.106245 0.206342 0.311325
vn 0.5810341 -0.5526831 0.5974451
v -0.0969058 0.134837 0.205081
vn -0.4803531 -0.7960652 0.3681591
v 0.0969058 0.134837 0.205081
vn 0.4803527 -0.7960656 0.3681588
v 0 0.14068 0.270744
vn 0 -0.8983623 0.4392552
v 0 0.215681 0.361878
vn 0 -0.525731 0.8506509
v -0.106245 0.206342 0.311325
vn -0.5810341 -0.5526831 0.5974451
v 0 0.484495 0.270744
vn 0 0.8983623 0.4392552
v 0.0969058 0.490337 0.205081
vn 0.4803531 0.7960652 0.3681591
v -0.0969058 0.490337 0.205081
vn -0.4803531 0.7960652 0.3681591
v 0.171908 0.37825 0.205081
vn 0.9016216 0.3252499 0.2851158
v 0.106245 0.418832 0.311325
vn 0.5810338 0.5526828 0.5974458
v -0.171908 0.246924 0.205081
vn -0.9016216 -0.3252499 0.2851158
v 0 0.409493 0.361878
vn 0 0.525731 0.8506509
v -0.106245 0.418832 0.311325
vn -0.5810338 0.5526828 0.5974458
v -0.156797 0.312587 0.301987
vn -0.8506509 0 0.525731
v -0.171908 0.37825 0.205081
vn -0.9016216 0.3252499 0.2851158
o merged_0_0_node
g polygon_0
usemtl lambert2_mat_id
f 1/1/1 2/2/2 3/3/3
f 4/4/4 5/5/5 6/6/6
f 7/7/7 8/8/8 9/9/9
f 10/10/10 11/11/11 12/12/12
f 4/4/4 3/3/3 13/13/13
f 3/3/3 2/2/2 13/13/13
f 14/14/14 1/1/1 3/3/3
f 4/4/4 14/14/14 3/3/3
f 15/15/15 16/15/16 6/15/6
f 6/6/6 16/16/16 14/14/14
f 6/15/6 5/15/5 15/15/15
f 14/14/14 4/4/4 6/6/6
f 4/4/4 9/9/9 5/5/5
f 9/9/9 8/8/8 5/5/5
f 13/13/13 7/7/7 9/9/9
f 4/4/4 13/13/13 9/9/9
f 5/15/5 8/15/8 15/15/15
f 13/13/13 17/17/17 7/7/7
f 2/2/2 18/18/18 17/17/17
f 13/13/13 2/2/2 17/17/17
f 1/1/1 11/11/11 18/18/18
f 2/2/2 1/1/1 18/18/18
f 14/14/14 12/12/12 1/1/1
f 12/12/12 11/11/11 1/1/1
f 16/16/16 10/10/10 12/12/12
f 14/14/14 16/16/16 12/12/12
f 16/15/16 15/15/15 10/15/10
f 8/15/8 7/15/7 15/15/15
f 10/15/10 15/15/15 11/15/11
f 19/1/19 20/3/20 21/2/21
f 22/4/22 23/19/23 24/20/24
f 7/7/25 25/9/26 26/8/27
f 27/10/28 28/12/29 11/11/30
f 22/4/22 29/13/31 20/3/20
f 20/3/20 29/13/31 21/2/21
f 30/14/32 20/3/20 19/1/19
f 22/4/22 20/3/20 30/14/32
f 23/15/23 15/15/33 24/15/24
f 30/14/32 23/19/23 22/4/22
f 30/14/32 31/21/34 23/19/23
f 23/15/23 31/15/34 15/15/33
f 22/4/22 24/20/24 25/9/26
f 25/9/26 24/20/24 26/8/27
f 29/13/31 25/9/26 7/7/25
f 22/4/22 25/9/26 29/13/31
f 24/15/24 15/15/33 26/15/27
f 29/13/31 7/7/25 17/17/35
f 21/2/21 17/17/35 18/18/36
f 29/13/31 17/17/35 21/2/21
f 19/1/19 18/18/36 11/11/30
f 21/2/21 18/18/36 19/1/19
f 30/14/32 19/1/19 28/12/29
f 28/12/29 19/1/19 11/11/30
f 31/21/34 28/12/29 27/10/28
f 30/14/32 28/12/29 31/21/34
f 31/15/34 27/15/28 15/15/33
f 26/15/27 15/15/33 7/15/25
f 27/15/28 11/15/30 15/15/33
f 32/22/37 33/23/38 34/24/39
f 35/15/40 36/15/41 33/15/42
f 37/15/43 34/15/44 36/15/41
f 36/15/41 34/15/44 33/15/42
f 32/22/37 38/25/45 33/23/38
f 33/23/38 38/25/45 35/26/46
f 32/22/37 34/24/39 39/27/47
f 39/27/47 34/24/39 37/28/48
f 40/29/49 41/30/50 42/31/51
f 35/15/52 42/15/53 36/15/54
f 37/15/55 36/15/54 41/15/56
f 36/15/54 42/15/53 41/15/56
f 40/29/49 42/31/51 38/25/57
f 42/31/51 35/26/58 38/25/57
f 38/25/57 39/27/59 40/29/49
f 40/29/49 39/27/59 41/30/50
f 39/27/59 37/28/60 41/30/50
f 39/27/47 38/25/45 32/22/37
f 43/32/61 44/33/62 45/34/63
f 46/35/64 47/36/65 48/37/66
f 49/36/67 48/37/66 50/38/68
f 48/39/66 51/39/69 50/39/68
f 52/40/70 53/41/71 54/42/72
f 55/39/73 56/39/74 51/39/69
f 54/42/72 57/41/75 52/40/70
f 58/39/76 51/39/69 44/39/62
f 44/39/62 51/39/69 45/39/63
f 59/43/77 44/33/62 43/32/61
f 58/44/76 44/33/62 59/43/77
f 43/32/61 45/34/63 47/36/65
f 47/36/65 45/34/63 48/37/66
f 45/39/63 51/39/69 48/39/66
f 49/36/67 50/38/68 60/32/78
f 48/37/66 49/36/67 46/35/64
f 53/41/71 52/40/70 58/44/76
f 59/43/77 53/41/71 58/44/76
f 57/41/75 55/45/73 52/40/70
f 55/39/73 51/39/69 52/39/70
f 52/39/70 51/39/69 58/39/76
f 60/32/78 50/38/68 56/33/74
f 56/39/74 50/39/68 51/39/69
f 61/43/79 56/33/74 55/45/73
f 60/32/78 56/33/74 61/43/79
f 61/43/79 55/45/73 57/41/75
f 62/46/80 63/46/81 64/46/82
f 63/46/81 62/46/80 65/46/83
f 64/46/82 63/46/81 65/46/83
f 66/47/84 67/47/85 68/47/86
f 69/47/87 67/47/85 70/47/88
f 70/47/88 67/47/85 66/47/84
f 71/47/89 68/47/86 69/47/87
f 69/47/87 68/47/86 67/47/85
f 66/47/84 68/47/86 70/47/88
f 70/47/88 68/47/86 71/47/89
f 72/47/90 73/47/91 74/47/92
f 75/47/93 73/47/91 76/47/94
f 76/47/94 73/47/91 72/47/90
f 77/47/95 74/47/92 75/47/93
f 75/47/93 74/47/92 73/47/91
f 72/47/90 74/47/92 76/47/94
f 76/47/94 74/47/92 77/47/95
f 78/47/96 79/47/97 80/47/98
f 81/47/99 79/47/97 82/47/100
f 82/47/100 79/47/97 78/47/96
f 83/47/101 80/47/98 81/47/99
f 81/47/99 80/47/98 79/47/97
f 78/47/96 80/47/98 82/47/100
f 82/47/100 80/47/98 83/47/101
f 84/47/102 85/47/103 86/47/104
f 87/47/105 85/47/103 88/47/106
f 88/47/106 85/47/103 84/47/102
f 89/47/107 86/47/104 87/47/105
f 87/47/105 86/47/104 85/47/103
f 84/47/102 86/47/104 88/47/106
f 88/47/106 86/47/104 89/47/107
f 90/47/108 91/47/109 92/47/110
f 91/47/109 90/47/108 93/47/111
f 92/47/110 91/47/109 93/47/111
f 92/47/112 93/47/112 90/47/112
f 94/47/113 95/47/114 96/47/115
f 97/47/116 98/47/117 96/47/115
f 96/47/115 98/47/117 94/47/113
f 99/47/118 97/47/116 95/47/114
f 95/47/114 97/47/116 96/47/115
f 94/47/113 98/47/117 95/47/114
f 95/47/114 98/47/117 99/47/118
f 100/47/119 101/47/120 102/47/121
f 103/47/122 104/47/123 102/47/121
f 102/47/121 104/47/123 100/47/119
f 105/47/124 103/47/122 101/47/120
f 101/47/120 103/47/122 102/47/121
f 100/47/119 104/47/123 101/47/120
f 101/47/120 104/47/123 105/47/124
f 106/47/125 107/47/126 108/47/127
f 109/47/128 110/47/129 108/47/127
f 108/47/127 110/47/129 106/47/125
f 111/47/130 109/47/128 107/47/126
f 107/47/126 109/47/128 108/47/127
f 106/47/125 110/47/129 107/47/126
f 107/47/126 110/47/129 111/47/130
f 112/47/131 113/47/132 114/47/133
f 115/47/134 116/47/135 114/47/133
f 114/47/133 116/47/135 112/47/131
f 117/47/136 115/47/134 113/47/132
f 113/47/132 115/47/134 114/47/133
f 112/47/131 116/47/135 113/47/132
f 113/47/132 116/47/135 117/47/136
f 118/47/137 119/47/138 120/47/139
f 120/47/139 121/47/140 118/47/137
f 119/47/138 121/47/140 120/47/139
f 119/47/141 118/47/141 121/47/141
f 122/48/142 123/48/143 124/48/144
f 125/48/145 126/48/146 127/48/147
f 127/48/147 128/48/148 129/48/149
f 130/48/150 131/48/151 132/48/152
f 133/48/153 123/48/143 122/48/142
f 134/48/154 123/48/143 133/48/153
f 122/48/142 124/48/144 126/48/146
f 126/48/146 124/48/144 127/48/147
f 124/48/144 128/48/148 127/48/147
f 127/48/147 129/48/149 125/48/145
f 125/48/145 129/48/149 135/48/155
f 134/48/154 131/48/151 130/48/150
f 133/48/153 131/48/151 134/48/154
f 134/48/154 130/48/150 136/48/156
f 136/48/156 130/48/150 137/48/157
f 135/48/155 129/48/149 138/48/158
f 139/48/159 138/48/158 137/48/157
f 135/48/155 138/48/158 139/48/159
f 139/48/159 137/48/157 132/48/152
f 132/48/152 137/48/157 130/48/150
v -0.0656629 0.312587 0.376988
vt 0.308416 0.870504
vn -0.3568221 0 0.9341723
vt 0.500773 0.953843
vt 0.099448 0.961874
vt -0.0784473 0.870504
vt 0.902099 0.961874
v 0.0656629 0.312587 0.376988
vt 0.693131 0.870504
vn 0.3568221 0 0.9341723
vt 1.07999 0.870504
vt 0.902163 0.779133
vt 0.500773 0.787165
vt 0.099384 0.779133
o merged_1_0_node
g polygon_0
usemtl TEX_ANIM_EYE_mat_id
f 140/49/160 136/50/156 137/51/157
f 137/51/157 138/52/158 140/49/160
f 134/53/154 141/54/161 123/55/143
f 123/55/143 141/54/161 124/56/144
f 141/54/161 140/49/160 128/57/148
f 128/57/148 140/49/160 129/58/149
f 141/54/161 128/57/148 124/56/144
f 141/54/161 136/50/156 140/49/160
f 134/53/154 136/50/156 141/54/161
f 138/52/158 129/58/149 140/49/160
