mtllib Raichu_M.mtl
v 0.115572 0.665444 -0.00824341
vt 0.0839227 0.112645
vn 0.5122172 0.8585043 -0.02457441
v 0 0.684204 -0.00824341
vt 0.0839227 0.115121
vn 0 0.9958722 -0.09076671
v 0 0.671226 0.103801
vt 0.0677485 0.112645
vn 0 0.8695913 0.4937722
v 0 0.649516 -0.130161
vt 0.103905 0.112645
vn 0 0.8369039 -0.5473499
v 0.141547 0.580208 0.133972
vt 0.0689903 0.105881
vn 0.5674069 0.3920829 0.7240998
v 0.125776 0.580208 -0.156891
vt 0.100983 0.105881
vn 0.5751731 0.5318131 -0.6215711
v 0.188027 0.580208 -0.00824341
vt 0.0839227 0.105881
vn 0.8874941 0.458431 -0.046853
v -0.115572 0.665444 -0.00824341
vn -0.5122172 0.8585043 -0.02457431
v 0.217115 0.479601 -0.00824341
vt 0.0854588 0.0966411
vn 0.9973192 0.05677611 -0.04616121
v 0 0.580208 0.190813
vt 0.0568394 0.105881
vn 0 0.3041169 0.9526348
v -0.125776 0.580208 -0.156891
vn -0.5751731 0.5318131 -0.6215711
v 0 0.555429 -0.20157
vt 0.114904 0.105881
vn 0 0.2944439 -0.9556687
v -0.141547 0.580208 0.133972
vn -0.5674069 0.3920829 0.7240998
v 0.144431 0.488285 -0.170135
vt 0.101432 0.0966411
vn 0.6766066 0.05132747 -0.7345536
v 0.134757 0.396362 -0.159777
vt 0.100983 0.0874011
vn 0.585916 -0.536759 -0.607118
v -0.188027 0.580208 -0.00824341
vn -0.8874941 0.458431 -0.046853
v -0.144431 0.488285 -0.170135
vn -0.6766066 0.05132747 -0.7345536
v -0.217115 0.479601 -0.00824341
vn -0.9973192 0.05677621 -0.04616131
v 0 0.416799 -0.209869
vt 0.114904 0.0874011
vn 0 -0.253021 -0.9674608
v 0 0.326901 -0.138596
vt 0.101105 0.0797407
vn 0 -0.8634782 -0.5043862
v 0.115572 0.322713 -0.00824341
vt 0.0854588 0.0797407
vn 0.4374341 -0.8988342 -0.02735891
v -0.134757 0.396362 -0.159777
vn -0.585916 -0.536759 -0.607118
v -0.115572 0.322713 -0.00824341
vn -0.4374341 -0.8988342 -0.02735901
v 0.0934168 0.129346 -0.165543
vt 0.451379 0.703213
vn 0.493258 0.237036 -0.836965
v 0.0900715 0.0552504 -0.169838
vt 0.45891 0.573308
vn 0.4174818 -0.4972138 -0.7605836
v -0.0900714 0.0552504 -0.169838
vn -0.417481 -0.497214 -0.7605839
v 0.180143 0.0552504 0.0009658621
vt 0.159453 0.573308
vn 0.9113972 -0.4115261 0.0012212
v -0.0934167 0.129346 -0.165543
vn -0.493258 0.237036 -0.836965
v 0.186834 0.129346 0
vt 0.161147 0.703214
vn 0.9704459 0.0425321 -0.237541
v 0.0642379 0.297357 -0.105397
vt 0.34593 0.997773
vn 0.439483 0.484883 -0.756137
v 0 0.0231661 0
vt 0.161147 0.517057
vn 0 -0.9999968 0.002519539
v -0.0642379 0.297357 -0.105397
vn -0.4394822 0.4848832 -0.7561373
v -0.180143 0.0552504 0.0009658621
vn -0.9113972 -0.4115261 0.00122098
v -0.186834 0.129346 0
vn -0.9704459 0.0425322 -0.237541
v 0.128476 0.297357 0
vt 0.161147 0.997773
vn 0.7565367 0.5642867 -0.3305039
v -0.128476 0.297357 0
vn -0.7565367 0.5642867 -0.3305039
v 0 0.3137 0
vt 0.161147 1.02643
vn 0 1 0
v 0 0.450001 0.216447
vt 0.0028414 0.328711
vn 0 -0.101978 0.9947867
v -0.151654 0.382905 0.137061
vt 0.54166 0.0102945
vn -0.5899567 -0.6008507 0.5393788
v 0 0.378397 0.194519
vt 0.0028414 0.0102945
vn 0 -0.5452849 0.8382508
v -0.163444 0.464232 0.140439
vt 0.54166 0.391384
vn -0.657647 0.06058739 0.7508859
v 0.151654 0.382905 0.137061
vn 0.5899564 -0.6008514 0.5393783
v 0 0.464232 0.206073
vt 0.0028414 0.391384
vn 0 0.171904 0.9851137
v 0.163444 0.464232 0.140439
vn 0.657647 0.06058739 0.7508859
v 0.154901 0.636545 -0.0264208
vt 0.548319 0.9365
vn -0.9885776 0.04877258 -0.1426029
v 0.188016 0.583589 -0.0259867
vn -0.8278168 -0.5194129 -0.2119659
v 0.175653 0.605444 0.0428149
vn -0.964501 -0.120742 0.23486
v 0.232593 0.626332 -0.244511
vn -0.9400923 0.04997611 -0.3372371
v 0.186053 0.677351 0.00873376
vn -0.8615029 0.313795 0.399181
v 0.230823 0.772883 -0.195381
vn -0.9407813 0.142913 -0.3074191
vn -0.8246953 0.5597342 0.08108873
v -0.154901 0.636545 -0.0264208
vn 0.9885778 0.04877229 -0.142602
v -0.175653 0.605444 0.0428149
vn 0.9645009 -0.120743 0.23486
v -0.188016 0.583589 -0.0259867
vn 0.8278168 -0.5194129 -0.2119659
v -0.186053 0.677351 0.00873376
vn 0.8615026 0.3137949 0.3991818
v -0.232593 0.626332 -0.244511
vn 0.9400924 0.04997587 -0.3372368
v -0.230823 0.772883 -0.195381
vn 0.9407814 0.1429129 -0.3074188
vn 0.8246952 0.5597342 0.08108883
v -0.229375 0.219727 0.175627
vt 0.522529 0.716995
vn -0.8127408 0.105262 0.5730379
v -0.0642379 0.297357 0.105397
vt 0.522529 0.577027
vn -0.04527481 0.624644 0.7795961
v -0.0934168 0.129346 0.165543
vn -0.2212781 -0.05420142 0.9737034
v 0.229375 0.219727 0.175627
vn 0.8127408 0.105262 0.5730379
v 0.0642379 0.297357 0.105397
vn 0.0452747 0.624644 0.7795961
v 0.0934167 0.129346 0.165543
vn 0.2212781 -0.05420142 0.9737034
v -0.0784891 1.490116E-09 0
vt 0.522529 0.724172
vn -0.148619 -0.9888889 -0.00335576
vt 0.522529 0.547314
vt 0.522529 0.650017
v -0.0900714 0.0552504 0.142561
vn -0.4054189 -0.5611069 0.7216609
v 0.0784891 1.490116E-09 0
vn 0.148619 -0.9888889 -0.00335569
v 0.0900714 0.0552504 0.142561
vn 0.4054181 -0.5611072 0.7216612
v -0.0455301 0.126132 -0.275328
vt 0.0116945 0.343432
vn 0.2978409 -0.7174188 -0.6297628
v -0.0258171 0.114589 -0.296321
v 0.00229339 0.0849281 -0.17024
vn -0.283296 0.339552 -0.8969101
v -0.0781188 0.210253 -0.346131
vn -0.24319 -0.7510739 0.6137969
v -0.0475917 0.096155 -0.28382
vn 0.4719703 0.8507586 0.2312011
v 0 0.295755 -0.00824341
vt 0.146916 0.0885237
vn 0 -0.9997125 0.02397999
vt 0.146916 0.0932098
vt 0.135964 0.0976221
v 0 0.333568 0.134098
vt 0.129979 0.0976221
vn 0 -0.9186472 0.395079
vt -0.116802 1.01022
vt -0.169867 0.704672
vt 0.169911 0.704672
vt 0.116846 1.01022
vt 2.24411E-05 1.03994
vt -0.233625 1.01022
vt 0.163828 0.569921
vt -0.163783 0.569921
vt 0.23367 1.01022
vt 2.24411E-05 0.511572
vt 0.129521 0.0963674
vt 0.129219 0.0979321
vt 0.142667 0.0815804
vt 0.126007 0.0979321
v -0.171312 0.452134 -0.419813
vt 0.742497 0.284953
vn -0.2310629 -0.2492568 -0.9404685
v -0.259927 0.37878 -0.370342
vt 0.694583 0.245291
vn -0.2996731 -0.2575161 -0.9186302
v -0.257793 0.608151 -0.432177
vt 0.695737 0.369311
vn -0.3102251 -0.2447581 -0.9186152
v -0.148572 0.377467 -0.402395
vt 0.754793 0.244581
vn 0.0309726 -0.273093 -0.9614889
v -0.0551667 0.467852 -0.417955
vt 0.805297 0.293452
vn 0.0910633 -0.259608 -0.961411
vt 0.792887 0.154169
vn 0.107895 -0.275916 -0.9551069
v -0.166905 0.462361 -0.381725
vt 0.74488 0.290483
vn -0.0246036 0.2626401 0.9645802
vn -0.115876 0.259545 0.958754
vn -0.103749 0.246698 0.9635229
v -0.144165 0.387693 -0.364308
vt 0.757176 0.25011
vn 0.2666351 0.2343931 0.9348613
vn 0.3306971 0.2431221 0.9118833
vn 0.3481472 0.2228631 0.9105633
vt 0.967274 0.105679
v -0.199071 0.396362 -0.00824341
vt 0.237899 0.178778
vn -0.861465 -0.503263 -0.0678565
vt 0.467612 -0.366203
vt 0.237899 0.559867
vt 0.967274 0.486768
v 0.199071 0.396362 -0.00824341
vn 0.861465 -0.503263 -0.0678564
vt 0.944607 0.991092
vn 0.9802471 -0.0512315 0.191026
vt 0.556059 0.873067
vt 0.476829 0.753562
vt 0.593932 0.696936
vt 0.994639 0.717112
vn -0.9802471 -0.05123101 0.191026
vt 0.915873 0.542998
vt 0.136108 0.0980286
vt 0.148482 0.082475
vt 0.148482 0.0969743
vt 0.132938 0.0999158
v 0.229574 0.59881 -0.237433
vt 0.0146928 0.342822
vn -0.9804422 0.05181211 -0.189865
v 0.231905 0.581745 -0.25413
v 0.224278 0.59038 -0.212386
v 0.232542 0.626584 -0.24518
v -0.231905 0.581745 -0.25413
vn 0.9804422 0.05180791 -0.189866
v -0.229574 0.59881 -0.237433
v -0.224278 0.59038 -0.212386
v -0.232542 0.626584 -0.24518
vn 0.8600188 0.4590569 -0.2227879
vn 0.06121692 -0.9657303 0.2522251
vn -0.9256662 -0.3246421 0.194293
vn -0.126236 0.9616262 -0.2435971
vt 0.135785 0.0980577
vt 0.132694 0.0980577
vt 0.132422 0.0999451
o merged_0_0_node
g polygon_0
usemtl lambert3_mat_id
f 1/1/1 2/2/2 3/3/3
f 1/1/1 4/4/4 2/2/2
f 1/1/1 3/3/3 5/5/5
f 1/1/1 6/6/6 4/4/4
f 1/1/1 5/5/5 7/7/7
f 1/1/1 7/7/7 6/6/6
f 2/2/2 8/1/8 3/3/3
f 2/2/2 4/4/4 8/1/8
f 5/5/5 9/8/9 7/7/7
f 5/5/5 3/3/3 10/9/10
f 7/7/7 9/8/9 6/6/6
f 4/4/4 11/6/11 8/1/8
f 4/4/4 6/6/6 12/10/12
f 4/4/4 12/10/12 11/6/11
f 3/3/3 13/5/13 10/9/10
f 3/3/3 8/1/8 13/5/13
f 9/8/9 14/11/14 6/6/6
f 9/8/9 15/12/15 14/11/14
f 6/6/6 14/11/14 12/10/12
f 11/6/11 16/7/16 8/1/8
f 11/6/11 12/10/12 17/11/17
f 11/6/11 18/8/18 16/7/16
f 11/6/11 17/11/17 18/8/18
f 16/7/16 18/8/18 13/5/13
f 16/7/16 13/5/13 8/1/8
f 15/12/15 19/13/19 14/11/14
f 15/12/15 20/14/20 19/13/19
f 15/12/15 21/15/21 20/14/20
f 12/10/12 19/13/19 17/11/17
f 12/10/12 14/11/14 19/13/19
f 18/8/18 17/11/17 22/12/22
f 19/13/19 20/14/20 22/12/22
f 19/13/19 22/12/22 17/11/17
f 20/14/20 23/15/23 22/12/22
f 24/16/24 25/17/25 26/17/26
f 24/16/24 27/18/27 25/17/25
f 24/16/24 26/17/26 28/16/28
f 24/16/24 29/19/29 27/18/27
f 24/16/24 28/16/28 30/20/30
f 24/16/24 30/20/30 29/19/29
f 25/17/25 31/21/31 26/17/26
f 28/16/28 32/20/32 30/20/30
f 28/16/28 26/17/26 33/18/33
f 28/16/28 34/19/34 32/20/32
f 28/16/28 33/18/33 34/19/34
f 29/19/29 30/20/30 35/22/35
f 32/20/32 34/19/34 36/22/36
f 32/20/32 37/23/37 30/20/30
f 32/20/32 36/22/36 37/23/37
f 37/23/37 35/22/35 30/20/30
f 38/24/38 39/25/39 40/26/40
f 38/24/38 41/27/41 39/25/39
f 38/24/38 40/26/40 42/25/42
f 38/24/38 43/28/43 41/27/41
f 38/24/38 42/25/42 44/27/44
f 38/24/38 44/27/44 43/28/43
f 45/29/45 46/29/46 47/29/47
f 45/29/45 48/29/48 46/29/46
f 45/29/45 47/29/47 49/29/49
f 45/29/45 50/29/50 48/29/48
f 45/29/45 49/29/51 50/29/50
f 51/29/52 52/29/53 53/29/54
f 51/29/52 54/29/55 52/29/53
f 51/29/52 53/29/54 55/29/56
f 51/29/52 55/29/56 56/29/57
f 51/29/52 56/29/57 54/29/58
f 57/30/59 58/31/60 36/31/36
f 57/30/59 59/31/61 58/31/60
f 57/30/59 36/31/36 34/31/34
f 57/30/59 34/31/34 59/31/61
f 60/30/62 35/31/35 61/31/63
f 60/30/62 29/31/29 35/31/35
f 60/30/62 61/31/63 62/31/64
f 60/30/62 62/31/64 29/31/29
f 63/32/65 26/33/26 31/34/31
f 63/32/65 33/33/33 26/33/26
f 63/32/65 31/34/31 64/33/66
f 63/32/65 64/33/66 33/33/33
f 31/34/31 65/32/67 66/33/68
f 31/34/31 25/33/25 65/32/67
f 66/33/68 65/32/67 27/33/27
f 27/33/27 65/32/67 25/33/25
f 67/35/69 68/35/59 69/35/70
f 67/35/69 70/35/71 68/35/59
f 67/35/69 69/35/70 71/35/72
f 67/35/69 71/35/72 70/35/71
f 71/35/72 69/35/70 68/35/59
f 71/35/72 68/35/59 70/35/71
f 72/36/73 23/37/23 20/38/20
f 72/36/73 73/39/74 23/37/23
f 72/36/73 20/38/20 21/37/21
f 72/36/73 21/37/21 73/39/74
f 58/40/60 59/41/61 62/42/64
f 58/40/60 62/42/64 61/43/63
f 58/40/60 61/43/63 37/44/37
f 58/40/60 37/44/37 36/45/36
f 59/41/61 66/46/68 62/42/64
f 59/41/61 64/47/66 66/46/68
f 61/43/63 35/48/35 37/44/37
f 64/47/66 31/49/31 66/46/68
f 73/50/74 39/51/39 23/52/23
f 73/50/74 40/53/40 39/51/39
f 73/50/74 42/51/42 40/53/40
f 73/50/74 21/52/21 42/51/42
f 74/54/75 75/55/76 76/56/77
f 74/54/75 77/57/78 75/55/76
f 74/54/75 78/58/79 77/57/78
f 78/58/79 70/59/80 77/57/78
f 79/60/81 76/56/82 75/55/83
f 79/60/81 75/55/83 80/61/84
f 79/60/81 80/61/84 78/58/85
f 80/61/84 70/59/86 78/58/85
f 39/62/39 81/63/87 23/64/23
f 39/62/39 18/65/18 81/63/87
f 39/62/39 41/66/41 18/65/18
f 42/62/42 21/64/21 82/63/88
f 42/62/42 82/63/88 9/65/9
f 42/62/42 9/65/9 44/66/44
f 50/67/89 49/68/89 47/69/89
f 50/67/89 47/69/89 46/70/89
f 50/67/89 46/70/89 48/71/89
f 56/67/90 52/69/90 54/68/90
f 56/67/90 53/70/90 52/69/90
f 56/67/90 55/71/90 53/70/90
f 64/72/66 34/72/34 33/72/33
f 64/72/66 59/72/61 34/72/34
f 29/72/29 66/72/68 27/72/27
f 29/72/29 62/72/64 66/72/68
f 22/73/22 23/74/23 81/75/87
f 22/73/22 81/75/87 18/76/18
f 82/75/88 21/74/21 15/73/15
f 82/75/88 15/73/15 9/76/9
f 83/77/91 84/77/91 85/77/91
f 83/77/91 86/77/91 84/77/91
f 87/77/92 88/77/92 89/77/92
f 87/77/92 90/77/92 88/77/92
f 84/77/89 83/77/89 85/77/89
f 84/77/89 86/77/89 83/77/89
f 88/77/90 87/77/90 89/77/90
f 88/77/90 90/77/90 87/77/90
f 76/56/93 79/60/93 74/54/93
f 80/61/94 75/55/94 77/57/94
f 80/61/95 77/57/95 70/59/95
f 79/60/96 78/58/96 74/54/96
f 18/78/18 41/79/41 13/80/13
f 44/79/44 9/78/9 5/80/5
vt 0.973244 0.784661
vt -0.352659 0.784661
vt 0.849327 1.00862
vt -0.352659 1.00862
o merged_1_0_node
g polygon_0
usemtl TEX_ANIM_EYE_mat_id
f 41/81/41 43/82/43 13/83/13
f 13/83/13 43/82/43 10/84/10
f 10/84/10 43/82/43 5/83/5
f 5/83/5 43/82/43 44/81/44
