ply
format ascii 1.0
element vertex 518
property float x
property float y
property float z
property uchar red
property uchar green
property uchar blue
element face 640
property list uchar int vertex_index
end_header
0.34936 0.08651 0.44632 237 219 199
0.21095 0.08635 0.44632 237 219 199
0.2111 -0.0396 0.2906 237 219 199
0.34951 -0.03944 0.2906 237 219 199
0.34919 -0.06211 0.44632 237 219 199
0.34967 -0.16134 0.32062 237 219 199
0.34967 -0.16134 0.24976 237 219 199
0.34924 0.02443 0.20532 237 219 199
0.34917 -0.0955 0.16308 237 219 199
0.21086 0.02379 0.20547 237 219 199
0.34953 -0.06097 0.11678 175 131 101
0.21112 -0.06097 0.11678 175 131 101
0.21078 -0.09615 0.16323 175 131 101
0.34917 -0.0955 0.16308 175 131 101
0.34936 0.08651 0.11678 175 131 101
0.34924 0.02443 0.20532 175 131 101
0.21095 0.08635 0.11678 175 131 101
0.21086 0.02379 0.20547 175 131 101
0.34909 0.22902 0.11678 175 131 101
0.34909 0.22902 0.00836 175 131 101
0.33226 0.24898 0.00836 175 131 101
0.33226 0.24898 0.11678 175 131 101
0.22747 0.24885 0.11678 175 131 101
0.22747 0.24885 0.00836 175 131 101
0.21068 0.22914 0.00836 175 131 101
0.21068 0.22914 0.11678 175 131 101
0.34938 -0.06097 0.00836 175 131 101
0.39535 -0.06075 0.1167 175 131 101
0.39526 -0.06075 0.00828 175 131 101
0.42498 -0.08936 0.00828 175 131 101
0.42498 -0.08936 0.1167 175 131 101
0.32069 -0.16857 0.00836 175 131 101
0.42531 -0.32276 0.1167 175 131 101
0.42531 -0.32276 0.00828 175 131 101
0.21078 -0.09615 0.16323 237 219 199
0.21126 -0.1615 0.24976 237 219 199
0.21126 -0.1615 0.32062 237 219 199
0.21078 -0.06227 0.44632 237 219 199
0.34953 -0.06097 0.11678 183 137 105
0.32069 -0.16857 0.11678 183 137 105
0.24035 -0.16874 0.11678 183 137 105
0.21112 -0.06097 0.11678 183 137 105
0.39535 -0.06075 0.1167 183 137 105
0.21097 -0.06097 0.00836 175 131 101
0.24035 -0.16874 0.00836 175 131 101
0.32069 -0.16857 0.11678 175 131 101
0.24035 -0.16874 0.11678 175 131 101
0.32093 -0.32299 0.00836 175 131 101
0.32093 -0.32299 0.11678 175 131 101
0.33513 -0.34668 0.00836 175 131 101
0.33513 -0.34668 0.11678 175 131 101
0.41121 -0.34652 0.00828 175 131 101
0.41121 -0.34652 0.1167 175 131 101
0.16526 -0.0612 0.00844 175 131 101
0.13597 -0.08998 0.00844 175 131 101
0.16535 -0.0612 0.11685 175 131 101
0.13597 -0.08998 0.11685 175 131 101
0.21095 0.08635 0.11678 183 137 105
0.21068 0.22914 0.11678 183 137 105
0.34909 0.22902 0.11678 183 137 105
0.34936 0.08651 0.11678 183 137 105
0.33226 0.24898 0.11678 183 137 105
0.22747 0.24885 0.11678 183 137 105
0.22651 -0.34691 0.00836 175 131 101
0.15049 -0.34708 0.00844 175 131 101
0.15049 -0.34708 0.11685 175 131 101
0.22651 -0.34691 0.11678 175 131 101
0.24059 -0.32316 0.00836 175 131 101
0.24059 -0.32316 0.11678 175 131 101
0.1363 -0.32338 0.11685 175 131 101
0.1363 -0.32338 0.00844 175 131 101
0.16535 -0.0612 0.11685 183 137 105
0.42498 -0.08936 0.1167 183 137 105
0.32093 -0.32299 0.11678 183 137 105
0.42531 -0.32276 0.1167 183 137 105
0.33513 -0.34668 0.11678 183 137 105
0.41121 -0.34652 0.1167 183 137 105
0.24059 -0.32316 0.11678 183 137 105
0.1363 -0.32338 0.11685 183 137 105
0.13597 -0.08998 0.11685 183 137 105
0.15049 -0.34708 0.11685 183 137 105
0.22651 -0.34691 0.11678 183 137 105
0.45745 -0.1029 0.96747 237 219 199
0.45745 -0.16955 1.12931 237 219 199
0.72583 -0.16955 1.12931 237 219 199
0.85176 -0.1029 0.96747 237 219 199
0.72583 -0.00771 1.19596 237 219 199
0.45745 -0.00771 1.19596 237 219 199
0.89375 -0.11627 0.99993 237 219 199
0.72583 -0.21729 1.24521 237 219 199
0.72583 -0.05545 1.31186 237 219 199
0.89375 -0.21729 1.24521 237 219 199
0.89375 -0.05545 1.31186 237 219 199
0.89375 0.04557 1.06658 237 219 199
0.85176 0.05894 1.03412 237 219 199
0.45745 0.05894 1.03412 237 219 199
0.72583 -0.05545 1.31186 175 131 101
0.72583 -0.1543 1.55191 175 131 101
0.72583 -0.31614 1.48525 175 131 101
0.72583 -0.21729 1.24521 175 131 101
0.89375 -0.05545 1.31186 175 131 101
0.89375 -0.1543 1.55191 175 131 101
0.89375 -0.21729 1.24521 175 131 101
0.89375 -0.31614 1.48525 175 131 101
0.72583 -0.2055 1.67623 175 131 101
0.89375 -0.2055 1.67623 175 131 101
0.68858 -0.19637 1.53458 175 131 101
0.68858 -0.24757 1.6589 175 131 101
0.68849 -0.47657 1.41912 175 131 101
0.68849 -0.52777 1.54344 175 131 101
0.933 -0.19637 1.53458 175 131 101
0.933 -0.24757 1.6589 175 131 101
0.93309 -0.47657 1.41912 175 131 101
0.93309 -0.52777 1.54344 175 131 101
0.71407 -0.49729 1.41065 175 131 101
0.9075 -0.49729 1.41065 175 131 101
0.9075 -0.54849 1.53497 175 131 101
0.71407 -0.54849 1.53497 175 131 101
0.93309 -0.52777 1.54344 183 137 105
0.9075 -0.54849 1.53497 183 137 105
0.71407 -0.54849 1.53497 183 137 105
0.68849 -0.52777 1.54344 183 137 105
0.933 -0.24757 1.6589 183 137 105
0.68858 -0.24757 1.6589 183 137 105
0.72583 -0.2055 1.67623 183 137 105
0.89375 -0.2055 1.67623 183 137 105
0.21197 -0.23949 1.48476 175 131 101
0.22552 -0.23949 1.50076 175 131 101
0.30221 -0.23949 1.50076 175 131 101
0.31576 -0.23949 1.48476 175 131 101
0.21201 -0.23949 1.3704 175 131 101
0.31572 -0.23949 1.3704 175 131 101
0.19889 -0.23949 1.55809 241 223 203
0.19889 -0.10295 1.55809 241 223 203
0.32884 -0.10295 1.55809 241 223 203
0.32884 -0.23949 1.55809 241 223 203
0.21445 -0.07236 1.55809 237 219 199
0.14345 -0.07236 1.3704 237 219 199
0.38428 -0.07236 1.3704 237 219 199
0.31328 -0.07236 1.55809 237 219 199
0.32884 -0.10295 1.55809 237 219 199
0.40939 -0.10295 1.3704 237 219 199
0.40939 -0.23949 1.3704 237 219 199
0.32884 -0.23949 1.55809 237 219 199
0.11834 -0.10295 1.3704 237 219 199
0.19889 -0.10295 1.55809 237 219 199
0.31576 -0.23949 1.48476 237 219 199
0.30221 -0.23949 1.50076 237 219 199
0.22552 -0.23949 1.50076 237 219 199
0.19889 -0.23949 1.55809 237 219 199
0.31572 -0.23949 1.3704 237 219 199
0.21197 -0.23949 1.48476 237 219 199
0.21201 -0.23949 1.3704 237 219 199
0.11834 -0.23949 1.3704 237 219 199
0.21445 -0.07236 1.55809 241 223 203
0.31328 -0.07236 1.55809 241 223 203
0.1282 -0.57046 0.93741 220 146 124
-0.1282 -0.57046 0.93741 220 146 124
-0.1282 -0.49879 0.93741 220 146 124
0.1282 -0.49879 0.93741 220 146 124
0.1097 -0.59249 0.93741 220 146 124
-0.1097 -0.59249 0.93741 220 146 124
0.1495 -0.58336 0.75556 212 141 120
0.1495 -0.58336 0.91536 212 141 120
0.1495 -0.49879 0.91536 212 141 120
0.1495 -0.49879 0.75556 212 141 120
0.12793 -0.60906 0.91536 212 141 120
0.12793 -0.60906 0.75556 212 141 120
0.1282 -0.49879 0.93741 212 141 120
0.1282 -0.57046 0.93741 212 141 120
0.1097 -0.59249 0.93741 212 141 120
0.1097 -0.59249 0.73351 212 141 120
0.1282 -0.57046 0.73351 212 141 120
-0.1097 -0.59249 0.73351 212 141 120
-0.1282 -0.57046 0.73351 212 141 120
-0.12793 -0.60906 0.75556 212 141 120
0.1282 -0.49879 0.73351 212 141 120
-0.1282 -0.49879 0.73351 212 141 120
0.06073 -0.60906 0.88299 212 141 120
0.06073 -0.60906 0.79784 212 141 120
-0.1495 -0.58336 0.75556 212 141 120
-0.12793 -0.60906 0.91536 212 141 120
-0.1495 -0.58336 0.91536 212 141 120
-0.1495 -0.49879 0.91536 212 141 120
-0.1495 -0.49879 0.75556 212 141 120
-0.1282 -0.49879 0.93741 212 141 120
-0.1282 -0.57046 0.93741 212 141 120
-0.1097 -0.59249 0.93741 212 141 120
-0.06073 -0.60906 0.88299 212 141 120
-0.04066 -0.60906 0.88299 212 141 120
-0.06073 -0.60906 0.79784 212 141 120
0.04066 -0.60906 0.88299 212 141 120
0.04066 -0.60906 0.79784 212 141 120
-0.04066 -0.60906 0.79784 212 141 120
0.04066 -0.59279 0.88299 58 51 46
0.06073 -0.59279 0.88299 58 51 46
0.06073 -0.59279 0.79784 58 51 46
0.04066 -0.59279 0.79784 58 51 46
0.04066 -0.60906 0.88299 58 51 46
0.04066 -0.60906 0.79784 58 51 46
0.06073 -0.60906 0.79784 58 51 46
0.06073 -0.60906 0.88299 58 51 46
-0.04066 -0.59279 0.88299 58 51 46
-0.04066 -0.59279 0.79784 58 51 46
-0.06073 -0.59279 0.79784 58 51 46
-0.06073 -0.59279 0.88299 58 51 46
-0.04066 -0.60906 0.88299 58 51 46
-0.04066 -0.60906 0.79784 58 51 46
-0.06073 -0.60906 0.79784 58 51 46
-0.06073 -0.60906 0.88299 58 51 46
0.14232 -0.48427 0.95893 58 51 46
0.14232 -0.48427 1.01099 58 51 46
0.1672 -0.48427 1.01099 58 51 46
0.1672 -0.48427 0.95893 58 51 46
0.18722 -0.48427 0.93905 203 148 131
0.18722 -0.48427 1.05362 203 148 131
0.18722 -0.46977 1.05362 203 148 131
0.18722 -0.46977 0.93905 203 148 131
0.1672 -0.48427 1.01099 203 148 131
0.1672 -0.48427 0.95893 203 148 131
0.1223 -0.48427 0.93905 203 148 131
0.14232 -0.48427 0.95893 203 148 131
0.14232 -0.48427 1.01099 203 148 131
0.1223 -0.48427 1.05362 203 148 131
0.1223 -0.46977 0.93905 203 148 131
0.1223 -0.46977 1.05362 203 148 131
-0.14232 -0.48427 0.95893 58 51 46
-0.1672 -0.48427 0.95893 58 51 46
-0.1672 -0.48427 1.01099 58 51 46
-0.14232 -0.48427 1.01099 58 51 46
-0.18722 -0.48427 0.93905 203 148 131
-0.18722 -0.46977 0.93905 203 148 131
-0.18722 -0.46977 1.05362 203 148 131
-0.18722 -0.48427 1.05362 203 148 131
-0.1672 -0.48427 1.01099 203 148 131
-0.1672 -0.48427 0.95893 203 148 131
-0.1223 -0.48427 0.93905 203 148 131
-0.14232 -0.48427 0.95893 203 148 131
-0.14232 -0.48427 1.01099 203 148 131
-0.1223 -0.48427 1.05362 203 148 131
-0.1223 -0.46977 0.93905 203 148 131
-0.1223 -0.46977 1.05362 203 148 131
0.28444 -0.47487 1.1222 242 242 242
0.28444 -0.47487 0.94082 242 242 242
0.03783 -0.47487 0.94082 242 242 242
0.02092 -0.50263 0.94082 237 219 199
-0.02092 -0.50263 0.94082 237 219 199
-0.02103 -0.50263 1.00541 237 219 199
0.02103 -0.50263 1.04476 237 219 199
0 -0.50263 1.32831 237 219 199
0.42818 -0.50263 1.32831 237 219 199
0.03787 -0.50263 1.04478 237 219 199
0.40025 -0.4646 1.37681 237 219 199
0.46305 -0.40351 1.37681 237 219 199
0.49538 -0.43728 1.32831 237 219 199
0.49538 -0.43728 0.4883 237 219 199
0.49538 0.44132 1.32831 237 219 199
0.49538 0.44132 0.4883 237 219 199
0.42818 -0.50263 0.4883 237 219 199
0.28444 -0.50263 1.1222 237 219 199
0.03783 -0.50263 0.94082 237 219 199
0.03783 -0.47487 0.94082 237 219 199
0.28444 -0.47487 1.1222 237 219 199
0.28444 -0.47487 0.94082 237 219 199
0.28444 -0.50263 0.94082 237 219 199
0.46305 0.40755 1.37681 237 219 199
0.39974 -0.46391 0.43536 237 219 199
0.46247 -0.4029 0.43536 237 219 199
0.46247 0.40694 0.43536 237 219 199
0.42818 0.50667 0.4883 237 219 199
0.42818 0.50667 1.32831 237 219 199
-0.42818 0.50667 0.4883 237 219 199
-0.42818 0.50667 1.32831 237 219 199
-0.49538 0.44132 1.32831 237 219 199
-0.49538 0.44132 0.4883 237 219 199
-0.40025 0.46864 1.37681 237 219 199
0.40025 0.46864 1.37681 237 219 199
-0.46305 0.40755 1.37681 237 219 199
-0.46305 -0.40351 1.37681 237 219 199
-0.49538 -0.43728 1.32831 237 219 199
-0.40025 -0.4646 1.37681 237 219 199
-0.42818 -0.50263 1.32831 237 219 199
-0.49538 -0.43728 0.4883 237 219 199
-0.42818 -0.50263 0.4883 237 219 199
-0.28444 -0.50263 1.1222 237 219 199
-0.03787 -0.50263 1.00543 237 219 199
-0.03783 -0.50263 0.94082 237 219 199
-0.03783 -0.47487 0.94082 237 219 199
-0.28444 -0.47487 1.1222 237 219 199
-0.28444 -0.47487 0.94082 237 219 199
-0.28444 -0.50263 0.94082 237 219 199
-0.46247 -0.4029 0.43536 237 219 199
-0.39974 -0.46391 0.43536 237 219 199
-0.46247 0.40694 0.43536 237 219 199
-0.39974 0.46795 0.43536 237 219 199
0.39974 0.46795 0.43536 237 219 199
0 -0.50263 0.4883 237 219 199
0.03783 -0.50263 0.94082 194 180 163
0.02092 -0.50263 0.94082 194 180 163
0.02103 -0.50263 1.04476 194 180 163
0.03787 -0.50263 1.04478 194 180 163
-0.28444 -0.47487 1.1222 242 242 242
-0.03783 -0.47487 0.94082 242 242 242
-0.28444 -0.47487 0.94082 242 242 242
-0.03783 -0.50263 0.94082 194 180 163
-0.03787 -0.50263 1.00543 194 180 163
-0.02103 -0.50263 1.00541 194 180 163
-0.02092 -0.50263 0.94082 194 180 163
0.46305 -0.40351 1.37681 241 223 203
0.40025 -0.4646 1.37681 241 223 203
-0.40025 -0.4646 1.37681 241 223 203
-0.46305 -0.40351 1.37681 241 223 203
0.46305 0.40755 1.37681 241 223 203
-0.46305 0.40755 1.37681 241 223 203
0.40025 0.46864 1.37681 241 223 203
-0.40025 0.46864 1.37681 241 223 203
-0.07121 0.39928 0.77266 241 223 203
-0.07121 0.86349 0.77266 241 223 203
0.06913 0.86349 0.77266 241 223 203
0.06913 0.39928 0.77266 241 223 203
0.06913 0.99849 0.65786 237 219 199
-0.07121 0.99849 0.65786 237 219 199
-0.07121 0.97375 0.63231 237 219 199
0.06913 0.97375 0.63231 237 219 199
0.06913 0.39928 0.63231 237 219 199
0.06913 0.86349 0.77266 237 219 199
0.06913 0.39928 0.77266 237 219 199
-0.07121 0.39928 0.63231 237 219 199
0.06913 0.99849 1.47786 237 219 199
0.06913 0.86349 1.47786 237 219 199
-0.07121 0.86349 0.77266 237 219 199
-0.07121 0.86349 1.47786 237 219 199
-0.07121 0.99849 1.47786 237 219 199
-0.07121 0.39928 0.77266 237 219 199
-0.07121 0.60888 1.8009 175 131 101
-0.07121 0.63277 1.82318 175 131 101
0.06913 0.63277 1.82318 175 131 101
0.06913 0.60888 1.8009 175 131 101
0.06913 0.74832 1.69593 175 131 101
0.06913 0.86349 1.69593 175 131 101
-0.07121 0.86349 1.69593 175 131 101
-0.07121 0.74832 1.69593 175 131 101
0.06913 0.97828 1.82318 175 131 101
0.06913 0.99849 1.80393 175 131 101
-0.07121 0.99849 1.80393 175 131 101
-0.07121 0.97828 1.82318 175 131 101
0.06913 0.74832 1.58089 175 131 101
-0.07121 0.74832 1.58089 175 131 101
0.06913 0.60888 1.58089 175 131 101
-0.07121 0.60888 1.58089 175 131 101
-0.07121 0.86349 1.47786 175 131 101
0.06913 0.86349 1.47786 175 131 101
0.06913 0.99849 1.47786 175 131 101
-0.07121 0.99849 1.47786 175 131 101
0.05159 0.73089 1.5603 175 131 101
-0.05367 0.73089 1.5603 175 131 101
0.05159 0.62631 1.5603 175 131 101
-0.05367 0.62631 1.5603 175 131 101
0.06913 0.97828 1.82318 183 137 105
0.06913 0.63277 1.82318 183 137 105
-0.07121 0.63277 1.82318 183 137 105
-0.07121 0.97828 1.82318 183 137 105
-0.21197 -0.23949 1.48476 175 131 101
-0.31576 -0.23949 1.48476 175 131 101
-0.30221 -0.23949 1.50076 175 131 101
-0.22552 -0.23949 1.50076 175 131 101
-0.21201 -0.23949 1.3704 175 131 101
-0.31572 -0.23949 1.3704 175 131 101
-0.19889 -0.23949 1.55809 241 223 203
-0.32884 -0.23949 1.55809 241 223 203
-0.32884 -0.10295 1.55809 241 223 203
-0.19889 -0.10295 1.55809 241 223 203
-0.21445 -0.07236 1.55809 237 219 199
-0.31328 -0.07236 1.55809 237 219 199
-0.38428 -0.07236 1.3704 237 219 199
-0.14345 -0.07236 1.3704 237 219 199
-0.32884 -0.10295 1.55809 237 219 199
-0.40939 -0.10295 1.3704 237 219 199
-0.40939 -0.23949 1.3704 237 219 199
-0.32884 -0.23949 1.55809 237 219 199
-0.11834 -0.10295 1.3704 237 219 199
-0.19889 -0.10295 1.55809 237 219 199
-0.31576 -0.23949 1.48476 237 219 199
-0.30221 -0.23949 1.50076 237 219 199
-0.22552 -0.23949 1.50076 237 219 199
-0.19889 -0.23949 1.55809 237 219 199
-0.31572 -0.23949 1.3704 237 219 199
-0.21197 -0.23949 1.48476 237 219 199
-0.21201 -0.23949 1.3704 237 219 199
-0.11834 -0.23949 1.3704 237 219 199
-0.31328 -0.07236 1.55809 241 223 203
-0.21445 -0.07236 1.55809 241 223 203
-0.45745 -0.1029 0.96747 237 219 199
-0.85176 -0.1029 0.96747 237 219 199
-0.72583 -0.16955 1.12931 237 219 199
-0.45745 -0.16955 1.12931 237 219 199
-0.72583 -0.00771 1.19596 237 219 199
-0.45745 -0.00771 1.19596 237 219 199
-0.89375 -0.11627 0.99993 237 219 199
-0.72583 -0.21729 1.24521 237 219 199
-0.72583 -0.05545 1.31186 237 219 199
-0.89375 -0.21729 1.24521 237 219 199
-0.89375 -0.05545 1.31186 237 219 199
-0.89375 0.04557 1.06658 237 219 199
-0.85176 0.05894 1.03412 237 219 199
-0.45745 0.05894 1.03412 237 219 199
-0.72583 -0.05545 1.31186 175 131 101
-0.72583 -0.21729 1.24521 175 131 101
-0.72583 -0.31614 1.48525 175 131 101
-0.72583 -0.1543 1.55191 175 131 101
-0.89375 -0.05545 1.31186 175 131 101
-0.89375 -0.1543 1.55191 175 131 101
-0.89375 -0.21729 1.24521 175 131 101
-0.89375 -0.31614 1.48525 175 131 101
-0.72583 -0.2055 1.67623 175 131 101
-0.89375 -0.2055 1.67623 175 131 101
-0.68858 -0.19637 1.53458 175 131 101
-0.68858 -0.24757 1.6589 175 131 101
-0.68849 -0.47657 1.41912 175 131 101
-0.68849 -0.52777 1.54344 175 131 101
-0.933 -0.19637 1.53458 175 131 101
-0.933 -0.24757 1.6589 175 131 101
-0.93309 -0.47657 1.41912 175 131 101
-0.93309 -0.52777 1.54344 175 131 101
-0.71407 -0.49729 1.41065 175 131 101
-0.9075 -0.49729 1.41065 175 131 101
-0.9075 -0.54849 1.53497 175 131 101
-0.71407 -0.54849 1.53497 175 131 101
-0.93309 -0.52777 1.54344 183 137 105
-0.68849 -0.52777 1.54344 183 137 105
-0.71407 -0.54849 1.53497 183 137 105
-0.9075 -0.54849 1.53497 183 137 105
-0.933 -0.24757 1.6589 183 137 105
-0.68858 -0.24757 1.6589 183 137 105
-0.72583 -0.2055 1.67623 183 137 105
-0.89375 -0.2055 1.67623 183 137 105
-0.34936 0.08651 0.44632 237 219 199
-0.34951 -0.03944 0.2906 237 219 199
-0.2111 -0.0396 0.2906 237 219 199
-0.21095 0.08635 0.44632 237 219 199
-0.34919 -0.06211 0.44632 237 219 199
-0.34967 -0.16134 0.32062 237 219 199
-0.34967 -0.16134 0.24976 237 219 199
-0.34924 0.02443 0.20532 237 219 199
-0.34917 -0.0955 0.16308 237 219 199
-0.21086 0.02379 0.20547 237 219 199
-0.34953 -0.06097 0.11678 175 131 101
-0.34917 -0.0955 0.16308 175 131 101
-0.21078 -0.09615 0.16323 175 131 101
-0.21112 -0.06097 0.11678 175 131 101
-0.34936 0.08651 0.11678 175 131 101
-0.34924 0.02443 0.20532 175 131 101
-0.21086 0.02379 0.20547 175 131 101
-0.21095 0.08635 0.11678 175 131 101
-0.34909 0.22902 0.00836 175 131 101
-0.34909 0.22902 0.11678 175 131 101
-0.33226 0.24898 0.00836 175 131 101
-0.33226 0.24898 0.11678 175 131 101
-0.22747 0.24885 0.11678 175 131 101
-0.22747 0.24885 0.00836 175 131 101
-0.21068 0.22914 0.00836 175 131 101
-0.21068 0.22914 0.11678 175 131 101
-0.34938 -0.06097 0.00836 175 131 101
-0.39535 -0.06075 0.1167 175 131 101
-0.39526 -0.06075 0.00828 175 131 101
-0.42498 -0.08936 0.00828 175 131 101
-0.42498 -0.08936 0.1167 175 131 101
-0.32069 -0.16857 0.00836 175 131 101
-0.42531 -0.32276 0.1167 175 131 101
-0.42531 -0.32276 0.00828 175 131 101
-0.21126 -0.1615 0.24976 237 219 199
-0.21078 -0.09615 0.16323 237 219 199
-0.21126 -0.1615 0.32062 237 219 199
-0.21078 -0.06227 0.44632 237 219 199
-0.34953 -0.06097 0.11678 183 137 105
-0.21112 -0.06097 0.11678 183 137 105
-0.24035 -0.16874 0.11678 183 137 105
-0.32069 -0.16857 0.11678 183 137 105
-0.39535 -0.06075 0.1167 183 137 105
-0.21097 -0.06097 0.00836 175 131 101
-0.24035 -0.16874 0.00836 175 131 101
-0.32069 -0.16857 0.11678 175 131 101
-0.24035 -0.16874 0.11678 175 131 101
-0.32093 -0.32299 0.00836 175 131 101
-0.32093 -0.32299 0.11678 175 131 101
-0.33513 -0.34668 0.00836 175 131 101
-0.33513 -0.34668 0.11678 175 131 101
-0.41121 -0.34652 0.00828 175 131 101
-0.41121 -0.34652 0.1167 175 131 101
-0.16526 -0.0612 0.00844 175 131 101
-0.13597 -0.08998 0.00844 175 131 101
-0.13597 -0.08998 0.11685 175 131 101
-0.16535 -0.0612 0.11685 175 131 101
-0.21095 0.08635 0.11678 183 137 105
-0.34936 0.08651 0.11678 183 137 105
-0.34909 0.22902 0.11678 183 137 105
-0.21068 0.22914 0.11678 183 137 105
-0.33226 0.24898 0.11678 183 137 105
-0.22747 0.24885 0.11678 183 137 105
-0.22651 -0.34691 0.00836 175 131 101
-0.22651 -0.34691 0.11678 175 131 101
-0.15049 -0.34708 0.11685 175 131 101
-0.15049 -0.34708 0.00844 175 131 101
-0.24059 -0.32316 0.00836 175 131 101
-0.24059 -0.32316 0.11678 175 131 101
-0.1363 -0.32338 0.11685 175 131 101
-0.1363 -0.32338 0.00844 175 131 101
-0.16535 -0.0612 0.11685 183 137 105
-0.42498 -0.08936 0.1167 183 137 105
-0.32093 -0.32299 0.11678 183 137 105
-0.42531 -0.32276 0.1167 183 137 105
-0.33513 -0.34668 0.11678 183 137 105
-0.41121 -0.34652 0.1167 183 137 105
-0.13597 -0.08998 0.11685 183 137 105
-0.1363 -0.32338 0.11685 183 137 105
-0.24059 -0.32316 0.11678 183 137 105
-0.15049 -0.34708 0.11685 183 137 105
-0.22651 -0.34691 0.11678 183 137 105
3 0 2 1
3 0 3 2
3 3 0 4
3 3 4 5
3 3 5 6
3 7 3 6
3 7 6 8
3 3 9 2
3 3 7 9
3 10 12 11
3 10 13 12
3 14 13 10
3 14 15 13
3 11 17 16
3 11 12 17
3 15 16 17
3 15 14 16
3 14 19 18
3 18 19 20
3 18 20 21
3 22 21 20
3 22 20 23
3 24 22 23
3 24 25 22
3 10 19 14
3 10 26 19
3 26 10 27
3 26 27 28
3 29 28 27
3 29 27 30
3 31 26 28
3 29 30 32
3 29 32 33
3 8 35 34
3 8 6 35
3 34 35 2
3 34 2 9
3 6 36 35
3 35 36 2
3 36 1 2
3 36 37 1
3 5 37 36
3 6 5 36
3 5 4 37
3 38 40 39
3 38 41 40
3 38 39 42
3 43 16 24
3 43 11 16
3 26 43 24
3 26 24 19
3 19 24 23
3 19 23 20
3 24 16 25
3 44 43 26
3 44 26 31
3 45 44 31
3 45 46 44
3 45 31 47
3 45 47 48
3 31 33 47
3 31 29 33
3 48 47 49
3 48 49 50
3 50 49 51
3 47 51 49
3 47 33 51
3 50 51 52
3 33 52 51
3 33 32 52
3 31 28 29
3 43 44 53
3 54 55 53
3 54 56 55
3 11 53 55
3 11 43 53
3 53 44 54
3 57 59 58
3 57 60 59
3 58 59 61
3 58 61 62
3 63 65 64
3 63 66 65
3 67 66 63
3 67 68 66
3 69 64 65
3 69 70 64
3 70 63 64
3 56 70 69
3 56 54 70
3 54 67 70
3 54 44 67
3 70 67 63
3 40 41 71
3 42 39 72
3 72 39 73
3 72 73 74
3 74 73 75
3 74 75 76
3 44 68 67
3 44 46 68
3 40 78 77
3 40 79 78
3 77 78 80
3 77 80 81
3 40 71 79
3 82 84 83
3 82 85 84
3 83 84 86
3 83 86 87
3 84 85 88
3 86 84 89
3 86 89 90
3 84 91 89
3 84 88 91
3 88 92 91
3 88 93 92
3 93 90 92
3 93 86 90
3 94 86 93
3 87 86 94
3 87 94 95
3 95 94 85
3 95 85 82
3 88 94 93
3 88 85 94
3 96 98 97
3 96 99 98
3 100 96 97
3 100 97 101
3 102 100 101
3 99 102 103
3 99 103 98
3 102 101 103
3 101 97 104
3 101 104 105
3 104 97 106
3 106 97 98
3 104 106 107
3 107 106 108
3 98 108 106
3 107 108 109
3 110 103 101
3 101 111 110
3 101 105 111
3 111 112 110
3 112 103 110
3 111 113 112
3 112 114 108
3 112 115 114
3 98 112 108
3 98 103 112
3 116 112 113
3 116 115 112
3 114 115 116
3 114 116 117
3 108 114 117
3 108 117 109
3 118 120 119
3 118 121 120
3 122 121 118
3 122 123 121
3 124 123 122
3 124 122 125
3 126 128 127
3 126 129 128
3 130 129 126
3 130 131 129
3 132 134 133
3 132 135 134
3 136 138 137
3 136 139 138
3 140 138 139
3 140 141 138
3 142 141 140
3 142 140 143
3 144 136 137
3 144 145 136
3 142 143 146
3 146 143 147
3 143 148 147
3 143 149 148
3 142 146 150
3 149 151 148
3 149 152 151
3 149 153 152
3 144 153 149
3 144 149 145
3 133 155 154
3 133 134 155
3 156 158 157
3 156 159 158
3 160 156 157
3 160 157 161
3 162 164 163
3 162 165 164
3 162 163 166
3 162 166 167
3 163 164 168
3 163 168 169
3 166 163 169
3 166 169 170
3 162 167 171
3 162 171 172
3 165 162 172
3 172 171 173
3 172 173 174
3 171 175 173
3 171 167 175
3 165 172 176
3 177 172 174
3 177 176 172
3 167 166 178
3 167 178 179
3 180 173 175
3 180 174 173
3 180 175 181
3 170 181 166
3 180 181 182
3 180 182 183
3 180 183 184
3 184 174 180
3 184 177 174
3 182 185 183
3 182 186 185
3 181 186 182
3 181 187 186
3 170 187 181
3 175 188 181
3 189 181 188
3 175 190 188
3 189 166 181
3 189 191 166
3 166 191 178
3 189 192 191
3 189 193 192
3 175 193 190
3 192 193 175
3 192 175 167
3 192 167 179
3 194 196 195
3 194 197 196
3 198 197 194
3 198 199 197
3 199 196 197
3 199 200 196
3 200 195 196
3 200 201 195
3 201 194 195
3 201 198 194
3 202 204 203
3 202 205 204
3 206 202 203
3 206 203 207
3 207 203 204
3 207 204 208
3 208 204 205
3 208 205 209
3 209 202 206
3 209 205 202
3 210 212 211
3 210 213 212
3 214 216 215
3 214 217 216
3 214 215 218
3 214 218 219
3 220 214 219
3 220 219 221
3 215 222 218
3 215 223 222
3 223 221 222
3 223 220 221
3 224 220 223
3 224 223 225
3 226 228 227
3 226 229 228
3 230 232 231
3 230 233 232
3 230 234 233
3 230 235 234
3 236 235 230
3 236 237 235
3 233 234 238
3 233 238 239
3 239 237 236
3 239 238 237
3 240 239 236
3 240 241 239
3 242 244 243
3 245 247 246
3 245 248 247
3 248 249 247
3 250 249 248
3 250 248 251
3 252 249 250
3 250 253 252
3 250 254 253
3 250 255 254
3 255 256 254
3 255 257 256
3 250 258 255
3 258 250 259
3 250 251 259
3 259 251 260
3 245 258 260
3 259 260 261
3 259 261 262
3 260 263 261
3 260 264 263
3 264 262 263
3 264 259 262
3 258 259 264
3 260 258 264
3 254 265 253
3 254 256 265
3 255 258 266
3 255 266 267
3 257 255 267
3 257 267 268
3 269 257 268
3 269 256 257
3 269 270 256
3 271 270 269
3 271 272 270
3 273 272 271
3 273 271 274
3 270 272 275
3 270 275 276
3 256 270 276
3 272 277 275
3 272 273 277
3 273 278 277
3 273 279 278
3 279 280 278
3 279 281 280
3 282 281 279
3 282 283 281
3 283 284 281
3 285 281 284
3 284 286 285
3 284 287 286
3 284 288 287
3 286 287 289
3 286 289 290
3 290 288 284
3 290 289 288
3 283 290 284
3 283 286 290
3 274 282 279
3 274 279 273
3 283 282 291
3 283 291 292
3 282 293 291
3 282 274 293
3 266 292 291
3 266 291 267
3 267 291 293
3 267 293 268
3 268 293 294
3 268 294 295
3 274 294 293
3 274 271 294
3 271 295 294
3 271 269 295
3 269 268 295
3 266 296 292
3 258 296 266
3 245 296 258
3 246 296 245
3 283 296 246
3 292 296 283
3 283 246 286
3 297 299 298
3 297 300 299
3 301 303 302
3 304 306 305
3 304 307 306
3 308 310 309
3 308 311 310
3 312 311 308
3 312 313 311
3 314 313 312
3 314 315 313
3 256 276 265
3 316 318 317
3 316 319 318
3 320 322 321
3 320 323 322
3 322 323 324
3 324 323 325
3 325 323 320
3 324 325 326
3 322 324 327
3 325 320 328
3 325 328 329
3 330 325 329
3 330 329 331
3 320 332 328
3 320 321 332
3 321 331 332
3 321 330 331
3 321 322 330
3 330 322 327
3 330 327 333
3 334 336 335
3 334 337 336
3 338 336 337
3 339 336 338
3 340 339 338
3 340 338 341
3 339 342 336
3 339 343 342
3 342 343 344
3 342 344 345
3 345 340 341
3 344 340 345
3 345 341 335
3 335 341 334
3 341 338 346
3 341 346 347
3 334 341 347
3 338 348 346
3 338 337 348
3 337 349 348
3 334 347 349
3 350 339 340
3 350 351 339
3 351 343 339
3 351 352 343
3 352 344 343
3 352 353 344
3 347 346 354
3 347 354 355
3 349 347 355
3 346 356 354
3 346 348 356
3 355 354 356
3 355 356 357
3 348 357 356
3 348 349 357
3 349 355 357
3 337 334 349
3 353 350 340
3 353 340 344
3 358 360 359
3 358 361 360
3 249 280 281
3 252 280 249
3 247 249 281
3 247 281 285
3 362 364 363
3 362 365 364
3 366 362 363
3 366 363 367
3 368 370 369
3 368 371 370
3 372 374 373
3 372 375 374
3 376 373 374
3 376 374 377
3 378 376 377
3 378 379 376
3 380 375 372
3 380 372 381
3 378 382 379
3 382 383 379
3 379 383 384
3 379 384 385
3 378 386 382
3 385 384 387
3 385 387 388
3 385 388 389
3 380 385 389
3 380 381 385
3 371 390 370
3 371 391 390
3 392 394 393
3 392 395 394
3 395 396 394
3 395 397 396
3 394 398 393
3 396 399 394
3 396 400 399
3 394 401 398
3 394 399 401
3 398 401 402
3 398 402 403
3 403 402 400
3 403 400 396
3 404 403 396
3 397 404 396
3 397 405 404
3 405 393 404
3 405 392 393
3 398 404 393
3 398 403 404
3 406 408 407
3 406 409 408
3 410 409 406
3 410 411 409
3 412 411 410
3 407 413 412
3 407 408 413
3 412 413 411
3 411 414 409
3 411 415 414
3 414 416 409
3 416 408 409
3 414 417 416
3 417 418 416
3 408 416 418
3 417 419 418
3 420 411 413
3 411 421 415
3 411 420 421
3 421 420 422
3 422 420 413
3 421 422 423
3 422 418 424
3 422 424 425
3 408 422 413
3 408 418 422
3 426 422 425
3 426 423 422
3 424 426 425
3 424 427 426
3 418 427 424
3 418 419 427
3 428 430 429
3 428 431 430
3 432 428 429
3 432 429 433
3 434 432 433
3 434 435 432
3 436 438 437
3 436 439 438
3 437 440 436
3 437 441 440
3 437 442 441
3 443 442 437
3 443 444 442
3 437 445 443
3 437 438 445
3 446 448 447
3 446 449 448
3 450 446 447
3 450 447 451
3 449 452 448
3 449 453 452
3 451 452 453
3 451 453 450
3 450 455 454
3 455 456 454
3 455 457 456
3 458 456 457
3 458 459 456
3 460 459 458
3 460 458 461
3 446 450 454
3 446 454 462
3 462 463 446
3 462 464 463
3 465 463 464
3 465 466 463
3 467 464 462
3 465 468 466
3 465 469 468
3 444 470 442
3 444 471 470
3 471 438 470
3 471 445 438
3 442 470 472
3 470 438 472
3 472 438 439
3 472 439 473
3 441 472 473
3 442 472 441
3 441 473 440
3 474 476 475
3 474 477 476
3 474 478 477
3 479 453 449
3 479 460 453
3 462 460 479
3 462 454 460
3 454 459 460
3 454 456 459
3 460 461 453
3 480 462 479
3 480 467 462
3 481 467 480
3 481 480 482
3 481 483 467
3 481 484 483
3 467 483 469
3 467 469 465
3 484 485 483
3 484 486 485
3 486 487 485
3 483 487 469
3 483 485 487
3 486 488 487
3 469 487 488
3 469 488 468
3 467 465 464
3 479 489 480
3 490 492 491
3 490 489 492
3 449 492 489
3 449 489 479
3 489 490 480
3 493 495 494
3 493 496 495
3 496 497 495
3 496 498 497
3 499 501 500
3 499 502 501
3 503 499 500
3 503 500 504
3 505 501 502
3 505 502 506
3 506 502 499
3 491 505 506
3 491 506 490
3 490 506 503
3 490 503 480
3 506 499 503
3 476 507 475
3 478 508 477
3 508 509 477
3 508 510 509
3 510 511 509
3 510 512 511
3 480 504 482
3 480 503 504
3 476 514 513
3 476 515 514
3 515 516 514
3 515 517 516
3 476 513 507
