mtllib Houndoom_Normalm.mtl
v 0 0.1447647 -0.05666564
vt 0 0.5
vn 0 -0.9807565 0.1952351
v 0.181389 0.1680152 0.09128334
vt 0.500001 0.5
vn 0.9020711 -0.3729451 -0.2172088
v 0 0.1430679 0.09224576
vn 0 -0.9788818 -0.2044269
v 0.181389 0.1590638 -0.05390461
vn 0.8744005 -0.4298069 0.2251441
v -0.181389 0.1680152 0.09128334
vn -0.9020709 -0.3729451 -0.2172097
v 0.184594 -2.049644E-05 -0.2258513
vt 0.500001 0.249999
vn 0.2238762 -0.9043127 -0.3634529
v -0.181389 0.1590638 -0.05390461
vn -0.8744005 -0.4298069 0.2251441
v 0 0.1706739 -0.2994174
vt 0 0.178741
vn 0 -0.7770348 -0.6294577
v -0.184594 -2.049644E-05 -0.2258513
vn -0.2238763 -0.904313 -0.363452
v 0.184594 -1.796931E-05 0.2178469
vt 0.500001 0.750001
vn 0.2358734 -0.9117836 0.3361762
v -0.184594 -1.796931E-05 0.2178469
vn -0.2358733 -0.9117833 0.3361771
v 0 0.261636 -0.2994148
vt 0 0.00405598
vn 0 0.3515379 -0.9361737
v 0.182312 0.261636 -0.1801323
vt 0.25217 0.00405598
vn 0.8440798 0.371056 -0.3871002
vt 0.500786 0.0751814
v 0 0.1700785 0.3010851
vt 0 0.812285
vn 0 -0.7090589 0.7051492
v 0 0.2616361 0.2995982
vt 0 0.99998
vn 0 0.218888 0.97575
v 0.182312 0.2616361 0.1972091
vt 0.25217 0.999981
vn 0.8459197 0.3446776 0.4069611
vt 0.500786 0.925107
v -0.182312 0.261636 -0.1801323
vn -0.8440798 0.371056 -0.3871002
v -0.182312 0.2616361 0.1972091
vn -0.8459194 0.3446785 0.4069609
v -0.117116 0.343465 -0.150197
vt 0.832561 0.454554
vn -0.5508546 0.8106115 -0.1986659
vt 0.836363 0.431079
vt 0.788433 0.431079
vt 0.851515 0.431079
v -0.117124 0.343465 0.182321
vt 0.790324 0.454554
vn -0.665473 0.712561 0.222267
v 0 0.343465 -0.248139
vt 0.845002 0.454554
vn 0 0.8373252 -0.5467052
v 0 0.390046 0.16375
vt 0.800447 0.459961
vn 0 0.9982681 0.058829
vt 0.82033 0.410111
v 0.117116 0.343465 -0.150197
vn 0.5508546 0.8106115 -0.1986659
vt 0.775427 0.431079
v 0 0.343465 0.28382
vt 0.777431 0.454554
vn 0 0.5655429 0.8247189
vt 0.801888 0.411958
v 0.117124 0.343465 0.182322
vn 0.665473 0.712561 0.222267
v 0 0.428096 0.0733003
vt 0.932354 0.446392
vn -0.002606009 0.9727395 0.2318859
v 0.0745474 0.343467 0.237989
vt 0.963063 0.425532
vn 0.172996 0.5071589 0.8443118
v 0.131608 0.406503 0.136156
vt 0.962556 0.445012
vn 0.235307 0.9056841 0.352657
v -0.0745474 0.343467 0.237989
vt 0.901646 0.425532
vn -0.172996 0.5071589 0.8443118
v 0 0.400595 0.0611224
vt 0.932354 0.45216
vn 0.003384419 -0.5185978 -0.8550116
v -0.131608 0.406503 0.136156
vt 0.902152 0.445012
vn -0.2383 0.9073232 0.3463781
v -0.131608 0.371889 0.120828
vn -0.5515397 -0.6990846 -0.4550657
v 0.131608 0.371889 0.120828
vn 0.5535479 -0.6940019 -0.4603759
v 0 0.328921 0.146264
vt 0.932354 0.440623
vn 0 -0.9569315 -0.2903138
v 0.121543 0.720035 0.141031
vt 0.834129 0.574662
vn 0.5888268 0.6097218 -0.5305868
v 0.138909 0.58705 0.0968537
vt 0.840528 0.554099
vn 0.6619012 0.06012161 -0.7471762
v 0 0.594099 0.0363855
vt 0.815645 0.553965
vn 0 0.09789833 -0.9951964
v 0.20941 0.638761 0.24498
vt 0.84262 0.564557
vn 0.9691886 0.2235719 -0.103388
v 0 0.716635 0.0903164
vt 0.815645 0.569171
vn 0 0.6214789 -0.7834309
v 0.103994 0.767311 0.279337
vt 0.828331 0.578019
vn 0.4422298 0.8906097 0.106053
v 0 0.782864 0.20509
vt 0.815645 0.581082
vn 0 0.9792767 -0.2025269
v 0 0.459243 0.0608563
vt 0.815645 0.538813
vn 0 -0.3722481 -0.9281333
v 0.202849 0.488338 0.246872
vt 0.841699 0.543987
vn 0.9687461 -0.245707 0.0340454
v 0.15152 0.434678 0.138711
vt 0.834129 0.537441
vn 0.660294 -0.452981 -0.599016
v -0.121543 0.720035 0.141031
vt 0.797161 0.574662
vn -0.5888268 0.6097218 -0.5305868
v 0.158182 0.69899 0.341881
vt 0.834942 0.567971
vn 0.6582431 0.5000241 0.562754
v 0 0.748199 0.357968
vt 0.815645 0.577658
vn 0 0.8083109 0.588756
v 0 0.365054 0.138891
vt 0.815645 0.528947
vn 0 -0.8684652 -0.4957501
v -0.138909 0.58705 0.0968537
vt 0.790761 0.554099
vn -0.6619012 0.06012151 -0.7471762
v -0.15152 0.434678 0.138711
vt 0.797161 0.537441
vn -0.660294 -0.452981 -0.599016
v 0.157164 0.58762 0.367535
vt 0.835677 0.551908
vn 0.7968681 0.0250922 0.603632
v 0.122969 0.371103 0.252467
vt 0.830646 0.529685
vn 0.5619442 -0.8265344 0.03255022
v 0.113457 0.449415 0.396645
vt 0.829753 0.539238
vn 0.7404117 -0.4304318 0.5162548
v -0.103994 0.767311 0.279337
vt 0.802958 0.578019
vn -0.4422298 0.8906097 0.106053
v -0.202849 0.488338 0.246872
vt 0.78959 0.543987
vn -0.9687461 -0.245707 0.0340454
v -0.122969 0.371103 0.252467
vt 0.800643 0.529685
vn -0.5619442 -0.8265344 0.03255022
v 0.0438107 0.38254 0.377887
vt 0.822699 0.53108
vn 0.321549 -0.857602 0.401404
v 0.085362 0.492036 0.442052
vt 0.828972 0.544438
vn 0.7669916 -0.09364656 0.6347867
v 0 0.664374 0.429632
vt 0.815645 0.565809
vn 0 0.493683 0.869642
v 0.0296015 0.553487 0.465511
vt 0.819256 0.551236
vn 0.4575687 0.4236987 0.7817355
v -0.20941 0.638761 0.24498
vt 0.788669 0.564557
vn -0.9691886 0.2235719 -0.103388
v 0 0.353434 0.288466
vt 0.815645 0.527529
vn 0 -0.9975023 0.07063411
v -0.158182 0.69899 0.341881
vt 0.796348 0.567971
vn -0.6582431 0.5000241 0.562754
v -0.113457 0.449415 0.396645
vt 0.801536 0.539238
vn -0.7404117 -0.4304318 0.5162548
v -0.157164 0.58762 0.367535
vt 0.795612 0.551908
vn -0.7968681 0.0250922 0.603632
v -0.0438107 0.38254 0.377887
vt 0.808591 0.53108
vn -0.3262148 -0.8562826 0.4004548
v -0.0296015 0.553487 0.465511
vt 0.812034 0.551236
vn -0.4575689 0.4236979 0.7817358
v -0.085362 0.492036 0.442052
vt 0.802317 0.544438
vn -0.7669916 -0.09364645 0.6347867
v 0.190501 0.905895 0.203226
vt 0.921313 0.5782
vn 0.04214553 0.8454655 0.5323644
v 0.1612 0.850202 0.112303
vt 0.946449 0.568131
vn -0.7992669 0.111787 -0.590488
v 0.0893946 0.781529 0.153246
vt 0.930142 0.549245
vn -0.7790593 0.3293361 -0.5334832
v 0.2472 0.862944 0.0666257
vt 0.961088 0.574826
vn 0.5590811 0.565313 -0.606506
v 0.090265 0.781158 0.281927
vt 0.900509 0.544485
vn -0.1856501 0.6266962 0.7568262
v 0.23761 0.821033 0.158488
vt 0.946203 0.561707
vn 0.8055781 -0.462617 0.370175
v 0.190734 0.738342 0.213867
vt 0.930142 0.539725
vn 0.8225157 -0.3067369 0.4789368
v 0.240258 0.711291 -0.00912993
vt 0.978028 0.542942
vn -0.4744042 0.4106731 -0.7786452
vn 0.9945521 -0.0793127 0.06764371
vn -0.5437509 -0.7060539 0.4536769
v -0.190186 0.905895 0.203226
vn -0.04214609 0.8454658 0.5323639
v -0.0890803 0.781529 0.153246
vn 0.7790601 0.329336 -0.5334821
v -0.160886 0.850202 0.112303
vn 0.7992661 0.111787 -0.5904891
v -0.0899507 0.781158 0.281927
vn 0.1856499 0.6266957 0.7568266
v -0.246885 0.862944 0.0666257
vn -0.5590807 0.5653127 -0.6065067
v -0.19042 0.738342 0.213867
vn -0.8225159 -0.306736 0.4789369
v -0.237295 0.821033 0.158488
vn -0.8055781 -0.462617 0.370175
v -0.239944 0.711291 -0.00912993
vn -0.9945521 -0.07931251 0.06764361
vn 0.4744042 0.4106731 -0.7786452
vn 0.5437509 -0.7060539 0.4536769
v -0.112403 0.387262 0.0507541
vn -0.237162 0.617159 0.750246
v 0 0.320814 0.0662227
vn 0 -0.213766 0.9768849
v 0.112403 0.387262 0.0507541
vn 0.237162 0.617159 0.750246
v -0.182508 0.261654 0.0318259
vn -0.5188678 -0.8548545 0
v 0.112403 0.387262 0.0128976
vn 0.237162 0.617159 -0.750246
v -0.112403 0.387262 0.0128976
vn -0.237162 0.617159 -0.750246
v 0.182508 0.261654 0.0318259
vn 0.5188678 -0.8548545 0
v 0 0.320814 -0.00257095
vn 0 -0.213766 -0.9768849
v -0.112403 0.378689 -0.0271802
vn -0.234156 0.6412091 0.7307681
v 0 0.320814 -0.0117117
v 0.112403 0.378689 -0.0271802
vn 0.234156 0.6412091 0.7307681
v -0.182508 0.2616538 -0.04610818
vn -0.4804309 -0.8770326 1.021888E-08
v 0.112403 0.378689 -0.0650368
vn 0.234156 0.6412091 -0.7307681
v -0.112403 0.378689 -0.0650368
vn -0.234156 0.6412091 -0.7307681
v 0.182508 0.2616538 -0.04610818
vn 0.4804309 -0.8770326 1.021888E-08
v 0 0.320814 -0.0805053
v -0.112403 0.374799 -0.103691
vn -0.232403 0.6525969 0.7211839
v 0 0.320814 -0.0882226
vn 0 -0.227347 0.9738138
v 0.112403 0.374799 -0.103691
vn 0.232403 0.6525969 0.7211839
v -0.182508 0.2616535 -0.1226188
vn -0.4621826 -0.8867847 2.066496E-08
v 0.112403 0.374799 -0.141548
vn 0.232403 0.6525969 -0.7211839
v -0.112403 0.374799 -0.141548
vn -0.232403 0.6525969 -0.7211839
v 0.182508 0.2616535 -0.1226188
vn 0.4621826 -0.8867847 2.066496E-08
v 0 0.320814 -0.157016
vn 0 -0.227347 -0.9738138
v 0 0.22421 -0.435721
vt 0.692974 0.565718
vn 1 0 0
v 0 0.27522 -0.41941
vt 0.689495 0.576597
v 0 0.282033 -0.296708
vt 0.663325 0.57805
v 0 0.214826 -0.488069
vt 0.704139 0.563716
v 0 0.103039 -0.534458
vt 0.714033 0.539874
vn -1 0 0
vn -0.392045 -0.919946 0
vn 0.392045 -0.919946 -1.48823E-06
v 0 0.1098 -0.483351
vt 0.663325 0.584316
v 0 0.04399333 -0.566206
vt 0.688679 0.533608
v 0 0.15331 -0.548093
vt 0.714033 0.584316
o merged_0_0_node
g polygon_0
usemtl mat_body_mat_id
f 1/1/1 2/2/2 3/1/3
f 1/1/1 4/2/4 2/2/2
f 1/1/1 3/1/3 5/2/5
f 1/1/1 6/3/6 4/2/4
f 1/1/1 5/2/5 7/2/7
f 1/1/1 8/4/8 6/3/6
f 1/1/1 7/2/7 9/3/9
f 1/1/1 9/3/9 8/4/8
f 2/2/2 10/5/10 3/1/3
f 5/2/5 3/1/3 11/5/11
f 6/3/6 8/4/8 12/6/12
f 6/3/6 12/6/12 13/7/13
f 6/3/6 13/7/13 4/8/4
f 8/4/8 9/3/9 12/6/12
f 10/5/10 14/9/14 3/1/3
f 10/5/10 15/10/15 14/9/14
f 10/5/10 16/11/16 15/10/15
f 10/5/10 2/12/2 16/11/16
f 14/9/14 15/10/15 11/5/11
f 14/9/14 11/5/11 3/1/3
f 9/3/9 17/7/17 12/6/12
f 9/3/9 7/8/7 17/7/17
f 15/10/15 18/11/18 11/5/11
f 18/11/18 5/12/5 11/5/11
f 19/13/19 17/14/17 18/15/18
f 19/13/19 12/16/12 17/14/17
f 19/13/19 18/15/18 20/17/20
f 19/13/19 21/18/21 12/16/12
f 19/13/19 20/17/20 22/19/22
f 19/13/19 22/19/22 21/18/21
f 17/14/17 7/20/7 18/15/18
f 12/16/12 21/18/21 23/13/23
f 12/16/12 23/13/23 13/14/13
f 21/18/21 22/19/22 23/13/23
f 20/17/20 18/15/18 15/21/15
f 20/17/20 24/22/24 22/19/22
f 20/17/20 15/21/15 24/22/24
f 7/20/7 5/23/5 18/15/18
f 13/14/13 23/13/23 16/15/16
f 13/14/13 16/15/16 4/20/4
f 22/19/22 24/22/24 25/17/25
f 22/19/22 25/17/25 23/13/23
f 25/17/25 15/21/15 16/15/16
f 25/17/25 24/22/24 15/21/15
f 25/17/25 16/15/16 23/13/23
f 4/20/4 16/15/16 2/23/2
f 26/24/26 27/25/27 28/26/28
f 26/24/26 29/27/29 27/25/27
f 26/24/26 28/26/28 30/28/30
f 26/24/26 31/29/31 29/27/29
f 26/24/26 30/28/30 32/29/32
f 26/24/26 32/29/32 31/29/31
f 31/29/31 32/29/32 29/27/29
f 27/25/27 33/26/33 28/26/28
f 27/25/27 29/27/29 34/30/34
f 27/25/27 34/30/34 33/26/33
f 34/30/34 32/29/32 30/28/30
f 34/30/34 29/27/29 32/29/32
f 34/30/34 30/28/30 33/26/33
f 33/26/33 30/28/30 28/26/28
f 35/31/35 36/32/36 37/33/37
f 35/31/35 38/34/38 36/32/36
f 35/31/35 37/33/37 39/35/39
f 35/31/35 40/36/40 38/34/38
f 35/31/35 39/35/39 41/37/41
f 35/31/35 41/37/41 40/36/40
f 36/32/36 42/38/42 37/33/37
f 36/32/36 38/34/38 43/39/43
f 36/32/36 44/40/44 42/38/42
f 36/32/36 43/39/43 44/40/44
f 39/35/39 45/41/45 41/37/41
f 39/35/39 37/33/37 45/41/45
f 40/36/40 46/42/46 38/34/38
f 40/36/40 41/37/41 47/43/47
f 40/36/40 47/43/47 46/42/46
f 42/38/42 44/40/44 48/44/48
f 42/38/42 49/45/49 37/33/37
f 42/38/42 48/44/48 50/46/50
f 42/38/42 50/46/50 49/45/49
f 37/33/37 49/45/49 45/41/45
f 43/39/43 38/34/38 51/47/51
f 43/39/43 52/48/52 44/40/44
f 43/39/43 51/47/51 53/49/53
f 43/39/43 53/49/53 52/48/52
f 44/40/44 52/48/52 48/44/48
f 38/34/38 46/42/46 51/47/51
f 41/37/41 54/50/54 47/43/47
f 41/37/41 45/41/45 54/50/54
f 50/46/50 55/51/55 49/45/49
f 50/46/50 48/44/48 56/52/56
f 50/46/50 56/52/56 55/51/55
f 53/49/53 57/53/57 52/48/52
f 53/49/53 51/47/51 58/54/58
f 46/42/46 47/43/47 59/55/59
f 46/42/46 59/55/59 60/56/60
f 60/56/60 58/54/58 51/47/51
f 45/41/45 61/57/61 54/50/54
f 45/41/45 49/45/49 61/57/61
f 49/45/49 55/51/55 61/57/61
f 48/44/48 62/58/62 56/52/56
f 48/44/48 52/48/52 62/58/62
f 52/48/52 57/53/57 62/58/62
f 47/43/47 63/59/63 59/55/59
f 47/43/47 54/50/54 63/59/63
f 54/50/54 61/57/61 63/59/63
f 55/51/55 56/52/56 64/60/64
f 55/51/55 65/61/65 61/57/61
f 55/51/55 64/60/64 65/61/65
f 61/57/61 65/61/65 63/59/63
f 57/53/57 66/62/66 62/58/62
f 66/62/66 56/52/56 62/58/62
f 66/62/66 64/60/64 56/52/56
f 59/55/59 63/59/63 67/63/67
f 65/61/65 64/60/64 68/64/68
f 65/61/65 68/64/68 67/63/67
f 69/65/69 70/66/70 71/67/71
f 69/65/69 72/68/72 70/66/70
f 69/65/69 71/67/71 73/69/73
f 69/65/69 74/70/74 72/68/72
f 69/65/69 73/69/73 75/71/75
f 69/65/69 75/71/75 74/70/74
f 75/71/75 71/67/71 70/66/70
f 75/71/75 70/66/70 74/70/74
f 72/68/72 76/72/76 70/66/70
f 72/68/72 74/70/74 76/72/77
f 70/66/70 76/72/78 74/70/74
f 77/65/79 78/67/80 79/66/81
f 77/65/79 80/69/82 78/67/80
f 77/65/79 79/66/81 81/68/83
f 77/65/79 82/71/84 80/69/82
f 77/65/79 81/68/83 83/70/85
f 77/65/79 83/70/85 82/71/84
f 82/71/84 79/66/81 78/67/80
f 82/71/84 83/70/85 79/66/81
f 81/68/83 84/72/86 83/70/85
f 81/68/83 79/66/81 84/72/87
f 83/70/85 84/72/88 79/66/81
f 85/29/89 86/30/90 87/26/91
f 85/29/89 88/27/92 86/30/90
f 85/29/89 87/26/91 89/26/93
f 85/29/89 90/29/94 88/27/92
f 85/29/89 89/26/93 90/29/94
f 86/30/90 91/25/95 87/26/91
f 86/30/90 88/27/92 91/25/95
f 87/26/91 91/25/95 89/26/93
f 90/29/94 92/30/96 88/27/92
f 90/29/94 89/26/93 92/30/96
f 92/30/96 91/25/95 88/27/92
f 92/30/96 89/26/93 91/25/95
f 93/29/97 94/30/90 95/26/98
f 93/29/97 96/27/99 94/30/90
f 93/29/97 95/26/98 97/26/100
f 93/29/97 98/29/101 96/27/99
f 93/29/97 97/26/100 98/29/101
f 94/30/90 99/25/102 95/26/98
f 94/30/90 96/27/99 99/25/102
f 95/26/98 99/25/102 97/26/100
f 98/29/101 100/30/96 96/27/99
f 98/29/101 97/26/100 100/30/96
f 100/30/96 99/25/102 96/27/99
f 100/30/96 97/26/100 99/25/102
f 101/29/103 102/30/104 103/26/105
f 101/29/103 104/27/106 102/30/104
f 101/29/103 103/26/105 105/26/107
f 101/29/103 106/29/108 104/27/106
f 101/29/103 105/26/107 106/29/108
f 102/30/104 107/25/109 103/26/105
f 102/30/104 104/27/106 107/25/109
f 103/26/105 107/25/109 105/26/107
f 106/29/108 108/30/110 104/27/106
f 106/29/108 105/26/107 108/30/110
f 108/30/110 107/25/109 104/27/106
f 108/30/110 105/26/107 107/25/109
f 109/73/111 110/74/111 111/75/111
f 109/73/111 112/76/111 110/74/111
f 109/73/111 113/77/111 112/76/111
f 109/73/112 111/75/112 110/74/112
f 109/73/112 110/74/112 112/76/112
f 109/73/112 112/76/112 113/77/112
f 73/69/113 71/67/113 75/71/113
f 80/69/114 82/71/114 78/67/114
f 114/78/111 115/79/111 116/80/111
f 114/78/112 116/80/112 115/79/112
vt 0.923383 0.00699981
v 0.0356824 0.447978 0.510861
vt 0.265542 0.398129
vn 0.5234219 -0.5934489 0.6114309
vt -0.923383 0.00699991
v -0.0356824 0.447978 0.510861
vt -0.265542 0.398129
vn -0.536362 -0.580286 0.612849
vt -0.562167 0.739081
v 0 0.517453 0.55213
vt 0 0.810255
vn 0 0.350023 0.9367411
vt -0.235454 0.990052
vt 0.562167 0.739081
vt 0.986275 0.406651
vt 0.235454 0.990052
vt -0.986275 0.406651
o merged_1_0_node
g polygon_0
usemtl mat_nose_mat_id
f 57/81/57 117/82/115 66/83/66
f 66/83/66 117/82/115 118/84/116
f 66/83/66 118/84/116 68/85/68
f 68/85/68 118/84/116 119/86/117
f 60/56/60 59/55/59 67/63/67
f 119/86/117 67/87/67 68/85/68
f 58/88/58 57/81/57 53/89/53
f 58/88/58 60/90/60 119/86/117
f 67/87/67 119/86/117 60/90/60
f 119/86/117 117/82/115 58/88/58
f 58/88/58 117/82/115 57/81/57
f 66/83/66 68/85/68 64/91/64
f 117/82/115 119/86/117 118/84/116
v 0 0.34282 0.284276
vt 0.00714105 1
vn 0 0.4731898 0.8809606
v -0.0334775 0.321779 0.277144
vt 0.901003 0.784195
vn -0.5136681 0.2813971 0.8105311
v 0 0.3071278 0.3034476
vt 0.00714079 0.529986
vn 0 0.187719 0.9822229
v -0.0334775 0.28381 0.284401
vt 0.901003 0.161647
vn -0.5136678 0.03732999 0.8571767
v 0 0.266882 0.298789
vt 0.00714067 0
vn 0 -0.114973 0.9933686
v 0.0334775 0.28381 0.284401
vn 0.5136678 0.03732989 0.8571767
v 0.0334775 0.321779 0.277144
vn 0.5136677 0.2813968 0.8105315
o merged_2_0_node
g polygon_0
usemtl mat_chest_mat_id
f 120/92/118 121/93/119 122/94/120
f 121/93/119 123/95/121 122/94/120
f 123/95/121 124/96/122 122/94/120
f 124/96/122 125/95/123 122/94/120
f 125/95/123 126/93/124 122/94/120
f 126/93/124 120/92/118 122/94/120
vt -0.00577846 0.749808
vt 1.0707 1.02094
vt 1.09616 0.763463
o merged_3_0_node
g polygon_0
usemtl TEX_ANIM_EYE_mat_id
f 67/97/67 63/98/63 65/99/65
f 60/97/60 51/99/51 46/98/46
