ply
format ascii 1.0
element vertex 342
property float x
property float y
property float z
property uchar red
property uchar green
property uchar blue
element face 396
property list uchar int vertex_index
end_header
0.49436 -0.0931 0.89692 180 181 176
0.49436 -0.17193 1.12847 180 181 176
0.84207 -0.17193 1.12847 180 181 176
1.0175 -0.0931 0.89692 180 181 176
0.49436 0.13854 0.97578 180 181 176
1.0175 0.13854 0.97578 180 181 176
1.08035 -0.11111 0.94982 180 181 176
1.08035 0.12053 1.02868 180 181 176
1.08035 -0.27667 1.43611 180 181 176
0.84207 -0.27667 1.43611 180 181 176
0.84207 0.0597 1.20733 180 181 176
0.84207 -0.04504 1.51497 180 181 176
1.08035 -0.04504 1.51497 180 181 176
0.49436 -0.17193 1.12847 187 188 183
0.49436 0.0597 1.20733 187 188 183
0.84207 0.0597 1.20733 187 188 183
0.84207 -0.17193 1.12847 187 188 183
0.49436 0.0597 1.20733 180 181 176
0.96519 -0.33878 1.44763 180 181 176
1.18961 -0.31402 1.37492 180 181 176
0.70552 -0.31402 1.37492 180 181 176
1.18961 0.01724 1.4877 180 181 176
0.70552 0.01724 1.4877 180 181 176
0.70552 -0.17315 1.50402 180 181 176
0.70552 -0.33878 1.44763 180 181 176
0.96519 -0.44901 1.4101 180 181 176
0.62652 -0.44874 1.41019 180 181 176
0.96519 -0.50603 1.5776 180 181 176
0.62652 -0.50577 1.57769 180 181 176
0.96519 -0.3958 1.61513 180 181 176
0.62683 -0.17315 1.50402 180 181 176
0.70552 -0.00752 1.56041 180 181 176
1.18961 -0.44898 1.77133 180 181 176
0.87471 -0.44898 1.77133 180 181 176
0.87523 -0.3958 1.61513 180 181 176
1.23745 -0.28388 1.42241 180 181 176
1.23745 -0.40748 1.78546 180 181 176
1.23745 -0.03562 1.50693 180 181 176
1.23745 -0.15922 1.86998 180 181 176
0.70552 -0.06454 1.72791 180 181 176
0.87471 -0.11772 1.88411 180 181 176
0.70552 -0.13563 1.9367 180 181 176
0.87471 -0.13563 1.9367 180 181 176
0.87471 -0.54083 1.79874 180 181 176
0.87523 -0.46975 1.58995 180 181 176
0.70552 -0.23017 1.67152 180 181 176
0.70552 -0.54083 1.79874 180 181 176
0.70552 -0.46975 1.58995 180 181 176
0.62683 -0.23017 1.67152 180 181 176
1.18961 -0.11772 1.88411 180 181 176
0.87471 -0.13563 1.9367 187 188 183
0.87471 -0.54083 1.79874 187 188 183
0.70552 -0.54083 1.79874 187 188 183
0.70552 -0.13563 1.9367 187 188 183
0.87471 -0.11772 1.88411 187 188 183
1.18961 -0.11772 1.88411 187 188 183
1.18961 -0.44898 1.77133 187 188 183
0.87471 -0.44898 1.77133 187 188 183
1.23745 -0.40748 1.78546 187 188 183
1.23745 -0.15922 1.86998 187 188 183
0.70552 -0.23017 1.67152 187 188 183
0.70552 -0.46975 1.58995 187 188 183
0.62652 -0.50577 1.57769 187 188 183
0.62683 -0.23017 1.67152 187 188 183
0.96519 -0.50603 1.5776 187 188 183
0.87523 -0.46975 1.58995 187 188 183
0.96519 -0.3958 1.61513 187 188 183
0.87523 -0.3958 1.61513 187 188 183
-0.49436 -0.0931 0.89692 180 181 176
-1.0175 -0.0931 0.89692 180 181 176
-0.84207 -0.17193 1.12847 180 181 176
-0.49436 -0.17193 1.12847 180 181 176
-0.49436 0.13854 0.97578 180 181 176
-1.0175 0.13854 0.97578 180 181 176
-1.08035 -0.11111 0.94982 180 181 176
-1.08035 0.12053 1.02868 180 181 176
-1.08035 -0.27667 1.43611 180 181 176
-0.84207 -0.27667 1.43611 180 181 176
-0.84207 0.0597 1.20733 180 181 176
-0.84207 -0.04504 1.51497 180 181 176
-1.08035 -0.04504 1.51497 180 181 176
-0.49436 -0.17193 1.12847 187 188 183
-0.84207 -0.17193 1.12847 187 188 183
-0.84207 0.0597 1.20733 187 188 183
-0.49436 0.0597 1.20733 187 188 183
-0.49436 0.0597 1.20733 180 181 176
-0.96519 -0.33878 1.44763 180 181 176
-0.70552 -0.31402 1.37492 180 181 176
-1.18961 -0.31402 1.37492 180 181 176
-1.18961 0.01724 1.4877 180 181 176
-0.70552 0.01724 1.4877 180 181 176
-0.70552 -0.17315 1.50402 180 181 176
-0.70552 -0.33878 1.44763 180 181 176
-0.96519 -0.44901 1.4101 180 181 176
-0.62652 -0.44874 1.41019 180 181 176
-0.96519 -0.50603 1.5776 180 181 176
-0.62652 -0.50577 1.57769 180 181 176
-0.96519 -0.3958 1.61513 180 181 176
-0.62683 -0.17315 1.50402 180 181 176
-0.70552 -0.00752 1.56041 180 181 176
-1.18961 -0.44898 1.77133 180 181 176
-0.87471 -0.44898 1.77133 180 181 176
-0.87523 -0.3958 1.61513 180 181 176
-1.23745 -0.28388 1.42241 180 181 176
-1.23745 -0.40748 1.78546 180 181 176
-1.23745 -0.03562 1.50693 180 181 176
-1.23745 -0.15922 1.86998 180 181 176
-0.87471 -0.13563 1.9367 187 188 183
-0.70552 -0.13563 1.9367 187 188 183
-0.70552 -0.54083 1.79874 187 188 183
-0.87471 -0.54083 1.79874 187 188 183
-0.87471 -0.11772 1.88411 180 181 176
-0.70552 -0.06454 1.72791 180 181 176
-0.70552 -0.13563 1.9367 180 181 176
-0.87471 -0.13563 1.9367 180 181 176
-0.87471 -0.54083 1.79874 180 181 176
-0.87523 -0.46975 1.58995 180 181 176
-0.70552 -0.23017 1.67152 180 181 176
-0.70552 -0.54083 1.79874 180 181 176
-0.70552 -0.46975 1.58995 180 181 176
-0.62683 -0.23017 1.67152 180 181 176
-1.18961 -0.11772 1.88411 180 181 176
-0.87471 -0.11772 1.88411 187 188 183
-0.87471 -0.44898 1.77133 187 188 183
-1.18961 -0.44898 1.77133 187 188 183
-1.18961 -0.11772 1.88411 187 188 183
-1.23745 -0.40748 1.78546 187 188 183
-1.23745 -0.15922 1.86998 187 188 183
-0.70552 -0.23017 1.67152 187 188 183
-0.62683 -0.23017 1.67152 187 188 183
-0.62652 -0.50577 1.57769 187 188 183
-0.70552 -0.46975 1.58995 187 188 183
-0.96519 -0.50603 1.5776 187 188 183
-0.87523 -0.46975 1.58995 187 188 183
-0.96519 -0.3958 1.61513 187 188 183
-0.87523 -0.3958 1.61513 187 188 183
0.5054 -0.39187 1.44833 180 181 176
0.42743 -0.44921 0.78126 180 181 176
0.42742 -0.44927 1.44831 180 181 176
0.44644 -0.33158 1.5077 180 181 176
0.37757 -0.38451 1.5077 180 181 176
0.44644 0.35622 1.5077 180 181 176
0.5054 0.41266 1.44833 180 181 176
0.21391 -0.44916 1.44833 180 181 176
-0.37757 -0.38451 1.5077 180 181 176
-0.21391 -0.44916 1.44833 180 181 176
0.1071 -0.44916 1.32529 180 181 176
-0.1071 -0.44916 1.32529 180 181 176
0.50531 0.4124 0.61496 180 181 176
0.50531 -0.39377 0.61496 180 181 176
0.42743 -0.44919 0.61496 180 181 176
0.38053 -0.40259 0.56673 180 181 176
-0.42743 -0.44919 0.61496 180 181 176
-0.38053 -0.40259 0.56673 180 181 176
0.45058 -0.35292 0.56673 180 181 176
-0.29868 -0.44923 0.66648 180 181 176
0.29868 -0.44923 0.66648 180 181 176
-0.45058 -0.35292 0.56673 180 181 176
0.29877 -0.44936 0.78126 180 181 176
0.29878 -0.50361 0.78126 180 181 176
0.42743 -0.50351 0.78126 180 181 176
0.29877 -0.44937 0.84878 180 181 176
0.29883 -0.50367 0.8487 180 181 176
0.35028 -0.50367 0.96413 180 181 176
0.125 -0.50367 0.96413 180 181 176
-0.125 -0.50367 0.96413 180 181 176
-0.29883 -0.50367 0.8487 180 181 176
0.35028 -0.48032 0.96413 180 181 176
0.125 -0.48032 0.96413 180 181 176
0.125 -0.50367 1.08816 180 181 176
0.125 -0.48032 1.08816 180 181 176
0.35028 -0.50367 1.18414 180 181 176
0.35028 -0.48032 1.18414 180 181 176
0.09979 -0.50367 1.08816 180 181 176
-0.09979 -0.50367 1.08816 180 181 176
0.40531 -0.50364 1.20626 180 181 176
0.42743 -0.50367 1.44833 180 181 176
0.36417 -0.50367 1.33151 180 181 176
0.1071 -0.50367 1.32529 180 181 176
0.21391 -0.50367 1.44833 180 181 176
0.09992 -0.50367 1.20687 180 181 176
-0.35028 -0.50367 0.96413 180 181 176
-0.35028 -0.48032 0.96413 180 181 176
-0.125 -0.48032 0.96413 180 181 176
-0.125 -0.50367 1.08816 180 181 176
-0.125 -0.48032 1.08816 180 181 176
-0.35028 -0.50367 1.18414 180 181 176
-0.35028 -0.48032 1.18414 180 181 176
-0.09992 -0.50367 1.20687 180 181 176
-0.1071 -0.50367 1.32529 180 181 176
-0.36417 -0.50367 1.33151 180 181 176
-0.42743 -0.50367 1.44833 180 181 176
-0.21391 -0.50367 1.44833 180 181 176
-0.40531 -0.50364 1.20626 180 181 176
-0.42743 -0.50351 0.78126 180 181 176
-0.29878 -0.50361 0.78126 180 181 176
-0.42743 -0.44921 0.78126 180 181 176
-0.29877 -0.44936 0.78126 180 181 176
-0.29877 -0.44937 0.84878 180 181 176
-0.50531 -0.39377 0.61496 180 181 176
-0.5054 -0.39187 1.44833 180 181 176
-0.42742 -0.44927 1.44831 180 181 176
-0.44644 -0.33158 1.5077 180 181 176
-0.44644 0.35622 1.5077 180 181 176
-0.5054 0.41266 1.44833 180 181 176
-0.50531 0.4124 0.61496 180 181 176
0.37757 0.42319 1.5077 180 181 176
-0.37757 0.42319 1.5077 180 181 176
-0.42743 0.48847 1.44833 180 181 176
0.42743 0.48847 1.44833 180 181 176
0.42681 0.48747 0.61496 180 181 176
0.45058 0.36512 0.56673 180 181 176
0.38053 0.43278 0.56673 180 181 176
-0.45058 0.36512 0.56673 180 181 176
-0.38053 0.43278 0.56673 180 181 176
-0.42681 0.48747 0.61496 180 181 176
0.37757 0.42319 1.5077 187 188 183
0.44644 0.35622 1.5077 187 188 183
0.44644 -0.33158 1.5077 187 188 183
0.37757 -0.38451 1.5077 187 188 183
-0.37757 0.42319 1.5077 187 188 183
-0.37757 -0.38451 1.5077 187 188 183
-0.44644 -0.33158 1.5077 187 188 183
-0.44644 0.35622 1.5077 187 188 183
0.1071 -0.50367 1.32529 187 188 183
0.1071 -0.44916 1.32529 187 188 183
0.21391 -0.44916 1.44833 187 188 183
0.21391 -0.50367 1.44833 187 188 183
-0.1071 -0.44916 1.32529 187 188 183
-0.1071 -0.50367 1.32529 187 188 183
-0.21391 -0.44916 1.44833 187 188 183
-0.21391 -0.50367 1.44833 187 188 183
0.42742 -0.44927 1.44831 187 188 183
0.42743 -0.50367 1.44833 187 188 183
-0.42742 -0.44927 1.44831 187 188 183
-0.42743 -0.50367 1.44833 187 188 183
0.29868 -0.32743 0.84888 174 80 89
0.29877 -0.44937 0.84878 174 80 89
0.29877 -0.44936 0.78126 174 80 89
0.29868 -0.32743 0.66648 174 80 89
-0.29868 -0.32743 0.84888 174 80 89
-0.29868 -0.32743 0.66648 174 80 89
0.29868 -0.44923 0.66648 174 80 89
-0.29868 -0.44923 0.66648 174 80 89
-0.29877 -0.44936 0.78126 174 80 89
-0.29877 -0.44937 0.84878 174 80 89
0.2314 -0.42586 0.75003 208 96 106
0.2314 -0.32213 0.75003 208 96 106
0.2314 -0.32209 0.65764 208 96 106
0.2314 -0.42586 0.65755 208 96 106
-0.2314 -0.42586 0.65755 208 96 106
-0.2314 -0.42586 0.75003 208 96 106
-0.2314 -0.32213 0.75003 208 96 106
-0.2314 -0.32209 0.65764 208 96 106
0.35028 -0.48032 1.18414 237 240 245
0.35028 -0.48032 0.96413 237 240 245
0.125 -0.48032 0.96413 237 240 245
0.125 -0.48032 1.08816 237 240 245
0.20339 -0.48763 1.07301 237 240 245
0.20339 -0.48763 1.1538 237 240 245
0.23825 -0.48763 1.1538 237 240 245
0.23825 -0.48763 1.07301 237 240 245
0.19229 -0.47731 0.97903 65 47 34
0.19229 -0.48763 0.97903 65 47 34
0.24935 -0.48763 0.97903 65 47 34
0.24935 -0.47731 0.97903 65 47 34
0.24935 -0.47731 0.99983 65 47 34
0.24935 -0.48763 0.99983 65 47 34
0.19229 -0.48763 0.99983 65 47 34
0.19229 -0.47731 0.99983 65 47 34
0.19229 -0.48763 1.1538 34 18 28
0.20339 -0.48763 1.1538 34 18 28
0.20339 -0.48763 1.07301 34 18 28
0.19229 -0.48763 0.99983 34 18 28
0.19229 -0.47731 0.99983 34 18 28
0.19229 -0.47731 1.1538 34 18 28
0.23825 -0.48763 1.07301 34 18 28
0.24935 -0.48763 0.99983 34 18 28
0.23825 -0.48763 1.1538 34 18 28
0.24935 -0.48763 1.1538 34 18 28
0.24935 -0.47731 1.1538 34 18 28
0.24935 -0.47731 0.99983 34 18 28
0.36419 -0.54927 1.33151 175 176 172
0.35029 -0.54927 1.18414 175 176 172
0.125 -0.54927 1.08816 175 176 172
0.09992 -0.54927 1.20687 175 176 172
0.09979 -0.54927 1.08816 175 176 172
0.40534 -0.54924 1.20626 175 176 172
0.09992 -0.50367 1.20687 175 176 172
0.09979 -0.50367 1.08816 175 176 172
0.125 -0.50367 1.08816 175 176 172
0.35028 -0.50367 1.18414 175 176 172
0.40531 -0.50364 1.20626 175 176 172
0.36417 -0.50367 1.33151 175 176 172
0.36417 -0.50367 1.33151 187 188 183
0.36419 -0.54927 1.33151 187 188 183
0.09992 -0.54927 1.20687 187 188 183
0.09992 -0.50367 1.20687 187 188 183
-0.35028 -0.48032 1.18414 237 240 245
-0.125 -0.48032 1.08816 237 240 245
-0.125 -0.48032 0.96413 237 240 245
-0.35028 -0.48032 0.96413 237 240 245
-0.20339 -0.48763 1.07301 237 240 245
-0.23825 -0.48763 1.07301 237 240 245
-0.23825 -0.48763 1.1538 237 240 245
-0.20339 -0.48763 1.1538 237 240 245
-0.19229 -0.47731 0.97903 65 47 34
-0.24935 -0.47731 0.97903 65 47 34
-0.24935 -0.48763 0.97903 65 47 34
-0.19229 -0.48763 0.97903 65 47 34
-0.24935 -0.47731 0.99983 65 47 34
-0.24935 -0.48763 0.99983 65 47 34
-0.19229 -0.48763 0.99983 65 47 34
-0.19229 -0.47731 0.99983 65 47 34
-0.19229 -0.48763 1.1538 34 18 28
-0.19229 -0.48763 0.99983 34 18 28
-0.20339 -0.48763 1.07301 34 18 28
-0.20339 -0.48763 1.1538 34 18 28
-0.19229 -0.47731 0.99983 34 18 28
-0.19229 -0.47731 1.1538 34 18 28
-0.23825 -0.48763 1.07301 34 18 28
-0.24935 -0.48763 0.99983 34 18 28
-0.23825 -0.48763 1.1538 34 18 28
-0.24935 -0.48763 1.1538 34 18 28
-0.24935 -0.47731 1.1538 34 18 28
-0.24935 -0.47731 0.99983 34 18 28
-0.36419 -0.54927 1.33151 175 176 172
-0.09992 -0.54927 1.20687 175 176 172
-0.125 -0.54927 1.08816 175 176 172
-0.35029 -0.54927 1.18414 175 176 172
-0.09979 -0.54927 1.08816 175 176 172
-0.40534 -0.54924 1.20626 175 176 172
-0.09992 -0.50367 1.20687 175 176 172
-0.09979 -0.50367 1.08816 175 176 172
-0.125 -0.50367 1.08816 175 176 172
-0.35028 -0.50367 1.18414 175 176 172
-0.40531 -0.50364 1.20626 175 176 172
-0.36417 -0.50367 1.33151 175 176 172
-0.36417 -0.50367 1.33151 187 188 183
-0.09992 -0.50367 1.20687 187 188 183
-0.09992 -0.54927 1.20687 187 188 183
-0.36419 -0.54927 1.33151 187 188 183
3 0 2 1
3 0 3 2
3 4 3 0
3 4 5 3
3 2 3 6
3 6 3 5
3 6 5 7
3 2 6 8
3 2 8 9
3 10 2 9
3 10 9 11
3 6 12 8
3 6 7 12
3 13 15 14
3 13 16 15
3 17 5 4
3 17 10 5
3 5 10 7
3 7 10 11
3 7 11 12
3 18 20 19
3 20 21 19
3 20 22 21
3 23 22 20
3 23 20 24
3 18 24 20
3 24 18 25
3 24 25 26
3 23 24 26
3 26 25 27
3 18 27 25
3 26 27 28
3 18 29 27
3 23 26 30
3 23 31 22
3 32 18 19
3 32 29 18
3 32 33 29
3 33 34 29
3 32 19 35
3 32 35 36
3 36 35 37
3 19 37 35
3 36 37 38
3 19 21 37
3 39 22 31
3 40 22 39
3 40 39 41
3 40 41 42
3 22 40 21
3 42 33 40
3 42 43 33
3 33 43 44
3 33 44 34
3 41 39 45
3 41 45 46
3 46 45 47
3 31 45 39
3 31 23 45
3 45 23 30
3 45 30 48
3 48 30 26
3 48 26 28
3 21 38 37
3 21 49 38
3 49 21 40
3 50 52 51
3 50 53 52
3 54 56 55
3 54 57 56
3 55 56 58
3 55 58 59
3 43 47 44
3 43 46 47
3 60 62 61
3 60 63 62
3 64 61 62
3 64 65 61
3 66 65 64
3 66 67 65
3 68 70 69
3 68 71 70
3 72 68 69
3 72 69 73
3 70 74 69
3 74 73 69
3 74 75 73
3 70 76 74
3 70 77 76
3 78 77 70
3 78 79 77
3 74 80 75
3 74 76 80
3 81 83 82
3 81 84 83
3 85 73 78
3 85 72 73
3 73 75 78
3 75 79 78
3 75 80 79
3 86 88 87
3 87 88 89
3 87 89 90
3 91 87 90
3 91 92 87
3 86 87 92
3 92 93 86
3 92 94 93
3 91 94 92
3 94 95 93
3 86 93 95
3 94 96 95
3 86 95 97
3 91 98 94
3 99 91 90
3 100 86 97
3 100 88 86
3 100 97 101
3 101 97 102
3 100 103 88
3 100 104 103
3 104 105 103
3 104 106 105
3 88 103 105
3 88 105 89
3 107 109 108
3 107 110 109
3 111 113 112
3 111 114 113
3 114 111 101
3 114 101 115
3 101 116 115
3 101 102 116
3 113 117 112
3 113 118 117
3 118 119 117
3 117 99 112
3 91 99 117
3 117 98 91
3 117 120 98
3 120 94 98
3 120 96 94
3 99 89 112
3 89 99 90
3 121 111 89
3 89 106 121
3 89 105 106
3 112 89 111
3 122 124 123
3 122 125 124
3 125 126 124
3 125 127 126
3 115 119 118
3 115 116 119
3 128 130 129
3 128 131 130
3 132 130 131
3 132 131 133
3 134 132 133
3 134 133 135
3 136 138 137
3 138 136 139
3 138 139 140
3 136 141 139
3 136 142 141
3 140 143 138
3 143 140 144
3 143 144 145
3 146 143 145
3 146 145 147
3 136 148 142
3 136 149 148
3 136 137 149
3 149 137 150
3 149 150 151
3 151 150 152
3 151 152 153
3 149 151 154
3 154 151 153
3 150 155 152
3 150 156 155
3 154 153 157
3 150 158 156
3 150 137 158
3 137 159 158
3 137 160 159
3 161 158 159
3 161 159 162
3 159 160 162
3 160 163 162
3 163 164 162
3 162 164 165
3 162 165 166
3 164 163 167
3 164 167 168
3 169 164 168
3 169 168 170
3 171 169 170
3 171 170 172
3 163 172 167
3 163 171 172
3 169 173 164
3 164 174 165
3 164 173 174
3 160 175 163
3 163 175 171
3 160 176 175
3 175 176 177
3 178 177 176
3 178 176 179
3 178 180 177
3 180 174 173
3 181 166 165
3 165 182 181
3 165 183 182
3 184 183 165
3 184 165 174
3 184 185 183
3 186 185 184
3 186 187 185
3 181 187 186
3 181 182 187
3 178 188 180
3 178 189 188
3 189 190 188
3 189 191 190
3 189 192 191
3 193 190 191
3 181 186 193
3 194 193 191
3 194 181 193
3 194 166 181
3 195 166 194
3 196 195 194
3 196 197 195
3 152 197 196
3 152 155 197
3 198 195 197
3 198 166 195
3 199 152 196
3 199 153 152
3 199 157 153
3 200 199 196
3 200 196 201
3 201 202 200
3 201 144 202
3 200 202 203
3 200 203 204
3 144 201 145
3 200 205 199
3 200 204 205
3 206 208 207
3 206 209 208
3 142 209 206
3 142 206 141
3 142 210 209
3 142 148 210
3 210 148 211
3 210 211 212
3 212 211 213
3 212 213 214
3 210 212 214
3 148 154 211
3 148 149 154
3 209 215 208
3 209 210 215
3 210 214 215
3 215 214 213
3 211 157 213
3 211 154 157
3 204 207 208
3 204 208 215
3 204 203 207
3 204 215 205
3 215 213 205
3 205 213 157
3 205 157 199
3 216 218 217
3 216 219 218
3 219 216 220
3 219 220 221
3 220 222 221
3 220 223 222
3 224 226 225
3 224 227 226
3 224 225 228
3 224 228 229
3 229 228 230
3 229 230 231
3 232 226 227
3 232 227 233
3 234 231 230
3 234 235 231
3 236 238 237
3 239 238 236
3 239 236 240
3 239 240 241
3 242 239 241
3 239 242 238
3 242 241 243
3 241 244 243
3 241 240 244
3 240 245 244
3 246 248 247
3 246 249 248
3 250 249 246
3 250 246 251
3 246 252 251
3 246 247 252
3 251 253 250
3 251 252 253
3 236 245 240
3 236 237 245
3 254 256 255
3 254 257 256
3 258 260 259
3 258 261 260
3 262 264 263
3 262 265 264
3 264 265 266
3 264 266 267
3 263 264 267
3 262 263 268
3 263 267 268
3 262 268 269
3 270 272 271
3 270 273 272
3 274 273 270
3 274 270 275
3 273 276 272
3 273 277 276
3 277 278 276
3 277 279 278
3 277 280 279
3 277 281 280
3 160 138 176
3 160 137 138
3 161 166 198
3 161 162 166
3 282 284 283
3 282 285 284
3 285 286 284
3 283 287 282
3 288 286 285
3 288 289 286
3 289 284 286
3 289 290 284
3 290 283 284
3 290 291 283
3 291 287 283
3 291 292 287
3 292 282 287
3 292 293 282
3 294 296 295
3 294 297 296
3 298 300 299
3 298 301 300
3 302 304 303
3 302 305 304
3 306 308 307
3 306 309 308
3 308 310 307
3 308 311 310
3 309 311 308
3 306 312 309
3 309 312 311
3 306 313 312
3 314 316 315
3 314 317 316
3 318 314 315
3 318 319 314
3 315 316 320
3 315 320 321
3 321 320 322
3 321 322 323
3 321 323 324
3 321 324 325
3 194 201 196
3 194 191 201
3 326 328 327
3 326 329 328
3 327 328 330
3 329 326 331
3 332 327 330
3 332 330 333
3 333 330 328
3 333 328 334
3 334 329 335
3 334 328 329
3 335 329 331
3 335 331 336
3 336 331 326
3 336 326 337
3 338 340 339
3 338 341 340
3 180 188 174
