ply
format ascii 1.0
element vertex 815
property float x
property float y
property float z
property float s
property float t
element face 998
property list uchar int vertex_index
end_header
0.1963 -0.61472 1.83005 0.375 0.125
0.1963 -0.61472 1.87886 0.375 0.125
0.26734 -0.61472 1.87886 0.375 0.125
0.26734 -0.61472 1.83005 0.375 0.125
0.33723 -0.61472 1.77647 0.625 0.625
0.33723 -0.61472 1.80848 0.625 0.625
0.33723 -0.59583 1.80848 0.625 0.625
0.33723 -0.59583 1.77647 0.625 0.625
0.13667 -0.61472 1.77647 0.625 0.625
0.13667 -0.61472 1.80848 0.625 0.625
0.13667 -0.59583 1.77647 0.625 0.625
0.13667 -0.59583 1.80848 0.625 0.625
0.33723 -0.61472 1.96939 0.375 0.875
0.26734 -0.61472 1.87886 0.375 0.875
0.1963 -0.61472 1.87886 0.375 0.875
0.13667 -0.61472 1.96939 0.375 0.875
0.26734 -0.61472 1.83005 0.375 0.875
0.33723 -0.61472 1.80848 0.375 0.875
0.33723 -0.59583 1.96939 0.375 0.875
0.33723 -0.59583 1.80848 0.375 0.875
0.13667 -0.61472 1.80848 0.375 0.875
0.13667 -0.59583 1.80848 0.375 0.875
0.13667 -0.59583 1.96939 0.375 0.875
0.1963 -0.61472 1.83005 0.375 0.875
0.28341 -0.71058 1.40999 0.875 0.625
0.28341 -0.71058 1.51547 0.875 0.625
0.28341 -0.52004 1.51547 0.875 0.625
0.28341 -0.52004 1.40999 0.875 0.625
-0.28341 -0.71058 1.40999 0.875 0.625
-0.28341 -0.71058 1.51547 0.875 0.625
-0.28341 -0.52004 1.51547 0.875 0.625
-0.28341 -0.52004 1.40999 0.875 0.625
0.24805 -0.74066 1.56948 0.375 0.125
0.24805 -0.74066 1.65034 0.375 0.125
0.33156 -0.74066 1.65034 0.375 0.125
0.33156 -0.74066 1.56948 0.375 0.125
0.24805 -0.6598 1.56948 0.375 0.125
0.33156 -0.6598 1.56948 0.375 0.125
0.33156 -0.6598 1.65034 0.375 0.125
0.24805 -0.6598 1.65034 0.375 0.125
0.38159 -0.75233 1.64508 0.375 0.375
0.4867 -0.75233 1.74953 0.375 0.375
0.53906 -0.75233 1.70372 0.375 0.375
0.51669 -0.71191 1.78081 0.375 0.375
0.58244 -0.71191 1.7038 0.375 0.375
0.58244 -0.71191 1.34965 0.375 0.375
0.53906 -0.75233 1.38209 0.375 0.375
0.49251 -0.71191 1.28707 0.375 0.375
0.48389 -0.75233 1.33402 0.375 0.375
0.38159 -0.75233 1.41397 0.375 0.375
-0.48389 -0.75233 1.33402 0.375 0.375
-0.49251 -0.71191 1.28707 0.375 0.375
0.58244 -0.55335 1.704 0.375 0.375
0.58244 0.37837 1.6739 0.375 0.375
0.58244 -0.23221 1.34961 0.375 0.375
0.58244 0.37837 2.30272 0.375 0.375
0.58244 -0.55335 2.30272 0.375 0.375
0.51449 0.3191 2.36515 0.375 0.375
0.51449 -0.49409 2.36515 0.375 0.375
0.51612 -0.62782 2.30272 0.375 0.375
0.46031 -0.55987 2.36515 0.375 0.375
0.51615 -0.62782 1.78081 0.375 0.375
0.44048 -0.62782 2.02166 0.375 0.375
0.44048 -0.62782 1.78081 0.375 0.375
0.44048 -0.59843 2.02166 0.375 0.375
0.44048 -0.59843 1.78081 0.375 0.375
-0.46031 -0.55987 2.36515 0.375 0.375
-0.51612 -0.62782 2.30272 0.375 0.375
-0.44048 -0.62782 2.02166 0.375 0.375
0.14911 -0.62782 1.89466 0.375 0.375
0.12552 -0.62782 1.89413 0.375 0.375
-0.12552 -0.62782 1.89413 0.375 0.375
0.12565 -0.62782 1.84174 0.375 0.375
-0.12565 -0.62782 1.84174 0.375 0.375
-0.14911 -0.62782 1.89466 0.375 0.375
0.14909 -0.62782 1.85574 0.375 0.375
0.14907 -0.62782 1.78081 0.375 0.375
-0.51449 -0.49409 2.36515 0.375 0.375
-0.58244 -0.55335 2.30272 0.375 0.375
-0.51449 0.3191 2.36515 0.375 0.375
-0.58244 0.37837 2.30272 0.375 0.375
-0.51615 -0.62782 1.78081 0.375 0.375
-0.58244 -0.55335 1.704 0.375 0.375
-0.44048 -0.62782 1.78081 0.375 0.375
-0.44048 -0.59843 2.02166 0.375 0.375
-0.44048 -0.59843 1.78081 0.375 0.375
-0.58244 0.37837 1.6739 0.375 0.375
-0.58244 -0.71191 1.34965 0.375 0.375
-0.58244 -0.23221 1.34961 0.375 0.375
-0.58244 -0.71191 1.7038 0.375 0.375
-0.53906 -0.75233 1.70372 0.375 0.375
-0.53906 -0.75233 1.38209 0.375 0.375
-0.38159 -0.75233 1.41397 0.375 0.375
-0.51669 -0.71191 1.78081 0.375 0.375
-0.4867 -0.75233 1.74953 0.375 0.375
-0.38159 -0.75233 1.64508 0.375 0.375
-0.12565 -0.75233 1.74953 0.375 0.375
-0.12565 -0.75233 1.64508 0.375 0.375
-0.12565 -0.82103 1.84174 0.375 0.375
-0.12565 -0.84833 1.82162 0.375 0.375
-0.12565 -0.71191 1.78081 0.375 0.375
-0.12565 -0.84833 1.64508 0.375 0.375
-0.12565 -0.62782 1.78081 0.375 0.375
-0.05928 -0.84833 1.65196 0.375 0.375
-0.05931 -0.84833 1.69539 0.375 0.375
-0.04044 -0.84833 1.69539 0.375 0.375
0 -0.84833 1.82162 0.375 0.375
0.04044 -0.84833 1.69539 0.375 0.375
-0.04043 -0.84833 1.65196 0.375 0.375
0.04043 -0.84833 1.65196 0.375 0.375
0 -0.84833 1.64508 0.375 0.375
0.12565 -0.84833 1.82162 0.375 0.375
0.05931 -0.84833 1.69539 0.375 0.375
0.05928 -0.84833 1.65196 0.375 0.375
0.12565 -0.84833 1.64508 0.375 0.375
0.12565 -0.75233 1.64508 0.375 0.375
0.12565 -0.75233 1.74953 0.375 0.375
0.12565 -0.82103 1.84174 0.375 0.375
0.12565 -0.71191 1.78081 0.375 0.375
0.12565 -0.82244 1.60881 0.375 0.375
0.12565 -0.75233 1.60881 0.375 0.375
0.12565 -0.62782 1.78081 0.375 0.375
-0.12565 -0.82244 1.60881 0.375 0.375
0.38159 -0.53307 1.64508 0.875 0.875
0.12565 -0.75233 1.64508 0.875 0.875
0.38159 -0.75233 1.64508 0.875 0.875
0.38159 -0.75233 1.41397 0.875 0.875
0.38159 -0.53307 1.41397 0.875 0.875
-0.38159 -0.53307 1.64508 0.875 0.875
-0.38159 -0.53307 1.41397 0.875 0.875
-0.38159 -0.75233 1.41397 0.875 0.875
-0.38159 -0.75233 1.64508 0.875 0.875
-0.12565 -0.75233 1.64508 0.875 0.875
0.46031 -0.55987 2.36515 0.625 0.375
-0.46031 -0.55987 2.36515 0.625 0.375
-0.51449 -0.49409 2.36515 0.625 0.375
0.51449 -0.49409 2.36515 0.625 0.375
-0.51449 0.3191 2.36515 0.625 0.375
0.51449 0.3191 2.36515 0.625 0.375
0.44048 -0.59843 1.78081 0.375 0.125
0.14907 -0.59843 1.78081 0.375 0.125
0.44048 -0.59843 2.02166 0.375 0.125
0.14907 -0.59843 1.78081 0.375 0.375
0.44048 -0.62782 1.78081 0.625 0.375
0.51669 -0.71191 1.78081 0.625 0.375
0.14907 -0.62782 1.78081 0.625 0.375
0.51615 -0.62782 1.78081 0.625 0.375
0.12565 -0.71191 1.78081 0.625 0.375
0.4867 -0.75233 1.74953 0.625 0.375
0.12565 -0.75233 1.74953 0.625 0.375
0.12565 -0.62782 1.78081 0.625 0.375
0.12565 -0.62782 1.78081 0.125 0.375
0.12565 -0.62782 1.84174 0.125 0.375
0.14909 -0.62782 1.85574 0.125 0.375
0.14907 -0.62782 1.78081 0.125 0.375
0.12552 -0.62782 1.89413 0.125 0.375
0.14911 -0.62782 1.89466 0.125 0.375
-0.47983 -0.3098 1.2871 0.375 0.375
0.47983 -0.3098 1.2871 0.375 0.375
0.58211 0.49751 1.67401 0.375 0.375
0.58211 0.58679 1.5971 0.375 0.375
0.49238 0.64715 1.65174 0.375 0.375
0.49244 0.56065 1.72864 0.375 0.375
0.49268 0.64715 0.30889 0.375 0.375
0.58262 0.58679 0.30889 0.375 0.375
0.58262 -0.23065 0.30889 0.375 0.375
0.50968 0.52437 0.24163 0.375 0.375
0.43203 0.57743 0.24163 0.375 0.375
0.42172 0.06825 0.24163 0.375 0.375
0.35755 0.14043 0.24163 0.375 0.375
-0.35755 0.14043 0.24163 0.375 0.375
-0.43203 0.57743 0.24163 0.375 0.375
0.50968 -0.17004 0.24163 0.375 0.375
-0.49238 0.64715 1.65174 0.375 0.375
-0.49268 0.64715 0.30889 0.375 0.375
-0.42172 0.06825 0.24163 0.375 0.375
-0.50968 0.52437 0.24163 0.375 0.375
-0.58211 0.58679 1.5971 0.375 0.375
-0.58211 0.49751 1.67401 0.375 0.375
-0.49244 0.56065 1.72864 0.375 0.375
-0.49165 0.45283 1.72864 0.375 0.375
0.49165 0.45283 1.72864 0.375 0.375
-0.49282 0.45283 2.30272 0.375 0.375
0.49282 0.45283 2.30272 0.375 0.375
0.43532 0.38488 2.36515 0.375 0.375
-0.43532 0.38488 2.36515 0.375 0.375
-0.58262 0.58679 0.30889 0.375 0.375
-0.58262 -0.23065 0.30889 0.375 0.375
-0.48018 -0.30977 0.30889 0.375 0.375
-0.42132 -0.30977 0.30889 0.375 0.375
-0.42123 -0.30979 1.11526 0.375 0.375
-0.42168 -0.2396 0.24163 0.375 0.375
-0.50968 -0.17004 0.24163 0.375 0.375
-0.36241 -0.30979 1.17379 0.375 0.375
0.36241 -0.30979 1.17379 0.375 0.375
0.42123 -0.30979 1.11526 0.375 0.375
0.42132 -0.30977 0.30889 0.375 0.375
0.48018 -0.30977 0.30889 0.375 0.375
0.42168 -0.2396 0.24163 0.375 0.375
0 -0.84833 1.82162 0.625 0.375
-0.12565 -0.84833 1.82162 0.625 0.375
-0.12565 -0.82103 1.84174 0.625 0.375
0.12565 -0.82103 1.84174 0.625 0.375
-0.12565 -0.62782 1.84174 0.625 0.375
0.12565 -0.62782 1.84174 0.625 0.375
0.12565 -0.84833 1.82162 0.625 0.375
-0.12565 -0.75233 1.60881 0.375 0.375
0.04043 -0.83892 1.65196 0.375 0.625
0.04044 -0.83892 1.69539 0.375 0.625
0.05931 -0.83892 1.69539 0.375 0.625
0.05928 -0.83892 1.65196 0.375 0.625
0.04043 -0.84833 1.65196 0.375 0.625
0.05928 -0.84833 1.65196 0.375 0.625
0.05931 -0.84833 1.69539 0.375 0.625
0.04044 -0.84833 1.69539 0.375 0.625
-0.1963 -0.61472 1.83005 0.375 0.125
-0.26734 -0.61472 1.83005 0.375 0.125
-0.26734 -0.61472 1.87886 0.375 0.125
-0.1963 -0.61472 1.87886 0.375 0.125
-0.33723 -0.61472 1.77647 0.625 0.625
-0.33723 -0.59583 1.77647 0.625 0.625
-0.33723 -0.59583 1.80848 0.625 0.625
-0.33723 -0.61472 1.80848 0.625 0.625
-0.13667 -0.61472 1.77647 0.625 0.625
-0.13667 -0.61472 1.80848 0.625 0.625
-0.13667 -0.59583 1.77647 0.625 0.625
-0.13667 -0.59583 1.80848 0.625 0.625
-0.33723 -0.61472 1.96939 0.375 0.875
-0.13667 -0.61472 1.96939 0.375 0.875
-0.1963 -0.61472 1.87886 0.375 0.875
-0.26734 -0.61472 1.87886 0.375 0.875
-0.26734 -0.61472 1.83005 0.375 0.875
-0.33723 -0.61472 1.80848 0.375 0.875
-0.33723 -0.59583 1.96939 0.375 0.875
-0.33723 -0.59583 1.80848 0.375 0.875
-0.13667 -0.61472 1.80848 0.375 0.875
-0.13667 -0.59583 1.80848 0.375 0.875
-0.13667 -0.59583 1.96939 0.375 0.875
-0.1963 -0.61472 1.83005 0.375 0.875
-0.24805 -0.74066 1.56948 0.375 0.125
-0.33156 -0.74066 1.56948 0.375 0.125
-0.33156 -0.74066 1.65034 0.375 0.125
-0.24805 -0.74066 1.65034 0.375 0.125
-0.24805 -0.6598 1.56948 0.375 0.125
-0.33156 -0.6598 1.56948 0.375 0.125
-0.33156 -0.6598 1.65034 0.375 0.125
-0.24805 -0.6598 1.65034 0.375 0.125
-0.44048 -0.59843 1.78081 0.375 0.125
-0.44048 -0.59843 2.02166 0.375 0.125
-0.14907 -0.59843 1.78081 0.375 0.125
-0.14907 -0.62782 1.78081 0.375 0.375
-0.14907 -0.59843 1.78081 0.375 0.375
-0.14909 -0.62782 1.85574 0.375 0.375
-0.44048 -0.62782 1.78081 0.625 0.375
-0.14907 -0.62782 1.78081 0.625 0.375
-0.51669 -0.71191 1.78081 0.625 0.375
-0.51615 -0.62782 1.78081 0.625 0.375
-0.12565 -0.71191 1.78081 0.625 0.375
-0.4867 -0.75233 1.74953 0.625 0.375
-0.12565 -0.75233 1.74953 0.625 0.375
-0.12565 -0.62782 1.78081 0.625 0.375
-0.12565 -0.62782 1.78081 0.125 0.375
-0.14907 -0.62782 1.78081 0.125 0.375
-0.14909 -0.62782 1.85574 0.125 0.375
-0.12565 -0.62782 1.84174 0.125 0.375
-0.12552 -0.62782 1.89413 0.125 0.375
-0.14911 -0.62782 1.89466 0.125 0.375
-0.04043 -0.83892 1.65196 0.375 0.625
-0.05928 -0.83892 1.65196 0.375 0.625
-0.05931 -0.83892 1.69539 0.375 0.625
-0.04044 -0.83892 1.69539 0.375 0.625
-0.04043 -0.84833 1.65196 0.375 0.625
-0.05928 -0.84833 1.65196 0.375 0.625
-0.05931 -0.84833 1.69539 0.375 0.625
-0.04044 -0.84833 1.69539 0.375 0.625
0.48211 -0.43804 0.80228 0.375 0.375
0.48211 -0.5571 1.07474 0.375 0.375
0.74571 -0.5571 1.07474 0.375 0.375
0.74571 -0.43804 0.80228 0.375 0.375
0.45575 -0.38031 0.79505 0.375 0.375
0.77207 -0.38031 0.79505 0.375 0.375
0.77207 -0.52318 1.12201 0.375 0.375
0.77207 0.08867 1.38851 0.375 0.375
0.77207 0.231 1.0605 0.375 0.375
0.45575 -0.52318 1.12201 0.375 0.375
0.45575 0.08867 1.38851 0.375 0.375
0.45575 0.231 1.0605 0.375 0.375
0.45575 0.08867 1.38851 0.625 0.375
0.77207 0.08867 1.38851 0.625 0.375
0.77207 -0.52318 1.12201 0.625 0.375
0.45575 -0.52318 1.12201 0.625 0.375
0.48211 -0.5571 1.07474 0.625 0.375
0.74571 -0.5571 1.07474 0.625 0.375
0.4944 0.15717 1.38061 0.375 0.375
0.4944 0.27382 1.11252 0.375 0.375
0.73342 0.27382 1.11252 0.375 0.375
0.73342 0.15717 1.38061 0.375 0.375
0.4944 0.15717 1.38061 0.625 0.375
0.73342 0.15717 1.38061 0.625 0.375
0.64782 -0.46431 0.79914 0.125 0.125
0.64782 -0.50361 0.88906 0.125 0.125
0.74595 -0.50361 0.88906 0.125 0.125
0.74595 -0.46431 0.79914 0.125 0.125
0.74595 -0.47284 0.90318 0.125 0.125
0.64782 -0.47284 0.90318 0.125 0.125
0.74595 -0.43355 0.81325 0.125 0.125
0.64782 -0.43355 0.81325 0.125 0.125
0.64782 -0.53724 0.95963 0.125 0.125
0.64782 -0.57654 1.04955 0.125 0.125
0.74595 -0.57654 1.04955 0.125 0.125
0.74595 -0.53724 0.95963 0.125 0.125
0.74595 -0.54577 1.06367 0.125 0.125
0.64782 -0.54577 1.06367 0.125 0.125
0.74595 -0.50648 0.97375 0.125 0.125
0.64782 -0.50648 0.97375 0.125 0.125
0.49611 -0.53724 0.95963 0.125 0.125
0.49611 -0.57654 1.04955 0.125 0.125
0.59424 -0.57654 1.04955 0.125 0.125
0.59424 -0.53724 0.95963 0.125 0.125
0.59424 -0.54577 1.06367 0.125 0.125
0.49611 -0.54577 1.06367 0.125 0.125
0.59424 -0.50648 0.97375 0.125 0.125
0.49611 -0.50648 0.97375 0.125 0.125
0.65033 -0.2449 2.44963 0.125 0.875
0.70627 -0.19868 2.50307 0.125 0.875
1.11988 0.14312 2.50307 0.125 0.875
0.93138 -0.01265 2.38368 0.125 0.875
1.17581 0.18935 2.44963 0.125 0.875
0.97563 0.02392 2.34319 0.125 0.875
0.97563 0.02392 2.05678 0.125 0.875
1.17581 0.18935 1.94662 0.125 0.875
0.93138 -0.01265 2.01762 0.125 0.875
1.11988 0.14312 1.89318 0.125 0.875
0.65033 -0.2449 1.94662 0.125 0.875
0.65033 -0.2449 2.01762 0.125 0.875
0.65033 -0.2449 2.38368 0.125 0.875
0.70627 -0.19868 1.89318 0.125 0.875
0.56275 -0.31728 2.53346 0.625 0.375
0.45176 -0.18296 2.53346 0.625 0.375
0.52634 -0.12133 2.60472 0.625 0.375
0.63733 -0.25565 2.60472 0.625 0.375
0.45176 -0.18296 2.53346 0.375 0.375
0.45176 -0.18296 1.86278 0.375 0.375
0.52634 -0.12133 1.79153 0.375 0.375
0.52634 -0.12133 2.60472 0.375 0.375
0.61286 -0.04985 2.60472 0.375 0.375
0.52634 -0.12133 2.73029 0.375 0.375
0.61286 -0.04985 2.73029 0.375 0.375
0.72385 -0.18416 2.60472 0.375 0.375
0.72385 -0.18416 2.73029 0.375 0.375
1.07782 0.33441 2.60472 0.375 0.375
1.07782 0.33441 1.79153 0.375 0.375
0.63733 -0.25565 1.79153 0.375 0.375
1.18882 0.20009 1.79153 0.375 0.375
1.11988 0.14312 1.89318 0.375 0.375
0.70627 -0.19868 1.89318 0.375 0.375
0.56275 -0.31728 1.86278 0.375 0.375
0.56275 -0.31728 2.53346 0.375 0.375
0.65033 -0.2449 1.94662 0.375 0.375
0.65033 -0.2449 2.01762 0.375 0.375
1.17581 0.18935 1.94662 0.375 0.375
1.26339 0.26172 1.86278 0.375 0.375
1.26339 0.26172 2.28189 0.375 0.375
0.65033 -0.2449 2.38368 0.375 0.375
0.65033 -0.2449 2.44963 0.375 0.375
0.63733 -0.25565 2.60472 0.375 0.375
0.70627 -0.19868 2.50307 0.375 0.375
1.26339 0.26172 2.39903 0.375 0.375
1.35847 0.34029 2.28189 0.375 0.375
1.24748 0.4746 2.28189 0.375 0.375
1.1524 0.39604 2.28189 0.375 0.375
1.35847 0.34029 2.39903 0.375 0.375
1.17581 0.18935 2.44963 0.375 0.375
1.26339 0.26172 2.48414 0.375 0.375
1.11988 0.14312 2.50307 0.375 0.375
1.18882 0.20009 2.60472 0.375 0.375
0.63733 -0.25565 2.73029 0.375 0.375
1.40593 0.37951 2.48414 0.375 0.375
1.40593 0.37951 2.6042 0.375 0.375
1.1524 0.39604 2.48414 0.375 0.375
1.1524 0.39604 2.39903 0.375 0.375
1.29494 0.51383 2.48414 0.375 0.375
1.29494 0.51383 2.6042 0.375 0.375
1.24748 0.4746 2.39903 0.375 0.375
1.1524 0.39604 1.86278 0.375 0.375
0.52634 -0.12133 2.73029 0.625 0.375
0.61286 -0.04985 2.73029 0.625 0.375
0.72385 -0.18416 2.73029 0.625 0.375
0.63733 -0.25565 2.73029 0.625 0.375
0.93138 -0.01265 2.38368 0.125 0.625
0.97563 0.02392 2.34319 0.125 0.625
0.97563 0.02392 2.05678 0.125 0.625
0.93138 -0.01265 2.01762 0.125 0.625
0.65033 -0.2449 2.01762 0.125 0.625
0.65033 -0.2449 2.38368 0.125 0.625
0.61286 -0.04985 2.60472 0.625 0.375
1.07782 0.33441 2.60472 0.625 0.375
1.18882 0.20009 2.60472 0.625 0.375
0.72385 -0.18416 2.60472 0.625 0.375
1.40593 0.37951 2.6042 0.625 0.375
1.29494 0.51383 2.6042 0.625 0.375
1.1524 0.39604 2.39903 0.625 0.375
1.24748 0.4746 2.39903 0.625 0.375
1.35847 0.34029 2.39903 0.625 0.375
1.26339 0.26172 2.39903 0.625 0.375
-0.65033 -0.2449 2.44963 0.125 0.875
-1.11988 0.14312 2.50307 0.125 0.875
-0.70627 -0.19868 2.50307 0.125 0.875
-0.93138 -0.01265 2.38368 0.125 0.875
-1.17581 0.18935 2.44963 0.125 0.875
-0.97563 0.02392 2.34319 0.125 0.875
-0.97563 0.02392 2.05678 0.125 0.875
-1.17581 0.18935 1.94662 0.125 0.875
-0.93138 -0.01265 2.01762 0.125 0.875
-1.11988 0.14312 1.89318 0.125 0.875
-0.65033 -0.2449 1.94662 0.125 0.875
-0.65033 -0.2449 2.01762 0.125 0.875
-0.65033 -0.2449 2.38368 0.125 0.875
-0.70627 -0.19868 1.89318 0.125 0.875
-0.56275 -0.31728 2.53346 0.625 0.375
-0.63733 -0.25565 2.60472 0.625 0.375
-0.52634 -0.12133 2.60472 0.625 0.375
-0.45176 -0.18296 2.53346 0.625 0.375
-0.45176 -0.18296 2.53346 0.375 0.375
-0.52634 -0.12133 2.60472 0.375 0.375
-0.52634 -0.12133 1.79153 0.375 0.375
-0.45176 -0.18296 1.86278 0.375 0.375
-0.61286 -0.04985 2.60472 0.375 0.375
-0.52634 -0.12133 2.73029 0.375 0.375
-0.61286 -0.04985 2.73029 0.375 0.375
-0.72385 -0.18416 2.60472 0.375 0.375
-0.72385 -0.18416 2.73029 0.375 0.375
-1.07782 0.33441 2.60472 0.375 0.375
-1.07782 0.33441 1.79153 0.375 0.375
-0.63733 -0.25565 1.79153 0.375 0.375
-1.18882 0.20009 1.79153 0.375 0.375
-1.11988 0.14312 1.89318 0.375 0.375
-0.70627 -0.19868 1.89318 0.375 0.375
-0.56275 -0.31728 1.86278 0.375 0.375
-0.56275 -0.31728 2.53346 0.375 0.375
-0.65033 -0.2449 1.94662 0.375 0.375
-0.65033 -0.2449 2.01762 0.375 0.375
-1.17581 0.18935 1.94662 0.375 0.375
-1.26339 0.26172 1.86278 0.375 0.375
-1.26339 0.26172 2.28189 0.375 0.375
-0.65033 -0.2449 2.38368 0.375 0.375
-0.65033 -0.2449 2.44963 0.375 0.375
-0.63733 -0.25565 2.60472 0.375 0.375
-0.70627 -0.19868 2.50307 0.375 0.375
-1.26339 0.26172 2.39903 0.375 0.375
-1.35847 0.34029 2.28189 0.375 0.375
-1.24748 0.4746 2.28189 0.375 0.375
-1.1524 0.39604 2.28189 0.375 0.375
-1.35847 0.34029 2.39903 0.375 0.375
-1.17581 0.18935 2.44963 0.375 0.375
-1.26339 0.26172 2.48414 0.375 0.375
-1.11988 0.14312 2.50307 0.375 0.375
-1.18882 0.20009 2.60472 0.375 0.375
-0.63733 -0.25565 2.73029 0.375 0.375
-1.40593 0.37951 2.48414 0.375 0.375
-1.40593 0.37951 2.6042 0.375 0.375
-1.1524 0.39604 2.39903 0.375 0.375
-1.1524 0.39604 2.48414 0.375 0.375
-1.29494 0.51383 2.48414 0.375 0.375
-1.29494 0.51383 2.6042 0.375 0.375
-1.24748 0.4746 2.39903 0.375 0.375
-1.1524 0.39604 1.86278 0.375 0.375
-0.52634 -0.12133 2.73029 0.625 0.375
-0.63733 -0.25565 2.73029 0.625 0.375
-0.72385 -0.18416 2.73029 0.625 0.375
-0.61286 -0.04985 2.73029 0.625 0.375
-0.65033 -0.2449 2.01762 0.125 0.625
-0.93138 -0.01265 2.01762 0.125 0.625
-0.93138 -0.01265 2.38368 0.125 0.625
-0.65033 -0.2449 2.38368 0.125 0.625
-0.97563 0.02392 2.34319 0.125 0.625
-0.97563 0.02392 2.05678 0.125 0.625
-0.61286 -0.04985 2.60472 0.625 0.375
-0.72385 -0.18416 2.60472 0.625 0.375
-1.18882 0.20009 2.60472 0.625 0.375
-1.07782 0.33441 2.60472 0.625 0.375
-1.40593 0.37951 2.6042 0.625 0.375
-1.29494 0.51383 2.6042 0.625 0.375
-1.1524 0.39604 2.39903 0.625 0.375
-1.26339 0.26172 2.39903 0.625 0.375
-1.35847 0.34029 2.39903 0.625 0.375
-1.24748 0.4746 2.39903 0.625 0.375
-0.26492 0.44509 0.87011 0.625 0.375
-0.19238 1.33012 0.79757 0.625 0.375
0.19238 1.33012 0.79757 0.625 0.375
0.26492 0.44509 0.87011 0.625 0.375
0.15128 1.37783 0.75646 0.625 0.375
-0.15128 1.37783 0.75646 0.625 0.375
-0.15128 1.37783 0.75646 0.375 0.375
-0.15128 1.37783 0.45391 0.375 0.375
0.15128 1.37783 0.45391 0.375 0.375
0.15128 1.37783 0.75646 0.375 0.375
0.19238 1.33012 0.79757 0.375 0.375
0.19238 1.33012 0.4128 0.375 0.375
-0.19238 1.33012 0.4128 0.375 0.375
0.26492 0.44509 0.34026 0.375 0.375
-0.26492 0.44509 0.34026 0.375 0.375
-0.19238 1.33012 0.79757 0.375 0.375
0.26492 0.44509 0.87011 0.375 0.375
-0.26492 0.44509 0.87011 0.375 0.375
0.19516 0.61165 1.5174 0.625 0.375
0.23353 0.85515 1.47903 0.625 0.375
0.41801 0.85515 1.47903 0.625 0.375
0.45638 0.61165 1.5174 0.625 0.375
0.39956 0.87926 1.46058 0.625 0.375
0.25198 0.87926 1.46058 0.625 0.375
0.25198 0.87926 1.46058 0.375 0.375
0.25198 0.87926 1.313 0.375 0.375
0.39956 0.87926 1.313 0.375 0.375
0.39956 0.87926 1.46058 0.375 0.375
0.41801 0.85515 1.47903 0.375 0.375
0.41801 0.85515 1.29455 0.375 0.375
0.45638 0.61165 1.25618 0.375 0.375
0.23353 0.85515 1.29455 0.375 0.375
0.19516 0.61165 1.25618 0.375 0.375
0.45638 0.61165 1.5174 0.375 0.375
0.19516 0.61165 1.5174 0.375 0.375
0.23353 0.85515 1.47903 0.375 0.375
0.15412 0.60448 1.13352 0.625 0.375
0.17851 0.76079 1.10914 0.625 0.375
0.29576 0.76079 1.10914 0.625 0.375
0.32015 0.60448 1.13352 0.625 0.375
0.28404 0.7849 1.09741 0.625 0.375
0.19024 0.7849 1.09741 0.625 0.375
0.19024 0.7849 1.09741 0.375 0.375
0.19024 0.7849 1.00361 0.375 0.375
0.28404 0.7849 1.00361 0.375 0.375
0.28404 0.7849 1.09741 0.375 0.375
0.29576 0.76079 1.10914 0.375 0.375
0.29576 0.76079 0.99188 0.375 0.375
0.32015 0.60448 0.96749 0.375 0.375
0.17851 0.76079 0.99188 0.375 0.375
0.15412 0.60448 0.96749 0.375 0.375
0.32015 0.60448 1.13352 0.375 0.375
0.15412 0.60448 1.13352 0.375 0.375
0.17851 0.76079 1.10914 0.375 0.375
-0.19516 0.61165 1.5174 0.625 0.375
-0.45638 0.61165 1.5174 0.625 0.375
-0.41801 0.85515 1.47903 0.625 0.375
-0.23353 0.85515 1.47903 0.625 0.375
-0.25198 0.87926 1.46058 0.625 0.375
-0.39956 0.87926 1.46058 0.625 0.375
-0.25198 0.87926 1.46058 0.375 0.375
-0.39956 0.87926 1.46058 0.375 0.375
-0.39956 0.87926 1.313 0.375 0.375
-0.25198 0.87926 1.313 0.375 0.375
-0.23353 0.85515 1.47903 0.375 0.375
-0.23353 0.85515 1.29455 0.375 0.375
-0.19516 0.61165 1.5174 0.375 0.375
-0.19516 0.61165 1.25618 0.375 0.375
-0.45638 0.61165 1.25618 0.375 0.375
-0.41801 0.85515 1.29455 0.375 0.375
-0.41801 0.85515 1.47903 0.375 0.375
-0.45638 0.61165 1.5174 0.375 0.375
-0.15412 0.60448 1.13352 0.625 0.375
-0.32015 0.60448 1.13352 0.625 0.375
-0.29576 0.76079 1.10914 0.625 0.375
-0.17851 0.76079 1.10914 0.625 0.375
-0.19024 0.7849 1.09741 0.625 0.375
-0.28404 0.7849 1.09741 0.625 0.375
-0.19024 0.7849 1.09741 0.375 0.375
-0.28404 0.7849 1.09741 0.375 0.375
-0.28404 0.7849 1.00361 0.375 0.375
-0.19024 0.7849 1.00361 0.375 0.375
-0.17851 0.76079 1.10914 0.375 0.375
-0.17851 0.76079 0.99188 0.375 0.375
-0.15412 0.60448 1.13352 0.375 0.375
-0.15412 0.60448 0.96749 0.375 0.375
-0.32015 0.60448 0.96749 0.375 0.375
-0.29576 0.76079 0.99188 0.375 0.375
-0.29576 0.76079 1.10914 0.375 0.375
-0.32015 0.60448 1.13352 0.375 0.375
-0.43532 0.38488 2.36515 0.625 0.375
0.43532 0.38488 2.36515 0.625 0.375
0.42123 -0.30979 1.11526 0.875 0.375
0.42132 -0.30977 0.30889 0.875 0.375
-0.42132 -0.30977 0.30889 0.875 0.375
0.36241 -0.30979 1.17379 0.875 0.375
-0.36241 -0.30979 1.17379 0.875 0.375
-0.42123 -0.30979 1.11526 0.875 0.375
0.42168 -0.2396 0.24163 0.875 0.375
-0.42168 -0.2396 0.24163 0.875 0.375
-0.42172 0.06825 0.24163 0.875 0.375
0.42172 0.06825 0.24163 0.875 0.375
-0.35755 0.14043 0.24163 0.875 0.375
0.35755 0.14043 0.24163 0.875 0.375
0.57884 0.32497 0.92471 0.625 0.875
0.57884 0.32497 1.07718 0.625 0.875
0.59358 0.32497 1.07718 0.625 0.875
0.59358 0.32497 0.92471 0.625 0.875
0.59358 0.47562 1.07718 0.625 0.875
0.57884 0.47562 1.07718 0.625 0.875
0.57884 0.47562 0.92471 0.625 0.875
0.59358 0.47562 0.92471 0.625 0.875
-0.57884 0.32497 0.92471 0.625 0.875
-0.59358 0.32497 0.92471 0.625 0.875
-0.59358 0.32497 1.07718 0.625 0.875
-0.57884 0.32497 1.07718 0.625 0.875
-0.59358 0.47562 1.07718 0.625 0.875
-0.57884 0.47562 1.07718 0.625 0.875
-0.57884 0.47562 0.92471 0.625 0.875
-0.59358 0.47562 0.92471 0.625 0.875
-0.29585 -0.00871 0.00171 0.375 0.375
-0.3637 -0.06533 0.00171 0.375 0.375
-0.3637 -0.06533 0.08111 0.375 0.375
-0.29585 -0.00871 0.08111 0.375 0.375
-0.29585 0.45285 0.00171 0.375 0.375
-0.3637 0.50947 0.00171 0.375 0.375
-0.29585 0.45285 0.08111 0.375 0.375
-0.68636 0.50947 0.00171 0.375 0.375
-0.68636 -0.06533 0.00171 0.375 0.375
-0.3637 -0.15254 0.30406 0.375 0.375
-0.68636 -0.15254 0.30406 0.375 0.375
-0.68636 -0.15254 0.4257 0.375 0.375
-0.3637 -0.15254 0.4257 0.375 0.375
-0.3637 -0.07291 0.76082 0.375 0.375
-0.68636 -0.07291 0.76082 0.375 0.375
-0.75112 -0.09592 0.4257 0.375 0.375
-0.75112 -0.01629 0.7609 0.375 0.375
-0.65925 -0.0259 0.80509 0.375 0.375
-0.39036 -0.0259 0.80509 0.375 0.375
-0.29585 -0.01629 0.7609 0.375 0.375
-0.33382 0.02128 0.80515 0.375 0.375
-0.29585 0.44527 0.76155 0.375 0.375
-0.33382 0.40757 0.8057 0.375 0.375
-0.71321 0.02128 0.80515 0.375 0.375
-0.71321 0.40757 0.8057 0.375 0.375
-0.75112 0.44527 0.76155 0.375 0.375
-0.29585 -0.09592 0.4257 0.375 0.375
-0.75112 0.36564 0.4257 0.375 0.375
-0.29585 -0.09592 0.30406 0.375 0.375
-0.75112 -0.09592 0.30406 0.375 0.375
-0.75112 0.36564 0.30406 0.375 0.375
-0.29585 0.36564 0.30406 0.375 0.375
-0.29585 0.36564 0.4257 0.375 0.375
-0.3637 0.42226 0.30406 0.375 0.375
-0.3637 0.42226 0.4257 0.375 0.375
-0.3637 0.50189 0.76163 0.375 0.375
-0.39036 0.45475 0.80576 0.375 0.375
-0.68636 0.50189 0.76163 0.375 0.375
-0.65925 0.45475 0.80576 0.375 0.375
-0.68636 0.42226 0.4257 0.375 0.375
-0.68636 0.42226 0.30406 0.375 0.375
-0.68636 0.50947 0.08111 0.375 0.375
-0.3637 0.50947 0.08111 0.375 0.375
-0.75112 0.45285 0.08111 0.375 0.375
-0.75112 0.45285 0.00171 0.375 0.375
-0.75112 -0.00871 0.00171 0.375 0.375
-0.75112 -0.00871 0.08111 0.375 0.375
-0.68636 -0.06533 0.08111 0.375 0.375
-0.71321 0.02128 0.80515 0.625 0.375
-0.33382 0.02128 0.80515 0.625 0.375
-0.39036 -0.0259 0.80509 0.625 0.375
-0.65925 -0.0259 0.80509 0.625 0.375
-0.71321 0.40757 0.8057 0.625 0.375
-0.33382 0.40757 0.8057 0.625 0.375
-0.65925 0.45475 0.80576 0.625 0.375
-0.39036 0.45475 0.80576 0.625 0.375
-0.66131 -0.1173 0.00171 0.125 0.125
-0.66131 -0.1173 0.08111 0.125 0.125
-0.38875 -0.1173 0.08111 0.125 0.125
-0.38875 -0.1173 0.00171 0.125 0.125
-0.3637 -0.06533 0.08111 0.125 0.125
-0.68636 -0.06533 0.08111 0.125 0.125
-0.68636 -0.06533 0.00171 0.125 0.125
-0.3637 -0.06533 0.00171 0.125 0.125
-0.74501 0.13123 0.43621 0.625 0.875
-0.75974 0.13123 0.43621 0.625 0.875
-0.75974 0.13123 0.63833 0.625 0.875
-0.74501 0.13123 0.63833 0.625 0.875
-0.75974 0.31495 0.63833 0.625 0.875
-0.74501 0.31495 0.63833 0.625 0.875
-0.74501 0.31495 0.43621 0.625 0.875
-0.75974 0.31495 0.43621 0.625 0.875
-0.74501 -0.01905 0.3029 0.625 0.875
-0.75974 -0.01905 0.3029 0.625 0.875
-0.75974 -0.01905 0.40958 0.625 0.875
-0.74501 -0.01905 0.40958 0.625 0.875
-0.75974 0.06629 0.40958 0.625 0.875
-0.74501 0.06629 0.40958 0.625 0.875
-0.74501 0.06629 0.3029 0.625 0.875
-0.75974 0.06629 0.3029 0.625 0.875
0.29585 -0.00871 0.00171 0.375 0.375
0.29585 -0.00871 0.08111 0.375 0.375
0.3637 -0.06533 0.08111 0.375 0.375
0.3637 -0.06533 0.00171 0.375 0.375
0.29585 0.45285 0.00171 0.375 0.375
0.3637 0.50947 0.00171 0.375 0.375
0.29585 0.45285 0.08111 0.375 0.375
0.68636 0.50947 0.00171 0.375 0.375
0.68636 -0.06533 0.00171 0.375 0.375
0.3637 -0.15254 0.30406 0.375 0.375
0.68636 -0.15254 0.30406 0.375 0.375
0.68636 -0.15254 0.4257 0.375 0.375
0.3637 -0.15254 0.4257 0.375 0.375
0.3637 -0.07291 0.76082 0.375 0.375
0.68636 -0.07291 0.76082 0.375 0.375
0.75112 -0.09592 0.4257 0.375 0.375
0.75112 -0.01629 0.7609 0.375 0.375
0.65925 -0.0259 0.80509 0.375 0.375
0.39036 -0.0259 0.80509 0.375 0.375
0.29585 -0.01629 0.7609 0.375 0.375
0.33382 0.02128 0.80515 0.375 0.375
0.29585 0.44527 0.76155 0.375 0.375
0.33382 0.40757 0.8057 0.375 0.375
0.71321 0.02128 0.80515 0.375 0.375
0.71321 0.40757 0.8057 0.375 0.375
0.75112 0.44527 0.76155 0.375 0.375
0.29585 -0.09592 0.4257 0.375 0.375
0.75112 0.36564 0.4257 0.375 0.375
0.29585 -0.09592 0.30406 0.375 0.375
0.75112 -0.09592 0.30406 0.375 0.375
0.75112 0.36564 0.30406 0.375 0.375
0.29585 0.36564 0.30406 0.375 0.375
0.29585 0.36564 0.4257 0.375 0.375
0.3637 0.42226 0.30406 0.375 0.375
0.3637 0.42226 0.4257 0.375 0.375
0.3637 0.50189 0.76163 0.375 0.375
0.39036 0.45475 0.80576 0.375 0.375
0.68636 0.50189 0.76163 0.375 0.375
0.65925 0.45475 0.80576 0.375 0.375
0.68636 0.42226 0.4257 0.375 0.375
0.68636 0.42226 0.30406 0.375 0.375
0.68636 0.50947 0.08111 0.375 0.375
0.3637 0.50947 0.08111 0.375 0.375
0.75112 0.45285 0.08111 0.375 0.375
0.75112 0.45285 0.00171 0.375 0.375
0.75112 -0.00871 0.00171 0.375 0.375
0.75112 -0.00871 0.08111 0.375 0.375
0.68636 -0.06533 0.08111 0.375 0.375
0.71321 0.02128 0.80515 0.625 0.375
0.65925 -0.0259 0.80509 0.625 0.375
0.39036 -0.0259 0.80509 0.625 0.375
0.33382 0.02128 0.80515 0.625 0.375
0.71321 0.40757 0.8057 0.625 0.375
0.33382 0.40757 0.8057 0.625 0.375
0.65925 0.45475 0.80576 0.625 0.375
0.39036 0.45475 0.80576 0.625 0.375
0.66131 -0.1173 0.00171 0.125 0.125
0.38875 -0.1173 0.00171 0.125 0.125
0.38875 -0.1173 0.08111 0.125 0.125
0.66131 -0.1173 0.08111 0.125 0.125
0.3637 -0.06533 0.08111 0.125 0.125
0.68636 -0.06533 0.08111 0.125 0.125
0.68636 -0.06533 0.00171 0.125 0.125
0.3637 -0.06533 0.00171 0.125 0.125
0.74501 0.13123 0.43621 0.625 0.875
0.74501 0.13123 0.63833 0.625 0.875
0.75974 0.13123 0.63833 0.625 0.875
0.75974 0.13123 0.43621 0.625 0.875
0.75974 0.31495 0.63833 0.625 0.875
0.74501 0.31495 0.63833 0.625 0.875
0.74501 0.31495 0.43621 0.625 0.875
0.75974 0.31495 0.43621 0.625 0.875
0.74501 -0.01905 0.3029 0.625 0.875
0.74501 -0.01905 0.40958 0.625 0.875
0.75974 -0.01905 0.40958 0.625 0.875
0.75974 -0.01905 0.3029 0.625 0.875
0.75974 0.06629 0.40958 0.625 0.875
0.74501 0.06629 0.40958 0.625 0.875
0.74501 0.06629 0.3029 0.625 0.875
0.75974 0.06629 0.3029 0.625 0.875
-0.48211 -0.43804 0.80228 0.375 0.375
-0.74571 -0.43804 0.80228 0.375 0.375
-0.74571 -0.5571 1.07474 0.375 0.375
-0.48211 -0.5571 1.07474 0.375 0.375
-0.45575 -0.38031 0.79505 0.375 0.375
-0.77207 -0.38031 0.79505 0.375 0.375
-0.77207 -0.52318 1.12201 0.375 0.375
-0.77207 0.08867 1.38851 0.375 0.375
-0.77207 0.231 1.0605 0.375 0.375
-0.45575 -0.52318 1.12201 0.375 0.375
-0.45575 0.08867 1.38851 0.375 0.375
-0.45575 0.231 1.0605 0.375 0.375
-0.45575 0.08867 1.38851 0.625 0.375
-0.45575 -0.52318 1.12201 0.625 0.375
-0.77207 -0.52318 1.12201 0.625 0.375
-0.77207 0.08867 1.38851 0.625 0.375
-0.48211 -0.5571 1.07474 0.625 0.375
-0.74571 -0.5571 1.07474 0.625 0.375
-0.4944 0.15717 1.38061 0.375 0.375
-0.73342 0.15717 1.38061 0.375 0.375
-0.73342 0.27382 1.11252 0.375 0.375
-0.4944 0.27382 1.11252 0.375 0.375
-0.73342 0.15717 1.38061 0.625 0.375
-0.4944 0.15717 1.38061 0.625 0.375
-0.64782 -0.46431 0.79914 0.125 0.125
-0.74595 -0.46431 0.79914 0.125 0.125
-0.74595 -0.50361 0.88906 0.125 0.125
-0.64782 -0.50361 0.88906 0.125 0.125
-0.74595 -0.47284 0.90318 0.125 0.125
-0.64782 -0.47284 0.90318 0.125 0.125
-0.74595 -0.43355 0.81325 0.125 0.125
-0.64782 -0.43355 0.81325 0.125 0.125
-0.64782 -0.53724 0.95963 0.125 0.125
-0.74595 -0.53724 0.95963 0.125 0.125
-0.74595 -0.57654 1.04955 0.125 0.125
-0.64782 -0.57654 1.04955 0.125 0.125
-0.74595 -0.54577 1.06367 0.125 0.125
-0.64782 -0.54577 1.06367 0.125 0.125
-0.74595 -0.50648 0.97375 0.125 0.125
-0.64782 -0.50648 0.97375 0.125 0.125
-0.49611 -0.53724 0.95963 0.125 0.125
-0.59424 -0.53724 0.95963 0.125 0.125
-0.59424 -0.57654 1.04955 0.125 0.125
-0.49611 -0.57654 1.04955 0.125 0.125
-0.59424 -0.54577 1.06367 0.125 0.125
-0.49611 -0.54577 1.06367 0.125 0.125
-0.59424 -0.50648 0.97375 0.125 0.125
-0.49611 -0.50648 0.97375 0.125 0.125
3 0 2 1
3 0 3 2
3 4 6 5
3 4 7 6
3 5 8 4
3 5 9 8
3 10 8 9
3 10 9 11
3 12 14 13
3 12 15 14
3 16 12 13
3 16 17 12
3 17 18 12
3 17 19 18
3 16 20 17
3 20 14 15
3 21 20 15
3 21 15 22
3 16 23 20
3 20 23 14
3 24 26 25
3 24 27 26
3 25 28 24
3 25 29 28
3 26 29 25
3 28 29 30
3 26 30 29
3 28 30 31
3 32 34 33
3 32 35 34
3 36 35 32
3 36 32 33
3 36 37 35
3 35 38 34
3 35 37 38
3 36 33 39
3 39 37 36
3 39 38 37
3 40 42 41
3 43 41 42
3 43 42 44
3 42 45 44
3 42 46 45
3 47 45 46
3 47 46 48
3 48 46 49
3 49 42 40
3 49 46 42
3 47 48 50
3 47 50 51
3 52 44 45
3 45 53 52
3 53 45 54
3 52 53 55
3 52 55 56
3 56 55 57
3 56 57 58
3 59 56 58
3 59 58 60
3 56 61 52
3 56 59 61
3 61 59 62
3 61 62 63
3 63 62 64
3 63 64 65
3 59 60 66
3 59 66 67
3 62 59 67
3 62 67 68
3 68 69 62
3 69 68 70
3 70 68 71
3 72 70 71
3 72 71 73
3 71 68 74
3 69 75 62
3 75 76 62
3 67 66 77
3 67 77 78
3 78 77 79
3 78 79 80
3 78 81 67
3 81 68 67
3 78 82 81
3 80 82 78
3 81 83 68
3 83 84 68
3 83 85 84
3 86 82 80
3 86 87 82
3 87 86 88
3 82 87 89
3 90 89 87
3 90 87 91
3 51 91 87
3 51 50 91
3 50 92 91
3 92 90 91
3 48 92 50
3 48 49 92
3 93 89 90
3 93 90 94
3 95 94 90
3 92 95 90
3 95 96 94
3 95 97 96
3 98 96 99
3 98 100 96
3 97 99 96
3 97 101 99
3 98 102 100
3 98 73 102
3 99 101 103
3 99 103 104
3 105 99 104
3 105 106 99
3 107 106 105
3 107 105 108
3 107 108 109
3 109 108 110
3 110 103 101
3 110 108 103
3 111 106 107
3 111 107 112
3 111 112 113
3 111 113 114
3 109 114 113
3 109 110 114
3 115 111 114
3 115 116 111
3 117 111 116
3 117 116 118
3 115 114 119
3 114 110 119
3 115 119 120
3 117 118 121
3 117 121 72
3 40 116 115
3 40 41 116
3 119 110 122
3 122 110 101
3 123 125 124
3 126 125 123
3 126 123 127
3 127 123 128
3 127 128 129
3 126 127 129
3 126 129 130
3 130 129 128
3 130 128 131
3 128 132 131
3 123 132 128
3 123 124 132
3 133 135 134
3 133 136 135
3 136 137 135
3 136 138 137
3 139 141 140
3 62 142 64
3 62 76 142
3 142 76 63
3 142 63 65
3 61 44 52
3 61 43 44
3 143 145 144
3 143 144 146
3 144 145 147
3 147 148 144
3 147 149 148
3 147 145 150
3 151 153 152
3 151 154 153
3 153 155 152
3 153 156 155
3 157 47 51
3 157 158 47
3 158 45 47
3 158 54 45
3 157 87 88
3 157 51 87
3 54 159 53
3 54 160 159
3 161 159 160
3 161 162 159
3 163 161 160
3 163 160 164
3 54 164 160
3 54 165 164
3 163 164 166
3 163 166 167
3 168 167 166
3 168 169 167
3 167 169 170
3 167 170 171
3 168 166 172
3 163 173 161
3 163 174 173
3 167 174 163
3 167 171 174
3 175 171 170
3 175 176 171
3 174 171 176
3 174 177 173
3 173 177 178
3 173 178 179
3 161 173 179
3 161 179 162
3 162 179 180
3 162 180 181
3 181 180 182
3 181 182 183
3 184 183 182
3 184 182 185
3 55 183 184
3 55 184 57
3 53 183 55
3 53 181 183
3 80 185 182
3 80 79 185
3 86 182 180
3 86 80 182
3 88 86 178
3 88 178 177
3 88 177 186
3 88 186 187
3 174 186 177
3 174 176 186
3 187 157 88
3 187 188 157
3 157 188 189
3 157 189 190
3 188 191 189
3 187 191 188
3 187 192 191
3 186 192 187
3 186 176 192
3 157 190 193
3 194 157 193
3 194 158 157
3 158 194 195
3 158 195 196
3 158 196 197
3 165 158 197
3 165 54 158
3 197 196 198
3 165 197 198
3 165 198 172
3 164 165 172
3 164 172 166
3 168 172 198
3 175 191 192
3 175 192 176
3 199 201 200
3 199 202 201
3 202 203 201
3 202 204 203
3 205 202 199
3 120 122 206
3 120 119 122
3 115 120 206
3 115 206 97
3 97 206 122
3 97 122 101
3 207 209 208
3 207 210 209
3 211 210 207
3 211 212 210
3 212 209 210
3 212 213 209
3 213 208 209
3 213 214 208
3 214 207 208
3 214 211 207
3 215 217 216
3 215 218 217
3 219 221 220
3 219 222 221
3 222 219 223
3 222 223 224
3 225 224 223
3 225 226 224
3 227 229 228
3 227 230 229
3 231 230 227
3 231 227 232
3 232 227 233
3 232 233 234
3 231 232 235
3 235 228 229
3 236 228 235
3 236 237 228
3 231 235 238
3 235 229 238
3 239 241 240
3 239 242 241
3 243 239 240
3 243 242 239
3 243 240 244
3 240 245 244
3 240 241 245
3 243 246 242
3 246 244 245
3 246 243 244
3 247 249 248
3 68 251 250
3 68 84 251
3 251 83 250
3 251 85 83
3 252 68 250
3 74 68 252
3 81 89 93
3 81 82 89
3 253 255 254
3 253 256 255
3 255 257 254
3 257 255 258
3 257 258 259
3 257 260 254
3 261 263 262
3 261 264 263
3 263 264 265
3 263 265 266
3 267 269 268
3 267 270 269
3 271 267 268
3 271 268 272
3 272 268 269
3 272 269 273
3 273 269 270
3 273 270 274
3 274 267 271
3 274 270 267
3 275 277 276
3 275 278 277
3 279 278 275
3 279 280 278
3 280 277 278
3 280 281 277
3 282 281 280
3 282 280 283
3 284 275 276
3 284 279 275
3 285 279 284
3 285 286 279
3 287 289 288
3 287 290 289
3 289 290 291
3 289 291 292
3 293 295 294
3 293 296 295
3 282 295 296
3 282 283 295
3 283 294 295
3 283 286 294
3 286 293 294
3 286 283 280
3 286 280 279
3 286 285 293
3 287 298 297
3 287 288 298
3 299 301 300
3 299 302 301
3 300 301 303
3 302 303 301
3 300 303 304
3 302 305 303
3 306 300 304
3 306 299 300
3 306 302 299
3 306 305 302
3 307 309 308
3 307 310 309
3 308 309 311
3 310 311 309
3 308 311 312
3 310 313 311
3 314 308 312
3 314 307 308
3 314 310 307
3 314 313 310
3 315 317 316
3 315 318 317
3 316 317 319
3 318 319 317
3 316 319 320
3 318 321 319
3 322 316 320
3 322 315 316
3 322 318 315
3 322 321 318
3 323 325 324
3 326 325 323
3 327 325 326
3 327 326 328
3 327 328 329
3 327 329 330
3 330 329 331
3 330 331 332
3 331 333 332
3 331 334 333
3 326 323 335
3 332 333 336
3 337 339 338
3 337 340 339
3 341 343 342
3 341 344 343
3 343 344 345
3 345 344 346
3 345 346 347
3 348 345 347
3 348 347 349
3 343 345 350
3 343 350 351
3 352 343 351
3 352 351 353
3 352 353 354
3 352 354 355
3 356 352 355
3 342 352 356
3 342 343 352
3 342 356 357
3 342 357 341
3 356 355 358
3 359 356 358
3 357 356 359
3 353 360 354
3 353 361 360
3 361 362 360
3 357 359 363
3 357 363 364
3 365 357 364
3 365 364 366
3 360 362 367
3 367 362 368
3 362 369 368
3 362 370 369
3 367 368 371
3 360 367 372
3 372 367 373
3 373 374 372
3 375 366 374
3 373 375 374
3 375 348 366
3 366 348 365
3 365 348 349
3 365 349 376
3 344 365 376
3 344 376 346
3 375 373 377
3 375 377 378
3 367 379 373
3 367 380 379
3 380 350 379
3 373 379 381
3 373 381 377
3 382 377 381
3 379 382 381
3 379 350 382
3 382 378 377
3 351 350 380
3 351 380 370
3 370 380 383
3 370 383 369
3 368 369 383
3 368 383 371
3 351 370 384
3 353 351 384
3 353 384 361
3 361 384 370
3 361 370 362
3 385 387 386
3 385 388 387
3 389 391 390
3 389 392 391
3 393 392 389
3 393 389 394
3 395 397 396
3 395 398 397
3 396 397 399
3 396 399 400
3 401 403 402
3 401 404 403
3 405 407 406
3 408 405 406
3 409 408 406
3 409 410 408
3 409 411 410
3 409 412 411
3 412 413 411
3 412 414 413
3 413 414 415
3 413 415 416
3 408 417 405
3 414 418 415
3 419 421 420
3 419 422 421
3 423 425 424
3 423 426 425
3 425 427 424
3 427 428 424
3 427 429 428
3 430 429 427
3 430 431 429
3 425 432 427
3 425 433 432
3 434 433 425
3 434 435 433
3 434 436 435
3 434 437 436
3 438 437 434
3 426 438 434
3 426 434 425
3 426 439 438
3 426 423 439
3 438 440 437
3 441 440 438
3 439 441 438
3 435 436 442
3 435 442 443
3 443 442 444
3 439 445 441
3 439 446 445
3 447 446 439
3 447 448 446
3 442 449 444
3 449 450 444
3 444 450 451
3 444 451 452
3 449 453 450
3 442 454 449
3 454 455 449
3 455 454 456
3 457 456 448
3 455 456 457
3 457 448 430
3 448 447 430
3 447 431 430
3 447 458 431
3 424 458 447
3 424 428 458
3 457 459 455
3 457 460 459
3 449 462 461
3 449 455 462
3 461 462 432
3 455 463 462
3 455 459 463
3 464 463 459
3 462 464 432
3 462 463 464
3 464 459 460
3 433 461 432
3 433 452 461
3 452 465 461
3 452 451 465
3 450 465 451
3 450 453 465
3 433 466 452
3 435 466 433
3 435 443 466
3 443 452 466
3 443 444 452
3 467 469 468
3 467 470 469
3 471 473 472
3 471 474 473
3 472 473 475
3 472 475 476
3 477 479 478
3 477 480 479
3 480 481 479
3 480 482 481
3 483 485 484
3 483 486 485
3 487 489 488
3 487 490 489
3 488 489 491
3 488 491 492
3 493 495 494
3 493 496 495
3 497 495 496
3 497 498 495
3 498 494 495
3 498 499 494
3 499 493 494
3 499 498 500
3 499 500 501
3 499 502 493
3 500 497 503
3 500 498 497
3 499 504 502
3 499 501 504
3 505 507 506
3 505 508 507
3 506 507 509
3 506 509 510
3 511 513 512
3 511 514 513
3 515 513 514
3 515 516 513
3 516 512 513
3 517 516 515
3 518 516 517
3 516 518 512
3 518 511 512
3 518 517 519
3 517 515 520
3 518 519 521
3 518 521 522
3 518 522 511
3 523 525 524
3 523 526 525
3 524 525 527
3 524 527 528
3 529 531 530
3 529 532 531
3 533 531 532
3 533 534 531
3 534 530 531
3 535 534 533
3 536 534 535
3 534 536 530
3 536 529 530
3 536 535 537
3 535 533 538
3 536 537 539
3 536 539 540
3 536 540 529
3 541 543 542
3 541 544 543
3 543 544 545
3 543 545 546
3 547 549 548
3 547 550 549
3 551 550 547
3 551 552 550
3 552 549 550
3 552 551 553
3 552 553 554
3 552 554 555
3 552 555 556
3 552 556 549
3 556 548 549
3 555 557 556
3 556 557 548
3 555 558 557
3 559 561 560
3 559 562 561
3 561 562 563
3 561 563 564
3 565 567 566
3 565 568 567
3 569 568 565
3 569 570 568
3 570 567 568
3 570 569 571
3 570 571 572
3 570 572 573
3 570 573 574
3 570 574 567
3 574 566 567
3 573 575 574
3 574 575 566
3 573 576 575
3 138 577 137
3 138 578 577
3 181 159 162
3 181 53 159
3 579 581 580
3 581 579 582
3 581 582 583
3 581 583 584
3 585 580 581
3 585 581 586
3 587 585 586
3 587 588 585
3 589 588 587
3 588 589 590
3 180 178 86
3 180 179 178
3 591 593 592
3 591 594 593
3 592 593 595
3 594 595 593
3 592 595 596
3 597 594 591
3 597 598 594
3 594 598 595
3 596 598 597
3 596 595 598
3 599 601 600
3 599 602 601
3 602 603 601
3 600 601 603
3 602 604 603
3 605 599 600
3 605 600 606
3 600 603 606
3 604 606 603
3 604 605 606
3 607 609 608
3 607 610 609
3 611 607 608
3 611 610 607
3 611 608 612
3 611 613 610
3 614 612 608
3 614 608 615
3 610 616 609
3 617 609 616
3 618 617 616
3 618 616 619
3 620 618 619
3 620 621 618
3 621 622 618
3 622 617 618
3 621 623 622
3 620 624 621
3 620 625 624
3 626 625 620
3 626 627 625
3 628 627 626
3 628 629 627
3 621 630 623
3 621 624 630
3 623 630 631
3 623 631 632
3 622 623 632
3 633 620 619
3 633 626 620
3 622 632 634
3 635 633 619
3 635 619 616
3 636 622 634
3 622 636 617
3 636 634 637
3 638 633 635
3 638 639 633
3 639 638 640
3 639 640 641
3 628 639 641
3 628 641 642
3 642 629 628
3 642 643 629
3 644 643 642
3 644 645 643
3 632 645 644
3 632 631 645
3 639 628 626
3 639 626 633
3 646 642 641
3 646 644 642
3 634 644 646
3 634 632 644
3 647 641 640
3 647 646 641
3 637 646 647
3 637 634 646
3 648 647 640
3 648 640 649
3 612 648 649
3 612 614 648
3 614 650 648
3 650 647 648
3 650 637 647
3 614 651 650
3 652 650 651
3 652 653 650
3 615 651 614
3 615 652 651
3 638 649 640
3 638 613 649
3 613 612 649
3 653 637 650
3 653 636 637
3 636 653 654
3 636 654 617
3 617 654 609
3 613 611 612
3 653 615 654
3 653 652 615
3 655 657 656
3 655 658 657
3 659 655 656
3 659 656 660
3 661 659 660
3 661 660 662
3 610 635 616
3 613 635 610
3 613 638 635
3 663 665 664
3 663 666 665
3 664 665 667
3 667 665 666
3 664 667 668
3 669 664 668
3 669 663 664
3 667 666 670
3 663 670 666
3 663 669 670
3 671 673 672
3 671 674 673
3 674 675 673
3 672 673 675
3 674 676 675
3 677 671 672
3 677 672 678
3 672 675 678
3 676 678 675
3 676 677 678
3 679 681 680
3 679 682 681
3 682 683 681
3 680 681 683
3 682 684 683
3 685 679 680
3 685 680 686
3 680 683 686
3 684 686 683
3 684 685 686
3 687 689 688
3 687 690 689
3 691 690 687
3 691 687 688
3 691 692 690
3 691 688 693
3 694 690 692
3 694 695 690
3 688 689 696
3 697 696 689
3 698 696 697
3 698 699 696
3 700 699 698
3 700 698 701
3 701 698 702
3 702 698 697
3 701 702 703
3 700 701 704
3 700 704 705
3 706 700 705
3 706 705 707
3 708 706 707
3 708 707 709
3 701 710 704
3 701 703 710
3 703 711 710
3 703 712 711
3 702 712 703
3 713 700 706
3 713 699 700
3 702 714 712
3 715 699 713
3 715 696 699
3 716 714 702
3 702 697 716
3 716 717 714
3 718 715 713
3 718 713 719
3 719 720 718
3 719 721 720
3 708 721 719
3 708 722 721
3 722 708 709
3 722 709 723
3 724 722 723
3 724 723 725
3 712 724 725
3 712 725 711
3 719 706 708
3 719 713 706
3 726 722 724
3 726 721 722
3 714 724 712
3 714 726 724
3 727 721 726
3 727 720 721
3 717 726 714
3 717 727 726
3 728 720 727
3 728 729 720
3 692 729 728
3 692 728 694
3 694 728 730
3 730 727 717
3 730 728 727
3 694 730 731
3 732 731 730
3 732 730 733
3 695 731 732
3 695 694 731
3 718 720 729
3 718 729 693
3 693 729 692
3 733 730 717
3 733 717 716
3 716 734 733
3 716 697 734
3 697 689 734
3 693 692 691
3 733 734 695
3 733 695 732
3 735 737 736
3 735 738 737
3 739 738 735
3 739 740 738
3 741 740 739
3 741 742 740
3 688 696 715
3 693 688 715
3 693 715 718
3 743 745 744
3 743 746 745
3 746 747 745
3 747 744 745
3 746 748 747
3 749 746 743
3 749 748 746
3 747 750 744
3 743 750 749
3 743 744 750
3 751 753 752
3 751 754 753
3 752 753 755
3 754 755 753
3 752 755 756
3 757 754 751
3 757 758 754
3 754 758 755
3 756 758 757
3 756 755 758
3 759 761 760
3 759 762 761
3 760 761 763
3 762 763 761
3 760 763 764
3 765 762 759
3 765 766 762
3 762 766 763
3 764 766 765
3 764 763 766
3 767 769 768
3 767 770 769
3 771 767 768
3 771 768 772
3 772 768 769
3 772 769 773
3 774 772 773
3 774 775 772
3 776 767 771
3 776 770 767
3 777 776 771
3 777 771 778
3 779 781 780
3 779 782 781
3 781 783 780
3 781 784 783
3 785 787 786
3 785 788 787
3 774 786 787
3 774 787 775
3 775 787 788
3 775 788 778
3 778 788 785
3 778 772 775
3 778 771 772
3 778 785 777
3 779 789 782
3 779 790 789
3 791 793 792
3 791 794 793
3 794 795 793
3 792 793 795
3 794 796 795
3 792 795 797
3 798 794 791
3 798 796 794
3 798 792 797
3 798 791 792
3 799 801 800
3 799 802 801
3 802 803 801
3 800 801 803
3 802 804 803
3 800 803 805
3 806 802 799
3 806 804 802
3 806 800 805
3 806 799 800
3 807 809 808
3 807 810 809
3 810 811 809
3 808 809 811
3 810 812 811
3 808 811 813
3 814 810 807
3 814 812 810
3 814 808 813
3 814 807 808
