mtllib Sewaddle.mtl
v 0 0.5223978 -0.05215139
vt 0.538451 0.0215325
vn -0.0792231 -0.4770053 0.8753226
v 0.164996 0.4387849 0.01823631
vt 0.629145 0.36293
vn -0.6574677 -0.2643731 0.7055799
v 0.150673 0.5499667 0.07693424
vt 0.49401 0.357794
vn -0.5932172 -0.5368307 0.5999218
v 0.1579 0.3104197 -0.01323746
vt 0.767468 0.347829
vn -0.6038767 0.2272688 0.7639907
v 0.130899 0.6526893 0.1685445
vt 0.351707 0.353071
vn -0.3768182 -0.7065433 0.5990031
v 0 0.2947985 -0.09112772
vt 0.775943 0.0215325
vn 0 0.2395709 0.9708788
v 0 0.7316825 0.2012082
vt 0.226573 0.0215325
vn 0 -0.7709802 0.6368592
v -0.1579 0.3104197 -0.01323746
vn 0.6097668 0.2580047 0.7494118
v -0.130899 0.6526893 0.1685445
vn 0.3719486 -0.7122113 0.5953229
v -0.0868141 0.4784046 -0.01511643
vt 0.58617 0.201161
vn 0.5043475 -0.3205625 0.8017938
v -0.0812631 0.5372639 0.0174564
vt 0.514487 0.202857
vn 0.4821627 -0.5513714 0.6808147
v 0.218548 0.509454 0.1580041
vt 0.49392 0.697315
vn -0.9333473 -0.3017181 0.1944969
v 0.245773 0.3605388 0.1227931
vt 0.668628 0.722284
vn -0.9921143 0.1252404 0.004905773
v -0.160223 0.2111536 0.09757826
vt 0.901939 0.55165
vn 0.6282448 0.755141 0.1872714
v 0.160223 0.2111536 0.09757826
vn -0.6282448 0.755141 0.1872714
v 0 0.1906797 0.05670846
vt 0.978576 0.0215325
vn 0 0.8753549 0.4834809
v -0.1507 0.5499667 0.07693424
vn 0.6464046 -0.5052019 0.5717799
v -0.218548 0.509454 0.1580041
vn 0.9333784 -0.3016734 0.1944171
v -0.164996 0.4387849 0.01823631
vn 0.7083282 -0.2641999 0.6545759
v 0.171788 0.3007913 0.2608237
vt 0.6829 0.98265
vn -0.8255889 0.4278655 -0.3678777
v 0 0.1826966 0.122793
vt 0.978576 0.482907
vn 0 0.9959911 0.089453
v -0.245773 0.3605388 0.1227931
vn 0.9921143 0.1252404 0.004905763
v -0.0719472 0.193088 0.1777808
vt 0.877932 0.817308
vn 0.3851486 0.8956822 -0.2222928
v -0.171788 0.3007913 0.2608237
vn 0.8255889 0.4278655 -0.3678777
v 0.0719472 0.193088 0.1777808
vn -0.3851486 0.8956824 -0.2222918
vn 0.0792231 0.4770053 -0.8753226
vn 0.5932172 0.5368307 -0.5999218
vn 0.6574677 0.2643731 -0.7055799
vn 0.3768182 0.7065433 -0.5990031
vn 0.6038762 -0.2272686 -0.7639911
vn 0 0.7709802 -0.6368592
vn 0 -0.2395709 -0.9708788
vn -0.3719484 0.7122118 -0.5953224
vn -0.6097668 -0.2580047 -0.7494118
vn -0.4821627 0.5513714 -0.6808147
vn -0.5043475 0.3205625 -0.8017938
vn 0.9333475 0.3017181 -0.1944959
vn 0.6282448 -0.755141 -0.1872714
vn 0.9921143 -0.1252404 -0.004905763
vn -0.6464046 0.5052019 -0.5717799
vn -0.9333782 0.3016734 -0.1944181
vn -0.7083282 0.2641999 -0.6545759
vn -0.6282448 -0.755141 -0.1872714
vn -0.9921143 -0.1252404 -0.004905773
vn 0.8255889 -0.4278655 0.3678777
vn 0 -0.8753549 -0.4834809
vn 0.3851486 -0.8956822 0.2222928
vn 0 -0.9959911 -0.08945311
vn -0.8255889 -0.4278655 0.3678777
vn -0.3851486 -0.8956824 0.2222918
v 0 0.1433286 0.03816256
vt 0.316908 0.949487
vn 0 0.5407739 -0.841168
v 0 0.1913787 0.05382713
vt 0.316908 0.974218
vn 0 0.586983 -0.8095992
v 0.0715347 0.1856263 0.117585
vt 0.217917 0.97523
vn 0.9128006 0.4077314 0.02346054
v -0.0715347 0.1856263 0.117585
vn -0.9128001 0.4077321 0.02346063
v 0.0726326 0.1117755 0.08698159
vt 0.217917 0.949487
vn 0.9832012 0.09344723 -0.1567894
v -0.0726326 0.1117755 0.08698159
vn -0.9832012 0.09344713 -0.1567894
v 0.0704073 0.0630899 0.03211
vt 0.217917 0.798804
vn 0.9745862 0.141363 -0.173776
v -0.0704073 0.0630899 0.03211
vn -0.9745862 0.141363 -0.173776
v 0 0.103664 0.000916729
vt 0.316908 0.800667
vn 0 0.8376071 -0.5462731
v 0.0579057 0.0518389 -0.0325437
vt 0.235666 0.665932
vn 0.8718892 0.2886631 -0.3955791
v -0.0579057 0.0518389 -0.0325437
vn -0.8718892 0.2886631 -0.3955791
v 0 0.0832284 -0.0495062
vt 0.316908 0.723754
vn 0 0.8289962 -0.5592542
v 0 0.0530407 -0.0715852
vt 0.316908 0.629099
vn 0 0.2711211 -0.9625453
v 0 0.3160165 0.3157334
vt 0.00915495 0.185561
vn 0 -0.04602801 0.9989402
v -0.0435543 0.348023 0.2839329
vt 0.11209 0.306489
vn -0.3365207 0.3924204 0.856014
v -0.0639421 0.3204731 0.2861132
vt 0.160055 0.195187
vn -0.4212396 -0.01913457 0.9067475
v 0 0.3578074 0.2922381
vt 0.00915495 0.348595
vn 0 0.49007 0.8716831
v -0.0435543 0.2885036 0.2822257
vt 0.11209 0.0642564
vn -0.3683018 -0.4242931 0.8272418
v 0.0435543 0.348023 0.2839329
vn 0.3365207 0.3924204 0.856014
v 0 0.2769579 0.2896527
vt 0.00915495 0.0194817
vn 0 -0.5553079 0.8316448
v 0.0639421 0.3204731 0.2861132
vt 0.160139 0.195195
vn 0.4212396 -0.01913437 0.9067475
v 0.0435543 0.2885036 0.2822257
vn 0.3683018 -0.4242931 0.8272418
v 0.176021 0.2909849 0.09840118
vt 0.163897 0.566768
vn 0.8173084 -0.337513 -0.4670033
v 0 0.3255469 -0.01706921
vt 0.00699901 0.629524
vn 0 -0.1553689 -0.9878565
v 0.113165 0.4154846 0.04121576
vt 0.121111 0.862355
vn 0.4833413 0.2968918 -0.8235511
v 0 0.221139 0.05010952
vt 0.00699901 0.365981
vn 0 -0.7107439 -0.7034509
v 0.16506 0.4030528 0.1228641
vt 0.191637 0.789935
vn 0.9333764 0.3551438 -0.05178208
v 0.103218 0.2036965 0.1228641
vt 0.111081 0.392947
vn 0.4800596 -0.8556741 -0.1932994
v 0.150296 0.3130401 0.2081032
vt 0.148323 0.636601
vn 0.8710314 -0.06333304 0.4871276
v 0.102481 0.2473917 0.2441513
vt 0.110338 0.510037
vn 0.5714794 -0.6125445 0.5460774
v 0 0.4812349 0.06492592
vt 0.00699901 0.979533
vn 0 0.8116458 -0.5841499
v -0.176021 0.2909849 0.09840118
vn -0.8173084 -0.337513 -0.4670033
v -0.113165 0.4154846 0.04121576
vn -0.4833413 0.2968918 -0.8235511
v 0.120525 0.4174489 0.2122417
vt 0.118017 0.828714
vn 0.6044646 0.5298775 0.594855
v 0.103218 0.467693 0.1228641
vt 0.111081 0.952568
vn 0.4441383 0.8956818 -0.02225212
v 0 0.1901546 0.1945182
vn 0 -0.982187 0.187906
v -0.16506 0.4030528 0.1228641
vn -0.9333764 0.3551438 -0.05178197
v -0.103218 0.2036965 0.1228641
vn -0.4800596 -0.8556741 -0.1932994
v -0.150296 0.3130401 0.2081032
vt 0.148277 0.636601
vn -0.8710314 -0.06333304 0.4871276
v -0.102481 0.2473917 0.2441513
vn -0.5714794 -0.6125445 0.5460774
vt 0.0710329 0.673125
vn 0.4664582 0.08308767 0.8806323
v 0 0.4812349 0.1945182
vn 0 0.9251036 0.3797148
v 0 0.4150845 0.2723373
vt 0.00699901 0.824005
vn 0 0.5807559 0.8140778
v -0.103218 0.467693 0.1228641
vn -0.4441383 0.8956818 -0.02225212
vt 0.0714227 0.673125
vn -0.4664582 0.08308767 0.8806323
v -0.120525 0.4174489 0.2122417
vn -0.6044646 0.5298775 0.594855
v 0 0.2413209 0.2769009
vt 0.00699901 0.497947
vn 0 -0.655878 0.754867
v 0 0.3204731 0.3045188
vt 0.00700141 0.672756
vn 0 0.0264946 0.999649
v -0.0352037 0.0044887 -0.000832698
vt 0.424068 0.924488
vn -0.4410352 -0.8943344 0.07519323
v 0.0362849 0.02188536 0.0623895
vt 0.465094 0.976562
vn 0.3930786 -0.7963168 0.4597485
v -0.0362849 0.02188536 0.0623895
vt 0.424068 0.976562
vn -0.3927386 -0.7972778 0.4583715
v 0.0352037 0.0044887 -0.000832698
vt 0.465094 0.924488
vn 0.4534671 -0.8879002 0.07746481
vt 0.385599 0.976562
v -0.028937 0.00784235 -0.0455015
vt 0.424068 0.876007
vn -0.4530278 -0.7722047 -0.4454949
vt 0.385599 0.878371
vt 0.504695 0.976562
v 0 0.0245829 -0.0682006
vt 0.443913 0.8666
vn 0 -0.3360751 -0.9418352
vt 0.443913 0.801129
vt 0.504695 0.878371
v 0.028937 0.00784237 -0.0455016
vt 0.465094 0.876007
vn 0.4750742 -0.7485492 -0.4625782
v -0.00538133 0.5071276 0.1303721
vt 0.102046 0.723045
vn -0.9948144 0.1009162 0.01266198
v 0.047264 0.4581897 0.08886974
vt 0.0993866 0.709704
vn -0.02999274 -0.200117 -0.9793128
v 0.00195878 0.4637085 0.1303721
vt 0.102074 0.709527
vn -0.9800617 -0.1496504 -0.1307058
v 0.0555407 0.5198894 0.08027442
vt 0.0993866 0.729716
vn 0.006926048 0.0633375 -0.9979681
v 0.047264 0.4581897 0.171874
vt 0.104706 0.709704
vn -0.04894517 -0.3552411 0.9334924
v 0.0171721 0.5459751 0.1303721
vt 0.102046 0.736386
vn -0.732201 0.6443931 0.2205428
v 0.05278181 0.4993225 0.1890645
vt 0.104706 0.723045
vn 0 0.0102981 0.999947
v 0.0605852 0.5574938 0.1303721
vt 0.100716 0.749727
vn 0.1301589 0.9702825 -0.2039865
v 0.0883915 0.4526709 0.1303721
vt 0.107366 0.709704
vn 0.8905753 -0.4358943 -0.1298917
v 0.0582996 0.5404564 0.171874
vt 0.104706 0.736386
vn 0.065151 0.4856814 0.8717046
vt 0.103376 0.749727
v 0.110945 0.4915184 0.1303721
vt 0.107366 0.723045
vn 0.9831887 -0.181303 0.02166018
vt 0.110025 0.709704
vt 0.110025 0.729716
v 0.09942721 0.5349376 0.1303721
vt 0.107366 0.736386
vn 0.8761635 0.4285969 0.2205501
vt 0.106036 0.749727
vt 0.108696 0.749727
v 0.00538133 0.5071276 0.1303721
vt 0.0994569 0.72906
vn 0.9948144 0.1009162 0.01266228
v -0.047264 0.4581897 0.08886974
vt 0.0967972 0.715719
vn 0.02999294 -0.200117 -0.9793128
v -0.0555407 0.5198894 0.08027442
vt 0.0967972 0.735731
vn -0.006925968 0.06333761 -0.9979681
v -0.00195878 0.4637085 0.1303721
vt 0.0994845 0.715542
vn 0.9800617 -0.1496504 -0.1307058
v -0.0171721 0.5459751 0.1303721
vt 0.0994569 0.742401
vn 0.7322004 0.6443936 0.2205436
v -0.047264 0.4581897 0.171874
vt 0.102117 0.715719
vn 0.04894498 -0.3552411 0.9334924
v -0.05278181 0.4993225 0.1890645
vt 0.102117 0.72906
v -0.0605852 0.5574938 0.1303721
vt 0.098127 0.755742
vn -0.1301589 0.9702825 -0.2039865
v -0.0883915 0.4526709 0.1303721
vt 0.104776 0.715719
vn -0.8905755 -0.4358939 -0.1298916
v -0.0582996 0.5404564 0.171874
vt 0.102117 0.742401
vn -0.0651514 0.4856814 0.8717046
v -0.110945 0.4915184 0.1303721
vt 0.104776 0.72906
vn -0.9831887 -0.181303 0.02165968
vt 0.100787 0.755742
vt 0.107436 0.715719
v -0.09942721 0.5349376 0.1303721
vt 0.104776 0.742401
vn -0.8761635 0.4285975 0.2205489
vt 0.103446 0.755742
vt 0.107436 0.735731
vt 0.106106 0.755742
v 0 0.2222809 0.1096824
vt 0.523135 0.95056
vn 0 0.9997293 -0.02326516
v -0.0313354 0.1764627 0.1706157
vt 0.521583 0.984922
vn -0.4132436 0.153904 0.8975207
v 0.0313354 0.1764627 0.1706157
vt 0.524688 0.984922
vn 0.4058688 0.1427428 0.9027153
vt 0.519591 0.95056
vt 0.52668 0.95056
vt 0.523135 0.919062
v -0.0355575 0.08157185 0.1329735
vt 0.424068 0.881489
vn -0.4107907 -0.523182 0.7466804
vt 0.385599 0.881489
v 0.0355575 0.08157185 0.1329735
vt 0.465094 0.881489
vn 0.404648 -0.5226491 0.7503985
vt 0.504695 0.881489
vt 0.199374 0.555891
vt 0.222821 0.220356
vt 0.31609 0.512416
vt 0.142069 0.377416
o merged_0_0_node
g polygon_0
usemtl CMAT_NUKI__body_mat_id
f 1/1/1 2/2/2 3/3/3
f 1/1/1 4/4/4 2/2/2
f 1/1/1 3/3/3 5/5/5
f 1/1/1 6/6/6 4/4/4
f 1/1/1 5/5/5 7/7/7
f 1/1/1 8/4/8 6/6/6
f 1/1/1 7/7/7 9/5/9
f 1/1/1 10/8/10 8/4/8
f 1/1/1 9/5/9 11/9/11
f 1/1/1 11/9/11 10/8/10
f 2/2/2 12/10/12 3/3/3
f 2/2/2 4/4/4 13/11/13
f 2/2/2 13/11/13 12/10/12
f 3/3/3 12/10/12 5/5/5
f 6/6/6 8/4/8 14/12/14
f 6/6/6 15/12/15 4/4/4
f 6/6/6 14/12/14 16/13/16
f 6/6/6 16/13/16 15/12/15
f 4/4/4 15/12/15 13/11/13
f 9/5/9 17/3/17 11/9/11
f 9/5/9 18/10/18 17/3/17
f 10/8/10 19/2/19 8/4/8
f 17/3/17 18/10/18 19/2/19
f 12/10/12 13/11/13 20/14/20
f 13/11/13 15/12/15 20/14/20
f 14/12/14 21/15/21 16/13/16
f 14/12/14 8/4/8 22/11/22
f 14/12/14 23/16/23 21/15/21
f 14/12/14 22/11/22 24/14/24
f 14/12/14 24/14/24 23/16/23
f 22/11/22 19/2/19 18/10/18
f 22/11/22 8/4/8 19/2/19
f 22/11/22 18/10/18 24/14/24
f 16/13/16 21/15/21 15/12/15
f 20/14/20 15/12/15 25/16/25
f 25/16/25 15/12/15 21/15/21
f 1/1/26 3/3/27 2/2/28
f 1/1/26 5/5/29 3/3/27
f 1/1/26 2/2/28 4/4/30
f 1/1/26 7/7/31 5/5/29
f 1/1/26 4/4/30 6/6/32
f 1/1/26 9/5/33 7/7/31
f 1/1/26 6/6/32 8/4/34
f 1/1/26 11/9/35 9/5/33
f 1/1/26 8/4/34 10/8/36
f 1/1/26 10/8/36 11/9/35
f 3/3/27 12/10/37 2/2/28
f 3/3/27 5/5/29 12/10/37
f 4/4/30 15/12/38 6/6/32
f 4/4/30 2/2/28 13/11/39
f 4/4/30 13/11/39 15/12/38
f 2/2/28 12/10/37 13/11/39
f 9/5/33 11/9/35 17/3/40
f 9/5/33 17/3/40 18/10/41
f 8/4/34 19/2/42 10/8/36
f 8/4/34 6/6/32 14/12/43
f 8/4/34 22/11/44 19/2/42
f 8/4/34 14/12/43 22/11/44
f 19/2/42 18/10/41 17/3/40
f 19/2/42 22/11/44 18/10/41
f 15/12/38 13/11/39 20/14/45
f 15/12/38 16/13/46 6/6/32
f 15/12/38 20/14/45 25/16/47
f 15/12/38 21/15/48 16/13/46
f 15/12/38 25/16/47 21/15/48
f 16/13/46 14/12/43 6/6/32
f 16/13/46 21/15/48 14/12/43
f 20/14/45 13/11/39 12/10/37
f 22/11/44 24/14/49 18/10/41
f 22/11/44 14/12/43 24/14/49
f 21/15/48 23/16/50 14/12/43
f 14/12/43 23/16/50 24/14/49
f 26/17/51 27/18/52 28/19/53
f 26/17/51 29/19/54 27/18/52
f 26/17/51 28/19/53 30/20/55
f 26/17/51 31/20/56 29/19/54
f 26/17/51 30/20/55 32/21/57
f 26/17/51 33/21/58 31/20/56
f 26/17/51 32/21/57 34/22/59
f 26/17/51 34/22/59 33/21/58
f 32/21/57 35/23/60 34/22/59
f 33/21/58 34/22/59 36/23/61
f 35/23/60 37/24/62 34/22/59
f 35/23/60 38/25/63 37/24/62
f 37/24/62 38/25/63 36/23/61
f 37/24/62 36/23/61 34/22/59
f 39/26/64 40/27/65 41/28/66
f 39/26/64 42/29/67 40/27/65
f 39/26/64 41/28/66 43/30/68
f 39/26/64 44/27/69 42/29/67
f 39/26/64 43/30/68 45/31/70
f 39/26/64 46/32/71 44/27/69
f 39/26/64 45/31/70 47/30/72
f 39/26/64 47/30/72 46/32/71
f 48/33/73 49/34/74 50/35/75
f 48/33/73 51/36/76 49/34/74
f 48/33/73 50/35/75 52/37/77
f 48/33/73 53/38/78 51/36/76
f 48/33/73 52/37/77 54/39/79
f 48/33/73 55/40/80 53/38/78
f 48/33/73 54/39/79 55/40/80
f 49/34/74 56/41/81 50/35/75
f 49/34/74 51/36/76 57/33/82
f 49/34/74 58/35/83 56/41/81
f 49/34/74 57/33/82 58/35/83
f 52/37/77 59/42/84 54/39/79
f 52/37/77 50/35/75 60/43/85
f 52/37/77 60/43/85 59/42/84
f 50/35/75 56/41/81 60/43/85
f 53/38/78 55/40/80 61/36/86
f 53/38/78 61/36/86 51/36/76
f 57/33/82 62/37/87 58/35/83
f 57/33/82 51/36/76 63/38/88
f 57/33/82 64/44/89 62/37/87
f 57/33/82 63/38/88 65/40/90
f 57/33/82 65/40/90 64/44/89
f 63/38/88 51/36/76 61/36/86
f 63/38/88 61/36/86 65/40/90
f 54/39/79 46/45/91 55/40/80
f 59/42/84 60/43/85 66/41/92
f 59/42/84 66/41/92 67/46/93
f 60/43/85 56/41/81 66/41/92
f 58/35/83 62/37/87 68/43/94
f 58/35/83 68/43/94 56/41/81
f 56/41/81 68/43/94 66/41/92
f 64/44/89 65/40/90 41/47/95
f 64/44/89 69/42/96 62/37/87
f 69/42/96 67/46/93 66/41/92
f 69/42/96 66/41/92 68/43/94
f 69/42/96 68/43/94 62/37/87
f 61/36/86 55/40/80 70/48/97
f 61/36/86 70/48/97 65/40/90
f 65/40/90 70/48/97 41/47/95
f 55/40/80 46/45/91 70/48/97
f 67/46/93 41/47/95 71/49/98
f 67/46/93 71/49/98 46/45/91
f 71/49/98 70/48/97 46/45/91
f 71/49/98 41/47/95 70/48/97
f 72/50/99 73/51/100 74/52/101
f 72/50/99 75/53/102 73/51/100
f 72/50/99 74/52/101 33/54/58
f 72/50/99 76/55/103 75/53/102
f 72/50/99 33/54/58 36/56/61
f 72/50/99 36/56/61 76/55/103
f 73/51/100 75/53/102 32/57/57
f 36/56/61 77/58/104 76/55/103
f 36/56/61 38/59/63 77/58/104
f 75/53/102 35/60/60 32/57/57
f 75/53/102 76/55/103 78/61/105
f 75/53/102 78/61/105 35/60/60
f 77/58/104 38/59/63 35/60/60
f 77/58/104 78/61/105 76/55/103
f 77/58/104 35/60/60 78/61/105
f 79/62/106 80/63/107 81/64/108
f 79/62/106 82/65/109 80/63/107
f 79/62/106 81/64/108 83/66/110
f 79/62/106 84/67/111 82/65/109
f 79/62/106 83/66/110 85/68/112
f 79/62/106 85/68/112 84/67/111
f 82/65/109 84/67/111 86/69/113
f 83/66/110 87/70/114 85/68/112
f 84/67/111 85/68/112 88/71/115
f 84/67/111 88/71/115 86/72/113
f 87/70/114 89/73/116 85/68/112
f 87/70/114 80/74/107 89/73/116
f 85/68/112 89/73/116 88/71/115
f 80/74/107 82/75/109 89/73/116
f 88/71/115 89/73/116 90/76/117
f 88/71/115 90/76/117 86/77/113
f 89/73/116 82/75/109 90/76/117
f 82/75/109 86/78/113 90/76/117
f 91/79/118 92/80/119 93/81/120
f 91/79/118 94/82/121 92/80/119
f 91/79/118 93/81/120 95/83/122
f 91/79/118 96/84/123 94/82/121
f 91/79/118 95/83/122 97/85/112
f 91/79/118 97/85/112 96/84/123
f 93/81/120 98/86/124 95/83/122
f 97/85/112 99/87/125 96/84/123
f 97/85/112 95/83/122 100/88/126
f 97/85/112 101/89/127 99/87/125
f 97/85/112 100/88/126 101/89/127
f 95/83/122 98/90/124 100/88/126
f 99/87/125 101/89/127 92/91/119
f 100/88/126 102/92/128 101/89/127
f 100/88/126 98/93/124 102/92/128
f 92/91/119 101/89/127 93/94/120
f 101/89/127 102/92/128 93/94/120
f 102/92/128 98/95/124 93/94/120
f 103/96/129 104/97/130 105/98/131
f 103/96/129 29/99/54 104/97/130
f 103/96/129 105/98/131 28/100/53
f 103/96/129 27/101/52 29/99/54
f 103/96/129 28/100/53 27/101/52
f 106/102/132 104/52/130 29/54/54
f 106/102/132 105/51/131 104/52/130
f 106/102/132 29/54/54 31/103/56
f 106/102/132 107/104/133 105/51/131
f 107/104/133 28/57/53 105/51/131
f 107/104/133 30/105/55 28/57/53
f 74/102/101 31/54/56 33/103/58
f 74/102/101 106/52/132 31/54/56
f 74/102/101 107/51/133 106/52/132
f 74/102/101 73/104/100 107/51/133
f 73/104/100 30/57/55 107/51/133
f 73/104/100 32/105/57 30/57/55
f 11/106/35 19/107/42 17/108/40
f 11/106/35 10/109/36 19/107/42
f 11/106/11 19/107/19 10/109/10
f 11/106/11 17/108/17 19/107/19
vt 1.12387 0.747515
vt 0.282114 0.750848
vt 0.916 0.971991
vt -0.237481 0.965303
o merged_1_0_node
g polygon_0
usemtl TEX_ANIM_EYE_mat_id
f 64/110/89 41/111/95 69/112/96
f 69/112/96 41/111/95 67/113/93
f 54/110/79 59/112/84 46/111/91
f 59/112/84 67/113/93 46/111/91
