ply
format ascii 1.0
element vertex 918
property float x
property float y
property float z
property uchar red
property uchar green
property uchar blue
element face 968
property list uchar int vertex_index
end_header
0.03881 -0.99948 0.2245 254 247 207
0.03881 -0.99948 0.37982 254 247 207
0.28239 -0.99948 0.37974 254 247 207
0.28239 -0.99948 0.2245 254 247 207
0.28239 -0.99948 0.45516 254 247 207
0.03881 -0.99948 0.45483 254 247 207
0.03881 -0.99948 0.6067 254 247 207
0.28239 -0.99948 0.6067 254 247 207
0.03881 -0.9572 0.45483 254 247 207
0.03881 -0.9572 0.5677 254 247 207
0.03881 -0.86847 0.6067 254 247 207
0.03881 -0.86847 0.5677 254 247 207
0.24329 -0.9572 0.45516 254 247 207
0.28239 -0.86847 0.6067 253 248 218
0.28239 -0.99948 0.6067 253 248 218
0.03881 -0.99948 0.6067 253 248 218
0.03881 -0.86847 0.6067 253 248 218
0.03881 -0.86847 0.5677 225 218 183
0.03881 -0.9572 0.5677 225 218 183
0.24329 -0.9572 0.5677 225 218 183
0.24329 -0.86847 0.5677 225 218 183
0.24329 -0.9572 0.45516 225 218 183
0.24329 -0.86847 0.45516 225 218 183
0.28239 -0.86847 0.45516 254 247 207
0.24329 -0.86847 0.45516 254 247 207
0.28239 -0.86847 0.2245 254 247 207
0.28239 -0.86847 0.37974 254 247 207
0.03881 -0.86847 0.2245 254 247 207
0.03881 -0.9572 0.26537 254 247 207
0.03881 -0.86847 0.26537 254 247 207
0.03881 -0.9572 0.37982 254 247 207
0.28239 -0.86847 0.37974 253 248 218
0.28239 -0.99948 0.37974 253 248 218
0.24329 -0.9572 0.37974 253 248 218
0.24329 -0.86847 0.37974 253 248 218
0.03881 -0.9572 0.37982 253 248 218
0.03881 -0.99948 0.37982 253 248 218
0.24329 -0.86847 0.37974 225 218 183
0.24329 -0.9572 0.37974 225 218 183
0.24329 -0.9572 0.26537 225 218 183
0.24329 -0.86847 0.26537 225 218 183
0.03881 -0.9572 0.26537 225 218 183
0.03881 -0.86847 0.26537 225 218 183
0.03881 -0.9572 0.45483 225 218 183
0.03881 -0.9572 0.37982 225 218 183
-0.03881 -0.99948 0.2245 254 247 207
-0.28239 -0.99948 0.2245 254 247 207
-0.28239 -0.99948 0.37974 254 247 207
-0.03881 -0.99948 0.37982 254 247 207
-0.03881 -0.9572 0.37982 254 247 207
-0.03881 -0.9572 0.26537 254 247 207
-0.03881 -0.86847 0.2245 254 247 207
-0.03881 -0.86847 0.26537 254 247 207
-0.28239 -0.99948 0.45516 254 247 207
-0.28239 -0.99948 0.6067 254 247 207
-0.03881 -0.99948 0.6067 254 247 207
-0.03881 -0.99948 0.45483 254 247 207
-0.03881 -0.86847 0.6067 254 247 207
-0.03881 -0.9572 0.5677 254 247 207
-0.03881 -0.86847 0.5677 254 247 207
-0.28239 -0.86847 0.6067 253 248 218
-0.03881 -0.86847 0.6067 253 248 218
-0.03881 -0.99948 0.6067 253 248 218
-0.28239 -0.99948 0.6067 253 248 218
-0.03881 -0.86847 0.5677 225 218 183
-0.24329 -0.86847 0.5677 225 218 183
-0.24329 -0.9572 0.5677 225 218 183
-0.03881 -0.9572 0.5677 225 218 183
-0.24329 -0.9572 0.45516 225 218 183
-0.24329 -0.86847 0.45516 225 218 183
-0.24329 -0.9572 0.45516 254 247 207
-0.24329 -0.86847 0.45516 254 247 207
-0.28239 -0.86847 0.45516 254 247 207
-0.28239 -0.86847 0.2245 254 247 207
-0.28239 -0.86847 0.37974 254 247 207
-0.28239 -0.86847 0.37974 253 248 218
-0.24329 -0.86847 0.37974 253 248 218
-0.24329 -0.9572 0.37974 253 248 218
-0.28239 -0.99948 0.37974 253 248 218
-0.03881 -0.9572 0.37982 253 248 218
-0.03881 -0.99948 0.37982 253 248 218
-0.24329 -0.86847 0.37974 225 218 183
-0.24329 -0.86847 0.26537 225 218 183
-0.24329 -0.9572 0.26537 225 218 183
-0.24329 -0.9572 0.37974 225 218 183
-0.03881 -0.9572 0.26537 225 218 183
-0.03881 -0.86847 0.26537 225 218 183
-0.03881 -0.9572 0.45483 254 247 207
-0.03881 -0.9572 0.45483 225 218 183
-0.03881 -0.9572 0.37982 225 218 183
-0.28239 -0.86847 0.6067 254 247 207
0.28239 -0.86847 0.6067 254 247 207
-0.07642 -1.17677 0.99717 242 239 159
-0.07642 -1.17677 1.15002 242 239 159
0.07642 -1.17677 1.15002 242 239 159
0.07642 -1.17677 0.99717 242 239 159
-0.09756 -1.14676 0.97603 242 239 159
0.09756 -1.14676 0.97603 242 239 159
-0.09774 -0.87658 0.97586 242 239 159
0.09774 -0.87658 0.97586 242 239 159
0.09774 -0.87658 1.17133 242 239 159
0.09756 -1.14676 1.17116 242 239 159
-0.09756 -1.14676 1.17116 242 239 159
-0.09774 -0.87658 1.17133 242 239 159
-0.09756 -1.14676 1.17116 248 245 162
-0.09774 -0.87658 1.17133 248 245 162
0.09774 -0.87658 1.17133 248 245 162
0.09756 -1.14676 1.17116 248 245 162
-0.07642 -1.17677 1.15002 248 245 162
0.07642 -1.17677 1.15002 248 245 162
-0.09673 -1.25953 1.37077 242 239 159
-0.09673 -1.25953 1.56424 242 239 159
0.09673 -1.25953 1.56424 242 239 159
0.09673 -1.25953 1.37077 242 239 159
-0.12349 -1.22952 1.34401 242 239 159
0.12349 -1.22952 1.34401 242 239 159
0.12349 -1.22952 1.59099 242 239 159
-0.12349 -1.22952 1.59099 242 239 159
-0.12349 -1.22952 1.59099 248 245 162
-0.12346 -0.87207 1.59097 248 245 162
0.12346 -0.87207 1.59097 248 245 162
0.12349 -1.22952 1.59099 248 245 162
-0.12346 -0.87207 1.34404 242 239 159
0.12346 -0.87207 1.34404 242 239 159
0.12346 -0.87207 1.59097 242 239 159
-0.12346 -0.87207 1.59097 242 239 159
-0.08512 -1.21379 1.82999 242 239 159
-0.08512 -1.21379 2.00023 242 239 159
0.08512 -1.21379 2.00023 242 239 159
0.08512 -1.21379 1.82999 242 239 159
-0.10867 -1.18378 1.80645 242 239 159
0.10867 -1.18378 1.80645 242 239 159
-0.10873 -0.87633 1.80639 242 239 159
0.10873 -0.87633 1.80639 242 239 159
0.10873 -0.87633 2.02384 242 239 159
0.10867 -1.18378 2.02378 242 239 159
-0.10867 -1.18378 2.02378 242 239 159
-0.10873 -0.87633 2.02384 242 239 159
-0.10867 -1.18378 2.02378 248 245 162
-0.10873 -0.87633 2.02384 248 245 162
0.10873 -0.87633 2.02384 248 245 162
0.10867 -1.18378 2.02378 248 245 162
-0.08512 -1.21379 2.00023 248 245 162
0.08512 -1.21379 2.00023 248 245 162
-0.07644 -0.52637 2.47392 248 245 162
-0.07644 -0.37348 2.47392 248 245 162
0.07644 -0.37348 2.47392 248 245 162
0.07644 -0.52637 2.47392 248 245 162
-0.09759 -0.35234 2.44391 242 239 159
-0.09774 -0.35219 2.15044 242 239 159
0.09774 -0.35219 2.15044 242 239 159
0.09759 -0.35234 2.44391 242 239 159
0.09759 -0.54751 2.44391 242 239 159
0.09774 -0.54766 2.15044 242 239 159
-0.09774 -0.54766 2.15044 242 239 159
-0.09759 -0.54751 2.44391 242 239 159
-0.07644 -0.37348 2.47392 242 239 159
0.07644 -0.37348 2.47392 242 239 159
0.07644 -0.52637 2.47392 242 239 159
-0.07644 -0.52637 2.47392 242 239 159
-0.06335 0.12273 2.41563 248 245 162
-0.06335 0.24942 2.41563 248 245 162
0.06335 0.24942 2.41563 248 245 162
0.06335 0.12273 2.41563 248 245 162
-0.08087 0.26695 2.38562 242 239 159
-0.07999 0.26607 2.15235 242 239 159
0.07999 0.26607 2.15235 242 239 159
0.08087 0.26695 2.38562 242 239 159
0.08087 0.1052 2.38562 242 239 159
0.07999 0.10608 2.15235 242 239 159
-0.07999 0.10608 2.15235 242 239 159
-0.08087 0.1052 2.38562 242 239 159
0.06335 0.24942 2.41563 242 239 159
0.06335 0.12273 2.41563 242 239 159
-0.06335 0.24942 2.41563 242 239 159
-0.06335 0.12273 2.41563 242 239 159
0.54001 -0.20699 1.74328 242 239 159
0.54001 -0.83507 1.74328 242 239 159
0.54001 -0.83507 2.06149 242 239 159
0.54001 -0.20699 1.80894 242 239 159
0.47012 -0.88723 1.74328 242 239 159
0.47012 -0.88723 2.07666 242 239 159
0.54001 -0.77291 2.12182 242 239 159
0.54001 -0.15623 1.80894 242 239 159
0.54001 -0.15623 2.12182 242 239 159
0.47012 -0.792 2.16681 242 239 159
0.47012 -0.15623 2.16681 242 239 159
-0.47012 -0.792 2.16681 242 239 159
-0.47012 -0.88723 2.07666 242 239 159
-0.47012 -0.88723 1.74328 242 239 159
-0.54001 -0.83507 2.06149 242 239 159
-0.54001 -0.83507 1.74328 242 239 159
-0.54001 -0.20699 1.74328 242 239 159
-0.54001 -0.20699 1.80894 242 239 159
-0.54001 -0.77291 2.12182 242 239 159
-0.54001 -0.15623 1.80894 242 239 159
-0.54001 -0.15623 2.12182 242 239 159
-0.47012 -0.15623 2.16681 242 239 159
0.54001 1.38771 0.12446 242 239 159
0.54001 1.46153 0.20009 242 239 159
0.47012 1.5055 0.18756 242 239 159
0.47012 1.40788 0.08699 242 239 159
0.54001 1.46153 0.45868 242 239 159
0.54001 -0.2417 0.12446 242 239 159
0.47012 1.5055 0.45868 242 239 159
0.47012 -0.28042 0.08699 242 239 159
-0.47012 1.5055 0.18756 242 239 159
-0.47012 1.5055 0.45868 242 239 159
-0.47012 -0.28042 0.08699 242 239 159
-0.47012 1.40788 0.08699 242 239 159
-0.54001 1.38771 0.12446 242 239 159
-0.54001 1.46153 0.20009 242 239 159
-0.54001 1.46153 0.45868 242 239 159
-0.54001 -0.2417 0.12446 242 239 159
-0.47012 -0.3507 0.16832 242 239 159
0.47012 -0.3507 0.16832 242 239 159
0.54001 -0.30837 0.20579 242 239 159
0.54001 -0.30814 0.80553 242 239 159
0.47012 -0.35047 0.80539 242 239 159
0.47012 -0.88723 0.80541 242 239 159
0.54001 -0.83507 0.80554 242 239 159
0.54001 -0.83507 1.21658 242 239 159
0.54001 -0.20699 1.21658 242 239 159
0.47012 -0.88723 1.21658 242 239 159
0.54001 -0.20699 0.45868 242 239 159
0.11823 -0.88723 0.80541 242 239 159
0.11823 -0.84879 0.8054 242 239 159
-0.47012 -0.35047 0.80539 242 239 159
-0.11823 -0.88723 0.80541 242 239 159
-0.47012 -0.88723 1.21658 242 239 159
-0.47012 -0.88723 0.80541 242 239 159
-0.54001 -0.30814 0.80553 242 239 159
-0.54001 -0.30837 0.20579 242 239 159
-0.54001 -0.20699 0.45868 242 239 159
-0.54001 -0.83507 0.80554 242 239 159
-0.54001 -0.83507 1.21658 242 239 159
-0.54001 -0.20699 1.21658 242 239 159
-0.11823 -0.84879 0.8054 242 239 159
0.11823 -0.88725 0.73308 242 239 159
-0.11823 -0.88725 0.73308 242 239 159
0.11823 -0.8488 0.73307 242 239 159
-0.11823 -0.8488 0.73307 242 239 159
0.54001 1.46153 0.61215 242 239 159
0.54001 1.46153 1.00081 242 239 159
0.47012 1.5055 1.00081 242 239 159
0.47012 1.5055 0.61206 242 239 159
0.54001 1.13722 0.84596 242 239 159
0.54001 1.13722 1.00081 242 239 159
0.54001 0.94274 0.84596 242 239 159
0.54001 0.94274 0.61215 242 239 159
-0.47012 1.5055 0.61206 242 239 159
-0.47012 1.5055 1.00081 242 239 159
-0.54001 1.46153 0.61215 242 239 159
-0.54001 1.46153 1.00081 242 239 159
-0.54001 1.13722 0.84596 242 239 159
-0.54001 1.13722 1.00081 242 239 159
-0.54001 0.94274 0.84596 242 239 159
-0.54001 0.94274 0.61215 242 239 159
0.54001 1.46153 2.05928 242 239 159
0.54001 1.40735 2.12182 242 239 159
0.47012 1.42644 2.16681 242 239 159
0.47012 1.5055 2.07446 242 239 159
0.54001 1.13722 1.80894 242 239 159
0.54001 1.09149 2.12182 242 239 159
0.47012 1.09149 2.16681 242 239 159
0.54001 1.09149 1.80894 242 239 159
0.54001 1.46153 1.59871 242 239 159
0.47012 1.5055 1.59871 242 239 159
0.54001 1.13722 1.59871 242 239 159
-0.47012 1.5055 1.59871 242 239 159
-0.47012 1.5055 2.07446 242 239 159
-0.47012 1.42644 2.16681 242 239 159
-0.54001 1.46153 2.05928 242 239 159
-0.54001 1.40735 2.12182 242 239 159
-0.54001 1.13722 1.80894 242 239 159
-0.54001 1.09149 2.12182 242 239 159
-0.47012 1.09149 2.16681 242 239 159
-0.54001 1.09149 1.80894 242 239 159
-0.54001 1.46153 1.59871 242 239 159
-0.54001 1.13722 1.59871 242 239 159
0.54001 0.97765 0.99752 193 190 125
0.54001 1.13722 1.00081 193 190 125
0.54001 1.13722 0.84596 193 190 125
0.54001 1.13722 1.08943 193 190 125
0.54001 1.13722 1.50835 193 190 125
0.54001 1.13722 1.59871 193 190 125
0.54001 0.97765 1.65327 193 190 125
0.54001 1.13722 1.80894 193 190 125
0.54001 1.09149 1.80894 193 190 125
0.54001 1.01176 1.80894 193 190 125
0.54001 0.52534 1.80894 193 190 125
0.54001 0.43764 1.80894 193 190 125
0.54001 -0.05383 1.65345 193 190 125
0.54001 -0.06853 1.80894 193 190 125
0.54001 -0.15623 1.80894 193 190 125
0.54001 -0.20699 1.80894 193 190 125
0.54001 -0.20699 1.74328 193 190 125
0.54001 -0.20699 1.64889 193 190 125
0.54001 -0.20699 1.31192 193 190 125
0.54001 -0.05383 0.61215 193 190 125
0.54001 -0.20699 1.21658 193 190 125
0.54001 -0.20699 0.45868 193 190 125
0.54001 0.44468 0.61215 193 190 125
0.54001 0.52115 0.61215 193 190 125
0.54001 0.867 0.61215 193 190 125
0.54001 0.94274 0.61215 193 190 125
0.54001 1.46153 0.45868 193 190 125
0.54001 1.46153 0.61215 193 190 125
0.47012 1.5055 0.61206 193 190 125
0.47012 1.5055 0.45868 193 190 125
-0.47012 1.5055 0.45868 193 190 125
-0.47012 1.5055 0.61206 193 190 125
-0.54001 1.46153 0.45868 193 190 125
-0.54001 1.46153 0.61215 193 190 125
-0.54001 0.94274 0.61215 193 190 125
-0.54001 -0.20699 0.45868 193 190 125
-0.54001 0.867 0.61215 193 190 125
-0.54001 0.52115 0.61215 193 190 125
-0.54001 0.44468 0.61215 193 190 125
-0.54001 -0.05383 0.61215 193 190 125
-0.54001 -0.20699 1.21658 193 190 125
-0.54001 -0.20699 1.31192 193 190 125
-0.54001 -0.05383 1.65345 193 190 125
-0.54001 -0.20699 1.64889 193 190 125
-0.54001 -0.20699 1.74328 193 190 125
-0.54001 -0.20699 1.80894 193 190 125
-0.54001 -0.15623 1.80894 193 190 125
-0.54001 -0.06853 1.80894 193 190 125
-0.54001 0.43764 1.80894 193 190 125
-0.54001 0.97765 1.65327 193 190 125
-0.54001 0.52534 1.80894 193 190 125
-0.54001 1.01176 1.80894 193 190 125
-0.54001 1.13722 1.80894 193 190 125
-0.54001 1.09149 1.80894 193 190 125
-0.54001 1.13722 1.59871 193 190 125
-0.54001 0.97765 0.99752 193 190 125
-0.54001 1.13722 1.50835 193 190 125
-0.54001 1.13722 1.08943 193 190 125
-0.54001 1.13722 1.00081 193 190 125
-0.54001 1.13722 0.84596 193 190 125
-0.54001 0.94274 0.84596 193 190 125
-0.54001 0.35435 0.99752 193 190 125
-0.54001 0.867 0.84596 193 190 125
-0.54001 0.44468 0.84596 193 190 125
-0.54001 0.52115 0.84596 193 190 125
-0.54001 0.20421 0.84596 193 190 125
-0.54001 0.20435 1.47472 193 190 125
-0.54001 0.35435 1.31773 193 190 125
-0.54001 0.5858 1.31773 193 190 125
-0.54001 0.7422 1.47472 193 190 125
-0.54001 0.5858 1.1614 193 190 125
-0.54001 0.7422 1.1614 193 190 125
0.54001 0.867 0.84596 193 190 125
0.54001 0.52115 0.84596 193 190 125
0.54001 0.44468 0.84596 193 190 125
0.54001 0.35435 0.99752 193 190 125
0.54001 0.94274 0.84596 193 190 125
0.54001 0.20421 0.84596 193 190 125
0.54001 0.20435 1.47472 193 190 125
0.54001 0.35435 1.31773 193 190 125
0.54001 0.5858 1.31773 193 190 125
0.54001 0.7422 1.47472 193 190 125
0.54001 0.5858 1.1614 193 190 125
0.54001 0.7422 1.1614 193 190 125
0.54001 0.52115 0.84596 242 239 159
0.54001 0.867 0.84596 242 239 159
0.54001 0.867 0.61215 242 239 159
0.54001 0.52115 0.61215 242 239 159
0.54001 -0.05383 0.61215 242 239 159
0.54001 -0.05383 1.65345 242 239 159
0.54001 0.20435 1.47472 242 239 159
0.54001 0.20421 0.84596 242 239 159
0.54001 0.97765 1.65327 242 239 159
0.54001 0.7422 1.47472 242 239 159
0.54001 0.7422 1.1614 242 239 159
0.54001 0.97765 0.99752 242 239 159
0.54001 0.5858 1.1614 242 239 159
0.54001 0.35435 0.99752 242 239 159
0.54001 0.5858 1.31773 242 239 159
0.54001 0.35435 1.31773 242 239 159
0.54001 0.44468 0.84596 242 239 159
0.54001 0.44468 0.61215 242 239 159
0.54001 -0.20699 1.21658 226 225 148
0.54001 -0.83507 1.21658 226 225 148
0.54001 -0.83507 1.31192 226 225 148
0.54001 -0.20699 1.31192 226 225 148
0.47012 -0.88723 1.21658 226 225 148
0.47012 -0.88723 1.31192 226 225 148
-0.47012 -0.88723 1.31192 226 225 148
-0.47012 -0.88723 1.21658 226 225 148
-0.54001 -0.83507 1.31192 226 225 148
-0.54001 -0.83507 1.21658 226 225 148
-0.54001 -0.20699 1.21658 226 225 148
-0.54001 -0.20699 1.31192 226 225 148
0.54001 -0.83507 1.74328 226 225 148
0.54001 -0.83507 1.64889 226 225 148
0.47012 -0.88723 1.64889 226 225 148
0.47012 -0.88723 1.74328 226 225 148
0.54001 -0.20699 1.64889 226 225 148
0.54001 -0.20699 1.74328 226 225 148
-0.47012 -0.88723 1.74328 226 225 148
-0.47012 -0.88723 1.64889 226 225 148
-0.54001 -0.83507 1.74328 226 225 148
-0.54001 -0.83507 1.64889 226 225 148
-0.54001 -0.20699 1.64889 226 225 148
-0.54001 -0.20699 1.74328 226 225 148
0.54001 -0.20699 1.31192 242 239 159
0.54001 -0.83507 1.31192 242 239 159
0.54001 -0.83507 1.64889 242 239 159
0.54001 -0.20699 1.64889 242 239 159
0.47012 -0.88723 1.31192 242 239 159
0.47012 -0.88723 1.64889 242 239 159
-0.47012 -0.88723 1.64889 242 239 159
-0.47012 -0.88723 1.31192 242 239 159
-0.54001 -0.83507 1.64889 242 239 159
-0.54001 -0.83507 1.31192 242 239 159
-0.54001 -0.20699 1.31192 242 239 159
-0.54001 -0.20699 1.64889 242 239 159
0.54001 -0.15623 2.12182 226 225 148
0.54001 -0.06853 2.12182 226 225 148
0.54001 -0.06853 1.80894 226 225 148
0.54001 -0.15623 1.80894 226 225 148
0.47012 -0.15623 2.16681 226 225 148
0.47012 -0.06853 2.16681 226 225 148
-0.47012 -0.06853 2.16681 226 225 148
-0.47012 -0.15623 2.16681 226 225 148
-0.54001 -0.06853 2.12182 226 225 148
-0.54001 -0.15623 2.12182 226 225 148
-0.54001 -0.06853 1.80894 226 225 148
-0.54001 -0.15623 1.80894 226 225 148
0.54001 -0.06853 2.12182 242 239 159
0.54001 0.43764 2.12182 242 239 159
0.54001 0.43764 1.80894 242 239 159
0.54001 -0.06853 1.80894 242 239 159
0.47012 -0.06853 2.16681 242 239 159
0.47012 0.43764 2.16681 242 239 159
0.54001 0.43764 2.12182 226 225 148
0.54001 0.52534 2.12182 226 225 148
0.54001 0.52534 1.80894 226 225 148
0.54001 0.43764 1.80894 226 225 148
0.47012 0.43764 2.16681 226 225 148
0.47012 0.52534 2.16681 226 225 148
-0.47012 0.52534 2.16681 226 225 148
-0.47012 0.43764 2.16681 226 225 148
-0.54001 0.52534 2.12182 226 225 148
-0.54001 0.43764 2.12182 226 225 148
-0.54001 0.43764 1.80894 226 225 148
-0.54001 0.52534 1.80894 226 225 148
0.54001 0.52534 2.12182 242 239 159
0.54001 1.01176 2.12182 242 239 159
0.54001 1.01176 1.80894 242 239 159
0.54001 0.52534 1.80894 242 239 159
0.47012 0.52534 2.16681 242 239 159
0.47012 1.01176 2.16681 242 239 159
0.54001 1.09149 2.12182 226 225 148
0.54001 1.01176 2.12182 226 225 148
0.47012 1.01176 2.16681 226 225 148
0.47012 1.09149 2.16681 226 225 148
0.54001 1.09149 1.80894 226 225 148
0.54001 1.01176 1.80894 226 225 148
-0.47012 1.09149 2.16681 226 225 148
-0.47012 1.01176 2.16681 226 225 148
-0.54001 1.09149 2.12182 226 225 148
-0.54001 1.01176 2.12182 226 225 148
-0.54001 1.09149 1.80894 226 225 148
-0.54001 1.01176 1.80894 226 225 148
0.54001 1.46153 1.50835 226 225 148
0.54001 1.46153 1.59871 226 225 148
0.47012 1.5055 1.59871 226 225 148
0.47012 1.5055 1.50835 226 225 148
0.54001 1.13722 1.50835 226 225 148
0.54001 1.13722 1.59871 226 225 148
-0.47012 1.5055 1.50835 226 225 148
-0.47012 1.5055 1.59871 226 225 148
-0.54001 1.46153 1.50835 226 225 148
-0.54001 1.46153 1.59871 226 225 148
-0.54001 1.13722 1.50835 226 225 148
-0.54001 1.13722 1.59871 226 225 148
0.54001 1.46153 1.00081 226 225 148
0.54001 1.46153 1.08943 226 225 148
0.47012 1.5055 1.08943 226 225 148
0.47012 1.5055 1.00081 226 225 148
0.54001 1.13722 1.00081 226 225 148
0.54001 1.13722 1.08943 226 225 148
-0.47012 1.5055 1.00081 226 225 148
-0.47012 1.5055 1.08943 226 225 148
-0.54001 1.46153 1.00081 226 225 148
-0.54001 1.46153 1.08943 226 225 148
-0.54001 1.13722 1.00081 226 225 148
-0.54001 1.13722 1.08943 226 225 148
0.54001 1.46153 1.08943 242 239 159
0.54001 1.46153 1.50835 242 239 159
0.47012 1.5055 1.50835 242 239 159
0.47012 1.5055 1.08943 242 239 159
0.54001 1.13722 1.08943 242 239 159
0.54001 1.13722 1.50835 242 239 159
-0.47012 1.5055 1.08943 242 239 159
-0.47012 1.5055 1.50835 242 239 159
-0.54001 1.46153 1.08943 242 239 159
-0.54001 1.46153 1.50835 242 239 159
-0.54001 1.13722 1.08943 242 239 159
-0.54001 1.13722 1.50835 242 239 159
0.54001 0.867 0.84596 226 225 148
0.54001 0.94274 0.84596 226 225 148
0.54001 0.94274 0.61215 226 225 148
0.54001 0.867 0.61215 226 225 148
0.47012 1.09149 2.16681 248 245 162
-0.47012 1.09149 2.16681 248 245 162
-0.47012 1.42644 2.16681 248 245 162
0.47012 1.42644 2.16681 248 245 162
0.47012 -0.792 2.16681 248 245 162
-0.47012 -0.792 2.16681 248 245 162
-0.47012 -0.15623 2.16681 248 245 162
0.47012 -0.15623 2.16681 248 245 162
0.47012 -0.06853 2.16681 248 245 162
-0.47012 -0.06853 2.16681 248 245 162
-0.47012 0.43764 2.16681 248 245 162
0.47012 0.43764 2.16681 248 245 162
0.47012 0.52534 2.16681 248 245 162
-0.47012 0.52534 2.16681 248 245 162
-0.47012 1.01176 2.16681 248 245 162
0.47012 1.01176 2.16681 248 245 162
0.54001 0.44468 0.84596 226 225 148
0.54001 0.52115 0.84596 226 225 148
0.54001 0.52115 0.61215 226 225 148
0.54001 0.44468 0.61215 226 225 148
-0.54001 0.52115 0.84596 242 239 159
-0.54001 0.52115 0.61215 242 239 159
-0.54001 0.867 0.61215 242 239 159
-0.54001 0.867 0.84596 242 239 159
-0.54001 -0.05383 0.61215 242 239 159
-0.54001 0.20421 0.84596 242 239 159
-0.54001 0.20435 1.47472 242 239 159
-0.54001 -0.05383 1.65345 242 239 159
-0.54001 0.97765 1.65327 242 239 159
-0.54001 0.7422 1.47472 242 239 159
-0.54001 0.7422 1.1614 242 239 159
-0.54001 0.97765 0.99752 242 239 159
-0.54001 0.5858 1.1614 242 239 159
-0.54001 0.35435 0.99752 242 239 159
-0.54001 0.5858 1.31773 242 239 159
-0.54001 0.35435 1.31773 242 239 159
-0.54001 0.44468 0.84596 242 239 159
-0.54001 0.44468 0.61215 242 239 159
-0.54001 -0.06853 2.12182 242 239 159
-0.54001 -0.06853 1.80894 242 239 159
-0.54001 0.43764 1.80894 242 239 159
-0.54001 0.43764 2.12182 242 239 159
-0.47012 -0.06853 2.16681 242 239 159
-0.47012 0.43764 2.16681 242 239 159
-0.54001 0.52534 2.12182 242 239 159
-0.54001 0.52534 1.80894 242 239 159
-0.54001 1.01176 1.80894 242 239 159
-0.54001 1.01176 2.12182 242 239 159
-0.47012 1.01176 2.16681 242 239 159
-0.47012 0.52534 2.16681 242 239 159
-0.54001 0.867 0.84596 226 225 148
-0.54001 0.867 0.61215 226 225 148
-0.54001 0.94274 0.61215 226 225 148
-0.54001 0.94274 0.84596 226 225 148
-0.54001 0.44468 0.84596 226 225 148
-0.54001 0.44468 0.61215 226 225 148
-0.54001 0.52115 0.61215 226 225 148
-0.54001 0.52115 0.84596 226 225 148
0.09673 -1.25953 1.56424 248 245 162
-0.09673 -1.25953 1.56424 248 245 162
0.44484 -0.81076 0.50522 182 126 206
0.44484 -0.81076 0.78022 182 126 206
0.56244 -0.81076 0.78022 182 126 206
0.77602 -0.81076 0.50522 182 126 206
0.44484 -0.58741 0.50522 182 126 206
0.77602 -0.58741 0.50522 182 126 206
0.825 -0.81076 0.55105 182 126 206
0.825 -0.58741 0.55105 182 126 206
0.59924 -0.81079 0.81393 182 126 206
0.825 -0.81132 1.14667 182 126 206
0.59957 -0.81081 1.23289 182 126 206
0.825 -0.58685 1.14667 182 126 206
0.64988 -0.81109 1.28607 182 126 206
0.9625 -0.58684 1.14629 182 126 206
0.9625 -0.81133 1.14629 182 126 206
0.9625 -0.58708 1.28607 182 126 206
0.64988 -0.58708 1.28607 182 126 206
0.59957 -0.58736 1.23289 182 126 206
0.9625 -0.81109 1.28607 182 126 206
0.98656 -0.60555 1.15793 182 126 206
0.98656 -0.79262 1.15793 182 126 206
0.98656 -0.60574 1.27441 182 126 206
0.98656 -0.79243 1.27441 182 126 206
0.59924 -0.58738 0.81393 182 126 206
0.56244 -0.58741 0.78022 182 126 206
0.44484 -0.58741 0.78022 182 126 206
0.44484 -0.81076 0.78022 192 132 216
0.44484 -0.58741 0.78022 192 132 216
0.56244 -0.58741 0.78022 192 132 216
0.56244 -0.81076 0.78022 192 132 216
0.59924 -0.81079 0.81393 192 132 216
0.59924 -0.58738 0.81393 192 132 216
0.64988 -0.58708 1.28607 192 132 216
0.64988 -0.81109 1.28607 192 132 216
0.59957 -0.81081 1.23289 192 132 216
0.59957 -0.58736 1.23289 192 132 216
0.9625 -0.81109 1.28607 192 132 216
0.9625 -0.58708 1.28607 192 132 216
0.96301 -0.54443 0.60601 182 126 206
1.12474 -0.54443 0.47087 182 126 206
1.07655 -0.54443 0.42329 182 126 206
0.92758 -0.54443 0.57795 182 126 206
1.07655 -0.38312 0.42329 182 126 206
0.44525 -0.38312 0.42329 182 126 206
0.44525 -0.54443 0.42329 182 126 206
1.12474 -0.38312 0.47087 182 126 206
1.12474 -0.54443 0.86664 182 126 206
0.96301 -0.54443 0.86664 182 126 206
0.96301 -0.38312 0.60601 182 126 206
0.96301 -0.38312 0.86664 182 126 206
1.12474 -0.38312 0.86664 182 126 206
0.44525 -0.54443 0.57795 182 126 206
1.10992 -0.52964 0.89276 182 126 206
0.97783 -0.52964 0.89276 182 126 206
0.97783 -0.39791 0.89276 182 126 206
1.10992 -0.39791 0.89276 182 126 206
0.92758 -0.38312 0.57795 182 126 206
0.44525 -0.38312 0.57795 182 126 206
0.92758 -0.38312 0.57795 192 132 216
0.96301 -0.38312 0.60601 192 132 216
0.96301 -0.54443 0.60601 192 132 216
0.92758 -0.54443 0.57795 192 132 216
0.44525 -0.54443 0.57795 192 132 216
0.44525 -0.38312 0.57795 192 132 216
0.97783 -0.39791 0.89276 192 132 216
1.10992 -0.39791 0.89276 192 132 216
1.10992 -0.52964 0.89276 192 132 216
0.97783 -0.52964 0.89276 192 132 216
0.41279 -0.64501 0.20494 182 126 206
0.41279 -0.64501 0.36643 182 126 206
0.76262 -0.64548 0.36643 182 126 206
0.6048 -0.64517 0.20494 182 126 206
0.41302 -0.48352 0.20494 182 126 206
0.60503 -0.48368 0.20494 182 126 206
0.63383 -0.64532 0.16669 182 126 206
0.67924 -0.64541 0.03177 182 126 206
0.80357 -0.64556 0.23362 182 126 206
0.80357 -0.64556 0.33407 182 126 206
0.8038 -0.48408 0.33407 182 126 206
0.8038 -0.48408 0.23362 182 126 206
0.63383 -0.64532 0.06563 182 126 206
0.83197 -0.64584 0.20494 182 126 206
1.20198 -0.64613 0.03177 182 126 206
1.20198 -0.64613 0.20494 182 126 206
1.20221 -0.48464 0.03177 182 126 206
0.67964 -0.48393 0.03177 182 126 206
1.20221 -0.48464 0.20494 182 126 206
0.83219 -0.48436 0.20494 182 126 206
0.76301 -0.48399 0.36643 182 126 206
0.63405 -0.48384 0.06563 182 126 206
0.63405 -0.48384 0.16669 182 126 206
0.41302 -0.48352 0.36643 182 126 206
1.22627 -0.50082 0.18763 182 126 206
1.22627 -0.50082 0.04909 182 126 206
0.41279 -0.64501 0.36643 192 132 216
0.41302 -0.48352 0.36643 192 132 216
0.76301 -0.48399 0.36643 192 132 216
0.76262 -0.64548 0.36643 192 132 216
0.80357 -0.64556 0.33407 192 132 216
0.8038 -0.48408 0.33407 192 132 216
1.22609 -0.63001 0.04909 182 126 206
1.22609 -0.63001 0.18763 182 126 206
0.8038 -0.48408 0.23362 192 132 216
0.83219 -0.48436 0.20494 192 132 216
0.83197 -0.64584 0.20494 192 132 216
0.80357 -0.64556 0.23362 192 132 216
1.20198 -0.64613 0.20494 192 132 216
1.20221 -0.48464 0.20494 192 132 216
1.22609 -0.63001 0.18763 192 132 216
1.22627 -0.50082 0.18763 192 132 216
0.98656 -0.60574 1.27441 192 132 216
0.98656 -0.79243 1.27441 192 132 216
0.20743 -0.93345 0.73202 38 6 0
0.20743 -0.93345 0.9054 38 6 0
0.26067 -0.93345 0.9054 38 6 0
0.26067 -0.93345 0.73202 38 6 0
0.11021 -0.93345 0.94256 250 251 207
0.11021 -0.85665 0.94256 250 251 207
0.3579 -0.85665 0.94256 250 251 207
0.3579 -0.93345 0.94256 250 251 207
0.3579 -0.93345 0.69487 250 251 207
0.3579 -0.85665 0.69487 250 251 207
0.11021 -0.85665 0.69487 250 251 207
0.11021 -0.93345 0.69487 250 251 207
0.26067 -0.93345 0.73202 250 251 207
0.20743 -0.93345 0.73202 250 251 207
0.26067 -0.93345 0.9054 250 251 207
0.20743 -0.93345 0.9054 250 251 207
-0.20743 -0.93345 0.73202 38 6 0
-0.26067 -0.93345 0.73202 38 6 0
-0.26067 -0.93345 0.9054 38 6 0
-0.20743 -0.93345 0.9054 38 6 0
-0.11021 -0.93345 0.94256 250 251 207
-0.3579 -0.93345 0.94256 250 251 207
-0.3579 -0.85665 0.94256 250 251 207
-0.11021 -0.85665 0.94256 250 251 207
-0.3579 -0.93345 0.69487 250 251 207
-0.3579 -0.85665 0.69487 250 251 207
-0.11021 -0.85665 0.69487 250 251 207
-0.11021 -0.93345 0.69487 250 251 207
-0.26067 -0.93345 0.73202 250 251 207
-0.20743 -0.93345 0.73202 250 251 207
-0.26067 -0.93345 0.9054 250 251 207
-0.20743 -0.93345 0.9054 250 251 207
0.1688 -0.93814 0.85004 255 255 255
0.1688 -0.93814 0.92349 255 255 255
0.24258 -0.93814 0.92349 255 255 255
0.24258 -0.93814 0.85004 255 255 255
0.24258 -0.93144 0.92349 255 255 255
0.1688 -0.93144 0.92349 255 255 255
0.1688 -0.93144 0.85004 255 255 255
0.24258 -0.93144 0.85004 255 255 255
-0.29882 -0.93814 0.85004 255 255 255
-0.29882 -0.93814 0.92349 255 255 255
-0.22504 -0.93814 0.92349 255 255 255
-0.22504 -0.93814 0.85004 255 255 255
-0.22504 -0.93144 0.92349 255 255 255
-0.29882 -0.93144 0.92349 255 255 255
-0.29882 -0.93144 0.85004 255 255 255
-0.22504 -0.93144 0.85004 255 255 255
0.45737 -0.86847 0.82269 182 126 206
0.45737 -0.86847 0.00307 182 126 206
0.3282 -0.86847 0.69599 182 126 206
0.32719 -0.86847 0.82269 182 126 206
0.28239 -0.86847 0.6067 182 126 206
0.28239 -0.86847 0.45516 182 126 206
0.03881 -0.86847 0.6067 182 126 206
0.28239 -0.86847 0.37974 182 126 206
0.28239 -0.86847 0.2245 182 126 206
0.22868 -0.86847 0.14245 182 126 206
0.22868 -0.86847 0.00307 182 126 206
0.45737 -0.625 0.00307 182 126 206
0.22868 -0.625 0.00307 182 126 206
0.22868 -0.625 0.14245 182 126 206
0.45737 -0.625 0.14253 182 126 206
0.45737 -0.24873 0.14308 182 126 206
-0.22868 -0.625 0.14245 182 126 206
-0.45737 -0.24873 0.14308 182 126 206
0.45737 -0.24873 0.82269 182 126 206
-0.22868 -0.86847 0.14245 182 126 206
-0.45737 -0.625 0.14253 182 126 206
-0.45737 -0.625 0.00307 182 126 206
-0.22868 -0.625 0.00307 182 126 206
-0.22868 -0.86847 0.00307 182 126 206
-0.45737 -0.86847 0.00307 182 126 206
-0.45737 -0.86847 0.82269 182 126 206
-0.45737 -0.24873 0.82269 182 126 206
-0.28239 -0.86847 0.2245 182 126 206
-0.28239 -0.86847 0.37974 182 126 206
-0.03881 -0.86847 0.2245 182 126 206
0.03881 -0.86847 0.2245 182 126 206
-0.28239 -0.86847 0.45516 182 126 206
-0.28239 -0.86847 0.6067 182 126 206
-0.3282 -0.86847 0.69599 182 126 206
-0.03881 -0.86847 0.6067 182 126 206
-0.32719 -0.86847 0.82269 182 126 206
0.24329 -0.86847 0.26537 60 19 34
0.24329 -0.78751 0.26537 60 19 34
0.24329 -0.78751 0.37974 60 19 34
0.24329 -0.86847 0.37974 60 19 34
0.03881 -0.86847 0.26537 60 19 34
0.03881 -0.78751 0.26537 60 19 34
0.28239 -0.86847 0.37974 60 19 34
0.28238 -0.78751 0.37974 60 19 34
0.03881 -0.78751 0.22451 60 19 34
0.03881 -0.86847 0.2245 60 19 34
0.28238 -0.78751 0.45521 60 19 34
0.24329 -0.78751 0.45521 60 19 34
-0.03881 -0.78751 0.26537 60 19 34
-0.03881 -0.78751 0.22451 60 19 34
-0.03881 -0.86847 0.2245 60 19 34
-0.03881 -0.86847 0.26537 60 19 34
-0.24329 -0.78751 0.26537 60 19 34
-0.24329 -0.86847 0.26537 60 19 34
-0.24329 -0.78751 0.37974 60 19 34
-0.24329 -0.86847 0.37974 60 19 34
-0.28238 -0.78751 0.37974 60 19 34
-0.28239 -0.86847 0.37974 60 19 34
-0.24329 -0.78751 0.45518 60 19 34
-0.03881 -0.78751 0.5677 60 19 34
0.03881 -0.78751 0.5677 60 19 34
-0.03881 -0.78751 0.6067 60 19 34
-0.03881 -0.86847 0.5677 60 19 34
-0.24329 -0.78751 0.5677 60 19 34
-0.24329 -0.86847 0.45516 60 19 34
-0.24329 -0.86847 0.5677 60 19 34
-0.03881 -0.86847 0.6067 60 19 34
0.03881 -0.78751 0.6067 60 19 34
0.03881 -0.86847 0.6067 60 19 34
0.03881 -0.86847 0.5677 60 19 34
0.24329 -0.78751 0.5677 60 19 34
0.24329 -0.86847 0.5677 60 19 34
0.24329 -0.86847 0.45516 60 19 34
-0.28238 -0.78751 0.45518 60 19 34
-0.28239 -0.86847 0.45516 60 19 34
0.3282 -0.86847 0.69599 161 111 182
-0.3282 -0.86847 0.69599 161 111 182
-0.32719 -0.86847 0.82269 161 111 182
0.32719 -0.86847 0.82269 161 111 182
-0.44484 -0.81076 0.50522 182 126 206
-0.77602 -0.81076 0.50522 182 126 206
-0.56244 -0.81076 0.78022 182 126 206
-0.44484 -0.81076 0.78022 182 126 206
-0.44484 -0.58741 0.50522 182 126 206
-0.77602 -0.58741 0.50522 182 126 206
-0.825 -0.81076 0.55105 182 126 206
-0.825 -0.58741 0.55105 182 126 206
-0.59924 -0.81079 0.81393 182 126 206
-0.825 -0.81132 1.14667 182 126 206
-0.59957 -0.81081 1.23289 182 126 206
-0.825 -0.58685 1.14667 182 126 206
-0.64988 -0.81109 1.28607 182 126 206
-0.9625 -0.58684 1.14629 182 126 206
-0.9625 -0.81133 1.14629 182 126 206
-0.9625 -0.58708 1.28607 182 126 206
-0.64988 -0.58708 1.28607 182 126 206
-0.59957 -0.58736 1.23289 182 126 206
-0.9625 -0.81109 1.28607 182 126 206
-0.98656 -0.60555 1.15793 182 126 206
-0.98656 -0.79262 1.15793 182 126 206
-0.98656 -0.60574 1.27441 182 126 206
-0.98656 -0.79243 1.27441 182 126 206
-0.59924 -0.58738 0.81393 182 126 206
-0.56244 -0.58741 0.78022 182 126 206
-0.44484 -0.58741 0.78022 182 126 206
-0.44484 -0.81076 0.78022 192 132 216
-0.56244 -0.81076 0.78022 192 132 216
-0.56244 -0.58741 0.78022 192 132 216
-0.44484 -0.58741 0.78022 192 132 216
-0.59924 -0.81079 0.81393 192 132 216
-0.59924 -0.58738 0.81393 192 132 216
-0.64988 -0.58708 1.28607 192 132 216
-0.59957 -0.58736 1.23289 192 132 216
-0.59957 -0.81081 1.23289 192 132 216
-0.64988 -0.81109 1.28607 192 132 216
-0.9625 -0.81109 1.28607 192 132 216
-0.9625 -0.58708 1.28607 192 132 216
-0.96301 -0.54443 0.60601 182 126 206
-0.92758 -0.54443 0.57795 182 126 206
-1.07655 -0.54443 0.42329 182 126 206
-1.12474 -0.54443 0.47087 182 126 206
-1.07655 -0.38312 0.42329 182 126 206
-0.44525 -0.38312 0.42329 182 126 206
-0.44525 -0.54443 0.42329 182 126 206
-1.12474 -0.38312 0.47087 182 126 206
-1.12474 -0.54443 0.86664 182 126 206
-0.96301 -0.54443 0.86664 182 126 206
-0.96301 -0.38312 0.60601 182 126 206
-0.96301 -0.38312 0.86664 182 126 206
-1.12474 -0.38312 0.86664 182 126 206
-0.44525 -0.54443 0.57795 182 126 206
-1.10992 -0.52964 0.89276 182 126 206
-0.97783 -0.52964 0.89276 182 126 206
-0.97783 -0.39791 0.89276 182 126 206
-1.10992 -0.39791 0.89276 182 126 206
-0.92758 -0.38312 0.57795 182 126 206
-0.44525 -0.38312 0.57795 182 126 206
-0.92758 -0.38312 0.57795 192 132 216
-0.92758 -0.54443 0.57795 192 132 216
-0.96301 -0.54443 0.60601 192 132 216
-0.96301 -0.38312 0.60601 192 132 216
-0.44525 -0.54443 0.57795 192 132 216
-0.44525 -0.38312 0.57795 192 132 216
-0.97783 -0.39791 0.89276 192 132 216
-0.97783 -0.52964 0.89276 192 132 216
-1.10992 -0.52964 0.89276 192 132 216
-1.10992 -0.39791 0.89276 192 132 216
-0.41279 -0.64501 0.20494 182 126 206
-0.6048 -0.64517 0.20494 182 126 206
-0.76262 -0.64548 0.36643 182 126 206
-0.41279 -0.64501 0.36643 182 126 206
-0.41302 -0.48352 0.20494 182 126 206
-0.60503 -0.48368 0.20494 182 126 206
-0.63383 -0.64532 0.16669 182 126 206
-0.67924 -0.64541 0.03177 182 126 206
-0.80357 -0.64556 0.23362 182 126 206
-0.80357 -0.64556 0.33407 182 126 206
-0.8038 -0.48408 0.33407 182 126 206
-0.8038 -0.48408 0.23362 182 126 206
-0.63383 -0.64532 0.06563 182 126 206
-0.83197 -0.64584 0.20494 182 126 206
-1.20198 -0.64613 0.03177 182 126 206
-1.20198 -0.64613 0.20494 182 126 206
-1.20221 -0.48464 0.03177 182 126 206
-0.67964 -0.48393 0.03177 182 126 206
-1.20221 -0.48464 0.20494 182 126 206
-0.83219 -0.48436 0.20494 182 126 206
-0.76301 -0.48399 0.36643 182 126 206
-0.63405 -0.48384 0.06563 182 126 206
-0.63405 -0.48384 0.16669 182 126 206
-0.41302 -0.48352 0.36643 182 126 206
-1.22627 -0.50082 0.18763 182 126 206
-1.22627 -0.50082 0.04909 182 126 206
-0.41279 -0.64501 0.36643 192 132 216
-0.76262 -0.64548 0.36643 192 132 216
-0.76301 -0.48399 0.36643 192 132 216
-0.41302 -0.48352 0.36643 192 132 216
-0.80357 -0.64556 0.33407 192 132 216
-0.8038 -0.48408 0.33407 192 132 216
-1.22609 -0.63001 0.18763 182 126 206
-1.22609 -0.63001 0.04909 182 126 206
-0.8038 -0.48408 0.23362 192 132 216
-0.80357 -0.64556 0.23362 192 132 216
-0.83197 -0.64584 0.20494 192 132 216
-0.83219 -0.48436 0.20494 192 132 216
-1.20198 -0.64613 0.20494 192 132 216
-1.20221 -0.48464 0.20494 192 132 216
-1.22609 -0.63001 0.18763 192 132 216
-1.22627 -0.50082 0.18763 192 132 216
-0.98656 -0.79243 1.27441 192 132 216
-0.98656 -0.60574 1.27441 192 132 216
0.28239 -0.86847 0.45516 60 19 34
3 0 2 1
3 0 3 2
3 4 6 5
3 4 7 6
3 6 8 5
3 6 9 8
3 10 9 6
3 10 11 9
3 4 8 12
3 4 5 8
3 13 15 14
3 13 16 15
3 17 19 18
3 17 20 19
3 20 21 19
3 20 22 21
3 12 23 4
3 12 24 23
3 25 2 3
3 25 26 2
3 3 27 25
3 3 0 27
3 28 27 0
3 28 29 27
3 0 30 28
3 0 1 30
3 31 33 32
3 31 34 33
3 32 33 35
3 32 35 36
3 37 39 38
3 37 40 39
3 40 41 39
3 40 42 41
3 18 19 43
3 19 21 43
3 38 39 44
3 39 41 44
3 45 47 46
3 45 48 47
3 45 49 48
3 45 50 49
3 50 45 51
3 50 51 52
3 53 55 54
3 53 56 55
3 57 55 58
3 57 58 59
3 60 62 61
3 60 63 62
3 64 66 65
3 64 67 66
3 65 66 68
3 65 68 69
3 70 72 71
3 70 53 72
3 73 47 74
3 73 46 47
3 45 46 73
3 45 73 51
3 75 77 76
3 75 78 77
3 78 79 77
3 78 80 79
3 81 83 82
3 81 84 83
3 82 83 85
3 82 85 86
3 55 87 58
3 55 56 87
3 53 87 56
3 53 70 87
3 67 88 66
3 66 88 68
3 84 89 83
3 83 89 85
3 54 72 53
3 54 90 72
3 91 4 23
3 91 7 4
3 92 94 93
3 92 95 94
3 96 95 92
3 96 97 95
3 97 94 95
3 98 97 96
3 98 99 97
3 97 99 100
3 97 100 101
3 97 101 94
3 98 96 102
3 102 92 93
3 102 96 92
3 98 102 103
3 104 106 105
3 104 107 106
3 107 104 108
3 107 108 109
3 110 112 111
3 110 113 112
3 114 113 110
3 114 115 113
3 115 112 113
3 115 116 112
3 117 110 111
3 117 114 110
3 118 120 119
3 118 121 120
3 122 115 114
3 122 123 115
3 115 123 124
3 115 124 116
3 122 114 117
3 122 117 125
3 126 128 127
3 126 129 128
3 130 129 126
3 130 131 129
3 131 128 129
3 132 131 130
3 132 133 131
3 131 133 134
3 131 134 135
3 131 135 128
3 132 130 136
3 136 126 127
3 136 130 126
3 132 136 137
3 138 140 139
3 138 141 140
3 141 138 142
3 141 142 143
3 144 146 145
3 144 147 146
3 148 150 149
3 148 151 150
3 152 150 151
3 152 153 150
3 154 148 149
3 154 155 148
3 151 148 156
3 151 156 157
3 152 151 157
3 152 157 158
3 155 152 158
3 154 152 155
3 154 153 152
3 155 158 159
3 148 159 156
3 148 155 159
3 160 162 161
3 160 163 162
3 164 166 165
3 164 167 166
3 168 166 167
3 168 169 166
3 170 164 165
3 170 171 164
3 168 167 172
3 168 172 173
3 167 174 172
3 167 164 174
3 164 175 174
3 164 171 175
3 170 168 171
3 170 169 168
3 171 168 173
3 171 173 175
3 176 178 177
3 176 179 178
3 178 180 177
3 178 181 180
3 182 178 179
3 182 179 183
3 182 183 184
3 185 178 182
3 185 181 178
3 184 185 182
3 184 186 185
3 181 185 187
3 181 187 188
3 180 181 188
3 180 188 189
3 190 189 188
3 187 190 188
3 190 191 189
3 192 191 190
3 192 190 193
3 194 193 190
3 187 194 190
3 194 195 193
3 194 196 195
3 196 194 187
3 196 187 197
3 198 200 199
3 198 201 200
3 202 198 199
3 200 202 199
3 202 203 198
3 200 204 202
3 205 198 203
3 205 201 198
3 204 200 206
3 204 206 207
3 201 205 208
3 201 208 209
3 200 209 206
3 200 201 209
3 210 206 209
3 210 211 206
3 212 211 210
3 206 212 207
3 206 211 212
3 212 210 213
3 208 210 209
3 208 213 210
3 213 208 214
3 205 214 208
3 205 215 214
3 203 215 205
3 203 216 215
3 217 215 216
3 217 218 215
3 219 218 217
3 219 217 220
3 217 221 220
3 221 219 220
3 217 222 221
3 221 223 219
3 224 217 216
3 217 224 222
3 216 202 224
3 203 202 216
3 218 219 225
3 219 223 225
3 218 225 226
3 215 227 214
3 215 218 227
3 227 218 226
3 223 228 225
3 223 229 228
3 228 229 230
3 227 228 230
3 230 231 227
3 231 214 227
3 231 232 214
3 213 214 232
3 213 232 233
3 233 232 231
3 213 233 212
3 230 234 231
3 231 234 235
3 235 230 229
3 235 234 230
3 231 235 236
3 231 236 233
3 227 226 237
3 227 237 228
3 226 225 238
3 225 239 238
3 225 228 239
3 240 238 239
3 240 239 241
3 226 238 240
3 228 241 239
3 228 237 241
3 242 244 243
3 242 245 244
3 246 242 243
3 246 243 247
3 248 242 246
3 248 249 242
3 244 245 250
3 244 250 251
3 252 251 250
3 252 253 251
3 254 253 252
3 254 255 253
3 256 254 252
3 256 252 257
3 258 260 259
3 258 261 260
3 259 262 258
3 260 263 259
3 263 262 259
3 260 264 263
3 263 265 262
3 266 261 258
3 266 267 261
3 268 258 262
3 268 266 258
3 261 267 269
3 261 269 270
3 260 261 270
3 260 270 271
3 272 271 270
3 272 273 271
3 273 272 274
3 271 273 275
3 275 273 274
3 271 275 276
3 275 274 277
3 278 270 269
3 278 272 270
3 279 272 278
3 279 274 272
3 280 282 281
3 280 281 283
3 280 283 284
3 280 284 285
3 280 285 286
3 286 285 287
3 287 288 286
3 286 288 289
3 286 289 290
3 286 290 291
3 286 291 292
3 292 291 293
3 292 293 294
3 292 294 295
3 296 292 295
3 297 292 296
3 298 292 297
3 298 299 292
3 300 299 298
3 301 299 300
3 301 302 299
3 301 303 302
3 301 304 303
3 301 305 304
3 301 306 305
3 305 306 307
3 306 308 307
3 306 309 308
3 308 309 310
3 308 310 311
3 312 311 310
3 312 313 311
3 314 313 312
3 315 314 312
3 315 316 314
3 315 317 316
3 315 318 317
3 315 319 318
3 315 320 319
3 320 321 319
3 321 322 319
3 321 323 322
3 323 324 322
3 324 325 322
3 322 325 326
3 322 326 327
3 322 327 328
3 329 322 328
3 329 328 330
3 329 330 331
3 332 329 333
3 329 331 333
3 329 332 334
3 335 329 334
3 335 334 336
3 335 336 337
3 335 337 338
3 335 338 339
3 339 340 335
3 340 341 335
3 340 342 341
3 342 343 341
3 342 344 343
3 343 345 341
3 346 341 345
3 346 347 341
3 346 348 347
3 346 349 348
3 349 350 348
3 349 351 350
3 352 354 353
3 352 355 354
3 356 355 352
3 356 280 355
3 282 280 356
3 354 355 357
3 358 357 355
3 358 355 359
3 358 359 360
3 358 360 361
3 361 360 362
3 361 362 363
3 364 366 365
3 364 367 366
3 368 370 369
3 368 371 370
3 370 372 369
3 370 373 372
3 372 373 374
3 372 374 375
3 375 374 376
3 375 376 377
3 377 376 378
3 377 378 379
3 368 380 371
3 368 381 380
3 382 384 383
3 382 385 384
3 384 386 383
3 384 387 386
3 386 387 388
3 386 388 389
3 390 389 388
3 390 391 389
3 392 391 390
3 392 390 393
3 394 396 395
3 394 397 396
3 394 395 398
3 394 398 399
3 396 397 400
3 396 400 401
3 402 401 400
3 402 403 401
3 402 404 403
3 402 405 404
3 406 408 407
3 406 409 408
3 408 410 407
3 408 411 410
3 410 411 412
3 410 412 413
3 414 413 412
3 414 415 413
3 416 415 414
3 416 414 417
3 418 420 419
3 418 421 420
3 419 422 418
3 419 423 422
3 422 423 424
3 422 424 425
3 426 425 424
3 426 427 425
3 427 426 428
3 427 428 429
3 430 432 431
3 430 433 432
3 431 434 430
3 431 435 434
3 436 438 437
3 436 439 438
3 437 440 436
3 437 441 440
3 440 441 442
3 440 442 443
3 444 443 442
3 444 445 443
3 445 447 446
3 445 444 447
3 448 450 449
3 448 451 450
3 449 452 448
3 449 453 452
3 454 456 455
3 454 457 456
3 455 458 454
3 455 459 458
3 456 457 460
3 456 460 461
3 462 461 460
3 462 463 461
3 463 462 464
3 463 464 465
3 466 468 467
3 466 469 468
3 470 466 467
3 470 467 471
3 468 469 472
3 468 472 473
3 474 473 472
3 474 475 473
3 476 475 474
3 476 477 475
3 478 480 479
3 478 481 480
3 482 478 479
3 482 479 483
3 480 481 484
3 480 484 485
3 486 485 484
3 486 487 485
3 488 487 486
3 488 489 487
3 490 492 491
3 490 493 492
3 494 490 491
3 494 491 495
3 492 493 496
3 492 496 497
3 498 497 496
3 498 499 497
3 500 499 498
3 500 501 499
3 502 504 503
3 502 505 504
3 506 508 507
3 506 509 508
3 510 512 511
3 510 513 512
3 514 516 515
3 514 517 516
3 518 520 519
3 518 521 520
3 522 524 523
3 522 525 524
3 526 528 527
3 526 529 528
3 530 532 531
3 530 533 532
3 532 533 534
3 532 534 535
3 534 536 535
3 534 537 536
3 537 538 536
3 537 539 538
3 539 540 538
3 539 541 540
3 530 531 542
3 530 542 543
3 544 546 545
3 544 547 546
3 547 544 548
3 547 548 549
3 550 552 551
3 550 553 552
3 553 555 554
3 553 550 555
3 556 558 557
3 556 559 558
3 560 562 561
3 560 563 562
3 237 240 241
3 237 226 240
3 121 565 564
3 121 118 565
3 566 568 567
3 566 569 568
3 570 569 566
3 570 571 569
3 572 569 571
3 572 568 569
3 572 571 573
3 572 574 568
3 574 572 575
3 574 575 576
3 572 577 575
3 572 573 577
3 576 575 578
3 575 577 579
3 575 579 580
3 578 575 580
3 577 581 579
3 577 582 581
3 577 583 582
3 573 583 577
3 578 580 584
3 580 579 585
3 580 585 586
3 584 580 586
3 579 587 585
3 579 581 587
3 586 585 587
3 586 587 588
3 584 586 588
3 573 589 583
3 573 590 589
3 573 571 590
3 591 590 571
3 591 571 570
3 589 576 583
3 589 574 576
3 592 594 593
3 592 595 594
3 594 595 596
3 594 596 597
3 598 600 599
3 598 601 600
3 598 599 602
3 598 602 603
3 604 606 605
3 604 607 606
3 605 606 608
3 609 608 606
3 609 606 610
3 610 606 607
3 605 608 611
3 604 605 612
3 604 612 613
3 614 604 613
3 614 613 615
3 605 616 612
3 605 611 616
3 610 607 617
3 613 612 618
3 613 618 619
3 615 613 619
3 615 619 620
3 612 621 618
3 612 616 621
3 616 615 620
3 611 615 616
3 611 614 615
3 608 614 611
3 608 622 614
3 623 622 608
3 623 608 609
3 616 620 621
3 624 626 625
3 624 627 626
3 628 627 624
3 628 624 629
3 630 632 631
3 630 633 632
3 634 636 635
3 634 637 636
3 638 637 634
3 638 639 637
3 636 637 640
3 641 636 640
3 642 636 641
3 642 643 636
3 642 644 643
3 642 645 644
3 641 640 646
3 642 641 647
3 647 641 648
3 647 648 649
3 641 650 648
3 641 651 650
3 651 652 650
3 651 653 652
3 651 645 653
3 645 651 654
3 654 651 655
3 646 655 651
3 646 651 641
3 640 655 646
3 640 656 655
3 654 655 656
3 639 654 656
3 637 656 640
3 637 639 656
3 645 654 644
3 657 654 639
3 657 639 638
3 650 652 658
3 650 658 659
3 660 662 661
3 660 663 662
3 662 663 664
3 662 664 665
3 658 666 659
3 658 667 666
3 649 666 667
3 649 648 666
3 648 659 666
3 648 650 659
3 668 670 669
3 668 671 670
3 669 670 672
3 669 672 673
3 673 672 674
3 673 674 675
3 603 677 676
3 603 602 677
3 678 680 679
3 678 681 680
3 682 684 683
3 682 685 684
3 686 684 685
3 686 687 684
3 688 687 686
3 688 682 683
3 688 686 689
3 688 689 682
3 689 686 690
3 689 690 691
3 682 689 691
3 686 692 690
3 686 685 692
3 685 693 692
3 685 682 693
3 682 691 693
3 694 696 695
3 694 697 696
3 698 700 699
3 698 701 700
3 702 699 700
3 702 700 703
3 704 702 703
3 704 701 698
3 704 705 702
3 704 698 705
3 705 706 702
3 705 707 706
3 698 707 705
3 702 708 699
3 702 706 708
3 699 709 698
3 699 708 709
3 698 709 707
3 710 712 711
3 710 713 712
3 711 712 714
3 713 714 712
3 711 714 715
3 716 713 710
3 716 711 715
3 716 710 711
3 716 717 713
3 713 717 714
3 718 720 719
3 718 721 720
3 719 720 722
3 721 722 720
3 719 722 723
3 724 721 718
3 724 719 723
3 724 718 719
3 724 725 721
3 721 725 722
3 726 728 727
3 726 729 728
3 730 727 728
3 730 731 727
3 730 728 732
3 727 731 733
3 734 727 733
3 734 735 727
3 727 735 736
3 736 737 727
3 736 738 737
3 739 737 738
3 735 739 738
3 735 738 736
3 739 740 737
3 740 739 741
3 741 739 742
3 735 742 739
3 741 742 743
3 740 741 744
3 740 744 726
3 726 727 740
3 735 745 742
3 746 743 742
3 742 747 746
3 742 748 747
3 749 747 748
3 749 750 747
3 746 747 750
3 745 748 742
3 745 749 748
3 751 746 750
3 746 751 752
3 746 752 743
3 750 749 745
3 753 750 745
3 753 754 750
3 745 755 753
3 756 755 745
3 756 745 735
3 756 735 734
3 757 750 754
3 758 750 757
3 758 759 750
3 759 751 750
3 760 759 758
3 751 759 761
3 760 728 759
3 760 732 728
3 740 727 737
3 762 764 763
3 762 765 764
3 763 766 762
3 763 767 766
3 764 767 763
3 764 765 768
3 764 768 769
3 766 767 770
3 766 770 771
3 772 764 769
3 772 773 764
3 774 770 767
3 764 774 767
3 774 775 770
3 771 770 775
3 774 776 775
3 771 775 776
3 774 777 776
3 777 774 778
3 777 778 779
3 779 778 780
3 774 780 778
3 779 780 781
3 781 780 782
3 781 782 783
3 784 782 780
3 773 784 780
3 773 785 784
3 773 786 785
3 786 787 785
3 788 785 787
3 785 788 789
3 784 785 789
3 790 784 789
3 790 789 791
3 789 788 791
3 788 787 792
3 786 793 787
3 786 794 793
3 786 795 794
3 796 795 786
3 796 797 795
3 773 797 796
3 796 786 773
3 773 798 797
3 784 799 782
3 799 783 782
3 799 800 783
3 773 780 764
3 764 780 774
3 801 803 802
3 801 804 803
3 805 807 806
3 805 808 807
3 809 805 806
3 809 806 810
3 811 810 806
3 811 806 807
3 811 812 810
3 811 807 813
3 813 814 811
3 813 815 814
3 811 814 816
3 811 816 812
3 815 817 814
3 814 818 816
3 814 819 818
3 817 819 814
3 816 818 820
3 816 820 821
3 816 821 822
3 812 816 822
3 817 823 819
3 819 824 818
3 819 825 824
3 823 825 819
3 818 826 820
3 818 824 826
3 825 826 824
3 825 827 826
3 823 827 825
3 812 822 828
3 812 828 829
3 812 829 810
3 830 810 829
3 830 809 810
3 828 822 815
3 828 815 813
3 831 833 832
3 831 834 833
3 833 835 832
3 833 836 835
3 837 839 838
3 837 840 839
3 837 841 840
3 837 842 841
3 843 845 844
3 843 846 845
3 846 847 845
3 848 845 847
3 848 849 845
3 849 844 845
3 846 850 847
3 843 851 846
3 843 852 851
3 853 852 843
3 853 854 852
3 846 855 850
3 846 851 855
3 849 856 844
3 852 857 851
3 852 858 857
3 854 858 852
3 854 859 858
3 851 860 855
3 851 857 860
3 855 859 854
3 850 855 854
3 850 854 853
3 847 850 853
3 847 853 861
3 862 847 861
3 862 848 847
3 855 860 859
3 863 865 864
3 863 866 865
3 867 863 864
3 867 868 863
3 869 871 870
3 869 872 871
3 873 875 874
3 873 876 875
3 877 873 874
3 877 874 878
3 875 879 874
3 880 879 875
3 881 880 875
3 881 875 882
3 881 882 883
3 881 883 884
3 880 885 879
3 881 886 880
3 886 887 880
3 886 888 887
3 880 887 889
3 880 889 890
3 890 889 891
3 890 891 892
3 890 892 884
3 884 893 890
3 893 894 890
3 885 890 894
3 885 880 890
3 879 885 894
3 879 894 895
3 893 895 894
3 878 895 893
3 874 895 878
3 874 879 895
3 884 883 893
3 896 878 893
3 896 877 878
3 889 897 891
3 889 898 897
3 899 901 900
3 899 902 901
3 901 903 900
3 901 904 903
3 897 906 905
3 897 898 906
3 888 905 906
3 888 906 887
3 887 906 898
3 887 898 889
3 907 909 908
3 907 910 909
3 910 911 909
3 910 912 911
3 912 913 911
3 912 914 913
3 842 915 841
3 842 916 915
3 784 800 799
3 784 790 800
3 798 772 917
3 798 773 772
3 792 793 794
3 792 787 793
3 917 769 768
3 917 772 769
