ply
format ascii 1.0
element vertex 906
property float x
property float y
property float z
property uchar red
property uchar green
property uchar blue
element face 968
property list uchar int vertex_index
end_header
0.03881 -0.99948 0.2245 250 238 212
0.03881 -0.99948 0.37982 250 238 212
0.28239 -0.99948 0.37974 250 238 212
0.28239 -0.99948 0.2245 250 238 212
0.28239 -0.99948 0.45516 250 238 212
0.03881 -0.99948 0.45483 250 238 212
0.03881 -0.99948 0.6067 250 238 212
0.28239 -0.99948 0.6067 250 238 212
0.03881 -0.9572 0.45483 250 238 212
0.03881 -0.9572 0.5677 250 238 212
0.03881 -0.86847 0.6067 250 238 212
0.03881 -0.86847 0.5677 250 238 212
0.24329 -0.9572 0.45516 250 238 212
0.28239 -0.86847 0.6067 250 241 222
0.28239 -0.99948 0.6067 250 241 222
0.03881 -0.99948 0.6067 250 241 222
0.03881 -0.86847 0.6067 250 241 222
0.03881 -0.86847 0.5677 221 210 187
0.03881 -0.9572 0.5677 221 210 187
0.24329 -0.9572 0.5677 221 210 187
0.24329 -0.86847 0.5677 221 210 187
0.24329 -0.9572 0.45516 221 210 187
0.24329 -0.86847 0.45516 221 210 187
0.28239 -0.86847 0.45516 250 238 212
0.24329 -0.86847 0.45516 250 238 212
0.28239 -0.86847 0.2245 250 238 212
0.28239 -0.86847 0.37974 250 238 212
0.03881 -0.86847 0.2245 250 238 212
0.03881 -0.9572 0.26537 250 238 212
0.03881 -0.86847 0.26537 250 238 212
0.03881 -0.9572 0.37982 250 238 212
0.28239 -0.86847 0.37974 250 241 222
0.28239 -0.99948 0.37974 250 241 222
0.24329 -0.9572 0.37974 250 241 222
0.24329 -0.86847 0.37974 250 241 222
0.03881 -0.9572 0.37982 250 241 222
0.03881 -0.99948 0.37982 250 241 222
0.24329 -0.86847 0.37974 221 210 187
0.24329 -0.9572 0.37974 221 210 187
0.24329 -0.9572 0.26537 221 210 187
0.24329 -0.86847 0.26537 221 210 187
0.03881 -0.9572 0.26537 221 210 187
0.03881 -0.86847 0.26537 221 210 187
0.03881 -0.9572 0.45483 221 210 187
0.03881 -0.9572 0.37982 221 210 187
-0.03881 -0.99948 0.2245 250 238 212
-0.28239 -0.99948 0.2245 250 238 212
-0.28239 -0.99948 0.37974 250 238 212
-0.03881 -0.99948 0.37982 250 238 212
-0.03881 -0.9572 0.37982 250 238 212
-0.03881 -0.9572 0.26537 250 238 212
-0.03881 -0.86847 0.2245 250 238 212
-0.03881 -0.86847 0.26537 250 238 212
-0.28239 -0.99948 0.45516 250 238 212
-0.28239 -0.99948 0.6067 250 238 212
-0.03881 -0.99948 0.6067 250 238 212
-0.03881 -0.99948 0.45483 250 238 212
-0.03881 -0.86847 0.6067 250 238 212
-0.03881 -0.9572 0.5677 250 238 212
-0.03881 -0.86847 0.5677 250 238 212
-0.28239 -0.86847 0.6067 250 241 222
-0.03881 -0.86847 0.6067 250 241 222
-0.03881 -0.99948 0.6067 250 241 222
-0.28239 -0.99948 0.6067 250 241 222
-0.03881 -0.86847 0.5677 221 210 187
-0.24329 -0.86847 0.5677 221 210 187
-0.24329 -0.9572 0.5677 221 210 187
-0.03881 -0.9572 0.5677 221 210 187
-0.24329 -0.9572 0.45516 221 210 187
-0.24329 -0.86847 0.45516 221 210 187
-0.24329 -0.9572 0.45516 250 238 212
-0.24329 -0.86847 0.45516 250 238 212
-0.28239 -0.86847 0.45516 250 238 212
-0.28239 -0.86847 0.2245 250 238 212
-0.28239 -0.86847 0.37974 250 238 212
-0.28239 -0.86847 0.37974 250 241 222
-0.24329 -0.86847 0.37974 250 241 222
-0.24329 -0.9572 0.37974 250 241 222
-0.28239 -0.99948 0.37974 250 241 222
-0.03881 -0.9572 0.37982 250 241 222
-0.03881 -0.99948 0.37982 250 241 222
-0.24329 -0.86847 0.37974 221 210 187
-0.24329 -0.86847 0.26537 221 210 187
-0.24329 -0.9572 0.26537 221 210 187
-0.24329 -0.9572 0.37974 221 210 187
-0.03881 -0.9572 0.26537 221 210 187
-0.03881 -0.86847 0.26537 221 210 187
-0.03881 -0.9572 0.45483 250 238 212
-0.03881 -0.9572 0.45483 221 210 187
-0.03881 -0.9572 0.37982 221 210 187
-0.28239 -0.86847 0.6067 250 238 212
0.28239 -0.86847 0.6067 250 238 212
-0.07642 -1.17677 0.99717 226 221 183
-0.07642 -1.17677 1.15002 226 221 183
0.07642 -1.17677 1.15002 226 221 183
0.07642 -1.17677 0.99717 226 221 183
-0.09756 -1.14676 0.97603 226 221 183
0.09756 -1.14676 0.97603 226 221 183
-0.09774 -0.87658 0.97586 226 221 183
0.09774 -0.87658 0.97586 226 221 183
0.09774 -0.87658 1.17133 226 221 183
0.09756 -1.14676 1.17116 226 221 183
-0.09756 -1.14676 1.17116 226 221 183
-0.09774 -0.87658 1.17133 226 221 183
-0.09756 -1.14676 1.17116 231 226 187
-0.09774 -0.87658 1.17133 231 226 187
0.09774 -0.87658 1.17133 231 226 187
0.09756 -1.14676 1.17116 231 226 187
-0.07642 -1.17677 1.15002 231 226 187
0.07642 -1.17677 1.15002 231 226 187
-0.09673 -1.25953 1.37077 226 221 183
-0.09673 -1.25953 1.56424 226 221 183
0.09673 -1.25953 1.56424 226 221 183
0.09673 -1.25953 1.37077 226 221 183
-0.12349 -1.22952 1.34401 226 221 183
0.12349 -1.22952 1.34401 226 221 183
0.12349 -1.22952 1.59099 226 221 183
-0.12349 -1.22952 1.59099 226 221 183
-0.12349 -1.22952 1.59099 231 226 187
-0.12346 -0.87207 1.59097 231 226 187
0.12346 -0.87207 1.59097 231 226 187
0.12349 -1.22952 1.59099 231 226 187
-0.12346 -0.87207 1.34404 226 221 183
0.12346 -0.87207 1.34404 226 221 183
0.12346 -0.87207 1.59097 226 221 183
-0.12346 -0.87207 1.59097 226 221 183
-0.08512 -1.21379 1.82999 226 221 183
-0.08512 -1.21379 2.00023 226 221 183
0.08512 -1.21379 2.00023 226 221 183
0.08512 -1.21379 1.82999 226 221 183
-0.10867 -1.18378 1.80645 226 221 183
0.10867 -1.18378 1.80645 226 221 183
-0.10873 -0.87633 1.80639 226 221 183
0.10873 -0.87633 1.80639 226 221 183
0.10873 -0.87633 2.02384 226 221 183
0.10867 -1.18378 2.02378 226 221 183
-0.10867 -1.18378 2.02378 226 221 183
-0.10873 -0.87633 2.02384 226 221 183
-0.10867 -1.18378 2.02378 231 226 187
-0.10873 -0.87633 2.02384 231 226 187
0.10873 -0.87633 2.02384 231 226 187
0.10867 -1.18378 2.02378 231 226 187
-0.08512 -1.21379 2.00023 231 226 187
0.08512 -1.21379 2.00023 231 226 187
-0.07644 -0.52637 2.47392 231 226 187
-0.07644 -0.37348 2.47392 231 226 187
0.07644 -0.37348 2.47392 231 226 187
0.07644 -0.52637 2.47392 231 226 187
-0.09759 -0.35234 2.44391 226 221 183
-0.09774 -0.35219 2.15044 226 221 183
0.09774 -0.35219 2.15044 226 221 183
0.09759 -0.35234 2.44391 226 221 183
0.09759 -0.54751 2.44391 226 221 183
0.09774 -0.54766 2.15044 226 221 183
-0.09774 -0.54766 2.15044 226 221 183
-0.09759 -0.54751 2.44391 226 221 183
-0.07644 -0.37348 2.47392 226 221 183
0.07644 -0.37348 2.47392 226 221 183
0.07644 -0.52637 2.47392 226 221 183
-0.07644 -0.52637 2.47392 226 221 183
-0.06335 0.12273 2.41563 231 226 187
-0.06335 0.24942 2.41563 231 226 187
0.06335 0.24942 2.41563 231 226 187
0.06335 0.12273 2.41563 231 226 187
-0.08087 0.26695 2.38562 226 221 183
-0.07999 0.26607 2.15235 226 221 183
0.07999 0.26607 2.15235 226 221 183
0.08087 0.26695 2.38562 226 221 183
0.08087 0.1052 2.38562 226 221 183
0.07999 0.10608 2.15235 226 221 183
-0.07999 0.10608 2.15235 226 221 183
-0.08087 0.1052 2.38562 226 221 183
0.06335 0.24942 2.41563 226 221 183
0.06335 0.12273 2.41563 226 221 183
-0.06335 0.24942 2.41563 226 221 183
-0.06335 0.12273 2.41563 226 221 183
0.54001 -0.20699 1.74328 226 221 183
0.54001 -0.83507 1.74328 226 221 183
0.54001 -0.83507 2.06149 226 221 183
0.54001 -0.20699 1.80894 226 221 183
0.47012 -0.88723 1.74328 226 221 183
0.47012 -0.88723 2.07666 226 221 183
0.54001 -0.77291 2.12182 226 221 183
0.54001 -0.15623 1.80894 226 221 183
0.54001 -0.15623 2.12182 226 221 183
0.47012 -0.792 2.16681 226 221 183
0.47012 -0.15623 2.16681 226 221 183
-0.47012 -0.792 2.16681 226 221 183
-0.47012 -0.88723 2.07666 226 221 183
-0.47012 -0.88723 1.74328 226 221 183
-0.54001 -0.83507 2.06149 226 221 183
-0.54001 -0.83507 1.74328 226 221 183
-0.54001 -0.20699 1.74328 226 221 183
-0.54001 -0.20699 1.80894 226 221 183
-0.54001 -0.77291 2.12182 226 221 183
-0.54001 -0.15623 1.80894 226 221 183
-0.54001 -0.15623 2.12182 226 221 183
-0.47012 -0.15623 2.16681 226 221 183
0.54001 1.38771 0.12446 226 221 183
0.54001 1.46153 0.20009 226 221 183
0.47012 1.5055 0.18756 226 221 183
0.47012 1.40788 0.08699 226 221 183
0.54001 1.46153 0.45868 226 221 183
0.54001 -0.2417 0.12446 226 221 183
0.47012 1.5055 0.45868 226 221 183
0.47012 -0.28042 0.08699 226 221 183
-0.47012 1.5055 0.18756 226 221 183
-0.47012 1.5055 0.45868 226 221 183
-0.47012 -0.28042 0.08699 226 221 183
-0.47012 1.40788 0.08699 226 221 183
-0.54001 1.38771 0.12446 226 221 183
-0.54001 1.46153 0.20009 226 221 183
-0.54001 1.46153 0.45868 226 221 183
-0.54001 -0.2417 0.12446 226 221 183
-0.47012 -0.3507 0.16832 226 221 183
0.47012 -0.3507 0.16832 226 221 183
0.54001 -0.30837 0.20579 226 221 183
0.54001 -0.30814 0.80553 226 221 183
0.47012 -0.35047 0.80539 226 221 183
0.47012 -0.88723 0.80541 226 221 183
0.54001 -0.83507 0.80554 226 221 183
0.54001 -0.83507 1.21658 226 221 183
0.54001 -0.20699 1.21658 226 221 183
0.47012 -0.88723 1.21658 226 221 183
0.54001 -0.20699 0.45868 226 221 183
0.11823 -0.88723 0.80541 226 221 183
0.11823 -0.84879 0.8054 226 221 183
-0.47012 -0.35047 0.80539 226 221 183
-0.11823 -0.88723 0.80541 226 221 183
-0.47012 -0.88723 1.21658 226 221 183
-0.47012 -0.88723 0.80541 226 221 183
-0.54001 -0.30814 0.80553 226 221 183
-0.54001 -0.30837 0.20579 226 221 183
-0.54001 -0.20699 0.45868 226 221 183
-0.54001 -0.83507 0.80554 226 221 183
-0.54001 -0.83507 1.21658 226 221 183
-0.54001 -0.20699 1.21658 226 221 183
-0.11823 -0.84879 0.8054 226 221 183
0.11823 -0.88725 0.73308 226 221 183
-0.11823 -0.88725 0.73308 226 221 183
0.11823 -0.8488 0.73307 226 221 183
-0.11823 -0.8488 0.73307 226 221 183
0.54001 1.46153 0.61215 226 221 183
0.54001 1.46153 1.00081 226 221 183
0.47012 1.5055 1.00081 226 221 183
0.47012 1.5055 0.61206 226 221 183
0.54001 1.13722 0.84596 226 221 183
0.54001 1.13722 1.00081 226 221 183
0.54001 0.94274 0.84596 226 221 183
0.54001 0.94274 0.61215 226 221 183
-0.47012 1.5055 0.61206 226 221 183
-0.47012 1.5055 1.00081 226 221 183
-0.54001 1.46153 0.61215 226 221 183
-0.54001 1.46153 1.00081 226 221 183
-0.54001 1.13722 0.84596 226 221 183
-0.54001 1.13722 1.00081 226 221 183
-0.54001 0.94274 0.84596 226 221 183
-0.54001 0.94274 0.61215 226 221 183
0.54001 1.46153 2.05928 226 221 183
0.54001 1.40735 2.12182 226 221 183
0.47012 1.42644 2.16681 226 221 183
0.47012 1.5055 2.07446 226 221 183
0.54001 1.13722 1.80894 226 221 183
0.54001 1.09149 2.12182 226 221 183
0.47012 1.09149 2.16681 226 221 183
0.54001 1.09149 1.80894 226 221 183
0.54001 1.46153 1.59871 226 221 183
0.47012 1.5055 1.59871 226 221 183
0.54001 1.13722 1.59871 226 221 183
-0.47012 1.5055 1.59871 226 221 183
-0.47012 1.5055 2.07446 226 221 183
-0.47012 1.42644 2.16681 226 221 183
-0.54001 1.46153 2.05928 226 221 183
-0.54001 1.40735 2.12182 226 221 183
-0.54001 1.13722 1.80894 226 221 183
-0.54001 1.09149 2.12182 226 221 183
-0.47012 1.09149 2.16681 226 221 183
-0.54001 1.09149 1.80894 226 221 183
-0.54001 1.46153 1.59871 226 221 183
-0.54001 1.13722 1.59871 226 221 183
0.54001 0.97765 0.99752 187 183 152
0.54001 1.13722 1.00081 187 183 152
0.54001 1.13722 0.84596 187 183 152
0.54001 1.13722 1.08943 187 183 152
0.54001 1.13722 1.50835 187 183 152
0.54001 1.13722 1.59871 187 183 152
0.54001 0.97765 1.65327 187 183 152
0.54001 1.13722 1.80894 187 183 152
0.54001 1.09149 1.80894 187 183 152
0.54001 1.01176 1.80894 187 183 152
0.54001 0.52534 1.80894 187 183 152
0.54001 0.43764 1.80894 187 183 152
0.54001 -0.05383 1.65345 187 183 152
0.54001 -0.06853 1.80894 187 183 152
0.54001 -0.15623 1.80894 187 183 152
0.54001 -0.20699 1.80894 187 183 152
0.54001 -0.20699 1.74328 187 183 152
0.54001 -0.20699 1.64889 187 183 152
0.54001 -0.20699 1.31192 187 183 152
0.54001 -0.05383 0.61215 187 183 152
0.54001 -0.20699 1.21658 187 183 152
0.54001 -0.20699 0.45868 187 183 152
0.54001 0.44468 0.61215 187 183 152
0.54001 0.52115 0.61215 187 183 152
0.54001 0.867 0.61215 187 183 152
0.54001 0.94274 0.61215 187 183 152
0.54001 1.46153 0.45868 187 183 152
0.54001 1.46153 0.61215 187 183 152
0.47012 1.5055 0.61206 187 183 152
0.47012 1.5055 0.45868 187 183 152
-0.47012 1.5055 0.45868 187 183 152
-0.47012 1.5055 0.61206 187 183 152
-0.54001 1.46153 0.45868 187 183 152
-0.54001 1.46153 0.61215 187 183 152
-0.54001 0.94274 0.61215 187 183 152
-0.54001 -0.20699 0.45868 187 183 152
-0.54001 0.867 0.61215 187 183 152
-0.54001 0.52115 0.61215 187 183 152
-0.54001 0.44468 0.61215 187 183 152
-0.54001 -0.05383 0.61215 187 183 152
-0.54001 -0.20699 1.21658 187 183 152
-0.54001 -0.20699 1.31192 187 183 152
-0.54001 -0.05383 1.65345 187 183 152
-0.54001 -0.20699 1.64889 187 183 152
-0.54001 -0.20699 1.74328 187 183 152
-0.54001 -0.20699 1.80894 187 183 152
-0.54001 -0.15623 1.80894 187 183 152
-0.54001 -0.06853 1.80894 187 183 152
-0.54001 0.43764 1.80894 187 183 152
-0.54001 0.97765 1.65327 187 183 152
-0.54001 0.52534 1.80894 187 183 152
-0.54001 1.01176 1.80894 187 183 152
-0.54001 1.13722 1.80894 187 183 152
-0.54001 1.09149 1.80894 187 183 152
-0.54001 1.13722 1.59871 187 183 152
-0.54001 0.97765 0.99752 187 183 152
-0.54001 1.13722 1.50835 187 183 152
-0.54001 1.13722 1.08943 187 183 152
-0.54001 1.13722 1.00081 187 183 152
-0.54001 1.13722 0.84596 187 183 152
-0.54001 0.94274 0.84596 187 183 152
-0.54001 0.35435 0.99752 187 183 152
-0.54001 0.867 0.84596 187 183 152
-0.54001 0.44468 0.84596 187 183 152
-0.54001 0.52115 0.84596 187 183 152
-0.54001 0.20421 0.84596 187 183 152
-0.54001 0.20435 1.47472 187 183 152
-0.54001 0.35435 1.31773 187 183 152
-0.54001 0.5858 1.31773 187 183 152
-0.54001 0.7422 1.47472 187 183 152
-0.54001 0.5858 1.1614 187 183 152
-0.54001 0.7422 1.1614 187 183 152
0.54001 0.867 0.84596 187 183 152
0.54001 0.52115 0.84596 187 183 152
0.54001 0.44468 0.84596 187 183 152
0.54001 0.35435 0.99752 187 183 152
0.54001 0.94274 0.84596 187 183 152
0.54001 0.20421 0.84596 187 183 152
0.54001 0.20435 1.47472 187 183 152
0.54001 0.35435 1.31773 187 183 152
0.54001 0.5858 1.31773 187 183 152
0.54001 0.7422 1.47472 187 183 152
0.54001 0.5858 1.1614 187 183 152
0.54001 0.7422 1.1614 187 183 152
0.54001 0.52115 0.84596 226 221 183
0.54001 0.867 0.84596 226 221 183
0.54001 0.867 0.61215 226 221 183
0.54001 0.52115 0.61215 226 221 183
0.54001 -0.05383 0.61215 226 221 183
0.54001 -0.05383 1.65345 226 221 183
0.54001 0.20435 1.47472 226 221 183
0.54001 0.20421 0.84596 226 221 183
0.54001 0.97765 1.65327 226 221 183
0.54001 0.7422 1.47472 226 221 183
0.54001 0.7422 1.1614 226 221 183
0.54001 0.97765 0.99752 226 221 183
0.54001 0.5858 1.1614 226 221 183
0.54001 0.35435 0.99752 226 221 183
0.54001 0.5858 1.31773 226 221 183
0.54001 0.35435 1.31773 226 221 183
0.54001 0.44468 0.84596 226 221 183
0.54001 0.44468 0.61215 226 221 183
0.54001 -0.20699 1.21658 213 209 173
0.54001 -0.83507 1.21658 213 209 173
0.54001 -0.83507 1.31192 213 209 173
0.54001 -0.20699 1.31192 213 209 173
0.47012 -0.88723 1.21658 213 209 173
0.47012 -0.88723 1.31192 213 209 173
-0.47012 -0.88723 1.31192 213 209 173
-0.47012 -0.88723 1.21658 213 209 173
-0.54001 -0.83507 1.31192 213 209 173
-0.54001 -0.83507 1.21658 213 209 173
-0.54001 -0.20699 1.21658 213 209 173
-0.54001 -0.20699 1.31192 213 209 173
0.54001 -0.83507 1.74328 213 209 173
0.54001 -0.83507 1.64889 213 209 173
0.47012 -0.88723 1.64889 213 209 173
0.47012 -0.88723 1.74328 213 209 173
0.54001 -0.20699 1.64889 213 209 173
0.54001 -0.20699 1.74328 213 209 173
-0.47012 -0.88723 1.74328 213 209 173
-0.47012 -0.88723 1.64889 213 209 173
-0.54001 -0.83507 1.74328 213 209 173
-0.54001 -0.83507 1.64889 213 209 173
-0.54001 -0.20699 1.64889 213 209 173
-0.54001 -0.20699 1.74328 213 209 173
0.54001 -0.20699 1.31192 226 221 183
0.54001 -0.83507 1.31192 226 221 183
0.54001 -0.83507 1.64889 226 221 183
0.54001 -0.20699 1.64889 226 221 183
0.47012 -0.88723 1.31192 226 221 183
0.47012 -0.88723 1.64889 226 221 183
-0.47012 -0.88723 1.64889 226 221 183
-0.47012 -0.88723 1.31192 226 221 183
-0.54001 -0.83507 1.64889 226 221 183
-0.54001 -0.83507 1.31192 226 221 183
-0.54001 -0.20699 1.31192 226 221 183
-0.54001 -0.20699 1.64889 226 221 183
0.54001 -0.15623 2.12182 213 209 173
0.54001 -0.06853 2.12182 213 209 173
0.54001 -0.06853 1.80894 213 209 173
0.54001 -0.15623 1.80894 213 209 173
0.47012 -0.15623 2.16681 213 209 173
0.47012 -0.06853 2.16681 213 209 173
-0.47012 -0.06853 2.16681 213 209 173
-0.47012 -0.15623 2.16681 213 209 173
-0.54001 -0.06853 2.12182 213 209 173
-0.54001 -0.15623 2.12182 213 209 173
-0.54001 -0.06853 1.80894 213 209 173
-0.54001 -0.15623 1.80894 213 209 173
0.54001 -0.06853 2.12182 226 221 183
0.54001 0.43764 2.12182 226 221 183
0.54001 0.43764 1.80894 226 221 183
0.54001 -0.06853 1.80894 226 221 183
0.47012 -0.06853 2.16681 226 221 183
0.47012 0.43764 2.16681 226 221 183
0.54001 0.43764 2.12182 213 209 173
0.54001 0.52534 2.12182 213 209 173
0.54001 0.52534 1.80894 213 209 173
0.54001 0.43764 1.80894 213 209 173
0.47012 0.43764 2.16681 213 209 173
0.47012 0.52534 2.16681 213 209 173
-0.47012 0.52534 2.16681 213 209 173
-0.47012 0.43764 2.16681 213 209 173
-0.54001 0.52534 2.12182 213 209 173
-0.54001 0.43764 2.12182 213 209 173
-0.54001 0.43764 1.80894 213 209 173
-0.54001 0.52534 1.80894 213 209 173
0.54001 0.52534 2.12182 226 221 183
0.54001 1.01176 2.12182 226 221 183
0.54001 1.01176 1.80894 226 221 183
0.54001 0.52534 1.80894 226 221 183
0.47012 0.52534 2.16681 226 221 183
0.47012 1.01176 2.16681 226 221 183
0.54001 1.09149 2.12182 213 209 173
0.54001 1.01176 2.12182 213 209 173
0.47012 1.01176 2.16681 213 209 173
0.47012 1.09149 2.16681 213 209 173
0.54001 1.09149 1.80894 213 209 173
0.54001 1.01176 1.80894 213 209 173
-0.47012 1.09149 2.16681 213 209 173
-0.47012 1.01176 2.16681 213 209 173
-0.54001 1.09149 2.12182 213 209 173
-0.54001 1.01176 2.12182 213 209 173
-0.54001 1.09149 1.80894 213 209 173
-0.54001 1.01176 1.80894 213 209 173
0.54001 1.46153 1.50835 213 209 173
0.54001 1.46153 1.59871 213 209 173
0.47012 1.5055 1.59871 213 209 173
0.47012 1.5055 1.50835 213 209 173
0.54001 1.13722 1.50835 213 209 173
0.54001 1.13722 1.59871 213 209 173
-0.47012 1.5055 1.50835 213 209 173
-0.47012 1.5055 1.59871 213 209 173
-0.54001 1.46153 1.50835 213 209 173
-0.54001 1.46153 1.59871 213 209 173
-0.54001 1.13722 1.50835 213 209 173
-0.54001 1.13722 1.59871 213 209 173
0.54001 1.46153 1.00081 213 209 173
0.54001 1.46153 1.08943 213 209 173
0.47012 1.5055 1.08943 213 209 173
0.47012 1.5055 1.00081 213 209 173
0.54001 1.13722 1.00081 213 209 173
0.54001 1.13722 1.08943 213 209 173
-0.47012 1.5055 1.00081 213 209 173
-0.47012 1.5055 1.08943 213 209 173
-0.54001 1.46153 1.00081 213 209 173
-0.54001 1.46153 1.08943 213 209 173
-0.54001 1.13722 1.00081 213 209 173
-0.54001 1.13722 1.08943 213 209 173
0.54001 1.46153 1.08943 226 221 183
0.54001 1.46153 1.50835 226 221 183
0.47012 1.5055 1.50835 226 221 183
0.47012 1.5055 1.08943 226 221 183
0.54001 1.13722 1.08943 226 221 183
0.54001 1.13722 1.50835 226 221 183
-0.47012 1.5055 1.08943 226 221 183
-0.47012 1.5055 1.50835 226 221 183
-0.54001 1.46153 1.08943 226 221 183
-0.54001 1.46153 1.50835 226 221 183
-0.54001 1.13722 1.08943 226 221 183
-0.54001 1.13722 1.50835 226 221 183
0.54001 0.867 0.84596 213 209 173
0.54001 0.94274 0.84596 213 209 173
0.54001 0.94274 0.61215 213 209 173
0.54001 0.867 0.61215 213 209 173
0.47012 1.09149 2.16681 231 226 187
-0.47012 1.09149 2.16681 231 226 187
-0.47012 1.42644 2.16681 231 226 187
0.47012 1.42644 2.16681 231 226 187
0.47012 -0.792 2.16681 231 226 187
-0.47012 -0.792 2.16681 231 226 187
-0.47012 -0.15623 2.16681 231 226 187
0.47012 -0.15623 2.16681 231 226 187
0.47012 -0.06853 2.16681 231 226 187
-0.47012 -0.06853 2.16681 231 226 187
-0.47012 0.43764 2.16681 231 226 187
0.47012 0.43764 2.16681 231 226 187
0.47012 0.52534 2.16681 231 226 187
-0.47012 0.52534 2.16681 231 226 187
-0.47012 1.01176 2.16681 231 226 187
0.47012 1.01176 2.16681 231 226 187
0.54001 0.44468 0.84596 213 209 173
0.54001 0.52115 0.84596 213 209 173
0.54001 0.52115 0.61215 213 209 173
0.54001 0.44468 0.61215 213 209 173
-0.54001 0.52115 0.84596 226 221 183
-0.54001 0.52115 0.61215 226 221 183
-0.54001 0.867 0.61215 226 221 183
-0.54001 0.867 0.84596 226 221 183
-0.54001 -0.05383 0.61215 226 221 183
-0.54001 0.20421 0.84596 226 221 183
-0.54001 0.20435 1.47472 226 221 183
-0.54001 -0.05383 1.65345 226 221 183
-0.54001 0.97765 1.65327 226 221 183
-0.54001 0.7422 1.47472 226 221 183
-0.54001 0.7422 1.1614 226 221 183
-0.54001 0.97765 0.99752 226 221 183
-0.54001 0.5858 1.1614 226 221 183
-0.54001 0.35435 0.99752 226 221 183
-0.54001 0.5858 1.31773 226 221 183
-0.54001 0.35435 1.31773 226 221 183
-0.54001 0.44468 0.84596 226 221 183
-0.54001 0.44468 0.61215 226 221 183
-0.54001 -0.06853 2.12182 226 221 183
-0.54001 -0.06853 1.80894 226 221 183
-0.54001 0.43764 1.80894 226 221 183
-0.54001 0.43764 2.12182 226 221 183
-0.47012 -0.06853 2.16681 226 221 183
-0.47012 0.43764 2.16681 226 221 183
-0.54001 0.52534 2.12182 226 221 183
-0.54001 0.52534 1.80894 226 221 183
-0.54001 1.01176 1.80894 226 221 183
-0.54001 1.01176 2.12182 226 221 183
-0.47012 1.01176 2.16681 226 221 183
-0.47012 0.52534 2.16681 226 221 183
-0.54001 0.867 0.84596 213 209 173
-0.54001 0.867 0.61215 213 209 173
-0.54001 0.94274 0.61215 213 209 173
-0.54001 0.94274 0.84596 213 209 173
-0.54001 0.44468 0.84596 213 209 173
-0.54001 0.44468 0.61215 213 209 173
-0.54001 0.52115 0.61215 213 209 173
-0.54001 0.52115 0.84596 213 209 173
0.09673 -1.25953 1.56424 231 226 187
-0.09673 -1.25953 1.56424 231 226 187
0.44484 -0.81076 0.50522 115 182 199
0.44484 -0.81076 0.78022 115 182 199
0.56244 -0.81076 0.78022 115 182 199
0.77602 -0.81076 0.50522 115 182 199
0.56244 -0.58741 0.78022 115 182 199
0.44484 -0.58741 0.78022 115 182 199
0.44484 -0.58741 0.50522 115 182 199
0.77602 -0.58741 0.50522 115 182 199
0.825 -0.81076 0.55105 115 182 199
0.825 -0.58741 0.55105 115 182 199
0.59924 -0.81079 0.81393 115 182 199
0.59924 -0.58738 0.81393 115 182 199
0.825 -0.81132 1.14667 115 182 199
0.59957 -0.81081 1.23289 115 182 199
0.825 -0.58685 1.14667 115 182 199
0.64988 -0.81109 1.28607 115 182 199
0.9625 -0.58684 1.14629 115 182 199
0.9625 -0.81133 1.14629 115 182 199
0.9625 -0.58708 1.28607 115 182 199
0.64988 -0.58708 1.28607 115 182 199
0.59957 -0.58736 1.23289 115 182 199
0.9625 -0.81109 1.28607 115 182 199
0.98656 -0.60555 1.15793 115 182 199
0.98656 -0.79262 1.15793 115 182 199
0.98656 -0.60574 1.27441 115 182 199
0.98656 -0.79243 1.27441 115 182 199
0.64988 -0.58708 1.28607 121 191 209
0.64988 -0.81109 1.28607 121 191 209
0.59957 -0.81081 1.23289 121 191 209
0.59957 -0.58736 1.23289 121 191 209
0.9625 -0.81109 1.28607 121 191 209
0.9625 -0.58708 1.28607 121 191 209
0.96301 -0.54443 0.60601 115 182 199
1.12474 -0.54443 0.47087 115 182 199
1.07655 -0.54443 0.42329 115 182 199
0.92758 -0.54443 0.57795 115 182 199
1.07655 -0.38312 0.42329 115 182 199
0.44525 -0.38312 0.42329 115 182 199
0.44525 -0.54443 0.42329 115 182 199
1.12474 -0.38312 0.47087 115 182 199
1.12474 -0.54443 0.86664 115 182 199
0.96301 -0.54443 0.86664 115 182 199
0.96301 -0.38312 0.60601 115 182 199
0.96301 -0.38312 0.86664 115 182 199
1.12474 -0.38312 0.86664 115 182 199
0.44525 -0.54443 0.57795 115 182 199
1.10992 -0.52964 0.89276 115 182 199
0.97783 -0.52964 0.89276 115 182 199
0.97783 -0.39791 0.89276 115 182 199
1.10992 -0.39791 0.89276 115 182 199
0.92758 -0.38312 0.57795 115 182 199
0.44525 -0.38312 0.57795 115 182 199
0.92758 -0.38312 0.57795 121 191 209
0.96301 -0.38312 0.60601 121 191 209
0.96301 -0.54443 0.60601 121 191 209
0.92758 -0.54443 0.57795 121 191 209
0.44525 -0.54443 0.57795 121 191 209
0.44525 -0.38312 0.57795 121 191 209
0.97783 -0.39791 0.89276 121 191 209
1.10992 -0.39791 0.89276 121 191 209
1.10992 -0.52964 0.89276 121 191 209
0.97783 -0.52964 0.89276 121 191 209
0.41279 -0.64501 0.20494 115 182 199
0.41279 -0.64501 0.36643 115 182 199
0.76262 -0.64548 0.36643 115 182 199
0.6048 -0.64517 0.20494 115 182 199
0.41302 -0.48352 0.20494 115 182 199
0.60503 -0.48368 0.20494 115 182 199
0.63383 -0.64532 0.16669 115 182 199
0.67924 -0.64541 0.03177 115 182 199
0.80357 -0.64556 0.23362 115 182 199
0.80357 -0.64556 0.33407 115 182 199
0.8038 -0.48408 0.33407 115 182 199
0.8038 -0.48408 0.23362 115 182 199
0.63383 -0.64532 0.06563 115 182 199
0.83197 -0.64584 0.20494 115 182 199
1.20198 -0.64613 0.03177 115 182 199
1.20198 -0.64613 0.20494 115 182 199
1.20221 -0.48464 0.03177 115 182 199
0.67964 -0.48393 0.03177 115 182 199
1.20221 -0.48464 0.20494 115 182 199
0.83219 -0.48436 0.20494 115 182 199
0.76301 -0.48399 0.36643 115 182 199
0.63405 -0.48384 0.06563 115 182 199
0.63405 -0.48384 0.16669 115 182 199
0.41302 -0.48352 0.36643 115 182 199
1.22627 -0.50082 0.18763 115 182 199
1.22627 -0.50082 0.04909 115 182 199
0.41279 -0.64501 0.36643 121 191 209
0.41302 -0.48352 0.36643 121 191 209
0.76301 -0.48399 0.36643 121 191 209
0.76262 -0.64548 0.36643 121 191 209
0.80357 -0.64556 0.33407 121 191 209
0.8038 -0.48408 0.33407 121 191 209
1.22609 -0.63001 0.04909 115 182 199
1.22609 -0.63001 0.18763 115 182 199
0.8038 -0.48408 0.23362 121 191 209
0.83219 -0.48436 0.20494 121 191 209
0.83197 -0.64584 0.20494 121 191 209
0.80357 -0.64556 0.23362 121 191 209
1.20198 -0.64613 0.20494 121 191 209
1.20221 -0.48464 0.20494 121 191 209
1.22609 -0.63001 0.18763 121 191 209
1.22627 -0.50082 0.18763 121 191 209
0.98656 -0.60574 1.27441 121 191 209
0.98656 -0.79243 1.27441 121 191 209
0.20743 -0.93345 0.73202 38 6 0
0.20743 -0.93345 0.9054 38 6 0
0.26067 -0.93345 0.9054 38 6 0
0.26067 -0.93345 0.73202 38 6 0
0.11021 -0.93345 0.94256 250 251 207
0.11021 -0.85665 0.94256 250 251 207
0.3579 -0.85665 0.94256 250 251 207
0.3579 -0.93345 0.94256 250 251 207
0.3579 -0.93345 0.69487 250 251 207
0.3579 -0.85665 0.69487 250 251 207
0.11021 -0.85665 0.69487 250 251 207
0.11021 -0.93345 0.69487 250 251 207
0.26067 -0.93345 0.73202 250 251 207
0.20743 -0.93345 0.73202 250 251 207
0.26067 -0.93345 0.9054 250 251 207
0.20743 -0.93345 0.9054 250 251 207
-0.20743 -0.93345 0.73202 38 6 0
-0.26067 -0.93345 0.73202 38 6 0
-0.26067 -0.93345 0.9054 38 6 0
-0.20743 -0.93345 0.9054 38 6 0
-0.11021 -0.93345 0.94256 250 251 207
-0.3579 -0.93345 0.94256 250 251 207
-0.3579 -0.85665 0.94256 250 251 207
-0.11021 -0.85665 0.94256 250 251 207
-0.3579 -0.93345 0.69487 250 251 207
-0.3579 -0.85665 0.69487 250 251 207
-0.11021 -0.85665 0.69487 250 251 207
-0.11021 -0.93345 0.69487 250 251 207
-0.26067 -0.93345 0.73202 250 251 207
-0.20743 -0.93345 0.73202 250 251 207
-0.26067 -0.93345 0.9054 250 251 207
-0.20743 -0.93345 0.9054 250 251 207
0.1688 -0.93814 0.85004 254 255 239
0.1688 -0.93814 0.92349 254 255 239
0.24258 -0.93814 0.92349 254 255 239
0.24258 -0.93814 0.85004 254 255 239
0.24258 -0.93144 0.92349 254 255 239
0.1688 -0.93144 0.92349 254 255 239
0.1688 -0.93144 0.85004 254 255 239
0.24258 -0.93144 0.85004 254 255 239
-0.29882 -0.93814 0.85004 254 255 239
-0.29882 -0.93814 0.92349 254 255 239
-0.22504 -0.93814 0.92349 254 255 239
-0.22504 -0.93814 0.85004 254 255 239
-0.22504 -0.93144 0.92349 254 255 239
-0.29882 -0.93144 0.92349 254 255 239
-0.29882 -0.93144 0.85004 254 255 239
-0.22504 -0.93144 0.85004 254 255 239
0.45737 -0.86847 0.82269 115 182 199
0.45737 -0.86847 0.00307 115 182 199
0.3282 -0.86847 0.69599 115 182 199
0.32719 -0.86847 0.82269 115 182 199
0.28239 -0.86847 0.6067 115 182 199
0.28239 -0.86847 0.45516 115 182 199
0.03881 -0.86847 0.6067 115 182 199
0.28239 -0.86847 0.37974 115 182 199
0.28239 -0.86847 0.2245 115 182 199
0.22868 -0.86847 0.14245 115 182 199
0.22868 -0.86847 0.00307 115 182 199
0.45737 -0.625 0.00307 115 182 199
0.22868 -0.625 0.00307 115 182 199
0.22868 -0.625 0.14245 115 182 199
0.45737 -0.625 0.14253 115 182 199
0.45737 -0.24873 0.14308 115 182 199
-0.22868 -0.625 0.14245 115 182 199
-0.45737 -0.24873 0.14308 115 182 199
0.45737 -0.24873 0.82269 115 182 199
-0.22868 -0.86847 0.14245 115 182 199
-0.45737 -0.625 0.14253 115 182 199
-0.45737 -0.625 0.00307 115 182 199
-0.22868 -0.625 0.00307 115 182 199
-0.22868 -0.86847 0.00307 115 182 199
-0.45737 -0.86847 0.00307 115 182 199
-0.45737 -0.86847 0.82269 115 182 199
-0.45737 -0.24873 0.82269 115 182 199
-0.28239 -0.86847 0.2245 115 182 199
-0.28239 -0.86847 0.37974 115 182 199
-0.03881 -0.86847 0.2245 115 182 199
0.03881 -0.86847 0.2245 115 182 199
-0.28239 -0.86847 0.45516 115 182 199
-0.28239 -0.86847 0.6067 115 182 199
-0.3282 -0.86847 0.69599 115 182 199
-0.03881 -0.86847 0.6067 115 182 199
-0.32719 -0.86847 0.82269 115 182 199
0.24329 -0.86847 0.26537 60 19 41
0.24329 -0.78751 0.26537 60 19 41
0.24329 -0.78751 0.37974 60 19 41
0.24329 -0.86847 0.37974 60 19 41
0.03881 -0.86847 0.26537 60 19 41
0.03881 -0.78751 0.26537 60 19 41
0.28239 -0.86847 0.37974 60 19 41
0.28238 -0.78751 0.37974 60 19 41
0.03881 -0.78751 0.22451 60 19 41
0.03881 -0.86847 0.2245 60 19 41
0.28238 -0.78751 0.45521 60 19 41
0.24329 -0.78751 0.45521 60 19 41
-0.03881 -0.78751 0.26537 60 19 41
-0.03881 -0.78751 0.22451 60 19 41
-0.03881 -0.86847 0.2245 60 19 41
-0.03881 -0.86847 0.26537 60 19 41
-0.24329 -0.78751 0.26537 60 19 41
-0.24329 -0.86847 0.26537 60 19 41
-0.24329 -0.78751 0.37974 60 19 41
-0.24329 -0.86847 0.37974 60 19 41
-0.28238 -0.78751 0.37974 60 19 41
-0.28239 -0.86847 0.37974 60 19 41
-0.24329 -0.78751 0.45518 60 19 41
-0.03881 -0.78751 0.5677 60 19 41
0.03881 -0.78751 0.5677 60 19 41
-0.03881 -0.78751 0.6067 60 19 41
-0.03881 -0.86847 0.5677 60 19 41
-0.24329 -0.78751 0.5677 60 19 41
-0.24329 -0.86847 0.45516 60 19 41
-0.24329 -0.86847 0.5677 60 19 41
-0.03881 -0.86847 0.6067 60 19 41
0.03881 -0.78751 0.6067 60 19 41
0.03881 -0.86847 0.6067 60 19 41
0.03881 -0.86847 0.5677 60 19 41
0.24329 -0.78751 0.5677 60 19 41
0.24329 -0.86847 0.5677 60 19 41
0.24329 -0.86847 0.45516 60 19 41
-0.28238 -0.78751 0.45518 60 19 41
-0.28239 -0.86847 0.45516 60 19 41
0.3282 -0.86847 0.69599 103 163 178
-0.3282 -0.86847 0.69599 103 163 178
-0.32719 -0.86847 0.82269 103 163 178
0.32719 -0.86847 0.82269 103 163 178
-0.44484 -0.81076 0.50522 115 182 199
-0.77602 -0.81076 0.50522 115 182 199
-0.56244 -0.81076 0.78022 115 182 199
-0.44484 -0.81076 0.78022 115 182 199
-0.56244 -0.58741 0.78022 115 182 199
-0.44484 -0.58741 0.78022 115 182 199
-0.44484 -0.58741 0.50522 115 182 199
-0.77602 -0.58741 0.50522 115 182 199
-0.825 -0.81076 0.55105 115 182 199
-0.825 -0.58741 0.55105 115 182 199
-0.59924 -0.81079 0.81393 115 182 199
-0.59924 -0.58738 0.81393 115 182 199
-0.825 -0.81132 1.14667 115 182 199
-0.59957 -0.81081 1.23289 115 182 199
-0.825 -0.58685 1.14667 115 182 199
-0.64988 -0.81109 1.28607 115 182 199
-0.9625 -0.58684 1.14629 115 182 199
-0.9625 -0.81133 1.14629 115 182 199
-0.9625 -0.58708 1.28607 115 182 199
-0.64988 -0.58708 1.28607 115 182 199
-0.59957 -0.58736 1.23289 115 182 199
-0.9625 -0.81109 1.28607 115 182 199
-0.98656 -0.60555 1.15793 115 182 199
-0.98656 -0.79262 1.15793 115 182 199
-0.98656 -0.60574 1.27441 115 182 199
-0.98656 -0.79243 1.27441 115 182 199
-0.64988 -0.58708 1.28607 121 191 209
-0.59957 -0.58736 1.23289 121 191 209
-0.59957 -0.81081 1.23289 121 191 209
-0.64988 -0.81109 1.28607 121 191 209
-0.9625 -0.81109 1.28607 121 191 209
-0.9625 -0.58708 1.28607 121 191 209
-0.96301 -0.54443 0.60601 115 182 199
-0.92758 -0.54443 0.57795 115 182 199
-1.07655 -0.54443 0.42329 115 182 199
-1.12474 -0.54443 0.47087 115 182 199
-1.07655 -0.38312 0.42329 115 182 199
-0.44525 -0.38312 0.42329 115 182 199
-0.44525 -0.54443 0.42329 115 182 199
-1.12474 -0.38312 0.47087 115 182 199
-1.12474 -0.54443 0.86664 115 182 199
-0.96301 -0.54443 0.86664 115 182 199
-0.96301 -0.38312 0.60601 115 182 199
-0.96301 -0.38312 0.86664 115 182 199
-1.12474 -0.38312 0.86664 115 182 199
-0.44525 -0.54443 0.57795 115 182 199
-1.10992 -0.52964 0.89276 115 182 199
-0.97783 -0.52964 0.89276 115 182 199
-0.97783 -0.39791 0.89276 115 182 199
-1.10992 -0.39791 0.89276 115 182 199
-0.92758 -0.38312 0.57795 115 182 199
-0.44525 -0.38312 0.57795 115 182 199
-0.92758 -0.38312 0.57795 121 191 209
-0.92758 -0.54443 0.57795 121 191 209
-0.96301 -0.54443 0.60601 121 191 209
-0.96301 -0.38312 0.60601 121 191 209
-0.44525 -0.54443 0.57795 121 191 209
-0.44525 -0.38312 0.57795 121 191 209
-0.97783 -0.39791 0.89276 121 191 209
-0.97783 -0.52964 0.89276 121 191 209
-1.10992 -0.52964 0.89276 121 191 209
-1.10992 -0.39791 0.89276 121 191 209
-0.41279 -0.64501 0.20494 115 182 199
-0.6048 -0.64517 0.20494 115 182 199
-0.76262 -0.64548 0.36643 115 182 199
-0.41279 -0.64501 0.36643 115 182 199
-0.41302 -0.48352 0.20494 115 182 199
-0.60503 -0.48368 0.20494 115 182 199
-0.63383 -0.64532 0.16669 115 182 199
-0.67924 -0.64541 0.03177 115 182 199
-0.80357 -0.64556 0.23362 115 182 199
-0.80357 -0.64556 0.33407 115 182 199
-0.8038 -0.48408 0.33407 115 182 199
-0.8038 -0.48408 0.23362 115 182 199
-0.63383 -0.64532 0.06563 115 182 199
-0.83197 -0.64584 0.20494 115 182 199
-1.20198 -0.64613 0.03177 115 182 199
-1.20198 -0.64613 0.20494 115 182 199
-1.20221 -0.48464 0.03177 115 182 199
-0.67964 -0.48393 0.03177 115 182 199
-1.20221 -0.48464 0.20494 115 182 199
-0.83219 -0.48436 0.20494 115 182 199
-0.76301 -0.48399 0.36643 115 182 199
-0.63405 -0.48384 0.06563 115 182 199
-0.63405 -0.48384 0.16669 115 182 199
-0.41302 -0.48352 0.36643 115 182 199
-1.22627 -0.50082 0.18763 115 182 199
-1.22627 -0.50082 0.04909 115 182 199
-0.41279 -0.64501 0.36643 121 191 209
-0.76262 -0.64548 0.36643 121 191 209
-0.76301 -0.48399 0.36643 121 191 209
-0.41302 -0.48352 0.36643 121 191 209
-0.80357 -0.64556 0.33407 121 191 209
-0.8038 -0.48408 0.33407 121 191 209
-1.22609 -0.63001 0.18763 115 182 199
-1.22609 -0.63001 0.04909 115 182 199
-0.8038 -0.48408 0.23362 121 191 209
-0.80357 -0.64556 0.23362 121 191 209
-0.83197 -0.64584 0.20494 121 191 209
-0.83219 -0.48436 0.20494 121 191 209
-1.20198 -0.64613 0.20494 121 191 209
-1.20221 -0.48464 0.20494 121 191 209
-1.22609 -0.63001 0.18763 121 191 209
-1.22627 -0.50082 0.18763 121 191 209
-0.98656 -0.79243 1.27441 121 191 209
-0.98656 -0.60574 1.27441 121 191 209
0.28239 -0.86847 0.45516 60 19 41
3 0 2 1
3 0 3 2
3 4 6 5
3 4 7 6
3 6 8 5
3 6 9 8
3 10 9 6
3 10 11 9
3 4 8 12
3 4 5 8
3 13 15 14
3 13 16 15
3 17 19 18
3 17 20 19
3 20 21 19
3 20 22 21
3 12 23 4
3 12 24 23
3 25 2 3
3 25 26 2
3 3 27 25
3 3 0 27
3 28 27 0
3 28 29 27
3 0 30 28
3 0 1 30
3 31 33 32
3 31 34 33
3 32 33 35
3 32 35 36
3 37 39 38
3 37 40 39
3 40 41 39
3 40 42 41
3 18 19 43
3 19 21 43
3 38 39 44
3 39 41 44
3 45 47 46
3 45 48 47
3 45 49 48
3 45 50 49
3 50 45 51
3 50 51 52
3 53 55 54
3 53 56 55
3 57 55 58
3 57 58 59
3 60 62 61
3 60 63 62
3 64 66 65
3 64 67 66
3 65 66 68
3 65 68 69
3 70 72 71
3 70 53 72
3 73 47 74
3 73 46 47
3 45 46 73
3 45 73 51
3 75 77 76
3 75 78 77
3 78 79 77
3 78 80 79
3 81 83 82
3 81 84 83
3 82 83 85
3 82 85 86
3 55 87 58
3 55 56 87
3 53 87 56
3 53 70 87
3 67 88 66
3 66 88 68
3 84 89 83
3 83 89 85
3 54 72 53
3 54 90 72
3 91 4 23
3 91 7 4
3 92 94 93
3 92 95 94
3 96 95 92
3 96 97 95
3 97 94 95
3 98 97 96
3 98 99 97
3 97 99 100
3 97 100 101
3 97 101 94
3 98 96 102
3 102 92 93
3 102 96 92
3 98 102 103
3 104 106 105
3 104 107 106
3 107 104 108
3 107 108 109
3 110 112 111
3 110 113 112
3 114 113 110
3 114 115 113
3 115 112 113
3 115 116 112
3 117 110 111
3 117 114 110
3 118 120 119
3 118 121 120
3 122 115 114
3 122 123 115
3 115 123 124
3 115 124 116
3 122 114 117
3 122 117 125
3 126 128 127
3 126 129 128
3 130 129 126
3 130 131 129
3 131 128 129
3 132 131 130
3 132 133 131
3 131 133 134
3 131 134 135
3 131 135 128
3 132 130 136
3 136 126 127
3 136 130 126
3 132 136 137
3 138 140 139
3 138 141 140
3 141 138 142
3 141 142 143
3 144 146 145
3 144 147 146
3 148 150 149
3 148 151 150
3 152 150 151
3 152 153 150
3 154 148 149
3 154 155 148
3 151 148 156
3 151 156 157
3 152 151 157
3 152 157 158
3 155 152 158
3 154 152 155
3 154 153 152
3 155 158 159
3 148 159 156
3 148 155 159
3 160 162 161
3 160 163 162
3 164 166 165
3 164 167 166
3 168 166 167
3 168 169 166
3 170 164 165
3 170 171 164
3 168 167 172
3 168 172 173
3 167 174 172
3 167 164 174
3 164 175 174
3 164 171 175
3 170 168 171
3 170 169 168
3 171 168 173
3 171 173 175
3 176 178 177
3 176 179 178
3 178 180 177
3 178 181 180
3 182 178 179
3 182 179 183
3 182 183 184
3 185 178 182
3 185 181 178
3 184 185 182
3 184 186 185
3 181 185 187
3 181 187 188
3 180 181 188
3 180 188 189
3 190 189 188
3 187 190 188
3 190 191 189
3 192 191 190
3 192 190 193
3 194 193 190
3 187 194 190
3 194 195 193
3 194 196 195
3 196 194 187
3 196 187 197
3 198 200 199
3 198 201 200
3 202 198 199
3 200 202 199
3 202 203 198
3 200 204 202
3 205 198 203
3 205 201 198
3 204 200 206
3 204 206 207
3 201 205 208
3 201 208 209
3 200 209 206
3 200 201 209
3 210 206 209
3 210 211 206
3 212 211 210
3 206 212 207
3 206 211 212
3 212 210 213
3 208 210 209
3 208 213 210
3 213 208 214
3 205 214 208
3 205 215 214
3 203 215 205
3 203 216 215
3 217 215 216
3 217 218 215
3 219 218 217
3 219 217 220
3 217 221 220
3 221 219 220
3 217 222 221
3 221 223 219
3 224 217 216
3 217 224 222
3 216 202 224
3 203 202 216
3 218 219 225
3 219 223 225
3 218 225 226
3 215 227 214
3 215 218 227
3 227 218 226
3 223 228 225
3 223 229 228
3 228 229 230
3 227 228 230
3 230 231 227
3 231 214 227
3 231 232 214
3 213 214 232
3 213 232 233
3 233 232 231
3 213 233 212
3 230 234 231
3 231 234 235
3 235 230 229
3 235 234 230
3 231 235 236
3 231 236 233
3 227 226 237
3 227 237 228
3 226 225 238
3 225 239 238
3 225 228 239
3 240 238 239
3 240 239 241
3 226 238 240
3 228 241 239
3 228 237 241
3 242 244 243
3 242 245 244
3 246 242 243
3 246 243 247
3 248 242 246
3 248 249 242
3 244 245 250
3 244 250 251
3 252 251 250
3 252 253 251
3 254 253 252
3 254 255 253
3 256 254 252
3 256 252 257
3 258 260 259
3 258 261 260
3 259 262 258
3 260 263 259
3 263 262 259
3 260 264 263
3 263 265 262
3 266 261 258
3 266 267 261
3 268 258 262
3 268 266 258
3 261 267 269
3 261 269 270
3 260 261 270
3 260 270 271
3 272 271 270
3 272 273 271
3 273 272 274
3 271 273 275
3 275 273 274
3 271 275 276
3 275 274 277
3 278 270 269
3 278 272 270
3 279 272 278
3 279 274 272
3 280 282 281
3 280 281 283
3 280 283 284
3 280 284 285
3 280 285 286
3 286 285 287
3 287 288 286
3 286 288 289
3 286 289 290
3 286 290 291
3 286 291 292
3 292 291 293
3 292 293 294
3 292 294 295
3 296 292 295
3 297 292 296
3 298 292 297
3 298 299 292
3 300 299 298
3 301 299 300
3 301 302 299
3 301 303 302
3 301 304 303
3 301 305 304
3 301 306 305
3 305 306 307
3 306 308 307
3 306 309 308
3 308 309 310
3 308 310 311
3 312 311 310
3 312 313 311
3 314 313 312
3 315 314 312
3 315 316 314
3 315 317 316
3 315 318 317
3 315 319 318
3 315 320 319
3 320 321 319
3 321 322 319
3 321 323 322
3 323 324 322
3 324 325 322
3 322 325 326
3 322 326 327
3 322 327 328
3 329 322 328
3 329 328 330
3 329 330 331
3 332 329 333
3 329 331 333
3 329 332 334
3 335 329 334
3 335 334 336
3 335 336 337
3 335 337 338
3 335 338 339
3 339 340 335
3 340 341 335
3 340 342 341
3 342 343 341
3 342 344 343
3 343 345 341
3 346 341 345
3 346 347 341
3 346 348 347
3 346 349 348
3 349 350 348
3 349 351 350
3 352 354 353
3 352 355 354
3 356 355 352
3 356 280 355
3 282 280 356
3 354 355 357
3 358 357 355
3 358 355 359
3 358 359 360
3 358 360 361
3 361 360 362
3 361 362 363
3 364 366 365
3 364 367 366
3 368 370 369
3 368 371 370
3 370 372 369
3 370 373 372
3 372 373 374
3 372 374 375
3 375 374 376
3 375 376 377
3 377 376 378
3 377 378 379
3 368 380 371
3 368 381 380
3 382 384 383
3 382 385 384
3 384 386 383
3 384 387 386
3 386 387 388
3 386 388 389
3 390 389 388
3 390 391 389
3 392 391 390
3 392 390 393
3 394 396 395
3 394 397 396
3 394 395 398
3 394 398 399
3 396 397 400
3 396 400 401
3 402 401 400
3 402 403 401
3 402 404 403
3 402 405 404
3 406 408 407
3 406 409 408
3 408 410 407
3 408 411 410
3 410 411 412
3 410 412 413
3 414 413 412
3 414 415 413
3 416 415 414
3 416 414 417
3 418 420 419
3 418 421 420
3 419 422 418
3 419 423 422
3 422 423 424
3 422 424 425
3 426 425 424
3 426 427 425
3 427 426 428
3 427 428 429
3 430 432 431
3 430 433 432
3 431 434 430
3 431 435 434
3 436 438 437
3 436 439 438
3 437 440 436
3 437 441 440
3 440 441 442
3 440 442 443
3 444 443 442
3 444 445 443
3 445 447 446
3 445 444 447
3 448 450 449
3 448 451 450
3 449 452 448
3 449 453 452
3 454 456 455
3 454 457 456
3 455 458 454
3 455 459 458
3 456 457 460
3 456 460 461
3 462 461 460
3 462 463 461
3 463 462 464
3 463 464 465
3 466 468 467
3 466 469 468
3 470 466 467
3 470 467 471
3 468 469 472
3 468 472 473
3 474 473 472
3 474 475 473
3 476 475 474
3 476 477 475
3 478 480 479
3 478 481 480
3 482 478 479
3 482 479 483
3 480 481 484
3 480 484 485
3 486 485 484
3 486 487 485
3 488 487 486
3 488 489 487
3 490 492 491
3 490 493 492
3 494 490 491
3 494 491 495
3 492 493 496
3 492 496 497
3 498 497 496
3 498 499 497
3 500 499 498
3 500 501 499
3 502 504 503
3 502 505 504
3 506 508 507
3 506 509 508
3 510 512 511
3 510 513 512
3 514 516 515
3 514 517 516
3 518 520 519
3 518 521 520
3 522 524 523
3 522 525 524
3 526 528 527
3 526 529 528
3 530 532 531
3 530 533 532
3 532 533 534
3 532 534 535
3 534 536 535
3 534 537 536
3 537 538 536
3 537 539 538
3 539 540 538
3 539 541 540
3 530 531 542
3 530 542 543
3 544 546 545
3 544 547 546
3 547 544 548
3 547 548 549
3 550 552 551
3 550 553 552
3 553 555 554
3 553 550 555
3 556 558 557
3 556 559 558
3 560 562 561
3 560 563 562
3 237 240 241
3 237 226 240
3 121 565 564
3 121 118 565
3 566 568 567
3 566 569 568
3 567 568 570
3 567 570 571
3 572 569 566
3 572 573 569
3 574 569 573
3 574 568 569
3 574 573 575
3 574 576 568
3 570 568 576
3 570 576 577
3 575 570 577
3 575 573 570
3 571 570 573
3 571 573 572
3 576 574 578
3 576 578 579
3 574 580 578
3 574 575 580
3 579 578 581
3 578 580 582
3 578 582 583
3 581 578 583
3 580 584 582
3 580 585 584
3 580 586 585
3 575 586 580
3 575 577 586
3 581 583 587
3 583 582 588
3 583 588 589
3 587 583 589
3 582 590 588
3 582 584 590
3 589 588 590
3 589 590 591
3 587 589 591
3 577 579 586
3 577 576 579
3 592 594 593
3 592 595 594
3 592 593 596
3 592 596 597
3 598 600 599
3 598 601 600
3 599 600 602
3 603 602 600
3 603 600 604
3 604 600 601
3 599 602 605
3 598 599 606
3 598 606 607
3 608 598 607
3 608 607 609
3 599 610 606
3 599 605 610
3 604 601 611
3 607 606 612
3 607 612 613
3 609 607 613
3 609 613 614
3 606 615 612
3 606 610 615
3 610 609 614
3 605 609 610
3 605 608 609
3 602 608 605
3 602 616 608
3 617 616 602
3 617 602 603
3 610 614 615
3 618 620 619
3 618 621 620
3 622 621 618
3 622 618 623
3 624 626 625
3 624 627 626
3 628 630 629
3 628 631 630
3 632 631 628
3 632 633 631
3 630 631 634
3 635 630 634
3 636 630 635
3 636 637 630
3 636 638 637
3 636 639 638
3 635 634 640
3 636 635 641
3 641 635 642
3 641 642 643
3 635 644 642
3 635 645 644
3 645 646 644
3 645 647 646
3 645 639 647
3 639 645 648
3 648 645 649
3 640 649 645
3 640 645 635
3 634 649 640
3 634 650 649
3 648 649 650
3 633 648 650
3 631 650 634
3 631 633 650
3 639 648 638
3 651 648 633
3 651 633 632
3 644 646 652
3 644 652 653
3 654 656 655
3 654 657 656
3 656 657 658
3 656 658 659
3 652 660 653
3 652 661 660
3 643 660 661
3 643 642 660
3 642 653 660
3 642 644 653
3 662 664 663
3 662 665 664
3 663 664 666
3 663 666 667
3 667 666 668
3 667 668 669
3 597 671 670
3 597 596 671
3 672 674 673
3 672 675 674
3 676 678 677
3 676 679 678
3 680 678 679
3 680 681 678
3 682 681 680
3 682 676 677
3 682 680 683
3 682 683 676
3 683 680 684
3 683 684 685
3 676 683 685
3 680 686 684
3 680 679 686
3 679 687 686
3 679 676 687
3 676 685 687
3 688 690 689
3 688 691 690
3 692 694 693
3 692 695 694
3 696 693 694
3 696 694 697
3 698 696 697
3 698 695 692
3 698 699 696
3 698 692 699
3 699 700 696
3 699 701 700
3 692 701 699
3 696 702 693
3 696 700 702
3 693 703 692
3 693 702 703
3 692 703 701
3 704 706 705
3 704 707 706
3 705 706 708
3 707 708 706
3 705 708 709
3 710 707 704
3 710 705 709
3 710 704 705
3 710 711 707
3 707 711 708
3 712 714 713
3 712 715 714
3 713 714 716
3 715 716 714
3 713 716 717
3 718 715 712
3 718 713 717
3 718 712 713
3 718 719 715
3 715 719 716
3 720 722 721
3 720 723 722
3 724 721 722
3 724 725 721
3 724 722 726
3 721 725 727
3 728 721 727
3 728 729 721
3 721 729 730
3 730 731 721
3 730 732 731
3 733 731 732
3 729 733 732
3 729 732 730
3 733 734 731
3 734 733 735
3 735 733 736
3 729 736 733
3 735 736 737
3 734 735 738
3 734 738 720
3 720 721 734
3 729 739 736
3 740 737 736
3 736 741 740
3 736 742 741
3 743 741 742
3 743 744 741
3 740 741 744
3 739 742 736
3 739 743 742
3 745 740 744
3 740 745 746
3 740 746 737
3 744 743 739
3 747 744 739
3 747 748 744
3 739 749 747
3 750 749 739
3 750 739 729
3 750 729 728
3 751 744 748
3 752 744 751
3 752 753 744
3 753 745 744
3 754 753 752
3 745 753 755
3 754 722 753
3 754 726 722
3 734 721 731
3 756 758 757
3 756 759 758
3 757 760 756
3 757 761 760
3 758 761 757
3 758 759 762
3 758 762 763
3 760 761 764
3 760 764 765
3 766 758 763
3 766 767 758
3 768 764 761
3 758 768 761
3 768 769 764
3 765 764 769
3 768 770 769
3 765 769 770
3 768 771 770
3 771 768 772
3 771 772 773
3 773 772 774
3 768 774 772
3 773 774 775
3 775 774 776
3 775 776 777
3 778 776 774
3 767 778 774
3 767 779 778
3 767 780 779
3 780 781 779
3 782 779 781
3 779 782 783
3 778 779 783
3 784 778 783
3 784 783 785
3 783 782 785
3 782 781 786
3 780 787 781
3 780 788 787
3 780 789 788
3 790 789 780
3 790 791 789
3 767 791 790
3 790 780 767
3 767 792 791
3 778 793 776
3 793 777 776
3 793 794 777
3 767 774 758
3 758 774 768
3 795 797 796
3 795 798 797
3 799 801 800
3 799 802 801
3 802 803 801
3 802 804 803
3 805 799 800
3 805 800 806
3 807 806 800
3 807 800 801
3 807 808 806
3 807 801 809
3 803 809 801
3 803 810 809
3 808 810 803
3 808 803 806
3 804 806 803
3 804 805 806
3 809 811 807
3 809 812 811
3 807 813 808
3 807 811 813
3 812 814 811
3 811 815 813
3 811 816 815
3 814 816 811
3 813 815 817
3 813 817 818
3 813 818 819
3 808 819 810
3 808 813 819
3 814 820 816
3 816 821 815
3 816 822 821
3 820 822 816
3 815 823 817
3 815 821 823
3 822 823 821
3 822 824 823
3 820 824 822
3 810 819 812
3 810 812 809
3 825 827 826
3 825 828 827
3 825 829 828
3 825 830 829
3 831 833 832
3 831 834 833
3 834 835 833
3 836 833 835
3 836 837 833
3 837 832 833
3 834 838 835
3 831 839 834
3 831 840 839
3 841 840 831
3 841 842 840
3 834 843 838
3 834 839 843
3 837 844 832
3 840 845 839
3 840 846 845
3 842 846 840
3 842 847 846
3 839 848 843
3 839 845 848
3 843 847 842
3 838 843 842
3 838 842 841
3 835 838 841
3 835 841 849
3 850 835 849
3 850 836 835
3 843 848 847
3 851 853 852
3 851 854 853
3 855 851 852
3 855 856 851
3 857 859 858
3 857 860 859
3 861 863 862
3 861 864 863
3 865 861 862
3 865 862 866
3 863 867 862
3 868 867 863
3 869 868 863
3 869 863 870
3 869 870 871
3 869 871 872
3 868 873 867
3 869 874 868
3 874 875 868
3 874 876 875
3 868 875 877
3 868 877 878
3 878 877 879
3 878 879 880
3 878 880 872
3 872 881 878
3 881 882 878
3 873 878 882
3 873 868 878
3 867 873 882
3 867 882 883
3 881 883 882
3 866 883 881
3 862 883 866
3 862 867 883
3 872 871 881
3 884 866 881
3 884 865 866
3 877 885 879
3 877 886 885
3 887 889 888
3 887 890 889
3 889 891 888
3 889 892 891
3 885 894 893
3 885 886 894
3 876 893 894
3 876 894 875
3 875 894 886
3 875 886 877
3 895 897 896
3 895 898 897
3 898 899 897
3 898 900 899
3 900 901 899
3 900 902 901
3 830 903 829
3 830 904 903
3 778 794 793
3 778 784 794
3 792 766 905
3 792 767 766
3 786 787 788
3 786 781 787
3 905 763 762
3 905 766 763
