ply
format ascii 1.0
element vertex 588
property float x
property float y
property float z
property uchar red
property uchar green
property uchar blue
element face 651
property list uchar int vertex_index
end_header
-0.36067 -0.09851 1.74901 167 148 140
-0.36067 -0.09851 1.61377 167 148 140
-1.48005 -0.09851 1.61377 167 148 140
-1.48005 -0.09851 1.74901 167 148 140
-1.51195 -0.07491 1.74901 167 148 140
-1.51195 -0.07491 1.61377 167 148 140
-1.51195 0.14505 1.74901 167 148 140
-1.51195 0.14505 1.61377 167 148 140
-1.48005 0.16865 1.74901 167 148 140
-1.48005 0.16865 1.61377 167 148 140
-1.28083 0.16865 1.61377 167 148 140
-1.28083 0.16865 1.74901 167 148 140
-1.28083 0.23556 1.61377 167 148 140
-1.28083 0.23556 1.74901 167 148 140
-1.28083 0.16865 1.74901 174 154 146
-0.36067 -0.09851 1.74901 174 154 146
-1.48005 -0.09851 1.74901 174 154 146
-1.28083 0.23556 1.74901 174 154 146
-0.36067 0.29163 1.74901 174 154 146
-1.01013 0.49659 1.74901 174 154 146
-0.36067 0.68178 1.74901 174 154 146
-1.34732 0.68178 1.74901 174 154 146
-1.37864 0.49655 1.74901 174 154 146
-1.4801 0.4965 1.74901 174 154 146
-1.4801 0.23556 1.74901 174 154 146
-1.48005 0.16865 1.74901 174 154 146
-0.36067 0.68178 1.61377 167 148 140
-0.36067 0.68178 1.74901 167 148 140
-1.34732 0.68178 1.74901 167 148 140
-1.34732 0.68178 1.61377 167 148 140
-1.37922 0.65828 1.61377 167 148 140
-1.37922 0.65828 1.74901 167 148 140
-1.37864 0.49655 1.74901 167 148 140
-1.37864 0.49655 1.61377 167 148 140
-1.4801 0.4965 1.61377 167 148 140
-1.4801 0.4965 1.74901 167 148 140
-1.512 0.47184 1.61377 167 148 140
-1.512 0.47184 1.74901 167 148 140
-1.512 0.26022 1.74901 167 148 140
-1.512 0.26022 1.61377 167 148 140
-1.01013 0.49659 1.61377 209 203 185
-1.34732 0.68178 1.61377 209 203 185
-1.37864 0.49655 1.61377 209 203 185
-1.37922 0.65828 1.61377 209 203 185
-0.36067 0.68178 1.61377 209 203 185
-0.36067 0.29163 1.61377 209 203 185
-1.28083 0.23556 1.61377 209 203 185
-1.4801 0.4965 1.61377 209 203 185
-1.4801 0.23556 1.61377 209 203 185
-1.28083 0.16865 1.61377 209 203 185
-0.36067 -0.09851 1.61377 209 203 185
-1.48005 -0.09851 1.61377 209 203 185
-1.512 0.26022 1.61377 209 203 185
-1.512 0.47184 1.61377 209 203 185
-1.48005 0.16865 1.61377 209 203 185
-1.51195 -0.07491 1.61377 209 203 185
-1.51195 0.14505 1.61377 209 203 185
-1.4801 0.23556 1.61377 167 148 140
-1.4801 0.23556 1.74901 167 148 140
-1.37864 0.49655 1.74901 174 154 145
-1.37922 0.65828 1.74901 174 154 145
-1.34732 0.68178 1.74901 174 154 145
-1.48005 -0.09851 1.74901 174 154 145
-1.51195 -0.07491 1.74901 174 154 145
-1.51195 0.14505 1.74901 174 154 145
-1.48005 0.16865 1.74901 174 154 145
-1.4801 0.23556 1.74901 174 154 145
-1.512 0.26022 1.74901 174 154 145
-1.512 0.47184 1.74901 174 154 145
-1.4801 0.4965 1.74901 174 154 145
0.07564 0.37403 0.86536 247 198 47
0.07564 0.33201 0.93775 247 198 47
0.2744 0.33201 0.93775 247 198 47
0.2744 0.37403 0.86536 247 198 47
0.29083 0.39909 0.8799 247 198 47
0.29083 0.35706 0.95229 247 198 47
0.29083 0.63816 1.11547 247 198 47
0.29083 0.68018 1.04308 247 198 47
0.05878 0.35706 0.95229 247 198 47
0.05878 0.39909 0.8799 247 198 47
0.05878 0.68018 1.04308 247 198 47
0.05878 0.63816 1.11547 247 198 47
0.1256 0.61161 1.20257 247 198 47
0.1256 0.61124 1.09984 247 198 47
0.22401 0.61124 1.09984 247 198 47
0.22401 0.61161 1.20257 247 198 47
0.22401 0.51346 1.04307 247 198 47
0.22401 0.5132 1.20257 247 198 47
0.1256 0.5132 1.20257 247 198 47
0.1256 0.51346 1.04307 247 198 47
0.0755 0.65574 1.12568 247 198 47
0.0755 0.69776 1.05328 247 198 47
0.27411 0.69776 1.05328 247 198 47
0.27411 0.65574 1.12568 247 198 47
0.22401 0.51346 1.04307 252 206 62
0.29083 0.35706 0.95229 252 206 62
0.05878 0.35706 0.95229 252 206 62
0.1256 0.51346 1.04307 252 206 62
0.22401 0.61124 1.09984 252 206 62
0.29083 0.63816 1.11547 252 206 62
0.05878 0.63816 1.11547 252 206 62
0.1256 0.61124 1.09984 252 206 62
0.07564 0.33201 0.93775 252 206 62
0.2744 0.33201 0.93775 252 206 62
0.27411 0.65574 1.12568 252 206 62
0.0755 0.65574 1.12568 252 206 62
-0.38495 -0.35544 1.79284 167 148 140
-0.38495 -0.35544 2.4031 167 148 140
-0.32624 -0.39882 2.4031 167 148 140
-0.32624 -0.39882 1.79284 167 148 140
-0.38495 0.27687 1.79284 167 148 140
-0.38495 0.27687 2.4031 167 148 140
0.32624 -0.39882 1.79284 167 148 140
0.32624 -0.39882 2.4031 167 148 140
0.38495 -0.35544 1.79284 167 148 140
0.38495 -0.35544 2.4031 167 148 140
0.38495 0.27687 2.4031 167 148 140
0.38495 0.27687 1.79284 167 148 140
-0.28818 -0.35688 2.44717 167 148 140
-0.34004 -0.31856 2.44717 167 148 140
-0.34004 0.23999 2.44717 167 148 140
-0.32624 0.32025 2.4031 167 148 140
-0.32624 0.32025 1.79284 167 148 140
0.32624 0.32025 2.4031 167 148 140
0.32624 0.32025 1.79284 167 148 140
-0.28818 0.27831 2.44717 167 148 140
0.28818 0.27831 2.44717 167 148 140
0.34004 0.23999 2.44717 167 148 140
-0.2937 0.27351 1.74741 167 148 140
-0.34655 0.23577 1.74741 167 148 140
0.34655 0.23577 1.74741 167 148 140
0.2937 0.27351 1.74741 167 148 140
0.34655 -0.31434 1.74741 167 148 140
0.2937 -0.35208 1.74741 167 148 140
-0.2937 -0.35208 1.74741 167 148 140
-0.34655 -0.31434 1.74741 167 148 140
0.34004 -0.31856 2.44717 167 148 140
0.28818 -0.35688 2.44717 167 148 140
0.34004 -0.31856 2.44717 174 154 146
0.28818 -0.35688 2.44717 174 154 146
-0.28818 -0.35688 2.44717 174 154 146
-0.34004 -0.31856 2.44717 174 154 146
0.34004 0.23999 2.44717 174 154 146
-0.34004 0.23999 2.44717 174 154 146
0.28818 0.27831 2.44717 174 154 146
-0.28818 0.27831 2.44717 174 154 146
-0.14341 -0.67297 1.87461 185 91 99
-0.14341 -0.67297 1.92806 185 91 99
0.14341 -0.67297 1.92806 185 91 99
0.14341 -0.67297 1.87461 185 91 99
0.14341 -0.43386 1.92806 185 91 99
-0.14341 -0.43386 1.92806 185 91 99
0.14341 -0.43386 1.87461 185 91 99
-0.14341 -0.43386 1.87461 185 91 99
0.13529 -0.42449 2.18829 255 255 255
0.13529 -0.42449 2.22498 255 255 255
0.1561 -0.42449 2.22498 255 255 255
0.1561 -0.42449 2.18829 255 255 255
0.09681 -0.42449 2.25273 255 255 255
0.09681 -0.39561 2.25273 255 255 255
0.24432 -0.39561 2.25273 255 255 255
0.24432 -0.42449 2.25273 255 255 255
0.24432 -0.42449 2.063 255 255 255
0.24432 -0.39561 2.063 255 255 255
0.09681 -0.39561 2.063 255 255 255
0.09681 -0.42449 2.063 255 255 255
0.17056 -0.42449 2.08107 255 255 255
0.12675 -0.42449 2.08107 255 255 255
0.17056 -0.42449 2.23256 255 255 255
0.17056 -0.42449 2.11971 255 255 255
0.12675 -0.42449 2.23256 255 255 255
0.12675 -0.42449 2.11971 255 255 255
0.12675 -0.42449 2.08107 80 72 69
0.12675 -0.42449 2.11971 80 72 69
0.17056 -0.42449 2.11971 80 72 69
0.17056 -0.42449 2.08107 80 72 69
0.12675 -0.42449 2.11971 42 33 29
0.13529 -0.42449 2.18829 42 33 29
0.1561 -0.42449 2.18829 42 33 29
0.17056 -0.42449 2.11971 42 33 29
0.1561 -0.42449 2.22498 42 33 29
0.17056 -0.42449 2.23256 42 33 29
0.13529 -0.42449 2.22498 42 33 29
0.12675 -0.42449 2.23256 42 33 29
-0.13529 -0.42449 2.18829 255 255 255
-0.1561 -0.42449 2.18829 255 255 255
-0.1561 -0.42449 2.22498 255 255 255
-0.13529 -0.42449 2.22498 255 255 255
-0.09681 -0.42449 2.25273 255 255 255
-0.24432 -0.42449 2.25273 255 255 255
-0.24432 -0.39561 2.25273 255 255 255
-0.09681 -0.39561 2.25273 255 255 255
-0.24432 -0.42449 2.063 255 255 255
-0.24432 -0.39561 2.063 255 255 255
-0.09681 -0.39561 2.063 255 255 255
-0.09681 -0.42449 2.063 255 255 255
-0.17056 -0.42449 2.08107 255 255 255
-0.12675 -0.42449 2.08107 255 255 255
-0.17056 -0.42449 2.23256 255 255 255
-0.17056 -0.42449 2.11971 255 255 255
-0.12675 -0.42449 2.23256 255 255 255
-0.12675 -0.42449 2.11971 255 255 255
-0.12675 -0.42449 2.08107 80 72 69
-0.17056 -0.42449 2.08107 80 72 69
-0.17056 -0.42449 2.11971 80 72 69
-0.12675 -0.42449 2.11971 80 72 69
-0.12675 -0.42449 2.11971 42 33 29
-0.17056 -0.42449 2.11971 42 33 29
-0.1561 -0.42449 2.18829 42 33 29
-0.13529 -0.42449 2.18829 42 33 29
-0.1561 -0.42449 2.22498 42 33 29
-0.17056 -0.42449 2.23256 42 33 29
-0.13529 -0.42449 2.22498 42 33 29
-0.12675 -0.42449 2.23256 42 33 29
0.30339 -0.23795 2.61064 174 154 146
0.23506 -0.23795 2.67598 174 154 146
0.23506 -0.14636 2.67598 174 154 146
0.30339 -0.14636 2.61064 174 154 146
0.06916 -0.25321 2.52504 167 148 140
0.06916 -0.25321 2.71913 167 148 140
0.06916 -0.13109 2.71913 167 148 140
0.06916 -0.13109 2.52504 167 148 140
-0.06916 -0.25321 2.52504 167 148 140
-0.06916 -0.25321 2.71913 167 148 140
-0.06916 -0.13109 2.71913 167 148 140
-0.06916 -0.13109 2.52504 167 148 140
-0.15617 -0.25321 2.43259 167 148 140
0.15617 -0.25321 2.43259 167 148 140
0.29891 -0.25321 2.58315 167 148 140
0.2078 -0.25321 2.67027 167 148 140
0.15617 -0.13109 2.43259 167 148 140
0.2078 -0.13109 2.67027 167 148 140
0.29891 -0.13109 2.58315 167 148 140
-0.15617 -0.13109 2.43259 167 148 140
-0.29891 -0.13109 2.58315 167 148 140
-0.29891 -0.25321 2.58315 167 148 140
-0.2078 -0.13109 2.67027 167 148 140
-0.2078 -0.25321 2.67027 167 148 140
0.23506 -0.14636 2.67598 167 148 140
0.30339 -0.14636 2.61064 167 148 140
0.30339 -0.23795 2.61064 167 148 140
0.23506 -0.23795 2.67598 167 148 140
-0.23506 -0.23795 2.67598 167 148 140
-0.30339 -0.23795 2.61064 167 148 140
-0.23506 -0.14636 2.67598 167 148 140
-0.30339 -0.14636 2.61064 167 148 140
-0.30339 -0.23795 2.61064 174 154 146
-0.30339 -0.14636 2.61064 174 154 146
-0.23506 -0.14636 2.67598 174 154 146
-0.23506 -0.23795 2.67598 174 154 146
0.05187 -0.14636 2.74209 174 154 146
0.05187 -0.23795 2.74209 174 154 146
-0.05187 -0.23795 2.74209 174 154 146
-0.05187 -0.14636 2.74209 174 154 146
-0.43728 -0.18432 1.25313 209 203 185
-0.43728 -0.18432 1.62232 209 203 185
-0.3591 -0.24638 1.62232 209 203 185
-0.3591 -0.24638 1.25313 209 203 185
-0.43728 0.83069 1.25313 209 203 185
-0.43728 0.83069 1.62232 209 203 185
-0.38411 -0.13632 1.19013 209 203 185
-0.31244 -0.19321 1.19013 209 203 185
0.3591 -0.24638 1.25313 209 203 185
0.31244 -0.19321 1.19013 209 203 185
-0.38411 0.78269 1.19013 209 203 185
0.43728 -0.18432 1.25313 209 203 185
0.38411 -0.13632 1.19013 209 203 185
0.38411 0.78269 1.19013 209 203 185
0.3591 -0.24638 1.62232 209 203 185
-0.3591 -0.24638 1.80933 209 203 185
0.3591 -0.24638 1.80933 209 203 185
0.43728 -0.18432 1.62232 209 203 185
0.43728 0.83069 1.62232 209 203 185
0.43728 0.83069 1.25313 209 203 185
-0.32861 0.83958 1.19013 209 203 185
-0.37767 0.89275 1.25313 209 203 185
0.32861 0.83958 1.19013 209 203 185
0.37767 0.89275 1.25313 209 203 185
0.37767 0.89275 1.62232 209 203 185
-0.37767 0.89275 1.62232 209 203 185
-0.14423 0.89275 1.62232 209 203 185
0.14423 0.89275 1.62232 209 203 185
0.37489 0.77437 1.87421 174 154 146
0.37489 -0.128 1.87421 174 154 146
-0.37489 -0.128 1.87421 174 154 146
-0.37489 0.77437 1.87421 174 154 146
0.3201 0.83037 1.87421 174 154 146
-0.3201 0.83037 1.87421 174 154 146
-0.30436 -0.184 1.87421 174 154 146
0.30436 -0.184 1.87421 174 154 146
-0.43728 0.83069 1.80933 167 148 140
-0.43728 0.83069 1.62232 167 148 140
-0.37767 0.89275 1.62232 167 148 140
-0.37767 0.89275 1.80933 167 148 140
-0.37489 0.77437 1.87421 167 148 140
-0.3201 0.83037 1.87421 167 148 140
-0.37489 -0.128 1.87421 167 148 140
-0.43728 -0.18432 1.80933 167 148 140
-0.43728 -0.18432 1.62232 167 148 140
-0.3591 -0.24638 1.80933 167 148 140
-0.30436 -0.184 1.87421 167 148 140
0.30436 -0.184 1.87421 167 148 140
0.3591 -0.24638 1.80933 167 148 140
0.37489 -0.128 1.87421 167 148 140
0.43728 -0.18432 1.80933 167 148 140
0.43728 -0.18432 1.62232 167 148 140
0.3591 -0.24638 1.62232 167 148 140
0.37489 0.77437 1.87421 167 148 140
0.43728 0.83069 1.80933 167 148 140
-0.3591 -0.24638 1.62232 167 148 140
0.43728 0.83069 1.62232 167 148 140
0.37767 0.89275 1.80933 167 148 140
0.3201 0.83037 1.87421 167 148 140
0.14423 0.89275 1.80933 167 148 140
0.37767 0.89275 1.62232 167 148 140
0.14423 0.89275 1.62232 167 148 140
-0.14423 0.89275 1.80933 167 148 140
-0.14423 0.89275 1.62232 167 148 140
-0.14433 1.20845 1.62288 167 148 140
0.14433 1.20845 1.62288 167 148 140
-0.12028 1.24389 1.64492 167 148 140
0.12028 1.24389 1.64492 167 148 140
0.12028 1.24389 1.78735 167 148 140
-0.12028 1.24389 1.78735 167 148 140
0.14433 1.20845 1.80939 167 148 140
-0.14433 1.20845 1.80939 167 148 140
-0.14423 0.89275 1.80933 174 154 146
-0.14433 1.20845 1.80939 174 154 146
0.14433 1.20845 1.80939 174 154 146
0.14423 0.89275 1.80933 174 154 146
-0.2675 -0.39261 2.06684 247 198 47
-0.2675 -0.43901 1.96298 247 198 47
-0.2675 -0.43901 1.87856 247 198 47
-0.2675 -0.39261 1.80776 247 198 47
-0.2675 -0.77214 1.80776 247 198 47
-0.2675 -0.77214 1.87856 247 198 47
-0.22009 -0.43901 1.96298 247 198 47
-0.22009 -0.43901 1.87856 247 198 47
-0.22009 -0.8166 1.96298 247 198 47
-0.2675 -0.97399 1.96298 247 198 47
-0.23272 -0.99991 1.96298 247 198 47
-0.20324 -0.83444 1.96298 247 198 47
-0.2675 -0.97399 2.06684 247 198 47
-0.23272 -0.99991 2.06684 247 198 47
0.23272 -0.99991 1.96298 247 198 47
0.23272 -0.99991 2.06684 247 198 47
-0.24042 -0.79183 1.87856 247 198 47
-0.24042 -0.79183 1.80776 247 198 47
0.24042 -0.79183 1.80776 247 198 47
0.24042 -0.79183 1.87856 247 198 47
0.2675 -0.77214 1.80776 247 198 47
0.20324 -0.83444 1.96298 247 198 47
0.22009 -0.8166 1.96298 247 198 47
0.2675 -0.97399 1.96298 247 198 47
0.2675 -0.43901 1.96298 247 198 47
0.22009 -0.43901 1.96298 247 198 47
0.2675 -0.43901 1.87856 247 198 47
0.2675 -0.39261 2.06684 247 198 47
0.2675 -0.39261 1.80776 247 198 47
0.2675 -0.77214 1.87856 247 198 47
0.22009 -0.43901 1.87856 247 198 47
0.2675 -0.97399 2.06684 247 198 47
-0.22009 -0.72078 1.87856 252 206 62
-0.2675 -0.77214 1.87856 252 206 62
-0.2675 -0.43901 1.87856 252 206 62
-0.22009 -0.43901 1.87856 252 206 62
-0.24042 -0.79183 1.87856 252 206 62
-0.20338 -0.73952 1.87856 252 206 62
0.20338 -0.73952 1.87856 252 206 62
0.24042 -0.79183 1.87856 252 206 62
0.22009 -0.72078 1.87856 252 206 62
0.2675 -0.77214 1.87856 252 206 62
0.2675 -0.43901 1.87856 252 206 62
0.22009 -0.43901 1.87856 252 206 62
-0.20324 -0.83444 1.96298 112 54 54
0.20324 -0.83444 1.96298 112 54 54
0.22009 -0.8166 1.96298 112 54 54
-0.22009 -0.8166 1.96298 112 54 54
-0.22009 -0.43901 1.96298 112 54 54
0.22009 -0.43901 1.96298 112 54 54
0.22009 -0.43901 1.87856 112 54 54
-0.22009 -0.43901 1.87856 112 54 54
-0.22009 -0.72078 1.87856 112 54 54
0.22009 -0.72078 1.87856 112 54 54
-0.20338 -0.73952 1.87856 112 54 54
0.20338 -0.73952 1.87856 112 54 54
-0.2675 -0.39261 2.06684 252 206 62
-0.07533 -0.39261 2.06684 252 206 62
-0.07533 -0.55403 2.06684 252 206 62
-0.2675 -0.97399 2.06684 252 206 62
0.07533 -0.55403 2.06684 252 206 62
0.2675 -0.97399 2.06684 252 206 62
0.2675 -0.39261 2.06684 252 206 62
0.07533 -0.39261 2.06684 252 206 62
-0.23272 -0.99991 2.06684 252 206 62
0.23272 -0.99991 2.06684 252 206 62
-0.07533 -0.55403 2.13045 247 198 47
0.07533 -0.55403 2.13045 247 198 47
0.07533 -0.55403 2.06684 247 198 47
-0.07533 -0.55403 2.06684 247 198 47
-0.07533 -0.39261 2.13045 247 198 47
-0.07533 -0.39261 2.06684 247 198 47
0.07533 -0.39261 2.13045 247 198 47
0.07533 -0.39261 2.06684 247 198 47
-0.07533 -0.55403 2.13045 252 206 62
-0.07533 -0.39261 2.13045 252 206 62
0.07533 -0.39261 2.13045 252 206 62
0.07533 -0.55403 2.13045 252 206 62
-0.16162 -0.41606 2.37127 58 50 44
-0.16162 -0.36587 2.37127 58 50 44
-0.11463 -0.36587 2.39989 58 50 44
-0.11463 -0.41606 2.39989 58 50 44
-0.03885 -0.41606 2.1652 58 50 44
-0.03885 -0.36587 2.1652 58 50 44
0.03885 -0.36587 2.1652 58 50 44
0.03885 -0.41606 2.1652 58 50 44
0 -0.41606 2.245 58 50 44
0 -0.36587 2.245 58 50 44
0.16162 -0.36587 2.37127 58 50 44
0.16162 -0.41606 2.37127 58 50 44
0.11463 -0.36587 2.39989 58 50 44
0.11463 -0.41606 2.39989 58 50 44
0.8464 -0.97167 1.46228 109 147 53
0.8464 -0.97167 1.64157 109 147 53
1.02569 -0.97167 1.64157 109 147 53
1.02569 -0.97167 1.46228 109 147 53
0.8464 -0.62266 1.46228 109 147 53
1.02569 -0.62266 1.46228 109 147 53
1.02569 -0.62266 1.64157 109 147 53
0.8464 -0.62266 1.64157 109 147 53
0.8464 -0.62266 1.64157 192 200 108
0.8464 -0.41906 1.64157 192 200 108
1.02569 -0.41906 1.64157 192 200 108
1.02569 -0.62266 1.64157 192 200 108
1.02569 -0.26512 1.64157 192 200 108
0.8464 -0.26512 1.64157 192 200 108
1.02569 -0.26512 1.46228 192 200 108
1.02569 -0.41906 1.46228 192 200 108
0.8464 -0.62266 1.46228 192 200 108
0.8464 -0.41906 1.46228 192 200 108
1.06579 -0.62266 1.64157 192 200 108
1.06579 -0.62266 1.46228 192 200 108
1.02569 -0.62266 1.46228 192 200 108
0.8464 -0.26512 1.46228 192 200 108
1.18133 -0.41906 1.46228 192 200 108
1.23413 -0.46695 1.46228 192 200 108
1.23413 -0.46695 1.64157 192 200 108
1.18133 -0.41906 1.64157 192 200 108
1.23413 -0.62266 1.64157 192 200 108
1.23413 -0.62266 1.46228 192 200 108
0.87479 1.14182 1.61318 189 162 131
0.87479 1.14182 1.49067 189 162 131
0.9973 1.14182 1.49067 189 162 131
0.9973 1.14182 1.61318 189 162 131
0.8464 1.10149 1.64157 189 162 131
1.02569 1.10149 1.64157 189 162 131
1.02569 1.10149 1.46228 189 162 131
0.8464 1.10149 1.46228 189 162 131
0.8464 1.10149 1.46228 237 241 222
0.8464 -0.26512 1.46228 237 241 222
1.02569 -0.26512 1.46228 237 241 222
1.02569 1.10149 1.46228 237 241 222
0.8464 -0.26512 1.64157 237 241 222
0.8464 1.10149 1.64157 237 241 222
1.06579 -0.97167 1.64157 109 147 53
1.23413 -0.97167 1.64157 109 147 53
1.23413 -0.97167 1.46228 109 147 53
1.06579 -0.97167 1.46228 109 147 53
1.06579 -0.62266 1.46228 109 147 53
1.06579 -0.62266 1.64157 109 147 53
1.23413 -0.62266 1.46228 109 147 53
1.23413 -0.62266 1.64157 109 147 53
1.02569 1.10149 1.64157 237 241 222
1.02569 -0.26512 1.64157 237 241 222
-0.14433 1.20845 1.80939 174 154 145
-0.12028 1.24389 1.78735 174 154 145
0.12028 1.24389 1.78735 174 154 145
0.14433 1.20845 1.80939 174 154 145
0.05187 -0.14636 2.74209 167 148 140
-0.05187 -0.14636 2.74209 167 148 140
-0.05187 -0.23795 2.74209 167 148 140
0.05187 -0.23795 2.74209 167 148 140
-0.07564 0.37403 0.86536 247 198 47
-0.2744 0.37403 0.86536 247 198 47
-0.2744 0.33201 0.93775 247 198 47
-0.07564 0.33201 0.93775 247 198 47
-0.29083 0.39909 0.8799 247 198 47
-0.29083 0.35706 0.95229 247 198 47
-0.29083 0.63816 1.11547 247 198 47
-0.29083 0.68018 1.04308 247 198 47
-0.05878 0.35706 0.95229 247 198 47
-0.05878 0.39909 0.8799 247 198 47
-0.05878 0.68018 1.04308 247 198 47
-0.05878 0.63816 1.11547 247 198 47
-0.1256 0.61161 1.20257 247 198 47
-0.22401 0.61161 1.20257 247 198 47
-0.22401 0.61124 1.09984 247 198 47
-0.1256 0.61124 1.09984 247 198 47
-0.22401 0.51346 1.04307 247 198 47
-0.22401 0.5132 1.20257 247 198 47
-0.1256 0.5132 1.20257 247 198 47
-0.1256 0.51346 1.04307 247 198 47
-0.0755 0.65574 1.12568 247 198 47
-0.27411 0.65574 1.12568 247 198 47
-0.27411 0.69776 1.05328 247 198 47
-0.0755 0.69776 1.05328 247 198 47
-0.22401 0.51346 1.04307 252 206 62
-0.1256 0.51346 1.04307 252 206 62
-0.05878 0.35706 0.95229 252 206 62
-0.29083 0.35706 0.95229 252 206 62
-0.22401 0.61124 1.09984 252 206 62
-0.29083 0.63816 1.11547 252 206 62
-0.05878 0.63816 1.11547 252 206 62
-0.1256 0.61124 1.09984 252 206 62
-0.07564 0.33201 0.93775 252 206 62
-0.2744 0.33201 0.93775 252 206 62
-0.27411 0.65574 1.12568 252 206 62
-0.0755 0.65574 1.12568 252 206 62
0.36067 -0.09851 1.74901 167 148 140
1.48005 -0.09851 1.74901 167 148 140
1.48005 -0.09851 1.61377 167 148 140
0.36067 -0.09851 1.61377 167 148 140
1.51195 -0.07491 1.74901 167 148 140
1.51195 -0.07491 1.61377 167 148 140
1.51195 0.14505 1.74901 167 148 140
1.51195 0.14505 1.61377 167 148 140
1.48005 0.16865 1.74901 167 148 140
1.48005 0.16865 1.61377 167 148 140
1.28083 0.16865 1.61377 167 148 140
1.28083 0.16865 1.74901 167 148 140
1.28083 0.23556 1.74901 167 148 140
1.28083 0.23556 1.61377 167 148 140
1.28083 0.16865 1.74901 174 154 146
1.48005 -0.09851 1.74901 174 154 146
0.36067 -0.09851 1.74901 174 154 146
1.28083 0.23556 1.74901 174 154 146
0.36067 0.29163 1.74901 174 154 146
1.01013 0.49659 1.74901 174 154 146
0.36067 0.68178 1.74901 174 154 146
1.34732 0.68178 1.74901 174 154 146
1.37864 0.49655 1.74901 174 154 146
1.4801 0.4965 1.74901 174 154 146
1.4801 0.23556 1.74901 174 154 146
1.48005 0.16865 1.74901 174 154 146
0.36067 0.68178 1.61377 167 148 140
1.34732 0.68178 1.61377 167 148 140
1.34732 0.68178 1.74901 167 148 140
0.36067 0.68178 1.74901 167 148 140
1.37922 0.65828 1.61377 167 148 140
1.37922 0.65828 1.74901 167 148 140
1.37864 0.49655 1.74901 167 148 140
1.37864 0.49655 1.61377 167 148 140
1.4801 0.4965 1.61377 167 148 140
1.4801 0.4965 1.74901 167 148 140
1.512 0.47184 1.61377 167 148 140
1.512 0.47184 1.74901 167 148 140
1.512 0.26022 1.74901 167 148 140
1.512 0.26022 1.61377 167 148 140
1.01013 0.49659 1.61377 209 203 185
1.37864 0.49655 1.61377 209 203 185
1.34732 0.68178 1.61377 209 203 185
1.37922 0.65828 1.61377 209 203 185
0.36067 0.68178 1.61377 209 203 185
0.36067 0.29163 1.61377 209 203 185
1.28083 0.23556 1.61377 209 203 185
1.4801 0.4965 1.61377 209 203 185
1.4801 0.23556 1.61377 209 203 185
1.28083 0.16865 1.61377 209 203 185
0.36067 -0.09851 1.61377 209 203 185
1.48005 -0.09851 1.61377 209 203 185
1.512 0.26022 1.61377 209 203 185
1.512 0.47184 1.61377 209 203 185
1.48005 0.16865 1.61377 209 203 185
1.51195 -0.07491 1.61377 209 203 185
1.51195 0.14505 1.61377 209 203 185
1.4801 0.23556 1.74901 167 148 140
1.4801 0.23556 1.61377 167 148 140
1.37864 0.49655 1.74901 174 154 145
1.34732 0.68178 1.74901 174 154 145
1.37922 0.65828 1.74901 174 154 145
1.48005 -0.09851 1.74901 174 154 145
1.48005 0.16865 1.74901 174 154 145
1.51195 0.14505 1.74901 174 154 145
1.51195 -0.07491 1.74901 174 154 145
1.4801 0.23556 1.74901 174 154 145
1.4801 0.4965 1.74901 174 154 145
1.512 0.47184 1.74901 174 154 145
1.512 0.26022 1.74901 174 154 145
3 0 2 1
3 0 3 2
3 2 3 4
3 2 4 5
3 5 4 6
3 5 6 7
3 8 7 6
3 8 9 7
3 10 8 11
3 10 9 8
3 11 12 10
3 11 13 12
3 14 16 15
3 15 17 14
3 15 18 17
3 18 19 17
3 18 20 19
3 20 21 19
3 19 21 22
3 19 22 17
3 17 22 23
3 17 23 24
3 14 25 16
3 26 28 27
3 26 29 28
3 28 29 30
3 28 30 31
3 32 31 30
3 32 30 33
3 32 33 34
3 32 34 35
3 35 34 36
3 35 36 37
3 38 37 36
3 38 36 39
3 40 42 41
3 41 42 43
3 40 41 44
3 44 45 40
3 45 46 40
3 46 42 40
3 46 47 42
3 46 48 47
3 45 49 46
3 45 50 49
3 50 51 49
3 47 48 52
3 47 52 53
3 49 51 54
3 54 51 55
3 54 55 56
3 13 57 12
3 13 58 57
3 57 58 38
3 57 38 39
3 59 61 60
3 62 64 63
3 62 65 64
3 66 68 67
3 66 69 68
3 70 72 71
3 70 73 72
3 74 72 73
3 74 75 72
3 74 76 75
3 74 77 76
3 78 70 71
3 78 79 70
3 80 79 78
3 80 78 81
3 82 84 83
3 82 85 84
3 86 84 85
3 86 85 87
3 83 88 82
3 83 89 88
3 89 87 88
3 89 86 87
3 90 92 91
3 90 93 92
3 76 92 93
3 76 77 92
3 77 91 92
3 77 80 91
3 80 90 91
3 77 79 80
3 77 74 79
3 70 79 74
3 70 74 73
3 80 81 90
3 94 96 95
3 94 97 96
3 98 94 95
3 98 95 99
3 97 100 96
3 97 101 100
3 101 99 100
3 101 98 99
3 102 95 96
3 102 103 95
3 100 99 104
3 100 104 105
3 106 108 107
3 106 109 108
3 110 106 107
3 110 107 111
3 108 109 112
3 108 112 113
3 113 112 114
3 113 114 115
3 114 116 115
3 114 117 116
3 107 108 118
3 107 118 119
3 111 107 119
3 111 119 120
3 121 111 120
3 111 121 122
3 111 122 110
3 122 121 123
3 122 123 124
3 124 123 116
3 124 116 117
3 123 121 125
3 121 120 125
3 123 125 126
3 116 123 126
3 115 116 127
3 116 126 127
3 110 122 128
3 110 128 129
3 130 129 128
3 124 117 130
3 130 128 131
3 122 131 128
3 122 124 131
3 124 130 131
3 117 132 130
3 132 129 130
3 117 114 132
3 114 133 132
3 114 112 133
3 112 134 133
3 112 109 134
3 109 135 134
3 133 135 132
3 133 134 135
3 132 135 129
3 109 106 135
3 106 129 135
3 106 110 129
3 115 127 136
3 113 115 136
3 113 136 137
3 108 113 137
3 108 137 118
3 138 140 139
3 138 141 140
3 142 141 138
3 142 143 141
3 144 143 142
3 144 145 143
3 146 148 147
3 146 149 148
3 147 148 150
3 149 150 148
3 147 150 151
3 149 152 150
3 153 147 151
3 153 146 147
3 154 156 155
3 154 157 156
3 158 160 159
3 158 161 160
3 162 160 161
3 162 163 160
3 164 158 159
3 164 165 158
3 165 162 166
3 165 166 167
3 162 161 168
3 162 168 169
3 162 169 166
3 161 170 168
3 161 158 170
3 171 165 167
3 158 171 170
3 158 165 171
3 172 174 173
3 172 175 174
3 176 178 177
3 176 179 178
3 179 180 178
3 179 181 180
3 181 182 180
3 181 183 182
3 183 177 182
3 183 176 177
3 184 186 185
3 184 187 186
3 188 190 189
3 188 191 190
3 192 189 190
3 192 190 193
3 194 191 188
3 194 188 195
3 195 196 192
3 195 197 196
3 192 198 189
3 192 199 198
3 192 196 199
3 189 200 188
3 189 198 200
3 201 197 195
3 188 201 195
3 188 200 201
3 202 204 203
3 202 205 204
3 206 208 207
3 206 209 208
3 207 208 210
3 207 210 211
3 211 210 212
3 211 212 213
3 213 209 206
3 213 212 209
3 214 216 215
3 214 217 216
3 218 220 219
3 218 221 220
3 219 222 218
3 219 223 222
3 222 223 224
3 222 224 225
3 218 222 226
3 218 226 227
3 218 227 228
3 218 228 229
3 221 224 220
3 221 225 224
3 230 225 221
3 230 221 231
3 230 231 232
3 227 230 232
3 227 232 228
3 221 229 231
3 230 233 225
3 226 234 233
3 226 235 234
3 233 236 225
3 233 234 236
3 225 236 237
3 225 237 222
3 222 237 235
3 222 235 226
3 232 231 238
3 232 238 239
3 228 232 239
3 228 239 240
3 231 241 238
3 231 229 241
3 229 228 240
3 229 240 241
3 235 237 242
3 235 242 243
3 237 244 242
3 237 236 244
3 236 245 244
3 236 234 245
3 234 243 245
3 234 235 243
3 221 218 229
3 246 248 247
3 246 249 248
3 250 252 251
3 250 253 252
3 254 256 255
3 254 257 256
3 258 254 255
3 258 255 259
3 257 254 260
3 257 260 261
3 262 257 261
3 262 261 263
3 263 261 260
3 254 264 260
3 254 258 264
3 265 262 263
3 265 263 266
3 263 260 266
3 266 260 264
3 266 264 267
3 268 257 262
3 268 256 257
3 269 256 268
3 269 268 270
3 271 262 265
3 271 268 262
3 265 272 271
3 265 273 272
3 273 266 267
3 273 265 266
3 267 264 274
3 258 274 264
3 258 275 274
3 275 276 274
3 267 274 276
3 275 277 276
3 277 267 276
3 277 273 267
3 277 272 273
3 277 278 272
3 259 275 258
3 259 279 275
3 275 279 280
3 277 281 278
3 275 281 277
3 275 280 281
3 282 284 283
3 282 285 284
3 286 285 282
3 286 287 285
3 283 284 288
3 283 288 289
3 290 292 291
3 290 293 292
3 293 290 294
3 293 294 295
3 290 296 294
3 290 297 296
3 291 297 290
3 291 298 297
3 298 299 297
3 297 299 300
3 297 300 296
3 299 301 300
3 299 302 301
3 302 303 301
3 302 304 303
3 302 305 304
3 302 306 305
3 304 307 303
3 304 308 307
3 305 308 304
3 298 309 299
3 305 310 308
3 311 313 312
3 308 311 312
3 308 312 307
3 310 311 308
3 310 314 311
3 314 313 311
3 314 315 313
3 312 313 316
3 312 316 295
3 295 316 293
3 316 292 293
3 316 317 292
3 315 317 318
3 315 318 319
3 319 318 320
3 319 320 321
3 322 321 320
3 322 320 323
3 318 323 320
3 324 321 322
3 324 319 321
3 318 325 323
3 313 319 324
3 313 315 319
3 317 325 318
3 317 316 325
3 326 328 327
3 326 329 328
3 330 332 331
3 330 333 332
3 332 333 334
3 332 334 335
3 336 331 332
3 336 332 337
3 338 331 336
3 338 339 331
3 330 331 339
3 340 339 338
3 340 338 341
3 330 339 342
3 339 343 342
3 339 340 343
3 343 340 344
3 343 344 345
3 334 346 335
3 334 347 346
3 346 347 348
3 346 348 349
3 347 350 348
3 350 349 348
3 347 334 350
3 340 351 344
3 340 341 351
3 344 351 352
3 344 352 353
3 353 345 344
3 352 354 353
3 352 355 354
3 355 356 354
3 357 354 356
3 357 353 354
3 357 356 358
3 356 350 358
3 356 359 350
3 350 359 349
3 355 360 356
3 357 361 353
3 353 361 345
3 350 333 358
3 350 334 333
3 362 364 363
3 362 365 364
3 362 363 366
3 362 366 367
3 366 368 367
3 366 369 368
3 370 368 369
3 370 369 371
3 370 371 372
3 370 372 373
3 374 376 375
3 374 377 376
3 376 377 378
3 376 378 379
3 378 380 379
3 378 381 380
3 382 380 381
3 382 383 380
3 384 383 382
3 384 385 383
3 386 388 387
3 386 389 388
3 389 390 388
3 389 391 390
3 392 390 391
3 392 393 390
3 394 391 389
3 394 395 391
3 396 398 397
3 396 399 398
3 399 396 400
3 399 400 401
3 398 402 397
3 398 403 402
3 404 406 405
3 404 407 406
3 408 410 409
3 408 411 410
3 412 408 409
3 412 409 413
3 412 413 414
3 412 414 415
3 416 412 415
3 416 408 412
3 416 411 408
3 417 411 416
3 417 410 411
3 415 414 418
3 415 418 419
3 416 415 419
3 419 418 420
3 419 420 421
3 417 421 420
3 417 416 421
3 416 419 421
3 422 424 423
3 422 425 424
3 426 425 422
3 426 427 425
3 427 424 425
3 427 428 424
3 428 423 424
3 428 429 423
3 429 422 423
3 429 426 422
3 430 432 431
3 430 433 432
3 431 432 434
3 431 434 435
3 432 436 434
3 432 437 436
3 431 438 430
3 431 439 438
3 432 433 440
3 433 441 440
3 433 442 441
3 435 439 431
3 435 443 439
3 443 437 439
3 439 437 442
3 439 442 438
3 442 437 441
3 441 437 444
3 443 436 437
3 441 444 445
3 446 445 444
3 446 444 447
3 447 440 446
3 437 447 444
3 437 432 447
3 432 440 447
3 446 440 448
3 449 446 448
3 449 445 446
3 441 445 449
3 450 452 451
3 450 453 452
3 454 453 450
3 454 455 453
3 455 452 453
3 455 456 452
3 456 451 452
3 456 457 451
3 457 450 451
3 457 454 450
3 458 460 459
3 458 461 460
3 458 459 462
3 458 462 463
3 464 466 465
3 464 467 466
3 468 466 467
3 469 468 467
3 469 467 464
3 468 470 466
3 470 465 466
3 470 471 465
3 471 464 465
3 471 469 464
3 462 472 463
3 462 473 472
3 473 461 472
3 473 460 461
3 474 476 475
3 474 477 476
3 220 479 478
3 220 224 479
3 224 480 479
3 224 223 480
3 223 481 480
3 223 219 481
3 219 478 481
3 219 220 478
3 482 484 483
3 482 485 484
3 486 483 484
3 486 484 487
3 486 487 488
3 486 488 489
3 490 485 482
3 490 482 491
3 492 490 491
3 492 493 490
3 494 496 495
3 494 497 496
3 498 495 496
3 498 499 495
3 497 494 500
3 497 500 501
3 501 499 498
3 501 500 499
3 502 504 503
3 502 505 504
3 488 503 504
3 488 504 489
3 489 504 505
3 489 505 492
3 492 505 502
3 489 492 491
3 489 491 486
3 482 486 491
3 482 483 486
3 492 502 493
3 506 508 507
3 506 509 508
3 510 509 506
3 510 511 509
3 507 508 512
3 507 512 513
3 513 511 510
3 513 512 511
3 514 508 509
3 514 509 515
3 512 516 511
3 512 517 516
3 518 520 519
3 518 521 520
3 520 522 519
3 520 523 522
3 523 524 522
3 523 525 524
3 526 524 525
3 526 525 527
3 528 526 527
3 528 529 526
3 529 531 530
3 529 528 531
3 532 534 533
3 534 532 535
3 534 535 536
3 536 535 537
3 536 537 538
3 538 537 539
3 537 540 539
3 537 535 540
3 535 541 540
3 535 542 541
3 532 533 543
3 544 546 545
3 544 547 546
3 546 548 545
3 546 549 548
3 550 548 549
3 550 551 548
3 550 552 551
3 550 553 552
3 553 554 552
3 553 555 554
3 556 554 555
3 556 557 554
3 558 560 559
3 560 561 559
3 558 562 560
3 562 558 563
3 563 558 564
3 564 558 559
3 564 559 565
3 564 565 566
3 563 564 567
3 563 567 568
3 568 567 569
3 565 570 566
3 565 571 570
3 567 572 569
3 572 573 569
3 572 574 573
3 530 576 575
3 530 531 576
3 576 556 575
3 576 557 556
3 577 579 578
3 580 582 581
3 580 583 582
3 584 586 585
3 584 587 586
