mtllib Baltoy.mtl
v 0.114264 0.486086 -0.114264
vt 0.969466 0.81332
vn 0.5592909 0.5747839 -0.5973419
v 0.168632 0.38489 -0.10422
vt 0.969466 0.528624
vn 0.8508159 0 -0.5254639
v 0.070619 0.38489 -0.184883
vn 0.359139 0 -0.9332841
v 0.184883 0.447433 0
vt 0.969466 0.704576
vn 0.9416291 0.336652 0
v 0 0.477191 -0.168632
vt 0.969466 0.788295
vn 0 0.5629131 -0.8265161
v 0.130054 0.51692 0
vt 0.969466 0.94878
vn 0.6744712 0.7383012 0
v 0 0.54864 -0.0706051
vt 0.969466 0.989271
vn 0 0.8302971 -0.5573211
v 0.0611338 0.548652 -0.0352956
vt 0.969466 0.969025
vn 0.403913 0.8574889 -0.318696
v 0.114264 0.283694 -0.114264
vt 0.969466 0.243929
vn 0.5544918 -0.6187848 -0.5564568
v 0.184883 0.322347 0
vt 0.969466 0.352673
vn 0.9212598 -0.3889479 0
v -0.114264 0.486086 -0.114264
vn -0.5592909 0.5747839 -0.5973419
v -0.070619 0.38489 -0.184883
vn -0.359139 0 -0.9332841
v 0.0611338 0.548652 0.0352956
vn 0.403913 0.8574889 0.318696
v 0.10422 0.235544 0
vt 0.969466 0.108469
vn 0.4851132 -0.8744513 0
v -0.0611338 0.548652 -0.0352956
vn -0.403913 0.8574889 -0.318696
v 0 0.292589 -0.168632
vt 0.969466 0.268954
vn 0 -0.56661 -0.8239861
v 0 0.221151 -0.070619
vt 0.969466 0.0679783
vn 0 -0.9459989 -0.32417
v 0 0.221151 0.070619
vn 0 -0.9459989 0.32417
v -0.130054 0.51692 0
vn -0.6744712 0.7383012 0
v -0.168632 0.38489 -0.10422
vn -0.8508164 0 -0.5254632
v -0.184883 0.447433 0
vn -0.9416291 0.336652 0
v -0.10422 0.235544 0
vn -0.4851132 -0.8744513 0
v -0.114264 0.283694 -0.114264
vn -0.5544918 -0.6187848 -0.5564568
v -0.0611338 0.548652 0.0352956
vn -0.403913 0.8574889 0.318696
v -0.184883 0.322347 0
vn -0.9212598 -0.3889479 0
v -0.114264 0.486086 0.114264
vt 0.654719 0.81332
vn -0.5592909 0.5747839 0.5973419
v -0.070619 0.38489 0.184883
vt 0.407623 0.528624
vn -0.425554 0 0.904933
v 0 0.477191 0.168632
vt 0.00781465 0.788295
vn 0 0.609716 0.79262
v -0.168632 0.38489 0.10422
vt 0.96252 0.528624
vn -0.8508159 0 0.5254639
v 0 0.54864 0.0706051
vt 0.00781465 0.989271
vn 0 0.8302971 0.5573211
vt 1.44129 0.704576
vt 0.302835 0.969025
vt 0.597855 0.94878
v 0 0.38489 0.184883
vt 0.00781465 0.528624
vn 0 0 1
v -0.114264 0.283694 0.114264
vt 0.654719 0.24393
vn -0.5544918 -0.6187848 0.5564568
v 0 0.292589 0.168632
vt 0.00781465 0.268954
vn 0 -0.609703 0.79263
v 0.114264 0.486086 0.114264
vn 0.5592909 0.5747839 0.5973419
vt 1.44129 0.352673
v 0.070619 0.38489 0.184883
vn 0.425554 0 0.904933
vt 0.597855 0.108469
v 0.114264 0.283694 0.114264
vn 0.5544918 -0.6187848 0.5564568
vt 0.00781465 0.0679783
v 0.168632 0.38489 0.10422
vn 0.8508159 0 0.5254639
v 0 0.652309 0
vt 0.969466 0.964153
vn 0 1 0
vt 0.969466 0.578666
vn -0.7157801 0.5628791 -0.4133111
vn 0.71578 0.56288 -0.41331
vn -0.71578 0.56288 0.41331
vn 0.71578 0.56288 0.41331
vn 0 0.5629131 0.8265161
o merged_0_0_node
g polygon_0
usemtl lambert2_mat_id
f 1/1/1 2/2/2 3/2/3
f 1/1/1 4/3/4 2/2/2
f 1/1/1 3/2/3 5/4/5
f 1/1/1 6/5/6 4/3/4
f 1/1/1 5/4/5 7/6/7
f 1/1/1 8/7/8 6/5/6
f 1/1/1 7/6/7 8/7/8
f 2/2/2 9/8/9 3/2/3
f 2/2/2 4/3/4 10/9/10
f 2/2/2 10/9/10 9/8/9
f 5/4/5 11/1/11 7/6/7
f 5/4/5 3/2/3 12/2/12
f 5/4/5 12/2/12 11/1/11
f 6/5/6 8/7/8 13/7/13
f 10/9/10 14/10/14 9/8/9
f 7/6/7 11/1/11 15/7/15
f 3/2/3 16/11/16 12/2/12
f 3/2/3 9/8/9 16/11/16
f 14/10/14 17/12/17 9/8/9
f 14/10/14 18/12/18 17/12/17
f 9/8/9 17/12/17 16/11/16
f 11/1/11 19/5/19 15/7/15
f 11/1/11 12/2/12 20/2/20
f 11/1/11 21/3/21 19/5/19
f 11/1/11 20/2/20 21/3/21
f 18/12/18 22/10/22 17/12/17
f 16/11/16 23/8/23 12/2/12
f 16/11/16 17/12/17 23/8/23
f 17/12/17 22/10/22 23/8/23
f 12/2/12 23/8/23 20/2/20
f 15/7/15 19/5/19 24/7/24
f 21/3/21 20/2/20 25/9/25
f 25/9/25 23/8/23 22/10/22
f 25/9/25 20/2/20 23/8/23
f 26/13/26 27/14/27 28/15/28
f 26/13/26 29/16/29 27/14/27
f 26/13/26 28/15/28 30/17/30
f 26/13/26 21/18/21 29/16/29
f 26/13/26 30/17/30 24/19/24
f 26/13/26 19/20/19 21/18/21
f 26/13/26 24/19/24 19/20/19
f 27/14/27 31/21/31 28/15/28
f 27/14/27 29/16/29 32/22/32
f 27/14/27 33/23/33 31/21/31
f 27/14/27 32/22/32 33/23/33
f 30/17/30 28/15/28 34/13/34
f 30/17/30 34/13/34 13/19/13
f 21/18/21 25/24/25 29/16/29
f 29/16/29 25/24/25 32/22/32
f 31/21/31 33/23/33 35/14/35
f 31/21/31 35/14/35 28/15/28
f 28/15/28 35/14/35 34/13/34
f 13/19/13 34/13/34 6/20/6
f 25/24/25 22/25/22 32/22/32
f 33/23/33 36/22/36 35/14/35
f 33/23/33 32/22/32 18/26/18
f 33/23/33 18/26/18 36/22/36
f 32/22/32 22/25/22 18/26/18
f 34/13/34 4/18/4 6/20/6
f 34/13/34 35/14/35 37/16/37
f 34/13/34 37/16/37 4/18/4
f 35/14/35 36/22/36 37/16/37
f 18/26/18 14/25/14 36/22/36
f 4/18/4 37/16/37 10/24/10
f 10/24/10 36/22/36 14/25/14
f 10/24/10 37/16/37 36/22/36
f 38/27/38 7/28/5 15/28/39
f 38/27/38 8/28/40 7/28/5
f 38/27/38 15/28/39 24/28/41
f 38/27/38 13/28/42 8/28/40
f 38/27/38 24/28/41 30/28/43
f 38/27/38 30/28/43 13/28/42
v 0 0.232821 0
vt 0 0.956323
vn 1.71932E-05 1 0
v 0.05 0.204095 -0.0866025
vt 0.506148 1.01476
vn 0.288674 0.8164989 -0.4999969
v -0.05 0.204095 -0.0866026
vt -0.506 1.01476
vn -0.288663 0.8164941 -0.5000111
v 0.1 0.204095 0
vt 0.994871 1.01476
vn 0.450976 0.892536 0
v -0.1 0.2041 0
vt -0.995 1.01476
vn -0.4509669 0.8925407 0
v 0.05 0.204095 0.0866025
vn 0.288674 0.8164989 0.4999969
v -0.05 0.204095 0.0866025
vn -0.288663 0.8164941 0.5000111
v 0 0.165504 -0.132298
vt 0 0.764798
vn 0.0136814 0.09424183 -0.9954553
v 0.114573 0.165504 -0.066149
vt 1.13732 0.764798
vn 0.6961519 0.171173 -0.6971889
v -0.114574 0.165504 0.066149
vt -1.137 0.764798
vn -0.6961491 0.171167 0.6971931
v -0.114573 0.165504 -0.0661491
vn -0.6905238 0.15998 -0.7053958
v -0.114573 0.165504 0.0330745
vn -0.6095389 0.147377 0.7789367
v -0.114573 0.165504 -0.0330745
vn -0.6095389 0.147377 -0.7789367
v 0.114573 0.165504 0.066149
vn 0.6905267 0.1599859 0.7053916
v 0 0.165504 0.132298
vn -0.0136813 0.09424193 0.9954553
v 0 0.075144 -0.118117
vt 0 0.179516
vn 0.0167991 -0.331559 -0.9432849
v 0.114573 0.165504 -0.0330745
vn 0.6095487 0.1473849 -0.7789276
v 0.102292 0.075144 -0.0590586
vt 1.01728 0.179516
vn 0.6877719 -0.3879629 -0.6135589
v -0.102292 0.075144 -0.0590586
vt -1.017 0.179516
vn -0.6816872 -0.3782071 -0.6263082
v 0.102292 0.075144 0.0590586
vn 0.6816872 -0.3782071 0.6263082
v 0.114573 0.165504 0.0330745
vn 0.6095487 0.1473849 0.7789276
v 0 0.075144 0.118117
vn -0.0167991 -0.331559 0.9432849
v -0.102292 0.075144 0.0590586
vn -0.6877719 -0.3879629 0.6135589
v 0.0385338 0.0501564 -0.0667424
vt 0.394072 0.00240346
vn 0.279159 -0.8296269 -0.4835179
v 0.0770675 0.0501564 0
vt 0.770719 0.00240346
vn 0.5583181 -0.829627 0
v -0.0770675 0.0501564 0
vt -0.771 0.00240346
vn -0.5583181 -0.829627 0
v -0.0385338 0.0501564 -0.0667425
vt -0.394 0.00240346
vn -0.279159 -0.8296269 -0.4835179
v 0.0385338 0.0501564 0.0667424
vn 0.279159 -0.8296269 0.4835179
v -0.0385338 0.0501564 0.0667424
vn -0.279159 -0.8296269 0.4835179
v 0 -0.00145714 0
vt 0.918709 0.323697
vn 0 -1 0
vt 0.918708 0.0332681
v -0.251802 0.100995 0
vt 0.872131 0.166122
vn -0.6270351 -0.778991 0
vt 0.842647 0.209988
vt 0.87213 0.279179
v -0.104131 0.0886721 0
vt 0.872131 0.0722512
vn -0.7729063 -0.6345202 0
vt 0.901614 0.209988
v 0.251802 0.100995 0
vn 0.6269852 -0.7790312 0
v 0.104131 0.0886721 0
vn 0.7729063 -0.6345202 0
vt 0.828318 0.179516
vt 0.828317 0.764798
vt 0.828318 0.27546
o merged_1_0_node
g polygon_0
usemtl pasted__lambert2_mat_id
f 39/29/44 40/30/45 41/31/46
f 39/29/44 42/32/47 40/30/45
f 39/29/44 41/31/46 43/33/48
f 39/29/44 44/30/49 42/32/47
f 39/29/44 43/33/48 45/31/50
f 39/29/44 45/31/50 44/30/49
f 40/30/45 46/34/51 41/31/46
f 40/30/45 42/32/47 47/35/52
f 40/30/45 47/35/52 46/34/51
f 43/33/48 48/36/53 45/31/50
f 43/33/48 41/31/46 49/36/54
f 43/33/48 50/36/55 48/36/53
f 43/33/48 49/36/54 51/36/56
f 41/31/46 46/34/51 49/36/54
f 44/30/49 52/35/57 42/32/47
f 44/30/49 45/31/50 53/34/58
f 44/30/49 53/34/58 52/35/57
f 45/31/50 48/36/53 53/34/58
f 47/35/52 54/37/59 46/34/51
f 47/35/52 42/32/47 55/35/60
f 47/35/52 56/38/61 54/37/59
f 49/36/54 46/34/51 57/39/62
f 46/34/51 54/37/59 57/39/62
f 52/35/57 53/34/58 58/38/63
f 52/35/57 59/35/64 42/32/47
f 48/36/53 60/37/65 53/34/58
f 48/36/53 61/39/66 60/37/65
f 53/34/58 60/37/65 58/38/63
f 56/38/61 62/40/67 54/37/59
f 56/38/61 58/38/63 63/41/68
f 56/38/61 63/41/68 62/40/67
f 57/39/62 64/42/69 61/39/66
f 57/39/62 54/37/59 65/43/70
f 57/39/62 65/43/70 64/42/69
f 65/43/70 54/37/59 62/40/67
f 60/37/65 66/40/71 58/38/63
f 60/37/65 61/39/66 67/43/72
f 60/37/65 67/43/72 66/40/71
f 66/40/71 63/41/68 58/38/63
f 67/43/72 61/39/66 64/42/69
f 68/44/73 65/45/70 62/45/67
f 68/44/73 64/45/69 65/45/70
f 68/44/73 62/45/67 63/45/68
f 68/44/73 67/45/72 64/45/69
f 68/44/73 63/45/68 66/45/71
f 68/44/73 66/45/71 67/45/72
f 69/46/74 50/47/55 43/48/48
f 69/46/74 70/49/75 50/47/55
f 69/46/74 43/48/48 51/50/56
f 69/46/74 51/50/56 70/49/75
f 71/46/76 55/50/60 42/48/47
f 71/46/76 72/49/77 55/50/60
f 71/46/76 42/48/47 59/47/64
f 71/46/76 59/47/64 72/49/77
f 61/51/66 50/52/55 70/53/75
f 61/51/66 48/52/53 50/52/55
f 61/51/66 70/53/75 57/51/62
f 70/53/75 51/52/56 57/51/62
f 51/52/56 49/52/54 57/51/62
f 56/51/61 55/52/60 72/53/77
f 56/51/61 47/52/52 55/52/60
f 56/51/61 72/53/77 58/51/63
f 72/53/77 59/52/64 58/51/63
f 59/52/64 52/52/57 58/51/63
