mtllib Vaporeon.mtl
v 0 0.266752 0.0740555
vt 0.921112 0.811652
vn 0 0.999805 0.0197483
v -0.119072 0.247841 -0.0658482
vn -0.6646148 0.7419898 -0.08796827
v -0.119072 0.247841 0.131562
vn -0.639826 0.634965 0.432946
v -0.05671 0.245676 -0.169351
vn -0.340853 0.896899 -0.281765
v 0 0.247841 0.204802
vn 0 0.5220921 0.8528892
v 0.05671 0.245676 -0.16935
vn 0.3408539 0.8968987 -0.2817649
v 0.119072 0.247841 0.131562
vn 0.639826 0.634965 0.432946
v 0.119072 0.247841 -0.0658481
vn 0.6646153 0.7419893 -0.08796824
v -0.131382 0.1659682 0.1423691
vn -0.7947321 0.09805289 0.5989879
v -0.131382 0.1659681 -0.1300462
vn -0.9224615 0.09161074 -0.3750629
v 0.131382 0.1659681 -0.1300462
vn 0.9224616 0.09161054 -0.3750629
v 0 0.190233 -0.35196
vn 0 -0.1279899 -0.9917755
v 0.131382 0.1659682 0.1423691
vn 0.7947321 0.09805268 0.5989879
v 0 0.1659682 0.2162879
vn 0 0.113231 0.9935687
v 0 0.09105346 -0.2162672
vn 0 -0.5011212 -0.8653771
v 0 0.071476 0.0090558
vt 0.780989 0.82701
vn 0 -0.9999976 0.002179449
v -0.130995 0.08950956 0.06598452
vn -0.9310668 -0.3204179 -0.1744906
v -0.130995 0.08303816 -0.03898083
vn -0.9004622 -0.3959139 0.1800558
v -0.133454 0.0005691268 -0.1632921
vn -0.1637594 -0.8868712 -0.4320213
vn 0 -0.9962448 -0.08658157
v 0.133454 0.0005691268 -0.1632921
vn 0.1637594 -0.8868712 -0.4320213
v 0.130995 0.08303816 -0.03898083
vn 0.9004622 -0.3959139 0.1800558
v 0.130995 0.08950956 0.06598462
vn 0.931067 -0.320418 -0.1744896
v 0 0.09100126 0.2176633
vn 0 -0.9956464 0.09321085
v -0.133454 0.0005709972 0.1574854
vn -0.2517518 -0.7821258 0.5700003
v 0.133454 0.0005709972 0.1574854
vn 0.2517516 -0.7821262 0.5699999
vn 0 0.07299028 0.9973326
v -0.0652179 0.586163 0.316134
vt -0.146503 0.635178
vn -0.2875599 0.7201419 0.6314309
v -0.129855 0.60934 0.203787
vt -0.267483 0.810253
vn -0.5323718 0.8443016 0.06111507
v -0.162404 0.517368 0.288601
vt -0.368212 0.629173
vn -0.7642081 0.283657 0.579245
v 0 0.632273 0.237272
vt 0 0.806954
vn 0 0.976193 0.216904
v -0.0623489 0.514339 0.356237
vt -0.138684 0.453386
vn -0.3180591 0.2580471 0.9122774
v 0.0652179 0.586163 0.316134
vt 0.146503 0.635178
vn 0.2857441 0.7190042 0.6335482
v 0.0623489 0.514339 0.356237
vt 0.138684 0.453386
vn 0.3162221 0.2596081 0.9124732
v 0 0.638443 0.0995026
vt 0 1.01238
vn 0 0.9573584 -0.2889031
v -0.125831 0.564687 0.0406122
vt -0.285292 1.06468
vn -0.5376591 0.6556811 -0.5300991
v -0.20968 0.517295 0.167233
vt -0.373062 0.820402
vn -0.9262689 0.3763299 0.0200425
v 0 0.402609 0.383334
vt 0 0.320347
vn 0 0.179308 0.983793
v 0.129855 0.60934 0.203787
vt 0.267483 0.810253
vn 0.5323718 0.8443016 0.06111507
v 0.162404 0.517368 0.288601
vt 0.368212 0.629173
vn 0.7642081 0.283657 0.579245
v -0.205405 0.440624 0.0551745
vt -0.365455 1.0391
vn -0.8591303 0.01836951 -0.5114272
v 0.125831 0.564687 0.0406122
vt 0.285292 1.06468
vn 0.5376591 0.6556811 -0.5300991
v 0.20968 0.517295 0.167233
vt 0.373062 0.820402
vn 0.9262689 0.3763299 0.0200425
v 0.205405 0.440624 0.0551745
vt 0.365455 1.0391
vn 0.8591303 0.01836961 -0.5114272
v 0 0.332563 -0.0193632
vt 0.659634 0.956805
vn 0 -0.5524741 -0.8335301
v -0.135514 0.318495 0.0456631
vn -0.5508531 -0.632638 -0.5443621
v -0.0837523 0.439643 -0.0455578
vn -0.369512 -0.0148665 -0.929107
v 0 0.256226 0.0723509
vn 0 -0.9320223 -0.3624011
v 0.0837523 0.439643 -0.0455578
vn 0.369512 -0.0148665 -0.929107
v 0.135514 0.318495 0.0456631
vn 0.5508531 -0.632638 -0.5443621
v 0.1824 0.356221 0.284216
vt 0.898096 0.0897257
vn 0.8188001 -0.2652701 0.5091151
v 0.132308 0.277988 0.17393
vn 0.51147 -0.8585249 -0.0365182
v 0.212463 0.366487 0.168926
vn 0.9455861 -0.325372 0.000224291
v 0.0740669 0.271865 0.303683
vn 0.3465201 -0.8565103 0.3825102
v 0.0838378 0.354128 0.361523
vn 0.524823 -0.163793 0.835304
v 0 0.245834 0.206126
vn 0 -0.99933 0.0366008
v -0.0740669 0.271865 0.303683
vn -0.3465201 -0.8565103 0.3825102
v -0.132308 0.277988 0.17393
vn -0.51147 -0.8585249 -0.0365182
v -0.1824 0.356221 0.284216
vn -0.8188001 -0.2652701 0.5091151
v -0.0838378 0.354128 0.361523
vn -0.524823 -0.163793 0.835304
v -0.212463 0.366487 0.168926
vn -0.9455861 -0.325372 0.000224316
v -0.000479907 0.190343 -0.354715
vt 0.944679 0.0680323
vn -0.5898507 -0.2696489 0.7611607
v 0.132539 0.207793 -0.41269
vn 0.806848 -0.23502 0.5419981
v 0.0759212 0.262209 -0.437287
vn 0.0327386 0.9338391 0.356192
v 0.073289 0.187127 -0.465926
vn -0.0327387 -0.9338391 -0.356192
v 0.0166716 0.241543 -0.490523
vn -0.806848 0.23502 -0.5419981
v 0.14969 0.258993 -0.548498
vn 0.5898507 0.2696489 -0.7611607
v -0.000479889 0.190343 -0.354715
vn 0.668307 -0.285448 0.686939
v -0.0321911 0.242157 -0.487641
vn 0.7431647 0.2155559 -0.6334367
v -0.0842359 0.26422 -0.427839
v -0.0868681 0.189138 -0.456478
v -0.138913 0.211202 -0.396676
vn -0.7431645 -0.2155568 0.6334365
v -0.170624 0.263015 -0.529602
vn -0.668307 0.285448 -0.686939
v 0.0155556 0.73272 0.258111
vt 0.443073 0.706992
vn 0.9998439 0.0170345 -0.004682399
v 0 0.627467 0.100545
vt 0.76458 0.492228
vn 1.15249E-06 -0.4068868 -0.9134786
v 0 0.862301 0.197583
vt 0.566579 0.971395
vn 1.1534E-06 0.4669008 -0.8843097
v 0 0.609881 0.282408
vt 0.393498 0.456344
v 0 0.7384771 0.274008
vt 0.410636 0.718738
vn 0 0.3232242 0.9463224
v -0.0155556 0.73272 0.258111
vn -0.9998439 0.0170345 -0.00468237
v 0.416396 0.620074 -0.0462204
vt 0.987814 0.513376
vn 0.951701 -0.0295897 -0.305597
v 0.153377 0.454081 0.102341
vt 0.381529 0.28461
vn -0.5672382 0.104857 -0.8168513
v 0.145048 0.53941 0.173513
vt 0.277197 0.349207
vn -0.5451211 0.7349371 -0.403374
v 0.26318 0.371632 0.0778519
vt 0.586565 0.00774261
vn 0.6669942 -0.6978433 -0.2610241
v 0.206723 0.50767 0.168218
vn 0.659497 0.131943 0.740037
v 0.184887 0.384193 0.141252
vt 0.381529 0.0333063
vn 0.258475 -0.835596 0.484737
v -0.416396 0.620074 -0.0462203
vn -0.9517013 -0.02959061 -0.3055961
v -0.145049 0.53941 0.173513
vn 0.5451211 0.7349371 -0.403374
v -0.153377 0.454081 0.102341
vn 0.5672382 0.104857 -0.8168513
v -0.206723 0.50767 0.168218
vn -0.659497 0.131943 0.740037
v -0.26318 0.371632 0.0778519
vn -0.6669939 -0.697844 -0.261023
v -0.184887 0.384193 0.141252
vn -0.258474 -0.835597 0.484736
v 0 0.312736 0.377808
vt 0 0.0354109
vn 0 -0.6982652 0.7158392
vt -0.286 -0.13908
vt 0.28597 -0.13908
vt 0.275081 0.214714
v 0 0.364078 0.406074
vt 0 0.21377
vn 0 -0.02475639 0.9996935
vt -0.275081 0.214713
vt 0 0.31743
v 0 0.551666 -0.024548
vt 0.424473 0.950017
vn 0 0.5724169 -0.8199628
vt 0.681964 0.946391
v 0 0.266576 -0.175349
vt 0.956594 0.998557
vn 1 0 0
v 0 0.273696 0.043812
vt 0.956594 0.568052
v 0 0.249209 0.0477864
vt 0.998857 0.568052
v 0 0.237342 -0.166324
vt 0.998857 0.998557
v 0 0.204417 -0.352774
v 0 0.189987 -0.348462
vn -1 0 0
vt 0.224668 0.325022
vt 0.250602 0.245682
vt 0.325123 0.350554
vt 0.249869 0.361002
vt 0.507105 1.08144
vt 0.864338 1.00216
vt 0.9315 1.28276
vt 0.823738 0.795015
vt 0.310391 0.740461
vt 0.322478 0.943772
vt 0.344642 0.821052
vt 0.0393679 0.972669
o merged_0_0_node
g polygon_0
usemtl mat_body1_mat_id
f 1/1/1 2/1/2 3/1/3
f 1/1/1 4/1/4 2/1/2
f 1/1/1 3/1/3 5/1/5
f 1/1/1 6/1/6 4/1/4
f 1/1/1 5/1/5 7/1/7
f 1/1/1 8/1/8 6/1/6
f 1/1/1 7/1/7 8/1/8
f 2/1/2 9/1/9 3/1/3
f 2/1/2 4/1/4 10/1/10
f 2/1/2 10/1/10 9/1/9
f 3/1/3 9/1/9 5/1/5
f 6/1/6 8/1/8 11/1/11
f 6/1/6 12/1/12 4/1/4
f 6/1/6 11/1/11 12/1/12
f 4/1/4 12/1/12 10/1/10
f 7/1/7 5/1/5 13/1/13
f 7/1/7 13/1/13 8/1/8
f 8/1/8 13/1/13 11/1/11
f 9/1/9 14/1/14 5/1/5
f 5/1/5 14/1/14 13/1/13
f 12/1/12 15/1/15 10/1/10
f 12/1/12 11/1/11 15/1/15
f 16/2/16 17/2/17 18/2/18
f 16/2/16 18/2/18 19/2/19
f 16/2/16 19/2/19 15/2/20
f 16/2/16 15/2/20 20/2/21
f 16/2/16 20/2/21 21/2/22
f 16/2/16 21/2/22 22/2/23
f 16/2/16 23/2/24 24/2/25
f 16/2/16 25/2/26 23/2/24
f 17/2/17 9/2/9 18/2/18
f 17/2/17 24/2/25 9/2/9
f 19/2/19 18/2/18 10/2/10
f 10/2/10 18/2/18 9/2/9
f 20/2/21 11/2/11 21/2/22
f 22/2/23 13/2/13 25/2/26
f 22/2/23 21/2/22 13/2/13
f 21/2/22 11/2/11 13/2/13
f 24/2/25 23/2/27 9/2/9
f 25/2/26 13/2/13 23/2/27
f 9/2/9 23/2/27 14/2/14
f 14/2/14 23/2/27 13/2/13
f 26/3/28 27/4/29 28/5/30
f 26/3/28 29/6/31 27/4/29
f 26/3/28 28/5/30 30/7/32
f 26/3/28 31/8/33 29/6/31
f 26/3/28 30/7/32 32/9/34
f 26/3/28 32/9/34 31/8/33
f 27/4/29 29/6/31 33/10/35
f 27/4/29 33/10/35 34/11/36
f 27/4/29 34/11/36 35/12/37
f 30/7/32 36/13/38 32/9/34
f 31/8/33 37/14/39 29/6/31
f 31/8/33 32/9/34 38/15/40
f 31/8/33 38/15/40 37/14/39
f 29/6/31 37/14/39 33/10/35
f 34/11/36 39/16/41 35/12/37
f 37/14/39 40/17/42 33/10/35
f 37/14/39 41/18/43 40/17/42
f 41/18/43 42/19/44 40/17/42
f 43/20/45 44/20/46 45/20/47
f 43/20/45 46/20/48 44/20/46
f 43/20/45 45/20/47 47/20/49
f 43/20/45 48/20/50 46/20/48
f 43/20/45 47/20/49 48/20/50
f 49/21/51 50/21/52 51/21/53
f 49/21/51 52/21/54 50/21/52
f 49/21/51 51/21/53 41/21/43
f 49/21/51 53/21/55 52/21/54
f 49/21/51 41/21/43 38/21/40
f 50/21/52 52/21/54 54/21/56
f 41/21/43 37/21/39 38/21/40
f 52/21/54 55/21/57 54/21/56
f 55/21/57 56/21/58 54/21/56
f 55/21/57 57/21/59 56/21/58
f 55/21/57 58/21/60 57/21/59
f 56/21/58 57/21/59 59/21/61
f 57/21/59 35/21/37 59/21/61
f 57/21/59 28/21/30 35/21/37
f 28/21/30 27/21/29 35/21/37
f 60/22/62 61/22/63 62/22/64
f 60/22/62 63/22/65 61/22/63
f 60/22/62 62/22/64 64/22/66
f 60/22/62 64/22/66 63/22/65
f 61/22/63 65/22/67 62/22/64
f 61/22/63 63/22/65 65/22/67
f 65/22/67 63/22/65 64/22/66
f 65/22/67 64/22/66 62/22/64
f 66/22/68 67/22/69 68/22/64
f 66/22/68 69/22/65 67/22/69
f 66/22/68 68/22/64 70/22/70
f 66/22/68 70/22/70 69/22/65
f 67/22/69 71/22/71 68/22/64
f 67/22/69 69/22/65 71/22/71
f 71/22/71 69/22/65 70/22/70
f 71/22/71 70/22/70 68/22/64
f 72/23/72 73/24/73 74/25/74
f 72/23/72 75/26/16 73/24/73
f 72/23/72 74/25/74 76/27/75
f 72/23/72 76/27/75 75/26/16
f 73/24/73 77/23/76 74/25/74
f 73/24/73 75/26/16 77/23/76
f 77/23/76 76/27/75 74/25/74
f 77/23/76 75/26/16 76/27/75
f 78/28/77 79/29/78 80/30/79
f 78/28/77 81/31/80 79/29/78
f 78/28/77 80/30/79 82/29/81
f 78/28/77 82/29/81 81/31/80
f 79/29/78 81/31/80 83/32/82
f 83/32/82 81/31/80 82/29/81
f 84/28/83 85/30/84 86/29/85
f 84/28/83 87/29/86 85/30/84
f 84/28/83 86/29/85 88/31/87
f 84/28/83 88/31/87 87/29/86
f 86/29/85 89/32/88 88/31/87
f 88/31/87 89/32/88 87/29/86
f 90/33/89 55/34/57 52/35/54
f 90/33/89 52/35/54 53/36/55
f 90/33/89 53/36/55 91/37/90
f 90/33/89 91/37/90 58/38/60
f 90/33/89 58/36/60 55/35/57
f 53/36/55 36/39/38 91/37/90
f 91/37/90 36/39/38 58/38/60
f 92/40/91 34/40/36 33/40/35
f 92/40/91 45/40/47 34/40/36
f 92/40/91 33/40/35 40/40/42
f 92/40/91 40/40/42 47/40/49
f 45/40/47 39/40/41 34/40/36
f 40/40/42 42/40/44 47/40/49
f 46/41/48 48/41/50 50/41/52
f 46/41/48 50/41/52 54/41/56
f 46/41/48 54/41/56 56/41/58
f 46/41/48 56/41/58 44/41/46
f 48/41/50 51/41/53 50/41/52
f 56/41/58 59/41/61 44/41/46
f 93/42/92 94/43/92 95/44/92
f 93/42/92 95/44/92 96/45/92
f 93/42/92 96/45/92 97/43/92
f 96/45/92 98/44/92 97/43/92
f 93/42/93 95/44/93 94/43/93
f 93/42/93 96/45/93 95/44/93
f 93/42/93 97/43/93 96/45/93
f 97/43/93 98/44/93 96/45/93
f 51/46/53 48/47/50 42/48/44
f 51/46/53 42/48/44 41/49/43
f 59/46/61 39/48/41 44/47/46
f 59/46/61 35/49/37 39/48/41
f 15/50/15 19/51/19 10/52/10
f 15/50/15 11/52/11 20/51/21
f 16/53/16 24/53/25 17/53/17
f 16/53/16 22/53/23 25/53/26
f 44/54/46 39/55/41 45/56/47
f 42/55/44 48/54/50 47/56/49
f 92/57/91 47/57/49 45/57/47
v 0 0.5367 -0.162299
vt 0.996297 0.7503
vn 0 -0.7389878 -0.6737188
v 0.226478 0.482101 -0.0860145
vt 0.547027 1.06012
vn 0.08325839 -0.7590599 -0.6456749
v 0 0.319404 0.0760484
vt 0.0237017 0.63405
vn 0 -0.8131747 -0.5820197
v -0.226478 0.482101 -0.0860145
vn -0.08325839 -0.7590599 -0.6456749
v -0.320288 0.350286 0.0981514
vn -0.117745 -0.8075181 -0.5779711
v -0.226478 0.218471 0.282317
vn -0.08325839 -0.8559759 -0.5102679
v 0 0.163872 0.358601
vn 0 -0.876048 -0.482224
v 0.226478 0.218471 0.282317
vn 0.08325839 -0.8559759 -0.5102679
v 0.320288 0.350286 0.0981514
vn 0.117745 -0.8075181 -0.5779711
vt 0.0103329 0.267064
vn 0 0.7739711 0.633221
v 0 0.333464 0.0861115
vt 0.98702 0.374397
vn 0 0.8131744 0.5820202
vt 0.44819 -0.0468098
vn -0.04557512 0.7849582 0.6178702
vn 0.04557512 0.7849582 0.6178702
vn 0.06445288 0.8114837 0.5808098
vn 0.04557502 0.8380094 0.5437492
vn 0 0.8489969 0.5283979
vn -0.04557502 0.8380094 0.5437492
vn -0.06445288 0.8114837 0.5808098
o merged_1_0_node
g polygon_0
usemtl mat_hire1_mat_id
f 99/58/94 100/59/95 101/60/96
f 102/58/97 99/59/94 101/60/96
f 103/58/98 102/59/97 101/60/96
f 104/58/99 103/59/98 101/60/96
f 105/58/100 104/59/99 101/60/96
f 106/58/101 105/59/100 101/60/96
f 107/58/102 106/59/101 101/60/96
f 100/58/95 107/59/102 101/60/96
f 99/61/103 108/62/104 100/63/105
f 102/61/106 108/62/104 99/63/103
f 103/61/107 108/62/104 102/63/106
f 104/61/108 108/62/104 103/63/107
f 105/61/109 108/62/104 104/63/108
f 106/61/110 108/62/104 105/63/109
f 107/61/111 108/62/104 106/63/110
f 100/61/105 108/62/104 107/63/111
vt 0.0692275 0.997774
vt 0.831542 1.00178
vt 0.240407 0.745943
vt 1.01924 0.761895
vt -0.327376 0.797595
o merged_2_0_node
g polygon_0
usemtl TEX_ANIM_EYE_mat_id
f 30/64/32 28/65/30 58/66/60
f 58/66/60 28/65/30 57/67/59
f 36/68/38 53/66/55 32/64/34
f 32/64/34 53/66/55 38/65/40
f 53/66/55 49/67/51 38/65/40
f 30/64/32 58/66/60 36/68/38
