mtllib Skarmory.mtl
v -0.0268128 0.342148 -0.421764
vt 0.974628 0.157613
vn -0.9762563 0.152077 0.15426
v 0 0.302095 -0.35226
vn 0 -0.4873241 0.8732212
v 0 0.40511 -0.437291
vn 0 0.9997494 -0.02238801
v 0 0.27701 -0.448252
vn 0 -1 0.000100949
v 0 0.360668 -0.561919
vn 0 0.9940756 -0.108691
v 0 0.313498 -0.455315
vn 0 -0.9157038 -0.4018539
v -0.0194358 0.309915 -0.562801
vn -0.9953609 -0.023934 -0.09318789
v 0 0.304525 -0.497943
vn 0 -0.9317782 0.363028
v 0.0268128 0.342148 -0.421764
vn 0.9762563 0.152077 0.15426
v 0 0.264315 -0.487058
vn 0 -0.7758681 0.6308951
v 0 0.382523 -0.759117
vn 0 0.4592131 -0.8883262
v 0 0.266063 -0.569844
vn 0 -0.9246624 -0.3807881
v 0.0194358 0.309915 -0.562801
vn 0.9953609 -0.023934 -0.09318789
v -0.144733 0.692855 0.398076
vt 0.926005 0.952356
vn -0.593499 0.7933769 0.135322
v 0 0.7269859 0.383464
vn 0 0.9537907 0.3004719
v -0.0665176 0.70248 0.2723
vn -0.8033157 0.5295538 -0.2725009
v 0 0.7039369 0.518018
vn 0 0.907288 0.42051
v -0.150596 0.6486449 0.241628
vn -0.5669419 0.6874788 -0.4538169
v -0.129948 0.614539 0.577149
vn -0.6401538 0.5508109 0.5355469
v -0.20536 0.583954 0.255491
vn -0.7981671 0.5418271 -0.263349
v -0.225151 0.5659989 0.42807
vn -0.8478828 0.4754059 0.2346999
v 0 0.887903 0.289334
vn -0.9162704 0.3048231 0.2598681
v 0.144733 0.692855 0.398076
vn 0.6135883 0.7813573 0.113974
v 0.0665176 0.70248 0.2723
vn 0.8033159 0.5295539 -0.2725
vn 0.9162704 0.3048231 0.2598681
v -0.086 0.557889 0.10908
vn -0.250776 0.626326 -0.738124
v 0 0.6606899 0.177545
vn 0 0.4922059 -0.8704788
v -0.19293 0.470196 0.532406
vn -0.8461512 0.2185341 0.4860772
v 0 0.600791 0.654808
vn 0 0.7006688 0.7134868
v -0.0683222 0.442023 0.756692
vn -0.547469 0.481694 0.684287
v 0 0.9581389 0.173867
vn -0.9666004 0.1820291 -0.1804141
v 0.150596 0.6486449 0.241628
vn 0.6122401 0.6754981 -0.4109311
v 0.129948 0.614539 0.577149
vn 0.6401538 0.5508109 0.5355469
v 0.225151 0.5659989 0.42807
vn 0.846387 0.478608 0.233588
vn 0.9666004 0.1820291 -0.1804141
v 0.086 0.557889 0.10908
vn 0.250776 0.626326 -0.738124
v 0 0.438682 0.782301
vn 0 0.6181859 0.7860319
v 0.19293 0.470196 0.532406
vn 0.8461512 0.2185341 0.4860772
v 0.20536 0.583954 0.255491
vn 0.7633727 0.5897537 -0.2635389
v 0.0683222 0.442023 0.756692
vn 0.547469 0.481694 0.684287
v 0 0.501264 0.508121
vn 0 -0.891073 -0.45386
vn -0.09135134 -0.9001604 -0.4258712
vn -0.08719926 -0.9741896 -0.2082089
vn -0.005467981 -0.96163 -0.274295
vn 0 -0.9749256 -0.2225309
vn 0.0057388 -0.9591991 -0.282673
vn 0.08719926 -0.9741896 -0.2082089
vn 0.09135134 -0.9001604 -0.4258712
vn 0 -0.9992691 -0.0382269
vn 0 -0.999865 -0.0164336
vn 0 -0.98452 0.175272
v 0 0.414182 0.314789
vt 0.537608 0.413395
vn 0 0.3166861 0.9485304
v 0.13048 0.228952 0.117517
vt 0.812903 0.144371
vn 0.6350997 -0.3540578 0.6865067
v 0.1304789 0.3581549 0.05889469
vt 0.927587 0.338385
vn 0.2743097 0.7884682 0.5505198
v 0 0.168305 0.147646
vt 0.685316 0.0630691
vn 0 -0.6645382 0.7472543
v 0 0.384022 0.077294
vt 0.883725 0.462672
vn 0 0.9999878 0.004947639
v -0.13048 0.228952 0.117517
vn -0.6350997 -0.3540578 0.6865067
v -0.1304791 0.358155 0.05889507
vn -0.2743077 0.7884678 0.5505216
v 0 0.298112 -0.325312
vt 0.948819 0.948819
vn 0 -0.108754 -0.9940687
v 0.153613 0.17978 -0.206631
vn 0.6921782 -0.3244081 -0.6447082
v 0 0.1148 -0.202925
vn 0 -0.5895413 -0.8077383
v 0.153613 0.286633 -0.233309
vn 0.5846291 0.345192 -0.7342011
v -0.153613 0.17978 -0.206631
vn -0.6921782 -0.3244081 -0.6447082
v 0 0.336374 -0.254222
vn 0 0.8420216 -0.5394438
v -0.153613 0.286633 -0.233309
vn -0.5846291 0.345192 -0.7342011
v 0.215447 0.30969 -0.05347996
vn 0.7695832 -0.6153968 -0.1703772
v 0.212851 0.150204 -0.000932968
vn 0.8244518 -0.4314619 0.3662239
v -0.2154471 0.3096898 -0.05347995
vn -0.769582 -0.6153983 -0.1703773
v -0.212851 0.150204 -0.000932968
vn -0.8244518 -0.4314619 0.3662239
v 0 0.418716 -0.136358
vn 0 0.9705177 -0.2410299
v 0.163143 0.3806147 -0.05142533
vn -0.2183932 0.9523295 -0.2130094
v -0.163143 0.3806147 -0.05142532
vn 0.2183943 0.9523292 -0.2130096
v 0.086 0.480961 0.176349
vt 0.954904 0.954904
vn 0.372774 -0.126906 -0.9192031
v 0.139151 0.630162 0.245105
vn 0.756706 0.233225 -0.610739
v 0.183219 0.480961 0.255491
vn 0.8891479 -0.0797967 -0.450609
v 0 0.618421 0.164744
vn 0 0.134022 -0.9909784
v 0.124148 0.421114 0.260531
vn 0.4842829 -0.7286949 -0.4842249
v -0.086 0.480961 0.176349
vn -0.372774 -0.126906 -0.9192031
v 0 0.432855 0.191236
vn 0 -0.676149 -0.736765
v 0.200876 0.432513 0.418419
vn 0.9145171 -0.4030591 0.0346676
v -0.139151 0.630162 0.245105
vn -0.756706 0.233225 -0.610739
v 0 0.332955 0.311492
vn 0 -0.9409977 -0.3384129
v -0.124148 0.421114 0.260531
vn -0.4842829 -0.7286949 -0.4842249
v 0.12692 0.357557 0.393949
vn 0.4841641 -0.8749322 -0.008871633
v 0.121473 0.421114 0.527366
vn 0.4412759 -0.7286878 0.5237268
v 0.174818 0.480961 0.532406
vn 0.821124 -0.121259 0.55772
v -0.183219 0.480961 0.255491
vn -0.8891479 -0.0797967 -0.450609
v 0.0683222 0.480961 0.616442
vn 0.3359161 -0.19815 0.9208132
v 0.121473 0.6049269 0.571626
vn 0.635321 0.148244 0.7578859
v 0.210016 0.566831 0.42807
vn 0.9947028 0.09553137 0.03795029
v 0 0.342258 0.476405
v -0.200876 0.432513 0.418419
vn -0.9145171 -0.4030591 0.0346676
v -0.12692 0.357557 0.393949
vn -0.4841641 -0.8749322 -0.008871622
v 0 0.600791 0.617978
vn 0 0.127437 0.9918467
v 0 0.428185 0.585243
vn 0 -0.7297969 0.683664
v -0.0683222 0.480961 0.616442
vn -0.3359161 -0.19815 0.9208132
v -0.121473 0.421114 0.527366
vn -0.4412759 -0.7286878 0.5237268
v -0.174818 0.480961 0.532406
vn -0.821124 -0.121259 0.55772
v -0.121473 0.6049269 0.571626
vn -0.635321 0.148244 0.7578859
v -0.210016 0.566831 0.42807
vn -0.9947028 0.09553137 0.03795029
vt 0.939131 0.585986
v 0.0445899 0.0645886 -0.186285
vt 0.939131 0.264814
vn -0.4191498 -0.5984907 -0.6827316
v 0.0496673 0.0318255 -0.0777331
vn -0.3188761 -0.9391032 0.128075
v 0.139827 0.134868 -0.196275
vn 0.6840763 -0.3566811 -0.6362532
v 0 0.0607082 0.0103884
vt 0.93913 0.572984
vn 0 -0.8431884 0.5376182
v -0.0496673 0.0318255 -0.0777331
vn 0.3188761 -0.9391032 0.128075
v -0.0445899 0.0645886 -0.186285
vn 0.4191498 -0.5984907 -0.6827316
v -0.139827 0.134868 -0.196275
vn -0.6840768 -0.3566809 -0.6362528
v 0.118005 0.0637723 -0.179881
vn 0.6133639 -0.3513679 -0.7073368
v 0.146567 0.0642163 -0.097233
vn 0.6754156 -0.7164176 0.1748129
vt 0.939131 0.575585
v -0.118005 0.0637723 -0.179881
vn -0.6133639 -0.3513679 -0.7073368
v -0.146567 0.0642163 -0.097233
vn -0.6754156 -0.7164176 0.1748129
v 0.0993346 0.00294273 -0.165854
vt 0.972778 0.0487648
vn 0.07258087 -0.9801646 -0.1844159
vt 0.972778 0.495919
vt 0.972778 0.499183
vt 0.972778 0.50192
vt 0.972778 0.502465
v -0.0993346 0.00294274 -0.165854
vn -0.07258087 -0.9801646 -0.1844159
vt 0.563874 0.554883
vt 0.99371 0.699594
vt 0.86661 0.982769
vt 0.561148 0.94722
vt 0.966405 0.953498
vt 0.0119101 0.796814
vt 0.0119102 0.986028
v 0.2735187 0.3008193 0.08954723
vt 0.229712 0.944726
vn 0.6336986 -0.27462 0.7231943
v 0.4706309 0.5339876 -0.05650777
vt 0.529815 0.626453
vn 0.7917517 0.5410825 -0.2834765
vt 0.0589336 0.632628
vt 0.0485437 0.362475
vt 0.404582 0.274205
vt 0.498738 0.539676
vt 0.0160584 0.278678
vt 0.316161 0.0630736
vt 0.533963 0.0217712
v -0.2735187 0.3008189 0.08954816
vn -0.6336957 -0.274621 0.7231963
v -0.470628 0.5339861 -0.05650716
vn -0.7917503 0.5410824 -0.2834807
vt 0.947074 0.928145
vt 0.946839 0.947509
o merged_0_0_node
g polygon_0
usemtl eaamudo_01_mat_id
f 1/1/1 2/1/2 3/1/3
f 1/1/1 4/1/4 2/1/2
f 1/1/1 3/1/3 5/1/5
f 1/1/1 6/1/6 4/1/4
f 1/1/1 5/1/5 7/1/7
f 1/1/1 8/1/8 6/1/6
f 1/1/1 7/1/7 8/1/8
f 2/1/2 9/1/9 3/1/3
f 2/1/2 4/1/4 9/1/9
f 6/1/6 8/1/8 9/1/9
f 6/1/6 9/1/9 4/1/4
f 3/1/3 9/1/9 5/1/5
f 7/1/7 10/1/10 8/1/8
f 7/1/7 5/1/5 11/1/11
f 7/1/7 12/1/12 10/1/10
f 7/1/7 11/1/11 12/1/12
f 9/1/9 8/1/8 13/1/13
f 9/1/9 13/1/13 5/1/5
f 13/1/13 10/1/10 12/1/12
f 13/1/13 11/1/11 5/1/5
f 13/1/13 8/1/8 10/1/10
f 13/1/13 12/1/12 11/1/11
f 14/2/14 15/2/15 16/2/16
f 14/2/14 17/2/17 15/2/15
f 14/2/14 16/2/16 18/2/18
f 14/2/14 19/2/19 17/2/17
f 14/2/14 18/2/18 20/2/20
f 14/2/14 21/2/21 19/2/19
f 14/2/14 20/2/20 21/2/21
f 15/2/15 22/2/22 16/2/16
f 15/2/15 17/2/17 23/2/23
f 15/2/15 23/2/23 24/2/24
f 15/2/15 24/2/24 22/2/25
f 18/2/18 25/2/26 20/2/20
f 18/2/18 16/2/16 26/2/27
f 18/2/18 26/2/27 25/2/26
f 19/2/19 21/2/21 27/2/28
f 19/2/19 28/2/29 17/2/17
f 19/2/19 27/2/28 29/2/30
f 19/2/19 29/2/30 28/2/29
f 22/2/22 30/2/31 16/2/16
f 16/2/16 30/2/31 26/2/27
f 23/2/23 31/2/32 24/2/24
f 23/2/23 17/2/17 32/2/33
f 23/2/23 33/2/34 31/2/32
f 23/2/23 32/2/33 33/2/34
f 17/2/17 28/2/29 32/2/33
f 22/2/25 24/2/24 30/2/35
f 24/2/24 31/2/32 26/2/27
f 24/2/24 26/2/27 30/2/35
f 25/2/26 26/2/27 34/2/36
f 26/2/27 31/2/32 34/2/36
f 29/2/30 35/2/37 28/2/29
f 33/2/34 32/2/33 36/2/38
f 33/2/34 37/2/39 31/2/32
f 31/2/32 37/2/39 34/2/36
f 35/2/37 38/2/40 28/2/29
f 38/2/40 36/2/38 32/2/33
f 38/2/40 32/2/33 28/2/29
f 39/2/41 36/2/42 38/2/43
f 39/2/41 33/2/44 36/2/42
f 39/2/41 38/2/43 35/2/45
f 39/2/41 21/2/46 33/2/44
f 39/2/41 35/2/45 29/2/47
f 39/2/41 27/2/48 21/2/46
f 39/2/41 29/2/47 27/2/48
f 33/2/44 21/2/46 37/2/49
f 21/2/46 20/2/50 37/2/49
f 20/2/50 25/2/51 37/2/49
f 25/2/51 34/2/51 37/2/49
f 40/3/52 41/4/53 42/5/54
f 40/3/52 43/6/55 41/4/53
f 40/3/52 42/5/54 44/7/56
f 40/3/52 45/4/57 43/6/55
f 40/3/52 44/7/56 46/5/58
f 40/3/52 46/5/58 45/4/57
f 47/8/59 48/8/60 49/8/61
f 47/8/59 50/8/62 48/8/60
f 47/8/59 49/8/61 51/8/63
f 47/8/59 52/8/64 50/8/62
f 47/8/59 51/8/63 53/8/65
f 47/8/59 53/8/65 52/8/64
f 48/8/60 50/8/62 54/8/66
f 48/8/60 54/8/66 55/8/67
f 51/8/63 56/8/68 53/8/65
f 51/8/63 57/8/69 56/8/68
f 50/8/62 58/8/70 59/8/71
f 54/8/66 41/8/53 55/8/67
f 53/8/65 60/8/72 58/8/70
f 57/8/69 45/8/57 56/8/68
f 59/8/71 58/8/70 44/8/56
f 59/8/71 44/8/56 42/8/54
f 58/8/70 60/8/72 44/8/56
f 60/8/72 46/8/58 44/8/56
f 61/9/73 62/9/74 63/9/75
f 61/9/73 64/9/76 62/9/74
f 61/9/73 63/9/75 65/9/77
f 61/9/73 66/9/78 64/9/76
f 61/9/73 65/9/77 67/9/79
f 61/9/73 67/9/79 66/9/78
f 63/9/75 68/9/80 65/9/77
f 64/9/76 66/9/78 69/9/81
f 67/9/79 65/9/77 70/9/82
f 67/9/79 71/9/83 66/9/78
f 67/9/79 70/9/82 71/9/83
f 68/9/80 72/9/84 65/9/77
f 68/9/80 73/9/85 72/9/84
f 68/9/80 74/9/86 73/9/85
f 65/9/77 72/9/84 70/9/82
f 69/9/81 66/9/78 75/9/87
f 66/9/78 71/9/83 75/9/87
f 74/9/86 76/9/88 73/9/85
f 74/9/86 77/9/89 76/9/88
f 74/9/86 78/9/90 77/9/89
f 72/9/84 79/9/8 70/9/82
f 72/9/84 73/9/85 79/9/8
f 71/9/83 80/9/91 75/9/87
f 71/9/83 70/9/82 81/9/92
f 71/9/83 81/9/92 80/9/91
f 70/9/82 79/9/8 81/9/92
f 76/9/88 77/9/89 82/9/93
f 76/9/88 83/9/94 73/9/85
f 76/9/88 82/9/93 84/9/95
f 76/9/88 84/9/95 83/9/94
f 73/9/85 83/9/94 79/9/8
f 80/9/91 81/9/92 85/9/96
f 80/9/91 85/9/96 86/9/97
f 85/9/96 83/9/94 84/9/95
f 85/9/96 79/9/8 83/9/94
f 85/9/96 81/9/92 79/9/8
f 85/9/96 84/9/95 86/9/97
f 82/9/93 87/9/98 84/9/95
f 84/9/95 87/9/98 86/9/97
f 87/9/98 88/9/99 86/9/97
f 49/10/61 89/11/100 90/11/101
f 49/10/61 91/10/102 89/11/100
f 49/10/61 90/11/101 92/12/103
f 49/10/61 92/12/103 93/11/104
f 49/10/61 93/11/104 94/11/105
f 49/10/61 94/11/105 95/10/106
f 91/10/102 96/11/107 89/11/100
f 91/10/102 97/11/108 96/11/107
f 91/10/102 55/13/67 97/11/108
f 94/11/105 98/11/109 95/10/106
f 98/11/109 99/11/110 95/10/106
f 99/11/110 57/13/69 95/10/106
f 100/14/111 96/15/107 97/16/108
f 100/14/111 89/17/100 96/15/107
f 100/14/111 97/16/108 90/18/101
f 100/14/111 90/18/101 89/17/100
f 101/14/112 99/16/110 98/15/109
f 101/14/112 93/18/104 99/16/110
f 101/14/112 98/15/109 94/17/105
f 101/14/112 94/17/105 93/18/104
f 92/19/103 55/20/67 41/21/53
f 92/19/103 41/21/53 43/22/55
f 92/19/103 43/22/55 45/21/57
f 92/19/103 45/21/57 57/20/69
f 92/23/103 90/23/101 97/23/108
f 92/23/103 97/23/108 55/23/67
f 92/23/103 99/23/110 93/23/104
f 92/23/103 57/23/69 99/23/110
f 42/24/54 41/25/53 102/26/113
f 42/24/54 102/26/113 103/27/114
f 42/24/54 103/27/114 59/28/71
f 103/27/114 50/29/62 59/28/71
f 54/30/66 50/31/62 103/32/114
f 54/30/66 103/32/114 102/33/113
f 54/30/66 102/33/113 41/34/53
f 46/24/58 104/26/115 45/25/57
f 46/24/58 105/27/116 104/26/115
f 46/24/58 60/28/72 105/27/116
f 60/28/72 53/29/65 105/27/116
f 56/30/68 105/32/116 53/31/65
f 56/30/68 104/33/115 105/32/116
f 56/30/68 45/34/57 104/33/115
f 52/35/64 58/35/70 50/35/62
f 52/35/64 53/35/65 58/35/70
f 48/36/60 91/36/102 49/36/61
f 48/36/60 55/36/67 91/36/102
f 49/36/61 95/36/106 51/36/63
f 95/36/106 57/36/69 51/36/63
vt 0.36316 0.920172
vt 0.96385 0.841144
vt 1 0.978458
vt 0.396753 0.796555
vt 0 0.841144
o merged_1_0_node
g polygon_0
usemtl TEX_ANIM_EYE_mat_id
f 78/37/90 63/38/75 62/39/74
f 68/40/80 63/38/75 78/37/90
f 78/37/90 74/41/86 68/40/80
f 80/40/91 86/41/97 88/37/99
f 88/37/99 69/39/81 75/38/87
f 88/37/99 75/38/87 80/40/91
