ply
format ascii 1.0
element vertex 732
property float x
property float y
property float z
property uchar red
property uchar green
property uchar blue
element face 900
property list uchar int vertex_index
end_header
-0.40955 0.00649 1.7906 154 179 117
-0.58618 0.00649 1.7906 154 179 117
-0.58618 0.15487 1.69478 154 179 117
-0.40955 0.15487 1.69478 154 179 117
-0.37743 -0.04046 1.7771 154 179 117
-0.6183 -0.04046 1.7771 154 179 117
-0.37743 -0.26763 1.42531 154 179 117
-0.6183 -0.26763 1.42531 154 179 117
-0.6183 0.16188 1.64644 154 179 117
-0.37743 0.16188 1.64644 154 179 117
-0.6183 -0.16733 1.13663 154 179 117
-0.37743 -0.16733 1.13663 154 179 117
-0.6183 -0.22418 1.12366 154 179 117
-0.37743 -0.22418 1.12366 154 179 117
-0.6183 -0.55591 1.31888 154 179 117
-0.37743 -0.55591 1.31888 154 179 117
-0.6183 -0.43123 1.51197 154 179 117
-0.37743 -0.43123 1.51197 154 179 117
-0.6183 -0.26763 1.42531 160 186 120
-0.37743 -0.26763 1.42531 160 186 120
-0.37743 -0.43123 1.51197 160 186 120
-0.6183 -0.43123 1.51197 160 186 120
-0.37743 -0.55591 1.31888 89 131 205
-0.6183 -0.55591 1.31888 89 131 205
-0.6183 -0.648 1.37835 89 131 205
-0.37743 -0.648 1.37835 89 131 205
-0.6183 -0.52332 1.57143 89 131 205
-0.6183 -0.43123 1.51197 89 131 205
-0.37743 -0.43123 1.51197 89 131 205
-0.37743 -0.52332 1.57143 89 131 205
-0.66202 -0.71101 1.28077 89 131 205
-0.33398 -0.71101 1.28077 89 131 205
-0.66202 -0.4603 1.66901 89 131 205
-0.33398 -0.4603 1.66901 89 131 205
-0.33398 -0.87209 1.3848 89 131 205
-0.33398 -0.7378 1.59276 89 131 205
-0.33398 -0.65052 1.5364 89 131 205
-0.22323 -0.65052 1.5364 89 131 205
-0.33398 -0.53411 1.71667 89 131 205
-0.22323 -0.53411 1.71667 89 131 205
-0.22323 -0.7378 1.59276 89 131 205
-0.22323 -0.62139 1.77303 89 131 205
-0.17195 -0.62139 1.77303 89 131 205
-0.17195 -0.87209 1.3848 89 131 205
-0.17195 -1.07387 1.5151 89 131 205
-0.17195 -0.82317 1.90333 89 131 205
-0.66202 -1.07402 1.51519 89 131 205
-0.21113 -1.08054 1.5699 89 131 205
-0.6252 -1.08063 1.56996 89 131 205
-0.66202 -0.82332 1.90343 89 131 205
-0.6252 -0.87595 1.88692 89 131 205
-0.21113 -0.87586 1.88686 89 131 205
-0.6183 -0.43123 1.51197 93 137 213
-0.37743 -0.43123 1.51197 93 137 213
-0.37743 -0.52332 1.57143 93 137 213
-0.6183 -0.52332 1.57143 93 137 213
-0.66202 -0.4603 1.66901 93 137 213
-0.33398 -0.4603 1.66901 93 137 213
-0.33398 -0.53411 1.71667 93 137 213
-0.33398 -0.62139 1.77303 93 137 213
-0.22323 -0.53411 1.71667 93 137 213
-0.22323 -0.62139 1.77303 93 137 213
-0.66202 -0.82332 1.90343 93 137 213
-0.17195 -0.82317 1.90333 93 137 213
-0.21113 -0.87586 1.88686 93 137 213
-0.6252 -0.87595 1.88692 93 137 213
-0.17195 -0.62139 1.77303 93 137 213
0.27496 -0.33663 1.90968 187 191 213
-0.27496 -0.33663 1.90968 187 191 213
-0.33663 -0.28836 1.90968 187 191 213
0.33663 -0.28836 1.90968 187 191 213
0.31096 -0.38071 1.8496 187 191 213
0.38071 -0.32612 1.8496 187 191 213
0.38071 -0.32612 1.35277 187 191 213
0.31096 -0.38071 1.35277 187 191 213
0.33663 0.28836 1.90968 187 191 213
0.38071 0.32612 1.8496 187 191 213
0.38071 0.32612 1.35277 187 191 213
-0.33663 0.28836 1.90968 187 191 213
-0.31096 -0.38071 1.8496 187 191 213
-0.38071 -0.32612 1.8496 187 191 213
-0.38071 -0.32612 1.35277 187 191 213
-0.31096 -0.38071 1.35277 187 191 213
-0.38071 0.32612 1.8496 187 191 213
-0.27496 0.33663 1.90968 187 191 213
0.27496 0.33663 1.90968 187 191 213
-0.31096 0.38071 1.8496 187 191 213
0.31096 0.38071 1.8496 187 191 213
-0.31096 0.38071 1.35277 187 191 213
0.31096 0.38071 1.35277 187 191 213
-0.38071 0.32612 1.35277 187 191 213
0.38071 -0.32612 1.21146 60 60 66
0.38071 -0.32612 1.35277 60 60 66
0.38071 0.32612 1.35277 60 60 66
0.38071 0.32612 1.21146 60 60 66
0.31096 0.38071 1.21146 60 60 66
0.31096 0.38071 1.35277 60 60 66
0.31096 -0.38071 1.21146 60 60 66
0.31096 -0.38071 1.35277 60 60 66
-0.31096 -0.38071 1.35277 60 60 66
-0.31096 -0.38071 1.21146 60 60 66
-0.38071 -0.32612 1.35277 60 60 66
-0.38071 -0.32612 1.21146 60 60 66
-0.38071 0.32612 1.35277 60 60 66
-0.38071 0.32612 1.21146 60 60 66
-0.31096 0.38071 1.21146 60 60 66
-0.31096 0.38071 1.35277 60 60 66
0.38093 -0.18677 1.08989 187 191 213
0.38093 -0.32631 1.08989 187 191 213
0.38071 -0.32612 1.21146 187 191 213
0.31122 -0.38068 1.08989 187 191 213
0.31096 -0.38071 1.21146 187 191 213
0.31182 -0.38062 0.81431 187 191 213
0.38142 -0.32676 0.81431 187 191 213
0.20615 -0.38062 0.81431 187 191 213
0.20571 -0.38068 1.08989 187 191 213
0.38142 -0.18715 0.81431 187 191 213
0.38093 -0.12368 1.08989 187 191 213
0.14604 -0.38068 1.08989 187 191 213
-0.14604 -0.38068 1.08989 187 191 213
0.14634 -0.38062 0.81431 187 191 213
-0.14634 -0.38062 0.81431 187 191 213
-0.31096 -0.38071 1.21146 187 191 213
-0.20571 -0.38068 1.08989 187 191 213
-0.31122 -0.38068 1.08989 187 191 213
-0.38071 -0.32612 1.21146 187 191 213
-0.38093 -0.32631 1.08989 187 191 213
-0.38093 -0.18677 1.08989 187 191 213
-0.31182 -0.38062 0.81431 187 191 213
-0.38142 -0.32676 0.81431 187 191 213
-0.20615 -0.38062 0.81431 187 191 213
-0.38142 -0.18715 0.81431 187 191 213
-0.38093 -0.12368 1.08989 187 191 213
0.38142 0.12916 0.81431 187 191 213
0.38142 -0.124 0.81431 187 191 213
0.38093 0.12941 1.08989 187 191 213
0.38071 0.32612 1.21146 187 191 213
0.38093 0.19163 1.08989 187 191 213
0.38093 0.32603 1.08989 187 191 213
0.31096 0.38071 1.21146 187 191 213
0.31122 0.38048 1.08989 187 191 213
0.22347 0.38048 1.08989 187 191 213
0.38142 0.19141 0.81431 187 191 213
0.38142 0.32585 0.81431 187 191 213
0.31182 0.37996 0.81431 187 191 213
0.22377 0.37996 0.81431 187 191 213
0.15701 0.38048 1.08989 187 191 213
-0.15701 0.38048 1.08989 187 191 213
0.15716 0.37996 0.81431 187 191 213
-0.15716 0.37996 0.81431 187 191 213
-0.31096 0.38071 1.21146 187 191 213
-0.22347 0.38048 1.08989 187 191 213
-0.31122 0.38048 1.08989 187 191 213
-0.38093 0.32603 1.08989 187 191 213
-0.38071 0.32612 1.21146 187 191 213
-0.38142 0.32585 0.81431 187 191 213
-0.38142 0.19141 0.81431 187 191 213
-0.38093 0.19163 1.08989 187 191 213
-0.31182 0.37996 0.81431 187 191 213
-0.38093 0.12941 1.08989 187 191 213
-0.38142 0.12916 0.81431 187 191 213
-0.38142 -0.124 0.81431 187 191 213
-0.22377 0.37996 0.81431 187 191 213
0.20615 -0.38062 0.81431 173 175 198
0.14634 -0.38062 0.81431 173 175 198
0.14604 -0.38068 1.08989 173 175 198
0.20571 -0.38068 1.08989 173 175 198
0.2751 -0.31858 0.81426 173 175 198
0.31182 -0.38062 0.81431 173 175 198
0.38142 -0.32676 0.81431 173 175 198
0.3192 -0.28274 0.8142 173 175 198
0.38142 -0.18715 0.81431 173 175 198
0.38142 -0.124 0.81431 173 175 198
-0.14634 -0.38062 0.81431 173 175 198
-0.2751 -0.31858 0.81426 173 175 198
-0.20615 -0.38062 0.81431 173 175 198
-0.14604 -0.38068 1.08989 173 175 198
-0.20571 -0.38068 1.08989 173 175 198
-0.31182 -0.38062 0.81431 173 175 198
-0.38142 -0.32676 0.81431 173 175 198
-0.3192 -0.28274 0.8142 173 175 198
-0.38142 -0.18715 0.81431 173 175 198
-0.38142 -0.124 0.81431 173 175 198
0.38093 -0.18677 1.08989 173 175 198
0.38093 -0.12368 1.08989 173 175 198
0.38142 0.12916 0.81431 173 175 198
0.31934 0.28232 0.81424 173 175 198
0.38142 0.19141 0.81431 173 175 198
0.38093 0.12941 1.08989 173 175 198
0.38093 0.19163 1.08989 173 175 198
0.38142 0.32585 0.81431 173 175 198
0.31182 0.37996 0.81431 173 175 198
0.27505 0.31806 0.81436 173 175 198
0.31913 -0.28254 1.01952 173 175 198
0.27518 -0.31832 1.01958 173 175 198
-0.27518 -0.31832 1.01958 173 175 198
0.31947 0.2821 1.01957 173 175 198
0.27532 0.31797 1.01968 173 175 198
-0.27532 0.31797 1.01968 173 175 198
-0.31913 -0.28254 1.01952 173 175 198
-0.31934 0.28232 0.81424 173 175 198
-0.38142 0.12916 0.81431 173 175 198
-0.38142 0.19141 0.81431 173 175 198
-0.38093 0.12941 1.08989 173 175 198
-0.38093 0.19163 1.08989 173 175 198
-0.38142 0.32585 0.81431 173 175 198
-0.31182 0.37996 0.81431 173 175 198
-0.27505 0.31806 0.81436 173 175 198
-0.31947 0.2821 1.01957 173 175 198
-0.38093 -0.12368 1.08989 173 175 198
-0.38093 -0.18677 1.08989 173 175 198
0.15716 0.37996 0.81431 173 175 198
0.22377 0.37996 0.81431 173 175 198
0.22347 0.38048 1.08989 173 175 198
0.15701 0.38048 1.08989 173 175 198
-0.15716 0.37996 0.81431 173 175 198
-0.22377 0.37996 0.81431 173 175 198
-0.15701 0.38048 1.08989 173 175 198
-0.22347 0.38048 1.08989 173 175 198
0.40955 0.00649 1.7906 154 179 117
0.40955 0.15487 1.69478 154 179 117
0.58618 0.15487 1.69478 154 179 117
0.58618 0.00649 1.7906 154 179 117
0.37743 -0.04046 1.7771 154 179 117
0.6183 -0.04046 1.7771 154 179 117
0.37743 -0.26763 1.42531 154 179 117
0.6183 -0.26763 1.42531 154 179 117
0.6183 0.16188 1.64644 154 179 117
0.37743 0.16188 1.64644 154 179 117
0.37743 -0.16733 1.13663 154 179 117
0.6183 -0.16733 1.13663 154 179 117
0.6183 -0.22418 1.12366 154 179 117
0.37743 -0.22418 1.12366 154 179 117
0.6183 -0.55591 1.31888 154 179 117
0.37743 -0.55591 1.31888 154 179 117
0.6183 -0.43123 1.51197 154 179 117
0.37743 -0.43123 1.51197 154 179 117
0.6183 -0.26763 1.42531 160 186 120
0.6183 -0.43123 1.51197 160 186 120
0.37743 -0.43123 1.51197 160 186 120
0.37743 -0.26763 1.42531 160 186 120
0.37743 -0.55591 1.31888 89 131 205
0.37743 -0.648 1.37835 89 131 205
0.6183 -0.648 1.37835 89 131 205
0.6183 -0.55591 1.31888 89 131 205
0.6183 -0.52332 1.57143 89 131 205
0.6183 -0.43123 1.51197 89 131 205
0.37743 -0.43123 1.51197 89 131 205
0.37743 -0.52332 1.57143 89 131 205
0.66202 -0.71101 1.28077 89 131 205
0.33398 -0.71101 1.28077 89 131 205
0.66202 -0.4603 1.66901 89 131 205
0.33398 -0.4603 1.66901 89 131 205
0.33398 -0.87209 1.3848 89 131 205
0.33398 -0.7378 1.59276 89 131 205
0.33398 -0.65052 1.5364 89 131 205
0.22323 -0.65052 1.5364 89 131 205
0.33398 -0.53411 1.71667 89 131 205
0.22323 -0.53411 1.71667 89 131 205
0.22323 -0.7378 1.59276 89 131 205
0.22323 -0.62139 1.77303 89 131 205
0.17195 -0.62139 1.77303 89 131 205
0.17195 -0.87209 1.3848 89 131 205
0.17195 -1.07387 1.5151 89 131 205
0.17195 -0.82317 1.90333 89 131 205
0.66202 -1.07402 1.51519 89 131 205
0.21113 -1.08054 1.5699 89 131 205
0.6252 -1.08063 1.56996 89 131 205
0.66202 -0.82332 1.90343 89 131 205
0.6252 -0.87595 1.88692 89 131 205
0.21113 -0.87586 1.88686 89 131 205
0.6183 -0.43123 1.51197 93 137 213
0.6183 -0.52332 1.57143 93 137 213
0.37743 -0.52332 1.57143 93 137 213
0.37743 -0.43123 1.51197 93 137 213
0.66202 -0.4603 1.66901 93 137 213
0.33398 -0.53411 1.71667 93 137 213
0.33398 -0.4603 1.66901 93 137 213
0.33398 -0.62139 1.77303 93 137 213
0.22323 -0.53411 1.71667 93 137 213
0.22323 -0.62139 1.77303 93 137 213
0.66202 -0.82332 1.90343 93 137 213
0.17195 -0.82317 1.90333 93 137 213
0.21113 -0.87586 1.88686 93 137 213
0.6252 -0.87595 1.88692 93 137 213
0.17195 -0.62139 1.77303 93 137 213
0.09004 -0.6259 0.0048 187 191 213
0.09004 -0.6259 0.23034 187 191 213
0.26338 -0.62621 0.23034 187 191 213
0.26338 -0.62621 0.0048 187 191 213
0.05397 -0.57677 0.0048 187 191 213
0.29963 -0.5772 0.0048 187 191 213
0.29963 -0.5772 0.23034 187 191 213
0.05397 -0.57677 0.23034 187 191 213
0.30035 -0.34251 0.23034 187 191 213
0.30078 -0.09686 0.0048 187 191 213
0.05512 -0.09642 0.0048 187 191 213
0.30078 -0.09686 0.23034 187 191 213
0.05469 -0.34208 0.23034 187 191 213
0.05512 -0.09642 0.23034 187 191 213
0.08677 -0.05559 0.23027 187 191 213
0.08676 -0.05559 0.0048 187 191 213
0.26929 -0.05591 0.0048 187 191 213
0.26929 -0.05591 0.23027 187 191 213
0.30072 -0.34225 0.30844 187 191 213
0.05506 -0.34182 0.30844 187 191 213
0.08736 0.12936 1.08881 154 179 117
0.08707 -0.05145 0.58836 154 179 117
0.26959 -0.05178 0.58834 154 179 117
0.26989 0.12902 1.08877 154 179 117
0.26938 -0.05487 0.55637 154 179 117
0.08686 -0.05454 0.55638 154 179 117
0.26929 -0.05591 0.23027 154 179 117
0.08677 -0.05559 0.23027 154 179 117
0.30143 0.08522 1.08839 154 179 117
0.30108 -0.09139 0.59752 154 179 117
0.05543 -0.09096 0.59752 154 179 117
0.05577 0.08566 1.08839 154 179 117
0.05534 -0.16 1.08839 154 179 117
0.0538 -0.32927 0.6484 154 179 117
0.05521 -0.09525 0.5587 154 179 117
0.05474 -0.34242 0.53364 154 179 117
0.05512 -0.09642 0.23034 154 179 117
0.05506 -0.34182 0.30844 154 179 117
0.05469 -0.34208 0.23034 154 179 117
0.30087 -0.09569 0.5587 154 179 117
0.30078 -0.09686 0.23034 154 179 117
0.30072 -0.34225 0.30844 154 179 117
0.3004 -0.34286 0.53364 154 179 117
0.30035 -0.34251 0.23034 154 179 117
0.29945 -0.32971 0.6484 154 179 117
0.301 -0.16044 1.08839 154 179 117
0.30035 -0.34251 0.23034 192 196 218
0.29963 -0.5772 0.23034 192 196 218
0.05397 -0.57677 0.23034 192 196 218
0.05469 -0.34208 0.23034 192 196 218
0.26338 -0.62621 0.23034 192 196 218
0.09004 -0.6259 0.23034 192 196 218
-0.09004 -0.10915 0.0048 187 191 213
-0.26338 -0.10946 0.0048 187 191 213
-0.26338 -0.10946 0.23034 187 191 213
-0.09004 -0.10915 0.23034 187 191 213
-0.05397 -0.06002 0.0048 187 191 213
-0.29963 -0.06046 0.0048 187 191 213
-0.29963 -0.06046 0.23034 187 191 213
-0.05397 -0.06002 0.23034 187 191 213
-0.30035 0.17423 0.23034 187 191 213
-0.30078 0.41989 0.0048 187 191 213
-0.05512 0.42032 0.0048 187 191 213
-0.30078 0.41989 0.23034 187 191 213
-0.05469 0.17467 0.23034 187 191 213
-0.05512 0.42032 0.23034 187 191 213
-0.08677 0.46116 0.23027 187 191 213
-0.08676 0.46116 0.0048 187 191 213
-0.26929 0.46084 0.0048 187 191 213
-0.26929 0.46084 0.23027 187 191 213
-0.30072 0.1257 0.30844 187 191 213
-0.05506 0.12614 0.30844 187 191 213
-0.08736 0.19239 1.08881 154 179 117
-0.26989 0.19205 1.08877 154 179 117
-0.26959 0.25614 0.64718 154 179 117
-0.08707 0.25643 0.64733 154 179 117
-0.26938 0.27551 0.59388 154 179 117
-0.08686 0.2758 0.59402 154 179 117
-0.26929 0.46084 0.23027 154 179 117
-0.08677 0.46116 0.23027 154 179 117
-0.30143 0.14826 1.08839 154 179 117
-0.30108 0.21619 0.63961 154 179 117
-0.05543 0.21659 0.63979 154 179 117
-0.05577 0.14869 1.08839 154 179 117
-0.05534 -0.09697 1.08839 154 179 117
-0.0538 -0.01797 0.59026 154 179 117
-0.05521 0.23761 0.57973 154 179 117
-0.05474 0.01627 0.5014 154 179 117
-0.05512 0.42032 0.23034 154 179 117
-0.05506 0.12614 0.30844 154 179 117
-0.05469 0.17467 0.23034 154 179 117
-0.30087 0.23722 0.57955 154 179 117
-0.30078 0.41989 0.23034 154 179 117
-0.30072 0.1257 0.30844 154 179 117
-0.3004 0.01587 0.50122 154 179 117
-0.30035 0.17423 0.23034 154 179 117
-0.29945 -0.01836 0.59008 154 179 117
-0.301 -0.0974 1.08839 154 179 117
-0.30035 0.17423 0.23034 192 196 218
-0.05469 0.17467 0.23034 192 196 218
-0.05397 -0.06002 0.23034 192 196 218
-0.29963 -0.06046 0.23034 192 196 218
-0.09004 -0.10915 0.23034 192 196 218
-0.26338 -0.10946 0.23034 192 196 218
-0.33881 -0.25535 1.60582 154 179 117
-0.59452 -0.25535 1.60582 154 179 117
-0.62261 -0.25535 1.62815 154 179 117
-0.62261 -0.25535 1.7286 154 179 117
-0.62261 -0.16665 1.62815 154 179 117
-0.59452 -0.16665 1.60582 154 179 117
-0.62261 -0.16665 1.7286 154 179 117
-0.80592 -0.16665 1.7286 154 179 117
-0.80592 -0.25535 1.7286 154 179 117
-0.82831 -0.25535 1.87979 154 179 117
-0.82831 -0.25535 1.74748 154 179 117
-0.82831 -0.16665 1.79788 154 179 117
-0.82831 -0.16665 1.74748 154 179 117
-0.33881 -0.25535 1.87979 154 179 117
-0.33881 -0.16665 1.60582 154 179 117
-0.38682 -0.16665 1.60582 154 179 117
-0.33881 -0.16665 1.79788 154 179 117
-0.33881 -0.14356 1.82278 154 179 117
-0.33881 -0.22886 1.90856 154 179 117
-0.33881 0.22655 1.90856 154 179 117
-0.33881 0.14125 1.82278 154 179 117
-0.33881 0.25687 1.87979 154 179 117
-0.33881 0.16434 1.79788 154 179 117
-0.33881 0.16434 1.60582 154 179 117
-0.33881 0.25687 1.60582 154 179 117
-0.62261 0.25687 1.7286 154 179 117
-0.62261 0.25687 1.62815 154 179 117
-0.59452 0.25687 1.60582 154 179 117
-0.38682 0.16434 1.60582 154 179 117
-0.59452 0.16434 1.60582 154 179 117
-0.62261 0.16434 1.62815 154 179 117
-0.62261 0.16434 1.7286 154 179 117
-0.82831 0.25687 1.87979 154 179 117
-0.82831 0.25687 1.74748 154 179 117
-0.82831 0.16434 1.74748 154 179 117
-0.82831 0.16434 1.79788 154 179 117
-0.80592 0.25687 1.7286 154 179 117
-0.80592 0.16434 1.7286 154 179 117
-0.82831 0.22655 1.90856 154 179 117
-0.82831 0.14125 1.82278 154 179 117
-0.82831 -0.22886 1.90856 154 179 117
-0.82831 -0.14356 1.82278 154 179 117
-0.33881 -0.22886 1.90856 160 186 120
-0.33881 -0.25535 1.87979 160 186 120
-0.82831 -0.25535 1.87979 160 186 120
-0.82831 -0.22886 1.90856 160 186 120
-0.33881 0.22655 1.90856 160 186 120
-0.82831 0.22655 1.90856 160 186 120
-0.33881 0.25687 1.87979 160 186 120
-0.82831 0.25687 1.87979 160 186 120
-0.62261 -0.14356 1.82278 148 172 112
-0.38682 -0.14356 1.82278 148 172 112
-0.38682 0.14125 1.82278 148 172 112
-0.62261 0.14125 1.82278 148 172 112
-0.38682 0.16434 1.79788 148 172 112
-0.62261 0.16434 1.79788 148 172 112
-0.82831 0.16434 1.79788 148 172 112
-0.62261 0.16434 1.7286 148 172 112
-0.82831 0.14125 1.82278 148 172 112
-0.82831 -0.14356 1.82278 148 172 112
-0.62261 -0.16665 1.79788 148 172 112
-0.82831 -0.16665 1.79788 148 172 112
-0.38682 -0.16665 1.79788 148 172 112
-0.38682 -0.16665 1.60582 148 172 112
-0.62261 -0.16665 1.7286 148 172 112
-0.82831 -0.16665 1.74748 148 172 112
-0.80592 -0.16665 1.7286 148 172 112
-0.38682 0.16434 1.60582 148 172 112
-0.46034 0.16434 1.60582 148 172 112
-0.59452 0.16434 1.60582 148 172 112
-0.62261 0.16434 1.62815 148 172 112
-0.62261 -0.16665 1.62815 148 172 112
-0.59452 -0.16665 1.60582 148 172 112
-0.46034 0.16434 1.60582 154 179 117
0.33881 -0.25535 1.60582 154 179 117
0.62261 -0.25535 1.7286 154 179 117
0.62261 -0.25535 1.62815 154 179 117
0.59452 -0.25535 1.60582 154 179 117
0.62261 -0.16665 1.62815 154 179 117
0.59452 -0.16665 1.60582 154 179 117
0.62261 -0.16665 1.7286 154 179 117
0.80592 -0.16665 1.7286 154 179 117
0.80592 -0.25535 1.7286 154 179 117
0.82831 -0.16665 1.74748 154 179 117
0.82831 -0.25535 1.74748 154 179 117
0.82831 -0.25535 1.87979 154 179 117
0.82831 -0.16665 1.79788 154 179 117
0.33881 -0.25535 1.87979 154 179 117
0.33881 -0.16665 1.60582 154 179 117
0.38682 -0.16665 1.60582 154 179 117
0.33881 -0.16665 1.79788 154 179 117
0.33881 -0.14356 1.82278 154 179 117
0.33881 -0.22886 1.90856 154 179 117
0.33881 0.22655 1.90856 154 179 117
0.33881 0.14125 1.82278 154 179 117
0.33881 0.25687 1.87979 154 179 117
0.33881 0.16434 1.79788 154 179 117
0.33881 0.16434 1.60582 154 179 117
0.33881 0.25687 1.60582 154 179 117
0.62261 0.25687 1.7286 154 179 117
0.62261 0.25687 1.62815 154 179 117
0.59452 0.25687 1.60582 154 179 117
0.59452 0.16434 1.60582 154 179 117
0.38682 0.16434 1.60582 154 179 117
0.62261 0.16434 1.62815 154 179 117
0.62261 0.16434 1.7286 154 179 117
0.82831 0.25687 1.87979 154 179 117
0.82831 0.25687 1.74748 154 179 117
0.82831 0.16434 1.74748 154 179 117
0.82831 0.16434 1.79788 154 179 117
0.80592 0.25687 1.7286 154 179 117
0.80592 0.16434 1.7286 154 179 117
0.82831 0.14125 1.82278 154 179 117
0.82831 0.22655 1.90856 154 179 117
0.82831 -0.22886 1.90856 154 179 117
0.82831 -0.14356 1.82278 154 179 117
0.33881 -0.22886 1.90856 160 186 120
0.82831 -0.22886 1.90856 160 186 120
0.82831 -0.25535 1.87979 160 186 120
0.33881 -0.25535 1.87979 160 186 120
0.33881 0.22655 1.90856 160 186 120
0.82831 0.22655 1.90856 160 186 120
0.33881 0.25687 1.87979 160 186 120
0.82831 0.25687 1.87979 160 186 120
0.62261 -0.14356 1.82278 148 172 112
0.62261 0.14125 1.82278 148 172 112
0.38682 0.14125 1.82278 148 172 112
0.38682 -0.14356 1.82278 148 172 112
0.38682 0.16434 1.79788 148 172 112
0.62261 0.16434 1.79788 148 172 112
0.82831 0.16434 1.79788 148 172 112
0.82831 0.14125 1.82278 148 172 112
0.82831 -0.14356 1.82278 148 172 112
0.62261 -0.16665 1.79788 148 172 112
0.82831 -0.16665 1.79788 148 172 112
0.62261 -0.16665 1.7286 148 172 112
0.38682 -0.16665 1.79788 148 172 112
0.38682 -0.16665 1.60582 148 172 112
0.38682 0.16434 1.60582 148 172 112
0.62261 0.16434 1.7286 148 172 112
0.80592 0.16434 1.7286 148 172 112
0.82831 0.16434 1.74748 148 172 112
0.62261 -0.16665 1.62815 148 172 112
0.59452 -0.16665 1.60582 148 172 112
0.82831 -0.16665 1.74748 148 172 112
0.80592 -0.16665 1.7286 148 172 112
0.62261 0.16434 1.62815 148 172 112
0.59452 0.16434 1.60582 148 172 112
0.46034 0.16434 1.60582 148 172 112
0.46034 0.16434 1.60582 154 179 117
0.10314 -0.5355 2.08485 36 81 66
0.10314 -0.5355 2.12859 36 81 66
0.20569 -0.5355 2.12859 36 81 66
0.20569 -0.5355 2.08485 36 81 66
0.20569 -0.52174 2.12859 36 81 66
0.20569 -0.52174 2.08485 36 81 66
0.10314 -0.52174 2.08485 36 81 66
0.10314 -0.52174 2.12859 36 81 66
0.16493 -0.5355 2.18375 20 45 37
0.16493 -0.5355 2.25688 20 45 37
0.20569 -0.5355 2.25688 20 45 37
0.20569 -0.5355 2.12859 20 45 37
0.20569 -0.52174 2.25688 20 45 37
0.20569 -0.52174 2.12859 20 45 37
0.10314 -0.5355 2.12859 20 45 37
0.12814 -0.5355 2.18375 20 45 37
0.12814 -0.5355 2.25688 20 45 37
0.10314 -0.5355 2.25688 20 45 37
0.10314 -0.52174 2.12859 20 45 37
0.10314 -0.52174 2.25688 20 45 37
0.12814 -0.5355 2.25688 255 255 255
0.16493 -0.5355 2.25688 255 255 255
0.16493 -0.5355 2.18375 255 255 255
0.12814 -0.5355 2.18375 255 255 255
0.3682 -0.4719 1.87925 154 179 117
-0.3682 -0.4719 1.87925 154 179 117
-0.3265 -0.51137 1.87925 154 179 117
0.3265 -0.51137 1.87925 154 179 117
0.41357 -0.51077 1.92186 154 179 117
0.41357 0.15407 1.92186 154 179 117
0.3682 0.1152 1.87925 154 179 117
0.36356 -0.55674 1.92186 154 179 117
0.36356 -0.55674 2.5127 154 179 117
0.41357 -0.51077 2.5127 154 179 117
0.25012 -0.55674 1.92186 154 179 117
0.25011 -0.55674 2.0023 154 179 117
0.31797 -0.55674 2.09141 154 179 117
0.41357 -0.46973 2.5127 154 179 117
0.36569 -0.46975 2.57247 154 179 117
0.41324 -0.46973 2.79522 154 179 117
0.36642 -0.46973 2.79522 154 179 117
0.41324 -0.3233 2.79522 154 179 117
0.41357 -0.3233 2.5127 154 179 117
0.36569 -0.3233 2.57247 154 179 117
0.36642 -0.3233 2.79522 154 179 117
0.11203 -0.55674 2.09141 154 179 117
0.31797 -0.52547 2.09141 154 179 117
0.11203 -0.52547 2.09141 154 179 117
0.11203 -0.55674 2.20023 154 179 117
0.11203 -0.52547 2.20023 154 179 117
0.31797 -0.55674 2.30524 154 179 117
0.31797 -0.52547 2.30524 154 179 117
0.11892 -0.55674 2.5127 154 179 117
0.17781 -0.55674 2.5127 154 179 117
0.32462 -0.55674 2.5127 154 179 117
0.11892 -0.50886 2.57247 154 179 117
0.17781 -0.50886 2.57247 154 179 117
-0.11203 -0.55674 2.20023 154 179 117
-0.11203 -0.55674 2.09141 154 179 117
-0.11892 -0.55674 2.5127 154 179 117
-0.11892 -0.5564 2.8918 154 179 117
0.11892 -0.5564 2.8918 154 179 117
0.32445 -0.50886 2.57247 154 179 117
0.17781 -0.55693 2.83768 154 179 117
0.17781 -0.5091 2.83768 154 179 117
0.32462 -0.55693 2.83768 154 179 117
-0.11203 -0.52547 2.09141 154 179 117
-0.11203 -0.52547 2.20023 154 179 117
-0.31797 -0.55674 2.30524 154 179 117
-0.31797 -0.52547 2.30524 154 179 117
-0.31797 -0.52547 2.09141 154 179 117
-0.31797 -0.55674 2.09141 154 179 117
-0.17781 -0.55674 2.5127 154 179 117
-0.36356 -0.55674 2.5127 154 179 117
-0.32462 -0.55674 2.5127 154 179 117
-0.32445 -0.50886 2.57247 154 179 117
-0.36569 -0.46975 2.57247 154 179 117
-0.41357 -0.51077 2.5127 154 179 117
-0.41357 -0.51077 1.92186 154 179 117
-0.36356 -0.55674 1.92186 154 179 117
-0.41357 0.15407 1.92186 154 179 117
-0.3682 0.1152 1.87925 154 179 117
-0.25011 -0.55674 2.0023 154 179 117
-0.25012 -0.55674 1.92186 154 179 117
-0.41357 -0.46973 2.5127 154 179 117
-0.41324 -0.46973 2.79522 154 179 117
-0.36642 -0.46973 2.79522 154 179 117
-0.41324 -0.3233 2.79522 154 179 117
-0.41357 -0.3233 2.5127 154 179 117
-0.36569 -0.3233 2.57247 154 179 117
-0.36642 -0.3233 2.79522 154 179 117
-0.22672 -0.55674 1.92186 154 179 117
0.22672 -0.55674 1.92186 154 179 117
-0.22669 -0.55674 1.97741 154 179 117
0.22669 -0.55674 1.97741 154 179 117
0.30074 0.16801 1.87925 154 179 117
0.3378 0.21338 1.92186 154 179 117
0.3378 0.21338 2.5127 154 179 117
-0.3378 0.21338 1.92186 154 179 117
-0.3378 0.21338 2.5127 154 179 117
0.29869 0.16549 2.57247 154 179 117
-0.29869 0.16549 2.57247 154 179 117
0.41357 0.15407 2.5127 154 179 117
0.36569 0.11305 2.57247 154 179 117
-0.30074 0.16801 1.87925 154 179 117
-0.41357 0.15407 2.5127 154 179 117
-0.36569 0.11305 2.57247 154 179 117
0.36569 0.11305 2.57247 160 186 120
-0.36569 0.11305 2.57247 160 186 120
-0.29869 0.16549 2.57247 160 186 120
0.29869 0.16549 2.57247 160 186 120
-0.36569 -0.3233 2.57247 160 186 120
0.36569 -0.3233 2.57247 160 186 120
-0.36569 -0.46975 2.57247 160 186 120
0.36569 -0.46975 2.57247 160 186 120
0.11892 -0.50886 2.57247 160 186 120
0.17781 -0.50886 2.57247 160 186 120
-0.11892 -0.50886 2.57247 160 186 120
0.32445 -0.50886 2.57247 160 186 120
-0.17781 -0.50886 2.57247 160 186 120
-0.32445 -0.50886 2.57247 160 186 120
0.31797 -0.52547 2.30524 255 255 255
0.31797 -0.52547 2.09141 255 255 255
0.11203 -0.52547 2.09141 255 255 255
0.11203 -0.52547 2.20023 255 255 255
0.11892 -0.50928 2.8918 154 179 117
-0.11892 -0.50886 2.57247 154 179 117
-0.11892 -0.50928 2.8918 154 179 117
0.36642 -0.46973 2.79522 160 186 120
0.36642 -0.3233 2.79522 160 186 120
0.41324 -0.3233 2.79522 160 186 120
0.41324 -0.46973 2.79522 160 186 120
0.22669 -0.55674 1.97741 128 148 97
-0.22669 -0.55674 1.97741 128 148 97
-0.25011 -0.55674 2.0023 128 148 97
0.25011 -0.55674 2.0023 128 148 97
0.22672 -0.55674 1.92186 128 148 97
0.25012 -0.55674 1.92186 128 148 97
-0.22672 -0.55674 1.92186 128 148 97
-0.25012 -0.55674 1.92186 128 148 97
0.11892 -0.5564 2.8918 160 186 120
-0.11892 -0.5564 2.8918 160 186 120
-0.11892 -0.50928 2.8918 160 186 120
0.11892 -0.50928 2.8918 160 186 120
0.32445 -0.5091 2.83768 160 186 120
0.32462 -0.55693 2.83768 160 186 120
0.17781 -0.55693 2.83768 160 186 120
0.17781 -0.5091 2.83768 160 186 120
0.32445 -0.5091 2.83768 154 179 117
-0.10314 -0.5355 2.08485 36 81 66
-0.20569 -0.5355 2.08485 36 81 66
-0.20569 -0.5355 2.12859 36 81 66
-0.10314 -0.5355 2.12859 36 81 66
-0.20569 -0.52174 2.12859 36 81 66
-0.20569 -0.52174 2.08485 36 81 66
-0.10314 -0.52174 2.08485 36 81 66
-0.10314 -0.52174 2.12859 36 81 66
-0.16493 -0.5355 2.18375 20 45 37
-0.20569 -0.5355 2.12859 20 45 37
-0.20569 -0.5355 2.25688 20 45 37
-0.16493 -0.5355 2.25688 20 45 37
-0.20569 -0.52174 2.25688 20 45 37
-0.20569 -0.52174 2.12859 20 45 37
-0.10314 -0.5355 2.12859 20 45 37
-0.12814 -0.5355 2.18375 20 45 37
-0.12814 -0.5355 2.25688 20 45 37
-0.10314 -0.5355 2.25688 20 45 37
-0.10314 -0.52174 2.12859 20 45 37
-0.10314 -0.52174 2.25688 20 45 37
-0.12814 -0.5355 2.25688 255 255 255
-0.12814 -0.5355 2.18375 255 255 255
-0.16493 -0.5355 2.18375 255 255 255
-0.16493 -0.5355 2.25688 255 255 255
-0.31797 -0.52547 2.30524 255 255 255
-0.11203 -0.52547 2.20023 255 255 255
-0.11203 -0.52547 2.09141 255 255 255
-0.31797 -0.52547 2.09141 255 255 255
-0.17781 -0.50886 2.57247 154 179 117
-0.17781 -0.55693 2.83768 154 179 117
-0.17781 -0.5091 2.83768 154 179 117
-0.32462 -0.55693 2.83768 154 179 117
-0.36642 -0.46973 2.79522 160 186 120
-0.41324 -0.46973 2.79522 160 186 120
-0.41324 -0.3233 2.79522 160 186 120
-0.36642 -0.3233 2.79522 160 186 120
-0.32445 -0.5091 2.83768 160 186 120
-0.17781 -0.5091 2.83768 160 186 120
-0.17781 -0.55693 2.83768 160 186 120
-0.32462 -0.55693 2.83768 160 186 120
-0.32445 -0.5091 2.83768 154 179 117
-0.80592 0.16434 1.7286 148 172 112
-0.82831 0.16434 1.74748 148 172 112
3 0 2 1
3 0 3 2
3 4 0 1
3 4 1 5
3 5 1 2
3 6 4 5
3 6 5 7
3 5 2 8
3 8 2 3
3 8 3 9
3 9 0 4
3 9 3 0
3 9 10 8
3 9 11 10
3 12 10 11
3 12 11 13
3 12 7 10
3 7 8 10
3 13 11 6
3 7 5 8
3 11 4 6
3 11 9 4
3 13 14 12
3 13 15 14
3 6 15 13
3 12 16 7
3 12 14 16
3 6 17 15
3 18 20 19
3 18 21 20
3 22 24 23
3 22 25 24
3 23 24 26
3 23 26 27
3 28 25 22
3 28 29 25
3 25 30 24
3 25 31 30
3 29 31 25
3 24 32 26
3 24 30 32
3 26 33 29
3 26 32 33
3 29 33 31
3 30 31 34
3 31 35 34
3 31 36 35
3 37 35 36
3 38 37 36
3 38 39 37
3 37 40 35
3 40 37 39
3 40 39 41
3 42 40 41
3 42 43 40
3 43 35 40
3 43 34 35
3 34 43 44
3 42 44 43
3 42 45 44
3 46 34 44
3 46 44 47
3 46 47 48
3 46 30 34
3 30 46 49
3 30 49 32
3 50 49 46
3 50 46 48
3 50 48 47
3 47 45 51
3 50 47 51
3 47 44 45
3 52 54 53
3 52 55 54
3 56 58 57
3 59 58 56
3 60 58 59
3 60 59 61
3 62 59 56
3 62 63 59
3 64 63 62
3 64 62 65
3 63 61 59
3 63 66 61
3 33 36 31
3 33 38 36
3 67 69 68
3 67 70 69
3 71 70 67
3 71 72 70
3 71 73 72
3 71 74 73
3 72 75 70
3 72 76 75
3 73 76 72
3 73 77 76
3 70 78 69
3 70 75 78
3 79 68 69
3 67 79 71
3 67 68 79
3 79 69 80
3 79 80 81
3 79 81 82
3 71 82 74
3 71 79 82
3 80 69 78
3 80 78 83
3 83 78 84
3 75 84 78
3 75 85 84
3 85 86 84
3 83 84 86
3 85 87 86
3 76 85 75
3 76 87 85
3 87 88 86
3 87 89 88
3 77 87 76
3 77 89 87
3 81 80 83
3 81 83 90
3 90 86 88
3 90 83 86
3 91 93 92
3 91 94 93
3 95 93 94
3 95 96 93
3 92 97 91
3 92 98 97
3 97 98 99
3 97 99 100
3 101 100 99
3 101 102 100
3 102 101 103
3 102 103 104
3 105 104 103
3 105 103 106
3 95 106 96
3 95 105 106
3 107 109 108
3 109 110 108
3 109 111 110
3 108 110 112
3 108 112 113
3 110 114 112
3 110 115 114
3 111 115 110
3 116 108 113
3 116 107 108
3 117 109 107
3 111 118 115
3 111 119 118
3 120 118 119
3 120 119 121
3 111 122 119
3 119 122 123
3 122 124 123
3 125 124 122
3 125 126 124
3 127 126 125
3 126 128 124
3 126 129 128
3 124 130 123
3 124 128 130
3 131 126 127
3 131 129 126
3 132 127 125
3 133 117 134
3 133 135 117
3 136 117 135
3 136 135 137
3 136 137 138
3 139 136 138
3 139 138 140
3 141 139 140
3 138 137 142
3 138 142 143
3 140 138 143
3 140 143 144
3 136 109 117
3 145 140 144
3 145 141 140
3 139 141 146
3 139 146 147
3 148 147 146
3 148 149 147
3 139 147 150
3 150 147 151
3 151 152 150
3 150 152 153
3 150 153 154
3 152 155 153
3 153 155 156
3 153 156 157
3 154 153 157
3 152 158 155
3 154 157 159
3 154 159 132
3 160 132 159
3 160 161 132
3 154 132 125
3 162 152 151
3 162 158 152
3 163 165 164
3 163 166 165
3 167 163 164
3 168 163 167
3 169 168 167
3 169 167 170
3 171 169 170
3 172 171 170
3 167 164 173
3 167 173 174
3 174 173 175
3 175 173 176
3 175 176 177
3 178 174 175
3 179 174 178
3 179 180 174
3 181 180 179
3 182 180 181
3 172 183 171
3 172 184 183
3 185 172 170
3 185 170 186
3 187 185 186
3 187 188 185
3 187 189 188
3 190 187 186
3 191 190 186
3 191 186 192
3 186 170 193
3 170 194 193
3 170 167 194
3 194 167 174
3 194 174 195
3 186 193 196
3 196 193 194
3 197 194 195
3 196 194 197
3 197 195 198
3 180 195 174
3 180 199 195
3 200 199 180
3 201 200 180
3 201 180 182
3 202 200 201
3 202 201 203
3 202 203 204
3 205 200 202
3 206 200 205
3 206 207 200
3 200 208 199
3 208 195 199
3 208 198 195
3 182 210 209
3 182 181 210
3 211 213 212
3 211 214 213
3 212 191 192
3 192 211 212
3 192 215 211
3 192 207 215
3 215 207 216
3 216 207 206
3 197 207 192
3 192 196 197
3 192 186 196
3 197 198 207
3 207 198 208
3 207 208 200
3 215 218 217
3 215 216 218
3 219 221 220
3 219 222 221
3 223 222 219
3 223 224 222
3 224 221 222
3 225 224 223
3 225 226 224
3 224 227 221
3 227 220 221
3 227 228 220
3 228 219 220
3 228 223 219
3 228 230 229
3 228 227 230
3 231 229 230
3 231 232 229
3 231 230 226
3 226 230 227
3 232 225 229
3 226 227 224
3 229 223 228
3 229 225 223
3 232 231 233
3 232 233 234
3 225 232 234
3 231 235 233
3 231 226 235
3 225 234 236
3 237 239 238
3 237 240 239
3 241 243 242
3 241 244 243
3 244 245 243
3 244 246 245
3 247 241 242
3 247 242 248
3 242 243 249
3 242 249 250
3 248 242 250
3 243 251 249
3 243 245 251
3 245 252 251
3 245 248 252
3 248 250 252
3 249 253 250
3 250 253 254
3 250 254 255
3 256 255 254
3 257 255 256
3 257 256 258
3 256 254 259
3 259 258 256
3 259 260 258
3 261 260 259
3 261 259 262
3 262 254 253
3 262 259 254
3 253 263 262
3 261 262 263
3 261 263 264
3 265 263 253
3 265 266 263
3 265 267 266
3 265 253 249
3 249 268 265
3 249 251 268
3 269 265 268
3 269 267 265
3 269 266 267
3 266 264 263
3 266 270 264
3 269 270 266
3 271 273 272
3 271 274 273
3 275 277 276
3 278 275 276
3 279 278 276
3 279 280 278
3 281 275 278
3 281 278 282
3 283 281 282
3 283 284 281
3 282 278 280
3 282 280 285
3 252 255 257
3 252 250 255
3 286 288 287
3 286 289 288
3 290 289 286
3 290 291 289
3 291 288 289
3 291 292 288
3 293 286 287
3 293 290 286
3 294 292 291
3 294 291 295
3 295 291 290
3 295 290 296
3 294 295 297
3 298 296 290
3 298 290 293
3 298 299 296
3 296 299 300
3 296 300 301
3 300 302 301
3 300 303 302
3 297 302 303
3 297 295 302
3 295 301 302
3 295 296 301
3 298 294 304
3 298 304 305
3 306 308 307
3 306 309 308
3 307 308 310
3 307 310 311
3 311 310 312
3 311 312 313
3 314 308 309
3 314 315 308
3 315 310 308
3 316 306 307
3 316 317 306
3 316 318 317
3 316 319 318
3 320 319 316
3 320 307 311
3 320 316 307
3 320 321 319
3 322 321 320
3 322 311 313
3 322 320 311
3 322 323 321
3 322 324 323
3 315 325 310
3 325 312 310
3 325 326 312
3 327 325 328
3 327 326 325
3 323 327 328
3 323 328 321
3 329 326 327
3 328 325 315
3 328 315 330
3 321 328 330
3 330 315 314
3 330 314 331
3 319 330 331
3 321 330 319
3 319 331 318
3 332 334 333
3 332 335 334
3 333 337 336
3 333 334 337
3 338 340 339
3 338 341 340
3 342 338 339
3 342 339 343
3 343 339 340
3 343 340 344
3 345 338 342
3 345 341 338
3 346 343 344
3 346 347 343
3 347 342 343
3 347 348 342
3 346 349 347
3 350 342 348
3 350 345 342
3 350 348 351
3 348 352 351
3 348 353 352
3 352 353 354
3 352 354 355
3 349 355 354
3 349 354 347
3 347 353 348
3 347 354 353
3 350 356 346
3 350 357 356
3 358 360 359
3 358 361 360
3 361 362 360
3 361 363 362
3 363 364 362
3 363 365 364
3 366 359 360
3 366 360 367
3 367 360 362
3 368 361 358
3 368 358 369
3 368 369 370
3 368 370 371
3 372 368 371
3 372 361 368
3 372 363 361
3 372 371 373
3 374 372 373
3 374 363 372
3 374 365 363
3 374 373 375
3 374 375 376
3 367 362 377
3 377 362 364
3 377 364 378
3 379 377 378
3 379 380 377
3 375 380 379
3 375 373 380
3 381 379 378
3 380 367 377
3 380 382 367
3 373 382 380
3 382 366 367
3 382 383 366
3 371 383 382
3 373 371 382
3 371 370 383
3 384 386 385
3 384 387 386
3 387 388 386
3 387 389 388
3 390 392 391
3 390 393 392
3 391 392 394
3 391 394 395
3 390 391 395
3 392 396 394
3 392 393 396
3 393 397 396
3 393 398 397
3 399 398 393
3 399 400 398
3 400 399 401
3 400 401 402
3 390 403 393
3 403 399 393
3 403 390 404
3 404 390 405
3 390 395 405
3 403 404 406
3 407 403 406
3 407 408 403
3 407 409 408
3 407 410 409
3 411 409 410
3 411 410 412
3 411 412 413
3 411 413 414
3 411 414 415
3 414 416 415
3 414 417 416
3 418 417 414
3 414 413 418
3 417 418 419
3 416 417 419
3 416 419 420
3 415 416 420
3 415 420 421
3 415 422 411
3 415 423 422
3 422 423 424
3 422 424 425
3 415 426 423
3 427 423 426
3 427 424 423
3 421 426 415
3 421 427 426
3 422 429 428
3 430 428 429
3 430 429 431
3 422 425 429
3 399 430 431
3 399 431 401
3 432 434 433
3 432 435 434
3 436 435 432
3 436 437 435
3 438 437 436
3 438 439 437
3 440 442 441
3 440 443 442
3 443 444 442
3 443 445 444
3 443 446 445
3 445 446 447
3 443 448 446
3 440 448 443
3 440 449 448
3 450 449 440
3 450 451 449
3 452 450 440
3 452 440 441
3 453 450 452
3 453 454 450
3 454 451 450
3 454 455 451
3 454 456 455
3 452 457 453
3 452 444 457
3 445 457 444
3 457 445 458
3 458 445 447
3 447 459 458
3 447 460 459
3 453 461 454
3 453 462 461
3 419 418 463
3 398 402 397
3 398 400 402
3 452 442 444
3 452 441 442
3 405 413 404
3 405 418 413
3 464 466 465
3 464 467 466
3 467 468 466
3 467 469 468
3 464 469 467
3 466 470 465
3 466 468 470
3 465 470 471
3 465 471 472
3 472 471 473
3 472 473 474
3 475 472 474
3 475 465 472
3 474 476 475
3 474 473 476
3 464 465 477
3 477 465 475
3 477 478 464
3 478 479 464
3 477 480 478
3 481 480 477
3 481 477 482
3 481 482 483
3 481 483 484
3 485 484 483
3 485 486 484
3 485 487 486
3 485 488 487
3 485 489 488
3 488 489 490
3 488 490 491
3 492 488 491
3 490 492 491
3 488 492 493
3 488 493 487
3 490 494 492
3 489 494 490
3 489 495 494
3 489 485 496
3 489 496 497
3 496 498 497
3 496 499 498
3 489 497 500
3 495 489 500
3 495 500 501
3 501 497 498
3 501 500 497
3 496 502 499
3 496 503 502
3 504 502 503
3 504 505 502
3 475 505 504
3 475 476 505
3 506 508 507
3 506 509 508
3 510 506 507
3 510 507 511
3 512 510 511
3 512 511 513
3 514 516 515
3 514 517 516
3 515 516 518
3 515 518 519
3 515 519 520
3 515 520 521
3 514 515 521
3 514 521 522
3 523 514 522
3 523 522 524
3 525 523 524
3 526 514 523
3 526 517 514
3 527 523 525
3 527 526 523
3 526 516 517
3 526 518 516
3 526 528 518
3 526 527 528
3 518 529 519
3 519 529 520
3 520 529 530
3 520 530 531
3 527 525 532
3 527 532 533
3 525 524 534
3 525 534 535
3 529 537 536
3 529 538 537
3 529 518 538
3 538 518 528
3 493 492 539
3 479 487 493
3 479 478 487
3 464 479 469
3 540 542 541
3 540 543 542
3 543 544 542
3 543 545 544
3 546 540 541
3 546 541 547
3 548 550 549
3 548 551 550
3 551 552 550
3 551 553 552
3 554 551 548
3 554 548 555
3 554 555 556
3 554 556 557
3 558 554 557
3 558 557 559
3 560 562 561
3 560 563 562
3 564 566 565
3 564 567 566
3 568 567 564
3 564 569 568
3 564 570 569
3 568 571 567
3 568 572 571
3 568 573 572
3 567 571 574
3 571 575 574
3 571 576 575
3 572 576 571
3 568 577 573
3 573 577 578
3 578 572 573
3 578 577 579
3 578 579 580
3 577 581 579
3 577 582 581
3 568 582 577
3 568 569 582
3 583 578 580
3 583 580 584
3 575 576 585
3 585 576 586
3 585 586 587
3 588 585 587
3 588 587 589
3 590 588 589
3 590 589 591
3 576 591 586
3 576 590 591
3 592 588 590
3 592 590 593
3 593 590 572
3 593 572 594
3 595 592 593
3 595 593 596
3 585 588 597
3 585 597 598
3 588 599 597
3 588 592 599
3 592 600 599
3 592 601 600
3 602 594 572
3 578 602 572
3 596 593 603
3 596 603 604
3 593 605 603
3 593 594 605
3 597 606 598
3 597 607 606
3 608 607 597
3 599 608 597
3 608 609 607
3 598 606 610
3 598 610 611
3 611 609 608
3 611 610 609
3 599 612 608
3 612 613 608
3 613 611 608
3 612 614 613
3 615 613 614
3 616 613 615
3 616 617 613
3 618 613 617
3 618 619 613
3 613 619 611
3 618 566 619
3 618 565 566
3 565 618 620
3 565 620 621
3 619 622 611
3 619 623 622
3 566 623 619
3 617 616 624
3 618 617 624
3 616 625 624
3 616 626 625
3 624 625 627
3 624 627 628
3 618 628 620
3 618 624 628
3 629 626 616
3 629 630 626
3 566 631 623
3 567 631 566
3 567 632 631
3 632 633 631
3 632 634 633
3 567 574 632
3 622 598 611
3 575 598 622
3 575 585 598
3 635 569 570
3 635 636 569
3 569 636 637
3 637 636 638
3 637 638 639
3 640 637 639
3 640 639 641
3 642 637 640
3 569 637 642
3 642 640 643
3 583 642 643
3 583 582 642
3 582 569 642
3 635 570 621
3 635 621 644
3 636 644 638
3 636 635 644
3 570 565 621
3 570 564 565
3 582 583 584
3 582 584 581
3 644 620 638
3 644 621 620
3 620 639 638
3 645 641 639
3 620 645 639
3 645 646 641
3 629 646 645
3 629 645 628
3 628 645 620
3 628 630 629
3 628 627 630
3 647 649 648
3 647 650 649
3 647 648 651
3 647 651 652
3 653 652 651
3 653 654 652
3 655 654 653
3 655 656 654
3 655 653 657
3 654 656 658
3 657 653 659
3 653 660 659
3 661 663 662
3 661 664 663
3 592 665 601
3 592 595 665
3 665 595 666
3 665 666 667
3 599 667 666
3 599 600 667
3 668 670 669
3 668 671 670
3 672 674 673
3 672 675 674
3 675 672 676
3 675 676 677
3 674 678 673
3 674 679 678
3 680 682 681
3 680 683 682
3 684 686 685
3 684 687 686
3 602 604 688
3 602 596 604
3 594 602 688
3 594 688 605
3 572 590 576
3 689 691 690
3 689 692 691
3 690 691 693
3 690 693 694
3 695 692 689
3 695 696 692
3 697 699 698
3 697 700 699
3 698 699 701
3 698 701 702
3 703 697 698
3 703 704 697
3 703 705 704
3 703 706 705
3 707 706 703
3 707 708 706
3 709 711 710
3 709 712 711
3 713 715 714
3 713 716 715
3 666 612 599
3 666 717 612
3 717 718 612
3 717 719 718
3 612 718 720
3 612 720 614
3 721 723 722
3 721 724 723
3 725 727 726
3 725 728 727
3 615 719 717
3 615 729 719
3 614 729 615
3 614 720 729
3 447 731 730
3 447 446 731
