ply
format ascii 1.0
element vertex 732
property float x
property float y
property float z
property uchar red
property uchar green
property uchar blue
element face 900
property list uchar int vertex_index
end_header
-0.40955 0.00649 1.7906 168 151 129
-0.58618 0.00649 1.7906 168 151 129
-0.58618 0.15487 1.69478 168 151 129
-0.40955 0.15487 1.69478 168 151 129
-0.37743 -0.04046 1.7771 168 151 129
-0.6183 -0.04046 1.7771 168 151 129
-0.37743 -0.26763 1.42531 168 151 129
-0.6183 -0.26763 1.42531 168 151 129
-0.6183 0.16188 1.64644 168 151 129
-0.37743 0.16188 1.64644 168 151 129
-0.6183 -0.16733 1.13663 168 151 129
-0.37743 -0.16733 1.13663 168 151 129
-0.6183 -0.22418 1.12366 168 151 129
-0.37743 -0.22418 1.12366 168 151 129
-0.6183 -0.55591 1.31888 168 151 129
-0.37743 -0.55591 1.31888 168 151 129
-0.6183 -0.43123 1.51197 168 151 129
-0.37743 -0.43123 1.51197 168 151 129
-0.6183 -0.26763 1.42531 174 156 133
-0.37743 -0.26763 1.42531 174 156 133
-0.37743 -0.43123 1.51197 174 156 133
-0.6183 -0.43123 1.51197 174 156 133
-0.37743 -0.55591 1.31888 205 105 89
-0.6183 -0.55591 1.31888 205 105 89
-0.6183 -0.648 1.37835 205 105 89
-0.37743 -0.648 1.37835 205 105 89
-0.6183 -0.52332 1.57143 205 105 89
-0.6183 -0.43123 1.51197 205 105 89
-0.37743 -0.43123 1.51197 205 105 89
-0.37743 -0.52332 1.57143 205 105 89
-0.66202 -0.71101 1.28077 205 105 89
-0.33398 -0.71101 1.28077 205 105 89
-0.66202 -0.4603 1.66901 205 105 89
-0.33398 -0.4603 1.66901 205 105 89
-0.33398 -0.87209 1.3848 205 105 89
-0.33398 -0.7378 1.59276 205 105 89
-0.33398 -0.65052 1.5364 205 105 89
-0.22323 -0.65052 1.5364 205 105 89
-0.33398 -0.53411 1.71667 205 105 89
-0.22323 -0.53411 1.71667 205 105 89
-0.22323 -0.7378 1.59276 205 105 89
-0.22323 -0.62139 1.77303 205 105 89
-0.17195 -0.62139 1.77303 205 105 89
-0.17195 -0.87209 1.3848 205 105 89
-0.17195 -1.07387 1.5151 205 105 89
-0.17195 -0.82317 1.90333 205 105 89
-0.66202 -1.07402 1.51519 205 105 89
-0.21113 -1.08054 1.5699 205 105 89
-0.6252 -1.08063 1.56996 205 105 89
-0.66202 -0.82332 1.90343 205 105 89
-0.6252 -0.87595 1.88692 205 105 89
-0.21113 -0.87586 1.88686 205 105 89
-0.6183 -0.43123 1.51197 213 109 93
-0.37743 -0.43123 1.51197 213 109 93
-0.37743 -0.52332 1.57143 213 109 93
-0.6183 -0.52332 1.57143 213 109 93
-0.66202 -0.4603 1.66901 213 109 93
-0.33398 -0.4603 1.66901 213 109 93
-0.33398 -0.53411 1.71667 213 109 93
-0.33398 -0.62139 1.77303 213 109 93
-0.22323 -0.53411 1.71667 213 109 93
-0.22323 -0.62139 1.77303 213 109 93
-0.66202 -0.82332 1.90343 213 109 93
-0.17195 -0.82317 1.90333 213 109 93
-0.21113 -0.87586 1.88686 213 109 93
-0.6252 -0.87595 1.88692 213 109 93
-0.17195 -0.62139 1.77303 213 109 93
0.27496 -0.33663 1.90968 201 194 217
-0.27496 -0.33663 1.90968 201 194 217
-0.33663 -0.28836 1.90968 201 194 217
0.33663 -0.28836 1.90968 201 194 217
0.31096 -0.38071 1.8496 201 194 217
0.38071 -0.32612 1.8496 201 194 217
0.38071 -0.32612 1.35277 201 194 217
0.31096 -0.38071 1.35277 201 194 217
0.33663 0.28836 1.90968 201 194 217
0.38071 0.32612 1.8496 201 194 217
0.38071 0.32612 1.35277 201 194 217
-0.33663 0.28836 1.90968 201 194 217
-0.31096 -0.38071 1.8496 201 194 217
-0.38071 -0.32612 1.8496 201 194 217
-0.38071 -0.32612 1.35277 201 194 217
-0.31096 -0.38071 1.35277 201 194 217
-0.38071 0.32612 1.8496 201 194 217
-0.27496 0.33663 1.90968 201 194 217
0.27496 0.33663 1.90968 201 194 217
-0.31096 0.38071 1.8496 201 194 217
0.31096 0.38071 1.8496 201 194 217
-0.31096 0.38071 1.35277 201 194 217
0.31096 0.38071 1.35277 201 194 217
-0.38071 0.32612 1.35277 201 194 217
0.38071 -0.32612 1.21146 65 63 68
0.38071 -0.32612 1.35277 65 63 68
0.38071 0.32612 1.35277 65 63 68
0.38071 0.32612 1.21146 65 63 68
0.31096 0.38071 1.21146 65 63 68
0.31096 0.38071 1.35277 65 63 68
0.31096 -0.38071 1.21146 65 63 68
0.31096 -0.38071 1.35277 65 63 68
-0.31096 -0.38071 1.35277 65 63 68
-0.31096 -0.38071 1.21146 65 63 68
-0.38071 -0.32612 1.35277 65 63 68
-0.38071 -0.32612 1.21146 65 63 68
-0.38071 0.32612 1.35277 65 63 68
-0.38071 0.32612 1.21146 65 63 68
-0.31096 0.38071 1.21146 65 63 68
-0.31096 0.38071 1.35277 65 63 68
0.38093 -0.18677 1.08989 201 194 217
0.38093 -0.32631 1.08989 201 194 217
0.38071 -0.32612 1.21146 201 194 217
0.31122 -0.38068 1.08989 201 194 217
0.31096 -0.38071 1.21146 201 194 217
0.31182 -0.38062 0.81431 201 194 217
0.38142 -0.32676 0.81431 201 194 217
0.20615 -0.38062 0.81431 201 194 217
0.20571 -0.38068 1.08989 201 194 217
0.38142 -0.18715 0.81431 201 194 217
0.38093 -0.12368 1.08989 201 194 217
0.14604 -0.38068 1.08989 201 194 217
-0.14604 -0.38068 1.08989 201 194 217
0.14634 -0.38062 0.81431 201 194 217
-0.14634 -0.38062 0.81431 201 194 217
-0.31096 -0.38071 1.21146 201 194 217
-0.20571 -0.38068 1.08989 201 194 217
-0.31122 -0.38068 1.08989 201 194 217
-0.38071 -0.32612 1.21146 201 194 217
-0.38093 -0.32631 1.08989 201 194 217
-0.38093 -0.18677 1.08989 201 194 217
-0.31182 -0.38062 0.81431 201 194 217
-0.38142 -0.32676 0.81431 201 194 217
-0.20615 -0.38062 0.81431 201 194 217
-0.38142 -0.18715 0.81431 201 194 217
-0.38093 -0.12368 1.08989 201 194 217
0.38142 0.12916 0.81431 201 194 217
0.38142 -0.124 0.81431 201 194 217
0.38093 0.12941 1.08989 201 194 217
0.38071 0.32612 1.21146 201 194 217
0.38093 0.19163 1.08989 201 194 217
0.38093 0.32603 1.08989 201 194 217
0.31096 0.38071 1.21146 201 194 217
0.31122 0.38048 1.08989 201 194 217
0.22347 0.38048 1.08989 201 194 217
0.38142 0.19141 0.81431 201 194 217
0.38142 0.32585 0.81431 201 194 217
0.31182 0.37996 0.81431 201 194 217
0.22377 0.37996 0.81431 201 194 217
0.15701 0.38048 1.08989 201 194 217
-0.15701 0.38048 1.08989 201 194 217
0.15716 0.37996 0.81431 201 194 217
-0.15716 0.37996 0.81431 201 194 217
-0.31096 0.38071 1.21146 201 194 217
-0.22347 0.38048 1.08989 201 194 217
-0.31122 0.38048 1.08989 201 194 217
-0.38093 0.32603 1.08989 201 194 217
-0.38071 0.32612 1.21146 201 194 217
-0.38142 0.32585 0.81431 201 194 217
-0.38142 0.19141 0.81431 201 194 217
-0.38093 0.19163 1.08989 201 194 217
-0.31182 0.37996 0.81431 201 194 217
-0.38093 0.12941 1.08989 201 194 217
-0.38142 0.12916 0.81431 201 194 217
-0.38142 -0.124 0.81431 201 194 217
-0.22377 0.37996 0.81431 201 194 217
0.20615 -0.38062 0.81431 187 180 202
0.14634 -0.38062 0.81431 187 180 202
0.14604 -0.38068 1.08989 187 180 202
0.20571 -0.38068 1.08989 187 180 202
0.2751 -0.31858 0.81426 187 180 202
0.31182 -0.38062 0.81431 187 180 202
0.38142 -0.32676 0.81431 187 180 202
0.3192 -0.28274 0.8142 187 180 202
0.38142 -0.18715 0.81431 187 180 202
0.38142 -0.124 0.81431 187 180 202
-0.14634 -0.38062 0.81431 187 180 202
-0.2751 -0.31858 0.81426 187 180 202
-0.20615 -0.38062 0.81431 187 180 202
-0.14604 -0.38068 1.08989 187 180 202
-0.20571 -0.38068 1.08989 187 180 202
-0.31182 -0.38062 0.81431 187 180 202
-0.38142 -0.32676 0.81431 187 180 202
-0.3192 -0.28274 0.8142 187 180 202
-0.38142 -0.18715 0.81431 187 180 202
-0.38142 -0.124 0.81431 187 180 202
0.38093 -0.18677 1.08989 187 180 202
0.38093 -0.12368 1.08989 187 180 202
0.38142 0.12916 0.81431 187 180 202
0.31934 0.28232 0.81424 187 180 202
0.38142 0.19141 0.81431 187 180 202
0.38093 0.12941 1.08989 187 180 202
0.38093 0.19163 1.08989 187 180 202
0.38142 0.32585 0.81431 187 180 202
0.31182 0.37996 0.81431 187 180 202
0.27505 0.31806 0.81436 187 180 202
0.31913 -0.28254 1.01952 187 180 202
0.27518 -0.31832 1.01958 187 180 202
-0.27518 -0.31832 1.01958 187 180 202
0.31947 0.2821 1.01957 187 180 202
0.27532 0.31797 1.01968 187 180 202
-0.27532 0.31797 1.01968 187 180 202
-0.31913 -0.28254 1.01952 187 180 202
-0.31934 0.28232 0.81424 187 180 202
-0.38142 0.12916 0.81431 187 180 202
-0.38142 0.19141 0.81431 187 180 202
-0.38093 0.12941 1.08989 187 180 202
-0.38093 0.19163 1.08989 187 180 202
-0.38142 0.32585 0.81431 187 180 202
-0.31182 0.37996 0.81431 187 180 202
-0.27505 0.31806 0.81436 187 180 202
-0.31947 0.2821 1.01957 187 180 202
-0.38093 -0.12368 1.08989 187 180 202
-0.38093 -0.18677 1.08989 187 180 202
0.15716 0.37996 0.81431 187 180 202
0.22377 0.37996 0.81431 187 180 202
0.22347 0.38048 1.08989 187 180 202
0.15701 0.38048 1.08989 187 180 202
-0.15716 0.37996 0.81431 187 180 202
-0.22377 0.37996 0.81431 187 180 202
-0.15701 0.38048 1.08989 187 180 202
-0.22347 0.38048 1.08989 187 180 202
0.40955 0.00649 1.7906 168 151 129
0.40955 0.15487 1.69478 168 151 129
0.58618 0.15487 1.69478 168 151 129
0.58618 0.00649 1.7906 168 151 129
0.37743 -0.04046 1.7771 168 151 129
0.6183 -0.04046 1.7771 168 151 129
0.37743 -0.26763 1.42531 168 151 129
0.6183 -0.26763 1.42531 168 151 129
0.6183 0.16188 1.64644 168 151 129
0.37743 0.16188 1.64644 168 151 129
0.37743 -0.16733 1.13663 168 151 129
0.6183 -0.16733 1.13663 168 151 129
0.6183 -0.22418 1.12366 168 151 129
0.37743 -0.22418 1.12366 168 151 129
0.6183 -0.55591 1.31888 168 151 129
0.37743 -0.55591 1.31888 168 151 129
0.6183 -0.43123 1.51197 168 151 129
0.37743 -0.43123 1.51197 168 151 129
0.6183 -0.26763 1.42531 174 156 133
0.6183 -0.43123 1.51197 174 156 133
0.37743 -0.43123 1.51197 174 156 133
0.37743 -0.26763 1.42531 174 156 133
0.37743 -0.55591 1.31888 205 105 89
0.37743 -0.648 1.37835 205 105 89
0.6183 -0.648 1.37835 205 105 89
0.6183 -0.55591 1.31888 205 105 89
0.6183 -0.52332 1.57143 205 105 89
0.6183 -0.43123 1.51197 205 105 89
0.37743 -0.43123 1.51197 205 105 89
0.37743 -0.52332 1.57143 205 105 89
0.66202 -0.71101 1.28077 205 105 89
0.33398 -0.71101 1.28077 205 105 89
0.66202 -0.4603 1.66901 205 105 89
0.33398 -0.4603 1.66901 205 105 89
0.33398 -0.87209 1.3848 205 105 89
0.33398 -0.7378 1.59276 205 105 89
0.33398 -0.65052 1.5364 205 105 89
0.22323 -0.65052 1.5364 205 105 89
0.33398 -0.53411 1.71667 205 105 89
0.22323 -0.53411 1.71667 205 105 89
0.22323 -0.7378 1.59276 205 105 89
0.22323 -0.62139 1.77303 205 105 89
0.17195 -0.62139 1.77303 205 105 89
0.17195 -0.87209 1.3848 205 105 89
0.17195 -1.07387 1.5151 205 105 89
0.17195 -0.82317 1.90333 205 105 89
0.66202 -1.07402 1.51519 205 105 89
0.21113 -1.08054 1.5699 205 105 89
0.6252 -1.08063 1.56996 205 105 89
0.66202 -0.82332 1.90343 205 105 89
0.6252 -0.87595 1.88692 205 105 89
0.21113 -0.87586 1.88686 205 105 89
0.6183 -0.43123 1.51197 213 109 93
0.6183 -0.52332 1.57143 213 109 93
0.37743 -0.52332 1.57143 213 109 93
0.37743 -0.43123 1.51197 213 109 93
0.66202 -0.4603 1.66901 213 109 93
0.33398 -0.53411 1.71667 213 109 93
0.33398 -0.4603 1.66901 213 109 93
0.33398 -0.62139 1.77303 213 109 93
0.22323 -0.53411 1.71667 213 109 93
0.22323 -0.62139 1.77303 213 109 93
0.66202 -0.82332 1.90343 213 109 93
0.17195 -0.82317 1.90333 213 109 93
0.21113 -0.87586 1.88686 213 109 93
0.6252 -0.87595 1.88692 213 109 93
0.17195 -0.62139 1.77303 213 109 93
0.09004 -0.6259 0.0048 201 194 217
0.09004 -0.6259 0.23034 201 194 217
0.26338 -0.62621 0.23034 201 194 217
0.26338 -0.62621 0.0048 201 194 217
0.05397 -0.57677 0.0048 201 194 217
0.29963 -0.5772 0.0048 201 194 217
0.29963 -0.5772 0.23034 201 194 217
0.05397 -0.57677 0.23034 201 194 217
0.30035 -0.34251 0.23034 201 194 217
0.30078 -0.09686 0.0048 201 194 217
0.05512 -0.09642 0.0048 201 194 217
0.30078 -0.09686 0.23034 201 194 217
0.05469 -0.34208 0.23034 201 194 217
0.05512 -0.09642 0.23034 201 194 217
0.08677 -0.05559 0.23027 201 194 217
0.08676 -0.05559 0.0048 201 194 217
0.26929 -0.05591 0.0048 201 194 217
0.26929 -0.05591 0.23027 201 194 217
0.30072 -0.34225 0.30844 201 194 217
0.05506 -0.34182 0.30844 201 194 217
0.08736 0.12936 1.08881 168 151 129
0.08707 -0.05145 0.58836 168 151 129
0.26959 -0.05178 0.58834 168 151 129
0.26989 0.12902 1.08877 168 151 129
0.26938 -0.05487 0.55637 168 151 129
0.08686 -0.05454 0.55638 168 151 129
0.26929 -0.05591 0.23027 168 151 129
0.08677 -0.05559 0.23027 168 151 129
0.30143 0.08522 1.08839 168 151 129
0.30108 -0.09139 0.59752 168 151 129
0.05543 -0.09096 0.59752 168 151 129
0.05577 0.08566 1.08839 168 151 129
0.05534 -0.16 1.08839 168 151 129
0.0538 -0.32927 0.6484 168 151 129
0.05521 -0.09525 0.5587 168 151 129
0.05474 -0.34242 0.53364 168 151 129
0.05512 -0.09642 0.23034 168 151 129
0.05506 -0.34182 0.30844 168 151 129
0.05469 -0.34208 0.23034 168 151 129
0.30087 -0.09569 0.5587 168 151 129
0.30078 -0.09686 0.23034 168 151 129
0.30072 -0.34225 0.30844 168 151 129
0.3004 -0.34286 0.53364 168 151 129
0.30035 -0.34251 0.23034 168 151 129
0.29945 -0.32971 0.6484 168 151 129
0.301 -0.16044 1.08839 168 151 129
0.30035 -0.34251 0.23034 206 199 222
0.29963 -0.5772 0.23034 206 199 222
0.05397 -0.57677 0.23034 206 199 222
0.05469 -0.34208 0.23034 206 199 222
0.26338 -0.62621 0.23034 206 199 222
0.09004 -0.6259 0.23034 206 199 222
-0.09004 -0.10915 0.0048 201 194 217
-0.26338 -0.10946 0.0048 201 194 217
-0.26338 -0.10946 0.23034 201 194 217
-0.09004 -0.10915 0.23034 201 194 217
-0.05397 -0.06002 0.0048 201 194 217
-0.29963 -0.06046 0.0048 201 194 217
-0.29963 -0.06046 0.23034 201 194 217
-0.05397 -0.06002 0.23034 201 194 217
-0.30035 0.17423 0.23034 201 194 217
-0.30078 0.41989 0.0048 201 194 217
-0.05512 0.42032 0.0048 201 194 217
-0.30078 0.41989 0.23034 201 194 217
-0.05469 0.17467 0.23034 201 194 217
-0.05512 0.42032 0.23034 201 194 217
-0.08677 0.46116 0.23027 201 194 217
-0.08676 0.46116 0.0048 201 194 217
-0.26929 0.46084 0.0048 201 194 217
-0.26929 0.46084 0.23027 201 194 217
-0.30072 0.1257 0.30844 201 194 217
-0.05506 0.12614 0.30844 201 194 217
-0.08736 0.19239 1.08881 168 151 129
-0.26989 0.19205 1.08877 168 151 129
-0.26959 0.25614 0.64718 168 151 129
-0.08707 0.25643 0.64733 168 151 129
-0.26938 0.27551 0.59388 168 151 129
-0.08686 0.2758 0.59402 168 151 129
-0.26929 0.46084 0.23027 168 151 129
-0.08677 0.46116 0.23027 168 151 129
-0.30143 0.14826 1.08839 168 151 129
-0.30108 0.21619 0.63961 168 151 129
-0.05543 0.21659 0.63979 168 151 129
-0.05577 0.14869 1.08839 168 151 129
-0.05534 -0.09697 1.08839 168 151 129
-0.0538 -0.01797 0.59026 168 151 129
-0.05521 0.23761 0.57973 168 151 129
-0.05474 0.01627 0.5014 168 151 129
-0.05512 0.42032 0.23034 168 151 129
-0.05506 0.12614 0.30844 168 151 129
-0.05469 0.17467 0.23034 168 151 129
-0.30087 0.23722 0.57955 168 151 129
-0.30078 0.41989 0.23034 168 151 129
-0.30072 0.1257 0.30844 168 151 129
-0.3004 0.01587 0.50122 168 151 129
-0.30035 0.17423 0.23034 168 151 129
-0.29945 -0.01836 0.59008 168 151 129
-0.301 -0.0974 1.08839 168 151 129
-0.30035 0.17423 0.23034 206 199 222
-0.05469 0.17467 0.23034 206 199 222
-0.05397 -0.06002 0.23034 206 199 222
-0.29963 -0.06046 0.23034 206 199 222
-0.09004 -0.10915 0.23034 206 199 222
-0.26338 -0.10946 0.23034 206 199 222
-0.33881 -0.25535 1.60582 168 151 129
-0.59452 -0.25535 1.60582 168 151 129
-0.62261 -0.25535 1.62815 168 151 129
-0.62261 -0.25535 1.7286 168 151 129
-0.62261 -0.16665 1.62815 168 151 129
-0.59452 -0.16665 1.60582 168 151 129
-0.62261 -0.16665 1.7286 168 151 129
-0.80592 -0.16665 1.7286 168 151 129
-0.80592 -0.25535 1.7286 168 151 129
-0.82831 -0.25535 1.87979 168 151 129
-0.82831 -0.25535 1.74748 168 151 129
-0.82831 -0.16665 1.79788 168 151 129
-0.82831 -0.16665 1.74748 168 151 129
-0.33881 -0.25535 1.87979 168 151 129
-0.33881 -0.16665 1.60582 168 151 129
-0.38682 -0.16665 1.60582 168 151 129
-0.33881 -0.16665 1.79788 168 151 129
-0.33881 -0.14356 1.82278 168 151 129
-0.33881 -0.22886 1.90856 168 151 129
-0.33881 0.22655 1.90856 168 151 129
-0.33881 0.14125 1.82278 168 151 129
-0.33881 0.25687 1.87979 168 151 129
-0.33881 0.16434 1.79788 168 151 129
-0.33881 0.16434 1.60582 168 151 129
-0.33881 0.25687 1.60582 168 151 129
-0.62261 0.25687 1.7286 168 151 129
-0.62261 0.25687 1.62815 168 151 129
-0.59452 0.25687 1.60582 168 151 129
-0.38682 0.16434 1.60582 168 151 129
-0.59452 0.16434 1.60582 168 151 129
-0.62261 0.16434 1.62815 168 151 129
-0.62261 0.16434 1.7286 168 151 129
-0.82831 0.25687 1.87979 168 151 129
-0.82831 0.25687 1.74748 168 151 129
-0.82831 0.16434 1.74748 168 151 129
-0.82831 0.16434 1.79788 168 151 129
-0.80592 0.25687 1.7286 168 151 129
-0.80592 0.16434 1.7286 168 151 129
-0.82831 0.22655 1.90856 168 151 129
-0.82831 0.14125 1.82278 168 151 129
-0.82831 -0.22886 1.90856 168 151 129
-0.82831 -0.14356 1.82278 168 151 129
-0.33881 -0.22886 1.90856 174 156 133
-0.33881 -0.25535 1.87979 174 156 133
-0.82831 -0.25535 1.87979 174 156 133
-0.82831 -0.22886 1.90856 174 156 133
-0.33881 0.22655 1.90856 174 156 133
-0.82831 0.22655 1.90856 174 156 133
-0.33881 0.25687 1.87979 174 156 133
-0.82831 0.25687 1.87979 174 156 133
-0.62261 -0.14356 1.82278 161 145 124
-0.38682 -0.14356 1.82278 161 145 124
-0.38682 0.14125 1.82278 161 145 124
-0.62261 0.14125 1.82278 161 145 124
-0.38682 0.16434 1.79788 161 145 124
-0.62261 0.16434 1.79788 161 145 124
-0.82831 0.16434 1.79788 161 145 124
-0.62261 0.16434 1.7286 161 145 124
-0.80592 0.16434 1.7286 161 145 124
-0.82831 0.16434 1.74748 161 145 124
-0.82831 0.14125 1.82278 161 145 124
-0.82831 -0.14356 1.82278 161 145 124
-0.62261 -0.16665 1.79788 161 145 124
-0.82831 -0.16665 1.79788 161 145 124
-0.80592 -0.16665 1.7286 161 145 124
-0.62261 -0.16665 1.7286 161 145 124
-0.82831 -0.16665 1.74748 161 145 124
-0.38682 -0.16665 1.79788 161 145 124
-0.38682 -0.16665 1.60582 161 145 124
-0.38682 0.16434 1.60582 161 145 124
-0.46034 0.16434 1.60582 161 145 124
-0.59452 0.16434 1.60582 161 145 124
-0.62261 0.16434 1.62815 161 145 124
-0.62261 -0.16665 1.62815 161 145 124
-0.59452 -0.16665 1.60582 161 145 124
-0.46034 0.16434 1.60582 168 151 129
0.33881 -0.25535 1.60582 168 151 129
0.62261 -0.25535 1.7286 168 151 129
0.62261 -0.25535 1.62815 168 151 129
0.59452 -0.25535 1.60582 168 151 129
0.62261 -0.16665 1.62815 168 151 129
0.59452 -0.16665 1.60582 168 151 129
0.62261 -0.16665 1.7286 168 151 129
0.80592 -0.16665 1.7286 168 151 129
0.80592 -0.25535 1.7286 168 151 129
0.82831 -0.25535 1.87979 168 151 129
0.82831 -0.25535 1.74748 168 151 129
0.82831 -0.16665 1.79788 168 151 129
0.82831 -0.16665 1.74748 168 151 129
0.33881 -0.25535 1.87979 168 151 129
0.33881 -0.16665 1.60582 168 151 129
0.38682 -0.16665 1.60582 168 151 129
0.33881 -0.16665 1.79788 168 151 129
0.33881 -0.14356 1.82278 168 151 129
0.33881 -0.22886 1.90856 168 151 129
0.33881 0.22655 1.90856 168 151 129
0.33881 0.14125 1.82278 168 151 129
0.33881 0.25687 1.87979 168 151 129
0.33881 0.16434 1.79788 168 151 129
0.33881 0.16434 1.60582 168 151 129
0.33881 0.25687 1.60582 168 151 129
0.62261 0.25687 1.7286 168 151 129
0.62261 0.25687 1.62815 168 151 129
0.59452 0.25687 1.60582 168 151 129
0.59452 0.16434 1.60582 168 151 129
0.38682 0.16434 1.60582 168 151 129
0.62261 0.16434 1.62815 168 151 129
0.62261 0.16434 1.7286 168 151 129
0.82831 0.25687 1.87979 168 151 129
0.82831 0.25687 1.74748 168 151 129
0.82831 0.16434 1.74748 168 151 129
0.82831 0.16434 1.79788 168 151 129
0.80592 0.25687 1.7286 168 151 129
0.80592 0.16434 1.7286 168 151 129
0.82831 0.14125 1.82278 168 151 129
0.82831 0.22655 1.90856 168 151 129
0.82831 -0.22886 1.90856 168 151 129
0.82831 -0.14356 1.82278 168 151 129
0.33881 -0.22886 1.90856 174 156 133
0.82831 -0.22886 1.90856 174 156 133
0.82831 -0.25535 1.87979 174 156 133
0.33881 -0.25535 1.87979 174 156 133
0.33881 0.22655 1.90856 174 156 133
0.82831 0.22655 1.90856 174 156 133
0.33881 0.25687 1.87979 174 156 133
0.82831 0.25687 1.87979 174 156 133
0.62261 -0.14356 1.82278 161 145 124
0.62261 0.14125 1.82278 161 145 124
0.38682 0.14125 1.82278 161 145 124
0.38682 -0.14356 1.82278 161 145 124
0.38682 0.16434 1.79788 161 145 124
0.62261 0.16434 1.79788 161 145 124
0.82831 0.16434 1.79788 161 145 124
0.82831 0.16434 1.74748 161 145 124
0.80592 0.16434 1.7286 161 145 124
0.62261 0.16434 1.7286 161 145 124
0.82831 0.14125 1.82278 161 145 124
0.82831 -0.14356 1.82278 161 145 124
0.62261 -0.16665 1.79788 161 145 124
0.82831 -0.16665 1.79788 161 145 124
0.80592 -0.16665 1.7286 161 145 124
0.82831 -0.16665 1.74748 161 145 124
0.62261 -0.16665 1.7286 161 145 124
0.38682 -0.16665 1.79788 161 145 124
0.38682 -0.16665 1.60582 161 145 124
0.38682 0.16434 1.60582 161 145 124
0.46034 0.16434 1.60582 161 145 124
0.59452 0.16434 1.60582 161 145 124
0.62261 0.16434 1.62815 161 145 124
0.62261 -0.16665 1.62815 161 145 124
0.59452 -0.16665 1.60582 161 145 124
0.46034 0.16434 1.60582 168 151 129
0.10314 -0.5355 2.08485 36 65 81
0.10314 -0.5355 2.12859 36 65 81
0.20569 -0.5355 2.12859 36 65 81
0.20569 -0.5355 2.08485 36 65 81
0.20569 -0.52174 2.12859 36 65 81
0.20569 -0.52174 2.08485 36 65 81
0.10314 -0.52174 2.08485 36 65 81
0.10314 -0.52174 2.12859 36 65 81
0.16493 -0.5355 2.18375 20 36 45
0.16493 -0.5355 2.25688 20 36 45
0.20569 -0.5355 2.25688 20 36 45
0.20569 -0.5355 2.12859 20 36 45
0.20569 -0.52174 2.25688 20 36 45
0.20569 -0.52174 2.12859 20 36 45
0.10314 -0.5355 2.12859 20 36 45
0.12814 -0.5355 2.18375 20 36 45
0.12814 -0.5355 2.25688 20 36 45
0.10314 -0.5355 2.25688 20 36 45
0.10314 -0.52174 2.12859 20 36 45
0.10314 -0.52174 2.25688 20 36 45
0.12814 -0.5355 2.25688 255 255 255
0.16493 -0.5355 2.25688 255 255 255
0.16493 -0.5355 2.18375 255 255 255
0.12814 -0.5355 2.18375 255 255 255
0.3682 -0.4719 1.87925 168 151 129
-0.3682 -0.4719 1.87925 168 151 129
-0.3265 -0.51137 1.87925 168 151 129
0.3265 -0.51137 1.87925 168 151 129
0.41357 -0.51077 1.92186 168 151 129
0.41357 0.15407 1.92186 168 151 129
0.3682 0.1152 1.87925 168 151 129
0.36356 -0.55674 1.92186 168 151 129
0.36356 -0.55674 2.5127 168 151 129
0.41357 -0.51077 2.5127 168 151 129
0.25012 -0.55674 1.92186 168 151 129
0.25011 -0.55674 2.0023 168 151 129
0.31797 -0.55674 2.09141 168 151 129
0.41357 -0.46973 2.5127 168 151 129
0.36569 -0.46975 2.57247 168 151 129
0.41324 -0.46973 2.79522 168 151 129
0.36642 -0.46973 2.79522 168 151 129
0.41324 -0.3233 2.79522 168 151 129
0.41357 -0.3233 2.5127 168 151 129
0.36569 -0.3233 2.57247 168 151 129
0.36642 -0.3233 2.79522 168 151 129
0.11203 -0.55674 2.09141 168 151 129
0.31797 -0.52547 2.09141 168 151 129
0.11203 -0.52547 2.09141 168 151 129
0.11203 -0.55674 2.20023 168 151 129
0.11203 -0.52547 2.20023 168 151 129
0.31797 -0.55674 2.30524 168 151 129
0.31797 -0.52547 2.30524 168 151 129
0.11892 -0.55674 2.5127 168 151 129
0.17781 -0.55674 2.5127 168 151 129
0.32462 -0.55674 2.5127 168 151 129
0.11892 -0.50886 2.57247 168 151 129
0.17781 -0.50886 2.57247 168 151 129
-0.11203 -0.55674 2.20023 168 151 129
-0.11203 -0.55674 2.09141 168 151 129
-0.25011 -0.55674 2.0023 168 151 129
-0.31797 -0.55674 2.09141 168 151 129
-0.11892 -0.55674 2.5127 168 151 129
-0.11892 -0.5564 2.8918 168 151 129
0.11892 -0.5564 2.8918 168 151 129
0.32445 -0.50886 2.57247 168 151 129
-0.11203 -0.52547 2.09141 168 151 129
-0.11203 -0.52547 2.20023 168 151 129
-0.31797 -0.55674 2.30524 168 151 129
-0.31797 -0.52547 2.30524 168 151 129
-0.31797 -0.52547 2.09141 168 151 129
-0.36356 -0.55674 1.92186 168 151 129
-0.25012 -0.55674 1.92186 168 151 129
-0.17781 -0.55674 2.5127 168 151 129
-0.36356 -0.55674 2.5127 168 151 129
-0.41357 -0.51077 1.92186 168 151 129
-0.41357 -0.51077 2.5127 168 151 129
-0.41357 0.15407 1.92186 168 151 129
-0.3682 0.1152 1.87925 168 151 129
-0.32462 -0.55674 2.5127 168 151 129
-0.41357 -0.46973 2.5127 168 151 129
-0.36569 -0.46975 2.57247 168 151 129
-0.41324 -0.46973 2.79522 168 151 129
-0.36642 -0.46973 2.79522 168 151 129
-0.41324 -0.3233 2.79522 168 151 129
-0.41357 -0.3233 2.5127 168 151 129
-0.36569 -0.3233 2.57247 168 151 129
-0.36642 -0.3233 2.79522 168 151 129
-0.32445 -0.50886 2.57247 168 151 129
-0.32462 -0.55693 2.83768 168 151 129
-0.17781 -0.55693 2.83768 168 151 129
-0.17781 -0.50886 2.57247 168 151 129
-0.11892 -0.50886 2.57247 168 151 129
-0.17781 -0.5091 2.83768 168 151 129
0.30074 0.16801 1.87925 168 151 129
0.3378 0.21338 1.92186 168 151 129
0.3378 0.21338 2.5127 168 151 129
-0.3378 0.21338 1.92186 168 151 129
-0.3378 0.21338 2.5127 168 151 129
0.29869 0.16549 2.57247 168 151 129
-0.29869 0.16549 2.57247 168 151 129
0.41357 0.15407 2.5127 168 151 129
0.36569 0.11305 2.57247 168 151 129
-0.30074 0.16801 1.87925 168 151 129
-0.41357 0.15407 2.5127 168 151 129
-0.36569 0.11305 2.57247 168 151 129
0.36569 0.11305 2.57247 174 156 133
-0.36569 0.11305 2.57247 174 156 133
-0.29869 0.16549 2.57247 174 156 133
0.29869 0.16549 2.57247 174 156 133
-0.36569 -0.3233 2.57247 174 156 133
0.36569 -0.3233 2.57247 174 156 133
-0.36569 -0.46975 2.57247 174 156 133
0.36569 -0.46975 2.57247 174 156 133
0.11892 -0.50886 2.57247 174 156 133
0.17781 -0.50886 2.57247 174 156 133
-0.11892 -0.50886 2.57247 174 156 133
0.32445 -0.50886 2.57247 174 156 133
-0.17781 -0.50886 2.57247 174 156 133
-0.32445 -0.50886 2.57247 174 156 133
0.31797 -0.52547 2.30524 255 255 255
0.31797 -0.52547 2.09141 255 255 255
0.11203 -0.52547 2.09141 255 255 255
0.11203 -0.52547 2.20023 255 255 255
0.11892 -0.50928 2.8918 168 151 129
-0.11892 -0.50928 2.8918 168 151 129
0.36642 -0.46973 2.79522 174 156 133
0.36642 -0.3233 2.79522 174 156 133
0.41324 -0.3233 2.79522 174 156 133
0.41324 -0.46973 2.79522 174 156 133
0.22669 -0.55674 1.97741 139 125 107
-0.22669 -0.55674 1.97741 139 125 107
-0.25011 -0.55674 2.0023 139 125 107
0.25011 -0.55674 2.0023 139 125 107
0.22672 -0.55674 1.92186 139 125 107
0.25012 -0.55674 1.92186 139 125 107
-0.22672 -0.55674 1.92186 139 125 107
-0.25012 -0.55674 1.92186 139 125 107
0.11892 -0.5564 2.8918 174 156 133
-0.11892 -0.5564 2.8918 174 156 133
-0.11892 -0.50928 2.8918 174 156 133
0.11892 -0.50928 2.8918 174 156 133
0.32445 -0.5091 2.83768 174 156 133
0.32462 -0.55693 2.83768 174 156 133
0.17781 -0.55693 2.83768 174 156 133
0.17781 -0.5091 2.83768 174 156 133
0.32445 -0.5091 2.83768 168 151 129
0.17781 -0.5091 2.83768 168 151 129
0.32462 -0.55693 2.83768 168 151 129
0.17781 -0.55693 2.83768 168 151 129
0.22672 -0.55674 1.92186 168 151 129
-0.22672 -0.55674 1.92186 168 151 129
-0.22669 -0.55674 1.97741 168 151 129
0.22669 -0.55674 1.97741 168 151 129
-0.10314 -0.5355 2.08485 36 65 81
-0.20569 -0.5355 2.08485 36 65 81
-0.20569 -0.5355 2.12859 36 65 81
-0.10314 -0.5355 2.12859 36 65 81
-0.20569 -0.52174 2.12859 36 65 81
-0.20569 -0.52174 2.08485 36 65 81
-0.10314 -0.52174 2.08485 36 65 81
-0.10314 -0.52174 2.12859 36 65 81
-0.16493 -0.5355 2.18375 20 36 45
-0.20569 -0.5355 2.12859 20 36 45
-0.20569 -0.5355 2.25688 20 36 45
-0.16493 -0.5355 2.25688 20 36 45
-0.20569 -0.52174 2.25688 20 36 45
-0.20569 -0.52174 2.12859 20 36 45
-0.10314 -0.5355 2.12859 20 36 45
-0.12814 -0.5355 2.18375 20 36 45
-0.12814 -0.5355 2.25688 20 36 45
-0.10314 -0.5355 2.25688 20 36 45
-0.10314 -0.52174 2.12859 20 36 45
-0.10314 -0.52174 2.25688 20 36 45
-0.12814 -0.5355 2.25688 255 255 255
-0.12814 -0.5355 2.18375 255 255 255
-0.16493 -0.5355 2.18375 255 255 255
-0.16493 -0.5355 2.25688 255 255 255
-0.31797 -0.52547 2.30524 255 255 255
-0.11203 -0.52547 2.20023 255 255 255
-0.11203 -0.52547 2.09141 255 255 255
-0.31797 -0.52547 2.09141 255 255 255
-0.36642 -0.46973 2.79522 174 156 133
-0.41324 -0.46973 2.79522 174 156 133
-0.41324 -0.3233 2.79522 174 156 133
-0.36642 -0.3233 2.79522 174 156 133
-0.32445 -0.5091 2.83768 174 156 133
-0.17781 -0.5091 2.83768 174 156 133
-0.17781 -0.55693 2.83768 174 156 133
-0.32462 -0.55693 2.83768 174 156 133
-0.32445 -0.5091 2.83768 168 151 129
3 0 2 1
3 0 3 2
3 4 0 1
3 4 1 5
3 5 1 2
3 6 4 5
3 6 5 7
3 5 2 8
3 8 2 3
3 8 3 9
3 9 0 4
3 9 3 0
3 9 10 8
3 9 11 10
3 12 10 11
3 12 11 13
3 12 7 10
3 7 8 10
3 13 11 6
3 7 5 8
3 11 4 6
3 11 9 4
3 13 14 12
3 13 15 14
3 6 15 13
3 12 16 7
3 12 14 16
3 6 17 15
3 18 20 19
3 18 21 20
3 22 24 23
3 22 25 24
3 23 24 26
3 23 26 27
3 28 25 22
3 28 29 25
3 25 30 24
3 25 31 30
3 29 31 25
3 24 32 26
3 24 30 32
3 26 33 29
3 26 32 33
3 29 33 31
3 30 31 34
3 31 35 34
3 31 36 35
3 37 35 36
3 38 37 36
3 38 39 37
3 37 40 35
3 40 37 39
3 40 39 41
3 42 40 41
3 42 43 40
3 43 35 40
3 43 34 35
3 34 43 44
3 42 44 43
3 42 45 44
3 46 34 44
3 46 44 47
3 46 47 48
3 46 30 34
3 30 46 49
3 30 49 32
3 50 49 46
3 50 46 48
3 50 48 47
3 47 45 51
3 50 47 51
3 47 44 45
3 52 54 53
3 52 55 54
3 56 58 57
3 59 58 56
3 60 58 59
3 60 59 61
3 62 59 56
3 62 63 59
3 64 63 62
3 64 62 65
3 63 61 59
3 63 66 61
3 33 36 31
3 33 38 36
3 67 69 68
3 67 70 69
3 71 70 67
3 71 72 70
3 71 73 72
3 71 74 73
3 72 75 70
3 72 76 75
3 73 76 72
3 73 77 76
3 70 78 69
3 70 75 78
3 79 68 69
3 67 79 71
3 67 68 79
3 79 69 80
3 79 80 81
3 79 81 82
3 71 82 74
3 71 79 82
3 80 69 78
3 80 78 83
3 83 78 84
3 75 84 78
3 75 85 84
3 85 86 84
3 83 84 86
3 85 87 86
3 76 85 75
3 76 87 85
3 87 88 86
3 87 89 88
3 77 87 76
3 77 89 87
3 81 80 83
3 81 83 90
3 90 86 88
3 90 83 86
3 91 93 92
3 91 94 93
3 95 93 94
3 95 96 93
3 92 97 91
3 92 98 97
3 97 98 99
3 97 99 100
3 101 100 99
3 101 102 100
3 102 101 103
3 102 103 104
3 105 104 103
3 105 103 106
3 95 106 96
3 95 105 106
3 107 109 108
3 109 110 108
3 109 111 110
3 108 110 112
3 108 112 113
3 110 114 112
3 110 115 114
3 111 115 110
3 116 108 113
3 116 107 108
3 117 109 107
3 111 118 115
3 111 119 118
3 120 118 119
3 120 119 121
3 111 122 119
3 119 122 123
3 122 124 123
3 125 124 122
3 125 126 124
3 127 126 125
3 126 128 124
3 126 129 128
3 124 130 123
3 124 128 130
3 131 126 127
3 131 129 126
3 132 127 125
3 133 117 134
3 133 135 117
3 136 117 135
3 136 135 137
3 136 137 138
3 139 136 138
3 139 138 140
3 141 139 140
3 138 137 142
3 138 142 143
3 140 138 143
3 140 143 144
3 136 109 117
3 145 140 144
3 145 141 140
3 139 141 146
3 139 146 147
3 148 147 146
3 148 149 147
3 139 147 150
3 150 147 151
3 151 152 150
3 150 152 153
3 150 153 154
3 152 155 153
3 153 155 156
3 153 156 157
3 154 153 157
3 152 158 155
3 154 157 159
3 154 159 132
3 160 132 159
3 160 161 132
3 154 132 125
3 162 152 151
3 162 158 152
3 163 165 164
3 163 166 165
3 167 163 164
3 168 163 167
3 169 168 167
3 169 167 170
3 171 169 170
3 172 171 170
3 167 164 173
3 167 173 174
3 174 173 175
3 175 173 176
3 175 176 177
3 178 174 175
3 179 174 178
3 179 180 174
3 181 180 179
3 182 180 181
3 172 183 171
3 172 184 183
3 185 172 170
3 185 170 186
3 187 185 186
3 187 188 185
3 187 189 188
3 190 187 186
3 191 190 186
3 191 186 192
3 186 170 193
3 170 194 193
3 170 167 194
3 194 167 174
3 194 174 195
3 186 193 196
3 196 193 194
3 197 194 195
3 196 194 197
3 197 195 198
3 180 195 174
3 180 199 195
3 200 199 180
3 201 200 180
3 201 180 182
3 202 200 201
3 202 201 203
3 202 203 204
3 205 200 202
3 206 200 205
3 206 207 200
3 200 208 199
3 208 195 199
3 208 198 195
3 182 210 209
3 182 181 210
3 211 213 212
3 211 214 213
3 212 191 192
3 192 211 212
3 192 215 211
3 192 207 215
3 215 207 216
3 216 207 206
3 197 207 192
3 192 196 197
3 192 186 196
3 197 198 207
3 207 198 208
3 207 208 200
3 215 218 217
3 215 216 218
3 219 221 220
3 219 222 221
3 223 222 219
3 223 224 222
3 224 221 222
3 225 224 223
3 225 226 224
3 224 227 221
3 227 220 221
3 227 228 220
3 228 219 220
3 228 223 219
3 228 230 229
3 228 227 230
3 231 229 230
3 231 232 229
3 231 230 226
3 226 230 227
3 232 225 229
3 226 227 224
3 229 223 228
3 229 225 223
3 232 231 233
3 232 233 234
3 225 232 234
3 231 235 233
3 231 226 235
3 225 234 236
3 237 239 238
3 237 240 239
3 241 243 242
3 241 244 243
3 244 245 243
3 244 246 245
3 247 241 242
3 247 242 248
3 242 243 249
3 242 249 250
3 248 242 250
3 243 251 249
3 243 245 251
3 245 252 251
3 245 248 252
3 248 250 252
3 249 253 250
3 250 253 254
3 250 254 255
3 256 255 254
3 257 255 256
3 257 256 258
3 256 254 259
3 259 258 256
3 259 260 258
3 261 260 259
3 261 259 262
3 262 254 253
3 262 259 254
3 253 263 262
3 261 262 263
3 261 263 264
3 265 263 253
3 265 266 263
3 265 267 266
3 265 253 249
3 249 268 265
3 249 251 268
3 269 265 268
3 269 267 265
3 269 266 267
3 266 264 263
3 266 270 264
3 269 270 266
3 271 273 272
3 271 274 273
3 275 277 276
3 278 275 276
3 279 278 276
3 279 280 278
3 281 275 278
3 281 278 282
3 283 281 282
3 283 284 281
3 282 278 280
3 282 280 285
3 252 255 257
3 252 250 255
3 286 288 287
3 286 289 288
3 290 289 286
3 290 291 289
3 291 288 289
3 291 292 288
3 293 286 287
3 293 290 286
3 294 292 291
3 294 291 295
3 295 291 290
3 295 290 296
3 294 295 297
3 298 296 290
3 298 290 293
3 298 299 296
3 296 299 300
3 296 300 301
3 300 302 301
3 300 303 302
3 297 302 303
3 297 295 302
3 295 301 302
3 295 296 301
3 298 294 304
3 298 304 305
3 306 308 307
3 306 309 308
3 307 308 310
3 307 310 311
3 311 310 312
3 311 312 313
3 314 308 309
3 314 315 308
3 315 310 308
3 316 306 307
3 316 317 306
3 316 318 317
3 316 319 318
3 320 319 316
3 320 307 311
3 320 316 307
3 320 321 319
3 322 321 320
3 322 311 313
3 322 320 311
3 322 323 321
3 322 324 323
3 315 325 310
3 325 312 310
3 325 326 312
3 327 325 328
3 327 326 325
3 323 327 328
3 323 328 321
3 329 326 327
3 328 325 315
3 328 315 330
3 321 328 330
3 330 315 314
3 330 314 331
3 319 330 331
3 321 330 319
3 319 331 318
3 332 334 333
3 332 335 334
3 333 337 336
3 333 334 337
3 338 340 339
3 338 341 340
3 342 338 339
3 342 339 343
3 343 339 340
3 343 340 344
3 345 338 342
3 345 341 338
3 346 343 344
3 346 347 343
3 347 342 343
3 347 348 342
3 346 349 347
3 350 342 348
3 350 345 342
3 350 348 351
3 348 352 351
3 348 353 352
3 352 353 354
3 352 354 355
3 349 355 354
3 349 354 347
3 347 353 348
3 347 354 353
3 350 356 346
3 350 357 356
3 358 360 359
3 358 361 360
3 361 362 360
3 361 363 362
3 363 364 362
3 363 365 364
3 366 359 360
3 366 360 367
3 367 360 362
3 368 361 358
3 368 358 369
3 368 369 370
3 368 370 371
3 372 368 371
3 372 361 368
3 372 363 361
3 372 371 373
3 374 372 373
3 374 363 372
3 374 365 363
3 374 373 375
3 374 375 376
3 367 362 377
3 377 362 364
3 377 364 378
3 379 377 378
3 379 380 377
3 375 380 379
3 375 373 380
3 381 379 378
3 380 367 377
3 380 382 367
3 373 382 380
3 382 366 367
3 382 383 366
3 371 383 382
3 373 371 382
3 371 370 383
3 384 386 385
3 384 387 386
3 387 388 386
3 387 389 388
3 390 392 391
3 390 393 392
3 391 392 394
3 391 394 395
3 390 391 395
3 392 396 394
3 392 393 396
3 393 397 396
3 393 398 397
3 399 398 393
3 399 400 398
3 400 399 401
3 400 401 402
3 390 403 393
3 403 399 393
3 403 390 404
3 404 390 405
3 390 395 405
3 403 404 406
3 407 403 406
3 407 408 403
3 407 409 408
3 407 410 409
3 411 409 410
3 411 410 412
3 411 412 413
3 411 413 414
3 411 414 415
3 414 416 415
3 414 417 416
3 418 417 414
3 414 413 418
3 417 418 419
3 416 417 419
3 416 419 420
3 415 416 420
3 415 420 421
3 415 422 411
3 415 423 422
3 422 423 424
3 422 424 425
3 415 426 423
3 421 426 415
3 421 427 426
3 427 424 423
3 427 423 426
3 422 429 428
3 430 428 429
3 430 429 431
3 422 425 429
3 399 430 431
3 399 431 401
3 432 434 433
3 432 435 434
3 436 435 432
3 436 437 435
3 438 437 436
3 438 439 437
3 440 442 441
3 440 443 442
3 443 444 442
3 443 445 444
3 443 446 445
3 446 447 445
3 447 446 448
3 448 446 449
3 443 450 446
3 440 450 443
3 440 451 450
3 452 451 440
3 452 453 451
3 452 454 453
3 454 452 455
3 453 454 456
3 457 452 440
3 457 440 441
3 458 452 457
3 458 455 452
3 457 459 458
3 457 444 459
3 445 459 444
3 459 445 460
3 460 445 447
3 447 461 460
3 447 462 461
3 458 463 455
3 458 464 463
3 457 442 444
3 457 441 442
3 419 418 465
3 398 402 397
3 398 400 402
3 405 413 404
3 405 418 413
3 466 468 467
3 466 469 468
3 469 470 468
3 469 471 470
3 466 471 469
3 468 472 467
3 468 470 472
3 467 472 473
3 467 473 474
3 475 467 474
3 475 474 476
3 476 477 475
3 476 478 477
3 466 467 479
3 479 467 475
3 479 480 466
3 480 481 466
3 466 481 471
3 479 482 480
3 483 482 479
3 483 479 484
3 483 484 485
3 483 485 486
3 487 486 485
3 487 488 486
3 487 489 488
3 487 490 489
3 487 491 490
3 490 491 492
3 490 492 493
3 494 490 493
3 492 494 493
3 490 494 495
3 490 495 489
3 492 496 494
3 491 496 492
3 491 497 496
3 491 487 498
3 491 498 499
3 498 500 499
3 498 501 500
3 491 499 502
3 497 491 502
3 497 502 503
3 503 499 500
3 503 502 499
3 498 504 501
3 498 505 504
3 506 504 505
3 506 507 504
3 475 507 506
3 475 477 507
3 508 510 509
3 508 511 510
3 512 508 509
3 512 509 513
3 514 512 513
3 514 513 515
3 516 518 517
3 516 519 518
3 517 518 520
3 517 520 521
3 517 521 522
3 521 523 522
3 523 521 524
3 524 521 525
3 520 525 521
3 517 522 526
3 516 517 526
3 516 526 527
3 528 516 527
3 528 527 529
3 529 530 528
3 530 529 531
3 528 530 532
3 533 516 528
3 533 519 516
3 534 528 532
3 534 533 528
3 533 534 535
3 533 535 520
3 525 520 536
3 536 520 535
3 525 536 537
3 525 537 538
3 534 532 539
3 534 539 540
3 533 520 518
3 533 518 519
3 495 494 541
3 474 478 476
3 474 473 478
3 481 489 495
3 481 480 489
3 542 544 543
3 542 545 544
3 545 546 544
3 545 547 546
3 548 542 543
3 548 543 549
3 550 552 551
3 550 553 552
3 553 554 552
3 553 555 554
3 556 553 550
3 556 550 557
3 556 557 558
3 556 558 559
3 560 556 559
3 560 559 561
3 562 564 563
3 562 565 564
3 566 568 567
3 566 569 568
3 570 569 566
3 566 571 570
3 566 572 571
3 570 573 569
3 570 574 573
3 570 575 574
3 569 573 576
3 576 568 569
3 573 577 576
3 573 578 577
3 574 578 573
3 570 579 575
3 575 579 580
3 580 574 575
3 580 579 581
3 580 581 582
3 579 583 581
3 579 584 583
3 570 584 579
3 570 571 584
3 585 580 582
3 585 582 586
3 587 577 578
3 587 578 588
3 587 588 589
3 590 587 589
3 590 589 591
3 592 590 591
3 592 591 593
3 578 593 588
3 578 592 593
3 594 590 592
3 594 592 595
3 595 592 574
3 595 574 596
3 597 594 595
3 597 595 598
3 587 590 599
3 587 599 600
3 601 587 600
3 577 587 601
3 601 600 602
3 590 603 599
3 594 604 603
3 594 605 604
3 590 594 603
3 606 596 574
3 580 606 574
3 599 607 600
3 599 608 607
3 609 608 599
3 603 609 599
3 609 610 608
3 602 610 609
3 600 611 602
3 600 607 611
3 602 611 610
3 612 601 602
3 612 613 601
3 603 614 609
3 614 615 609
3 615 602 609
3 615 612 602
3 616 612 615
3 616 615 617
3 616 568 612
3 568 613 612
3 616 567 568
3 567 616 618
3 567 618 619
3 614 620 615
3 616 617 621
3 617 622 621
3 622 617 615
3 622 623 621
3 622 624 623
3 621 623 625
3 621 625 626
3 616 626 618
3 616 621 626
3 627 624 622
3 627 628 624
3 629 615 620
3 622 615 629
3 614 630 620
3 614 631 630
3 632 631 614
3 633 632 614
3 633 614 603
3 632 634 631
3 635 571 572
3 635 636 571
3 571 636 637
3 637 636 638
3 637 638 639
3 640 637 639
3 640 639 641
3 642 637 640
3 571 637 642
3 642 640 643
3 585 642 643
3 585 584 642
3 584 571 642
3 635 572 619
3 635 619 644
3 636 644 638
3 636 635 644
3 572 567 619
3 572 566 567
3 584 585 586
3 584 586 583
3 644 618 638
3 644 619 618
3 618 639 638
3 645 641 639
3 618 645 639
3 645 646 641
3 627 646 645
3 627 645 626
3 626 645 618
3 626 628 627
3 626 625 628
3 647 649 648
3 647 650 649
3 647 648 651
3 647 651 652
3 653 652 651
3 653 654 652
3 655 654 653
3 655 656 654
3 655 653 657
3 654 656 658
3 657 653 659
3 653 660 659
3 661 663 662
3 661 664 663
3 594 665 605
3 594 597 665
3 665 597 633
3 665 633 666
3 603 666 633
3 603 604 666
3 667 669 668
3 667 670 669
3 671 673 672
3 671 674 673
3 674 671 675
3 674 675 676
3 673 677 672
3 673 678 677
3 679 681 680
3 679 682 681
3 683 685 684
3 683 686 685
3 606 688 687
3 606 598 688
3 596 606 687
3 596 687 689
3 598 690 688
3 598 595 690
3 595 689 690
3 595 596 689
3 574 592 578
3 691 693 692
3 691 694 693
3 613 691 692
3 613 576 691
3 568 576 613
3 695 697 696
3 695 698 697
3 696 697 699
3 696 699 700
3 701 698 695
3 701 702 698
3 703 705 704
3 703 706 705
3 704 705 707
3 704 707 708
3 709 703 704
3 709 710 703
3 709 711 710
3 709 712 711
3 713 712 709
3 713 714 712
3 715 717 716
3 715 718 717
3 719 721 720
3 719 722 721
3 723 725 724
3 723 726 725
3 727 729 728
3 727 730 729
3 629 634 632
3 629 731 634
3 620 731 629
3 620 630 731
