mtllib Skrelp.mtl
v -0.066709 0.0721817 -0.00193989
vt 0.768176 0.799429
vn -0.5676759 0.6344158 -0.5246529
v -0.0299815 0.0808012 -0.0469708
vt 0.810438 0.801452
vn -0.7357948 0.3886108 -0.5546058
v -0.0260412 0.0526126 -0.0696058
vt 0.831681 0.794838
v -0.0430663 0.0870975 -0.0251994
vt 0.790005 0.802929
v -0.0658938 0.00571275 -0.0873133
vt 0.848299 0.783834
vn -0.517886 0.686874 -0.5099
v -0.112651 0.0282119 -0.00951591
vt 0.775286 0.789113
v -0.000923791 0.135972 -0.029734
vt 0.794261 0.814396
vn -0.6589883 0.5175872 -0.5457453
v -0.114436 0.00697364 -0.0606497
vt 0.823275 0.78413
vn -0.1806179 0.9105385 -0.3718828
v 0.0260412 0.0526126 -0.0696057
vn 0.5676759 0.6344158 -0.5246529
v 0.0430663 0.0870975 -0.0251994
vn 0.7357948 0.3886108 -0.5546058
v 0.066709 0.0721817 -0.00193988
v 0.0299815 0.0808012 -0.0469708
v 0.112651 0.0282119 -0.00951591
vn 0.517886 0.686874 -0.5099
v 0.0658938 0.00571275 -0.0873133
v 0.000923791 0.135972 -0.029734
vn 0.6589883 0.5175872 -0.5457453
v 0.114436 0.00697364 -0.0606497
vn 0.1806179 0.9105385 -0.3718828
v 0.0406678 0.0697404 0.0273622
vt 0.740676 0.798857
vn 0 0.7858866 0.6183707
v -0.0130848 0.089959 0.0149991
vt 0.752279 0.803601
vn 0 0.567692 0.8232411
v -0.0406678 0.0697404 0.0273622
v 0.0130848 0.089959 0.0149991
v -0.046757 0.0320379 0.0787707
vt 0.692429 0.790011
vn 0 0.8293591 0.5587161
v 0.046757 0.0320379 0.0787707
v 0 0.136134 -0.0283822
vt 0.792992 0.814434
vn 0 0.6847181 0.728808
v 0 0.0272479 0.108092
vt 0.664911 0.788887
vn 0 0.9869179 0.161224
v 0 0.814659 0.0118246
vt 0.755258 0.973634
vn 0 0.9672318 0.253895
v 0 0.680807 -0.0626556
vt 0.825158 0.942229
vn 0 0.5540509 -0.8324828
v -0.105377 0.65732 -0.0167491
vt 0.782075 0.936718
vn -0.7085911 0.5719561 -0.4132371
v 0.105377 0.65732 -0.0167491
vn 0.7085911 0.5719561 -0.4132371
v -0.0961144 0.662742 0.0967943
vt 0.675514 0.93799
vn -0.598587 0.64983 0.468417
v 0.0961144 0.662742 0.0967943
vn 0.598587 0.64983 0.468417
v -0.0278516 0.687048 0.0952253
vt 0.677197 0.941821
vn -0.153866 0.6607639 0.7346539
v 0.0278516 0.687048 0.0952253
vt 0.678038 0.943737
vn 0.153866 0.6607639 0.7346539
v -0.0651266 0.586135 -0.108049
vt 0.867759 0.920016
vn -0.3512141 0.3768702 -0.8570983
v 0.0651266 0.586135 -0.108049
vn 0.2929561 0.3456111 -0.8914762
v -0.0975808 0.583213 0.169409
vt 0.607365 0.91933
vn -0.594668 0.253506 0.7629579
v -0.170504 0.580318 0.0711246
vt 0.699605 0.918651
vn -0.9654303 0.2250451 0.131526
v 0.0975808 0.583213 0.169409
vn 0.594668 0.253506 0.7629579
v 0.170504 0.580318 0.0711246
vn 0.9654303 0.2250451 0.131526
v -0.0530427 0.496261 -0.123959
vt 0.882691 0.898929
vn -0.276986 -0.172568 -0.9452508
v 0.140273 0.563188 -0.0533755
vt 0.816448 0.914632
vn 0.8133906 0.07687205 -0.5766164
v 0.0530427 0.496261 -0.123959
vn 0.3312549 -0.245205 -0.9111228
v 0 0.598442 0.207603
vt 0.57152 0.922904
vn 0 0.4477899 0.8941388
vn -0.387227 0.409764 0.825923
v -0.140273 0.563188 -0.0533755
vn -0.8133909 0.0768719 -0.576616
v -0.123678 0.468108 0.138349
vt 0.633185 0.895232
vn -0.6686444 -0.6738054 0.3144852
v -0.0470276 0.461525 0.20012
vt 0.578543 0.890779
vn -0.8322567 -0.4187539 0.3633099
v -0.0135657 0.486522 0.212057
vt 0.571509 0.894433
vn -0.3082441 0.3428361 0.8873832
v 0.123678 0.468108 0.138349
vn 0.6686444 -0.6738054 0.3144852
v 0.0470276 0.461525 0.20012
vn 0.8322567 -0.4187539 0.3633099
v 0.0135657 0.486522 0.212057
vt 0.567991 0.89626
vn 0.2576949 0.4215418 0.8694227
v 0.0834379 0.433674 -0.0708213
vt 0.832821 0.884245
vn 0.7558579 -0.641893 -0.129044
v 0 0.394979 -0.0608912
vt 0.823502 0.875166
vn 0 -0.7043338 -0.7098688
vn 0.387227 0.409764 0.825923
v -0.143729 0.5001839 -0.022518
vt 0.787489 0.89985
vn -0.7640634 -0.6432783 -0.04899202
v -0.0834379 0.433674 -0.0708213
vn -0.7558579 -0.641893 -0.129044
v 0.143729 0.5001839 -0.022518
vn 0.7640634 -0.6432783 -0.04899202
v -0.0235138 0.438371 0.262989
vt 0.519539 0.885347
vn -0.5357789 0.106012 0.8376768
v 0.0235138 0.438371 0.262989
vn 0.6874418 -0.3024559 0.6602607
v 0 0.433973 0.196376
vt 0.582056 0.884315
vn 0 -0.9096944 -0.4152782
v 0 0.340547 0.0655817
vt 0.754052 0.448094
vn 0 -0.9982535 -0.05907507
vt 0.837432 0.457066
vn 0 -0.8712437 -0.4908508
v 0.0899702 0.37912 0.00846445
vt 0.791708 0.454452
vn 0.5811322 -0.7555673 -0.3023301
v -0.0899702 0.37912 0.00846445
vn -0.5811322 -0.7555673 -0.3023301
v 0.0653119 0.358494 0.0930373
vt 0.735951 0.451052
vn 0.493944 -0.861462 0.117909
v -0.0653119 0.358494 0.0930373
vn -0.493944 -0.861462 0.117909
v 0.0314479 0.371145 0.181483
vt 0.677642 0.453137
vn 0.3937429 -0.7176808 0.5743699
v -0.0314479 0.371145 0.181483
vn -0.3937429 -0.7176808 0.5743699
vt 0.843979 0.463443
vn 0.6127 -0.626603 -0.48163
vn -0.6127 -0.626603 -0.48163
v 0.124168 0.413683 0.0772006
vt 0.746392 0.460148
vn 0.8780077 -0.3995408 0.2635709
v -0.124168 0.413683 0.0772006
vn -0.8780077 -0.3995408 0.2635709
v 0.139098 0.512722 -0.0236213
vt 0.812861 0.476472
vn 0.9470149 -0.278107 -0.160684
v -0.139098 0.512722 -0.0236213
vn -0.9470152 -0.2781061 -0.160684
v -0.043543 0.464422 0.200696
vt 0.664975 0.468511
vn -0.5671532 -0.2280191 0.7914193
v 0.043543 0.464422 0.200696
vn 0.5671531 -0.22802 0.7914191
v 0.121916 0.497543 0.108478
vt 0.725771 0.47397
vn 0.92067 -0.114461 0.373183
v -0.121916 0.497543 0.108478
vn -0.92067 -0.114461 0.373183
v 0.0252778 0.380685 0.248132
vt 0.633702 0.45471
vn 0.7334458 0.6666238 0.132928
v -0.0308637 0.410225 0.30872
vt 0.593758 0.459578
vn -0.4116799 0.7347419 0.539142
v 0.0308637 0.410225 0.30872
vn 0.4116799 0.7347419 0.539142
v -0.0252778 0.380685 0.248132
vn -0.7334458 0.6666238 0.132928
v 0.0308637 0.325045 0.334235
vt 0.576936 0.445539
vn 0.296986 -0.7543509 0.585452
v -0.0393042 0.424682 0.174725
vt 0.682096 0.461961
vn -0.7189081 0.519115 0.462267
v 0.0252778 0.341931 0.206288
vt 0.661288 0.448322
vn 0.5209181 -0.846495 -0.109957
v 0.0393042 0.424682 0.174725
vn 0.7189081 0.519115 0.462267
v -0.0252778 0.341931 0.206288
vn -0.5209181 -0.846495 -0.109957
v -0.0308637 0.325045 0.334235
vn -0.296986 -0.7543509 0.585452
v 0.0393042 0.364175 0.134947
vt 0.708321 0.451988
vn 0.6645209 -0.7387129 -0.112762
v -0.0393042 0.364175 0.134947
vn -0.6645209 -0.7387129 -0.112762
v -0.0915345 0.283595 -0.00601337
vt 0.771999 0.849033
vn -0.9888126 -0.138662 0.05497688
v -0.0481252 0.289373 -0.0910645
vt 0.85182 0.850388
vn -0.6068142 0.108059 -0.7874642
v -0.0634155 0.216838 -0.0396118
vt 0.803531 0.83337
vn -0.8686471 -0.4443181 -0.219166
v -0.0353813 0.360193 -0.0603151
vt 0.822961 0.867004
vn -0.369408 0.7673839 -0.5240799
v -0.0330725 0.198761 0.0149527
vt 0.752322 0.829128
vn -0.54557 -0.65696 0.520343
v -0.0707627 0.351552 0.000904712
vt 0.765506 0.864977
vn -0.725961 0.671455 0.148758
v -0.0481253 0.256121 0.07373
vt 0.69716 0.842586
vn -0.529547 -0.248597 0.8110361
v -0.0353814 0.335931 0.0553837
vt 0.714378 0.861312
vn -0.3369131 0.5559122 0.7599022
v -0.0330725 0.235156 -0.0949061
vt 0.855425 0.837667
vn -0.4191931 -0.366566 -0.8306061
v 0.0353815 0.360193 -0.060315
vn 0.3694088 0.7673836 -0.5240797
v 0.0481254 0.289373 -0.0910645
vn 0.6068142 0.108059 -0.7874642
v 0 0.139439 -0.0291599
vt 0.793722 0.81521
vn 0 -0.9844916 -0.1754319
v 0 0.382689 0.00622932
vt 0.760509 0.872283
vn 0 0.976429 0.215839
v 0.0330727 0.235156 -0.0949061
vn 0.4191939 -0.3665659 -0.8306058
v 0.0915346 0.283595 -0.00601337
vn 0.9888126 -0.138662 0.05497698
v 0.0634157 0.216838 -0.0396118
vn 0.8686471 -0.4443181 -0.219166
v 0.0353815 0.335931 0.0553837
vn 0.3369131 0.5559122 0.7599022
v 0.0707629 0.351552 0.000904712
vn 0.725961 0.671455 0.148758
v 0.0330727 0.198761 0.0149527
vn 0.54557 -0.65696 0.520343
v 0.0481254 0.256121 0.07373
vn 0.529547 -0.248597 0.8110361
v 0.00781003 0.350278 -0.134636
vt 0.892712 0.864678
vn 0.32482 -0.424257 -0.8452799
v 0.0231155 0.28942 -0.0910345
vt 0.851791 0.850399
vn 0.330104 -0.493492 -0.804672
v -0.0231155 0.28942 -0.0910345
vn -0.3301038 -0.4934928 -0.8046716
v 0.0410503 0.32429 -0.0759127
vt 0.8376 0.858581
vn 0.9106649 0.130259 -0.392074
v -0.00781003 0.350278 -0.134636
vn -0.32482 -0.424257 -0.8452799
v 0.00781003 0.369155 -0.127889
vt 0.88638 0.869107
vn 0.3337039 0.9411918 -0.05291209
v -0.0410503 0.32429 -0.0759127
vn -0.910665 0.130258 -0.392074
v 0.0231155 0.360314 -0.0602102
vt 0.822863 0.867033
vn 0.4273952 0.9038113 0.02141161
v -0.00781003 0.369155 -0.127889
vn -0.3337039 0.9411918 -0.05291209
v -0.0231155 0.360314 -0.0602102
vn -0.4273952 0.9038113 0.02141151
v 0.262821 0.5234439 0.0163643
vt 0.750998 0.905307
vn 0.1856469 0.9825106 -0.01442399
v 0.366655 0.476952 -0.0125596
vt 0.778143 0.894399
vn 0.391156 0.9176031 -0.07072221
v 0.243388 0.5071579 -0.0440535
vt 0.8077 0.901486
vn 0.105229 0.9511543 -0.2902281
v 0.275297 0.502911 0.0773226
vt 0.693788 0.90049
vn 0.2505589 0.9318097 0.262585
v 0.149339 0.5188739 0.0460377
vt 0.723149 0.904235
vn -0.02907449 0.9986695 0.04258968
v -0.262821 0.5234439 0.0163643
vn -0.1856469 0.9825106 -0.01442339
v -0.243388 0.5071579 -0.0440535
vn -0.1052289 0.9511535 -0.2902308
v -0.366655 0.476952 -0.0125596
vn -0.3911569 0.9176027 -0.07072158
v -0.149339 0.5188739 0.0460377
vn 0.02907479 0.9986695 0.04259058
v -0.275297 0.502911 0.0773226
vn -0.250559 0.9318089 0.262588
vt 0.330727 0.576567
vt -0.481253 0.781886
vt -0.330725 0.576567
vt 0.481255 0.781885
vt 0 0.391753
vt -0.353814 0.986614
vt 0.353815 0.986614
vn -0.1856469 -0.9825106 0.01442409
vn -0.245254 -0.9689769 0.0305683
vn -0.125297 -0.9921177 -0.00177776
vn 0.1856469 -0.9825106 0.01442349
vn 0.245254 -0.9689769 0.0305676
vn 0.125297 -0.9921177 -0.00177826
v -0.0173205 0.506493 -0.0386696
vt 0.7501 0.791567
vn -0.8649449 0.458359 0.204395
v 0 0.5325409 -0.0237859
vt 0.766356 0.788074
v 0 0.614401 -0.207359
vt 0.766356 0.831146
vn 0.8649449 0.458359 0.204395
v 0.0173205 0.506493 -0.0386696
vt 0.782611 0.791567
vn 0 -0.8423926 -0.5388644
o merged_0_0_node
g polygon_0
usemtl mat_body_mat_id
f 1/1/1 2/2/2 3/3/1
f 1/1/1 4/4/2 2/2/2
f 1/1/1 3/3/1 5/5/3
f 1/1/1 2/2/2 4/4/2
f 1/1/1 3/3/1 2/2/2
f 1/1/1 5/5/3 6/6/3
f 1/1/1 5/5/3 3/3/1
f 1/1/1 6/6/3 5/5/3
f 4/4/2 7/7/4 2/2/2
f 4/4/2 2/2/2 7/7/4
f 6/6/3 5/5/3 8/8/5
f 6/6/3 8/8/5 5/5/3
f 9/3/6 10/4/7 11/1/6
f 9/3/6 12/2/7 10/4/7
f 9/3/6 11/1/6 13/6/8
f 9/3/6 10/4/7 12/2/7
f 9/3/6 11/1/6 10/4/7
f 9/3/6 13/6/8 14/5/8
f 9/3/6 13/6/8 11/1/6
f 9/3/6 14/5/8 13/6/8
f 12/2/7 15/7/9 10/4/7
f 12/2/7 10/4/7 15/7/9
f 14/5/8 13/6/8 16/8/10
f 14/5/8 16/8/10 13/6/8
f 17/9/11 18/10/12 19/9/11
f 17/9/11 20/10/12 18/10/12
f 17/9/11 19/9/11 21/11/13
f 17/9/11 18/10/12 20/10/12
f 17/9/11 19/9/11 18/10/12
f 17/9/11 21/11/13 22/11/13
f 17/9/11 21/11/13 19/9/11
f 17/9/11 22/11/13 21/11/13
f 20/10/12 23/12/14 18/10/12
f 20/10/12 18/10/12 23/12/14
f 22/11/13 21/11/13 24/13/15
f 22/11/13 24/13/15 21/11/13
f 25/14/16 26/15/17 27/16/18
f 25/14/16 28/16/19 26/15/17
f 25/14/16 27/16/18 29/17/20
f 25/14/16 30/17/21 28/16/19
f 25/14/16 29/17/20 31/18/22
f 25/14/16 32/19/23 30/17/21
f 25/14/16 31/18/22 32/19/23
f 26/15/17 33/20/24 27/16/18
f 26/15/17 28/16/19 34/20/25
f 26/15/17 34/20/25 33/20/24
f 29/17/20 35/21/26 31/18/22
f 29/17/20 27/16/18 36/22/27
f 29/17/20 36/22/27 35/21/26
f 30/17/21 32/19/23 37/21/28
f 30/17/21 38/22/29 28/16/19
f 30/17/21 37/21/28 38/22/29
f 34/20/25 39/23/30 33/20/24
f 34/20/25 28/16/19 40/24/31
f 34/20/25 41/23/32 39/23/30
f 34/20/25 40/24/31 41/23/32
f 28/16/19 38/22/29 40/24/31
f 31/18/22 42/25/33 32/19/23
f 31/18/22 35/21/34 42/25/33
f 27/16/18 43/24/35 36/22/27
f 27/16/18 33/20/24 43/24/35
f 33/20/24 39/23/30 43/24/35
f 35/21/26 36/22/27 44/26/36
f 35/21/26 44/26/36 45/27/37
f 35/21/26 45/27/37 46/28/38
f 35/21/34 46/28/38 42/25/33
f 37/21/28 47/26/39 38/22/29
f 37/21/28 48/27/40 47/26/39
f 37/21/28 49/29/41 48/27/40
f 41/23/32 40/24/31 50/30/42
f 41/23/32 51/31/43 39/23/30
f 41/23/32 50/30/42 51/31/43
f 32/19/23 42/25/33 37/21/44
f 42/25/33 46/28/38 49/29/41
f 42/25/33 49/29/41 37/21/44
f 43/24/35 52/32/45 36/22/27
f 43/24/35 39/23/30 53/30/46
f 43/24/35 53/30/46 52/32/45
f 44/26/36 48/27/40 45/27/37
f 44/26/36 52/32/45 47/26/39
f 44/26/36 36/22/27 52/32/45
f 44/26/36 47/26/39 48/27/40
f 51/31/43 50/30/42 53/30/46
f 51/31/43 53/30/46 39/23/30
f 38/22/29 54/32/47 40/24/31
f 38/22/29 47/26/39 54/32/47
f 54/32/47 47/26/39 52/32/45
f 54/32/47 50/30/42 40/24/31
f 54/32/47 52/32/45 53/30/46
f 54/32/47 53/30/46 50/30/42
f 46/28/38 55/33/48 49/29/41
f 46/28/38 45/27/37 55/33/48
f 48/27/40 49/29/41 56/33/49
f 48/27/40 57/34/50 45/27/37
f 48/27/40 56/33/49 57/34/50
f 55/33/48 56/33/49 49/29/41
f 55/33/48 45/27/37 57/34/50
f 55/33/48 57/34/50 56/33/49
f 58/35/51 51/36/52 59/37/53
f 58/35/51 60/37/54 51/36/52
f 58/35/51 59/37/53 61/38/55
f 58/35/51 62/38/56 60/37/54
f 58/35/51 61/38/55 63/39/57
f 58/35/51 64/39/58 62/38/56
f 58/35/51 63/39/57 64/39/58
f 51/36/52 50/40/59 59/37/53
f 51/36/52 60/37/54 53/40/60
f 61/38/55 65/41/61 63/39/57
f 61/38/55 59/37/53 65/41/61
f 62/38/56 64/39/58 66/41/62
f 62/38/56 66/41/62 60/37/54
f 50/40/59 67/42/63 59/37/53
f 59/37/53 67/42/63 65/41/61
f 53/40/60 60/37/54 68/42/64
f 60/37/54 66/41/62 68/42/64
f 63/39/57 69/43/65 64/39/58
f 63/39/57 70/43/66 69/43/65
f 67/42/63 71/44/67 65/41/61
f 66/41/62 72/44/68 68/42/64
f 73/45/69 74/46/70 75/46/71
f 73/45/69 76/45/72 74/46/70
f 73/45/69 75/46/71 77/47/73
f 73/45/69 78/48/74 76/45/72
f 73/45/69 77/47/73 79/49/75
f 73/45/69 80/48/76 78/48/74
f 73/45/69 79/49/75 80/48/76
f 75/46/71 74/46/70 77/47/73
f 76/45/72 78/48/74 81/49/77
f 76/45/72 82/47/78 74/46/70
f 76/45/72 81/49/77 82/47/78
f 77/47/73 81/49/77 79/49/75
f 77/47/73 74/46/70 82/47/78
f 77/47/73 82/47/78 81/49/77
f 80/48/76 79/49/75 83/50/79
f 79/49/75 81/49/77 83/50/79
f 78/48/74 84/50/80 81/49/77
f 81/49/77 84/50/80 83/50/79
f 85/51/81 86/52/82 87/53/83
f 85/51/81 88/54/84 86/52/82
f 85/51/81 87/53/83 89/55/85
f 85/51/81 90/56/86 88/54/84
f 85/51/81 89/55/85 91/57/87
f 85/51/81 92/58/88 90/56/86
f 85/51/81 91/57/87 92/58/88
f 86/52/82 93/59/89 87/53/83
f 86/52/82 88/54/84 94/54/90
f 86/52/82 95/52/91 93/59/89
f 86/52/82 94/54/90 95/52/91
f 89/55/85 87/53/83 96/60/92
f 87/53/83 93/59/89 96/60/92
f 90/56/86 92/58/88 97/61/93
f 90/56/86 97/61/93 88/54/84
f 88/54/84 97/61/93 94/54/90
f 95/52/91 98/59/94 93/59/89
f 95/52/91 94/54/90 99/51/95
f 95/52/91 100/53/96 98/59/94
f 95/52/91 99/51/95 100/53/96
f 98/59/94 96/60/92 93/59/89
f 98/59/94 100/53/96 96/60/92
f 92/58/88 101/58/97 97/61/93
f 94/54/90 102/56/98 99/51/95
f 94/54/90 97/61/93 102/56/98
f 102/56/98 97/61/93 101/58/97
f 102/56/98 101/58/97 99/51/95
f 100/53/96 103/55/99 96/60/92
f 100/53/96 99/51/95 103/55/99
f 101/58/97 104/57/100 99/51/95
f 99/51/95 104/57/100 103/55/99
f 105/62/101 106/63/102 107/63/103
f 105/62/101 108/64/104 106/63/102
f 105/62/101 107/63/103 109/62/105
f 105/62/101 110/65/106 108/64/104
f 105/62/101 109/62/105 110/65/106
f 107/63/103 111/64/107 109/62/105
f 108/64/104 110/65/106 112/66/108
f 111/64/107 113/65/109 109/62/105
f 111/64/107 114/66/110 113/65/109
f 113/65/109 112/66/108 110/65/106
f 113/65/109 110/65/106 109/62/105
f 113/65/109 114/66/110 112/66/108
f 115/67/111 116/68/112 117/69/113
f 115/67/111 118/70/114 116/68/112
f 115/67/111 117/69/113 119/71/115
f 115/67/111 119/71/115 118/70/114
f 120/67/116 121/69/117 122/68/118
f 120/67/116 123/71/119 121/69/117
f 120/67/116 122/68/118 124/70/120
f 120/67/116 124/70/120 123/71/119
f 103/72/99 91/73/87 89/74/85
f 103/72/99 104/75/100 91/73/87
f 103/72/99 89/74/85 96/76/92
f 104/75/100 92/77/88 91/73/87
f 104/75/100 101/78/97 92/77/88
f 118/70/121 117/69/121 116/68/122
f 118/70/121 119/71/123 117/69/121
f 121/69/124 124/70/124 122/68/125
f 121/69/124 123/71/126 124/70/124
f 125/79/127 126/80/127 127/81/127
f 126/80/128 128/82/128 127/81/128
f 128/82/129 125/79/129 127/81/129
vt 0.731421 0.953806
vt 0.141255 0.912976
vt 0.858745 0.849248
vt 0.178558 0.796198
vt 0.141268 0.912978
vt 0.858731 0.849246
o merged_1_0_node
g polygon_0
usemtl TEX_ANIM_EYE_mat_id
f 71/83/67 70/84/66 65/85/61
f 64/86/58 69/87/65 66/88/62
f 70/84/66 63/86/57 65/85/61
f 72/83/68 66/88/62 69/87/65
v 0.0757692 0.604597 -0.308827
vt 0.65625 0.173027
vn 0 0.9981992 -0.05998632
v -0.0757692 0.604597 -0.308827
vt 0.34375 0.173027
v 0.0535769 0.6137049 -0.238303
vt 0.610485 0.0625412
vn 0 0.9923426 -0.1235159
v -0.0535769 0.6137049 -0.238303
vt 0.389515 0.0625412
v 0.0535769 0.605222 -0.379569
vt 0.610485 0.283512
vn 0 0.9998804 0.01546851
v -0.0535769 0.605222 -0.379569
vt 0.389515 0.283512
v 0 0.614364 -0.209021
vt 0.5 0.0724352
vn 0 0.9997474 -0.02247491
v 0 0.609869 -0.40897
vt 0.5 0.329277
vn 0 0.9877388 0.156116
vn 0 -0.9981992 0.05998632
vn 0 -0.9923426 0.1235159
vn 0 -0.9998804 -0.01546851
vn 0 -0.9997474 0.02247491
vn 0 -0.9877388 -0.156116
v 0.120831 0.250075 -0.10215
vn 0.424566 -0.826142 0.37045
v 0.165971 0.300262 -0.0419611
v 0.0907805 0.262135 -0.0495501
vn 0.3741911 -0.8307633 0.4120842
v 0.118552 0.293012 -0.0125208
v 0.202616 0.302746 -0.0847501
vn 0.4598159 -0.8205988 0.3393919
v 0.166773 0.262895 -0.132542
v 0.200821 0.2876 -0.124726
vn 0.520156 -0.8061429 0.282084
v 0.0917343 0.284727 -0.00951338
vn 0.308679 -0.8315151 0.461844
v -0.120831 0.250075 -0.10215
vn -0.424566 -0.826142 0.37045
v -0.0907806 0.262135 -0.0495501
vn -0.3771521 -0.8305932 0.4097211
v -0.165971 0.300262 -0.0419611
v -0.118552 0.293012 -0.0125208
v -0.202616 0.302746 -0.0847501
vn -0.4598159 -0.8205988 0.3393919
v -0.200821 0.2876 -0.124726
vn -0.5201567 -0.8061425 0.2820838
v -0.166773 0.262895 -0.132542
v -0.0917343 0.284727 -0.00951338
vn -0.308679 -0.8315151 0.461844
vn -0.424566 0.826142 -0.37045
vn -0.3771519 0.8305928 -0.4097219
vn -0.4598159 0.8205988 -0.3393919
vn -0.520156 0.8061429 -0.282084
vn -0.308679 0.8315151 -0.461844
vn 0.424566 0.826142 -0.37045
vn 0.3741911 0.8307633 -0.4120842
vn 0.4598159 0.8205988 -0.3393919
vn 0.5201567 0.8061425 -0.2820838
vn 0.308679 0.8315151 -0.461844
o merged_2_0_node
g polygon_0
usemtl mat_mask_mat_id
f 129/89/130 130/90/130 131/91/131
f 131/91/131 130/90/130 132/92/131
f 129/89/130 133/93/132 130/90/130
f 130/90/130 133/93/132 134/94/132
f 131/91/131 132/92/131 135/95/133
f 134/94/132 133/93/132 136/96/134
f 129/89/135 131/91/136 130/90/135
f 130/90/135 131/91/136 132/92/136
f 129/89/135 130/90/135 133/93/137
f 133/93/137 130/90/135 134/94/137
f 131/91/136 135/95/138 132/92/136
f 134/94/137 136/96/139 133/93/137
f 137/89/140 138/90/140 139/91/141
f 139/91/141 138/90/140 140/92/141
f 141/94/142 142/93/142 143/96/143
f 139/91/141 140/92/141 144/95/144
f 137/89/140 142/93/142 138/90/140
f 138/90/140 142/93/142 141/94/142
f 145/89/145 146/91/146 147/90/145
f 147/90/145 146/91/146 148/92/146
f 149/94/147 150/96/148 151/93/147
f 146/91/146 152/95/149 148/92/146
f 145/89/145 147/90/145 151/93/147
f 151/93/147 147/90/145 149/94/147
f 137/89/150 139/91/151 138/90/150
f 138/90/150 139/91/151 140/92/151
f 141/94/152 143/96/153 142/93/152
f 139/91/151 144/95/154 140/92/151
f 137/89/150 138/90/150 142/93/152
f 142/93/152 138/90/150 141/94/152
f 145/89/155 147/90/155 146/91/156
f 146/91/156 147/90/155 148/92/156
f 149/94/157 151/93/157 150/96/158
f 146/91/156 148/92/156 152/95/159
f 145/89/155 151/93/157 147/90/155
f 147/90/155 151/93/157 149/94/157
o merged_3_0_node
g polygon_0
usemtl mat_fin_mat_id
f 129/89/130 130/90/130 131/91/131
f 131/91/131 130/90/130 132/92/131
f 129/89/130 133/93/132 130/90/130
f 130/90/130 133/93/132 134/94/132
f 131/91/131 132/92/131 135/95/133
f 134/94/132 133/93/132 136/96/134
f 129/89/135 131/91/136 130/90/135
f 130/90/135 131/91/136 132/92/136
f 129/89/135 130/90/135 133/93/137
f 133/93/137 130/90/135 134/94/137
f 131/91/136 135/95/138 132/92/136
f 134/94/137 136/96/139 133/93/137
f 137/89/140 138/90/140 139/91/141
f 139/91/141 138/90/140 140/92/141
f 141/94/142 142/93/142 143/96/143
f 139/91/141 140/92/141 144/95/144
f 137/89/140 142/93/142 138/90/140
f 138/90/140 142/93/142 141/94/142
f 145/89/145 146/91/146 147/90/145
f 147/90/145 146/91/146 148/92/146
f 149/94/147 150/96/148 151/93/147
f 146/91/146 152/95/149 148/92/146
f 145/89/145 147/90/145 151/93/147
f 151/93/147 147/90/145 149/94/147
f 137/89/150 139/91/151 138/90/150
f 138/90/150 139/91/151 140/92/151
f 141/94/152 143/96/153 142/93/152
f 139/91/151 144/95/154 140/92/151
f 137/89/150 138/90/150 142/93/152
f 142/93/152 138/90/150 141/94/152
f 145/89/155 147/90/155 146/91/156
f 146/91/156 147/90/155 148/92/156
f 149/94/157 151/93/157 150/96/158
f 146/91/156 148/92/156 152/95/159
f 145/89/155 151/93/157 147/90/155
f 147/90/155 151/93/157 149/94/157
