ply
format ascii 1.0
element vertex 413
property float x
property float y
property float z
property uchar red
property uchar green
property uchar blue
element face 512
property list uchar int vertex_index
end_header
0.54956 0.22123 0.14503 196 236 210
0.25347 0.22183 0.14503 196 236 210
0.25347 0.22183 0 196 236 210
0.54956 0.22123 0 196 236 210
0.21135 0.18785 0.14503 196 236 210
0.21135 0.18785 0 196 236 210
0.59137 0.18707 0 196 236 210
0.59137 0.18707 0.14503 196 236 210
0.59298 -0.5817 -2.39653E-18 196 236 210
0.49768 -0.52925 0 196 236 210
0.59298 -0.5817 0.14503 196 236 210
0.45017 -0.52911 0 196 236 210
0.35516 -0.52926 0 196 236 210
0.45046 -0.58126 -5.0803E-18 196 236 210
0.35501 -0.58097 -3.69737E-18 196 236 210
0.45046 -0.58126 0.14503 196 236 210
0.35501 -0.58097 0.14503 196 236 210
0.30766 -0.52912 0 196 236 210
0.21249 -0.58054 6.80629E-18 196 236 210
0.30795 -0.58083 1.26058E-17 196 236 210
0.21249 -0.58054 0.14503 196 236 210
0.30795 -0.58083 0.14503 196 236 210
0.49752 -0.58141 -2.16551E-19 196 236 210
0.49752 -0.58141 0.14503 196 236 210
0.45017 -0.52911 0.14503 196 236 210
0.49768 -0.52925 0.14503 196 236 210
0.30766 -0.52912 0.14503 196 236 210
0.35516 -0.52926 0.14503 196 236 210
0.49768 -0.52925 0.14503 203 243 217
0.59137 0.18707 0.14503 203 243 217
0.59298 -0.5817 0.14503 203 243 217
0.54956 0.22123 0.14503 203 243 217
0.45017 -0.52911 0.14503 203 243 217
0.25347 0.22183 0.14503 203 243 217
0.35516 -0.52926 0.14503 203 243 217
0.35501 -0.58097 0.14503 203 243 217
0.45046 -0.58126 0.14503 203 243 217
0.21135 0.18785 0.14503 203 243 217
0.30766 -0.52912 0.14503 203 243 217
0.30795 -0.58083 0.14503 203 243 217
0.21249 -0.58054 0.14503 203 243 217
0.49752 -0.58141 0.14503 203 243 217
-0.08732 0.01427 1.8362 72 72 72
-0.04477 0.01427 1.94902 72 72 72
0.04477 0.01427 1.94902 72 72 72
0.08732 0.01427 1.8362 72 72 72
0.04477 0.01427 2.20864 72 72 72
-0.04477 0.01427 2.20864 72 72 72
0.04477 0.1038 2.20864 72 72 72
0.04477 0.1038 1.94902 72 72 72
-0.04477 0.1038 1.94902 72 72 72
-0.04477 0.1038 2.20864 72 72 72
0.08732 0.1038 1.8362 72 72 72
-0.08732 0.1038 1.8362 72 72 72
0.16833 0.1038 2.11345 72 72 72
0.2417 0.1038 2.05965 72 72 72
0.16833 0.01427 2.11345 72 72 72
0.2417 0.01427 2.05965 72 72 72
-0.2417 0.1038 2.05965 72 72 72
-0.2417 0.01427 2.05965 72 72 72
-0.16833 0.01427 2.11345 72 72 72
-0.16833 0.1038 2.11345 72 72 72
0.18442 0.09485 2.11612 72 72 72
0.23876 0.09485 2.07546 72 72 72
0.23876 0.02322 2.07546 72 72 72
0.18442 0.02322 2.11612 72 72 72
-0.23876 0.02322 2.07546 72 72 72
-0.23876 0.09485 2.07546 72 72 72
-0.18442 0.02322 2.11612 72 72 72
-0.18442 0.09485 2.11612 72 72 72
-0.03581 0.02322 2.22196 87 87 87
-0.03581 0.09485 2.22196 87 87 87
0.03581 0.09485 2.22196 87 87 87
0.03581 0.02322 2.22196 87 87 87
0.23876 0.02322 2.07546 87 87 87
0.18442 0.02322 2.11612 87 87 87
0.18442 0.09485 2.11612 87 87 87
0.23876 0.09485 2.07546 87 87 87
-0.23876 0.09485 2.07546 87 87 87
-0.18442 0.09485 2.11612 87 87 87
-0.18442 0.02322 2.11612 87 87 87
-0.23876 0.02322 2.07546 87 87 87
-0.03581 0.02322 2.22196 72 72 72
0.03581 0.02322 2.22196 72 72 72
0.03581 0.09485 2.22196 72 72 72
-0.03581 0.09485 2.22196 72 72 72
0.49696 -0.22892 0.82172 146 213 220
0.49696 -0.22892 1.65685 146 213 220
0.71851 -0.22892 1.65685 146 213 220
0.71851 -0.22892 0.82172 146 213 220
0.49696 -0.1702 0.77716 146 213 220
0.68891 -0.1702 0.77716 146 213 220
0.68566 -0.18724 1.7022 146 213 220
0.49696 -0.18724 1.7022 146 213 220
0.76172 -0.1858 1.65685 146 213 220
0.71906 -0.15148 1.7022 146 213 220
0.71906 0.16446 1.7022 146 213 220
0.76172 0.19763 1.65685 146 213 220
0.76172 -0.1858 0.82172 146 213 220
0.76172 0.19763 0.82172 146 213 220
0.72231 -0.13786 0.77716 146 213 220
0.72231 0.14971 0.77716 146 213 220
0.49696 0.24075 1.65685 146 213 220
0.49696 0.24075 0.82172 146 213 220
0.71851 0.24075 0.82172 146 213 220
0.71851 0.24075 1.65685 146 213 220
0.68891 0.18205 0.77716 146 213 220
0.49696 0.18205 0.77716 146 213 220
0.49696 0.19977 1.7022 146 213 220
0.68566 0.19977 1.7022 146 213 220
0.49696 0.19977 1.7022 158 216 223
0.68566 0.19977 1.7022 158 216 223
0.68566 -0.18724 1.7022 158 216 223
0.49696 -0.18724 1.7022 158 216 223
0.71906 -0.15148 1.7022 158 216 223
0.71906 0.16446 1.7022 158 216 223
-0.66235 -0.40481 0.18326 146 213 220
-0.66235 -0.40481 1.08017 146 213 220
-0.56813 -0.49785 1.08017 146 213 220
-0.56813 -0.49785 0.18326 146 213 220
-0.66235 0.54233 0.18326 146 213 220
-0.66235 0.54233 1.08017 146 213 220
0.56813 -0.49785 0.18326 146 213 220
0.56813 -0.49785 1.08017 146 213 220
0.66235 -0.40481 0.18326 146 213 220
0.66235 -0.40481 1.08017 146 213 220
0.66235 0.54233 1.08017 146 213 220
0.66235 0.54233 0.18326 146 213 220
-0.52836 -0.45148 1.13618 146 213 220
-0.61599 -0.36496 1.13618 146 213 220
-0.61599 0.50248 1.13618 146 213 220
-0.56813 0.63537 1.08017 146 213 220
-0.56813 0.63537 0.18326 146 213 220
0.56813 0.63537 1.08017 146 213 220
0.56813 0.63537 0.18326 146 213 220
-0.52836 0.589 1.13618 146 213 220
0.52836 0.589 1.13618 146 213 220
0.61599 0.50248 1.13618 146 213 220
-0.52839 0.58904 0.13666 146 213 220
-0.61602 0.50251 0.13666 146 213 220
0.61602 0.50251 0.13666 146 213 220
0.52839 0.58904 0.13666 146 213 220
0.61602 -0.36499 0.13666 146 213 220
0.52839 -0.45152 0.13666 146 213 220
-0.52839 -0.45152 0.13666 146 213 220
-0.61602 -0.36499 0.13666 146 213 220
0.61599 -0.36496 1.13618 146 213 220
0.52836 -0.45148 1.13618 146 213 220
0.61599 -0.36496 1.13618 158 216 223
0.52836 -0.45148 1.13618 158 216 223
-0.52836 -0.45148 1.13618 158 216 223
-0.61599 -0.36496 1.13618 158 216 223
0.61599 0.50248 1.13618 158 216 223
-0.61599 0.50248 1.13618 158 216 223
0.52836 0.589 1.13618 158 216 223
-0.52836 0.589 1.13618 158 216 223
-0.25421 -0.40139 1.22749 197 103 76
-0.25421 -0.40139 1.34996 197 103 76
0.25421 -0.40139 1.34996 197 103 76
0.25421 -0.40139 1.22749 197 103 76
-0.25421 -0.46261 1.22749 197 103 76
0.25421 -0.46261 1.22749 197 103 76
0.25421 -0.46261 1.34996 197 103 76
-0.25421 -0.46261 1.34996 197 103 76
-0.30881 -0.38423 1.17704 196 236 210
-0.30881 -0.46261 1.17704 196 236 210
0.30881 -0.46261 1.17704 196 236 210
0.30881 -0.38423 1.17704 196 236 210
-0.30881 -0.46261 1.34996 196 236 210
-0.30881 -0.38423 1.51214 196 236 210
0.25421 -0.46261 1.22749 196 236 210
0.30881 -0.46261 1.34996 196 236 210
-0.25421 -0.46261 1.22749 196 236 210
-0.25421 -0.46261 1.34996 196 236 210
0.30881 -1.04429 1.34996 196 236 210
0.25421 -0.46261 1.34996 196 236 210
-0.30881 -1.04429 1.34996 196 236 210
0.30881 -0.38423 1.51214 196 236 210
0.30881 -1.04429 1.51214 196 236 210
-0.30881 -1.04429 1.51214 196 236 210
0.26105 -1.09667 1.34996 196 236 210
-0.26105 -1.09667 1.34996 196 236 210
0.26105 -1.09667 1.51214 196 236 210
-0.26105 -1.09667 1.51214 196 236 210
0 -0.46261 1.58518 203 243 217
-0.09181 -0.46261 1.58518 203 243 217
-0.09181 -0.38423 1.58518 203 243 217
0.09181 -0.38423 1.58518 203 243 217
0.09181 -0.46261 1.58518 203 243 217
0.30881 -0.38423 1.51214 203 243 217
0.09148 -0.46261 1.51214 203 243 217
0.09148 -0.38423 1.51214 203 243 217
0.30881 -1.04429 1.51214 203 243 217
0 -1.04429 1.51214 203 243 217
0.04254 -0.46261 1.51214 203 243 217
0.26105 -1.09667 1.51214 203 243 217
-0.26105 -1.09667 1.51214 203 243 217
-0.30881 -1.04429 1.51214 203 243 217
-0.09148 -0.46261 1.51214 203 243 217
-0.30881 -0.38423 1.51214 203 243 217
-0.04254 -0.46261 1.51214 203 243 217
-0.0225 -0.46261 1.51214 203 243 217
0.0225 -0.46261 1.51214 203 243 217
-0.09148 -0.38423 1.51214 203 243 217
0.09181 -0.38423 1.58518 196 236 210
0.09148 -0.38423 1.51214 196 236 210
0.09148 -0.46261 1.51214 196 236 210
0.09164 -0.46261 1.54866 196 236 210
0.09181 -0.46261 1.58518 196 236 210
-0.09164 -0.46261 1.54866 196 236 210
-0.09148 -0.46261 1.51214 196 236 210
-0.09148 -0.38423 1.51214 196 236 210
-0.09181 -0.38423 1.58518 196 236 210
-0.09181 -0.46261 1.58518 196 236 210
-0.02254 -0.46261 1.56193 196 236 210
-0.04262 -0.46261 1.56193 196 236 210
0 -0.46261 1.58518 196 236 210
-0.04254 -0.46261 1.51214 196 236 210
0.02254 -0.46261 1.56193 196 236 210
0.0225 -0.46261 1.51214 196 236 210
-0.0225 -0.46261 1.51214 196 236 210
0.04262 -0.46261 1.56193 196 236 210
0.04254 -0.46261 1.51214 196 236 210
-0.19187 -0.43477 1.22361 222 124 118
-0.19187 -0.43477 1.29642 222 124 118
0.19187 -0.43477 1.29642 222 124 118
0.19187 -0.43477 1.22361 222 124 118
0.19187 -0.39653 1.29642 222 124 118
-0.19187 -0.39653 1.29642 222 124 118
0.19187 -0.39653 1.22361 222 124 118
-0.19187 -0.39653 1.22361 222 124 118
0.22581 -0.40301 1.60431 53 53 51
0.22581 -0.40301 1.64461 53 53 51
0.26605 -0.40301 1.64461 53 53 51
0.26605 -0.40301 1.60431 53 53 51
0.12884 -0.40301 1.70178 255 255 255
0.12884 -0.38819 1.70178 255 255 255
0.36438 -0.38819 1.70178 255 255 255
0.36438 -0.40301 1.70178 255 255 255
0.36438 -0.40301 1.54038 255 255 255
0.36438 -0.38819 1.54038 255 255 255
0.12884 -0.38819 1.54038 255 255 255
0.12884 -0.40301 1.54038 255 255 255
0.26605 -0.40301 1.60431 255 255 255
0.22581 -0.40301 1.60431 255 255 255
0.26605 -0.40301 1.64461 255 255 255
0.22581 -0.40301 1.64461 255 255 255
-0.22581 -0.40301 1.60431 53 53 51
-0.26605 -0.40301 1.60431 53 53 51
-0.26605 -0.40301 1.64461 53 53 51
-0.22581 -0.40301 1.64461 53 53 51
-0.12884 -0.40301 1.70178 255 255 255
-0.36438 -0.40301 1.70178 255 255 255
-0.36438 -0.38819 1.70178 255 255 255
-0.12884 -0.38819 1.70178 255 255 255
-0.36438 -0.40301 1.54038 255 255 255
-0.36438 -0.38819 1.54038 255 255 255
-0.12884 -0.38819 1.54038 255 255 255
-0.12884 -0.40301 1.54038 255 255 255
-0.26605 -0.40301 1.60431 255 255 255
-0.22581 -0.40301 1.60431 255 255 255
-0.26605 -0.40301 1.64461 255 255 255
-0.22581 -0.40301 1.64461 255 255 255
0.19709 0.90132 0.62755 146 213 220
0.2372 0.92317 0.5837 146 213 220
0.23651 0.62426 0.5837 146 213 220
0.19651 0.62426 0.62755 146 213 220
0.23651 0.62426 0.23021 146 213 220
0.2372 0.92317 0.23021 146 213 220
0.19631 0.62426 0.19292 146 213 220
0.19688 0.90026 0.19292 146 213 220
-0.19688 0.90026 0.19292 146 213 220
-0.19631 0.62426 0.19292 146 213 220
-0.2372 0.92317 0.23021 146 213 220
-0.23651 0.62426 0.23021 146 213 220
-0.23651 0.62426 0.5837 146 213 220
-0.2372 0.92317 0.5837 146 213 220
-0.19709 0.90132 0.62755 146 213 220
-0.19651 0.62426 0.62755 146 213 220
-0.16132 0.94054 0.19292 146 213 220
0.16132 0.94054 0.19292 146 213 220
0.18901 0.97997 0.23021 146 213 220
0.18901 0.97997 0.5837 146 213 220
-0.18901 0.97997 0.5837 146 213 220
-0.18901 0.97997 0.23021 146 213 220
0.16196 0.94064 0.62755 146 213 220
-0.16196 0.94064 0.62755 146 213 220
0.40673 -0.34423 1.86056 158 216 223
-0.40673 -0.34423 1.86056 158 216 223
-0.46643 -0.28522 1.86056 158 216 223
0.46643 -0.28522 1.86056 158 216 223
-0.46643 0.42175 1.86056 158 216 223
0.46643 0.42175 1.86056 158 216 223
0.5128 -0.32507 1.12227 146 213 220
0.5128 -0.32507 1.82955 146 213 220
0.5128 0.4616 1.82955 146 213 220
0.5128 0.4616 1.12227 146 213 220
0.4465 -0.39059 1.82955 146 213 220
0.4465 -0.39059 1.12227 146 213 220
0.46643 -0.28522 1.86056 146 213 220
0.40673 -0.34423 1.86056 146 213 220
0.46643 0.42175 1.86056 146 213 220
-0.4465 -0.39059 1.12227 146 213 220
-0.4465 -0.39059 1.82955 146 213 220
-0.5128 -0.32507 1.12227 146 213 220
-0.5128 -0.32507 1.82955 146 213 220
-0.5128 0.4616 1.82955 146 213 220
-0.5128 0.4616 1.12227 146 213 220
-0.46643 -0.28522 1.86056 146 213 220
-0.40673 -0.34423 1.86056 146 213 220
-0.46643 0.42175 1.86056 146 213 220
0.4465 0.52712 1.12227 146 213 220
0.4465 0.52712 1.82955 146 213 220
0.40673 0.48076 1.86056 146 213 220
-0.4465 0.52712 1.82955 146 213 220
-0.40673 0.48076 1.86056 146 213 220
-0.4465 0.52712 1.12227 146 213 220
-0.40673 0.48076 1.86056 158 216 223
0.40673 0.48076 1.86056 158 216 223
-0.49696 -0.22892 0.82172 146 213 220
-0.71851 -0.22892 0.82172 146 213 220
-0.71851 -0.22892 1.65685 146 213 220
-0.49696 -0.22892 1.65685 146 213 220
-0.49696 -0.1702 0.77716 146 213 220
-0.68891 -0.1702 0.77716 146 213 220
-0.68566 -0.18724 1.7022 146 213 220
-0.49696 -0.18724 1.7022 146 213 220
-0.76172 -0.1858 1.65685 146 213 220
-0.71906 -0.15148 1.7022 146 213 220
-0.71906 0.16446 1.7022 146 213 220
-0.76172 0.19763 1.65685 146 213 220
-0.76172 -0.1858 0.82172 146 213 220
-0.76172 0.19763 0.82172 146 213 220
-0.72231 -0.13786 0.77716 146 213 220
-0.72231 0.14971 0.77716 146 213 220
-0.49696 0.24075 1.65685 146 213 220
-0.71851 0.24075 1.65685 146 213 220
-0.71851 0.24075 0.82172 146 213 220
-0.49696 0.24075 0.82172 146 213 220
-0.68891 0.18205 0.77716 146 213 220
-0.49696 0.18205 0.77716 146 213 220
-0.49696 0.19977 1.7022 146 213 220
-0.68566 0.19977 1.7022 146 213 220
-0.49696 0.19977 1.7022 158 216 223
-0.49696 -0.18724 1.7022 158 216 223
-0.68566 -0.18724 1.7022 158 216 223
-0.68566 0.19977 1.7022 158 216 223
-0.71906 -0.15148 1.7022 158 216 223
-0.71906 0.16446 1.7022 158 216 223
-0.0225 -0.45259 1.51214 116 145 125
-0.04254 -0.45259 1.51214 116 145 125
-0.04262 -0.45259 1.56193 116 145 125
-0.02254 -0.45259 1.56193 116 145 125
-0.0225 -0.46261 1.51214 116 145 125
-0.02254 -0.46261 1.56193 116 145 125
-0.04262 -0.46261 1.56193 116 145 125
-0.04254 -0.46261 1.51214 116 145 125
0.04254 -0.45259 1.51214 116 145 125
0.0225 -0.45259 1.51214 116 145 125
0.02254 -0.45259 1.56193 116 145 125
0.04262 -0.45259 1.56193 116 145 125
0.04254 -0.46261 1.51214 116 145 125
0.04262 -0.46261 1.56193 116 145 125
0.02254 -0.46261 1.56193 116 145 125
0.0225 -0.46261 1.51214 116 145 125
-0.19709 0.90132 0.62755 158 216 223
-0.16196 0.94064 0.62755 158 216 223
0.16196 0.94064 0.62755 158 216 223
0.19709 0.90132 0.62755 158 216 223
-0.19651 0.62426 0.62755 158 216 223
0.19651 0.62426 0.62755 158 216 223
-0.54956 0.22123 0.14503 196 236 210
-0.54956 0.22123 0 196 236 210
-0.25347 0.22183 0 196 236 210
-0.25347 0.22183 0.14503 196 236 210
-0.21135 0.18785 0.14503 196 236 210
-0.21135 0.18785 0 196 236 210
-0.59137 0.18707 0 196 236 210
-0.59137 0.18707 0.14503 196 236 210
-0.59298 -0.5817 -2.39653E-18 196 236 210
-0.49768 -0.52925 0 196 236 210
-0.59298 -0.5817 0.14503 196 236 210
-0.45017 -0.52911 0 196 236 210
-0.35516 -0.52926 0 196 236 210
-0.45046 -0.58126 -5.0803E-18 196 236 210
-0.35501 -0.58097 -3.69737E-18 196 236 210
-0.45046 -0.58126 0.14503 196 236 210
-0.35501 -0.58097 0.14503 196 236 210
-0.30766 -0.52912 0 196 236 210
-0.21249 -0.58054 6.80629E-18 196 236 210
-0.30795 -0.58083 1.26058E-17 196 236 210
-0.21249 -0.58054 0.14503 196 236 210
-0.30795 -0.58083 0.14503 196 236 210
-0.49752 -0.58141 -2.16551E-19 196 236 210
-0.49752 -0.58141 0.14503 196 236 210
-0.49768 -0.52925 0.14503 196 236 210
-0.45017 -0.52911 0.14503 196 236 210
-0.35516 -0.52926 0.14503 196 236 210
-0.30766 -0.52912 0.14503 196 236 210
-0.49768 -0.52925 0.14503 203 243 217
-0.59298 -0.5817 0.14503 203 243 217
-0.59137 0.18707 0.14503 203 243 217
-0.54956 0.22123 0.14503 203 243 217
-0.45017 -0.52911 0.14503 203 243 217
-0.25347 0.22183 0.14503 203 243 217
-0.35516 -0.52926 0.14503 203 243 217
-0.35501 -0.58097 0.14503 203 243 217
-0.45046 -0.58126 0.14503 203 243 217
-0.21135 0.18785 0.14503 203 243 217
-0.30766 -0.52912 0.14503 203 243 217
-0.21249 -0.58054 0.14503 203 243 217
-0.30795 -0.58083 0.14503 203 243 217
-0.49752 -0.58141 0.14503 203 243 217
3 0 2 1
3 0 3 2
3 4 1 2
3 4 2 5
3 6 3 0
3 6 0 7
3 7 8 6
3 9 6 8
3 7 10 8
3 11 6 9
3 11 3 6
3 5 2 12
3 12 3 11
3 12 2 3
3 12 11 13
3 12 13 14
3 14 13 15
3 14 15 16
3 5 12 17
3 18 17 19
3 19 20 18
3 4 18 20
3 4 5 18
3 5 17 18
3 19 21 20
3 9 8 22
3 10 22 8
3 10 23 22
3 9 24 11
3 9 25 24
3 12 26 17
3 12 27 26
3 28 30 29
3 31 28 29
3 31 32 28
3 33 32 31
3 33 34 32
3 32 34 35
3 32 35 36
3 37 34 33
3 37 38 34
3 38 40 39
3 37 40 38
3 28 41 30
3 25 22 23
3 25 9 22
3 17 21 19
3 17 26 21
3 11 15 13
3 11 24 15
3 27 14 16
3 27 12 14
3 42 44 43
3 42 45 44
3 43 44 46
3 43 46 47
3 44 48 46
3 44 49 48
3 50 43 47
3 50 47 51
3 51 49 50
3 51 48 49
3 50 49 52
3 50 52 53
3 52 49 54
3 52 54 55
3 49 56 54
3 49 44 56
3 44 57 56
3 44 45 57
3 45 55 57
3 45 52 55
3 50 53 58
3 53 59 58
3 53 42 59
3 42 60 59
3 42 43 60
3 43 61 60
3 43 50 61
3 55 54 62
3 55 62 63
3 57 55 63
3 57 63 64
3 56 57 64
3 56 64 65
3 58 59 66
3 58 66 67
3 59 68 66
3 59 60 68
3 60 69 68
3 60 61 69
3 61 67 69
3 61 58 67
3 50 58 61
3 54 65 62
3 54 56 65
3 70 72 71
3 70 73 72
3 74 76 75
3 74 77 76
3 78 80 79
3 78 81 80
3 47 83 82
3 47 46 83
3 46 84 83
3 46 48 84
3 48 85 84
3 48 51 85
3 51 82 85
3 51 47 82
3 86 88 87
3 86 89 88
3 89 86 90
3 89 90 91
3 87 88 92
3 87 92 93
3 94 92 88
3 94 95 92
3 96 95 94
3 96 94 97
3 97 94 98
3 88 98 94
3 88 89 98
3 97 98 99
3 99 98 100
3 100 89 91
3 100 98 89
3 99 100 101
3 102 104 103
3 102 105 104
3 103 104 106
3 103 106 107
3 90 107 106
3 90 106 91
3 105 102 108
3 105 108 109
3 104 101 106
3 91 106 101
3 104 99 101
3 97 104 105
3 97 99 104
3 109 97 105
3 109 96 97
3 91 101 100
3 110 112 111
3 110 113 112
3 111 112 114
3 111 114 115
3 116 118 117
3 116 119 118
3 120 116 117
3 120 117 121
3 118 119 122
3 118 122 123
3 123 122 124
3 123 124 125
3 124 126 125
3 124 127 126
3 117 118 128
3 117 128 129
3 121 117 129
3 121 129 130
3 131 121 130
3 121 131 132
3 121 132 120
3 132 131 133
3 132 133 134
3 134 133 126
3 134 126 127
3 133 131 135
3 131 130 135
3 133 135 136
3 126 133 136
3 125 126 137
3 126 136 137
3 120 132 138
3 120 138 139
3 140 139 138
3 134 127 140
3 140 138 141
3 132 141 138
3 132 134 141
3 134 140 141
3 127 142 140
3 142 139 140
3 127 124 142
3 124 143 142
3 124 122 143
3 122 144 143
3 122 119 144
3 119 145 144
3 143 145 142
3 143 144 145
3 142 145 139
3 119 116 145
3 116 139 145
3 116 120 139
3 125 137 146
3 123 125 146
3 123 146 147
3 118 123 147
3 118 147 128
3 148 150 149
3 148 151 150
3 152 151 148
3 152 153 151
3 154 153 152
3 154 155 153
3 156 158 157
3 156 159 158
3 160 159 156
3 160 161 159
3 161 158 159
3 161 162 158
3 162 157 158
3 162 163 157
3 163 156 157
3 163 160 156
3 164 166 165
3 164 167 166
3 164 165 168
3 164 168 169
3 165 166 170
3 171 170 166
3 165 170 172
3 165 172 168
3 168 172 173
3 173 174 168
3 174 175 171
3 175 174 173
3 175 170 171
3 168 174 176
3 169 168 176
3 177 174 171
3 166 177 171
3 166 167 177
3 177 178 174
3 169 176 179
3 176 174 180
3 176 180 181
3 179 176 181
3 181 180 182
3 174 182 180
3 174 178 182
3 181 182 183
3 179 181 183
3 184 186 185
3 187 186 184
3 187 184 188
3 189 191 190
3 192 189 190
3 193 192 190
3 193 190 194
3 192 193 195
3 195 193 196
3 196 193 197
3 193 198 197
3 197 198 199
3 193 200 198
3 193 201 200
3 193 202 201
3 193 194 202
3 198 203 199
3 204 206 205
3 206 204 207
3 207 204 208
3 209 211 210
3 211 209 212
3 212 209 213
3 214 213 215
3 214 216 213
3 209 215 213
3 217 215 209
3 217 209 210
3 218 216 214
3 219 218 214
3 219 214 220
3 218 208 216
3 218 221 208
3 208 221 207
3 207 221 222
3 207 222 206
3 223 225 224
3 223 226 225
3 224 225 227
3 226 227 225
3 224 227 228
3 226 229 227
3 230 224 228
3 230 223 224
3 231 233 232
3 231 234 233
3 235 237 236
3 235 238 237
3 239 237 238
3 239 240 237
3 241 240 239
3 241 235 236
3 241 239 242
3 241 242 235
3 242 239 243
3 242 243 244
3 235 242 244
3 239 245 243
3 239 238 245
3 238 246 245
3 238 235 246
3 235 244 246
3 247 249 248
3 247 250 249
3 251 253 252
3 251 254 253
3 255 252 253
3 255 253 256
3 257 255 256
3 257 254 251
3 257 258 255
3 257 251 258
3 258 259 255
3 258 260 259
3 251 260 258
3 255 261 252
3 255 259 261
3 252 262 251
3 252 261 262
3 251 262 260
3 263 265 264
3 263 266 265
3 267 264 265
3 267 268 264
3 269 268 267
3 269 270 268
3 269 271 270
3 269 272 271
3 273 271 272
3 273 272 274
3 273 274 275
3 273 275 276
3 275 277 276
3 275 278 277
3 270 271 279
3 270 279 280
3 281 280 279
3 268 280 281
3 264 268 281
3 264 281 282
3 283 282 281
3 283 281 284
3 281 279 284
3 282 263 264
3 282 285 263
3 285 282 283
3 284 279 271
3 284 271 273
3 273 283 284
3 273 276 283
3 285 283 286
3 276 286 283
3 276 277 286
3 268 270 280
3 287 289 288
3 287 290 289
3 290 291 289
3 290 292 291
3 293 295 294
3 293 296 295
3 297 293 294
3 297 298 293
3 297 294 299
3 297 299 300
3 294 301 299
3 294 295 301
3 297 302 298
3 297 303 302
3 300 303 297
3 303 304 302
3 303 305 304
3 304 305 306
3 304 306 307
3 303 308 305
3 303 309 308
3 300 309 303
3 305 310 306
3 305 308 310
3 311 295 296
3 311 312 295
3 295 312 313
3 313 312 314
3 311 314 312
3 313 314 315
3 295 313 301
3 306 315 314
3 316 306 314
3 311 316 314
3 316 307 306
3 306 310 315
3 292 317 291
3 292 318 317
3 319 321 320
3 319 322 321
3 320 323 319
3 320 324 323
3 322 325 321
3 322 326 325
3 327 321 325
3 327 325 328
3 329 327 328
3 329 330 327
3 330 331 327
3 321 331 320
3 321 327 331
3 330 332 331
3 332 333 331
3 333 320 331
3 333 324 320
3 332 334 333
3 335 337 336
3 335 338 337
3 338 339 337
3 338 340 339
3 323 339 340
3 323 324 339
3 336 341 335
3 336 342 341
3 337 339 334
3 324 334 339
3 337 334 332
3 330 337 332
3 330 336 337
3 342 336 330
3 342 330 329
3 324 333 334
3 343 345 344
3 343 346 345
3 346 347 345
3 346 348 347
3 349 351 350
3 349 352 351
3 353 352 349
3 353 354 352
3 354 351 352
3 354 355 351
3 355 350 351
3 355 356 350
3 356 349 350
3 356 353 349
3 357 359 358
3 357 360 359
3 361 360 357
3 361 362 360
3 362 359 360
3 362 363 359
3 363 358 359
3 363 364 358
3 364 357 358
3 364 361 357
3 365 367 366
3 365 368 367
3 369 368 365
3 369 370 368
3 371 373 372
3 371 374 373
3 375 373 374
3 375 376 373
3 377 371 372
3 377 378 371
3 378 377 379
3 380 379 377
3 378 379 381
3 382 377 372
3 382 380 377
3 376 383 373
3 383 372 373
3 383 382 372
3 383 384 382
3 383 385 384
3 385 386 384
3 385 387 386
3 376 388 383
3 389 390 388
3 390 389 391
3 375 391 389
3 375 389 376
3 376 389 388
3 390 391 392
3 380 393 379
3 381 379 393
3 381 393 394
3 380 396 395
3 380 382 396
3 383 398 397
3 383 388 398
3 399 401 400
3 402 401 399
3 402 399 403
3 404 402 403
3 404 403 405
3 403 406 405
3 403 407 406
3 408 404 405
3 408 405 409
3 409 411 410
3 408 409 410
3 399 400 412
3 395 393 380
3 395 394 393
3 388 392 398
3 388 390 392
3 382 386 396
3 382 384 386
3 397 385 383
3 397 387 385
