mtllib Kricketot_F.mtl
v 0 0.196566 0.210765
vt 0.0085437 0.47634
vn 0 -0.0195045 0.9998097
v -0.11774 0.105426 0.144792
vt 0.364042 0.258358
vn -0.6157269 -0.3418669 0.7099348
v 0 0.103005 0.194031
vt 0.0085437 0.252569
vn 0 -0.4801101 0.8772082
v -0.111389 0.204781 0.161516
vt 0.344868 0.495987
vn -0.6554332 0.0117898 0.7551612
v 0.11774 0.105426 0.144792
vn 0.6157269 -0.3418669 0.7099348
v -0.0951768 0.305698 0.151284
vt 0.295916 0.730786
vn -0.4238091 0.3462081 0.8369742
v 0.111389 0.204781 0.161516
vn 0.6554332 0.0117897 0.7551612
v 0 0.290493 0.199517
vt 0.0085437 0.700986
vn 0 0.3327739 0.9430066
v 0.0951768 0.305698 0.151284
vn 0.4238091 0.3462081 0.8369742
v 0 0.04383598 0.117786
vt 0.0085437 0.111053
vn 0 -0.9019114 0.4319212
v -0.106334 0.04383598 0.083287
vt 0.297623 0.0864738
vn -0.3397049 -0.8234608 0.4544369
v 0 0.02655189 -7.95492E-05
vt 0.0085437 0.069715
vn 0 -0.9999642 0.008461243
v -0.0861529 -5.960465E-09 0
vt 0.268669 0.0062104
vn -0.129607 -0.9915006 -0.011338
v 0.106334 0.04383598 0.083287
vn 0.3397049 -0.8234608 0.4544369
v 0.086153 -5.960465E-09 0
vn 0.129607 -0.9915006 -0.011338
v 0 0.309648 0.165961
vt 0.437555 0.932532
vn 0 -0.2250519 -0.9743468
v 0 0.365538 0.191294
vt 0.437555 0.965025
vn 0 0.9813746 -0.1921039
v 0.0528518 0.351713 0.194581
vt 0.465651 0.956972
vn 0.546531 0.7285649 -0.4129129
v -0.0528518 0.351713 0.194581
vt 0.409459 0.956972
vn -0.546531 0.7285649 -0.4129129
v 0.0747438 0.318338 0.202515
vt 0.477289 0.937532
vn 0.9169519 -0.09227959 -0.3881799
v -0.0747438 0.318338 0.202515
vt 0.397821 0.937532
vn -0.9169519 -0.09227969 -0.3881799
v 0.0528519 0.284963 0.210449
vt 0.465651 0.918091
vn 0.546531 -0.8364409 -0.0408738
v -0.0528518 0.284963 0.210449
vt 0.409459 0.918091
vn -0.546531 -0.8364409 -0.0408735
v 0 0.271138 0.213735
vt 0.437555 0.910039
vn 0 -0.9628379 0.27008
v 0.038539 0.327028 0.239069
vt 0.458043 0.942531
vn 0.222613 0.225475 0.9484749
v -0.038539 0.327028 0.239069
vt 0.417068 0.942531
vn -0.222613 0.225475 0.9484749
v 0 0.353963 0.0542941
vt 0.0603176 0.813403
vn 0 0.9130669 0.4078099
v 0 0.291288 0.199863
vt 0.0603176 0.775751
vn 0 0.8619449 0.507002
v 0.18125 0.303891 0.152998
vt 0.0923457 0.790133
vn 0.03679918 0.8859385 0.4623407
v -0.18125 0.303891 0.152998
vt 0.0282896 0.790133
vn -0.0367992 0.8859388 0.4623399
v 0.247391 0.352534 0.0500442
vt 0.0999066 0.813403
vn 0.0126502 0.9011519 0.4333189
v -0.247391 0.352534 0.0500442
vt 0.0207288 0.813403
vn -0.0126502 0.9011519 0.4333189
v 0.231494 0.432589 -0.116074
vt 0.0923457 0.836672
v -0.231494 0.432589 -0.116074
vt 0.0282896 0.836672
v 0 0.416089 -0.0955736
vt 0.0603177 0.832228
vn 0 0.9181988 0.3961199
v 0.0705212 0.230197 0.244277
vt 0.0725513 0.775751
vn 0.13831 0.681866 0.718282
v -0.0705212 0.230197 0.244277
vt 0.048084 0.775751
vn -0.13831 0.681866 0.718282
v 0.0924377 0.477863 -0.226754
vt 0.0725513 0.851054
vn -0.0179504 0.9093763 0.4155871
v -0.0924377 0.477863 -0.226754
vt 0.048084 0.851054
vn 0.0179503 0.9093763 0.4155871
vn 0 -0.9130669 -0.4078099
vn -0.0367992 -0.8859388 -0.4623399
vn 0 -0.8619449 -0.507002
vn -0.0126502 -0.9011519 -0.4333189
vn 0.03679918 -0.8859385 -0.4623407
vn 0.0126502 -0.9011519 -0.4333189
vn 0 -0.9181988 -0.3961199
vn -0.13831 -0.681866 -0.718282
vn 0.13831 -0.681866 -0.718282
vn 0.0179504 -0.9093763 -0.4155871
vn -0.0179503 -0.9093763 -0.4155871
v 0 0.133282 -0.192114
vt 0.992912 0.346865
v 0.139448 0.103005 -0.131254
vt 0.551302 0.249532
vn 0.6304689 -0.29881 -0.7163949
v 0 0.04383598 -0.117786
vt 0.992912 0.153327
vn 0 -0.8262182 -0.5633502
v 0.145642 0.216817 -0.125914
vt 0.531685 0.521738
vn 0.715408 0.105958 -0.690626
v -0.139448 0.103005 -0.131254
vn -0.6304689 -0.29881 -0.7163949
v 0 0.263092 -0.184008
vt 0.992912 0.632414
vn 0 0.204956 -0.9787712
v -0.145642 0.216817 -0.125914
vn -0.715408 0.105958 -0.690626
v 0.09574229 0.04383598 -0.083287
vt 0.68971 0.108016
vn 0.310402 -0.8459438 -0.4336239
v 0.135169 0.309825 -0.10527
vt 0.531685 0.76078
vn 0.6951957 0.3569519 -0.6239297
v -0.09574229 0.04383598 -0.083287
vn -0.310402 -0.8459438 -0.4336239
v -0.135169 0.309825 -0.10527
vn -0.6951957 0.3569519 -0.6239297
vt 0.992912 0.0666773
v 0 0.365037 -0.141856
vt 0.992912 0.876237
vn 0 0.4863809 -0.8737469
v 0.114589 0.402885 -0.0533323
vt 0.531685 0.995937
vn 0.6394891 0.6589551 -0.3960201
v 0 0.417052 -0.0986473
vt 0.992912 1.00064
vn 0 0.8416869 -0.5399659
v -0.114589 0.402885 -0.0533323
vn -0.6394891 0.6589551 -0.3960201
v -0.209055 0.131304 0.0130238
vt 0.300657 0.797027
vn -0.991673 -0.106574 0.0722961
vt 0.31422 0.791513
v -0.176441 0.06274378 0.00574589
vt 0.307012 0.783668
vn -0.7885749 -0.614563 0.0214941
vt 0.313013 0.813689
vt 0.318449 0.791985
v -0.198158 0.260963 0.0304393
vt 0.30278 0.82229
vn -0.9786221 0.179101 0.101102
vt 0.319687 0.811344
vt 0.322735 0.779984
vt 0.315053 0.831811
v -0.130864 0.316774 0.119481
vt 0.315892 0.832093
vn -0.7500523 0.2546691 0.6103812
vt 0.322846 0.830472
v -0.15704 0.351342 0.0527864
vt 0.310792 0.8399
vn -0.8700498 0.4839809 0.09367898
vt 0.322883 0.851498
v 0.209055 0.131304 0.0130238
vn 0.9916729 -0.106575 0.07229609
v 0.176441 0.06274378 0.00574589
vn 0.788574 -0.6145641 0.0214941
v 0.198158 0.260963 0.0304393
vn 0.9786223 0.1791001 0.101102
v 0.130864 0.316774 0.119481
vn 0.7500523 0.2546691 0.6103812
v 0.15704 0.351342 0.0527864
vn 0.8700498 0.4839809 0.09367898
v 0.14344 0.600466 -0.0222178
vt 0.187427 0.972049
vn 0.2600309 0.9188866 -0.2967009
v 0.131608 0.575906 0.016591
vt 0.181111 0.960251
vn 0.005524841 0.151315 0.9884701
v 0.147812 0.571997 -0.00305961
vt 0.189762 0.958373
v 0.0912131 0.599779 -0.0032088
vt 0.159546 0.971719
vn -0.6380813 0.7329313 0.2359321
v 0.169775 0.553976 -0.0150842
vt 0.201486 0.949716
vn 0.5034909 0.5868618 0.6341058
v 0.104324 0.575906 -0.0583713
vt 0.166545 0.960251
vn -0.420978 0.430318 -0.7985011
v 0.187667 0.564836 -0.0383153
vt 0.211039 0.954933
vn 0.751222 0.507495 -0.422036
v 0.136909 0.524362 -0.00175023
vt 0.183941 0.93549
vn 0.3314991 -0.3863691 0.8607132
v 0.0904442 0.555271 -0.0100338
vt 0.159135 0.950338
vn -0.951467 -0.06335831 0.301158
v 0.179373 0.534195 0.00763996
vt 0.206611 0.940213
vn 0.5242602 -0.3354621 0.7826982
v 0.0723216 0.449511 0.00310545
vt 0.14946 0.899533
vn -0.7212421 -0.6341671 0.278643
v 0.120713 0.524362 -0.046246
vt 0.175295 0.93549
vn -0.4158109 -0.6321238 -0.6538508
v 0.189498 0.506867 -0.0389815
vt 0.212016 0.927086
vn 0.6409109 -0.7429029 -0.1932059
vn -0.1948289 -0.8179636 0.5412738
vn 0 0.2650661 0.9642302
vn 0.6960301 0.6606871 0.281131
v 0.15548 0.534694 -0.0769904
vt 0.193855 0.940453
vn 0.1764309 -0.03996178 -0.9835015
v -0.142441 0.600466 -0.0222178
vn -0.2600299 0.9188868 -0.296701
v -0.146813 0.571997 -0.00305961
v -0.130609 0.575906 0.016591
vn -0.005524861 0.151315 0.9884701
v -0.168775 0.553976 -0.0150842
vn -0.5034901 0.5868611 0.6341071
v -0.090214 0.599779 -0.0032088
vn 0.6380813 0.7329313 0.2359321
v -0.186668 0.564836 -0.0383153
vn -0.751222 0.507495 -0.422036
v -0.103325 0.575906 -0.0583713
vn 0.420978 0.430318 -0.7985011
v -0.135909 0.524362 -0.00175024
vn -0.3314991 -0.3863691 0.8607132
v -0.178374 0.534195 0.00763996
vn -0.52426 -0.335463 0.782698
v -0.0894451 0.555271 -0.0100338
vn 0.951467 -0.06335851 0.301158
v -0.188499 0.506867 -0.0389815
vn -0.6409109 -0.7429029 -0.1932059
v -0.154481 0.534694 -0.0769904
vn -0.1764309 -0.03996168 -0.9835015
v -0.0713225 0.449511 0.00310545
vn 0.7212414 -0.6341674 0.2786442
v -0.119714 0.524362 -0.046246
vn 0.4158109 -0.6321238 -0.6538508
vn 0.194829 -0.8179641 0.5412731
vn -0.6960302 0.6606862 0.2811331
v 0 0.45696 0.0347344
vt 0.303051 0.940704
vn 0 0.9857361 0.168298
v 0 0.441474 -0.00822747
vt 0.303051 0.94513
vn 0 0.94075 -0.339101
v -0.0859908 0.427433 0.0347369
vt 0.267672 0.941385
vn -0.3690571 0.8767743 0.3083241
v 0.0859909 0.427433 0.0347369
vt 0.338431 0.941385
vn 0.3690571 0.8767743 0.3083241
v 0 0.419749 0.11676
vt 0.303051 0.920784
vn 0 0.684635 0.7288861
v 0 0.38631 0.125952
vt 0.303051 0.919088
v 0.1503 0.188273 0.192291
vt 0.0630523 0.937243
vn 1 0 0
v 0.103 0.188273 0.144991
vt 0.0968559 0.937243
vn 0 0 -1
v 0.103 0.235573 0.192291
vt 0.0630523 0.971046
vn 0 1 0
v 0.103 0.140973 0.192291
vt 0.0630523 0.903439
vn 0 -0.9999642 0.008461242
v 0.103 0.188273 0.239591
vt 0.0292486 0.937243
vn 0 0 1
v 0.0557 0.188273 0.192291
vn -1 0 0
v -0.1503 0.188273 0.192291
v -0.103 0.235573 0.192291
v -0.103 0.188273 0.144991
v -0.103 0.188273 0.239591
v -0.103 0.140973 0.192291
v -0.0557 0.188273 0.192291
vt 0.418739 0.816997
vn -0.4971381 0.8663912 0.04711581
vt 0.417932 0.823441
vt 0.39769 0.813001
vt 0.439284 0.818467
vn 0 0.9721388 -0.2344059
v -0.0864877 0.401789 0.0911433
vt 0.417932 0.810807
vn -0.3685601 0.7142662 0.5949683
vt 0.439284 0.808243
vn 0 0.6482309 0.7614439
vt 0.439284 0.824466
vt 0.460635 0.823441
vt 0.459829 0.816997
vn 0.4971381 0.8663912 0.04711612
vt 0.405871 0.806032
v 0.0864877 0.401789 0.0911433
vt 0.460635 0.810807
vn 0.3685599 0.7142658 0.5949689
vt 0.439284 0.801892
vt 0.480877 0.813001
vt 0.472697 0.806032
vt 0.718631 0.000782132
vt 0.688263 0.105625
vt 0.991465 0.0642867
vt 0.521802 0.0924708
o merged_0_0_node
g polygon_0
usemtl mat_body_mat_id
f 1/1/1 2/2/2 3/3/3
f 1/1/1 4/4/4 2/2/2
f 1/1/1 3/3/3 5/2/5
f 1/1/1 6/5/6 4/4/4
f 1/1/1 5/2/5 7/4/7
f 1/1/1 8/6/8 6/5/6
f 1/1/1 7/4/7 9/5/9
f 1/1/1 9/5/9 8/6/8
f 2/2/2 10/7/10 3/3/3
f 2/2/2 11/8/11 10/7/10
f 3/3/3 10/7/10 5/2/5
f 11/8/11 12/9/12 10/7/10
f 11/8/11 13/10/13 12/9/12
f 5/2/5 10/7/10 14/8/14
f 10/7/10 12/9/12 14/8/14
f 12/9/12 15/10/15 14/8/14
f 16/11/16 17/12/17 18/13/18
f 16/11/16 19/14/19 17/12/17
f 16/11/16 18/13/18 20/15/20
f 16/11/16 21/16/21 19/14/19
f 16/11/16 20/15/20 22/17/22
f 16/11/16 23/18/23 21/16/21
f 16/11/16 22/17/22 24/19/24
f 16/11/16 24/19/24 23/18/23
f 17/12/17 25/20/25 18/13/18
f 17/12/17 19/14/19 26/21/26
f 17/12/17 26/21/26 25/20/25
f 25/20/25 22/17/22 20/15/20
f 25/20/25 24/19/24 22/17/22
f 25/20/25 20/15/20 18/13/18
f 25/20/25 26/21/26 24/19/24
f 26/21/26 19/14/19 21/16/21
f 26/21/26 21/16/21 23/18/23
f 26/21/26 23/18/23 24/19/24
f 27/22/27 28/23/28 29/24/29
f 27/22/27 30/25/30 28/23/28
f 27/22/27 29/24/29 31/26/31
f 27/22/27 32/27/32 30/25/30
f 27/22/27 31/26/31 33/28/27
f 27/22/27 34/29/27 32/27/32
f 27/22/27 33/28/27 35/30/33
f 27/22/27 35/30/33 34/29/27
f 28/23/28 36/31/34 29/24/29
f 28/23/28 30/25/30 37/32/35
f 33/28/27 38/33/36 35/30/33
f 34/29/27 35/30/33 39/34/37
f 39/34/37 35/30/33 38/33/36
f 27/22/38 29/24/39 28/23/40
f 27/22/38 31/26/41 29/24/39
f 27/22/38 28/23/40 30/25/42
f 27/22/38 33/28/38 31/26/41
f 27/22/38 30/25/42 32/27/43
f 27/22/38 35/30/44 33/28/38
f 27/22/38 32/27/43 34/29/38
f 27/22/38 34/29/38 35/30/44
f 29/24/39 36/31/45 28/23/40
f 30/25/42 28/23/40 37/32/46
f 33/28/38 35/30/44 38/33/47
f 34/29/38 39/34/48 35/30/44
f 35/30/44 39/34/48 38/33/47
f 40/35/16 41/36/49 42/37/50
f 40/35/16 43/38/51 41/36/49
f 40/35/16 42/37/50 44/36/52
f 40/35/16 45/39/53 43/38/51
f 40/35/16 44/36/52 46/38/54
f 40/35/16 46/38/54 45/39/53
f 41/36/49 47/40/55 42/37/50
f 43/38/51 45/39/53 48/41/56
f 44/36/52 42/37/50 49/40/57
f 46/38/54 50/41/58 45/39/53
f 47/40/55 12/42/12 42/37/50
f 42/37/50 12/42/12 49/40/57
f 48/41/56 45/39/53 51/43/59
f 48/41/56 51/43/59 52/44/60
f 45/39/53 50/41/58 51/43/59
f 52/44/60 51/43/59 53/45/61
f 50/41/58 54/44/62 51/43/59
f 51/43/59 54/44/62 53/45/61
f 55/46/63 44/47/52 56/48/64
f 55/46/63 46/49/54 44/47/52
f 55/46/63 56/48/64 2/50/2
f 55/46/63 57/51/65 46/49/54
f 55/46/63 2/50/2 4/52/4
f 55/46/63 4/52/4 57/51/65
f 44/47/52 49/53/57 56/48/64
f 46/49/54 57/51/65 50/54/58
f 2/50/2 56/48/64 11/53/11
f 4/52/4 58/55/66 57/51/65
f 4/52/4 6/56/6 58/55/66
f 50/54/58 57/51/65 59/57/67
f 50/54/58 59/57/67 54/58/62
f 59/57/67 57/51/65 58/55/66
f 60/46/68 5/50/5 61/48/69
f 60/46/68 7/52/7 5/50/5
f 60/46/68 61/48/69 41/47/49
f 60/46/68 62/51/70 7/52/7
f 60/46/68 41/47/49 43/49/51
f 60/46/68 43/49/51 62/51/70
f 5/50/5 14/53/14 61/48/69
f 7/52/7 62/51/70 63/55/71
f 7/52/7 63/55/71 9/56/9
f 41/47/49 61/48/69 47/53/55
f 43/49/51 48/54/56 62/51/70
f 63/55/71 62/51/70 64/57/72
f 62/51/70 48/54/56 64/57/72
f 48/54/56 52/58/60 64/57/72
f 65/59/73 66/60/74 67/61/71
f 65/59/73 68/62/75 66/60/74
f 65/59/73 67/61/71 69/63/76
f 65/59/73 70/64/77 68/62/75
f 65/59/73 69/63/76 71/65/78
f 65/59/73 71/65/78 70/64/77
f 66/60/74 72/66/79 67/61/71
f 66/60/74 68/62/75 73/67/80
f 66/60/74 73/67/80 72/66/79
f 68/62/75 70/64/77 73/67/80
f 69/63/76 74/68/81 71/65/78
f 72/66/79 73/67/80 75/69/82
f 72/66/79 75/69/82 76/70/83
f 73/67/80 70/64/77 76/70/83
f 73/67/80 76/70/83 75/69/82
f 74/68/81 77/71/84 71/65/78
f 74/68/81 72/66/85 77/71/84
f 74/68/81 67/61/86 72/66/85
f 74/68/81 69/63/87 67/61/86
f 72/66/85 76/70/83 77/71/84
f 70/64/77 71/65/78 78/72/88
f 70/64/77 78/72/88 76/70/83
f 78/72/88 71/65/78 77/71/84
f 78/72/88 77/71/84 76/70/83
f 79/59/89 80/61/66 81/60/90
f 79/59/89 82/63/91 80/61/66
f 79/59/89 81/60/90 83/62/92
f 79/59/89 84/65/93 82/63/91
f 79/59/89 83/62/92 85/64/94
f 79/59/89 85/64/94 84/65/93
f 80/61/66 86/66/95 81/60/90
f 82/63/91 84/65/93 87/68/96
f 83/62/92 88/67/97 85/64/94
f 83/62/92 81/60/90 88/67/97
f 81/60/90 86/66/95 88/67/97
f 84/65/93 89/71/98 87/68/96
f 84/65/93 85/64/94 90/72/99
f 84/65/93 90/72/99 89/71/98
f 86/66/95 91/69/100 88/67/97
f 86/66/95 92/70/101 91/69/100
f 88/67/97 92/70/101 85/64/94
f 88/67/97 91/69/100 92/70/101
f 90/72/99 92/70/101 89/71/98
f 90/72/99 85/64/94 92/70/101
f 87/68/96 89/71/98 86/66/102
f 87/68/96 86/66/102 80/61/86
f 87/68/96 80/61/86 82/63/103
f 86/66/102 89/71/98 92/70/101
f 93/73/104 94/74/105 95/75/106
f 93/73/104 96/76/107 94/74/105
f 93/73/104 95/75/106 97/77/108
f 93/73/104 97/77/108 96/76/107
f 95/75/106 98/78/86 97/77/108
f 97/77/108 98/78/86 96/76/107
f 99/79/109 100/80/110 101/81/111
f 99/79/109 102/82/112 100/80/110
f 99/79/109 101/81/111 103/83/113
f 99/79/109 103/83/113 102/82/112
f 100/80/110 104/79/114 101/81/111
f 100/80/110 102/82/112 104/79/114
f 104/79/114 103/83/113 101/81/111
f 104/79/114 102/82/112 103/83/113
f 105/79/114 106/81/111 107/80/110
f 105/79/114 108/83/113 106/81/111
f 105/79/114 107/80/110 109/82/112
f 105/79/114 109/82/112 108/83/113
f 106/81/111 110/79/109 107/80/110
f 106/81/111 108/83/113 110/79/109
f 110/79/109 109/82/112 107/80/110
f 110/79/109 108/83/113 109/82/112
f 95/84/115 54/85/62 59/86/67
f 95/84/115 94/87/116 54/85/62
f 95/84/115 59/86/67 111/88/117
f 95/84/115 111/88/117 98/89/118
f 94/87/116 53/90/61 54/85/62
f 94/87/116 52/91/60 53/90/61
f 94/87/116 96/92/119 52/91/60
f 59/86/67 58/93/66 111/88/117
f 98/89/118 112/94/120 96/92/119
f 98/89/118 111/88/117 8/95/8
f 98/89/118 8/95/8 112/94/120
f 52/91/60 96/92/119 64/96/72
f 96/92/119 112/94/120 64/96/72
f 112/94/120 63/97/71 64/96/72
f 13/98/13 49/99/57 12/100/12
f 13/98/13 56/101/64 49/99/57
f 13/98/13 11/99/11 56/101/64
f 12/100/12 47/99/55 15/98/15
f 47/99/55 61/101/69 15/98/15
f 61/101/69 14/99/14 15/98/15
vt 1.08377 0.773031
vt 0.27012 0.755267
vt 0.702503 1.02304
vt -1.622 0.808606
o merged_1_0_node
g polygon_0
usemtl TEX_ANIM_EYE_mat_id
f 58/102/66 6/103/6 111/104/117
f 111/104/117 6/103/6 8/105/8
f 8/105/8 9/103/9 112/104/120
f 112/104/120 9/103/9 63/102/71
