mtllib Salamence_Normal.mtl
v 0 0.0214773 -0.0280103
vt 0 0.583954
vn 0 -0.9947051 0.10277
v -0.252572 0.0803059 0.0648754
vt -0.800445 0.436768
vn -0.6410634 -0.7674875 -0.0008514936
v -0.252572 0.0724239 -0.0813583
vt -0.800445 0.668488
vn -0.6705921 -0.7384751 0.0704328
v -0.118807 0.115546 0.234264
vt -0.376521 0.168357
vn -0.1246719 -0.7954186 0.5930987
v -0.118807 0.0544788 -0.291583
vt -0.376521 1.00161
vn -0.04826611 -0.9297571 -0.364996
v 0.118807 0.115546 0.234264
vt 0.376522 0.168357
vn 0.124672 -0.7954191 0.5930981
v 0.118807 0.0544788 -0.291583
vt 0.376522 1.00161
vn 0.04826611 -0.9297571 -0.364996
v 0.252572 0.0803059 0.0648755
vt 0.800446 0.436768
vn 0.641064 -0.767487 -0.000851392
v 0.252572 0.0724239 -0.0813582
vt 0.800446 0.668488
vn 0.6705921 -0.7384751 0.07043272
v -0.315539 -0.0020292 0.140568
vt -1 0.234779
vn -0.29989 -0.8901927 0.3429619
v -0.315539 0.000128239 -0.295527
vt -1 0.942904
vn -0.4140052 -0.8840984 -0.2167251
v 0.315539 -0.0020292 0.140568
vt 1 0.234779
vn 0.2998889 -0.8901927 0.3429629
v 0.315539 0.000128239 -0.295527
vt 1 0.942904
vn 0.4140048 -0.8840986 -0.2167249
v 0 0.313763 0.0763007
vt 0.955983 0.988996
vn 0 0.9999925 0.003875842
v -0.223064 0.274441 -0.178341
vn -0.5493516 0.8242424 -0.1372489
v -0.223064 0.274441 0.156567
vn -0.633596 0.76627 0.106707
v 0 0.286025 -0.299007
vn 0 0.9811448 -0.193274
v -0.111532 0.274441 0.207681
vn -0.44496 0.741346 0.502411
v 0.223064 0.274441 -0.178341
vn 0.5493516 0.8242424 -0.1372489
v 0 0.276715 0.495162
vn 0 0.4606519 0.8875809
v 0.223064 0.274441 0.156567
vn 0.633596 0.76627 0.106707
v 0.111532 0.274441 0.207681
vn 0.44496 0.741346 0.502411
v -0.276094 0.174255 0.171561
vn -0.9072991 0.259842 0.330591
v -0.138047 0.174255 -0.268561
vn -0.6463827 0.2655449 -0.7153147
v -0.276094 0.174255 -0.208491
vn -0.9114038 0.3578929 -0.203115
v 0.276094 0.174255 0.171561
vn 0.9072991 0.259842 0.330591
v 0.138047 0.174255 -0.268561
vn 0.724706 0.117634 -0.678943
v 0.276094 0.174255 -0.208491
vn 0.9114038 0.3578929 -0.203115
v 0 0.243825 -0.586178
vn 0 0.9956036 -0.09366657
v -0.0721189 0.175625 -0.577751
vn -0.983145 -0.0778046 -0.165446
v 0 0.0826505 -0.32863
vn 0.197407 -0.9315901 -0.305238
v 0 0.174255 0.274685
vn 0 -0.612528 0.7904489
v 0 0.240344 -0.944809
vn 1.19166E-06 0.1636189 -0.9865236
v 0.0721189 0.175625 -0.577751
vn 0.9056358 -0.3928519 -0.15966
v -0.2296189 0.3776065 -0.009838352
vt 0.462676 0.0313778
vn -0.3315781 -0.9184407 0.2156912
v -0.332223 0.4526817 0.1783308
vn -0.3177739 -0.9277952 0.1954882
v -0.467964 0.4719671 0.0505712
v -0.4981613 0.4420842 -0.1412815
vn -0.3293976 -0.9099889 0.251828
v -0.2100447 0.3413503 -0.121464
vn -0.3380227 -0.9026982 0.266227
v -0.08046011 0.3053405 -0.05533913
vn -0.3671559 -0.9016628 0.2284745
v -0.09024692 0.323468 0.0004736487
v -0.4126906 0.359509 -0.3031222
vn -0.3339056 -0.8992545 0.2825745
v -0.2414921 0.2846208 -0.3390953
vn 0.3394303 0.9043424 -0.2587508
vn 0.3338967 0.8992609 -0.2825647
vn 0.3250463 0.9174668 -0.2293461
vn 0.327596 0.9213353 -0.2093372
vn 0.3671559 0.9016628 -0.2284745
vn 0.3177111 0.9277718 -0.1957013
v 0.22962 0.3776074 -0.009838897
vn 0.3315761 -0.9184417 0.2156901
v 0.467967 0.4719692 0.05056943
vn 0.3177717 -0.9277962 0.1954872
v 0.3322249 0.4526827 0.1783278
v 0.4981646 0.4420868 -0.141281
vn 0.3293955 -0.90999 0.2518266
v 0.2100456 0.3413514 -0.1214631
vn 0.3380208 -0.9026992 0.2662255
v 0.08045987 0.3053406 -0.05533882
vn 0.3671547 -0.9016642 0.2284714
v 0.09024677 0.3234681 0.0004732514
v 0.4126931 0.3595116 -0.3031195
vn 0.3339037 -0.8992556 0.2825731
v 0.2414932 0.2846225 -0.3390918
vn -0.3394284 0.9043434 -0.2587495
vn -0.3338949 0.8992623 -0.2825623
vn -0.3250442 0.9174678 -0.2293449
vn -0.3275939 0.9213364 -0.2093361
vn -0.3671546 0.9016639 -0.2284723
vn -0.3177089 0.9277728 -0.1957003
v 0 0.113266 -0.63782
vt 0.574035 0.000481546
vn 0.169391 -0.9527379 -0.252185
vt 0.488876 0.0745518
vt 0.804547 0.067071
vt 0.0271863 0.000481538
vt 0.0406782 0.116299
v 0.365686 0.158463 0.371486
vt 0.89436 0.901547
vn -0.3794068 -0.8179007 0.4325378
v 0.239829 0.347327 0.411609
vn -0.8364919 -0.5446889 -0.05996109
v 0.278158 0.325197 0.405628
vn 0.8820976 0.4698858 -0.03333439
v 0.241355 0.337999 0.563444
vn -0.6968267 -0.6903957 0.1943869
v 0.411408 0.6398031 0.371486
vn 0.493351 0.391476 0.7767569
vn 0.8119841 -0.5142251 -0.276142
v 0.20664 0.371031 0.419697
vn -0.7857848 0.6131809 0.08094168
vn 0.4284989 0.3005269 0.8520988
v 0.477002 0.386918 0.371486
vn 0.501456 0.6116529 0.6119009
vn -0.166373 0.9860069 -0.0105169
vn 0.161447 0.8906069 0.425152
vn 0.2781599 -0.9546845 -0.1058519
v -0.365686 0.158463 0.371486
vn 0.3794058 -0.8179006 0.4325388
v -0.278158 0.325197 0.405628
vn -0.882098 0.469885 -0.0333341
v -0.239829 0.347327 0.411609
vn 0.8364919 -0.5446889 -0.05996129
v -0.241355 0.337999 0.563444
vn 0.6968267 -0.6903957 0.1943869
v -0.411408 0.6398031 0.371486
vn -0.4933531 0.3914731 0.7767571
v -0.20664 0.371031 0.419697
vn 0.7857844 0.6131814 0.08094145
vn -0.8119844 -0.5142252 -0.2761411
vn -0.4284989 0.3005269 0.8520988
v -0.477002 0.386918 0.371486
vn -0.5014549 0.6116529 0.6119019
vn -0.161447 0.8906069 0.425152
vn 0.166373 0.9860069 -0.0105169
vn -0.2781599 -0.9546845 -0.1058519
vt 0.945235 0.454067
vt 0.945235 0.769669
vt 0.945235 0.687693
vt 0.945235 0.749004
vt 0.965376 0.450157
vt 0.965376 0.749618
vt 0.965376 0.769669
vt 0.965376 0.701019
vt 0.993864 0.000460718
vt 0.0826685 0.0451517
vt 0.817779 0.110166
o merged_0_0_node
g polygon_0
usemtl mat_body1_mat_id
f 1/1/1 2/2/2 3/3/3
f 1/1/1 4/4/4 2/2/2
f 1/1/1 3/3/3 5/5/5
f 1/1/1 6/6/6 4/4/4
f 1/1/1 5/5/5 7/7/7
f 1/1/1 8/8/8 6/6/6
f 1/1/1 7/7/7 9/9/9
f 1/1/1 9/9/9 8/8/8
f 2/2/2 4/4/4 10/10/10
f 3/3/3 11/11/11 5/5/5
f 6/6/6 8/8/8 12/12/12
f 7/7/7 13/13/13 9/9/9
f 14/14/14 15/14/15 16/14/16
f 14/14/14 17/14/17 15/14/15
f 14/14/14 16/14/16 18/14/18
f 14/14/14 19/14/19 17/14/17
f 14/14/14 18/14/18 20/14/20
f 14/14/14 21/14/21 19/14/19
f 14/14/14 20/14/20 22/14/22
f 14/14/14 22/14/22 21/14/21
f 15/14/15 23/14/23 16/14/16
f 15/14/15 17/14/17 24/14/24
f 15/14/15 25/14/25 23/14/23
f 15/14/15 24/14/24 25/14/25
f 16/14/16 23/14/23 18/14/18
f 19/14/19 21/14/21 26/14/26
f 19/14/19 27/14/27 17/14/17
f 19/14/19 26/14/26 28/14/28
f 19/14/19 28/14/28 27/14/27
f 21/14/21 22/14/22 26/14/26
f 24/14/24 17/14/17 29/14/29
f 24/14/24 29/14/29 30/14/30
f 24/14/24 31/14/31 5/14/5
f 17/14/17 27/14/27 29/14/29
f 25/14/25 3/14/3 23/14/23
f 18/14/18 23/14/23 32/14/32
f 22/14/22 32/14/32 26/14/26
f 28/14/28 26/14/26 9/14/9
f 30/14/30 29/14/29 33/14/33
f 31/14/31 7/14/7 5/14/5
f 31/14/31 27/14/27 7/14/7
f 3/14/3 2/14/2 23/14/23
f 32/14/32 6/14/6 26/14/26
f 32/14/32 23/14/23 4/14/4
f 32/14/32 4/14/4 6/14/6
f 9/14/9 26/14/26 8/14/8
f 29/14/29 34/14/34 33/14/33
f 29/14/29 27/14/27 34/14/34
f 35/15/35 36/15/36 37/15/36
f 35/15/35 37/15/36 38/15/37
f 35/15/35 38/15/37 39/15/38
f 35/15/35 39/15/38 40/15/39
f 35/15/35 40/15/39 41/15/39
f 38/15/37 42/15/40 39/15/38
f 42/15/40 43/15/40 39/15/38
f 39/15/41 43/15/42 42/15/42
f 39/15/41 42/15/42 38/15/43
f 39/15/41 38/15/43 35/15/44
f 39/15/41 35/15/44 41/15/45
f 39/15/41 41/15/45 40/15/45
f 38/15/43 37/15/46 35/15/44
f 37/15/46 36/15/46 35/15/44
f 44/15/47 45/15/48 46/15/48
f 44/15/47 47/15/49 45/15/48
f 44/15/47 48/15/50 47/15/49
f 44/15/47 49/15/51 48/15/50
f 44/15/47 50/15/51 49/15/51
f 47/15/49 48/15/50 51/15/52
f 48/15/50 52/15/52 51/15/52
f 48/15/53 51/15/54 52/15/54
f 48/15/53 47/15/55 51/15/54
f 48/15/53 44/15/56 47/15/55
f 48/15/53 50/15/57 44/15/56
f 48/15/53 49/15/57 50/15/57
f 47/15/55 44/15/56 45/15/58
f 44/15/56 46/15/58 45/15/58
f 53/16/59 30/17/30 33/18/33
f 53/16/59 31/19/31 30/17/30
f 53/16/59 33/18/33 34/17/34
f 53/16/59 34/17/34 31/19/31
f 30/17/30 31/19/31 24/20/24
f 34/17/34 27/20/27 31/19/31
f 54/21/60 55/21/61 56/21/62
f 54/21/60 57/21/63 55/21/61
f 54/21/60 56/21/62 57/21/63
f 58/21/64 55/21/65 59/21/66
f 58/21/64 57/21/67 55/21/65
f 58/21/64 59/21/66 57/21/67
f 60/21/68 55/21/69 57/21/70
f 60/21/68 56/21/71 55/21/69
f 60/21/68 57/21/70 56/21/71
f 61/21/72 62/21/73 63/21/74
f 61/21/72 64/21/75 62/21/73
f 61/21/72 63/21/74 64/21/75
f 65/21/76 66/21/77 63/21/78
f 65/21/76 64/21/79 66/21/77
f 65/21/76 63/21/78 64/21/79
f 67/21/80 64/21/81 63/21/82
f 67/21/80 62/21/83 64/21/81
f 67/21/80 63/21/82 62/21/83
f 11/22/11 24/23/24 5/24/5
f 11/22/11 25/23/25 24/23/24
f 11/22/11 3/25/3 25/23/25
f 13/22/13 28/23/28 9/25/9
f 13/22/13 27/23/27 28/23/28
f 13/22/13 7/24/7 27/23/27
f 10/26/10 4/27/4 23/28/23
f 10/26/10 23/28/23 2/29/2
f 12/26/12 26/28/26 6/27/6
f 12/26/12 8/29/8 26/28/26
f 32/30/32 20/31/20 18/32/18
f 32/30/32 22/32/22 20/31/20
v 0 0.233753 0.6183619
vt 0 0.278009
vn 0 0.58045 0.8142959
v 0.135173 0.159483 0.657383
vt 0.516468 0.109815
vn 0.03688738 0.5165788 0.8554447
vt 0.918574 0.53002
vn -0.03800811 -0.8085301 0.5872261
v 0 0.132757 0.709509
vt 0 0.0079758
vn 0 0.6699817 0.7423776
v 0 0.341714 0.529052
vt 0 0.557851
vn 0 -0.7611628 0.6485608
v -0.135173 0.159483 0.657383
vt -0.516468 0.109815
vn -0.03688718 0.5165788 0.8554447
vt -0.918574 0.53002
vn 0.03800831 -0.8085301 0.5872261
v 0.150484 0.316709 0.748915
vt 0.7584 0.710456
vn 0.01677169 -0.9921017 -0.12431
v -0.150484 0.316709 0.748915
vt -0.7584 0.710456
vn -0.01677169 -0.9921017 -0.12431
v 0 0.301366 0.8313379
vt 0 0.731493
vn 0 -0.9912093 -0.132303
v 0 0.164624 0.459084
vt 0.621132 0.112184
vn 0 -0.87161 -0.4902
v 0.167346 0.217094 0.5028859
vt 0.637449 0.228212
vn 0.6653779 -0.7066519 -0.240656
v 0 0.122789 0.57233
vt 0.621132 0.0817175
vn 0 -0.9803162 -0.197434
v 0.162507 0.269695 0.396977
vt 0.795267 0.172337
vn 0.507079 -0.642062 -0.575002
v -0.167346 0.217094 0.5028859
vn -0.6653779 -0.7066519 -0.240656
v 0 0.280645 0.31777
vt 0.863086 0.157749
vn 0 -0.5873229 -0.8093528
v -0.162507 0.269695 0.396977
vn -0.5655433 -0.5958153 -0.5702323
vt 0.621132 0.175385
vn 0.5046641 -0.8556241 -0.114985
vt 0.753715 0.246662
vn 0.9641931 -0.245944 0.09921271
vn -0.9629422 -0.2632651 0.05859951
vn -0.5046641 -0.8556241 -0.114985
vt 0.621132 0.107162
vn 0 -0.9973707 0.07246978
v -0.100435 0.394271 0.294094
vt 0.914745 0.960874
vn -0.272145 0.006272879 -0.9622359
v 0.100435 0.394271 0.294094
vn 0.301308 -0.0171347 -0.9533729
v -0.239829 0.394271 0.411609
vn -0.8976358 -0.0252363 -0.4400149
v 0.142414 0.525444 0.341278
vn 0.3750911 0.6883093 -0.6209162
v -0.142414 0.525444 0.341278
vn -0.319312 0.6636701 -0.676448
v 0.0758258 0.57911 0.536027
vn -0.05807813 0.9979334 -0.02749241
v -0.209245 0.524693 0.528814
vn -0.9070897 0.4199258 0.02916509
v -0.0758258 0.57911 0.536027
vn 0.06845747 0.9970545 0.03458219
vn 0.8960761 -0.100942 -0.4322711
v -0.235155 0.415226 0.563444
vn -0.937521 0.210108 0.277325
vn -0.7666645 -0.02554299 0.6415396
v 0.0898209 0.513373 0.723317
vn 0.003768391 0.7951531 0.606397
v -0.0898209 0.513373 0.723317
v 0.209245 0.524693 0.528814
vn 0.9203165 0.3907508 -0.01820319
v 0 0.408851 0.794026
vn 0 0.4293779 0.9031249
v -0.137182 0.41808 0.769514
vn -0.664242 0.187374 0.723653
v 0.235155 0.415226 0.563444
vn 0.9454469 0.211188 0.248052
vn 0.7666645 -0.02554299 0.6415396
v 0.137182 0.41808 0.769514
vn 0.664242 0.187374 0.723653
v -0.155281 0.5837101 0.613305
vt 0.95436 0.10035
vn -0.254283 0.9251021 0.282004
v -0.150282 0.588076 0.449612
vn -0.302969 0.8905271 -0.339369
v -0.157427 0.532514 0.699428
vn -0.8137459 0.324657 0.4820949
v 0.155281 0.5837101 0.613305
vn 0.254283 0.9251021 0.282004
v 0.150282 0.588076 0.449612
vn 0.3029699 0.8905268 -0.3393689
v 0.157427 0.532514 0.699428
vn 0.8137459 0.324657 0.4820949
v 0.0814186 0.20359 0.706761
vt 0.932801 0.0300972
vn 0.2528351 0.6478202 0.7186122
v 0.0501376 0.15179 0.6783969
vn -0.4760469 -0.18347 0.8600687
v 0.0899268 0.156133 0.6604819
vn 0.9784024 -0.02471901 0.2052261
v 0.0572789 0.182646 0.648067
vn -0.2150029 0.9444476 -0.2485809
v 0.0744907 0.266219 0.754259
vn 0.08348163 -0.9398994 -0.3310891
v 0.0570562 0.33073 0.753531
vn -0.4169369 -0.122852 -0.9005948
v 0.0945538 0.326212 0.775813
vn 0.9537455 -0.2880199 -0.08610456
v 0.0563724 0.316109 0.7948669
vn -0.4419317 -0.6573386 0.6104116
v -0.0814186 0.20359 0.706761
vn -0.2528349 0.6478207 0.7186117
v -0.0899267 0.156133 0.6604819
vn -0.9784024 -0.02471881 0.2052261
v -0.0501376 0.15179 0.6783969
vn 0.4760469 -0.183469 0.8600689
v -0.0572789 0.182646 0.648067
vn 0.215005 0.9444471 -0.248581
v -0.0744907 0.266219 0.754259
vn -0.08348212 -0.9398993 -0.3310891
v -0.0945538 0.326212 0.775813
vn -0.9537456 -0.2880199 -0.08610407
v -0.0570562 0.33073 0.753531
vn 0.4169369 -0.122852 -0.9005948
v -0.0563724 0.316109 0.7948669
vn 0.441932 -0.657338 0.610412
vt 0.0476987 0.838565
vn 0 0.1430431 0.9897165
vt 0.683706 1.14183
vt 0.74538 0.878432
o merged_1_0_node
g polygon_0
usemtl mat_kao1_mat_id
f 68/33/84 69/34/85 57/35/86
f 68/33/84 70/36/87 69/34/85
f 68/33/84 57/35/86 71/37/88
f 68/33/84 72/38/89 70/36/87
f 68/33/84 71/37/88 64/39/90
f 68/33/84 64/39/90 72/38/89
f 57/35/86 73/40/91 71/37/88
f 64/39/90 71/37/88 74/41/92
f 73/40/91 75/42/93 71/37/88
f 71/37/88 75/42/93 74/41/92
f 76/43/94 77/44/95 78/45/96
f 76/43/94 79/46/97 77/44/95
f 76/43/94 78/45/96 80/44/98
f 76/43/94 81/47/99 79/46/97
f 76/43/94 80/44/98 82/46/100
f 76/43/94 82/46/100 81/47/99
f 77/44/95 69/48/101 78/45/96
f 77/44/95 79/46/97 57/49/102
f 77/44/95 57/49/102 69/48/101
f 80/44/98 64/49/103 82/46/100
f 80/44/98 78/45/96 72/48/104
f 80/44/98 72/48/104 64/49/103
f 69/48/101 70/50/105 78/45/96
f 78/45/96 70/50/105 72/48/104
f 83/51/106 81/51/99 82/51/100
f 83/51/106 84/51/107 81/51/99
f 83/51/106 82/51/100 85/51/108
f 83/51/106 86/51/109 84/51/107
f 83/51/106 85/51/108 87/51/110
f 83/51/106 87/51/110 86/51/109
f 81/51/99 84/51/107 79/51/97
f 82/51/100 64/51/103 85/51/108
f 87/51/110 88/51/111 86/51/109
f 87/51/110 85/51/108 89/51/112
f 87/51/110 90/51/113 88/51/111
f 84/51/107 55/51/114 79/51/97
f 84/51/107 86/51/109 55/51/114
f 64/51/103 91/51/115 85/51/108
f 64/51/103 74/51/116 91/51/115
f 91/51/115 89/51/112 85/51/108
f 90/51/113 92/51/117 88/51/111
f 90/51/113 93/51/117 92/51/117
f 79/51/97 55/51/114 57/51/102
f 86/51/109 94/51/118 55/51/114
f 93/51/117 95/51/119 92/51/117
f 93/51/117 96/51/120 95/51/119
f 57/51/102 55/51/114 97/51/121
f 57/51/102 97/51/121 73/51/122
f 97/51/121 55/51/114 94/51/118
f 92/51/117 95/51/119 98/51/123
f 99/52/124 90/52/113 100/52/125
f 99/52/124 93/52/117 90/52/113
f 99/52/124 100/52/125 89/52/112
f 99/52/124 101/52/126 93/52/117
f 99/52/124 89/52/112 101/52/126
f 90/52/113 87/52/110 100/52/125
f 100/52/125 87/52/110 89/52/112
f 93/52/117 101/52/126 96/52/120
f 96/52/120 101/52/126 89/52/112
f 102/52/127 94/52/118 103/52/128
f 102/52/127 104/52/129 94/52/118
f 102/52/127 103/52/128 88/52/111
f 102/52/127 92/52/117 104/52/129
f 102/52/127 88/52/111 92/52/117
f 94/52/118 86/52/109 103/52/128
f 94/52/118 104/52/129 98/52/123
f 98/52/123 104/52/129 92/52/117
f 103/52/128 86/52/109 88/52/111
f 105/53/130 106/53/131 107/53/132
f 105/53/130 108/53/133 106/53/131
f 105/53/130 107/53/132 108/53/133
f 109/53/134 110/53/135 111/53/136
f 109/53/134 112/53/137 110/53/135
f 109/53/134 111/53/136 112/53/137
f 113/53/138 114/53/139 115/53/140
f 113/53/138 116/53/141 114/53/139
f 113/53/138 115/53/140 116/53/141
f 117/53/142 118/53/143 119/53/144
f 117/53/142 120/53/145 118/53/143
f 117/53/142 119/53/144 120/53/145
f 75/54/146 98/54/123 95/54/119
f 75/54/146 95/54/119 96/54/120
f 75/54/146 96/55/120 74/56/116
f 75/54/146 73/56/122 98/55/123
vt 0.0545608 0.753319
vt 0.938745 0.870732
vt -0.0436409 0.874133
vt 1.10384 1.0012
o merged_2_0_node
g polygon_0
usemtl TEX_ANIM_EYE_mat_id
f 73/57/122 97/58/121 98/59/123
f 98/59/123 97/58/121 94/60/118
f 74/57/116 96/59/120 91/58/115
f 89/60/112 91/58/115 96/59/120
