mtllib Bunnelby.mtl
v 0 0.272545 0
vt 0.129362 0.878117
vn -0.0209699 0.999363 -0.0288773
v 0.0558702 0.2 -0.134883
vt 0.159298 0.95039
vn 0.174639 0.8955259 -0.40931
v -0.0332407 0.2 -0.134883
vt 0.111551 0.95039
vn -0.00314692 0.8810192 -0.4730701
v 0.122185 0.2 -0.0685675
vt 0.194831 0.914857
vn 0.335818 0.880886 -0.333566
v -0.0336158 0.215439 -0.102615
vt 0.11135 0.9331
vn -0.1659949 0.8837877 -0.4374529
v 0.101777 0.214064 -0.0492666
vt 0.183895 0.904515
vn 0.4172281 0.8882032 -0.192395
v -0.0519358 0.2 -0.127783
vt 0.101534 0.946586
vn -0.3826128 0.8615706 -0.3336219
v 0.128755 0.2 -0.0543383
vt 0.198351 0.907233
vn 0.4365202 0.8871024 -0.1499981
v -0.1287 0.2 -0.0385578
vt 0.0529654 0.94484
v 0.141488 0.2 -0.0172331
vt 0.205173 0.887351
v -0.111291 0.212689 -0.0230491
vt 0.0697303 0.890467
vn -0.4569529 0.8847877 -0.09134978
v 0.113722 0.218551 -0.00860913
vt 0.190296 0.88273
vn 0.4234602 0.9031583 -0.07061562
v -0.133028 0.2 -0.0173123
vt 0.0612133 0.84133
vn -0.4748969 0.8793219 -0.0355803
v 0.143689 0.2 -0.00435574
vt 0.206353 0.880451
vn 0.4470259 0.8739728 0.190629
v -0.136766 0.2 0.0261217
vt 0.0581423 0.845727
vn -0.4710977 0.8819115 -0.01729639
v 0.102702 0.2 0.0932662
vt 0.184391 0.828143
v -0.103015 0.211562 0.0263936
vt 0.0751956 0.854778
vn -0.4824248 0.8674806 0.1214239
v 0.0729721 0.214713 0.0752745
vt 0.168462 0.837784
vn 0.3423922 0.8755825 0.3407682
v -0.132999 0.2 0.0400301
vt 0.0580984 0.856668
vn -0.4001679 0.8781998 0.2619749
v 0.0912198 0.2 0.104684
vt 0.178239 0.822026
vn 0.240042 0.8838248 0.4015389
v -0.0764257 0.2 0.123441
vt 0.0884116 0.811975
v 0.0501822 0.2 0.129679
vt 0.15625 0.808633
v -0.0523934 0.216852 0.0984185
vt 0.101288 0.825383
vn -0.170685 0.8937251 0.4148761
v 0.0327128 0.215425 0.102659
vt 0.14689 0.823111
vn 0.135632 0.8834999 0.4483659
v -0.0584534 0.2 0.130823
vt 0.0980414 0.80802
vn -0.02263141 0.8785694 0.4770782
v 0.0330443 0.2 0.134883
vt 0.147067 0.805845
v 0 0.249126 0
vn 0.0141977 -0.999697 0.0201076
vn 0.287773 -0.9377067 -0.1946609
vn 0.10988 -0.9603009 -0.256415
vn 0.3214841 -0.9428912 -0.08720221
vn 0 -0.9332637 -0.3591919
vn 0.3425182 -0.9391185 0.02716121
vn 0.02194589 -0.9376516 -0.3468829
vn 0.3459509 -0.9382436 0.004118429
vn -0.08944859 -0.9544009 -0.284812
vn 0.3001259 -0.9522408 0.05623199
vn -0.186518 -0.9404771 -0.284102
vn 0.2784151 -0.9269052 0.2516581
vn -0.1717899 -0.9409086 -0.2918549
vn 0.287431 -0.927326 0.239687
vn -0.2179979 -0.9501225 -0.2230339
vn 0.106542 -0.954522 0.278454
vn -0.3257961 -0.9358683 -0.134192
vn -0.007295243 -0.9390145 0.3438002
vn -0.3238611 -0.9337432 -0.152439
vn -0.125163 -0.9477763 0.2933501
vn -0.2567359 -0.9657205 0.03834738
vn -0.2380031 -0.9389143 0.2485851
vn -0.308195 -0.9396799 0.148383
vn -0.2704529 -0.9550976 0.121012
vn -0.3206769 -0.9426707 0.09240308
v 0 0.250905 0.133328
vt 0.162202 0.168922
vn 0 -0.9855154 0.1695861
v -0.102945 0.2351 -0.00844712
vt 0.18849 0.165991
v 0 0.218297 -0.00844712
vt 0.18849 0.162876
vn 0 -0.9997503 0.02234411
v -0.120706 0.235437 0.0865961
vt 0.170867 0.166054
vn -0.3069179 -0.9482646 0.08121407
v 0.102945 0.2351 -0.00844712
vn 0.3299372 -0.9306704 -0.1580951
v -0.0540058 0.242462 0.145482
vt 0.159948 0.167357
vn 0.04105622 -0.9611585 0.2729262
v 0.120706 0.235437 0.0865961
vn 0.3069179 -0.9482646 0.08121407
v -0.0173679 0.272025 0.192472
vt 0.151236 0.172838
vn -0.07102232 -0.4691441 0.8802612
v 0.0540058 0.242462 0.145482
vn -0.04105619 -0.9611586 0.2729259
v 0 0.279835 0.185187
vt 0.152586 0.174286
vn 0 -0.6297312 0.7768131
v 0.0173679 0.272025 0.192472
vn 0.07102221 -0.4691441 0.8802612
v 0 0.245156 -0.124169
vt 0.209947 0.167856
vn 0 -0.8597586 -0.5107008
v -0.171332 0.287102 -0.00844712
vt 0.18849 0.175634
vn -0.889788 -0.393695 -0.230828
v -0.11598 0.305055 -0.142972
vt 0.213433 0.178963
vn -0.606103 -0.511081 -0.609455
v -0.106404 0.255495 0.156208
vt 0.15796 0.169773
vn -0.5235569 -0.5575919 0.6441889
v 0.106404 0.255495 0.156208
vn 0.5235569 -0.5575919 0.6441889
v 0.171332 0.287102 -0.00844712
vn 0.889788 -0.393695 -0.230828
v 0.169037 0.293451 0.0971601
vt 0.168908 0.176811
vn 0.9407025 -0.1085639 0.3213919
v -0.171954 0.376836 -0.00844712
vt 0.18849 0.192272
vn -0.9938292 0.08733162 -0.06838691
v -0.169037 0.293451 0.0971601
vn -0.9407028 -0.108564 0.3213909
v 0.11598 0.305055 -0.142972
vn 0.606103 -0.511081 -0.609455
v 0 0.322679 -0.187442
vt 0.221679 0.18223
vn 0 -0.2589019 -0.9659036
v -0.0918411 0.306605 0.178695
vt 0.15379 0.17925
vn -0.5014468 0.03874558 0.8643205
v 0.0918411 0.306605 0.178695
vn 0.5014468 0.03874558 0.8643205
v 0.171954 0.376836 -0.00844712
vn 0.9938292 0.08733152 -0.06838682
v 0.130092 0.352508 0.123547
vt 0.164016 0.187761
vn 0.8174726 0.1872269 0.5446877
v -0.124306 0.384325 -0.152168
vt 0.215138 0.193661
vn -0.7132409 0.05262129 -0.6989409
v -0.130092 0.352508 0.123547
vn -0.8174726 0.1872269 0.5446877
v -0.10825 0.463595 -0.14041
vt 0.212958 0.208359
vn -0.595241 0.529447 -0.604462
v -0.121823 0.463595 0.117806
vt 0.16508 0.208359
vn -0.649407 0.4512619 0.6120729
v -0.161827 0.463595 -0.00844712
vt 0.18849 0.208359
vn -0.920838 0.387174 -0.0464073
v 0.121823 0.463595 0.117806
vn 0.649407 0.4512619 0.6120729
v 0.071163 0.328246 0.16522
vt 0.155524 0.183847
vn 0.4036651 0.3042561 0.8628342
v 0.124306 0.384325 -0.152168
vn 0.7132409 0.05262139 -0.6989409
v -0.0994681 0.537097 -0.00844712
vt 0.18849 0.221988
vn -0.513212 0.857909 -0.0246111
v 0 0.442226 -0.180074
vt 0.220313 0.204397
vn 0 0.301415 -0.9534931
v 0 0.523362 -0.11668
vt 0.208558 0.219441
vn 0 0.8437555 -0.5367277
v -0.071163 0.328246 0.16522
vn -0.4036651 0.3042561 0.8628342
v 0.161827 0.463595 -0.00844712
vn 0.920838 0.387174 -0.0464074
v 0.0994681 0.537097 -0.00844712
vn 0.513212 0.857909 -0.0246111
v 0 0.542084 0.091021
vt 0.170046 0.222912
vn 0 0.8750851 0.4839691
v 0 0.463595 0.168267
vt 0.155724 0.208359
vn 0 0.425399 0.9050059
v 0.10825 0.463595 -0.14041
vn 0.595241 0.529447 -0.604462
v 0 0.553275 -0.00844712
vt 0.18849 0.224987
vn 0 0.9961004 -0.08822684
v 0 0.340745 0.207895
vt 0.989414 0.651146
vn 0 0.2391111 0.9709922
vt 0.945798 0.534039
vt 0.989414 0.541498
vt 0.782057 0.620493
vt 0.826538 0.693085
v 0 0.356518 0.181814
vt 0.989414 0.734586
vn 0 0.2795081 0.9601433
v 0.164441 0.760834 -0.0552835
vt 0.560178 0.496669
vn -0.0296444 -0.07337269 -0.9968639
v 0.0775558 0.545785 0
vt 0.560178 0
vn -0.3728101 -0.9227363 -0.09782873
v 0.064033 0.7759961 -0.0298905
vt 0.348659 0.446228
vn -0.7341951 0.118782 -0.6684672
v 0.247201 0.701991 -0.0298905
vn 0.610649 -0.42457 -0.668467
v 0.128462 0.906337 -0.0180066
vt 0.372023 0.745361
vn -0.661917 0.526921 -0.533123
v 0.291398 0.840507 -0.0180066
vn 0.842172 -0.0807708 -0.533125
v 0.186439 0.893465 -0.0162729
vt 0.49746 0.766639
vn 0.143392 0.4581828 -0.8772156
v 0.240751 0.8715221 -0.0162728
vn 0.2151329 0.4291978 -0.8772156
v 0.064033 0.7759961 0.0298905
vt 0.234985 0.446228
vn -0.6810179 0.08066709 0.72781
v 0.247201 0.701991 0.0298905
vn 0.5459191 -0.415048 0.7278101
v 0.124554 0.896666 0.0408572
vt 0.243791 0.745361
vn -0.7717685 0.4339197 0.4648516
v 0.28749 0.830836 0.0408572
vn 0.85659 -0.22398 0.464851
v 0.182531 0.8837941 0.042591
vt 0.0690325 0.766638
vn 0.03196439 0.04963658 0.9982557
vt 0.19447 0.745361
vt 0.217833 0.446228
v 0.160647 0.907814 0.0147287
vt 0.131751 0.785903
vn 0.2185009 0.9605017 0.172319
v 0.161395 0.7532951 0.0183802
vt 0.00631416 0.530301
vn -0.04197429 -0.10389 0.9937027
v 0.236843 0.86185 0.042591
vt -0.0564044 0.766639
vn 0.0114871 0.05791118 0.9982557
v 0.218624 0.894942 0.0164625
vt 0.00631416 0.80718
vn 0.368855 0.912962 0.174489
vt 0.00631416 0
vt -0.205205 0.446228
v 0.269271 0.863927 0.0147288
vt -0.119123 0.785903
vn 0.5100489 0.8427078 0.172319
vt -0.181842 0.745361
v -0.164441 0.760834 -0.0552835
vn -0.0335929 0.08314521 -0.9959711
v -0.064033 0.7759961 -0.0298905
vn 0.5464949 0.09361447 -0.8322138
v -0.0775558 0.545785 0
vn 0.331161 -0.8196509 0.467445
v -0.128462 0.906337 -0.0180066
vn 0.192293 0.5792301 -0.7921591
v -0.247201 0.701991 -0.0298905
vn -0.4581457 -0.3122868 -0.8322135
v -0.186439 0.893465 -0.0162729
vn -0.2084709 0.6827238 -0.7003058
v -0.291398 0.840507 -0.0180066
vn -0.5406919 0.283084 -0.7921589
v -0.240751 0.8715221 -0.0162728
vn -0.3242981 0.6359272 -0.7003052
v -0.064033 0.7759961 0.0298905
vn 0.174821 -0.08130229 0.9812378
v -0.124554 0.896666 0.0408572
vn 0.2223909 0.4625008 0.8582746
v -0.28749 0.830836 0.0408572
vn -0.4812559 0.178209 0.8582739
v -0.247201 0.701991 0.0298905
vn -0.06927837 -0.1799249 0.9812377
v -0.182531 0.8837941 0.042591
vn -0.07777627 0.2172449 0.9730136
v -0.161395 0.7532951 0.0183802
vn 0.0488123 -0.120815 0.9914742
v -0.160647 0.907814 0.0147287
vn -0.221736 0.9565428 0.189365
v -0.236843 0.86185 0.042591
vn -0.09496374 0.2103021 0.9730133
v -0.218624 0.894942 0.0164625
vn -0.366452 0.907015 0.207453
v -0.269271 0.863927 0.0147288
vn -0.504972 0.842107 0.189365
v 0.0477949 0.217188 -0.0784182
vt 0.215112 0.103642
vn 0.4227569 0.4708759 -0.7743078
v 0.068506 0.086288 -0.121027
vt 0.22776 0.0628488
vn 0.410951 0.24579 -0.877899
v -0.068506 0.086288 -0.121027
vn -0.410951 0.24579 -0.877899
v 0.125619 0.115323 2.09728E-05
vt 0.193001 0.0724271
vn 0.9628122 0.1713111 -0.208914
v -0.0477949 0.217188 -0.0784182
vn -0.422756 0.4708761 -0.7743081
v 0.0865731 0.217188 0
vt 0.191782 0.103642
vn 0.7921368 0.5432179 -0.2782689
v 0 0.229166 0
vt 0.191782 0.107436
vn 0 0.9999994 -0.00108297
v -0.065071 0.03216 -0.123235
vt 0.228417 0.0457036
vn -0.2652639 -0.5855317 -0.7660207
v 0.065071 0.03216 -0.123235
vn 0.2652639 -0.5855317 -0.7660207
v 0.117513 0.172038 0.134607
vt 0.165598 0.0923645
vn 0.72256 0.165559 0.671191
v 0.0670263 0.0956717 0.11805
vt 0.159148 0.0668701
vn 0.240879 -0.04857439 0.9693389
v -0.0865732 0.217188 0
vn -0.7921366 0.5432178 -0.2782699
v -0.125619 0.115323 2.09727E-05
vt 0.192999 0.07239
vn -0.9628122 0.1713111 -0.208914
v 0 0.0169234 0
vt 0.191782 0.0402083
vn 0 -0.9999998 0.0007003789
v 0.0478503 0.217276 0.081915
vt 0.167412 0.101685
vn 0.04904082 0.5995342 0.7988453
v -0.117513 0.172038 0.134607
vt 0.165613 0.0924439
vn -0.72256 0.165559 0.671191
v -0.0670263 0.0956717 0.11805
vt 0.158409 0.0664593
vn -0.2408799 -0.04857448 0.9693387
v 0.065071 0.03216 0.10312
vt 0.161076 0.0457036
vn 0.3061831 -0.5709501 0.7617533
v -0.065071 0.03216 0.10312
vn -0.3061831 -0.5709501 0.7617533
v -0.0478503 0.217276 0.081915
vn -0.04904102 0.5995342 0.7988453
v -0.0573382 0 0
vt 0.865402 0.0916415
vn -0.09739705 -0.9952445 -0.001476559
vt 0.965529 0.177322
vt 0.865402 0.13395
v -0.12988 0.03216 0
vt 0.864899 0.157567
vn -0.9028235 -0.4290228 0.02914119
vt 0.781477 0.177322
v 0.0573382 0 0
vn 0.09739705 -0.9952445 -0.001476559
v 0.12988 0.03216 0
vn 0.9028235 -0.4290228 0.02914119
v 0.16379 0.279571 0.110486
vt 0.220284 0.0167885
vn -0.3498028 -0.8203684 -0.4523647
v 0.172614 0.287013 0.12357
vt 0.220284 0.026788
vn 0.5261671 -0.08163031 0.8464542
v 0.136357 0.290418 0.134453
vt 0.199246 0.026788
vn -0.845131 0.07049901 0.5298901
v 0.201328 0.284998 0.093716
vt 0.243377 0.026788
vn 0.845131 -0.07049901 -0.5298901
v 0.165586 0.296918 0.111042
vt 0.220284 0.0367875
vn -0.1715269 0.9015937 -0.3971238
v 0.161474 0.337252 0.101671
vt 0.440569 0.0335771
vn -0.127849 -0.8757768 -0.4654779
v 0.1686 0.34662 0.114551
vt 0.440569 0.0535761
vn 0.5795659 0.05412559 0.8131259
v 0.133645 0.339176 0.127487
vt 0.398492 0.0535761
vn -0.794901 -0.188338 0.576768
v 0.194755 0.353655 0.0831463
vt 0.486754 0.0535761
vn 0.7949058 0.188333 -0.5767629
v 0.158258 0.354362 0.102824
vt 0.440569 0.0735749
vn -0.4471681 0.8227252 -0.3509471
v -0.172614 0.287013 0.12357
vn -0.5148531 -0.08068421 0.8534731
v -0.16379 0.279571 0.110486
vn 0.3610609 -0.8193748 -0.4452639
v -0.136357 0.290418 0.134453
vn 0.8451319 0.07049689 0.5298889
v -0.201328 0.284998 0.093716
vn -0.8451307 -0.07049668 -0.5298908
v -0.165586 0.296918 0.111042
vn 0.1827971 0.9024783 -0.3900231
v -0.1686 0.34662 0.114551
vn -0.5689193 0.05161003 0.8207724
v -0.161474 0.337252 0.101671
vn 0.138451 -0.8782331 -0.4577531
v -0.133645 0.339176 0.127487
vn 0.794903 -0.188335 0.5767661
v -0.194755 0.353655 0.0831463
vn -0.794901 0.188335 -0.576769
v -0.158258 0.354362 0.102824
vn 0.4577498 0.8201596 -0.3432249
v -0.0268446 0.140162 -0.172517
vt 0.314659 0.0598791
vn -0.9999992 -0.0009654902 0.0007952782
v 0 0.0884697 -0.129925
vt 0.282163 0.0204409
vn 0 -0.7717672 0.6359052
v 0 0.157233 -0.1518
vt 0.298853 0.0729028
vn 0 0.6349397 0.7725617
v 0 0.123092 -0.193235
vt 0.330465 0.0468552
vn 0 -0.6368701 -0.7709711
v 0 0.190146 -0.213702
vt 0.34608 0.0980133
vn 0 0.7717672 -0.6359052
v 0.0268446 0.140162 -0.172517
vn 0.9999992 -0.0009652152 0.0007954892
v -0.0117526 0.103724 -0.169486
vt 0.312346 0.032079
vn 0 -0.3597721 0.9330403
v 0 0.11469 -0.165257
vt 0.30912 0.0404451
vn 0 0.9328157 0.3603539
v 0 0.0927584 -0.173714
vt 0.315572 0.0237129
v 0 0.118474 -0.207739
vt 0.34153 0.0433323
vn 0 0.3597721 -0.9330403
v 0.0117526 0.103724 -0.169486
vt 0.617579 0.843337
vt 0.960236 0.978658
vt 0.968816 0.843337
vt 0.622075 1.05077
vt 0.315268 0.843337
vt 0.287527 1.00231
vt 0.62199 1.05122
vt 0.287552 1.00209
v 0 0.302075 0.187995
vt 0.884387 0.489367
vn 0 0.000485477 0.9999999
v -0.0230914 0.300366 0.178594
vt 0.800512 0.484108
vn -0.3805492 0.06849783 0.9222203
v -0.0231187 0.246978 0.182548
vt 0.800413 0.319796
vn -0.06169369 -0.0725357 0.9954559
v 0.0231187 0.246978 0.182548
vt 0.968361 0.319796
vn 0.0616938 -0.0725357 0.9954559
v 0.0230914 0.300366 0.178594
vt 0.968262 0.484108
vn 0.38055 0.0684978 0.92222
vn 0 -0.07386117 -0.9972686
o merged_0_0_node
g polygon_0
usemtl mat_body_mat_id
f 1/1/1 2/2/2 3/3/3
f 1/1/1 4/4/4 2/2/2
f 1/1/1 3/3/3 5/5/5
f 1/1/1 6/6/6 4/4/4
f 1/1/1 5/5/5 7/7/7
f 1/1/1 8/8/8 6/6/6
f 1/1/1 7/7/7 9/9/7
f 1/1/1 10/10/8 8/8/8
f 1/1/1 9/9/7 11/11/9
f 1/1/1 12/12/10 10/10/8
f 1/1/1 11/11/9 13/13/11
f 1/1/1 14/14/12 12/12/10
f 1/1/1 13/13/11 15/15/13
f 1/1/1 16/16/12 14/14/12
f 1/1/1 15/15/13 17/17/14
f 1/1/1 18/18/15 16/16/12
f 1/1/1 17/17/14 19/19/16
f 1/1/1 20/20/17 18/18/15
f 1/1/1 19/19/16 21/21/16
f 1/1/1 22/22/17 20/20/17
f 1/1/1 21/21/16 23/23/18
f 1/1/1 24/24/19 22/22/17
f 1/1/1 23/23/18 25/25/20
f 1/1/1 26/26/20 24/24/19
f 1/1/1 25/25/20 26/26/20
f 27/1/21 21/21/22 19/19/22
f 27/1/21 23/23/23 21/21/22
f 27/1/21 19/19/22 17/17/24
f 27/1/21 25/25/25 23/23/23
f 27/1/21 17/17/24 15/15/26
f 27/1/21 26/26/27 25/25/25
f 27/1/21 15/15/26 13/13/28
f 27/1/21 24/24/29 26/26/27
f 27/1/21 13/13/28 11/11/30
f 27/1/21 22/22/31 24/24/29
f 27/1/21 11/11/30 9/9/32
f 27/1/21 20/20/33 22/22/31
f 27/1/21 9/9/32 7/7/34
f 27/1/21 18/18/35 20/20/33
f 27/1/21 7/7/34 5/5/36
f 27/1/21 16/16/37 18/18/35
f 27/1/21 5/5/36 3/3/38
f 27/1/21 14/14/39 16/16/37
f 27/1/21 3/3/38 2/2/40
f 27/1/21 12/12/41 14/14/39
f 27/1/21 2/2/40 4/4/42
f 27/1/21 10/10/43 12/12/41
f 27/1/21 4/4/42 6/6/44
f 27/1/21 8/8/45 10/10/43
f 27/1/21 6/6/44 8/8/45
f 28/27/46 29/28/39 30/29/47
f 28/27/46 31/30/48 29/28/39
f 28/27/46 30/29/47 32/28/49
f 28/27/46 33/31/50 31/30/48
f 28/27/46 32/28/49 34/30/51
f 28/27/46 35/32/52 33/31/50
f 28/27/46 34/30/51 36/31/53
f 28/27/46 37/33/54 35/32/52
f 28/27/46 36/31/53 38/32/55
f 28/27/46 38/32/55 37/33/54
f 29/28/39 39/34/56 30/29/47
f 29/28/39 31/30/48 40/35/57
f 29/28/39 41/36/58 39/34/56
f 29/28/39 40/35/57 41/36/58
f 30/29/47 39/34/56 32/28/49
f 33/31/50 35/32/52 42/37/59
f 33/31/50 42/37/59 31/30/48
f 34/30/51 43/37/60 36/31/53
f 34/30/51 32/28/49 44/35/61
f 34/30/51 45/38/62 43/37/60
f 34/30/51 44/35/61 45/38/62
f 36/31/53 43/37/60 38/32/55
f 40/35/57 46/39/63 41/36/58
f 40/35/57 31/30/48 47/38/64
f 40/35/57 47/38/64 46/39/63
f 31/30/48 42/37/59 47/38/64
f 39/34/56 48/36/65 32/28/49
f 39/34/56 41/36/58 49/40/66
f 39/34/56 49/40/66 48/36/65
f 32/28/49 48/36/65 44/35/61
f 35/32/52 50/41/67 42/37/59
f 42/37/59 50/41/67 47/38/64
f 45/38/62 51/41/68 43/37/60
f 45/38/62 44/35/61 52/39/69
f 45/38/62 53/42/70 51/41/68
f 45/38/62 52/39/69 53/42/70
f 44/35/61 48/36/65 52/39/69
f 43/37/60 51/41/68 38/32/55
f 46/39/63 54/43/71 41/36/58
f 46/39/63 47/38/64 55/42/72
f 46/39/63 56/44/73 54/43/71
f 46/39/63 55/42/72 57/45/74
f 46/39/63 58/46/75 56/44/73
f 46/39/63 57/45/74 58/46/75
f 47/38/64 50/41/67 55/42/72
f 41/36/58 54/43/71 49/40/66
f 53/42/70 52/39/69 59/45/76
f 53/42/70 60/47/77 51/41/68
f 48/36/65 49/40/66 61/43/78
f 48/36/65 61/43/78 52/39/69
f 56/44/73 58/46/75 62/48/79
f 56/44/73 63/49/80 54/43/71
f 56/44/73 62/48/79 64/50/81
f 56/44/73 64/50/81 63/49/80
f 49/40/66 63/49/80 61/43/78
f 49/40/66 54/43/71 63/49/80
f 58/46/75 57/45/74 62/48/79
f 50/41/67 65/47/82 55/42/72
f 59/45/76 52/39/69 66/46/83
f 59/45/76 66/46/83 67/48/84
f 59/45/76 67/48/84 68/51/85
f 59/45/76 68/51/85 69/52/86
f 57/45/74 68/51/85 62/48/79
f 57/45/74 69/52/86 68/51/85
f 64/50/81 70/44/87 63/49/80
f 64/50/81 71/53/88 67/48/84
f 64/50/81 62/48/79 71/53/88
f 64/50/81 67/48/84 70/44/87
f 70/44/87 52/39/69 61/43/78
f 70/44/87 66/46/83 52/39/69
f 70/44/87 61/43/78 63/49/80
f 70/44/87 67/48/84 66/46/83
f 71/53/88 62/48/79 68/51/85
f 71/53/88 68/51/85 67/48/84
f 72/54/89 35/55/52 37/56/54
f 72/54/89 50/57/67 35/55/52
f 72/54/89 37/56/54 38/55/55
f 72/54/89 65/58/82 50/57/67
f 72/54/89 38/55/55 51/57/68
f 72/54/89 73/59/90 65/58/82
f 72/54/89 51/57/68 60/58/77
f 72/54/89 60/58/77 73/59/90
f 74/60/91 75/61/92 76/62/93
f 74/60/91 77/62/94 75/61/92
f 74/60/91 76/62/93 78/63/95
f 74/60/91 79/63/96 77/62/94
f 74/60/91 78/63/95 80/64/97
f 74/60/91 81/64/98 79/63/96
f 74/60/91 80/64/97 81/64/98
f 75/61/92 82/65/99 76/62/93
f 75/61/92 77/62/94 83/65/100
f 78/63/95 76/62/93 84/66/101
f 84/66/101 76/62/93 82/65/99
f 79/63/96 85/66/102 77/62/94
f 77/62/94 85/66/102 83/65/100
f 86/67/103 84/68/101 82/69/99
f 86/67/103 87/70/104 84/68/101
f 86/67/103 82/69/99 88/71/105
f 86/67/103 80/67/97 87/70/104
f 86/67/103 88/71/105 89/72/106
f 86/67/103 90/73/107 80/67/97
f 86/67/103 89/72/106 90/73/107
f 84/68/101 87/70/104 78/68/95
f 78/68/95 87/70/104 80/67/97
f 82/69/99 75/74/92 88/71/105
f 89/72/106 81/72/98 90/73/107
f 89/72/106 88/71/105 83/75/100
f 89/72/106 91/76/108 81/72/98
f 89/72/106 83/75/100 85/77/102
f 89/72/106 85/77/102 91/76/108
f 83/75/100 88/71/105 75/74/92
f 90/73/107 81/72/98 80/67/97
f 85/77/102 79/77/96 91/76/108
f 91/76/108 79/77/96 81/72/98
f 92/60/109 93/62/110 94/61/111
f 92/60/109 95/63/112 93/62/110
f 92/60/109 94/61/111 96/62/113
f 92/60/109 97/64/114 95/63/112
f 92/60/109 96/62/113 98/63/115
f 92/60/109 99/64/116 97/64/114
f 92/60/109 98/63/115 99/64/116
f 93/62/110 100/65/117 94/61/111
f 93/62/110 95/63/112 101/66/118
f 93/62/110 101/66/118 100/65/117
f 96/62/113 102/66/119 98/63/115
f 96/62/113 94/61/111 103/65/120
f 96/62/113 103/65/120 102/66/119
f 104/67/121 100/69/117 101/68/118
f 104/67/121 105/71/122 100/69/117
f 104/67/121 101/68/118 106/70/123
f 104/67/121 107/72/124 105/71/122
f 104/67/121 106/70/123 97/67/114
f 104/67/121 108/73/125 107/72/124
f 104/67/121 97/67/114 108/73/125
f 100/69/117 105/71/122 94/74/111
f 101/68/118 95/68/112 106/70/123
f 106/70/123 95/68/112 97/67/114
f 107/72/124 108/73/125 99/72/116
f 107/72/124 103/75/120 105/71/122
f 107/72/124 99/72/116 109/76/126
f 107/72/124 102/77/119 103/75/120
f 107/72/124 109/76/126 102/77/119
f 103/75/120 94/74/111 105/71/122
f 108/73/125 97/67/114 99/72/116
f 109/76/126 98/77/115 102/77/119
f 109/76/126 99/72/116 98/77/115
f 110/78/127 111/79/128 112/79/129
f 110/78/127 113/80/130 111/79/128
f 110/78/127 112/79/129 114/78/131
f 110/78/127 115/81/132 113/80/130
f 110/78/127 114/78/131 116/82/133
f 110/78/127 116/82/133 115/81/132
f 111/79/128 117/83/134 112/79/129
f 111/79/128 118/83/135 117/83/134
f 113/80/130 115/81/132 119/84/136
f 113/80/130 119/84/136 120/85/137
f 114/78/131 121/81/138 116/82/133
f 114/78/131 112/79/129 122/86/139
f 114/78/131 122/86/139 121/81/138
f 118/83/135 123/87/140 117/83/134
f 115/81/132 124/88/141 119/84/136
f 115/81/132 116/82/133 124/88/141
f 119/84/136 124/88/141 120/85/137
f 122/86/139 125/89/142 121/81/138
f 122/86/139 126/90/143 125/89/142
f 123/87/140 127/91/144 128/91/145
f 127/91/144 120/85/137 126/90/143
f 127/91/144 126/90/143 128/91/145
f 116/82/133 129/88/146 124/88/141
f 116/82/133 121/81/138 129/88/146
f 129/88/146 125/89/142 126/90/143
f 129/88/146 126/90/143 120/85/137
f 129/88/146 120/85/137 124/88/141
f 129/88/146 121/81/138 125/89/142
f 130/92/147 117/93/134 123/94/140
f 130/92/147 131/95/148 117/93/134
f 130/92/147 123/94/140 128/96/145
f 130/92/147 128/96/145 131/95/148
f 123/94/140 132/92/149 127/96/144
f 123/94/140 118/93/135 132/92/149
f 127/96/144 132/92/149 133/95/150
f 133/95/150 132/92/149 118/93/135
f 134/97/151 135/98/152 136/99/153
f 134/97/151 137/100/154 135/98/152
f 134/97/151 136/99/153 138/101/155
f 134/97/151 138/101/155 137/100/154
f 138/101/155 136/99/153 135/98/152
f 138/101/155 135/98/152 137/100/154
f 139/102/156 140/103/157 141/104/158
f 139/102/156 142/105/159 140/103/157
f 139/102/156 141/104/158 143/106/160
f 139/102/156 143/106/160 142/105/159
f 143/106/160 141/104/158 140/103/157
f 143/106/160 140/103/157 142/105/159
f 144/103/161 145/102/162 146/104/163
f 144/103/161 147/105/164 145/102/162
f 144/103/161 146/104/163 148/106/165
f 144/103/161 148/106/165 147/105/164
f 148/106/165 146/104/163 145/102/162
f 148/106/165 145/102/162 147/105/164
f 149/103/166 150/102/167 151/104/168
f 149/103/166 152/105/169 150/102/167
f 149/103/166 151/104/168 153/106/170
f 149/103/166 153/106/170 152/105/169
f 153/106/170 151/104/168 150/102/167
f 153/106/170 150/102/167 152/105/169
f 154/107/171 155/108/172 156/109/173
f 154/107/171 157/110/174 155/108/172
f 154/107/171 156/109/173 158/111/175
f 154/107/171 158/111/175 157/110/174
f 155/108/172 159/107/176 156/109/173
f 155/108/172 157/110/174 159/107/176
f 159/107/176 158/111/175 156/109/173
f 159/107/176 157/110/174 158/111/175
f 160/112/171 155/108/177 161/113/178
f 160/112/171 162/114/25 155/108/177
f 160/112/171 161/113/178 163/115/179
f 160/112/171 163/115/179 162/114/25
f 155/108/177 164/112/176 161/113/178
f 155/108/177 162/114/25 164/112/176
f 164/112/176 163/115/179 161/113/178
f 164/112/176 162/114/25 163/115/179
f 131/116/148 112/117/129 117/118/134
f 131/116/148 122/119/139 112/117/129
f 131/116/148 128/120/145 122/119/139
f 128/120/145 126/121/143 122/119/139
f 133/116/150 113/122/130 127/120/144
f 133/116/150 111/117/128 113/122/130
f 133/116/150 118/118/135 111/117/128
f 127/120/144 113/122/130 120/123/137
f 165/124/180 166/125/181 167/126/182
f 165/124/180 167/126/182 168/127/183
f 165/124/180 168/127/183 169/128/184
f 168/127/185 166/125/185 169/128/185
f 168/127/185 167/126/185 166/125/185
vt 0.00155428 0.807571
vt 0.0190502 0.996215
vt 0.510501 0.75976
vt 0.925834 0.996952
vt 0.998446 0.807528
o merged_1_0_node
g polygon_0
usemtl TEX_ANIM_EYE_mat_id
f 73/129/90 69/130/86 65/131/82
f 69/130/86 57/132/74 65/131/82
f 55/133/72 65/131/82 57/132/74
f 73/129/90 60/131/77 69/130/86
f 69/130/86 60/131/77 59/132/76
f 60/131/77 53/133/70 59/132/76
