mtllib Zangoose.mtl
v -0.248309 0.6458521 -0.0104774
vt 1.38219 0.479614
vn -0.9972932 0.05613162 -0.04749201
v -0.154119 0.5494601 -0.177335
vt 1.57185 0.285517
vn -0.5800322 -0.5253822 -0.6225242
v -0.227672 0.5494601 -0.0104774
vt 1.42374 0.285517
vn -0.8647779 -0.4971779 -0.070522
v -0.165183 0.655908 -0.188741
vt 1.54957 0.499864
vn -0.6632308 0.05000098 -0.7467428
v -0.173443 0.533877 0.149522
vt 1.53294 0.254138
vn -0.5960901 -0.6232341 0.5062171
v -0.143847 0.762357 -0.174157
vt 1.59253 0.71421
vn -0.5694271 0.5197391 -0.6368862
v -0.186927 0.628054 0.153242
vt 1.50579 0.443775
vn -0.6536227 0.06445807 0.7540706
v -0.215042 0.762357 -0.0104774
vt 1.44917 0.71421
vn -0.89 0.453345 -0.0487686
v -0.161883 0.762357 0.146121
vt 1.55621 0.71421
vn -0.5578988 0.3802609 0.7376657
v -0.132177 0.464173 -0.0104774
vt 1.61603 0.113782
vn -0.4406301 -0.8972332 -0.02859711
v 0 0.573127 -0.232493
vt 1.88219 0.333173
vn 0 -0.242958 -0.9700369
v 0 0.469023 -0.154013
vt 1.88219 0.123548
vn 0 -0.8528128 -0.5222169
v -0.132177 0.86106 -0.0104774
vt 1.61603 0.912961
vn -0.5158701 0.8563142 -0.02458
v 0 0.733662 -0.223355
vt 1.88219 0.65643
vn 0 0.282413 -0.9592929
v 0 0.842615 -0.144724
vt 1.88219 0.875821
vn 0 0.8247689 -0.5654699
v -0.0867216 0.572726 0.193229
vt 1.70756 0.332366
vn -0.3823909 -0.168506 0.9085059
v -0.0934634 0.628054 0.189377
vt 1.69399 0.443775
vn -0.3574921 0.131336 0.9246352
v -0.0934634 0.619815 0.195089
vt 1.69399 0.427184
vn -0.407344 0.0169253 0.913118
v 0 0.432956 -0.0104774
vt 1.88219 0.0509219
vn 0 -0.9996827 0.02519069
v 0.154119 0.5494601 -0.177335
vt 2.19252 0.285517
vn 0.5800322 -0.5253822 -0.6225242
v 0.132177 0.464173 -0.0104774
vt 2.14834 0.113782
vn 0.4406301 -0.8972332 -0.02859721
v 0.143847 0.762357 -0.174157
vt 2.17184 0.71421
vn 0.5694271 0.5197391 -0.6368862
v 0 0.8827851 -0.0104774
vt 1.88219 0.956707
vn 0 0.9954473 -0.09531303
v 0 0.528656 0.212791
vt 1.88219 0.243626
vn 0 -0.6187041 0.7856241
v 0 0.476743 0.146259
vt 1.88219 0.139094
vn 0 -0.9114765 0.4113522
v 0 0.762357 0.20871
vt 1.88219 0.71421
vn 0 0.2921741 0.9563652
v 0 0.867756 0.112898
vt 1.88219 0.926444
vn 0 0.8597084 0.5107852
v 0.165183 0.655908 -0.188741
vt 2.2148 0.499864
vn 0.6632308 0.05000108 -0.7467428
v 0.173443 0.533877 0.149522
vt 2.23143 0.254138
vn 0.5960901 -0.6232341 0.5062171
v 0 0.628054 0.225513
vt 1.88219 0.443775
vn 0 0.154113 0.9880532
v 0.248309 0.6458521 -0.0104774
vt 2.38219 0.479614
vn 0.9972932 0.05613162 -0.04749191
v 0.227672 0.5494601 -0.0104774
vt 2.34063 0.285517
vn 0.8647779 -0.4971779 -0.07052179
v 0.215042 0.762357 -0.0104774
vt 2.3152 0.71421
vn 0.8899996 0.4533458 -0.04876858
v 0.103875 0.115676 0.162583
vt 3.26271 0.224213
vn 0.4028021 -0.532138 0.7447011
v -0.108148 0.209391 0.191647
vt 2.86349 0.40067
vn -0.2342729 -0.07234287 0.9694755
v -0.103875 0.115676 0.162582
vt 2.87153 0.224213
vn -0.4028022 -0.5321373 0.7447015
v 0.108148 0.209391 0.191647
vt 3.27075 0.40067
vn 0.2342729 -0.07234287 0.9694755
v 0 0.08092371 0
vt 3.06712 0.158778
vn 0 -0.9999987 0.00161971
v 0.216295 0.209391 0
vt 3.47439 0.40067
vn 0.9722021 0.0130518 -0.233779
v 0.0908661 1.490116E-08 0
vt 3.23821 0.00640506
vn 0.120495 -0.9926049 -0.0147156
v 0.20775 0.115676 0.000888239
vt 3.45829 0.224213
vn 0.9328249 -0.3603299 -0.000425725
v -0.216295 0.209391 0
vt 2.65985 0.40067
vn -0.9722021 0.0130518 -0.233779
v 0.103875 0.115676 -0.194161
vn 0.4182899 -0.475513 -0.7738999
v -0.0908661 1.490116E-08 0
vt 2.89603 0.00640506
vn -0.120495 -0.9926049 -0.0147157
v -0.103875 0.115676 -0.194161
vn -0.4182899 -0.475513 -0.7738999
v 0.108148 0.209391 -0.191647
vn 0.4953012 0.1948021 -0.8465984
v 0.0771592 0.430289 -0.126597
vt 3.2124 0.816603
vn 0.4534002 0.4290792 -0.7812294
v 0.154318 0.430289 0
vt 3.35769 0.816603
vn 0.7857158 0.5106239 -0.3491619
v -0.20775 0.115676 0.000888239
vt 2.67594 0.224213
vn -0.9328249 -0.3603299 -0.0004260269
v -0.108148 0.209391 -0.191647
vn -0.4953008 0.1948019 -0.8465987
v -0.0771591 0.430289 -0.126597
vt 2.92184 0.816603
vn -0.4533999 0.4290789 -0.7812297
v -0.154318 0.430289 0
vt 2.77655 0.816603
vn -0.7857158 0.5106239 -0.3491619
v 0 0.454282 0
vt 3.06712 0.86178
vn 0 1 0
v -0.0771592 0.430289 0.126597
vn -0.03768718 0.5737706 0.8181485
v 0.0771592 0.430289 0.126597
vn 0.03768718 0.5737706 0.8181485
v 0.164627 1.01154 -0.0755412
vt 0.472358 0.534048
vn -0.8597849 0.50962 -0.0325181
v 0.148081 0.879887 0.0483008
vt 0.469639 0.517503
vn -0.0385248 -0.05330071 0.9978351
v 0.229219 1.093 -0.0939563
vt 0.479297 0.54436
vn 0.191073 0.558496 0.807201
v 0.0815708 0.881283 -0.0340521
vt 0.463233 0.517638
vn -0.9979494 -0.02968991 0.05670652
v 0.215752 1.04284 -0.101844
vt 0.47764 0.538291
vn 0.193961 0.7390311 -0.6451451
v 0.148081 0.845697 -0.108333
vt 0.469639 0.51421
vn -0.197701 -0.56078 -0.804015
v 0.221225 1.05323 -0.144432
vt 0.478313 0.539795
vn -0.08247022 0.003255391 -0.9965882
v 0.221663 0.994393 -0.0817798
vt 0.477857 0.532417
vn 0.9915828 -0.108373 0.07084389
v 0.21459 0.844302 -0.0259799
vt 0.476045 0.514076
vn 0.7870948 -0.5848079 0.196167
v -0.206067 0.999613 -0.0729385
vt 4.41496 0.301931
vn -0.9955773 -0.02414981 0.09078823
v -0.141781 0.879667 0.0483489
vt 4.6455 -0.202795
vn 0.1413979 -0.02429909 0.9896546
v -0.20511 1.09721 -0.0948745
vt 4.39979 0.689798
vn 0.09614751 0.624253 0.7752831
v -0.209339 0.848156 -0.0268213
vt 4.43327 -0.301784
vn -0.8239409 -0.541625 0.166625
v -0.194612 1.04632 -0.102603
vt 4.44194 0.488919
vn -0.3181168 0.6983896 -0.6411347
v -0.141781 0.845477 -0.108285
vt 4.6455 -0.310202
vn 0.0607262 -0.604161 -0.794545
v -0.198878 1.057 -0.145256
vt 4.42481 0.539153
vn -0.134227 -0.06161302 -0.9890333
v -0.148515 1.01059 -0.0853162
vt 4.59561 0.337077
vn 0.897588 0.437933 -0.0505025
v -0.0742236 0.876987 -0.0331145
vt 4.85773 -0.211213
vn 0.9920105 -0.08546346 0.09279676
vt 0.974065 0.0893265
vt 0.162185 0.967547
vt 0.0264161 0.0893265
vt 0.838296 0.967547
vt 2.03756 0.0455523
vt 2.19292 0.0455523
vt 1.88219 0.0938648
o merged_0_0_node
g polygon_0
usemtl mat_body_mat_id
f 1/1/1 2/2/2 3/3/3
f 1/1/1 4/4/4 2/2/2
f 1/1/1 3/3/3 5/5/5
f 1/1/1 6/6/6 4/4/4
f 1/1/1 5/5/5 7/7/7
f 1/1/1 8/8/8 6/6/6
f 1/1/1 7/7/7 9/9/9
f 1/1/1 9/9/9 8/8/8
f 2/2/2 10/10/10 3/3/3
f 2/2/2 4/4/4 11/11/11
f 2/2/2 12/12/12 10/10/10
f 2/2/2 11/11/11 12/12/12
f 3/3/3 10/10/10 5/5/5
f 6/6/6 8/8/8 13/13/13
f 6/6/6 14/14/14 4/4/4
f 6/6/6 13/13/13 15/15/15
f 6/6/6 15/15/15 14/14/14
f 4/4/4 14/14/14 11/11/11
f 8/8/8 9/9/9 13/13/13
f 7/7/7 5/5/5 16/16/16
f 7/7/7 17/17/17 9/9/9
f 7/7/7 16/16/16 18/18/18
f 7/7/7 18/18/18 17/17/17
f 12/12/12 19/19/19 10/10/10
f 12/12/12 11/11/11 20/20/20
f 12/12/12 21/21/21 19/19/19
f 12/12/12 20/20/20 21/21/21
f 15/15/15 22/22/22 14/14/14
f 15/15/15 13/13/13 23/23/23
f 5/5/5 24/24/24 16/16/16
f 5/5/5 10/10/10 25/25/25
f 5/5/5 25/25/25 24/24/24
f 19/19/19 21/21/21 25/25/25
f 19/19/19 25/25/25 10/10/10
f 9/9/9 17/17/17 26/26/26
f 9/9/9 27/27/27 13/13/13
f 9/9/9 26/26/26 27/27/27
f 27/27/27 23/23/23 13/13/13
f 11/11/11 28/28/28 20/20/20
f 11/11/11 14/14/14 28/28/28
f 14/14/14 22/22/22 28/28/28
f 24/24/24 25/25/25 29/29/29
f 25/25/25 21/21/21 29/29/29
f 17/17/17 30/30/30 26/26/26
f 20/20/20 28/28/28 31/31/31
f 20/20/20 32/32/32 21/21/21
f 20/20/20 31/31/31 32/32/32
f 32/32/32 29/29/29 21/21/21
f 28/28/28 22/22/22 31/31/31
f 22/22/22 33/33/33 31/31/31
f 34/34/34 35/35/35 36/36/36
f 34/34/34 37/37/37 35/35/35
f 34/34/34 36/36/36 38/38/38
f 34/34/34 39/39/39 37/37/37
f 34/34/34 38/38/38 40/40/40
f 34/34/34 41/41/41 39/39/39
f 34/34/34 40/40/40 41/41/41
f 35/35/35 42/42/42 36/36/36
f 38/38/38 43/34/43 40/40/40
f 38/38/38 36/36/36 44/43/44
f 38/38/38 45/36/45 43/34/43
f 38/38/38 44/43/44 45/36/45
f 40/40/40 43/34/43 41/41/41
f 39/39/39 41/41/41 46/37/46
f 39/39/39 46/37/46 47/44/47
f 39/39/39 47/44/47 48/45/48
f 43/34/43 45/36/45 46/37/46
f 43/34/43 46/37/46 41/41/41
f 42/42/42 49/46/49 36/36/36
f 42/42/42 50/35/50 49/46/49
f 42/42/42 51/47/51 50/35/50
f 42/42/42 52/48/52 51/47/51
f 50/35/50 47/44/47 46/37/46
f 50/35/50 46/37/46 45/36/45
f 50/35/50 45/36/45 49/46/49
f 50/35/50 51/47/51 47/44/47
f 49/46/49 44/43/44 36/36/36
f 49/46/49 45/36/45 44/43/44
f 48/45/48 47/44/47 53/49/53
f 51/47/51 52/48/52 53/49/53
f 51/47/51 53/49/53 47/44/47
f 52/48/52 54/47/54 53/49/53
f 54/47/54 55/44/55 53/49/53
f 56/50/56 57/51/57 58/52/58
f 56/50/56 59/53/59 57/51/57
f 56/50/56 58/52/58 60/54/60
f 56/50/56 61/55/61 59/53/59
f 56/50/56 60/54/60 62/56/62
f 56/50/56 62/56/62 61/55/61
f 57/51/57 63/57/63 58/52/58
f 57/51/57 59/53/59 64/58/64
f 57/51/57 64/58/64 63/57/63
f 63/57/63 60/54/60 58/52/58
f 63/57/63 61/55/61 62/56/62
f 63/57/63 64/58/64 61/55/61
f 63/57/63 62/56/62 60/54/60
f 61/55/61 64/58/64 59/53/59
f 65/59/65 66/60/66 67/61/67
f 65/59/65 68/62/68 66/60/66
f 65/59/65 67/61/67 69/63/69
f 65/59/65 70/64/70 68/62/68
f 65/59/65 69/63/69 71/65/71
f 65/59/65 71/65/71 70/64/70
f 66/60/66 72/66/72 67/61/67
f 66/60/66 68/62/68 73/67/73
f 66/60/66 73/67/73 72/66/72
f 72/66/72 69/63/69 67/61/67
f 72/66/72 70/64/70 71/65/71
f 72/66/72 73/67/73 70/64/70
f 72/66/72 71/65/71 69/63/69
f 70/64/70 73/67/73 68/62/68
f 37/68/37 54/69/54 35/70/35
f 37/68/37 55/71/55 54/69/54
f 55/72/55 48/73/48 53/74/53
v 0.174934 0.353682 0.000224239
vt -2.31857 0.124713
vn -0.0693593 -0.0438415 0.9966279
v 0.248491 0.38512 0.00672637
vt -1.71871 0.381091
v 0.189895 0.392005 0.00295128
vt -2.19657 0.437235
vt -2.62759 0.757238
vn -0.08324279 -0.0282835 0.9961279
v 0.192745 0.420711 0.00293927
vt -2.24503 0.671331
v 0.229488 0.445106 0.00670235
vt -1.87369 0.870269
vn -0.09792116 -0.0142861 0.9950916
vn -0.05278859 0.005659119 0.9985897
v 0.259665 0.412917 0.00652104
vt -1.62759 0.607769
vt 3.90786 0.782087
vn 0.02754931 0.05151401 0.9982922
v -0.23157 0.44399 0.00142485
vt 3.19586 0.904708
v -0.202238 0.422139 0.00174292
vt 3.52036 0.698686
v -0.174334 0.351081 0.000266702
vt 3.61284 0.127624
vn -0.04634649 -0.04822179 0.9977608
v -0.20467 0.392642 0.000866216
vt 3.4202 0.47648
v -0.255632 0.388729 -0.00169011
vt 2.99519 0.443842
vn 0.02529681 -0.010833 0.9996213
vn -0.03829351 -0.0265319 0.9989142
v -0.266104 0.422395 -0.00069859
vt 2.90786 0.724608
vn -0.02754931 -0.05151391 -0.9982922
vn 0.04634649 0.04822169 -0.9977608
vn -0.02529681 0.010833 -0.9996213
vn 0.03829351 0.0265319 -0.9989142
vn 0.0693593 0.0438416 -0.9966279
vn 0.08324298 0.02828359 -0.9961278
vn 0.09792116 0.0142861 -0.9950916
vn 0.05278859 -0.005659129 -0.9985897
v 0 0.611575 0.236935
vt 0.501313 0.82709
vn 0 -0.0343798 0.9994088
vt -0.445417 0.360916
vt 0.501313 -0.531384
vt -0.519017 1.02483
vt -0.519017 0.92596
vt 0.501313 1.01647
v 0.0934634 0.619815 0.195089
vt 1.52164 0.92596
vn 0.407344 0.0169253 0.913118
v 0.0934634 0.628054 0.189377
vt 1.52164 1.02483
vn 0.3574921 0.131336 0.9246352
v 0.0867216 0.572726 0.193229
vt 1.44804 0.360916
vn 0.3823918 -0.1685059 0.9085056
v 0 0.160247 -0.47491
vt 2.50961 0.0598548
vn 0 -0.4875649 -0.8730868
v -0.137499 0.210621 -0.360152
vt 2.18622 0.258489
vn -0.9948879 -0.09910849 0.0193776
v 0 0.319187 -0.479421
vt 2.50961 0.441488
vn -0.003612279 -0.3616609 -0.9323027
v -0.0712153 0.351398 -0.416982
vt 2.22562 0.589584
vn -0.9658271 0.256458 -0.037513
v 0 0.320807 -0.228017
vt 2.50961 0.517637
vn 0 0.483151 0.875537
v 0 0.436986 -0.34864
vt 2.50961 0.790883
vn -0.003915119 0.8217048 0.5698999
v 0.137499 0.210621 -0.360152
vt 2.833 0.258489
vn 0.994888 -0.0991083 0.0193778
v 0.0712153 0.351398 -0.416982
vt 2.7936 0.589584
vn 0.9667013 0.2536201 -0.03413801
v -0.0201104 0.409043 -0.492721
vt 2.39032 0.722875
vn 0.160727 0.7632201 -0.625829
v 0 0.513453 -0.690753
vt 2.50961 1.31879
vn 0 0.7685899 -0.6397419
v 0.0201104 0.409043 -0.492721
vt 2.62889 0.722875
vn -0.1044529 0.7687045 -0.6310175
v 0 0.100716 -0.269817
vt 2.50961 0
vn 0 -0.789467 0.613793
v -0.0810527 0.5259 -0.690161
vt 2.31898 0.665136
vn -0.9581428 0.2751179 -0.07919957
v 0.0857323 0.522113 -0.688028
vt 2.71124 0.656229
vn 0.9607844 0.2661311 -0.07789493
o merged_1_0_node
g polygon_0
usemtl mat_mouth_mat_id
f 74/75/74 75/76/74 76/77/74
f 48/78/75 77/79/75 78/80/75
f 74/75/76 76/77/76 48/78/76
f 48/78/76 76/77/76 77/79/76
f 77/79/77 76/77/77 79/81/77
f 52/82/78 80/83/78 81/84/78
f 82/85/79 83/86/79 84/87/79
f 82/85/80 52/82/80 83/86/80
f 83/86/80 52/82/80 81/84/80
f 83/86/81 81/84/81 85/88/81
f 52/82/82 81/84/82 80/83/82
f 82/85/83 84/87/83 83/86/83
f 82/85/84 83/86/84 52/82/84
f 52/82/84 83/86/84 81/84/84
f 83/86/85 85/88/85 81/84/85
f 74/75/86 76/77/86 75/76/86
f 48/78/87 78/80/87 77/79/87
f 77/79/88 76/77/88 48/78/88
f 48/78/88 76/77/88 74/75/88
f 77/79/89 79/81/89 76/77/89
f 86/89/90 16/90/16 24/91/24
f 17/92/17 18/93/18 30/94/30
f 30/94/30 18/93/18 86/89/90
f 86/89/90 18/93/18 16/90/16
f 86/89/90 87/95/91 30/94/30
f 30/94/30 87/95/91 88/96/92
f 86/89/90 89/97/93 87/95/91
f 86/89/90 24/91/24 89/97/93
f 90/98/94 91/99/95 92/100/96
f 92/100/96 91/99/95 93/101/97
f 91/99/95 94/102/98 93/101/97
f 93/101/97 94/102/98 95/103/99
f 96/104/100 97/105/101 94/102/98
f 94/102/98 97/105/101 95/103/99
f 90/98/94 92/100/96 96/104/100
f 96/104/100 92/100/96 97/105/101
f 98/106/102 95/103/99 99/107/103
f 95/103/99 100/108/104 99/107/103
f 91/99/95 90/98/94 101/109/105
f 94/102/98 91/99/95 101/109/105
f 96/104/100 94/102/98 101/109/105
f 90/98/94 96/104/100 101/109/105
f 102/110/106 92/100/96 93/101/97
f 93/101/97 95/103/99 102/110/106
f 95/103/99 97/105/101 103/111/107
f 99/107/103 100/108/104 92/100/96
f 92/100/96 100/108/104 103/111/107
f 99/107/103 92/100/96 98/106/102
f 95/103/99 103/111/107 100/108/104
f 92/100/96 103/111/107 97/105/101
f 102/110/106 95/103/99 98/106/102
f 98/106/102 92/100/96 102/110/106
vt 0.553017 0.00601921
vt 0.157156 -0.116602
vt 0.951963 0.0320267
vt 1.00007 0.443635
vt 1.31214 0.602724
v 0.186927 0.628054 0.153242
vt 0.790856 0.279025
vn 0.6536227 0.06445807 0.7540706
v 0.161883 0.762357 0.146121
vt 0.653152 0.575488
vn 0.5578981 0.3802611 0.7376661
vt 0.470415 0.156975
vt 0.132967 0.314507
vt 0.149974 0.0349255
vt 1.05218 0.921586
vt -0.059909 0.9403
vt -0.0378516 0.715836
v 0.132177 0.86106 -0.0104774
vt 0.518093 0.919105
vn 0.5158701 0.8563142 -0.02458
vt 0.108492 1.089
vt 0.896422 1.02847
vt 0.472464 0.129518
o merged_2_0_node
g polygon_0
usemtl mat_face_mat_id
f 89/112/93 24/113/24 29/114/29
f 32/115/32 31/116/31 29/114/29
f 31/116/31 104/117/108 29/114/29
f 104/117/108 105/118/109 88/119/92
f 105/118/109 26/120/26 88/119/92
f 26/120/26 30/121/30 88/119/92
f 104/117/108 31/116/31 105/118/109
f 33/122/33 105/118/109 31/116/31
f 23/123/23 27/124/27 106/125/110
f 26/120/26 105/118/109 27/124/27
f 27/124/27 105/118/109 106/125/110
f 105/118/109 33/122/33 106/125/110
f 23/123/23 106/125/110 15/126/15
f 33/122/33 22/127/22 106/125/110
f 106/125/110 22/127/22 15/126/15
f 88/119/92 87/128/91 104/117/108
f 29/114/29 104/117/108 89/112/93
f 89/112/93 104/117/108 87/128/91
vt -0.320214 -0.125
v -0.265546 0.341584 0.203321
vt 0.5 1.29802
vn -0.8061935 0.1398941 0.5748754
vt 1.27777 -0.125
v 0.265546 0.341584 0.203321
vn 0.8061939 0.139894 0.5748749
vt 1.26938 -0.0865717
vt -0.271937 -0.0865717
o merged_3_0_node
g polygon_0
usemtl mat_hand_mat_id
f 52/129/52 107/130/111 54/131/54
f 55/129/55 108/130/112 48/131/48
f 42/129/42 35/131/35 107/130/111
f 107/130/111 35/132/35 54/133/54
f 42/132/42 107/130/111 52/133/52
f 37/129/37 39/131/39 108/130/112
f 108/130/112 39/133/39 48/132/48
f 37/132/37 108/130/112 55/133/55
v -0.186927 0.628054 0.15749
vt -0.00045561 0.788958
vn -0.3533899 0.139458 0.9250227
v 0 0.628054 0.229761
vt 1.16266 0.788958
vn 0 0.1962571 0.9805525
v -0.166107 0.723664 0.152219
vt 0.155373 1.00145
v 0 0.723664 0.214808
vt 1.16266 1.00145
vn 0 0.1457841 0.9893165
v 0.166107 0.723664 0.152219
vn 0.3533899 0.139458 0.9250227
v 0.186927 0.628054 0.15749
v 0 0.611575 0.241184
vt 1.16266 0.755197
vn 0 0.5696799 0.8218668
o merged_4_0_node
g polygon_0
usemtl TEX_ANIM_EYE_mat_id
f 109/134/113 110/135/114 111/136/113
f 111/136/113 110/135/114 112/137/115
f 112/137/115 110/135/114 113/136/116
f 113/136/116 110/135/114 114/134/116
f 110/135/114 115/138/117 114/134/116
f 110/135/114 109/134/113 115/138/117
