mtllib Nidorina.mtl
v 0 0.05689748 0.008699446
vt 0.460344 0.017775
vn 0 -0.9999651 0.008351428
v -0.128081 -1.41476E-05 -0.1567077
vt 0.722924 0.222101
vn -0.1389268 -0.9585353 -0.2488161
v 0 0.07605101 -0.211975
vt 0.810659 0.0177748
vn 0 -0.7798739 -0.6259367
v -0.165248 0.0679957 -0.03862073
vt 0.535468 0.281392
vn -0.7606685 -0.6213675 0.1878454
v 0.128081 -1.41476E-05 -0.1567077
vn 0.1389268 -0.9585353 -0.2488161
v -0.156594 0.07420675 0.06333744
vt 0.373609 0.267587
vn -0.6471192 -0.7540575 -0.1124015
v 0.165248 0.0679957 -0.03862063
vn 0.7606685 -0.6213675 0.1878454
v -0.112065 -1.156898E-05 0.1511543
vt 0.234204 0.196551
vn -0.1760741 -0.9091175 0.3774959
v 0.156594 0.07420675 0.06333753
vn 0.6471192 -0.7540575 -0.1124015
v 0 0.0756384 0.205455
vt 0.148005 0.0177749
vn 0 -0.6159018 0.7878229
v 0.112065 -1.156898E-05 0.1511543
vn 0.1760741 -0.9091175 0.3774959
v 0 0.243477 -0.17515
vt 0.940031 0.931465
vn 0 0.8986819 -0.438601
v 0 0.228029 -0.3012
vn 0 0.4292729 -0.9031748
v -0.0882775 0.1480539 -0.1982291
vn -0.5702491 0.1016063 -0.8151639
v 0.0882775 0.1480539 -0.1982291
vn 0.5702496 0.1016064 -0.8151635
v -0.122935 0.24144 -0.106017
vn -0.6579248 0.7320618 -0.176693
v 0.122935 0.24144 -0.106017
vn 0.6579248 0.7320618 -0.176693
v 0 0.286533 -0.0542157
vn 0 0.9938 -0.111183
v 0 0.283715 0.0702176
vn 0 0.9835235 0.1807799
v -0.110071 0.224673 0.126505
vn -0.600054 0.716916 0.354918
v 0 0.217075 0.19693
vn 0 0.6142818 0.7890868
v 0 0.1443062 0.2078778
vn 0 0.105044 0.9944676
v -0.15657 0.1453542 0.1368341
vn -0.8304406 0.2244567 0.5098898
v 0.110071 0.224673 0.126505
vn 0.600054 0.716916 0.354918
v 0.15657 0.1453542 0.1368341
vn 0.8304406 0.2244567 0.5098898
v 0.134279 0.432251 0.215149
vt 0.936484 0.95052
vn 0.5423243 0.6953004 -0.4716373
v 0.197248 0.276249 0.18232
vn 0.8240139 0.0748396 -0.561605
v 0.0826028 0.275316 0.0864525
vn 0.3796508 0.06817347 -0.9226146
v 0.198839 0.355477 0.282051
vn 0.9228457 0.3367859 0.1868989
v 0 0.381412 0.114722
vn -2.426639E-05 0.5612139 -0.8276708
v 0.105602 0.442555 0.306802
vn 0.4443863 0.8558756 0.2645712
v 0 0.464515 0.214854
vn -0.000137569 0.9291424 -0.3697221
v 0.133654 0.160019 0.173268
vn 0.5524838 -0.6133578 -0.5644058
v 0.209547 0.205693 0.283448
vn 0.9448678 -0.3044759 0.120496
v -0.134303 0.432219 0.215149
vn -0.5424939 0.6954409 -0.4712349
v -0.0826028 0.275316 0.0864525
vn -0.3796381 0.06816543 -0.9226204
v 0.117757 0.371789 0.390123
vn 0.6009218 0.4426489 0.6655487
v 0 0.460757 0.347693
vn -0.000177183 0.9296028 0.3685629
v 0.104469 0.09699041 0.287578
vn 0.3896029 -0.9203637 -0.03376819
v 0 0.169596 0.1171
vn 0 -0.5579671 -0.8298631
v -0.10536 0.442503 0.306767
vn -0.4448189 0.8552419 0.26589
v -0.197248 0.276249 0.18232
vn -0.8240227 0.07479597 -0.5615978
v -0.198839 0.355477 0.282051
vn -0.9220811 0.337779 0.18887
v 0 0.400569 0.42284
vn 9.552122E-05 0.577854 0.8161401
v 0 0.100757 0.198667
vn 0 -0.9226018 -0.3857539
v -0.104469 0.09699041 0.287578
vn -0.3745751 -0.9268134 -0.02665561
v -0.133654 0.160019 0.173268
vn -0.5524831 -0.6133581 -0.5644061
v -0.116812 0.371789 0.390123
vn -0.5995459 0.4440069 0.6658848
v -0.209547 0.205693 0.283448
vn -0.9448701 -0.304473 0.120485
v -0.0311939 0.152482 0.446024
vt 0.581065 0.778606
vn -0.181565 -0.8640229 0.4695729
v -0.132754 0.166718 0.394298
vt 0.722638 0.753425
vn -0.726001 -0.534362 0.4328739
v -0.0815822 0.110566 0.385188
vt 0.696179 0.625048
vn -0.2100749 -0.9129887 0.3497429
v -0.085609 0.18368 0.460128
vt 0.645046 0.914271
vn -0.5234378 -0.4707298 0.7102298
v 0.0815649 0.110566 0.385188
vn 0.241898 -0.901829 0.358036
v 0.000563927 0.125415 0.46329
vt 0.509784 0.726133
vn 0.0009002611 -0.5462571 0.8376171
v 0.0311939 0.152482 0.446024
vn 0.27981 -0.871683 0.402337
vt 0.921827 0.496817
v -0.13683 0.229554 0.417836
vt 0.722157 0.909684
vn -0.8039107 0.06532428 0.5911518
vt 0.983886 0.722328
v 0.132744 0.166718 0.394298
vn 0.7259672 -0.5344062 0.4328761
v -0.0556851 0.22762 0.49425
vt 0.531052 0.984928
vn -0.2503 0.131253 0.9592302
v 0.085609 0.18368 0.460128
vn 0.5248598 -0.4700858 0.7096066
v 0.0556851 0.22762 0.49425
vn 0.2498789 0.1320859 0.9592257
v 0.13683 0.229554 0.417835
vn 0.8042417 0.06355048 0.5908948
v 0.23491 0.429917 0.16622
vt 0.196969 0.840795
vn 0.8711703 -0.2611861 0.4157452
v 0.361 0.505715 0.0677306
vt 0.451503 0.985566
vn -0.08600914 0.7549595 -0.6501066
v 0.271228 0.5193931 0.200931
vt 0.166379 0.985566
vn -0.4687618 0.8830387 -0.02247099
v 0.348082 0.401538 0.0221566
vt 0.505844 0.81001
vn 0.365521 -0.05264889 -0.9293129
v 0.201668 0.386134 0.292673
vt 0.00239595 0.776145
vn -0.552362 0.297904 0.778556
v 0.261908 0.30031 0.0966583
vt 0.313435 0.647703
vn 0.3121701 -0.8779512 -0.3629761
v 0.213109 0.30093 0.241039
vt 0.08209 0.647703
vn 0.123032 -0.8631112 0.4897981
v -0.23491 0.429917 0.16622
vn -0.8711703 -0.2611861 0.4157452
v -0.271228 0.5193931 0.200931
vn 0.4687619 0.8830388 -0.0224706
v -0.361 0.505715 0.0677306
vn 0.0860097 0.7549609 -0.6501049
v -0.201668 0.386134 0.292673
vn 0.552362 0.297904 0.778556
v -0.348082 0.401538 0.0221566
vn -0.365521 -0.0526474 -0.929313
v -0.213109 0.30093 0.241039
vn -0.123032 -0.8631112 0.4897981
v -0.261908 0.30031 0.0966583
vn -0.3121701 -0.8779512 -0.3629761
v -0.176555 0.147884 -0.1342643
vt 0.724926 0.427042
vn -0.9346076 0.2092282 -0.287632
vt 0.896091 0.427042
vt 0.815029 0.209208
vt 0.659982 0.606587
vt 0.584214 0.295873
vt 0.253687 0.427042
vt 0.980468 0.37228
vt 0.409865 0.306228
vt 0.22326 0.209208
v 0.176555 0.147884 -0.1342643
vn 0.9346076 0.2092282 -0.287632
vt 0.0106054 0.308619
v 0 0.305109 0.444872
vt 0.948 0.941882
vn 0 0.4107092 0.9117664
v -0.084432 0.282229 0.431859
vn -0.405811 0.373733 0.834051
v 0.084432 0.282229 0.431859
vn 0.4042789 0.372219 0.8354709
v 0.0819791 0.318646 -0.0846078
vt 0.943801 0.943153
vn 0.2473129 0.9689357 0
v 0.096721 0.235326 -0.0846078
vn 0.9847057 0.174226 0
v 0.0629148 0.243955 -0.119498
vn 0.101978 0.3995359 -0.9110278
v 0.0629148 0.243955 -0.0497178
vn 0.101979 0.399535 0.911028
v 0.0291085 0.252584 -0.0846078
vn -0.7807489 0.624845 0
v 0.0888075 0.345399 0.0113411
v 0.10883 0.232236 0.0113411
v 0.0629148 0.243955 -0.0360458
v 0.0629148 0.243955 0.0587281
v 0.0169999 0.255675 0.0113411
v -0.0819791 0.318646 -0.0846078
vn -0.2473129 0.9689357 0
v -0.0629148 0.243955 -0.119498
vn -0.101978 0.3995359 -0.9110278
v -0.096721 0.235326 -0.0846078
vn -0.9847057 0.174226 0
v -0.0291086 0.252584 -0.0846078
vn 0.7807489 0.624845 0
v -0.0629148 0.243955 -0.0497178
vn -0.101978 0.3995359 0.9110278
v -0.0888075 0.345399 0.0113411
v -0.0629148 0.243955 -0.0360458
v -0.10883 0.232236 0.0113411
v -0.0169999 0.255675 0.0113411
v -0.0629148 0.243955 0.0587281
v -0.1615 0.159541 0.362341
vt 0.932169 0.0798609
vn -0.8544123 -0.2722501 0.4425601
v -0.17276 0.186091 0.335052
vn 0.7364568 0.3632729 -0.5706699
v -0.143771 0.125659 0.35098
vn 0.8596982 0.107232 -0.4994201
v -0.139955 0.171093 0.385232
vn 0.8999462 0.3259371 -0.289589
v 0.1615 0.159541 0.362341
vn 0.8544123 -0.2722501 0.4425601
v 0.143771 0.125659 0.35098
vn -0.8596988 0.107232 -0.4994189
v 0.17276 0.186091 0.335052
vn -0.7364568 0.3632729 -0.5706699
v 0.139955 0.171093 0.385232
vn -0.8999465 0.3259372 -0.2895882
v 0.193925 0.41134 0.150021
vt 0.0968274 0.472453
vn -0.8902569 0.243222 -0.3850789
vt 0.0784367 0.623748
vt 0.34684 0.622005
vt -0.0984573 0.407876
vt 0.401182 0.441668
vt 0.948828 0.944122
v -0.193925 0.41134 0.150021
vn 0.8902569 0.243222 -0.3850789
vt 0.940695 0.948602
o merged_0_0_node
g polygon_0
usemtl lambert3_mat_id
f 1/1/1 2/2/2 3/3/3
f 1/1/1 4/4/4 2/2/2
f 1/1/1 3/3/3 5/2/5
f 1/1/1 6/5/6 4/4/4
f 1/1/1 5/2/5 7/4/7
f 1/1/1 8/6/8 6/5/6
f 1/1/1 7/4/7 9/5/9
f 1/1/1 10/7/10 8/6/8
f 1/1/1 9/5/9 11/6/11
f 1/1/1 11/6/11 10/7/10
f 12/8/12 13/8/13 14/8/14
f 12/8/12 15/8/15 13/8/13
f 12/8/12 14/8/14 16/8/16
f 12/8/12 17/8/17 15/8/15
f 12/8/12 16/8/16 18/8/18
f 12/8/12 18/8/18 17/8/17
f 13/8/13 3/8/3 14/8/14
f 13/8/13 15/8/15 3/8/3
f 16/8/16 19/8/19 18/8/18
f 16/8/16 20/8/20 19/8/19
f 18/8/18 19/8/19 17/8/17
f 20/8/20 21/8/21 19/8/19
f 20/8/20 22/8/22 21/8/21
f 20/8/20 23/8/23 22/8/22
f 17/8/17 19/8/19 24/8/24
f 21/8/21 22/8/22 24/8/24
f 21/8/21 24/8/24 19/8/19
f 23/8/23 10/8/10 22/8/22
f 24/8/24 22/8/22 25/8/25
f 25/8/25 22/8/22 10/8/10
f 26/9/26 27/9/27 28/9/28
f 26/9/26 29/9/29 27/9/27
f 26/9/26 28/9/28 30/9/30
f 26/9/26 31/9/31 29/9/29
f 26/9/26 30/9/30 32/9/32
f 26/9/26 32/9/32 31/9/31
f 27/9/27 33/9/33 28/9/28
f 27/9/27 29/9/29 34/9/34
f 27/9/27 34/9/34 33/9/33
f 30/9/30 35/9/35 32/9/32
f 30/9/30 28/9/28 36/9/36
f 30/9/30 36/9/36 35/9/35
f 31/9/31 37/9/37 29/9/29
f 31/9/31 32/9/32 38/9/38
f 31/9/31 38/9/38 37/9/37
f 34/9/34 39/9/39 33/9/33
f 28/9/28 40/9/40 36/9/36
f 28/9/28 33/9/33 40/9/40
f 35/9/35 41/9/41 32/9/32
f 35/9/35 36/9/36 42/9/42
f 35/9/35 43/9/43 41/9/41
f 35/9/35 42/9/42 43/9/43
f 32/9/32 41/9/41 38/9/38
f 37/9/37 38/9/38 44/9/44
f 39/9/39 45/9/45 33/9/33
f 39/9/39 46/9/46 45/9/45
f 33/9/33 45/9/45 40/9/40
f 36/9/36 47/9/47 42/9/42
f 36/9/36 40/9/40 47/9/47
f 45/9/45 46/9/46 47/9/47
f 45/9/45 47/9/47 40/9/40
f 43/9/43 48/9/48 41/9/41
f 43/9/43 42/9/42 49/9/49
f 49/9/49 47/9/47 46/9/46
f 49/9/49 42/9/42 47/9/47
f 48/9/48 44/9/44 38/9/38
f 48/9/48 38/9/38 41/9/41
f 50/10/50 51/11/51 52/12/52
f 50/10/50 53/13/53 51/11/51
f 50/10/50 52/12/52 54/12/54
f 50/10/50 55/14/55 53/13/53
f 50/10/50 54/12/54 56/10/56
f 50/10/50 56/10/56 55/14/55
f 51/11/51 46/15/46 52/12/52
f 51/11/51 53/13/53 57/16/57
f 51/11/51 49/17/49 46/15/46
f 51/11/51 57/16/57 49/17/49
f 54/12/54 58/11/58 56/10/56
f 54/12/54 52/12/52 39/15/39
f 54/12/54 39/15/39 58/11/58
f 52/12/52 46/15/46 39/15/39
f 55/14/55 59/18/59 53/13/53
f 55/14/55 56/10/56 60/13/60
f 55/14/55 61/18/61 59/18/59
f 55/14/55 60/13/60 61/18/61
f 59/18/59 57/16/57 53/13/53
f 56/10/56 58/11/58 60/13/60
f 39/15/39 34/17/34 58/11/58
f 61/18/61 60/13/60 62/16/62
f 62/16/62 58/11/58 34/17/34
f 62/16/62 60/13/60 58/11/58
f 63/19/63 64/20/64 65/21/65
f 63/19/63 66/22/66 64/20/64
f 63/19/63 65/21/65 67/23/67
f 63/19/63 68/24/68 66/22/66
f 63/19/63 67/23/67 69/25/69
f 63/19/63 69/25/69 68/24/68
f 70/19/70 71/21/71 72/20/72
f 70/19/70 73/23/73 71/21/71
f 70/19/70 72/20/72 74/22/74
f 70/19/70 75/25/75 73/23/73
f 70/19/70 74/22/74 76/24/76
f 70/19/70 76/24/76 75/25/75
f 77/26/77 14/27/14 2/28/2
f 77/26/77 16/29/16 14/27/14
f 77/26/77 2/28/2 4/30/4
f 77/26/77 23/31/23 16/29/16
f 77/26/77 4/30/4 23/31/23
f 14/27/14 3/32/3 2/28/2
f 4/30/4 6/33/6 23/31/23
f 3/32/3 15/27/15 5/28/5
f 6/33/6 8/34/8 23/31/23
f 15/27/15 78/26/78 5/28/5
f 15/27/15 17/29/17 78/26/78
f 8/34/8 10/35/10 23/31/23
f 5/28/5 78/26/78 7/30/7
f 17/29/17 25/31/25 78/26/78
f 78/26/78 25/31/25 7/30/7
f 10/35/10 11/34/11 25/31/25
f 7/30/7 25/31/25 9/33/9
f 9/33/9 25/31/25 11/34/11
f 79/36/79 44/36/44 80/36/80
f 79/36/79 81/36/81 44/36/44
f 79/36/79 80/36/80 59/36/59
f 79/36/79 61/36/61 81/36/81
f 79/36/79 59/36/59 61/36/61
f 44/36/44 48/36/48 80/36/80
f 44/36/44 81/36/81 37/36/37
f 59/36/59 80/36/80 57/36/57
f 61/36/61 62/36/62 81/36/81
f 82/37/82 83/37/83 84/37/84
f 82/37/82 85/37/85 83/37/83
f 82/37/82 84/37/84 86/37/86
f 82/37/82 86/37/86 85/37/85
f 87/37/82 88/37/83 89/37/84
f 87/37/82 90/37/85 88/37/83
f 87/37/82 89/37/84 91/37/86
f 87/37/82 91/37/86 90/37/85
f 92/37/87 93/37/88 94/37/89
f 92/37/87 95/37/90 93/37/88
f 92/37/87 94/37/89 96/37/91
f 92/37/87 96/37/91 95/37/90
f 97/37/87 98/37/88 99/37/89
f 97/37/87 100/37/90 98/37/88
f 97/37/87 99/37/89 101/37/91
f 97/37/87 101/37/91 100/37/90
f 102/38/92 103/38/93 104/38/94
f 102/38/92 105/38/95 103/38/93
f 102/38/92 104/38/94 105/38/95
f 105/38/95 104/38/94 103/38/93
f 106/38/96 107/38/97 108/38/98
f 106/38/96 109/38/99 107/38/97
f 106/38/96 108/38/98 109/38/99
f 109/38/99 108/38/98 107/38/97
f 110/39/100 65/40/65 64/41/64
f 110/39/100 67/42/67 65/40/65
f 110/39/100 64/41/64 66/43/66
f 110/44/100 66/44/66 68/44/68
f 110/44/100 68/44/68 69/44/69
f 110/44/100 69/44/69 67/44/67
f 111/39/101 72/41/72 71/40/71
f 111/39/101 74/43/74 72/41/72
f 111/39/101 71/40/71 73/42/73
f 111/44/101 76/44/76 74/44/74
f 111/44/101 75/44/75 76/44/76
f 111/44/101 73/44/73 75/44/75
f 16/45/16 23/45/23 20/45/20
f 25/45/25 17/45/17 24/45/24
vt 1.02337 0.79483
vt 1.00729 1.02411
vt 0.0568841 0.825458
vt -0.153724 0.914944
vt 0.177567 1.04841
o merged_1_0_node
g polygon_0
usemtl TEX_ANIM_EYE_mat_id
f 34/46/34 29/47/29 62/48/62
f 57/48/57 80/49/80 48/50/48
f 43/47/43 57/48/57 48/50/48
f 62/48/62 37/50/37 81/49/81
f 29/47/29 37/50/37 62/48/62
f 49/46/49 57/48/57 43/47/43
