mtllib Mime Jr.mtl
v 0.0831277 0.553855 -0.0902354
vt 0.733975 1.22787
vn 0.5446807 0.7184246 -0.4326537
v 0.131464 0.479943 -0.154997
vt 0.895943 1.07596
vn 0.6565909 0.338857 -0.673843
v 0 0.499907 -0.199667
vt 1.00766 1.09295
vn 0 0.5152911 -0.8570152
v 0.148579 0.535297 -0.000605581
vt 0.509809 1.18146
vn 0.715408 0.6936229 -0.08413459
v 0 0.561766 -0.12922
vt 0.831476 1.24765
vn 0 0.6306888 -0.7760357
v 0.10132 0.553855 0.0363372
vt 0.417415 1.22787
vn 0.434535 0.8775041 0.202894
v 0 0.604278 -0.11854
vt 0.804764 1.35398
vn 0 0.463559 -0.8860661
v 0.0707593 0.590169 0.0107534
vt 0.481401 1.31869
vn 0.6025766 0.7752396 0.1894859
v 0.0452071 0.612225 -0.0697673
vt 0.682784 1.37385
vn 0.6909102 0.6885163 -0.2204281
v 0 0.400564 -0.229482
vt 1.08223 0.844487
vn 0 -0.124458 -0.9922249
v 0.186384 0.470472 0.000534912
vt 0.506957 1.01933
vn 0.9069269 0.4211049 -0.0124216
v 0.103743 0.38502 -0.147457
vt 0.877085 0.805612
vn 0.601038 -0.250517 -0.7589431
v 0.16706 0.415063 -0.0727231
vt 0.690176 0.880749
vn 0.8308262 0.04983671 -0.5542962
v -0.0831277 0.553855 -0.0902354
vn -0.544681 0.718424 -0.432654
v 0 0.571373 0.0898184
vt 0.283658 1.27168
vn 0 0.9245231 0.381126
v 0.137393 0.515194 0.125365
vt 0.194755 1.14761
vn 0.6274608 0.5093518 0.5889428
v 0 0.553203 0.155388
vt 0.103701 1.23536
vn 0 0.7998191 0.6002411
v 0 0.666521 -0.083704
vt 0.717639 1.50965
vn 0 0.9507343 -0.3100071
v 0 0.627779 -0.0345857
vt 0.594794 1.41275
vn 0 0.9529918 0.302996
v 0 0.347239 -0.184083
vt 0.968689 0.711121
vn 0 -0.4415759 -0.8972239
v -0.131464 0.479943 -0.154997
vn -0.6565903 0.3388572 -0.6738434
v -0.103743 0.38502 -0.147457
vn -0.601038 -0.250517 -0.7589431
v 0.220432 0.406074 -0.0361171
vt 0.598624 0.858267
vn 0.8526006 0.1836529 -0.4892278
v 0.160432 0.347887 -0.0756439
vt 0.697481 0.712743
vn 0.7738435 -0.2760918 -0.5700346
v -0.10132 0.553855 0.0363372
vn -0.4345351 0.8775042 0.202893
v 0 0.605098 0.05273901
vt 0.376394 1.35603
vn 0 0.8849276 0.4657288
v -0.0707593 0.590169 0.0107534
vn -0.6025766 0.7752396 0.1894859
v 0.156198 0.421138 0.0724054
vt 0.327209 0.895944
vn 0.8142503 0.09277704 0.5730522
v 0 0.492248 0.19294
vt 0.00978303 1.08292
vn 0 0.1825509 0.9831964
v 0.120734 0.439239 0.12769
vt 0.18894 0.914212
vn 0.5531467 -0.01035339 0.8330196
v -0.045207 0.612225 -0.0697673
vn -0.6909102 0.6885163 -0.2204281
v -0.113868 0.282222 -0.113868
vt 0.79308 0.548513
vn -0.545043 -0.592619 -0.593069
v 0.113868 0.282222 -0.113868
vn 0.545043 -0.592619 -0.593069
v 0 0.272793 -0.157935
vt 0.903291 0.524932
vn 0 -0.6323301 -0.7746991
v -0.148579 0.535297 -0.000605581
vn -0.715408 0.6936229 -0.08413469
v -0.16706 0.415063 -0.0727231
vn -0.8308262 0.04983661 -0.5542961
v -0.186384 0.470472 0.000534912
vn -0.9069269 0.4211049 -0.0124217
v 0.220716 0.405906 0.0364159
vt 0.417218 0.857848
vn 0.8289672 0.2049091 0.5204092
v 0.222352 0.349311 0.000688743
vt 0.506572 0.716304
vn 0.8638801 -0.5036321 -0.008116232
v -0.137393 0.515194 0.125365
vn -0.6274612 0.5093521 0.5889421
v 0.162876 0.350237 0.0728531
vt 0.326089 0.71862
vn 0.8081227 -0.2111499 0.5498668
v 0 0.445023 0.178953
vt 0.0125988 0.939245
vn 0 -0.05145571 0.9986753
v 0.125496 0.321885 0.135198
vt 0.170164 0.64771
vn 0.6125079 -0.148152 0.7764568
v 0 0.218158 -0.0703743
vt 0.684302 0.38829
vn 0 -0.95623 -0.292616
v -0.160432 0.347887 -0.0756439
vn -0.7738437 -0.2760909 -0.5700348
v -0.103859 0.232901 0
vt 0.508295 0.425161
vn -0.442392 -0.895933 -0.0399186
v -0.169324 0.297805 0.00117485
vt 0.505357 0.587486
vn -0.7633369 -0.645582 -0.0232522
v 0.169324 0.297805 0.00117485
vn 0.7633369 -0.645582 -0.0232524
v -0.156198 0.421138 0.0724054
vn -0.8142503 0.09277674 0.5730522
v -0.220432 0.406074 -0.0361171
vn -0.8526006 0.1836529 -0.4892278
v -0.220716 0.405906 0.0364159
vn -0.8289672 0.2049091 0.5204092
v -0.120734 0.439239 0.12769
vn -0.5531467 -0.01035339 0.8330196
v -0.110657 0.26684 0.113868
vt 0.22351 0.510042
vn -0.5056691 -0.7190241 0.4767631
v 0 0.218158 0.0703743
vt 0.332288 0.38829
vn 0 -0.9652736 0.2612409
v 0.103859 0.232901 0
vn 0.442392 -0.895933 -0.0399186
v 0.110657 0.26684 0.113868
vn 0.5056691 -0.7190241 0.4767631
v -0.222352 0.349311 0.000688743
vn -0.8638802 -0.5036321 -0.008116082
v -0.162876 0.350237 0.0728531
vn -0.8081227 -0.2111499 0.5498668
v -0.125496 0.321885 0.135198
vn -0.6125084 -0.1481521 0.7764564
v -0.0628639 0.0564933 -0.10726
vt -0.153925 0.114327
vn -0.3878429 -0.5519358 -0.7382038
v 0.0608004 0.0884007 -0.105309
vt 0.148872 0.234462
vn 0.4533919 0.370162 -0.8108119
v 0.062864 0.0564933 -0.10726
vt 0.153925 0.114327
vn 0.3878429 -0.5519358 -0.7382038
v -0.0608004 0.0884007 -0.105309
vt -0.148872 0.234462
vn -0.4533919 0.370162 -0.8108119
v 0 0.0169234 0
vt 0 -0.0346577
vn 0 -0.9999986 0.001664119
v -0.121601 0.0913644 0
vt -0.45784 0.24562
vn -0.9370736 0.1720389 -0.3038019
v -0.0573382 0 0
vt -0.140395 -0.098376
vn -0.2534019 -0.9673597 -0.001627509
v -0.125728 0.0564933 0
vt -0.473379 0.114327
vn -0.9225696 -0.3857959 0.005175848
v 0.121601 0.0913644 0
vt 0.45784 0.24562
vn 0.9370736 0.1720389 -0.3038019
v -0.0628639 0.0564933 0.102148
vn -0.389499 -0.548714 0.739732
v 0.0573382 0 0
vt 0.140395 -0.098376
vn 0.2534019 -0.9673597 -0.00162736
v 0.0628639 0.0564933 0.102148
vn 0.389499 -0.548714 0.739732
v 0.125728 0.0564933 0
vt 0.473379 0.114327
vn 0.9225696 -0.3857959 0.005176138
v 0.0608004 0.0913644 0.105309
vt 0.148872 0.24562
vn 0.1632409 0.101235 0.9813786
v -0.0608004 0.0913644 0.105309
vt -0.148872 0.24562
vn -0.1632409 0.101235 0.9813786
v 0.0273704 0.217188 -0.0449073
vt 0.0548653 0.444834
vn 0.419054 0.5136701 -0.7486901
v -0.0273704 0.217188 -0.0449073
vn -0.419054 0.5136701 -0.7486901
v 0.0547408 0.217188 0
vn 0.7207056 0.5739765 -0.3887603
v 0 0.229166 0
vn 0 1 0
v 0.167564 0.160516 0.112616
vn 0.8143079 0.246316 0.5255769
v -0.0547408 0.217188 0
vn -0.7207053 0.5739762 -0.3887612
v 0.0273704 0.217188 0.0449072
vn -0.00127735 0.5937348 0.8046598
v -0.0273704 0.217188 0.0449072
v -0.167564 0.160516 0.112616
vn -0.8143077 0.2463169 0.5255768
v 0 0.275662 0.16388
vt 0.999735 0.212158
vn 0 -0.6022173 0.7983323
vt 0.631071 0.182767
vt 0.999735 0.0205798
vt 0.581634 0.366154
vt 1.3684 0.182767
v 0 0.349641 0.184242
vt 0.999735 0.458629
vn 0 -0.0638098 0.9979621
vt 1.41784 0.366154
v 0 0.349938 0.221357
vt 0.534217 0.147916
vn 0 0 1
v -0.0431818 0.365405 0.200244
vn -0.6916668 0.5244798 0.4965058
v -0.0431818 0.334471 0.200244
vn -0.6864229 -0.535494 0.4920059
v 0 0.380872 0.200244
vn 0 0.918232 0.396043
v 0 0.319003 0.200244
vn 0 -0.9325426 0.3610599
v 0.0431818 0.365405 0.200244
vn 0.6916671 0.5244801 0.4965051
v 0.0431818 0.334471 0.200244
vn 0.6864232 -0.5354942 0.4920052
v -0.0390923 0.34951 0.166117
vn -0.9580768 -0.005642799 -0.2864559
v -0.0260615 0.373814 0.166117
vn -0.3728951 0.9176702 -0.137225
v 0.0260615 0.32854 0.166117
vn 0.345471 -0.918902 -0.190444
v -0.0260615 0.32854 0.166117
vn -0.345471 -0.918902 -0.190444
v 0.0260615 0.373814 0.166117
vn 0.3728959 0.9176698 -0.137225
v 0.0390923 0.34951 0.166117
vn 0.9580768 -0.005642719 -0.2864559
v 0.0430811 0.126704 0.110227
vt 0.53361 0.155273
vn 1 0 0
v 0 0.126704 0.0671455
vn 0 0 -1
v 0 0.169785 0.110227
v 0 0.0836225 0.110227
v 0 0.126704 0.153308
v -0.0430811 0.126704 0.110227
vn -1 0 0
v 0.0567021 0.699504 -0.0814541
vt 0.529925 0.0435533
v 0 0.699504 -0.138156
v 0 0.756206 -0.0814541
v 0 0.642802 -0.0814541
v 0 0.699504 -0.024752
v -0.0567021 0.699504 -0.0814541
o merged_0_0_node
g polygon_0
usemtl lambert3_mat_id
f 1/1/1 2/2/2 3/3/3
f 1/1/1 4/4/4 2/2/2
f 1/1/1 3/3/3 5/5/5
f 1/1/1 6/6/6 4/4/4
f 1/1/1 5/5/5 7/7/7
f 1/1/1 8/8/8 6/6/6
f 1/1/1 7/7/7 9/9/9
f 1/1/1 9/9/9 8/8/8
f 2/2/2 10/10/10 3/3/3
f 2/2/2 4/4/4 11/11/11
f 2/2/2 12/12/12 10/10/10
f 2/2/2 11/11/11 13/13/13
f 2/2/2 13/13/13 12/12/12
f 5/5/5 14/1/14 7/7/7
f 5/5/5 3/3/3 14/1/14
f 6/6/6 8/8/8 15/14/15
f 6/6/6 16/15/16 4/4/4
f 6/6/6 15/14/15 17/16/17
f 6/6/6 17/16/17 16/15/16
f 4/4/4 16/15/16 11/11/11
f 9/9/9 7/7/7 18/17/18
f 9/9/9 19/18/19 8/8/8
f 9/9/9 18/17/18 19/18/19
f 10/10/10 12/12/12 20/19/20
f 10/10/10 21/2/21 3/3/3
f 10/10/10 20/19/20 22/12/22
f 10/10/10 22/12/22 21/2/21
f 3/3/3 21/2/21 14/1/14
f 13/13/13 11/11/11 23/20/23
f 13/13/13 24/21/24 12/12/12
f 13/13/13 23/20/23 24/21/24
f 15/14/15 25/6/25 17/16/17
f 15/14/15 8/8/8 26/22/26
f 15/14/15 27/8/27 25/6/25
f 15/14/15 26/22/26 27/8/27
f 26/22/26 19/18/19 27/8/27
f 26/22/26 8/8/8 19/18/19
f 16/15/16 28/23/28 11/11/11
f 16/15/16 17/16/17 29/24/29
f 16/15/16 30/25/30 28/23/28
f 16/15/16 29/24/29 30/25/30
f 7/7/7 31/9/31 18/17/18
f 7/7/7 14/1/14 31/9/31
f 31/9/31 14/1/14 27/8/27
f 31/9/31 27/8/27 19/18/19
f 31/9/31 19/18/19 18/17/18
f 27/8/27 14/1/14 25/6/25
f 20/19/20 32/26/32 22/12/22
f 20/19/20 12/12/12 33/26/33
f 20/19/20 34/27/34 32/26/32
f 20/19/20 33/26/33 34/27/34
f 12/12/12 24/21/24 33/26/33
f 21/2/21 35/4/35 14/1/14
f 21/2/21 22/12/22 36/13/36
f 21/2/21 37/11/37 35/4/35
f 21/2/21 36/13/36 37/11/37
f 14/1/14 35/4/35 25/6/25
f 23/20/23 11/11/11 38/28/38
f 23/20/23 39/29/39 24/21/24
f 23/20/23 38/28/38 39/29/39
f 11/11/11 28/23/28 38/28/38
f 17/16/17 40/15/40 29/24/29
f 17/16/17 25/6/25 40/15/40
f 35/4/35 37/11/37 40/15/40
f 35/4/35 40/15/40 25/6/25
f 30/25/30 41/30/41 28/23/28
f 30/25/30 29/24/29 42/31/42
f 30/25/30 43/32/43 41/30/41
f 38/28/38 41/30/41 39/29/39
f 38/28/38 28/23/28 41/30/41
f 32/26/32 34/27/34 44/33/44
f 32/26/32 45/21/45 22/12/22
f 32/26/32 44/33/44 46/34/46
f 32/26/32 47/35/47 45/21/45
f 32/26/32 46/34/46 47/35/47
f 22/12/22 45/21/45 36/13/36
f 34/27/34 33/26/33 44/33/44
f 24/21/24 39/29/39 48/35/48
f 24/21/24 48/35/48 33/26/33
f 41/30/41 43/32/43 48/35/48
f 41/30/41 48/35/48 39/29/39
f 37/11/37 49/23/49 40/15/40
f 37/11/37 36/13/36 50/20/50
f 37/11/37 51/28/51 49/23/49
f 37/11/37 50/20/50 51/28/51
f 36/13/36 45/21/45 50/20/50
f 29/24/29 52/25/52 42/31/42
f 29/24/29 40/15/40 52/25/52
f 40/15/40 49/23/49 52/25/52
f 46/34/46 53/36/53 47/35/47
f 46/34/46 44/33/44 54/37/54
f 46/34/46 54/37/54 53/36/53
f 33/26/33 48/35/48 55/34/55
f 33/26/33 55/34/55 44/33/44
f 44/33/44 55/34/55 54/37/54
f 43/32/43 56/36/56 48/35/48
f 56/36/56 55/34/55 48/35/48
f 56/36/56 54/37/54 55/34/55
f 51/28/51 50/20/50 57/29/57
f 51/28/51 58/30/58 49/23/49
f 51/28/51 57/29/57 58/30/58
f 57/29/57 45/21/45 47/35/47
f 57/29/57 50/20/50 45/21/45
f 57/29/57 47/35/47 58/30/58
f 49/23/49 58/30/58 52/25/52
f 53/36/53 59/32/59 47/35/47
f 59/32/59 52/25/52 58/30/58
f 59/32/59 58/30/58 47/35/47
f 60/38/60 61/39/61 62/40/62
f 60/38/60 63/41/63 61/39/61
f 60/38/60 62/40/62 64/42/64
f 60/38/60 65/43/65 63/41/63
f 60/38/60 64/42/64 66/44/66
f 60/38/60 67/45/67 65/43/65
f 60/38/60 66/44/66 67/45/67
f 61/39/61 68/46/68 62/40/62
f 64/42/64 69/38/69 66/44/66
f 64/42/64 62/40/62 70/47/70
f 64/42/64 71/40/71 69/38/69
f 64/42/64 70/47/70 71/40/71
f 67/45/67 69/38/69 65/43/65
f 67/45/67 66/44/66 69/38/69
f 68/46/68 72/48/72 62/40/62
f 68/46/68 71/40/71 72/48/72
f 68/46/68 73/49/73 71/40/71
f 72/48/72 70/47/70 62/40/62
f 72/48/72 71/40/71 70/47/70
f 65/43/65 69/38/69 74/50/74
f 74/50/74 71/40/71 73/49/73
f 74/50/74 69/38/69 71/40/71
f 75/51/75 61/51/61 63/51/63
f 75/51/75 68/51/68 61/51/61
f 75/51/75 63/51/63 76/51/76
f 75/51/75 77/51/77 68/51/68
f 75/51/75 76/51/76 78/51/78
f 75/51/75 78/51/78 77/51/77
f 63/51/63 65/51/65 76/51/76
f 68/51/68 77/51/77 79/51/79
f 68/51/68 79/51/79 73/51/73
f 78/51/78 76/51/76 80/51/80
f 78/51/78 81/51/81 77/51/77
f 78/51/78 80/51/80 82/51/81
f 78/51/78 82/51/81 81/51/81
f 81/51/81 79/51/79 77/51/77
f 81/51/81 82/51/81 73/51/73
f 81/51/81 73/51/73 79/51/79
f 76/51/76 65/51/65 80/51/80
f 82/51/81 74/51/74 73/51/73
f 82/51/81 80/51/80 83/51/82
f 82/51/81 83/51/82 74/51/74
f 83/51/82 65/51/65 74/51/74
f 83/51/82 80/51/80 65/51/65
f 84/52/83 53/53/53 54/54/54
f 84/52/83 59/55/59 53/53/53
f 84/52/83 54/54/54 56/56/56
f 84/52/83 85/57/84 59/55/59
f 84/52/83 56/56/56 43/58/43
f 84/52/83 43/58/43 85/57/84
f 86/59/85 87/59/86 88/59/87
f 86/59/85 89/59/88 87/59/86
f 86/59/85 88/59/87 90/59/89
f 86/59/85 91/59/90 89/59/88
f 86/59/85 90/59/89 92/59/91
f 86/59/85 92/59/91 91/59/90
f 87/59/86 93/59/92 88/59/87
f 87/59/86 89/59/88 94/59/93
f 87/59/86 94/59/93 93/59/92
f 90/59/89 95/59/94 92/59/91
f 90/59/89 88/59/87 96/59/95
f 90/59/89 96/59/95 95/59/94
f 96/59/95 88/59/87 93/59/92
f 91/59/90 97/59/96 89/59/88
f 91/59/90 92/59/91 98/59/97
f 91/59/90 98/59/97 97/59/96
f 97/59/96 94/59/93 89/59/88
f 98/59/97 92/59/91 95/59/94
f 99/60/98 100/60/99 101/60/78
f 99/60/98 102/60/64 100/60/99
f 99/60/98 101/60/78 103/60/85
f 99/60/98 103/60/85 102/60/64
f 100/60/99 104/60/100 101/60/78
f 100/60/99 102/60/64 104/60/100
f 104/60/100 103/60/85 101/60/78
f 104/60/100 102/60/64 103/60/85
f 105/61/98 106/61/99 107/61/78
f 105/61/98 108/61/64 106/61/99
f 105/61/98 107/61/78 109/61/85
f 105/61/98 109/61/85 108/61/64
f 106/61/99 110/61/100 107/61/78
f 106/61/99 108/61/64 110/61/100
f 110/61/100 109/61/85 107/61/78
f 110/61/100 108/61/64 109/61/85
vt -0.0929523 1.01502
vt 0.940816 1.00252
vt 0.98159 0.748961
vt -0.0929523 0.808934
o merged_1_0_node
g polygon_0
usemtl TEX_ANIM_EYE_mat_id
f 42/62/42 52/63/52 59/64/59
f 43/64/43 42/62/42 85/65/84
f 85/65/84 42/62/42 59/64/59
f 43/64/43 30/63/30 42/62/42
