mtllib Furfrou_Diamond.mtl
v 0 0.652802 0.102813
vt 0.0649201 0.957805
vn 0 -0.6272411 0.7788251
v 0.160367 0.412502 0.164493
vt 0.0538816 0.9148
vn -0.1798421 -0.5312683 0.8278954
v 0.153289 0.450048 0.213566
vt 0.0450994 0.92152
vn -0.4971821 -0.674868 0.5453101
v 0.120825 0.345694 0.155723
vt 0.0554511 0.902844
vn -0.5284091 -0.3946961 0.7516641
v 0.130026 0.479854 0.26468
vt 0.0359518 0.934077
vn -0.4702269 -0.8700339 0.14808
v 0 0.321674 0.00436159
vt 0.0825394 0.898545
vn 0 -0.702355 0.7118269
v 0.075517 0.497312 0.297563
vt 0.0292013 0.929978
vn 0.02409509 -0.9062207 0.4221179
v -0.120825 0.345694 0.155723
vn 0.5284091 -0.3946961 0.7516641
v 0 0.480894 0.294407
vt 0.0256854 0.92704
vn 0 -0.9997687 0.02150529
v -0.160367 0.412502 0.164493
vn 0.225445 -0.5657601 0.793152
v -0.075517 0.497312 0.297563
vn -0.02409751 -0.9062214 0.4221162
v -0.153289 0.450048 0.213566
vn 0.455531 -0.650917 0.607288
v -0.130026 0.479854 0.26468
vn 0.4702269 -0.8700339 0.14808
v 0.207934 0.425223 0.165891
vt 0.0536316 0.917077
vn 0.9064869 -0.397079 0.143561
v 0.188393 0.472948 0.0471062
vt 0.0748897 0.925618
vn 0.7972727 -0.2883059 -0.5303168
v 0.137152 0.613826 0.262254
vt 0.0323403 0.948026
vn 0.4871129 0.3778969 0.7873468
v 0.160329 0.524159 0.229367
vt 0.0441317 0.934707
vn 0.7646233 -0.1435491 0.6282873
v -0.105874 0.365924 0.0283831
vt 0.0782404 0.906464
vn -0.6184352 -0.6130152 -0.4916812
v 0.105874 0.365924 0.0283831
vn 0.6184352 -0.6130152 -0.4916812
v 0 0.405497 -0.0647595
vt 0.0951589 0.910506
vn 0 -0.2568991 -0.9664382
v 0 0.669909 0.289246
vt 0.0259271 0.952055
vn 0 0.2759351 0.9611763
v -0.214698 0.413006 0.165891
vt 0.0536316 0.91489
vn -0.9096176 -0.3942788 0.1309199
v -0.188393 0.472948 0.0471062
vn -0.7967668 -0.2770529 -0.5370329
v -0.137152 0.613826 0.262254
vn -0.4871129 0.3778969 0.7873468
v -0.160329 0.524159 0.229367
vn -0.7646229 -0.143549 0.6282879
v 0.239087 0.596697 0.163901
vt 0.0539877 0.947764
vn 0.9951848 -0.06722519 0.07133038
v 0 0.76219 0.249124
vt 0.0431902 0.973881
vn 0 0.8159149 0.578172
v 0.13713 0.695831 0.143306
vt 0.0576733 0.967209
vn 0.676095 0.730009 0.0999117
v -0.239087 0.596697 0.163901
vn -0.9957762 -0.05686881 0.07208101
v 0.0832927 0.538069 -0.0412252
vt 0.0921609 0.931863
vn 0.3995878 -0.03715708 -0.9159416
v -0.0832927 0.538069 -0.0412252
vn -0.3995878 -0.03715708 -0.9159416
v 0.22901 0.6149 0.0321186
vt 0.0681731 0.949666
vn 0.7892892 0.09404873 -0.6067762
v 0.209586 0.692647 0.130418
vt 0.0558305 0.957486
vn 0.547828 0.836503 0.0121318
v 0.218291 0.605261 0.256284
vt 0.043164 0.947895
vn 0.6331791 0.235248 0.7373891
vn 0.5146869 -0.5780069 0.6332499
v 0 0.805541 0.126975
vt 0.0680749 0.971212
vn 0 0.9995088 0.0313401
v 0 0.776381 0.00240599
vt 0.0841621 0.973329
vn 0 0.8540098 -0.5202569
v 0.13477 0.644142 0.00537182
vt 0.0823586 0.951568
vn 0.642647 0.42737 -0.6358929
v -0.13713 0.695831 0.143306
vn -0.676095 0.730009 0.0999117
v -0.22901 0.6149 0.0321186
vn -0.7892892 0.09404873 -0.6067762
v -0.209586 0.692647 0.130418
vn -0.547828 0.836503 0.0121318
v -0.218291 0.605261 0.256284
vn -0.6331791 0.235248 0.7373891
vn -0.5146869 -0.5780069 0.6332499
v 0 0.661913 -0.065595
vt 0.100249 0.954981
vn 0 0.2659759 -0.9639797
v -0.13477 0.644142 0.00537182
vn -0.642647 0.42737 -0.6358929
vn 0.2971851 0.4580891 -0.8377562
vn 0.119927 0.5384269 0.8340948
vn -0.2971851 0.4580891 -0.8377562
vn -0.119927 0.5384269 0.8340948
vn 0.07232262 0.9838893 0.163497
vn -0.07232262 0.9838893 0.163497
v -0.114404 0.1950594 -0.1336863
vt 0.912601 0.449684
vn -0.6692702 0.1504847 -0.7276206
v 0 0.09067545 -0.1960945
vt 0.936757 0.314367
vn 0 -0.1819742 -0.9833032
v -0.117989 -1.473622E-05 -0.1629721
vt 0.922654 0
vn -0.4918464 -0.5625902 -0.6645143
v 0 0.1881913 -0.2038641
vt 0.933807 0.449683
vn 0 0.147129 -0.9891173
v -0.118371 0.1192615 -0.06852419
vt 0.891711 0.320649
vn -0.7147156 -0.2999487 0.6318327
v 0 0.264652 -0.166864
vt 0.922532 0.620038
vn 0 0.4996649 -0.8662188
v -0.110046 0.1950594 -0.05906838
vt 0.89212 0.449684
vn -0.7337082 0.1157918 0.6695256
v -0.10429 0.257954 -0.133752
vt 0.906018 0.590168
vn -0.6337178 0.5180489 -0.5744799
v -0.0931484 0.249936 -0.0653117
vt 0.89212 0.595587
vn -0.5140401 0.6035861 0.6094641
v 0 0.07364465 -0.06064859
vt 0.883816 0.337127
vn 0 -0.7506879 0.660657
v 0.114404 0.1950594 -0.1336863
vn 0.6692707 0.1504848 -0.7276201
v 0.117988 -1.473622E-05 -0.1629721
vn 0.4918467 -0.5625905 -0.6645138
v 0 0.1824943 -0.02862611
vt 0.887968 0.482253
vn 0 0.07300183 0.9973318
v 0 0.28153 -0.105422
vt 0.89212 0.62738
vn 0 0.973868 0.227115
v 0.118371 0.1192615 -0.06852409
vn 0.714716 -0.2999488 0.6318321
v 0.10429 0.257954 -0.133752
vn 0.6337178 0.5180489 -0.5744799
v 0.0931484 0.249936 -0.0653117
vn 0.5140398 0.6035858 0.6094648
v 0.110046 0.1950594 -0.05906838
vn 0.7337077 0.1157917 0.6695261
v 0 0.222161 0.0016686
vt 0.209184 0.93092
vn -0.688506 0.510225 0.515393
v 0 0.389868 0.00333598
vt 0.213067 0.958623
vn 0.9633579 -0.00329884 -0.268199
v 0.0928204 0.338575 0.0598021
vt 0.203618 0.953646
vn 0 -0.2388289 -0.9710616
v -0.0928204 0.338575 0.0598021
v 0.103833 0.25023 0.0467442
vt 0.194642 0.936833
vn 0 0.9980261 -0.06280041
v -0.103833 0.25023 0.0467442
vn -0.7107323 0.3258422 -0.6234473
v 0.128669 0.117998 0.0332627
vt 0.202139 0.907694
vn 0.5945059 -0.7230128 -0.3518739
v -0.128669 0.117998 0.0332627
vn -0.5945059 -0.7230128 -0.3518739
v 0 0.0716297 0.0233779
vt 0.204343 0.897354
vn 0 -0.8073719 -0.5900429
v 0.11563 0.329174 0.176531
vt 0.170193 0.949103
vn 0.688506 0.510225 0.515393
v -0.11563 0.329174 0.176531
vn -0.9633579 -0.00329887 -0.268199
v 0 0.293012 0.206031
vt 0.163615 0.934126
vn 0 0.07300179 0.9973319
v 0 0.045206 0.1913296
vt 0.166893 0.891463
vn 0 -0.9053369 0.424694
v 0.114643 0.1068605 0.1700944
vt 0.171628 0.90521
vn 0.5254908 -0.5029082 0.6862528
v -0.0749173 0.217722 0.179768
vt 0.169471 0.927766
vn -0.6932291 0.122808 0.7101771
v 0.0749173 0.217722 0.179768
vn 0.6932291 0.122808 0.7101771
v 0 0.188385 0.245534
vt 0.156134 0.913627
vn 0 0.4213371 0.9069041
v -0.114643 0.1068605 0.1700944
vn -0.9248579 -0.2832526 0.2537833
v -0.0804368 0.1798723 0.1423041
vt 0.657508 0.682174
vn -0.8187946 0.1225479 0.5608541
v -0.117989 -1.286134E-05 0.1571964
vt 0.654207 0.642297
vn -0.3725772 -0.7394421 0.5607241
v 0 0.09024593 0.1960667
vt 0.64559 0.662305
vn 0 -0.3089638 0.9510738
v -0.0960491 0.1193697 0.06586922
vt 0.674453 0.668761
vn -0.9659491 -0.1352983 -0.2205371
v 0 0.1798723 0.1949937
vt 0.645828 0.682174
vn 0 0.125545 0.9920879
v -0.0795179 0.217692 -0.0625083
vt 0.715478 0.688403
vn -0.8545461 0.5118151 -0.08829641
v 0 0.247841 0.189979
vt 0.646939 0.697242
vn 0 0.315442 0.9489449
v -0.0821538 0.247429 0.13068
vt 0.660085 0.69715
vn -0.8605419 0.4178869 0.29127
v 0 0.1013685 0.04311929
vt 0.679497 0.66477
vn 0 -0.9551365 -0.2961658
v 0.0804368 0.1798723 0.1423041
vn 0.8187946 0.1225479 0.5608541
v 0 0.237051 -0.062667
vt 0.725097 0.69728
vn 0 0.9886412 -0.150295
v -0.0810184 0.1272486 -0.06232272
vt 0.702378 0.670507
vn -0.9701866 -0.2352918 -0.05810067
v 0.117988 -1.286134E-05 0.1571964
vn 0.3725772 -0.7394421 0.5607241
v 0 0.1077974 -0.06214131
vt 0.696932 0.666196
vn 0 -0.9969736 -0.07774143
v 0.0960491 0.1193697 0.06586932
vn 0.9659491 -0.1352983 -0.2205371
v 0 0.372944 0.110865
vt 0.657652 0.717696
vn 0 0.9998038 0.0198094
v 0.0821538 0.247429 0.13068
vn 0.8605416 0.4178868 0.2912709
v 0 0.254978 0.0740555
vt 0.672639 0.698824
v 0.0795179 0.217692 -0.0625083
vn 0.8545461 0.5118151 -0.08829641
v 0.0810184 0.1272486 -0.06232272
vn 0.9701866 -0.2352918 -0.05810067
v -0.126723 0.456212 0.29157
vt 0.553068 0.81736
vn -0.5835202 0.005597192 0.8120793
v -0.185709 0.469727 0.21507
vt 0.573602 0.823122
vn -0.7692329 0.292124 0.5682819
v -0.134294 0.420049 0.263252
vt 0.557939 0.802719
vn -0.5470762 -0.8231833 0.1519111
v -0.130026 0.520215 0.26468
vt 0.554099 0.840305
vn -0.6481543 0.2996412 0.7000794
v -0.0519819 0.383939 0.319299
vt 0.539945 0.787858
vn -0.5414211 -0.6731001 0.5037851
v -0.0727598 0.497732 0.299119
vt 0.537204 0.834413
vn -0.2805669 0.204278 0.9378448
v -0.0565528 0.406015 0.313302
vt 0.538614 0.796099
vn -0.177822 0.163902 0.9703172
v -0.226038 0.474448 0.174775
vt 0.58756 0.823913
vn -0.5282248 -0.7968027 -0.2934009
v -0.170055 0.475089 0.200145
vt 0.581459 0.824942
vn -0.137645 0.9306451 -0.339048
v -0.164174 0.451762 0.174255
vt 0.603751 0.816628
vn -0.3078918 -0.8766866 -0.3696258
v -0.0544444 0.464088 0.304545
vt 0.532045 0.816844
vn -0.0178572 0.14972 0.9885672
vt 0.609585 0.829152
v 0 0.327931 0.269448
vt 0.0152335 0.445982
vn 0 -0.9948531 0.101328
v 0 0.329842 0.0852434
vt 0.0152334 0.00329769
vn 0 -0.9939634 -0.109712
v 0.102062 0.348458 0.136622
vt 0.516108 0.131925
vn 0.4140928 -0.9063627 -0.08386787
v -0.102062 0.348458 0.136622
vn -0.4140932 -0.9063625 -0.08386786
v 0.0691035 0.348845 0.288785
vt 0.411877 0.50497
vn 0.474796 -0.829183 0.294999
v -0.0691035 0.348845 0.288785
vn -0.4747968 -0.8291826 0.2949989
v 0 0.364682 0.414705
vt 0.0152335 0.794407
vn 0 -0.5935201 0.8048192
v 0.126723 0.456212 0.29157
vn 0.5835202 0.005597142 0.8120793
v 0.134294 0.420049 0.263252
vn 0.547077 -0.8231829 0.15191
v 0.185709 0.469727 0.21507
vn 0.7692325 0.2921242 0.5682824
v 0.0519819 0.383939 0.319299
vn 0.5414214 -0.6731005 0.5037844
v 0.130026 0.520215 0.26468
vn 0.6481539 0.299641 0.7000799
v 0.0565528 0.406015 0.313302
vn 0.177822 0.163902 0.9703172
v 0.0727598 0.497732 0.299119
vn 0.280567 0.204277 0.9378449
v 0.226038 0.474448 0.174775
vn 0.5282249 -0.7968029 -0.2934
v 0.164174 0.451762 0.174255
vn 0.3078918 -0.8766866 -0.3696258
v 0.170055 0.475089 0.200145
vn 0.137645 0.9306451 -0.339048
v 0.0544444 0.464088 0.304545
vn 0.0178572 0.14972 0.9885672
v 0.185286 0.177881 0.143951
vt 0.516838 0.522121
vn -0.9910284 -0.133404 -0.008128833
v 0.188114 0.177446 0.202352
vt 0.478235 0.530121
vn 0.4886671 0.03370221 0.8718192
v 0.17145 0.455938 0.183104
vt 0.491251 0.694184
vn 0.5690999 0.08072928 0.8182958
v 0.204833 0.190446 0.146385
vt 0.516838 0.53088
vn 0.9982899 0.0403881 0.0422628
v 0.17145 0.455938 0.119368
vt 0.534239 0.694184
vn 0.5474599 0.113518 -0.8290967
v 0.186683 0.201359 0.0904188
vt 0.55544 0.530121
vn 0.6066429 0.07796769 -0.7911418
v 0.186305 0.456827 0.151236
vt 0.512745 0.694784
vn 0.996633 0.0809974 0.0127305
v -0.182515 0.177715 0.143951
vn -0.9771737 0.2093619 0.03604479
v -0.186728 0.177363 0.202352
vn -0.372744 0.5112811 -0.7743731
v -0.17145 0.455938 0.183104
vn -0.9660422 0.03139291 -0.2564701
v -0.204833 0.190446 0.146385
vn 0.9812529 0.184525 0.05561799
v -0.17145 0.455938 0.119368
vn -0.9663668 0.019765 0.256407
v -0.185298 0.201276 0.0904188
vn -0.303872 0.398015 0.8655899
v -0.186305 0.456827 0.151236
vn 0.9962163 -0.08686852 -0.002637661
vt 0.296636 0.6657
vn -0.5832028 0.1645269 0.7954907
v 0 0.54646 0.298592
vt 0.304167 0.724805
vn 0 0.2105301 0.9775874
v -0.106469 0.50484 0.278538
vt 0.31146 0.709668
vn -0.4971401 0.168892 0.8510742
v 0 0.414367 0.327787
vt 0.293549 0.676766
vn 0 0.476104 0.879389
v -0.133705 0.428158 0.258892
vt 0.318604 0.681781
vn -0.8014916 -0.08434636 0.5920277
vt 0.261939 0.658696
vt 0.307733 0.652937
vn 0.5832028 0.1645269 0.7954907
v 0.106469 0.50484 0.278538
vn 0.4971389 0.168892 0.8510749
v -0.177814 0.473433 0.156799
vt 0.355733 0.698247
vn -0.9805357 -0.162899 0.109607
v -0.156194 0.392059 0.191982
vt 0.342938 0.668653
vn -0.824029 -0.554803 0.11476
vt 0.363071 0.652796
v 0.133705 0.428158 0.258892
vn 0.8014916 -0.08434636 0.5920277
v 0.177814 0.473433 0.156799
vn 0.9805357 -0.162899 0.109607
v -0.16514 0.46796 0.050221
vt 0.394493 0.696256
vn -0.8631641 -0.465784 -0.194918
v -0.111898 0.385587 0.0408348
vt 0.397906 0.666299
vn -0.6809551 -0.6856471 -0.257271
vt 0.381756 0.646026
v 0.156194 0.392059 0.191982
vn 0.8240291 -0.5548031 0.114759
v 0.16514 0.46796 0.050221
vn 0.8631641 -0.465784 -0.194918
v 0.111898 0.385587 0.0408349
vn 0.6809549 -0.6856469 -0.257272
v 0.0861098 0.436967 -0.248594
vt 0.715108 0.934927
vn 1 0 0
v 0 0.425352 -0.30685
vt 0.687278 0.934927
vn 0 -0.1955309 -0.9806975
v 0 0.561292 -0.273382
vt 0.687278 0.9759
vn 0 0.9806973 -0.1955321
v 0 0.312641 -0.223806
vt 0.687278 0.893955
vn 0 -0.9806973 0.1955321
v 0 0.448582 -0.190338
vn 0 0.1899519 0.9817934
v -0.0861098 0.436967 -0.248594
vt 0.659447 0.934927
vn -1 0 0
v 0.0236033 0.372461 0.414505
vt 0.563463 0.93517
v 0 0.364947 0.366618
vt 0.603299 0.92892
vn 0 -0.155003 -0.987914
v 0 0.395779 0.410847
vt 0.566507 0.954568
v 0 0.349143 0.418164
vt 0.56042 0.915773
vn 0 -0.987914 0.155003
v 0 0.379974 0.462393
vt 0.523628 0.94142
vn 0 0.155002 0.9879141
v -0.0236033 0.372461 0.414505
v 0.0793047 0.51012 0.294456
vn 0.9995755 -0.005534143 -0.02860451
v 0 0.504313 0.264439
vn 0 -0.1819741 -0.9833033
v 0 0.618397 0.289955
v 0 0.407978 0.330666
vn 0 -0.9191644 0.3938742
v 0 0.522063 0.356182
v -0.0793047 0.51012 0.294456
vn -0.9995755 -0.005534173 -0.02860451
v 0 0.30617 -0.222321
vt 0.716435 0.60511
vn 0 0.7480736 -0.6636157
v -0.0265296 0.242945 -0.145759
vt 0.648874 0.549318
vn -0.8266609 0.5396999 0.159235
v 0.0265296 0.242945 -0.145759
vn 0.8266609 0.5396999 0.159235
v 0 0.212451 -0.180134
vt 0.679207 0.522409
vn 0 -0.4104798 -0.9118697
o merged_0_0_node
g polygon_0
usemtl mat_body_mat_id
f 1/1/1 2/2/2 3/3/3
f 1/1/1 4/4/4 2/2/2
f 1/1/1 3/3/3 5/5/5
f 1/1/1 6/6/6 4/4/4
f 1/1/1 5/5/5 7/7/7
f 1/1/1 8/4/8 6/6/6
f 1/1/1 7/7/7 9/8/9
f 1/1/1 10/2/10 8/4/8
f 1/1/1 9/8/9 11/7/11
f 1/1/1 12/3/12 10/2/10
f 1/1/1 11/7/11 13/5/13
f 1/1/1 13/5/13 12/3/12
f 2/2/2 14/9/14 3/3/3
f 2/2/2 4/4/4 15/10/15
f 2/2/2 15/10/15 14/9/14
f 5/5/5 16/11/16 7/7/7
f 5/5/5 3/3/3 17/12/17
f 5/5/5 17/12/17 16/11/16
f 6/6/6 8/4/8 18/13/18
f 6/6/6 19/13/19 4/4/4
f 6/6/6 18/13/18 20/14/20
f 6/6/6 20/14/20 19/13/19
f 19/13/19 15/10/15 4/4/4
f 19/13/19 20/14/20 15/10/15
f 9/8/9 21/15/21 11/7/11
f 9/8/9 7/7/7 21/15/21
f 7/7/7 16/11/16 21/15/21
f 10/2/10 12/3/12 22/16/22
f 10/2/10 23/10/23 8/4/8
f 10/2/10 22/16/22 23/10/23
f 18/13/18 23/10/23 20/14/20
f 18/13/18 8/4/8 23/10/23
f 13/5/13 11/7/11 24/11/24
f 13/5/13 25/12/25 12/3/12
f 13/5/13 24/11/24 25/12/25
f 11/7/11 21/15/21 24/11/24
f 14/9/14 26/17/26 3/3/3
f 14/9/14 15/10/15 26/17/26
f 3/3/3 26/17/26 17/12/17
f 16/11/16 27/18/27 21/15/21
f 16/11/16 28/19/28 27/18/27
f 21/15/21 27/18/27 24/11/24
f 22/16/22 29/17/29 23/10/23
f 22/16/22 12/3/12 29/17/29
f 12/3/12 25/12/25 29/17/29
f 20/14/20 30/20/30 15/10/15
f 20/14/20 23/10/23 31/20/31
f 20/14/20 31/20/31 30/20/30
f 26/17/26 15/10/15 32/21/32
f 26/17/26 32/21/32 33/22/33
f 26/17/26 33/22/33 34/23/34
f 26/17/26 34/23/34 17/12/35
f 28/19/28 35/24/36 27/18/27
f 28/19/28 36/25/37 35/24/36
f 28/19/28 37/26/38 36/25/37
f 24/11/24 27/18/27 38/19/39
f 35/24/36 36/25/37 38/19/39
f 35/24/36 38/19/39 27/18/27
f 29/17/29 39/21/40 23/10/23
f 29/17/29 40/22/41 39/21/40
f 29/17/29 41/23/42 40/22/41
f 29/17/29 25/12/43 41/23/42
f 31/20/31 42/27/44 30/20/30
f 31/20/31 23/10/23 43/26/45
f 31/20/31 43/26/45 42/27/44
f 42/27/44 36/25/37 37/26/38
f 42/27/44 37/26/38 30/20/30
f 42/27/44 43/26/45 36/25/37
f 36/25/37 43/26/45 38/19/39
f 30/20/30 37/26/38 15/10/15
f 32/21/32 37/26/46 33/22/33
f 32/21/32 15/10/15 37/26/46
f 34/23/34 16/11/47 17/12/35
f 34/23/34 33/22/33 16/11/47
f 39/21/40 40/22/41 43/26/48
f 39/21/40 43/26/48 23/10/23
f 25/12/43 24/11/49 41/23/42
f 41/23/42 24/11/49 40/22/41
f 37/26/46 28/19/50 33/22/33
f 33/22/33 28/19/50 16/11/47
f 43/26/48 40/22/41 38/19/51
f 38/19/51 40/22/41 24/11/49
f 44/28/52 45/29/53 46/30/54
f 44/28/52 47/31/55 45/29/53
f 44/28/52 46/30/54 48/32/56
f 44/28/52 49/33/57 47/31/55
f 44/28/52 48/32/56 50/34/58
f 44/28/52 51/35/59 49/33/57
f 44/28/52 50/34/58 52/36/60
f 44/28/52 52/36/60 51/35/59
f 45/29/53 53/37/61 46/30/54
f 45/29/53 47/31/55 54/28/62
f 45/29/53 55/30/63 53/37/61
f 45/29/53 54/28/62 55/30/63
f 47/31/55 49/33/57 54/28/62
f 46/30/54 53/37/61 48/32/56
f 50/34/58 56/38/64 52/36/60
f 50/34/58 48/32/56 56/38/64
f 48/32/56 53/37/61 56/38/64
f 51/35/59 57/39/65 49/33/57
f 51/35/59 52/36/60 57/39/65
f 55/30/63 54/28/62 58/32/66
f 55/30/63 58/32/66 53/37/61
f 53/37/61 58/32/66 56/38/64
f 49/33/57 57/39/65 59/35/67
f 49/33/57 59/35/67 54/28/62
f 52/36/60 56/38/64 60/36/68
f 52/36/60 60/36/68 57/39/65
f 59/35/67 60/36/68 54/28/62
f 59/35/67 57/39/65 60/36/68
f 58/32/66 61/34/69 56/38/64
f 58/32/66 54/28/62 61/34/69
f 61/34/69 54/28/62 60/36/68
f 61/34/69 60/36/68 56/38/64
f 62/40/70 63/41/71 64/42/72
f 62/40/70 65/42/55 63/41/71
f 62/40/70 64/42/72 66/43/73
f 62/40/70 67/43/74 65/42/55
f 62/40/70 66/43/73 68/44/75
f 62/40/70 69/44/76 67/43/74
f 62/40/70 68/44/75 70/45/77
f 62/40/70 70/45/77 69/44/76
f 63/41/71 71/46/78 64/42/72
f 63/41/71 65/42/55 72/46/79
f 63/41/71 73/47/80 71/46/78
f 63/41/71 72/46/79 73/47/80
f 65/42/55 67/43/74 72/46/79
f 64/42/72 71/46/78 66/43/73
f 68/44/75 74/48/81 70/45/77
f 68/44/75 66/43/73 75/49/82
f 68/44/75 75/49/82 74/48/81
f 70/45/77 74/48/81 69/44/76
f 73/47/80 72/46/79 76/50/83
f 73/47/80 77/50/84 71/46/78
f 73/47/80 76/50/83 78/51/85
f 73/47/80 78/51/85 77/50/84
f 77/50/84 66/43/73 71/46/78
f 77/50/84 75/49/82 66/43/73
f 77/50/84 78/51/85 75/49/82
f 75/49/82 78/51/85 74/48/81
f 72/46/79 67/43/74 76/50/83
f 69/44/76 74/48/81 79/49/86
f 69/44/76 79/49/86 67/43/74
f 79/49/86 74/48/81 78/51/85
f 79/49/86 78/51/85 76/50/83
f 79/49/86 76/50/83 67/43/74
f 80/52/87 81/53/88 82/54/89
f 80/52/87 83/55/90 81/53/88
f 80/52/87 82/54/89 84/56/91
f 80/52/87 85/57/92 83/55/90
f 80/52/87 84/56/91 86/58/93
f 80/52/87 87/59/94 85/57/92
f 80/52/87 86/58/93 87/59/94
f 81/53/88 88/60/95 82/54/89
f 81/53/88 83/55/90 88/60/95
f 84/56/91 89/52/96 86/58/93
f 84/56/91 82/54/89 89/52/96
f 85/57/92 87/59/94 90/61/97
f 85/57/92 91/62/98 83/55/90
f 88/60/95 92/53/99 82/54/89
f 88/60/95 83/55/90 93/63/100
f 88/60/95 94/55/101 92/53/99
f 88/60/95 93/63/100 94/55/101
f 92/53/99 89/52/96 82/54/89
f 92/53/99 94/55/101 89/52/96
f 83/55/90 91/62/98 93/63/100
f 86/58/93 95/64/102 87/59/94
f 86/58/93 89/52/96 96/59/103
f 86/58/93 96/59/103 95/64/102
f 90/61/97 87/59/94 97/65/37
f 90/61/97 97/65/37 96/59/103
f 90/61/97 96/59/103 98/57/104
f 96/59/103 89/52/96 98/57/104
f 96/59/103 97/65/37 95/64/102
f 95/64/102 97/65/37 87/59/94
f 89/52/96 94/55/101 98/57/104
f 93/63/100 99/62/105 94/55/101
f 94/55/101 99/62/105 98/57/104
f 100/66/106 101/67/107 102/68/108
f 100/66/106 103/69/109 101/67/107
f 100/66/106 102/68/108 104/70/110
f 100/66/106 105/71/111 103/69/109
f 100/66/106 104/70/110 106/72/112
f 100/66/106 106/72/112 105/71/111
f 101/67/107 107/73/113 102/68/108
f 101/67/107 103/69/109 108/74/114
f 101/67/107 108/74/114 107/73/113
f 104/70/110 102/68/108 109/75/115
f 102/68/108 107/73/113 109/75/115
f 106/72/112 110/76/116 105/71/111
f 107/73/113 108/77/114 109/75/115
f 111/78/117 112/79/118 113/80/119
f 111/78/117 114/80/120 112/79/118
f 111/78/117 113/80/119 115/81/121
f 111/78/117 116/81/122 114/80/120
f 111/78/117 115/81/121 117/82/123
f 111/78/117 117/82/123 116/81/122
f 118/66/124 119/68/125 120/67/126
f 118/66/124 121/70/127 119/68/125
f 118/66/124 120/67/126 122/69/128
f 118/66/124 123/72/129 121/70/127
f 118/66/124 122/69/128 124/71/130
f 118/66/124 124/71/130 123/72/129
f 119/68/125 125/73/131 120/67/126
f 119/68/125 121/70/127 126/75/132
f 119/68/125 126/75/132 125/73/131
f 122/69/128 120/67/126 127/74/133
f 127/74/133 120/67/126 125/73/131
f 124/71/130 128/76/134 123/72/129
f 126/75/132 127/77/133 125/73/131
f 129/83/135 130/84/136 131/85/137
f 129/83/135 132/86/138 130/84/136
f 129/83/135 131/85/137 133/87/139
f 129/83/135 134/88/140 132/86/138
f 129/83/135 133/87/139 134/88/140
f 130/84/136 132/86/138 131/85/137
f 133/87/139 135/89/141 134/88/140
f 135/89/141 131/85/137 132/86/138
f 135/89/141 132/86/138 134/88/140
f 136/83/142 137/84/143 138/85/144
f 136/83/142 139/86/145 137/84/143
f 136/83/142 138/85/144 140/87/146
f 136/83/142 141/88/147 139/86/145
f 136/83/142 140/87/146 141/88/147
f 137/84/143 139/86/145 138/85/144
f 140/87/146 142/89/148 141/88/147
f 142/89/148 138/85/144 139/86/145
f 142/89/148 139/86/145 141/88/147
f 104/90/149 143/91/150 144/92/151
f 104/90/149 145/93/152 143/91/150
f 104/90/149 144/92/151 146/94/153
f 104/90/149 117/95/123 145/93/152
f 104/90/149 116/96/122 117/95/123
f 143/91/150 145/93/152 121/90/154
f 143/91/150 121/90/154 147/92/155
f 145/93/152 117/95/123 121/90/154
f 144/92/151 148/97/156 146/94/153
f 116/96/122 149/98/157 114/99/120
f 147/92/155 121/90/154 150/94/158
f 147/92/155 150/94/158 151/97/159
f 117/95/123 115/96/121 121/90/154
f 148/97/156 152/100/160 149/98/157
f 114/99/120 149/98/157 153/101/161
f 114/99/120 153/101/161 112/102/118
f 153/101/161 149/98/157 152/100/160
f 151/97/159 154/98/162 155/100/163
f 115/96/121 113/99/119 154/98/162
f 112/102/118 156/101/164 113/99/119
f 156/101/164 155/100/163 154/98/162
f 156/101/164 154/98/162 113/99/119
f 157/103/165 158/104/166 159/105/167
f 157/103/165 160/106/168 158/104/166
f 157/103/165 159/105/167 161/104/169
f 157/103/165 161/104/169 160/106/168
f 158/104/166 162/107/170 159/105/167
f 158/104/166 160/106/168 162/107/170
f 162/107/170 161/104/169 159/105/167
f 162/107/170 160/106/168 161/104/169
f 163/108/165 164/109/171 165/110/97
f 163/108/165 166/111/172 164/109/171
f 163/108/165 165/110/97 167/112/173
f 163/108/165 167/112/173 166/111/172
f 164/109/171 168/108/170 165/110/97
f 164/109/171 166/111/172 168/108/170
f 168/108/170 167/112/173 165/110/97
f 168/108/170 166/111/172 167/112/173
f 169/103/174 170/104/175 171/105/102
f 169/103/174 172/106/176 170/104/175
f 169/103/174 171/105/102 173/104/169
f 169/103/174 173/104/169 172/106/176
f 170/104/175 174/107/177 171/105/102
f 170/104/175 172/106/176 174/107/177
f 174/107/177 173/104/169 171/105/102
f 174/107/177 172/106/176 173/104/169
f 175/113/178 176/114/179 177/114/180
f 175/113/178 178/115/181 176/114/179
f 175/113/178 177/114/180 178/115/181
vt 0.766491 0.817578
vt 0.485387 0.939303
vt 0.126269 0.767915
vt 0 0.86137
vt 1.03344 0.982085
o merged_1_0_node
g polygon_0
usemtl TEX_ANIM_EYE_mat_id
f 154/116/162 150/117/158 115/118/121
f 150/117/158 121/119/154 115/118/121
f 151/120/159 150/117/158 154/116/162
f 149/116/157 116/118/122 146/117/153
f 146/117/153 116/118/122 104/119/149
f 149/116/157 146/117/153 148/120/156
