ply
format ascii 1.0
element vertex 455
property float x
property float y
property float z
property uchar red
property uchar green
property uchar blue
element face 564
property list uchar int vertex_index
end_header
0.6881 -0.07713 1.5289 101 148 210
0.68638 -0.30572 1.89133 101 148 210
1.34799 -0.30544 1.8915 101 148 210
1.3497 -0.07685 1.52908 101 148 210
0.68638 -0.30572 1.89133 106 155 220
0.68626 0.07295 2.1302 106 155 220
1.69069 0.07313 2.13031 106 155 220
1.34799 -0.30544 1.8915 106 155 220
1.77781 -0.0063 2.08021 106 155 220
1.34821 -0.49544 1.77164 106 155 220
1.77786 -0.49534 1.77171 106 155 220
0.68626 0.07295 2.1302 101 148 210
0.68798 0.30154 1.76778 101 148 210
1.6924 0.30172 1.76789 101 148 210
1.69069 0.07313 2.13031 101 148 210
1.77781 -0.0063 2.08021 101 148 210
1.77952 0.22229 1.71778 101 148 210
1.77919 -0.26764 1.40872 101 148 210
1.34953 -0.26774 1.40866 101 148 210
1.34821 -0.49544 1.77164 101 148 210
1.77786 -0.49534 1.77171 101 148 210
1.31122 -0.22448 1.39053 221 225 239
1.30937 -0.49265 1.81849 221 225 239
1.30941 -0.57775 1.76516 221 225 239
1.31125 -0.30958 1.33721 221 225 239
1.81625 -0.22533 1.39218 221 225 239
1.81628 -0.31042 1.33885 221 225 239
1.81441 -0.49349 1.82013 221 225 239
1.21181 -0.4435 1.55086 221 225 239
1.21083 -0.58608 1.77841 221 225 239
1.28805 -0.63003 1.84858 221 225 239
1.81444 -0.57859 1.76681 221 225 239
1.9129 -0.58726 1.7807 221 225 239
1.91486 -0.30209 1.32561 221 225 239
1.83645 -0.25814 1.25543 221 225 239
1.83663 -0.69317 0.98297 221 225 239
1.91504 -0.76826 1.0335 221 225 239
1.50345 -0.25769 1.25454 221 225 239
1.83389 -0.63094 1.85036 221 225 239
1.85734 -0.82836 0.99615 221 225 239
1.80448 -0.72959 0.9594 221 225 239
1.29079 -0.69226 0.98119 221 225 239
1.32489 -0.72914 0.95851 221 225 239
1.50354 -0.4752 1.11831 221 225 239
1.2907 -0.47475 1.11742 221 225 239
1.21288 -0.51874 1.18689 221 225 239
1.21296 -0.76709 1.0312 221 225 239
1.211 -1.05225 1.48629 221 225 239
1.2119 -0.66132 1.41444 221 225 239
1.11125 -0.4433 1.55048 221 225 239
1.11154 -0.24148 1.22879 221 225 239
1.11133 -0.66112 1.41405 221 225 239
1.11163 -0.4593 1.09236 221 225 239
1.18144 -0.42051 1.03081 221 225 239
1.18135 -0.20299 1.16704 221 225 239
1.50409 -0.42026 1.0305 221 225 239
1.50401 -0.20275 1.16674 221 225 239
1.21279 -0.30092 1.32332 221 225 239
1.29062 -0.25723 1.25365 221 225 239
1.30937 -0.49265 1.81849 226 230 245
1.81441 -0.49349 1.82013 226 230 245
1.81444 -0.57859 1.76681 226 230 245
1.30941 -0.57775 1.76516 226 230 245
1.27091 -0.82747 0.99439 221 225 239
1.26877 -1.11202 1.44877 221 225 239
1.8552 -1.11291 1.45053 221 225 239
1.91308 -1.05343 1.48858 221 225 239
1.28823 -1.06506 1.57611 221 225 239
1.32038 -1.10193 1.55344 221 225 239
1.83406 -1.06597 1.57789 221 225 239
1.79997 -1.10239 1.55433 221 225 239
1.83406 -1.06597 1.57789 226 230 245
1.79997 -1.10239 1.55433 226 230 245
1.32038 -1.10193 1.55344 226 230 245
1.28823 -1.06506 1.57611 226 230 245
1.28805 -0.63003 1.84858 226 230 245
1.83389 -0.63094 1.85036 226 230 245
1.2119 -0.66132 1.41444 226 230 245
1.11133 -0.66112 1.41405 226 230 245
1.11125 -0.4433 1.55048 226 230 245
1.21181 -0.4435 1.55086 226 230 245
0.95304 -0.64696 2.28784 101 148 210
0.95304 -0.64696 0.64145 101 148 210
0.82256 -0.64696 0.96462 101 148 210
0.82256 -0.64696 1.91885 101 148 210
0.73245 -0.64696 0.88887 101 148 210
0.73245 -0.64696 1.9946 101 148 210
-0.95304 -0.64696 0.64145 101 148 210
-0.95304 -0.54068 0.56813 101 148 210
0.95304 -0.54068 0.56813 101 148 210
-0.95304 0.52208 0.56813 101 148 210
0.95304 0.52208 0.56813 101 148 210
-0.95304 0.62326 0.64145 101 148 210
0.95304 0.62326 0.64145 101 148 210
1.0351 0.4726 0.66065 101 148 210
1.0351 -0.47222 0.66065 101 148 210
1.0351 -0.47222 2.28752 101 148 210
1.0351 0.4726 2.28742 101 148 210
0.95304 -0.43241 2.37328 101 148 210
0.95304 0.43294 2.3727 101 148 210
-0.95304 0.62326 2.28717 101 148 210
0.95304 0.62326 2.28717 101 148 210
-1.0351 0.4726 0.66065 101 148 210
0.8888 0.54967 2.3727 101 148 210
-0.88163 0.54967 2.3727 101 148 210
-0.95304 0.43294 2.3727 101 148 210
-1.0351 0.4726 2.28742 101 148 210
-0.95304 -0.43216 2.37324 101 148 210
-1.0351 -0.47222 2.28752 101 148 210
0.82256 -0.64696 1.91885 221 225 239
0.82256 -0.64696 0.96462 221 225 239
0.73245 -0.64696 0.88887 221 225 239
0.73245 -0.64696 1.9946 221 225 239
0 -0.64696 1.9946 221 225 239
-0.73245 -0.64696 0.88887 221 225 239
-0.73245 -0.64696 1.9946 221 225 239
-0.82256 -0.64696 1.91885 221 225 239
-0.82256 -0.64696 0.96462 221 225 239
-0.95304 -0.64696 2.28784 101 148 210
-1.0351 -0.47222 0.66065 101 148 210
-0.82256 -0.64696 0.96462 101 148 210
-0.82256 -0.64696 1.91885 101 148 210
-0.88676 -0.58338 2.37338 101 148 210
0 -0.64696 2.28784 101 148 210
-0.73245 -0.64696 0.88887 101 148 210
-0.73245 -0.64696 1.9946 101 148 210
-0.11807 -0.64696 2.19028 101 148 210
-0.11807 -0.64696 2.09025 101 148 210
0 -0.64696 1.9946 101 148 210
0.88681 -0.58338 2.37338 101 148 210
0.11807 -0.64696 2.19028 101 148 210
0.11807 -0.64696 2.09025 101 148 210
0.07478 -0.64696 2.09025 101 148 210
-0.07478 -0.64696 2.09025 101 148 210
-0.07478 -0.64696 2.19028 101 148 210
0.07478 -0.64696 2.19028 101 148 210
-0.88676 -0.58338 2.37338 106 155 220
-0.95304 -0.43216 2.37324 106 155 220
-0.95304 0.43294 2.3727 106 155 220
-0.88163 0.54967 2.3727 106 155 220
0.88681 -0.58338 2.37338 106 155 220
0.8888 0.54967 2.3727 106 155 220
0.95304 0.43294 2.3727 106 155 220
0.95304 -0.43241 2.37328 106 155 220
0.21657 -0.60027 2.26367 101 148 210
0.21657 -0.59995 2.56308 101 148 210
0.27127 -0.64073 2.56309 101 148 210
0.27127 -0.64105 2.26367 101 148 210
0.21657 -0.16194 2.20936 101 148 210
0.21657 -0.19009 2.56251 101 148 210
0.31878 -0.58936 2.62225 101 148 210
0.26609 -0.54858 2.62224 101 148 210
0.68576 -0.64105 2.26367 101 148 210
0.68576 -0.64073 2.56309 101 148 210
0.63826 -0.58936 2.62225 101 148 210
0.73809 -0.60027 2.26367 101 148 210
0.73809 -0.59995 2.56308 101 148 210
0.68857 -0.54858 2.62224 101 148 210
0.26609 -0.54858 2.62224 106 155 220
0.26609 -0.22899 2.62223 106 155 220
0.31878 -0.18821 2.62167 106 155 220
0.31878 -0.58936 2.62225 106 155 220
0.63826 -0.58936 2.62225 106 155 220
0.63826 -0.18821 2.62167 106 155 220
0.68857 -0.54858 2.62224 106 155 220
0.68857 -0.22899 2.62223 106 155 220
0.2837 -0.11015 2.20113 101 148 210
0.2837 -0.13767 2.5618 101 148 210
0.67334 -0.13767 2.5618 101 148 210
0.67334 -0.11015 2.20113 101 148 210
0.31878 -0.18821 2.62167 101 148 210
0.26609 -0.22899 2.62223 101 148 210
0.63826 -0.18821 2.62167 101 148 210
0.73809 -0.19009 2.56251 101 148 210
0.68857 -0.22899 2.62223 101 148 210
0.73809 -0.16194 2.20936 101 148 210
-0.21702 -0.60027 2.26367 101 148 210
-0.27173 -0.64105 2.26367 101 148 210
-0.27173 -0.64073 2.56309 101 148 210
-0.21702 -0.59995 2.56308 101 148 210
-0.21702 -0.16194 2.20936 101 148 210
-0.21702 -0.19009 2.56251 101 148 210
-0.31923 -0.58936 2.62225 101 148 210
-0.26654 -0.54858 2.62224 101 148 210
-0.68621 -0.64105 2.26367 101 148 210
-0.68621 -0.64073 2.56309 101 148 210
-0.63871 -0.58936 2.62225 101 148 210
-0.73855 -0.60027 2.26367 101 148 210
-0.73855 -0.59995 2.56308 101 148 210
-0.68903 -0.54858 2.62224 101 148 210
-0.26654 -0.54858 2.62224 106 155 220
-0.31923 -0.58936 2.62225 106 155 220
-0.31923 -0.18821 2.62167 106 155 220
-0.26654 -0.22899 2.62223 106 155 220
-0.63871 -0.58936 2.62225 106 155 220
-0.63871 -0.18821 2.62167 106 155 220
-0.68903 -0.54858 2.62224 106 155 220
-0.68903 -0.22899 2.62223 106 155 220
-0.28415 -0.13767 2.5618 101 148 210
-0.28415 -0.11015 2.20113 101 148 210
-0.67379 -0.13767 2.5618 101 148 210
-0.67379 -0.11015 2.20113 101 148 210
-0.31923 -0.18821 2.62167 101 148 210
-0.26654 -0.22899 2.62223 101 148 210
-0.63871 -0.18821 2.62167 101 148 210
-0.73855 -0.19009 2.56251 101 148 210
-0.68903 -0.22899 2.62223 101 148 210
-0.73855 -0.16194 2.20936 101 148 210
0.49226 -0.67258 2.38825 255 255 255
0.65177 -0.67258 2.43257 255 255 255
0.65177 -0.67258 2.14334 255 255 255
0.49226 -0.67258 2.22724 255 255 255
0.65177 -0.63115 2.43257 255 255 255
0.65177 -0.63115 2.14334 255 255 255
0.29812 -0.63115 2.14334 255 255 255
0.29812 -0.67258 2.14334 255 255 255
0.29812 -0.67258 2.33844 255 255 255
0.29812 -0.63115 2.33844 255 255 255
0.38532 -0.67258 2.36151 255 255 255
0.38532 -0.67258 2.22724 255 255 255
0.29812 -0.67258 2.497 93 136 193
0.29812 -0.63115 2.497 93 136 193
0.65177 -0.63115 2.497 93 136 193
0.65177 -0.67258 2.497 93 136 193
0.65177 -0.67258 2.43257 93 136 193
0.49226 -0.67258 2.38825 93 136 193
0.38532 -0.67258 2.36151 93 136 193
0.29812 -0.67258 2.33844 93 136 193
0.65177 -0.63115 2.43257 93 136 193
0.29812 -0.63115 2.33844 93 136 193
0.38532 -0.67258 2.36151 25 15 16
0.49226 -0.67258 2.38825 25 15 16
0.49226 -0.67258 2.22724 25 15 16
0.38532 -0.67258 2.22724 25 15 16
-0.49271 -0.67258 2.38825 255 255 255
-0.49271 -0.67258 2.22724 255 255 255
-0.65223 -0.67258 2.14334 255 255 255
-0.65223 -0.67258 2.43257 255 255 255
-0.65223 -0.63115 2.43257 255 255 255
-0.65223 -0.63115 2.14334 255 255 255
-0.29857 -0.63115 2.14334 255 255 255
-0.29857 -0.67258 2.14334 255 255 255
-0.29857 -0.67258 2.33844 255 255 255
-0.29857 -0.63115 2.33844 255 255 255
-0.38577 -0.67258 2.36151 255 255 255
-0.38577 -0.67258 2.22724 255 255 255
-0.29857 -0.67258 2.497 93 136 193
-0.65223 -0.67258 2.497 93 136 193
-0.65223 -0.63115 2.497 93 136 193
-0.29857 -0.63115 2.497 93 136 193
-0.29857 -0.67258 2.33844 93 136 193
-0.38577 -0.67258 2.36151 93 136 193
-0.49271 -0.67258 2.38825 93 136 193
-0.65223 -0.67258 2.43257 93 136 193
-0.65223 -0.63115 2.43257 93 136 193
-0.29857 -0.63115 2.33844 93 136 193
-0.38577 -0.67258 2.36151 25 15 16
-0.38577 -0.67258 2.22724 25 15 16
-0.49271 -0.67258 2.22724 25 15 16
-0.49271 -0.67258 2.38825 25 15 16
-0.42293 -0.65402 1.13843 53 39 40
-0.57023 -0.65402 0.99917 53 39 40
-0.57023 -0.65402 1.89627 53 39 40
-0.42293 -0.65402 1.75674 53 39 40
0.17357 -0.65402 1.13843 53 39 40
0.32177 -0.65402 0.99917 53 39 40
0.17357 -0.65402 1.50367 53 39 40
0.32177 -0.65402 1.65222 53 39 40
-0.16856 -0.65402 1.50367 53 39 40
-0.31295 -0.65402 1.65222 53 39 40
-0.16856 -0.65402 1.39232 53 39 40
-0.31295 -0.65402 1.24796 53 39 40
0.0675 -0.65402 1.39232 53 39 40
0.0675 -0.65402 1.24796 53 39 40
0.57824 -0.65402 1.89627 53 39 40
0.4323 -0.65402 1.75674 53 39 40
0.57824 -0.65402 0.99917 53 39 40
0.4323 -0.65402 0.99917 53 39 40
0.11807 -0.62368 2.09025 93 136 193
0.07478 -0.62368 2.09025 93 136 193
0.07478 -0.62368 2.19028 93 136 193
0.11807 -0.62368 2.19028 93 136 193
0.11807 -0.64696 2.09025 93 136 193
0.11807 -0.64696 2.19028 93 136 193
0.07478 -0.64696 2.19028 93 136 193
0.07478 -0.64696 2.09025 93 136 193
-0.07478 -0.62368 2.19028 93 136 193
-0.07478 -0.62368 2.09025 93 136 193
-0.11807 -0.62368 2.09025 93 136 193
-0.11807 -0.62368 2.19028 93 136 193
-0.07478 -0.64696 2.19028 93 136 193
-0.11807 -0.64696 2.19028 93 136 193
-0.11807 -0.64696 2.09025 93 136 193
-0.07478 -0.64696 2.09025 93 136 193
-0.6881 -0.07713 1.5289 101 148 210
-1.3497 -0.07685 1.52908 101 148 210
-1.34799 -0.30544 1.8915 101 148 210
-0.68638 -0.30572 1.89133 101 148 210
-0.68638 -0.30572 1.89133 106 155 220
-1.34799 -0.30544 1.8915 106 155 220
-1.69069 0.07313 2.13031 106 155 220
-0.68626 0.07295 2.1302 106 155 220
-1.77781 -0.0063 2.08021 106 155 220
-1.34821 -0.49544 1.77164 106 155 220
-1.77786 -0.49534 1.77171 106 155 220
-0.68626 0.07295 2.1302 101 148 210
-1.69069 0.07313 2.13031 101 148 210
-1.6924 0.30172 1.76789 101 148 210
-0.68798 0.30154 1.76778 101 148 210
-1.77781 -0.0063 2.08021 101 148 210
-1.77952 0.22229 1.71778 101 148 210
-1.77919 -0.26764 1.40872 101 148 210
-1.34953 -0.26774 1.40866 101 148 210
-1.34821 -0.49544 1.77164 101 148 210
-1.77786 -0.49534 1.77171 101 148 210
-1.31122 -0.22448 1.39053 221 225 239
-1.31125 -0.30958 1.33721 221 225 239
-1.30941 -0.57775 1.76516 221 225 239
-1.30937 -0.49265 1.81849 221 225 239
-1.81625 -0.22533 1.39218 221 225 239
-1.81628 -0.31042 1.33885 221 225 239
-1.81441 -0.49349 1.82013 221 225 239
-1.21181 -0.4435 1.55086 221 225 239
-1.21083 -0.58608 1.77841 221 225 239
-1.28805 -0.63003 1.84858 221 225 239
-1.81444 -0.57859 1.76681 221 225 239
-1.9129 -0.58726 1.7807 221 225 239
-1.91486 -0.30209 1.32561 221 225 239
-1.83645 -0.25814 1.25543 221 225 239
-1.83663 -0.69317 0.98297 221 225 239
-1.91504 -0.76826 1.0335 221 225 239
-1.50345 -0.25769 1.25454 221 225 239
-1.83389 -0.63094 1.85036 221 225 239
-1.85734 -0.82836 0.99615 221 225 239
-1.80448 -0.72959 0.9594 221 225 239
-1.29079 -0.69226 0.98119 221 225 239
-1.32489 -0.72914 0.95851 221 225 239
-1.50354 -0.4752 1.11831 221 225 239
-1.2907 -0.47475 1.11742 221 225 239
-1.21288 -0.51874 1.18689 221 225 239
-1.21296 -0.76709 1.0312 221 225 239
-1.211 -1.05225 1.48629 221 225 239
-1.2119 -0.66132 1.41444 221 225 239
-1.21279 -0.30092 1.32332 221 225 239
-1.11154 -0.24148 1.22879 221 225 239
-1.11125 -0.4433 1.55048 221 225 239
-1.11133 -0.66112 1.41405 221 225 239
-1.11163 -0.4593 1.09236 221 225 239
-1.18144 -0.42051 1.03081 221 225 239
-1.18135 -0.20299 1.16704 221 225 239
-1.50409 -0.42026 1.0305 221 225 239
-1.50401 -0.20275 1.16674 221 225 239
-1.29062 -0.25723 1.25365 221 225 239
-1.30937 -0.49265 1.81849 226 230 245
-1.30941 -0.57775 1.76516 226 230 245
-1.81444 -0.57859 1.76681 226 230 245
-1.81441 -0.49349 1.82013 226 230 245
-1.27091 -0.82747 0.99439 221 225 239
-1.8552 -1.11291 1.45053 221 225 239
-1.26877 -1.11202 1.44877 221 225 239
-1.91308 -1.05343 1.48858 221 225 239
-1.28823 -1.06506 1.57611 221 225 239
-1.32038 -1.10193 1.55344 221 225 239
-1.83406 -1.06597 1.57789 221 225 239
-1.79997 -1.10239 1.55433 221 225 239
-1.83406 -1.06597 1.57789 226 230 245
-1.28823 -1.06506 1.57611 226 230 245
-1.32038 -1.10193 1.55344 226 230 245
-1.79997 -1.10239 1.55433 226 230 245
-1.28805 -0.63003 1.84858 226 230 245
-1.83389 -0.63094 1.85036 226 230 245
-1.2119 -0.66132 1.41444 226 230 245
-1.21181 -0.4435 1.55086 226 230 245
-1.11125 -0.4433 1.55048 226 230 245
-1.11133 -0.66112 1.41405 226 230 245
0.33777 -0.12549 0.24305 101 148 210
0.33777 -0.20285 0.36766 101 148 210
0.65528 -0.20285 0.36766 101 148 210
0.65528 -0.12549 0.24305 101 148 210
0.65528 0.11467 0.39483 101 148 210
0.65528 0.19203 0.24305 101 148 210
0.33777 0.19203 0.24305 101 148 210
0.33777 0.11467 0.39483 101 148 210
0.65528 -0.20285 0.46765 101 148 210
0.33777 -0.20285 0.46765 101 148 210
0.65528 -0.12549 0.58694 101 148 210
0.33777 -0.12549 0.58694 101 148 210
0.65528 0.11467 0.44048 101 148 210
0.33777 0.11467 0.44048 101 148 210
0.33777 0.19203 0.58694 101 148 210
0.65528 0.19203 0.58694 101 148 210
0.31024 -0.66676 0 101 148 210
0.31024 -0.66676 0.25984 101 148 210
0.67937 -0.66655 0.25984 101 148 210
0.67937 -0.66655 0 101 148 210
0.72822 -0.5995 0.25984 101 148 210
0.72822 -0.5995 0 101 148 210
0.26131 -0.59976 0 101 148 210
0.26131 -0.59976 0.25984 101 148 210
0.26079 0.20937 0 101 148 210
0.7277 0.20963 0 101 148 210
0.32002 0.27768 0 101 148 210
0.66839 0.27787 0 101 148 210
0.32002 0.27768 0.25984 101 148 210
0.66839 0.27787 0.25984 101 148 210
0.26079 0.20937 0.25984 101 148 210
0.7277 0.20963 0.25984 101 148 210
0.31024 -0.66676 0.25984 106 155 220
0.26131 -0.59976 0.25984 106 155 220
0.72822 -0.5995 0.25984 106 155 220
0.67937 -0.66655 0.25984 106 155 220
0.7277 0.20963 0.25984 106 155 220
0.26079 0.20937 0.25984 106 155 220
0.66839 0.27787 0.25984 106 155 220
0.32002 0.27768 0.25984 106 155 220
-0.33777 -0.12549 0.24305 101 148 210
-0.65528 -0.12549 0.24305 101 148 210
-0.65528 -0.20285 0.36766 101 148 210
-0.33777 -0.20285 0.36766 101 148 210
-0.65528 0.11467 0.39483 101 148 210
-0.65528 0.19203 0.24305 101 148 210
-0.33777 0.19203 0.24305 101 148 210
-0.33777 0.11467 0.39483 101 148 210
-0.65528 -0.20285 0.46765 101 148 210
-0.33777 -0.20285 0.46765 101 148 210
-0.65528 -0.12549 0.58694 101 148 210
-0.33777 -0.12549 0.58694 101 148 210
-0.65528 0.11467 0.44048 101 148 210
-0.33777 0.11467 0.44048 101 148 210
-0.33777 0.19203 0.58694 101 148 210
-0.65528 0.19203 0.58694 101 148 210
-0.31024 -0.66676 0 101 148 210
-0.67937 -0.66655 0 101 148 210
-0.67937 -0.66655 0.25984 101 148 210
-0.31024 -0.66676 0.25984 101 148 210
-0.72822 -0.5995 0.25984 101 148 210
-0.72822 -0.5995 0 101 148 210
-0.26131 -0.59976 0 101 148 210
-0.26131 -0.59976 0.25984 101 148 210
-0.26079 0.20937 0 101 148 210
-0.7277 0.20963 0 101 148 210
-0.32002 0.27768 0 101 148 210
-0.66839 0.27787 0 101 148 210
-0.32002 0.27768 0.25984 101 148 210
-0.66839 0.27787 0.25984 101 148 210
-0.26079 0.20937 0.25984 101 148 210
-0.7277 0.20963 0.25984 101 148 210
-0.31024 -0.66676 0.25984 106 155 220
-0.67937 -0.66655 0.25984 106 155 220
-0.72822 -0.5995 0.25984 106 155 220
-0.26131 -0.59976 0.25984 106 155 220
-0.7277 0.20963 0.25984 106 155 220
-0.26079 0.20937 0.25984 106 155 220
-0.66839 0.27787 0.25984 106 155 220
-0.32002 0.27768 0.25984 106 155 220
3 0 2 1
3 0 3 2
3 4 6 5
3 4 7 6
3 6 7 8
3 8 7 9
3 8 9 10
3 11 13 12
3 11 14 13
3 12 13 3
3 12 3 0
3 13 14 15
3 13 15 16
3 3 13 16
3 3 16 17
3 3 17 18
3 2 3 18
3 2 18 19
3 16 20 17
3 16 15 20
3 21 23 22
3 21 24 23
3 25 24 21
3 25 21 22
3 25 26 24
3 25 22 27
3 23 24 28
3 23 28 29
3 30 23 29
3 31 23 30
3 26 31 32
3 26 32 33
3 34 26 33
3 35 34 33
3 35 33 36
3 37 26 34
3 35 37 34
3 24 26 37
3 31 38 32
3 31 30 38
3 39 35 36
3 39 40 35
3 41 35 40
3 41 40 42
3 41 43 35
3 35 43 37
3 41 44 43
3 45 44 41
3 45 41 46
3 47 45 46
3 47 48 45
3 29 48 47
3 29 28 48
3 28 50 49
3 50 51 49
3 50 52 51
3 50 53 52
3 50 54 53
3 55 53 54
3 55 54 56
3 28 57 50
3 57 54 50
3 57 58 54
3 58 56 54
3 24 58 57
3 28 24 57
3 58 37 56
3 24 37 58
3 59 61 60
3 59 62 61
3 27 26 25
3 27 31 26
3 63 65 64
3 63 39 65
3 36 65 39
3 36 66 65
3 33 66 36
3 33 32 66
3 47 63 64
3 67 47 64
3 67 29 47
3 67 30 29
3 67 64 68
3 65 68 64
3 47 46 63
3 63 46 41
3 63 41 42
3 32 69 66
3 69 65 66
3 32 38 69
3 69 70 65
3 65 70 68
3 63 42 40
3 63 40 39
3 71 73 72
3 71 74 73
3 71 75 74
3 71 76 75
3 45 51 52
3 45 48 51
3 44 45 52
3 44 52 53
3 43 44 53
3 43 53 55
3 37 43 55
3 37 55 56
3 77 79 78
3 77 80 79
3 81 83 82
3 81 84 83
3 82 83 85
3 81 86 84
3 85 87 82
3 82 87 88
3 82 88 89
3 89 88 90
3 89 90 91
3 91 90 92
3 91 92 93
3 94 91 93
3 95 91 94
3 96 95 94
3 96 94 97
3 97 94 93
3 95 89 91
3 97 98 96
3 97 99 98
3 93 92 100
3 93 100 101
3 101 99 97
3 97 93 101
3 102 92 90
3 101 103 99
3 101 104 103
3 101 100 104
3 100 105 104
3 100 106 105
3 106 92 102
3 106 100 92
3 106 107 105
3 106 108 107
3 109 111 110
3 109 112 111
3 112 113 111
3 111 113 114
3 114 113 115
3 116 114 115
3 116 117 114
3 108 87 118
3 108 119 87
3 118 87 120
3 118 120 121
3 108 102 119
3 108 106 102
3 119 102 90
3 119 90 88
3 87 119 88
3 108 118 122
3 123 122 118
3 108 122 107
3 87 124 120
3 118 121 125
3 85 124 87
3 126 123 118
3 125 126 118
3 125 127 126
3 125 128 127
3 129 122 123
3 129 123 81
3 130 81 123
3 96 129 81
3 96 98 129
3 96 81 82
3 96 82 95
3 95 82 89
3 81 130 131
3 81 131 86
3 128 86 131
3 128 131 132
3 128 133 127
3 128 132 133
3 132 134 133
3 132 135 134
3 135 130 123
3 135 123 134
3 134 123 126
3 136 138 137
3 136 139 138
3 140 139 136
3 140 141 139
3 142 141 140
3 142 140 143
3 144 146 145
3 144 147 146
3 148 144 145
3 148 145 149
3 145 146 150
3 145 150 151
3 146 147 152
3 146 152 153
3 150 146 153
3 150 153 154
3 153 152 155
3 153 155 156
3 154 153 156
3 154 156 157
3 158 160 159
3 158 161 160
3 160 161 162
3 160 162 163
3 163 162 164
3 163 164 165
3 149 166 148
3 149 167 166
3 166 167 168
3 166 168 169
3 170 167 149
3 170 149 171
3 149 151 171
3 149 145 151
3 172 167 170
3 172 168 167
3 173 168 172
3 169 168 173
3 173 172 174
3 156 173 174
3 155 173 156
3 155 175 173
3 169 173 175
3 156 174 157
3 176 178 177
3 176 179 178
3 180 179 176
3 180 181 179
3 179 182 178
3 179 183 182
3 178 184 177
3 178 185 184
3 182 185 178
3 182 186 185
3 185 187 184
3 185 188 187
3 186 188 185
3 186 189 188
3 190 192 191
3 190 193 192
3 192 194 191
3 192 195 194
3 195 196 194
3 195 197 196
3 181 199 198
3 181 180 199
3 199 200 198
3 199 201 200
3 202 181 198
3 202 203 181
3 181 203 183
3 181 183 179
3 204 198 200
3 204 202 198
3 205 204 200
3 201 205 200
3 205 206 204
3 188 206 205
3 187 188 205
3 187 205 207
3 201 207 205
3 188 189 206
3 208 210 209
3 208 211 210
3 210 212 209
3 210 213 212
3 214 213 210
3 214 210 215
3 215 210 211
3 214 215 216
3 214 216 217
3 215 218 216
3 215 219 218
3 215 211 219
3 220 222 221
3 220 223 222
3 220 224 223
3 224 222 223
3 224 220 225
3 225 220 226
3 226 220 227
3 224 228 222
3 229 220 221
3 229 227 220
3 230 232 231
3 230 233 232
3 234 236 235
3 234 237 236
3 236 237 238
3 236 238 239
3 240 236 239
3 240 241 236
3 241 235 236
3 240 242 241
3 240 243 242
3 241 242 244
3 241 244 245
3 241 245 235
3 246 248 247
3 246 249 248
3 247 250 246
3 250 247 251
3 251 247 252
3 252 247 253
3 253 247 248
3 253 248 254
3 255 246 250
3 255 249 246
3 256 258 257
3 256 259 258
3 260 262 261
3 260 263 262
3 264 260 261
3 264 261 265
3 266 264 265
3 266 265 267
3 268 266 267
3 268 267 269
3 270 268 269
3 270 269 271
3 271 272 270
3 271 273 272
3 274 262 263
3 274 263 275
3 276 274 275
3 276 275 277
3 278 280 279
3 278 281 280
3 282 281 278
3 282 283 281
3 283 280 281
3 283 284 280
3 284 279 280
3 284 285 279
3 285 278 279
3 285 282 278
3 286 288 287
3 286 289 288
3 290 289 286
3 290 291 289
3 291 288 289
3 291 292 288
3 292 287 288
3 292 293 287
3 293 286 287
3 293 290 286
3 294 296 295
3 294 297 296
3 298 300 299
3 298 301 300
3 300 302 299
3 302 303 299
3 302 304 303
3 305 307 306
3 305 308 307
3 308 295 307
3 308 294 295
3 307 309 306
3 307 310 309
3 295 310 307
3 295 311 310
3 295 312 311
3 296 312 295
3 296 313 312
3 310 314 309
3 310 311 314
3 315 317 316
3 315 318 317
3 319 315 316
3 319 318 315
3 319 316 320
3 319 321 318
3 317 322 316
3 317 323 322
3 324 323 317
3 325 324 317
3 320 326 325
3 320 327 326
3 328 327 320
3 329 327 328
3 329 330 327
3 331 328 320
3 329 328 331
3 316 331 320
3 325 326 332
3 325 332 324
3 333 330 329
3 333 329 334
3 335 334 329
3 335 336 334
3 335 329 337
3 329 331 337
3 335 337 338
3 339 335 338
3 339 340 335
3 341 340 339
3 341 339 342
3 323 341 342
3 323 342 322
3 322 344 343
3 322 345 344
3 344 345 346
3 344 346 347
3 344 347 348
3 344 348 349
3 343 344 349
3 350 349 348
3 350 351 349
3 343 349 352
3 352 349 351
3 316 343 352
3 322 343 316
3 352 351 331
3 316 352 331
3 353 355 354
3 353 356 355
3 321 320 325
3 321 319 320
3 357 358 333
3 357 359 358
3 330 333 358
3 330 358 360
3 327 330 360
3 327 360 326
3 341 359 357
3 361 359 341
3 361 341 323
3 361 323 324
3 361 362 359
3 358 359 362
3 341 357 340
3 357 335 340
3 357 336 335
3 326 360 363
3 363 360 358
3 326 363 332
3 363 358 364
3 358 362 364
3 357 334 336
3 357 333 334
3 365 367 366
3 365 368 367
3 365 366 369
3 365 369 370
3 339 346 342
3 339 347 346
3 338 347 339
3 338 348 347
3 337 348 338
3 337 350 348
3 331 350 337
3 331 351 350
3 371 373 372
3 371 374 373
3 375 377 376
3 375 378 377
3 378 379 377
3 378 380 379
3 381 375 376
3 381 376 382
3 376 377 383
3 376 383 384
3 384 383 385
3 384 385 386
3 377 387 383
3 377 379 387
3 382 376 384
3 382 384 388
3 388 379 382
3 388 387 379
3 389 387 388
3 389 390 387
3 383 387 390
3 383 390 385
3 388 386 389
3 388 384 386
3 382 379 380
3 382 380 381
3 391 393 392
3 391 394 393
3 394 395 393
3 394 396 395
3 397 394 391
3 397 396 394
3 398 391 392
3 398 397 391
3 399 396 397
3 399 400 396
3 401 400 399
3 401 402 400
3 403 402 401
3 403 404 402
3 401 405 403
3 401 399 405
3 405 397 398
3 405 399 397
3 406 402 404
3 406 400 402
3 395 400 406
3 395 396 400
3 407 409 408
3 407 410 409
3 408 409 411
3 408 411 412
3 412 411 413
3 412 413 414
3 415 417 416
3 415 418 417
3 416 417 419
3 416 419 420
3 421 418 415
3 421 422 418
3 418 423 417
3 418 424 423
3 424 425 423
3 424 426 425
3 417 427 419
3 417 423 427
3 422 424 418
3 422 428 424
3 428 422 419
3 428 419 427
3 429 428 427
3 429 427 430
3 423 430 427
3 423 425 430
3 428 429 426
3 428 426 424
3 422 420 419
3 422 421 420
3 431 433 432
3 431 434 433
3 432 433 435
3 432 435 436
3 437 432 436
3 437 431 432
3 438 431 437
3 438 434 431
3 439 437 436
3 439 436 440
3 441 439 440
3 441 440 442
3 443 441 442
3 443 442 444
3 441 445 439
3 441 443 445
3 445 438 437
3 445 437 439
3 446 442 440
3 446 444 442
3 435 446 440
3 435 440 436
3 447 449 448
3 447 450 449
3 450 451 449
3 450 452 451
3 452 453 451
3 452 454 453
