mtllib Stunky.mtl
v 0.182894 0.214598 0.197669
vt 0.965142 0.12075
vn 0.9984049 -0.0309002 -0.04725319
v 0.162287 0.295773 0.299283
vn 0.8582103 0.1835531 0.4793572
v 0.162199 0.205078 0.308971
vn 0.8468105 0.1107721 0.5202323
v 0.161132 0.352616 0.231766
vn 0.8890534 0.4163022 0.1904641
v 0.173649 0.136866 0.308779
vn 0.8549788 -0.3343259 0.3965319
v 0.17216 0.264183 0.100814
vn 0.887118 0.0416688 -0.459658
v 0.158838 0.111778 0.177055
vn 0.5638108 -0.7817367 -0.2664679
v 0.143902 0.160192 0.0927153
vn 0.561675 -0.5261379 -0.6385139
v 0.0887084 0.163957 0.380901
vn 0.3351441 -0.2775911 0.9003453
v 0.160186 0.353661 0.11844
vn 0.716047 0.462853 -0.522536
v 0 0.107171 0.115439
vn 0 -0.9191799 -0.393838
v 0.133 0.0955595 0.273584
vn 0.2310019 -0.9717748 0.04787429
v 0.0652893 0.0966322 0.329187
vn 0.09807348 -0.9123479 0.397496
v 0 0.10566 0.229343
vn 0 -0.9997794 -0.02100361
v -0.133 0.0955596 0.273584
vn -0.2309991 -0.9717783 0.04781532
v -0.158838 0.111778 0.177055
vn -0.5638109 -0.7817369 -0.266467
v -0.143902 0.160192 0.0927153
vn -0.561675 -0.5261379 -0.6385139
v -0.173649 0.136866 0.308779
vn -0.8550222 -0.3342561 0.3964971
v -0.06533 0.0966322 0.329187
vn -0.09812891 -0.9123161 0.3975551
v -0.182894 0.214598 0.197669
vn -0.9984049 -0.0309002 -0.04725319
v -0.17216 0.264183 0.100814
vn -0.887118 0.0416688 -0.459658
v 0 0.103816 0.309452
vn 0 -0.9887504 0.1495751
v -0.161132 0.352616 0.231766
vn -0.8890534 0.4163022 0.1904641
v -0.160186 0.353661 0.11844
vn -0.716047 0.462853 -0.522536
v -0.0887084 0.163957 0.380901
vn -0.335126 -0.277501 0.9003798
v -0.162199 0.205078 0.308971
vn -0.8468105 0.1107721 0.5202323
v -0.162287 0.295773 0.299283
vn -0.8582106 0.1835529 0.4793568
v 0 0.130979 0.362521
vt 0 0.102033
vn 1.02864E-05 -0.555396 0.831586
vt 0 0.0183337
vt 0.40235 -0.00502921
vt -0.402601 -0.00502921
vt 0.546672 0.203647
vt -0.546673 0.203647
v 0 0.213812 0.389764
vt 0 0.357266
vn 0 0.009207206 0.9999576
v 0.0804126 0.2108 0.364461
vt 0.495549 0.347983
vn 0.4443429 0.200626 0.8731028
vt 0.999565 0.330353
v -0.0804126 0.2108 0.364461
vt -0.495549 0.347983
vn -0.4443429 0.200626 0.8731028
vt -0.999565 0.330353
v 0 0.432623 0.129921
vt 0 0.98567
vn 0 0.9225665 -0.3858382
v 0 0.358271 0.0403359
vt 0 0.802385
vn 0 0.6119599 -0.7908888
vt -0.987159 0.788181
vt 0.987159 0.788181
v -0.0800646 0.413504 0.182047
vt -0.493405 0.972574
vn -0.2315101 0.9717795 0.04525232
v 0.0800646 0.413504 0.182047
vt 0.493405 0.972574
vn 0.2315099 0.9717795 0.04525238
v 0 0.411445 0.288661
vt 0 0.96623
vn 0 0.8660231 0.5000041
v -0.0720964 0.263348 0.0150439
vt -0.486076 0.714272
vn -0.3345359 0.04887329 -0.9411148
v 0.0720964 0.263348 0.0150439
vt 0.486075 0.714272
vn 0.3345359 0.04887329 -0.9411148
v -0.116654 0.362376 0.304912
vt -0.718893 0.815034
vn -0.4238879 0.713536 0.5578399
v -0.149892 0.447286 0.165851
vt -0.967594 0.995694
vn -0.4879917 0.8675585 -0.09594934
vt -0.992987 0.784959
v 0.149892 0.447286 0.165851
vt 0.967594 0.995694
vn 0.4879909 0.8675589 -0.09594989
v 0.116654 0.362376 0.304912
vt 0.718892 0.815034
vn 0.4238879 0.713536 0.5578399
vt 0.992987 0.784959
v 0 0.168761 0.042463
vt 0 0.737703
vn 0 -0.562452 -0.82683
vt 1.01866 0.716845
vt 1.02991 0.675703
vt 0.505964 0.702106
vt -1.01866 0.716845
vt -1.00011 0.609809
v 0 0.310137 0.364787
vt 0 0.654069
vn 0 0.474868 0.880057
v -0.0731287 0.303127 0.356078
vt -0.450661 0.632469
vn -0.355506 0.293206 0.8874941
vt 1.00011 0.609809
vt 0.900383 0.63
vt -1.02991 0.675703
vt -0.505964 0.702106
v 0.0731287 0.303127 0.356078
vt 0.450661 0.632469
vn 0.355506 0.293206 0.8874941
vt -0.900383 0.63
v 0.165491 0.13494 0.345588
vt 0.317091 0.853405
vn -0.09534453 -0.9689913 0.2279591
v 0.176178 0.167686 0.35431
vn 0.4254191 0.6266262 0.6529612
v 0.159219 0.162126 0.323585
vn -0.4009569 0.355722 -0.8442129
v 0.252536 0.138792 0.296846
vn 0.8758151 -0.165038 -0.4535531
v 0.163513 0.132342 0.349883
vn -0.6109089 -0.7839419 0.110569
v 0.180503 0.150636 0.360642
vn 0.4709102 0.3809302 0.7956983
v 0.174087 0.151913 0.334255
vn 0.06240511 0.4622881 -0.8845311
v 0.225105 0.104929 0.333581
vn 0.7756627 -0.5925698 -0.2172749
v -0.165491 0.13494 0.345588
vn 0.09534433 -0.9689913 0.2279591
v -0.159219 0.162126 0.323585
vn 0.4009571 0.3557211 -0.8442132
v -0.176178 0.167686 0.35431
vn -0.4254191 0.6266272 0.6529602
v -0.252536 0.138792 0.296846
vn -0.875815 -0.165036 -0.453554
v -0.163513 0.132342 0.349883
vn 0.610909 -0.783942 0.110568
v -0.174087 0.151913 0.334255
vn -0.06240581 0.4622881 -0.8845311
v -0.180503 0.150636 0.360642
vn -0.4709098 0.3809299 0.7956987
v -0.225105 0.104929 0.333581
vn -0.775662 -0.592571 -0.217274
vt 0.702539 0.253631
vt 0.3564 0.0050615
vt 0.951508 0.00780747
o merged_0_0_node
g polygon_0
usemtl mat_kao_mat_id
f 1/1/1 2/1/2 3/1/3
f 1/1/1 4/1/4 2/1/2
f 1/1/1 3/1/3 5/1/5
f 1/1/1 6/1/6 4/1/4
f 1/1/1 5/1/5 7/1/7
f 1/1/1 8/1/8 6/1/6
f 1/1/1 7/1/7 8/1/8
f 3/1/3 9/1/9 5/1/5
f 4/1/4 6/1/6 10/1/10
f 7/1/7 11/1/11 8/1/8
f 7/1/7 5/1/5 12/1/12
f 7/1/7 12/1/12 11/1/11
f 9/1/9 13/1/13 5/1/5
f 5/1/5 13/1/13 12/1/12
f 11/1/11 12/1/12 14/1/14
f 11/1/11 14/1/14 15/1/15
f 11/1/11 15/1/15 16/1/16
f 11/1/11 16/1/16 17/1/17
f 12/1/12 13/1/13 14/1/14
f 15/1/15 18/1/18 16/1/16
f 15/1/15 14/1/14 19/1/19
f 15/1/15 19/1/19 18/1/18
f 17/1/17 16/1/16 20/1/20
f 17/1/17 20/1/20 21/1/21
f 16/1/16 18/1/18 20/1/20
f 13/1/13 22/1/22 14/1/14
f 14/1/14 22/1/22 19/1/19
f 21/1/21 20/1/20 23/1/23
f 21/1/21 23/1/23 24/1/24
f 18/1/18 19/1/19 25/1/25
f 18/1/18 26/1/26 20/1/20
f 18/1/18 25/1/25 26/1/26
f 23/1/23 20/1/20 27/1/27
f 27/1/27 20/1/20 26/1/26
f 28/2/28 22/3/22 13/4/13
f 28/2/28 19/5/19 22/3/22
f 28/2/28 13/4/13 9/6/9
f 28/2/28 25/7/25 19/5/19
f 28/2/28 9/6/9 29/8/29
f 28/2/28 29/8/29 25/7/25
f 9/6/9 30/9/30 29/8/29
f 9/6/9 3/10/3 30/9/30
f 25/7/25 29/8/29 31/11/31
f 25/7/25 31/11/31 26/12/26
f 32/13/32 33/14/33 24/15/24
f 32/13/32 10/16/10 33/14/33
f 32/13/32 24/15/24 34/17/34
f 32/13/32 35/18/35 10/16/10
f 32/13/32 34/17/34 36/19/36
f 32/13/32 36/19/36 35/18/35
f 33/14/33 37/20/37 24/15/24
f 33/14/33 10/16/10 38/21/38
f 33/14/33 38/21/38 37/20/37
f 34/17/34 39/22/39 36/19/36
f 34/17/34 24/15/24 40/23/40
f 34/17/34 23/24/23 39/22/39
f 34/17/34 40/23/40 23/24/23
f 35/18/35 41/25/41 10/16/10
f 35/18/35 36/19/36 42/26/42
f 35/18/35 4/27/4 41/25/41
f 35/18/35 42/26/42 4/27/4
f 38/21/38 43/28/43 37/20/37
f 38/21/38 10/16/10 6/29/6
f 38/21/38 6/29/6 8/30/8
f 38/21/38 8/30/8 43/31/43
f 24/15/24 37/20/37 21/32/21
f 39/22/39 23/24/23 27/33/27
f 39/22/39 44/34/44 36/19/36
f 39/22/39 27/33/27 45/35/45
f 39/22/39 45/35/45 44/34/44
f 36/19/36 44/34/44 42/26/42
f 4/27/4 42/26/42 2/36/2
f 8/30/8 11/37/11 43/31/43
f 37/20/37 17/38/17 21/32/21
f 37/20/37 43/39/43 17/38/17
f 44/34/44 46/40/46 42/26/42
f 42/26/42 46/40/46 2/36/2
f 43/39/43 11/41/11 17/38/17
f 47/42/47 48/42/48 49/42/49
f 47/42/47 50/42/50 48/42/48
f 47/42/47 49/42/49 50/42/50
f 50/42/50 49/42/49 48/42/48
f 51/42/51 52/42/52 53/42/53
f 51/42/51 54/42/54 52/42/52
f 51/42/51 53/42/53 54/42/54
f 54/42/54 53/42/53 52/42/52
f 55/42/55 56/42/56 57/42/57
f 55/42/55 58/42/58 56/42/56
f 55/42/55 57/42/57 58/42/58
f 58/42/58 57/42/57 56/42/56
f 59/42/59 60/42/60 61/42/61
f 59/42/59 62/42/62 60/42/60
f 59/42/59 61/42/61 62/42/62
f 62/42/62 61/42/61 60/42/60
f 41/43/41 4/44/4 10/45/10
f 40/43/40 24/45/24 23/44/23
v -0.116124 0.1216273 -0.09538397
vt 0.932914 0.920167
vn -0.9167421 -0.06511527 -0.3941369
v -0.116124 0.1216274 0.1044271
vn -0.7645409 0.07959563 0.639642
v -0.0938194 0.181872 0.00850535
vn -0.7444804 0.6547334 0.1306641
v -0.0938195 0.181872 0.0965433
vn -0.5176948 0.6529357 0.5528718
v 0.1161 0.1215993 -0.09540017
vn 0.9166899 -0.06510586 -0.3942598
v 0.0938194 0.181872 0.00850538
vn 0.7446179 0.6545979 0.130559
v 0.116124 0.1216274 0.1044271
vn 0.7645457 0.07962842 0.639632
v 0.0938194 0.181872 0.0965434
vn 0.5176948 0.6529357 0.5528718
v 0 0.19575 0.0350235
vt 0 0.331133
vn 0 0.9637624 0.2667621
vt -1.07479 0.407313
vt -1.07479 0.1544
v 0 0.181872 0.150289
vt 0 0
vn 0 0.5904732 0.8070573
vt 1.07479 0.1544
vt 1.07479 0.407313
v 0 0.294889 -0.197806
vt 0 1
vn 0 0.2459569 -0.9692808
v 0 0.267061 -0.0849259
vt 0 0.67572
vn 0 0.8980488 0.4398959
v 0.0389957 0.274641 -0.153368
vt 0.446733 0.872339
vn 0.4125589 0.7952727 -0.4442258
v 0.0707107 0.25088 -0.197806
vn 0.11606 0.1497239 -0.9818925
v 0.0757017 0.237912 -0.089526
vn 0.6858933 0.6783123 0.2635201
vt 0.867236 0.688935
v -0.0389957 0.274641 -0.153368
vt -0.446733 0.872339
vn -0.412559 0.795273 -0.444225
v -0.0707107 0.25088 -0.197806
vn -0.11606 0.1497239 -0.9818925
v -0.0757017 0.237912 -0.089526
vn -0.6857896 0.6784086 0.2635418
vt -0.867236 0.688935
v -0.0952407 0.204834 -0.155307
vn -0.8233719 0.35102 -0.4459189
v -0.107644 0.167289 -0.197806
vn 0.02316119 -0.6993637 -0.7143907
v 0.0952408 0.204834 -0.155307
vn 0.823498 0.350878 -0.445798
v 0.107644 0.167289 -0.197806
vn -0.023127 -0.6991171 -0.7146331
v 0 0.181872 -0.131395
vn -5.884489E-05 -0.340637 -0.9401949
o merged_1_0_node
g polygon_0
usemtl mat_senaka_mat_id
f 63/46/63 64/46/64 65/46/65
f 64/46/64 66/46/66 65/46/65
f 67/46/67 68/46/68 69/46/69
f 69/46/69 68/46/68 70/46/70
f 71/47/71 65/48/65 66/49/66
f 66/49/66 72/50/72 71/47/71
f 72/50/72 70/51/70 71/47/71
f 70/51/70 68/52/68 71/47/71
f 73/53/73 74/54/74 75/55/75
f 76/46/76 75/46/75 77/46/77
f 75/55/75 74/54/74 77/56/77
f 73/53/73 78/57/78 74/54/74
f 79/46/79 80/46/80 78/46/78
f 78/57/78 80/58/80 74/54/74
f 79/46/79 81/46/81 80/46/80
f 80/46/80 81/46/81 63/46/63
f 81/46/81 82/46/82 63/46/63
f 76/46/76 77/46/77 83/46/83
f 77/46/77 67/46/67 83/46/83
f 84/46/84 83/46/83 67/46/67
f 74/54/74 71/47/71 77/56/77
f 77/56/77 71/47/71 68/52/68
f 74/54/74 80/58/80 71/47/71
f 71/47/71 80/58/80 65/48/65
f 80/46/80 63/46/63 65/46/65
f 67/46/67 77/46/77 68/46/68
f 76/46/76 85/46/85 75/46/75
f 73/46/73 75/46/75 85/46/85
f 79/46/79 78/46/78 85/46/85
f 78/46/78 73/46/73 85/46/85
f 82/46/82 81/46/81 85/46/85
f 81/46/81 79/46/79 85/46/85
f 84/46/84 85/46/85 83/46/83
f 76/46/76 83/46/83 85/46/85
f 82/46/82 85/46/85 63/46/63
f 84/46/84 67/46/67 85/46/85
v -0.10623 0.06513228 0.04833659
vt 0.866363 0.482226
vn -0.8723601 -0.4605068 -0.1640773
v -0.10623 0.06039236 -0.02854376
vn -0.8342567 -0.5238412 0.1720644
v 0 0.0519239 0.00663999
vt -0.204385 -0.34923
vn 0 -0.9999338 0.0115062
v 0.10623 0.06513228 0.04833659
vn 0.8723747 -0.4604566 -0.1641403
v 0.10623 0.06039236 -0.02854366
vn 0.8342988 -0.5237863 0.1720274
v -0.0977466 -1.085588E-05 -0.1195933
vt 0.973076 0.028267
vn -0.1788605 -0.8745204 -0.4508025
vt 0.98763 0.779478
v 0 0.06653997 -0.1585483
vt 0 0.490149
vn -6.057817E-05 -0.6317099 -0.7752048
v 0 0.1216273 -0.1585469
vt 0 0.791224
vn -4.145161E-05 0.215135 -0.9765843
v 0.0977465 -1.085588E-05 -0.1195933
vn 0.1787415 -0.8746293 -0.4506384
v -0.0977466 -9.496686E-06 0.115355
vt 0.844581 0.843644
vn -0.2628773 -0.7497907 0.6072146
v 0 0.06622478 0.1594316
vt 0.499741 0.909554
vn 0 -0.3604069 0.9327952
vt 0.555044 0.598327
v 0 0.1216274 0.1586437
vt 0.173648 0.96836
vn 0 0.09864374 0.9951228
v 0.0977465 -9.496686E-06 0.115355
vn 0.2628773 -0.7497907 0.6072146
o merged_2_0_node
g polygon_0
usemtl mat_hara_mat_id
f 86/59/86 87/59/87 88/60/88
f 89/46/89 90/46/90 69/46/69
f 69/46/69 90/46/90 67/46/67
f 63/46/63 87/46/87 64/46/64
f 64/46/64 87/46/87 86/46/86
f 88/60/88 90/59/90 89/59/89
f 91/61/91 63/62/63 92/63/92
f 92/63/92 63/62/63 93/64/93
f 91/61/91 87/59/87 63/62/63
f 67/62/67 90/59/90 94/61/94
f 94/61/94 92/63/92 67/62/67
f 67/62/67 92/63/92 93/64/93
f 93/46/93 63/46/63 85/46/85
f 67/46/67 93/46/93 85/46/85
f 91/61/91 92/63/92 88/60/88
f 94/61/94 90/59/90 88/60/88
f 92/63/92 94/61/94 88/60/88
f 88/60/88 87/59/87 91/61/91
f 95/65/95 96/66/96 64/67/64
f 64/67/64 96/66/96 97/68/97
f 98/65/98 69/67/69 96/66/96
f 96/66/96 69/67/69 97/68/97
f 64/46/64 97/46/97 66/46/66
f 66/46/66 97/46/97 72/46/72
f 69/46/69 70/46/70 97/46/97
f 97/46/97 70/46/70 72/46/72
f 95/65/95 86/59/86 88/60/88
f 96/66/96 95/65/95 88/60/88
f 98/65/98 96/66/96 88/60/88
f 88/60/88 89/59/89 98/65/98
f 98/65/98 89/59/89 69/67/69
f 64/67/64 86/59/86 95/65/95
vt -1.00011 0.929437
vt -0.495549 0.798524
vt -0.450661 0.940767
vt 0 0.803165
vt 0 0.951567
vt 1.00011 0.929437
vt 0.495549 0.798524
vt 0.999565 0.789709
vt 0.450661 0.940767
vt -0.999565 0.789709
o merged_3_0_node
g polygon_0
usemtl TEX_ANIM_EYE_mat_id
f 27/69/27 31/70/31 45/71/45
f 31/70/31 29/72/29 45/71/45
f 29/72/29 44/73/44 45/71/45
f 2/74/2 30/75/30 3/76/3
f 29/72/29 30/75/30 46/77/46
f 30/75/30 2/74/2 46/77/46
f 29/72/29 46/77/46 44/73/44
f 27/69/27 26/78/26 31/70/31
