mtllib Aggron_Normal.mtl
v 0.0736833 0.588308 0.214835
vt 0.287674 0.201616
vn 0.7192712 -0.2623481 0.6432902
v 0.116621 0.5722129 0.154827
vt 0.438705 0.13621
vn 0.825814 -0.387291 0.409923
v 0.118691 0.616074 0.163793
vt 0.49065 0.262654
vn 0.8786402 -0.101393 0.4665951
v 0 0.481398 0.240445
vt 0.0559172 -0.0227296
vn 0.692757 -0.3840729 0.6103899
v 0.0766407 0.680903 0.237026
vt 0.340047 0.443186
vn 0.7780347 -0.1492089 0.6102448
v 0 0.560542 0.265876
vt 0.052577 0.154344
vn 0.6183139 -0.3274129 0.7144849
v 0 0.608317 0.298932
vt 0.00646346 0.324432
vn 0.7098147 -0.2842149 0.6445037
v 0.169575 0.686733 0.0482921
vt 0.985403 0.33812
vn 0.9329988 -0.113821 0.3414059
v 0.136483 0.5467759 0.0761362
vt 0.706753 -0.00491194
vn 0.891845 -0.313217 0.326355
vn 0.9423575 -0.1648921 0.2911581
v 0 0.6599959 0.322745
vt -0.0265807 0.443186
vn 0.7488607 -0.2773528 0.6018997
vn 0.9359654 -0.01274491 0.3518612
v 0.1337 0.703529 0.14433
vt 0.635979 0.484322
vn 0.9065645 -0.05229737 0.4188147
v 0.160367 0.723549 0.0623546
vt 0.966324 0.484322
vn 0.9373426 0.1079159 0.3312748
v -0.122165 0.804608 -0.0976669
vt 0.621604 0.785821
vn -0.6217812 0.6057273 -0.4964702
v 0 0.722435 -0.204806
vt 0.856026 1.0074
vn 0 0.5693868 -0.8220697
v -0.140285 0.689369 -0.140844
vt 0.725421 0.56108
vn -0.7820941 0.32271 -0.5330921
v 0 0.8645689 -0.0778763
vt 0.52318 1.18068
vn 0 0.8883851 -0.4590991
v -0.20466 0.652336 0.0465275
vt 0.325107 0.5029
vn -0.9779495 0.1996111 -0.06140183
v -0.112254 0.861632 0.0847662
vt 0.261671 0.867737
vn -0.5716222 0.7787052 0.2585851
v -0.182629 0.774141 0.063384
vt 0.295775 0.667277
vn -0.9181287 0.3853449 0.09246088
v 0.122165 0.8046089 -0.0976669
vn 0.6217809 0.6057279 -0.4964699
v 0.140285 0.689369 -0.140844
vn 0.7820936 0.3227099 -0.5330927
v -0.1337 0.703529 0.14433
vt 0.00380927 0.620761
vn -0.7180241 0.435832 0.5426711
v 0.112254 0.8616309 0.0847662
vn 0.5716222 0.7787052 0.2585851
v 0 0.882736 0.0899238
vt 0.175365 1.16628
vn 0 0.9803774 0.1971301
v 0.20466 0.652336 0.0465275
vn 0.9779493 0.1996121 -0.06140182
v 0 0.803175 0.229588
vt -0.181771 1.03792
vn -0.6641738 0.5667878 0.4874678
v 0.182629 0.774141 0.063384
vn 0.9181287 0.3853449 0.09246117
vn 0.6641738 0.5667878 0.4874678
vn 0.7180241 0.435832 0.5426711
v -0.129668 0.475442 0.0672991
vt 0.529032 0.169071
vn -0.3686721 -0.9271252 -0.06722991
v 0 0.514879 -0.147737
vt 0.570131 0.16659
vn -0.000133189 -0.9029422 -0.4297621
v -0.00401003 0.465472 0.132357
vt 0.532531 0.160788
vn -0.00561408 -0.999486 0.0315642
v -0.0978211 0.5928969 -0.128152
vt 0.570066 0.181739
vn -0.6530619 -0.5974079 -0.465418
v 0 0.5057269 0.141927
vt 0.516751 0.177972
vn 0.007706361 -0.9903862 0.138115
v -0.143961 0.576308 0.0163261
vt 0.542899 0.185217
vn -0.9417662 -0.2652901 -0.206634
v -0.136483 0.5467759 0.0761362
vt 0.530631 0.182513
vn -0.8326741 -0.368657 0.4132141
v 0.129668 0.475442 0.0672991
vn 0.3604269 -0.9302437 -0.06884208
v 0.0978211 0.5928969 -0.128152
vn 0.6530615 -0.5974086 -0.4654177
v -0.169575 0.686733 0.0482921
vt 0.542257 0.202869
vn -0.9735247 -0.2284069 0.008942528
vt 0.497639 0.177964
vn 0 -0.9709255 -0.2393819
v 0.143961 0.576308 0.0163261
vn 0.941766 -0.265291 -0.206634
vn 0.8326741 -0.368657 0.4132141
vn 0.9735247 -0.2284069 0.008942679
v -0.0736833 0.588308 0.214835
vn -0.7192739 -0.262339 0.6432909
v -0.118691 0.616074 0.163793
vn -0.8786376 -0.101398 0.4665988
v -0.116621 0.5722129 0.154827
vn -0.825814 -0.387291 0.409923
v -0.0766407 0.6809219 0.23703
vn -0.778038 -0.149207 0.610241
vn -0.692757 -0.3840729 0.6103899
vn -0.7098208 -0.2841969 0.6445048
vn -0.6183139 -0.3274129 0.7144849
vn -0.9329989 -0.11382 0.341406
vn -0.906563 -0.0522978 0.418818
vn -0.9359656 -0.01274559 0.3518608
vn -0.7488741 -0.277346 0.601886
vn -0.8918453 -0.3132171 0.3263541
v -0.160367 0.723549 0.0623546
vn -0.9373434 0.107915 0.3312731
vn -0.9423575 -0.1648919 0.2911578
v -0.032421 0.460024 -0.182244
vt 0.970147 1.00347
vn -0.6481572 0.6188672 -0.4437292
v 0.032421 0.460024 -0.182244
vn 0.6481572 0.6188672 -0.4437292
v 0 0.243685 -0.320833
vt 0.970147 0.515098
vn 0 0.11583 -0.993269
v 0.121366 0.424735 -0.0982701
vt 0.932602 1.00347
vn 0.699971 -0.145205 0.699254
v -0.0848067 0.191368 -0.196341
vt 0.932602 0.515098
vn -0.6488289 -0.4723639 0.5965679
v -0.121366 0.424735 -0.0982701
vn -0.699971 -0.145205 0.699254
v 0.0848067 0.191368 -0.196341
vn 0.6488289 -0.4723639 0.5965679
v 0 0.592618 -0.08346121
vt 0.808859 0.690795
vn 0 -0.9937192 -0.111902
v -0.203046 0.588321 0.0604699
vt 0.784926 0.69008
v -0.133547 0.547359 -0.141294
vt 0.818476 0.683269
v 0.203046 0.588321 0.0604699
v 0 0.545507 -0.259425
vt 0.838119 0.682961
v 0.133547 0.547359 -0.141294
v 0 0.395459 -0.08264041
vt 0.808723 0.658011
vn 0 -1 0
v -0.189045 0.47189 0.0459675
vt 0.787338 0.67072
v -0.135159 0.415805 -0.139538
vt 0.817437 0.661394
v 0.189045 0.47189 0.0459675
v 0 0.395459 -0.265335
vt 0.836922 0.658011
v 0.135159 0.415805 -0.139538
vt 0.81658 0.848441
vn 0 -0.9997537 -0.02219639
vt 0.795575 0.822647
vn 0.4335241 -0.8951972 0.103338
vt 0.802182 0.841877
vn 0.168557 -0.976394 -0.135068
vt 0.802858 0.812609
vn 0.136363 -0.9906579 -0.00142537
vt 0.830301 0.812609
vn -0.136363 -0.9906579 -0.00142535
vt 0.837584 0.822647
vn -0.4335229 -0.8951978 0.103338
vt 0.830977 0.841877
vn -0.168556 -0.9763939 -0.13507
vn 0.5902359 0.130265 0.7966509
v -0.177634 0.691388 0.0765578
vt 0.782251 0.707218
vn -0.5846149 0.355326 0.729362
vn -0.5902359 0.130265 0.7966509
v 0.177634 0.691386 0.0765671
vn 0.5846149 0.355326 0.729362
v 0.124973 0.6949019 -0.0983113
vt 0.811329 0.707803
vn 0.8495243 0.4596642 -0.2588771
vn 0.8625796 0.4429268 -0.2444839
v -0.124973 0.6949019 -0.0983113
vn -0.8495243 0.4596642 -0.2588771
vn -0.8625796 0.4429268 -0.2444839
v 0 0.725744 -0.178922
vt 0.824733 0.712931
vn 0 0.5499322 -0.8352093
vn 0 0.5499322 -0.8352094
vn 0.5902361 0.218594 0.7770702
v -0.172837 0.5976179 0.052134
vt 0.786312 0.691626
vn -0.5846152 0.4347112 0.6850192
vn -0.5902361 0.218594 0.7770702
v 0.172837 0.5976179 0.052134
vn 0.5846152 0.4347112 0.6850192
v 0.124795 0.562326 -0.108843
vt 0.81308 0.685758
vn 0.8495242 0.4278081 -0.3086891
vn 0.8625801 0.4127861 -0.292512
v -0.124795 0.562326 -0.108843
vn -0.8495242 0.4278081 -0.3086891
vn -0.8625801 0.4127861 -0.292512
v 0 0.562326 -0.192399
vt 0.826974 0.685758
vn 0 0.4530169 -0.8915019
v 0.224323 0.9141639 0.339583
vt 0.813382 0.966423
vn 0.380964 0.316342 0.868789
v 0.0761112 0.848158 0.0330248
vt 0.788251 0.916162
vn -0.3148351 0.9477294 -0.05184422
v 0.067712 0.773713 0.063815
vt 0.805005 0.916162
vn -0.492804 -0.629662 0.600558
v 0.136359 0.7944579 0.0261598
vt 0.821759 0.916162
vn 0.9617321 -0.190112 -0.197304
vt 0.838513 0.916162
v -0.224323 0.9141639 0.339583
vn -0.380969 0.316352 0.8687831
v -0.067712 0.773713 0.063815
vn 0.492804 -0.629662 0.600558
v -0.0761112 0.848158 0.0330248
vn 0.314836 0.9477291 -0.05184411
v -0.136359 0.7944579 0.0261598
vn -0.9617319 -0.190112 -0.197305
vt 0.81658 0.803859
v 0 0.6211599 0.478415
vt 0.81658 0.778322
vn -0.6992069 0.5770209 0.4220859
vn 0.6992069 0.5770209 0.4220859
o merged_0_0_node
g polygon_0
usemtl mat_head_mat_id
f 1/1/1 2/2/2 3/3/3
f 1/1/1 4/4/4 2/2/2
f 1/1/1 3/3/3 5/5/5
f 1/1/1 6/6/6 4/4/4
f 1/1/1 5/5/5 7/7/7
f 1/1/1 7/7/7 6/6/6
f 2/2/2 8/8/8 3/3/3
f 2/2/2 4/4/4 9/9/9
f 2/2/2 9/9/9 8/8/10
f 5/5/5 10/10/11 7/7/7
f 3/3/3 8/8/12 11/11/13
f 8/8/12 12/12/14 11/11/13
f 13/13/15 14/14/16 15/15/17
f 13/13/15 16/16/18 14/14/16
f 13/13/15 15/15/17 17/17/19
f 13/13/15 18/18/20 16/16/18
f 13/13/15 17/17/19 19/19/21
f 13/13/15 19/19/21 18/18/20
f 14/14/16 16/16/18 20/13/22
f 14/14/16 20/13/22 21/15/23
f 17/17/19 22/20/24 19/19/21
f 19/19/21 22/20/24 18/18/20
f 16/16/18 23/18/25 20/13/22
f 16/16/18 18/18/20 24/21/26
f 16/16/18 24/21/26 23/18/25
f 21/15/23 20/13/22 25/17/27
f 22/20/24 26/22/28 18/18/20
f 18/18/20 26/22/28 24/21/26
f 23/18/25 27/19/29 20/13/22
f 23/18/25 24/21/26 26/22/30
f 23/18/25 11/20/31 27/19/29
f 23/18/25 26/22/30 11/20/31
f 27/19/29 11/20/31 25/17/27
f 27/19/29 25/17/27 20/13/22
f 28/23/32 29/24/33 30/25/34
f 28/23/32 31/26/35 29/24/33
f 28/23/32 30/25/34 32/27/36
f 28/23/32 33/28/37 31/26/35
f 28/23/32 32/27/36 34/29/38
f 28/23/32 34/29/38 33/28/37
f 29/24/33 35/23/39 30/25/34
f 29/24/33 36/26/40 35/23/39
f 30/25/34 35/23/39 32/27/36
f 34/29/38 37/30/41 33/28/37
f 34/29/38 32/27/36 4/31/42
f 36/26/40 38/28/43 35/23/39
f 32/27/36 9/29/44 4/31/42
f 32/27/36 35/23/39 9/29/44
f 35/23/39 38/28/43 9/29/44
f 38/28/43 8/30/45 9/29/44
f 39/1/46 40/3/47 41/2/48
f 39/1/46 42/5/49 40/3/47
f 39/1/46 41/2/48 4/4/50
f 39/1/46 7/7/51 42/5/49
f 39/1/46 4/4/50 6/6/52
f 39/1/46 6/6/52 7/7/51
f 40/3/47 37/8/53 41/2/48
f 40/3/47 22/11/54 37/8/55
f 42/5/49 7/7/51 10/10/56
f 4/4/50 41/2/48 34/9/57
f 22/11/54 43/12/58 37/8/55
f 41/2/48 37/8/59 34/9/57
f 44/32/60 45/32/61 46/33/62
f 44/32/60 47/34/63 45/32/61
f 44/32/60 46/33/62 48/35/64
f 44/32/60 49/34/65 47/34/63
f 44/32/60 48/35/64 49/34/65
f 45/32/61 50/35/66 46/33/62
f 45/32/61 47/34/63 50/35/66
f 50/35/66 48/35/64 46/33/62
f 50/35/66 49/34/65 48/35/64
f 50/35/66 47/34/63 49/34/65
f 51/36/67 52/37/67 53/38/67
f 51/36/67 54/37/67 52/37/67
f 51/36/67 53/38/67 55/39/67
f 51/36/67 56/38/67 54/37/67
f 51/36/67 55/39/67 56/38/67
f 57/40/68 58/41/68 59/42/68
f 57/40/68 60/41/68 58/41/68
f 57/40/68 59/42/68 61/43/68
f 57/40/68 62/42/68 60/41/68
f 57/40/68 61/43/68 62/42/68
f 14/44/69 17/45/70 15/46/71
f 14/44/69 22/47/72 17/45/70
f 14/44/69 11/48/73 22/47/72
f 14/44/69 25/49/74 11/48/73
f 14/44/69 21/50/75 25/49/74
f 54/37/76 63/51/77 52/37/78
f 54/37/76 64/51/79 63/51/77
f 54/37/76 65/52/80 64/51/79
f 54/37/76 56/38/81 65/52/80
f 52/37/78 63/51/77 66/52/82
f 52/37/78 66/52/82 53/38/83
f 56/38/81 67/53/84 65/52/80
f 56/38/81 55/39/85 67/53/84
f 67/53/84 53/38/83 66/52/82
f 67/53/84 55/39/85 53/38/83
f 60/41/86 68/54/87 58/41/88
f 60/41/86 69/54/89 68/54/87
f 60/41/86 70/55/90 69/54/89
f 60/41/86 62/42/91 70/55/90
f 58/41/88 68/54/87 71/55/92
f 58/41/88 71/55/92 59/42/93
f 62/42/91 72/56/94 70/55/90
f 62/42/91 61/43/94 72/56/94
f 72/56/94 59/42/93 71/55/92
f 72/56/94 61/43/94 59/42/93
f 73/57/95 74/58/96 75/59/97
f 73/57/95 75/59/97 76/60/98
f 73/57/95 76/60/98 74/61/96
f 77/57/99 78/59/100 79/58/101
f 77/57/99 80/60/102 78/59/100
f 77/57/99 79/61/101 80/60/102
f 26/62/28 22/47/24 81/63/103
f 81/63/42 22/47/42 11/48/42
f 26/62/30 81/63/104 11/48/31
v 0.216476 0.408501 0.103135
vt 0.487106 0.181811
vn 0.6679829 0.266274 0.694908
v 0.262329 0.584561 0.0467235
vt 0.430449 0.238468
vn -0.0223874 0.9558552 -0.2929841
v 0.16903 0.446922 0.0159449
vt 0.430449 0.181811
vn 0.05327189 0.8639929 -0.500678
v 0.294514 0.558498 0.10587
vt 0.487106 0.238468
vn 0.5081132 0.3261651 0.7971432
v 0.0714681 0.0796579 -0.499921
vt 0.536696 0.0689647
vn 0.9844244 -0.09167904 -0.1500121
v 0.0938397 0.181001 -0.226089
vt 0.00692833 0.0689899
vn 0.9179582 -0.08391312 -0.3877001
v 0 0.06362911 -0.195324
vt 0.0413942 0.0511203
vn 0 -0.9992468 -0.03880699
v 0 0.250113 -0.314168
vt 0.13883 0.0815556
vn 0 0.8936763 -0.4487121
v 0 0.00495409 -0.484538
vt 0.553929 0.0600299
vn 0 -0.9939414 0.1099111
v 0 0.144904 -0.498898
vt 0.51198 0.0773502
vn 0 0.8782243 -0.4782491
v 0 0.00234177 -0.773753
vt 1.06646 0.0689395
vn -2.283469E-06 -0.3556909 -0.9346036
v 0 0.303484 -0.224043
vt -0.0425022 0.085761
vn 0 0.4928061 -0.8701392
v -0.071468 0.0796579 -0.499921
vn -0.9844244 -0.09167914 -0.1500121
v -0.0938396 0.181001 -0.226089
vn -0.9179582 -0.08391321 -0.3877001
v 0.132544 0.286489 -0.208901
vt 1.20363 0.415556
vn 0.7278073 0.1825621 -0.6610353
v 0.114481 0.08910631 -0.194081
vt 1.21091 0.211772
vn 0.6572591 -0.4635821 -0.594224
vt 1.10182 0.302934
v 0.23838 0.250631 0
vt 1.37591 0.501285
vn 0.8927721 0.139519 -0.42836
vt 1 0.429095
v 0.170075 0.474225 0
vt 1.36732 0.946072
vn 0.719702 0.623208 -0.306008
v 0.08503769 0.474225 -0.121173
vt 1.16365 0.90207
vn 0.342797 0.694926 -0.632114
vt 1 0.211772
v 0 0.0373616 0
vt 1 0.139478
vn 0 -0.9910781 -0.133282
v -0.08503759 0.474225 -0.121173
vt 0.83635 0.90207
vn -0.342797 0.694926 -0.632114
v -0.132544 0.286489 -0.208901
vt 0.796367 0.415556
vn -0.7278073 0.1825621 -0.6610353
vt 0.898184 0.302934
v 0 0.54648 0.0340798
vt 1 1.02391
vn 0 0.9990951 0.0425318
v -0.114481 0.08910631 -0.194081
vt 0.789086 0.211772
vn -0.6572587 -0.4635818 -0.5942247
v -0.170075 0.474225 0
vt 0.63268 0.946072
vn -0.719702 0.623208 -0.306008
v -0.23838 0.250631 0
vt 0.624086 0.501285
vn -0.8927718 0.139519 -0.4283609
v 0 0.250631 0.234301
vt 0 0.501285
vn 0 0.06203859 0.9980738
v 0.114481 0.08910631 0.179183
vt 0.248437 0.211772
vn 0.3588882 -0.5653173 0.7427084
v 0.11919 0.250631 0.211216
vt 0.238299 0.501285
vn 0.5364412 0.007506133 0.8439043
v -0.114481 0.08910631 0.179183
vt -0.248437 0.211772
vn -0.3588891 -0.565317 0.7427081
v 0.0850376 0.474225 0.139523
vt 0.16365 0.946072
vn 0.143989 0.6444021 0.7510081
v -0.11919 0.250631 0.211216
vt -0.238299 0.501285
vn -0.5364412 0.007506193 0.8439043
v -0.0850376 0.474225 0.139523
vt -0.16365 0.946072
vn -0.143989 0.6444021 0.7510081
vt 0.561201 0.501285
vn 0.8644042 -0.121935 0.4877881
vt 0 0.139478
vn 0 -0.9607419 0.277444
vt 0 1.02391
vt 0.215711 0.946072
vt -0.561201 0.501285
vn -0.8644042 -0.121935 0.4877881
vt -0.215711 0.946072
v -0.262329 0.584561 0.0467235
vn -0.0190142 0.9243551 -0.3810591
v -0.216476 0.408501 0.103135
vn -0.561541 0.2701 0.7821239
v -0.16903 0.446922 0.0159449
vn 0.102477 0.8370632 -0.5374231
v -0.294514 0.558498 0.10587
vn -0.5612088 0.4075258 0.7203938
v -0.281514 0.11414 0.000978934
vt 0.392685 0.830202
vn -0.9948449 -0.1014 -0.00132619
vt 0.56743 1.06108
vn -0.953487 0.301244 -0.0106995
vt 0.56743 0.775928
vn -0.3744201 -0.6857103 -0.6241882
vn -0.354441 -0.668505 0.653814
v -0.190878 1.490116E-08 0
vt 0.39397 0.55036
vn -0.336067 -0.941826 -0.004760181
vt 0.56743 0.634899
vn 0.192088 -0.9813651 -0.00498678
v 0.281514 0.11414 0.000978934
vn 0.9948447 -0.101401 -0.00132593
vn 0.953487 0.301244 -0.0106989
vn 0.3544412 -0.6685054 0.6538134
vn 0.3744201 -0.6857103 -0.6241882
v 0.190878 1.490116E-08 0
vn 0.336067 -0.941826 -0.004759991
vn -0.192088 -0.9813651 -0.00498672
v -0.29266 0.376462 0.224082
vt 0.317281 0.571766
vn -0.8107135 0.1128549 0.5744627
vt 0.338772 1.04318
vn -0.103471 0.7672258 0.6329758
vt 0.338772 1.05337
vn -0.7683967 0.6224357 -0.1487959
vt 0.28962 1.02385
vn -0.2436268 -0.4250007 0.8717915
vt 0.28962 1.01472
vn -0.9736669 -0.186488 -0.13113
v 0.29266 0.376462 0.224082
vn 0.8107132 0.112855 0.5744631
vn 0.7683967 0.6224357 -0.1487959
vn 0.103471 0.7672258 0.6329758
vn 0.9736669 -0.186488 -0.13113
vn 0.2436259 -0.4250008 0.8717917
o merged_1_0_node
g polygon_0
usemtl mat_body_mat_id
f 82/64/105 83/65/106 84/66/107
f 82/64/105 85/67/108 83/65/106
f 82/64/105 84/66/107 83/65/106
f 82/64/105 83/65/106 85/67/108
f 86/68/109 87/69/110 88/70/111
f 86/68/109 89/71/112 87/69/110
f 86/68/109 88/70/111 90/72/113
f 86/68/109 91/73/114 89/71/112
f 86/68/109 90/72/113 92/74/115
f 86/68/109 92/74/115 91/73/114
f 87/69/110 89/71/112 93/75/116
f 88/70/111 94/68/117 90/72/113
f 88/70/111 95/69/118 94/68/117
f 94/68/117 92/74/115 90/72/113
f 94/68/117 91/73/114 92/74/115
f 94/68/117 95/69/118 89/71/112
f 94/68/117 89/71/112 91/73/114
f 89/71/112 95/69/118 93/75/116
f 96/76/119 97/77/120 87/78/110
f 96/76/119 98/79/121 97/77/120
f 96/76/119 87/78/110 93/80/116
f 96/76/119 99/81/122 98/79/121
f 96/76/119 93/80/116 100/82/123
f 96/76/119 100/82/123 99/81/122
f 97/77/120 88/83/111 87/78/110
f 97/77/120 101/84/124 88/83/111
f 93/80/116 102/85/125 100/82/123
f 93/80/116 103/86/126 102/85/125
f 93/80/116 95/87/118 103/86/126
f 99/81/122 100/82/123 104/88/127
f 100/82/123 102/85/125 104/88/127
f 101/84/124 105/89/128 88/83/111
f 95/87/118 105/89/128 103/86/126
f 95/87/118 88/83/111 105/89/128
f 102/85/125 106/90/129 104/88/127
f 102/85/125 103/86/126 106/90/129
f 105/89/128 107/91/130 103/86/126
f 103/86/126 107/91/130 106/90/129
f 108/92/131 109/93/132 110/94/133
f 108/92/131 111/95/134 109/93/132
f 108/92/131 110/94/133 112/96/135
f 108/92/131 113/97/136 111/95/134
f 108/92/131 112/96/135 114/98/137
f 108/92/131 114/98/137 113/97/136
f 109/93/132 98/99/138 110/94/133
f 109/93/132 111/95/134 101/100/139
f 112/96/135 104/101/127 114/98/137
f 112/96/135 99/102/122 104/101/127
f 113/97/136 107/103/140 111/95/134
f 114/98/137 104/101/127 106/104/129
f 115/65/141 116/64/142 117/66/143
f 115/65/141 118/67/144 116/64/142
f 115/65/141 117/66/143 116/64/142
f 115/65/141 116/64/142 118/67/144
f 119/105/145 107/106/146 105/107/147
f 119/105/145 111/107/148 107/106/146
f 119/105/145 105/107/147 120/108/149
f 119/105/145 120/108/149 111/107/148
f 105/107/147 101/109/150 120/108/149
f 120/108/149 101/109/150 111/107/148
f 121/105/151 98/106/152 109/107/153
f 121/105/151 97/107/154 98/106/152
f 121/105/151 109/107/153 122/108/155
f 121/105/151 122/108/155 97/107/154
f 109/107/153 101/109/156 122/108/155
f 122/108/155 101/109/156 97/107/154
f 123/110/157 114/111/158 106/112/159
f 123/110/157 113/113/160 114/111/158
f 123/110/157 106/112/159 107/114/161
f 123/110/157 107/114/161 113/113/160
f 124/110/162 99/112/163 112/111/164
f 124/110/162 98/114/165 99/112/163
f 124/110/162 112/111/164 110/113/166
f 124/110/162 110/113/166 98/114/165
vt 1.03012 0.982654
vt 0.499664 0.755197
vt -0.0426989 0.982654
o merged_2_0_node
g polygon_0
usemtl TEX_ANIM_EYE_mat_id
f 22/115/54 40/116/47 42/117/49
f 11/115/13 5/117/5 3/116/3
