mtllib Deoxys_Speed.mtl
v 0.209672 0.7114661 0.0972357
vt 0.93172 0.951913
vn 0.1738271 0.9846765 -0.01401571
v 0.204276 0.623217 -0.029014
vn 0.8722207 -0.02085489 -0.4886678
v 0.138417 0.7622241 -0.0411808
vn 0.8019276 0.5045878 -0.3198489
v 0.241799 0.809388 0.0765247
vn 0.994157 0.0881596 -0.0622886
v 0.12625 0.819331 0.0972358
vn 0.5640599 0.8257339 0
v 0.211809 0.6267791 0.217544
vn 0.9518211 -0.009255811 0.306514
v 0.138417 0.7622241 0.235652
vn 0.6338613 0.6705643 0.3854392
v 0.1709 0.690212 0.254936
vn 0.7522563 0.2541331 0.6078873
v 0.0855461 0.623217 -0.126727
vn 0.4996251 -0.3011011 -0.8122271
v 0.138417 0.500533 -0.0411808
vn 0.606933 -0.543355 -0.579998
v 0 0.8545541 0.182782
vn 0 0.969638 0.244545
v 0 0.8545541 0.0116896
vn 0 0.9991195 -0.04195538
v 0.170873 0.5596161 0.254963
vn 0.742417 -0.253179 0.620256
v 0 0.505964 -0.106007
vn 0 -0.5058989 -0.8625928
v -0.12625 0.819331 0.0972358
vn -0.5640599 0.8257339 0
v -0.138417 0.7622241 -0.0411808
vn -0.8019276 0.5045878 -0.3198489
v -0.0855461 0.623217 -0.126727
vn -0.4996251 -0.3011011 -0.8122271
v -0.138417 0.500533 -0.0411808
vn -0.606933 -0.543355 -0.579998
v -0.138417 0.7622241 0.235652
vn -0.6338613 0.6705643 0.3854392
v -0.204276 0.623217 -0.029014
vn -0.8722207 -0.02085489 -0.4886678
v -0.209672 0.7114661 0.0972357
vn -0.1738269 0.9846765 -0.01401569
v -0.1709 0.690212 0.254936
vn -0.7522561 0.254134 0.6078871
v -0.241799 0.809388 0.0765247
vn -0.994157 0.0881596 -0.0622886
v -0.211809 0.6267791 0.217544
vn -0.9518211 -0.009255821 0.306514
v -0.170873 0.5596161 0.254963
vn -0.742417 -0.253179 0.620256
v 0.0510512 0.782199 0.282511
vt 0.31888 0.867521
vn 0.193966 0.629648 0.752277
vt 0.864587 0.805505
vt 0 1.09215
v 0.1181 0.690212 0.290936
vt 0.737685 0.581936
vn 0.485453 0.115002 0.866666
v -0.0510512 0.782199 0.282511
vt -0.31888 0.867521
vn -0.193966 0.629648 0.752277
v 0.0515453 0.690212 0.320803
vt 0.321966 0.581936
vn 0.146777 0.144134 0.9786122
v -0.0515453 0.690212 0.320803
vt -0.321966 0.581936
vn -0.146777 0.144134 0.9786122
vt 1.06749 0.581936
vt -0.864587 0.805505
v -0.0510128 0.5596161 0.32068
vt -0.31864 0.423658
vn -0.145586 -0.171329 0.9743978
v -0.1181 0.690212 0.290936
vt -0.737685 0.581936
vn -0.485453 0.115002 0.866666
v 0.0510128 0.5596161 0.32068
vt 0.31864 0.423658
vn 0.145586 -0.171329 0.9743978
v 0.0508601 0.470727 0.275634
vt 0.317686 0.147695
vn 0.1508189 -0.6828287 0.7148417
v -0.0508601 0.470727 0.275634
vt -0.317686 0.147695
vn -0.1508189 -0.6828287 0.7148417
v -0.118131 0.5596161 0.290928
vt -0.737879 0.423658
vn -0.4780528 -0.1243259 0.8694876
vt -1.06749 0.581936
v 0.118131 0.5596161 0.290928
vt 0.737879 0.423658
vn 0.4780532 -0.124326 0.8694873
v -0.135495 0.483297 0.235449
vt -0.84634 0.18672
vn -0.5669022 -0.7344063 0.3731881
vt -1.06732 0.423658
v 0.135495 0.483297 0.235449
vt 0.84634 0.18672
vn 0.5669022 -0.7344063 0.3731881
v 0 0.424526 0.182782
vt 0 0.00425932
vn 0 -0.9851298 0.171812
vt 1.06732 0.423658
v 0.0631248 0.435455 -0.0058755
vn 0.1897421 -0.9308144 -0.3123821
v 0.12625 0.443426 0.0972357
vn 0.4836618 -0.8752127 0.008607977
v -0.0631248 0.435455 -0.0058755
vn -0.1897421 -0.9308144 -0.3123821
v -0.12625 0.443426 0.0972357
vn -0.4836618 -0.8752127 0.008607987
v 0.223963 0.5410891 0.0972357
vn 0.9373077 -0.3460169 -0.04155269
v -0.223963 0.5410891 0.0972357
vn -0.9373077 -0.3460169 -0.04155269
vt 0.96899 0.419517
vt 0.976015 0.0768531
vt 0.925376 0.13383
vt 1.03897 0.139138
vt 0.837055 0.406433
vt 1.18871 0.419517
vt 1.04666 0.139138
vt 1.09674 0.419517
vt 0.93264 0.0454834
vt 0.876176 0.417837
vt 0.8214 0.282019
vt 0.949274 0.406868
o merged_0_0_node
g polygon_0
usemtl face_speed_mat_id
f 1/1/1 2/1/2 3/1/3
f 1/1/1 4/1/4 2/1/2
f 1/1/1 3/1/3 5/1/5
f 1/1/1 6/1/6 4/1/4
f 1/1/1 5/1/5 7/1/7
f 1/1/1 8/1/8 6/1/6
f 1/1/1 7/1/7 8/1/8
f 2/1/2 9/1/9 3/1/3
f 2/1/2 10/1/10 9/1/9
f 5/1/5 11/1/11 7/1/7
f 5/1/5 3/1/3 12/1/12
f 5/1/5 12/1/12 11/1/11
f 6/1/6 8/1/8 13/1/13
f 10/1/10 14/1/14 9/1/9
f 12/1/12 15/1/15 11/1/11
f 12/1/12 16/1/16 15/1/15
f 14/1/14 17/1/17 9/1/9
f 14/1/14 18/1/18 17/1/17
f 11/1/11 15/1/15 19/1/19
f 16/1/16 17/1/17 20/1/20
f 16/1/16 21/1/21 15/1/15
f 16/1/16 20/1/20 21/1/21
f 15/1/15 21/1/21 19/1/19
f 17/1/17 18/1/18 20/1/20
f 21/1/21 22/1/22 19/1/19
f 21/1/21 20/1/20 23/1/23
f 21/1/21 24/1/24 22/1/22
f 21/1/21 23/1/23 24/1/24
f 22/1/22 24/1/24 25/1/25
f 26/2/26 7/3/7 11/4/11
f 26/2/26 27/5/27 7/3/7
f 26/2/26 11/4/11 28/6/28
f 26/2/26 29/7/29 27/5/27
f 26/2/26 28/6/28 30/8/30
f 26/2/26 30/8/30 29/7/29
f 7/3/7 27/5/27 8/9/8
f 11/4/11 19/10/19 28/6/28
f 30/8/30 31/11/31 29/7/29
f 30/8/30 28/6/28 32/12/32
f 28/6/28 19/10/19 32/12/32
f 31/11/31 33/13/33 29/7/29
f 31/11/31 34/14/34 33/13/33
f 31/11/31 35/15/35 34/14/34
f 31/11/31 36/16/36 35/15/35
f 19/10/19 22/17/22 32/12/32
f 33/13/33 34/14/34 37/18/37
f 36/16/36 38/19/38 35/15/35
f 36/16/36 25/20/25 38/19/38
f 34/14/34 39/21/39 37/18/37
f 34/14/34 35/15/35 40/22/40
f 34/14/34 40/22/40 39/21/39
f 40/22/40 35/15/35 38/19/38
f 37/18/37 39/21/39 13/23/13
f 40/1/40 41/1/41 42/1/42
f 40/1/40 43/1/43 41/1/41
f 40/1/40 42/1/42 39/1/39
f 40/1/40 44/1/44 43/1/43
f 40/1/40 38/1/38 44/1/44
f 42/1/42 45/1/45 39/1/39
f 38/1/38 46/1/46 44/1/44
f 18/24/18 44/25/44 46/26/46
f 18/24/18 43/27/43 44/25/44
f 18/24/18 46/26/46 20/28/20
f 10/24/10 2/28/2 45/26/45
f 10/24/10 45/26/45 42/25/42
f 10/24/10 42/25/42 41/27/41
f 14/29/14 43/30/43 18/31/18
f 14/29/14 41/30/41 43/30/43
f 14/29/14 10/31/10 41/30/41
f 45/32/45 13/33/13 39/34/39
f 45/32/45 6/35/6 13/33/13
f 46/32/46 25/33/25 24/35/24
f 46/32/46 38/34/38 25/33/25
v -0.0800246 0.388087 0.175207
vt -0.246035 0.828055
vn -0.2625979 0.5292408 0.8068126
v 0 0.44129 0.0852233
vt 0 0.991627
vn 0 0.9603991 0.278628
v -0.131337 0.419171 0.0757288
vt -0.403794 0.923621
vn -0.7239267 0.6873487 0.05900807
v 0.0800246 0.388087 0.175207
vt 0.246035 0.828055
vn 0.2628689 0.5293438 0.8066567
v 0 0.346054 0.152815
vt 0 0.698824
vn 0.0001819329 -0.4679148 0.8837736
v -0.037264 0.332568 0.145793
vt -0.114568 0.657363
v -0.0527431 0.299814 0.128365
vt -0.162158 0.556659
v -0.0909993 0.253573 0.103824
vt -0.279776 0.414492
vn 0.03488251 -0.4056081 0.9133813
v 0.131337 0.419171 0.0757289
vt 0.403794 0.923621
vn 0.7240646 0.6871927 0.05913187
v 0 0.449134 -0.01565
vt 0.273788 0.985524
vn 0 0.955493 -0.295014
v 0.0372639 0.332568 0.145793
vt 0.114568 0.657363
v -0.0381528 0.267011 0.11095
vt -0.1173 0.455809
v 0 0.253596 0.103885
vt 0 0.414562
vn 0 -0.1253739 0.9921095
v -0.073321 0.1666181 0.09389661
vt -0.225424 0.147151
vn -0.2811065 -0.4873971 0.8266942
v 0.052743 0.299814 0.128365
vt 0.162158 0.556659
v 0.0733209 0.1666181 0.09389661
vt 0.225424 0.147151
vn 0.2811065 -0.4873971 0.8266942
v 0 0.1238769 -9.551688E-10
vt 0 0.0157439
vn 0 -0.9101435 0.4142932
v 0.0909992 0.253573 0.103824
vt 0.279776 0.414492
vn -0.03475881 -0.4055511 0.9134113
v 0.0381528 0.267011 0.11095
vt 0.1173 0.455809
v 0.0928821 0.241167 -0.120476
vt 1.2736 0.375307
vn 0.3757968 0.2672709 -0.8873236
v -0.0664772 0.1631361 -0.1370467
vt 0.804183 0.145456
vn -0.05076051 -0.2070259 -0.9770177
v -0.092882 0.241167 -0.120476
vt 0.726404 0.375307
vn -0.3757959 0.267271 -0.8873239
v 0.0664773 0.1631361 -0.1370467
vt 1.19582 0.145456
vn 0.05076091 -0.2070259 -0.9770178
v -0.090322 0.402115 -0.0592041
vt 0.733945 0.8494
vn -0.3700838 0.4537638 -0.8106396
v 0.0903221 0.402115 -0.0592041
vt 1.26606 0.8494
vn 0.3700841 0.4537641 -0.8106392
vt 1 0.0298145
vn 0 -0.997608 -0.06912553
vt 1 0.987902
vt 0.764089 0.89964
vt 1.23591 0.89964
v -0.142458 0.207478 0
vt 0.798475 0.424943
vn -0.9838337 0.05166018 -0.1714719
v -0.137083 0.306507 0.0204049
vn -0.9216841 0.0625155 -0.382871
v 0.137083 0.306507 0.020405
vn 0.9218079 0.06259489 -0.38256
v 0.142458 0.207478 0
vn 0.9838337 0.05165998 -0.1714719
v -0.24802 0.208863 0.172325
vt 0.559195 0.483552
vn -0.7334741 -0.3638311 0.5741451
vt 0.554009 0.986152
vt 0.559625 0.986152
vn 0.00537156 -0.8429909 -0.537901
v 0.247822 0.20889 0.172297
vt 0.512624 0.483771
vn 0.7334969 -0.363833 0.5741149
vt 0.517754 0.985973
vt 0.512138 0.985973
vn -0.005334969 -0.8430008 -0.5378859
v 0.0300888 0.280691 0.101252
vt 0.493448 0.455283
vn -0.567275 0.2197 0.793682
vt 0.368638 0.520388
vn 0 0.4388341 0.8985682
vt 0.508358 0.520388
v 0 0.270448 0.0958313
vt 0.383548 0.455283
vn -0.8049971 -0.285381 0.5201321
v 0.0415128 0.306816 0.115084
vn -0.5693691 -0.7814961 0.255113
v 0.0295622 0.332946 0.128906
vn 0 -0.9900845 0.1404731
v 0 0.343188 0.134327
v -0.0295622 0.332946 0.128906
vn 0.5693681 -0.7814962 0.2551151
v -0.0415129 0.306816 0.115084
vn 0.8049967 -0.2853808 0.5201328
v -0.0300889 0.280691 0.101252
vn 0.56152 0.224888 0.796317
o merged_1_0_node
g polygon_0
usemtl speed_body_mat_id
f 47/36/47 48/37/48 49/38/49
f 47/36/47 50/39/50 48/37/48
f 47/36/47 51/40/51 50/39/50
f 47/36/47 52/41/51 51/40/51
f 47/36/47 53/42/51 52/41/51
f 47/36/47 54/43/52 53/42/51
f 48/37/48 50/39/50 55/44/53
f 48/37/48 55/44/53 56/45/54
f 48/37/48 56/45/54 49/44/49
f 51/40/51 57/46/51 50/39/50
f 54/43/52 58/47/51 53/42/51
f 54/43/52 59/48/55 58/47/51
f 54/43/52 60/49/56 59/48/55
f 57/46/51 61/50/51 50/39/50
f 60/49/56 62/51/57 59/48/55
f 60/49/56 63/52/58 62/51/57
f 61/50/51 64/53/59 50/39/50
f 61/50/51 65/54/51 64/53/59
f 64/53/59 65/54/51 59/48/55
f 64/53/59 59/48/55 62/51/57
f 66/55/60 67/56/61 68/57/62
f 66/55/60 69/58/63 67/56/61
f 66/55/60 68/57/62 70/59/64
f 66/55/60 70/59/64 71/60/65
f 69/58/63 63/61/66 67/56/61
f 70/59/64 56/62/54 71/60/65
f 70/59/64 49/63/49 56/62/54
f 71/60/65 56/62/54 55/64/53
f 72/65/67 68/65/62 67/65/61
f 72/65/67 73/65/68 68/65/62
f 72/65/67 54/65/52 73/65/68
f 72/65/67 60/65/56 54/65/52
f 68/65/62 73/65/68 70/65/64
f 73/65/68 49/65/49 70/65/64
f 74/65/69 66/65/60 71/65/65
f 74/65/69 75/65/70 66/65/60
f 74/65/69 71/65/65 55/65/53
f 74/65/69 64/65/59 75/65/70
f 66/65/60 75/65/70 69/65/63
f 64/65/59 62/65/57 75/65/70
f 76/66/71 47/67/47 49/67/49
f 76/66/71 54/68/52 47/67/47
f 76/66/71 49/67/49 73/68/68
f 76/66/71 73/68/68 54/68/72
f 77/69/73 55/70/53 50/70/50
f 77/69/73 74/71/69 55/70/53
f 77/69/73 50/70/50 64/71/59
f 77/69/73 64/71/74 74/71/69
f 78/72/75 59/73/76 65/74/75
f 78/72/75 79/75/76 59/73/76
f 61/74/77 78/75/75 65/73/75
f 61/74/77 80/72/77 78/75/75
f 57/74/78 80/75/77 61/73/77
f 57/74/78 81/72/78 80/75/77
f 51/74/79 81/75/78 57/73/78
f 51/74/79 82/72/79 81/75/78
f 83/72/80 51/73/79 52/74/80
f 83/72/80 82/75/79 51/73/79
f 84/72/81 52/73/80 53/74/81
f 84/72/81 83/75/80 52/73/80
f 59/74/76 85/75/82 58/73/82
f 59/74/76 79/72/76 85/75/82
f 53/73/81 85/72/82 84/75/81
f 53/73/81 58/74/82 85/72/82
v -0.0741994 0.143279 0.1174736
vt 0.234241 0.939984
vn -0.1181703 -0.4928619 0.8620458
v -0.159885 0.1988063 0.01669669
vt 0.537156 1.08886
vn -0.8710421 -0.4048968 0.2781082
v -0.142547 0.150039 -3.927429E-11
vt 0.435576 0.849467
vn -0.9098542 -0.4147999 -0.01030806
v -0.0908661 -4.02048E-06 -2.645963E-08
vt 0.127771 0.109832
vn -0.1458682 -0.9868506 -0.06963082
vt 0.0027194 0.970988
vt 0.256798 1.07177
vn 0.2970426 0.6853405 0.6648865
vn -0.09637647 0.9030178 0.418653
v 0.0741994 0.143279 0.1174736
vn 0.1181703 -0.4928619 0.8620458
vn -0.2970424 0.6853409 0.6648861
v 0.0908661 -4.02048E-06 -2.645963E-08
vn 0.1458682 -0.9868506 -0.06963072
vt 0.496978 1.1699
vn 0.2771709 0.9509227 0.137559
v 0.159885 0.1988063 0.01669669
vn 0.09637668 0.9030178 0.418653
vn -0.2771711 0.9509225 0.1375591
v 0.142547 0.150039 -3.927429E-11
vn 0.9098542 -0.4147999 -0.01030766
vn 0.8710421 -0.4048968 0.2781082
v -0.0741993 0.145657 -0.1538088
vt 0.766965 0.954275
vn -0.2791617 -0.7229624 -0.6319764
vt 0.568125 0.850468
v -0.179934 0.2262734 -0.07325079
vt 0.380076 1.2055
vn -0.74436 -0.6150197 -0.2601517
vt 0.87602 0.110616
vt 1.00111 0.972024
vt 0.770132 1.06625
vt 0.466515 1.08993
v 0.0741994 0.145657 -0.1538088
vn 0.2791617 -0.7229624 -0.6319764
v 0.179934 0.2262734 -0.07325079
vn 0.7443602 -0.6150198 -0.2601508
vn 0.4552919 0.8898476 -0.02967169
vt 0.506705 1.171
vn 0.2561536 0.875126 -0.4105359
vn -0.0164985 0.6958437 -0.7180037
vn -0.4552919 0.8898476 -0.02967179
vn -0.2561536 0.875126 -0.4105359
vn 0.01649962 0.6958432 -0.7180042
o merged_2_0_node
g polygon_0
usemtl speed_leg_mat_id
f 86/76/83 87/77/84 88/78/85
f 86/76/83 88/78/85 89/79/86
f 86/76/83 89/79/86 63/80/66
f 86/76/83 63/80/66 60/81/87
f 86/76/83 60/81/87 87/77/88
f 63/80/66 90/76/89 62/81/90
f 63/80/66 91/79/91 90/76/89
f 60/81/87 72/82/92 87/77/88
f 62/81/90 90/76/89 92/77/93
f 62/81/90 92/77/93 75/82/94
f 91/79/91 93/78/95 90/76/89
f 93/78/95 92/77/96 90/76/89
f 94/83/97 88/84/85 95/85/98
f 94/83/97 89/86/86 88/84/85
f 94/83/97 63/87/66 89/86/86
f 94/83/97 67/88/61 63/87/66
f 95/85/98 88/84/85 87/89/84
f 63/87/66 69/88/63 96/83/99
f 63/87/66 96/83/99 91/86/91
f 96/83/99 93/84/95 91/86/91
f 96/83/99 97/85/100 93/84/95
f 97/85/100 92/89/96 93/84/95
f 95/85/101 72/90/92 67/88/102
f 95/85/101 87/89/88 72/90/92
f 95/85/101 67/88/102 94/83/103
f 97/85/104 75/90/94 92/89/93
f 97/85/104 69/88/105 75/90/94
f 97/85/104 96/83/106 69/88/105
vt 0.597317 0.0944922
v 0 0.8674201 -0.313635
vt 0.0108244 1.81858
vn 0 0.5200009 -0.8541658
vt 0.0108244 0.180989
vt 0.997284 1.21082
vt 0.426131 0.779582
vt 0.997284 -0.0615921
vt 0.400965 0.848616
vt 0.901766 0.342249
o merged_3_0_node
g polygon_0
usemtl head_speed_mat_id
f 12/91/12 98/92/107 16/93/16
f 45/94/45 2/95/2 4/96/4
f 4/96/4 6/97/6 45/94/45
f 9/98/9 17/98/17 98/92/107
f 98/92/107 17/98/17 16/93/16
f 3/93/3 98/92/107 12/91/12
f 9/98/9 98/92/107 3/93/3
f 46/94/46 24/97/24 23/96/23
f 23/96/23 20/95/20 46/94/46
vt 0.5 0.00495815
vn 0 -0.7147189 0.6994119
vt 0.862404 0.144371
vn 0.210395 -0.6342962 0.7439102
v 0 0.301158 0.127213
vt 0.5 0.500319
vn 0 -0.4661139 0.8847247
vt 1 0.5
vn 0.3065061 -0.4448231 0.8415382
vt 0.856061 0.85563
vn 0.2179021 -0.2528531 0.9426473
vt 0.5 0.995042
vn 0 -0.166877 0.9859778
vt 0 0.5
vn -0.3065061 -0.4448231 0.8415382
vt 0.143939 0.85563
vn -0.2179021 -0.2528531 0.9426473
vt 0.137596 0.14437
vn -0.210395 -0.6342962 0.7439102
o merged_4_0_node
g polygon_0
usemtl mune_mat_mat_id
f 79/99/108 78/100/109 99/101/110
f 99/101/110 78/100/109 80/102/111
f 80/102/111 81/103/112 99/101/110
f 99/101/110 81/103/112 82/104/113
f 84/105/114 99/101/110 83/106/115
f 83/106/115 99/101/110 82/104/113
f 79/99/108 99/101/110 85/107/116
f 85/107/116 99/101/110 84/105/114
vt 0.587691 0.753861
vt 0.985793 0.753861
vt 0.587457 0.996139
vt 0.985996 0.996139
vt 0.0810769 0.753861
vt 0.085096 0.996139
o merged_5_0_node
g polygon_0
usemtl TEX_ANIM_EYE_mat_id
f 37/108/37 13/109/13 27/110/27
f 27/110/27 13/109/13 8/111/8
f 33/112/33 37/108/37 29/113/29
f 29/113/29 37/108/37 27/110/27
f 36/108/36 32/110/32 25/109/25
f 25/109/25 32/110/32 22/111/22
f 32/110/32 36/108/36 30/113/30
f 30/113/30 36/108/36 31/112/31
