mtllib Gulpin_M.mtl
v -0.0361409 0.117918 0.219261
vt 0.180357 0.0579741
vn -0.2818549 -0.3136429 0.9067447
v -0.0922561 0.0923762 0.191154
vn -0.4281362 -0.3072421 0.8498834
v -0.0370928 0.0668344 0.198399
vn -0.146452 -0.6985961 0.700368
v -0.0922679 0.14927 0.199967
vn -0.4551511 0.03001481 0.8899082
v 0.0370928 0.0668344 0.198399
vn 0.146806 -0.699283 0.699608
v -0.0243234 0.14927 0.222723
vn -0.4834301 0.03054 0.8748501
v 0.0361409 0.117918 0.219261
vn 0.283065 -0.34327 0.8955669
v -0.0164644 0.139617 0.254141
vn -0.2275679 0.5692469 0.7900448
v 0.0175173 0.1095 0.246227
vn 0.2394879 -0.8295838 0.5044169
v -0.0175173 0.1095 0.246227
vn -0.286384 -0.6398649 0.713132
v -0.148371 0.0668344 0.148371
vn -0.4307809 -0.7724928 0.4665649
v -0.160212 0.14927 0.160212
vn -0.8002436 0.2793969 0.5306107
v 0.0922561 0.0923762 0.191154
vn 0.428136 -0.307243 0.8498831
v 0 0.0097874 0.121797
vn 0 -0.939334 0.343004
v 0.148371 0.0668344 0.148371
vn 0.4307801 -0.7724931 0.4665651
v 0.0940019 0.0097874 0.0940019
vn 0.2910639 -0.9160848 0.2758089
v 0.0164644 0.139617 0.254141
vn 0.2275679 0.5692469 0.7900448
v 0.0243234 0.14927 0.222723
vn 0.4834301 0.0305399 0.8748501
v 0.0161325 0.16111 0.253127
vn 0.2586219 -0.5288069 0.8083798
v -0.0161325 0.16111 0.253127
vn -0.2586219 -0.5288069 0.8083798
v -0.0354695 0.186915 0.218593
vn -0.305534 0.340064 0.8893849
v -0.203366 0.0985915 0.177258
vn -0.8371175 -0.1300929 0.5313287
v -0.226575 0.14927 0
vn -0.9936696 0.103351 -0.04403848
v -0.207159 0.240766 0
vn -0.9448879 0.327394 0
v -0.146484 0.240766 0.146484
vn -0.8069326 0.3351459 0.4863508
v -0.0940019 0.0097874 0.0940019
vn -0.2910639 -0.9160848 0.2758089
v 0.160213 0.14927 0.160213
vn 0.8002431 0.2793971 0.5306111
v 0.0922679 0.14927 0.199967
vn 0.4551511 0.0300147 0.8899082
v 0 -5.22256E-05 0
vn 0 -0.9999982 0.00189012
v 0.209829 0.0668344 0
vn 0.8595858 -0.5034729 -0.08733498
v 0.132939 0.0097874 0
vn 0.355805 -0.934558 0.00206445
v -0.016507 0.194236 0.246565
vn -0.2536269 0.7795098 0.5727459
v 0.0354695 0.186915 0.218593
vn 0.304388 0.313365 0.8995279
v 0.016507 0.194236 0.246565
vn 0.29888 0.5682959 0.7666228
v -0.209829 0.0668344 0
vn -0.8595858 -0.5034729 -0.08733488
v -0.161349 0.323201 0
vn -0.820646 0.571437 0
v -0.114091 0.323201 0.114091
vn -0.6145398 0.6245898 0.4819008
v -0.0366209 0.240766 0.196821
vn -0.203151 0.473706 0.8569319
v 0.203366 0.0985915 0.177258
vn 0.8371175 -0.1300929 0.5313287
v 0.226575 0.14927 0
vn 0.9936696 0.103351 -0.04403858
v 0.146484 0.240766 0.146484
vn 0.8069326 0.3351459 0.4863508
v -0.132939 0.0097874 0
vn -0.3558041 -0.9345583 0.002064441
v -0.0892085 0.37339 0
vn -0.403053 0.9151759 0.00116999
v 0.0366209 0.240766 0.196821
vn 0.202578 0.4734571 0.8572051
v 0.207159 0.240766 0
vn 0.9448879 0.327394 0
v 0.114091 0.323201 0.114091
vn 0.6145398 0.6245898 0.4819008
v 0 0.37339 0.0835754
vn 0 0.9102851 0.413982
v 0 0.323201 0.151491
vn 0 0.6691502 0.7431272
v 0.161349 0.323201 0
vn 0.820646 0.571437 0
v 0 0.39375 0
vn 0 1 -0.000244997
v 0.0892085 0.37339 0
vn 0.403053 0.9151759 0.00116996
v 0 0.497125 -0.149296
vt 0.5 0.952211
vn 0 0.9496103 0.3134331
v -0.0647131 0.467652 -0.159034
vt 0.375 0.952211
vn -0.9999992 0.0004108001 -0.00124325
v -0.05 0.441423 -0.0796482
vn -0.9187588 -0.123863 0.3748869
v -0.05 0.498503 -0.252409
vn -0.9283195 0.1166361 -0.3530142
v 0 0.466781 -0.084962
vn 0 0.8696134 0.4937332
v 0 0.514429 -0.229173
vn 0 0.9887339 0.149684
v 0.05 0.441423 -0.0796482
vt 0.625 0.952211
vn 0.9187588 -0.123863 0.3748869
v 0.05 0.498503 -0.252409
vn 0.9283195 0.1166361 -0.3530142
v 0.0647131 0.467652 -0.159034
vn 0.9999992 0.0004107261 -0.00124308
v 0 0.438179 -0.168772
vn 0 -0.9494197 -0.3140099
v 0 0.423351 -0.0249519
vn 0 -0.3137211 0.9495152
v 0 0.518646 -0.313374
vn 0 0.3137211 -0.9495152
v 0 0.424222 -0.0990237
vn 0 -0.9925864 -0.1215411
v 0 0.471869 -0.243235
vn 0 -0.8832862 -0.4688341
v 0 0.14927 -0.226575
vt 1 0.287046
vn 0 0.08346913 -0.9965104
v 0.160212 0.14927 -0.160212
vt 1.89932 0.287046
vn 0.7023711 0.08113331 -0.707172
v 0.148371 0.0668344 -0.148371
vt 1.83285 0.0239307
vn 0.6673229 -0.4045229 -0.625333
v 0.146484 0.240766 -0.146484
vt 1.82225 0.579081
vn 0.6681367 0.3273939 -0.6681367
v 0 0.0668344 -0.209829
vt 1 0.0239307
vn 0 0.0228595 -0.9997387
v 0 0.240766 -0.207159
vt 1 0.579081
vn 0 0.327394 -0.9448879
v -0.148371 0.0668344 -0.148371
vt 0.167149 0.0239307
vn -0.6673228 -0.4045219 -0.6253338
v -0.160212 0.14927 -0.160212
vt 0.100681 0.287046
vn -0.7023711 0.08113341 -0.707172
vt 2.17783 0.0239307
vt 2.16284 0.579081
vt 2.27183 0.287046
v -0.0940019 0.0097874 -0.136189
vt 0.47234 0.0239307
vn -0.28482 -0.9216921 -0.263365
v 0.0940019 0.0097874 -0.136189
vt 1.52766 0.0239307
vn 0.28482 -0.9216921 -0.263365
v 0 0.0097874 -0.259452
vn 0 -0.8778093 -0.4790102
v -0.146484 0.240766 -0.146484
vt 0.177745 0.579081
vn -0.6681367 0.3273939 -0.6681367
v 0.114091 0.323201 -0.114091
vt 1.64043 0.842196
vn 0.5689679 0.59376 -0.5689679
v 0 0.323201 -0.161349
vt 1 0.842196
vn 0 0.571437 -0.820646
vt 1.9057 0.842196
vt -0.177829 0.0239307
vt 1.74622 0.0239307
v -0.114091 0.323201 -0.114091
vt 0.359573 0.842196
vn -0.5689679 0.59376 -0.5689679
vt -0.271829 0.287046
vt -0.162843 0.579081
vt 1.50075 0.842196
v 0 0.37339 -0.0892085
vn 0 0.914411 -0.404787
vt 0.253776 0.0239307
vt 0.0942996 0.842196
vt 0.499247 0.842196
o merged_0_0_node
g polygon_0
usemtl lambert3_mat_id
f 1/1/1 2/1/2 3/1/3
f 1/1/1 4/1/4 2/1/2
f 1/1/1 3/1/3 5/1/5
f 1/1/1 6/1/6 4/1/4
f 1/1/1 5/1/5 7/1/7
f 1/1/1 8/1/8 6/1/6
f 1/1/1 7/1/7 9/1/9
f 1/1/1 10/1/10 8/1/8
f 1/1/1 9/1/9 10/1/10
f 2/1/2 11/1/11 3/1/3
f 2/1/2 4/1/4 12/1/12
f 2/1/2 12/1/12 11/1/11
f 5/1/5 13/1/13 7/1/7
f 5/1/5 3/1/3 14/1/14
f 5/1/5 15/1/15 13/1/13
f 5/1/5 14/1/14 16/1/16
f 5/1/5 16/1/16 15/1/15
f 6/1/6 8/1/8 17/1/17
f 6/1/6 17/1/17 18/1/18
f 6/1/6 18/1/18 19/1/19
f 6/1/6 19/1/19 20/1/20
f 6/1/6 20/1/20 21/1/21
f 17/1/17 10/1/10 9/1/9
f 17/1/17 9/1/9 7/1/7
f 17/1/17 8/1/8 10/1/10
f 17/1/17 7/1/7 18/1/18
f 12/1/12 22/1/22 11/1/11
f 12/1/12 23/1/23 22/1/22
f 12/1/12 24/1/24 23/1/23
f 12/1/12 25/1/25 24/1/24
f 3/1/3 26/1/26 14/1/14
f 3/1/3 11/1/11 26/1/26
f 13/1/13 15/1/15 27/1/27
f 13/1/13 28/1/28 7/1/7
f 13/1/13 27/1/27 28/1/28
f 28/1/28 18/1/18 7/1/7
f 16/1/16 14/1/14 29/1/29
f 16/1/16 30/1/30 15/1/15
f 16/1/16 29/1/29 31/1/31
f 16/1/16 31/1/31 30/1/30
f 14/1/14 26/1/26 29/1/29
f 19/1/19 32/1/32 20/1/20
f 19/1/19 18/1/18 33/1/33
f 19/1/19 34/1/34 32/1/32
f 19/1/19 33/1/33 34/1/34
f 32/1/32 33/1/33 21/1/21
f 32/1/32 21/1/21 20/1/20
f 32/1/32 34/1/34 33/1/33
f 22/1/22 23/1/23 35/1/35
f 22/1/22 35/1/35 11/1/11
f 11/1/11 35/1/35 26/1/26
f 25/1/25 36/1/36 24/1/24
f 25/1/25 37/1/37 36/1/36
f 25/1/25 38/1/38 37/1/37
f 21/1/21 33/1/33 38/1/38
f 27/1/27 15/1/15 39/1/39
f 27/1/27 39/1/39 40/1/40
f 27/1/27 40/1/40 41/1/41
f 39/1/39 30/1/30 40/1/40
f 39/1/39 15/1/15 30/1/30
f 29/1/29 26/1/26 42/1/42
f 42/1/42 26/1/26 35/1/35
f 36/1/36 37/1/37 43/1/43
f 33/1/33 44/1/44 38/1/38
f 41/1/41 40/1/40 45/1/45
f 41/1/41 46/1/46 44/1/44
f 41/1/41 45/1/45 46/1/46
f 37/1/37 47/1/47 43/1/43
f 37/1/37 38/1/38 48/1/48
f 37/1/37 48/1/48 47/1/47
f 48/1/48 38/1/38 44/1/44
f 48/1/48 44/1/44 46/1/46
f 48/1/48 46/1/46 47/1/47
f 45/1/45 49/1/49 46/1/46
f 43/1/43 47/1/47 50/1/50
f 49/1/49 51/1/51 46/1/46
f 51/1/51 50/1/50 47/1/47
f 51/1/51 47/1/47 46/1/46
f 52/2/52 53/3/53 54/3/54
f 52/2/52 55/3/55 53/3/53
f 52/2/52 54/3/54 56/2/56
f 52/2/52 57/2/57 55/3/55
f 52/2/52 56/2/56 58/4/58
f 52/2/52 59/4/59 57/2/57
f 52/2/52 58/4/58 60/4/60
f 52/2/52 60/4/60 59/4/59
f 53/3/53 61/2/61 54/3/54
f 53/3/53 55/3/55 61/2/61
f 60/4/60 58/4/58 61/2/61
f 60/4/60 61/2/61 59/4/59
f 56/2/56 54/3/54 62/2/62
f 56/2/56 62/2/62 58/4/58
f 57/2/57 63/2/63 55/3/55
f 57/2/57 59/4/59 63/2/63
f 61/2/61 64/2/64 54/3/54
f 61/2/61 58/4/58 64/2/64
f 61/2/61 55/3/55 65/2/65
f 61/2/61 65/2/65 59/4/59
f 65/2/65 55/3/55 63/2/63
f 65/2/65 63/2/63 59/4/59
f 64/2/64 62/2/62 54/3/54
f 64/2/64 58/4/58 62/2/62
f 66/5/66 67/6/67 68/7/68
f 66/5/66 69/8/69 67/6/67
f 66/5/66 68/7/68 70/9/70
f 66/5/66 71/10/71 69/8/69
f 66/5/66 70/9/70 72/11/72
f 66/5/66 73/12/73 71/10/71
f 66/5/66 72/11/72 73/12/73
f 67/6/67 30/13/30 68/7/68
f 67/6/67 69/8/69 45/14/45
f 67/6/67 40/15/40 30/13/30
f 67/6/67 45/14/45 40/15/40
f 70/9/70 74/16/74 72/11/72
f 70/9/70 68/7/68 75/17/75
f 70/9/70 76/9/76 74/16/74
f 70/9/70 75/17/75 76/9/76
f 68/7/68 30/13/30 75/17/75
f 71/10/71 73/12/73 77/18/77
f 71/10/71 78/19/78 69/8/69
f 71/10/71 77/18/77 79/20/79
f 71/10/71 79/20/79 78/19/78
f 45/14/45 69/8/69 49/21/49
f 69/8/69 78/19/78 49/21/49
f 72/11/72 74/16/74 35/22/35
f 72/11/72 35/22/35 73/12/73
f 76/9/76 75/17/75 29/9/29
f 76/9/76 29/9/29 74/16/74
f 30/13/30 31/23/31 75/17/75
f 75/17/75 31/23/31 29/9/29
f 77/18/77 80/24/80 79/20/79
f 77/18/77 73/12/73 23/25/23
f 77/18/77 24/26/24 80/24/80
f 77/18/77 23/25/23 24/26/24
f 23/25/23 73/12/73 35/22/35
f 78/19/78 51/27/51 49/21/49
f 78/19/78 79/20/79 81/20/81
f 78/19/78 81/20/81 51/27/51
f 79/20/79 80/24/80 81/20/81
f 74/16/74 29/9/29 42/28/42
f 74/16/74 42/28/42 35/22/35
f 24/26/24 36/29/36 80/24/80
f 51/27/51 81/20/81 50/20/50
f 36/29/36 43/30/43 80/24/80
f 43/30/43 50/20/50 81/20/81
f 43/30/43 81/20/81 80/24/80
vt 0.926239 1.00638
v -0.0909765 0.213841 0.18711
vt 0.471427 0.943979
vn -0.436736 0.288744 0.851991
vt 0.0260495 1.00638
vt 0.0166149 0.881581
vt 0.482008 0.794341
vt 1.03873 0.794341
vt -0.0747136 0.794341
v 0.0909766 0.213841 0.18711
vn 0.436736 0.288744 0.851991
o merged_1_0_node
g polygon_0
usemtl TEX_ANIM_EYE_mat_id
f 25/31/25 82/32/82 38/33/38
f 38/33/38 82/32/82 21/34/21
f 21/34/21 82/32/82 4/35/4
f 12/36/12 4/35/4 82/32/82
f 82/32/82 25/31/25 12/36/12
f 4/35/4 6/37/6 21/34/21
f 33/34/33 83/32/83 44/33/44
f 44/33/44 83/32/83 41/31/41
f 28/35/28 27/36/27 83/32/83
f 27/36/27 41/31/41 83/32/83
f 28/35/28 83/32/83 33/34/33
f 33/34/33 18/37/18 28/35/28
