mtllib Crustle.mtl
v -0.246079 0.284083 0.222709
vt 0.0189363 0.545534
vn -0.6546592 -0.2795071 0.7023512
v -0.154128 0.0421216 0.1367
vt 0.0211143 0.161793
vn -0.4707558 -0.7469118 0.4695868
v 0.154128 0.0421216 0.1367
vt 0.516376 0.161793
vn 0.4707558 -0.7469118 0.4695868
v -0.246079 0.284083 -0.262423
vt -0.5 0.546561
vn -0.6583282 -0.2474281 -0.7109032
v 0.246079 0.284083 0.222709
vt 0.518554 0.545534
vn 0.6592078 -0.2792299 0.6981947
v -0.292552 0.56722 -0.16957
vt -0.369736 0.994577
vn -0.996363 0.08479811 -0.008362361
v 0.210565 0.56722 0.247765
vt 0.479041 0.994577
vn 0.008615993 0.121448 0.9925604
v -0.279331 0.485195 0.240637
vt 0.0106807 0.864488
vn -0.68863 -0.15773 0.70775
v -0.175531 0.56722 0.247765
vt 0.0853311 0.994577
vn -0.0103483 0.1539749 0.9880205
v -0.154128 0.0421216 -0.190353
vt -0.5 0.161793
vn -0.4718859 -0.7364928 -0.4846669
v 0.246079 0.284083 -0.262423
vt 1.00036 0.545534
vn 0.6627681 -0.24735 -0.7067931
v 0.154128 0.0421216 -0.190353
vt 1.01992 0.161793
vn 0.4718859 -0.7364928 -0.4846669
v -0.292552 0.56722 0.143431
vt -0.065536 0.994577
vn -0.9946032 0.102869 0.0135054
v -0.283257 0.509553 -0.271608
vt -0.5 0.901771
vn -0.698949 -0.121773 -0.7047281
v 0.286733 0.531119 0.244627
vt 0.528434 0.937321
vn 0.6522303 -0.1439651 0.7442243
vt 1.5 0.159776
v 0.292552 0.56722 0.079976
vt 0.659779 0.994577
vn 0.9985645 0.05353573 0.001715461
v 0.292552 0.56722 -0.189874
vt 0.923451 0.994577
vn 0.9998485 0.01649849 -0.005540667
vt 1.49882 0.545534
v 0.2865 0.529674 -0.272409
vt 0.982922 0.93503
vn 0.7207851 -0.126353 -0.6815451
v 0.175531 0.56722 -0.273904
vt 1.05809 0.994577
vn 0.002569821 0.1569811 -0.9875983
v -0.175531 0.56722 -0.273904
vt 1.42492 0.994577
vn -0.006300202 0.1732861 -0.9848514
vt 1.5 0.903119
v 0.0680213 0.180741 0.170268
vt -0.00085339 0.0448002
vn -0.145656 -0.266724 -0.9527028
v 0.122784 0.197245 0.365675
vt 0.335445 0.00897681
vn 0.6748983 -0.7336974 0.07874253
v 0.0770905 0.195455 0.373182
vt 0.335562 0.0208696
vn -0.5570489 -0.7818589 0.279988
v 0.0504559 0.248688 0.366785
vt 0.335679 0.0327623
vn -0.9940389 -0.0124455 0.108314
v 0.0695148 0.303712 0.352881
vt 0.335796 0.044655
vn -0.6419099 0.7262589 -0.245967
v 0.115208 0.305502 0.345374
vt 0.335913 0.0565478
vn 0.472161 0.7705011 -0.428243
v 0.141843 0.252268 0.351771
vt 0.33603 0.0684405
vn 0.9747863 0.06498762 -0.2134671
vt 0.336147 0.0803332
v -0.0680213 0.180741 0.170268
vn 0.145656 -0.266723 -0.9527031
v -0.0770905 0.195455 0.373182
vn 0.55705 -0.781858 0.279988
v -0.122784 0.197245 0.365675
vn -0.6748984 -0.7336974 0.07874244
v -0.0504559 0.248688 0.366785
vn 0.9940389 -0.0124457 0.108314
v -0.0695148 0.303712 0.352881
vn 0.6419099 0.7262589 -0.245967
v -0.115208 0.305502 0.345374
vn -0.472161 0.7705011 -0.428243
v -0.141843 0.252268 0.351771
vn -0.9747863 0.06498753 -0.2134671
v 0.150178 0.123832 0.296473
vt 0.485479 0.093894
vn 0.910429 -0.00805659 0.413587
v 0.120849 0.0572991 0.22791
vt 0.536812 0.0425758
vn 0.4742051 -0.8776642 -0.06953541
v 0.169421 0.123832 0.22791
vt 0.536805 0.0939018
vn 0.997131 0.0115073 -0.07481441
v 0.1095 0.0609191 0.296473
vt 0.485486 0.042568
vn 0.4282728 -0.8391376 0.3353068
v 0.1095 0.234297 0.296473
vt 0.485471 0.14522
vn 0.5853091 0.6940712 0.4191401
v 0.0784922 0.195823 0.348555
vt 0.434145 0.145212
vn 0.447878 0.5103081 0.7341601
v 0.0976074 0.133357 0.354797
vt 0.434153 0.0938862
vn 0.653688 0.0175769 0.75656
v 0 0.039937 0.22791
vt 0.536816 0.0169128
vn 0 -0.9978083 -0.06617133
v 0 0.043557 0.296473
vt 0.48549 0.016905
vn -9.206102E-06 -0.9553582 0.2954501
v 0.0784931 0.0968149 0.354794
vt 0.43416 0.0425602
vn 0.3294419 -0.6168229 0.7148409
v 0.12085 0.248379 0.22791
vt 0.536797 0.145228
vn 0.645165 0.760334 -0.0751956
v 0 0.0820305 0.354781
vt 0.434164 0.0168971
vn -5.034968E-05 -0.7268749 0.6867699
v -0.150178 0.123832 0.296473
vt 0.484882 0.0935958
vn -0.9104143 -0.008063532 0.4136192
v -0.120849 0.0572991 0.22791
vt 0.536216 0.0422776
vn -0.4742051 -0.8776642 -0.06953541
v -0.1095 0.0609191 0.296473
vt 0.48489 0.0422698
vn -0.4282729 -0.8391258 0.3353359
v -0.169421 0.123832 0.22791
vt 0.536208 0.0936036
vn -0.997131 0.0115073 -0.07481441
v -0.1095 0.234297 0.296473
vt 0.484874 0.144922
vn -0.5853001 0.6940661 0.4191611
v -0.0784922 0.195823 0.348555
vt 0.433548 0.144914
vn -0.447845 0.5102249 0.734238
v -0.0976054 0.133357 0.354766
vt 0.433556 0.093588
vn -0.6536372 0.01751901 0.7566053
vt 0.53622 0.0166146
vt 0.484894 0.0166068
v -0.0784912 0.0968149 0.354769
vt 0.433564 0.042262
vn -0.3294511 -0.6167352 0.7149123
v -0.12085 0.248379 0.22791
vt 0.5362 0.14493
vn -0.645165 0.760334 -0.0751957
vt 0.433568 0.0165989
v 0.234343 0.0510162 0.29533
vt 0.940745 0.329182
vn 0.02842529 -0.9086267 -0.4166408
v 0.240102 0.0998236 0.353705
vt 0.943467 0.352243
vn 0.1372289 -0.4091578 0.9020855
v 0.216909 0.104313 0.368658
vt 0.932508 0.354364
vn -0.0533636 0.164975 0.9848531
v 0.276046 0.0116804 0.355193
vt 0.96045 0.310596
vn -0.0651302 -0.9048231 0.420777
v 0.223137 0.00709848 0.361249
vt 0.935451 0.308431
vn 0.3838108 -0.8333806 0.3977008
v 0.309136 0.0940071 0.324773
vt 0.976085 0.349495
vn 0.9371083 -0.2792651 -0.2093781
v 0.173516 0.0814592 0.340993
vt 0.912005 0.343566
vn -0.904138 -0.416173 0.096615
v 0.269241 0.108987 0.362434
vt 0.957235 0.356573
vn 0.2227919 0.122841 0.9670956
v -0.234342 0.0510162 0.29533
vn -0.0284253 -0.908627 -0.41664
v -0.216909 0.104313 0.368658
vn 0.05336429 0.164976 0.9848529
v -0.240102 0.0998236 0.353705
vn -0.137229 -0.4091569 0.9020858
v -0.223137 0.00709847 0.361249
vn -0.383812 -0.83338 0.397701
v -0.276046 0.0116804 0.355193
vn 0.0651308 -0.904823 0.420777
v -0.173516 0.0814592 0.340993
vn 0.904138 -0.416173 0.0966153
v -0.309136 0.0940071 0.324773
vn -0.937108 -0.279265 -0.209379
v -0.269241 0.108987 0.362434
vn -0.2227919 0.12284 0.9670957
v 0 0.265741 0.22791
vt 0.315363 0.051395
vn 0 0.9979622 -0.06380831
v 0.100602 0.223256 0.125579
vt 0.667427 0.0295453
vn 0.6183382 0.7245103 -0.3045371
v 0 0.240618 0.125579
vt 0.667427 0.051395
vn 0 0.9675823 -0.2525561
vt 0.315363 0.0251478
v -0.100602 0.223256 0.125579
vt 0.667427 0.0732447
vn -0.6183382 0.7245103 -0.3045371
vt 0.315363 0.0776422
vt 0.315363 0.0145987
vt 0.315363 0.0881914
v -0.135092 0.123832 0.125579
vt 0.667427 0.0807356
vn -0.9540605 -0.009882255 -0.2994511
v 0.135092 0.123832 0.125579
vt 0.667427 0.0220544
vn 0.9540605 -0.009882255 -0.2994511
v -0.100602 0.0719595 0.125579
vn -0.423134 -0.88237 -0.205866
v 0.100602 0.0719595 0.125579
vn 0.423134 -0.88237 -0.205866
v 0 0.0545973 0.125579
vn 0 -0.9876282 -0.156814
v 0 0.154274 0.385009
vt 0.402282 0.0434226
vn -9.487988E-05 0.08222389 0.9966139
vt 0.572173 0.108516
v 0 0.213185 0.348555
vt 0.402284 0.126972
vn 0 0.724282 0.689504
vt 0.613545 0.0319909
vt 0.000393599 0.147635
vt 0.107638 0.0810354
vt 0.133754 0.128673
vt 0.000394967 0.0549672
vt 0.107661 0.0810354
vt 0.133776 0.128673
vt 0.150002 0.0177431
vt 0.20558 0.128673
vt 0.150028 0.0177431
vt 0.205605 0.128673
v 0.22048 0.111134 0.227928
vt 0.987941 0.0503888
vn -0.01849989 -0.6841978 -0.7290618
vt 0.706519 0.0840198
v 0.14568 0.161546 0.29675
vt 0.923488 0.0949679
vn -0.9801691 -0.0405298 0.193974
vt 0.749286 0.0486006
vt 0.712166 0.0119606
v 0.307502 0.175877 0.281245
vt 0.920567 0.00929791
vn 0.9938136 -0.01977839 -0.109286
vt 0.657997 0.0636168
v 0.23474 0.207804 0.324586
vt 0.889307 0.0507557
vn 0.0165308 0.60863 0.793282
vt 0.659873 0.0358142
v 0.242178 0.123394 0.364376
vt 0.684053 0.050089
vn 0.07396627 0.3374649 0.9384276
v 0.140984 0.216228 0.24472
vt 0.0769038 0.0673
vn -0.9697288 0.2262819 0.09177458
vt 0.34947 0.067339
vt 0.349975 0.0498729
vt 0.348964 0.084805
v 0.231646 0.265256 0.281078
vt 0.0460266 0.0498295
vn 0.0402007 0.9185159 0.393335
v 0.210692 0.168225 0.17471
vt 0.0267996 0.0847589
vn 0.0544795 -0.631808 -0.773208
vt 0.35048 0.0324069
v 0.301802 0.231108 0.225485
vt 0.0614782 0.0323655
vn 0.8733237 0.3281409 -0.3600409
vt 0.0288214 0.0148947
vt 0.350986 0.0149408
v -0.22048 0.111134 0.227928
vn 0.01849989 -0.6841978 -0.7290618
v -0.14568 0.161546 0.29675
vn 0.9801691 -0.04052961 0.193974
v -0.307502 0.175877 0.281245
vn -0.9938135 -0.01977879 -0.1092869
v -0.23474 0.207804 0.324586
vn -0.016531 0.60863 0.793282
v -0.242178 0.123394 0.364376
vn -0.07396786 0.3374648 0.9384275
v -0.140984 0.216228 0.24472
vn 0.9697288 0.2262819 0.09177488
v -0.231646 0.265256 0.281078
vn -0.0402006 0.9185159 0.393335
v -0.210692 0.168225 0.17471
vn -0.0544796 -0.631808 -0.773208
v -0.301802 0.231108 0.225485
vn -0.8733237 0.3281409 -0.3600409
v 0.324848 -0.005420539 -0.04359829
vt 0.871776 0.140905
vn -0.6289297 -0.7772053 0.01998541
v 0.253428 0.1181561 -0.006927068
vt 0.46264 0.133608
vn -0.1536753 -0.3284141 0.9319485
v 0.250565 0.1209062 -0.06559548
vt 0.46264 0.148203
vn -0.2729244 -0.2545983 -0.9277349
v 0.263427 0.1498047 -0.03636775
vt 0.429219 0.14092
vn 0.5600333 0.8284701 -0.0001397192
v -0.324848 -0.005420539 -0.04359829
vn 0.628928 -0.7772068 0.01998322
v -0.250565 0.1209062 -0.06559548
vn 0.2729234 -0.2545983 -0.9277351
v -0.253428 0.1181561 -0.006927079
vn 0.1536753 -0.3284141 0.9319485
v -0.263427 0.1498047 -0.03636775
vn -0.5600322 0.8284708 -0.0001398071
v 0.324848 -0.00541982 -0.1433657
vn -0.6289312 -0.7772041 0.01998541
v 0.253428 0.1181563 -0.1066941
vn -0.1536757 -0.3284141 0.9319485
v 0.250565 0.1209063 -0.165362
vn -0.272925 -0.2545983 -0.9277347
v 0.263427 0.1498048 -0.1361345
vn 0.5600342 0.8284695 -0.0001397417
v 0.324848 -0.005419792 0.0643959
v 0.253428 0.1181563 0.1010662
v 0.250565 0.1209063 0.04239757
v 0.263427 0.1498048 0.07162522
v -0.324848 -0.005419792 0.0643959
vn 0.6289295 -0.7772055 0.01998322
v -0.250565 0.1209063 0.04239757
vn 0.272924 -0.2545983 -0.927735
v -0.253428 0.1181563 0.1010662
vn 0.1536757 -0.3284141 0.9319485
v -0.263427 0.1498048 0.07162522
vn -0.5600331 0.8284702 -0.0001398296
v -0.324848 -0.00541982 -0.1433657
v -0.250565 0.1209063 -0.165362
v -0.253428 0.1181563 -0.1066941
v -0.263427 0.1498048 -0.1361345
vt 0.537658 0.0819123
vt 0.480564 0.0812252
vt 0.480741 0.0255626
v 0 0.251659 0.296473
vt 0.537834 0.0262497
vn 0 0.9195611 0.392947
vt 0.594751 0.0825994
vt 0.594927 0.0269369
vt 0.537743 0.143992
vt 0.480826 0.0876425
vt 0.48065 0.143305
vt 0.537919 0.0883296
vt 0.594836 0.144679
vt 0.595012 0.0890168
v 0.155142 0.239845 0.120595
vt 0.0112054 0.064173
vn -0.339494 0.5141051 -0.78768
vt 0.443572 0.0829013
vt 0.443572 0.048376
v -0.155142 0.239845 0.120595
vn 0.339494 0.5141051 -0.78768
v 0.173868 0.0868093 -0.0308046
vt 0.659176 0.0516718
vn -0.183323 -0.982857 -0.0196138
vt 0.320341 0.00763711
vt 0.320341 0.100751
v -0.173868 0.0868093 -0.0308046
vn 0.1833249 -0.9828568 -0.01961309
vt 0.3614 0.300237
vt 0.251419 0.179775
vt 0.251419 0.300237
vt 0.3614 0.179009
v 0.173868 0.0868093 -0.13057
v 0.173868 0.0868093 0.0771867
v -0.173868 0.0868093 0.0771867
v -0.173868 0.0868093 -0.13057
vt 0.897293 0.0491602
vt 0.897293 0.0654706
vt 0.838183 0.0491602
vt 0.897293 0.0310377
vt 0.767303 0.994825
vt 0.847163 0.873327
vt 0.927386 0.994825
vt 0.344432 0.941974
vt 0.440311 0.995912
vt 0.25321 0.995912
vt 0.818378 0.907083
vt 0.742602 0.994585
vt 0.894336 0.994585
vt 0.0133048 0.994058
vt 0.076254 0.940264
vt 0.138684 0.994058
v 0.0175168 0.56722 -0.0130696
vt 0.606437 0.931255
vn 0 1 0
vt 0.697823 0.822538
vt 0.766318 0.935374
vt 0.922641 0.605507
vt 1.01943 0.797274
vt 0.858114 0.67788
vt 0.125467 0.695167
vt -0.0358507 0.792894
vt 0.0734972 0.622793
vt 0.249185 0.599029
vt 0.129792 0.760346
vt 0.0320647 0.599029
vt 0.987162 0.610884
vt 0.890371 0.802652
vt 0.793581 0.610884
vt 0.150958 0.583997
vt 0.215485 0.65637
vt 0.0541675 0.775764
vt 0.456206 0.782393
vt 0.36835 0.60195
vt 0.603105 0.64565
vt 0.418549 0.774072
vt 0.257232 0.654678
vt 0.361004 0.603972
o merged_0_0_node
g polygon_0
usemtl Isiparesu_body_mat_id
f 1/1/1 2/2/2 3/3/3
f 1/1/1 4/4/4 2/2/2
f 1/1/1 3/3/3 5/5/5
f 1/1/1 6/6/6 4/4/4
f 1/1/1 5/5/5 7/7/7
f 1/1/1 8/8/8 6/6/6
f 1/1/1 7/7/7 9/9/9
f 1/1/1 9/9/9 8/8/8
f 2/2/2 4/4/4 10/10/10
f 3/3/3 11/11/11 5/5/5
f 3/3/3 12/12/12 11/11/11
f 6/6/6 8/8/8 13/13/13
f 6/6/6 14/14/14 4/4/4
f 7/7/7 5/5/5 15/15/15
f 12/12/12 10/16/10 11/11/11
f 5/5/5 16/17/16 15/15/15
f 5/5/5 11/11/11 17/18/17
f 5/5/5 17/18/17 16/17/16
f 10/16/10 4/19/4 11/11/11
f 17/18/17 11/11/11 18/20/18
f 4/19/4 19/21/19 11/11/11
f 4/19/4 20/22/20 19/21/19
f 4/19/4 14/23/14 20/22/20
f 19/21/19 18/20/18 11/11/11
f 21/24/21 22/25/22 23/26/23
f 21/24/21 23/26/23 24/27/24
f 21/24/21 24/27/24 25/28/25
f 21/24/21 25/28/25 26/29/26
f 21/24/21 26/29/26 27/30/27
f 21/24/21 27/30/27 22/31/22
f 28/24/28 29/26/29 30/25/30
f 28/24/28 31/27/31 29/26/29
f 28/24/28 32/28/32 31/27/31
f 28/24/28 33/29/33 32/28/32
f 28/24/28 34/30/34 33/29/33
f 28/24/28 30/31/30 34/30/34
f 35/32/35 36/33/36 37/34/37
f 35/32/35 38/35/38 36/33/36
f 35/32/35 37/34/37 39/36/39
f 35/32/35 39/36/39 40/37/40
f 35/32/35 40/37/40 41/38/41
f 38/35/38 42/39/42 36/33/36
f 38/35/38 43/40/43 42/39/42
f 38/35/38 44/41/44 43/40/43
f 37/34/37 45/42/45 39/36/39
f 44/41/44 46/43/46 43/40/43
f 47/44/47 48/45/48 49/46/49
f 47/44/47 50/47/50 48/45/48
f 47/44/47 51/48/51 50/47/50
f 47/44/47 52/49/52 51/48/51
f 47/44/47 53/50/53 52/49/52
f 49/46/49 48/45/48 42/51/42
f 49/46/49 42/51/42 43/52/43
f 49/46/49 43/52/43 54/53/54
f 50/47/50 51/48/51 55/54/55
f 43/52/43 46/55/46 54/53/54
f 56/56/56 57/57/57 58/58/58
f 56/56/56 59/59/59 57/57/57
f 56/56/56 58/58/58 60/60/60
f 56/56/56 61/61/61 59/59/59
f 56/56/56 60/60/60 62/62/62
f 62/62/62 60/60/60 58/58/58
f 57/57/57 59/59/59 63/63/63
f 63/63/63 59/59/59 61/61/61
f 64/56/64 65/58/65 66/57/66
f 64/56/64 67/60/67 65/58/65
f 64/56/64 66/57/66 68/59/68
f 64/56/64 69/62/69 67/60/67
f 64/56/64 68/59/68 70/61/70
f 67/60/67 69/62/69 65/58/65
f 66/57/66 71/63/71 68/59/68
f 68/59/68 71/63/71 70/61/70
f 72/64/72 73/65/73 74/66/74
f 72/64/72 45/67/45 73/65/73
f 72/64/72 74/66/74 75/68/75
f 72/64/72 75/68/75 55/69/55
f 45/67/45 37/70/37 73/65/73
f 75/68/75 50/71/50 55/69/55
f 75/68/75 76/72/76 50/71/50
f 37/70/37 77/73/77 73/65/73
f 37/70/37 36/67/36 77/73/77
f 76/72/76 48/69/48 50/71/50
f 76/72/76 78/68/78 48/69/48
f 36/67/36 79/65/79 77/73/77
f 36/67/36 42/64/42 79/65/79
f 48/69/48 78/68/78 42/64/42
f 79/65/79 42/64/42 80/66/80
f 80/66/80 42/64/42 78/68/78
f 81/74/81 40/75/40 82/76/82
f 81/74/81 41/77/41 40/75/40
f 81/74/81 82/76/82 52/75/52
f 81/74/81 52/75/52 53/77/53
f 81/78/81 44/79/44 41/80/41
f 81/78/81 46/81/46 44/79/44
f 81/78/81 54/82/54 46/81/46
f 81/78/81 53/83/53 54/82/54
f 41/80/41 44/79/44 38/84/38
f 41/80/41 38/84/38 35/85/35
f 53/83/53 49/86/49 54/82/54
f 53/83/53 47/87/47 49/86/49
f 83/88/83 62/89/62 84/90/84
f 83/88/83 56/91/56 62/89/62
f 83/88/83 61/92/61 56/91/56
f 83/88/83 85/93/85 61/92/61
f 84/90/84 62/89/62 58/94/58
f 84/90/84 58/94/58 86/95/86
f 85/93/85 63/96/63 61/92/61
f 85/93/85 86/95/86 63/96/63
f 58/94/58 87/97/87 86/95/86
f 86/95/86 87/97/87 63/96/63
f 88/98/88 84/99/84 86/100/86
f 88/98/88 83/101/83 84/99/84
f 88/98/88 86/100/86 89/102/89
f 88/98/88 90/103/90 83/101/83
f 86/100/86 85/104/85 89/102/89
f 85/104/85 91/105/91 89/102/89
f 85/104/85 90/106/90 91/105/91
f 85/104/85 83/107/83 90/106/90
f 92/88/92 93/90/93 69/89/69
f 92/88/92 69/89/69 64/91/64
f 92/88/92 64/91/64 70/92/70
f 92/88/92 70/92/70 94/93/94
f 93/90/93 65/94/65 69/89/69
f 93/90/93 95/95/95 65/94/65
f 70/92/70 71/96/71 94/93/94
f 94/93/94 71/96/71 95/95/95
f 65/94/65 95/95/95 96/97/96
f 96/97/96 95/95/95 71/96/71
f 97/98/97 95/100/95 93/99/93
f 97/98/97 98/102/98 95/100/95
f 97/98/97 93/99/93 92/101/92
f 97/98/97 92/101/92 99/103/99
f 98/102/98 94/104/94 95/100/95
f 98/102/98 100/105/100 94/104/94
f 100/105/100 99/106/99 94/104/94
f 99/106/99 92/107/92 94/104/94
f 101/108/101 102/109/102 103/110/103
f 101/108/101 104/111/104 102/109/102
f 101/108/101 103/110/103 104/111/104
f 105/108/105 106/110/106 107/109/107
f 105/108/105 108/111/108 106/110/106
f 105/108/105 107/109/107 108/111/108
f 109/108/109 110/109/110 111/110/111
f 109/108/109 112/111/112 110/109/110
f 109/108/109 111/110/111 112/111/112
f 113/108/109 114/109/110 115/110/111
f 113/108/109 116/111/112 114/109/110
f 113/108/109 115/110/111 116/111/112
f 117/108/113 118/110/114 119/109/115
f 117/108/113 120/111/116 118/110/114
f 117/108/113 119/109/115 120/111/116
f 121/108/113 122/110/114 123/109/115
f 121/108/113 124/111/116 122/110/114
f 121/108/113 123/109/115 124/111/116
f 39/112/39 45/113/45 72/114/72
f 39/112/39 72/114/72 125/115/117
f 39/112/39 125/115/117 40/116/40
f 125/115/117 82/117/82 40/116/40
f 51/118/51 72/119/72 55/120/55
f 51/118/51 125/121/117 72/119/72
f 51/118/51 52/122/52 125/121/117
f 52/122/52 82/123/82 125/121/117
f 126/124/118 90/125/90 88/126/88
f 126/124/118 88/125/88 89/126/89
f 126/124/118 89/125/89 91/126/91
f 126/124/118 91/125/91 90/126/90
f 127/124/119 97/126/97 99/125/99
f 127/124/119 98/126/98 97/125/97
f 127/124/119 100/126/100 98/125/98
f 127/124/119 99/126/99 100/125/100
f 128/127/120 103/128/103 102/129/102
f 128/127/120 102/128/102 104/129/104
f 128/127/120 104/128/104 103/129/103
f 129/127/121 107/129/107 106/128/106
f 129/127/121 108/129/108 107/128/107
f 129/127/121 106/129/106 108/128/108
f 12/130/12 2/131/2 10/132/10
f 12/130/12 3/133/3 2/131/2
f 130/127/120 111/128/111 110/129/110
f 130/127/120 110/128/110 112/129/112
f 130/127/120 112/128/112 111/129/111
f 131/127/120 115/128/111 114/129/110
f 131/127/120 114/128/110 116/129/112
f 131/127/120 116/128/112 115/129/111
f 132/127/121 119/129/115 118/128/114
f 132/127/121 120/129/116 119/128/115
f 132/127/121 118/129/114 120/128/116
f 133/127/121 123/129/115 122/128/114
f 133/127/121 124/129/116 123/128/115
f 133/127/121 122/129/114 124/128/116
f 57/134/57 63/135/63 87/136/87
f 57/134/57 87/136/87 58/137/58
f 66/134/66 96/136/96 71/135/71
f 66/134/66 65/137/65 96/136/96
f 13/138/13 8/139/8 9/140/9
f 15/141/15 16/142/16 7/143/7
f 14/144/14 6/145/6 20/146/20
f 17/147/17 18/148/18 19/149/19
f 134/150/122 16/151/16 17/152/17
f 6/153/6 134/154/122 20/155/20
f 19/156/19 134/157/122 17/158/17
f 20/159/20 134/160/122 19/161/19
f 13/162/13 134/163/122 6/164/6
f 13/165/13 9/166/9 134/167/122
f 134/168/122 9/169/9 7/170/7
f 134/171/122 7/172/7 16/173/16
vt 0.231432 0.769933
vt 0.770292 0.769677
v 0.0984318 0.25654 0.374615
vt 0.507755 0.876064
vn 0.151241 0.199534 0.9681489
vt 0.0283222 0.87632
vt 0.239274 0.983087
vt 0.778134 0.982831
vt 0.979852 0.875808
v -0.0984318 0.25654 0.374615
vn -0.151241 0.199534 0.9681489
o merged_1_0_node
g polygon_0
usemtl TEX_ANIM_EYE_mat_id
f 23/174/23 22/175/22 135/176/123
f 24/177/24 23/174/23 135/176/123
f 25/178/25 24/177/24 135/176/123
f 26/179/26 25/178/25 135/176/123
f 27/180/27 26/179/26 135/176/123
f 22/175/22 27/180/27 135/176/123
f 29/174/29 136/176/124 30/175/30
f 31/177/31 136/176/124 29/174/29
f 32/178/32 136/176/124 31/177/31
f 33/179/33 136/176/124 32/178/32
f 34/180/34 136/176/124 33/179/33
f 30/175/30 136/176/124 34/180/34
