ply
format ascii 1.0
element vertex 190
property float x
property float y
property float z
property uchar red
property uchar green
property uchar blue
element face 269
property list uchar int vertex_index
end_header
0.28038 -1.34086 1.13115 54 51 49
0.28038 -1.40135 1.35689 54 51 49
0.35008 -1.40135 1.35689 54 51 49
0.35008 -1.34086 1.13115 54 51 49
0.35008 -1.36337 1.36707 54 51 49
0.28038 -1.36337 1.36707 54 51 49
0.35008 -1.30288 1.14133 54 51 49
0.28038 -1.30288 1.14133 54 51 49
-0.28038 -1.34086 1.13115 54 51 49
-0.35008 -1.34086 1.13115 54 51 49
-0.35008 -1.40135 1.35689 54 51 49
-0.28038 -1.40135 1.35689 54 51 49
-0.35008 -1.36337 1.36707 54 51 49
-0.28038 -1.36337 1.36707 54 51 49
-0.35008 -1.30288 1.14133 54 51 49
-0.28038 -1.30288 1.14133 54 51 49
0.58483 -1.51866 1.78016 54 51 49
0.57558 -1.49865 1.70549 54 51 49
0.15569 -1.40041 1.33883 54 51 49
0.14884 -1.41794 1.40421 54 51 49
0.58483 -1.47696 1.79134 54 51 49
0.79976 -1.41267 1.5514 54 51 49
0.79976 -1.45437 1.54023 54 51 49
0.14884 -1.37623 1.41538 54 51 49
0.10093 -1.41221 1.5497 54 51 49
0.10093 -1.45391 1.53852 54 51 49
0.06018 -1.45405 1.53901 54 51 49
0.06018 -1.41234 1.55018 54 51 49
0.12225 -1.40053 1.33911 54 51 49
0.75622 -1.44462 1.50384 54 51 49
0.57558 -1.45695 1.71666 54 51 49
0.15569 -1.3587 1.35 54 51 49
0.12225 -1.35882 1.35029 54 51 49
0.75622 -1.40292 1.51502 54 51 49
-0.13688 -1.3587 1.35 54 51 49
-0.57558 -1.45695 1.71666 54 51 49
-0.57558 -1.49865 1.70549 54 51 49
-0.13688 -1.40041 1.33883 54 51 49
-0.10258 -1.41067 1.37711 54 51 49
-0.10258 -1.36896 1.38829 54 51 49
-0.75622 -1.40292 1.51502 54 51 49
-0.75622 -1.44462 1.50384 54 51 49
-0.79976 -1.41267 1.5514 54 51 49
-0.79976 -1.45437 1.54023 54 51 49
-0.58483 -1.51866 1.78016 54 51 49
-0.58483 -1.47696 1.79134 54 51 49
0.792 -1.52078 1.92586 234 235 238
0.72723 -1.48906 2.02016 234 235 238
0.91322 -1.40189 2.04352 234 235 238
0.96718 -1.43805 1.94803 234 235 238
-0.72723 -1.48906 2.02016 234 235 238
-0.792 -1.52078 1.92586 234 235 238
0.792 -1.27625 1.01295 234 235 238
-0.792 -1.27625 1.01295 234 235 238
0.96718 -1.19352 1.03512 234 235 238
1.056 -1.26578 1.99419 234 235 238
1.056 -1.02124 1.08128 234 235 238
1.056 0.50878 1.49125 234 235 238
1.056 0.26425 2.40416 234 235 238
-0.91322 -1.40189 2.04352 234 235 238
-0.96718 -1.43805 1.94803 234 235 238
-0.96718 -1.19352 1.03512 234 235 238
-1.056 -1.26578 1.99419 234 235 238
-1.056 -1.02124 1.08128 234 235 238
-1.056 0.50878 1.49125 234 235 238
-1.056 0.26425 2.40416 234 235 238
-1.00088 0.18016 2.46743 234 235 238
-1.00088 -1.22474 2.09099 234 235 238
1.00088 0.18016 2.46743 234 235 238
1.00088 -1.22474 2.09099 234 235 238
0.73343 -0.96502 0.0387 222 64 91
-0.73343 -0.96502 0.0387 222 64 91
-0.792 -1.03307 0.10512 222 64 91
0.792 -1.03307 0.10512 222 64 91
0.96718 -0.95034 0.12729 222 64 91
0.96718 -1.19352 1.03512 222 64 91
0.792 -1.27625 1.01295 222 64 91
0.91949 -0.87777 0.06208 222 64 91
1.056 -0.77807 0.17345 222 64 91
1.00753 -0.70025 0.10964 222 64 91
1.056 -1.02124 1.08128 222 64 91
1.056 0.75196 0.58342 222 64 91
1.056 0.50878 1.49125 222 64 91
-0.91949 -0.87777 0.06208 222 64 91
-0.96718 -0.95034 0.12729 222 64 91
-0.96718 -1.19352 1.03512 222 64 91
-0.792 -1.27625 1.01295 222 64 91
0.66725 -1.22481 0.82098 222 64 91
-0.63196 -1.22481 0.82098 222 64 91
-1.00753 -0.70025 0.10964 222 64 91
-1.056 -0.77807 0.17345 222 64 91
-1.056 -1.02124 1.08128 222 64 91
-1.056 0.75196 0.58342 222 64 91
-1.056 0.50878 1.49125 222 64 91
-0.63264 -1.15475 0.55849 222 64 91
-0.5953 -1.14406 0.51855 222 64 91
0.66625 -1.15639 0.56549 222 64 91
0.63231 -1.14416 0.51986 222 64 91
0.66625 -1.10539 0.57916 222 64 91
0.63231 -1.09316 0.53353 222 64 91
-0.5953 -1.09306 0.53222 222 64 91
0.66725 -1.1738 0.83465 222 64 91
-0.63264 -1.10374 0.57216 222 64 91
0.8736 -0.82215 0.04348 222 64 91
0.95937 -0.64536 0.09085 222 64 91
0 0.01656 0.26821 222 64 91
0.95937 0.67848 0.44557 222 64 91
0.68527 -0.91012 0.01991 222 64 91
-0.68527 -0.91012 0.01991 222 64 91
-0.8736 -0.82215 0.04348 222 64 91
-0.95937 -0.64536 0.09085 222 64 91
-0.95937 0.67848 0.44557 222 64 91
-0.8736 0.85527 0.49294 222 64 91
-0.68527 0.94324 0.51651 222 64 91
0.68527 0.94324 0.51651 222 64 91
0.8736 0.85527 0.49294 222 64 91
1.00753 0.71662 0.48929 222 64 91
0.96718 0.92423 0.62958 222 64 91
0.91949 0.89414 0.53686 222 64 91
0.792 1.00697 0.65175 222 64 91
0.96718 0.68105 1.53741 222 64 91
0.792 0.76379 1.55958 222 64 91
-0.792 1.00697 0.65175 222 64 91
-0.73343 0.98139 0.56024 222 64 91
0.73343 0.98139 0.56024 222 64 91
-0.96718 0.92423 0.62958 222 64 91
-0.96718 0.68105 1.53741 222 64 91
-0.792 0.76379 1.55958 222 64 91
-0.91949 0.89414 0.53686 222 64 91
-1.00753 0.71662 0.48929 222 64 91
0.87214 -1.36698 2.08242 240 241 244
0.95777 -1.19049 2.12971 240 241 244
1.00088 -1.22474 2.09099 240 241 244
0.91322 -1.40189 2.04352 240 241 244
0 -0.52967 2.30677 240 241 244
0.68412 -1.45481 2.05888 240 241 244
-0.68412 -1.45481 2.05888 240 241 244
-0.87214 -1.36698 2.08242 240 241 244
-0.95777 -1.19049 2.12971 240 241 244
-1.00088 -1.22474 2.09099 240 241 244
-0.95777 0.13114 2.48383 240 241 244
-1.00088 0.18016 2.46743 240 241 244
-0.91322 -1.40189 2.04352 240 241 244
-0.87214 0.30763 2.53113 240 241 244
-0.91322 0.35731 2.51489 240 241 244
-0.68412 0.39546 2.55466 240 241 244
0.68412 0.39546 2.55466 240 241 244
0.95777 0.13114 2.48383 240 241 244
1.00088 0.18016 2.46743 240 241 244
0.87214 0.30763 2.53113 240 241 244
0.91322 0.35731 2.51489 240 241 244
0.72723 -1.48906 2.02016 240 241 244
-0.72723 -1.48906 2.02016 240 241 244
-0.792 0.51925 2.47249 234 235 238
-0.72723 0.44449 2.53825 234 235 238
-0.91322 0.35731 2.51489 234 235 238
-0.96718 0.43652 2.45032 234 235 238
0.72723 0.44449 2.53825 234 235 238
0.792 0.51925 2.47249 234 235 238
-0.792 0.76379 1.55958 234 235 238
0.792 0.76379 1.55958 234 235 238
-0.96718 0.68105 1.53741 234 235 238
0.91322 0.35731 2.51489 234 235 238
0.96718 0.43652 2.45032 234 235 238
0.96718 0.68105 1.53741 234 235 238
0.66725 -1.1738 0.83465 240 241 244
0.66625 -1.10539 0.57916 240 241 244
-0.63264 -1.10374 0.57216 240 241 244
-0.63196 -1.1738 0.83465 240 241 244
-0.5953 -1.09306 0.53222 240 241 244
0.63231 -1.09316 0.53353 240 241 244
-0.63196 -1.1738 0.83465 222 64 91
0.41347 -1.1096 0.52056 67 67 67
0.41347 -1.15351 0.68446 67 67 67
0.47026 -1.15351 0.68446 67 67 67
0.47026 -1.1096 0.52056 67 67 67
0.47026 -1.13022 0.6907 67 67 67
0.41347 -1.13022 0.6907 67 67 67
0.47026 -1.0863 0.5268 67 67 67
0.41347 -1.0863 0.5268 67 67 67
0.28763 -1.10931 0.51952 67 67 67
0.28763 -1.13967 0.63282 67 67 67
0.34443 -1.13967 0.63282 67 67 67
0.34443 -1.10931 0.51952 67 67 67
0.34443 -1.11637 0.63906 67 67 67
0.28763 -1.11637 0.63906 67 67 67
0.34443 -1.08601 0.52576 67 67 67
0.28763 -1.08601 0.52576 67 67 67
-0.72723 0.44449 2.53825 240 241 244
0.72723 0.44449 2.53825 240 241 244
3 0 2 1
3 0 3 2
3 1 2 4
3 3 4 2
3 1 4 5
3 3 6 4
3 7 1 5
3 7 0 1
3 7 3 0
3 7 6 3
3 8 10 9
3 8 11 10
3 11 12 10
3 9 10 12
3 11 13 12
3 9 12 14
3 15 11 8
3 15 13 11
3 15 9 14
3 15 8 9
3 16 18 17
3 16 19 18
3 20 19 16
3 16 21 20
3 16 22 21
3 20 23 19
3 19 23 24
3 19 24 25
3 26 25 24
3 26 24 27
3 28 25 26
3 28 19 25
3 18 19 28
3 16 29 22
3 16 17 29
3 18 30 17
3 18 31 30
3 31 18 28
3 31 28 32
3 17 30 33
3 17 33 29
3 29 33 21
3 29 21 22
3 32 28 26
3 32 26 27
3 34 36 35
3 34 37 36
3 34 38 37
3 34 39 38
3 36 40 35
3 36 41 40
3 41 42 40
3 41 43 42
3 44 42 43
3 44 45 42
3 39 45 44
3 39 44 38
3 44 43 41
3 44 41 36
3 38 44 36
3 38 36 37
3 46 48 47
3 46 49 48
3 46 47 50
3 46 50 51
3 52 46 51
3 52 51 53
3 54 46 52
3 54 49 46
3 55 49 54
3 55 48 49
3 55 54 56
3 55 56 57
3 55 57 58
3 59 51 50
3 59 60 51
3 61 51 60
3 61 53 51
3 62 61 60
3 59 62 60
3 62 63 61
3 62 64 63
3 62 65 64
3 62 66 65
3 62 67 66
3 59 67 62
3 55 58 68
3 55 68 69
3 55 69 48
3 70 72 71
3 70 73 72
3 74 73 70
3 73 74 75
3 73 75 76
3 74 70 77
3 78 74 77
3 75 74 78
3 78 77 79
3 75 78 80
3 80 78 81
3 80 81 82
3 72 83 71
3 72 84 83
3 72 85 84
3 72 86 85
3 87 76 86
3 76 87 73
3 87 86 88
3 84 89 83
3 84 90 89
3 85 90 84
3 85 91 90
3 91 92 90
3 91 93 92
3 86 72 88
3 88 72 94
3 94 72 95
3 73 95 72
3 73 87 96
3 73 97 95
3 73 96 97
3 97 96 98
3 98 96 87
3 97 98 99
3 99 95 97
3 99 100 95
3 98 87 101
3 102 95 100
3 102 94 95
3 103 105 104
3 104 105 106
3 107 105 103
3 105 107 108
3 108 109 105
3 109 110 105
3 110 111 105
3 112 105 111
3 113 105 112
3 105 113 114
3 115 106 105
3 114 115 105
3 79 103 104
3 79 104 106
3 79 77 103
3 79 106 116
3 78 79 116
3 78 116 81
3 117 81 116
3 117 116 118
3 119 117 118
3 119 120 117
3 120 81 117
3 119 121 120
3 122 121 119
3 123 122 119
3 123 119 124
3 119 118 124
3 113 124 114
3 113 123 124
3 124 115 114
3 124 118 115
3 125 122 123
3 122 125 126
3 122 126 127
3 122 127 121
3 125 123 128
3 92 125 128
3 126 125 92
3 92 128 129
3 90 92 129
3 90 129 89
3 126 92 93
3 128 123 113
3 128 113 112
3 129 128 112
3 129 112 111
3 89 129 111
3 89 111 110
3 83 89 110
3 83 110 109
3 130 132 131
3 130 133 132
3 134 130 131
3 130 134 135
3 135 134 136
3 137 136 134
3 134 138 137
3 137 138 139
3 139 138 140
3 138 134 140
3 139 140 141
3 137 139 142
3 142 136 137
3 143 141 140
3 134 143 140
3 143 144 141
3 143 134 145
3 145 134 146
3 132 147 131
3 132 148 147
3 149 147 148
3 149 146 134
3 134 147 149
3 149 148 150
3 151 135 136
3 151 130 135
3 151 133 130
3 131 147 134
3 151 136 152
3 142 152 136
3 153 155 154
3 153 156 155
3 153 154 157
3 153 157 158
3 159 153 158
3 159 158 160
3 161 153 159
3 161 156 153
3 65 156 161
3 65 155 156
3 65 161 64
3 162 158 157
3 162 163 158
3 164 158 163
3 164 160 158
3 58 164 163
3 162 58 163
3 58 57 164
3 65 66 155
3 162 68 58
3 120 82 81
3 165 167 166
3 165 168 167
3 166 167 169
3 166 169 170
3 101 88 171
3 101 87 88
3 88 102 171
3 88 94 102
3 172 174 173
3 172 175 174
3 173 174 176
3 175 176 174
3 173 176 177
3 175 178 176
3 179 173 177
3 179 172 173
3 180 182 181
3 180 183 182
3 181 182 184
3 183 184 182
3 181 184 185
3 183 186 184
3 187 181 185
3 187 180 181
3 188 143 145
3 188 144 143
3 188 145 146
3 188 146 189
3 150 189 146
3 150 146 149
3 107 71 108
3 107 70 71
3 77 70 107
3 77 107 103
3 71 109 108
3 71 83 109
3 118 106 115
3 118 116 106
