mtllib Meloetta_Voice.mtl
v 0.182367 0.110972 0
vt 0.809087 0.119251
vn 0.9925447 -0.121882 0
v 0.178569 0.02830061 0.116543
vt 0.621447 0
vn 0.285146 -0.309313 0.907203
v 0.189929 0.01760191 0
vt 0.809087 0
vn 0.9870284 -0.1605461 0
v 0.153967 0.110972 0.116543
vt 0.621447 0.119251
vn 0.9682462 -0.08262762 0.2359491
v 0.178569 0.02830061 -0.116543
vt 0.996727 0
vn 0.2851469 -0.3093129 -0.9072027
v 0.177202 0.19861 0.116543
vt 0.621447 0.239594
vn 0.9657623 0.109162 0.2353441
v 0.153967 0.110972 -0.116543
vt 0.996727 0.119251
vn 0.9682462 -0.08262762 -0.2359491
v 0.205602 0.19861 0
vt 0.809087 0.239594
vn 0.9953061 0.09677631 0
v 0.177202 0.19861 -0.116543
vt 0.996727 0.239594
vn 0.9657623 0.109162 -0.2353441
v 0.167209 0.01760191 0
vt 0.433622 0
vn -0.8437164 -0.5367892 0
vt 0.621262 0
v 0.165965 0.266337 0
vt 0.809087 0.33001
v 0.137565 0.266337 0.116543
vt 0.621447 0.33001
vn 0.969104 0.0711823 0.236158
vt 0.621262 0.119251
vn -0.9747149 0.0512857 0.217487
v 0.163024 0.371636 0.116543
vt 0.621447 0.504048
vn 0.9708425 -0.04033898 0.2362999
v 0.137565 0.266337 -0.116543
vt 0.996727 0.33001
vn 0.969104 0.0711823 -0.236158
v 0.125567 0.110972 0
vt 0.433622 0.119251
vn -0.9997617 0.0218311 0
v 0.148802 0.19861 0
vt 0.433622 0.239594
vn -0.9936724 -0.1123169 0
vt 0.621262 0.239594
vn -0.9672621 -0.09404951 0.235709
v 0.191424 0.371636 0
vt 0.809087 0.504048
vn 0.9991595 -0.04099128 0
v 0.1467 0.444411 0.116543
vt 0.621447 0.610424
vn 0.8417301 0.470743 0.26437
v 0.163024 0.371636 -0.116543
vt 0.996727 0.504048
vn 0.9708425 -0.04033898 -0.2362999
vn -0.9747149 0.0512857 -0.217487
vt 0.621262 0.33001
v 0.172061 0.457193 0
vt 0.809087 0.629921
vn 0.8732805 0.4872177 0
v 0.0794238 0.509369 0.116543
vt 0.621447 0.718721
vn 0.4842258 0.8212557 0.3017689
v 0.1467 0.444411 -0.116543
vt 0.996727 0.610424
vn 0.8417301 0.470743 -0.26437
vn -0.9672619 -0.09404948 -0.23571
v 0.109165 0.266337 0
vt 0.433622 0.33001
vn -0.9973133 -0.07325432 0
v 0.134624 0.371636 0
vt 0.433622 0.504048
vt 0.621262 0.504048
vn -0.9652655 0.02486501 0.2600851
v 0.103429 0.541902 0
vt 0.809087 0.718721
vn 0.51871 0.85495 -0.0007751419
v 0.000179517 0.565354 0
vt 0.809087 0.805554
vn 0.00508931 0.999986 -0.00149264
v 0 0.52767 0.116543
vt 0.621447 0.805554
vn 0.005031758 0.9509766 0.3092219
v 0.0794238 0.509369 -0.116543
vt 0.996727 0.718721
vn 0.4820177 0.8219095 -0.3035188
vt 0.621262 0.610424
vn -0.789461 -0.526404 0.315674
v -0.0843084 0.509387 0.116543
vt 0.621447 0.895355
vn -0.364697 0.877075 0.312627
v 0 0.526808 -0.116543
vt 0.996727 0.805554
vn 0.00502062 0.950056 -0.312039
vn -0.9652655 0.02486511 -0.2600851
v 0.108816 0.424885 0
vt 0.433622 0.577915
vn -0.8267789 -0.562527 0
vt 0.621262 0.718721
vn -0.4809609 -0.8138279 0.32613
v -0.101932 0.543812 0
vt 0.809087 0.895355
vn -0.385821 0.9225639 0.004243549
v -0.157865 0.444515 0.0763915
vt 0.621447 1
vn -0.7199409 0.6298279 0.2915509
v -0.0843084 0.509387 -0.116543
vt 0.996727 0.895355
vn -0.3367068 0.8876115 -0.3142838
vn -0.789461 -0.526404 -0.315674
v 0.0557931 0.476484 0
vt 0.433622 0.718721
vn -0.4960478 -0.8682947 0.00102069
vt 0.621262 0.805554
vn 0.0148001 -0.949163 0.314437
v -0.171398 0.46368 0
vt 0.809087 1
vn -0.7543849 0.653966 0.05685049
v -0.162639 0.45179 -0.0763915
vt 0.996727 1
vn -0.6924511 0.6728791 -0.2602791
vn -0.4794291 -0.8152121 -0.324926
v -0.000179517 0.490227 0
vt 0.433622 0.805554
vn 0.01605959 -0.9998685 0.002252999
vt 0.621262 0.895355
vn 0.3358319 -0.8924056 0.3013788
vn 0.0147987 -0.9503451 -0.310846
v -0.0695169 0.471982 0
vt 0.433622 0.895355
vn 0.3614761 -0.9323223 -0.0105031
vt 0.621262 1
vn 0.4971857 -0.8213305 0.2796828
vn 0.312408 -0.896278 -0.314781
v -0.146647 0.431964 0
vt 0.433622 1
vn 0.492829 -0.869788 -0.0242579
vn 0.443453 -0.837536 -0.319191
v -0.17694 0.376836 -0.00169013
vt 0.324168 0.779451
vn -0.9980928 0.04333689 -0.04396269
v -0.109822 0.305055 -0.136215
vt 0.34809 0.689725
vn -0.6116282 -0.5305692 -0.5868623
v -0.162235 0.305055 -0.00169013
vt 0.324168 0.689725
vn -0.8782225 -0.4764097 -0.04194028
v -0.117706 0.384325 -0.145411
vt 0.351926 0.788812
vn -0.7033833 0.05077012 -0.7089953
v -0.112764 0.288023 0.102609
vt 0.162924 0.675219
vn -0.6323377 -0.6188878 0.4659688
v -0.102503 0.463595 -0.133653
vt 0.347021 0.887899
vn -0.6014959 0.52666 -0.6006929
v -0.133201 0.363582 0.105109
vt 0.159175 0.762884
vn -0.6876061 -0.04111201 0.7249191
v -0.153235 0.463595 -0.00169013
vt 0.324168 0.887899
vn -0.8904917 0.4549439 0.007109058
v -0.118027 0.428762 0.111369
vt 0.154073 0.846607
vn -0.582892 0.344853 0.73574
v -0.094187 0.241544 -0.00169013
vt 0.324168 0.610336
vn -0.476602 -0.8778011 -0.0481228
v 0 0.322679 -0.180685
vt 0.36664 0.711755
vn 0 -0.2586299 -0.9659765
v 0 0.245156 -0.117412
vt 0.340246 0.614851
vn 0 -0.870502 -0.492165
v -0.094187 0.537097 -0.00169013
vt 0.324168 0.979777
vn -0.5376532 0.8396813 0.07657893
v 0 0.442226 -0.173317
vt 0.363567 0.861189
vn 0 0.3007081 -0.9537162
v 0 0.523362 -0.109923
vt 0.337122 0.962608
vn 0 0.8444858 -0.5355779
v 0 0.218297 -0.00169013
vt 0.324168 0.581277
vn 0 -0.9995146 -0.03115499
v 0.109822 0.305055 -0.136215
vn 0.6116282 -0.5305692 -0.5868623
v 0.094187 0.241544 -0.00169013
vn 0.476602 -0.8778011 -0.0481228
v 0 0.23824 0.100416
vt 0.166213 0.622037
vn 0 -0.9267632 0.3756461
v 0.102503 0.463595 -0.133653
vn 0.6014959 0.52666 -0.6006929
v 0 0.553275 -0.00169013
vt 0.324168 1
vn 0 0.999769 -0.0214947
v 0.094187 0.537097 -0.00169013
vn 0.5376532 0.8396813 0.07657883
v 0 0.527544 0.0865241
vt 0.187047 0.967835
vn 0 0.8064378 0.5913189
v 0.117706 0.384325 -0.145411
vn 0.7033833 0.05077022 -0.7089953
v 0.112764 0.288023 0.102609
vn 0.6323377 -0.6188878 0.4659688
v 0.162235 0.305055 -0.00169013
vn 0.8782225 -0.4764097 -0.04194018
v 0.118027 0.428762 0.111369
vn 0.582892 0.344853 0.73574
v 0.153235 0.463595 -0.00169013
vn 0.8904917 0.4549439 0.007108948
v 0.17694 0.376836 -0.00169013
vn 0.9980928 0.04333689 -0.04396269
v 0.133201 0.363582 0.105109
vn 0.687606 -0.0411122 0.7249191
v 0.0565025 0.0524583 -0.0948377
vt 0.166246 0.21146
vn -0.0162991 -0.9655989 -0.259525
v -0.0562738 0.102303 -0.0969203
vt 0.0646162 0.273766
vn -0.405811 0.381809 -0.830385
v 0.0562741 0.102303 -0.0969202
vt 0.16604 0.273766
vn 0.4173989 0.309195 -0.8545038
v -0.056388 0.0884209 -0.095879
vt 0.0645133 0.256414
vn -0.2042951 -0.9773583 -0.05508322
v 0.107033 0.102303 -0.00973218
vt 0.211783 0.273766
vn 0.9642747 0.2642799 -0.0181786
v 0.0565024 0.0829129 -0.0102938
vt 0.166246 0.249529
vn -0.3497429 -0.9368278 -0.005790169
v 0.108341 0.0347323 -0.00973218
vt 0.212961 0.189303
vn 0.9918109 0.125043 0.0259883
v 0.116394 0.0203408 -0.018604
vt 0.220218 0.171313
vn -0.6850871 -0.7278231 -0.0304829
v 0.0286783 0.21663 -0.0429434
vt 0.141172 0.416675
vn 0.301173 0.5783589 -0.7581529
v -0.107033 0.102303 -0.00973218
vt 0.0188738 0.273766
vn -0.9832815 -0.1803509 -0.02512169
v -0.0286781 0.21663 -0.0429434
vt 0.0894845 0.416675
vn -0.360177 0.600611 -0.71382
v -0.0573563 0.21663 -8.67862E-05
vt 0.0636407 0.416675
vn -0.847905 0.5298691 0.0172005
v 0.0565024 0.0524583 0.0745
vn -0.0384589 -0.961611 0.271708
v 0.0573565 0.21663 -8.67862E-05
vt 0.167016 0.416675
vn 0.847905 0.5298691 0.0172012
v 0.056274 0.102303 0.0745
vn 0.4601859 0.221423 0.8597679
v -0.056388 0.0884209 0.0745
vn -0.1997041 -0.9784103 0.05321262
v 0 0.229951 0
vt 0.115328 0.433327
v -0.0562739 0.102303 0.0745
vn -0.406204 0.281646 0.869295
v -0.0286781 0.21663 0.0418164
vn -0.3003081 0.4749433 0.8271904
v 0.0286783 0.21663 0.0418164
vn 0.3643279 0.5117379 0.7780678
v -0.212144 0.395578 0
vt 0.0679809 0.0601433
vn -1 0 0
v -0.162144 0.450579 0.0952628
vt 0.0499286 0.0705658
vn 0 0.5000002 0.8660253
v -0.162144 0.505579 0
vt 0.0679809 0.0809883
v -0.162144 0.340578 0.0952628
vt 0.0499286 0.0497208
vn 0 -0.5000002 0.8660253
v -0.162144 0.450579 -0.0952628
vt 0.0860332 0.0705658
vn 0 0.4999998 -0.8660256
v -0.162144 0.285578 0
vt 0.0679809 0.0392982
vn 0 -1 0
v -0.162144 0.340578 -0.0952628
vt 0.0860332 0.0497208
vn 0 -0.5000002 -0.8660253
v -0.112144 0.395579 0
vn 1 0 0
v -0.0552119 0.0745391 0.070945
vt 0.0606844 0.574529
vn -0.3508581 -0.6215431 0.7004162
v -0.104589 0.102303 -0.009732
vt 0.0276707 0.593092
vn -0.9994916 0.03188279 6.804018E-05
v -0.105867 0.0745391 -0.00973218
vt 0.0268162 0.574529
vn -0.947794 -0.318882 -0.000859552
v -0.0549888 0.102303 0.070945
vt 0.0608337 0.593092
vn -0.639073 0.0172763 0.768952
v -0.0560288 0 -0.00973218
vt 0.0601383 0.524692
vn -0.113829 -0.9934903 -0.004463921
v 0.0552121 0.0745391 0.070945
vt 0.134515 0.574529
vn 0.0969981 -0.860016 0.500963
v 0 0.0571219 -0.00973218
vt 0.0975995 0.562884
v -0.0549888 0.102303 -0.0920139
vn -0.651322 0.0353866 -0.7579759
v -0.0552119 0.0745391 -0.0928942
vn -0.352815 -0.629968 -0.691854
v 0.0560288 0 -0.00973218
vt 0.135061 0.524692
vn 0.1138281 -0.9934905 -0.004463812
v 0.105867 0.0745391 -0.00973218
vt 0.168383 0.574529
vn 0.8312989 -0.555824 -0.00135287
v 0.0552122 0.0745391 -0.0928942
vn 0.09604481 -0.8683361 -0.486588
v -0.192144 0.582479 0.0451876
vt 0.0594178 0.095561
v -0.162144 0.493271 0
vt 0.0679809 0.0786561
vn 0 -0.8920802 -0.4518771
v -0.162144 0.568923 0.07195
vt 0.0543463 0.0929921
vn 0 -0.4518771 0.8920802
v -0.162144 0.596036 0.0184252
vt 0.0644893 0.09813
vn 0 0.4518771 -0.8920802
v -0.162144 0.671687 0.0903753
vt 0.0508547 0.112466
vn 0 0.8920804 0.4518767
v -0.132144 0.582479 0.0451876
v -0.192144 0.582479 -0.0451874
vt 0.0765439 0.095561
vn 0 -0.8920829 0.4518719
v -0.162144 0.596036 -0.018425
vt 0.0714724 0.09813
vn 0 0.4518739 0.8920819
v -0.162144 0.568923 -0.0719499
vt 0.0816154 0.0929922
vn 0 -0.4518739 -0.8920819
v -0.162144 0.671687 -0.0903749
vt 0.085107 0.112466
vn 0 0.8920825 -0.4518727
v -0.132144 0.582479 -0.0451874
v -0.121886 0.234395 0.0852295
vt 0.0526571 0.0306259
v -0.162144 0.27249 0.0545428
vt 0.0592107 0.0345312
vn 0 0.77876 -0.627322
v -0.162144 0.25965 0.116581
vt 0.0487518 0.0371795
vn 0 0.627322 0.77876
v -0.162144 0.20914 0.0538779
vt 0.0565624 0.0240723
vn 0 -0.627322 -0.77876
v -0.162144 0.1963 0.115916
vt 0.0461034 0.0267206
vn 0 -0.77876 0.627322
v -0.202403 0.234395 0.0852295
v 0 0.284135 0.145124
vt 0.000614239 0.688921
v -0.0617962 0.286079 0.127224
vt 0.0784213 0.692302
vn -0.3704241 -0.3483671 0.8610612
vt 0.000614239 0.61192
v 0 0.351311 0.161348
vt 0.000614239 0.786036
vn 0 -0.0292829 0.9995711
v 0.0617962 0.286079 0.127224
vn 0.3704241 -0.3483671 0.8610612
vt 0.156228 0.695683
v 0 0.476589 0.134622
vt 0.00163081 0.904142
vn 0 0.5243381 0.8515102
vt 0.144272 0.846607
v 0 0.402456 0.157605
vt 0.00163081 0.811476
vn 0 0.111763 0.9937349
vt 0.00163081 0.967835
v 0.111215 0.185604 0.0957666
vt 0.274288 0.307609
vn -0.3102109 0.7898948 0.5289949
v 0.104513 0.175864 0.0524931
vt 0.306508 0.364382
vn -0.4487828 0.3688638 -0.8139616
v 0.0961677 0.149122 0.0875302
vt 0.329185 0.303608
vn -0.8380712 -0.4899031 0.2400661
v 0.143949 0.177053 0.0738434
vt 0.295705 0.334825
vn 0.838071 0.489904 -0.240065
v 0.135603 0.150311 0.10888
vt 0.318382 0.274051
vn 0.4487831 -0.3688641 0.8139613
v 0.128901 0.14057 0.065607
vt 0.350602 0.330824
vn 0.3102109 -0.7898948 -0.5289949
v -0.111215 0.185604 0.0957665
vn 0.3102108 0.7898955 0.5289937
v -0.0961677 0.149122 0.0875302
vn 0.8380712 -0.4899031 0.2400661
v -0.104513 0.175864 0.0524931
vn 0.448783 0.368863 -0.8139619
v -0.135603 0.150311 0.10888
vn -0.448782 -0.368864 0.813962
v -0.143949 0.177053 0.0738434
vn -0.8380713 0.4899032 -0.2400651
v -0.128901 0.14057 0.065607
vn -0.3102111 -0.7898951 -0.5289941
v -0.162144 0.285579 0
v -0.179465 0.227254 0.0733565
vt 0.0540798 0.0282457
vn -0.7999672 0.5472111 0.2461961
v -0.144824 0.227254 0.0733565
vn 0.7999685 0.5472097 0.2461949
vn 0 -0.5761207 -0.8173646
v 0.070185 0.204079 -0.00976861
vt 0.293396 0.464123
vn -0.7851297 0.100895 -0.6110578
v 0.118665 0.157492 0.0650408
vt 0.327015 0.338857
vn -0.215622 -0.8854529 -0.41168
v 0.111056 0.176867 0.0780164
vt 0.294182 0.328869
vn -0.7431691 0.4578471 0.4879301
v 0.13062 0.176427 0.0669622
vt 0.299529 0.344247
vn 0.7411647 0.5494188 -0.3857639
v -0.070185 0.204079 -0.00976861
vn 0.7851332 0.100889 -0.6110542
v -0.111056 0.176867 0.0780164
vn 0.7431683 0.4578482 0.4879302
v -0.118665 0.157492 0.0650407
vn 0.215624 -0.8854529 -0.4116789
v -0.130621 0.176427 0.0669622
vn -0.7411642 0.5494201 -0.3857631
o merged_0_0_node
g polygon_0
usemtl mat_body_mat_id
f 1/1/1 2/2/2 3/3/3
f 1/1/1 4/4/4 2/2/2
f 1/1/1 3/3/3 5/5/5
f 1/1/1 6/6/6 4/4/4
f 1/1/1 5/5/5 7/7/7
f 1/1/1 8/8/8 6/6/6
f 1/1/1 7/7/7 9/9/9
f 1/1/1 9/9/9 8/8/8
f 3/3/3 10/10/10 5/5/5
f 3/3/3 2/11/2 10/10/10
f 6/6/6 8/8/8 11/12/8
f 6/6/6 11/12/8 12/13/11
f 8/8/8 9/9/9 11/12/8
f 2/11/2 4/14/12 10/10/10
f 12/13/11 11/12/8 13/15/13
f 9/9/9 14/16/14 11/12/8
f 4/14/12 15/17/15 10/10/10
f 4/14/12 16/18/16 15/17/15
f 4/14/12 6/19/17 16/18/16
f 13/15/13 11/12/8 17/20/18
f 13/15/13 17/20/18 18/21/19
f 14/16/14 19/22/20 11/12/8
f 11/12/8 19/22/20 17/20/18
f 10/10/10 15/17/15 7/14/21
f 10/10/10 7/14/21 5/11/5
f 15/17/15 16/18/16 7/14/21
f 6/19/17 12/23/17 16/18/16
f 18/21/19 17/20/18 20/24/22
f 18/21/19 20/24/22 21/25/23
f 19/22/20 22/26/24 17/20/18
f 17/20/18 22/26/24 20/24/22
f 7/14/21 16/18/16 9/19/25
f 12/23/17 23/27/26 16/18/16
f 12/23/17 24/28/15 23/27/26
f 12/23/17 13/29/27 24/28/15
f 21/25/23 20/24/22 25/30/28
f 21/25/23 25/30/28 26/31/29
f 21/25/23 26/31/29 27/32/30
f 22/26/24 28/33/31 20/24/22
f 25/30/28 28/33/31 26/31/29
f 25/30/28 20/24/22 28/33/31
f 9/19/25 16/18/16 14/23/25
f 23/27/26 24/28/15 14/23/25
f 23/27/26 14/23/25 16/18/16
f 13/29/27 18/34/32 24/28/15
f 27/32/30 26/31/29 29/35/33
f 28/33/31 30/36/34 26/31/29
f 14/23/25 24/28/15 19/29/35
f 18/34/32 31/37/36 24/28/15
f 18/34/32 21/38/37 31/37/36
f 29/35/33 26/31/29 32/39/38
f 29/35/33 32/39/38 33/40/39
f 30/36/34 34/41/40 26/31/29
f 26/31/29 34/41/40 32/39/38
f 19/29/35 24/28/15 22/34/41
f 24/28/15 31/37/36 22/34/41
f 21/38/37 35/42/42 31/37/36
f 21/38/37 27/43/43 35/42/42
f 33/40/39 32/39/38 36/44/44
f 34/41/40 37/45/45 32/39/38
f 32/39/38 37/45/45 36/44/44
f 22/34/41 31/37/36 28/38/46
f 31/37/36 35/42/42 28/38/46
f 27/43/43 38/46/47 35/42/42
f 27/43/43 29/47/48 38/46/47
f 28/38/46 35/42/42 30/43/49
f 35/42/42 38/46/47 30/43/49
f 29/47/48 39/48/50 38/46/47
f 29/47/48 33/49/51 39/48/50
f 30/43/49 38/46/47 34/47/52
f 38/46/47 39/48/50 34/47/52
f 33/49/51 40/50/53 39/48/50
f 34/47/52 39/48/50 37/49/54
f 37/49/54 39/48/50 40/50/53
f 41/51/55 42/52/56 43/53/57
f 41/51/55 44/54/58 42/52/56
f 41/51/55 43/53/57 45/55/59
f 41/51/55 46/56/60 44/54/58
f 41/51/55 45/55/59 47/57/61
f 41/51/55 48/58/62 46/56/60
f 41/51/55 47/57/61 49/59/63
f 41/51/55 49/59/63 48/58/62
f 42/52/56 50/60/64 43/53/57
f 42/52/56 44/54/58 51/61/65
f 42/52/56 52/62/66 50/60/64
f 42/52/56 51/61/65 52/62/66
f 43/53/57 50/60/64 45/55/59
f 46/56/60 48/58/62 53/63/67
f 46/56/60 54/64/68 44/54/58
f 46/56/60 53/63/67 55/65/69
f 46/56/60 55/65/69 54/64/68
f 44/54/58 54/64/68 51/61/65
f 48/58/62 49/59/63 53/63/67
f 52/62/66 56/66/70 50/60/64
f 52/62/66 51/61/65 57/52/71
f 52/62/66 58/60/72 56/66/70
f 52/62/66 57/52/71 58/60/72
f 45/55/59 50/60/64 59/67/73
f 56/66/70 58/60/72 59/67/73
f 56/66/70 59/67/73 50/60/64
f 55/65/69 60/56/74 54/64/68
f 55/65/69 53/63/67 61/68/75
f 55/65/69 62/63/76 60/56/74
f 55/65/69 61/68/75 62/63/76
f 49/59/63 63/69/77 53/63/67
f 61/68/75 63/69/77 62/63/76
f 61/68/75 53/63/67 63/69/77
f 51/61/65 64/54/78 57/52/71
f 51/61/65 54/64/68 64/54/78
f 54/64/68 60/56/74 64/54/78
f 58/60/72 65/55/79 59/67/73
f 58/60/72 57/52/71 66/53/80
f 58/60/72 66/53/80 65/55/79
f 62/63/76 63/69/77 67/59/81
f 62/63/76 68/58/82 60/56/74
f 62/63/76 67/59/81 68/58/82
f 64/54/78 69/51/83 57/52/71
f 64/54/78 60/56/74 69/51/83
f 68/58/82 67/59/81 69/51/83
f 68/58/82 69/51/83 60/56/74
f 66/53/80 69/51/83 65/55/79
f 66/53/80 57/52/71 69/51/83
f 67/59/81 70/57/84 69/51/83
f 69/51/83 70/57/84 65/55/79
f 71/70/85 72/71/86 73/72/87
f 71/70/85 74/73/88 72/71/86
f 71/70/85 73/72/87 75/74/89
f 71/70/85 76/75/90 74/73/88
f 71/70/85 75/74/89 77/76/91
f 71/70/85 78/77/92 76/75/90
f 71/70/85 77/76/91 78/77/92
f 72/71/86 79/78/93 73/72/87
f 72/71/86 74/73/88 80/79/94
f 72/71/86 81/80/95 79/78/93
f 72/71/86 80/79/94 82/81/96
f 72/71/86 82/81/96 81/80/95
f 75/74/89 83/70/97 77/76/91
f 75/74/89 73/72/87 84/82/98
f 75/74/89 85/72/99 83/70/97
f 75/74/89 84/82/98 85/72/99
f 78/77/92 83/70/97 76/75/90
f 78/77/92 77/76/91 83/70/97
f 73/72/87 79/78/93 84/82/98
f 74/73/88 86/73/100 80/79/94
f 74/73/88 76/75/90 86/73/100
f 76/75/90 83/70/97 86/73/100
f 82/81/96 87/83/29 81/80/95
f 82/81/96 80/79/94 88/71/101
f 82/81/96 89/80/102 87/83/29
f 82/81/96 88/71/101 89/80/102
f 88/71/101 83/70/97 85/72/99
f 88/71/101 80/79/94 86/73/100
f 88/71/101 85/72/99 89/80/102
f 88/71/101 86/73/100 83/70/97
f 79/78/93 87/83/29 84/82/98
f 79/78/93 81/80/95 87/83/29
f 85/72/99 90/78/103 89/80/102
f 85/72/99 84/82/98 90/78/103
f 90/78/103 87/83/29 89/80/102
f 90/78/103 84/82/98 87/83/29
f 91/84/104 92/85/105 93/86/29
f 91/84/104 94/87/106 92/85/105
f 91/84/104 93/86/29 95/88/107
f 91/84/104 96/89/108 94/87/106
f 91/84/104 95/88/107 97/90/109
f 91/84/104 97/90/109 96/89/108
f 92/85/105 98/84/110 93/86/29
f 92/85/105 94/87/106 98/84/110
f 98/84/110 97/90/109 95/88/107
f 98/84/110 94/87/106 96/89/108
f 98/84/110 95/88/107 93/86/29
f 98/84/110 96/89/108 97/90/109
f 99/91/111 100/92/112 101/93/113
f 99/91/111 102/94/114 100/92/112
f 99/91/111 101/93/113 103/95/115
f 99/91/111 104/96/116 102/94/114
f 99/91/111 103/95/115 105/97/108
f 99/91/111 105/97/108 104/96/116
f 100/92/112 106/94/117 101/93/113
f 103/95/115 107/91/118 105/97/108
f 103/95/115 101/93/113 107/91/118
f 101/93/113 106/94/117 107/91/118
f 104/96/116 105/97/108 108/98/119
f 104/96/116 108/98/119 109/99/120
f 106/94/117 110/96/121 107/91/118
f 110/96/121 105/97/108 107/91/118
f 110/96/121 109/99/120 108/98/119
f 110/96/121 108/98/119 105/97/108
f 111/100/104 112/101/122 113/102/123
f 111/100/104 114/103/124 112/101/122
f 111/100/104 113/102/123 115/104/125
f 111/100/104 115/104/125 114/103/124
f 112/101/122 116/100/110 113/102/123
f 112/101/122 114/103/124 116/100/110
f 116/100/110 115/104/125 113/102/123
f 116/100/110 114/103/124 115/104/125
f 117/105/104 112/101/126 118/106/127
f 117/105/104 119/107/128 112/101/126
f 117/105/104 118/106/127 120/108/129
f 117/105/104 120/108/129 119/107/128
f 112/101/126 121/105/110 118/106/127
f 112/101/126 119/107/128 121/105/110
f 121/105/110 120/108/129 118/106/127
f 121/105/110 119/107/128 120/108/129
f 122/109/110 123/110/130 124/111/131
f 122/109/110 125/112/132 123/110/130
f 122/109/110 124/111/131 126/113/133
f 122/109/110 126/113/133 125/112/132
f 123/110/130 127/109/104 124/111/131
f 123/110/130 125/112/132 127/109/104
f 127/109/104 126/113/133 124/111/131
f 127/109/104 125/112/132 126/113/133
f 128/114/123 129/115/134 59/116/73
f 128/114/123 130/117/135 129/115/134
f 128/114/123 59/116/73 131/115/136
f 128/114/123 131/115/136 130/117/135
f 129/115/134 45/118/59 59/116/73
f 131/115/136 59/116/73 65/118/79
f 132/119/137 49/120/63 133/121/138
f 132/119/137 63/122/77 49/120/63
f 132/119/137 133/121/138 67/120/81
f 132/119/137 67/120/81 63/122/77
f 134/123/139 135/124/140 136/125/141
f 134/123/139 137/126/142 135/124/140
f 134/123/139 136/125/141 138/127/143
f 134/123/139 138/127/143 137/126/142
f 135/124/140 139/128/144 136/125/141
f 135/124/140 137/126/142 139/128/144
f 139/128/144 138/127/143 136/125/141
f 139/128/144 137/126/142 138/127/143
f 140/123/145 141/125/146 142/124/147
f 140/123/145 143/127/148 141/125/146
f 140/123/145 142/124/147 144/126/149
f 140/123/145 144/126/149 143/127/148
f 141/125/146 145/128/150 142/124/147
f 141/125/146 143/127/148 145/128/150
f 145/128/150 144/126/149 142/124/147
f 145/128/150 143/127/148 144/126/149
f 146/89/129 147/129/151 148/129/152
f 146/89/129 125/112/153 147/129/151
f 146/89/129 148/129/152 125/112/153
f 149/130/154 150/131/155 151/132/156
f 149/130/154 152/133/157 150/131/155
f 149/130/154 151/132/156 152/133/157
f 153/130/158 154/132/159 155/131/160
f 153/130/158 156/133/161 154/132/159
f 153/130/158 155/131/160 156/133/161
vt 0.944266 0.876575
vt 0.775287 0.762141
vt 0.47138 0.762141
vt 0.0174152 0.856552
vt 0.0174152 0.940005
vt 0.838683 1.00076
o merged_1_0_node
g polygon_0
usemtl TEX_ANIM_EYE_mat_id
f 47/134/61 45/135/59 129/136/134
f 70/134/84 130/137/135 131/136/136
f 130/137/135 133/138/138 47/134/61
f 47/134/61 133/138/138 49/139/63
f 130/137/135 70/134/84 133/138/138
f 133/138/138 70/134/84 67/139/81
f 70/134/84 131/136/136 65/135/79
f 129/136/134 130/137/135 47/134/61
