ply
format ascii 1.0
element vertex 648
property float x
property float y
property float z
property uchar red
property uchar green
property uchar blue
element face 808
property list uchar int vertex_index
end_header
0.5556 -0.0362 1.06969 220 101 96
0.5556 -0.0362 1.33751 220 101 96
0.61156 -0.07888 1.33751 220 101 96
0.61156 -0.07888 1.06969 220 101 96
0.5556 0.22497 1.06969 220 101 96
0.5556 0.22497 1.33751 220 101 96
0.61156 0.26765 1.06969 220 101 96
0.61156 0.26765 1.33751 220 101 96
0.93393 -0.07888 1.06969 220 101 96
0.93393 -0.07888 1.33751 220 101 96
0.93393 0.26765 1.33751 220 101 96
0.93393 0.26765 1.06969 220 101 96
0.99049 -0.0362 1.06969 220 101 96
0.99049 -0.0362 1.33751 220 101 96
0.99049 0.22497 1.33751 220 101 96
0.99049 0.22497 1.06969 220 101 96
0.64006 0.233 1.37666 220 101 96
0.90553 0.233 1.37666 220 101 96
0.5953 0.19886 1.37666 220 101 96
0.5953 -0.01008 1.37666 220 101 96
0.64006 -0.04423 1.37666 220 101 96
0.90553 -0.04423 1.37666 220 101 96
0.95077 -0.01008 1.37666 220 101 96
0.95077 0.19886 1.37666 220 101 96
0.99049 0.17927 1.29064 220 101 96
0.99049 0.17927 1.11656 220 101 96
0.9607 0.20538 1.03368 220 101 96
0.91263 0.24166 1.03368 220 101 96
0.63294 0.24166 1.03368 220 101 96
0.58538 0.20538 1.03368 220 101 96
0.58538 -0.01661 1.03368 220 101 96
0.63294 -0.05289 1.03368 220 101 96
0.91263 -0.05289 1.03368 220 101 96
0.9607 -0.01661 1.03368 220 101 96
0.99049 0.00951 1.11656 220 101 96
1.30973 0.17927 1.11656 220 101 96
1.16014 0.00951 1.11656 220 101 96
1.30973 0.17927 1.29064 220 101 96
0.99049 0.00951 1.29064 220 101 96
1.16014 0.00951 1.29064 220 101 96
1.36485 0.13011 1.11656 220 101 96
1.36485 0.13011 1.29064 220 101 96
1.36485 0.00965 1.11656 220 101 96
1.36485 0.00965 1.29064 220 101 96
0.90553 -0.04423 1.37666 230 105 100
0.64006 -0.04423 1.37666 230 105 100
0.5953 -0.01008 1.37666 230 105 100
0.95077 -0.01008 1.37666 230 105 100
0.95077 0.19886 1.37666 230 105 100
0.5953 0.19886 1.37666 230 105 100
0.90553 0.233 1.37666 230 105 100
0.64006 0.233 1.37666 230 105 100
0.99049 0.17927 1.29064 230 105 100
1.30973 0.17927 1.29064 230 105 100
1.16014 0.00951 1.29064 230 105 100
0.99049 0.00951 1.29064 230 105 100
1.36485 0.13011 1.29064 230 105 100
1.36485 0.00965 1.29064 230 105 100
1.16014 0.00951 1.29064 207 208 213
1.16014 -0.04485 1.29064 207 208 213
1.16014 -0.04485 1.11656 207 208 213
1.16014 0.00951 1.11656 207 208 213
1.11481 -0.08667 1.14992 207 208 213
1.11481 -0.08667 1.25728 207 208 213
1.11481 -0.22651 1.14992 207 208 213
1.11481 -0.22651 1.25728 207 208 213
1.16014 -0.26832 1.11656 207 208 213
1.36485 -0.26832 1.11656 207 208 213
1.36485 -0.04485 1.11656 207 208 213
1.36485 -0.39591 1.11656 207 208 213
1.16014 -0.39591 1.11656 207 208 213
1.16014 -0.26832 1.29064 207 208 213
1.16014 -0.39591 1.29064 207 208 213
1.36485 -0.39591 1.29064 207 208 213
1.36485 -0.26832 1.29064 207 208 213
1.41018 -0.08667 1.14992 207 208 213
1.41018 -0.08667 1.25728 207 208 213
1.36485 -0.04485 1.29064 207 208 213
1.41018 -0.22651 1.14992 207 208 213
1.41018 -0.22651 1.25728 207 208 213
0.85902 -0.51977 1.23396 161 132 180
0.85902 -0.51977 1.13654 161 132 180
0.85902 -0.41243 1.13654 161 132 180
0.85902 -0.41243 1.23396 161 132 180
0.87774 -0.39591 1.25394 161 132 180
0.87774 -0.39591 1.11656 161 132 180
1.03312 -0.39591 1.25394 161 132 180
1.03312 -0.39591 1.11656 161 132 180
0.87774 -0.53628 1.11656 161 132 180
1.03312 -0.53628 1.11656 161 132 180
1.16014 -0.39591 1.11656 161 132 180
1.16014 -0.39591 1.29064 161 132 180
1.36485 -0.39591 1.11656 161 132 180
1.45963 -0.53628 1.11656 161 132 180
1.45963 -0.39591 1.11656 161 132 180
1.49008 -0.53628 1.1462 161 132 180
1.03312 -0.53628 1.25394 161 132 180
0.87774 -0.53628 1.25394 161 132 180
1.49008 -0.39591 1.1462 161 132 180
1.49008 -0.39591 1.39133 161 132 180
1.49008 -0.53628 1.39133 161 132 180
1.36485 -0.39591 1.29064 161 132 180
1.21563 -0.53628 1.39133 161 132 180
1.49008 -0.39591 1.54106 161 132 180
1.21563 -0.39591 1.54106 161 132 180
1.21563 -0.39591 1.39133 161 132 180
1.21563 -0.53628 1.54106 161 132 180
1.49008 -0.53628 1.54106 161 132 180
1.23602 -0.41367 1.56008 161 132 180
1.46968 -0.41367 1.56008 161 132 180
1.23602 -0.51853 1.56008 161 132 180
1.46968 -0.51853 1.56008 161 132 180
1.1542 -0.39591 1.39133 161 132 180
1.03312 -0.39591 1.39133 161 132 180
1.03312 -0.53628 1.39133 161 132 180
1.03312 -0.39591 1.57496 161 132 180
1.1542 -0.39591 1.57496 161 132 180
1.1542 -0.53628 1.39133 161 132 180
1.1542 -0.53628 1.57496 161 132 180
1.03312 -0.53628 1.57496 161 132 180
1.13814 -0.41367 1.59637 161 132 180
1.13814 -0.51853 1.59637 161 132 180
1.04918 -0.41367 1.59637 161 132 180
1.04918 -0.51853 1.59637 161 132 180
1.13814 -0.51853 1.59637 168 138 188
1.04918 -0.51853 1.59637 168 138 188
1.04918 -0.41367 1.59637 168 138 188
1.13814 -0.41367 1.59637 168 138 188
1.36485 -0.04485 1.29064 215 216 222
1.36485 -0.26832 1.29064 215 216 222
1.16014 -0.26832 1.29064 215 216 222
1.16014 -0.04485 1.29064 215 216 222
1.16014 -0.39591 1.29064 215 216 222
1.36485 -0.39591 1.29064 215 216 222
1.11481 -0.08667 1.25728 215 216 222
1.11481 -0.22651 1.25728 215 216 222
1.41018 -0.22651 1.25728 215 216 222
1.41018 -0.08667 1.25728 215 216 222
1.36485 0.00965 1.29064 215 216 222
1.16014 0.00951 1.29064 215 216 222
1.36485 0.00965 1.11656 207 208 213
1.36485 0.00965 1.29064 207 208 213
1.03312 -0.53628 1.25394 168 138 188
0.87774 -0.53628 1.25394 168 138 188
0.87774 -0.39591 1.25394 168 138 188
1.03312 -0.39591 1.25394 168 138 188
0.85902 -0.41243 1.23396 168 138 188
0.85902 -0.51977 1.23396 168 138 188
1.21563 -0.53628 1.39133 168 138 188
1.1542 -0.53628 1.39133 168 138 188
1.1542 -0.39591 1.39133 168 138 188
1.21563 -0.39591 1.39133 168 138 188
1.46968 -0.41367 1.56008 168 138 188
1.46968 -0.51853 1.56008 168 138 188
1.23602 -0.51853 1.56008 168 138 188
1.23602 -0.41367 1.56008 168 138 188
0.74245 0.64564 2.1313 250 244 200
0.81372 0.5818 2.1309 250 244 200
0.74773 0.54597 2.18913 250 244 200
0.70626 0.59239 2.18913 250 244 200
0.74245 0.64564 0.68758 250 244 200
0.81372 0.5818 0.68758 250 244 200
0.45841 0.23954 0.68758 250 244 200
0.81372 0.23965 0.68758 250 244 200
0.81372 0.2398 1.23069 250 244 200
-0.74245 0.64564 2.1313 250 244 200
-0.74245 0.64564 0.68758 250 244 200
0.81372 -0.04938 1.23069 250 244 200
0.74773 -0.48133 2.18913 250 244 200
0.81372 -0.53044 2.1309 250 244 200
-0.45841 0.23954 0.68758 250 244 200
-0.81372 0.5818 2.1309 250 244 200
-0.74773 0.54597 2.18913 250 244 200
-0.70626 0.59239 2.18913 250 244 200
-0.81372 0.5818 0.68758 250 244 200
-0.74773 -0.48133 2.18913 250 244 200
-0.81372 -0.53044 2.1309 250 244 200
-0.81372 -0.04938 1.23069 250 244 200
-0.81372 0.2398 1.23069 250 244 200
-0.81372 0.23965 0.68758 250 244 200
0.45841 0.2398 1.23069 250 244 200
0.45841 -0.04938 1.23069 250 244 200
0.81372 -0.52994 0.68758 250 244 200
0.73335 -0.6054 0.68758 250 244 200
0.73335 -0.6054 2.1309 250 244 200
0.67085 -0.5567 2.18913 250 244 200
0.45841 -0.6054 0.68758 250 244 200
0.45841 -0.6054 1.9468 250 244 200
0.45813 -0.6054 2.05127 250 244 200
0.45841 -0.04973 0.68758 250 244 200
-0.73335 -0.6054 2.1309 250 244 200
-0.67085 -0.5567 2.18913 250 244 200
-0.73335 -0.6054 0.68758 250 244 200
-0.45841 -0.6054 0.68758 250 244 200
-0.45841 -0.6054 1.9468 250 244 200
-0.45813 -0.6054 2.05127 250 244 200
-0.81372 -0.52994 0.68758 250 244 200
-0.45841 -0.04973 0.68758 250 244 200
-0.41099 -0.6054 2.08563 250 244 200
0.41099 -0.6054 2.08563 250 244 200
-0.45841 -0.04938 1.23069 250 244 200
-0.45841 0.2398 1.23069 250 244 200
0.45841 0.23954 0.68758 230 224 184
-0.45841 0.23954 0.68758 230 224 184
-0.45841 0.2398 1.23069 230 224 184
0.45841 0.2398 1.23069 230 224 184
-0.45841 0.23974 1.99205 230 224 184
0.45841 0.23974 1.99205 230 224 184
0.45841 -0.04938 1.23069 230 224 184
0.45841 -0.04938 1.9468 230 224 184
0.45841 -0.6054 1.9468 230 224 184
0.45841 -0.6054 0.68758 230 224 184
0.45841 -0.04973 0.68758 230 224 184
0.40343 -0.04938 1.99706 230 224 184
0.40343 -0.6054 1.99706 230 224 184
0.45813 -0.6054 2.05127 230 224 184
0.41099 -0.6054 2.08563 230 224 184
-0.45841 -0.04938 1.23069 230 224 184
-0.45841 -0.04938 1.9468 230 224 184
-0.45841 -0.6054 1.9468 230 224 184
-0.45841 -0.6054 0.68758 230 224 184
-0.45841 -0.04973 0.68758 230 224 184
-0.40343 -0.04938 1.99706 230 224 184
-0.40343 -0.6054 1.99706 230 224 184
-0.45813 -0.6054 2.05127 230 224 184
-0.41099 -0.6054 2.08563 230 224 184
0.81372 -0.04973 0.68758 250 244 200
-0.81372 -0.04973 0.68758 250 244 200
0.74773 -0.48133 2.18913 255 249 206
0.67085 -0.5567 2.18913 255 249 206
-0.67085 -0.5567 2.18913 255 249 206
-0.74773 -0.48133 2.18913 255 249 206
0.74773 0.54597 2.18913 255 249 206
-0.74773 0.54597 2.18913 255 249 206
0.70626 0.59239 2.18913 255 249 206
-0.70626 0.59239 2.18913 255 249 206
-0.48486 -0.47942 2.00613 161 132 180
0.48486 -0.47942 2.00613 161 132 180
0.48486 -0.47942 1.2743 161 132 180
-0.48486 -0.47942 1.2743 161 132 180
0.21524 -0.49678 1.76052 48 48 49
0.21524 -0.49678 1.79342 48 48 49
0.24552 -0.49678 1.79342 48 48 49
0.24552 -0.49678 1.76052 48 48 49
0.15641 -0.49678 1.85367 255 255 255
0.15641 -0.4722 1.85367 255 255 255
0.31886 -0.4722 1.85367 255 255 255
0.31886 -0.49678 1.85367 255 255 255
0.31886 -0.49678 1.64611 255 255 255
0.31886 -0.4722 1.64611 255 255 255
0.15641 -0.4722 1.64611 255 255 255
0.15641 -0.49678 1.64611 255 255 255
0.24552 -0.49678 1.76052 255 255 255
0.21524 -0.49678 1.76052 255 255 255
0.24552 -0.49678 1.79342 255 255 255
0.21524 -0.49678 1.79342 255 255 255
-0.21524 -0.49678 1.76052 48 48 49
-0.24552 -0.49678 1.76052 48 48 49
-0.24552 -0.49678 1.79342 48 48 49
-0.21524 -0.49678 1.79342 48 48 49
-0.15641 -0.49678 1.85367 255 255 255
-0.31886 -0.49678 1.85367 255 255 255
-0.31886 -0.4722 1.85367 255 255 255
-0.15641 -0.4722 1.85367 255 255 255
-0.31886 -0.49678 1.64611 255 255 255
-0.31886 -0.4722 1.64611 255 255 255
-0.15641 -0.4722 1.64611 255 255 255
-0.15641 -0.49678 1.64611 255 255 255
-0.24552 -0.49678 1.76052 255 255 255
-0.21524 -0.49678 1.76052 255 255 255
-0.24552 -0.49678 1.79342 255 255 255
-0.21524 -0.49678 1.79342 255 255 255
-0.12106 -0.47174 1.37593 245 194 198
-0.12106 -0.56648 1.37593 245 194 198
0.12106 -0.56648 1.37593 245 194 198
0.12106 -0.47174 1.37593 245 194 198
0.12106 -0.56648 1.6845 245 194 198
0.12106 -0.47174 1.6845 245 194 198
-0.12106 -0.47174 1.6845 245 194 198
-0.12106 -0.56648 1.6845 245 194 198
0.05266 -0.56648 1.61272 245 194 198
0.05266 -0.56648 1.47849 245 194 198
-0.05266 -0.56648 1.61272 245 194 198
-0.05266 -0.56648 1.47849 245 194 198
-0.00214 -0.56648 1.42702 245 194 198
-0.04185 -0.56648 1.42702 245 194 198
-0.00214 -0.56648 1.46538 245 194 198
-0.04185 -0.56648 1.46538 245 194 198
-0.05266 -0.5193 1.47849 174 130 138
-0.05266 -0.5193 1.61272 174 130 138
0.05266 -0.5193 1.61272 174 130 138
0.05266 -0.5193 1.47849 174 130 138
-0.05266 -0.56648 1.47849 174 130 138
0.05266 -0.56648 1.47849 174 130 138
0.05266 -0.56648 1.61272 174 130 138
-0.05266 -0.56648 1.61272 174 130 138
-0.12106 -0.56648 1.6845 252 200 204
-0.12106 -0.47174 1.6845 252 200 204
0.12106 -0.47174 1.6845 252 200 204
0.12106 -0.56648 1.6845 252 200 204
-0.04185 -0.56648 1.42702 245 212 215
-0.04185 -0.56648 1.46538 245 212 215
-0.00214 -0.56648 1.46538 245 212 215
-0.00214 -0.56648 1.42702 245 212 215
-0.06311 -0.55291 1.47316 209 159 168
-0.06311 -0.55291 1.53998 209 159 168
0.06311 -0.55291 1.53998 209 159 168
0.06311 -0.55291 1.47316 209 159 168
0.06311 -0.50942 1.53998 209 159 168
-0.06311 -0.50942 1.53998 209 159 168
0.9575 -0.61789 -3.66853E-08 220 101 96
0.9575 -0.61789 0.33336 220 101 96
0.9575 0.61789 0.33336 220 101 96
0.9575 0.61789 -3.66853E-08 220 101 96
0.83216 0.70602 -3.66853E-08 220 101 96
0.83216 0.70602 0.33336 220 101 96
0.83216 -0.53986 -3.66853E-08 220 101 96
0.83216 0.54713 -3.66853E-08 220 101 96
0.72748 0.61789 -3.66853E-08 220 101 96
-0.72748 0.61789 -3.66853E-08 220 101 96
-0.83216 0.70602 -3.66853E-08 220 101 96
-0.9575 0.61789 -3.66853E-08 220 101 96
-0.9575 0.61789 0.33336 220 101 96
-0.9575 -0.61789 -3.66853E-08 220 101 96
-0.9575 -0.61789 0.33336 220 101 96
-0.83216 0.70602 0.33336 220 101 96
-0.83216 -0.53986 -3.66853E-08 220 101 96
-0.83216 0.54713 -3.66853E-08 220 101 96
0.78738 0.65642 0.3653 220 101 96
0.91012 0.56824 0.3653 220 101 96
0.91012 -0.57007 0.3653 220 101 96
-0.91012 0.56824 0.3653 220 101 96
-0.78738 0.65642 0.3653 220 101 96
-0.91012 -0.57007 0.3653 220 101 96
-0.72748 -0.61789 -3.66853E-08 220 101 96
-0.83216 -0.70602 -3.66853E-08 220 101 96
0.72748 -0.61789 -3.66853E-08 220 101 96
0.83216 -0.70602 -3.66853E-08 220 101 96
-0.83216 -0.70602 0.33336 220 101 96
0.83216 -0.70602 0.33336 220 101 96
0.78738 -0.65642 0.3653 220 101 96
-0.78738 -0.65642 0.3653 220 101 96
0.57593 -0.43179 0.82709 220 101 96
0.57593 -0.43179 1.28748 220 101 96
0.57592 0.4284 1.28748 220 101 96
0.57592 0.4284 0.3653 220 101 96
0.49446 0.50264 1.28748 220 101 96
0.49446 0.50264 0.3653 220 101 96
-0.49446 0.50264 1.28748 220 101 96
-0.49446 0.50264 0.3653 220 101 96
0.57593 -0.43179 0.3653 220 101 96
-0.57592 0.4284 0.3653 220 101 96
-0.57592 0.4284 1.28748 220 101 96
-0.57593 -0.43179 0.82709 220 101 96
-0.57593 -0.43179 1.28748 220 101 96
-0.57593 -0.43179 0.3653 220 101 96
0.57592 0.4284 0.3653 230 105 100
0.91012 0.56824 0.3653 230 105 100
0.91012 -0.57007 0.3653 230 105 100
0.57593 -0.43179 0.3653 230 105 100
0.49446 0.50264 0.3653 230 105 100
0.78738 0.65642 0.3653 230 105 100
-0.49446 0.50264 0.3653 230 105 100
-0.78738 0.65642 0.3653 230 105 100
-0.91012 0.56824 0.3653 230 105 100
-0.57592 0.4284 0.3653 230 105 100
-0.91012 -0.57007 0.3653 230 105 100
-0.57593 -0.43179 0.3653 230 105 100
0.78738 -0.65642 0.3653 230 105 100
0.49446 -0.50264 0.3653 230 105 100
-0.78738 -0.65642 0.3653 230 105 100
-0.49446 -0.50264 0.3653 230 105 100
0.72748 0.61789 -3.66853E-08 79 36 34
-0.72748 0.61789 -3.66853E-08 79 36 34
-0.83216 0.54713 -3.66853E-08 79 36 34
0.83216 0.54713 -3.66853E-08 79 36 34
0.83216 -0.53986 -3.66853E-08 79 36 34
-0.83216 -0.53986 -3.66853E-08 79 36 34
0.72748 -0.61789 -3.66853E-08 79 36 34
-0.72748 -0.61789 -3.66853E-08 79 36 34
0.55094 -0.1053 0.41348 220 101 96
0.55094 -0.1053 0.66035 220 101 96
0.72775 -0.08638 0.62393 220 101 96
0.72775 -0.08638 0.45279 220 101 96
0.55094 0.1053 0.41348 220 101 96
0.72775 0.08638 0.45279 220 101 96
0.74788 0.06633 0.47683 220 101 96
0.74788 -0.06633 0.47683 220 101 96
0.74788 -0.06633 0.5999 220 101 96
0.55094 -0.1053 0.66035 230 105 100
0.55094 0.1053 0.66035 230 105 100
0.72775 0.08638 0.62393 230 105 100
0.72775 -0.08638 0.62393 230 105 100
0.74788 -0.06633 0.5999 230 105 100
0.74788 0.06633 0.5999 230 105 100
0.55094 0.1053 0.66035 220 101 96
0.72775 0.08638 0.62393 220 101 96
0.74788 0.06633 0.5999 220 101 96
0.49446 -0.50264 0.3653 220 101 96
0.49446 -0.50264 0.82709 220 101 96
-0.49446 -0.50264 0.82709 220 101 96
-0.49446 -0.50264 0.3653 220 101 96
0.25788 -0.56486 1.18892 220 101 96
0.13412 -0.56486 1.18892 220 101 96
0.13164 -0.56486 1.23331 220 101 96
0.39445 -0.56486 1.23331 220 101 96
0.39445 -0.5032 1.23331 220 101 96
0.45276 -0.5032 1.18891 220 101 96
0.45276 -0.56486 1.18891 220 101 96
0.45276 -0.5032 0.93846 220 101 96
0.45276 -0.56486 0.93846 220 101 96
0.39445 -0.5032 0.89406 220 101 96
0.39445 -0.56486 0.89406 220 101 96
0.13164 -0.5032 1.23331 220 101 96
0.07245 -0.56486 1.18891 220 101 96
0.07245 -0.5032 1.18891 220 101 96
0.07245 -0.56486 0.93846 220 101 96
0.07245 -0.5032 0.93846 220 101 96
0.13164 -0.56486 0.89406 220 101 96
0.13164 -0.5032 0.89406 220 101 96
0.25788 -0.56486 1.08004 220 101 96
0.13412 -0.56486 1.08004 220 101 96
0.57593 -0.43179 0.82709 247 230 126
0.49446 -0.50264 0.82709 247 230 126
0.49435 -0.5032 1.28792 247 230 126
0.57593 -0.43179 1.28748 247 230 126
0.45276 -0.5032 1.18891 247 230 126
0.45276 -0.5032 0.93846 247 230 126
0.39445 -0.5032 0.89406 247 230 126
0.39445 -0.5032 1.23331 247 230 126
-0.49435 -0.5032 1.28792 247 230 126
0.13164 -0.5032 1.23331 247 230 126
-0.13164 -0.5032 1.23331 247 230 126
-0.07245 -0.5032 1.18891 247 230 126
0.07245 -0.5032 1.18891 247 230 126
-0.07245 -0.5032 0.93846 247 230 126
0.07245 -0.5032 0.93846 247 230 126
-0.13164 -0.5032 0.89406 247 230 126
0.13164 -0.5032 0.89406 247 230 126
-0.39445 -0.5032 1.23331 247 230 126
-0.49446 -0.50264 0.82709 247 230 126
-0.57593 -0.43179 0.82709 247 230 126
-0.57593 -0.43179 1.28748 247 230 126
-0.39445 -0.5032 0.89406 247 230 126
-0.45276 -0.5032 0.93846 247 230 126
-0.45276 -0.5032 1.18891 247 230 126
0.13412 -0.56486 1.08004 231 106 101
0.13412 -0.56486 1.18892 231 106 101
0.25788 -0.56486 1.18892 231 106 101
0.25788 -0.56486 1.08004 231 106 101
-0.25788 -0.56486 1.18892 220 101 96
-0.39445 -0.56486 1.23331 220 101 96
-0.13164 -0.56486 1.23331 220 101 96
-0.13412 -0.56486 1.18892 220 101 96
-0.39445 -0.5032 1.23331 220 101 96
-0.45276 -0.5032 1.18891 220 101 96
-0.45276 -0.56486 1.18891 220 101 96
-0.45276 -0.5032 0.93846 220 101 96
-0.45276 -0.56486 0.93846 220 101 96
-0.39445 -0.5032 0.89406 220 101 96
-0.39445 -0.56486 0.89406 220 101 96
-0.13164 -0.5032 1.23331 220 101 96
-0.07245 -0.56486 1.18891 220 101 96
-0.07245 -0.5032 1.18891 220 101 96
-0.07245 -0.56486 0.93846 220 101 96
-0.07245 -0.5032 0.93846 220 101 96
-0.13164 -0.56486 0.89406 220 101 96
-0.13164 -0.5032 0.89406 220 101 96
-0.25788 -0.56486 1.08004 220 101 96
-0.13412 -0.56486 1.08004 220 101 96
-0.13412 -0.56486 1.08004 231 106 101
-0.25788 -0.56486 1.08004 231 106 101
-0.25788 -0.56486 1.18892 231 106 101
-0.13412 -0.56486 1.18892 231 106 101
-0.55094 -0.1053 0.41348 220 101 96
-0.72775 -0.08638 0.45279 220 101 96
-0.72775 -0.08638 0.62393 220 101 96
-0.55094 -0.1053 0.66035 220 101 96
-0.55094 0.1053 0.41348 220 101 96
-0.72775 0.08638 0.45279 220 101 96
-0.74788 0.06633 0.47683 220 101 96
-0.74788 -0.06633 0.47683 220 101 96
-0.74788 -0.06633 0.5999 220 101 96
-0.55094 -0.1053 0.66035 230 105 100
-0.72775 -0.08638 0.62393 230 105 100
-0.72775 0.08638 0.62393 230 105 100
-0.55094 0.1053 0.66035 230 105 100
-0.74788 -0.06633 0.5999 230 105 100
-0.74788 0.06633 0.5999 230 105 100
-0.55094 0.1053 0.66035 220 101 96
-0.72775 0.08638 0.62393 220 101 96
-0.74788 0.06633 0.5999 220 101 96
-0.5556 -0.0362 1.06969 220 101 96
-0.61156 -0.07888 1.06969 220 101 96
-0.61156 -0.07888 1.33751 220 101 96
-0.5556 -0.0362 1.33751 220 101 96
-0.5556 0.22497 1.06969 220 101 96
-0.5556 0.22497 1.33751 220 101 96
-0.61156 0.26765 1.06969 220 101 96
-0.61156 0.26765 1.33751 220 101 96
-0.93393 -0.07888 1.06969 220 101 96
-0.93393 -0.07888 1.33751 220 101 96
-0.93393 0.26765 1.33751 220 101 96
-0.93393 0.26765 1.06969 220 101 96
-0.99049 -0.0362 1.06969 220 101 96
-0.99049 -0.0362 1.33751 220 101 96
-0.99049 0.22497 1.33751 220 101 96
-0.99049 0.22497 1.06969 220 101 96
-0.64006 0.233 1.37666 220 101 96
-0.90553 0.233 1.37666 220 101 96
-0.5953 0.19886 1.37666 220 101 96
-0.5953 -0.01008 1.37666 220 101 96
-0.90553 -0.04423 1.37666 220 101 96
-0.64006 -0.04423 1.37666 220 101 96
-0.95077 -0.01008 1.37666 220 101 96
-0.95077 0.19886 1.37666 220 101 96
-0.99049 0.17927 1.29064 220 101 96
-0.99049 0.17927 1.11656 220 101 96
-0.9607 0.20538 1.03368 220 101 96
-0.91263 0.24166 1.03368 220 101 96
-0.63294 0.24166 1.03368 220 101 96
-0.58538 0.20538 1.03368 220 101 96
-0.58538 -0.01661 1.03368 220 101 96
-0.63294 -0.05289 1.03368 220 101 96
-0.91263 -0.05289 1.03368 220 101 96
-0.9607 -0.01661 1.03368 220 101 96
-0.99049 0.00951 1.11656 220 101 96
-0.99049 0.00951 1.29064 220 101 96
-1.30973 0.17927 1.11656 220 101 96
-1.16014 0.00951 1.11656 220 101 96
-1.30973 0.17927 1.29064 220 101 96
-1.16014 0.00951 1.29064 220 101 96
-1.36485 0.13011 1.11656 220 101 96
-1.36485 0.13011 1.29064 220 101 96
-1.36485 0.00965 1.11656 220 101 96
-1.36485 0.00965 1.29064 220 101 96
-0.90553 -0.04423 1.37666 230 105 100
-0.95077 -0.01008 1.37666 230 105 100
-0.5953 -0.01008 1.37666 230 105 100
-0.64006 -0.04423 1.37666 230 105 100
-0.95077 0.19886 1.37666 230 105 100
-0.5953 0.19886 1.37666 230 105 100
-0.90553 0.233 1.37666 230 105 100
-0.64006 0.233 1.37666 230 105 100
-0.99049 0.17927 1.29064 230 105 100
-0.99049 0.00951 1.29064 230 105 100
-1.16014 0.00951 1.29064 230 105 100
-1.30973 0.17927 1.29064 230 105 100
-1.36485 0.13011 1.29064 230 105 100
-1.36485 0.00965 1.29064 230 105 100
-1.16014 0.00951 1.29064 207 208 213
-1.16014 0.00951 1.11656 207 208 213
-1.16014 -0.04485 1.11656 207 208 213
-1.16014 -0.04485 1.29064 207 208 213
-1.11481 -0.08667 1.14992 207 208 213
-1.11481 -0.08667 1.25728 207 208 213
-1.11481 -0.22651 1.14992 207 208 213
-1.11481 -0.22651 1.25728 207 208 213
-1.16014 -0.26832 1.11656 207 208 213
-1.36485 -0.26832 1.11656 207 208 213
-1.36485 -0.04485 1.11656 207 208 213
-1.36485 -0.39591 1.11656 207 208 213
-1.16014 -0.39591 1.11656 207 208 213
-1.16014 -0.26832 1.29064 207 208 213
-1.16014 -0.39591 1.29064 207 208 213
-1.36485 -0.39591 1.29064 207 208 213
-1.36485 -0.26832 1.29064 207 208 213
-1.41018 -0.08667 1.14992 207 208 213
-1.41018 -0.08667 1.25728 207 208 213
-1.36485 -0.04485 1.29064 207 208 213
-1.41018 -0.22651 1.14992 207 208 213
-1.41018 -0.22651 1.25728 207 208 213
-0.85902 -0.51977 1.23396 161 132 180
-0.85902 -0.41243 1.23396 161 132 180
-0.85902 -0.41243 1.13654 161 132 180
-0.85902 -0.51977 1.13654 161 132 180
-0.87774 -0.39591 1.25394 161 132 180
-0.87774 -0.39591 1.11656 161 132 180
-1.03312 -0.39591 1.25394 161 132 180
-1.03312 -0.39591 1.11656 161 132 180
-0.87774 -0.53628 1.11656 161 132 180
-1.03312 -0.53628 1.11656 161 132 180
-1.16014 -0.39591 1.11656 161 132 180
-1.16014 -0.39591 1.29064 161 132 180
-1.36485 -0.39591 1.11656 161 132 180
-1.45963 -0.53628 1.11656 161 132 180
-1.45963 -0.39591 1.11656 161 132 180
-1.49008 -0.53628 1.1462 161 132 180
-1.03312 -0.53628 1.25394 161 132 180
-0.87774 -0.53628 1.25394 161 132 180
-1.49008 -0.39591 1.1462 161 132 180
-1.49008 -0.39591 1.39133 161 132 180
-1.49008 -0.53628 1.39133 161 132 180
-1.36485 -0.39591 1.29064 161 132 180
-1.21563 -0.53628 1.39133 161 132 180
-1.49008 -0.39591 1.54106 161 132 180
-1.21563 -0.39591 1.54106 161 132 180
-1.21563 -0.39591 1.39133 161 132 180
-1.21563 -0.53628 1.54106 161 132 180
-1.49008 -0.53628 1.54106 161 132 180
-1.23602 -0.41367 1.56008 161 132 180
-1.46968 -0.41367 1.56008 161 132 180
-1.23602 -0.51853 1.56008 161 132 180
-1.46968 -0.51853 1.56008 161 132 180
-1.1542 -0.39591 1.39133 161 132 180
-1.03312 -0.39591 1.39133 161 132 180
-1.03312 -0.53628 1.39133 161 132 180
-1.03312 -0.39591 1.57496 161 132 180
-1.1542 -0.39591 1.57496 161 132 180
-1.1542 -0.53628 1.39133 161 132 180
-1.1542 -0.53628 1.57496 161 132 180
-1.03312 -0.53628 1.57496 161 132 180
-1.13814 -0.41367 1.59637 161 132 180
-1.13814 -0.51853 1.59637 161 132 180
-1.04918 -0.41367 1.59637 161 132 180
-1.04918 -0.51853 1.59637 161 132 180
-1.13814 -0.51853 1.59637 168 138 188
-1.13814 -0.41367 1.59637 168 138 188
-1.04918 -0.41367 1.59637 168 138 188
-1.04918 -0.51853 1.59637 168 138 188
-1.36485 -0.04485 1.29064 215 216 222
-1.16014 -0.04485 1.29064 215 216 222
-1.16014 -0.26832 1.29064 215 216 222
-1.36485 -0.26832 1.29064 215 216 222
-1.16014 -0.39591 1.29064 215 216 222
-1.36485 -0.39591 1.29064 215 216 222
-1.11481 -0.08667 1.25728 215 216 222
-1.11481 -0.22651 1.25728 215 216 222
-1.41018 -0.22651 1.25728 215 216 222
-1.41018 -0.08667 1.25728 215 216 222
-1.36485 0.00965 1.29064 215 216 222
-1.16014 0.00951 1.29064 215 216 222
-1.36485 0.00965 1.11656 207 208 213
-1.36485 0.00965 1.29064 207 208 213
-1.03312 -0.53628 1.25394 168 138 188
-1.03312 -0.39591 1.25394 168 138 188
-0.87774 -0.39591 1.25394 168 138 188
-0.87774 -0.53628 1.25394 168 138 188
-0.85902 -0.41243 1.23396 168 138 188
-0.85902 -0.51977 1.23396 168 138 188
-1.21563 -0.53628 1.39133 168 138 188
-1.21563 -0.39591 1.39133 168 138 188
-1.1542 -0.39591 1.39133 168 138 188
-1.1542 -0.53628 1.39133 168 138 188
-1.46968 -0.41367 1.56008 168 138 188
-1.23602 -0.41367 1.56008 168 138 188
-1.23602 -0.51853 1.56008 168 138 188
-1.46968 -0.51853 1.56008 168 138 188
3 0 2 1
3 0 3 2
3 1 4 0
3 1 5 4
3 5 6 4
3 5 7 6
3 2 3 8
3 2 8 9
3 6 7 10
3 6 10 11
3 9 8 12
3 9 12 13
3 11 10 14
3 11 14 15
3 10 7 16
3 10 16 17
3 14 10 17
3 7 18 16
3 7 5 18
3 1 18 5
3 1 19 18
3 1 20 19
3 1 2 20
3 2 21 20
3 2 9 21
3 21 9 13
3 21 13 22
3 13 23 22
3 13 14 23
3 14 17 23
3 13 24 14
3 15 14 24
3 15 24 25
3 12 15 25
3 26 15 12
3 11 15 26
3 11 26 27
3 26 28 27
3 26 29 28
3 4 28 29
3 29 0 4
3 29 30 0
3 26 30 29
3 3 0 30
3 3 30 31
3 8 3 31
3 8 31 32
3 12 8 32
3 32 31 30
3 4 6 28
3 6 27 28
3 6 11 27
3 26 12 33
3 12 32 33
3 32 30 33
3 26 33 30
3 12 25 34
3 34 25 35
3 34 35 36
3 25 37 35
3 25 24 37
3 38 34 36
3 38 36 39
3 36 35 40
3 40 35 37
3 40 37 41
3 36 40 42
3 40 43 42
3 40 41 43
3 13 34 38
3 13 38 24
3 13 12 34
3 44 46 45
3 44 47 46
3 48 46 47
3 48 49 46
3 50 49 48
3 50 51 49
3 52 54 53
3 52 55 54
3 53 54 56
3 56 54 57
3 58 60 59
3 58 61 60
3 59 60 62
3 59 62 63
3 60 64 62
3 63 62 64
3 63 64 65
3 60 66 64
3 60 67 66
3 60 68 67
3 61 68 60
3 66 67 69
3 66 69 70
3 71 66 70
3 71 70 72
3 67 73 69
3 67 74 73
3 66 65 64
3 66 71 65
3 67 68 75
3 68 76 75
3 68 77 76
3 67 75 78
3 74 67 78
3 74 78 79
3 75 79 78
3 75 76 79
3 80 82 81
3 80 83 82
3 84 82 83
3 84 85 82
3 86 85 84
3 86 87 85
3 87 88 85
3 87 89 88
3 90 89 87
3 91 90 87
3 91 87 86
3 89 90 92
3 89 92 93
3 93 92 94
3 95 89 93
3 94 95 93
3 95 96 89
3 89 97 88
3 89 96 97
3 85 81 82
3 85 88 81
3 88 80 81
3 88 97 80
3 94 98 95
3 92 98 94
3 95 98 99
3 95 99 100
3 92 101 98
3 100 102 95
3 100 99 103
3 99 104 103
3 99 105 104
3 105 106 104
3 105 102 106
3 102 107 106
3 102 100 107
3 100 103 107
3 103 104 108
3 103 108 109
3 107 103 109
3 104 110 108
3 104 106 110
3 106 111 110
3 106 107 111
3 107 109 111
3 101 105 99
3 98 101 99
3 101 112 105
3 101 91 112
3 112 91 113
3 91 86 113
3 113 86 96
3 113 96 114
3 112 113 115
3 112 115 116
3 117 112 116
3 96 117 114
3 117 116 118
3 114 117 118
3 113 119 115
3 113 114 119
3 114 118 119
3 118 116 120
3 118 120 121
3 119 118 121
3 116 122 120
3 116 115 122
3 115 123 122
3 115 119 123
3 119 121 123
3 95 117 96
3 95 102 117
3 124 126 125
3 124 127 126
3 128 130 129
3 128 131 130
3 129 130 132
3 129 132 133
3 130 131 134
3 130 134 135
3 128 129 136
3 128 136 137
3 138 131 128
3 138 139 131
3 140 77 68
3 140 141 77
3 61 140 68
3 142 144 143
3 142 145 144
3 143 144 146
3 143 146 147
3 148 150 149
3 148 151 150
3 152 154 153
3 152 155 154
3 156 158 157
3 156 159 158
3 157 160 156
3 157 161 160
3 161 162 160
3 163 162 161
3 164 161 157
3 164 163 161
3 165 156 160
3 165 160 166
3 157 167 164
3 157 158 168
3 157 168 169
3 169 167 157
3 162 166 160
3 162 170 166
3 171 165 166
3 165 171 172
3 165 172 173
3 171 166 174
3 171 175 172
3 171 176 175
3 176 171 177
3 171 178 177
3 178 171 174
3 178 174 179
3 156 165 173
3 156 173 159
3 164 162 163
3 164 180 162
3 167 180 164
3 167 181 180
3 169 182 167
3 183 182 169
3 183 169 184
3 168 184 169
3 168 185 184
3 184 186 183
3 184 187 186
3 184 188 187
3 183 189 182
3 183 186 189
3 185 190 184
3 185 191 190
3 175 190 191
3 175 176 190
3 192 190 176
3 190 192 193
3 190 193 194
3 190 194 195
3 192 176 196
3 192 196 197
3 192 197 193
3 176 177 196
3 198 190 195
3 184 190 198
3 184 199 188
3 184 198 199
3 177 201 200
3 177 178 201
3 178 170 201
3 178 179 170
3 179 174 170
3 174 166 170
3 202 204 203
3 202 205 204
3 205 206 204
3 205 207 206
3 208 207 205
3 208 209 207
3 210 209 208
3 210 208 211
3 211 208 212
3 207 209 213
3 210 213 209
3 210 214 213
3 215 214 210
3 215 216 214
3 217 204 206
3 217 206 218
3 219 217 218
3 219 220 217
3 220 221 217
3 222 219 218
3 207 213 222
3 222 223 219
3 213 223 222
3 213 214 223
3 223 224 219
3 223 225 224
3 214 225 223
3 214 216 225
3 206 222 218
3 207 222 206
3 182 189 226
3 181 226 189
3 181 167 226
3 167 182 226
3 196 227 197
3 200 197 227
3 200 227 177
3 177 227 196
3 228 230 229
3 228 231 230
3 232 231 228
3 232 233 231
3 234 233 232
3 234 235 233
3 236 238 237
3 236 239 238
3 240 242 241
3 240 243 242
3 244 246 245
3 244 247 246
3 248 246 247
3 248 249 246
3 250 249 248
3 250 244 245
3 250 248 251
3 250 251 244
3 251 248 252
3 251 252 253
3 244 251 253
3 248 254 252
3 248 247 254
3 247 255 254
3 247 244 255
3 244 253 255
3 256 258 257
3 256 259 258
3 260 262 261
3 260 263 262
3 264 261 262
3 264 262 265
3 266 264 265
3 266 263 260
3 266 267 264
3 266 260 267
3 267 268 264
3 267 269 268
3 260 269 267
3 264 270 261
3 264 268 270
3 261 271 260
3 261 270 271
3 260 271 269
3 272 274 273
3 272 275 274
3 275 276 274
3 275 277 276
3 278 272 273
3 278 273 279
3 274 276 280
3 274 280 281
3 276 282 280
3 276 279 282
3 279 283 282
3 279 273 283
3 273 274 284
3 273 284 285
3 283 273 285
3 274 286 284
3 274 281 286
3 281 287 286
3 281 283 287
3 283 285 287
3 288 290 289
3 288 291 290
3 292 291 288
3 292 293 291
3 293 290 291
3 293 294 290
3 294 289 290
3 294 295 289
3 295 288 289
3 295 292 288
3 296 298 297
3 296 299 298
3 300 302 301
3 300 303 302
3 304 306 305
3 304 307 306
3 305 306 308
3 305 308 309
3 310 312 311
3 310 313 312
3 314 312 313
3 314 315 312
3 313 310 316
3 313 316 317
3 313 318 314
3 313 317 318
3 314 318 319
3 314 319 320
3 321 320 319
3 320 321 322
3 323 322 321
3 323 324 322
3 320 322 325
3 314 325 315
3 314 320 325
3 321 326 323
3 321 327 326
3 321 319 327
3 328 312 315
3 328 329 312
3 329 311 312
3 329 330 311
3 331 325 322
3 331 332 325
3 315 332 328
3 315 325 332
3 333 322 324
3 333 331 322
3 334 323 326
3 334 335 323
3 336 335 334
3 336 337 335
3 337 338 335
3 337 339 338
3 311 339 337
3 330 339 311
3 311 337 310
3 336 310 337
3 336 316 310
3 324 335 338
3 324 323 335
3 330 340 339
3 341 324 338
3 341 333 324
3 339 341 338
3 339 340 341
3 342 344 343
3 342 345 344
3 345 346 344
3 345 347 346
3 348 346 347
3 348 347 349
3 350 345 342
3 351 348 349
3 351 352 348
3 343 344 352
3 346 352 344
3 346 348 352
3 353 352 351
3 353 354 352
3 343 352 354
3 355 353 351
3 356 358 357
3 356 359 358
3 360 356 357
3 360 357 361
3 361 362 360
3 361 363 362
3 362 363 364
3 362 364 365
3 365 364 366
3 365 366 367
3 359 368 358
3 359 369 368
3 370 368 369
3 370 369 371
3 367 370 371
3 367 366 370
3 372 374 373
3 372 375 374
3 376 374 375
3 376 377 374
3 378 377 376
3 378 379 377
3 380 382 381
3 380 383 382
3 384 383 380
3 384 385 383
3 383 385 386
3 383 386 387
3 382 383 387
3 382 387 388
3 389 391 390
3 389 392 391
3 391 392 393
3 391 393 394
3 395 385 384
3 395 396 385
3 385 396 397
3 385 397 386
3 387 386 397
3 387 397 388
3 342 398 350
3 342 399 398
3 400 398 399
3 400 401 398
3 353 401 400
3 353 355 401
3 402 404 403
3 402 405 404
3 406 404 405
3 407 406 405
3 407 405 408
3 408 405 402
3 409 407 408
3 409 408 410
3 410 408 402
3 411 409 410
3 411 410 412
3 406 413 404
3 413 414 404
3 403 404 414
3 413 415 414
3 415 416 414
3 412 410 416
3 415 417 416
3 417 418 416
3 412 416 418
3 417 419 418
3 419 412 418
3 419 411 412
3 416 410 420
3 416 420 421
3 414 416 421
3 410 402 420
3 414 421 403
3 422 424 423
3 422 425 424
3 423 424 426
3 423 426 427
3 423 427 428
3 426 424 429
3 430 429 424
3 429 430 431
3 431 430 432
3 431 432 433
3 431 433 434
3 434 433 435
3 434 435 436
3 436 435 437
3 436 437 438
3 432 430 439
3 440 428 438
3 440 438 437
3 441 440 430
3 441 430 442
3 428 440 423
3 440 437 443
3 440 443 444
3 440 445 430
3 440 444 445
3 445 439 430
3 446 448 447
3 446 449 448
3 450 452 451
3 450 453 452
3 454 451 452
3 455 451 454
3 455 456 451
3 456 450 451
3 457 456 455
3 457 458 456
3 458 450 456
3 459 458 457
3 459 460 458
3 454 452 461
3 461 452 462
3 453 462 452
3 461 462 463
3 463 462 464
3 460 464 458
3 463 464 465
3 465 464 466
3 460 466 464
3 465 466 467
3 467 460 459
3 467 466 460
3 464 468 458
3 464 469 468
3 462 469 464
3 458 468 450
3 462 453 469
3 470 472 471
3 470 473 472
3 474 476 475
3 474 477 476
3 478 474 475
3 478 475 479
3 475 480 479
3 475 481 480
3 476 481 475
3 476 482 481
3 483 485 484
3 483 486 485
3 485 487 484
3 485 488 487
3 489 479 490
3 489 478 479
3 479 491 490
3 479 480 491
3 481 491 480
3 481 482 491
3 430 425 442
3 430 424 425
3 492 494 493
3 492 495 494
3 495 492 496
3 495 496 497
3 497 496 498
3 497 498 499
3 494 500 493
3 494 501 500
3 498 502 499
3 498 503 502
3 501 504 500
3 501 505 504
3 503 506 502
3 503 507 506
3 502 508 499
3 502 509 508
3 506 509 502
3 499 510 497
3 499 508 510
3 495 497 510
3 495 510 511
3 512 505 501
3 494 512 501
3 494 513 512
3 495 513 494
3 495 511 513
3 512 514 505
3 505 515 506
3 505 514 515
3 506 515 509
3 505 506 516
3 507 516 506
3 507 517 516
3 504 517 507
3 518 504 507
3 503 518 507
3 503 519 518
3 518 519 520
3 518 520 521
3 496 521 520
3 521 496 492
3 521 492 522
3 518 521 522
3 493 522 492
3 493 523 522
3 500 523 493
3 500 524 523
3 504 524 500
3 524 522 523
3 496 520 498
3 498 519 503
3 498 520 519
3 518 525 504
3 504 525 524
3 524 525 522
3 518 522 525
3 504 526 517
3 505 526 504
3 505 527 526
3 505 516 527
3 526 528 517
3 526 529 528
3 517 528 530
3 517 530 516
3 527 529 526
3 527 531 529
3 529 532 528
3 532 530 528
3 532 533 530
3 529 534 532
3 532 534 535
3 532 535 533
3 536 538 537
3 536 539 538
3 540 537 538
3 540 538 541
3 542 540 541
3 542 541 543
3 544 546 545
3 544 547 546
3 547 548 546
3 548 549 546
3 550 552 551
3 550 553 552
3 553 554 552
3 553 555 554
3 552 554 556
3 555 556 554
3 555 557 556
3 552 556 558
3 552 558 559
3 552 559 560
3 551 552 560
3 558 561 559
3 558 562 561
3 563 562 558
3 563 564 562
3 559 561 565
3 559 565 566
3 558 556 557
3 558 557 563
3 559 567 560
3 560 567 568
3 560 568 569
3 559 570 567
3 566 570 559
3 566 571 570
3 567 571 568
3 567 570 571
3 572 574 573
3 572 575 574
3 576 573 574
3 576 574 577
3 578 576 577
3 578 577 579
3 579 577 580
3 579 580 581
3 582 579 581
3 583 579 582
3 583 578 579
3 581 584 582
3 581 585 584
3 585 586 584
3 587 585 581
3 586 585 587
3 587 581 588
3 581 589 588
3 581 580 589
3 577 575 580
3 577 574 575
3 580 575 572
3 580 572 589
3 586 587 590
3 584 586 590
3 587 591 590
3 587 592 591
3 584 590 593
3 592 587 594
3 592 595 591
3 591 595 596
3 591 596 597
3 597 596 598
3 597 598 594
3 594 599 592
3 594 598 599
3 592 599 595
3 595 600 596
3 595 601 600
3 599 601 595
3 596 602 598
3 596 600 602
3 598 603 599
3 598 602 603
3 599 603 601
3 593 591 597
3 590 591 593
3 593 597 604
3 593 604 583
3 604 605 583
3 583 605 578
3 605 588 578
3 605 606 588
3 604 607 605
3 604 608 607
3 609 608 604
3 588 606 609
3 609 610 608
3 606 610 609
3 605 611 606
3 605 607 611
3 606 611 610
3 610 612 608
3 610 613 612
3 611 613 610
3 608 614 607
3 608 612 614
3 607 615 611
3 607 614 615
3 611 615 613
3 587 588 609
3 587 609 594
3 616 618 617
3 616 619 618
3 620 622 621
3 620 623 622
3 623 624 622
3 623 625 624
3 622 626 621
3 622 627 626
3 620 628 623
3 620 629 628
3 630 620 621
3 630 621 631
3 632 569 633
3 632 560 569
3 551 560 632
3 634 636 635
3 634 637 636
3 637 638 636
3 637 639 638
3 640 642 641
3 640 643 642
3 644 646 645
3 644 647 646
