mtllib Manectric_Normal.mtl
v 0 0.349953 0.127586
vt 0.248383 0.945493
vn 0 -0.9358671 -0.352353
v -0.125779 0.480096 0.0281815
vn -0.5931618 -0.3394389 -0.7300277
v 0 0.531009 -0.0978864
vn 0 -0.142983 -0.9897251
v -0.218956 0.46035 0.154338
vn -0.7047669 -0.6685849 -0.2372719
v 0.125779 0.480096 0.0281815
vn 0.5931618 -0.3394389 -0.7300277
v -0.0951488 0.377106 0.239797
vn -0.3402818 -0.9312316 0.1304459
v 0.218956 0.46035 0.154338
vn 0.7047669 -0.6685849 -0.2372719
v 0.0951488 0.377106 0.239797
vn 0.355454 -0.925771 0.128843
v -0.111555 0.77004 0.0635321
vn -0.6541272 0.4193021 -0.6295263
v -0.15882 0.472373 0.307368
vn -0.7936391 -0.481865 0.371407
v 0.111555 0.77004 0.0635321
vn 0.6541272 0.4193021 -0.6295263
v 0.15882 0.472373 0.307368
vn 0.7936391 -0.481865 0.371407
v 0 0.757696 0.0196151
vn 0 0.4863797 -0.8737475
v 0 1.06999 0.20577
vn 0 0.9973893 -0.07221241
v -0.0739709 0.820787 0.318263
vn -0.7626861 0.4081961 0.5016831
v -0.113681 0.909485 0.188125
vn -0.4740968 0.8796067 0.03904108
v -0.17624 0.611818 0.283433
vn -0.7921646 0.2604039 0.5519648
v 0.0739709 0.820787 0.318263
vn 0.7626861 0.4081961 0.5016831
v 0 0.820787 0.338269
vn 0 0.4161439 0.9092988
v 0.113681 0.909485 0.188125
vn 0.4740968 0.8796067 0.03904099
v 0.17624 0.611818 0.283433
vn 0.7921646 0.2604039 0.5519648
v -0.146565 0.343465 -0.150197
vt 0.0413052 0.944834
vn -0.498001 0.844612 -0.196534
v -0.182312 0.261636 -0.1801323
vn -0.8533023 0.2361291 -0.4648851
v -0.180414 0.2616361 0.1972091
vn -0.8012101 0.1730872 0.5728028
v 0 0.261636 -0.2928037
vn 0 0.2703719 -0.9627559
v -0.165013 0.343465 0.148643
vn -0.6873061 0.7169861 0.116367
v 0 0.343465 -0.244173
vn 0 0.9093092 -0.4161211
v 0 0.379239 0.0737409
vn -9.248044E-06 0.9944963 -0.104771
v -0.181389 0.1813951 -0.05390471
vn -0.7982832 -0.536045 0.27459
v 0 0.1706739 -0.2994174
vn 0 -0.5325344 -0.8464084
v 0.146565 0.343465 -0.150197
vn 0.496309 0.845005 -0.199108
v 0.165013 0.343465 0.148626
vn 0.6759132 0.7278892 0.115407
v -0.181389 0.1680152 0.09128334
vn -0.7248771 -0.575442 -0.3787079
v 0 0.1430679 0.09224576
vn 0.002065048 -0.9684777 -0.2490918
v 0 0.1670969 -0.05666564
vn 0 -0.9783779 0.206825
v 0.182312 0.261636 -0.1801323
vn 0.8522913 0.2352011 -0.4672042
v 0.184211 0.2616361 0.1972091
vn 0.8056629 0.1751432 0.5658907
v 0.181389 0.1813951 -0.05390461
vn 0.7958317 -0.5422392 0.2694971
v 0.181389 0.1680152 0.09128334
vn 0.7157193 -0.5840691 -0.3828959
v 0 0.376963 0.289403
vt 0.989528 0.561555
vn 0.0005406361 0.621206 0.7836471
vt 0.610681 0.547978
vt 0.58569 0.299642
v 0 0.418523 0.175206
vt 0.989528 0.811552
vn 5.332788E-06 0.9988726 0.04747028
v 0 0.251893 0.3280905
vt 0.989528 0.270073
vn 0.0007412274 0.2955041 0.9553412
vt 0.989528 0.988207
v 0.239548 0.2486174 -0.1725444
vt 0.217982 0.947573
vn 1 0 0
v 0.22461 0.2084736 -0.2420746
vn 0.877916 -0.2394073 -0.4146656
v 0.22461 0.288761 -0.2420746
vn 0.877916 0.2394072 -0.4146656
v 0.22461 0.1683299 -0.1725444
vn 0.8779165 -0.4788137 3.347334E-08
v 0.22461 0.3289048 -0.1725444
vn 0.8779165 0.4788137 -3.347334E-08
v 0.22461 0.2084736 -0.1030131
vn 0.8779165 -0.2394073 0.4146648
v 0.22461 0.2887611 -0.1030131
vn 0.8779164 0.2394074 0.4146647
v 0.186991 0.3181486 -0.2929755
vn -0.3364707 0.4708471 -0.8155308
v 0.186991 0.1790871 -0.2929745
vn -0.3364707 -0.4708472 -0.8155308
v 0.186991 0.3181486 -0.05211279
vn -0.3364707 0.4708472 0.8155308
v 0.186991 0.3876798 -0.1725444
vn -0.3364707 0.941694 -6.583279E-08
v 0.186991 0.1095558 -0.1725443
vn -0.3364707 -0.941694 6.583279E-08
v 0.186991 0.1790871 -0.05211278
vn -0.3364707 -0.4708471 0.8155308
v 0.130246 0.2486174 -0.1725444
vn -1 0 0
v -0.239548 0.2486174 -0.1725444
v -0.22461 0.288761 -0.2420746
vn -0.877916 0.2394072 -0.4146656
v -0.22461 0.2084736 -0.2420746
vn -0.877916 -0.2394073 -0.4146656
v -0.22461 0.3289048 -0.1725444
vn -0.8779165 0.4788137 -3.347334E-08
v -0.22461 0.1683299 -0.1725444
vn -0.8779165 -0.4788137 3.347334E-08
v -0.22461 0.2887611 -0.1030131
vn -0.8779164 0.2394074 0.4146647
v -0.22461 0.2084736 -0.1030131
vn -0.8779165 -0.2394073 0.4146648
v -0.186991 0.3181486 -0.2929755
vn 0.3364707 0.4708471 -0.8155308
v -0.186991 0.3876798 -0.1725444
vn 0.3364707 0.941694 -6.583279E-08
v -0.186991 0.1095558 -0.1725443
vn 0.3364707 -0.941694 6.583279E-08
v -0.186991 0.1790871 -0.2929745
vn 0.3364707 -0.4708472 -0.8155308
v -0.186991 0.3181486 -0.05211279
vn 0.3364707 0.4708472 0.8155308
v -0.186991 0.1790871 -0.05211278
vn 0.3364707 -0.4708471 0.8155308
v -0.130246 0.2486174 -0.1725444
v 0 0.389284 -0.434176
vt 0.0508427 0.939221
vn 0 -0.05080787 -0.9987084
v 0 0.593269 -0.318304
vn 0 0.9544678 -0.2983139
v 0.0418964 0.388702 -0.371011
vn 0.978877 0.114239 -0.169556
v -0.0418965 0.388702 -0.371011
vn -0.9788772 0.114239 -0.169555
v 0.0670809 0.270571 -0.235919
vn 0.980489 -0.0518807 -0.189604
v -0.0670809 0.270571 -0.235919
vn -0.980489 -0.0518805 -0.189604
v 0 0.222878 -0.267647
vn 0 -0.7073693 -0.7068442
v 0 0.38833 -0.330645
vn 0 0.515835 0.856688
v 0 0.327962 -0.197741
vn 0 0.84701 0.531577
v -0.268881 0.580073 0.134448
vt 0.361085 0.722155
vn -0.9299482 0.194398 -0.3120991
vt 0.512431 0.64018
vt 0.370544 0.62399
vt 0.497183 0.877917
v -0.214653 0.513336 0.248003
vt 0.216641 0.732439
vn -0.8747958 -0.170641 0.4534469
vt 0.3711 0.992253
vt 0.221075 0.805085
vt 0.193396 0.625601
v -0.159619 0.546602 0.302578
vt 0.205019 0.67902
vn -0.7909947 0.06193877 0.6086798
v 0.268881 0.580073 0.134448
vn 0.9299482 0.194398 -0.3120991
v 0.214653 0.513336 0.248003
vn 0.8747958 -0.170641 0.4534469
v 0.159619 0.546602 0.302578
vn 0.7909947 0.06193877 0.6086798
v 0 0.533349 0.543253
vt 0.116741 0.411717
vn 0 0.3799849 0.9249927
v -0.0651947 0.497116 0.488472
vt 0.349346 0.285227
vn -0.817454 0.07528931 0.5710521
v -0.0410428 0.417118 0.493166
vt 0.235178 0.0197248
vn -0.341789 -0.8396599 0.42208
v -0.0458084 0.588591 0.415611
vt 0.368762 0.546066
vn -0.5936604 0.3465502 0.7262715
v 0.0410428 0.417118 0.493166
vn 0.4184539 -0.7731939 0.4765159
v 0.0651947 0.497116 0.488472
vn 0.817454 0.07528941 0.5710521
v 0.0458084 0.588591 0.415611
vn 0.59366 0.34655 0.726272
v -0.0760371 0.542681 0.394686
vt 0.589871 0.499456
vn -0.6719378 0.4868308 0.5581178
vt 0.662432 0.237075
vt 0.98026 0.0197247
v 0.0760371 0.542681 0.394686
vn 0.6719378 0.4868308 0.5581178
v -0.184594 -1.796931E-05 0.2178469
vt 0.118706 0.494552
vn -0.2758777 -0.8503622 0.44808
vt 0.150031 0.644797
vt 0.149563 0.628722
vt 0.12874 0.745191
v 0.00189836 0.1700785 0.3010851
vt 0.100113 0.648012
vn -0.00062106 -0.4329611 0.9014124
v 0.184594 -1.796931E-05 0.2178469
vn 0.2739317 -0.8521761 0.4458219
v -0.184594 -2.049644E-05 -0.2258513
vt 0.0395644 0.495466
vn -0.1999875 -0.8920692 -0.4052377
vt 0.0190214 0.629975
vt 0.0262708 0.709469
vt 0.0198241 0.615809
vt 0.0609564 0.619356
v 0.184594 -2.049644E-05 -0.2258513
vn 0.1999875 -0.8920692 -0.4052377
v 0 0.598567 0.41982
vt 0.259058 0.944936
vn 0 0.5641983 0.8256394
vt 0.0721238 0.958934
v 0.00189836 0.2855724 0.2991682
vn 0 0.01658124 0.9998625
vt 0.0293744 0.939506
vt 0.816394 0.227755
v 0.186991 0.2553124 -0.2904105
v 0.186991 0.1820341 -0.2891675
v 0.186468 0.2405932 -0.4245429
v 0.186532 0.3931749 -0.4167558
v 0.186991 0.3375989 -0.2451447
v 0.186593 0.5796963 -0.2470737
v 0.186991 0.3584793 -0.1336757
v 0.186675 0.4701653 -0.08378127
v 0.186991 0.3262167 -0.07621512
v -0.186991 0.2553124 -0.2904105
v -0.186468 0.2405932 -0.4245429
v -0.186991 0.1820341 -0.2891675
v -0.186991 0.3375989 -0.2451447
v -0.186532 0.3931749 -0.4167558
v -0.186991 0.3584793 -0.1336757
v -0.186593 0.5796963 -0.2470737
v -0.186991 0.3262167 -0.07621512
v -0.186675 0.4701653 -0.08378127
vt 0.890297 0.229363
vn -0.45821 -0.564082 -0.6869172
vn 0.4500511 -0.596263 -0.6647741
o merged_0_0_node
g polygon_0
usemtl lambert16_mat_id
f 1/1/1 2/1/2 3/1/3
f 1/1/1 4/1/4 2/1/2
f 1/1/1 3/1/3 5/1/5
f 1/1/1 6/1/6 4/1/4
f 1/1/1 5/1/5 7/1/7
f 1/1/1 8/1/8 6/1/6
f 1/1/1 7/1/7 8/1/8
f 2/1/2 9/1/9 3/1/3
f 4/1/4 6/1/6 10/1/10
f 5/1/5 3/1/3 11/1/11
f 7/1/7 12/1/12 8/1/8
f 9/1/9 13/1/13 3/1/3
f 9/1/9 14/1/14 13/1/13
f 9/1/9 15/1/15 14/1/14
f 9/1/9 16/1/16 15/1/15
f 13/1/13 11/1/11 3/1/3
f 13/1/13 14/1/14 11/1/11
f 16/1/16 17/1/17 15/1/15
f 14/1/14 18/1/18 11/1/11
f 14/1/14 15/1/15 19/1/19
f 14/1/14 19/1/19 18/1/18
f 11/1/11 18/1/18 20/1/20
f 18/1/18 21/1/21 20/1/20
f 22/2/22 23/2/23 24/2/24
f 22/2/22 25/2/25 23/2/23
f 22/2/22 24/2/24 26/2/26
f 22/2/22 27/2/27 25/2/25
f 22/2/22 26/2/26 28/2/28
f 22/2/22 28/2/28 27/2/27
f 23/2/23 29/2/29 24/2/24
f 23/2/23 25/2/25 30/2/30
f 28/2/28 31/2/31 27/2/27
f 28/2/28 32/2/32 31/2/31
f 27/2/27 31/2/31 25/2/25
f 29/2/29 33/2/33 24/2/24
f 29/2/29 34/2/34 33/2/33
f 29/2/29 35/2/35 34/2/34
f 30/2/30 25/2/25 36/2/36
f 25/2/25 31/2/31 36/2/36
f 32/2/32 37/2/37 31/2/31
f 31/2/31 37/2/37 36/2/36
f 35/2/35 38/2/38 34/2/34
f 36/2/36 37/2/37 38/2/38
f 34/2/34 38/2/38 39/2/39
f 39/2/39 38/2/38 37/2/37
f 40/3/40 26/4/26 24/5/24
f 40/3/40 41/6/41 26/4/26
f 40/3/40 24/5/24 42/7/42
f 40/3/40 32/4/32 41/6/41
f 40/3/40 42/7/42 37/5/37
f 40/3/40 37/5/37 32/4/32
f 26/4/26 41/6/41 28/8/28
f 28/8/28 41/6/41 32/4/32
f 43/9/43 44/9/44 45/9/45
f 43/9/43 46/9/46 44/9/44
f 43/9/43 45/9/45 47/9/47
f 43/9/43 48/9/48 46/9/46
f 43/9/43 47/9/47 49/9/49
f 43/9/43 49/9/49 48/9/48
f 44/9/44 50/9/50 45/9/45
f 44/9/44 46/9/46 51/9/51
f 44/9/44 51/9/51 50/9/50
f 47/9/47 52/9/52 49/9/49
f 47/9/47 45/9/45 53/9/53
f 47/9/47 53/9/53 52/9/52
f 45/9/45 50/9/50 53/9/53
f 48/9/48 54/9/54 46/9/46
f 48/9/48 49/9/49 55/9/55
f 48/9/48 55/9/55 54/9/54
f 49/9/49 52/9/52 55/9/55
f 46/9/46 54/9/54 51/9/51
f 50/9/50 56/9/56 53/9/53
f 50/9/50 51/9/51 56/9/56
f 56/9/56 52/9/52 53/9/53
f 56/9/56 55/9/55 52/9/52
f 56/9/56 54/9/54 55/9/55
f 56/9/56 51/9/51 54/9/54
f 57/9/56 58/9/57 59/9/58
f 57/9/56 60/9/59 58/9/57
f 57/9/56 59/9/58 61/9/60
f 57/9/56 62/9/61 60/9/59
f 57/9/56 61/9/60 63/9/62
f 57/9/56 63/9/62 62/9/61
f 58/9/57 64/9/63 59/9/58
f 58/9/57 60/9/59 65/9/64
f 58/9/57 65/9/64 64/9/63
f 61/9/60 66/9/65 63/9/62
f 61/9/60 59/9/58 67/9/66
f 61/9/60 67/9/66 66/9/65
f 59/9/58 64/9/63 67/9/66
f 62/9/61 68/9/67 60/9/59
f 62/9/61 63/9/62 69/9/68
f 62/9/61 69/9/68 68/9/67
f 63/9/62 66/9/65 69/9/68
f 60/9/59 68/9/67 65/9/64
f 64/9/63 70/9/43 67/9/66
f 64/9/63 65/9/64 70/9/43
f 70/9/43 69/9/68 66/9/65
f 70/9/43 65/9/64 68/9/67
f 70/9/43 66/9/65 67/9/66
f 70/9/43 68/9/67 69/9/68
f 71/10/69 72/10/70 73/10/71
f 71/10/69 74/10/72 72/10/70
f 71/10/69 73/10/71 75/10/73
f 71/10/69 76/10/74 74/10/72
f 71/10/69 75/10/73 77/10/75
f 71/10/69 77/10/75 76/10/74
f 72/10/70 78/10/76 73/10/71
f 72/10/70 74/10/72 78/10/76
f 75/10/73 73/10/71 79/10/77
f 79/10/77 74/10/72 76/10/74
f 79/10/77 78/10/76 74/10/72
f 79/10/77 73/10/71 78/10/76
f 80/11/78 2/12/2 4/13/4
f 80/11/78 9/14/9 2/12/2
f 80/11/78 4/13/4 81/15/79
f 80/11/78 16/16/16 9/14/9
f 80/11/78 81/15/79 17/17/17
f 80/11/78 17/17/17 16/16/16
f 4/13/4 10/18/10 81/15/79
f 10/18/10 82/19/80 81/15/79
f 83/11/81 7/13/7 5/12/5
f 83/11/81 84/15/82 7/13/7
f 83/11/81 5/12/5 11/14/11
f 83/11/81 21/17/21 84/15/82
f 83/11/81 11/14/11 20/16/20
f 83/11/81 20/16/20 21/17/21
f 7/13/7 84/15/82 12/18/12
f 84/15/82 85/19/83 12/18/12
f 86/20/84 87/21/85 88/22/86
f 86/20/84 89/23/87 87/21/85
f 86/20/84 88/22/86 90/22/88
f 86/20/84 90/22/88 91/21/89
f 86/20/84 91/21/89 92/23/90
f 89/23/87 93/24/91 87/21/85
f 88/22/86 87/21/85 10/25/10
f 88/22/86 10/25/10 6/26/6
f 90/22/88 12/25/12 91/21/89
f 90/22/88 8/26/8 12/25/12
f 92/23/90 91/21/89 94/24/92
f 95/27/93 33/28/33 34/29/34
f 95/27/93 24/30/24 33/28/33
f 95/27/93 34/29/34 96/31/94
f 95/27/93 96/31/94 24/30/24
f 34/29/34 97/27/95 96/31/94
f 34/29/34 39/28/39 97/27/95
f 96/31/94 97/27/95 37/30/37
f 37/30/37 97/27/95 39/28/39
f 98/32/96 29/33/29 23/34/23
f 98/32/96 35/35/35 29/33/29
f 98/32/96 23/34/23 30/36/30
f 98/32/96 30/36/30 35/35/35
f 30/36/30 99/32/97 35/35/35
f 30/36/30 36/34/36 99/32/97
f 35/35/35 99/32/97 38/33/38
f 38/33/38 99/32/97 36/34/36
f 100/37/98 89/37/87 86/37/84
f 100/37/98 19/37/19 89/37/87
f 100/37/98 86/37/84 92/37/90
f 100/37/98 92/37/90 19/37/19
f 89/37/87 19/37/19 15/37/15
f 89/37/87 15/37/15 17/37/17
f 92/37/90 18/37/18 19/37/19
f 92/37/90 21/37/21 18/37/18
f 96/38/94 101/38/99 24/38/24
f 96/38/94 37/38/37 101/38/99
f 88/39/86 8/39/8 90/39/88
f 88/39/86 6/39/6 8/39/8
f 87/40/85 93/40/91 82/40/80
f 87/40/85 82/40/80 10/40/10
f 91/40/89 85/40/83 94/40/92
f 91/40/89 12/40/12 85/40/83
f 102/9/43 103/9/43 104/9/43
f 102/9/43 105/9/43 106/9/43
f 106/9/43 107/9/43 108/9/43
f 108/9/43 109/9/43 110/9/43
f 111/9/56 112/9/56 113/9/56
f 111/9/56 114/9/56 115/9/56
f 114/9/56 116/9/56 117/9/56
f 116/9/56 118/9/56 119/9/56
f 102/9/56 104/9/56 103/9/56
f 102/9/56 106/9/56 105/9/56
f 106/9/56 108/9/56 107/9/56
f 108/9/56 110/9/56 109/9/56
f 111/9/43 113/9/43 112/9/43
f 111/9/43 115/9/43 114/9/43
f 114/9/43 117/9/43 116/9/43
f 116/9/43 119/9/43 118/9/43
f 37/41/100 42/41/100 101/41/100
f 42/41/101 24/41/101 101/41/101
vt 1.01229 0.916658
vt 0.89765 0.82116
vt 0.95815 0.939002
vt 0.191838 0.812531
vt 0.0247092 0.897583
o merged_1_0_node
g polygon_0
usemtl TEX_ANIM_EYE_mat_id
f 81/42/79 82/43/80 17/44/17
f 82/43/80 93/45/91 17/44/17
f 93/45/91 89/46/87 17/44/17
f 84/42/82 21/44/21 85/43/83
f 85/43/83 21/44/21 94/45/92
f 94/45/92 21/44/21 92/46/90
