mtllib Squirtle.mtl
v -0.0955898 0.217188 0
vt 0.1658 -2.81547
vn -0.589034 0.7944289 -0.14806
v -0.167564 0.160516 0.128299
vt -0.0489664 -3.22517
vn -0.833304 0.119354 0.539777
v -0.0477949 0.217188 0.0784182
vt 0.308417 -2.81547
vn -0.07534897 0.6937107 0.7163017
v 0.0477949 0.217188 0.0784182
vt 0.59365 -2.81547
vn 0.07534897 0.6937107 0.7163017
v 0.167564 0.160516 0.128299
vt 0.951034 -3.22517
vn 0.833304 0.119353 0.539777
v 0.0955898 0.217188 0
vt 0.736267 -2.81547
vn 0.589034 0.794429 -0.148059
v -0.136486 0.134183 0.00677208
vt 0.0437679 -3.71659
vn -0.9952869 -0.00582884 -0.09679859
v -0.0869032 0.130192 0.117461
vt 0.247401 -3.74544
vn -0.158903 -0.101926 0.9820188
v 0.0869032 0.130192 0.117461
vt 0.654666 -3.74544
vn 0.159481 -0.102627 0.9818521
v 0.136486 0.134183 0.0067721
vt 0.858299 -3.71659
vn 0.9953786 -0.007311497 -0.09574916
v -0.0719535 0 0
vt 0.27994 -4.38561
vn -0.22832 -0.9735839 -0.00212791
v -0.0648088 0.0342722 -0.101011
vt 0.257649 -4.13784
vn -0.2272249 -0.7982377 -0.5578398
v 0 0.0169234 0.0067721
vt 0.451034 -4.26327
vn -7.994157E-05 -0.9994196 0.03406389
v -0.0806832 0.0342722 0.09309201
vn -0.258372 -0.473669 0.8419511
v 0.0719535 0 0
vt 0.622127 -4.38561
vn 0.2294229 -0.9733257 -0.001508969
v 0.0800543 0.0342722 0.0930921
vt 0.644418 -4.13784
vn 0.2568541 -0.4742182 0.8421063
v 0.0648088 0.0342722 -0.101011
vn 0.219817 -0.7989179 -0.559831
v 0.12567 0.0505246 -0.0193567
vt 0.826023 -4.02035
vn 0.8973119 -0.441153 -0.0146757
v -0.12567 0.0505246 -0.0193567
vt 0.0760441 -4.02035
vn -0.8985319 -0.4384759 -0.0194785
v 0 0.218297 -0.00844712
vt 0.5 0.485357
vn 0 -0.9997223 0.02356541
v -0.107218 0.230124 -0.00844712
vt 0.490627 0.486391
vn -0.3362382 -0.9403425 -0.05196053
v 0 0.233736 -0.124169
vt 0.5 0.486707
vn 0 -0.9048338 -0.4257649
v 0 0.299078 -0.187442
vt 0.5 0.49242
vn 0 -0.2658559 -0.9640127
v -0.125016 0.281454 -0.142972
vt 0.489071 0.490879
vn -0.568372 -0.5869969 -0.5765309
v -0.170994 0.281454 -0.00844712
vt 0.485051 0.490879
vn -0.8723921 -0.48394 -0.06880561
v 0 0.239485 0.117917
vt 0.5 0.48721
vn 0 -0.9756716 0.2192369
v -0.133541 0.257514 0.108049
vt 0.488325 0.488786
vn -0.5507283 -0.6969194 0.4593492
v 0 0.253627 0.163188
vt 0.5 0.488446
vn 0 -0.6690828 0.7431878
v 0.107218 0.230124 -0.00844712
vt 0.509373 0.486391
vn 0.3362382 -0.9403425 -0.05196043
v 0.133541 0.257514 0.108049
vt 0.511675 0.488786
vn 0.5507283 -0.6969194 0.4593492
v 0.170994 0.281454 -0.00844712
vt 0.514949 0.490879
vn 0.8723916 -0.4839408 -0.06880548
v 0.125016 0.281454 -0.142972
vt 0.510929 0.490879
vn 0.5683713 -0.5869973 -0.5765313
v -0.183842 0.351572 -0.00844712
vt 0.483928 0.497009
vn -0.9978649 0.06005549 -0.0256701
v -0.133991 0.359061 -0.152168
vt 0.488286 0.497664
vn -0.6929607 0.05243978 -0.7190657
v -0.141425 0.325984 0.123547
vt 0.487636 0.494772
vn -0.6498638 0.0139467 0.7599227
v 0.183842 0.351572 -0.00844712
vt 0.516072 0.497009
vn 0.9978649 0.06005549 -0.0256701
v 0.141425 0.325984 0.123547
vt 0.512364 0.494772
vn 0.6498638 0.0139467 0.7599227
v 0.133991 0.359061 -0.152168
vt 0.511714 0.497664
vn 0.6929602 0.05243981 -0.7190662
v 0 0.422541 -0.180074
vt 0.5 0.503213
vn 0 0.2982222 -0.9544965
v -0.116684 0.443909 -0.14041
vt 0.489799 0.505081
vn -0.5846807 0.5427898 -0.6029327
v -0.158975 0.443909 -0.00844712
vt 0.486102 0.505081
vn -0.9026278 0.4292799 -0.03133559
v -0.131314 0.431575 0.117806
vt 0.48852 0.504003
vn -0.5921789 0.3734319 0.7140538
v 0.131314 0.431575 0.117806
vt 0.51148 0.504003
vn 0.5921789 0.3734319 0.7140538
v 0.158975 0.443909 -0.00844712
vt 0.513898 0.505081
vn 0.9026278 0.4292799 -0.03133559
v 0.116684 0.443909 -0.14041
vt 0.510201 0.505081
vn 0.5846807 0.5427898 -0.6029327
v 0 0.532707 -0.00844712
vt 0.5 0.512844
vn 0 0.999963 0.00860315
v 0 0.502794 -0.11668
vt 0.5 0.510229
vn 0 0.856482 -0.516177
v -0.107218 0.50853 -0.00844712
vt 0.490627 0.510731
vn -0.4921319 0.8702859 0.0202156
v 0 0.500874 0.118194
vt 0.5 0.510062
vn 0 0.8441508 0.5361059
v 0 0.431575 0.168267
vt 0.5 0.504003
vn 0 0.2444349 0.9696657
v 0.107218 0.50853 -0.00844712
vt 0.509373 0.510731
vn 0.4921319 0.8702859 0.0202156
v 0 0.184697 -0.242997
vt 0.0465226 1.00116
vn 0 0.8984264 0.4391242
v -0.0488523 0.122594 -0.257632
vt 0.162455 0.509218
vn -0.9958957 -0.06650218 0.06139309
v 0 0.0541322 -0.125395
vt -0.885063 -0.033105
vn 0 -0.5955611 0.80331
v 0.0488523 0.122595 -0.257632
vn 0.9958957 -0.06650209 0.06139309
v 0 0.07109329 -0.317632
vt 0.637742 0.101252
vn 0 -0.8526566 -0.5224718
v 0 0.165212 -0.337116
vt 0.792086 0.846814
vn 0 0.4820899 -0.8761218
o merged_0_0_node
g polygon_0
usemtl sippo1_mat_id
f 1/1/1 2/2/2 3/3/3
f 4/4/4 5/5/5 6/6/6
f 7/7/7 8/8/8 2/2/2
f 2/2/2 8/8/8 3/3/3
f 7/7/7 2/2/2 1/1/1
f 9/9/9 10/10/10 5/5/5
f 5/5/5 10/10/10 6/6/6
f 9/9/9 5/5/5 4/4/4
f 11/11/11 12/12/12 13/13/13
f 14/12/14 11/11/11 13/13/13
f 15/14/15 16/15/16 13/13/13
f 17/15/17 18/16/18 15/14/15
f 17/15/17 15/14/15 13/13/13
f 18/16/18 16/15/16 15/14/15
f 14/12/14 19/17/19 11/11/11
f 19/17/19 12/12/12 11/11/11
f 20/18/20 21/19/21 22/20/22
f 23/21/23 22/20/22 24/22/24
f 22/20/22 21/19/21 24/22/24
f 24/22/24 21/19/21 25/23/25
f 20/18/20 26/24/26 21/19/21
f 25/23/25 21/19/21 27/25/27
f 21/19/21 26/24/26 27/25/27
f 27/25/27 26/24/26 28/26/28
f 20/18/20 29/27/29 26/24/26
f 28/26/28 26/24/26 30/28/30
f 26/24/26 29/27/29 30/28/30
f 30/28/30 29/27/29 31/29/31
f 20/18/20 22/20/22 29/27/29
f 31/29/31 29/27/29 32/30/32
f 29/27/29 22/20/22 32/30/32
f 32/30/32 22/20/22 23/21/23
f 25/23/25 33/31/33 24/22/24
f 33/31/33 34/32/34 24/22/24
f 35/33/35 33/31/33 27/25/27
f 25/23/25 27/25/27 33/31/33
f 31/29/31 36/34/36 30/28/30
f 36/34/36 37/35/37 30/28/30
f 38/36/38 36/34/36 32/30/32
f 31/29/31 32/30/32 36/34/36
f 39/37/39 34/32/34 40/38/40
f 34/32/34 33/31/33 40/38/40
f 40/38/40 33/31/33 41/39/41
f 41/39/41 33/31/33 42/40/42
f 33/31/33 35/33/35 42/40/42
f 37/35/37 36/34/36 43/41/43
f 44/42/44 43/41/43 36/34/36
f 38/36/38 45/43/45 36/34/36
f 36/34/36 45/43/45 44/42/44
f 46/44/46 47/45/47 48/46/48
f 39/37/39 40/38/40 47/45/47
f 47/45/47 40/38/40 48/46/48
f 40/38/40 41/39/41 48/46/48
f 46/44/46 48/46/48 49/47/49
f 41/39/41 42/40/42 48/46/48
f 48/46/48 42/40/42 49/47/49
f 42/40/42 50/48/50 49/47/49
f 46/44/46 49/47/49 51/49/51
f 50/48/50 43/41/43 49/47/49
f 49/47/49 43/41/43 51/49/51
f 43/41/43 44/42/44 51/49/51
f 46/44/46 51/49/51 47/45/47
f 44/42/44 45/43/45 51/49/51
f 51/49/51 45/43/45 47/45/47
f 45/43/45 39/37/39 47/45/47
f 34/32/34 23/21/23 24/22/24
f 23/21/23 38/36/38 32/30/32
f 39/37/39 45/43/45 38/36/38
f 38/36/38 23/21/23 39/37/39
f 39/37/39 23/21/23 34/32/34
f 52/50/52 53/51/53 54/52/54
f 52/50/52 54/52/54 55/51/55
f 56/53/56 55/51/55 54/52/54
f 56/53/56 54/52/54 53/51/53
f 52/50/52 57/54/57 53/51/53
f 55/51/55 57/54/57 52/50/52
f 56/53/56 57/54/57 55/51/55
f 53/51/53 57/54/57 56/53/56
vt 0 0.55248
vt 0.204427 0.0817408
vt 0.181641 0.533677
vt 0.793269 0.0817408
vt 0.818359 0.533677
vt 0.960374 0.158316
vt 1 0.55248
vt 0.32491 0.943567
vt 0.67509 0.943567
vt 0.262581 0.0817408
vt 0.737419 0.0817408
vt 0.5 0
vt 0.149819 0.943567
v 0 0.229166 0
vt 0.5 1
vn 0 0.9989723 0.04532522
vt 0.850181 0.943567
vt 0.0396255 0.158316
o merged_1_0_node
g polygon_0
usemtl front1_mat_id
f 7/55/7 14/56/14 8/57/8
f 14/56/14 16/58/16 8/57/8
f 8/57/8 16/58/16 9/59/9
f 18/60/18 10/61/10 16/58/16
f 8/57/8 9/59/9 3/62/3
f 3/62/3 9/59/9 4/63/4
f 12/64/12 17/65/17 13/66/13
f 16/58/16 14/56/14 13/66/13
f 1/67/1 3/62/3 58/68/58
f 3/62/3 4/63/4 58/68/58
f 4/63/4 6/69/6 58/68/58
f 16/58/16 10/61/10 9/59/9
f 19/70/19 14/56/14 7/55/7
v 0.068493 0.0565517 -0.107586
vt 0.781606 0
vn 0.305448 -0.232941 -0.9232768
v -0.066526 0.0565517 -0.107586
vt 0.218394 0
vn -0.2887281 -0.2339151 -0.9283963
v 0.0682432 0.0884007 -0.114161
vt 0.788875 0.190128
vn 0.312696 0.187358 -0.9311919
v -0.0682431 0.0884007 -0.114161
vt 0.211125 0.190128
vn -0.3154189 0.1871759 -0.9303097
v -0.115433 0.0699608 -0.0376918
vt 0.0113708 0.0800474
vn -0.8437083 0.008774454 -0.5367302
v 0.118119 0.124548 -0.0175059
vt 1 0.405918
vn 0.8156153 0.2395011 -0.5266982
v 0.115433 0.0699608 -0.0376917
vt 0.988629 0.0800474
vn 0.846599 0.000486569 -0.532231
v 0.0477949 0.212176 -0.0819574
vt 0.702317 0.929028
vn 0.3405139 0.4309989 -0.8356377
v -0.0477949 0.212176 -0.0819575
vt 0.297683 0.929028
vn -0.340513 0.430999 -0.835638
v -0.118119 0.124548 -0.017506
vt 0 0.405918
vn -0.8156148 0.2395009 -0.5266989
v -0.0827259 0.215177 -0.0236576
vt 0.149819 0.946937
vn -0.7397961 0.4633691 -0.4878431
v 0.0827259 0.215177 -0.0236576
vt 0.850181 0.946937
vn 0.7397961 0.4633691 -0.4878431
v 0.0275753 0.224065 -0.0236576
vt 0.616727 1
vn 0.05972387 0.9842196 -0.1665679
v -0.0275753 0.224065 -0.0236576
vt 0.383273 1
vn -0.05972377 0.9842196 -0.1665679
o merged_2_0_node
g polygon_0
usemtl back1_mat_id
f 59/71/59 60/72/60 61/73/61
f 61/73/61 60/72/60 62/74/62
f 60/72/60 63/75/63 62/74/62
f 64/76/64 65/77/65 61/73/61
f 61/73/61 62/74/62 66/78/66
f 66/78/66 62/74/62 67/79/67
f 62/74/62 68/80/68 67/79/67
f 67/79/67 68/80/68 69/81/69
f 70/82/70 64/76/64 66/78/66
f 66/78/66 64/76/64 61/73/61
f 66/78/66 67/79/67 71/83/71
f 71/83/71 67/79/67 72/84/72
f 67/79/67 69/81/69 72/84/72
f 70/82/70 66/78/66 71/83/71
f 61/73/61 65/77/65 59/71/59
f 62/74/62 63/75/63 68/80/68
vt 0.610231 0.845548
vt 0.577281 0.837702
vt 0.603019 0.855846
vt 0.578154 0.849029
vt 0.511382 0.837702
vt 0.510509 0.849029
vt 0.485644 0.855846
vt 0.478433 0.845548
vt 0.484279 0.873256
vt 0.47494 0.874438
vt 0.502273 0.929676
vt 0.495733 0.930699
vt 0.530312 0.934195
vt 0.544332 0.936788
vt 0.558351 0.934195
vt 0.586391 0.929676
vt 0.592931 0.930699
vt 0.613723 0.874438
vt 0.604385 0.873256
o merged_3_0_node
g polygon_0
usemtl skinset_mat_id
f 18/85/18 17/86/17 65/87/65
f 65/87/65 17/86/17 59/88/59
f 12/89/12 60/90/60 17/86/17
f 17/86/17 60/90/60 59/88/59
f 63/91/63 19/92/19 68/93/68
f 68/93/68 19/92/19 7/94/7
f 69/95/69 68/93/68 1/96/1
f 1/96/1 68/93/68 7/94/7
f 69/95/69 1/96/1 72/97/72
f 72/97/72 1/96/1 58/98/58
f 71/99/71 72/97/72 58/98/58
f 70/100/70 71/99/71 6/101/6
f 6/101/6 71/99/71 58/98/58
f 10/102/10 64/103/64 6/101/6
f 6/101/6 64/103/64 70/100/70
f 65/87/65 64/103/64 18/85/18
f 18/85/18 64/103/64 10/102/10
f 19/92/19 63/91/63 12/89/12
f 12/89/12 63/91/63 60/90/60
v 0 0.302314 0.183863
vt 0.500228 0.45879
vn 0 -0.27008 0.9628379
vt -0.0730497 -0.398655
vt 0.500228 -0.476417
vt 1.07351 -0.398655
v 0 0.325984 0.185391
vt 0.500228 0.970916
vn 0 0.106864 0.9942737
vt 1.0765 0.970916
vt -0.0760403 0.970916
o merged_4_0_node
g polygon_0
usemtl mouth1_mat_id
f 73/104/73 27/105/27 28/106/28
f 73/104/73 28/106/28 30/107/30
f 74/108/74 73/104/73 37/109/37
f 74/108/74 35/110/35 73/104/73
f 73/104/73 30/107/30 37/109/37
f 73/104/73 35/110/35 27/105/27
vt 0.202727 0.772718
vt 1.23974 0.787909
vt 0.23535 1.01652
vt 1.1099 1.01652
o merged_5_0_node
g polygon_0
usemtl TEX_ANIM_EYE_mat_id
f 35/111/35 74/112/74 42/113/42
f 42/113/42 74/112/74 50/114/50
f 50/114/50 74/112/74 43/113/43
f 43/113/43 74/112/74 37/111/37
