mtllib Deoxys_Normal.mtl
v -0.092882 0.221799 -0.119785
vt 0.720554 0.312078
vn -0.47847 0.207188 -0.853311
v 0 0.211622 -0.181608
vt 1 0.166525
vn 0 0.5375811 -0.8432121
v -0.0664772 0.163136 -0.137046
vt 0.799996 0.134934
vn -0.09236335 -0.7430936 -0.6627827
v 0.0928821 0.221799 -0.119785
vt 1.27945 0.312078
vn 0.47847 0.207188 -0.853311
v -0.152186 0.206066 0
vt 0.503606 0.261326
vn -0.9216292 -0.2927231 0.2547801
v 0.0918001 0.269375 -0.107663
vt 1.27619 0.455739
vn 0.311176 -0.084368 -0.9466
v -0.152312 0.221799 0
vt 0.503193 0.309474
vn -0.8598108 -0.4258569 -0.281729
v -0.0918 0.269375 -0.107663
vt 0.72381 0.455739
vn -0.311176 -0.0843681 -0.9466
v 0.0664773 0.163136 -0.137046
vt 1.2 0.134934
vn 0.09236356 -0.7430937 -0.6627827
v 0.0907182 0.375317 -0.135477
vt 1.27294 0.775648
vn 0.3562368 0.05054747 -0.9330275
v 0.152312 0.221799 0
vt 1.49681 0.309474
vn 0.8598117 -0.4258578 -0.2817249
v 0.150538 0.326044 0
vt 1.45291 0.626861
vn 0.8899807 0.04073609 -0.4541749
v -0.150538 0.326044 0
vt 0.547091 0.626861
vn -0.8898441 0.0403605 -0.4544761
v 0 0.123877 0
vt 1 0.0163863
vn 0 -0.9985766 -0.05333468
v 0.152186 0.206066 0
vt 1.49639 0.261326
vn 0.9216292 -0.2927231 0.2547801
v 0.148763 0.430289 0
vt 1.28019 0.783142
vn 0.7091383 0.6954953 -0.115798
v -0.0907181 0.375317 -0.135477
vt 0.727065 0.775648
vn -0.3562368 0.05054728 -0.9330275
v 0 0.453414 -0.114825
vt 1 1.01147
vn 0 0.8321303 -0.5545802
vt 1.28019 0.884139
v -0.148763 0.430289 0
vt 0.714455 0.884139
vn -0.7090219 0.6955949 -0.115913
vt 0.714455 0.776686
v -0.0928821 0.221799 0.111913
vt -0.282735 0.309474
vn -0.1142619 -0.5215997 0.8455045
v 0.0733209 0.167094 0.0996039
vt 0.22319 0.142061
vn 0.178701 -0.476725 0.860697
v 0.092882 0.221799 0.111913
vt 0.282734 0.309474
vn 0.114266 -0.5215999 0.8455039
v -0.073321 0.167094 0.0996039
vt -0.22319 0.142061
vn -0.178701 -0.476725 0.860697
v 0 0.274124 0.116547
vt 0 0.469601
vn 0.0003249201 -0.08835272 0.9960892
vt -0.49587 0.261326
v -0.0381528 0.289016 0.11795
vt -0.116138 0.515174
vt -0.496281 0.309474
v -0.0918001 0.326044 0.121145
vt -0.279441 0.628489
vn 0.1915629 -0.07848087 0.9783376
vt 0.49587 0.261326
vt 0 0.00980712
vn 0 -0.9173707 0.3980339
v 0.0381528 0.289016 0.11795
vt 0.116138 0.515174
v -0.0527431 0.326367 0.121132
vt -0.160551 0.629477
vn 0.00144498 -0.04814691 0.9988392
vt 0.496281 0.309474
v 0.0918 0.326044 0.121145
vt 0.279441 0.628489
vn -0.1915781 -0.07807203 0.9783673
v 0.052743 0.326367 0.121132
vt 0.160551 0.629477
v -0.347315 0.5942819 -0.0162875
vt 0.695542 -0.00254169
vn -0.212277 -0.2293541 -0.9499133
v -0.209131 0.705853 -0.0162875
vt 0.276826 0.168946
vn -0.02311929 0.2760978 -0.9608514
v -0.209131 0.566388 -0.0162875
vt 0.276826 -0.0454158
vn -0.05994007 -0.2969349 -0.9530146
v -0.347315 0.6942819 -0.0162875
vt 0.695542 0.151162
vn -0.19795 0.245166 -0.9490571
v -0.209131 0.566388 0.0162875
vn -0.05994007 -0.2969349 0.9530146
v -0.347315 0.6942819 0.0162875
vn -0.19795 0.245166 0.9490571
v -0.347315 0.5942819 0.0162875
vn -0.212277 -0.2293541 0.9499133
v -0.209131 0.705853 0.0162875
vn -0.02311929 0.2760978 0.9608514
v 0.347315 0.5942819 -0.0162875
vn 0.2122761 -0.2293541 -0.9499134
v 0.209131 0.705853 -0.0162875
vn 0.02311919 0.2760978 -0.9608514
v 0.347315 0.6942819 -0.0162875
vn 0.19795 0.245166 -0.9490571
v 0.209131 0.566388 -0.0162875
vn 0.05994007 -0.2969349 -0.9530146
v 0.347315 0.6942819 0.0162875
vn 0.19795 0.245166 0.9490571
v 0.209131 0.566388 0.0162875
vn 0.05994007 -0.2969349 0.9530146
v 0.347315 0.5942819 0.0162875
vn 0.212277 -0.2293541 0.9499133
v 0.209131 0.705853 0.0162875
vn 0.02311929 0.2760978 0.9608514
v 0 0.454282 0
vt 0.00126725 0.831254
vn 0 0.9977961 0.06635401
vt -0.457084 0.831254
v -0.0907181 0.430289 0.12204
vt -0.278242 0.618959
vn -0.3140981 0.8184004 0.4812102
vt 0.00126725 1.031
v 0.0907181 0.430289 0.12204
vt 0.280776 0.618959
vn 0.314314 0.818357 0.481143
vt 0.459618 0.831254
v -0.24802 0.265573 0.180868
vt 0.312529 0.953305
vn -0.8478794 -0.2459561 0.4696873
v 0.247822 0.265586 0.180831
vn 0.8478543 -0.2459951 0.4697122
v -0.265546 0.244903 0.15488
vt 0.0469378 0.813189
vn -0.870112 -0.0187576 0.492497
vt 0.110811 0.809007
vt 0.110811 0.81797
v 0.265546 0.244905 0.15488
vn 0.8701121 -0.0187529 0.492497
vn -0.406836 0.756103 0.5126331
v 0.182191 0.208674 0
vt 0.554591 0.192041
vn -0.0484541 0.998742 -0.0129123
vn -0.08657481 0.9962171 -0.007502571
v 0.09086481 0.150039 0.138401
vt 0.276594 0.0898688
vn 0.1977989 -0.4697578 0.8603507
vt 0 0.0840251
vn 0.4068357 0.7561035 0.5126327
v -0.0908649 0.150039 0.138401
vt -0.276594 0.0898688
vn -0.1977989 -0.4697578 0.8603507
v -0.182191 0.208674 0
vt -0.554591 0.192041
vn 0.0484541 0.998742 -0.0129125
vn 0.08657481 0.9962171 -0.00750293
vt 0.305119 0.958268
v 0.0372639 0.363718 0.121601
vn 0.0006979331 -0.008091281 0.999967
v 0 0.37861 0.121596
v -0.037264 0.363718 0.121601
vt 0.45186 0.192041
vn -0.0338412 0.9395392 -0.3407651
v -0.09086481 0.150039 -0.16998
vt 0.726623 0.129461
v -0.161503 0.150039 0
vt 0.284192 0.952331
vn -0.917816 -0.397 -0.00218004
vn -0.9429392 -0.3326811 -0.0137443
vn -0.2170741 -0.7206392 -0.6584513
v 0.0908649 0.150039 -0.16998
vn 0.2170741 -0.7206392 -0.6584513
vn 0.9429392 -0.3326811 -0.013744
v 0.161503 0.150039 0
vn 0.917816 -0.397 -0.0021797
vn 0.03870519 0.9380348 -0.3443729
vt 1.54814 0.192041
vt 1.27338 0.129461
v -0.0908661 1.490116E-08 0
vt 0.284817 0.964461
vn -0.08356639 -0.9956949 -0.0401049
v 0.0908661 1.490116E-08 0
vn 0.08356629 -0.9956949 -0.0401048
vt 0.565096 0.994854
vt 0.565099 0.54189
vt 0.288436 0.917199
vt 0.778584 0.994854
v 0.0300888 0.297538 0.10266
vt 0.493448 0.455283
vn -0.6623192 0.4589172 0.5922232
vt 0.368638 0.520388
vn 0 0.7799325 0.6258637
vt 0.508358 0.520388
v 0 0.285964 0.102101
vt 0.383548 0.455283
v 0.0415128 0.327065 0.104092
vn -0.8285446 -0.03633738 0.5587428
vn -0.6602718 -0.5221608 0.5398048
v 0.0295622 0.356591 0.105514
vn 0 -0.8358631 0.548938
v 0 0.368166 0.106073
v -0.0295622 0.356591 0.105514
vn 0.6602718 -0.5221608 0.5398048
v -0.0415129 0.327065 0.104092
vn 0.8285443 -0.03633731 0.5587432
v -0.0300889 0.297538 0.10266
vn 0.6623202 0.4589171 0.5922221
o merged_0_0_node
g polygon_0
usemtl lambert9_mat_id
f 1/1/1 2/2/2 3/3/3
f 1/1/1 4/4/4 2/2/2
f 1/1/1 3/3/3 5/5/5
f 1/1/1 6/6/6 4/4/4
f 1/1/1 5/5/5 7/7/7
f 1/1/1 8/8/8 6/6/6
f 1/1/1 7/7/7 8/8/8
f 2/2/2 9/9/9 3/3/3
f 2/2/2 4/4/4 9/9/9
f 6/6/6 8/8/8 10/10/10
f 6/6/6 11/11/11 4/4/4
f 6/6/6 10/10/10 12/12/12
f 6/6/6 12/12/12 11/11/11
f 7/7/7 13/13/13 8/8/8
f 3/3/3 9/9/9 14/14/14
f 4/4/4 11/11/11 15/15/15
f 4/4/4 15/15/15 9/9/9
f 10/10/10 16/16/16 12/12/12
f 10/10/10 8/8/8 17/17/17
f 10/10/10 17/17/17 18/18/18
f 10/10/10 18/18/18 16/19/16
f 8/8/8 13/13/13 17/17/17
f 18/18/18 17/17/17 19/20/19
f 13/13/13 19/21/19 17/17/17
f 20/22/20 21/23/21 22/24/22
f 20/22/20 23/25/23 21/23/21
f 20/22/20 22/24/22 24/26/24
f 20/22/20 5/27/5 23/25/23
f 20/22/20 24/26/24 25/28/24
f 20/22/20 7/29/7 5/27/5
f 20/22/20 25/28/24 26/30/25
f 21/23/21 15/31/15 22/24/22
f 21/23/21 23/25/23 14/32/26
f 24/26/24 22/24/22 27/33/24
f 25/28/24 28/34/27 26/30/25
f 15/31/15 11/35/11 22/24/22
f 27/33/24 22/24/22 29/36/28
f 27/33/24 29/36/28 30/37/27
f 31/38/29 32/39/30 33/40/31
f 31/38/29 34/41/32 32/39/30
f 31/38/29 33/40/31 35/40/33
f 31/38/29 36/41/34 34/41/32
f 31/38/29 35/40/33 37/38/35
f 31/38/29 37/38/35 36/41/34
f 34/41/32 36/41/34 32/39/30
f 35/40/33 38/39/36 37/38/35
f 38/39/36 36/41/34 37/38/35
f 38/39/36 32/39/30 36/41/34
f 39/38/37 40/39/38 41/41/39
f 39/38/37 42/40/40 40/39/38
f 39/38/37 41/41/39 43/41/41
f 39/38/37 44/40/42 42/40/40
f 39/38/37 43/41/41 45/38/43
f 39/38/37 45/38/43 44/40/42
f 41/41/39 40/39/38 43/41/41
f 45/38/43 46/39/44 44/40/42
f 45/38/43 43/41/41 46/39/44
f 46/39/44 43/41/41 40/39/38
f 47/42/45 19/43/19 48/44/46
f 47/42/45 18/45/18 19/43/19
f 47/42/45 48/44/46 49/46/47
f 47/42/45 16/47/16 18/45/18
f 47/42/45 49/46/47 16/47/16
f 50/48/48 48/48/46 19/48/19
f 50/48/48 26/48/25 48/48/46
f 50/48/48 19/48/19 13/48/13
f 50/48/48 13/48/13 26/48/25
f 51/48/49 16/48/16 49/48/47
f 51/48/49 12/48/12 16/48/16
f 51/48/49 49/48/47 29/48/28
f 51/48/49 29/48/28 12/48/12
f 52/49/50 7/50/7 20/50/20
f 52/49/50 13/51/13 7/50/7
f 52/49/50 20/50/20 26/51/25
f 52/49/50 26/51/25 13/51/13
f 53/49/51 22/50/22 11/50/11
f 53/49/51 29/51/28 22/50/22
f 53/49/51 11/50/11 12/51/12
f 53/49/51 12/51/12 29/51/28
f 21/23/52 54/52/53 15/31/54
f 21/23/52 55/53/55 54/52/53
f 21/23/52 14/54/14 55/53/55
f 14/54/14 23/25/56 56/55/57
f 23/25/56 57/56/58 56/55/57
f 23/25/56 5/27/59 57/56/58
f 49/57/47 58/57/60 29/57/28
f 49/57/47 59/57/60 58/57/60
f 49/57/47 48/57/46 59/57/60
f 29/57/28 58/57/60 30/57/27
f 48/57/46 60/57/60 59/57/60
f 48/57/46 26/57/25 60/57/60
f 26/57/25 28/57/27 60/57/60
f 57/58/58 5/5/59 3/3/61
f 57/58/58 3/3/61 61/59/61
f 62/60/62 57/60/63 61/60/64
f 62/60/62 56/60/57 57/60/63
f 61/60/64 3/60/3 14/60/14
f 14/60/14 9/60/9 63/60/65
f 63/60/65 54/60/66 64/60/67
f 54/60/66 55/60/55 64/60/67
f 9/9/68 54/61/53 63/62/68
f 9/9/68 15/15/54 54/61/53
f 65/63/69 61/63/64 14/63/14
f 65/63/69 62/63/62 61/63/64
f 14/63/14 63/63/65 66/63/70
f 63/63/65 64/63/67 66/63/70
f 56/64/57 65/65/69 14/66/14
f 56/64/57 62/67/62 65/65/69
f 14/66/14 66/65/70 55/64/55
f 66/65/70 64/67/67 55/64/55
f 67/68/71 24/69/72 27/70/71
f 67/68/71 68/71/72 24/69/72
f 69/68/73 27/69/71 30/70/73
f 69/68/73 67/71/71 27/69/71
f 58/70/74 69/71/73 30/69/73
f 58/70/74 70/68/74 69/71/73
f 59/70/75 70/71/74 58/69/74
f 59/70/75 71/68/75 70/71/74
f 72/68/76 59/69/75 60/70/76
f 72/68/76 71/71/75 59/69/75
f 73/68/77 60/69/76 28/70/77
f 73/68/77 72/71/76 60/69/76
f 24/70/72 74/71/78 25/69/78
f 24/70/72 68/68/72 74/71/78
f 25/70/78 73/71/77 28/69/77
f 25/70/78 74/68/78 73/71/77
v 0.223963 0.558808 0
vt 0.93172 0.951913
vn 0.915251 -0.399252 -0.053976
v 0.170873 0.577335 0.157727
vn 0.7586107 -0.2169009 0.6143808
v 0.135495 0.501016 0.138213
vn 0.5669022 -0.7344063 0.3731881
v 0.211809 0.640936 0.0918127
vn 0.9481376 -0.002289669 0.3178519
v 0.12625 0.461145 0
vn 0.4381311 -0.8989111 0.000127084
v 0.223963 0.729185 0
vn 0.9216276 0.3851328 -0.04770008
v 0.138417 0.518252 -0.138417
vn 0.6533312 -0.5142461 -0.5556161
v 0.204276 0.640936 -0.12625
vn 0.8518441 -0.00212713 -0.5237911
v 0.1709 0.7079309 0.1577
vn 0.7591072 0.2074191 0.6170362
v 0 0.442245 0.0855461
vn 0 -0.9904737 0.137702
v 0.0855461 0.640936 -0.223963
vn 0.3442889 -0.02037959 -0.9386426
v 0.0631248 0.459486 -0.166224
vn 0.2216369 -0.9059567 -0.3607209
v 0 0.523683 -0.193489
vn 0 -0.347349 -0.937736
v 0.138417 0.779943 0.138417
vn 0.6164128 0.6789278 0.3988639
v 0.138417 0.779943 -0.138417
vn 0.585071 0.575821 -0.571071
v 0.12625 0.83705 0
vn 0.5467221 0.8373141 0
v -0.0631248 0.459486 -0.166224
vn -0.2216369 -0.9059567 -0.3607209
v -0.0855461 0.640936 -0.223963
vn -0.3442889 -0.02037959 -0.9386426
v -0.138417 0.518252 -0.138417
vn -0.6533312 -0.5142461 -0.5556161
v 0 0.872273 0.0855461
vn 0 0.969638 0.244545
v 0 0.7723429 -0.204276
vn 0 0.521273 -0.85339
v 0 0.872273 -0.0855461
vn 0 0.9408808 -0.3387379
v -0.12625 0.461145 0
vn -0.4381311 -0.8989111 0.00012708
v -0.204276 0.640936 -0.12625
vn -0.8518437 -0.002127149 -0.5237918
v -0.223963 0.558808 0
vn -0.915251 -0.399252 -0.053976
v -0.12625 0.83705 0
vn -0.5467221 0.8373141 0
v -0.138417 0.779943 -0.138417
vn -0.585071 0.575821 -0.571071
v -0.135495 0.501016 0.138213
vn -0.5669022 -0.7344063 0.3731881
v -0.223963 0.729185 0
vn -0.9216276 0.3851328 -0.04770008
v -0.170873 0.577335 0.157727
vn -0.7586107 -0.2169009 0.6143808
v -0.211809 0.640936 0.0918127
vn -0.9481376 -0.002289649 0.3178519
v -0.138417 0.779943 0.138417
vn -0.6164128 0.6789278 0.3988639
v -0.1709 0.7079309 0.1577
vn -0.7591072 0.2074191 0.6170362
v 0.0510512 0.7999179 0.185275
vt 0.31888 0.867521
vn 0.193966 0.629648 0.752277
vt 0.864587 0.805505
vt 0 1.09215
v 0.1181 0.7079309 0.1937
vt 0.737685 0.581936
vn 0.485453 0.115002 0.866666
v -0.0510512 0.7999179 0.185275
vt -0.31888 0.867521
vn -0.193966 0.629648 0.752277
v 0.0515453 0.7079309 0.223567
vt 0.321966 0.581936
vn 0.1467761 0.144134 0.9786124
v -0.0515453 0.7079309 0.223567
vt -0.321966 0.581936
vn -0.1467761 0.144134 0.9786124
vt 1.06749 0.581936
vt -0.864587 0.805505
v -0.0510128 0.577335 0.223445
vt -0.31864 0.423658
vn -0.145585 -0.171329 0.974398
v -0.1181 0.7079309 0.1937
vt -0.737685 0.581936
vn -0.485453 0.115002 0.866666
v 0.0510128 0.577335 0.223445
vt 0.31864 0.423658
vn 0.145585 -0.171329 0.974398
v 0.0508601 0.488446 0.178398
vt 0.317686 0.147695
vn 0.150819 -0.6828282 0.7148422
v -0.0508601 0.488446 0.178398
vt -0.317686 0.147695
vn -0.1508189 -0.6828287 0.7148417
v -0.118131 0.577335 0.193692
vt -0.737879 0.423658
vn -0.4780528 -0.1243259 0.8694876
vt -1.06749 0.581936
v 0.118131 0.577335 0.193692
vt 0.737879 0.423658
vn 0.4780528 -0.1243259 0.8694876
vt -0.84634 0.18672
vt -1.06732 0.423658
vt 0.84634 0.18672
vt 0 0.00425932
vt 1.06732 0.423658
o merged_1_0_node
g polygon_0
usemtl lambert8_mat_id
f 75/72/79 76/72/80 77/72/81
f 75/72/79 78/72/82 76/72/80
f 75/72/79 77/72/81 79/72/83
f 75/72/79 80/72/84 78/72/82
f 75/72/79 79/72/83 81/72/85
f 75/72/79 82/72/86 80/72/84
f 75/72/79 81/72/85 82/72/86
f 76/72/80 78/72/82 83/72/87
f 78/72/82 80/72/84 83/72/87
f 77/72/81 84/72/88 79/72/83
f 81/72/85 85/72/89 82/72/86
f 81/72/85 79/72/83 86/72/90
f 81/72/85 87/72/91 85/72/89
f 81/72/85 86/72/90 87/72/91
f 79/72/83 84/72/88 86/72/90
f 80/72/84 88/72/92 83/72/87
f 80/72/84 82/72/86 89/72/93
f 80/72/84 90/72/94 88/72/92
f 80/72/84 89/72/93 90/72/94
f 82/72/86 85/72/89 89/72/93
f 87/72/91 86/72/90 91/72/95
f 87/72/91 92/72/96 85/72/89
f 87/72/91 91/72/95 93/72/97
f 87/72/91 93/72/97 92/72/96
f 86/72/90 84/72/88 91/72/95
f 88/72/92 90/72/94 94/72/98
f 89/72/93 85/72/89 95/72/99
f 89/72/93 96/72/100 90/72/94
f 89/72/93 95/72/99 96/72/100
f 90/72/94 96/72/100 94/72/98
f 85/72/89 92/72/96 95/72/99
f 93/72/97 91/72/95 97/72/101
f 93/72/97 98/72/102 92/72/96
f 93/72/97 97/72/101 99/72/103
f 93/72/97 99/72/103 98/72/102
f 91/72/95 84/72/88 97/72/101
f 96/72/100 100/72/104 94/72/98
f 96/72/100 95/72/99 101/72/105
f 96/72/100 101/72/105 100/72/104
f 92/72/96 98/72/102 101/72/105
f 92/72/96 101/72/105 95/72/99
f 99/72/103 97/72/101 102/72/106
f 99/72/103 103/72/107 98/72/102
f 99/72/103 102/72/106 104/72/108
f 99/72/103 105/72/109 103/72/107
f 99/72/103 104/72/108 105/72/109
f 101/72/105 103/72/107 100/72/104
f 101/72/105 98/72/102 103/72/107
f 102/72/106 97/72/101 84/72/88
f 94/72/98 100/72/104 106/72/110
f 100/72/104 103/72/107 106/72/110
f 104/72/108 107/72/111 105/72/109
f 107/72/111 103/72/107 105/72/109
f 107/72/111 106/72/110 103/72/107
f 108/73/112 88/74/92 94/75/98
f 108/73/112 109/76/113 88/74/92
f 108/73/112 94/75/98 110/77/114
f 108/73/112 111/78/115 109/76/113
f 108/73/112 110/77/114 112/79/116
f 108/73/112 112/79/116 111/78/115
f 88/74/92 109/76/113 83/80/87
f 94/75/98 106/81/110 110/77/114
f 112/79/116 113/82/117 111/78/115
f 112/79/116 110/77/114 114/83/118
f 110/77/114 106/81/110 114/83/118
f 113/82/117 115/84/119 111/78/115
f 113/82/117 116/85/120 115/84/119
f 113/82/117 117/86/121 116/85/120
f 113/82/117 118/87/122 117/86/121
f 106/81/110 107/88/111 114/83/118
f 115/84/119 116/85/120 119/89/123
f 118/87/122 102/90/106 117/86/121
f 118/87/122 104/91/108 102/90/106
f 116/85/120 77/92/81 119/89/123
f 116/85/120 117/86/121 84/93/88
f 116/85/120 84/93/88 77/92/81
f 84/93/88 117/86/121 102/90/106
f 119/89/123 77/92/81 76/94/80
vt 0.5 0.00495815
vn 0 -0.3501781 0.9366832
vt 0.862404 0.144371
vn 0.210396 -0.258471 0.9428289
v 0 0.327091 0.117476
vt 0.5 0.500319
vn 0 -0.04641571 0.9989222
vt 1 0.5
vn 0.306506 -0.045474 0.9507819
vt 0.856061 0.85563
vn 0.217901 0.171263 0.9608268
vt 0.5 0.995042
vn 0 0.2675021 0.9635573
vt 0 0.5
vn -0.306506 -0.04547369 0.9507819
vt 0.143939 0.85563
vn -0.217901 0.171263 0.9608268
vt 0.137596 0.14437
vn -0.2103959 -0.2584719 0.9428287
o merged_2_0_node
g polygon_0
usemtl mune_mat_mat_id
f 68/95/124 67/96/125 120/97/126
f 120/97/126 67/96/125 69/98/127
f 69/98/127 70/99/128 120/97/126
f 120/97/126 70/99/128 71/100/129
f 73/101/130 120/97/126 72/102/131
f 72/102/131 120/97/126 71/100/129
f 68/95/124 120/97/126 74/103/132
f 74/103/132 120/97/126 73/101/130
vt 0.587691 0.753861
vt 0.985793 0.753861
vt 0.587457 0.996139
vt 0.985996 0.996139
vt 0.0810769 0.753861
vt 0.085096 0.996139
o merged_3_0_node
g polygon_0
usemtl TEX_ANIM_EYE_mat_id
f 119/104/123 76/105/80 109/106/113
f 109/106/113 76/105/80 83/107/87
f 115/108/119 119/104/123 111/109/115
f 111/109/115 119/104/123 109/106/113
f 118/104/122 114/106/118 104/105/108
f 104/105/108 114/106/118 107/107/111
f 114/106/118 118/104/122 112/109/116
f 112/109/116 118/104/122 113/108/117
