mtllib Remoraid.mtl
v -0.161813 0.1850873 -0.1243938
vt 0.765189 0.190304
vn -0.9305459 0.08446289 -0.356301
v -0.153131 0.09177259 -0.003015528
vt 0.450823 -0.040256
vn -0.9217435 -0.3873422 0.01884352
v -0.169433 0.1829771 9.09108E-07
vt 0.450823 0.190304
vn -0.9929625 0.09806488 0.06639841
v -0.122893 0.07335746 -0.1264461
vt 0.765189 -0.0920583
vn -0.6601502 -0.6277003 -0.4125456
v -0.134109 0.2741816 0.003017344
vt 0.450823 0.420863
vn -0.8712896 0.4898748 0.02961597
v -0.07670709 0.1376266 -0.2156896
vt 0.995321 0.0746131
vn -0.5625038 -0.2905632 -0.774056
v -0.103946 0.3022076 -0.1222426
vt 0.765189 0.486289
vn -0.7120523 0.6232958 -0.3232396
v -0.0717221 0.2304429 -0.2153485
vt 0.995321 0.309105
vn -0.5846084 0.3057407 -0.7515023
v -0.132417 0.09652973 0.07308012
vt 0.258293 -0.0212814
vn -0.8470529 -0.3998266 0.3501999
v 0 0.09216476 -0.2158566
vt 0.995321 -0.0402439
vn 0 -0.6717788 -0.7407519
v -0.08235449 0.3345416 0.003760906
vt 0.453986 0.573346
vn -0.5463272 0.8359725 0.05173538
v -0.116515 0.2714217 0.07950749
vt 0.258293 0.420869
vn -0.8281953 0.4557895 0.3261108
v 0 0.182584 -0.2488812
vt 0.980356 0.190304
vn 0 -0.0004400109 -0.9999999
v 0 0.2969474 -0.2151045
vt 0.995321 0.477126
vn 0 0.611851 -0.7909731
v -0.146543 0.1802858 0.07440391
vt 0.262722 0.190304
vn -0.9270844 0.06936941 0.368378
v 0.0717221 0.2304429 -0.2153485
vn 0.5859067 0.305005 -0.7507898
v 0.103946 0.3022076 -0.1222426
vn 0.7123253 0.6227328 -0.3237227
v 0.07670709 0.1376266 -0.2156896
vn 0.5639319 -0.2896023 -0.7733765
v 0.122893 0.07335746 -0.1264461
vn 0.6604447 -0.6270748 -0.4130253
v 0.161859 0.1850743 -0.1237038
vt 0.763446 0.190304
vn 0.9308888 0.08451818 -0.3553908
v 0.134109 0.2741816 0.003017344
vn 0.8712306 0.4899769 0.02966387
v 0.08235449 0.3345416 0.003760906
vn 0.5463272 0.8359725 0.05173538
v 0.116515 0.2714217 0.07950749
vn 0.8281953 0.4557895 0.3261108
v 0.153131 0.09177259 -0.003015528
vn 0.9216689 -0.3875185 0.01886773
v 0.169433 0.1829771 9.09108E-07
vn 0.9929348 0.09803011 0.06686107
v 0.146543 0.1802858 0.07440391
vn 0.9270844 0.06936931 0.368378
v 0.132417 0.09652973 0.07308012
vn 0.8470529 -0.3998266 0.3501999
v 0 0.07382122 0.1879093
vt 0.0240912 0.0231842
vn 0 -0.8098534 0.5866323
v -0.0823968 0.09295546 0.1702719
vn -0.6418532 -0.5438735 0.5405794
v -0.0655651 0.02932967 0.08240751
vn -0.4320594 -0.8365785 0.3368396
v -0.026654 0.129223 0.2401392
vn -0.4137202 -0.390356 0.8224706
v 0 0.02013698 0.09301471
vn 0 -0.9317787 0.3630269
v 0.026654 0.129223 0.2401392
vn 0.421503 -0.3931184 0.8171861
v 0.0655651 0.02932967 0.08240751
vn 0.4320594 -0.8365785 0.3368396
v 0.0823968 0.09295546 0.1702719
vn 0.6418525 -0.5438738 0.5405797
v 0 0.0005682385 -0.00603197
vn 0 -0.9976309 -0.0687936
v -0.103213 0.02500635 -0.005223722
vn -0.5038698 -0.8625471 -0.04612738
v 0.103213 0.02500635 -0.005223722
vn 0.5038698 -0.8625471 -0.04612748
v 0 0.02707753 -0.1272962
vn 0 -0.9065279 -0.4221459
v 0 0.3443212 0.02718816
vt 0.0376988 0.415972
vn 0 0.982069 0.188522
v -0.052551 0.3313092 0.09350546
vn -0.4137972 0.8420728 0.3459555
v 0 0.3707741 -0.06174513
vn 0 0.9948977 -0.1008889
v 0 0.3299701 0.1299299
vn 0 0.8586614 0.5125433
v 0.052551 0.3313092 0.09350546
vn 0.4137972 0.8420728 0.3459555
v 0.0725016 0.2678524 0.1766994
vn 0.6012959 0.5597911 0.5701554
v -0.0725016 0.2678524 0.1766994
vn -0.6012959 0.5597911 0.5701554
v 0 0.2722318 0.2071837
vn 0 0.7333338 0.6798688
v 0 0.3440838 -0.1564558
vn 0 0.8953457 -0.4453718
v -0.013327 0.1964861 0.2549843
vt 0.00397161 0.24796
vn -0.4447212 0.203545 0.8722342
vt 0.208241 0.420875
v -0.093576 0.1760415 0.1898974
vt 0.1664 0.190304
vn -0.8150342 0.04483323 0.5776758
vt 0.131682 0.43476
vt 0.0352096 0.0767619
v 0.013327 0.1964861 0.2549843
vn 0.4634636 0.2234956 0.8574679
v 0.093576 0.1760415 0.1898974
vn 0.8150342 0.04483323 0.5776758
v 0.037851 0.2961336 0.1286868
vt 0.35 0.45
vn 0.8610595 -0.5052944 -0.05704301
v 0 0.3075214 0.0808877
vn 0 -0.307596 -0.951517
v 0 0.4036117 0.1359474
vn 0 0.9893824 0.1453359
v -0.037851 0.2961336 0.1286868
vn -0.8610595 -0.5052944 -0.05704301
v 0 0.2847467 0.1764864
vn 0 -0.6038232 0.7971182
v 0 0.05761877 -0.3948742
vt 0.879149 0.996702
vn 1 0 0
v 0 -0.05256907 -0.2663498
vt 0.553595 0.720026
v 0 -0.1312033 -0.4406751
vt 0.995165 0.522579
v 0.000796237 0.05512989 -0.2044755
vt 0.39297 0.990452
vn -1 0 0
v 0 0.3219721 -0.3396929
vt 0.377778 0.669317
v 0 0.2187985 -0.3363224
vt 0.369241 0.92838
v 0 0.3669539 -0.4202591
vt 0.581854 0.556371
v 0 0.195567 -0.2474159
vt 0.144038 0.986712
v 0 -0.03813915 -0.03512434
vt 0.295547 0.648784
v 0 0.01932712 0.05943168
vt 0.0533047 0.799899
v 0 -0.07897817 0.01765303
vt 0.161137 0.54867
vt 0.208241 -0.02454
vt 0.0352096 0.0735094
vt 0.1664 0.187051
v 0.242202 0.1169232 -0.01080522
vt 0.412084 0.844417
vn 0.7185906 0.4585296 0.5228558
v 0.234112 0.1558462 -0.03381849
v 0.160126 0.1479204 0.07483637
v -0.234112 0.1558462 -0.03381849
vn -0.7185906 0.4585296 0.5228558
v -0.242202 0.1169232 -0.01080522
v -0.160126 0.1479204 0.07483637
vn -0.7185906 -0.4585296 -0.5228558
vn 0.7185906 -0.4585296 -0.5228558
o merged_0_0_node
g polygon_0
usemtl mat_body_mat_id
f 1/1/1 2/2/2 3/3/3
f 1/1/1 4/4/4 2/2/2
f 1/1/1 3/3/3 5/5/5
f 1/1/1 6/6/6 4/4/4
f 1/1/1 5/5/5 7/7/7
f 1/1/1 8/8/8 6/6/6
f 1/1/1 7/7/7 8/8/8
f 2/2/2 9/9/9 3/3/3
f 4/4/4 6/6/6 10/10/10
f 5/5/5 11/11/11 7/7/7
f 5/5/5 3/3/3 12/12/12
f 5/5/5 12/12/12 11/11/11
f 8/8/8 13/13/13 6/6/6
f 8/8/8 7/7/7 14/14/14
f 8/8/8 14/14/14 13/13/13
f 6/6/6 13/13/13 10/10/10
f 9/9/9 15/15/15 3/3/3
f 3/3/3 15/15/15 12/12/12
f 14/14/14 16/8/16 13/13/13
f 14/14/14 17/7/17 16/8/16
f 10/10/10 13/13/13 18/6/18
f 10/10/10 18/6/18 19/4/19
f 13/13/13 16/8/16 18/6/18
f 17/7/17 20/16/20 16/8/16
f 17/7/17 21/5/21 20/16/20
f 17/7/17 22/11/22 21/5/21
f 18/6/18 20/16/20 19/4/19
f 18/6/18 16/8/16 20/16/20
f 22/11/22 23/12/23 21/5/21
f 19/4/19 20/16/20 24/2/24
f 23/12/23 25/3/25 21/5/21
f 23/12/23 26/15/26 25/3/25
f 20/16/20 25/3/25 24/2/24
f 20/16/20 21/5/21 25/3/25
f 26/15/26 27/9/27 25/3/25
f 25/3/25 27/9/27 24/2/24
f 28/17/28 29/17/29 30/17/30
f 28/17/28 31/17/31 29/17/29
f 28/17/28 30/17/30 32/17/32
f 28/17/28 33/17/33 31/17/31
f 28/17/28 32/17/32 34/17/34
f 28/17/28 35/17/35 33/17/33
f 28/17/28 34/17/34 35/17/35
f 29/17/29 9/17/9 30/17/30
f 32/17/32 36/17/36 34/17/34
f 32/17/32 30/17/30 36/17/36
f 35/17/35 34/17/34 27/17/27
f 9/17/9 37/17/37 30/17/30
f 9/17/9 2/17/2 37/17/37
f 30/17/30 37/17/37 36/17/36
f 34/17/34 38/17/38 27/17/27
f 34/17/34 36/17/36 38/17/38
f 2/17/2 4/17/4 37/17/37
f 27/17/27 38/17/38 24/17/24
f 36/17/36 37/17/37 39/17/39
f 36/17/36 39/17/39 38/17/38
f 37/17/37 4/17/4 39/17/39
f 24/17/24 38/17/38 19/17/19
f 38/17/38 39/17/39 19/17/19
f 4/17/4 10/17/10 39/17/39
f 39/17/39 10/17/10 19/17/19
f 40/18/40 11/18/11 41/18/41
f 40/18/40 42/18/42 11/18/11
f 40/18/40 41/18/41 43/18/43
f 40/18/40 22/18/22 42/18/42
f 40/18/40 43/18/43 44/18/44
f 40/18/40 44/18/44 22/18/22
f 11/18/11 12/18/12 41/18/41
f 11/18/11 42/18/42 7/18/7
f 43/18/43 45/18/45 44/18/44
f 43/18/43 41/18/41 46/18/46
f 43/18/43 47/18/47 45/18/45
f 43/18/43 46/18/46 47/18/47
f 46/18/46 41/18/41 12/18/12
f 22/18/22 17/18/17 42/18/42
f 22/18/22 44/18/44 23/18/23
f 23/18/23 44/18/44 45/18/45
f 7/18/7 42/18/42 48/18/48
f 7/18/7 48/18/48 14/18/14
f 48/18/48 42/18/42 17/18/17
f 48/18/48 17/18/17 14/18/14
f 49/19/49 46/20/46 50/21/50
f 49/19/49 47/22/47 46/20/46
f 49/19/49 50/21/50 31/23/31
f 49/19/49 51/19/51 47/22/47
f 49/19/49 31/23/31 33/23/33
f 49/19/49 33/23/33 51/19/51
f 47/22/47 51/19/51 45/20/45
f 33/23/33 52/21/52 51/19/51
f 51/19/51 52/21/52 45/20/45
f 53/24/53 54/24/54 55/24/55
f 53/24/53 56/24/56 54/24/54
f 53/24/53 55/24/55 57/24/57
f 53/24/53 57/24/57 56/24/56
f 56/24/56 55/24/55 54/24/54
f 56/24/56 57/24/57 55/24/55
f 58/25/58 59/26/58 60/27/58
f 58/25/58 61/28/58 59/26/58
f 59/26/59 58/25/59 60/27/59
f 59/26/59 61/28/59 58/25/59
f 62/29/58 63/30/58 64/31/58
f 62/29/58 65/32/58 63/30/58
f 63/30/59 62/29/59 64/31/59
f 63/30/59 65/32/59 62/29/59
f 66/33/58 67/34/58 68/35/58
f 67/34/59 66/33/59 68/35/59
f 29/36/29 31/37/31 50/38/50
f 33/37/33 35/36/35 52/38/52
f 69/39/60 70/39/60 71/39/60
f 72/39/61 73/39/61 74/39/61
f 69/39/62 71/39/62 70/39/62
f 72/39/63 74/39/63 73/39/63
vt 0.479344 0.788235
vt 0.000821352 0.799011
vt 0.479344 0.969827
vt 0.000807643 0.955252
vt 1.00079 0.808814
vt 1.00081 0.961288
o merged_1_0_node
g polygon_0
usemtl TEX_ANIM_EYE_mat_id
f 15/40/15 9/41/9 50/42/50
f 9/41/9 29/43/29 50/42/50
f 26/40/26 52/42/52 27/41/27
f 35/43/35 27/41/27 52/42/52
f 15/40/15 50/42/50 12/44/12
f 50/42/50 46/45/46 12/44/12
f 26/40/26 23/44/23 52/42/52
f 52/42/52 23/44/23 45/45/45
