ply
format ascii 1.0
element vertex 370
property float x
property float y
property float z
property uchar red
property uchar green
property uchar blue
element face 444
property list uchar int vertex_index
end_header
0.24465 -1.42296 1.39078 255 255 255
0.24465 -1.42296 1.45415 255 255 255
0.30937 -1.42296 1.45415 255 255 255
0.30937 -1.42296 1.39078 255 255 255
0.30937 -1.41717 1.45415 255 255 255
0.24465 -1.41717 1.45415 255 255 255
0.24465 -1.41717 1.39078 255 255 255
0.30937 -1.41717 1.39078 255 255 255
0.32639 -1.4185 1.43523 40 30 25
0.25734 -1.4185 1.43523 40 30 25
0.21539 -1.4185 1.45993 40 30 25
0.37359 -1.4185 1.45993 40 30 25
0.37359 -1.40534 1.45993 40 30 25
0.21539 -1.40534 1.45993 40 30 25
0.37359 -1.4185 1.23964 40 30 25
0.37359 -1.40534 1.23964 40 30 25
0.21539 -1.4185 1.23964 40 30 25
0.21539 -1.40534 1.23964 40 30 25
0.34862 -1.4185 1.29058 40 30 25
0.34862 -1.4185 1.23964 40 30 25
0.23737 -1.4185 1.2905 40 30 25
0.23737 -1.4185 1.23964 40 30 25
0.25734 -1.4185 1.29057 40 30 25
0.32639 -1.4185 1.29057 40 30 25
0.25734 -1.4185 1.43523 34 25 21
0.32639 -1.4185 1.43523 34 25 21
0.32639 -1.4185 1.29057 34 25 21
0.25734 -1.4185 1.29057 34 25 21
0.32639 -1.4185 1.29057 130 112 99
0.34862 -1.4185 1.29058 130 112 99
0.34862 -1.4185 1.23964 130 112 99
0.23737 -1.4185 1.23964 130 112 99
0.25734 -1.4185 1.29057 130 112 99
0.23737 -1.4185 1.2905 130 112 99
-0.24465 -1.42296 1.39078 255 255 255
-0.30937 -1.42296 1.39078 255 255 255
-0.30937 -1.42296 1.45415 255 255 255
-0.24465 -1.42296 1.45415 255 255 255
-0.30937 -1.41717 1.45415 255 255 255
-0.24465 -1.41717 1.45415 255 255 255
-0.24465 -1.41717 1.39078 255 255 255
-0.30937 -1.41717 1.39078 255 255 255
-0.32639 -1.4185 1.43523 40 30 25
-0.37359 -1.4185 1.45993 40 30 25
-0.21539 -1.4185 1.45993 40 30 25
-0.25734 -1.4185 1.43523 40 30 25
-0.37359 -1.40534 1.45993 40 30 25
-0.21539 -1.40534 1.45993 40 30 25
-0.37359 -1.4185 1.23964 40 30 25
-0.37359 -1.40534 1.23964 40 30 25
-0.21539 -1.4185 1.23964 40 30 25
-0.21539 -1.40534 1.23964 40 30 25
-0.34862 -1.4185 1.29058 40 30 25
-0.34862 -1.4185 1.23964 40 30 25
-0.23737 -1.4185 1.2905 40 30 25
-0.23737 -1.4185 1.23964 40 30 25
-0.25734 -1.4185 1.29057 40 30 25
-0.32639 -1.4185 1.29057 40 30 25
-0.25734 -1.4185 1.43523 34 25 21
-0.25734 -1.4185 1.29057 34 25 21
-0.32639 -1.4185 1.29057 34 25 21
-0.32639 -1.4185 1.43523 34 25 21
-0.32639 -1.4185 1.29057 130 112 99
-0.34862 -1.4185 1.23964 130 112 99
-0.34862 -1.4185 1.29058 130 112 99
-0.23737 -1.4185 1.23964 130 112 99
-0.25734 -1.4185 1.29057 130 112 99
-0.23737 -1.4185 1.2905 130 112 99
-0.26741 1.24146 0.52937 233 237 241
-0.26741 1.24146 1.00778 233 237 241
0.26741 1.24146 1.00778 233 237 241
0.26741 1.24146 0.52937 233 237 241
0.26741 1.75661 1.00778 233 237 241
0.26741 1.75662 0.52937 233 237 241
-0.26741 1.75662 0.52937 233 237 241
-0.26741 1.75661 1.00778 233 237 241
0.26741 1.33358 1.91423 233 237 241
-0.26741 1.33358 1.91423 233 237 241
0.20294 1.33374 2.69641 233 237 241
-0.20294 1.33374 2.69641 233 237 241
-0.41924 1.33374 2.69641 233 237 241
-0.20294 1.33374 2.8492 233 237 241
0.20294 1.33374 2.8492 233 237 241
0.41924 1.33374 2.69641 233 237 241
-0.68505 1.33358 1.91423 233 237 241
0.68505 1.33358 1.91423 233 237 241
0.68505 1.66481 1.91423 233 237 241
0.26741 1.66481 1.91423 233 237 241
0.75481 1.33374 2.8492 233 237 241
0.75481 1.33359 1.9785 233 237 241
0.75481 1.66481 1.9785 233 237 241
0.41924 1.66481 2.69641 233 237 241
0.20294 1.66481 2.69641 233 237 241
-0.20294 1.66481 2.69641 233 237 241
-0.26741 1.66481 1.91423 233 237 241
-0.20294 1.66481 2.8492 233 237 241
0.20294 1.66481 2.8492 233 237 241
0.20294 1.33374 2.69641 239 244 248
-0.41924 1.66481 2.69641 233 237 241
-0.68505 1.66481 1.91423 233 237 241
-0.75481 1.33359 1.9785 233 237 241
-0.75481 1.66481 1.9785 233 237 241
-0.75481 1.66481 2.8492 233 237 241
-0.41924 1.66481 2.8492 233 237 241
-0.75481 1.33374 2.8492 233 237 241
-0.72093 1.66481 2.89094 233 237 241
-0.45313 1.66481 2.89094 233 237 241
0.16196 1.33374 2.89094 233 237 241
-0.16196 1.33374 2.89094 233 237 241
-0.16196 1.66481 2.89094 239 244 248
0.16196 1.66481 2.89094 239 244 248
0.16196 1.33374 2.89094 239 244 248
-0.16196 1.33374 2.89094 239 244 248
0.20294 1.33374 2.8492 239 244 248
0.20294 1.66481 2.8492 239 244 248
-0.20294 1.66481 2.8492 239 244 248
-0.20294 1.33374 2.8492 239 244 248
-0.207 1.69504 0.44405 233 237 241
-0.207 1.24146 0.44405 233 237 241
0.207 1.24146 0.44405 233 237 241
0.207 1.69504 0.44405 233 237 241
0.20294 1.66481 2.69641 239 244 248
0.41924 1.66481 2.69641 239 244 248
0.41924 1.33374 2.69641 239 244 248
-0.45313 1.33374 2.89094 239 244 248
-0.72093 1.33374 2.89094 239 244 248
-0.72093 1.66481 2.89094 239 244 248
-0.45313 1.66481 2.89094 239 244 248
-0.75481 1.66481 2.8492 239 244 248
-0.75481 1.33374 2.8492 239 244 248
0.45313 1.66481 2.89094 239 244 248
0.72093 1.66481 2.89094 239 244 248
0.72093 1.33374 2.89094 239 244 248
0.45313 1.33374 2.89094 239 244 248
0.75481 1.33374 2.8492 239 244 248
0.75481 1.66481 2.8492 239 244 248
-0.20294 1.33374 2.69641 239 244 248
-0.41924 1.33374 2.69641 239 244 248
-0.41924 1.66481 2.69641 239 244 248
-0.20294 1.66481 2.69641 239 244 248
-0.41924 1.33374 2.8492 233 237 241
-0.45313 1.33374 2.89094 233 237 241
-0.72093 1.33374 2.89094 233 237 241
0.41924 1.66481 2.8492 233 237 241
0.41924 1.33374 2.8492 233 237 241
0.75481 1.66481 2.8492 233 237 241
0.45313 1.66481 2.89094 233 237 241
0.72093 1.66481 2.89094 233 237 241
0.72093 1.33374 2.89094 233 237 241
0.45313 1.33374 2.89094 233 237 241
-0.11588 -1.13608 1.71202 233 237 241
-0.11585 -1.13603 2.04134 233 237 241
0.11585 -1.13603 2.04134 233 237 241
0.11588 -1.13608 1.71202 233 237 241
0.15347 -1.09913 2.04134 233 237 241
0.15351 -1.09913 1.71202 233 237 241
0.15351 -0.86653 1.71202 233 237 241
0.15347 -0.86653 2.04134 233 237 241
-0.15347 -1.09913 2.04134 233 237 241
-0.15351 -1.09913 1.71202 233 237 241
-0.09654 -1.11046 2.07421 233 237 241
-0.12789 -1.07971 2.07421 233 237 241
0.09654 -1.11046 2.07421 233 237 241
0.12789 -1.07971 2.07421 233 237 241
0.12789 -0.88588 2.07421 233 237 241
0.09654 -0.85469 2.07421 233 237 241
0.11585 -0.8291 2.04134 233 237 241
0.11588 -0.82906 1.71202 233 237 241
-0.11585 -0.8291 2.04134 233 237 241
-0.11588 -0.82906 1.71202 233 237 241
-0.15347 -0.86653 2.04134 233 237 241
-0.15351 -0.86653 1.71202 233 237 241
-0.12789 -0.88588 2.07421 233 237 241
-0.09654 -0.85469 2.07421 233 237 241
0.12789 -1.07971 2.07421 239 244 248
0.09654 -1.11046 2.07421 239 244 248
-0.09654 -1.11046 2.07421 239 244 248
-0.12789 -1.07971 2.07421 239 244 248
-0.12789 -0.88588 2.07421 239 244 248
0.12789 -0.88588 2.07421 239 244 248
-0.49845 -1.27977 1.72353 239 244 248
-0.49845 -0.55972 1.72353 239 244 248
0.49845 -0.55972 1.72353 239 244 248
0.49845 -1.27977 1.72353 239 244 248
0.44898 -1.34954 1.72353 239 244 248
-0.44898 -1.34954 1.72353 239 244 248
0.49714 -1.40768 1.6632 233 237 241
0.55383 -1.33016 1.6632 233 237 241
0.55383 -1.33016 1.20299 233 237 241
0.49714 -1.40768 1.24395 233 237 241
0.49845 -1.27977 1.72353 233 237 241
0.44898 -1.34954 1.72353 233 237 241
0.49845 -0.55972 1.72353 233 237 241
0.55383 -0.52119 1.6632 233 237 241
0.49715 -1.50532 1.24395 233 237 241
0.55373 -1.52971 1.20299 233 237 241
-0.49714 -1.40768 1.24395 233 237 241
-0.49714 -1.40768 1.6632 233 237 241
-0.55383 -1.33016 1.20299 233 237 241
-0.55383 -1.33016 1.6632 233 237 241
-0.49845 -1.27977 1.72353 233 237 241
-0.44898 -1.34954 1.72353 233 237 241
-0.49845 -0.55972 1.72353 233 237 241
-0.55383 -0.52119 1.6632 233 237 241
-0.49715 -1.50532 1.24395 233 237 241
-0.55373 -1.52971 1.20299 233 237 241
-0.55373 -1.52971 0.76452 233 237 241
-0.48175 -1.59417 0.76452 233 237 241
-0.43364 -1.52372 0.70507 233 237 241
0.43364 -1.52372 0.70507 233 237 241
0.48175 -1.59417 0.76452 233 237 241
0.55373 -1.52971 0.76452 233 237 241
0.49867 -1.46503 0.70507 233 237 241
0.48164 -1.59417 1.20299 233 237 241
0.4547 -1.54079 1.24395 233 237 241
-0.4547 -1.54079 1.24395 233 237 241
-0.48164 -1.59417 1.20299 233 237 241
-0.49867 -1.46503 0.70507 233 237 241
0.49845 -0.55972 0.70487 233 237 241
-0.49845 -0.55972 0.70487 233 237 241
0.34837 -1.59417 1.03836 233 237 241
0.34845 -1.59417 0.82417 233 237 241
-0.34837 -1.59417 1.03836 233 237 241
-0.34845 -1.59417 0.82417 233 237 241
0.55383 -0.52119 0.76444 233 237 241
0.4517 -0.49961 0.70487 233 237 241
-0.4517 -0.49961 0.70487 233 237 241
0.4547 -1.54079 1.24395 239 244 248
-0.4547 -1.54079 1.24395 239 244 248
-0.49715 -1.50532 1.24395 239 244 248
0.49715 -1.50532 1.24395 239 244 248
-0.55383 -0.52119 0.76444 233 237 241
-0.49714 -1.40768 1.24395 239 244 248
0.49714 -1.40768 1.24395 239 244 248
0.34845 -1.39392 0.82417 107 86 93
-0.34845 -1.39392 0.82417 107 86 93
-0.34837 -1.39392 1.03836 107 86 93
0.34837 -1.39392 1.03836 107 86 93
0.34845 -1.59417 0.82417 107 86 93
0.34837 -1.59417 1.03836 107 86 93
-0.34837 -1.59417 1.03836 107 86 93
-0.34845 -1.59417 0.82417 107 86 93
-0.49845 -0.44522 1.6632 233 237 241
-0.49845 -0.44522 0.76444 233 237 241
-0.4517 -0.49961 1.72353 233 237 241
0.49845 -0.44522 1.6632 233 237 241
0.49845 -0.44522 0.76444 233 237 241
0.4517 -0.49961 1.72353 233 237 241
-0.4517 -0.49961 1.72353 239 244 248
0.4517 -0.49961 1.72353 239 244 248
-0.25217 -1.48274 0.82063 155 109 103
-0.25217 -1.48274 0.95185 155 109 103
0.25217 -1.48274 0.95185 155 109 103
0.25217 -1.48274 0.82063 155 109 103
0.25217 -1.38752 0.95185 155 109 103
-0.25217 -1.38752 0.95185 155 109 103
0.25217 -1.38752 0.82063 155 109 103
-0.25217 -1.38752 0.82063 155 109 103
0.20101 -1.58301 0.91618 255 255 255
0.20101 -1.58301 1.04956 255 255 255
0.29634 -1.58301 1.04956 255 255 255
0.29634 -1.58301 0.91618 255 255 255
0.20101 -1.49373 0.91618 255 255 255
0.29634 -1.49373 0.91618 255 255 255
0.29634 -1.49373 1.04956 255 255 255
0.20101 -1.49373 1.04956 255 255 255
-0.20101 -1.58301 0.91618 255 255 255
-0.29634 -1.58301 0.91618 255 255 255
-0.29634 -1.58301 1.04956 255 255 255
-0.20101 -1.58301 1.04956 255 255 255
-0.20101 -1.49373 0.91618 255 255 255
-0.29634 -1.49373 0.91618 255 255 255
-0.29634 -1.49373 1.04956 255 255 255
-0.20101 -1.49373 1.04956 255 255 255
-0.06571 -1.53576 1.23637 45 47 50
-0.06571 -1.53576 1.26975 45 47 50
0.06571 -1.53576 1.26975 45 47 50
0.06571 -1.53576 1.23637 45 47 50
0.06571 -1.47355 1.26975 45 47 50
0.06571 -1.47355 1.23637 45 47 50
-0.06571 -1.47355 1.23637 45 47 50
-0.06571 -1.47355 1.26975 45 47 50
-0.06571 -1.53576 1.26975 49 51 55
-0.06571 -1.47355 1.26975 49 51 55
0.06571 -1.47355 1.26975 49 51 55
0.06571 -1.53576 1.26975 49 51 55
-0.74228 -0.81529 0.16045 233 237 241
-0.74228 -0.81529 1.31174 233 237 241
-0.63575 -0.92356 1.31174 233 237 241
-0.63575 -0.92356 0.16045 233 237 241
-0.74228 1.15331 0.16045 233 237 241
-0.74228 1.15331 1.31174 233 237 241
0.63575 -0.92356 0.16045 233 237 241
0.63575 -0.92356 1.31174 233 237 241
0.74228 -0.81529 0.16045 233 237 241
0.74228 -0.81529 1.31174 233 237 241
0.74228 1.15331 1.31174 233 237 241
0.74228 1.15331 0.16045 233 237 241
-0.55098 -0.82458 1.41311 233 237 241
-0.64331 -0.73075 1.41311 233 237 241
-0.64331 1.06878 1.41311 233 237 241
-0.63575 1.26158 1.31174 233 237 241
-0.63575 1.26158 0.16045 233 237 241
0.63575 1.26158 1.31174 233 237 241
0.63575 1.26158 0.16045 233 237 241
-0.55098 1.16261 1.41311 233 237 241
0.55098 1.16261 1.41311 233 237 241
0.64331 1.06878 1.41311 233 237 241
-0.55098 1.16261 0.06342 233 237 241
-0.64331 1.06878 0.06342 233 237 241
-0.64331 -0.73075 0.06342 233 237 241
-0.55098 -0.82458 0.06342 233 237 241
0.55098 -0.82458 0.06342 233 237 241
0.64331 -0.73075 0.06342 233 237 241
0.64331 1.06878 0.06342 233 237 241
0.55098 1.16261 0.06342 233 237 241
0.64331 -0.73075 1.41311 233 237 241
0.55098 -0.82458 1.41311 233 237 241
0.55098 1.16261 1.41311 239 244 248
0.64331 1.06878 1.41311 239 244 248
-0.64331 1.06878 1.41311 239 244 248
-0.55098 1.16261 1.41311 239 244 248
-0.64331 -0.73075 1.41311 239 244 248
0.64331 -0.73075 1.41311 239 244 248
-0.55098 -0.82458 1.41311 239 244 248
0.55098 -0.82458 1.41311 239 244 248
0.63351 -0.59613 0.699 233 237 241
0.63351 -0.59613 0.85912 233 237 241
1.71579 -0.59613 0.85912 233 237 241
1.71579 -0.59613 0.699 233 237 241
1.79473 -0.53133 0.699 233 237 241
1.79473 -0.53133 0.85912 233 237 241
1.79473 0.10232 0.85912 233 237 241
1.79473 0.10232 0.699 233 237 241
1.71579 0.16712 0.699 233 237 241
1.71579 0.16712 0.85912 233 237 241
0.63351 0.16712 0.699 233 237 241
0.63351 0.16712 0.85912 233 237 241
0.63351 -0.59613 0.85912 239 244 248
0.63351 0.16712 0.85912 239 244 248
1.71579 0.16712 0.85912 239 244 248
1.71579 -0.59613 0.85912 239 244 248
1.79473 -0.53133 0.85912 239 244 248
1.79473 0.10232 0.85912 239 244 248
-0.63351 -0.59613 0.699 233 237 241
-1.71579 -0.59613 0.699 233 237 241
-1.71579 -0.59613 0.85912 233 237 241
-0.63351 -0.59613 0.85912 233 237 241
-1.79473 -0.53133 0.699 233 237 241
-1.79473 -0.53133 0.85912 233 237 241
-1.79473 0.10232 0.85912 233 237 241
-1.79473 0.10232 0.699 233 237 241
-1.71579 0.16712 0.699 233 237 241
-1.71579 0.16712 0.85912 233 237 241
-0.63351 0.16712 0.699 233 237 241
-0.63351 0.16712 0.85912 233 237 241
-0.63351 -0.59613 0.85912 239 244 248
-1.71579 -0.59613 0.85912 239 244 248
-1.71579 0.16712 0.85912 239 244 248
-0.63351 0.16712 0.85912 239 244 248
-1.79473 -0.53133 0.85912 239 244 248
-1.79473 0.10232 0.85912 239 244 248
-0.09654 -0.85469 2.07421 239 244 248
0.09654 -0.85469 2.07421 239 244 248
0.16196 1.66481 2.89094 233 237 241
-0.16196 1.66481 2.89094 233 237 241
-0.41924 1.33374 2.8492 239 244 248
-0.41924 1.66481 2.8492 239 244 248
0.41924 1.66481 2.8492 239 244 248
0.41924 1.33374 2.8492 239 244 248
3 0 2 1
3 0 3 2
3 1 2 4
3 3 4 2
3 1 4 5
3 6 3 0
3 6 1 5
3 6 0 1
3 6 7 3
3 3 7 4
3 8 10 9
3 8 11 10
3 12 10 11
3 12 13 10
3 14 12 11
3 14 15 12
3 13 16 10
3 13 17 16
3 18 11 8
3 14 11 18
3 14 18 19
3 16 20 10
3 10 20 9
3 20 16 21
3 9 20 22
3 18 8 23
3 24 26 25
3 24 27 26
3 28 30 29
3 31 30 28
3 31 28 32
3 31 32 33
3 34 36 35
3 34 37 36
3 37 38 36
3 35 36 38
3 37 39 38
3 40 34 35
3 40 37 34
3 40 39 37
3 40 35 41
3 35 38 41
3 42 44 43
3 42 45 44
3 46 43 44
3 46 44 47
3 48 43 46
3 48 46 49
3 47 44 50
3 47 50 51
3 52 42 43
3 48 52 43
3 48 53 52
3 50 44 54
3 44 45 54
3 54 55 50
3 45 56 54
3 52 57 42
3 58 60 59
3 58 61 60
3 62 64 63
3 65 62 63
3 65 66 62
3 65 67 66
3 68 70 69
3 68 71 70
3 71 72 70
3 71 73 72
3 74 68 69
3 74 69 75
3 69 70 76
3 69 76 77
3 77 76 78
3 77 78 79
3 77 79 80
3 81 79 78
3 81 78 82
3 78 76 83
3 77 80 84
3 83 76 85
3 76 86 85
3 76 87 86
3 85 88 83
3 85 89 88
3 86 89 85
3 86 90 89
3 87 91 86
3 87 92 91
3 93 92 87
3 93 87 94
3 94 87 72
3 94 72 75
3 95 92 93
3 93 81 95
3 93 79 81
3 95 96 92
3 97 92 96
3 97 96 82
3 93 94 98
3 98 94 99
3 94 84 99
3 99 84 100
3 99 100 101
3 94 77 84
3 99 102 98
3 99 101 102
3 75 77 94
3 75 69 77
3 98 102 103
3 101 104 102
3 101 100 104
3 103 102 105
3 103 105 106
3 81 82 107
3 81 107 108
3 109 111 110
3 109 112 111
3 113 110 111
3 113 114 110
3 115 112 109
3 115 116 112
3 117 119 118
3 117 120 119
3 74 120 117
3 74 73 120
3 75 73 74
3 75 72 73
3 70 72 87
3 70 87 76
3 121 123 122
3 121 97 123
3 124 126 125
3 124 127 126
3 128 125 126
3 128 129 125
3 130 132 131
3 130 133 132
3 134 131 132
3 134 135 131
3 136 138 137
3 136 139 138
3 80 103 140
3 80 138 103
3 104 80 140
3 84 80 104
3 84 104 100
3 104 140 141
3 104 141 142
3 91 144 143
3 91 83 144
3 145 91 143
3 86 91 145
3 86 145 90
3 145 143 146
3 145 146 147
3 73 119 120
3 73 71 119
3 71 118 119
3 71 68 118
3 68 117 118
3 68 74 117
3 83 88 144
3 144 88 148
3 144 148 149
3 89 145 88
3 89 90 145
3 150 152 151
3 150 153 152
3 153 154 152
3 153 155 154
3 154 155 156
3 154 156 157
3 158 150 151
3 158 159 150
3 158 151 160
3 158 160 161
3 151 162 160
3 151 152 162
3 152 163 162
3 152 154 163
3 154 164 163
3 154 157 164
3 157 165 164
3 157 166 165
3 157 167 166
3 168 166 167
3 168 167 169
3 169 170 168
3 169 171 170
3 170 171 159
3 170 159 158
3 157 156 167
3 170 158 161
3 170 161 172
3 168 170 172
3 166 173 165
3 166 168 173
3 168 172 173
3 174 176 175
3 174 177 176
3 178 177 174
3 178 174 179
3 180 182 181
3 180 183 182
3 184 183 180
3 184 180 185
3 186 188 187
3 186 189 188
3 186 187 190
3 186 190 191
3 187 192 190
3 187 193 192
3 188 193 187
3 188 189 194
3 188 194 195
3 186 196 189
3 186 197 196
3 191 197 186
3 197 198 196
3 197 199 198
3 197 200 199
3 197 201 200
3 191 201 197
3 199 200 202
3 199 202 203
3 198 199 203
3 198 204 196
3 198 205 204
3 198 206 205
3 205 206 207
3 206 208 207
3 209 207 208
3 209 210 207
3 211 210 209
3 211 209 212
3 195 210 211
3 195 213 210
3 213 195 194
3 213 194 214
3 213 214 215
3 213 215 216
3 205 207 216
3 206 217 208
3 217 209 208
3 217 212 209
3 218 212 217
3 218 217 219
3 216 215 204
3 216 204 205
3 210 213 220
3 210 220 221
3 213 222 220
3 213 216 222
3 216 223 222
3 216 207 223
3 207 221 223
3 207 210 221
3 218 211 212
3 218 224 211
3 224 188 211
3 188 224 193
3 211 188 195
3 219 225 218
3 219 226 225
3 227 229 228
3 227 230 229
3 219 206 231
3 219 217 206
3 231 206 198
3 198 203 231
3 229 233 232
3 229 230 233
3 234 236 235
3 234 237 236
3 238 237 234
3 238 239 237
3 239 236 237
3 239 240 236
3 240 235 236
3 240 241 235
3 241 234 235
3 241 238 234
3 242 231 203
3 242 243 231
3 202 242 203
3 231 243 219
3 202 244 242
3 245 243 242
3 245 246 243
3 193 246 245
3 245 192 193
3 193 224 246
3 218 246 224
3 225 246 218
3 245 247 192
3 242 247 245
3 242 244 247
3 226 246 225
3 226 243 246
3 219 243 226
3 181 249 248
3 181 182 249
3 250 252 251
3 250 253 252
3 251 252 254
3 253 254 252
3 251 254 255
3 253 256 254
3 257 251 255
3 257 250 251
3 258 260 259
3 258 261 260
3 262 261 258
3 262 258 259
3 262 263 261
3 261 264 260
3 261 263 264
3 262 259 265
3 265 263 262
3 265 264 263
3 266 268 267
3 266 269 268
3 270 266 267
3 270 269 266
3 270 267 271
3 267 272 271
3 267 268 272
3 270 273 269
3 273 271 272
3 273 270 271
3 274 276 275
3 274 277 276
3 277 278 276
3 277 279 278
3 280 274 275
3 280 275 281
3 282 284 283
3 282 285 284
3 281 279 280
3 281 278 279
3 286 288 287
3 286 289 288
3 290 286 287
3 290 287 291
3 288 289 292
3 288 292 293
3 293 292 294
3 293 294 295
3 294 296 295
3 294 297 296
3 287 288 298
3 287 298 299
3 291 287 299
3 291 299 300
3 301 291 300
3 291 301 302
3 291 302 290
3 302 301 303
3 302 303 304
3 304 303 296
3 304 296 297
3 303 301 305
3 301 300 305
3 303 305 306
3 296 303 306
3 295 296 307
3 296 306 307
3 290 302 308
3 290 308 309
3 286 290 309
3 286 309 310
3 289 286 310
3 289 310 311
3 312 311 310
3 312 310 313
3 313 310 309
3 292 311 312
3 292 289 311
3 304 297 314
3 297 313 314
3 314 309 308
3 313 309 314
3 297 294 313
3 294 312 313
3 294 292 312
3 314 308 315
3 302 315 308
3 302 304 315
3 304 314 315
3 295 307 316
3 293 295 316
3 293 316 317
3 288 293 317
3 288 317 298
3 318 320 319
3 318 321 320
3 319 320 322
3 319 322 323
3 323 322 324
3 323 324 325
3 326 328 327
3 326 329 328
3 328 329 330
3 328 330 331
3 330 332 331
3 330 333 332
3 334 332 333
3 334 335 332
3 329 334 333
3 336 334 329
3 336 329 326
3 329 333 330
3 337 335 334
3 337 334 336
3 338 340 339
3 338 341 340
3 340 341 342
3 340 342 343
3 344 346 345
3 344 347 346
3 346 348 345
3 346 349 348
3 348 349 350
3 348 350 351
3 352 350 353
3 352 351 350
3 345 351 352
3 354 345 352
3 354 344 345
3 345 348 351
3 355 352 353
3 355 354 352
3 356 358 357
3 356 359 358
3 358 360 357
3 358 361 360
3 178 363 362
3 178 179 363
3 96 365 364
3 96 95 365
3 366 127 124
3 366 367 127
3 368 133 130
3 368 369 133
