mtllib Deoxys_Defence.mtl
v 0 0.498245 0
vt 1 1.03558
vn 0 0.9998027 0.01986399
v 0.173196 0.45549 -0.114159
vt 1.46235 1.05681
vn 0.401333 0.7915189 -0.460901
v 0 0.444218 -0.185221
vt 1 1.07006
vn 0 0.708456 -0.705755
v 0.247308 0.45461 0.00144044
vt 1.38989 1.03314
vn 0.338673 0.9409021 -0.00194756
v -0.173196 0.45549 -0.114159
vt 0.537648 1.05681
vn -0.4013338 0.7915186 -0.4609008
v 0.165618 0.453731 0.152496
vt 1.31743 1.00947
vn 0.134779 0.8890187 0.4375848
v -0.247308 0.45461 0.00144041
vt 0.610107 1.03314
vn -0.338673 0.9409021 -0.00194727
v 0 0.425416 0.153241
vt 1 1.00947
vn 0 0.9031852 0.4292511
v -0.165618 0.453731 0.152496
vt 0.682566 1.00947
vn -0.1347291 0.8890054 0.4376272
v -0.101664 0.221799 0.1374
vt -0.311728 0.297855
vn 0.2776211 -0.8306842 0.4825871
v 0.0805064 0.167094 0.0996039
vt 0.246852 0.130114
vn 0.2175379 -0.671159 0.7086769
v 0.101664 0.221799 0.1374
vt 0.311727 0.297855
vn -0.2776199 -0.8306847 0.4825868
v -0.0805064 0.167094 0.0996039
vt -0.246852 0.130114
vn -0.2175379 -0.671159 0.7086769
v 0 0.274124 0.142034
vt 0 0.458296
vn 0.0002170549 -0.08826867 0.9960967
v -0.160569 0.206066 0
vt -0.500791 0.245553
vn -0.8589244 -0.4401007 0.2618398
v -0.0381528 0.289016 0.143437
vt -0.116986 0.503959
v -0.167577 0.227692 -0.0156092
vt -0.501186 0.334618
vn 0.009370976 -0.8795167 -0.4757758
v -0.1201 0.326044 0.146632
vt -0.312082 0.617495
vn 0.341802 -0.385016 0.857283
v 0.160569 0.206066 0
vt 0.500791 0.245553
vn 0.8589242 -0.4401011 0.2618401
v 0 0.123877 0
vt 0 -0.0023993
vn 0 -0.9173707 0.3980339
v 0.0381528 0.289016 0.143437
vt 0.116986 0.503959
v -0.0527431 0.326367 0.146619
vt -0.161723 0.618485
vn 0.006230673 -0.05728552 0.9983384
v 0.167577 0.227692 -0.0156091
vt 0.501185 0.334618
vn -0.009370191 -0.8795171 -0.475775
v 0.1201 0.326044 0.146632
vt 0.312082 0.617495
vn -0.09555916 -0.03438699 0.9948297
v 0.052743 0.326367 0.146619
vt 0.161723 0.618485
vn -0.006230963 -0.05728572 0.9983384
v -0.037264 0.363718 0.147088
vt -0.11426 0.733011
vn 0.0123238 -0.0368712 0.999244
v 0.0372639 0.363718 0.147088
vt 0.11426 0.733011
vn -0.0123241 -0.0368712 0.999244
vt 0.316778 1.00901
vt -0.316778 1.00901
v 0 0.37861 0.147083
vt 0 0.778674
vn 0 -0.100812 0.9949055
vt 0 1.00901
vn 0 -0.130437 0.9914566
v -0.101664 0.221799 -0.119785
vt 0.688273 0.297855
vn -0.323903 -0.245146 -0.913778
v 0.101664 0.221799 -0.119785
vt 1.31173 0.297855
vn 0.323903 -0.245146 -0.913778
v -0.0736627 0.163136 -0.137046
vt 0.774132 0.117978
vn 0.0280211 -0.244873 -0.9691501
v 0.101232 0.273408 -0.147518
vt 1.3104 0.4561
vn 0.2073339 -0.3424609 -0.9163696
vt 0.498714 0.245553
v -0.101232 0.273408 -0.147518
vt 0.689599 0.4561
vn -0.2073339 -0.3424609 -0.9163696
vt 0.498319 0.334618
v 0.0736628 0.163136 -0.137046
vt 1.22587 0.117978
vn -0.0280208 -0.244873 -0.9691502
vt 1.50168 0.334618
vt 1.50129 0.245553
v -0.197574 0.302147 -0.0105014
vt 0.460424 0.617495
vn -0.343163 -0.5820999 -0.7371559
vt 1 -0.0023993
vn 0 -0.9981611 -0.06061651
vt 1 0.0918089
v -0.0972519 0.150039 -0.16998
vt 0.701802 0.0778194
vn -0.09347638 -0.685203 -0.7223289
v 0.197574 0.302147 -0.0105014
vt 1.53958 0.617495
vn 0.6761641 -0.2718511 -0.6847621
v 0.127831 0.374024 -0.172616
vt 1.3715 0.764613
vn 0.3581259 -0.150476 -0.9214678
v -0.127831 0.374024 -0.172616
vt 0.628504 0.764613
vn -0.3581259 -0.150476 -0.9214678
v 0.097252 0.150039 -0.16998
vt 1.2982 0.0778194
vn 0.09347648 -0.685203 -0.7223289
vt 1 1.01412
vt 0.550382 1.01441
vt 1.44962 1.01441
v -0.241384 0.141464 0.182886
vt 0.437936 0.941726
vn 0.3797399 -0.9250878 0.003184699
v -0.311067 0.148331 0.0335466
vn 0.23012 -0.9137012 -0.3349551
v -0.333387 0.187409 0.0401736
vn -0.7788793 0.6207942 0.08922803
v -0.262641 0.179213 0.19327
vn -0.6148952 0.5611182 0.5541212
v -0.364642 0.234167 0.0505089
vt 0.331222 0.839278
vn -0.931223 0.297751 0.210162
v -0.201239 0.411178 0.164128
vn -0.6073519 0.4533779 0.6523589
v -0.281032 0.417218 0.0188987
vn -0.9279106 0.3706579 0.03993269
v -0.292909 0.226749 0.206614
vn -0.7489153 0.2730211 0.6038092
v -0.338554 0.203766 0.0384397
vn 0.3375581 -0.9033463 -0.2646131
v -0.266144 0.197068 0.195369
vn 0.4415651 -0.8961671 -0.0436442
v 0.364597 0.234189 0.0505046
vn 0.9312294 0.2975771 0.2103801
v 0.281032 0.417218 0.0188987
vn 0.9279251 0.370602 0.0401132
v 0.201189 0.41118 0.164119
vn 0.6073801 0.4532751 0.6524041
v 0.292841 0.226782 0.206608
vn 0.7489293 0.2728361 0.6038752
v 0.338465 0.20381 0.0384311
vn -0.3374981 -0.9033602 -0.2646421
v 0.266054 0.197112 0.19536
vn -0.4415838 -0.8961595 -0.04361078
v 0.241384 0.141464 0.182886
vn -0.2770009 -0.9598948 0.04327269
v 0.311067 0.148331 0.0335467
vn -0.114047 -0.9540769 -0.277003
v 0.262641 0.179214 0.19327
vn 0.6833598 0.5842118 0.4378539
v 0.333387 0.18741 0.0401737
vn 0.7778714 0.6001563 0.1863561
vt 0.524052 0.943659
vt 0.305772 0.863449
vt 0.341038 0.943163
vt 0.472938 0.571214
vt 0.341038 0.912165
vt 0.524052 0.919164
vt 0.439027 0.681243
vn -0.3909369 0.7702608 0.5038519
v 0.190244 0.208674 0
vt 0.583336 0.1634
vn -0.0492918 0.9987019 -0.012838
vn -0.08752781 0.9961342 -0.007458991
v 0.0972519 0.150039 0.138401
vt 0.298198 0.0778194
vn 0.0741076 -0.421955 0.9035829
vt 0 0.0918089
vn 0.3909369 0.7702608 0.5038519
v -0.0972519 0.150039 0.138401
vt -0.298198 0.0778194
vn -0.0741076 -0.421955 0.9035829
v -0.190244 0.208674 0
vt -0.583336 0.1634
vn 0.0492918 0.9987019 -0.0128378
vn 0.08752771 0.9961342 -0.007458681
vt 0.416664 0.1634
vn -0.03433439 0.9393177 -0.3413259
v -0.167947 0.0984941 0
vt 0.304754 0.767271
vn -0.9085258 -0.4178199 -0.00271409
vn -0.9800441 -0.198339 -0.0132357
vn 0.03913838 0.9378176 -0.3449149
vt 1.58334 0.1634
v -0.0981145 1.490116E-08 0
vt 0.305379 0.779402
vn 0.162659 -0.9860837 -0.03436599
v 0.0981145 1.490116E-08 0
vn -0.1626599 -0.9860835 -0.03436599
v 0.167947 0.0984941 0
vn 0.9085258 -0.4178199 -0.00271372
vt 0.386268 0.776537
vt 0.383647 0.320666
vt 0.681754 0.697048
vt 0.171473 0.619926
vn 0.9800441 -0.198339 -0.0132352
v 0.0300888 0.297538 0.128147
vt 0.458298 0.0583388
vn -0.5930691 0.5298191 0.606268
vt 0.565627 0.0373853
vn 0 0.7823549 0.622833
vt 0.446194 0.0373853
v 0 0.285964 0.127587
vt 0.553522 0.0583388
v 0.0415128 0.327065 0.129579
vn -0.8285451 -0.0363373 0.558742
vn -0.59194 -0.59124 0.5477611
v 0.0295622 0.356591 0.131
vn 0 -0.8380561 0.5455841
v 0 0.368166 0.13156
v -0.0295622 0.356591 0.131
vn 0.5919391 -0.5912401 0.5477621
v -0.0415129 0.327065 0.129579
vn 0.8285443 -0.03633721 0.5587432
v -0.0300889 0.297538 0.128147
vn 0.5857308 0.5371038 0.6069918
vt 0.614096 0.980784
o merged_0_0_node
g polygon_0
usemtl defence_body_mat_id
f 1/1/1 2/2/2 3/3/3
f 1/1/1 4/4/4 2/2/2
f 1/1/1 3/3/3 5/5/5
f 1/1/1 6/6/6 4/4/4
f 1/1/1 5/5/5 7/7/7
f 1/1/1 8/8/8 6/6/6
f 1/1/1 7/7/7 9/9/9
f 1/1/1 9/9/9 8/8/8
f 10/10/10 11/11/11 12/12/12
f 10/10/10 13/13/13 11/11/11
f 10/10/10 12/12/12 14/14/14
f 10/10/10 15/15/15 13/13/13
f 10/10/10 14/14/14 16/16/14
f 10/10/10 17/17/16 15/15/15
f 10/10/10 16/16/14 18/18/17
f 11/11/11 19/19/18 12/12/12
f 11/11/11 13/13/13 20/20/19
f 14/14/14 12/12/12 21/21/14
f 16/16/14 22/22/20 18/18/17
f 19/19/18 23/23/21 12/12/12
f 21/21/14 12/12/12 24/24/22
f 21/21/14 24/24/22 25/25/23
f 22/22/20 26/26/24 18/18/17
f 24/24/22 27/27/25 25/25/23
f 24/24/22 6/28/6 27/27/25
f 26/26/24 9/29/9 18/18/17
f 26/26/24 28/30/26 9/29/9
f 27/27/25 6/28/6 28/30/26
f 9/29/9 28/30/26 8/31/27
f 8/31/27 28/30/26 6/28/6
f 29/32/28 30/33/29 31/34/30
f 29/32/28 32/35/31 30/33/29
f 29/32/28 31/34/30 15/36/15
f 29/32/28 33/37/32 32/35/31
f 29/32/28 15/36/15 17/38/16
f 29/32/28 17/38/16 33/37/32
f 30/33/29 34/39/33 31/34/30
f 30/33/29 32/35/31 23/40/21
f 30/33/29 19/41/18 34/39/33
f 30/33/29 23/40/21 19/41/18
f 17/38/16 35/42/34 33/37/32
f 31/34/30 34/39/33 20/43/35
f 31/34/30 20/44/35 36/45/36
f 32/35/31 37/46/37 23/40/21
f 32/35/31 33/37/32 38/47/38
f 32/35/31 38/47/38 37/46/37
f 35/42/34 39/48/39 33/37/32
f 33/37/32 39/48/39 38/47/38
f 34/39/33 40/49/40 20/44/35
f 39/48/39 3/50/3 38/47/38
f 39/48/39 5/51/5 3/50/3
f 38/47/38 3/50/3 2/52/2
f 41/53/41 17/53/16 10/53/10
f 41/53/41 42/53/42 17/53/16
f 41/53/41 10/53/10 18/53/17
f 41/53/41 43/53/43 42/53/42
f 41/53/41 18/53/17 44/53/44
f 41/53/41 44/53/44 43/53/43
f 17/53/16 42/53/42 35/53/34
f 35/53/34 44/53/44 18/53/17
f 35/53/34 42/53/42 43/53/43
f 35/53/34 43/53/43 44/53/44
f 45/54/45 46/54/46 47/54/47
f 45/54/45 48/54/48 46/54/46
f 45/54/45 47/54/47 35/54/34
f 45/54/45 49/54/49 48/54/48
f 45/54/45 35/54/34 49/54/49
f 46/54/46 48/54/48 18/54/17
f 35/54/34 50/54/50 49/54/49
f 35/54/34 18/54/17 50/54/50
f 50/54/50 48/54/48 49/54/49
f 50/54/50 18/54/17 48/54/48
f 51/54/51 52/54/52 53/54/53
f 51/54/51 37/54/37 52/54/52
f 51/54/51 53/54/53 54/54/54
f 51/54/51 55/54/55 37/54/37
f 51/54/51 54/54/54 55/54/55
f 53/54/53 24/54/22 54/54/54
f 37/54/37 55/54/55 56/54/56
f 37/54/37 56/54/56 24/54/22
f 56/54/56 55/54/55 54/54/54
f 56/54/56 54/54/54 24/54/22
f 57/53/57 12/53/12 23/53/21
f 57/53/57 24/53/22 12/53/12
f 57/53/57 23/53/21 58/53/58
f 57/53/57 59/53/59 24/53/22
f 57/53/57 58/53/58 59/53/59
f 23/53/21 37/53/37 58/53/58
f 24/53/22 59/53/59 37/53/37
f 58/53/58 60/53/60 59/53/59
f 58/53/58 37/53/37 60/53/60
f 60/53/60 37/53/37 59/53/59
f 52/55/52 2/56/2 4/57/4
f 52/55/52 38/58/38 2/56/2
f 52/55/52 4/57/4 6/59/6
f 52/55/52 6/59/6 53/60/53
f 6/59/6 24/61/22 53/60/53
f 47/55/47 5/56/5 39/58/39
f 47/55/47 7/57/7 5/56/5
f 47/55/47 9/59/9 7/57/7
f 47/55/47 46/60/46 9/59/9
f 46/60/46 18/61/17 9/59/9
f 11/11/61 61/62/62 19/19/63
f 11/11/61 62/63/64 61/62/62
f 11/11/61 20/64/35 62/63/64
f 20/64/35 13/13/65 63/65/66
f 13/13/65 64/66/67 63/65/66
f 13/13/65 15/15/68 64/66/67
f 64/67/67 15/36/68 31/34/69
f 64/67/67 31/34/69 36/45/69
f 65/68/70 64/68/71 36/68/36
f 65/68/70 63/68/66 64/68/71
f 34/39/72 61/69/62 40/49/72
f 34/39/72 19/41/63 61/69/62
f 66/70/73 36/70/36 20/70/35
f 66/70/73 65/70/70 36/70/36
f 20/70/35 40/70/40 67/70/74
f 40/70/40 68/70/75 67/70/74
f 63/71/66 66/72/73 20/73/35
f 63/71/66 65/74/70 66/72/73
f 20/73/35 67/72/74 62/71/64
f 67/72/74 68/74/75 62/71/64
f 68/68/75 61/68/76 62/68/64
f 68/68/75 40/68/40 61/68/76
f 69/75/77 14/76/78 21/77/77
f 69/75/77 70/78/78 14/76/78
f 71/75/79 21/76/77 25/77/79
f 71/75/79 69/78/77 21/76/77
f 27/77/80 71/78/79 25/76/79
f 27/77/80 72/75/80 71/78/79
f 28/77/81 72/78/80 27/76/80
f 28/77/81 73/75/81 72/78/80
f 74/75/82 28/76/81 26/77/82
f 74/75/82 73/78/81 28/76/81
f 75/75/83 26/76/82 22/77/83
f 75/75/83 74/78/82 26/76/82
f 14/77/78 76/78/84 16/76/84
f 14/77/78 70/75/78 76/78/84
f 16/77/84 75/78/83 22/76/83
f 16/77/84 76/75/84 75/78/83
f 47/79/47 39/79/39 35/79/34
f 52/79/52 37/79/37 38/79/38
v 0 0.392454 0
vt 0.887778 0.960722
vn 0 -0.9978459 -0.0656009
v -0.240484 0.45568 0
vn -0.6833763 -0.7300663 0.0002974671
v -0.169479 0.457006 -0.112741
vn -0.2954181 -0.9026463 -0.3129821
v -0.142652 0.436887 0.141789
vn -0.2904491 -0.9211683 0.2590141
v 0 0.448064 -0.186825
vn 0 -0.8741972 -0.4855711
v 0 0.434163 0.148357
vn 0 -0.9302343 0.3669661
v 0.169479 0.457006 -0.112741
vn 0.2954181 -0.9026463 -0.3129821
v 0.142652 0.436887 0.141789
vn 0.2904491 -0.9211683 0.2590141
v 0.240484 0.45568 0
vn 0.6833763 -0.7300663 0.0002975572
v -0.177617 0.491443 -0.142232
vn -0.641697 -0.311199 -0.7009851
v -0.160186 0.477812 0.153166
vn -0.697494 -0.253586 0.670221
v -0.241704 0.553214 0
vn -0.9956481 -0.0344123 0.08660631
v 0.0508601 0.46622 0.178398
vn 0.08179887 -0.5147378 0.8534366
v -0.0508601 0.46622 0.178398
vn -0.08179896 -0.5147378 0.8534366
v 0.177617 0.491443 -0.142232
vn 0.6416966 -0.3111988 -0.7009856
v -0.206623 0.611215 -0.125125
vn -0.8459648 0.07905637 -0.5273459
v -0.170873 0.555108 0.157727
vn -0.7102582 -0.04106991 0.7027422
v -0.241704 0.697003 0
vn -0.9555548 0.2937259 0.02529979
v 0.160186 0.477812 0.153166
vn 0.6974942 -0.2535851 0.6702212
v 0 0.493011 -0.20379
vn 0 -0.3125411 -0.9499043
v -0.145857 0.75534 -0.135068
vn -0.5778648 0.5699947 -0.5841048
v -0.103311 0.620621 -0.224143
vn -0.3394549 0.0159162 -0.9404877
v -0.1709 0.685704 0.1577
vn -0.7024008 0.123095 0.7010568
v 0.241704 0.553214 0
vn 0.9960153 -0.03487211 0.08208242
v 0 0.748734 -0.20716
vn 0 0.512976 -0.858403
v -0.155715 0.81419 0
vn -0.5645877 0.8253445 0.006874726
v 0 0.851128 -0.0885172
vn 0 0.942147 -0.3352
v 0.103311 0.620621 -0.224143
vn 0.3394549 0.0159161 -0.9404877
v -0.138417 0.757716 0.138417
vn -0.5918958 0.6653967 0.4548698
v 0.170873 0.555108 0.157727
vn 0.707013 -0.0415835 0.705977
v 0.145857 0.75534 -0.135068
vn 0.5778648 0.5699947 -0.5841048
v 0 0.848932 0.0876348
vn 0 0.9689742 0.247162
v 0.155715 0.81419 0
vn 0.5645877 0.8253445 0.006874856
v 0.206623 0.611215 -0.125125
vn 0.8459648 0.07905628 -0.5273459
v 0.1709 0.685704 0.1577
vn 0.7059372 0.121547 0.6977672
v 0.138417 0.757716 0.138417
vn 0.5918955 0.6653965 0.4548706
v 0.241704 0.697003 0
vn 0.9564253 0.2904051 0.03025741
v -0.0510512 0.777692 0.185275
vt -0.31888 0.867521
vn -0.213586 0.6075219 0.7650478
v 0.0515453 0.685704 0.223567
vt 0.321966 0.581936
vn 0.250226 0.131104 0.9592699
v 0.0510512 0.777692 0.185275
vt 0.31888 0.867521
vn 0.213586 0.6075219 0.7650478
v -0.0515453 0.685704 0.223567
vt -0.321966 0.581936
vn -0.250226 0.131104 0.9592699
vt 0 1.09215
vt -1.06749 0.581936
vt -0.864587 0.805505
vt 1.06749 0.581936
v 0.0510128 0.555108 0.223445
vt 0.31864 0.423658
vn 0.2320979 -0.140246 0.9625288
vt 0.864587 0.805505
v -0.0510128 0.555108 0.223445
vt -0.31864 0.423658
vn -0.2320979 -0.140246 0.9625288
vt -0.317686 0.147695
vt -0.967994 0.18672
vt -1.06732 0.423658
vt 0.317686 0.147695
vt 0.967994 0.18672
vt 1.06732 0.423658
o merged_1_0_node
g polygon_0
usemtl lambert8_mat_id
f 77/80/85 78/80/86 79/80/87
f 77/80/85 80/80/88 78/80/86
f 77/80/85 79/80/87 81/80/89
f 77/80/85 82/80/90 80/80/88
f 77/80/85 81/80/89 83/80/91
f 77/80/85 84/80/92 82/80/90
f 77/80/85 83/80/91 85/80/93
f 77/80/85 85/80/93 84/80/92
f 78/80/86 86/80/94 79/80/87
f 78/80/86 80/80/88 87/80/95
f 78/80/86 88/80/96 86/80/94
f 78/80/86 87/80/95 88/80/96
f 79/80/87 86/80/94 81/80/89
f 82/80/90 84/80/92 89/80/97
f 82/80/90 90/80/98 80/80/88
f 82/80/90 89/80/97 90/80/98
f 90/80/98 87/80/95 80/80/88
f 83/80/91 91/80/99 85/80/93
f 83/80/91 81/80/89 91/80/99
f 88/80/96 92/80/100 86/80/94
f 88/80/96 87/80/95 93/80/101
f 88/80/96 94/80/102 92/80/100
f 88/80/96 93/80/101 94/80/102
f 84/80/92 95/80/103 89/80/97
f 84/80/92 85/80/93 95/80/103
f 81/80/89 96/80/104 91/80/99
f 81/80/89 86/80/94 96/80/104
f 92/80/100 94/80/102 97/80/105
f 92/80/100 98/80/106 86/80/94
f 92/80/100 97/80/105 98/80/106
f 86/80/94 98/80/106 96/80/104
f 93/80/101 99/80/107 94/80/102
f 85/80/93 100/80/108 95/80/103
f 85/80/93 91/80/99 100/80/108
f 97/80/105 101/80/109 98/80/106
f 97/80/105 94/80/102 102/80/110
f 97/80/105 103/80/111 101/80/109
f 97/80/105 102/80/110 103/80/111
f 96/80/104 104/80/112 91/80/99
f 96/80/104 98/80/106 104/80/112
f 98/80/106 101/80/109 104/80/112
f 99/80/107 105/80/113 94/80/102
f 94/80/102 105/80/113 102/80/110
f 95/80/103 100/80/108 106/80/114
f 103/80/111 107/80/115 101/80/109
f 103/80/111 102/80/110 108/80/116
f 103/80/111 109/80/117 107/80/115
f 103/80/111 108/80/116 109/80/117
f 102/80/110 105/80/113 108/80/116
f 101/80/109 107/80/115 104/80/112
f 91/80/99 110/80/118 100/80/108
f 91/80/99 104/80/112 110/80/118
f 104/80/112 107/80/115 110/80/118
f 106/80/114 100/80/108 111/80/119
f 109/80/117 108/80/116 112/80/120
f 109/80/117 113/80/121 107/80/115
f 109/80/117 112/80/120 113/80/121
f 113/80/121 100/80/108 110/80/118
f 113/80/121 111/80/119 100/80/108
f 113/80/121 110/80/118 107/80/115
f 113/80/121 112/80/120 111/80/119
f 114/81/122 115/82/123 116/83/124
f 114/81/122 117/84/125 115/82/123
f 114/81/122 116/83/124 108/85/116
f 114/81/122 99/86/107 117/84/125
f 114/81/122 108/85/116 105/87/113
f 114/81/122 105/87/113 99/86/107
f 115/82/123 111/88/119 116/83/124
f 115/82/123 117/84/125 118/89/126
f 108/85/116 116/83/124 112/90/120
f 112/90/120 116/83/124 111/88/119
f 117/84/125 119/91/127 118/89/126
f 119/91/127 90/92/98 118/89/126
f 119/91/127 87/93/95 90/92/98
f 119/91/127 93/94/101 87/93/95
f 118/89/126 90/92/98 89/95/97
f 118/89/126 89/95/97 95/96/103
f 118/89/126 95/96/103 106/97/114
vt 0.5 0.00495815
vn 0 -0.3501781 0.9366832
vt 0.862404 0.144371
vn 0.210396 -0.258471 0.9428289
v 0 0.327091 0.142963
vt 0.5 0.500319
vn 0 -0.04641571 0.9989222
vt 1 0.5
vn 0.306506 -0.045474 0.9507819
vt 0.856061 0.85563
vn 0.2179019 0.1712629 0.9608266
vt 0.5 0.995042
vn 0 0.2675021 0.9635573
vt 0 0.5
vn -0.306506 -0.04547369 0.9507819
vt 0.143939 0.85563
vn -0.2179019 0.1712629 0.9608266
vt 0.137596 0.14437
vn -0.2103959 -0.2584719 0.9428287
o merged_2_0_node
g polygon_0
usemtl mune_mat_mat_id
f 70/98/128 69/99/129 120/100/130
f 120/100/130 69/99/129 71/101/131
f 71/101/131 72/102/132 120/100/130
f 120/100/130 72/102/132 73/103/133
f 75/104/134 120/100/130 74/105/135
f 74/105/135 120/100/130 73/103/133
f 70/98/128 120/100/130 76/106/136
f 76/106/136 120/100/130 75/104/134
vt 0.985996 0.996139
vt 0.085096 0.996139
vt 0.985793 0.753861
vt 0.0810769 0.753861
o merged_3_0_node
g polygon_0
usemtl TEX_ANIM_EYE_mat_id
f 111/107/119 115/108/123 106/109/114
f 106/109/114 115/108/123 118/110/126
f 119/110/127 117/108/125 93/109/101
f 93/109/101 117/108/125 99/107/107
