mtllib Zorua.mtl
v 0 0.0519239 0.00663999
vt 0.240254 0.151588
vn 0 -0.9999419 0.0107772
v -0.0960498 0.06513228 0.04833659
vt 0.174687 0.185329
vn -0.9309797 -0.3212279 -0.1734636
v -0.0960498 0.06039236 -0.02854376
vt 0.29558 0.173223
vn -0.9005492 -0.3961749 0.1790438
v -0.0977466 -9.496686E-06 0.115355
vt 0.0693068 0
vn -0.2541195 -0.7799051 0.5719888
v -0.0977466 -1.085588E-05 -0.1195933
vt 0.438746 0
vn -0.2752207 -0.7679514 -0.5783634
v 0 0.06622478 0.1594316
vt 0 0.188125
vn 0 -0.3636858 0.9315217
v 0 0.06653997 -0.1585483
vt 0.5 0.188931
vn 0 -0.3496422 -0.9368833
v 0.0977465 -9.496686E-06 0.115355
vn 0.2541185 -0.7799053 0.571989
v 0.0977465 -1.085588E-05 -0.1195933
vn 0.2752207 -0.7679514 -0.5783634
v 0.0960498 0.06513228 0.04833659
vn 0.9309797 -0.3212279 -0.1734636
v 0.0960498 0.06039236 -0.02854366
vn 0.9005492 -0.3961749 0.1790438
v -0.0965384 0.1216274 0.1044271
vt 0.0864897 0.202933
vn -0.8647575 0.1112029 0.4897227
v -0.0965384 0.1216273 -0.09538397
vt 0.400681 0.202933
vn -0.8627116 0.1694216 -0.4764714
v 0.0965384 0.1216274 0.1044271
vn 0.8647575 0.1112029 0.4897227
v 0.0965384 0.1216273 -0.09538397
vn 0.8627116 0.1694216 -0.4764714
v -0.0873779 0.181872 -0.0795326
vt 0.375756 0.230668
vn -0.732426 0.630376 -0.257251
v 0 0.1216274 0.1586437
vt 0.00123668 0.202933
vn 0 0.110853 0.9938368
v -0.087378 0.181872 0.0965433
vt 0.0988856 0.230668
vn -0.7970988 0.5283619 0.2923479
v 0 0.181872 0.150289
vt 0.0143729 0.230668
vn 0 0.5208198 0.8536667
v 0 0.1216273 -0.1585469
vt 0.5 0.202933
vn 0 0.2285899 -0.9735228
v 0 0.19575 0.0543438
vt 0.165242 0.237056
vn 0 0.9998744 0.01584791
v 0 0.181872 -0.131395
vt 0.457307 0.230668
vn 0 0.7632716 -0.6460777
v 0.0873779 0.181872 -0.0795326
vn 0.732426 0.630376 -0.257251
v 0.0873779 0.181872 0.0965434
vn 0.7970988 0.5283619 0.2923479
v 0.114387 0.464473 0.0149966
vt 0.576499 0.442581
vn 0.260473 0.5138429 -0.8173857
v 0.254585 0.586887 0.0305994
vt 0.596369 0.45883
vn 0.5421808 0.6111228 -0.5766878
v 0.247251 0.475427 0.0485871
vt 0.592516 0.443582
vn 0.9568551 -0.290512 0.005580501
v 0.158659 0.556954 0.0811822
vt 0.581651 0.453343
vn -0.19596 0.8476168 0.4930979
v 0.182415 0.359606 0.0763636
vt 0.584415 0.430378
vn 0.977998 0.130336 0.162888
v 0.0785086 0.485248 0.119408
vt 0.572324 0.444998
vn 0.4045812 0.8492963 0.3391311
v 0.168814 0.337222 -0.00111811
vt 0.582833 0.427773
vn 0.8181482 0.04638941 -0.5731331
v 0 0.504201 0.0277377
vt 0.563188 0.447204
vn 0 0.9450635 -0.3268868
v 0.0706953 0.336394 -0.0861462
vt 0.571415 0.427676
vn 0.3782441 0.04328931 -0.9246932
v 0 0.430494 -0.061073
vt 0.563188 0.438627
vn 0 0.5597486 -0.8286625
v 0.114387 0.434563 0.210671
vt 0.576499 0.4391
vn 0.6400768 0.5301878 0.5560598
v 0.17934 0.274643 0.0948995
vt 0.584058 0.42049
vn 0.8971441 -0.4416821 0.007027571
v 0.150754 0.346567 0.189454
vt 0.580731 0.42886
vn 0.8306767 0.136255 0.5398248
v -0.114387 0.464473 0.0149966
vt 0.549877 0.442581
vn -0.2604741 0.5138431 -0.8173851
v 0 0.496496 0.180858
vt 0.563188 0.446307
vn 0 0.9116452 0.4109781
v -0.0785086 0.485248 0.119408
vt 0.554052 0.444998
vn -0.4045812 0.8492963 0.3391311
v 0.114387 0.234133 -0.00914665
vt 0.576499 0.415776
vn 0.5669319 -0.6216799 -0.5404649
v -0.0706953 0.336394 -0.0861462
vt 0.554961 0.427676
vn -0.3782441 0.04328931 -0.9246932
v 0 0.242627 -0.0589642
vt 0.563188 0.416765
vn 0 -0.5584232 -0.8295562
v 0.148366 0.272619 0.200706
vt 0.580453 0.420255
vn 0.7516303 -0.4291421 0.5008882
v -0.114387 0.434563 0.210671
vt 0.549877 0.4391
vn -0.6400768 0.5301878 0.5560598
v -0.158659 0.556954 0.0811822
vt 0.544725 0.453343
vn 0.1959601 0.8476165 0.4930983
v -0.182415 0.359606 0.0763636
vt 0.541961 0.430378
vn -0.977998 0.130336 0.162888
v 0 0.420153 0.2584
vt 0.563188 0.437423
vn 0 0.3574829 0.9339197
v -0.114387 0.234133 -0.00914665
vt 0.549877 0.415776
vn -0.5669319 -0.6216799 -0.5404649
v 0 0.181572 0.0133805
vt 0.563188 0.40966
vn 0 -0.9170019 -0.3988829
v 0.0928334 0.186138 0.0991233
vt 0.573991 0.410191
vn 0.497531 -0.867443 0.00235881
v 0.0436513 0.194772 0.208648
vt 0.568268 0.411196
vn 0.338623 -0.838229 0.427442
v 0.0693071 0.277435 0.252951
vt 0.571253 0.420815
vn 0.490478 -0.0821903 0.867569
v -0.254585 0.586887 0.0305995
vt 0.530007 0.45883
vn -0.5421812 0.6111232 -0.5766872
v -0.247251 0.475427 0.0485871
vt 0.53386 0.443582
vn -0.9568554 -0.2905111 0.005581212
v -0.168814 0.337222 -0.00111811
vt 0.543543 0.427773
vn -0.8181482 0.04638951 -0.5731332
v -0.150754 0.346567 0.189454
vt 0.545645 0.42886
vn -0.8306767 0.136255 0.5398248
v 0 0.172799 0.1263
vt 0.563188 0.408639
vn 0 -0.9979803 0.06352462
v -0.0436513 0.194772 0.208648
vt 0.558108 0.411196
vn -0.34619 -0.8373681 0.4230451
v -0.17934 0.274643 0.0948995
vt 0.542319 0.42049
vn -0.8971441 -0.4416821 0.007027581
v -0.0928334 0.186138 0.0991233
vt 0.552385 0.410191
vn -0.497531 -0.867443 0.0023588
v -0.148366 0.272619 0.200706
vt 0.545923 0.420255
vn -0.7516303 -0.4291421 0.5008882
v -0.0693071 0.277435 0.252951
vt 0.555123 0.420815
vn -0.490478 -0.0821904 0.867569
v 0.00802183 0.165147 -0.0170639
vt 0.55374 0.0815489
vn 0.082355 -0.765232 -0.638465
v -0.101609 0.124306 0.108935
vt 0.537004 0.0573288
vn -0.429786 -0.8761001 -0.218478
v -0.123848 0.159829 0.0787231
vt 0.533792 0.0620552
vn -0.2410689 -0.8924108 -0.3814299
v 0 0.07090211 0.1589376
vt 0.552516 0.048829
vn -0.07336466 -0.9972667 0.008758566
v -0.137567 0.16014 0.0379701
vt 0.531515 0.0690349
vn -0.3874841 -0.7279901 -0.5655851
v 0.101609 0.107471 0.126485
vt 0.568027 0.0559287
vn 0.4609211 -0.8683502 -0.183084
v -0.0235634 0.228805 -0.0678409
vt 0.537004 0.083634
vn -0.2796289 0.3218429 -0.9045578
v 0.17368 0.195289 0.0440067
vt 0.575141 0.0678781
vn 0.9620199 -0.108884 0.250324
v 0.248759 0.288098 -0.0652966
vt 0.588403 0.0841135
vn 0.8476592 0.5142642 -0.130408
v 0 0.1434888 0.2023495
vt 0.552516 0.0449369
vn -0.08282346 0.497554 0.86347
v -0.108081 0.166392 0.1237
vt 0.536321 0.0552029
vn -0.428807 0.6993091 0.5719191
v -0.143697 0.190713 0.0500124
vt 0.530579 0.0669613
vn -0.6055663 0.7916863 0.08076103
v 0 0.267967 0.0250912
vt 0.552516 0.0727043
vn -0.124919 0.9752789 0.182281
vn -0.4788797 0.7634156 0.4334408
v 0.101609 0.164672 0.149346
vt 0.568027 0.0513474
vn 0.4006578 0.6311147 0.6642046
v 0.049527 0.236281 -0.253841
vt 0.564305 0.191708
vn 0.8960722 0.3012331 -0.3260571
v 0.0885976 0.186238 -0.18611
vt 0.547321 0.179159
vn 0.9005537 0.02025379 0.4342729
v 0.0690066 0.147649 -0.26647
vt 0.567472 0.169483
vn 0.7069442 -0.5454771 -0.4502051
v 0 0.240542 -0.163539
vt 0.541661 0.192777
vn 0 0.6778418 0.7352078
v 0 0.171362 -0.319696
vt 0.580819 0.175429
vn 0 -0.3344809 -0.9424025
v 0 0.271362 -0.225291
vt 0.557146 0.200505
vn 0 0.8119926 0.5836677
v 0 0.352503 -0.347089
vt 0.587688 0.220852
vn 0 0.009608329 -0.9999539
v 0 0.316178 -0.268044
vt 0.567866 0.211743
vn 0 0.9859989 0.166752
v 0 0.294491 -0.293604
vt 0.574276 0.206305
v 0 0.103781 -0.201866
vt 0.551272 0.158482
vn 0 -0.9864942 0.163796
v 0 0.157204 -0.14387
vt 0.536729 0.171879
vn 0 -0.3264809 0.9452038
v -0.049527 0.236281 -0.253841
vn -0.8960722 0.3012331 -0.3260571
v -0.0885976 0.186238 -0.18611
vn -0.9005537 0.02025379 0.4342729
v -0.0690066 0.147649 -0.26647
vn -0.7069442 -0.5454771 -0.4502051
v 0.00486482 0.563428 0.146991
vt 0.481609 0.743393
vn 0.350849 0.7158799 0.6036729
v 0.0228536 0.698674 0.0438457
vt 0.536361 1
vn 0.7479088 0.5022489 -0.4340259
v -0.0059508 0.615969 0.0585373
vt 0.24096 0.876293
vn -0.905836 0.356215 0.229286
v 0.0915453 0.528668 0.0587249
vt 0.755719 0.707346
vn 0.8972882 0.03621771 -0.4399571
v 0.113912 0.502453 0.171717
vt 0.629448 0.642652
vn 0.9383932 0.224904 0.2623671
v 0.0181415 0.467646 0.244758
vt 0.489164 0.544695
vn 0.1694319 0.3910659 0.9046327
v -0.0833722 0.545783 0.179628
vt 0.340589 0.696749
vn -0.8007773 0.5036542 0.3241731
v -0.0240353 0.637444 0.0467972
vt 0.23767 0.913854
vn -0.8072109 0.56748 -0.16241
vn 0.8040952 0.5309152 -0.2675071
v -0.0424221 0.534242 0.00958172
vt 0.0914814 0.764788
vn -0.4121691 0.044601 -0.9100151
v 0.046021 0.423311 0.221138
vt 0.545848 0.5
vn 0.4299782 -0.8758174 0.2192321
vt 0.997862 0.764788
v 0.0187508 0.412791 0.0481712
vt 0.910163 0.604276
vn 0.3204049 -0.8114847 -0.4887058
v -0.092359 0.431698 0.102307
vt 0.184484 0.593091
vn -0.7866167 -0.5798348 -0.2121929
v -0.0609054 0.446901 0.230668
vt 0.361505 0.525867
vn -0.6213647 -0.5121707 0.5929477
vt 0.00378239 0.604276
v 0.0312147 0.244174 0.27804
vt 0.269598 0.380365
vn 0.3556271 -0.6006771 0.7160422
vt 0.0725865 0.245355
vt 0.302325 0.245355
v -0.0312147 0.244174 0.27804
vt 0.105313 0.380365
vn -0.381363 -0.578445 0.721085
vt 0.369838 0.445351
v 0 0.290999 0.306259
vt 0.187455 0.485826
vn 0 0.370075 0.9290019
vt 0.00507274 0.445351
v 0 0.315972 0.264049
vt 0.187455 0.564295
vn 0 0.2686829 0.9632287
v -0.124551 0.144108 0.116187
vt 0.535674 0.0582908
vn -0.9244092 -0.2685071 0.2708721
vn 0.129471 -0.9765748 -0.171869
v -0.0850467 0.134682 0.168431
vt 0.536379 0.0568664
vn 0.9726503 0.009497753 0.2320801
vn -0.98834 -0.132891 -0.074324
vn 0.0231628 0.9293102 0.3685731
v -0.154566 0.166794 0.0603014
vt 0.532046 0.0658186
vn -0.9222547 -0.3257189 0.2082149
vn 0.1247511 0.8643153 0.4872332
v -0.147607 0.217612 -0.0182502
vt 0.531338 0.0673473
vn 0.7915152 0.117667 -0.5997151
vn -0.5302538 -0.4669948 0.7076346
vn -0.204386 -0.8445349 -0.4949619
vt 0.895992 0.252565
vt 0.763882 0.444954
vt 0.655183 0.222335
vt 0.647702 0.00307649
vt 0.986637 0.00307986
v 0.174684 0.274296 0.110561
vt 0.550606 0.309542
vn 0.2919371 -0.9369394 -0.1921391
v 0.259491 0.314665 0.0477536
vt 0.599589 0.332859
vn 0.8135592 0.06137292 -0.5782342
v 0.172208 0.324935 0.110561
vt 0.549176 0.338791
vn 0.05429302 0.9936944 -0.09810103
v 0.151305 0.250038 0.110561
vt 0.537102 0.295531
vn -0.255776 -0.8891621 -0.379433
v 0.227234 0.251802 0.0653874
vt 0.580958 0.296549
vn 0.8025351 -0.134483 -0.5812501
v 0.174313 0.274226 0.110561
vt 0.550392 0.309501
vn 0.5083828 0.8427867 0.1767979
v -0.174684 0.274296 0.110561
vn -0.3090211 -0.9314443 -0.1921391
v -0.172208 0.324935 0.110561
vn -0.06259467 0.9943227 -0.08604897
v -0.259491 0.314665 0.0477536
vn -0.7992288 0.134936 -0.5856839
v -0.151305 0.250038 0.110561
vn 0.2265449 -0.8894016 -0.3970419
v -0.174313 0.274226 0.110561
vn -0.5129802 0.8420603 0.166691
v -0.227234 0.251802 0.0653874
vn -0.799695 -0.161912 -0.578163
o merged_0_0_node
g polygon_0
usemtl mat_body_mat_id
f 1/1/1 2/2/2 3/3/3
f 1/1/1 4/4/4 2/2/2
f 1/1/1 3/3/3 5/5/5
f 1/1/1 6/6/6 4/4/4
f 1/1/1 5/5/5 7/7/7
f 1/1/1 8/4/8 6/6/6
f 1/1/1 7/7/7 9/5/9
f 1/1/1 10/2/10 8/4/8
f 1/1/1 9/5/9 11/3/11
f 1/1/1 11/3/11 10/2/10
f 2/2/2 12/8/12 3/3/3
f 2/2/2 4/4/4 12/8/12
f 4/4/4 6/6/6 12/8/12
f 5/5/5 13/9/13 7/7/7
f 5/5/5 3/3/3 13/9/13
f 3/3/3 12/8/12 13/9/13
f 8/4/8 10/2/10 14/8/14
f 8/4/8 14/8/14 6/6/6
f 10/2/10 11/3/11 14/8/14
f 9/5/9 7/7/7 15/9/15
f 9/5/9 15/9/15 11/3/11
f 11/3/11 15/9/15 14/8/14
f 12/8/12 16/10/16 13/9/13
f 12/8/12 6/6/6 17/11/17
f 12/8/12 18/12/18 16/10/16
f 12/8/12 17/11/17 19/13/19
f 12/8/12 19/13/19 18/12/18
f 17/11/17 6/6/6 14/8/14
f 17/11/17 14/8/14 19/13/19
f 7/7/7 20/14/20 15/9/15
f 7/7/7 13/9/13 20/14/20
f 16/10/16 18/12/18 21/15/21
f 16/10/16 22/16/22 13/9/13
f 16/10/16 21/15/21 22/16/22
f 20/14/20 22/16/22 15/9/15
f 20/14/20 13/9/13 22/16/22
f 18/12/18 19/13/19 21/15/21
f 14/8/14 15/9/15 23/10/23
f 14/8/14 24/12/24 19/13/19
f 14/8/14 23/10/23 24/12/24
f 23/10/23 15/9/15 22/16/22
f 23/10/23 21/15/21 24/12/24
f 23/10/23 22/16/22 21/15/21
f 21/15/21 19/13/19 24/12/24
f 25/17/25 26/18/26 27/19/27
f 25/17/25 28/20/28 26/18/26
f 25/17/25 27/19/27 29/21/29
f 25/17/25 30/22/30 28/20/28
f 25/17/25 29/21/29 31/23/31
f 25/17/25 32/24/32 30/22/30
f 25/17/25 31/23/31 33/25/33
f 25/17/25 34/26/34 32/24/32
f 25/17/25 33/25/33 34/26/34
f 29/21/29 30/22/30 35/27/35
f 29/21/29 36/28/36 31/23/31
f 29/21/29 35/27/35 37/29/37
f 29/21/29 37/29/37 36/28/36
f 32/24/32 34/26/34 38/30/38
f 32/24/32 39/31/39 30/22/30
f 32/24/32 38/30/38 40/32/40
f 32/24/32 40/32/40 39/31/39
f 30/22/30 39/31/39 35/27/35
f 33/25/33 31/23/31 41/33/41
f 33/25/33 42/34/42 34/26/34
f 33/25/33 41/33/41 43/35/43
f 33/25/33 43/35/43 42/34/42
f 34/26/34 42/34/42 38/30/38
f 31/23/31 36/28/36 41/33/41
f 37/29/37 44/36/44 36/28/36
f 40/32/40 45/37/45 39/31/39
f 40/32/40 38/30/38 46/38/46
f 40/32/40 47/39/47 45/37/45
f 35/27/35 39/31/39 48/40/48
f 48/40/48 39/31/39 45/37/45
f 43/35/43 49/41/49 42/34/42
f 43/35/43 41/33/41 50/42/50
f 43/35/43 50/42/50 49/41/49
f 44/36/44 51/43/51 36/28/36
f 44/36/44 52/44/52 51/43/51
f 44/36/44 53/45/53 52/44/52
f 41/33/41 51/43/51 50/42/50
f 41/33/41 36/28/36 51/43/51
f 38/30/38 54/46/54 46/38/46
f 38/30/38 47/39/47 55/47/55
f 38/30/38 42/34/42 56/48/56
f 38/30/38 55/47/55 54/46/54
f 38/30/38 56/48/56 47/39/47
f 42/34/42 49/41/49 56/48/56
f 45/37/45 47/39/47 57/49/57
f 52/44/52 58/50/58 51/43/51
f 52/44/52 59/51/59 58/50/58
f 51/43/51 58/50/58 50/42/50
f 49/41/49 60/52/60 56/48/56
f 49/41/49 50/42/50 61/53/61
f 49/41/49 61/53/61 60/52/60
f 58/50/58 59/51/59 61/53/61
f 58/50/58 61/53/61 50/42/50
f 47/39/47 60/52/60 57/49/57
f 47/39/47 56/48/56 60/52/60
f 59/51/59 62/54/62 61/53/61
f 59/51/59 63/55/63 62/54/62
f 62/54/62 57/49/57 60/52/60
f 62/54/62 60/52/60 61/53/61
f 64/56/64 65/57/65 66/58/66
f 64/56/64 67/59/67 65/57/65
f 64/56/64 66/58/66 68/60/68
f 64/56/64 69/61/69 67/59/67
f 64/56/64 68/60/68 70/62/70
f 64/56/64 71/63/71 69/61/69
f 64/56/64 70/62/70 72/64/72
f 64/56/64 72/64/72 71/63/71
f 65/57/65 67/59/67 73/65/73
f 65/57/65 73/65/73 74/66/74
f 67/59/67 69/61/69 73/65/73
f 68/60/68 75/67/75 70/62/70
f 72/64/72 76/68/76 71/63/71
f 72/64/72 70/62/70 76/68/76
f 70/62/70 75/67/75 76/68/76
f 74/66/74 73/65/73 76/68/76
f 74/66/74 76/68/76 66/58/77
f 66/58/77 76/68/76 75/67/75
f 69/61/69 71/63/71 77/69/78
f 69/61/69 77/69/78 73/65/73
f 77/69/78 71/63/71 76/68/76
f 77/69/78 76/68/76 73/65/73
f 78/70/79 79/71/80 80/72/81
f 78/70/79 81/73/82 79/71/80
f 78/70/79 80/72/81 82/74/83
f 78/70/79 83/75/84 81/73/82
f 78/70/79 82/74/83 84/76/85
f 78/70/79 85/77/86 83/75/84
f 78/70/79 84/76/85 86/78/82
f 78/70/79 86/78/22 85/77/86
f 79/71/80 87/79/87 80/72/81
f 79/71/80 81/73/82 88/80/88
f 79/71/80 88/80/88 87/79/87
f 80/72/81 87/79/87 82/74/83
f 83/75/84 85/77/86 89/70/89
f 83/75/84 89/70/89 81/73/82
f 84/76/85 89/70/89 86/78/82
f 84/76/85 82/74/83 89/70/89
f 85/77/86 86/78/22 89/70/89
f 88/80/88 90/71/90 87/79/87
f 88/80/88 81/73/82 90/71/90
f 81/73/82 89/70/89 90/71/90
f 82/74/83 87/79/87 91/72/91
f 82/74/83 91/72/91 89/70/89
f 91/72/91 90/71/90 89/70/89
f 91/72/91 87/79/87 90/71/90
f 92/81/92 93/82/93 94/83/94
f 92/81/92 95/84/95 93/82/93
f 92/81/92 96/85/96 95/84/95
f 92/81/92 97/86/97 96/85/96
f 92/81/92 98/87/98 97/86/97
f 92/81/92 99/88/99 98/87/98
f 92/81/92 94/83/100 99/88/99
f 94/83/94 93/82/93 100/89/101
f 99/88/99 100/89/101 98/87/98
f 99/88/99 94/83/100 100/89/101
f 95/84/95 96/85/96 101/90/102
f 95/84/95 100/91/101 93/82/93
f 95/84/95 101/90/102 102/92/103
f 95/84/95 102/92/103 100/91/101
f 96/85/96 97/86/97 101/90/102
f 98/87/98 100/89/101 103/93/104
f 98/87/98 104/94/105 97/86/97
f 98/87/98 103/93/104 104/94/105
f 104/94/105 103/93/104 101/90/102
f 104/94/105 101/90/102 97/86/97
f 100/89/101 102/95/103 103/93/104
f 103/93/104 102/95/103 101/90/102
f 105/96/106 59/97/59 52/98/52
f 105/96/106 106/99/107 59/97/59
f 105/96/106 52/98/52 53/100/53
f 105/96/106 107/101/108 106/99/107
f 105/96/106 53/100/53 107/101/108
f 59/97/59 106/99/107 63/102/63
f 106/99/107 107/101/108 63/102/63
f 53/100/53 108/103/109 107/101/108
f 107/101/108 108/103/109 63/102/63
f 109/104/110 65/57/111 110/105/112
f 109/104/110 66/58/113 65/57/111
f 109/104/110 110/105/112 74/66/114
f 109/104/110 74/66/114 66/58/113
f 74/66/114 110/105/112 65/57/111
f 111/106/115 75/67/116 112/107/117
f 111/106/115 66/58/118 75/67/116
f 111/106/115 112/107/117 68/60/119
f 111/106/115 68/60/119 66/58/118
f 68/60/119 112/107/117 75/67/116
f 27/108/27 26/109/26 28/110/28
f 27/108/27 28/110/28 30/111/30
f 27/108/27 30/111/30 29/112/29
f 55/108/55 46/110/46 54/109/54
f 55/108/55 40/111/40 46/110/46
f 55/108/55 47/112/47 40/111/40
f 113/113/120 114/114/121 115/115/122
f 113/113/120 115/115/122 114/114/121
f 116/116/123 117/117/124 118/118/125
f 116/116/123 118/118/125 117/117/124
f 119/113/126 120/115/127 121/114/128
f 119/113/126 121/114/128 120/115/127
f 122/116/129 123/118/130 124/117/131
f 122/116/129 124/117/131 123/118/130
vt 1 0.864658
vt 0.422166 0.760064
vt 0.758766 0.997794
vt 0 0.81837
vt 0 0.975991
vt 0.946591 0.752778
o merged_1_0_node
g polygon_0
usemtl TEX_ANIM_EYE_mat_id
f 57/119/57 63/120/63 45/121/45
f 45/121/45 63/120/63 108/122/109
f 108/122/109 48/123/48 45/121/45
f 37/119/37 53/120/53 44/124/44
f 108/122/109 53/120/53 35/121/35
f 53/120/53 37/119/37 35/121/35
f 48/123/48 108/122/109 35/121/35
f 57/119/57 62/124/62 63/120/63
