mtllib Glalie_Normal.mtl
v 0 0.0571182 0.257218
vt 0.435623 0.908182
vn 0 -0.5699438 0.8216837
v -0.105701 0.00825574 0.0666642
vt 0.427784 0.904307
vn -0.3095271 -0.9143574 0.2610431
v 0.105701 0.00825574 0.0666642
vt 0.439543 0.903567
vn 0.3095271 -0.9143574 0.2610431
v -0.182903 0.127028 0.0946999
vt 0.419944 0.905787
vn -0.206184 -0.9642769 0.166308
v 0.182903 0.127028 0.0946999
vt 0.451302 0.905787
vn 0.206184 -0.9642769 0.166308
v -0.152822 0.0756488 0.243192
vt 0.424351 0.912974
vn -0.2942721 -0.9257973 0.2372831
v 0.152822 0.0756488 0.243192
vt 0.446895 0.912974
vn 0.2942718 -0.9257975 0.2372829
v -0.131153 0.157955 0.286745
vt 0.424351 0.91537
vn 0.1665059 -0.4962768 0.8520476
v 0.131153 0.157955 0.286745
vt 0.446895 0.91537
vn -0.1665059 -0.4962768 0.8520476
v 0 0.293734 0.161419
vt 0.435623 0.91537
vn 0 -0.6327253 0.7743763
v 0 0.00273778 -0.149893
vt 0.435623 0.905787
vn 0 -0.9453795 -0.3259718
v -0.162247 0.0154701 -0.047478
vn -0.4345469 -0.8890947 -0.143804
v 0.294209 0.0966352 0
vt 0.461246 0.908907
vn 0.84752 -0.528438 -0.0496309
v 0.162247 0.0154701 -0.047478
vn 0.4345469 -0.8890947 -0.143804
v -0.231185 0.117201 0.167091
vt 0.414795 0.912974
vn -0.5726299 -0.4166839 0.7060238
v -0.294209 0.0966352 0
vt 0.41 0.908907
vn -0.8475204 -0.5284373 -0.04963082
v 0 0.259085 0.366783
vt 0.435623 0.924482
vn 0 -0.9860641 -0.166366
v 0.231185 0.117201 0.167091
vt 0.456451 0.912974
vn 0.5726299 -0.4166839 0.7060238
v 0.132234 0.194544 0.164123
vt 0.452531 0.91537
vn 0.6504268 -0.5865619 0.4825869
v 0.31338 0.254193 0.220445
vt 0.460869 0.929038
vn 0.4198799 -0.04877899 0.9062679
v 0.140014 0.195665 0.300997
vt 0.459969 0.924482
vn 0.5363358 0.3886668 0.7491876
v 0.0485264 0.322604 0.369261
vt 0.448697 0.933595
vn 0.7242848 -0.126867 0.6777288
vn 0 -0.2806971 0.9597964
v 0.151496 0.113853 -0.256581
vt 0.458167 0.91537
vn 0.4410381 -0.5128422 -0.7365313
v -0.151496 0.113853 -0.256581
vt 0.413079 0.91537
vn -0.4410381 -0.5128422 -0.7365313
v 0 0.112035 -0.31496
vt 0.435623 0.921798
vn 0 -0.4715067 -0.8818625
v -0.132234 0.194544 0.164123
vt 0.418715 0.91537
vn -0.6504268 -0.5865619 0.4825869
v -0.301034 0.182145 0.137273
vt 0.408048 0.918182
vn -0.8159542 -0.5520891 0.171512
v -0.313379 0.254193 0.220445
vt 0.410377 0.929038
vn -0.4198799 -0.04877879 0.9062679
v 0.126095 0.376519 0.145626
vt 0.455233 0.933595
vn 0.4575371 -0.343309 0.8202431
v -0.0485264 0.322604 0.369261
vt 0.42255 0.933595
vn -0.7242849 -0.126866 0.6777289
v 0 0.365893 0.381239
vt 0.435623 0.933595
vn 0 0.9661217 0.2580869
v 0.301034 0.182145 0.137273
vt 0.463198 0.918182
vn 0.8159542 -0.5520891 0.171512
v 0 0.373956 -0.372071
vt 0.435623 0.941216
vn 0 0.05819551 -0.9983052
v -0.250892 0.196643 0
vt 0.40565 0.916148
vn -0.8784016 -0.4685128 -0.09437446
v -0.257271 0.189108 -0.246078
vt 0.40719 0.91938
vn -0.7314621 -0.4411591 -0.5199441
v -0.140014 0.195665 0.300997
vt 0.411278 0.924482
vn -0.5363361 0.3886671 0.7491872
v -0.383229 0.264363 0
vt 0.401301 0.92339
vn -0.9979649 -0.0637243 0.00229796
v -0.126095 0.376519 0.145626
vt 0.416013 0.933595
vn -0.4575371 -0.343309 0.8202431
v -0.323003 0.34193 0.165855
vt 0.405333 0.935414
vn -0.9542537 0.137323 0.2655979
v -0.255487 0.439396 0.270944
vt 0.411099 0.941137
vn 0.04025661 -0.8757992 0.4809941
vn -0.6733598 0.5057758 0.5392378
v 0.255487 0.439396 0.270944
vt 0.460148 0.941137
vn -0.04025671 -0.8757991 0.480994
v -0.107082 0.46313 0.314636
vt 0.412721 0.948678
vn 0.3819689 0.292345 0.8767179
v 0.107082 0.46313 0.314636
vt 0.458525 0.948678
vn -0.3819689 0.292345 0.8767179
v 0 0.313095 0.117615
vt 0.435623 0.941137
vn 0 0.5055358 0.8628057
v 0.250892 0.196643 0
vt 0.465596 0.916148
vn 0.8784015 -0.4685128 -0.09437454
v 0.257271 0.189108 -0.246078
vt 0.464056 0.91938
vn 0.7314618 -0.4411599 -0.5199439
v -0.107828 0.345362 -0.198144
vt 0.42255 0.932551
vn -0.2905509 -0.108152 -0.9507278
v 0.107828 0.345362 -0.198144
vt 0.448697 0.932551
vn 0.2905509 -0.108152 -0.9507278
v -0.232937 0.485439 -0.284349
vn -0.403666 0.161554 -0.9005299
v 0.232937 0.485439 -0.284349
vn 0.403666 0.161553 -0.90053
v 0 0.461384 -0.273755
vt 0.435623 0.949399
vn 0 0.4163831 -0.9091893
v -0.278896 0.329126 0
vt 0.400795 0.93259
vn -0.9889806 0.117925 -0.08950486
v -0.365632 0.461569 0
vt 0.403701 0.949506
vn -0.922925 0.384966 0.00327032
v -0.27884 0.354148 -0.264902
vt 0.407179 0.935643
vn -0.7686858 -0.0142915 -0.6394668
vn -0.8975552 -0.163982 -0.4092731
v 0.383229 0.264363 0
vt 0.469945 0.92339
vn 0.9979649 -0.06372459 0.00229803
v 0.323003 0.34193 0.165855
vt 0.465913 0.935414
vn 0.9542539 0.137322 0.265598
vn 0.6733598 0.5057758 0.5392378
v 0 0.584255 0.283872
vt 0.435623 0.948678
vn 0 -0.5227048 0.8525137
v 0 0.614819 -0.267121
vt 0.435623 0.957582
vn 0 0.637012 -0.7708539
v 0.27884 0.354148 -0.264902
vt 0.464067 0.935643
vn 0.7686858 -0.0142916 -0.6394668
v -0.151439 0.65666 0.145445
vt 0.420988 0.964971
vn -0.4817159 0.8327848 0.2727989
vn 0 0.6608813 0.7504904
v 0.278896 0.329126 0
vt 0.470451 0.93259
vn 0.9889807 0.117924 -0.08950488
v 0.365632 0.461569 0
vt 0.467545 0.949506
vn 0.922925 0.384966 0.00327025
v -0.151439 0.65666 -0.151395
vt 0.420626 0.965931
vn -0.4551221 0.8582762 -0.23712
vn 0.8975549 -0.163982 -0.409274
vn -0.7495507 0.5899268 -0.3002669
v 0.151439 0.65666 0.145445
vt 0.450258 0.964971
vn 0.4817159 0.8327848 0.2727989
v 0 0.648986 0.19182
vt 0.435623 0.964971
vn 0 0.9841288 0.177456
v 0.151439 0.65666 -0.151395
vt 0.45062 0.965931
vn 0.4551222 0.8582764 -0.2371191
v 0 0.62874 -0.0802751
vt 0.435623 0.967677
vn 0 0.9993778 -0.03527239
vn 0.7495507 0.5899268 -0.3002669
v -0.345443 0.264798 0
vt 0.277713 0.920908
vn -0.9820461 -0.157603 -0.103667
v -0.290766 0.185344 0.137272
vt 0.288238 0.91097
vn -0.9318734 -0.3068191 0.1935821
v -0.314634 0.341946 0.169133
vt 0.281758 0.937057
vn -0.9779285 -0.05271447 0.2021809
v -0.271255 0.109628 0
vt 0.287536 0.904556
vn -0.89573 -0.428254 -0.119442
v -0.331246 0.435789 0
vt 0.276571 0.941684
vn -0.9893655 0.08214496 -0.1200339
v -0.252423 0.189852 -0.21142
vt 0.287129 0.92139
vn -0.9171287 -0.2394999 -0.3186139
v -0.272555 0.35684 -0.221972
vt 0.283245 0.930927
vn -0.9419682 -0.05336131 -0.3314341
v 0.345443 0.264798 0
vt 0.355221 0.920908
vn 0.9820459 -0.157603 -0.103668
v 0.331246 0.435789 0
vt 0.356363 0.941684
vn 0.9893655 0.08214524 -0.1200341
v 0.314634 0.341946 0.169133
vt 0.351177 0.937057
vn 0.9779284 -0.05271462 0.2021811
v 0.272555 0.35684 -0.221972
vt 0.349689 0.930927
vn 0.9419679 -0.05336119 -0.331435
v 0.290766 0.185344 0.137272
vt 0.344696 0.91097
vn 0.9318734 -0.3068191 0.1935821
v 0.252423 0.189852 -0.21142
vt 0.345806 0.92139
vn 0.9171287 -0.2394999 -0.3186139
v 0.271255 0.109628 0
vt 0.345398 0.904556
vn 0.89573 -0.428254 -0.119442
v 0 0.673746 0
vt 0.316467 0.972843
vn 0 0.9998208 0.0189319
v 0.0831475 0.638851 0.0965783
vt 0.332992 0.967859
vn 0.259825 0.957867 0.1224
v 0.102799 0.63244 -0.165563
vn 0.2338219 0.9628407 -0.135148
v 0 0.63244 0.193436
vt 0.316467 0.967859
vn 0 0.9779522 0.208829
v 0 0.647746 -0.158501
vt 0.316467 0.970914
vn 0 0.9687352 -0.248097
v -0.0831475 0.638851 0.0965783
vt 0.299943 0.967859
vn -0.259825 0.957867 0.1224
v -0.102799 0.63244 -0.165563
vn -0.2338219 0.9628407 -0.135148
v 0 0.616418 -0.215075
vt 0.316467 0.968985
vn 0 0.8748268 -0.4844359
v 0 0.37012 -0.342705
vt 0.316467 0.941036
vn 0 0.07004499 -0.9975439
v 0.206048 0.47142 -0.251456
vt 0.344158 0.940947
vn 0.3601701 0.102629 -0.9272243
v 0.14577 0.136884 -0.24528
vt 0.341922 0.911852
vn 0.442184 -0.0961389 -0.891757
v 0 0.606246 -0.254751
vt 0.316467 0.959515
vn 0 0.3490601 -0.9371004
v -0.206048 0.47142 -0.251456
vt 0.288776 0.940947
vn -0.3601701 0.102629 -0.9272243
v -0.14577 0.136884 -0.24528
vt 0.291013 0.911852
vn -0.442184 -0.0961389 -0.891757
v 0 0.275732 0.365001
vt 0.301023 0.920008
vn 0 -0.02479379 0.9996926
v -0.311609 0.255593 0.192927
vt 0.335086 0.917806
vn -0.4904639 -0.151725 0.8581519
v -0.121629 0.173985 0.267662
vt 0.314318 0.908885
vn -0.384816 -0.405982 0.8289121
v 0.121629 0.173985 0.267662
vn 0.384816 -0.405982 0.8289121
v 0.311609 0.255593 0.192927
vn 0.4904639 -0.151725 0.8581519
v 0 0.56785 0.270348
vt 0.301023 0.95194
vn 0 0.3082471 0.9513063
v -0.211142 0.47142 0.254022
vt 0.324104 0.941399
vn -0.37301 0.119351 0.920119
v 0.211142 0.47142 0.254022
vn 0.37301 0.119351 0.920119
v -0.212525 0.111896 0.159289
vt 0.324255 0.902098
vn -0.4952541 -0.5066871 0.7056852
v 0.212525 0.111896 0.159289
vn 0.4952541 -0.5066871 0.7056852
v 0.265897 0.584646 -0.1
vt 1.0119 0.00694749
vn -0.681513 -0.731806 0
v 0.265897 0.584646 0.1
vt 0.754669 0.00694749
v 0.192717 0.6527981 0
vt 0.626054 0.00694749
v 0.339078 0.516495 0
vt 0.883285 0.00694749
v -0.265897 0.584646 0.1
vn 0.681513 -0.731806 0
v -0.265897 0.584646 -0.1
v -0.192717 0.6527981 0
v -0.339078 0.516495 0
v 0 0.061934 0.226828
vt 0.00800651 0.0605516
vn 0 -0.5427902 0.8398683
vt 0.00800651 0.939448
vt 0.508006 0.52118
v -0.153117 0.0283212 -0.0406788
vt 0.303702 0.900451
vn -0.4965366 -0.8351314 0.2366578
v -0.136973 0.0933218 0.222571
vt 0.307615 0.904957
vn -0.2788891 -0.9282032 0.246292
v -0.270528 0.116642 -0.0122023
vt 0.295363 0.902376
vn -0.5481749 -0.8035358 0.2320229
v -0.0577795 0.0824676 0.198336
vt 0.307615 0.902159
vn -0.05845368 -0.9683425 0.2426849
v 0.153117 0.0283212 -0.0406788
vt 0.328126 0.900242
vn 0.4965371 -0.8351311 0.236658
v 0.270528 0.116642 -0.0122023
vt 0.333658 0.901287
vn 0.5481753 -0.8035354 0.2320231
v 0.136973 0.0933218 0.222571
vt 0.325319 0.904957
vn 0.2788891 -0.9282032 0.246292
v 0.0577795 0.0824676 0.198336
vt 0.325319 0.902159
vn 0.05845368 -0.9683425 0.2426849
vn -0.416702 0.9090431 0
v 0.431151 0.762095 0
vt 0.566867 0.839633
vn 0.681513 0.731806 0
vt 0.497439 0.00694749
vn 0.2598309 0.2790049 -0.9244697
vn 0.2598309 0.2790049 0.9244697
vt 0.695546 0.839633
vn 0.9363634 -0.3510322 0
vt 0.820747 0.839633
vt 0.945948 0.839633
vn 0.416702 0.9090431 0
vn -0.2598309 0.2790058 -0.9244694
v -0.431151 0.762095 0
vn -0.681513 0.731806 0
vn -0.2598309 0.2790058 0.9244694
vn -0.9363634 -0.3510322 0
o merged_0_0_node
g polygon_0
usemtl mat_body_mat_id
f 1/1/1 2/2/2 3/3/3
f 1/1/1 4/4/4 2/2/2
f 1/1/1 3/3/3 5/5/5
f 1/1/1 6/6/6 4/4/4
f 1/1/1 5/5/5 7/7/7
f 1/1/1 8/8/8 6/6/6
f 1/1/1 7/7/7 9/9/9
f 1/1/1 10/10/10 8/8/8
f 1/1/1 9/9/9 10/10/10
f 2/2/2 11/11/11 3/3/3
f 2/2/2 4/4/4 12/4/12
f 2/2/2 12/4/12 11/11/11
f 5/5/5 13/12/13 7/7/7
f 5/5/5 3/3/3 14/5/14
f 5/5/5 14/5/14 13/12/13
f 3/3/3 11/11/11 14/5/14
f 6/6/6 8/8/8 15/13/15
f 6/6/6 16/14/16 4/4/4
f 6/6/6 15/13/15 16/14/16
f 4/4/4 16/14/16 12/4/12
f 9/9/9 17/15/17 10/10/10
f 9/9/9 7/7/7 18/16/18
f 9/9/9 18/16/18 19/17/19
f 9/9/9 19/17/19 20/18/20
f 9/9/9 20/18/20 21/19/21
f 9/9/9 21/19/21 22/20/22
f 9/9/9 22/20/22 17/15/23
f 19/17/19 18/16/18 20/18/20
f 7/7/7 13/12/13 18/16/18
f 10/10/10 17/15/17 8/8/8
f 11/11/11 23/21/24 14/5/14
f 11/11/11 12/4/12 24/22/25
f 11/11/11 25/23/26 23/21/24
f 11/11/11 24/22/25 25/23/26
f 12/4/12 16/14/16 24/22/25
f 14/5/14 23/21/24 13/12/13
f 15/13/15 8/8/8 26/24/27
f 15/13/15 27/25/28 16/14/16
f 15/13/15 26/24/27 28/26/29
f 15/13/15 28/26/29 27/25/28
f 26/24/27 8/8/8 28/26/29
f 21/19/21 29/27/30 22/20/22
f 21/19/21 20/18/20 29/27/30
f 17/15/23 30/28/31 8/8/8
f 17/15/23 22/20/22 31/29/32
f 17/15/23 31/29/32 30/28/31
f 18/16/18 13/12/13 32/30/33
f 18/16/18 32/30/33 20/18/20
f 25/23/26 24/22/25 33/31/34
f 25/23/26 33/31/34 23/21/24
f 16/14/16 27/25/28 34/32/35
f 16/14/16 35/33/36 24/22/25
f 16/14/16 34/32/35 35/33/36
f 28/26/29 8/8/8 36/34/37
f 28/26/29 37/35/38 27/25/28
f 28/26/29 36/34/37 38/36/39
f 28/26/29 39/37/40 37/35/38
f 28/26/29 38/36/39 40/38/41
f 28/26/29 40/38/42 39/37/40
f 38/36/39 36/34/37 30/28/31
f 38/36/39 30/28/31 40/38/41
f 34/32/35 37/35/38 35/33/36
f 34/32/35 27/25/28 37/35/38
f 36/34/37 8/8/8 30/28/31
f 29/27/30 41/39/43 22/20/22
f 29/27/30 20/18/20 41/39/43
f 31/29/32 42/40/44 30/28/31
f 31/29/32 22/20/22 43/41/45
f 31/29/32 44/42/46 42/40/44
f 31/29/32 43/41/45 44/42/46
f 30/28/31 42/40/44 40/38/42
f 13/12/13 45/43/47 32/30/33
f 13/12/13 23/21/24 46/44/48
f 13/12/13 46/44/48 45/43/47
f 33/31/34 24/22/25 47/45/49
f 33/31/34 48/46/50 23/21/24
f 33/31/34 47/45/49 49/40/51
f 33/31/34 50/41/52 48/46/50
f 33/31/34 49/40/51 51/47/53
f 33/31/34 51/47/53 50/41/52
f 48/46/50 50/41/52 23/21/24
f 47/45/49 24/22/25 49/40/51
f 39/37/40 52/48/54 37/35/38
f 39/37/40 40/38/42 53/49/55
f 39/37/40 53/49/55 52/48/54
f 35/33/36 54/50/56 24/22/25
f 35/33/36 37/35/57 54/50/56
f 54/50/56 49/40/51 24/22/25
f 54/50/56 37/35/38 52/48/54
f 54/50/56 52/48/54 53/49/55
f 54/50/56 53/49/55 49/40/51
f 20/18/20 32/30/33 55/51/58
f 20/18/20 55/51/58 56/52/59
f 20/18/20 56/52/59 41/39/60
f 45/43/47 46/44/48 55/51/58
f 45/43/47 55/51/58 32/30/33
f 22/20/22 41/39/60 43/41/45
f 44/42/46 57/53/61 42/40/44
f 44/42/46 43/41/45 57/53/61
f 51/47/53 58/54/62 50/41/52
f 51/47/53 49/40/51 58/54/62
f 23/21/24 59/55/63 46/44/48
f 23/21/24 50/41/52 59/55/63
f 40/38/42 60/56/64 53/49/55
f 40/38/42 42/40/44 57/53/65
f 40/38/42 57/53/65 60/56/64
f 43/41/45 41/39/60 57/53/65
f 56/52/59 55/51/58 61/57/66
f 56/52/59 62/58/67 41/39/60
f 56/52/59 61/57/66 62/58/67
f 61/57/66 59/55/63 62/58/67
f 61/57/66 55/51/58 59/55/63
f 49/40/51 63/59/68 58/54/62
f 46/44/48 59/55/63 55/51/69
f 59/55/63 50/41/52 62/58/67
f 53/49/55 60/56/64 63/59/68
f 53/49/55 63/59/68 49/40/70
f 57/53/65 41/39/60 64/60/71
f 57/53/65 65/61/72 60/56/64
f 57/53/65 64/60/71 65/61/72
f 41/39/60 62/58/67 64/60/71
f 58/54/62 66/62/73 50/41/52
f 58/54/62 63/59/68 67/63/74
f 58/54/62 67/63/74 66/62/73
f 67/63/74 60/56/64 65/61/72
f 67/63/74 64/60/71 66/62/73
f 67/63/74 63/59/68 60/56/64
f 67/63/74 65/61/72 64/60/71
f 64/60/71 62/58/67 66/62/73
f 62/58/67 50/41/75 66/62/73
f 68/64/76 69/65/77 70/66/78
f 68/64/76 71/67/79 69/65/77
f 68/64/76 70/66/78 72/68/80
f 68/64/76 73/69/81 71/67/79
f 68/64/76 72/68/80 74/70/82
f 68/64/76 74/70/82 73/69/81
f 75/71/83 76/72/84 77/73/85
f 75/71/83 78/74/86 76/72/84
f 75/71/83 77/73/85 79/75/87
f 75/71/83 80/76/88 78/74/86
f 75/71/83 79/75/87 81/77/89
f 75/71/83 81/77/89 80/76/88
f 82/78/90 83/79/91 84/79/92
f 82/78/90 85/80/93 83/79/91
f 82/78/90 84/79/92 86/81/94
f 82/78/90 87/82/95 85/80/93
f 82/78/90 86/81/94 88/82/96
f 82/78/90 88/82/96 87/82/95
f 84/79/92 89/83/97 86/81/94
f 86/81/94 89/83/97 88/82/96
f 90/84/98 91/85/99 92/86/100
f 90/84/98 93/87/101 91/85/99
f 90/84/98 94/88/102 93/87/101
f 90/84/98 95/89/103 94/88/102
f 96/90/104 97/91/105 98/92/106
f 96/90/104 99/92/107 100/91/108
f 96/90/104 101/93/109 102/94/110
f 96/90/104 103/94/111 101/93/109
f 97/91/105 104/95/112 98/92/106
f 99/92/107 105/95/113 100/91/108
f 106/96/114 107/97/114 108/98/114
f 106/96/114 109/99/114 107/97/114
f 110/97/115 111/96/115 112/98/115
f 110/97/115 113/99/115 111/96/115
f 114/100/116 96/101/104 98/102/106
f 114/100/116 99/102/107 96/101/104
f 115/103/117 116/104/118 117/105/119
f 115/103/117 118/106/120 116/104/118
f 119/107/121 120/108/122 121/109/123
f 119/107/121 121/109/123 122/110/124
f 108/98/125 123/111/126 106/112/127
f 108/98/125 107/97/128 123/113/126
f 107/97/128 109/99/129 123/114/126
f 109/99/129 106/96/127 123/115/126
f 112/98/130 111/112/131 124/111/132
f 112/98/130 124/113/132 110/97/133
f 110/97/133 124/114/132 113/99/134
f 113/99/134 124/115/132 111/96/131
vt 1.37234 0.733991
vt -0.408527 0.75977
vt 0.801797 1.01026
o merged_1_0_node
g polygon_0
usemtl TEX_ANIM_EYE_mat_id
f 97/116/105 96/117/104 102/118/110
f 100/116/108 103/118/111 96/117/104
