mtllib Sunkern.mtl
v 0.110144 0.354842 -0.041612
vt 0.171212 -0.124311
vn 0.400895 0.7652541 -0.5036561
v 0.166373 0.307887 -0.000499647
vt 0.00336438 -0.0397623
vn 0.9627025 0.2704649 -0.007266996
v 0.150262 0.269249 -0.0540156
vt 0.051457 0.0298095
vn 0.8122939 0.216429 -0.541606
v 0.187793 0.382728 -0.000723217
vt -0.0605776 -0.174523
vn 0.9808267 0.193744 0.0210302
v 0.10497 0.269249 -0.108031
vt 0.186657 0.0298091
vn 0.4172052 0.2015721 -0.8861763
v 0.109881 0.354922 -0.000986485
vt 0.171995 -0.124455
vn -0.3177091 0.9479185 0.02261711
v 0.0523495 0.351905 -0.0867281
vt 0.343733 -0.119021
vn 0.360917 0.3995619 -0.8426679
v 0.0549407 0.336074 -0.000986485
vt 0.335998 -0.0905169
vn -0.2006089 0.9794096 0.02264559
v 0.103974 0.421909 -0.0738095
vt 0.189629 -0.24507
vn 0.794625 0.199763 -0.573294
v 0.0536451 0.337824 -0.0535762
vt 0.339865 -0.093668
vn -0.194359 0.8304942 0.5220191
v 0.123433 0.169631 -0.108299
vt 0.131545 0.209181
vn 0.5199279 0.0196602 -0.8539839
v 0.16748 0.169624 -0.0542983
vt 5.90086E-05 0.209193
vn 0.8524392 0.05683431 -0.5197281
v 0 0.339117 -0.0567342
vt 0.5 -0.0959956
vn 0.000141018 0.7553879 0.6552779
v 0 0.319977 -0.104576
vt 0.5 -0.0615321
vn 0 0.20158 -0.979472
v 0.0369039 0.425003 -0.0793915
vt 0.389839 -0.250642
vn 0.005533298 0.9811836 0.1929979
v 0 0.354999 -0.093044
vt 0.5 -0.124593
vn 0 0.5342149 -0.8453488
v 0.125506 0.0869835 -0.0997268
vt 0.125356 0.357996
vn 0.5059196 -0.2947458 -0.8106604
v 0.164576 0.0869781 -0.0498634
vt 0.00872922 0.358006
vn 0.8215877 -0.2711839 -0.5014508
v 0 0.170006 -0.126385
vt 0.5 0.208506
vn 0 0.01968481 -0.9998062
v -0.0369039 0.425003 -0.0793915
vt 0.610161 -0.250642
vn -0.005533378 0.9811836 0.1929979
v -0.0523495 0.351905 -0.0867281
vt 0.656267 -0.119021
vn -0.3762249 0.3980749 -0.8366548
v 0.115516 0.0219462 -0.0322111
vt 0.155176 0.475102
vn 0.498639 -0.8019821 -0.328913
v 0.126081 0.021948 0
vt 0.123638 0.475099
vn 0.5083929 -0.8610398 -0.01213
v 0 0.0869652 -0.119222
vt 0.5 0.358029
vn 0 -0.2574061 -0.9663033
v -0.0536451 0.337824 -0.0535762
vt 0.660135 -0.093668
vn 0.1863461 0.8232325 0.5362493
v -0.0584049 0.336074 -0.000986485
vt 0.674343 -0.0905169
vn 0.206558 0.9783188 0.0150403
v -0.10497 0.269249 -0.108031
vt 0.813343 0.029809
vn -0.4184739 0.205379 -0.8847028
v 0 -0.00067457 0
vt 0.5 0.515833
vn -5.17061E-05 -0.998233 -0.0594209
v 0 0.0219446 -0.0867645
vt 0.5 0.475105
vn 0 -0.7528431 -0.6582001
v 0.0908585 0.0219446 -0.0613518
vt 0.228781 0.475105
vn 0.3375079 -0.7803009 -0.526516
v -0.105906 0.352248 -0.041612
vt 0.816137 -0.11964
vn -0.410716 0.760941 -0.502276
v -0.109882 0.35511 -0.000986485
vt 0.828004 -0.124792
vn 0.3233079 0.9462757 0.005871028
v -0.123433 0.169631 -0.108299
vt 0.868455 0.209181
vn -0.5199279 0.0196601 -0.8539839
v -0.103974 0.421909 -0.0738095
vt 0.810371 -0.24507
vn -0.7941791 0.120533 -0.5956101
v -0.0908585 0.0219446 -0.0613518
vt 0.771219 0.475105
vn -0.3389301 -0.7819973 -0.5230742
v -0.125506 0.0869835 -0.0997268
vt 0.874644 0.357996
vn -0.5068729 -0.2965479 -0.8094068
v -0.187793 0.382728 -0.000723217
vt 1.06058 -0.174523
vn -0.9836646 0.1785599 -0.02280999
v -0.150262 0.269249 -0.0540156
vt 0.948543 0.0298095
vn -0.809053 0.227142 -0.54207
v -0.116462 0.0219463 -0.0306759
vt 0.847648 0.475102
vn -0.499732 -0.801586 -0.328219
v -0.126081 0.021948 0
vt 0.876361 0.475099
vn -0.5094398 -0.8604747 -0.007375447
v -0.166373 0.307887 0
vt 0.996635 -0.0397624
vn -0.9593182 0.279889 -0.03702251
v -0.16748 0.169624 -0.0542983
vt 0.999941 0.209193
vn -0.8524392 0.05683431 -0.5197281
v -0.164576 0.0869781 -0.0498634
vt 0.991271 0.358006
vn -0.8207226 -0.2734229 -0.5016518
v -0.105995 0.352191 0.0366551
vt 0.183598 1.06598
vn -0.4385992 0.7829474 0.4411622
v -0.16371 0.269248 0.0472763
vt 0.0113127 0.921073
vn -0.8604931 0.241821 0.448413
v -0.125962 0.269294 0.100213
vt 0.123995 0.921153
vn -0.6202167 0.2271689 0.7508166
vt 0.00336456 0.988576
v -0.0523495 0.348171 0.101362
vt 0.343733 1.05895
vn -0.3901162 0.4488272 0.8039674
vt -0.0605775 1.11933
v -0.103974 0.419722 0.0781246
vt 0.189629 1.18396
vn -0.7607609 0.25589 0.5964589
vt 0.171996 1.07108
v -0.0536451 0.335957 0.0501878
vt 0.339865 1.03762
vn 0.215377 0.8584511 -0.4654831
vt 0.325657 1.03782
v -0.140268 0.169486 0.102884
vt 0.0812894 0.746783
vn -0.6162784 0.03504292 0.7867484
v -0.174771 0.169552 0.0512933
vt -0.0217031 0.746898
vn -0.9056063 0.05470822 0.4205762
v 0 0.335703 0.0529688
vt 0.5 1.03717
vn 2.09591E-05 0.8368129 -0.547489
v -0.0658684 0.269248 0.129502
vt 0.303378 0.921072
vn -0.2912829 0.1660779 0.9421106
v -0.0369039 0.419722 0.0920915
vt 0.389839 1.18396
vn 0.0141972 0.9963953 -0.08363552
v 0 0.269248 0.143514
vt 0.5 0.921072
vn 0 0.1839019 0.9829446
v 0 0.348171 0.106924
vt 0.5 1.05895
vn 0 0.484152 0.874984
v -0.141832 0.0869799 0.100243
vt 0.0766197 0.60264
vn -0.5778599 -0.322903 0.7495409
v -0.171347 0.0869763 0.0501217
vt -0.0114829 0.602634
vn -0.8614691 -0.3024651 0.4079041
v -0.0675588 0.169486 0.132549
vt 0.298332 0.746783
vn -0.2990731 0.001847091 0.9542284
v 0.0523495 0.348171 0.101362
vt 0.656267 1.05895
vn 0.3885718 0.4480578 0.8051436
v 0 0.169486 0.146239
vt 0.5 0.746783
vn 0 -0.00970405 0.999953
v 0.0658685 0.269248 0.129502
vt 0.696622 0.921072
vn 0.290901 0.16607 0.94223
v 0.0369039 0.419722 0.0920915
vt 0.610161 1.18396
vn -0.0141971 0.9963953 -0.08363493
v 0.0536451 0.335957 0.0501878
vt 0.660135 1.03762
vn -0.212354 0.864862 -0.454884
vt 0.664002 1.03782
v -0.115309 0.0219463 0.0306759
vt 0.155794 0.489023
vn -0.4822682 -0.8298593 0.2806261
vt 0.123639 0.489026
v -0.0653194 0.0869799 0.128465
vt 0.305017 0.60264
vn -0.2678601 -0.3225031 0.9078782
v 0.125962 0.269294 0.100275
vt 0.876005 0.921153
vn 0.615905 0.225028 0.754999
v 0.0675588 0.169486 0.132549
vt 0.701668 0.746783
vn 0.298746 0.0017367 0.9543311
v 0.105995 0.351361 0.037298
vt 0.816402 1.06453
vn 0.4385109 0.7836608 0.4399819
vt 0.828004 1.07075
vt 0.5 0.449503
v -0.0908585 0.0219447 0.0613518
vt 0.228781 0.48902
vn -0.3608191 -0.7792181 0.5124731
v 0.103974 0.419722 0.0781246
vt 0.810371 1.18396
vn 0.7545731 0.268407 0.5988131
v 0.0653194 0.0869799 0.128465
vt 0.694983 0.60264
vn 0.2677251 -0.3226231 0.9078753
v 0 0.0869799 0.141035
vt 0.5 0.60264
vn 0 -0.3187161 0.9478502
vt 1.06058 1.11933
v -0.0454293 0.0219447 0.0821421
vt 0.36439 0.48902
vn -0.178313 -0.7528071 0.6336291
v 0 0.0219447 0.0867645
vt 0.5 0.48902
vn 0 -0.752621 0.658454
v 0.0454293 0.0219447 0.0821421
vt 0.63561 0.48902
vn 0.178313 -0.7528071 0.6336291
v 0.0908585 0.0219447 0.0613518
vt 0.771219 0.48902
vn 0.3608191 -0.7792181 0.5124731
v 0.115309 0.0219463 0.0306759
vt 0.844206 0.489023
vn 0.4822682 -0.8298593 0.2806261
vt 0.876362 0.489026
v 0.140268 0.169486 0.102952
vt 0.918711 0.746783
vn 0.613766 0.0335219 0.788776
v 0.162368 0.269248 0.0501253
vt 0.984681 0.921072
vn 0.859109 0.242549 0.450668
vt 0.996636 0.988576
v 0.171347 0.0869763 0.0501217
vt 1.01148 0.602634
vn 0.861494 -0.30254 0.407796
v 0.141832 0.0869799 0.100243
vt 0.92338 0.60264
vn 0.5778202 -0.3231102 0.7494823
v 0.174771 0.169552 0.0513276
vt 1.0217 0.746898
vn 0.9065016 0.05454037 0.4186648
o merged_0_0_node
g polygon_0
usemtl mat_body1_mat_id
f 1/1/1 2/2/2 3/3/3
f 1/1/1 4/4/4 2/2/2
f 1/1/1 3/3/3 5/5/5
f 1/1/1 6/6/6 4/4/4
f 1/1/1 5/5/5 7/7/7
f 1/1/1 8/8/8 6/6/6
f 1/1/1 7/7/7 9/9/9
f 1/1/1 10/10/10 8/8/8
f 1/1/1 9/9/9 10/10/10
f 9/9/9 7/7/7 10/10/10
f 3/3/3 11/11/11 5/5/5
f 3/3/3 12/12/12 11/11/11
f 8/8/8 10/10/10 13/13/13
f 7/7/7 5/5/5 14/14/14
f 7/7/7 15/15/15 10/10/10
f 7/7/7 14/14/14 16/16/16
f 7/7/7 16/16/16 15/15/15
f 15/15/15 16/16/16 13/13/13
f 15/15/15 13/13/13 10/10/10
f 12/12/12 17/17/17 11/11/11
f 12/12/12 18/18/18 17/17/17
f 5/5/5 19/19/19 14/14/14
f 5/5/5 11/11/11 19/19/19
f 16/16/16 20/20/20 13/13/13
f 16/16/16 14/14/14 21/21/21
f 16/16/16 21/21/21 20/20/20
f 18/18/18 22/22/22 17/17/17
f 18/18/18 23/23/23 22/22/22
f 11/11/11 24/24/24 19/19/19
f 11/11/11 17/17/17 24/24/24
f 13/13/13 20/20/20 25/25/25
f 13/13/13 25/25/25 26/26/26
f 20/20/20 21/21/21 25/25/25
f 14/14/14 19/19/19 27/27/27
f 14/14/14 27/27/27 21/21/21
f 23/23/23 28/28/28 22/22/22
f 17/17/17 29/29/29 24/24/24
f 17/17/17 22/22/22 30/30/30
f 17/17/17 30/30/30 29/29/29
f 30/30/30 28/28/28 29/29/29
f 30/30/30 22/22/22 28/28/28
f 26/26/26 25/25/25 31/31/31
f 26/26/26 31/31/31 32/32/32
f 19/19/19 33/33/33 27/27/27
f 19/19/19 24/24/24 33/33/33
f 21/21/21 34/34/34 25/25/25
f 21/21/21 27/27/27 31/31/31
f 21/21/21 31/31/31 34/34/34
f 34/34/34 31/31/31 25/25/25
f 29/29/29 28/28/28 35/35/35
f 29/29/29 36/36/36 24/24/24
f 29/29/29 35/35/35 36/36/36
f 24/24/24 36/36/36 33/33/33
f 32/32/32 31/31/31 37/37/37
f 27/27/27 33/33/33 38/38/38
f 27/27/27 38/38/38 31/31/31
f 28/28/28 39/39/39 35/35/35
f 28/28/28 40/40/40 39/39/39
f 35/35/35 39/39/39 36/36/36
f 37/37/37 31/31/31 41/41/41
f 41/41/41 31/31/31 38/38/38
f 33/33/33 36/36/36 42/42/42
f 33/33/33 42/42/42 38/38/38
f 40/40/40 43/43/43 39/39/39
f 43/43/43 36/36/36 39/39/39
f 43/43/43 42/42/42 36/36/36
f 44/44/44 45/45/45 46/46/46
f 44/44/44 41/47/41 45/45/45
f 44/44/44 46/46/46 47/48/47
f 44/44/44 37/49/37 41/47/41
f 44/44/44 47/48/47 48/50/48
f 44/44/44 32/51/32 37/49/37
f 44/44/44 48/50/48 49/52/49
f 44/44/44 26/53/26 32/51/32
f 44/44/44 49/52/49 26/53/26
f 48/50/48 47/48/47 49/52/49
f 45/45/45 50/54/50 46/46/46
f 45/45/45 51/55/51 50/54/50
f 26/53/26 49/52/49 52/56/52
f 47/48/47 46/46/46 53/57/53
f 47/48/47 54/58/54 49/52/49
f 47/48/47 53/57/53 55/59/55
f 47/48/47 56/60/56 54/58/54
f 47/48/47 55/59/55 56/60/56
f 54/58/54 56/60/56 52/56/52
f 54/58/54 52/56/52 49/52/49
f 51/55/51 57/61/57 50/54/50
f 51/55/51 58/62/58 57/61/57
f 46/46/46 59/63/59 53/57/53
f 46/46/46 50/54/50 59/63/59
f 55/59/55 60/64/60 56/60/56
f 55/59/55 53/57/53 61/65/61
f 55/59/55 62/66/62 60/64/60
f 55/59/55 61/65/61 62/66/62
f 53/57/53 59/63/59 61/65/61
f 52/56/52 56/60/56 63/67/63
f 52/56/52 63/67/63 64/68/64
f 52/56/52 64/68/64 8/69/8
f 63/67/63 56/60/56 60/64/60
f 63/67/63 60/64/60 64/68/64
f 58/62/58 65/70/65 57/61/57
f 58/62/58 40/71/40 65/70/65
f 50/54/50 66/72/66 59/63/59
f 50/54/50 57/61/57 66/72/66
f 59/63/59 66/72/66 61/65/61
f 62/66/62 67/73/67 60/64/60
f 62/66/62 61/65/61 68/74/68
f 62/66/62 68/74/68 67/73/67
f 8/69/8 64/68/64 69/75/69
f 8/69/8 69/75/69 6/76/6
f 40/71/40 28/77/28 65/70/65
f 57/61/57 70/78/70 66/72/66
f 57/61/57 65/70/65 70/78/70
f 65/70/65 28/77/28 70/78/70
f 60/64/60 67/73/67 69/75/69
f 60/64/60 71/79/71 64/68/64
f 60/64/60 69/75/69 71/79/71
f 71/79/71 69/75/69 64/68/64
f 61/65/61 72/80/72 68/74/68
f 61/65/61 66/72/66 73/81/73
f 61/65/61 73/81/73 72/80/72
f 6/76/6 69/75/69 4/82/4
f 28/77/28 74/83/74 70/78/70
f 28/77/28 75/84/75 74/83/74
f 28/77/28 76/85/76 75/84/75
f 28/77/28 77/86/77 76/85/76
f 28/77/28 78/87/78 77/86/77
f 28/77/28 23/88/23 78/87/78
f 73/81/73 66/72/66 74/83/74
f 73/81/73 76/85/76 72/80/72
f 73/81/73 74/83/74 75/84/75
f 73/81/73 75/84/75 76/85/76
f 76/85/76 77/86/77 72/80/72
f 74/83/74 66/72/66 70/78/70
f 67/73/67 68/74/68 79/89/79
f 67/73/67 80/90/80 69/75/69
f 67/73/67 79/89/79 80/90/80
f 68/74/68 72/80/72 79/89/79
f 4/82/4 69/75/69 2/91/2
f 2/91/2 69/75/69 80/90/80
f 23/88/23 81/92/81 78/87/78
f 77/86/77 82/93/82 72/80/72
f 77/86/77 78/87/78 82/93/82
f 78/87/78 81/92/81 82/93/82
f 72/80/72 82/93/82 79/89/79
f 80/90/80 79/89/79 83/94/83
f 83/94/83 82/93/82 81/92/81
f 83/94/83 79/89/79 82/93/82
v 0.188541 0.169618 -0.000297356
vt 0.438299 0.516442
vn 0.9950802 0.05744971 -0.08071462
vt -2.24289 0.516212
v 0.185071 0.0869727 0
vt 0.422856 0.227413
vn 0.9662095 -0.2498319 -0.06342867
vt -2.18026 0.227425
v 0.17493 0.269248 0
vt 0.422856 0.864873
vn 0.9836307 0.1531819 -0.09489986
vt -2.18045 0.864872
vt 0.448805 1
vt -2.03248 0.864872
v -0.17493 0.269248 0
vn -0.9828629 0.152031 -0.104246
vt -2.24111 0.516212
v -0.188541 0.169618 -0.000297356
vn -0.9948161 0.056067 -0.08483781
v -0.185071 0.0869727 0
vn -0.9662075 -0.2498379 -0.06343637
vt 0.422856 6.19888E-06
vt 3.01256 0.227432
vt 3.24289 0.516464
vt 3.22821 0.864874
vt 0.422856 1
o merged_1_0_node
g polygon_0
usemtl mat_line_mat_id
f 84/95/84 83/96/83 85/97/85
f 85/97/85 83/96/83 81/98/81
f 84/95/84 86/99/86 83/96/83
f 83/96/83 86/99/86 80/100/80
f 80/100/80 86/99/86 2/101/2
f 45/102/45 87/99/87 51/103/51
f 51/103/51 87/99/87 88/95/88
f 58/98/58 51/103/51 89/97/89
f 89/97/89 51/103/51 88/95/88
f 40/104/40 58/98/58 89/97/89
f 89/97/89 88/95/88 43/105/43
f 43/105/43 88/95/88 42/106/42
f 38/107/38 42/106/42 87/99/87
f 87/99/87 42/106/42 88/95/88
f 41/108/41 38/107/38 87/99/87
f 3/107/3 2/101/2 86/99/86
f 3/107/3 86/99/86 12/106/12
f 12/106/12 86/99/86 84/95/84
f 12/106/12 84/95/84 18/105/18
f 18/105/18 84/95/84 85/97/85
f 23/104/23 18/105/18 85/97/85
f 41/108/41 87/99/87 45/102/45
f 40/104/40 89/97/89 43/105/43
f 23/104/23 85/97/85 81/98/81
v -0.00499584 0.332816 -0.00865304
vt -18.3246 -0.0650041
vn -0.9991727 0.04066729 0
v -0.00499584 0.332816 0.00865304
v 0 0.455561 0
vt -17.9912 0.934996
v 0.00999167 0.332816 0
vt -17.3246 -0.0650041
vn 0.4995861 0.04066731 0.8653092
v -0.223502 0.490285 0.00375793
vt 0.466067 -0.620215
vn 0.133056 0.9830627 0.126031
v -0.112454 0.469139 0.0514563
vt 2.68564 0.510098
v -0.112454 0.481855 -0.0477319
vt -1.54464 0.489902
v -0.00140605 0.46071 -3.35565E-05
vt 0.474757 1.62021
v -0.00512583 0.460262 -9.10315E-05
vn -0.1621141 0.9787615 0.1254791
v 0.105436 0.47192 0.0518128
v 0.105436 0.484636 -0.0473754
v 0.215999 0.496295 0.00452848
vn 0.1621141 -0.9787615 -0.1254791
vn -0.133056 -0.9830627 -0.126031
vt 0.650151 0.491831
vt 0.904409 0
v 0 0.335565 -0.000986485
vt 0.904409 0.491831
vn 0 0.9995162 0.03110061
vt 0.904409 1
vt 1.15867 0.491831
o merged_2_0_node
g polygon_0
usemtl mat_happa_mat_id
f 90/109/90 91/109/90 92/110/90
f 91/109/90 93/111/91 92/110/90
f 93/111/91 90/109/90 92/110/90
f 94/112/92 95/113/92 96/114/92
f 95/113/92 97/115/92 96/114/92
f 98/112/93 99/113/93 100/114/93
f 99/113/93 101/115/93 100/114/93
f 98/112/94 100/114/94 99/113/94
f 99/113/94 100/114/94 101/115/94
f 94/112/95 96/114/95 95/113/95
f 95/113/95 96/114/95 97/115/95
f 26/116/26 52/117/52 102/118/96
f 102/118/96 13/119/13 26/116/26
f 13/119/13 102/118/96 8/120/8
f 8/120/8 102/118/96 52/117/52
v 0.130465 0.176796 0.10674
vt 0.887259 0.774407
vn 0.3913808 0.01474449 0.9201106
v 0.125058 0.253269 0.106743
vt 0.883795 0.979125
v 0.0527681 0.176796 0.138718
vt 0.072654 0.774407
v 0.0529889 0.253269 0.138469
vt 0.143863 0.979125
v -0.0529889 0.253269 0.138469
vn -0.3916961 0.0143175 0.9199833
v -0.125058 0.253269 0.10675
v -0.0527681 0.176796 0.138718
v -0.130464 0.176796 0.106673
o merged_3_0_node
g polygon_0
usemtl TEX_ANIM_EYE_mat_id
f 103/121/97 104/122/97 105/123/97
f 105/123/97 104/122/97 106/124/97
f 107/122/98 108/124/98 109/121/98
f 109/121/98 108/124/98 110/123/98
