mtllib Kirlia.mtl
v -0.0474835 0.289551 -0.000376719
vt 0.395883 0.224208
vn -0.7132311 0.4836661 -0.507315
v -0.229375 0.220803 0.136424
vt 0.283413 0.154108
vn -0.8116598 0.3130159 0.4931829
v -0.0237417 0.289551 0.0343136
vt 0.445798 0.224208
vn 0.09819186 0.4521443 0.8865235
v 0.0237419 0.289551 0.0343136
vt 0.545628 0.224208
vn -0.09819181 0.4521451 0.8865231
v 0.229375 0.220803 0.136424
vt 0.708013 0.154108
vn 0.8116601 0.313015 0.493183
v 0.0474837 0.289551 -0.000376719
vt 0.595543 0.224208
vn 0.7132311 0.4836661 -0.507315
v -0.0540211 0.142082 0.0803857
vt 0.424415 0.0721682
vn -0.0268695 -0.0854861 0.995977
v -0.102748 0.142082 -0.000581564
vt 0.360104 0.0721682
vn -0.9078959 0.0114281 -0.4190399
v 0.102749 0.142082 -0.000581564
vt 0.631322 0.0721682
vn 0.9078963 0.0114285 -0.4190391
v 0.0540214 0.142082 0.0803857
vt 0.567011 0.0721682
vn 0.0268695 -0.0854861 0.995977
v -0.0540211 0.142082 -0.0842794
vn -0.4013869 0.142484 -0.9047579
v -0.0237417 0.289551 -0.0358564
vn -0.4200711 0.3951321 -0.8169522
v 0.0540214 0.142082 -0.0842794
vn 0.4013878 0.1424839 -0.9047576
v 0.0237419 0.289551 -0.0358564
vn 0.4200711 0.3951321 -0.8169522
v 0 0.297579 -0.000431799
vt 0.495713 0.241085
vn 0 1 0.000209827
v 0.191863 0.054575 -0.0929276
vt 0.625333 0.183975
vn 0.4168219 0.71238 -0.5646009
v 0.0559444 0.05785351 -0.180284
vt 0.573471 0.235837
vn 0.3612338 0.7045226 -0.6108666
vt 0.541288 0.17303
vn 0.326227 0.7558879 -0.567635
v 0 0.142082 -0.0842794
vt 0.502625 0.17303
vn 0 0.7517057 -0.6594988
v -0.0559444 0.05785351 -0.180284
vt 0.43178 0.235837
vn -0.3612331 0.7045233 -0.6108662
vt 0.463963 0.17303
vn -0.326226 0.7558891 -0.567634
v -0.191863 0.054575 -0.0929276
vt 0.379917 0.183975
vn -0.4168219 0.71238 -0.5646009
v -0.0783848 0.142082 -0.0424305
vt 0.446527 0.14308
vn -0.499701 0.8158841 -0.290916
vt 0.42909 0.113129
vn -0.6976049 0.7161409 0.02213
v -0.191012 0.0327549 0.0820099
vt 0.370426 0.0777065
vn -0.7521754 0.6558203 0.06428053
v -0.0783848 0.142082 0.0399021
vt 0.446526 0.0841557
vn -0.5817519 0.7341598 0.3501059
v -0.170801 0.0426519 0.0929276
vt 0.379917 0.0422837
vn -0.465029 0.625234 0.626762
v -0.043308 0.04255 0.180284
vt 0.43178 -0.00957876
vn -0.399343 0.627699 0.668221
vt 0.463963 0.0551821
vn -0.3658509 0.6863788 0.6285198
v 0 0.142082 0.0803857
vt 0.502625 0.0551821
vn 0 0.7084051 0.7058061
v 0.043308 0.04255 0.180284
vt 0.573471 -0.00957876
vn 0.399343 0.6276979 0.668222
vt 0.541288 0.0551821
vn 0.3658512 0.6863783 0.6285203
v 0.170801 0.0426519 0.0929276
vt 0.625333 0.0422837
vn 0.465029 0.625234 0.626762
v 0.0783851 0.142082 0.0399021
vt 0.558724 0.0841557
vn 0.584635 0.731033 0.351842
vt 0.576161 0.113129
vn 0.6976059 0.7161399 0.0221303
v 0.193878 0.038267 -0.0773407
vt 0.634825 0.148552
vn 0.7527519 0.6582959 0.00334494
v 0.0783851 0.142082 -0.0424305
vt 0.558724 0.14308
vn 0.5725529 0.7490489 -0.33333
v -0.193878 0.038267 -0.0773407
vt 0.370426 0.148552
vn -0.7527509 0.658297 0.00334498
vn -0.5725518 0.7490498 -0.3333299
v 0.191012 0.0327549 0.0820099
vt 0.634825 0.0777065
vn 0.7521763 0.6558192 0.06428073
vn 0.499701 0.8158841 -0.290916
vn -0.4168219 -0.71238 0.5646009
vn -0.3262272 -0.7558883 0.5676343
vn -0.3612338 -0.7045226 0.6108666
vn 0 -0.7517062 0.6594982
vn 0.326226 -0.7558891 0.567634
vn 0.3612331 -0.7045233 0.6108662
vn 0.499701 -0.8158841 0.290916
vn 0.4168219 -0.71238 0.5646009
vn 0.6976049 -0.7161409 -0.0221301
vn 0.5817519 -0.7341598 -0.3501059
vn 0.7521754 -0.6558203 -0.06428053
vn 0.465029 -0.625234 -0.626762
vn 0.3658509 -0.6863788 -0.6285198
vn 0.399343 -0.627699 -0.668221
vn 0 -0.7084051 -0.7058061
vn -0.3658512 -0.6863783 -0.6285203
vn -0.399343 -0.6276979 -0.668222
vn -0.584635 -0.731033 -0.351842
vn -0.465029 -0.625234 -0.626762
vn -0.6976059 -0.7161399 -0.0221303
vn -0.5725529 -0.7490489 0.33333
vn -0.7527519 -0.6582959 -0.00334494
vn 0.7527509 -0.658297 -0.00334499
vn 0.572552 -0.74905 0.333329
vn -0.7521763 -0.6558192 -0.06428073
vn -0.499701 -0.8158841 0.290916
v -0.158651 0.367952 0.137133
vt 0.453746 0.156983
vn -0.8259271 -0.3971251 0.4001701
v -0.155509 0.344302 -0.015361
vt 0.594617 0.130391
vn -0.6622536 -0.7398596 -0.1184399
v -0.129842 0.329345 0.110003
vt 0.524181 0.122734
vn -0.5122692 -0.8185962 0.2597701
v -0.113923 0.3205 -0.0110581
vt 0.594617 0.0884844
vn -0.3428929 -0.9221578 -0.179024
v 0.186994 0.386837 -0.019664
vt 0.594617 0.172298
vn 0.9505065 -0.3058779 -0.05455367
v 0.158651 0.367952 0.137133
vn 0.8259271 -0.3971251 0.4001701
v 0.155509 0.344302 -0.015361
vn 0.6622541 -0.7398591 -0.11844
vt 0.998035 -4.70491
v 0.05404 0.364788 0.199803
vt 0.668346 -4.73078
vn 0.3493862 -0.6654094 0.6596664
v 0.129842 0.329345 0.110003
vt 0.929448 -5.17762
vn 0.5122688 -0.8185966 0.2597699
v -0.05404 0.364788 0.199803
vt 0.327724 -4.73078
vn -0.3296691 -0.6774263 0.6575803
v -0.0782897 0.313893 0.115388
vt 0.239751 -5.34695
vn -0.2307249 -0.9442536 0.2348429
v -0.0267377 0.308516 0.120429
vt 0.412879 -5.51629
vn -0.05449282 -0.9357394 0.3484572
v 0 0.292467 -0.0110581
vt 0.498035 -5.70491
vn 0 -0.9932541 -0.115958
v 0.0267377 0.308516 0.120429
vt 0.58319 -5.51629
vn 0.06182618 -0.9473147 0.3142809
v 0.0782897 0.313893 0.115388
vt 0.756319 -5.34695
vn 0.2307249 -0.9442536 0.2348429
v 0.113923 0.3205 -0.0110581
vt 0.860861 -5.40845
vn 0.3428929 -0.9221578 -0.179024
vt 0.0666218 -5.17762
vt -0.00196508 -4.70491
vt 0.135209 -5.40845
v -0.186994 0.386837 -0.019664
vn -0.9505482 -0.305746 -0.05456571
v -0.115782 0.601753 0.107
vt 0.367519 0.847003
vn 0.6804279 0.6280199 0.3776359
v -0.19967 0.724451 0.0541006
vt 0.417244 0.97109
vn 0.633638 0.709511 0.308378
v -0.128582 0.595513 0.107
vt 0.367519 0.840692
v -0.21247 0.718211 0.0541006
vt 0.417244 0.964779
vn -0.8905752 -0.3144501 0.328629
v -0.233983 0.774637 -0.0270321
vt 0.493509 1.02184
vn 0.5910789 0.8065419 0.0107668
v -0.246782 0.768397 -0.0270321
vt 0.493509 1.01553
vn -0.9746612 -0.223372 0.0118526
v -0.215511 0.722658 -0.112126
vt 0.573498 0.969277
vn -0.8907786 -0.3203309 -0.3223379
v -0.202711 0.728898 -0.112126
vt 0.573498 0.975588
vn 0.6384031 0.7076501 -0.3027751
v -0.107302 0.564389 -0.165958
vt 0.624101 0.809215
vn -0.8145982 -0.4213651 -0.3985991
v -0.0945025 0.570629 -0.165958
vt 0.624101 0.815526
vn 0.694567 0.6064939 -0.3869649
v -0.134823 0.604642 -0.0337937
vt 0.499865 0.849924
vn -0.8255037 -0.5643968 0
v -0.122024 0.610882 -0.0337937
vt 0.499865 0.856235
vn 0.8255037 0.5643968 0
v 0.127985 0.595804 0.107
vt 0.403581 0.829157
vn -0.6804279 0.6280199 0.3776359
v 0.140784 0.589563 0.107
vt 0.403581 0.822668
v 0.211873 0.718501 0.0541006
vt 0.45471 0.956747
vn -0.633638 0.709511 0.308378
v 0.224673 0.712261 0.0541006
vt 0.45471 0.950258
vn 0.8905752 -0.3144501 0.328629
v 0.246186 0.768688 -0.0270321
vt 0.533128 1.00893
vn -0.5910789 0.8065419 0.0107668
v 0.258985 0.762447 -0.0270321
vt 0.533128 1.00245
vn 0.9746612 -0.223372 0.0118526
v 0.214914 0.722949 -0.112126
vt 0.615375 0.961372
vn -0.6384031 0.7076501 -0.3027751
v 0.227713 0.716708 -0.112126
vt 0.615375 0.954883
vn 0.8907786 -0.3203309 -0.3223379
v 0.106705 0.56468 -0.165958
vt 0.667406 0.796792
vn -0.694567 0.6064939 -0.3869649
v 0.119505 0.558439 -0.165958
vt 0.667406 0.790303
vn 0.8145982 -0.4213651 -0.3985991
v 0.134226 0.604933 -0.0337937
vt 0.539663 0.83865
vn -0.8255037 0.5643968 0
v 0.147026 0.598692 -0.0337937
vt 0.539663 0.832161
vn 0.8255037 -0.5643968 0
o merged_0_0_node
g polygon_0
usemtl skin_set_mat_id
f 1/1/1 2/2/2 3/3/3
f 4/4/4 5/5/5 6/6/6
f 7/7/7 2/2/2 8/8/8
f 2/2/2 7/7/7 3/3/3
f 8/8/8 2/2/2 1/1/1
f 9/9/9 5/5/5 10/10/10
f 5/5/5 9/9/9 6/6/6
f 10/10/10 5/5/5 4/4/4
f 11/7/11 12/3/12 13/10/13
f 13/10/13 12/3/12 14/4/14
f 8/8/8 1/1/1 11/7/11
f 11/7/11 1/1/1 12/3/12
f 10/10/10 4/4/4 7/7/7
f 7/7/7 4/4/4 3/3/3
f 14/4/14 6/6/6 13/10/13
f 13/10/13 6/6/6 9/9/9
f 14/4/14 12/3/12 15/11/15
f 12/3/12 1/1/1 15/11/15
f 1/1/1 3/3/3 15/11/15
f 3/3/3 4/4/4 15/11/15
f 4/4/4 6/6/6 15/11/15
f 6/6/6 14/4/14 15/11/15
f 16/12/16 17/13/17 13/14/18
f 18/15/19 19/16/20 11/17/21
f 11/17/21 20/18/22 21/19/23
f 8/20/24 22/21/25 23/22/26
f 24/23/27 25/24/28 7/25/29
f 26/26/30 27/27/31 10/28/32
f 10/28/32 28/29/33 29/30/34
f 9/31/35 30/32/36 31/33/37
f 25/24/28 26/26/30 7/25/29
f 17/13/17 18/15/19 13/14/18
f 8/20/24 32/34/38 22/21/25
f 32/34/38 8/20/24 21/19/39
f 9/31/35 33/35/40 30/32/36
f 33/35/40 9/31/35 29/30/34
f 16/12/16 13/14/18 31/33/41
f 27/27/31 28/29/33 10/28/32
f 24/23/27 7/25/29 23/22/26
f 19/16/20 20/18/22 11/17/21
f 16/12/42 13/14/43 17/13/44
f 18/15/45 11/17/46 19/16/47
f 11/17/46 21/19/48 20/18/49
f 8/20/50 23/22/51 22/21/52
f 24/23/53 7/25/54 25/24/55
f 26/26/56 10/28/57 27/27/58
f 10/28/57 29/30/59 28/29/60
f 9/31/61 31/33/62 30/32/63
f 25/24/55 7/25/54 26/26/56
f 17/13/44 13/14/43 18/15/45
f 8/20/50 22/21/52 32/34/64
f 32/34/64 21/19/65 8/20/50
f 9/31/61 30/32/63 33/35/66
f 33/35/66 29/30/59 9/31/61
f 16/12/42 31/33/67 13/14/43
f 27/27/58 10/28/57 28/29/60
f 24/23/53 23/22/51 7/25/54
f 19/16/47 11/17/46 20/18/49
f 34/36/68 35/37/69 36/38/70
f 36/38/70 35/37/69 37/39/71
f 38/40/72 39/36/73 40/37/74
f 39/41/73 41/42/75 42/43/76
f 43/44/77 44/45/78 45/46/79
f 45/46/79 44/45/78 46/47/80
f 46/47/80 47/48/81 45/46/79
f 42/43/76 48/49/82 49/50/83
f 49/50/83 48/49/82 46/47/80
f 48/49/82 41/42/75 47/48/81
f 46/47/80 48/49/82 47/48/81
f 36/51/70 43/44/77 34/52/68
f 46/47/80 44/45/78 37/53/71
f 37/53/71 44/45/78 36/51/70
f 35/37/69 34/36/68 50/40/84
f 39/36/73 42/38/76 40/37/74
f 40/37/74 42/38/76 49/39/83
f 44/45/78 43/44/77 36/51/70
f 42/43/76 41/42/75 48/49/82
f 51/54/85 52/55/86 53/56/68
f 53/56/68 52/55/86 54/57/87
f 52/55/86 55/58/88 54/57/87
f 54/57/87 55/58/88 56/59/89
f 56/59/89 55/58/88 57/60/90
f 57/60/90 55/58/88 58/61/91
f 57/60/90 58/61/91 59/62/92
f 59/62/92 58/61/91 60/63/93
f 54/57/87 61/64/94 53/56/68
f 56/59/89 61/64/94 54/57/87
f 57/60/90 61/64/94 56/59/89
f 59/62/92 61/64/94 57/60/90
f 51/54/85 62/65/95 52/55/86
f 52/55/86 62/65/95 55/58/88
f 55/58/88 62/65/95 58/61/91
f 58/61/91 62/65/95 60/63/93
f 63/66/96 64/67/73 65/68/97
f 65/68/97 64/67/73 66/69/98
f 65/68/97 66/69/98 67/70/99
f 67/70/99 66/69/98 68/71/100
f 67/70/99 68/71/100 69/72/101
f 69/72/101 68/71/100 70/73/102
f 69/72/101 70/73/102 71/74/103
f 71/74/103 70/73/102 72/75/104
f 65/68/97 73/76/105 63/66/96
f 67/70/99 73/76/105 65/68/97
f 69/72/101 73/76/105 67/70/99
f 71/74/103 73/76/105 69/72/101
f 64/67/73 74/77/106 66/69/98
f 66/69/98 74/77/106 68/71/100
f 68/71/100 74/77/106 70/73/102
f 70/73/102 74/77/106 72/75/104
v -0.068865 0.077751 -0.065806
vt 0.736915 0.724574
vn -0.3801667 -0.3669557 -0.8490093
vt 0.806412 0.768036
v 0.0688653 0.077751 -0.065806
vt 0.806552 0.724574
vn 0.3801671 -0.3669551 -0.8490093
vt 0.737056 0.768036
v 0 0.0565228 -8.42879E-05
vt 0.771734 0.713841
vn 0 -1 -0.000226652
vt 0.705777 0.768036
v -0.0784892 7.450581E-09 0
vt 0.7364 0.688984
vn -0.06981948 -0.9975536 -0.003456819
v -0.110851 0.077751 -8.42879E-05
vt 0.715687 0.724574
vn -0.9974829 -0.07089579 0.00126342
vt 0.837691 0.768036
v -0.068865 0.077751 0.0642684
vn -0.3714001 -0.3475961 0.8609524
v 0.0784892 7.450581E-09 0
vt 0.807067 0.688984
vn 0.06981859 -0.9975538 -0.003456799
v 0.0688653 0.077751 0.0642684
vn 0.3714001 -0.3475961 0.8609524
v 0.110851 0.077751 -8.42879E-05
vt 0.82778 0.724574
vn 0.9974829 -0.0708966 0.00126393
v 0 0.326261 -0.162549
vt 0.444125 0.427001
vn 0 -0.8684266 -0.4958178
vt 0.444125 0.494067
vt 7.37253 0.494067
vt -6.48427 0.494067
v -0.156406 0.401626 -0.175516
vt 8.52263 0.42126
vn -0.6247959 -0.4391899 -0.6455559
v 0.156406 0.401626 -0.175516
vt -7.6344 0.42126
vn 0.6245871 -0.4403021 -0.645
v 0 0.4238 -0.245379
vt 0.444125 0.390331
vn -0.000567159 -0.210224 -0.9776531
vt 9.06016 0.494067
vt -8.17191 0.494067
v -0.177592 0.501362 -0.14433
vt 9.10262 0.428362
vn -0.1446059 -0.3561299 -0.9231796
v 0.177592 0.501362 -0.144684
vt -8.2143 0.428205
vn 0.146862 -0.3542801 -0.9235352
v 0 0.562263 -0.235734
vt 0.444125 0.394601
vn -0.0005265932 0.2896971 -0.9571183
vt 10.7478 0.494067
vt -9.85955 0.494067
v -0.154654 0.589148 -0.135022
vt 7.98423 0.432483
vn -0.6955874 0.5276013 -0.4876423
v 0.154654 0.589148 -0.135022
vt -7.09597 0.432483
vn 0.6954152 0.5280972 -0.4873511
v 0 0.692515 -0.152745
vt 0.444125 0.43134
vn 0 0.7896161 -0.6136011
v -0.200596 0.503652 -0.00452118
vt 10.6468 0.494067
vn 0.8759287 -0.4570788 -0.1543629
v 0.200658 0.503652 -0.00452118
vt -9.75849 0.494067
vn -0.875797 -0.457329 -0.154369
v -0.12407 0.681171 -0.0110581
vn -0.5561371 0.8310902 0.0007678292
v -0.19942 0.589148 0.00408472
vt 11.7161 0.494067
vn -0.8914142 0.4487331 -0.06339722
v 0.12407 0.681171 -0.0110581
vn 0.5561371 0.8310902 0.0007678292
v 0.19942 0.589148 0.00408472
vt -10.8278 0.494067
vn 0.8914143 0.4487332 -0.06339713
v -0.180827 0.589148 0.0722096
vt 8.92964 0.53093
vn -0.5837538 0.6121938 0.5333388
v 0 0.717744 -0.0110581
vn 0 0.9999326 0.0116044
v 0.180827 0.589148 0.0722096
vt -8.04136 0.53093
vn 0.5837538 0.6121938 0.5333388
v 0 0.689163 0.119155
vt 0.444125 0.551713
vn 0 0.8179501 0.5752891
v 0 0.589148 0.220278
vt 0.444125 0.596481
vn 0 0.5864502 0.8099853
v -0.15114 0.477149 0.177364
vt 7.46246 0.559879
vn -0.6323692 0.2367281 0.7376103
v -0.203091 0.539265 0.100373
vt 10.2424 0.536862
vn -0.9026307 0.259014 0.3437579
v 0 0.478152 0.266488
vt 0.444125 0.609669
vn 0 0.173634 0.9848102
v -0.0912746 0.415032 0.19806
vt 4.68256 0.582896
vn -0.5040642 -0.2494321 0.8268633
v 0.15114 0.477149 0.177364
vt -6.5742 0.559879
vn 0.6323692 0.2367281 0.7376103
v 0.203091 0.539265 0.100373
vt -9.35409 0.536862
vn 0.9026954 0.2589918 0.3436048
v 0 0.382133 0.241005
vt 0.444125 0.598388
vn 0 -0.414044 0.9102569
vt 2.95352 0.583607
v 0.0912747 0.415032 0.19806
vt -3.79431 0.582896
vn 0.5040638 -0.2494319 0.8268636
v 0 0.302684 0.158617
vt 0.444125 0.564117
vn 0 -0.7198249 0.6941558
vt -2.06527 0.583607
v -0.305052 0.312425 -0.176363
vt 9.89227 0
vn -0.9624307 0.2503539 0.10512
vt 7.3133 1
vt 7.89392 0.732422
vt -1.36455 1
vt -7.3949 0.78763
v -0.23287 0.285223 0.145177
vt -8.89226 0.00147742
vn -0.9613772 0.153039 0.228764
vt -1.36455 0.703703
vn 0.9190086 -0.3622848 -0.1554769
vt -6.559 1
vn 0.9439323 -0.2698341 -0.1902141
v 0.305052 0.312425 -0.176363
vn 0.9624242 0.2503801 0.105117
vt 7.91604 0.732422
v 0.23287 0.285223 0.145177
vn 0.9613772 0.153039 0.228764
vn -0.9190519 -0.362326 -0.155124
vn -0.9439791 -0.269621 -0.190284
v 0.197916 0.496437 0.0982054
vt 0.269294 5.22691
vn 0.9605975 -0.1755391 0.2154961
vt 1 5.34306
vt 0.349734 5.91639
vt 0 4.91639
v -0.197916 0.496437 0.0982054
vn -0.9606515 -0.1754389 0.2153369
vt 0.0183889 3.03898
vt 1.01839 3.03898
vt 0.518389 2.03898
vn 0 0.5526761 -0.8333961
o merged_1_0_node
g polygon_0
usemtl green_mat_id
f 75/78/107 13/79/13 76/80/108
f 75/78/107 11/81/11 13/79/13
f 75/78/107 76/80/108 77/82/109
f 75/78/107 8/83/8 11/81/11
f 75/78/107 77/82/109 78/84/110
f 75/78/107 79/85/111 8/83/8
f 75/78/107 78/84/110 79/85/111
f 13/79/13 9/86/9 76/80/108
f 77/82/109 80/78/112 78/84/110
f 77/82/109 76/80/108 81/87/113
f 77/82/109 82/80/114 80/78/112
f 77/82/109 81/87/113 82/80/114
f 79/85/111 80/78/112 8/83/8
f 79/85/111 78/84/110 80/78/112
f 9/86/9 83/88/115 76/80/108
f 9/86/9 82/80/114 83/88/115
f 9/86/9 10/79/10 82/80/114
f 82/80/114 81/87/113 83/88/115
f 82/80/114 10/79/10 80/78/112
f 83/88/115 81/87/113 76/80/108
f 8/83/8 80/78/112 7/81/7
f 7/81/7 80/78/112 10/79/10
f 84/89/116 46/90/80 37/91/71
f 84/89/116 49/92/83 46/90/80
f 84/89/116 37/91/71 85/93/117
f 84/89/116 86/94/118 49/92/83
f 84/89/116 85/93/117 87/95/119
f 84/89/116 87/95/119 86/94/118
f 37/91/71 35/96/69 85/93/117
f 49/92/83 86/94/118 40/97/74
f 87/95/119 85/93/117 88/98/120
f 87/95/119 89/99/121 86/94/118
f 87/95/119 88/98/120 90/100/122
f 87/95/119 90/100/122 89/99/121
f 35/96/69 50/101/84 85/93/117
f 85/93/117 50/101/84 88/98/120
f 40/97/74 86/94/118 38/102/72
f 86/94/118 89/99/121 38/102/72
f 90/100/122 88/98/120 91/103/123
f 90/100/122 92/104/124 89/99/121
f 90/100/122 91/103/123 93/105/125
f 90/100/122 93/105/125 92/104/124
f 50/101/84 94/106/126 88/98/120
f 38/102/72 89/99/121 95/107/127
f 91/103/123 96/91/128 93/105/125
f 91/103/123 97/108/129 96/91/128
f 92/104/124 93/105/125 98/92/130
f 92/104/124 98/92/130 99/109/131
f 97/108/129 100/110/132 96/91/128
f 93/105/125 101/90/133 98/92/130
f 93/105/125 96/91/128 101/90/133
f 99/109/131 98/92/130 102/111/134
f 100/110/132 103/112/135 96/91/128
f 100/110/132 104/113/136 103/112/135
f 100/110/132 105/114/137 104/113/136
f 100/110/132 106/115/138 105/114/137
f 103/112/135 101/90/133 96/91/128
f 103/112/135 98/92/130 101/90/133
f 103/112/135 104/113/136 102/111/134
f 103/112/135 102/111/134 98/92/130
f 105/114/137 107/116/139 104/113/136
f 105/114/137 108/117/140 107/116/139
f 102/111/134 104/113/136 109/118/141
f 102/111/134 109/118/141 110/119/142
f 104/113/136 107/116/139 109/118/141
f 108/117/140 111/120/143 107/116/139
f 108/117/140 43/121/77 111/120/143
f 109/118/141 107/116/139 112/122/144
f 107/116/139 111/120/143 112/122/144
f 43/121/77 113/123/145 111/120/143
f 112/122/144 111/120/143 41/124/75
f 41/124/75 111/120/143 113/123/145
f 114/125/146 91/126/123 88/127/120
f 114/125/146 97/128/129 91/126/123
f 114/125/146 106/129/138 97/128/129
f 114/125/146 115/130/147 106/129/138
f 88/127/120 94/131/126 114/125/148
f 97/128/129 106/129/138 100/132/132
f 94/131/126 115/130/149 114/125/148
f 94/131/126 106/129/138 115/130/149
f 116/125/150 92/126/124 99/128/131
f 116/125/150 89/133/121 92/126/124
f 116/125/150 99/128/131 110/129/142
f 116/125/150 110/129/142 117/130/151
f 89/133/121 116/125/152 95/131/127
f 99/128/131 102/132/134 110/129/142
f 116/125/152 117/130/153 95/131/127
f 95/131/127 117/130/153 110/129/142
f 118/134/154 95/135/127 110/136/142
f 118/134/154 110/136/142 109/137/141
f 106/136/138 119/134/155 105/137/137
f 106/136/138 94/135/126 119/134/155
f 43/138/77 41/139/75 113/140/156
vt -0.0760751 0.801744
vt 0.228843 0.775301
vt -0.0547121 0.955206
vt 0.715401 0.841223
vt 0.984291 0.770871
vt 0.283085 0.928199
vt -0.212119 0.965308
o merged_2_0_node
g polygon_0
usemtl TEX_ANIM_EYE_mat_id
f 50/141/84 34/142/68 119/143/155
f 112/144/144 41/145/75 39/142/73
f 34/142/68 108/144/140 105/146/137
f 43/145/77 108/144/140 34/142/68
f 39/142/73 118/143/154 109/146/141
f 38/141/72 95/147/127 118/143/154
f 38/141/72 118/143/154 39/142/73
f 50/141/84 119/143/155 94/147/126
f 39/142/73 109/146/141 112/144/144
f 34/142/68 105/146/137 119/143/155
vt 0.844466 0.0190408
vt 1.18893 0.98096
vt 0.155534 0.0190408
vt -0.188932 0.98096
o merged_3_0_node
g polygon_0
usemtl mat_mouth_mat_id
f 47/148/81 41/149/75 45/150/79
f 45/150/79 41/149/75 43/151/77
