mtllib Wigglytuff.mtl
v -0.209726 0.139873 -0.192163
vt 0.910791 0.667787
vn -0.617112 -0.306566 -0.7247
v -0.290358 0.169286 0
vt 0.902244 0.677333
vn -0.9487759 -0.311958 -0.05006529
v -0.283475 0.238149 -0.0303689
vt 0.902665 0.686328
vn -0.9200773 -0.09805173 -0.3792671
v -0.23837 0.0855895 0
vt 0.90749 0.660096
vn -0.7272702 -0.6862882 -0.009300803
v -0.204676 0.292965 -0.196675
vt 0.911373 0.689479
vn -0.618437 0.0937013 -0.780228
v -0.145863 0.0593767 -0.13037
vt 0.91815 0.656382
vn -0.3169051 -0.8655331 -0.387845
v 0 0.153744 -0.27142
vt 0.93496 0.669753
vn -0.003551981 -0.244859 -0.9695522
v 0 0.0593767 -0.184624
vt 0.93496 0.656382
vn -0.002635999 -0.8679488 -0.4966468
v -0.275869 0.224547 0.0987935
vt 0.905282 0.690446
vn -0.7509438 -0.4191719 0.5102729
v -0.217801 0.139873 0.176171
vt 0.90986 0.667787
vn -0.5754891 -0.409501 0.7078991
v -0.23846 0.227894 0.156749
vt 0.907479 0.68557
vn -0.7348117 0.01839269 0.6780218
v 0 0.326886 -0.254639
vt 0.93496 0.694285
vn 0 0.1530809 -0.9882137
v -0.276591 0.35601 -0.0309539
vt 0.903085 0.695323
vn -0.8700661 0.3371561 -0.3595981
v -0.179275 0.419665 -0.183141
vt 0.9143 0.707431
vn -0.5883248 0.3646289 -0.7217478
v 0 0.03452 0
vt 0.93496 0.65286
vn 0 -0.9999956 -0.002950888
v -0.116696 -7.450581E-09 0
vt 0.921512 0.647969
vn -0.121275 -0.9926167 -0.002123889
v -0.224017 0.354595 0.146111
vt 0.909144 0.703522
vn -0.6983153 0.2862851 0.6560462
v -0.384244 0.330641 0.0949064
vt 0.904184 0.692885
vn -0.9126639 0.165524 0.373693
v -0.251218 0.372093 0.0934744
vt 0.906114 0.699422
vn -0.6406481 0.5754221 0.5083891
v -0.145863 0.0593767 0.112814
vn -0.2976031 -0.8470602 0.4403651
v 0.204676 0.292965 -0.196675
vt 0.958548 0.689479
vn 0.6186531 0.09965891 -0.779318
v 0.209726 0.139873 -0.195222
vt 0.95913 0.667787
vn 0.613726 -0.302118 -0.729428
v -0.221423 0.491431 0
vt 0.909443 0.717599
vn -0.8332369 0.5524549 -0.02258
v 0 0.479402 -0.216407
vt 0.93496 0.715895
vn 0 0.4253702 -0.9050195
v -0.121047 0.556523 -0.115285
vt 0.92101 0.726822
vn -0.4568518 0.7507407 -0.4771528
v -0.107645 0.358576 0.229735
vt 0.922813 0.701492
vn -0.419899 0.189569 0.887552
v 0.145863 0.0593767 -0.13037
vt 0.95177 0.656382
vn 0.31607 -0.867901 -0.383207
v 0.116696 -7.450581E-09 0
vt 0.948409 0.647969
vn 0.121275 -0.9926167 -0.002123879
v 0.145863 0.0593767 0.112814
vn 0.295583 -0.8492009 0.4375939
v 0.179275 0.419665 -0.183141
vt 0.95562 0.707431
vn 0.5883248 0.3646289 -0.7217478
v 0.283475 0.238149 -0.0303689
vt 0.967256 0.686328
vn 0.9208727 -0.09590998 -0.3778819
v 0.276591 0.35601 -0.0309539
vt 0.966835 0.695323
vn 0.8700661 0.3371561 -0.3595981
v -0.127039 0.572651 0.00972138
vt 0.92032 0.729107
vn -0.4270201 0.8961601 0.120627
v 0 0.564906 -0.13362
vt 0.93496 0.72801
vn 0 0.8937742 -0.4485171
v 0 0.593602 0.0227494
vt 0.93496 0.732076
vn 0 0.9991364 0.04155092
v -0.143383 0.502856 0.143587
vt 0.919537 0.721545
vn -0.5285001 0.598102 0.6024631
v 0.23837 0.0855895 0
vt 0.962431 0.660096
vn 0.7272046 -0.6863587 -0.009226865
v 0.384244 0.330641 0.0949064
vt 0.965737 0.692885
vn 0.9126639 0.165524 0.373693
v 0.221423 0.491431 0
vt 0.960478 0.717599
vn 0.8332369 0.5524549 -0.0225801
v 0.251218 0.372093 0.0934744
vt 0.963806 0.699422
vn 0.6406481 0.5754221 0.5083891
v 0.121047 0.556523 -0.115285
vt 0.94891 0.726822
vn 0.4568518 0.7507407 -0.4771528
v 0 0.564738 0.121515
vt 0.93496 0.726965
vn 0 0.8538326 0.5205477
v 0 0.483977 0.197215
vt 0.93496 0.721854
vn 0 0.5515608 0.8341347
v 0.217801 0.139873 0.178396
vt 0.96006 0.667787
vn 0.5734228 -0.4095448 0.7095487
v 0.290358 0.169286 0
vt 0.967676 0.677333
vn 0.9487433 -0.3121421 -0.04953282
v 0.275869 0.224547 0.0987935
vt 0.964638 0.690446
vn 0.7509438 -0.4191719 0.5102729
v 0.127039 0.572651 0.00972138
vt 0.949601 0.729107
vn 0.4270201 0.8961601 0.120627
v 0.224017 0.354595 0.146111
vt 0.960777 0.703522
vn 0.6983153 0.2862851 0.6560462
v 0.143383 0.502856 0.143587
vt 0.950383 0.721545
vn 0.5284997 0.5981016 0.6024637
v 0.23846 0.227894 0.156749
vt 0.962441 0.68557
vn 0.7402831 0.0263667 0.6717781
v 0.107645 0.358576 0.229735
vt 0.947107 0.701492
vn 0.4184499 0.1927889 0.8875428
v 0.0457958 0.585999 0.316127
vt 0.659817 0.284757
vn 0.4225728 -0.1875919 0.8867026
v 0.0492747 0.487772 0.244952
vt 0.824263 0.0186769
vn 0.4269411 -0.8526401 0.301208
v 0.115233 0.58561 0.216604
vt 0.98871 0.284757
vn 0.9803038 -0.158604 0.117683
v -0.0564766 0.525816 0.290731
vt 0.558183 0.120311
vn -0.4337578 -0.6563397 0.6173107
v 0.0700222 0.612091 0.225101
vt 0.899482 0.35591
vn 0.5713927 0.7969686 0.1958349
v -0.0658501 0.597304 0.304641
vt 0.512109 0.313914
vn -0.5712078 0.05394758 0.8190307
v 0.0440715 0.628202 0.280917
vt 0.716143 0.355072
vn 0.5710679 0.4344519 0.6965149
v -0.0528117 0.668667 0.286428
vt 0.572192 0.507518
vn -0.4347189 0.6461079 0.6273469
v 0.0558758 0.525188 0.1297
vt 1.09034 0.120311
vn 0.4319759 -0.6516928 -0.6234528
v -0.0502468 0.488233 0.175513
vn -0.4353648 -0.8486407 -0.3004439
v 0.035679 0.626925 0.159323
vt 0.992298 0.395731
vn 0.326617 0.8241879 -0.4626399
v -0.115233 0.586745 0.203773
vn -0.9792138 -0.181091 -0.09135908
v 0.0461331 0.701712 0.248227
vt 0.810255 0.59845
vn 0.4406651 0.8536541 0.277649
vn 0.9756591 0.218711 -0.0159611
v 0.0608804 0.592909 0.122978
vt 1.11246 0.303924
vn 0.547389 0.296584 -0.782562
v -0.0457958 0.586357 0.10425
vn -0.449774 -0.151972 -0.8801181
v -0.0509021 0.702162 0.180523
vn -0.4073459 0.8575868 -0.3140289
v -0.0813299 0.628783 0.193422
vn -0.8480862 0.4410341 -0.2936641
v 0.040003 0.66746 0.153395
vt 0.990086 0.487537
vn 0.4663199 0.5839829 -0.6644619
vn 0.5625079 -0.178072 -0.8073879
v -0.038001 0.612592 0.14973
vn -0.3760321 0.8013622 -0.4652081
vn -0.3203878 0.2247219 -0.9202455
v 0 0.145639 0.267352
vt 0.00814284 0.293235
vn -0.003686698 -0.4119068 0.9112186
vt 0.313988 0.124451
v 0 0.0593767 0.159543
vt 0.00814284 0.124451
vn 0 -0.9040763 0.4273711
vt 0.464827 0.293235
v 0 0.255483 0.277985
vt 0.00814284 0.614236
vn -0.00330861 -0.00460963 0.9999839
vt 0.00814284 0.0229571
vt 0.22915 0.792009
vt 0.508143 0.556389
v 0 0.391459 0.247893
vt 0.00814284 0.853606
vn 0 0.351928 0.9360271
v 0.257418 0.667559 -0.0565235
vt 0.695543 0.753544
vn -0.2491031 0.1817381 -0.9512723
v 0.215173 0.52738 -0.00240402
vt 0.984356 0.77454
vn 0.577774 -0.656202 0.485362
v 0.174932 0.558259 -0.0314018
vt 0.984356 0.753544
vn -0.371223 0.0269331 -0.928153
v 0.327983 0.612709 -0.0151213
vt 0.695543 0.792146
vn 0.73407 -0.514627 0.443058
v 0.158276 0.575873 0.0217597
vt 0.984356 0.764036
vn -0.3986671 0.17601 0.9000472
v 0.413133 0.831531 -0.0189348
vt 0.253816 1.00017
vn 0.5890022 0.3216681 0.7413542
v 0.223376 0.701864 0.0293042
vt 0.695543 0.77477
vn -0.298591 0.3655011 0.8816192
vt 0.695586 0.757363
vt 0.695587 1.24297
vt 0.9945 1.13223
vt 0.9945 0.868103
v -0.257418 0.667559 -0.0565235
vn 0.2491031 0.1817381 -0.9512723
v -0.215173 0.52738 -0.00240404
vn -0.577774 -0.656202 0.485362
v -0.327983 0.612709 -0.0151213
vn -0.73407 -0.514627 0.443058
v -0.174932 0.5582601 -0.0314018
vn 0.3712239 0.02693299 -0.9281527
v -0.413133 0.831531 -0.0189348
vn -0.5890018 0.3216679 0.7413547
v -0.158276 0.575873 0.0217597
vn 0.3986671 0.17601 0.9000472
v -0.223376 0.701864 0.0293042
vn 0.298591 0.3655011 0.8816192
vn -0.6334087 -0.7716987 0.05722388
vn 0.6334088 -0.7716987 0.05722238
o merged_0_0_node
g polygon_0
usemtl mat_body_mat_id
f 1/1/1 2/2/2 3/3/3
f 1/1/1 4/4/4 2/2/2
f 1/1/1 3/3/3 5/5/5
f 1/1/1 6/6/6 4/4/4
f 1/1/1 5/5/5 7/7/7
f 1/1/1 8/8/8 6/6/6
f 1/1/1 7/7/7 8/8/8
f 2/2/2 9/9/9 3/3/3
f 2/2/2 4/4/4 10/10/10
f 2/2/2 11/11/11 9/9/9
f 2/2/2 10/10/10 11/11/11
f 5/5/5 12/12/12 7/7/7
f 5/5/5 3/3/3 13/13/13
f 5/5/5 14/14/14 12/12/12
f 5/5/5 13/13/13 14/14/14
f 6/6/6 8/8/8 15/15/15
f 6/6/6 16/16/16 4/4/4
f 6/6/6 15/15/15 16/16/16
f 9/9/9 11/11/11 17/17/17
f 9/9/9 18/18/18 3/3/3
f 9/9/9 17/17/17 19/19/19
f 9/9/9 19/19/19 18/18/18
f 18/18/18 13/13/13 3/3/3
f 18/18/18 19/19/19 13/13/13
f 10/10/10 4/4/4 20/6/20
f 20/6/20 16/16/16 15/15/15
f 20/6/20 4/4/4 16/16/16
f 7/7/7 12/12/12 21/20/21
f 7/7/7 22/21/22 8/8/8
f 7/7/7 21/20/21 22/21/22
f 14/14/14 13/13/13 23/22/23
f 14/14/14 24/23/24 12/12/12
f 14/14/14 23/22/23 25/24/25
f 14/14/14 25/24/25 24/23/24
f 19/19/19 17/17/17 23/22/23
f 19/19/19 23/22/23 13/13/13
f 11/11/11 26/25/26 17/17/17
f 15/15/15 8/8/8 27/26/27
f 15/15/15 27/26/27 28/27/28
f 15/15/15 28/27/28 29/26/29
f 8/8/8 22/21/22 27/26/27
f 21/20/21 12/12/12 30/28/30
f 21/20/21 31/29/31 22/21/22
f 21/20/21 30/28/30 32/30/32
f 21/20/21 32/30/32 31/29/31
f 12/12/12 24/23/24 30/28/30
f 25/24/25 23/22/23 33/31/33
f 25/24/25 34/32/34 24/23/24
f 25/24/25 33/31/33 35/33/35
f 25/24/25 35/33/35 34/32/34
f 17/17/17 36/34/36 23/22/23
f 23/22/23 36/34/36 33/31/33
f 28/27/28 37/35/37 29/26/29
f 28/27/28 27/26/27 37/35/37
f 27/26/27 22/21/22 37/35/37
f 32/30/32 38/36/38 31/29/31
f 32/30/32 30/28/30 39/37/39
f 32/30/32 40/38/40 38/36/38
f 32/30/32 39/37/39 40/38/40
f 24/23/24 34/32/34 41/39/41
f 24/23/24 41/39/41 30/28/30
f 30/28/30 41/39/41 39/37/39
f 34/32/34 35/33/35 41/39/41
f 36/34/36 42/40/42 33/31/33
f 36/34/36 43/41/43 42/40/42
f 33/31/33 42/40/42 35/33/35
f 29/26/29 37/35/37 44/42/44
f 22/21/22 31/29/31 45/43/45
f 22/21/22 45/43/45 37/35/37
f 37/35/37 45/43/45 44/42/44
f 38/36/38 40/38/40 46/44/46
f 38/36/38 46/44/46 31/29/31
f 31/29/31 46/44/46 45/43/45
f 39/37/39 41/39/41 47/45/47
f 39/37/39 48/46/48 40/38/40
f 39/37/39 47/45/47 49/47/49
f 39/37/39 49/47/49 48/46/48
f 47/45/47 35/33/35 42/40/42
f 47/45/47 41/39/41 35/33/35
f 47/45/47 42/40/42 49/47/49
f 49/47/49 42/40/42 43/41/43
f 40/38/40 48/46/48 46/44/46
f 44/42/44 45/43/45 50/48/50
f 46/44/46 48/46/48 50/48/50
f 46/44/46 50/48/50 45/43/45
f 48/46/48 51/49/51 50/48/50
f 52/50/52 53/51/53 54/52/54
f 52/50/52 55/53/55 53/51/53
f 52/50/52 54/52/54 56/54/56
f 52/50/52 57/55/57 55/53/55
f 52/50/52 56/54/56 58/56/58
f 52/50/52 59/57/59 57/55/57
f 52/50/52 58/56/58 59/57/59
f 53/51/53 60/58/60 54/52/54
f 53/51/53 55/53/55 61/51/61
f 53/51/53 61/51/61 60/58/60
f 56/54/56 54/52/54 62/59/62
f 57/55/57 59/57/59 63/50/63
f 57/55/57 63/50/63 55/53/55
f 55/53/55 63/50/63 61/51/61
f 58/56/58 64/60/64 59/57/59
f 58/56/58 56/54/65 64/60/64
f 60/58/60 65/61/66 54/52/54
f 60/58/60 61/51/61 66/52/67
f 60/58/60 66/52/67 65/61/66
f 65/61/66 62/59/62 54/52/54
f 65/61/66 66/52/67 62/59/62
f 61/51/61 63/50/63 66/52/67
f 59/57/59 64/60/64 67/60/68
f 59/57/59 68/56/69 63/50/63
f 59/57/59 67/60/68 68/56/69
f 56/54/65 69/62/70 64/60/64
f 56/54/65 62/59/71 69/62/70
f 64/60/64 69/62/70 67/60/68
f 62/59/62 66/52/67 70/54/72
f 70/54/72 66/52/67 63/50/63
f 70/54/72 63/50/63 68/56/69
f 62/59/71 70/54/73 69/62/70
f 70/54/73 68/56/69 67/60/68
f 70/54/73 67/60/68 69/62/70
f 71/63/74 20/64/20 72/65/75
f 71/63/74 10/66/10 20/64/20
f 71/63/74 72/65/75 29/64/29
f 71/63/74 73/67/76 10/66/10
f 71/63/74 29/64/29 44/66/44
f 71/63/74 44/66/44 73/67/76
f 20/64/20 15/68/15 72/65/75
f 72/65/75 15/68/15 29/64/29
f 10/66/10 73/67/76 26/69/26
f 10/66/10 26/69/26 11/70/11
f 44/66/44 51/69/51 73/67/76
f 44/66/44 50/70/50 51/69/51
f 26/69/26 73/67/76 74/71/77
f 74/71/77 73/67/76 51/69/51
f 75/72/78 76/73/79 77/74/80
f 75/72/78 78/75/81 76/73/79
f 75/72/78 77/74/80 79/76/82
f 75/72/78 80/77/83 78/75/81
f 75/72/78 79/76/82 81/78/84
f 75/72/78 81/78/84 80/77/83
f 80/77/83 81/79/84 78/80/81
f 81/79/84 76/81/79 78/80/81
f 81/79/84 79/82/82 76/81/79
f 82/72/85 83/73/86 84/75/87
f 82/72/85 85/74/88 83/73/86
f 82/72/85 84/75/87 86/77/89
f 82/72/85 87/76/90 85/74/88
f 82/72/85 86/77/89 88/78/91
f 82/72/85 88/78/91 87/76/90
f 86/77/89 84/80/87 88/79/91
f 84/80/87 83/81/86 88/79/91
f 83/81/86 87/82/90 88/79/91
f 76/73/92 79/76/92 77/74/92
f 83/73/93 85/74/93 87/76/93
vt -0.0900802 0.975039
vt 0.777923 0.994634
vt 0.379327 0.776047
vt 1.15387 0.783568
vt -0.133207 0.807628
o merged_1_0_node
g polygon_0
usemtl TEX_ANIM_EYE_mat_id
f 43/83/43 36/84/36 26/85/26
f 36/84/36 17/86/17 26/85/26
f 26/85/26 74/87/77 43/83/43
f 48/86/48 49/84/49 51/85/51
f 51/85/51 49/84/49 43/83/43
f 74/87/77 51/85/51 43/83/43
