mtllib Lumineon_M.mtl
v 0 0.00149203 0.0453327
vt 0.808809 -0.926096
vn 0 -0.993713 0.111958
v -0.131538 0.05825793 0.0441232
vt 0.812219 -0.926096
vn -0.574926 -0.8066569 0.136985
v -0.116919 0.04641843 -0.0647943
vt 0.926333 -0.926096
vn -0.4619052 -0.8630052 -0.2046111
v -0.102926 0.07564963 0.196125
vt 0.383691 -0.926096
vn -0.5175239 -0.7433479 0.4237959
v 0 0.01160913 -0.0647943
vn -1.37734E-06 -0.9763119 -0.216368
v 0 0.03764453 0.171419
vt 0.453341 -0.926096
vn 0 -0.9227989 0.385282
v 0.116919 0.04641843 -0.0647943
vn 0.4619049 -0.8630068 -0.204605
v 0.102926 0.07564963 0.196125
vn 0.5175239 -0.7433479 0.4237959
v 0.131538 0.05825793 0.0441232
vn 0.574926 -0.8066569 0.136985
v -0.195722 0.116181 -0.0647943
vt 0.926333 -0.465386
vn -0.8126172 -0.5482062 -0.1977961
v -0.225426 0.161685 0.0453327
vt 0.808809 0.0518542
vn -0.9409429 -0.261769 0.214717
v 1.77584E-06 0.05146413 -0.174751
vn 3.227989E-06 -0.8577058 -0.5141409
v 0 0.103879 0.267608
vt 0.185725 -0.60522
vn 0 -0.5936531 0.8047211
v 0.195722 0.116181 -0.0647943
vn 0.8126259 -0.548194 -0.197794
v 0.225426 0.161685 0.0453327
vn 0.9409429 -0.261769 0.214717
v -0.233838 0.222864 -0.0647943
vt 0.926333 0.747259
vn -0.9872454 -0.06034052 -0.1473281
v -0.162144 0.16183 0.221051
vt 0.316982 0.0534991
vn -0.8065136 -0.2507989 0.5353838
v -0.21869 0.331337 0.0453327
vt 0.808809 1.97444
vn -0.9632914 0.1289541 0.2354581
v -0.139983 0.11589 -0.174751
vt 0.926333 -0.468689
vn -0.6068016 -0.5963766 -0.5254776
v 0.139986 0.11589 -0.174751
vn 0.6067941 -0.5963971 -0.5254631
v 0.162144 0.16183 0.221051
vn 0.8065136 -0.2507989 0.5353838
v -0.213817 0.397302 -0.0647943
vt 0.926333 1.97444
vn -0.8973789 0.397899 -0.190755
v -0.191444 0.41529 0.0453327
vn -0.8476472 0.4888321 0.206246
v -0.152445 0.331341 0.221574
vt 0.315506 1.97444
vn -0.7890211 0.214372 0.5757521
v 0 0.215077 0.332302
vt 0.00333803 0.658747
vn 0 -0.3304579 0.9438208
v -0.0878142 0.258741 0.276938
vt 0.159422 1.15507
vn -0.515912 0.101786 0.850573
v -0.197966 0.248202 -0.174751
vt 0.926333 1.03527
vn -0.8558708 -0.02597879 -0.5165369
v 0.197943 0.248202 -0.174801
vn 0.855852 -0.0259769 -0.516568
v 0.233838 0.222864 -0.0647943
vn 0.987236 -0.060339 -0.147392
v 0 0.12814 -0.271063
vt 0.926333 -0.32945
vn -2.02509E-06 -0.6611658 -0.7502398
v -0.12617 0.415387 0.186946
vt 0.409569 1.97444
vn -0.611381 0.520196 0.59633
v -0.116919 0.496439 -0.0647943
vn -0.5113482 0.8214953 -0.2523261
v -0.0928227 0.498899 0.130823
vt 0.567792 1.97444
vn -0.451674 0.789732 0.415107
v -0.121472 0.505201 0.0453327
vn -0.5659308 0.8223037 0.05949017
v 0 0.241363 0.315145
vt 0.0517093 0.957535
vn 0 0.5465921 0.8373991
v 0 0.361291 0.286852
vt 0.131473 1.97444
vn 0 0.4433458 0.8963507
vn 0 0.2296121 0.9732822
v 0.0878142 0.258741 0.276938
vn 0.515912 0.101786 0.850573
v 0.152445 0.331341 0.221574
vn 0.7890213 0.2143711 0.5757522
v -0.0967949 0.195377 -0.271063
vt 0.926333 0.434815
vn -0.5580031 -0.270694 -0.7844471
v -0.149249 0.410399 -0.174751
vn -0.646818 0.5259351 -0.5522851
v -0.0967949 0.330826 -0.271063
vn -0.516013 0.263732 -0.81497
v 0.21869 0.331337 0.0453327
vn 0.9632914 0.1289541 0.2354581
v 0.0967949 0.195377 -0.271063
vn 0.5579339 -0.270733 -0.7844829
v 0.213817 0.397302 -0.0647943
vn 0.89739 0.397875 -0.190753
v 0.0967949 0.330826 -0.271063
vn 0.5159498 0.2637669 -0.8149987
v 0.149252 0.410399 -0.174751
vn 0.6468139 0.5259529 -0.5522729
v 0 0.541366 0.0453327
vn 0 0.9957368 0.09224078
v 0 0.482339 0.200505
vt 0.371342 1.97444
vn 0 0.7306467 0.6827558
v 0.191444 0.41529 0.0453327
vn 0.8476472 0.4888321 0.206246
v 0.12617 0.415387 0.186946
vn 0.611381 0.520196 0.59633
v 0 0.398063 -0.271063
vn -1.76339E-06 0.561529 -0.8274571
v 0 0.226222 -0.314459
vt 0.926333 0.785428
vn 0 -0.04842529 -0.9988269
v 0 0.531249 -0.0647943
vn -1.37367E-06 0.9766027 -0.2150519
v 1.77584E-06 0.491394 -0.174751
vn 3.38123E-06 0.8200011 -0.5723621
v 0.0928227 0.498899 0.130823
vn 0.451674 0.789732 0.415107
v 0.116919 0.496439 -0.0647943
vn 0.5113479 0.8214977 -0.2523189
v 0.121472 0.505201 0.0453327
vn 0.5659308 0.8223037 0.05949007
o merged_0_0_node
g polygon_0
usemtl karada_mat_id
f 1/1/1 2/2/2 3/3/3
f 1/1/1 4/4/4 2/2/2
f 1/1/1 3/3/3 5/3/5
f 1/1/1 6/5/6 4/4/4
f 1/1/1 5/3/5 7/3/7
f 1/1/1 8/4/8 6/5/6
f 1/1/1 7/3/7 9/2/9
f 1/1/1 9/2/9 8/4/8
f 2/2/2 10/6/10 3/3/3
f 2/2/2 4/4/4 11/7/11
f 2/2/2 11/7/11 10/6/10
f 5/3/5 12/3/12 7/3/7
f 5/3/5 3/3/3 12/3/12
f 6/5/6 8/4/8 13/8/13
f 6/5/6 13/8/13 4/4/4
f 9/2/9 7/3/7 14/6/14
f 9/2/9 15/7/15 8/4/8
f 9/2/9 14/6/14 15/7/15
f 11/7/11 16/9/16 10/6/10
f 11/7/11 4/4/4 17/10/17
f 11/7/11 18/11/18 16/9/16
f 4/4/4 13/8/13 17/10/17
f 3/3/3 19/12/19 12/3/12
f 3/3/3 10/6/10 19/12/19
f 7/3/7 20/12/20 14/6/14
f 7/3/7 12/3/12 20/12/20
f 8/4/8 15/7/15 21/10/21
f 8/4/8 21/10/21 13/8/13
f 18/11/18 22/13/22 16/9/16
f 18/11/18 23/11/23 22/13/22
f 18/11/18 24/14/24 23/11/23
f 17/10/17 13/8/13 25/15/25
f 17/10/17 26/16/26 24/14/24
f 17/10/17 25/15/25 26/16/26
f 13/8/13 21/10/21 25/15/25
f 10/6/10 27/17/27 19/12/19
f 10/6/10 16/9/16 27/17/27
f 16/9/16 22/13/22 27/17/27
f 14/6/14 20/12/20 28/17/28
f 14/6/14 29/9/29 15/7/15
f 14/6/14 28/17/28 29/9/29
f 12/3/12 19/12/19 30/18/30
f 12/3/12 30/18/30 20/12/20
f 23/11/23 24/14/24 31/19/31
f 23/11/23 32/13/32 22/13/22
f 23/11/23 31/19/31 33/20/33
f 23/11/23 34/11/34 32/13/32
f 23/11/23 33/20/33 34/11/34
f 26/16/26 25/15/25 35/21/35
f 26/16/26 36/22/36 24/14/24
f 26/16/26 35/21/37 36/22/36
f 24/14/24 36/22/36 31/19/31
f 21/10/21 37/16/38 25/15/25
f 21/10/21 38/14/39 37/16/38
f 37/16/38 35/21/35 25/15/25
f 37/16/38 36/22/36 35/21/37
f 37/16/38 38/14/39 36/22/36
f 27/17/27 39/23/40 19/12/19
f 27/17/27 22/13/22 40/13/41
f 27/17/27 41/13/42 39/23/40
f 27/17/27 40/13/41 41/13/42
f 22/13/22 32/13/32 40/13/41
f 19/12/19 39/23/40 30/18/30
f 15/7/15 29/9/29 42/11/43
f 28/17/28 20/12/20 43/23/44
f 28/17/28 44/13/45 29/9/29
f 28/17/28 43/23/44 45/13/46
f 28/17/28 46/13/47 44/13/45
f 28/17/28 45/13/46 46/13/47
f 29/9/29 44/13/45 42/11/43
f 20/12/20 30/18/30 43/23/44
f 33/20/33 47/11/48 34/11/34
f 33/20/33 31/19/31 48/24/49
f 33/20/33 48/24/49 47/11/48
f 31/19/31 36/22/36 48/24/49
f 38/14/39 42/11/43 49/11/50
f 38/14/39 50/19/51 36/22/36
f 38/14/39 49/11/50 50/19/51
f 36/22/36 50/19/51 48/24/49
f 42/11/43 44/13/45 49/11/50
f 41/13/42 40/13/41 51/13/52
f 41/13/42 52/25/53 39/23/40
f 41/13/42 51/13/52 52/25/53
f 52/25/53 51/13/52 45/13/46
f 52/25/53 43/23/44 30/18/30
f 52/25/53 30/18/30 39/23/40
f 52/25/53 45/13/46 43/23/44
f 45/13/46 51/13/52 46/13/47
f 32/13/32 34/11/34 53/13/54
f 32/13/32 54/13/55 40/13/41
f 32/13/32 53/13/54 54/13/55
f 51/13/52 54/13/55 46/13/47
f 51/13/52 40/13/41 54/13/55
f 34/11/34 47/11/48 53/13/54
f 50/19/51 55/20/56 48/24/49
f 50/19/51 49/11/50 55/20/56
f 48/24/49 55/20/56 47/11/48
f 44/13/45 46/13/47 56/13/57
f 44/13/45 56/13/57 49/11/50
f 54/13/55 53/13/54 56/13/57
f 54/13/55 56/13/57 46/13/47
f 55/20/56 57/11/58 47/11/48
f 55/20/56 49/11/50 57/11/58
f 57/11/58 56/13/57 53/13/54
f 57/11/58 53/13/54 47/11/48
f 57/11/58 49/11/50 56/13/57
v -0.0375831 0.362771 -0.515236
vt 0.0201558 0.928456
vn -0.5031028 0.6925307 0.5169998
v -0.0375831 0.337302 -0.541685
vt 0.0201558 0.927555
vn -0.4816181 -0.4954881 -0.7228662
v -0.0357442 0.269933 -0.45158
vt 0.0290126 0.664738
vn -0.9384807 -0.3119319 0.148164
v 0 0.372423 -0.548205
vt 0.201169 0.998747
vn 0 0.7295241 -0.6839551
v 0 0.283911 -0.441656
vt 0.201169 0.672703
vn 0 0.7777812 0.6285352
v 0.0375831 0.362771 -0.515236
vt 0.382183 0.928456
vn 0.5031028 0.6925307 0.5169998
v 0 0.255954 -0.461505
vt 0.201169 0.656773
vn 0 -0.9041879 -0.427135
v 0.0375831 0.337302 -0.541685
vt 0.382183 0.927555
vn 0.4816181 -0.4954881 -0.7228662
v 0 0.234856 -0.327852
vt 0.201169 0.402921
vn 0 0.918319 0.395841
v 0.0357442 0.269933 -0.45158
vt 0.373326 0.664738
vn 0.9384807 -0.3119319 0.148164
vn 0 -0.9877689 -0.155925
v 0.200341 0.450607 0.0254097
vt -0.0498676 0.497132
vn 0.6265259 0.03311349 0.7786969
v 0.43806 0.617139 -0.194829
vt 0.913361 0.868978
vn 0.6222261 0.154262 0.7674881
v 0.352474 0.6491671 -0.142844
vt 0.686 0.940492
vn 0.5683822 0.2429461 0.7860782
v 0.455156 0.37997 -0.17957
vt 0.846623 0.339407
v 0.322999 0.227966 -0.091667
vt 0.462175 0
vn 0.6119279 -0.07681298 0.7871748
v 0.46534 0.6758181 -0.245184
vt 1.13359 1
vn 0.5789911 0.3590201 0.7320341
vn -0.6222261 -0.154262 -0.7674881
vn -0.6265259 -0.0331136 -0.7786969
vn -0.5683817 -0.2429459 -0.7860786
vn -0.5789909 -0.3590209 -0.7320338
vn -0.6119279 0.07681298 -0.7871748
v 0.325336 0.157146 -0.10734
vt 0.527184 0.137241
vn 0.8848868 0.3711939 0.281408
v 0.322934 0.241313 -0.199762
vt 0.939112 0.313941
vn 0.9176992 0.3053081 0.2541951
v 0.21557 0.408403 -0.0128401
vt 0.105996 0.664726
vn 0.9155873 0.2987611 0.2691501
v 0.304283 0.149721 -0.0404943
vt 0.229252 0.121653
vn 0.8708781 0.376377 0.316088
v 0.398705 0.09820973 -0.0846112
vt 0.425882 0.0135119
vn 0.5536798 0.7903826 0.2621719
vn -0.8848864 -0.3711948 -0.2814078
vn -0.915587 -0.298762 -0.26915
vn -0.917699 -0.305309 -0.254195
vn -0.8708781 -0.376377 -0.316088
v 0.398705 0.09820963 -0.0846111
vn -0.5536802 -0.7903823 -0.2621721
v -0.200341 0.450607 0.0254097
vn 0.6265259 -0.03311349 -0.7786969
v -0.43806 0.617139 -0.194829
vn 0.6222261 -0.154262 -0.7674881
v -0.352474 0.6491671 -0.142844
vn 0.5683822 -0.2429461 -0.7860782
v -0.455156 0.37997 -0.17957
v -0.322999 0.227966 -0.091667
vn 0.6119279 0.07681298 -0.7871748
v -0.46534 0.6758181 -0.245184
vn 0.5789911 -0.3590201 -0.7320341
vn -0.6222261 0.154262 0.7674881
vn -0.6265259 0.0331136 0.7786969
vn -0.5683817 0.2429459 0.7860786
vn -0.5789909 0.3590209 0.7320338
vn -0.6119279 -0.07681298 0.7871748
v -0.325336 0.157146 -0.10734
vn 0.8848868 -0.3711939 -0.281408
v -0.322934 0.241313 -0.199762
vn 0.9176992 -0.3053081 -0.2541951
v -0.21557 0.408403 -0.0128401
vn 0.9155873 -0.2987611 -0.2691501
v -0.304283 0.149721 -0.0404943
vn 0.8708781 -0.376377 -0.316088
v -0.398705 0.09820973 -0.0846112
vn 0.5536798 -0.7903826 -0.2621719
vn -0.8848864 0.3711948 0.2814078
vn -0.915587 0.298762 0.26915
vn -0.917699 0.305309 0.254195
vn -0.8708781 0.376377 0.316088
v -0.398705 0.09820963 -0.0846111
vn -0.5536802 0.7903823 0.2621721
vt 0.382183 0.656773
v 0.0804302 -0.131041 0.0611593
vt 0.901737 0.187316
vn 0.908821 0.404014 0.104005
v 0.0791564 -0.09950206 -0.0502258
v 0.0249261 -0.0015012 0.042962
v -0.0791564 -0.09950206 -0.0502258
vn -0.908821 0.404014 0.104005
v -0.0804302 -0.131041 0.0611593
v -0.0249261 -0.0015012 0.042962
vn -0.908821 -0.404014 -0.104005
vn 0.908821 -0.404014 -0.104005
o merged_1_0_node
g polygon_0
usemtl hire_mat_id
f 58/26/59 59/27/60 60/28/61
f 58/26/59 61/29/62 59/27/60
f 58/26/59 60/28/61 62/30/63
f 58/26/59 63/31/64 61/29/62
f 58/26/59 62/30/63 63/31/64
f 59/27/60 64/32/65 60/28/61
f 61/29/62 63/31/64 65/33/66
f 62/30/63 60/28/61 66/34/67
f 62/30/63 67/35/68 63/31/64
f 62/30/63 66/34/67 67/35/68
f 65/33/66 67/35/68 64/32/65
f 65/33/66 63/31/64 67/35/68
f 60/28/61 64/32/65 66/34/69
f 66/34/69 64/32/65 67/35/68
f 68/36/70 69/37/71 70/38/72
f 68/36/70 71/39/70 69/37/71
f 68/36/70 72/40/73 71/39/70
f 70/38/72 69/37/71 73/41/74
f 69/37/75 68/36/76 70/38/77
f 69/37/75 71/39/76 68/36/76
f 69/37/75 70/38/77 73/41/78
f 71/39/76 72/40/79 68/36/76
f 74/42/80 75/43/81 76/44/82
f 74/42/80 76/44/82 77/45/83
f 74/42/80 77/45/83 78/46/84
f 74/42/85 76/44/86 75/43/87
f 74/42/85 77/45/88 76/44/86
f 74/42/85 79/46/89 77/45/88
f 80/36/90 81/37/91 82/38/92
f 80/36/90 83/39/90 81/37/91
f 80/36/90 84/40/93 83/39/90
f 82/38/92 81/37/91 85/41/94
f 81/37/95 80/36/96 82/38/97
f 81/37/95 83/39/96 80/36/96
f 81/37/95 82/38/97 85/41/98
f 83/39/96 84/40/99 80/36/96
f 86/42/100 87/43/101 88/44/102
f 86/42/100 88/44/102 89/45/103
f 86/42/100 89/45/103 90/46/104
f 86/42/105 88/44/106 87/43/107
f 86/42/105 89/45/108 88/44/106
f 86/42/105 91/46/109 89/45/108
f 59/47/60 65/47/66 64/47/65
f 59/47/60 61/47/62 65/47/66
f 92/48/110 93/48/110 94/48/110
f 95/48/111 96/48/111 97/48/111
f 92/48/112 94/48/112 93/48/112
f 96/48/113 95/48/113 97/48/113
vt 0.991222 0.757268
vt 0.0116966 0.75747
vt 0.991222 0.993695
vt 0.00877828 0.9937
o merged_2_0_node
g polygon_0
usemtl TEX_ANIM_EYE_mat_id
f 11/49/11 17/50/17 18/51/18
f 17/50/17 24/52/24 18/51/18
f 15/49/15 42/51/43 21/50/21
f 21/50/21 42/51/43 38/52/39
