mtllib Dewott.mtl
v 0.173485 0.119962 0.0586457
vt 0.99999 0.873888
vn 0.7751881 0.501332 0.3843821
v 0.142393 0.141842 0.0159672
vt 0.900988 0.944103
vn 0.6046641 0.7958171 -0.0325055
v 0.112633 0.152827 0.062319
vt 0.85541 0.811333
vn 0.4498849 0.7854848 0.4249909
v 0.170526 0.110444 0.00580577
vt 0.99999 0.988056
vn 0.8680981 0.4777761 -0.134669
v 0.126516 0.117948 0.0852154
vt 0.954855 0.764889
vn 0.3017888 0.8014506 0.5163337
v 0.181466 0.0736916 0.0260543
vt 1.09899 0.944103
vn 0.9900687 0.123597 0.06699088
v 0.131915 0.103983 0.111708
vt 0.99999 0.725522
vn 0.4833789 0.392922 0.7822769
v 0.169694 0.0533025 0.0770498
vt 1.14457 0.811333
vn 0.8443673 0.09743103 0.5268312
v 0.144329 0.0868778 0.0898141
vt 1.04513 0.764889
vn 0.7704349 -0.015958 0.637319
v 0.109685 0.116054 0.102889
vt 0.957502 0.725693
vn -0.06709849 0.5050859 0.8604569
v 0.131862 0.0773725 0.108614
vt 1.04248 0.725693
vn 0.2862509 -0.1112229 0.9516774
v -0.173485 0.119962 0.0586457
vn -0.7751881 0.501332 0.3843821
v -0.112633 0.152827 0.062319
vn -0.4498849 0.7854848 0.4249909
v -0.142393 0.141842 0.0159672
vn -0.6046641 0.7958171 -0.03250561
v -0.126516 0.117948 0.0852154
vn -0.3017882 0.8014504 0.5163343
v -0.170526 0.110444 0.00580577
vn -0.8680981 0.4777761 -0.134669
v -0.131915 0.103983 0.111708
vn -0.4833789 0.392922 0.7822769
v -0.181466 0.0736916 0.0260543
vn -0.9900687 0.123597 0.06699079
v -0.144329 0.0868777 0.0898141
vn -0.770434 -0.0159577 0.63732
v -0.169694 0.0533025 0.0770498
vn -0.8443673 0.09743123 0.5268312
v -0.109685 0.116054 0.102889
vn 0.0670973 0.505086 0.8604569
v -0.131862 0.0773725 0.108614
vn -0.2862511 -0.111223 0.9516773
v 0.0770325 0.153327 -0.11935
vt -0.142271 0.361815
vn 0.492088 0.205219 -0.846011
v 0.0773451 0.0790579 -0.116499
vt -0.119835 0.218677
vn 0.07626101 -0.7692512 -0.6343792
v -0.0773448 0.0790579 -0.116499
vt 0.119835 0.218677
vn -0.07626131 -0.7692511 -0.6343791
v 0.146933 0.0597671 -0.0688553
vt -0.299905 0.175266
vn 0.768034 0.222593 -0.60048
v -0.0770322 0.153327 -0.11935
vt 0.142271 0.361815
vn -0.492088 0.205219 -0.846011
v 0.146516 0.153327 0
vt -0.452684 0.381684
vn 0.9600199 0.24368 -0.137775
v 0.0478784 0.296541 -0.0715246
vt -0.125739 0.706815
vn 0.3016202 0.7783604 -0.5506183
v 0.0957566 0.296541 2.45141E-05
vt -0.347037 0.738161
vn 0.5336799 0.8196678 -0.2081599
v 0 0.0552158 0
vt 0 0.0404879
vn 0 -0.9999967 0.002575699
v 0.0784892 0 0
vt -0.142568 0.0109696
vn 0.133595 -0.9910296 0.003575639
v 0.148306 0.0790579 0
vt -0.270166 0.0911112
vn -0.169148 -0.9855902 0.0009612712
v 0.164703 0.0673644 -0.0283257
vt -0.389276 0.169943
vn 0.8883127 0.3019519 -0.3460139
v -0.0478781 0.296541 -0.0715246
vt 0.12574 0.706815
vn -0.3016202 0.7783604 -0.5506183
v -0.146933 0.0597671 -0.0688553
vt 0.299905 0.175266
vn -0.7680341 0.222592 -0.6004801
v -0.0957563 0.296541 2.45141E-05
vt 0.347038 0.73816
vn -0.5336802 0.8196673 -0.2081611
v -0.146516 0.153327 0
vt 0.452684 0.381684
vn -0.9600199 0.24368 -0.137775
v -0.0784892 0 0
vt 0.142569 0.0109696
vn -0.1335961 -0.9910294 0.003575671
v 0.182612 0.0426856 0.00887339
vt -0.478647 0.16462
vn 0.9507732 0.306536 -0.04545321
v -0.164703 0.0673644 -0.0283257
vt 0.389277 0.169943
vn -0.8883127 0.3019519 -0.3460139
v -0.148306 0.0790579 0
vt 0.270167 0.0911109
vn 0.169148 -0.9855902 0.0009612342
v -0.182611 0.0426856 0.00887339
vt 0.478648 0.16462
vn -0.9507736 0.3065349 -0.04545298
v -0.210193 0.476161 -0.000341854
vt 0.242598 0.560575
vn -0.9903513 0.06404602 -0.122892
v -0.130461 0.395418 -0.151664
vt 0.255368 0.547644
vn -0.6360541 -0.5058211 -0.5827351
v -0.192724 0.395418 -0.000341854
vt 0.245396 0.547644
vn -0.8816122 -0.4719582 0.003914982
v -0.139827 0.484585 -0.162008
vt 0.253868 0.561924
vn -0.5958413 0.04698852 -0.8017264
v -0.170745 0.461253 0.148133
vt 0.248916 0.558187
vn -0.79901 -0.07057261 0.5971621
v -0.121766 0.573753 -0.148782
vt 0.25676 0.576205
vn -0.638604 0.5078701 -0.578146
v -0.149546 0.573753 0.141676
vt 0.252311 0.576205
vn -0.6599771 0.468985 0.5869271
v -0.182033 0.573753 -0.000341854
vt 0.247108 0.576205
vn -0.8781271 0.4729381 -0.07226671
v -0.111888 0.323976 -0.000341854
vt 0.258342 0.536202
vn -0.4337271 -0.9000232 -0.04288611
v 0 0.415242 -0.201686
vt 0.276262 0.550819
vn 0 -0.255832 -0.9667212
v 0 0.328039 -0.130513
vt 0.276262 0.536853
vn 0 -0.8757197 -0.4828198
v -0.143654 0.382364 0.14924
vt 0.253255 0.545553
vn -0.5153549 -0.5888508 0.6226268
v -0.111888 0.656433 -0.000341854
vt 0.258342 0.589446
vn -0.4447701 0.8930281 -0.06841341
v 0 0.549716 -0.193398
vt 0.276262 0.572355
vn 0 0.3237711 -0.9461355
v -0.045209 0.6445819 -0.102512
vt 0.269021 0.587548
vn -0.2821789 0.8297347 -0.4815758
v 0 0.297827 -0.000341854
vt 0.276262 0.532014
vn 0 -0.999626 -0.0273456
v 0.130461 0.395418 -0.151664
vt 0.297155 0.547644
vn 0.6360541 -0.5058211 -0.5827351
v 0.111888 0.323976 -0.000341854
vt 0.294181 0.536202
vn 0.4337271 -0.9000232 -0.04288601
v 0 0.320234 0.127529
vt 0.276262 0.535603
vn 0 -0.9111708 0.4120289
v 0 0.666049 -0.0501836
vt 0.276262 0.590986
vn 0 0.9792266 -0.2027689
v 0.139827 0.484585 -0.162008
vt 0.298655 0.561924
vn 0.5958413 0.04698863 -0.8017264
v 0.121766 0.573753 -0.148782
vt 0.295763 0.576205
vn 0.638604 0.5078701 -0.578146
v 0.045209 0.6445819 -0.102512
vt 0.283502 0.587548
vn 0.2821789 0.8297347 -0.4815758
v 0 0.662042 0.111546
vt 0.276262 0.590344
vn 0 0.904718 0.426011
v 0 0.573753 0.198437
vt 0.276262 0.576205
vn 0 0.4449882 0.8955364
v 0.143654 0.382364 0.14924
vt 0.299268 0.545553
vn 0.5153549 -0.5888508 0.6226268
v 0.192724 0.395418 -0.000341854
vt 0.307127 0.547644
vn 0.8816122 -0.4719582 0.003915061
v 0.111888 0.656433 -0.000341854
vt 0.294181 0.589446
vn 0.4447692 0.8930285 -0.06841344
v 0 0.674631 -0.000341854
vt 0.276262 0.592361
vn 0 0.9995723 -0.02924571
v 0.210193 0.476161 -0.000341854
vt 0.309925 0.560575
vn 0.9903513 0.06404602 -0.122892
v 0.149546 0.573753 0.141676
vt 0.300212 0.576205
vn 0.6599771 0.468985 0.5869271
v 0.170745 0.461253 0.148133
vt 0.303607 0.558187
vn 0.79901 -0.0705727 0.5971621
v 0.182033 0.573753 -0.000341854
vt 0.305415 0.576205
vn 0.878127 0.472938 -0.07226681
v 0 0.314776 0
vt 0.203396 0.660276
vn 0 0.99998 0.00631622
vt 0.226364 0.651529
vt 0.180428 0.651529
vt 0.249332 0.651529
vt 0.15746 0.651529
v 0.0478784 0.296541 0.0699819
vn 0.06030473 0.8079034 0.5862213
v -0.0478782 0.296541 0.0699818
vn -0.06030488 0.8079038 0.5862208
v 0.0773451 0.0790579 0.114962
vt 1.12534 0.226715
vn 0.0274042 -0.751355 0.659329
v -0.0770322 0.153327 0.115456
vt 0.839831 0.379098
vn -0.2662641 0.0186715 0.9637192
v -0.07734479 0.0790579 0.114962
vt 0.874661 0.226716
vn -0.0274048 -0.751355 0.659329
v 0.0770325 0.153327 0.115456
vt 1.16017 0.379098
vn 0.2662641 0.0186716 0.9637192
vt 1 0.0465379
v 0.155117 0.0508912 0.0856474
vt 1.28995 0.118083
vn 0.7031108 0.3024699 0.6435428
vt 1.14558 0.0156801
vt 1.27481 0.096458
v -0.155117 0.0508912 0.0856474
vt 0.710055 0.118084
vn -0.7031108 0.3024699 0.6435428
vt 0.890259 0.70378
vt 0.523862 0.381684
vt 1.47614 0.381681
v 0.168651 0.0668007 0.0403899
vt 1.40598 0.14135
vn 0.8900633 0.3588862 0.2810481
vt 0.854422 0.0156791
vt 1.10974 0.70378
v -0.168651 0.0668007 0.0403899
vt 0.594026 0.141352
vn -0.8900635 0.3588858 0.2810479
vt 0.477996 0.16462
vt 1.522 0.164618
vt 0.725191 0.0964556
vt 0.631996 0.289344
vt 0.629843 0.298747
vn 0.4865652 -0.8701923 0.07758723
vt 0.634087 0.306808
vn 0.3138059 -0.9126388 0.261947
vt 0.625599 0.290686
vn 0.7303891 -0.6825361 0.0260072
vt 0.648861 0.317031
vt 0.627988 0.278408
vn 0.3900479 -0.9171487 -0.08185938
vt 0.630377 0.26613
vn 0.183356 -0.9380777 -0.2939229
vt 0.648861 0.262021
vt 0.70249 0.289344
vt 0.700399 0.306808
vn -0.313805 -0.9126391 0.261947
vt 0.704643 0.298747
vn -0.486564 -0.8701929 0.077587
vt 0.685625 0.317031
vt 0.708887 0.290686
vn -0.7303881 -0.6825371 0.02600721
vt 0.706498 0.278408
vn -0.3900479 -0.9171487 -0.08185907
vt 0.704109 0.26613
vn -0.183356 -0.9380777 -0.2939229
vt 0.685625 0.262021
v -0.0177272 0.468892 0.211354
vt 0.328868 0.0632914
vn -0.4634769 0.8849138 0.04600829
v 0.0177272 0.468892 0.211354
vt 0.365143 0.0632914
vn 0.4634769 0.8849138 0.04600799
v 0 0.461218 0.195125
vt 0.347005 0.0554396
vn 0 0.7428191 -0.6694921
v 0 0.461218 0.227583
vn 0 0.4553821 0.8902962
v -0.0286833 0.448801 0.201324
vt 0.317658 0.042735
vn -0.9196303 0 -0.3927851
v -0.025188 0.448801 0.221384
vt 0.321234 0.042735
vn -0.7282677 0 0.6852928
v 0.0286833 0.448801 0.201324
vt 0.376353 0.042735
vn 0.9196299 0 -0.392786
v 0.025188 0.448801 0.221384
vt 0.372777 0.042735
vn 0.7282677 0 0.6852928
v -0.0177272 0.42871 0.211354
vt 0.328868 0.0221785
vn -0.4634769 -0.8849138 0.04600849
v 0 0.436384 0.195125
vt 0.347005 0.0300304
vn 0 -0.7428182 -0.6694932
v 0 0.436384 0.227583
vn 0 -0.4553821 0.8902962
v 0.0177272 0.42871 0.211354
vt 0.365143 0.0221785
vn 0.4634769 -0.8849138 0.04600829
v 0 0.0912383 -0.369302
vt 0.433681 0.0519494
vn 0 0.9458191 -0.324694
v 0.0829727 0.0413079 -0.382806
vt 0.446237 0.0556668
vn 0.4228878 -0.7109937 -0.5618308
v -0.0829727 0.0413079 -0.382806
vt 0.421124 0.0556668
vn -0.48212 0.142479 -0.8644421
v 0.0656738 0.0775731 -0.228451
vt 0.443619 0.0316721
vn 0.9320359 -0.157205 0.32649
v -0.0656738 0.0775731 -0.228451
vt 0.423742 0.0316721
vn -0.5390381 -0.7671631 0.347705
v 0 0.101108 -0.128281
vt 0.433681 0.0161005
vn 0 0.9875392 0.157373
v -0.229375 0.220803 0.136424
vt 0.724043 0.419598
vn -0.7836863 0.3552242 0.5095602
vt 0.423923 0.798282
vt 0.617354 0.884878
vt 0.404757 0.699436
vt 0.703669 0.854804
v 0.229375 0.220803 0.136424
vn 0.7836859 0.355224 0.5095609
v 0 0.8081129 -0.14716
vt 0.276262 0.613738
vn 0 0.7408797 0.6716377
vn 0.8978355 0.4172558 0.1406739
vn 0 0.176146 -0.984364
v 0 0.6858059 -0.102821
vt 0.276262 0.59415
vn 0 0.9529228 0.303213
vn -0.8978353 0.4172561 0.140674
v 0 0.7266399 -0.06376579
vt 0.276262 0.60069
vn 0 0.2187341 0.9757845
v -0.21634 0.607103 -0.000706866
vt 0.399516 0.0883237
vn -0.878691 0.477391 0
v -0.0981145 0.642089 -0.000706866
vt 0.415484 0.0930489
vn -0.2837619 0.9588948 0
v -0.139734 0.565483 -0.0512609
vt 0.409863 0.0827025
vn -0.4407811 0.2394751 -0.8650802
v -0.139734 0.565483 0.0498472
vn -0.4407811 0.2394751 0.8650802
v -0.181354 0.488877 -0.000706866
vt 0.404242 0.072356
vn -0.9588945 -0.2837628 0
v 0.21634 0.607103 -0.000706866
vt 0.457955 0.0883237
vn 0.878691 0.477391 0
v 0.139734 0.565483 -0.0512609
vt 0.447609 0.0827025
vn 0.4407811 0.2394751 -0.8650802
v 0.0981145 0.642089 -0.000706866
vt 0.441987 0.0930489
vn 0.2837619 0.9588948 0
v 0.181354 0.488877 -0.000706866
vt 0.45323 0.0723559
vn 0.9588948 -0.2837619 0
v 0.139734 0.565483 0.0498472
vn 0.4407811 0.2394751 0.8650802
v 0 0.377991 0.183649
vt 0 0.777991
vn 0 -0.5307742 0.8475133
vt -0.359134 0.788924
vt 0 0.633599
v 0 0.461253 0.213676
vt 0 0.986145
vn 0 -0.05229309 0.9986318
vt 0.359134 0.788924
v 0.12679 0.43539 0.172417
vt 0.571074 0.0486867
vn 0.5686489 0.04238009 -0.8214879
v 0.0833396 0.43539 0.183457
vt 0.567214 0.0486867
vn -0.8584611 -0.06463901 -0.5087891
v 0.228832 0.551034 0.146492
vt 0.580139 0.0589601
vn 0.9138377 0.3975368 -0.08285657
v 0.211278 0.355969 0.150952
vt 0.57858 0.0416312
vn 0.7001939 -0.4200729 -0.5772929
v 0.115693 0.43539 0.20079
vt 0.570088 0.0486867
vn 0.3923568 -0.008425816 0.9197745
v -0.0833396 0.43539 0.183457
vt 0.552407 0.0486867
vn 0.8584611 -0.06463891 -0.5087891
v -0.12679 0.43539 0.172417
vt 0.548547 0.0486867
vn -0.5686489 0.0423799 -0.8214879
v -0.228832 0.551034 0.146492
vt 0.539482 0.0589601
vn -0.913838 0.397537 -0.0828526
v -0.211278 0.355969 0.150952
vt 0.541041 0.0416312
vn -0.7001928 -0.4200749 -0.5772929
v -0.115693 0.43539 0.20079
vt 0.549533 0.0486867
vn -0.3923568 -0.008425926 0.9197745
vn -0.743857 -0.5040519 -0.4388719
vn -0.7608172 -0.5395491 -0.3606161
vn -0.768584 -0.520667 -0.371732
vn -0.7891474 -0.4904963 -0.3696752
vn -0.7466447 -0.4794618 -0.4611268
vn -0.621616 -0.45117 -0.640343
vn -0.775935 -0.501504 -0.382647
vn -0.8032439 -0.4655489 -0.371569
vn 0.7438565 -0.5040527 -0.4388717
vn 0.768584 -0.520667 -0.371732
vn 0.760818 -0.539548 -0.360616
vn 0.7891471 -0.490497 -0.369675
vn 0.7466443 -0.4794622 -0.4611272
vn 0.621616 -0.45117 -0.640343
vn 0.775935 -0.501504 -0.382647
vn 0.8032439 -0.4655489 -0.371569
o polySurface2_0_0_node
g polygon_0
usemtl lambert2_mat_id
f 1/1/1 2/2/2 3/3/3
f 1/1/1 4/4/4 2/2/2
f 1/1/1 3/3/3 5/5/5
f 1/1/1 6/6/6 4/4/4
f 1/1/1 5/5/5 7/7/7
f 1/1/1 8/8/8 6/6/6
f 1/1/1 7/7/7 9/9/9
f 1/1/1 9/9/9 8/8/8
f 5/5/5 10/10/10 7/7/7
f 9/9/9 7/7/7 11/11/11
f 11/11/11 7/7/7 10/10/10
f 12/1/12 13/3/13 14/2/14
f 12/1/12 15/5/15 13/3/13
f 12/1/12 14/2/14 16/4/16
f 12/1/12 17/7/17 15/5/15
f 12/1/12 16/4/16 18/6/18
f 12/1/12 19/9/19 17/7/17
f 12/1/12 18/6/18 20/8/20
f 12/1/12 20/8/20 19/9/19
f 15/5/15 17/7/17 21/10/21
f 19/9/19 22/11/22 17/7/17
f 17/7/17 22/11/22 21/10/21
f 23/12/23 24/13/24 25/14/25
f 23/12/23 26/15/26 24/13/24
f 23/12/23 25/14/25 27/16/27
f 23/12/23 28/17/28 26/15/26
f 23/12/23 27/16/27 29/18/29
f 23/12/23 30/19/30 28/17/28
f 23/12/23 29/18/29 30/19/30
f 24/13/24 31/20/31 25/14/25
f 24/13/24 32/21/32 31/20/31
f 24/13/24 33/22/33 32/21/32
f 26/15/26 28/17/28 34/23/34
f 27/16/27 35/24/35 29/18/29
f 27/16/27 25/14/25 36/25/36
f 27/16/27 37/26/37 35/24/35
f 27/16/27 36/25/36 38/27/38
f 27/16/27 38/27/38 37/26/37
f 31/20/31 39/28/39 25/14/25
f 28/17/28 40/29/40 34/23/34
f 36/25/36 41/30/41 38/27/38
f 39/28/39 42/31/42 25/14/25
f 41/30/41 43/32/43 38/27/38
f 44/33/44 45/34/45 46/35/46
f 44/33/44 47/36/47 45/34/45
f 44/33/44 46/35/46 48/37/48
f 44/33/44 49/38/49 47/36/47
f 44/33/44 48/37/48 50/39/50
f 44/33/44 51/40/51 49/38/49
f 44/33/44 50/39/50 51/40/51
f 45/34/45 52/41/52 46/35/46
f 45/34/45 47/36/47 53/42/53
f 45/34/45 54/43/54 52/41/52
f 45/34/45 53/42/53 54/43/54
f 48/37/48 46/35/46 55/44/55
f 46/35/46 52/41/52 55/44/55
f 49/38/49 51/40/51 56/45/56
f 49/38/49 57/46/57 47/36/47
f 49/38/49 56/45/56 58/47/58
f 49/38/49 58/47/58 57/46/57
f 47/36/47 57/46/57 53/42/53
f 51/40/51 50/39/50 56/45/56
f 54/43/54 59/48/59 52/41/52
f 54/43/54 53/42/53 60/49/60
f 54/43/54 61/50/61 59/48/59
f 54/43/54 60/49/60 61/50/61
f 55/44/55 52/41/52 62/51/62
f 59/48/59 61/50/61 62/51/62
f 59/48/59 62/51/62 52/41/52
f 58/47/58 56/45/56 63/52/63
f 57/46/57 64/53/64 53/42/53
f 57/46/57 65/54/65 64/53/64
f 57/46/57 66/55/66 65/54/65
f 53/42/53 64/53/64 60/49/60
f 50/39/50 67/56/67 56/45/56
f 50/39/50 68/57/68 67/56/67
f 61/50/61 69/58/69 62/51/62
f 61/50/61 60/49/60 70/59/70
f 61/50/61 70/59/70 69/58/69
f 63/52/63 71/60/71 66/55/66
f 63/52/63 56/45/56 72/61/72
f 63/52/63 72/61/72 71/60/71
f 72/61/72 56/45/56 67/56/67
f 72/61/72 67/56/67 71/60/71
f 66/55/66 71/60/71 65/54/65
f 64/53/64 73/62/73 60/49/60
f 64/53/64 65/54/65 73/62/73
f 60/49/60 73/62/73 70/59/70
f 68/57/68 74/63/74 67/56/67
f 67/56/67 74/63/74 71/60/71
f 69/58/69 70/59/70 75/64/75
f 75/64/75 70/59/70 73/62/73
f 75/64/75 73/62/73 74/63/74
f 65/54/65 71/60/71 76/65/76
f 65/54/65 76/65/76 73/62/73
f 76/65/76 74/63/74 73/62/73
f 76/65/76 71/60/71 74/63/74
f 77/66/77 29/67/29 35/68/35
f 77/66/77 30/69/30 29/67/29
f 77/66/77 35/68/35 37/70/37
f 77/66/77 78/67/78 30/69/30
f 77/66/77 37/70/37 79/68/79
f 77/66/77 79/68/79 78/67/78
f 80/71/80 81/72/81 82/73/82
f 80/71/80 83/74/83 81/72/81
f 80/71/80 82/73/82 31/75/31
f 80/71/80 84/76/84 83/74/83
f 80/71/80 31/75/31 32/77/32
f 80/71/80 32/77/32 33/78/33
f 81/72/81 85/79/85 82/73/82
f 81/72/81 83/74/83 79/80/79
f 81/72/81 38/81/38 85/79/85
f 84/76/84 28/82/28 83/74/83
f 84/76/84 86/83/86 28/82/28
f 31/75/31 82/73/82 39/84/39
f 79/80/79 83/74/83 78/85/78
f 38/81/38 87/86/87 85/79/85
f 38/81/38 43/87/43 87/86/87
f 86/83/86 40/88/40 28/82/28
f 82/73/82 42/89/42 39/84/39
f 42/90/42 41/91/88 36/92/89
f 42/90/42 43/93/90 41/91/88
f 42/90/42 36/92/89 25/94/25
f 42/90/42 87/95/91 43/93/90
f 42/90/42 85/96/92 87/95/91
f 42/90/42 82/97/82 85/96/92
f 33/98/33 26/99/93 34/100/94
f 33/98/33 24/101/24 26/99/93
f 33/98/33 34/100/94 40/102/95
f 33/98/33 40/102/95 86/103/96
f 33/98/33 86/103/96 84/104/97
f 33/98/33 84/104/97 80/105/80
f 88/106/98 89/107/99 90/108/100
f 88/106/98 91/108/101 89/107/99
f 88/106/98 90/108/100 92/109/102
f 88/106/98 93/110/103 91/108/101
f 88/106/98 92/109/102 93/110/103
f 89/107/99 94/111/104 90/108/100
f 89/107/99 91/108/101 95/112/105
f 89/107/99 95/112/105 94/111/104
f 92/109/102 96/113/106 93/110/103
f 92/109/102 97/114/107 96/113/106
f 91/108/101 98/114/108 95/112/105
f 91/108/101 93/110/103 98/114/108
f 93/110/103 96/113/106 98/114/108
f 94/111/104 99/115/109 97/114/107
f 94/111/104 95/112/105 99/115/109
f 99/115/109 96/113/106 97/114/107
f 99/115/109 98/114/108 96/113/106
f 99/115/109 95/112/105 98/114/108
f 100/116/110 101/117/111 102/118/112
f 100/116/110 103/119/113 101/117/111
f 100/116/110 102/118/112 104/120/114
f 100/116/110 105/121/115 103/119/113
f 100/116/110 104/120/114 105/121/115
f 104/120/114 102/118/112 101/117/111
f 104/120/114 103/119/113 105/121/115
f 104/120/114 101/117/111 103/119/113
f 106/122/116 79/123/79 37/124/37
f 106/122/116 81/125/81 79/123/79
f 106/122/116 37/124/37 38/126/38
f 106/122/116 38/126/38 81/125/81
f 107/122/117 30/124/30 78/123/78
f 107/122/117 28/126/28 30/124/30
f 107/122/117 78/123/78 83/125/83
f 107/122/117 83/125/83 28/126/28
f 108/127/118 66/55/119 57/46/120
f 108/127/118 109/128/121 66/55/119
f 108/127/118 57/46/120 58/47/122
f 108/127/118 58/47/122 109/128/121
f 66/55/119 109/128/121 110/129/77
f 66/55/119 110/129/77 63/52/123
f 110/129/77 109/128/121 58/47/122
f 110/129/77 58/47/122 63/52/123
f 111/130/124 112/131/125 113/132/126
f 111/130/124 114/132/127 112/131/125
f 111/130/124 113/132/126 115/133/128
f 111/130/124 115/133/128 114/132/127
f 116/134/129 117/135/130 118/136/131
f 116/134/129 119/137/132 117/135/130
f 116/134/129 118/136/131 120/135/133
f 116/134/129 120/135/133 119/137/132
f 121/138/134 55/139/55 62/140/62
f 121/138/134 122/141/135 55/139/55
f 121/138/134 62/140/62 69/142/69
f 121/138/134 69/142/69 122/141/135
f 123/143/136 124/144/137 125/145/138
f 123/143/136 126/146/139 124/144/137
f 123/143/136 125/145/138 127/147/140
f 123/143/136 127/147/140 126/146/139
f 127/147/140 125/145/138 124/144/137
f 127/147/140 124/144/137 126/146/139
f 128/148/141 129/149/142 130/150/143
f 128/148/141 131/151/144 129/149/142
f 128/148/141 130/150/143 132/152/145
f 128/148/141 132/152/145 131/151/144
f 132/152/145 130/150/143 129/149/142
f 132/152/145 129/149/142 131/151/144
f 5/5/146 3/3/147 2/2/148
f 5/5/146 2/2/148 6/6/149
f 5/5/146 6/6/149 9/9/150
f 5/5/146 9/9/150 10/10/151
f 2/2/148 4/4/152 6/6/149
f 9/9/150 11/11/151 10/10/151
f 9/9/150 6/6/149 8/8/153
f 15/5/154 14/2/155 13/3/156
f 15/5/154 18/6/157 14/2/155
f 15/5/154 19/9/158 18/6/157
f 15/5/154 21/10/159 19/9/158
f 14/2/155 18/6/157 16/4/160
f 21/10/159 22/11/159 19/9/158
f 18/6/157 19/9/158 20/8/161
vt -0.853727 0.856267
vt -0.718269 0.757656
vt 0 0.856267
vt 0.853727 0.856267
vt 0.718268 0.757656
vt -0.747731 0.996892
vt 0 0.996892
vt 0.747731 0.996892
o polySurface2_1_0_node
g polygon_0
usemtl TEX_ANIM_EYE_mat_id
f 48/153/48 55/154/55 122/155/135
f 75/156/75 122/155/135 69/157/69
f 48/153/48 122/155/135 50/158/50
f 50/158/50 122/155/135 68/159/68
f 68/159/68 122/155/135 74/160/74
f 74/160/74 122/155/135 75/156/75
