mtllib Goldeen_F.mtl
v 0 0.000456825 0.0346259
vt 0.425672 -0.384679
vn 0 -0.984793 0.173732
v -0.100471 0.0423969 0.0337021
vt 0.427711 -0.384679
vn -0.5506222 -0.8138993 0.1854271
v -0.0893047 0.03364961 -0.0494911
vt 0.61134 -0.384679
vn -0.4510592 -0.8698834 -0.1996211
v -0.0786166 0.0683485 0.149804
vt 0.171445 -0.384679
vn -0.440258 -0.8146389 0.37754
v 0 0.007931625 -0.0494911
vn -1.344679E-06 -0.9777225 -0.2099019
v 0 0.0429706 0.130933
vt 0.213097 -0.384679
vn 0 -0.9137593 0.4062561
v 0.0893047 0.03364961 -0.0494911
vn 0.4510589 -0.8698848 -0.1996149
v 0.0786166 0.0683485 0.149804
vn 0.440258 -0.8146389 0.37754
v 0.100471 0.0423969 0.0337021
vn 0.5506222 -0.8138993 0.1854271
v -0.149496 0.08519191 -0.0494911
vn -0.7928491 -0.5690511 -0.218108
v -0.122687 0.123854 0.187132
vt 0.118588 -0.384679
vn -0.8365232 -0.200146 0.5100691
v -0.176064 0.115354 0.026072
vt 0.414839 -0.384679
vn -0.9294191 -0.299314 0.21585
v 1.35642E-06 0.03737751 -0.133478
vt 0.796722 -0.384679
vn 0 -0.8529454 -0.5220003
v 0 0.0761028 0.204404
vt 0.0509269 -0.384679
vn 0 -0.8590384 0.5119112
v 0.149496 0.08519191 -0.0494911
vn 0.7928593 -0.5690382 -0.2181051
v 0.122687 0.123854 0.187132
vn 0.8365232 -0.200146 0.5100691
v 0.176064 0.115354 0.026072
vn 0.9294191 -0.299314 0.21585
v -0.178609 0.164012 -0.0494911
vn -0.981346 -0.0654826 -0.180754
v -0.106921 0.08497722 -0.133478
vn -0.5910761 -0.6046011 -0.5339351
v -0.15121 0.182733 -0.133478
vn -0.8553661 -0.0314884 -0.5170661
v 0.106924 0.08497722 -0.133478
vn 0.5910671 -0.604624 -0.533919
v 0.178609 0.164012 -0.0494911
vn 0.9813359 -0.06548029 -0.18081
v 0.173952 0.258354 0.026072
vt 0.414839 0.0238641
vn 0.9620478 0.142739 0.2325719
v -0.173952 0.258354 0.026072
vn -0.9620478 0.142739 0.2325719
v -0.07393369 0.149856 -0.207043
vt 0.959099 -0.384679
vn -0.5211188 -0.2752708 -0.8078745
v -0.163317 0.292891 -0.0494911
vt 0.61134 0.321773
vn -0.8801758 0.4155419 -0.2293809
v -0.07393369 0.24993 -0.207043
vt 0.959099 0.0462594
vn -0.5532601 0.281876 -0.7838681
v -0.113999 0.302568 -0.133478
vt 0.796722 0.38383
vn -0.6505591 0.5391231 -0.5349011
v 0 0.10018 -0.207043
vn -1.741769E-06 -0.6017098 -0.7987148
v 0.151193 0.182733 -0.133516
vt 0.796806 -0.384679
vn 0.8553469 -0.0314871 -0.5170979
v 0.163317 0.292891 -0.0494911
vn 0.8801886 0.4155168 -0.2293769
v 0.150664 0.306182 0.0346259
vt 0.425672 0.407006
vn 0.8070505 0.5484117 0.2188929
v 0.103926 0.252985 0.187612
vt 0.117705 -0.00483042
vn 0.7393781 0.236281 0.6304691
v 0 0.299606 -0.207043
vt 0.959099 0.364836
vn -2.01917E-06 0.635303 -0.7722629
v -0.0893047 0.366137 -0.0494911
vt 0.61134 0.7915
vn -0.497144 0.830677 -0.250646
v 1.35642E-06 0.362409 -0.133478
vt 0.796722 0.767592
vn 3.426949E-06 0.8409017 -0.5411879
v -0.150664 0.306182 0.0346259
vn -0.8070505 0.5484117 0.2188929
v -0.103926 0.252985 0.187612
vn -0.7393781 0.236281 0.6304691
v 0 0.205784 -0.240189
vt 1.03226 -0.236849
vn 0 0.0102655 -0.9999473
v 0.07393369 0.149856 -0.207043
vn 0.5210429 -0.275308 -0.8079108
v 0.0963707 0.295208 0.162151
vt 0.172917 0.336634
vn 0.5535972 0.6008012 0.5766872
v 0.0893047 0.366137 -0.0494911
vn 0.4971441 0.8306791 -0.250639
v 0.0708996 0.359045 0.0999248
vt 0.28154 0.746022
vn 0.4156751 0.7943081 0.443045
v 0.0927822 0.37261 0.0346259
vt 0.425672 0.833014
vn 0.5350442 0.8385893 0.102449
v 0 0.391855 -0.0494911
vt 0.61134 0.956431
vn -1.33045E-06 0.9779959 -0.208624
v 0.114002 0.302568 -0.133478
vn 0.650555 0.53914 -0.534889
v -0.0963707 0.295208 0.162151
vn -0.5535979 0.6008009 0.5766869
v 0 0.266285 0.219102
vt 0.0184835 0.151149
vn 0 0.4577552 0.8890783
v 0.07393369 0.24993 -0.207043
vn 0.553202 0.281915 -0.783895
v 0 0.399329 0.0346259
vt 0.370711 0.981883
vn 0 0.9889718 0.148104
v 0 0.339916 0.153149
vt 0.16406 0.623345
vn 0 0.7713817 0.6363727
v -0.0927822 0.37261 0.0346259
vn -0.5350442 0.8385893 0.102449
v -0.0708996 0.359045 0.0999248
vn -0.4156751 0.7943081 0.443045
v 0 0.433243 0.20321
vt 0.0801682 0.885387
vn 0 0.8428919 0.538083
v 0 0.374027 0.123298
vn 1.07008E-06 0.8034488 -0.5953739
v -0.0288639 0.365328 0.137512
vn -0.8027898 0.5541359 -0.2201409
v 0.0288639 0.365328 0.137512
vn 0.8027898 0.5541359 -0.2201409
v -0.0288639 0.34793 0.16594
vn -0.825648 0.0332992 0.563202
v 0.0288639 0.34793 0.16594
vn 0.825648 0.0332992 0.563202
v 0 0.339231 0.180154
vn 0 -0.2381871 0.9712193
o merged_0_0_node
g polygon_0
usemtl lambert3_mat_id
f 1/1/1 2/2/2 3/3/3
f 1/1/1 4/4/4 2/2/2
f 1/1/1 3/3/3 5/3/5
f 1/1/1 6/5/6 4/4/4
f 1/1/1 5/3/5 7/3/7
f 1/1/1 8/4/8 6/5/6
f 1/1/1 7/3/7 9/2/9
f 1/1/1 9/2/9 8/4/8
f 2/2/2 10/3/10 3/3/3
f 2/2/2 4/4/4 11/6/11
f 2/2/2 12/7/12 10/3/10
f 2/2/2 11/6/11 12/7/12
f 5/3/5 13/8/13 7/3/7
f 5/3/5 3/3/3 13/8/13
f 6/5/6 8/4/8 14/9/14
f 6/5/6 14/9/14 4/4/4
f 9/2/9 7/3/7 15/3/15
f 9/2/9 16/6/16 8/4/8
f 9/2/9 15/3/15 17/7/17
f 9/2/9 17/7/17 16/6/16
f 10/3/10 12/7/12 18/3/18
f 10/3/10 19/8/19 3/3/3
f 10/3/10 18/3/18 20/8/20
f 10/3/10 20/8/20 19/8/19
f 3/3/3 19/8/19 13/8/13
f 7/3/7 21/8/21 15/3/15
f 7/3/7 13/8/13 21/8/21
f 17/7/17 15/3/15 22/3/22
f 17/7/17 22/3/22 23/10/23
f 12/7/12 24/10/24 18/3/18
f 20/8/20 25/11/25 19/8/19
f 20/8/20 18/3/18 26/12/26
f 20/8/20 27/13/27 25/11/25
f 20/8/20 26/12/26 28/14/28
f 20/8/20 28/14/28 27/13/27
f 18/3/18 24/10/24 26/12/26
f 13/8/13 29/11/29 21/8/21
f 13/8/13 19/8/19 29/11/29
f 19/8/19 25/11/25 29/11/29
f 15/3/15 30/15/30 22/3/22
f 15/3/15 21/8/21 30/15/30
f 23/10/23 22/3/22 31/12/31
f 23/10/23 31/12/31 32/16/32
f 23/10/23 32/16/32 33/17/33
f 22/3/22 30/15/30 31/12/31
f 28/14/28 34/18/34 27/13/27
f 28/14/28 26/12/26 35/19/35
f 28/14/28 36/20/36 34/18/34
f 28/14/28 35/19/35 36/20/36
f 24/10/24 37/16/37 26/12/26
f 24/10/24 38/17/38 37/16/37
f 26/12/26 37/16/37 35/19/35
f 25/11/25 39/21/39 29/11/29
f 25/11/25 27/13/27 39/21/39
f 27/13/27 34/18/34 39/21/39
f 21/8/21 40/11/40 30/15/30
f 21/8/21 29/11/29 40/11/40
f 29/11/29 39/21/39 40/11/40
f 32/16/32 41/22/41 33/17/33
f 32/16/32 31/12/31 42/19/42
f 32/16/32 43/23/43 41/22/41
f 32/16/32 42/19/42 44/24/44
f 32/16/32 44/24/44 43/23/43
f 36/20/36 35/19/35 45/25/45
f 36/20/36 46/14/46 34/18/34
f 36/20/36 42/19/42 46/14/46
f 36/20/36 45/25/45 42/19/42
f 42/19/42 31/12/31 46/14/46
f 42/19/42 45/25/45 44/24/44
f 31/12/31 30/15/30 46/14/46
f 38/17/38 47/22/47 37/16/37
f 38/17/38 48/26/48 47/22/47
f 33/17/33 41/22/41 48/26/48
f 39/21/39 49/13/49 40/11/40
f 39/21/39 34/18/34 49/13/49
f 49/13/49 46/14/46 30/15/30
f 49/13/49 30/15/30 40/11/40
f 49/13/49 34/18/34 46/14/46
f 43/23/43 44/24/44 50/27/50
f 43/23/43 51/28/51 41/22/41
f 43/23/43 50/27/50 51/28/51
f 48/26/48 51/28/51 47/22/47
f 48/26/48 41/22/41 51/28/51
f 44/24/44 45/25/45 50/27/50
f 35/19/35 37/16/37 52/24/52
f 35/19/35 52/24/52 45/25/45
f 45/25/45 52/24/52 50/27/50
f 47/22/47 51/28/51 53/23/53
f 47/22/47 53/23/53 37/16/37
f 53/23/53 52/24/52 37/16/37
f 53/23/53 50/27/50 52/24/52
f 53/23/53 51/28/51 50/27/50
f 54/29/54 55/29/55 56/29/56
f 54/29/54 57/29/57 55/29/55
f 54/29/54 56/29/56 58/29/58
f 54/29/54 59/29/59 57/29/57
f 54/29/54 58/29/58 60/29/60
f 54/29/54 60/29/60 59/29/59
f 58/29/13 56/29/13 55/29/13
f 58/29/13 55/29/13 57/29/13
f 58/29/13 57/29/13 59/29/13
f 58/29/13 59/29/13 60/29/13
v 0 0.364293 0.0979793
vt 0.795957 0.875288
vn 1 0 0
v 0 0.390765 0.0360028
v 0 0.450592 0.0430618
v 0 0.426403 -0.0545322
v 0 0.382384 -0.0481641
v 0 0.415589 -0.153214
v 0 0.352206 -0.132185
vn -1 0 0
v 0 0.30801 -0.199985
v 0.155435 0.265093 -0.550378
vt 0.767734 0.991562
vn 0.4758011 0.8768382 0.06905162
v 0 0.34078 -0.440451
vt 0.0145137 0.644881
vn 0 0.9616724 0.2742011
v 0.123198 0.248197 -0.406944
vt 0.611516 0.53921
vn 0.286 0.9111058 0.2968
v 0 0.204543 -0.24073
vt 0.0145137 0.0150193
vn 0 0.914005 0.405703
v 0 0.34078 -0.663594
vt 0.0145137 1.34861
vn 0 1 0
v 0.252918 0.23277 -0.494111
vt 1.24013 0.814111
vn 0.2968509 0.9507605 0.08907296
v 0.235185 0.21995 -0.298174
vt 1.15419 0.196178
vn 0.153214 0.9738201 0.167928
v 0.347153 0.1787 -0.40526
vt 1.69678 0.533899
vn 0.42469 0.900092 0.0973283
v -0.155435 0.265093 -0.550378
vn -0.4758011 0.8768382 0.06905171
v -0.123198 0.248197 -0.406944
vn -0.2859999 0.9111056 0.2968009
v -0.235185 0.21995 -0.298174
vn -0.153214 0.9738201 0.167928
v -0.252918 0.23277 -0.494111
vn -0.2968509 0.9507605 0.08907296
v -0.347153 0.1787 -0.40526
vn -0.42469 0.900092 0.0973283
vn -0.4758011 -0.8768382 -0.06905151
vn -0.286 -0.9111058 -0.2968
vn 0 -0.9616724 -0.2742011
vn 0 -0.914005 -0.405703
vn 0 -1 0
vn -0.2968509 -0.9507605 -0.08907296
vn -0.153214 -0.9738201 -0.167928
vn -0.42469 -0.900092 -0.0973283
vn 0.4758011 -0.8768382 -0.06905171
vn 0.2859999 -0.9111056 -0.2968009
vn 0.153214 -0.9738201 -0.167928
vn 0.2968509 -0.9507605 -0.08907305
vn 0.42469 -0.900092 -0.0973283
v 0.159195 0.148914 0.0430888
vt 0.209907 0.198132
vn 0.2465679 0.9502576 -0.1903019
v 0.251145 0.126313 0.0493696
vt 0.853618 0.175322
vn 0.614966 0.785875 -0.0649417
v 0.217915 0.117587 -0.0372593
vt 0.620986 0.489937
vn 0.3691301 0.8998923 -0.2322431
v 0.318959 0.02480209 0.0726282
vt 1.32836 0.0908526
vn -0.8176227 -0.5679088 -0.09472406
vn -0.614966 -0.785875 0.0649419
v 0.307533 0.06457709 -0.0672159
vt 1.24837 0.598731
vn -0.7181788 -0.6955428 0.02096039
vn -0.3691301 -0.8998923 0.2322431
vn 0.7181789 0.6955429 -0.0209603
vn 0.8176232 0.5679081 0.09472412
vn -0.2465681 -0.9502575 0.1903021
v -0.159195 0.148914 0.0430888
vn 0.2465679 -0.9502576 0.1903019
v -0.251146 0.126313 0.0493696
vn 0.614966 -0.785875 0.0649419
v -0.217915 0.117587 -0.0372593
vn 0.3691301 -0.8998923 0.2322431
v -0.318959 0.02480209 0.0726282
vn -0.8176232 0.5679081 0.09472412
vn -0.614966 0.785875 -0.064942
v -0.307533 0.06457709 -0.0672159
vn -0.7181788 0.6955428 -0.02096049
vn -0.3691301 0.8998923 -0.2322431
vn 0.7181788 -0.6955428 0.02096049
vn 0.8176227 -0.5679088 -0.09472396
vn -0.2465678 0.9502574 -0.1903029
o merged_1_0_node
g polygon_0
usemtl lambert4_mat_id
f 61/30/61 62/30/61 63/30/61
f 64/30/61 65/30/61 66/30/61
f 65/30/61 67/30/61 66/30/61
f 61/30/62 63/30/62 62/30/62
f 64/30/62 66/30/62 65/30/62
f 65/30/62 66/30/62 67/30/62
f 66/30/61 67/30/61 68/30/61
f 67/30/62 66/30/62 68/30/62
f 63/30/61 62/30/61 64/30/61
f 64/30/61 62/30/61 65/30/61
f 63/30/62 64/30/62 62/30/62
f 62/30/62 64/30/62 65/30/62
f 69/31/63 70/32/64 71/33/65
f 71/33/65 70/32/64 72/34/66
f 73/35/67 70/32/64 69/31/63
f 74/36/68 71/33/65 75/37/69
f 75/37/69 71/33/65 72/34/66
f 76/38/70 74/36/68 75/37/69
f 73/35/67 77/31/71 70/32/64
f 72/34/66 70/32/64 78/33/72
f 70/32/64 77/31/71 78/33/72
f 72/34/66 78/33/72 79/37/73
f 79/37/73 78/33/72 80/36/74
f 81/38/75 79/37/73 80/36/74
f 69/31/76 71/33/77 70/32/78
f 71/33/77 72/34/79 70/32/78
f 73/35/80 69/31/76 70/32/78
f 74/36/81 75/37/82 71/33/77
f 75/37/82 72/34/79 71/33/77
f 76/38/83 75/37/82 74/36/81
f 73/35/80 70/32/78 77/31/84
f 72/34/79 78/33/85 70/32/78
f 70/32/78 78/33/85 77/31/84
f 72/34/79 79/37/86 78/33/85
f 79/37/86 80/36/87 78/33/85
f 81/38/88 80/36/87 79/37/86
f 82/39/89 83/40/90 84/41/91
f 85/42/92 83/40/93 86/43/94
f 86/43/94 83/40/93 84/41/95
f 84/41/91 83/40/90 86/43/96
f 86/43/96 83/40/90 85/42/97
f 84/41/95 83/40/93 82/39/98
f 87/39/99 88/40/100 89/41/101
f 90/42/102 88/40/103 91/43/104
f 91/43/104 88/40/103 89/41/105
f 89/41/101 88/40/100 91/43/106
f 91/43/106 88/40/100 90/42/107
f 89/41/105 88/40/103 87/39/108
vt 1.56158 0.424894
vt 0.987888 -0.361274
v -0.0397476 0.118532 0.248211
vt 0.518667 0.236443
vn -0.3594411 -0.4592341 0.8123461
vt 0.0339032 -0.268915
v 0.0397477 0.118532 0.248211
vn 0.3594411 -0.4592341 0.8123461
v 0 0.118532 0.248211
vt 0.0339035 0.236443
vn 0 -0.2477159 0.9688327
v -0.0399487 0.154319 0.240924
vt 0.518667 0.662689
vn -0.3688459 0.180568 0.9117828
vt 1.53915 1.70658
vt 0.0339032 1.99627
v 0.0399487 0.154319 0.240924
vn 0.3688459 0.180568 0.9117828
v 0 0.154319 0.240924
vt 0.0339032 0.662689
vn 0 0.194508 0.9809009
o merged_2_0_node
g polygon_0
usemtl lambert6_mat_id
f 11/44/11 4/45/4 92/46/109
f 92/46/109 4/45/4 14/47/14
f 8/45/8 16/44/16 93/46/110
f 94/48/111 14/47/14 93/46/110
f 14/47/14 8/45/8 93/46/110
f 92/46/109 95/49/112 11/44/11
f 11/44/11 95/49/112 38/50/38
f 38/50/38 95/49/112 48/51/48
f 33/50/33 48/51/48 96/49/113
f 48/51/48 97/52/114 96/49/113
f 33/50/33 96/49/113 16/44/16
f 16/44/16 96/49/113 93/46/110
f 96/49/113 97/52/114 93/46/110
f 93/46/110 97/52/114 94/48/111
f 48/51/48 95/49/112 97/52/114
f 94/48/111 97/52/114 92/46/109
f 92/46/109 97/52/114 95/49/112
f 92/46/109 14/47/14 94/48/111
vt 1.0298 0.752806
vt -0.0266564 0.766746
vt 1.0298 0.987307
vt -0.0298042 0.978502
o merged_3_0_node
g polygon_0
usemtl TEX_ANIM_EYE_mat_id
f 12/53/12 11/54/11 24/55/24
f 11/54/11 38/56/38 24/55/24
f 17/53/17 23/55/23 16/54/16
f 16/54/16 23/55/23 33/56/33
