ply
format ascii 1.0
element vertex 396
property float x
property float y
property float z
property uchar red
property uchar green
property uchar blue
element face 452
property list uchar int vertex_index
end_header
0.23825 -0.59822 0.82129 142 141 141
0.23825 -0.59822 0.87042 142 141 141
0.29007 -0.59822 0.87042 142 141 141
0.29007 -0.59822 0.82129 142 141 141
0.29001 -0.59822 0.77419 142 141 141
0.23831 -0.59822 0.77419 142 141 141
0.33583 -0.59822 0.87046 142 141 141
0.33583 -0.59822 0.82126 142 141 141
0.23831 -0.59822 0.91752 142 141 141
0.29001 -0.59822 0.91752 142 141 141
0.1925 -0.59822 0.82126 142 141 141
0.1925 -0.59822 0.87046 142 141 141
0.17131 -0.59822 0.93871 213 211 212
0.17131 -0.50209 0.93871 213 211 212
0.35701 -0.50209 0.93871 213 211 212
0.35701 -0.59822 0.93871 213 211 212
0.17131 -0.50209 0.75301 204 202 203
0.17131 -0.59822 0.75301 204 202 203
0.35701 -0.59822 0.75301 204 202 203
0.35701 -0.50209 0.75301 204 202 203
0.35701 -0.50209 0.93871 204 202 203
0.35701 -0.59822 0.93871 204 202 203
0.17131 -0.59822 0.93871 204 202 203
0.17131 -0.50209 0.93871 204 202 203
0.31059 -0.50209 0.89228 204 202 203
0.21774 -0.50209 0.89228 204 202 203
0.31059 -0.50209 0.79943 204 202 203
0.21774 -0.50209 0.79943 204 202 203
0.31059 -0.45144 0.79943 204 202 203
0.31059 -0.45144 0.89228 204 202 203
0.21774 -0.45144 0.79943 204 202 203
0.21774 -0.45144 0.89228 204 202 203
0.21774 -0.50209 0.89228 213 211 212
0.21774 -0.45144 0.89228 213 211 212
0.31059 -0.45144 0.89228 213 211 212
0.31059 -0.50209 0.89228 213 211 212
0.29001 -0.59822 0.77419 204 202 203
0.29007 -0.59822 0.82129 204 202 203
0.33583 -0.59822 0.82126 204 202 203
0.33583 -0.59822 0.87046 204 202 203
0.29007 -0.59822 0.87042 204 202 203
0.29001 -0.59822 0.91752 204 202 203
0.23831 -0.59822 0.91752 204 202 203
0.23825 -0.59822 0.87042 204 202 203
0.23831 -0.59822 0.77419 204 202 203
0.23825 -0.59822 0.82129 204 202 203
0.1925 -0.59822 0.82126 204 202 203
0.1925 -0.59822 0.87046 204 202 203
-0.46117 -0.39364 0.73196 178 209 220
-0.46117 -0.39364 1.55133 178 209 220
-0.38289 -0.46117 1.55133 178 209 220
-0.38289 -0.46117 0.73196 178 209 220
-0.46117 0.39364 0.73196 178 209 220
-0.46117 0.39364 1.55133 178 209 220
0.38289 -0.46117 0.73196 178 209 220
0.38289 -0.46117 1.55133 178 209 220
0.46117 -0.39364 0.73196 178 209 220
0.46117 -0.39364 1.55133 178 209 220
0.46117 0.39364 1.55133 178 209 220
0.46117 0.39364 0.73196 178 209 220
-0.35098 -0.42274 1.58977 178 209 220
-0.42274 -0.36084 1.58977 178 209 220
-0.42274 0.36084 1.58977 178 209 220
-0.38289 0.46117 1.55133 178 209 220
-0.38289 0.46117 0.73196 178 209 220
0.38289 0.46117 1.55133 178 209 220
0.38289 0.46117 0.73196 178 209 220
-0.35098 0.42274 1.58977 178 209 220
0.35098 0.42274 1.58977 178 209 220
0.42274 0.36084 1.58977 178 209 220
-0.35141 0.42325 0.69648 178 209 220
-0.42325 0.36127 0.69648 178 209 220
0.35141 0.42325 0.69648 178 209 220
0.42325 0.36127 0.69648 178 209 220
0.42325 -0.36127 0.69648 178 209 220
-0.42325 -0.36127 0.69648 178 209 220
0.35141 -0.42325 0.69648 178 209 220
-0.35141 -0.42325 0.69648 178 209 220
0.42274 -0.36084 1.58977 178 209 220
0.35098 -0.42274 1.58977 178 209 220
0.35098 0.42274 1.58977 185 218 229
0.42274 0.36084 1.58977 185 218 229
-0.42274 0.36084 1.58977 185 218 229
-0.35098 0.42274 1.58977 185 218 229
-0.42274 -0.36084 1.58977 185 218 229
0.42274 -0.36084 1.58977 185 218 229
-0.35098 -0.42274 1.58977 185 218 229
0.35098 -0.42274 1.58977 185 218 229
-0.03168 -0.48171 1.16963 96 96 96
-0.03168 -0.48171 1.23298 96 96 96
0.03168 -0.48171 1.23298 96 96 96
0.03168 -0.48171 1.16963 96 96 96
-0.21446 -0.48171 1.41576 248 249 251
-0.21446 -0.4559 1.41576 248 249 251
0.21446 -0.4559 1.41576 248 249 251
0.21446 -0.48171 1.41576 248 249 251
0.21446 -0.48171 0.98684 248 249 251
0.21446 -0.4559 0.98684 248 249 251
-0.21446 -0.4559 0.98684 248 249 251
-0.21446 -0.48171 0.98684 248 249 251
0.03168 -0.48171 1.16963 248 249 251
-0.03168 -0.48171 1.16963 248 249 251
0.03168 -0.48171 1.23298 248 249 251
-0.03168 -0.48171 1.23298 248 249 251
-0.21662 0.19033 1.93351 204 202 203
-0.21662 0.19033 1.80533 204 202 203
-0.16342 0.24378 1.80533 204 202 203
-0.16342 0.24378 1.93351 204 202 203
-0.21662 -0.136 1.80533 204 202 203
-0.21662 -0.136 1.93351 204 202 203
0.16332 0.24378 1.93351 204 202 203
0.16332 0.24378 1.80533 204 202 203
0.21662 0.19033 1.93351 204 202 203
0.21662 0.19033 1.80533 204 202 203
0.21662 -0.136 1.93351 204 202 203
0.21662 -0.136 1.80533 204 202 203
0.13882 0.21129 1.95445 204 202 203
0.18412 0.16586 1.95445 204 202 203
0.18412 -0.11153 1.95445 204 202 203
0.16332 -0.18945 1.93351 204 202 203
0.16332 -0.18945 1.80533 204 202 203
-0.16342 -0.18945 1.93351 204 202 203
-0.16342 -0.18945 1.80533 204 202 203
0.13882 -0.15696 1.95445 204 202 203
-0.13891 -0.15696 1.95445 204 202 203
-0.18413 -0.11153 1.95445 204 202 203
-0.18413 0.16586 1.95445 204 202 203
-0.13891 0.21129 1.95445 204 202 203
-0.06537 -0.05948 1.80533 204 202 203
0.06532 -0.05948 1.80533 204 202 203
-0.08665 -0.0381 1.80533 204 202 203
-0.06537 -0.05948 1.72903 204 202 203
0.06532 -0.05948 1.72903 204 202 203
-0.08665 -0.0381 1.72903 204 202 203
-0.08665 0.09243 1.72903 204 202 203
-0.08665 0.09243 1.80533 204 202 203
0.08664 -0.0381 1.80533 204 202 203
0.08664 -0.0381 1.72903 204 202 203
-0.04495 -0.01768 1.95445 142 141 141
-0.04495 0.07201 1.95445 142 141 141
0.04486 0.07201 1.95445 142 141 141
0.04486 -0.01768 1.95445 142 141 141
-0.14842 -0.01768 1.95445 142 141 141
-0.14842 0.07201 1.95445 142 141 141
0.1484 -0.01768 1.95445 142 141 141
0.1484 0.07201 1.95445 142 141 141
0.04486 0.17556 1.95445 142 141 141
-0.04495 0.17556 1.95445 142 141 141
0.04486 -0.12123 1.95445 142 141 141
-0.04495 -0.12123 1.95445 142 141 141
-0.06537 0.11381 1.80533 204 202 203
0.06532 0.11381 1.80533 204 202 203
0.08664 0.09243 1.80533 204 202 203
-0.06537 0.11381 1.72903 204 202 203
0.06532 0.11381 1.72903 204 202 203
0.08664 0.09243 1.72903 204 202 203
-0.13891 -0.15696 1.95445 213 211 212
-0.18413 -0.11153 1.95445 213 211 212
-0.14842 -0.06253 1.95445 213 211 212
-0.08985 -0.12123 1.95445 213 211 212
-0.14842 -0.01768 1.95445 213 211 212
-0.04495 -0.12123 1.95445 213 211 212
-0.04495 -0.01768 1.95445 213 211 212
0.13882 -0.15696 1.95445 213 211 212
0.04486 -0.12123 1.95445 213 211 212
0.08976 -0.12123 1.95445 213 211 212
0.1484 -0.06253 1.95445 213 211 212
0.18412 -0.11153 1.95445 213 211 212
0.1484 -0.01768 1.95445 213 211 212
0.04486 -0.01768 1.95445 213 211 212
0.18412 0.16586 1.95445 213 211 212
0.1484 0.07201 1.95445 213 211 212
0.1484 0.11686 1.95445 213 211 212
0.08976 0.17556 1.95445 213 211 212
0.13882 0.21129 1.95445 213 211 212
0.04486 0.17556 1.95445 213 211 212
0.04486 0.07201 1.95445 213 211 212
-0.13891 0.21129 1.95445 213 211 212
-0.04495 0.17556 1.95445 213 211 212
-0.08985 0.17556 1.95445 213 211 212
-0.18413 0.16586 1.95445 213 211 212
-0.14842 0.11686 1.95445 213 211 212
-0.14842 0.07201 1.95445 213 211 212
-0.04495 0.07201 1.95445 213 211 212
0.06532 -0.05948 1.72903 170 168 169
0.06532 -0.05948 1.65745 170 168 169
-0.06537 -0.05948 1.65745 170 168 169
-0.06537 -0.05948 1.72903 170 168 169
-0.08665 -0.0381 1.65745 170 168 169
-0.08665 -0.0381 1.72903 170 168 169
-0.08665 0.09243 1.65745 170 168 169
-0.08665 0.09243 1.72903 170 168 169
0.08664 -0.0381 1.72903 170 168 169
0.08664 -0.0381 1.65745 170 168 169
-0.06537 0.11381 1.65745 170 168 169
-0.06537 0.11381 1.72903 170 168 169
0.06532 0.11381 1.65745 170 168 169
0.06532 0.11381 1.72903 170 168 169
0.08664 0.09243 1.65745 170 168 169
0.08664 0.09243 1.72903 170 168 169
0.06532 -0.05948 1.65745 204 202 203
0.06532 -0.05948 1.58499 204 202 203
-0.06537 -0.05948 1.58499 204 202 203
-0.06537 -0.05948 1.65745 204 202 203
-0.08665 -0.0381 1.58499 204 202 203
-0.08665 -0.0381 1.65745 204 202 203
-0.08665 0.09243 1.58499 204 202 203
-0.08665 0.09243 1.65745 204 202 203
0.08664 -0.0381 1.65745 204 202 203
0.08664 -0.0381 1.58499 204 202 203
-0.06537 0.11381 1.58499 204 202 203
-0.06537 0.11381 1.65745 204 202 203
0.06532 0.11381 1.58499 204 202 203
0.06532 0.11381 1.65745 204 202 203
0.08664 0.09243 1.58499 204 202 203
0.08664 0.09243 1.65745 204 202 203
0.45065 -0.07382 0.8717 197 197 195
0.45065 -0.07382 1.45073 197 197 195
0.49864 -0.10393 1.49245 197 197 195
0.49864 -0.10393 0.82998 197 197 195
0.45065 0.07382 0.8717 197 197 195
0.49864 0.10393 0.82998 197 197 195
0.94213 -0.10393 0.82998 197 197 195
0.6585 -0.10393 1.03468 197 197 195
0.94213 -0.10393 1.03468 197 197 195
0.94213 0.10393 0.82998 197 197 195
0.6585 -0.10393 1.29175 197 197 195
0.6585 0.10393 1.29175 197 197 195
0.6585 0.10393 1.03468 197 197 195
0.94213 -0.10393 1.49245 197 197 195
0.94213 -0.10393 1.29175 197 197 195
0.45065 -0.07382 1.45073 203 203 201
0.45065 0.07382 1.45073 203 203 201
0.49864 0.10393 1.49245 203 203 201
0.49864 -0.10393 1.49245 203 203 201
0.94213 0.10393 1.49245 203 203 201
0.94213 -0.10393 1.49245 203 203 201
0.45065 0.07382 1.45073 197 197 195
0.49864 0.10393 1.49245 197 197 195
0.94213 0.10393 1.49245 197 197 195
0.94213 0.10393 1.29175 197 197 195
0.94213 0.10393 1.03468 197 197 195
1.16318 -0.07968 0.85386 195 137 125
1.16318 -0.07968 1.0108 195 137 125
1.16318 0.07968 1.0108 195 137 125
1.16318 0.07968 0.85386 195 137 125
1.13154 -0.10393 0.82998 195 137 125
1.13154 0.10393 0.82998 195 137 125
1.13154 0.10393 1.03468 195 137 125
0.94213 0.10393 0.82998 195 137 125
0.94213 0.10393 1.03468 195 137 125
1.16318 -0.07968 1.31517 99 170 200
1.16318 -0.07968 1.46904 99 170 200
1.16318 0.07968 1.46904 99 170 200
1.16318 0.07968 1.31517 99 170 200
1.13154 -0.10393 1.29175 99 170 200
1.13154 0.10393 1.29175 99 170 200
1.13154 0.10393 1.49245 99 170 200
0.94213 -0.10393 1.29175 99 170 200
0.94213 0.10393 1.29175 99 170 200
0.94213 0.10393 1.49245 99 170 200
0.6585 0.10393 1.03468 203 203 201
0.94213 0.10393 1.03468 203 203 201
0.94213 -0.10393 1.03468 203 203 201
0.6585 -0.10393 1.03468 203 203 201
1.13154 0.10393 1.03468 203 143 130
1.16318 0.07968 1.0108 203 143 130
1.16318 -0.07968 1.0108 203 143 130
1.13154 -0.10393 1.03468 203 143 130
0.94213 0.10393 1.03468 203 143 130
0.94213 -0.10393 1.03468 203 143 130
1.13154 -0.10393 1.03468 195 137 125
0.94213 -0.10393 1.03468 195 137 125
0.94213 -0.10393 0.82998 195 137 125
1.13154 0.10393 1.49245 104 179 211
1.16318 0.07968 1.46904 104 179 211
1.16318 -0.07968 1.46904 104 179 211
1.13154 -0.10393 1.49245 104 179 211
0.94213 0.10393 1.49245 104 179 211
0.94213 -0.10393 1.49245 104 179 211
1.13154 -0.10393 1.49245 99 170 200
0.94213 -0.10393 1.49245 99 170 200
-0.45065 0.07382 1.45073 197 197 195
-0.49864 0.10393 1.49245 197 197 195
-0.49864 0.10393 0.82998 197 197 195
-0.45065 0.07382 0.8717 197 197 195
-0.49864 -0.10393 0.82998 197 197 195
-0.45065 -0.07382 0.8717 197 197 195
-0.94213 -0.10393 0.82998 197 197 195
-0.94213 0.10393 0.82998 197 197 195
-0.6585 0.10393 1.03069 197 197 195
-0.6585 0.10393 1.28776 197 197 195
-0.6585 -0.10393 1.03069 197 197 195
-0.6585 -0.10393 1.28776 197 197 195
-0.94213 0.10393 1.28776 197 197 195
-0.94213 -0.10393 1.28776 197 197 195
-0.94213 0.10393 1.49245 197 197 195
-0.94213 0.10393 1.03069 197 197 195
-0.49864 -0.10393 1.49245 197 197 195
-0.45065 -0.07382 1.45073 197 197 195
-0.94213 -0.10393 1.03069 197 197 195
-0.94213 -0.10393 1.49245 197 197 195
-0.45065 -0.07382 1.45073 203 203 201
-0.49864 -0.10393 1.49245 203 203 201
-0.49864 0.10393 1.49245 203 203 201
-0.45065 0.07382 1.45073 203 203 201
-0.94213 0.10393 1.49245 203 203 201
-0.94213 -0.10393 1.49245 203 203 201
-1.16318 0.07968 1.46857 195 137 125
-1.16318 -0.07968 1.46857 195 137 125
-1.16318 -0.07968 1.31164 195 137 125
-1.16318 0.07968 1.31164 195 137 125
-1.13154 -0.10393 1.49245 195 137 125
-1.13154 -0.10393 1.28776 195 137 125
-1.13154 0.10393 1.28776 195 137 125
-0.94213 -0.10393 1.49245 195 137 125
-0.94213 -0.10393 1.28776 195 137 125
-0.94213 0.10393 1.28776 195 137 125
-1.13154 0.10393 1.49245 195 137 125
-0.94213 0.10393 1.49245 195 137 125
-1.16318 0.07968 1.00727 99 170 200
-1.16318 -0.07968 1.00727 99 170 200
-1.16318 -0.07968 0.8534 99 170 200
-1.16318 0.07968 0.8534 99 170 200
-1.13154 -0.10393 1.03069 99 170 200
-1.13154 -0.10393 0.82998 99 170 200
-1.13154 0.10393 0.82998 99 170 200
-0.94213 -0.10393 1.03069 99 170 200
-0.94213 -0.10393 0.82998 99 170 200
-0.94213 0.10393 0.82998 99 170 200
-0.6585 0.10393 1.03069 203 203 201
-0.6585 -0.10393 1.03069 203 203 201
-0.94213 -0.10393 1.03069 203 203 201
-0.94213 0.10393 1.03069 203 203 201
-1.13154 0.10393 1.49245 203 143 130
-1.13154 -0.10393 1.49245 203 143 130
-1.16318 -0.07968 1.46857 203 143 130
-1.16318 0.07968 1.46857 203 143 130
-1.13154 0.10393 1.03069 104 179 211
-1.13154 -0.10393 1.03069 104 179 211
-1.16318 -0.07968 1.00727 104 179 211
-1.16318 0.07968 1.00727 104 179 211
-0.94213 0.10393 1.03069 104 179 211
-0.94213 -0.10393 1.03069 104 179 211
-1.13154 0.10393 1.03069 99 170 200
-0.94213 0.10393 1.03069 99 170 200
-0.94213 0.10393 1.49245 203 143 130
-0.94213 -0.10393 1.49245 203 143 130
-0.23825 -0.59822 0.82129 142 141 141
-0.29007 -0.59822 0.82129 142 141 141
-0.29007 -0.59822 0.87042 142 141 141
-0.23825 -0.59822 0.87042 142 141 141
-0.29001 -0.59822 0.77419 142 141 141
-0.23831 -0.59822 0.77419 142 141 141
-0.33583 -0.59822 0.87046 142 141 141
-0.33583 -0.59822 0.82126 142 141 141
-0.23831 -0.59822 0.91752 142 141 141
-0.29001 -0.59822 0.91752 142 141 141
-0.1925 -0.59822 0.82126 142 141 141
-0.1925 -0.59822 0.87046 142 141 141
-0.17131 -0.59822 0.93871 213 211 212
-0.35701 -0.59822 0.93871 213 211 212
-0.35701 -0.50209 0.93871 213 211 212
-0.17131 -0.50209 0.93871 213 211 212
-0.17131 -0.50209 0.75301 204 202 203
-0.35701 -0.50209 0.75301 204 202 203
-0.35701 -0.59822 0.75301 204 202 203
-0.17131 -0.59822 0.75301 204 202 203
-0.35701 -0.50209 0.93871 204 202 203
-0.35701 -0.59822 0.93871 204 202 203
-0.17131 -0.59822 0.93871 204 202 203
-0.17131 -0.50209 0.93871 204 202 203
-0.31059 -0.50209 0.89228 204 202 203
-0.21774 -0.50209 0.89228 204 202 203
-0.31059 -0.50209 0.79943 204 202 203
-0.21774 -0.50209 0.79943 204 202 203
-0.31059 -0.45144 0.79943 204 202 203
-0.31059 -0.45144 0.89228 204 202 203
-0.21774 -0.45144 0.79943 204 202 203
-0.21774 -0.45144 0.89228 204 202 203
-0.21774 -0.50209 0.89228 213 211 212
-0.31059 -0.50209 0.89228 213 211 212
-0.31059 -0.45144 0.89228 213 211 212
-0.21774 -0.45144 0.89228 213 211 212
-0.29001 -0.59822 0.77419 204 202 203
-0.29007 -0.59822 0.82129 204 202 203
-0.33583 -0.59822 0.82126 204 202 203
-0.33583 -0.59822 0.87046 204 202 203
-0.29007 -0.59822 0.87042 204 202 203
-0.29001 -0.59822 0.91752 204 202 203
-0.23831 -0.59822 0.91752 204 202 203
-0.23825 -0.59822 0.87042 204 202 203
-0.23831 -0.59822 0.77419 204 202 203
-0.23825 -0.59822 0.82129 204 202 203
-0.1925 -0.59822 0.82126 204 202 203
-0.1925 -0.59822 0.87046 204 202 203
3 0 2 1
3 0 3 2
3 0 4 3
3 0 5 4
3 3 6 2
3 3 7 6
3 2 8 1
3 2 9 8
3 1 10 0
3 1 11 10
3 12 14 13
3 12 15 14
3 16 18 17
3 16 19 18
3 18 19 20
3 18 20 21
3 16 17 22
3 16 22 23
3 23 20 24
3 23 24 25
3 16 23 25
3 20 26 24
3 20 19 26
3 19 27 26
3 19 16 27
3 16 25 27
3 24 26 28
3 24 28 29
3 26 30 28
3 26 27 30
3 27 31 30
3 27 25 31
3 32 34 33
3 32 35 34
3 36 18 37
3 18 38 37
3 18 39 38
3 18 21 39
3 39 21 40
3 21 41 40
3 21 42 41
3 21 22 42
3 42 22 43
3 17 18 36
3 17 36 44
3 17 44 45
3 46 17 45
3 22 17 46
3 22 46 47
3 22 47 43
3 48 50 49
3 48 51 50
3 52 48 49
3 52 49 53
3 50 51 54
3 50 54 55
3 55 54 56
3 55 56 57
3 56 58 57
3 56 59 58
3 49 50 60
3 49 60 61
3 53 49 61
3 53 61 62
3 63 53 62
3 53 63 64
3 53 64 52
3 64 63 65
3 64 65 66
3 66 65 58
3 66 58 59
3 65 63 67
3 63 62 67
3 65 67 68
3 58 65 68
3 57 58 69
3 58 68 69
3 52 64 70
3 52 70 71
3 64 72 70
3 64 66 72
3 66 73 72
3 66 59 73
3 73 70 72
3 73 71 70
3 74 71 73
3 59 74 73
3 74 75 71
3 59 56 74
3 56 76 74
3 76 75 74
3 56 54 76
3 54 77 76
3 76 77 75
3 54 51 77
3 51 75 77
3 51 48 75
3 48 71 75
3 48 52 71
3 57 69 78
3 55 57 78
3 55 78 79
3 50 55 79
3 50 79 60
3 80 82 81
3 80 83 82
3 81 82 84
3 81 84 85
3 85 84 86
3 85 86 87
3 88 90 89
3 88 91 90
3 92 94 93
3 92 95 94
3 96 94 95
3 96 97 94
3 98 97 96
3 98 92 93
3 98 96 99
3 98 99 92
3 99 96 100
3 99 100 101
3 92 99 101
3 96 102 100
3 96 95 102
3 95 103 102
3 95 92 103
3 92 101 103
3 104 106 105
3 104 107 106
3 108 104 105
3 108 109 104
3 106 107 110
3 106 110 111
3 111 110 112
3 111 112 113
3 114 113 112
3 114 115 113
3 112 110 116
3 112 116 117
3 114 112 117
3 114 117 118
3 119 114 118
3 119 115 114
3 119 120 115
3 121 120 119
3 121 122 120
3 108 122 121
3 108 121 109
3 119 118 123
3 121 119 123
3 109 121 124
3 121 123 124
3 109 124 125
3 104 109 125
3 104 125 126
3 107 104 126
3 107 126 127
3 110 107 127
3 110 127 116
3 120 122 128
3 120 128 129
3 122 130 128
3 122 108 130
3 129 128 131
3 129 131 132
3 128 133 131
3 128 130 133
3 130 134 133
3 130 135 134
3 136 129 132
3 115 129 136
3 115 120 129
3 136 132 137
3 138 140 139
3 138 141 140
3 142 138 139
3 142 139 143
3 140 141 144
3 140 144 145
3 139 140 146
3 139 146 147
3 148 141 138
3 148 138 149
3 108 135 130
3 108 105 135
3 105 150 135
3 105 106 150
3 106 151 150
3 106 111 151
3 111 152 151
3 111 113 152
3 113 136 152
3 113 115 136
3 135 150 153
3 135 153 134
3 150 154 153
3 150 151 154
3 151 155 154
3 151 152 155
3 152 137 155
3 152 136 137
3 156 158 157
3 156 159 158
3 157 158 160
3 161 158 159
3 161 160 158
3 156 161 159
3 162 160 161
3 163 161 156
3 163 164 161
3 163 165 164
3 163 166 165
3 163 167 166
3 168 165 166
3 168 164 165
3 167 168 166
3 168 169 164
3 170 168 167
3 170 171 168
3 172 171 170
3 173 172 170
3 173 170 174
3 175 172 173
3 175 171 172
3 174 175 173
3 175 176 171
3 177 175 174
3 177 178 175
3 177 179 178
3 180 179 177
3 180 181 179
3 181 178 179
3 181 182 178
3 180 182 181
3 178 182 183
3 157 182 180
3 157 160 182
3 184 186 185
3 184 187 186
3 187 188 186
3 187 189 188
3 189 190 188
3 189 191 190
3 192 184 185
3 192 185 193
3 191 194 190
3 191 195 194
3 195 196 194
3 195 197 196
3 197 198 196
3 197 199 198
3 199 193 198
3 199 192 193
3 200 202 201
3 200 203 202
3 203 204 202
3 203 205 204
3 205 206 204
3 205 207 206
3 208 200 201
3 208 201 209
3 207 210 206
3 207 211 210
3 211 212 210
3 211 213 212
3 213 214 212
3 213 215 214
3 215 209 214
3 215 208 209
3 216 218 217
3 216 219 218
3 220 219 216
3 220 221 219
3 222 219 221
3 223 219 222
3 223 222 224
3 222 221 225
3 219 226 218
3 219 223 226
3 223 227 226
3 223 228 227
3 229 218 226
3 229 226 230
3 231 233 232
3 231 234 233
3 235 233 234
3 235 234 236
3 237 221 220
3 237 238 221
3 238 228 221
3 238 227 228
3 227 238 239
3 227 239 240
3 226 227 240
3 226 240 230
3 225 221 228
3 225 228 241
3 242 244 243
3 242 245 244
3 246 245 242
3 246 247 245
3 247 244 245
3 247 248 244
3 249 248 247
3 249 250 248
3 251 253 252
3 251 254 253
3 255 254 251
3 255 256 254
3 256 253 254
3 256 257 253
3 258 256 255
3 258 259 256
3 259 257 256
3 259 260 257
3 261 263 262
3 261 264 263
3 265 267 266
3 265 268 267
3 269 268 265
3 269 270 268
3 271 242 243
3 271 246 242
3 272 246 271
3 272 273 246
3 273 247 246
3 273 249 247
3 274 276 275
3 274 277 276
3 278 277 274
3 278 279 277
3 280 251 252
3 280 255 251
3 281 255 280
3 281 258 255
3 282 284 283
3 282 285 284
3 285 286 284
3 285 287 286
3 288 284 286
3 288 289 284
3 283 284 290
3 289 290 284
3 283 290 291
3 291 290 292
3 291 292 293
3 293 294 291
3 293 295 294
3 291 296 283
3 291 294 296
3 289 297 290
3 287 298 286
3 287 299 298
3 286 298 293
3 286 293 292
3 292 288 286
3 292 300 288
3 301 293 298
3 301 295 293
3 302 304 303
3 302 305 304
3 306 303 304
3 306 307 303
3 308 310 309
3 308 311 310
3 312 309 310
3 312 310 313
3 313 310 311
3 313 311 314
3 315 312 313
3 315 313 316
3 316 313 314
3 316 314 317
3 317 314 318
3 314 308 318
3 314 311 308
3 317 318 319
3 320 322 321
3 320 323 322
3 324 321 322
3 324 322 325
3 325 322 323
3 325 323 326
3 327 324 325
3 327 325 328
3 328 325 326
3 328 326 329
3 330 332 331
3 330 333 332
3 334 336 335
3 334 337 336
3 338 340 339
3 338 341 340
3 342 338 339
3 342 339 343
3 326 320 344
3 326 323 320
3 329 326 344
3 329 344 345
3 346 335 347
3 346 334 335
3 348 350 349
3 348 351 350
3 348 349 352
3 348 352 353
3 349 350 354
3 349 354 355
3 350 351 356
3 350 356 357
3 351 348 358
3 351 358 359
3 360 362 361
3 360 363 362
3 364 366 365
3 364 367 366
3 366 368 365
3 366 369 368
3 364 370 367
3 364 371 370
3 371 372 368
3 371 373 372
3 364 373 371
3 368 374 365
3 368 372 374
3 365 375 364
3 365 374 375
3 364 375 373
3 372 376 374
3 372 377 376
3 374 378 375
3 374 376 378
3 375 379 373
3 375 378 379
3 380 382 381
3 380 383 382
3 384 385 366
3 366 385 386
3 366 386 387
3 366 387 369
3 387 388 369
3 369 388 389
3 369 389 390
3 369 390 370
3 390 391 370
3 367 384 366
3 367 392 384
3 367 393 392
3 394 393 367
3 370 394 367
3 370 395 394
3 370 391 395
