ply
format ascii 1.0
element vertex 388
property float x
property float y
property float z
property uchar red
property uchar green
property uchar blue
element face 452
property list uchar int vertex_index
end_header
0.23825 -0.59822 0.82129 125 124 124
0.23825 -0.59822 0.87042 125 124 124
0.29007 -0.59822 0.87042 125 124 124
0.29007 -0.59822 0.82129 125 124 124
0.29001 -0.59822 0.77419 125 124 124
0.23831 -0.59822 0.77419 125 124 124
0.33583 -0.59822 0.87046 125 124 124
0.33583 -0.59822 0.82126 125 124 124
0.23831 -0.59822 0.91752 125 124 124
0.29001 -0.59822 0.91752 125 124 124
0.1925 -0.59822 0.82126 125 124 124
0.1925 -0.59822 0.87046 125 124 124
0.17131 -0.59822 0.93871 213 211 212
0.17131 -0.50209 0.93871 213 211 212
0.35701 -0.50209 0.93871 213 211 212
0.35701 -0.59822 0.93871 213 211 212
0.17131 -0.50209 0.75301 183 181 182
0.17131 -0.59822 0.75301 183 181 182
0.35701 -0.59822 0.75301 183 181 182
0.35701 -0.50209 0.75301 183 181 182
0.35701 -0.50209 0.93871 183 181 182
0.35701 -0.59822 0.93871 183 181 182
0.17131 -0.59822 0.93871 183 181 182
0.17131 -0.50209 0.93871 183 181 182
0.31059 -0.50209 0.89228 183 181 182
0.21774 -0.50209 0.89228 183 181 182
0.31059 -0.50209 0.79943 183 181 182
0.21774 -0.50209 0.79943 183 181 182
0.31059 -0.45144 0.89228 183 181 182
0.21774 -0.45144 0.89228 183 181 182
0.31059 -0.45144 0.79943 183 181 182
0.21774 -0.45144 0.79943 183 181 182
0.29001 -0.59822 0.77419 183 181 182
0.29007 -0.59822 0.82129 183 181 182
0.33583 -0.59822 0.82126 183 181 182
0.33583 -0.59822 0.87046 183 181 182
0.29007 -0.59822 0.87042 183 181 182
0.29001 -0.59822 0.91752 183 181 182
0.23831 -0.59822 0.91752 183 181 182
0.23825 -0.59822 0.87042 183 181 182
0.23831 -0.59822 0.77419 183 181 182
0.23825 -0.59822 0.82129 183 181 182
0.1925 -0.59822 0.82126 183 181 182
0.1925 -0.59822 0.87046 183 181 182
-0.46117 -0.39364 0.73196 220 210 178
-0.46117 -0.39364 1.55133 220 210 178
-0.38289 -0.46117 1.55133 220 210 178
-0.38289 -0.46117 0.73196 220 210 178
-0.46117 0.39364 0.73196 220 210 178
-0.46117 0.39364 1.55133 220 210 178
0.38289 -0.46117 0.73196 220 210 178
0.38289 -0.46117 1.55133 220 210 178
0.46117 -0.39364 0.73196 220 210 178
0.46117 -0.39364 1.55133 220 210 178
0.46117 0.39364 1.55133 220 210 178
0.46117 0.39364 0.73196 220 210 178
-0.35098 -0.42274 1.58977 220 210 178
-0.42274 -0.36084 1.58977 220 210 178
-0.42274 0.36084 1.58977 220 210 178
-0.38289 0.46117 1.55133 220 210 178
-0.38289 0.46117 0.73196 220 210 178
0.38289 0.46117 1.55133 220 210 178
0.38289 0.46117 0.73196 220 210 178
-0.35098 0.42274 1.58977 220 210 178
0.35098 0.42274 1.58977 220 210 178
0.42274 0.36084 1.58977 220 210 178
-0.35141 0.42325 0.69648 220 210 178
-0.42325 0.36127 0.69648 220 210 178
0.35141 0.42325 0.69648 220 210 178
0.42325 0.36127 0.69648 220 210 178
0.42325 -0.36127 0.69648 220 210 178
-0.42325 -0.36127 0.69648 220 210 178
0.35141 -0.42325 0.69648 220 210 178
-0.35141 -0.42325 0.69648 220 210 178
0.42274 -0.36084 1.58977 220 210 178
0.35098 -0.42274 1.58977 220 210 178
0.35098 0.42274 1.58977 229 218 185
0.42274 0.36084 1.58977 229 218 185
-0.42274 0.36084 1.58977 229 218 185
-0.35098 0.42274 1.58977 229 218 185
-0.42274 -0.36084 1.58977 229 218 185
0.42274 -0.36084 1.58977 229 218 185
-0.35098 -0.42274 1.58977 229 218 185
0.35098 -0.42274 1.58977 229 218 185
-0.03168 -0.48171 1.16963 96 96 96
-0.03168 -0.48171 1.23298 96 96 96
0.03168 -0.48171 1.23298 96 96 96
0.03168 -0.48171 1.16963 96 96 96
-0.21446 -0.48171 1.41576 248 249 251
-0.21446 -0.4559 1.41576 248 249 251
0.21446 -0.4559 1.41576 248 249 251
0.21446 -0.48171 1.41576 248 249 251
0.21446 -0.48171 0.98684 248 249 251
0.21446 -0.4559 0.98684 248 249 251
-0.21446 -0.4559 0.98684 248 249 251
-0.21446 -0.48171 0.98684 248 249 251
0.03168 -0.48171 1.16963 248 249 251
-0.03168 -0.48171 1.16963 248 249 251
0.03168 -0.48171 1.23298 248 249 251
-0.03168 -0.48171 1.23298 248 249 251
-0.21662 0.19033 1.93351 183 181 182
-0.21662 0.19033 1.80533 183 181 182
-0.16342 0.24378 1.80533 183 181 182
-0.16342 0.24378 1.93351 183 181 182
-0.21662 -0.136 1.80533 183 181 182
-0.21662 -0.136 1.93351 183 181 182
0.16332 0.24378 1.93351 183 181 182
0.16332 0.24378 1.80533 183 181 182
0.21662 0.19033 1.93351 183 181 182
0.21662 0.19033 1.80533 183 181 182
0.21662 -0.136 1.93351 183 181 182
0.21662 -0.136 1.80533 183 181 182
0.13882 0.21129 1.95445 183 181 182
0.18412 0.16586 1.95445 183 181 182
0.18412 -0.11153 1.95445 183 181 182
0.16332 -0.18945 1.93351 183 181 182
0.16332 -0.18945 1.80533 183 181 182
-0.16342 -0.18945 1.93351 183 181 182
-0.16342 -0.18945 1.80533 183 181 182
0.13882 -0.15696 1.95445 183 181 182
-0.13891 -0.15696 1.95445 183 181 182
-0.18413 -0.11153 1.95445 183 181 182
-0.18413 0.16586 1.95445 183 181 182
-0.13891 0.21129 1.95445 183 181 182
-0.06537 -0.05948 1.80533 183 181 182
0.06532 -0.05948 1.80533 183 181 182
-0.08665 -0.0381 1.80533 183 181 182
-0.06537 -0.05948 1.72903 183 181 182
0.06532 -0.05948 1.72903 183 181 182
-0.08665 -0.0381 1.72903 183 181 182
-0.08665 0.09243 1.72903 183 181 182
-0.08665 0.09243 1.80533 183 181 182
0.08664 -0.0381 1.80533 183 181 182
0.08664 -0.0381 1.72903 183 181 182
-0.04495 -0.01768 1.95445 125 124 124
-0.04495 0.07201 1.95445 125 124 124
0.04486 0.07201 1.95445 125 124 124
0.04486 -0.01768 1.95445 125 124 124
-0.14842 -0.01768 1.95445 125 124 124
-0.14842 0.07201 1.95445 125 124 124
0.1484 -0.01768 1.95445 125 124 124
0.1484 0.07201 1.95445 125 124 124
0.04486 0.17556 1.95445 125 124 124
-0.04495 0.17556 1.95445 125 124 124
0.04486 -0.12123 1.95445 125 124 124
-0.04495 -0.12123 1.95445 125 124 124
-0.06537 0.11381 1.80533 183 181 182
0.06532 0.11381 1.80533 183 181 182
0.08664 0.09243 1.80533 183 181 182
-0.06537 0.11381 1.72903 183 181 182
0.06532 0.11381 1.72903 183 181 182
0.08664 0.09243 1.72903 183 181 182
-0.13891 -0.15696 1.95445 213 211 212
-0.18413 -0.11153 1.95445 213 211 212
-0.14842 -0.06253 1.95445 213 211 212
-0.08985 -0.12123 1.95445 213 211 212
-0.14842 -0.01768 1.95445 213 211 212
-0.04495 -0.12123 1.95445 213 211 212
-0.04495 -0.01768 1.95445 213 211 212
0.13882 -0.15696 1.95445 213 211 212
0.04486 -0.12123 1.95445 213 211 212
0.08976 -0.12123 1.95445 213 211 212
0.1484 -0.06253 1.95445 213 211 212
0.18412 -0.11153 1.95445 213 211 212
0.1484 -0.01768 1.95445 213 211 212
0.04486 -0.01768 1.95445 213 211 212
0.18412 0.16586 1.95445 213 211 212
0.1484 0.07201 1.95445 213 211 212
0.1484 0.11686 1.95445 213 211 212
0.08976 0.17556 1.95445 213 211 212
0.13882 0.21129 1.95445 213 211 212
0.04486 0.17556 1.95445 213 211 212
0.04486 0.07201 1.95445 213 211 212
-0.13891 0.21129 1.95445 213 211 212
-0.04495 0.17556 1.95445 213 211 212
-0.08985 0.17556 1.95445 213 211 212
-0.18413 0.16586 1.95445 213 211 212
-0.14842 0.11686 1.95445 213 211 212
-0.14842 0.07201 1.95445 213 211 212
-0.04495 0.07201 1.95445 213 211 212
0.06532 -0.05948 1.72903 150 148 149
0.06532 -0.05948 1.65745 150 148 149
-0.06537 -0.05948 1.65745 150 148 149
-0.06537 -0.05948 1.72903 150 148 149
-0.08665 -0.0381 1.65745 150 148 149
-0.08665 -0.0381 1.72903 150 148 149
-0.08665 0.09243 1.65745 150 148 149
-0.08665 0.09243 1.72903 150 148 149
0.08664 -0.0381 1.72903 150 148 149
0.08664 -0.0381 1.65745 150 148 149
-0.06537 0.11381 1.65745 150 148 149
-0.06537 0.11381 1.72903 150 148 149
0.06532 0.11381 1.65745 150 148 149
0.06532 0.11381 1.72903 150 148 149
0.08664 0.09243 1.65745 150 148 149
0.08664 0.09243 1.72903 150 148 149
0.06532 -0.05948 1.65745 183 181 182
0.06532 -0.05948 1.58499 183 181 182
-0.06537 -0.05948 1.58499 183 181 182
-0.06537 -0.05948 1.65745 183 181 182
-0.08665 -0.0381 1.58499 183 181 182
-0.08665 -0.0381 1.65745 183 181 182
-0.08665 0.09243 1.58499 183 181 182
-0.08665 0.09243 1.65745 183 181 182
0.08664 -0.0381 1.65745 183 181 182
0.08664 -0.0381 1.58499 183 181 182
-0.06537 0.11381 1.58499 183 181 182
-0.06537 0.11381 1.65745 183 181 182
0.06532 0.11381 1.58499 183 181 182
0.06532 0.11381 1.65745 183 181 182
0.08664 0.09243 1.58499 183 181 182
0.08664 0.09243 1.65745 183 181 182
0.45065 -0.07382 0.8717 145 144 143
0.45065 -0.07382 1.45073 145 144 143
0.49864 -0.10393 1.49245 145 144 143
0.49864 -0.10393 0.82998 145 144 143
0.45065 0.07382 0.8717 145 144 143
0.49864 0.10393 0.82998 145 144 143
0.94213 -0.10393 0.82998 145 144 143
0.6585 -0.10393 1.03468 145 144 143
0.94213 -0.10393 1.03468 145 144 143
0.94213 0.10393 0.82998 145 144 143
0.6585 -0.10393 1.29175 145 144 143
0.6585 0.10393 1.29175 145 144 143
0.6585 0.10393 1.03468 145 144 143
0.94213 -0.10393 1.49245 145 144 143
0.94213 -0.10393 1.29175 145 144 143
0.45065 -0.07382 1.45073 152 151 150
0.45065 0.07382 1.45073 152 151 150
0.49864 0.10393 1.49245 152 151 150
0.49864 -0.10393 1.49245 152 151 150
0.94213 0.10393 1.49245 152 151 150
0.94213 -0.10393 1.49245 152 151 150
0.45065 0.07382 1.45073 145 144 143
0.49864 0.10393 1.49245 145 144 143
0.94213 0.10393 1.49245 145 144 143
0.94213 0.10393 1.29175 145 144 143
0.94213 0.10393 1.03468 145 144 143
1.16318 -0.07968 0.85386 120 119 116
1.16318 -0.07968 1.0108 120 119 116
1.16318 0.07968 1.0108 120 119 116
1.16318 0.07968 0.85386 120 119 116
1.13154 -0.10393 0.82998 120 119 116
1.13154 0.10393 0.82998 120 119 116
1.13154 0.10393 1.03468 120 119 116
0.94213 0.10393 0.82998 120 119 116
0.94213 0.10393 1.03468 120 119 116
1.16318 -0.07968 1.31517 120 119 116
1.16318 -0.07968 1.46904 120 119 116
1.16318 0.07968 1.46904 120 119 116
1.16318 0.07968 1.31517 120 119 116
1.13154 -0.10393 1.29175 120 119 116
1.13154 0.10393 1.29175 120 119 116
1.13154 0.10393 1.49245 120 119 116
0.94213 -0.10393 1.29175 120 119 116
0.94213 0.10393 1.29175 120 119 116
0.94213 0.10393 1.49245 120 119 116
0.6585 0.10393 1.03468 152 151 150
0.94213 0.10393 1.03468 152 151 150
0.94213 -0.10393 1.03468 152 151 150
0.6585 -0.10393 1.03468 152 151 150
1.13154 0.10393 1.03468 129 128 126
1.16318 0.07968 1.0108 129 128 126
1.16318 -0.07968 1.0108 129 128 126
1.13154 -0.10393 1.03468 129 128 126
0.94213 0.10393 1.03468 129 128 126
0.94213 -0.10393 1.03468 129 128 126
1.13154 -0.10393 1.03468 120 119 116
0.94213 -0.10393 1.03468 120 119 116
0.94213 -0.10393 0.82998 120 119 116
1.13154 0.10393 1.49245 129 128 126
1.16318 0.07968 1.46904 129 128 126
1.16318 -0.07968 1.46904 129 128 126
1.13154 -0.10393 1.49245 129 128 126
0.94213 0.10393 1.49245 129 128 126
0.94213 -0.10393 1.49245 129 128 126
1.13154 -0.10393 1.49245 120 119 116
0.94213 -0.10393 1.49245 120 119 116
-0.45065 0.07382 1.45073 145 144 143
-0.49864 0.10393 1.49245 145 144 143
-0.49864 0.10393 0.82998 145 144 143
-0.45065 0.07382 0.8717 145 144 143
-0.49864 -0.10393 0.82998 145 144 143
-0.45065 -0.07382 0.8717 145 144 143
-0.94213 -0.10393 0.82998 145 144 143
-0.94213 0.10393 0.82998 145 144 143
-0.6585 0.10393 1.03069 145 144 143
-0.6585 0.10393 1.28776 145 144 143
-0.6585 -0.10393 1.03069 145 144 143
-0.6585 -0.10393 1.28776 145 144 143
-0.94213 0.10393 1.28776 145 144 143
-0.94213 -0.10393 1.28776 145 144 143
-0.94213 0.10393 1.49245 145 144 143
-0.94213 0.10393 1.03069 145 144 143
-0.49864 -0.10393 1.49245 145 144 143
-0.45065 -0.07382 1.45073 145 144 143
-0.94213 -0.10393 1.03069 145 144 143
-0.94213 -0.10393 1.49245 145 144 143
-0.45065 -0.07382 1.45073 152 151 150
-0.49864 -0.10393 1.49245 152 151 150
-0.49864 0.10393 1.49245 152 151 150
-0.45065 0.07382 1.45073 152 151 150
-0.94213 0.10393 1.49245 152 151 150
-0.94213 -0.10393 1.49245 152 151 150
-1.16318 0.07968 1.46857 120 119 116
-1.16318 -0.07968 1.46857 120 119 116
-1.16318 -0.07968 1.31164 120 119 116
-1.16318 0.07968 1.31164 120 119 116
-1.13154 -0.10393 1.49245 120 119 116
-1.13154 -0.10393 1.28776 120 119 116
-1.13154 0.10393 1.28776 120 119 116
-0.94213 -0.10393 1.49245 120 119 116
-0.94213 -0.10393 1.28776 120 119 116
-0.94213 0.10393 1.28776 120 119 116
-1.13154 0.10393 1.49245 120 119 116
-0.94213 0.10393 1.49245 120 119 116
-1.16318 0.07968 1.00727 120 119 116
-1.16318 -0.07968 1.00727 120 119 116
-1.16318 -0.07968 0.8534 120 119 116
-1.16318 0.07968 0.8534 120 119 116
-1.13154 -0.10393 1.03069 120 119 116
-1.13154 -0.10393 0.82998 120 119 116
-1.13154 0.10393 0.82998 120 119 116
-0.94213 -0.10393 1.03069 120 119 116
-0.94213 -0.10393 0.82998 120 119 116
-0.94213 0.10393 0.82998 120 119 116
-0.6585 0.10393 1.03069 152 151 150
-0.6585 -0.10393 1.03069 152 151 150
-0.94213 -0.10393 1.03069 152 151 150
-0.94213 0.10393 1.03069 152 151 150
-1.13154 0.10393 1.49245 129 128 126
-1.13154 -0.10393 1.49245 129 128 126
-1.16318 -0.07968 1.46857 129 128 126
-1.16318 0.07968 1.46857 129 128 126
-1.13154 0.10393 1.03069 129 128 126
-1.13154 -0.10393 1.03069 129 128 126
-1.16318 -0.07968 1.00727 129 128 126
-1.16318 0.07968 1.00727 129 128 126
-0.94213 0.10393 1.03069 129 128 126
-0.94213 -0.10393 1.03069 129 128 126
-1.13154 0.10393 1.03069 120 119 116
-0.94213 0.10393 1.03069 120 119 116
-0.94213 0.10393 1.49245 129 128 126
-0.94213 -0.10393 1.49245 129 128 126
-0.23825 -0.59822 0.82129 125 124 124
-0.29007 -0.59822 0.82129 125 124 124
-0.29007 -0.59822 0.87042 125 124 124
-0.23825 -0.59822 0.87042 125 124 124
-0.29001 -0.59822 0.77419 125 124 124
-0.23831 -0.59822 0.77419 125 124 124
-0.33583 -0.59822 0.87046 125 124 124
-0.33583 -0.59822 0.82126 125 124 124
-0.23831 -0.59822 0.91752 125 124 124
-0.29001 -0.59822 0.91752 125 124 124
-0.1925 -0.59822 0.82126 125 124 124
-0.1925 -0.59822 0.87046 125 124 124
-0.17131 -0.59822 0.93871 213 211 212
-0.35701 -0.59822 0.93871 213 211 212
-0.35701 -0.50209 0.93871 213 211 212
-0.17131 -0.50209 0.93871 213 211 212
-0.17131 -0.50209 0.75301 183 181 182
-0.35701 -0.50209 0.75301 183 181 182
-0.35701 -0.59822 0.75301 183 181 182
-0.17131 -0.59822 0.75301 183 181 182
-0.35701 -0.50209 0.93871 183 181 182
-0.35701 -0.59822 0.93871 183 181 182
-0.17131 -0.59822 0.93871 183 181 182
-0.17131 -0.50209 0.93871 183 181 182
-0.31059 -0.50209 0.89228 183 181 182
-0.21774 -0.50209 0.89228 183 181 182
-0.31059 -0.50209 0.79943 183 181 182
-0.21774 -0.50209 0.79943 183 181 182
-0.31059 -0.45144 0.89228 183 181 182
-0.21774 -0.45144 0.89228 183 181 182
-0.31059 -0.45144 0.79943 183 181 182
-0.21774 -0.45144 0.79943 183 181 182
-0.29001 -0.59822 0.77419 183 181 182
-0.29007 -0.59822 0.82129 183 181 182
-0.33583 -0.59822 0.82126 183 181 182
-0.33583 -0.59822 0.87046 183 181 182
-0.29007 -0.59822 0.87042 183 181 182
-0.29001 -0.59822 0.91752 183 181 182
-0.23831 -0.59822 0.91752 183 181 182
-0.23825 -0.59822 0.87042 183 181 182
-0.23831 -0.59822 0.77419 183 181 182
-0.23825 -0.59822 0.82129 183 181 182
-0.1925 -0.59822 0.82126 183 181 182
-0.1925 -0.59822 0.87046 183 181 182
3 0 2 1
3 0 3 2
3 0 4 3
3 0 5 4
3 3 6 2
3 3 7 6
3 2 8 1
3 2 9 8
3 1 10 0
3 1 11 10
3 12 14 13
3 12 15 14
3 16 18 17
3 16 19 18
3 18 19 20
3 18 20 21
3 16 17 22
3 16 22 23
3 23 20 24
3 23 24 25
3 16 23 25
3 20 26 24
3 20 19 26
3 19 27 26
3 19 16 27
3 16 25 27
3 25 24 28
3 25 28 29
3 27 25 29
3 24 30 28
3 24 26 30
3 26 31 30
3 26 27 31
3 27 29 31
3 32 18 33
3 18 34 33
3 18 35 34
3 18 21 35
3 35 21 36
3 21 37 36
3 21 38 37
3 21 22 38
3 38 22 39
3 17 18 32
3 17 32 40
3 17 40 41
3 42 17 41
3 22 17 42
3 22 42 43
3 22 43 39
3 44 46 45
3 44 47 46
3 48 44 45
3 48 45 49
3 46 47 50
3 46 50 51
3 51 50 52
3 51 52 53
3 52 54 53
3 52 55 54
3 45 46 56
3 45 56 57
3 49 45 57
3 49 57 58
3 59 49 58
3 49 59 60
3 49 60 48
3 60 59 61
3 60 61 62
3 62 61 54
3 62 54 55
3 61 59 63
3 59 58 63
3 61 63 64
3 54 61 64
3 53 54 65
3 54 64 65
3 48 60 66
3 48 66 67
3 60 68 66
3 60 62 68
3 62 69 68
3 62 55 69
3 69 66 68
3 69 67 66
3 70 67 69
3 55 70 69
3 70 71 67
3 55 52 70
3 52 72 70
3 72 71 70
3 52 50 72
3 50 73 72
3 72 73 71
3 50 47 73
3 47 71 73
3 47 44 71
3 44 67 71
3 44 48 67
3 53 65 74
3 51 53 74
3 51 74 75
3 46 51 75
3 46 75 56
3 76 78 77
3 76 79 78
3 77 78 80
3 77 80 81
3 81 80 82
3 81 82 83
3 84 86 85
3 84 87 86
3 88 90 89
3 88 91 90
3 92 90 91
3 92 93 90
3 94 93 92
3 94 88 89
3 94 92 95
3 94 95 88
3 95 92 96
3 95 96 97
3 88 95 97
3 92 98 96
3 92 91 98
3 91 99 98
3 91 88 99
3 88 97 99
3 100 102 101
3 100 103 102
3 104 100 101
3 104 105 100
3 102 103 106
3 102 106 107
3 107 106 108
3 107 108 109
3 110 109 108
3 110 111 109
3 108 106 112
3 108 112 113
3 110 108 113
3 110 113 114
3 115 110 114
3 115 111 110
3 115 116 111
3 117 116 115
3 117 118 116
3 104 118 117
3 104 117 105
3 115 114 119
3 117 115 119
3 105 117 120
3 117 119 120
3 105 120 121
3 100 105 121
3 100 121 122
3 103 100 122
3 103 122 123
3 106 103 123
3 106 123 112
3 116 118 124
3 116 124 125
3 118 126 124
3 118 104 126
3 125 124 127
3 125 127 128
3 124 129 127
3 124 126 129
3 126 130 129
3 126 131 130
3 132 125 128
3 111 125 132
3 111 116 125
3 132 128 133
3 134 136 135
3 134 137 136
3 138 134 135
3 138 135 139
3 136 137 140
3 136 140 141
3 135 136 142
3 135 142 143
3 144 137 134
3 144 134 145
3 104 131 126
3 104 101 131
3 101 146 131
3 101 102 146
3 102 147 146
3 102 107 147
3 107 148 147
3 107 109 148
3 109 132 148
3 109 111 132
3 131 146 149
3 131 149 130
3 146 150 149
3 146 147 150
3 147 151 150
3 147 148 151
3 148 133 151
3 148 132 133
3 152 154 153
3 152 155 154
3 153 154 156
3 157 154 155
3 157 156 154
3 152 157 155
3 158 156 157
3 159 157 152
3 159 160 157
3 159 161 160
3 159 162 161
3 159 163 162
3 164 161 162
3 164 160 161
3 163 164 162
3 164 165 160
3 166 164 163
3 166 167 164
3 168 167 166
3 169 168 166
3 169 166 170
3 171 168 169
3 171 167 168
3 170 171 169
3 171 172 167
3 173 171 170
3 173 174 171
3 173 175 174
3 176 175 173
3 176 177 175
3 177 174 175
3 177 178 174
3 176 178 177
3 174 178 179
3 153 178 176
3 153 156 178
3 180 182 181
3 180 183 182
3 183 184 182
3 183 185 184
3 185 186 184
3 185 187 186
3 188 180 181
3 188 181 189
3 187 190 186
3 187 191 190
3 191 192 190
3 191 193 192
3 193 194 192
3 193 195 194
3 195 189 194
3 195 188 189
3 196 198 197
3 196 199 198
3 199 200 198
3 199 201 200
3 201 202 200
3 201 203 202
3 204 196 197
3 204 197 205
3 203 206 202
3 203 207 206
3 207 208 206
3 207 209 208
3 209 210 208
3 209 211 210
3 211 205 210
3 211 204 205
3 212 214 213
3 212 215 214
3 216 215 212
3 216 217 215
3 218 215 217
3 219 215 218
3 219 218 220
3 218 217 221
3 215 222 214
3 215 219 222
3 219 223 222
3 219 224 223
3 225 214 222
3 225 222 226
3 227 229 228
3 227 230 229
3 231 229 230
3 231 230 232
3 233 217 216
3 233 234 217
3 234 224 217
3 234 223 224
3 223 234 235
3 223 235 236
3 222 223 236
3 222 236 226
3 221 217 224
3 221 224 237
3 238 240 239
3 238 241 240
3 242 241 238
3 242 243 241
3 243 240 241
3 243 244 240
3 245 244 243
3 245 246 244
3 247 249 248
3 247 250 249
3 251 250 247
3 251 252 250
3 252 249 250
3 252 253 249
3 254 252 251
3 254 255 252
3 255 253 252
3 255 256 253
3 257 259 258
3 257 260 259
3 261 263 262
3 261 264 263
3 265 264 261
3 265 266 264
3 267 238 239
3 267 242 238
3 268 242 267
3 268 269 242
3 269 243 242
3 269 245 243
3 270 272 271
3 270 273 272
3 274 273 270
3 274 275 273
3 276 247 248
3 276 251 247
3 277 251 276
3 277 254 251
3 278 280 279
3 278 281 280
3 281 282 280
3 281 283 282
3 284 280 282
3 284 285 280
3 279 280 286
3 285 286 280
3 279 286 287
3 287 286 288
3 287 288 289
3 289 290 287
3 289 291 290
3 287 292 279
3 287 290 292
3 285 293 286
3 283 294 282
3 283 295 294
3 282 294 289
3 282 289 288
3 288 284 282
3 288 296 284
3 297 289 294
3 297 291 289
3 298 300 299
3 298 301 300
3 302 299 300
3 302 303 299
3 304 306 305
3 304 307 306
3 308 305 306
3 308 306 309
3 309 306 307
3 309 307 310
3 311 308 309
3 311 309 312
3 312 309 310
3 312 310 313
3 313 310 314
3 310 304 314
3 310 307 304
3 313 314 315
3 316 318 317
3 316 319 318
3 320 317 318
3 320 318 321
3 321 318 319
3 321 319 322
3 323 320 321
3 323 321 324
3 324 321 322
3 324 322 325
3 326 328 327
3 326 329 328
3 330 332 331
3 330 333 332
3 334 336 335
3 334 337 336
3 338 334 335
3 338 335 339
3 322 316 340
3 322 319 316
3 325 322 340
3 325 340 341
3 342 331 343
3 342 330 331
3 344 346 345
3 344 347 346
3 344 345 348
3 344 348 349
3 345 346 350
3 345 350 351
3 346 347 352
3 346 352 353
3 347 344 354
3 347 354 355
3 356 358 357
3 356 359 358
3 360 362 361
3 360 363 362
3 362 364 361
3 362 365 364
3 360 366 363
3 360 367 366
3 367 368 364
3 367 369 368
3 360 369 367
3 364 370 361
3 364 368 370
3 361 371 360
3 361 370 371
3 360 371 369
3 369 372 368
3 369 373 372
3 371 373 369
3 368 374 370
3 368 372 374
3 370 375 371
3 370 374 375
3 371 375 373
3 376 377 362
3 362 377 378
3 362 378 379
3 362 379 365
3 379 380 365
3 365 380 381
3 365 381 382
3 365 382 366
3 382 383 366
3 363 376 362
3 363 384 376
3 363 385 384
3 386 385 363
3 366 386 363
3 366 387 386
3 366 383 387
