mtllib Archen.mtl
v 0 0.0628586 0.0689338
vt 0.178308 0.661115
vn 0 -0.6317859 0.7751429
v -0.0952692 0.167289 0.09503859
vt 0.119852 0.751495
vn -0.590001 -0.169933 0.7893171
v -0.117918 0.112576 0.040469
vt 0.23474 0.66672
vn -0.83718 -0.373076 0.39993
v 0 0.143506 0.128857
vt 0.0590475 0.727403
vn 0 -0.3147949 0.9491597
v -0.053757 -7.450581E-09 0
vt 0.335912 0.546716
vn -0.371685 -0.8996891 0.228932
v 0.0952692 0.167289 0.09503859
vn 0.5900017 -0.1699329 0.7893167
v 0 0.0335772 -0.0419025
vt 0.361802 0.621357
vn 0 -0.9332132 -0.3593231
v 0.117918 0.112576 0.0404691
vn 0.83718 -0.373076 0.39993
v 0.053757 -7.450581E-09 0
vt 0.335912 0.546636
vn 0.3025661 -0.9529642 -0.017691
v -0.10242 0.181909 -0.0343108
vt 0.421689 0.77889
vn -0.8043602 0.2262341 -0.5493842
v 0 0.269188 0.0856838
vt 0.0923736 0.855309
vn 0 0.8734317 0.4869468
v -0.147987 0.20755 0.0446604
vt 0.231227 0.810941
vn -0.7253762 -0.5009952 0.4720522
v -0.09526909 0.219574 0.0259774
vt 0.273947 0.821999
vn -0.1514101 0.9879024 -0.03352442
v -0.0831144 0.073598 -0.0649993
vt 0.430826 0.643501
vn -0.8097137 -0.4796018 -0.3381509
v 0.0831144 0.073598 -0.0649993
vn 0.8097139 -0.4796019 -0.33815
v 0 0.238131 -0.0244351
vt 0.38608 0.860644
vn 0 0.9147952 -0.4039181
v 0.10242 0.181909 -0.0343108
vn 0.8043602 0.2262341 -0.5493842
v 0.09526909 0.219574 0.0259774
vn 0.1514101 0.9879024 -0.03352432
v 0.147987 0.20755 0.0446605
vn 0.7253765 -0.5009954 0.4720513
v 0 0.0918663 -0.181609
vt 0.789934 0.666336
vn 0 -0.547631 -0.83672
v -0.0831144 0.117543 -0.105244
vt 0.477881 0.689506
vn -0.8400869 0.06097629 -0.5390139
v 0 0.196317 -0.0931913
vt 0.56889 0.7969
vn 0 0.7252508 -0.6884848
v 0.0831144 0.117543 -0.105244
vn 0.8400869 0.06097639 -0.5390139
v 0 0.13581 -0.128019
vt 0.65596 0.721265
vn 0 0.6509681 -0.7591051
v 0.0628516 0.395216 -0.0740046
vt 0.994461 0.194447
vn 0.3484428 -0.001671129 -0.9373286
v 0.10827 0.493459 0.000315106
vt 0.854854 0.317251
vn 0.4633629 0.709151 -0.531413
v 0.154862 0.42432 0.00596784
vt 0.840723 0.230827
vn 0.8106967 0.1945609 -0.5521928
v 0 0.491956 -0.0568227
vt 0.951506 0.315372
v 0.154867 0.34733 0.0116206
vt 0.826591 0.134589
vn 0.800141 -0.292644 -0.523578
v -0.0628516 0.395216 -0.0740046
vn -0.3484428 -0.001671129 -0.9373286
v 0.0937361 0.284676 0.000315106
vt 0.956538 0.0562717
vn 0.3981619 -0.7213789 -0.5666389
v 0 0.311049 -0.0568227
vt 0.951506 0.0892386
vn 0 -0.5772173 -0.8165905
v 0.135425 0.481668 0.0609
vt 0.708873 0.302512
vn 0.8318871 0.5543281 -0.0261564
v 0 0.5439551 0.0609
vt 0.703416 0.380371
vn 0 0.9822373 -0.1876431
v 0.092757 0.524808 0.121466
vt 0.551978 0.356436
vn 0.492982 0.855386 0.159008
v 0.131579 0.302171 0.0608903
vt 0.708468 0.0781405
vn 0.7761569 -0.6276309 -0.06049809
v -0.0937361 0.284676 0.000315106
vn -0.3981619 -0.7213789 -0.5666389
v -0.10827 0.493459 0.000315106
vn -0.4633629 0.709151 -0.531413
v -0.154867 0.34733 0.0116206
vn -0.800141 -0.292644 -0.523578
v -0.154862 0.42432 0.00596784
vn -0.8106967 0.1945609 -0.5521928
v 0.143052 0.445654 0.121466
vt 0.551978 0.257494
vn 0.9232329 0.274335 0.269038
v 0.0861069 0.252438 0.121466
vt 0.405045 0.0159749
vn 0.4385352 -0.8979583 0.03684961
v 0.141072 0.331592 0.121466
vt 0.551978 0.114917
vn 0.9351908 -0.286693 0.207907
v 0 0.247892 0.0468026
vt 0.737315 0.0102913
vn 0 -0.9633902 -0.2681031
v -0.131579 0.302171 0.0608903
vn -0.7761569 -0.6276309 -0.06049809
v -0.135425 0.481668 0.0609
vn -0.8318871 0.5543281 -0.0261565
v -0.092757 0.524808 0.121466
vn -0.492982 0.855386 0.159008
v 0.114146 0.384228 0.232815
vt 0.273604 0.180711
vn 0.8995406 0.06081847 0.4325828
v 0 0.239658 0.215764
vt 0.164444 0
vn 0 -0.9718521 0.235592
v 0.102253 0.312571 0.234037
vt 0.270551 0.0911402
vn 0.7946123 -0.4712932 0.3827192
v 0.0484482 0.294782 0.293717
vt 0.12135 0.0689045
vn 0.5553621 -0.5443601 0.6286852
v -0.0861069 0.252438 0.121466
vn -0.4385352 -0.8979583 0.03684961
v -0.143052 0.445654 0.121466
vn -0.9232329 0.274335 0.269038
v 0.0646472 0.384228 0.288246
vt 0.135026 0.180711
vn 0.6089647 0.1021009 0.7865986
v -0.141072 0.331592 0.121466
vn -0.9351908 -0.286693 0.207907
v 0 0.289992 0.299143
vt 0.0685128 0.0576027
vn 0 -0.8561012 0.5168082
v -0.0484482 0.294782 0.293717
vn -0.5553621 -0.5443601 0.6286852
v -0.114146 0.384228 0.232815
vn -0.8995406 0.06081857 0.4325828
v 0 0.37449 0.324829
vt 0 0.159826
vn 0 0.1408529 0.9900305
v -0.102253 0.312571 0.234037
vn -0.7946123 -0.4712932 0.3827192
v 0 0.28243 0.315559
vt 0.00865111 0.04475
vn 0 -0.100186 0.9949688
v -0.0646472 0.384228 0.288246
vn -0.6089647 0.1021009 0.7865986
v -0.0800966 0.463617 0.249427
vt 0.19482 0.300651
vn -0.5871298 0.5892948 0.5549868
vt 0.00464284 0.18348
v 0 0.454024 0.29496
vt 0.00464284 0.282705
vn 0 0.5997971 0.8001521
vt 0.161618 0.213124
v 0 0.530853 0.187149
vt 0.00464284 0.389035
vn 0 0.9245878 0.3809689
vt 0.363441 0.277052
vt 0.20999 0.459128
vt 0.413921 0.430982
v 0.0800966 0.463617 0.249427
vn 0.5871301 0.5892951 0.5549861
vt 0.00464284 0.533693
v 0.00308525 0.133988 -0.283808
vt 0.881988 0.40396
vn 0.9999949 0.0008024679 -0.00308838
v 0 0.157868 -0.375712
vt 0.970183 0.415418
vn 0.9994726 0.008166817 -0.03143069
v 0 0.178749 -0.266092
vt 0.864987 0.425437
vn 0.9979028 0.06314389 0.0142468
v 0 0.08626401 -0.290122
vt 0.888047 0.381061
vn 0.9979028 -0.06209239 -0.0182939
v 0 0.120508 -0.23193
vt 0.832204 0.397492
vn 0.9983475 -0.01445139 0.05561768
v -0.00308525 0.133988 -0.283808
vn -0.9999949 0.0008024719 -0.00308841
vn -0.9979028 0.06314389 0.0142468
vn -0.9994726 0.008166817 -0.03143069
vn -0.9983476 -0.01445139 0.05561758
vn -0.9979028 -0.06209239 -0.0182939
v 0 0.136541 -0.291687
vt 0.453158 0.974433
vn 0 -0.7697729 -0.6383179
v 0.00880111 0.1064 -0.196198
vt 0.271274 0.945728
vn 0.7691169 -0.5857009 -0.255761
v -0.00880111 0.1064 -0.196198
vn -0.7691169 -0.5857009 -0.255761
v 0 0.116885 -0.193474
vt 0.266085 0.955714
vn 0 0.9805565 0.1962369
v 0 0.221226 0.196228
vt 0.380487 0.958015
vn 0 0.4459239 0.8950709
v 0.0362823 0.225368 0.0759817
vt 0.338078 0.901139
vn 0.5255219 0.8299398 0.187154
v -0.0362823 0.225368 0.0759817
vt 0.366351 0.901139
vn -0.525522 0.82994 0.187153
v 0 0.170705 0.115764
vt 0.394623 0.901139
vn 0 -0.8469015 0.5317497
vt 0.422895 0.901139
v 0.12369 0.250039 0.105337
vn 0.5845589 0.7429398 0.3260849
v 0.0227597 0.233135 0.030052
vn 0.03651158 0.9634815 -0.2652739
v 0.0002115 0.22107 0.0979611
vn -0.224374 0.8238899 0.5204439
v 0.0667097 0.189908 0.0757348
vn 0.6956272 -0.7107322 0.104702
v 0.0986285 0.294811 -0.0662708
vn 0.3067249 0.9013507 -0.3057559
v -0.0072251 0.238373 0.0316615
vn -0.3753449 0.9185969 0.123677
v 0.0554019 0.22909 0.0671201
vn 0.282342 0.8211061 0.4960521
v 0.0565805 0.213032 -0.013416
vn 0.313015 -0.6238059 -0.7161619
v -0.12369 0.250039 0.105337
vn -0.7851601 0.5100061 0.351308
v -0.000211498 0.22107 0.0979611
vn 0.6633388 -0.3418439 0.6656758
v -0.0227597 0.233135 0.030052
vn 0.112768 -0.04725161 -0.9924972
v -0.0667097 0.189908 0.0757348
vn -0.120176 -0.9835532 -0.134836
v -0.0986285 0.294811 -0.0662708
vn -0.4264708 0.7029517 -0.5691938
v -0.0554019 0.22909 0.0671201
vn -0.6169391 -0.354433 0.702683
v 0.0072251 0.238373 0.0316614
vn 0.9730719 -0.118743 -0.197563
v -0.0565805 0.213032 -0.013416
vn -0.05065569 -0.9405978 -0.3357229
v 0 0.18712 -0.176603
vn 0 0.5755439 -0.8177709
v 0.034837 0.106594 -0.151145
vn 0.5990682 0.006031912 -0.8006753
v -0.034837 0.106594 -0.151145
vn -0.5990682 0.006031782 -0.8006753
v 0 0.136425 -0.116727
vn 0 0.7631942 0.6461692
v 0.0855238 0.137655 -0.186296
vn 0.3289409 0.08968858 -0.9400818
v 0.012065 0.0717631 -0.151744
vn 0.126083 -0.567296 -0.8138049
v -0.00110661 0.132003 -0.149689
vn -0.3611481 0.5193681 -0.7744862
v 0.0295988 0.110612 -0.124718
vn 0.7244619 0.06451889 0.6862889
v 0.0573009 0.0332056 -0.186619
vn 0.109779 -0.7765509 -0.620417
v -0.0158906 0.0871576 -0.153163
vn -0.6542463 -0.6122344 -0.4439942
v 0.0312012 0.104991 -0.158064
vn 0.493461 0.470416 -0.731577
v 0.0226719 0.0837682 -0.125023
vn 0.180718 -0.707953 0.6827471
v -0.0855238 0.137655 -0.186296
vn -0.7946731 0.184322 -0.5783771
v 0.00110661 0.132003 -0.149689
vn 0.324098 0.6750559 -0.6627669
v -0.012065 0.0717631 -0.151744
vn -0.2359681 -0.6444532 -0.7273232
v -0.0295988 0.110612 -0.124718
vn -0.7059062 0.12692 0.6968412
v -0.0573009 0.0332056 -0.186619
vn -0.7825511 -0.5757331 -0.23695
v -0.0312012 0.104991 -0.158064
vn -0.7217419 0.4659919 -0.5118009
v 0.0158906 0.0871575 -0.153163
vn 0.644124 -0.5345351 -0.5471531
v -0.0226719 0.0837682 -0.125023
vn -0.513379 -0.498952 0.698204
vt 0.979969 0.593971
v 0.266906 0.282071 -0.0465646
vt 0.573521 0.505058
vn -0.4018198 0.8985257 -0.1766139
vt 0.962091 0.51861
vt 0.848173 0.617324
vn 0.5187851 -0.8546252 -0.02186181
v -0.266906 0.282071 -0.0465646
vn 0.4018199 0.8985258 -0.176613
vn -0.5187839 -0.8546258 -0.0218618
vn 0 -0.9082468 -0.4184349
vn -0.04288082 -0.9074113 -0.4180502
vn 0.04288078 -0.9074115 -0.4180498
v 0.2256 0.256902 -0.0321336
vt 0.0683487 0.901098
vn -0.5206221 0.8537872 5.609321E-05
v 0.266463 0.281821 -0.0466563
vt 0.197214 0.901098
v 0.294805 0.299108 -0.125997
vt 0.174499 0.992785
v 0.188195 0.23408 -0.0290035
vt 0.000529472 0.885116
vn -0.5206222 0.8537872 5.609321E-05
v 0.236796 0.263725 -0.0330057
vt 0.22736 0.885116
v 0.263615 0.280084 -0.1304
vt 0.161941 0.992785
v 0.159976 0.216868 -0.0266798
vt 0.00385103 0.890824
v 0.205332 0.244521 -0.0303155
vt 0.242305 0.890824
v 0.219276 0.253038 -0.11643
vt 0.161941 0.976231
vn 0.5206221 -0.8537872 -5.609321E-05
vn 0.5206222 -0.8537872 -5.609321E-05
v -0.2256 0.256902 -0.0321336
vn 0.5206221 0.8537872 5.465492E-05
v -0.294805 0.299108 -0.125997
v -0.266463 0.281821 -0.0466563
v -0.188195 0.23408 -0.0290035
vn 0.5206222 0.8537872 5.465492E-05
v -0.263615 0.280084 -0.1304
v -0.236796 0.263725 -0.0330057
v -0.159976 0.216868 -0.0266798
v -0.219276 0.253038 -0.11643
v -0.205332 0.244521 -0.0303155
vn -0.5206221 -0.8537872 -5.465492E-05
vn -0.5206222 -0.8537872 -5.465492E-05
vn 0 -0.2514839 0.9678615
o merged_0_0_node
g polygon_0
usemtl mat_body_mat_id
f 1/1/1 2/2/2 3/3/3
f 1/1/1 4/4/4 2/2/2
f 1/1/1 3/3/3 5/5/5
f 1/1/1 6/2/6 4/4/4
f 1/1/1 5/5/5 7/6/7
f 1/1/1 8/3/8 6/2/6
f 1/1/1 7/6/7 9/7/9
f 1/1/1 9/7/9 8/3/8
f 2/2/2 10/8/10 3/3/3
f 2/2/2 4/4/4 11/9/11
f 2/2/2 12/10/12 10/8/10
f 2/2/2 11/9/11 13/11/13
f 2/2/2 13/11/13 12/10/12
f 4/4/4 6/2/6 11/9/11
f 5/5/5 14/12/14 7/6/7
f 5/5/5 3/3/3 14/12/14
f 3/3/3 10/8/10 14/12/14
f 9/7/9 15/12/15 8/3/8
f 9/7/9 7/6/7 15/12/15
f 13/11/13 11/9/11 16/13/16
f 13/11/13 16/13/16 10/8/10
f 6/2/6 8/3/8 17/8/17
f 6/2/6 18/11/18 11/9/11
f 6/2/6 17/8/17 19/10/19
f 6/2/6 19/10/19 18/11/18
f 18/11/18 17/8/17 16/13/16
f 18/11/18 16/13/16 11/9/11
f 8/3/8 15/12/15 17/8/17
f 14/12/14 20/14/20 7/6/7
f 14/12/14 10/8/10 21/15/21
f 14/12/14 21/15/21 20/14/20
f 7/6/7 20/14/20 15/12/15
f 16/13/16 17/8/17 22/16/22
f 16/13/16 22/16/22 10/8/10
f 10/8/10 22/16/22 21/15/21
f 20/14/20 23/15/23 15/12/15
f 20/14/20 21/15/21 24/17/24
f 20/14/20 24/17/24 23/15/23
f 23/15/23 22/16/22 17/8/17
f 23/15/23 17/8/17 15/12/15
f 23/15/23 24/17/24 22/16/22
f 22/16/22 24/17/24 21/15/21
f 25/18/25 26/19/26 27/20/27
f 25/18/25 28/21/24 26/19/26
f 25/18/25 27/20/27 29/22/28
f 25/18/25 30/18/29 28/21/24
f 25/18/25 29/22/28 31/23/30
f 25/18/25 32/24/31 30/18/29
f 25/18/25 31/23/30 32/24/31
f 26/19/26 33/25/32 27/20/27
f 26/19/26 28/21/24 34/26/33
f 26/19/26 35/27/34 33/25/32
f 26/19/26 34/26/33 35/27/34
f 29/22/28 36/28/35 31/23/30
f 30/18/29 32/24/31 37/23/36
f 30/18/29 38/19/37 28/21/24
f 30/18/29 37/23/36 39/22/38
f 30/18/29 40/20/39 38/19/37
f 30/18/29 39/22/38 40/20/39
f 28/21/24 38/19/37 34/26/33
f 33/25/32 35/27/34 41/29/40
f 36/28/35 42/30/41 31/23/30
f 36/28/35 43/31/42 42/30/41
f 32/24/31 44/32/43 37/23/36
f 32/24/31 31/23/30 44/32/43
f 31/23/30 42/30/41 44/32/43
f 39/22/38 37/23/36 45/28/44
f 40/20/39 46/25/45 38/19/37
f 34/26/33 38/19/37 47/27/46
f 38/19/37 46/25/45 47/27/46
f 41/29/40 48/33/47 43/31/42
f 42/30/41 49/34/48 44/32/43
f 42/30/41 43/31/42 50/35/49
f 42/30/41 51/36/50 49/34/48
f 42/30/41 50/35/49 51/36/50
f 50/35/49 43/31/42 48/33/47
f 50/35/49 48/33/47 51/36/50
f 37/23/36 52/30/51 45/28/44
f 37/23/36 44/32/43 52/30/51
f 44/32/43 49/34/48 52/30/51
f 46/25/45 53/29/52 47/27/46
f 48/33/47 54/37/53 51/36/50
f 45/28/44 52/30/51 55/31/54
f 49/34/48 51/36/50 56/38/55
f 49/34/48 57/36/56 52/30/51
f 49/34/48 56/38/55 57/36/56
f 53/29/52 55/31/54 58/33/57
f 54/37/53 59/39/58 51/36/50
f 52/30/51 57/36/56 60/35/59
f 52/30/51 60/35/59 55/31/54
f 60/35/59 57/36/56 58/33/57
f 60/35/59 58/33/57 55/31/54
f 59/39/58 61/40/60 51/36/50
f 59/39/58 57/36/56 61/40/60
f 59/39/58 62/37/61 57/36/56
f 57/36/56 62/37/61 58/33/57
f 63/41/62 59/42/58 64/43/63
f 63/41/62 62/44/61 59/42/58
f 63/41/62 64/43/63 65/45/64
f 63/41/62 58/46/57 62/44/61
f 63/41/62 65/45/64 47/47/46
f 63/41/62 53/48/52 58/46/57
f 63/41/62 47/47/46 53/48/52
f 59/42/58 66/41/65 64/43/63
f 59/42/58 54/44/53 66/41/65
f 64/43/63 66/41/65 65/45/64
f 47/47/46 65/45/64 34/49/33
f 54/44/53 48/46/47 66/41/65
f 65/45/64 35/47/34 34/49/33
f 65/45/64 66/41/65 35/47/34
f 48/46/47 41/48/40 66/41/65
f 66/41/65 41/48/40 35/47/34
f 67/50/66 68/51/67 69/52/68
f 67/50/66 70/53/69 68/51/67
f 67/50/66 69/52/68 71/54/70
f 67/50/66 71/54/70 70/53/69
f 72/50/71 69/52/72 68/51/73
f 72/50/71 71/54/74 69/52/72
f 72/50/71 68/51/73 70/53/75
f 72/50/71 70/53/75 71/54/74
f 73/55/76 74/56/77 75/56/78
f 73/55/76 76/57/79 74/56/77
f 73/55/76 75/56/78 76/57/79
f 77/58/80 78/59/81 79/60/82
f 77/58/80 79/60/82 80/61/83
f 77/58/80 80/61/83 78/62/81
f 81/58/84 82/59/85 83/60/86
f 81/58/84 83/60/86 84/61/87
f 81/58/84 84/61/87 82/62/85
f 85/58/88 86/59/89 87/60/90
f 85/58/88 87/60/90 88/61/91
f 85/58/88 88/61/91 86/62/89
f 89/58/92 90/60/93 91/59/94
f 89/58/92 92/61/95 90/60/93
f 89/58/92 91/62/94 92/61/95
f 93/58/96 94/60/97 95/59/98
f 93/58/96 96/61/99 94/60/97
f 93/58/96 95/62/98 96/61/99
f 97/58/100 98/59/101 99/60/102
f 97/58/100 99/60/102 100/61/103
f 97/58/100 100/61/103 98/62/101
f 101/58/104 102/59/105 103/60/106
f 101/58/104 103/60/106 104/61/107
f 101/58/104 104/61/107 102/62/105
f 105/58/108 106/59/109 107/60/110
f 105/58/108 107/60/110 108/61/111
f 105/58/108 108/61/111 106/62/109
f 109/58/112 110/60/113 111/59/114
f 109/58/112 112/61/115 110/60/113
f 109/58/112 111/62/114 112/61/115
f 113/58/116 114/60/117 115/59/118
f 113/58/116 116/61/119 114/60/117
f 113/58/116 115/62/118 116/61/119
f 18/63/18 117/64/120 17/65/17
f 18/63/18 19/66/19 117/64/120
f 17/65/17 117/64/121 19/66/19
f 118/64/122 13/63/13 10/65/10
f 118/64/122 12/66/12 13/63/13
f 10/65/10 12/66/12 118/64/123
f 61/40/124 57/36/125 56/38/124
f 61/40/124 56/38/124 51/36/126
f 119/67/127 120/68/127 121/69/127
f 122/70/128 123/71/127 124/72/127
f 125/73/127 126/74/128 127/75/128
f 119/67/129 121/69/129 120/68/129
f 122/70/130 124/72/129 123/71/129
f 125/73/129 127/75/130 126/74/130
f 128/67/131 129/69/131 130/68/131
f 131/70/132 132/72/131 133/71/131
f 134/73/131 135/75/132 136/74/132
f 128/67/133 130/68/133 129/69/133
f 131/70/134 133/71/133 132/72/133
f 134/73/133 136/74/134 135/75/134
f 74/56/135 76/57/135 75/56/135
vt 0.211256 0.804096
vt 0.509215 0.76732
vt 0.76048 0.823769
vt 0.514132 0.991692
vt 0.211256 0.946674
vt 0.788744 0.920007
v 0.15798 0.396492 0.0665431
vt 0.485868 0.885221
vn 0.9928738 0.006883638 0.118972
v -0.15798 0.396492 0.0665431
vn -0.9928738 0.006883638 0.118972
o merged_1_0_node
g polygon_0
usemtl TEX_ANIM_EYE_mat_id
f 43/76/42 36/77/35 29/78/28
f 33/79/32 41/80/40 27/81/27
f 41/80/40 137/82/136 27/81/27
f 27/81/27 137/82/136 29/78/28
f 29/78/28 137/82/136 43/76/42
f 43/76/42 137/82/136 41/80/40
f 39/78/38 138/82/137 40/81/39
f 40/81/39 138/82/137 53/80/52
f 40/81/39 53/80/52 46/79/45
f 55/76/54 39/78/38 45/77/44
f 53/80/52 138/82/137 55/76/54
f 55/76/54 138/82/137 39/78/38
