mtllib Archeops.mtl
v 0 0.311458 0.0543339
vt 0.803975 0.373855
vn 0 0.9371477 0.3489329
v -0.0920483 0.327402 0.00356186
vt 0.814474 0.375503
vn -0.02259921 0.9413815 0.3365861
v -0.133332 0.330243 0.0613282
vt 0.802528 0.375797
vn 0.1486669 0.9267337 0.3450549
v -0.066666 0.370534 -0.0468832
vt 0.824907 0.379963
vn 0.07433339 0.8818089 0.465712
v -0.0920483 0.290314 0.10317
vt 0.793875 0.371669
vn -0.02259909 0.9322757 0.3610419
v 0 0.345946 -0.046242
vt 0.824774 0.377421
vn 0 0.9459341 0.324359
v -0.066666 0.289952 0.16954
vt 0.78015 0.371631
vn 0.07433332 0.9716582 0.224399
v 0.066666 0.370534 -0.0468832
vn -0.07433349 0.8818089 0.465712
v 0 0.271771 0.152974
vt 0.783576 0.369751
vn 0 0.9277228 0.3732699
v 0.0920483 0.327402 0.00356185
vn 0.02259919 0.9413816 0.3365859
v 0.066666 0.289952 0.16954
vn -0.07433332 0.9716582 0.224399
v 0.133332 0.330243 0.0613282
vn -0.1486671 0.9267335 0.3450552
v 0.0920483 0.290314 0.10317
vn 0.02259919 0.9322757 0.3610419
v 0 0.0803398 -0.0317196
vt 0.821771 0.349957
vn 0 -0.937148 -0.348932
vn 0.4472138 -0.6893876 0.5698637
vn 0 -0.6943288 0.7196578
vn 0.7938856 -0.5343947 0.2901168
vn -0.4472141 -0.6893871 0.569864
vn 0.8944272 -0.4191051 -0.156048
vn -0.7938853 -0.5343952 0.2901171
vn 0.7938857 -0.2145279 -0.5689668
vn -0.8944273 -0.4191051 -0.1560471
vn 0.4472139 -0.148823 -0.8819588
vn -0.7938857 -0.2145279 -0.5689668
vn 0 -0.05459508 -0.9985086
vn -0.4472139 -0.148823 -0.8819588
v 0 0.139647 -0.219282
vt 0.832801 0.324528
vn 0 -0.107848 -0.9941674
v -0.0690016 0.100265 -0.212918
vt 0.830587 0.317679
vn -0.02259899 -0.120783 -0.9924217
v -0.0999487 0.138026 -0.23422
vt 0.837997 0.324246
vn 0.1486669 -0.1066499 -0.9831195
v -0.0499744 0.051973 -0.224885
vt 0.83475 0.309279
vn 0.07433349 0.0213488 -0.9970049
v -0.0690015 0.179477 -0.221511
vt 0.833577 0.331455
vn -0.0225989 -0.09483961 -0.995236
v 0 0.0606597 -0.208621
vt 0.829093 0.31079
vn 0 -0.133754 -0.9910146
v -0.0499743 0.22408 -0.243556
vt 0.841245 0.339213
vn 0.07433401 -0.234648 -0.9692341
v 0.0499744 0.051973 -0.224885
vn -0.0743333 0.0213488 -0.9970049
v 0 0.219083 -0.225807
vt 0.835071 0.338344
vn 0 -0.08186822 -0.9966432
v 0.0690015 0.100265 -0.212918
vn 0.02259929 -0.120783 -0.9924217
v 0.0499744 0.22408 -0.243556
vn -0.07433391 -0.234648 -0.9692341
v 0.0999487 0.138026 -0.234221
vn -0.1486669 -0.1066499 -0.9831195
v 0.0690016 0.179477 -0.221511
vn 0.0225988 -0.09483941 -0.995236
v 0 0.159585 -0.035489
vt 0.76887 0.327996
vn 0 0.107849 0.9941673
vn 0.4472139 0.8183099 0.361066
vn 0 0.9544469 0.298381
vn 0.7938859 0.4987699 0.347813
vn -0.4472139 0.8183099 0.361066
vn 0.8944272 0.04823101 0.4446051
vn -0.7938855 0.4987703 0.3478132
vn 0.7938856 -0.4125828 0.4466778
vn -0.8944272 0.04823131 0.4446051
vn 0.447213 -0.721848 0.528144
vn -0.7938856 -0.4125828 0.4466778
vn 0 -0.8682598 0.4961098
vn -0.4472138 -0.7218477 0.5281438
v 0 0.56954 0.400336
vt 0.000387877 0.217675
vn 0 0.699283 0.714845
v -0.113911 0.543252 0.357912
vt -0.267977 0.238772
vn -0.6591741 0.5072061 0.555186
v -0.0719601 0.48231 0.421879
vt -0.130312 0.132078
vn -0.489915 0.155966 0.857705
v -0.0809869 0.608354 0.297295
vt -0.200042 0.341678
vn -0.3843281 0.8437412 0.3746901
v 0 0.477648 0.449259
vt 0.000387847 0.117497
vn 0 0.193318 0.9811361
v 0 0.630951 0.28916
vt 0.000387967 0.351753
vn 0 0.9638267 0.2665299
v 0.0719601 0.48231 0.421879
vt 0.131088 0.132079
vn 0.489915 0.155966 0.857705
v 0.0809869 0.608354 0.297295
vt 0.200818 0.341678
vn 0.3843278 0.8437415 0.3746898
v 0.113911 0.543252 0.357912
vt 0.268753 0.238772
vn 0.6591744 0.5072063 0.5551854
v -0.121038 0.48231 0.370358
vt -0.294506 0.17617
vn -0.8937019 0.06670449 0.443675
v -0.131253 0.578677 0.262227
vt -0.337004 0.390738
vn -0.8069173 0.5556931 0.2002241
v 0 0.387264 0.441072
vt 0.000387639 0.0184984
vn 0 -0.6561139 0.7546619
v 0.0932732 0.623798 0.18961
vt 0.22523 0.477267
vn 0.4282148 0.9009907 -0.06962698
v -0.0932732 0.623798 0.18961
vt -0.224454 0.477267
vn -0.428214 0.900991 -0.069627
v 0 0.637386 0.137069
vt 0.000387967 0.540134
vn 0 0.964455 -0.264247
v 0.121038 0.48231 0.370358
vt 0.295282 0.176171
vn 0.8937019 0.06670449 0.443675
v 0.131253 0.578677 0.262227
vt 0.33778 0.390738
vn 0.8069173 0.5556931 0.2002241
v -0.117936 0.413141 0.374008
vt -0.291207 0.0730244
vn -0.7038868 -0.5605959 0.4362059
v -0.0957071 0.584029 0.08875141
vt -0.227138 0.601492
vn -0.517221 0.661752 -0.54274
v 0.0957071 0.584029 0.08875141
vt 0.227914 0.601492
vn 0.517221 0.661752 -0.54274
v 0 0.565908 0.02380931
vt 0.000387877 0.665921
vn 0 0.6323218 -0.7747058
v -0.158965 0.547102 0.158919
vt -0.372525 0.541862
vn -0.9093782 0.3811771 -0.166539
v -0.16214 0.505517 0.241825
vt -0.523827 0.431629
vn -0.9718428 0.131771 0.195341
v 0.117936 0.413141 0.374008
vt 0.291983 0.0730247
vn 0.7038868 -0.5605959 0.4362059
v 0.158965 0.547102 0.158919
vt 0.373301 0.541862
vn 0.9093779 0.3811779 -0.166539
v 0.16214 0.505517 0.241825
vt 0.524602 0.431629
vn 0.9718428 0.131771 0.195341
v -0.0664914 0.48231 0.0005812484
vt -0.164168 0.752029
vn -0.434942 0.0738992 -0.897421
v 0.0664914 0.48231 0.0005812484
vt 0.164944 0.752029
vn 0.434942 0.0738992 -0.897421
v -0.154794 0.48231 0.09693291
vt -0.39469 0.662524
vn -0.8942414 -0.01108699 -0.4474477
v 0.154794 0.48231 0.09693291
vt 0.395466 0.662525
vn 0.8942414 -0.01108699 -0.4474477
v -0.107585 0.378104 0.07348781
vt -0.283603 0.832108
vn -0.7574779 -0.430479 -0.490831
v 0 0.372567 0.008545668
vt 0.000387669 0.886977
vn 0 -0.3963259 -0.9181099
v 0.107585 0.378104 0.07348781
vt 0.284378 0.832108
vn 0.7574779 -0.430479 -0.490831
v -0.0818192 0.33315 0.0847699
vt -0.202102 0.93286
vn -0.5365639 -0.8244839 -0.179793
v 0.0818192 0.33315 0.0847699
vt 0.202878 0.93286
vn 0.5365639 -0.8244839 -0.179793
v 0 0.30849 0.06926131
vt 0.000387579 0.970263
vn 0 -0.9657165 -0.2595989
v -0.123775 0.222841 0.109996
vt 0.774553 0.410067
vn -0.5468138 0.2212869 0.8074817
v -0.158454 0.22153 -0.0119653
vt 0.800701 0.409926
vn -0.8586136 -0.4470858 -0.2507929
v -0.181075 0.1171 0.0229398
vt 0.793217 0.398732
vn -0.9905559 -0.136801 0.009200449
v -0.20116 0.277568 0.0415166
vt 0.789234 0.415934
vn -0.5365632 0.03947911 0.8429362
v -0.112109 0.0807641 0.0804072
vt 0.780896 0.394837
vn -0.368522 -0.458436 0.80872
v -0.123775 0.293912 0.00631625
vt 0.796781 0.417686
vn -0.03206499 0.9960455 -0.08285606
v 0 0.190512 0.149954
vt 0.765986 0.406601
vn 0 -0.004416891 0.9999902
v 0 0.350013 0.0856592
vt 0.782355 0.422551
vn 0 0.8897685 0.4564122
v -0.100883 0.0907802 -0.107544
vt 0.821193 0.39591
vn -0.6296137 -0.5752467 -0.5221857
v -0.100883 0.155221 -0.162249
vt 0.832921 0.402818
vn -0.7023251 0.267278 -0.6597741
v -0.119987 0.248248 -0.0775958
vt 0.814772 0.412791
vn -0.3097048 0.5927007 -0.7434977
v 0 0.0658606 0.0745115
vt 0.78216 0.393239
vn -0.000135729 -0.7859517 0.6182878
v 0 0.300311 -0.0524052
vt 0.809371 0.418372
vn 0 0.8717687 -0.4899178
v 0 0.132464 -0.266052
vt 0.855176 0.400379
vn 0 -0.4766902 -0.8790714
v 0 0.0401446 -0.0761486
vt 0.814461 0.390482
vn -0.000150666 -0.950444 -0.310896
v 0.112109 0.0807641 0.0804073
vn 0.368535 -0.4583179 0.8087809
v 0.123775 0.293912 0.0063163
vn 0.03206519 0.9960456 -0.08285567
v 0.123775 0.222841 0.109996
vn 0.5468138 0.2212869 0.8074817
v 0 0.24625 -0.115974
vt 0.823 0.412577
vn 0 0.7734529 -0.6338539
v 0.100883 0.0907802 -0.107544
vn 0.6296358 -0.5751469 -0.5222689
v 0 0.194351 -0.199378
vt 0.840881 0.407013
vn 0 0.7358211 -0.6771761
v 0.100883 0.155221 -0.162249
vn 0.7023251 0.267278 -0.6597741
v 0.20116 0.277568 0.0415167
vn 0.5365632 0.03947921 0.8429362
v 0.119987 0.248248 -0.0775957
vn 0.309705 0.5927001 -0.7434981
v 0.181074 0.1171 0.0229399
vn 0.990554 -0.136817 0.009158101
v 0.158454 0.22153 -0.0119653
vn 0.8586136 -0.4470858 -0.2507929
v 0 0.323539 0.333346
vt 0.545226 0.0218778
vn 0 -0.9595574 0.2815131
v 0 0.323997 0.205904
vt 0.683754 0.00297186
vn 0 -0.9963425 0.08544936
v 0.0943146 0.362061 0.221424
vt 0.80411 0.0895083
vn 0.530928 -0.841215 0.102337
v -0.0943146 0.362061 0.221424
vn -0.530928 -0.841215 0.102337
vt 0.612149 0.237994
vt 0.376048 0.180969
v 0.167311 0.41908 0.221424
vt 0.867554 0.222
vn 0.8909569 -0.451132 0.0517272
v -0.167311 0.41908 0.221424
vn -0.8909569 -0.451132 0.0517272
v -0.128058 8.71792E-05 2.241466E-05
vt 0.766574 0.898945
vn -0.3712299 -0.9269508 -0.05431889
vt 0.859271 0.988393
vt 0.990061 0.901482
vt 0.500807 0.984057
vt 0.804422 0.753716
vt 0.500807 0.797323
v 0.128044 0 2.241466E-05
vn 0.3025661 -0.9529642 -0.017691
v 0 0.134775 -0.522996
vt 0.595074 0.576905
vn 0 0 -1
v 0 0.14922 -0.277189
vt 0.576505 0.269646
vn 0 0.9982779 -0.05866219
v 0.0144444 0.134775 -0.277189
vt 0.595074 0.269646
vn 0.9982779 0 -0.05866219
v -0.0144444 0.134775 -0.277189
vn -0.9982779 0 -0.05866229
v 0 0.120331 -0.277189
vt 0.613643 0.269646
vn 0 -0.9982779 -0.05866229
vt 0.408673 0.266874
vt 0.476073 0.26305
vt 0.468424 0.269132
vt 0.401017 0.276262
vt 0.473989 0.280219
vt 0.401017 0.290325
vt 0.462424 0.305919
vt 0.431848 0.321899
vt 0.390954 0.311643
v 0.365131 0.387842 -0.0691998
vt 0.643065 0.747271
vn -0.4933671 0.8698212 0
v 0.408742 0.412578 -0.243948
vt 0.633408 0.571375
v 0.29146 0.346308 -0.0431716
vt 0.744489 0.767567
vn -0.4933671 0.8698213 0
v 0.317153 0.360816 -0.0496961
vt 0.709012 0.767567
v 0.364699 0.387597 -0.281627
vt 0.694736 0.535618
v 0.242072 0.318295 -0.0445484
vt 0.813261 0.767567
v 0.261611 0.329377 -0.0440037
vt 0.786054 0.767567
vn -0.4933671 0.8698211 0
v 0.313509 0.358562 -0.308564
vt 0.766018 0.510056
v 0.177754 0.281813 -0.0463413
vt 0.902822 0.767567
v 0.195515 0.291887 -0.0458462
vt 0.87809 0.767567
v 0.231655 0.312134 -0.274174
vt 0.879999 0.54269
v 0.12963 0.254517 -0.0476828
vt 0.969834 0.767567
v 0.159681 0.271562 -0.0468451
vt 0.927988 0.767567
v 0.16051 0.27178 -0.230699
vt 0.979066 0.583947
v 0.11164 0.244313 -0.0481843
vt 0.994885 0.767567
v -0.365131 0.387842 -0.0691998
vn 0.4933671 0.8698212 0
v -0.29146 0.346308 -0.0431716
vn 0.4933671 0.8698213 0
v -0.408742 0.412578 -0.243948
v -0.317153 0.360816 -0.0496961
v -0.242072 0.318295 -0.0445484
vn 0.4933671 0.8698211 0
v -0.364699 0.387597 -0.281627
v -0.261611 0.329377 -0.0440037
v -0.177754 0.281813 -0.0463413
v -0.313509 0.358562 -0.308564
v -0.195515 0.291887 -0.0458462
v -0.12963 0.254517 -0.0476828
v -0.231655 0.312134 -0.274174
v -0.159681 0.271562 -0.0468451
v -0.11164 0.244313 -0.0481843
v -0.16051 0.27178 -0.230699
v 0 0.132648 -0.497015
vt 0.796082 0.53007
vn 1 0 0
v 0 0.104879 -0.451695
vt 0.778714 0.52475
v 0 0.05558579 -0.557253
vt 0.819166 0.515305
v 0 0.134246 -0.47725
vt 0.788508 0.530377
v 0 0.132694 -0.421352
vt 0.767086 0.530079
v 0 0.03319569 -0.475372
vt 0.787788 0.511014
v 0.382602 0.397812 -0.0686088
vt 0.947735 0.184299
vn 0.5778529 -0.7946038 -0.1862549
vt 0.937666 0.429272
vt 0.989488 0.449881
vt 0.893618 0.398981
vt 0.9305 0.477459
vn -0.3773928 0.9258415 -0.01980469
v -0.382602 0.397812 -0.0686088
vn 0.3773928 0.9258415 -0.01980539
vn -0.5778529 -0.7946038 -0.1862549
v -0.183773 0.0990235 -0.198514
vt 0.987924 0.530481
vn -0.845602 -0.517641 0.130404
v -0.118233 0.031207 -0.0426898
vt 0.925269 0.518043
v -0.139709 0.0720572 -0.0201047
vt 0.918146 0.529693
vn -0.8456019 -0.5176409 0.130404
v 0.118233 0.031207 -0.0426898
vn 0.845602 -0.517641 0.130404
v 0.183773 0.0990235 -0.198514
v 0.139709 0.0720572 -0.0201047
vn 0.8456019 -0.5176409 0.130404
v 0.120288 0.038787 -0.0260305
vt 0.927137 0.521648
v 0.201731 0.143849 -0.137207
vt 0.961379 0.540346
v 0.130043 0.0626855 0.005307991
vt 0.911253 0.53153
v 0.110605 0.0283204 -0.004447349
vt 0.914913 0.514645
v 0.143057 0.034572 -0.190162
vt 0.98303 0.516726
v 0.131872 0.0643078 0.0002458176
vt 0.916314 0.526466
v 0.110605 0.0283204 -0.004447339
v 0.131872 0.0643078 0.0002458146
v -0.120288 0.038787 -0.0260305
v -0.130043 0.0626855 0.00530798
v -0.201731 0.143849 -0.137207
v -0.110605 0.0283204 -0.004447349
v -0.131872 0.0643078 0.0002458176
v -0.143057 0.034572 -0.190162
v -0.130043 0.0626855 0.005307991
v -0.131872 0.0643078 0.0002458146
v 0 0.09796468 -0.462459
vt 0.782839 0.523425
v 0 0.134775 -0.59806
vt 0.834804 0.530478
v 0 0.171586 -0.462459
vt 0.782839 0.537531
v 0 0.135304 -0.47725
vt 0.788508 0.530579
v 0 0.236355 -0.475372
vt 0.787788 0.549942
v 0 0.136857 -0.421352
vt 0.767086 0.530877
v 0 0.136902 -0.497015
vt 0.796082 0.530885
v 0 0.213964 -0.557253
vt 0.819166 0.545651
v 0 0.164671 -0.451695
vt 0.778714 0.536206
vn -1 0 0
o merged_0_0_node
g polygon_0
usemtl mat_body_mat_id
f 1/1/1 2/2/2 3/3/3
f 1/1/1 4/4/4 2/2/2
f 1/1/1 3/3/3 5/5/5
f 1/1/1 6/6/6 4/4/4
f 1/1/1 5/5/5 7/7/7
f 1/1/1 8/4/8 6/6/6
f 1/1/1 7/7/7 9/8/9
f 1/1/1 10/2/10 8/4/8
f 1/1/1 9/8/9 11/7/11
f 1/1/1 12/3/12 10/2/10
f 1/1/1 11/7/11 13/5/13
f 1/1/1 13/5/13 12/3/12
f 14/9/14 11/7/15 9/8/16
f 14/9/14 13/5/17 11/7/15
f 14/9/14 9/8/16 7/7/18
f 14/9/14 12/3/19 13/5/17
f 14/9/14 7/7/18 5/5/20
f 14/9/14 10/2/21 12/3/19
f 14/9/14 5/5/20 3/3/22
f 14/9/14 8/4/23 10/2/21
f 14/9/14 3/3/22 2/2/24
f 14/9/14 6/6/25 8/4/23
f 14/9/14 2/2/24 4/4/26
f 14/9/14 4/4/26 6/6/25
f 15/10/27 16/11/28 17/12/29
f 15/10/27 18/13/30 16/11/28
f 15/10/27 17/12/29 19/14/31
f 15/10/27 20/15/32 18/13/30
f 15/10/27 19/14/31 21/16/33
f 15/10/27 22/13/34 20/15/32
f 15/10/27 21/16/33 23/17/35
f 15/10/27 24/11/36 22/13/34
f 15/10/27 23/17/35 25/16/37
f 15/10/27 26/12/38 24/11/36
f 15/10/27 25/16/37 27/14/39
f 15/10/27 27/14/39 26/12/38
f 28/18/40 25/16/41 23/17/42
f 28/18/40 27/14/43 25/16/41
f 28/18/40 23/17/42 21/16/44
f 28/18/40 26/12/45 27/14/43
f 28/18/40 21/16/44 19/14/46
f 28/18/40 24/11/47 26/12/45
f 28/18/40 19/14/46 17/12/48
f 28/18/40 22/13/49 24/11/47
f 28/18/40 17/12/48 16/11/50
f 28/18/40 20/15/51 22/13/49
f 28/18/40 16/11/50 18/13/52
f 28/18/40 18/13/52 20/15/51
f 29/19/53 30/20/54 31/21/55
f 29/19/53 32/22/56 30/20/54
f 29/19/53 31/21/55 33/23/57
f 29/19/53 34/24/58 32/22/56
f 29/19/53 33/23/57 35/25/59
f 29/19/53 36/26/60 34/24/58
f 29/19/53 35/25/59 37/27/61
f 29/19/53 37/27/61 36/26/60
f 30/20/54 38/28/62 31/21/55
f 30/20/54 32/22/56 39/29/63
f 33/23/57 40/30/64 35/25/59
f 33/23/57 31/21/55 40/30/64
f 34/24/58 36/26/60 41/31/65
f 34/24/58 42/32/66 32/22/56
f 34/24/58 41/31/65 43/33/67
f 34/24/58 43/33/67 42/32/66
f 32/22/56 42/32/66 39/29/63
f 37/27/61 35/25/59 44/34/68
f 37/27/61 45/35/69 36/26/60
f 36/26/60 45/35/69 41/31/65
f 38/28/62 46/36/70 31/21/55
f 31/21/55 46/36/70 40/30/64
f 43/33/67 47/37/71 42/32/66
f 43/33/67 41/31/65 48/38/72
f 43/33/67 49/39/73 47/37/71
f 43/33/67 48/38/72 49/39/73
f 39/29/63 42/32/66 50/40/74
f 39/29/63 50/40/74 51/41/75
f 42/32/66 47/37/71 50/40/74
f 35/25/59 52/42/76 44/34/68
f 35/25/59 40/30/64 52/42/76
f 45/35/69 53/43/77 41/31/65
f 45/35/69 54/44/78 53/43/77
f 41/31/65 53/43/77 48/38/72
f 49/39/73 55/45/79 47/37/71
f 49/39/73 48/38/72 56/46/80
f 49/39/73 56/46/80 55/45/79
f 50/40/74 47/37/71 57/47/81
f 47/37/71 55/45/79 57/47/81
f 53/43/77 58/48/82 48/38/72
f 48/38/72 58/48/82 56/46/80
f 55/45/79 59/49/83 57/47/81
f 55/45/79 56/46/80 60/50/84
f 55/45/79 60/50/84 59/49/83
f 58/48/82 61/51/85 56/46/80
f 56/46/80 61/51/85 60/50/84
f 59/49/83 60/50/84 62/52/86
f 61/51/85 63/53/87 60/50/84
f 62/52/86 60/50/84 64/54/88
f 64/54/88 60/50/84 63/53/87
f 65/55/89 66/56/90 67/57/91
f 65/55/89 68/58/92 66/56/90
f 65/55/89 67/57/91 69/59/93
f 65/55/89 70/60/94 68/58/92
f 65/55/89 69/59/93 71/61/95
f 65/55/89 72/62/96 70/60/94
f 65/55/89 71/61/95 72/62/96
f 66/56/90 73/63/97 67/57/91
f 66/56/90 74/64/98 73/63/97
f 66/56/90 75/65/99 74/64/98
f 69/59/93 76/66/100 71/61/95
f 70/60/94 72/62/96 77/67/101
f 70/60/94 77/67/101 75/65/99
f 73/63/97 74/64/98 78/68/102
f 73/63/97 78/68/102 79/69/103
f 76/66/100 80/59/104 71/61/95
f 72/62/96 81/60/105 77/67/101
f 72/62/96 71/61/95 82/55/106
f 72/62/96 82/55/106 81/60/105
f 71/61/95 80/59/104 82/55/106
f 75/65/99 83/70/107 74/64/98
f 75/65/99 77/67/101 83/70/107
f 78/68/102 84/63/108 79/69/103
f 78/68/102 74/64/98 85/71/109
f 78/68/102 86/64/110 84/63/108
f 78/68/102 85/71/109 86/64/110
f 85/71/109 74/64/98 83/70/107
f 85/71/109 83/70/107 86/64/110
f 81/60/105 82/55/106 87/58/111
f 81/60/105 88/65/112 77/67/101
f 83/70/107 88/65/112 86/64/110
f 83/70/107 77/67/101 88/65/112
f 80/59/104 89/57/113 82/55/106
f 84/63/108 86/64/110 90/56/114
f 84/63/108 90/56/114 89/57/113
f 90/56/114 87/58/111 82/55/106
f 90/56/114 86/64/110 88/65/112
f 90/56/114 82/55/106 89/57/113
f 91/72/115 92/73/116 93/74/117
f 91/72/115 94/74/118 92/73/116
f 91/72/115 93/74/117 52/75/76
f 91/72/115 46/75/70 94/74/118
f 91/72/115 52/75/76 40/76/64
f 91/72/115 40/76/64 46/75/70
f 93/74/117 95/77/119 52/75/76
f 94/74/118 46/75/70 96/77/120
f 97/78/121 69/79/93 67/80/91
f 97/78/121 76/81/100 69/79/93
f 97/78/121 67/80/91 73/82/97
f 97/78/121 79/83/103 76/81/100
f 97/78/121 73/82/97 79/83/103
f 76/81/100 79/83/103 98/78/122
f 76/81/100 98/78/122 80/79/104
f 79/83/103 84/82/108 98/78/122
f 80/79/104 98/78/122 89/80/113
f 89/80/113 98/78/122 84/82/108
f 99/84/123 100/85/124 101/86/125
f 99/84/123 102/86/126 100/85/124
f 99/84/123 101/86/125 103/87/127
f 99/84/123 103/87/127 102/86/126
f 92/88/116 64/89/88 63/90/87
f 92/88/116 62/90/86 64/89/88
f 92/88/116 63/90/87 93/91/117
f 92/88/116 94/91/118 62/90/86
f 63/90/87 61/92/85 93/91/117
f 94/91/118 59/92/83 62/90/86
f 94/91/118 96/93/120 59/92/83
f 61/92/85 95/93/119 93/91/117
f 61/92/85 58/94/82 95/93/119
f 96/93/120 57/94/81 59/92/83
f 96/93/120 50/95/74 57/94/81
f 96/93/120 51/96/75 50/95/74
f 58/94/82 53/95/77 95/93/119
f 53/95/77 54/96/78 95/93/119
f 104/97/128 105/98/128 106/99/129
f 104/97/128 106/99/129 105/98/128
f 107/100/128 108/101/128 109/102/128
f 107/100/128 109/102/128 108/101/128
f 110/103/130 111/104/130 112/105/128
f 110/103/130 112/105/128 111/104/130
f 113/106/128 114/107/128 115/108/128
f 113/106/128 115/108/128 114/107/128
f 116/109/128 117/110/128 118/111/128
f 116/109/128 118/111/128 117/110/128
f 119/97/131 120/99/132 121/98/131
f 119/97/131 121/98/131 120/99/132
f 122/100/131 123/102/133 124/101/131
f 122/100/131 124/101/131 123/102/133
f 125/103/133 126/105/131 127/104/133
f 125/103/133 127/104/133 126/105/131
f 128/106/131 129/108/131 130/107/131
f 128/106/131 130/107/131 129/108/131
f 131/109/131 132/111/131 133/110/131
f 131/109/131 133/110/131 132/111/131
f 134/112/134 135/113/134 136/114/134
f 134/112/134 136/114/134 135/113/134
f 137/115/134 138/116/134 139/117/134
f 137/115/134 139/117/134 138/116/134
f 140/118/135 90/119/114 88/120/112
f 140/118/135 87/121/111 90/119/114
f 88/120/112 81/122/105 140/118/136
f 140/118/136 81/122/105 87/121/111
f 141/118/137 70/122/94 75/120/99
f 141/118/137 68/121/92 70/122/94
f 75/120/99 66/119/90 141/118/138
f 141/118/138 66/119/90 68/121/92
f 102/86/95 101/86/95 100/85/95
f 102/86/95 103/87/95 101/86/95
f 142/123/139 143/124/139 144/125/140
f 142/123/139 143/124/139 144/125/140
f 145/124/141 146/123/141 147/125/142
f 148/126/141 149/127/141 150/128/142
f 151/129/141 152/130/141 153/131/142
f 145/124/141 146/123/141 147/125/142
f 148/126/141 149/127/141 150/128/142
f 154/129/141 152/130/141 155/131/142
f 156/126/139 157/128/140 158/127/139
f 159/129/139 160/131/140 161/130/139
f 156/126/139 162/128/140 158/127/139
f 159/129/139 163/131/140 161/130/139
f 164/132/134 165/133/134 166/134/134
f 167/135/134 168/136/134 169/137/134
f 170/138/134 171/139/134 172/140/134
f 164/132/143 166/134/143 165/133/143
f 167/135/143 169/137/143 168/136/143
f 170/138/143 172/140/143 171/139/143
vt 0.894246 0.783875
vt 0.13409 0.862338
vt 0.105754 0.768736
vt 0.782873 0.891623
vt 0.196914 0.939241
vt 0.679893 0.983944
o merged_1_0_node
g polygon_0
usemtl TEX_ANIM_EYE_mat_id
f 95/141/119 44/142/68 52/143/76
f 54/144/78 37/145/61 44/142/68
f 54/144/78 44/142/68 95/141/119
f 45/146/69 37/145/61 54/144/78
f 96/141/120 46/143/70 38/142/62
f 30/145/54 51/144/75 38/142/62
f 96/141/120 38/142/62 51/144/75
f 39/146/63 51/144/75 30/145/54
