mtllib Pelipper.mtl
v 0 0.32876 -0.322432
vt 0.0622897 0.692417
vn 0 0.2883749 -0.9575176
v 0 0.374065 -0.194394
vt 0.0622897 0.697874
vn 0 0.8251978 -0.5648439
v 0.0891919 0.371132 -0.181255
vt 0.0730321 0.69752
vn 0.4951011 0.7032261 -0.5102431
v -0.0891919 0.371132 -0.181255
vt 0.0515475 0.69752
vn -0.4951011 0.7032261 -0.5102431
v 0.185041 0.301979 -0.157563
vt 0.0845765 0.689191
vn 0.8916454 0.1771731 -0.4166272
v -0.185041 0.301979 -0.157563
vt 0.0400031 0.689191
vn -0.8916454 0.1771731 -0.4166272
v 0.105177 0.204706 -0.254665
vt 0.0749575 0.677476
vn 0.620174 -0.144617 -0.7710189
v -0.105177 0.204706 -0.254665
vt 0.0496222 0.677476
vn -0.620174 -0.144617 -0.7710189
v 0 0.144415 -0.254943
vt 0.0622897 0.670214
vn 0 -0.5147671 -0.8573301
v 0 0.459542 -0.138665
vt 0.0622897 0.708169
vn 0 0.2735969 -0.9618444
v 0.1796 0.144587 -0.0972733
vt 0.0839212 0.670235
vn 0.9318799 -0.298821 -0.205684
v 0.131525 0.416176 -0.0528542
vt 0.0781308 0.702946
vn 0.7475168 0.5537149 -0.3669039
v 0.198665 0.339719 0
vt 0.0862173 0.693737
vn 0.9724305 0.1986851 -0.1220791
v -0.1796 0.144587 -0.0972733
vt 0.0406584 0.670235
vn -0.9318799 -0.298821 -0.205684
v -0.131525 0.416176 -0.0528542
vt 0.0464488 0.702946
vn -0.7475164 0.5537153 -0.3669042
v -0.198665 0.339719 0
vt 0.0383623 0.693737
vn -0.9724305 0.1986851 -0.1220791
v 0.0706123 0.047314 -0.157392
vt 0.0707944 0.658519
vn 0.222652 -0.8901078 -0.3976609
v -0.0706123 0.047314 -0.157392
vt 0.0537852 0.658519
vn -0.222652 -0.8901078 -0.3976609
v 0.207582 0.154631 0.0972733
vt 0.0872913 0.671445
vn 0.9188296 -0.3714079 0.133448
v 0.103992 0.0470358 0
vt 0.0748147 0.658486
vn 0.6067262 -0.7944112 -0.02818201
v 0.132756 0.486549 -0.0208822
vt 0.0782791 0.711421
vn 0.8489657 0.03498339 -0.5272888
v 0.13586 0.403947 0.0576215
vt 0.0786531 0.701473
vn 0.7461824 0.6339723 0.2032021
v 0.126194 0.499457 0.061715
vt 0.0770646 0.714443
vn 0.8767257 -0.0175379 0.4806708
v -0.207582 0.154631 0.0972733
vt 0.0372882 0.671445
vn -0.9188296 -0.3714079 0.133448
v -0.103992 0.0470358 0
vt 0.0497649 0.658486
vn -0.6067262 -0.7944112 -0.02818191
v -0.132756 0.486549 -0.0208822
vt 0.0463005 0.711421
vn -0.8489657 0.03498349 -0.5272888
v -0.13586 0.403947 0.0576215
vt 0.0459266 0.701473
vn -0.7461824 0.6339723 0.2032021
v -0.126194 0.499457 0.061715
vt 0.047515 0.714443
vn -0.8767257 -0.0175379 0.4806708
v 0.15157 0.556922 0.0110898
vt 0.0784274 0.719897
vn 0.9191474 -0.005448812 -0.3938762
v 0 0.556644 -0.17333
vt 0.0622897 0.719864
vn 0 -0.2429859 -0.9700298
v -0.15157 0.556922 0.0110898
vt 0.0461522 0.719897
vn -0.9191474 -0.005448733 -0.3938762
v -0.0882152 0.52054 0.113268
vt 0.0516651 0.716098
vn -0.7224756 -0.2625349 0.6396127
v 0.0882152 0.52054 0.113268
vt 0.0729145 0.716098
vn 0.7224752 -0.2625351 0.6396132
v 0 0.346761 0.301007
vt 0 0.196977
vn 0 0.144182 0.9895512
v 0 0.159936 0.254943
vt 0 -0.294417
vn 0 -0.4150751 0.9097872
v 0.161439 0.224511 0.225716
vt 0.342431 -0.157447
vn 0.6064919 -0.2610189 0.7510238
v -0.161439 0.224511 0.225716
vt -0.342431 -0.157447
vn -0.6064919 -0.2610189 0.7510238
v 0.161391 0.347114 0.223938
vt 0.294165 0.197725
vn 0.599672 0.361094 0.714146
v -0.161391 0.347114 0.223938
vt -0.294165 0.197725
vn -0.5996714 0.3610942 0.7141465
v 0.100785 0.385314 0.182887
vt 0.213777 0.358787
vn 0.3428771 0.8592423 0.3796551
v -0.100785 0.385314 0.182887
vt -0.213777 0.358787
vn -0.3428761 0.8592423 0.3796561
v 0 0.401276 0.192368
vt 0 0.38562
vn 0 0.8338118 0.5520489
v 0.087546 0.0523282 0.157392
vt 0.185695 -0.522665
vn 0.363111 -0.7817739 0.506932
v -0.087546 0.0523282 0.157392
vt -0.185695 -0.522665
vn -0.363111 -0.7817739 0.506932
v 0.229449 0.346761 0.112635
vt 0.458086 0.196977
vn 0.954359 0.271222 0.12505
v -0.229449 0.346761 0.112635
vt -0.458086 0.196977
vn -0.954359 0.271222 0.12505
v 0.0365774 0.446679 0.139458
vt 0.156244 0.531289
vn 0.4513752 0.7107713 0.5395042
v -0.0365774 0.446679 0.139458
vt -0.156244 0.531289
vn -0.4513752 0.7107713 0.5395042
v 0 0.472423 0.138665
vt 0 0.58178
vn 0 0.6024601 0.798149
v 0 0.000972056 0
vt 0 -0.631598
vn 0 -0.9997264 0.02339081
vt -0.440304 -0.30567
vt -0.220579 -0.533891
vt 0.440304 -0.30567
vt 0.288175 0.398309
vt -0.288175 0.398309
vt -0.149777 -0.533301
vt 0.220579 -0.533891
vt 0.149777 -0.533301
vt -0.59837 0.199117
vn -0.9356862 0.227211 -0.2699381
vt 0.59837 0.199117
vn 0.9356862 0.227211 -0.2699381
vt 0 -0.327338
v 0 0.556644 0.123875
vt 0.18387 0.660855
vn 0 0.7868875 0.6170966
vt 0.159772 0.681139
vn -0.3230691 0.9453132 0.04482621
vt 0.168004 0.662762
vn -0.351729 0.649044 0.674558
v 0 0.606152 0
vt 0.18387 0.683133
vn 0 0.9998352 -0.0181539
vt 0.18387 0.658194
vt 0.207967 0.681139
vn 0.3230691 0.9453132 0.04482621
vt 0.199735 0.662762
vn 0.351729 0.6490451 0.674557
vt 0.18387 0.714307
vn 0 0.961546 -0.274644
v -0.0381963 0.459201 0.129293
vt 0.177 0.65988
vn -0.546238 0.0664894 0.834987
v 0.0381963 0.459201 0.129293
vt 0.190739 0.65988
vn 0.5462387 0.06648936 0.8349865
vt 0.177291 0.658052
vt 0.190448 0.658052
v 0.4157705 0.3503917 0.029934
vt 1.36825 0.438153
vn 0.2282276 0.686686 0.690199
v 0.1561066 0.2808146 0.001275768
vt 1.27096 -0.390618
vn -0.3082712 0.6926976 0.6520267
v 0.4247996 0.3166911 0.02993398
vn 0.3783434 -0.8946032 0.2377842
v 0.3199371 0.340834 -0.06009169
vt 0.999951 0.145147
vn -0.2503591 0.9681531 6.414826E-07
v 0.4247993 0.3166909 -0.1501169
vt 0.631653 0.438153
vn 0.3783423 -0.8946035 -0.2377847
v 0.4157701 0.3503914 -0.1501169
vn 0.2282266 0.6866863 -0.6901988
v 0.1651368 0.247114 0.001275747
vn 0.2312055 -0.9497609 0.2109465
v 0.1561064 0.2808144 -0.1214594
vt 0.728943 -0.390618
vn -0.3082739 0.6926969 -0.6520264
v 0.1651365 0.2471139 -0.1214595
vn 0.2312045 -0.9497609 -0.2109477
v -0.4157705 0.3503917 0.029934
vn -0.2282284 0.6866854 0.6901991
v -0.4247996 0.3166912 0.02993399
vn -0.3783437 -0.894603 0.2377843
v -0.1561066 0.2808145 0.001275747
vn 0.3082714 0.6926972 0.6520272
v -0.4247993 0.3166909 -0.1501169
vn -0.3783427 -0.8946034 -0.2377845
v -0.3199371 0.340834 -0.06009169
vn 0.2503594 0.9681529 4.920208E-07
v -0.4157701 0.3503915 -0.1501169
vn -0.2282266 0.6866859 -0.6901993
v -0.1651367 0.247114 0.00127573
vn -0.2312058 -0.9497607 0.2109466
v -0.1561063 0.2808143 -0.1214595
vn 0.308274 0.6926957 -0.6520274
v -0.1651365 0.2471138 -0.1214595
vn -0.2312049 -0.9497607 -0.2109475
v -0.130965 0.0476756 -0.203093
vt 1.10669 0.602293
vn -0.6110801 -0.5463531 -0.5727821
vt 0.648376 0.512977
vt 0.647385 0.7464
vt 0.734487 0.542933
v 0.130965 0.0476756 -0.203093
vn 0.6110801 -0.5463531 -0.5727821
o merged_0_0_node
g polygon_0
usemtl mat_body_mat_id
f 1/1/1 2/2/2 3/3/3
f 1/1/1 4/4/4 2/2/2
f 1/1/1 3/3/3 5/5/5
f 1/1/1 6/6/6 4/4/4
f 1/1/1 5/5/5 7/7/7
f 1/1/1 8/8/8 6/6/6
f 1/1/1 7/7/7 9/9/9
f 1/1/1 9/9/9 8/8/8
f 2/2/2 10/10/10 3/3/3
f 2/2/2 4/4/4 10/10/10
f 5/5/5 11/11/11 7/7/7
f 5/5/5 3/3/3 12/12/12
f 5/5/5 13/13/13 11/11/11
f 5/5/5 12/12/12 13/13/13
f 3/3/3 10/10/10 12/12/12
f 6/6/6 8/8/8 14/14/14
f 6/6/6 15/15/15 4/4/4
f 6/6/6 14/14/14 16/16/16
f 6/6/6 16/16/16 15/15/15
f 4/4/4 15/15/15 10/10/10
f 9/9/9 7/7/7 17/17/17
f 9/9/9 18/18/18 8/8/8
f 11/11/11 13/13/13 19/19/19
f 11/11/11 20/20/20 17/17/17
f 11/11/11 19/19/19 20/20/20
f 12/12/12 10/10/10 21/21/21
f 12/12/12 22/22/22 13/13/13
f 12/12/12 21/21/21 23/23/23
f 12/12/12 23/23/23 22/22/22
f 14/14/14 24/24/24 16/16/16
f 14/14/14 18/18/18 25/25/25
f 14/14/14 25/25/25 24/24/24
f 15/15/15 26/26/26 10/10/10
f 15/15/15 16/16/16 27/27/27
f 15/15/15 28/28/28 26/26/26
f 15/15/15 27/27/27 28/28/28
f 21/21/21 29/29/29 23/23/23
f 21/21/21 10/10/10 30/30/30
f 21/21/21 30/30/30 29/29/29
f 10/10/10 26/26/26 30/30/30
f 28/28/28 31/31/31 26/26/26
f 28/28/28 32/32/32 31/31/31
f 31/31/31 30/30/30 26/26/26
f 23/23/23 29/29/29 33/33/33
f 34/34/34 35/35/35 36/36/36
f 34/34/34 37/37/37 35/35/35
f 34/34/34 36/36/36 38/38/38
f 34/34/34 39/39/39 37/37/37
f 34/34/34 38/38/38 40/40/40
f 34/34/34 41/41/41 39/39/39
f 34/34/34 40/40/40 42/42/42
f 34/34/34 42/42/42 41/41/41
f 35/35/35 43/43/43 36/36/36
f 35/35/35 37/37/37 44/44/44
f 35/35/35 44/44/44 43/43/43
f 38/38/38 45/45/45 40/40/40
f 38/38/38 36/36/36 45/45/45
f 39/39/39 41/41/41 46/46/46
f 39/39/39 46/46/46 37/37/37
f 42/42/42 40/40/40 47/47/47
f 42/42/42 48/48/48 41/41/41
f 42/42/42 47/47/47 49/49/49
f 42/42/42 49/49/49 48/48/48
f 44/44/44 50/50/50 43/43/43
f 44/44/44 37/37/37 24/51/24
f 44/44/44 25/52/25 50/50/50
f 44/44/44 24/51/24 25/52/25
f 37/37/37 46/46/46 24/51/24
f 36/36/36 19/53/19 45/45/45
f 36/36/36 43/43/43 19/53/19
f 40/40/40 22/54/22 47/47/47
f 40/40/40 45/45/45 22/54/22
f 41/41/41 48/48/48 27/55/27
f 41/41/41 27/55/27 46/46/46
f 50/50/50 25/52/25 18/56/18
f 50/50/50 20/57/20 43/43/43
f 50/50/50 18/56/18 17/58/17
f 50/50/50 17/58/17 20/57/20
f 20/57/20 19/53/19 43/43/43
f 24/51/24 46/46/46 16/59/51
f 16/59/51 46/46/46 27/55/27
f 45/45/45 13/60/52 22/54/22
f 45/45/45 19/53/19 13/60/52
f 18/56/18 9/61/9 17/58/17
f 51/62/53 31/63/54 32/64/55
f 51/62/53 52/65/56 31/63/54
f 51/62/53 32/64/55 49/66/34
f 51/62/53 29/67/57 52/65/56
f 51/62/53 49/66/34 33/68/58
f 51/62/53 33/68/58 29/67/57
f 31/63/54 52/65/56 30/69/59
f 30/69/59 52/65/56 29/67/57
f 32/64/55 53/70/60 49/66/34
f 33/68/58 49/66/34 54/71/61
f 53/70/60 48/72/48 49/66/34
f 54/71/61 49/66/34 47/73/47
f 55/74/62 56/75/63 57/74/64
f 55/74/62 58/76/65 56/75/63
f 55/74/62 57/74/64 59/77/66
f 55/74/62 60/77/67 58/76/65
f 55/74/62 59/77/66 60/77/67
f 56/75/63 61/75/68 57/74/64
f 56/75/63 58/76/65 62/78/69
f 58/76/65 60/77/67 62/78/69
f 57/74/64 61/75/68 59/77/66
f 60/77/67 63/78/70 62/78/69
f 60/77/67 59/77/66 63/78/70
f 63/78/70 59/77/66 61/75/68
f 64/74/71 65/74/72 66/75/73
f 64/74/71 67/77/74 65/74/72
f 64/74/71 66/75/73 68/76/75
f 64/74/71 69/77/76 67/77/74
f 64/74/71 68/76/75 69/77/76
f 65/74/72 70/75/77 66/75/73
f 65/74/72 67/77/74 70/75/77
f 68/76/75 71/78/78 69/77/76
f 68/76/75 66/75/73 71/78/78
f 67/77/74 72/78/79 70/75/77
f 67/77/74 69/77/76 72/78/79
f 72/78/79 69/77/76 71/78/78
f 73/79/80 14/80/14 8/81/8
f 73/79/80 18/82/18 14/80/14
f 73/79/80 8/81/8 18/82/18
f 74/79/81 7/81/7 11/80/11
f 74/79/81 17/82/17 7/81/7
f 74/79/81 11/80/11 17/82/17
vt -0.128368 0.870676
vt -0.210501 0.83742
vt 1.16081 0.723932
vt 0.406164 1.03276
vt 1.04011 0.99185
o merged_1_0_node
g polygon_0
usemtl TEX_ANIM_EYE_mat_id
f 54/83/61 47/84/47 22/85/22
f 32/86/32 28/87/28 53/83/60
f 53/83/60 28/87/28 27/85/27
f 53/83/60 27/85/27 48/84/48
f 22/85/22 23/87/23 54/83/61
f 54/83/61 23/87/23 33/86/33
