mtllib Whiscash.mtl
v -1.163947E-08 0.4069359 -0.179948
vt 0.363172 0.770159
vn -5.28978E-08 0.9024026 -0.4308939
v -0.125505 0.2836169 -0.311678
vn -0.515845 0.6540858 -0.5532411
v -0.183646 0.3333949 -0.179948
vn -0.6242459 0.6647429 -0.410407
v -1.085547E-08 0.3112559 -0.311678
vn -8.728352E-08 0.8272228 -0.561874
v -0.147924 0.4248019 -1.87786E-06
vn -0.4570611 0.8720632 -0.174931
v 0.125505 0.283617 -0.311678
vn 0.5158449 0.6540859 -0.5532411
v 0 0.470885 -1.87786E-06
vn 0 0.9912246 -0.132188
v 0.183646 0.3333949 -0.179948
vn 0.6242459 0.664743 -0.410407
v 0.147924 0.4248019 -1.87786E-06
vn 0.4570607 0.8720635 -0.1749309
v -0.166512 0.181225 -0.311678
vn -0.8180195 -0.08428413 -0.5689818
v -0.06095419 0.236623 -0.415217
vn -0.5082849 0.6367136 -0.579864
v -0.166525 0.409605 0.141209
vn -0.4771351 0.8391941 0.260951
v -0.256211 0.3260549 -1.87786E-06
vn -0.8419543 0.5136312 -0.1652151
v 0.166512 0.181225 -0.311678
vn 0.8180195 -0.08428406 -0.5689818
v 0.06095418 0.236623 -0.415217
vn 0.5082847 0.6367137 -0.579864
v 0.166525 0.409605 0.141209
vn 0.4771351 0.8391941 0.260951
v 0.256211 0.3260549 -1.87786E-06
vn 0.8419543 0.5136312 -0.1652151
v -0.08482558 0.17755 -0.415217
vn -0.59327 -0.4457041 -0.6703571
v -4.086439E-09 0.247103 -0.415217
vn -9.382128E-08 0.8891839 -0.45755
v 2.104529E-11 0.207975 -0.514513
vn 2.645034E-08 -0.2256129 -0.974217
v -0.24256 0.181225 -0.179948
vn -0.9184529 -0.004129103 -0.395509
v 0 0.4471899 0.133925
vn 0 0.959494 0.281729
v -0.278618 0.290018 0.150221
vn -0.890061 0.370183 0.266
v 0 0.397101 0.243489
vn 0 0.8162719 0.577668
v -0.166529 0.3325729 0.264457
vn -0.465344 0.553787 0.690489
v 0.24256 0.181225 -0.179948
vn 0.9184529 -0.004129026 -0.395509
v 0.08482558 0.17755 -0.415217
vn 0.5932701 -0.4457039 -0.670357
v -0.295847 0.181225 -1.87786E-06
vn -0.9861449 0.0103174 -0.165565
v 0.166529 0.3325729 0.264457
vn 0.4653442 0.5537862 0.6904894
v 0.295847 0.181225 -1.87786E-06
vn 0.9861449 0.0103173 -0.165565
v 0.278618 0.290018 0.150221
vn 0.890061 0.370183 0.266
v -0.288437 0.121122 0.127252
vn -0.9170259 -0.364188 0.162575
v 0.288437 0.121122 0.127252
vn 0.9170259 -0.364188 0.162575
v -0.227847 0.181225 0.26891
vn -0.7840624 0.1302129 0.6068696
v 0.227847 0.181225 0.26891
vn 0.7840629 0.130213 0.606869
v 0 0.04895195 0.301192
vt 0.147542 0.203349
vn 0 -0.878982 0.476855
v 0 0.004291725 0.20525
vt 0.247608 0.0136778
vn 0 -0.9844159 0.175856
v 0.176094 0.03354266 0.198534
vt 0.254613 0.137906
vn 0.377146 -0.910784 0.168028
v -0.176094 0.03354266 0.198534
vn -0.377146 -0.910784 0.168028
v 0.185667 0.06828996 0.255263
vt 0.195445 0.285478
vn 0.3319749 -0.8199397 0.4663599
v -0.185667 0.06828996 0.255263
vn -0.331974 -0.81994 0.46636
v 0.147886 0.08967216 0.318622
vt 0.129363 0.376288
vn 0.3245709 -0.6297657 0.7057258
v -0.147886 0.08967216 0.318622
vn -0.3245709 -0.6297657 0.7057258
v 0 0.08904105 0.360382
vt 0.0858083 0.373607
vn 0 -0.5427248 0.8399106
v 0.120882 0.004041035 -1.87786E-06
vt 0.461681 0.0126133
vn 0.2257451 -0.9708352 -0.08073512
v -0.120882 0.004041035 -1.87786E-06
vn -0.2257451 -0.9708352 -0.08073512
v 0.226109 0.104076 0.255415
vt 0.195287 0.437458
vn 0.7966447 -0.4192539 0.4354118
v -0.226109 0.104076 0.255415
vn -0.796645 -0.419254 0.435411
v 0.172788 0.159971 0.335012
vt 0.112269 0.674846
vn 0.4865491 -0.03065621 0.8731152
v -0.172788 0.159971 0.335012
vn -0.4865491 -0.03065641 0.8731152
v 0 0.156838 0.379318
vt 0.0660589 0.66154
vn 0 -0.07654037 0.9970665
v 1.018428E-08 0.03463669 -0.179948
vt 0.649361 0.142552
vn 5.546331E-08 -0.9461687 -0.3236739
v -0.256211 0.09123375 -1.87786E-06
vt 0.461681 0.38292
vn -0.707768 -0.695576 -0.123445
v -0.183646 0.06830308 -0.179948
vt 0.649361 0.285533
vn -0.5039591 -0.7929673 -0.3423861
vt 0.328957 0.509857
v 0.256211 0.09123375 -1.87786E-06
vn 0.707768 -0.695576 -0.123445
v -0.129253 0.174968 0.333056
vt 0.114309 0.738539
vn -0.328169 0.344294 0.8796401
v 0.129253 0.174968 0.333056
vn 0.328169 0.344294 0.8796401
v 0 0.172231 0.359928
vt 0.0862821 0.726912
vn 0 0.333924 0.9426
vt 0.181212 0.765113
v -0.09888576 0.111967 -0.311678
vt 0.795516 0.44059
vn -0.2375198 -0.8326766 -0.5002339
v 0.183646 0.06830309 -0.179948
vn 0.5039592 -0.7929671 -0.3423861
v 0.09888577 0.111967 -0.311678
vn 0.23752 -0.8326766 -0.5002339
vt 0.461681 0.765113
vt 0.762796 0.748753
vt 0.649361 0.765113
v 4.946185E-09 0.161497 -0.415217
vt 0.929414 0.535074
vn 9.371757E-08 -0.888201 -0.4594551
vt 0.894742 0.777551
vt 0.990709 0.878719
v -0.187369 0.0005675253 0.271703
vt 0.16623 0.615547
vn -0.0277562 -0.15293 -0.9878471
v -0.167635 0.135297 0.292608
vn 0.05969567 0.9586696 0.2781889
v -0.159074 0.01690556 0.28157
vn 0.9716694 -0.08049563 -0.2222141
v -0.219222 0.02556266 0.281232
vn -0.8420369 0.239748 -0.4832129
v -0.189423 0.02033986 0.307506
vn -0.04213199 -0.06439289 0.9970348
v 0.167635 0.135297 0.292608
vn -0.05969299 0.9586689 0.278192
v 0.187369 0.0005675273 0.271703
vn 0.02775561 -0.15293 -0.9878471
v 0.159074 0.01690556 0.28157
vn -0.9716694 -0.08049553 -0.2222141
v 0.219222 0.02556266 0.281232
vn 0.8420369 0.239748 -0.4832129
v 0.189423 0.02033986 0.307506
vn 0.04213279 -0.06439289 0.9970348
v -0.403507 0.07131076 0.018791
vt 0.0204831 0.933035
vn -0.5614057 0.8272415 -0.02225109
v -0.29039 0.127246 0.0558208
vn 0.7523901 0.6302531 0.191547
v -0.384397 0.04849835 -0.0774207
vn 0.2420539 0.06883799 -0.9678178
v -0.384397 0.04849835 0.115003
vn 0.01889949 -0.09303465 0.9954835
v -0.451927 0.01601366 0.00579118
vn -0.7789741 -0.6222791 -0.07725272
v -0.365288 0.02568586 0.018791
vn 0.585272 -0.8104559 -0.0248578
v 0.403507 0.07131076 0.018791
vn 0.5614062 0.8272412 -0.02225111
v 0.384397 0.04849835 -0.0774207
vn -0.2420539 0.06883819 -0.9678178
v 0.29039 0.127246 0.0558208
vn -0.7523892 0.6302541 0.1915471
v 0.451927 0.01601366 0.00579119
vn 0.7789741 -0.6222791 -0.07725292
v 0.384397 0.04849835 0.115003
vn -0.01889929 -0.09303425 0.9954835
v 0.365288 0.02568586 0.018791
vn -0.5852727 -0.8104554 -0.02485778
v -2.397432E-11 0.208359 -0.604012
vt 0.17577 0.632669
vn -1.172377E-07 1 0
v -0.09733918 0.208359 -0.671924
v -0.179287 0.208359 -0.587951
v 0.00178096 0.208359 -0.42252
v 0.179287 0.208359 -0.587951
v 0.09733918 0.208359 -0.671924
vn 1.172377E-07 -1 0
v 0.356577 0.283385 0.0571978
vt 0.332327 0.244639
vn -0.9638642 0.109986 -0.2426291
v 0.356577 0.259988 0.0459035
vn -0.9591644 0.1179181 -0.2570971
v 0.27798 0.179422 0.214587
vn -0.9218331 0.168493 -0.349047
v 0.425272 0.485911 -0.17135
vn -0.9949793 0.07510673 -0.06614503
v 0.426592 0.5083399 -0.168627
vn -0.9977778 0.06452458 0.0166179
v 0.377824 0.476086 -0.267418
vn -0.898042 0.00154998 0.439907
v 0.369782 0.494391 -0.284007
v 0.371801 0.4185759 -0.279844
vn -0.8892317 -0.03664469 0.4559869
v 0.362132 0.405022 -0.299788
v 0.410055 0.3984579 -0.218127
vn -0.8607022 -0.115594 0.4958121
vn 0.9638642 -0.109986 0.2426291
vn 0.9218331 -0.168493 0.349047
vn 0.9591644 -0.1179181 0.2570971
vn 0.9949793 -0.07510662 0.06614492
vn 0.9977778 -0.06452438 -0.016618
vn 0.898042 -0.00154964 -0.439907
vn 0.8892317 0.03664479 -0.4559869
vn 0.8607022 0.115594 -0.4958121
v -0.356577 0.283385 0.0571978
vn 0.9638642 0.109986 -0.2426291
v -0.27798 0.179422 0.214587
vn 0.9218331 0.168493 -0.349047
v -0.356577 0.259988 0.0459035
vn 0.9591644 0.1179181 -0.2570971
v -0.425272 0.485911 -0.17135
vn 0.9949793 0.07510673 -0.06614462
v -0.426592 0.5083399 -0.168627
vn 0.9977778 0.06452438 0.0166181
v -0.377825 0.476086 -0.267418
vn 0.8981543 0.00145231 0.4396781
v -0.369782 0.494391 -0.284007
v -0.371801 0.4185759 -0.279844
vn 0.891198 -0.0302626 0.452604
v -0.362132 0.405022 -0.299788
v -0.410055 0.3984579 -0.218127
vn 0.8607022 -0.115595 0.4958121
vn -0.9638642 -0.109986 0.2426291
vn -0.9591645 -0.1179179 0.2570969
vn -0.9218331 -0.168493 0.349047
vn -0.9949794 -0.07510643 0.06614432
vn -0.9977778 -0.06452408 -0.0166184
vn -0.8981543 -0.00145214 -0.4396781
vn -0.891198 0.0302623 -0.452604
vn -0.8607022 0.115595 -0.4958121
v 0.217413 0.121522 -0.324681
vt 0.0208738 0.86157
vn 0.285875 0.9396771 -0.1878361
v 0.15885 0.131 -0.366396
v 0.131085 0.160104 -0.263052
vn -0.285875 -0.9396771 0.1878361
v -0.217413 0.121522 -0.324681
vn -0.285875 0.9396771 -0.187836
v -0.131085 0.160104 -0.263052
v -0.15885 0.131 -0.366396
vn 0.285875 -0.9396771 0.187836
o merged_0_0_node
g polygon_0
usemtl mat_body_mat_id
f 1/1/1 2/1/2 3/1/3
f 1/1/1 4/1/4 2/1/2
f 1/1/1 3/1/3 5/1/5
f 1/1/1 6/1/6 4/1/4
f 1/1/1 5/1/5 7/1/7
f 1/1/1 8/1/8 6/1/6
f 1/1/1 7/1/7 9/1/9
f 1/1/1 9/1/9 8/1/8
f 2/1/2 10/1/10 3/1/3
f 2/1/2 4/1/4 11/1/11
f 2/1/2 11/1/11 10/1/10
f 5/1/5 12/1/12 7/1/7
f 5/1/5 3/1/3 13/1/13
f 5/1/5 13/1/13 12/1/12
f 6/1/6 8/1/8 14/1/14
f 6/1/6 15/1/15 4/1/4
f 6/1/6 14/1/14 15/1/15
f 9/1/9 7/1/7 16/1/16
f 9/1/9 17/1/17 8/1/8
f 9/1/9 16/1/16 17/1/17
f 11/1/11 18/1/18 10/1/10
f 11/1/11 4/1/4 19/1/19
f 11/1/11 20/1/20 18/1/18
f 11/1/11 19/1/19 20/1/20
f 19/1/19 15/1/15 20/1/20
f 19/1/19 4/1/4 15/1/15
f 3/1/3 21/1/21 13/1/13
f 3/1/3 10/1/10 21/1/21
f 12/1/12 22/1/22 7/1/7
f 12/1/12 13/1/13 23/1/23
f 12/1/12 24/1/24 22/1/22
f 12/1/12 23/1/23 25/1/25
f 12/1/12 25/1/25 24/1/24
f 22/1/22 16/1/16 7/1/7
f 22/1/22 24/1/24 16/1/16
f 14/1/14 8/1/8 26/1/26
f 14/1/14 27/1/27 15/1/15
f 15/1/15 27/1/27 20/1/20
f 8/1/8 17/1/17 26/1/26
f 21/1/21 28/1/28 13/1/13
f 13/1/13 28/1/28 23/1/23
f 24/1/24 29/1/29 16/1/16
f 17/1/17 30/1/30 26/1/26
f 17/1/17 16/1/16 31/1/31
f 17/1/17 31/1/31 30/1/30
f 16/1/16 29/1/29 31/1/31
f 28/1/28 32/1/32 23/1/23
f 30/1/30 31/1/31 33/1/33
f 32/1/32 34/1/34 23/1/23
f 31/1/31 35/1/35 33/1/33
f 36/2/36 37/3/37 38/4/38
f 36/2/36 39/4/39 37/3/37
f 36/2/36 38/4/38 40/5/40
f 36/2/36 41/5/41 39/4/39
f 36/2/36 40/5/40 42/6/42
f 36/2/36 43/6/43 41/5/41
f 36/2/36 42/6/42 44/7/44
f 36/2/36 44/7/44 43/6/43
f 37/3/37 45/8/45 38/4/38
f 37/3/37 39/4/39 46/8/46
f 37/3/37 46/8/46 45/8/45
f 40/5/40 47/9/47 42/6/42
f 40/5/40 38/4/38 47/9/47
f 41/5/41 43/6/43 48/9/48
f 41/5/41 48/9/48 39/4/39
f 44/7/44 42/6/42 49/10/49
f 44/7/44 50/10/50 43/6/43
f 44/7/44 49/10/49 51/11/51
f 44/7/44 51/11/51 50/10/50
f 43/6/43 50/10/50 48/9/48
f 42/6/42 47/9/47 49/10/49
f 46/8/46 52/12/52 45/8/45
f 46/8/46 39/4/39 53/13/53
f 46/8/46 54/14/54 52/12/52
f 46/8/46 53/13/53 54/14/54
f 38/4/38 33/15/33 47/9/47
f 38/4/38 45/8/45 55/13/55
f 38/4/38 55/13/55 33/15/33
f 51/11/51 56/16/56 50/10/50
f 51/11/51 49/10/49 57/16/57
f 51/11/51 58/17/58 56/16/56
f 51/11/51 57/16/57 58/17/58
f 48/9/48 32/15/32 39/4/39
f 48/9/48 50/10/50 34/18/34
f 48/9/48 34/18/34 32/15/32
f 34/18/34 50/10/50 56/16/56
f 39/4/39 32/15/32 53/13/53
f 52/12/52 54/14/54 59/19/59
f 52/12/52 60/14/60 45/8/45
f 52/12/52 59/19/59 61/19/61
f 52/12/52 61/19/61 60/14/60
f 45/8/45 60/14/60 55/13/55
f 47/9/47 33/15/33 35/18/35
f 47/9/47 35/18/35 49/10/49
f 49/10/49 35/18/35 57/16/57
f 32/15/32 28/20/28 53/13/53
f 54/14/54 10/21/10 59/19/59
f 54/14/54 53/13/53 21/22/21
f 54/14/54 21/22/21 10/21/10
f 21/22/21 53/13/53 28/20/28
f 61/19/61 14/21/14 60/14/60
f 61/19/61 59/19/59 62/23/62
f 61/19/61 27/24/27 14/21/14
f 61/19/61 62/23/62 27/24/27
f 55/13/55 30/20/30 33/15/33
f 55/13/55 60/14/60 26/22/26
f 55/13/55 26/22/26 30/20/30
f 26/22/26 60/14/60 14/21/14
f 10/21/10 18/24/18 59/19/59
f 59/19/59 18/24/18 62/23/62
f 27/24/27 62/23/62 20/25/20
f 20/25/20 62/23/62 18/24/18
f 63/26/63 64/26/64 65/26/65
f 63/26/63 66/26/66 64/26/64
f 63/26/63 65/26/65 67/26/67
f 63/26/63 67/26/67 66/26/66
f 67/26/67 65/26/65 64/26/64
f 67/26/67 64/26/64 66/26/66
f 68/26/68 69/26/69 70/26/70
f 68/26/68 71/26/71 69/26/69
f 68/26/68 70/26/70 72/26/72
f 68/26/68 72/26/72 71/26/71
f 72/26/72 70/26/70 69/26/69
f 72/26/72 69/26/69 71/26/71
f 73/27/73 74/27/74 75/27/75
f 73/27/73 76/27/76 74/27/74
f 73/27/73 75/27/75 77/27/77
f 73/27/73 77/27/77 76/27/76
f 74/27/74 78/27/78 75/27/75
f 74/27/74 76/27/76 78/27/78
f 78/27/78 77/27/77 75/27/75
f 78/27/78 76/27/76 77/27/77
f 79/27/79 80/27/80 81/27/81
f 79/27/79 82/27/82 80/27/80
f 79/27/79 81/27/81 83/27/83
f 79/27/79 83/27/83 82/27/82
f 80/27/80 84/27/84 81/27/81
f 80/27/80 82/27/82 84/27/84
f 84/27/84 83/27/83 81/27/81
f 84/27/84 82/27/82 83/27/83
f 85/28/85 86/28/85 87/28/85
f 85/28/85 87/28/85 88/28/85
f 85/28/85 88/28/85 89/28/85
f 85/28/85 89/28/85 90/28/85
f 85/28/86 88/28/86 87/28/86
f 85/28/86 89/28/86 88/28/86
f 85/28/86 87/28/86 86/28/86
f 85/28/86 90/28/86 89/28/86
f 91/29/87 92/29/88 93/29/89
f 91/29/87 94/29/90 92/29/88
f 91/29/87 95/29/91 94/29/90
f 95/29/91 96/29/92 94/29/90
f 95/29/91 97/29/92 96/29/92
f 97/29/92 98/29/93 96/29/92
f 97/29/92 99/29/93 98/29/93
f 99/29/93 100/29/94 98/29/93
f 91/29/95 93/29/96 92/29/97
f 91/29/95 92/29/97 94/29/98
f 91/29/95 94/29/98 95/29/99
f 94/29/98 96/29/100 95/29/99
f 96/29/100 97/29/100 95/29/99
f 96/29/100 98/29/101 97/29/100
f 98/29/101 99/29/101 97/29/100
f 98/29/101 100/29/102 99/29/101
f 101/29/103 102/29/104 103/29/105
f 101/29/103 103/29/105 104/29/106
f 101/29/103 104/29/106 105/29/107
f 104/29/106 106/29/108 105/29/107
f 106/29/108 107/29/108 105/29/107
f 106/29/108 108/29/109 107/29/108
f 108/29/109 109/29/109 107/29/108
f 108/29/109 110/29/110 109/29/109
f 101/29/111 103/29/112 102/29/113
f 101/29/111 104/29/114 103/29/112
f 101/29/111 105/29/115 104/29/114
f 105/29/115 106/29/116 104/29/114
f 105/29/115 107/29/116 106/29/116
f 107/29/116 108/29/117 106/29/116
f 107/29/116 109/29/117 108/29/117
f 109/29/117 110/29/118 108/29/117
f 111/30/119 112/30/119 113/30/119
f 113/30/120 112/30/120 111/30/120
f 114/30/121 115/30/121 116/30/121
f 115/30/122 114/30/122 116/30/122
v -2.251438E-08 0.5924549 -0.192036
vt 0.898507 0.903273
vn 1 5.861884E-08 0
v -1.057402E-08 0.659339 -0.123882
vt 0.51321 1.00168
vn 1 2.344753E-08 0
v -4.825477E-09 0.414173 -0.112911
vt 0.73081 0.520083
v 0 0.431299 -0.0130305
vt 0.254537 0.507073
vn 1 0 0
v 0 0.6279899 -0.0360806
vt 0.145236 0.900048
vn -1 -5.861884E-08 0
vn -1 -2.344753E-08 0
vn -1 0 0
vt 1.0278 0.321558
v 0 0.3069929 0.328346
vt 0 0.206596
vn 0 0.4567429 0.8895988
vt 0.797736 -0.0976559
vt 0 -0.127779
vt 0 0.486865
vt -1.0278 0.321558
vt -0.797735 -0.0976559
o merged_1_0_node
g polygon_0
usemtl mat_hire_mat_id
f 117/31/123 118/32/124 119/33/124
f 119/33/124 118/32/124 120/34/125
f 118/32/124 121/35/125 120/34/125
f 117/31/126 119/33/127 118/32/127
f 119/33/127 120/34/128 118/32/127
f 120/34/128 121/35/128 118/32/127
f 29/36/29 122/37/129 57/38/57
f 122/37/129 58/39/58 57/38/57
f 122/37/129 29/36/29 24/40/24
f 25/41/25 56/42/56 122/37/129
f 58/39/58 122/37/129 56/42/56
f 122/37/129 24/40/24 25/41/25
vt 0.60265 0.763925
vt 1.36606 0.949336
vt 0.362096 1.01579
vt -0.136065 0.768989
o merged_2_0_node
g polygon_0
usemtl TEX_ANIM_EYE_mat_id
f 35/43/35 31/44/31 29/45/29
f 35/43/35 29/45/29 57/46/57
f 34/43/34 56/46/56 25/45/25
f 25/45/25 23/44/23 34/43/34
