ply
format ascii 1.0
element vertex 533
property float x
property float y
property float z
property uchar red
property uchar green
property uchar blue
element face 716
property list uchar int vertex_index
end_header
0.22603 -0.10053 0.88785 223 157 195
0.22634 0.22099 0.88757 223 157 195
0.52197 0.2207 0.8875 223 157 195
0.52166 -0.10082 0.88778 223 157 195
0.17708 0.24433 0.8414 223 157 195
0.1767 -0.14984 0.84217 223 157 195
0.17699 0.1915 0.50022 223 157 195
0.1766 -0.20268 0.55031 223 157 195
0.17699 0.1915 0.46557 223 157 195
0.1766 -0.20268 0.43249 223 157 195
0.17767 0.30499 0.18733 223 157 195
0.17725 -0.11647 0.18733 223 157 195
0.17767 0.30499 1.52588E-07 223 157 195
0.17694 -0.19692 1.52588E-07 223 157 195
0.17689 -0.25193 1.63814E-07 223 157 195
0.17689 -0.25193 0.1869 223 157 195
0.57185 0.3046 1.52588E-07 223 157 195
0.57146 -0.19731 1.52588E-07 223 157 195
0.57143 -0.11686 0.18733 223 157 195
0.57185 0.3046 0.18733 223 157 195
0.57116 0.19111 0.46557 223 157 195
0.57077 -0.20307 0.43249 223 157 195
0.57116 0.19111 0.50022 223 157 195
0.57077 -0.20307 0.55031 223 157 195
0.57125 0.24395 0.8413 223 157 195
0.57087 -0.15023 0.84207 223 157 195
0.5714 -0.25237 1.63823E-07 223 157 195
0.5714 -0.25237 0.1869 223 157 195
0.54363 -0.28113 0.1869 223 157 195
0.54363 -0.28113 1.697E-07 223 157 195
0.2046 -0.2808 1.697E-07 223 157 195
0.2046 -0.2808 0.1869 223 157 195
0.22866 0.29745 0.83962 223 157 195
0.22857 0.24447 0.49384 223 157 195
0.51969 0.24418 0.49397 223 157 195
0.51978 0.29717 0.83955 223 157 195
0.52025 0.24379 0.47107 223 157 195
0.22913 0.24408 0.47095 223 157 195
0.51981 0.35729 0.18733 223 157 195
0.22869 0.35757 0.18733 223 157 195
0.52037 0.35914 1.58136E-07 223 157 195
0.22925 0.35943 1.58138E-07 223 157 195
0.26478 0.26912 0.88735 223 157 195
0.48364 0.2689 0.8873 223 157 195
0.17725 -0.11647 0.18733 230 164 204
0.57143 -0.11686 0.18733 230 164 204
0.5714 -0.25237 0.1869 230 164 204
0.17689 -0.25193 0.1869 230 164 204
0.2046 -0.2808 0.1869 230 164 204
0.54363 -0.28113 0.1869 230 164 204
-0.18316 -0.15596 2.6848 157 109 105
-0.35704 -0.15596 2.6848 157 109 105
-0.33857 -0.15596 2.70311 157 109 105
-0.20163 -0.15596 2.70311 157 109 105
-0.18341 -0.15596 2.44173 157 109 105
-0.35679 -0.15596 2.44173 157 109 105
-0.15739 -0.15596 2.74864 230 164 204
-0.383 -0.15596 2.74864 230 164 204
-0.383 0.03374 2.74864 230 164 204
-0.15739 0.03374 2.74864 230 164 204
-0.40786 -0.15596 2.73166 230 164 204
-0.40786 0.03374 2.73166 230 164 204
-0.13254 0.03374 2.73166 223 157 195
-0.40786 0.03374 2.73166 223 157 195
-0.40774 0.03374 2.44173 223 157 195
-0.13182 0.03374 2.44173 223 157 195
-0.40774 -0.15596 2.44173 223 157 195
-0.40786 -0.15596 2.73166 223 157 195
-0.13254 -0.15596 2.73166 223 157 195
-0.13182 -0.15596 2.44173 223 157 195
-0.15739 0.03374 2.74864 223 157 195
-0.383 0.03374 2.74864 223 157 195
-0.35704 -0.15596 2.6848 223 157 195
-0.35679 -0.15596 2.44173 223 157 195
-0.33857 -0.15596 2.70311 223 157 195
-0.383 -0.15596 2.74864 223 157 195
-0.15739 -0.15596 2.74864 223 157 195
-0.20163 -0.15596 2.70311 223 157 195
-0.18316 -0.15596 2.6848 223 157 195
-0.18341 -0.15596 2.44173 223 157 195
-0.13254 0.03374 2.73166 230 164 204
-0.13254 -0.15596 2.73166 230 164 204
0.18316 -0.15596 2.6848 157 109 105
0.20163 -0.15596 2.70311 157 109 105
0.33857 -0.15596 2.70311 157 109 105
0.35704 -0.15596 2.6848 157 109 105
0.18341 -0.15596 2.44173 157 109 105
0.35679 -0.15596 2.44173 157 109 105
0.15739 -0.15596 2.74864 230 164 204
0.15739 0.03374 2.74864 230 164 204
0.383 0.03374 2.74864 230 164 204
0.383 -0.15596 2.74864 230 164 204
0.40786 -0.15596 2.73166 230 164 204
0.40786 0.03374 2.73166 230 164 204
0.13254 0.03374 2.73166 223 157 195
0.13182 0.03374 2.44173 223 157 195
0.40774 0.03374 2.44173 223 157 195
0.40786 0.03374 2.73166 223 157 195
0.40774 -0.15596 2.44173 223 157 195
0.40786 -0.15596 2.73166 223 157 195
0.13254 -0.15596 2.73166 223 157 195
0.13182 -0.15596 2.44173 223 157 195
0.15739 0.03374 2.74864 223 157 195
0.383 0.03374 2.74864 223 157 195
0.35679 -0.15596 2.44173 223 157 195
0.35704 -0.15596 2.6848 223 157 195
0.33857 -0.15596 2.70311 223 157 195
0.383 -0.15596 2.74864 223 157 195
0.15739 -0.15596 2.74864 223 157 195
0.20163 -0.15596 2.70311 223 157 195
0.18316 -0.15596 2.6848 223 157 195
0.18341 -0.15596 2.44173 223 157 195
0.13254 0.03374 2.73166 230 164 204
0.13254 -0.15596 2.73166 230 164 204
-0.6365 -0.5602 1.40668 248 228 228
-0.6365 -0.5602 1.65788 248 228 228
-0.53984 -0.6365 1.65788 248 228 228
-0.53984 -0.6365 1.40668 248 228 228
-0.6365 0.5602 1.40668 248 228 228
-0.6365 0.5602 1.65788 248 228 228
0.53984 -0.6365 1.40668 248 228 228
0.53984 -0.6365 1.65788 248 228 228
0.6365 -0.5602 1.40668 248 228 228
0.6365 -0.5602 1.65788 248 228 228
0.6365 0.5602 1.65788 248 228 228
0.6365 0.5602 1.40668 248 228 228
-0.48454 -0.5713 1.71119 248 228 228
-0.5713 -0.50282 1.71119 248 228 228
-0.5713 0.50282 1.71119 248 228 228
-0.53984 0.6365 1.65788 248 228 228
-0.53984 0.6365 1.40668 248 228 228
0.53984 0.6365 1.65788 248 228 228
0.53984 0.6365 1.40668 248 228 228
-0.48454 0.5713 1.71119 248 228 228
0.48454 0.5713 1.71119 248 228 228
0.5713 0.50282 1.71119 248 228 228
-0.47685 0.56225 1.34117 248 228 228
-0.56225 0.49485 1.34117 248 228 228
0.47685 0.56225 1.34117 248 228 228
0.56225 0.49485 1.34117 248 228 228
0.56225 -0.49485 1.34117 248 228 228
0.47685 -0.56225 1.34117 248 228 228
-0.56225 -0.49485 1.34117 248 228 228
-0.47685 -0.56225 1.34117 248 228 228
0.5713 -0.50282 1.71119 248 228 228
0.48454 -0.5713 1.71119 248 228 228
0.5713 -0.50282 1.71119 250 236 236
0.48454 -0.5713 1.71119 250 236 236
-0.48454 -0.5713 1.71119 250 236 236
-0.5713 -0.50282 1.71119 250 236 236
0.5713 0.50282 1.71119 250 236 236
-0.5713 0.50282 1.71119 250 236 236
0.48454 0.5713 1.71119 250 236 236
-0.48454 0.5713 1.71119 250 236 236
-0.44917 -0.24752 0.71105 223 157 195
-0.44917 -0.24752 1.35386 223 157 195
-0.38095 -0.30136 1.35386 223 157 195
-0.38095 -0.30136 0.71105 223 157 195
-0.44917 0.40963 0.71105 223 157 195
-0.44917 0.40963 1.35386 223 157 195
0.38095 -0.30136 0.71105 223 157 195
0.38095 -0.30136 1.35386 223 157 195
0.44917 -0.24752 0.71105 223 157 195
0.44917 -0.24752 1.35386 223 157 195
0.44917 0.40963 1.35386 223 157 195
0.44917 0.40963 0.71105 223 157 195
-0.33651 -0.24896 0.66482 223 157 195
0.33651 -0.24896 0.66482 223 157 195
-0.39677 -0.20139 0.66482 223 157 195
0.39677 -0.20139 0.66482 223 157 195
-0.39677 0.36351 0.66482 223 157 195
0.39677 0.36351 0.66482 223 157 195
0.38095 0.46347 0.71105 223 157 195
0.38095 0.46347 1.35386 223 157 195
-0.38095 0.46347 0.71105 223 157 195
-0.38095 0.46347 1.35386 223 157 195
-0.33651 0.41107 0.66482 223 157 195
0.33651 0.41107 0.66482 223 157 195
-0.32577 0.04824 1.2361 223 157 195
-1.03561 0.04824 1.2361 223 157 195
-0.85549 -0.08203 1.45047 223 157 195
-0.32577 -0.08203 1.45047 223 157 195
-0.32577 0.2626 1.36637 223 157 195
-1.03561 0.2626 1.36637 223 157 195
-1.10945 0.00866 1.30123 223 157 195
-1.10945 0.22302 1.4315 223 157 195
-1.10945 -0.23254 1.69815 223 157 195
-0.85549 -0.23254 1.69815 223 157 195
-0.85549 0.13234 1.58073 223 157 195
-0.85549 -0.01818 1.82842 223 157 195
-1.10945 -0.01818 1.82842 223 157 195
-1.19507 -0.36471 1.91564 223 157 195
-0.73964 -0.36471 1.91564 223 157 195
-0.73964 -0.23254 1.69815 223 157 195
-0.73964 -0.01818 1.82842 223 157 195
-0.73964 -0.26103 1.74503 223 157 195
-1.19507 -0.01818 1.82842 223 157 195
-1.19507 -0.23254 1.69815 223 157 195
-1.19507 -0.26413 1.97676 223 157 195
-0.73964 -0.23141 1.76313 223 157 195
-0.73964 -0.10271 1.8411 223 157 195
-0.69471 -0.10271 1.8411 223 157 195
-0.65269 -0.12722 1.82622 223 157 195
-0.65269 -0.35923 1.68542 223 157 195
-0.65269 -0.2023 1.94988 223 157 195
-0.65269 -0.43432 1.80907 223 157 195
-0.73971 -0.35923 1.68542 223 157 195
-0.73971 -0.43432 1.80907 223 157 195
-0.73964 -0.33615 1.86866 223 157 195
-1.19507 -0.15035 2.04591 223 157 195
-1.19507 -0.24109 2.19753 223 157 195
-1.19507 -0.32114 2.07057 223 157 195
-1.19507 -0.29058 2.20839 223 157 195
-1.19507 -0.56935 2.03899 223 157 195
-1.19507 -0.51642 1.9519 223 157 195
-0.73964 -0.56935 2.03899 223 157 195
-0.73964 -0.29058 2.20839 223 157 195
-0.73964 -0.51642 1.9519 223 157 195
-0.73964 -0.32114 2.07057 223 157 195
-0.73964 -0.24109 2.19753 223 157 195
-0.73964 -0.15035 2.04591 223 157 195
-0.73964 -0.26413 1.97676 223 157 195
-0.73964 -0.30649 1.88678 223 157 195
-0.73964 -0.1778 1.96476 223 157 195
-0.69471 -0.1778 1.96476 223 157 195
-0.32577 0.13234 1.58073 223 157 195
-0.32577 0.13234 1.58073 230 164 204
-0.85549 0.13234 1.58073 230 164 204
-1.03561 0.2626 1.36637 230 164 204
-0.32577 0.2626 1.36637 230 164 204
-1.10945 0.22302 1.4315 230 164 204
-0.85549 -0.01818 1.82842 230 164 204
-1.10945 -0.01818 1.82842 230 164 204
-0.73964 -0.15035 2.04591 230 164 204
-1.19507 -0.15035 2.04591 230 164 204
-0.73964 -0.01818 1.82842 230 164 204
-1.19507 -0.01818 1.82842 230 164 204
-0.73964 -0.24109 2.19753 230 164 204
-1.19507 -0.24109 2.19753 230 164 204
-0.73964 -0.29058 2.20839 230 164 204
-1.19507 -0.29058 2.20839 230 164 204
-0.73964 -0.1778 1.96476 230 164 204
-0.73964 -0.10271 1.8411 230 164 204
-0.69471 -0.10271 1.8411 230 164 204
-0.69471 -0.1778 1.96476 230 164 204
-0.65269 -0.2023 1.94988 230 164 204
-0.65269 -0.12722 1.82622 230 164 204
0.43093 0.18018 1.21129 223 157 195
0.43093 -0.05553 1.29708 223 157 195
0.84257 -0.05553 1.29708 223 157 195
1.02269 0.18018 1.21129 223 157 195
0.84257 0.03026 1.5328 223 157 195
0.43093 0.03026 1.5328 223 157 195
1.09652 0.10856 1.23736 223 157 195
0.84257 -0.32788 1.39621 223 157 195
0.84257 -0.24209 1.63192 223 157 195
1.09652 -0.32788 1.39621 223 157 195
1.09652 -0.24209 1.63192 223 157 195
1.09652 0.19436 1.47307 223 157 195
0.84266 -0.37442 1.41316 223 157 195
0.72774 -0.37468 1.41326 223 157 195
0.72776 -0.32788 1.39621 223 157 195
1.18215 -0.50701 1.46141 223 157 195
0.84269 -0.50701 1.46141 223 157 195
1.18215 -0.32788 1.39621 223 157 195
0.43093 0.03026 1.5328 230 164 204
0.43093 0.26597 1.447 230 164 204
1.02269 0.26597 1.447 230 164 204
0.84257 0.03026 1.5328 230 164 204
1.09652 0.19436 1.47307 230 164 204
0.84257 -0.24209 1.63192 230 164 204
1.09652 -0.24209 1.63192 230 164 204
1.18215 -0.55627 1.7391 230 164 204
1.18215 -0.24209 1.63192 230 164 204
0.72776 -0.55627 1.7391 230 164 204
0.72776 -0.24209 1.63192 230 164 204
0.43093 0.26597 1.447 223 157 195
1.02269 0.26597 1.447 223 157 195
0.72776 -0.24209 1.63192 223 157 195
0.72774 -0.3273 1.54391 223 157 195
0.66646 -0.42586 1.27266 223 157 195
0.84266 -0.42559 1.27256 223 157 195
0.66646 -0.3273 1.54391 223 157 195
0.84271 -0.53642 1.3806 223 157 195
1.18215 -0.53642 1.3806 223 157 195
0.84269 -0.55818 1.32081 223 157 195
0.66648 -0.55818 1.32081 223 157 195
0.66648 -0.45971 1.59209 223 157 195
0.72776 -0.53642 1.3806 223 157 195
0.72776 -0.45971 1.59209 223 157 195
0.72776 -0.71026 1.44387 223 157 195
1.18215 -0.71026 1.44387 223 157 195
1.18215 -0.60974 1.72004 223 157 195
0.72776 -0.60974 1.72004 223 157 195
1.18215 -0.55627 1.7391 223 157 195
1.18215 -0.24209 1.63192 223 157 195
0.72776 -0.55627 1.7391 223 157 195
0.72776 -0.45971 1.59209 230 164 204
0.66648 -0.45971 1.59209 230 164 204
0.66646 -0.3273 1.54391 230 164 204
0.72774 -0.3273 1.54391 230 164 204
0.19102 -0.41289 2.13586 48 43 13
0.19102 -0.41289 2.17452 48 43 13
0.21769 -0.41289 2.17452 48 43 13
0.21769 -0.41289 2.13586 48 43 13
0.19102 -0.40426 2.13586 48 43 13
0.21769 -0.40426 2.13586 48 43 13
0.21769 -0.40426 2.17452 48 43 13
0.19102 -0.40426 2.17452 48 43 13
-0.19102 -0.41289 2.13586 48 43 13
-0.21769 -0.41289 2.13586 48 43 13
-0.21769 -0.41289 2.17452 48 43 13
-0.19102 -0.41289 2.17452 48 43 13
-0.19102 -0.40426 2.13586 48 43 13
-0.21769 -0.40426 2.13586 48 43 13
-0.21769 -0.40426 2.17452 48 43 13
-0.19102 -0.40426 2.17452 48 43 13
-0.4133 -0.31584 2.4534 230 164 204
-0.4133 0.33634 2.4534 230 164 204
0.4133 0.33634 2.4534 230 164 204
0.4133 -0.31584 2.4534 230 164 204
0.35666 -0.37377 2.4534 230 164 204
-0.35666 -0.37377 2.4534 230 164 204
0.35666 0.39427 2.4534 230 164 204
-0.35666 0.39427 2.4534 230 164 204
0.46158 -0.35768 1.74515 223 157 195
0.46158 -0.35768 2.4067 223 157 195
0.46158 0.37818 2.4067 223 157 195
0.46158 0.37818 1.74515 223 157 195
0.39864 -0.42205 2.4067 223 157 195
0.39864 -0.42205 1.74515 223 157 195
0.4133 -0.31584 2.4534 223 157 195
0.35666 -0.37377 2.4534 223 157 195
0.4133 0.33634 2.4534 223 157 195
0.35666 -0.37377 1.69909 223 157 195
-0.39864 -0.42205 1.74515 223 157 195
-0.35666 -0.37377 1.69909 223 157 195
0.4133 -0.31584 1.69909 223 157 195
0.4133 0.33634 1.69909 223 157 195
0.39864 0.44255 1.74515 223 157 195
0.39864 0.44255 2.4067 223 157 195
0.35666 0.39427 2.4534 223 157 195
-0.39864 0.44255 2.4067 223 157 195
-0.35666 0.39427 2.4534 223 157 195
0.35666 0.39427 1.69909 223 157 195
-0.46158 0.37818 2.4067 223 157 195
-0.39864 0.44255 1.74515 223 157 195
-0.46158 0.37818 1.74515 223 157 195
-0.4133 0.33634 2.4534 223 157 195
-0.4133 0.33634 1.69909 223 157 195
-0.35666 0.39427 1.69909 223 157 195
-0.4133 -0.31584 1.69909 223 157 195
-0.46158 -0.35768 1.74515 223 157 195
-0.39864 -0.42205 2.4067 223 157 195
-0.46158 -0.35768 2.4067 223 157 195
-0.4133 -0.31584 2.4534 223 157 195
-0.35666 -0.37377 2.4534 223 157 195
-0.34494 -0.42205 2.11423 223 157 195
-0.16374 -0.42205 2.16839 223 157 195
-0.31477 -0.42205 2.16839 223 157 195
-0.31477 -0.40678 2.16839 223 157 195
-0.34494 -0.40678 2.11423 223 157 195
-0.26517 -0.42205 2.11423 223 157 195
-0.26517 -0.40678 2.11423 223 157 195
-0.16374 -0.40678 2.16839 223 157 195
-0.13358 -0.40678 2.11423 223 157 195
-0.13358 -0.42205 2.11423 223 157 195
0.13358 -0.42205 2.11423 223 157 195
-0.13395 -0.42205 2.08556 223 157 195
0.13395 -0.42205 2.08556 223 157 195
0.16374 -0.42205 2.16839 223 157 195
0.13358 -0.40678 2.11423 223 157 195
0.16374 -0.40678 2.16839 223 157 195
0.26517 -0.40678 2.11423 223 157 195
0.26517 -0.42205 2.11423 223 157 195
0.31477 -0.42205 2.16839 223 157 195
0.31477 -0.40678 2.16839 223 157 195
0.34494 -0.42205 2.11423 223 157 195
0.34494 -0.40678 2.11423 223 157 195
0.26517 -0.42205 2.08556 223 157 195
0.15253 -0.42205 2.05593 223 157 195
-0.15253 -0.42205 2.05593 223 157 195
-0.26517 -0.42205 2.08556 223 157 195
-0.15253 -0.42205 1.78161 223 157 195
-0.12672 -0.75974 2.03092 223 157 195
-0.12672 -0.75974 1.8055 223 157 195
0.12672 -0.75974 1.8055 223 157 195
0.15253 -0.42205 1.78161 223 157 195
0.12672 -0.75974 2.03092 223 157 195
-0.09926 -0.7809 1.82992 223 157 195
-0.09926 -0.7809 2.0065 223 157 195
0.09926 -0.7809 2.0065 223 157 195
0.09926 -0.7809 1.82992 223 157 195
0.16374 -0.40678 2.16839 255 255 255
0.26517 -0.40678 2.11423 255 255 255
0.13358 -0.40678 2.11423 255 255 255
0.31477 -0.40678 2.16839 255 255 255
0.34494 -0.40678 2.11423 255 255 255
0.12672 -0.75974 2.03092 230 164 204
-0.12672 -0.75974 2.03092 230 164 204
-0.15253 -0.42205 2.05593 230 164 204
0.15253 -0.42205 2.05593 230 164 204
-0.09926 -0.7809 2.0065 230 164 204
0.09926 -0.7809 2.0065 230 164 204
-0.26517 -0.40678 2.11423 255 255 255
-0.34494 -0.40678 2.11423 255 255 255
-0.31477 -0.40678 2.16839 255 255 255
-0.16374 -0.40678 2.16839 255 255 255
-0.13358 -0.40678 2.11423 255 255 255
0.95457 -0.54896 0.7761 95 92 87
0.95457 -0.54896 0.88706 95 92 87
0.98628 -0.54896 0.88706 95 92 87
0.98628 -0.54896 0.7761 95 92 87
0.95457 -0.46156 0.7761 95 92 87
0.95457 -0.4894 0.88706 95 92 87
0.95457 -0.52111 0.88706 95 92 87
0.98628 -0.46156 0.7761 95 92 87
0.98628 -0.52111 0.88706 95 92 87
0.98628 -0.52111 1.48982 95 92 87
0.95457 -0.52111 1.48982 95 92 87
0.98628 -0.4894 0.88706 95 92 87
0.95457 -0.4894 1.48982 95 92 87
0.98628 -0.4894 1.48982 95 92 87
0.98628 -0.46156 0.88706 95 92 87
0.95457 -0.46156 0.88706 95 92 87
0.8348 -0.53608 0.85012 169 159 164
0.8348 -0.47376 0.85012 169 159 164
0.86473 -0.47376 0.87641 169 159 164
0.86473 -0.53608 0.87641 169 159 164
0.8348 -0.47376 0.62292 147 139 143
0.8348 -0.53608 0.62292 147 139 143
0.86473 -0.53608 0.59663 147 139 143
0.86473 -0.47376 0.59663 147 139 143
1.08402 -0.47376 0.59663 147 139 143
1.08402 -0.53608 0.59663 147 139 143
0.92184 -0.53608 0.6966 147 139 143
0.93363 -0.53608 0.68516 147 139 143
1.11458 -0.47376 0.62292 147 139 143
1.11458 -0.53608 0.62292 147 139 143
1.01575 -0.53608 0.68516 147 139 143
0.92184 -0.53608 0.77486 147 139 143
0.92184 -0.47376 0.77486 147 139 143
0.92184 -0.47376 0.6966 147 139 143
0.8348 -0.53608 0.85012 147 139 143
0.8348 -0.47376 0.85012 147 139 143
0.86473 -0.53608 0.87641 147 139 143
0.93363 -0.53608 0.78788 147 139 143
1.08402 -0.53608 0.87641 147 139 143
1.01575 -0.53608 0.78788 147 139 143
0.93363 -0.47376 0.78788 147 139 143
1.01575 -0.47376 0.78788 147 139 143
1.02754 -0.47376 0.77486 147 139 143
1.02754 -0.53608 0.77486 147 139 143
1.11458 -0.53608 0.85012 147 139 143
1.02754 -0.47376 0.6966 147 139 143
1.02754 -0.53608 0.6966 147 139 143
1.11458 -0.47376 0.85012 147 139 143
1.08402 -0.47376 0.87641 147 139 143
0.86473 -0.47376 0.87641 147 139 143
1.01575 -0.47376 0.68516 147 139 143
0.93363 -0.47376 0.68516 147 139 143
0.93363 -0.53608 0.68516 169 159 164
0.93363 -0.47376 0.68516 169 159 164
1.01575 -0.47376 0.68516 169 159 164
1.01575 -0.53608 0.68516 169 159 164
1.02754 -0.47376 0.6966 169 159 164
1.02754 -0.53608 0.6966 169 159 164
0.92184 -0.47376 0.6966 169 159 164
0.92184 -0.53608 0.6966 169 159 164
1.08402 -0.47376 0.87641 169 159 164
1.08402 -0.53608 0.87641 169 159 164
1.11458 -0.53608 0.85012 169 159 164
1.11458 -0.47376 0.85012 169 159 164
1.18215 -0.60974 1.72004 230 164 204
0.72776 -0.60974 1.72004 230 164 204
0.13395 -0.42205 2.08556 214 148 191
0.13358 -0.42205 2.11423 214 148 191
0.26517 -0.42205 2.11423 214 148 191
0.26517 -0.42205 2.08556 214 148 191
-0.26517 -0.42205 2.08556 214 148 191
-0.26517 -0.42205 2.11423 214 148 191
-0.13358 -0.42205 2.11423 214 148 191
-0.13395 -0.42205 2.08556 214 148 191
-0.22603 -0.10053 0.88785 223 157 195
-0.52166 -0.10082 0.88778 223 157 195
-0.52197 0.2207 0.8875 223 157 195
-0.22634 0.22099 0.88757 223 157 195
-0.17708 0.24433 0.8414 223 157 195
-0.1767 -0.14984 0.84217 223 157 195
-0.17699 0.1915 0.50022 223 157 195
-0.1766 -0.20268 0.55031 223 157 195
-0.17699 0.1915 0.46557 223 157 195
-0.1766 -0.20268 0.43249 223 157 195
-0.17767 0.30499 0.18733 223 157 195
-0.17725 -0.11647 0.18733 223 157 195
-0.17767 0.30499 1.52588E-07 223 157 195
-0.17694 -0.19692 1.52588E-07 223 157 195
-0.17689 -0.25193 1.63814E-07 223 157 195
-0.17689 -0.25193 0.1869 223 157 195
-0.57185 0.3046 1.52588E-07 223 157 195
-0.57146 -0.19731 1.52588E-07 223 157 195
-0.57143 -0.11686 0.18733 223 157 195
-0.57185 0.3046 0.18733 223 157 195
-0.57116 0.19111 0.46557 223 157 195
-0.57077 -0.20307 0.43249 223 157 195
-0.57116 0.19111 0.50022 223 157 195
-0.57077 -0.20307 0.55031 223 157 195
-0.57125 0.24395 0.8413 223 157 195
-0.57087 -0.15023 0.84207 223 157 195
-0.5714 -0.25237 1.63823E-07 223 157 195
-0.5714 -0.25237 0.1869 223 157 195
-0.54363 -0.28113 0.1869 223 157 195
-0.54363 -0.28113 1.697E-07 223 157 195
-0.2046 -0.2808 1.697E-07 223 157 195
-0.2046 -0.2808 0.1869 223 157 195
-0.22866 0.29745 0.83962 223 157 195
-0.51978 0.29717 0.83955 223 157 195
-0.51969 0.24418 0.49397 223 157 195
-0.22857 0.24447 0.49384 223 157 195
-0.52025 0.24379 0.47107 223 157 195
-0.22913 0.24408 0.47095 223 157 195
-0.51981 0.35729 0.18733 223 157 195
-0.22869 0.35757 0.18733 223 157 195
-0.52037 0.35914 1.58136E-07 223 157 195
-0.22925 0.35943 1.58138E-07 223 157 195
-0.26478 0.26912 0.88735 223 157 195
-0.48364 0.2689 0.8873 223 157 195
-0.17725 -0.11647 0.18733 230 164 204
-0.17689 -0.25193 0.1869 230 164 204
-0.5714 -0.25237 0.1869 230 164 204
-0.57143 -0.11686 0.18733 230 164 204
-0.2046 -0.2808 0.1869 230 164 204
-0.54363 -0.28113 0.1869 230 164 204
3 0 2 1
3 0 3 2
3 4 0 1
3 4 5 0
3 6 5 4
3 6 7 5
3 8 7 6
3 8 9 7
3 10 9 8
3 10 11 9
3 11 10 12
3 11 12 13
3 11 13 14
3 11 14 15
3 16 13 12
3 16 17 13
3 18 17 16
3 18 16 19
3 18 19 20
3 18 20 21
3 21 20 22
3 21 22 23
3 23 22 24
3 23 24 25
3 7 23 25
3 7 25 5
3 9 23 7
3 9 21 23
3 11 21 9
3 11 18 21
3 5 25 3
3 5 3 0
3 18 26 17
3 18 27 26
3 26 27 28
3 26 28 29
3 28 30 29
3 28 31 30
3 15 30 31
3 15 14 30
3 32 34 33
3 32 35 34
3 33 34 36
3 33 36 37
3 37 36 38
3 37 38 39
3 39 38 40
3 39 40 41
3 24 34 35
3 24 22 34
3 22 36 34
3 6 32 33
3 6 4 32
3 32 4 1
3 32 1 42
3 22 20 36
3 20 38 36
3 8 33 37
3 8 6 33
3 20 19 38
3 19 40 38
3 10 37 39
3 10 8 37
3 19 16 40
3 16 41 40
3 16 12 41
3 12 39 41
3 12 10 39
3 1 43 42
3 43 32 42
3 43 35 32
3 35 2 24
3 35 43 2
3 1 2 43
3 25 2 3
3 25 24 2
3 44 46 45
3 44 47 46
3 46 47 48
3 46 48 49
3 13 26 14
3 13 17 26
3 14 26 29
3 14 29 30
3 50 52 51
3 50 53 52
3 54 50 51
3 54 51 55
3 56 58 57
3 56 59 58
3 60 57 58
3 60 58 61
3 62 64 63
3 62 65 64
3 66 63 64
3 66 67 63
3 65 62 68
3 65 68 69
3 63 70 62
3 63 71 70
3 66 72 67
3 66 73 72
3 67 72 74
3 67 74 75
3 74 76 75
3 74 77 76
3 76 77 78
3 76 78 68
3 68 78 79
3 68 79 69
3 80 56 81
3 80 59 56
3 82 84 83
3 82 85 84
3 86 85 82
3 86 87 85
3 88 90 89
3 88 91 90
3 92 90 91
3 92 93 90
3 94 96 95
3 94 97 96
3 98 96 97
3 98 97 99
3 95 100 94
3 95 101 100
3 97 94 102
3 97 102 103
3 98 105 104
3 98 99 105
3 99 106 105
3 99 107 106
3 106 107 108
3 106 108 109
3 108 110 109
3 108 100 110
3 100 111 110
3 100 101 111
3 112 88 89
3 112 113 88
3 114 116 115
3 114 117 116
3 118 114 115
3 118 115 119
3 116 117 120
3 116 120 121
3 121 120 122
3 121 122 123
3 122 124 123
3 122 125 124
3 115 116 126
3 115 126 127
3 119 115 127
3 119 127 128
3 129 119 128
3 119 129 130
3 119 130 118
3 130 129 131
3 130 131 132
3 132 131 124
3 132 124 125
3 131 129 133
3 129 128 133
3 131 133 134
3 124 131 134
3 123 124 135
3 124 134 135
3 118 130 136
3 118 136 137
3 130 138 136
3 130 132 138
3 132 139 138
3 132 125 139
3 139 136 138
3 139 137 136
3 125 140 139
3 140 137 139
3 125 122 140
3 122 141 140
3 141 142 140
3 140 142 137
3 141 143 142
3 120 143 141
3 122 120 141
3 120 117 143
3 117 142 143
3 117 114 142
3 114 137 142
3 114 118 137
3 123 135 144
3 121 123 144
3 121 144 145
3 116 121 145
3 116 145 126
3 146 148 147
3 146 149 148
3 150 149 146
3 150 151 149
3 152 151 150
3 152 153 151
3 154 156 155
3 154 157 156
3 158 154 155
3 158 155 159
3 156 157 160
3 156 160 161
3 161 160 162
3 161 162 163
3 162 164 163
3 162 165 164
3 160 157 166
3 160 166 167
3 162 160 167
3 167 166 168
3 157 168 166
3 157 154 168
3 167 168 169
3 162 167 169
3 154 170 168
3 154 158 170
3 165 162 169
3 165 169 171
3 172 165 171
3 172 164 165
3 172 173 164
3 174 173 172
3 174 175 173
3 159 175 174
3 159 174 158
3 158 174 176
3 158 176 170
3 169 170 171
3 169 168 170
3 171 170 176
3 174 177 176
3 174 172 177
3 172 171 177
3 171 176 177
3 178 180 179
3 178 181 180
3 182 178 179
3 182 179 183
3 180 184 179
3 184 183 179
3 184 185 183
3 180 186 184
3 180 187 186
3 188 187 180
3 188 189 187
3 184 190 185
3 184 186 190
3 187 191 186
3 187 192 191
3 189 193 187
3 189 194 193
3 187 193 195
3 186 196 190
3 186 197 196
3 191 197 186
3 197 191 198
3 194 199 193
3 193 199 195
3 194 200 199
3 200 201 199
3 201 202 199
3 203 199 202
3 204 203 202
3 204 205 203
3 206 203 205
3 206 205 207
3 208 206 207
3 208 195 206
3 199 203 195
3 195 203 206
3 198 210 209
3 198 211 210
3 211 212 210
3 211 213 212
3 211 214 213
3 212 213 215
3 212 215 216
3 216 215 217
3 216 217 218
3 219 216 218
3 220 219 218
3 220 218 221
3 222 220 221
3 222 221 192
3 198 192 221
3 198 191 192
3 222 223 220
3 220 223 200
3 220 200 194
3 222 224 223
3 222 204 224
3 222 205 204
3 205 222 208
3 205 208 207
3 181 188 180
3 181 225 188
3 226 228 227
3 226 229 228
3 228 230 227
3 230 231 227
3 230 232 231
3 232 233 231
3 232 234 233
3 233 235 231
3 232 236 234
3 234 237 233
3 234 238 237
3 239 237 238
3 239 238 240
3 221 211 198
3 221 218 211
3 218 214 211
3 218 217 214
3 217 213 214
3 217 215 213
3 197 209 196
3 197 198 209
3 241 243 242
3 241 244 243
3 245 243 244
3 245 246 243
3 247 249 248
3 247 250 249
3 248 249 251
3 248 251 252
3 249 250 253
3 251 249 254
3 251 254 255
3 249 256 254
3 249 253 256
3 253 257 256
3 253 258 257
3 256 259 254
3 254 259 260
3 254 260 261
3 262 259 256
3 262 263 259
3 262 256 264
3 265 267 266
3 265 268 267
3 267 268 269
3 269 268 270
3 269 270 271
3 272 271 270
3 273 271 272
3 272 270 274
3 274 270 275
3 276 250 247
3 276 277 250
3 253 250 277
3 253 277 258
3 255 261 278
3 255 254 261
3 279 278 261
3 279 261 260
3 279 260 280
3 260 281 280
3 260 259 281
3 279 280 282
3 259 283 281
3 259 263 283
3 283 263 262
3 283 262 284
3 281 283 285
3 280 285 286
3 280 281 285
3 287 280 286
3 287 282 280
3 288 287 286
3 288 289 287
3 283 286 285
3 283 288 286
3 288 283 290
3 290 283 291
3 292 290 291
3 292 293 290
3 291 283 284
3 262 291 284
3 262 292 291
3 262 294 292
3 295 294 262
3 295 262 264
3 256 295 264
3 256 257 295
3 289 278 279
3 289 296 278
3 297 299 298
3 297 300 299
3 290 289 288
3 293 289 290
3 296 289 293
3 301 303 302
3 301 304 303
3 305 304 301
3 305 301 302
3 305 306 304
3 304 307 303
3 304 306 307
3 305 302 308
3 309 311 310
3 309 312 311
3 313 309 310
3 313 312 309
3 313 310 314
3 310 315 314
3 310 311 315
3 313 316 312
3 317 319 318
3 317 320 319
3 321 320 317
3 321 317 322
3 318 319 323
3 318 323 324
3 325 327 326
3 325 328 327
3 329 325 326
3 329 330 325
3 329 326 331
3 329 331 332
3 326 333 331
3 326 327 333
3 325 330 334
3 334 330 335
3 334 335 336
3 325 334 337
3 328 325 337
3 328 337 338
3 339 328 338
3 339 327 328
3 339 340 327
3 327 340 341
3 341 340 342
3 339 342 340
3 341 342 343
3 327 341 333
3 339 338 344
3 345 343 342
3 346 345 342
3 339 346 342
3 344 346 339
3 346 347 345
3 345 348 343
3 346 349 347
3 346 350 349
3 344 350 346
3 347 349 351
3 347 351 352
3 352 351 336
3 352 336 335
3 353 352 335
3 353 354 352
3 352 354 345
3 352 345 347
3 353 355 354
3 353 356 355
3 354 348 345
3 354 355 348
3 332 356 353
3 332 353 329
3 335 357 353
3 358 329 353
3 358 353 359
3 353 357 359
3 357 360 359
3 357 361 360
3 362 361 357
3 362 363 361
3 359 364 358
3 359 360 364
3 358 364 365
3 358 365 366
3 366 363 362
3 366 365 363
3 358 366 367
3 367 366 368
3 367 368 369
3 358 367 370
3 358 370 329
3 370 367 371
3 370 371 372
3 367 373 371
3 367 374 373
3 375 370 372
3 375 372 376
3 377 375 376
3 373 374 377
3 377 329 375
3 329 370 375
3 377 376 378
3 373 377 378
3 330 329 377
3 379 330 377
3 374 379 377
3 380 379 369
3 369 381 380
3 369 368 381
3 381 368 382
3 383 381 382
3 383 384 381
3 383 385 384
3 386 385 383
3 386 383 387
3 383 330 387
3 387 379 380
3 387 330 379
3 387 388 386
3 387 380 388
3 383 382 335
3 383 335 330
3 384 385 389
3 384 389 390
3 391 390 389
3 386 388 391
3 391 389 392
3 385 392 389
3 385 386 392
3 386 391 392
3 335 382 357
3 382 362 357
3 393 395 394
3 393 394 396
3 396 394 397
3 398 400 399
3 398 401 400
3 398 399 402
3 398 402 403
3 404 406 405
3 407 406 404
3 407 404 408
3 409 411 410
3 409 412 411
3 412 409 413
3 409 414 413
3 409 415 414
3 415 409 410
3 412 413 416
3 417 410 411
3 417 415 410
3 412 417 411
3 415 417 418
3 415 418 419
3 412 420 417
3 412 416 420
3 421 420 414
3 421 422 420
3 417 420 422
3 417 422 418
3 414 419 421
3 414 415 419
3 414 420 423
3 414 423 424
3 424 423 416
3 420 416 423
3 424 416 413
3 413 414 424
3 425 427 426
3 425 428 427
3 429 431 430
3 429 432 431
3 431 432 433
3 431 433 434
3 435 430 431
3 435 431 436
3 436 431 434
3 434 433 437
3 434 437 438
3 436 434 439
3 438 439 434
3 440 430 435
3 441 440 435
3 441 435 442
3 440 443 430
3 429 430 443
3 429 443 444
3 445 443 440
3 445 440 446
3 446 447 445
3 446 448 447
3 448 446 449
3 448 449 450
3 451 448 450
3 451 452 448
3 447 448 452
3 447 452 453
3 454 452 451
3 454 455 452
3 453 452 455
3 453 455 438
3 438 456 453
3 438 437 456
3 438 455 439
3 451 456 437
3 457 456 451
3 457 451 450
3 449 457 450
3 449 458 457
3 441 458 449
3 446 441 449
3 446 440 441
3 441 444 458
3 451 437 454
3 454 437 433
3 454 433 459
3 459 433 432
3 459 432 460
3 432 442 460
3 442 444 441
3 432 429 442
3 442 429 444
3 461 463 462
3 461 464 463
3 464 465 463
3 464 466 465
3 467 461 462
3 467 468 461
3 427 470 469
3 427 428 470
3 469 470 471
3 469 471 472
3 272 474 473
3 272 274 474
3 475 477 476
3 475 478 477
3 479 481 480
3 479 482 481
3 208 222 192
3 187 208 192
3 187 195 208
3 483 485 484
3 483 486 485
3 487 486 483
3 487 483 488
3 489 487 488
3 489 488 490
3 491 489 490
3 491 490 492
3 493 491 492
3 493 492 494
3 494 495 493
3 494 496 495
3 494 497 496
3 494 498 497
3 499 495 496
3 499 496 500
3 501 499 500
3 501 502 499
3 501 503 502
3 501 504 503
3 504 505 503
3 504 506 505
3 506 507 505
3 506 508 507
3 490 508 506
3 490 488 508
3 492 506 504
3 492 490 506
3 494 504 501
3 494 492 504
3 488 484 508
3 488 483 484
3 501 500 509
3 501 509 510
3 509 511 510
3 509 512 511
3 511 512 513
3 511 513 514
3 498 514 513
3 498 513 497
3 515 517 516
3 515 518 517
3 518 519 517
3 518 520 519
3 520 521 519
3 520 522 521
3 522 523 521
3 522 524 523
3 507 516 517
3 507 517 505
3 505 517 519
3 489 518 515
3 489 515 487
3 515 486 487
3 515 525 486
3 505 519 503
3 503 519 521
3 491 518 489
3 491 520 518
3 503 521 502
3 502 521 523
3 493 520 491
3 493 522 520
3 502 523 499
3 499 523 524
3 499 524 495
3 495 522 493
3 495 524 522
3 486 525 526
3 526 525 515
3 526 515 516
3 516 485 526
3 516 507 485
3 486 526 485
3 508 485 507
3 508 484 485
3 527 529 528
3 527 530 529
3 529 531 528
3 529 532 531
3 496 509 500
3 496 497 509
3 497 512 509
3 497 513 512
