mtllib Politoed_M.mtl
v 0.0833117 0.291103 -0.13979
vt 0.955412 0.990296
vn 0.4757052 0.2332271 -0.8481213
v -0.0833117 0.291103 -0.13979
vn -0.4722329 0.2362089 -0.8492358
v -0.0732066 0.444882 -0.08500309
vn -0.4056478 0.8275375 -0.3881128
v -0.0884787 0.159046 -0.160948
vn -0.4964042 -0.02489591 -0.8677344
v 0.0732066 0.444882 -0.08500309
vn 0.4157231 0.8348992 -0.3607182
v 0.0884788 0.159046 -0.160948
vn 0.4920872 -0.02306881 -0.8702402
v 0.130641 0.342812 -0.0234513
vn 0.8411678 0.5403479 0.0214656
v 0.176001 0.136745 0.00308622
vn 0.9634809 -0.163033 -0.212426
v 0.162555 0.298504 0.020772
vn 0.8773697 0.4727708 -0.08191577
v -0.130641 0.342812 -0.0234514
vn -0.8411671 0.5403491 0.0214644
v -0.176001 0.136745 0.00308619
vn -0.9634809 -0.163033 -0.212426
v -0.162555 0.298504 0.020772
vn -0.877369 0.472772 -0.0819163
v 0.0853103 0.091828 -0.143424
vn 0.3835859 -0.5570129 -0.7366129
v -0.0853102 0.0918281 -0.143424
vn -0.3835862 -0.5570133 -0.7366124
v 0.169311 0.0802676 -0.000346134
vn 0.8982332 -0.4343031 -0.06751291
v -0.169311 0.0802676 -0.000346134
vn -0.8982328 -0.4343039 -0.06751309
v 0 0.0568657 -0.00450244
vn 0 -0.9900262 -0.140883
v 0 0.39951 0.0703866
vt 0.935082 0.990296
vn 0 0.8298417 0.5579989
v 0.0732066 0.293023 0.145549
vn 0.152492 0.396829 0.905137
v -0.0732066 0.293023 0.145549
vn -0.152492 0.396829 0.905137
v 0 0.689868 0.234881
vt 0.0183992 0.296921
vn 0 0.9837348 0.179627
v 0.0109553 0.697828 0.300112
vn 0.8461964 -0.1501301 0.5112852
v 0.0109484 0.651754 0.251529
vn 0.8624287 -0.5057568 0.02065989
v 0 0.713145 0.267771
vn 0 0.247226 -0.9689579
v 0.0111879 0.684164 0.182895
vn 0.8132619 -0.209755 -0.542778
v -0.0109553 0.697828 0.300112
vn -0.8465865 -0.1502809 0.5105947
v 0 0.729457 0.21687
vn 0 0.7932478 0.6088989
v -0.0109484 0.651754 0.251529
vn -0.8631696 -0.5044588 0.02144149
v -0.0111879 0.684164 0.182895
vn -0.8142267 -0.2074509 -0.5422168
v 0.0108321 0.777791 0.289511
vn 0.8052822 0.4214961 0.4169671
v -0.0108321 0.777791 0.289511
vn -0.8056625 0.4214538 0.4162748
v 0 0.749529 0.264558
vn 0 -0.8664211 -0.4993141
v 0.0108502 0.793709 0.19125
vn 0.8466552 0.4344821 -0.3072461
v -0.0108502 0.793709 0.19125
vn -0.8466764 0.4344282 -0.3072641
v 0 0.759095 0.206445
vn 0 -0.8601039 0.510119
v 0 0.624477 0.0625914
vn 0 -0.8845101 0.4665211
v 0.130532 0.565636 0.0202056
vt 0.950169 0.773832
vn 0.5487031 0.71259 -0.437196
v 0.19264 0.455632 0.0127599
vn 0.8849316 0.09463955 -0.4560038
v 0.0806733 0.46791 -0.077551
vn 0.367418 0.14975 -0.917921
v 0.181728 0.52702 0.14462
vn 0.8855406 0.4562288 0.08759616
v 0 0.561372 -0.0461043
vn 0 0.6927688 -0.7211598
v 0.119058 0.592221 0.160614
vn 0.4733279 0.8586548 0.196654
v 0 0.630698 0.0831925
vn 0 0.9887403 -0.149642
v 0.130532 0.340329 -0.0153754
vn 0.5532063 -0.5413133 -0.6332003
v 0.211205 0.366085 0.12987
vn 0.9616624 -0.2610991 -0.08386134
v -0.130532 0.565636 0.0202056
vn -0.5487031 0.71259 -0.437196
v -0.0806733 0.46791 -0.077551
vn -0.367418 0.14975 -0.917921
v 0.118431 0.509072 0.288538
vn 0.5012707 0.4668877 0.7285215
v 0 0.597534 0.239535
vn 0 0.8651218 0.5015619
v 0.14471 0.265755 0.127515
vn 0.525073 -0.837386 -0.151931
v 0 0.359613 -0.0801967
vn 0 -0.4403328 -0.8978346
v -0.119058 0.592221 0.160614
vn -0.4733279 0.8586548 0.196654
v -0.19264 0.455632 0.0127599
vn -0.8849314 0.09463964 -0.4560042
v -0.181728 0.52702 0.14462
vn -0.8855406 0.4562288 0.08759616
v 0 0.485973 0.337518
vn 0 0.3940681 0.9190813
v 0.0685723 0.344146 0.341406
vn 0.4189229 -0.171189 0.8917388
v 0 0.260813 0.0279555
vn 0 -0.9002912 -0.4352881
v -0.130532 0.340329 -0.0153754
vn -0.5532063 -0.5413133 -0.6332003
v -0.118431 0.509072 0.288538
vn -0.5012707 0.4668877 0.7285215
v -0.211205 0.366085 0.12987
vn -0.9616624 -0.2610991 -0.08386144
v -0.14471 0.265755 0.127515
vn -0.525073 -0.837386 -0.151931
v -0.0685723 0.344146 0.341406
vn -0.4189229 -0.171189 0.8917388
v 0 0.236036 0.190388
vt 0.586273 -0.0443292
vn 0 -0.997969 0.0637025
vt 0.981705 0.0669023
vt 0.73606 0.0512668
v 0.118431 0.280245 0.244728
vt 0.433837 0.0508252
vn 0.450572 -0.8068299 0.382113
v -0.118431 0.280245 0.244728
vn -0.4505728 -0.8068296 0.3821128
v 0 0.276849 0.304469
vt 0.0788555 -0.00659683
vn 0 -0.8407125 0.5414817
v 0.176351 0.354727 0.264386
vt 0.394116 0.287815
vn 0.7773532 -0.2295051 0.5857042
vt 0.736507 0.351722
v -0.176351 0.354727 0.264386
vn -0.7773532 -0.2295051 0.5857042
vt 0.153062 0.239805
v 0 0.343151 0.348718
vt -0.00615756 0.17364
vn 0 -0.153652 0.988125
v 0.191963 0.440873 0.222125
vt 0.48375 0.507131
vn 0.909955 0.213309 0.355642
v -0.191963 0.440873 0.222125
vn -0.909955 0.213309 0.355642
v 0.0884787 0.114444 0.157155
vt 0.443407 0.593558
vn 0.178953 -0.254636 0.9503349
v 0.229375 0.196135 0.188403
vt 0.80675 0.793234
vn 0.7795171 -0.0374392 0.6252611
vt 0.405232 1.04095
vt 0.0391996 1.04095
v -0.0884787 0.114444 0.157155
vt 0.0010246 0.593449
vn -0.178953 -0.254636 0.9503349
v 0.0853102 0.0611927 0.129994
vt 0.435497 0.44422
vn 0.372642 -0.6940129 0.6160229
v -0.0853102 0.0611927 0.129994
vt 0.00893423 0.44422
vn -0.372642 -0.6940129 0.6160229
vt 0.222216 0.266693
v -0.229375 0.196135 0.188403
vn -0.779518 -0.0374391 0.62526
vt 0.948216 0.955032
vt 0.617967 0.976607
vt 0.976114 0.976607
vt 0.976114 0.805178
vt 0.562636 0.99342
v -0.0784891 0.00206966 0.00276835
vt 0.994564 0.592029
vn -0.105281 -0.9913513 -0.07834832
vt 0.770168 0.574976
vt 0.857574 0.788252
vt 0.799069 0.364975
v 0.0784891 0.00206966 0.00276835
vn 0.105281 -0.9913514 -0.07834813
vt 0.846707 0.281429
vt 0.994514 0.298482
vt 0.857524 0.494704
vt 0.799019 0.0714271
o merged_0_0_node
g polygon_0
usemtl mat_body1_mat_id
f 1/1/1 2/1/2 3/1/3
f 1/1/1 4/1/4 2/1/2
f 1/1/1 3/1/3 5/1/5
f 1/1/1 6/1/6 4/1/4
f 1/1/1 5/1/5 7/1/7
f 1/1/1 8/1/8 6/1/6
f 1/1/1 7/1/7 9/1/9
f 1/1/1 9/1/9 8/1/8
f 2/1/2 10/1/10 3/1/3
f 2/1/2 4/1/4 11/1/11
f 2/1/2 12/1/12 10/1/10
f 2/1/2 11/1/11 12/1/12
f 6/1/6 8/1/8 13/1/13
f 6/1/6 14/1/14 4/1/4
f 6/1/6 13/1/13 14/1/14
f 4/1/4 14/1/14 11/1/11
f 8/1/8 15/1/15 13/1/13
f 14/1/14 16/1/16 11/1/11
f 14/1/14 13/1/13 17/1/17
f 18/2/18 5/2/5 3/2/3
f 18/2/18 7/2/7 5/2/5
f 18/2/18 3/2/3 10/2/10
f 18/2/18 9/2/9 7/2/7
f 18/2/18 10/2/10 12/2/12
f 18/2/18 19/2/19 9/2/9
f 18/2/18 12/2/12 20/2/20
f 18/2/18 20/2/20 19/2/19
f 21/3/21 22/3/22 23/3/23
f 21/3/21 24/3/24 22/3/22
f 21/3/21 23/3/23 25/3/25
f 21/3/21 26/3/26 24/3/24
f 21/3/21 25/3/25 27/3/27
f 21/3/21 28/3/28 26/3/26
f 21/3/21 27/3/27 29/3/29
f 21/3/21 29/3/29 28/3/28
f 23/3/23 22/3/22 26/3/26
f 23/3/23 29/3/29 25/3/25
f 23/3/23 28/3/28 29/3/29
f 23/3/23 26/3/26 28/3/28
f 29/3/29 27/3/27 25/3/25
f 24/3/24 30/3/30 22/3/22
f 24/3/24 26/3/26 31/3/31
f 24/3/24 32/3/32 30/3/30
f 24/3/24 31/3/31 32/3/32
f 26/3/26 22/3/22 30/3/30
f 26/3/26 30/3/30 31/3/31
f 32/3/32 33/3/33 30/3/30
f 32/3/32 31/3/31 34/3/34
f 32/3/32 35/3/35 33/3/33
f 32/3/32 34/3/34 35/3/35
f 30/3/30 34/3/34 31/3/31
f 30/3/30 33/3/33 34/3/34
f 35/3/35 36/3/36 33/3/33
f 35/3/35 34/3/34 36/3/36
f 36/3/36 34/3/34 33/3/33
f 37/4/37 38/4/38 39/4/39
f 37/4/37 40/4/40 38/4/38
f 37/4/37 39/4/39 41/4/41
f 37/4/37 42/4/42 40/4/40
f 37/4/37 41/4/41 43/4/43
f 37/4/37 43/4/43 42/4/42
f 38/4/38 44/4/44 39/4/39
f 38/4/38 40/4/40 45/4/45
f 38/4/38 45/4/45 44/4/44
f 41/4/41 46/4/46 43/4/43
f 41/4/41 39/4/39 47/4/47
f 41/4/41 47/4/47 46/4/46
f 42/4/42 48/4/48 40/4/40
f 42/4/42 43/4/43 49/4/49
f 42/4/42 49/4/49 48/4/48
f 45/4/45 50/4/50 44/4/44
f 39/4/39 51/4/51 47/4/47
f 39/4/39 44/4/44 51/4/51
f 46/4/46 52/4/52 43/4/43
f 46/4/46 47/4/47 53/4/53
f 46/4/46 54/4/54 52/4/52
f 46/4/46 53/4/53 54/4/54
f 43/4/43 52/4/52 49/4/49
f 48/4/48 49/4/49 55/4/55
f 48/4/48 55/4/55 56/4/56
f 50/4/50 57/4/57 44/4/44
f 44/4/44 57/4/57 51/4/51
f 47/4/47 58/4/58 53/4/53
f 47/4/47 51/4/51 58/4/58
f 51/4/51 57/4/57 58/4/58
f 54/4/54 59/4/59 52/4/52
f 54/4/54 53/4/53 60/4/60
f 49/4/49 59/4/59 55/4/55
f 49/4/49 52/4/52 59/4/59
f 53/4/53 58/4/58 60/4/60
f 57/4/57 61/4/61 58/4/58
f 58/4/58 61/4/61 60/4/60
f 55/4/55 59/4/59 62/4/62
f 63/5/63 57/6/57 50/7/50
f 63/5/63 61/7/61 57/6/57
f 63/5/63 50/7/50 64/8/64
f 63/5/63 65/8/65 61/7/61
f 63/5/63 64/8/64 66/9/66
f 63/5/63 66/9/66 65/8/65
f 50/7/50 67/10/67 64/8/64
f 50/7/50 45/11/45 67/10/67
f 61/7/61 65/8/65 68/10/68
f 61/7/61 68/10/68 60/11/60
f 66/9/66 64/8/64 56/12/56
f 66/9/66 62/12/62 65/8/65
f 66/9/66 56/12/56 69/13/69
f 66/9/66 69/13/69 62/12/62
f 62/12/62 68/10/68 65/8/65
f 56/12/56 64/8/64 67/10/67
f 45/11/45 70/14/70 67/10/67
f 60/11/60 68/10/68 71/14/71
f 72/15/72 8/15/8 73/16/73
f 72/15/72 73/16/73 19/17/19
f 72/15/72 19/17/19 20/18/20
f 72/15/72 20/18/20 74/19/74
f 72/15/72 74/19/74 75/20/75
f 8/15/8 9/17/9 73/16/73
f 73/16/73 9/17/9 19/17/19
f 74/19/74 76/21/76 75/20/75
f 76/21/76 17/22/17 75/20/75
f 77/16/77 20/17/20 12/17/12
f 77/16/77 74/15/74 20/17/20
f 77/16/77 12/17/12 11/15/11
f 77/16/77 11/15/11 74/15/74
f 40/23/40 70/23/70 45/23/45
f 40/23/40 48/23/48 70/23/70
f 55/24/55 69/25/69 56/26/56
f 55/24/55 62/26/62 69/25/69
f 54/23/54 71/23/71 59/23/59
f 54/23/54 60/23/60 71/23/71
f 76/27/76 11/27/11 16/27/16
f 76/27/76 74/27/74 11/27/11
f 8/27/8 75/27/75 15/27/15
f 8/27/8 72/27/72 75/27/75
f 78/28/78 14/29/14 17/30/17
f 78/28/78 16/31/16 14/29/14
f 17/30/17 13/29/13 79/28/79
f 13/29/13 15/31/15 79/28/79
f 76/32/76 78/33/78 17/34/17
f 76/32/76 16/35/16 78/33/78
f 17/34/17 79/33/79 75/32/75
f 79/33/79 15/35/15 75/32/75
vt 0.494393 0.989366
vt 0.752994 0.772018
vt 0.00937721 0.772053
vt 1.00618 0.887754
o merged_1_0_node
g polygon_0
usemtl TEX_ANIM_EYE_mat_id
f 59/36/59 68/37/68 62/38/62
f 48/36/48 56/38/56 67/37/67
f 67/37/67 70/39/70 48/36/48
f 59/36/59 71/39/71 68/37/68
