mtllib Cofagrigus.mtl
v 0 0.648277 0.178439
vt 0.75 0.125
vn 0 0.02972041 0.9995583
v 0 0.702055 0.160029
vt 0.75 0.211634
vn 0 0.5938269 0.8045928
v -0.0389694 0.693266 0.158263
vt 0.634428 0.197475
vn -0.4586151 0.4727801 0.7524302
v 0.0389694 0.693266 0.158263
vt 0.865572 0.197475
vn 0.4586151 0.4727801 0.7524302
v -0.045018 0.648277 0.166522
vt 0.61649 0.125
vn -0.5914091 0.04564101 0.805079
v 0.045018 0.648277 0.166522
vt 0.88351 0.125
vn 0.5914091 0.0456411 0.805079
v -0.0389694 0.609665 0.164424
vt 0.634428 0.062799
vn -0.4468417 -0.4475977 0.7745895
v 0.0389694 0.609665 0.164424
vt 0.865572 0.062799
vn 0.4468412 -0.4475982 0.7745894
v 0 0.594499 0.160031
vt 0.75 0.0383657
vn 0 -0.6332051 0.7739841
v -0.0405318 0.714672 0.125
vt 0.629795 0.231959
vn -0.4455421 0.7403091 0.503423
v 0.0405318 0.714672 0.125
vt 0.870205 0.231959
vn 0.4455421 0.7403091 0.503423
v 0 0.72587 0.125
vt 0.75 0.25
vn 0 0.8269777 0.5622348
v -0.0719021 0.620472 0.125
vt 0.53676 0.0802078
vn -0.8096973 -0.2299841 0.5399052
v -0.0719021 0.676081 0.125
vt 0.53676 0.169792
vn -0.8060019 0.207355 0.5544049
v 0.0719021 0.620472 0.125
vt 0.96324 0.0802078
vn 0.8096969 -0.229984 0.539906
v 0.0719021 0.676081 0.125
vt 0.96324 0.169792
vn 0.8060019 0.207355 0.5544049
v -0.0405318 0.581882 0.125
vt 0.629795 0.0180405
vn -0.4545251 -0.7234221 0.5196801
v 0.0405318 0.581882 0.125
vt 0.870205 0.0180405
vn 0.4545251 -0.7234221 0.5196801
v 0 0.570683 0.125
vt 0.75 0
vn 0 -0.8269863 0.5622222
v -0.0429445 0.443334 0.105
vt -0.117385 0.363336
vn -0.603839 -0.183598 0.775674
v -0.0704287 0.467799 0.105
vt -0.204756 0.397857
vn -0.1925889 -0.2163569 0.9571307
v -0.0704287 0.467799 0.00500001
vn -0.6648881 -0.7469431 0
v 0 0.51551 0.105
vt 0 0.467211
vn 0 0 1
v -0.0429445 0.443334 0.005
v 0.0429445 0.443334 0.105
vt 0.117385 0.363336
vn 0.5975329 -0.18168 0.7809909
v 0.04 0.367722 0.105
vt 0.116291 0.25238
vn 0.7661595 -0.3345028 0.5487326
v -0.04 0.367722 0.105
vt -0.116291 0.25238
vn -0.7742248 -0.3380239 0.5350849
v -0.04 0.367722 0.005
vn -0.916461 -0.400124 0
vn -0.9992427 -0.03891208 0
v -0.144805 0.53627 0.105
vt -0.420988 0.497388
v 0.04 0.367722 0.005
vn 0.916461 -0.400124 0
v 0.0704287 0.467799 0.105
vt 0.204756 0.397857
vn 0.1925889 -0.2163569 0.9571307
v 0.0429445 0.443334 0.005
vn 0.9992427 -0.03891198 0
v 0.0704287 0.467799 0.00500001
vn 0.6648881 -0.7469431 0
v 0 0.344972 0.005
vt 0 0.226206
vn 0 -1 0
v 0 0.344972 0.105
vn 0 -0.9564455 0.2919109
v 0.144805 0.53627 0.105
vt 0.420988 0.497388
vt 0.939336 0.0495905
vn 0 0 -1
vt 0.939336 0.0143951
vt 0.923268 0.0169349
vt 0.955404 0.0169349
vt 0.910832 0.0256869
vt 0.96784 0.0256869
vt 0.910832 0.0382987
vt 0.96784 0.0382987
vt 0.923268 0.0470507
vt 0.955404 0.0470507
v 0.264852 0.589324 0.125
vt 0.672023 0.844396
vn 0.8652817 0.1908289 0.4635428
v 0.212289 0.738151 0.125
vt 0.604549 0.997372
vn -0.08027337 0.9836417 0.161261
v 0.160113 0.643839 0.125
vt 0.503334 0.905895
v 0.212289 0.738151 -0.045
vn 0.9429191 0.333022 0
v 0.281855 0.422716 0.125
vt 0.739498 0.69142
vn 0.7282922 -0.5392291 0.4228741
v 0.264852 0.589324 -0.045
vn 0.9765339 0.215364 0
v 0.281855 0.422716 -0.045
vn 0.994833 0.101525 0
v 0.0349344 0.647119 0.125
vt 0.260502 0.909076
vn -0.4559162 0.8882464 0.05620263
v 0.0349344 0.647119 -0.045
vn -0.4566379 0.8896527 0
v 0.139294 0.559645 0.125
vt 0.462948 0.823613
v 0.141495 0.422716 0.125
vt 0.467218 0.69142
vn 0 -0.5315599 0.8470207
v 0.0697516 0.520231 0.125
vt 0.328043 0.786003
v 0.141495 0.422716 -0.045
v 0.0697516 0.358182 0.125
vt 0.328043 0.628825
vn -0.9446343 -0.1870001 0.2696241
v 0.141495 0.358182 0.125
vt 0.467218 0.628825
vn 0.95395 -0.230861 0.191527
v 0.105624 0.339023 0.125
vt 0.397631 0.619756
vn 0 -0.9881983 0.15318
v 0.105624 0.339023 -0.045
v 0.0697516 0.358182 -0.045
vn -0.9837219 -0.179698 -0.000119257
vn -0.9616227 0.2704529 0.04622938
v 0.0698 0.5494 -0.045
vt 0.328137 0.814295
vn -0.9703283 -0.0115776 0.2415141
vn -0.809527 0.504326 0.300535
v 0.141495 0.358182 -0.045
vn 0.9720324 -0.2348471 0
vn -0.7177841 -0.5952191 0.361248
vn 1 0 0
vn -0.6450582 -0.6076901 0.4632631
vn -0.0261884 -0.999657 0
v -0.264852 0.589324 0.125
vn -0.8652814 0.1908291 0.4635432
v -0.160113 0.643839 0.125
v -0.212289 0.738151 0.125
vn 0.08027337 0.9836417 0.161261
v -0.281855 0.422716 0.125
vn -0.7282922 -0.5392291 0.4228741
v -0.212289 0.738151 -0.045
vn -0.9429191 0.333022 0
v -0.281855 0.422716 -0.045
vn -0.994833 0.101525 0
v -0.264852 0.589324 -0.045
vn -0.9765339 0.215364 0
v -0.0349344 0.647119 0.125
vn 0.4559162 0.8882464 0.05620253
v -0.139294 0.559645 0.125
v -0.0349344 0.647119 -0.045
vn 0.4566379 0.8896527 0
v -0.141495 0.422716 0.125
v -0.0697515 0.520231 0.125
v -0.141495 0.422716 -0.045
v -0.0697516 0.358182 0.125
vn 0.9446343 -0.1870001 0.2696241
v -0.141495 0.358182 0.125
vn -0.95395 -0.230861 0.191527
v -0.105624 0.339023 0.125
v -0.105624 0.339023 -0.045
v -0.141495 0.358182 -0.045
vn -0.9720324 -0.2348471 0
vn -1 0 0
v -0.0697516 0.358182 -0.045
vn 0.9837219 -0.179698 -0.00011923
vn 0.9616227 0.2704529 0.04622959
v -0.0698 0.5494 -0.045
vn 0.970328 -0.0115776 0.241515
vn 0.809527 0.504326 0.300535
vn 0.7177841 -0.5952191 0.361248
vn 0.6450579 -0.6076899 0.4632639
vn 0.0261884 -0.999657 0
v 0 0.473704 0.085
vt -0.000111261 0.836342
v -0.174185 0.69184 0.085
vt -0.184468 0.951778
vn -0.5237311 0.2127021 0.8249021
v -0.207264 0.473704 0.085
vt -0.219478 0.836342
vn -0.6824871 -0.0618968 0.7282721
v 0.174185 0.69184 0.085
vt 0.184246 0.951778
vn 0.544706 0.221221 0.8089231
v -0.118662 0.0796269 0.085
vt -0.125702 0.62561
vn -0.5769388 -0.03791839 0.8159067
v 0.207264 0.473704 0.085
vt 0.219256 0.836342
vn 0.6824871 -0.0618968 0.7282721
v 0.118662 0.0796269 0.085
vt 0.12548 0.62561
vn 0.5750382 -0.03606601 0.8173313
v -0.0812144 0.784072 0.085
vt -0.0860683 1.00059
vn -0.1838811 0.8330103 0.5218062
v -0.123422 7.47204E-05 0.11841
vt -0.130741 0.609695
vn -0.127862 -0.9725591 0.194371
v 0.0812144 0.784072 0.085
vt 0.0858457 1.00059
vn 0.205919 0.9328479 0.295622
v 0.123422 7.47204E-05 0.11841
vt 0.130519 0.609703
vn 0.128024 -0.9712707 0.2006069
v 0.123422 7.47204E-05 -0.085
vt 0.130519 0.501581
vn 0.1418269 -0.9898915 0
v -0.123422 7.47204E-05 -0.085
vt -0.130741 0.501581
vn -0.1418269 -0.9898915 0
vt 0.167962 0.591239
v 0.118662 0.0796269 -0.085
vt 0.167962 0.501581
vt 0.568593 0.591239
v 0.207264 0.473704 -0.085
vt 0.568593 0.501581
vn 0.9959126 -0.09032236 0
vt 1.249 0.811436
v -0.207264 0.473704 -0.085
vt 0.751004 0.811436
v -0.174185 0.69184 -0.085
vt 0.790743 0.942464
v -0.118662 0.0796269 -0.085
vt 0.857446 0.56278
v 0.174185 0.69184 -0.085
vt 1.20926 0.942464
vt 1.14255 0.56278
v -0.0812144 0.784072 -0.085
vt 0.902433 0.997866
vt 1.14827 0.514995
v 0.0812144 0.784072 -0.085
vt 1.09757 0.997866
vt 0.851726 0.514995
vt 0.202039 0.971739
vt 0.202039 0.934832
vt 0.230801 0.934832
vt 0.230801 0.971739
vn 0.9265056 0.3762808 0
vt 0.230801 0.987344
vn 0.215553 0.9764922 0
vt 0.202039 0.987344
vn -0.215553 0.9764922 0
vn -0.9265056 0.3762808 0
vn -0.9959126 -0.09032236 0
v -0.0843734 0.845844 0.125
vt 0.266962 0.682261
vn 0 0.8116546 0.5841377
v -0.0352735 0.642619 0.125
vt 0.276112 0.644386
v 0.0352735 0.642619 0.125
vt 0.28926 0.644386
v 0.0843734 0.845844 0.125
vt 0.298411 0.682261
v -0.0843734 0.845844 -0.045
vn 0 1 0
v 0.0843734 0.845844 -0.045
v -0.0352735 0.642619 -0.045
v 0.0352735 0.642619 -0.045
o merged_0_0_node
g polygon_0
usemtl mat_body_mat_id
f 1/1/1 2/2/2 3/3/3
f 1/1/1 4/4/4 2/2/2
f 1/1/1 3/3/3 5/5/5
f 1/1/1 6/6/6 4/4/4
f 1/1/1 5/5/5 7/7/7
f 1/1/1 8/8/8 6/6/6
f 1/1/1 7/7/7 9/9/9
f 1/1/1 9/9/9 8/8/8
f 2/2/2 10/10/10 3/3/3
f 2/2/2 4/4/4 11/11/11
f 2/2/2 12/12/12 10/10/10
f 2/2/2 11/11/11 12/12/12
f 5/5/5 13/13/13 7/7/7
f 5/5/5 3/3/3 14/14/14
f 5/5/5 14/14/14 13/13/13
f 14/14/14 3/3/3 10/10/10
f 6/6/6 8/8/8 15/15/15
f 6/6/6 16/16/16 4/4/4
f 6/6/6 15/15/15 16/16/16
f 16/16/16 11/11/11 4/4/4
f 9/9/9 7/7/7 17/17/17
f 9/9/9 18/18/18 8/8/8
f 9/9/9 17/17/17 19/19/19
f 9/9/9 19/19/19 18/18/18
f 18/18/18 15/15/15 8/8/8
f 17/17/17 7/7/7 13/13/13
f 20/20/20 21/21/21 22/21/22
f 20/20/20 23/22/23 21/21/21
f 20/20/20 22/21/22 24/20/22
f 20/20/20 25/23/24 23/22/23
f 20/20/20 26/24/25 25/23/24
f 20/20/20 27/25/26 26/24/25
f 20/20/20 28/25/27 27/25/26
f 20/20/20 24/20/28 28/25/27
f 21/21/21 23/22/23 29/26/23
f 25/23/24 26/24/25 30/24/29
f 25/23/24 31/27/30 23/22/23
f 25/23/24 30/24/29 32/23/31
f 25/23/24 33/27/32 31/27/30
f 25/23/24 32/23/32 33/27/32
f 27/25/26 28/25/27 34/28/33
f 27/25/26 35/28/34 26/24/25
f 27/25/26 34/28/33 35/28/34
f 34/28/33 30/24/29 26/24/25
f 34/28/33 26/24/25 35/28/34
f 23/22/23 31/27/30 36/29/23
f 12/30/35 19/31/35 17/32/35
f 12/30/35 18/33/35 19/31/35
f 12/30/35 17/32/35 13/34/35
f 12/30/35 15/35/35 18/33/35
f 12/30/35 13/34/35 14/36/35
f 12/30/35 16/37/35 15/35/35
f 12/30/35 14/36/35 10/38/35
f 12/30/35 11/39/35 16/37/35
f 37/40/36 38/41/37 39/42/23
f 37/40/36 40/41/38 38/41/37
f 37/40/36 39/42/23 41/43/39
f 37/40/36 42/40/40 40/41/38
f 37/40/36 41/43/39 43/43/41
f 37/40/36 43/43/41 42/40/40
f 38/41/37 44/44/42 39/42/23
f 38/41/37 45/44/43 44/44/42
f 38/41/37 40/41/43 45/44/43
f 41/43/39 39/42/23 46/45/23
f 41/43/39 46/45/23 47/46/44
f 41/43/39 47/46/44 43/43/33
f 46/45/23 48/47/23 47/46/44
f 43/43/33 47/46/44 49/46/33
f 48/47/23 50/48/45 47/46/44
f 50/48/45 51/49/46 47/46/44
f 50/48/45 52/50/47 51/49/46
f 50/48/45 53/50/33 52/50/47
f 50/48/45 54/48/48 53/50/33
f 50/48/45 48/47/49 54/48/48
f 52/50/47 53/50/33 51/49/46
f 48/47/49 55/51/50 54/48/48
f 48/47/49 46/45/51 55/51/50
f 53/50/33 56/49/52 51/49/46
f 46/45/51 39/42/53 55/51/50
f 56/49/52 47/46/54 51/49/46
f 56/49/52 49/46/54 47/46/54
f 39/42/53 45/44/55 55/51/50
f 39/42/53 44/44/56 45/44/55
f 57/40/57 58/42/23 59/41/58
f 57/40/57 60/43/59 58/42/23
f 57/40/57 59/41/58 61/41/60
f 57/40/57 62/43/61 60/43/59
f 57/40/57 61/41/60 63/40/62
f 57/40/57 63/40/62 62/43/61
f 58/42/23 64/44/63 59/41/58
f 58/42/23 60/43/59 65/45/23
f 64/44/63 66/44/64 59/41/58
f 60/43/59 67/46/44 65/45/23
f 60/43/59 62/43/33 67/46/44
f 66/44/64 61/41/64 59/41/58
f 65/45/23 67/46/44 68/47/23
f 62/43/33 69/46/33 67/46/44
f 68/47/23 67/46/44 70/48/65
f 67/46/44 71/49/66 70/48/65
f 71/49/66 72/50/47 70/48/65
f 71/49/66 73/50/33 72/50/47
f 71/49/66 74/49/67 73/50/33
f 71/49/66 67/46/68 74/49/67
f 72/50/47 73/50/33 70/48/65
f 67/46/68 69/46/68 74/49/67
f 73/50/33 75/48/69 70/48/65
f 75/48/69 68/47/70 70/48/65
f 75/48/69 76/51/71 68/47/70
f 76/51/71 65/45/72 68/47/70
f 76/51/71 58/42/73 65/45/72
f 76/51/71 66/44/74 58/42/73
f 66/44/74 64/44/75 58/42/73
f 77/52/23 78/53/76 79/54/77
f 77/52/23 80/55/78 78/53/76
f 77/52/23 79/54/77 81/56/79
f 77/52/23 82/57/80 80/55/78
f 77/52/23 81/56/79 83/58/81
f 77/52/23 83/58/81 82/57/80
f 78/53/76 80/55/78 84/59/82
f 81/56/79 85/60/83 83/58/81
f 80/55/78 86/61/84 84/59/82
f 85/60/83 87/62/85 83/58/81
f 85/60/83 88/63/86 87/62/85
f 85/60/83 89/64/87 88/63/86
f 87/62/85 88/63/86 83/65/81
f 88/63/86 90/66/69 83/65/81
f 90/66/69 82/67/80 83/65/81
f 90/66/69 91/68/88 82/67/80
f 91/69/35 92/70/35 93/71/35
f 91/69/35 94/72/35 92/70/35
f 91/69/35 93/71/35 95/73/35
f 91/69/35 90/74/35 94/72/35
f 93/71/35 96/75/35 95/73/35
f 90/74/35 88/76/35 94/72/35
f 96/75/35 97/77/35 95/73/35
f 88/76/35 89/78/35 94/72/35
f 80/79/78 82/80/80 91/81/88
f 80/79/78 91/81/88 95/82/89
f 80/79/78 95/82/89 97/83/90
f 80/79/78 97/83/90 86/84/84
f 97/83/90 96/83/91 86/84/84
f 96/83/91 84/84/82 86/84/84
f 96/83/91 93/82/92 84/84/82
f 93/82/92 78/79/76 84/84/82
f 93/82/92 92/81/93 78/79/76
f 92/81/93 79/80/77 78/79/76
f 98/85/94 99/86/23 100/87/23
f 98/85/94 100/87/23 101/88/94
f 98/85/94 101/88/94 102/85/95
f 101/88/94 103/88/95 102/85/95
f 49/46/35 42/40/35 43/43/35
f 49/46/35 40/41/35 42/40/35
f 49/46/35 55/51/35 40/41/35
f 55/51/35 45/44/35 40/41/35
f 69/46/35 62/43/35 63/40/35
f 69/46/35 63/40/35 61/41/35
f 69/46/35 61/41/35 76/51/35
f 61/41/35 66/44/35 76/51/35
f 94/66/48 79/67/77 92/68/93
f 94/66/48 81/65/79 79/67/77
f 94/66/48 89/63/87 81/65/79
f 89/63/87 85/62/83 81/65/79
f 103/88/35 104/86/35 102/85/35
f 103/88/35 105/87/35 104/86/35
f 105/87/33 99/86/33 104/86/33
f 105/87/33 100/87/33 99/86/33
f 105/87/52 101/88/52 100/87/52
f 105/87/52 103/88/52 101/88/52
f 99/86/67 102/85/67 104/86/67
f 99/86/67 98/85/67 102/85/67
v 0.144805 0.647277 0.105
vt 1 0.988745
vt 0 0.761255
vt 1 0.797095
v -0.144805 0.647277 0.105
v 0 0.647277 0.105
vt 0 0.988745
o merged_1_0_node
g polygon_0
usemtl TEX_ANIM_EYE_mat_id
f 106/89/54 23/90/54 36/91/54
f 107/89/54 23/90/54 108/92/54
f 23/90/54 106/89/54 108/92/54
f 29/91/54 23/90/54 107/89/54
