ply
format ascii 1.0
element vertex 186
property float x
property float y
property float z
property uchar red
property uchar green
property uchar blue
element face 258
property list uchar int vertex_index
end_header
-0.20226 -0.75283 0.71832 35 34 33
-0.25537 -0.75283 0.71832 35 34 33
-0.25537 -0.7767 0.80743 35 34 33
-0.20226 -0.76751 0.77311 35 34 33
-0.20226 -0.73853 0.72216 35 34 33
-0.25537 -0.73853 0.72216 35 34 33
-0.25537 -0.7624 0.81126 35 34 33
-0.20226 -0.75321 0.77694 35 34 33
-0.44754 -0.8659 1.06383 64 144 222
0 -0.8659 1.06383 64 144 222
-0.37604 -0.85432 1.02064 64 144 222
-0.44754 -0.82559 0.91342 64 144 222
-0.04125 -0.80251 0.82726 64 144 222
-0.0686 -0.80252 0.82731 64 144 222
-0.54652 -0.81915 1.07636 64 144 222
-0.51002 -0.79605 1.14373 64 144 222
-0.40615 -0.84474 1.13068 64 144 222
-0.59672 -0.7218 1.10244 64 144 222
-0.54652 -0.68408 0.57227 64 144 222
-0.59672 -0.58673 0.59835 64 144 222
-0.59672 0.27785 0.83002 64 144 222
-0.59672 0.14278 1.3341 64 144 222
-0.55898 -0.69712 1.17024 64 144 222
0.40615 -0.84474 1.13068 64 144 222
0.44754 -0.8659 1.06383 64 144 222
0.37604 -0.85432 1.02064 64 144 222
0.44754 -0.82559 0.91342 64 144 222
0.51002 -0.79605 1.14373 64 144 222
0.54652 -0.81915 1.07636 64 144 222
0.59672 -0.7218 1.10244 64 144 222
0.54652 -0.68408 0.57227 64 144 222
0.59672 -0.58673 0.59835 64 144 222
0.59672 0.27785 0.83002 64 144 222
0.59672 0.14278 1.3341 64 144 222
0.55898 -0.69712 1.17024 64 144 222
0.0686 -0.80252 0.82731 64 144 222
0 -0.8025 0.82722 64 144 222
0.04149 -0.78862 0.77543 64 144 222
0.06848 -0.78863 0.77546 64 144 222
0.09546 -0.76551 0.6892 64 144 222
-0.04173 -0.76551 0.6892 64 144 222
0 -0.76551 0.6892 64 144 222
0 -0.73083 0.55974 64 144 222
0.06835 -0.76551 0.6892 64 144 222
0.04173 -0.76551 0.6892 64 144 222
0.44754 -0.73083 0.55974 64 144 222
0.41667 -0.76551 0.6892 64 144 222
0.41667 -0.82028 0.8936 64 144 222
0.41667 -0.7884 0.90214 64 144 222
0.41667 -0.73363 0.69774 64 144 222
0.09546 -0.73363 0.69774 64 144 222
0.44754 -0.86031 0.90415 64 144 222
-0.06835 -0.76551 0.6892 64 144 222
-0.09546 -0.76551 0.6892 64 144 222
-0.44754 -0.73083 0.55974 64 144 222
-0.41667 -0.76551 0.6892 64 144 222
-0.41667 -0.82028 0.8936 64 144 222
-0.41667 -0.7884 0.90214 64 144 222
-0.41667 -0.73363 0.69774 64 144 222
-0.09546 -0.73363 0.69774 64 144 222
-0.44748 -0.86035 0.90429 64 144 222
-0.09546 -0.80022 0.6799 64 144 222
-0.37604 -0.88903 1.01134 64 144 222
-0.0686 -0.83723 0.81801 64 144 222
-0.41667 -0.73363 0.69774 234 235 238
-0.41667 -0.7884 0.90214 234 235 238
-0.09546 -0.73363 0.69774 234 235 238
-0.37604 -0.88903 1.01134 67 149 232
-0.37604 -0.85432 1.02064 67 149 232
-0.0686 -0.80252 0.82731 67 149 232
-0.0686 -0.83723 0.81801 67 149 232
-0.06835 -0.76551 0.6892 60 135 209
-0.0686 -0.80252 0.82731 60 135 209
-0.04125 -0.80251 0.82726 60 135 209
-0.04173 -0.76551 0.6892 60 135 209
0.20226 -0.75283 0.71832 35 34 33
0.20226 -0.76751 0.77311 35 34 33
0.25537 -0.7767 0.80743 35 34 33
0.25537 -0.75283 0.71832 35 34 33
0.20226 -0.73853 0.72216 35 34 33
0.25537 -0.73853 0.72216 35 34 33
0.25537 -0.7624 0.81126 35 34 33
0.20226 -0.75321 0.77694 35 34 33
0.41667 -0.73363 0.69774 234 235 238
0.09546 -0.73363 0.69774 234 235 238
0.41667 -0.7884 0.90214 234 235 238
0.37604 -0.88903 1.01134 64 144 222
0.09546 -0.80022 0.6799 64 144 222
0.0686 -0.83723 0.81801 64 144 222
0.37604 -0.88903 1.01134 67 149 232
0.0686 -0.83723 0.81801 67 149 232
0.0686 -0.80252 0.82731 67 149 232
0.37604 -0.85432 1.02064 67 149 232
0.44754 -0.59421 0.04989 234 235 238
0.41422 -0.55428 0.00786 234 235 238
-0.41422 -0.55428 0.00786 234 235 238
-0.44754 -0.59421 0.04989 234 235 238
0.54652 -0.54746 0.06241 234 235 238
0.54652 -0.68408 0.57227 234 235 238
0.44754 -0.73083 0.55974 234 235 238
0.5193 -0.505 0.02106 234 235 238
0.59672 -0.45011 0.0885 234 235 238
0.56902 -0.40475 0.04792 234 235 238
0.59672 -0.58673 0.59835 234 235 238
0.59672 0.41446 0.32016 234 235 238
0.59672 0.27785 0.83002 234 235 238
-0.5193 -0.505 0.02106 234 235 238
-0.54652 -0.54746 0.06241 234 235 238
-0.54652 -0.68408 0.57227 234 235 238
-0.44754 -0.73083 0.55974 234 235 238
-0.56902 -0.40475 0.04792 234 235 238
-0.59672 -0.45011 0.0885 234 235 238
-0.59672 -0.58673 0.59835 234 235 238
-0.59672 0.41446 0.32016 234 235 238
-0.59672 0.27785 0.83002 234 235 238
0.49338 -0.47359 0.01056 234 235 238
0.38702 -0.52328 -0.00276 234 235 238
6.10617E-19 9E-05 0.13748 234 235 238
0.54182 -0.37374 0.03731 234 235 238
0.54182 0.37392 0.23765 234 235 238
-0.38702 -0.52328 -0.00276 234 235 238
-0.49338 -0.47359 0.01056 234 235 238
-0.54182 -0.37374 0.03731 234 235 238
-0.54182 0.37392 0.23765 234 235 238
-0.49338 0.47376 0.2644 234 235 238
-0.38702 0.52345 0.27771 234 235 238
0.38702 0.52345 0.27771 234 235 238
0.41422 0.54499 0.30241 234 235 238
-0.41422 0.54499 0.30241 234 235 238
-0.44754 0.55856 0.35877 234 235 238
0.44754 0.55856 0.35877 234 235 238
-0.54652 0.51181 0.34624 234 235 238
-0.54652 0.37519 0.8561 234 235 238
-0.44754 0.42194 0.86863 234 235 238
-0.5193 0.49572 0.2892 234 235 238
-0.56902 0.39546 0.26234 234 235 238
0.44754 0.42194 0.86863 234 235 238
0.54652 0.37519 0.8561 234 235 238
0.54652 0.51181 0.34624 234 235 238
0.5193 0.49572 0.2892 234 235 238
0.56902 0.39546 0.26234 234 235 238
0.49338 0.47376 0.2644 234 235 238
0.48708 -0.77656 1.16545 67 149 232
0.53491 -0.67799 1.19186 67 149 232
0.55898 -0.69712 1.17024 67 149 232
0.51002 -0.79605 1.14373 67 149 232
0.53491 0.06012 1.38964 67 149 232
0.55898 0.0875 1.38048 67 149 232
6.0282E-19 -0.30893 1.29075 67 149 232
0.40615 -0.84474 1.13068 67 149 232
0.38208 -0.82561 1.15231 67 149 232
-0.38208 -0.82561 1.15231 67 149 232
-0.40615 -0.84474 1.13068 67 149 232
-0.51002 -0.79605 1.14373 67 149 232
-0.48708 -0.77656 1.16545 67 149 232
-0.55898 -0.69712 1.17024 67 149 232
-0.53491 -0.67799 1.19186 67 149 232
-0.53491 0.06012 1.38964 67 149 232
-0.55898 0.0875 1.38048 67 149 232
-0.48708 0.15869 1.41605 67 149 232
-0.51002 0.18644 1.40699 67 149 232
-0.38208 0.20775 1.4292 67 149 232
0.38208 0.20775 1.4292 67 149 232
0.48708 0.15869 1.41605 67 149 232
0.51002 0.18644 1.40699 67 149 232
-0.40615 0.23513 1.42003 67 149 232
0.40615 0.23513 1.42003 67 149 232
-0.44754 0.28687 1.37271 64 144 222
-0.40615 0.23513 1.42003 64 144 222
-0.51002 0.18644 1.40699 64 144 222
-0.54652 0.24012 1.36019 64 144 222
0.44754 0.28687 1.37271 64 144 222
-0.44754 0.42194 0.86863 64 144 222
0.44754 0.42194 0.86863 64 144 222
0.40615 0.23513 1.42003 64 144 222
-0.54652 0.37519 0.8561 64 144 222
0.51002 0.18644 1.40699 64 144 222
0.54652 0.24012 1.36019 64 144 222
0.54652 0.37519 0.8561 64 144 222
-0.55898 0.0875 1.38048 64 144 222
0.55898 0.0875 1.38048 64 144 222
0 -0.73083 0.55974 234 235 238
0.06835 -0.76551 0.6892 60 135 209
0.04173 -0.76551 0.6892 60 135 209
0.04149 -0.78862 0.77543 60 135 209
0.06848 -0.78863 0.77546 60 135 209
3 0 2 1
3 0 3 2
3 4 0 1
3 4 3 0
3 4 1 5
3 1 6 5
3 1 2 6
3 4 7 3
3 8 10 9
3 8 11 10
3 10 12 9
3 10 13 12
3 14 11 8
3 15 14 8
3 15 8 16
3 8 9 16
3 15 17 14
3 17 18 14
3 18 11 14
3 17 19 18
3 17 20 19
3 17 21 20
3 15 22 17
3 16 9 23
3 23 9 24
3 24 9 25
3 24 25 26
3 24 27 23
3 24 28 27
3 26 28 24
3 29 27 28
3 29 28 30
3 30 28 26
3 29 30 31
3 29 31 32
3 29 32 33
3 29 34 27
3 9 35 25
3 9 36 35
3 37 35 36
3 37 38 35
3 35 38 39
3 9 12 36
3 40 36 12
3 40 41 36
3 37 36 41
3 42 41 40
3 42 39 43
3 39 38 43
3 42 43 44
3 44 37 41
3 42 44 41
3 45 39 42
3 45 46 39
3 45 26 46
3 46 26 47
3 46 47 48
3 46 48 49
3 47 50 48
3 47 39 50
3 47 26 51
3 42 40 52
3 42 52 53
3 54 42 53
3 54 53 55
3 54 55 11
3 55 56 11
3 55 57 56
3 55 58 57
3 56 59 53
3 56 57 59
3 53 60 56
3 56 60 11
3 53 61 60
3 62 60 61
3 62 61 63
3 13 61 53
3 13 63 61
3 13 53 52
3 18 54 11
3 11 62 10
3 11 60 62
3 64 66 65
3 53 58 55
3 53 59 58
3 67 69 68
3 67 70 69
3 71 73 72
3 71 74 73
3 75 77 76
3 75 78 77
3 79 78 75
3 79 75 76
3 79 80 78
3 78 81 77
3 78 80 81
3 79 76 82
3 83 85 84
3 86 87 51
3 86 88 87
3 35 87 88
3 35 39 87
3 39 51 87
3 39 47 51
3 26 86 51
3 26 25 86
3 39 49 50
3 39 46 49
3 89 91 90
3 89 92 91
3 93 95 94
3 93 96 95
3 97 93 94
3 93 97 98
3 93 98 99
3 97 94 100
3 101 97 100
3 98 97 101
3 101 100 102
3 98 101 103
3 103 101 104
3 103 104 105
3 96 106 95
3 96 107 106
3 96 108 107
3 96 109 108
3 107 110 106
3 107 111 110
3 108 111 107
3 108 112 111
3 112 113 111
3 112 114 113
3 102 100 115
3 100 116 115
3 116 117 115
3 115 117 118
3 118 117 119
3 117 116 120
3 120 121 117
3 121 122 117
3 122 123 117
3 116 95 120
3 95 121 120
3 116 94 95
3 100 94 116
3 102 115 118
3 95 106 121
3 106 122 121
3 106 110 122
3 124 117 123
3 125 117 124
3 117 125 126
3 125 127 126
3 125 128 127
3 129 127 128
3 129 130 127
3 131 129 128
3 129 131 132
3 129 132 133
3 131 128 134
3 134 125 124
3 134 128 125
3 113 131 134
3 132 131 113
3 113 134 135
3 135 124 123
3 135 134 124
3 129 136 130
3 129 133 136
3 132 113 114
3 130 136 137
3 130 137 138
3 130 139 127
3 130 138 139
3 138 140 139
3 138 104 140
3 137 104 138
3 137 105 104
3 139 140 119
3 102 119 140
3 102 118 119
3 139 119 141
3 141 119 117
3 126 141 117
3 127 141 126
3 127 139 141
3 104 102 140
3 104 101 102
3 142 144 143
3 142 145 144
3 144 146 143
3 144 147 146
3 143 146 148
3 149 145 142
3 149 142 150
3 149 150 151
3 149 151 152
3 153 152 151
3 153 151 154
3 154 155 153
3 154 156 155
3 155 156 157
3 155 157 158
3 150 148 151
3 142 148 150
3 148 142 143
3 154 151 148
3 148 156 154
3 156 148 157
3 148 159 157
3 159 158 157
3 159 160 158
3 159 148 161
3 161 148 162
3 163 162 148
3 148 146 163
3 163 146 147
3 163 147 164
3 164 162 163
3 165 159 161
3 165 160 159
3 165 161 162
3 165 162 166
3 164 166 162
3 167 169 168
3 167 170 169
3 171 167 168
3 172 167 171
3 172 171 173
3 171 168 174
3 175 167 172
3 175 170 167
3 21 170 175
3 21 169 170
3 21 175 20
3 176 171 174
3 176 177 171
3 178 171 177
3 178 173 171
3 33 178 177
3 176 33 177
3 33 32 178
3 21 179 169
3 17 179 21
3 17 22 179
3 176 180 33
3 33 180 34
3 33 34 29
3 111 135 110
3 111 113 135
3 110 135 123
3 110 123 122
3 96 181 109
3 93 181 96
3 93 99 181
3 182 184 183
3 182 185 184
3 30 26 45
