mtllib Aegislash_Hoko.mtl
v 0 1.20936 -0.0701205
vt 0 0.375835
vn 0 0.9961947 -0.08715568
v 0.0551654 0.900839 -0.139043
vt 0.0689568 -0.000834942
vn 0.4695182 0.2716321 -0.8401004
v -0.0551654 0.900839 -0.139043
vt -0.0689569 -0.000834942
vn -0.4695178 0.2716319 -0.8401007
v 0.110331 0.909167 -0.0438573
vt 0.137914 -0.000834942
vn 0.9390362 0.3425101 -0.02996561
v -0.110331 0.909167 -0.0438573
vt -0.137914 -0.000834942
vn -0.9390362 0.3425101 -0.0299658
v 0.0551654 0.917495 0.0513284
vn 0.4695181 0.4133871 0.7801691
v -0.0551654 0.917495 0.0513284
vn -0.4695181 0.4133871 0.7801691
v 0.561128 0.561648 0.221471
vt 0.604019 0.905697
vn 0.8912857 0.2801999 0.3565078
v 0.582065 0.390401 0.0973454
vt 0.803741 0.995387
vn 0.8888749 -0.36684 -0.274463
v 0.582065 0.575679 0.0811357
vt 0.571258 0.995387
vn 0.8888804 0.3136361 -0.3339522
v 0.561128 0.428389 0.23313
vt 0.771229 0.905697
vn 0.8913139 -0.21426 0.399565
v 0.471379 0.721547 0.113723
vt 0.393167 0.84595
vn 0.4823762 0.8493603 -0.2142431
v 0.418077 0.506855 0.362587
vt 0.687624 0.654403
vn 0.3778868 0.08069327 0.9223286
v 0.481519 0.666562 0.244909
vt 0.475929 0.798217
vn 0.5959389 0.6693919 0.443589
v 0.471379 0.252407 0.154767
vt 0.981833 0.84595
vn 0.4823497 -0.8736665 -0.06360467
v 0.481519 0.329139 0.27443
vt 0.899319 0.798217
vn 0.5958979 -0.582642 0.5526609
v 0 0.863997 -0.0377477
vt 0.593191 0.297973
v 0.0789875 0.856367 -0.124961
vt 0.59714 0.297973
v -0.0789875 0.856367 -0.124961
vt 0.589241 0.297973
v 0.14055 0.863997 -0.0377477
vt 0.600218 0.297973
v -0.14055 0.863997 -0.0377477
vt 0.586163 0.297973
v 0.0789875 0.867608 0.00352591
v -0.0789875 0.867608 0.00352591
v 0.222603 0.858555 -0.0394293
vt 0.599542 0.220471
vn 0.90798 -0.417419 0.0365195
v 0.180515 0.875004 -0.0920798
vt 0.597438 0.22152
vn 0.669434 -0.362546 -0.648397
v 0.226586 0.971544 -0.0493146
vt 0.599741 0.226143
vn 0.999384 -0.0349605 0.00305864
v 0.152271 0.82299 -0.0363178
vt 0.596025 0.218686
vn 0.4526329 -0.8883038 0.07771649
v 0.180515 0.883896 0.00956496
vn 0.6694337 -0.2444459 0.7015017
v -0.222603 0.858555 -0.0394293
vt 0.577282 0.220471
vn -0.9041606 -0.4255673 0.03723232
v -0.226586 0.971544 -0.0493146
vt 0.577083 0.226142
vn -0.999384 -0.0349598 0.00305859
v -0.180515 0.875003 -0.0920797
vt 0.579386 0.22152
vn -0.669434 -0.362546 -0.648397
v -0.180515 0.883896 0.00956497
vn -0.6694337 -0.2444459 0.7015017
v -0.152271 0.822989 -0.0363178
vt 0.580798 0.218686
vn -0.4526321 -0.8883042 0.07771651
vt 1.28756 0.191522
v 0.3018 0.226266 0.226532
vt 1.32793 -0.037428
vn -0.140482 -0.969681 0.199959
v 0.152675 0.32421 0.279062
vt 1.21169 -0.238764
vn -0.6881787 -0.6099507 0.3928998
v 0.152675 0.672419 0.248597
vt 0.774769 -0.238764
vn -0.6881312 0.6689312 0.2810811
vt 0.698898 0.191522
vt 1.10947 0.340959
v 0.0937803 0.500409 0.287776
vt 0.993231 -0.318277
vn -0.9044591 0.0371918 0.4249361
vt 0.87699 0.340959
v 0.3018 0.759753 0.179858
vt 0.658528 -0.037428
vn -0.140429 0.9896761 0.0286505
v 0.27404 0.460626 0.116095
vt 0.650894 0.285286
vn -0.353332 -0.08153401 -0.9319382
v 0.165101 0.612736 0.166587
vt 0.643537 0.279042
vn -0.477885 0.410186 -0.7767711
v 0.281011 0.633482 0.127238
vt 0.642332 0.285114
vn -0.352466 0.269468 -0.896189
v 0.204228 0.46311 0.14448
vt 0.650894 0.281515
vn -0.3778868 -0.08069327 -0.9223286
v 0.165101 0.319596 0.192233
vt 0.65825 0.279042
vn -0.4778852 -0.5388392 -0.6937422
v 0.281011 0.292331 0.157085
vt 0.659455 0.285114
vn -0.352466 -0.4209961 -0.8357811
v 0.3018 0.734892 0.179876
vt 0.637511 0.284918
v 0.3018 0.201603 0.226532
vt 0.664277 0.284918
v 0.152675 0.647558 0.248615
vt 0.64216 0.276865
v 0.152675 0.299547 0.279062
vt 0.659627 0.276865
v -0.0648303 0.752779 0.0129615
vt 0.589949 0.292212
vn -0.5799721 0.09316861 0.8092911
v -0.166619 0.27091 0.0141407
vt 0.58486 0.268205
vn -0.5621657 0.1207529 0.8181616
v -0.0872578 0.260586 0.0461623
vt 0.588828 0.267551
v -0.0896537 0.750956 -0.0278579
vt 0.588708 0.292299
vn -0.5938292 0.08068582 0.8005353
vn -0.6170452 -0.06243162 0.7844473
vn -0.5568511 -0.0004019591 0.8306122
v 0.0648303 0.745663 -0.0683737
vt 0.596432 0.292212
vn 0.641709 -0.117249 -0.7579329
v 0.164915 0.27091 0.0141407
vt 0.601436 0.268205
vn 0.5682261 -0.0231719 -0.8225461
v 0.087178 0.255182 -0.0156017
vt 0.597549 0.267551
v 0.0896537 0.750956 -0.0278579
vt 0.597673 0.292299
vn 0.7851252 -0.3747711 -0.4930771
v 0.05692 0.182934 0.0117994
vt 0.596037 0.263833
vn 0.3926658 -0.4653148 -0.7932816
v 7.73844E-05 0.168315 -0.00776197
vt 0.593194 0.26319
v 0.0475395 0.153981 0.0243707
vt 0.595568 0.262336
v 0.117471 0.243177 0.00652884
vt 0.599064 0.266857
v 0.0961964 0.202452 0.02013
vt 0.598 0.264769
v -0.00191254 0.105006 0.0286554
vt 0.593095 0.259878
v 0.0648302 0.752779 0.0129615
vn 0.5855811 0.09221071 0.8053521
vn 0.6170452 -0.06243152 0.7844473
vn 0.5568511 -0.0004018841 0.8306122
vn 0.5995731 0.07954561 0.7963571
vn 0.568227 0.120014 0.814073
v 0.0871781 0.260586 0.0461623
vn 0 -0.9961947 0.08715587
v 0.0990691 0.901091 -0.162641
vt 0.600944 0.215548
vn 0.3712148 -0.4344218 -0.8206566
v 0.0800189 0.82959 -0.133408
vt 0.599992 0.211859
vn 0.3273941 -0.4310071 -0.8408602
v -0.0800188 0.82959 -0.133408
vt 0.59199 0.211859
vn -0.3273938 -0.4310067 -0.8408605
v 0.160038 0.837969 -0.0376283
vt 0.603993 0.211859
vn 0.8910152 -0.4522461 0.03956641
v -0.099069 0.901091 -0.162641
vt 0.591038 0.215548
vn -0.371214 -0.4344219 -0.8206569
v 0.198138 0.911465 -0.0440584
vt 0.605898 0.215548
v -0.160038 0.837969 -0.0376283
vt 0.587989 0.211859
vn -0.8885117 -0.4571078 0.03999149
v 0.099069 0.92184 0.0745238
vn 0.3712139 -0.2853169 0.8836257
v -0.198138 0.911465 -0.0440584
vt 0.586084 0.215548
v -0.099069 0.92184 0.0745238
vn -0.3712148 -0.2853168 0.8836254
v -0.0800188 0.846349 0.0581514
vn -0.3273942 -0.2784451 0.9029294
v 0.0800188 0.846349 0.0581514
vn 0.3273942 -0.2784451 0.9029294
v -0.397162 0.732785 -0.0570658
vt 0.578973 0.150157
vn 0.0308845 -0.0619701 -0.9976
v -0.481797 0.7300791 -0.0568291
vt 0.574741 0.150021
vn 0.0238989 -0.0197059 -0.9995201
v -0.196471 0.893756 -0.0684045
vt 0.588836 0.158224
vn -0.0284517 0.0976503 -0.994814
v -0.499924 0.607877 -0.0571698
vt 0.58727 0.140705
vn 0.03438579 -0.113149 -0.9929828
v -0.184006 0.871275 -0.0383844
vt 0.589459 0.156973
vn 0.6064188 -0.7921197 0.06930118
v -0.40073 0.583781 -0.0488369
vt 0.590254 0.14582
v -0.208936 0.921109 -0.0427444
vt 0.588213 0.159475
vn -0.621285 0.7806029 -0.0682937
vt 0.57562 0.148648
vn -0.009470281 -0.12293 0.9923702
v -0.196471 0.898628 -0.0127243
vt 0.585483 0.156715
vn -0.203678 0.163496 0.9652898
vt 0.571388 0.148512
vn -0.0462261 0.007734951 0.9989011
vt 0.586106 0.155464
vt 0.583917 0.139197
vn -0.03438569 0.113149 0.9929828
vt 0.586901 0.144311
vt 0.58486 0.157965
v 0.537656 0.715186 -0.0405879
vt 0.606148 0.155553
vn -0.4127319 -0.5518208 -0.7246698
v 0.196471 0.893756 -0.0684044
vt 0.592053 0.163757
vn 0.069373 -0.049052 -0.9963841
v 0.208936 0.921109 -0.0427442
vt 0.592676 0.165007
vn 0.621285 0.780603 -0.0682935
v 0.463193 0.721398 -0.00074929
vt 0.601916 0.155689
vn -0.4216809 -0.602127 -0.677959
v 0.414634 0.665541 0.06202981
vt 0.590635 0.151352
vn -0.4340082 -0.2877501 -0.8537194
v 0.44161 0.570946 0.0968857
vt 0.593619 0.146238
vn -0.4230581 -0.2484951 -0.8713622
v 0.184006 0.871274 -0.0383844
vt 0.59143 0.162506
vn -0.6064188 -0.7921197 0.06930108
v 0.157461 0.587394 0.227615
vt 0.452614 0.300623
vn 0.00202967 -0.217863 -0.9759772
v 0.15805 0.363644 0.165395
vt 0.169323 0.142489
vn 0.857455 0.07289119 0.50937
v 0.147956 0.611292 0.149953
vt 0.48766 0.142489
vn 0.835282 0.0735354 0.544882
v 0.174053 0.383956 0.250092
vt 0.168241 0.300623
vn 0.1931091 -0.1990081 -0.9607834
vt 0.179253 0.736268
vt 0.360281 0.736268
v 0.243456 0.344496 0.0940074
vt 0.164051 0.0432916
vn 0.650763 0.0744918 0.755618
v 0.232168 0.634531 0.0748573
vt 0.494679 0.0432914
vt 0.616543 0.156392
vn 0.4467371 0.515395 0.7312961
vt 0.603071 0.165846
v 0.196471 0.898627 -0.0127243
vt 0.602448 0.164595
vn 0.09767716 0.2123089 0.9723086
vt 0.612311 0.156528
vn 0.434508 0.523729 0.732742
vt 0.60103 0.152191
vn 0.4340082 0.2877501 0.8537194
vt 0.604013 0.147076
vn 0.4230579 0.248496 0.8713619
vt 0.601824 0.163344
vn -0.00202951 0.217863 0.9759772
vn -0.835282 -0.0735355 -0.544882
vn -0.857455 -0.07289129 -0.50937
vn -0.193109 0.199009 0.9607831
vn -0.650763 -0.0744919 -0.755618
vt 0.803741 0.995424
vt 0.899114 0.79818
vt 0.981833 0.845987
v 0.359551 0.694041 0.292476
vt 0.771024 0.90566
vn 0.1434699 0.7713315 0.6200516
vt 0.571259 0.995424
v 0.252295 0.631227 0.341916
vt 0.603814 0.90566
vn -0.254519 0.5383461 0.8033701
vt 0.393167 0.845987
v 0.209936 0.507512 0.370094
vt 0.475724 0.79818
vn -0.4118428 0.07933617 0.9077947
vt 0.803741 0.995316
vt 0.899152 0.798287
vt 0.981833 0.84588
v 0.252295 0.380782 0.363827
vt 0.771062 0.905768
vn -0.25479 -0.390985 0.884428
vt 0.571259 0.995316
v 0.359551 0.310337 0.326046
vt 0.603852 0.905768
vn 0.143227 -0.6524591 0.7441661
vt 0.393167 0.84588
vt 0.475762 0.798287
vt 0.658484 0.605047
vt 0.427793 0.715856
vt 0.399198 0.55111
vt 0.48319 0.406526
vt 0.640468 0.349757
vt 0.708285 0.605999
vt 0.722508 0.350471
vt 0.880612 0.404897
vt 0.966741 0.548218
vt 0.940596 0.713371
vt 0.103461 0.78125
vn 0 -0.178137 -0.9840057
vt 0.103461 0.628877
vn 0 -0.106975 -0.9942617
v -0.0872587 0.255182 -0.0156017
vt -0.103461 0.628877
v -0.0648302 0.745663 -0.0683737
vt -0.103461 0.78125
vt 0.103461 0.9375
vn 0 -0.4551432 -0.8904183
vt -0.103461 0.9375
vn -0.389821 -0.474434 -0.7892731
v -0.117455 0.243177 0.00652884
vt 0.587318 0.266857
v -0.0569353 0.182934 0.0117994
vt 0.590344 0.263833
vn 0 0.06730188 0.9977326
vn 0 0.08388703 0.9964753
vn 0.396925 -0.316445 0.861576
v 0.117471 0.24492 0.0264527
v 0.05692 0.184678 0.0317233
v 7.64539E-05 0.173673 0.053479
vn -0.6368801 -0.116544 -0.7621031
vn -0.7851252 -0.3747711 -0.4930771
vn -0.5621687 -0.02315268 -0.8266985
vn -0.3949461 -0.3214711 0.8606242
v -0.117455 0.24492 0.0264527
v -0.0569353 0.184678 0.0317233
v -0.35734 0.352219 -0.0181982
vt 0.418234 0.47989
vn 0.0140524 -0.165877 -0.9860463
v -0.295013 0.000471491 0.0407937
vt 0.483415 0.0432914
v -0.595572 0.0377581 0.0313069
vt 0.165493 0.0432916
v -0.559684 0.380362 -0.026885
vt 0.168241 0.47989
vt 0.319762 0.736268
vt 0.173114 0.736268
vn -0.0140523 0.165878 0.9860461
vn -0.3929738 -0.3025339 0.8683576
v -0.0490838 0.153981 0.0243707
vt 0.590736 0.262336
vn -0.3910819 -0.4537229 -0.8007438
v -0.097727 0.202452 0.02013
vt 0.588304 0.264769
vn -0.8950163 0.4443361 -0.03887441
vn 0.8950163 0.4443361 -0.03887441
vt -0.103461 0.691377
vn 0 -0.08988491 -0.9959522
vt 0.103461 0.498433
vt -0.103461 0.498433
vn -0.480871 -0.8734549 0.0764174
vn 0.494101 -0.8660961 0.0757736
vn -0.9672912 -0.2527031 0.02210871
vn -0.4170482 -0.9054255 0.07921714
vn 0.9542579 -0.297847 0.0260582
vn 0.4009869 -0.3282119 0.8552698
vn 0.4302059 -0.8992957 0.07867817
vn -0.3815871 -0.3070681 0.8718374
v -0.129979 0.838695 -0.0312508
vt 0.855059 0.968878
vn -0.7932737 -0.4444739 0.4161249
v -0.069906 0.769683 0.00955572
vt 0.965194 0.901122
vn -0.6047177 -0.5087978 0.6127327
v -0.108045 0.84273 0.014874
vt 0.915612 0.995446
vn -0.6986651 -0.351165 0.623338
v 0.069906 0.769683 0.00955572
vn 0.6047178 -0.5087988 0.6127318
v 0.129979 0.838695 -0.0312508
vn 0.7932733 -0.4444752 0.4161242
v 0.108045 0.84273 0.014874
vn 0.6986653 -0.3511662 0.6233372
o merged_0_0_node
g polygon_0
usemtl phong1_mat_id
f 1/1/1 2/2/2 3/3/3
f 1/1/1 4/4/4 2/2/2
f 1/1/1 3/3/3 5/5/5
f 1/1/1 6/2/6 4/4/4
f 1/1/1 5/5/5 7/3/7
f 1/1/1 7/3/7 6/2/6
f 8/6/8 9/7/9 10/8/10
f 8/6/8 11/9/11 9/7/9
f 8/6/8 10/8/10 12/10/12
f 8/6/8 13/11/13 11/9/11
f 8/6/8 12/10/12 14/12/14
f 8/6/8 14/12/14 13/11/13
f 9/7/9 11/9/11 15/13/15
f 13/11/13 16/14/16 11/9/11
f 11/9/11 16/14/16 15/13/15
f 17/15/1 18/16/1 19/17/1
f 17/15/1 20/18/1 18/16/1
f 17/15/1 19/17/1 21/19/1
f 17/15/1 22/16/1 20/18/1
f 17/15/1 21/19/1 23/17/1
f 17/15/1 23/17/1 22/16/1
f 24/20/17 25/21/18 26/22/19
f 24/20/17 27/23/20 25/21/18
f 24/20/17 26/22/19 28/21/21
f 24/20/17 28/21/21 27/23/20
f 29/24/22 30/25/23 31/26/24
f 29/24/22 32/26/25 30/25/23
f 29/24/22 31/26/24 33/27/26
f 29/24/22 33/27/26 32/26/25
f 15/28/15 34/29/27 35/30/28
f 15/28/15 35/30/28 36/31/29
f 15/28/15 36/31/29 12/32/12
f 15/28/15 12/32/12 9/33/9
f 35/30/28 37/34/30 36/31/29
f 12/32/12 10/35/10 9/33/9
f 12/32/12 36/31/29 38/36/31
f 39/37/32 40/38/33 41/39/34
f 39/37/32 42/40/35 40/38/33
f 39/37/32 43/41/36 42/40/35
f 39/37/32 44/42/37 43/41/36
f 41/39/34 40/38/33 45/43/31
f 44/42/37 46/44/27 43/41/36
f 40/38/33 47/45/29 45/43/31
f 46/44/27 48/46/28 43/41/36
f 49/47/38 50/48/39 51/49/39
f 49/47/38 52/50/40 50/48/39
f 49/47/38 21/19/41 52/50/40
f 49/47/38 23/17/42 21/19/41
f 53/51/43 54/52/44 55/53/44
f 53/51/43 56/54/43 54/52/44
f 53/51/43 20/18/45 56/54/43
f 53/51/43 18/16/45 20/18/45
f 57/55/46 58/56/46 55/53/46
f 57/55/46 59/57/46 58/56/46
f 57/55/46 55/53/46 60/58/46
f 57/55/46 60/58/46 61/59/46
f 59/57/46 62/60/46 58/56/46
f 55/53/46 54/52/46 60/58/46
f 63/51/47 20/18/48 22/16/49
f 63/51/47 56/54/50 20/18/48
f 63/51/47 54/52/51 56/54/50
f 63/51/47 64/53/51 54/52/51
f 3/3/52 2/2/52 4/4/52
f 3/3/52 4/4/52 6/2/52
f 3/3/52 6/2/52 7/3/52
f 3/3/52 7/3/52 5/5/52
f 65/61/53 66/62/54 67/63/55
f 65/61/53 68/64/56 66/62/54
f 65/61/53 67/63/55 69/65/57
f 65/61/53 70/66/56 68/64/56
f 67/63/55 71/67/58 69/65/57
f 70/66/56 72/61/59 68/64/56
f 71/67/58 73/68/58 69/65/57
f 71/67/58 74/65/60 73/68/58
f 71/67/58 75/63/61 74/65/60
f 72/61/59 76/62/62 68/64/56
f 72/61/59 74/65/60 76/62/62
f 76/62/62 74/65/60 75/63/61
f 77/69/63 78/70/64 79/71/65
f 77/69/63 80/72/66 78/70/64
f 77/69/63 79/71/65 81/73/67
f 77/69/63 82/74/66 80/72/66
f 78/70/64 83/75/68 79/71/65
f 77/76/69 84/77/70 78/78/71
f 77/76/69 81/79/67 84/77/70
f 77/76/69 78/78/71 80/80/72
f 77/76/69 80/80/72 82/81/72
f 84/77/70 83/82/68 78/78/71
f 85/83/73 86/84/74 87/85/75
f 85/83/73 88/86/76 86/84/74
f 85/83/73 89/87/77 88/86/76
f 85/83/73 90/88/78 89/87/77
f 86/84/74 88/86/76 91/89/79
f 92/90/80 93/91/81 94/92/82
f 92/90/80 95/93/83 93/91/81
f 92/90/80 90/94/78 95/93/83
f 92/90/80 89/95/77 90/94/78
f 94/92/82 93/91/81 96/96/84
f 94/92/82 96/96/84 97/97/84
f 85/98/85 87/99/75 98/100/86
f 85/98/85 98/100/86 88/101/87
f 85/98/85 88/101/87 89/102/88
f 85/98/85 89/102/88 90/103/89
f 98/100/86 91/104/79 88/101/87
f 92/90/90 94/92/91 93/91/92
f 92/90/90 93/91/92 95/93/93
f 92/90/90 95/93/93 90/94/89
f 92/90/90 90/94/89 89/95/88
f 94/92/91 96/96/94 93/91/92
f 94/92/91 97/97/94 96/96/94
f 38/105/31 14/106/14 12/107/12
f 38/105/31 99/108/95 14/106/14
f 38/105/31 36/109/29 99/108/95
f 36/109/29 100/110/96 99/108/95
f 36/109/29 37/111/30 100/110/96
f 37/111/30 101/112/97 100/110/96
f 35/113/28 101/114/97 37/115/30
f 35/113/28 102/116/98 101/114/97
f 35/113/28 34/117/27 102/116/98
f 34/117/27 103/118/99 102/116/98
f 34/117/27 15/119/15 103/118/99
f 15/119/15 16/120/16 103/118/99
f 13/121/13 14/122/14 99/123/95
f 13/121/13 99/123/95 100/124/96
f 13/121/13 100/124/96 101/125/97
f 13/126/13 101/127/97 102/128/98
f 13/126/13 102/128/98 103/129/99
f 13/126/13 103/129/99 16/130/16
f 53/131/100 55/132/101 104/133/101
f 53/131/100 104/133/101 105/134/100
f 53/131/100 105/134/100 18/135/102
f 105/134/100 19/136/102 18/135/102
f 104/49/103 106/137/103 50/48/103
f 104/49/103 107/138/103 106/137/103
f 104/49/103 58/56/103 107/138/103
f 49/134/104 51/133/104 64/132/104
f 49/134/104 64/132/104 63/131/104
f 49/134/104 63/131/104 23/136/105
f 63/131/104 22/135/105 23/136/105
f 64/53/106 108/58/106 54/52/106
f 64/53/106 109/55/106 108/58/106
f 64/53/106 110/56/106 109/55/106
f 110/56/106 59/57/106 109/55/106
f 110/56/106 62/60/106 59/57/106
f 105/47/107 52/50/107 19/17/108
f 105/47/107 50/48/109 52/50/107
f 105/47/107 104/49/109 50/48/109
f 19/17/108 52/50/107 21/19/108
f 51/49/110 111/137/110 112/138/110
f 51/49/110 50/48/110 111/137/110
f 51/49/110 112/138/110 110/56/110
f 67/63/52 75/63/52 71/67/52
f 67/63/52 76/62/52 75/63/52
f 67/63/52 66/62/52 76/62/52
f 66/62/52 68/64/52 76/62/52
f 72/61/1 70/66/1 65/61/1
f 72/61/1 65/61/1 69/65/1
f 72/61/1 69/65/1 74/65/1
f 69/65/1 73/68/1 74/65/1
f 113/139/111 114/140/111 115/141/111
f 113/139/111 115/141/111 116/142/111
f 113/139/111 116/142/111 82/143/66
f 116/142/111 80/144/66 82/143/66
f 113/139/112 115/141/112 114/140/112
f 113/139/112 116/142/112 115/141/112
f 113/139/112 82/143/72 116/142/112
f 82/143/72 80/144/72 116/142/112
f 110/56/113 117/145/113 62/60/113
f 110/56/113 112/138/113 117/145/113
f 117/145/114 107/138/114 58/56/114
f 117/145/114 58/56/114 62/60/114
f 107/138/114 118/146/114 106/137/114
f 25/21/115 28/21/115 26/22/115
f 25/21/115 27/23/115 28/21/115
f 32/26/116 31/26/116 30/25/116
f 32/26/116 33/27/116 31/26/116
f 104/147/117 55/148/117 58/149/117
f 50/48/118 106/137/118 111/137/118
f 64/148/105 51/147/105 110/149/105
f 54/52/119 108/58/119 60/58/119
f 107/138/120 117/145/120 112/138/120
f 118/146/121 107/138/121 112/138/121
f 60/58/56 108/58/56 61/59/56
f 57/55/122 109/55/122 59/57/122
f 108/58/123 109/55/123 61/59/123
f 61/59/124 109/55/124 57/55/124
f 118/146/125 112/138/125 111/137/125
f 111/137/22 106/137/22 118/146/22
f 119/150/126 120/151/127 121/152/128
f 122/151/129 123/150/130 124/152/131
v -0.0434228 0.845623 0.0479461
vt 0.282885 0.946902
vn -0.128662 -0.127796 0.9834197
vt -0.0875527 0.932946
v -0.0434228 0.779976 0.0394152
vt 0.282885 0.866084
vn -0.177975 -0.298665 0.9376162
vt 0.110777 0.838622
v 0.0434228 0.779976 0.0394152
vt 0.717114 0.866084
vn 0.177975 -0.298666 0.9376159
v 0.0434228 0.845623 0.0479461
vt 0.717114 0.946902
vn 0.128662 -0.127796 0.9834197
v 0 0.741342 0.011882
vt 0.5 0.803098
vn 0 -0.6614693 0.7499723
vt 0.889222 0.838622
vt 1.08755 0.932946
o merged_1_0_node
g polygon_0
usemtl TEX_ANIM_EYE_mat_id
f 125/153/132 121/154/128 126/155/133
f 126/155/133 121/154/128 120/156/127
f 126/155/133 127/157/134 125/153/132
f 125/153/132 127/157/134 128/158/135
f 120/156/127 129/159/136 126/155/133
f 126/155/133 129/159/136 127/157/134
f 129/159/136 122/160/129 127/157/134
f 128/158/135 127/157/134 124/161/131
f 124/161/131 127/157/134 122/160/129
