mtllib Makuhita.mtl
v 0 0.647517 -0.0406651
vt -1.72809 2.47532
vn 0 0 -1
v 0 0.618762 -0.0287546
vt -1.72809 2.40434
vn 0 -0.3826841 -0.9238793
v -0.0360148 0.618762 0
vt -1.8131 2.40434
vn -0.8876526 -0.4605138 0
v 0.0360148 0.618762 0
vt -1.64309 2.40434
vn 0.8876526 -0.4605138 -2.187209E-06
v -0.0509327 0.647517 0
vt -1.84831 2.47532
vn -1 0 0
v 0.0509327 0.647517 0
vt -1.60787 2.47532
vn 1 0 0
v -0.0360148 0.676271 0
vt -1.8131 2.54631
vn -0.8301038 0.5576089 -1.0878E-06
v 0.0360148 0.676271 0
vt -1.64309 2.54631
vn 0.8301038 0.5576089 2.38191E-06
v 0 0.676271 -0.0287546
vt -1.72809 2.54631
vn 0 0.501915 -0.864917
v 0 0.647517 0.0406651
vn 0 0 1
v 0 0.618762 0.0287546
vn 0 -0.3826841 0.9238793
v 0 0.688182 0
vt -1.72809 2.57571
vn 0 1 0
v 0 0.676271 0.0287546
vn 0 0.501915 0.864917
v -0.117383 0.0552504 -0.186568
vt 0.0226234 0.366326
vn -0.396079 -0.464661 -0.791967
v 0.111233 0.149603 -0.18185
vt 0.0333491 0.371597
vn 0.4495441 0.272651 -0.8506301
v 0.117384 0.0552504 -0.186568
vt 0.0336376 0.366326
vn 0.4224967 -0.4476347 -0.7881114
v -0.111233 0.149603 -0.18185
vt 0.022912 0.371597
vn -0.4521589 0.2803859 -0.8467208
v 0 0.0231661 0
vt 0.0281305 0.364534
vn 0 -0.9999998 0.0007229028
v -0.222467 0.129346 0
vt 0.0176933 0.370466
vn -0.9747581 0.08265951 -0.207398
v -0.0934586 7.450581E-09 0
vt 0.0237458 0.36324
vn -0.1111901 -0.9937985 -0.001165801
v -0.223687 0.0552504 0.001061
vt 0.0176361 0.366326
vn -0.9246755 -0.3807478 0.002526919
v 0.222467 0.149603 0
vt 0.0385677 0.371597
vn 0.9719599 0.090552 -0.217012
v 0.0764894 0.297357 -0.115779
vt 0.0317191 0.379851
vn 0.3835319 0.5751979 -0.7225308
v -0.117383 0.0552504 0.176633
vn -0.3986948 -0.5152057 0.7586867
v 0.0934586 7.450581E-09 0
vt 0.0325152 0.36324
vn 0.1111899 -0.9937985 -0.001165739
v 0.117383 0.0552504 0.176633
vn 0.4273721 -0.4957611 0.7560252
v -0.0764894 0.297357 -0.115779
vt 0.024542 0.379851
vn -0.4076352 0.5652893 -0.7171343
v -0.152979 0.297357 0
vt 0.0209534 0.379851
vn -0.685348 0.653262 -0.321787
v 0.223687 0.0552504 0.001061
vt 0.038625 0.366326
vn 0.9366168 -0.3503499 0.00195429
v 0.152979 0.297357 0
vt 0.0353076 0.379851
vn 0.662959 0.679598 -0.314057
v 0.111233 0.149283 0.190374
vt 0.0333491 0.371579
vn 0.2903509 0.134901 0.9473637
v -0.111233 0.149283 0.190374
vt 0.022912 0.371579
vn -0.2667169 0.1316459 0.9547415
v -0.1204 0.308236 -0.0107323
vt -2.01227 1.63778
vn -0.369443 -0.9288641 -0.0268965
v 0 0.313354 -0.169318
vt -1.72809 1.65042
vn 0 -0.8820295 -0.4711942
v 0 0.283089 -0.00929593
vt -1.72809 1.57571
vn 0 -0.9996712 0.0256423
v -0.140446 0.369764 -0.167471
vt -2.05959 1.78967
vn -0.6148134 -0.5254423 -0.5881453
v 0 0.3215 0.162438
vt -1.72809 1.67053
vn 0 -0.9195009 0.393088
v -0.207474 0.369764 -0.00933381
vt -2.2178 1.78967
vn -0.9168044 -0.3863511 -0.101008
v -0.136041 0.364013 0.137684
vt -2.04919 1.77548
vn -0.5295551 -0.6678812 0.5229781
v -0.185026 0.366889 0.0641753
vt -2.16481 1.78257
vn -0.8214049 -0.4418319 0.360664
v 0.1204 0.308236 -0.0107323
vt -1.44391 1.63778
vn 0.369443 -0.9288641 -0.0268965
v 0 0.388673 -0.219746
vt -1.72809 1.83635
vn 0 -0.06168199 -0.9980959
v 0.140446 0.369764 -0.167471
vt -1.39659 1.78967
vn 0.6148134 -0.5254423 -0.5881453
v -0.188865 0.459196 0.0597445
vt -2.17387 2.01044
vn -0.9202042 0.08151922 0.3828561
v -0.211836 0.468062 -0.00929593
vt -2.22809 2.03233
vn -0.9893393 0.08547192 -0.117908
v 0 0.359288 0.202265
vt -1.72809 1.76381
vn 0 -0.6099539 0.7924369
v 0.140919 0.461471 -0.167458
vt -1.39548 2.01606
vn 0.6246471 0.186393 -0.7583361
v -0.140919 0.461471 -0.167458
vt -2.06071 2.01606
vn -0.6246477 0.1863929 -0.7583356
v 0 0.557647 -0.177998
vt -1.72809 2.25347
vn 0 0.389764 -0.9209148
v 0.136041 0.364013 0.137684
vt -1.40699 1.77548
vn 0.5295551 -0.6678812 0.5229781
v 0.207474 0.369764 -0.00933381
vt -1.23839 1.78967
vn 0.916804 -0.386352 -0.101008
v 0.185026 0.366889 0.0641753
vt -1.29137 1.78257
vn 0.8214049 -0.4418319 0.360664
v -0.190533 0.529999 -0.0135146
vt -2.17781 2.18522
vn -0.8845917 0.4365449 -0.1640919
v -0.165208 0.52715 0.0576992
vt -2.11803 2.17819
vn -0.8285421 0.4238891 0.365836
v 0.109447 0.573365 -0.139069
vt -1.46976 2.29228
vn 0.5267761 0.6192041 -0.5823171
v 0.211836 0.468062 -0.00929593
vt -1.22809 2.03233
vn 0.9893393 0.08547202 -0.117908
v 0.190533 0.529999 -0.0135146
vt -1.27837 2.18522
vn 0.8845917 0.4365449 -0.1640919
v 0.188865 0.459196 0.0597445
vt -1.28231 2.01044
vn 0.9202042 0.08151922 0.3828561
v -0.153644 0.573365 -0.00955079
vt -2.09074 2.29228
vn -0.6823103 0.7308284 -0.01850801
v -0.135923 0.573365 0.0524064
vt -2.04891 2.29228
vn -0.6531078 0.7037038 0.2797339
v -0.129711 0.5243 0.128913
vt -2.03425 2.17115
vn -0.6335522 0.3514361 0.6892782
v -0.109447 0.573365 -0.139069
vt -1.98642 2.29228
vn -0.5267761 0.6192041 -0.5823171
v 0.153644 0.573365 -0.00955079
vt -1.36544 2.29228
vn 0.6823103 0.7308284 -0.01850791
v 0 0.603724 -0.120625
vt -1.72809 2.36722
vn 0 0.9329824 -0.3599221
v 0.094433 0.608603 -0.00929593
vt -1.5052 2.37926
vn 0.3339991 0.9395862 -0.07498302
v 0.165208 0.52715 0.0576992
vt -1.33815 2.17819
vn 0.8285421 0.4238891 0.365836
v -0.109833 0.573365 0.114364
vt -1.98733 2.29228
vn -0.503754 0.681499 0.53084
v 0 0.519024 0.188649
vt -1.72809 2.15813
vn 0 0.3484122 0.9373415
v -0.094433 0.608603 -0.00929593
vt -1.95098 2.37926
vn -0.3339991 0.9395862 -0.07498322
v 0.135923 0.573365 0.0524064
vt -1.40727 2.29228
vn 0.6531078 0.7037038 0.2797339
v 0 0.628395 -0.00929593
vt -1.72809 2.42812
vn 0 0.9950329 -0.09954689
v 0.0472165 0.61015 0.0415459
vt -1.61665 2.38308
vn 0.26565 0.9432569 0.19924
v 0 0.573365 0.154693
vt -1.72809 2.29228
vn 0 0.6938671 0.7201031
v 0.109833 0.573365 0.114364
vt -1.46885 2.29228
vn 0.5037547 0.6814986 0.5308397
v 0.129711 0.5243 0.128913
vt -1.42193 2.17115
vn 0.6335522 0.3514361 0.6892782
v -0.0472165 0.61015 0.0415459
vt -1.83954 2.38308
vn -0.26565 0.9432569 0.19924
v 0 0.611697 0.0923876
vt -1.72809 2.3869
vn 0 0.9301705 0.3671278
v 0 0.3137 0
vt 0.499515 0.659129
vt 0.736116 1.08395
vt 0.262914 1.08395
vt 0.972717 0.659129
vt 0.0263128 0.659129
v 0.0764894 0.297357 0.115779
vt 0.736116 0.234303
vn 0.0938272 0.678071 0.728983
v -0.0764894 0.297357 0.115779
vt 0.262914 0.234304
vn -0.0938273 0.678071 0.728983
vt 0.843587 -0.106544
vt 0.155442 -0.106544
v -0.273122 0.219727 0.115374
vt 0.500094 0.296266
vn -0.8966438 0.114769 0.427619
vt 0.691146 -0.195887
vt 0.325029 -0.196826
v 0.273122 0.219727 0.115374
vn 0.8783171 0.09558312 0.468426
vt 0.937371 -2.19948
v 0.143088 0.489653 0.119777
vt 0.878812 -2.75129
vn 0.8063045 0.2065869 0.5542517
vt 1 -3.19948
vt 0.843396 -2.24141
v -0.143088 0.489653 0.119777
vt 0.121188 -2.75129
vn -0.8063047 0.2065859 0.5542518
vt 0.0626294 -2.19948
vt 0 -3.19948
vt 0.156604 -2.24141
vt 0.121188 -2.28163
v -0.104233 0.449489 0.158967
vt 0.224053 -2.8185
vn -0.4982669 0.116318 0.8591858
vt 0.156604 -1.8185
vt 0.843396 -1.8185
v 0.104233 0.449489 0.158967
vt 0.775947 -2.8185
vn 0.4982669 0.116318 0.8591858
vt 0.878812 -2.28163
o merged_0_0_node
g polygon_0
usemtl bodys_mat_id
f 1/1/1 2/2/2 3/3/3
f 1/1/1 4/4/4 2/2/2
f 1/1/1 3/3/3 5/5/5
f 1/1/1 6/6/6 4/4/4
f 1/1/1 5/5/5 7/7/7
f 1/1/1 8/8/8 6/6/6
f 1/1/1 7/7/7 9/9/9
f 1/1/1 9/9/9 8/8/8
f 3/3/3 10/1/10 5/5/5
f 3/3/3 11/2/11 10/1/10
f 6/6/6 10/1/10 4/4/4
f 6/6/6 8/8/8 10/1/10
f 4/4/4 10/1/10 11/2/11
f 5/5/5 10/1/10 7/7/7
f 9/9/9 12/10/12 8/8/8
f 9/9/9 7/7/7 12/10/12
f 10/1/10 8/8/8 13/9/13
f 10/1/10 13/9/13 7/7/7
f 13/9/13 12/10/12 7/7/7
f 13/9/13 8/8/8 12/10/12
f 14/11/14 15/12/15 16/13/16
f 14/11/14 17/14/17 15/12/15
f 14/11/14 16/13/16 18/15/18
f 14/11/14 19/16/19 17/14/17
f 14/11/14 18/15/18 20/17/20
f 14/11/14 21/18/21 19/16/19
f 14/11/14 20/17/20 21/18/21
f 15/12/15 22/19/22 16/13/16
f 15/12/15 17/14/17 23/20/23
f 15/12/15 23/20/23 22/19/22
f 18/15/18 24/11/24 20/17/20
f 18/15/18 16/13/16 25/21/25
f 18/15/18 26/13/26 24/11/24
f 18/15/18 25/21/25 26/13/26
f 21/18/21 24/11/24 19/16/19
f 21/18/21 20/17/20 24/11/24
f 17/14/17 27/22/27 23/20/23
f 17/14/17 19/16/19 28/23/28
f 17/14/17 28/23/28 27/22/27
f 22/19/22 29/24/29 16/13/16
f 22/19/22 26/13/26 29/24/29
f 22/19/22 23/20/23 30/25/30
f 22/19/22 31/26/31 26/13/26
f 29/24/29 25/21/25 16/13/16
f 29/24/29 26/13/26 25/21/25
f 24/11/24 32/27/32 19/16/19
f 24/11/24 26/13/26 32/27/32
f 32/27/32 26/13/26 31/26/31
f 33/28/33 34/29/34 35/30/35
f 33/28/33 36/31/36 34/29/34
f 33/28/33 35/30/35 37/32/37
f 33/28/33 38/33/38 36/31/36
f 33/28/33 37/32/37 39/34/39
f 33/28/33 40/35/40 38/33/38
f 33/28/33 39/34/39 40/35/40
f 34/29/34 41/36/41 35/30/35
f 34/29/34 36/31/36 42/37/42
f 34/29/34 43/38/43 41/36/41
f 34/29/34 42/37/42 43/38/43
f 35/30/35 41/36/41 37/32/37
f 38/33/38 40/35/40 44/39/44
f 38/33/38 45/40/45 36/31/36
f 38/33/38 44/39/44 45/40/45
f 39/34/39 37/32/37 46/41/46
f 42/37/42 47/42/47 43/38/43
f 42/37/42 36/31/36 48/43/48
f 42/37/42 49/44/49 47/42/47
f 42/37/42 48/43/48 49/44/49
f 36/31/36 45/40/45 48/43/48
f 41/36/41 50/45/50 37/32/37
f 41/36/41 43/38/43 51/46/51
f 41/36/41 52/47/52 50/45/50
f 41/36/41 51/46/51 52/47/52
f 50/45/50 46/41/46 37/32/37
f 44/39/44 53/48/53 45/40/45
f 44/39/44 54/49/54 53/48/53
f 45/40/45 53/48/53 48/43/48
f 47/42/47 49/44/49 55/50/55
f 47/42/47 56/51/56 43/38/43
f 47/42/47 55/50/55 57/52/57
f 47/42/47 57/52/57 56/51/56
f 43/38/43 56/51/56 51/46/51
f 52/47/52 51/46/51 58/53/58
f 56/51/56 57/52/57 58/53/58
f 56/51/56 58/53/58 51/46/51
f 54/49/54 59/54/59 53/48/53
f 54/49/54 60/55/60 59/54/59
f 54/49/54 61/56/61 60/55/60
f 48/43/48 62/57/62 49/44/49
f 48/43/48 53/48/53 62/57/62
f 53/48/53 59/54/59 62/57/62
f 55/50/55 63/58/63 57/52/57
f 55/50/55 49/44/49 64/59/64
f 55/50/55 65/60/65 63/58/63
f 55/50/55 64/59/64 65/60/65
f 49/44/49 62/57/62 64/59/64
f 58/53/58 57/52/57 66/61/66
f 57/52/57 63/58/63 66/61/66
f 61/56/61 67/62/67 60/55/60
f 61/56/61 68/63/68 67/62/67
f 59/54/59 69/64/69 62/57/62
f 59/54/59 60/55/60 69/64/69
f 62/57/62 69/64/69 64/59/64
f 65/60/65 70/65/70 63/58/63
f 65/60/65 64/59/64 71/66/71
f 65/60/65 72/67/72 70/65/70
f 65/60/65 71/66/71 72/67/72
f 64/59/64 69/64/69 71/66/71
f 63/58/63 70/65/70 66/61/66
f 68/63/68 73/68/73 67/62/67
f 68/63/68 74/69/74 73/68/73
f 68/63/68 75/70/75 74/69/74
f 70/65/70 72/67/72 74/69/74
f 70/65/70 75/70/75 66/61/66
f 70/65/70 74/69/74 75/70/75
f 60/55/60 76/71/76 69/64/69
f 60/55/60 67/62/67 76/71/76
f 69/64/69 76/71/76 71/66/71
f 73/68/73 74/69/74 77/72/77
f 73/68/73 77/72/77 67/62/67
f 77/72/77 72/67/72 71/66/71
f 77/72/77 71/66/71 76/71/76
f 77/72/77 74/69/74 72/67/72
f 77/72/77 76/71/76 67/62/67
f 78/73/12 23/74/23 27/75/27
f 78/73/12 30/76/30 23/74/23
f 78/73/12 27/75/27 28/77/28
f 78/73/12 79/78/78 30/76/30
f 78/73/12 28/77/28 80/79/79
f 78/73/12 80/79/79 79/78/78
f 80/79/79 31/80/31 79/78/78
f 80/79/79 32/81/32 31/80/31
f 81/82/80 80/83/79 28/83/28
f 81/82/80 32/84/32 80/83/79
f 81/82/80 28/83/28 19/84/19
f 81/82/80 19/84/19 32/84/32
f 82/82/81 30/83/30 79/83/78
f 82/82/81 22/84/22 30/83/30
f 82/82/81 79/83/78 31/84/31
f 82/82/81 31/84/31 22/84/22
f 66/85/66 83/86/82 58/87/58
f 66/85/66 75/88/75 83/86/82
f 84/89/83 54/90/54 44/91/44
f 84/89/83 61/92/61 54/90/54
f 84/93/83 85/94/84 61/95/61
f 75/96/75 86/97/85 83/98/82
vt 2.98047 1.32992
v 0.156466 0.455005 0.109356
vt 2.51989 1.2988
vn 0.7825418 0.04173249 0.6211979
vt 2.93413 0.644387
vt 2.24629 0.623033
vt 1.95009 1.25783
v -0.156466 0.455005 0.109356
vn -0.7825418 0.04173269 0.6211979
vt 2.39061 1.55611
v -0.148786 0.679334 0.000325275
vt 0.473525 0.492351
vn -0.686253 -0.6817139 -0.25362
v -0.122854 0.710671 -0.0266577
vt 0.492461 0.515235
vn 0.0437249 0.196317 -0.9795651
v -0.0623541 0.644883 -0.00470722
vt 0.536641 0.467193
vn 0.7032217 -0.6758078 -0.2208239
v -0.128211 0.697184 0.0408296
vt 0.48855 0.505386
vn -0.112577 -0.1940871 0.9745033
v -0.102279 0.728522 0.0138467
vt 0.507486 0.52827
vn 0.6579109 0.7406079 0.136577
v -0.178108 0.751024 0.0073171
vt 0.452112 0.544702
vn -0.7507737 0.6564227 -0.07381226
v 0.11153 0.721692 0.0235579
vn -0.5746331 0.8165831 0.05467031
v 0.134955 0.701116 -0.0139987
vn 0.08419783 0.2277971 -0.9700615
v 0.0622692 0.646319 -0.000422879
vn -0.8066323 -0.5053172 -0.3065921
v 0.129598 0.687629 0.0534886
vn -0.07058241 -0.161599 0.9843292
v 0.153023 0.667054 0.015932
vn 0.6252289 -0.7624939 -0.166409
v 0.187554 0.737531 0.0277497
vn 0.7656718 0.6417508 0.04361989
o merged_1_0_node
g polygon_0
usemtl hoppe_mat_id
f 58/99/58 87/100/86 52/101/52
f 39/102/39 85/103/84 88/100/87
f 40/101/40 88/100/87 44/99/44
f 39/102/39 88/100/87 40/101/40
f 83/104/82 86/103/85 87/100/86
f 50/102/50 87/100/86 86/103/85
f 52/101/52 87/100/86 50/102/50
f 58/99/58 83/104/82 87/100/86
f 44/99/44 88/100/87 84/104/83
f 88/100/87 85/103/84 84/104/83
f 89/105/88 90/106/89 91/107/90
f 92/108/91 89/105/88 91/107/90
f 93/109/92 92/108/91 91/107/90
f 90/106/89 93/109/92 91/107/90
f 89/105/88 94/110/93 90/106/89
f 92/108/91 94/110/93 89/105/88
f 93/109/92 94/110/93 92/108/91
f 90/106/89 94/110/93 93/109/92
f 95/105/94 96/106/95 97/107/96
f 98/108/97 95/105/94 97/107/96
f 99/109/98 98/108/97 97/107/96
f 96/106/95 99/109/98 97/107/96
f 95/105/94 100/110/99 96/106/95
f 98/108/97 100/110/99 95/105/94
f 99/109/98 100/110/99 98/108/97
f 96/106/95 100/110/99 99/109/98
v -0.0340102 0.390367 0.197512
vt 0.385047 0.451296
vn -0.4431182 -0.1064431 0.8901214
vt 0.5 0.0183482
v 0 0.399152 0.210515
vt 0.5 0.573669
vn 0 -0.08067692 0.9967403
v 0 0.439016 0.210218
vt 0.5 1.12899
vn 0 0.19315 0.9811692
v 0.0340102 0.390367 0.197512
vt 0.614953 0.451296
vn 0.4431178 -0.106443 0.8901216
vt 0.959812 0.0841784
vt 0.852304 1.27488
vt 0.0401878 0.0841784
vt 0.147696 1.27488
o merged_2_0_node
g polygon_0
usemtl mat_mouth_mat_id
f 101/111/100 46/112/46 102/113/101
f 103/114/102 101/111/100 102/113/101
f 104/115/103 46/112/46 50/116/50
f 50/116/50 86/117/85 104/115/103
f 39/118/39 101/111/100 85/119/84
f 39/118/39 46/112/46 101/111/100
f 102/113/101 46/112/46 104/115/103
f 102/113/101 104/115/103 103/114/102
vt -0.160084 0.986996
vt 1.02737 0.977353
vt 0.0731518 0.850276
vt 1.02737 0.831137
vt 0.716015 0.74223
o merged_3_0_node
g polygon_0
usemtl TEX_ANIM_EYE_mat_id
f 75/120/75 68/121/68 86/122/85
f 85/122/84 68/121/68 61/120/61
f 103/123/102 104/124/103 86/122/85
f 85/122/84 101/124/100 103/123/102
f 103/123/102 68/121/68 85/122/84
f 86/122/85 68/121/68 103/123/102
