ply
format ascii 1.0
element vertex 468
property float x
property float y
property float z
property uchar red
property uchar green
property uchar blue
element face 586
property list uchar int vertex_index
end_header
0.14771 -0.58739 0.00449 182 166 135
0.14771 -0.58739 0.125 182 166 135
0.31509 -0.58731 0.125 182 166 135
0.31509 -0.58731 0.00449 182 166 135
0.32946 -0.55696 0.00449 182 166 135
0.13153 -0.55686 0.00449 182 166 135
0.13153 -0.55686 0.125 182 166 135
0.32946 -0.55696 0.125 182 166 135
0.32993 0.12847 0.00449 182 166 135
0.33003 -0.03655 0.125 182 166 135
0.15268 0.1571 0.125 182 166 135
0.15272 0.15717 0.00451 182 166 135
0.30908 0.15703 0.0045 182 166 135
0.30903 0.15696 0.125 182 166 135
0.32988 0.12839 0.125 182 166 135
0.13169 0.12841 0.00449 182 166 135
0.13162 -0.03658 0.125 182 166 135
0.13163 0.12834 0.125 182 166 135
0.33003 -0.03655 0.125 188 172 140
0.32946 -0.55696 0.125 188 172 140
0.13153 -0.55686 0.125 188 172 140
0.13162 -0.03658 0.125 188 172 140
0.14771 -0.58739 0.125 188 172 140
0.31509 -0.58731 0.125 188 172 140
0.08788 -0.6174 1.08746 223 222 230
0.08831 -0.6174 1.56138 223 222 230
0.14178 -0.6174 1.56134 223 222 230
0.14136 -0.6174 1.08741 223 222 230
0.08788 -0.56393 1.08746 223 222 230
0.14136 -0.56393 1.08741 223 222 230
0.14178 -0.56393 1.56134 223 222 230
0.08831 -0.56393 1.56138 223 222 230
0.16537 -0.64099 1.57946 223 222 230
0.06471 -0.64099 1.57955 223 222 230
0.16556 -0.64099 1.80399 223 222 230
0.06491 -0.64099 1.80407 223 222 230
0.14199 -0.6174 1.82281 223 222 230
0.08852 -0.6174 1.82286 223 222 230
0.16537 -0.54034 1.57946 223 222 230
0.14199 -0.56393 1.82281 223 222 230
0.16556 -0.54034 1.80399 223 222 230
0.08852 -0.56393 1.82286 223 222 230
0.06491 -0.54034 1.80407 223 222 230
0.06471 -0.54034 1.57955 223 222 230
-0.56335 -0.48824 0.17135 122 112 175
-0.56335 -0.48824 1.16814 122 112 175
-0.48992 -0.56335 1.16814 122 112 175
-0.48992 -0.56335 0.17135 122 112 175
-0.56335 0.48824 0.17135 122 112 175
-0.56335 0.48824 1.16814 122 112 175
0.48992 -0.56335 0.17135 122 112 175
0.48992 -0.56335 1.16814 122 112 175
0.56335 -0.48824 0.17135 122 112 175
0.56335 -0.48824 1.16814 122 112 175
0.56335 0.48824 1.16814 122 112 175
0.56335 0.48824 0.17135 122 112 175
-0.44093 -0.50702 1.22525 122 112 175
-0.50702 -0.43942 1.22525 122 112 175
-0.50702 0.43942 1.22525 122 112 175
-0.48992 0.56335 1.16814 122 112 175
-0.48992 0.56335 0.17135 122 112 175
0.48992 0.56335 1.16814 122 112 175
0.48992 0.56335 0.17135 122 112 175
-0.44093 0.50702 1.22525 122 112 175
0.44093 0.50702 1.22525 122 112 175
0.50702 0.43942 1.22525 122 112 175
-0.44093 0.50702 0.11499 122 112 175
-0.50702 0.43942 0.11499 122 112 175
0.50702 0.43942 0.11499 122 112 175
0.44093 0.50702 0.11499 122 112 175
0.50702 -0.43942 0.11499 122 112 175
0.44093 -0.50702 0.11499 122 112 175
-0.44093 -0.50702 0.11499 122 112 175
-0.50702 -0.43942 0.11499 122 112 175
0.50702 -0.43942 1.22525 122 112 175
0.44093 -0.50702 1.22525 122 112 175
0.50702 -0.43942 1.22525 126 116 181
0.44093 -0.50702 1.22525 126 116 181
-0.44093 -0.50702 1.22525 126 116 181
-0.50702 -0.43942 1.22525 126 116 181
0.50702 0.43942 1.22525 126 116 181
-0.50702 0.43942 1.22525 126 116 181
0.44093 0.50702 1.22525 126 116 181
-0.44093 0.50702 1.22525 126 116 181
-0.08264 -0.65531 0.72621 191 118 142
0.08264 -0.65531 0.72621 191 118 142
0.08264 -0.65531 0.6237 191 118 142
-0.08264 -0.65531 0.6237 191 118 142
0.08264 -0.55484 0.6237 191 118 142
-0.08264 -0.55484 0.6237 191 118 142
0.08264 -0.55484 0.72621 191 118 142
-0.08264 -0.55484 0.72621 191 118 142
0.08264 -0.55484 0.72621 199 123 148
0.08264 -0.65531 0.72621 199 123 148
-0.08264 -0.65531 0.72621 199 123 148
-0.08264 -0.55484 0.72621 199 123 148
0.05241 -0.624 0.57872 213 215 224
0.05241 -0.624 0.6923 213 215 224
0.11098 -0.624 0.6923 213 215 224
0.11098 -0.624 0.57872 213 215 224
0.11098 -0.55987 0.6923 213 215 224
0.05241 -0.55987 0.6923 213 215 224
0.11098 -0.55987 0.57872 213 215 224
0.05241 -0.55987 0.57872 213 215 224
0.10087 -0.624 0.56753 213 215 224
0.10087 -0.55987 0.56753 213 215 224
0.06251 -0.55987 0.56753 213 215 224
0.06251 -0.624 0.56753 213 215 224
-0.05241 -0.624 0.57872 213 215 224
-0.11098 -0.624 0.57872 213 215 224
-0.11098 -0.624 0.6923 213 215 224
-0.05241 -0.624 0.6923 213 215 224
-0.11098 -0.55987 0.6923 213 215 224
-0.05241 -0.55987 0.6923 213 215 224
-0.11098 -0.55987 0.57872 213 215 224
-0.05241 -0.55987 0.57872 213 215 224
-0.06251 -0.624 0.56753 213 215 224
-0.06251 -0.55987 0.56753 213 215 224
-0.10087 -0.624 0.56753 213 215 224
-0.10087 -0.55987 0.56753 213 215 224
0.20241 -0.6395 0.83302 230 148 186
0.20241 -0.6395 1.0231 230 148 186
0.36265 -0.6395 1.0231 230 148 186
0.36265 -0.6395 0.83302 230 148 186
0.13685 -0.6395 1.04087 222 131 174
0.13685 -0.55671 1.04087 222 131 174
0.4282 -0.55671 1.04087 222 131 174
0.4282 -0.6395 1.04087 222 131 174
0.4282 -0.6395 0.69527 222 131 174
0.4282 -0.55671 0.69527 222 131 174
0.13685 -0.55671 0.69527 222 131 174
0.13685 -0.6395 0.69527 222 131 174
0.36265 -0.6395 0.83302 222 131 174
0.20241 -0.6395 0.83302 222 131 174
0.36265 -0.6395 1.0231 222 131 174
0.20241 -0.6395 1.0231 222 131 174
0.26919 -0.64429 0.73097 212 125 167
0.26919 -0.64429 0.76422 212 125 167
0.30245 -0.64429 0.76422 212 125 167
0.30245 -0.64429 0.73097 212 125 167
0.30245 -0.63532 0.76422 212 125 167
0.26919 -0.63532 0.76422 212 125 167
0.26919 -0.63532 0.73097 212 125 167
0.30245 -0.63532 0.73097 212 125 167
0.17992 -0.64429 0.73097 212 125 167
0.17992 -0.64429 0.76422 212 125 167
0.21318 -0.64429 0.76422 212 125 167
0.21318 -0.64429 0.73097 212 125 167
0.21318 -0.63532 0.76422 212 125 167
0.17992 -0.63532 0.76422 212 125 167
0.17992 -0.63532 0.73097 212 125 167
0.21318 -0.63532 0.73097 212 125 167
0.35443 -0.64429 0.73097 212 125 167
0.35443 -0.64429 0.76422 212 125 167
0.38769 -0.64429 0.76422 212 125 167
0.38769 -0.64429 0.73097 212 125 167
0.38769 -0.63532 0.76422 212 125 167
0.35443 -0.63532 0.76422 212 125 167
0.35443 -0.63532 0.73097 212 125 167
0.38769 -0.63532 0.73097 212 125 167
0.17992 -0.64429 0.96455 212 125 167
0.17992 -0.64429 0.99781 212 125 167
0.21318 -0.64429 0.99781 212 125 167
0.21318 -0.64429 0.96455 212 125 167
0.21318 -0.63532 0.99781 212 125 167
0.17992 -0.63532 0.99781 212 125 167
0.17992 -0.63532 0.96455 212 125 167
0.21318 -0.63532 0.96455 212 125 167
0.26919 -0.64429 0.96455 212 125 167
0.26919 -0.64429 0.99781 212 125 167
0.30245 -0.64429 0.99781 212 125 167
0.30245 -0.64429 0.96455 212 125 167
0.30245 -0.63532 0.99781 212 125 167
0.26919 -0.63532 0.99781 212 125 167
0.26919 -0.63532 0.96455 212 125 167
0.30245 -0.63532 0.96455 212 125 167
0.35443 -0.64429 0.96455 212 125 167
0.35443 -0.64429 0.99781 212 125 167
0.38769 -0.64429 0.99781 212 125 167
0.38769 -0.64429 0.96455 212 125 167
0.38769 -0.63532 0.99781 212 125 167
0.35443 -0.63532 0.99781 212 125 167
0.35443 -0.63532 0.96455 212 125 167
0.38769 -0.63532 0.96455 212 125 167
0.17992 -0.64429 0.88915 212 125 167
0.17992 -0.64429 0.92241 212 125 167
0.21318 -0.64429 0.92241 212 125 167
0.21318 -0.64429 0.88915 212 125 167
0.21318 -0.63532 0.92241 212 125 167
0.17992 -0.63532 0.92241 212 125 167
0.17992 -0.63532 0.88915 212 125 167
0.21318 -0.63532 0.88915 212 125 167
0.26919 -0.64429 0.88915 212 125 167
0.26919 -0.64429 0.92241 212 125 167
0.30245 -0.64429 0.92241 212 125 167
0.30245 -0.64429 0.88915 212 125 167
0.30245 -0.63532 0.92241 212 125 167
0.26919 -0.63532 0.92241 212 125 167
0.26919 -0.63532 0.88915 212 125 167
0.30245 -0.63532 0.88915 212 125 167
0.35443 -0.64429 0.88915 212 125 167
0.35443 -0.64429 0.92241 212 125 167
0.38769 -0.64429 0.92241 212 125 167
0.38769 -0.64429 0.88915 212 125 167
0.38769 -0.63532 0.92241 212 125 167
0.35443 -0.63532 0.92241 212 125 167
0.35443 -0.63532 0.88915 212 125 167
0.38769 -0.63532 0.88915 212 125 167
0.17992 -0.64429 0.81263 212 125 167
0.17992 -0.64429 0.84589 212 125 167
0.21318 -0.64429 0.84589 212 125 167
0.21318 -0.64429 0.81263 212 125 167
0.21318 -0.63532 0.84589 212 125 167
0.17992 -0.63532 0.84589 212 125 167
0.17992 -0.63532 0.81263 212 125 167
0.21318 -0.63532 0.81263 212 125 167
0.26919 -0.64429 0.81263 212 125 167
0.26919 -0.64429 0.84589 212 125 167
0.30245 -0.64429 0.84589 212 125 167
0.30245 -0.64429 0.81263 212 125 167
0.30245 -0.63532 0.84589 212 125 167
0.26919 -0.63532 0.84589 212 125 167
0.26919 -0.63532 0.81263 212 125 167
0.30245 -0.63532 0.81263 212 125 167
0.35443 -0.64429 0.81263 212 125 167
0.35443 -0.64429 0.84589 212 125 167
0.38769 -0.64429 0.84589 212 125 167
0.38769 -0.64429 0.81263 212 125 167
0.38769 -0.63532 0.84589 212 125 167
0.35443 -0.63532 0.84589 212 125 167
0.35443 -0.63532 0.81263 212 125 167
0.38769 -0.63532 0.81263 212 125 167
-0.20241 -0.6395 0.83302 230 148 186
-0.36265 -0.6395 0.83302 230 148 186
-0.36265 -0.6395 1.0231 230 148 186
-0.20241 -0.6395 1.0231 230 148 186
-0.13685 -0.6395 1.04087 222 131 174
-0.4282 -0.6395 1.04087 222 131 174
-0.4282 -0.55671 1.04087 222 131 174
-0.13685 -0.55671 1.04087 222 131 174
-0.4282 -0.6395 0.69527 222 131 174
-0.4282 -0.55671 0.69527 222 131 174
-0.13685 -0.55671 0.69527 222 131 174
-0.13685 -0.6395 0.69527 222 131 174
-0.36265 -0.6395 0.83302 222 131 174
-0.20241 -0.6395 0.83302 222 131 174
-0.36265 -0.6395 1.0231 222 131 174
-0.20241 -0.6395 1.0231 222 131 174
-0.26919 -0.64429 0.73097 212 125 167
-0.30245 -0.64429 0.73097 212 125 167
-0.30245 -0.64429 0.76422 212 125 167
-0.26919 -0.64429 0.76422 212 125 167
-0.30245 -0.63532 0.76422 212 125 167
-0.26919 -0.63532 0.76422 212 125 167
-0.26919 -0.63532 0.73097 212 125 167
-0.30245 -0.63532 0.73097 212 125 167
-0.17992 -0.64429 0.73097 212 125 167
-0.21318 -0.64429 0.73097 212 125 167
-0.21318 -0.64429 0.76422 212 125 167
-0.17992 -0.64429 0.76422 212 125 167
-0.21318 -0.63532 0.76422 212 125 167
-0.17992 -0.63532 0.76422 212 125 167
-0.17992 -0.63532 0.73097 212 125 167
-0.21318 -0.63532 0.73097 212 125 167
-0.35443 -0.64429 0.73097 212 125 167
-0.38769 -0.64429 0.73097 212 125 167
-0.38769 -0.64429 0.76422 212 125 167
-0.35443 -0.64429 0.76422 212 125 167
-0.38769 -0.63532 0.76422 212 125 167
-0.35443 -0.63532 0.76422 212 125 167
-0.35443 -0.63532 0.73097 212 125 167
-0.38769 -0.63532 0.73097 212 125 167
-0.17992 -0.64429 0.96455 212 125 167
-0.21318 -0.64429 0.96455 212 125 167
-0.21318 -0.64429 0.99781 212 125 167
-0.17992 -0.64429 0.99781 212 125 167
-0.21318 -0.63532 0.99781 212 125 167
-0.17992 -0.63532 0.99781 212 125 167
-0.17992 -0.63532 0.96455 212 125 167
-0.21318 -0.63532 0.96455 212 125 167
-0.26919 -0.64429 0.96455 212 125 167
-0.30245 -0.64429 0.96455 212 125 167
-0.30245 -0.64429 0.99781 212 125 167
-0.26919 -0.64429 0.99781 212 125 167
-0.30245 -0.63532 0.99781 212 125 167
-0.26919 -0.63532 0.99781 212 125 167
-0.26919 -0.63532 0.96455 212 125 167
-0.30245 -0.63532 0.96455 212 125 167
-0.35443 -0.64429 0.96455 212 125 167
-0.38769 -0.64429 0.96455 212 125 167
-0.38769 -0.64429 0.99781 212 125 167
-0.35443 -0.64429 0.99781 212 125 167
-0.38769 -0.63532 0.99781 212 125 167
-0.35443 -0.63532 0.99781 212 125 167
-0.35443 -0.63532 0.96455 212 125 167
-0.38769 -0.63532 0.96455 212 125 167
-0.17992 -0.64429 0.88915 212 125 167
-0.21318 -0.64429 0.88915 212 125 167
-0.21318 -0.64429 0.92241 212 125 167
-0.17992 -0.64429 0.92241 212 125 167
-0.21318 -0.63532 0.92241 212 125 167
-0.17992 -0.63532 0.92241 212 125 167
-0.17992 -0.63532 0.88915 212 125 167
-0.21318 -0.63532 0.88915 212 125 167
-0.26919 -0.64429 0.88915 212 125 167
-0.30245 -0.64429 0.88915 212 125 167
-0.30245 -0.64429 0.92241 212 125 167
-0.26919 -0.64429 0.92241 212 125 167
-0.30245 -0.63532 0.92241 212 125 167
-0.26919 -0.63532 0.92241 212 125 167
-0.26919 -0.63532 0.88915 212 125 167
-0.30245 -0.63532 0.88915 212 125 167
-0.35443 -0.64429 0.88915 212 125 167
-0.38769 -0.64429 0.88915 212 125 167
-0.38769 -0.64429 0.92241 212 125 167
-0.35443 -0.64429 0.92241 212 125 167
-0.38769 -0.63532 0.92241 212 125 167
-0.35443 -0.63532 0.92241 212 125 167
-0.35443 -0.63532 0.88915 212 125 167
-0.38769 -0.63532 0.88915 212 125 167
-0.17992 -0.64429 0.81263 212 125 167
-0.21318 -0.64429 0.81263 212 125 167
-0.21318 -0.64429 0.84589 212 125 167
-0.17992 -0.64429 0.84589 212 125 167
-0.21318 -0.63532 0.84589 212 125 167
-0.17992 -0.63532 0.84589 212 125 167
-0.17992 -0.63532 0.81263 212 125 167
-0.21318 -0.63532 0.81263 212 125 167
-0.26919 -0.64429 0.81263 212 125 167
-0.30245 -0.64429 0.81263 212 125 167
-0.30245 -0.64429 0.84589 212 125 167
-0.26919 -0.64429 0.84589 212 125 167
-0.30245 -0.63532 0.84589 212 125 167
-0.26919 -0.63532 0.84589 212 125 167
-0.26919 -0.63532 0.81263 212 125 167
-0.30245 -0.63532 0.81263 212 125 167
-0.35443 -0.64429 0.81263 212 125 167
-0.38769 -0.64429 0.81263 212 125 167
-0.38769 -0.64429 0.84589 212 125 167
-0.35443 -0.64429 0.84589 212 125 167
-0.38769 -0.63532 0.84589 212 125 167
-0.35443 -0.63532 0.84589 212 125 167
-0.35443 -0.63532 0.81263 212 125 167
-0.38769 -0.63532 0.81263 212 125 167
-0.28157 -0.36926 1.21051 122 112 175
-0.25274 -0.34302 1.50617 122 112 175
-0.07368 -0.34302 1.50617 122 112 175
-0.04515 -0.36926 1.21051 122 112 175
-0.07368 -0.16115 1.50617 122 112 175
-0.04515 -0.1349 1.21051 122 112 175
-0.28157 -0.1349 1.21051 122 112 175
-0.25274 -0.16115 1.50617 122 112 175
-0.08562 -0.33089 1.52921 122 112 175
-0.2408 -0.33089 1.52921 122 112 175
-0.08562 -0.17327 1.52921 122 112 175
-0.2408 -0.17327 1.52921 122 112 175
-0.2408 -0.33089 1.52921 126 116 181
-0.2408 -0.17327 1.52921 126 116 181
-0.08562 -0.17327 1.52921 126 116 181
-0.08562 -0.33089 1.52921 126 116 181
0.04742 -0.36926 1.21051 122 112 175
0.07588 -0.34302 1.50617 122 112 175
0.25485 -0.34302 1.50617 122 112 175
0.2838 -0.36926 1.21051 122 112 175
0.25485 -0.16115 1.50617 122 112 175
0.2838 -0.1349 1.21051 122 112 175
0.04742 -0.1349 1.21051 122 112 175
0.07588 -0.16115 1.50617 122 112 175
0.24292 -0.33089 1.52921 122 112 175
0.08781 -0.33089 1.52921 122 112 175
0.24292 -0.17327 1.52921 122 112 175
0.08781 -0.17327 1.52921 122 112 175
0.08781 -0.33089 1.52921 126 116 181
0.08781 -0.17327 1.52921 126 116 181
0.24292 -0.17327 1.52921 126 116 181
0.24292 -0.33089 1.52921 126 116 181
0.20558 -0.62542 0.39761 182 166 135
0.20558 -0.62542 0.53094 182 166 135
0.20558 -0.55648 0.53094 182 166 135
0.20558 -0.55648 0.39761 182 166 135
0.18597 -0.62542 0.38396 182 166 135
0.18597 -0.55648 0.38396 182 166 135
0.09306 -0.55648 0.38381 182 166 135
0.09306 -0.62542 0.38381 182 166 135
0.09306 -0.62542 0.54429 182 166 135
0.18597 -0.62542 0.54459 182 166 135
0.07967 -0.62542 0.39681 182 166 135
0.07967 -0.55648 0.39681 182 166 135
0.07967 -0.55648 0.53129 182 166 135
0.07967 -0.62542 0.53129 182 166 135
0.18597 -0.55648 0.54459 188 172 140
0.18597 -0.62542 0.54459 188 172 140
0.09306 -0.62542 0.54429 188 172 140
0.09306 -0.55648 0.54429 188 172 140
0.20558 -0.62542 0.53094 188 172 140
0.20558 -0.55648 0.53094 188 172 140
0.09306 -0.62542 0.54429 188 172 139
0.07967 -0.62542 0.53129 188 172 139
0.07967 -0.55648 0.53129 188 172 139
0.09306 -0.55648 0.54429 188 172 139
-0.20558 -0.62542 0.39761 182 166 135
-0.20558 -0.55648 0.39761 182 166 135
-0.20558 -0.55648 0.53094 182 166 135
-0.20558 -0.62542 0.53094 182 166 135
-0.18597 -0.62542 0.38396 182 166 135
-0.18597 -0.55648 0.38396 182 166 135
-0.09306 -0.55648 0.38381 182 166 135
-0.09306 -0.62542 0.38381 182 166 135
-0.09306 -0.62542 0.54429 182 166 135
-0.18597 -0.62542 0.54459 182 166 135
-0.07967 -0.62542 0.39681 182 166 135
-0.07967 -0.55648 0.39681 182 166 135
-0.07967 -0.55648 0.53129 182 166 135
-0.07967 -0.62542 0.53129 182 166 135
-0.18597 -0.55648 0.54459 188 172 140
-0.09306 -0.55648 0.54429 188 172 140
-0.09306 -0.62542 0.54429 188 172 140
-0.18597 -0.62542 0.54459 188 172 140
-0.20558 -0.62542 0.53094 188 172 140
-0.20558 -0.55648 0.53094 188 172 140
-0.09306 -0.62542 0.54429 188 172 139
-0.09306 -0.55648 0.54429 188 172 139
-0.07967 -0.55648 0.53129 188 172 139
-0.07967 -0.62542 0.53129 188 172 139
-0.08788 -0.6174 1.08746 223 222 230
-0.14136 -0.6174 1.08741 223 222 230
-0.14178 -0.6174 1.56134 223 222 230
-0.08831 -0.6174 1.56138 223 222 230
-0.08788 -0.56393 1.08746 223 222 230
-0.14136 -0.56393 1.08741 223 222 230
-0.14178 -0.56393 1.56134 223 222 230
-0.08831 -0.56393 1.56138 223 222 230
-0.16537 -0.64099 1.57946 223 222 230
-0.06471 -0.64099 1.57955 223 222 230
-0.16556 -0.64099 1.80399 223 222 230
-0.06491 -0.64099 1.80407 223 222 230
-0.14199 -0.6174 1.82281 223 222 230
-0.08852 -0.6174 1.82286 223 222 230
-0.16537 -0.54034 1.57946 223 222 230
-0.14199 -0.56393 1.82281 223 222 230
-0.16556 -0.54034 1.80399 223 222 230
-0.08852 -0.56393 1.82286 223 222 230
-0.06491 -0.54034 1.80407 223 222 230
-0.06471 -0.54034 1.57955 223 222 230
-0.14771 -0.58739 0.00449 182 166 135
-0.31509 -0.58731 0.00449 182 166 135
-0.31509 -0.58731 0.125 182 166 135
-0.14771 -0.58739 0.125 182 166 135
-0.32946 -0.55696 0.00449 182 166 135
-0.13153 -0.55686 0.00449 182 166 135
-0.13153 -0.55686 0.125 182 166 135
-0.32946 -0.55696 0.125 182 166 135
-0.32993 0.12847 0.00449 182 166 135
-0.33003 -0.03655 0.125 182 166 135
-0.15268 0.1571 0.125 182 166 135
-0.30903 0.15696 0.125 182 166 135
-0.30908 0.15703 0.0045 182 166 135
-0.15272 0.15717 0.00451 182 166 135
-0.32988 0.12839 0.125 182 166 135
-0.13169 0.12841 0.00449 182 166 135
-0.13162 -0.03658 0.125 182 166 135
-0.13163 0.12834 0.125 182 166 135
-0.33003 -0.03655 0.125 188 172 140
-0.13162 -0.03658 0.125 188 172 140
-0.13153 -0.55686 0.125 188 172 140
-0.32946 -0.55696 0.125 188 172 140
-0.14771 -0.58739 0.125 188 172 140
-0.31509 -0.58731 0.125 188 172 140
3 0 2 1
3 0 3 2
3 0 4 3
3 4 2 3
3 0 5 4
3 6 0 1
3 6 5 0
3 4 7 2
3 8 7 4
3 8 9 7
3 10 12 11
3 10 13 12
3 14 12 13
3 14 8 12
3 8 11 12
3 9 8 14
3 8 15 11
3 15 10 11
3 15 8 4
3 15 4 5
3 16 15 5
3 17 15 16
3 15 17 10
3 16 5 6
3 18 20 19
3 18 21 20
3 22 19 20
3 22 23 19
3 24 26 25
3 24 27 26
3 28 27 24
3 28 24 25
3 28 29 27
3 27 30 26
3 27 29 30
3 28 25 31
3 25 26 32
3 25 32 33
3 33 32 34
3 33 34 35
3 36 35 34
3 36 37 35
3 26 38 32
3 26 30 38
3 39 36 34
3 39 34 40
3 41 39 40
3 37 39 41
3 37 36 39
3 41 40 42
3 37 41 42
3 42 40 38
3 42 38 43
3 32 38 40
3 32 40 34
3 43 35 42
3 37 42 35
3 43 33 35
3 30 43 38
3 30 31 43
3 31 30 29
3 31 29 28
3 31 33 43
3 31 25 33
3 44 46 45
3 44 47 46
3 48 44 45
3 48 45 49
3 46 47 50
3 46 50 51
3 51 50 52
3 51 52 53
3 52 54 53
3 52 55 54
3 45 46 56
3 45 56 57
3 49 45 57
3 49 57 58
3 59 49 58
3 49 59 60
3 49 60 48
3 60 59 61
3 60 61 62
3 62 61 54
3 62 54 55
3 61 59 63
3 59 58 63
3 61 63 64
3 54 61 64
3 53 54 65
3 54 64 65
3 48 60 66
3 48 66 67
3 68 67 66
3 62 55 68
3 68 66 69
3 60 69 66
3 60 62 69
3 62 68 69
3 55 70 68
3 70 67 68
3 55 52 70
3 52 71 70
3 52 50 71
3 50 72 71
3 50 47 72
3 47 73 72
3 71 73 70
3 71 72 73
3 70 73 67
3 47 44 73
3 44 67 73
3 44 48 67
3 53 65 74
3 51 53 74
3 51 74 75
3 46 51 75
3 46 75 56
3 76 78 77
3 76 79 78
3 80 79 76
3 80 81 79
3 82 81 80
3 82 83 81
3 84 86 85
3 84 87 86
3 87 88 86
3 87 89 88
3 89 87 84
3 86 90 85
3 86 88 90
3 89 84 91
3 92 94 93
3 92 95 94
3 96 98 97
3 96 99 98
3 97 98 100
3 99 100 98
3 97 100 101
3 99 102 100
3 103 97 101
3 103 96 97
3 102 99 104
3 102 104 105
3 106 105 104
3 96 103 106
3 106 104 107
3 99 107 104
3 99 96 107
3 96 106 107
3 108 110 109
3 108 111 110
3 111 112 110
3 109 110 112
3 111 113 112
3 109 112 114
3 115 111 108
3 115 113 111
3 115 108 116
3 115 116 117
3 117 116 118
3 108 118 116
3 108 109 118
3 117 118 119
3 109 119 118
3 109 114 119
3 120 122 121
3 120 123 122
3 124 126 125
3 124 127 126
3 128 126 127
3 128 129 126
3 130 129 128
3 130 124 125
3 130 128 131
3 130 131 124
3 131 128 132
3 131 132 133
3 124 131 133
3 128 134 132
3 128 127 134
3 127 135 134
3 127 124 135
3 124 133 135
3 136 138 137
3 136 139 138
3 137 138 140
3 139 140 138
3 137 140 141
3 142 139 136
3 142 137 141
3 142 136 137
3 142 143 139
3 139 143 140
3 144 146 145
3 144 147 146
3 145 146 148
3 147 148 146
3 145 148 149
3 150 147 144
3 150 145 149
3 150 144 145
3 150 151 147
3 147 151 148
3 152 154 153
3 152 155 154
3 153 154 156
3 155 156 154
3 153 156 157
3 158 155 152
3 158 153 157
3 158 152 153
3 158 159 155
3 155 159 156
3 160 162 161
3 160 163 162
3 161 162 164
3 163 164 162
3 161 164 165
3 166 163 160
3 166 161 165
3 166 160 161
3 166 167 163
3 163 167 164
3 168 170 169
3 168 171 170
3 169 170 172
3 171 172 170
3 169 172 173
3 174 171 168
3 174 169 173
3 174 168 169
3 174 175 171
3 171 175 172
3 176 178 177
3 176 179 178
3 177 178 180
3 179 180 178
3 177 180 181
3 182 179 176
3 182 177 181
3 182 176 177
3 182 183 179
3 179 183 180
3 184 186 185
3 184 187 186
3 185 186 188
3 187 188 186
3 185 188 189
3 190 187 184
3 190 185 189
3 190 184 185
3 190 191 187
3 187 191 188
3 192 194 193
3 192 195 194
3 193 194 196
3 195 196 194
3 193 196 197
3 198 195 192
3 198 193 197
3 198 192 193
3 198 199 195
3 195 199 196
3 200 202 201
3 200 203 202
3 201 202 204
3 203 204 202
3 201 204 205
3 206 203 200
3 206 201 205
3 206 200 201
3 206 207 203
3 203 207 204
3 208 210 209
3 208 211 210
3 209 210 212
3 211 212 210
3 209 212 213
3 214 211 208
3 214 209 213
3 214 208 209
3 214 215 211
3 211 215 212
3 216 218 217
3 216 219 218
3 217 218 220
3 219 220 218
3 217 220 221
3 222 219 216
3 222 217 221
3 222 216 217
3 222 223 219
3 219 223 220
3 224 226 225
3 224 227 226
3 225 226 228
3 227 228 226
3 225 228 229
3 230 227 224
3 230 225 229
3 230 224 225
3 230 231 227
3 227 231 228
3 232 234 233
3 232 235 234
3 236 238 237
3 236 239 238
3 240 237 238
3 240 238 241
3 242 240 241
3 242 239 236
3 242 243 240
3 242 236 243
3 243 244 240
3 243 245 244
3 236 245 243
3 240 246 237
3 240 244 246
3 237 247 236
3 237 246 247
3 236 247 245
3 248 250 249
3 248 251 250
3 251 252 250
3 249 250 252
3 251 253 252
3 254 248 249
3 254 251 248
3 254 253 251
3 254 249 255
3 249 252 255
3 256 258 257
3 256 259 258
3 259 260 258
3 257 258 260
3 259 261 260
3 262 256 257
3 262 259 256
3 262 261 259
3 262 257 263
3 257 260 263
3 264 266 265
3 264 267 266
3 267 268 266
3 265 266 268
3 267 269 268
3 270 264 265
3 270 267 264
3 270 269 267
3 270 265 271
3 265 268 271
3 272 274 273
3 272 275 274
3 275 276 274
3 273 274 276
3 275 277 276
3 278 272 273
3 278 275 272
3 278 277 275
3 278 273 279
3 273 276 279
3 280 282 281
3 280 283 282
3 283 284 282
3 281 282 284
3 283 285 284
3 286 280 281
3 286 283 280
3 286 285 283
3 286 281 287
3 281 284 287
3 288 290 289
3 288 291 290
3 291 292 290
3 289 290 292
3 291 293 292
3 294 288 289
3 294 291 288
3 294 293 291
3 294 289 295
3 289 292 295
3 296 298 297
3 296 299 298
3 299 300 298
3 297 298 300
3 299 301 300
3 302 296 297
3 302 299 296
3 302 301 299
3 302 297 303
3 297 300 303
3 304 306 305
3 304 307 306
3 307 308 306
3 305 306 308
3 307 309 308
3 310 304 305
3 310 307 304
3 310 309 307
3 310 305 311
3 305 308 311
3 312 314 313
3 312 315 314
3 315 316 314
3 313 314 316
3 315 317 316
3 318 312 313
3 318 315 312
3 318 317 315
3 318 313 319
3 313 316 319
3 320 322 321
3 320 323 322
3 323 324 322
3 321 322 324
3 323 325 324
3 326 320 321
3 326 323 320
3 326 325 323
3 326 321 327
3 321 324 327
3 328 330 329
3 328 331 330
3 331 332 330
3 329 330 332
3 331 333 332
3 334 328 329
3 334 331 328
3 334 333 331
3 334 329 335
3 329 332 335
3 336 338 337
3 336 339 338
3 339 340 338
3 337 338 340
3 339 341 340
3 342 336 337
3 342 339 336
3 342 341 339
3 342 337 343
3 337 340 343
3 344 346 345
3 344 347 346
3 347 348 346
3 347 349 348
3 350 344 345
3 350 345 351
3 345 346 352
3 345 352 353
3 346 354 352
3 346 348 354
3 351 345 353
3 351 353 355
3 348 351 355
3 351 348 349
3 351 349 350
3 348 355 354
3 356 358 357
3 356 359 358
3 360 362 361
3 360 363 362
3 363 364 362
3 363 365 364
3 366 360 361
3 366 361 367
3 361 362 368
3 361 368 369
3 362 370 368
3 362 364 370
3 367 361 369
3 367 369 371
3 364 367 371
3 367 364 365
3 367 365 366
3 364 371 370
3 372 374 373
3 372 375 374
3 376 378 377
3 376 379 378
3 380 379 376
3 380 381 379
3 380 382 381
3 380 383 382
3 384 383 380
3 384 380 385
3 385 376 377
3 385 380 376
3 382 383 386
3 382 386 387
3 388 387 386
3 388 386 389
3 383 389 386
3 383 384 389
3 390 392 391
3 390 393 392
3 390 391 394
3 390 394 395
3 396 398 397
3 396 399 398
3 400 402 401
3 400 403 402
3 404 400 401
3 404 401 405
3 404 405 406
3 404 406 407
3 408 404 407
3 408 409 404
3 409 400 404
3 409 403 400
3 406 410 407
3 406 411 410
3 412 410 411
3 412 413 410
3 407 413 408
3 407 410 413
3 414 416 415
3 414 417 416
3 414 418 417
3 414 419 418
3 420 422 421
3 420 423 422
3 424 426 425
3 424 427 426
3 428 424 425
3 428 427 424
3 428 425 429
3 425 430 429
3 425 426 430
3 428 431 427
3 427 432 426
3 427 433 432
3 433 434 432
3 433 435 434
3 436 434 435
3 436 435 437
3 426 438 430
3 426 432 438
3 439 434 436
3 439 440 434
3 441 440 439
3 437 441 439
3 437 439 436
3 441 442 440
3 437 442 441
3 442 438 440
3 442 443 438
3 432 440 438
3 432 434 440
3 443 442 435
3 437 435 442
3 443 435 433
3 430 438 443
3 430 443 431
3 431 429 430
3 431 428 429
3 431 443 433
3 431 433 427
3 444 446 445
3 444 447 446
3 444 445 448
3 448 445 446
3 444 448 449
3 450 444 449
3 450 447 444
3 448 446 451
3 452 448 451
3 452 451 453
3 454 456 455
3 454 457 456
3 458 455 456
3 458 456 452
3 452 456 457
3 453 458 452
3 452 457 459
3 459 457 454
3 459 448 452
3 459 449 448
3 460 449 459
3 461 460 459
3 459 454 461
3 460 450 449
3 462 464 463
3 462 465 464
3 466 465 467
3 466 464 465
