mtllib Hitmonlee.mtl
v 0 0.7341836 0.2462755
vt 0.586075 0.15735
vn 0 0.666133 0.745833
v -0.160301 0.7270176 0.2214103
vn -0.4872566 0.5679287 0.6633537
v -0.118034 0.6497811 0.2814407
vn -0.3851202 0.2155533 0.8973401
v -0.136295 0.7782729 0.162204
vn -0.3042673 0.8606973 0.4081931
v 0 0.6479291 0.3013138
vn 0 0.16093 0.9869658
v 0 0.7863519 0.1861351
vn 0 0.8818201 0.471586
v 0.118034 0.6497811 0.2814407
vn 0.3851202 0.2155533 0.8973401
v 0.136296 0.7782729 0.162204
vn 0.3042673 0.8606973 0.4081931
v 0.160301 0.7270176 0.2214103
vn 0.4872566 0.5679287 0.6633537
v -0.203253 0.627992 0.2214083
vn -0.5674777 0.3265337 0.7558735
v -0.219088 0.7231685 0.1345468
vt 0.552777 0.0850967
vn -0.758999 0.586557 0.2826149
v 0 0.8236821 0.05087188
vn 0 0.997912 0.06458905
v 0.203253 0.627992 0.2214083
vn 0.5674768 0.3265347 0.7558737
v -0.283301 0.6534662 0.03536239
vn -0.8734227 0.4738791 -0.1121215
v -0.155983 0.798199 0.04837487
vn -0.446248 0.8947403 0.01738958
v -0.20917 0.7447767 -0.02493538
vn -0.6868507 0.6892339 -0.2306357
v 0.219088 0.7231685 0.1345468
vn 0.758999 0.586557 0.2826149
v 0.155983 0.798199 0.04837487
vn 0.446248 0.8947404 0.01738928
v -0.194315 0.6624371 -0.1484219
vn -0.6435935 0.434099 -0.6303535
v -0.300282 0.4566489 0.01510748
vn -0.9531626 -0.177231 -0.2450923
v -0.0952753 0.794522 -0.06316111
vn -0.2523005 0.8798642 -0.4027202
v 0.0952754 0.794522 -0.06316111
vn 0.2523005 0.8798642 -0.4027202
v 0.20917 0.7447767 -0.02493538
vn 0.6868507 0.6892339 -0.2306357
v -0.206296 0.479599 -0.1974982
vn -0.6854646 -0.00568413 -0.7280838
v -0.269297 0.2866849 -0.00134678
vn -0.9354743 -0.3528639 -0.01935839
v -0.211914 0.4484789 0.2043212
vn -0.5994847 -0.3179277 0.7345338
v 0.283301 0.6534662 0.03536239
vn 0.8734227 0.4738791 -0.1121215
v 0 0.7272385 -0.1836721
vn 0 0.6746848 -0.738106
v 0.194315 0.6624371 -0.1484219
vn 0.6435935 0.434099 -0.6303535
v -0.188785 0.2877879 -0.166291
vn -0.5550209 -0.4923082 -0.6705105
v 0 0.5954117 -0.2571056
vn 0 0.263018 -0.964791
v 0 0.3630603 -0.2577406
vn 0 -0.258135 -0.9661088
v -0.202626 0.2626937 0.1239718
vn -0.727857 -0.5179987 0.4493345
v -0.137223 0.2786968 0.2065352
vn -0.3983241 -0.5110816 0.7616649
v -0.0976434 0.4584339 0.2808317
vn -0.2830774 -0.168981 0.9440935
v 0.300282 0.4566489 0.01510748
vn 0.9531626 -0.177231 -0.2450923
v 0 0.1839314 -0.1399327
vn 0 -0.7442941 -0.667852
v -0.203283 0.2055785 -0.006344139
vn -0.8068986 -0.5898268 -0.03192168
v -0.121058 0.1809194 -0.1014745
vn -0.2939637 -0.6973413 -0.6536822
v 0.206296 0.479599 -0.1974982
vn 0.6854646 -0.00568409 -0.7280838
v 0 0.295289 0.2417435
vn 0 -0.43179 0.9019741
v -0.121058 0.1663773 0.08421761
vn -0.3155666 -0.7293583 0.6070043
v 0 0.2225455 0.1812641
vn 0 -0.6983001 0.7158052
v 0 0.1433702 -0.01079425
vn 0 -0.99821 -0.05980746
v 0.188785 0.2877879 -0.166291
vn 0.5550209 -0.4923082 -0.6705105
v 0.121058 0.1809194 -0.1014745
vn 0.2939637 -0.6973413 -0.6536822
v 0.269297 0.2866849 -0.00134678
vn 0.9354743 -0.3528639 -0.01935839
v 0.211914 0.4484789 0.2043212
vn 0.5994847 -0.3179277 0.7345338
v 0 0.4574309 0.2910688
vn 0 -0.173647 0.984808
v 0 0.1633653 0.1226756
vn 0 -0.8937241 0.4486171
v 0.137223 0.2786968 0.2065352
vn 0.3983241 -0.5110816 0.7616649
v 0.121058 0.1663773 0.08421761
vn 0.3155666 -0.7293583 0.6070043
v 0.203283 0.2055785 -0.006344139
vn 0.8068986 -0.5898268 -0.03192168
v 0.0976434 0.4584339 0.2808317
vn 0.2830774 -0.168981 0.9440935
v 0.202626 0.2626937 0.1239718
vn 0.727857 -0.5179987 0.4493345
v -0.119678 -9.503092E-07 0.002785185
vt 0.118028 0
vn -0.3574921 -0.9339053 -0.004522048
vt 0.0560378 1
vt 0.117395 1
vt 0.117118 1
vt 0.178482 1
v 0.119678 -9.503092E-07 0.002785185
vn 0.3574921 -0.9339053 -0.004521979
v -0.45275 0.5232254 0.3078719
vt 0.82005 0.270273
vn -0.8064603 -0.01708874 0.5910413
vt 0.693239 1.14913
vt 0.91776 1.14913
vt 0.702937 1.14913
vt 0.905977 1.14913
v 0.45275 0.5232254 0.3078719
vn 0.8064603 -0.01708874 0.5910413
o head_0_0_node
g polygon_0
usemtl mat_body1_mat_id
f 1/1/1 2/1/2 3/1/3
f 1/1/1 4/1/4 2/1/2
f 1/1/1 3/1/3 5/1/5
f 1/1/1 6/1/6 4/1/4
f 1/1/1 5/1/5 7/1/7
f 1/1/1 8/1/8 6/1/6
f 1/1/1 7/1/7 9/1/9
f 1/1/1 9/1/9 8/1/8
f 2/1/2 10/1/10 3/1/3
f 2/1/2 4/1/4 11/2/11
f 2/1/2 11/2/11 10/2/10
f 6/1/6 8/1/8 12/2/12
f 6/1/6 12/2/12 4/1/4
f 7/1/7 13/1/13 9/1/9
f 11/2/11 14/2/14 10/2/10
f 11/2/11 4/1/4 15/2/15
f 11/2/11 16/2/16 14/2/14
f 11/2/11 15/2/15 16/2/16
f 4/1/4 12/2/12 15/2/15
f 8/1/8 9/1/9 17/2/17
f 8/1/8 18/2/18 12/2/12
f 8/1/8 17/2/17 18/2/18
f 14/2/14 16/2/16 19/2/19
f 14/2/14 19/2/19 20/2/20
f 15/2/15 12/2/12 21/2/21
f 15/2/15 21/2/21 16/2/16
f 16/2/16 21/2/21 19/2/19
f 9/1/9 13/2/13 17/2/17
f 18/2/18 22/2/22 12/2/12
f 18/2/18 17/2/17 23/2/23
f 18/2/18 23/2/23 22/2/22
f 12/2/12 22/2/22 21/2/21
f 20/2/20 19/2/19 24/2/24
f 20/2/20 24/2/24 25/2/25
f 20/2/20 25/2/25 26/2/26
f 13/2/13 27/2/27 17/2/17
f 17/2/17 27/2/27 23/2/23
f 22/2/22 28/2/28 21/2/21
f 22/2/22 23/2/23 29/2/29
f 22/2/22 29/2/29 28/2/28
f 23/2/23 27/2/27 29/2/29
f 21/2/21 28/2/28 19/2/19
f 24/2/24 30/2/30 25/2/25
f 24/2/24 19/2/19 31/2/31
f 24/2/24 32/2/32 30/2/30
f 24/2/24 31/2/31 32/2/32
f 28/2/28 29/2/29 31/2/31
f 28/2/28 31/2/31 19/2/19
f 26/2/26 25/2/25 33/2/33
f 26/2/26 33/2/33 34/2/34
f 26/2/26 34/2/34 35/2/35
f 27/2/27 36/2/36 29/2/29
f 30/2/30 32/2/32 37/2/37
f 30/2/30 38/2/38 25/2/25
f 30/2/30 37/2/37 39/2/39
f 30/2/30 39/2/39 38/2/38
f 25/2/25 38/2/38 33/2/33
f 31/2/31 29/2/29 40/2/40
f 31/2/31 40/2/40 32/2/32
f 29/2/29 36/2/36 40/2/40
f 34/2/34 41/2/41 35/2/35
f 34/2/34 33/2/33 42/2/42
f 34/2/34 43/2/43 41/2/41
f 34/2/34 42/2/42 43/2/43
f 33/2/33 38/2/38 42/2/42
f 37/2/37 44/2/44 39/2/39
f 37/2/37 32/2/32 45/2/45
f 37/2/37 46/2/46 44/2/44
f 37/2/37 45/2/45 46/2/46
f 32/2/32 40/2/40 45/2/45
f 36/2/36 47/2/47 40/2/40
f 36/2/36 48/2/48 47/2/47
f 40/2/40 47/2/47 45/2/45
f 35/2/35 41/2/41 49/2/49
f 43/2/43 42/2/42 50/2/50
f 43/2/43 51/2/51 41/2/41
f 43/2/43 50/2/50 52/2/52
f 43/2/43 52/2/52 51/2/51
f 50/2/50 42/2/42 44/2/44
f 50/2/50 44/2/44 52/2/52
f 46/2/46 45/2/45 53/2/53
f 45/2/45 47/2/47 53/2/53
f 48/2/48 54/2/54 51/2/51
f 48/2/48 55/2/55 47/2/47
f 48/2/48 51/2/51 55/2/55
f 55/2/55 51/2/51 52/2/52
f 55/2/55 53/2/53 47/2/47
f 55/2/55 52/2/52 53/2/53
f 54/2/54 49/2/49 41/2/41
f 54/2/54 41/2/41 51/2/51
f 56/3/56 39/4/39 44/5/44
f 56/3/56 38/6/38 39/4/39
f 56/3/56 44/5/44 42/7/42
f 56/3/56 42/7/42 38/6/38
f 44/5/44 57/3/57 52/7/52
f 44/5/44 46/4/46 57/3/57
f 52/7/52 57/3/57 53/6/53
f 53/6/53 57/3/57 46/4/46
f 58/8/58 14/9/14 20/10/20
f 58/8/58 10/11/10 14/9/14
f 58/8/58 20/10/20 26/12/26
f 58/8/58 26/12/26 10/11/10
f 59/8/59 48/12/48 36/10/36
f 59/8/59 13/11/13 48/12/48
f 59/8/59 36/10/36 27/9/27
f 59/8/59 27/9/27 13/11/13
vt 0.468657 0.96037
vt -0.0817466 0.96037
vt 0.345728 0.729661
vt -0.0817466 0.729661
vt 0.908996 0.709303
vt 0.915442 0.926839
o head_1_0_node
g polygon_0
usemtl TEX_ANIM_EYE_mat_id
f 7/13/7 5/14/5 54/15/54
f 3/13/3 35/15/35 5/14/5
f 35/15/35 49/16/49 5/14/5
f 5/14/5 49/16/49 54/15/54
f 35/15/35 3/13/3 26/17/26
f 26/17/26 3/13/3 10/18/10
f 7/13/7 54/15/54 48/17/48
f 48/17/48 13/18/13 7/13/7
