mtllib Noctowl.mtl
v 0.22242 0.653226 0.445657
vt 0.716771 0.932514
vn 0.5936012 0.2686151 0.7586063
v 0.165427 0.760384 0.413257
vt 0.709672 0.945862
vn -0.6610022 0.7467362 -0.07390071
v 0.12873 0.796769 0.427891
vt 0.7051 0.950395
vn -0.7960658 0.3745879 0.4753559
v 0.207835 0.864239 0.357381
vt 0.714954 0.9588
vn -0.136231 0.9653546 -0.2225569
v 0.134262 0.601964 0.507497
vt 0.705789 0.926128
vn 0.0510849 0.228128 0.97229
v 0.237005 0.771943 0.354553
vt 0.718588 0.947302
vn 0.07778437 0.7161478 -0.6936008
v 0.199394 0.5379469 0.474106
vt 0.713903 0.918153
vn 0.4841138 -0.7558178 0.4408779
v 0.2933 0.8004889 0.301238
vt 0.725601 0.950858
vn 0.702418 0.0384386 -0.710726
v 0.283423 0.570365 0.403431
vt 0.724371 0.922191
vn 0.8061841 -0.476472 -0.350773
v 0.185947 0.621276 0.405666
vt 0.712228 0.928534
vn -0.5375928 -0.3549569 -0.7648527
v 0.136998 0.58645 0.461007
vt 0.70613 0.924195
vn -0.251268 -0.539596 -0.803555
v 0 0.490952 0.549201
vt 0.689064 0.912299
vn 0 -0.8286299 -0.5597969
v 0 0.578815 0.49491
vt 0.689064 0.923244
vn 0 -0.522468 -0.8526589
v 0.0333509 0.57945 0.523689
vt 0.693219 0.923323
vn 0.2531179 0.6256137 0.7379287
vn -0.508014 0.8208209 -0.261103
v -0.199394 0.5379469 0.474106
vt 0.664226 0.918153
vn -0.484105 -0.755828 0.44087
v -0.136996 0.586449 0.461005
vt 0.671999 0.924195
vn 0.2512641 -0.5396601 -0.8035131
vn -1.33415E-06 0.719088 -0.694919
v -0.134262 0.601964 0.507497
vt 0.672339 0.926128
vn -0.05104163 0.2281361 0.9722905
v 0 0.584262 0.53676
vt 0.689064 0.923923
vn 0 0.282373 0.9593047
v -0.0333509 0.57945 0.523689
vt 0.68491 0.923323
vn -0.253117 0.6256199 0.7379239
v -0.283423 0.570365 0.403431
vt 0.653758 0.922191
vn -0.8061707 -0.4764778 -0.3507959
v -0.185942 0.6212729 0.405659
vt 0.665901 0.928533
vn 0.5375859 -0.3549759 -0.7648488
v 0 0.6735619 0.495987
vt 0.689064 0.935047
vn 0 0.8371901 -0.5469121
vn 0.50802 0.820823 -0.261085
v -0.22242 0.653226 0.445657
vt 0.661357 0.932514
vn -0.5936019 0.2686149 0.7586058
v -0.2933 0.8004889 0.301238
vt 0.652528 0.950858
vn -0.7023853 0.03842121 -0.7107593
v -0.12873 0.796769 0.427891
vt 0.673028 0.950395
vn 0.7961 0.374572 0.475311
v -0.237005 0.771943 0.354553
vt 0.65954 0.947302
vn -0.0778187 0.716168 -0.693576
v -0.165427 0.760384 0.413257
vt 0.668457 0.945862
vn 0.6609892 0.7467512 -0.07386382
v -0.207834 0.864239 0.357381
vt 0.663174 0.9588
vn 0.136262 0.9653401 -0.222601
v 0 0.387885 -0.172237
vt 0.559412 0.82949
vn 0 0.7644669 -0.644663
v -0.153613 0.253512 -0.20335
vt 0.546353 0.832135
vn -0.6911349 0.116159 -0.7133299
v -0.1631418 0.3948712 -0.07941325
vt 0.545542 0.821599
vn 0.08815465 0.8541271 -0.5125386
v 0 0.299701 -0.231245
vt 0.559412 0.834507
vn 0 0.5923043 -0.8057144
v 0 0.464634 -0.0267226
vt 0.559412 0.817119
vn 0 0.9810185 -0.1939141
v 0.153613 0.253512 -0.20335
vt 0.572471 0.832135
vn 0.6911349 0.116159 -0.7133299
v 0.1631417 0.3948711 -0.07941315
vt 0.573282 0.821599
vn -0.08815479 0.854127 -0.5125385
v 0 0.180618 -0.306747
vt 0.559412 0.840925
vn 0 -0.3321549 -0.9432248
v -0.153613 0.151648 -0.161482
vt 0.546353 0.828576
vn -0.8166755 -0.3707498 -0.4422507
v -0.2154448 0.3315423 -0.0474157
vt 0.541096 0.818879
vn -0.8316628 -0.5552737 -0.002861504
v -0.1760762 0.4141356 0.04801212
vt 0.544443 0.810766
vn -0.1126822 0.9764897 0.1837675
v 0.1760762 0.4141356 0.04801213
vt 0.574381 0.810766
vn 0.1126819 0.9764897 0.1837676
v -0.217937 0.178881 0.0372948
vt 0.540884 0.811677
vn -0.7560067 -0.5303668 0.3836209
v 0 0.0878888 -0.148407
vt 0.559412 0.827464
vn -0.0001970631 -0.8527384 -0.5223382
v 0.153613 0.151648 -0.161482
vt 0.572471 0.828576
vn 0.8166771 -0.370709 -0.4422821
v 0.2154448 0.3315423 -0.04741562
vt 0.577728 0.818879
vn 0.8316627 -0.5552739 -0.002861023
v 0 0.437156 0.175095
vt 0.559412 0.799962
vn 0 0.7453082 0.6667202
v -0.176077 0.297328 0.167981
vt 0.544443 0.800567
vn -0.5472668 -0.3298649 0.7692127
v 0.217937 0.178881 0.0372949
vt 0.57794 0.811677
vn 0.7560282 -0.5303331 0.3836251
v 0.176077 0.297328 0.167981
vt 0.574381 0.800567
vn 0.547267 -0.329864 0.769213
v 0 0.24318 0.221896
vt 0.559412 0.795983
vn 0 -0.5205401 0.8538372
v 0 0.0846236 0.0509466
vt 0.00141401 0.401578
vn -3.623449E-05 -0.7655388 0.6433898
vt 0.00141401 0.985126
vt 0.487276 0.531527
v -0.0993543 0.0084359 -0.0964293
vt 0.222911 -0.0249949
vn -0.332538 -0.9430779 -0.00474674
v 0.0993346 0.00831717 -0.0964293
vt 0.222868 -0.0252953
vn 0.3025661 -0.9529642 -0.017691
vt 0.00141389 0.207661
vt 0.393955 0.985126
vt 0.343873 0.300656
v 0 0.208981 -0.439598
vt 0.507523 0.409795
vn 0 0.9963654 0.08518204
v -0.0666344 0.17906 -0.509857
vt 0.612753 0.520747
vn -0.170811 0.954489 -0.244488
v -0.136494 0.181873 -0.463443
vt 0.736174 0.447451
vn -0.1995189 0.9794776 0.02856159
v 0 0.17906 -0.571233
vt 0.507523 0.617672
vn 0 0.9751263 -0.2216501
v 0 0.182728 -0.328997
vt 0.536992 0.235133
vn 0 0.9729645 0.2309549
v 0.0666344 0.17906 -0.509857
vn 0.170811 0.954489 -0.244488
v 0.136494 0.181873 -0.463443
vn 0.1995189 0.9794776 0.02856159
v 0 0.186147 -0.436928
vt 0.507523 0.405578
vn 0 -0.9998798 0.0155077
vn 0 -0.9977375 0.06723043
vn -0.03251589 -0.9972099 0.06719479
vn 0.0325158 -0.9972099 0.06719479
vn -0.03448061 -0.9989993 0.02848641
vn 0.03448061 -0.9989993 0.02848641
vn 0 -0.9994985 -0.03166689
v 0.153456 0.695119 0.184807
vt 0.572482 0.96298
vn 0.5592501 0.7545811 -0.3432881
v 0.226472 0.5585619 0.154338
vt 0.576105 0.946743
vn 0.850756 0.163368 -0.499525
v 0.094841 0.5922359 0.0513751
vt 0.588347 0.950747
vn 0.358662 0.290164 -0.887224
v 0.248297 0.596859 0.314126
vt 0.557107 0.951297
vn 0.9207677 0.3722279 0.116762
v 0 0.70618 0.111603
vt 0.581186 0.964295
vn 0 0.788595 -0.614913
v 0.139967 0.710397 0.351258
vt 0.552692 0.964796
vn 0.495106 0.7988469 0.341634
v 0 0.7587039 0.267272
vt 0.562677 0.97054
vn 0 0.9997827 -0.02084799
v 0.153456 0.430391 0.0982286
vt 0.582776 0.931504
vn 0.5592499 -0.4059129 -0.7228238
v 0.248297 0.433248 0.260618
vt 0.563468 0.931844
vn 0.9339849 -0.323262 -0.15223
v -0.153456 0.695119 0.184807
vn -0.5592501 0.7545811 -0.3432881
v -0.094841 0.5922359 0.0513751
vn -0.3586629 0.2901639 -0.8872237
v 0.194277 0.5413949 0.472044
vt 0.54029 0.950484
vn 0.5658748 0.3286739 0.7561477
v 0 0.699742 0.447558
vt 0.541242 0.963529
vn 0 0.6842266 0.7292696
v 0.139967 0.31971 0.223485
vt 0.567883 0.918345
vn 0.477715 -0.806826 -0.347592
v 0.226472 0.430877 0.422112
vt 0.544267 0.931562
vn 0.8904827 -0.2719669 0.3647939
v 0.153456 0.301543 0.36956
vt 0.550516 0.916185
vn 0.5344741 -0.8169901 0.216482
v 0 0.464722 0.0326354
vt 0.590575 0.935586
vn 0 -0.2728529 -0.9620557
v -0.139967 0.710397 0.351258
vn -0.495106 0.7988469 0.341634
v -0.226472 0.5585619 0.154338
vn -0.850756 0.163368 -0.499525
v -0.248297 0.596859 0.314126
vn -0.9207677 0.3722279 0.116762
v 0 0.271404 0.307471
vt 0.557898 0.912601
vn 0 -0.9939843 -0.109523
v 0 0.330365 0.127186
vt 0.579333 0.919611
vn 0 -0.7942565 -0.6075826
v 0 0.5017049 0.540207
vt 0.530663 0.945527
vn 0 0.220862 0.9753051
v 0.143248 0.410505 0.484402
vt 0.536861 0.92914
vn 0.4065749 -0.3744019 0.8333787
v -0.153456 0.430391 0.0982286
vn -0.5592499 -0.4059129 -0.7228238
v -0.194277 0.5413949 0.472044
vn -0.5658748 0.3286739 0.7561477
v -0.248297 0.433248 0.260618
vn -0.9339849 -0.323262 -0.15223
v -0.226472 0.430877 0.422112
vn -0.890483 -0.271966 0.364794
v 0 0.290481 0.442764
vt 0.541812 0.914869
vn 0 -0.8265408 0.5628769
v -0.139967 0.31971 0.223485
vn -0.477715 -0.806826 -0.347592
v -0.153456 0.301543 0.36956
vn -0.5344741 -0.8169901 0.216482
v -0.143248 0.410505 0.484402
vn -0.4065749 -0.3744019 0.8333787
v 0 0.401637 0.511518
vt 0.533637 0.928085
vn 0 -0.4173402 0.9087504
v 0 0.493679 0.527908
vt 0.877809 1.1333
vn 0 0.9901648 -0.139906
v 0.033372 0.418507 0.52105
vt 0.899136 0.899505
vn 0.9372195 0.3433858 0.06087537
v 0 0.438843 0.434246
vt 1.1691 0.962752
vn 0 0.8629748 -0.5052469
v 0 0.448769 0.563094
vt 0.768379 0.993621
vn 0 0.3778109 0.9258828
v -0.033372 0.418507 0.52105
vn -0.9372195 0.3433858 0.06087537
v 0 0.387021 0.564077
vt 0.76532 0.801583
vn 0 0.015927 0.9998732
v 0 0.374021 0.485135
vt 1.01083 0.761151
vn 0 -0.872005 -0.489497
vn 0 -0.6175027 -0.7865687
vn 0.8466262 -0.5085901 -0.156717
vn -0.8466262 -0.5085901 -0.156717
vn 0 -0.9867092 0.162496
v -0.4706109 0.5272703 -0.1569791
vt 0.537383 0.618527
vn 0.3979799 0.8537125 -0.3358376
vt 0.99769 0.419752
vt 0.99769 0.5754
v -0.2735134 0.3919129 0.08254346
vt 0.851234 0.377574
vn -0.7928811 -0.1301351 0.5953189
vt 0.99769 0.72679
vt 0.99769 0.27321
vt 0.723528 0.069803
vt 0.519013 0.217314
vt 0.65611 0.217314
vt 0.98798 0.217314
vn -0.6332775 -0.7667646 0.105031
vt 0.807321 -0.10568
v 0.2735134 0.3919129 0.08254346
vn 0.7928811 -0.1301348 0.5953189
v 0.4706108 0.5272705 -0.1569791
vn -0.3979807 0.8537123 -0.3358373
vn 0.6332778 -0.7667645 0.1050306
o merged_0_0_node
g polygon_0
usemtl mat_body_mat_id
f 1/1/1 2/2/2 3/3/3
f 1/1/1 4/4/4 2/2/2
f 1/1/1 3/3/3 5/5/5
f 1/1/1 6/6/6 4/4/4
f 1/1/1 5/5/5 7/7/7
f 1/1/1 8/8/8 6/6/6
f 1/1/1 7/7/7 9/9/9
f 1/1/1 9/9/9 8/8/8
f 2/2/2 10/10/10 3/3/3
f 2/2/2 4/4/4 10/10/10
f 8/8/8 10/10/10 6/6/6
f 8/8/8 9/9/9 10/10/10
f 6/6/6 10/10/10 4/4/4
f 3/3/3 10/10/10 5/5/5
f 7/7/7 11/11/11 9/9/9
f 7/7/7 5/5/5 12/12/12
f 7/7/7 13/13/13 11/11/11
f 7/7/7 12/12/12 13/13/13
f 11/11/11 10/10/10 9/9/9
f 5/5/5 14/14/14 12/12/12
f 5/5/5 10/10/10 11/11/15
f 5/5/5 11/11/15 14/14/14
f 13/13/13 12/12/12 15/15/16
f 13/13/13 15/15/16 16/16/17
f 11/11/15 13/13/18 14/14/14
f 12/12/12 17/17/19 15/15/16
f 12/12/12 14/14/14 18/18/20
f 12/12/12 19/19/21 17/17/19
f 12/12/12 18/18/20 19/19/21
f 16/16/17 15/15/16 20/20/22
f 16/16/17 20/20/22 21/21/23
f 13/13/18 22/22/24 14/14/14
f 13/13/18 16/16/25 19/19/21
f 13/13/18 19/19/21 22/22/24
f 22/22/24 19/19/21 18/18/20
f 22/22/24 18/18/20 14/14/14
f 16/16/25 17/17/19 19/19/21
f 16/16/25 21/21/23 17/17/19
f 15/15/16 23/23/26 20/20/22
f 15/15/16 17/17/19 23/23/26
f 21/21/23 20/20/22 24/24/27
f 21/21/23 25/25/28 17/17/19
f 21/21/23 24/24/27 26/26/29
f 21/21/23 27/27/30 25/25/28
f 21/21/23 26/26/29 28/28/31
f 21/21/23 28/28/31 27/27/30
f 23/23/26 24/24/27 20/20/22
f 23/23/26 17/17/19 25/25/28
f 23/23/26 28/28/31 26/26/29
f 23/23/26 27/27/30 28/28/31
f 23/23/26 26/26/29 24/24/27
f 23/23/26 25/25/28 27/27/30
f 29/29/32 30/30/33 31/31/34
f 29/29/32 32/32/35 30/30/33
f 29/29/32 31/31/34 33/33/36
f 29/29/32 34/34/37 32/32/35
f 29/29/32 33/33/36 35/35/38
f 29/29/32 35/35/38 34/34/37
f 30/30/33 32/32/35 36/36/39
f 30/30/33 36/36/39 37/37/40
f 30/30/33 37/37/40 38/38/41
f 32/32/35 34/34/37 36/36/39
f 31/31/34 39/39/42 33/33/36
f 35/35/38 33/33/36 40/40/43
f 37/37/40 41/41/44 38/38/41
f 37/37/40 36/36/39 42/42/45
f 34/34/37 43/43/46 36/36/39
f 34/34/37 44/44/47 43/43/46
f 36/36/39 43/43/46 42/42/45
f 39/39/42 45/45/48 33/33/36
f 39/39/42 46/46/49 45/45/48
f 33/33/36 45/45/48 40/40/43
f 38/38/41 41/41/44 46/46/49
f 44/44/47 47/47/50 43/43/46
f 44/44/47 48/48/51 47/47/50
f 40/40/43 45/45/48 48/48/51
f 46/46/49 49/49/52 45/45/48
f 45/45/48 49/49/52 48/48/51
f 50/50/53 49/51/52 41/52/44
f 50/50/53 47/52/50 49/51/52
f 50/50/53 41/52/44 51/53/54
f 50/50/53 52/54/55 47/52/50
f 50/50/53 51/53/54 42/55/45
f 50/50/53 42/55/45 52/54/55
f 49/51/52 46/56/49 41/52/44
f 49/51/52 47/52/50 48/56/51
f 51/53/54 37/57/40 42/55/45
f 51/53/54 41/52/44 37/57/40
f 52/54/55 43/57/46 47/52/50
f 52/54/55 42/55/45 43/57/46
f 53/58/56 54/59/57 55/60/58
f 53/58/56 56/61/59 54/59/57
f 53/58/56 55/60/58 57/62/60
f 53/58/56 58/59/61 56/61/59
f 53/58/56 57/62/60 59/60/62
f 53/58/56 59/60/62 58/59/61
f 60/63/63 56/61/64 58/59/65
f 60/63/63 54/59/66 56/61/64
f 60/63/63 58/59/65 59/60/67
f 60/63/63 55/60/68 54/59/66
f 60/63/63 59/60/67 57/62/69
f 60/63/63 57/62/69 55/60/68
f 61/64/70 62/65/71 63/66/72
f 61/64/70 64/67/73 62/65/71
f 61/64/70 63/66/72 65/68/74
f 61/64/70 66/69/75 64/67/73
f 61/64/70 65/68/74 67/70/76
f 61/64/70 67/70/76 66/69/75
f 62/65/71 68/71/77 63/66/72
f 62/65/71 64/67/73 69/72/78
f 62/65/71 69/72/78 68/71/77
f 65/68/74 70/64/79 67/70/76
f 65/68/74 63/66/72 71/66/80
f 65/68/74 71/66/80 70/64/79
f 66/69/75 72/73/81 64/67/73
f 66/69/75 67/70/76 73/74/82
f 66/69/75 73/74/82 72/73/81
f 69/72/78 74/75/83 68/71/77
f 69/72/78 64/67/73 75/76/84
f 69/72/78 76/77/85 74/75/83
f 69/72/78 75/76/84 76/77/85
f 64/67/73 72/73/81 75/76/84
f 63/66/72 77/78/86 71/66/80
f 63/66/72 68/71/77 77/78/86
f 70/64/79 78/69/87 67/70/76
f 70/64/79 71/66/80 79/65/88
f 70/64/79 80/67/89 78/69/87
f 70/64/79 79/65/88 80/67/89
f 67/70/76 78/69/87 73/74/82
f 74/75/83 76/77/85 81/79/90
f 74/75/83 82/80/91 68/71/77
f 74/75/83 81/79/90 82/80/91
f 68/71/77 82/80/91 77/78/86
f 72/73/81 73/74/82 83/81/92
f 75/76/84 84/82/93 76/77/85
f 71/66/80 85/71/94 79/65/88
f 71/66/80 77/78/86 85/71/94
f 77/78/86 82/80/91 85/71/94
f 80/67/89 86/73/95 78/69/87
f 80/67/89 79/65/88 87/72/96
f 80/67/89 88/76/97 86/73/95
f 80/67/89 87/72/96 88/76/97
f 86/73/95 83/81/92 73/74/82
f 86/73/95 73/74/82 78/69/87
f 79/65/88 85/71/94 87/72/96
f 81/79/90 76/77/85 89/83/98
f 81/79/90 90/75/99 82/80/91
f 81/79/90 89/83/98 91/77/100
f 81/79/90 91/77/100 90/75/99
f 90/75/99 87/72/96 85/71/94
f 90/75/99 85/71/94 82/80/91
f 90/75/99 91/77/100 87/72/96
f 87/72/96 91/77/100 88/76/97
f 76/77/85 84/82/93 89/83/98
f 91/77/100 92/82/101 88/76/97
f 91/77/100 89/83/98 92/82/101
f 84/82/93 93/84/102 89/83/98
f 89/83/98 93/84/102 92/82/101
f 94/85/103 95/86/104 96/87/105
f 94/85/103 97/88/106 95/86/104
f 94/85/103 96/87/105 98/86/107
f 94/85/103 98/86/107 97/88/106
f 95/86/104 97/88/106 99/89/108
f 99/89/108 97/88/106 98/86/107
f 100/90/109 96/87/110 95/86/111
f 100/90/109 98/86/112 96/87/110
f 100/90/109 95/86/111 99/89/113
f 100/90/109 99/89/113 98/86/112
f 101/91/114 39/92/42 31/93/34
f 101/91/114 102/94/115 39/92/42
f 101/91/114 31/93/34 30/95/33
f 102/94/115 46/96/49 39/92/42
f 38/97/41 46/98/49 102/99/115
f 38/97/41 102/99/115 101/100/116
f 38/97/41 101/100/116 30/101/33
f 40/92/43 48/96/51 103/94/117
f 40/92/43 103/94/117 104/91/118
f 40/92/43 104/91/118 35/93/38
f 104/91/118 34/95/37 35/93/38
f 44/97/47 34/101/37 104/100/119
f 44/97/47 104/100/119 103/99/117
f 44/97/47 103/99/117 48/98/51
vt 0.667023 0.764153
vt -0.000838608 0.996979
vt 1.09087 1.01663
vt 1.20196 0.775331
vt -0.000838608 0.763346
o merged_1_0_node
g polygon_0
usemtl TEX_ANIM_EYE_mat_id
f 92/102/101 83/103/92 86/104/95
f 86/104/95 88/105/97 92/102/101
f 72/104/81 84/102/93 75/105/84
f 84/102/93 83/103/92 93/106/102
f 93/106/102 83/103/92 92/102/101
f 72/104/81 83/103/92 84/102/93
