ply
format ascii 1.0
element vertex 678
property float x
property float y
property float z
property uchar red
property uchar green
property uchar blue
element face 988
property list uchar int vertex_index
end_header
0.2335 -0.5463 0.91173 124 75 125
0.06844 -0.5463 0.91173 124 75 125
0.06844 -0.5463 0.92947 124 75 125
0.2335 -0.5463 0.92947 124 75 125
0.06844 -0.53603 0.92947 124 75 125
0.06844 -0.53603 0.91173 124 75 125
0.2335 -0.53603 0.91173 124 75 125
0.2335 -0.53603 0.92947 124 75 125
-0.08045 -0.5463 0.91173 124 75 125
-0.19567 -0.5463 0.91173 124 75 125
-0.19567 -0.5463 0.92947 124 75 125
-0.08045 -0.5463 0.92947 124 75 125
-0.19567 -0.53603 0.92947 124 75 125
-0.19567 -0.53603 0.91173 124 75 125
-0.08045 -0.53603 0.91173 124 75 125
-0.08045 -0.53603 0.92947 124 75 125
-0.0585 -0.5463 0.95586 124 75 125
-0.0585 -0.5463 1.05677 124 75 125
-0.04075 -0.5463 1.05677 124 75 125
-0.04075 -0.5463 0.95586 124 75 125
-0.04075 -0.53603 1.05677 124 75 125
-0.0585 -0.53603 1.05677 124 75 125
-0.0585 -0.53603 0.95586 124 75 125
-0.04075 -0.53603 0.95586 124 75 125
0.04133 -0.5463 0.95586 124 75 125
0.04133 -0.5463 1.09564 124 75 125
0.05908 -0.5463 1.09564 124 75 125
0.05908 -0.5463 0.95586 124 75 125
0.05908 -0.53603 1.09564 124 75 125
0.04133 -0.53603 1.09564 124 75 125
0.04133 -0.53603 0.95586 124 75 125
0.05908 -0.53603 0.95586 124 75 125
-0.23675 -0.56283 1.00204 55 45 56
-0.27215 -0.56283 1.00204 55 45 56
-0.27215 -0.56283 1.08024 55 45 56
-0.23675 -0.56283 1.08024 55 45 56
-0.27215 -0.55114 1.08024 55 45 56
-0.23675 -0.55114 1.08024 55 45 56
-0.23675 -0.55114 1.00204 55 45 56
-0.27215 -0.55114 1.00204 55 45 56
0.23675 -0.56283 1.00204 55 45 56
0.23675 -0.56283 1.08024 55 45 56
0.27215 -0.56283 1.08024 55 45 56
0.27215 -0.56283 1.00204 55 45 56
0.27215 -0.55114 1.08024 55 45 56
0.23675 -0.55114 1.08024 55 45 56
0.23675 -0.55114 1.00204 55 45 56
0.27215 -0.55114 1.00204 55 45 56
-0.07482 -0.55367 0.97663 55 45 56
-0.09059 -0.55367 0.95277 55 45 56
-0.62157 -0.55367 1.48278 55 45 56
-0.62157 -0.55367 1.52337 55 45 56
-0.62157 -0.5376 1.52337 55 45 56
-0.07482 -0.5376 0.97663 55 45 56
-0.09059 -0.5376 0.95277 55 45 56
-0.72013 -0.55367 1.57699 55 45 56
-0.72013 -0.5376 1.57699 55 45 56
-0.62157 -0.5376 1.48278 55 45 56
-0.70065 -0.55367 1.59675 55 45 56
-0.70065 -0.5376 1.59675 55 45 56
-0.62157 -0.55367 0.95277 255 255 255
-0.62157 -0.5376 0.95277 255 255 255
-0.62157 -0.5376 1.48278 255 255 255
-0.62157 -0.55367 1.48278 255 255 255
-0.09059 -0.55367 0.95277 255 255 255
-0.09059 -0.5376 0.95277 255 255 255
0.07482 -0.55367 0.97663 55 45 56
0.62157 -0.55367 1.52337 55 45 56
0.62157 -0.55367 1.48278 55 45 56
0.09059 -0.55367 0.95277 55 45 56
0.62157 -0.5376 1.52337 55 45 56
0.07482 -0.5376 0.97663 55 45 56
0.09059 -0.5376 0.95277 55 45 56
0.72013 -0.55367 1.57699 55 45 56
0.72013 -0.5376 1.57699 55 45 56
0.62157 -0.5376 1.48278 55 45 56
0.70065 -0.55367 1.59675 55 45 56
0.70065 -0.5376 1.59675 55 45 56
0.62157 -0.55367 0.95277 255 255 255
0.62157 -0.55367 1.48278 255 255 255
0.62157 -0.5376 1.48278 255 255 255
0.62157 -0.5376 0.95277 255 255 255
0.09059 -0.55367 0.95277 255 255 255
0.09059 -0.5376 0.95277 255 255 255
-0.19723 -0.53304 0.73892 255 255 255
-0.27107 -0.53304 0.73892 255 255 255
-0.27107 -0.53304 0.8483 255 255 255
-0.19723 -0.53304 0.8483 255 255 255
-0.19723 -0.46685 0.73892 255 255 255
-0.27107 -0.46685 0.73892 255 255 255
-0.27107 -0.46685 0.8483 255 255 255
-0.19723 -0.46685 0.8483 255 255 255
0.19723 -0.53304 0.73892 255 255 255
0.19723 -0.53304 0.8483 255 255 255
0.27107 -0.53304 0.8483 255 255 255
0.27107 -0.53304 0.73892 255 255 255
0.19723 -0.46685 0.73892 255 255 255
0.27107 -0.46685 0.73892 255 255 255
0.27107 -0.46685 0.8483 255 255 255
0.19723 -0.46685 0.8483 255 255 255
-0.33257 -0.46467 0.67922 164 108 133
-0.33257 -0.46467 0.77631 164 108 133
0.33257 -0.46467 0.77631 164 108 133
0.33257 -0.46467 0.67922 164 108 133
0.33257 -0.42799 0.77631 164 108 133
-0.33257 -0.42799 0.77631 164 108 133
-0.53942 -0.4675 0.60107 75 60 79
-0.53942 -0.4675 1.55553 75 60 79
-0.46911 -0.53942 1.55553 75 60 79
-0.46911 -0.53942 0.60107 75 60 79
-0.53942 0.4675 0.60107 75 60 79
-0.53942 0.4675 1.55553 75 60 79
-0.32775 -0.53942 0.68659 75 60 79
-0.32775 -0.53942 0.84563 75 60 79
-0.4222 -0.48548 1.61885 75 60 79
-0.48548 -0.42075 1.61885 75 60 79
-0.48548 0.42075 1.61885 75 60 79
-0.46911 0.53942 1.55553 75 60 79
-0.46911 0.53942 0.60107 75 60 79
0.46911 0.53942 1.55553 75 60 79
0.46911 0.53942 0.60107 75 60 79
0.53942 0.4675 1.55553 75 60 79
0.53942 0.4675 0.60107 75 60 79
-0.4222 0.48548 1.61885 75 60 79
0.4222 0.48548 1.61885 75 60 79
0.48548 0.42075 1.61885 75 60 79
-0.4222 0.48548 0.53846 75 60 79
-0.48548 0.42075 0.53846 75 60 79
0.4222 0.48548 0.53846 75 60 79
0.48548 0.42075 0.53846 75 60 79
0.48548 -0.42075 0.53846 75 60 79
0.53942 -0.4675 0.60107 75 60 79
0.4222 -0.48548 0.53846 75 60 79
-0.48548 -0.42075 0.53846 75 60 79
-0.4222 -0.48548 0.53846 75 60 79
0.46911 -0.53942 0.60107 75 60 79
0.46911 -0.53942 1.55553 75 60 79
0.53942 -0.4675 1.55553 75 60 79
0.48548 -0.42075 1.61885 75 60 79
0.4222 -0.48548 1.61885 75 60 79
0.32775 -0.53942 0.68659 75 60 79
0.32775 -0.53942 0.84563 75 60 79
0.48548 -0.42075 1.61885 83 67 88
0.4222 -0.48548 1.61885 83 67 88
-0.4222 -0.48548 1.61885 83 67 88
-0.48548 -0.42075 1.61885 83 67 88
0.48548 0.42075 1.61885 83 67 88
-0.48548 0.42075 1.61885 83 67 88
0.4222 0.48548 1.61885 83 67 88
-0.4222 0.48548 1.61885 83 67 88
0.32775 -0.43254 0.68659 130 87 105
-0.32775 -0.43254 0.68659 130 87 105
-0.32775 -0.43254 0.84563 130 87 105
0.32775 -0.43254 0.84563 130 87 105
0.32775 -0.53942 0.68659 130 87 105
0.32775 -0.53942 0.84563 130 87 105
-0.32775 -0.53942 0.84563 130 87 105
-0.32775 -0.53942 0.68659 130 87 105
0.13559 -0.29259 1.32706 113 200 221
0.13559 -0.29259 1.817 113 200 221
0.22967 -0.3659 1.817 113 200 221
0.22967 -0.3659 1.32706 113 200 221
0.13559 0.21048 1.32706 113 200 221
0.13559 0.21048 1.817 113 200 221
0.22967 0.28379 1.32706 113 200 221
0.22967 0.28379 1.817 113 200 221
0.69121 -0.3659 1.32706 113 200 221
0.69121 -0.3659 1.817 113 200 221
0.69121 0.28379 1.817 113 200 221
0.69121 0.28379 1.32706 113 200 221
0.78529 -0.29259 1.32706 113 200 221
0.78529 -0.29259 1.817 113 200 221
0.78529 0.21048 1.817 113 200 221
0.78529 0.21048 1.32706 113 200 221
0.26813 0.22965 1.88206 113 200 221
0.65275 0.22965 1.88206 113 200 221
0.18974 0.16856 1.88206 113 200 221
0.18974 -0.25067 1.88206 113 200 221
0.26813 -0.31176 1.88206 113 200 221
0.65275 -0.31176 1.88206 113 200 221
0.73115 -0.25067 1.88206 113 200 221
0.73115 0.16856 1.88206 113 200 221
0.73115 -0.25067 1.88206 118 207 227
0.65275 -0.31176 1.88206 118 207 227
0.26813 -0.31176 1.88206 118 207 227
0.18974 -0.25067 1.88206 118 207 227
0.73115 0.16856 1.88206 118 207 227
0.18974 0.16856 1.88206 118 207 227
0.65275 0.22965 1.88206 118 207 227
0.26813 0.22965 1.88206 118 207 227
0.73115 0.16856 1.25594 113 200 221
0.65275 0.22965 1.25594 113 200 221
0.26813 0.22965 1.25594 113 200 221
0.18974 0.16856 1.25594 113 200 221
0.18974 -0.25067 1.25594 113 200 221
0.26813 -0.31176 1.25594 113 200 221
0.65275 -0.31176 1.25594 113 200 221
0.73115 -0.25067 1.25594 113 200 221
-0.09432 0.85828 1.45535 113 200 221
-0.09432 0.85828 1.79952 113 200 221
-0.02824 0.80678 1.79952 113 200 221
-0.02824 0.80678 1.45535 113 200 221
-0.09432 1.21167 1.45535 113 200 221
-0.09432 1.21167 1.79952 113 200 221
-0.02824 1.26317 1.45535 113 200 221
-0.02824 1.26317 1.79952 113 200 221
0.29599 0.80678 1.45535 113 200 221
0.29599 0.80678 1.79952 113 200 221
0.29599 1.26317 1.79952 113 200 221
0.29599 1.26317 1.45535 113 200 221
0.36207 0.85828 1.45535 113 200 221
0.36207 0.85828 1.79952 113 200 221
0.36207 1.21167 1.79952 113 200 221
0.36207 1.21167 1.45535 113 200 221
-0.00122 1.22514 1.84522 113 200 221
0.26897 1.22514 1.84522 113 200 221
-0.05629 1.18222 1.84522 113 200 221
-0.05629 0.88773 1.84522 113 200 221
-0.00122 0.84481 1.84522 113 200 221
0.26897 0.84481 1.84522 113 200 221
0.32404 0.88772 1.84522 113 200 221
0.32404 1.18222 1.84522 113 200 221
0.32404 0.88772 1.84522 118 207 227
0.26897 0.84481 1.84522 118 207 227
-0.00122 0.84481 1.84522 118 207 227
-0.05629 0.88773 1.84522 118 207 227
0.32404 1.18222 1.84522 118 207 227
-0.05629 1.18222 1.84522 118 207 227
0.26897 1.22514 1.84522 118 207 227
-0.00122 1.22514 1.84522 118 207 227
0.32404 1.18222 1.40539 113 200 221
0.26897 1.22514 1.40539 113 200 221
-0.00122 1.22514 1.40539 113 200 221
-0.05629 1.18222 1.40539 113 200 221
-0.05629 0.88773 1.40539 113 200 221
-0.00122 0.84481 1.40539 113 200 221
0.26897 0.84481 1.40539 113 200 221
0.32404 0.88772 1.40539 113 200 221
0.3561 0.54767 1.98937 113 200 221
0.3561 0.54767 2.22894 113 200 221
0.4021 0.51182 2.22894 113 200 221
0.4021 0.51182 1.98937 113 200 221
0.3561 0.79366 1.98937 113 200 221
0.3561 0.79366 2.22894 113 200 221
0.4021 0.82951 1.98937 113 200 221
0.4021 0.82951 2.22894 113 200 221
0.62779 0.51182 1.98937 113 200 221
0.62779 0.51182 2.22894 113 200 221
0.62779 0.82951 2.22894 113 200 221
0.62779 0.82951 1.98937 113 200 221
0.67378 0.54767 1.98937 113 200 221
0.67378 0.54767 2.22894 113 200 221
0.67378 0.79366 2.22894 113 200 221
0.67378 0.79366 1.98937 113 200 221
0.42091 0.80303 2.26075 113 200 221
0.60898 0.80303 2.26075 113 200 221
0.38258 0.77316 2.26075 113 200 221
0.38258 0.56817 2.26075 113 200 221
0.42091 0.5383 2.26075 113 200 221
0.60898 0.5383 2.26075 113 200 221
0.64731 0.56817 2.26075 113 200 221
0.64731 0.77316 2.26075 113 200 221
0.64731 0.56817 2.26075 118 207 227
0.60898 0.5383 2.26075 118 207 227
0.42091 0.5383 2.26075 118 207 227
0.38258 0.56817 2.26075 118 207 227
0.64731 0.77316 2.26075 118 207 227
0.38258 0.77316 2.26075 118 207 227
0.60898 0.80303 2.26075 118 207 227
0.42091 0.80303 2.26075 118 207 227
0.64731 0.77316 1.9546 113 200 221
0.60898 0.80303 1.9546 113 200 221
0.42091 0.80303 1.9546 113 200 221
0.38258 0.77316 1.9546 113 200 221
0.38258 0.56817 1.9546 113 200 221
0.42091 0.5383 1.9546 113 200 221
0.60898 0.5383 1.9546 113 200 221
0.64731 0.56817 1.9546 113 200 221
-0.2828 1.29129 1.49842 113 200 221
-0.2828 1.29129 1.71478 113 200 221
-0.24126 1.25891 1.71478 113 200 221
-0.24126 1.25891 1.49842 113 200 221
-0.2828 1.51345 1.49842 113 200 221
-0.2828 1.51345 1.71478 113 200 221
-0.24126 1.54583 1.49842 113 200 221
-0.24126 1.54583 1.71478 113 200 221
-0.03743 1.25891 1.49842 113 200 221
-0.03743 1.25891 1.71478 113 200 221
-0.03743 1.54583 1.71478 113 200 221
-0.03743 1.54583 1.49842 113 200 221
0.00411 1.29129 1.49842 113 200 221
0.00411 1.29129 1.71478 113 200 221
0.00411 1.51345 1.71478 113 200 221
0.00411 1.51345 1.49842 113 200 221
-0.22427 1.52192 1.74351 113 200 221
-0.05442 1.52192 1.74351 113 200 221
-0.2589 1.49494 1.74351 113 200 221
-0.2589 1.3098 1.74351 113 200 221
-0.22427 1.28282 1.74351 113 200 221
-0.05442 1.28282 1.74351 113 200 221
-0.0198 1.3098 1.74351 113 200 221
-0.0198 1.49494 1.74351 113 200 221
-0.0198 1.3098 1.74351 118 207 227
-0.05442 1.28282 1.74351 118 207 227
-0.22427 1.28282 1.74351 118 207 227
-0.2589 1.3098 1.74351 118 207 227
-0.0198 1.49494 1.74351 118 207 227
-0.2589 1.49494 1.74351 118 207 227
-0.05442 1.52192 1.74351 118 207 227
-0.22427 1.52192 1.74351 118 207 227
-0.0198 1.49494 1.46701 113 200 221
-0.05442 1.52192 1.46701 113 200 221
-0.22427 1.52192 1.46701 113 200 221
-0.2589 1.49494 1.46701 113 200 221
-0.2589 1.3098 1.46701 113 200 221
-0.22427 1.28282 1.46701 113 200 221
-0.05442 1.28282 1.46701 113 200 221
-0.0198 1.3098 1.46701 113 200 221
-0.59192 0.27395 0.36099 113 200 221
-0.59192 0.27395 0.88717 113 200 221
-0.49089 0.19522 0.88717 113 200 221
-0.49089 0.19522 0.36099 113 200 221
-0.59192 0.81423 0.36099 113 200 221
-0.59192 0.81423 0.88717 113 200 221
-0.49089 0.89296 0.36099 113 200 221
-0.49089 0.89296 0.88717 113 200 221
0.0048 0.19522 0.36099 113 200 221
0.0048 0.19522 0.88717 113 200 221
0.0048 0.89296 0.88717 113 200 221
0.0048 0.89296 0.36099 113 200 221
0.10583 0.27395 0.36099 113 200 221
0.10583 0.27395 0.88717 113 200 221
0.10583 0.81423 0.88717 113 200 221
0.10583 0.81423 0.36099 113 200 221
-0.44958 0.83482 0.95704 113 200 221
-0.03651 0.83482 0.95704 113 200 221
-0.53378 0.76921 0.95704 113 200 221
-0.53378 0.31897 0.95704 113 200 221
-0.44958 0.25336 0.95704 113 200 221
-0.03651 0.25336 0.95704 113 200 221
0.04768 0.31897 0.95704 113 200 221
0.04768 0.76921 0.95704 113 200 221
0.04768 0.31897 0.95704 118 207 227
-0.03651 0.25336 0.95704 118 207 227
-0.44958 0.25336 0.95704 118 207 227
-0.53378 0.31897 0.95704 118 207 227
0.04768 0.76921 0.95704 118 207 227
-0.53378 0.76921 0.95704 118 207 227
-0.03651 0.83482 0.95704 118 207 227
-0.44958 0.83482 0.95704 118 207 227
0.04768 0.76921 0.28461 113 200 221
-0.03651 0.83482 0.28461 113 200 221
-0.44958 0.83482 0.28461 113 200 221
-0.53378 0.76921 0.28461 113 200 221
-0.53378 0.31897 0.28461 113 200 221
-0.44958 0.25336 0.28461 113 200 221
-0.03651 0.25336 0.28461 113 200 221
0.04768 0.31897 0.28461 113 200 221
0.28031 0.27498 0.80734 113 200 221
0.28031 0.27498 1.30342 113 200 221
0.37556 0.20075 1.30342 113 200 221
0.37556 0.20075 0.80734 113 200 221
0.28031 0.78437 0.80734 113 200 221
0.28031 0.78437 1.30342 113 200 221
0.37556 0.8586 0.80734 113 200 221
0.37556 0.8586 1.30342 113 200 221
0.8429 0.20075 0.80734 113 200 221
0.8429 0.20075 1.30342 113 200 221
0.8429 0.8586 1.30342 113 200 221
0.8429 0.8586 0.80734 113 200 221
0.93815 0.27498 0.80734 113 200 221
0.93815 0.27498 1.30342 113 200 221
0.93815 0.78437 1.30342 113 200 221
0.93815 0.78437 0.80734 113 200 221
0.41451 0.80378 1.3693 113 200 221
0.80395 0.80378 1.3693 113 200 221
0.33513 0.74192 1.3693 113 200 221
0.33513 0.31743 1.3693 113 200 221
0.41451 0.25557 1.3693 113 200 221
0.80395 0.25557 1.3693 113 200 221
0.88333 0.31743 1.3693 113 200 221
0.88333 0.74192 1.3693 113 200 221
0.88333 0.31743 1.3693 118 207 227
0.80395 0.25557 1.3693 118 207 227
0.41451 0.25557 1.3693 118 207 227
0.33513 0.31743 1.3693 118 207 227
0.88333 0.74192 1.3693 118 207 227
0.33513 0.74192 1.3693 118 207 227
0.80395 0.80378 1.3693 118 207 227
0.41451 0.80378 1.3693 118 207 227
0.88333 0.74192 0.73532 113 200 221
0.80395 0.80378 0.73532 113 200 221
0.41451 0.80378 0.73532 113 200 221
0.33513 0.74192 0.73532 113 200 221
0.33513 0.31743 0.73532 113 200 221
0.41451 0.25557 0.73532 113 200 221
0.80395 0.25557 0.73532 113 200 221
0.88333 0.31743 0.73532 113 200 221
0.31582 -0.0698 0.41951 113 200 221
0.31582 -0.0698 0.70685 113 200 221
0.37099 -0.1128 0.70685 113 200 221
0.37099 -0.1128 0.41951 113 200 221
0.31582 0.22524 0.41951 113 200 221
0.31582 0.22524 0.70685 113 200 221
0.37099 0.26824 0.41951 113 200 221
0.37099 0.26824 0.70685 113 200 221
0.64169 -0.1128 0.41951 113 200 221
0.64169 -0.1128 0.70685 113 200 221
0.64169 0.26824 0.70685 113 200 221
0.64169 0.26824 0.41951 113 200 221
0.69686 -0.0698 0.41951 113 200 221
0.69686 -0.0698 0.70685 113 200 221
0.69686 0.22524 0.70685 113 200 221
0.69686 0.22524 0.41951 113 200 221
0.39355 0.23648 0.74501 113 200 221
0.61913 0.23648 0.74501 113 200 221
0.34757 0.20065 0.74501 113 200 221
0.34757 -0.04522 0.74501 113 200 221
0.39355 -0.08105 0.74501 113 200 221
0.61913 -0.08105 0.74501 113 200 221
0.66511 -0.04522 0.74501 113 200 221
0.66511 0.20065 0.74501 113 200 221
0.66511 -0.04522 0.74501 118 207 227
0.61913 -0.08105 0.74501 118 207 227
0.39355 -0.08105 0.74501 118 207 227
0.34757 -0.04522 0.74501 118 207 227
0.66511 0.20065 0.74501 118 207 227
0.34757 0.20065 0.74501 118 207 227
0.61913 0.23648 0.74501 118 207 227
0.39355 0.23648 0.74501 118 207 227
0.66511 0.20065 0.37779 113 200 221
0.61913 0.23648 0.37779 113 200 221
0.39355 0.23648 0.37779 113 200 221
0.34757 0.20065 0.37779 113 200 221
0.34757 -0.04522 0.37779 113 200 221
0.39355 -0.08105 0.37779 113 200 221
0.61913 -0.08105 0.37779 113 200 221
0.66511 -0.04522 0.37779 113 200 221
-0.66549 -0.26349 0.33057 113 200 221
-0.66549 -0.26349 0.61791 113 200 221
-0.61032 -0.30648 0.61791 113 200 221
-0.61032 -0.30648 0.33057 113 200 221
-0.66549 0.03156 0.33057 113 200 221
-0.66549 0.03156 0.61791 113 200 221
-0.61032 0.07456 0.33057 113 200 221
-0.61032 0.07456 0.61791 113 200 221
-0.33962 -0.30648 0.33057 113 200 221
-0.33962 -0.30648 0.61791 113 200 221
-0.33962 0.07456 0.61791 113 200 221
-0.33962 0.07456 0.33057 113 200 221
-0.28445 -0.26349 0.33057 113 200 221
-0.28445 -0.26349 0.61791 113 200 221
-0.28445 0.03156 0.61791 113 200 221
-0.28445 0.03156 0.33057 113 200 221
-0.58776 0.0428 0.65607 113 200 221
-0.36218 0.0428 0.65607 113 200 221
-0.63373 0.00697 0.65607 113 200 221
-0.63373 -0.2389 0.65607 113 200 221
-0.58776 -0.27473 0.65607 113 200 221
-0.36218 -0.27473 0.65607 113 200 221
-0.3162 -0.2389 0.65607 113 200 221
-0.3162 0.00697 0.65607 113 200 221
-0.3162 -0.2389 0.65607 118 207 227
-0.36218 -0.27473 0.65607 118 207 227
-0.58776 -0.27473 0.65607 118 207 227
-0.63373 -0.2389 0.65607 118 207 227
-0.3162 0.00697 0.65607 118 207 227
-0.63373 0.00697 0.65607 118 207 227
-0.36218 0.0428 0.65607 118 207 227
-0.58776 0.0428 0.65607 118 207 227
-0.3162 0.00697 0.28886 113 200 221
-0.36218 0.0428 0.28886 113 200 221
-0.58776 0.0428 0.28886 113 200 221
-0.63373 0.00697 0.28886 113 200 221
-0.63373 -0.2389 0.28886 113 200 221
-0.58776 -0.27473 0.28886 113 200 221
-0.36218 -0.27473 0.28886 113 200 221
-0.3162 -0.2389 0.28886 113 200 221
-0.77275 0.22183 0.82301 113 200 221
-0.77275 0.22183 1.16877 113 200 221
-0.70636 0.1701 1.16877 113 200 221
-0.70636 0.1701 0.82301 113 200 221
-0.77275 0.57686 0.82301 113 200 221
-0.77275 0.57686 1.16877 113 200 221
-0.70636 0.62859 0.82301 113 200 221
-0.70636 0.62859 1.16877 113 200 221
-0.38064 0.1701 0.82301 113 200 221
-0.38064 0.1701 1.16877 113 200 221
-0.38064 0.62859 1.16877 113 200 221
-0.38064 0.62859 0.82301 113 200 221
-0.31425 0.22183 0.82301 113 200 221
-0.31425 0.22183 1.16877 113 200 221
-0.31425 0.57686 1.16877 113 200 221
-0.31425 0.57686 0.82301 113 200 221
-0.67922 0.59039 1.21468 113 200 221
-0.40778 0.59039 1.21468 113 200 221
-0.73454 0.54727 1.21468 113 200 221
-0.73454 0.25142 1.21468 113 200 221
-0.67922 0.2083 1.21468 113 200 221
-0.40778 0.2083 1.21468 113 200 221
-0.35246 0.25142 1.21468 113 200 221
-0.35246 0.54727 1.21468 113 200 221
-0.35246 0.25142 1.21468 118 207 227
-0.40778 0.2083 1.21468 118 207 227
-0.67922 0.2083 1.21468 118 207 227
-0.73454 0.25142 1.21468 118 207 227
-0.35246 0.54727 1.21468 118 207 227
-0.73454 0.54727 1.21468 118 207 227
-0.40778 0.59039 1.21468 118 207 227
-0.67922 0.59039 1.21468 118 207 227
-0.35246 0.54727 0.77282 113 200 221
-0.40778 0.59039 0.77282 113 200 221
-0.67922 0.59039 0.77282 113 200 221
-0.73454 0.54727 0.77282 113 200 221
-0.73454 0.25142 0.77282 113 200 221
-0.67922 0.2083 0.77282 113 200 221
-0.40778 0.2083 0.77282 113 200 221
-0.35246 0.25142 0.77282 113 200 221
-0.91815 -0.28785 0.96665 113 200 221
-0.91815 -0.28785 1.31241 113 200 221
-0.85176 -0.33958 1.31241 113 200 221
-0.85176 -0.33958 0.96665 113 200 221
-0.91815 0.06718 0.96665 113 200 221
-0.91815 0.06718 1.31241 113 200 221
-0.85176 0.11891 0.96665 113 200 221
-0.85176 0.11891 1.31241 113 200 221
-0.52605 -0.33958 0.96665 113 200 221
-0.52605 -0.33958 1.31241 113 200 221
-0.52605 0.11891 1.31241 113 200 221
-0.52605 0.11891 0.96665 113 200 221
-0.45966 -0.28785 0.96665 113 200 221
-0.45966 -0.28785 1.31241 113 200 221
-0.45966 0.06718 1.31241 113 200 221
-0.45966 0.06718 0.96665 113 200 221
-0.82462 0.0807 1.35832 113 200 221
-0.55319 0.0807 1.35832 113 200 221
-0.87995 0.03759 1.35832 113 200 221
-0.87995 -0.25826 1.35832 113 200 221
-0.82462 -0.30138 1.35832 113 200 221
-0.55319 -0.30138 1.35832 113 200 221
-0.49786 -0.25826 1.35832 113 200 221
-0.49786 0.03759 1.35832 113 200 221
-0.49786 -0.25826 1.35832 118 207 227
-0.55319 -0.30138 1.35832 118 207 227
-0.82462 -0.30138 1.35832 118 207 227
-0.87995 -0.25826 1.35832 118 207 227
-0.49786 0.03759 1.35832 118 207 227
-0.87995 0.03759 1.35832 118 207 227
-0.55319 0.0807 1.35832 118 207 227
-0.82462 0.0807 1.35832 118 207 227
-0.49786 0.03759 0.91646 113 200 221
-0.55319 0.0807 0.91646 113 200 221
-0.82462 0.0807 0.91646 113 200 221
-0.87995 0.03759 0.91646 113 200 221
-0.87995 -0.25826 0.91646 113 200 221
-0.82462 -0.30138 0.91646 113 200 221
-0.55319 -0.30138 0.91646 113 200 221
-0.49786 -0.25826 0.91646 113 200 221
-0.66133 -0.2439 1.49604 113 200 221
-0.66133 -0.2439 1.75118 113 200 221
-0.61235 -0.28208 1.75118 113 200 221
-0.61235 -0.28208 1.49604 113 200 221
-0.66133 0.01807 1.49604 113 200 221
-0.66133 0.01807 1.75118 113 200 221
-0.61235 0.05625 1.49604 113 200 221
-0.61235 0.05625 1.75118 113 200 221
-0.37199 -0.28208 1.49604 113 200 221
-0.37199 -0.28208 1.75118 113 200 221
-0.37199 0.05625 1.75118 113 200 221
-0.37199 0.05625 1.49604 113 200 221
-0.323 -0.2439 1.49604 113 200 221
-0.323 -0.2439 1.75118 113 200 221
-0.323 0.01807 1.75118 113 200 221
-0.323 0.01807 1.49604 113 200 221
-0.59232 0.02806 1.78506 113 200 221
-0.39202 0.02806 1.78506 113 200 221
-0.63314 -0.00376 1.78506 113 200 221
-0.63314 -0.22207 1.78506 113 200 221
-0.59232 -0.25388 1.78506 113 200 221
-0.39202 -0.25388 1.78506 113 200 221
-0.3512 -0.22207 1.78506 113 200 221
-0.3512 -0.00376 1.78506 113 200 221
-0.3512 -0.22207 1.78506 118 207 227
-0.39202 -0.25388 1.78506 118 207 227
-0.59232 -0.25388 1.78506 118 207 227
-0.63314 -0.22207 1.78506 118 207 227
-0.3512 -0.00376 1.78506 118 207 227
-0.63314 -0.00376 1.78506 118 207 227
-0.39202 0.02806 1.78506 118 207 227
-0.59232 0.02806 1.78506 118 207 227
-0.3512 -0.00376 1.459 113 200 221
-0.39202 0.02806 1.459 113 200 221
-0.59232 0.02806 1.459 113 200 221
-0.63314 -0.00376 1.459 113 200 221
-0.63314 -0.22207 1.459 113 200 221
-0.59232 -0.25388 1.459 113 200 221
-0.39202 -0.25388 1.459 113 200 221
-0.3512 -0.22207 1.459 113 200 221
-0.22047 -0.10786 1.56077 113 200 221
-0.22047 -0.10786 1.97981 113 200 221
-0.14001 -0.17056 1.97981 113 200 221
-0.14001 -0.17056 1.56077 113 200 221
-0.22047 0.32241 1.56077 113 200 221
-0.22047 0.32241 1.97981 113 200 221
-0.14001 0.38512 1.56077 113 200 221
-0.14001 0.38512 1.97981 113 200 221
0.25475 -0.17056 1.56077 113 200 221
0.25475 -0.17056 1.97981 113 200 221
0.25475 0.38512 1.97981 113 200 221
0.25475 0.38512 1.56077 113 200 221
0.33521 -0.10786 1.56077 113 200 221
0.33521 -0.10786 1.97981 113 200 221
0.33521 0.32241 1.97981 113 200 221
0.33521 0.32241 1.56077 113 200 221
-0.10711 0.33881 2.03545 113 200 221
0.22185 0.33881 2.03545 113 200 221
-0.17416 0.28656 2.03545 113 200 221
-0.17416 -0.072 2.03545 113 200 221
-0.10711 -0.12425 2.03545 113 200 221
0.22185 -0.12425 2.03545 113 200 221
0.2889 -0.072 2.03545 113 200 221
0.2889 0.28656 2.03545 113 200 221
0.2889 -0.072 2.03545 118 207 227
0.22185 -0.12425 2.03545 118 207 227
-0.10711 -0.12425 2.03545 118 207 227
-0.17416 -0.072 2.03545 118 207 227
0.2889 0.28656 2.03545 118 207 227
-0.17416 0.28656 2.03545 118 207 227
0.22185 0.33881 2.03545 118 207 227
-0.10711 0.33881 2.03545 118 207 227
0.2889 0.28656 1.49994 113 200 221
0.22185 0.33881 1.49994 113 200 221
-0.10711 0.33881 1.49994 113 200 221
-0.17416 0.28656 1.49994 113 200 221
-0.17416 -0.072 1.49994 113 200 221
-0.10711 -0.12425 1.49994 113 200 221
0.22185 -0.12425 1.49994 113 200 221
0.2889 -0.072 1.49994 113 200 221
-0.71604 0.29544 1.19879 113 200 221
-0.71604 0.29544 1.74888 113 200 221
-0.61042 0.21313 1.74888 113 200 221
-0.61042 0.21313 1.19879 113 200 221
-0.71604 0.86027 1.19879 113 200 221
-0.71604 0.86027 1.74888 113 200 221
-0.61042 0.94258 1.19879 113 200 221
-0.61042 0.94258 1.74888 113 200 221
-0.09221 0.21313 1.19879 113 200 221
-0.09221 0.21313 1.74888 113 200 221
-0.09221 0.94258 1.74888 113 200 221
-0.09221 0.94258 1.19879 113 200 221
0.01341 0.29544 1.19879 113 200 221
0.01341 0.29544 1.74888 113 200 221
0.01341 0.86027 1.74888 113 200 221
0.01341 0.86027 1.19879 113 200 221
-0.56723 0.88179 1.82193 113 200 221
-0.13539 0.88179 1.82193 113 200 221
-0.65525 0.8132 1.82193 113 200 221
-0.65525 0.34251 1.82193 113 200 221
-0.56723 0.27392 1.82193 113 200 221
-0.13539 0.27392 1.82193 113 200 221
-0.04737 0.34251 1.82193 113 200 221
-0.04737 0.8132 1.82193 113 200 221
-0.04737 0.34251 1.82193 118 207 227
-0.13539 0.27392 1.82193 118 207 227
-0.56723 0.27392 1.82193 118 207 227
-0.65525 0.34251 1.82193 118 207 227
-0.04737 0.8132 1.82193 118 207 227
-0.65525 0.8132 1.82193 118 207 227
-0.13539 0.88179 1.82193 118 207 227
-0.56723 0.88179 1.82193 118 207 227
-0.04737 0.8132 1.11894 113 200 221
-0.13539 0.88179 1.11894 113 200 221
-0.56723 0.88179 1.11894 113 200 221
-0.65525 0.8132 1.11894 113 200 221
-0.65525 0.34251 1.11894 113 200 221
-0.56723 0.27392 1.11894 113 200 221
-0.13539 0.27392 1.11894 113 200 221
-0.04737 0.34251 1.11894 113 200 221
3 0 2 1
3 0 3 2
3 1 2 4
3 3 4 2
3 1 4 5
3 6 3 0
3 6 1 5
3 6 0 1
3 6 7 3
3 3 7 4
3 8 10 9
3 8 11 10
3 9 10 12
3 11 12 10
3 9 12 13
3 14 11 8
3 14 9 13
3 14 8 9
3 14 15 11
3 11 15 12
3 16 18 17
3 16 19 18
3 17 18 20
3 19 20 18
3 17 20 21
3 22 19 16
3 22 17 21
3 22 16 17
3 22 23 19
3 19 23 20
3 24 26 25
3 24 27 26
3 25 26 28
3 27 28 26
3 25 28 29
3 30 27 24
3 30 25 29
3 30 24 25
3 30 31 27
3 27 31 28
3 32 34 33
3 32 35 34
3 35 36 34
3 33 34 36
3 35 37 36
3 38 32 33
3 38 35 32
3 38 37 35
3 38 33 39
3 33 36 39
3 40 42 41
3 40 43 42
3 41 42 44
3 43 44 42
3 41 44 45
3 46 43 40
3 46 41 45
3 46 40 41
3 46 47 43
3 43 47 44
3 48 50 49
3 48 51 50
3 48 52 51
3 48 53 52
3 53 48 49
3 53 49 54
3 51 55 50
3 50 55 56
3 50 56 57
3 51 58 55
3 52 58 51
3 52 59 58
3 57 59 52
3 53 57 52
3 53 54 57
3 57 56 59
3 55 59 56
3 55 58 59
3 60 62 61
3 60 63 62
3 63 60 64
3 65 61 62
3 64 60 61
3 64 61 65
3 66 68 67
3 66 69 68
3 66 67 70
3 66 70 71
3 71 69 66
3 71 72 69
3 67 68 73
3 68 74 73
3 68 75 74
3 67 73 76
3 70 67 76
3 70 76 77
3 75 70 77
3 71 70 75
3 71 75 72
3 75 77 74
3 73 74 77
3 73 77 76
3 78 80 79
3 78 81 80
3 79 82 78
3 83 80 81
3 82 81 78
3 82 83 81
3 84 86 85
3 84 87 86
3 88 84 85
3 88 87 84
3 88 85 89
3 85 90 89
3 85 86 90
3 88 91 87
3 91 89 90
3 91 88 89
3 92 94 93
3 92 95 94
3 96 95 92
3 96 92 93
3 96 97 95
3 95 98 94
3 95 97 98
3 96 93 99
3 99 97 96
3 99 98 97
3 100 102 101
3 100 103 102
3 101 102 104
3 101 104 105
3 106 108 107
3 106 109 108
3 110 106 107
3 110 107 111
3 112 108 109
3 112 113 108
3 107 108 114
3 107 114 115
3 111 107 115
3 111 115 116
3 117 111 116
3 111 117 118
3 111 118 110
3 118 117 119
3 118 119 120
3 120 119 121
3 120 121 122
3 119 117 123
3 117 116 123
3 119 123 124
3 121 119 124
3 121 124 125
3 110 118 126
3 110 126 127
3 118 128 126
3 118 120 128
3 120 129 128
3 120 122 129
3 129 126 128
3 129 127 126
3 122 130 129
3 130 127 129
3 122 131 130
3 131 132 130
3 132 133 130
3 130 133 127
3 132 134 133
3 135 134 132
3 131 135 132
3 136 135 131
3 136 131 137
3 131 121 137
3 131 122 121
3 136 137 138
3 136 138 139
3 108 136 139
3 108 139 114
3 137 125 138
3 137 121 125
3 135 109 134
3 109 133 134
3 109 106 133
3 106 127 133
3 106 110 127
3 135 112 109
3 135 140 112
3 135 141 140
3 108 141 136
3 135 136 141
3 108 113 141
3 142 144 143
3 142 145 144
3 146 145 142
3 146 147 145
3 148 147 146
3 148 149 147
3 150 152 151
3 150 153 152
3 154 153 150
3 154 155 153
3 155 152 153
3 155 156 152
3 156 151 152
3 156 157 151
3 157 150 151
3 157 154 150
3 158 160 159
3 158 161 160
3 162 158 159
3 162 159 163
3 163 164 162
3 163 165 164
3 160 161 166
3 160 166 167
3 164 165 168
3 164 168 169
3 167 166 170
3 167 170 171
3 170 172 171
3 169 168 172
3 170 173 172
3 169 172 173
3 168 165 174
3 168 174 175
3 172 168 175
3 165 176 174
3 165 163 176
3 163 177 176
3 163 159 177
3 159 178 177
3 159 160 178
3 160 179 178
3 160 167 179
3 167 180 179
3 167 171 180
3 171 181 180
3 171 172 181
3 172 175 181
3 182 184 183
3 182 185 184
3 186 185 182
3 186 187 185
3 188 187 186
3 188 189 187
3 190 192 191
3 190 193 192
3 162 192 193
3 158 162 193
3 158 193 194
3 161 158 194
3 161 194 195
3 166 161 195
3 166 195 196
3 196 195 194
3 162 164 192
3 164 191 192
3 164 169 191
3 169 190 191
3 169 173 190
3 173 197 190
3 196 194 197
3 197 193 190
3 197 194 193
3 173 170 197
3 170 196 197
3 170 166 196
3 198 200 199
3 198 201 200
3 202 198 199
3 202 199 203
3 203 204 202
3 203 205 204
3 200 201 206
3 200 206 207
3 204 205 208
3 204 208 209
3 207 206 210
3 207 210 211
3 210 212 211
3 209 208 212
3 210 213 212
3 209 212 213
3 208 205 214
3 208 214 215
3 212 208 215
3 205 216 214
3 205 203 216
3 203 217 216
3 203 199 217
3 199 218 217
3 199 200 218
3 200 219 218
3 200 207 219
3 207 220 219
3 207 211 220
3 211 221 220
3 211 212 221
3 212 215 221
3 222 224 223
3 222 225 224
3 226 225 222
3 226 227 225
3 228 227 226
3 228 229 227
3 230 232 231
3 230 233 232
3 202 232 233
3 198 202 233
3 198 233 234
3 201 198 234
3 201 234 235
3 206 201 235
3 206 235 236
3 236 235 234
3 202 204 232
3 204 231 232
3 204 209 231
3 209 230 231
3 209 213 230
3 213 237 230
3 236 234 237
3 237 233 230
3 237 234 233
3 213 210 237
3 210 236 237
3 210 206 236
3 238 240 239
3 238 241 240
3 242 238 239
3 242 239 243
3 243 244 242
3 243 245 244
3 240 241 246
3 240 246 247
3 244 245 248
3 244 248 249
3 247 246 250
3 247 250 251
3 250 252 251
3 249 248 252
3 250 253 252
3 249 252 253
3 248 245 254
3 248 254 255
3 252 248 255
3 245 256 254
3 245 243 256
3 243 257 256
3 243 239 257
3 239 258 257
3 239 240 258
3 240 259 258
3 240 247 259
3 247 260 259
3 247 251 260
3 251 261 260
3 251 252 261
3 252 255 261
3 262 264 263
3 262 265 264
3 266 265 262
3 266 267 265
3 268 267 266
3 268 269 267
3 270 272 271
3 270 273 272
3 242 272 273
3 238 242 273
3 238 273 274
3 241 238 274
3 241 274 275
3 246 241 275
3 246 275 276
3 276 275 274
3 242 244 272
3 244 271 272
3 244 249 271
3 249 270 271
3 249 253 270
3 253 277 270
3 276 274 277
3 277 273 270
3 277 274 273
3 253 250 277
3 250 276 277
3 250 246 276
3 278 280 279
3 278 281 280
3 282 278 279
3 282 279 283
3 283 284 282
3 283 285 284
3 280 281 286
3 280 286 287
3 284 285 288
3 284 288 289
3 287 286 290
3 287 290 291
3 290 292 291
3 289 288 292
3 290 293 292
3 289 292 293
3 288 285 294
3 288 294 295
3 292 288 295
3 285 296 294
3 285 283 296
3 283 297 296
3 283 279 297
3 279 298 297
3 279 280 298
3 280 299 298
3 280 287 299
3 287 300 299
3 287 291 300
3 291 301 300
3 291 292 301
3 292 295 301
3 302 304 303
3 302 305 304
3 306 305 302
3 306 307 305
3 308 307 306
3 308 309 307
3 310 312 311
3 310 313 312
3 282 312 313
3 278 282 313
3 278 313 314
3 281 278 314
3 281 314 315
3 286 281 315
3 286 315 316
3 316 315 314
3 282 284 312
3 284 311 312
3 284 289 311
3 289 310 311
3 289 293 310
3 293 317 310
3 316 314 317
3 317 313 310
3 317 314 313
3 293 290 317
3 290 316 317
3 290 286 316
3 318 320 319
3 318 321 320
3 322 318 319
3 322 319 323
3 323 324 322
3 323 325 324
3 320 321 326
3 320 326 327
3 324 325 328
3 324 328 329
3 327 326 330
3 327 330 331
3 330 332 331
3 329 328 332
3 330 333 332
3 329 332 333
3 328 325 334
3 328 334 335
3 332 328 335
3 325 336 334
3 325 323 336
3 323 337 336
3 323 319 337
3 319 338 337
3 319 320 338
3 320 339 338
3 320 327 339
3 327 340 339
3 327 331 340
3 331 341 340
3 331 332 341
3 332 335 341
3 342 344 343
3 342 345 344
3 346 345 342
3 346 347 345
3 348 347 346
3 348 349 347
3 350 352 351
3 350 353 352
3 322 352 353
3 318 322 353
3 318 353 354
3 321 318 354
3 321 354 355
3 326 321 355
3 326 355 356
3 356 355 354
3 322 324 352
3 324 351 352
3 324 329 351
3 329 350 351
3 329 333 350
3 333 357 350
3 356 354 357
3 357 353 350
3 357 354 353
3 333 330 357
3 330 356 357
3 330 326 356
3 358 360 359
3 358 361 360
3 362 358 359
3 362 359 363
3 363 364 362
3 363 365 364
3 360 361 366
3 360 366 367
3 364 365 368
3 364 368 369
3 367 366 370
3 367 370 371
3 370 372 371
3 369 368 372
3 370 373 372
3 369 372 373
3 368 365 374
3 368 374 375
3 372 368 375
3 365 376 374
3 365 363 376
3 363 377 376
3 363 359 377
3 359 378 377
3 359 360 378
3 360 379 378
3 360 367 379
3 367 380 379
3 367 371 380
3 371 381 380
3 371 372 381
3 372 375 381
3 382 384 383
3 382 385 384
3 386 385 382
3 386 387 385
3 388 387 386
3 388 389 387
3 390 392 391
3 390 393 392
3 362 392 393
3 358 362 393
3 358 393 394
3 361 358 394
3 361 394 395
3 366 361 395
3 366 395 396
3 396 395 394
3 362 364 392
3 364 391 392
3 364 369 391
3 369 390 391
3 369 373 390
3 373 397 390
3 396 394 397
3 397 393 390
3 397 394 393
3 373 370 397
3 370 396 397
3 370 366 396
3 398 400 399
3 398 401 400
3 402 398 399
3 402 399 403
3 403 404 402
3 403 405 404
3 400 401 406
3 400 406 407
3 404 405 408
3 404 408 409
3 407 406 410
3 407 410 411
3 410 412 411
3 409 408 412
3 410 413 412
3 409 412 413
3 408 405 414
3 408 414 415
3 412 408 415
3 405 416 414
3 405 403 416
3 403 417 416
3 403 399 417
3 399 418 417
3 399 400 418
3 400 419 418
3 400 407 419
3 407 420 419
3 407 411 420
3 411 421 420
3 411 412 421
3 412 415 421
3 422 424 423
3 422 425 424
3 426 425 422
3 426 427 425
3 428 427 426
3 428 429 427
3 430 432 431
3 430 433 432
3 402 432 433
3 398 402 433
3 398 433 434
3 401 398 434
3 401 434 435
3 406 401 435
3 406 435 436
3 436 435 434
3 402 404 432
3 404 431 432
3 404 409 431
3 409 430 431
3 409 413 430
3 413 437 430
3 436 434 437
3 437 433 430
3 437 434 433
3 413 410 437
3 410 436 437
3 410 406 436
3 438 440 439
3 438 441 440
3 442 438 439
3 442 439 443
3 443 444 442
3 443 445 444
3 440 441 446
3 440 446 447
3 444 445 448
3 444 448 449
3 447 446 450
3 447 450 451
3 450 452 451
3 449 448 452
3 450 453 452
3 449 452 453
3 448 445 454
3 448 454 455
3 452 448 455
3 445 456 454
3 445 443 456
3 443 457 456
3 443 439 457
3 439 458 457
3 439 440 458
3 440 459 458
3 440 447 459
3 447 460 459
3 447 451 460
3 451 461 460
3 451 452 461
3 452 455 461
3 462 464 463
3 462 465 464
3 466 465 462
3 466 467 465
3 468 467 466
3 468 469 467
3 470 472 471
3 470 473 472
3 442 472 473
3 438 442 473
3 438 473 474
3 441 438 474
3 441 474 475
3 446 441 475
3 446 475 476
3 476 475 474
3 442 444 472
3 444 471 472
3 444 449 471
3 449 470 471
3 449 453 470
3 453 477 470
3 476 474 477
3 477 473 470
3 477 474 473
3 453 450 477
3 450 476 477
3 450 446 476
3 478 480 479
3 478 481 480
3 482 478 479
3 482 479 483
3 483 484 482
3 483 485 484
3 480 481 486
3 480 486 487
3 484 485 488
3 484 488 489
3 487 486 490
3 487 490 491
3 490 492 491
3 489 488 492
3 490 493 492
3 489 492 493
3 488 485 494
3 488 494 495
3 492 488 495
3 485 496 494
3 485 483 496
3 483 497 496
3 483 479 497
3 479 498 497
3 479 480 498
3 480 499 498
3 480 487 499
3 487 500 499
3 487 491 500
3 491 501 500
3 491 492 501
3 492 495 501
3 502 504 503
3 502 505 504
3 506 505 502
3 506 507 505
3 508 507 506
3 508 509 507
3 510 512 511
3 510 513 512
3 482 512 513
3 478 482 513
3 478 513 514
3 481 478 514
3 481 514 515
3 486 481 515
3 486 515 516
3 516 515 514
3 482 484 512
3 484 511 512
3 484 489 511
3 489 510 511
3 489 493 510
3 493 517 510
3 516 514 517
3 517 513 510
3 517 514 513
3 493 490 517
3 490 516 517
3 490 486 516
3 518 520 519
3 518 521 520
3 522 518 519
3 522 519 523
3 523 524 522
3 523 525 524
3 520 521 526
3 520 526 527
3 524 525 528
3 524 528 529
3 527 526 530
3 527 530 531
3 530 532 531
3 529 528 532
3 530 533 532
3 529 532 533
3 528 525 534
3 528 534 535
3 532 528 535
3 525 536 534
3 525 523 536
3 523 537 536
3 523 519 537
3 519 538 537
3 519 520 538
3 520 539 538
3 520 527 539
3 527 540 539
3 527 531 540
3 531 541 540
3 531 532 541
3 532 535 541
3 542 544 543
3 542 545 544
3 546 545 542
3 546 547 545
3 548 547 546
3 548 549 547
3 550 552 551
3 550 553 552
3 522 552 553
3 518 522 553
3 518 553 554
3 521 518 554
3 521 554 555
3 526 521 555
3 526 555 556
3 556 555 554
3 522 524 552
3 524 551 552
3 524 529 551
3 529 550 551
3 529 533 550
3 533 557 550
3 556 554 557
3 557 553 550
3 557 554 553
3 533 530 557
3 530 556 557
3 530 526 556
3 558 560 559
3 558 561 560
3 562 558 559
3 562 559 563
3 563 564 562
3 563 565 564
3 560 561 566
3 560 566 567
3 564 565 568
3 564 568 569
3 567 566 570
3 567 570 571
3 570 572 571
3 569 568 572
3 570 573 572
3 569 572 573
3 568 565 574
3 568 574 575
3 572 568 575
3 565 576 574
3 565 563 576
3 563 577 576
3 563 559 577
3 559 578 577
3 559 560 578
3 560 579 578
3 560 567 579
3 567 580 579
3 567 571 580
3 571 581 580
3 571 572 581
3 572 575 581
3 582 584 583
3 582 585 584
3 586 585 582
3 586 587 585
3 588 587 586
3 588 589 587
3 590 592 591
3 590 593 592
3 562 592 593
3 558 562 593
3 558 593 594
3 561 558 594
3 561 594 595
3 566 561 595
3 566 595 596
3 596 595 594
3 562 564 592
3 564 591 592
3 564 569 591
3 569 590 591
3 569 573 590
3 573 597 590
3 596 594 597
3 597 593 590
3 597 594 593
3 573 570 597
3 570 596 597
3 570 566 596
3 598 600 599
3 598 601 600
3 602 598 599
3 602 599 603
3 603 604 602
3 603 605 604
3 600 601 606
3 600 606 607
3 604 605 608
3 604 608 609
3 607 606 610
3 607 610 611
3 610 612 611
3 609 608 612
3 610 613 612
3 609 612 613
3 608 605 614
3 608 614 615
3 612 608 615
3 605 616 614
3 605 603 616
3 603 617 616
3 603 599 617
3 599 618 617
3 599 600 618
3 600 619 618
3 600 607 619
3 607 620 619
3 607 611 620
3 611 621 620
3 611 612 621
3 612 615 621
3 622 624 623
3 622 625 624
3 626 625 622
3 626 627 625
3 628 627 626
3 628 629 627
3 630 632 631
3 630 633 632
3 602 632 633
3 598 602 633
3 598 633 634
3 601 598 634
3 601 634 635
3 606 601 635
3 606 635 636
3 636 635 634
3 602 604 632
3 604 631 632
3 604 609 631
3 609 630 631
3 609 613 630
3 613 637 630
3 636 634 637
3 637 633 630
3 637 634 633
3 613 610 637
3 610 636 637
3 610 606 636
3 638 640 639
3 638 641 640
3 642 638 639
3 642 639 643
3 643 644 642
3 643 645 644
3 640 641 646
3 640 646 647
3 644 645 648
3 644 648 649
3 647 646 650
3 647 650 651
3 650 652 651
3 649 648 652
3 650 653 652
3 649 652 653
3 648 645 654
3 648 654 655
3 652 648 655
3 645 656 654
3 645 643 656
3 643 657 656
3 643 639 657
3 639 658 657
3 639 640 658
3 640 659 658
3 640 647 659
3 647 660 659
3 647 651 660
3 651 661 660
3 651 652 661
3 652 655 661
3 662 664 663
3 662 665 664
3 666 665 662
3 666 667 665
3 668 667 666
3 668 669 667
3 670 672 671
3 670 673 672
3 642 672 673
3 638 642 673
3 638 673 674
3 641 638 674
3 641 674 675
3 646 641 675
3 646 675 676
3 676 675 674
3 642 644 672
3 644 671 672
3 644 649 671
3 649 670 671
3 649 653 670
3 653 677 670
3 676 674 677
3 677 673 670
3 677 674 673
3 653 650 677
3 650 676 677
3 650 646 676
