mtllib Trapinch.mtl
v 0 0.139465 0.333603
vt -0.478922 0.89448
vn 0 -0.794792 0.606882
v -0.0597624 0.259943 0.405311
vn -0.2934989 -0.2645369 0.9186287
v -0.121474 0.186926 0.327354
vn -0.6245378 -0.5566588 0.5477988
v 0.0597624 0.259943 0.405311
vn 0.2934989 -0.2645369 0.9186287
v -0.109499 0.133201 0.221352
vn -0.5862096 -0.8051244 0.09018373
v 0.121474 0.186926 0.327354
vn 0.6245378 -0.5566588 0.5477988
v 0 0.0939594 0.212673
vn 0 -0.9989044 0.04679782
v 0.109499 0.133201 0.221352
vn 0.5862101 -0.805124 0.09018381
v -0.177173 0.255104 0.258134
vn -0.9705339 -0.1278 0.204282
v 0.177173 0.255104 0.258134
vn 0.9705339 -0.1278 0.204282
v -0.0676742 0.136182 0.114458
vn -0.335797 -0.7150849 -0.6131019
v 0.0676742 0.136182 0.114458
vn 0.3357972 -0.7150854 -0.6131013
v -0.1616 0.213612 0.153826
vn -0.8744952 -0.3472381 -0.33865
v -0.11945 0.326473 0.364549
vn -0.6923297 0.1837829 0.6977847
v -0.135336 0.366858 0.303517
vn -0.8323568 0.4370139 0.3408829
v 0.1616 0.213612 0.153826
vn 0.8744952 -0.3472381 -0.33865
v 0.135336 0.366858 0.303517
vn 0.8323568 0.4370139 0.3408829
v 0.11945 0.326473 0.364549
vn 0.6923297 0.1837829 0.6977847
v -0.0505361 0.423831 0.338139
vn -0.307721 0.763588 0.567663
v 0 0.358255 0.405907
vn 0 0.387965 0.9216741
v -0.120242 0.280696 0.0739306
vn -0.5749921 -0.0151348 -0.818019
v -0.164985 0.343339 0.177648
vn -0.950251 0.268884 -0.15724
v 0.0505361 0.423831 0.338139
vn 0.307721 0.763588 0.567663
v 0.110991 0.444714 0.226176
vn 0.5641479 0.8256738 -1.50571E-05
v 0.164985 0.343339 0.177648
vn 0.950251 0.268884 -0.15724
v 0.120242 0.280696 0.0739306
vn 0.5749921 -0.0151348 -0.818019
v 0 0.233765 0.0428638
vn 0 -0.2525509 -0.9675837
v -0.110991 0.444714 0.226176
vn -0.5641479 0.8256738 -1.50176E-05
v 0 0.459413 0.252317
vn 0 0.9922647 0.12414
v 0.119061 0.387495 0.123722
vn 0.5249081 0.5921451 -0.611421
v 0 0.448608 0.146142
vn 0 0.8717331 -0.4899811
v 0 0.356262 0.0562093
vn 0 0.4321612 -0.9017964
v -0.119061 0.387495 0.123722
vn -0.5249081 0.5921451 -0.611421
vt -0.627794 0.25146
vt -0.796449 0.824155
vt -0.965104 0.25146
vt -0.391854 0.773688
vt -0.246376 0.077067
vt -0.0589311 0.582191
vt -0.391854 0.774276
vt -0.796449 0.826007
o merged_0_0_node
g polygon_0
usemtl lambert2_mat_id
f 1/1/1 2/1/2 3/1/3
f 1/1/1 4/1/4 2/1/2
f 1/1/1 3/1/3 5/1/5
f 1/1/1 6/1/6 4/1/4
f 1/1/1 5/1/5 7/1/7
f 1/1/1 8/1/8 6/1/6
f 1/1/1 7/1/7 8/1/8
f 3/1/3 9/1/9 5/1/5
f 6/1/6 8/1/8 10/1/10
f 7/1/7 5/1/5 11/1/11
f 7/1/7 12/1/12 8/1/8
f 7/1/7 11/1/11 12/1/12
f 9/1/9 13/1/13 5/1/5
f 9/1/9 14/1/14 15/1/15
f 5/1/5 13/1/13 11/1/11
f 10/1/10 8/1/8 16/1/16
f 10/1/10 17/1/17 18/1/18
f 8/1/8 12/1/12 16/1/16
f 14/1/14 19/1/19 15/1/15
f 14/1/14 20/1/20 19/1/19
f 13/1/13 21/1/21 11/1/11
f 13/1/13 22/1/22 21/1/21
f 17/1/17 23/1/23 18/1/18
f 17/1/17 24/1/24 23/1/23
f 17/1/17 25/1/25 24/1/24
f 20/1/20 23/1/23 19/1/19
f 20/1/20 18/1/18 23/1/23
f 12/1/12 26/1/26 16/1/16
f 12/1/12 11/1/11 27/1/27
f 12/1/12 27/1/27 26/1/26
f 11/1/11 21/1/21 27/1/27
f 16/1/16 26/1/26 25/1/25
f 15/1/15 28/1/28 22/1/22
f 15/1/15 19/1/19 28/1/28
f 24/1/24 29/1/29 23/1/23
f 24/1/24 25/1/25 30/1/30
f 24/1/24 31/1/31 29/1/29
f 24/1/24 30/1/30 31/1/31
f 29/1/29 28/1/28 19/1/19
f 29/1/29 19/1/19 23/1/23
f 29/1/29 31/1/31 28/1/28
f 25/1/25 26/1/26 30/1/30
f 21/1/21 32/1/32 27/1/27
f 21/1/21 22/1/22 33/1/33
f 21/1/21 33/1/33 32/1/32
f 32/1/32 31/1/31 30/1/30
f 32/1/32 26/1/26 27/1/27
f 32/1/32 33/1/33 31/1/31
f 32/1/32 30/1/30 26/1/26
f 33/1/33 22/1/22 28/1/28
f 33/1/33 28/1/28 31/1/31
f 4/2/4 20/3/20 2/4/2
f 4/2/4 18/5/18 20/3/20
f 4/2/4 6/6/6 18/5/18
f 6/6/6 10/7/10 18/5/18
f 14/8/14 2/2/2 20/9/20
f 14/8/14 3/6/3 2/2/2
f 14/8/14 9/7/9 3/6/3
v 0 0.035083 0.00441552
vt 0.638726 0.00689897
vn 0 -0.999966 0.00824996
v 0.122318 0.04374007 -0.03154875
vt 0.718938 0.297579
vn 0.7457134 -0.6213427 0.2405094
v 0.122318 0.04858501 0.04703702
vt 0.543668 0.297578
vn 0.6468961 -0.6945011 -0.3149503
v 0.141043 -5.970879E-06 -0.1273614
vt 0.887208 0.326915
vn 0.2461946 -0.8426055 -0.4789616
v 0.134663 2.949017E-05 0.1155417
vt 0.390886 0.326915
vn 0.2383991 -0.8589011 0.4532713
v 0 0.05002515 -0.1538639
vt 0.991729 0.00689891
vn 0 -0.8199076 -0.5724959
v 0 0.04970262 0.1512983
vt 0.31114 0.00689891
vn 0 -0.7965519 0.6045701
v -0.141043 -5.970879E-06 -0.1273614
vn -0.2461946 -0.8426055 -0.4789616
v -0.134663 2.949017E-05 0.1155417
vn -0.2383991 -0.8589011 0.4532713
v -0.122318 0.04374007 -0.03154875
vn -0.7457134 -0.6213427 0.2405094
v -0.122318 0.04858501 0.04703702
vn -0.6468961 -0.6945011 -0.3149503
v 0 0.217293 0.000360301
vt 0.715221 0.820516
vn 0 0.9999781 0.00662452
v 0 0.185942 0.151251
vt 0.41159 0.820516
vn 0 0.655917 0.754833
v 0.0856673 0.185942 0.0725454
vt 0.569966 0.979802
vn 0.6716791 0.7088911 0.215222
v -0.0856673 0.185942 0.0725454
vn -0.6716791 0.7088911 0.215222
v 0.0856673 0.185942 -0.0744256
vt 0.865709 0.979802
vn 0.6416969 0.7136589 -0.28092
v -0.0856673 0.185942 -0.0744256
vn -0.6416969 0.7136589 -0.28092
v 0 0.188583 -0.122157
vt 0.961757 0.820516
vn 0 0.7100267 -0.7041748
v 0 0.09924515 0.1597916
vt 0.0716094 0.783823
vn 0 0.001536937 0.9999988
vt 0.0716094 0.669216
v 0.123032 0.09924515 0.104371
vt 0.367453 0.783823
vn 0.8103604 0.2919331 0.5080267
v -0.123032 0.09924515 0.104371
vn -0.8103604 0.2919331 0.5080267
vt 0.0716094 0.979635
vt 0.277606 0.979635
v 0 0.09924517 -0.1644359
vt 0.992413 0.614526
vn 0 0.2124031 -0.9771821
v 0.123032 0.09924517 -0.09987158
vt 0.7748 0.614526
vn 0.8036609 0.3387543 -0.4892593
vt 0.992413 0.496017
vt 0.992413 0.801999
v -0.123032 0.09924517 -0.09987158
vn -0.8036609 0.3387543 -0.4892593
vt 0.841838 0.801999
vt 0.343022 0.614526
vt 0.771753 0.614526
vt 0.409828 0.801999
vt 0.628336 0.488971
vt 0.463372 0.49992
vt 0.718339 0.801999
vt 0.185804 0.413394
vt 0.292986 0.663231
vt 0.015545 0.607074
vt 0.373233 0.4931
vt 0.229394 0.391471
vt 0.0108376 0.415421
vt 0.0094521 0.217134
vt 0.259196 0.103523
o merged_1_0_node
g polygon_0
usemtl lambert3_mat_id
f 34/10/34 35/11/35 36/12/36
f 34/10/34 37/13/37 35/11/35
f 34/10/34 36/12/36 38/14/38
f 34/10/34 39/15/39 37/13/37
f 34/10/34 38/14/38 40/16/40
f 34/10/34 41/13/41 39/15/39
f 34/10/34 40/16/40 42/14/42
f 34/10/34 43/11/43 41/13/41
f 34/10/34 42/14/42 44/12/44
f 34/10/34 44/12/44 43/11/43
f 45/17/45 46/18/46 47/19/47
f 45/17/45 48/19/48 46/18/46
f 45/17/45 47/19/47 49/20/49
f 45/17/45 50/20/50 48/19/48
f 45/17/45 49/20/49 51/21/51
f 45/17/45 51/21/51 50/20/50
f 52/22/52 40/23/40 53/24/53
f 52/22/52 54/24/54 40/23/40
f 52/22/52 53/24/53 46/25/46
f 52/22/52 46/25/46 54/24/54
f 53/24/53 47/26/47 46/25/46
f 54/24/54 46/25/46 48/26/48
f 55/27/55 56/28/56 39/29/39
f 55/27/55 51/30/51 56/28/56
f 55/27/55 39/29/39 57/28/57
f 55/27/55 57/28/57 51/30/51
f 56/28/56 51/30/51 49/31/49
f 57/28/57 50/31/50 51/30/51
f 53/32/53 56/33/56 47/34/47
f 53/32/53 35/35/35 56/33/56
f 53/32/53 36/36/36 35/35/35
f 47/34/47 56/33/56 49/37/49
f 54/32/54 48/34/48 57/33/57
f 54/32/54 57/33/57 43/35/43
f 54/32/54 43/35/43 44/36/44
f 48/34/48 50/37/50 57/33/57
f 38/38/38 53/39/53 40/40/40
f 38/38/38 36/41/36 53/39/53
f 40/40/40 54/39/54 42/38/42
f 54/39/54 44/41/44 42/38/42
f 56/42/56 35/43/35 37/44/37
f 56/42/56 37/44/37 39/45/39
f 39/45/39 41/44/41 57/42/57
f 41/44/41 43/43/43 57/42/57
vt 0.323851 0.799611
vt 1.09435 0.826021
vt 0.514471 1.01349
vt -0.32611 0.9389
o merged_2_0_node
g polygon_0
usemtl TEX_ANIM_EYE_mat_id
f 10/46/10 16/47/16 25/48/25
f 25/48/25 17/49/17 10/46/10
f 9/46/9 15/49/15 22/48/22
f 22/48/22 13/47/13 9/46/9
