ply
format ascii 1.0
element vertex 829
property float x
property float y
property float z
property uchar red
property uchar green
property uchar blue
element face 924
property list uchar int vertex_index
end_header
0.90331 -0.24699 1.39724 191 152 103
0.90331 -0.24699 1.77724 191 152 103
1.36368 -0.24699 1.77724 191 152 103
1.36368 -0.24699 1.39724 191 152 103
1.36368 -0.49639 1.77724 191 152 103
1.36368 -0.49639 1.39724 191 152 103
1.80329 -0.49639 1.39724 191 152 103
1.80329 0.13291 1.39724 191 152 103
1.74381 0.19 1.39724 191 152 103
0.90331 0.19 1.39724 191 152 103
1.74381 0.19 1.77724 191 152 103
1.80329 0.13291 1.77724 191 152 103
1.80329 -0.49639 1.77724 191 152 103
0.90331 0.19 1.77724 191 152 103
1.26199 -0.49639 1.36651 191 152 103
1.26199 -0.49639 1.80797 191 152 103
1.87653 -0.49639 1.36651 191 152 103
1.87653 -0.49639 1.80797 191 152 103
1.87653 -0.93695 1.58724 191 152 103
1.87653 -0.71667 1.80797 191 152 103
1.87653 -0.93695 1.36651 191 152 103
1.26199 -0.93695 1.58724 191 152 103
1.26199 -0.93695 1.36651 191 152 103
1.26199 -0.71872 1.36651 191 152 103
1.21291 -0.93695 1.36651 191 152 103
1.03626 -0.71872 1.36651 191 152 103
1.26199 -0.71872 1.58724 191 152 103
1.03626 -0.71872 1.58724 191 152 103
0.99314 -0.75992 1.36651 191 152 103
0.99314 -0.75992 1.58724 191 152 103
1.21291 -0.93695 1.58724 191 152 103
0.99314 -1.08031 1.36651 191 152 103
0.99314 -1.08031 1.58724 191 152 103
1.21291 -1.08031 1.36651 191 152 103
1.26199 -0.71667 1.80797 191 152 103
1.26199 -0.93695 1.80797 191 152 103
1.26199 -0.71667 2.00394 191 152 103
1.53315 -0.71667 1.80797 191 152 103
1.53315 -0.71667 2.00394 191 152 103
1.26199 -0.75771 2.04862 191 152 103
1.53315 -0.93695 1.80797 191 152 103
1.53315 -0.75771 2.04862 191 152 103
1.53315 -1.17134 2.04862 191 152 103
1.53315 -1.17134 1.80797 191 152 103
1.60942 -0.93695 1.80797 191 152 103
1.87653 -0.93695 1.80797 191 152 103
1.87653 -0.71667 2.00394 191 152 103
1.60942 -0.71667 2.00394 191 152 103
1.60942 -0.71667 1.80797 191 152 103
1.60942 -0.75771 2.04862 191 152 103
1.60942 -1.17134 1.80797 191 152 103
1.60942 -1.17134 2.04862 191 152 103
1.87653 -0.75771 2.04862 191 152 103
1.26199 -1.17134 2.04862 191 152 103
1.26199 -1.17134 1.80797 191 152 103
1.87653 -1.17134 2.04862 191 152 103
1.87653 -1.17134 1.80797 191 152 103
0.90331 -0.24699 1.77724 196 158 108
0.90331 0.19 1.77724 196 158 108
1.74381 0.19 1.77724 196 158 108
1.36368 -0.24699 1.77724 196 158 108
1.80329 0.13291 1.77724 196 158 108
1.36368 -0.49639 1.77724 196 158 108
1.80329 -0.49639 1.77724 196 158 108
1.26199 -0.49639 1.80797 196 158 108
1.53315 -0.71667 1.80797 196 158 108
1.26199 -0.71667 1.80797 196 158 108
1.87653 -0.49639 1.80797 196 158 108
1.60942 -0.71667 1.80797 196 158 108
1.53315 -0.93695 1.80797 196 158 108
1.60942 -0.93695 1.80797 196 158 108
1.87653 -0.71667 1.80797 196 158 108
1.26199 -0.93695 1.58724 196 158 108
1.21291 -0.93695 1.58724 196 158 108
1.03626 -0.71872 1.58724 196 158 108
1.26199 -0.71872 1.58724 196 158 108
0.99314 -0.75992 1.58724 196 158 108
0.99314 -1.08031 1.58724 196 158 108
1.21291 -1.08031 1.58724 196 158 108
1.21291 -1.08031 1.58724 191 152 103
0.97398 -0.15904 1.76931 191 152 103
0.97398 -0.15904 1.84682 191 152 103
1.25286 -0.15904 1.84682 191 152 103
1.25286 -0.15904 1.76931 191 152 103
1.25286 0.10623 1.84682 191 152 103
1.25286 0.10623 1.76931 191 152 103
0.97398 0.10623 1.84682 191 152 103
0.97398 0.10623 1.76931 191 152 103
1.22838 -0.13575 1.86531 191 152 103
0.99846 -0.13575 1.86531 191 152 103
1.22838 0.08295 1.86531 191 152 103
0.99846 0.08295 1.86531 191 152 103
0.99846 -0.13575 1.86531 196 158 108
0.99846 0.08295 1.86531 196 158 108
1.22838 0.08295 1.86531 196 158 108
1.22838 -0.13575 1.86531 196 158 108
1.74223 -0.44202 1.76931 191 152 103
1.74223 -0.44202 1.84682 191 152 103
1.74223 -0.16314 1.84682 191 152 103
1.74223 -0.16314 1.76931 191 152 103
1.47696 -0.16314 1.84682 191 152 103
1.47696 -0.16314 1.76931 191 152 103
1.47696 -0.44202 1.84682 191 152 103
1.47696 -0.44202 1.76931 191 152 103
1.72454 -0.18174 1.86659 191 152 103
1.72454 -0.42343 1.86659 191 152 103
1.49464 -0.18174 1.86659 191 152 103
1.49464 -0.42343 1.86659 191 152 103
1.72454 -0.42343 1.86659 196 158 108
1.49464 -0.42343 1.86659 196 158 108
1.49464 -0.18174 1.86659 196 158 108
1.72454 -0.18174 1.86659 196 158 108
1.44603 0.17062 1.72568 196 158 108
1.44603 0.24813 1.72568 196 158 108
1.72491 0.24813 1.72568 196 158 108
1.72491 0.17062 1.72568 196 158 108
1.71096 0.26513 1.71242 196 158 108
1.45997 0.26513 1.71242 196 158 108
1.45997 0.26513 1.71242 191 152 103
1.45997 0.26513 1.47367 191 152 103
1.71096 0.26513 1.47367 191 152 103
1.71096 0.26513 1.71242 191 152 103
1.72491 0.24813 1.72568 191 152 103
1.72491 0.24813 1.46041 191 152 103
1.72491 0.17062 1.72568 191 152 103
1.72491 0.17062 1.46041 191 152 103
1.44603 0.24813 1.46041 191 152 103
1.44603 0.17062 1.46041 191 152 103
1.44603 0.24813 1.72568 191 152 103
1.44603 0.17062 1.72568 191 152 103
1.41698 -0.40035 1.33865 191 152 103
1.41698 -0.40035 1.4145 191 152 103
1.74421 -0.40035 1.4145 191 152 103
1.74421 -0.40035 1.33865 191 152 103
1.74421 -0.07312 1.4145 191 152 103
1.74421 -0.07312 1.33865 191 152 103
1.41698 -0.07312 1.4145 191 152 103
1.41698 -0.07312 1.33865 191 152 103
1.72512 -0.09221 1.31793 191 152 103
1.43607 -0.09221 1.31793 191 152 103
1.72512 -0.38126 1.31793 191 152 103
1.43607 -0.38126 1.31793 191 152 103
1.53315 -0.71667 2.00394 196 158 108
1.53315 -0.75771 2.04862 196 158 108
1.26199 -0.75771 2.04862 196 158 108
1.26199 -0.71667 2.00394 196 158 108
1.26199 -1.17134 2.04862 196 158 108
1.53315 -1.17134 2.04862 196 158 108
1.87653 -0.71667 2.00394 196 158 108
1.87653 -0.75771 2.04862 196 158 108
1.60942 -0.75771 2.04862 196 158 108
1.60942 -0.71667 2.00394 196 158 108
1.60942 -1.17134 2.04862 196 158 108
1.87653 -1.17134 2.04862 196 158 108
-0.90331 -0.24699 1.39724 191 152 103
-1.36368 -0.24699 1.39724 191 152 103
-1.36368 -0.24699 1.77724 191 152 103
-0.90331 -0.24699 1.77724 191 152 103
-1.36368 -0.49639 1.39724 191 152 103
-1.36368 -0.49639 1.77724 191 152 103
-1.80329 -0.49639 1.39724 191 152 103
-1.80329 0.13291 1.39724 191 152 103
-1.74381 0.19 1.39724 191 152 103
-0.90331 0.19 1.39724 191 152 103
-1.74381 0.19 1.77724 191 152 103
-1.80329 0.13291 1.77724 191 152 103
-1.80329 -0.49639 1.77724 191 152 103
-0.90331 0.19 1.77724 191 152 103
-1.26199 -0.49639 1.36651 191 152 103
-1.26199 -0.49639 1.80797 191 152 103
-1.87653 -0.49639 1.80797 191 152 103
-1.87653 -0.49639 1.36651 191 152 103
-1.87653 -0.93695 1.58724 191 152 103
-1.87653 -0.71667 1.80797 191 152 103
-1.87653 -0.93695 1.36651 191 152 103
-1.26199 -0.93695 1.58724 191 152 103
-1.26199 -0.93695 1.36651 191 152 103
-1.26199 -0.71872 1.36651 191 152 103
-1.21291 -0.93695 1.36651 191 152 103
-1.03626 -0.71872 1.36651 191 152 103
-1.26199 -0.71872 1.58724 191 152 103
-1.03626 -0.71872 1.58724 191 152 103
-0.99314 -0.75992 1.36651 191 152 103
-0.99314 -0.75992 1.58724 191 152 103
-1.21291 -0.93695 1.58724 191 152 103
-0.99314 -1.08031 1.36651 191 152 103
-0.99314 -1.08031 1.58724 191 152 103
-1.21291 -1.08031 1.36651 191 152 103
-1.26199 -0.71667 1.80797 191 152 103
-1.26199 -0.93695 1.80797 191 152 103
-1.53315 -0.93695 1.80797 191 152 103
-1.26199 -0.71667 2.00394 191 152 103
-1.53315 -0.71667 1.80797 191 152 103
-1.53315 -0.71667 2.00394 191 152 103
-1.26199 -0.75771 2.04862 191 152 103
-1.53315 -0.75771 2.04862 191 152 103
-1.53315 -1.17134 2.04862 191 152 103
-1.53315 -1.17134 1.80797 191 152 103
-1.60942 -0.93695 1.80797 191 152 103
-1.87653 -0.93695 1.80797 191 152 103
-1.87653 -0.71667 2.00394 191 152 103
-1.60942 -0.71667 2.00394 191 152 103
-1.60942 -0.71667 1.80797 191 152 103
-1.60942 -0.75771 2.04862 191 152 103
-1.60942 -1.17134 1.80797 191 152 103
-1.60942 -1.17134 2.04862 191 152 103
-1.87653 -0.75771 2.04862 191 152 103
-1.26199 -1.17134 1.80797 191 152 103
-1.26199 -1.17134 2.04862 191 152 103
-1.87653 -1.17134 2.04862 191 152 103
-1.87653 -1.17134 1.80797 191 152 103
-0.90331 -0.24699 1.77724 196 158 108
-1.36368 -0.24699 1.77724 196 158 108
-1.74381 0.19 1.77724 196 158 108
-0.90331 0.19 1.77724 196 158 108
-1.80329 0.13291 1.77724 196 158 108
-1.36368 -0.49639 1.77724 196 158 108
-1.80329 -0.49639 1.77724 196 158 108
-1.26199 -0.49639 1.80797 196 158 108
-1.26199 -0.71667 1.80797 196 158 108
-1.53315 -0.71667 1.80797 196 158 108
-1.87653 -0.49639 1.80797 196 158 108
-1.60942 -0.71667 1.80797 196 158 108
-1.53315 -0.93695 1.80797 196 158 108
-1.60942 -0.93695 1.80797 196 158 108
-1.87653 -0.71667 1.80797 196 158 108
-1.26199 -0.93695 1.58724 196 158 108
-1.26199 -0.71872 1.58724 196 158 108
-1.03626 -0.71872 1.58724 196 158 108
-1.21291 -0.93695 1.58724 196 158 108
-0.99314 -0.75992 1.58724 196 158 108
-0.99314 -1.08031 1.58724 196 158 108
-1.21291 -1.08031 1.58724 196 158 108
-1.21291 -1.08031 1.58724 191 152 103
-0.97398 -0.15904 1.76931 191 152 103
-1.25286 -0.15904 1.76931 191 152 103
-1.25286 -0.15904 1.84682 191 152 103
-0.97398 -0.15904 1.84682 191 152 103
-1.25286 0.10623 1.84682 191 152 103
-1.25286 0.10623 1.76931 191 152 103
-0.97398 0.10623 1.84682 191 152 103
-0.97398 0.10623 1.76931 191 152 103
-1.22838 -0.13575 1.86531 191 152 103
-0.99846 -0.13575 1.86531 191 152 103
-1.22838 0.08295 1.86531 191 152 103
-0.99846 0.08295 1.86531 191 152 103
-0.99846 -0.13575 1.86531 196 158 108
-1.22838 -0.13575 1.86531 196 158 108
-1.22838 0.08295 1.86531 196 158 108
-0.99846 0.08295 1.86531 196 158 108
-1.74223 -0.44202 1.76931 191 152 103
-1.74223 -0.16314 1.76931 191 152 103
-1.74223 -0.16314 1.84682 191 152 103
-1.74223 -0.44202 1.84682 191 152 103
-1.47696 -0.16314 1.84682 191 152 103
-1.47696 -0.16314 1.76931 191 152 103
-1.47696 -0.44202 1.84682 191 152 103
-1.47696 -0.44202 1.76931 191 152 103
-1.72454 -0.18174 1.86659 191 152 103
-1.72454 -0.42343 1.86659 191 152 103
-1.49464 -0.18174 1.86659 191 152 103
-1.49464 -0.42343 1.86659 191 152 103
-1.72454 -0.42343 1.86659 196 158 108
-1.72454 -0.18174 1.86659 196 158 108
-1.49464 -0.18174 1.86659 196 158 108
-1.49464 -0.42343 1.86659 196 158 108
-1.44603 0.17062 1.72568 196 158 108
-1.72491 0.17062 1.72568 196 158 108
-1.72491 0.24813 1.72568 196 158 108
-1.44603 0.24813 1.72568 196 158 108
-1.71096 0.26513 1.71242 196 158 108
-1.45997 0.26513 1.71242 196 158 108
-1.45997 0.26513 1.71242 191 152 103
-1.71096 0.26513 1.71242 191 152 103
-1.71096 0.26513 1.47367 191 152 103
-1.45997 0.26513 1.47367 191 152 103
-1.72491 0.24813 1.72568 191 152 103
-1.72491 0.24813 1.46041 191 152 103
-1.72491 0.17062 1.72568 191 152 103
-1.72491 0.17062 1.46041 191 152 103
-1.44603 0.24813 1.46041 191 152 103
-1.44603 0.24813 1.72568 191 152 103
-1.44603 0.17062 1.46041 191 152 103
-1.44603 0.17062 1.72568 191 152 103
-1.41698 -0.40035 1.33865 191 152 103
-1.74421 -0.40035 1.33865 191 152 103
-1.74421 -0.40035 1.4145 191 152 103
-1.41698 -0.40035 1.4145 191 152 103
-1.74421 -0.07312 1.4145 191 152 103
-1.74421 -0.07312 1.33865 191 152 103
-1.41698 -0.07312 1.4145 191 152 103
-1.41698 -0.07312 1.33865 191 152 103
-1.72512 -0.09221 1.31793 191 152 103
-1.43607 -0.09221 1.31793 191 152 103
-1.72512 -0.38126 1.31793 191 152 103
-1.43607 -0.38126 1.31793 191 152 103
-1.53315 -0.71667 2.00394 196 158 108
-1.26199 -0.71667 2.00394 196 158 108
-1.26199 -0.75771 2.04862 196 158 108
-1.53315 -0.75771 2.04862 196 158 108
-1.26199 -1.17134 2.04862 196 158 108
-1.53315 -1.17134 2.04862 196 158 108
-1.87653 -0.71667 2.00394 196 158 108
-1.60942 -0.71667 2.00394 196 158 108
-1.60942 -0.75771 2.04862 196 158 108
-1.87653 -0.75771 2.04862 196 158 108
-1.60942 -1.17134 2.04862 196 158 108
-1.87653 -1.17134 2.04862 196 158 108
0.22688 -0.35951 0.02292 191 152 103
0.22688 -0.35951 0.20292 191 152 103
0.58903 -0.35944 0.20292 191 152 103
0.58903 -0.35944 0.02292 191 152 103
0.6279 -0.27583 0.02292 191 152 103
0.62789 -0.27561 0.20292 191 152 103
0.18783 -0.27591 0.02292 191 152 103
0.18782 -0.27569 0.20292 191 152 103
0.62789 -0.27561 0.38372 191 152 103
0.18782 -0.27569 0.38372 191 152 103
0.18774 0.24271 0.38372 191 152 103
0.18774 0.24271 0.02292 191 152 103
0.22588 0.29073 0.38372 191 152 103
0.22588 0.29073 0.02292 191 152 103
0.58965 0.2908 0.02292 191 152 103
0.58965 0.2908 0.38372 191 152 103
0.62781 0.24279 0.38372 191 152 103
0.62781 0.24279 0.02292 191 152 103
0.22688 -0.35951 0.20292 196 158 108
0.18782 -0.27569 0.20292 196 158 108
0.62789 -0.27561 0.20292 196 158 108
0.58903 -0.35944 0.20292 196 158 108
-0.22688 -0.35951 0.02292 191 152 103
-0.58903 -0.35944 0.02292 191 152 103
-0.58903 -0.35944 0.20292 191 152 103
-0.22688 -0.35951 0.20292 191 152 103
-0.6279 -0.27583 0.02292 191 152 103
-0.62789 -0.27561 0.20292 191 152 103
-0.18783 -0.27591 0.02292 191 152 103
-0.18782 -0.27569 0.20292 191 152 103
-0.62789 -0.27561 0.38372 191 152 103
-0.18782 -0.27569 0.38372 191 152 103
-0.18774 0.24271 0.38372 191 152 103
-0.18774 0.24271 0.02292 191 152 103
-0.22588 0.29073 0.38372 191 152 103
-0.58965 0.2908 0.38372 191 152 103
-0.58965 0.2908 0.02292 191 152 103
-0.22588 0.29073 0.02292 191 152 103
-0.62781 0.24279 0.38372 191 152 103
-0.62781 0.24279 0.02292 191 152 103
-0.22688 -0.35951 0.20292 196 158 108
-0.58903 -0.35944 0.20292 196 158 108
-0.62789 -0.27561 0.20292 196 158 108
-0.18782 -0.27569 0.20292 196 158 108
0.36088 -0.59511 2.15631 191 152 103
0.36228 -0.59372 2.2601 191 152 103
0.7343 -0.59372 2.2601 191 152 103
0.73569 -0.59511 2.15631 191 152 103
0.7343 -0.2217 2.2601 191 152 103
0.73569 -0.22031 2.15631 191 152 103
0.36088 -0.22031 2.15631 191 152 103
0.36228 -0.2217 2.2601 191 152 103
0.71259 -0.57202 2.28241 191 152 103
0.38398 -0.57202 2.28241 191 152 103
0.71259 -0.2434 2.28241 191 152 103
0.38398 -0.2434 2.28241 191 152 103
0.38398 -0.57202 2.28241 196 158 108
0.38398 -0.2434 2.28241 196 158 108
0.71259 -0.2434 2.28241 196 158 108
0.71259 -0.57202 2.28241 196 158 108
-0.43607 0.11599 2.14124 191 152 103
-0.43432 0.11774 2.30317 191 152 103
0.14695 0.11774 2.30317 191 152 103
0.1487 0.11599 2.14124 191 152 103
0.14695 0.69901 2.30317 191 152 103
0.1487 0.70076 2.14124 191 152 103
-0.43607 0.70076 2.14124 191 152 103
-0.43432 0.69901 2.30317 191 152 103
0.11788 0.1468 2.33031 191 152 103
-0.40526 0.1468 2.33031 191 152 103
0.11788 0.66994 2.33031 191 152 103
-0.40526 0.66994 2.33031 191 152 103
-0.40526 0.1468 2.33031 196 158 108
-0.40526 0.66994 2.33031 196 158 108
0.11788 0.66994 2.33031 196 158 108
0.11788 0.1468 2.33031 196 158 108
-0.68165 -0.36631 2.15631 191 152 103
-0.68036 -0.36503 2.2601 191 152 103
-0.30813 -0.36503 2.2601 191 152 103
-0.30685 -0.36631 2.15631 191 152 103
-0.30813 0.00721 2.2601 191 152 103
-0.30685 0.00849 2.15631 191 152 103
-0.68165 0.00849 2.15631 191 152 103
-0.68036 0.00721 2.2601 191 152 103
-0.33605 -0.33711 2.28231 191 152 103
-0.65245 -0.33711 2.28231 191 152 103
-0.33605 -0.02071 2.28231 191 152 103
-0.65245 -0.02071 2.28231 191 152 103
-0.65245 -0.33711 2.28231 196 158 108
-0.65245 -0.02071 2.28231 196 158 108
-0.33605 -0.02071 2.28231 196 158 108
-0.33605 -0.33711 2.28231 196 158 108
-0.1469 0.90825 1.20041 196 158 108
-0.14637 1.03621 1.19987 196 158 108
0.31467 1.03621 1.19987 196 158 108
0.3152 0.90825 1.20041 196 158 108
0.29162 1.06913 1.17682 196 158 108
-0.12331 1.06913 1.17682 196 158 108
-0.12331 1.06913 1.17682 191 152 103
-0.12331 1.06913 0.76189 191 152 103
0.29162 1.06913 0.76189 191 152 103
0.29162 1.06913 1.17682 191 152 103
0.31467 1.03621 1.19987 191 152 103
0.31467 1.03621 0.73884 191 152 103
0.3152 0.90825 1.20041 191 152 103
0.3152 0.90825 0.7383 191 152 103
-0.14637 1.03621 0.73884 191 152 103
-0.1469 0.90825 0.7383 191 152 103
-0.14637 1.03621 1.19987 191 152 103
-0.1469 0.90825 1.20041 191 152 103
-0.65305 0.90952 1.85447 196 158 108
-0.6524 1.02945 1.85382 196 158 108
-0.30128 1.02945 1.85382 196 158 108
-0.30064 0.90952 1.85447 196 158 108
-0.32176 1.0502 1.83334 196 158 108
-0.63192 1.0502 1.83334 196 158 108
-0.63192 1.0502 1.83334 191 152 103
-0.63192 1.0502 1.52318 191 152 103
-0.32176 1.0502 1.52318 191 152 103
-0.32176 1.0502 1.83334 191 152 103
-0.30128 1.02945 1.85382 191 152 103
-0.30128 1.02945 1.5027 191 152 103
-0.30064 0.90952 1.85447 191 152 103
-0.30064 0.90952 1.50206 191 152 103
-0.6524 1.02945 1.5027 191 152 103
-0.65305 0.90952 1.50206 191 152 103
-0.6524 1.02945 1.85382 191 152 103
-0.65305 0.90952 1.85447 191 152 103
0.35286 0.90952 1.73358 196 158 108
0.35459 1.02945 1.73185 196 158 108
0.70355 1.02945 1.73185 196 158 108
0.70527 0.90952 1.73358 196 158 108
0.68319 1.05665 1.7115 196 158 108
0.37495 1.05665 1.7115 196 158 108
0.37495 1.05665 1.7115 191 152 103
0.37495 1.05665 1.40325 191 152 103
0.68319 1.05665 1.40325 191 152 103
0.68319 1.05665 1.7115 191 152 103
0.70355 1.02945 1.73185 191 152 103
0.70355 1.02945 1.3829 191 152 103
0.70527 0.90952 1.73358 191 152 103
0.70527 0.90952 1.38117 191 152 103
0.35459 1.02945 1.3829 191 152 103
0.35286 0.90952 1.38117 191 152 103
0.35459 1.02945 1.73185 191 152 103
0.35286 0.90952 1.73358 191 152 103
0.90159 0.47686 1.19279 196 158 108
1.02152 0.47532 1.19126 196 158 108
1.02152 0.12598 1.19126 196 158 108
0.90159 0.12445 1.19279 196 158 108
1.04767 0.14636 1.17088 196 158 108
1.04767 0.45494 1.17088 196 158 108
1.04767 0.45494 1.17088 191 152 103
1.04767 0.45494 0.8623 191 152 103
1.04767 0.14636 0.8623 191 152 103
1.04767 0.14636 1.17088 191 152 103
1.02152 0.12598 1.19126 191 152 103
1.02152 0.12598 0.84192 191 152 103
0.90159 0.12445 1.19279 191 152 103
0.90159 0.12445 0.84038 191 152 103
1.02152 0.47532 0.84192 191 152 103
0.90159 0.47686 0.84038 191 152 103
1.02152 0.47532 1.19126 191 152 103
0.90159 0.47686 1.19279 191 152 103
0.90971 -0.1541 0.92038 196 158 108
0.99604 -0.15502 0.91946 196 158 108
0.99604 -0.38645 0.91946 196 158 108
0.90971 -0.38737 0.92038 196 158 108
1.01626 -0.37295 0.90596 196 158 108
1.01626 -0.16852 0.90596 196 158 108
1.01626 -0.16852 0.90596 191 152 103
1.01626 -0.16852 0.70152 191 152 103
1.01626 -0.37295 0.70152 191 152 103
1.01626 -0.37295 0.90596 191 152 103
0.99604 -0.38645 0.91946 191 152 103
0.99604 -0.38645 0.68802 191 152 103
0.90971 -0.38737 0.92038 191 152 103
0.90971 -0.38737 0.6871 191 152 103
0.99604 -0.15502 0.68802 191 152 103
0.90971 -0.1541 0.6871 191 152 103
0.99604 -0.15502 0.91946 191 152 103
0.90971 -0.1541 0.92038 191 152 103
-0.90958 -0.42607 1.03333 196 158 108
-1.02952 -0.42463 1.03189 196 158 108
-1.02952 -0.07511 1.03189 196 158 108
-0.90958 -0.07366 1.03333 196 158 108
-1.05781 -0.09549 1.0115 196 158 108
-1.05781 -0.40424 1.0115 196 158 108
-1.05781 -0.40424 1.0115 191 152 103
-1.05781 -0.40424 0.70275 191 152 103
-1.05781 -0.09549 0.70275 191 152 103
-1.05781 -0.09549 1.0115 191 152 103
-1.02952 -0.07511 1.03189 191 152 103
-1.02952 -0.07511 0.68236 191 152 103
-0.90958 -0.07366 1.03333 191 152 103
-0.90958 -0.07366 0.68092 191 152 103
-1.02952 -0.42463 0.68236 191 152 103
-0.90958 -0.42607 0.68092 191 152 103
-1.02952 -0.42463 1.03189 191 152 103
-0.90958 -0.42607 1.03333 191 152 103
0.15432 -0.98793 1.2885 40 40 36
0.15432 -0.98793 1.33918 40 40 36
0.1898 -0.98793 1.33918 40 40 36
0.1898 -0.98793 1.2885 40 40 36
0.15432 -0.97477 1.2885 40 40 36
0.1898 -0.97477 1.2885 40 40 36
0.1898 -0.97477 1.33918 40 40 36
0.15432 -0.97477 1.33918 40 40 36
0.73064 -0.84016 2.16552 196 158 108
-0.73064 -0.84016 2.16552 196 158 108
-0.84016 -0.72814 2.16552 196 158 108
0.84016 -0.72814 2.16552 196 158 108
-0.84016 0.72814 2.16552 196 158 108
0.84016 0.72814 2.16552 196 158 108
0.84016 0.72814 0.36582 191 152 103
-0.84016 0.72814 0.36582 191 152 103
-0.84016 -0.72814 0.36582 191 152 103
0.84016 -0.72814 0.36582 191 152 103
0.73064 0.84016 0.36582 191 152 103
0.81182 0.93351 0.43918 191 152 103
0.93351 0.80904 0.43918 191 152 103
0.93351 0.80904 2.09093 191 152 103
0.81182 0.93351 2.09093 191 152 103
0.73064 0.84016 2.16552 191 152 103
-0.81182 0.93351 2.09093 191 152 103
-0.73064 0.84016 2.16552 191 152 103
0.84016 0.72814 2.16552 191 152 103
0.93351 -0.80904 0.43918 191 152 103
0.73064 -0.84016 0.36582 191 152 103
0.81182 -0.93351 0.43918 191 152 103
0.81182 -0.93351 2.09093 191 152 103
0.93351 -0.80904 2.09093 191 152 103
0.84016 -0.72814 2.16552 191 152 103
0.73064 -0.84016 2.16552 191 152 103
-0.81182 -0.93351 0.43918 191 152 103
-0.73064 -0.84016 0.36582 191 152 103
-0.73064 -0.84016 2.16552 191 152 103
-0.81182 -0.93351 2.09093 191 152 103
-0.93351 -0.80904 0.43918 191 152 103
-0.93351 -0.80904 2.09093 191 152 103
-0.93351 0.80904 2.09093 191 152 103
-0.93351 0.80904 0.43918 191 152 103
-0.84016 -0.72814 2.16552 191 152 103
-0.84016 0.72814 2.16552 191 152 103
-0.81182 0.93351 0.43918 191 152 103
-0.73064 0.84016 0.36582 191 152 103
-0.73064 0.84016 2.16552 196 158 108
0.73064 0.84016 2.16552 196 158 108
-0.15432 -0.98793 1.2885 40 40 36
-0.1898 -0.98793 1.2885 40 40 36
-0.1898 -0.98793 1.33918 40 40 36
-0.15432 -0.98793 1.33918 40 40 36
-0.15432 -0.97477 1.2885 40 40 36
-0.1898 -0.97477 1.2885 40 40 36
-0.1898 -0.97477 1.33918 40 40 36
-0.15432 -0.97477 1.33918 40 40 36
0.27709 -0.98824 1.14473 229 160 139
0.27709 -0.98824 1.09718 229 160 139
-0.27709 -0.98824 1.09718 229 160 139
-0.27709 -0.98824 1.14473 229 160 139
0.27709 -0.95078 1.14473 229 160 139
-0.27709 -0.95078 1.14473 229 160 139
-0.3914 -1 0.85244 187 148 99
-0.74234 -1 0.54927 187 148 99
-0.49792 -1 0.85244 187 148 99
-0.79282 -1 0.59861 187 148 99
-0.79282 -1 1.17922 187 148 99
-0.49792 -1 1.17922 187 148 99
-0.21571 -1 0.681 187 148 99
-0.125 -1 0.54927 187 148 99
-0.27646 -1 0.85244 187 148 99
-0.3914 -1 0.92443 187 148 99
-0.27646 -1 0.92443 187 148 99
-0.21571 -1 0.71609 187 148 99
-0.125 -1 0.85244 187 148 99
-0.125 -1 0.71609 187 148 99
-0.125 -1 0.681 187 148 99
-0.76376 -1 1.21884 187 148 99
-0.52697 -1 1.21884 187 148 99
-0.125 -0.92695 0.54927 172 136 90
-0.125 -1 0.54927 172 136 90
-0.125 -1 0.681 172 136 90
-0.125 -0.92695 0.681 172 136 90
-0.74234 -1 0.54927 172 136 90
-0.74234 -0.92695 0.54927 172 136 90
-0.21571 -1 0.681 172 136 90
-0.21571 -0.92695 0.681 172 136 90
-0.21571 -1 0.71609 172 136 90
-0.21571 -0.92695 0.71609 172 136 90
-0.125 -1 0.71609 172 136 90
-0.125 -0.92695 0.71609 172 136 90
-0.125 -1 0.85244 172 136 90
-0.125 -0.92695 0.85244 172 136 90
-0.27646 -0.92695 0.85244 172 136 90
-0.27646 -1 0.85244 172 136 90
-0.27646 -1 0.92443 172 136 90
-0.27646 -0.92695 0.92443 172 136 90
-0.3914 -1 0.92443 172 136 90
-0.3914 -0.92695 0.92443 172 136 90
-0.3914 -1 0.85244 172 136 90
-0.3914 -0.92695 0.85244 172 136 90
-0.49792 -1 0.85244 172 136 90
-0.49792 -0.92695 0.85244 172 136 90
-0.49792 -1 1.17922 172 136 90
-0.49792 -0.92695 1.17922 172 136 90
-0.52697 -1 1.21884 172 136 90
-0.52697 -0.92695 1.21884 172 136 90
-0.76376 -1 1.21884 172 136 90
-0.76376 -0.92695 1.21884 172 136 90
-0.79282 -1 1.17922 172 136 90
-0.79282 -0.92695 1.17922 172 136 90
-0.79282 -1 0.59861 172 136 90
-0.79282 -0.92695 0.59861 172 136 90
-0.292 -1 1.96816 172 136 90
-0.292 -0.92068 1.96816 172 136 90
-0.11933 -0.92068 1.96816 172 136 90
-0.11933 -1 1.96816 172 136 90
-0.31154 -1 1.94663 172 136 90
-0.31154 -0.92068 1.94663 172 136 90
-0.31158 -1 1.76163 172 136 90
-0.31158 -0.92068 1.76163 172 136 90
-0.45928 -1 1.87416 172 136 90
-0.45928 -0.92068 1.87416 172 136 90
-0.09979 -0.92068 1.94663 172 136 90
-0.09979 -1 1.94663 172 136 90
-0.09979 -0.92068 1.76163 172 136 90
-0.09979 -1 1.76163 172 136 90
-0.48642 -1 1.87207 172 136 90
-0.48642 -0.92068 1.87207 172 136 90
-0.59187 -1 1.74125 172 136 90
-0.59187 -0.92068 1.74125 172 136 90
-0.59023 -1 1.71408 172 136 90
-0.59023 -0.92068 1.71408 172 136 90
-0.43461 -1 1.59084 172 136 90
-0.43461 -0.92068 1.59084 172 136 90
-0.625 -1 1.59084 172 136 90
-0.625 -0.92068 1.59084 172 136 90
-0.64369 -1 1.57581 172 136 90
-0.64369 -0.92068 1.57581 172 136 90
-0.64369 -1 1.39762 172 136 90
-0.64369 -0.92068 1.39762 172 136 90
-0.625 -1 1.38259 172 136 90
-0.625 -0.92068 1.38259 172 136 90
-0.43461 -1 1.38259 172 136 90
-0.43461 -0.92068 1.38259 172 136 90
-0.43431 -1 1.02757 172 136 90
-0.43431 -0.92068 1.02757 172 136 90
-0.39318 -1 0.98364 172 136 90
-0.39318 -0.92068 0.98364 172 136 90
0.39318 -1 0.98364 172 136 90
0.39318 -0.92068 0.98364 172 136 90
0.43431 -0.92068 1.02757 172 136 90
0.43431 -1 1.02757 172 136 90
0.43461 -0.92068 1.38259 172 136 90
0.43461 -1 1.38259 172 136 90
0.625 -0.92068 1.38259 172 136 90
0.625 -1 1.38259 172 136 90
0.64369 -0.92068 1.39762 172 136 90
0.64369 -1 1.39762 172 136 90
0.64369 -0.92068 1.57581 172 136 90
0.64369 -1 1.57581 172 136 90
0.625 -0.92068 1.59084 172 136 90
0.625 -1 1.59084 172 136 90
0.43461 -0.92068 1.59084 172 136 90
0.43461 -1 1.59084 172 136 90
0.59023 -0.92068 1.71408 172 136 90
0.59023 -1 1.71408 172 136 90
0.59187 -0.92068 1.74125 172 136 90
0.59187 -1 1.74125 172 136 90
0.48642 -0.92068 1.87207 172 136 90
0.48642 -1 1.87207 172 136 90
0.45928 -0.92068 1.87416 172 136 90
0.45928 -1 1.87416 172 136 90
0.31158 -0.92068 1.76163 172 136 90
0.31158 -1 1.76163 172 136 90
0.31154 -0.92068 1.94663 172 136 90
0.31154 -1 1.94663 172 136 90
0.292 -0.92068 1.96816 172 136 90
0.292 -1 1.96816 172 136 90
0.11933 -0.92068 1.96816 172 136 90
0.11933 -1 1.96816 172 136 90
0.09979 -0.92068 1.94663 172 136 90
0.09979 -1 1.94663 172 136 90
0.09979 -0.92068 1.76163 172 136 90
0.09979 -1 1.76163 172 136 90
0 -1 1.76163 172 136 90
-0.09979 -1 1.76163 187 148 99
-0.31158 -1 1.76163 187 148 99
-0.31154 -1 1.94663 187 148 99
-0.09979 -1 1.94663 187 148 99
-0.292 -1 1.96816 187 148 99
-0.11933 -1 1.96816 187 148 99
-0.3448 -1 1.41943 187 148 99
-0.43461 -1 1.59084 187 148 99
-0.59023 -1 1.71408 187 148 99
-0.45928 -1 1.87416 187 148 99
-0.59187 -1 1.74125 187 148 99
-0.48642 -1 1.87207 187 148 99
-0.43461 -1 1.38259 187 148 99
-0.625 -1 1.38259 187 148 99
-0.625 -1 1.59084 187 148 99
-0.64369 -1 1.39762 187 148 99
-0.64369 -1 1.57581 187 148 99
-0.3448 -1 1.26959 187 148 99
-0.3448 -0.97539 1.41943 187 148 99
-0.06562 -0.97539 1.26959 187 148 99
-0.06562 -1 1.26959 187 148 99
-0.06537 -1 1.39459 187 148 99
-0.26624 -1 1.19598 187 148 99
-0.3448 -0.97539 1.26959 187 148 99
-0.43431 -1 1.02757 187 148 99
-0.25153 -1 1.10658 187 148 99
0.25153 -1 1.10658 187 148 99
0.43431 -1 1.02757 187 148 99
0.26624 -1 1.19598 187 148 99
-0.39318 -1 0.98364 187 148 99
0.39318 -1 0.98364 187 148 99
0.3448 -1 1.26959 187 148 99
0.06562 -1 1.26959 187 148 99
0.3448 -0.97539 1.26959 187 148 99
0.06562 -0.97539 1.26959 187 148 99
0.3448 -1 1.41943 187 148 99
0.06537 -1 1.35152 187 148 99
0.3448 -0.97539 1.41943 187 148 99
0.04307 -1 1.26959 187 148 99
0 -1 1.19598 187 148 99
0.43451 -1 1.38264 187 148 99
0.43461 -1 1.38259 187 148 99
0.43461 -1 1.59084 187 148 99
0.625 -1 1.38259 187 148 99
0.625 -1 1.59084 187 148 99
0.31158 -1 1.76163 187 148 99
0.59023 -1 1.71408 187 148 99
0.45928 -1 1.87416 187 148 99
0.59187 -1 1.74125 187 148 99
0.48642 -1 1.87207 187 148 99
0.64369 -1 1.39762 187 148 99
0.64369 -1 1.57581 187 148 99
-0.04307 -1 1.26959 187 148 99
0.04308 -1 1.35152 187 148 99
-0.04308 -1 1.39459 187 148 99
0 -1 1.76163 187 148 99
0.09979 -1 1.76163 187 148 99
0.31154 -1 1.94663 187 148 99
0.09979 -1 1.94663 187 148 99
0.292 -1 1.96816 187 148 99
0.11933 -1 1.96816 187 148 99
-0.3448 -0.97539 1.41943 239 238 239
-0.06562 -0.97539 1.26959 239 238 239
-0.3448 -0.97539 1.26959 239 238 239
-0.06537 -1 1.39459 170 134 87
-0.04308 -1 1.39459 170 134 87
-0.04307 -1 1.26959 170 134 87
-0.06562 -1 1.26959 170 134 87
-0.25153 -0.95503 1.10658 180 127 113
0.25153 -0.95503 1.10658 180 127 113
0.25153 -1 1.10658 180 127 113
-0.25153 -1 1.10658 180 127 113
-0.26624 -0.95503 1.19598 180 127 113
-0.26624 -1 1.19598 180 127 113
0.26624 -0.95503 1.19598 180 127 113
0.26624 -1 1.19598 180 127 113
0 -1 1.19598 180 127 113
0.3914 -1 0.85244 187 148 99
0.49792 -1 0.85244 187 148 99
0.74234 -1 0.54927 187 148 99
0.79282 -1 0.59861 187 148 99
0.79282 -1 1.17922 187 148 99
0.49792 -1 1.17922 187 148 99
0.21571 -1 0.681 187 148 99
0.125 -1 0.54927 187 148 99
0.27646 -1 0.85244 187 148 99
0.3914 -1 0.92443 187 148 99
0.27646 -1 0.92443 187 148 99
0.21571 -1 0.71609 187 148 99
0.125 -1 0.85244 187 148 99
0.125 -1 0.71609 187 148 99
0.125 -1 0.681 187 148 99
0.76376 -1 1.21884 187 148 99
0.52697 -1 1.21884 187 148 99
0.125 -0.92695 0.54927 172 136 90
0.125 -0.92695 0.681 172 136 90
0.125 -1 0.681 172 136 90
0.125 -1 0.54927 172 136 90
0.74234 -1 0.54927 172 136 90
0.74234 -0.92695 0.54927 172 136 90
0.21571 -1 0.681 172 136 90
0.21571 -0.92695 0.681 172 136 90
0.21571 -1 0.71609 172 136 90
0.21571 -0.92695 0.71609 172 136 90
0.125 -1 0.71609 172 136 90
0.125 -0.92695 0.71609 172 136 90
0.125 -1 0.85244 172 136 90
0.125 -0.92695 0.85244 172 136 90
0.27646 -0.92695 0.85244 172 136 90
0.27646 -1 0.85244 172 136 90
0.27646 -1 0.92443 172 136 90
0.27646 -0.92695 0.92443 172 136 90
0.3914 -1 0.92443 172 136 90
0.3914 -0.92695 0.92443 172 136 90
0.3914 -1 0.85244 172 136 90
0.3914 -0.92695 0.85244 172 136 90
0.49792 -1 0.85244 172 136 90
0.49792 -0.92695 0.85244 172 136 90
0.49792 -1 1.17922 172 136 90
0.49792 -0.92695 1.17922 172 136 90
0.52697 -1 1.21884 172 136 90
0.52697 -0.92695 1.21884 172 136 90
0.76376 -1 1.21884 172 136 90
0.76376 -0.92695 1.21884 172 136 90
0.79282 -1 1.17922 172 136 90
0.79282 -0.92695 1.17922 172 136 90
0.79282 -1 0.59861 172 136 90
0.79282 -0.92695 0.59861 172 136 90
0.3448 -0.97539 1.41943 239 238 239
0.3448 -0.97539 1.26959 239 238 239
0.06562 -0.97539 1.26959 239 238 239
0.06537 -1 1.35152 170 134 87
0.06562 -1 1.26959 170 134 87
0.04307 -1 1.26959 170 134 87
0.04308 -1 1.35152 170 134 87
3 0 2 1
3 0 3 2
3 2 5 4
3 2 3 5
3 3 6 5
3 3 7 6
3 3 8 7
3 9 8 3
3 9 3 0
3 7 8 10
3 7 10 11
3 7 12 6
3 7 11 12
3 13 10 8
3 13 8 9
3 4 5 14
3 4 14 15
3 6 17 16
3 6 12 17
3 12 15 17
3 12 4 15
3 16 17 18
3 18 17 19
3 16 18 20
3 20 18 21
3 20 21 22
3 23 20 22
3 23 16 20
3 23 22 24
3 23 24 25
3 26 23 25
3 26 25 27
3 28 27 25
3 25 24 28
3 28 29 27
3 22 30 24
3 22 21 30
3 29 28 31
3 29 31 32
3 28 33 31
3 28 24 33
3 14 23 26
3 14 26 15
3 14 16 23
3 15 26 21
3 15 21 34
3 34 21 35
3 34 35 36
3 37 34 36
3 37 36 38
3 36 35 39
3 40 37 38
3 21 40 35
3 40 38 41
3 40 41 42
3 40 42 43
3 18 40 21
3 18 44 40
3 45 44 18
3 18 19 45
3 45 19 46
3 19 47 46
3 19 48 47
3 48 44 47
3 47 44 49
3 49 44 50
3 49 50 51
3 45 46 52
3 39 54 53
3 54 42 53
3 54 43 42
3 35 43 54
3 35 40 43
3 39 35 54
3 45 52 55
3 45 55 56
3 44 45 56
3 44 56 50
3 50 56 55
3 50 55 51
3 57 59 58
3 57 60 59
3 59 60 61
3 61 60 62
3 61 62 63
3 64 66 65
3 67 64 65
3 67 65 68
3 68 65 69
3 68 69 70
3 67 68 71
3 5 16 14
3 5 6 16
3 72 74 73
3 72 75 74
3 73 74 76
3 73 76 77
3 73 77 78
3 33 32 31
3 33 79 32
3 24 79 33
3 24 30 79
3 80 82 81
3 80 83 82
3 83 84 82
3 83 85 84
3 86 84 85
3 86 85 87
3 87 81 86
3 87 80 81
3 81 82 88
3 81 88 89
3 86 81 89
3 82 90 88
3 82 84 90
3 84 91 90
3 84 86 91
3 86 89 91
3 92 94 93
3 92 95 94
3 96 98 97
3 96 99 98
3 99 100 98
3 99 101 100
3 102 100 101
3 102 101 103
3 103 97 102
3 103 96 97
3 97 98 104
3 97 104 105
3 102 97 105
3 98 106 104
3 98 100 106
3 100 107 106
3 100 102 107
3 102 105 107
3 108 110 109
3 108 111 110
3 112 114 113
3 112 115 114
3 113 114 116
3 113 116 117
3 118 120 119
3 118 121 120
3 122 120 121
3 122 123 120
3 124 123 122
3 124 125 123
3 126 118 119
3 123 126 119
3 126 123 125
3 126 125 127
3 123 119 120
3 126 128 118
3 127 128 126
3 127 129 128
3 130 132 131
3 130 133 132
3 133 134 132
3 133 135 134
3 136 134 135
3 136 135 137
3 137 131 136
3 137 130 131
3 137 135 138
3 137 138 139
3 130 137 139
3 139 138 140
3 135 140 138
3 135 133 140
3 139 140 141
3 133 141 140
3 133 130 141
3 130 139 141
3 142 144 143
3 142 145 144
3 143 144 146
3 143 146 147
3 148 150 149
3 148 151 150
3 149 150 152
3 149 152 153
3 154 156 155
3 154 157 156
3 156 158 155
3 156 159 158
3 155 158 160
3 155 160 161
3 155 161 162
3 163 155 162
3 163 154 155
3 161 164 162
3 161 165 164
3 161 166 165
3 161 160 166
3 167 162 164
3 167 163 162
3 159 168 158
3 159 169 168
3 160 170 166
3 160 171 170
3 166 170 169
3 166 169 159
3 171 172 170
3 172 173 170
3 171 174 172
3 174 175 172
3 174 176 175
3 177 176 174
3 177 174 171
3 177 178 176
3 177 179 178
3 180 179 177
3 180 181 179
3 182 179 181
3 179 182 178
3 182 181 183
3 176 184 175
3 176 178 184
3 183 185 182
3 183 186 185
3 182 187 178
3 182 185 187
3 168 180 177
3 168 169 180
3 168 177 171
3 169 175 180
3 169 188 175
3 188 189 175
3 190 175 189
3 188 191 189
3 192 191 188
3 192 193 191
3 190 193 192
3 191 194 189
3 190 195 193
3 190 196 195
3 190 197 196
3 198 175 190
3 198 172 175
3 199 172 198
3 172 199 173
3 199 200 173
3 173 200 201
3 173 201 202
3 202 201 198
3 201 203 198
3 203 204 198
3 203 205 204
3 199 206 200
3 194 207 189
3 189 207 197
3 207 196 197
3 207 208 196
3 189 197 190
3 194 208 207
3 199 209 206
3 199 210 209
3 198 210 199
3 198 204 210
3 204 209 210
3 204 205 209
3 211 213 212
3 211 214 213
3 213 215 212
3 215 216 212
3 215 217 216
3 218 220 219
3 221 220 218
3 221 222 220
3 222 223 220
3 222 224 223
3 221 225 222
3 158 171 160
3 158 168 171
3 226 228 227
3 226 229 228
3 229 230 228
3 229 231 230
3 229 232 231
3 187 186 233
3 187 185 186
3 178 187 233
3 178 233 184
3 234 236 235
3 234 237 236
3 235 236 238
3 235 238 239
3 240 239 238
3 240 241 239
3 241 237 234
3 241 240 237
3 237 242 236
3 237 243 242
3 240 243 237
3 236 244 238
3 236 242 244
3 238 245 240
3 238 244 245
3 240 245 243
3 246 248 247
3 246 249 248
3 250 252 251
3 250 253 252
3 251 252 254
3 251 254 255
3 256 255 254
3 256 257 255
3 257 253 250
3 257 256 253
3 253 258 252
3 253 259 258
3 256 259 253
3 252 260 254
3 252 258 260
3 254 261 256
3 254 260 261
3 256 261 259
3 262 264 263
3 262 265 264
3 266 268 267
3 266 269 268
3 269 270 268
3 269 271 270
3 272 274 273
3 272 275 274
3 276 273 274
3 276 274 277
3 278 276 277
3 278 277 279
3 280 272 281
3 280 275 272
3 277 275 280
3 280 279 277
3 280 282 279
3 277 274 275
3 282 281 283
3 282 280 281
3 284 286 285
3 284 287 286
3 285 286 288
3 285 288 289
3 290 289 288
3 290 291 289
3 291 287 284
3 291 290 287
3 291 292 289
3 291 293 292
3 284 293 291
3 293 294 292
3 289 294 285
3 289 292 294
3 293 295 294
3 285 295 284
3 285 294 295
3 284 295 293
3 296 298 297
3 296 299 298
3 299 300 298
3 299 301 300
3 302 304 303
3 302 305 304
3 305 306 304
3 305 307 306
3 308 310 309
3 308 311 310
3 312 310 311
3 308 312 311
3 312 313 310
3 308 314 312
3 315 308 309
3 315 314 308
3 315 313 316
3 315 316 317
3 318 315 317
3 318 319 315
3 315 319 314
3 320 322 321
3 320 323 322
3 324 322 323
3 324 325 322
3 325 321 322
3 313 325 324
3 313 312 325
3 325 312 314
3 325 314 319
3 325 319 321
3 319 320 321
3 313 324 316
3 319 318 320
3 326 328 327
3 326 329 328
3 330 332 331
3 330 333 332
3 334 331 332
3 330 331 334
3 334 332 335
3 330 334 336
3 337 330 336
3 337 333 330
3 337 338 335
3 337 339 338
3 340 339 337
3 340 337 341
3 337 336 341
3 342 344 343
3 342 345 344
3 346 343 344
3 346 344 347
3 347 344 345
3 335 346 347
3 335 347 334
3 347 336 334
3 347 341 336
3 347 345 341
3 341 345 342
3 335 338 346
3 341 342 340
3 348 350 349
3 348 351 350
3 352 354 353
3 352 355 354
3 355 356 354
3 355 357 356
3 358 352 353
3 358 353 359
3 353 354 360
3 353 360 361
3 354 362 360
3 354 356 362
3 359 353 361
3 359 361 363
3 356 359 363
3 359 356 357
3 359 357 358
3 356 363 362
3 364 366 365
3 364 367 366
3 368 370 369
3 368 371 370
3 371 372 370
3 371 373 372
3 374 368 369
3 374 369 375
3 369 370 376
3 369 376 377
3 375 369 377
3 370 378 376
3 370 372 378
3 375 377 379
3 380 382 381
3 380 383 382
3 375 373 374
3 375 372 373
3 372 375 379
3 372 379 378
3 384 386 385
3 384 387 386
3 387 388 386
3 387 389 388
3 390 384 385
3 390 385 391
3 385 386 392
3 385 392 393
3 386 394 392
3 386 388 394
3 391 385 393
3 391 393 395
3 388 391 395
3 391 388 389
3 391 389 390
3 388 395 394
3 396 398 397
3 396 399 398
3 400 402 401
3 400 403 402
3 401 402 404
3 401 404 405
3 406 408 407
3 406 409 408
3 410 408 409
3 410 411 408
3 411 407 408
3 412 411 410
3 412 413 411
3 414 411 413
3 411 414 407
3 414 406 407
3 414 413 415
3 415 416 414
3 414 416 406
3 415 417 416
3 418 420 419
3 418 421 420
3 419 420 422
3 419 422 423
3 424 426 425
3 424 427 426
3 428 426 427
3 428 429 426
3 429 425 426
3 430 429 428
3 430 431 429
3 432 429 431
3 429 432 425
3 432 424 425
3 432 431 433
3 433 434 432
3 432 434 424
3 433 435 434
3 436 438 437
3 436 439 438
3 437 438 440
3 437 440 441
3 442 444 443
3 442 445 444
3 446 444 445
3 446 447 444
3 447 443 444
3 448 447 446
3 448 449 447
3 450 447 449
3 447 450 443
3 450 442 443
3 450 449 451
3 451 452 450
3 450 452 442
3 451 453 452
3 454 456 455
3 454 457 456
3 455 456 458
3 455 458 459
3 460 462 461
3 460 463 462
3 464 462 463
3 464 465 462
3 465 461 462
3 466 465 464
3 466 467 465
3 468 465 467
3 465 468 461
3 468 467 469
3 469 470 468
3 469 471 470
3 468 470 460
3 468 460 461
3 472 474 473
3 472 475 474
3 473 474 476
3 473 476 477
3 478 480 479
3 478 481 480
3 482 480 481
3 482 483 480
3 484 483 482
3 484 485 483
3 486 483 485
3 486 485 487
3 483 479 480
3 483 486 479
3 486 478 479
3 486 488 478
3 487 488 486
3 487 489 488
3 490 492 491
3 490 493 492
3 491 492 494
3 491 494 495
3 496 498 497
3 496 499 498
3 500 498 499
3 500 501 498
3 501 497 498
3 502 501 500
3 502 503 501
3 504 501 503
3 501 504 497
3 504 503 505
3 505 506 504
3 505 507 506
3 504 506 496
3 504 496 497
3 508 510 509
3 508 511 510
3 512 511 508
3 512 508 509
3 512 513 511
3 511 514 510
3 511 513 514
3 512 509 515
3 516 518 517
3 516 519 518
3 519 520 518
3 519 521 520
3 522 524 523
3 522 525 524
3 526 522 523
3 527 522 526
3 527 528 522
3 527 529 528
3 527 530 529
3 529 530 531
3 531 530 532
3 531 532 533
3 529 531 534
3 528 525 522
3 528 535 525
3 535 536 525
3 535 537 536
3 538 537 535
3 538 535 539
3 535 529 539
3 535 528 529
3 538 539 540
3 538 540 541
3 539 534 540
3 539 529 534
3 536 537 542
3 536 542 543
3 525 536 543
3 525 543 524
3 538 541 544
3 538 544 545
3 537 545 542
3 537 538 545
3 545 546 542
3 546 543 542
3 546 524 543
3 545 547 546
3 546 547 548
3 546 548 549
3 545 550 547
3 545 544 550
3 547 551 548
3 547 550 551
3 549 524 546
3 549 523 524
3 552 523 549
3 552 549 548
3 552 548 532
3 530 552 532
3 530 527 552
3 527 553 552
3 552 553 523
3 526 523 553
3 527 526 553
3 548 533 532
3 548 551 533
3 521 554 520
3 521 555 554
3 556 558 557
3 556 559 558
3 560 556 557
3 560 559 556
3 560 557 561
3 557 562 561
3 557 558 562
3 560 563 559
3 564 566 565
3 564 567 566
3 568 567 564
3 568 569 567
3 570 572 571
3 572 573 571
3 572 574 573
3 572 575 574
3 576 570 571
3 576 571 577
3 576 578 570
3 578 579 570
3 578 580 579
3 576 581 578
3 578 581 582
3 581 583 582
3 576 577 584
3 575 585 574
3 575 586 585
3 587 589 588
3 587 590 589
3 591 587 588
3 591 592 587
3 593 589 590
3 593 590 594
3 594 595 593
3 594 596 595
3 596 597 595
3 596 598 597
3 598 599 597
3 598 600 599
3 601 599 600
3 601 602 599
3 601 603 602
3 601 604 603
3 604 605 603
3 604 606 605
3 607 605 606
3 607 606 608
3 608 609 607
3 608 610 609
3 610 611 609
3 610 612 611
3 612 613 611
3 612 614 613
3 614 615 613
3 614 616 615
3 617 615 616
3 617 616 618
3 619 617 618
3 619 618 620
3 619 620 592
3 619 592 591
3 621 623 622
3 621 624 623
3 625 621 622
3 625 622 626
3 627 625 626
3 627 626 628
3 628 629 627
3 628 630 629
3 631 623 624
3 631 624 632
3 633 631 632
3 633 632 634
3 630 635 629
3 630 636 635
3 637 635 636
3 637 636 638
3 639 637 638
3 639 638 640
3 641 639 640
3 641 640 642
3 642 643 641
3 642 644 643
3 644 645 643
3 644 646 645
3 647 645 646
3 647 646 648
3 649 647 648
3 649 648 650
3 651 649 650
3 651 650 652
3 653 651 652
3 653 652 654
3 654 655 653
3 654 656 655
3 656 657 655
3 656 658 657
3 659 657 658
3 659 660 657
3 660 659 661
3 660 661 662
3 662 661 663
3 662 663 664
3 664 663 665
3 664 665 666
3 666 665 667
3 666 667 668
3 669 668 667
3 669 670 668
3 671 670 669
3 671 672 670
3 672 671 673
3 672 673 674
3 674 673 675
3 674 675 676
3 676 675 677
3 676 677 678
3 679 678 677
3 679 680 678
3 681 680 679
3 681 682 680
3 682 681 683
3 682 683 684
3 684 683 685
3 684 685 686
3 686 685 687
3 686 687 688
3 689 688 687
3 689 690 688
3 691 690 689
3 691 692 690
3 691 693 692
3 633 693 691
3 634 693 633
3 694 696 695
3 694 697 696
3 697 698 696
3 697 699 698
3 694 695 700
3 695 701 700
3 695 702 701
3 695 703 702
3 703 704 702
3 703 705 704
3 706 700 701
3 701 707 706
3 701 708 707
3 708 709 707
3 708 710 709
3 706 711 700
3 711 712 700
3 700 712 713
3 700 713 714
3 700 714 715
3 711 716 714
3 714 717 711
3 714 713 717
3 711 717 712
3 711 718 716
3 706 718 711
3 716 718 719
3 718 720 719
3 718 721 720
3 722 720 721
3 723 721 718
3 723 724 721
3 725 722 721
3 725 726 722
3 726 725 727
3 726 727 728
3 729 726 728
3 729 730 726
3 729 728 731
3 725 731 727
3 725 729 731
3 732 722 726
3 732 733 722
3 734 729 725
3 734 725 721
3 735 734 721
3 736 734 735
3 736 729 734
3 736 735 737
3 736 737 738
3 739 729 736
3 739 736 740
3 739 740 741
3 741 740 742
3 741 742 743
3 738 737 744
3 738 744 745
3 746 733 732
3 746 732 747
3 746 747 748
3 716 733 746
3 716 746 714
3 748 747 749
3 748 749 694
3 748 694 715
3 694 700 715
3 749 747 730
3 749 730 750
3 750 730 729
3 750 729 739
3 750 739 751
3 750 751 752
3 752 751 753
3 752 753 754
3 755 757 756
3 758 760 759
3 758 761 760
3 762 764 763
3 762 765 764
3 765 762 766
3 765 766 767
3 762 768 766
3 762 763 768
3 764 768 763
3 764 769 768
3 770 768 769
3 766 770 767
3 766 768 770
3 771 773 772
3 772 773 774
3 772 774 775
3 772 775 776
3 777 773 771
3 777 778 773
3 777 771 779
3 779 771 780
3 779 780 781
3 777 779 782
3 779 783 782
3 782 783 784
3 777 785 778
3 776 775 786
3 776 786 787
3 788 790 789
3 788 791 790
3 792 791 788
3 792 788 793
3 794 789 790
3 794 795 789
3 795 794 796
3 795 796 797
3 797 796 798
3 797 798 799
3 799 798 800
3 799 800 801
3 802 801 800
3 802 800 803
3 802 803 804
3 802 804 805
3 805 804 806
3 805 806 807
3 808 807 806
3 808 809 807
3 809 808 810
3 809 810 811
3 811 810 812
3 811 812 813
3 813 812 814
3 813 814 815
3 815 814 816
3 815 816 817
3 818 817 816
3 818 819 817
3 820 819 818
3 820 821 819
3 820 793 821
3 820 792 793
3 822 824 823
3 825 827 826
3 825 828 827
