mtllib Slowbro_Mega.mtl
v 0.238883 0.681342 -0.00342345
vt 0.321073 0.54885
vn 0.9788487 -0.1974979 0.05338389
v 0.223277 0.843628 -0.033218
vt 0.321996 0.568967
vn 0.938891 0.343927 -0.0140697
v 0.175665 0.837675 0.14763
vt 0.316392 0.568229
vn 0.8257326 0.2992539 0.4781348
v 0.217885 0.738169 -0.150768
vt 0.325639 0.555894
vn 0.8647708 -0.07341839 -0.4967709
v 0.16623 0.741155 0.184743
vt 0.315241 0.556265
vn 0.7944701 -0.0160149 0.6070921
v 0.147638 0.604533 -0.139427
vt 0.325288 0.539329
vn 0.5344978 -0.6957567 -0.4798278
v 0.16459 0.657857 0.151019
vt 0.316287 0.545939
vn 0.7970641 -0.331947 0.5044801
v 0.177883 0.568707 0.0171621
vt 0.320435 0.534888
vn 0.588209 -0.807338 0.0470704
v 0.147638 0.917697 0.0878649
vt 0.318244 0.578149
vn 0.5786462 0.7408952 0.3409441
v 0.147638 0.867117 -0.187636
vt 0.326782 0.571879
vn 0.5708491 0.4998131 -0.6513971
v 0.134661 0.956246 -0.053894
vt 0.322637 0.582928
vn 0.506376 0.848183 -0.155464
v 0 0.533574 -0.0690645
vt 0.323107 0.530533
vn 0 -0.9721745 -0.2342579
v 0.0912453 0.719348 -0.253277
vt 0.328816 0.553562
vn 0.358735 -0.168556 -0.9180949
v 0 0.603389 -0.210639
vt 0.327494 0.539187
vn 0 -0.7000873 -0.7140573
v 0.132575 0.609365 0.140282
vt 0.316619 0.539928
vn 0.383131 -0.825636 0.414169
v 0.0749037 0.859125 0.196138
vt 0.314888 0.570888
vn 0.238617 0.5103939 0.8261719
v 0 0.958443 -0.147068
vt 0.325524 0.5832
vn 0 0.8690774 -0.4946762
v 0 0.991396 0.032423
vt 0.319962 0.587285
vn 0 0.9900012 0.141059
v -0.147638 0.604533 -0.139427
vn -0.5344978 -0.6957567 -0.4798278
v 0 0.540955 0.0370035
vt 0.31982 0.531448
vn 0 -0.9681179 0.250495
v -0.177883 0.568707 0.0171621
vn -0.588209 -0.807338 0.0470704
v 0 0.842891 -0.25461
vt 0.328857 0.568876
vn 0 0.4007879 -0.9161709
v -0.0912453 0.719348 -0.253277
vn -0.358735 -0.168556 -0.9180949
v 0 0.589938 0.155577
vt 0.316734 0.536743
vn 0 -0.945251 0.326344
v 0 0.93821 0.138554
vt 0.316673 0.580692
vn 0 0.8073339 0.5900949
v -0.0749037 0.859125 0.196138
vn -0.244361 0.5151451 0.8215311
v 0.0622644 0.772795 0.222662
vt 0.314066 0.560187
vn 0.179771 0.3881429 0.9038957
v -0.217885 0.738169 -0.150768
vn -0.8647708 -0.07341839 -0.4967709
v -0.238883 0.681342 -0.00342345
vn -0.9788487 -0.1974979 0.05338389
v -0.147638 0.867117 -0.187636
vn -0.5708491 0.4998131 -0.6513971
v -0.132575 0.609365 0.140282
vn -0.383131 -0.825636 0.414169
v -0.0622644 0.772795 0.222662
vn -0.1824869 0.3986079 0.8987827
v -0.147638 0.917697 0.0878649
vn -0.578646 0.740895 0.340945
v -0.175665 0.837675 0.14763
vn -0.825733 0.299254 0.478134
v -0.223277 0.843628 -0.033218
vn -0.938891 0.343927 -0.0140697
v -0.16459 0.657857 0.151019
vn -0.7970641 -0.331947 0.5044801
v -0.16623 0.741155 0.184743
vn -0.7944701 -0.0160149 0.6070921
v -0.134661 0.956246 -0.053894
vn -0.506376 0.848183 -0.155464
v -0.118137 0.194916 -0.20462
vt 0.923851 0.312413
vn -0.4999998 0 -0.8660256
v -0.108575 0.244227 -0.188057
vt 0.924956 0.323807
vn -0.3431739 0.7272726 -0.5943957
v 0.108575 0.244227 -0.188057
vt 0.950044 0.323807
vn 0.343174 0.727273 -0.594395
v -0.236274 0.194916 0
vt 0.910202 0.312413
vn -1 0 0
v 0.118137 0.194916 -0.20462
vt 0.951149 0.312413
vn 0.5000002 0 -0.8660253
v -0.196895 0.137045 0
vt 0.914751 0.29904
vn -0.6863481 -0.7272732 0
v -0.09844761 0.137045 -0.170516
vt 0.926126 0.29904
vn -0.343174 -0.7272731 -0.594395
v -0.21715 0.244227 0
vt 0.912411 0.323807
vn -0.6863487 0.7272726 0
v 0.21715 0.244227 0
vt 0.962589 0.323807
vn 0.6863487 0.7272726 0
v -0.101962 0.137045 0
vt 0.92572 0.29904
vn 0.2737859 -0.9617907 0
v 0.09844771 0.137045 -0.170516
vt 0.948874 0.29904
vn 0.343174 -0.7272731 -0.594395
v -0.0509808 0.137045 -0.08830141
vt 0.93161 0.29904
vn 0.136893 -0.9617906 0.2371059
v -0.118137 0.194916 0.20462
vn -0.5000002 0 0.8660253
v -0.09844771 0.137045 0.170516
vn -0.343174 -0.7272731 0.594395
v 0.236274 0.194916 0
vt 0.964798 0.312413
vn 1 0 0
v 0.108575 0.244227 0.188057
vn 0.3431739 0.7272726 0.5943957
v 0.0509808 0.137045 -0.0883013
vt 0.94339 0.29904
vn -0.136893 -0.9617908 0.237105
v -0.0509808 0.137045 0.08830141
vn 0.136893 -0.9617908 -0.237105
v 0.0509808 0.137045 0.08830141
vn -0.136893 -0.9617906 -0.2371059
v -0.108575 0.244227 0.188057
vn -0.343174 0.727273 0.594395
v 0.118137 0.194916 0.20462
vn 0.5000002 0 0.8660253
v 0.09844761 0.137045 0.170516
vn 0.343174 -0.7272731 0.594395
v 0.101962 0.137045 0
vt 0.94928 0.29904
vn -0.2737859 -0.9617907 0
v 0.196895 0.137045 0
vt 0.960249 0.29904
vn 0.6863481 -0.7272732 0
v -0.142442 0.305444 -0.246717
vt 0.538424 0.181224
v -0.132762 0.367553 -0.229951
vt 0.538424 0.348847
v 0.132762 0.367553 -0.229951
vt 0.276763 0.348847
v -0.284885 0.305444 0
vt 0.800244 0.181224
v 0.142442 0.305444 -0.246717
vt 0.276763 0.181224
vt 0.800244 0.0240705
vn -0.6863481 -0.7272731 0
vt 0.538424 0.0240705
vn -0.343174 -0.727273 -0.594395
v -0.265524 0.367553 0
vt 0.800244 0.348847
v 0.265524 0.367553 0
vt 0.0146657 0.348847
vt 0.276763 0.0240705
vn 0.343174 -0.727273 -0.594395
v 0.284885 0.305444 0
vt 0.0146657 0.181224
vt 0.0146657 0.0240705
vn 0.6863481 -0.7272731 0
v -0.142442 0.305444 0.246717
v -0.132762 0.367553 0.229951
v 0.142442 0.305444 0.246717
vn 0.343174 -0.727273 0.594395
vn -0.343174 -0.727273 0.594395
v 0.132762 0.367553 0.229951
v -0.371011 0.447313 0
vt 0.894635 0.370735
v -0.325145 0.593464 0
vt 0.899934 0.404507
v -0.162573 0.593464 -0.281584
vt 0.918717 0.404507
v -0.185506 0.447313 0.321305
vt 0.916067 0.370735
v -0.185506 0.447313 -0.321305
vt 0.922161 0.352305
vt 0.906822 0.352305
v -0.162573 0.593464 0.281584
v 0.185506 0.447313 -0.321305
vt 0.958933 0.370735
vt 0.952839 0.352305
v 0.185506 0.447313 0.321305
v 0.162573 0.593464 0.281584
vt 0.956283 0.404507
v 0.371011 0.447313 0
vt 0.980365 0.370735
v 0.325145 0.593464 0
vt 0.975066 0.404507
v 0.162573 0.593464 -0.281584
vt 0.968178 0.352305
v 0.250875 0.9371921 -0.040413
vt 0.332168 0.823371
vn 0.464482 0.36288 -0.8078209
v 0.167297 0.9013441 -0.0511099
vt 0.324684 0.810529
vn -0.5227479 0.3439009 -0.7800429
v 0.155442 0.958243 0.0185005
vt 0.323622 0.830912
vn -0.7623338 0.642709 0.07597499
vt 0.329697 0.789855
vn 0.5632129 -0.694418 -0.4478559
v 0.232869 0.970062 0.0163306
vt 0.330556 0.835145
vn 0.1887631 0.9736275 0.1281331
v 0.255148 0.858487 0.0368149
vt 0.332551 0.795177
vn 0.6108222 -0.6718672 0.4189161
v 0.268881 0.926622 0.0243059
vt 0.333781 0.819584
vn 0.935077 0.175952 0.307688
v 0.142567 0.847091 0.0389073
vt 0.322469 0.791095
vn -0.6523222 -0.4138702 0.6349703
v -0.250875 0.9371921 -0.040413
vn -0.464482 0.36288 -0.8078209
v -0.232869 0.970062 0.0163306
vn -0.1887631 0.9736273 0.128134
v -0.155442 0.958243 0.0185005
vn 0.7623338 0.642709 0.07597489
v -0.268881 0.926622 0.0243059
vn -0.935077 0.175952 0.307688
v -0.167297 0.9013441 -0.0511099
vn 0.5227479 0.3439009 -0.7800429
v -0.255148 0.858487 0.0368149
vn -0.6108222 -0.6718672 0.4189161
vn -0.5632129 -0.694418 -0.4478559
v -0.142567 0.847091 0.0389073
vn 0.6523228 -0.4138699 0.6349698
v 0.208229 0.917719 0.0658919
vt 0.399466 0.676459
vn -0.06719877 0.1285119 0.9894286
vt 0.467041 0.7131
vt 0.426918 0.812589
vt 0.45174 0.557055
vt 0.340654 0.785521
vt 0.32631 0.530954
v -0.208229 0.917719 0.0658919
vn 0.06719867 0.1285119 0.9894286
v 0.073762 0.729096 0.25402
vt 0.109836 0.850295
vn 0.2949391 -0.03193511 0.9549823
v 0.0596176 0.611701 0.224623
vt 0.0887741 0.537359
vn 0.247164 -0.5843191 0.7729691
vt 0.247526 0.913849
v -0.073762 0.729096 0.25402
vt -0.109836 0.850295
vn -0.3019631 -0.009791964 0.9532694
vt 0.0927155 0.993408
vt -0.0927155 0.993408
vt 0.245084 0.691193
v -0.0596176 0.611701 0.224623
vt -0.0887741 0.537359
vn -0.259826 -0.6002069 0.7564669
vt -0.247526 0.919307
vt -0.245084 0.691193
v 0 -0.005501765 0
vt 0.970164 0.625
vn 0 -1 0
v 0 0.14676 -0.0704102
vt 0.779836 0.698316
vn 0 -0.419724 -0.9076518
v 0.0704102 0.14676 0
vt 0.779836 0.625
vn 0.9076518 -0.419724 0
v -0.0704102 0.14676 0
vn -0.9076518 -0.419724 0
v 0 0.14676 0.0704102
vt 0.779836 0.551684
vn 0 -0.419724 0.9076518
v 0.380533 0.562325 0.252526
vt 0.994269 0.885908
vn 0.8357105 0.2622668 0.4824977
v 0.266447 0.589977 0.103564
vt 0.755731 0.952152
vn 0.6112 0.7170901 -0.334987
v 0.194439 0.589815 0.228374
vt 0.755731 0.951973
vn 0.015114 0.715751 0.698192
v 0.299259 0.450928 0.122314
vt 0.755731 0.798027
vn 0.8828152 -0.4339581 -0.1797711
v 0.227251 0.450766 0.247124
vt 0.755731 0.797848
vn 0.2867289 -0.4352969 0.8534068
v -0.380533 0.562325 0.252526
vn -0.8357105 0.2622668 0.4824977
v -0.194439 0.589815 0.228373
vn -0.0151151 0.715751 0.698192
v -0.266447 0.589977 0.103564
vn -0.6112007 0.7170897 -0.3349869
v -0.227251 0.450766 0.247124
vn -0.2867289 -0.4352969 0.8534068
v -0.299259 0.450928 0.122314
vn -0.8828151 -0.433958 -0.179772
v 0.254244 0.193902 0.213336
vt 0.9375 0.45096
vn 0.766045 0 0.642787
v 0.137605 0.231847 0.115464
vt 0.93199 0.412294
vn 0.1852429 0.9703218 0.155437
v 0.113214 0.193902 0.144532
vt 0.934745 0.412294
vn -0.4384679 0 0.8987468
v 0.137605 0.155956 0.115464
vt 0.9375 0.412294
vn 0.1852429 -0.9703218 0.155437
v 0.161995 0.193902 0.0863959
vt 0.940255 0.412294
vn 0.8089535 0 -0.5878726
vt 0.94301 0.412294
v 0.254244 0.193902 -0.213336
vn 0.766045 0 -0.642787
v 0.137605 0.231847 -0.115464
vn 0.1852429 0.9703218 -0.155437
v 0.161995 0.193902 -0.0863959
vn 0.8089535 0 0.5878726
v 0.137605 0.155956 -0.115464
vn 0.1852429 -0.9703218 -0.155437
v 0.113214 0.193902 -0.144532
vn -0.4384679 0 -0.8987468
v -0.254244 0.193902 -0.213336
vn -0.766045 0 -0.642787
v -0.137605 0.231847 -0.115464
vn -0.1852429 0.9703218 -0.155437
v -0.113214 0.193902 -0.144532
vn 0.4384679 0 -0.8987468
v -0.137605 0.155956 -0.115464
vn -0.1852429 -0.9703218 -0.155437
v -0.161995 0.193902 -0.0863959
vn -0.8089535 0 0.5878726
v -0.254244 0.193902 0.213336
vn -0.766045 0 0.642787
v -0.137605 0.231847 0.115464
vn -0.1852429 0.9703218 0.155437
v -0.161995 0.193902 0.0863959
vn -0.8089535 0 -0.5878726
v -0.137605 0.155956 0.115464
vn -0.1852429 -0.9703218 0.155437
v -0.113214 0.193902 0.144532
vn 0.4384679 0 0.8987468
v 0.133237 0.593464 -0.230773
vt 0.908096 0.20499
vn -0.136893 0.9617908 0.237105
v -0.133237 0.593464 -0.230773
vt 0.908096 -0.204975
vn 0.136893 0.9617908 0.237105
v 0 0.565792 0
vt 0.995206 1.51396E-05
vt 0.820984 -0.260433
vt 0.820984 0.260447
vt 0.908096 0.205022
v -0.266473 0.593464 0
vt 0.908096 -0.205012
vn 0.2737859 0.9617907 0
v -0.133237 0.593464 0.230773
vt 0.908096 -0.204993
vn 0.136893 0.9617908 -0.237105
vt 0.995206 4.17233E-06
vt 0.820984 -0.260418
vt 0.820984 0.260424
v 0.133237 0.593464 0.230773
vt 0.908096 -0.205023
vn -0.136893 0.9617908 -0.237105
vt 0.908096 0.204971
v 0.266473 0.593464 0
vn -0.2737859 0.9617907 0
vt 0.820984 -0.260451
vt 0.820984 -0.260462
vt 0.820984 0.260462
vt 0.995206 -1.07288E-05
vt 0.088426 0.540824
vt 0.212605 0.603008
vt 0.243905 0.681996
vt 0.244106 0.685318
v 0.262619 0.593375 0
vt 0.574074 0.805555
vn 0.9967868 0.08010028 0
v 0.25663 0.667902 0
vt 0.5625 0.944445
v 0.253636 0.593375 0.058675
vt 0.550926 0.805555
vn 0.9853783 0.07918362 0.150863
v 0.253636 0.593375 -0.058675
vt 0.597223 0.805555
vn 0.9853783 0.07918362 -0.150863
v 0.227435 0.593375 -0.131309
vn 0.8632426 0.08009946 -0.4983938
v 0.222248 0.667902 -0.128315
v 0.248992 0.593375 -0.0760037
vn 0.9287941 0.079183 -0.362038
v 0.190317 0.593375 -0.177632
vn 0.7779308 0.07918238 -0.6233409
v 0.131309 0.593375 -0.227435
vn 0.498393 0.0800998 -0.863243
v 0.128315 0.667902 -0.222248
v 0.177632 0.593375 -0.190317
vn 0.6233402 0.07918303 -0.7779313
v 0.0760037 0.593375 -0.248992
vn 0.3620368 0.07918296 -0.9287946
v 0 0.593375 -0.262619
vn 0 0.08009969 -0.9967869
v 0 0.667902 -0.25663
v 0.058675 0.593375 -0.253636
vn 0.1508631 0.07918292 -0.9853783
v -0.058675 0.593375 -0.253636
vn -0.1508631 0.07918292 -0.9853783
v -0.131309 0.593375 -0.227435
vn -0.498393 0.0800997 -0.863243
v -0.128315 0.667902 -0.222248
v -0.0760037 0.593375 -0.248992
vn -0.3620369 0.07918287 -0.9287946
v -0.177632 0.593375 -0.190317
vn -0.6233409 0.07918297 -0.7779307
v -0.227435 0.593375 -0.131309
vn -0.8632426 0.08009946 -0.4983938
v -0.222248 0.667902 -0.128315
v -0.190317 0.593375 -0.177632
vn -0.7779308 0.07918248 -0.6233409
v -0.248992 0.593375 -0.0760037
vn -0.9287941 0.07918311 -0.362038
v -0.262619 0.593375 0
vn -0.9967868 0.08010028 0
v -0.25663 0.667902 0
v -0.253636 0.593375 -0.058675
vn -0.9853783 0.07918362 -0.150863
v -0.253636 0.593375 0.058675
vn -0.9853783 0.07918362 0.150863
v -0.227435 0.593375 0.131309
vn -0.8632426 0.08009946 0.4983938
v -0.222248 0.667902 0.128315
v -0.248992 0.593375 0.0760037
vn -0.9287941 0.079183 0.362038
v -0.190317 0.593375 0.177632
vn -0.7779308 0.07918238 0.6233409
v -0.131309 0.593375 0.227435
vn -0.498393 0.0800998 0.863243
v -0.128315 0.667902 0.222248
v -0.177632 0.593375 0.190317
vn -0.6233402 0.07918303 0.7779313
v -0.0760037 0.593375 0.248992
vn -0.3620368 0.07918296 0.9287946
v 0 0.593375 0.262619
vn 0 0.08009969 0.9967869
v 0 0.667902 0.25663
v -0.058675 0.593375 0.253636
vn -0.1508631 0.07918292 0.9853783
v 0.058675 0.593375 0.253636
vn 0.1508631 0.07918292 0.9853783
v 0.131309 0.593375 0.227435
vn 0.498393 0.0800997 0.863243
v 0.128315 0.667902 0.222248
v 0.0760037 0.593375 0.248992
vn 0.3620369 0.07918287 0.9287946
v 0.177632 0.593375 0.190317
vn 0.6233409 0.07918297 0.7779307
v 0.227435 0.593375 0.131309
vn 0.8632426 0.08009946 0.4983938
v 0.222248 0.667902 0.128315
v 0.190317 0.593375 0.177632
vn 0.7779308 0.07918248 0.6233409
v 0.248992 0.593375 0.0760037
vn 0.9287941 0.07918311 0.362038
vt 0.527777 0.805555
vn -0.9991938 0.04014579 0
vn -0.8653271 0.0401463 0.4995971
vn -0.4995971 0.0401466 0.8653271
vn 0 0.04014659 0.9991938
vn 0.4995971 0.0401466 0.8653271
vn 0.8653271 0.0401466 0.4995971
vn 0.9991938 0.04014579 0
vn 0.8653271 0.0401463 -0.4995971
vn 0.4995971 0.0401466 -0.8653271
vn 0 0.04014659 -0.9991938
vn -0.4995971 0.0401466 -0.8653271
vn -0.8653271 0.0401466 -0.4995971
o merged_0_0_node
g polygon_0
usemtl mat_body_mat_id
f 1/1/1 2/2/2 3/3/3
f 1/1/1 4/4/4 2/2/2
f 1/1/1 3/3/3 5/5/5
f 1/1/1 6/6/6 4/4/4
f 1/1/1 5/5/5 7/7/7
f 1/1/1 8/8/8 6/6/6
f 1/1/1 7/7/7 8/8/8
f 2/2/2 9/9/9 3/3/3
f 2/2/2 4/4/4 10/10/10
f 2/2/2 11/11/11 9/9/9
f 2/2/2 10/10/10 11/11/11
f 6/6/6 8/8/8 12/12/12
f 6/6/6 13/13/13 4/4/4
f 6/6/6 12/12/12 14/14/14
f 6/6/6 14/14/14 13/13/13
f 4/4/4 13/13/13 10/10/10
f 7/7/7 15/15/15 8/8/8
f 3/3/3 9/9/9 16/16/16
f 11/11/11 10/10/10 17/17/17
f 11/11/11 18/18/18 9/9/9
f 11/11/11 17/17/17 18/18/18
f 12/12/12 19/6/19 14/14/14
f 12/12/12 8/8/8 20/19/20
f 12/12/12 21/8/21 19/6/19
f 12/12/12 20/19/20 21/8/21
f 13/13/13 22/20/22 10/10/10
f 13/13/13 14/14/14 23/13/23
f 13/13/13 23/13/23 22/20/22
f 14/14/14 19/6/19 23/13/23
f 10/10/10 22/20/22 17/17/17
f 15/15/15 24/21/24 8/8/8
f 20/19/20 24/21/24 21/8/21
f 20/19/20 8/8/8 24/21/24
f 16/16/16 9/9/9 25/22/25
f 16/16/16 25/22/25 26/16/26
f 16/16/16 26/16/26 27/23/27
f 9/9/9 18/18/18 25/22/25
f 19/6/19 28/4/28 23/13/23
f 19/6/19 21/8/21 29/1/29
f 19/6/19 29/1/29 28/4/28
f 22/20/22 30/10/30 17/17/17
f 22/20/22 23/13/23 30/10/30
f 23/13/23 28/4/28 30/10/30
f 24/21/24 31/15/31 21/8/21
f 26/16/26 32/23/32 27/23/27
f 26/16/26 25/22/25 33/9/33
f 26/16/26 33/9/33 34/3/34
f 25/22/25 18/18/18 33/9/33
f 29/1/29 35/2/35 28/4/28
f 29/1/29 21/8/21 36/7/36
f 29/1/29 37/5/37 34/3/34
f 29/1/29 34/3/34 35/2/35
f 29/1/29 36/7/36 37/5/37
f 36/7/36 21/8/21 31/15/31
f 34/3/34 33/9/33 35/2/35
f 28/4/28 35/2/35 30/10/30
f 17/17/17 38/11/38 18/18/18
f 17/17/17 30/10/30 38/11/38
f 38/11/38 35/2/35 33/9/33
f 38/11/38 33/9/33 18/18/18
f 38/11/38 30/10/30 35/2/35
f 39/24/39 40/25/40 41/26/41
f 39/24/39 42/27/42 40/25/40
f 39/24/39 41/26/41 43/28/43
f 39/24/39 44/29/44 42/27/42
f 39/24/39 43/28/43 45/30/45
f 39/24/39 45/30/45 44/29/44
f 40/25/40 42/27/42 46/31/46
f 41/26/41 47/32/47 43/28/43
f 45/30/45 48/33/48 44/29/44
f 45/30/45 43/28/43 49/34/49
f 45/30/45 50/35/50 48/33/48
f 45/30/45 49/34/49 50/35/50
f 42/27/42 51/24/51 46/31/46
f 42/27/42 44/29/44 52/30/52
f 42/27/42 52/30/52 51/24/51
f 47/32/47 53/36/53 43/28/43
f 47/32/47 54/26/54 53/36/53
f 43/28/43 53/36/53 49/34/49
f 48/33/48 50/35/50 55/37/55
f 48/33/48 56/35/56 44/29/44
f 48/33/48 55/37/55 57/37/57
f 48/33/48 57/37/57 56/35/56
f 56/35/56 52/30/52 44/29/44
f 56/35/56 57/37/57 52/30/52
f 50/35/50 49/34/49 55/37/55
f 46/31/46 51/24/51 58/25/58
f 54/26/54 59/28/59 53/36/53
f 54/26/54 58/25/58 59/28/59
f 58/25/58 51/24/51 59/28/59
f 57/37/57 60/34/60 52/30/52
f 57/37/57 55/37/55 61/38/61
f 57/37/57 61/38/61 60/34/60
f 51/24/51 60/34/60 59/28/59
f 51/24/51 52/30/52 60/34/60
f 49/34/49 53/36/53 62/39/62
f 49/34/49 62/39/62 55/37/55
f 62/39/62 60/34/60 61/38/61
f 62/39/62 53/36/53 59/28/59
f 62/39/62 61/38/61 55/37/55
f 62/39/62 59/28/59 60/34/60
f 63/40/39 64/41/40 65/42/41
f 63/40/39 66/43/42 64/41/40
f 63/40/39 65/42/41 67/44/43
f 63/40/39 46/45/63 66/43/42
f 63/40/39 67/44/43 40/46/64
f 63/40/39 40/46/64 46/45/63
f 64/41/40 66/43/42 68/47/46
f 65/42/41 69/48/47 67/44/43
f 40/46/64 67/44/43 41/49/65
f 69/48/47 70/50/53 67/44/43
f 67/44/43 70/50/53 41/49/65
f 70/50/53 47/51/66 41/49/65
f 71/44/51 72/42/58 68/48/46
f 71/44/51 73/40/59 72/42/58
f 71/44/51 68/48/46 66/50/42
f 71/44/51 54/46/67 73/40/59
f 71/44/51 66/50/42 58/49/68
f 71/44/51 58/49/68 54/46/67
f 72/42/58 73/40/59 74/41/54
f 66/50/42 46/51/63 58/49/68
f 54/46/67 47/45/66 73/40/59
f 74/41/54 73/40/59 70/43/53
f 74/41/54 70/43/53 69/47/47
f 70/43/53 73/40/59 47/45/66
f 75/52/42 76/53/46 77/54/40
f 75/52/42 78/55/51 76/53/46
f 75/52/42 77/54/40 79/55/39
f 75/52/42 72/56/68 78/55/51
f 75/52/42 79/55/39 68/57/63
f 75/52/42 68/57/63 72/56/68
f 76/53/46 78/55/51 80/54/58
f 79/55/39 64/56/64 68/57/63
f 79/55/39 81/58/43 64/56/64
f 72/56/68 74/59/67 78/55/51
f 80/54/58 78/55/51 82/58/59
f 80/54/58 82/58/59 83/60/54
f 78/55/51 74/59/67 82/58/59
f 81/58/43 65/59/65 64/56/64
f 81/58/43 84/61/53 65/59/65
f 81/58/43 85/62/47 84/61/53
f 81/58/43 86/60/41 85/62/47
f 83/60/54 82/58/59 84/61/53
f 83/60/54 84/61/53 85/62/47
f 74/59/67 69/63/66 82/58/59
f 69/63/66 65/59/65 84/61/53
f 69/63/66 84/61/53 82/58/59
f 87/64/69 88/65/70 89/66/71
f 87/64/69 2/67/72 88/65/70
f 87/64/69 89/66/71 90/68/73
f 87/64/69 91/69/74 2/67/72
f 87/64/69 90/68/73 92/70/75
f 87/64/69 92/70/75 91/69/74
f 88/65/70 93/71/76 89/66/71
f 93/71/76 2/67/72 91/69/74
f 94/64/77 95/68/78 96/66/79
f 94/64/77 97/70/80 95/68/78
f 94/64/77 96/66/79 98/65/81
f 94/64/77 99/69/82 97/70/80
f 94/64/77 98/65/81 35/67/83
f 94/64/77 35/67/83 99/69/82
f 96/66/79 100/71/84 98/65/81
f 100/71/84 99/69/82 35/67/83
f 101/72/85 92/73/75 90/74/73
f 101/72/85 91/75/74 92/73/75
f 101/72/85 90/74/73 89/76/71
f 101/72/85 93/77/76 91/75/74
f 101/72/85 89/76/71 93/77/76
f 102/72/86 95/74/78 97/73/80
f 102/72/86 96/76/79 95/74/78
f 102/72/86 97/73/80 99/75/82
f 102/72/86 100/77/84 96/76/79
f 102/72/86 99/75/82 100/77/84
f 103/78/87 104/79/88 5/80/5
f 103/78/87 105/81/89 104/79/88
f 103/78/87 5/80/5 27/82/27
f 103/78/87 32/83/32 105/81/89
f 103/78/87 27/82/27 32/83/32
f 104/79/88 7/84/7 5/80/5
f 104/79/88 105/81/89 106/85/90
f 32/83/32 37/86/37 105/81/89
f 105/81/89 37/86/37 106/85/90
f 37/86/37 36/87/36 106/85/90
f 107/88/91 108/89/92 109/90/93
f 107/88/91 110/90/94 108/89/92
f 107/88/91 109/90/93 111/91/95
f 107/88/91 111/91/95 110/90/94
f 112/92/96 113/93/97 114/94/98
f 112/92/96 115/95/99 113/93/97
f 112/92/96 114/94/98 116/96/100
f 112/92/96 116/96/100 115/95/99
f 117/92/101 118/94/102 119/93/103
f 117/92/101 120/96/104 118/94/102
f 117/92/101 119/93/103 121/95/105
f 117/92/101 121/95/105 120/96/104
f 122/97/106 123/98/107 124/99/108
f 122/97/106 124/99/108 125/100/109
f 122/97/106 125/100/109 126/101/110
f 122/97/106 126/101/110 123/102/107
f 127/97/111 128/98/112 129/99/113
f 127/97/111 129/99/113 130/100/114
f 127/97/111 130/100/114 131/101/115
f 127/97/111 131/101/115 128/102/112
f 132/97/116 133/98/117 134/99/118
f 132/97/116 134/99/118 135/100/119
f 132/97/116 135/100/119 136/101/120
f 132/97/116 136/101/120 133/102/117
f 137/97/121 138/98/122 139/99/123
f 137/97/121 139/99/123 140/100/124
f 137/97/121 140/100/124 141/101/125
f 137/97/121 141/101/125 138/102/122
f 142/103/126 143/104/127 144/105/51
f 142/103/126 77/106/40 143/104/127
f 142/103/126 86/107/41 77/106/40
f 144/105/51 143/108/127 145/109/128
f 143/108/127 76/106/46 145/109/128
f 143/108/127 77/107/40 76/106/46
f 145/103/128 146/110/129 144/111/51
f 145/103/128 80/112/58 146/110/129
f 145/103/128 76/113/46 80/112/58
f 144/111/51 146/108/129 147/114/130
f 144/111/51 147/115/130 148/104/131
f 146/108/129 83/116/54 147/114/130
f 146/108/129 80/107/58 83/116/54
f 147/115/130 85/117/47 148/104/131
f 147/115/130 83/118/54 85/117/47
f 148/115/131 142/104/126 144/119/51
f 148/115/131 86/116/41 142/104/126
f 148/115/131 85/107/47 86/116/41
f 104/120/88 24/121/24 15/122/15
f 104/120/88 106/120/90 24/121/24
f 104/120/88 15/122/15 7/123/7
f 106/120/90 31/122/31 24/121/24
f 106/120/90 36/123/36 31/122/31
f 149/124/132 150/125/132 151/126/133
f 149/124/132 152/127/134 150/125/132
f 153/124/135 154/125/135 155/126/136
f 153/124/135 156/127/137 154/125/135
f 157/124/138 158/125/138 159/126/139
f 157/124/138 160/127/140 158/125/138
f 161/124/141 162/125/141 163/126/142
f 161/124/141 164/127/143 162/125/141
f 165/124/144 166/125/144 167/126/145
f 165/124/144 168/127/146 166/125/144
f 169/124/147 170/125/147 171/126/148
f 169/124/147 172/127/149 170/125/147
f 173/124/150 174/125/150 175/126/151
f 173/124/150 176/127/152 174/125/150
f 177/124/153 178/125/153 179/126/154
f 177/124/153 180/127/155 178/125/153
f 181/124/156 182/125/156 183/126/157
f 181/124/156 184/127/158 182/125/156
f 185/124/159 186/125/159 187/126/160
f 185/124/159 188/127/161 186/125/159
f 189/124/162 190/125/162 191/126/163
f 189/124/162 192/127/164 190/125/162
f 193/124/165 194/125/165 195/126/166
f 193/124/165 196/127/167 194/125/165
f 152/128/168 151/126/168 150/125/168
f 156/128/169 155/126/169 154/125/169
f 160/128/170 159/126/170 158/125/170
f 164/128/171 163/126/171 162/125/171
f 168/128/172 167/126/172 166/125/172
f 172/128/173 171/126/173 170/125/173
f 176/128/174 175/126/174 174/125/174
f 180/128/175 179/126/175 178/125/175
f 184/128/176 183/126/176 182/125/176
f 188/128/177 187/126/177 186/125/177
f 192/128/178 191/126/178 190/125/178
f 196/128/179 195/126/179 194/125/179
vt -0.446432 0.760342
vt 0.446432 0.760342
vt -0.493764 0.979658
vt 0.493764 0.979658
vt 1.02606 0.932438
vt 0.581857 0.984429
vt 0.996589 0.730393
vt 0.551087 0.807722
vt 1.02591 0.932461
vt 0.581703 0.984365
vt 0.55107 0.807638
o merged_1_0_node
g polygon_0
usemtl TEX_ANIM_EYE_mat_id
f 77/129/40 86/130/41 79/131/39
f 79/131/39 86/130/41 81/132/43
f 3/133/3 16/134/16 5/135/5
f 5/135/5 16/134/16 27/136/27
f 34/137/34 37/135/37 26/138/26
f 26/138/26 37/135/37 32/139/32
