mtllib Meowstic_Male.mtl
v -0.0557762 0.554867 0.0532823
vt 0.327194 0.936885
vn -0.153579 0.9504747 0.2702059
v 0 0.549172 0.0849888
vt 0.331311 0.934545
vn 0 0.8632469 0.504782
v 0 0.55703 -0.0711661
vt 0.331311 0.94607
vn 0 0.9326908 -0.3606769
v -0.116654 0.486012 0.115393
vt 0.322701 0.932301
vn -0.592637 0.564996 0.574074
v -0.116654 0.516514 -0.0841597
vt 0.322701 0.947029
vn -0.2840859 0.6110009 -0.7388999
v -0.180499 0.452742 -0.00413041
vt 0.317989 0.941122
vn -0.9795356 0.04723098 0.1956509
v -0.162413 0.619446 0.0428012
vt 0.319324 0.937659
vn 0.6101291 0.7890351 0.07187661
v -0.247762 0.530552 -0.00798469
vt 0.313025 0.941407
vn -0.8142028 -0.2337839 -0.5314309
v 0.0557762 0.554867 0.0532823
vt 0.335427 0.936885
vn 0.153579 0.9504747 0.2702059
v 0 0.471316 0.164068
vt 0.331311 0.928709
vn 0 0.4555509 0.8902097
v 0.116654 0.486012 0.115393
vt 0.33992 0.932301
vn 0.592637 0.564996 0.574074
v -0.17216 0.386741 -0.100594
vt 0.318605 0.948242
vn -0.8289276 0.04241208 -0.5577458
v 0 0.481842 -0.150839
vt 0.331311 0.95195
vn 0 0.5254533 -0.8508225
v -0.0720964 0.385877 -0.176409
vt 0.32599 0.953837
vn -0.3336209 0.04462349 -0.9416506
v -0.043842 0.39524 0.157558
vt 0.328075 0.929189
vn -0.359263 0.0693777 0.930654
v -0.147251 0.415265 0.107959
vt 0.320443 0.93285
vn -0.7818201 0.109447 0.6138231
v 0.180499 0.452742 -0.00413041
vt 0.344632 0.941122
vn 0.9795356 0.04723088 0.1956509
v 0.116654 0.516514 -0.0841597
vt 0.33992 0.947029
vn 0.2840859 0.6110009 -0.7388999
v 0.247762 0.530552 -0.00798469
vt 0.349597 0.941407
vn 0.8142028 -0.2337839 -0.5314309
v 0.162413 0.619446 0.0428012
vt 0.343297 0.937659
vn -0.6101291 0.7890351 0.07187661
v -0.116654 0.281609 -0.108781
vt 0.322701 0.948846
vn -0.5532821 -0.6140271 -0.562894
v -0.182894 0.322921 -0.00267322
vt 0.317812 0.941015
vn -0.932808 -0.360314 0.00657077
v 0 0.339761 0.170902
vt 0.331311 0.928204
vn 0 0.07361051 0.9972871
v 0.043842 0.39524 0.157558
vt 0.334546 0.929189
vn 0.359263 0.0693777 0.930654
v 0.17216 0.386741 -0.100594
vt 0.344017 0.948242
vn 0.8289276 0.04241208 -0.5577458
v 0.147251 0.415265 0.107959
vt 0.342178 0.93285
vn 0.7818201 0.109447 0.6138231
v 0.182894 0.322921 -0.00267322
vt 0.344809 0.941015
vn 0.932808 -0.360314 0.00657075
v 0.0720964 0.385877 -0.176409
vt 0.336632 0.953837
vn 0.3336209 0.04462349 -0.9416506
v -0.0946733 0.232663 0.00163431
vt 0.324323 0.940697
vn -0.4871989 -0.8730558 -0.02027179
v 0 0.290252 -0.148688
vt 0.331311 0.951791
vn 0 -0.516041 -0.8565639
v 0 0.228006 -0.0858079
vt 0.331311 0.94715
vn 0 -0.910445 -0.41363
v -0.152242 0.310136 0.107101
vt 0.320075 0.932913
vn -0.7445362 -0.3728121 0.5537842
v -0.0417234 0.304372 0.162044
vt 0.328231 0.928858
vn -0.3850309 -0.2885589 0.8766328
v 0.152242 0.310136 0.107101
vt 0.342547 0.932913
vn 0.7445362 -0.3728121 0.5537842
v 0.116654 0.281609 -0.108781
vt 0.33992 0.948846
vn 0.5532821 -0.6140271 -0.562894
v 0.0946733 0.232663 0.00163431
vt 0.338298 0.940697
vn 0.4871989 -0.8730558 -0.02027179
v 0.0417234 0.304372 0.162044
vt 0.33439 0.928858
vn 0.3850309 -0.2885589 0.8766328
v -0.0445164 0.239526 0.104915
vt 0.328025 0.933074
vn -0.31998 -0.8419929 0.434351
v 0 0.219059 0.0293492
vt 0.331311 0.938651
vn 0 -0.998426 0.0560851
v 0.0445164 0.239526 0.104915
vt 0.334596 0.933074
vn 0.31998 -0.8419929 0.434351
v 0 0.27243 0.147201
vt 0.331311 0.929953
vn 0 -0.6804088 0.7328328
v 0.0608936 0.165221 -0.271413
vt 0.909781 0.317626
vn -0.6114221 0.6439221 -0.4599211
v 0.0205749 0.145158 -0.19258
vt 0.996695 0.524782
vn -0.9218974 0.3226051 -0.2145491
v 0.0636631 0.165744 -0.138454
vt 0.900776 0.608929
vn 0.009588448 0.7676498 0.6407978
v 0.0569943 0.08739401 -0.194228
vt 1.08561 0.454263
vn -0.3177641 -0.9156912 -0.24604
v 0.138947 0.192293 -0.243119
vt 0.761403 0.310816
vn 0.4489329 0.8935507 0.005137708
v 0.102657 0.08871481 -0.270363
vt 1.03463 0.238226
vn -0.522916 -0.835275 0.169925
v 0.157777 0.120498 -0.33643
vt 0.824963 0.0598444
vn 0.5824333 0.2464221 -0.7746274
v 0.0881567 0.127182 -0.325299
vt 0.929347 0.15909
vn -0.6164289 0.146628 -0.7736379
v 0.161923 0.114119 -0.211706
vn 0.8949351 -0.118013 0.430307
v 0.101146 0.104404 -0.144963
vn 0.5881213 -0.4411822 0.6778433
v 0.100199 0.03266411 -0.314177
vt 1.02043 -0.207573
vn -0.184532 -0.8788559 -0.4399549
v 0.170922 0.08531861 -0.276386
vn 0.8137579 -0.57678 0.07157509
v 0.0525641 0.259939 -0.230461
vt 0.932205 0.412172
vn -0.6557891 0.6912381 -0.3035301
v 0.0188505 0.185107 -0.167035
vt 1.12931 0.559315
vn -0.9561737 0.108029 -0.2721429
v 0.0514101 0.192786 -0.0945748
vt 1.06826 0.686512
vn -0.3109928 0.3951018 0.8643946
v 0.0753793 0.132366 -0.186847
vt 1.19035 0.463142
vn -0.118444 -0.8444659 -0.5223489
v 0.135833 0.296981 -0.148248
vt 0.749505 0.516817
vn 0.2008599 0.8858258 0.4182919
v 0.133438 0.160023 -0.261417
vt 1.07506 0.245632
vn -0.370534 -0.9155219 -0.156602
v 0.20528 0.253361 -0.303094
vt 0.744016 0.0971547
vn 0.59528 0.683735 -0.422076
v 0.106321 0.223836 -0.317252
vt 0.918149 0.163074
vn -0.551177 0.276315 -0.787308
v 0.193513 0.188645 -0.147163
vn 0.8205088 -0.05549338 0.5689339
v 0.107939 0.140045 -0.114386
vn 0.503727 -0.6304089 0.5906299
v 0.166339 0.131118 -0.341828
vt 0.939952 -0.106244
vn 0.205283 -0.5444089 -0.8133129
v 0.221444 0.165605 -0.249216
vn 0.889507 -0.452402 0.0641077
v 0 0.264162 0
vt 0.952545 0.0387308
vn 0 0.9999976 0.002220109
v 0.0495243 0.206546 -0.0857785
vt 0.959219 0.0502896
vn 0.4997099 0.03406449 -0.8655228
v -0.0495243 0.206546 -0.0857786
vt 0.945872 0.0502896
vn -0.4997099 0.03406449 -0.8655228
v 0.0990485 0.206546 0
vt 0.965892 0.0387308
vn 0.9989223 0.03878891 -0.02548771
v -0.0990485 0.206546 0
vt 0.939198 0.0387308
vn -0.9989223 0.03878891 -0.02548801
v 0.0495243 0.206546 0.0688821
vt 0.959219 0.0294488
vn 0.469321 0.0304324 0.882503
v -0.0495243 0.206546 0.0688821
vt 0.945872 0.0294488
vn -0.469321 0.0304325 0.882503
v 0 0.1675 0
v 0.0416173 0.20652 -0.0603423
vt 0.940168 0.950645
vn 0.3441089 0.6803039 -0.6471289
v 0.0418686 0.131651 -0.0888897
vt 0.940223 0.934313
vn 0.4686468 0.2263989 -0.8538816
v -0.0418686 0.131651 -0.0888897
vt 0.921956 0.934313
vn -0.4686468 0.2263989 -0.8538816
v 0.102384 0.120585 -0.000259803
vt 0.953424 0.931899
vn 0.9650109 -0.09267559 -0.245286
v -0.0416173 0.20652 -0.0603423
vt 0.922011 0.950645
vn -0.3441089 0.6803039 -0.6471289
v 0.0832346 0.20652 0
vt 0.949247 0.950645
vn 0.6209368 0.7517067 -0.2222039
v 0 0.239943 0
vt 0.93109 0.957936
v -0.0463725 0.0772886 -0.09621641
vt 0.920974 0.922454
vn -0.2819771 -0.5290571 -0.8003671
v 0.0463725 0.0772886 -0.09621641
vt 0.941206 0.922454
vn 0.2819771 -0.5290571 -0.8003671
v -0.0832347 0.20652 0
vt 0.912933 0.950645
vn -0.6209368 0.7517067 -0.2222039
v -0.102384 0.120585 -0.000259822
vt 0.908755 0.931899
vn -0.9650109 -0.09267559 -0.245286
v 0.0416173 0.20652 0.0603422
vn 0.06593923 0.7542193 0.6533033
v 0.108871 0.0568497 -0.000399986
vt 0.954839 0.917995
vn 0.9581065 -0.2822408 -0.04870458
v 0.0624018 0.0568497 0.0782171
vt 0.944702 0.917995
vn 0.3040401 -0.6210921 0.7223601
v 0.0535895 0.120585 0.0842516
vt 0.94278 0.931899
vn 0.2369911 -0.1228711 0.9637105
v -0.0416173 0.20652 0.0603422
vn -0.06593913 0.7542194 0.6533033
v -0.108871 0.0568497 -0.000399986
vt 0.90734 0.917995
vn -0.9581063 -0.2822411 -0.04870491
v 0 0.0396128 -0.000399985
vt 0.93109 0.914235
vn 0 -0.9996486 -0.02650759
v -0.0535896 0.120585 0.0842516
vt 0.9194 0.931899
vn -0.2369909 -0.1228709 0.9637105
v -0.0624018 0.0568497 0.0782171
vt 0.917477 0.917995
vn -0.3040401 -0.6210921 0.7223601
v 0.0513809 0.58469 0.133335
vt 0.949349 0.054692
vn 0.150835 0.7550961 0.6380271
v -0.0308282 0.500814 0.137915
vt 0.932062 0.0537289
vn -0.9607494 0.2678701 0.07215403
v 0.0149128 0.517561 0.18262
vt 0.94168 0.0443283
vn 0.0104679 0.4951739 0.8687308
v -0.00457768 0.555975 0.0698999
vt 0.937582 0.0680311
vn -0.8004155 0.5274997 -0.2847438
v 0.0490171 0.468507 0.154304
vt 0.948852 0.0502829
vn 0.782442 -0.425775 0.454423
v 0.0807445 0.600014 0.031187
vt 0.955523 0.0761715
vn 0.3920361 0.5845831 -0.7103311
v 0.0941972 0.517688 0.092624
vt 0.958352 0.0632528
vn 0.9779139 -0.169918 0.121706
v -0.0266025 0.415809 0.187431
vt 0.93295 0.0433169
vn -0.418184 -0.8759729 0.240403
v -0.0512304 0.55009 0.131408
vt 0.927772 0.0550972
vn -0.330633 0.6215389 0.710191
v -0.0313673 0.566454 0.0485933
vt 0.931949 0.0725114
vn -0.5706722 0.4972292 -0.6535262
v -0.0728675 0.528747 0.0804689
vt 0.923222 0.0658087
vn -0.8718823 0.2408141 -0.4264151
v -0.00920102 0.592171 0.104783
vt 0.93661 0.060696
vn -0.120319 0.8137611 0.5686091
v -0.0960264 0.472666 0.142857
vt 0.918352 0.0526898
vn -0.6013281 -0.7356381 0.3118351
v 0.0292253 0.539099 0.100684
vt 0.94469 0.0615579
vn 0.8259459 -0.133539 0.547705
v -0.0154333 0.502818 0.129844
vt 0.935299 0.0554261
vn 0.513505 -0.385047 0.7668451
v 0.044338 0.605522 0.0493513
vt 0.947868 0.0723521
vn 0.682083 0.5052329 -0.52868
v 0.0217136 0.210137 0.0809038
vt 0.955111 0.0280471
vn -0.09798597 0.6754649 0.7308529
vt 0.959161 0.0294537
vn 0.7061701 0.358278 0.6107051
v 0.0349243 0.223225 0.0474411
vt 0.957223 0.0323397
vn 0.0349111 0.9259789 0.3759579
v 0.0318756 0.194712 0.0782643
vt 0.954063 0.0274076
vn 0.5481749 0.08689238 0.8318378
v 0.00622496 0.205449 0.0659383
vt 0.954081 0.0298419
vn -0.752171 0.421824 -0.506264
v -0.00720691 0.181853 0.0833897
vt 0.948964 0.0253615
vn -0.3829921 -0.8578592 -0.342629
v -0.176657 0.520085 0.145987
vt 0.359642 0.275016
vn -0.0365029 0.406249 0.913033
v -0.108195 0.533074 0.102869
vt 0.332496 0.275016
vn 0.8221771 0.543018 0.170752
vt 0.332496 0.512536
v -0.112054 0.409027 0.151573
vt 0.348923 0.0241846
vn 0.4543991 -0.6709741 0.5859311
v -0.230875 0.606458 0.0859199
vt 0.359642 0.512536
vn -0.175629 0.6265078 0.7593698
v -0.21581 0.479305 0.12269
vt 0.379799 0.275016
vn -0.7990769 -0.388003 0.459271
vt 0.370061 0.0241846
v -0.270988 0.663428 -0.0268868
vt 0.348923 0.770593
vn -0.5891029 0.7338368 -0.3382919
v -0.270028 0.565678 0.0626223
vt 0.379799 0.512536
vn -0.937149 -0.166874 0.306439
v -0.193543 0.444179 0.0520828
vt 0.40696 0.275016
vn -0.6647751 -0.7264311 -0.174275
vt 0.391477 0.0241846
vt 0.370061 0.770593
vt 0.40696 0.512536
vt 0.391477 0.770593
v 0.176657 0.520085 0.145987
vn 0.0365028 0.406249 0.913033
v 0.108195 0.533074 0.102869
vn -0.8221771 0.543018 0.170752
v 0.230875 0.606458 0.0859199
vn 0.175629 0.6265078 0.7593698
v 0.112054 0.409027 0.151573
vn -0.4543991 -0.6709741 0.5859311
v 0.21581 0.479305 0.12269
vn 0.7990769 -0.388003 0.459271
v 0.270988 0.663428 -0.0268868
vn 0.5891029 0.7338368 -0.3382919
v 0.270028 0.565678 0.0626223
vn 0.937149 -0.166874 0.306439
v 0.193543 0.444179 0.0520828
vn 0.6647751 -0.7264311 -0.174275
v -0.0233487 0.208971 0.0867704
vt 0.950446 0.0270432
vn 0.162668 0.469891 0.8676069
v 0.0156682 0.206546 0.0688821
vt 0.954655 0.0294476
vn 0.8024796 0.3328198 0.4952348
v -0.00542232 0.223759 0.0469787
vt 0.951817 0.0323993
vn -0.00733834 0.911471 0.411299
v -0.0638803 0.162295 0.103072
vt 0.944932 0.024842
vn -0.75104 -0.529936 0.393836
v -0.0445118 0.206546 0.0688821
vt 0.946553 0.029449
vn -0.8098339 0.339221 0.478642
v -0.0634212 -7.450581E-09 0
vt 0.56694 0.187284
vn -0.17628 -0.9834527 -0.04178819
vt 0.566622 0.385127
vt 0.525817 0.316061
vt 0.605079 0.303776
vt 0.569636 0.32704
v 0.0634212 -7.450581E-09 0
vn 0.17628 -0.9834527 -0.04178829
v -0.166483 0.167239 0.11189
vt 0.618418 0.12076
vn -0.7824699 0.316185 0.53644
vt 0.656912 0.421586
vt 0.656818 0.418441
vt 0.592143 0.41321
vt 0.591514 0.39221
v 0.166483 0.167239 0.11189
vn 0.7824699 0.316185 0.53644
v 0 0.320097 0.178763
vt 0.131927 0.952089
vn 0 -0.231121 0.972925
vt 0.131927 1.00125
vt 0.0276191 0.912778
vt 0.236236 0.912778
vt 0.131927 0.832923
vt 0.0206364 0.750663
vt 0.243219 0.750663
v 0.000409478 0.080965 -0.103983
vt 0.822908 0.930053
vn -0.6069909 -0.3929749 0.6907479
vt 0.825597 0.938531
vt 0.818829 0.936472
vt 0.828075 0.932397
vt 0.821535 0.930696
v 0.000426542 0.08121931 -0.103794
vt 0.32326 0.931078
vn -0.576098 -0.744336 0.33775
vt 0.32778 0.942234
vt 0.320659 0.941466
vt 0.330883 0.93696
vt 0.323762 0.936192
v 0.148422 0.0447199 0
vt 0.954466 0.950731
vn 0.9822705 -0.1874691 0
v 0.09519181 0.0664065 0.0184615
vt 0.947293 0.948243
vn 0.8598311 -0.149025 0.4883461
v 0.09519181 0.0664065 -0.0184616
vt 0.947293 0.953219
vn 0.8401681 -0.23711 -0.4877461
v 0.101401 0.0990723 0
vt 0.94813 0.950731
vn 0.9578956 0.2871169 0
v -0.148422 0.0447199 0
vt 0.914466 0.950731
vn -0.9822705 -0.1874691 0
v -0.09519181 0.0664065 -0.0184616
vt 0.921639 0.953219
vn -0.8401681 -0.23711 -0.4877461
v -0.09519181 0.0664065 0.0184615
vt 0.921639 0.948243
vn -0.8598311 -0.149025 0.4883461
v -0.101401 0.0990723 0
vt 0.920802 0.950731
vn -0.9578956 0.2871169 0
v -0.145129 0.218744 -0.00063802
vt 0.932989 0.0388169
vn -0.9515829 0.145924 -0.270548
v -0.0602652 0.206546 0.052891
vt 0.944425 0.0316038
vn -0.7299191 0.0209644 0.683212
v -0.0346492 0.231004 0.0294261
vt 0.947876 0.0347655
vn -0.2537181 0.9347423 0.2487651
vn -0.208821 -0.00134426 -0.977953
v -0.117233 0.216918 -0.0826695
vt 0.936767 0.0498685
vn -0.03531859 0.159674 -0.9865378
v -0.0837958 0.206565 -0.0232963
vt 0.94128 0.0418906
vn -0.7972867 -0.4805838 0.3652029
v -0.0458418 0.229601 -0.00584021
vt 0.946367 0.0395287
vn 0.2185799 0.9096277 -0.3532709
v -0.0313442 0.198843 -0.0451238
vt 0.948309 0.0448018
vn 0.4300498 0.5388657 -0.7243487
vt 0.00114322 0.275016
vt 0.124658 0.0241846
vt 0.255877 0.275016
vt 0.255877 0.512536
vt 0.00114322 0.512536
vt 0.529471 0.769808
vt 0.529471 0.285172
vt 0.552109 0.512536
vt 0.503795 0.512536
o merged_0_0_node
g polygon_0
usemtl phong2_mat_id
f 1/1/1 2/2/2 3/3/3
f 1/1/1 4/4/4 2/2/2
f 1/1/1 3/3/3 5/5/5
f 1/1/1 6/6/6 4/4/4
f 1/1/1 5/5/5 7/7/7
f 1/1/1 8/8/8 6/6/6
f 1/1/1 7/7/7 8/8/8
f 8/8/8 5/5/5 6/6/6
f 2/2/2 9/9/9 3/3/3
f 2/2/2 4/4/4 10/10/10
f 2/2/2 11/11/11 9/9/9
f 2/2/2 10/10/10 11/11/11
f 5/5/5 12/12/12 6/6/6
f 5/5/5 3/3/3 13/13/13
f 5/5/5 14/14/14 12/12/12
f 5/5/5 13/13/13 14/14/14
f 4/4/4 15/15/15 10/10/10
f 4/4/4 6/6/6 16/16/16
f 4/4/4 16/16/16 15/15/15
f 9/9/9 11/11/11 17/17/17
f 9/9/9 18/18/18 3/3/3
f 9/9/9 17/17/17 19/19/19
f 9/9/9 20/20/20 18/18/18
f 9/9/9 19/19/19 20/20/20
f 19/19/19 17/17/17 18/18/18
f 3/3/3 18/18/18 13/13/13
f 12/12/12 14/14/14 21/21/21
f 12/12/12 22/22/22 6/6/6
f 12/12/12 21/21/21 22/22/22
f 6/6/6 22/22/22 16/16/16
f 10/10/10 15/15/15 23/23/23
f 10/10/10 24/24/24 11/11/11
f 10/10/10 23/23/23 24/24/24
f 17/17/17 25/25/25 18/18/18
f 17/17/17 11/11/11 26/26/26
f 17/17/17 27/27/27 25/25/25
f 17/17/17 26/26/26 27/27/27
f 11/11/11 24/24/24 26/26/26
f 13/13/13 28/28/28 14/14/14
f 13/13/13 18/18/18 28/28/28
f 18/18/18 25/25/25 28/28/28
f 21/21/21 29/29/29 22/22/22
f 21/21/21 14/14/14 30/30/30
f 21/21/21 31/31/31 29/29/29
f 21/21/21 30/30/30 31/31/31
f 14/14/14 28/28/28 30/30/30
f 16/16/16 22/22/22 32/32/32
f 22/22/22 29/29/29 32/32/32
f 15/15/15 33/33/33 23/23/23
f 27/27/27 26/26/26 34/34/34
f 27/27/27 35/35/35 25/25/25
f 27/27/27 34/34/34 36/36/36
f 27/27/27 36/36/36 35/35/35
f 35/35/35 36/36/36 31/31/31
f 35/35/35 28/28/28 25/25/25
f 35/35/35 31/31/31 30/30/30
f 35/35/35 30/30/30 28/28/28
f 24/24/24 23/23/23 37/37/37
f 29/29/29 38/38/38 32/32/32
f 29/29/29 31/31/31 39/39/39
f 29/29/29 39/39/39 38/38/38
f 31/31/31 36/36/36 39/39/39
f 32/32/32 38/38/38 33/33/33
f 34/34/34 37/37/37 40/40/40
f 34/34/34 40/40/40 36/36/36
f 39/39/39 40/40/40 38/38/38
f 39/39/39 36/36/36 40/40/40
f 38/38/38 40/40/40 41/41/41
f 42/42/42 43/43/43 44/44/44
f 42/42/42 45/45/45 43/43/43
f 42/42/42 44/44/44 46/46/46
f 42/42/42 47/47/47 45/45/45
f 42/42/42 46/46/46 48/48/48
f 42/42/42 49/49/49 47/47/47
f 42/42/42 48/48/48 49/49/49
f 44/44/44 50/42/50 46/46/46
f 44/44/44 51/43/51 50/42/50
f 45/45/45 47/47/47 50/42/50
f 45/45/45 50/42/50 51/43/51
f 46/46/46 50/42/50 48/48/48
f 49/49/49 52/50/52 47/47/47
f 49/49/49 48/48/48 52/50/52
f 50/42/50 47/47/47 53/49/53
f 50/42/50 53/49/53 48/48/48
f 53/49/53 47/47/47 52/50/52
f 53/49/53 52/50/52 48/48/48
f 54/51/54 55/52/55 56/53/56
f 54/51/54 57/54/57 55/52/55
f 54/51/54 56/53/56 58/55/58
f 54/51/54 59/56/59 57/54/57
f 54/51/54 58/55/58 60/57/60
f 54/51/54 61/58/61 59/56/59
f 54/51/54 60/57/60 61/58/61
f 56/53/56 62/51/62 58/55/58
f 56/53/56 63/52/63 62/51/62
f 57/54/57 59/56/59 62/51/62
f 57/54/57 62/51/62 63/52/63
f 58/55/58 62/51/62 60/57/60
f 61/58/61 64/59/64 59/56/59
f 61/58/61 60/57/60 64/59/64
f 62/51/62 59/56/59 65/58/65
f 62/51/62 65/58/65 60/57/60
f 65/58/65 59/56/59 64/59/64
f 65/58/65 64/59/64 60/57/60
f 66/60/66 67/61/67 68/62/68
f 66/60/66 69/63/69 67/61/67
f 66/60/66 68/62/68 70/64/70
f 66/60/66 71/65/71 69/63/69
f 66/60/66 70/64/70 72/66/72
f 66/60/66 72/66/72 71/65/71
f 67/61/67 73/60/66 68/62/68
f 67/61/67 69/63/69 73/60/66
f 73/60/66 72/66/72 70/64/70
f 73/60/66 71/65/71 72/66/72
f 73/60/66 70/64/70 68/62/68
f 73/60/66 69/63/69 71/65/71
f 74/67/73 75/68/74 76/69/75
f 74/67/73 77/70/76 75/68/74
f 74/67/73 76/69/75 78/71/77
f 74/67/73 79/72/78 77/70/76
f 74/67/73 78/71/77 80/73/66
f 74/67/73 80/73/66 79/72/78
f 75/68/74 81/74/79 76/69/75
f 75/68/74 77/70/76 82/75/80
f 75/68/74 82/75/80 81/74/79
f 78/71/77 83/76/81 80/73/66
f 78/71/77 76/69/75 84/77/82
f 78/71/77 84/77/82 83/76/81
f 76/69/75 81/74/79 84/77/82
f 79/72/78 80/73/66 85/67/83
f 77/70/76 86/78/84 82/75/80
f 77/70/76 87/79/85 86/78/84
f 77/70/76 88/80/86 87/79/85
f 83/76/81 89/71/87 80/73/66
f 85/67/83 89/71/87 88/80/86
f 85/67/83 80/73/66 89/71/87
f 81/74/79 90/81/88 84/77/82
f 81/74/79 82/75/80 91/82/89
f 87/79/85 88/80/86 92/83/90
f 87/79/85 93/84/91 91/82/89
f 87/79/85 92/83/90 93/84/91
f 93/84/91 84/77/82 90/81/88
f 93/84/91 92/83/90 84/77/82
f 92/83/90 88/80/86 89/71/87
f 94/85/92 95/86/93 96/87/94
f 94/85/92 97/88/95 95/86/93
f 94/85/92 96/87/94 98/89/96
f 94/85/92 99/90/97 97/88/95
f 94/85/92 98/89/96 100/91/98
f 94/85/92 100/91/98 99/90/97
f 97/88/95 98/89/96 95/86/93
f 97/88/95 99/90/97 100/91/98
f 97/88/95 100/91/98 98/89/96
f 96/87/94 95/86/93 101/92/99
f 96/87/94 101/92/99 98/89/96
f 98/89/96 101/92/99 95/86/93
f 102/93/100 103/94/101 104/95/102
f 102/93/100 105/96/103 103/94/101
f 102/93/100 104/95/102 106/97/104
f 102/93/100 107/98/105 105/96/103
f 102/93/100 106/97/104 108/99/106
f 102/93/100 108/99/106 107/98/105
f 104/95/102 103/94/101 107/98/105
f 104/95/102 108/99/106 106/97/104
f 104/95/102 107/98/105 108/99/106
f 105/96/103 109/100/107 103/94/101
f 105/96/103 107/98/105 109/100/107
f 109/100/107 107/98/105 103/94/101
f 110/101/108 71/102/109 111/103/110
f 110/101/108 112/104/111 71/102/109
f 110/101/108 111/103/110 113/105/112
f 110/101/108 114/106/113 112/104/111
f 110/101/108 113/105/112 114/106/113
f 113/105/112 71/102/109 112/104/111
f 113/105/112 112/104/111 114/106/113
f 115/107/114 116/108/115 7/109/7
f 115/107/114 117/110/116 116/108/115
f 115/107/114 7/109/7 118/111/117
f 115/107/114 118/111/117 119/112/118
f 115/107/114 119/112/118 117/113/116
f 7/109/7 120/114/119 118/111/117
f 119/112/118 118/111/117 121/115/120
f 119/112/118 121/115/120 122/116/121
f 119/112/118 122/116/121 117/117/116
f 118/111/117 120/118/119 121/115/120
f 122/116/121 121/115/120 8/119/8
f 121/115/120 120/120/119 8/119/8
f 123/107/122 20/109/20 124/108/123
f 123/107/122 125/111/124 20/109/20
f 123/107/122 124/108/123 126/110/125
f 123/107/122 127/112/126 125/111/124
f 123/107/122 126/113/125 127/112/126
f 20/109/20 125/111/124 128/114/127
f 127/112/126 129/115/128 125/111/124
f 127/112/126 130/116/129 129/115/128
f 127/112/126 126/117/125 130/116/129
f 125/111/124 129/115/128 128/118/127
f 130/116/129 19/119/19 129/115/128
f 19/119/19 128/120/127 129/115/128
f 131/121/130 132/122/131 133/123/132
f 131/121/130 134/124/133 132/122/131
f 131/121/130 133/123/132 135/125/134
f 131/121/130 135/125/134 134/124/133
f 134/124/133 135/125/134 132/122/131
f 136/126/135 81/127/79 91/128/89
f 136/126/135 90/129/88 81/127/79
f 136/126/135 91/128/89 93/130/91
f 136/126/135 93/130/91 90/129/88
f 91/128/89 137/126/136 87/130/85
f 91/128/89 82/127/80 137/126/136
f 87/130/85 137/126/136 86/129/84
f 86/129/84 137/126/136 82/127/80
f 138/131/137 89/132/87 83/133/81
f 138/131/137 92/134/90 89/132/87
f 138/131/137 83/133/81 84/135/82
f 138/131/137 84/135/82 92/134/90
f 139/131/138 79/133/78 85/132/83
f 139/131/138 77/135/76 79/133/78
f 139/131/138 85/132/83 88/134/86
f 139/131/138 88/134/86 77/135/76
f 140/136/139 23/137/23 33/138/33
f 140/136/139 37/139/37 23/137/23
f 140/136/139 33/138/33 41/140/41
f 140/136/139 41/140/41 37/139/37
f 33/138/33 38/141/38 41/140/41
f 37/139/37 41/140/41 40/142/40
f 141/143/140 44/144/44 43/145/43
f 141/143/140 51/146/51 44/144/44
f 141/143/140 43/145/43 45/147/45
f 141/143/140 45/147/45 51/146/51
f 142/148/141 56/149/56 55/150/55
f 142/148/141 63/151/63 56/149/56
f 142/148/141 55/150/55 57/152/57
f 142/148/141 57/152/57 63/151/63
f 143/153/142 144/154/143 145/155/144
f 143/153/142 146/156/145 144/154/143
f 143/153/142 145/155/144 146/156/145
f 147/157/146 148/158/147 149/159/148
f 147/157/146 150/160/149 148/158/147
f 147/157/146 149/159/148 150/160/149
f 151/161/150 152/162/151 153/163/152
f 151/161/150 70/64/153 152/162/151
f 151/161/150 153/163/152 70/64/153
f 154/164/154 155/165/155 156/166/156
f 154/164/154 157/167/157 155/165/155
f 154/164/154 156/166/156 157/167/157
f 116/168/115 117/169/116 122/170/121
f 116/168/115 122/170/121 8/171/8
f 116/168/115 8/171/8 7/172/7
f 124/168/123 130/170/129 126/169/125
f 124/168/123 19/171/19 130/170/129
f 124/168/123 20/172/20 19/171/19
f 120/173/119 5/174/5 8/175/8
f 120/173/119 7/176/7 5/174/5
f 18/174/18 128/173/127 19/175/19
f 18/174/18 20/176/20 128/173/127
vt 0.975874 1.00022
vt 1.015 0.789163
vt 0.0242022 0.777591
vt 0.0551498 0.960016
o merged_1_0_node
g polygon_0
usemtl TEX_ANIM_EYE_mat_id
f 16/177/16 32/178/32 33/179/33
f 16/177/16 33/179/33 15/180/15
f 26/177/26 37/179/37 34/178/34
f 26/177/26 24/180/24 37/179/37
