mtllib Caterpie.mtl
v -0.0242419 0.09974787 -0.1062662
vt 0.752001 0.427696
vn -0.3878455 0.8881975 -0.2463354
v 0.0128585 0.08418117 -0.166191
vt 0.916283 0.361487
vn 0.4675044 0.8269966 -0.3122759
v -0.0128585 0.08418117 -0.166191
vn -0.467504 0.8269969 -0.3122756
v 0.0242419 0.09974787 -0.1062662
vn 0.3878455 0.8881975 -0.2463354
v -0.0257171 0.06400873 -0.16613
vt 0.916116 0.275693
vn -0.9237233 0.03775937 -0.3811949
v 0.0306041 0.1133 -0.0354328
vt 0.557805 0.485342
vn 0.3536889 0.8049228 -0.4764489
v -0.045529 0.05688239 -0.1071472
vt 0.754418 0.245384
vn -0.9506175 -0.1108703 -0.2898866
v -0.0306041 0.1133 -0.0354328
vn -0.3536889 0.8049228 -0.4764489
v -0.0623247 0.0567732 -0.0436367
vt 0.580297 0.24492
vn -0.9670587 -0.07698858 -0.2426319
v 0 0.07285737 -0.1998444
vt 1.00854 0.313326
vn 0 0.08477785 -0.9963999
v 0.0257171 0.06400863 -0.16613
vn 0.9237233 0.03775897 -0.3811949
v 0.0395801 0.1500278 0.00294017
vt 0.452593 0.64155
vn 0.4924007 0.2784953 -0.8246101
v 0.0623247 0.0567732 -0.0436367
vn 0.9670587 -0.07698858 -0.2426319
v 0.0756411 0.0695276 0.00621761
vt 0.443614 0.299167
vn 0.9605981 -0.120962 -0.250239
v -0.026882 0.01834644 -0.1078082
vt 0.75623 0.081486
vn -0.4490434 -0.8296034 -0.331841
v -0.0128585 0.04383629 -0.166069
vt 0.91595 0.189899
vn -0.4115684 -0.7786631 -0.4735981
v 0.045529 0.05688239 -0.1071472
vn 0.9506175 -0.1108703 -0.2898866
v 0.0128585 0.04383629 -0.166069
vn 0.4115681 -0.7786635 -0.4735977
v -0.0395801 0.1500278 0.00294017
vn -0.4874999 0.2749783 -0.8286922
v -0.0756411 0.0695276 0.00621761
vn -0.9605981 -0.120962 -0.250239
v 0.0354185 6.08921E-05 -0.0389464
vt 0.567438 0.00370775
vn 0.353049 -0.9267979 -0.128071
v 0.0977485 0.09886844 0.07347628
vt 0.259214 0.423962
vn 0.9897249 -0.1259004 -0.06777663
v 0.0405202 0.000617123 0.0497076
vt 0.32438 0.00607353
vn 0.324711 -0.9423991 0.08029081
v 0.026882 0.01834644 -0.1078082
vn 0.4490434 -0.8296034 -0.331841
v -0.0354185 6.08921E-05 -0.0389464
vn -0.353049 -0.9267979 -0.128071
v 0.0429864 0.2130162 -0.0008806834
vt 0.46306 0.909425
vn 0.5939946 0.1855365 -0.7827814
v -0.0977485 0.09886844 0.07347628
vn -0.9897249 -0.1259004 -0.06777672
v -0.0429864 0.2130162 -0.0008806954
vn -0.5909536 0.1801963 -0.7863225
v -0.0405202 0.000617123 0.0497076
vn -0.324711 -0.9423991 0.08029081
v 0.0507669 0.01681747 0.1176199
vt 0.138191 0.0749853
vn 0.2959253 -0.7809845 0.5499922
v 0.040756 0.2493168 0.01893588
vt 0.408734 1.06381
vn 0.5352747 0.750973 -0.3866789
v -0.097788 0.1781147 0.1080932
vt 0.164312 0.760993
vn -0.9944001 0.100529 -0.03259331
v -0.040756 0.2493168 0.01893578
vn -0.5383185 0.7513348 -0.3817187
v 0.0598892 0.08836337 0.1751895
vt -0.0196378 0.379282
vn 0.2751559 -0.3439968 0.8977503
v 0.097788 0.1781147 0.1080932
vn 0.9944003 0.1005281 -0.03259341
v -0.0507669 0.01681747 0.1176199
vn -0.2959253 -0.7809845 0.5499922
v -0.0884381 0.2094989 0.1203721
vt 0.130651 0.894468
vn -0.7249288 0.6449223 0.241978
v -0.0598892 0.08836337 0.1751895
vn -0.2751559 -0.3439968 0.8977503
v -0.0608764 0.1731714 0.1776932
vt -0.0264906 0.739968
vn -0.2707081 0.07999735 0.9593319
v 0.0884381 0.2094989 0.1203721
vn 0.7249288 0.6449223 0.241978
v 0 0.2784649 0.08918007
vt 0.216163 1.18778
vn 0 0.9876414 0.1567309
v 0.0608764 0.1731714 0.1776932
vn 0.2707081 0.07999735 0.9593319
v -0.021063 0.2160754 0.1660003
vt 0.00556461 0.922437
vn -0.1913929 0.5682755 0.8002698
v 0.021063 0.2160754 0.1660003
vn 0.1913929 0.5682755 0.8002698
v 0.151671 0.3349808 0.2660955
vt 0.741215 0.750944
vn 0.8518698 -0.0007903764 0.5237529
v 0.102772 0.2400004 0.2751307
vt 0.66439 0.507066
vn 0.6898158 -0.5654853 0.4520847
v 0.166288 0.2762795 0.1723441
vt 0.972827 0.600168
vn 0.9259872 -0.3775549 0
v 0.0648652 0.335993 0.3376636
vt 0.489995 0.758529
vn 0.4289081 0.1599491 0.8890749
v 0.166288 0.3936822 0.1723441
vt 0.972827 0.901044
vn 0.9259872 0.3775549 0
v 0.102772 0.4299613 0.2751307
vt 0.66439 0.993894
vn 0.5625194 0.6061052 0.5623242
vn 0.1047823 0.01992863 0.9942955
v 0.0635165 0.2931429 0.3386557
vt 0.473765 0.750402
vn 0.3078635 -0.01355459 0.951334
v -0.151671 0.3349808 0.2660955
vn -0.8503853 -0.0007798779 0.5261599
v -0.166288 0.2762795 0.1723441
vn -0.9259872 -0.3775549 0
v -0.102772 0.2400004 0.2751307
vn -0.6894884 -0.5645528 0.4537465
v -0.166288 0.3936822 0.1723441
vn -0.9259872 0.3775549 0
v -0.0639172 0.33599 0.3376446
vt 0.49373 0.758987
vn -0.4261737 0.1585602 0.8906373
v -0.102772 0.4299613 0.2751307
vn -0.5626624 0.6049412 0.5634333
v -0.0635165 0.2931429 0.3386557
vn -0.3264245 -0.01686205 0.9450729
vn -0.1026406 0.02230393 0.9944684
v 0.0195909 0.150925 -0.2014816
vt 0.0478713 0.0591769
vn 0.9984761 -0.05518516 1.861137E-08
v 0 0.150925 -0.2210738
vn 0 -0.05518195 -0.9984763
v 0 0.1705173 -0.2014816
vn 0 1 -3.372532E-07
v 0 0.08002824 -0.2014815
vn 0 -1 3.372532E-07
v 0 0.150925 -0.1818893
vn 0 -0.05518128 0.9984764
v -0.0195909 0.150925 -0.2014816
vn -0.9984761 -0.05518516 1.861137E-08
o merged_0_0_node
g polygon_0
usemtl mat_body_mat_id
f 1/1/1 2/2/2 3/2/3
f 1/1/1 4/1/4 2/2/2
f 1/1/1 3/2/3 5/3/5
f 1/1/1 6/4/6 4/1/4
f 1/1/1 5/3/5 7/5/7
f 1/1/1 8/4/8 6/4/6
f 1/1/1 7/5/7 9/6/9
f 1/1/1 9/6/9 8/4/8
f 2/2/2 10/7/10 3/2/3
f 2/2/2 4/1/4 11/3/11
f 2/2/2 11/3/11 10/7/10
f 3/2/3 10/7/10 5/3/5
f 6/4/6 8/4/8 12/8/12
f 6/4/6 13/6/13 4/1/4
f 6/4/6 12/8/12 14/9/14
f 6/4/6 14/9/14 13/6/13
f 7/5/7 15/10/15 9/6/9
f 7/5/7 5/3/5 16/11/16
f 7/5/7 16/11/16 15/10/15
f 5/3/5 10/7/10 16/11/16
f 11/3/11 4/1/4 17/5/17
f 11/3/11 18/11/18 10/7/10
f 11/3/11 17/5/17 18/11/18
f 10/7/10 18/11/18 16/11/16
f 4/1/4 13/6/13 17/5/17
f 8/4/8 19/8/19 12/8/12
f 8/4/8 9/6/9 20/9/20
f 8/4/8 20/9/20 19/8/19
f 14/9/14 21/12/21 13/6/13
f 14/9/14 12/8/12 22/13/22
f 14/9/14 23/14/23 21/12/21
f 14/9/14 22/13/22 23/14/23
f 15/10/15 16/11/16 24/10/24
f 15/10/15 25/12/25 9/6/9
f 15/10/15 24/10/24 21/12/21
f 15/10/15 21/12/21 25/12/25
f 24/10/24 16/11/16 18/11/18
f 24/10/24 17/5/17 13/6/13
f 24/10/24 13/6/13 21/12/21
f 24/10/24 18/11/18 17/5/17
f 21/12/21 23/14/23 25/12/25
f 9/6/9 25/12/25 20/9/20
f 19/8/19 26/15/26 12/8/12
f 19/8/19 20/9/20 27/13/27
f 19/8/19 28/15/28 26/15/26
f 19/8/19 27/13/27 28/15/28
f 12/8/12 26/15/26 22/13/22
f 23/14/23 29/14/29 25/12/25
f 23/14/23 22/13/22 30/16/30
f 23/14/23 30/16/30 29/14/29
f 20/9/20 29/14/29 27/13/27
f 20/9/20 25/12/25 29/14/29
f 28/15/28 31/17/31 26/15/26
f 28/15/28 27/13/27 32/18/32
f 28/15/28 33/17/33 31/17/31
f 28/15/28 32/18/32 33/17/33
f 22/13/22 34/19/34 30/16/30
f 22/13/22 26/15/26 35/18/35
f 22/13/22 35/18/35 34/19/34
f 26/15/26 31/17/31 35/18/35
f 29/14/29 36/16/36 27/13/27
f 29/14/29 30/16/30 36/16/36
f 30/16/30 34/19/34 36/16/36
f 32/18/32 37/20/37 33/17/33
f 32/18/32 27/13/27 38/19/38
f 32/18/32 39/21/39 37/20/37
f 32/18/32 38/19/38 39/21/39
f 36/16/36 34/19/34 38/19/38
f 36/16/36 38/19/38 27/13/27
f 31/17/31 40/20/40 35/18/35
f 31/17/31 33/17/33 41/22/41
f 31/17/31 41/22/41 40/20/40
f 33/17/33 37/20/37 41/22/41
f 39/21/39 38/19/38 42/21/42
f 39/21/39 43/23/43 37/20/37
f 39/21/39 42/21/42 44/23/44
f 39/21/39 44/23/44 43/23/43
f 42/21/42 34/19/34 35/18/35
f 42/21/42 35/18/35 40/20/40
f 42/21/42 38/19/38 34/19/34
f 42/21/42 40/20/40 44/23/44
f 41/22/41 37/20/37 43/23/43
f 41/22/41 44/23/44 40/20/40
f 41/22/41 43/23/43 44/23/44
f 45/24/45 46/25/46 47/26/47
f 45/24/45 48/27/48 46/25/46
f 45/24/45 47/26/47 49/28/49
f 45/24/45 50/29/50 48/27/48
f 45/24/45 49/28/49 50/29/50
f 46/25/46 48/27/51 51/30/52
f 52/24/53 53/26/54 54/25/55
f 52/24/53 55/28/56 53/26/54
f 52/24/53 54/25/55 56/31/57
f 52/24/53 57/29/58 55/28/56
f 52/24/53 56/31/57 57/29/58
f 54/25/55 58/30/59 56/31/60
f 59/32/61 60/32/62 61/32/63
f 59/32/61 62/32/64 60/32/62
f 59/32/61 61/32/63 63/32/65
f 59/32/61 63/32/65 62/32/64
f 60/32/62 64/32/66 61/32/63
f 60/32/62 62/32/64 64/32/66
f 64/32/66 63/32/65 61/32/63
f 64/32/66 62/32/64 63/32/65
v 0 0.181299 0.2358692
vt 0 0.274511
vn 0 -0.9959282 0.09014942
v 0 0.181299 0.1088181
vt 0 -0.198011
vn 0 -0.9420776 -0.3353949
v 0.0937381 0.1948079 0.1723441
vt 0.912099 0.0685035
vn 0.4992197 -0.8664755 0
v -0.0937381 0.1948079 0.1723441
vt -0.912099 0.0685035
vn -0.4992197 -0.8664755 0
vt 1 0.551993
vt -1 0.551993
v 0.04482 0.1824732 0.2858942
vt 0.436112 0.578125
vn 0.528503 -0.8397154 0.12475
v -0.04482 0.1824732 0.2858942
vt -0.436112 0.578125
vn -0.528503 -0.8397154 0.12475
v 0.039137 0.2425277 0.3451087
vt 0.380814 0.8955
vn 0.3378156 -0.2475931 0.908063
vt 0.618034 1.00097
v -0.039137 0.2425277 0.3451087
vt -0.380814 0.8955
vn -0.3835424 -0.3012452 0.87301
vt -0.618034 1.00097
v 0 0.1935208 0.3221104
vt 0 0.742452
vn 0 -0.727058 0.686576
v 0.102772 0.4299613 0.06955764
vt 0.908186 0.945104
vn 0.5626664 0.6043622 -0.5640504
v 0.151671 0.3349808 0.07859263
vn 0.8506871 0 -0.5256723
v 0.0635165 0.3349808 0.006032143
vn 0.3582688 0 -0.9336185
v 0 0.4216121 0.020651
vn 0 0.5522968 -0.8336476
v 0.0937381 0.4751537 0.1723441
vn 0.4992197 0.8664755 0
v 0 0.4886616 0.1088181
vn 0 0.9420776 -0.3353949
v 0.102772 0.2400004 0.06955764
vn 0.5626661 -0.6043619 -0.5640511
v -0.102772 0.4299613 0.06955764
vn -0.5626664 0.6043622 -0.5640504
v -0.0635165 0.3349808 0.006032143
vn -0.3582688 0 -0.9336185
v 0 0.4886616 0.2358692
vn 0 0.9420776 0.3353949
v 0 0.2483495 0.020651
vn 0 -0.5522968 -0.8336476
v -0.0937381 0.4751537 0.1723441
vn -0.4992197 0.8664755 0
v -0.151671 0.3349808 0.07859263
vn -0.8506871 0 -0.5256723
v 0 0.4216121 0.3240367
vn -0.00045076 0.5496699 0.8353819
v -0.102772 0.2400004 0.06955764
vn -0.5626661 -0.6043619 -0.5640511
o merged_1_0_node
g polygon_0
usemtl mat_kuti_mat_id
f 65/33/67 66/34/68 67/35/69
f 65/33/67 68/36/70 66/34/68
f 65/33/67 67/35/69 46/37/46
f 65/33/67 54/38/55 68/36/70
f 65/33/67 46/37/46 69/39/71
f 65/33/67 70/40/72 54/38/55
f 65/33/67 69/39/71 70/40/72
f 46/37/46 71/41/73 69/39/71
f 46/37/46 51/42/52 71/41/73
f 54/38/55 70/40/72 72/43/74
f 54/38/55 72/43/74 58/44/59
f 58/44/59 71/41/73 51/42/52
f 58/44/59 72/43/74 71/41/73
f 69/39/71 73/45/75 70/40/72
f 69/39/71 71/41/73 73/45/75
f 73/45/75 71/41/73 72/43/74
f 73/45/75 72/43/74 70/40/72
f 74/46/76 75/46/77 76/46/78
f 74/46/76 49/46/49 75/46/77
f 74/46/76 76/46/78 77/46/79
f 74/46/76 78/46/80 49/46/49
f 74/46/76 77/46/79 79/46/81
f 74/46/76 79/46/81 78/46/80
f 75/46/77 80/46/82 76/46/78
f 75/46/77 49/46/49 47/46/47
f 75/46/77 47/46/47 80/46/82
f 77/46/79 81/46/83 79/46/81
f 77/46/79 76/46/78 82/46/84
f 77/46/79 82/46/84 81/46/83
f 78/46/80 50/46/50 49/46/49
f 78/46/80 79/46/81 83/46/85
f 78/46/80 83/46/85 50/46/50
f 47/46/47 67/46/69 80/46/82
f 47/46/47 46/46/46 67/46/69
f 76/46/78 84/46/86 82/46/84
f 76/46/78 80/46/82 84/46/86
f 81/46/83 85/46/87 79/46/81
f 81/46/83 82/46/84 86/46/88
f 81/46/83 55/46/56 85/46/87
f 81/46/83 86/46/88 55/46/56
f 79/46/81 85/46/87 83/46/85
f 50/46/50 83/46/85 87/46/89
f 50/46/50 87/46/89 48/46/48
f 67/46/69 66/46/68 80/46/82
f 80/46/82 66/46/68 84/46/86
f 82/46/84 88/46/90 86/46/88
f 82/46/84 84/46/86 88/46/90
f 84/46/86 66/46/68 88/46/90
f 55/46/56 57/46/58 85/46/87
f 55/46/56 86/46/88 53/46/54
f 83/46/85 57/46/58 87/46/89
f 83/46/85 85/46/87 57/46/58
f 86/46/88 88/46/90 53/46/54
f 48/46/48 87/46/89 56/46/57
f 56/46/57 87/46/89 57/46/58
f 66/46/68 68/46/70 88/46/90
f 88/46/90 68/46/70 53/46/54
f 68/46/70 54/46/55 53/46/54
f 56/46/60 51/46/52 48/46/51
f 56/46/60 58/46/59 51/46/52
v -0.0260156 0.4080552 0.3922954
vn -0.2826552 -0.7637051 0.5803969
v 0.0260156 0.4080552 0.3922954
vn 0.2826552 -0.7637051 0.5803969
v 0 0.4386766 0.3784864
vn 0 0.8065622 0.5911492
v -0.0184026 0.3680675 0.3418682
vn -0.7434809 -0.1970705 -0.6390613
v 0.0184026 0.3680675 0.3418682
vn 0.7434809 -0.1970705 -0.6390613
v 0 0.3617676 0.3703282
vn 0 -0.81348 0.581593
v 0.0968068 0.4212421 0.3952148
vn 0.7817886 -0.4835838 0.3936411
v 0.0968068 0.4324887 0.3444056
vn 0.6730916 -0.3034195 -0.6744512
v 0.0887353 0.4685458 0.4056852
vn 0.4554299 0.6483623 0.6100901
v 0.0887353 0.4797924 0.354877
vn 0.4554656 0.8052934 -0.379544
v -0.0968068 0.4324887 0.3444056
vn -0.6730916 -0.3034195 -0.6744512
v -0.0968068 0.4212421 0.3952148
vn -0.7817886 -0.4835838 0.3936411
v -0.0887353 0.4797924 0.354877
vn -0.4554659 0.8052931 -0.3795443
v -0.0887353 0.4685458 0.4056852
vn -0.4554299 0.6483623 0.6100901
v 0 0.4377194 0.3455637
vn 0 0.09554452 -0.9954252
o merged_2_0_node
g polygon_0
usemtl TEX_ANIM_EYE_mat_id
f 89//91 90//92 91//93
f 92//94 93//95 94//96
f 95//97 96//98 97//99
f 97//99 96//98 98//100
f 99//101 100//102 101//103
f 101//103 100//102 102//104
f 103//105 96//98 90//92
f 90//92 96//98 95//97
f 103//105 98//100 96//98
f 103//105 91//93 98//100
f 98//100 91//93 97//99
f 91//93 90//92 97//99
f 97//99 90//92 95//97
f 103//105 89//91 99//101
f 99//101 89//91 100//102
f 91//93 102//104 89//91
f 89//91 102//104 100//102
f 103//105 101//103 91//93
f 91//93 101//103 102//104
f 103//105 99//101 101//103
f 103//105 93//95 92//94
f 103//105 90//92 93//95
f 93//95 90//92 94//96
f 90//92 89//91 94//96
f 103//105 92//94 89//91
f 89//91 92//94 94//96
