ply
format ascii 1.0
element vertex 837
property float x
property float y
property float z
property uchar red
property uchar green
property uchar blue
element face 1044
property list uchar int vertex_index
end_header
0.87426 -1.33273 2.59312 173 175 191
0.87426 -1.51147 2.59312 173 175 191
0.62393 -1.51147 2.59312 173 175 191
0.62393 -1.33273 2.59312 173 175 191
0.65708 -1.30034 2.59312 173 175 191
0.8454 -1.30034 2.59312 173 175 191
0.86403 -1.27602 2.0449 165 167 182
0.86458 -1.27603 2.56748 165 167 182
0.6386 -1.27603 2.56748 165 167 182
0.63793 -1.27602 2.2541 165 167 182
0.89922 -1.3149 2.56748 165 167 182
0.89866 -1.3148 2.01541 165 167 182
0.83132 -1.27602 2.00157 165 167 182
0.86229 -1.3148 1.97024 165 167 182
0.45523 -1.27602 2.00157 165 167 182
0.60931 -1.27602 2.22724 165 167 182
0.45523 -1.27602 2.22724 165 167 182
0.45523 -1.3148 1.97024 165 167 182
0.59882 -1.3149 2.56748 165 167 182
0.59932 -1.3148 2.28832 165 167 182
0.5744 -1.3148 2.26146 165 167 182
0.45523 -1.3148 2.26146 165 167 182
0.89866 -1.5292 2.01541 165 167 182
0.89922 -1.52939 2.56748 165 167 182
0.86229 -1.5292 1.97024 165 167 182
0.45523 -1.5292 1.97024 165 167 182
0.87426 -1.33273 2.59312 165 167 182
0.8454 -1.30034 2.59312 165 167 182
0.65708 -1.30034 2.59312 165 167 182
0.62393 -1.33273 2.59312 165 167 182
0.62393 -1.51147 2.59312 165 167 182
0.59882 -1.52939 2.56748 165 167 182
0.65708 -1.54331 2.59312 165 167 182
0.6386 -1.5676 2.56748 165 167 182
0.63793 -1.56723 2.2541 165 167 182
0.59932 -1.5292 2.28832 165 167 182
0.60947 -1.56723 2.22724 165 167 182
0.5744 -1.5292 2.26146 165 167 182
0.70315 -1.56753 2.49561 165 167 182
0.7025 -1.56723 2.19517 165 167 182
0.79594 -1.56753 2.49561 165 167 182
0.86458 -1.5676 2.56748 165 167 182
0.86403 -1.56723 2.0449 165 167 182
0.79577 -1.56723 2.11313 165 167 182
0.83132 -1.56723 2.00157 165 167 182
0.75667 -1.56723 2.07925 165 167 182
0.50712 -1.56723 2.07949 165 167 182
0.45523 -1.56723 2.00157 165 167 182
0.67012 -1.56723 2.16643 165 167 182
0.45523 -1.56723 2.22724 165 167 182
0.50712 -1.56723 2.16625 165 167 182
0.87426 -1.51147 2.59312 165 167 182
0.8454 -1.54331 2.59312 165 167 182
0.45523 -1.5292 2.26146 165 167 182
0.79577 -1.56723 2.11313 173 175 191
0.7025 -1.56723 2.19517 173 175 191
0.70315 -1.56753 2.49561 173 175 191
0.79594 -1.56753 2.49561 173 175 191
0.75667 -1.56723 2.07925 173 175 191
0.67012 -1.56723 2.16643 173 175 191
0.50712 -1.56723 2.07949 173 175 191
0.50712 -1.56723 2.16625 173 175 191
0.5744 -1.5292 2.26146 173 175 191
0.45523 -1.5292 2.26146 173 175 191
0.45523 -1.3148 2.26146 173 175 191
0.5744 -1.3148 2.26146 173 175 191
0.8454 -1.54331 2.59312 173 175 191
0.65708 -1.54331 2.59312 173 175 191
0.45523 -1.56723 2.00157 157 158 173
0.45523 -1.60472 1.96211 157 158 173
0.45523 -1.60548 2.26604 157 158 173
0.45523 -1.56723 2.22724 157 158 173
0.45523 -1.56984 2.30141 157 158 173
0.45523 -1.5292 2.26146 157 158 173
0.45523 -1.5292 1.97024 157 158 173
0.45523 -1.56893 1.92964 157 158 173
0.36254 -1.60548 2.26604 157 158 173
0.36254 -1.60472 1.96211 157 158 173
0.36254 -1.56984 2.30141 157 158 173
0.36254 -1.56893 1.92964 157 158 173
0.36254 -1.27433 2.30155 157 158 173
0.45523 -1.27433 2.30155 157 158 173
0.45523 -1.27525 1.9295 157 158 173
0.36254 -1.27525 1.9295 157 158 173
0.45523 -1.27602 2.22724 157 158 173
0.45523 -1.23795 2.26621 157 158 173
0.45523 -1.23871 1.96195 157 158 173
0.45523 -1.27602 2.00157 157 158 173
0.45523 -1.3148 1.97024 157 158 173
0.45523 -1.3148 2.26146 157 158 173
0.36254 -1.23871 1.96195 157 158 173
0.36254 -1.23795 2.26621 157 158 173
0.29923 -0.54314 -6.3154E-08 109 115 144
0.29923 -0.54314 0.20432 109 115 144
0.62672 -0.54314 0.20432 109 115 144
0.62672 -0.54314 -6.3154E-08 109 115 144
0.24552 -0.47379 -6.3154E-08 109 115 144
0.68043 -0.47379 -6.3154E-08 109 115 144
0.24552 -0.1853 -6.3154E-08 109 115 144
0.68043 -0.1853 -6.3154E-08 109 115 144
0.68043 -0.1853 0.20432 109 115 144
0.68043 -0.47379 0.20432 109 115 144
0.24552 -0.47379 0.20432 109 115 144
0.24552 -0.1853 0.20432 109 115 144
0.29923 -0.11596 0.91767 214 206 96
0.29923 -0.11596 0.20432 214 206 96
0.62672 -0.11596 0.20432 214 206 96
0.62672 -0.11596 0.91767 214 206 96
0.68043 -0.1853 0.91767 214 206 96
0.68043 -0.1853 0.20432 214 206 96
0.24552 -0.1853 0.20432 214 206 96
0.24552 -0.1853 0.91767 214 206 96
0.29923 -0.54314 0.20432 214 206 96
0.29923 -0.54314 0.91767 214 206 96
0.62672 -0.54314 0.91767 214 206 96
0.62672 -0.54314 0.20432 214 206 96
0.68043 -0.47379 0.20432 214 206 96
0.68043 -0.47379 0.91767 214 206 96
0.24552 -0.47379 0.91767 214 206 96
0.24552 -0.47379 0.20432 214 206 96
0.29923 -0.11596 0.20432 109 115 144
0.29923 -0.11596 -6.3154E-08 109 115 144
0.62672 -0.11596 -6.3154E-08 109 115 144
0.62672 -0.11596 0.20432 109 115 144
-0.29923 -0.54314 -6.3154E-08 109 115 144
-0.62672 -0.54314 -6.3154E-08 109 115 144
-0.62672 -0.54314 0.20432 109 115 144
-0.29923 -0.54314 0.20432 109 115 144
-0.24552 -0.47379 -6.3154E-08 109 115 144
-0.24552 -0.47379 0.20432 109 115 144
-0.24552 -0.1853 -6.3154E-08 109 115 144
-0.68043 -0.47379 -6.3154E-08 109 115 144
-0.68043 -0.1853 -6.3154E-08 109 115 144
-0.68043 -0.1853 0.20432 109 115 144
-0.68043 -0.47379 0.20432 109 115 144
-0.24552 -0.1853 0.20432 109 115 144
-0.29923 -0.11596 0.91767 214 206 96
-0.62672 -0.11596 0.91767 214 206 96
-0.62672 -0.11596 0.20432 214 206 96
-0.29923 -0.11596 0.20432 214 206 96
-0.24552 -0.1853 0.91767 214 206 96
-0.24552 -0.1853 0.20432 214 206 96
-0.68043 -0.1853 0.20432 214 206 96
-0.68043 -0.1853 0.91767 214 206 96
-0.29923 -0.54314 0.20432 214 206 96
-0.62672 -0.54314 0.20432 214 206 96
-0.62672 -0.54314 0.91767 214 206 96
-0.29923 -0.54314 0.91767 214 206 96
-0.24552 -0.47379 0.20432 214 206 96
-0.24552 -0.47379 0.91767 214 206 96
-0.68043 -0.47379 0.91767 214 206 96
-0.68043 -0.47379 0.20432 214 206 96
-0.29923 -0.11596 0.20432 109 115 144
-0.62672 -0.11596 0.20432 109 115 144
-0.62672 -0.11596 -6.3154E-08 109 115 144
-0.29923 -0.11596 -6.3154E-08 109 115 144
0.29923 1.01234 -6.3154E-08 109 115 144
0.29923 1.01234 0.20432 109 115 144
0.62672 1.01234 0.20432 109 115 144
0.62672 1.01234 -6.3154E-08 109 115 144
0.24552 1.08168 -6.3154E-08 109 115 144
0.68043 1.08168 -6.3154E-08 109 115 144
0.24552 1.37424 -6.3154E-08 109 115 144
0.68043 1.37424 -6.3154E-08 109 115 144
0.68043 1.37424 0.20432 109 115 144
0.68043 1.08168 0.20432 109 115 144
0.24552 1.08168 0.20432 109 115 144
0.24552 1.37424 0.20432 109 115 144
0.29923 1.44359 0.91767 214 206 96
0.29923 1.44359 0.20432 214 206 96
0.62672 1.44359 0.20432 214 206 96
0.62672 1.44359 0.91767 214 206 96
0.68043 1.37424 0.91767 214 206 96
0.68043 1.37424 0.20432 214 206 96
0.24552 1.37424 0.20432 214 206 96
0.24552 1.37424 0.91767 214 206 96
0.29923 1.01234 0.20432 214 206 96
0.29923 1.01234 0.91767 214 206 96
0.62672 1.01234 0.91767 214 206 96
0.62672 1.01234 0.20432 214 206 96
0.68043 1.08168 0.20432 214 206 96
0.68043 1.08168 0.91767 214 206 96
0.24552 1.08168 0.91767 214 206 96
0.24552 1.08168 0.20432 214 206 96
0.29923 1.44359 0.20432 109 115 144
0.29923 1.44359 -6.3154E-08 109 115 144
0.62672 1.44359 -6.3154E-08 109 115 144
0.62672 1.44359 0.20432 109 115 144
-0.29923 1.01234 -6.3154E-08 109 115 144
-0.62672 1.01234 -6.3154E-08 109 115 144
-0.62672 1.01234 0.20432 109 115 144
-0.29923 1.01234 0.20432 109 115 144
-0.24552 1.08168 -6.3154E-08 109 115 144
-0.24552 1.08168 0.20432 109 115 144
-0.24552 1.37424 -6.3154E-08 109 115 144
-0.68043 1.08168 -6.3154E-08 109 115 144
-0.68043 1.37424 -6.3154E-08 109 115 144
-0.68043 1.37424 0.20432 109 115 144
-0.68043 1.08168 0.20432 109 115 144
-0.24552 1.37424 0.20432 109 115 144
-0.29923 1.44359 0.91767 214 206 96
-0.62672 1.44359 0.91767 214 206 96
-0.62672 1.44359 0.20432 214 206 96
-0.29923 1.44359 0.20432 214 206 96
-0.24552 1.37424 0.91767 214 206 96
-0.24552 1.37424 0.20432 214 206 96
-0.68043 1.37424 0.20432 214 206 96
-0.68043 1.37424 0.91767 214 206 96
-0.29923 1.01234 0.20432 214 206 96
-0.62672 1.01234 0.20432 214 206 96
-0.62672 1.01234 0.91767 214 206 96
-0.29923 1.01234 0.91767 214 206 96
-0.24552 1.08168 0.20432 214 206 96
-0.24552 1.08168 0.91767 214 206 96
-0.68043 1.08168 0.91767 214 206 96
-0.68043 1.08168 0.20432 214 206 96
-0.29923 1.44359 0.20432 109 115 144
-0.62672 1.44359 0.20432 109 115 144
-0.62672 1.44359 -6.3154E-08 109 115 144
-0.29923 1.44359 -6.3154E-08 109 115 144
-0.12689 -0.67732 2.72099 125 179 118
-0.12689 -0.37516 2.72099 125 179 118
0.12689 -0.37516 2.72099 125 179 118
0.12689 -0.67732 2.72099 125 179 118
0.09967 -0.34068 2.72099 125 179 118
-0.09967 -0.34068 2.72099 125 179 118
-0.09967 -0.34068 2.72099 115 167 109
-0.09967 -0.34068 2.44446 115 167 109
0.09967 -0.34068 2.44446 115 167 109
0.09967 -0.34068 2.72099 115 167 109
0.12689 -0.37516 2.72099 115 167 109
0.12689 -0.37516 2.44446 115 167 109
0.12689 -0.67732 2.44446 115 167 109
-0.12689 -0.37516 2.44446 115 167 109
-0.12689 -0.67732 2.44446 115 167 109
0.12689 -0.67732 2.72099 115 167 109
-0.12689 -0.67732 2.72099 115 167 109
-0.12689 -0.37516 2.72099 115 167 109
0.27762 -0.67732 2.72099 125 179 118
0.27762 -0.47769 2.72099 125 179 118
0.52251 -0.47769 2.72099 125 179 118
0.52251 -0.67732 2.72099 125 179 118
0.49625 -0.44321 2.72099 125 179 118
0.30389 -0.44321 2.72099 125 179 118
0.30389 -0.44321 2.72099 115 167 109
0.30389 -0.44321 2.44446 115 167 109
0.49625 -0.44321 2.44446 115 167 109
0.49625 -0.44321 2.72099 115 167 109
0.52251 -0.47769 2.72099 115 167 109
0.52251 -0.47769 2.44446 115 167 109
0.52251 -0.67732 2.44446 115 167 109
0.27762 -0.47769 2.44446 115 167 109
0.27762 -0.67732 2.44446 115 167 109
0.52251 -0.67732 2.72099 115 167 109
0.27762 -0.67732 2.72099 115 167 109
0.27762 -0.47769 2.72099 115 167 109
-0.27762 -0.67732 2.72099 125 179 118
-0.52251 -0.67732 2.72099 125 179 118
-0.52251 -0.47769 2.72099 125 179 118
-0.27762 -0.47769 2.72099 125 179 118
-0.30389 -0.44321 2.72099 125 179 118
-0.49625 -0.44321 2.72099 125 179 118
-0.30389 -0.44321 2.72099 115 167 109
-0.49625 -0.44321 2.72099 115 167 109
-0.49625 -0.44321 2.44446 115 167 109
-0.30389 -0.44321 2.44446 115 167 109
-0.27762 -0.47769 2.72099 115 167 109
-0.27762 -0.47769 2.44446 115 167 109
-0.27762 -0.67732 2.72099 115 167 109
-0.27762 -0.67732 2.44446 115 167 109
-0.52251 -0.67732 2.44446 115 167 109
-0.52251 -0.47769 2.44446 115 167 109
-0.52251 -0.47769 2.72099 115 167 109
-0.52251 -0.67732 2.72099 115 167 109
0.84947 -1.13595 2.77893 125 179 118
-0.84947 -1.13595 2.77893 125 179 118
-0.91293 -1.08691 2.77893 125 179 118
0.91293 -1.08691 2.77893 125 179 118
0.91293 -0.7651 2.77893 125 179 118
-0.91293 -0.7651 2.77893 125 179 118
0.84947 -0.71606 2.77893 125 179 118
-0.84947 -0.71606 2.77893 125 179 118
0.85273 -1.13439 0.97144 115 167 109
0.91642 -1.08556 0.97144 115 167 109
0.91642 -0.76645 0.97144 115 167 109
0.85273 -0.71762 0.97144 115 167 109
0.89339 -0.66756 1.02819 115 167 109
0.96012 -0.72308 1.02819 115 167 109
0.96012 -0.72308 2.73109 115 167 109
0.89339 -0.66756 2.73109 115 167 109
0.84947 -0.71606 2.77893 115 167 109
-0.89339 -0.66756 2.73109 115 167 109
-0.84947 -0.71606 2.77893 115 167 109
0.91293 -0.7651 2.77893 115 167 109
0.45796 -0.71762 0.97144 115 167 109
-0.45796 -0.71762 0.97144 115 167 109
-0.89339 -0.66756 1.02819 115 167 109
0.45796 -1.13439 0.97144 115 167 109
0.89339 -1.18444 1.02819 115 167 109
0.96012 -1.12893 1.02819 115 167 109
0.89339 -1.18444 2.73109 115 167 109
0.96012 -1.12893 2.73109 115 167 109
0.91293 -1.08691 2.77893 115 167 109
0.84947 -1.13595 2.77893 115 167 109
-0.89339 -1.18444 1.02819 115 167 109
-0.89339 -1.18444 2.73109 115 167 109
-0.96012 -1.12893 1.02819 115 167 109
-0.96012 -1.12893 2.73109 115 167 109
-0.96012 -0.72308 2.73109 115 167 109
-0.96012 -0.72308 1.02819 115 167 109
-0.91293 -1.08691 2.77893 115 167 109
-0.84947 -1.13595 2.77893 115 167 109
-0.91293 -0.7651 2.77893 115 167 109
-0.91642 -1.08556 0.97144 115 167 109
-0.91642 -0.76645 0.97144 115 167 109
-0.85273 -1.13439 0.97144 115 167 109
-0.45796 -1.13439 0.97144 115 167 109
0.45796 -1.13439 0.55373 115 167 109
-0.45796 -1.13439 0.55373 115 167 109
0.41518 -1.09806 0.51249 115 167 109
0.45796 -0.71762 0.55373 115 167 109
0.41518 -0.75394 0.51249 115 167 109
-0.41518 -1.09806 0.51249 115 167 109
-0.41518 -0.75394 0.51249 115 167 109
-0.45796 -0.71762 0.55373 115 167 109
-0.85273 -0.71762 0.97144 115 167 109
0.64954 -0.59787 2.55048 221 212 99
-0.64954 -0.59787 2.55048 221 212 99
-0.75821 -0.50878 2.55048 221 212 99
0.75821 -0.50878 2.55048 221 212 99
-0.75821 0.77389 2.55048 221 212 99
0.75821 0.77389 2.55048 221 212 99
0.75821 -0.50878 0.83184 214 206 96
-0.75821 -0.50878 0.83184 214 206 96
-0.64954 -0.59787 0.83184 214 206 96
0.64954 -0.59787 0.83184 214 206 96
-0.72171 -0.68212 0.91923 214 206 96
0.72171 -0.68212 0.91923 214 206 96
0.84246 -0.58313 0.91923 214 206 96
0.72171 -0.68212 2.45973 214 206 96
0.84246 -0.58313 2.45973 214 206 96
0.75821 -0.50878 2.55048 214 206 96
0.64954 -0.59787 2.55048 214 206 96
0.75821 0.77389 2.55048 214 206 96
0.84246 0.84824 2.45973 214 206 96
0.75858 1.39705 0.832 214 206 96
0.84213 1.4602 0.91899 214 206 96
0.84246 0.84824 1.97192 214 206 96
-0.84246 -0.58313 0.91923 214 206 96
-0.72171 -0.68212 2.45973 214 206 96
-0.84246 -0.58313 2.45973 214 206 96
-0.75821 -0.50878 2.55048 214 206 96
-0.64954 -0.59787 2.55048 214 206 96
-0.75821 0.77389 2.55048 214 206 96
-0.84246 0.84824 2.45973 214 206 96
-0.84246 0.84824 1.97192 214 206 96
0.8426 1.4602 1.97192 214 206 96
0.72171 0.94723 2.04051 214 206 96
0.72164 1.41775 2.04051 214 206 96
-0.75858 1.39705 0.832 214 206 96
-0.84213 1.4602 0.91899 214 206 96
-0.8426 1.4602 1.97192 214 206 96
-0.72171 0.94723 2.04051 214 206 96
-0.72164 1.41775 2.04051 214 206 96
0.72171 0.94723 2.45973 214 206 96
-0.72171 0.94723 2.45973 214 206 96
0.64954 0.86298 2.55048 214 206 96
-0.64954 0.86298 2.55048 214 206 96
0.72843 1.56367 0.91901 214 206 96
0.64956 1.5049 0.83148 214 206 96
0.72154 1.56367 1.97192 214 206 96
0.67416 1.48018 2.04051 214 206 96
-0.72843 1.56367 0.91901 214 206 96
-0.64956 1.5049 0.83148 214 206 96
-0.72154 1.56367 1.97192 214 206 96
-0.67416 1.48018 2.04051 214 206 96
-0.64954 0.86298 2.55048 221 212 99
0.64954 0.86298 2.55048 221 212 99
0.67416 1.48018 2.04051 221 212 99
0.72164 1.41775 2.04051 221 212 99
-0.72164 1.41775 2.04051 221 212 99
-0.67416 1.48018 2.04051 221 212 99
-0.72171 0.94723 2.04051 221 212 99
0.72171 0.94723 2.04051 221 212 99
0.07303 2.57117 1.70569 100 115 105
-0.07303 2.57117 1.70569 100 115 105
-0.07303 2.52804 1.66481 100 115 105
0.07303 2.52804 1.66481 100 115 105
0.07303 2.4179 1.81088 100 115 105
0.07303 2.57117 2.81711 100 115 105
0.07303 2.4179 2.81711 100 115 105
-0.07303 2.57117 2.81711 100 115 105
0.07303 1.92371 1.81088 100 115 105
0.07303 1.92371 1.66481 100 115 105
0.45913 1.92371 1.81088 100 115 105
0.45913 1.92371 1.66481 100 115 105
-0.07303 2.4179 1.81088 100 115 105
-0.07303 2.4179 2.81711 100 115 105
-0.07303 1.92371 1.81088 100 115 105
-0.07303 1.92371 1.66481 100 115 105
0.48314 1.95301 1.81088 100 115 105
0.48314 1.95301 1.66481 100 115 105
-0.45913 1.92371 1.81088 100 115 105
-0.45913 1.92371 1.66481 100 115 105
-0.48314 1.95301 1.66481 100 115 105
-0.48314 1.95301 1.81088 100 115 105
-0.48314 2.15303 1.81088 100 115 105
-0.48314 2.26465 1.66481 100 115 105
-0.6381 1.81531 1.66481 100 115 105
-0.6381 2.26465 1.66481 100 115 105
-0.48314 2.30538 1.70334 100 115 105
-0.6381 2.30538 1.70334 100 115 105
-0.6381 2.15303 1.81088 100 115 105
-0.48314 2.30538 2.61463 100 115 105
-0.6381 2.30538 2.61463 100 115 105
-0.48314 2.15303 2.61463 100 115 105
-0.6381 1.81531 1.81088 100 115 105
-0.60673 1.77604 1.66481 100 115 105
-0.60673 1.77604 1.81088 100 115 105
-0.07303 1.77604 1.81088 100 115 105
-0.07303 1.77604 1.66481 100 115 105
-0.07303 1.43306 1.66481 100 115 105
-0.07303 1.43306 1.81088 100 115 105
0.07303 1.43306 1.66481 100 115 105
0.07303 1.77604 1.66481 100 115 105
0.07303 1.77604 1.81088 100 115 105
0.07303 1.43306 1.81088 100 115 105
0.60673 1.77604 1.66481 100 115 105
0.60673 1.77604 1.81088 100 115 105
0.6381 1.81531 1.81088 100 115 105
0.6381 1.81531 1.66481 100 115 105
0.6381 2.26465 1.66481 100 115 105
0.6381 2.15303 1.81088 100 115 105
0.48314 2.26465 1.66481 100 115 105
0.6381 2.30538 1.70334 100 115 105
0.48314 2.30538 1.70334 100 115 105
0.48314 2.15303 1.81088 100 115 105
0.48314 2.30538 2.61463 100 115 105
0.6381 2.30538 2.61463 100 115 105
0.48314 2.15303 2.61463 100 115 105
0.6381 2.15303 2.61463 100 115 105
0.13905 2.35188 2.81711 109 115 144
0.13905 2.35188 3.23496 109 115 144
0.13905 2.63719 3.23496 109 115 144
0.13905 2.63719 2.81711 109 115 144
-0.13905 2.63719 2.81711 109 115 144
-0.13905 2.63719 3.23496 109 115 144
0.07303 2.4179 2.81711 109 115 144
0.07303 2.57117 2.81711 109 115 144
-0.07303 2.57117 2.81711 109 115 144
-0.13905 2.35188 2.81711 109 115 144
-0.13905 2.35188 3.23496 109 115 144
-0.07303 2.4179 2.81711 109 115 144
-0.10788 2.60521 3.28115 109 115 144
0.10788 2.60521 3.28115 109 115 144
-0.10788 2.38386 3.28115 109 115 144
0.10788 2.38386 3.28115 109 115 144
0.48314 1.95301 1.81088 105 120 107
0.6381 1.81531 1.81088 105 120 107
0.60673 1.77604 1.81088 105 120 107
0.45913 1.92371 1.81088 105 120 107
0.6381 2.15303 1.81088 105 120 107
0.48314 2.15303 1.81088 105 120 107
0.07303 1.92371 1.81088 105 120 107
0.07303 1.77604 1.81088 105 120 107
0.07303 1.43306 1.81088 105 120 107
-0.07303 1.43306 1.81088 105 120 107
-0.07303 1.77604 1.81088 105 120 107
-0.07303 1.92371 1.81088 105 120 107
0.07303 2.4179 1.81088 105 120 107
-0.07303 2.4179 1.81088 105 120 107
-0.60673 1.77604 1.81088 105 120 107
-0.45913 1.92371 1.81088 105 120 107
-0.48314 1.95301 1.81088 105 120 107
-0.6381 1.81531 1.81088 105 120 107
0.41588 2.08577 2.61463 109 115 144
0.41588 2.08577 3.02725 109 115 144
0.70536 2.08577 3.02725 109 115 144
0.70536 2.08577 2.61463 109 115 144
0.70536 2.37264 3.02725 109 115 144
0.70536 2.37264 2.61463 109 115 144
0.41588 2.37264 2.61463 109 115 144
0.41588 2.37264 3.02725 109 115 144
0.48314 2.15303 2.61463 109 115 144
0.6381 2.15303 2.61463 109 115 144
0.6381 2.30538 2.61463 109 115 144
0.48314 2.30538 2.61463 109 115 144
0.67292 2.11792 3.07344 109 115 144
0.44833 2.11792 3.07344 109 115 144
0.44833 2.34049 3.07344 109 115 144
0.67292 2.34049 3.07344 109 115 144
0.44833 2.34049 3.07344 119 124 156
0.67292 2.34049 3.07344 119 124 156
0.67292 2.11792 3.07344 119 124 156
0.44833 2.11792 3.07344 119 124 156
0.10788 2.60521 3.28115 119 124 156
0.10788 2.38386 3.28115 119 124 156
-0.10788 2.38386 3.28115 119 124 156
-0.10788 2.60521 3.28115 119 124 156
-0.6381 2.15303 1.81088 105 120 107
-0.48314 2.15303 1.81088 105 120 107
-0.6381 2.15303 2.61463 100 115 105
-0.41588 2.08577 2.61463 109 115 144
-0.70536 2.08577 2.61463 109 115 144
-0.70536 2.08577 3.02725 109 115 144
-0.41588 2.08577 3.02725 109 115 144
-0.70536 2.37264 3.02725 109 115 144
-0.70536 2.37264 2.61463 109 115 144
-0.48314 2.15303 2.61463 109 115 144
-0.6381 2.15303 2.61463 109 115 144
-0.6381 2.30538 2.61463 109 115 144
-0.48314 2.30538 2.61463 109 115 144
-0.41588 2.37264 2.61463 109 115 144
-0.67292 2.11792 3.07344 109 115 144
-0.67292 2.34049 3.07344 109 115 144
-0.44833 2.11792 3.07344 109 115 144
-0.44833 2.34049 3.07344 109 115 144
-0.41588 2.37264 3.02725 109 115 144
-0.44833 2.34049 3.07344 119 124 156
-0.44833 2.11792 3.07344 119 124 156
-0.67292 2.11792 3.07344 119 124 156
-0.67292 2.34049 3.07344 119 124 156
-0.04684 -1.75624 2.07129 210 212 231
-0.04684 -1.75624 2.13411 210 212 231
0.01598 -1.75624 2.13411 210 212 231
0.01598 -1.75624 2.07129 210 212 231
-0.07692 -1.75624 2.15087 157 158 173
-0.07692 -1.7072 2.15087 157 158 173
0.07692 -1.7072 2.15087 157 158 173
0.07692 -1.75624 2.15087 157 158 173
0.07692 -1.75624 1.99703 157 158 173
0.07692 -1.7072 1.99703 157 158 173
-0.07692 -1.7072 1.99703 157 158 173
-0.07692 -1.75624 1.99703 157 158 173
-0.07692 -1.75624 1.99703 165 167 182
-0.04684 -1.75624 2.07129 165 167 182
0.01598 -1.75624 2.07129 165 167 182
0.07692 -1.75624 1.99703 165 167 182
0.01598 -1.75624 2.13411 165 167 182
0.07692 -1.75624 2.15087 165 167 182
-0.04684 -1.75624 2.13411 165 167 182
-0.07692 -1.75624 2.15087 165 167 182
-0.02888 -1.74696 2.27457 210 212 231
-0.02888 -1.74699 2.31132 210 212 231
0.00985 -1.74699 2.31132 210 212 231
0.00985 -1.74696 2.27457 210 212 231
-0.04742 -1.747 2.32112 157 158 173
-0.04742 -1.70708 2.32116 157 158 173
0.04742 -1.70708 2.32116 157 158 173
0.04742 -1.747 2.32112 157 158 173
0.04742 -1.74693 2.23112 157 158 173
0.04742 -1.70701 2.23116 157 158 173
-0.04742 -1.70701 2.23116 157 158 173
-0.04742 -1.74693 2.23112 157 158 173
-0.04742 -1.74693 2.23112 165 167 182
-0.02888 -1.74696 2.27457 165 167 182
0.00985 -1.74696 2.27457 165 167 182
0.04742 -1.74693 2.23112 165 167 182
0.00985 -1.74699 2.31132 165 167 182
0.04742 -1.747 2.32112 165 167 182
-0.02888 -1.74699 2.31132 165 167 182
-0.04742 -1.747 2.32112 165 167 182
-0.01809 -1.64509 2.39466 210 212 231
-0.01809 -1.62118 2.39466 210 212 231
0.00617 -1.62118 2.39466 210 212 231
0.00617 -1.64509 2.39466 210 212 231
-0.0297 -1.6148 2.39466 157 158 173
-0.0297 -1.6148 2.36265 157 158 173
0.0297 -1.6148 2.36265 157 158 173
0.0297 -1.6148 2.39466 157 158 173
0.0297 -1.67335 2.39466 157 158 173
0.0297 -1.67335 2.36265 157 158 173
-0.0297 -1.67335 2.36265 157 158 173
-0.0297 -1.67335 2.39466 157 158 173
-0.0297 -1.67335 2.39466 165 167 182
-0.01809 -1.64509 2.39466 165 167 182
0.00617 -1.64509 2.39466 165 167 182
0.0297 -1.67335 2.39466 165 167 182
0.00617 -1.62118 2.39466 165 167 182
0.0297 -1.6148 2.39466 165 167 182
-0.01809 -1.62118 2.39466 165 167 182
-0.0297 -1.6148 2.39466 165 167 182
-0.17674 -1.69437 1.94336 60 59 53
-0.21478 -1.69437 1.94336 60 59 53
-0.21478 -1.69437 2.01914 60 59 53
-0.17674 -1.69437 1.98296 60 59 53
-0.17674 -1.68591 1.94336 60 59 53
-0.21478 -1.68591 1.94336 60 59 53
-0.21478 -1.68591 2.01914 60 59 53
-0.17674 -1.68591 1.98296 60 59 53
-0.37954 -1.16416 1.5749 214 206 96
-0.37954 -1.16416 2.32217 214 206 96
-0.37954 -1.6575 2.32217 214 206 96
-0.37954 -1.6575 1.5749 214 206 96
-0.34232 -1.16416 2.36896 214 206 96
-0.34232 -1.6418 2.36896 214 206 96
-0.29974 -1.67933 2.36896 214 206 96
-0.33127 -1.71387 2.32218 214 206 96
-0.29292 -1.71387 2.0871 214 206 96
-0.29292 -1.71387 1.92693 214 206 96
-0.29292 -1.68832 2.0871 214 206 96
-0.29292 -1.68832 1.92693 214 206 96
-0.12499 -1.68832 1.92693 214 206 96
-0.12502 -1.71387 1.92693 214 206 96
-0.33127 -1.71387 1.5749 214 206 96
-0.16334 -1.71387 1.5749 214 206 96
-0.1634 -1.71387 1.89903 214 206 96
-0.30108 -1.68337 1.53502 214 206 96
-0.34495 -1.62699 1.53502 214 206 96
-0.13509 -1.68337 1.53502 214 206 96
-0.16328 -1.88175 1.5749 214 206 96
-0.16345 -1.88171 1.70245 214 206 96
-0.13179 -1.88173 1.68196 214 206 96
-0.13505 -1.85124 1.53502 214 206 96
0.30108 -1.68337 1.53502 214 206 96
0.34495 -1.62699 1.53502 214 206 96
0.13509 -1.68337 1.53502 214 206 96
-0.1076 -1.88175 1.682 214 206 96
-0.1076 -1.88175 1.58764 214 206 96
0.1076 -1.88175 1.58764 214 206 96
0.16328 -1.88175 1.5749 214 206 96
0.13505 -1.85124 1.53502 214 206 96
-0.34495 -1.16416 1.53502 214 206 96
0.34495 -1.16416 1.53502 214 206 96
0.37954 -1.6575 1.5749 214 206 96
0.33127 -1.71387 1.5749 214 206 96
0.29292 -1.71387 1.92693 214 206 96
0.16334 -1.71387 1.5749 214 206 96
0.1634 -1.71387 1.89903 214 206 96
0.29292 -1.71387 2.0871 214 206 96
0.29292 -1.68832 2.0871 214 206 96
0.29292 -1.68832 1.92693 214 206 96
0.12499 -1.68832 1.92693 214 206 96
0.12502 -1.71387 1.92693 214 206 96
0.37954 -1.6575 2.32217 214 206 96
0.37954 -1.16416 1.5749 214 206 96
0.37954 -1.16416 2.32217 214 206 96
0.33127 -1.71387 2.32218 214 206 96
0.34232 -1.16416 2.36896 214 206 96
0.34232 -1.6418 2.36896 214 206 96
0.29974 -1.67933 2.36896 214 206 96
-0.13494 -1.97578 1.72009 107 151 96
-0.16354 -1.93372 1.70245 107 151 96
-0.16341 -1.93366 1.89901 107 151 96
-0.13478 -1.97591 1.89936 107 151 96
-0.11485 -1.97578 1.70569 107 151 96
-0.1337 -1.93372 1.68191 107 151 96
-0.0905 -1.9758 1.72965 107 151 96
-0.09126 -1.97578 1.7131 107 151 96
-0.03848 -1.9758 1.72965 107 151 96
0 -1.97591 1.89936 107 151 96
0.03848 -1.9758 1.72965 107 151 96
0.0905 -1.9758 1.72965 107 151 96
0.13478 -1.97591 1.89936 107 151 96
0.13494 -1.97578 1.72009 107 151 96
0.16341 -1.93366 1.89901 107 151 96
0.16354 -1.93372 1.70245 107 151 96
0.11485 -1.97578 1.70569 107 151 96
0.1337 -1.93372 1.68191 107 151 96
0 -1.97578 1.70569 107 151 96
0.09126 -1.97578 1.7131 107 151 96
0.0388 -1.97578 1.7131 107 151 96
-0.0388 -1.97578 1.7131 107 151 96
-0.1076 -1.88175 1.58764 110 82 74
-0.1076 -1.88175 1.682 110 82 74
-0.1076 -1.81191 1.682 110 82 74
-0.1076 -1.81191 1.58764 110 82 74
0.1076 -1.88175 1.682 110 82 74
0.1076 -1.81191 1.682 110 82 74
0.1076 -1.81191 1.58764 110 82 74
0.1076 -1.88175 1.58764 110 82 74
-0.16341 -1.93366 1.89901 113 160 104
-0.12495 -1.93366 1.92691 113 160 104
-0.13478 -1.97591 1.89936 113 160 104
0 -1.97591 1.89936 113 160 104
0.12495 -1.93366 1.92691 113 160 104
0.13478 -1.97591 1.89936 113 160 104
0.16341 -1.93366 1.89901 113 160 104
-0.16338 -1.88168 1.89902 113 160 104
-0.12496 -1.88168 1.92692 113 160 104
0.12496 -1.88168 1.92692 113 160 104
0.16338 -1.88168 1.89902 113 160 104
-0.29292 -1.68832 2.0871 255 255 255
-0.12499 -1.68832 1.92693 255 255 255
-0.29292 -1.68832 1.92693 255 255 255
-0.13179 -1.88173 1.68196 107 151 96
-0.16345 -1.88171 1.70245 107 151 96
-0.16338 -1.88168 1.89902 107 151 96
-0.1076 -1.88175 1.682 107 151 96
0.1076 -1.88175 1.682 107 151 96
0.13179 -1.88173 1.68196 107 151 96
0.16345 -1.88171 1.70245 107 151 96
0.16338 -1.88168 1.89902 107 151 96
-0.12502 -1.71387 1.92693 221 212 99
-0.12496 -1.88168 1.92692 221 212 99
-0.16338 -1.88168 1.89902 221 212 99
-0.1634 -1.71387 1.89903 221 212 99
0.12502 -1.71387 1.92693 221 212 99
0.12496 -1.88168 1.92692 221 212 99
0.16338 -1.88168 1.89902 221 212 99
0.1634 -1.71387 1.89903 221 212 99
-0.11443 -1.84505 1.62627 164 108 92
0.11443 -1.84505 1.62627 164 108 92
0.11443 -1.84505 1.58364 164 108 92
-0.11443 -1.84505 1.58364 164 108 92
0.11443 -1.80884 1.62627 164 108 92
-0.11443 -1.80884 1.62627 164 108 92
-0.16338 -1.88168 1.89902 214 206 96
0.17674 -1.69437 1.94336 60 59 53
0.17674 -1.69437 1.98296 60 59 53
0.21478 -1.69437 2.01914 60 59 53
0.21478 -1.69437 1.94336 60 59 53
0.17674 -1.68591 1.94336 60 59 53
0.21478 -1.68591 1.94336 60 59 53
0.21478 -1.68591 2.01914 60 59 53
0.17674 -1.68591 1.98296 60 59 53
0.29292 -1.68832 2.0871 255 255 255
0.29292 -1.68832 1.92693 255 255 255
0.12499 -1.68832 1.92693 255 255 255
0.13179 -1.88173 1.68196 214 206 96
0.16345 -1.88171 1.70245 214 206 96
0.1076 -1.88175 1.682 214 206 96
-0.34232 -1.6418 2.36896 221 212 99
-0.34232 -1.16416 2.36896 221 212 99
0.34232 -1.16416 2.36896 221 212 99
0.34232 -1.6418 2.36896 221 212 99
-0.29974 -1.67933 2.36896 221 212 99
0.29974 -1.67933 2.36896 221 212 99
0.16338 -1.88168 1.89902 214 206 96
-0.87426 -1.33273 2.59312 173 175 191
-0.62393 -1.33273 2.59312 173 175 191
-0.62393 -1.51147 2.59312 173 175 191
-0.87426 -1.51147 2.59312 173 175 191
-0.65708 -1.30034 2.59312 173 175 191
-0.8454 -1.30034 2.59312 173 175 191
-0.86403 -1.27602 2.0449 165 167 182
-0.63793 -1.27602 2.2541 165 167 182
-0.6386 -1.27603 2.56748 165 167 182
-0.86458 -1.27603 2.56748 165 167 182
-0.89922 -1.3149 2.56748 165 167 182
-0.89866 -1.3148 2.01541 165 167 182
-0.83132 -1.27602 2.00157 165 167 182
-0.86229 -1.3148 1.97024 165 167 182
-0.45523 -1.27602 2.00157 165 167 182
-0.60931 -1.27602 2.22724 165 167 182
-0.45523 -1.27602 2.22724 165 167 182
-0.45523 -1.3148 1.97024 165 167 182
-0.59882 -1.3149 2.56748 165 167 182
-0.59932 -1.3148 2.28832 165 167 182
-0.5744 -1.3148 2.26146 165 167 182
-0.45523 -1.3148 2.26146 165 167 182
-0.89866 -1.5292 2.01541 165 167 182
-0.89922 -1.52939 2.56748 165 167 182
-0.86229 -1.5292 1.97024 165 167 182
-0.45523 -1.5292 1.97024 165 167 182
-0.87426 -1.33273 2.59312 165 167 182
-0.87426 -1.51147 2.59312 165 167 182
-0.8454 -1.30034 2.59312 165 167 182
-0.65708 -1.30034 2.59312 165 167 182
-0.62393 -1.33273 2.59312 165 167 182
-0.62393 -1.51147 2.59312 165 167 182
-0.59882 -1.52939 2.56748 165 167 182
-0.65708 -1.54331 2.59312 165 167 182
-0.6386 -1.5676 2.56748 165 167 182
-0.63793 -1.56723 2.2541 165 167 182
-0.59932 -1.5292 2.28832 165 167 182
-0.60947 -1.56723 2.22724 165 167 182
-0.5744 -1.5292 2.26146 165 167 182
-0.70315 -1.56753 2.49561 165 167 182
-0.7025 -1.56723 2.19517 165 167 182
-0.79594 -1.56753 2.49561 165 167 182
-0.86458 -1.5676 2.56748 165 167 182
-0.86403 -1.56723 2.0449 165 167 182
-0.79577 -1.56723 2.11313 165 167 182
-0.83132 -1.56723 2.00157 165 167 182
-0.75667 -1.56723 2.07925 165 167 182
-0.50712 -1.56723 2.07949 165 167 182
-0.45523 -1.56723 2.00157 165 167 182
-0.67012 -1.56723 2.16643 165 167 182
-0.45523 -1.56723 2.22724 165 167 182
-0.50712 -1.56723 2.16625 165 167 182
-0.8454 -1.54331 2.59312 165 167 182
-0.45523 -1.5292 2.26146 165 167 182
-0.79577 -1.56723 2.11313 173 175 191
-0.79594 -1.56753 2.49561 173 175 191
-0.70315 -1.56753 2.49561 173 175 191
-0.7025 -1.56723 2.19517 173 175 191
-0.75667 -1.56723 2.07925 173 175 191
-0.67012 -1.56723 2.16643 173 175 191
-0.50712 -1.56723 2.07949 173 175 191
-0.50712 -1.56723 2.16625 173 175 191
-0.5744 -1.5292 2.26146 173 175 191
-0.5744 -1.3148 2.26146 173 175 191
-0.45523 -1.3148 2.26146 173 175 191
-0.45523 -1.5292 2.26146 173 175 191
-0.65708 -1.54331 2.59312 173 175 191
-0.8454 -1.54331 2.59312 173 175 191
-0.45523 -1.56723 2.00157 157 158 173
-0.45523 -1.56723 2.22724 157 158 173
-0.45523 -1.60548 2.26604 157 158 173
-0.45523 -1.60472 1.96211 157 158 173
-0.45523 -1.56984 2.30141 157 158 173
-0.45523 -1.5292 2.26146 157 158 173
-0.45523 -1.5292 1.97024 157 158 173
-0.45523 -1.56893 1.92964 157 158 173
-0.36254 -1.60548 2.26604 157 158 173
-0.36254 -1.60472 1.96211 157 158 173
-0.36254 -1.56984 2.30141 157 158 173
-0.36254 -1.56893 1.92964 157 158 173
-0.36254 -1.27433 2.30155 157 158 173
-0.45523 -1.27433 2.30155 157 158 173
-0.45523 -1.27525 1.9295 157 158 173
-0.36254 -1.27525 1.9295 157 158 173
-0.45523 -1.27602 2.22724 157 158 173
-0.45523 -1.27602 2.00157 157 158 173
-0.45523 -1.23871 1.96195 157 158 173
-0.45523 -1.23795 2.26621 157 158 173
-0.45523 -1.3148 1.97024 157 158 173
-0.45523 -1.3148 2.26146 157 158 173
-0.36254 -1.23871 1.96195 157 158 173
-0.36254 -1.23795 2.26621 157 158 173
0.09126 -1.9629 1.71311 77 112 69
0.0388 -1.9629 1.71311 77 112 69
0.03848 -1.96292 1.72966 77 112 69
0.0905 -1.96292 1.72966 77 112 69
0.09126 -1.97578 1.7131 77 112 69
0.0905 -1.9758 1.72965 77 112 69
0.03848 -1.9758 1.72965 77 112 69
0.0388 -1.97578 1.7131 77 112 69
-0.0905 -1.96292 1.72966 77 112 69
-0.03848 -1.96292 1.72966 77 112 69
-0.0388 -1.9629 1.71311 77 112 69
-0.09126 -1.9629 1.71311 77 112 69
-0.0905 -1.9758 1.72965 77 112 69
-0.09126 -1.97578 1.7131 77 112 69
-0.0388 -1.97578 1.7131 77 112 69
-0.03848 -1.9758 1.72965 77 112 69
3 0 2 1
3 0 3 2
3 0 4 3
3 0 5 4
3 6 8 7
3 6 9 8
3 6 7 10
3 6 10 11
3 11 12 6
3 12 9 6
3 11 13 12
3 13 14 12
3 14 15 12
3 12 15 9
3 14 16 15
3 13 17 14
3 9 18 8
3 9 19 18
3 15 19 9
3 16 20 15
3 15 20 19
3 16 21 20
3 10 22 11
3 22 13 11
3 10 23 22
3 22 24 13
3 24 17 13
3 24 25 17
3 23 10 26
3 10 27 26
3 10 7 27
3 7 28 27
3 7 8 28
3 8 29 28
3 8 18 29
3 18 30 29
3 18 31 30
3 31 32 30
3 31 33 32
3 31 34 33
3 31 35 34
3 35 36 34
3 35 37 36
3 38 33 34
3 38 34 39
3 33 38 40
3 33 40 41
3 42 41 40
3 42 40 43
3 43 44 42
3 43 45 44
3 46 44 45
3 46 47 44
3 34 48 39
3 34 36 48
3 49 47 46
3 49 48 36
3 49 46 50
3 49 50 48
3 23 41 42
3 23 42 22
3 44 22 42
3 44 24 22
3 47 24 44
3 47 25 24
3 41 23 51
3 41 51 52
3 33 41 52
3 33 52 32
3 36 53 49
3 36 37 53
3 19 37 35
3 18 19 35
3 18 35 31
3 19 20 37
3 54 56 55
3 54 57 56
3 55 58 54
3 55 59 58
3 59 60 58
3 59 61 60
3 62 64 63
3 62 65 64
3 23 26 51
3 1 67 66
3 1 2 67
3 68 70 69
3 68 71 70
3 71 72 70
3 71 73 72
3 74 68 69
3 74 69 75
3 69 70 76
3 69 76 77
3 75 69 77
3 70 78 76
3 70 72 78
3 75 77 79
3 72 80 78
3 72 81 80
3 82 75 79
3 82 79 83
3 84 86 85
3 84 87 86
3 87 82 86
3 87 88 82
3 89 84 85
3 89 85 81
3 73 89 81
3 73 81 72
3 88 75 82
3 88 74 75
3 85 86 90
3 85 90 91
3 81 85 91
3 86 83 90
3 86 82 83
3 81 91 80
3 92 94 93
3 92 95 94
3 96 95 92
3 96 97 95
3 97 94 95
3 98 97 96
3 98 99 97
3 97 99 100
3 97 100 101
3 97 101 94
3 98 96 102
3 102 92 93
3 102 96 92
3 98 102 103
3 104 106 105
3 104 107 106
3 108 106 107
3 108 109 106
3 110 104 105
3 110 111 104
3 112 114 113
3 112 115 114
3 116 114 115
3 116 117 114
3 116 108 117
3 116 109 108
3 118 112 113
3 118 119 112
3 110 119 118
3 110 118 111
3 120 122 121
3 120 123 122
3 100 122 123
3 100 99 122
3 99 121 122
3 99 98 121
3 98 120 121
3 98 103 120
3 124 126 125
3 124 127 126
3 128 127 124
3 128 129 127
3 130 129 128
3 130 128 131
3 131 124 125
3 131 128 124
3 130 131 132
3 131 133 132
3 131 134 133
3 134 125 126
3 134 131 125
3 130 135 129
3 136 138 137
3 136 139 138
3 140 139 136
3 140 141 139
3 142 137 138
3 142 143 137
3 144 146 145
3 144 147 146
3 148 147 144
3 148 149 147
3 141 149 148
3 141 140 149
3 150 145 146
3 150 151 145
3 151 150 143
3 151 143 142
3 152 154 153
3 152 155 154
3 135 155 152
3 135 130 155
3 130 154 155
3 130 132 154
3 132 153 154
3 132 133 153
3 156 158 157
3 156 159 158
3 160 159 156
3 160 161 159
3 161 158 159
3 162 161 160
3 162 163 161
3 161 163 164
3 161 164 165
3 161 165 158
3 162 160 166
3 166 156 157
3 166 160 156
3 162 166 167
3 168 170 169
3 168 171 170
3 172 170 171
3 172 173 170
3 174 168 169
3 174 175 168
3 176 178 177
3 176 179 178
3 180 178 179
3 180 181 178
3 180 172 181
3 180 173 172
3 182 176 177
3 182 183 176
3 174 183 182
3 174 182 175
3 184 186 185
3 184 187 186
3 164 186 187
3 164 163 186
3 163 185 186
3 163 162 185
3 162 184 185
3 162 167 184
3 188 190 189
3 188 191 190
3 192 191 188
3 192 193 191
3 194 193 192
3 194 192 195
3 195 188 189
3 195 192 188
3 194 195 196
3 195 197 196
3 195 198 197
3 198 189 190
3 198 195 189
3 194 199 193
3 200 202 201
3 200 203 202
3 204 203 200
3 204 205 203
3 206 201 202
3 206 207 201
3 208 210 209
3 208 211 210
3 212 211 208
3 212 213 211
3 205 213 212
3 205 204 213
3 214 209 210
3 214 215 209
3 215 214 207
3 215 207 206
3 216 218 217
3 216 219 218
3 199 219 216
3 199 194 219
3 194 218 219
3 194 196 218
3 196 217 218
3 196 197 217
3 220 222 221
3 220 223 222
3 221 222 224
3 221 224 225
3 226 228 227
3 226 229 228
3 230 228 229
3 230 231 228
3 231 227 228
3 232 231 230
3 233 231 232
3 231 233 227
3 233 226 227
3 233 232 234
3 232 230 235
3 233 234 236
3 233 236 237
3 233 237 226
3 238 240 239
3 238 241 240
3 239 240 242
3 239 242 243
3 244 246 245
3 244 247 246
3 248 246 247
3 248 249 246
3 249 245 246
3 250 249 248
3 251 249 250
3 249 251 245
3 251 244 245
3 251 250 252
3 250 248 253
3 251 252 254
3 251 254 255
3 251 255 244
3 256 258 257
3 256 259 258
3 258 259 260
3 258 260 261
3 262 264 263
3 262 265 264
3 266 265 262
3 266 267 265
3 267 264 265
3 267 266 268
3 267 268 269
3 267 269 270
3 267 270 271
3 267 271 264
3 271 263 264
3 270 272 271
3 271 272 263
3 270 273 272
3 274 276 275
3 274 277 276
3 276 277 278
3 276 278 279
3 279 278 280
3 279 280 281
3 282 284 283
3 282 285 284
3 286 284 285
3 286 287 284
3 286 288 287
3 286 289 288
3 288 289 290
3 290 289 291
3 286 291 289
3 290 291 292
3 288 290 293
3 294 286 285
3 286 294 295
3 286 295 296
3 286 296 291
3 282 294 285
3 282 297 294
3 298 297 282
3 299 298 282
3 300 298 299
3 300 299 301
3 299 288 301
3 299 287 288
3 300 301 302
3 300 302 303
3 301 293 302
3 301 288 293
3 287 299 283
3 299 282 283
3 287 283 284
3 300 304 298
3 300 305 304
3 303 305 300
3 305 306 304
3 305 307 306
3 306 307 308
3 306 308 309
3 305 310 307
3 305 311 310
3 303 311 305
3 307 312 308
3 307 310 312
3 309 313 306
3 309 314 313
3 306 315 304
3 306 313 315
3 304 315 316
3 298 304 316
3 298 316 297
3 317 297 316
3 317 316 318
3 319 317 318
3 320 317 319
3 320 319 321
3 321 319 322
3 319 318 322
3 321 322 323
3 324 322 318
3 324 323 322
3 294 317 320
3 294 297 317
3 320 295 294
3 320 324 295
3 295 324 318
3 295 318 316
3 321 324 320
3 321 323 324
3 315 295 316
3 315 325 295
3 315 314 325
3 315 313 314
3 296 325 314
3 295 325 296
3 296 314 309
3 296 309 308
3 296 308 291
3 308 292 291
3 308 312 292
3 326 328 327
3 326 329 328
3 329 330 328
3 329 331 330
3 332 334 333
3 332 335 334
3 335 336 334
3 335 337 336
3 338 335 332
3 338 337 335
3 339 337 338
3 339 336 337
3 339 338 340
3 339 340 341
3 339 341 342
3 340 343 341
3 340 344 343
3 338 332 345
3 338 345 346
3 338 347 340
3 340 347 344
3 348 334 336
3 348 333 334
3 349 348 336
3 339 349 336
3 342 349 339
3 349 350 348
3 349 351 350
3 349 352 351
3 342 352 349
3 350 351 353
3 350 353 354
3 348 350 355
3 350 354 355
3 347 346 356
3 357 356 358
3 357 347 356
3 348 359 333
3 348 360 359
3 355 361 360
3 362 361 355
3 362 363 361
3 364 362 365
3 364 357 362
3 347 357 364
3 347 364 344
3 366 364 365
3 344 364 366
3 366 365 367
3 344 366 343
3 355 365 362
3 355 354 365
3 354 367 365
3 354 353 367
3 347 338 346
3 355 360 348
3 368 345 369
3 368 346 345
3 368 356 346
3 368 370 356
3 358 356 370
3 358 370 371
3 369 372 368
3 369 373 372
3 372 373 359
3 372 359 360
3 372 360 361
3 372 361 374
3 368 374 370
3 368 372 374
3 370 375 371
3 370 374 375
3 363 374 361
3 363 375 374
3 331 376 330
3 331 377 376
3 369 359 373
3 369 345 359
3 378 380 379
3 378 381 380
3 379 380 382
3 379 382 383
3 359 332 333
3 359 345 332
3 384 386 385
3 384 387 386
3 388 387 384
3 388 384 389
3 389 384 385
3 388 389 390
3 389 385 391
3 392 387 388
3 392 393 387
3 393 386 387
3 393 392 394
3 393 394 395
3 396 385 386
3 396 391 385
3 396 397 391
3 398 396 386
3 398 386 399
3 393 399 386
3 395 394 400
3 395 400 401
3 399 402 398
3 399 403 402
3 402 403 404
3 402 404 405
3 404 406 405
3 404 407 406
3 408 407 404
3 408 409 407
3 407 410 406
3 411 407 409
3 411 410 407
3 412 411 409
3 411 413 410
3 411 414 413
3 410 415 406
3 410 413 415
3 416 412 409
3 416 409 408
3 416 408 417
3 416 417 418
3 419 418 417
3 419 417 420
3 421 419 420
3 421 422 419
3 423 421 420
3 423 420 424
3 423 424 425
3 423 425 426
3 425 424 427
3 425 427 428
3 424 395 427
3 424 393 395
3 429 428 427
3 429 427 430
3 429 430 431
3 429 431 432
3 424 399 393
3 424 420 399
3 420 403 399
3 427 401 430
3 427 395 401
3 430 401 433
3 430 433 431
3 434 431 433
3 432 431 434
3 434 433 435
3 433 436 435
3 434 435 437
3 434 437 438
3 435 439 437
3 435 436 439
3 401 436 433
3 401 400 436
3 436 432 440
3 436 440 439
3 432 438 440
3 432 434 438
3 441 443 442
3 441 444 443
3 443 444 445
3 443 445 446
3 447 444 441
3 447 448 444
3 444 449 445
3 444 448 449
3 450 446 445
3 450 451 446
3 452 445 449
3 452 450 445
3 443 446 453
3 443 453 454
3 446 455 453
3 446 451 455
3 442 443 454
3 442 454 456
3 451 456 455
3 451 442 456
3 442 451 450
3 442 450 441
3 441 450 452
3 441 452 447
3 457 459 458
3 457 460 459
3 457 458 461
3 457 461 462
3 463 459 460
3 463 464 459
3 464 466 465
3 464 467 466
3 463 467 464
3 463 468 467
3 469 468 463
3 469 470 468
3 468 471 467
3 468 472 471
3 473 471 472
3 473 474 471
3 475 477 476
3 475 478 477
3 478 479 477
3 478 480 479
3 481 475 476
3 481 476 482
3 483 478 475
3 483 484 478
3 484 480 478
3 484 485 480
3 485 481 480
3 485 486 481
3 486 475 481
3 486 483 475
3 476 477 487
3 476 487 488
3 482 476 488
3 482 488 489
3 477 490 487
3 477 479 490
3 479 482 489
3 480 482 479
3 480 481 482
3 479 489 490
3 491 493 492
3 491 494 493
3 390 396 388
3 390 397 396
3 495 497 496
3 495 498 497
3 417 404 403
3 417 408 404
3 420 417 403
3 473 499 474
3 473 500 499
3 406 501 412
3 406 415 501
3 412 501 414
3 412 414 411
3 502 504 503
3 502 505 504
3 503 504 506
3 503 506 507
3 508 502 503
3 508 503 509
3 509 503 507
3 509 507 510
3 511 502 508
3 511 512 502
3 506 504 513
3 506 513 514
3 504 515 513
3 504 505 515
3 505 516 515
3 505 517 516
3 517 506 514
3 517 514 516
3 512 505 502
3 512 517 505
3 507 517 512
3 507 506 517
3 510 507 512
3 510 512 511
3 518 520 519
3 518 521 520
3 522 524 523
3 522 525 524
3 526 528 527
3 526 529 528
3 530 528 529
3 530 531 528
3 532 531 530
3 532 526 527
3 532 530 533
3 532 533 526
3 534 536 535
3 534 537 536
3 537 538 536
3 537 539 538
3 539 540 538
3 539 541 540
3 541 535 540
3 541 534 535
3 542 544 543
3 542 545 544
3 546 548 547
3 546 549 548
3 550 548 549
3 550 551 548
3 552 546 547
3 552 553 546
3 552 550 553
3 552 551 550
3 554 556 555
3 554 557 556
3 557 558 556
3 557 559 558
3 559 560 558
3 559 561 560
3 561 555 560
3 561 554 555
3 562 564 563
3 562 565 564
3 566 568 567
3 566 569 568
3 570 568 569
3 570 571 568
3 572 566 567
3 572 573 566
3 572 570 573
3 572 571 570
3 574 576 575
3 574 577 576
3 577 578 576
3 577 579 578
3 579 580 578
3 579 581 580
3 581 575 580
3 581 574 575
3 582 584 583
3 582 585 584
3 586 582 583
3 586 585 582
3 586 583 587
3 583 588 587
3 583 584 588
3 586 589 585
3 590 592 591
3 590 593 592
3 594 591 592
3 594 592 595
3 592 596 595
3 592 597 596
3 598 597 592
3 593 598 592
3 593 599 598
3 599 600 598
3 599 601 600
3 602 601 599
3 602 599 603
3 597 598 603
3 593 604 599
3 605 599 604
3 605 606 599
3 603 599 606
3 593 607 604
3 593 608 607
3 604 609 605
3 604 607 609
3 609 610 605
3 605 610 611
3 612 611 610
3 609 613 610
3 608 614 607
3 614 608 615
3 607 614 616
3 607 616 609
3 617 612 610
3 617 610 618
3 610 619 618
3 610 620 619
3 613 620 610
3 609 621 613
3 609 616 621
3 613 621 620
3 616 620 621
3 622 615 608
3 590 622 608
3 590 608 593
3 622 623 615
3 624 614 615
3 624 625 614
3 625 616 614
3 624 626 625
3 627 625 626
3 625 627 616
3 616 627 620
3 627 626 628
3 624 629 626
3 626 629 630
3 626 630 631
3 632 626 631
3 632 633 626
3 633 628 626
3 624 634 629
3 635 634 624
3 635 636 634
3 629 634 637
3 637 633 629
3 638 634 636
3 638 639 634
3 634 640 637
3 634 639 640
3 597 637 640
3 597 640 596
3 603 637 597
3 603 633 637
3 629 632 630
3 629 633 632
3 635 615 623
3 635 624 615
3 641 643 642
3 641 644 643
3 642 645 641
3 642 646 645
3 647 644 641
3 647 641 648
3 645 648 641
3 644 647 649
3 644 649 650
3 649 651 650
3 650 651 652
3 650 652 653
3 654 653 652
3 654 655 653
3 654 656 655
3 656 654 657
3 656 657 658
3 659 658 657
3 646 659 645
3 646 658 659
3 660 657 654
3 654 652 660
3 661 657 660
3 661 659 657
3 661 651 649
3 659 661 662
3 661 649 662
3 645 662 648
3 645 659 662
3 663 665 664
3 663 666 665
3 665 667 664
3 665 668 667
3 666 668 665
3 666 669 668
3 663 669 666
3 670 668 669
3 663 670 669
3 670 667 668
3 671 673 672
3 673 674 672
3 672 674 675
3 675 674 676
3 676 677 675
3 671 679 678
3 671 672 679
3 677 680 675
3 677 681 680
3 672 680 679
3 672 675 680
3 682 684 683
3 598 602 603
3 598 600 602
3 646 686 685
3 646 642 686
3 686 642 643
3 686 643 687
3 688 646 685
3 688 658 646
3 688 689 658
3 689 690 658
3 658 690 691
3 658 691 656
3 691 655 656
3 691 692 655
3 693 695 694
3 696 695 693
3 694 697 693
3 694 698 697
3 697 698 699
3 700 697 699
3 701 703 702
3 701 704 703
3 705 701 702
3 705 706 701
3 605 707 606
3 605 611 707
3 708 710 709
3 708 711 710
3 712 711 708
3 712 708 709
3 712 713 711
3 711 714 710
3 711 713 714
3 712 709 715
3 716 718 717
3 719 620 720
3 627 720 620
3 721 620 719
3 721 619 620
3 722 724 723
3 722 725 724
3 726 725 722
3 726 727 725
3 627 728 720
3 627 628 728
3 729 731 730
3 729 732 731
3 729 730 733
3 729 733 734
3 735 737 736
3 735 738 737
3 735 739 738
3 735 740 739
3 740 735 741
3 741 735 736
3 740 741 742
3 742 741 743
3 743 741 744
3 741 736 744
3 743 744 745
3 742 743 746
3 736 737 747
3 736 747 748
3 744 736 748
3 745 744 749
3 744 748 749
3 745 749 750
3 739 740 751
3 751 740 742
3 739 751 752
3 751 742 753
3 753 742 746
3 753 746 754
3 752 755 739
3 752 756 755
3 739 755 757
3 739 757 738
3 738 757 758
3 738 758 737
3 737 759 747
3 737 758 759
3 747 759 760
3 747 760 761
3 761 760 762
3 761 762 763
3 761 763 764
3 761 764 765
3 765 764 766
3 765 766 767
3 768 764 763
3 768 769 764
3 763 770 768
3 763 771 770
3 772 770 771
3 772 773 770
3 773 772 774
3 773 774 775
3 776 775 774
3 776 774 777
3 764 778 766
3 764 769 778
3 779 776 777
3 779 766 778
3 779 780 776
3 779 778 780
3 752 772 771
3 752 751 772
3 774 772 751
3 774 751 753
3 777 774 753
3 777 753 754
3 771 756 752
3 771 781 756
3 763 781 771
3 763 762 781
3 766 779 782
3 766 782 767
3 748 767 749
3 748 765 767
3 747 765 748
3 747 761 765
3 783 785 784
3 783 786 785
3 786 783 787
3 786 787 788
3 788 787 789
3 788 789 790
3 791 793 792
3 791 794 793
3 732 795 731
3 732 796 795
3 797 799 798
3 797 800 799
3 798 799 801
3 798 801 802
3 803 800 797
3 803 804 800
3 800 805 799
3 800 806 805
3 804 806 800
3 799 807 801
3 799 805 807
3 804 808 806
3 801 807 809
3 801 809 810
3 811 808 804
3 811 812 808
3 813 815 814
3 813 816 815
3 814 815 811
3 814 811 817
3 818 816 813
3 818 810 816
3 802 810 818
3 802 801 810
3 817 811 804
3 817 804 803
3 816 819 815
3 816 820 819
3 810 820 816
3 815 812 811
3 815 819 812
3 810 809 820
3 821 823 822
3 821 824 823
3 825 824 821
3 825 826 824
3 826 823 824
3 826 827 823
3 827 822 823
3 827 828 822
3 828 821 822
3 828 825 821
3 829 831 830
3 829 832 831
3 833 832 829
3 833 834 832
3 834 831 832
3 834 835 831
3 835 830 831
3 835 836 830
3 836 829 830
3 836 833 829
