mtllib Sableye_Mega.mtl
v 0 0.326534 0.194152
vt 0.882619 0.219279
vn 0 -0.0133458 0.999911
v -0.0944587 0.318045 0.155528
vt 0.714291 0.212145
vn -0.4505452 -0.135445 0.8824192
v 0 0.293687 0.190486
vt 0.882619 0.191279
vn 0 -0.130884 0.9913977
v -0.0583893 0.339567 0.168031
vt 0.777211 0.230674
vn -0.385027 0.111469 0.916149
v 0.0944587 0.318045 0.155528
vt 1.05095 0.212132
vn 0.4505452 -0.135445 0.8824192
v -0.0186345 0.339422 0.184793
vt 0.848585 0.230441
vn -0.3844981 0.134619 0.9132573
v 0.0583893 0.339567 0.168031
vt 0.988029 0.23067
vn 0.385027 0.111469 0.916149
v -0.0348014 0.381019 0.170681
vt 0.816312 0.266796
vn -0.3888108 0.1500619 0.9090146
v 0.0186345 0.339422 0.184793
vt 0.916644 0.230433
vn 0.3844981 0.134619 0.9132573
v 0 0.429158 0.178255
vt 0.882619 0.303332
vn 0 0.4091962 0.9124464
v 0.0348014 0.381019 0.170681
vt 0.948916 0.266796
vn 0.3888121 0.150062 0.9090141
v -0.031702 0.420889 0.16408
vt 0.824456 0.301651
vn -0.4374112 0.1600771 0.8848993
v 0.031702 0.420889 0.16408
vt 0.940796 0.301639
vn 0.4374112 0.1600771 0.8848993
v -0.0837965 0.455201 0.132819
vt 0.738927 0.341481
vn -0.3440651 0.5323562 0.7734443
v 0.0837965 0.455201 0.132819
vt 1.02631 0.341481
vn 0.3440651 0.5323562 0.7734443
v 0 0.490568 0.137144
vt 0.882619 0.368138
vn 0 0.834393 0.55117
v 0 0.206169 0.0124807
vt 0.895459 0.816383
vn 0 -1 0
v -0.112227 0.240178 0.0124807
vt 0.92291 0.831176
vn -0.5582541 -0.8296701 0
v -0.071413 0.25633 -0.0910811
vt 0.914884 0.835375
vn -0.436466 -0.810326 -0.390985
v -0.0872708 0.235239 0.07478
vt 0.914884 0.831176
vn -0.436466 -0.810326 0.390985
v 0 0.257319 -0.119019
vt 0.895497 0.835377
vn 0 -0.7926113 -0.6097273
v -0.0527235 0.235239 0.11286
vt 0.905195 0.831176
vn -0.2828101 -0.8657242 0.4129651
v 0.071413 0.25633 -0.0910811
vn 0.436466 -0.810326 -0.390985
v 0 0.235239 0.135065
vt 0.895653 0.831481
vn 0 -0.7926113 0.6097273
v 0.112227 0.240178 0.0124807
vn 0.5582541 -0.8296701 0
v 0.0527235 0.235239 0.11286
vn 0.2828101 -0.8657242 0.4129651
v 0.0872708 0.235239 0.07478
vn 0.436466 -0.810326 0.390985
v -0.129966 0.293687 -0.114788
vt 0.930825 0.860957
vn -0.697387 -0.222977 -0.681126
v -0.138169 0.293687 0.111063
vn -0.697387 -0.222977 0.681126
v -0.183702 0.293687 0.0124807
vt 0.945454 0.860957
vn -0.949462 -0.313882 0
v 0 0.293687 -0.157612
vt 0.895634 0.860698
vn 0 -0.130884 -0.9913977
v 0 0.264463 0.169117
vt 0.89542 0.845806
vn 0 -0.6613407 0.7500857
v -0.0791081 0.26786 0.142816
vt 0.90918 0.846067
vn -0.408942 -0.684054 0.604017
v 0.138169 0.293687 0.111063
vn 0.697387 -0.222977 0.681126
v 0.129966 0.293687 -0.114788
vn 0.697387 -0.222977 -0.681126
v 0.183702 0.293687 0.0124807
vn 0.949462 -0.313882 0
v -0.139611 0.326534 -0.118744
vt 0.932515 0.877681
vn -0.6924656 -0.1259619 -0.7103696
v -0.189439 0.326534 0.0122722
vt 0.947845 0.877681
vn -0.9915945 -0.1293839 -0.0003511118
v 0.0791081 0.26786 0.142816
vn 0.4089423 -0.6840544 0.6040164
v 0.139611 0.326534 -0.118744
vn 0.6924656 -0.1259619 -0.7103696
v 0.189439 0.326534 0.0122722
vn 0.9915945 -0.1293839 -0.0003511118
v 0 0.324388 -0.16737
vt 0.89531 0.87661
v -0.148425 0.326534 0.119775
vn -0.7921363 -0.174266 0.5849372
vt 0.914011 0.877681
v -0.0903797 0.293687 0.15347
vt 0.913165 0.860957
vn -0.4499739 -0.5217419 0.7247819
v 0.148425 0.326534 0.119775
vn 0.7921363 -0.174266 0.5849372
v 0.0903797 0.293687 0.15347
vn 0.4499739 -0.5217419 0.7247819
v 0 0.359328 -0.16894
vt 0.895442 0.894401
vn 0 0.157111 -0.987581
v 0.142385 0.359328 -0.116184
vt 0.934206 0.894404
vn 0.704616 0.128959 -0.697772
v -0.185847 0.359328 0.0121189
vt 0.950236 0.894404
vn -0.9972064 0.07347043 -0.01347171
v -0.142385 0.359328 -0.116184
vn -0.704616 0.128959 -0.697772
vt 0.895487 0.860443
v 0.185847 0.359328 0.0121189
vn 0.9972064 0.07347043 -0.01347171
v 0.146553 0.352357 0.124267
vn 0.7951239 0.0457363 0.6047199
v -0.146553 0.352357 0.124267
vn -0.7951239 0.0457363 0.6047199
v -0.128502 0.429158 -0.102969
vt 0.931747 0.929984
vn -0.6333682 0.3989371 -0.6630942
v 0.141222 0.420935 0.112913
vn 0.6333682 0.3989371 0.6630942
v 0.128502 0.429158 -0.102969
vn 0.6333682 0.3989371 -0.6630942
v -0.141222 0.420935 0.112913
vn -0.6333682 0.3989371 0.6630942
v 0 0.429158 -0.148582
vt 0.896022 0.930239
vn 0 0.4091962 -0.9124464
v -0.180621 0.429158 0.0124807
vt 0.946758 0.929984
vn -0.9216673 0.3879811 0
v -0.0776063 0.49478 -0.0566134
vt 0.914332 0.968906
vn -0.356071 0.8526491 -0.382365
v -0.11254 0.498356 0.0124807
vt 0.922131 0.968906
vn -0.49338 0.8698139 0
v 0.180621 0.429158 0.0124807
vn 0.9216673 0.3879811 0
v 0.11254 0.498356 0.0124807
vn 0.49338 0.8698139 0
v 0.0906223 0.493586 0.0915567
vn 0.356071 0.8526491 0.382365
vt 0.913626 0.949445
v 0 0.538493 0.0124807
vt 0.895517 0.985666
vn 0 1 0
v 0 0.49478 -0.0956029
vt 0.894705 0.969272
vn 0 0.834393 -0.55117
v -0.0906223 0.493586 0.0915567
vn -0.356071 0.8526491 0.382365
vt 0.89544 0.968648
v 0.0776063 0.49478 -0.0566134
vn 0.356071 0.8526491 -0.382365
v 0.0562741 0.137768 -0.0871881
vt 0.328529 0.723722
vn 0.4635731 0.133846 -0.8758911
v 0.0565025 0.0516642 -0.08510551
vt 0.319305 0.428464
vn 0.4026591 -0.3181251 -0.8582902
v -0.0565022 0.0516642 -0.08510551
vt 0.678629 0.428812
vn -0.4026591 -0.3181251 -0.8582902
v 0.107033 0.118734 0
vt 0.0152149 0.65716
vn 0.9513822 -0.08253852 -0.2967481
v -0.0562738 0.137768 -0.0871881
vt 0.669362 0.723585
vn -0.4635723 0.1338461 -0.8758916
v 0.0827445 0.21663 0.000124233
vt 0.080072 0.970353
vn 0.7382949 0.591296 -0.3244839
v 0.0413724 0.21663 -0.0617023
vt 0.341096 0.986858
vn 0.4347619 0.4850279 -0.7587688
v 0.0962302 0.0516642 0
vt 0.0207343 0.442393
vn 0.9709709 -0.232961 -0.05426519
v -0.107033 0.118734 0
vt 0.982284 0.657111
vn -0.9513819 -0.08253879 -0.296749
v -0.09623 0.0516642 0
vt 0.976857 0.44291
vn -0.9709709 -0.232961 -0.05426559
v -0.0413721 0.21663 -0.0617024
vt 0.657112 0.986449
vn -0.4347611 0.4850281 -0.7587691
v -0.0827443 0.21663 0.000124233
vt 0.917873 0.969611
vn -0.7382949 0.591296 -0.3244839
v 0.05650241 0.0516642 0.061381
vt 1.04886 0.642291
vn 0.3598827 -0.3811607 0.8515873
v -0.0562739 0.108105 0.0700558
vt 0.951423 0.713356
vn -0.144998 -0.176501 0.973562
v -0.0565022 0.0516642 0.061381
vt 0.951226 0.642291
vn -0.3598821 -0.3811612 0.8515874
v 0.056274 0.108105 0.0700558
vt 1.04866 0.713356
vn 0.144998 -0.176501 0.973562
v 0 0.034247 0
vt 1.00004 0.62036
vt 1.08318 0.642291
v 0.0573382 0 0
vt 1.04958 0.577239
vn 0.117229 -0.9927822 -0.0253153
vt 0.916902 0.642291
vt 0.907569 0.726741
v -0.167564 0.161302 0.11114
vt 0.855273 0.780338
vn -0.736361 0.0429717 0.6752229
v -0.0413722 0.21663 0.0605753
vt 0.964297 0.850004
vn -0.007459673 0.4569612 0.8894554
vt 1.09251 0.726741
v 0.167564 0.161302 0.11114
vt 1.14481 0.780338
vn 0.736361 0.04297199 0.6752229
v 0.0413723 0.21663 0.0605753
vt 1.03579 0.850004
vn 0.007459693 0.4569612 0.8894554
v -0.0573382 0 0
vt 0.950503 0.577239
vn -0.11723 -0.9927821 -0.0253153
vt 0.928553 0.850004
vt 1.07153 0.850004
v 0 0.229951 0
vt 1.00004 0.866777
v 0.224413 0.327091 -0.0845645
vt 1.01378 0.640144
vn 0.9845176 -0.104531 0.1407069
v 0.229346 0.389233 -0.0890117
vt 1.01753 0.689841
vn 0.9822446 -0.01671679 0.1868589
v 0.200125 0.330527 0.0496642
vt 0.903284 0.641807
vn 0.979809 -0.0307387 0.197559
v 0.237642 0.442433 -0.15335
vt 1.06904 0.730949
vn 0.9949942 -0.07418411 0.06695682
v 0.215835 0.274256 -0.0750205
vt 1.0053 0.596869
vn 0.978691 -0.130228 0.15876
v 0.232928 0.367886 -0.152383
vt 1.06861 0.672125
vn 0.9874704 -0.1547521 0.03088582
v 0.242619 0.59445 -0.152005
vt 1.06655 0.847
vn 0.9785124 4.145708E-06 0.2061879
v 0.209524 0.32818 -0.0866839
vt 1.01331 0.638317
vn -0.9750844 0.09315254 -0.2013281
v 0.186982 0.332705 0.0454254
vt 0.905659 0.641079
vn -0.982056 0.0870444 -0.1673
v 0.215376 0.39141 -0.0932506
vt 1.01882 0.688543
vn -0.9799875 0.07950646 -0.1824919
v 0.201865 0.276433 -0.0792593
vt 1.00671 0.596392
vn -0.9750908 0.117314 -0.188243
vn -0.9508736 0.05639288 -0.3043999
vn -0.9549485 0.101318 -0.2789409
v -0.224413 0.327091 -0.0845645
vn -0.9845176 -0.104531 0.1407069
v -0.200125 0.330527 0.0496642
vn -0.979809 -0.0307384 0.197559
v -0.229346 0.389233 -0.0890117
vn -0.9822446 -0.01671659 0.1868589
v -0.215835 0.274256 -0.0750205
vn -0.978691 -0.130228 0.15876
v -0.237642 0.442433 -0.15335
vn -0.9949942 -0.07418411 0.06695682
v -0.232928 0.367886 -0.152383
vn -0.9874705 -0.1547519 0.03088579
v -0.242619 0.59445 -0.152005
vn -0.9785124 4.334152E-06 0.2061881
v -0.209524 0.32818 -0.0866839
vn 0.9750844 0.09315274 -0.2013281
v -0.215376 0.39141 -0.0932506
vn 0.9799874 0.07950663 -0.1824921
v -0.186982 0.332705 0.0454254
vn 0.9820561 0.08704451 -0.167299
vn 0.9508736 0.05639288 -0.3043999
v -0.201865 0.276433 -0.0792593
vn 0.975091 0.117314 -0.188242
vn 0.9549485 0.101318 -0.2789409
vt 1 0
vt 1.25 0.125
vt 1 0.125
vt 1.26563 0
vt 1.4375 0
vt 0.267862 -0.0367088
vt -0.200527 0.437953
vt -0.272008 -0.0367088
vt 0.196381 0.437953
vn -0.259182 -0.8918539 0.370704
vn 0.259182 -0.8918539 0.370704
vt 0.428094 0.157448
v -0.0370331 0.352311 0.175434
vt 0.435551 0.19215
vn -0.3635649 0.1487599 0.9196146
vt 0.402171 0.200906
vt 0.474126 0.210491
v 0.0370331 0.352311 0.175434
vt 0.432964 0.193703
vn 0.3635649 0.1487599 0.9196146
vt 0.427674 0.141949
vt 0.475613 0.211804
vt 0.39833 0.220184
vn 0.2340729 -0.2990979 -0.9250677
vn 0.08338362 -0.5174532 -0.8516392
vn -0.147731 0.615405 0.774243
vn -0.07069638 0.7731938 0.6302168
vn 0.127854 -0.6454988 -0.7529838
vn -0.01052199 0.8574495 0.5144607
vn -0.2340729 -0.2990979 -0.9250677
vn -0.08338362 -0.5174532 -0.8516392
vn 0.147731 0.615405 0.774243
vn 0.07069658 0.7731938 0.6302168
vn -0.127854 -0.6454988 -0.7529838
vn 0.01052189 0.8574495 0.5144607
v -0.0228062 0.5249 0.0146892
vt 0.804252 0.80204
vn -0.9387419 0.242683 0.244681
v 0.000235861 0.490568 0.137144
vt 0.852508 0.80204
v 0 0.621926 0.0059543
vt 0.876636 0.946809
vn 0.9396648 0.2425869 0.2412089
v 0.0228062 0.5249 0.0146892
vt 0.900765 0.80204
vn 0 -0.08966381 -0.9959721
vt 0.949021 0.80204
o merged_0_0_node
g polygon_0
usemtl skin1_mat_id
f 1/1/1 2/2/2 3/3/3
f 1/1/1 4/4/4 2/2/2
f 1/1/1 3/3/3 5/5/5
f 1/1/1 6/6/6 4/4/4
f 1/1/1 5/5/5 7/7/7
f 1/1/1 8/8/8 6/6/6
f 1/1/1 7/7/7 9/9/9
f 1/1/1 10/10/10 8/8/8
f 1/1/1 9/9/9 11/11/11
f 1/1/1 11/11/11 10/10/10
f 8/8/8 10/10/10 12/12/12
f 11/11/11 13/13/13 10/10/10
f 12/12/12 10/10/10 14/14/14
f 13/13/13 15/15/15 10/10/10
f 14/14/14 10/10/10 16/16/16
f 16/16/16 10/10/10 15/15/15
f 17/17/17 18/18/18 19/19/19
f 17/17/17 20/20/20 18/18/18
f 17/17/17 19/19/19 21/21/21
f 17/17/17 22/22/22 20/20/20
f 17/17/17 21/21/21 23/19/23
f 17/17/17 24/23/24 22/22/22
f 17/17/17 23/19/23 25/18/25
f 17/17/17 26/22/26 24/23/24
f 17/17/17 25/18/25 27/20/27
f 17/17/17 27/20/27 26/22/26
f 18/18/18 28/24/28 19/19/19
f 18/18/18 20/20/20 29/24/29
f 18/18/18 30/25/30 28/24/28
f 18/18/18 29/24/29 30/25/30
f 21/21/21 31/26/31 23/19/23
f 21/21/21 19/19/19 31/26/31
f 19/19/19 28/24/28 31/26/31
f 22/22/22 24/23/24 32/27/32
f 22/22/22 33/28/33 20/20/20
f 22/22/22 32/27/32 33/28/33
f 33/28/33 29/24/29 20/20/20
f 24/23/24 26/22/26 32/27/32
f 25/18/25 34/24/34 27/20/27
f 25/18/25 23/19/23 35/24/35
f 25/18/25 36/25/36 34/24/34
f 25/18/25 35/24/35 36/25/36
f 23/19/23 31/26/31 35/24/35
f 30/25/30 37/29/37 28/24/28
f 30/25/30 29/24/29 38/30/38
f 30/25/30 38/30/38 37/29/37
f 26/22/26 39/28/39 32/27/32
f 26/22/26 27/20/27 39/28/39
f 39/28/39 27/20/27 34/24/34
f 36/25/36 35/24/35 40/29/40
f 36/25/36 41/30/41 34/24/34
f 36/25/36 40/29/40 41/30/41
f 31/26/31 28/24/28 42/31/31
f 31/26/31 42/31/31 35/24/35
f 35/24/35 42/31/31 40/29/40
f 28/24/28 37/29/37 42/31/31
f 29/24/29 43/29/42 38/30/38
f 29/24/29 2/32/2 43/29/42
f 29/24/29 44/33/43 2/32/2
f 34/24/34 41/30/41 45/29/44
f 34/24/34 45/29/44 5/32/5
f 34/24/34 5/32/5 46/33/45
f 40/29/40 42/31/31 47/34/46
f 40/29/40 48/35/47 41/30/41
f 40/29/40 47/34/46 48/35/47
f 42/31/31 37/29/37 47/34/46
f 38/30/38 43/29/42 49/36/48
f 38/30/38 50/35/49 37/29/37
f 38/30/38 49/36/48 50/35/49
f 37/29/37 50/35/49 47/34/46
f 44/33/43 3/37/3 2/32/2
f 3/37/3 46/33/45 5/32/5
f 45/29/44 41/30/41 51/36/50
f 45/29/44 52/35/51 5/32/5
f 45/29/44 51/36/50 52/35/51
f 41/30/41 48/35/47 51/36/50
f 43/29/42 53/35/52 49/36/48
f 43/29/42 2/32/2 53/35/52
f 50/35/49 54/38/53 47/34/46
f 50/35/49 49/36/48 54/38/53
f 52/35/51 51/36/50 55/38/54
f 48/35/47 47/34/46 56/38/55
f 48/35/47 56/38/55 51/36/50
f 53/35/52 57/38/56 49/36/48
f 54/38/53 58/39/57 47/34/46
f 54/38/53 49/36/48 59/40/58
f 54/38/53 60/41/59 58/39/57
f 54/38/53 59/40/58 61/42/60
f 54/38/53 61/42/60 60/41/59
f 59/40/58 57/38/56 61/42/60
f 59/40/58 49/36/48 57/38/56
f 47/34/46 58/39/57 56/38/55
f 55/38/54 51/36/50 62/40/61
f 55/38/54 62/40/61 63/42/62
f 55/38/54 63/42/62 64/41/63
f 55/38/54 64/41/63 15/43/15
f 62/40/61 56/38/55 63/42/62
f 62/40/61 51/36/50 56/38/55
f 60/41/59 61/42/60 65/44/64
f 60/41/59 66/45/65 58/39/57
f 60/41/59 65/44/64 66/45/65
f 57/38/56 67/41/66 61/42/60
f 57/38/56 14/43/14 67/41/66
f 61/42/60 67/41/66 65/44/64
f 64/41/63 16/46/16 15/43/15
f 64/41/63 63/42/62 65/44/64
f 64/41/63 65/44/64 16/46/16
f 16/46/16 67/41/66 14/43/14
f 16/46/16 65/44/64 67/41/66
f 56/38/55 58/39/57 68/41/67
f 56/38/55 68/41/67 63/42/62
f 68/41/67 58/39/57 66/45/65
f 68/41/67 65/44/64 63/42/62
f 68/41/67 66/45/65 65/44/64
f 69/47/68 70/48/69 71/49/70
f 69/47/68 72/50/71 70/48/69
f 69/47/68 71/49/70 73/51/72
f 69/47/68 74/52/73 72/50/71
f 69/47/68 73/51/72 75/53/74
f 69/47/68 75/53/74 74/52/73
f 70/48/69 72/50/71 76/54/75
f 71/49/70 77/55/76 73/51/72
f 71/49/70 78/56/77 77/55/76
f 75/53/74 73/51/72 79/57/78
f 77/55/76 80/58/79 73/51/72
f 73/51/72 80/58/79 79/57/78
f 81/59/80 82/60/81 83/61/82
f 81/59/80 84/62/83 82/60/81
f 81/59/80 83/61/82 85/63/17
f 81/59/80 76/64/75 84/62/83
f 81/59/80 85/63/17 86/65/84
f 81/59/80 86/65/84 76/64/75
f 82/60/81 78/66/77 83/61/82
f 82/60/81 77/67/76 78/66/77
f 82/60/81 87/68/85 77/67/76
f 82/60/81 88/69/86 87/68/85
f 84/62/83 76/64/75 72/70/71
f 84/62/83 72/70/71 89/71/87
f 84/62/83 89/71/87 90/72/88
f 85/63/17 70/59/69 86/65/84
f 85/63/17 83/61/82 91/73/89
f 85/63/17 71/61/70 70/59/69
f 85/63/17 91/73/89 71/61/70
f 91/73/89 83/61/82 78/66/77
f 91/73/89 78/66/77 71/61/70
f 70/59/69 76/64/75 86/65/84
f 77/67/76 87/68/85 80/74/79
f 87/68/85 88/69/86 80/74/79
f 72/70/71 74/75/73 89/71/87
f 89/71/87 74/75/73 90/72/88
f 88/69/86 92/76/64 80/74/79
f 88/69/86 90/72/88 92/76/64
f 90/72/88 74/75/73 92/76/64
f 80/74/79 92/76/64 79/69/78
f 74/75/73 75/72/74 92/76/64
f 92/76/64 75/72/74 79/69/78
f 93/77/90 94/78/91 95/79/92
f 93/77/90 96/80/93 94/78/91
f 93/77/90 95/79/92 97/81/94
f 93/77/90 97/81/94 98/82/95
f 94/78/91 99/83/96 95/79/92
f 100/84/97 101/85/98 102/86/99
f 100/84/97 103/87/100 101/85/98
f 100/84/97 102/86/99 96/80/101
f 100/84/97 98/82/102 103/87/100
f 101/85/98 99/83/98 102/86/99
f 104/77/103 105/79/104 106/78/105
f 104/77/103 107/81/106 105/79/104
f 104/77/103 106/78/105 108/80/107
f 104/77/103 109/82/108 107/81/106
f 105/79/104 110/83/109 106/78/105
f 111/84/110 112/86/111 113/85/112
f 111/84/110 108/80/113 112/86/111
f 111/84/110 113/85/112 114/87/114
f 111/84/110 114/87/114 109/82/115
f 112/86/111 110/83/112 113/85/112
f 3/88/3 33/89/33 32/90/32
f 3/88/3 44/91/43 33/89/33
f 3/88/3 32/90/32 39/89/39
f 3/88/3 39/89/39 46/91/45
f 44/91/43 29/92/29 33/89/33
f 39/89/39 34/92/34 46/91/45
f 84/93/83 88/94/86 82/95/81
f 84/93/83 90/96/88 88/94/86
f 101/85/116 97/81/116 95/79/116
f 101/85/116 103/87/116 97/81/116
f 113/85/117 107/81/117 114/87/117
f 113/85/117 105/79/117 107/81/117
f 6/97/6 115/98/118 4/99/4
f 6/97/6 8/100/8 115/98/118
f 116/101/119 9/102/9 7/103/7
f 116/101/119 11/104/11 9/102/9
f 99/83/120 94/78/120 102/86/120
f 96/80/121 93/77/121 100/84/121
f 101/85/122 95/79/122 99/83/122
f 94/78/123 96/80/123 102/86/123
f 98/82/124 97/81/124 103/87/124
f 93/77/125 98/82/125 100/84/125
f 110/83/126 112/86/126 106/78/126
f 108/80/127 111/84/127 104/77/127
f 113/85/128 110/83/128 105/79/128
f 106/78/129 112/86/129 108/80/129
f 109/82/130 114/87/130 107/81/130
f 104/77/131 111/84/131 109/82/131
f 117/105/132 118/106/132 119/107/132
f 118/106/133 120/108/133 119/107/133
f 120/108/134 117/109/134 119/107/134
vt 0.416667 0.3125
vn -0.106056 0.7528488 0.6495928
v 0.0676576 0.411632 0.180678
vt 0.416667 0.68844
vt 0.375 0.3125
v 0.0977333 0.431442 0.16263
vt 0.375 0.68844
vt 0.458333 0.3125
vn -0.3902512 0.1207841 0.9127514
v 0.0707354 0.37204 0.187233
vt 0.458333 0.68844
vt 0.5 0.3125
vn -0.004347061 -0.5077622 0.8614863
v 0.103889 0.352257 0.17574
vt 0.5 0.68844
vn 0.663879 -0.5075 0.54928
vt 0.541667 0.3125
v 0.133965 0.372067 0.157693
vt 0.541667 0.68844
vn 0.9503999 0.121301 0.286402
vt 0.583333 0.3125
v 0.130887 0.411659 0.151137
vt 0.583333 0.68844
vn 0.5657699 0.7531219 0.335726
vt 0.625 0.3125
vt 0.625 0.68844
vt 0.578125 0.979066
vn 0.4163119 0.1799239 0.8912417
vt 0.421875 0.979066
v 0.100811 0.39185 0.169185
vt 0.5 0.8375
vt 0.34375 0.84375
vt 0.421875 0.708434
vt 0.578125 0.708434
vt 0.65625 0.84375
v -0.0977333 0.431442 0.16263
vn 0.106056 0.7528488 0.6495928
v -0.0676576 0.411632 0.180678
vn 0.3902512 0.1207841 0.9127514
v -0.0707354 0.37204 0.187233
v -0.103889 0.352257 0.17574
vn -0.663879 -0.5075 0.54928
v -0.133965 0.372067 0.157693
vn -0.9503999 0.121301 0.286402
v -0.130887 0.411659 0.151137
vn -0.5657699 0.7531219 0.335726
vn -0.4163119 0.1799239 0.8912417
v -0.100811 0.39185 0.169185
o merged_1_0_node
g polygon_0
usemtl ENV_eye_mat_id
f 13/110/135 121/111/135 15/112/135
f 15/112/135 121/111/135 122/113/135
f 116/114/136 123/115/136 13/110/136
f 13/110/136 123/115/136 121/111/136
f 5/116/137 124/117/137 116/114/137
f 116/114/137 124/117/137 123/115/137
f 5/116/138 52/118/138 124/117/138
f 124/117/138 52/118/138 125/119/138
f 52/118/139 55/120/139 125/119/139
f 125/119/139 55/120/139 126/121/139
f 55/120/140 15/122/140 126/121/140
f 126/121/140 15/122/140 122/123/140
f 122/124/141 121/125/141 127/126/141
f 121/125/141 123/127/141 127/126/141
f 123/127/141 124/128/141 127/126/141
f 124/128/141 125/129/141 127/126/141
f 125/129/141 126/130/141 127/126/141
f 126/130/141 122/124/141 127/126/141
f 128/113/142 129/111/142 14/112/142
f 14/112/142 129/111/142 12/110/142
f 129/111/143 130/115/143 12/110/143
f 12/110/143 130/115/143 115/114/143
f 130/115/137 131/117/137 115/114/137
f 115/114/137 131/117/137 2/116/137
f 2/116/144 131/117/144 53/118/144
f 53/118/144 131/117/144 132/119/144
f 53/118/145 132/119/145 57/120/145
f 57/120/145 132/119/145 133/121/145
f 57/120/146 133/121/146 14/122/146
f 14/122/146 133/121/146 128/123/146
f 128/124/147 134/126/147 129/125/147
f 129/125/147 134/126/147 130/127/147
f 130/127/147 134/126/147 131/128/147
f 131/128/147 134/126/147 132/129/147
f 132/129/147 134/126/147 133/130/147
f 133/130/147 134/126/147 128/124/147
v -0.2253977 0.4058687 0.1546301
vt 0.116186 0.543006
vn -0.5003928 0.2871189 -0.8168046
v -0.2756675 0.2433316 0.1282923
vt 0.116186 0.321623
v -0.3164002 0.4881672 0.2393096
vt 0.0109084 0.625409
v -0.4040917 0.2046308 0.1933639
vt 0.0109083 0.23922
vn -0.331984 -0.362561 -0.870825
v -0.2025999 0.1261663 0.1492182
vt 0.257605 0.210932
v -0.2766304 0.0002431486 0.2298677
vt 0.257605 0.0461262
v -0.07926305 0.171538 0.1964809
vt 0.399025 0.321623
vn 0.4682231 -0.6550673 -0.5930042
v -0.06147635 0.07939184 0.3123152
vt 0.504303 0.23922
vn 0.91718 -0.231058 -0.324643
v -0.02899384 0.3340751 0.2228197
vt 0.399025 0.543006
v 0.02621535 0.3629279 0.358261
vt 0.504303 0.625409
vn 0.8025287 0.4258529 -0.4178479
v -0.1020614 0.4512405 0.2018939
vt 0.257605 0.653697
v -0.1012464 0.5673158 0.3217582
vt 0.257605 0.818503
vn 0.00232183 0.7183589 -0.6956689
vt 0.00976046 0.625409
vn -0.91718 0.231058 0.324643
vt 0.0097604 0.23922
v -0.2986133 0.3960208 0.355144
vt 0.115038 0.543006
v -0.348883 0.2334837 0.3288061
vt 0.115038 0.321623
vt 0.256458 0.0461262
vn -0.8025287 -0.4258529 0.4178479
v -0.2758154 0.1163183 0.349731
vt 0.256458 0.210932
vn -0.00232183 -0.7183589 0.6956689
vt 0.503155 0.23922
v -0.1524781 0.1616901 0.3969947
vt 0.397877 0.321623
vn 0.5003928 -0.2871189 0.8168046
vt 0.503155 0.625409
v -0.1022094 0.3242272 0.4233326
vt 0.397877 0.543006
vt 0.256458 0.818503
vn 0.331984 0.362561 0.870825
v -0.175277 0.4413925 0.4024067
vt 0.256458 0.653697
vn -0.4682229 0.6550668 0.5930049
vn 0.3426251 0.04608561 -0.9383412
vn -0.3426251 -0.04608551 0.9383412
o merged_2_0_node
g polygon_0
usemtl mat_mask_mat_id
f 135/131/148 136/132/148 137/133/148
f 137/133/148 136/132/148 138/134/148
f 136/132/149 139/135/149 138/134/149
f 138/134/149 139/135/149 140/136/149
f 141/137/150 142/138/150 139/135/150
f 139/135/150 142/138/150 140/136/150
f 141/137/151 143/139/151 142/138/151
f 142/138/151 143/139/151 144/140/151
f 143/139/152 145/141/152 144/140/152
f 144/140/152 145/141/152 146/142/152
f 135/131/153 137/133/153 145/141/153
f 145/141/153 137/133/153 146/142/153
f 137/143/154 138/144/154 147/145/154
f 147/145/154 138/144/154 148/146/154
f 140/147/155 149/148/155 138/144/155
f 138/144/155 149/148/155 148/146/155
f 140/147/156 142/149/156 149/148/156
f 149/148/156 142/149/156 150/150/156
f 142/149/157 144/151/157 150/150/157
f 150/150/157 144/151/157 151/152/157
f 146/153/158 152/154/158 144/151/158
f 144/151/158 152/154/158 151/152/158
f 146/153/159 137/143/159 152/154/159
f 152/154/159 137/143/159 147/145/159
f 145/141/160 139/135/160 135/131/160
f 135/131/160 139/135/160 136/132/160
f 152/154/161 147/145/161 149/148/161
f 149/148/161 147/145/161 148/146/161
f 152/154/161 149/148/161 151/152/161
f 151/152/161 149/148/161 150/150/161
f 143/139/160 141/137/160 145/141/160
f 145/141/160 141/137/160 139/135/160
o merged_3_0_node
g polygon_0
usemtl ENV_jewel_mat_id
f 135/131/148 136/132/148 137/133/148
f 137/133/148 136/132/148 138/134/148
f 136/132/149 139/135/149 138/134/149
f 138/134/149 139/135/149 140/136/149
f 141/137/150 142/138/150 139/135/150
f 139/135/150 142/138/150 140/136/150
f 141/137/151 143/139/151 142/138/151
f 142/138/151 143/139/151 144/140/151
f 143/139/152 145/141/152 144/140/152
f 144/140/152 145/141/152 146/142/152
f 135/131/153 137/133/153 145/141/153
f 145/141/153 137/133/153 146/142/153
f 137/143/154 138/144/154 147/145/154
f 147/145/154 138/144/154 148/146/154
f 140/147/155 149/148/155 138/144/155
f 138/144/155 149/148/155 148/146/155
f 140/147/156 142/149/156 149/148/156
f 149/148/156 142/149/156 150/150/156
f 142/149/157 144/151/157 150/150/157
f 150/150/157 144/151/157 151/152/157
f 146/153/158 152/154/158 144/151/158
f 144/151/158 152/154/158 151/152/158
f 146/153/159 137/143/159 152/154/159
f 152/154/159 137/143/159 147/145/159
f 145/141/160 139/135/160 135/131/160
f 135/131/160 139/135/160 136/132/160
f 152/154/161 147/145/161 149/148/161
f 149/148/161 147/145/161 148/146/161
f 152/154/161 149/148/161 151/152/161
f 151/152/161 149/148/161 150/150/161
f 143/139/160 141/137/160 145/141/160
f 145/141/160 141/137/160 139/135/160
