ply
format ascii 1.0
element vertex 546
property float x
property float y
property float z
property uchar red
property uchar green
property uchar blue
element face 682
property list uchar int vertex_index
end_header
-0.42331 -0.79897 0.05691 221 166 178
-0.42331 -0.79897 0.66998 221 166 178
-0.35085 -0.86274 0.66998 221 166 178
-0.35085 -0.86274 0.05691 221 166 178
-0.42331 -0.28281 0.05691 221 166 178
-0.42331 -0.28281 0.66998 221 166 178
0.34716 -0.86274 0.05691 221 166 178
0.34716 -0.86274 0.66998 221 166 178
0.42331 -0.79897 0.05691 221 166 178
0.42331 -0.79897 0.66998 221 166 178
0.42331 -0.28281 0.66998 221 166 178
0.42331 -0.28281 0.05691 221 166 178
-0.38412 -0.76271 0.72179 221 166 178
-0.38412 -0.28276 0.72179 221 166 178
-0.31817 -0.82074 0.72179 221 166 178
0.31478 -0.82074 0.72179 221 166 178
0.38408 -0.76271 0.72179 221 166 178
0.38408 -0.28276 0.72179 221 166 178
-0.32664 -0.83163 0.0251 221 166 178
0.32317 -0.83163 0.0251 221 166 178
0.39425 -0.77211 0.0251 221 166 178
0.39425 -0.28267 0.0251 221 166 178
-0.39428 -0.77211 0.0251 221 166 178
-0.39428 -0.28267 0.0251 221 166 178
0.38408 -0.76271 0.72179 228 171 184
0.31478 -0.82074 0.72179 228 171 184
-0.31817 -0.82074 0.72179 228 171 184
-0.38412 -0.76271 0.72179 228 171 184
0.38408 -0.28276 0.72179 228 171 184
-0.38412 -0.28276 0.72179 228 171 184
0.16726 -0.88091 0.46787 50 50 51
0.16726 -0.88091 0.49702 50 50 51
0.19689 -0.88091 0.49702 50 50 51
0.19689 -0.88091 0.46787 50 50 51
0.10591 -0.88091 0.54201 244 245 248
0.10591 -0.85806 0.54201 244 245 248
0.27798 -0.85806 0.54201 244 245 248
0.27798 -0.88091 0.54201 244 245 248
0.27798 -0.88091 0.36354 244 245 248
0.27798 -0.85806 0.36354 244 245 248
0.10591 -0.85806 0.36354 244 245 248
0.10591 -0.88091 0.36354 244 245 248
0.19689 -0.88091 0.46787 244 245 248
0.16726 -0.88091 0.46787 244 245 248
0.19689 -0.88091 0.49702 244 245 248
0.16726 -0.88091 0.49702 244 245 248
-0.16726 -0.88091 0.46787 50 50 51
-0.19689 -0.88091 0.46787 50 50 51
-0.19689 -0.88091 0.49702 50 50 51
-0.16726 -0.88091 0.49702 50 50 51
-0.10591 -0.88091 0.54201 244 245 248
-0.27798 -0.88091 0.54201 244 245 248
-0.27798 -0.85806 0.54201 244 245 248
-0.10591 -0.85806 0.54201 244 245 248
-0.27798 -0.88091 0.36354 244 245 248
-0.27798 -0.85806 0.36354 244 245 248
-0.10591 -0.85806 0.36354 244 245 248
-0.10591 -0.88091 0.36354 244 245 248
-0.19689 -0.88091 0.46787 244 245 248
-0.16726 -0.88091 0.46787 244 245 248
-0.19689 -0.88091 0.49702 244 245 248
-0.16726 -0.88091 0.49702 244 245 248
-0.46434 -0.33077 0.00718 221 166 178
-0.46434 -0.33077 0.76115 221 166 178
-0.38916 -0.39612 0.76115 221 166 178
-0.38916 -0.39612 0.00718 221 166 178
-0.46434 0.62143 0.00718 221 166 178
-0.38916 0.68417 0.00718 221 166 178
-0.46434 0.62143 0.76115 221 166 178
0.38697 -0.39612 0.00718 221 166 178
0.38697 -0.39612 0.76115 221 166 178
0.38697 0.68417 0.00718 221 166 178
0.46434 -0.33077 0.00718 221 166 178
0.46434 -0.33077 0.76115 221 166 178
0.46434 0.62143 0.76115 221 166 178
0.46434 0.62143 0.00718 221 166 178
0.38697 0.68417 0.76115 221 166 178
-0.38916 0.68417 0.76115 221 166 178
-0.35025 0.64403 0.80277 221 166 178
0.34827 0.64403 0.80277 221 166 178
-0.41792 0.58491 0.80277 221 166 178
0.41789 0.58491 0.80277 221 166 178
0.41789 -0.29436 0.80277 221 166 178
0.34827 -0.35594 0.80277 221 166 178
-0.35025 -0.35594 0.80277 221 166 178
-0.41792 -0.29436 0.80277 221 166 178
0.34827 0.64403 0.80277 228 171 183
0.41789 0.58491 0.80277 228 171 183
-0.41792 0.58491 0.80277 228 171 183
-0.35025 0.64403 0.80277 228 171 183
-0.41792 -0.29436 0.80277 228 171 183
0.41789 -0.29436 0.80277 228 171 183
-0.35025 -0.35594 0.80277 228 171 183
0.34827 -0.35594 0.80277 228 171 183
0.22318 -0.68496 0.88211 221 166 178
0.25798 -0.70899 0.90917 221 166 178
0.25798 -0.70899 0.62691 221 166 178
0.22318 -0.68496 0.65396 221 166 178
0.22318 -0.53226 0.65396 221 166 178
0.25798 -0.50823 0.62691 221 166 178
0.22318 -0.53226 0.88211 221 166 178
0.32983 -0.70899 0.81994 221 166 178
0.32983 -0.70899 0.62691 221 166 178
0.32983 -0.50823 0.62691 221 166 178
0.44678 -0.70899 0.81994 221 166 178
0.51049 -0.70899 0.90917 221 166 178
0.51049 -0.70899 0.62691 221 166 178
0.54343 -0.68496 0.65396 221 166 178
0.54343 -0.68496 0.88211 221 166 178
0.54343 -0.53226 0.88211 221 166 178
0.54343 -0.53226 0.65396 221 166 178
0.51049 -0.50823 0.62691 221 166 178
0.44678 -0.70899 0.77616 221 166 178
0.3763 -0.70899 0.62691 221 166 178
0.3763 -0.50823 0.62691 221 166 178
0.3763 -0.70899 0.77616 221 166 178
0.51049 -0.50823 0.90917 221 166 178
0.25798 -0.50823 0.90917 221 166 178
0.22318 -0.68496 0.88211 228 171 183
0.22318 -0.53226 0.88211 228 171 183
0.25798 -0.50823 0.90917 228 171 183
0.25798 -0.70899 0.90917 228 171 183
0.51049 -0.70899 0.90917 228 171 183
0.51049 -0.50823 0.90917 228 171 183
0.54343 -0.68496 0.88211 228 171 183
0.54343 -0.53226 0.88211 228 171 183
0.32983 -0.70899 0.62691 167 126 135
0.3763 -0.70899 0.62691 167 126 135
0.3763 -0.50823 0.62691 167 126 135
0.32983 -0.50823 0.62691 167 126 135
0.3763 -0.70899 0.77616 167 126 135
0.32983 -0.70899 0.81994 167 126 135
0.44678 -0.70899 0.77616 167 126 135
0.44678 -0.70899 0.81994 167 126 135
-0.22318 -0.68496 0.88211 221 166 178
-0.22318 -0.68496 0.65396 221 166 178
-0.25798 -0.70899 0.62691 221 166 178
-0.25798 -0.70899 0.90917 221 166 178
-0.22318 -0.53226 0.65396 221 166 178
-0.25798 -0.50823 0.62691 221 166 178
-0.22318 -0.53226 0.88211 221 166 178
-0.32983 -0.70899 0.81994 221 166 178
-0.32983 -0.70899 0.62691 221 166 178
-0.32983 -0.50823 0.62691 221 166 178
-0.44678 -0.70899 0.81994 221 166 178
-0.51049 -0.70899 0.90917 221 166 178
-0.51049 -0.70899 0.62691 221 166 178
-0.54343 -0.68496 0.65396 221 166 178
-0.54343 -0.68496 0.88211 221 166 178
-0.54343 -0.53226 0.88211 221 166 178
-0.54343 -0.53226 0.65396 221 166 178
-0.51049 -0.50823 0.62691 221 166 178
-0.44678 -0.70899 0.77616 221 166 178
-0.3763 -0.70899 0.62691 221 166 178
-0.3763 -0.50823 0.62691 221 166 178
-0.3763 -0.70899 0.77616 221 166 178
-0.51049 -0.50823 0.90917 221 166 178
-0.25798 -0.50823 0.90917 221 166 178
-0.22318 -0.68496 0.88211 228 171 183
-0.25798 -0.70899 0.90917 228 171 183
-0.25798 -0.50823 0.90917 228 171 183
-0.22318 -0.53226 0.88211 228 171 183
-0.51049 -0.70899 0.90917 228 171 183
-0.51049 -0.50823 0.90917 228 171 183
-0.54343 -0.68496 0.88211 228 171 183
-0.54343 -0.53226 0.88211 228 171 183
-0.32983 -0.70899 0.62691 167 126 135
-0.32983 -0.50823 0.62691 167 126 135
-0.3763 -0.50823 0.62691 167 126 135
-0.3763 -0.70899 0.62691 167 126 135
-0.3763 -0.70899 0.77616 167 126 135
-0.32983 -0.70899 0.81994 167 126 135
-0.44678 -0.70899 0.77616 167 126 135
-0.44678 -0.70899 0.81994 167 126 135
0.41158 -0.81207 0.02364 221 166 178
0.41158 -0.81207 0.27642 221 166 178
0.46171 -0.8486 0.27642 221 166 178
0.46171 -0.8486 0.02364 221 166 178
0.41158 -0.11853 0.02364 221 166 178
0.41158 -0.11853 0.27642 221 166 178
0.65723 -0.8486 0.02364 221 166 178
0.65723 -0.8486 0.27642 221 166 178
0.70418 -0.81207 0.02364 221 166 178
0.70418 -0.81207 0.27642 221 166 178
0.70418 -0.11853 0.27642 221 166 178
0.70418 -0.11853 0.02364 221 166 178
0.43574 -0.78915 0.30212 221 166 178
0.43574 -0.14145 0.30212 221 166 178
0.47711 -0.82325 0.30212 221 166 178
0.64131 -0.82325 0.30212 221 166 178
0.68005 -0.78915 0.30212 221 166 178
0.68005 -0.14145 0.30212 221 166 178
0.64204 -0.82276 0 221 166 178
0.68116 -0.7887 0 221 166 178
0.4764 -0.82276 0 221 166 178
0.43462 -0.7887 0 221 166 178
0.43462 -0.1419 0 221 166 178
0.68116 -0.1419 0 221 166 178
0.65723 -0.08201 0.02364 221 166 178
0.65723 -0.08201 0.27642 221 166 178
0.46171 -0.08201 0.02364 221 166 178
0.46171 -0.08201 0.27642 221 166 178
0.47711 -0.10735 0.30212 221 166 178
0.64131 -0.10735 0.30212 221 166 178
0.4764 -0.10784 0 221 166 178
0.64204 -0.10784 0 221 166 178
0.68005 -0.78915 0.30212 228 171 183
0.64131 -0.82325 0.30212 228 171 183
0.47711 -0.82325 0.30212 228 171 183
0.43574 -0.78915 0.30212 228 171 183
0.68005 -0.14145 0.30212 228 171 183
0.43574 -0.14145 0.30212 228 171 183
0.47711 -0.10735 0.30212 228 171 183
0.64131 -0.10735 0.30212 228 171 183
-0.41158 -0.81207 0.02364 221 166 178
-0.46171 -0.8486 0.02364 221 166 178
-0.46171 -0.8486 0.27642 221 166 178
-0.41158 -0.81207 0.27642 221 166 178
-0.41158 -0.11853 0.02364 221 166 178
-0.41158 -0.11853 0.27642 221 166 178
-0.65723 -0.8486 0.02364 221 166 178
-0.65723 -0.8486 0.27642 221 166 178
-0.70418 -0.81207 0.02364 221 166 178
-0.70418 -0.81207 0.27642 221 166 178
-0.70418 -0.11853 0.27642 221 166 178
-0.70418 -0.11853 0.02364 221 166 178
-0.43574 -0.78915 0.30212 221 166 178
-0.43574 -0.14145 0.30212 221 166 178
-0.47711 -0.82325 0.30212 221 166 178
-0.64131 -0.82325 0.30212 221 166 178
-0.68005 -0.78915 0.30212 221 166 178
-0.68005 -0.14145 0.30212 221 166 178
-0.64204 -0.82276 0 221 166 178
-0.68116 -0.7887 0 221 166 178
-0.4764 -0.82276 0 221 166 178
-0.43462 -0.7887 0 221 166 178
-0.43462 -0.1419 0 221 166 178
-0.68116 -0.1419 0 221 166 178
-0.65723 -0.08201 0.02364 221 166 178
-0.65723 -0.08201 0.27642 221 166 178
-0.46171 -0.08201 0.02364 221 166 178
-0.46171 -0.08201 0.27642 221 166 178
-0.47711 -0.10735 0.30212 221 166 178
-0.64131 -0.10735 0.30212 221 166 178
-0.4764 -0.10784 0 221 166 178
-0.64204 -0.10784 0 221 166 178
-0.68005 -0.78915 0.30212 228 171 183
-0.43574 -0.78915 0.30212 228 171 183
-0.47711 -0.82325 0.30212 228 171 183
-0.64131 -0.82325 0.30212 228 171 183
-0.68005 -0.14145 0.30212 228 171 183
-0.43574 -0.14145 0.30212 228 171 183
-0.47711 -0.10735 0.30212 228 171 183
-0.64131 -0.10735 0.30212 228 171 183
0.20806 0.30963 0.02364 221 166 178
0.20806 0.30963 0.35974 221 166 178
0.25819 0.27311 0.35974 221 166 178
0.25819 0.27311 0.02364 221 166 178
0.20806 1.00318 0.02364 221 166 178
0.20806 1.00318 0.35974 221 166 178
0.53146 0.27311 0.02364 221 166 178
0.53146 0.27311 0.35974 221 166 178
0.5784 0.30963 0.02364 221 166 178
0.5784 0.30963 0.35974 221 166 178
0.5784 1.00318 0.35974 221 166 178
0.5784 1.00318 0.02364 221 166 178
0.2736 0.29845 0.38544 221 166 178
0.23223 0.33256 0.38544 221 166 178
0.23223 0.98025 0.38544 221 166 178
0.25819 1.0397 0.35974 221 166 178
0.25819 1.0397 0.02364 221 166 178
0.53146 1.0397 0.35974 221 166 178
0.53146 1.0397 0.02364 221 166 178
0.2736 1.01435 0.38544 221 166 178
0.55427 0.98025 0.38544 221 166 178
0.55427 0.33256 0.38544 221 166 178
0.51553 1.01435 0.38544 221 166 178
0.27289 1.01387 0.00341 221 166 178
0.23111 0.97981 0.00341 221 166 178
0.55538 0.97981 0.00341 221 166 178
0.51627 1.01387 0.00341 221 166 178
0.23111 0.333 0.00341 221 166 178
0.27289 0.29894 0.00341 221 166 178
0.55538 0.333 0.00341 221 166 178
0.51627 0.29894 0.00341 221 166 178
0.51553 0.29845 0.38544 221 166 178
0.55427 0.33256 0.38544 228 171 183
0.51553 0.29845 0.38544 228 171 183
0.2736 0.29845 0.38544 228 171 183
0.23223 0.33256 0.38544 228 171 183
0.55427 0.98025 0.38544 228 171 183
0.23223 0.98025 0.38544 228 171 183
0.2736 1.01435 0.38544 228 171 183
0.51553 1.01435 0.38544 228 171 183
0.50678 -0.88664 0.00303 234 235 238
0.50678 -0.88664 0.1062 234 235 238
0.60995 -0.88664 0.1062 234 235 238
0.60995 -0.88664 0.00303 234 235 238
0.50678 -0.8162 0.00303 234 235 238
0.60995 -0.8162 0.00303 234 235 238
0.60995 -0.8162 0.1062 234 235 238
0.50678 -0.8162 0.1062 234 235 238
0.50678 -0.88664 0.1062 244 245 248
0.50678 -0.8162 0.1062 244 245 248
0.60995 -0.8162 0.1062 244 245 248
0.60995 -0.88664 0.1062 244 245 248
-0.50678 -0.88664 0.00303 234 235 238
-0.60995 -0.88664 0.00303 234 235 238
-0.60995 -0.88664 0.1062 234 235 238
-0.50678 -0.88664 0.1062 234 235 238
-0.50678 -0.8162 0.00303 234 235 238
-0.60995 -0.8162 0.00303 234 235 238
-0.60995 -0.8162 0.1062 234 235 238
-0.50678 -0.8162 0.1062 234 235 238
-0.50678 -0.88664 0.1062 244 245 248
-0.60995 -0.88664 0.1062 244 245 248
-0.60995 -0.8162 0.1062 244 245 248
-0.50678 -0.8162 0.1062 244 245 248
-0.20806 0.30963 0.02364 221 166 178
-0.25819 0.27311 0.02364 221 166 178
-0.25819 0.27311 0.35974 221 166 178
-0.20806 0.30963 0.35974 221 166 178
-0.20806 1.00318 0.02364 221 166 178
-0.20806 1.00318 0.35974 221 166 178
-0.53146 0.27311 0.02364 221 166 178
-0.53146 0.27311 0.35974 221 166 178
-0.5784 0.30963 0.02364 221 166 178
-0.5784 0.30963 0.35974 221 166 178
-0.5784 1.00318 0.35974 221 166 178
-0.5784 1.00318 0.02364 221 166 178
-0.2736 0.29845 0.38544 221 166 178
-0.23223 0.33256 0.38544 221 166 178
-0.23223 0.98025 0.38544 221 166 178
-0.25819 1.0397 0.35974 221 166 178
-0.25819 1.0397 0.02364 221 166 178
-0.53146 1.0397 0.35974 221 166 178
-0.53146 1.0397 0.02364 221 166 178
-0.2736 1.01435 0.38544 221 166 178
-0.55427 0.98025 0.38544 221 166 178
-0.55427 0.33256 0.38544 221 166 178
-0.51553 1.01435 0.38544 221 166 178
-0.27289 1.01387 0.00341 221 166 178
-0.23111 0.97981 0.00341 221 166 178
-0.51627 1.01387 0.00341 221 166 178
-0.55538 0.97981 0.00341 221 166 178
-0.23111 0.333 0.00341 221 166 178
-0.27289 0.29894 0.00341 221 166 178
-0.55538 0.333 0.00341 221 166 178
-0.51627 0.29894 0.00341 221 166 178
-0.55427 0.33256 0.38544 228 171 183
-0.23223 0.33256 0.38544 228 171 183
-0.2736 0.29845 0.38544 228 171 183
-0.51553 0.29845 0.38544 228 171 183
-0.55427 0.98025 0.38544 228 171 183
-0.23223 0.98025 0.38544 228 171 183
-0.2736 1.01435 0.38544 228 171 183
-0.51553 1.01435 0.38544 228 171 183
-0.51553 0.29845 0.38544 221 166 178
0.34154 1.0147 0.11014 244 245 248
0.34154 1.07039 0.11014 244 245 248
0.44471 1.07039 0.11014 244 245 248
0.44471 1.0147 0.11014 244 245 248
0.34154 1.07039 0.11014 234 235 238
0.34154 1.07039 0.00697 234 235 238
0.44471 1.07039 0.00697 234 235 238
0.44471 1.07039 0.11014 234 235 238
0.44471 1.0147 0.00697 234 235 238
0.34154 1.0147 0.00697 234 235 238
0.44471 1.0147 0.11014 234 235 238
0.34154 1.0147 0.11014 234 235 238
-0.34154 1.0147 0.11014 244 245 248
-0.44471 1.0147 0.11014 244 245 248
-0.44471 1.07039 0.11014 244 245 248
-0.34154 1.07039 0.11014 244 245 248
-0.34154 1.07039 0.11014 234 235 238
-0.44471 1.07039 0.11014 234 235 238
-0.44471 1.07039 0.00697 234 235 238
-0.34154 1.07039 0.00697 234 235 238
-0.44471 1.0147 0.00697 234 235 238
-0.34154 1.0147 0.00697 234 235 238
-0.44471 1.0147 0.11014 234 235 238
-0.34154 1.0147 0.11014 234 235 238
-0.16761 0.51845 0.68363 228 171 183
-0.16761 0.79363 0.68363 228 171 183
0.16761 0.79363 0.68363 228 171 183
0.16761 0.51845 0.68363 228 171 183
0.16734 0.83398 0.72599 228 171 183
-0.16734 0.83398 0.72599 228 171 183
0.16761 1.14354 0.40826 221 166 178
-0.16761 1.14354 0.40826 221 166 178
-0.16761 1.08363 0.3484 221 166 178
0.16761 1.08363 0.3484 221 166 178
0.16761 0.51845 0.3484 221 166 178
0.16761 0.79363 0.68363 221 166 178
0.16761 0.51845 0.68363 221 166 178
-0.16761 0.51845 0.3484 221 166 178
-0.1665 1.14354 1.18729 221 166 178
0.1665 1.14354 1.18729 221 166 178
0.16734 0.83398 0.72599 221 166 178
0.16706 0.83398 0.90863 221 166 178
0.1665 0.79448 0.95056 221 166 178
0.16651 1.10561 1.23309 221 166 178
0.16651 0.83398 1.23309 221 166 178
0.16684 0.68988 1.23324 221 166 178
0.16684 0.68988 0.95015 221 166 178
-0.1665 0.79448 0.95056 221 166 178
-0.16659 0.68988 0.95015 221 166 178
-0.16706 0.83398 0.90863 221 166 178
-0.16734 0.83398 0.72599 221 166 178
-0.16761 0.79363 0.68363 221 166 178
-0.16761 0.51845 0.68363 221 166 178
-0.16651 1.10561 1.23309 221 166 178
-0.16651 0.83398 1.23309 221 166 178
-0.1666 0.68988 1.23324 221 166 178
-0.16651 0.83398 1.23309 228 171 183
-0.16651 1.10561 1.23309 228 171 183
0.16651 1.10561 1.23309 228 171 183
0.16651 0.83398 1.23309 228 171 183
0.1665 1.14354 1.18729 228 171 183
-0.1665 1.14354 1.18729 228 171 183
0.16684 0.68988 1.23324 228 171 183
-0.1666 0.68988 1.23324 228 171 183
-0.09131 0.37468 1.00329 248 236 239
-0.09131 0.37468 1.18105 248 236 239
0.09131 0.37468 1.18105 248 236 239
0.09131 0.37468 1.00329 248 236 239
-0.1191 0.40359 0.98275 248 236 239
0.1191 0.40359 0.98275 248 236 239
-0.16659 0.68988 0.95015 248 236 239
0.16684 0.68988 0.95015 248 236 239
0.1191 0.40359 1.20158 248 236 239
0.16684 0.68988 1.23324 248 236 239
-0.1666 0.68988 1.23324 248 236 239
-0.1191 0.40359 1.20158 248 236 239
0.16684 0.68988 1.23324 255 242 245
0.1191 0.40359 1.20158 255 242 245
-0.1191 0.40359 1.20158 255 242 245
-0.1666 0.68988 1.23324 255 242 245
0.09131 0.37468 1.18105 255 242 245
-0.09131 0.37468 1.18105 255 242 245
-0.28884 -0.82798 0.03129 211 199 174
-0.28881 -0.91886 0.03129 211 199 174
0.28881 -0.91886 0.03129 211 199 174
0.28884 -0.82798 0.03129 211 199 174
-0.30692 -0.94095 0.04987 211 199 174
0.30692 -0.94095 0.04987 211 199 174
0.30689 -0.82798 0.04987 211 199 174
-0.30689 -0.82798 0.04987 211 199 174
0.27533 -0.94095 0.07596 211 199 174
0.30692 -0.94095 0.23898 211 199 174
0.27533 -0.94095 0.22188 211 199 174
-0.27533 -0.94095 0.07596 211 199 174
-0.30692 -0.94095 0.23898 211 199 174
-0.27533 -0.94095 0.22188 211 199 174
0.27533 -0.89785 0.07596 150 121 131
0.24243 -0.89785 0.19501 150 121 131
0.27533 -0.89785 0.22188 150 121 131
0.27533 -0.94095 0.07596 150 121 131
0.27533 -0.94095 0.22188 150 121 131
-0.24243 -0.89785 0.19501 150 121 131
0.24243 -1.00546 0.19501 150 121 131
-0.24243 -1.00546 0.19501 150 121 131
-0.27533 -0.89785 0.07596 150 121 131
-0.27533 -0.89785 0.22188 150 121 131
-0.27533 -0.94095 0.07596 150 121 131
-0.27533 -0.94095 0.22188 150 121 131
0.30689 -0.82798 0.3413 211 199 174
0.30692 -1.01185 0.34131 211 199 174
0.28111 -0.82798 0.3673 211 199 174
0.2811 -0.98719 0.36731 211 199 174
0.30692 -1.01172 0.23898 211 199 174
0.27534 -1.00546 0.22188 211 199 174
0.27534 -1.03632 0.23898 211 199 174
0.2752 -1.03645 0.34131 211 199 174
0.24243 -1.03632 0.21211 211 199 174
0.24243 -1.00546 0.19501 211 199 174
0 -1.03632 0.21211 211 199 174
0.25844 -1.01189 0.36731 211 199 174
0.04235 -1.03635 0.23788 211 199 174
0.04215 -1.03641 0.27856 211 199 174
0.02692 -1.03641 0.27856 211 199 174
0 -1.03645 0.34131 211 199 174
-0.02692 -1.03641 0.27856 211 199 174
-0.2752 -1.03645 0.34131 211 199 174
-0.25844 -1.01189 0.36731 211 199 174
-0.2811 -0.98719 0.36731 211 199 174
-0.30692 -1.01185 0.34131 211 199 174
-0.30692 -1.01172 0.23898 211 199 174
-0.27534 -1.03632 0.23898 211 199 174
-0.27534 -1.00546 0.22188 211 199 174
-0.24243 -1.03632 0.21211 211 199 174
-0.24243 -1.00546 0.19501 211 199 174
-0.04215 -1.03641 0.27856 211 199 174
-0.04235 -1.03635 0.23788 211 199 174
-0.02692 -1.03635 0.23788 211 199 174
0.02692 -1.03635 0.23788 211 199 174
-0.30689 -0.82798 0.3413 211 199 174
-0.28111 -0.82798 0.3673 211 199 174
0.2811 -0.98719 0.36731 217 204 179
0.25844 -1.01189 0.36731 217 204 179
-0.25844 -1.01189 0.36731 217 204 179
-0.2811 -0.98719 0.36731 217 204 179
-0.28111 -0.82798 0.3673 217 204 179
0.28111 -0.82798 0.3673 217 204 179
0.27534 -1.00546 0.22188 150 121 131
-0.27534 -1.00546 0.22188 150 121 131
-0.17811 -0.92313 0.07227 170 137 151
-0.17811 -0.92313 0.13295 170 137 151
0.17811 -0.92313 0.13295 170 137 151
0.17811 -0.92313 0.07227 170 137 151
0.17811 -0.89153 0.13295 170 137 151
-0.17811 -0.89153 0.13295 170 137 151
0.17811 -0.89153 0.07227 170 137 151
-0.17811 -0.89153 0.07227 170 137 151
0.15782 -1.001 0.17545 234 235 238
0.15782 -1.001 0.1966 234 235 238
0.21391 -1.001 0.1966 234 235 238
0.21391 -1.001 0.17545 234 235 238
0.15782 -0.96834 0.17545 234 235 238
0.21391 -0.96834 0.17545 234 235 238
0.21391 -0.96834 0.1966 234 235 238
0.15782 -0.96834 0.1966 234 235 238
-0.15782 -1.001 0.17545 234 235 238
-0.21391 -1.001 0.17545 234 235 238
-0.21391 -1.001 0.1966 234 235 238
-0.15782 -1.001 0.1966 234 235 238
-0.15782 -0.96834 0.17545 234 235 238
-0.21391 -0.96834 0.17545 234 235 238
-0.21391 -0.96834 0.1966 234 235 238
-0.15782 -0.96834 0.1966 234 235 238
0.02692 -1.02696 0.23789 183 172 151
0.02692 -1.02703 0.27857 183 172 151
0.04215 -1.02703 0.27857 183 172 151
0.04235 -1.02696 0.23789 183 172 151
0.02692 -1.03635 0.23788 183 172 151
0.04235 -1.03635 0.23788 183 172 151
0.02692 -1.03641 0.27856 183 172 151
-0.04235 -1.02696 0.23789 183 172 151
-0.04215 -1.02703 0.27857 183 172 151
-0.02692 -1.02703 0.27857 183 172 151
-0.02692 -1.02696 0.23789 183 172 151
-0.04235 -1.03635 0.23788 183 172 151
-0.02692 -1.03635 0.23788 183 172 151
-0.02692 -1.03641 0.27856 183 172 151
0.04215 -1.03641 0.27856 183 172 151
-0.04215 -1.03641 0.27856 183 172 151
3 0 2 1
3 0 3 2
3 4 0 1
3 4 1 5
3 2 3 6
3 2 6 7
3 7 6 8
3 7 8 9
3 8 10 9
3 8 11 10
3 5 1 12
3 5 12 13
3 1 14 12
3 1 2 14
3 2 15 14
3 2 7 15
3 7 16 15
3 7 9 16
3 9 17 16
3 9 10 17
3 6 3 18
3 6 18 19
3 8 6 19
3 11 8 20
3 8 19 20
3 11 20 21
3 19 22 20
3 19 18 22
3 3 22 18
3 3 0 22
3 0 23 22
3 20 23 21
3 20 22 23
3 0 4 23
3 24 26 25
3 24 27 26
3 28 27 24
3 28 29 27
3 30 32 31
3 30 33 32
3 34 36 35
3 34 37 36
3 38 36 37
3 38 39 36
3 40 34 35
3 40 41 34
3 41 38 42
3 41 42 43
3 34 41 43
3 38 44 42
3 38 37 44
3 37 45 44
3 37 34 45
3 34 43 45
3 46 48 47
3 46 49 48
3 50 52 51
3 50 53 52
3 54 51 52
3 54 52 55
3 56 53 50
3 56 50 57
3 57 58 54
3 57 59 58
3 50 59 57
3 54 60 51
3 54 58 60
3 51 61 50
3 51 60 61
3 50 61 59
3 62 64 63
3 62 65 64
3 66 65 62
3 66 62 63
3 66 67 65
3 66 63 68
3 64 65 69
3 64 69 70
3 65 71 69
3 65 67 71
3 70 69 72
3 70 72 73
3 72 74 73
3 72 75 74
3 69 75 72
3 69 71 75
3 71 74 75
3 71 76 74
3 67 76 71
3 67 77 76
3 68 77 67
3 68 67 66
3 76 77 78
3 76 78 79
3 74 76 79
3 77 80 78
3 77 68 80
3 73 74 81
3 73 81 82
3 70 73 82
3 70 82 83
3 64 70 83
3 64 83 84
3 63 64 84
3 63 84 85
3 68 63 85
3 68 85 80
3 74 79 81
3 86 88 87
3 86 89 88
3 87 88 90
3 87 90 91
3 91 90 92
3 91 92 93
3 94 96 95
3 94 97 96
3 98 96 97
3 98 99 96
3 100 97 94
3 100 98 97
3 101 95 96
3 101 96 102
3 96 103 102
3 96 99 103
3 95 101 104
3 95 104 105
3 106 105 104
3 107 105 106
3 107 108 105
3 107 109 108
3 107 110 109
3 106 110 107
3 106 111 110
3 106 104 112
3 113 106 112
3 113 111 106
3 113 114 111
3 113 112 115
3 114 116 111
3 109 111 116
3 109 110 111
3 116 114 117
3 117 114 103
3 117 103 99
3 100 117 99
3 100 99 98
3 118 120 119
3 118 121 120
3 120 121 122
3 120 122 123
3 123 122 124
3 123 124 125
3 126 128 127
3 126 129 128
3 130 126 127
3 130 131 126
3 131 130 132
3 131 132 133
3 134 136 135
3 134 137 136
3 138 135 136
3 138 136 139
3 140 135 138
3 140 134 135
3 141 136 137
3 141 142 136
3 136 143 139
3 136 142 143
3 137 144 141
3 137 145 144
3 146 144 145
3 147 146 145
3 147 145 148
3 147 148 149
3 147 149 150
3 146 147 150
3 146 150 151
3 146 152 144
3 153 152 146
3 153 146 151
3 153 151 154
3 153 155 152
3 156 154 151
3 149 156 151
3 149 151 150
3 156 143 154
3 157 143 156
3 143 157 139
3 140 139 157
3 140 138 139
3 158 160 159
3 158 161 160
3 160 162 159
3 160 163 162
3 163 164 162
3 163 165 164
3 166 168 167
3 166 169 168
3 170 169 166
3 170 166 171
3 171 172 170
3 171 173 172
3 174 176 175
3 174 177 176
3 178 174 175
3 178 175 179
3 176 177 180
3 176 180 181
3 181 180 182
3 181 182 183
3 182 184 183
3 182 185 184
3 179 175 186
3 179 186 187
3 175 188 186
3 175 176 188
3 176 189 188
3 176 181 189
3 181 190 189
3 181 183 190
3 183 191 190
3 183 184 191
3 182 180 192
3 182 192 193
3 194 193 192
3 180 194 192
3 194 195 193
3 177 195 194
3 177 174 195
3 174 196 195
3 174 178 196
3 180 177 194
3 193 195 196
3 193 196 197
3 185 193 197
3 198 185 197
3 198 184 185
3 198 199 184
3 200 199 198
3 200 201 199
3 179 201 200
3 179 200 178
3 201 179 187
3 201 187 202
3 199 201 202
3 184 199 203
3 199 202 203
3 184 203 191
3 178 204 196
3 178 200 204
3 197 196 204
3 200 205 204
3 200 198 205
3 198 197 205
3 197 204 205
3 185 182 193
3 206 208 207
3 206 209 208
3 210 209 206
3 210 211 209
3 212 211 210
3 212 210 213
3 214 216 215
3 214 217 216
3 218 217 214
3 218 219 217
3 216 220 215
3 216 221 220
3 221 222 220
3 221 223 222
3 222 223 224
3 222 224 225
3 219 226 217
3 219 227 226
3 217 228 216
3 217 226 228
3 216 229 221
3 216 228 229
3 221 230 223
3 221 229 230
3 223 231 224
3 223 230 231
3 222 232 220
3 222 233 232
3 234 232 233
3 220 232 234
3 234 233 235
3 215 234 235
3 215 235 214
3 214 235 236
3 214 236 218
3 220 234 215
3 235 237 236
3 235 233 237
3 225 233 222
3 225 237 233
3 238 237 225
3 238 225 224
3 238 224 239
3 240 238 239
3 240 239 241
3 219 240 241
3 219 218 240
3 241 227 219
3 241 242 227
3 239 242 241
3 224 243 239
3 239 243 242
3 224 231 243
3 218 244 240
3 218 236 244
3 240 245 238
3 240 244 245
3 238 245 237
3 236 245 244
3 236 237 245
3 246 248 247
3 246 249 248
3 250 246 247
3 250 247 251
3 252 250 251
3 252 253 250
3 254 256 255
3 254 257 256
3 258 254 255
3 258 255 259
3 256 257 260
3 256 260 261
3 261 260 262
3 261 262 263
3 262 264 263
3 262 265 264
3 255 256 266
3 255 266 267
3 259 255 267
3 259 267 268
3 269 259 268
3 259 269 270
3 259 270 258
3 270 269 271
3 270 271 272
3 272 271 264
3 272 264 265
3 269 268 273
3 271 269 273
3 263 264 274
3 263 274 275
3 264 271 276
3 271 273 276
3 264 276 274
3 258 270 277
3 258 277 278
3 279 278 277
3 272 265 279
3 279 277 280
3 270 280 277
3 270 272 280
3 272 279 280
3 254 258 278
3 254 278 281
3 257 254 281
3 257 281 282
3 265 283 279
3 282 281 283
3 283 278 279
3 283 281 278
3 265 262 283
3 262 284 283
3 282 283 284
3 262 260 284
3 260 282 284
3 260 257 282
3 261 275 285
3 256 261 285
3 256 285 266
3 261 263 275
3 286 288 287
3 286 289 288
3 290 289 286
3 290 291 289
3 292 291 290
3 292 290 293
3 294 296 295
3 294 297 296
3 298 297 294
3 298 294 295
3 298 299 297
3 297 300 296
3 297 299 300
3 298 295 301
3 302 304 303
3 302 305 304
3 306 308 307
3 306 309 308
3 310 306 307
3 310 309 306
3 310 307 311
3 307 312 311
3 307 308 312
3 310 313 309
3 314 316 315
3 314 317 316
3 318 320 319
3 318 321 320
3 322 321 318
3 322 323 321
3 320 324 319
3 320 325 324
3 325 326 324
3 325 327 326
3 326 327 328
3 326 328 329
3 321 330 320
3 321 331 330
3 323 331 321
3 323 332 331
3 333 332 323
3 323 334 333
3 323 322 334
3 334 335 333
3 334 336 335
3 336 328 335
3 336 329 328
3 333 337 332
3 335 337 333
3 327 338 328
3 327 339 338
3 328 340 335
3 335 340 337
3 328 338 340
3 322 341 334
3 322 342 341
3 342 343 341
3 334 343 336
3 334 341 343
3 342 344 343
3 336 344 329
3 336 343 344
3 318 342 322
3 318 345 342
3 319 345 318
3 319 346 345
3 329 344 347
3 346 347 345
3 329 347 326
3 326 347 348
3 346 348 347
3 326 348 324
3 324 346 319
3 324 348 346
3 345 347 344
3 345 344 342
3 349 351 350
3 349 352 351
3 353 349 350
3 353 350 354
3 355 353 354
3 355 356 353
3 320 357 325
3 320 330 357
3 325 357 339
3 325 339 327
3 358 360 359
3 358 361 360
3 362 364 363
3 362 365 364
3 363 364 366
3 366 364 365
3 363 366 367
3 366 365 368
3 363 369 362
3 363 367 369
3 370 372 371
3 370 373 372
3 374 376 375
3 374 377 376
3 377 378 376
3 378 375 376
3 377 379 378
3 378 380 375
3 377 381 379
3 377 374 381
3 382 384 383
3 382 385 384
3 383 384 386
3 383 386 387
3 388 390 389
3 388 391 390
3 390 391 392
3 392 391 393
3 388 393 391
3 392 393 394
3 390 392 395
3 388 389 396
3 388 396 397
3 398 388 397
3 388 398 393
3 398 397 399
3 400 399 397
3 400 397 401
3 400 401 402
3 400 402 403
3 400 403 404
3 405 400 404
3 405 404 406
3 407 400 405
3 407 399 400
3 389 409 408
3 389 390 409
3 409 390 395
3 409 395 410
3 389 408 407
3 408 399 407
3 408 398 399
3 389 407 396
3 396 407 405
3 396 405 411
3 411 405 412
3 412 405 406
3 412 406 413
3 414 416 415
3 414 417 416
3 418 415 416
3 418 419 415
3 417 421 420
3 417 414 421
3 422 424 423
3 422 425 424
3 426 425 422
3 426 427 425
3 427 424 425
3 428 427 426
3 428 429 427
3 429 430 427
3 427 430 424
3 429 431 430
3 432 428 426
3 432 426 433
3 433 422 423
3 433 426 422
3 434 436 435
3 434 437 436
3 435 439 438
3 435 436 439
3 440 442 441
3 440 443 442
3 442 444 441
3 440 441 444
3 442 445 444
3 443 445 442
3 443 446 445
3 440 444 447
3 448 444 445
3 449 448 445
3 449 450 448
3 448 451 444
3 452 444 451
3 452 451 453
3 454 456 455
3 457 456 454
3 457 458 456
3 458 455 456
3 454 455 459
3 459 455 460
3 459 460 461
3 454 459 462
3 462 459 463
3 464 462 463
3 454 464 457
3 454 462 464
3 464 463 465
3 465 463 459
3 466 467 449
3 468 467 466
3 468 469 467
3 466 449 445
3 466 445 446
3 449 467 470
3 470 450 449
3 470 471 450
3 472 471 470
3 473 472 470
3 473 470 467
3 474 471 472
3 473 474 472
3 474 475 471
3 474 476 475
3 469 473 467
3 469 477 473
3 473 478 474
3 473 479 478
3 473 480 479
3 473 481 480
3 477 481 473
3 482 480 481
3 483 482 481
3 484 483 481
3 484 481 477
3 485 483 484
3 485 486 483
3 483 486 487
3 483 487 488
3 488 487 489
3 490 488 489
3 490 483 488
3 490 489 491
3 490 492 483
3 483 492 482
3 490 493 492
3 476 493 490
3 491 476 490
3 476 494 493
3 494 480 482
3 494 495 480
3 476 495 494
3 474 495 476
3 474 478 495
3 475 476 491
3 487 453 489
3 487 452 453
3 486 452 487
3 496 452 486
3 497 496 486
3 497 486 485
3 496 444 452
3 496 447 444
3 498 500 499
3 498 501 500
3 498 502 501
3 498 503 502
3 458 504 460
3 458 460 455
3 465 461 505
3 465 459 461
3 506 508 507
3 506 509 508
3 507 508 510
3 509 510 508
3 507 510 511
3 509 512 510
3 513 507 511
3 513 506 507
3 514 516 515
3 514 517 516
3 518 517 514
3 518 514 515
3 518 519 517
3 517 520 516
3 517 519 520
3 518 515 521
3 521 519 518
3 521 520 519
3 522 524 523
3 522 525 524
3 526 522 523
3 526 525 522
3 526 523 527
3 523 528 527
3 523 524 528
3 526 529 525
3 529 527 528
3 529 526 527
3 530 532 531
3 530 533 532
3 534 533 530
3 534 535 533
3 536 530 531
3 536 534 530
3 537 539 538
3 537 540 539
3 541 540 537
3 541 542 540
3 542 539 540
3 542 543 539
3 535 532 533
3 535 544 532
3 544 531 532
3 544 536 531
3 543 538 539
3 543 545 538
3 545 537 538
3 545 541 537
