ply
format ascii 1.0
element vertex 542
property float x
property float y
property float z
property uchar red
property uchar green
property uchar blue
element face 682
property list uchar int vertex_index
end_header
-0.42331 -0.79897 0.05691 217 193 204
-0.42331 -0.79897 0.66998 217 193 204
-0.35085 -0.86274 0.66998 217 193 204
-0.35085 -0.86274 0.05691 217 193 204
-0.42331 -0.28281 0.05691 217 193 204
-0.42331 -0.28281 0.66998 217 193 204
0.34716 -0.86274 0.05691 217 193 204
0.34716 -0.86274 0.66998 217 193 204
0.42331 -0.79897 0.05691 217 193 204
0.42331 -0.79897 0.66998 217 193 204
0.42331 -0.28281 0.66998 217 193 204
0.42331 -0.28281 0.05691 217 193 204
-0.38412 -0.76271 0.72179 217 193 204
-0.38412 -0.28276 0.72179 217 193 204
-0.31817 -0.82074 0.72179 217 193 204
0.31478 -0.82074 0.72179 217 193 204
0.38408 -0.76271 0.72179 217 193 204
0.38408 -0.28276 0.72179 217 193 204
-0.32664 -0.83163 0.0251 217 193 204
0.32317 -0.83163 0.0251 217 193 204
0.39425 -0.77211 0.0251 217 193 204
0.39425 -0.28267 0.0251 217 193 204
-0.39428 -0.77211 0.0251 217 193 204
-0.39428 -0.28267 0.0251 217 193 204
0.38408 -0.76271 0.72179 223 198 209
0.31478 -0.82074 0.72179 223 198 209
-0.31817 -0.82074 0.72179 223 198 209
-0.38412 -0.76271 0.72179 223 198 209
0.38408 -0.28276 0.72179 223 198 209
-0.38412 -0.28276 0.72179 223 198 209
0.16726 -0.88091 0.46787 50 50 51
0.16726 -0.88091 0.49702 50 50 51
0.19689 -0.88091 0.49702 50 50 51
0.19689 -0.88091 0.46787 50 50 51
0.10591 -0.88091 0.54201 244 245 248
0.10591 -0.85806 0.54201 244 245 248
0.27798 -0.85806 0.54201 244 245 248
0.27798 -0.88091 0.54201 244 245 248
0.27798 -0.88091 0.36354 244 245 248
0.27798 -0.85806 0.36354 244 245 248
0.10591 -0.85806 0.36354 244 245 248
0.10591 -0.88091 0.36354 244 245 248
0.19689 -0.88091 0.46787 244 245 248
0.16726 -0.88091 0.46787 244 245 248
0.19689 -0.88091 0.49702 244 245 248
0.16726 -0.88091 0.49702 244 245 248
-0.16726 -0.88091 0.46787 50 50 51
-0.19689 -0.88091 0.46787 50 50 51
-0.19689 -0.88091 0.49702 50 50 51
-0.16726 -0.88091 0.49702 50 50 51
-0.10591 -0.88091 0.54201 244 245 248
-0.27798 -0.88091 0.54201 244 245 248
-0.27798 -0.85806 0.54201 244 245 248
-0.10591 -0.85806 0.54201 244 245 248
-0.27798 -0.88091 0.36354 244 245 248
-0.27798 -0.85806 0.36354 244 245 248
-0.10591 -0.85806 0.36354 244 245 248
-0.10591 -0.88091 0.36354 244 245 248
-0.19689 -0.88091 0.46787 244 245 248
-0.16726 -0.88091 0.46787 244 245 248
-0.19689 -0.88091 0.49702 244 245 248
-0.16726 -0.88091 0.49702 244 245 248
-0.46434 -0.33077 0.00718 217 193 204
-0.46434 -0.33077 0.76115 217 193 204
-0.38916 -0.39612 0.76115 217 193 204
-0.38916 -0.39612 0.00718 217 193 204
-0.46434 0.62143 0.00718 217 193 204
-0.38916 0.68417 0.00718 217 193 204
-0.46434 0.62143 0.76115 217 193 204
0.38697 -0.39612 0.00718 217 193 204
0.38697 -0.39612 0.76115 217 193 204
0.38697 0.68417 0.00718 217 193 204
0.46434 -0.33077 0.00718 217 193 204
0.46434 -0.33077 0.76115 217 193 204
0.46434 0.62143 0.76115 217 193 204
0.46434 0.62143 0.00718 217 193 204
0.38697 0.68417 0.76115 217 193 204
-0.38916 0.68417 0.76115 217 193 204
-0.35025 0.64403 0.80277 217 193 204
0.34827 0.64403 0.80277 217 193 204
-0.41792 0.58491 0.80277 217 193 204
0.41789 0.58491 0.80277 217 193 204
0.41789 -0.29436 0.80277 217 193 204
0.34827 -0.35594 0.80277 217 193 204
-0.35025 -0.35594 0.80277 217 193 204
-0.41792 -0.29436 0.80277 217 193 204
0.34827 0.64403 0.80277 223 198 209
0.41789 0.58491 0.80277 223 198 209
-0.41792 0.58491 0.80277 223 198 209
-0.35025 0.64403 0.80277 223 198 209
-0.41792 -0.29436 0.80277 223 198 209
0.41789 -0.29436 0.80277 223 198 209
-0.35025 -0.35594 0.80277 223 198 209
0.34827 -0.35594 0.80277 223 198 209
0.22318 -0.68496 0.88211 217 193 204
0.25798 -0.70899 0.90917 217 193 204
0.25798 -0.70899 0.62691 217 193 204
0.22318 -0.68496 0.65396 217 193 204
0.22318 -0.53226 0.65396 217 193 204
0.25798 -0.50823 0.62691 217 193 204
0.22318 -0.53226 0.88211 217 193 204
0.32983 -0.70899 0.81994 217 193 204
0.32983 -0.70899 0.62691 217 193 204
0.32983 -0.50823 0.62691 217 193 204
0.3763 -0.50823 0.62691 217 193 204
0.3763 -0.70899 0.62691 217 193 204
0.44678 -0.70899 0.81994 217 193 204
0.51049 -0.70899 0.90917 217 193 204
0.51049 -0.70899 0.62691 217 193 204
0.54343 -0.68496 0.65396 217 193 204
0.54343 -0.68496 0.88211 217 193 204
0.54343 -0.53226 0.88211 217 193 204
0.54343 -0.53226 0.65396 217 193 204
0.51049 -0.50823 0.62691 217 193 204
0.44678 -0.70899 0.77616 217 193 204
0.3763 -0.70899 0.77616 217 193 204
0.51049 -0.50823 0.90917 217 193 204
0.25798 -0.50823 0.90917 217 193 204
0.22318 -0.68496 0.88211 223 198 209
0.22318 -0.53226 0.88211 223 198 209
0.25798 -0.50823 0.90917 223 198 209
0.25798 -0.70899 0.90917 223 198 209
0.51049 -0.70899 0.90917 223 198 209
0.51049 -0.50823 0.90917 223 198 209
0.54343 -0.68496 0.88211 223 198 209
0.54343 -0.53226 0.88211 223 198 209
0.32983 -0.70899 0.81994 169 150 159
0.44678 -0.70899 0.81994 169 150 159
0.44678 -0.70899 0.77616 169 150 159
0.3763 -0.70899 0.77616 169 150 159
0.32983 -0.70899 0.62691 169 150 159
0.3763 -0.70899 0.62691 169 150 159
-0.22318 -0.68496 0.88211 217 193 204
-0.22318 -0.68496 0.65396 217 193 204
-0.25798 -0.70899 0.62691 217 193 204
-0.25798 -0.70899 0.90917 217 193 204
-0.22318 -0.53226 0.65396 217 193 204
-0.25798 -0.50823 0.62691 217 193 204
-0.22318 -0.53226 0.88211 217 193 204
-0.32983 -0.70899 0.81994 217 193 204
-0.32983 -0.70899 0.62691 217 193 204
-0.32983 -0.50823 0.62691 217 193 204
-0.3763 -0.50823 0.62691 217 193 204
-0.3763 -0.70899 0.62691 217 193 204
-0.44678 -0.70899 0.81994 217 193 204
-0.51049 -0.70899 0.90917 217 193 204
-0.51049 -0.70899 0.62691 217 193 204
-0.54343 -0.68496 0.65396 217 193 204
-0.54343 -0.68496 0.88211 217 193 204
-0.54343 -0.53226 0.88211 217 193 204
-0.54343 -0.53226 0.65396 217 193 204
-0.51049 -0.50823 0.62691 217 193 204
-0.44678 -0.70899 0.77616 217 193 204
-0.3763 -0.70899 0.77616 217 193 204
-0.51049 -0.50823 0.90917 217 193 204
-0.25798 -0.50823 0.90917 217 193 204
-0.22318 -0.68496 0.88211 223 198 209
-0.25798 -0.70899 0.90917 223 198 209
-0.25798 -0.50823 0.90917 223 198 209
-0.22318 -0.53226 0.88211 223 198 209
-0.51049 -0.70899 0.90917 223 198 209
-0.51049 -0.50823 0.90917 223 198 209
-0.54343 -0.68496 0.88211 223 198 209
-0.54343 -0.53226 0.88211 223 198 209
-0.32983 -0.70899 0.81994 169 150 159
-0.3763 -0.70899 0.77616 169 150 159
-0.44678 -0.70899 0.77616 169 150 159
-0.44678 -0.70899 0.81994 169 150 159
-0.32983 -0.70899 0.62691 169 150 159
-0.3763 -0.70899 0.62691 169 150 159
0.41158 -0.81207 0.02364 217 193 204
0.41158 -0.81207 0.27642 217 193 204
0.46171 -0.8486 0.27642 217 193 204
0.46171 -0.8486 0.02364 217 193 204
0.41158 -0.11853 0.02364 217 193 204
0.41158 -0.11853 0.27642 217 193 204
0.65723 -0.8486 0.02364 217 193 204
0.65723 -0.8486 0.27642 217 193 204
0.70418 -0.81207 0.02364 217 193 204
0.70418 -0.81207 0.27642 217 193 204
0.70418 -0.11853 0.27642 217 193 204
0.70418 -0.11853 0.02364 217 193 204
0.43574 -0.78915 0.30212 217 193 204
0.43574 -0.14145 0.30212 217 193 204
0.47711 -0.82325 0.30212 217 193 204
0.64131 -0.82325 0.30212 217 193 204
0.68005 -0.78915 0.30212 217 193 204
0.68005 -0.14145 0.30212 217 193 204
0.64204 -0.82276 0 217 193 204
0.68116 -0.7887 0 217 193 204
0.4764 -0.82276 0 217 193 204
0.43462 -0.7887 0 217 193 204
0.43462 -0.1419 0 217 193 204
0.68116 -0.1419 0 217 193 204
0.65723 -0.08201 0.02364 217 193 204
0.65723 -0.08201 0.27642 217 193 204
0.46171 -0.08201 0.02364 217 193 204
0.46171 -0.08201 0.27642 217 193 204
0.47711 -0.10735 0.30212 217 193 204
0.64131 -0.10735 0.30212 217 193 204
0.4764 -0.10784 0 217 193 204
0.64204 -0.10784 0 217 193 204
0.68005 -0.78915 0.30212 223 198 209
0.64131 -0.82325 0.30212 223 198 209
0.47711 -0.82325 0.30212 223 198 209
0.43574 -0.78915 0.30212 223 198 209
0.68005 -0.14145 0.30212 223 198 209
0.43574 -0.14145 0.30212 223 198 209
0.47711 -0.10735 0.30212 223 198 209
0.64131 -0.10735 0.30212 223 198 209
-0.41158 -0.81207 0.02364 217 193 204
-0.46171 -0.8486 0.02364 217 193 204
-0.46171 -0.8486 0.27642 217 193 204
-0.41158 -0.81207 0.27642 217 193 204
-0.41158 -0.11853 0.02364 217 193 204
-0.41158 -0.11853 0.27642 217 193 204
-0.65723 -0.8486 0.02364 217 193 204
-0.65723 -0.8486 0.27642 217 193 204
-0.70418 -0.81207 0.02364 217 193 204
-0.70418 -0.81207 0.27642 217 193 204
-0.70418 -0.11853 0.27642 217 193 204
-0.70418 -0.11853 0.02364 217 193 204
-0.43574 -0.78915 0.30212 217 193 204
-0.43574 -0.14145 0.30212 217 193 204
-0.47711 -0.82325 0.30212 217 193 204
-0.64131 -0.82325 0.30212 217 193 204
-0.68005 -0.78915 0.30212 217 193 204
-0.68005 -0.14145 0.30212 217 193 204
-0.64204 -0.82276 0 217 193 204
-0.68116 -0.7887 0 217 193 204
-0.4764 -0.82276 0 217 193 204
-0.43462 -0.7887 0 217 193 204
-0.43462 -0.1419 0 217 193 204
-0.68116 -0.1419 0 217 193 204
-0.65723 -0.08201 0.02364 217 193 204
-0.65723 -0.08201 0.27642 217 193 204
-0.46171 -0.08201 0.02364 217 193 204
-0.46171 -0.08201 0.27642 217 193 204
-0.47711 -0.10735 0.30212 217 193 204
-0.64131 -0.10735 0.30212 217 193 204
-0.4764 -0.10784 0 217 193 204
-0.64204 -0.10784 0 217 193 204
-0.68005 -0.78915 0.30212 223 198 209
-0.43574 -0.78915 0.30212 223 198 209
-0.47711 -0.82325 0.30212 223 198 209
-0.64131 -0.82325 0.30212 223 198 209
-0.68005 -0.14145 0.30212 223 198 209
-0.43574 -0.14145 0.30212 223 198 209
-0.47711 -0.10735 0.30212 223 198 209
-0.64131 -0.10735 0.30212 223 198 209
0.20806 0.30963 0.02364 217 193 204
0.20806 0.30963 0.35974 217 193 204
0.25819 0.27311 0.35974 217 193 204
0.25819 0.27311 0.02364 217 193 204
0.20806 1.00318 0.02364 217 193 204
0.20806 1.00318 0.35974 217 193 204
0.53146 0.27311 0.02364 217 193 204
0.53146 0.27311 0.35974 217 193 204
0.5784 0.30963 0.02364 217 193 204
0.5784 0.30963 0.35974 217 193 204
0.5784 1.00318 0.35974 217 193 204
0.5784 1.00318 0.02364 217 193 204
0.2736 0.29845 0.38544 217 193 204
0.23223 0.33256 0.38544 217 193 204
0.23223 0.98025 0.38544 217 193 204
0.25819 1.0397 0.35974 217 193 204
0.25819 1.0397 0.02364 217 193 204
0.53146 1.0397 0.35974 217 193 204
0.53146 1.0397 0.02364 217 193 204
0.2736 1.01435 0.38544 217 193 204
0.55427 0.98025 0.38544 217 193 204
0.55427 0.33256 0.38544 217 193 204
0.51553 1.01435 0.38544 217 193 204
0.27289 1.01387 0.00341 217 193 204
0.23111 0.97981 0.00341 217 193 204
0.55538 0.97981 0.00341 217 193 204
0.51627 1.01387 0.00341 217 193 204
0.23111 0.333 0.00341 217 193 204
0.27289 0.29894 0.00341 217 193 204
0.55538 0.333 0.00341 217 193 204
0.51627 0.29894 0.00341 217 193 204
0.51553 0.29845 0.38544 217 193 204
0.55427 0.33256 0.38544 223 198 209
0.51553 0.29845 0.38544 223 198 209
0.2736 0.29845 0.38544 223 198 209
0.23223 0.33256 0.38544 223 198 209
0.55427 0.98025 0.38544 223 198 209
0.23223 0.98025 0.38544 223 198 209
0.2736 1.01435 0.38544 223 198 209
0.51553 1.01435 0.38544 223 198 209
0.50678 -0.88664 0.00303 234 235 238
0.50678 -0.88664 0.1062 234 235 238
0.60995 -0.88664 0.1062 234 235 238
0.60995 -0.88664 0.00303 234 235 238
0.50678 -0.8162 0.00303 234 235 238
0.60995 -0.8162 0.00303 234 235 238
0.60995 -0.8162 0.1062 234 235 238
0.50678 -0.8162 0.1062 234 235 238
0.50678 -0.88664 0.1062 244 245 248
0.50678 -0.8162 0.1062 244 245 248
0.60995 -0.8162 0.1062 244 245 248
0.60995 -0.88664 0.1062 244 245 248
-0.50678 -0.88664 0.00303 234 235 238
-0.60995 -0.88664 0.00303 234 235 238
-0.60995 -0.88664 0.1062 234 235 238
-0.50678 -0.88664 0.1062 234 235 238
-0.50678 -0.8162 0.00303 234 235 238
-0.60995 -0.8162 0.00303 234 235 238
-0.60995 -0.8162 0.1062 234 235 238
-0.50678 -0.8162 0.1062 234 235 238
-0.50678 -0.88664 0.1062 244 245 248
-0.60995 -0.88664 0.1062 244 245 248
-0.60995 -0.8162 0.1062 244 245 248
-0.50678 -0.8162 0.1062 244 245 248
-0.20806 0.30963 0.02364 217 193 204
-0.25819 0.27311 0.02364 217 193 204
-0.25819 0.27311 0.35974 217 193 204
-0.20806 0.30963 0.35974 217 193 204
-0.20806 1.00318 0.02364 217 193 204
-0.20806 1.00318 0.35974 217 193 204
-0.53146 0.27311 0.02364 217 193 204
-0.53146 0.27311 0.35974 217 193 204
-0.5784 0.30963 0.02364 217 193 204
-0.5784 0.30963 0.35974 217 193 204
-0.5784 1.00318 0.35974 217 193 204
-0.5784 1.00318 0.02364 217 193 204
-0.2736 0.29845 0.38544 217 193 204
-0.23223 0.33256 0.38544 217 193 204
-0.23223 0.98025 0.38544 217 193 204
-0.25819 1.0397 0.35974 217 193 204
-0.25819 1.0397 0.02364 217 193 204
-0.53146 1.0397 0.35974 217 193 204
-0.53146 1.0397 0.02364 217 193 204
-0.2736 1.01435 0.38544 217 193 204
-0.55427 0.98025 0.38544 217 193 204
-0.55427 0.33256 0.38544 217 193 204
-0.51553 1.01435 0.38544 217 193 204
-0.27289 1.01387 0.00341 217 193 204
-0.23111 0.97981 0.00341 217 193 204
-0.51627 1.01387 0.00341 217 193 204
-0.55538 0.97981 0.00341 217 193 204
-0.23111 0.333 0.00341 217 193 204
-0.27289 0.29894 0.00341 217 193 204
-0.55538 0.333 0.00341 217 193 204
-0.51627 0.29894 0.00341 217 193 204
-0.55427 0.33256 0.38544 223 198 209
-0.23223 0.33256 0.38544 223 198 209
-0.2736 0.29845 0.38544 223 198 209
-0.51553 0.29845 0.38544 223 198 209
-0.55427 0.98025 0.38544 223 198 209
-0.23223 0.98025 0.38544 223 198 209
-0.2736 1.01435 0.38544 223 198 209
-0.51553 1.01435 0.38544 223 198 209
-0.51553 0.29845 0.38544 217 193 204
0.34154 1.0147 0.11014 244 245 248
0.34154 1.07039 0.11014 244 245 248
0.44471 1.07039 0.11014 244 245 248
0.44471 1.0147 0.11014 244 245 248
0.34154 1.07039 0.11014 234 235 238
0.34154 1.07039 0.00697 234 235 238
0.44471 1.07039 0.00697 234 235 238
0.44471 1.07039 0.11014 234 235 238
0.44471 1.0147 0.00697 234 235 238
0.34154 1.0147 0.00697 234 235 238
0.44471 1.0147 0.11014 234 235 238
0.34154 1.0147 0.11014 234 235 238
-0.34154 1.0147 0.11014 244 245 248
-0.44471 1.0147 0.11014 244 245 248
-0.44471 1.07039 0.11014 244 245 248
-0.34154 1.07039 0.11014 244 245 248
-0.34154 1.07039 0.11014 234 235 238
-0.44471 1.07039 0.11014 234 235 238
-0.44471 1.07039 0.00697 234 235 238
-0.34154 1.07039 0.00697 234 235 238
-0.44471 1.0147 0.00697 234 235 238
-0.34154 1.0147 0.00697 234 235 238
-0.44471 1.0147 0.11014 234 235 238
-0.34154 1.0147 0.11014 234 235 238
-0.16761 0.51845 0.68363 223 198 209
-0.16761 0.79363 0.68363 223 198 209
0.16761 0.79363 0.68363 223 198 209
0.16761 0.51845 0.68363 223 198 209
0.16734 0.83398 0.72599 223 198 209
-0.16734 0.83398 0.72599 223 198 209
0.16761 1.14354 0.40826 217 193 204
-0.16761 1.14354 0.40826 217 193 204
-0.16761 1.08363 0.3484 217 193 204
0.16761 1.08363 0.3484 217 193 204
0.16761 0.51845 0.3484 217 193 204
0.16761 0.79363 0.68363 217 193 204
0.16761 0.51845 0.68363 217 193 204
-0.16761 0.51845 0.3484 217 193 204
-0.1665 1.14354 1.18729 217 193 204
0.1665 1.14354 1.18729 217 193 204
0.16734 0.83398 0.72599 217 193 204
0.16706 0.83398 0.90863 217 193 204
0.1665 0.79448 0.95056 217 193 204
0.16651 1.10561 1.23309 217 193 204
0.16651 0.83398 1.23309 217 193 204
0.16684 0.68988 1.23324 217 193 204
0.16684 0.68988 0.95015 217 193 204
-0.1665 0.79448 0.95056 217 193 204
-0.16659 0.68988 0.95015 217 193 204
-0.16706 0.83398 0.90863 217 193 204
-0.16734 0.83398 0.72599 217 193 204
-0.16761 0.79363 0.68363 217 193 204
-0.16761 0.51845 0.68363 217 193 204
-0.16651 1.10561 1.23309 217 193 204
-0.16651 0.83398 1.23309 217 193 204
-0.1666 0.68988 1.23324 217 193 204
-0.16651 0.83398 1.23309 223 198 209
-0.16651 1.10561 1.23309 223 198 209
0.16651 1.10561 1.23309 223 198 209
0.16651 0.83398 1.23309 223 198 209
0.1665 1.14354 1.18729 223 198 209
-0.1665 1.14354 1.18729 223 198 209
0.16684 0.68988 1.23324 223 198 209
-0.1666 0.68988 1.23324 223 198 209
-0.09131 0.37468 1.00329 246 237 246
-0.09131 0.37468 1.18105 246 237 246
0.09131 0.37468 1.18105 246 237 246
0.09131 0.37468 1.00329 246 237 246
-0.1191 0.40358 0.98275 246 237 246
0.1191 0.40358 0.98275 246 237 246
-0.16659 0.68988 0.95015 246 237 246
0.16684 0.68988 0.95015 246 237 246
0.1191 0.40358 1.20158 246 237 246
0.16684 0.68988 1.23324 246 237 246
-0.1666 0.68988 1.23324 246 237 246
-0.1191 0.40358 1.20158 246 237 246
0.16684 0.68988 1.23324 253 243 252
0.1191 0.40358 1.20158 253 243 252
-0.1191 0.40358 1.20158 253 243 252
-0.1666 0.68988 1.23324 253 243 252
0.09131 0.37468 1.18105 253 243 252
-0.09131 0.37468 1.18105 253 243 252
-0.28884 -0.82798 0.03129 217 207 168
-0.28881 -0.91886 0.03129 217 207 168
0.28881 -0.91886 0.03129 217 207 168
0.28884 -0.82798 0.03129 217 207 168
-0.30692 -0.94095 0.04987 217 207 168
0.30692 -0.94095 0.04987 217 207 168
0.30689 -0.82798 0.04987 217 207 168
-0.30689 -0.82798 0.04987 217 207 168
0.27533 -0.94095 0.07596 217 207 168
0.30692 -0.94095 0.23898 217 207 168
0.27533 -0.94095 0.22188 217 207 168
-0.27533 -0.94095 0.07596 217 207 168
-0.30692 -0.94095 0.23898 217 207 168
-0.27533 -0.94095 0.22188 217 207 168
0.27533 -0.89785 0.07596 157 116 113
0.24243 -0.89785 0.19501 157 116 113
0.27533 -0.89785 0.22188 157 116 113
0.27533 -0.94095 0.07596 157 116 113
0.27533 -0.94095 0.22188 157 116 113
-0.24243 -0.89785 0.19501 157 116 113
0.24243 -1.00546 0.19501 157 116 113
-0.24243 -1.00546 0.19501 157 116 113
-0.27533 -0.89785 0.07596 157 116 113
-0.27533 -0.89785 0.22188 157 116 113
-0.27533 -0.94095 0.07596 157 116 113
-0.27533 -0.94095 0.22188 157 116 113
0.30689 -0.82798 0.3413 217 207 168
0.30692 -1.01185 0.34131 217 207 168
0.28111 -0.82798 0.3673 217 207 168
0.2811 -0.98719 0.36731 217 207 168
0.30692 -1.01172 0.23898 217 207 168
0.27534 -1.00546 0.22188 217 207 168
0.27534 -1.03632 0.23898 217 207 168
0.2752 -1.03645 0.34131 217 207 168
0.24243 -1.03632 0.21211 217 207 168
0.24243 -1.00546 0.19501 217 207 168
0 -1.03632 0.21211 217 207 168
0.25844 -1.01189 0.36731 217 207 168
0.04235 -1.03635 0.23788 217 207 168
0.04215 -1.03641 0.27856 217 207 168
0.02692 -1.03641 0.27856 217 207 168
0 -1.03645 0.34131 217 207 168
-0.02692 -1.03641 0.27856 217 207 168
-0.2752 -1.03645 0.34131 217 207 168
-0.25844 -1.01189 0.36731 217 207 168
-0.2811 -0.98719 0.36731 217 207 168
-0.30692 -1.01185 0.34131 217 207 168
-0.30692 -1.01172 0.23898 217 207 168
-0.27534 -1.03632 0.23898 217 207 168
-0.27534 -1.00546 0.22188 217 207 168
-0.24243 -1.03632 0.21211 217 207 168
-0.24243 -1.00546 0.19501 217 207 168
-0.04215 -1.03641 0.27856 217 207 168
-0.04235 -1.03635 0.23788 217 207 168
-0.02692 -1.03635 0.23788 217 207 168
0.02692 -1.03635 0.23788 217 207 168
-0.30689 -0.82798 0.3413 217 207 168
-0.28111 -0.82798 0.3673 217 207 168
0.2811 -0.98719 0.36731 223 212 173
0.25844 -1.01189 0.36731 223 212 173
-0.25844 -1.01189 0.36731 223 212 173
-0.2811 -0.98719 0.36731 223 212 173
-0.28111 -0.82798 0.3673 223 212 173
0.28111 -0.82798 0.3673 223 212 173
0.27534 -1.00546 0.22188 157 116 113
-0.27534 -1.00546 0.22188 157 116 113
-0.17811 -0.92313 0.07227 178 128 128
-0.17811 -0.92313 0.13295 178 128 128
0.17811 -0.92313 0.13295 178 128 128
0.17811 -0.92313 0.07227 178 128 128
0.17811 -0.89153 0.13295 178 128 128
-0.17811 -0.89153 0.13295 178 128 128
0.17811 -0.89153 0.07227 178 128 128
-0.17811 -0.89153 0.07227 178 128 128
0.15782 -1.001 0.17545 255 255 255
0.15782 -1.001 0.1966 255 255 255
0.21391 -1.001 0.1966 255 255 255
0.21391 -1.001 0.17545 255 255 255
0.15782 -0.96834 0.17545 255 255 255
0.21391 -0.96834 0.17545 255 255 255
0.21391 -0.96834 0.1966 255 255 255
0.15782 -0.96834 0.1966 255 255 255
-0.15782 -1.001 0.17545 255 255 255
-0.21391 -1.001 0.17545 255 255 255
-0.21391 -1.001 0.1966 255 255 255
-0.15782 -1.001 0.1966 255 255 255
-0.15782 -0.96834 0.17545 255 255 255
-0.21391 -0.96834 0.17545 255 255 255
-0.21391 -0.96834 0.1966 255 255 255
-0.15782 -0.96834 0.1966 255 255 255
0.02692 -1.02696 0.23789 188 178 146
0.02692 -1.02703 0.27857 188 178 146
0.04215 -1.02703 0.27857 188 178 146
0.04235 -1.02696 0.23789 188 178 146
0.02692 -1.03635 0.23788 188 178 146
0.04235 -1.03635 0.23788 188 178 146
0.02692 -1.03641 0.27856 188 178 146
-0.04235 -1.02696 0.23789 188 178 146
-0.04215 -1.02703 0.27857 188 178 146
-0.02692 -1.02703 0.27857 188 178 146
-0.02692 -1.02696 0.23789 188 178 146
-0.04235 -1.03635 0.23788 188 178 146
-0.02692 -1.03635 0.23788 188 178 146
-0.02692 -1.03641 0.27856 188 178 146
0.04215 -1.03641 0.27856 188 178 146
-0.04215 -1.03641 0.27856 188 178 146
3 0 2 1
3 0 3 2
3 4 0 1
3 4 1 5
3 2 3 6
3 2 6 7
3 7 6 8
3 7 8 9
3 8 10 9
3 8 11 10
3 5 1 12
3 5 12 13
3 1 14 12
3 1 2 14
3 2 15 14
3 2 7 15
3 7 16 15
3 7 9 16
3 9 17 16
3 9 10 17
3 6 3 18
3 6 18 19
3 8 6 19
3 11 8 20
3 8 19 20
3 11 20 21
3 19 22 20
3 19 18 22
3 3 22 18
3 3 0 22
3 0 23 22
3 20 23 21
3 20 22 23
3 0 4 23
3 24 26 25
3 24 27 26
3 28 27 24
3 28 29 27
3 30 32 31
3 30 33 32
3 34 36 35
3 34 37 36
3 38 36 37
3 38 39 36
3 40 34 35
3 40 41 34
3 41 38 42
3 41 42 43
3 34 41 43
3 38 44 42
3 38 37 44
3 37 45 44
3 37 34 45
3 34 43 45
3 46 48 47
3 46 49 48
3 50 52 51
3 50 53 52
3 54 51 52
3 54 52 55
3 56 53 50
3 56 50 57
3 57 58 54
3 57 59 58
3 50 59 57
3 54 60 51
3 54 58 60
3 51 61 50
3 51 60 61
3 50 61 59
3 62 64 63
3 62 65 64
3 66 65 62
3 66 62 63
3 66 67 65
3 66 63 68
3 64 65 69
3 64 69 70
3 65 71 69
3 65 67 71
3 70 69 72
3 70 72 73
3 72 74 73
3 72 75 74
3 69 75 72
3 69 71 75
3 71 74 75
3 71 76 74
3 67 76 71
3 67 77 76
3 68 77 67
3 68 67 66
3 76 77 78
3 76 78 79
3 74 76 79
3 77 80 78
3 77 68 80
3 73 74 81
3 73 81 82
3 70 73 82
3 70 82 83
3 64 70 83
3 64 83 84
3 63 64 84
3 63 84 85
3 68 63 85
3 68 85 80
3 74 79 81
3 86 88 87
3 86 89 88
3 87 88 90
3 87 90 91
3 91 90 92
3 91 92 93
3 94 96 95
3 94 97 96
3 98 96 97
3 98 99 96
3 100 97 94
3 100 98 97
3 101 95 96
3 101 96 102
3 96 103 102
3 96 99 103
3 102 103 104
3 102 104 105
3 95 101 106
3 95 106 107
3 108 107 106
3 109 107 108
3 109 110 107
3 109 111 110
3 109 112 111
3 108 112 109
3 108 113 112
3 105 113 108
3 105 104 113
3 105 108 114
3 108 106 114
3 105 114 115
3 104 116 113
3 111 113 116
3 111 112 113
3 116 104 117
3 117 104 103
3 117 103 99
3 100 117 99
3 100 99 98
3 118 120 119
3 118 121 120
3 120 121 122
3 120 122 123
3 123 122 124
3 123 124 125
3 126 128 127
3 126 129 128
3 129 126 130
3 129 130 131
3 132 134 133
3 132 135 134
3 136 133 134
3 136 134 137
3 138 133 136
3 138 132 133
3 139 134 135
3 139 140 134
3 134 141 137
3 134 140 141
3 140 142 141
3 140 143 142
3 135 144 139
3 135 145 144
3 146 144 145
3 147 146 145
3 147 145 148
3 147 148 149
3 147 149 150
3 146 147 150
3 146 150 151
3 143 146 151
3 143 151 142
3 143 152 146
3 146 152 144
3 143 153 152
3 154 142 151
3 149 154 151
3 149 151 150
3 154 141 142
3 155 141 154
3 141 155 137
3 138 137 155
3 138 136 137
3 156 158 157
3 156 159 158
3 158 160 157
3 158 161 160
3 161 162 160
3 161 163 162
3 164 166 165
3 164 167 166
3 165 168 164
3 165 169 168
3 170 172 171
3 170 173 172
3 174 170 171
3 174 171 175
3 172 173 176
3 172 176 177
3 177 176 178
3 177 178 179
3 178 180 179
3 178 181 180
3 175 171 182
3 175 182 183
3 171 184 182
3 171 172 184
3 172 185 184
3 172 177 185
3 177 186 185
3 177 179 186
3 179 187 186
3 179 180 187
3 178 176 188
3 178 188 189
3 190 189 188
3 176 190 188
3 190 191 189
3 173 191 190
3 173 170 191
3 170 192 191
3 170 174 192
3 176 173 190
3 189 191 192
3 189 192 193
3 181 189 193
3 194 181 193
3 194 180 181
3 194 195 180
3 196 195 194
3 196 197 195
3 175 197 196
3 175 196 174
3 197 175 183
3 197 183 198
3 195 197 198
3 180 195 199
3 195 198 199
3 180 199 187
3 174 200 192
3 174 196 200
3 193 192 200
3 196 201 200
3 196 194 201
3 194 193 201
3 193 200 201
3 181 178 189
3 202 204 203
3 202 205 204
3 206 205 202
3 206 207 205
3 208 207 206
3 208 206 209
3 210 212 211
3 210 213 212
3 214 213 210
3 214 215 213
3 212 216 211
3 212 217 216
3 217 218 216
3 217 219 218
3 218 219 220
3 218 220 221
3 215 222 213
3 215 223 222
3 213 224 212
3 213 222 224
3 212 225 217
3 212 224 225
3 217 226 219
3 217 225 226
3 219 227 220
3 219 226 227
3 218 228 216
3 218 229 228
3 230 228 229
3 216 228 230
3 230 229 231
3 211 230 231
3 211 231 210
3 210 231 232
3 210 232 214
3 216 230 211
3 231 233 232
3 231 229 233
3 221 229 218
3 221 233 229
3 234 233 221
3 234 221 220
3 234 220 235
3 236 234 235
3 236 235 237
3 215 236 237
3 215 214 236
3 237 223 215
3 237 238 223
3 235 238 237
3 220 239 235
3 235 239 238
3 220 227 239
3 214 240 236
3 214 232 240
3 236 241 234
3 236 240 241
3 234 241 233
3 232 241 240
3 232 233 241
3 242 244 243
3 242 245 244
3 246 242 243
3 246 243 247
3 248 246 247
3 248 249 246
3 250 252 251
3 250 253 252
3 254 250 251
3 254 251 255
3 252 253 256
3 252 256 257
3 257 256 258
3 257 258 259
3 258 260 259
3 258 261 260
3 251 252 262
3 251 262 263
3 255 251 263
3 255 263 264
3 265 255 264
3 255 265 266
3 255 266 254
3 266 265 267
3 266 267 268
3 268 267 260
3 268 260 261
3 265 264 269
3 267 265 269
3 259 260 270
3 259 270 271
3 260 267 272
3 267 269 272
3 260 272 270
3 254 266 273
3 254 273 274
3 275 274 273
3 268 261 275
3 275 273 276
3 266 276 273
3 266 268 276
3 268 275 276
3 250 254 274
3 250 274 277
3 253 250 277
3 253 277 278
3 261 279 275
3 278 277 279
3 279 274 275
3 279 277 274
3 261 258 279
3 258 280 279
3 278 279 280
3 258 256 280
3 256 278 280
3 256 253 278
3 257 271 281
3 252 257 281
3 252 281 262
3 257 259 271
3 282 284 283
3 282 285 284
3 286 285 282
3 286 287 285
3 288 287 286
3 288 286 289
3 290 292 291
3 290 293 292
3 294 293 290
3 294 290 291
3 294 295 293
3 293 296 292
3 293 295 296
3 294 291 297
3 298 300 299
3 298 301 300
3 302 304 303
3 302 305 304
3 306 302 303
3 306 305 302
3 306 303 307
3 303 308 307
3 303 304 308
3 306 309 305
3 310 312 311
3 310 313 312
3 314 316 315
3 314 317 316
3 318 317 314
3 318 319 317
3 316 320 315
3 316 321 320
3 321 322 320
3 321 323 322
3 322 323 324
3 322 324 325
3 317 326 316
3 317 327 326
3 319 327 317
3 319 328 327
3 329 328 319
3 319 330 329
3 319 318 330
3 330 331 329
3 330 332 331
3 332 324 331
3 332 325 324
3 329 333 328
3 331 333 329
3 323 334 324
3 323 335 334
3 324 336 331
3 331 336 333
3 324 334 336
3 318 337 330
3 318 338 337
3 338 339 337
3 330 339 332
3 330 337 339
3 338 340 339
3 332 340 325
3 332 339 340
3 314 338 318
3 314 341 338
3 315 341 314
3 315 342 341
3 325 340 343
3 342 343 341
3 325 343 322
3 322 343 344
3 342 344 343
3 322 344 320
3 320 342 315
3 320 344 342
3 341 343 340
3 341 340 338
3 345 347 346
3 345 348 347
3 349 345 346
3 349 346 350
3 351 349 350
3 351 352 349
3 316 353 321
3 316 326 353
3 321 353 335
3 321 335 323
3 354 356 355
3 354 357 356
3 358 360 359
3 358 361 360
3 359 360 362
3 362 360 361
3 359 362 363
3 362 361 364
3 359 365 358
3 359 363 365
3 366 368 367
3 366 369 368
3 370 372 371
3 370 373 372
3 373 374 372
3 374 371 372
3 373 375 374
3 374 376 371
3 373 377 375
3 373 370 377
3 378 380 379
3 378 381 380
3 379 380 382
3 379 382 383
3 384 386 385
3 384 387 386
3 386 387 388
3 388 387 389
3 384 389 387
3 388 389 390
3 386 388 391
3 384 385 392
3 384 392 393
3 394 384 393
3 384 394 389
3 394 393 395
3 396 395 393
3 396 393 397
3 396 397 398
3 396 398 399
3 396 399 400
3 401 396 400
3 401 400 402
3 403 396 401
3 403 395 396
3 385 405 404
3 385 386 405
3 405 386 391
3 405 391 406
3 385 404 403
3 404 395 403
3 404 394 395
3 385 403 392
3 392 403 401
3 392 401 407
3 407 401 408
3 408 401 402
3 408 402 409
3 410 412 411
3 410 413 412
3 414 411 412
3 414 415 411
3 413 417 416
3 413 410 417
3 418 420 419
3 418 421 420
3 422 421 418
3 422 423 421
3 423 420 421
3 424 423 422
3 424 425 423
3 425 426 423
3 423 426 420
3 425 427 426
3 428 424 422
3 428 422 429
3 429 418 419
3 429 422 418
3 430 432 431
3 430 433 432
3 431 435 434
3 431 432 435
3 436 438 437
3 436 439 438
3 438 440 437
3 436 437 440
3 438 441 440
3 439 441 438
3 439 442 441
3 436 440 443
3 444 440 441
3 445 444 441
3 445 446 444
3 444 447 440
3 448 440 447
3 448 447 449
3 450 452 451
3 453 452 450
3 453 454 452
3 454 451 452
3 450 451 455
3 455 451 456
3 455 456 457
3 450 455 458
3 458 455 459
3 460 458 459
3 450 460 453
3 450 458 460
3 460 459 461
3 461 459 455
3 462 463 445
3 464 463 462
3 464 465 463
3 462 445 441
3 462 441 442
3 445 463 466
3 466 446 445
3 466 467 446
3 468 467 466
3 469 468 466
3 469 466 463
3 470 467 468
3 469 470 468
3 470 471 467
3 470 472 471
3 465 469 463
3 465 473 469
3 469 474 470
3 469 475 474
3 469 476 475
3 469 477 476
3 473 477 469
3 478 476 477
3 479 478 477
3 480 479 477
3 480 477 473
3 481 479 480
3 481 482 479
3 479 482 483
3 479 483 484
3 484 483 485
3 486 484 485
3 486 479 484
3 486 485 487
3 486 488 479
3 479 488 478
3 486 489 488
3 472 489 486
3 487 472 486
3 472 490 489
3 490 476 478
3 490 491 476
3 472 491 490
3 470 491 472
3 470 474 491
3 471 472 487
3 483 449 485
3 483 448 449
3 482 448 483
3 492 448 482
3 493 492 482
3 493 482 481
3 492 440 448
3 492 443 440
3 494 496 495
3 494 497 496
3 494 498 497
3 494 499 498
3 454 500 456
3 454 456 451
3 461 457 501
3 461 455 457
3 502 504 503
3 502 505 504
3 503 504 506
3 505 506 504
3 503 506 507
3 505 508 506
3 509 503 507
3 509 502 503
3 510 512 511
3 510 513 512
3 514 513 510
3 514 510 511
3 514 515 513
3 513 516 512
3 513 515 516
3 514 511 517
3 517 515 514
3 517 516 515
3 518 520 519
3 518 521 520
3 522 518 519
3 522 521 518
3 522 519 523
3 519 524 523
3 519 520 524
3 522 525 521
3 525 523 524
3 525 522 523
3 526 528 527
3 526 529 528
3 530 529 526
3 530 531 529
3 532 526 527
3 532 530 526
3 533 535 534
3 533 536 535
3 537 536 533
3 537 538 536
3 538 535 536
3 538 539 535
3 531 528 529
3 531 540 528
3 540 527 528
3 540 532 527
3 539 534 535
3 539 541 534
3 541 533 534
3 541 537 533
