ply
format ascii 1.0
element vertex 624
property float x
property float y
property float z
property uchar red
property uchar green
property uchar blue
element face 714
property list uchar int vertex_index
end_header
0.40166 0.78354 2.11062 121 115 152
0.43617 0.93542 2.07611 121 115 152
0.62425 0.93542 2.07611 121 115 152
0.65875 0.78354 2.11062 121 115 152
0.60387 0.96198 2.05574 121 115 152
0.45654 0.96198 2.05574 121 115 152
0.45654 0.96198 2.05574 117 111 147
0.45654 0.96198 1.90841 117 111 147
0.60387 0.96198 1.90841 117 111 147
0.60387 0.96198 2.05574 117 111 147
0.62425 0.93542 2.07611 117 111 147
0.62425 0.93542 1.88803 117 111 147
0.65875 0.78354 2.11062 117 111 147
0.65875 0.78354 1.85353 117 111 147
0.43617 0.93542 1.88803 117 111 147
0.40166 0.78354 1.85353 117 111 147
0.43617 0.93542 2.07611 117 111 147
0.40166 0.78354 2.11062 117 111 147
0.39326 0.78336 1.61772 121 115 152
0.42143 0.88933 1.58955 121 115 152
0.56956 0.88933 1.58955 121 115 152
0.59774 0.78336 1.61772 121 115 152
0.55351 0.9159 1.5735 121 115 152
0.43748 0.9159 1.5735 121 115 152
0.43748 0.9159 1.5735 117 111 147
0.43748 0.9159 1.45746 117 111 147
0.55351 0.9159 1.45746 117 111 147
0.55351 0.9159 1.5735 117 111 147
0.56956 0.88933 1.58955 117 111 147
0.56956 0.88933 1.44141 117 111 147
0.59774 0.78336 1.61772 117 111 147
0.59774 0.78336 1.41324 117 111 147
0.42143 0.88933 1.44141 117 111 147
0.39326 0.78336 1.41324 117 111 147
0.42143 0.88933 1.58955 117 111 147
0.39326 0.78336 1.61772 117 111 147
0.28033 -0.50017 2.45248 117 111 147
0.92453 -0.30979 3.01563 117 111 147
1.15883 -0.30979 2.83291 117 111 147
0.86055 -0.50017 2.10197 117 111 147
1.15883 -0.01266 2.83291 117 111 147
0.86055 0.17771 2.10197 117 111 147
1.15865 -0.28008 2.88099 117 111 147
0.97121 -0.28008 3.02717 117 111 147
1.15865 -0.04238 2.88099 117 111 147
0.97121 -0.04238 3.02717 117 111 147
0.92453 -0.01266 3.01563 117 111 147
0.28033 0.17771 2.45248 117 111 147
0.97121 -0.28008 3.02717 121 115 152
0.97121 -0.04238 3.02717 121 115 152
1.15865 -0.04238 2.88099 121 115 152
1.15865 -0.28008 2.88099 121 115 152
0.92453 -0.01266 3.01563 121 115 152
0.92453 -0.30979 3.01563 121 115 152
0.28033 0.17771 2.45248 121 115 152
0.28033 -0.50017 2.45248 121 115 152
-0.90606 -0.82017 0.40144 117 111 147
-0.90606 -0.82017 2.4028 117 111 147
-0.80582 -0.90606 2.4028 117 111 147
-0.80582 -0.90606 0.40144 117 111 147
-0.90606 0.72143 0.40144 117 111 147
-0.90606 0.72143 2.4028 117 111 147
-0.73867 -0.83055 2.48814 117 111 147
-0.83055 -0.75183 2.48814 117 111 147
-0.83055 0.65308 2.48814 117 111 147
-0.80582 0.80731 2.4028 117 111 147
-0.80582 0.80731 0.40144 117 111 147
0.80582 0.80731 2.4028 117 111 147
0.80582 0.80731 0.40144 117 111 147
0.90606 0.72143 2.4028 117 111 147
0.90606 0.72143 0.40144 117 111 147
-0.73867 0.7318 2.48814 117 111 147
0.73867 0.7318 2.48814 117 111 147
0.83055 0.65308 2.48814 117 111 147
-0.74022 0.73355 0.33635 117 111 147
-0.8323 0.65466 0.33635 117 111 147
0.74022 0.73355 0.33635 117 111 147
0.8323 0.65466 0.33635 117 111 147
0.8323 -0.75341 0.33635 117 111 147
0.90606 -0.82017 0.40144 117 111 147
0.74022 -0.8323 0.33635 117 111 147
-0.8323 -0.75341 0.33635 117 111 147
-0.74022 -0.8323 0.33635 117 111 147
0 -0.90606 0.40144 117 111 147
0.80582 -0.90606 0.40144 117 111 147
0.80582 -0.90606 2.4028 117 111 147
0.90606 -0.82017 2.4028 117 111 147
0.83055 -0.75183 2.48814 117 111 147
0.73867 -0.83055 2.48814 117 111 147
0 -0.90606 2.4028 117 111 147
0.56406 -0.90606 1.80718 117 111 147
0.56344 -0.90606 1.39938 117 111 147
0.56344 -0.87261 1.39938 117 111 147
0.56406 -0.87261 1.80718 117 111 147
0.49263 -0.87261 1.68517 117 111 147
0.49263 -0.90606 1.68517 117 111 147
0.44127 -0.90606 2.05227 117 111 147
0.44127 -0.90606 1.7691 117 111 147
0.44127 -0.86381 2.05227 117 111 147
0.44127 -0.86381 1.7691 117 111 147
0.09947 -0.86381 1.7691 117 111 147
0.09947 -0.90606 1.7691 117 111 147
0.45378 -0.87261 1.68517 117 111 147
0.4237 -0.87261 1.68517 117 111 147
0.23281 -0.90606 1.68517 117 111 147
0.24468 -0.87261 1.68517 117 111 147
0 -0.90606 1.68517 117 111 147
0.21084 -0.87261 1.68517 117 111 147
-0.09947 -0.90606 1.7691 117 111 147
-0.23281 -0.90606 1.68517 117 111 147
-0.24468 -0.87261 1.68517 117 111 147
-0.21084 -0.87261 1.68517 117 111 147
-0.01664 -0.87261 1.68517 117 111 147
0.01663 -0.87261 1.68517 117 111 147
-0.4237 -0.87261 1.68517 117 111 147
-0.49263 -0.90606 1.68517 117 111 147
-0.45378 -0.87261 1.68517 117 111 147
-0.49263 -0.87261 1.68517 117 111 147
-0.56406 -0.90606 1.80718 117 111 147
-0.56406 -0.87261 1.80718 117 111 147
-0.56344 -0.87261 1.39938 117 111 147
-0.56344 -0.90606 1.39938 117 111 147
-0.27182 -0.90606 1.39938 117 111 147
-0.44127 -0.90606 1.7691 117 111 147
-0.44127 -0.90606 2.05227 117 111 147
-0.44127 -0.86381 2.05227 117 111 147
-0.44127 -0.86381 1.7691 117 111 147
-0.09947 -0.86381 1.7691 117 111 147
-0.45378 -0.87261 1.39938 117 111 147
-0.4237 -0.87261 1.39938 117 111 147
-0.24468 -0.87261 1.39938 117 111 147
-0.21084 -0.87261 1.39938 117 111 147
0 -0.90606 1.39938 117 111 147
-0.01664 -0.87261 1.39938 117 111 147
0.01663 -0.87261 1.39938 117 111 147
0.21084 -0.87261 1.39938 117 111 147
0.27182 -0.90606 1.39938 117 111 147
0.24468 -0.87261 1.39938 117 111 147
0.4237 -0.87261 1.39938 117 111 147
0.45378 -0.87261 1.39938 117 111 147
0.73867 0.7318 2.48814 121 115 152
0.83055 0.65308 2.48814 121 115 152
-0.83055 0.65308 2.48814 121 115 152
-0.73867 0.7318 2.48814 121 115 152
-0.83055 -0.75183 2.48814 121 115 152
0.83055 -0.75183 2.48814 121 115 152
-0.73867 -0.83055 2.48814 121 115 152
0.73867 -0.83055 2.48814 121 115 152
-0.34877 0.55 1.05375 121 115 152
-0.21099 1.42898 0.91597 121 115 152
0.21099 1.42898 0.91597 121 115 152
0.34877 0.55 1.05375 121 115 152
0.16528 1.47693 0.87026 121 115 152
-0.16528 1.47693 0.87026 121 115 152
-0.16528 1.47693 0.87026 117 111 147
-0.16528 1.47693 0.5397 117 111 147
0.16528 1.47693 0.5397 117 111 147
0.16528 1.47693 0.87026 117 111 147
0.21099 1.42898 0.91597 117 111 147
0.21099 1.42898 0.49399 117 111 147
0.34877 0.55 0.35621 117 111 147
-0.21099 1.42898 0.49399 117 111 147
-0.34877 0.55 0.35621 117 111 147
0.34877 0.55 1.05375 117 111 147
-0.34877 0.55 1.05375 117 111 147
-0.21099 1.42898 0.91597 117 111 147
-0.23764 0.1619 2.48156 117 111 147
-0.1718 0.22774 2.98931 117 111 147
0.1718 0.22774 2.98931 117 111 147
0.23764 0.1619 2.48156 117 111 147
0.1718 0.57134 2.98931 117 111 147
0.23764 0.63718 2.48156 117 111 147
-0.23764 0.63718 2.48156 117 111 147
-0.1718 0.57134 2.98931 117 111 147
0.1403 0.25924 3.02563 117 111 147
-0.1403 0.25924 3.02563 117 111 147
0.1403 0.53984 3.02563 117 111 147
-0.1403 0.53984 3.02563 117 111 147
-0.1403 0.25924 3.02563 121 115 152
-0.1403 0.53984 3.02563 121 115 152
0.1403 0.53984 3.02563 121 115 152
0.1403 0.25924 3.02563 121 115 152
-0.62777 0.2733 2.48096 117 111 147
-0.59141 0.30966 2.77604 117 111 147
-0.35201 0.30966 2.77604 117 111 147
-0.31565 0.2733 2.48096 117 111 147
-0.35201 0.54906 2.77604 117 111 147
-0.31565 0.58542 2.48096 117 111 147
-0.62777 0.58542 2.48096 117 111 147
-0.59141 0.54906 2.77604 117 111 147
-0.37675 0.33439 2.80718 117 111 147
-0.56667 0.33439 2.80718 117 111 147
-0.37675 0.52432 2.80718 117 111 147
-0.56667 0.52432 2.80718 117 111 147
-0.56667 0.33439 2.80718 121 115 152
-0.56667 0.52432 2.80718 121 115 152
-0.37675 0.52432 2.80718 121 115 152
-0.37675 0.33439 2.80718 121 115 152
-0.16523 0.7888 2.3313 121 115 152
-0.1093 1.07715 2.27537 121 115 152
0.1093 1.07715 2.27537 121 115 152
0.16523 0.7888 2.3313 121 115 152
0.08562 1.10496 2.25168 121 115 152
-0.08562 1.10496 2.25168 121 115 152
-0.08562 1.10496 2.25168 117 111 147
-0.08562 1.10496 2.08045 117 111 147
0.08562 1.10496 2.08045 117 111 147
0.08562 1.10496 2.25168 117 111 147
0.1093 1.07715 2.27537 117 111 147
0.1093 1.07715 2.05677 117 111 147
0.16523 0.7888 2.3313 117 111 147
0.16523 0.7888 2.00084 117 111 147
-0.1093 1.07715 2.05677 117 111 147
-0.16523 0.7888 2.00084 117 111 147
-0.1093 1.07715 2.27537 117 111 147
-0.16523 0.7888 2.3313 117 111 147
0.37691 0.28234 2.48089 117 111 147
0.40847 0.31391 2.70529 117 111 147
0.63937 0.31391 2.70529 117 111 147
0.67093 0.28234 2.48089 117 111 147
0.63937 0.5448 2.70529 117 111 147
0.67093 0.57637 2.48089 117 111 147
0.37691 0.57637 2.48089 117 111 147
0.40847 0.5448 2.70529 117 111 147
0.61551 0.33777 2.73643 117 111 147
0.43233 0.33777 2.73643 117 111 147
0.61551 0.52095 2.73643 117 111 147
0.43233 0.52095 2.73643 117 111 147
0.43233 0.33777 2.73643 121 115 152
0.43233 0.52095 2.73643 121 115 152
0.61551 0.52095 2.73643 121 115 152
0.61551 0.33777 2.73643 121 115 152
-0.12854 0.78855 1.79619 121 115 152
-0.08481 1.01288 1.75246 121 115 152
0.08481 1.01288 1.75246 121 115 152
0.12854 0.78855 1.79619 121 115 152
0.06643 1.04069 1.73408 121 115 152
-0.06643 1.04069 1.73408 121 115 152
-0.06643 1.04069 1.73408 117 111 147
-0.06643 1.04069 1.60121 117 111 147
0.06643 1.04069 1.60121 117 111 147
0.06643 1.04069 1.73408 117 111 147
0.08481 1.01288 1.75246 117 111 147
0.08481 1.01288 1.58284 117 111 147
0.12854 0.78855 1.79619 117 111 147
0.12854 0.78855 1.5391 117 111 147
-0.08481 1.01288 1.58284 117 111 147
-0.12854 0.78855 1.5391 117 111 147
-0.08481 1.01288 1.75246 117 111 147
-0.12854 0.78855 1.79619 117 111 147
-0.10103 0.78837 1.34246 121 115 152
-0.06752 0.96467 1.30895 121 115 152
0.06752 0.96467 1.30895 121 115 152
0.10103 0.78837 1.34246 121 115 152
0.05289 0.99249 1.29432 121 115 152
-0.05289 0.99249 1.29432 121 115 152
-0.05289 0.99249 1.29432 117 111 147
-0.05289 0.99249 1.18855 117 111 147
0.05289 0.99249 1.18855 117 111 147
0.05289 0.99249 1.29432 117 111 147
0.06752 0.96467 1.30895 117 111 147
0.06752 0.96467 1.17392 117 111 147
0.10103 0.78837 1.34246 117 111 147
0.10103 0.78837 1.14041 117 111 147
-0.06752 0.96467 1.17392 117 111 147
-0.10103 0.78837 1.14041 117 111 147
-0.06752 0.96467 1.30895 117 111 147
-0.10103 0.78837 1.34246 117 111 147
-0.28033 -0.50017 2.45248 117 111 147
-0.86055 -0.50017 2.10197 117 111 147
-1.15883 -0.30979 2.83291 117 111 147
-0.92453 -0.30979 3.01563 117 111 147
-1.15883 -0.01266 2.83291 117 111 147
-0.86055 0.17771 2.10197 117 111 147
-1.15865 -0.28008 2.88099 117 111 147
-0.97121 -0.28008 3.02717 117 111 147
-1.15865 -0.04238 2.88099 117 111 147
-0.97121 -0.04238 3.02717 117 111 147
-0.92453 -0.01266 3.01563 117 111 147
-0.28033 0.17771 2.45248 117 111 147
-0.97121 -0.28008 3.02717 121 115 152
-1.15865 -0.28008 2.88099 121 115 152
-1.15865 -0.04238 2.88099 121 115 152
-0.97121 -0.04238 3.02717 121 115 152
-0.92453 -0.01266 3.01563 121 115 152
-0.92453 -0.30979 3.01563 121 115 152
-0.28033 0.17771 2.45248 121 115 152
-0.28033 -0.50017 2.45248 121 115 152
-0.40166 0.78354 2.11062 121 115 152
-0.65875 0.78354 2.11062 121 115 152
-0.62425 0.93542 2.07611 121 115 152
-0.43617 0.93542 2.07611 121 115 152
-0.60387 0.96198 2.05574 121 115 152
-0.45654 0.96198 2.05574 121 115 152
-0.45654 0.96198 2.05574 117 111 147
-0.60387 0.96198 2.05574 117 111 147
-0.60387 0.96198 1.90841 117 111 147
-0.45654 0.96198 1.90841 117 111 147
-0.62425 0.93542 2.07611 117 111 147
-0.62425 0.93542 1.88803 117 111 147
-0.65875 0.78354 2.11062 117 111 147
-0.65875 0.78354 1.85353 117 111 147
-0.43617 0.93542 1.88803 117 111 147
-0.40166 0.78354 1.85353 117 111 147
-0.43617 0.93542 2.07611 117 111 147
-0.40166 0.78354 2.11062 117 111 147
-0.39326 0.78336 1.61772 121 115 152
-0.59774 0.78336 1.61772 121 115 152
-0.56956 0.88933 1.58955 121 115 152
-0.42143 0.88933 1.58955 121 115 152
-0.55351 0.9159 1.5735 121 115 152
-0.43748 0.9159 1.5735 121 115 152
-0.43748 0.9159 1.5735 117 111 147
-0.55351 0.9159 1.5735 117 111 147
-0.55351 0.9159 1.45746 117 111 147
-0.43748 0.9159 1.45746 117 111 147
-0.56956 0.88933 1.58955 117 111 147
-0.56956 0.88933 1.44141 117 111 147
-0.59774 0.78336 1.61772 117 111 147
-0.59774 0.78336 1.41324 117 111 147
-0.42143 0.88933 1.44141 117 111 147
-0.39326 0.78336 1.41324 117 111 147
-0.42143 0.88933 1.58955 117 111 147
-0.39326 0.78336 1.61772 117 111 147
0.49263 -0.87261 1.68517 231 227 244
0.56406 -0.87261 1.80718 231 227 244
0.56344 -0.87261 1.39938 231 227 244
0.45378 -0.87261 1.68517 231 227 244
0.45378 -0.87261 1.39938 231 227 244
0.44127 -0.86381 1.7691 224 136 126
0.09947 -0.86381 1.7691 224 136 126
0.44127 -0.86381 2.05227 224 136 126
0.01663 -0.87261 1.68517 231 227 244
0.21084 -0.87261 1.68517 231 227 244
0.21084 -0.87261 1.39938 231 227 244
0.01663 -0.87261 1.39938 231 227 244
0.4237 -0.87261 1.68517 174 171 184
0.45378 -0.87261 1.68517 174 171 184
0.45378 -0.87261 1.39938 174 171 184
0.4237 -0.87261 1.39938 174 171 184
0.24468 -0.87261 1.68517 231 227 244
0.4237 -0.87261 1.68517 231 227 244
0.4237 -0.87261 1.39938 231 227 244
0.24468 -0.87261 1.39938 231 227 244
0.21084 -0.87261 1.68517 174 171 184
0.24468 -0.87261 1.68517 174 171 184
0.24468 -0.87261 1.39938 174 171 184
0.21084 -0.87261 1.39938 174 171 184
0.20772 -0.87916 1.8116 41 34 34
0.20772 -0.87916 1.89939 41 34 34
0.25276 -0.87916 1.89939 41 34 34
0.25276 -0.87916 1.8116 41 34 34
0.20772 -0.86012 1.8116 41 34 34
0.25276 -0.86012 1.8116 41 34 34
0.25276 -0.86012 1.89939 41 34 34
0.20772 -0.86012 1.89939 41 34 34
-0.49263 -0.87261 1.68517 231 227 244
-0.56344 -0.87261 1.39938 231 227 244
-0.56406 -0.87261 1.80718 231 227 244
-0.45378 -0.87261 1.68517 231 227 244
-0.45378 -0.87261 1.39938 231 227 244
-0.44127 -0.86381 1.7691 224 136 126
-0.44127 -0.86381 2.05227 224 136 126
-0.09947 -0.86381 1.7691 224 136 126
-0.01664 -0.87261 1.68517 231 227 244
-0.01664 -0.87261 1.39938 231 227 244
-0.21084 -0.87261 1.39938 231 227 244
-0.21084 -0.87261 1.68517 231 227 244
-0.4237 -0.87261 1.68517 174 171 184
-0.4237 -0.87261 1.39938 174 171 184
-0.45378 -0.87261 1.39938 174 171 184
-0.45378 -0.87261 1.68517 174 171 184
-0.24468 -0.87261 1.68517 231 227 244
-0.24468 -0.87261 1.39938 231 227 244
-0.4237 -0.87261 1.39938 231 227 244
-0.4237 -0.87261 1.68517 231 227 244
-0.21084 -0.87261 1.68517 174 171 184
-0.21084 -0.87261 1.39938 174 171 184
-0.24468 -0.87261 1.39938 174 171 184
-0.24468 -0.87261 1.68517 174 171 184
-0.20772 -0.87916 1.8116 41 34 34
-0.25276 -0.87916 1.8116 41 34 34
-0.25276 -0.87916 1.89939 41 34 34
-0.20772 -0.87916 1.89939 41 34 34
-0.20772 -0.86012 1.8116 41 34 34
-0.25276 -0.86012 1.8116 41 34 34
-0.25276 -0.86012 1.89939 41 34 34
-0.20772 -0.86012 1.89939 41 34 34
-0.01664 -0.87261 1.68517 174 171 184
0.01663 -0.87261 1.68517 174 171 184
0.01663 -0.87261 1.39938 174 171 184
-0.01664 -0.87261 1.39938 174 171 184
0.7949 -0.37506 2.04869 117 111 147
1.21087 -0.37482 1.57784 117 111 147
0.90484 -0.37508 1.30729 117 111 147
0.48924 -0.37558 1.77846 117 111 147
0.9042 0.19424 1.30754 117 111 147
0.48916 0.19521 1.77849 117 111 147
1.13751 0.19469 1.04222 117 111 147
1.13818 -0.37463 1.04201 117 111 147
1.29152 -0.37534 1.12986 117 111 147
1.19019 -0.37538 1.04032 117 111 147
1.46798 -0.37509 1.28582 117 111 147
1.3745 -0.37524 1.03615 117 111 147
1.55097 -0.37489 1.19208 117 111 147
1.40437 -0.35971 1.03624 117 111 147
1.54723 -0.35946 1.16247 117 111 147
0.79491 0.19567 2.0487 121 115 152
1.21023 0.19449 1.57809 121 115 152
1.21087 -0.37482 1.57784 121 115 152
0.7949 -0.37506 2.04869 121 115 152
1.46765 -0.17358 1.28581 121 115 152
1.46792 -0.22574 1.28597 121 115 152
1.21023 0.19449 1.57809 117 111 147
0.79491 0.19567 2.0487 117 111 147
1.29127 0.19443 1.13046 117 111 147
1.18994 0.19438 1.04093 117 111 147
1.29134 0.0336 1.13031 117 111 147
1.37425 0.19452 1.03675 117 111 147
1.37431 0.03368 1.0366 117 111 147
1.55072 0.19487 1.19268 117 111 147
1.46773 0.19467 1.28642 117 111 147
1.40412 0.17914 1.0368 117 111 147
1.40418 0.0469 1.0367 117 111 147
1.54699 0.17938 1.16303 117 111 147
1.54705 0.04711 1.16293 117 111 147
1.29137 -0.01843 1.13024 117 111 147
1.46782 -0.01814 1.28619 117 111 147
1.46779 0.03381 1.28627 117 111 147
1.55081 -0.01791 1.19245 117 111 147
1.37434 -0.01831 1.03653 117 111 147
1.29119 -0.17386 1.12986 117 111 147
1.37417 -0.17375 1.03615 117 111 147
1.54706 -0.03692 1.16278 117 111 147
1.40419 -0.0372 1.03655 117 111 147
1.54693 -0.1544 1.16249 117 111 147
1.40407 -0.15467 1.03627 117 111 147
1.29146 -0.22595 1.13001 117 111 147
1.46792 -0.22574 1.28597 117 111 147
1.46765 -0.17358 1.28581 117 111 147
1.5509 -0.22557 1.19223 117 111 147
1.37443 -0.22587 1.0363 117 111 147
1.54717 -0.23875 1.16257 117 111 147
1.40431 -0.23895 1.03635 117 111 147
1.46798 -0.37509 1.28582 121 115 152
1.55097 -0.37489 1.19208 121 115 152
1.5509 -0.22557 1.19223 121 115 152
1.46773 0.19467 1.28642 121 115 152
1.55072 0.19487 1.19268 121 115 152
1.55078 0.03398 1.19253 121 115 152
1.46779 0.03381 1.28627 121 115 152
1.46782 -0.01814 1.28619 121 115 152
1.55064 -0.17334 1.19207 121 115 152
1.55081 -0.01791 1.19245 121 115 152
1.54693 -0.1544 1.16249 121 115 152
1.54706 -0.03692 1.16278 121 115 152
1.55078 0.03398 1.19253 117 111 147
1.55064 -0.17334 1.19207 117 111 147
1.54699 0.17938 1.16303 121 115 152
1.54705 0.04711 1.16293 121 115 152
1.54717 -0.23875 1.16257 121 115 152
1.54723 -0.35946 1.16247 121 115 152
-0.7949 -0.37506 2.04869 117 111 147
-0.48924 -0.37558 1.77846 117 111 147
-0.90484 -0.37508 1.30729 117 111 147
-1.21087 -0.37482 1.57784 117 111 147
-0.9042 0.19424 1.30754 117 111 147
-0.48916 0.19521 1.77849 117 111 147
-1.13751 0.19469 1.04222 117 111 147
-1.13818 -0.37463 1.04201 117 111 147
-1.29152 -0.37534 1.12986 117 111 147
-1.19019 -0.37538 1.04032 117 111 147
-1.46798 -0.37509 1.28582 117 111 147
-1.3745 -0.37524 1.03615 117 111 147
-1.55097 -0.37489 1.19208 117 111 147
-1.40437 -0.35971 1.03624 117 111 147
-1.54723 -0.35946 1.16247 117 111 147
-0.79491 0.19567 2.0487 121 115 152
-0.7949 -0.37506 2.04869 121 115 152
-1.21087 -0.37482 1.57784 121 115 152
-1.21023 0.19449 1.57809 121 115 152
-1.46765 -0.17358 1.28581 121 115 152
-1.46792 -0.22574 1.28597 121 115 152
-0.79491 0.19567 2.0487 117 111 147
-1.21023 0.19449 1.57809 117 111 147
-1.29127 0.19443 1.13046 117 111 147
-1.18994 0.19438 1.04093 117 111 147
-1.29134 0.0336 1.13031 117 111 147
-1.37425 0.19452 1.03675 117 111 147
-1.37431 0.03368 1.0366 117 111 147
-1.55072 0.19487 1.19268 117 111 147
-1.46773 0.19467 1.28642 117 111 147
-1.40412 0.17914 1.0368 117 111 147
-1.40418 0.0469 1.0367 117 111 147
-1.54699 0.17938 1.16303 117 111 147
-1.54705 0.04711 1.16293 117 111 147
-1.29137 -0.01843 1.13024 117 111 147
-1.46782 -0.01814 1.28619 117 111 147
-1.46779 0.03381 1.28627 117 111 147
-1.55081 -0.01791 1.19245 117 111 147
-1.37434 -0.01831 1.03653 117 111 147
-1.29119 -0.17386 1.12986 117 111 147
-1.37417 -0.17375 1.03615 117 111 147
-1.54706 -0.03692 1.16278 117 111 147
-1.40419 -0.0372 1.03655 117 111 147
-1.54693 -0.1544 1.16249 117 111 147
-1.40407 -0.15467 1.03627 117 111 147
-1.29146 -0.22595 1.13001 117 111 147
-1.46792 -0.22574 1.28597 117 111 147
-1.46765 -0.17358 1.28581 117 111 147
-1.5509 -0.22557 1.19223 117 111 147
-1.37443 -0.22587 1.0363 117 111 147
-1.54717 -0.23875 1.16257 117 111 147
-1.40431 -0.23895 1.03635 117 111 147
-1.46798 -0.37509 1.28582 121 115 152
-1.55097 -0.37489 1.19208 121 115 152
-1.5509 -0.22557 1.19223 121 115 152
-1.46773 0.19467 1.28642 121 115 152
-1.46779 0.03381 1.28627 121 115 152
-1.55078 0.03398 1.19253 121 115 152
-1.55072 0.19487 1.19268 121 115 152
-1.46782 -0.01814 1.28619 121 115 152
-1.55064 -0.17334 1.19207 121 115 152
-1.55081 -0.01791 1.19245 121 115 152
-1.54693 -0.1544 1.16249 121 115 152
-1.54706 -0.03692 1.16278 121 115 152
-1.55078 0.03398 1.19253 117 111 147
-1.55064 -0.17334 1.19207 117 111 147
-1.54705 0.04711 1.16293 121 115 152
-1.54699 0.17938 1.16303 121 115 152
-1.54723 -0.35946 1.16247 121 115 152
-1.54717 -0.23875 1.16257 121 115 152
0.68791 0.22183 0.36578 117 111 147
0.30703 0.22204 0.36578 117 111 147
0.30703 0.22204 0.00399 117 111 147
0.68791 0.22183 0.00399 117 111 147
0.74512 0.14757 0.36578 117 111 147
0.74512 0.14757 0.00399 117 111 147
0.24974 0.14785 0.00399 117 111 147
0.24974 0.14785 0.36578 117 111 147
0.24946 -0.30353 0.13482 117 111 147
0.24946 -0.30353 0.36578 117 111 147
0.24946 -0.30353 0.00399 117 111 147
0.2494 -0.40349 0.00399 117 111 147
0.2494 -0.40349 0.13482 117 111 147
0.38419 -0.40356 0.00399 117 111 147
0.38424 -0.3036 0.00399 117 111 147
0.42777 -0.30361 0.00399 117 111 147
0.56281 -0.3037 0.00399 117 111 147
0.42771 -0.40357 0.00399 117 111 147
0.56275 -0.40366 0.00399 117 111 147
0.42771 -0.40357 0.13482 117 111 147
0.56275 -0.40366 0.13482 117 111 147
0.56281 -0.3037 0.13482 117 111 147
0.61006 -0.30374 0.00399 117 111 147
0.61006 -0.30374 0.13482 117 111 147
0.74484 -0.30381 0.36578 117 111 147
0.74484 -0.30381 0.13482 117 111 147
0.74484 -0.30381 0.00399 117 111 147
0.74478 -0.40376 0.00399 117 111 147
0.61 -0.4037 0.00399 117 111 147
0.74478 -0.40376 0.13482 117 111 147
0.61 -0.4037 0.13482 117 111 147
0.42777 -0.30361 0.13482 117 111 147
0.38424 -0.3036 0.13482 117 111 147
0.38419 -0.40356 0.13482 117 111 147
0.74484 -0.30381 0.13482 121 115 152
0.74478 -0.40376 0.13482 121 115 152
0.61 -0.4037 0.13482 121 115 152
0.61006 -0.30374 0.13482 121 115 152
0.38424 -0.3036 0.13482 121 115 152
0.38419 -0.40356 0.13482 121 115 152
0.2494 -0.40349 0.13482 121 115 152
0.24946 -0.30353 0.13482 121 115 152
0.56281 -0.3037 0.13482 121 115 152
0.56275 -0.40366 0.13482 121 115 152
0.42771 -0.40357 0.13482 121 115 152
0.42777 -0.30361 0.13482 121 115 152
-0.68791 0.22183 0.36578 117 111 147
-0.68791 0.22183 0.00399 117 111 147
-0.30703 0.22204 0.00399 117 111 147
-0.30703 0.22204 0.36578 117 111 147
-0.74512 0.14757 0.36578 117 111 147
-0.74512 0.14757 0.00399 117 111 147
-0.24974 0.14785 0.00399 117 111 147
-0.24974 0.14785 0.36578 117 111 147
-0.24946 -0.30353 0.13482 117 111 147
-0.24946 -0.30353 0.36578 117 111 147
-0.24946 -0.30353 0.00399 117 111 147
-0.2494 -0.40349 0.00399 117 111 147
-0.2494 -0.40349 0.13482 117 111 147
-0.38419 -0.40356 0.00399 117 111 147
-0.38424 -0.3036 0.00399 117 111 147
-0.42777 -0.30361 0.00399 117 111 147
-0.56281 -0.3037 0.00399 117 111 147
-0.56275 -0.40366 0.00399 117 111 147
-0.56275 -0.40366 0.13482 117 111 147
-0.42771 -0.40357 0.13482 117 111 147
-0.42771 -0.40357 0.00399 117 111 147
-0.56281 -0.3037 0.13482 117 111 147
-0.61006 -0.30374 0.00399 117 111 147
-0.61006 -0.30374 0.13482 117 111 147
-0.74484 -0.30381 0.36578 117 111 147
-0.74484 -0.30381 0.13482 117 111 147
-0.74484 -0.30381 0.00399 117 111 147
-0.74478 -0.40376 0.00399 117 111 147
-0.61 -0.4037 0.00399 117 111 147
-0.74478 -0.40376 0.13482 117 111 147
-0.61 -0.4037 0.13482 117 111 147
-0.42777 -0.30361 0.13482 117 111 147
-0.38424 -0.3036 0.13482 117 111 147
-0.38419 -0.40356 0.13482 117 111 147
-0.74484 -0.30381 0.13482 121 115 152
-0.61006 -0.30374 0.13482 121 115 152
-0.61 -0.4037 0.13482 121 115 152
-0.74478 -0.40376 0.13482 121 115 152
-0.38424 -0.3036 0.13482 121 115 152
-0.24946 -0.30353 0.13482 121 115 152
-0.2494 -0.40349 0.13482 121 115 152
-0.38419 -0.40356 0.13482 121 115 152
-0.56281 -0.3037 0.13482 121 115 152
-0.42777 -0.30361 0.13482 121 115 152
-0.42771 -0.40357 0.13482 121 115 152
-0.56275 -0.40366 0.13482 121 115 152
3 0 2 1
3 0 3 2
3 1 2 4
3 1 4 5
3 6 8 7
3 6 9 8
3 10 8 9
3 10 11 8
3 11 7 8
3 12 11 10
3 12 13 11
3 14 11 13
3 11 14 7
3 14 6 7
3 14 13 15
3 15 16 14
3 14 16 6
3 15 17 16
3 18 20 19
3 18 21 20
3 19 20 22
3 19 22 23
3 24 26 25
3 24 27 26
3 28 26 27
3 28 29 26
3 29 25 26
3 30 29 28
3 30 31 29
3 32 29 31
3 29 32 25
3 32 24 25
3 32 31 33
3 33 34 32
3 32 34 24
3 33 35 34
3 36 38 37
3 36 39 38
3 39 40 38
3 39 41 40
3 37 38 42
3 37 42 43
3 38 44 42
3 38 40 44
3 40 45 44
3 40 46 45
3 46 40 41
3 46 41 47
3 48 50 49
3 48 51 50
3 52 48 49
3 52 53 48
3 54 53 52
3 54 55 53
3 56 58 57
3 56 59 58
3 60 56 57
3 60 57 61
3 57 58 62
3 57 62 63
3 61 57 63
3 61 63 64
3 65 61 64
3 61 65 66
3 61 66 60
3 66 65 67
3 66 67 68
3 68 67 69
3 68 69 70
3 67 65 71
3 65 64 71
3 67 71 72
3 69 67 72
3 69 72 73
3 60 66 74
3 60 74 75
3 66 76 74
3 66 68 76
3 68 77 76
3 68 70 77
3 77 74 76
3 77 75 74
3 70 78 77
3 78 75 77
3 70 79 78
3 79 80 78
3 80 81 78
3 78 81 75
3 80 82 81
3 59 81 82
3 82 83 59
3 80 83 82
3 59 56 81
3 56 75 81
3 56 60 75
3 79 84 80
3 84 83 80
3 85 84 79
3 85 79 86
3 79 69 86
3 79 70 69
3 85 86 87
3 85 87 88
3 88 89 85
3 86 73 87
3 86 69 73
3 62 89 88
3 58 89 62
3 84 85 90
3 84 90 91
3 92 91 90
3 92 90 93
3 90 94 93
3 90 95 94
3 96 90 85
3 89 96 85
3 90 97 95
3 96 97 90
3 97 96 98
3 97 98 99
3 96 100 98
3 96 101 100
3 101 99 100
3 101 97 99
3 95 102 94
3 95 103 102
3 95 104 103
3 95 97 104
3 104 97 101
3 103 104 105
3 105 104 106
3 101 106 104
3 105 106 107
3 101 108 106
3 96 108 101
3 106 108 109
3 110 106 109
3 110 111 106
3 111 112 106
3 113 106 112
3 107 106 113
3 114 110 109
3 115 114 109
3 115 116 114
3 115 117 116
3 118 117 115
3 118 119 117
3 120 119 118
3 120 118 121
3 59 121 118
3 59 118 58
3 122 121 59
3 118 115 123
3 124 118 123
3 124 58 118
3 123 125 124
3 123 126 125
3 124 125 127
3 124 127 108
3 108 126 123
3 108 127 126
3 89 58 124
3 89 124 96
3 96 124 108
3 109 108 123
3 115 109 123
3 128 120 121
3 129 121 122
3 129 128 121
3 130 129 122
3 131 130 122
3 131 122 132
3 133 131 132
3 133 132 134
3 134 132 135
3 135 132 136
3 135 136 137
3 137 136 138
3 138 136 91
3 136 84 91
3 138 91 139
3 139 91 92
3 136 83 84
3 132 83 136
3 132 122 83
3 83 122 59
3 140 142 141
3 140 143 142
3 141 142 144
3 141 144 145
3 145 144 146
3 145 146 147
3 148 150 149
3 148 151 150
3 149 150 152
3 149 152 153
3 154 156 155
3 154 157 156
3 158 156 157
3 158 159 156
3 159 155 156
3 160 159 158
3 161 159 160
3 159 161 155
3 161 154 155
3 161 160 162
3 160 158 163
3 161 162 164
3 161 164 165
3 161 165 154
3 166 168 167
3 166 169 168
3 169 170 168
3 169 171 170
3 172 166 167
3 172 167 173
3 167 168 174
3 167 174 175
3 168 176 174
3 168 170 176
3 170 177 176
3 170 173 177
3 173 175 177
3 173 167 175
3 173 170 171
3 173 171 172
3 178 180 179
3 178 181 180
3 182 184 183
3 182 185 184
3 185 186 184
3 185 187 186
3 188 182 183
3 188 183 189
3 183 184 190
3 183 190 191
3 184 192 190
3 184 186 192
3 186 193 192
3 186 189 193
3 189 191 193
3 189 183 191
3 189 186 187
3 189 187 188
3 194 196 195
3 194 197 196
3 198 200 199
3 198 201 200
3 199 200 202
3 199 202 203
3 204 206 205
3 204 207 206
3 208 206 207
3 208 209 206
3 209 205 206
3 210 209 208
3 210 211 209
3 212 209 211
3 209 212 205
3 212 204 205
3 212 211 213
3 213 214 212
3 212 214 204
3 213 215 214
3 216 218 217
3 216 219 218
3 219 220 218
3 219 221 220
3 222 216 217
3 222 217 223
3 217 218 224
3 217 224 225
3 218 226 224
3 218 220 226
3 220 227 226
3 220 223 227
3 223 225 227
3 223 217 225
3 223 220 221
3 223 221 222
3 228 230 229
3 228 231 230
3 232 234 233
3 232 235 234
3 233 234 236
3 233 236 237
3 238 240 239
3 238 241 240
3 242 240 241
3 242 243 240
3 243 239 240
3 244 243 242
3 244 245 243
3 246 243 245
3 243 246 239
3 246 238 239
3 246 245 247
3 247 248 246
3 246 248 238
3 247 249 248
3 250 252 251
3 250 253 252
3 251 252 254
3 251 254 255
3 256 258 257
3 256 259 258
3 260 258 259
3 260 261 258
3 261 257 258
3 262 261 260
3 262 263 261
3 264 261 263
3 261 264 257
3 264 256 257
3 264 263 265
3 265 266 264
3 264 266 256
3 265 267 266
3 268 270 269
3 268 271 270
3 269 270 272
3 269 272 273
3 271 274 270
3 271 275 274
3 270 274 276
3 270 276 272
3 272 276 277
3 272 277 278
3 278 273 272
3 278 279 273
3 280 282 281
3 280 283 282
3 284 280 285
3 284 283 280
3 286 285 287
3 286 284 285
3 288 290 289
3 288 291 290
3 291 292 290
3 291 293 292
3 294 296 295
3 294 297 296
3 298 295 296
3 298 296 299
3 299 296 297
3 300 298 299
3 300 299 301
3 302 301 299
3 299 297 302
3 302 297 294
3 302 303 301
3 303 302 304
3 302 294 304
3 303 304 305
3 306 308 307
3 306 309 308
3 309 310 308
3 309 311 310
3 312 314 313
3 312 315 314
3 316 313 314
3 316 314 317
3 317 314 315
3 318 316 317
3 318 317 319
3 320 319 317
3 317 315 320
3 320 315 312
3 320 321 319
3 321 320 322
3 320 312 322
3 321 322 323
3 324 326 325
3 327 326 324
3 327 328 326
3 329 331 330
3 332 334 333
3 332 335 334
3 336 338 337
3 336 339 338
3 340 342 341
3 340 343 342
3 344 346 345
3 344 347 346
3 348 350 349
3 348 351 350
3 352 351 348
3 352 348 349
3 352 353 351
3 351 354 350
3 351 353 354
3 352 349 355
3 356 358 357
3 359 356 357
3 359 357 360
3 361 363 362
3 364 366 365
3 364 367 366
3 368 370 369
3 368 371 370
3 372 374 373
3 372 375 374
3 376 378 377
3 376 379 378
3 380 382 381
3 380 383 382
3 384 380 381
3 384 383 380
3 384 381 385
3 381 386 385
3 381 382 386
3 384 387 383
3 388 390 389
3 388 391 390
3 392 394 393
3 392 395 394
3 395 396 394
3 395 397 396
3 394 396 398
3 394 398 399
3 400 394 399
3 400 399 401
3 402 394 400
3 402 393 394
3 402 400 403
3 402 403 404
3 404 403 405
3 404 405 406
3 407 409 408
3 407 410 409
3 411 409 412
3 397 413 396
3 397 414 413
3 415 396 413
3 398 396 415
3 398 415 416
3 399 398 416
3 399 416 401
3 416 415 417
3 417 415 418
3 417 418 419
3 415 420 418
3 415 421 420
3 415 413 421
3 419 418 422
3 419 422 423
3 424 423 422
3 418 424 422
3 418 420 424
3 424 425 423
3 416 417 426
3 417 427 426
3 417 428 427
3 426 427 429
3 426 429 430
3 431 426 430
3 431 430 432
3 430 429 433
3 430 433 434
3 432 430 434
3 434 433 435
3 434 435 436
3 432 434 436
3 416 426 431
3 416 431 401
3 401 431 437
3 431 438 437
3 431 439 438
3 437 438 440
3 437 440 441
3 400 437 441
3 401 437 400
3 400 441 403
3 441 440 442
3 441 442 443
3 403 441 443
3 443 442 406
3 443 406 405
3 403 443 405
3 412 409 444
3 412 444 445
3 412 445 446
3 447 449 448
3 447 450 449
3 447 408 450
3 450 408 451
3 451 408 409
3 451 409 411
3 451 411 452
3 451 452 453
3 453 452 454
3 453 454 455
3 428 419 456
3 428 417 419
3 456 419 423
3 456 423 425
3 439 432 457
3 439 431 432
3 457 432 436
3 457 436 435
3 448 459 458
3 448 449 459
3 446 461 460
3 446 445 461
3 462 464 463
3 462 465 464
3 463 464 466
3 463 466 467
3 464 468 466
3 464 469 468
3 470 469 464
3 470 471 469
3 472 464 465
3 472 470 464
3 472 473 470
3 472 474 473
3 474 475 473
3 474 476 475
3 477 479 478
3 477 480 479
3 481 482 479
3 467 484 483
3 467 466 484
3 485 484 466
3 468 485 466
3 468 486 485
3 469 486 468
3 469 471 486
3 486 487 485
3 487 488 485
3 487 489 488
3 485 488 490
3 485 490 491
3 485 491 484
3 489 492 488
3 489 493 492
3 494 492 493
3 488 494 490
3 488 492 494
3 494 493 495
3 486 496 487
3 487 496 497
3 487 497 498
3 496 499 497
3 496 500 499
3 501 500 496
3 501 502 500
3 500 503 499
3 500 504 503
3 502 504 500
3 504 505 503
3 504 506 505
3 502 506 504
3 486 501 496
3 486 471 501
3 471 507 501
3 501 507 508
3 501 508 509
3 507 510 508
3 507 511 510
3 470 511 507
3 471 470 507
3 470 473 511
3 511 512 510
3 511 513 512
3 473 513 511
3 513 476 512
3 513 475 476
3 473 475 513
3 482 514 479
3 482 515 514
3 482 516 515
3 517 519 518
3 517 520 519
3 517 518 480
3 518 521 480
3 521 479 480
3 521 481 479
3 521 522 481
3 521 523 522
3 523 524 522
3 523 525 524
3 498 489 487
3 498 526 489
3 526 493 489
3 526 495 493
3 509 502 501
3 509 527 502
3 527 506 502
3 527 505 506
3 520 528 519
3 520 529 528
3 516 530 515
3 516 531 530
3 532 534 533
3 532 535 534
3 536 535 532
3 536 537 535
3 537 534 535
3 537 538 534
3 538 533 534
3 538 539 533
3 540 539 538
3 540 541 539
3 542 540 538
3 540 542 543
3 540 543 544
3 542 545 543
3 542 546 545
3 538 546 542
3 538 547 546
3 538 548 547
3 538 537 548
3 547 550 549
3 550 551 549
3 550 552 551
3 548 552 550
3 547 548 550
3 548 553 552
3 554 553 548
3 554 555 553
3 556 553 555
3 556 555 557
3 536 556 557
3 536 557 537
3 548 537 554
3 537 557 558
3 554 537 558
3 554 558 559
3 554 559 560
3 561 560 559
3 558 561 559
3 558 557 561
3 561 562 560
3 541 553 556
3 541 563 553
3 541 564 563
3 541 540 564
3 547 563 564
3 547 564 546
3 546 564 565
3 546 565 545
3 545 565 544
3 545 544 543
3 566 568 567
3 566 569 568
3 555 560 562
3 555 554 560
3 570 572 571
3 570 573 572
3 574 576 575
3 574 577 576
3 563 549 551
3 563 547 549
3 578 580 579
3 578 581 580
3 582 578 579
3 582 579 583
3 583 579 580
3 583 580 584
3 584 580 581
3 584 581 585
3 586 584 585
3 586 585 587
3 588 584 586
3 586 589 588
3 586 590 589
3 588 589 591
3 588 591 592
3 584 588 592
3 584 592 593
3 584 594 583
3 584 593 594
3 593 595 594
3 594 595 596
3 595 597 596
3 595 598 597
3 593 598 595
3 594 596 599
3 600 594 599
3 600 599 601
3 602 601 599
3 602 603 601
3 582 603 602
3 582 583 603
3 594 600 583
3 583 604 603
3 600 604 583
3 600 605 604
3 600 606 605
3 607 605 606
3 604 607 603
3 604 605 607
3 607 606 608
3 587 602 599
3 587 599 609
3 587 609 610
3 587 610 586
3 593 610 609
3 593 592 610
3 592 611 610
3 592 591 611
3 591 590 611
3 591 589 590
3 612 614 613
3 612 615 614
3 601 606 600
3 601 608 606
3 616 618 617
3 616 619 618
3 620 622 621
3 620 623 622
3 609 598 593
3 609 597 598
