ply
format ascii 1.0
element vertex 706
property float x
property float y
property float z
property uchar red
property uchar green
property uchar blue
element face 848
property list uchar int vertex_index
end_header
-0.34687 -0.11196 1.17491 188 192 104
-0.34687 -0.11196 1.44116 188 192 104
-0.29755 -0.11196 1.44116 188 192 104
-0.29755 -0.11196 1.17491 188 192 104
-0.29755 -0.34684 1.44116 188 192 104
-0.34687 -0.37448 1.44116 188 192 104
-0.26176 -0.37448 1.44116 188 192 104
-0.2719 -0.43521 1.44116 188 192 104
0.2719 -0.43521 1.44116 188 192 104
0.26176 -0.37448 1.44116 188 192 104
0.34687 -0.37448 1.44116 188 192 104
0.29755 -0.34684 1.44116 188 192 104
0.34687 -0.11196 1.44116 188 192 104
0.29755 -0.11196 1.44116 188 192 104
0.34687 -0.11196 1.17491 188 192 104
0.29755 -0.11196 1.17491 188 192 104
0.34687 -0.11196 1.6154 188 192 104
0.34687 -0.37448 1.6154 188 192 104
0.34687 0.15632 1.17491 188 192 104
0.34687 0.15632 1.12744 188 192 104
0.2719 0.21705 1.12744 188 192 104
0.2719 0.21705 1.17491 188 192 104
0.30004 0.1177 1.0878 188 192 104
0.2352 0.17022 1.0878 188 192 104
0.34687 -0.37448 1.12744 188 192 104
0.30004 -0.33586 1.0878 188 192 104
0.2352 -0.38838 1.0878 188 192 104
0.2719 -0.43521 1.12744 188 192 104
-0.2719 -0.43521 1.12744 188 192 104
-0.2352 -0.38838 1.0878 188 192 104
-0.30004 -0.33586 1.0878 188 192 104
-0.30004 0.1177 1.0878 188 192 104
-0.2352 0.17022 1.0878 188 192 104
0.2719 0.21705 1.44116 188 192 104
-0.2719 0.21705 1.17491 188 192 104
-0.2719 0.21705 1.44116 188 192 104
0.2719 0.21705 1.68791 188 192 104
-0.2719 0.21705 1.68791 188 192 104
0.23565 0.1708 1.73574 188 192 104
-0.23565 0.1708 1.73574 188 192 104
0.34687 0.15632 1.68791 188 192 104
0.30062 0.11817 1.73574 188 192 104
0.30062 -0.33633 1.73574 188 192 104
0.34687 -0.37448 1.68791 188 192 104
0.2719 -0.43521 1.68791 188 192 104
0.34687 -0.37448 1.67142 188 192 104
0.2719 -0.43521 1.67142 188 192 104
0.23565 -0.38896 1.73574 188 192 104
0.34687 0.15632 1.44116 188 192 104
0.34687 -0.11196 1.67142 188 192 104
-0.2719 -0.43521 1.67142 188 192 104
-0.2719 -0.43521 1.68791 188 192 104
-0.23565 -0.38896 1.73574 188 192 104
-0.2719 -0.43521 1.17491 194 198 106
-0.34687 -0.37448 1.17491 194 198 106
-0.29755 -0.34684 1.17491 194 198 106
-0.26176 -0.37448 1.17491 194 198 106
-0.29755 -0.11196 1.17491 194 198 106
-0.34687 -0.11196 1.17491 194 198 106
0.26176 -0.37448 1.17491 194 198 106
0.2719 -0.43521 1.17491 194 198 106
-0.29755 -0.34684 1.44116 159 103 95
-0.26176 -0.37448 1.44116 159 103 95
0.26176 -0.37448 1.44116 159 103 95
0.29755 -0.34684 1.44116 159 103 95
-0.29755 -0.11196 1.44116 159 103 95
0.29755 -0.11196 1.44116 159 103 95
-0.29755 -0.11196 1.17491 159 103 95
0.29755 -0.11196 1.17491 159 103 95
-0.29755 -0.34684 1.17491 159 103 95
0.29755 -0.34684 1.17491 159 103 95
-0.26176 -0.37448 1.17491 159 103 95
0.26176 -0.37448 1.17491 159 103 95
0.29755 -0.34684 1.17491 194 198 106
0.34687 -0.37448 1.17491 194 198 106
0.29755 -0.11196 1.17491 194 198 106
0.34687 -0.11196 1.17491 194 198 106
-0.23512 -0.32203 1.17085 201 144 128
-0.23512 -0.32203 1.31209 201 144 128
0.23512 -0.32203 1.31209 201 144 128
0.23512 -0.32203 1.17085 201 144 128
0.23512 -0.04246 1.31209 201 144 128
-0.23512 -0.04246 1.31209 201 144 128
0.23512 -0.04246 1.17085 201 144 128
-0.23512 -0.04246 1.17085 201 144 128
0.30642 -0.16819 1.49579 241 209 165
0.30642 -0.16819 1.6736 241 209 165
0.40255 -0.16819 1.6736 241 209 165
0.40255 -0.16819 1.49579 241 209 165
0.40255 -0.09478 1.6736 241 209 165
0.30642 -0.09478 1.6736 241 209 165
0.40255 0.00962 1.49579 241 209 165
0.30642 0.00962 1.49579 241 209 165
0.30642 0.00962 1.6736 241 209 165
0.40255 0.00962 1.6736 241 209 165
0.40255 -0.06309 1.54051 241 209 165
0.40255 -0.09478 1.54051 241 209 165
0.30642 -0.06309 1.6736 241 209 165
0.40255 -0.06309 1.6736 241 209 165
0.30642 -0.09478 1.6736 59 46 32
0.30642 -0.06309 1.6736 59 46 32
0.40255 -0.06309 1.6736 59 46 32
0.40255 -0.09478 1.6736 59 46 32
0.40255 -0.06309 1.54051 59 46 32
0.40255 -0.09478 1.54051 59 46 32
-0.30642 -0.16819 1.49579 241 209 165
-0.40255 -0.16819 1.49579 241 209 165
-0.40255 -0.16819 1.6736 241 209 165
-0.30642 -0.16819 1.6736 241 209 165
-0.40255 -0.09478 1.6736 241 209 165
-0.30642 -0.09478 1.6736 241 209 165
-0.40255 0.00962 1.49579 241 209 165
-0.30642 0.00962 1.49579 241 209 165
-0.30642 0.00962 1.6736 241 209 165
-0.40255 0.00962 1.6736 241 209 165
-0.40255 -0.06309 1.54051 241 209 165
-0.40255 -0.09478 1.54051 241 209 165
-0.30642 -0.06309 1.6736 241 209 165
-0.40255 -0.06309 1.6736 241 209 165
-0.30642 -0.09478 1.6736 59 46 32
-0.40255 -0.09478 1.6736 59 46 32
-0.40255 -0.06309 1.6736 59 46 32
-0.30642 -0.06309 1.6736 59 46 32
-0.40255 -0.06309 1.54051 59 46 32
-0.40255 -0.09478 1.54051 59 46 32
-0.21887 0.20664 0.81192 188 192 104
-0.21887 0.20664 0.97317 188 192 104
-0.15625 0.15284 0.97317 188 192 104
-0.15625 0.15284 0.81192 188 192 104
-0.21887 0.53677 0.81192 188 192 104
-0.21887 0.53677 0.97317 188 192 104
-0.15625 0.59057 0.81192 188 192 104
-0.15625 0.59057 0.97317 188 192 104
0.15625 0.15284 0.81192 188 192 104
0.15625 0.15284 0.97317 188 192 104
0.15625 0.59057 0.97317 188 192 104
0.15625 0.59057 0.81192 188 192 104
0.1276 0.55045 1.5964 194 198 106
0.17874 0.50651 1.5964 194 198 106
-0.17874 0.50651 1.5964 194 198 106
-0.1276 0.55045 1.5964 194 198 106
-0.17874 0.2369 1.5964 194 198 106
0.17874 0.2369 1.5964 194 198 106
-0.21887 0.53677 1.5597 188 192 104
-0.21887 0.53677 1.19093 188 192 104
-0.15625 0.59057 1.19093 188 192 104
-0.15625 0.59057 1.5597 188 192 104
-0.21887 0.20664 1.5597 188 192 104
-0.21887 0.20664 1.19093 188 192 104
-0.15625 0.15284 1.5597 188 192 104
-0.15625 0.15284 1.19093 188 192 104
0.15625 0.59057 1.5597 188 192 104
0.15625 0.59057 1.19093 188 192 104
0.15625 0.15284 1.19093 188 192 104
0.15625 0.15284 1.5597 188 192 104
-0.17874 0.50651 1.5964 188 192 104
-0.1276 0.55045 1.5964 188 192 104
0.1276 0.55045 1.5964 188 192 104
-0.17874 0.2369 1.5964 188 192 104
-0.1276 0.19297 1.5964 188 192 104
0.1276 0.19297 1.5964 188 192 104
0.21887 0.53677 1.5597 188 192 104
0.21887 0.53677 1.19093 188 192 104
0.21887 0.20664 1.19093 188 192 104
0.21887 0.20664 1.5597 188 192 104
0.17874 0.2369 1.5964 188 192 104
0.17874 0.50651 1.5964 188 192 104
0.21887 0.20664 0.81192 188 192 104
0.21887 0.20664 0.97317 188 192 104
0.21887 0.53677 0.97317 188 192 104
0.21887 0.53677 0.81192 188 192 104
-0.21887 0.53677 1.19093 235 199 134
-0.21887 0.53677 0.97317 235 199 134
-0.15625 0.59057 0.97317 235 199 134
-0.15625 0.59057 1.19093 235 199 134
-0.21887 0.20664 1.19093 235 199 134
-0.21887 0.20664 0.97317 235 199 134
-0.15625 0.15284 1.19093 235 199 134
-0.15625 0.15284 0.97317 235 199 134
0.15625 0.59057 1.19093 235 199 134
0.15625 0.59057 0.97317 235 199 134
0.15625 0.15284 0.97317 235 199 134
0.15625 0.15284 1.19093 235 199 134
0.21887 0.20664 0.97317 235 199 134
0.21887 0.20664 1.19093 235 199 134
0.21887 0.53677 1.19093 235 199 134
0.21887 0.53677 0.97317 235 199 134
-0.67353 -0.65903 0.48508 235 199 134
-0.67353 -0.65903 0.51903 235 199 134
-0.59194 -0.73096 0.51903 235 199 134
-0.59194 -0.73096 0.48508 235 199 134
-0.62435 -0.56437 0.43873 235 199 134
-0.62428 0.43907 0.43873 235 199 134
-0.67353 0.54416 0.48508 235 199 134
-0.49426 0.55997 0.43873 235 199 134
-0.25921 0.06828 0.43873 235 199 134
-0.14286 0.18173 0.43873 235 199 134
-0.12176 0.11726 0.48508 235 199 134
-0.20398 0.04354 0.48508 235 199 134
-0.25928 -0.21975 0.43873 235 199 134
-0.49433 -0.6891 0.43873 235 199 134
-0.14293 -0.33703 0.43873 235 199 134
-0.20398 -0.1941 0.48508 235 199 134
0.59194 -0.73096 0.48508 235 199 134
0.49432 -0.6891 0.43873 235 199 134
0.1384 -0.33703 0.43873 235 199 134
0.25475 -0.21975 0.43873 235 199 134
0.62435 -0.56437 0.43873 235 199 134
0.25468 0.06828 0.43873 235 199 134
0.62428 0.43907 0.43873 235 199 134
-0.12176 -0.27336 0.48508 235 199 134
0.11725 -0.27336 0.48508 235 199 134
0.19946 -0.20122 0.48508 235 199 134
0.19946 0.04626 0.48508 235 199 134
0.13833 0.18173 0.43873 235 199 134
0.49426 0.55997 0.43873 235 199 134
0.11725 0.11726 0.48508 235 199 134
0.59194 0.6161 0.48508 235 199 134
0.67353 0.54416 0.48508 235 199 134
0.67353 0.54416 0.51903 235 199 134
0.59194 0.6161 0.51903 235 199 134
-0.59194 0.6161 0.48508 235 199 134
-0.59194 0.6161 0.51903 235 199 134
0.67353 -0.1374 0.48508 235 199 134
-0.67353 0.54416 0.51903 235 199 134
0.67353 0.06895 0.51903 235 199 134
0.67353 -0.09808 0.51903 235 199 134
0.67353 -0.65903 0.48508 235 199 134
0.67353 -0.65903 0.51903 235 199 134
0.59194 -0.73096 0.51903 235 199 134
-0.12176 0.11726 0.51903 235 199 134
0.11732 0.11725 0.51903 235 199 134
0.19946 0.04626 0.51903 235 199 134
0.19946 -0.09782 0.51903 235 199 134
0.19946 -0.20122 0.51903 235 199 134
0.11725 -0.27336 0.51903 235 199 134
-0.12176 -0.27336 0.51903 235 199 134
-0.20398 -0.1941 0.51903 235 199 134
-0.20398 0.04354 0.51903 235 199 134
-0.14295 -0.33762 0.85229 194 198 106
0.13843 -0.33762 0.85229 194 198 106
0.53896 -0.68857 0.85229 194 198 106
-0.53896 -0.68857 0.85229 194 198 106
-0.25998 -0.21963 0.85229 194 198 106
-0.62373 -0.61272 0.85229 194 198 106
-0.25991 0.06844 0.85229 194 198 106
-0.62366 0.48729 0.85229 194 198 106
-0.53888 0.55926 0.85229 194 198 106
-0.14289 0.18255 0.85229 194 198 106
0.13836 0.18255 0.85229 194 198 106
0.53888 0.55926 0.85229 194 198 106
0.25538 0.06844 0.85229 194 198 106
0.62366 0.48729 0.85229 194 198 106
0.62369 0.06882 0.85229 194 198 106
0.25545 -0.21963 0.85229 194 198 106
0.62373 -0.61272 0.85229 194 198 106
0.2554 -0.09786 0.85229 194 198 106
0.62369 -0.09814 0.85229 194 198 106
-0.67353 0.54416 0.8162 188 192 104
-0.67353 0.54416 0.51903 188 192 104
-0.59194 0.6161 0.51903 188 192 104
-0.59194 0.6161 0.8162 188 192 104
-0.67353 -0.65903 0.51903 188 192 104
-0.67353 -0.65903 0.8162 188 192 104
-0.62373 -0.61272 0.85229 188 192 104
-0.53896 -0.68857 0.85229 188 192 104
-0.59194 -0.73096 0.8162 188 192 104
-0.62366 0.48729 0.85229 188 192 104
-0.53888 0.55926 0.85229 188 192 104
0.59194 0.6161 0.8162 188 192 104
0.53888 0.55926 0.85229 188 192 104
0.67353 0.54416 0.8162 188 192 104
0.62366 0.48729 0.85229 188 192 104
0.62369 0.06882 0.85229 188 192 104
0.67353 0.06883 0.8162 188 192 104
0.67353 0.06895 0.51903 188 192 104
0.67353 0.54416 0.51903 188 192 104
-0.59194 -0.73096 0.51903 188 192 104
0.59194 -0.73096 0.51903 188 192 104
0.59194 -0.73096 0.8162 188 192 104
0.67353 -0.65903 0.51903 188 192 104
0.67353 -0.65903 0.8162 188 192 104
0.62373 -0.61272 0.85229 188 192 104
0.53896 -0.68857 0.85229 188 192 104
0.62369 -0.09814 0.85229 188 192 104
0.67353 -0.09819 0.8162 188 192 104
0.67353 -0.09808 0.51903 188 192 104
0.59194 0.6161 0.51903 188 192 104
0.11725 0.11726 0.8162 188 192 104
0.11732 0.11725 0.51903 188 192 104
-0.12176 0.11726 0.51903 188 192 104
-0.12176 0.11726 0.8162 188 192 104
0.19946 0.04626 0.51903 188 192 104
0.19946 0.04626 0.8162 188 192 104
0.25538 0.06844 0.85229 188 192 104
0.13836 0.18255 0.85229 188 192 104
-0.14289 0.18255 0.85229 188 192 104
-0.20398 0.04354 0.8162 188 192 104
-0.20398 0.04354 0.51903 188 192 104
-0.20398 -0.1941 0.51903 188 192 104
-0.20398 -0.1941 0.8162 188 192 104
-0.12176 -0.27336 0.51903 188 192 104
-0.12176 -0.27336 0.8162 188 192 104
-0.25998 -0.21963 0.85229 188 192 104
-0.14295 -0.33762 0.85229 188 192 104
0.11725 -0.27336 0.8162 188 192 104
0.13843 -0.33762 0.85229 188 192 104
0.19946 -0.20122 0.8162 188 192 104
0.19946 -0.20122 0.51903 188 192 104
0.19946 -0.09782 0.51903 188 192 104
0.19946 -0.09778 0.8162 188 192 104
0.11725 -0.27336 0.51903 188 192 104
0.25545 -0.21963 0.85229 188 192 104
0.2554 -0.09786 0.85229 188 192 104
-0.25991 0.06844 0.85229 188 192 104
0.62369 0.06882 0.85229 177 181 89
0.62369 -0.09814 0.85229 177 181 89
0.2554 -0.09786 0.85229 177 181 89
0.25538 0.06844 0.85229 177 181 89
0.19946 0.04626 0.8162 177 181 89
0.19946 -0.09778 0.8162 177 181 89
0.19946 -0.09782 0.51903 177 181 89
0.19946 0.04626 0.51903 177 181 89
0.67353 0.06883 0.8162 177 181 89
0.67353 -0.09819 0.8162 177 181 89
0.67353 0.06895 0.51903 177 181 89
0.67353 -0.09808 0.51903 177 181 89
0.23565 -0.38896 1.73574 194 198 106
-0.23565 -0.38896 1.73574 194 198 106
-0.30062 -0.33633 1.73574 194 198 106
0.30062 -0.33633 1.73574 194 198 106
0.30062 0.11817 1.73574 194 198 106
-0.30062 0.11817 1.73574 194 198 106
-0.23565 0.1708 1.73574 194 198 106
0.23565 0.1708 1.73574 194 198 106
-0.2719 -0.43521 1.17491 188 192 104
0.2719 -0.43521 1.17491 188 192 104
-0.34687 -0.37448 1.17491 188 192 104
-0.34687 -0.37448 1.12744 188 192 104
-0.34687 0.15632 1.12744 188 192 104
-0.2719 0.21705 1.12744 188 192 104
-0.34687 0.15632 1.17491 188 192 104
-0.34687 0.15632 1.44116 188 192 104
-0.34687 0.15632 1.68791 188 192 104
-0.30062 0.11817 1.73574 188 192 104
-0.30062 -0.33633 1.73574 188 192 104
-0.34687 -0.37448 1.68791 188 192 104
-0.34687 -0.37448 1.67142 188 192 104
-0.34687 -0.11196 1.67142 188 192 104
-0.34687 -0.11196 1.6154 188 192 104
-0.34687 -0.37448 1.6154 188 192 104
-0.34674 -0.49591 1.6154 188 192 104
-0.34674 -0.49591 1.44116 188 192 104
-0.27199 -0.55701 1.44116 188 192 104
-0.27199 -0.55701 1.6154 188 192 104
-0.05575 -0.55701 1.53856 188 192 104
-0.0253 -0.55701 1.53856 188 192 104
0 -0.55701 1.6154 188 192 104
-0.05575 -0.55701 1.47274 188 192 104
0 -0.55701 1.44116 188 192 104
-0.0253 -0.55701 1.47274 188 192 104
0.0253 -0.55701 1.53856 188 192 104
0.0253 -0.55701 1.47274 188 192 104
0.27199 -0.55701 1.44116 188 192 104
0.34674 -0.49591 1.44116 188 192 104
0.34674 -0.49591 1.6154 188 192 104
0.27199 -0.55701 1.6154 188 192 104
0.05575 -0.55701 1.53856 188 192 104
0.05575 -0.55701 1.47274 188 192 104
0.34687 -0.37448 1.17491 188 192 104
0.2719 -0.43521 1.6154 177 181 89
-0.2719 -0.43521 1.6154 177 181 89
-0.2719 -0.43521 1.67142 177 181 89
0.2719 -0.43521 1.67142 177 181 89
0.34687 -0.37448 1.67142 177 181 89
0.34687 -0.37448 1.6154 177 181 89
0.34687 -0.11196 1.67142 177 181 89
0.34687 -0.11196 1.6154 177 181 89
0 -0.55701 1.6154 194 198 106
-0.27199 -0.55701 1.6154 194 198 106
-0.2719 -0.43521 1.6154 194 198 106
-0.34687 -0.37448 1.6154 194 198 106
-0.34674 -0.49591 1.6154 194 198 106
0.27199 -0.55701 1.6154 194 198 106
0.2719 -0.43521 1.6154 194 198 106
0.34687 -0.37448 1.6154 194 198 106
0.34674 -0.49591 1.6154 194 198 106
-0.34687 -0.37448 1.67142 177 181 89
-0.34687 -0.37448 1.6154 177 181 89
-0.34687 -0.11196 1.67142 177 181 89
-0.34687 -0.11196 1.6154 177 181 89
-0.85935 -0.82501 0.05652 235 199 134
-0.85935 -0.82501 0.09272 235 199 134
-0.75525 -0.91679 0.09272 235 199 134
-0.75525 -0.91679 0.05652 235 199 134
-0.79661 -0.70423 0.00712 235 199 134
-0.79652 0.57605 0.00712 235 199 134
-0.85935 0.71014 0.05652 235 199 134
-0.63062 0.7303 0.00712 235 199 134
-0.33072 0.10296 0.00712 235 199 134
-0.18228 0.24771 0.00712 235 199 134
-0.15535 0.16546 0.05652 235 199 134
-0.26026 0.07139 0.05652 235 199 134
-0.33081 -0.26453 0.00712 235 199 134
-0.63071 -0.86337 0.00712 235 199 134
-0.18236 -0.41417 0.00712 235 199 134
-0.26026 -0.2318 0.05652 235 199 134
-0.75525 0.80192 0.05652 235 199 134
-0.15535 -0.33294 0.05652 235 199 134
-0.85935 0.71014 0.09272 235 199 134
-0.75525 0.80192 0.09272 235 199 134
0.75525 0.80192 0.09272 235 199 134
0.75525 0.80192 0.05652 235 199 134
0.85935 0.71014 0.09272 235 199 134
0.85935 0.71014 0.05652 235 199 134
0.79652 0.57605 0.00712 235 199 134
0.85935 -0.07297 0.05652 235 199 134
0.63062 0.7303 0.00712 235 199 134
0.32495 0.10296 0.00712 235 199 134
0.1765 0.24771 0.00712 235 199 134
0.25448 0.07486 0.05652 235 199 134
0.25448 -0.24089 0.05652 235 199 134
0.32503 -0.26453 0.00712 235 199 134
0.79661 -0.70423 0.00712 235 199 134
0.63071 -0.86337 0.00712 235 199 134
0.17659 -0.41417 0.00712 235 199 134
0.14959 -0.33294 0.05652 235 199 134
0.14959 0.16546 0.05652 235 199 134
-0.15535 0.16546 0.09272 235 199 134
0.14969 0.16544 0.09272 235 199 134
0.25448 0.07486 0.09272 235 199 134
0.25448 -0.09878 0.09272 235 199 134
0.25448 -0.24089 0.09272 235 199 134
0.14959 -0.33294 0.09272 235 199 134
-0.01565 -0.33294 0.09272 235 199 134
-0.15535 -0.33294 0.09272 235 199 134
-0.26026 -0.2318 0.09272 235 199 134
-0.26026 0.07139 0.09272 235 199 134
0.7141 -0.86269 0.44797 194 198 106
-0.01643 -0.86269 0.44797 194 198 106
-0.01548 -0.41492 0.44797 194 198 106
0.17662 -0.41492 0.44797 194 198 106
0.32593 -0.26438 0.44797 194 198 106
0.79581 -0.77519 0.44797 194 198 106
0.79578 -0.26439 0.44797 194 198 106
-0.85935 0.71014 0.4095 188 192 104
-0.85935 0.71014 0.09272 188 192 104
-0.75525 0.80192 0.09272 188 192 104
-0.75525 0.80192 0.4095 188 192 104
-0.85935 -0.82501 0.09272 188 192 104
-0.85935 -0.82501 0.4095 188 192 104
-0.79581 -0.77519 0.44797 188 192 104
-0.7141 -0.86269 0.44797 188 192 104
-0.75525 -0.91679 0.4095 188 192 104
-0.79573 0.65983 0.44797 188 192 104
-0.714 0.7294 0.44797 188 192 104
0.75525 0.80192 0.4095 188 192 104
0.714 0.7294 0.44797 188 192 104
0.85935 0.71014 0.4095 188 192 104
0.79572 0.65983 0.44797 188 192 104
0.79576 0.10366 0.44797 188 192 104
0.85935 0.10366 0.4095 188 192 104
0.85935 0.10382 0.09272 188 192 104
0.85935 0.71014 0.09272 188 192 104
-0.75525 -0.91679 0.09272 188 192 104
0.75525 0.80192 0.09272 188 192 104
0.85935 -0.09804 0.4095 188 192 104
0.79578 -0.09801 0.44797 188 192 104
0.85935 -0.09704 0.09272 188 192 104
-0.18241 -0.91679 0.09272 188 192 104
-0.1824 -0.91679 0.4095 188 192 104
-0.18256 -0.86269 0.44797 188 192 104
0.75525 -0.91679 0.09272 188 192 104
-0.01646 -0.91679 0.09272 188 192 104
-0.01657 -0.91679 0.4095 188 192 104
0.75525 -0.91679 0.4095 188 192 104
0.85935 -0.82501 0.09272 188 192 104
0.85935 -0.82501 0.4095 188 192 104
-0.01643 -0.86269 0.44797 188 192 104
0.7141 -0.86269 0.44797 188 192 104
0.79581 -0.77519 0.44797 188 192 104
0.79578 -0.26439 0.44797 188 192 104
0.85935 -0.2643 0.4095 188 192 104
0.85935 -0.26339 0.09272 188 192 104
-0.714 0.7294 0.44797 194 198 106
0.714 0.7294 0.44797 194 198 106
0.17653 0.24876 0.44797 194 198 106
-0.18231 0.24876 0.44797 194 198 106
0.32584 0.10317 0.44797 194 198 106
0.79572 0.65983 0.44797 194 198 106
0.79576 0.10366 0.44797 194 198 106
-0.33161 0.10317 0.44797 194 198 106
-0.79573 0.65983 0.44797 194 198 106
-0.79581 -0.77519 0.44797 194 198 106
-0.3317 -0.26438 0.44797 194 198 106
-0.7141 -0.86269 0.44797 194 198 106
-0.18239 -0.41492 0.44797 194 198 106
0.79578 -0.09801 0.44797 194 198 106
0.3259 -0.09856 0.44797 194 198 106
-0.18256 -0.86269 0.44797 194 198 106
0.14959 0.16546 0.4095 188 192 104
0.14969 0.16544 0.09272 188 192 104
-0.15535 0.16546 0.09272 188 192 104
-0.15535 0.16546 0.4095 188 192 104
0.25448 0.07486 0.09272 188 192 104
0.25448 0.07486 0.4095 188 192 104
0.32584 0.10317 0.44797 188 192 104
0.17653 0.24876 0.44797 188 192 104
-0.18231 0.24876 0.44797 188 192 104
-0.26026 0.07139 0.4095 188 192 104
-0.26026 0.07139 0.09272 188 192 104
-0.26026 -0.2318 0.09272 188 192 104
-0.26026 -0.2318 0.4095 188 192 104
-0.15535 -0.33294 0.09272 188 192 104
-0.15535 -0.33294 0.4095 188 192 104
-0.3317 -0.26438 0.44797 188 192 104
-0.18239 -0.41492 0.44797 188 192 104
-0.33161 0.10317 0.44797 188 192 104
0.3259 -0.09856 0.44797 188 192 104
0.25448 -0.09865 0.4095 188 192 104
0.25448 -0.09878 0.09272 188 192 104
0.25448 -0.24089 0.4095 177 181 89
0.25448 -0.24089 0.09272 177 181 89
0.25448 -0.09878 0.09272 177 181 89
0.25448 -0.09865 0.4095 177 181 89
0.3259 -0.09856 0.44797 177 181 89
0.32593 -0.26438 0.44797 177 181 89
0.79578 -0.09801 0.44797 177 181 89
0.79578 -0.26439 0.44797 177 181 89
0.14959 -0.33294 0.4095 188 192 104
0.14959 -0.33294 0.09272 188 192 104
0.25448 -0.24089 0.09272 188 192 104
0.25448 -0.24089 0.4095 188 192 104
0.17662 -0.41492 0.44797 188 192 104
0.32593 -0.26438 0.44797 188 192 104
-0.01551 -0.33294 0.4095 188 192 104
-0.01565 -0.33294 0.09272 188 192 104
-0.01548 -0.41492 0.44797 188 192 104
-0.15535 -0.33294 0.4095 177 181 89
-0.15535 -0.33294 0.09272 177 181 89
-0.01565 -0.33294 0.09272 177 181 89
-0.01551 -0.33294 0.4095 177 181 89
-0.01548 -0.41492 0.44797 177 181 89
-0.18239 -0.41492 0.44797 177 181 89
-0.01643 -0.86269 0.44797 177 181 89
-0.18256 -0.86269 0.44797 177 181 89
-0.01657 -0.91679 0.4095 177 181 89
-0.1824 -0.91679 0.4095 177 181 89
-0.01646 -0.91679 0.09272 177 181 89
-0.18241 -0.91679 0.09272 177 181 89
0.75525 -0.91679 0.05652 235 199 134
-3.30258E-08 -0.91679 0.05652 235 199 134
0.85935 -0.82501 0.05652 235 199 134
-0.01646 -0.91679 0.09272 235 199 134
0.75525 -0.91679 0.09272 235 199 134
0.85935 -0.82501 0.09272 235 199 134
0.85935 -0.26339 0.09272 235 199 134
0.85935 -0.09704 0.09272 235 199 134
0.85935 0.10382 0.09272 235 199 134
-0.18241 -0.91679 0.09272 235 199 134
0.85935 -0.09804 0.4095 177 181 89
0.85935 -0.2643 0.4095 177 181 89
0.85935 -0.09704 0.09272 177 181 89
0.85935 -0.26339 0.09272 177 181 89
-0.1887 0.375 0.39874 188 192 104
-0.1887 0.90476 0.39874 188 192 104
0.1887 0.90476 0.39874 188 192 104
0.1887 0.375 0.39874 188 192 104
0.1887 0.375 0.02134 188 192 104
0.1887 1.24629 0.02134 188 192 104
0.1887 1.29193 0.07672 188 192 104
0.07436 1.17462 0.91928 188 192 104
0.07436 1.02206 0.91928 188 192 104
-0.07436 1.02206 0.91928 188 192 104
-0.1887 1.29193 0.07672 188 192 104
-0.1887 1.24629 0.02134 188 192 104
-0.1887 0.375 0.02134 188 192 104
-0.07436 1.17462 0.91928 188 192 104
0.1887 1.29193 0.07672 235 199 134
-0.1887 1.29193 0.07672 235 199 134
-0.1887 1.24629 0.02134 235 199 134
0.1887 1.24629 0.02134 235 199 134
-0.07436 1.17462 0.91928 235 199 134
0.07436 1.17462 0.91928 235 199 134
0.1887 0.375 0.02134 235 199 134
-0.1887 0.375 0.02134 235 199 134
0.08802 0.9755 1.12121 235 199 134
0.12242 1.00566 1.12121 235 199 134
0.12242 1.00566 0.93129 235 199 134
0.08802 0.9755 0.93129 235 199 134
0.12242 1.19017 1.12121 235 199 134
0.12242 1.19017 0.93129 235 199 134
0.08802 1.22033 0.93129 235 199 134
0.08802 1.22033 1.12121 235 199 134
-0.08802 0.9755 1.12121 235 199 134
-0.08802 0.9755 0.93129 235 199 134
0.10813 1.17941 0.90745 235 199 134
0.07775 1.20605 0.90745 235 199 134
0.10813 1.01642 0.90745 235 199 134
0.07775 0.98978 0.90745 235 199 134
-0.07775 0.98978 0.90745 235 199 134
-0.10813 1.01642 0.90745 235 199 134
-0.12242 1.19017 1.12121 235 199 134
-0.12242 1.19017 0.93129 235 199 134
-0.08802 1.22033 0.93129 235 199 134
-0.08802 1.22033 1.12121 235 199 134
-0.12242 1.00566 1.12121 235 199 134
-0.12242 1.00566 0.93129 235 199 134
-0.07775 1.20605 0.90745 235 199 134
-0.10813 1.17941 0.90745 235 199 134
0.06601 1.00611 1.12121 245 208 140
0.09181 1.02873 1.12121 245 208 140
0.12242 1.00566 1.12121 245 208 140
0.08802 0.9755 1.12121 245 208 140
0.09181 1.16711 1.12121 245 208 140
0.12242 1.19017 1.12121 245 208 140
0.06601 1.18973 1.12121 245 208 140
0.08802 1.22033 1.12121 245 208 140
-0.06601 1.00611 1.12121 245 208 140
-0.08802 0.9755 1.12121 245 208 140
-0.06601 1.18973 1.12121 245 208 140
-0.09181 1.16711 1.12121 245 208 140
-0.12242 1.19017 1.12121 245 208 140
-0.08802 1.22033 1.12121 245 208 140
-0.09181 1.02873 1.12121 245 208 140
-0.12242 1.00566 1.12121 245 208 140
0.06601 1.00611 1.29529 235 199 134
0.09181 1.02873 1.29529 235 199 134
0.09181 1.02873 1.12121 235 199 134
0.06601 1.00611 1.12121 235 199 134
0.09181 1.16711 1.29529 235 199 134
0.09181 1.16711 1.12121 235 199 134
0.06601 1.18973 1.29529 235 199 134
0.06601 1.18973 1.12121 235 199 134
-0.06601 1.00611 1.29529 235 199 134
-0.06601 1.00611 1.12121 235 199 134
-0.06601 1.18973 1.29529 235 199 134
-0.09181 1.16711 1.29529 235 199 134
-0.09181 1.16711 1.12121 235 199 134
-0.06601 1.18973 1.12121 235 199 134
-0.09181 1.02873 1.29529 235 199 134
-0.09181 1.02873 1.12121 235 199 134
0.04892 1.02987 1.29529 245 208 140
0.06804 1.04664 1.29529 245 208 140
0.09181 1.02873 1.29529 245 208 140
0.06601 1.00611 1.29529 245 208 140
0.06804 1.1492 1.29529 245 208 140
0.09181 1.16711 1.29529 245 208 140
-0.04892 1.02987 1.29529 245 208 140
-0.06601 1.00611 1.29529 245 208 140
0.04892 1.16596 1.29529 245 208 140
0.06601 1.18973 1.29529 245 208 140
-0.04892 1.16596 1.29529 245 208 140
-0.06804 1.1492 1.29529 245 208 140
-0.09181 1.16711 1.29529 245 208 140
-0.06601 1.18973 1.29529 245 208 140
-0.06804 1.04664 1.29529 245 208 140
-0.09181 1.02873 1.29529 245 208 140
0.04892 1.02987 1.42967 235 199 134
0.06804 1.04664 1.42967 235 199 134
0.06804 1.04664 1.29529 235 199 134
0.04892 1.02987 1.29529 235 199 134
0.06804 1.1492 1.42967 235 199 134
0.06804 1.1492 1.29529 235 199 134
0.04892 1.16596 1.42967 235 199 134
0.04892 1.16596 1.29529 235 199 134
-0.04892 1.02987 1.42967 235 199 134
-0.04892 1.02987 1.29529 235 199 134
0.03995 1.15348 1.44573 235 199 134
0.05557 1.13979 1.44573 235 199 134
-0.03995 1.15348 1.44573 235 199 134
-0.04892 1.16596 1.42967 235 199 134
-0.05557 1.13979 1.44573 235 199 134
-0.06804 1.1492 1.42967 235 199 134
-0.06804 1.1492 1.29529 235 199 134
-0.04892 1.16596 1.29529 235 199 134
-0.06804 1.04664 1.42967 235 199 134
-0.06804 1.04664 1.29529 235 199 134
-0.05557 1.05604 1.44573 235 199 134
-0.03995 1.04235 1.44573 235 199 134
0.03995 1.04235 1.44573 235 199 134
0.05557 1.05604 1.44573 235 199 134
0.05557 1.05604 1.44573 245 208 140
0.03995 1.04235 1.44573 245 208 140
-0.03995 1.04235 1.44573 245 208 140
-0.05557 1.05604 1.44573 245 208 140
-0.0253 -0.53903 1.47274 178 182 97
-0.05575 -0.53903 1.47274 178 182 97
-0.05575 -0.53903 1.53856 178 182 97
-0.0253 -0.53903 1.53856 178 182 97
-0.0253 -0.55701 1.47274 178 182 97
-0.0253 -0.55701 1.53856 178 182 97
-0.05575 -0.55701 1.53856 178 182 97
-0.05575 -0.55701 1.47274 178 182 97
0.05575 -0.53903 1.53856 178 182 97
0.05575 -0.53903 1.47274 178 182 97
0.0253 -0.53903 1.47274 178 182 97
0.0253 -0.53903 1.53856 178 182 97
0.05575 -0.55701 1.53856 178 182 97
0.0253 -0.55701 1.53856 178 182 97
0.0253 -0.55701 1.47274 178 182 97
0.05575 -0.55701 1.47274 178 182 97
0.05557 1.13979 1.44573 245 208 140
-0.05557 1.13979 1.44573 245 208 140
-0.03995 1.15348 1.44573 245 208 140
0.03995 1.15348 1.44573 245 208 140
3 0 2 1
3 0 3 2
3 1 2 4
3 1 4 5
3 5 4 6
3 5 6 7
3 6 8 7
3 6 9 8
3 10 8 9
3 10 9 11
3 12 10 11
3 12 11 13
3 14 12 13
3 14 13 15
3 10 12 16
3 10 16 17
3 12 14 18
3 14 19 18
3 20 18 19
3 20 21 18
3 20 19 22
3 20 22 23
3 22 19 24
3 14 24 19
3 22 24 25
3 24 26 25
3 24 27 26
3 26 27 28
3 26 28 29
3 25 26 29
3 25 29 30
3 23 22 31
3 31 25 30
3 31 22 25
3 23 31 32
3 18 21 33
3 33 21 34
3 20 34 21
3 33 34 35
3 36 33 35
3 36 35 37
3 38 36 37
3 38 37 39
3 40 36 38
3 40 38 41
3 42 40 41
3 42 43 40
3 44 43 42
3 44 45 43
3 44 46 45
3 44 42 47
3 48 36 40
3 48 33 36
3 18 33 48
3 12 18 48
3 43 49 40
3 43 45 49
3 48 16 12
3 40 16 48
3 40 49 16
3 44 50 46
3 44 51 50
3 47 51 44
3 47 52 51
3 53 55 54
3 53 56 55
3 54 55 57
3 54 57 58
3 53 59 56
3 53 60 59
3 61 63 62
3 61 64 63
3 65 64 61
3 65 66 64
3 67 66 65
3 67 68 66
3 69 68 67
3 69 70 68
3 71 70 69
3 71 72 70
3 60 73 59
3 60 74 73
3 74 75 73
3 74 76 75
3 77 79 78
3 77 80 79
3 78 79 81
3 80 81 79
3 78 81 82
3 80 83 81
3 84 78 82
3 84 77 78
3 85 87 86
3 85 88 87
3 86 87 89
3 88 89 87
3 86 89 90
3 85 91 88
3 85 92 91
3 93 91 92
3 93 94 91
3 95 88 91
3 95 96 88
3 88 96 89
3 97 94 93
3 97 98 94
3 98 91 94
3 98 95 91
3 99 101 100
3 99 102 101
3 102 103 101
3 102 104 103
3 105 107 106
3 105 108 107
3 108 109 107
3 106 107 109
3 108 110 109
3 105 106 111
3 105 111 112
3 113 112 111
3 113 111 114
3 115 111 106
3 115 106 116
3 106 109 116
3 117 113 114
3 117 114 118
3 118 111 115
3 118 114 111
3 119 121 120
3 119 122 121
3 120 121 123
3 120 123 124
3 125 127 126
3 125 128 127
3 129 125 126
3 129 126 130
3 130 131 129
3 130 132 131
3 127 128 133
3 127 133 134
3 131 132 135
3 131 135 136
3 137 139 138
3 137 140 139
3 138 139 141
3 138 141 142
3 143 145 144
3 143 146 145
3 144 147 143
3 144 148 147
3 148 149 147
3 148 150 149
3 145 146 151
3 145 151 152
3 149 150 153
3 149 153 154
3 146 143 155
3 146 155 156
3 151 146 156
3 151 156 157
3 143 158 155
3 143 147 158
3 147 159 158
3 147 149 159
3 149 160 159
3 149 154 160
3 161 151 157
3 152 151 161
3 152 161 162
3 163 162 161
3 163 161 164
3 154 163 164
3 154 153 163
3 154 164 165
3 154 165 160
3 164 166 165
3 164 161 166
3 161 157 166
3 165 159 160
3 165 158 159
3 167 169 168
3 167 170 169
3 134 167 168
3 134 133 167
3 136 169 170
3 136 135 169
3 171 173 172
3 171 174 173
3 172 175 171
3 172 176 175
3 176 177 175
3 176 178 177
3 173 174 179
3 173 179 180
3 177 178 181
3 177 181 182
3 183 185 184
3 183 186 185
3 180 185 186
3 180 179 185
3 182 183 184
3 182 181 183
3 187 189 188
3 187 190 189
3 190 187 191
3 187 192 191
3 187 193 192
3 188 193 187
3 193 194 192
3 194 195 192
3 194 196 195
3 197 195 196
3 197 198 195
3 198 199 195
3 195 199 191
3 195 191 192
3 200 191 199
3 190 191 200
3 200 199 201
3 198 202 199
3 202 201 199
3 203 190 200
3 203 200 204
3 200 205 204
3 200 201 205
3 204 205 206
3 204 206 207
3 207 206 208
3 207 208 209
3 210 205 201
3 210 211 205
3 211 206 205
3 212 208 206
3 211 212 206
3 212 213 208
3 213 214 208
3 208 214 215
3 208 215 209
3 213 216 214
3 217 209 215
3 217 218 209
3 217 219 218
3 217 220 219
3 221 220 217
3 221 222 220
3 218 223 209
3 221 217 215
3 221 215 194
3 216 196 214
3 194 214 196
3 194 215 214
3 193 221 194
3 216 197 196
3 224 221 193
3 224 222 221
3 219 225 218
3 188 224 193
3 218 226 223
3 218 225 226
3 227 223 226
3 227 226 228
3 228 203 227
3 227 203 204
3 227 204 207
3 228 229 203
3 207 223 227
3 209 223 207
3 216 230 197
3 216 231 230
3 232 231 216
3 232 216 213
3 213 233 232
3 212 233 213
3 212 234 233
3 235 234 212
3 235 212 211
3 236 235 211
3 236 211 210
3 237 236 210
3 237 210 202
3 202 210 201
3 238 237 202
3 238 202 198
3 230 238 198
3 230 198 197
3 239 241 240
3 239 242 241
3 243 242 239
3 243 244 242
3 245 244 243
3 245 246 244
3 247 246 245
3 247 245 248
3 247 248 249
3 247 249 250
3 250 249 251
3 250 251 252
3 252 251 253
3 241 254 240
3 241 255 254
3 255 256 254
3 255 257 256
3 258 260 259
3 258 261 260
3 258 259 262
3 258 262 263
3 258 263 264
3 263 265 264
3 263 266 265
3 262 266 263
3 258 264 267
3 261 258 267
3 261 267 268
3 269 261 268
3 269 268 270
3 271 269 270
3 271 270 272
3 273 271 272
3 273 274 271
3 271 274 275
3 271 275 276
3 276 269 271
3 262 277 266
3 266 277 278
3 266 278 279
3 279 278 280
3 279 280 281
3 279 281 282
3 279 282 283
3 266 279 283
3 266 283 265
3 281 284 282
3 281 285 284
3 280 285 281
3 280 286 285
3 276 287 269
3 288 290 289
3 288 291 290
3 288 289 292
3 288 292 293
3 288 293 294
3 288 294 295
3 291 288 295
3 291 295 296
3 297 291 296
3 291 297 298
3 297 299 298
3 297 300 299
3 300 301 299
3 300 302 301
3 291 298 290
3 302 300 303
3 302 303 304
3 305 302 304
3 305 304 306
3 307 305 306
3 305 307 308
3 309 308 307
3 309 307 310
3 305 308 311
3 302 305 311
3 302 311 301
3 310 307 312
3 307 306 312
3 310 312 313
3 300 314 303
3 300 297 314
3 297 296 314
3 229 190 203
3 229 189 190
3 287 261 269
3 287 260 261
3 315 317 316
3 315 318 317
3 319 317 318
3 319 320 317
3 321 320 319
3 321 319 322
3 316 323 315
3 316 324 323
3 325 323 324
3 325 324 326
3 327 329 328
3 327 330 329
3 329 330 331
3 329 331 332
3 331 333 332
3 331 334 333
3 27 335 28
3 27 336 335
3 337 28 335
3 337 338 28
3 338 29 28
3 338 30 29
3 0 338 337
3 0 339 338
3 31 338 339
3 31 30 338
3 340 31 339
3 340 339 341
3 0 341 339
3 340 341 34
3 340 32 31
3 341 35 34
3 341 342 35
3 342 37 35
3 342 343 37
3 343 39 37
3 343 344 39
3 345 344 343
3 345 343 346
3 51 345 346
3 51 346 347
3 51 347 50
3 51 52 345
3 346 348 347
3 346 343 348
3 1 342 341
3 1 341 0
3 342 1 349
3 343 349 348
3 343 342 349
3 5 349 1
3 5 350 349
3 5 351 350
3 5 352 351
3 351 352 353
3 351 353 354
3 7 352 5
3 7 353 352
3 353 355 354
3 354 355 356
3 354 356 357
3 353 358 355
3 359 358 353
3 7 359 353
3 359 360 358
3 356 361 357
3 360 361 356
3 360 362 361
3 359 362 360
3 8 359 7
3 363 359 8
3 8 364 363
3 365 363 364
3 365 366 363
3 363 366 367
3 363 367 368
3 8 10 364
3 10 365 364
3 10 17 365
3 363 362 359
3 363 368 362
3 361 366 357
3 361 367 366
3 369 27 24
3 369 336 27
3 14 369 24
3 370 372 371
3 370 373 372
3 374 373 370
3 374 370 375
3 375 376 374
3 375 377 376
3 378 380 379
3 381 379 380
3 381 382 379
3 383 384 378
3 385 384 383
3 385 383 386
3 378 384 380
3 387 371 372
3 387 388 371
3 388 387 389
3 388 389 390
3 20 340 34
3 23 340 20
3 23 32 340
3 391 393 392
3 391 394 393
3 394 391 395
3 391 396 395
3 391 397 396
3 392 397 391
3 397 398 396
3 398 399 396
3 398 400 399
3 401 399 400
3 401 402 399
3 402 403 399
3 399 403 395
3 399 395 396
3 404 395 403
3 394 395 404
3 404 403 405
3 402 406 403
3 406 405 403
3 397 407 398
3 406 408 405
3 409 407 397
3 409 410 407
3 407 410 411
3 407 411 412
3 412 411 413
3 412 413 414
3 412 414 415
3 414 416 415
3 412 415 417
3 418 417 415
3 418 419 417
3 420 419 418
3 421 420 418
3 421 418 422
3 423 422 418
3 423 418 415
3 424 422 423
3 424 425 422
3 404 425 424
3 404 405 425
3 408 425 405
3 408 426 425
3 426 422 425
3 426 421 422
3 420 427 419
3 427 400 419
3 398 419 400
3 398 417 419
3 427 401 400
3 427 428 401
3 427 429 428
3 430 429 427
3 430 427 420
3 420 431 430
3 420 421 431
3 432 431 421
3 433 421 426
3 433 432 421
3 426 434 433
3 426 408 434
3 435 434 408
3 436 435 408
3 436 408 406
3 437 436 406
3 437 406 402
3 428 437 402
3 428 402 401
3 438 440 439
3 438 441 440
3 438 442 441
3 438 443 442
3 444 442 443
3 445 447 446
3 445 448 447
3 445 446 449
3 445 449 450
3 445 450 451
3 450 452 451
3 450 453 452
3 449 453 450
3 445 451 454
3 448 445 454
3 448 454 455
3 456 448 455
3 456 455 457
3 458 456 457
3 458 457 459
3 460 458 459
3 460 461 458
3 458 461 462
3 458 462 463
3 463 456 458
3 449 464 453
3 463 465 456
3 466 461 460
3 466 460 467
3 468 461 466
3 468 462 461
3 453 464 469
3 453 469 470
3 453 470 471
3 453 471 452
3 472 474 473
3 472 475 474
3 475 472 476
3 475 476 477
3 475 478 474
3 475 479 478
3 475 480 479
3 475 477 480
3 477 481 480
3 477 482 481
3 483 477 476
3 483 482 477
3 484 486 485
3 484 487 486
3 485 486 488
3 485 488 489
3 489 488 490
3 484 491 487
3 484 492 491
3 491 492 493
3 491 493 494
3 494 493 495
3 494 495 496
3 497 490 488
3 497 488 498
3 496 495 499
3 500 502 501
3 500 503 502
3 500 501 504
3 500 504 505
3 500 505 506
3 500 506 507
3 503 500 507
3 503 507 508
3 509 503 508
3 503 509 510
3 509 511 510
3 509 512 511
3 512 513 511
3 512 514 513
3 503 510 502
3 514 512 515
3 514 515 516
3 512 517 515
3 512 509 517
3 509 508 517
3 505 518 506
3 505 519 518
3 504 519 505
3 504 520 519
3 521 523 522
3 521 524 523
3 525 524 521
3 525 521 526
3 527 525 526
3 527 526 528
3 529 531 530
3 529 532 531
3 532 529 533
3 532 533 534
3 530 535 529
3 530 536 535
3 529 535 537
3 529 537 533
3 538 540 539
3 538 541 540
3 542 541 538
3 542 538 543
3 543 544 542
3 543 545 544
3 545 546 544
3 545 547 546
3 547 548 546
3 547 549 548
3 550 551 424
3 552 550 424
3 552 424 423
3 550 553 551
3 550 554 553
3 555 550 552
3 555 554 550
3 552 556 555
3 416 556 552
3 423 416 552
3 416 557 556
3 416 558 557
3 416 414 558
3 413 558 414
3 415 416 423
3 551 553 559
3 551 559 394
3 394 559 393
3 404 551 394
3 424 551 404
3 407 417 398
3 407 412 417
3 392 409 397
3 465 448 456
3 465 447 448
3 528 560 527
3 528 561 560
3 562 560 561
3 562 561 563
3 564 566 565
3 564 567 566
3 568 566 567
3 568 569 566
3 566 569 570
3 566 570 571
3 566 571 572
3 565 566 572
3 565 572 573
3 574 565 573
3 574 575 565
3 565 575 576
3 565 576 564
3 574 573 577
3 578 580 579
3 578 581 580
3 578 579 582
3 578 582 583
3 580 581 584
3 580 584 585
3 586 588 587
3 586 589 588
3 588 590 587
3 588 591 590
3 592 590 591
3 592 593 590
3 589 586 594
3 589 594 595
3 592 591 596
3 592 596 597
3 591 598 596
3 591 588 598
3 588 599 598
3 588 589 599
3 589 600 599
3 589 595 600
3 601 599 600
3 601 598 599
3 602 604 603
3 602 605 604
3 603 606 602
3 603 607 606
3 592 604 605
3 592 605 593
3 607 594 606
3 607 595 594
3 603 604 608
3 603 608 609
3 607 603 609
3 609 608 597
3 604 597 608
3 604 592 597
3 609 597 596
3 595 607 601
3 607 609 601
3 595 601 600
3 609 598 601
3 609 596 598
3 610 612 611
3 610 613 612
3 612 614 611
3 612 615 614
3 615 616 614
3 615 617 616
3 618 613 610
3 618 619 613
3 620 622 621
3 620 623 622
3 622 624 621
3 622 625 624
3 616 623 620
3 616 617 623
3 625 618 624
3 625 619 618
3 626 628 627
3 626 629 628
3 628 630 627
3 628 631 630
3 631 632 630
3 631 633 632
3 629 626 634
3 629 634 635
3 636 638 637
3 636 639 638
3 638 640 637
3 638 641 640
3 633 639 636
3 633 636 632
3 641 634 640
3 641 635 634
3 642 644 643
3 642 645 644
3 644 646 643
3 644 647 646
3 648 645 642
3 648 649 645
3 647 650 646
3 647 651 650
3 652 654 653
3 652 655 654
3 654 656 653
3 654 657 656
3 657 648 656
3 657 649 648
3 650 655 652
3 650 651 655
3 658 660 659
3 658 661 660
3 660 662 659
3 660 663 662
3 663 664 662
3 663 665 664
3 661 658 666
3 661 666 667
3 662 664 668
3 662 668 669
3 659 662 669
3 664 670 668
3 664 671 670
3 671 672 670
3 671 673 672
3 671 674 673
3 671 675 674
3 674 676 673
3 674 677 676
3 665 675 671
3 665 671 664
3 677 666 676
3 677 667 666
3 673 678 672
3 673 676 678
3 676 679 678
3 676 666 679
3 666 680 679
3 666 658 680
3 658 681 680
3 658 659 681
3 659 669 681
3 682 684 683
3 682 685 684
3 686 688 687
3 686 689 688
3 690 689 686
3 690 691 689
3 691 688 689
3 691 692 688
3 693 686 687
3 693 690 686
3 694 696 695
3 694 697 696
3 698 697 694
3 698 699 697
3 699 696 697
3 699 700 696
3 700 695 696
3 700 701 695
3 692 687 688
3 692 693 687
3 701 694 695
3 701 698 694
3 702 704 703
3 702 705 704
3 702 703 685
3 702 685 682
