ply
format ascii 1.0
element vertex 708
property float x
property float y
property float z
property uchar red
property uchar green
property uchar blue
element face 848
property list uchar int vertex_index
end_header
-0.34687 -0.11196 1.17491 188 140 192
-0.34687 -0.11196 1.44116 188 140 192
-0.29755 -0.11196 1.44116 188 140 192
-0.29755 -0.11196 1.17491 188 140 192
-0.29755 -0.34684 1.44116 188 140 192
-0.34687 -0.37448 1.44116 188 140 192
-0.26176 -0.37448 1.44116 188 140 192
-0.2719 -0.43521 1.44116 188 140 192
0.2719 -0.43521 1.44116 188 140 192
0.26176 -0.37448 1.44116 188 140 192
0.34687 -0.37448 1.44116 188 140 192
0.29755 -0.34684 1.44116 188 140 192
0.34687 -0.11196 1.44116 188 140 192
0.29755 -0.11196 1.44116 188 140 192
0.34687 -0.11196 1.17491 188 140 192
0.29755 -0.11196 1.17491 188 140 192
0.34687 -0.11196 1.6154 188 140 192
0.34687 -0.37448 1.6154 188 140 192
0.34687 0.15632 1.17491 188 140 192
0.34687 0.15632 1.12744 188 140 192
0.2719 0.21705 1.12744 188 140 192
0.2719 0.21705 1.17491 188 140 192
0.30004 0.1177 1.0878 188 140 192
0.2352 0.17022 1.0878 188 140 192
0.34687 -0.37448 1.12744 188 140 192
0.30004 -0.33586 1.0878 188 140 192
0.2352 -0.38838 1.0878 188 140 192
0.2719 -0.43521 1.12744 188 140 192
-0.2719 -0.43521 1.12744 188 140 192
-0.2352 -0.38838 1.0878 188 140 192
-0.30004 -0.33586 1.0878 188 140 192
-0.30004 0.1177 1.0878 188 140 192
-0.2352 0.17022 1.0878 188 140 192
0.2719 0.21705 1.44116 188 140 192
-0.2719 0.21705 1.17491 188 140 192
-0.2719 0.21705 1.44116 188 140 192
0.2719 0.21705 1.68791 188 140 192
-0.2719 0.21705 1.68791 188 140 192
0.23565 0.1708 1.73574 188 140 192
-0.23565 0.1708 1.73574 188 140 192
0.34687 0.15632 1.68791 188 140 192
0.30062 0.11817 1.73574 188 140 192
0.30062 -0.33633 1.73574 188 140 192
0.34687 -0.37448 1.68791 188 140 192
0.2719 -0.43521 1.68791 188 140 192
0.34687 -0.37448 1.67142 188 140 192
0.2719 -0.43521 1.67142 188 140 192
0.23565 -0.38896 1.73574 188 140 192
0.34687 0.15632 1.44116 188 140 192
0.34687 -0.11196 1.67142 188 140 192
-0.2719 -0.43521 1.67142 188 140 192
-0.2719 -0.43521 1.68791 188 140 192
-0.23565 -0.38896 1.73574 188 140 192
-0.2719 -0.43521 1.17491 193 144 197
-0.34687 -0.37448 1.17491 193 144 197
-0.29755 -0.34684 1.17491 193 144 197
-0.26176 -0.37448 1.17491 193 144 197
-0.29755 -0.11196 1.17491 193 144 197
-0.34687 -0.11196 1.17491 193 144 197
0.26176 -0.37448 1.17491 193 144 197
0.2719 -0.43521 1.17491 193 144 197
-0.29755 -0.34684 1.44116 164 118 128
-0.26176 -0.37448 1.44116 164 118 128
0.26176 -0.37448 1.44116 164 118 128
0.29755 -0.34684 1.44116 164 118 128
-0.29755 -0.11196 1.44116 164 118 128
0.29755 -0.11196 1.44116 164 118 128
-0.29755 -0.11196 1.17491 164 118 128
0.29755 -0.11196 1.17491 164 118 128
-0.29755 -0.34684 1.17491 164 118 128
0.29755 -0.34684 1.17491 164 118 128
-0.26176 -0.37448 1.17491 164 118 128
0.26176 -0.37448 1.17491 164 118 128
0.29755 -0.34684 1.17491 193 144 197
0.34687 -0.37448 1.17491 193 144 197
0.29755 -0.11196 1.17491 193 144 197
0.34687 -0.11196 1.17491 193 144 197
-0.23512 -0.32203 1.17085 210 156 163
-0.23512 -0.32203 1.31209 210 156 163
0.23512 -0.32203 1.31209 210 156 163
0.23512 -0.32203 1.17085 210 156 163
0.23512 -0.04246 1.31209 210 156 163
-0.23512 -0.04246 1.31209 210 156 163
0.23512 -0.04246 1.17085 210 156 163
-0.23512 -0.04246 1.17085 210 156 163
0.30642 -0.16819 1.49579 241 223 169
0.30642 -0.16819 1.6736 241 223 169
0.40255 -0.16819 1.6736 241 223 169
0.40255 -0.16819 1.49579 241 223 169
0.40255 -0.09478 1.6736 241 223 169
0.30642 -0.09478 1.6736 241 223 169
0.40255 0.00962 1.49579 241 223 169
0.30642 0.00962 1.49579 241 223 169
0.30642 0.00962 1.6736 241 223 169
0.40255 0.00962 1.6736 241 223 169
0.40255 -0.06309 1.54051 241 223 169
0.40255 -0.09478 1.54051 241 223 169
0.30642 -0.06309 1.6736 241 223 169
0.40255 -0.06309 1.6736 241 223 169
0.30642 -0.09478 1.6736 59 52 32
0.30642 -0.06309 1.6736 59 52 32
0.40255 -0.06309 1.6736 59 52 32
0.40255 -0.09478 1.6736 59 52 32
0.40255 -0.06309 1.54051 59 52 32
0.40255 -0.09478 1.54051 59 52 32
-0.30642 -0.16819 1.49579 241 223 169
-0.40255 -0.16819 1.49579 241 223 169
-0.40255 -0.16819 1.6736 241 223 169
-0.30642 -0.16819 1.6736 241 223 169
-0.40255 -0.09478 1.6736 241 223 169
-0.30642 -0.09478 1.6736 241 223 169
-0.40255 0.00962 1.49579 241 223 169
-0.30642 0.00962 1.49579 241 223 169
-0.30642 0.00962 1.6736 241 223 169
-0.40255 0.00962 1.6736 241 223 169
-0.40255 -0.06309 1.54051 241 223 169
-0.40255 -0.09478 1.54051 241 223 169
-0.30642 -0.06309 1.6736 241 223 169
-0.40255 -0.06309 1.6736 241 223 169
-0.30642 -0.09478 1.6736 59 52 32
-0.40255 -0.09478 1.6736 59 52 32
-0.40255 -0.06309 1.6736 59 52 32
-0.30642 -0.06309 1.6736 59 52 32
-0.40255 -0.06309 1.54051 59 52 32
-0.40255 -0.09478 1.54051 59 52 32
-0.21887 0.20664 0.81192 188 140 192
-0.21887 0.20664 0.97317 188 140 192
-0.15625 0.15284 0.97317 188 140 192
-0.15625 0.15284 0.81192 188 140 192
-0.21887 0.53677 0.81192 188 140 192
-0.21887 0.53677 0.97317 188 140 192
-0.15625 0.59057 0.81192 188 140 192
-0.15625 0.59057 0.97317 188 140 192
0.15625 0.15284 0.81192 188 140 192
0.15625 0.15284 0.97317 188 140 192
0.15625 0.59057 0.97317 188 140 192
0.15625 0.59057 0.81192 188 140 192
0.1276 0.55045 1.5964 193 144 197
0.17874 0.50651 1.5964 193 144 197
-0.17874 0.50651 1.5964 193 144 197
-0.1276 0.55045 1.5964 193 144 197
-0.17874 0.2369 1.5964 193 144 197
0.17874 0.2369 1.5964 193 144 197
-0.1276 0.19297 1.5964 193 144 197
0.1276 0.19297 1.5964 193 144 197
-0.21887 0.53677 1.5597 188 140 192
-0.21887 0.53677 1.19093 188 140 192
-0.15625 0.59057 1.19093 188 140 192
-0.15625 0.59057 1.5597 188 140 192
-0.21887 0.20664 1.5597 188 140 192
-0.21887 0.20664 1.19093 188 140 192
-0.15625 0.15284 1.5597 188 140 192
-0.15625 0.15284 1.19093 188 140 192
0.15625 0.59057 1.5597 188 140 192
0.15625 0.59057 1.19093 188 140 192
0.15625 0.15284 1.19093 188 140 192
0.15625 0.15284 1.5597 188 140 192
-0.17874 0.50651 1.5964 188 140 192
-0.1276 0.55045 1.5964 188 140 192
0.1276 0.55045 1.5964 188 140 192
-0.17874 0.2369 1.5964 188 140 192
-0.1276 0.19297 1.5964 188 140 192
0.1276 0.19297 1.5964 188 140 192
0.21887 0.53677 1.5597 188 140 192
0.21887 0.53677 1.19093 188 140 192
0.21887 0.20664 1.19093 188 140 192
0.21887 0.20664 1.5597 188 140 192
0.17874 0.2369 1.5964 188 140 192
0.17874 0.50651 1.5964 188 140 192
0.21887 0.20664 0.81192 188 140 192
0.21887 0.20664 0.97317 188 140 192
0.21887 0.53677 0.97317 188 140 192
0.21887 0.53677 0.81192 188 140 192
-0.21887 0.53677 1.19093 241 223 169
-0.21887 0.53677 0.97317 241 223 169
-0.15625 0.59057 0.97317 241 223 169
-0.15625 0.59057 1.19093 241 223 169
-0.21887 0.20664 1.19093 241 223 169
-0.21887 0.20664 0.97317 241 223 169
-0.15625 0.15284 1.19093 241 223 169
-0.15625 0.15284 0.97317 241 223 169
0.15625 0.59057 1.19093 241 223 169
0.15625 0.59057 0.97317 241 223 169
0.15625 0.15284 0.97317 241 223 169
0.15625 0.15284 1.19093 241 223 169
0.21887 0.20664 0.97317 241 223 169
0.21887 0.20664 1.19093 241 223 169
0.21887 0.53677 1.19093 241 223 169
0.21887 0.53677 0.97317 241 223 169
-0.67353 -0.65903 0.48508 241 223 169
-0.67353 -0.65903 0.51903 241 223 169
-0.59194 -0.73096 0.51903 241 223 169
-0.59194 -0.73096 0.48508 241 223 169
-0.62435 -0.56437 0.43873 241 223 169
-0.62428 0.43907 0.43873 241 223 169
-0.67353 0.54416 0.48508 241 223 169
-0.49426 0.55997 0.43873 241 223 169
-0.25921 0.06828 0.43873 241 223 169
-0.14286 0.18173 0.43873 241 223 169
-0.12176 0.11726 0.48508 241 223 169
-0.20398 0.04354 0.48508 241 223 169
-0.25928 -0.21975 0.43873 241 223 169
-0.49433 -0.6891 0.43873 241 223 169
-0.14293 -0.33703 0.43873 241 223 169
-0.20398 -0.1941 0.48508 241 223 169
0.59194 -0.73096 0.48508 241 223 169
0.49432 -0.6891 0.43873 241 223 169
0.1384 -0.33703 0.43873 241 223 169
0.25475 -0.21975 0.43873 241 223 169
0.62435 -0.56437 0.43873 241 223 169
0.25468 0.06828 0.43873 241 223 169
0.62428 0.43907 0.43873 241 223 169
-0.12176 -0.27336 0.48508 241 223 169
0.11725 -0.27336 0.48508 241 223 169
0.19946 -0.20122 0.48508 241 223 169
0.19946 0.04626 0.48508 241 223 169
0.13833 0.18173 0.43873 241 223 169
0.49426 0.55997 0.43873 241 223 169
0.11725 0.11726 0.48508 241 223 169
0.59194 0.6161 0.48508 241 223 169
0.67353 0.54416 0.48508 241 223 169
0.67353 0.54416 0.51903 241 223 169
0.59194 0.6161 0.51903 241 223 169
-0.59194 0.6161 0.48508 241 223 169
-0.59194 0.6161 0.51903 241 223 169
0.67353 -0.1374 0.48508 241 223 169
-0.67353 0.54416 0.51903 241 223 169
0.67353 0.06895 0.51903 241 223 169
0.67353 -0.09808 0.51903 241 223 169
0.67353 -0.65903 0.48508 241 223 169
0.67353 -0.65903 0.51903 241 223 169
0.59194 -0.73096 0.51903 241 223 169
-0.12176 0.11726 0.51903 241 223 169
0.11732 0.11725 0.51903 241 223 169
0.19946 0.04626 0.51903 241 223 169
0.19946 -0.09782 0.51903 241 223 169
0.19946 -0.20122 0.51903 241 223 169
0.11725 -0.27336 0.51903 241 223 169
-0.12176 -0.27336 0.51903 241 223 169
-0.20398 -0.1941 0.51903 241 223 169
-0.20398 0.04354 0.51903 241 223 169
-0.14295 -0.33762 0.85229 193 144 197
0.13843 -0.33762 0.85229 193 144 197
0.53896 -0.68857 0.85229 193 144 197
-0.53896 -0.68857 0.85229 193 144 197
-0.25998 -0.21963 0.85229 193 144 197
-0.62373 -0.61272 0.85229 193 144 197
-0.25991 0.06844 0.85229 193 144 197
-0.62366 0.48729 0.85229 193 144 197
-0.53888 0.55926 0.85229 193 144 197
-0.14289 0.18255 0.85229 193 144 197
0.13836 0.18255 0.85229 193 144 197
0.53888 0.55926 0.85229 193 144 197
0.25538 0.06844 0.85229 193 144 197
0.62366 0.48729 0.85229 193 144 197
0.62369 0.06882 0.85229 193 144 197
0.25545 -0.21963 0.85229 193 144 197
0.62373 -0.61272 0.85229 193 144 197
0.2554 -0.09786 0.85229 193 144 197
0.62369 -0.09814 0.85229 193 144 197
-0.67353 0.54416 0.8162 188 140 192
-0.67353 0.54416 0.51903 188 140 192
-0.59194 0.6161 0.51903 188 140 192
-0.59194 0.6161 0.8162 188 140 192
-0.67353 -0.65903 0.51903 188 140 192
-0.67353 -0.65903 0.8162 188 140 192
-0.62373 -0.61272 0.85229 188 140 192
-0.53896 -0.68857 0.85229 188 140 192
-0.59194 -0.73096 0.8162 188 140 192
-0.62366 0.48729 0.85229 188 140 192
-0.53888 0.55926 0.85229 188 140 192
0.59194 0.6161 0.8162 188 140 192
0.53888 0.55926 0.85229 188 140 192
0.67353 0.54416 0.8162 188 140 192
0.62366 0.48729 0.85229 188 140 192
0.62369 0.06882 0.85229 188 140 192
0.67353 0.06883 0.8162 188 140 192
0.67353 0.06895 0.51903 188 140 192
0.67353 0.54416 0.51903 188 140 192
-0.59194 -0.73096 0.51903 188 140 192
0.59194 -0.73096 0.51903 188 140 192
0.59194 -0.73096 0.8162 188 140 192
0.67353 -0.65903 0.51903 188 140 192
0.67353 -0.65903 0.8162 188 140 192
0.62373 -0.61272 0.85229 188 140 192
0.53896 -0.68857 0.85229 188 140 192
0.62369 -0.09814 0.85229 188 140 192
0.67353 -0.09819 0.8162 188 140 192
0.67353 -0.09808 0.51903 188 140 192
0.59194 0.6161 0.51903 188 140 192
0.11725 0.11726 0.8162 188 140 192
0.11732 0.11725 0.51903 188 140 192
-0.12176 0.11726 0.51903 188 140 192
-0.12176 0.11726 0.8162 188 140 192
0.19946 0.04626 0.51903 188 140 192
0.19946 0.04626 0.8162 188 140 192
0.25538 0.06844 0.85229 188 140 192
0.13836 0.18255 0.85229 188 140 192
-0.14289 0.18255 0.85229 188 140 192
-0.20398 0.04354 0.8162 188 140 192
-0.20398 0.04354 0.51903 188 140 192
-0.20398 -0.1941 0.51903 188 140 192
-0.20398 -0.1941 0.8162 188 140 192
-0.12176 -0.27336 0.51903 188 140 192
-0.12176 -0.27336 0.8162 188 140 192
-0.25998 -0.21963 0.85229 188 140 192
-0.14295 -0.33762 0.85229 188 140 192
0.11725 -0.27336 0.8162 188 140 192
0.13843 -0.33762 0.85229 188 140 192
0.19946 -0.20122 0.8162 188 140 192
0.19946 -0.20122 0.51903 188 140 192
0.19946 -0.09782 0.51903 188 140 192
0.19946 -0.09778 0.8162 188 140 192
0.11725 -0.27336 0.51903 188 140 192
0.25545 -0.21963 0.85229 188 140 192
0.2554 -0.09786 0.85229 188 140 192
-0.25991 0.06844 0.85229 188 140 192
0.62369 0.06882 0.85229 172 128 175
0.62369 -0.09814 0.85229 172 128 175
0.2554 -0.09786 0.85229 172 128 175
0.25538 0.06844 0.85229 172 128 175
0.19946 0.04626 0.8162 172 128 175
0.19946 -0.09778 0.8162 172 128 175
0.19946 -0.09782 0.51903 172 128 175
0.19946 0.04626 0.51903 172 128 175
0.67353 0.06883 0.8162 172 128 175
0.67353 -0.09819 0.8162 172 128 175
0.67353 0.06895 0.51903 172 128 175
0.67353 -0.09808 0.51903 172 128 175
0.23565 -0.38896 1.73574 193 144 197
-0.23565 -0.38896 1.73574 193 144 197
-0.30062 -0.33633 1.73574 193 144 197
0.30062 -0.33633 1.73574 193 144 197
0.30062 0.11817 1.73574 193 144 197
-0.30062 0.11817 1.73574 193 144 197
-0.23565 0.1708 1.73574 193 144 197
0.23565 0.1708 1.73574 193 144 197
-0.2719 -0.43521 1.17491 188 140 192
0.2719 -0.43521 1.17491 188 140 192
-0.34687 -0.37448 1.17491 188 140 192
-0.34687 -0.37448 1.12744 188 140 192
-0.34687 0.15632 1.12744 188 140 192
-0.2719 0.21705 1.12744 188 140 192
-0.34687 0.15632 1.17491 188 140 192
-0.34687 0.15632 1.44116 188 140 192
-0.34687 0.15632 1.68791 188 140 192
-0.30062 0.11817 1.73574 188 140 192
-0.30062 -0.33633 1.73574 188 140 192
-0.34687 -0.37448 1.68791 188 140 192
-0.34687 -0.37448 1.67142 188 140 192
-0.34687 -0.11196 1.67142 188 140 192
-0.34687 -0.11196 1.6154 188 140 192
-0.34687 -0.37448 1.6154 188 140 192
-0.34674 -0.49591 1.6154 188 140 192
-0.34674 -0.49591 1.44116 188 140 192
-0.27199 -0.55701 1.44116 188 140 192
-0.27199 -0.55701 1.6154 188 140 192
-0.05575 -0.55701 1.53856 188 140 192
-0.0253 -0.55701 1.53856 188 140 192
0 -0.55701 1.6154 188 140 192
-0.05575 -0.55701 1.47274 188 140 192
0 -0.55701 1.44116 188 140 192
-0.0253 -0.55701 1.47274 188 140 192
0.0253 -0.55701 1.53856 188 140 192
0.0253 -0.55701 1.47274 188 140 192
0.27199 -0.55701 1.44116 188 140 192
0.34674 -0.49591 1.44116 188 140 192
0.34674 -0.49591 1.6154 188 140 192
0.27199 -0.55701 1.6154 188 140 192
0.05575 -0.55701 1.53856 188 140 192
0.05575 -0.55701 1.47274 188 140 192
0.34687 -0.37448 1.17491 188 140 192
0.2719 -0.43521 1.6154 172 128 175
-0.2719 -0.43521 1.6154 172 128 175
-0.2719 -0.43521 1.67142 172 128 175
0.2719 -0.43521 1.67142 172 128 175
0.34687 -0.37448 1.67142 172 128 175
0.34687 -0.37448 1.6154 172 128 175
0.34687 -0.11196 1.67142 172 128 175
0.34687 -0.11196 1.6154 172 128 175
0 -0.55701 1.6154 193 144 197
-0.27199 -0.55701 1.6154 193 144 197
-0.2719 -0.43521 1.6154 193 144 197
-0.34687 -0.37448 1.6154 193 144 197
-0.34674 -0.49591 1.6154 193 144 197
0.27199 -0.55701 1.6154 193 144 197
0.2719 -0.43521 1.6154 193 144 197
0.34687 -0.37448 1.6154 193 144 197
0.34674 -0.49591 1.6154 193 144 197
-0.34687 -0.37448 1.67142 172 128 175
-0.34687 -0.37448 1.6154 172 128 175
-0.34687 -0.11196 1.67142 172 128 175
-0.34687 -0.11196 1.6154 172 128 175
-0.85935 -0.82501 0.05652 241 223 169
-0.85935 -0.82501 0.09272 241 223 169
-0.75525 -0.91679 0.09272 241 223 169
-0.75525 -0.91679 0.05652 241 223 169
-0.79661 -0.70423 0.00712 241 223 169
-0.79652 0.57605 0.00712 241 223 169
-0.85935 0.71014 0.05652 241 223 169
-0.63062 0.7303 0.00712 241 223 169
-0.33072 0.10296 0.00712 241 223 169
-0.18228 0.24771 0.00712 241 223 169
-0.15535 0.16546 0.05652 241 223 169
-0.26026 0.07139 0.05652 241 223 169
-0.33081 -0.26453 0.00712 241 223 169
-0.63071 -0.86337 0.00712 241 223 169
-0.18236 -0.41417 0.00712 241 223 169
-0.26026 -0.2318 0.05652 241 223 169
-0.75525 0.80192 0.05652 241 223 169
-0.15535 -0.33294 0.05652 241 223 169
-0.85935 0.71014 0.09272 241 223 169
-0.75525 0.80192 0.09272 241 223 169
0.75525 0.80192 0.09272 241 223 169
0.75525 0.80192 0.05652 241 223 169
0.85935 0.71014 0.09272 241 223 169
0.85935 0.71014 0.05652 241 223 169
0.79652 0.57605 0.00712 241 223 169
0.85935 -0.07297 0.05652 241 223 169
0.63062 0.7303 0.00712 241 223 169
0.32495 0.10296 0.00712 241 223 169
0.1765 0.24771 0.00712 241 223 169
0.25448 0.07486 0.05652 241 223 169
0.25448 -0.24089 0.05652 241 223 169
0.32503 -0.26453 0.00712 241 223 169
0.79661 -0.70423 0.00712 241 223 169
0.63071 -0.86337 0.00712 241 223 169
0.17659 -0.41417 0.00712 241 223 169
0.14959 -0.33294 0.05652 241 223 169
0.14959 0.16546 0.05652 241 223 169
-0.15535 0.16546 0.09272 241 223 169
0.14969 0.16544 0.09272 241 223 169
0.25448 0.07486 0.09272 241 223 169
0.25448 -0.09878 0.09272 241 223 169
0.25448 -0.24089 0.09272 241 223 169
0.14959 -0.33294 0.09272 241 223 169
-0.01565 -0.33294 0.09272 241 223 169
-0.15535 -0.33294 0.09272 241 223 169
-0.26026 -0.2318 0.09272 241 223 169
-0.26026 0.07139 0.09272 241 223 169
0.7141 -0.86269 0.44797 193 144 197
-0.01643 -0.86269 0.44797 193 144 197
-0.01548 -0.41492 0.44797 193 144 197
0.17662 -0.41492 0.44797 193 144 197
0.32593 -0.26438 0.44797 193 144 197
0.79581 -0.77519 0.44797 193 144 197
0.79578 -0.26439 0.44797 193 144 197
-0.85935 0.71014 0.4095 188 140 192
-0.85935 0.71014 0.09272 188 140 192
-0.75525 0.80192 0.09272 188 140 192
-0.75525 0.80192 0.4095 188 140 192
-0.85935 -0.82501 0.09272 188 140 192
-0.85935 -0.82501 0.4095 188 140 192
-0.79581 -0.77519 0.44797 188 140 192
-0.7141 -0.86269 0.44797 188 140 192
-0.75525 -0.91679 0.4095 188 140 192
-0.79573 0.65983 0.44797 188 140 192
-0.714 0.7294 0.44797 188 140 192
0.75525 0.80192 0.4095 188 140 192
0.714 0.7294 0.44797 188 140 192
0.85935 0.71014 0.4095 188 140 192
0.79572 0.65983 0.44797 188 140 192
0.79576 0.10366 0.44797 188 140 192
0.85935 0.10366 0.4095 188 140 192
0.85935 0.10382 0.09272 188 140 192
0.85935 0.71014 0.09272 188 140 192
-0.75525 -0.91679 0.09272 188 140 192
0.75525 0.80192 0.09272 188 140 192
0.85935 -0.09804 0.4095 188 140 192
0.79578 -0.09801 0.44797 188 140 192
0.85935 -0.09704 0.09272 188 140 192
-0.18241 -0.91679 0.09272 188 140 192
-0.1824 -0.91679 0.4095 188 140 192
-0.18256 -0.86269 0.44797 188 140 192
0.75525 -0.91679 0.09272 188 140 192
-0.01646 -0.91679 0.09272 188 140 192
-0.01657 -0.91679 0.4095 188 140 192
0.75525 -0.91679 0.4095 188 140 192
0.85935 -0.82501 0.09272 188 140 192
0.85935 -0.82501 0.4095 188 140 192
-0.01643 -0.86269 0.44797 188 140 192
0.7141 -0.86269 0.44797 188 140 192
0.79581 -0.77519 0.44797 188 140 192
0.79578 -0.26439 0.44797 188 140 192
0.85935 -0.2643 0.4095 188 140 192
0.85935 -0.26339 0.09272 188 140 192
-0.714 0.7294 0.44797 193 144 197
0.714 0.7294 0.44797 193 144 197
0.17653 0.24876 0.44797 193 144 197
-0.18231 0.24876 0.44797 193 144 197
0.32584 0.10317 0.44797 193 144 197
0.79572 0.65983 0.44797 193 144 197
0.79576 0.10366 0.44797 193 144 197
-0.33161 0.10317 0.44797 193 144 197
-0.79573 0.65983 0.44797 193 144 197
-0.79581 -0.77519 0.44797 193 144 197
-0.3317 -0.26438 0.44797 193 144 197
-0.7141 -0.86269 0.44797 193 144 197
-0.18239 -0.41492 0.44797 193 144 197
0.79578 -0.09801 0.44797 193 144 197
0.3259 -0.09856 0.44797 193 144 197
-0.18256 -0.86269 0.44797 193 144 197
0.14959 0.16546 0.4095 188 140 192
0.14969 0.16544 0.09272 188 140 192
-0.15535 0.16546 0.09272 188 140 192
-0.15535 0.16546 0.4095 188 140 192
0.25448 0.07486 0.09272 188 140 192
0.25448 0.07486 0.4095 188 140 192
0.32584 0.10317 0.44797 188 140 192
0.17653 0.24876 0.44797 188 140 192
-0.18231 0.24876 0.44797 188 140 192
-0.26026 0.07139 0.4095 188 140 192
-0.26026 0.07139 0.09272 188 140 192
-0.26026 -0.2318 0.09272 188 140 192
-0.26026 -0.2318 0.4095 188 140 192
-0.15535 -0.33294 0.09272 188 140 192
-0.15535 -0.33294 0.4095 188 140 192
-0.3317 -0.26438 0.44797 188 140 192
-0.18239 -0.41492 0.44797 188 140 192
-0.33161 0.10317 0.44797 188 140 192
0.3259 -0.09856 0.44797 188 140 192
0.25448 -0.09865 0.4095 188 140 192
0.25448 -0.09878 0.09272 188 140 192
0.25448 -0.24089 0.4095 172 128 175
0.25448 -0.24089 0.09272 172 128 175
0.25448 -0.09878 0.09272 172 128 175
0.25448 -0.09865 0.4095 172 128 175
0.3259 -0.09856 0.44797 172 128 175
0.32593 -0.26438 0.44797 172 128 175
0.79578 -0.09801 0.44797 172 128 175
0.79578 -0.26439 0.44797 172 128 175
0.14959 -0.33294 0.4095 188 140 192
0.14959 -0.33294 0.09272 188 140 192
0.25448 -0.24089 0.09272 188 140 192
0.25448 -0.24089 0.4095 188 140 192
0.17662 -0.41492 0.44797 188 140 192
0.32593 -0.26438 0.44797 188 140 192
-0.01551 -0.33294 0.4095 188 140 192
-0.01565 -0.33294 0.09272 188 140 192
-0.01548 -0.41492 0.44797 188 140 192
-0.15535 -0.33294 0.4095 172 128 175
-0.15535 -0.33294 0.09272 172 128 175
-0.01565 -0.33294 0.09272 172 128 175
-0.01551 -0.33294 0.4095 172 128 175
-0.01548 -0.41492 0.44797 172 128 175
-0.18239 -0.41492 0.44797 172 128 175
-0.01643 -0.86269 0.44797 172 128 175
-0.18256 -0.86269 0.44797 172 128 175
-0.01657 -0.91679 0.4095 172 128 175
-0.1824 -0.91679 0.4095 172 128 175
-0.01646 -0.91679 0.09272 172 128 175
-0.18241 -0.91679 0.09272 172 128 175
0.75525 -0.91679 0.05652 241 223 169
-3.30258E-08 -0.91679 0.05652 241 223 169
0.85935 -0.82501 0.05652 241 223 169
-0.01646 -0.91679 0.09272 241 223 169
0.75525 -0.91679 0.09272 241 223 169
0.85935 -0.82501 0.09272 241 223 169
0.85935 -0.26339 0.09272 241 223 169
0.85935 -0.09704 0.09272 241 223 169
0.85935 0.10382 0.09272 241 223 169
-0.18241 -0.91679 0.09272 241 223 169
0.85935 -0.09804 0.4095 172 128 175
0.85935 -0.2643 0.4095 172 128 175
0.85935 -0.09704 0.09272 172 128 175
0.85935 -0.26339 0.09272 172 128 175
-0.1887 0.375 0.39874 188 140 192
-0.1887 0.90476 0.39874 188 140 192
0.1887 0.90476 0.39874 188 140 192
0.1887 0.375 0.39874 188 140 192
0.1887 0.375 0.02134 188 140 192
0.1887 1.24629 0.02134 188 140 192
0.1887 1.29193 0.07672 188 140 192
0.07436 1.17462 0.91928 188 140 192
0.07436 1.02206 0.91928 188 140 192
-0.07436 1.02206 0.91928 188 140 192
-0.1887 1.29193 0.07672 188 140 192
-0.1887 1.24629 0.02134 188 140 192
-0.1887 0.375 0.02134 188 140 192
-0.07436 1.17462 0.91928 188 140 192
0.1887 1.29193 0.07672 241 223 169
-0.1887 1.29193 0.07672 241 223 169
-0.1887 1.24629 0.02134 241 223 169
0.1887 1.24629 0.02134 241 223 169
-0.07436 1.17462 0.91928 241 223 169
0.07436 1.17462 0.91928 241 223 169
0.1887 0.375 0.02134 241 223 169
-0.1887 0.375 0.02134 241 223 169
0.08802 0.9755 1.12121 241 223 169
0.12242 1.00566 1.12121 241 223 169
0.12242 1.00566 0.93129 241 223 169
0.08802 0.9755 0.93129 241 223 169
0.12242 1.19017 1.12121 241 223 169
0.12242 1.19017 0.93129 241 223 169
0.08802 1.22033 0.93129 241 223 169
0.08802 1.22033 1.12121 241 223 169
-0.08802 0.9755 1.12121 241 223 169
-0.08802 0.9755 0.93129 241 223 169
0.10813 1.17941 0.90745 241 223 169
0.07775 1.20605 0.90745 241 223 169
0.10813 1.01642 0.90745 241 223 169
0.07775 0.98978 0.90745 241 223 169
-0.07775 0.98978 0.90745 241 223 169
-0.10813 1.01642 0.90745 241 223 169
-0.12242 1.19017 1.12121 241 223 169
-0.12242 1.19017 0.93129 241 223 169
-0.08802 1.22033 0.93129 241 223 169
-0.08802 1.22033 1.12121 241 223 169
-0.12242 1.00566 1.12121 241 223 169
-0.12242 1.00566 0.93129 241 223 169
-0.07775 1.20605 0.90745 241 223 169
-0.10813 1.17941 0.90745 241 223 169
0.06601 1.00611 1.12121 249 230 174
0.09181 1.02873 1.12121 249 230 174
0.12242 1.00566 1.12121 249 230 174
0.08802 0.9755 1.12121 249 230 174
0.09181 1.16711 1.12121 249 230 174
0.12242 1.19017 1.12121 249 230 174
0.06601 1.18973 1.12121 249 230 174
0.08802 1.22033 1.12121 249 230 174
-0.06601 1.00611 1.12121 249 230 174
-0.08802 0.9755 1.12121 249 230 174
-0.06601 1.18973 1.12121 249 230 174
-0.09181 1.16711 1.12121 249 230 174
-0.12242 1.19017 1.12121 249 230 174
-0.08802 1.22033 1.12121 249 230 174
-0.09181 1.02873 1.12121 249 230 174
-0.12242 1.00566 1.12121 249 230 174
0.06601 1.00611 1.29529 241 223 169
0.09181 1.02873 1.29529 241 223 169
0.09181 1.02873 1.12121 241 223 169
0.06601 1.00611 1.12121 241 223 169
0.09181 1.16711 1.29529 241 223 169
0.09181 1.16711 1.12121 241 223 169
0.06601 1.18973 1.29529 241 223 169
0.06601 1.18973 1.12121 241 223 169
-0.06601 1.00611 1.29529 241 223 169
-0.06601 1.00611 1.12121 241 223 169
-0.06601 1.18973 1.29529 241 223 169
-0.09181 1.16711 1.29529 241 223 169
-0.09181 1.16711 1.12121 241 223 169
-0.06601 1.18973 1.12121 241 223 169
-0.09181 1.02873 1.29529 241 223 169
-0.09181 1.02873 1.12121 241 223 169
0.04892 1.02987 1.29529 249 230 174
0.06804 1.04664 1.29529 249 230 174
0.09181 1.02873 1.29529 249 230 174
0.06601 1.00611 1.29529 249 230 174
0.06804 1.1492 1.29529 249 230 174
0.09181 1.16711 1.29529 249 230 174
-0.04892 1.02987 1.29529 249 230 174
-0.06601 1.00611 1.29529 249 230 174
0.04892 1.16596 1.29529 249 230 174
0.06601 1.18973 1.29529 249 230 174
-0.04892 1.16596 1.29529 249 230 174
-0.06804 1.1492 1.29529 249 230 174
-0.09181 1.16711 1.29529 249 230 174
-0.06601 1.18973 1.29529 249 230 174
-0.06804 1.04664 1.29529 249 230 174
-0.09181 1.02873 1.29529 249 230 174
0.04892 1.02987 1.42967 241 223 169
0.06804 1.04664 1.42967 241 223 169
0.06804 1.04664 1.29529 241 223 169
0.04892 1.02987 1.29529 241 223 169
0.06804 1.1492 1.42967 241 223 169
0.06804 1.1492 1.29529 241 223 169
0.04892 1.16596 1.42967 241 223 169
0.04892 1.16596 1.29529 241 223 169
-0.04892 1.02987 1.42967 241 223 169
-0.04892 1.02987 1.29529 241 223 169
0.03995 1.15348 1.44573 241 223 169
0.05557 1.13979 1.44573 241 223 169
-0.03995 1.15348 1.44573 241 223 169
-0.04892 1.16596 1.42967 241 223 169
-0.05557 1.13979 1.44573 241 223 169
-0.06804 1.1492 1.42967 241 223 169
-0.06804 1.1492 1.29529 241 223 169
-0.04892 1.16596 1.29529 241 223 169
-0.06804 1.04664 1.42967 241 223 169
-0.06804 1.04664 1.29529 241 223 169
-0.05557 1.05604 1.44573 241 223 169
-0.03995 1.04235 1.44573 241 223 169
0.03995 1.04235 1.44573 241 223 169
0.05557 1.05604 1.44573 241 223 169
0.05557 1.05604 1.44573 249 230 174
0.03995 1.04235 1.44573 249 230 174
-0.03995 1.04235 1.44573 249 230 174
-0.05557 1.05604 1.44573 249 230 174
-0.0253 -0.53903 1.47274 181 134 184
-0.05575 -0.53903 1.47274 181 134 184
-0.05575 -0.53903 1.53856 181 134 184
-0.0253 -0.53903 1.53856 181 134 184
-0.0253 -0.55701 1.47274 181 134 184
-0.0253 -0.55701 1.53856 181 134 184
-0.05575 -0.55701 1.53856 181 134 184
-0.05575 -0.55701 1.47274 181 134 184
0.05575 -0.53903 1.53856 181 134 184
0.05575 -0.53903 1.47274 181 134 184
0.0253 -0.53903 1.47274 181 134 184
0.0253 -0.53903 1.53856 181 134 184
0.05575 -0.55701 1.53856 181 134 184
0.0253 -0.55701 1.53856 181 134 184
0.0253 -0.55701 1.47274 181 134 184
0.05575 -0.55701 1.47274 181 134 184
0.05557 1.13979 1.44573 249 230 174
-0.05557 1.13979 1.44573 249 230 174
-0.03995 1.15348 1.44573 249 230 174
0.03995 1.15348 1.44573 249 230 174
3 0 2 1
3 0 3 2
3 1 2 4
3 1 4 5
3 5 4 6
3 5 6 7
3 6 8 7
3 6 9 8
3 10 8 9
3 10 9 11
3 12 10 11
3 12 11 13
3 14 12 13
3 14 13 15
3 10 12 16
3 10 16 17
3 12 14 18
3 14 19 18
3 20 18 19
3 20 21 18
3 20 19 22
3 20 22 23
3 22 19 24
3 14 24 19
3 22 24 25
3 24 26 25
3 24 27 26
3 26 27 28
3 26 28 29
3 25 26 29
3 25 29 30
3 23 22 31
3 31 25 30
3 31 22 25
3 23 31 32
3 18 21 33
3 33 21 34
3 20 34 21
3 33 34 35
3 36 33 35
3 36 35 37
3 38 36 37
3 38 37 39
3 40 36 38
3 40 38 41
3 42 40 41
3 42 43 40
3 44 43 42
3 44 45 43
3 44 46 45
3 44 42 47
3 48 36 40
3 48 33 36
3 18 33 48
3 12 18 48
3 43 49 40
3 43 45 49
3 48 16 12
3 40 16 48
3 40 49 16
3 44 50 46
3 44 51 50
3 47 51 44
3 47 52 51
3 53 55 54
3 53 56 55
3 54 55 57
3 54 57 58
3 53 59 56
3 53 60 59
3 61 63 62
3 61 64 63
3 65 64 61
3 65 66 64
3 67 66 65
3 67 68 66
3 69 68 67
3 69 70 68
3 71 70 69
3 71 72 70
3 60 73 59
3 60 74 73
3 74 75 73
3 74 76 75
3 77 79 78
3 77 80 79
3 78 79 81
3 80 81 79
3 78 81 82
3 80 83 81
3 84 78 82
3 84 77 78
3 85 87 86
3 85 88 87
3 86 87 89
3 88 89 87
3 86 89 90
3 85 91 88
3 85 92 91
3 93 91 92
3 93 94 91
3 95 88 91
3 95 96 88
3 88 96 89
3 97 94 93
3 97 98 94
3 98 91 94
3 98 95 91
3 99 101 100
3 99 102 101
3 102 103 101
3 102 104 103
3 105 107 106
3 105 108 107
3 108 109 107
3 106 107 109
3 108 110 109
3 105 106 111
3 105 111 112
3 113 112 111
3 113 111 114
3 115 111 106
3 115 106 116
3 106 109 116
3 117 113 114
3 117 114 118
3 118 111 115
3 118 114 111
3 119 121 120
3 119 122 121
3 120 121 123
3 120 123 124
3 125 127 126
3 125 128 127
3 129 125 126
3 129 126 130
3 130 131 129
3 130 132 131
3 127 128 133
3 127 133 134
3 131 132 135
3 131 135 136
3 137 139 138
3 137 140 139
3 138 139 141
3 138 141 142
3 142 141 143
3 142 143 144
3 145 147 146
3 145 148 147
3 146 149 145
3 146 150 149
3 150 151 149
3 150 152 151
3 147 148 153
3 147 153 154
3 151 152 155
3 151 155 156
3 148 145 157
3 148 157 158
3 153 148 158
3 153 158 159
3 145 160 157
3 145 149 160
3 149 161 160
3 149 151 161
3 151 162 161
3 151 156 162
3 163 153 159
3 154 153 163
3 154 163 164
3 165 164 163
3 165 163 166
3 156 165 166
3 156 155 165
3 156 166 167
3 156 167 162
3 166 168 167
3 166 163 168
3 163 159 168
3 169 171 170
3 169 172 171
3 134 169 170
3 134 133 169
3 136 171 172
3 136 135 171
3 173 175 174
3 173 176 175
3 174 177 173
3 174 178 177
3 178 179 177
3 178 180 179
3 175 176 181
3 175 181 182
3 179 180 183
3 179 183 184
3 185 187 186
3 185 188 187
3 182 187 188
3 182 181 187
3 184 185 186
3 184 183 185
3 189 191 190
3 189 192 191
3 192 189 193
3 189 194 193
3 189 195 194
3 190 195 189
3 195 196 194
3 196 197 194
3 196 198 197
3 199 197 198
3 199 200 197
3 200 201 197
3 197 201 193
3 197 193 194
3 202 193 201
3 192 193 202
3 202 201 203
3 200 204 201
3 204 203 201
3 205 192 202
3 205 202 206
3 202 207 206
3 202 203 207
3 206 207 208
3 206 208 209
3 209 208 210
3 209 210 211
3 212 207 203
3 212 213 207
3 213 208 207
3 214 210 208
3 213 214 208
3 214 215 210
3 215 216 210
3 210 216 217
3 210 217 211
3 215 218 216
3 219 211 217
3 219 220 211
3 219 221 220
3 219 222 221
3 223 222 219
3 223 224 222
3 220 225 211
3 223 219 217
3 223 217 196
3 218 198 216
3 196 216 198
3 196 217 216
3 195 223 196
3 218 199 198
3 226 223 195
3 226 224 223
3 221 227 220
3 190 226 195
3 220 228 225
3 220 227 228
3 229 225 228
3 229 228 230
3 230 205 229
3 229 205 206
3 229 206 209
3 230 231 205
3 209 225 229
3 211 225 209
3 218 232 199
3 218 233 232
3 234 233 218
3 234 218 215
3 215 235 234
3 214 235 215
3 214 236 235
3 237 236 214
3 237 214 213
3 238 237 213
3 238 213 212
3 239 238 212
3 239 212 204
3 204 212 203
3 240 239 204
3 240 204 200
3 232 240 200
3 232 200 199
3 241 243 242
3 241 244 243
3 245 244 241
3 245 246 244
3 247 246 245
3 247 248 246
3 249 248 247
3 249 247 250
3 249 250 251
3 249 251 252
3 252 251 253
3 252 253 254
3 254 253 255
3 243 256 242
3 243 257 256
3 257 258 256
3 257 259 258
3 260 262 261
3 260 263 262
3 260 261 264
3 260 264 265
3 260 265 266
3 265 267 266
3 265 268 267
3 264 268 265
3 260 266 269
3 263 260 269
3 263 269 270
3 271 263 270
3 271 270 272
3 273 271 272
3 273 272 274
3 275 273 274
3 275 276 273
3 273 276 277
3 273 277 278
3 278 271 273
3 264 279 268
3 268 279 280
3 268 280 281
3 281 280 282
3 281 282 283
3 281 283 284
3 281 284 285
3 268 281 285
3 268 285 267
3 283 286 284
3 283 287 286
3 282 287 283
3 282 288 287
3 278 289 271
3 290 292 291
3 290 293 292
3 290 291 294
3 290 294 295
3 290 295 296
3 290 296 297
3 293 290 297
3 293 297 298
3 299 293 298
3 293 299 300
3 299 301 300
3 299 302 301
3 302 303 301
3 302 304 303
3 293 300 292
3 304 302 305
3 304 305 306
3 307 304 306
3 307 306 308
3 309 307 308
3 307 309 310
3 311 310 309
3 311 309 312
3 307 310 313
3 304 307 313
3 304 313 303
3 312 309 314
3 309 308 314
3 312 314 315
3 302 316 305
3 302 299 316
3 299 298 316
3 231 192 205
3 231 191 192
3 289 263 271
3 289 262 263
3 317 319 318
3 317 320 319
3 321 319 320
3 321 322 319
3 323 322 321
3 323 321 324
3 318 325 317
3 318 326 325
3 327 325 326
3 327 326 328
3 329 331 330
3 329 332 331
3 331 332 333
3 331 333 334
3 333 335 334
3 333 336 335
3 27 337 28
3 27 338 337
3 339 28 337
3 339 340 28
3 340 29 28
3 340 30 29
3 0 340 339
3 0 341 340
3 31 340 341
3 31 30 340
3 342 31 341
3 342 341 343
3 0 343 341
3 342 343 34
3 342 32 31
3 343 35 34
3 343 344 35
3 344 37 35
3 344 345 37
3 345 39 37
3 345 346 39
3 347 346 345
3 347 345 348
3 51 347 348
3 51 348 349
3 51 349 50
3 51 52 347
3 348 350 349
3 348 345 350
3 1 344 343
3 1 343 0
3 344 1 351
3 345 351 350
3 345 344 351
3 5 351 1
3 5 352 351
3 5 353 352
3 5 354 353
3 353 354 355
3 353 355 356
3 7 354 5
3 7 355 354
3 355 357 356
3 356 357 358
3 356 358 359
3 355 360 357
3 361 360 355
3 7 361 355
3 361 362 360
3 358 363 359
3 362 363 358
3 362 364 363
3 361 364 362
3 8 361 7
3 365 361 8
3 8 366 365
3 367 365 366
3 367 368 365
3 365 368 369
3 365 369 370
3 8 10 366
3 10 367 366
3 10 17 367
3 365 364 361
3 365 370 364
3 363 368 359
3 363 369 368
3 371 27 24
3 371 338 27
3 14 371 24
3 372 374 373
3 372 375 374
3 376 375 372
3 376 372 377
3 377 378 376
3 377 379 378
3 380 382 381
3 383 381 382
3 383 384 381
3 385 386 380
3 387 386 385
3 387 385 388
3 380 386 382
3 389 373 374
3 389 390 373
3 390 389 391
3 390 391 392
3 20 342 34
3 23 342 20
3 23 32 342
3 393 395 394
3 393 396 395
3 396 393 397
3 393 398 397
3 393 399 398
3 394 399 393
3 399 400 398
3 400 401 398
3 400 402 401
3 403 401 402
3 403 404 401
3 404 405 401
3 401 405 397
3 401 397 398
3 406 397 405
3 396 397 406
3 406 405 407
3 404 408 405
3 408 407 405
3 399 409 400
3 408 410 407
3 411 409 399
3 411 412 409
3 409 412 413
3 409 413 414
3 414 413 415
3 414 415 416
3 414 416 417
3 416 418 417
3 414 417 419
3 420 419 417
3 420 421 419
3 422 421 420
3 423 422 420
3 423 420 424
3 425 424 420
3 425 420 417
3 426 424 425
3 426 427 424
3 406 427 426
3 406 407 427
3 410 427 407
3 410 428 427
3 428 424 427
3 428 423 424
3 422 429 421
3 429 402 421
3 400 421 402
3 400 419 421
3 429 403 402
3 429 430 403
3 429 431 430
3 432 431 429
3 432 429 422
3 422 433 432
3 422 423 433
3 434 433 423
3 435 423 428
3 435 434 423
3 428 436 435
3 428 410 436
3 437 436 410
3 438 437 410
3 438 410 408
3 439 438 408
3 439 408 404
3 430 439 404
3 430 404 403
3 440 442 441
3 440 443 442
3 440 444 443
3 440 445 444
3 446 444 445
3 447 449 448
3 447 450 449
3 447 448 451
3 447 451 452
3 447 452 453
3 452 454 453
3 452 455 454
3 451 455 452
3 447 453 456
3 450 447 456
3 450 456 457
3 458 450 457
3 458 457 459
3 460 458 459
3 460 459 461
3 462 460 461
3 462 463 460
3 460 463 464
3 460 464 465
3 465 458 460
3 451 466 455
3 465 467 458
3 468 463 462
3 468 462 469
3 470 463 468
3 470 464 463
3 455 466 471
3 455 471 472
3 455 472 473
3 455 473 454
3 474 476 475
3 474 477 476
3 477 474 478
3 477 478 479
3 477 480 476
3 477 481 480
3 477 482 481
3 477 479 482
3 479 483 482
3 479 484 483
3 485 479 478
3 485 484 479
3 486 488 487
3 486 489 488
3 487 488 490
3 487 490 491
3 491 490 492
3 486 493 489
3 486 494 493
3 493 494 495
3 493 495 496
3 496 495 497
3 496 497 498
3 499 492 490
3 499 490 500
3 498 497 501
3 502 504 503
3 502 505 504
3 502 503 506
3 502 506 507
3 502 507 508
3 502 508 509
3 505 502 509
3 505 509 510
3 511 505 510
3 505 511 512
3 511 513 512
3 511 514 513
3 514 515 513
3 514 516 515
3 505 512 504
3 516 514 517
3 516 517 518
3 514 519 517
3 514 511 519
3 511 510 519
3 507 520 508
3 507 521 520
3 506 521 507
3 506 522 521
3 523 525 524
3 523 526 525
3 527 526 523
3 527 523 528
3 529 527 528
3 529 528 530
3 531 533 532
3 531 534 533
3 534 531 535
3 534 535 536
3 532 537 531
3 532 538 537
3 531 537 539
3 531 539 535
3 540 542 541
3 540 543 542
3 544 543 540
3 544 540 545
3 545 546 544
3 545 547 546
3 547 548 546
3 547 549 548
3 549 550 548
3 549 551 550
3 552 553 426
3 554 552 426
3 554 426 425
3 552 555 553
3 552 556 555
3 557 552 554
3 557 556 552
3 554 558 557
3 418 558 554
3 425 418 554
3 418 559 558
3 418 560 559
3 418 416 560
3 415 560 416
3 417 418 425
3 553 555 561
3 553 561 396
3 396 561 395
3 406 553 396
3 426 553 406
3 409 419 400
3 409 414 419
3 394 411 399
3 467 450 458
3 467 449 450
3 530 562 529
3 530 563 562
3 564 562 563
3 564 563 565
3 566 568 567
3 566 569 568
3 570 568 569
3 570 571 568
3 568 571 572
3 568 572 573
3 568 573 574
3 567 568 574
3 567 574 575
3 576 567 575
3 576 577 567
3 567 577 578
3 567 578 566
3 576 575 579
3 580 582 581
3 580 583 582
3 580 581 584
3 580 584 585
3 582 583 586
3 582 586 587
3 588 590 589
3 588 591 590
3 590 592 589
3 590 593 592
3 594 592 593
3 594 595 592
3 591 588 596
3 591 596 597
3 594 593 598
3 594 598 599
3 593 600 598
3 593 590 600
3 590 601 600
3 590 591 601
3 591 602 601
3 591 597 602
3 603 601 602
3 603 600 601
3 604 606 605
3 604 607 606
3 605 608 604
3 605 609 608
3 594 606 607
3 594 607 595
3 609 596 608
3 609 597 596
3 605 606 610
3 605 610 611
3 609 605 611
3 611 610 599
3 606 599 610
3 606 594 599
3 611 599 598
3 597 609 603
3 609 611 603
3 597 603 602
3 611 600 603
3 611 598 600
3 612 614 613
3 612 615 614
3 614 616 613
3 614 617 616
3 617 618 616
3 617 619 618
3 620 615 612
3 620 621 615
3 622 624 623
3 622 625 624
3 624 626 623
3 624 627 626
3 618 625 622
3 618 619 625
3 627 620 626
3 627 621 620
3 628 630 629
3 628 631 630
3 630 632 629
3 630 633 632
3 633 634 632
3 633 635 634
3 631 628 636
3 631 636 637
3 638 640 639
3 638 641 640
3 640 642 639
3 640 643 642
3 635 641 638
3 635 638 634
3 643 636 642
3 643 637 636
3 644 646 645
3 644 647 646
3 646 648 645
3 646 649 648
3 650 647 644
3 650 651 647
3 649 652 648
3 649 653 652
3 654 656 655
3 654 657 656
3 656 658 655
3 656 659 658
3 659 650 658
3 659 651 650
3 652 657 654
3 652 653 657
3 660 662 661
3 660 663 662
3 662 664 661
3 662 665 664
3 665 666 664
3 665 667 666
3 663 660 668
3 663 668 669
3 664 666 670
3 664 670 671
3 661 664 671
3 666 672 670
3 666 673 672
3 673 674 672
3 673 675 674
3 673 676 675
3 673 677 676
3 676 678 675
3 676 679 678
3 667 677 673
3 667 673 666
3 679 668 678
3 679 669 668
3 675 680 674
3 675 678 680
3 678 681 680
3 678 668 681
3 668 682 681
3 668 660 682
3 660 683 682
3 660 661 683
3 661 671 683
3 684 686 685
3 684 687 686
3 688 690 689
3 688 691 690
3 692 691 688
3 692 693 691
3 693 690 691
3 693 694 690
3 695 688 689
3 695 692 688
3 696 698 697
3 696 699 698
3 700 699 696
3 700 701 699
3 701 698 699
3 701 702 698
3 702 697 698
3 702 703 697
3 694 689 690
3 694 695 689
3 703 696 697
3 703 700 696
3 704 706 705
3 704 707 706
3 704 705 687
3 704 687 684
