mtllib Empoleon.mtl
v 0 0.510462 0
vt 0.973036 0.751159
vn 0 0.979478 0.201551
v 0.111966 0.510068 -0.170775
vn 0.3988861 0.5633811 -0.7235272
v -0.111966 0.510068 -0.170775
vn -0.3988858 0.5633807 -0.7235277
v 0.223389 0.484747 0
vn 0.7608978 0.6197279 -0.1922809
v -0.223389 0.484747 0
vn -0.7608973 0.6197283 -0.1922811
v 0.191234 0.455961 0.091194
vn 0.4252818 0.7422757 0.5178438
v -0.191234 0.455961 0.091194
vn -0.425282 0.7422761 0.5178431
v 0.122583 0.438165 0.145956
vn 0.1487161 0.6524833 0.7430674
v -0.122583 0.438165 0.145956
vn -0.1487161 0.6524833 0.7430674
v 0 0.447909 0.208329
vt 0.947908 0.0699906
vn 0 0.9774135 -0.2113359
v 0.126771 0.509102 0.195228
vn -0.57878 0.81387 -0.0512775
v 0 0.337408 0.0142365
vn 0 0.9549627 -0.2967259
vn 0.4448399 -0.5517439 0.7054759
v -0.126771 0.509102 0.195228
vn 0.57878 0.81387 -0.0512774
v 0.031668 0.392278 0.140506
vn 0.7969671 -0.211191 0.5658991
vn -0.4448399 -0.5517439 0.7054759
v 0 0.304082 0.253446
vn 0 0.2499671 0.9682543
v -0.031668 0.392278 0.140506
vn -0.7969671 -0.211191 0.5658991
v 0.229769 0.582964 0.106765
vn -0.5632771 0.8088881 0.168579
vn 0.8166726 -0.3318028 0.4721788
vn -0.8166726 -0.3318028 0.4721788
v -0.229769 0.582964 0.106765
vn 0.5632771 0.8088881 0.168579
v 0.033936 0.257702 0.194188
vn 0.8939471 0.0311596 0.447088
v -0.033936 0.257702 0.194188
vn -0.8939471 0.0311596 0.447088
vn 0.9344069 -0.327754 -0.139503
v -0.0780833 0.399368 -0.0660731
vn 0.743834 0.6640019 -0.07623949
v 0.0780833 0.399368 -0.0660731
vn -0.743834 0.6640019 -0.07623949
vn -0.9344068 -0.3277539 -0.139504
v 0 0.193103 0.243445
vn 0 -0.1081869 0.9941306
v 0.0224567 0.10692 0.173686
vn 0.9561495 -0.2604459 0.1339629
v 0.266316 0.65931 -0.0454747
vn -0.6238507 0.7294106 0.2806608
v 0.259374 0.691697 -0.106273
vn -0.5683762 0.8220854 0.03352692
v 0.16522 0.480875 -0.0859548
vn 0.3581632 -0.2467411 -0.9004654
v -0.266316 0.65931 -0.0454747
vn 0.6238507 0.7294106 0.2806608
v -0.259374 0.691697 -0.106273
vn 0.5683763 0.8220854 0.03352521
v -0.16522 0.480875 -0.0859549
vn -0.3581628 -0.2467409 -0.9004656
v 0 0.0680417 0.285866
vn 0 -0.593371 0.8049291
v 0 0.038484 0.00122005
vn 0 -0.9946519 0.103285
v -0.0224567 0.10692 0.173686
vn -0.9561495 -0.2604459 0.1339629
v 0.0673524 0.456753 -0.1352
vt 0.583838 0.94436
vn 0.19258 -0.864671 -0.463958
v 0.14863 0.474286 0.035359
vn 0.4695181 -0.8796642 -0.07578761
v 0.0667455 0.44062 0.0962747
vn 0.2360889 -0.9715908 0.0165338
v 0.15324 0.497375 -0.0944663
vn 0.7816933 -0.5520542 -0.2901581
v 0 0.421638 -0.00971813
vn 0 -0.9979872 -0.06341531
vn 0.3914541 -0.4119421 -0.8228411
v -0.0673524 0.456753 -0.1352
vn -0.218511 -0.8927492 -0.3940201
vn -0.4359239 -0.3998159 -0.8062987
v 0.187741 0.550569 -0.0116824
vn 0.9907801 -0.127807 -0.04494691
v -0.0667455 0.44062 0.0962747
vn -0.2360889 -0.9715908 0.0165338
v 0.0791144 0.624218 -0.223854
vn 0.32842 -0.06320339 -0.9424148
v 0.184269 0.646834 -0.108669
vn 0.9408476 0.11168 -0.3198959
v -0.14863 0.474286 0.035359
vn -0.4695181 -0.8796642 -0.07578751
v -0.0791144 0.624218 -0.223854
vn -0.3585589 -0.02449679 -0.9331856
v -0.15324 0.497375 -0.0944663
vn -0.7816933 -0.5520542 -0.2901581
v -0.184269 0.646834 -0.108669
vn -0.9408476 0.11168 -0.3198959
v 0.168344 0.706731 0.0625212
vn 0.8433095 0.3591798 0.3997737
v -0.187741 0.550569 -0.0116824
vn -0.9907801 -0.127807 -0.04494691
v -0.168344 0.706731 0.0625212
vn -0.8433098 0.3591789 0.3997739
v 0.168922 0.608592 0.0810286
vn 0.7815341 0.09423622 0.6167041
v -0.168922 0.608592 0.0810286
vn -0.7815341 0.09423602 0.6167041
v 0.219409 0.779842 -0.00632903
vt 0.391799 0.958442
vn 0.989593 -0.00447077 0.143825
v 0.166605 0.823208 0.0566321
vn 0.816946 0.221877 0.532325
v 0.188888 0.761849 0.032598
vn 0.7647379 0.08469529 0.6387509
v 0.223435 0.881915 -0.0648958
vn 0.9615472 0.10716 0.2528711
vn 0.8049301 0.0008122621 0.5933691
vn 0.9698254 -0.2437729 -0.003663628
v 0.194983 0.580962 0.0377429
vn 0.9462239 -0.176851 0.270895
v 0 0.820097 0.147755
vn 0 0.2871939 0.9578725
v 0 0.585763 0.209861
vn 0 0.169234 0.9855759
v 0.0402318 0.719396 0.155006
vn 0.4427291 0.2282511 0.8671173
v -0.0402318 0.719396 0.155006
vn -0.4427291 0.2282511 0.8671173
v 0.0404063 0.871787 0.116099
vn 0.2639569 0.3944949 0.8801708
v -0.0404063 0.871787 0.116099
vn -0.2639568 0.3944958 0.8801704
v 0 1.00936 0.061597
vn 0 0.441419 0.8973011
v 0.0400574 0.567005 0.193914
vn 0.562253 0.0403783 0.8259789
v -0.0400574 0.567005 0.193914
vn -0.562253 0.0403785 0.8259789
v 0.086814 0.892405 0.0860286
vn 0.3474771 0.4318092 0.8323464
v -0.086814 0.892405 0.0860286
vn -0.347478 0.431809 0.8323461
v 0 0.488827 0.203156
vt 0.00164128 0.858463
vn 0 -0.6102009 0.7922468
vt 0.119052 1.08059
vt 0.00265024 1.1351
v 0.118539 0.521945 0.134416
vt 0.328455 0.972765
vn 0.7145593 -0.128043 0.6877573
v 0 0.483772 0.158615
v -0.118539 0.521945 0.134416
vn -0.7145593 -0.128043 0.6877573
v -0.219409 0.779842 -0.00632903
vn -0.989593 -0.00447076 0.143825
v -0.166605 0.823208 0.0566321
vn -0.816946 0.221877 0.532325
v -0.223435 0.881915 -0.0648958
vn -0.961547 0.10716 0.252872
v -0.188888 0.761849 0.032598
vn -0.7647384 0.08469503 0.6387503
vn -0.9698254 -0.2437729 -0.003663598
vn -0.8049301 0.0008122991 0.5933691
v -0.194983 0.580962 0.0377429
vn -0.9462239 -0.176851 0.270895
v 0.144052 0.743973 -0.123717
vt 0.57245 0.925278
vn 0.6551151 0.6127951 -0.441935
v 0 0.732909 -0.205204
vn 0 0.5752721 -0.8179621
v 0.116758 0.793488 0.0212995
vn 0.5343398 0.8316746 0.1509909
v 0 0.817033 -0.0927249
vn 0 0.9493085 -0.3143458
v 0 0.809496 0.0859405
vn 0 0.9126231 0.4088021
v -0.144052 0.743973 -0.123717
vn -0.6551153 0.6127953 -0.4419342
v -0.116758 0.793488 0.0212995
vn -0.5343398 0.8316746 0.1509909
v 0 0.925049 0.0915454
vn 0 -0.382044 -0.9241441
vn -0.218362 -0.432913 -0.8745881
vn -0.03431581 -0.3071281 -0.9510493
vn 0 -0.3347291 -0.9423144
vn 0.03431581 -0.3071281 -0.9510493
vn 0.218362 -0.432913 -0.8745881
vn 0 -0.247379 -0.9689188
v -0.240818 0.253725 -0.0361084
vt 0.515198 0.899218
vn -0.930122 0.0467107 -0.364268
v -0.121081 0.191422 -0.223811
vn -0.6362091 0.04262771 -0.7703381
v -0.229276 0.086932 0.00123296
vn -0.9222038 -0.3854839 0.03069639
v -0.127846 0.163856 0.206888
vn -0.4703082 -0.1730051 0.8653783
v -0.129687 0.25451 0.198552
vn -0.4977491 0.172509 0.8499921
v -0.114638 0.086932 -0.205646
vn -0.3639491 -0.7308423 -0.5774172
v -0.114638 0.086932 0.181985
vn -0.213263 -0.6731929 0.7080469
v 0.240818 0.253725 -0.0361084
vn 0.930122 0.0467108 -0.364268
v 0.229276 0.086932 0.00123296
vn 0.9222038 -0.3854839 0.03069669
v 0.121081 0.191422 -0.223811
vn 0.6362091 0.04262771 -0.7703381
v 0.127846 0.163856 0.206888
vn 0.4703082 -0.1730051 0.8653783
v 0.129687 0.25451 0.198552
vn 0.4977491 0.172509 0.8499921
v 0.114638 0.086932 -0.205646
vn 0.36395 -0.730842 -0.577417
v 0.114638 0.086932 0.181985
vn 0.213263 -0.6731929 0.7080469
v 0 0.0931273 -0.202242
vt 0.94224 0.0644897
vn 0 -0.9416732 0.336529
v 0 0.150627 -0.424768
vn 0 -0.6964618 -0.7175939
v 0.0196949 0.188393 -0.235615
vn 0.9927692 -0.03437281 0.115012
v -0.0196949 0.188393 -0.235615
vn -0.9927691 -0.0343729 0.115013
v 0 0.415647 -0.186279
vn 0 0.3634001 0.9316332
v 0 0.238624 -0.257155
vn 0 0.6092829 -0.7929529
v 0.332702 0.235476 0.165769
vt 0.00486679 0.402073
vn 0.8871381 0.365796 0.281388
v 0.272313 0.212943 0.0133597
vt 0.155536 0.0655531
vn 0.9082398 0.144173 -0.3928289
vt 0.724499 0.281485
vt 0.697005 0.471718
vt 0.669512 0.661952
v 0.19227 0.222922 0.196319
vt 0.141854 0.707807
vn 0.179286 0.2787989 0.9434658
vt 0.286786 0.0101799
vt 0.261547 0.787673
v -0.332702 0.235476 0.165769
vn -0.8871381 0.365796 0.281388
v -0.272313 0.212943 0.0133597
vn -0.9082398 0.144173 -0.3928289
v -0.19227 0.222922 0.196319
vn -0.179286 0.2787989 0.9434658
vn -0.9553402 0.03196741 -0.2937741
vn -0.8719407 -0.131962 -0.4714928
vn -0.9477076 0.01379289 -0.3188419
vn -0.967765 0.0566797 -0.245394
vn -0.9715257 0.05363768 -0.2307829
vn 0.9553402 0.03196731 -0.2937741
vn 0.9477076 0.01379289 -0.3188419
vn 0.8719407 -0.131962 -0.4714928
vn 0.967765 0.0566797 -0.245394
vn 0.9715257 0.05363778 -0.2307829
vt 0.13119 0.971394
vn 0.8448967 -0.3756359 0.3808509
vt 0.159167 0.963499
vn -0.8448967 -0.3756359 0.3808509
vt 0.205836 0.902328
vn 0 -0.7106598 0.7035358
vt 0.194586 1.05358
vn -0.361018 -0.6777461 0.6405671
vn 0.361018 -0.6777461 0.6405671
vt 0.207335 0.903253
vn -0.4956222 -0.6070012 0.6212152
vn 0.4956219 -0.6070018 0.6212148
v -0.0502914 0.580881 0.161996
vt 0.304832 0.873698
vn -0.6628497 0.5852807 0.4669868
v 0.0502914 0.580881 0.161996
vn 0.6628492 0.5852802 0.4669882
vt 0.959895 0.115298
vn 0.4511621 0.432748 0.7805011
vt 0.747194 0.334988
vt 0.718941 -0.000198364
vt 0.996254 0.483081
vn -0.4511621 0.432748 0.7805011
vt 0.828395 0.956639
vn -0.5236951 -0.8234051 -0.218512
vt 0.923933 0.572698
vt 0.930081 0.975296
vt 0.825066 0.593558
vn 0.5236958 -0.8234047 -0.2185119
vt 0.111989 0.968367
vt 0.2109 0.907356
vn 0.6161699 -0.6201459 0.4855449
vt 0.208668 0.903259
vt 0.209522 1.05175
vn -0.6161702 -0.6201453 0.4855452
vt 0.210046 1.05175
vt 0.959895 0.0647165
vt 0.562315 0.745892
vn -0.110635 -0.9885802 0.102319
vn 0.110635 -0.9885802 0.102319
o merged_0_0_node
g polygon_0
usemtl mat_arm1_mat_id
f 1/1/1 2/1/2 3/1/3
f 1/1/1 4/1/4 2/1/2
f 1/1/1 3/1/3 5/1/5
f 1/1/1 6/1/6 4/1/4
f 1/1/1 5/1/5 7/1/7
f 1/1/1 8/1/8 6/1/6
f 1/1/1 7/1/7 9/1/9
f 1/1/1 9/1/9 8/1/8
f 10/2/10 11/2/11 12/2/12
f 10/2/10 8/2/13 11/2/11
f 10/2/10 12/2/12 13/2/14
f 10/2/10 14/2/15 8/2/13
f 10/2/10 13/2/14 9/2/16
f 10/2/10 15/2/17 14/2/15
f 10/2/10 9/2/16 16/2/18
f 10/2/10 16/2/18 15/2/17
f 11/2/11 17/2/19 12/2/12
f 11/2/11 8/2/13 6/2/20
f 11/2/11 6/2/20 17/2/19
f 13/2/14 7/2/21 9/2/16
f 13/2/14 12/2/12 18/2/22
f 13/2/14 18/2/22 7/2/21
f 14/2/15 15/2/17 19/2/23
f 16/2/18 20/2/24 15/2/17
f 6/2/20 4/2/25 17/2/19
f 12/2/12 21/2/26 18/2/22
f 12/2/12 17/2/19 22/2/27
f 7/2/21 18/2/22 5/2/28
f 19/2/23 15/2/17 23/2/29
f 19/2/23 23/2/29 24/2/30
f 15/2/17 20/2/24 23/2/29
f 4/2/25 25/2/31 17/2/19
f 4/2/25 26/2/32 25/2/31
f 4/2/25 27/2/33 26/2/32
f 22/2/27 17/2/19 25/2/31
f 22/2/27 26/2/32 27/2/33
f 22/2/27 25/2/31 26/2/32
f 21/2/26 28/2/34 18/2/22
f 21/2/26 29/2/35 28/2/34
f 21/2/26 30/2/36 29/2/35
f 5/2/28 18/2/22 28/2/34
f 5/2/28 29/2/35 30/2/36
f 5/2/28 28/2/34 29/2/35
f 24/2/30 23/2/29 31/2/37
f 24/2/30 31/2/37 32/2/38
f 20/2/24 33/2/39 23/2/29
f 33/2/39 31/2/37 23/2/29
f 33/2/39 32/2/38 31/2/37
f 34/3/40 35/3/41 36/3/42
f 34/3/40 37/3/43 35/3/41
f 34/3/40 36/3/42 38/3/44
f 34/3/40 2/3/45 37/3/43
f 34/3/40 38/3/44 39/3/46
f 34/3/40 3/3/47 2/3/45
f 34/3/40 39/3/46 3/3/47
f 35/3/41 37/3/43 40/3/48
f 36/3/42 41/3/49 38/3/44
f 38/3/44 41/3/49 39/3/46
f 2/3/45 3/3/47 42/3/50
f 2/3/45 43/3/51 37/3/43
f 2/3/45 42/3/50 43/3/51
f 37/3/43 43/3/51 40/3/48
f 41/3/49 44/3/52 39/3/46
f 3/3/47 45/3/53 42/3/50
f 3/3/47 39/3/46 46/3/54
f 3/3/47 47/3/55 45/3/53
f 3/3/47 46/3/54 47/3/55
f 39/3/46 44/3/52 46/3/54
f 43/3/51 48/3/56 40/3/48
f 47/3/55 46/3/54 49/3/57
f 47/3/55 49/3/57 50/3/58
f 46/3/54 44/3/52 49/3/57
f 48/3/56 51/3/59 40/3/48
f 50/3/58 49/3/57 52/3/60
f 53/4/61 54/4/62 55/4/63
f 53/4/61 56/4/64 54/4/62
f 53/4/61 55/4/63 51/4/65
f 53/4/61 40/4/66 56/4/64
f 53/4/61 51/4/65 57/4/67
f 53/4/61 57/4/67 40/4/66
f 58/4/68 59/4/69 60/4/70
f 58/4/68 61/4/71 59/4/69
f 58/4/68 60/4/70 62/4/72
f 58/4/68 63/4/73 61/4/71
f 58/4/68 62/4/72 64/4/74
f 58/4/68 64/4/74 63/4/73
f 59/4/69 65/4/75 60/4/70
f 59/4/69 61/4/71 66/4/76
f 62/4/72 67/4/77 64/4/74
f 63/4/73 64/4/74 68/4/78
f 69/5/79 65/6/75 59/7/69
f 69/5/79 70/8/80 65/6/75
f 69/5/79 59/7/69 66/6/76
f 69/5/79 71/5/38 70/8/80
f 69/5/79 66/6/76 72/8/81
f 69/5/79 72/8/81 71/5/38
f 73/4/82 74/4/83 75/4/84
f 73/4/82 76/4/85 74/4/83
f 73/4/82 75/4/84 49/4/86
f 73/4/82 52/4/87 76/4/85
f 73/4/82 49/4/86 77/4/88
f 73/4/82 77/4/88 52/4/87
f 78/9/89 43/9/51 42/9/50
f 78/9/89 48/9/56 43/9/51
f 78/9/89 42/9/50 79/9/90
f 78/9/89 80/9/91 48/9/56
f 78/9/89 79/9/90 81/9/92
f 78/9/89 81/9/92 80/9/91
f 42/9/50 45/9/53 79/9/90
f 81/9/92 82/9/93 80/9/91
f 81/9/92 79/9/90 83/9/94
f 81/9/92 84/9/95 82/9/93
f 81/9/92 83/9/94 84/9/95
f 79/9/90 45/9/53 83/9/94
f 84/9/95 83/9/94 50/9/58
f 45/9/53 47/9/55 83/9/94
f 83/9/94 47/9/55 50/9/58
f 85/4/96 67/4/97 62/4/98
f 85/4/96 64/4/99 67/4/97
f 85/4/96 62/4/98 63/4/100
f 85/4/96 68/4/101 64/4/99
f 85/4/96 63/4/100 68/4/101
f 62/4/98 60/4/102 63/4/100
f 60/4/102 61/4/102 63/4/100
f 86/10/103 87/10/104 88/10/105
f 86/10/103 3/10/3 87/10/104
f 86/10/103 88/10/105 89/10/106
f 86/10/103 5/10/5 3/10/3
f 86/10/103 89/10/106 90/10/107
f 87/10/104 91/10/108 88/10/105
f 89/10/106 88/10/105 92/10/109
f 93/10/110 94/10/111 95/10/112
f 93/10/110 96/10/113 94/10/111
f 93/10/110 95/10/112 2/10/2
f 93/10/110 97/10/114 96/10/113
f 93/10/110 2/10/2 4/10/4
f 94/10/111 98/10/115 95/10/112
f 94/10/111 96/10/113 99/10/116
f 100/11/117 101/11/118 102/11/119
f 100/11/117 103/11/120 101/11/118
f 100/11/117 102/11/119 104/11/121
f 100/11/117 104/11/121 103/11/120
f 101/11/118 105/11/122 102/11/119
f 101/11/118 103/11/120 105/11/122
f 105/11/122 103/11/120 104/11/121
f 105/11/122 104/11/121 102/11/119
f 106/12/123 107/13/124 4/14/4
f 106/12/123 4/14/4 6/15/6
f 106/12/123 6/15/6 8/16/8
f 106/12/123 8/16/8 108/17/125
f 107/13/124 93/18/110 4/14/4
f 8/16/8 97/19/114 108/17/125
f 109/12/126 5/16/5 110/17/127
f 109/12/126 7/15/7 5/16/5
f 109/12/126 9/14/9 7/15/7
f 109/12/126 111/13/128 9/14/9
f 110/17/127 5/16/5 86/19/103
f 111/13/128 90/18/107 9/14/9
f 55/4/129 54/4/130 56/4/131
f 55/4/129 56/4/131 40/4/132
f 55/4/129 40/4/132 51/4/133
f 76/4/134 75/4/135 74/4/136
f 76/4/134 49/4/137 75/4/135
f 76/4/134 52/4/138 49/4/137
f 57/20/67 35/20/139 40/20/66
f 57/20/67 70/20/80 35/20/139
f 57/20/67 51/20/65 70/20/80
f 77/21/88 44/21/140 72/21/81
f 77/21/88 49/21/86 44/21/140
f 77/21/88 72/21/81 52/21/87
f 72/21/81 66/21/76 52/21/87
f 71/22/141 41/23/142 36/23/143
f 71/22/141 72/24/144 41/23/142
f 71/22/141 36/23/143 70/24/145
f 112/25/146 52/25/87 66/25/76
f 112/25/146 66/25/76 61/25/71
f 113/25/147 60/25/70 65/25/75
f 113/25/147 65/25/75 51/25/65
f 60/26/148 80/27/91 82/28/93
f 60/26/148 48/29/56 80/27/91
f 82/28/93 84/27/95 61/26/149
f 84/27/95 50/29/58 61/26/149
f 107/30/150 97/31/150 93/32/150
f 107/30/150 108/33/150 97/31/150
f 110/30/151 90/31/151 111/33/151
f 110/30/151 86/32/151 90/31/151
f 51/34/65 65/34/75 70/34/80
f 35/35/152 70/36/145 36/37/143
f 72/36/144 44/35/153 41/38/142
f 60/39/148 82/39/93 61/39/149
f 109/40/154 110/30/154 111/33/154
f 108/33/155 107/30/155 106/40/155
vt -0.85388 0.326985
vt 0.853879 0.326985
vt -0.952257 0.472857
vt 0.952257 0.472857
vt -0.965969 0.644765
v 0 0.292486 0.226346
vt 0 0.71678
vn 0 0.2066241 0.9784204
vt 0.965969 0.644765
vt -0.608977 0.993033
vt 0.608977 0.993033
vt 0.823629 0.404151
v 0 0.0364499 0
vn 0 -0.9999982 0.00193117
v -0.114731 0 0
vt 0.570251 0.284662
vn -0.19237 -0.9813128 -0.004361969
vt 0.569624 0.440438
vt -0.20489 0.34319
v 0.114731 0 0
vn 0.19237 -0.9813128 -0.004361869
vt 1.34414 0.440438
vt 0.953586 0.294989
v 0 0.188163 -0.24432
vn 0 -0.302018 -0.9533022
vt -0.833973 0.253847
vt 0 -0.356585
vn 0 0.187267 -0.982309
vt -0.901866 -0.350405
vt 0.833974 0.253847
vt 0.901867 -0.350405
o merged_1_0_node
g polygon_0
usemtl mat_body1_mat_id
f 92/41/109 99/42/116 89/43/106
f 89/43/106 99/42/116 96/44/113
f 90/45/107 89/43/106 114/46/156
f 89/43/106 96/44/113 114/46/156
f 114/46/156 96/44/113 97/47/114
f 90/45/107 114/46/156 9/48/9
f 9/48/9 114/46/156 8/49/8
f 114/46/156 97/47/114 8/49/8
f 91/50/108 98/50/115 115/50/157
f 116/51/158 91/52/108 115/53/157
f 92/52/109 116/51/158 115/53/157
f 99/50/116 92/50/109 115/50/157
f 117/51/159 99/52/116 115/53/157
f 98/52/115 94/54/111 117/51/159
f 98/52/115 117/51/159 115/53/157
f 94/54/111 99/52/116 117/51/159
f 92/52/109 88/54/105 116/51/158
f 88/54/105 91/52/108 116/51/158
f 87/55/104 118/55/160 91/55/108
f 91/55/108 118/55/160 98/55/115
f 118/55/160 95/55/112 98/55/115
f 3/56/3 118/57/161 87/58/104
f 3/56/3 2/59/2 118/57/161
f 2/59/2 95/60/112 118/57/161
vt 0.0830202 0.752674
vn -0.5487303 0.08183674 0.8319843
vt 0.0124296 0.995673
vt 0.915484 0.801287
vn 0.5487298 0.08183686 0.8319846
vt 0.91143 0.973454
o merged_2_0_node
g polygon_0
usemtl TEX_ANIM_EYE_mat_id
f 112/61/162 61/62/149 52/63/60
f 113/61/163 51/63/59 60/62/148
f 60/62/148 51/63/59 48/64/56
f 50/64/58 52/63/60 61/62/149
