mtllib Golett.mtl
v -0.13604 0.259588 0.156307
vt 0.526573 0.770838
vn -0.463599 -0.0147739 0.885922
v 0.13604 0.259588 0.156307
vt 0.907174 0.770838
vn 0.463599 -0.0147739 0.885922
v 0.124429 0.342008 0.156307
vt 0.890931 0.898169
vn 0.3701591 0.2719851 0.8882603
v 0.120161 0.171769 0.156362
vt 0.884961 0.637826
vn 0.328209 -0.390821 0.8599639
v -0.124429 0.342008 0.156307
vt 0.542816 0.898169
vn -0.37016 0.271985 0.88826
v -0.120161 0.171768 0.156361
vt 0.548786 0.637826
vn -0.328209 -0.390823 0.8599629
v -0.18889 0.342009 0.00586228
vt 0.456924 0.89817
vn -0.9355809 0.350519 -0.0427179
v -0.182435 0.171769 0.00585333
vt 0.461674 0.637826
vn -0.9174464 -0.3968292 -0.02861591
v -0.202399 0.259585 0.00572035
vt 0.445407 0.770838
vn -0.9991248 -0.02084049 -0.03626949
v 0.18889 0.342009 0.00586228
vt 0.964978 0.89817
vn 0.9355809 0.350519 -0.0427173
v 0.182435 0.171769 0.00585333
vt 0.972073 0.637826
vn 0.917446 -0.39683 -0.0286159
v 0.202399 0.259585 0.00572035
vt 0.98834 0.770838
vn 0.9991248 -0.02084029 -0.03626939
v -0.111143 0.388727 0.123287
vt 0.56617 0.961033
vn -0.270859 0.8221149 0.5007619
v 0 0.388727 0.123287
vt 0.716873 0.961033
vn 0 0.8440692 0.5362342
v -0.107973 0.118751 0.00584843
vt 0.565834 0.564011
vn -0.4759662 -0.8792583 -0.01900291
v 0.0582154 0.115137 0.0604629
vt 0.798308 0.565779
vn 0.07592511 -0.8901392 0.4493191
v -0.0582154 0.115137 0.0604628
vt 0.635439 0.565779
vn -0.0759216 -0.89014 0.449318
v 0.111143 0.388727 0.123287
vt 0.867577 0.961033
vn 0.270859 0.8221149 0.5007619
v 0.137925 0.388766 0.00586447
vt 0.884892 0.952852
vn 0.5393889 0.8409138 -0.04386009
v 0.107973 0.118751 0.00584843
vt 0.867913 0.564011
vn 0.475967 -0.8792579 -0.0190005
v -0.137925 0.388766 0.00586447
vt 0.548855 0.952852
vn -0.5393893 0.8409135 -0.04386082
v 0 0.0907067 0.00584843
vt 0.716874 0.518472
vn 0 -0.9987843 -0.04929382
v 0 0.408765 0.00586567
vt 0.716873 0.995831
vn 0 0.9999925 0.003861778
v 0.112279 0.171769 -0.126984
vt 0.878765 0.142618
vn 0.359534 -0.437244 -0.8243501
vt 0.869003 0.0578954
v 0.058215 0.12255 -0.0623584
vt 0.800808 0.0701495
vn 0.09019231 -0.8513201 -0.516836
vt 0.972073 0.142618
v -0.058215 0.12255 -0.0623584
vt 0.63292 0.0701495
vn -0.09019241 -0.8513201 -0.516836
vt 0.98834 0.27563
v -0.112278 0.171769 -0.126984
vt 0.554964 0.142618
vn -0.359534 -0.437244 -0.8243501
v 0.124714 0.25958 -0.148588
vt 0.896695 0.27563
vn 0.417173 -0.007631001 -0.9087951
v -0.124713 0.25958 -0.148588
vt 0.537033 0.27563
vn -0.417173 -0.007631021 -0.9087951
vt 0.716864 0.0232637
v 0.110981 0.34201 -0.127
vt 0.876894 0.398055
vn 0.365776 0.4146691 -0.8332211
vt 0.970221 0.398053
vt 0.445407 0.27563
vt 0.565834 0.0688029
vt 0.461674 0.142618
v -0.110981 0.34201 -0.127
vt 0.556835 0.398055
vn -0.3657758 0.4146687 -0.8332214
v 0.0926054 0.388755 -0.0874138
vt 0.846364 0.467405
vn 0.2404821 0.8192452 -0.5205821
vt 0.879026 0.466415
vt 0.46404 0.398053
vt 0.717429 0.502696
v -0.0926052 0.388755 -0.0874139
vt 0.587303 0.467405
vn -0.2404819 0.8192448 -0.5205829
vt 0.525635 0.467842
v 6.14082E-05 0.474 0.168668
vt 0.202985 0.161644
vn -0.00065637 0.00194547 0.9999979
v -0.112445 0.360666 0.142819
vt 0.0665564 0.0242129
vn -0.4441558 -0.7782467 0.4439119
v 6.98767E-05 0.360706 0.155198
vt 0.202995 0.0242608
vn 2.367039E-06 -0.9110337 0.4123319
v -0.161921 0.473915 0.147185
vt 0.0194541 0.161541
vn -0.7939551 -0.0142179 0.6078101
v 0.112445 0.360666 0.142819
vt 0.339264 0.0242129
vn 0.4450879 -0.7778378 0.4436949
v -0.0704429 0.560038 0.143631
vt 0.117489 0.265977
vn -0.3236109 0.7005098 0.6360518
v 0.16125 0.473915 0.147185
vt 0.398447 0.161541
vn 0.787118 -0.0441537 0.61522
v 6.29107E-05 0.55965 0.157532
vt 0.202987 0.265507
vn 0.140066 0.717879 0.681932
v 0.0829132 0.560038 0.143629
vt 0.303453 0.265977
vn 0.3859741 0.6504853 0.6541353
v -0.153014 0.360184 0.0211763
vt 0.370868 0.0304293
vn -0.6798692 -0.7327232 0.02990891
v 0 0.35949 -0.10683
vt 0.376784 0.0295776
vn 0 -0.8425949 -0.5385479
v 0 0.360022 -0.0138622
vt 0.372487 0.03023
vn 0 -1 0
v -0.0911012 0.359597 -0.0872644
vt 0.375879 0.0297089
vn -0.4816957 -0.7040556 -0.5217997
v 0 0.360286 0.0509262
vt 0.369493 0.0305533
v -0.200524 0.473417 0.0215552
vt 0.37085 0.169327
vn -0.999539 0.00803133 0.0292804
vt 0.365246 0.0310202
vt 0.365044 0.169937
v 0.153014 0.360184 0.0211763
vt 0.370868 0.0237233
vn 0.6805848 -0.7320048 0.03120019
v 0 0.472641 -0.173999
vt 0.379888 0.123668
vn -0.0007049031 -0.02808981 -0.9996052
v 0.0911012 0.359597 -0.0872644
vn 0.4816957 -0.7040556 -0.5217997
v -0.138818 0.472782 -0.138969
vt 0.378269 0.168548
vn -0.7124751 -0.0209652 -0.7013841
vt 0.364674 0.0310687
v 0.200524 0.473417 0.0215552
vt 0.37085 0.162621
vn 0.9986758 -0.03840279 0.03423389
v 0.138818 0.472782 -0.138969
vt 0.378269 0.123842
vn 0.7021579 -0.06222839 -0.7092969
vt 0.365246 0.0243142
vt 0.365044 0.163231
v 0.083886 0.257552 0.175048
vt 0.244012 0.87741
vn 0.3568818 0 0.9341496
v 0 0.173666 0.175048
vt 0.119123 0.752521
vn 0 -0.3568822 0.9341494
v 0.083886 0.257552 0.143
vn 1 0 0
v -0.083886 0.257552 0.175048
vt -0.00576677 0.87741
vn -0.3568818 0 0.9341496
v 0 0.341438 0.143
vt 0.119123 1.0023
v 0 0.341438 0.175048
vn 0 0.3568818 0.9341496
v 0 0.173666 0.143001
v -0.083886 0.257552 0.143
vn -1 0 0
v 0.0765477 0.714121 -0.0797093
vt 0.177835 0.477546
vn 0.106084 0.876123 0.470271
v 0.0371984 0.699929 -0.0986427
vt 0.149737 0.467412
vn -0.6449559 0.7338079 -0.2134429
v -0.0884731 0.581262 0.0650297
vt 0.0473138 0.304321
vn -0.5565522 0.8034654 0.2114071
vt 0.0728747 0.283941
vt 0.12322 0.275456
vt 0.13462 0.29812
v 0.114076 0.699789 -0.0986573
vt 0.204632 0.467312
vn 0.5838971 0.7091351 0.395211
v 0.100842 0.581262 0.0650297
vt 0.147422 0.313276
vn 0.5174319 0.73518 0.4379209
v 0.181111 0.313258 0.208771
vt 0.0478561 0.705019
vn -0.09031826 0.7956095 0.5990394
v 0.23384 0.221615 0.178336
vt 0.263297 0.70408
vn -0.0108194 -0.9971667 -0.07444178
v 0.264856 0.267813 0.194704
vn 0.8305717 0.2865889 0.4775118
v 0.150096 0.26706 0.192403
vn -0.875243 -0.482624 0.0319965
v 0.23384 0.343304 -0.00720631
vt 0.154466 0.49216
vn 0.06563959 0.350782 -0.9341539
v -0.179668 0.313258 0.208771
vn 0.09031789 0.7956099 0.599039
v -0.232397 0.221616 0.178336
vn 0.0108192 -0.9971667 -0.07444178
v -0.148652 0.26706 0.192403
vn 0.875243 -0.482624 0.0319968
v -0.263413 0.267813 0.194704
vn -0.8305719 0.286588 0.4775119
v -0.232397 0.343304 -0.00720631
vn -0.06563983 0.3507831 -0.9341534
v 0.153861 -3.72529E-09 -0.0559388
vt 0.335128 0.562903
vn 0.5506872 -0.6682532 -0.5001812
v 0.0419836 -3.72529E-09 0.0559388
vt 0.195281 0.562903
vn -0.4841821 -0.6948962 0.5316831
v 0.0419836 -3.72529E-09 -0.0559388
v 0.153861 -3.72529E-09 0.0559388
vn 0.5506872 -0.6682532 0.5001812
v 0.0811004 0.135278 0
vt 0.244177 0.732
vn -0.04839971 0.9988281 0
v -0.0419836 -3.72529E-09 0.0559388
vn 0.4841821 -0.6948962 0.5316831
v -0.153861 -3.72529E-09 -0.0559388
vn -0.5506872 -0.6682532 -0.5001812
v -0.0419836 -3.72529E-09 -0.0559388
v -0.153861 -3.72529E-09 0.0559388
vn -0.550687 -0.6682529 0.5001819
v -0.0811004 0.135278 0
vn 0.0483999 0.9988281 0
vt 0.208799 0.230787
vt 0.185662 0.230811
v -0.0847382 0.556689 -0.0970619
vt 0.194676 0.244796
vn -0.497132 0.7124411 -0.495265
v 0 0.581736 -0.100009
vt 0.208799 0.24897
vn -0.3333381 0.3586141 -0.8719413
v 0.0971076 0.556783 -0.0970622
vt 0.224985 0.244812
vn 0.6345546 0.4124378 -0.6536326
vt 0.231937 0.230811
vt 0.175377 0.230917
vt 0.242222 0.230917
v 0.0994963 0.582722 -0.0144983
vt 0.225383 0.249135
vn 0.9536293 0.2915961 -0.07458442
v -0.075609 0.582723 -0.0144983
vt 0.196197 0.249135
vn -0.7002547 0.6670747 -0.2542729
vt 0.194053 0.248892
vt 0.181811 0.231
vt 0.225607 0.248892
vt 0.197058 0.245354
vt 0.235676 0.231
vt 0.222619 0.245354
v 0.181129 0.331012 0.0249732
vt 0.245927 0.730502
vn -0.4304398 0.4351868 -0.7907807
v 0.227606 0.313978 0.0519048
vt 0.231146 0.700938
vn -0.218478 -0.9498462 -0.22374
v 0.221032 0.325756 0.0564033
vt 0.241 0.700938
vn -0.4085628 0.6611487 0.6292527
v 0.229226 0.333333 0.0189501
vt 0.250855 0.700938
vn -0.121435 -0.05537458 -0.9910536
vt 0.260709 0.700938
v -0.181129 0.331012 0.0249732
vn 0.4304398 0.4351908 -0.7907785
v -0.221032 0.325756 0.0564033
vn 0.4085628 0.6611487 0.6292527
v -0.227606 0.313978 0.0519048
vn 0.218478 -0.9498462 -0.22374
v -0.229226 0.333333 0.0189501
vn 0.121436 -0.05537068 -0.9910537
v 0.0841671 0.684273 -0.119414
vt 0.325977 0.419641
vn -0.2501981 0.1413271 -0.9578244
vt 0.323914 0.233804
vt 0.323769 0.439421
vt 0.323601 0.20182
vt 0.32377 0.445215
vt 0.314823 0.23507
vt 0.306368 0.233197
vt 0.266096 0.465775
vt 0.271436 0.444859
vt 0.238523 0.431173
vt 0.292394 0.455732
vt 0.219367 0.215351
vt 0.215551 0.22485
vt 0.219503 0.223638
o merged_0_0_node
g polygon_0
usemtl mat_body_mat_id
f 1/1/1 2/2/2 3/3/3
f 1/1/1 4/4/4 2/2/2
f 1/1/1 3/3/3 5/5/5
f 1/1/1 6/6/6 4/4/4
f 1/1/1 5/5/5 7/7/7
f 1/1/1 8/8/8 6/6/6
f 1/1/1 7/7/7 9/9/9
f 1/1/1 9/9/9 8/8/8
f 2/2/2 10/10/10 3/3/3
f 2/2/2 4/4/4 11/11/11
f 2/2/2 12/12/12 10/10/10
f 2/2/2 11/11/11 12/12/12
f 5/5/5 13/13/13 7/7/7
f 5/5/5 3/3/3 14/14/14
f 5/5/5 14/14/14 13/13/13
f 6/6/6 8/8/8 15/15/15
f 6/6/6 16/16/16 4/4/4
f 6/6/6 15/15/15 17/17/17
f 6/6/6 17/17/17 16/16/16
f 10/10/10 18/18/18 3/3/3
f 10/10/10 19/19/19 18/18/18
f 3/3/3 18/18/18 14/14/14
f 11/11/11 4/4/4 20/20/20
f 4/4/4 16/16/16 20/20/20
f 7/7/7 13/13/13 21/21/21
f 15/15/15 22/22/22 17/17/17
f 22/22/22 16/16/16 17/17/17
f 22/22/22 20/20/20 16/16/16
f 19/19/19 23/23/23 18/18/18
f 23/23/23 14/14/14 18/18/18
f 23/23/23 21/21/21 13/13/13
f 23/23/23 13/13/13 14/14/14
f 24/24/24 20/25/20 25/26/25
f 24/24/24 11/27/11 20/25/20
f 24/24/24 25/26/25 26/28/26
f 24/24/24 12/29/12 11/27/11
f 24/24/24 26/28/26 27/30/27
f 24/24/24 28/31/28 12/29/12
f 24/24/24 27/30/27 29/32/29
f 24/24/24 29/32/29 28/31/28
f 20/25/20 22/33/22 25/26/25
f 25/26/25 22/33/22 26/28/26
f 12/29/12 28/31/28 30/34/30
f 12/29/12 30/34/30 10/35/10
f 27/30/27 9/36/9 29/32/29
f 27/30/27 26/28/26 15/37/15
f 27/30/27 8/38/8 9/36/9
f 27/30/27 15/37/15 8/38/8
f 15/37/15 26/28/26 22/33/22
f 28/31/28 31/39/31 30/34/30
f 28/31/28 29/32/29 31/39/31
f 29/32/29 9/36/9 31/39/31
f 10/35/10 30/34/30 32/40/32
f 10/35/10 32/40/32 19/41/19
f 30/34/30 31/39/31 32/40/32
f 9/36/9 7/42/7 31/39/31
f 19/41/19 32/40/32 23/43/23
f 7/42/7 33/44/33 31/39/31
f 7/42/7 21/45/21 33/44/33
f 33/44/33 23/43/23 32/40/32
f 33/44/33 32/40/32 31/39/31
f 33/44/33 21/45/21 23/43/23
f 34/46/34 35/47/35 36/48/36
f 34/46/34 37/49/37 35/47/35
f 34/46/34 36/48/36 38/50/38
f 34/46/34 39/51/39 37/49/37
f 34/46/34 38/50/38 40/52/40
f 34/46/34 41/53/41 39/51/39
f 34/46/34 40/52/40 42/54/42
f 34/46/34 42/54/42 41/53/41
f 43/55/43 44/56/44 45/57/45
f 43/55/43 46/58/46 44/56/44
f 43/55/43 45/57/45 47/59/45
f 43/55/43 48/60/47 46/58/46
f 43/55/43 47/59/45 35/61/35
f 43/55/43 37/62/37 48/60/47
f 43/55/43 35/61/35 37/62/37
f 44/56/44 49/63/48 45/57/45
f 44/56/44 46/58/46 50/64/49
f 44/56/44 51/58/50 49/63/48
f 44/56/44 50/64/49 51/58/50
f 45/57/45 49/63/48 47/59/45
f 48/60/47 52/65/51 46/58/46
f 46/58/46 52/65/51 50/64/49
f 35/61/35 47/59/45 36/66/36
f 51/58/50 53/67/52 49/63/48
f 51/58/50 50/64/49 54/68/53
f 51/58/50 54/68/53 53/67/52
f 47/59/45 38/69/38 36/66/36
f 47/59/45 49/63/48 38/69/38
f 53/67/52 40/70/40 49/63/48
f 49/63/48 40/70/40 38/69/38
f 55/71/54 56/72/55 57/71/56
f 55/71/54 58/73/57 56/72/55
f 55/71/54 57/71/56 59/74/23
f 55/71/54 60/74/58 58/73/57
f 55/71/54 59/74/23 60/74/58
f 56/72/55 61/72/45 57/71/56
f 56/72/55 58/73/57 61/72/45
f 59/74/23 62/73/59 60/74/58
f 62/73/59 58/73/57 60/74/58
f 62/73/59 61/72/45 58/73/57
f 63/75/60 64/76/61 65/77/62
f 63/75/60 65/77/62 39/78/39
f 63/75/60 39/78/39 41/79/41
f 63/75/60 41/79/41 42/80/42
f 63/75/60 42/80/42 66/81/63
f 42/80/42 67/82/64 66/81/63
f 68/83/65 69/84/66 70/84/67
f 68/83/65 71/83/68 69/84/66
f 68/83/65 70/84/67 72/85/69
f 68/83/65 72/85/69 71/83/68
f 72/85/69 69/84/66 71/83/68
f 72/85/69 70/84/67 69/84/66
f 73/83/70 74/84/71 75/83/72
f 73/83/70 76/84/73 74/84/71
f 73/83/70 75/83/72 77/85/74
f 73/83/70 77/85/74 76/84/73
f 77/85/74 75/83/72 74/84/71
f 77/85/74 74/84/71 76/84/73
f 78/86/75 79/87/76 80/87/46
f 78/86/75 81/86/77 79/87/76
f 78/86/75 80/87/46 82/88/78
f 78/86/75 82/88/78 81/86/77
f 82/88/78 80/87/46 79/87/76
f 82/88/78 79/87/76 81/86/77
f 83/87/79 84/86/80 85/87/50
f 83/87/79 86/86/81 84/86/80
f 83/87/79 85/87/50 87/88/82
f 83/87/79 87/88/82 86/86/81
f 87/88/82 84/86/80 86/86/81
f 87/88/82 85/87/50 84/86/80
f 50/89/49 52/90/51 88/91/83
f 50/89/49 88/91/83 89/92/84
f 50/89/49 89/92/84 90/93/85
f 50/89/49 90/93/85 54/94/53
f 52/90/51 48/95/47 88/91/83
f 90/93/85 53/96/52 54/94/53
f 90/93/85 91/97/86 53/96/52
f 48/95/47 92/98/87 88/91/83
f 48/95/47 65/99/62 92/98/87
f 48/95/47 37/100/37 65/99/62
f 91/97/86 67/101/64 53/96/52
f 37/100/37 39/102/39 65/99/62
f 67/101/64 40/103/40 53/96/52
f 67/101/64 42/104/42 40/103/40
f 93/105/88 94/106/89 95/107/90
f 93/105/88 95/107/90 96/108/91
f 93/105/88 96/108/91 94/109/89
f 97/105/92 98/107/93 99/106/94
f 97/105/92 100/108/95 98/107/93
f 97/105/92 99/109/94 100/108/95
f 101/110/96 89/111/84 64/112/61
f 101/110/96 90/113/85 89/111/84
f 101/110/96 66/114/63 90/113/85
f 64/112/61 89/111/84 92/115/87
f 64/112/61 92/115/87 65/116/62
f 66/114/63 91/115/86 90/113/85
f 66/114/63 67/116/64 91/115/86
f 63/117/60 101/118/96 64/119/61
f 63/117/60 66/120/63 101/118/96
f 88/121/83 92/122/87 89/123/84
