mtllib Sceptile_Normal.mtl
v 0 0.5054151 -0.105222
vt 0.0403453 0.567878
vn -0.000123333 -0.461235 -0.887278
v 0 0.425064 -0.00581466
vn 0 -0.9613186 -0.2754389
v -0.181833 0.495698 -0.0463875
vn -0.6324401 -0.6797631 -0.3714051
v 0.181833 0.495698 -0.0463875
vn 0.631617 -0.6808649 -0.370787
v -0.222693 0.613175 -0.0857974
vn -0.747951 -0.388111 -0.53846
v 0.223494 0.613175 -0.0857974
vn 0.7409123 -0.4022391 -0.5378222
v -0.23161 0.708197 -0.122884
vn -0.54648 -0.313546 -0.776562
v 0.230491 0.708197 -0.122884
vn 0.5301112 -0.3164911 -0.7866483
v -0.248236 0.8808551 -0.179207
vn -0.07628249 0.6032579 -0.7938898
v 0.248236 0.8804771 -0.179337
vn 0.07808632 0.6035382 -0.7935013
v 0 0.682145 -0.125998
vn -0.000302747 -0.0702272 -0.997531
v 0.127603 0.844825 0.0362563
vt 0.0482202 0.557377
vn -0.2616709 0.9625667 0.07066528
v 0.199894 0.836813 0.0454477
vn 0.4631948 0.8105877 0.3583269
v 0.227329 0.845646 -0.0585483
vn 0.5796884 0.7695554 0.2678542
v 0.139971 0.7829061 0.183709
vn 0.501869 0.686263 0.5264699
v 0.0823905 0.800876 0.182591
vn -0.1169949 0.9334475 0.3390988
v 0.083128 0.8040531 -0.116744
vn -0.3847189 0.8087288 -0.4449149
v 0.062346 0.809725 0.0409491
vn -0.1912329 0.9814007 0.0168101
v 0.0421566 0.673045 0.384259
vn 0.4603831 0.5166561 0.7218822
v 0 0.8276681 -0.0596174
vn 0.00112213 0.9987333 -0.05030322
v 0 0.6947811 0.367249
vn -0.0004498269 0.8196699 0.5728359
v 0.041564 0.775736 0.195357
vn -0.040852 0.959659 0.278183
v 0 0.820207 0.0712836
vn 0.00116567 0.989644 0.143539
v -0.062346 0.809867 0.0409982
vn 0.1899441 0.9816273 0.01814311
v -0.083128 0.804242 -0.116679
vn 0.384329 0.809229 -0.444342
v 0 0.792492 0.202185
vn 0.00116785 0.9423421 0.334649
v -0.041564 0.77583 0.19539
vn 0.04048742 0.9596205 0.2783691
v -0.0823905 0.8009241 0.182607
vn 0.112972 0.9341441 0.338544
v -0.0421566 0.673022 0.384164
vn -0.4603282 0.5181522 0.7208442
v -0.127603 0.844498 0.0359225
vn 0.2604271 0.9628202 0.07179862
v -0.139971 0.7829061 0.183709
vn -0.5025569 0.6870818 0.5247429
v -0.227329 0.846406 -0.0582853
vn -0.5995421 0.7554421 0.264304
v -0.199894 0.836017 0.044731
vn -0.4582559 0.8130999 0.3589849
v -0.171413 0.111789 0
vt 0.557468 0.92454
vn -0.9405124 -0.3301611 -0.08018863
v -0.0577697 0.18055 -0.141449
vt 0.557137 0.923549
vn -0.537386 0.494775 -0.6829451
v -0.058003 0.111789 -0.138027
vt 0.557139 0.92454
vn -0.551425 -0.6918781 -0.466085
v -0.181199 0.208891 0
vt 0.557511 0.923549
vn -0.9147389 0.112406 -0.3880949
v -0.058857 1.490116E-08 0
vt 0.557145 0.925682
vn -0.154691 -0.9875333 -0.02913231
v -0.0952675 0.208891 0.140421
vn -0.2337491 -0.07688443 0.9692523
v -0.0956541 0.111789 0.139827
vn -0.415666 -0.388439 0.822397
v -0.0465499 0.419312 -0.0248418
vt 0.556926 0.9214
vn -0.4229711 0.4770281 -0.7704152
v 0.0572088 0.18055 -0.141449
vt 0.55631 0.923549
vn 0.5367117 0.4944357 -0.6837206
v 0 0.0780756 0
vt 0.556724 0.924885
vn 0.02488869 -0.9947327 0.09943567
v 0.0574422 0.111789 -0.138027
vt 0.556308 0.92454
vn 0.5332241 -0.6984332 -0.4773501
v -0.26153 0.337382 0.165591
vt 0.55786 0.922236
vn -0.8569869 0.220135 0.465955
v -0.04655 0.419312 0.108948
vn 0.001061011 0.3308711 0.9436754
v 0.0465503 0.419312 -0.0248417
vt 0.556521 0.9214
vn 0.4229751 0.4764912 -0.7707452
v -0.0931 0.419312 0.0428056
vt 0.557128 0.9214
vn -0.6621723 0.5534343 -0.5052112
v 0 0.445096 0.0427006
vt 0.556724 0.921136
vn 0 1 0.000273336
v 0.0970693 1.490116E-08 0
vt 0.556302 0.925682
vn 0.205565 -0.9783219 -0.0250843
v 0.171414 0.111789 0
vt 0.555979 0.92454
vn 0.9649525 -0.2473301 -0.08771865
v 0.0931004 0.419312 0.0428056
vt 0.556319 0.9214
vn 0.6618488 0.5530329 -0.5060739
v 0.1812 0.208891 0
vt 0.555936 0.923549
vn 0.914274 0.112128 -0.389269
v 0.0956544 0.111789 0.139827
vn 0.385932 -0.380766 0.840282
v 0.0465503 0.419312 0.108948
v 0.0952678 0.208891 0.140421
vn 0.2337491 -0.07688423 0.9692524
v 0.26153 0.337382 0.165591
vt 0.555587 0.922236
vn 0.8569867 0.2201339 0.4659558
v -0.0830349 0.453368 0.134643
vt 0.116845 0.196317
vn -0.5268211 -0.8111451 0.253975
vt 0.0275909 -0.110251
v 0 0.423881 0.1416
vt 0.057725 0.203569
vn 0 -0.963351 0.268244
vt 0.163929 -0.164485
v 0 0.5059791 0.282897
vt 0.257828 0.431105
vn 0.003336119 -0.7539827 0.6568857
v -0.153558 0.533926 0.115636
vt 0.278365 0.176504
vn -0.8226873 -0.4622012 0.3309921
v -0.101882 0.5803851 0.269762
vt 0.423148 0.417456
vn -0.7645642 -0.4152861 0.4929291
v 0.0830349 0.453368 0.134643
vn 0.5271688 -0.8106487 0.2548369
v -0.208833 0.644518 0.0895429
vt 0.500102 0.149305
vn -0.9248978 -0.204852 0.3203119
vt 0.411996 -0.207119
v 0.153559 0.533926 0.115636
vn 0.8223116 -0.4617478 0.3325548
v 0.208834 0.644518 0.0895429
vn 0.9193586 -0.2162389 0.3286648
v 0 0.604352 0.371943
vt 0.454805 0.486569
vn 0.004456221 -0.8321791 0.5544891
v 0.101882 0.580796 0.26859
vt 0.423735 0.415697
vn 0.7650818 -0.4144879 0.4927979
v 0.101528 0.418784 -0.045549
vt 0.340658 0.597147
vn 0.7937901 0.32793 0.5122101
v 0.0662971 0.384457 -0.027885
vt 0.336259 0.597147
vn 0.01542619 -0.4304748 0.9024707
v 0.103458 0.393334 -0.0911574
vt 0.340658 0.592748
vn 0.8364329 -0.234351 -0.4954389
v 0.02774 0.414549 -0.0463081
vt 0.336259 0.601545
vn -0.8364329 0.234351 0.4954389
v 0.0649006 0.423426 -0.109581
vt 0.345057 0.592748
vn -0.01542619 0.4304748 -0.9024707
v 0.0629705 0.448876 -0.0639722
vt 0.340658 0.601545
vn -0.05806927 0.9927565 0.1051779
vt 0.345057 0.597147
v 0.0682272 0.359007 -0.0734933
vt 0.336259 0.592748
vn 0.05806907 -0.9927565 -0.1051779
vt 0.331861 0.597147
v 0.0296701 0.389099 -0.0919165
vt 0.336259 0.605944
vn -0.7937901 -0.32793 -0.5122101
vt 0.340658 0.605944
vt 0.331861 0.592748
vt 0.336259 0.610343
vt 0.340658 0.610343
v 0.106796 0.346007 -0.0861443
v 0.0715659 0.31168 -0.0684802
v 0.108726 0.320557 -0.131753
v 0.0330088 0.341772 -0.0869034
v 0.0701694 0.350649 -0.150176
v 0.0682393 0.376099 -0.104567
v 0.073496 0.28623 -0.114089
v 0.0349389 0.316322 -0.132512
v 0.0993669 0.274078 -0.125163
v 0.0641364 0.239751 -0.107499
v 0.101297 0.248628 -0.170771
v 0.0255793 0.269843 -0.125922
v 0.0627399 0.27872 -0.189195
v 0.0608098 0.30417 -0.143586
v 0.0660665 0.214301 -0.153107
v 0.0275095 0.244392 -0.171531
v -0.0248527 0.274078 -0.125163
v -0.0600832 0.239751 -0.107499
v -0.0229226 0.248628 -0.170771
v -0.0986402 0.269843 -0.125922
v -0.0614796 0.27872 -0.189195
v -0.0634097 0.30417 -0.143586
v -0.058153 0.214301 -0.153107
v -0.0967101 0.244392 -0.171531
v -0.0295033 0.346007 -0.0861443
v -0.0647338 0.31168 -0.0684802
v -0.0275732 0.320557 -0.131753
v -0.103291 0.341772 -0.0869034
v -0.0661303 0.350649 -0.150176
v -0.0680604 0.376099 -0.104567
v -0.0628037 0.28623 -0.114089
v -0.101361 0.316322 -0.132512
v -0.0306462 0.418784 -0.045549
v -0.0658767 0.384457 -0.027885
v -0.0287161 0.393334 -0.0911574
v -0.104434 0.414549 -0.0463081
v -0.0672731 0.423426 -0.109581
v -0.0692033 0.448876 -0.0639722
v -0.0639466 0.359007 -0.0734933
v -0.102504 0.389099 -0.0919165
v -0.000193117 0.167475 -0.488893
vt 0.419572 0.589335
vn 9.34228E-05 -0.000264116 -1
vt 0.405111 0.577623
vt 0.405252 0.592084
v 0 0.601665 0.403375
vt 0.0650298 0.566046
vn 0.001695021 -0.2813031 0.9596175
v -0.0710892 0.624716 0.37366
vn -0.7621824 -0.2324561 0.6041873
v 0.0710892 0.624922 0.373074
vn 0.7632087 -0.2367559 0.6012148
v 0.249148 0.7358121 -0.0158898
vt 0.0482202 0.562375
vn 0.9938872 -0.06699611 0.08774772
v 0.225093 0.754562 0.063579
vn 0.9003947 0.154304 0.4067919
v -0.238227 0.7358121 -0.0158898
vn -0.9946327 -0.06427188 0.08108578
v -0.225417 0.754562 0.063579
vn -0.9166571 0.135751 0.3759141
vt 1.49391 0.0918559
vt 0.508087 0.356427
vt 0.506091 0.0918559
vt 1.49191 0.356427
vt 1 0
vt 0.756675 0.929747
vt 1.24332 0.929747
vt 0.999999 1
v 0 0.166872 -0.350705
vt 0.410458 0.633803
vn -0.7071068 0.7071068 0
v 0 0.166872 -0.432795
vt 0.410485 0.64574
v -0.0554225 0.109617 -0.39175
vt 0.403858 0.639771
v 0.0554226 0.224127 -0.39175
vt 0.417085 0.639771
v 0.134595 0.301466 -0.367859
vt 0.430219 0.636297
v -0.134595 0.0322773 -0.415641
vt 0.390725 0.643246
v -0.134595 0.0322773 -0.367859
vt 0.390725 0.636297
vt 0.410485 0.633803
v 0.134595 0.301466 -0.415641
vt 0.430219 0.643246
vt 0.410458 0.64574
v 0 0.166872 -0.268508
vt 0.410458 0.62185
v 0.134595 0.301466 -0.285662
vt 0.430219 0.624345
v 0.0554226 0.224127 -0.309553
vt 0.417085 0.627819
v 0 0.166872 -0.350598
vt 0.410485 0.633787
v -0.0554225 0.109617 -0.309553
vt 0.403858 0.627819
v 0.134595 0.301466 -0.333444
vt 0.430219 0.631293
vt 0.410458 0.633787
v -0.134595 0.0322773 -0.333444
vt 0.390725 0.631293
v -0.134595 0.0322773 -0.285662
vt 0.390725 0.624345
vt 0.410485 0.62185
v 0 0.166872 -0.186159
vt 0.410458 0.609875
v 0.134595 0.301466 -0.203313
vt 0.430219 0.61237
v 0.0554226 0.224127 -0.227204
vt 0.417085 0.615844
v 0 0.166872 -0.268249
vt 0.410485 0.621812
v -0.0554226 0.109617 -0.227204
vt 0.403858 0.615844
v 0.134595 0.301466 -0.251095
vt 0.430219 0.619318
vt 0.410458 0.621812
v -0.134595 0.0322773 -0.251095
vt 0.390725 0.619318
v -0.134595 0.0322773 -0.203313
vt 0.390725 0.61237
vt 0.410485 0.609875
vn -0.7071068 -0.7071068 0
v 0.057255 0.111449 -0.39175
v -0.057255 0.222294 -0.39175
v -0.134595 0.301467 -0.367859
v 0.134595 0.0322773 -0.415641
v 0.134595 0.0322773 -0.367859
v -0.134595 0.301467 -0.415641
v -0.134595 0.301467 -0.285662
v -0.057255 0.222294 -0.309553
v 0.057255 0.111449 -0.309553
v -0.134595 0.301467 -0.333444
v 0.134595 0.0322773 -0.333444
v 0.134595 0.0322773 -0.285662
v -0.134595 0.301467 -0.203313
v -0.057255 0.222294 -0.227204
v 0.057255 0.111449 -0.227204
v -0.134595 0.301467 -0.251095
v 0.134595 0.0322773 -0.251095
v 0.134595 0.0322773 -0.203313
vn 0.7071068 -0.7071068 0
vn 0.7071068 0.7071068 0
vt -0.0157833 0.854808
vt 0.268273 0.854808
vt 0.126245 0.85819
vt 0.126245 0.592599
v 0 0.321265 -0.123157
vt 0.5625 0.94805
vn 1 0 0
v 0 0.409149 -0.0272791
v 0 0.201331 -0.128348
vn -1 0 0
v 0.284229 0.450715 0.0859765
vt 0.168138 0.681962
vn -0.12817 0.4977659 0.8577888
v 0.205075 0.354585 0.129932
vt 0.1532 0.662511
v 0.231472 0.342753 0.140742
vt 0.158182 0.657728
v 0.263589 0.295024 0.01953
vt 0.164243 0.711366
vn 0.229485 0.9341432 -0.2733371
v 0.201046 0.341575 0.126112
vt 0.15244 0.664202
v 0.228835 0.338592 0.139248
vt 0.157684 0.658389
v -0.284229 0.450715 0.0859765
vt 0.0608608 0.681962
vn 0.12817 0.4977659 0.8577888
v -0.231472 0.342753 0.140742
vt 0.0708169 0.657728
v -0.205075 0.354585 0.129932
vt 0.0757984 0.662511
v -0.263589 0.295024 0.01953
vt 0.0647561 0.711366
vn -0.229485 0.9341429 -0.273338
v -0.228835 0.338592 0.139248
vt 0.0713146 0.658389
v -0.201046 0.341575 0.126112
vt 0.0765588 0.664202
vn 0.12817 -0.4977659 -0.8577888
vn -0.229485 -0.9341432 0.2733371
vn -0.12817 -0.4977659 -0.8577888
vn 0.229485 -0.9341432 0.2733371
o merged_0_0_node
g polygon_0
usemtl skin_mat_id
f 1/1/1 2/1/2 3/1/3
f 1/1/1 4/1/4 2/1/2
f 1/1/1 3/1/3 5/1/5
f 1/1/1 6/1/6 4/1/4
f 1/1/1 5/1/5 7/1/7
f 1/1/1 8/1/8 6/1/6
f 1/1/1 7/1/7 9/1/9
f 1/1/1 10/1/10 8/1/8
f 1/1/1 9/1/9 11/1/11
f 1/1/1 11/1/11 10/1/10
f 12/2/12 13/2/13 14/2/14
f 12/2/12 15/2/15 13/2/13
f 12/2/12 14/2/14 10/2/10
f 12/2/12 16/2/16 15/2/15
f 12/2/12 10/2/10 17/2/17
f 12/2/12 18/2/18 16/2/16
f 12/2/12 17/2/17 18/2/18
f 15/2/15 16/2/16 19/2/19
f 17/2/17 20/2/20 18/2/18
f 16/2/16 21/2/21 19/2/19
f 16/2/16 18/2/18 22/2/22
f 16/2/16 22/2/22 21/2/21
f 20/2/20 23/2/23 18/2/18
f 20/2/20 24/2/24 23/2/23
f 20/2/20 25/2/25 24/2/24
f 18/2/18 23/2/23 22/2/22
f 21/2/21 22/2/22 26/2/26
f 21/2/21 26/2/26 27/2/27
f 21/2/21 27/2/27 28/2/28
f 21/2/21 28/2/28 29/2/29
f 27/2/27 24/2/24 28/2/28
f 27/2/27 23/2/23 24/2/24
f 27/2/27 26/2/26 23/2/23
f 23/2/23 26/2/26 22/2/22
f 25/2/25 30/2/30 24/2/24
f 25/2/25 9/2/9 30/2/30
f 24/2/24 30/2/30 28/2/28
f 29/2/29 28/2/28 31/2/31
f 28/2/28 30/2/30 31/2/31
f 9/2/9 32/2/32 30/2/30
f 31/2/31 30/2/30 33/2/33
f 33/2/33 30/2/30 32/2/32
f 34/3/34 35/4/35 36/5/36
f 34/3/34 37/6/37 35/4/35
f 34/3/34 36/5/36 38/7/38
f 34/3/34 39/4/39 37/6/37
f 34/3/34 38/7/38 40/5/40
f 34/3/34 40/5/40 39/4/39
f 35/4/35 37/6/37 41/8/41
f 35/4/35 41/8/41 42/9/42
f 36/5/36 43/10/43 38/7/38
f 36/5/36 44/11/44 43/10/43
f 38/7/38 43/10/43 40/5/40
f 39/4/39 45/12/45 37/6/37
f 39/4/39 46/8/46 45/12/45
f 41/8/41 47/13/47 42/9/42
f 41/8/41 37/6/37 48/14/48
f 41/8/41 49/15/49 47/13/47
f 41/8/41 48/14/48 49/15/49
f 48/14/48 46/8/46 49/15/49
f 48/14/48 45/12/45 46/8/46
f 48/14/48 37/6/37 45/12/45
f 44/11/44 50/16/50 43/10/43
f 44/11/44 42/9/42 51/17/51
f 44/11/44 51/17/51 50/16/50
f 47/13/47 49/15/49 52/18/52
f 47/13/47 53/19/53 42/9/42
f 47/13/47 52/18/52 53/19/53
f 42/9/42 53/19/53 51/17/51
f 43/10/43 50/16/50 54/11/54
f 50/16/50 51/17/51 54/11/54
f 49/15/49 55/13/46 52/18/52
f 53/19/53 56/9/55 51/17/51
f 53/19/53 52/18/52 57/20/56
f 53/19/53 57/20/56 56/9/55
f 56/9/55 54/11/54 51/17/51
f 56/9/55 57/20/56 55/13/46
f 55/13/46 57/20/56 52/18/52
f 58/21/57 2/22/2 59/23/58
f 58/21/57 3/24/3 2/22/2
f 58/21/57 59/23/58 60/25/59
f 58/21/57 61/26/60 3/24/3
f 58/21/57 60/25/59 62/27/61
f 58/21/57 62/27/61 61/26/60
f 2/22/2 63/21/62 59/23/58
f 2/22/2 4/24/4 63/21/62
f 59/23/58 63/21/62 60/25/59
f 3/24/3 61/26/60 64/28/63
f 3/24/3 64/28/63 5/29/5
f 64/28/63 61/26/60 62/27/61
f 4/24/4 65/26/64 63/21/62
f 4/24/4 66/28/65 65/26/64
f 4/24/4 6/29/6 66/28/65
f 60/25/59 67/30/66 62/27/61
f 60/25/59 63/21/62 68/31/67
f 60/25/59 68/31/67 67/30/66
f 68/31/67 63/21/62 65/26/64
f 68/31/67 65/26/64 66/28/65
f 69/32/68 70/33/69 71/34/70
f 69/32/68 72/35/71 70/33/69
f 69/32/68 71/34/70 73/36/72
f 69/32/68 74/37/73 72/35/71
f 69/32/68 73/36/72 74/38/73
f 70/33/69 75/39/74 71/34/70
f 70/33/69 72/40/71 75/39/74
f 74/37/73 76/41/75 72/35/71
f 74/37/73 73/42/72 76/41/75
f 72/40/71 76/43/75 75/39/74
f 73/42/72 75/44/74 76/41/75
f 73/42/72 71/45/70 75/44/74
f 77/32/68 78/33/69 79/34/70
f 77/32/68 80/35/71 78/33/69
f 77/32/68 79/34/70 81/36/72
f 77/32/68 82/37/73 80/35/71
f 77/32/68 81/36/72 82/38/73
f 78/33/69 83/39/74 79/34/70
f 78/33/69 80/40/71 83/39/74
f 82/37/73 84/41/75 80/35/71
f 82/37/73 81/42/72 84/41/75
f 80/40/71 84/43/75 83/39/74
f 81/42/72 83/44/74 84/41/75
f 81/42/72 79/45/70 83/44/74
f 85/32/68 86/33/69 87/34/70
f 85/32/68 88/35/71 86/33/69
f 85/32/68 87/34/70 89/36/72
f 85/32/68 90/37/73 88/35/71
f 85/32/68 89/36/72 90/38/73
f 86/33/69 91/39/74 87/34/70
f 86/33/69 88/40/71 91/39/74
f 90/37/73 92/41/75 88/35/71
f 90/37/73 89/42/72 92/41/75
f 88/40/71 92/43/75 91/39/74
f 89/42/72 91/44/74 92/41/75
f 89/42/72 87/45/70 91/44/74
f 93/32/68 94/33/69 95/34/70
f 93/32/68 96/35/71 94/33/69
f 93/32/68 95/34/70 97/36/72
f 93/32/68 98/37/73 96/35/71
f 93/32/68 97/36/72 98/38/73
f 94/33/69 99/39/74 95/34/70
f 94/33/69 96/40/71 99/39/74
f 98/37/73 100/41/75 96/35/71
f 98/37/73 97/42/72 100/41/75
f 96/40/71 100/43/75 99/39/74
f 97/42/72 99/44/74 100/41/75
f 97/42/72 95/45/70 99/44/74
f 101/32/68 102/33/69 103/34/70
f 101/32/68 104/35/71 102/33/69
f 101/32/68 103/34/70 105/36/72
f 101/32/68 106/37/73 104/35/71
f 101/32/68 105/36/72 106/38/73
f 102/33/69 107/39/74 103/34/70
f 102/33/69 104/40/71 107/39/74
f 106/37/73 108/41/75 104/35/71
f 106/37/73 105/42/72 108/41/75
f 104/40/71 108/43/75 107/39/74
f 105/42/72 107/44/74 108/41/75
f 105/42/72 103/45/70 107/44/74
f 109/32/68 110/33/69 111/34/70
f 109/32/68 112/35/71 110/33/69
f 109/32/68 111/34/70 113/36/72
f 109/32/68 114/37/73 112/35/71
f 109/32/68 113/36/72 114/38/73
f 110/33/69 115/39/74 111/34/70
f 110/33/69 112/40/71 115/39/74
f 114/37/73 116/41/75 112/35/71
f 114/37/73 113/42/72 116/41/75
f 112/40/71 116/43/75 115/39/74
f 113/42/72 115/44/74 116/41/75
f 113/42/72 111/45/70 115/44/74
f 117/46/76 36/47/36 35/48/35
f 117/46/76 44/47/44 36/47/36
f 117/46/76 35/48/35 42/48/42
f 117/46/76 42/48/42 44/47/44
f 118/49/77 119/49/78 67/49/66
f 118/49/77 29/49/29 119/49/78
f 118/49/77 67/49/66 120/49/79
f 118/49/77 120/49/79 19/49/19
f 119/49/78 62/49/61 67/49/66
f 120/49/79 67/49/66 68/49/67
f 121/50/80 6/50/6 8/50/8
f 121/50/80 8/50/8 10/50/10
f 121/50/80 10/50/10 14/50/14
f 121/50/80 14/50/14 122/50/81
f 10/50/10 11/50/11 17/50/17
f 14/50/14 13/50/13 122/50/81
f 11/50/11 25/50/25 17/50/17
f 11/50/11 9/50/9 25/50/25
f 17/50/17 25/50/25 20/50/20
f 9/50/9 7/50/7 123/50/82
f 9/50/9 123/50/82 32/50/32
f 7/50/7 5/50/5 123/50/82
f 32/50/32 123/50/82 124/50/83
f 32/50/32 124/50/83 33/50/33
f 54/51/54 39/52/39 40/53/40
f 54/51/54 56/54/55 39/52/39
f 54/51/54 40/53/40 43/55/43
f 56/54/55 46/56/46 39/52/39
f 56/54/55 55/57/46 46/56/46
f 55/57/46 49/58/49 46/56/46
f 125/59/84 126/60/84 127/61/84
f 125/59/84 128/62/84 126/60/84
f 125/59/84 129/63/84 128/62/84
f 127/61/84 126/60/84 130/64/84
f 127/61/84 131/65/84 125/66/84
f 128/62/84 132/67/84 126/68/84
f 133/69/84 134/70/84 135/71/84
f 133/69/84 135/71/84 136/72/84
f 133/69/84 136/72/84 137/73/84
f 135/71/84 138/74/84 136/75/84
f 136/72/84 139/76/84 137/73/84
f 137/73/84 140/77/84 133/78/84
f 141/79/84 142/80/84 143/81/84
f 141/79/84 143/81/84 144/82/84
f 141/79/84 144/82/84 145/83/84
f 143/81/84 146/84/84 144/85/84
f 144/82/84 147/86/84 145/83/84
f 145/83/84 148/87/84 141/88/84
f 125/59/85 126/60/85 149/61/85
f 125/59/85 150/62/85 126/60/85
f 125/59/85 151/63/85 150/62/85
f 149/61/85 126/60/85 152/64/85
f 149/61/85 153/65/85 125/66/85
f 150/62/85 154/67/85 126/68/85
f 133/69/85 155/70/85 156/71/85
f 133/69/85 156/71/85 136/72/85
f 133/69/85 136/72/85 157/73/85
f 156/71/85 158/74/85 136/75/85
f 136/72/85 159/76/85 157/73/85
f 157/73/85 160/77/85 133/78/85
f 141/79/85 161/80/85 162/81/85
f 141/79/85 162/81/85 144/82/85
f 141/79/85 144/82/85 163/83/85
f 162/81/85 164/84/85 144/85/85
f 144/82/85 165/86/85 163/83/85
f 163/83/85 166/87/85 141/88/85
f 126/60/86 125/59/86 127/61/86
f 126/60/86 128/62/86 125/59/86
f 126/60/86 127/61/86 130/64/86
f 128/62/86 129/63/86 125/59/86
f 128/62/86 126/68/86 132/67/86
f 127/61/86 125/66/86 131/65/86
f 133/69/86 135/71/86 134/70/86
f 133/69/86 136/72/86 135/71/86
f 133/69/86 137/73/86 136/72/86
f 135/71/86 136/75/86 138/74/86
f 137/73/86 139/76/86 136/72/86
f 137/73/86 133/78/86 140/77/86
f 141/79/86 143/81/86 142/80/86
f 141/79/86 144/82/86 143/81/86
f 141/79/86 145/83/86 144/82/86
f 143/81/86 144/85/86 146/84/86
f 145/83/86 147/86/86 144/82/86
f 145/83/86 141/88/86 148/87/86
f 126/60/87 125/59/87 149/61/87
f 126/60/87 150/62/87 125/59/87
f 126/60/87 149/61/87 152/64/87
f 150/62/87 151/63/87 125/59/87
f 150/62/87 126/68/87 154/67/87
f 149/61/87 125/66/87 153/65/87
f 133/69/87 156/71/87 155/70/87
f 133/69/87 136/72/87 156/71/87
f 133/69/87 157/73/87 136/72/87
f 156/71/87 136/75/87 158/74/87
f 157/73/87 159/76/87 136/72/87
f 157/73/87 133/78/87 160/77/87
f 141/79/87 162/81/87 161/80/87
f 141/79/87 144/82/87 162/81/87
f 141/79/87 163/83/87 144/82/87
f 162/81/87 144/85/87 164/84/87
f 163/83/87 165/86/87 144/82/87
f 163/83/87 141/88/87 166/87/87
f 29/89/29 19/90/19 21/91/21
f 29/89/29 118/92/77 19/90/19
f 167/93/88 168/93/88 169/93/88
f 167/93/89 169/93/89 168/93/89
f 170/94/90 171/95/90 172/96/90
f 173/97/91 174/98/91 175/99/91
f 176/100/92 177/101/92 178/102/92
f 179/103/93 180/104/93 181/105/93
f 170/94/94 172/96/94 171/95/94
f 173/97/95 175/99/95 174/98/95
f 176/100/96 178/102/96 177/101/96
f 179/103/97 181/105/97 180/104/97
v -0.13756 0.70245 0.220727
vt 0.0617068 0.908372
vn -0.8660142 0.06439891 0.4958551
vt 0.715166 0.802503
vt -0.394481 0.792395
vt 0.715166 0.810392
v 0.13756 0.70245 0.220727
vt 0.0617067 0.900484
vn 0.8661197 0.06273778 0.4958838
vt -0.387272 0.792506
vt 1.44364 0.878019
vt 1.02368 0.920019
vt 0.388854 1.00328
vt -0.902738 1.00328
vt 1.25323 1.00328
vt 1.25037 1.00328
vt -0.692054 0.788233
vt 1.65654 0.72837
vt -0.885824 1.00328
vt -0.695659 0.788178
o merged_1_0_node
g polygon_0
usemtl TEX_ANIM_EYE_mat_id
f 182/106/98 64/107/63 62/108/61
f 66/109/65 183/110/99 68/111/67
f 123/112/82 64/107/63 124/113/83
f 124/113/83 182/106/98 31/114/31
f 183/110/99 15/114/15 19/115/19
f 183/110/99 122/113/81 15/114/15
f 124/113/83 31/114/31 33/116/33
f 15/114/15 122/113/81 13/117/13
f 68/111/67 183/110/99 120/118/79
f 123/112/82 5/119/5 64/107/63
f 66/109/65 121/112/80 122/113/81
f 182/106/98 29/120/29 31/114/31
f 66/109/65 6/119/6 121/112/80
f 64/107/63 182/106/98 124/113/83
f 66/109/65 122/113/81 183/110/99
f 182/106/98 119/121/78 29/120/29
f 120/118/79 183/110/99 19/115/19
f 62/108/61 119/121/78 182/106/98
