mtllib Uxie.mtl
v -0.109482 0.104487 0
vt 0.967926 0.96815
vn -0.965098 0.0378657 -0.259137
v -0.0373885 0.217072 -0.0627769
vn -0.4472629 0.4170039 -0.7912418
v -0.0547412 0.103284 -0.0948066
vn -0.4904659 0.2434739 -0.8367578
v -0.0747771 0.21785 -0.00143753
vn -0.7549408 0.5384059 -0.3744109
v -0.114675 0.0443709 0.0007627261
vn -0.975423 -0.220333 -0.00182699
v -0.167564 0.162611 0.111889
vn -0.8352203 0.07235823 0.5451342
v -0.0573374 0.0454784 0.08808951
vn -0.4296072 -0.3959501 0.8115793
v -0.0547412 0.105689 0.0948072
vn -0.203823 -0.0282511 0.9786
v 0.0373886 0.217072 -0.0627769
vn 0.4472629 0.4170039 -0.7912418
v 0 0.229826 -0.00158942
vn 0 0.9999196 -0.01268189
v -0.0573382 0.000679227 0.00131687
vn -0.132391 -0.991176 0.00654108
v -0.0573374 0.0430106 -0.106489
vn -0.439687 -0.343832 -0.8297319
v -0.0373886 0.218628 0.0599018
vn -0.03014481 0.5861573 0.8096364
v 0.0547412 0.103284 -0.0948066
vn 0.4904659 0.2434739 -0.8367578
v 0.0747771 0.21785 -0.00143752
vn 0.7549408 0.5384059 -0.3744109
v 0.109482 0.104487 0
vn 0.965098 0.0378656 -0.259137
v 0 0.0270234 0.000982744
vn 0 -0.9999129 0.0131999
v 0.0573374 0.0454784 0.08808951
vn 0.4296069 -0.3959498 0.8115798
v 0.0373886 0.218628 0.0599018
vn 0.03014481 0.5861573 0.8096364
v 0.0547412 0.105689 0.0948072
vn 0.203823 -0.0282511 0.9786
v 0.114675 0.0443709 0.0007627261
vn 0.975423 -0.220333 -0.0018267
v 0.167564 0.162611 0.111889
vn 0.8352199 0.07235799 0.545135
v 0.0573374 0.0430106 -0.106489
vn 0.439687 -0.343832 -0.8297319
v 0.0573382 0.000679227 0.00131687
vn 0.132391 -0.991176 0.0065411
v 0 0.51365 -0.145121
vt 0.749756 0.129338
vn 0 0.7303907 -0.6830297
v -0.0832314 0.579334 -0.0497102
vt 0.930306 0.206148
vn -0.287641 0.9302552 -0.2277891
v 0 0.570695 -0.0287763
vt 0.749756 0.218956
vn 0 0.990327 -0.138753
v -0.105822 0.536745 -0.126238
vt 0.979311 0.14898
vn -0.4427311 0.7096822 -0.5480332
v 0.0832314 0.579334 -0.0497102
vt 0.569207 0.206148
vn 0.287641 0.930255 -0.22779
v -0.0813118 0.425398 -0.219859
vt 0.926142 0.0476982
vn -0.297023 0.199036 -0.9338961
v 0.105822 0.536745 -0.126238
vt 0.520201 0.14898
vn 0.4427311 0.7096822 -0.5480332
v 0.0813118 0.425398 -0.219859
vt 0.573371 0.0476985
vn 0.2967521 0.198745 -0.9340442
v -0.0857806 0.577175 0.0673536
vt 0.935836 0.281059
vn -0.237842 0.9501141 0.201778
v 0.0857806 0.577175 0.0673536
vt 0.563677 0.281059
vn 0.237842 0.9501141 0.201778
v 0 0.54589 0.127367
vt 0.749756 0.324081
vn 0 0.9142223 0.4052131
v -0.0705482 0.537378 0.165729
vt 0.902793 0.346719
vn -0.241578 0.7007131 0.6712981
v 0 0.459517 0.209903
vt 0.749756 0.40193
vn 0 0.2799699 0.9600087
v -0.08505 0.420055 0.201366
vt 0.934251 0.423046
vn -0.3698679 0.07459867 0.9260846
v 0.0705482 0.537378 0.165729
vt 0.59672 0.346719
vn 0.241578 0.7007131 0.6712981
v 0 0.341016 0.209648
vt 0.749756 0.481933
vn 0 -0.2128049 0.9770947
v 0.08505 0.420055 0.201366
vt 0.565262 0.423046
vn 0.3698679 0.07459867 0.9260846
v 0.161085 0.519609 0.0464871
vt 0.749884 0.206143
vn 0.662098 0.744907 0.0820967
vt 0.512671 0.296479
vt 0.52228 0.182945
vt 0.562778 0.369939
vt 0.55803 0.0834122
v 0.149351 0.473491 -0.109956
vt 0.749884 0.353825
vn 0.7113339 0.5591679 -0.4258349
v 0.124621 0.481387 0.157775
vt 0.749884 0.092263
vn 0.6603232 0.3930841 0.6398892
v 0.228299 0.467439 0.0382612
vt 0.955187 0.216703
vn 0.9262402 0.3527261 0.132904
vt 0.750578 0.479386
vt 0.783101 0.0327604
v 0.208231 0.41005 -0.112039
vt 0.966159 0.356912
vn 0.8658612 0.05430691 -0.4973281
v 0.16199 0.405023 0.1363
vt 0.9546 0.111357
vn 0.7932331 -0.03130041 0.6081131
v -0.161085 0.519609 0.0464871
vn -0.662098 0.744907 0.0820967
v -0.228299 0.467439 0.0382612
vn -0.9262402 0.3527261 0.132904
v -0.124621 0.481387 0.157775
vn -0.6603232 0.3930841 0.6398892
v -0.149351 0.473491 -0.109956
vn -0.7113339 0.5591679 -0.4258349
v -0.16199 0.405023 0.1363
vn -0.7932331 -0.03130051 0.6081131
v -0.208231 0.41005 -0.112039
vn -0.8658612 0.05430691 -0.4973281
v 0 0.410191 0.244011
vt 0.332546 0.626105
vn 0 0.04612509 0.9989357
vt 0.461535 0.626105
vn 0 0.5687479 0.8225119
v -0.0309924 0.424885 0.206455
vt 0.376026 0.703408
vn -0.6924149 0.259856 0.6730799
v 0.0309924 0.424885 0.206455
vt 0.376026 0.548803
vn 0.6924154 0.2598561 0.6730793
v -0.0357404 0.37467 0.206121
vt 0.251184 0.71525
vn -0.57309 -0.254348 0.7790219
v 0.0357404 0.37467 0.206121
vt 0.251183 0.536961
vn 0.57309 -0.254348 0.7790219
vt 0.166823 0.626106
vn 0 -0.4448949 0.8955828
v 0.187113 0.326878 0.0186362
vt 0.946136 0.946014
vn 0.9565022 -0.2724711 -0.104226
v 0.157164 0.293765 0.118858
vn 0.8480993 -0.3089341 0.4304501
v 0.129051 0.248073 0.0865834
vn 0.637913 -0.7544051 0.154725
v 0.126997 0.238921 0.00696522
vn 0.500666 -0.826052 -0.258789
v 0.184051 0.371832 4.52995E-05
vn 0.9822621 -0.0105165 -0.187218
v 0.115642 0.30406 -0.101419
vn 0.4488738 -0.6964257 -0.5599138
v 0.0515348 0.220353 0.116663
vn 0.20812 -0.952183 0.223682
v 0 0.234547 -0.0666979
vn 0 -0.8909896 -0.4540238
v 0 0.320816 -0.154612
vn 0 -0.7137552 -0.7003952
v 0 0.215873 0.0644912
vn 0 -0.9950834 -0.09904055
v 0 0.220353 0.119734
vn 0 -0.9399163 0.3414051
v -0.115642 0.30406 -0.101419
vn -0.4488738 -0.6964257 -0.5599138
v -0.0515348 0.220353 0.116663
vn -0.20812 -0.952183 0.223682
v -0.126997 0.238921 0.00696522
vn -0.500666 -0.826052 -0.258789
v -0.187113 0.326878 0.0186362
vn -0.9565022 -0.2724711 -0.104226
v -0.184051 0.371832 4.53115E-05
vn -0.9822621 -0.0105166 -0.187218
v -0.129051 0.248073 0.0865834
vn -0.637913 -0.7544051 0.154725
v -0.157164 0.293765 0.118858
vn -0.8480993 -0.3089341 0.4304501
v -0.153073 0.240387 -0.10266
vt 0.932559 0.435506
vn -0.3807092 -0.8815094 0.2792881
v 0 0.382339 -0.0913175
vn 0.556947 -0.546833 0.625127
v 0 0.223915 -0.143224
vn 0 -0.88512 0.465363
v -0.228299 0.32821 0.0184425
vn -0.8848501 -0.445803 0.135277
v -0.080913 0.295298 -0.205599
vn -0.3612728 -0.3654808 -0.8578495
v 0.080913 0.295298 -0.205599
vn 0.3609821 -0.3652851 -0.8580552
v 0.153073 0.240387 -0.10266
vn 0.3807092 -0.8815094 0.2792881
vt 0.951438 0.469171
v 0.228299 0.32821 0.0184425
vn 0.88485 -0.445803 0.135278
v 0.0742523 -0.116161 -0.301221
vt 0.546854 0.77789
vn 0.0609827 -0.9493731 0.308175
v 0.012655 -0.131377 -0.335908
vt 0.619461 0.983782
v 0.0540663 -0.133585 -0.350902
vt 0.68719 0.865827
v 0.0951164 -0.15285 -0.418376
vt 0.914355 0.777002
v 0.110688 -0.127312 -0.342783
vt 0.692736 0.689261
v 0.144829 -0.116735 -0.316954
vt 0.632407 0.571616
v -0.0742523 -0.116161 -0.301221
vn 0.06098221 0.9493731 -0.308175
v -0.012655 -0.131377 -0.335908
v -0.0540663 -0.133585 -0.350902
v -0.0951164 -0.15285 -0.418376
v -0.110688 -0.127312 -0.342783
v -0.144829 -0.116735 -0.316954
vn -0.06098261 0.9493731 -0.308175
vn -0.06098221 -0.9493731 0.308175
v 0 0.254435 0.173558
vt 0.00367609 0.913843
vn 0 -0.5410162 0.8410122
vt 0.179537 0.759972
vt 0.0255427 0.760156
v -0.093297 0.254423 0.144722
vt 0.269758 0.895871
vn -0.3982261 -0.601994 0.6921121
v 0.093297 0.254423 0.144722
vn 0.3982261 -0.601994 0.6921121
vt 0.420715 0.785053
vt 0.480774 0.953245
v 0.0345722 -0.0503775 -0.190896
vt 0.968442 0.965202
vn -0.0170209 -0.7303051 0.6829091
v 0.0552619 0.0379691 -0.112861
vn -0.03521189 -0.6569598 0.7531028
v 0.00666817 0.0325857 -0.119829
v 0.066663 -0.0468224 -0.186295
v 0.0612043 -0.107785 -0.272836
vn 0.008062241 -0.8177381 0.575534
v 0.0767922 -0.106058 -0.270601
v -0.0345722 -0.0503775 -0.190896
vn -0.0170216 0.7303051 -0.6829091
v -0.0552619 0.0379691 -0.112861
vn -0.03521229 0.6569598 -0.7531028
v -0.00666817 0.0325857 -0.119829
v -0.066663 -0.0468224 -0.186295
v -0.0612043 -0.107785 -0.272836
vn 0.008061961 0.8177381 -0.575534
v -0.0767922 -0.106058 -0.270601
vn 0.0170208 0.7303051 -0.6829091
vn 0.03521199 0.6569598 -0.7531028
vn -0.008060831 0.8177381 -0.575534
vn 0.0170217 -0.7303051 0.6829091
vn 0.03521249 -0.6569598 0.7531028
vn -0.008061781 -0.8177381 0.575534
vt 0.96535 0.471193
vn -0.5569463 -0.5468333 0.6251274
v 0.0717793 -0.111812 -0.287335
v 0.0452233 -0.11916 -0.304716
v 0.103049 -0.112754 -0.296424
v 0.0418543 -0.114963 -0.291121
v 0.101529 -0.108353 -0.282564
v 0.0690456 -0.107005 -0.271985
v -0.0717793 -0.111812 -0.287335
v -0.0452233 -0.11916 -0.304716
v -0.103049 -0.112754 -0.296424
v -0.0418543 -0.114963 -0.291121
v -0.101529 -0.108353 -0.282564
v -0.0690457 -0.107005 -0.271985
o merged_0_0_node
g polygon_0
usemtl mat_body1_mat_id
f 1/1/1 2/1/2 3/1/3
f 1/1/1 4/1/4 2/1/2
f 1/1/1 3/1/3 5/1/5
f 1/1/1 6/1/6 4/1/4
f 1/1/1 5/1/5 7/1/7
f 1/1/1 8/1/8 6/1/6
f 1/1/1 7/1/7 8/1/8
f 2/1/2 9/1/9 3/1/3
f 2/1/2 4/1/4 10/1/10
f 2/1/2 10/1/10 9/1/9
f 5/1/5 11/1/11 7/1/7
f 5/1/5 3/1/3 12/1/12
f 5/1/5 12/1/12 11/1/11
f 6/1/6 8/1/8 13/1/13
f 6/1/6 13/1/13 4/1/4
f 4/1/4 13/1/13 10/1/10
f 9/1/9 14/1/14 3/1/3
f 9/1/9 10/1/10 15/1/15
f 9/1/9 16/1/16 14/1/14
f 9/1/9 15/1/15 16/1/16
f 3/1/3 14/1/14 12/1/12
f 7/1/7 11/1/11 17/1/17
f 7/1/7 18/1/18 8/1/8
f 7/1/7 17/1/17 18/1/18
f 11/1/11 12/1/12 17/1/17
f 13/1/13 19/1/19 10/1/10
f 13/1/13 8/1/8 20/1/20
f 13/1/13 20/1/20 19/1/19
f 8/1/8 18/1/18 20/1/20
f 10/1/10 19/1/19 15/1/15
f 16/1/16 21/1/21 14/1/14
f 16/1/16 18/1/18 21/1/21
f 16/1/16 20/1/20 18/1/18
f 16/1/16 15/1/15 22/1/22
f 16/1/16 22/1/22 20/1/20
f 22/1/22 15/1/15 19/1/19
f 22/1/22 19/1/19 20/1/20
f 12/1/12 23/1/23 17/1/17
f 12/1/12 14/1/14 23/1/23
f 14/1/14 21/1/21 23/1/23
f 18/1/18 17/1/17 24/1/24
f 18/1/18 24/1/24 21/1/21
f 24/1/24 23/1/23 21/1/21
f 24/1/24 17/1/17 23/1/23
f 25/2/25 26/3/26 27/4/27
f 25/2/25 28/5/28 26/3/26
f 25/2/25 27/4/27 29/6/29
f 25/2/25 30/7/30 28/5/28
f 25/2/25 29/6/29 31/8/31
f 25/2/25 32/9/32 30/7/30
f 25/2/25 31/8/31 32/9/32
f 26/3/26 33/10/33 27/4/27
f 29/6/29 27/4/27 34/11/34
f 33/10/33 35/12/35 27/4/27
f 33/10/33 36/13/36 35/12/35
f 27/4/27 35/12/35 34/11/34
f 36/13/36 37/14/37 35/12/35
f 36/13/36 38/15/38 37/14/37
f 34/11/34 35/12/35 39/16/39
f 35/12/35 37/14/37 39/16/39
f 38/15/38 40/17/40 37/14/37
f 39/16/39 37/14/37 41/18/41
f 41/18/41 37/14/37 40/17/40
f 42/19/42 29/20/29 34/21/34
f 42/19/42 31/22/31 29/20/29
f 42/19/42 34/21/34 39/23/39
f 42/19/42 43/24/43 31/22/31
f 42/19/42 39/23/39 44/25/44
f 42/19/42 45/26/45 43/24/43
f 42/19/42 44/25/44 45/26/45
f 31/22/31 43/24/43 32/27/32
f 39/23/39 41/28/41 44/25/44
f 45/26/45 46/29/46 43/24/43
f 45/26/45 44/25/44 47/30/47
f 47/30/47 44/25/44 41/28/41
f 43/24/43 46/29/46 32/27/32
f 48/19/48 49/26/49 50/25/50
f 48/19/48 51/24/51 49/26/49
f 48/19/48 50/25/50 36/23/36
f 48/19/48 28/22/28 51/24/51
f 48/19/48 36/23/36 33/21/33
f 48/19/48 26/20/26 28/22/28
f 48/19/48 33/21/33 26/20/26
f 49/26/49 52/30/52 50/25/50
f 49/26/49 51/24/51 53/29/53
f 36/23/36 50/25/50 38/28/38
f 38/28/38 50/25/50 52/30/52
f 28/22/28 30/27/30 51/24/51
f 51/24/51 30/27/30 53/29/53
f 54/31/54 37/32/55 55/33/56
f 54/31/54 56/34/57 37/32/55
f 54/31/54 55/33/56 57/35/58
f 54/31/54 58/36/59 56/34/57
f 54/31/54 57/35/58 40/37/60
f 54/31/54 40/37/60 58/36/59
f 59/38/61 60/38/62 61/38/63
f 59/38/61 47/38/47 60/38/62
f 59/38/61 61/38/63 62/38/64
f 59/38/61 63/38/65 47/38/47
f 59/38/61 62/38/64 64/38/66
f 59/38/61 64/38/66 63/38/65
f 61/38/63 65/38/67 62/38/64
f 64/38/66 62/38/64 66/38/68
f 64/38/66 66/38/68 67/38/69
f 65/38/67 68/38/70 62/38/64
f 65/38/67 69/38/71 68/38/70
f 62/38/64 68/38/70 66/38/68
f 67/38/69 66/38/68 70/38/72
f 69/38/71 71/38/73 68/38/70
f 66/38/68 72/38/74 70/38/72
f 66/38/68 68/38/70 72/38/74
f 68/38/70 71/38/73 72/38/74
f 70/38/72 72/38/74 73/38/75
f 70/38/72 73/38/75 74/38/76
f 71/38/73 75/38/77 72/38/74
f 72/38/74 75/38/77 73/38/75
f 74/38/76 73/38/75 52/38/52
f 75/38/77 76/38/78 73/38/75
f 73/38/75 76/38/78 52/38/52
f 77/39/79 78/39/60 74/39/80
f 77/39/79 79/39/81 78/39/60
f 77/39/79 74/39/80 80/39/82
f 77/39/79 81/39/83 79/39/81
f 77/39/79 80/39/82 53/39/53
f 77/39/79 53/39/53 81/39/83
f 74/39/80 52/39/52 80/39/82
f 79/39/81 81/39/83 82/39/84
f 79/39/81 82/39/84 83/39/85
f 53/39/53 80/39/82 49/39/49
f 53/39/53 30/39/30 81/39/83
f 81/39/83 30/39/30 82/39/84
f 49/39/49 80/39/82 52/39/52
f 83/39/85 82/39/84 46/40/46
f 30/39/30 32/39/32 82/39/84
f 46/40/46 82/39/84 32/40/32
f 46/40/46 84/40/86 83/40/85
f 46/40/46 45/40/45 84/40/86
f 45/40/45 47/40/47 84/40/86
f 85/41/87 86/42/87 87/43/87
f 85/41/87 87/43/87 88/44/87
f 85/41/87 88/44/87 89/45/87
f 85/41/87 89/45/87 90/46/87
f 91/41/88 92/42/88 93/43/88
f 91/41/88 93/43/88 94/44/88
f 91/41/88 94/44/88 95/45/88
f 91/41/88 95/45/88 96/46/88
f 85/41/89 87/43/89 86/42/89
f 85/41/89 88/44/89 87/43/89
f 85/41/89 89/45/89 88/44/89
f 85/41/89 90/46/89 89/45/89
f 91/41/90 93/43/90 92/42/90
f 91/41/90 94/44/90 93/43/90
f 91/41/90 95/45/90 94/44/90
f 91/41/90 96/46/90 95/45/90
f 97/47/91 71/48/73 69/49/71
f 97/47/91 98/50/92 71/48/73
f 97/47/91 69/49/71 65/48/67
f 97/47/91 65/48/67 99/50/93
f 98/50/92 75/51/77 71/48/73
f 98/50/92 76/52/78 75/51/77
f 65/48/67 61/51/63 99/50/93
f 61/51/63 60/52/62 99/50/93
f 100/53/94 101/53/95 102/53/95
f 100/53/94 103/53/94 101/53/95
f 100/53/94 104/53/96 103/53/94
f 104/53/96 105/53/96 103/53/94
f 106/53/97 107/53/98 108/53/98
f 106/53/97 109/53/97 107/53/98
f 106/53/97 110/53/99 109/53/97
f 110/53/99 111/53/99 109/53/97
f 100/53/100 102/53/101 101/53/101
f 100/53/100 101/53/101 103/53/100
f 100/53/100 103/53/100 104/53/102
f 103/53/100 105/53/102 104/53/102
f 106/53/103 108/53/104 107/53/104
f 106/53/103 107/53/104 109/53/103
f 106/53/103 109/53/103 110/53/105
f 109/53/103 111/53/105 110/53/105
f 83/54/85 78/54/60 79/54/81
f 83/54/85 63/54/106 78/54/60
f 83/54/85 84/54/86 63/54/106
f 84/54/86 47/54/47 63/54/106
f 112/53/87 113/53/87 114/53/87
f 115/53/87 116/53/87 117/53/87
f 118/53/88 119/53/88 120/53/88
f 121/53/88 122/53/88 123/53/88
f 112/53/89 114/53/89 113/53/89
f 115/53/89 117/53/89 116/53/89
f 118/53/90 120/53/90 119/53/90
f 121/53/90 123/53/90 122/53/90
vt 1.04299 0.946296
v 0.0963485 0.332112 0.186146
vt 0.535306 0.87582
vn 0.4476739 -0.2455039 0.8598348
vt 0.961547 0.789122
vt 0.539516 0.760435
vt 0.0119555 0.902286
vt 0.0073522 0.769422
v -0.0963485 0.332112 0.186146
vn -0.4476739 -0.2455039 0.8598348
vt 0.527371 0.998388
o merged_1_0_node
g polygon_0
usemtl TEX_ANIM_EYE_mat_id
f 47/55/47 124/56/107 60/57/62
f 60/57/62 124/56/107 99/58/93
f 124/56/107 40/59/40 97/60/91
f 97/60/91 40/59/40 125/56/108
f 97/60/91 125/56/108 98/58/92
f 124/56/107 97/60/91 99/58/93
f 52/55/52 76/57/78 125/56/108
f 125/56/108 76/57/78 98/58/92
f 38/61/38 52/55/52 125/56/108
f 47/55/47 41/61/41 124/56/107
f 125/56/108 40/59/40 38/61/38
f 124/56/107 41/61/41 40/59/40
