ply
format ascii 1.0
element vertex 585
property float x
property float y
property float z
property float s
property float t
element face 726
property list uchar int vertex_index
end_header
-0.15824 -0.73224 0.54343 0.375 0.5
-0.15824 -0.73224 0.65748 0.375 0.5
0.15824 -0.73224 0.65748 0.375 0.5
0.15824 -0.73224 0.54343 0.375 0.5
0.15824 -0.58252 0.65748 0.375 0.5
-0.15824 -0.58252 0.65748 0.375 0.5
-0.09843 -0.77382 0.62462 0.375 0.166667
-0.09843 -0.77382 0.80013 0.375 0.166667
0.09843 -0.77382 0.80013 0.375 0.166667
0.09843 -0.77382 0.62462 0.375 0.166667
-0.09843 -0.73639 0.62462 0.375 0.166667
0.09843 -0.73639 0.62462 0.375 0.166667
0.09843 -0.73639 0.80013 0.375 0.166667
-0.09843 -0.73639 0.80013 0.375 0.166667
-0.09596 -0.52364 1.20299 0.875 0.5
-0.09458 -0.52276 1.39152 0.875 0.5
-0.07135 -0.54787 1.39152 0.875 0.5
-0.07135 -0.54911 1.20299 0.875 0.5
-0.09596 -0.40158 1.20299 0.875 0.5
-0.09458 -0.40246 1.39152 0.875 0.5
0.07074 -0.54911 1.20299 0.875 0.5
0.07074 -0.54787 1.39152 0.875 0.5
0.09596 -0.52364 1.20299 0.875 0.5
0.09458 -0.52276 1.39152 0.875 0.5
0.09458 -0.40246 1.39152 0.875 0.5
0.09596 -0.40158 1.20299 0.875 0.5
-0.0804 -0.51374 1.41017 0.875 0.5
-0.0804 -0.41148 1.41017 0.875 0.5
-0.06066 -0.53508 1.41017 0.875 0.5
0.06012 -0.53508 1.41017 0.875 0.5
0.08039 -0.51374 1.41017 0.875 0.5
0.08039 -0.41148 1.41017 0.875 0.5
-0.07135 -0.37736 1.39152 0.875 0.5
-0.06066 -0.39015 1.41017 0.875 0.5
0.07074 -0.37736 1.39152 0.875 0.5
-0.07135 -0.37611 1.20299 0.875 0.5
0.07074 -0.37611 1.20299 0.875 0.5
0.06012 -0.39015 1.41017 0.875 0.5
0.06012 -0.39015 1.41017 0.125 0.166667
0.08039 -0.41148 1.41017 0.125 0.166667
-0.0804 -0.41148 1.41017 0.125 0.166667
-0.06066 -0.39015 1.41017 0.125 0.166667
-0.0804 -0.51374 1.41017 0.125 0.166667
0.08039 -0.51374 1.41017 0.125 0.166667
-0.06066 -0.53508 1.41017 0.125 0.166667
0.06012 -0.53508 1.41017 0.125 0.166667
0.28678 -0.11178 0.89196 0.875 0.5
0.36227 -0.23242 0.89196 0.875 0.5
0.42163 -0.19528 0.83647 0.875 0.5
0.34614 -0.07464 0.83647 0.875 0.5
0.28678 -0.11178 1.42243 0.875 0.5
0.36227 -0.23242 1.42243 0.875 0.5
0.43242 -0.18853 0.95385 0.875 0.5
0.43242 -0.18853 1.36054 0.875 0.5
0.42163 -0.19528 1.47792 0.875 0.5
0.47793 -0.16006 1.40309 0.875 0.5
0.66232 -0.04469 1.40309 0.875 0.5
0.47792 -0.16006 0.91131 0.875 0.5
0.90266 0.10568 1.47792 0.875 0.5
0.84671 0.07068 1.40309 0.875 0.5
0.96375 0.1439 1.42243 0.875 0.5
0.89355 0.09998 1.36054 0.875 0.5
0.96375 0.1439 1.33314 0.875 0.5
0.66232 -0.04469 0.91131 0.875 0.5
0.90266 0.10568 0.83647 0.875 0.5
0.84671 0.07068 0.91131 0.875 0.5
0.89355 0.09998 0.95385 0.875 0.5
0.96375 0.1439 0.89196 0.875 0.5
1.12473 0.24462 1.33314 0.875 0.5
1.12473 0.24462 1.47769 0.875 0.5
0.84671 0.07068 1.40309 0.125 0.5
0.89355 0.09998 1.36054 0.125 0.5
0.89355 0.09998 0.95385 0.125 0.5
0.84671 0.07068 0.91131 0.125 0.5
0.66232 -0.04469 0.91131 0.125 0.5
0.66232 -0.04469 1.40309 0.125 0.5
0.36227 -0.23242 1.42243 0.125 0.166667
0.28678 -0.11178 1.42243 0.125 0.166667
0.34614 -0.07464 1.47792 0.125 0.166667
0.42163 -0.19528 1.47792 0.125 0.166667
0.90266 0.10568 1.47792 0.125 0.166667
0.82717 0.22633 1.47792 0.125 0.166667
0.34614 -0.07464 1.47792 0.875 0.5
0.82717 0.22633 1.47792 0.875 0.5
0.82717 0.22633 0.83647 0.875 0.5
0.88826 0.26455 0.89196 0.875 0.5
0.88826 0.26455 1.33314 0.875 0.5
1.04924 0.36527 1.33314 0.875 0.5
1.04924 0.36527 1.47769 0.875 0.5
0.88826 0.26455 1.42243 0.875 0.5
0.47792 -0.16006 0.91131 0.875 0.833333
0.47793 -0.16006 1.40309 0.875 0.833333
0.66232 -0.04469 1.40309 0.875 0.833333
0.66232 -0.04469 0.91131 0.875 0.833333
0.43242 -0.18853 1.36054 0.875 0.833333
0.43242 -0.18853 0.95385 0.875 0.833333
1.04924 0.36527 1.47769 0.125 0.166667
1.12473 0.24462 1.47769 0.125 0.166667
-0.28678 -0.11178 0.89196 0.875 0.5
-0.34614 -0.07464 0.83647 0.875 0.5
-0.42163 -0.19528 0.83647 0.875 0.5
-0.36227 -0.23242 0.89196 0.875 0.5
-0.28678 -0.11178 1.42243 0.875 0.5
-0.36227 -0.23242 1.42243 0.875 0.5
-0.43242 -0.18853 0.95385 0.875 0.5
-0.43242 -0.18853 1.36054 0.875 0.5
-0.42163 -0.19528 1.47792 0.875 0.5
-0.47793 -0.16006 1.40308 0.875 0.5
-0.66232 -0.04469 1.40309 0.875 0.5
-0.47792 -0.16006 0.91131 0.875 0.5
-0.90266 0.10568 1.47792 0.875 0.5
-0.84671 0.07068 1.40309 0.875 0.5
-0.96375 0.1439 1.42243 0.875 0.5
-0.89355 0.09998 1.36054 0.875 0.5
-0.96375 0.1439 1.33314 0.875 0.5
-0.66232 -0.04469 0.91131 0.875 0.5
-0.90266 0.10568 0.83647 0.875 0.5
-0.84671 0.07068 0.91131 0.875 0.5
-0.89355 0.09998 0.95385 0.875 0.5
-0.96375 0.1439 0.89196 0.875 0.5
-1.12473 0.24462 1.33314 0.875 0.5
-1.12473 0.24462 1.47769 0.875 0.5
-0.36227 -0.23242 1.42243 0.125 0.166667
-0.42163 -0.19528 1.47792 0.125 0.166667
-0.34614 -0.07464 1.47792 0.125 0.166667
-0.28678 -0.11178 1.42243 0.125 0.166667
-0.90266 0.10568 1.47792 0.125 0.166667
-0.82717 0.22633 1.47792 0.125 0.166667
-0.34614 -0.07464 1.47792 0.875 0.5
-0.82717 0.22633 1.47792 0.875 0.5
-0.82717 0.22633 0.83647 0.875 0.5
-0.88826 0.26455 0.89196 0.875 0.5
-0.88826 0.26455 1.33314 0.875 0.5
-1.04924 0.36527 1.33314 0.875 0.5
-1.04924 0.36527 1.47769 0.875 0.5
-0.88826 0.26455 1.42243 0.875 0.5
-0.84671 0.07068 0.91131 0.125 0.5
-0.84671 0.07068 1.40309 0.125 0.5
-0.66232 -0.04469 1.40309 0.125 0.5
-0.66232 -0.04469 0.91131 0.125 0.5
-0.89355 0.09998 1.36054 0.125 0.5
-0.89355 0.09998 0.95385 0.125 0.5
-0.47792 -0.16006 0.91131 0.875 0.833333
-0.47793 -0.16006 1.40308 0.875 0.833333
-0.43242 -0.18853 1.36054 0.875 0.833333
-0.43242 -0.18853 0.95385 0.875 0.833333
-0.66232 -0.04469 1.40309 0.875 0.833333
-0.66232 -0.04469 0.91131 0.875 0.833333
-1.12473 0.24462 1.47769 0.125 0.166667
-1.04924 0.36527 1.47769 0.125 0.166667
0.09143 -0.36022 0.46563 0.875 0.5
0.34861 -0.36022 0.46563 0.875 0.5
0.34861 -0.36022 0.06651 0.875 0.5
0.09143 -0.36022 0.06651 0.875 0.5
0.34861 -0.14806 0.46563 0.875 0.5
0.34861 -0.14806 0 0.875 0.5
0.34861 -0.36022 0 0.875 0.5
0.09143 -0.36022 0 0.875 0.5
0.09143 -0.14806 0 0.875 0.5
0.32311 -0.39984 0.06651 0.875 0.5
0.32311 -0.39984 1.07571E-18 0.875 0.5
0.11105 -0.39984 0.06651 0.875 0.5
0.11105 -0.39984 -2.07073E-18 0.875 0.5
0.09143 -0.14806 0.46563 0.875 0.5
0.11988 -0.11502 0.46563 0.875 0.5
0.11988 -0.11502 -1.15035E-17 0.875 0.5
0.32017 -0.11502 -4.38601E-17 0.875 0.5
0.32017 -0.11502 0.46563 0.875 0.5
0.32311 -0.39984 0.06651 0.125 0.166667
0.11105 -0.39984 0.06651 0.125 0.166667
0.09143 -0.36022 0.06651 0.125 0.166667
0.34861 -0.36022 0.06651 0.125 0.166667
-0.09143 -0.36022 0.46563 0.875 0.5
-0.09143 -0.36022 0.06651 0.875 0.5
-0.34861 -0.36022 0.06651 0.875 0.5
-0.34861 -0.36022 0.46563 0.875 0.5
-0.34861 -0.14806 0.46563 0.875 0.5
-0.34861 -0.14806 0 0.875 0.5
-0.34861 -0.36022 0 0.875 0.5
-0.32311 -0.39984 0.06651 0.875 0.5
-0.32311 -0.39984 1.07571E-18 0.875 0.5
-0.11105 -0.39984 0.06651 0.875 0.5
-0.11105 -0.39984 -2.07073E-18 0.875 0.5
-0.09143 -0.36022 0 0.875 0.5
-0.09143 -0.14806 0 0.875 0.5
-0.09143 -0.14806 0.46563 0.875 0.5
-0.11988 -0.11502 0.46563 0.875 0.5
-0.32017 -0.11502 0.46563 0.875 0.5
-0.32017 -0.11502 -3.55271E-17 0.875 0.5
-0.11988 -0.11502 -3.55271E-17 0.875 0.5
-0.32311 -0.39984 0.06651 0.125 0.166667
-0.34861 -0.36022 0.06651 0.125 0.166667
-0.09143 -0.36022 0.06651 0.125 0.166667
-0.11105 -0.39984 0.06651 0.125 0.166667
0.24646 0.25099 0.61343 0.875 0.5
0.24646 0.30899 0.66279 0.875 0.5
0.54495 0.30899 0.66279 0.875 0.5
0.54495 0.25099 0.61343 0.875 0.5
0.54495 0.25099 0.09149 0.875 0.5
0.24646 0.25099 0.09149 0.875 0.5
0.58233 0.30914 0.59726 0.875 0.5
0.58233 0.30914 0.14769 0.875 0.5
0.58233 0.67291 0.59726 0.875 0.5
0.54495 0.67294 0.66279 0.875 0.5
0.54495 0.73107 0.61343 0.875 0.5
0.54495 0.73107 0.09149 0.875 0.5
0.24646 0.73107 0.61343 0.875 0.5
0.24646 0.73107 0.09149 0.875 0.5
0.49737 0.5982 0.09149 0.875 0.5
0.29809 0.5982 0.09149 0.875 0.5
0.24646 0.55429 0.09149 0.875 0.5
0.58233 0.67291 0.14769 0.875 0.5
0.54495 0.55429 0.09149 0.875 0.5
0.49737 0.5982 0 0.875 0.5
0.54495 0.55429 0 0.875 0.5
0.54495 0.25099 0 0.875 0.5
0.24646 0.55429 0 0.875 0.5
0.24646 0.25099 0 0.875 0.5
0.29809 0.5982 0 0.875 0.5
0.52561 0.20871 0 0.875 0.5
0.52561 0.20871 0.09149 0.875 0.5
0.26579 0.20871 0.09149 0.875 0.5
0.26579 0.20871 0 0.875 0.5
0.24646 0.67294 0.66279 0.875 0.5
0.24646 0.30899 0.66279 0.125 0.166667
0.24646 0.67294 0.66279 0.125 0.166667
0.54495 0.67294 0.66279 0.125 0.166667
0.54495 0.30899 0.66279 0.125 0.166667
-0.24646 0.25099 0.61343 0.875 0.5
-0.54495 0.25099 0.61343 0.875 0.5
-0.54495 0.30899 0.66279 0.875 0.5
-0.24646 0.30899 0.66279 0.875 0.5
-0.54495 0.25099 0.09149 0.875 0.5
-0.24646 0.25099 0.09149 0.875 0.5
-0.58233 0.30914 0.59726 0.875 0.5
-0.58233 0.30914 0.14769 0.875 0.5
-0.58233 0.67291 0.59726 0.875 0.5
-0.54495 0.67294 0.66279 0.875 0.5
-0.54495 0.73107 0.61343 0.875 0.5
-0.54495 0.73107 0.09149 0.875 0.5
-0.24646 0.73107 0.61343 0.875 0.5
-0.24646 0.73107 0.09149 0.875 0.5
-0.24646 0.55429 0.09149 0.875 0.5
-0.29809 0.5982 0.09149 0.875 0.5
-0.29809 0.5982 0 0.875 0.5
-0.24646 0.55429 0 0.875 0.5
-0.24646 0.25099 0 0.875 0.5
-0.49737 0.5982 0 0.875 0.5
-0.54495 0.55429 0 0.875 0.5
-0.58233 0.67291 0.14769 0.875 0.5
-0.54495 0.55429 0.09149 0.875 0.5
-0.54495 0.25099 0 0.875 0.5
-0.49737 0.5982 0.09149 0.875 0.5
-0.26579 0.20871 0 0.875 0.5
-0.52561 0.20871 0 0.875 0.5
-0.26579 0.20871 0.09149 0.875 0.5
-0.52561 0.20871 0.09149 0.875 0.5
-0.24646 0.67294 0.66279 0.875 0.5
-0.24646 0.30899 0.66279 0.125 0.166667
-0.54495 0.30899 0.66279 0.125 0.166667
-0.54495 0.67294 0.66279 0.125 0.166667
-0.24646 0.67294 0.66279 0.125 0.166667
-0.12002 0.24261 1.03008 0.875 0.5
-0.08413 0.27851 1.17926 0.875 0.5
0.08413 0.27851 1.17926 0.875 0.5
0.12002 0.24261 1.03008 0.875 0.5
0.08413 0.44677 1.17926 0.875 0.5
0.12002 0.48266 1.03008 0.875 0.5
-0.12002 0.48266 1.03008 0.875 0.5
-0.08413 0.44677 1.17926 0.875 0.5
0.06436 0.29828 1.1955 0.875 0.5
-0.06436 0.29828 1.1955 0.875 0.5
0.06436 0.427 1.1955 0.875 0.5
-0.06436 0.427 1.1955 0.875 0.5
-0.06436 0.29828 1.1955 0.125 0.166667
-0.06436 0.427 1.1955 0.125 0.166667
0.06436 0.427 1.1955 0.125 0.166667
0.06436 0.29828 1.1955 0.125 0.166667
-0.07228 0.5864 1.02814 0.875 0.5
-0.04889 0.60979 1.11365 0.875 0.5
0.04889 0.60979 1.11365 0.875 0.5
0.07228 0.5864 1.02814 0.875 0.5
0.04889 0.70758 1.11365 0.875 0.5
0.07228 0.73097 1.02814 0.875 0.5
-0.07228 0.73097 1.02814 0.875 0.5
-0.04889 0.70758 1.11365 0.875 0.5
0.0374 0.62128 1.1299 0.875 0.5
-0.0374 0.62128 1.1299 0.875 0.5
0.0374 0.69609 1.1299 0.875 0.5
-0.0374 0.69609 1.1299 0.875 0.5
-0.0374 0.62128 1.1299 0.125 0.166667
-0.0374 0.69609 1.1299 0.125 0.166667
0.0374 0.69609 1.1299 0.125 0.166667
0.0374 0.62128 1.1299 0.125 0.166667
0.30069 -0.6431 0.9574 0.125 0.833333
0.30068 -0.6431 1.07099 0.125 0.833333
0.30068 -0.63421 1.07099 0.125 0.833333
0.30069 -0.63421 0.95738 0.125 0.833333
0.24633 -0.6431 0.95743 0.125 0.833333
0.24633 -0.6431 1.02307 0.125 0.833333
0.19772 -0.6431 0.95743 0.375 0.833333
0.24633 -0.6431 0.95743 0.375 0.833333
0.30069 -0.6431 0.92131 0.375 0.833333
0.10113 -0.6431 0.92131 0.375 0.833333
0.14944 -0.6431 0.95718 0.375 0.833333
0.30069 -0.6431 0.9574 0.375 0.833333
0.24633 -0.6431 0.95743 0.375 0.166667
0.19772 -0.6431 0.95743 0.375 0.166667
0.19776 -0.6431 0.99304 0.375 0.166667
0.24633 -0.6431 1.02307 0.375 0.166667
0.43624 -0.27931 0.87316 0.875 0.5
0.43624 -0.59179 1.15853 0.875 0.5
0.43624 0.0249 1.15853 0.875 0.5
0.38566 -0.01893 1.21358 0.875 0.5
0.38566 -0.54795 1.21358 0.875 0.5
0.37031 -0.65922 1.15853 0.875 0.5
0.37031 -0.65922 1.11082 0.875 0.5
0.37031 -0.65922 0.92465 0.875 0.5
0.43624 -0.59179 0.87318 0.875 0.5
0.32633 -0.60864 1.21358 0.875 0.5
0.36985 -0.73227 0.92465 0.875 0.5
0.43642 -0.73212 0.87318 0.875 0.5
0.36985 -0.77746 0.87331 0.875 0.5
0.43624 -0.59179 0.54978 0.875 0.5
0.43624 -0.38382 0.49893 0.875 0.5
0.37031 -0.77782 0.54978 0.875 0.5
0.43629 -0.73277 0.54978 0.875 0.5
0.37029 -0.77782 0.49905 0.875 0.5
0.43629 -0.73277 0.49888 0.875 0.5
0.32376 -0.73987 0.44448 0.875 0.5
-0.37029 -0.77782 0.49905 0.875 0.5
-0.32376 -0.73987 0.44448 0.875 0.5
0.37175 -0.70579 0.44442 0.875 0.5
0.36969 -0.43567 0.44448 0.875 0.5
0.15014 -0.77782 0.54949 0.875 0.5
-0.15014 -0.77782 0.54949 0.875 0.5
-0.43629 -0.73277 0.49888 0.875 0.5
-0.37175 -0.70579 0.44442 0.875 0.5
-0.43629 -0.73277 0.54978 0.875 0.5
-0.37031 -0.77782 0.54978 0.875 0.5
-0.43642 -0.73212 0.87318 0.875 0.5
-0.36985 -0.77746 0.87331 0.875 0.5
-0.36985 -0.73227 0.92465 0.875 0.5
-0.43624 -0.59179 0.87318 0.875 0.5
-0.37031 -0.65922 0.92465 0.875 0.5
-0.43624 -0.59179 1.15853 0.875 0.5
-0.37031 -0.65922 1.11082 0.875 0.5
-0.37031 -0.65922 1.15853 0.875 0.5
-0.32633 -0.60864 1.21358 0.875 0.5
0.12211 -0.65922 0.92465 0.875 0.5
-0.12211 -0.65922 0.92465 0.875 0.5
-0.38566 -0.54795 1.21358 0.875 0.5
-0.38566 -0.01893 1.21358 0.875 0.5
-0.43624 0.0249 1.15853 0.875 0.5
-0.43624 -0.27931 0.87316 0.875 0.5
-0.43624 -0.59179 0.54978 0.875 0.5
-0.43624 -0.38382 0.49893 0.875 0.5
-0.36969 -0.43567 0.44448 0.875 0.5
-0.43624 0.0249 0.98442 0.875 0.5
-0.37031 0.09234 1.15853 0.875 0.5
-0.32633 0.04176 1.21358 0.875 0.5
0.32633 0.04176 1.21358 0.875 0.5
0.37031 0.09234 1.15853 0.875 0.5
0.43624 0.0249 0.98442 0.875 0.5
0.37031 0.09234 1.03745 0.875 0.5
-0.37031 0.09234 1.03745 0.875 0.5
0.37003 0.7351 1.03745 0.875 0.5
0.43693 0.76228 0.98287 0.875 0.5
0.36969 0.8256 0.98295 0.875 0.5
0.36969 0.8256 0.20357 0.875 0.5
0.43693 0.76228 0.20349 0.875 0.5
0.33141 0.77705 0.14683 0.875 0.5
0.36969 0.7351 0.14683 0.875 0.5
0.33095 0.77686 1.03745 0.875 0.5
-0.36969 0.8256 0.98295 0.875 0.5
-0.36969 0.8256 0.20357 0.875 0.5
-0.33141 0.77705 0.14683 0.875 0.5
-0.43693 0.76228 0.20349 0.875 0.5
-0.36969 0.7351 0.14683 0.875 0.5
-0.43693 0.76228 0.98287 0.875 0.5
-0.33095 0.77686 1.03745 0.875 0.5
-0.37003 0.7351 1.03745 0.875 0.5
0.36969 -0.26059 0.14682 0.875 0.5
-0.36969 -0.26059 0.14682 0.875 0.5
0.36985 -0.73227 0.92465 0.125 0.166667
0.12211 -0.65922 0.92465 0.125 0.166667
0.37031 -0.65922 0.92465 0.125 0.166667
0.05125 -0.73227 0.92465 0.125 0.166667
-0.12211 -0.65922 0.92465 0.125 0.166667
-0.05125 -0.73227 0.92465 0.125 0.166667
-0.36985 -0.73227 0.92465 0.125 0.166667
-0.37031 -0.65922 0.92465 0.125 0.166667
0.37031 -0.63679 0.92465 0.375 0.166667
0.12211 -0.63679 0.92465 0.375 0.166667
0.37035 -0.63679 1.11089 0.375 0.166667
0.37031 -0.63679 0.92465 0.875 0.5
0.37035 -0.63679 1.11089 0.875 0.5
0.12211 -0.63679 0.92465 0.875 0.5
0.05125 -0.77746 0.87331 0.875 0.5
0.05125 -0.73227 0.92465 0.875 0.5
0.15014 -0.77746 0.79389 0.875 0.5
0.05125 -0.73226 0.94453 0.875 0.5
0.05125 -0.77743 0.94457 0.875 0.5
0.04386 -0.77746 0.87331 0.875 0.5
0.02871 -0.77746 0.87331 0.875 0.5
0.04386 -0.77744 0.90676 0.875 0.5
0.02871 -0.77744 0.90676 0.875 0.5
0 -0.77743 0.94457 0.875 0.5
-0.02871 -0.77744 0.90676 0.875 0.5
-0.04386 -0.77744 0.90676 0.875 0.5
-0.05125 -0.77743 0.94457 0.875 0.5
-0.05125 -0.77746 0.87331 0.875 0.5
-0.04386 -0.77746 0.87331 0.875 0.5
0 -0.77746 0.87331 0.875 0.5
-0.02871 -0.77746 0.87331 0.875 0.5
0.04386 -0.76876 0.90675 0.875 0.5
0.04386 -0.76879 0.8733 0.875 0.5
-0.15014 -0.77746 0.79389 0.875 0.5
-0.05125 -0.73227 0.92465 0.875 0.5
0.32633 -0.60864 1.21358 0.125 0.166667
-0.32633 -0.60864 1.21358 0.125 0.166667
-0.38566 -0.54795 1.21358 0.125 0.166667
0.38566 -0.54795 1.21358 0.125 0.166667
0.38566 -0.01893 1.21358 0.125 0.166667
-0.38566 -0.01893 1.21358 0.125 0.166667
0.32633 0.04176 1.21358 0.125 0.166667
-0.32633 0.04176 1.21358 0.125 0.166667
0.15014 -0.59179 0.79389 0.625 0.833333
-0.15014 -0.59179 0.79389 0.625 0.833333
-0.15014 -0.77746 0.79389 0.625 0.833333
0.15014 -0.77746 0.79389 0.625 0.833333
0.15014 -0.59179 0.54949 0.625 0.833333
-0.15014 -0.59179 0.54949 0.625 0.833333
0.15014 -0.77782 0.54949 0.625 0.833333
-0.15014 -0.77782 0.54949 0.625 0.833333
0.30069 -0.63421 0.95738 0.375 0.833333
0.30069 -0.63421 0.92131 0.375 0.833333
0.19772 -0.6431 0.95743 0.125 0.833333
0.14944 -0.6431 0.95718 0.125 0.833333
0.19776 -0.6431 0.99304 0.125 0.833333
0 -0.77743 0.94457 0.125 0.166667
-0.05125 -0.77743 0.94457 0.125 0.166667
-0.05125 -0.73226 0.94453 0.125 0.166667
0.05125 -0.73226 0.94453 0.125 0.166667
0.05125 -0.77743 0.94457 0.125 0.166667
0.43693 -0.20685 0.20523 0.875 0.5
-0.43693 -0.20685 0.20523 0.875 0.5
-0.30069 -0.6431 0.9574 0.125 0.833333
-0.30069 -0.63421 0.95738 0.125 0.833333
-0.30068 -0.63421 1.07099 0.125 0.833333
-0.30068 -0.6431 1.07099 0.125 0.833333
-0.24633 -0.6431 0.95743 0.125 0.833333
-0.24633 -0.6431 1.02307 0.125 0.833333
-0.19772 -0.6431 0.95743 0.375 0.833333
-0.10113 -0.6431 0.92131 0.375 0.833333
-0.30069 -0.6431 0.92131 0.375 0.833333
-0.24633 -0.6431 0.95743 0.375 0.833333
-0.14944 -0.6431 0.95718 0.375 0.833333
-0.30069 -0.6431 0.9574 0.375 0.833333
-0.24633 -0.6431 0.95743 0.375 0.166667
-0.24633 -0.6431 1.02307 0.375 0.166667
-0.19776 -0.6431 0.99304 0.375 0.166667
-0.19772 -0.6431 0.95743 0.375 0.166667
-0.37031 -0.63679 0.92465 0.375 0.166667
-0.37035 -0.63679 1.11089 0.375 0.166667
-0.12211 -0.63679 0.92465 0.375 0.166667
-0.37035 -0.63679 1.11089 0.875 0.5
-0.37031 -0.63679 0.92465 0.875 0.5
-0.12211 -0.63679 0.92465 0.875 0.5
-0.30069 -0.63421 0.92131 0.375 0.833333
-0.30069 -0.63421 0.95738 0.375 0.833333
-0.19772 -0.6431 0.95743 0.125 0.833333
-0.19776 -0.6431 0.99304 0.125 0.833333
-0.14944 -0.6431 0.95718 0.125 0.833333
-0.05125 -0.73226 0.94453 0.875 0.5
0.37003 0.7351 1.03745 0.125 0.166667
0.37031 0.09234 1.03745 0.125 0.166667
-0.37031 0.09234 1.03745 0.125 0.166667
-0.37003 0.7351 1.03745 0.125 0.166667
0.33095 0.77686 1.03745 0.125 0.166667
-0.33095 0.77686 1.03745 0.125 0.166667
0.42599 -0.18668 0.35694 0.125 0.5
0.42599 -0.18668 0.43463 0.125 0.5
0.44252 -0.18668 0.43463 0.125 0.5
0.44252 -0.18668 0.35694 0.125 0.5
0.44252 -0.10141 0.43463 0.125 0.5
0.42599 -0.10141 0.43463 0.125 0.5
0.42599 -0.10141 0.35694 0.125 0.5
0.44252 -0.10141 0.35694 0.125 0.5
0.42599 -0.12288 0.51644 0.125 0.5
0.42599 -0.12288 0.63085 0.125 0.5
0.44252 -0.12288 0.63085 0.125 0.5
0.44252 -0.12288 0.51644 0.125 0.5
0.44252 0.02198 0.63085 0.125 0.5
0.42599 0.02198 0.63085 0.125 0.5
0.42599 0.02198 0.51644 0.125 0.5
0.44252 0.02198 0.51644 0.125 0.5
0.42599 0.07534 0.76032 0.125 0.5
0.42599 0.07534 0.90825 0.125 0.5
0.44252 0.07534 0.90825 0.125 0.5
0.44252 0.07534 0.76032 0.125 0.5
0.44252 0.27021 0.90825 0.125 0.5
0.42599 0.27021 0.90825 0.125 0.5
0.42599 0.27021 0.76032 0.125 0.5
0.44252 0.27021 0.76032 0.125 0.5
0.57356 0.65246 0.38337 0.125 0.5
0.57356 0.50453 0.38337 0.125 0.5
0.59009 0.50453 0.38337 0.125 0.5
0.59009 0.65246 0.38337 0.125 0.5
0.59009 0.50453 0.57824 0.125 0.5
0.57356 0.50453 0.57824 0.125 0.5
0.59009 0.65246 0.57824 0.125 0.5
0.57356 0.65246 0.57824 0.125 0.5
0.57356 0.43537 0.2009 0.125 0.5
0.57356 0.35012 0.2009 0.125 0.5
0.59009 0.35012 0.2009 0.125 0.5
0.59009 0.43537 0.2009 0.125 0.5
0.59009 0.35012 0.28537 0.125 0.5
0.57356 0.35012 0.28537 0.125 0.5
0.59009 0.43537 0.28537 0.125 0.5
0.57356 0.43537 0.28537 0.125 0.5
-0.42599 -0.18668 0.35694 0.125 0.5
-0.44252 -0.18668 0.35694 0.125 0.5
-0.44252 -0.18668 0.43463 0.125 0.5
-0.42599 -0.18668 0.43463 0.125 0.5
-0.44252 -0.10141 0.43463 0.125 0.5
-0.42599 -0.10141 0.43463 0.125 0.5
-0.42599 -0.10141 0.35694 0.125 0.5
-0.44252 -0.10141 0.35694 0.125 0.5
-0.42599 -0.12288 0.51644 0.125 0.5
-0.44252 -0.12288 0.51644 0.125 0.5
-0.44252 -0.12288 0.63085 0.125 0.5
-0.42599 -0.12288 0.63085 0.125 0.5
-0.44252 0.02198 0.63085 0.125 0.5
-0.42599 0.02198 0.63085 0.125 0.5
-0.42599 0.02198 0.51644 0.125 0.5
-0.44252 0.02198 0.51644 0.125 0.5
-0.42599 0.07534 0.76032 0.125 0.5
-0.44252 0.07534 0.76032 0.125 0.5
-0.44252 0.07534 0.90825 0.125 0.5
-0.42599 0.07534 0.90825 0.125 0.5
-0.44252 0.27021 0.90825 0.125 0.5
-0.42599 0.27021 0.90825 0.125 0.5
-0.42599 0.27021 0.76032 0.125 0.5
-0.44252 0.27021 0.76032 0.125 0.5
-0.57356 0.65246 0.38337 0.125 0.5
-0.59009 0.65246 0.38337 0.125 0.5
-0.59009 0.50453 0.38337 0.125 0.5
-0.57356 0.50453 0.38337 0.125 0.5
-0.59009 0.50453 0.57824 0.125 0.5
-0.57356 0.50453 0.57824 0.125 0.5
-0.59009 0.65246 0.57824 0.125 0.5
-0.57356 0.65246 0.57824 0.125 0.5
-0.57356 0.43537 0.2009 0.125 0.5
-0.59009 0.43537 0.2009 0.125 0.5
-0.59009 0.35012 0.2009 0.125 0.5
-0.57356 0.35012 0.2009 0.125 0.5
-0.59009 0.35012 0.28537 0.125 0.5
-0.57356 0.35012 0.28537 0.125 0.5
-0.59009 0.43537 0.28537 0.125 0.5
-0.57356 0.43537 0.28537 0.125 0.5
0.02871 -0.76876 0.90675 0.625 0.5
0.04386 -0.76876 0.90675 0.625 0.5
0.04386 -0.76879 0.8733 0.625 0.5
0.02871 -0.76879 0.8733 0.625 0.5
0.02871 -0.77744 0.90676 0.625 0.5
0.02871 -0.77746 0.87331 0.625 0.5
0.04386 -0.77744 0.90676 0.625 0.5
-0.04386 -0.76876 0.90675 0.625 0.5
-0.02871 -0.76876 0.90675 0.625 0.5
-0.02871 -0.76879 0.8733 0.625 0.5
-0.04386 -0.76879 0.8733 0.625 0.5
-0.04386 -0.77744 0.90676 0.625 0.5
-0.04386 -0.77746 0.87331 0.625 0.5
-0.02871 -0.77746 0.87331 0.625 0.5
-0.02871 -0.77744 0.90676 0.625 0.5
0.04386 -0.77746 0.87331 0.625 0.5
0.54495 0.25099 0.09149 0.125 0.166667
0.52561 0.20871 0.09149 0.125 0.166667
0.26579 0.20871 0.09149 0.125 0.166667
0.24646 0.25099 0.09149 0.125 0.166667
-0.24646 0.25099 0.09149 0.125 0.166667
-0.26579 0.20871 0.09149 0.125 0.166667
-0.52561 0.20871 0.09149 0.125 0.166667
-0.54495 0.25099 0.09149 0.125 0.166667
3 0 2 1
3 0 3 2
3 1 2 4
3 1 4 5
3 6 8 7
3 6 9 8
3 10 9 6
3 10 6 7
3 10 11 9
3 9 12 8
3 9 11 12
3 10 7 13
3 13 11 10
3 13 12 11
3 14 16 15
3 14 17 16
3 18 14 15
3 18 15 19
3 16 17 20
3 16 20 21
3 21 20 22
3 21 22 23
3 22 24 23
3 22 25 24
3 19 15 26
3 19 26 27
3 15 28 26
3 15 16 28
3 16 29 28
3 16 21 29
3 21 30 29
3 21 23 30
3 23 31 30
3 23 24 31
3 32 27 33
3 34 32 33
3 35 32 34
3 19 32 35
3 32 19 27
3 19 35 18
3 35 34 36
3 36 34 24
3 36 24 25
3 34 33 37
3 24 37 31
3 24 34 37
3 38 40 39
3 38 41 40
3 39 40 42
3 39 42 43
3 43 42 44
3 43 44 45
3 46 48 47
3 46 49 48
3 50 46 47
3 50 47 51
3 51 47 52
3 51 52 53
3 54 51 53
3 54 53 55
3 56 54 55
3 47 57 52
3 47 48 57
3 58 54 56
3 58 56 59
3 60 58 59
3 60 59 61
3 61 62 60
3 48 63 57
3 48 64 63
3 63 64 65
3 64 66 65
3 64 67 66
3 67 61 66
3 67 62 61
3 60 62 68
3 60 68 69
3 58 60 69
3 70 72 71
3 70 73 72
3 70 74 73
3 70 75 74
3 76 78 77
3 76 79 78
3 78 79 80
3 78 80 81
3 50 49 46
3 50 82 49
3 49 82 83
3 49 83 84
3 48 49 84
3 48 84 64
3 64 84 85
3 64 85 67
3 84 86 85
3 84 83 86
3 85 62 67
3 85 86 62
3 62 86 87
3 62 87 68
3 68 87 88
3 86 88 87
3 68 88 69
3 86 89 88
3 89 83 88
3 86 83 89
3 90 92 91
3 90 93 92
3 90 91 94
3 90 94 95
3 81 97 96
3 81 80 97
3 98 100 99
3 98 101 100
3 102 101 98
3 102 103 101
3 103 104 101
3 103 105 104
3 106 105 103
3 106 107 105
3 108 107 106
3 101 109 100
3 101 104 109
3 110 108 106
3 110 111 108
3 112 111 110
3 112 113 111
3 113 112 114
3 100 109 115
3 100 115 116
3 115 117 116
3 116 117 118
3 116 118 119
3 119 113 114
3 119 118 113
3 112 120 114
3 112 121 120
3 110 121 112
3 122 124 123
3 122 125 124
3 124 126 123
3 124 127 126
3 102 99 128
3 102 98 99
3 99 129 128
3 99 130 129
3 100 130 99
3 100 116 130
3 116 131 130
3 116 119 131
3 130 132 129
3 130 131 132
3 131 114 132
3 131 119 114
3 114 133 132
3 114 120 133
3 120 134 133
3 132 133 134
3 120 121 134
3 132 134 135
3 135 134 129
3 132 135 129
3 136 138 137
3 136 139 138
3 136 137 140
3 136 140 141
3 142 144 143
3 142 145 144
3 142 143 146
3 142 146 147
3 127 148 126
3 127 149 148
3 150 152 151
3 150 153 152
3 152 154 151
3 152 155 154
3 156 155 152
3 155 156 157
3 155 157 158
3 158 157 153
3 158 153 150
3 156 152 159
3 156 159 160
3 160 157 156
3 160 159 161
3 160 161 162
3 160 162 157
3 153 162 161
3 153 157 162
3 158 150 163
3 164 166 165
3 164 167 166
3 154 166 167
3 154 155 166
3 155 165 166
3 155 158 165
3 158 164 165
3 158 163 164
3 168 170 169
3 168 171 170
3 172 174 173
3 172 175 174
3 174 175 176
3 174 176 177
3 178 174 177
3 178 179 174
3 178 180 179
3 180 181 179
3 180 182 181
3 173 181 182
3 180 183 182
3 180 178 183
3 173 182 183
3 177 183 178
3 184 173 183
3 184 172 173
3 177 184 183
3 184 185 172
3 186 188 187
3 186 189 188
3 185 189 186
3 185 184 189
3 184 188 189
3 184 177 188
3 177 187 188
3 177 176 187
3 190 192 191
3 190 193 192
3 194 196 195
3 194 197 196
3 194 198 197
3 194 199 198
3 200 196 197
3 197 201 200
3 197 198 201
3 202 196 200
3 202 203 196
3 204 203 202
3 205 204 202
3 206 204 205
3 206 205 207
3 207 205 208
3 207 208 209
3 207 210 206
3 207 209 210
3 205 202 211
3 201 211 202
3 201 202 200
3 211 212 205
3 201 212 211
3 208 205 212
3 213 208 212
3 213 212 214
3 212 215 214
3 212 198 215
3 201 198 212
3 216 213 214
3 199 210 216
3 199 216 217
3 216 218 213
3 210 218 216
3 210 209 218
3 218 208 213
3 218 209 208
3 216 214 215
3 216 215 217
3 217 215 219
3 215 220 219
3 219 220 221
3 219 221 222
3 217 219 222
3 215 198 220
3 199 222 221
3 199 217 222
3 194 210 199
3 206 210 194
3 206 194 195
3 206 195 223
3 223 204 206
3 223 203 204
3 224 226 225
3 224 227 226
3 228 230 229
3 228 231 230
3 228 229 232
3 228 232 233
3 234 229 230
3 229 234 235
3 229 235 232
3 236 234 230
3 236 230 237
3 238 236 237
3 239 236 238
3 240 239 238
3 240 241 239
3 241 240 242
3 241 242 243
3 242 244 243
3 242 245 244
3 233 245 242
3 233 246 245
3 245 247 244
3 243 244 247
3 245 248 247
3 239 249 236
3 235 236 249
3 235 234 236
3 249 239 250
3 235 249 250
3 250 248 251
3 250 251 232
3 243 247 252
3 252 248 250
3 252 247 248
3 241 243 252
3 241 252 239
3 239 252 250
3 245 251 248
3 245 246 251
3 251 246 253
3 251 253 254
3 254 253 255
3 246 255 253
3 254 255 256
3 246 233 255
3 232 254 256
3 232 251 254
3 235 250 232
3 257 238 237
3 257 240 238
3 258 260 259
3 258 261 260
3 240 231 228
3 240 257 231
3 240 228 242
3 228 233 242
3 262 264 263
3 262 265 264
3 265 266 264
3 265 267 266
3 268 262 263
3 268 263 269
3 263 264 270
3 263 270 271
3 269 263 271
3 264 272 270
3 264 266 272
3 269 271 273
3 266 273 272
3 266 269 273
3 269 266 267
3 269 267 268
3 274 276 275
3 274 277 276
3 278 280 279
3 278 281 280
3 281 282 280
3 281 283 282
3 284 278 279
3 284 279 285
3 279 280 286
3 279 286 287
3 280 288 286
3 280 282 288
3 285 279 287
3 285 287 289
3 282 289 288
3 282 285 289
3 285 282 283
3 285 283 284
3 290 292 291
3 290 293 292
3 294 296 295
3 294 297 296
3 298 295 299
3 298 294 295
3 300 302 301
3 300 303 302
3 300 304 303
3 301 302 305
3 306 308 307
3 306 309 308
3 310 312 311
3 311 312 313
3 311 313 314
3 315 311 314
3 316 311 315
3 317 311 316
3 311 317 318
3 318 310 311
3 315 314 319
3 318 317 320
3 318 320 321
3 321 320 322
3 310 318 323
3 310 323 324
3 321 322 325
3 321 325 326
3 326 325 327
3 326 327 328
3 328 327 329
3 329 327 330
3 329 330 331
3 328 329 332
3 323 328 324
3 333 324 328
3 333 328 332
3 323 326 328
3 325 334 327
3 321 326 323
3 321 323 318
3 327 335 330
3 327 334 335
3 336 331 330
3 336 337 331
3 329 337 332
3 329 331 337
3 338 336 330
3 338 330 339
3 339 330 335
3 340 338 339
3 340 339 341
3 340 341 342
3 343 340 342
3 343 342 344
3 344 345 343
3 345 344 346
3 345 346 347
3 316 347 346
3 316 315 347
3 315 348 347
3 315 319 348
3 349 316 346
3 349 346 350
3 347 351 345
3 347 348 351
3 345 351 352
3 345 352 353
3 354 345 353
3 343 345 354
3 354 355 343
3 354 356 355
3 355 356 336
3 357 336 356
3 357 337 336
3 355 336 338
3 353 356 354
3 353 358 356
3 358 353 359
3 353 360 359
3 361 359 360
3 361 362 359
3 312 362 361
3 312 361 313
3 363 362 312
3 363 364 362
3 312 324 363
3 312 310 324
3 362 365 359
3 362 364 365
3 358 359 365
3 363 366 364
3 363 367 366
3 366 367 368
3 369 368 367
3 369 367 370
3 370 371 369
3 370 372 371
3 366 368 373
3 369 374 368
3 369 375 374
3 371 375 369
3 371 376 375
3 372 376 371
3 377 375 376
3 377 376 378
3 372 378 376
3 375 379 374
3 375 377 379
3 368 380 373
3 368 374 380
3 381 374 379
3 381 380 374
3 358 381 379
3 358 365 381
3 382 378 372
3 382 383 378
3 384 386 385
3 387 384 385
3 387 385 388
3 387 388 389
3 389 388 390
3 390 388 391
3 392 394 393
3 317 396 395
3 317 316 396
3 316 397 396
3 316 349 397
3 349 317 395
3 349 395 397
3 320 398 322
3 320 399 398
3 400 322 398
3 398 399 401
3 398 401 402
3 322 400 325
3 325 400 334
3 400 398 403
3 400 403 404
3 398 405 403
3 398 402 405
3 402 406 405
3 402 407 406
3 408 406 407
3 408 404 406
3 409 408 407
3 409 407 410
3 409 410 411
3 409 411 412
3 404 408 413
3 413 408 414
3 403 405 415
3 403 415 416
3 417 404 413
3 417 413 414
3 417 412 411
3 417 414 412
3 417 411 341
3 342 341 411
3 342 411 418
3 341 339 417
3 339 335 417
3 404 417 400
3 419 421 420
3 419 422 421
3 423 421 422
3 423 424 421
3 425 424 423
3 425 426 424
3 427 429 428
3 427 430 429
3 431 427 428
3 431 430 427
3 431 428 432
3 432 428 429
3 433 431 432
3 431 433 430
3 433 432 434
3 432 429 434
3 302 435 305
3 302 436 435
3 437 439 438
3 440 442 441
3 440 443 442
3 443 389 442
3 443 387 389
3 444 443 440
3 363 370 367
3 363 445 370
3 324 445 363
3 333 445 324
3 333 382 445
3 382 370 445
3 382 372 370
3 357 382 333
3 357 383 382
3 357 446 383
3 357 356 446
3 356 358 446
3 358 377 446
3 383 446 377
3 358 379 377
3 383 377 378
3 447 449 448
3 447 450 449
3 451 450 447
3 451 452 450
3 453 455 454
3 453 456 455
3 453 454 457
3 456 458 455
3 459 461 460
3 459 462 461
3 353 352 360
3 463 465 464
3 344 466 346
3 344 467 466
3 346 468 350
3 346 466 468
3 350 467 344
3 350 468 467
3 340 355 338
3 340 343 355
3 455 470 469
3 455 458 470
3 471 473 472
3 411 474 418
3 411 410 474
3 475 477 476
3 475 478 477
3 479 478 475
3 479 480 478
3 333 337 357
3 333 332 337
3 481 483 482
3 481 484 483
3 482 483 485
3 484 485 483
3 482 485 486
3 487 484 481
3 487 488 484
3 484 488 485
3 486 488 487
3 486 485 488
3 489 491 490
3 489 492 491
3 490 491 493
3 492 493 491
3 490 493 494
3 495 492 489
3 495 496 492
3 492 496 493
3 494 496 495
3 494 493 496
3 497 499 498
3 497 500 499
3 498 499 501
3 500 501 499
3 498 501 502
3 503 500 497
3 503 504 500
3 500 504 501
3 502 504 503
3 502 501 504
3 505 507 506
3 505 508 507
3 506 507 509
3 508 509 507
3 506 509 510
3 510 509 511
3 508 511 509
3 510 511 512
3 512 508 505
3 512 511 508
3 513 515 514
3 513 516 515
3 514 515 517
3 516 517 515
3 514 517 518
3 518 517 519
3 516 519 517
3 518 519 520
3 520 516 513
3 520 519 516
3 521 523 522
3 521 524 523
3 524 525 523
3 522 523 525
3 524 526 525
3 527 521 522
3 527 522 528
3 522 525 528
3 526 528 525
3 526 527 528
3 529 531 530
3 529 532 531
3 532 533 531
3 530 531 533
3 532 534 533
3 535 529 530
3 535 530 536
3 530 533 536
3 534 536 533
3 534 535 536
3 537 539 538
3 537 540 539
3 540 541 539
3 538 539 541
3 540 542 541
3 543 537 538
3 543 538 544
3 538 541 544
3 542 544 541
3 542 543 544
3 545 547 546
3 545 548 547
3 548 549 547
3 546 547 549
3 548 550 549
3 550 551 549
3 546 549 551
3 550 552 551
3 552 546 551
3 552 545 546
3 553 555 554
3 553 556 555
3 556 557 555
3 554 555 557
3 556 558 557
3 558 559 557
3 554 557 559
3 558 560 559
3 560 554 559
3 560 553 554
3 561 563 562
3 561 564 563
3 565 564 561
3 565 566 564
3 567 561 562
3 567 565 561
3 568 570 569
3 568 571 570
3 572 571 568
3 572 573 571
3 574 569 570
3 574 575 569
3 575 568 569
3 575 572 568
3 566 563 564
3 566 576 563
3 573 570 571
3 573 574 570
3 577 579 578
3 577 580 579
3 581 583 582
3 581 584 583
