ply
format ascii 1.0
element vertex 302
property float x
property float y
property float z
property uchar red
property uchar green
property uchar blue
element face 332
property list uchar int vertex_index
end_header
0.15565 -0.38681 1.05506 221 201 104
0.06509 -0.38681 0.83895 221 201 104
-0.06509 -0.38681 0.83895 221 201 104
-0.15565 -0.38681 1.05506 221 201 104
-0.09551 -0.38681 0.79198 200 182 94
0.09551 -0.38681 0.79198 200 182 94
0.09551 -0.17997 0.79198 200 182 94
-0.09551 -0.17997 0.79198 200 182 94
-0.06509 -0.38681 0.83895 200 182 94
0.06509 -0.38681 0.83895 200 182 94
0.20891 -0.17997 1.05506 200 182 94
0.20891 -0.38681 1.05506 200 182 94
0.15565 -0.38681 1.05506 200 182 94
-0.15565 -0.38681 1.05506 200 182 94
-0.20891 -0.38681 1.05506 200 182 94
-0.20891 -0.17997 1.05506 200 182 94
-0.13063 -0.32309 0.36417 200 182 94
-0.13063 -0.32309 0.9661 200 182 94
-0.09512 -0.32309 0.9661 200 182 94
-0.09512 -0.32309 0.37208 200 182 94
-0.13063 -0.14118 0.9661 200 182 94
-0.13063 -0.14118 0.36417 200 182 94
-0.09572 -0.32309 0.33022 200 182 94
-0.0958 -0.14156 0.33022 200 182 94
-0.08638 -0.32309 0.35954 200 182 94
0.09572 -0.32309 0.33022 200 182 94
0.0958 -0.14156 0.33022 200 182 94
0.08638 -0.32309 0.35954 200 182 94
0.13063 -0.14118 0.36417 200 182 94
0.13063 -0.32309 0.36417 200 182 94
0.13063 -0.14118 0.9661 200 182 94
0.13063 -0.32309 0.9661 200 182 94
0.09512 -0.32309 0.9661 200 182 94
0.09512 -0.32309 0.37208 200 182 94
-0.48714 -0.38465 1.10426 221 201 104
-0.48714 0.42955 1.10426 221 201 104
-0.48714 0.42955 1.61579 221 201 104
-0.48714 -0.38465 1.61579 221 201 104
-0.41345 -0.44526 1.61579 221 201 104
-0.41345 -0.44526 1.10426 221 201 104
-0.43506 -0.34367 1.6839 221 201 104
-0.37254 -0.39846 1.6839 221 201 104
-0.43506 0.38857 1.6839 221 201 104
-0.36884 -0.44526 1.38901 221 201 104
-0.36884 -0.44526 1.2262 221 201 104
-0.36884 -0.41022 1.2262 221 201 104
-0.36884 -0.41022 1.27064 221 201 104
-0.10872 -0.41022 1.2262 221 201 104
-0.10872 -0.44526 1.2262 221 201 104
-0.26259 -0.44526 1.38901 221 201 104
-0.15072 -0.41022 1.27064 221 201 104
-0.26259 -0.41022 1.38901 221 201 104
-0.36884 -0.41022 1.38901 221 201 104
0.37254 -0.39846 1.6839 221 201 104
0.41345 -0.44526 1.61579 221 201 104
0.43506 -0.34367 1.6839 221 201 104
0.48714 -0.38465 1.61579 221 201 104
0.48714 -0.38465 1.10426 221 201 104
0.48714 0.42955 1.61579 221 201 104
0.48714 0.42955 1.10426 221 201 104
0.41345 -0.44526 1.10426 221 201 104
0.43506 0.38857 1.6839 221 201 104
0.26259 -0.44526 1.38901 221 201 104
0.10872 -0.44526 1.2262 221 201 104
0.15072 -0.41022 1.27064 221 201 104
0.10872 -0.41022 1.2262 221 201 104
0.36884 -0.44526 1.2262 221 201 104
0.36884 -0.41022 1.2262 221 201 104
0.26259 -0.41022 1.38901 221 201 104
0.36884 -0.41022 1.38901 221 201 104
0.36884 -0.44526 1.38901 221 201 104
0.36884 -0.41022 1.27064 221 201 104
-0.41345 0.49016 1.10426 221 201 104
-0.41345 0.49016 1.61579 221 201 104
-0.37254 0.44336 1.6839 221 201 104
0.41345 0.49016 1.61579 221 201 104
0.37254 0.44336 1.6839 221 201 104
0.41345 0.49016 1.10426 221 201 104
-0.41345 0.49016 1.10426 200 182 94
-0.48714 0.42955 1.10426 200 182 94
-0.43608 0.38891 1.04477 200 182 94
-0.37739 0.44374 1.04477 200 182 94
-0.43608 -0.34401 1.04477 200 182 94
-0.48714 -0.38465 1.10426 200 182 94
-0.37739 -0.39884 1.04477 200 182 94
-0.41345 -0.44526 1.10426 200 182 94
0.41345 -0.44526 1.10426 200 182 94
0.37739 -0.39884 1.04477 200 182 94
0.48714 -0.38465 1.10426 200 182 94
0.43608 -0.34401 1.04477 200 182 94
0.48714 0.42955 1.10426 200 182 94
0.43608 0.38891 1.04477 200 182 94
0.41345 0.49016 1.10426 200 182 94
0.37739 0.44374 1.04477 200 182 94
-0.40788 -0.22446 0.92428 221 201 104
-0.40788 0.35247 0.92428 221 201 104
-0.40812 0.35238 1.0506 221 201 104
-0.40812 -0.22446 1.0506 221 201 104
-0.33444 -0.28508 1.0506 221 201 104
-0.33419 -0.28508 0.92428 221 201 104
0.33444 -0.28508 1.0506 221 201 104
0.33419 -0.28508 0.92428 221 201 104
0.40788 -0.22446 0.92428 221 201 104
0.40812 -0.22446 1.0506 221 201 104
0.40812 0.35238 1.0506 221 201 104
0.40788 0.35247 0.92428 221 201 104
-0.33419 0.41309 0.92428 221 201 104
-0.33444 0.41299 1.0506 221 201 104
0.33419 0.41309 0.92428 221 201 104
0.33444 0.41299 1.0506 221 201 104
-0.33419 0.41309 0.92428 200 182 94
-0.40788 0.35247 0.92428 200 182 94
-0.40802 0.3524 0.87296 200 182 94
-0.33447 0.41233 0.87296 200 182 94
-0.40802 -0.22425 0.87296 200 182 94
-0.40788 -0.22446 0.92428 200 182 94
-0.33447 -0.28493 0.87296 200 182 94
-0.33419 -0.28508 0.92428 200 182 94
0.33419 -0.28508 0.92428 200 182 94
0.33447 -0.28493 0.87296 200 182 94
0.40788 -0.22446 0.92428 200 182 94
0.40802 -0.22425 0.87296 200 182 94
0.40788 0.35247 0.92428 200 182 94
0.40802 0.3524 0.87296 200 182 94
0.33419 0.41309 0.92428 200 182 94
0.33447 0.41233 0.87296 200 182 94
-0.40764 -0.22394 0.70014 221 201 104
-0.40764 0.35262 0.70014 221 201 104
-0.40802 0.3524 0.87296 221 201 104
-0.40802 -0.22425 0.87296 221 201 104
-0.33438 0.41233 0.70014 221 201 104
-0.33447 0.41233 0.87296 221 201 104
0.33438 0.41233 0.70014 221 201 104
0.33447 0.41233 0.87296 221 201 104
0.40802 0.3524 0.87296 221 201 104
0.40764 0.35262 0.70014 221 201 104
0.40764 -0.22394 0.70014 221 201 104
0.40802 -0.22425 0.87296 221 201 104
-0.33447 -0.28493 0.87296 221 201 104
-0.33438 -0.28487 0.70014 221 201 104
0.33447 -0.28493 0.87296 221 201 104
0.33438 -0.28487 0.70014 221 201 104
-0.33438 0.41233 0.70014 200 182 94
-0.40764 0.35262 0.70014 200 182 94
-0.38125 0.32096 0.64882 200 182 94
-0.32404 0.38013 0.64882 200 182 94
-0.38125 -0.19906 0.64882 200 182 94
-0.32404 -0.25577 0.64882 200 182 94
0.32404 0.38013 0.64882 200 182 94
0.32404 -0.25577 0.64882 200 182 94
0.33438 -0.28487 0.70014 200 182 94
0.40764 -0.22394 0.70014 200 182 94
0.38125 -0.19906 0.64882 200 182 94
0.40764 0.35262 0.70014 200 182 94
0.38125 0.32096 0.64882 200 182 94
-0.33438 -0.28487 0.70014 200 182 94
-0.40764 -0.22394 0.70014 200 182 94
0.33438 0.41233 0.70014 200 182 94
-0.32994 -0.15835 0.05059 221 201 104
-0.32994 0.24832 0.05059 221 201 104
-0.33012 0.24829 0.19068 221 201 104
-0.33012 -0.15835 0.19068 221 201 104
-0.27322 0.30195 0.05059 221 201 104
-0.27339 0.30192 0.19068 221 201 104
-0.27888 0.20768 0.00932 221 201 104
-0.23716 0.25553 0.00932 221 201 104
-0.27888 -0.11771 0.00932 221 201 104
-0.23716 -0.16313 0.00932 221 201 104
0.27322 0.30195 0.05059 221 201 104
0.27339 0.30192 0.19068 221 201 104
0.33012 0.24829 0.19068 221 201 104
0.32994 0.24832 0.05059 221 201 104
0.32994 -0.15835 0.05059 221 201 104
0.33012 -0.15835 0.19068 221 201 104
0.27888 0.20768 0.00932 221 201 104
0.23716 0.25553 0.00932 221 201 104
0.27888 -0.11771 0.00932 221 201 104
0.23716 -0.16313 0.00932 221 201 104
-0.27322 -0.20955 0.05059 221 201 104
-0.27339 -0.20955 0.19068 221 201 104
0.27322 -0.20955 0.05059 221 201 104
0.27339 -0.20955 0.19068 221 201 104
-0.32996 -0.15835 0.43592 221 201 104
-0.32996 0.24824 0.43592 221 201 104
-0.33022 0.24857 0.65512 221 201 104
-0.33022 -0.15808 0.65512 221 201 104
-0.27307 -0.20957 0.65512 221 201 104
-0.27324 -0.20955 0.43592 221 201 104
-0.27324 -0.20955 0.43592 200 182 94
-0.21766 -0.20955 0.43592 200 182 94
-0.27328 -0.20955 0.39046 200 182 94
-0.32996 -0.15835 0.43592 200 182 94
-0.33 -0.15835 0.39046 200 182 94
-0.32996 0.24824 0.43592 200 182 94
-0.33 0.24838 0.39046 200 182 94
-0.21768 -0.20957 0.65512 200 182 94
-0.27307 -0.20957 0.65512 200 182 94
0.21766 -0.20955 0.43592 200 182 94
0.27328 -0.20955 0.39046 200 182 94
0.27324 -0.20955 0.43592 200 182 94
0.32996 -0.15835 0.43592 200 182 94
0.33 -0.15835 0.39046 200 182 94
0.32996 0.24824 0.43592 200 182 94
0.33 0.24838 0.39046 200 182 94
0.21768 -0.20957 0.65512 200 182 94
0.27307 -0.20957 0.65512 200 182 94
-0.27324 0.30187 0.43592 221 201 104
-0.27307 0.30202 0.65512 221 201 104
0.27324 0.30187 0.43592 221 201 104
0.27307 0.30202 0.65512 221 201 104
0.32996 0.24824 0.43592 221 201 104
0.33022 0.24857 0.65512 221 201 104
0.32996 -0.15835 0.43592 221 201 104
0.33022 -0.15808 0.65512 221 201 104
0.27307 -0.20957 0.65512 221 201 104
0.27324 -0.20955 0.43592 221 201 104
-0.27328 0.30201 0.39046 200 182 94
-0.27324 0.30187 0.43592 200 182 94
0.27328 0.30201 0.39046 200 182 94
0.27324 0.30187 0.43592 200 182 94
-0.33 -0.15835 0.39046 221 201 104
-0.27328 -0.20955 0.39046 221 201 104
-0.27328 -0.20955 0.23614 221 201 104
-0.33 -0.15835 0.23614 221 201 104
-0.33 0.24838 0.39046 221 201 104
-0.33 0.24836 0.23614 221 201 104
0.27328 -0.20955 0.39046 221 201 104
0.27328 -0.20955 0.23614 221 201 104
0.33 -0.15835 0.39046 221 201 104
0.33 -0.15835 0.23614 221 201 104
0.33 0.24838 0.39046 221 201 104
0.33 0.24836 0.23614 221 201 104
-0.27328 0.30198 0.23614 221 201 104
-0.27328 0.30201 0.39046 221 201 104
0.27328 0.30198 0.23614 221 201 104
0.27328 0.30201 0.39046 221 201 104
-0.33 -0.15835 0.23614 200 182 94
-0.27328 -0.20955 0.23614 200 182 94
-0.27339 -0.20955 0.19068 200 182 94
-0.33012 -0.15835 0.19068 200 182 94
0.27328 -0.20955 0.23614 200 182 94
0.27339 -0.20955 0.19068 200 182 94
0.33 -0.15835 0.23614 200 182 94
0.33012 -0.15835 0.19068 200 182 94
-0.33012 0.24829 0.19068 200 182 94
-0.33 0.24836 0.23614 200 182 94
-0.27328 0.30198 0.23614 200 182 94
-0.27339 0.30192 0.19068 200 182 94
0.27339 0.30192 0.19068 200 182 94
0.27328 0.30198 0.23614 200 182 94
0.33012 0.24829 0.19068 200 182 94
0.33 0.24836 0.23614 200 182 94
-0.36884 -0.41022 1.38901 44 44 40
-0.26259 -0.41022 1.38901 44 44 40
-0.15072 -0.41022 1.27064 44 44 40
-0.36884 -0.41022 1.27064 44 44 40
-0.15072 -0.41022 1.27064 71 65 62
-0.10872 -0.41022 1.2262 71 65 62
-0.36884 -0.41022 1.2262 71 65 62
-0.36884 -0.41022 1.27064 71 65 62
0.09512 -0.32309 0.9661 221 201 104
0.09512 -0.32309 0.37208 221 201 104
-0.09512 -0.32309 0.37208 221 201 104
-0.09512 -0.32309 0.9661 221 201 104
0.08638 -0.32309 0.35954 221 201 104
-0.08638 -0.32309 0.35954 221 201 104
-0.37254 -0.39846 1.6839 227 206 107
-0.43506 -0.34367 1.6839 227 206 107
0.43506 -0.34367 1.6839 227 206 107
0.37254 -0.39846 1.6839 227 206 107
0.43506 0.38857 1.6839 227 206 107
-0.43506 0.38857 1.6839 227 206 107
-0.37254 0.44336 1.6839 227 206 107
0.37254 0.44336 1.6839 227 206 107
-0.21766 -0.20955 0.43592 221 201 104
-0.21768 -0.20957 0.65512 221 201 104
0.21768 -0.20957 0.65512 221 201 104
0.21766 -0.20955 0.43592 221 201 104
0.36884 -0.41022 1.38901 44 44 40
0.36884 -0.41022 1.27064 44 44 40
0.15072 -0.41022 1.27064 44 44 40
0.26259 -0.41022 1.38901 44 44 40
0.15072 -0.41022 1.27064 71 65 62
0.36884 -0.41022 1.27064 71 65 62
0.36884 -0.41022 1.2262 71 65 62
0.10872 -0.41022 1.2262 71 65 62
-0.2482 -0.41753 1.25881 254 255 251
-0.2482 -0.41753 1.32377 254 255 251
-0.19449 -0.41753 1.32377 254 255 251
-0.13411 -0.41753 1.25881 254 255 251
-0.19449 -0.40876 1.32377 254 255 251
-0.2482 -0.40876 1.32377 254 255 251
-0.2482 -0.40876 1.25881 254 255 251
-0.13411 -0.40876 1.25881 254 255 251
0.2482 -0.41753 1.25881 254 255 251
0.13411 -0.41753 1.25881 254 255 251
0.19449 -0.41753 1.32377 254 255 251
0.2482 -0.41753 1.32377 254 255 251
0.19449 -0.40876 1.32377 254 255 251
0.2482 -0.40876 1.32377 254 255 251
0.2482 -0.40876 1.25881 254 255 251
0.13411 -0.40876 1.25881 254 255 251
3 0 2 1
3 0 3 2
3 4 6 5
3 4 7 6
3 8 4 5
3 8 5 9
3 5 6 10
3 5 10 11
3 9 5 11
3 9 11 12
3 4 8 13
3 4 13 14
3 7 4 14
3 7 14 15
3 16 18 17
3 16 19 18
3 20 16 17
3 20 21 16
3 22 16 21
3 22 19 16
3 22 21 23
3 22 24 19
3 23 25 22
3 23 26 25
3 22 27 24
3 22 25 27
3 25 26 28
3 25 28 29
3 30 29 28
3 30 31 29
3 29 31 32
3 29 32 33
3 25 33 27
3 25 29 33
3 34 36 35
3 34 37 36
3 38 37 34
3 38 34 39
3 38 40 37
3 38 41 40
3 37 42 36
3 37 40 42
3 43 38 39
3 43 39 44
3 43 44 45
3 43 45 46
3 44 47 45
3 44 48 47
3 39 48 44
3 49 47 48
3 49 38 43
3 47 49 50
3 50 49 51
3 49 52 51
3 49 43 52
3 43 46 52
3 38 53 41
3 38 54 53
3 54 55 53
3 54 56 55
3 54 57 56
3 57 58 56
3 57 59 58
3 54 60 57
3 56 61 55
3 56 58 61
3 48 62 49
3 49 62 54
3 48 63 62
3 63 64 62
3 64 63 65
3 66 65 63
3 63 60 66
3 66 67 65
3 62 64 68
3 62 68 69
3 62 69 70
3 70 66 60
3 70 67 66
3 70 69 71
3 70 71 67
3 70 60 54
3 54 62 70
3 39 60 63
3 39 63 48
3 49 54 38
3 72 36 73
3 72 35 36
3 36 74 73
3 36 42 74
3 74 75 73
3 74 76 75
3 58 75 76
3 77 75 58
3 73 77 72
3 73 75 77
3 77 58 59
3 58 76 61
3 78 80 79
3 78 81 80
3 79 80 82
3 79 82 83
3 83 82 84
3 83 84 85
3 84 86 85
3 84 87 86
3 82 87 84
3 88 86 87
3 88 87 89
3 82 89 87
3 90 88 89
3 90 89 91
3 81 91 80
3 92 90 91
3 92 91 93
3 78 93 81
3 78 92 93
3 81 93 91
3 80 91 89
3 80 89 82
3 94 96 95
3 94 97 96
3 98 97 94
3 98 94 99
3 99 100 98
3 99 101 100
3 100 101 102
3 100 102 103
3 102 104 103
3 102 105 104
3 106 96 107
3 106 95 96
3 107 108 106
3 107 109 108
3 108 109 104
3 108 104 105
3 110 112 111
3 110 113 112
3 111 112 114
3 111 114 115
3 115 114 116
3 115 116 117
3 116 118 117
3 116 119 118
3 120 118 119
3 120 119 121
3 122 120 121
3 122 121 123
3 124 122 123
3 124 123 125
3 110 125 113
3 110 124 125
3 126 128 127
3 126 129 128
3 130 127 128
3 130 128 131
3 131 132 130
3 131 133 132
3 132 133 134
3 132 134 135
3 136 135 134
3 136 134 137
3 138 126 139
3 138 129 126
3 139 140 138
3 139 141 140
3 140 141 136
3 140 136 137
3 142 144 143
3 142 145 144
3 146 144 145
3 146 145 147
3 142 148 145
3 147 145 148
3 147 148 149
3 147 149 150
3 151 150 149
3 151 149 152
3 153 151 152
3 153 152 154
3 147 150 155
3 156 147 155
3 156 146 147
3 143 146 156
3 143 144 146
3 157 154 148
3 157 153 154
3 142 157 148
3 152 148 154
3 152 149 148
3 158 160 159
3 158 161 160
3 162 159 160
3 162 160 163
3 162 164 159
3 162 165 164
3 165 166 164
3 159 166 158
3 159 164 166
3 165 167 166
3 163 168 162
3 163 169 168
3 168 169 170
3 168 170 171
3 172 171 170
3 172 170 173
3 168 171 174
3 168 174 175
3 162 175 165
3 162 168 175
3 175 174 176
3 171 176 174
3 171 172 176
3 175 176 177
3 165 177 167
3 165 175 177
3 158 167 178
3 158 166 167
3 161 158 178
3 161 178 179
3 167 180 178
3 167 177 180
3 172 180 177
3 172 177 176
3 173 180 172
3 173 181 180
3 178 181 179
3 178 180 181
3 182 184 183
3 182 185 184
3 186 185 182
3 186 182 187
3 188 190 189
3 191 190 188
3 191 192 190
3 192 191 193
3 192 193 194
3 195 188 189
3 195 196 188
3 190 197 189
3 190 198 197
3 199 197 198
3 200 199 198
3 200 198 201
3 201 202 200
3 201 203 202
3 204 197 199
3 204 199 205
3 183 207 206
3 183 184 207
3 207 208 206
3 207 209 208
3 210 208 209
3 210 209 211
3 212 210 211
3 212 211 213
3 214 212 213
3 214 215 212
3 194 217 216
3 194 193 217
3 217 218 216
3 217 219 218
3 203 218 219
3 203 219 202
3 220 222 221
3 220 223 222
3 223 220 224
3 223 224 225
3 222 226 221
3 222 227 226
3 228 226 227
3 228 227 229
3 229 230 228
3 229 231 230
3 225 233 232
3 225 224 233
3 233 234 232
3 233 235 234
3 231 234 235
3 231 235 230
3 236 238 237
3 236 239 238
3 238 240 237
3 238 241 240
3 242 240 241
3 242 241 243
3 239 245 244
3 239 236 245
3 244 245 246
3 244 246 247
3 246 248 247
3 246 249 248
3 250 248 249
3 250 249 251
3 243 250 251
3 243 251 242
3 252 254 253
3 252 255 254
3 256 258 257
3 256 259 258
3 260 262 261
3 260 263 262
3 262 264 261
3 262 265 264
3 266 268 267
3 266 269 268
3 267 268 270
3 267 270 271
3 271 273 272
3 271 270 273
3 274 276 275
3 274 277 276
3 278 280 279
3 278 281 280
3 282 284 283
3 282 285 284
3 286 288 287
3 286 289 288
3 287 288 290
3 287 290 291
3 292 289 286
3 292 287 291
3 292 286 287
3 292 293 289
3 294 296 295
3 294 297 296
3 297 298 296
3 297 299 298
3 300 294 295
3 300 297 294
3 300 299 297
3 300 295 301
