mtllib Froakie.mtl
v 0 0.109553 0.0678667
vt 0.63185 0.913619
vn 0 -0.9960187 0.08914468
v -0.154292 0.170823 0.00748225
vt 0.61185 0.921561
vn -0.7815567 -0.5684158 0.2570459
v -0.135783 0.143821 -0.110229
vt 0.614249 0.918061
vn -0.5228121 -0.7665301 -0.37296
v -0.075 0.159553 0.111168
vt 0.622128 0.9201
vn -0.6326429 -0.4854949 0.6033719
v 0 0.14877 -0.174075
vt 0.63185 0.918702
vn 0 -0.9221548 -0.3868209
v 0 0.159553 0.154469
vt 0.63185 0.9201
vn 0 -0.424532 0.905413
v 0.135783 0.143821 -0.110229
vt 0.649451 0.918061
vn 0.5228121 -0.7665301 -0.37296
v 0.075 0.159553 0.111168
vt 0.641572 0.9201
vn 0.6326429 -0.4854949 0.6033719
v 0.154292 0.170823 0.00748225
vt 0.65185 0.921561
vn 0.7815567 -0.5684158 0.2570459
v -0.152598 0.259007 -0.101449
vt 0.61207 0.932992
vn -0.6048491 0.7228661 -0.3340991
v -0.075 0.204784 0.112359
vt 0.622128 0.925963
vn -0.5836849 0.3857709 0.7144879
v -0.146214 0.236729 0.0209935
vt 0.612897 0.930104
vn -0.6553451 0.641521 0.398715
v 0 0.206195 -0.221145
vt 0.63185 0.926146
vn 0 0.2133931 -0.9769664
v 0 0.201157 0.145641
vt 0.63185 0.925493
vn 0 0.438656 0.8986551
v 0.152598 0.259007 -0.101449
vt 0.65163 0.932992
vn 0.6048491 0.7228661 -0.3340991
v 0.075 0.204784 0.112359
vt 0.641572 0.925963
vn 0.5836849 0.3857709 0.7144879
v 0.146214 0.236729 0.0209935
vt 0.650803 0.930104
vn 0.6553451 0.641521 0.398715
v 0 0.269071 0.0642948
vt 0.63185 0.934296
vn 0 0.9632002 0.2687851
v 0 0.276895 -0.134073
vt 0.63185 0.935311
vn 0 0.9682851 -0.249848
v 0 0.417732 0.0782486
vt 0.0303937 0.5
vn 0 0.9984543 -0.05557882
v 0.109019 0.391791 0.00111796
vt 0.575487 0.692827
vn 0.4838372 0.4529632 -0.7488163
v 0 0.390666 -0.0437141
vt 0.0303937 0.778908
vn 0 0.908682 -0.417489
v 0.0325746 0.411539 0.0743247
vt 0.193266 0.50981
vn -0.9476508 0.216087 -0.2350839
v -0.109019 0.391791 0.00111796
vn -0.4838361 0.4529631 -0.7488171
v 0.0655106 0.38887 0.159047
vt 0.357947 0.298005
vn -0.105924 0.07756822 0.9913442
v -0.0325745 0.411539 0.0743247
vn 0.947648 0.216101 -0.235082
v 0 0.390666 0.179412
vt 0.0303937 0.221092
vn 0 0.8767864 0.4808802
v -0.0655107 0.38887 0.159046
vn 0.105924 0.0775703 0.991344
v 0 0.341757 -0.110499
vt 0.0303937 0.94587
vn 0 0.6630559 -0.7485699
v 0.136053 0.341757 -0.0566969
vt 0.710658 0.811365
vn 0.5562181 0.6200141 -0.5533571
v 0.0957987 0.341757 0.188745
vt 0.509387 0.197761
vn 0.3651579 0.7584907 0.5397699
v -0.0957987 0.341757 0.188745
vn -0.3651581 0.7584903 0.5397702
v -0.136053 0.341757 -0.0566969
vn -0.556218 0.620015 -0.553356
v 0 0.341757 0.246197
vt 0.0303937 0.0541297
vn 0 0.7173259 0.6967379
v 0.047568 0.0814683 -0.0066991
vt 0.506712 0.493074
vn 0.2774321 -0.6375294 0.7187403
v -0.047568 0.0814683 -0.00669911
vt 0.493288 0.493074
vn -0.2774321 -0.6375294 0.7187403
v 0 0.04312419 -0.05228138
vt 0.5 0.487664
vn 0 -0.8343717 0.5512021
v -0.0506298 0.0937268 0.0307499
vt 0.492856 0.494804
vn 0.2359139 -0.9335898 0.2697309
v 0.117051 0.002195847 -0.04571496
vt 0.516516 0.48189
vn 0.7869444 -0.6031876 0.129935
v 0.0506298 0.0937268 0.0307499
vt 0.507144 0.494804
vn -0.2359149 -0.9335896 0.2697309
v 0.141741 0.124328 -0.0872774
vt 0.52 0.499122
vn 0.9720433 0.135499 -0.1917601
v 0.099971 0.131239 -7.83652E-05
vt 0.514106 0.500097
vn 0.9951288 -0.005987838 -0.09840228
v -0.117051 0.002195857 -0.04571496
vt 0.483484 0.48189
vn -0.7869444 -0.6031876 0.129935
v -0.099971 0.131239 -7.83727E-05
vt 0.485894 0.500097
vn -0.9951288 -0.005987659 -0.09840238
v -0.141741 0.124328 -0.0872774
vt 0.48 0.499122
vn -0.9720432 0.1355 -0.19176
v 0.0422576 0.05533455 -0.1621653
vt 0.505963 0.489387
vn 0.2982049 -0.4847475 -0.8222492
v 0 0.03162784 -0.1026905
vt 0.5 0.486042
vn 0 -0.9742381 -0.2255219
v -0.049799 0.146854 0.0915961
vt 0.492973 0.5023
vn -0.09407358 -0.2690399 0.9585238
v 0.049799 0.146854 0.0915961
vt 0.507027 0.5023
vn 0.09407347 -0.2690399 0.9585238
v 0.0662841 0.174888 -0.0794615
vt 0.509353 0.506256
vn 0.3049431 0.8722523 -0.3823422
v 0.0602588 0.219756 -0.00119497
vt 0.508503 0.512587
vn 0.4139342 0.8594635 -0.2999682
v 0.0919003 0.178825 0.0536235
vt 0.512967 0.506812
vn 0.8320582 0.4208001 0.3613951
v -0.0662841 0.174888 -0.0794615
vt 0.490647 0.506256
vn -0.293231 0.8742558 -0.3869009
v -0.0602588 0.219756 -0.00119499
vt 0.491497 0.512587
vn -0.405544 0.861645 -0.305126
v -0.0919003 0.178825 0.0536235
vt 0.487033 0.506812
vn -0.8320582 0.4208001 0.3613951
v -0.0422576 0.05533455 -0.1621653
vt 0.494037 0.489387
vn -0.2982049 -0.4847475 -0.8222492
v 0.0570047 0.125258 -0.174397
vt 0.508044 0.499253
vn 0.2847581 0.3623002 -0.8874973
v 0 0.258899 0.0688946
vt 0.5 0.51811
vn 0 0.8663812 0.4993832
v -0.0570047 0.125258 -0.174397
vt 0.491956 0.499253
vn -0.276482 0.3865121 -0.8798671
v 0 0.288048 -0.142946
vt 0.923568 0.836874
vn 0 -0.38903 -0.9212251
v 0 0.235149 -0.0646427
vt 0.923568 0.831855
vn 0 -0.9344413 -0.3561171
v -0.149055 0.288048 -0.0812054
vt 0.909426 0.836874
vn -0.5720512 -0.5655012 -0.5941092
v 0.149055 0.288048 -0.0812054
vt 0.93771 0.836874
vn 0.5720512 -0.5655012 -0.5941092
vt 0.910659 0.84197
vt 0.936477 0.84197
vt 0.923568 0.84197
v -0.132492 0.235149 0.0678492
vt 0.910997 0.831855
vn -0.3630992 -0.9316115 0.01609111
v 0.132492 0.235149 0.0678492
vt 0.936139 0.831855
vn 0.3630992 -0.9316115 0.01609101
v 0 0.214736 0.0678492
vt 0.923568 0.829918
vn 0 -1 0
v -0.210795 0.288048 0.0678492
vt 0.903568 0.836874
vn -0.9164311 -0.400071 -0.009863361
v -0.168747 0.348872 0.0797558
vt 0.907557 0.842645
vn -0.9905837 0.111515 -0.07942547
vt 0.913224 0.846717
v 0.210795 0.288048 0.0678492
vt 0.943568 0.836874
vn 0.9164311 -0.400071 -0.009863191
v 0.168747 0.348872 0.0797558
vt 0.939579 0.842645
vn 0.9905834 0.111519 -0.07942383
vt 0.933912 0.846717
v 0 0.235149 0.200341
vn 0 -0.9000953 0.4356931
v -0.191569 0.43443 0.0723408
vt 0.905392 0.850762
vn -0.9720147 0.01570379 -0.2343949
v -0.145094 0.343783 0.148817
vt 0.909802 0.842162
vn -0.7277391 0.07245561 0.6820161
v 0.191568 0.43443 0.0723409
vt 0.941744 0.850762
vn 0.9720148 0.0157064 -0.2343939
v 0.109019 0.43443 -0.0108405
vt 0.933912 0.850762
vn 0.148953 0.0946195 -0.984307
vt 0.926659 0.848591
v 0.149055 0.295611 0.216904
vn 0.5483689 -0.6052179 0.5770639
v 0.145094 0.343783 0.148817
vt 0.937334 0.842162
vn 0.727739 0.0724582 0.682016
v -0.149055 0.295611 0.216904
vn -0.5483679 -0.6052189 0.5770639
v -0.109019 0.43443 -0.0108405
vt 0.913224 0.850762
vn -0.148955 0.09461897 -0.9843067
v -0.109019 0.495805 0.014582
vt 0.913224 0.856586
vn 0 0.555848 -0.831284
v -0.16739 0.495805 0.0801969
vt 0.907686 0.856586
vn -0.8318678 0.5076039 -0.2243529
v 0.109019 0.495805 0.014582
vt 0.933912 0.856586
v 0.16739 0.495805 0.0801969
vt 0.93945 0.856586
vn 0.8318678 0.5076039 -0.2243529
v 0.0264689 0.43443 0.0723408
vt 0.926079 0.850762
vn -0.9528231 0.137083 -0.270807
vt 0.932657 0.84197
v 0.0989027 0.347896 0.149838
vt 0.932952 0.842552
vn 0.07853994 -0.07843654 0.9938205
vt 0.914479 0.84197
v 0 0.307901 0.270136
vn 0 -0.3603589 0.9328138
vt 0.920477 0.848591
v -0.109019 0.521228 0.0991629
vt 0.913224 0.858998
vn 0 0.9999936 -0.003595309
v 0.109019 0.521228 0.0991629
vt 0.933912 0.858998
v 0.0506471 0.495805 0.0801969
vt 0.928373 0.856586
vt 0.929784 0.84644
v -0.0989027 0.347896 0.149838
vt 0.914184 0.842552
vn -0.07853946 -0.07843626 0.9938205
v -0.0264693 0.43443 0.0723409
vt 0.921057 0.850762
vn 0.9528227 0.137086 -0.2708069
v -0.0506476 0.495805 0.0801969
vt 0.918763 0.856586
vt 0.917352 0.84644
v 0.131135 0.002926613 0.1004143
vt 0.640982 0.896538
vn 0.4485944 -0.748877 0.4877974
vt 0.542894 1.24428
vt 0.437641 1.23347
vt 0.563071 1.22818
vt 0.439718 1.21549
v -0.131135 0.002926613 0.1004143
vn -0.448595 -0.7488763 0.487798
v 0.035 0.370327 0.178758
vt 0.623667 0.938623
vn 0 0 -1
v 0.035 0.413451 0.221881
vt 0.623667 0.943406
v 0.0781232 0.370327 0.221881
vt 0.62845 0.938623
vn 1 0 0
v -0.00812324 0.370327 0.221881
vt 0.618885 0.938623
vn -1 0 0
v 0.035 0.327204 0.221881
vt 0.623667 0.933841
v 0.035 0.370327 0.265004
vn 0 0 1
v -0.035 0.370327 0.178758
vt 0.616959 0.938623
v -0.035 0.413451 0.221881
vt 0.616959 0.943406
v 0.00812324 0.370327 0.221881
vt 0.621741 0.938623
v -0.0781232 0.370327 0.221881
vt 0.612176 0.938623
v -0.035 0.327204 0.221881
vt 0.616959 0.933841
v -0.035 0.370327 0.265004
vt 0.937187 0.539325
vt 0.253734 0.51999
vt 0.937187 0.275578
o merged_0_0_node
g polygon_0
usemtl phong2_mat_id
f 1/1/1 2/2/2 3/3/3
f 1/1/1 4/4/4 2/2/2
f 1/1/1 3/3/3 5/5/5
f 1/1/1 6/6/6 4/4/4
f 1/1/1 5/5/5 7/7/7
f 1/1/1 8/8/8 6/6/6
f 1/1/1 7/7/7 9/9/9
f 1/1/1 9/9/9 8/8/8
f 2/2/2 10/10/10 3/3/3
f 2/2/2 4/4/4 11/11/11
f 2/2/2 12/12/12 10/10/10
f 2/2/2 11/11/11 12/12/12
f 5/5/5 13/13/13 7/7/7
f 5/5/5 3/3/3 13/13/13
f 3/3/3 10/10/10 13/13/13
f 6/6/6 8/8/8 14/14/14
f 6/6/6 14/14/14 4/4/4
f 4/4/4 14/14/14 11/11/11
f 9/9/9 7/7/7 15/15/15
f 9/9/9 16/16/16 8/8/8
f 9/9/9 15/15/15 17/17/17
f 9/9/9 17/17/17 16/16/16
f 8/8/8 16/16/16 14/14/14
f 7/7/7 13/13/13 15/15/15
f 12/12/12 18/18/18 10/10/10
f 12/12/12 11/11/11 18/18/18
f 14/14/14 16/16/16 18/18/18
f 14/14/14 18/18/18 11/11/11
f 17/17/17 15/15/15 18/18/18
f 17/17/17 18/18/18 16/16/16
f 13/13/13 10/10/10 19/19/19
f 13/13/13 19/19/19 15/15/15
f 19/19/19 10/10/10 18/18/18
f 19/19/19 18/18/18 15/15/15
f 20/20/20 21/21/21 22/22/22
f 20/20/20 23/23/23 21/21/21
f 20/20/20 22/22/22 24/21/24
f 20/20/20 25/24/25 23/23/23
f 20/20/20 24/21/24 26/23/26
f 20/20/20 27/25/27 25/24/25
f 20/20/20 26/23/26 28/24/28
f 20/20/20 28/24/28 27/25/27
f 21/21/21 29/26/29 22/22/22
f 21/21/21 30/27/30 29/26/29
f 22/22/22 29/26/29 24/21/24
f 25/24/25 27/25/27 31/28/31
f 28/24/28 32/28/32 27/25/27
f 29/26/29 33/27/33 24/21/24
f 31/28/31 27/25/27 34/29/34
f 34/29/34 27/25/27 32/28/32
f 35/30/35 36/31/36 37/32/37
f 35/30/35 38/33/38 36/31/36
f 35/30/35 37/32/37 39/34/39
f 35/30/35 40/35/40 38/33/38
f 35/30/35 39/34/39 41/36/41
f 35/30/35 42/37/42 40/35/40
f 35/30/35 41/36/41 42/37/42
f 36/31/36 43/38/43 37/32/37
f 36/31/36 38/33/38 44/39/44
f 36/31/36 45/40/45 43/38/43
f 36/31/36 44/39/44 45/40/45
f 39/34/39 46/41/46 41/36/41
f 39/34/39 37/32/37 47/42/47
f 39/34/39 47/42/47 46/41/46
f 37/32/37 43/38/43 47/42/47
f 40/35/40 48/43/48 38/33/38
f 40/35/40 49/44/49 48/43/48
f 42/37/42 41/36/41 50/45/50
f 42/37/42 50/45/50 51/46/51
f 42/37/42 51/46/51 52/47/52
f 44/39/44 53/48/53 45/40/45
f 44/39/44 54/49/54 53/48/53
f 44/39/44 55/50/55 54/49/54
f 46/41/46 47/42/47 56/51/56
f 46/41/46 57/52/57 41/36/41
f 46/41/46 56/51/56 57/52/57
f 43/38/43 45/40/45 56/51/56
f 43/38/43 56/51/56 47/42/47
f 41/36/41 57/52/57 50/45/50
f 49/44/49 58/53/58 48/43/48
f 49/44/49 52/47/52 58/53/58
f 58/53/58 51/46/51 54/49/54
f 58/53/58 54/49/54 55/50/55
f 58/53/58 55/50/55 48/43/48
f 58/53/58 52/47/52 51/46/51
f 54/49/54 50/45/50 53/48/53
f 54/49/54 51/46/51 50/45/50
f 45/40/45 59/54/59 56/51/56
f 45/40/45 53/48/53 59/54/59
f 59/54/59 57/52/57 56/51/56
f 59/54/59 50/45/50 57/52/57
f 59/54/59 53/48/53 50/45/50
f 60/55/60 61/56/61 62/57/62
f 60/55/60 63/58/63 61/56/61
f 60/55/60 62/57/62 33/59/33
f 60/55/60 30/60/30 63/58/63
f 60/55/60 33/59/33 29/61/29
f 60/55/60 29/61/29 30/60/30
f 61/56/61 64/62/64 62/57/62
f 61/56/61 63/58/63 65/63/65
f 61/56/61 66/64/66 64/62/64
f 61/56/61 65/63/65 66/64/66
f 33/59/33 62/57/62 67/65/67
f 33/59/33 67/65/67 68/66/68
f 33/59/33 68/66/68 24/67/24
f 62/57/62 64/62/64 67/65/67
f 30/60/30 69/68/69 63/58/63
f 30/60/30 70/69/70 69/68/69
f 30/60/30 21/70/21 70/69/70
f 63/58/63 69/68/69 65/63/65
f 66/64/66 71/56/71 64/62/64
f 66/64/66 65/63/65 71/56/71
f 68/66/68 72/71/72 24/67/24
f 68/66/68 67/65/67 73/72/73
f 21/70/21 74/73/74 70/69/70
f 21/70/21 75/74/75 74/73/74
f 21/70/21 23/75/23 75/74/75
f 69/68/69 76/58/76 65/63/65
f 69/68/69 70/69/70 77/76/77
f 69/68/69 77/76/77 76/58/76
f 65/63/65 76/58/76 71/56/71
f 64/62/64 78/57/78 67/65/67
f 64/62/64 71/56/71 78/57/78
f 67/65/67 78/57/78 73/72/73
f 72/71/72 79/77/79 24/67/24
f 72/71/72 80/78/80 79/77/79
f 72/71/72 81/79/81 80/78/80
f 74/73/74 75/74/75 82/80/80
f 74/73/74 82/80/80 83/81/82
f 23/75/23 84/82/83 75/74/75
f 75/74/75 84/82/83 82/80/80
f 77/76/77 31/83/31 76/58/76
f 77/76/77 85/84/84 31/83/31
f 78/57/78 32/85/32 73/72/73
f 78/57/78 34/61/34 32/85/32
f 78/57/78 86/55/85 34/61/34
f 34/61/34 86/55/85 76/58/76
f 34/61/34 76/58/76 31/83/31
f 24/67/24 79/77/79 26/86/26
f 81/79/81 87/87/86 80/78/80
f 83/81/82 82/80/80 88/88/86
f 84/82/83 89/89/81 82/80/80
f 82/80/80 89/89/81 88/88/86
f 85/84/84 25/90/25 31/83/31
f 73/72/73 32/85/32 90/91/87
f 79/77/79 91/92/88 26/86/26
f 79/77/79 80/78/80 91/92/88
f 87/87/86 92/93/82 80/78/80
f 80/78/80 92/93/82 91/92/88
f 32/85/32 28/94/28 90/91/87
f 93/95/89 52/96/52 49/97/49
f 93/95/89 42/98/42 52/96/52
f 93/95/89 49/97/49 40/99/40
f 93/95/89 40/99/40 42/98/42
f 94/95/90 48/97/48 55/96/55
f 94/95/90 38/99/38 48/97/48
f 94/95/90 55/96/55 44/98/44
f 94/95/90 44/98/44 38/99/38
f 95/100/91 96/101/86 97/102/92
f 95/100/91 98/103/93 96/101/86
f 95/100/91 97/102/92 99/104/66
f 95/100/91 99/104/66 98/103/93
f 96/101/86 100/100/94 97/102/92
f 96/101/86 98/103/93 100/100/94
f 100/100/94 99/104/66 97/102/92
f 100/100/94 98/103/93 99/104/66
f 101/105/91 102/106/86 103/107/92
f 101/105/91 104/108/93 102/106/86
f 101/105/91 103/107/92 105/109/66
f 101/105/91 105/109/66 104/108/93
f 102/106/86 106/105/94 103/107/92
f 102/106/86 104/108/93 106/105/94
f 106/105/94 105/109/66 103/107/92
f 106/105/94 104/108/93 105/109/66
f 86/110/85 78/111/78 71/112/71
f 86/110/85 71/112/71 76/111/76
vt 0.694516 0.759289
v 0.160037 0.43443 0.169384
vt 0.78168 0.891476
vn 0.6010367 0.002160839 0.7992185
vt 0.425077 0.765286
vt 0.230298 0.825037
v 0.058 0.43443 0.169384
vt 0.186488 0.891476
vn -0.473599 0.0615964 0.878584
vt 0.832488 0.766709
vt 0.965605 0.891476
vt 0.00256354 0.891476
vt 0.143598 0.980978
v 0.072943 0.495805 0.148817
vt 0.273652 0.980978
vn -0.5066962 0.5068352 0.6974074
v 0.145094 0.495805 0.148817
vt 0.694516 0.980978
vn 0.5066959 0.5068349 0.6974078
vt 0.824571 0.980978
vt 0.484084 1.01805
v -0.160038 0.43443 0.169384
vn -0.6010371 0.00215943 0.7992182
v -0.0580005 0.43443 0.169384
vn 0.4735978 0.06159767 0.8785846
v -0.145095 0.495805 0.148817
v -0.0729435 0.495805 0.148817
vt 0.0381788 0.858095
o merged_1_0_node
g polygon_0
usemtl TEX_ANIM_EYE_mat_id
f 77/113/77 107/114/95 85/115/84
f 85/115/84 107/114/95 25/116/25
f 107/114/95 108/117/96 25/116/25
f 77/113/77 70/118/70 107/114/95
f 107/114/95 70/118/70 74/119/74
f 84/120/83 108/117/96 89/121/81
f 89/121/81 108/117/96 109/122/97
f 108/117/96 107/114/95 109/122/97
f 109/122/97 107/114/95 110/123/98
f 107/114/95 74/119/74 110/123/98
f 110/123/98 74/119/74 83/124/82
f 89/121/81 109/122/97 88/125/86
f 109/122/97 110/123/98 88/125/86
f 110/123/98 83/124/82 88/125/86
f 73/113/73 111/114/99 68/118/68
f 68/118/68 111/114/99 72/119/72
f 73/113/73 90/115/87 111/114/99
f 90/115/87 28/116/28 111/114/99
f 28/116/28 112/117/100 111/114/99
f 72/119/72 111/114/99 81/124/81
f 81/124/81 111/114/99 113/123/97
f 111/114/99 112/117/100 113/123/97
f 113/123/97 112/117/100 114/122/98
f 112/117/100 91/120/88 114/122/98
f 114/122/98 91/120/88 92/121/82
f 81/124/81 113/123/97 87/125/86
f 113/123/97 114/122/98 87/125/86
f 114/122/98 92/121/82 87/125/86
f 25/116/25 108/117/96 23/126/23
f 23/126/23 108/117/96 84/120/83
f 28/116/28 26/126/26 112/117/100
f 112/117/100 26/126/26 91/120/88
