mtllib Machoke.mtl
v 0 0.535459 0.145666
vt 1 0.0905778
vn 0 -0.9968747 0.07899928
v -0.100324 0.484914 0.297081
vt 0.754821 0.00460319
vn -0.2763621 0.7105521 0.6471011
v 0 0.482992 0.316798
vt 1 0.00133298
vn 0 0.8757336 0.4827948
v -0.166586 0.518934 0.226603
vt 0.592884 0.0624705
vn -0.5362031 0.6021871 0.5914871
v 0.100324 0.484914 0.297081
vt 1.24518 0.00460319
vn 0.4051321 0.4779662 0.7793692
v -0.19478 0.552955 0.156125
vt 0.523982 0.120337
vn -0.8228389 -0.4778049 0.307634
v 0.166586 0.518934 0.226603
vt 1.40712 0.0624705
vn 0.574154 0.4591549 0.677882
v -0.0672048 0.5262951 0.325503
vt 0.828339 0.12075
vn -0.1551491 -0.9803024 0.1222131
v 0.19478 0.552955 0.156125
vt 1.47602 0.120337
vn 0.8228389 -0.4778049 0.307634
v 0 0.5237321 0.334275
vt 1 0.121647
vn 0 -0.9954468 0.09531899
v 0.0672048 0.5262951 0.325503
vt 1.15929 0.121059
vn 0.1551489 -0.9803024 0.1222129
v -0.137634 0.528857 0.278614
vt 0.656218 0.12047
vn -0.6088271 -0.5667071 0.555133
v 0.137634 0.528857 0.278614
vt 1.31657 0.120779
vn 0.6088267 -0.5667067 0.5551338
v 0 0.450404 0.307725
vt 1.275 0.378385
vn 0.03065748 -0.9554355 0.2936038
v -0.141676 0.442889 0.0812377
vn -0.340076 -0.9356871 -0.09401101
v 0 0.412402 0.0812377
vn 0 -0.9999643 0.008451853
v -0.13076 0.453474 0.25793
vn -0.4541539 -0.8498137 0.2675089
v 0.141676 0.442889 0.0812377
vn 0.348539 -0.932336 -0.0962813
v 0.13076 0.458235 0.189159
vn 0.4796679 -0.8352289 0.268908
v 0 0.447626 -0.0631953
vn -7.034763E-05 -0.8951903 -0.4456841
v -0.176214 0.479278 0.131633
vn -0.8419432 -0.4968971 0.210297
v -0.155686 0.514677 -0.0866637
vn -0.7307259 -0.4440189 -0.5185429
v -0.202048 0.5003201 0.0741059
vn -0.9405211 -0.29347 -0.171159
v 0.176214 0.479278 0.131633
vn 0.8162337 -0.5233978 0.2445759
v -0.213915 0.617507 0.0812377
vn -0.9954411 0.09537221 -0.00110395
v 0.156995 0.514677 -0.0866637
vn 0.7327682 -0.4418891 -0.5174792
v 0 0.523569 -0.142167
vn 2.8878E-05 -0.265471 -0.9641189
v 0.202048 0.5003201 0.0741059
vn 0.9419579 -0.290674 -0.168
v -0.138868 0.579805 0.268661
vn -0.7065227 0.3327869 0.6245627
v -0.16663 0.614022 -0.0981412
vn -0.8160033 0.06477752 -0.5744062
v -0.130555 0.6029581 0.236497
vn -0.7677792 0.2259131 0.5995652
v -0.137409 0.734094 -0.0834658
vn -0.6962383 0.4969382 -0.5179812
v -0.190499 0.734094 0.0812377
vn -0.9440616 0.3205029 0.07762437
v 0.213915 0.617507 0.0812377
vn 0.9952744 0.09710224 4.871962E-05
v 0.138868 0.579805 0.268661
vn 0.7065225 0.3327862 0.6245634
v -0.123963 0.79365 0.0812377
vn -0.391672 0.9200981 0.00353046
v -0.123091 0.734094 0.227997
vn -0.6953762 0.3935592 0.6013013
v 0 0.706071 -0.132971
vn 0 0.288088 -0.957604
v 0.130555 0.6029581 0.236497
vn 0.7677798 0.2259119 0.5995649
v 0.16663 0.614022 -0.0981412
vn 0.8156035 0.06710834 -0.5747064
v 0 0.778378 0.205385
vn 0 0.9121346 0.4098908
v 0 0.734094 0.264313
vn 0 0.4931342 0.8699533
v 0 0.775637 -0.0538485
vn 0 0.9043951 -0.4266961
v 0.137409 0.734094 -0.0834658
vn 0.6962383 0.4969382 -0.5179812
v 0.190499 0.734094 0.0812377
vn 0.9440616 0.3205029 0.07762427
v 0.123091 0.734094 0.227997
vn 0.6953768 0.3935589 0.6013008
v 0 0.814867 0.0812377
vn 0 0.9999436 -0.0106211
v 0.123963 0.79365 0.0812377
vn 0.391672 0.9200981 0.00353043
v 0.0718227 0.429459 -0.0832171
vn 0.440659 0.459699 -0.771036
v 0.0949272 0.232561 -0.17179
vn 0.4733491 0.247018 -0.8455311
v -0.0949271 0.232561 -0.17179
vn -0.4741192 0.2461341 -0.8453573
v 0.189854 0.208205 0
vn 0.9691456 -0.04936113 -0.2414961
v -0.0718226 0.429459 -0.0832172
vn -0.4406579 0.4596989 -0.7710367
v 0.143645 0.429459 0
vn 0.786996 0.488478 -0.376864
v 0 0.460406 0
v -0.189854 0.208205 0
vn -0.9694175 -0.05139957 -0.2399749
v 0.0718226 0.429459 0.116359
vn 0.04822028 0.5743867 0.8171626
v -0.143645 0.429459 0
vn -0.7869961 0.4884771 -0.3768651
v -0.0718227 0.429459 0.116359
vn -0.0479053 0.574613 0.817022
v 0 0.5831851 0.330193
vt 1.00006 0.23179
vn 0 0.223962 0.9745979
v 0 0.589118 0.31932
vt 1.00006 0.313981
vn 0 0.346508 0.938047
v -0.0694341 0.5791711 0.311993
vt 0.704358 0.238756
vn -0.352562 0.447588 0.821806
v 0.0694341 0.5791711 0.311993
vt 1.29575 0.238756
vn 0.3525622 0.4475872 0.8218064
vt 0.652063 0.136997
vt 1.34805 0.136997
vt 1.00006 0.149598
v -0.000613291 0.7982321 -0.103138
vt 0.0401781 0.0236254
vn 0.0105222 0.6052619 -0.7959569
v 0.0126621 0.668884 -0.0267303
vn 0.9969055 0.07746156 -0.01338229
v 0.00824341 0.675447 -0.104405
vn 0.9940181 0.05871261 -0.09209181
v -0.000571503 0.872964 -0.0685627
vn 0.02187429 0.9912316 -0.1303129
v -0.000662588 0.693518 -0.119873
vn 0.006235039 0.157803 -0.987451
v -0.0141003 0.669409 -0.0267261
vn -0.9967588 0.07933658 -0.0133264
v -0.00966397 0.6757311 -0.104402
vn -0.99384 0.0602922 -0.092989
v 0.0163983 0.6673731 0.0825283
vn 0.9965626 0.08284077 -0.0006242717
v -0.0178523 0.668115 0.0825359
vn -0.9963963 0.08481892 -0.0004005251
v -0.000552638 0.835215 0.205394
vn 0.02414661 0.9908813 0.1325561
v 0.0158252 0.6656951 0.203467
vn 0.9943935 0.09904115 0.03704738
v -0.000613291 0.772254 0.28261
vn 0.0114031 0.8055551 0.5924111
v 0.0110225 0.671281 0.281344
vn 0.9814248 0.101495 0.162801
v -0.0172633 0.6662201 0.203472
vn -0.9941547 0.101272 0.03742239
v -0.000662588 0.621683 0.306843
vn 0.004403851 0.158897 0.9872853
v -0.0124431 0.671564 0.281346
vn -0.9808992 0.103637 0.164609
v -0.0741131 0.7972181 -0.0938867
vn -0.07940389 0.574513 -0.8146349
v -0.0278125 0.675714 -0.0211599
vn 0.931145 0.364586 -0.0067853
v -0.0337792 0.680909 -0.0950919
vn 0.9389622 0.3406481 -0.04805041
v -0.100941 0.8684241 -0.0630801
vn -0.2487989 0.9596566 -0.13099
v -0.0470587 0.696059 -0.109815
vn -0.03319521 0.146786 -0.9886111
v -0.0537987 0.669294 -0.0211558
vn -0.9762617 -0.215544 -0.02130309
v -0.0511498 0.6765491 -0.0950892
vn -0.9629059 -0.225742 -0.147827
v -0.0238124 0.6752211 0.0828349
v -0.0570879 0.667073 0.0828422
vn -0.9775201 -0.210841 0.0007207681
v -0.0892717 0.832213 0.199781
vn -0.2177869 0.9668565 0.1332569
v -0.0239318 0.673452 0.197947
vn 0.9211231 0.386463 0.0466748
v -0.0730347 0.771382 0.273277
vn -0.2069039 0.7641418 0.6109649
v -0.0300163 0.6776041 0.272072
vn 0.9000901 0.3879881 0.19825
v -0.0560286 0.665395 0.197952
vn -0.9800222 -0.19644 0.03110981
v -0.0284666 0.626673 0.296343
vn 0.0420313 0.16988 0.984568
v -0.0527559 0.671805 0.272075
vn -0.969793 -0.196984 0.143871
v 0.0728788 0.7971591 -0.0938867
vn 0.09858672 0.5691411 -0.8163082
v 0.0522243 0.6687831 -0.0211599
vn 0.9758776 -0.2172719 -0.02135099
v 0.0496547 0.6762661 -0.0950919
vn 0.9626741 -0.227257 -0.147013
v 0.0997873 0.868343 -0.0630801
vn 0.290978 0.9476957 -0.131167
v 0.0457291 0.6960261 -0.109815
vn 0.0446463 0.143718 -0.988611
v 0.0265096 0.676216 -0.0211558
vn -0.9304264 0.3664171 -0.006723013
v 0.0324309 0.681175 -0.0950892
vn -0.9383596 0.3421492 -0.04914523
v 0.055442 0.6663561 0.0828349
vn 0.977125 -0.212665 0.000485539
v 0.0225503 0.6759371 0.0828422
v 0.0881546 0.832123 0.199781
vn 0.2644801 0.9550922 0.133601
v 0.0544542 0.664884 0.197947
vn 0.9796112 -0.198526 0.03081291
v 0.0718004 0.7713231 0.273277
vn 0.2284079 0.7577906 0.6112147
v 0.0512607 0.671522 0.272072
vn 0.9696209 -0.199058 0.142166
v 0.0226289 0.6739551 0.197952
vn -0.9201993 0.3885991 0.04716001
v 0.0271371 0.626639 0.296343
vn -0.034265 0.16765 0.9852509
v 0.0286681 0.6778691 0.272075
vn -0.8988118 0.3898949 0.200298
vt 1.53495 0.176175
v -0.089064 -0.0004495121 -0.00372108
vn -0.13794 -0.9855203 -0.09860163
v -0.0895306 0.14121 -0.175741
vn -0.4232529 -0.4108639 -0.8074948
v 4.32609E-05 0.08381601 -0.00036042
vn 0.00504941 -0.996076 -0.0883577
v -0.179022 0.115501 -0.000124573
vn -0.9435019 -0.331158 -0.0117756
v -0.0879743 0.114583 0.137563
vn -0.5611258 -0.5929487 0.5775377
v 0.0899773 0.0005653209 -0.00388779
vn 0.137016 -0.9858228 -0.09685069
v 0.0895631 0.114786 0.137529
vn 0.565953 -0.593841 0.571883
v 0.08951 0.141413 -0.175774
vn 0.421344 -0.409911 -0.808976
v 0.179059 0.115907 -0.00134962
vn 0.94401 -0.329349 -0.0193486
vt 1.75467 0.98564
v 0.0713833 0.208205 0.176411
vt 1.75 0.51436
vn 0.0141594 0.07560423 0.9970374
v 0.0949271 0.208205 0.172984
vt 2 0.51436
vn 0.4998829 -0.3023219 0.8116148
v -0.0698801 0.208205 0.176411
vt 0.25 0.51436
vn -0.0139287 0.07608371 0.9970042
vt 0.229373 0.98564
v -0.093424 0.208205 0.172984
vt 0 0.51436
vn -0.4968172 -0.3008531 0.8140393
v -0.0704627 0.5118151 0.294839
vt 0.0651807 0.00787067
vn 0 0 1
v -0.0850085 0.482724 0.294839
v -0.0559168 0.482724 0.294839
v 0.0670591 0.5118151 0.294839
v 0.0525132 0.482724 0.294839
v 0.081605 0.482724 0.294839
v 0.0910092 0.5014551 0.291604
v 0.105555 0.538316 0.291604
v 0.0764633 0.538316 0.291604
v -0.0983272 0.5014551 0.291604
v -0.0837813 0.538316 0.291604
v -0.112873 0.538316 0.291604
vn 0 0 -1
o merged_0_0_node
g polygon_0
usemtl mat_mune_mat_id
f 1/1/1 2/2/2 3/3/3
f 1/1/1 4/4/4 2/2/2
f 1/1/1 3/3/3 5/5/5
f 1/1/1 6/6/6 4/4/4
f 1/1/1 5/5/5 7/7/7
f 1/1/1 8/8/8 6/6/6
f 1/1/1 7/7/7 9/9/9
f 1/1/1 10/10/10 8/8/8
f 1/1/1 9/9/9 11/11/11
f 1/1/1 11/11/11 10/10/10
f 6/6/6 8/8/8 12/12/12
f 9/9/9 13/13/13 11/11/11
f 14/14/14 15/14/15 16/14/16
f 14/14/14 17/14/17 15/14/15
f 14/14/14 16/14/16 18/14/18
f 14/14/14 2/14/2 17/14/17
f 14/14/14 18/14/18 19/14/19
f 14/14/14 3/14/3 2/14/2
f 14/14/14 19/14/19 5/14/5
f 14/14/14 5/14/5 3/14/3
f 15/14/15 20/14/20 16/14/16
f 15/14/15 17/14/17 21/14/21
f 15/14/15 22/14/22 20/14/20
f 15/14/15 21/14/21 23/14/23
f 15/14/15 23/14/23 22/14/22
f 16/14/16 20/14/20 18/14/18
f 2/14/2 4/14/4 17/14/17
f 17/14/17 4/14/4 21/14/21
f 19/14/19 7/14/7 5/14/5
f 19/14/19 18/14/18 24/14/24
f 19/14/19 24/14/24 7/14/7
f 23/14/23 25/14/25 22/14/22
f 23/14/23 21/14/21 6/14/6
f 23/14/23 6/14/6 25/14/25
f 21/14/21 4/14/4 6/14/6
f 20/14/20 26/14/26 18/14/18
f 20/14/20 22/14/22 27/14/27
f 20/14/20 27/14/27 26/14/26
f 24/14/24 9/14/9 7/14/7
f 24/14/24 18/14/18 28/14/28
f 24/14/24 28/14/28 9/14/9
f 18/14/18 26/14/26 28/14/28
f 25/14/25 6/14/6 29/14/29
f 25/14/25 30/14/30 22/14/22
f 25/14/25 29/14/29 31/14/31
f 25/14/25 32/14/32 30/14/30
f 25/14/25 33/14/33 32/14/32
f 22/14/22 30/14/30 27/14/27
f 9/14/9 28/14/28 34/14/34
f 9/14/9 34/14/34 35/14/35
f 9/14/9 35/14/35 13/14/13
f 28/14/28 26/14/26 34/14/34
f 6/14/6 12/14/12 29/14/29
f 33/14/33 36/14/36 32/14/32
f 33/14/33 37/14/37 36/14/36
f 30/14/30 38/14/38 27/14/27
f 30/14/30 32/14/32 38/14/38
f 35/14/35 34/14/34 39/14/39
f 26/14/26 27/14/27 40/14/40
f 26/14/26 40/14/40 34/14/34
f 27/14/27 38/14/38 40/14/40
f 37/14/37 41/14/41 36/14/36
f 37/14/37 42/14/42 41/14/41
f 32/14/32 43/14/43 38/14/38
f 32/14/32 36/14/36 43/14/43
f 34/14/34 40/14/40 44/14/44
f 34/14/34 44/14/44 45/14/45
f 38/14/38 43/14/43 44/14/44
f 38/14/38 44/14/44 40/14/40
f 42/14/42 46/14/46 41/14/41
f 36/14/36 47/14/47 43/14/43
f 36/14/36 41/14/41 47/14/47
f 45/14/45 44/14/44 48/14/48
f 45/14/45 48/14/48 46/14/46
f 48/14/48 43/14/43 47/14/47
f 48/14/48 47/14/47 41/14/41
f 48/14/48 44/14/44 43/14/43
f 48/14/48 41/14/41 46/14/46
f 49/14/49 50/14/50 51/14/51
f 49/14/49 52/14/52 50/14/50
f 49/14/49 51/14/51 53/14/53
f 49/14/49 54/14/54 52/14/52
f 49/14/49 53/14/53 55/14/47
f 49/14/49 55/14/47 54/14/54
f 51/14/51 56/14/55 53/14/53
f 55/14/47 57/14/56 54/14/54
f 55/14/47 53/14/53 58/14/57
f 55/14/47 59/14/58 57/14/56
f 55/14/47 58/14/57 59/14/58
f 58/14/57 53/14/53 56/14/55
f 60/15/59 61/16/60 62/17/61
f 60/15/59 63/18/62 61/16/60
f 60/15/59 62/17/61 8/19/8
f 60/15/59 11/20/11 63/18/62
f 60/15/59 8/19/8 10/21/10
f 60/15/59 10/21/10 11/20/11
f 64/22/63 65/22/64 66/22/65
f 64/22/63 67/22/66 65/22/64
f 64/22/63 66/22/65 68/22/67
f 64/22/63 69/22/68 67/22/66
f 64/22/63 68/22/67 70/22/69
f 64/22/63 70/22/69 69/22/68
f 65/22/64 67/22/66 71/22/70
f 69/22/68 72/22/71 67/22/66
f 71/22/70 67/22/66 73/22/72
f 71/22/70 73/22/72 74/22/73
f 67/22/66 72/22/71 73/22/72
f 74/22/73 73/22/72 75/22/74
f 74/22/73 75/22/74 76/22/75
f 72/22/71 77/22/76 73/22/72
f 73/22/72 77/22/76 75/22/74
f 76/22/75 75/22/74 78/22/77
f 77/22/76 79/22/78 75/22/74
f 75/22/74 79/22/78 78/22/77
f 80/22/79 81/22/80 82/22/81
f 80/22/79 83/22/82 81/22/80
f 80/22/79 82/22/81 84/22/83
f 80/22/79 85/22/84 83/22/82
f 80/22/79 84/22/83 86/22/85
f 80/22/79 86/22/85 85/22/84
f 81/22/80 83/22/82 87/22/80
f 85/22/84 88/22/86 83/22/82
f 87/22/80 83/22/82 89/22/87
f 87/22/80 89/22/87 90/22/88
f 83/22/82 88/22/86 89/22/87
f 90/22/88 89/22/87 91/22/89
f 90/22/88 91/22/89 92/22/90
f 88/22/86 93/22/91 89/22/87
f 89/22/87 93/22/91 91/22/89
f 92/22/90 91/22/89 94/22/92
f 93/22/91 95/22/93 91/22/89
f 91/22/89 95/22/93 94/22/92
f 96/22/94 97/22/95 98/22/96
f 96/22/94 99/22/97 97/22/95
f 96/22/94 98/22/96 100/22/98
f 96/22/94 101/22/99 99/22/97
f 96/22/94 100/22/98 102/22/100
f 96/22/94 102/22/100 101/22/99
f 97/22/95 99/22/97 103/22/101
f 101/22/99 104/22/99 99/22/97
f 103/22/101 99/22/97 105/22/102
f 103/22/101 105/22/102 106/22/103
f 99/22/97 104/22/99 105/22/102
f 106/22/103 105/22/102 107/22/104
f 106/22/103 107/22/104 108/22/105
f 104/22/99 109/22/106 105/22/102
f 105/22/102 109/22/106 107/22/104
f 108/22/105 107/22/104 110/22/107
f 109/22/106 111/22/108 107/22/104
f 107/22/104 111/22/108 110/22/107
f 61/23/60 39/23/39 46/23/46
f 61/23/60 63/23/62 39/23/39
f 61/23/60 46/23/46 42/23/42
f 61/23/60 42/23/42 37/23/37
f 61/23/60 37/23/37 31/23/31
f 61/23/60 31/23/31 62/23/61
f 63/23/62 35/23/35 39/23/39
f 63/23/62 13/23/13 35/23/35
f 63/23/62 11/23/11 13/23/13
f 31/23/31 29/23/29 62/23/61
f 29/23/29 12/23/12 62/23/61
f 12/23/12 8/23/8 62/23/61
f 112/14/109 113/14/110 114/14/111
f 112/14/109 115/14/112 113/14/110
f 112/14/109 114/14/111 116/14/113
f 112/14/109 116/14/113 115/14/112
f 114/14/111 117/14/114 118/14/115
f 114/14/111 119/14/116 117/14/114
f 118/14/115 117/14/114 120/14/117
f 120/14/117 117/14/114 119/14/116
f 57/24/56 121/25/118 122/26/119
f 57/24/56 123/27/120 121/25/118
f 57/24/56 59/28/58 123/27/120
f 59/28/58 124/29/121 123/27/120
f 125/30/122 126/30/122 127/30/122
f 128/30/122 129/30/122 130/30/122
f 131/30/122 132/30/122 133/30/122
f 134/30/122 135/30/122 136/30/122
f 125/30/123 127/30/123 126/30/123
f 128/30/123 130/30/123 129/30/123
f 131/30/123 133/30/123 132/30/123
f 134/30/123 136/30/123 135/30/123
vt 0.720468 0.00980312
vt 0.720528 1
vt 0.45703 0.0242583
vt 0.465116 1
vt 0.470468 0.00980312
vt 0.709032 0
vt 0.470528 1
vt 0.726356 1
vt 0.708798 0.00216779
vt 0.726492 1
v 0.0673709 0.11476 0.140961
vt 0.742728 0.00189682
vn 0.009773429 -0.82625 0.563219
vt 0.756045 1
vt 0.497586 0.014139
vt 0.472257 1
vt 0.747586 0.014139
vt 0.458714 0.0264263
vt 0.722257 1
vt 0.466841 1
vt 0.710769 -0.00383776
vt 1.03813 -0.00160426
vt 0.874546 -0.367384
vt 1.03822 -0.0265955
vt 0.997647 -0.0268747
vt 0.713615 -0.0288288
v -0.0657821 0.114608 0.140986
vt 0.754191 -0.0285496
vn -0.00796704 -0.8262849 0.563196
vt 0.716841 1
vt 0.708714 0.0264263
vt 0.474155 1
vt 0.482243 0.0242583
vt 0.992899 0.00162649
vt 1 1
vt 0.757252 0
vt 0.75 1
vt 0.742963 0.000270974
vt 0.755909 1
vt 0.424817 1.26044
v -0.261617 0.33991 0.181695
vt 0.113327 -0.587409
vn -0.8256432 0.115234 0.5522992
vt 0.174626 1.29075
v 0.261617 0.33991 0.181695
vn 0.8262233 0.118719 0.5506912
vt 0.127571 1.51111
vt 0.398579 0.52262
vt 0.127587 -0.50308
vt -0.221757 0.828093
vt -0.172256 0.404786
vt -0.221757 0.827928
o merged_1_0_node
g polygon_0
usemtl mat_body_mat_id
f 115/31/112 56/32/55 113/33/110
f 113/33/110 56/32/55 51/34/51
f 115/35/112 116/36/113 56/37/55
f 56/37/55 116/36/113 124/38/121
f 118/39/115 122/40/119 137/41/124
f 137/41/124 122/40/119 121/42/118
f 120/43/117 52/44/52 118/39/115
f 118/39/115 52/44/52 122/40/119
f 120/45/117 119/46/116 52/47/52
f 52/47/52 119/46/116 50/48/50
f 113/49/110 119/50/116 114/51/111
f 118/52/115 137/53/124 114/51/111
f 116/54/113 114/51/111 138/55/125
f 137/53/124 138/55/125 114/51/111
f 50/56/50 119/57/116 51/58/51
f 51/58/51 119/57/116 113/59/110
f 137/60/124 121/61/118 138/62/125
f 138/62/125 121/61/118 123/63/120
f 116/36/113 138/64/125 124/38/121
f 124/38/121 138/64/125 123/65/120
f 58/66/57 139/67/126 59/68/58
f 57/68/56 140/67/127 54/66/54
f 56/69/55 124/70/121 139/71/126
f 139/67/126 124/72/121 59/68/58
f 56/69/55 139/71/126 58/73/57
f 122/70/119 52/69/52 140/71/127
f 140/71/127 52/69/52 54/73/54
f 122/74/119 140/67/127 57/68/56
vt 1.04188 0.977269
vt 0.0966275 0.977269
vt 1.04188 0.805763
vt 0.0418814 0.78436
o merged_2_0_node
g polygon_0
usemtl TEX_ANIM_EYE_mat_id
f 45/75/45 46/76/46 34/77/34
f 34/77/34 46/76/46 39/78/39
f 31/78/31 37/76/37 25/77/25
f 25/77/25 37/76/37 33/75/33
