mtllib Bonsly.mtl
v 0.027042 0.414595 -0.0057062
vt -1.37632 0.713825
vn 0.4612129 0.7854159 -0.4128009
v 0.00111926 0.484432 0.0138153
vt -1.48156 0.832748
vn 0.04384261 0.3741251 -0.9263414
v 0.0114754 0.484379 0.0157737
vt -1.45236 0.832548
vn 0.6837141 0.3638441 -0.6325761
v 0.00273433 0.415787 -0.0183922
vt -1.47302 0.718909
vn 0.01763009 0.7962645 -0.6046916
v 0.0132277 0.483312 0.024715
vt -1.45373 0.828553
vn 0.932767 0.274212 0.233995
v 0.0759337 0.363227 -0.0759441
vt -1.24912 0.512511
vn 0.5234252 0.6586022 -0.5406192
v 0.0381629 0.41136 0.0199105
vt -1.33208 0.700027
vn 0.6418397 0.7604917 0.09845857
v 0.105888 0.363236 0.00381764
vt -1.15692 0.512542
vn 0.7694239 0.6387379 0.0009438788
v -0.000630922 0.541694 0.0295735
vt -1.48647 1
vn -0.1306439 0.8355697 0.5336248
v -0.00945768 0.484132 0.014757
vt -1.51121 0.831624
vn -0.5944589 0.3503319 -0.7237998
v 0.138723 0.308544 0.00267522
vt -1.05585 0.332047
vn 0.9087355 0.4169242 -0.01934171
v -0.000125151 0.363235 -0.0996473
vt -1.48322 0.512538
vn 0.0006011167 0.6659158 -0.7460268
v 0.0980787 0.308544 -0.0993752
vt -1.18096 0.332047
vn 0.6341633 0.4191541 -0.6497282
v -0.000164851 0.308544 -0.132749
vt -1.48334 0.332047
vn 0.00114778 0.4100958 -0.9120417
v 0.0174075 0.407844 0.0436362
vt -1.38625 0.685027
vn 0.382542 0.7001711 0.6028451
v 0.0759337 0.363227 0.0825911
vn 0.620013 0.63781 0.456927
v -0.0149594 0.483045 0.0238535
vt -1.51407 0.827554
vn -0.9564503 0.2651651 0.122026
v -0.0227248 0.413866 -0.0083242
vt -1.57431 0.710717
vn -0.4239521 0.7915392 -0.4401481
v 0.193577 0.177038 0.000258882
vt -0.987057 0.000228941
vn 0.7731606 0.6336917 -0.02564089
v 0.0998801 0.308464 0.0995473
vt -1.17541 0.331785
vn 0.7294849 0.4134649 0.544884
v -0.076184 0.363227 -0.0759441
vt -1.71733 0.512511
vn -0.5177591 0.6655952 -0.5375021
v -9.53412E-05 0.176995 -0.188457
vt -1.48347 0.000108957
vn 0.00101829 0.6013649 -0.7989739
v -0.0988044 0.308544 -0.0995906
vt -1.78695 0.332047
vn -0.6294538 0.4231268 -0.6517298
v 0.00737964 0.482244 0.0336563
vt -1.45511 0.824559
vn 0.337034 0.165898 0.926761
v -0.0363723 0.410269 0.0159896
vt -1.6286 0.695373
vn -0.6283432 0.7759522 0.05552461
v -0.00804561 0.481998 0.0326396
vt -1.51397 0.823635
vn -0.4228321 0.146107 0.8943522
v -0.0180839 0.407115 0.0410182
vt -1.58424 0.68192
vn -0.4282588 0.7043087 0.5661657
v 0.146958 0.177026 0.138788
vt -1.10655 0.000196278
vn 0.5679582 0.6962082 0.4389961
v 0.135489 0.177024 -0.139582
vt -1.13594 0.00019002
vn 0.543391 0.6247221 -0.560757
v -0.000125151 0.363227 0.11522
vt -1.48322 0.512511
vn -0.00138339 0.6827628 0.7306388
v 0.0416826 0.308497 0.131387
vt -1.35454 0.331892
vn 0.3728289 0.3803379 0.8463697
v -0.14022 0.308544 0.00267522
vt -1.91443 0.332047
vn -0.9050792 0.4248331 -0.018665
v -0.136631 0.176966 -0.1401
vt -1.83342 3.03984E-05
vn -0.5444072 0.6183952 -0.5667523
v -0.19657 0.176955 0.000258882
vt -1.98706 0
vn -0.7778381 0.6279531 -0.0253524
v -0.106139 0.363236 0.00381764
vt -1.80953 0.512542
vn -0.7585619 0.651601 8.580439E-05
v -0.076184 0.363227 0.0825911
vn -0.6118678 0.6507317 0.4496288
v -0.148099 0.176971 0.139392
vt -1.86282 4.34518E-05
vn -0.570139 0.689946 0.446
v -0.0418976 0.308497 0.131387
vt -1.61179 0.331892
vn -0.3694529 0.3827829 0.8467478
v -0.100368 0.308464 0.0996732
vt -1.79176 0.331785
vn -0.7237029 0.4188809 0.5484459
v -0.000107459 0.308497 0.141634
vt 0.5 0.457467
vn -3.68102E-05 0.432141 0.9018061
v -5.43256E-05 0.244376 0.172196
vt 0.500348 -0.162404
vn 0.00149144 0.3765879 0.9263797
vt 1.32278 0.457467
vt -0.322779 0.457467
vt 0.499652 1.02814
v 0.135481 0.118846 -0.133032
vt 3.23564 0.204116
vn 0.3436459 -0.8469207 -0.4057499
v 0 0.04383601 -0.117786
vt 2.8074 0.0809478
vn 0 -0.8336162 -0.5523441
v 0 0.118906 -0.182172
vt 2.8074 0.204191
vn 0 -0.8230851 -0.5679181
v 0.0957423 0.04383601 -0.083287
vt 3.07299 0.0809478
vn 0.3666361 -0.8007222 -0.4737321
v 0.156462 0.063188 0
vt 3.24143 0.116683
vn 0.727998 -0.6849159 -0.03015409
v 0.201611 0.118816 -0.000309181
vt 3.37676 0.20408
vn 0.6100399 -0.7911889 -0.04326079
v -0.135481 0.118846 -0.133032
vt 2.37917 0.204116
vn -0.343646 -0.846921 -0.405749
v 0.155982 0.118846 0.133136
vt 3.30045 0.204116
vn 0.2835129 -0.8585618 0.4271909
v -0.0957423 0.04383601 -0.083287
vt 2.54182 0.0809478
vn -0.3666361 -0.8007222 -0.4737321
v 0.0957423 0.04383601 0.083287
vn 0.3109089 -0.7776588 0.5464269
v 0 0.118846 0.188261
vt 2.8074 0.204116
vn 0 -0.833302 0.552818
v -0.156462 0.063188 0
vt 2.37338 0.116683
vn -0.727998 -0.6849159 -0.03015409
v 0 0.04383601 0.117786
vn 0 -0.7859554 0.6182832
v -0.0957423 0.04383601 0.083287
vn -0.3109089 -0.7776588 0.5464269
v -0.155982 0.118846 0.133136
vt 2.31436 0.204116
vn -0.2835129 -0.8585618 0.4271909
v -0.201611 0.118816 -0.000309181
vt 2.23805 0.20408
vn -0.6100399 -0.7911889 -0.04326069
v 0 0.127349 -0.225686
vt 2.8074 0.232527
vn 0 -0.336873 -0.9415501
v 0.161186 0.165689 -0.163827
vt 3.25453 0.305963
vn 0.5992029 0.4844549 -0.6373848
v 0.16399 0.127504 -0.161382
vt 3.26231 0.232714
vn 0.6699579 -0.3431859 -0.6583159
v 0 0.165688 -0.225311
vt 2.8074 0.305961
vn 0.0002803671 0.4665282 -0.8845063
v -0.161186 0.165689 -0.163827
vt 2.36028 0.305963
vn -0.6031848 0.4714518 -0.6433517
v -0.16399 0.127504 -0.161382
vt 2.3525 0.232714
vn -0.6699579 -0.3431859 -0.6583159
v 0.23223 0.165681 -0.000174459
vt 3.45161 0.305947
vn 0.8391927 0.5405038 -0.06009468
v 0.231194 0.127448 0.000124198
vt 3.44873 0.232647
vn 0.9660202 -0.248501 -0.07107931
v -0.23223 0.165681 -0.000174459
vt 2.1632 0.305947
vn -0.851044 0.521543 -0.0609675
v -0.231194 0.127448 0.000124198
vt 2.16608 0.232647
vn -0.96602 -0.248502 -0.0710792
v 0.188805 0.127504 0.156025
vt 3.33115 0.232714
vn 0.6455098 -0.4557228 0.6128898
v 0.185577 0.165689 0.1625
vt 3.32219 0.305963
vn 0.603302 0.459134 0.652091
v -0.188805 0.127504 0.156025
vt 2.28366 0.232714
vn -0.6455098 -0.4557239 0.6128889
v 0 0.127504 0.223277
vt 2.8074 0.232714
vn 0 -0.5654011 0.8248161
v 0 0.165689 0.229882
vn 0.0003221691 0.3948342 0.9187524
v -0.185577 0.165689 0.1625
vt 2.29262 0.305963
vn -0.6076917 0.4448018 0.6579227
v -0.0630813 0.477895 0.0214077
vt 1.3194 0.48312
vn -0.124865 -0.9921738 0
v -0.00788987 0.470949 0.00937724
vt 1.42068 0.44936
v -0.00788987 0.470949 0.0334382
v -0.00788987 0.491787 0.0214077
vt 1.42068 0.55064
vn -0.124864 0.4960862 0.8592482
v 0.0630813 0.477895 0.0214077
vn 0.124865 -0.9921738 0
v 0.00788987 0.470949 0.00937724
v 0.00788987 0.470949 0.0334382
v 0.00788987 0.491787 0.0214077
vn 0.124864 0.4960862 0.8592482
o merged_0_0_node
g polygon_0
usemtl mat_moyou_mat_id
f 1/1/1 2/2/2 3/3/3
f 1/1/1 4/4/4 2/2/2
f 1/1/1 3/3/3 5/5/5
f 1/1/1 6/6/6 4/4/4
f 1/1/1 5/5/5 7/7/7
f 1/1/1 8/8/8 6/6/6
f 1/1/1 7/7/7 8/8/8
f 2/2/2 9/9/9 3/3/3
f 2/2/2 4/4/4 10/10/10
f 2/2/2 10/10/10 9/9/9
f 3/3/3 9/9/9 5/5/5
f 6/6/6 8/8/8 11/11/11
f 6/6/6 12/12/12 4/4/4
f 6/6/6 11/11/11 13/13/13
f 6/6/6 14/14/14 12/12/12
f 6/6/6 13/13/13 14/14/14
f 7/7/7 5/5/5 15/15/15
f 7/7/7 16/6/16 8/8/8
f 7/7/7 15/15/15 16/6/16
f 10/10/10 17/16/17 9/9/9
f 10/10/10 4/4/4 18/17/18
f 10/10/10 18/17/18 17/16/17
f 4/4/4 12/12/12 18/17/18
f 11/11/11 19/18/19 13/13/13
f 11/11/11 8/8/8 20/19/20
f 11/11/11 20/19/20 19/18/19
f 8/8/8 16/6/16 20/19/20
f 14/14/14 21/20/21 12/12/12
f 14/14/14 13/13/13 22/21/22
f 14/14/14 23/22/23 21/20/21
f 14/14/14 22/21/22 23/22/23
f 12/12/12 21/20/21 18/17/18
f 5/5/5 24/23/24 15/15/15
f 5/5/5 9/9/9 24/23/24
f 17/16/17 18/17/18 25/24/25
f 17/16/17 26/25/26 9/9/9
f 17/16/17 25/24/25 27/26/27
f 17/16/17 27/26/27 26/25/26
f 26/25/26 27/26/27 15/15/15
f 26/25/26 15/15/15 24/23/24
f 26/25/26 24/23/24 9/9/9
f 19/18/19 20/19/20 28/27/28
f 19/18/19 29/28/29 13/13/13
f 13/13/13 29/28/29 22/21/22
f 16/6/16 15/15/15 30/29/30
f 16/6/16 31/30/31 20/19/20
f 16/6/16 30/29/30 31/30/31
f 15/15/15 27/26/27 30/29/30
f 23/22/23 32/31/32 21/20/21
f 23/22/23 22/21/22 33/32/33
f 23/22/23 34/33/34 32/31/32
f 23/22/23 33/32/33 34/33/34
f 18/17/18 35/34/35 25/24/25
f 18/17/18 21/20/21 35/34/35
f 21/20/21 32/31/32 35/34/35
f 27/26/27 36/20/36 30/29/30
f 27/26/27 25/24/25 36/20/36
f 25/24/25 35/34/35 36/20/36
f 34/33/34 37/35/37 32/31/32
f 30/29/30 36/20/36 38/36/38
f 35/34/35 32/31/32 39/37/39
f 35/34/35 39/37/39 36/20/36
f 39/37/39 32/31/32 37/35/37
f 39/37/39 38/36/38 36/20/36
f 40/38/40 41/39/41 31/40/31
f 40/38/40 38/41/38 41/39/41
f 40/38/40 31/40/31 30/42/30
f 40/38/40 30/42/30 38/41/38
f 42/43/42 43/44/43 44/45/44
f 42/43/42 45/46/45 43/44/43
f 42/43/42 46/47/46 45/46/45
f 42/43/42 47/48/47 46/47/46
f 44/45/44 43/44/43 48/49/48
f 47/48/47 49/50/49 46/47/46
f 43/44/43 50/51/50 48/49/48
f 49/50/49 51/46/51 46/47/46
f 49/50/49 52/52/52 51/46/51
f 50/51/50 53/53/53 48/49/48
f 52/52/52 54/44/54 51/46/51
f 52/52/52 55/51/55 54/44/54
f 52/52/52 56/54/56 55/51/55
f 55/51/55 56/54/56 53/53/53
f 48/49/48 53/53/53 57/55/57
f 57/55/57 53/53/53 56/54/56
f 58/56/58 59/57/59 60/58/60
f 58/56/58 61/59/61 59/57/59
f 58/56/58 62/60/62 61/59/61
f 58/56/58 63/61/63 62/60/62
f 60/58/60 59/57/59 64/62/64
f 60/58/60 64/62/64 65/63/65
f 63/61/63 66/64/66 62/60/62
f 63/61/63 67/65/67 66/64/66
f 64/62/64 68/66/68 65/63/65
f 64/62/64 69/67/69 68/66/68
f 67/65/67 70/68/70 66/64/66
f 69/67/69 71/69/71 68/66/68
f 69/67/69 72/59/72 71/69/71
f 70/68/70 73/70/73 66/64/66
f 70/68/70 71/69/71 73/70/73
f 73/70/73 71/69/71 72/59/72
f 74/71/74 75/72/74 76/72/74
f 74/71/74 77/73/75 75/72/74
f 74/71/74 76/72/74 77/73/75
f 78/71/76 79/72/76 80/72/76
f 78/71/76 81/73/77 79/72/76
f 78/71/76 80/72/76 81/73/77
vt 0.500817 0.807891
vt 0.500817 -0.163786
vt 0.166949 -0.170857
vt 0.000817418 0.819282
vt 0.0569317 -0.174353
vt 0.116427 -0.170857
vt 1.00082 0.819282
vt 0.885208 -0.170857
vt 0.944703 -0.174353
vt 0.834686 -0.170857
vt 0.146159 0.825647
vt 1.00323 -1.02499
vt 0.850266 -1.02398
vt 0.920006 0.340757
vt 0.79494 0.339054
vt 0.902781 -1.02398
vt 0.794816 0.339472
vt 0.503227 -1.02398
v -9.53408E-05 0.176999 0.196584
vt 0.503022 0.336081
vn 0.0008687447 0.7906578 0.6122578
vt 0.103673 -1.02398
vt 0.209181 0.332495
vt 0.00322688 -1.02499
vt 0.0800037 0.33074
vt 0.156188 -1.02398
vt 0.209055 0.332071
vt 0.503227 -1.0241
vt 0.503022 0.335508
vt 0.092491 0.825647
vt 0.500817 -0.170857
vt 0.500817 0.825647
vt 0.909144 0.825647
vt 0.855476 0.825647
v -0.000556258 0.558144 -0.0437823
vt 0.498676 2.31003
vn 0 -0.214382 -0.9767499
v -0.0706879 0.558144 0.0263493
vt 0.315632 2.31003
vn -0.9767499 -0.214382 0
v -0.000556258 0.639125 -0.0437823
vt 0.498676 2.59753
vn 0 0.214382 -0.9767499
v -0.0706879 0.639125 0.0263493
vt 0.315632 2.59753
vn -0.9767499 0.214382 0
v -0.00055627 0.558144 0.096481
vn 0 -0.214382 0.9767499
v -0.00055627 0.639125 0.096481
vn 0 0.214382 0.9767499
v 0.0695754 0.558144 0.0263493
vt 0.68172 2.31003
vn 0.9767499 -0.214382 0
v 0.0695754 0.639125 0.0263493
vt 0.68172 2.59753
vn 0.9767499 0.214382 0
v -0.000556267 0.517654 0.0263493
vt 0.498676 2.16628
vn 0 -1 0
v -0.000556267 0.679616 0.0263493
vt 0.498676 2.74128
vn 0 1 0
v -0.121488 0.438806 -0.04933
vt 0.183044 1.72381
v -0.191619 0.438806 0.0208016
vt 0 1.72381
v -0.121488 0.519787 -0.04933
vt 0.183044 2.01131
v -0.191619 0.519787 0.0208016
vt 0 2.01131
v -0.121488 0.438806 0.0909333
v -0.121488 0.519787 0.0909333
v -0.0513559 0.438806 0.0208016
vt 0.366088 1.72381
v -0.0513559 0.519787 0.0208016
vt 0.366088 2.01131
v -0.121488 0.398316 0.0208016
vt 0.183044 1.58006
v -0.121488 0.560278 0.0208016
vt 0.183044 2.15507
v 0.12139 0.438436 -0.048515
vt 0.816956 1.88504
v 0.0512581 0.438436 0.0216166
vt 0.633911 1.88504
v 0.12139 0.519417 -0.048515
vt 0.816956 2.17254
v 0.0512581 0.519417 0.0216166
vt 0.633911 2.17254
v 0.12139 0.438436 0.0917483
v 0.12139 0.519417 0.0917483
v 0.191521 0.438436 0.0216166
vt 1 1.88504
v 0.191521 0.519417 0.0216166
vt 1 2.17254
v 0.12139 0.397946 0.0216166
vt 0.816956 1.74128
v 0.12139 0.559908 0.0216166
vt 0.816956 2.31629
o merged_1_0_node
g polygon_0
usemtl mat_body_mat_id
f 58/74/58 44/75/44 48/76/48
f 67/77/67 48/76/48 57/78/57
f 67/77/67 57/78/57 56/79/56
f 65/80/65 49/81/49 47/82/47
f 65/80/65 47/82/47 42/83/42
f 48/76/48 63/84/63 58/74/58
f 64/85/64 59/86/59 19/87/19
f 19/87/19 59/86/59 29/88/29
f 69/89/69 28/90/28 72/91/72
f 72/91/72 28/90/28 82/92/78
f 73/93/73 72/91/72 37/94/37
f 37/94/37 72/91/72 82/92/78
f 66/95/66 73/93/73 34/96/34
f 34/96/34 73/93/73 37/94/37
f 62/97/62 33/98/33 61/99/61
f 61/99/61 33/98/33 22/100/22
f 22/100/22 29/88/29 61/99/61
f 61/99/61 29/88/29 59/86/59
f 28/90/28 69/89/69 19/87/19
f 19/87/19 69/89/69 64/85/64
f 33/98/33 62/97/62 34/96/34
f 34/96/34 62/97/62 66/95/66
f 58/74/58 42/83/42 44/75/44
f 48/76/48 67/77/67 63/84/63
f 67/77/67 56/79/56 70/101/70
f 52/102/52 71/103/71 56/79/56
f 56/79/56 71/103/71 70/101/70
f 52/102/52 49/81/49 71/103/71
f 71/103/71 49/81/49 68/104/68
f 49/81/49 65/80/65 68/104/68
f 65/80/65 42/83/42 60/105/60
f 42/83/42 58/74/58 60/105/60
f 83/106/79 84/107/80 85/108/81
f 85/108/81 84/107/80 86/109/82
f 84/107/80 87/106/83 86/109/82
f 86/109/82 87/106/83 88/108/84
f 87/106/83 89/110/85 88/108/84
f 88/108/84 89/110/85 90/111/86
f 89/110/85 83/106/79 90/111/86
f 90/111/86 83/106/79 85/108/81
f 84/107/80 83/106/79 91/112/87
f 87/106/83 84/107/80 91/112/87
f 89/110/85 87/106/83 91/112/87
f 83/106/79 89/110/85 91/112/87
f 85/108/81 86/109/82 92/113/88
f 86/109/82 88/108/84 92/113/88
f 88/108/84 90/111/86 92/113/88
f 90/111/86 85/108/81 92/113/88
f 93/114/79 94/115/80 95/116/81
f 95/116/81 94/115/80 96/117/82
f 94/115/80 97/114/83 96/117/82
f 96/117/82 97/114/83 98/116/84
f 97/114/83 99/118/85 98/116/84
f 98/116/84 99/118/85 100/119/86
f 99/118/85 93/114/79 100/119/86
f 100/119/86 93/114/79 95/116/81
f 94/115/80 93/114/79 101/120/87
f 97/114/83 94/115/80 101/120/87
f 99/118/85 97/114/83 101/120/87
f 93/114/79 99/118/85 101/120/87
f 95/116/81 96/117/82 102/121/88
f 96/117/82 98/116/84 102/121/88
f 98/116/84 100/119/86 102/121/88
f 100/119/86 95/116/81 102/121/88
f 103/122/79 104/123/80 105/124/81
f 105/124/81 104/123/80 106/125/82
f 104/123/80 107/122/83 106/125/82
f 106/125/82 107/122/83 108/124/84
f 107/122/83 109/126/85 108/124/84
f 108/124/84 109/126/85 110/127/86
f 109/126/85 103/122/79 110/127/86
f 110/127/86 103/122/79 105/124/81
f 104/123/80 103/122/79 111/128/87
f 107/122/83 104/123/80 111/128/87
f 109/126/85 107/122/83 111/128/87
f 103/122/79 109/126/85 111/128/87
f 105/124/81 106/125/82 112/129/88
f 106/125/82 108/124/84 112/129/88
f 108/124/84 110/127/86 112/129/88
f 110/127/86 105/124/81 112/129/88
vt 0.5 2.23977
vt 2.09183 1.7302
v 0 0.025485 0
vt 0.5 0.5
vt -1.09183 1.7302
v -0.0861529 0 0
vt -0.932392 0.5
vn -0.1611781 -0.9869254 0
vt -1.09183 -0.730203
vt 0.5 -1.23977
vt 2.09183 -0.730203
v 0.086153 0 0
vt 1.93239 0.5
vn 0.1611781 -0.9869254 0
vt 3.10136 0.5
vt -2.10136 0.5
o merged_2_0_node
g polygon_0
usemtl mat_ana_mat_id
f 43/130/43 45/131/45 113/132/87
f 50/133/50 43/130/43 113/132/87
f 114/134/89 50/133/50 113/132/87
f 55/135/55 114/134/89 113/132/87
f 54/136/54 55/135/55 113/132/87
f 51/137/51 54/136/54 113/132/87
f 115/138/90 51/137/51 113/132/87
f 45/131/45 46/139/46 115/138/90
f 46/139/46 51/137/51 115/138/90
f 55/135/55 53/140/53 114/134/89
f 53/140/53 50/133/50 114/134/89
f 45/131/45 115/138/90 113/132/87
vt -0.449185 -0.0700006
vt 0.507678 -0.0691648
vt 0.508645 1.31418
vt 1.45788 -0.0683737
o merged_3_0_node
g polygon_0
usemtl mat_mouth_mat_id
f 37/141/37 82/142/78 41/143/41
f 82/142/78 28/144/28 41/143/41
vt -0.266172 0.670343
vt 1.34772 0.832088
vt 0.254161 0.985872
vt 0.891569 0.98595
vt -0.266172 0.670477
o merged_4_0_node
g polygon_0
usemtl TEX_ANIM_EYE_mat_id
f 37/145/37 41/146/41 39/147/39
f 39/147/39 41/146/41 38/148/38
f 28/149/28 20/147/20 41/146/41
f 41/146/41 20/147/20 31/148/31
