mtllib Zebstrika.mtl
v 0.0632829 0.168365 -0.42859
vt 0.0392407 0.929049
vn 0.5730423 -0.4313432 0.6968254
v -0.0293737 0.0926923 -0.410664
vt 0.0364048 0.929049
vn -0.225193 -0.5879909 0.7768879
v 0 0.125507 -0.471532
vt 0.0364048 0.923377
vn -0.246023 -0.9677079 0.05490069
v -0.00024143 0.268282 -0.398568
vt 0.0341006 0.938265
vn -0.0814776 0.485318 0.870533
v 0.0447478 0.0711178 -0.495424
vt 0.0392407 0.923377
vn 0.852023 -0.293583 -0.433435
v 0.0598298 0.259844 -0.431728
vt 0.0406587 0.934721
vn 0.566017 0.6889421 0.4527511
v 0.00399187 0.174488 -0.521347
vt 0.0424312 0.919123
vn -0.06882001 -0.6701391 -0.7390381
v 0.145815 0.222997 -0.47756
vt 0.0407495 0.931703
vn 0.8776539 0.4637039 0.121253
v 0.0935312 0.135887 -0.617889
vt 0.0440695 0.922459
vn 0.127567 -0.689584 -0.7128819
v 0.0894956 0.196433 -0.501132
vt 0.0420767 0.929049
vn 0.9455827 -0.06979599 -0.3178079
v -0.0632829 0.19647 -0.441054
vt 0.0335688 0.929049
vn -0.6675613 -0.1838891 0.7214893
vt 0.0378227 0.917705
v 0.0270643 0.247016 -0.529844
vt 0.0449127 0.931885
vn 0.4620369 0.4769519 -0.7476889
v 0.0133776 0.326581 -0.559084
vt 0.025061 0.934721
vn 0.137098 0.8373607 -0.5291798
vt 0.0434947 0.940392
vt 0.023643 0.930467
v -0.139766 0.254735 -0.49873
vt 0.0307329 0.934721
vn -0.8542218 0.4725448 0.2168099
v -0.0447478 0.273393 -0.486606
vt 0.0278969 0.934721
vn -0.4418061 0.8911481 -0.103259
v -0.106461 0.106698 -0.547099
vt 0.0335688 0.923377
vn -0.5882726 -0.6361377 -0.4992637
vt 0.0349868 0.917705
v -0.0520149 0.235459 -0.618899
vt 0.0272262 0.926778
vn -0.3655191 0.003743731 -0.9307963
vt 0.0289604 0.92125
vt 0.0188607 0.920854
v -0.0894956 0.205932 -0.494687
vt 0.0307329 0.929049
vn -0.8589251 -0.07800771 -0.506125
vt 0.0264789 0.940392
vt 0.0305556 0.919477
v 0 0.797126 0.29864
vt 0.0268229 0.951614
vn 0 0.6105741 0.7919591
v 0.0507841 0.798624 0.396726
vt 0.0267087 0.96082
vn -0.90439 0.126348 0.407572
v 0.0507841 0.884106 0.355462
vt 0.0270236 0.935425
vn -0.9266543 0.2299021 0.2974171
v 0.0487942 0.693792 0.39939
vt 0.0265013 0.977553
vn -0.887849 0.0285216 0.45925
v 0.0343912 0.943499 0.216112
vt 0.0273773 0.906896
vn -0.9105617 0.3435569 0.2298829
v 0 0.83613 0.218936
vt 0.0271445 0.925675
vn 0 0.8982201 0.439546
v -0.0343912 0.943499 0.216112
vn 0.9105617 0.3435569 0.2298829
v -0.0507841 0.884106 0.355462
vn 0.9266543 0.2299021 0.2974171
v -0.0507841 0.798624 0.396726
vn 0.90439 0.126348 0.407572
v -0.0487942 0.693792 0.39939
vn 0.887849 0.0285216 0.45925
v 0.0868038 1.11697 0.369927
vt 0.0277186 0.879366
vn -0.9164957 0.135386 0.3764389
v 0.0868038 0.739424 0.499881
vt 0.0263417 0.990422
vn -0.9084242 0.136059 0.3952891
v -0.0868038 1.11697 0.369927
vn 0.9164957 0.135386 0.3764389
v -0.0868038 0.739424 0.499881
vn 0.9084242 0.136059 0.3952891
v 0 0.831274 0.219026
vt 0.957861 0.767487
vn 0 0.992545 0.121879
v 0.125973 0.800397 0.216646
vt 0.957598 0.763358
vn 0.570279 0.817556 0.0799011
v 0.0814092 0.797784 0.0788334
vt 0.942377 0.763008
vn 0.3644161 0.7302261 -0.5779021
v 0.0825074 0.77471 0.350643
vt 0.972397 0.759922
vn 0.4097627 0.7310605 0.5455686
v 0 0.797784 0.0788334
vn 0 0.7304487 -0.6829677
v -0.0825074 0.77471 0.350643
vn -0.4097627 0.7310605 0.5455686
v -0.0814092 0.797784 0.0788334
vn -0.3644161 0.7302261 -0.5779021
v -0.125973 0.800397 0.216646
vn -0.570279 0.817556 0.0799011
v 0.175805 0.723059 0.197927
vt 0.95553 0.753014
vn 0.925927 0.376183 0.03384401
v -0.175805 0.723059 0.197927
vn -0.925927 0.376183 0.0338439
v 0 0.71335 0.425767
vt 0.980694 0.751716
vn 0 0.4367701 0.8995732
v -0.139804 0.671849 0.350043
vt 0.972331 0.746165
vn -0.8009251 0.2571531 0.5407321
v 0.139804 0.671849 0.350043
vn 0.8039658 0.2540079 0.5376979
v -0.13958 0.45661 0.370383
vt 0.974577 0.717378
vn -0.894453 -0.125323 0.429241
v -0.0871228 0.549024 0.42708
vt 0.980839 0.729738
vn -0.6762071 0.2707491 0.6851561
v 0.0871228 0.549024 0.42708
vn 0.6762071 0.2707491 0.6851561
v 0.13958 0.45661 0.370383
vn 0.8928471 -0.120916 0.4338241
v -0.166227 0.345994 0.183664
vt 0.268915 0.724909
vn -0.7620942 0.6171241 0.1958831
v -0.183654 0.2313829 -0.1814583
vt 0.729805 0.482261
vn -0.8620586 0.1929737 -0.4686323
v -0.183654 0.231383 0.1986614
vt 0.241941 0.482261
vn -0.8232892 0.1061158 0.5576149
v -0.156727 0.341597 -0.151302
vt 0.681477 0.691322
vn -0.563348 0.789429 -0.243805
v 0 0.345994 0.28591
vt 0.0395456 0.724909
vn 0 0.2456459 0.9693596
v 0 0.393369 0.103384
vt 0.323388 0.825212
vn 0 0.9868536 -0.1616169
v 0 0.470892 0.241326
vt 0.113373 0.989341
vn 0 0.9575086 0.2884049
v -0.182725 0.1587901 -0.05430133
vt 0.634397 0.403119
vn -0.7463424 -0.5973732 0.2934591
v 0 0.2313829 -0.3016187
vt 0.960454 0.482261
vn 0 0.248405 -0.9686562
v 0 0.1673604 -0.3016213
vt 0.960454 0.384529
vn 0 -0.6114789 -0.7912608
v 0.166227 0.345994 0.183664
vn 0.7620942 0.6171241 0.1958831
v 0 0.231383 0.3018035
vt 0.0395456 0.482261
vn 0 -0.163784 0.9864962
v 0.183654 0.231383 0.1986614
vn 0.8232892 0.1061158 0.5576149
v -0.182725 0.1678074 0.1147106
vt 0.326291 0.403119
vn -0.6320463 -0.6716732 -0.3864877
v 0 0.1426771 0.1097555
vt 0.373446 0.345757
vn 0 -0.9835322 -0.180733
v 0 0.345994 -0.249966
vt 0.873867 0.785957
vn 0 0.8738803 -0.4861412
v 0.183654 0.2313829 -0.1814583
vn 0.8620586 0.1929737 -0.4686323
v 0 0.1719781 0.2496654
vt 0.0395456 0.341663
vn 0 -0.546391 0.8375301
v 0.156727 0.341597 -0.151302
vn 0.563348 0.789429 -0.243805
v 0.182725 0.1587901 -0.05430133
vn 0.7463424 -0.5973732 0.2934591
v 0.182725 0.1678074 0.1147106
vn 0.6320463 -0.6716732 -0.3864877
v 0 0.417105 0.0829502
vt 0.942832 0.712094
vn 0 -0.8259558 -0.5637349
v 0.131115 0.487624 0.0596487
vt 0.940258 0.721526
vn 0.5584831 -0.4645551 -0.6872301
v 0.126905 0.399398 0.196957
vt 0.955423 0.709726
vn 0.3515992 -0.9010383 -0.2539841
v 0 0.509877 -0.0054557
vt 0.933068 0.724502
vn 0 -0.416962 -0.908924
v 0 0.377283 0.191713
vt 0.954844 0.706768
v -0.131115 0.487624 0.0596487
vn -0.5584831 -0.4645551 -0.6872301
v -0.126905 0.399398 0.196957
vn -0.3515992 -0.9010383 -0.2539841
v 0.188769 0.457699 0.170154
vt 0.952463 0.717523
vn 0.8746332 -0.4218721 -0.238832
v -0.188769 0.457699 0.170154
vn -0.8772432 -0.4208661 -0.230903
v 0.0809108 0.661319 -0.014772
vt 0.497839 0.0163807
vn 0.34991 0.242972 -0.9047251
vt 0.464929 0.269741
v 0.169835 0.648415 0.0678475
vt 0.26438 0.078077
vn 0.8350196 0.1776889 -0.5207388
vt 0.681124 0.262501
vt 0.270233 -0.18178
v 0 0.661319 -0.0147719
vt 0.633666 -0.0333895
vn 0 0.3870139 -0.9220739
vt 0.56507 -0.230373
vt 0.0889822 0.289047
v -0.0809108 0.661319 -0.014772
vn -0.34991 0.242972 -0.9047251
v 0.209478 0.573184 0.168463
vt 0.0236945 0.0463646
vn 0.998786 0.0242913 -0.0428529
vt -0.0302003 -0.156782
v -0.169835 0.648415 0.0678475
vn -0.8350196 0.1776889 -0.5207388
v -0.209478 0.573184 0.168463
vn -0.9984491 0.0216029 -0.05130931
v 0.156349 0.41941 0.278019
vt 0.524612 0.908572
vn 0.7826174 -0.6069933 0.1380911
vt 0.677204 1.02048
v 0.0993749 0.385101 0.35266
vt 0.699254 0.899026
vn 0.4077551 -0.9105302 0.06834141
v 0.178193 0.494542 0.300353
vt 0.512631 1.04886
vn 0.9442171 -0.0251209 0.328364
vt 0.405465 0.830789
vt 0.285307 0.925326
vt 0.216164 1.08308
v -0.156349 0.41941 0.278019
vn -0.8002671 -0.5816851 0.145654
v -0.0993749 0.385101 0.35266
vn -0.4077551 -0.9105302 0.06834122
v -0.178193 0.504858 0.300353
vn -0.9437592 -0.0175393 0.3301681
v 0.185953 -1.932459E-05 -0.227514
vt 0.862864 0.00231278
vn 0.1335341 -0.9075542 -0.3981383
vt 0.92334 0.351993
vt 0.804709 0.296935
vt 0.98499 0.289707
v 0 0.1426769 -0.04743215
vt 0.760624 0.286806
vn 0 -0.9836553 0.1800621
v -0.185953 -1.932459E-05 -0.227514
vn -0.1335341 -0.9075542 -0.3981383
v 0.185953 -1.690228E-05 0.2194522
vt 0.730667 0.00474431
vn 0.2649571 -0.8466098 0.4615728
vt 0.723581 0.342952
vt 0.717489 0.293451
vt 0.733609 0.223438
vt 0.745802 0.203928
v -0.185953 -1.690228E-05 0.2194522
vn -0.2649571 -0.8466098 0.4615728
v 0.186866 0.803667 0.242726
vt 0.972561 0.917701
vn 0.693786 -0.719644 0.0278147
v 0.143893 0.846033 0.21602
vt 0.989866 0.922134
vn -0.2184521 0.5266081 -0.8215611
v 0.221743 0.88638 0.295816
vt 0.891651 0.9907
vn 0.5547451 0.4283581 0.7132792
v 0.0902032 0.769724 0.250051
vt 0.891543 0.844676
vn -0.5953497 -0.7631906 0.2511949
v 0.119579 0.846742 0.293262
vt 0.824853 0.907263
vn -0.4954149 0.269224 0.8258829
vt 0.809681 0.922745
v -0.186866 0.803667 0.242726
vn -0.693786 -0.719644 0.027815
v -0.221743 0.88638 0.295816
vn -0.5547459 0.4283579 0.7132788
v -0.143893 0.846033 0.21602
vn 0.2184519 0.5266088 -0.8215607
v -0.119579 0.846742 0.293262
vn 0.495414 0.269225 0.8258831
v -0.0902032 0.769724 0.250051
vn 0.5953491 -0.763191 0.251195
v 0 0.327749 -0.391087
vt 0.0289519 0.920595
vn -1 0 0
v 0 0.270287 -0.275846
vt 0.0289646 0.916248
v 0 0.313599 -0.259515
vt 0.0289519 0.925678
v 0 0.352785 -0.437821
vt 0.0289519 0.926377
v 0 0.291218 -0.38829
vt 0.0289519 0.91216
v 0 0.28551 -0.355749
vt 0.0289519 0.910842
v 0 0.249665 -0.42034
vt 0.0289519 0.904847
vn 1 0 0
vt 0.0369039 0.00343678
v 0 0.574513 0.457221
vt 0.397678 0.00326733
vt 0.397678 0.183822
vt 0.017559 0.236553
vt 0.964253 0.555721
vt 0.964832 0.558679
vt 0.972719 0.681184
v 0 0.375851 0.347697
vt 0.974555 0.678777
vn 0 -0.9999811 -0.006152101
vt 0.976424 0.556731
v 0.0682382 0.458976 0.525211
vt 0.977801 0.976073
vn 0.6126648 0.08102328 0.7861788
v 0.0709844 0.383456 0.494238
vt 0.979041 0.966477
vn 0.5599654 -0.6353024 0.5318173
vt 0.961803 0.969927
vt 0.957652 0.97435
vt 0.959306 0.986208
v 0 0.46386 0.545623
vt 0.978888 0.979537
vn 0 0.06542338 0.9978576
vt 0.96331 0.832231
v 0 0.375394 0.503781
vt 0.981609 0.964999
vn 0 -0.820096 0.572226
v -0.0682382 0.458976 0.525211
vn -0.6126648 0.08102328 0.7861788
vt 0.965146 0.829824
v -0.0709844 0.383456 0.494238
vn -0.559965 -0.635303 0.531817
vt 0.959604 0.956684
vt 0.963077 0.953921
vt 0.861219 1.01631
vt 0.855007 0.927228
vt 0.770682 0.926555
vt 0.760876 1.01151
vn 0.9319912 -0.14529 -0.3320891
vn 0.9276421 -0.12155 -0.353137
vn 0.9406703 -0.09990263 -0.3242821
vn 0.9458955 -0.1944819 -0.2597279
vn 0.928091 -0.290464 -0.232976
vn 0.9599596 -0.02531049 -0.2789929
vn -0.9319912 -0.14529 -0.3320891
vn -0.9236251 -0.129984 -0.360584
vn -0.9406703 -0.09990263 -0.3242821
vn -0.9458955 -0.1944819 -0.2597279
vn -0.928091 -0.290464 -0.232976
vn -0.9599596 -0.02531049 -0.2789929
vt 0.585712 0.345757
v 0 0.363353 -0.0179955
vt 0.0289857 0.947113
v 0 0.393321 0.167985
vt 0.0289857 0.954306
v 0 0.463583 -0.0862936
vt 0.0289857 0.969661
v 0 0.363353 -0.0179956
v 0 0.346186 -0.159166
vt 0.0289772 0.938203
v 0 0.370147 0.0378741
v 0 0.44351 -0.198426
vt 0.0289857 0.951758
v 0 0.400519 -0.33227
vt 0.0289519 0.94894
v 0 0.304201 -0.263059
v 0 0.354109 -0.0940123
v 0 0.829107 -0.0508784
vt 0.0278608 0.867899
v 0 0.784616 0.0827636
vt 0.0274356 0.902195
v 0 0.642644 -0.0112652
vt 0.027356 0.908611
v 0 0.675898 -0.103829
vt 0.0273451 0.909495
v 0 0.678292 0.00491005
v 0 0.506271 0.00658764
vt 0.0271227 0.927435
v 0 0.396482 0.138381
vt 0.0289857 0.941348
v 0 0.503112 -0.0993939
v 0 0.551457 0.00107742
vt 0.0289857 0.973028
v 0 0.76473 0.0639362
v 0 0.93026 0.0559222
vt 0.027606 0.88845
o merged_0_0_node
g polygon_0
usemtl lambert3_mat_id
f 1/1/1 2/2/2 3/3/3
f 1/1/1 4/4/4 2/2/2
f 1/1/1 3/3/3 5/5/5
f 1/1/1 6/6/6 4/4/4
f 1/1/1 5/5/5 7/7/7
f 1/1/1 8/8/8 6/6/6
f 1/1/1 7/7/7 9/9/9
f 1/1/1 10/10/10 8/8/8
f 1/1/1 9/9/9 10/10/10
f 2/2/2 11/11/11 3/3/3
f 2/2/2 4/4/4 11/11/11
f 5/5/5 3/3/3 7/12/7
f 6/6/6 8/8/8 12/13/12
f 6/6/6 13/14/13 4/15/4
f 6/6/6 12/16/12 13/14/13
f 12/13/12 10/10/10 9/9/9
f 12/13/12 8/8/8 10/10/10
f 4/4/4 14/17/14 11/11/11
f 4/4/4 15/18/15 14/17/14
f 3/3/3 11/11/11 16/19/16
f 3/3/3 16/19/16 7/20/7
f 12/16/12 15/18/15 13/14/13
f 12/16/12 17/21/17 15/18/15
f 12/16/12 7/22/7 17/21/17
f 12/16/12 9/23/9 7/22/7
f 14/17/14 18/24/18 11/11/11
f 14/17/14 15/18/15 18/24/18
f 11/11/11 18/24/18 16/19/16
f 13/14/13 15/18/15 4/25/4
f 15/18/15 17/21/17 18/24/18
f 16/19/16 18/24/18 7/26/7
f 7/26/7 18/24/18 17/21/17
f 19/27/19 20/28/20 21/29/21
f 19/27/19 22/30/22 20/28/20
f 19/27/19 21/29/21 23/31/23
f 19/27/19 23/31/23 24/32/24
f 19/27/19 24/32/24 25/31/25
f 19/27/19 25/31/25 26/29/26
f 19/27/19 26/29/26 27/28/27
f 19/27/19 27/28/27 28/30/28
f 20/28/20 29/33/29 21/29/21
f 20/28/20 30/34/30 29/33/29
f 26/29/26 31/33/31 27/28/27
f 31/33/31 32/34/32 27/28/27
f 33/35/33 34/36/34 35/37/35
f 33/35/33 36/38/36 34/36/34
f 33/35/33 35/37/35 37/37/37
f 33/35/33 38/38/38 36/38/36
f 33/35/33 37/37/37 39/37/39
f 33/35/33 40/36/40 38/38/38
f 33/35/33 39/37/39 40/36/40
f 34/36/34 41/39/41 35/37/35
f 34/36/34 36/38/36 41/39/41
f 38/38/38 40/36/40 42/39/42
f 38/38/38 43/40/43 36/38/36
f 38/38/38 42/39/42 44/41/44
f 38/38/38 44/41/44 43/40/43
f 42/39/42 40/36/40 39/37/39
f 41/39/41 36/38/36 45/41/45
f 36/38/36 43/40/43 45/41/45
f 44/41/44 46/42/46 47/43/47
f 45/41/45 48/43/48 49/42/49
f 50/44/50 51/45/51 52/46/52
f 50/44/50 53/47/53 51/45/51
f 50/44/50 52/46/52 54/48/54
f 50/44/50 55/49/55 53/47/53
f 50/44/50 54/48/54 56/50/56
f 50/44/50 56/50/56 55/49/55
f 51/45/51 57/51/57 52/46/52
f 51/45/51 53/47/53 58/52/58
f 51/45/51 58/52/58 59/53/59
f 54/48/54 60/44/60 56/50/56
f 54/48/54 52/46/52 61/54/61
f 54/48/54 62/46/62 60/44/60
f 54/48/54 61/54/61 62/46/62
f 56/50/56 60/44/60 55/49/55
f 57/51/57 63/55/63 52/46/52
f 57/51/57 64/56/64 63/55/63
f 53/47/53 65/57/65 58/52/58
f 53/47/53 55/49/55 65/57/65
f 59/53/59 58/52/58 66/45/66
f 61/54/61 67/58/67 62/46/62
f 61/54/61 52/46/52 67/58/67
f 60/44/60 68/47/68 55/49/55
f 60/44/60 62/46/62 66/45/66
f 60/44/60 66/45/66 68/47/68
f 68/47/68 58/52/58 65/57/65
f 68/47/68 65/57/65 55/49/55
f 68/47/68 66/45/66 58/52/58
f 64/56/64 69/51/69 70/55/70
f 69/51/69 66/45/66 62/46/62
f 69/51/69 62/46/62 70/55/70
f 71/59/71 72/60/72 73/61/73
f 71/59/71 74/62/74 72/60/72
f 71/59/71 73/61/73 75/63/64
f 71/59/71 76/60/75 74/62/74
f 71/59/71 75/63/64 77/61/76
f 71/59/71 77/61/76 76/60/75
f 72/60/72 78/64/77 73/61/73
f 77/61/76 79/64/78 76/60/75
f 80/65/79 35/66/35 81/67/80
f 80/65/79 37/68/37 35/66/35
f 80/65/79 81/67/80 72/69/72
f 80/65/79 82/70/81 37/68/37
f 80/65/79 72/69/72 74/71/74
f 80/65/79 74/71/74 82/70/81
f 35/66/35 41/72/41 81/67/80
f 37/68/37 82/70/81 83/65/82
f 37/68/37 83/65/82 39/66/39
f 82/70/81 74/71/74 83/65/82
f 72/69/72 81/67/80 84/73/83
f 72/69/72 84/73/83 78/74/77
f 84/73/83 81/67/80 41/72/41
f 39/66/39 83/65/82 85/67/84
f 39/66/39 85/67/84 42/72/42
f 74/71/74 76/69/75 83/65/82
f 83/65/82 76/69/75 85/67/84
f 42/72/42 85/67/84 86/73/85
f 85/67/84 76/69/75 86/73/85
f 76/69/75 79/74/78 86/73/85
f 87/75/86 49/76/49 88/77/87
f 87/75/86 89/78/88 49/76/49
f 87/75/86 88/77/87 73/79/73
f 87/75/86 78/80/77 89/78/88
f 87/75/86 73/79/73 78/80/77
f 89/78/88 78/80/77 84/81/83
f 90/75/89 91/77/90 46/76/46
f 90/75/89 77/79/76 91/77/90
f 90/75/89 46/76/46 92/78/91
f 90/75/89 79/80/78 77/79/76
f 90/75/89 92/78/91 79/80/78
f 92/78/91 86/81/85 79/80/78
f 93/82/92 66/83/66 69/84/69
f 93/82/92 59/85/59 66/83/66
f 93/82/92 69/84/69 94/86/93
f 93/82/92 94/86/93 59/85/59
f 94/86/93 95/82/94 59/85/59
f 94/86/93 57/84/57 95/82/94
f 59/85/59 95/82/94 51/83/51
f 51/83/51 95/82/94 57/84/57
f 96/87/95 62/88/62 67/89/67
f 96/87/95 70/90/70 62/88/62
f 96/87/95 67/89/67 64/91/64
f 96/87/95 64/91/64 70/90/70
f 67/89/67 97/87/96 64/91/64
f 67/89/67 52/88/52 97/87/96
f 64/91/64 97/87/96 63/90/63
f 63/90/63 97/87/96 52/88/52
f 98/92/97 99/93/98 100/94/99
f 98/92/97 101/95/100 99/93/98
f 98/92/97 100/94/99 102/96/101
f 98/92/97 102/96/101 101/95/100
f 100/94/99 99/97/98 102/96/101
f 102/96/101 99/97/98 101/95/100
f 103/92/102 104/94/103 105/93/104
f 103/92/102 106/96/105 104/94/103
f 103/92/102 105/93/104 107/95/106
f 103/92/102 107/95/106 106/96/105
f 104/94/103 106/96/105 105/97/104
f 105/97/104 106/96/105 107/95/106
f 108/98/107 109/99/107 110/100/107
f 108/98/107 110/100/107 111/101/107
f 108/98/107 111/101/107 112/102/107
f 108/98/107 112/102/107 113/103/107
f 112/102/107 114/104/107 113/103/107
f 108/98/108 110/100/108 109/99/108
f 108/98/108 111/101/108 110/100/108
f 108/98/108 112/102/108 111/101/108
f 108/98/108 113/103/108 112/102/108
f 113/103/108 114/104/108 112/102/108
f 43/105/43 115/106/43 48/107/48
f 43/105/43 47/107/47 115/106/43
f 43/105/43 48/107/48 45/108/45
f 43/105/43 44/108/44 47/107/47
f 75/109/64 73/110/73 88/111/87
f 75/109/64 88/111/87 116/112/109
f 75/109/64 116/112/109 91/113/90
f 75/109/64 91/113/90 77/110/76
f 117/114/110 118/115/111 49/116/49
f 117/114/110 49/116/49 48/117/48
f 117/114/110 48/117/48 115/118/43
f 117/114/110 115/118/43 119/119/112
f 118/115/111 88/120/87 49/116/49
f 118/115/111 120/121/113 88/120/87
f 115/118/43 121/114/114 119/119/112
f 115/118/43 47/117/47 121/114/114
f 120/121/113 116/122/109 88/120/87
f 120/121/113 122/115/115 91/123/90
f 120/121/113 91/123/90 116/124/109
f 47/117/47 46/116/46 121/114/114
f 46/116/46 122/115/115 121/114/114
f 46/116/46 91/123/90 122/115/115
f 120/125/113 118/126/111 117/127/110
f 120/125/113 117/127/110 119/128/112
f 120/125/113 119/128/112 121/127/114
f 120/125/113 121/127/114 122/126/115
f 21/29/116 29/33/117 30/34/117
f 21/29/116 30/34/117 20/28/118
f 21/29/116 20/28/118 33/32/119
f 21/29/116 33/32/119 23/31/120
f 20/28/118 22/30/121 33/32/119
f 26/29/122 32/34/123 31/33/123
f 26/29/122 27/28/124 32/34/123
f 26/29/122 33/32/125 27/28/124
f 26/29/122 25/31/126 33/32/125
f 27/28/124 33/32/125 28/30/127
f 94/129/93 69/56/69 64/51/64
f 94/129/93 64/51/64 57/56/57
f 123/130/107 124/131/107 125/132/107
f 126/130/108 125/132/108 124/131/108
f 127/133/107 128/130/107 129/134/107
f 127/133/108 129/134/108 128/130/108
f 130/135/107 131/100/107 132/133/107
f 130/135/108 132/133/108 131/100/108
f 133/136/108 134/137/108 135/138/108
f 133/136/107 135/138/107 134/137/107
f 136/139/108 137/138/108 138/140/108
f 136/139/107 138/140/107 137/138/107
f 139/141/108 140/132/108 141/142/108
f 142/137/108 143/143/108 33/32/108
f 139/141/107 141/142/107 140/132/107
f 142/137/107 33/32/107 143/143/107
vt 0.0537 0.946073
vt 1.02475 0.835134
vt 0.948189 1.01178
vt -0.102704 0.704431
vt 0.247364 0.750924
o merged_1_0_node
g polygon_0
usemtl TEX_ANIM_EYE_mat_id
f 45/144/45 84/145/83 41/146/41
f 45/144/45 49/147/49 89/148/88
f 84/145/83 45/144/45 89/148/88
f 44/144/44 42/146/42 86/145/85
f 44/144/44 92/148/91 46/147/46
f 86/145/85 92/148/91 44/144/44
