mtllib Donphan_F.mtl
v 0 0.2776237 -0.3938744
vt 0.892754 0.530878
vn 0 -0.208488 -0.978025
v 0 0.298476 -0.4962
vt 1 0.56793
vn 0 -0.364031 -0.9313869
v 0.096205 0.393098 -0.326679
vt 0.822328 0.688101
vn 0.7463605 0.1457809 -0.6493796
v -0.0962051 0.393098 -0.326679
vn -0.7463601 0.145781 -0.6493801
v 0.212563 0.343689 -0.271432
vt 0.764424 0.600308
vn 0.7253051 0.441682 -0.528062
v -0.212563 0.343689 -0.271432
vn -0.7253054 0.4416812 -0.5280623
v 0.268115 0.1928526 -0.2815303
vt 0.775007 0.33229
vn 0.789611 0.00705901 -0.6135672
v -0.268115 0.1928526 -0.2815303
vn -0.7816684 0.008118787 -0.6236414
v 0 0.192854 -0.389524
vt 0.888194 0.33229
vn 0 -0.05415468 -0.9985325
v 0.0853222 0.453159 -0.350931
vt 0.847746 0.794823
vn 0.5134202 0.6542352 -0.5553162
v -0.0853222 0.453159 -0.350931
vn -0.5038651 0.6596072 -0.5577081
v 0 0.472297 -0.359904
vt 0.85715 0.828831
vn 0 0.8209258 -0.5710349
v 0.261326 0.360884 -0.0156956
vt 0.571944 0.630861
vn 0.885392 0.463917 -0.0293609
v 0.1285 0.435456 -0.208995
vt 0.698985 0.763368
vn 0.7987047 0.5688458 -0.1961769
v 0.14447 0.462815 -0.0156888
vt 0.571937 0.811981
vn 0.8017821 0.5947021 -0.05894711
v -0.261326 0.360884 -0.0156956
vn -0.8888291 0.457527 -0.025532
v -0.1285 0.435456 -0.208995
vn -0.8109071 0.5517231 -0.195016
v -0.14447 0.462815 -0.0156888
vn -0.8091258 0.5851029 -0.05449938
v 0 0.1144012 -0.3850169
vt 0.883469 0.19289
vn 0 -0.7862472 -0.6179121
v 0.0913251 0.517492 -0.208995
vt 0.698985 0.909137
vn 0.549171 0.80031 -0.240656
v -0.0970266 0.517492 -0.208995
vn -0.5527238 0.7976737 -0.2412739
v 0 0.539192 -0.208995
vt 0.698985 0.947695
vn -8.776368E-05 0.9644537 -0.2642519
v 0.285809 0.192854 -0.0156931
vt 0.571942 0.33229
vn 0.999505 -0.0311976 0.00404892
v 0.151513 0.460155 0.139613
vt 0.409168 0.807256
vn 0.7974603 0.5909312 0.121891
v 0.261326 0.328332 0.130827
vt 0.418376 0.573019
vn 0.9208399 0.360318 0.14908
v -0.285809 0.192854 -0.0417236
vn -0.9994957 -0.03173549 -0.00109842
v -0.151513 0.460155 0.139613
vn -0.7987269 0.5895849 0.120104
v -0.261326 0.328332 0.130827
vn -0.9271671 0.347034 0.141169
v -0.108491 0.547548 -0.0156889
vt 0.571937 0.962544
vn -0.5741642 0.8157513 -0.06989522
v 0 0.568628 -0.0156889
vt 0.571937 1
vn -3.532841E-05 0.9984762 -0.05518441
v 0.250944 0.1190752 -0.1672476
vt 0.655231 0.201196
vn 0.5693969 -0.797256 0.2004245
v 0.113631 0.537078 0.138436
vt 0.410402 0.943939
vn 0.5240179 0.8365329 0.160056
v 0.105765 0.547548 -0.0156889
vn 0.5746481 0.8150442 -0.07404412
v 0.268115 0.1928528 0.2170794
vt 0.327977 0.33229
vn 0.8126128 -0.1577446 0.5610501
v 0.146592 0.388694 0.284145
vt 0.26542 0.681049
vn 0.8639458 0.2333449 0.4462599
v 0.214753 0.248317 0.262892
vt 0.279962 0.430842
vn 0.6653243 0.05920293 0.7442033
v -0.250944 0.1190752 -0.1672476
vn -0.5578288 -0.8045647 0.2037224
v -0.150362 0.388694 0.284145
vn -0.8624657 0.2310279 0.4503098
v -0.268115 0.1928528 0.2170794
vn -0.8247545 -0.1534045 0.5442858
v -0.214604 0.248317 0.262892
vn -0.6661531 0.05847441 0.7435191
v -0.113631 0.537078 0.138436
vn -0.5223299 0.8370959 0.16261
v 0.250944 0.1271794 0.1211769
vt 0.42849 0.215596
vn 0.6144611 -0.7627257 -0.2017104
v 0 0.104595 -0.0417219
vt 0.57194 0.175463
vn 0 -0.9994648 0.032713
v 0 0.557994 0.138333
vt 0.410509 0.981105
vn 0 0.9801717 0.1981499
v 0.0954809 0.477364 0.315078
vt 0.225267 0.837834
vn 0.4288929 0.8104278 0.3990709
v 0 0.503824 0.313817
vt 0.226588 0.88485
vn 0 0.9052661 0.4248451
v 0.141139 0.435843 0.299565
vt 0.241526 0.764055
vn 0.8847402 0.3744211 0.2775671
v 0.0992557 0.257295 0.393592
vt 0.142977 0.446794
vn 0.7629119 -0.42613 0.486188
v 1.91867E-05 0.181492 0.352243
vt 0.186314 0.312101
vn -0.002506548 -0.8159085 0.5781757
v -0.250944 0.1271794 0.1211769
vn -0.6247807 -0.7551733 -0.1983993
v -0.141139 0.435843 0.299565
vn -0.8781131 0.3849211 0.284171
v -0.0989965 0.259051 0.393178
vt 0.143411 0.449916
vn -0.7618693 -0.4267472 0.4872802
v -0.0954809 0.477364 0.315078
vn -0.4288929 0.8104278 0.3990709
v 0.090205 0.391827 0.422614
vt 0.11256 0.685843
vn 0.5892401 0.4764471 0.6525291
v 0.0759806 0.25823 0.497836
vt 0.0337215 0.448456
vn 0.608207 0.179232 0.7732789
v 0.0949839 0.214367 0.428883
vt 0.10599 0.370515
vn 0.9447032 -0.16584 -0.282901
v 6.07357E-05 0.211324 0.420552
vt 0.114721 0.365109
vn -0.00115816 -0.1703979 -0.9853746
v 3.50125E-05 0.227883 0.392666
vt 0.143948 0.394533
vn -0.005832952 -0.8839362 0.4675711
v 0 0.1385195 0.2850708
vt 0.256717 0.235745
vn -1.171713E-05 -0.8678515 0.4968238
v 0 0.41499 0.447899
vt 0.0860595 0.727003
vn -2.44834E-05 0.658365 0.7526989
v -0.090205 0.391827 0.422614
vn -0.587802 0.477469 0.653079
v 0.08837239 0.134991 0.428286
vt 0.106615 0.229474
vn 0.9622518 -0.03055729 -0.27044
v 0.0593606 0.100483 0.499617
vt 0.0318548 0.168156
vn 0.6317129 -0.202143 0.748383
v -0.0761783 0.25823 0.497835
vn -0.6074362 0.1799741 0.7737122
v -0.094491 0.214373 0.428927
vt 0.105944 0.370527
vn -0.9418609 -0.165354 -0.2925
v -6.35102E-05 0.10004 0.523866
vt 0.00643975 0.167369
vn -0.00018417 -0.216277 0.976332
v 3.27608E-05 0.265726 0.53001
vt 0 0.461775
vn 5.27552E-05 0.251805 0.967778
v -4.878309E-05 0.13336 0.418875
vt 0.116478 0.226576
vn 0.000365257 0.144018 -0.989575
v 0.09276669 0.0430861 0.395324
vt 0.141162 0.0661685
vn 0.8515885 -0.2220969 -0.4748368
v -0.05997059 0.100483 0.499617
vn -0.6322764 -0.2016521 0.7480395
v -0.08795539 0.134772 0.428316
vt 0.106584 0.229085
vn -0.9616538 -0.02860219 -0.272771
v 0.0592436 0.009443829 0.448871
vt 0.0850408 0.00638992
vn 0.6463899 -0.5297129 0.5491669
v 4.24393E-05 0.00584778 0.452571
vt 0.0811625 0
vn -0.00260002 -0.9234097 0.3838069
v -0.09320359 0.0443331 0.395372
vt 0.141112 0.0683842
vn -0.8520287 -0.2179009 -0.4759898
v -0.0591588 0.0094439 0.448871
vn -0.6435833 -0.5347253 0.5476033
vt 0.514943 0.51159
vt 0.500078 0.514943
vt 0.485057 0.485057
vt 0.514896 0.510934
o merged_0_0_node
g polygon_0
usemtl mat_back_mat_id
f 1/1/1 2/2/2 3/3/3
f 1/1/1 4/3/4 2/2/2
f 1/1/1 3/3/3 5/4/5
f 1/1/1 6/4/6 4/3/4
f 1/1/1 5/4/5 7/5/7
f 1/1/1 8/5/8 6/4/6
f 1/1/1 7/5/7 9/6/9
f 1/1/1 9/6/9 8/5/8
f 2/2/2 10/7/10 3/3/3
f 2/2/2 4/3/4 11/7/11
f 2/2/2 12/8/12 10/7/10
f 2/2/2 11/7/11 12/8/12
f 5/4/5 13/9/13 7/5/7
f 5/4/5 3/3/3 14/10/14
f 5/4/5 15/11/15 13/9/13
f 5/4/5 14/10/14 15/11/15
f 3/3/3 10/7/10 14/10/14
f 6/4/6 8/5/8 16/9/16
f 6/4/6 17/10/17 4/3/4
f 6/4/6 16/9/16 18/11/18
f 6/4/6 18/11/18 17/10/17
f 4/3/4 17/10/17 11/7/11
f 9/6/9 7/5/7 19/12/19
f 9/6/9 19/12/19 8/5/8
f 12/8/12 20/13/20 10/7/10
f 12/8/12 11/7/11 21/13/21
f 12/8/12 22/14/22 20/13/20
f 12/8/12 21/13/21 22/14/22
f 17/10/17 18/11/18 21/13/21
f 17/10/17 21/13/21 11/7/11
f 14/10/14 20/13/20 15/11/15
f 14/10/14 10/7/10 20/13/20
f 13/9/13 23/15/23 7/5/7
f 13/9/13 15/11/15 24/16/24
f 13/9/13 25/17/25 23/15/23
f 13/9/13 24/16/24 25/17/25
f 16/9/16 8/5/8 26/15/26
f 16/9/16 27/16/27 18/11/18
f 16/9/16 26/15/26 28/17/28
f 16/9/16 28/17/28 27/16/27
f 22/14/22 21/13/21 29/18/29
f 22/14/22 30/19/30 20/13/20
f 22/14/22 29/18/29 30/19/30
f 21/13/21 18/11/18 29/18/29
f 7/5/7 23/15/23 31/20/31
f 15/11/15 32/21/32 24/16/24
f 15/11/15 20/13/20 33/18/33
f 15/11/15 33/18/33 32/21/32
f 20/13/20 30/19/30 33/18/33
f 25/17/25 34/22/34 23/15/23
f 25/17/25 24/16/24 35/23/35
f 25/17/25 36/24/36 34/22/34
f 8/5/8 37/20/37 26/15/26
f 28/17/28 38/23/38 27/16/27
f 28/17/28 26/15/26 39/22/39
f 28/17/28 39/22/39 40/24/40
f 18/11/18 41/21/41 29/18/29
f 18/11/18 27/16/27 41/21/41
f 31/20/31 23/15/23 42/25/42
f 31/20/31 42/25/42 43/26/43
f 42/25/42 23/15/23 34/22/34
f 32/21/32 33/18/33 44/27/44
f 32/21/32 45/28/45 24/16/24
f 32/21/32 44/27/44 46/29/46
f 32/21/32 46/29/46 45/28/45
f 44/27/44 30/19/30 29/18/29
f 44/27/44 29/18/29 41/21/41
f 44/27/44 33/18/33 30/19/30
f 44/27/44 41/21/41 46/29/46
f 35/23/35 24/16/24 47/30/47
f 35/23/35 47/30/47 48/31/48
f 24/16/24 45/28/45 47/30/47
f 36/24/36 49/32/49 34/22/34
f 40/24/40 39/22/39 49/32/49
f 37/20/37 50/25/50 26/15/26
f 37/20/37 43/26/43 50/25/50
f 50/25/50 39/22/39 26/15/26
f 38/23/38 51/30/51 27/16/27
f 38/23/38 52/33/52 51/30/51
f 41/21/41 53/28/53 46/29/46
f 41/21/41 27/16/27 53/28/53
f 27/16/27 51/30/51 53/28/53
f 48/31/48 47/30/47 54/34/54
f 48/31/48 54/34/54 55/35/55
f 48/31/48 55/35/55 56/36/56
f 48/31/48 56/36/56 57/37/57
f 48/31/48 57/37/57 58/38/58
f 58/38/58 57/37/57 52/33/52
f 47/30/47 45/28/45 54/34/54
f 34/22/34 49/32/49 59/39/59
f 59/39/59 49/32/49 39/22/39
f 46/29/46 53/28/53 60/40/60
f 46/29/46 60/40/60 45/28/45
f 54/34/54 60/40/60 55/35/55
f 54/34/54 45/28/45 60/40/60
f 51/30/51 52/33/52 61/34/61
f 51/30/51 61/34/61 53/28/53
f 53/28/53 61/34/61 60/40/60
f 56/36/56 62/41/62 57/37/57
f 56/36/56 55/35/55 63/42/63
f 56/36/56 63/42/63 62/41/62
f 52/33/52 64/35/64 61/34/61
f 52/33/52 57/37/57 65/43/65
f 52/33/52 65/43/65 64/35/64
f 61/34/61 64/35/64 60/40/60
f 55/35/55 66/44/66 63/42/63
f 55/35/55 60/40/60 67/45/67
f 55/35/55 67/45/67 66/44/66
f 67/45/67 64/35/64 66/44/66
f 67/45/67 60/40/60 64/35/64
f 62/41/62 68/46/68 57/37/57
f 62/41/62 63/42/63 69/47/69
f 62/41/62 69/47/69 68/46/68
f 65/43/65 70/42/70 64/35/64
f 65/43/65 57/37/57 71/48/71
f 65/43/65 71/48/71 70/42/70
f 57/37/57 68/46/68 71/48/71
f 64/35/64 70/42/70 66/44/66
f 63/42/63 72/49/72 69/47/69
f 63/42/63 66/44/66 73/50/73
f 63/42/63 73/50/73 72/49/72
f 72/49/72 73/50/73 69/47/69
f 66/44/66 70/42/70 73/50/73
f 68/46/68 74/51/74 71/48/71
f 68/46/68 69/47/69 74/51/74
f 69/47/69 73/50/73 74/51/74
f 71/48/71 74/51/74 70/42/70
f 73/50/73 75/49/75 74/51/74
f 73/50/73 70/42/70 75/49/75
f 75/49/75 70/42/70 74/51/74
f 48/52/48 36/53/36 25/54/25
f 28/54/28 40/53/40 52/55/52
vt -1.30449 1.05928
v -0.194504 0.000544626 -0.2584756
vt 0.946116 -0.19443
vn -0.09373713 -0.9688528 -0.2292109
vt 1.79788 1.67677
vt 1.59919 0.958869
v 0.194503 0.000544626 -0.2584756
vn 0.09373695 -0.968853 -0.2292099
vt -1.30449 0.963844
v 0.105563 0.264606 0.262477
vt 0 -1.44331
vn -0.5648189 -0.311727 0.7640719
v 0.206109 0.286257 0.297786
vt 0.609967 -1.43521
vn -0.6866811 -0.04144971 0.7257761
v 0.156678 0.322713 0.238049
vt 0.310092 -0.878503
vn 0.13815 0.9606578 0.2409379
v 0.227684 0.31335 0.277839
vt 0.740852 -1.17187
vn 0.005590152 0.9983653 0.05688082
v 0.156367 0.219834 0.187662
vt 0.308205 -1.8785
vn 0.198195 -0.9780121 0.06489341
v 0.241734 0.263225 0.294951
vt 0.826087 -1.65909
vn 0.2472539 -0.9233816 0.2936529
v 0.207482 0.277941 0.163233
vt 0.618297 -1.31369
vn 0.9326527 0.08413547 -0.3508279
v 0.263309 0.290317 0.275004
vt 0.956973 -1.39575
vn 0.9241058 0.2328379 -0.3030099
v 0.270401 0.297632 0.337905
vt 1 -1.03274
vn 0.1606419 0.8199217 0.5494748
v -0.227684 0.31335 0.277839
vn -0.005590152 0.9983653 0.05688082
v -0.206109 0.286257 0.297786
vn 0.6866811 -0.04144971 0.7257761
v -0.156678 0.322713 0.238049
vn -0.13815 0.9606578 0.2409379
v -0.105563 0.264606 0.262477
vn 0.5648189 -0.311727 0.7640719
v -0.156367 0.219834 0.187662
vn -0.198195 -0.9780121 0.06489341
v -0.241734 0.263225 0.294951
vn -0.2472539 -0.9233816 0.2936529
v -0.207482 0.277941 0.163233
vn -0.9326527 0.08413547 -0.3508279
v -0.263309 0.290317 0.275004
vn -0.9241058 0.2328379 -0.3030099
v -0.270401 0.297632 0.337905
vn -0.1606419 0.8199217 0.5494748
vt 2.16699 1.09622
v 0.194503 0.0005458489 0.1713188
vt 0.207717 -0.0802778
vn 0.04421567 -0.974627 0.2194251
vt -0.533785 1.68039
v -0.194504 0.0005458489 0.1713188
vn -0.04421587 -0.974627 0.2194251
vt -0.360816 1.07909
vt 2.16699 0.8723
o merged_1_0_node
g polygon_0
usemtl mat_leg_mat_id
f 19/56/19 76/57/76 8/58/8
f 76/57/76 37/59/37 8/58/8
f 7/58/7 31/59/31 77/57/77
f 76/57/76 19/56/19 43/60/43
f 77/57/77 31/59/31 43/60/43
f 19/56/19 77/57/77 43/60/43
f 43/60/43 37/59/37 76/57/76
f 77/57/77 19/56/19 7/58/7
f 78/61/78 79/62/79 80/63/80
f 80/63/80 79/62/79 81/64/81
f 78/61/78 82/65/82 79/62/79
f 79/62/79 82/65/82 83/66/83
f 82/65/82 84/67/84 83/66/83
f 83/66/83 84/67/84 85/68/85
f 84/67/84 80/63/80 85/68/85
f 85/68/85 80/63/80 81/64/81
f 81/64/81 79/62/79 86/69/86
f 79/62/79 83/66/83 86/69/86
f 83/66/83 85/68/85 86/69/86
f 85/68/85 81/64/81 86/69/86
f 87/64/87 88/62/88 89/63/89
f 89/63/89 88/62/88 90/61/90
f 90/61/90 88/62/88 91/65/91
f 91/65/91 88/62/88 92/66/92
f 91/65/91 92/66/92 93/67/93
f 93/67/93 92/66/92 94/68/94
f 93/67/93 94/68/94 89/63/89
f 89/63/89 94/68/94 87/64/87
f 87/64/87 95/69/95 88/62/88
f 88/62/88 95/69/95 92/66/92
f 92/66/92 95/69/95 94/68/94
f 94/68/94 95/69/95 87/64/87
f 59/70/59 96/71/96 34/72/34
f 97/71/97 50/73/50 43/74/43
f 59/70/59 97/71/97 43/74/43
f 96/71/96 59/70/59 43/74/43
f 43/74/43 42/73/42 96/71/96
f 96/71/96 42/73/42 34/72/34
f 39/72/39 50/73/50 97/71/97
f 97/71/97 59/70/59 39/72/39
vt 0.257986 1.58424
vn 0.126923 0.343209 -0.930644
vt -0.0784209 1.52538
vn 0.05035299 0.8679908 0.4940209
v 0.531405 0.47222 0.195873
vt 1.02297 0.50068
vn 0.2970558 0.3330328 -0.8949006
vt -0.00380952 0.391634
vn 0.1976821 -0.9781864 -0.06382093
vt 0 -1.41268
vt 0.0145015 -0.412678
vt 1 -0.691414
vn -0.121988 0.398255 -0.909127
v -0.531405 0.47222 0.195873
vn -0.2986011 0.3268881 -0.8966502
vn -0.04522818 0.8772127 0.4779668
vn -0.202359 -0.9779381 -0.05184431
o merged_2_0_node
g polygon_0
usemtl mat_ear_mat_id
f 24/75/98 47/76/99 98/77/100
f 47/76/99 35/78/101 98/77/100
f 35/79/101 24/80/98 98/81/100
f 27/75/102 99/77/103 51/76/104
f 51/76/104 99/77/103 38/78/105
f 38/79/105 99/81/103 27/80/102
vt 2.477 0.796804
vt -0.166214 0.772611
vt 1.01345 1.00775
o merged_3_0_node
g polygon_0
usemtl TEX_ANIM_EYE_mat_id
f 28/82/28 52/83/52 38/84/38
f 48/83/48 25/82/25 35/84/35
vt 0.90053 0.319291
vt 0.348137 3.65384
vt 0.297741 -0.728475
vt -0.0582559 2.07902
o merged_4_0_node
g polygon_0
usemtl mat_mouth_mat_id
f 36/85/36 48/86/48 49/87/49
f 49/87/49 48/86/48 58/88/58
f 58/88/58 52/86/52 49/87/49
f 49/87/49 52/86/52 40/85/40
