mtllib Golduck.mtl
v -0.188558 0.480018 -0.0095601
vt 0.0912015 2.88676
vn -0.9918371 0.118781 0.0463715
v -0.135217 0.396014 -0.16181
vt 0.206846 2.7034
vn -0.6197801 -0.5242761 -0.5839581
v -0.176634 0.396014 -0.0095601
vt 0.117053 2.7034
vn -0.9145327 -0.3916829 -0.101067
v -0.144924 0.488782 -0.172217
vt 0.185801 2.90589
vn -0.7177683 -0.2716601 -0.6411002
v -0.157827 0.382433 0.0884861
vt 0.157826 2.67376
vn -0.7023318 -0.6318787 0.3278099
v -0.230625 0.680743 -0.236098
vt 0 3.3249
vn -0.9630824 0.2680351 -0.02508891
v -0.163792 0.464507 0.139825
vt 0.144894 2.85291
vn -0.7875718 0.05945569 0.6133479
v -0.115967 0.626873 -0.0732611
vt 0.248582 3.20731
vn -0.7153137 0.6886408 0.118744
v -0.142029 0.58155 0.133328
vt 0.192077 3.10838
vn -0.7384511 0.489606 0.463655
v -0.115967 0.321688 -0.0095601
vt 0.248582 2.54116
vn -0.4501161 -0.8929613 0.003962481
v 0 0.416639 -0.212139
vt 0.5 2.74842
vn 0 -0.2521099 -0.9676986
v 0 0.325915 -0.140529
vt 0.5 2.55039
vn 0 -0.8626486 -0.5058038
v -0.126205 0.58155 -0.15891
vt 0.226384 3.10838
vn 0.3674598 0.4665408 -0.8045576
v -0.122933 0.413786 0.15018
vt 0.233477 2.74219
vn -0.859836 -0.164583 0.483316
v -0.0820008 0.464507 0.172798
vt 0.32222 2.85291
vn -0.5115381 0.351073 0.7842681
v -0.0710147 0.613647 0.138094
vt 0.346038 3.17844
vn -0.3044311 0.8437973 0.4419591
v 0 0.58155 0.177683
vt 0.5 3.10838
vn 0 0.4184841 0.9082242
v 0.135217 0.396014 -0.16181
vt 0.793154 2.7034
vn 0.6197801 -0.5242761 -0.5839581
v 0 0.556543 -0.2038
vt 0.5 3.0538
vn 0 0.3213301 -0.9469672
v 0.144924 0.488782 -0.172217
vt 0.814199 2.90589
vn 0.7177678 -0.2716599 -0.6411008
v 0 0.34678 0.127236
vt 0.5 2.59593
vn 0.004666068 -0.9650887 0.2618819
v 0 0.294483 -0.0095601
vt 0.5 2.48178
vn 0 -0.9971999 0.07478189
v -0.110672 0.388033 0.133355
vt 0.26006 2.68598
vn -0.481715 -0.8452641 0.231256
v -0.0662912 0.779102 -0.122286
vt 0.356279 3.48178
vn -0.277466 0.956253 -0.0926978
v 0 0.620023 -0.132054
vt 0.5 3.19236
vn 0 0.5690399 -0.8223099
v 0 0.636668 0.103014
vt 0.5 3.22869
vn 0 0.9850295 0.1723861
v 0.0710147 0.613647 0.138094
vt 0.653962 3.17844
vn 0.3044311 0.8437973 0.4419591
v 0.142029 0.58155 0.133328
vt 0.807923 3.10838
vn 0.7384511 0.489606 0.463655
v 0.188558 0.480018 -0.0095601
vt 0.908799 2.88676
vn 0.991837 0.118781 0.0463717
v 0.115967 0.321688 -0.0095601
vt 0.751418 2.54116
vn 0.4501161 -0.8929613 0.003962421
v 0.176634 0.396014 -0.0095601
vt 0.882947 2.7034
vn 0.9145327 -0.3916829 -0.101067
v 0 0.636624 -0.0208244
vt 0.5 3.2286
vn 0 0.9989704 0.04536752
v 0.126205 0.58155 -0.15891
vt 0.773616 3.10838
vn -0.3674601 0.4665411 -0.8045573
v 0.163792 0.464507 0.139825
vt 0.855106 2.85291
vn 0.7851131 0.05509511 0.616897
v 0.115967 0.626873 -0.0732611
vt 0.751418 3.20731
vn 0.7153137 0.6886408 0.118744
v 0.157827 0.382433 0.0884861
vt 0.842174 2.67376
vn 0.6984542 -0.6336552 0.3326301
v 0.0662912 0.779102 -0.122286
vt 0.643721 3.48178
vn 0.277466 0.956253 -0.0926979
v 0.230625 0.680743 -0.236098
vt 1 3.3249
vn 0.9630824 0.2680351 -0.02508891
v 0.109199 0.38917 0.133979
vt 0.736745 2.68846
vn 0.4496981 -0.8581592 0.247658
v 0.123096 0.417024 0.142649
vt 0.766875 2.74926
vn 0.8011547 -0.143583 0.5809778
v 0.0820008 0.464507 0.172798
vt 0.67778 2.85291
vn 0.5175089 0.3476529 0.7818708
v 0.0934168 0.134347 -0.165543
vt 0.75 8.21488
vn 0.602667 0.380389 -0.7014961
v 0.0900715 0.0552504 -0.169838
vt 0.741047 7.94264
vn 0.5621188 -0.7165037 -0.4130918
v 0.0475448 0.126676 -0.261842
vt 0.627238 8.18848
vn 0.4765431 0.8699851 -0.12662
v 0.180143 0.0552504 0.0009658621
vt 0.982095 7.94264
vn 0.9190527 -0.3941329 0.00117135
v -0.045872 0.126676 -0.261842
vt 0.377238 8.18848
vn -0.4745618 0.8699626 -0.1340009
v 0.186834 0.134347 0
vt 1 8.21488
vn 0.9721383 0.04420552 -0.2302021
v -0.0934167 0.134347 -0.165543
vt 0.25 8.21488
vn -0.6024656 0.3784558 -0.7027136
v 0.0642379 0.297357 -0.105397
vt 0.671912 8.77595
vn 0.4365751 0.4955661 -0.7508771
v 0.0458721 0.06944931 -0.26399
vt 0.622762 7.99151
vn 0.3530139 -0.8287657 -0.4341989
v -0.0441993 0.06944931 -0.26399
vt 0.381715 7.99151
vn -0.351449 -0.8278309 -0.437241
v -0.0900714 0.0552504 -0.169838
vt 0.258953 7.94264
vn -0.5629542 -0.7140373 -0.4162132
v 0 0.0231661 0
vt 0.5 7.83221
vn 0 -0.9999968 0.002519539
v 0.0900714 0.0552504 0.142561
vn 0.4120678 -0.5404417 0.7335686
v 0.00167272 0.204121 -0.419296
vt 0.504477 8.45504
vn 0.0008461501 0.4692931 -0.8830421
v 0.128476 0.297357 0
vt 0.843824 8.77595
vn 0.7507001 0.575053 -0.325213
v -0.0642379 0.297357 -0.105397
vt 0.328088 8.77595
vn -0.4365751 0.4955661 -0.7508771
v 0 0.3137 0
vt 0.5 8.83221
vn 0 1 0
v -0.0900714 0.0552504 0.142561
vn -0.412068 -0.540441 0.733569
v -0.180143 0.0552504 0.0009658621
vt 0.0179055 7.94264
vn -0.9190527 -0.3941329 0.00117114
v 0.0934167 0.134347 0.165543
vn 0.228013 -0.05247769 0.9722429
v 0.0642379 0.297357 0.105397
vn 0.04830239 0.6351648 0.7708648
v -0.186834 0.134347 0
vt 0 8.21488
vn -0.9721383 0.04420561 -0.2302021
v -0.128476 0.297357 0
vt 0.156176 8.77595
vn -0.7507001 0.575053 -0.325213
v -0.0934168 0.134347 0.165543
vn -0.228013 -0.05247759 0.9722429
v -0.0642379 0.297357 0.105397
vn -0.04830249 0.6351648 0.7708648
v -0.0784891 7.450581E-09 0
vt 1 -0.375
vn -0.148619 -0.9888889 -0.003355759
vt 1 3.8125
v 0.0784891 7.450581E-09 0
vn 0.148619 -0.9888889 -0.00335569
v -0.229375 0.219727 0.175627
vn -0.81459 0.0929142 0.572547
v 0.229375 0.219727 0.175627
vn 0.81459 0.0929141 0.572547
o merged_0_0_node
g polygon_0
usemtl mat_tume_mat_id
f 1/1/1 2/2/2 3/3/3
f 1/1/1 4/4/4 2/2/2
f 1/1/1 3/3/3 5/5/5
f 1/1/1 6/6/6 4/4/4
f 1/1/1 5/5/5 7/7/7
f 1/1/1 8/8/8 6/6/6
f 1/1/1 7/7/7 9/9/9
f 1/1/1 9/9/9 8/8/8
f 2/2/2 10/10/10 3/3/3
f 2/2/2 4/4/4 11/11/11
f 2/2/2 12/12/12 10/10/10
f 2/2/2 11/11/11 12/12/12
f 3/3/3 10/10/10 5/5/5
f 6/6/6 8/8/8 13/13/13
f 6/6/6 13/13/13 4/4/4
f 7/7/7 5/5/5 14/14/14
f 7/7/7 14/14/14 15/15/15
f 9/9/9 16/16/16 8/8/8
f 9/9/9 17/17/17 16/16/16
f 11/11/11 18/18/18 12/12/12
f 11/11/11 4/4/4 19/19/19
f 11/11/11 20/20/20 18/18/18
f 11/11/11 19/19/19 20/20/20
f 4/4/4 13/13/13 19/19/19
f 10/10/10 21/21/21 5/5/5
f 10/10/10 12/12/12 22/22/22
f 10/10/10 22/22/22 21/21/21
f 14/14/14 5/5/5 23/23/23
f 23/23/23 5/5/5 21/21/21
f 8/8/8 16/16/16 24/24/24
f 8/8/8 25/25/25 13/13/13
f 8/8/8 24/24/24 25/25/25
f 13/13/13 25/25/25 19/19/19
f 17/17/17 26/26/26 16/16/16
f 17/17/17 27/27/27 26/26/26
f 17/17/17 28/28/28 27/27/27
f 18/18/18 20/20/20 29/29/29
f 18/18/18 30/30/30 12/12/12
f 18/18/18 29/29/29 31/31/31
f 18/18/18 31/31/31 30/30/30
f 22/22/22 30/30/30 21/21/21
f 22/22/22 12/12/12 30/30/30
f 24/24/24 32/32/32 25/25/25
f 24/24/24 16/16/16 32/32/32
f 26/26/26 27/27/27 32/32/32
f 26/26/26 32/32/32 16/16/16
f 19/19/19 33/33/33 20/20/20
f 19/19/19 25/25/25 33/33/33
f 28/28/28 34/34/34 29/29/29
f 28/28/28 35/35/35 27/27/27
f 28/28/28 29/29/29 35/35/35
f 31/31/31 36/36/36 30/30/30
f 31/31/31 29/29/29 36/36/36
f 30/30/30 36/36/36 21/21/21
f 32/32/32 37/37/37 25/25/25
f 32/32/32 27/27/27 37/37/37
f 37/37/37 35/35/35 25/25/25
f 37/37/37 27/27/27 35/35/35
f 25/25/25 35/35/35 33/33/33
f 20/20/20 38/38/38 29/29/29
f 20/20/20 33/33/33 38/38/38
f 38/38/38 35/35/35 29/29/29
f 38/38/38 33/33/33 35/35/35
f 29/29/29 34/34/34 36/36/36
f 21/21/21 36/36/36 39/39/39
f 34/34/34 40/40/40 36/36/36
f 34/34/34 41/41/41 40/40/40
f 40/40/40 39/39/39 36/36/36
f 42/42/42 43/43/43 44/44/44
f 42/42/42 45/45/45 43/43/43
f 42/42/42 44/44/44 46/46/46
f 42/42/42 47/47/47 45/45/45
f 42/42/42 46/46/46 48/48/48
f 42/42/42 49/49/49 47/47/47
f 42/42/42 48/48/48 49/49/49
f 43/43/43 50/50/50 44/44/44
f 43/43/43 51/51/51 50/50/50
f 43/43/43 52/52/52 51/51/51
f 43/43/43 53/53/53 52/52/52
f 45/45/45 47/47/47 54/43/54
f 46/46/46 52/52/52 48/48/48
f 46/46/46 44/44/44 55/54/55
f 46/46/46 51/51/51 52/52/52
f 46/46/46 55/54/55 51/51/51
f 55/54/55 44/44/44 50/50/50
f 55/54/55 50/50/50 51/51/51
f 49/49/49 56/55/56 47/47/47
f 49/49/49 48/48/48 57/56/57
f 49/49/49 58/57/58 56/55/56
f 49/49/49 57/56/57 58/57/58
f 53/53/53 54/43/54 59/52/59
f 52/52/52 60/58/60 48/48/48
f 47/47/47 61/42/61 54/43/54
f 56/55/56 58/57/58 62/49/62
f 57/56/57 48/48/48 63/59/63
f 57/56/57 64/60/64 58/57/58
f 57/56/57 63/59/63 64/60/64
f 60/58/60 59/52/59 63/59/63
f 60/58/60 63/59/63 48/48/48
f 61/42/61 65/48/65 54/43/54
f 61/42/61 62/49/62 66/56/66
f 61/42/61 66/56/66 65/48/65
f 65/48/65 63/59/63 59/52/59
f 65/48/65 59/52/59 54/43/54
f 66/56/66 58/57/58 64/60/64
f 66/56/66 62/49/62 58/57/58
f 67/61/67 52/62/52 53/62/53
f 67/61/67 60/62/60 52/62/52
f 67/61/67 53/62/53 59/62/59
f 67/61/67 59/62/59 60/62/60
f 53/62/53 68/61/68 54/62/54
f 53/62/53 43/62/43 68/61/68
f 54/62/54 68/61/68 45/62/45
f 45/62/45 68/61/68 43/62/43
f 69/61/69 66/62/66 64/62/64
f 69/61/69 65/62/65 66/62/66
f 69/61/69 64/62/64 63/62/63
f 69/61/69 63/62/63 65/62/65
f 70/61/70 56/62/56 62/62/62
f 70/61/70 47/62/47 56/62/56
f 70/61/70 62/62/62 61/62/61
f 70/61/70 61/62/61 47/62/47
vt 0.472253 0.518564
vt 0.503489 0.52029
v -0.0785559 0.381703 0.26977
vt 0.471206 0.480062
vn -0.4762989 -0.8605868 0.18036
v -0.0010004 0.382527 0.364122
vt 0.487836 -2.73176
vn -0.004215968 0.7575886 0.6527187
v 0.0754708 0.383978 0.271018
vt 1.98899 -2.35702
vn 0.3935391 -0.9027882 0.173495
v 0.0735906 0.402911 0.312755
vt 2.00399 -2.73144
vn 0.4890141 0.6093691 0.6241271
v -0.00154253 0.382211 0.337338
vt 0.503054 0.479886
vn 0.0135353 -0.991659 0.128176
vt 0.534902 0.47971
v 0 0.504963 0.198104
vt 0.497467 1.00477
vn 0.0005865701 0.5040501 0.8636742
v -0.0759356 0.402795 0.312791
vt -1.02832 -2.73209
vn -0.53894 0.56391 0.625739
vt -0.868008 1.86964
vt -1.02832 -2.33451
vt -0.731819 2.17327
vt 1.86474 2.00554
vt 1.40828 1.46146
vt 0.534309 0.518387
vt 1.71038 2.16201
vt -0.413351 1.46146
vn 0.0152074 -0.9998183 0.011499
vt 0.480333 -2.34576
o merged_1_0_node
g polygon_0
usemtl nose_mat_id
f 23/63/23 21/64/21 71/65/71
f 72/66/72 73/67/73 74/68/74
f 75/69/75 21/64/21 73/70/73
f 76/71/76 72/66/72 74/68/74
f 77/72/77 14/73/14 71/74/71
f 71/74/71 14/73/14 23/75/23
f 74/68/74 40/76/40 41/77/41
f 21/64/21 39/78/39 73/70/73
f 40/76/40 73/67/73 39/79/39
f 77/72/77 76/71/76 15/80/15
f 74/68/74 73/67/73 40/76/40
f 77/72/77 15/80/15 14/73/14
f 74/68/74 41/77/41 76/71/76
f 76/71/76 77/72/77 72/66/72
f 72/66/78 71/74/71 75/81/75
f 71/65/71 21/64/21 75/69/75
f 72/66/78 75/81/75 73/67/73
f 77/72/77 71/74/71 72/66/72
vt -0.144373 0.76356
vt 0.518999 0.754304
vt 0.0451812 1.01789
vt 1.24873 0.847457
o merged_2_0_node
g polygon_0
usemtl TEX_ANIM_EYE_mat_id
f 7/82/7 15/83/15 9/84/9
f 9/84/9 15/83/15 76/85/76
f 76/85/76 41/83/41 28/84/28
f 28/84/28 41/83/41 34/82/34
vt 0.5 1.02156
vt 0.5 -1.27876
vt 4.83887 1.02156
vt -3.83887 1.02156
o merged_3_0_node
g polygon_0
usemtl lambert16_mat_id
f 17/86/17 76/87/76 28/88/28
f 76/87/76 17/86/17 9/89/9
