mtllib Mandibuzz.mtl
v 0.103731 0.669164 -0.250618
vt 0.936344 0.343701
vn 0.02149361 -0.1663691 0.9858293
v 0.0877331 0.70122 -0.273416
vt 0.92719 0.351658
vn -0.05267561 0.9846882 0.166176
v -0.103731 0.669164 -0.250618
vt 0.817641 0.343701
vn -0.0214937 -0.1663691 0.9858293
v 0.124736 0.726913 -0.26908
vt 0.948362 0.359113
vn 0.2760951 0.9477294 0.1599391
v -0.0877331 0.646366 -0.2826731
vt 0.826795 0.335744
vn 0.05267571 -0.9846882 -0.166176
v 0.147148 0.695789 -0.274332
vt 0.961185 0.350083
vn 0.9510485 0.3047329 0.05142617
v 0.0877331 0.646366 -0.2826731
vt 0.92719 0.335744
vn -0.05267571 -0.9846882 -0.166176
v 0.125011 0.673793 -0.278044
vt 0.948519 0.343701
vn 1 0 0
v 0.124736 0.620672 -0.2870091
vt 0.948362 0.32829
vn 0.2760951 -0.9477292 -0.15994
v 0.147148 0.651797 -0.2817571
vt 0.961185 0.337319
vn 0.951049 -0.304731 -0.0514276
v -0.0877331 0.70122 -0.273416
vt 0.826795 0.351658
vn 0.05267561 0.9846882 0.166176
v 0.103731 0.678421 -0.3054711
vn 0.02149381 0.1663691 -0.9858293
v -0.124736 0.620672 -0.2870091
vt 0.805623 0.32829
vn -0.276096 -0.9477291 -0.159939
v -0.103731 0.678421 -0.3054711
vn -0.02149381 0.1663691 -0.9858293
v -0.147148 0.651797 -0.2817571
vt 0.7928 0.337319
vn -0.9510487 -0.3047319 -0.05142699
v -0.124736 0.726913 -0.26908
vt 0.805623 0.359113
vn -0.2760951 0.9477294 0.1599391
v -0.125011 0.673793 -0.278044
vt 0.805466 0.343701
vn -1 0 0
v -0.147148 0.695789 -0.274332
vt 0.7928 0.350083
vn -0.9510487 0.3047319 0.05142679
v 0 0.123462 -0.0280102
vt 0.877468 0.290787
vn 0 -0.9298717 -0.3678839
v -0.121474 0.160616 -0.113124
vt 0.817437 0.299967
vn -0.472155 -0.7078331 -0.5253971
v -0.0402742 0.165123 -0.186849
vt 0.857565 0.301081
vn 0.07858518 -0.5753509 -0.8141227
v -0.148502 0.095721 0.0355404
vt 0.804081 0.283932
vn -0.4546368 -0.8824877 -0.1205029
v 0 0.137268 -0.0754389
vt 0.877468 0.294198
vn 0 -0.3893442 -0.9210923
v 0 0.0594447 0.118644
vt 0.877468 0.274969
vn 0 -0.9919402 0.126707
v 0.0402742 0.165123 -0.186849
vt 0.89737 0.301081
vn -0.07858518 -0.5753509 -0.8141227
v 0.148502 0.095721 0.0355404
vt 0.950854 0.283932
vn 0.4546368 -0.8824877 -0.1205029
v 0.121474 0.160616 -0.113124
vt 0.937498 0.299967
vn 0.472155 -0.7078331 -0.5253971
v -0.0455768 0.236076 -0.130386
vt 0.854944 0.318612
vn 0.239104 0.946831 -0.215268
v -0.136345 0.214816 -0.0816825
vt 0.810089 0.313359
vn -0.4845863 0.8646924 0.1322241
v 0 0.191098 -0.0374458
vt 0.877468 0.307499
vn 0 0.9547655 -0.2973599
v 0 0.116498 0.143549
vt 0.877468 0.289066
vn 0 0.5815002 0.8135463
v 0.0455768 0.236076 -0.130386
vt 0.899991 0.318612
vn -0.2391041 0.9468312 -0.215267
v 0.136345 0.214816 -0.0816825
vt 0.944846 0.313359
vn 0.4845871 0.8646921 0.132223
v 0 0.180515 -0.00310526
vt 0.877468 0.304884
vn 0 0.9168983 0.3991211
v -0.148502 0.152774 0.0604453
vt 0.804081 0.298029
vn -0.4425789 0.6921968 0.5700768
v 0.148502 0.152774 0.0604453
vt 0.950854 0.298029
vn 0.4425789 0.6921968 0.5700768
v 0 0.735996 -0.5638481
vt 0.0843409 0.35158
vn 0 0.212247 -0.9772161
v -0.0453388 0.635787 -0.3464981
vt 0.0698488 0.301068
vn -0.7406486 -0.6712407 0.02958938
v -0.0718818 0.691033 -0.356832
vt 0.0596196 0.313258
vn -0.9966839 0.0172708 -0.07951709
v 0 0.6501 -0.4038131
vt 0.0762901 0.31204
vn 0 -0.6022247 -0.7983267
v -0.0453388 0.737014 -0.3245111
vt 0.0442966 0.317552
vn -0.7406489 0.5984889 0.305369
v 0.0453388 0.635787 -0.3464981
vn 0.7406486 -0.6712407 0.02958938
v 0 0.747766 -0.3826001
vt 0.0516366 0.327943
vn 0 0.87913 -0.476582
v 0.0718818 0.691033 -0.356832
vn 0.9966839 0.0172708 -0.07951719
v 0.0453388 0.737014 -0.3245111
vn 0.7406489 0.5984889 0.305369
v 0 0.64607 -0.1498161
vt 0.0348983 0.274936
vn 0 -0.212248 0.9772159
v 0 0.583293 -0.4705281
vt 0.101841 0.308626
vn 0 -0.9946821 -0.102993
v 0 0.83623 -0.4155921
vt 0.0379927 0.349814
vn 0 0.9477878 0.3189019
v -0.135206 0.155534 0.0547791
vt 0.332775 0.304592
vn -0.8413673 -0.3781411 0.3861482
v -0.1584538 0.2438394 -0.01840601
vt 0.325116 0.319139
vn -0.7177978 -0.6958858 0.02256836
v -0.117741 0.209654 -0.0701471
vt 0.338529 0.313508
vn -0.7266282 0.03198191 -0.6862862
v -0.1295 0.233514 0.129186
vt 0.334655 0.317438
vn -0.650854 0.0630419 0.756581
v -0.112978 0.115138 -0.11002
vt 0.340099 0.297938
vn -0.7976419 -0.433929 -0.418895
v 0 0.159521 0.166896
vt 0.37732 0.305249
vn 0 -0.4494278 0.8933167
v -0.128407 0.1001 0.0268875
vt 0.335015 0.295461
vn -0.8450451 -0.4366411 0.3086151
v 0 0.0718312 0.0909431
vt 0.37732 0.290804
vn -3.08757E-05 -0.716796 0.697283
v -0.2011617 0.2882406 0.06070838
vt 0.311046 0.326453
vn -0.7732428 -0.06420551 0.6308511
v 0 0.0951235 -0.279622
vt 0.37732 0.294641
vn 0 -0.459264 -0.8882999
v 0 0.20628 -0.133321
vt 0.37732 0.312952
vn 0 0.6705953 -0.7418234
v -0.1199861 0.2904161 -0.05840615
vt 0.337789 0.326811
vn 0.09469177 0.7425863 -0.6630227
v 0.135206 0.155534 0.0547791
vt 0.421865 0.304592
vn 0.8413676 -0.3781408 0.3861478
v 0.1295 0.233514 0.129186
vt 0.419984 0.317438
vn 0.650854 0.0630418 0.756581
v -0.1294994 0.3045844 0.03531158
vt 0.334655 0.329145
vn -0.07134417 0.9481027 0.3098568
v 0 0.0517585 -0.0569582
vt 0.37732 0.287498
vn -0.0001936291 -0.9500775 -0.3120142
v 0 0.28027 -0.124929
vt 0.37732 0.32807
vn 0 0.5801591 -0.8145031
v 0.128407 0.1001 0.0268875
vt 0.419625 0.295461
vn 0.8450918 -0.4365339 0.3086389
v 0.1584538 0.2438394 -0.01840591
vt 0.429524 0.319139
vn 0.717798 -0.6958855 0.02256846
v 0.2011617 0.2882406 0.0607084
vt 0.443593 0.326453
vn 0.773243 -0.06420518 0.6308511
v 0.1294994 0.3045844 0.03531159
vt 0.419984 0.329145
vn 0.07134402 0.9481027 0.309857
v 0.112978 0.115138 -0.11002
vt 0.414541 0.297938
vn 0.7976423 -0.4339021 -0.4189222
v 0.117741 0.209654 -0.070147
vt 0.41611 0.313508
vn 0.7266287 0.03198209 -0.6862857
v 0.1199861 0.2904161 -0.05840615
vt 0.41685 0.326811
vn -0.09469188 0.7425863 -0.6630226
v 0 0.360753 0.000358367
vt 0 0.824934
vn 0 0.9968051 0.07987281
vt 0 1
vt 0.307082 0.944081
vt 0.323749 0.819822
v 0 0.263959 0.164792
vt 0 0.676071
vn 0 0.5936468 0.8047257
vt 0.323749 0.673516
vt 0 0.563465
v 0.0754173 0.525645 -0.171862
vt 0.222937 0.3117
vn 0.3713679 0 -0.9284858
v 0.12089 0.638142 -0.0933725
vt 0.208993 0.331685
vn 0.6132406 0.6053756 -0.5074016
v 0.179479 0.525645 -0.0822092
vt 0.20701 0.3117
vn 0.8900571 0.0367789 -0.454363
v 0 0.628253 -0.1538
vt 0.219728 0.329928
vn 0 0.566082 -0.824349
v 0.12089 0.413149 -0.0933725
vt 0.208993 0.291715
vn 0.577 -0.6114929 -0.541431
v -0.0754173 0.525645 -0.171862
vn -0.3713679 0 -0.9284858
v 0 0.423038 -0.1538
vt 0.219728 0.293472
vn 0 -0.566082 -0.824349
v 0 0.7076679 -0.0448631
vt 0.200375 0.344036
vn 0 0.9507718 -0.309892
v 0.109272 0.6916679 0.0336267
vt 0.186432 0.341194
vn 0.5503989 0.8330608 0.05541538
v 0.188439 0.456119 0.0333151
vt 0.186487 0.299349
vn 0.9289213 -0.3581421 0.09401903
v -0.12089 0.413149 -0.0933725
vn -0.577 -0.6114929 -0.541431
v 0 0.343623 -0.0448631
vt 0.200375 0.279364
vn 0 -0.9387507 -0.3445969
v -0.12089 0.638142 -0.0933725
vn -0.6132409 0.6053759 -0.5074009
v 0 0.6961659 0.102786
vt 0.172488 0.344036
vn 0 0.9108689 0.4126959
v 0.101994 0.628601 0.13851
vt 0.167799 0.32999
vn 0.569443 0.6129751 0.5477191
v 0.109272 0.359623 0.0336267
vt 0.186432 0.282206
vn 0.5710681 -0.8203841 0.0291729
v -0.179479 0.525645 -0.0822092
vn -0.8900571 0.0367789 -0.454363
v -0.109272 0.359623 0.0336267
vn -0.5710681 -0.8203841 0.0291729
v -0.188439 0.456119 0.0333151
vn -0.9289213 -0.3581421 0.09401903
v -0.109272 0.6916679 0.0336267
vn -0.5503989 0.8330607 0.05541558
v 0 0.608757 0.203226
vt 0.156303 0.328733
vn 0 0.7826899 0.622412
v 0.0840761 0.555248 0.231452
vt 0.151288 0.316959
vn 0.7071382 0.4703471 0.5279481
v 0 0.333379 0.112117
vt 0.172488 0.277544
vn 0 -0.9945689 0.104081
v -0.101994 0.628601 0.13851
vn -0.569443 0.6129751 0.5477191
v -0.0840761 0.555248 0.231452
vn -0.7071382 0.4703471 0.5279481
v 0 0.471155 0.385445
vt 0.0527373 0.445994
vn 0 0.3141759 0.9493648
v 0.0517137 0.41646 0.342723
vt 0.15777 0.430396
vn 0.788674 0.0992791 0.606743
v 0.076436 0.486003 0.287761
vt 0.370859 0.448566
vn 0.870062 0.175728 0.460556
v 0 0.373276 0.39027
vt -0.000564295 0.419644
vn 0 0.04923741 0.9987871
v 0 0.541921 0.347619
vt 0.190945 0.464362
vn 0 0.639197 0.769043
v -0.0517137 0.41646 0.342723
vn -0.788674 0.099279 0.606743
v -0.076436 0.486003 0.287761
vn -0.870062 0.175728 0.460556
v 0.105203 0.43557 0.201328
vt 0.579921 0.427716
vn 0.7927524 -0.4772412 0.3791892
vt 0.56509 0.467025
v 0 0.566309 0.275995
vt 0.456339 0.470244
v -0.105203 0.43557 0.201328
vn -0.792752 -0.477242 0.379189
vt 0.660881 0.486531
vt 0.527783 0.656902
vt 0.978308 0.652978
v 0.134754 0.5169179 0.153203
vt 0.697511 0.725056
vn 0.8768103 0.08342403 0.4735442
vt 0.940215 0.533871
vt 0.527272 0.813716
v 0 0.358896 0.242252
vt 0.448099 0.560151
vn 0 -0.9130535 0.4078398
v 0 0.41052 0.338815
vt 0.0708075 0.550661
vn 0 -0.8818831 0.4714681
v -0.134754 0.5169179 0.153203
vn -0.8768103 0.08342403 0.4735442
v 0.0333921 0.0177725 0.137093
vt 0.893969 0.264672
vn 0.2843839 -0.6752856 0.6805257
v 0.0453569 0.0727428 0.0918411
vt 0.899882 0.278254
vn 0.9566004 -0.2785831 -0.08548263
v 0.0221032 0.101958 0.110568
vt 0.88839 0.285473
vn 0.361197 0.323942 0.8744131
v 0.0103564 0.0760343 0.0819997
vt 0.882585 0.279068
vn -0.2651809 -0.7157568 -0.6460428
v -0.0074041 0.0725564 0.113704
vt 0.873809 0.278208
vn -0.7349871 -0.2845601 0.6154831
v 0.090402 0.026734 0.107995
vt 0.922142 0.266886
vn 0.2416171 -0.6363422 0.7325912
v 0.0898047 0.0821652 0.0681043
vt 0.921847 0.280583
vn 0.9705889 -0.133644 -0.200241
v 0.0658387 0.111045 0.0864491
vt 0.910003 0.287719
vn 0.260975 0.309689 0.914322
v 0.0554741 0.0858515 0.0587851
vt 0.904881 0.281493
vn -0.3014041 -0.7088862 -0.6376802
v 0.0365868 0.0813183 0.0888142
vt 0.895548 0.280373
vn -0.6341076 -0.3906918 0.6672836
v 0.143265 0.0395285 0.0786483
vt 0.948266 0.270048
vn 0.168092 -0.711145 0.682655
v 0.135051 0.0926827 0.0429034
vt 0.944207 0.283181
vn 0.9423698 -0.07381968 -0.3263279
v 0.111263 0.121647 0.0613456
vt 0.932451 0.290338
vn 0.2241131 0.2837841 0.9323304
v 0.0995086 0.099023 0.030888
vt 0.926642 0.284748
vn -0.3351211 -0.7272912 -0.5989502
v 0.0819448 0.0920014 0.0639039
vt 0.917963 0.283013
vn -0.5908303 -0.5162312 0.6200202
v -0.0333921 0.0177725 0.137093
vt 0.860966 0.264672
vn -0.2843841 -0.6752861 0.6805251
v -0.0221032 0.101958 0.110568
vt 0.866545 0.285473
vn -0.3611969 0.3239429 0.8744128
v -0.0453569 0.0727428 0.0918411
vt 0.855053 0.278254
vn -0.9566004 -0.2785831 -0.08548263
v 0.00740409 0.0725564 0.113704
vt 0.881126 0.278208
vn 0.734987 -0.284561 0.6154829
v -0.0103564 0.0760343 0.0819997
vt 0.87235 0.279068
vn 0.26518 -0.715757 -0.646043
v -0.090402 0.026734 0.107995
vt 0.832793 0.266886
vn -0.241618 -0.636342 0.732591
v -0.0658387 0.111045 0.0864491
vt 0.844931 0.287719
vn -0.2609741 0.3096891 0.9143223
v -0.0898048 0.0821652 0.0681043
vt 0.833088 0.280583
vn -0.9705888 -0.133645 -0.200241
v -0.0365868 0.0813183 0.0888142
vt 0.859387 0.280373
vn 0.6341081 -0.3906921 0.6672831
v -0.0554741 0.0858515 0.0587851
vt 0.850053 0.281493
vn 0.3014041 -0.7088862 -0.6376802
v -0.143265 0.0395285 0.0786483
vt 0.806669 0.270048
vn -0.168092 -0.711146 0.682654
v -0.111263 0.121647 0.0613457
vt 0.822484 0.290338
vn -0.2241131 0.2837841 0.9323304
v -0.135051 0.0926827 0.0429034
vt 0.810728 0.283181
vn -0.9423698 -0.07381918 -0.3263279
v -0.0819448 0.0920014 0.0639039
vt 0.836972 0.283013
vn 0.5908303 -0.5162323 0.6200193
v -0.0995086 0.099023 0.030888
vt 0.828292 0.284748
vn 0.3351211 -0.7272912 -0.5989502
v -0.0730723 0.00620437 0
vt 0.719806 0.863833
vn -0.2926119 -0.9542018 0.06226799
vt 0.497593 0.961578
vt 0.678681 0.941923
vt 0.867346 0.936487
vt 1 1
v 0.0730578 0.00611704 0
vt 0.719806 0.863724
vn 0.3025661 -0.9529642 -0.017691
vt 0.167046 0.428284
vn -0.1254091 -0.9764515 -0.1755421
vn -0.120227 -0.988824 -0.0881629
vn 0 -0.8100638 -0.5863418
vn 0.1254099 -0.9764515 -0.1755419
vn 0.120227 -0.988824 -0.0881629
v -0.3461213 0.3877923 -0.1154535
vt 1 0.220195
vn 0.3474402 0.9151356 -0.2044802
vt 0.458485 0.0317449
vt 0.434704 0.113484
vt 0.637636 0
vt 0.429088 0.189924
vn -0.630197 -0.7731035 0.07185143
vt 0.514153 0.113101
v 0.3461213 0.3877925 -0.1154535
vn -0.347441 0.9151353 -0.2044799
vn 0.6301978 -0.7731029 0.07185143
vt 0.772303 0.390952
vt 0.461081 0.405566
vt 0.976414 0.395284
o merged_0_0_node
g polygon_0
usemtl mat_body_mat_id
f 1/1/1 2/2/2 3/3/3
f 1/1/1 4/4/4 2/2/2
f 1/1/1 3/3/3 5/5/5
f 1/1/1 6/6/6 4/4/4
f 1/1/1 5/5/5 7/7/7
f 1/1/1 8/8/8 6/6/6
f 1/1/1 7/7/7 9/9/9
f 1/1/1 10/10/10 8/8/8
f 1/1/1 9/9/9 10/10/10
f 2/2/2 11/11/11 3/3/3
f 2/2/2 4/4/4 12/1/12
f 2/2/2 12/1/12 11/11/11
f 10/10/10 12/1/12 8/8/8
f 10/10/10 9/9/9 12/1/12
f 6/6/6 12/1/12 4/4/4
f 6/6/6 8/8/8 12/1/12
f 9/9/9 7/7/7 12/1/12
f 5/5/5 3/3/3 13/12/13
f 5/5/5 14/3/14 7/7/7
f 5/5/5 13/12/13 14/3/14
f 12/1/12 14/3/14 11/11/11
f 12/1/12 7/7/7 14/3/14
f 3/3/3 15/13/15 13/12/13
f 3/3/3 11/11/11 16/14/16
f 3/3/3 17/15/17 15/13/15
f 3/3/3 16/14/16 18/16/18
f 3/3/3 18/16/18 17/15/17
f 14/3/14 13/12/13 15/13/15
f 14/3/14 16/14/16 11/11/11
f 14/3/14 17/15/17 18/16/18
f 14/3/14 15/13/15 17/15/17
f 14/3/14 18/16/18 16/14/16
f 19/17/19 20/18/20 21/19/21
f 19/17/19 22/20/22 20/18/20
f 19/17/19 21/19/21 23/21/23
f 19/17/19 24/22/24 22/20/22
f 19/17/19 23/21/23 25/23/25
f 19/17/19 26/24/26 24/22/24
f 19/17/19 25/23/25 27/25/27
f 19/17/19 27/25/27 26/24/26
f 20/18/20 28/26/28 21/19/21
f 20/18/20 22/20/22 29/27/29
f 20/18/20 29/27/29 28/26/28
f 23/21/23 30/28/30 25/23/25
f 23/21/23 21/19/21 30/28/30
f 21/19/21 28/26/28 30/28/30
f 24/22/24 26/24/26 31/29/31
f 24/22/24 31/29/31 22/20/22
f 27/25/27 25/23/25 32/30/32
f 27/25/27 33/31/33 26/24/26
f 27/25/27 32/30/32 33/31/33
f 25/23/25 30/28/30 32/30/32
f 29/27/29 34/32/34 28/26/28
f 29/27/29 22/20/22 35/33/35
f 29/27/29 35/33/35 34/32/34
f 35/33/35 22/20/22 31/29/31
f 35/33/35 31/29/31 34/32/34
f 32/30/32 34/32/34 33/31/33
f 32/30/32 30/28/30 34/32/34
f 30/28/30 28/26/28 34/32/34
f 26/24/26 36/34/36 31/29/31
f 26/24/26 33/31/33 36/34/36
f 36/34/36 34/32/34 31/29/31
f 36/34/36 33/31/33 34/32/34
f 37/35/37 38/36/38 39/37/39
f 37/35/37 40/38/40 38/36/38
f 37/35/37 39/37/39 41/39/41
f 37/35/37 42/36/42 40/38/40
f 37/35/37 41/39/41 43/40/43
f 37/35/37 44/37/44 42/36/42
f 37/35/37 43/40/43 45/39/45
f 37/35/37 45/39/45 44/37/44
f 38/36/38 46/41/46 39/37/39
f 38/36/38 40/38/40 47/42/47
f 38/36/38 47/42/47 46/41/46
f 42/36/42 44/37/44 46/41/46
f 42/36/42 47/42/47 40/38/40
f 42/36/42 46/41/46 47/42/47
f 44/37/44 45/39/45 46/41/46
f 39/37/39 46/41/46 41/39/41
f 43/40/43 48/43/48 45/39/45
f 43/40/43 41/39/41 48/43/48
f 48/43/48 41/39/41 46/41/46
f 48/43/48 46/41/46 45/39/45
f 49/44/49 50/45/50 51/46/51
f 49/44/49 52/47/52 50/45/50
f 49/44/49 51/46/51 53/48/53
f 49/44/49 54/49/54 52/47/52
f 49/44/49 53/48/53 55/50/55
f 49/44/49 56/51/56 54/49/54
f 49/44/49 55/50/55 56/51/56
f 50/45/50 52/47/52 57/52/57
f 51/46/51 58/53/58 53/48/53
f 51/46/51 59/54/59 58/53/58
f 51/46/51 60/55/60 59/54/59
f 54/49/54 56/51/56 61/56/61
f 54/49/54 61/56/61 62/57/62
f 52/47/52 63/58/63 57/52/57
f 53/48/53 58/53/58 64/59/64
f 60/55/60 65/60/65 59/54/59
f 56/51/56 66/61/66 61/56/61
f 62/57/62 61/56/61 67/62/67
f 62/57/62 67/62/67 68/63/68
f 62/57/62 68/63/68 69/64/69
f 58/53/58 70/65/70 64/59/64
f 58/53/58 59/54/59 71/66/71
f 58/53/58 71/66/71 70/65/70
f 61/56/61 66/61/66 70/65/70
f 61/56/61 71/66/71 67/62/67
f 61/56/61 70/65/70 71/66/71
f 65/60/65 72/67/72 59/54/59
f 59/54/59 72/67/72 71/66/71
f 73/68/73 65/69/65 60/70/60
f 73/68/73 72/70/72 65/69/65
f 73/68/73 60/70/60 63/71/63
f 73/68/73 69/71/69 72/70/72
f 73/68/73 63/71/63 74/72/74
f 73/68/73 74/72/74 69/71/69
f 63/71/63 52/73/52 74/72/74
f 69/71/69 74/72/74 62/73/62
f 52/73/52 54/74/54 74/72/74
f 74/72/74 54/74/54 62/73/62
f 75/75/75 76/76/76 77/77/77
f 75/75/75 78/78/78 76/76/76
f 75/75/75 77/77/77 79/79/79
f 75/75/75 80/75/80 78/78/78
f 75/75/75 79/79/79 81/80/81
f 75/75/75 81/80/81 80/75/80
f 76/76/76 78/78/78 82/81/82
f 76/76/76 82/81/82 83/82/83
f 77/77/77 84/83/84 79/79/79
f 81/80/81 85/79/85 80/75/80
f 81/80/81 79/79/79 86/84/86
f 81/80/81 86/84/86 85/79/85
f 78/78/78 87/76/87 82/81/82
f 78/78/78 80/75/80 87/76/87
f 83/82/83 82/81/82 88/85/88
f 83/82/83 88/85/88 89/86/89
f 84/83/84 90/87/90 79/79/79
f 79/79/79 90/87/90 86/84/86
f 85/79/85 91/77/91 80/75/80
f 85/79/85 86/84/86 92/87/92
f 85/79/85 93/83/93 91/77/91
f 85/79/85 92/87/92 93/83/93
f 91/77/91 87/76/87 80/75/80
f 82/81/82 94/82/94 88/85/88
f 82/81/82 87/76/87 94/82/94
f 89/86/89 88/85/88 95/88/95
f 89/86/89 95/88/95 96/89/96
f 90/87/90 97/90/97 86/84/86
f 86/84/86 97/90/97 92/87/92
f 94/82/94 98/86/98 88/85/88
f 88/85/88 98/86/98 95/88/95
f 98/86/98 99/89/99 95/88/95
f 100/91/100 101/92/101 102/93/102
f 100/91/100 103/94/103 101/92/101
f 100/91/100 102/93/102 104/95/104
f 100/91/100 105/92/105 103/94/103
f 100/91/100 104/95/104 106/93/106
f 100/91/100 106/93/106 105/92/105
f 101/92/101 107/96/107 102/93/102
f 104/95/104 99/97/99 106/93/106
f 104/95/104 102/93/102 96/97/96
f 104/95/104 108/98/34 99/97/99
f 104/95/104 96/97/96 108/98/34
f 102/93/102 107/96/107 96/97/96
f 105/92/105 106/93/106 109/96/108
f 109/96/108 106/93/106 99/97/99
f 108/98/34 96/97/96 95/99/95
f 108/98/34 95/99/95 99/97/99
f 107/100/107 84/101/84 110/102/109
f 107/100/107 90/103/90 84/101/84
f 107/100/107 110/102/109 96/104/96
f 107/100/107 111/105/110 90/103/90
f 107/100/107 112/106/111 111/105/110
f 112/106/111 109/100/108 111/105/110
f 109/100/108 92/103/92 111/105/110
f 109/100/108 93/101/93 92/103/92
f 109/100/108 113/102/112 93/101/93
f 109/100/108 99/104/99 113/102/112
f 114/107/113 115/108/114 116/109/115
f 114/107/113 117/110/116 115/108/114
f 114/107/113 116/109/115 118/111/117
f 114/107/113 118/111/117 117/110/116
f 119/112/118 120/113/119 121/114/120
f 119/112/118 122/115/121 120/113/119
f 119/112/118 121/114/120 123/116/122
f 119/112/118 123/116/122 122/115/121
f 124/117/123 125/118/124 126/119/125
f 124/117/123 127/120/126 125/118/124
f 124/117/123 126/119/125 128/121/127
f 124/117/123 128/121/127 127/120/126
f 129/122/128 130/123/129 131/124/130
f 129/122/128 132/125/131 130/123/129
f 129/122/128 131/124/130 133/126/132
f 129/122/128 133/126/132 132/125/131
f 134/127/133 135/128/134 136/129/135
f 134/127/133 137/130/136 135/128/134
f 134/127/133 136/129/135 138/131/137
f 134/127/133 138/131/137 137/130/136
f 139/132/138 140/133/139 141/134/140
f 139/132/138 142/135/141 140/133/139
f 139/132/138 141/134/140 143/136/142
f 139/132/138 143/136/142 142/135/141
f 144/137/143 56/138/56 55/139/55
f 144/137/143 64/140/64 56/138/56
f 144/137/143 55/139/55 53/141/53
f 144/137/143 53/141/53 64/140/64
f 56/138/56 64/140/64 145/142/144
f 56/138/56 145/142/144 66/139/66
f 64/140/64 70/141/70 145/142/144
f 145/142/144 70/141/70 66/139/66
f 112/143/64 105/92/145 109/96/146
f 112/143/64 103/94/147 105/92/145
f 112/143/64 101/92/148 103/94/147
f 112/143/64 107/96/149 101/92/148
f 146/144/150 63/145/63 60/146/60
f 146/144/150 57/147/57 63/145/63
f 146/144/150 60/146/60 51/148/51
f 57/147/57 146/144/151 50/149/50
f 50/149/50 146/144/151 51/148/51
f 147/144/152 72/146/72 69/145/69
f 147/144/152 71/148/71 72/146/72
f 147/144/152 69/145/69 68/147/68
f 71/148/71 147/144/153 67/149/67
f 67/149/67 147/144/153 68/147/68
f 97/150/97 111/151/110 92/152/92
f 97/150/97 90/152/90 111/151/110
vt 0.337451 0.965931
vt 0.232558 0.848329
vt 0.0720924 0.902614
v 0.182098 0.579762 0.0516977
vt 0.502895 0.887613
vn 0.9342028 0.3179219 0.161836
vt 0.823804 0.78909
vt 0.871466 0.943032
vt 0.505204 0.735949
vt 0.518474 1.02209
v -0.182098 0.579762 0.0516977
vn -0.9342028 0.3179219 0.161836
o merged_1_0_node
g polygon_0
usemtl TEX_ANIM_EYE_mat_id
f 98/153/98 113/154/112 99/155/99
f 148/156/154 77/157/77 76/158/76
f 84/159/84 77/157/77 148/156/154
f 89/153/89 96/155/96 110/154/109
f 148/156/154 110/154/109 84/159/84
f 89/153/89 110/154/109 148/156/154
f 148/156/154 76/158/76 83/160/83
f 148/156/154 83/160/83 89/153/89
f 149/156/155 113/154/112 98/153/98
f 93/159/93 113/154/112 149/156/155
f 149/156/155 98/153/98 94/160/94
f 149/156/155 94/160/94 87/158/87
f 149/156/155 87/158/87 91/157/91
f 149/156/155 91/157/91 93/159/93
