mtllib Lugia.mtl
v 0 0.397757 -0.481012
vt 0.394064 0.187912
vn 0 0.9755661 -0.219706
v -0.162829 0.362433 -0.258352
vn -0.742307 0.416871 -0.524594
v 0 0.425163 -0.280194
vn 0 0.9676211 -0.252407
v -0.0850379 0.312121 -0.4902
vn -0.95192 -0.126511 -0.279004
v 0.162829 0.362433 -0.258351
vn 0.742307 0.416871 -0.524594
v -0.0378115 0.362128 -0.670675
vn -0.9625319 0.198356 -0.184898
v 0.0850379 0.312121 -0.4902
vn 0.95192 -0.126511 -0.279004
v 0 0.400324 -0.667921
vn 0 0.9943941 -0.105737
v 0.0378115 0.362128 -0.670675
vn 0.9625319 0.198356 -0.184898
v 0 0.181301 -0.33132
vn 0 -0.676948 -0.7360309
v -0.259239 0.229091 -0.19613
vn -0.8756517 -0.0121724 -0.4827898
v 0.259239 0.229091 -0.19613
vn 0.8756517 -0.0121724 -0.4827898
v 0 0.351576 -0.875655
vn 0 0.158083 -0.9874259
v 0 0.32636 -0.680085
vn 0 -0.9367952 -0.3498781
v 0 0.232467 -0.514155
vn 0.0004867669 -0.9258529 -0.377884
v 0.20554 0.615187 0.4704181
vt 0.890043 0.0342003
vn 0.7918469 -0.149507 -0.592137
v 0 0.497214 0.449365
vn 0 -0.6131909 -0.7899348
v 0 0.608903 0.3916541
vn 0 -0.2422001 -0.9702263
v 0.170079 0.500569 0.5190771
vn 0.5672591 -0.6531581 -0.5015991
v 0.0874477 0.736122 0.4116451
vn 0.354384 -0.131301 -0.9258359
v 0.230399 0.468296 0.733525
vn 0.7983578 -0.5928489 0.105617
v 0.201824 0.778675 0.4993691
vn 0.8612407 0.3731169 -0.3450339
v 0.269197 0.589546 0.7142481
vn 0.962468 -0.001063 0.271393
v -0.20554 0.615187 0.4704181
vn -0.7918545 -0.1494559 -0.5921397
v 0 0.433449 0.5423961
vn 0 -0.92013 -0.391613
v -0.170079 0.500569 0.5190771
vn -0.5671332 -0.6531652 -0.5017322
v 0 1.03217 0.3027321
vn 0 0.8345891 -0.550873
v -0.0874477 0.736122 0.4116451
vn -0.354384 -0.131301 -0.9258359
v 0.104459 0.403937 0.701041
vn 0.2641671 -0.9618213 -0.07152372
v 0.112035 0.459359 0.92498
vn 0.4188631 -0.7573603 0.5009582
v -0.230399 0.468165 0.733525
vn -0.798147 -0.593146 0.105543
v -0.104459 0.403937 0.701041
vn -0.2638299 -0.9619086 -0.07159328
v 0.156938 0.856717 0.6849931
vn 0.6140981 0.7666731 0.187339
v 0.230283 0.787555 0.7126151
vn 0.7927838 0.4408349 0.4209019
v -0.201824 0.778675 0.4993691
vn -0.8612361 0.37313 -0.345031
v 0 0.4198 0.8341531
vn 0 -0.9686596 0.2483919
v -0.112035 0.459359 0.92498
vn -0.4183829 -0.7576649 0.500899
v 0 0.945416 0.6771181
vn 0 0.953384 0.30176
v 0 0.845977 0.8573141
vn 0 0.8385487 0.5448268
v 0.124069 0.725392 0.940367
vn 0.6613699 0.4357589 0.6104949
v -0.269197 0.589415 0.7142481
vn -0.9624643 -0.0010993 0.2714061
v -0.156938 0.856717 0.6849931
vn -0.6140981 0.7666731 0.187339
v 0 0.684285 1.01217
vn -0.000114985 0.4481901 0.8939382
v -0.230283 0.787555 0.7126151
vn -0.7928789 0.440638 0.420929
v -0.124069 0.725392 0.940367
vn -0.6614717 0.4355878 0.6105067
v 0 0.507868 0.475949
vt 0.363719 0.054292
vn 0 0.9989643 0.04550231
v -0.0279438 0.482404 0.488313
vn -0.8962432 0.191892 0.3999071
v 0 0.503981 0.52125
vn 0 0.4030299 0.9151868
v -0.11591 0.448554 0.201267
vn -0.09405273 0.9754303 0.1992231
v 0.0279438 0.482404 0.488313
vn 0.8962433 0.1918931 0.3999062
v 0 0.493978 0.179667
vn 0 0.9997374 0.02291599
v 0.11591 0.448554 0.201267
vn 0.09405314 0.9754305 0.1992221
v 0 0.449772 0.499838
vn 0 -0.6506563 0.7593724
v -0.123563 0.321182 0.264018
vn -0.7466979 -0.3364289 0.5738099
v -0.14862 0.397362 0.198572
vn -0.552274 -0.752106 0.359625
v 0.123563 0.321182 0.264018
vn 0.7466979 -0.3364289 0.5738099
v 0.14862 0.397362 0.198572
vn 0.5522729 -0.7521068 0.3596249
v -0.26629 0.176828 0.0165752
vn -0.8423348 -0.3974419 0.3640219
v 0.26629 0.176828 0.0165753
vn 0.8423348 -0.3974419 0.3640219
v 0 0.245041 0.282028
vn 0 -0.765778 0.643105
v 0 0.502721 -0.0276589
vt 0.363759 0.0412185
vn 0 0.9889017 -0.148571
v -0.156423 0.46165 -0.0215061
vn -0.01480531 0.9893333 -0.144915
v 0.156424 0.46165 -0.021506
vn 0.01480571 0.9893333 -0.144915
v -0.207849 0.428305 -0.0226544
vn -0.8044657 -0.5587858 -0.2014779
v 0.207849 0.428305 -0.0226543
vn 0.8044659 -0.5587859 -0.201477
vt -6.13928E-05 -0.00269081
v 0.0617232 0.0560705 -0.0697609
vt 0.224565 0.35291
vn -0.0198123 -0.9938191 0.109229
v -0.0617231 0.0560705 -0.0697609
vt -0.227999 0.35291
vn 0.0198124 -0.9938191 0.109229
v 0.173834 -0.00234802 -0.203009
vt 0.579302 0.205604
vn 0.3371551 -0.8342463 -0.4363022
vt 0.875314 -0.249188
v -0.173834 -0.00234805 -0.203009
vn -0.3371549 -0.8342466 -0.4363018
v 0 0.0659991 0.0235549
vt 0.000984885 0.257638
vn 0 -0.8575337 0.5144278
vt 0.503191 0.553727
vt 0.414189 0.376033
vt -0.396837 0.37398
vt -0.210812 0.621017
vt 0.855268 0.977405
v -0.121829 0.557803 0.9922401
vn -0.7154808 -0.03152419 0.6979208
v 0 0.523579 1.04691
vn -0.0002512799 0.2113409 0.9774124
v 0.121829 0.557934 0.9922401
vn 0.7154379 -0.03147539 0.6979669
v 0 0.538332 1.01077
vt 0.267162 0.90762
vn 0.000188063 -0.6804482 0.7327962
vt 0.352588 0.779512
vt 0.718979 0.781442
vt 0.810692 0.934011
vt 0.718981 0.781609
vt 0.810694 0.934178
v 0 0.351953 -0.832314
vt 0.978069 0.989046
vn 0 -0.9999956 -0.002961559
v 0 0.35155 -0.695996
v -0.193019 0.404101 -0.823299
vn -0.260939 -0.965351 -0.00285896
v 0.193019 0.404101 -0.823299
vn 0.260939 -0.965351 -0.00285896
vn 0 0.9999956 0.002961559
vn 0.260939 0.965351 0.00285896
vn -0.260939 0.965351 0.00285896
vn 0.0004867669 -0.9258528 -0.3778839
vn -0.0901327 -0.9220849 -0.376345
vn 0.0911174 -0.9220011 -0.3763131
vt 0.92731 0.952835
vn 0.4855141 -0.119158 -0.8660702
vn 0.07240379 -0.7596068 -0.6463398
v -0.390091 0.860062 0.3826301
vn -0.8573317 -0.03896029 -0.5132878
vn -0.4854921 -0.119211 -0.8660752
v 0.390091 0.860062 0.3826301
vn 0.8570283 -0.03898852 -0.5137922
vn -0.07218199 -0.7598099 -0.6461259
v -0.161663 0.523175 0.27482
vt 0.971181 0.98466
vn -0.6273599 -0.7752679 0.0733427
v -0.198366 0.544299 0.184153
v -0.0591231 0.428971 0.156141
vn 0.6273599 0.7752679 -0.0733427
v -0.212956 0.559678 0.144005
vn -0.6473354 -0.7621705 -0.007288954
v -0.222988 0.569304 0.0284557
v -0.0629699 0.433076 0.0618268
vn 0.6473354 0.7621705 0.007288954
v -0.229013 0.562817 0.000437498
vn -0.6409892 -0.7560382 0.132435
v -0.238972 0.55107 -0.114827
v -0.0780024 0.424691 -0.0571949
vn 0.6409887 0.7560387 -0.1324349
v -0.230163 0.521771 -0.144071
vn -0.6330568 -0.7466827 0.2042159
v -0.228826 0.490946 -0.252633
v -0.0758681 0.385975 -0.16228
vn 0.6330568 0.7466827 -0.2042159
v -0.211208 0.475403 -0.277114
vt 0.976244 0.987482
vn 0.6426241 0.7579681 -0.111887
v -0.0830599 0.372327 -0.239374
v -0.183058 0.439682 -0.357419
vn -0.6426241 -0.7579681 0.111887
v 0.161663 0.523175 0.27482
vn -0.6273599 0.7752679 -0.0733427
v 0.198366 0.544299 0.184153
v 0.0591231 0.428971 0.156141
vn 0.6273599 -0.7752679 0.0733427
v 0.212956 0.559678 0.144005
vn -0.6473354 0.7621705 0.007288554
v 0.222988 0.569304 0.0284557
v 0.0629699 0.433076 0.0618268
vn 0.6473354 -0.7621705 -0.007288554
v 0.229013 0.562817 0.00043751
vn -0.6409886 0.7560385 -0.1324359
v 0.238972 0.55107 -0.114827
v 0.0780024 0.424691 -0.0571949
vn 0.6409887 -0.7560387 0.1324349
v 0.230163 0.521771 -0.144071
vn -0.6330568 0.7466827 -0.2042159
v 0.228826 0.490946 -0.252633
v 0.0758681 0.385975 -0.16228
vn 0.6330568 -0.7466827 0.2042159
v 0.211208 0.475403 -0.277114
vn -0.6426247 0.7579676 -0.1118869
v 0.183058 0.439682 -0.357419
v 0.0830599 0.372327 -0.239374
vn 0.6426247 -0.7579676 0.1118869
vt 0.973933 0.983548
vt 0.919664 0.0450798
o merged_0_0_node
g polygon_0
usemtl mat_body1_mat_id
f 1/1/1 2/1/2 3/1/3
f 1/1/1 4/1/4 2/1/2
f 1/1/1 3/1/3 5/1/5
f 1/1/1 6/1/6 4/1/4
f 1/1/1 5/1/5 7/1/7
f 1/1/1 8/1/8 6/1/6
f 1/1/1 7/1/7 9/1/9
f 1/1/1 9/1/9 8/1/8
f 2/1/2 4/1/4 10/1/10
f 2/1/2 10/1/10 11/1/11
f 5/1/5 10/1/10 7/1/7
f 5/1/5 12/1/12 10/1/10
f 6/1/6 8/1/8 13/1/13
f 6/1/6 14/1/14 4/1/4
f 6/1/6 13/1/13 14/1/14
f 9/1/9 7/1/7 14/1/14
f 9/1/9 13/1/13 8/1/8
f 9/1/9 14/1/14 13/1/13
f 10/1/10 4/1/4 15/1/15
f 10/1/10 15/1/15 7/1/7
f 15/1/15 4/1/4 14/1/14
f 15/1/15 14/1/14 7/1/7
f 16/2/16 17/2/17 18/2/18
f 16/2/16 19/2/19 17/2/17
f 16/2/16 18/2/18 20/2/20
f 16/2/16 21/2/21 19/2/19
f 16/2/16 20/2/20 22/2/22
f 16/2/16 23/2/23 21/2/21
f 16/2/16 22/2/22 23/2/23
f 17/2/17 24/2/24 18/2/18
f 17/2/17 19/2/19 25/2/25
f 17/2/17 26/2/26 24/2/24
f 17/2/17 25/2/25 26/2/26
f 20/2/20 27/2/27 22/2/22
f 20/2/20 18/2/18 28/2/28
f 20/2/20 28/2/28 27/2/27
f 18/2/18 24/2/24 28/2/28
f 21/2/21 29/2/29 19/2/19
f 21/2/21 30/2/30 29/2/29
f 19/2/19 29/2/29 25/2/25
f 26/2/26 31/2/31 24/2/24
f 26/2/26 25/2/25 32/2/32
f 26/2/26 32/2/32 31/2/31
f 25/2/25 29/2/29 32/2/32
f 22/2/22 27/2/27 33/2/33
f 22/2/22 33/2/33 34/2/34
f 28/2/28 24/2/24 35/2/35
f 28/2/28 35/2/35 27/2/27
f 30/2/30 36/2/36 29/2/29
f 30/2/30 37/2/37 36/2/36
f 32/2/32 37/2/37 31/2/31
f 32/2/32 29/2/29 36/2/36
f 32/2/32 36/2/36 37/2/37
f 33/2/33 27/2/27 38/2/38
f 33/2/33 38/2/38 39/2/39
f 33/2/33 39/2/39 40/2/40
f 24/2/24 41/2/41 35/2/35
f 24/2/24 31/2/31 41/2/41
f 27/2/27 42/2/42 38/2/38
f 27/2/27 35/2/35 42/2/42
f 38/2/38 42/2/42 39/2/39
f 40/2/40 39/2/39 43/2/43
f 35/2/35 44/2/44 42/2/42
f 39/2/39 45/2/45 43/2/43
f 39/2/39 42/2/42 45/2/45
f 46/3/46 47/3/47 48/3/48
f 46/3/46 49/3/49 47/3/47
f 46/3/46 48/3/48 50/3/50
f 46/3/46 51/3/51 49/3/49
f 46/3/46 50/3/50 52/3/52
f 46/3/46 52/3/52 51/3/51
f 47/3/47 53/3/53 48/3/48
f 47/3/47 54/3/54 53/3/53
f 48/3/48 53/3/53 50/3/50
f 49/3/49 55/3/55 54/3/54
f 52/3/52 56/3/56 57/3/57
f 50/3/50 53/3/53 56/3/56
f 55/3/55 58/3/58 54/3/54
f 57/3/57 56/3/56 59/3/59
f 53/3/53 54/3/54 60/3/60
f 53/3/53 60/3/60 56/3/56
f 61/4/61 3/4/3 62/4/62
f 61/4/61 63/4/63 3/4/3
f 61/4/61 62/4/62 51/4/51
f 61/4/61 51/4/51 63/4/63
f 3/4/3 2/4/2 62/4/62
f 3/4/3 63/4/63 5/4/5
f 51/4/51 62/4/62 49/4/49
f 51/4/51 52/4/52 63/4/63
f 2/4/2 11/4/11 64/4/64
f 5/4/5 65/4/65 12/4/12
f 49/4/49 54/4/54 47/4/47
f 52/4/52 50/4/50 56/4/56
f 11/4/11 58/4/58 64/4/64
f 65/4/65 59/4/59 12/4/12
f 65/4/65 57/4/57 59/4/59
f 58/4/58 55/4/55 64/4/64
f 10/5/10 66/6/66 67/7/67
f 10/5/10 68/8/68 66/6/66
f 10/5/10 12/9/12 68/8/68
f 10/5/10 67/6/67 69/8/69
f 10/5/10 69/8/69 11/9/11
f 67/7/67 66/6/66 70/10/70
f 12/9/12 59/9/59 68/8/68
f 67/6/67 70/10/70 58/6/58
f 69/8/69 58/9/58 11/9/11
f 69/8/69 67/5/67 58/9/58
f 66/6/66 59/6/59 70/10/70
f 59/9/59 66/5/66 68/8/68
f 60/11/60 54/12/54 58/13/58
f 60/11/60 58/13/58 70/14/70
f 60/11/60 70/14/70 59/13/59
f 60/11/60 59/13/59 56/12/56
f 43/15/43 45/15/45 71/15/71
f 43/15/43 71/15/71 72/15/72
f 43/15/43 72/15/72 73/15/73
f 43/15/43 73/15/73 40/15/40
f 74/16/74 37/17/37 30/17/30
f 74/16/74 71/16/71 37/17/37
f 74/16/74 30/17/30 73/16/73
f 71/16/71 31/18/31 37/17/37
f 71/16/71 41/19/41 31/18/31
f 30/17/30 21/20/21 73/16/73
f 21/20/21 23/21/23 73/16/73
f 75/22/75 76/22/75 77/22/76
f 75/22/75 78/22/77 76/22/75
f 76/22/78 75/22/78 77/22/79
f 76/22/78 78/22/80 75/22/78
f 72/2/81 71/2/82 74/2/81
f 72/2/81 74/2/81 73/2/83
f 35/23/84 41/23/85 79/23/86
f 35/23/84 79/23/86 44/23/44
f 22/23/87 80/23/88 23/23/89
f 22/23/87 34/23/34 80/23/88
f 65/3/65 5/3/5 63/3/63
f 64/3/64 62/3/62 2/3/2
f 81/24/90 82/24/90 83/24/90
f 83/24/91 82/24/91 81/24/91
f 84/24/92 85/24/92 86/24/92
f 86/24/93 85/24/93 84/24/93
f 87/24/94 88/24/94 89/24/94
f 89/24/95 88/24/95 87/24/95
f 90/24/96 91/24/96 92/24/96
f 92/24/97 91/24/97 90/24/97
f 93/25/98 94/25/98 95/25/98
f 94/25/99 93/25/99 95/25/99
f 96/24/100 97/24/100 98/24/100
f 98/24/101 97/24/101 96/24/101
f 99/24/102 100/24/102 101/24/102
f 101/24/103 100/24/103 99/24/103
f 102/24/104 103/24/104 104/24/104
f 104/24/105 103/24/105 102/24/105
f 105/24/106 106/24/106 107/24/106
f 107/24/107 106/24/107 105/24/107
f 108/24/108 109/24/108 110/24/108
f 110/24/109 109/24/109 108/24/109
f 41/26/41 44/26/44 79/26/86
f 34/26/34 23/26/23 80/26/88
f 44/27/44 45/27/45 42/27/42
f 33/27/33 40/27/40 34/27/34
v -0.6220905 0.4857339 0.3595009
vt 0.628618 0.00346673
vn -0.1132768 -0.8956215 0.4301517
vt 1.72031 1.01066
vt 1.87643 0.427552
v -0.6179096 0.5648673 0.3566889
vt 0.242263 0.0108788
vn 0.1768798 0.9305936 0.3204826
v -0.6905975 0.5715162 0.2087937
vt 0.433834 0.400658
vn -0.01757048 0.9943714 -0.1044835
vt 0.253278 0.00346613
v -0.6888986 0.4876322 0.2081942
vt 0.429356 0.402238
vn -0.3002138 -0.9533747 0.03079859
v -0.6632755 0.5171342 -0.01910938
vt 0.361832 1.0013
vn 0.0261355 0.9472306 -0.3194855
v -0.6627685 0.4895315 -0.01897039
vt 0.360495 1.00093
vn -0.186037 -0.9686592 -0.1645895
vt -1.08075 0.420449
vt -0.973968 1.00764
vt -0.140593 1.00533
vt -0.994536 0.427552
vt 0.452541 0.402238
vt 0.521401 1.00093
v 0.6220933 0.4857368 0.3594969
vn 0.1132718 -0.8956237 0.4301486
v 0.6179139 0.56487 0.3566848
vn -0.1768767 0.9305949 0.3204804
v 0.688902 0.4876358 0.2081919
vn 0.3002113 -0.9533753 0.03079828
v 0.6627731 0.4895354 -0.01896976
vn 0.1860324 -0.9686601 -0.1645891
vt -0.838418 1.01066
v 0.6632802 0.5171379 -0.01910857
vn -0.02612912 0.9472314 -0.3194836
v 0.6906015 0.5715196 0.2087922
vn 0.01757692 0.9943714 -0.1044833
o merged_1_0_node
g polygon_0
usemtl mat_hand1_mat_id
f 111/28/110 64/29/64 55/30/55
f 112/31/111 113/32/112 111/33/110
f 111/33/110 113/32/112 114/34/113
f 113/32/112 115/35/114 114/34/113
f 115/35/114 116/36/115 114/34/113
f 49/37/49 62/38/62 112/31/111
f 112/31/111 62/38/62 113/32/112
f 62/38/62 115/35/114 113/32/112
f 64/39/64 116/36/115 62/38/62
f 62/38/62 116/36/115 115/35/114
f 112/31/111 111/33/110 49/37/49
f 55/40/55 49/37/49 111/33/110
f 111/28/110 114/41/113 64/29/64
f 64/29/64 114/41/113 116/42/115
f 117/33/116 52/37/52 57/40/57
f 118/31/117 52/37/52 117/33/116
f 117/28/116 57/30/57 65/29/65
f 117/28/116 65/29/65 119/41/118
f 65/29/65 120/42/119 119/41/118
f 65/43/65 63/38/63 120/36/119
f 120/36/119 63/38/63 121/35/120
f 52/37/52 118/31/117 63/38/63
f 118/31/117 122/32/121 63/38/63
f 63/38/63 122/32/121 121/35/120
f 118/31/117 117/33/116 122/32/121
f 117/33/116 119/34/118 122/32/121
f 122/32/121 119/34/118 121/35/120
f 121/35/120 119/34/118 120/36/119
vt -0.0330822 0.754559
vt 0.316802 0.95244
vt 1.37562 0.780038
vt 1.48865 0.995545
vt -0.0330075 0.754719
vt 1.37569 0.780199
o merged_2_0_node
g polygon_0
usemtl TEX_ANIM_EYE_mat_id
f 71/44/71 45/45/45 41/46/41
f 41/46/41 45/45/45 44/47/44
f 73/48/73 23/49/23 40/45/40
f 40/45/40 23/49/23 34/47/34
