ply
format ascii 1.0
element vertex 540
property float x
property float y
property float z
property uchar red
property uchar green
property uchar blue
element face 588
property list uchar int vertex_index
end_header
0.35094 0.04854 1.85371 136 222 196
0.35094 0.04854 1.98204 136 222 196
0.6351 0.04854 1.98204 136 222 196
0.6351 0.04854 1.85371 136 222 196
0.35094 0.17687 1.85371 136 222 196
0.6351 0.17687 1.85371 136 222 196
0.65398 0.16061 1.86996 136 222 196
0.65398 0.06479 1.86996 136 222 196
0.65398 0.06479 1.96578 136 222 196
0.35094 0.04854 1.98204 139 228 202
0.35094 0.17687 1.98204 139 228 202
0.6351 0.17687 1.98204 139 228 202
0.6351 0.04854 1.98204 139 228 202
0.65398 0.06479 1.96578 139 228 202
0.65398 0.16061 1.96578 139 228 202
0.35094 0.17687 1.98204 136 222 196
0.6351 0.17687 1.98204 136 222 196
0.65398 0.16061 1.96578 136 222 196
0.35094 0.04854 1.641 136 222 196
0.35094 0.04854 1.76933 136 222 196
0.6849 0.04854 1.76933 136 222 196
0.6849 0.04854 1.641 136 222 196
0.35094 0.17687 1.641 136 222 196
0.6849 0.17687 1.641 136 222 196
0.70377 0.16061 1.65725 136 222 196
0.70377 0.06479 1.65725 136 222 196
0.70377 0.06479 1.75307 136 222 196
0.35094 0.04854 1.76933 139 228 202
0.35094 0.17687 1.76933 139 228 202
0.6849 0.17687 1.76933 139 228 202
0.6849 0.04854 1.76933 139 228 202
0.70377 0.06479 1.75307 139 228 202
0.70377 0.16061 1.75307 139 228 202
0.35094 0.17687 1.76933 136 222 196
0.6849 0.17687 1.76933 136 222 196
0.70377 0.16061 1.75307 136 222 196
0.35094 0.04854 1.44348 136 222 196
0.35094 0.04854 1.57181 136 222 196
0.5555 0.04854 1.57181 136 222 196
0.5555 0.04854 1.44348 136 222 196
0.35094 0.17687 1.44348 136 222 196
0.5555 0.17687 1.44348 136 222 196
0.57437 0.16061 1.45974 136 222 196
0.57437 0.06479 1.45974 136 222 196
0.57437 0.06479 1.55556 136 222 196
0.35094 0.04854 1.57181 139 228 202
0.35094 0.17687 1.57181 139 228 202
0.5555 0.17687 1.57181 139 228 202
0.5555 0.04854 1.57181 139 228 202
0.57437 0.06479 1.55556 139 228 202
0.57437 0.16061 1.55556 139 228 202
0.35094 0.17687 1.57181 136 222 196
0.5555 0.17687 1.57181 136 222 196
0.57437 0.16061 1.55556 136 222 196
-0.35094 0.04854 1.85371 136 222 196
-0.6351 0.04854 1.85371 136 222 196
-0.6351 0.04854 1.98204 136 222 196
-0.35094 0.04854 1.98204 136 222 196
-0.35094 0.17687 1.85371 136 222 196
-0.6351 0.17687 1.85371 136 222 196
-0.65398 0.16061 1.86996 136 222 196
-0.65398 0.06479 1.86996 136 222 196
-0.65398 0.06479 1.96578 136 222 196
-0.35094 0.04854 1.98204 139 228 202
-0.6351 0.04854 1.98204 139 228 202
-0.6351 0.17687 1.98204 139 228 202
-0.35094 0.17687 1.98204 139 228 202
-0.65398 0.06479 1.96578 139 228 202
-0.65398 0.16061 1.96578 139 228 202
-0.35094 0.17687 1.98204 136 222 196
-0.6351 0.17687 1.98204 136 222 196
-0.65398 0.16061 1.96578 136 222 196
-0.35094 0.04854 1.641 136 222 196
-0.6849 0.04854 1.641 136 222 196
-0.6849 0.04854 1.76933 136 222 196
-0.35094 0.04854 1.76933 136 222 196
-0.35094 0.17687 1.641 136 222 196
-0.6849 0.17687 1.641 136 222 196
-0.70377 0.16061 1.65725 136 222 196
-0.70377 0.06479 1.65725 136 222 196
-0.70377 0.06479 1.75307 136 222 196
-0.35094 0.04854 1.76933 139 228 202
-0.6849 0.04854 1.76933 139 228 202
-0.6849 0.17687 1.76933 139 228 202
-0.35094 0.17687 1.76933 139 228 202
-0.70377 0.06479 1.75307 139 228 202
-0.70377 0.16061 1.75307 139 228 202
-0.35094 0.17687 1.76933 136 222 196
-0.6849 0.17687 1.76933 136 222 196
-0.70377 0.16061 1.75307 136 222 196
-0.35094 0.04854 1.44348 136 222 196
-0.5555 0.04854 1.44348 136 222 196
-0.5555 0.04854 1.57181 136 222 196
-0.35094 0.04854 1.57181 136 222 196
-0.35094 0.17687 1.44348 136 222 196
-0.5555 0.17687 1.44348 136 222 196
-0.57437 0.16061 1.45974 136 222 196
-0.57437 0.06479 1.45974 136 222 196
-0.57437 0.06479 1.55556 136 222 196
-0.35094 0.04854 1.57181 139 228 202
-0.5555 0.04854 1.57181 139 228 202
-0.5555 0.17687 1.57181 139 228 202
-0.35094 0.17687 1.57181 139 228 202
-0.57437 0.06479 1.55556 139 228 202
-0.57437 0.16061 1.55556 139 228 202
-0.35094 0.17687 1.57181 136 222 196
-0.5555 0.17687 1.57181 136 222 196
-0.57437 0.16061 1.55556 136 222 196
-0.13063 -0.7064 1.47971 136 222 196
-0.1183 -0.73648 1.49926 136 222 196
-0.08729 -0.73648 1.46424 136 222 196
-0.10144 -0.68111 1.4498 136 222 196
-0.07584 -0.70729 1.4498 136 222 196
0.08658 -0.73648 1.46424 136 222 196
0.07513 -0.70729 1.4498 136 222 196
-0.10144 -0.35004 1.4498 136 222 196
-0.13063 -0.35004 1.47971 136 222 196
-0.13063 -0.7064 1.6761 136 222 196
-0.13063 -0.35004 1.6761 136 222 196
-0.09812 -0.67823 1.70829 136 222 196
-0.09812 -0.35004 1.70829 136 222 196
-0.07296 -0.70397 1.70829 136 222 196
-0.08729 -0.73648 1.69157 136 222 196
0.07225 -0.70397 1.70829 136 222 196
0.08658 -0.73648 1.69157 136 222 196
0.09741 -0.67823 1.70829 136 222 196
0.12992 -0.7064 1.6761 136 222 196
0.11759 -0.73648 1.6583 136 222 196
0.09741 -0.35004 1.70829 136 222 196
0.12992 -0.35004 1.6761 136 222 196
0.12992 -0.7064 1.47971 136 222 196
0.12992 -0.35004 1.47971 136 222 196
0.10073 -0.68111 1.4498 136 222 196
0.10073 -0.35004 1.4498 136 222 196
0.11759 -0.73648 1.4995 136 222 196
-0.06134 -0.63494 1.66079 33 36 33
0.06063 -0.63494 1.66079 33 36 33
0.08296 -0.63494 1.63657 33 36 33
-0.08367 -0.63494 1.63657 33 36 33
-0.08367 -0.63494 1.52095 33 36 33
0.08296 -0.63494 1.52095 33 36 33
-0.06134 -0.63494 1.49502 33 36 33
0.06063 -0.63494 1.49502 33 36 33
-0.06134 -0.73648 1.66079 33 36 33
-0.08367 -0.73648 1.63657 33 36 33
0.08296 -0.73648 1.63657 33 36 33
0.06063 -0.73648 1.66079 33 36 33
-0.08367 -0.73648 1.52095 33 36 33
0.08296 -0.73648 1.52095 33 36 33
-0.06134 -0.73648 1.49502 33 36 33
0.06063 -0.73648 1.49502 33 36 33
0.09741 -0.67823 1.70829 139 228 202
0.07225 -0.70397 1.70829 139 228 202
-0.07296 -0.70397 1.70829 139 228 202
-0.09812 -0.67823 1.70829 139 228 202
0.09741 -0.35004 1.70829 139 228 202
-0.09812 -0.35004 1.70829 139 228 202
-0.08367 -0.73648 1.52095 146 231 206
-0.06134 -0.73648 1.49502 146 231 206
-0.08729 -0.73648 1.46424 146 231 206
0.06063 -0.73648 1.49502 146 231 206
0.08658 -0.73648 1.46424 146 231 206
0.08296 -0.73648 1.52095 146 231 206
-0.1183 -0.73648 1.49926 146 231 206
0.11759 -0.73648 1.4995 146 231 206
0.11759 -0.73648 1.6583 146 231 206
0.08296 -0.73648 1.63657 146 231 206
0.08658 -0.73648 1.69157 146 231 206
0.06063 -0.73648 1.66079 146 231 206
-0.08729 -0.73648 1.69157 146 231 206
-0.06134 -0.73648 1.66079 146 231 206
-0.08367 -0.73648 1.63657 146 231 206
-0.1183 -0.73648 1.65934 146 231 206
0.16359 -0.34248 1.65892 38 10 13
0.16359 -0.34248 1.66954 38 10 13
0.20549 -0.34248 1.66954 38 10 13
0.20549 -0.34248 1.65892 38 10 13
0.20549 -0.34248 1.78198 38 10 13
0.16359 -0.34248 1.78198 38 10 13
0.14 -0.34248 1.83473 161 44 54
0.14 -0.32097 1.83473 161 44 54
0.25759 -0.32097 1.83473 161 44 54
0.25759 -0.34248 1.83473 161 44 54
0.25759 -0.34248 1.66954 161 44 54
0.25759 -0.32097 1.66957 161 44 54
0.16359 -0.34248 1.78198 161 44 54
0.20549 -0.34248 1.78198 161 44 54
0.20549 -0.34248 1.66954 161 44 54
0.14 -0.34248 1.66954 161 44 54
0.16359 -0.34248 1.66954 161 44 54
0.25759 -0.34248 1.62211 161 44 54
0.25759 -0.32097 1.62211 161 44 54
0.14 -0.32097 1.62211 161 44 54
0.14 -0.34248 1.62211 161 44 54
0.14 -0.34248 1.66954 255 233 193
0.14 -0.34248 1.62211 255 233 193
0.14 -0.32097 1.62211 255 233 193
0.14 -0.32097 1.66961 255 233 193
0.14 -0.32097 1.83473 255 233 193
0.14 -0.34248 1.83473 255 233 193
0.20549 -0.34248 1.65892 204 56 60
0.20549 -0.34248 1.66954 204 56 60
0.25759 -0.34248 1.66954 204 56 60
0.25759 -0.34248 1.62211 204 56 60
0.16359 -0.34248 1.65892 204 56 60
0.14 -0.34248 1.62211 204 56 60
0.16359 -0.34248 1.66954 204 56 60
0.14 -0.34248 1.66954 204 56 60
-0.16359 -0.34248 1.65892 38 10 13
-0.20549 -0.34248 1.65892 38 10 13
-0.20549 -0.34248 1.66954 38 10 13
-0.16359 -0.34248 1.66954 38 10 13
-0.16359 -0.34248 1.78198 38 10 13
-0.20549 -0.34248 1.78198 38 10 13
-0.14 -0.34248 1.83473 161 44 54
-0.25759 -0.34248 1.83473 161 44 54
-0.25759 -0.32097 1.83473 161 44 54
-0.14 -0.32097 1.83473 161 44 54
-0.16359 -0.34248 1.78198 161 44 54
-0.20549 -0.34248 1.78198 161 44 54
-0.16359 -0.34248 1.66954 161 44 54
-0.14 -0.34248 1.66954 161 44 54
-0.25759 -0.34248 1.66954 161 44 54
-0.20549 -0.34248 1.66954 161 44 54
-0.25759 -0.32097 1.66955 161 44 54
-0.25759 -0.34248 1.62211 161 44 54
-0.25759 -0.32097 1.62211 161 44 54
-0.14 -0.32097 1.62211 161 44 54
-0.14 -0.34248 1.62211 161 44 54
-0.14 -0.34248 1.66954 255 233 193
-0.14 -0.34248 1.83473 255 233 193
-0.14 -0.32097 1.83473 255 233 193
-0.14 -0.32097 1.66955 255 233 193
-0.14 -0.32097 1.62211 255 233 193
-0.14 -0.34248 1.62211 255 233 193
-0.14 -0.34248 1.62211 204 56 60
-0.16359 -0.34248 1.65892 204 56 60
-0.16359 -0.34248 1.66954 204 56 60
-0.14 -0.34248 1.66954 204 56 60
-0.20549 -0.34248 1.65892 204 56 60
-0.25759 -0.34248 1.62211 204 56 60
-0.20549 -0.34248 1.66954 204 56 60
-0.25759 -0.34248 1.66954 204 56 60
0.23424 -0.18039 0.65844 255 233 193
0.23424 -0.18039 0.80649 255 233 193
0.23424 -0.11807 0.80649 255 233 193
0.23424 -0.11807 0.65844 255 233 193
-0.23424 -0.18039 0.65844 255 233 193
-0.23424 -0.11807 0.65844 255 233 193
-0.23424 -0.18039 0.80649 255 233 193
-0.23424 -0.11807 0.80649 255 233 193
-0.12727 -0.18039 1.20756 225 200 166
-0.12727 -0.18039 1.27891 225 200 166
0.12727 -0.18039 1.27891 225 200 166
0.12727 -0.18039 1.20756 225 200 166
0.12727 -0.11807 1.27891 225 200 166
0.12727 -0.11807 1.20756 225 200 166
-0.12727 -0.11807 1.20756 225 200 166
-0.12727 -0.11807 1.27891 225 200 166
0.12727 -0.11807 1.20756 255 233 193
0.23424 -0.11807 1.20756 255 233 193
0.23424 -0.18039 1.20756 255 233 193
0.12727 -0.18039 1.20756 255 233 193
0.23424 -0.18039 1.07593 255 233 193
0.23424 -0.11807 1.07593 255 233 193
-0.23424 -0.18039 1.07593 255 233 193
-0.12727 -0.18039 1.20756 255 233 193
-0.23424 -0.18039 1.20756 255 233 193
-0.23424 -0.11807 1.20756 255 233 193
-0.12727 -0.11807 1.20756 255 233 193
-0.23424 -0.11807 1.07593 255 233 193
0.23424 -0.18039 0.80649 225 200 166
0.23424 -0.18039 0.87241 225 200 166
0.23424 -0.11807 0.87241 225 200 166
0.23424 -0.11807 0.80649 225 200 166
-0.23424 -0.18039 0.80649 225 200 166
-0.23424 -0.18039 0.87241 225 200 166
-0.23424 -0.11807 0.80649 225 200 166
-0.23424 -0.11807 0.87241 225 200 166
0.23424 -0.18039 0.87241 255 233 193
0.23424 -0.18039 1.00606 255 233 193
0.23424 -0.11807 1.00606 255 233 193
0.23424 -0.11807 0.87241 255 233 193
-0.23424 -0.18039 0.87241 255 233 193
-0.23424 -0.18039 1.00606 255 233 193
-0.23424 -0.11807 1.00606 255 233 193
-0.23424 -0.11807 0.87241 255 233 193
0.23424 -0.18039 1.00606 225 200 166
0.23424 -0.18039 1.07593 225 200 166
0.23424 -0.11807 1.07593 225 200 166
0.23424 -0.11807 1.00606 225 200 166
-0.23424 -0.18039 1.00606 225 200 166
-0.23424 -0.18039 1.07593 225 200 166
-0.23424 -0.11807 1.00606 225 200 166
-0.23424 -0.11807 1.07593 225 200 166
-0.12727 -0.18039 1.27891 255 233 193
-0.12727 -0.18039 1.36256 255 233 193
0.12727 -0.18039 1.36256 255 233 193
0.12727 -0.18039 1.27891 255 233 193
0.12727 -0.11807 1.36256 255 233 193
0.12727 -0.11807 1.27891 255 233 193
-0.12727 -0.11807 1.36256 255 233 193
-0.12727 -0.11807 1.27891 255 233 193
-0.03771 0.18513 1.30203 255 238 206
-0.03771 0.68816 1.30203 255 238 206
0.03771 0.68816 1.30203 255 238 206
0.03771 0.18513 1.30203 255 238 206
-0.03771 0.73789 1.27082 255 238 206
0.03771 0.73789 1.27082 255 238 206
-0.03771 0.73789 1.27082 255 233 193
-0.03771 0.73789 0.95265 255 233 193
0.03771 0.73789 0.95265 255 233 193
0.03771 0.73789 1.27082 255 233 193
-0.03771 0.68816 0.92144 255 233 193
-0.03771 0.68816 1.30203 255 233 193
-0.03771 0.61051 1.15081 255 233 193
-0.03771 0.61051 1.19889 255 233 193
-0.03771 0.18513 1.30203 255 233 193
-0.03771 0.18513 1.19889 255 233 193
-0.03771 0.53187 1.06744 255 233 193
-0.03771 0.53187 1.01935 255 233 193
-0.03771 0.18513 1.15081 255 233 193
-0.03771 0.18513 1.06744 255 233 193
-0.03771 0.18513 1.01935 255 233 193
-0.03771 0.18513 0.92144 255 233 193
0.03771 0.68816 0.92144 255 233 193
0.03771 0.18513 0.92144 255 233 193
0.03771 0.53187 1.01935 255 233 193
0.03771 0.18513 1.01935 255 233 193
0.03771 0.68816 1.30203 255 233 193
0.03771 0.53187 1.06744 255 233 193
0.03771 0.61051 1.15081 255 233 193
0.03771 0.18513 1.06744 255 233 193
0.03771 0.18513 1.15081 255 233 193
0.03771 0.61051 1.19889 255 233 193
0.03771 0.18513 1.30203 255 233 193
0.03771 0.18513 1.19889 255 233 193
-0.03771 0.18513 1.19889 225 200 166
-0.03771 0.18513 1.15081 225 200 166
-0.03771 0.61051 1.15081 225 200 166
-0.03771 0.61051 1.19889 225 200 166
0.03771 0.18513 1.15081 225 200 166
0.03771 0.18513 1.19889 225 200 166
0.03771 0.61051 1.19889 225 200 166
0.03771 0.61051 1.15081 225 200 166
-0.03771 0.18513 1.06744 225 200 166
-0.03771 0.18513 1.01935 225 200 166
-0.03771 0.53187 1.01935 225 200 166
-0.03771 0.53187 1.06744 225 200 166
0.03771 0.18513 1.01935 225 200 166
0.03771 0.18513 1.06744 225 200 166
0.03771 0.53187 1.06744 225 200 166
0.03771 0.53187 1.01935 225 200 166
0.20226 -0.5933 0.2928 136 222 196
0.1661 -0.5933 0.24553 136 222 196
0.16468 -0.64088 0.29254 136 222 196
0.1661 0.2292 0.24553 136 222 196
0.20226 0.1978 0.2928 136 222 196
-0.16468 -0.64088 0.29254 136 222 196
0.16468 -0.64088 0.73472 136 222 196
-0.16468 -0.64088 0.73472 136 222 196
-0.1661 -0.5933 0.24553 136 222 196
-0.1661 0.2292 0.24553 136 222 196
0.1661 0.27887 0.29346 136 222 196
0.20226 0.23335 0.32158 136 222 196
0.20226 -0.12564 0.54514 136 222 196
0.1661 0.27887 0.63427 136 222 196
0.20226 0.23335 0.63427 136 222 196
0.20226 -0.12564 0.63427 136 222 196
0.20226 -0.1766 0.54514 136 222 196
0.20226 -0.17647 0.3958 136 222 196
0.28996 0.27887 0.63427 136 222 196
0.28996 -0.12564 0.63427 136 222 196
0.28996 0.27887 1.23492 136 222 196
0.20226 0.27887 1.23492 136 222 196
-0.20226 -0.12564 0.54514 136 222 196
-0.20226 -0.1766 0.54514 136 222 196
-0.20226 0.19758 0.29277 136 222 196
-0.20226 0.23355 0.32141 136 222 196
-0.20226 0.23355 0.63427 136 222 196
-0.20226 -0.12564 0.63427 136 222 196
-0.20226 -0.17647 0.3958 136 222 196
0.20226 -0.12564 1.23492 136 222 196
0.20226 0.27887 1.37075 136 222 196
0.20226 -0.12564 1.37075 136 222 196
-0.20226 0.27887 1.37075 136 222 196
-0.20226 0.27887 1.23492 136 222 196
-0.20226 -0.12564 1.23492 136 222 196
-0.20226 -0.12564 1.37075 136 222 196
-0.28996 -0.12564 0.63427 136 222 196
-0.28996 -0.12564 1.23492 136 222 196
-0.31993 -0.10541 1.20814 136 222 196
-0.31993 -0.10541 0.66106 136 222 196
-0.31993 0.25863 1.20814 136 222 196
-0.31993 0.25863 0.66106 136 222 196
0.28996 -0.12564 1.23492 136 222 196
0.31993 -0.10541 0.66106 136 222 196
0.31993 -0.10541 1.20814 136 222 196
-0.1661 0.27887 0.63427 136 222 196
-0.28996 0.27887 1.23492 136 222 196
-0.28996 0.27887 0.63427 136 222 196
-0.1661 0.27887 0.29346 136 222 196
-0.17375 -0.20007 0.54514 115 191 168
-0.20226 -0.23649 0.54514 115 191 168
-0.20226 -0.1766 0.54514 115 191 168
-0.20226 -0.17647 0.3958 115 191 168
-0.20226 -0.23637 0.44889 115 191 168
-0.20226 -0.47985 0.3958 115 191 168
-0.20226 -0.42542 0.44889 115 191 168
-0.20226 -0.47985 0.62942 115 191 168
-0.20226 -0.42542 0.57654 115 191 168
-0.20226 -0.34517 0.62942 115 191 168
-0.20226 -0.34517 0.57654 115 191 168
0.17392 -0.20007 0.54514 115 191 168
0.20226 -0.1766 0.54514 115 191 168
-0.20226 -0.59294 0.73472 136 222 196
-0.17111 -0.57883 0.76507 136 222 196
-0.14291 -0.61063 0.76507 136 222 196
-0.17111 -0.25325 0.76507 136 222 196
-0.20226 -0.23649 0.73472 136 222 196
-0.20226 -0.5933 0.29277 136 222 196
0.14291 -0.61063 0.76507 136 222 196
0.17111 -0.57883 0.76507 136 222 196
0.20226 -0.59294 0.73472 136 222 196
0.17111 -0.25325 0.76507 136 222 196
0.20226 -0.23649 0.73472 136 222 196
0.20226 -0.47985 0.62942 136 222 196
0.20226 -0.34517 0.62942 136 222 196
0.20226 -0.34517 0.57654 136 222 196
0.20226 -0.23649 0.54514 136 222 196
0.20226 -0.23637 0.44889 136 222 196
0.17392 -0.20007 0.54514 136 222 196
0.17409 -0.20021 0.73472 136 222 196
0.1468 -0.22146 0.76507 136 222 196
-0.17409 -0.20021 0.73472 136 222 196
-0.1468 -0.22146 0.76507 136 222 196
-0.20226 -0.23649 0.54514 136 222 196
-0.17375 -0.20007 0.54514 136 222 196
-0.20226 -0.34517 0.57654 136 222 196
-0.20226 -0.34517 0.62942 136 222 196
0.20226 -0.42542 0.57654 136 222 196
0.20226 -0.42542 0.44889 136 222 196
-0.20226 -0.47985 0.62942 136 222 196
-0.20226 -0.47985 0.3958 136 222 196
-0.20226 -0.23637 0.44889 136 222 196
-0.20226 -0.42542 0.57654 136 222 196
-0.20226 -0.42542 0.44889 136 222 196
0.31993 0.25863 1.20814 136 222 196
0.31993 0.25863 0.66106 136 222 196
0.20226 0.27887 1.23492 139 228 202
0.28996 0.27887 1.23492 139 228 202
0.28996 -0.12564 1.23492 139 228 202
0.20226 -0.12564 1.23492 139 228 202
-0.17111 -0.25325 0.76507 139 228 202
-0.1468 -0.22146 0.76507 139 228 202
0.1468 -0.22146 0.76507 139 228 202
0.17111 -0.25325 0.76507 139 228 202
0.17111 -0.57883 0.76507 139 228 202
-0.17111 -0.57883 0.76507 139 228 202
-0.14291 -0.61063 0.76507 139 228 202
0.14291 -0.61063 0.76507 139 228 202
0.20226 -0.47985 0.62942 115 191 168
0.20226 -0.42542 0.57654 115 191 168
0.20226 -0.42542 0.44889 115 191 168
0.20226 -0.47985 0.3958 115 191 168
0.20226 -0.34517 0.62942 115 191 168
0.20226 -0.34517 0.57654 115 191 168
0.20226 -0.23637 0.44889 115 191 168
0.20226 -0.17647 0.3958 115 191 168
0.20226 -0.23649 0.54514 115 191 168
-0.20226 0.27887 1.23492 139 228 202
-0.20226 -0.12564 1.23492 139 228 202
-0.28996 -0.12564 1.23492 139 228 202
-0.28996 0.27887 1.23492 139 228 202
0.31 0.26867 2.07712 139 228 202
-0.31 0.26867 2.07712 139 228 202
-0.26959 0.31 2.07712 139 228 202
0.26959 0.31 2.07712 139 228 202
0.27423 0.31533 1.34921 136 222 196
-0.27423 0.31533 1.34921 136 222 196
-0.31533 0.27329 1.34921 136 222 196
0.31533 0.27329 1.34921 136 222 196
0.31499 0.3622 1.39725 136 222 196
0.3622 0.31391 1.39725 136 222 196
0.3622 0.31391 2.02543 136 222 196
0.31499 0.3622 2.02543 136 222 196
0.26959 0.31 2.07712 136 222 196
-0.31499 0.3622 2.02543 136 222 196
-0.26959 0.31 2.07712 136 222 196
0.31 0.26867 2.07712 136 222 196
0.31533 -0.27329 1.34921 136 222 196
0.3622 -0.31391 1.39725 136 222 196
0.27423 -0.31533 1.34921 136 222 196
0.31499 -0.3622 1.39725 136 222 196
0.31499 -0.3622 2.02543 136 222 196
0.3622 -0.31391 2.02543 136 222 196
0.31 -0.26867 2.07712 136 222 196
0.26959 -0.31 2.07712 136 222 196
-0.31499 -0.3622 1.39725 136 222 196
-0.27423 -0.31533 1.34921 136 222 196
-0.31533 -0.27329 1.34921 136 222 196
0.29497 -0.3622 1.59048 136 222 196
0.29497 -0.3622 1.87552 136 222 196
0.29497 -0.33721 1.87552 136 222 196
0.29497 -0.33721 1.59048 136 222 196
0.14355 -0.33721 1.87552 136 222 196
0.14355 -0.3622 1.87552 136 222 196
0.14355 -0.33721 1.59048 136 222 196
0.14355 -0.3622 1.59048 136 222 196
-0.14355 -0.3622 1.59048 136 222 196
-0.3622 -0.31391 1.39725 136 222 196
-0.31499 -0.3622 2.02543 136 222 196
-0.3622 -0.31391 2.02543 136 222 196
-0.3622 0.31391 2.02543 136 222 196
-0.3622 0.31391 1.39725 136 222 196
-0.31 -0.26867 2.07712 136 222 196
-0.26959 -0.31 2.07712 136 222 196
-0.31 0.26867 2.07712 136 222 196
-0.14355 -0.3622 1.87552 136 222 196
-0.14355 -0.33721 1.59048 136 222 196
-0.14355 -0.33721 1.87552 136 222 196
-0.29497 -0.3622 1.87552 136 222 196
-0.29497 -0.3622 1.59048 136 222 196
-0.29497 -0.33721 1.87552 136 222 196
-0.29497 -0.33721 1.59048 136 222 196
0.26959 -0.31 2.07712 139 228 202
-0.26959 -0.31 2.07712 139 228 202
-0.31 -0.26867 2.07712 139 228 202
0.31 -0.26867 2.07712 139 228 202
-0.31499 0.3622 1.39725 136 222 196
0.29497 -0.33721 1.59048 255 255 255
0.14355 -0.33721 1.59048 255 255 255
0.14355 -0.33721 1.87552 255 255 255
0.29497 -0.33721 1.87552 255 255 255
-0.29497 -0.33721 1.59048 255 255 255
-0.29497 -0.33721 1.87552 255 255 255
-0.14355 -0.33721 1.87552 255 255 255
-0.14355 -0.33721 1.59048 255 255 255
-0.1183 -0.73648 1.65934 136 222 196
0.20226 -0.47985 0.3958 136 222 196
3 0 2 1
3 0 3 2
3 4 3 0
3 4 5 3
3 3 5 6
3 3 6 7
3 2 3 7
3 2 7 8
3 9 11 10
3 9 12 11
3 11 12 13
3 11 13 14
3 15 5 4
3 15 16 5
3 5 16 17
3 5 17 6
3 7 6 17
3 7 17 8
3 18 20 19
3 18 21 20
3 22 21 18
3 22 23 21
3 21 23 24
3 21 24 25
3 20 21 25
3 20 25 26
3 27 29 28
3 27 30 29
3 29 30 31
3 29 31 32
3 33 23 22
3 33 34 23
3 23 34 35
3 23 35 24
3 25 24 35
3 25 35 26
3 36 38 37
3 36 39 38
3 40 39 36
3 40 41 39
3 39 41 42
3 39 42 43
3 38 39 43
3 38 43 44
3 45 47 46
3 45 48 47
3 47 48 49
3 47 49 50
3 51 41 40
3 51 52 41
3 41 52 53
3 41 53 42
3 43 42 53
3 43 53 44
3 54 56 55
3 54 57 56
3 58 54 55
3 58 55 59
3 55 60 59
3 55 61 60
3 56 61 55
3 56 62 61
3 63 65 64
3 63 66 65
3 65 67 64
3 65 68 67
3 69 59 70
3 69 58 59
3 59 71 70
3 59 60 71
3 61 71 60
3 61 62 71
3 72 74 73
3 72 75 74
3 76 72 73
3 76 73 77
3 73 78 77
3 73 79 78
3 74 79 73
3 74 80 79
3 81 83 82
3 81 84 83
3 83 85 82
3 83 86 85
3 87 77 88
3 87 76 77
3 77 89 88
3 77 78 89
3 79 89 78
3 79 80 89
3 90 92 91
3 90 93 92
3 94 90 91
3 94 91 95
3 91 96 95
3 91 97 96
3 92 97 91
3 92 98 97
3 99 101 100
3 99 102 101
3 101 103 100
3 101 104 103
3 105 95 106
3 105 94 95
3 95 107 106
3 95 96 107
3 97 107 96
3 97 98 107
3 108 110 109
3 110 108 111
3 110 111 112
3 113 110 112
3 113 112 114
3 114 112 111
3 108 115 111
3 108 116 115
3 116 108 117
3 116 117 118
3 118 117 119
3 118 119 120
3 117 121 119
3 117 122 121
3 122 123 121
3 122 124 123
3 124 125 123
3 124 126 125
3 124 127 126
3 126 128 125
3 126 129 128
3 130 129 126
3 130 131 129
3 131 130 132
3 131 132 133
3 130 114 132
3 130 113 114
3 114 111 132
3 132 115 133
3 132 111 115
3 126 134 130
3 126 127 134
3 130 134 113
3 135 137 136
3 135 138 137
3 137 138 139
3 137 139 140
3 140 139 141
3 140 141 142
3 143 138 135
3 143 144 138
3 144 139 138
3 145 136 137
3 145 146 136
3 146 135 136
3 146 143 135
3 144 147 139
3 147 141 139
3 148 137 140
3 148 145 137
3 147 149 141
3 149 142 141
3 149 150 142
3 150 140 142
3 150 148 140
3 151 153 152
3 151 154 153
3 155 154 151
3 155 156 154
3 157 159 158
3 159 160 158
3 159 161 160
3 161 162 160
3 157 163 159
3 161 164 162
3 162 164 165
3 162 165 166
3 166 165 167
3 166 167 168
3 169 168 167
3 169 170 168
3 169 171 170
3 171 163 157
3 169 172 171
3 171 172 163
3 173 175 174
3 173 176 175
3 174 175 177
3 174 177 178
3 179 181 180
3 179 182 181
3 183 181 182
3 183 184 181
3 182 179 185
3 182 185 186
3 187 182 186
3 187 183 182
3 188 185 179
3 188 189 185
3 190 184 183
3 190 191 184
3 192 191 190
3 192 190 193
3 194 196 195
3 194 197 196
3 198 197 194
3 198 194 199
3 200 202 201
3 200 203 202
3 204 203 200
3 204 205 203
3 205 204 206
3 205 206 207
3 208 210 209
3 208 211 210
3 210 211 212
3 210 212 213
3 214 216 215
3 214 217 216
3 215 218 214
3 215 219 218
3 220 214 218
3 220 221 214
3 222 219 215
3 222 223 219
3 224 215 216
3 224 222 215
3 225 222 224
3 225 224 226
3 227 225 226
3 227 228 225
3 229 231 230
3 229 232 231
3 233 232 229
3 233 229 234
3 235 237 236
3 235 238 237
3 235 236 239
3 235 239 240
3 240 239 241
3 240 241 242
3 243 245 244
3 243 246 245
3 247 246 243
3 247 248 246
3 248 247 249
3 249 243 244
3 249 247 243
3 248 249 250
3 251 253 252
3 251 254 253
3 254 255 253
3 254 256 255
3 257 251 252
3 257 252 258
3 259 261 260
3 259 262 261
3 263 260 261
3 262 263 261
3 263 264 260
3 262 265 263
3 262 266 265
3 265 266 267
3 266 268 267
3 266 269 268
3 270 267 268
3 270 265 267
3 271 273 272
3 271 274 273
3 272 275 271
3 272 276 275
3 277 275 276
3 277 276 278
3 279 281 280
3 279 282 281
3 283 279 280
3 283 280 284
3 285 283 284
3 285 286 283
3 287 289 288
3 287 290 289
3 288 291 287
3 288 292 291
3 293 291 292
3 293 292 294
3 295 297 296
3 295 298 297
3 298 299 297
3 298 300 299
3 301 295 296
3 301 302 295
3 303 305 304
3 303 306 305
3 304 308 307
3 304 305 308
3 309 311 310
3 309 312 311
3 309 310 313
3 309 313 314
3 315 314 313
3 316 314 315
3 317 314 316
3 317 316 318
3 315 313 319
3 319 313 320
3 321 315 319
3 321 319 322
3 313 323 320
3 313 324 323
3 310 325 313
3 310 311 325
3 313 325 326
3 327 326 325
3 327 328 326
3 313 326 324
3 312 325 311
3 312 329 325
3 329 330 325
3 325 330 327
3 329 331 330
3 332 330 331
3 332 331 333
3 334 331 329
3 335 334 329
3 335 336 334
3 337 339 338
3 337 340 339
3 341 343 342
3 341 344 343
3 345 347 346
3 345 348 347
3 349 351 350
3 349 352 351
3 353 355 354
3 353 354 356
3 353 356 357
3 354 355 358
3 359 358 355
3 359 360 358
3 354 358 361
3 356 354 361
3 356 361 362
3 363 356 362
3 364 356 363
3 364 357 356
3 357 364 365
3 364 363 366
3 364 366 367
3 365 364 367
3 365 367 368
3 369 357 365
3 369 370 357
3 368 367 371
3 371 367 366
3 368 371 372
3 366 373 371
3 366 374 373
3 369 365 375
3 368 375 365
3 369 375 376
3 376 375 377
3 377 375 378
3 375 379 378
3 375 380 379
3 368 380 375
3 376 377 381
3 382 380 368
3 382 374 383
3 382 383 384
3 374 385 383
3 374 386 385
3 387 385 386
3 384 387 382
3 382 387 380
3 387 388 385
3 384 388 387
3 387 389 380
3 387 390 389
3 389 390 391
3 389 391 392
3 392 391 393
3 392 393 394
3 382 372 395
3 382 368 372
3 395 372 396
3 395 396 397
3 398 399 386
3 398 400 399
3 379 400 398
3 380 400 379
3 380 389 400
3 398 378 379
3 398 401 378
3 366 401 398
3 366 398 386
3 366 386 374
3 366 363 401
3 363 362 401
3 401 377 378
3 401 362 377
3 399 400 394
3 399 394 393
3 390 399 393
3 390 393 391
3 400 392 394
3 400 389 392
3 402 404 403
3 403 404 405
3 403 405 406
3 407 406 405
3 407 408 406
3 409 408 407
3 409 410 408
3 411 410 409
3 411 412 410
3 413 404 402
3 413 414 404
3 360 416 415
3 360 417 416
3 415 416 418
3 415 418 419
3 358 360 415
3 358 415 420
3 361 358 420
3 362 361 420
3 362 420 377
3 359 417 360
3 359 421 417
3 359 422 421
3 359 423 422
3 423 424 422
3 423 425 424
3 355 423 359
3 355 353 423
3 426 423 353
3 427 423 426
3 427 425 423
3 427 428 425
3 425 428 429
3 428 430 429
3 425 429 431
3 425 431 432
3 425 432 433
3 433 432 434
3 433 434 435
3 419 435 434
3 434 436 419
3 434 437 436
3 432 437 434
3 432 431 437
3 419 418 435
3 419 436 438
3 439 419 438
3 425 433 424
3 428 440 430
3 430 440 441
3 442 419 439
3 442 415 419
3 442 420 415
3 442 443 420
3 420 443 381
3 420 381 377
3 438 436 444
3 438 444 445
3 444 446 445
3 396 447 397
3 396 448 447
3 372 448 396
3 372 371 448
3 371 447 448
3 371 373 447
3 373 397 447
3 373 395 397
3 449 451 450
3 449 452 451
3 453 455 454
3 453 456 455
3 457 456 453
3 457 453 458
3 457 458 459
3 457 459 460
3 461 463 462
3 461 464 463
3 465 461 462
3 465 462 466
3 464 467 463
3 464 468 467
3 469 467 468
3 469 468 414
3 469 414 413
3 470 472 471
3 470 473 472
3 474 476 475
3 474 477 476
3 478 480 479
3 478 481 480
3 482 481 478
3 482 478 479
3 482 483 481
3 482 484 483
3 482 485 484
3 484 485 486
3 486 485 487
3 486 487 488
3 484 486 489
3 483 490 481
3 483 491 490
3 491 492 490
3 491 493 492
3 494 493 491
3 494 491 495
3 491 484 495
3 491 483 484
3 494 495 496
3 494 496 497
3 495 489 496
3 495 484 489
3 492 493 498
3 492 498 499
3 490 492 499
3 490 499 500
3 494 501 493
3 494 502 501
3 501 502 503
3 501 503 504
3 502 505 503
3 502 506 505
3 494 506 502
3 506 507 505
3 506 508 507
3 508 504 507
3 508 501 504
3 493 501 508
3 493 509 498
3 493 508 509
3 506 509 508
3 510 499 498
3 510 500 499
3 511 510 498
3 511 512 510
3 510 512 513
3 510 513 514
3 511 515 512
3 511 516 515
3 494 516 511
3 494 497 516
3 512 517 513
3 512 515 517
3 506 518 509
3 494 518 506
3 494 511 518
3 518 519 509
3 518 520 519
3 521 520 518
3 511 521 518
3 511 522 521
3 511 498 522
3 522 523 521
3 521 523 520
3 522 524 523
3 509 524 522
3 509 519 524
3 498 509 522
3 525 527 526
3 525 528 527
3 528 475 527
3 528 474 475
3 481 500 480
3 481 490 500
3 529 480 514
3 529 514 513
3 529 513 487
3 485 529 487
3 485 482 529
3 482 479 529
3 529 479 480
3 513 488 487
3 513 517 488
3 514 480 500
3 514 500 510
3 530 532 531
3 530 533 532
3 534 536 535
3 534 537 536
3 117 538 122
3 108 538 117
3 108 109 538
3 539 357 370
3 539 353 357
3 426 353 539
