ply
format ascii 1.0
element vertex 530
property float x
property float y
property float z
property uchar red
property uchar green
property uchar blue
element face 588
property list uchar int vertex_index
end_header
0.35094 0.04854 1.85371 149 213 241
0.35094 0.04854 1.98204 149 213 241
0.6351 0.04854 1.98204 149 213 241
0.6351 0.04854 1.85371 149 213 241
0.35094 0.17687 1.85371 149 213 241
0.6351 0.17687 1.85371 149 213 241
0.65398 0.16061 1.86996 149 213 241
0.65398 0.06479 1.86996 149 213 241
0.65398 0.06479 1.96578 149 213 241
0.35094 0.04854 1.98204 152 217 246
0.35094 0.17687 1.98204 152 217 246
0.6351 0.17687 1.98204 152 217 246
0.6351 0.04854 1.98204 152 217 246
0.65398 0.06479 1.96578 152 217 246
0.65398 0.16061 1.96578 152 217 246
0.35094 0.17687 1.98204 149 213 241
0.6351 0.17687 1.98204 149 213 241
0.65398 0.16061 1.96578 149 213 241
0.35094 0.04854 1.641 149 213 241
0.35094 0.04854 1.76933 149 213 241
0.6849 0.04854 1.76933 149 213 241
0.6849 0.04854 1.641 149 213 241
0.35094 0.17687 1.641 149 213 241
0.6849 0.17687 1.641 149 213 241
0.70377 0.16061 1.65725 149 213 241
0.70377 0.06479 1.65725 149 213 241
0.70377 0.06479 1.75307 149 213 241
0.35094 0.04854 1.76933 152 217 246
0.35094 0.17687 1.76933 152 217 246
0.6849 0.17687 1.76933 152 217 246
0.6849 0.04854 1.76933 152 217 246
0.70377 0.06479 1.75307 152 217 246
0.70377 0.16061 1.75307 152 217 246
0.35094 0.17687 1.76933 149 213 241
0.6849 0.17687 1.76933 149 213 241
0.70377 0.16061 1.75307 149 213 241
0.35094 0.04854 1.44348 149 213 241
0.35094 0.04854 1.57181 149 213 241
0.5555 0.04854 1.57181 149 213 241
0.5555 0.04854 1.44348 149 213 241
0.35094 0.17687 1.44348 149 213 241
0.5555 0.17687 1.44348 149 213 241
0.57437 0.16061 1.45974 149 213 241
0.57437 0.06479 1.45974 149 213 241
0.57437 0.06479 1.55556 149 213 241
0.35094 0.04854 1.57181 152 217 246
0.35094 0.17687 1.57181 152 217 246
0.5555 0.17687 1.57181 152 217 246
0.5555 0.04854 1.57181 152 217 246
0.57437 0.06479 1.55556 152 217 246
0.57437 0.16061 1.55556 152 217 246
0.35094 0.17687 1.57181 149 213 241
0.5555 0.17687 1.57181 149 213 241
0.57437 0.16061 1.55556 149 213 241
-0.35094 0.04854 1.85371 149 213 241
-0.6351 0.04854 1.85371 149 213 241
-0.6351 0.04854 1.98204 149 213 241
-0.35094 0.04854 1.98204 149 213 241
-0.35094 0.17687 1.85371 149 213 241
-0.6351 0.17687 1.85371 149 213 241
-0.65398 0.16061 1.86996 149 213 241
-0.65398 0.06479 1.86996 149 213 241
-0.65398 0.06479 1.96578 149 213 241
-0.35094 0.04854 1.98204 152 217 246
-0.6351 0.04854 1.98204 152 217 246
-0.6351 0.17687 1.98204 152 217 246
-0.35094 0.17687 1.98204 152 217 246
-0.65398 0.06479 1.96578 152 217 246
-0.65398 0.16061 1.96578 152 217 246
-0.35094 0.17687 1.98204 149 213 241
-0.6351 0.17687 1.98204 149 213 241
-0.65398 0.16061 1.96578 149 213 241
-0.35094 0.04854 1.641 149 213 241
-0.6849 0.04854 1.641 149 213 241
-0.6849 0.04854 1.76933 149 213 241
-0.35094 0.04854 1.76933 149 213 241
-0.35094 0.17687 1.641 149 213 241
-0.6849 0.17687 1.641 149 213 241
-0.70377 0.16061 1.65725 149 213 241
-0.70377 0.06479 1.65725 149 213 241
-0.70377 0.06479 1.75307 149 213 241
-0.35094 0.04854 1.76933 152 217 246
-0.6849 0.04854 1.76933 152 217 246
-0.6849 0.17687 1.76933 152 217 246
-0.35094 0.17687 1.76933 152 217 246
-0.70377 0.06479 1.75307 152 217 246
-0.70377 0.16061 1.75307 152 217 246
-0.35094 0.17687 1.76933 149 213 241
-0.6849 0.17687 1.76933 149 213 241
-0.70377 0.16061 1.75307 149 213 241
-0.35094 0.04854 1.44348 149 213 241
-0.5555 0.04854 1.44348 149 213 241
-0.5555 0.04854 1.57181 149 213 241
-0.35094 0.04854 1.57181 149 213 241
-0.35094 0.17687 1.44348 149 213 241
-0.5555 0.17687 1.44348 149 213 241
-0.57437 0.16061 1.45974 149 213 241
-0.57437 0.06479 1.45974 149 213 241
-0.57437 0.06479 1.55556 149 213 241
-0.35094 0.04854 1.57181 152 217 246
-0.5555 0.04854 1.57181 152 217 246
-0.5555 0.17687 1.57181 152 217 246
-0.35094 0.17687 1.57181 152 217 246
-0.57437 0.06479 1.55556 152 217 246
-0.57437 0.16061 1.55556 152 217 246
-0.35094 0.17687 1.57181 149 213 241
-0.5555 0.17687 1.57181 149 213 241
-0.57437 0.16061 1.55556 149 213 241
-0.13063 -0.7064 1.47971 149 213 241
-0.1183 -0.73648 1.49926 149 213 241
-0.08729 -0.73648 1.46424 149 213 241
-0.10144 -0.68111 1.4498 149 213 241
-0.07584 -0.70729 1.4498 149 213 241
0.08658 -0.73648 1.46424 149 213 241
0.07513 -0.70729 1.4498 149 213 241
-0.10144 -0.35004 1.4498 149 213 241
-0.13063 -0.35004 1.47971 149 213 241
-0.13063 -0.7064 1.6761 149 213 241
-0.13063 -0.35004 1.6761 149 213 241
-0.09812 -0.67823 1.70829 149 213 241
-0.09812 -0.35004 1.70829 149 213 241
-0.07296 -0.70397 1.70829 149 213 241
-0.08729 -0.73648 1.69157 149 213 241
0.07225 -0.70397 1.70829 149 213 241
0.08658 -0.73648 1.69157 149 213 241
0.09741 -0.67823 1.70829 149 213 241
0.12992 -0.7064 1.6761 149 213 241
0.11759 -0.73648 1.6583 149 213 241
0.09741 -0.35004 1.70829 149 213 241
0.12992 -0.35004 1.6761 149 213 241
0.12992 -0.7064 1.47971 149 213 241
0.12992 -0.35004 1.47971 149 213 241
0.10073 -0.68111 1.4498 149 213 241
0.10073 -0.35004 1.4498 149 213 241
0.11759 -0.73648 1.4995 149 213 241
-0.06134 -0.63494 1.66079 34 48 54
0.06063 -0.63494 1.66079 34 48 54
0.08296 -0.63494 1.63657 34 48 54
-0.08367 -0.63494 1.63657 34 48 54
-0.08367 -0.63494 1.52095 34 48 54
0.08296 -0.63494 1.52095 34 48 54
-0.06134 -0.63494 1.49502 34 48 54
0.06063 -0.63494 1.49502 34 48 54
-0.06134 -0.73648 1.66079 34 48 54
-0.08367 -0.73648 1.63657 34 48 54
0.08296 -0.73648 1.63657 34 48 54
0.06063 -0.73648 1.66079 34 48 54
-0.08367 -0.73648 1.52095 34 48 54
0.08296 -0.73648 1.52095 34 48 54
-0.06134 -0.73648 1.49502 34 48 54
0.06063 -0.73648 1.49502 34 48 54
0.09741 -0.67823 1.70829 152 217 246
0.07225 -0.70397 1.70829 152 217 246
-0.07296 -0.70397 1.70829 152 217 246
-0.09812 -0.67823 1.70829 152 217 246
0.09741 -0.35004 1.70829 152 217 246
-0.09812 -0.35004 1.70829 152 217 246
-0.08367 -0.73648 1.52095 158 220 248
-0.06134 -0.73648 1.49502 158 220 248
-0.08729 -0.73648 1.46424 158 220 248
0.06063 -0.73648 1.49502 158 220 248
0.08658 -0.73648 1.46424 158 220 248
0.08296 -0.73648 1.52095 158 220 248
-0.1183 -0.73648 1.49926 158 220 248
0.11759 -0.73648 1.4995 158 220 248
0.11759 -0.73648 1.6583 158 220 248
0.08296 -0.73648 1.63657 158 220 248
0.08658 -0.73648 1.69157 158 220 248
0.06063 -0.73648 1.66079 158 220 248
-0.08729 -0.73648 1.69157 158 220 248
-0.06134 -0.73648 1.66079 158 220 248
-0.08367 -0.73648 1.63657 158 220 248
-0.1183 -0.73648 1.65934 158 220 248
0.16359 -0.34248 1.65892 37 13 12
0.16359 -0.34248 1.66954 37 13 12
0.20549 -0.34248 1.66954 37 13 12
0.20549 -0.34248 1.65892 37 13 12
0.20549 -0.34248 1.78198 37 13 12
0.16359 -0.34248 1.78198 37 13 12
0.14 -0.34248 1.83473 156 55 50
0.14 -0.32097 1.83473 156 55 50
0.25759 -0.32097 1.83473 156 55 50
0.25759 -0.34248 1.83473 156 55 50
0.25759 -0.34248 1.66954 156 55 50
0.25759 -0.32097 1.66957 207 94 88
0.16359 -0.34248 1.78198 156 55 50
0.20549 -0.34248 1.78198 156 55 50
0.20549 -0.34248 1.66954 156 55 50
0.14 -0.34248 1.66954 156 55 50
0.16359 -0.34248 1.66954 156 55 50
0.25759 -0.34248 1.62211 220 103 98
0.25759 -0.32097 1.62211 220 103 98
0.14 -0.32097 1.62211 220 103 98
0.14 -0.34248 1.62211 220 103 98
0.14 -0.32097 1.66961 208 94 89
0.20549 -0.34248 1.65892 197 77 63
0.20549 -0.34248 1.66954 197 77 63
0.25759 -0.34248 1.66954 197 77 63
0.25759 -0.34248 1.62211 197 77 63
0.16359 -0.34248 1.65892 197 77 63
0.14 -0.34248 1.62211 197 77 63
0.16359 -0.34248 1.66954 197 77 63
0.14 -0.34248 1.66954 197 77 63
-0.16359 -0.34248 1.65892 37 13 12
-0.20549 -0.34248 1.65892 37 13 12
-0.20549 -0.34248 1.66954 37 13 12
-0.16359 -0.34248 1.66954 37 13 12
-0.16359 -0.34248 1.78198 37 13 12
-0.20549 -0.34248 1.78198 37 13 12
-0.14 -0.34248 1.83473 156 55 50
-0.25759 -0.34248 1.83473 156 55 50
-0.25759 -0.32097 1.83473 156 55 50
-0.14 -0.32097 1.83473 156 55 50
-0.16359 -0.34248 1.78198 156 55 50
-0.20549 -0.34248 1.78198 156 55 50
-0.14 -0.34248 1.66954 156 55 50
-0.14 -0.32097 1.66955 206 93 87
-0.16359 -0.34248 1.66954 156 55 50
-0.25759 -0.34248 1.66954 156 55 50
-0.20549 -0.34248 1.66954 156 55 50
-0.25759 -0.32097 1.66955 205 93 87
-0.25759 -0.34248 1.62211 220 103 98
-0.25759 -0.32097 1.62211 220 103 98
-0.14 -0.32097 1.62211 220 103 98
-0.14 -0.34248 1.62211 220 103 98
-0.14 -0.34248 1.62211 197 77 63
-0.16359 -0.34248 1.65892 197 77 63
-0.16359 -0.34248 1.66954 197 77 63
-0.14 -0.34248 1.66954 197 77 63
-0.20549 -0.34248 1.65892 197 77 63
-0.25759 -0.34248 1.62211 197 77 63
-0.20549 -0.34248 1.66954 197 77 63
-0.25759 -0.34248 1.66954 197 77 63
0.23424 -0.18039 0.65844 252 248 193
0.23424 -0.18039 0.80649 252 248 193
0.23424 -0.11807 0.80649 252 248 193
0.23424 -0.11807 0.65844 252 248 193
-0.23424 -0.18039 0.65844 252 248 193
-0.23424 -0.11807 0.65844 252 248 193
-0.23424 -0.18039 0.80649 252 248 193
-0.23424 -0.11807 0.80649 252 248 193
-0.12727 -0.18039 1.20756 221 217 169
-0.12727 -0.18039 1.27891 221 217 169
0.12727 -0.18039 1.27891 221 217 169
0.12727 -0.18039 1.20756 221 217 169
0.12727 -0.11807 1.27891 221 217 169
0.12727 -0.11807 1.20756 221 217 169
-0.12727 -0.11807 1.20756 221 217 169
-0.12727 -0.11807 1.27891 221 217 169
0.12727 -0.11807 1.20756 252 248 193
0.23424 -0.11807 1.20756 252 248 193
0.23424 -0.18039 1.20756 252 248 193
0.12727 -0.18039 1.20756 252 248 193
0.23424 -0.18039 1.07593 252 248 193
0.23424 -0.11807 1.07593 252 248 193
-0.23424 -0.18039 1.07593 252 248 193
-0.12727 -0.18039 1.20756 252 248 193
-0.23424 -0.18039 1.20756 252 248 193
-0.23424 -0.11807 1.20756 252 248 193
-0.12727 -0.11807 1.20756 252 248 193
-0.23424 -0.11807 1.07593 252 248 193
0.23424 -0.18039 0.80649 221 217 169
0.23424 -0.18039 0.87241 221 217 169
0.23424 -0.11807 0.87241 221 217 169
0.23424 -0.11807 0.80649 221 217 169
-0.23424 -0.18039 0.80649 221 217 169
-0.23424 -0.18039 0.87241 221 217 169
-0.23424 -0.11807 0.80649 221 217 169
-0.23424 -0.11807 0.87241 221 217 169
0.23424 -0.18039 0.87241 252 248 193
0.23424 -0.18039 1.00606 252 248 193
0.23424 -0.11807 1.00606 252 248 193
0.23424 -0.11807 0.87241 252 248 193
-0.23424 -0.18039 0.87241 252 248 193
-0.23424 -0.18039 1.00606 252 248 193
-0.23424 -0.11807 1.00606 252 248 193
-0.23424 -0.11807 0.87241 252 248 193
0.23424 -0.18039 1.00606 221 217 169
0.23424 -0.18039 1.07593 221 217 169
0.23424 -0.11807 1.07593 221 217 169
0.23424 -0.11807 1.00606 221 217 169
-0.23424 -0.18039 1.00606 221 217 169
-0.23424 -0.18039 1.07593 221 217 169
-0.23424 -0.11807 1.00606 221 217 169
-0.23424 -0.11807 1.07593 221 217 169
-0.12727 -0.18039 1.27891 252 248 193
-0.12727 -0.18039 1.36256 252 248 193
0.12727 -0.18039 1.36256 252 248 193
0.12727 -0.18039 1.27891 252 248 193
0.12727 -0.11807 1.36256 252 248 193
0.12727 -0.11807 1.27891 252 248 193
-0.12727 -0.11807 1.36256 252 248 193
-0.12727 -0.11807 1.27891 252 248 193
-0.03771 0.18513 1.30203 255 252 203
-0.03771 0.68816 1.30203 255 252 203
0.03771 0.68816 1.30203 255 252 203
0.03771 0.18513 1.30203 255 252 203
-0.03771 0.73789 1.27082 255 252 203
0.03771 0.73789 1.27082 255 252 203
-0.03771 0.73789 1.27082 252 248 193
-0.03771 0.73789 0.95265 252 248 193
0.03771 0.73789 0.95265 252 248 193
0.03771 0.73789 1.27082 252 248 193
-0.03771 0.68816 0.92144 252 248 193
-0.03771 0.68816 1.30203 252 248 193
-0.03771 0.61051 1.15081 252 248 193
-0.03771 0.61051 1.19889 252 248 193
-0.03771 0.18513 1.30203 252 248 193
-0.03771 0.18513 1.19889 252 248 193
-0.03771 0.53187 1.06744 252 248 193
-0.03771 0.53187 1.01935 252 248 193
-0.03771 0.18513 1.15081 252 248 193
-0.03771 0.18513 1.06744 252 248 193
-0.03771 0.18513 1.01935 252 248 193
-0.03771 0.18513 0.92144 252 248 193
0.03771 0.68816 0.92144 252 248 193
0.03771 0.18513 0.92144 252 248 193
0.03771 0.53187 1.01935 252 248 193
0.03771 0.18513 1.01935 252 248 193
0.03771 0.68816 1.30203 252 248 193
0.03771 0.53187 1.06744 252 248 193
0.03771 0.61051 1.15081 252 248 193
0.03771 0.18513 1.06744 252 248 193
0.03771 0.18513 1.15081 252 248 193
0.03771 0.61051 1.19889 252 248 193
0.03771 0.18513 1.30203 252 248 193
0.03771 0.18513 1.19889 252 248 193
-0.03771 0.18513 1.19889 221 217 169
-0.03771 0.18513 1.15081 221 217 169
-0.03771 0.61051 1.15081 221 217 169
-0.03771 0.61051 1.19889 221 217 169
0.03771 0.18513 1.15081 221 217 169
0.03771 0.18513 1.19889 221 217 169
0.03771 0.61051 1.19889 221 217 169
0.03771 0.61051 1.15081 221 217 169
-0.03771 0.18513 1.06744 221 217 169
-0.03771 0.18513 1.01935 221 217 169
-0.03771 0.53187 1.01935 221 217 169
-0.03771 0.53187 1.06744 221 217 169
0.03771 0.18513 1.01935 221 217 169
0.03771 0.18513 1.06744 221 217 169
0.03771 0.53187 1.06744 221 217 169
0.03771 0.53187 1.01935 221 217 169
0.20226 -0.5933 0.2928 149 213 241
0.1661 -0.5933 0.24553 149 213 241
0.16468 -0.64088 0.29254 149 213 241
0.1661 0.2292 0.24553 149 213 241
0.20226 0.1978 0.2928 149 213 241
-0.16468 -0.64088 0.29254 149 213 241
0.16468 -0.64088 0.73472 149 213 241
-0.16468 -0.64088 0.73472 149 213 241
-0.1661 -0.5933 0.24553 149 213 241
-0.1661 0.2292 0.24553 149 213 241
0.1661 0.27887 0.29346 149 213 241
0.20226 0.23335 0.32158 149 213 241
0.20226 -0.12564 0.54514 149 213 241
0.1661 0.27887 0.63427 149 213 241
0.20226 0.23335 0.63427 149 213 241
0.20226 -0.12564 0.63427 149 213 241
0.20226 -0.1766 0.54514 149 213 241
0.20226 -0.17647 0.3958 149 213 241
0.28996 0.27887 0.63427 149 213 241
0.28996 -0.12564 0.63427 149 213 241
0.28996 0.27887 1.23492 149 213 241
0.20226 0.27887 1.23492 149 213 241
-0.20226 -0.12564 0.54514 149 213 241
-0.20226 -0.1766 0.54514 149 213 241
-0.20226 0.19758 0.29277 149 213 241
-0.20226 0.23355 0.32141 149 213 241
-0.20226 0.23355 0.63427 149 213 241
-0.20226 -0.12564 0.63427 149 213 241
-0.20226 -0.17647 0.3958 149 213 241
0.20226 -0.12564 1.23492 149 213 241
0.20226 0.27887 1.37075 149 213 241
0.20226 -0.12564 1.37075 149 213 241
-0.20226 0.27887 1.37075 149 213 241
-0.20226 0.27887 1.23492 149 213 241
-0.20226 -0.12564 1.23492 149 213 241
-0.20226 -0.12564 1.37075 149 213 241
-0.28996 -0.12564 0.63427 149 213 241
-0.28996 -0.12564 1.23492 149 213 241
-0.31993 -0.10541 1.20814 149 213 241
-0.31993 -0.10541 0.66106 149 213 241
-0.31993 0.25863 1.20814 149 213 241
-0.31993 0.25863 0.66106 149 213 241
0.28996 -0.12564 1.23492 149 213 241
0.31993 -0.10541 0.66106 149 213 241
0.31993 -0.10541 1.20814 149 213 241
-0.1661 0.27887 0.63427 149 213 241
-0.28996 0.27887 1.23492 149 213 241
-0.28996 0.27887 0.63427 149 213 241
-0.1661 0.27887 0.29346 149 213 241
-0.17375 -0.20007 0.54514 133 190 215
-0.20226 -0.23649 0.54514 133 190 215
-0.20226 -0.1766 0.54514 133 190 215
-0.20226 -0.17647 0.3958 133 190 215
-0.20226 -0.23637 0.44889 133 190 215
-0.20226 -0.47985 0.3958 133 190 215
-0.20226 -0.42542 0.44889 133 190 215
-0.20226 -0.47985 0.62942 133 190 215
-0.20226 -0.42542 0.57654 133 190 215
-0.20226 -0.34517 0.62942 133 190 215
-0.20226 -0.34517 0.57654 133 190 215
0.17392 -0.20007 0.54514 133 190 215
0.20226 -0.1766 0.54514 133 190 215
-0.20226 -0.59294 0.73472 149 213 241
-0.17111 -0.57883 0.76507 149 213 241
-0.14291 -0.61063 0.76507 149 213 241
-0.17111 -0.25325 0.76507 149 213 241
-0.20226 -0.23649 0.73472 149 213 241
-0.20226 -0.5933 0.29277 149 213 241
0.14291 -0.61063 0.76507 149 213 241
0.17111 -0.57883 0.76507 149 213 241
0.20226 -0.59294 0.73472 149 213 241
0.17111 -0.25325 0.76507 149 213 241
0.20226 -0.23649 0.73472 149 213 241
0.20226 -0.47985 0.62942 149 213 241
0.20226 -0.34517 0.62942 149 213 241
0.20226 -0.34517 0.57654 149 213 241
0.20226 -0.23649 0.54514 149 213 241
0.20226 -0.23637 0.44889 149 213 241
0.17392 -0.20007 0.54514 149 213 241
0.17409 -0.20021 0.73472 149 213 241
0.1468 -0.22146 0.76507 149 213 241
-0.17409 -0.20021 0.73472 149 213 241
-0.1468 -0.22146 0.76507 149 213 241
-0.20226 -0.23649 0.54514 149 213 241
-0.17375 -0.20007 0.54514 149 213 241
-0.20226 -0.34517 0.57654 149 213 241
-0.20226 -0.34517 0.62942 149 213 241
0.20226 -0.42542 0.57654 149 213 241
0.20226 -0.42542 0.44889 149 213 241
-0.20226 -0.47985 0.62942 149 213 241
-0.20226 -0.47985 0.3958 149 213 241
-0.20226 -0.23637 0.44889 149 213 241
-0.20226 -0.42542 0.57654 149 213 241
-0.20226 -0.42542 0.44889 149 213 241
0.31993 0.25863 1.20814 149 213 241
0.31993 0.25863 0.66106 149 213 241
0.20226 0.27887 1.23492 152 217 246
0.28996 0.27887 1.23492 152 217 246
0.28996 -0.12564 1.23492 152 217 246
0.20226 -0.12564 1.23492 152 217 246
-0.17111 -0.25325 0.76507 152 217 246
-0.1468 -0.22146 0.76507 152 217 246
0.1468 -0.22146 0.76507 152 217 246
0.17111 -0.25325 0.76507 152 217 246
0.17111 -0.57883 0.76507 152 217 246
-0.17111 -0.57883 0.76507 152 217 246
-0.14291 -0.61063 0.76507 152 217 246
0.14291 -0.61063 0.76507 152 217 246
0.20226 -0.47985 0.62942 133 190 215
0.20226 -0.42542 0.57654 133 190 215
0.20226 -0.42542 0.44889 133 190 215
0.20226 -0.47985 0.3958 133 190 215
0.20226 -0.34517 0.62942 133 190 215
0.20226 -0.34517 0.57654 133 190 215
0.20226 -0.23637 0.44889 133 190 215
0.20226 -0.17647 0.3958 133 190 215
0.20226 -0.23649 0.54514 133 190 215
-0.20226 0.27887 1.23492 152 217 246
-0.20226 -0.12564 1.23492 152 217 246
-0.28996 -0.12564 1.23492 152 217 246
-0.28996 0.27887 1.23492 152 217 246
0.31 0.26867 2.07712 152 217 246
-0.31 0.26867 2.07712 152 217 246
-0.26959 0.31 2.07712 152 217 246
0.26959 0.31 2.07712 152 217 246
0.27423 0.31533 1.34921 149 213 241
-0.27423 0.31533 1.34921 149 213 241
-0.31533 0.27329 1.34921 149 213 241
0.31533 0.27329 1.34921 149 213 241
0.31499 0.3622 1.39725 149 213 241
0.3622 0.31391 1.39725 149 213 241
0.3622 0.31391 2.02543 149 213 241
0.31499 0.3622 2.02543 149 213 241
0.26959 0.31 2.07712 149 213 241
-0.31499 0.3622 2.02543 149 213 241
-0.26959 0.31 2.07712 149 213 241
0.31 0.26867 2.07712 149 213 241
0.31533 -0.27329 1.34921 149 213 241
0.3622 -0.31391 1.39725 149 213 241
0.27423 -0.31533 1.34921 149 213 241
0.31499 -0.3622 1.39725 149 213 241
0.31499 -0.3622 2.02543 149 213 241
0.3622 -0.31391 2.02543 149 213 241
0.31 -0.26867 2.07712 149 213 241
0.26959 -0.31 2.07712 149 213 241
-0.31499 -0.3622 1.39725 149 213 241
-0.27423 -0.31533 1.34921 149 213 241
-0.31533 -0.27329 1.34921 149 213 241
0.29497 -0.3622 1.59048 149 213 241
0.29497 -0.3622 1.87552 149 213 241
0.29497 -0.33721 1.87552 149 213 241
0.29497 -0.33721 1.59048 149 213 241
0.14355 -0.33721 1.87552 149 213 241
0.14355 -0.3622 1.87552 149 213 241
0.14355 -0.33721 1.59048 149 213 241
0.14355 -0.3622 1.59048 149 213 241
-0.14355 -0.3622 1.59048 149 213 241
-0.3622 -0.31391 1.39725 149 213 241
-0.31499 -0.3622 2.02543 149 213 241
-0.3622 -0.31391 2.02543 149 213 241
-0.3622 0.31391 2.02543 149 213 241
-0.3622 0.31391 1.39725 149 213 241
-0.31 -0.26867 2.07712 149 213 241
-0.26959 -0.31 2.07712 149 213 241
-0.31 0.26867 2.07712 149 213 241
-0.14355 -0.3622 1.87552 149 213 241
-0.14355 -0.33721 1.59048 149 213 241
-0.14355 -0.33721 1.87552 149 213 241
-0.29497 -0.3622 1.87552 149 213 241
-0.29497 -0.3622 1.59048 149 213 241
-0.29497 -0.33721 1.87552 149 213 241
-0.29497 -0.33721 1.59048 149 213 241
0.26959 -0.31 2.07712 152 217 246
-0.26959 -0.31 2.07712 152 217 246
-0.31 -0.26867 2.07712 152 217 246
0.31 -0.26867 2.07712 152 217 246
-0.31499 0.3622 1.39725 149 213 241
0.29497 -0.33721 1.59048 253 250 254
0.14355 -0.33721 1.59048 253 250 254
0.14355 -0.33721 1.87552 253 250 254
0.29497 -0.33721 1.87552 253 250 254
-0.29497 -0.33721 1.59048 253 250 254
-0.29497 -0.33721 1.87552 253 250 254
-0.14355 -0.33721 1.87552 253 250 254
-0.14355 -0.33721 1.59048 253 250 254
-0.1183 -0.73648 1.65934 149 213 241
0.20226 -0.47985 0.3958 149 213 241
3 0 2 1
3 0 3 2
3 4 3 0
3 4 5 3
3 3 5 6
3 3 6 7
3 2 3 7
3 2 7 8
3 9 11 10
3 9 12 11
3 11 12 13
3 11 13 14
3 15 5 4
3 15 16 5
3 5 16 17
3 5 17 6
3 7 6 17
3 7 17 8
3 18 20 19
3 18 21 20
3 22 21 18
3 22 23 21
3 21 23 24
3 21 24 25
3 20 21 25
3 20 25 26
3 27 29 28
3 27 30 29
3 29 30 31
3 29 31 32
3 33 23 22
3 33 34 23
3 23 34 35
3 23 35 24
3 25 24 35
3 25 35 26
3 36 38 37
3 36 39 38
3 40 39 36
3 40 41 39
3 39 41 42
3 39 42 43
3 38 39 43
3 38 43 44
3 45 47 46
3 45 48 47
3 47 48 49
3 47 49 50
3 51 41 40
3 51 52 41
3 41 52 53
3 41 53 42
3 43 42 53
3 43 53 44
3 54 56 55
3 54 57 56
3 58 54 55
3 58 55 59
3 55 60 59
3 55 61 60
3 56 61 55
3 56 62 61
3 63 65 64
3 63 66 65
3 65 67 64
3 65 68 67
3 69 59 70
3 69 58 59
3 59 71 70
3 59 60 71
3 61 71 60
3 61 62 71
3 72 74 73
3 72 75 74
3 76 72 73
3 76 73 77
3 73 78 77
3 73 79 78
3 74 79 73
3 74 80 79
3 81 83 82
3 81 84 83
3 83 85 82
3 83 86 85
3 87 77 88
3 87 76 77
3 77 89 88
3 77 78 89
3 79 89 78
3 79 80 89
3 90 92 91
3 90 93 92
3 94 90 91
3 94 91 95
3 91 96 95
3 91 97 96
3 92 97 91
3 92 98 97
3 99 101 100
3 99 102 101
3 101 103 100
3 101 104 103
3 105 95 106
3 105 94 95
3 95 107 106
3 95 96 107
3 97 107 96
3 97 98 107
3 108 110 109
3 110 108 111
3 110 111 112
3 113 110 112
3 113 112 114
3 114 112 111
3 108 115 111
3 108 116 115
3 116 108 117
3 116 117 118
3 118 117 119
3 118 119 120
3 117 121 119
3 117 122 121
3 122 123 121
3 122 124 123
3 124 125 123
3 124 126 125
3 124 127 126
3 126 128 125
3 126 129 128
3 130 129 126
3 130 131 129
3 131 130 132
3 131 132 133
3 130 114 132
3 130 113 114
3 114 111 132
3 132 115 133
3 132 111 115
3 126 134 130
3 126 127 134
3 130 134 113
3 135 137 136
3 135 138 137
3 137 138 139
3 137 139 140
3 140 139 141
3 140 141 142
3 143 138 135
3 143 144 138
3 144 139 138
3 145 136 137
3 145 146 136
3 146 135 136
3 146 143 135
3 144 147 139
3 147 141 139
3 148 137 140
3 148 145 137
3 147 149 141
3 149 142 141
3 149 150 142
3 150 140 142
3 150 148 140
3 151 153 152
3 151 154 153
3 155 154 151
3 155 156 154
3 157 159 158
3 159 160 158
3 159 161 160
3 161 162 160
3 157 163 159
3 161 164 162
3 162 164 165
3 162 165 166
3 166 165 167
3 166 167 168
3 169 168 167
3 169 170 168
3 169 171 170
3 171 163 157
3 169 172 171
3 171 172 163
3 173 175 174
3 173 176 175
3 174 175 177
3 174 177 178
3 179 181 180
3 179 182 181
3 183 181 182
3 183 184 181
3 182 179 185
3 182 185 186
3 187 182 186
3 187 183 182
3 188 185 179
3 180 188 179
3 188 189 185
3 190 184 183
3 190 191 184
3 192 191 190
3 192 190 193
3 188 192 193
3 188 194 192
3 180 194 188
3 195 197 196
3 195 198 197
3 199 198 195
3 199 200 198
3 200 199 201
3 200 201 202
3 203 205 204
3 203 206 205
3 205 206 207
3 205 207 208
3 209 211 210
3 209 212 211
3 210 213 209
3 210 214 213
3 215 212 209
3 215 216 212
3 217 209 213
3 217 215 209
3 218 214 210
3 218 219 214
3 220 210 211
3 220 218 210
3 221 218 220
3 221 220 222
3 223 221 222
3 223 216 215
3 223 224 221
3 223 215 224
3 225 227 226
3 225 228 227
3 225 226 229
3 225 229 230
3 230 229 231
3 230 231 232
3 233 235 234
3 233 236 235
3 237 236 233
3 237 238 236
3 238 237 239
3 239 233 234
3 239 237 233
3 238 239 240
3 241 243 242
3 241 244 243
3 244 245 243
3 244 246 245
3 247 241 242
3 247 242 248
3 249 251 250
3 249 252 251
3 253 250 251
3 252 253 251
3 253 254 250
3 252 255 253
3 252 256 255
3 255 256 257
3 256 258 257
3 256 259 258
3 260 257 258
3 260 255 257
3 261 263 262
3 261 264 263
3 262 265 261
3 262 266 265
3 267 265 266
3 267 266 268
3 269 271 270
3 269 272 271
3 273 269 270
3 273 270 274
3 275 273 274
3 275 276 273
3 277 279 278
3 277 280 279
3 278 281 277
3 278 282 281
3 283 281 282
3 283 282 284
3 285 287 286
3 285 288 287
3 288 289 287
3 288 290 289
3 291 285 286
3 291 292 285
3 293 295 294
3 293 296 295
3 294 298 297
3 294 295 298
3 299 301 300
3 299 302 301
3 299 300 303
3 299 303 304
3 305 304 303
3 306 304 305
3 307 304 306
3 307 306 308
3 305 303 309
3 309 303 310
3 311 305 309
3 311 309 312
3 303 313 310
3 303 314 313
3 300 315 303
3 300 301 315
3 303 315 316
3 317 316 315
3 317 318 316
3 303 316 314
3 302 315 301
3 302 319 315
3 319 320 315
3 315 320 317
3 319 321 320
3 322 320 321
3 322 321 323
3 324 321 319
3 325 324 319
3 325 326 324
3 327 329 328
3 327 330 329
3 331 333 332
3 331 334 333
3 335 337 336
3 335 338 337
3 339 341 340
3 339 342 341
3 343 345 344
3 343 344 346
3 343 346 347
3 344 345 348
3 349 348 345
3 349 350 348
3 344 348 351
3 346 344 351
3 346 351 352
3 353 346 352
3 354 346 353
3 354 347 346
3 347 354 355
3 354 353 356
3 354 356 357
3 355 354 357
3 355 357 358
3 359 347 355
3 359 360 347
3 358 357 361
3 361 357 356
3 358 361 362
3 356 363 361
3 356 364 363
3 359 355 365
3 358 365 355
3 359 365 366
3 366 365 367
3 367 365 368
3 365 369 368
3 365 370 369
3 358 370 365
3 366 367 371
3 372 370 358
3 372 364 373
3 372 373 374
3 364 375 373
3 364 376 375
3 377 375 376
3 374 377 372
3 372 377 370
3 377 378 375
3 374 378 377
3 377 379 370
3 377 380 379
3 379 380 381
3 379 381 382
3 382 381 383
3 382 383 384
3 372 362 385
3 372 358 362
3 385 362 386
3 385 386 387
3 388 389 376
3 388 390 389
3 369 390 388
3 370 390 369
3 370 379 390
3 388 368 369
3 388 391 368
3 356 391 388
3 356 388 376
3 356 376 364
3 356 353 391
3 353 352 391
3 391 367 368
3 391 352 367
3 389 390 384
3 389 384 383
3 380 389 383
3 380 383 381
3 390 382 384
3 390 379 382
3 392 394 393
3 393 394 395
3 393 395 396
3 397 396 395
3 397 398 396
3 399 398 397
3 399 400 398
3 401 400 399
3 401 402 400
3 403 394 392
3 403 404 394
3 350 406 405
3 350 407 406
3 405 406 408
3 405 408 409
3 348 350 405
3 348 405 410
3 351 348 410
3 352 351 410
3 352 410 367
3 349 407 350
3 349 411 407
3 349 412 411
3 349 413 412
3 413 414 412
3 413 415 414
3 345 413 349
3 345 343 413
3 416 413 343
3 417 413 416
3 417 415 413
3 417 418 415
3 415 418 419
3 418 420 419
3 415 419 421
3 415 421 422
3 415 422 423
3 423 422 424
3 423 424 425
3 409 425 424
3 424 426 409
3 424 427 426
3 422 427 424
3 422 421 427
3 409 408 425
3 409 426 428
3 429 409 428
3 415 423 414
3 418 430 420
3 420 430 431
3 432 409 429
3 432 405 409
3 432 410 405
3 432 433 410
3 410 433 371
3 410 371 367
3 428 426 434
3 428 434 435
3 434 436 435
3 386 437 387
3 386 438 437
3 362 438 386
3 362 361 438
3 361 437 438
3 361 363 437
3 363 387 437
3 363 385 387
3 439 441 440
3 439 442 441
3 443 445 444
3 443 446 445
3 447 446 443
3 447 443 448
3 447 448 449
3 447 449 450
3 451 453 452
3 451 454 453
3 455 451 452
3 455 452 456
3 454 457 453
3 454 458 457
3 459 457 458
3 459 458 404
3 459 404 403
3 460 462 461
3 460 463 462
3 464 466 465
3 464 467 466
3 468 470 469
3 468 471 470
3 472 471 468
3 472 468 469
3 472 473 471
3 472 474 473
3 472 475 474
3 474 475 476
3 476 475 477
3 476 477 478
3 474 476 479
3 473 480 471
3 473 481 480
3 481 482 480
3 481 483 482
3 484 483 481
3 484 481 485
3 481 474 485
3 481 473 474
3 484 485 486
3 484 486 487
3 485 479 486
3 485 474 479
3 482 483 488
3 482 488 489
3 480 482 489
3 480 489 490
3 484 491 483
3 484 492 491
3 491 492 493
3 491 493 494
3 492 495 493
3 492 496 495
3 484 496 492
3 496 497 495
3 496 498 497
3 498 494 497
3 498 491 494
3 483 491 498
3 483 499 488
3 483 498 499
3 496 499 498
3 500 489 488
3 500 490 489
3 501 500 488
3 501 502 500
3 500 502 503
3 500 503 504
3 501 505 502
3 501 506 505
3 484 506 501
3 484 487 506
3 502 507 503
3 502 505 507
3 496 508 499
3 484 508 496
3 484 501 508
3 508 509 499
3 508 510 509
3 511 510 508
3 501 511 508
3 501 512 511
3 501 488 512
3 512 513 511
3 511 513 510
3 512 514 513
3 499 514 512
3 499 509 514
3 488 499 512
3 515 517 516
3 515 518 517
3 518 465 517
3 518 464 465
3 471 490 470
3 471 480 490
3 519 470 504
3 519 504 503
3 519 503 477
3 475 519 477
3 475 472 519
3 472 469 519
3 519 469 470
3 503 478 477
3 503 507 478
3 504 470 490
3 504 490 500
3 520 522 521
3 520 523 522
3 524 526 525
3 524 527 526
3 117 528 122
3 108 528 117
3 108 109 528
3 529 347 360
3 529 343 347
3 416 343 529
