mtllib Starmie.mtl
v 0.0131007 0.634078 0
vt 0.952978 0.948869
vn 0 0.3766129 0.9263707
v -0.0130501 0.634078 0
v 0 0.287989 0.140701
v -0.325076 0.407378 0
vn -0.358207 0.116389 0.9263592
v -0.333157 0.382507 0
v -0.213974 0.0156984 0
vn -0.2213841 -0.3047091 0.9263593
v -0.192817 0.000327301 0
v 0.214024 0.0156984 0
vn 0.2213679 -0.3046868 -0.9263704
v 0.192868 0.000327325 0
v 0 0.287989 -0.140701
v 0.325127 0.407378 0
vn 0.3581639 0.116375 -0.9263777
v 0.333208 0.382507 0
v -0.130501 0.468039 0
vn -0.4536501 0.320898 -0.8314001
vn -0.4536501 0.320898 0.8314001
v 0.131008 0.468039 0
vn 0.4522532 0.3211532 0.8320624
vn 0.4522532 0.3211532 -0.8320624
v -0.211311 0.21933 0
vn -0.4454198 -0.3326009 -0.8312507
vn -0.4454198 -0.3326009 0.8312507
vn -0.165272 0.530118 0.831661
vn -0.165272 0.530118 -0.831661
v 0.000253586 0.0656196 0
vn 0.177888 -0.526019 -0.831661
vn 0.177888 -0.526019 0.831661
vn -0.55585 0.007268519 0.8312509
vn -0.55585 0.007268519 -0.8312509
v 0.211818 0.21933 0
vn 0.5546501 0.006009471 -0.8320621
vn 0.5546501 0.006009471 0.8320621
vn -0.1783909 -0.5262599 0.8314008
vn -0.1783909 -0.5262599 -0.8314008
vn 0.1655181 0.5296623 -0.8319024
vn 0.165518 0.5296619 0.8319027
vn 0.4452339 -0.3312169 0.8319028
vn 0.4452339 -0.3312169 -0.8319028
vn -0.358207 0.116389 -0.9263592
vn -0.2213841 -0.3047091 -0.9263593
vn 0.2213679 -0.3046868 0.9263704
vn 0.3581639 0.116375 0.9263777
vn 0 0.3766129 -0.9263707
v -0.203424 0.593857 -0.119007
vn -0.2213679 0.304686 -0.9263707
v -0.183312 0.608469 -0.119007
v 0 0.334974 -0.252765
vn -0.2213679 0.304686 0.9263707
v 0 0.334974 0.0147513
v -0.309044 0.221505 -0.119007
vn -0.3582071 -0.116388 -0.9263593
v -0.316727 0.245148 -0.119007
vn -0.3582071 -0.116388 0.9263593
v 0.0124451 0.00599124 -0.119007
vn 0 -0.3766411 -0.9263593
v -0.0124153 0.00599124 -0.119007
vn 0 -0.3766411 0.9263593
v 0.316756 0.245148 -0.119007
vn 0.3581811 -0.11638 -0.9263703
v 0.309074 0.221505 -0.119007
vn 0.3581811 -0.11638 0.9263703
v 0.183342 0.608469 -0.119007
vn 0.2213569 0.3046729 -0.9263777
v 0.203454 0.593857 -0.119007
vn 0.2213569 0.3046729 0.9263777
v -0.200976 0.400528 -0.119007
vn -0.5556288 -0.007036938 -0.8314007
vn -0.5556288 -0.007036938 0.8314007
v 0.000148964 0.546654 -0.119007
vn 0.1771111 0.5256462 0.8320624
vn 0.1771111 0.5256462 -0.8320624
v -0.124153 0.164092 -0.119007
vn -0.164854 -0.5308909 -0.8312509
vn -0.164854 -0.5308909 0.8312509
vn -0.4453031 0.3317301 0.8316612
vn -0.4453031 0.3317301 -0.8316612
v 0.124451 0.164092 -0.119007
vn 0.4531009 -0.320998 -0.8316609
vn 0.4531009 -0.320998 0.8316609
vn -0.453964 -0.32084 0.8312511
vn -0.453964 -0.32084 -0.8312511
v 0.201274 0.400528 -0.119007
vn 0.165006 -0.5306089 0.8314008
vn 0.165006 -0.5306089 -0.8314008
vn -0.1774209 0.5257947 -0.8319025
vn -0.1774209 0.5257947 0.8319025
vn 0.5548866 -0.006257836 0.8319025
vn 0.5548866 -0.006257836 -0.8319025
v -0.0181804 0.387248 0.136677
vt 0.0799933 0.0655034
vn 0 0.1823571 0.9832324
v 0.0181804 0.387248 0.136677
v -0.0181804 0.468017 0.121697
vn 0 0.4329911 0.9013982
v 0.0181804 0.468017 0.121697
v -0.0181804 0.5224 0.0717558
vn 0 0.6763878 0.7365457
v 0.0181804 0.5224 0.0717558
vn 0 0 -1
v -0.0461167 0.409538 0.0717558
v 0.0461167 0.409538 0.0717558
vn 0.92938 0.159828 0.332728
vn -0.92938 0.159828 0.332728
v -0.083042 0.34532 0.136677
vn -0.1289459 0.1289459 0.9832324
v -0.057331 0.371031 0.136677
v -0.140154 0.402433 0.121697
vn -0.306171 0.306171 0.9013981
v -0.114443 0.428144 0.121697
v -0.178609 0.440887 0.0717558
vn -0.4782781 0.4782781 0.7365461
v -0.152898 0.466598 0.0717558
v -0.118557 0.341328 0.0717558
v -0.0533385 0.406547 0.0717558
vn 0.5441552 0.7701864 0.3327281
vn -0.7701861 -0.5441551 0.332729
v -0.0992588 0.269809 0.136677
vn -0.1823571 0 0.9832324
v -0.0992588 0.30617 0.136677
v -0.180028 0.269809 0.121697
vn -0.4329911 0 0.9013982
v -0.180028 0.30617 0.121697
v -0.234411 0.269809 0.0717558
vn -0.6763872 0 0.7365462
v -0.234411 0.30617 0.0717558
v -0.121549 0.241873 0.0717558
v -0.121549 0.334106 0.0717558
vn -0.1598279 0.9293796 0.3327289
vn -0.159828 -0.92938 0.332728
v -0.057331 0.204947 0.136677
vn -0.1289459 -0.1289459 0.9832324
v -0.083042 0.230658 0.136677
v -0.114443 0.147835 0.121697
vn -0.306171 -0.306171 0.9013981
v -0.140154 0.173546 0.121697
v -0.152898 0.109381 0.0717558
vn -0.4782781 -0.4782781 0.7365461
v -0.178609 0.135092 0.0717558
v -0.0533385 0.169432 0.0717558
v -0.118557 0.234651 0.0717558
vn -0.7701861 0.5441551 0.332729
vn 0.5441551 -0.7701861 0.332729
v 0.0181804 0.188731 0.136677
vn 0 -0.1823571 0.9832324
v -0.0181804 0.188731 0.136677
v 0.0181804 0.107962 0.121697
vn 0 -0.4329911 0.9013982
v -0.0181804 0.107962 0.121697
v 0.0181804 0.0535788 0.0717558
vn 0 -0.6763872 0.7365462
v -0.0181804 0.0535788 0.0717558
v 0.0461167 0.166441 0.0717558
v -0.0461167 0.166441 0.0717558
vn -0.9293796 -0.1598279 0.3327289
vn 0.9293796 -0.1598279 0.3327289
v 0.083042 0.230658 0.136677
vn 0.1289461 -0.1289461 0.9832323
v 0.057331 0.204947 0.136677
v 0.140154 0.173546 0.121697
vn 0.306171 -0.306171 0.9013981
v 0.114443 0.147835 0.121697
v 0.178609 0.135092 0.0717558
vn 0.4782781 -0.4782781 0.7365461
v 0.152898 0.109381 0.0717558
v 0.118557 0.234651 0.0717558
v 0.0533385 0.169432 0.0717558
vn -0.5441551 -0.7701861 0.332729
vn 0.7701861 0.5441551 0.332729
v 0.0992588 0.30617 0.136677
vn 0.1823571 0 0.9832324
v 0.0992588 0.269809 0.136677
v 0.180028 0.30617 0.121697
vn 0.4329911 0 0.9013982
v 0.180028 0.269809 0.121697
v 0.234411 0.30617 0.0717558
vn 0.6763878 0 0.7365457
v 0.234411 0.269809 0.0717558
v 0.121549 0.334106 0.0717558
v 0.121549 0.241873 0.0717558
vn 0.1598279 -0.9293796 0.3327289
vn 0.1598279 0.9293796 0.3327289
v 0.057331 0.371031 0.136677
vn 0.1289459 0.1289459 0.9832324
v 0.083042 0.34532 0.136677
v 0.114443 0.428144 0.121697
vn 0.306171 0.306171 0.9013981
v 0.140154 0.402433 0.121697
v 0.152898 0.466598 0.0717558
vn 0.4782781 0.4782781 0.7365461
v 0.178609 0.440887 0.0717558
v 0.0533385 0.406547 0.0717558
v 0.118557 0.341328 0.0717558
vn 0.7701861 -0.5441551 0.332729
vn -0.5441552 0.7701864 0.3327281
v 0.0776692 0.475652 0.0717057
vn 0.23894 0.576853 0.7811199
v -0.0776692 0.475652 0.0717057
vn -0.23894 0.576853 0.7811199
v 0.0448541 0.396429 0.140249
v -0.0448541 0.396429 0.140249
v -0.18751 0.365811 0.0717057
vn -0.576853 0.23894 0.7811199
v -0.108287 0.332996 0.140249
v -0.18751 0.210472 0.0717057
vn -0.5768541 -0.23894 0.7811191
v -0.108287 0.243287 0.140249
v -0.0776692 0.100631 0.0717057
vn -0.23894 -0.576853 0.7811199
v -0.0448541 0.179854 0.140249
v 0.0776692 0.100631 0.0717057
vn 0.23894 -0.576853 0.7811199
v 0.0448541 0.179854 0.140249
v 0.18751 0.210472 0.0717057
vn 0.576853 -0.23894 0.7811199
v 0.108287 0.243287 0.140249
v 0.18751 0.365811 0.0717057
vn 0.576853 0.23894 0.7811199
v 0.108287 0.332996 0.140249
v 0 0.288142 0.0717057
o merged_0_0_node
g polygon_0
usemtl lambert3_mat_id
f 1/1/1 2/1/1 3/1/1
f 4/1/2 5/1/2 3/1/2
f 6/1/3 7/1/3 3/1/3
f 8/1/4 9/1/4 10/1/4
f 11/1/5 12/1/5 10/1/5
f 13/1/6 2/1/6 10/1/6
f 3/1/7 2/1/7 13/1/7
f 14/1/8 1/1/8 3/1/8
f 10/1/9 1/1/9 14/1/9
f 15/1/10 5/1/10 10/1/10
f 3/1/11 5/1/11 15/1/11
f 13/1/12 4/1/12 3/1/12
f 10/1/13 4/1/13 13/1/13
f 16/1/14 7/1/14 10/1/14
f 3/1/15 7/1/15 16/1/15
f 15/1/16 6/1/16 3/1/16
f 10/1/17 6/1/17 15/1/17
f 17/1/18 8/1/18 10/1/18
f 3/1/19 8/1/19 17/1/19
f 16/1/20 9/1/20 3/1/20
f 10/1/21 9/1/21 16/1/21
f 14/1/22 11/1/22 10/1/22
f 3/1/23 11/1/23 14/1/23
f 17/1/24 12/1/24 3/1/24
f 10/1/25 12/1/25 17/1/25
f 5/1/26 4/1/26 10/1/26
f 7/1/27 6/1/27 10/1/27
f 9/1/28 8/1/28 3/1/28
f 12/1/29 11/1/29 3/1/29
f 2/1/30 1/1/30 10/1/30
f 18/1/31 19/1/31 20/1/31
f 19/1/32 18/1/32 21/1/32
f 22/1/33 23/1/33 20/1/33
f 23/1/34 22/1/34 21/1/34
f 24/1/35 25/1/35 20/1/35
f 25/1/36 24/1/36 21/1/36
f 26/1/37 27/1/37 20/1/37
f 27/1/38 26/1/38 21/1/38
f 28/1/39 29/1/39 20/1/39
f 29/1/40 28/1/40 21/1/40
f 30/1/41 18/1/41 20/1/41
f 21/1/42 18/1/42 30/1/42
f 31/1/43 19/1/43 21/1/43
f 20/1/44 19/1/44 31/1/44
f 32/1/45 22/1/45 20/1/45
f 21/1/46 22/1/46 32/1/46
f 30/1/47 23/1/47 21/1/47
f 20/1/48 23/1/48 30/1/48
f 33/1/49 24/1/49 20/1/49
f 21/1/50 24/1/50 33/1/50
f 32/1/51 25/1/51 21/1/51
f 20/1/52 25/1/52 32/1/52
f 34/1/9 26/1/9 20/1/9
f 21/1/8 26/1/8 34/1/8
f 33/1/53 27/1/53 21/1/53
f 20/1/54 27/1/54 33/1/54
f 31/1/55 28/1/55 20/1/55
f 21/1/56 28/1/56 31/1/56
f 34/1/57 29/1/57 21/1/57
f 20/1/58 29/1/58 34/1/58
f 35/2/59 36/2/59 37/2/60
f 37/2/60 36/2/59 38/2/60
f 37/2/60 38/2/60 39/2/61
f 39/2/61 38/2/60 40/2/61
f 39/2/62 40/2/62 41/2/62
f 41/2/62 40/2/62 42/2/62
f 36/2/63 42/2/63 38/2/63
f 38/2/63 42/2/63 40/2/63
f 35/2/64 37/2/64 41/2/64
f 41/2/64 37/2/64 39/2/64
f 43/2/65 44/2/65 45/2/66
f 45/2/66 44/2/65 46/2/66
f 45/2/66 46/2/66 47/2/67
f 47/2/67 46/2/66 48/2/67
f 47/2/62 48/2/62 49/2/62
f 49/2/62 48/2/62 50/2/62
f 44/2/68 50/2/68 46/2/68
f 46/2/68 50/2/68 48/2/68
f 43/2/69 45/2/69 49/2/69
f 49/2/69 45/2/69 47/2/69
f 51/2/70 52/2/70 53/2/71
f 53/2/71 52/2/70 54/2/71
f 53/2/71 54/2/71 55/2/72
f 55/2/72 54/2/71 56/2/72
f 55/2/62 56/2/62 57/2/62
f 57/2/62 56/2/62 58/2/62
f 52/2/73 58/2/73 54/2/73
f 54/2/73 58/2/73 56/2/73
f 51/2/74 53/2/74 57/2/74
f 57/2/74 53/2/74 55/2/74
f 59/2/75 60/2/75 61/2/76
f 61/2/76 60/2/75 62/2/76
f 61/2/76 62/2/76 63/2/77
f 63/2/77 62/2/76 64/2/77
f 63/2/62 64/2/62 65/2/62
f 65/2/62 64/2/62 66/2/62
f 60/2/78 66/2/78 62/2/78
f 62/2/78 66/2/78 64/2/78
f 59/2/79 61/2/79 65/2/79
f 65/2/79 61/2/79 63/2/79
f 67/2/80 68/2/80 69/2/81
f 69/2/81 68/2/80 70/2/81
f 69/2/81 70/2/81 71/2/82
f 71/2/82 70/2/81 72/2/82
f 71/2/62 72/2/62 73/2/62
f 73/2/62 72/2/62 74/2/62
f 68/2/83 74/2/83 70/2/83
f 70/2/83 74/2/83 72/2/83
f 67/2/84 69/2/84 73/2/84
f 73/2/84 69/2/84 71/2/84
f 75/2/85 76/2/85 77/2/86
f 77/2/86 76/2/85 78/2/86
f 77/2/86 78/2/86 79/2/87
f 79/2/87 78/2/86 80/2/87
f 79/2/62 80/2/62 81/2/62
f 81/2/62 80/2/62 82/2/62
f 76/2/88 82/2/88 78/2/88
f 78/2/88 82/2/88 80/2/88
f 75/2/89 77/2/89 81/2/89
f 81/2/89 77/2/89 79/2/89
f 83/2/90 84/2/90 85/2/91
f 85/2/91 84/2/90 86/2/91
f 85/2/91 86/2/91 87/2/92
f 87/2/92 86/2/91 88/2/92
f 87/2/62 88/2/62 89/2/62
f 89/2/62 88/2/62 90/2/62
f 84/2/93 90/2/93 86/2/93
f 86/2/93 90/2/93 88/2/93
f 83/2/94 85/2/94 89/2/94
f 89/2/94 85/2/94 87/2/94
f 91/2/95 92/2/95 93/2/96
f 93/2/96 92/2/95 94/2/96
f 93/2/96 94/2/96 95/2/97
f 95/2/97 94/2/96 96/2/97
f 95/2/62 96/2/62 97/2/62
f 97/2/62 96/2/62 98/2/62
f 92/2/98 98/2/98 94/2/98
f 94/2/98 98/2/98 96/2/98
f 91/2/99 93/2/99 97/2/99
f 97/2/99 93/2/99 95/2/99
f 99/2/100 100/2/101 101/2/100
f 101/2/100 100/2/101 102/2/101
f 100/2/101 103/2/102 102/2/101
f 102/2/101 103/2/102 104/2/102
f 103/2/102 105/2/103 104/2/102
f 104/2/102 105/2/103 106/2/103
f 105/2/103 107/2/104 106/2/103
f 106/2/103 107/2/104 108/2/104
f 107/2/104 109/2/105 108/2/104
f 108/2/104 109/2/105 110/2/105
f 109/2/105 111/2/106 110/2/105
f 110/2/105 111/2/106 112/2/106
f 111/2/106 113/2/107 112/2/106
f 112/2/106 113/2/107 114/2/107
f 113/2/107 99/2/100 114/2/107
f 114/2/107 99/2/100 101/2/100
f 100/2/62 99/2/62 115/2/62
f 103/2/62 100/2/62 115/2/62
f 105/2/62 103/2/62 115/2/62
f 107/2/62 105/2/62 115/2/62
f 109/2/62 107/2/62 115/2/62
f 111/2/62 109/2/62 115/2/62
f 113/2/62 111/2/62 115/2/62
f 99/2/62 113/2/62 115/2/62
v 0.0241005 0.346325 0.175307
vt 0.611281 0.768655
vn 0 0 1
v -0.0241005 0.346325 0.175307
vt 0.388719 0.768655
v 0 0.288142 0.175307
vt 0.5 0.5
v -0.0581838 0.312242 0.175307
vt 0.231345 0.61128
v -0.0581838 0.264041 0.175307
vt 0.231345 0.388719
v -0.0241005 0.229958 0.175307
vt 0.388719 0.231345
v 0.0241005 0.229958 0.175307
vt 0.611281 0.231345
v 0.0581838 0.264041 0.175307
vt 0.768655 0.388719
v 0.0581838 0.312242 0.175307
vt 0.768655 0.61128
vt 0.707107 1
vn 0 0.5732939 0.8193498
vt 0.292893 1
vn -0.40538 0.40538 0.8193499
vt 0 0.707107
vn -0.5732939 0 0.8193498
vt 0 0.292893
vn -0.4053803 -0.4053803 0.8193495
vt 0.292893 0
vn 0 -0.5732951 0.8193491
vt 0.707107 0
vn 0.4053798 -0.4053808 0.8193495
vt 1 0.292893
vn 0.5732939 0 0.8193498
vt 1 0.707107
vn 0.40538 0.40538 0.8193499
o merged_1_0_node
g polygon_0
usemtl ENV_core_mat_id
f 116/3/108 117/4/108 118/5/108
f 117/4/108 119/6/108 118/5/108
f 119/6/108 120/7/108 118/5/108
f 120/7/108 121/8/108 118/5/108
f 121/8/108 122/9/108 118/5/108
f 122/9/108 123/10/108 118/5/108
f 123/10/108 124/11/108 118/5/108
f 124/11/108 116/3/108 118/5/108
f 101/12/109 102/13/109 116/3/109
f 116/3/109 102/13/109 117/4/109
f 102/13/110 104/14/110 117/4/110
f 117/4/110 104/14/110 119/6/110
f 104/14/111 106/15/111 119/6/111
f 119/6/111 106/15/111 120/7/111
f 106/15/112 108/16/112 120/7/112
f 120/7/112 108/16/112 121/8/112
f 108/16/113 110/17/113 121/8/113
f 121/8/113 110/17/113 122/9/113
f 110/17/114 112/18/114 122/9/114
f 122/9/114 112/18/114 123/10/114
f 112/18/115 114/19/115 123/10/115
f 123/10/115 114/19/115 124/11/115
f 114/19/116 101/12/116 124/11/116
f 124/11/116 101/12/116 116/3/116
