mtllib Duosion.mtl
v -0.218552 0.332291 0.00668703
vt 0.774701 0.833561
vn -0.9992585 0.01399359 -0.03586948
v -0.175775 0.229411 -0.0909613
vt 0.789097 0.81625
vn -0.7102188 -0.6116999 -0.3484429
v -0.17941 0.229411 0.104755
vt 0.787874 0.81625
vn -0.7181298 -0.6257688 0.3044719
v -0.189109 0.344747 -0.111591
vt 0.78461 0.835657
vn -0.8309675 0.005834704 -0.5562903
v -0.19302 0.31314 0.126801
vt 0.783293 0.830339
vn -0.7962132 -0.09737783 0.5971282
v -0.1678 0.473974 -0.0986055
vt 0.791781 0.857402
vn -0.7990916 0.5446268 -0.2546259
v -0.18692 0.401038 0.121939
vt 0.786954 0.843871
vn -0.8177288 0.16556 0.5512799
v -0.171269 0.473974 0.112924
vt 0.790613 0.857402
vn -0.7932853 0.5834183 0.1741311
v -0.0928893 0.201969 -0.0469649
vt 0.816991 0.811632
vn -0.517013 -0.832682 -0.198339
v -0.0747757 0.229411 -0.164828
vt 0.823087 0.81625
vn -0.2500831 -0.5901271 -0.7675992
v -0.0712711 0.229411 0.172127
vt 0.824266 0.81625
vn -0.226902 -0.6443381 0.7303041
v -0.0712711 0.304946 0.20301
vt 0.824266 0.82896
vn -0.2844821 -0.153614 0.9462942
v -0.0929246 0.537749 -0.0784687
vt 0.816979 0.868133
vn -0.487387 0.85895 -0.157031
v -0.0713829 0.473974 -0.178441
vt 0.824229 0.857402
vn -0.2630471 0.4634621 -0.8461732
v -0.0712711 0.415799 0.200813
vt 0.824266 0.847613
vn -0.359323 0.140999 0.9225
v -0.0804481 0.344747 -0.201565
vt 0.821178 0.835657
vn -0.316195 -0.04982589 -0.9473849
v -0.0977419 0.201969 0.0761721
vt 0.815358 0.811632
vn -0.5484119 -0.8075748 0.21695
v 0 0.03358339 0.0117679
vt 0.848252 0.783298
vn 0 -0.9997308 -0.0232018
v 0 0.09762789 -0.0503632
vt 0.848252 0.794075
vn 0 -0.579389 -0.8150511
v 0 0.196804 -0.0751781
vt 0.848252 0.810763
vn 0 -0.7676337 -0.6408888
v -0.0968776 0.537749 0.101359
vt 0.815649 0.868133
vn -0.5004743 0.8581015 0.1148361
v -0.0712711 0.493875 0.174033
vt 0.824266 0.860751
vn -0.2406181 0.5718402 0.7842842
v 0.0928893 0.201969 -0.0469649
vt 0.879512 0.811632
vn 0.5170122 -0.8326824 -0.1983391
v 0 0.09694279 0.0746632
vt 0.848252 0.79396
vn 0 -0.587773 0.8090259
v 0.0977419 0.201969 0.0761721
vt 0.881146 0.811632
vn 0.5484126 -0.8075744 0.2169499
v 0 0.195434 0.100242
vt 0.848252 0.810533
vn 0 -0.6876261 0.726065
v 0.0712711 0.229411 0.172127
vt 0.872237 0.81625
vn 0.226902 -0.6443381 0.7303041
v 0.17941 0.229411 0.104755
vt 0.90863 0.81625
vn 0.7181298 -0.6257688 0.3044719
v 0.175775 0.229411 -0.0909613
vt 0.907406 0.81625
vn 0.7102184 -0.6117003 -0.3484432
v 0.0747756 0.229411 -0.164828
vt 0.873417 0.81625
vn 0.254037 -0.594179 -0.7631621
v 0.189109 0.344747 -0.111591
vt 0.911894 0.835657
vn 0.8309671 0.00583464 -0.556291
v 0.080448 0.344747 -0.201565
vt 0.875326 0.835657
vn 0.3141871 -0.04278652 -0.9483964
v 0.19302 0.31314 0.126801
vt 0.91321 0.830339
vn 0.7962132 -0.09737793 0.5971282
v 0.218552 0.332291 0.00668701
vt 0.921802 0.833561
vn 0.9992585 0.01399339 -0.03586958
v 0.0713828 0.473974 -0.178441
vt 0.872275 0.857402
vn 0.2571101 0.4573402 -0.8513134
v 0.0712711 0.304946 0.20301
vt 0.872237 0.82896
vn 0.284483 -0.153614 0.946294
v 0.1678 0.473974 -0.0986055
vt 0.904723 0.857402
vn 0.7990916 0.5446268 -0.2546259
v 0.18692 0.401038 0.121939
vt 0.90955 0.843871
vn 0.8177288 0.16556 0.5512799
v 0.171269 0.473974 0.112924
vt 0.90589 0.857402
vn 0.7932853 0.5834183 0.1741311
v 0.0712711 0.415799 0.200813
vt 0.872237 0.847613
vn 0.359323 0.140999 0.9225
v 0.0929246 0.537749 -0.0784688
vt 0.879524 0.868133
vn 0.487387 0.85895 -0.157031
v 0.0712711 0.493875 0.174033
vt 0.872237 0.860751
vn 0.2406181 0.5718402 0.7842842
v 0.0968776 0.537749 0.101359
vt 0.880855 0.868133
vn 0.500475 0.8581011 0.114836
v 0 0.556332 0.0953038
vt 0.486038 0.599538
vn 0 0.9747214 0.2234241
vt 0.00165028 0.585171
vt 0.129683 0.552506
vt 0.0214152 0.617955
vt 0.842394 0.552506
v 0 0.556332 -0.0687908
vt 0.486038 0.613411
vn 0 0.9648933 -0.2626421
vt 0.970427 0.585171
vt 0.950662 0.617955
v 0 0.415799 0.200813
vt 0.486038 0.489962
vn 0 0.1564471 0.9876863
vt 0.129683 0.489962
vt 0.129124 0.633549
vt 0.842952 0.633549
vt 0.842394 0.489962
vt 0.129683 0.212828
vt 0.0837979 0.665148
vt 0.888279 0.665148
vt 0.842394 0.212828
vt 0.11216 0.69335
vt 0.859916 0.69335
vt 0.842394 0.023991
vt 0.129683 0.023991
vt 0.486038 0.742498
vt 0.950485 0.741235
vt 0.0215916 0.741235
v 0.0436214 0.643831 -0.0278441
vt 0.698644 0.847359
vn 0.5773979 0.7629708 -0.2906669
v 0.0368505 0.593944 -0.0705663
vt 0.690578 0.870373
vn 0.30209 0.5960799 -0.743929
v -0.0368504 0.593944 -0.0705663
vt 0.602789 0.870373
vn -0.2796758 0.6023176 -0.7476596
v 0.0737009 0.593944 0
vt 0.734473 0.832359
vn 0.8081168 0.5700409 0.148326
v -0.0436214 0.643831 -0.0278441
vt 0.594724 0.847359
vn -0.5517707 0.7645036 -0.3332919
v 0 0.643831 0.0556882
vt 0.646684 0.80236
vn -0.03003288 0.7906505 0.6115307
v 0 0.654837 0
vt 0.646684 0.832359
vn 0 0.9999651 0.008350881
v -0.0737009 0.593944 0
vt 0.558894 0.832359
vn -0.8157218 0.5638659 0.129048
v 0.0368504 0.593944 0.0705663
vt 0.690578 0.794345
vn 0.5388519 0.5801859 0.6107559
v -0.0368504 0.593944 0.0705663
vt 0.602789 0.794345
vn -0.5533878 0.5854627 0.5924487
v 0 0.593944 0
vn 0 -1 1.3469E-06
v 0.0551076 0.142162 0.0603844
vt 0.852971 0.926411
vn -0.28402 -0.7736059 -0.566451
v 0.0392202 0.199358 0.0890421
vt 0.824557 0.972674
vn -0.7445122 0.6555482 0.126326
v 0.0958431 0.190082 0.0691382
vt 0.925826 0.96517
vn 0.8119671 0.423735 -0.401445
v 0.0746065 0.156674 0.121424
vt 0.887845 0.938148
vn 0.190828 -0.4239999 0.8853298
v -0.0551076 0.142162 0.0603844
vt 0.655851 0.926411
vn 0.28402 -0.7736059 -0.566451
v -0.0958431 0.190082 0.0691382
vt 0.582996 0.96517
vn -0.8119674 0.4237342 -0.4014452
v -0.0392202 0.199358 0.0890421
vt 0.684266 0.972674
vn 0.7445123 0.6555482 0.126325
v -0.0746065 0.156674 0.121424
vt 0.620978 0.938148
vn -0.1908289 -0.4239998 0.8853296
o merged_0_0_node
g polygon_0
usemtl mat_body_mat_id
f 1/1/1 2/2/2 3/3/3
f 1/1/1 4/4/4 2/2/2
f 1/1/1 3/3/3 5/5/5
f 1/1/1 6/6/6 4/4/4
f 1/1/1 5/5/5 7/7/7
f 1/1/1 8/8/8 6/6/6
f 1/1/1 7/7/7 8/8/8
f 2/2/2 9/9/9 3/3/3
f 2/2/2 4/4/4 10/10/10
f 2/2/2 10/10/10 9/9/9
f 5/5/5 3/3/3 11/11/11
f 5/5/5 11/11/11 12/12/12
f 6/6/6 8/8/8 13/13/13
f 6/6/6 14/14/14 4/4/4
f 6/6/6 13/13/13 14/14/14
f 7/7/7 15/15/15 8/8/8
f 10/10/10 4/4/4 16/16/16
f 16/16/16 4/4/4 14/14/14
f 9/9/9 17/17/17 3/3/3
f 9/9/9 18/18/18 17/17/17
f 9/9/9 19/19/19 18/18/18
f 9/9/9 20/20/20 19/19/19
f 3/3/3 17/17/17 11/11/11
f 13/13/13 8/8/8 21/21/21
f 15/15/15 22/22/22 8/8/8
f 8/8/8 22/22/22 21/21/21
f 18/18/18 19/19/19 23/23/23
f 18/18/18 24/24/24 17/17/17
f 18/18/18 23/23/23 25/25/25
f 18/18/18 25/25/25 24/24/24
f 19/19/19 20/20/20 23/23/23
f 11/11/11 17/17/17 26/26/26
f 11/11/11 26/26/26 27/27/27
f 26/26/26 25/25/25 27/27/27
f 26/26/26 17/17/17 24/24/24
f 26/26/26 24/24/24 25/25/25
f 23/23/23 28/28/28 25/25/25
f 23/23/23 29/29/29 28/28/28
f 23/23/23 30/30/30 29/29/29
f 25/25/25 28/28/28 27/27/27
f 30/30/30 31/31/31 29/29/29
f 30/30/30 32/32/32 31/31/31
f 28/28/28 33/33/33 27/27/27
f 28/28/28 29/29/29 34/34/34
f 28/28/28 34/34/34 33/33/33
f 29/29/29 31/31/31 34/34/34
f 32/32/32 35/35/35 31/31/31
f 27/27/27 33/33/33 36/36/36
f 34/34/34 31/31/31 37/37/37
f 34/34/34 38/38/38 33/33/33
f 34/34/34 37/37/37 39/39/39
f 34/34/34 39/39/39 38/38/38
f 31/31/31 35/35/35 37/37/37
f 39/39/39 40/40/40 38/38/38
f 39/39/39 37/37/37 41/41/41
f 39/39/39 42/42/42 40/40/40
f 39/39/39 41/41/41 43/43/43
f 39/39/39 43/43/43 42/42/42
f 41/41/41 37/37/37 35/35/35
f 44/44/44 21/45/21 22/46/22
f 44/44/44 13/47/13 21/45/21
f 44/44/44 22/46/22 42/48/42
f 44/44/44 45/49/45 13/47/13
f 44/44/44 42/48/42 43/50/43
f 44/44/44 41/51/41 45/49/45
f 44/44/44 43/50/43 41/51/41
f 22/46/22 46/52/46 42/48/42
f 22/46/22 15/53/15 46/52/46
f 13/47/13 45/49/45 14/54/14
f 41/51/41 35/55/35 45/49/45
f 45/49/45 35/55/35 14/54/14
f 42/48/42 46/52/46 40/56/40
f 15/53/15 12/57/12 46/52/46
f 35/55/35 16/58/16 14/54/14
f 35/55/35 32/59/32 16/58/16
f 40/56/40 46/52/46 36/60/36
f 46/52/46 12/57/12 36/60/36
f 32/59/32 10/61/10 16/58/16
f 32/59/32 30/62/30 10/61/10
f 12/57/12 27/63/27 36/60/36
f 12/57/12 11/64/11 27/63/27
f 30/62/30 20/65/20 10/61/10
f 30/62/30 23/66/23 20/65/20
f 10/61/10 20/65/20 9/67/9
f 47/68/47 48/69/48 49/70/49
f 47/68/47 50/71/50 48/69/48
f 47/68/47 49/70/49 51/72/51
f 47/68/47 52/73/52 50/71/50
f 47/68/47 51/72/51 53/74/53
f 47/68/47 53/74/53 52/73/52
f 53/74/53 51/72/51 52/73/52
f 49/70/49 54/75/54 51/72/51
f 50/71/50 52/73/52 55/76/55
f 54/75/54 56/77/56 51/72/51
f 56/77/56 52/73/52 51/72/51
f 56/77/56 55/76/55 52/73/52
f 57/74/57 49/70/57 48/69/57
f 57/74/57 54/75/57 49/70/57
f 57/74/57 48/69/57 50/71/57
f 57/74/57 56/77/57 54/75/57
f 57/74/57 50/71/57 55/76/57
f 57/74/57 55/76/57 56/77/57
f 58/78/58 59/79/59 60/80/60
f 58/78/58 61/81/61 59/79/59
f 58/78/58 60/80/60 61/81/61
f 61/81/61 60/80/60 59/79/59
f 62/82/62 63/83/63 64/84/64
f 62/82/62 65/85/65 63/83/63
f 62/82/62 64/84/64 65/85/65
f 65/85/65 64/84/64 63/83/63
vt 0.170124 0.805546
vt 0.170124 0.944113
vt 0.778866 0.815789
vt 0.748367 0.925662
o merged_1_0_node
g polygon_0
usemtl TEX_ANIM_EYE_mat_id
f 12/86/12 15/87/15 5/88/5
f 15/87/15 7/89/7 5/88/5
f 36/86/36 33/88/33 40/87/40
f 33/88/33 38/89/38 40/87/40
v 0.162964 0.490241 -0.171459
vt 0.318034 0.902821
vn -0.638499 -0.488985 0.594317
v 0.100717 0.306208 -0.277426
vt 0.292859 0.865605
vn -0.36882 0 0.9295009
v 0.240504 0.306208 -0.156388
vt 0.349395 0.865605
vn -0.8610616 0 0.5085008
v 0 0.474064 -0.25304
vt 0.252124 0.89955
vn 0 -0.4880979 0.8727889
v 0.263682 0.419947 0
vt 0.358769 0.888606
vn -0.9438876 -0.3302669 0
v 0 0.596758 -0.119044
vt 0.252124 0.924361
vn 0 -0.7129703 0.7011943
v 0.144614 0.580124 0
vt 0.310612 0.920997
vn -0.7957938 -0.6055678 0
v 0.102371 0.589258 -0.105975
vt 0.293527 0.922844
vn -0.497445 -0.6693571 0.551824
v 0.162964 0.122174 -0.171459
vt 0.318034 0.82839
vn -0.5621557 0.4908517 0.6656166
v -0.100717 0.306208 -0.277426
vt 0.211389 0.865605
vn 0.36882 0 0.9295009
v 0 0.138351 -0.25304
vt 0.252124 0.831661
vn 0 0.5020099 0.8648619
v 0.162964 0.490241 0.171459
vn -0.6457124 -0.4790803 -0.5945903
v 0.263682 0.192469 0
vt 0.358769 0.842605
vn -0.9917885 0.1278889 -0.0001957869
v 0.240504 0.306208 0.156388
vn -0.8610616 0 -0.5085008
v -0.162964 0.490241 -0.171459
vt 0.186214 0.902821
vn 0.638499 -0.488985 0.594317
v -0.102371 0.589258 -0.105975
vt 0.210721 0.922844
vn 0.497445 -0.6693571 0.551824
v 0 0.008434933 -0.105967
vt 0.252124 0.805389
vn 0 0.92968 0.368368
v -0.162964 0.122174 -0.171459
vt 0.186214 0.82839
vn 0.5621557 0.4908517 0.6656166
v 0.102371 0.589258 0.105975
vn -0.5279589 -0.6690408 -0.5231099
v 0.162964 0.122174 0.171459
vn -0.5620369 0.4897459 -0.666531
v 0.100717 0.306208 0.277426
vn -0.36882 0 -0.9295009
v -0.144614 0.580124 0
vt 0.193636 0.920997
vn 0.7957938 -0.6055678 0
v 0.127271 0.04294739 0
vt 0.303598 0.812368
vn -0.202077 0.9793691 0.00101379
v 0.234212 0.03933979 -0.0946936
vt 0.34685 0.811639
vn -0.661609 0.580007 0.475253
v -0.240504 0.306208 -0.156388
vt 0.154854 0.865605
vn 0.8610616 0 0.5085008
v 0 0.595661 0.13166
vt 0.252124 0.924139
vn 0 -0.6930018 -0.7209358
v 0 0.138351 0.25304
vn 0 0.5020099 -0.8648619
v 0.233814 0.03849649 0.0958727
vt 0.346689 0.811468
vn -0.657784 0.581203 -0.479086
v 0 0.008434933 0.105967
vn 0 0.92968 -0.368368
v -0.263682 0.419947 0
vt 0.14548 0.888606
vn 0.9438876 -0.3302669 0
v -0.162964 0.490241 0.171459
vn 0.6457124 -0.4790803 -0.5945903
v -0.102371 0.589258 0.105975
vn 0.5279589 -0.6690408 -0.5231099
v -0.127271 0.04294739 0
vt 0.20065 0.812368
vn 0.202077 0.9793691 0.00101379
v -0.263682 0.192469 0
vt 0.14548 0.842605
vn 0.9917885 0.1278889 -0.0001957889
v -0.234212 0.03933979 -0.0946936
vt 0.157398 0.811639
vn 0.661609 0.580007 0.475253
v 0 0.474065 0.25304
vn 0 -0.4689898 -0.8832036
v -0.162964 0.122174 0.171459
vn 0.5620369 0.4897459 -0.666531
v -0.100717 0.306208 0.277426
vn 0.36882 0 -0.9295009
v -0.233814 0.03849649 0.0958727
vt 0.157559 0.811468
vn 0.657784 0.581203 -0.479086
v -0.240504 0.306208 0.156388
vn 0.8610616 0 -0.5085008
v 0 0.688313 -0.065896
vt 0.252124 0.942875
vn 0 -0.878269 0.478167
vn 0.5368991 -0.6246292 0.5670782
vn 0 -0.5020441 0.8648421
v -0.0924318 0.6679701 0
vt 0.214741 0.938762
vn 0.6105556 -0.7919734 0
vn -0.5368991 -0.6246292 0.5670782
v 0 0.688313 0.065896
vn 0 -0.8829812 -0.4694081
v 0.0924318 0.6679701 0
vt 0.289508 0.938762
vn -0.6105556 -0.7919734 0
vn 0.8597542 -0.5107081 0
vn -0.8597542 -0.5107081 0
vn 0.5394868 -0.6330758 -0.5551298
vn -0.5394868 -0.6330758 -0.5551298
vn 0 -0.578812 -0.815461
o merged_2_0_node
g polygon_0
usemtl mat_mask_mat_id
f 66/90/66 67/91/67 68/92/68
f 66/90/66 69/93/69 67/91/67
f 66/90/66 68/92/68 70/94/70
f 66/90/66 71/95/71 69/93/69
f 66/90/66 70/94/70 72/96/72
f 66/90/66 73/97/73 71/95/71
f 66/90/66 72/96/72 73/97/73
f 67/91/67 74/98/74 68/92/68
f 67/91/67 69/93/69 75/99/75
f 67/91/67 76/100/76 74/98/74
f 67/91/67 75/99/75 76/100/76
f 70/94/70 77/90/77 72/96/72
f 70/94/70 68/92/68 78/101/78
f 70/94/70 79/92/79 77/90/77
f 70/94/70 78/101/78 79/92/79
f 68/92/68 74/98/74 78/101/78
f 71/95/71 80/102/80 69/93/69
f 71/95/71 81/103/81 80/102/80
f 69/93/69 80/102/80 75/99/75
f 76/100/76 82/104/82 74/98/74
f 76/100/76 75/99/75 83/105/83
f 76/100/76 83/105/83 82/104/82
f 72/96/72 77/90/77 84/97/84
f 79/92/79 78/101/78 85/98/85
f 79/92/79 86/91/86 77/90/77
f 79/92/79 85/98/85 86/91/86
f 81/103/81 87/106/87 80/102/80
f 74/98/74 82/104/82 88/107/88
f 74/98/74 89/108/89 78/101/78
f 74/98/74 88/107/88 89/108/89
f 75/99/75 90/109/90 83/105/83
f 75/99/75 80/102/80 90/109/90
f 84/97/84 77/90/77 91/110/91
f 85/98/85 92/100/92 86/91/86
f 85/98/85 78/101/78 93/111/93
f 85/98/85 93/111/93 88/107/88
f 85/98/85 94/104/94 92/100/92
f 85/98/85 88/107/88 94/104/94
f 88/107/88 82/104/82 94/104/94
f 88/107/88 93/111/93 89/108/89
f 89/108/89 93/111/93 78/101/78
f 87/106/87 95/112/95 80/102/80
f 87/106/87 96/102/96 95/112/95
f 87/106/87 97/103/97 96/102/96
f 97/103/97 91/110/91 96/102/96
f 80/102/80 95/112/95 90/109/90
f 83/105/83 98/113/98 82/104/82
f 83/105/83 90/109/90 99/114/99
f 83/105/83 100/115/100 98/113/98
f 83/105/83 99/114/99 100/115/100
f 90/109/90 95/112/95 99/114/99
f 82/104/82 98/113/98 94/104/94
f 77/90/77 86/91/86 101/93/101
f 77/90/77 101/93/101 91/110/91
f 91/110/91 101/93/101 96/102/96
f 92/100/92 94/104/94 102/105/102
f 92/100/92 103/99/103 86/91/86
f 92/100/92 102/105/102 103/99/103
f 101/93/101 103/99/103 96/102/96
f 101/93/101 86/91/86 103/99/103
f 94/104/94 98/113/98 102/105/102
f 100/115/100 99/114/99 104/116/104
f 100/115/100 104/116/104 98/113/98
f 104/116/104 102/105/102 98/113/98
f 104/116/104 99/114/99 102/105/102
f 95/112/95 96/102/96 105/109/105
f 95/112/95 105/109/105 99/114/99
f 105/109/105 96/102/96 103/99/103
f 105/109/105 102/105/102 99/114/99
f 105/109/105 103/99/103 102/105/102
f 106/117/106 81/103/107 71/95/108
f 106/117/106 107/118/109 81/103/107
f 106/117/106 71/95/108 73/97/110
f 106/117/106 108/117/111 107/118/109
f 106/117/106 73/97/110 109/119/112
f 106/117/106 109/119/112 108/117/111
f 81/103/107 107/118/109 87/106/113
f 73/97/110 72/96/114 109/119/112
f 108/117/111 97/103/115 107/118/109
f 108/117/111 109/119/112 84/97/116
f 108/117/111 91/110/117 97/103/115
f 108/117/111 84/97/116 91/110/117
f 84/97/116 109/119/112 72/96/114
f 97/103/115 87/106/113 107/118/109
o merged_3_0_node
g polygon_0
usemtl mat_maku_mat_id
f 66/90/66 67/91/67 68/92/68
f 66/90/66 69/93/69 67/91/67
f 66/90/66 68/92/68 70/94/70
f 66/90/66 71/95/71 69/93/69
f 66/90/66 70/94/70 72/96/72
f 66/90/66 73/97/73 71/95/71
f 66/90/66 72/96/72 73/97/73
f 67/91/67 74/98/74 68/92/68
f 67/91/67 69/93/69 75/99/75
f 67/91/67 76/100/76 74/98/74
f 67/91/67 75/99/75 76/100/76
f 70/94/70 77/90/77 72/96/72
f 70/94/70 68/92/68 78/101/78
f 70/94/70 79/92/79 77/90/77
f 70/94/70 78/101/78 79/92/79
f 68/92/68 74/98/74 78/101/78
f 71/95/71 80/102/80 69/93/69
f 71/95/71 81/103/81 80/102/80
f 69/93/69 80/102/80 75/99/75
f 76/100/76 82/104/82 74/98/74
f 76/100/76 75/99/75 83/105/83
f 76/100/76 83/105/83 82/104/82
f 72/96/72 77/90/77 84/97/84
f 79/92/79 78/101/78 85/98/85
f 79/92/79 86/91/86 77/90/77
f 79/92/79 85/98/85 86/91/86
f 81/103/81 87/106/87 80/102/80
f 74/98/74 82/104/82 88/107/88
f 74/98/74 89/108/89 78/101/78
f 74/98/74 88/107/88 89/108/89
f 75/99/75 90/109/90 83/105/83
f 75/99/75 80/102/80 90/109/90
f 84/97/84 77/90/77 91/110/91
f 85/98/85 92/100/92 86/91/86
f 85/98/85 78/101/78 93/111/93
f 85/98/85 93/111/93 88/107/88
f 85/98/85 94/104/94 92/100/92
f 85/98/85 88/107/88 94/104/94
f 88/107/88 82/104/82 94/104/94
f 88/107/88 93/111/93 89/108/89
f 89/108/89 93/111/93 78/101/78
f 87/106/87 95/112/95 80/102/80
f 87/106/87 96/102/96 95/112/95
f 87/106/87 97/103/97 96/102/96
f 97/103/97 91/110/91 96/102/96
f 80/102/80 95/112/95 90/109/90
f 83/105/83 98/113/98 82/104/82
f 83/105/83 90/109/90 99/114/99
f 83/105/83 100/115/100 98/113/98
f 83/105/83 99/114/99 100/115/100
f 90/109/90 95/112/95 99/114/99
f 82/104/82 98/113/98 94/104/94
f 77/90/77 86/91/86 101/93/101
f 77/90/77 101/93/101 91/110/91
f 91/110/91 101/93/101 96/102/96
f 92/100/92 94/104/94 102/105/102
f 92/100/92 103/99/103 86/91/86
f 92/100/92 102/105/102 103/99/103
f 101/93/101 103/99/103 96/102/96
f 101/93/101 86/91/86 103/99/103
f 94/104/94 98/113/98 102/105/102
f 100/115/100 99/114/99 104/116/104
f 100/115/100 104/116/104 98/113/98
f 104/116/104 102/105/102 98/113/98
f 104/116/104 99/114/99 102/105/102
f 95/112/95 96/102/96 105/109/105
f 95/112/95 105/109/105 99/114/99
f 105/109/105 96/102/96 103/99/103
f 105/109/105 102/105/102 99/114/99
f 105/109/105 103/99/103 102/105/102
f 106/117/106 81/103/107 71/95/108
f 106/117/106 107/118/109 81/103/107
f 106/117/106 71/95/108 73/97/110
f 106/117/106 108/117/111 107/118/109
f 106/117/106 73/97/110 109/119/112
f 106/117/106 109/119/112 108/117/111
f 81/103/107 107/118/109 87/106/113
f 73/97/110 72/96/114 109/119/112
f 108/117/111 97/103/115 107/118/109
f 108/117/111 109/119/112 84/97/116
f 108/117/111 91/110/117 97/103/115
f 108/117/111 84/97/116 91/110/117
f 84/97/116 109/119/112 72/96/114
f 97/103/115 87/106/113 107/118/109
