ply
format ascii 1.0
element vertex 354
property float x
property float y
property float z
property uchar red
property uchar green
property uchar blue
element face 430
property list uchar int vertex_index
end_header
-0.24497 -0.51016 1.34778 236 235 93
-0.24378 -0.21068 1.86553 236 235 93
-0.21284 -0.23808 1.88135 236 235 93
-0.21304 -0.53845 1.36411 236 235 93
0.21304 -0.53845 1.36411 236 235 93
0.21376 -0.23808 1.88135 236 235 93
0.24497 -0.51016 1.34778 236 235 93
0.2447 -0.21068 1.86553 236 235 93
-0.18018 -0.18314 1.90162 236 235 93
-0.20629 -0.16001 1.88827 236 235 93
0.1811 -0.18314 1.90162 236 235 93
0.20721 -0.16001 1.88827 236 235 93
0.20721 -0.16001 1.88827 243 242 96
0.1811 -0.18314 1.90162 243 242 96
-0.18018 -0.18314 1.90162 243 242 96
-0.20629 -0.16001 1.88827 243 242 96
0.20721 0.15057 1.70895 243 242 96
-0.20629 0.15057 1.70895 243 242 96
0.1811 0.1737 1.6956 243 242 96
-0.18018 0.1737 1.6956 243 242 96
-0.24378 0.15621 1.65371 236 235 93
-0.24497 -0.14243 1.13547 236 235 93
-0.21304 -0.11414 1.11914 236 235 93
-0.21284 0.18362 1.63788 236 235 93
0.21376 0.18362 1.63788 236 235 93
0.21304 -0.11414 1.11914 236 235 93
0.2447 0.15621 1.65371 236 235 93
0.24497 -0.14243 1.13547 236 235 93
-0.18018 0.1737 1.6956 236 235 93
0.1811 0.1737 1.6956 236 235 93
-0.20629 0.15057 1.70895 236 235 93
0.20721 0.15057 1.70895 236 235 93
-0.27219 -0.58497 1.26538 208 177 174
-0.27219 -0.54544 1.33386 208 177 174
-0.23671 -0.57687 1.35201 208 177 174
-0.23671 -0.6164 1.28353 208 177 174
-0.27219 -0.17638 1.02948 208 177 174
-0.27219 -0.13685 1.09796 208 177 174
0.23671 -0.6164 1.28353 208 177 174
0.23671 -0.57687 1.35201 208 177 174
0.27219 -0.58497 1.26538 208 177 174
0.27219 -0.54544 1.33386 208 177 174
0.27219 -0.13685 1.09796 208 177 174
0.27219 -0.17638 1.02948 208 177 174
-0.21304 -0.6075 1.24451 208 177 174
0.21304 -0.6075 1.24451 208 177 174
-0.24497 -0.57921 1.22818 208 177 174
-0.24497 -0.21148 1.01587 208 177 174
-0.21304 -0.18319 0.99954 208 177 174
-0.23671 -0.14495 1.01134 208 177 174
0.24497 -0.57921 1.22818 208 177 174
0.24497 -0.21148 1.01587 208 177 174
0.23671 -0.14495 1.01134 208 177 174
0.21304 -0.18319 0.99954 208 177 174
-0.17398 -0.5686 1.22206 208 177 174
0.17398 -0.5686 1.22206 208 177 174
-0.20006 -0.5455 1.20872 208 177 174
-0.20006 -0.24519 1.03533 208 177 174
-0.17398 -0.22209 1.022 208 177 174
0.17398 -0.22209 1.022 208 177 174
0.20006 -0.24519 1.03533 208 177 174
0.20006 -0.5455 1.20872 208 177 174
-0.20006 -0.2169 1.08433 208 177 174
-0.20006 -0.51722 1.25771 208 177 174
-0.17398 -0.1938 1.07099 208 177 174
0.17398 -0.1938 1.07099 208 177 174
0.20006 -0.2169 1.08433 208 177 174
0.20006 -0.51722 1.25771 208 177 174
-0.23671 -0.10542 1.07981 208 177 174
0.23671 -0.10542 1.07981 208 177 174
0.17398 -0.54032 1.27105 40 38 32
0.20006 -0.51722 1.25771 40 38 32
-0.20006 -0.51722 1.25771 40 38 32
-0.17398 -0.54032 1.27105 40 38 32
-0.20006 -0.2169 1.08433 40 38 32
0.20006 -0.2169 1.08433 40 38 32
-0.17398 -0.1938 1.07099 40 38 32
0.17398 -0.1938 1.07099 40 38 32
0.23671 -0.10542 1.07981 218 185 182
0.21304 -0.11414 1.11914 218 185 182
-0.21304 -0.11414 1.11914 218 185 182
-0.23671 -0.10542 1.07981 218 185 182
-0.24497 -0.14243 1.13547 218 185 182
-0.27219 -0.13685 1.09796 218 185 182
-0.24497 -0.51016 1.34778 218 185 182
-0.27219 -0.54544 1.33386 218 185 182
0.27219 -0.13685 1.09796 218 185 182
0.24497 -0.14243 1.13547 218 185 182
0.27219 -0.54544 1.33386 218 185 182
0.24497 -0.51016 1.34778 218 185 182
-0.21304 -0.53845 1.36411 218 185 182
-0.23671 -0.57687 1.35201 218 185 182
0.21304 -0.53845 1.36411 218 185 182
0.23671 -0.57687 1.35201 218 185 182
0.17398 -0.54032 1.27105 208 177 174
-0.17398 -0.54032 1.27105 208 177 174
0.1516 -0.41603 1.59157 46 43 42
0.1516 -0.44521 1.54103 46 43 42
0.13897 -0.42894 1.56923 46 43 42
0.13897 -0.41603 1.59157 46 43 42
0.1516 -0.40639 1.58601 46 43 42
0.11065 -0.42894 1.56923 46 43 42
0.09982 -0.44521 1.54103 46 43 42
0.11065 -0.41603 1.59157 46 43 42
0.09982 -0.41603 1.59157 46 43 42
0.1516 -0.44147 1.52524 46 43 42
0.1516 -0.45112 1.53081 46 43 42
0.09982 -0.44147 1.52524 46 43 42
0.09982 -0.45112 1.53081 46 43 42
0.09982 -0.40639 1.58601 46 43 42
0.09982 -0.45112 1.53081 87 87 86
0.09982 -0.44521 1.54103 87 87 86
0.1516 -0.44521 1.54103 87 87 86
0.1516 -0.45112 1.53081 87 87 86
0.11065 -0.41603 1.59157 251 251 251
0.13897 -0.41603 1.59157 251 251 251
0.13897 -0.42894 1.56923 251 251 251
0.11065 -0.42894 1.56923 251 251 251
-0.1516 -0.41603 1.59157 46 43 42
-0.13897 -0.41603 1.59157 46 43 42
-0.13897 -0.42894 1.56923 46 43 42
-0.1516 -0.44521 1.54103 46 43 42
-0.1516 -0.40639 1.58601 46 43 42
-0.11065 -0.42894 1.56923 46 43 42
-0.09982 -0.44521 1.54103 46 43 42
-0.11065 -0.41603 1.59157 46 43 42
-0.09982 -0.41603 1.59157 46 43 42
-0.1516 -0.44147 1.52524 46 43 42
-0.1516 -0.45112 1.53081 46 43 42
-0.09982 -0.44147 1.52524 46 43 42
-0.09982 -0.45112 1.53081 46 43 42
-0.09982 -0.40639 1.58601 46 43 42
-0.09982 -0.45112 1.53081 87 87 86
-0.1516 -0.45112 1.53081 87 87 86
-0.1516 -0.44521 1.54103 87 87 86
-0.09982 -0.44521 1.54103 87 87 86
-0.11065 -0.41603 1.59157 251 251 251
-0.11065 -0.42894 1.56923 251 251 251
-0.13897 -0.42894 1.56923 251 251 251
-0.13897 -0.41603 1.59157 251 251 251
0 -0.05486 0.26186 136 122 101
-0.06296 -0.05486 0.36966 136 122 101
0.06296 -0.05486 0.36966 136 122 101
0.06296 -0.05488 1.40916 136 122 101
-0.06296 -0.05488 1.40916 136 122 101
0.06296 0.04176 1.40916 136 122 101
0.06296 0.04178 0.36966 136 122 101
-0.06296 0.04176 1.40916 136 122 101
-0.06296 0.04178 0.36966 136 122 101
-0.25551 -0.05486 0.10791 136 122 101
-0.19382 -0.05486 0.01356 136 122 101
0 0.04178 0.26186 136 122 101
-0.19382 0.04178 0.01356 136 122 101
0.19382 -0.05486 0.01356 136 122 101
0.19382 0.04178 0.01356 136 122 101
0.25551 -0.05486 0.10791 136 122 101
0.27697 -0.05486 0.09654 136 122 101
0.22 -0.05486 -8.39233E-08 136 122 101
0.385 -0.05486 0.09661 136 122 101
0.385 -0.05486 -8.39233E-08 136 122 101
0.385 0.04178 -8.39233E-08 136 122 101
0.22 0.04178 -8.39233E-08 136 122 101
0.495 0.04178 -8.39233E-08 136 122 101
0.495 -0.05486 -8.39233E-08 136 122 101
0.71501 0.04178 -8.39233E-08 136 122 101
0.71501 -0.05486 -8.39233E-08 136 122 101
0.495 -0.05486 0.09669 136 122 101
0.71501 -0.05486 0.09685 136 122 101
0.385 -0.22979 -8.39233E-08 136 122 101
0.385 -0.22979 0.09661 136 122 101
0.495 -0.22979 -8.39233E-08 136 122 101
0.495 -0.22979 0.09669 136 122 101
0.73619 -0.03918 -8.39233E-08 136 122 101
0.73619 -0.03918 0.09685 136 122 101
0.73619 0.0261 0.09685 136 122 101
0.73619 0.0261 -8.39233E-08 136 122 101
0.71501 0.04178 0.09685 136 122 101
0.495 0.04178 0.09669 136 122 101
0.495 0.21671 -8.39233E-08 136 122 101
0.495 0.21671 0.09669 136 122 101
0.385 0.21671 -8.39233E-08 136 122 101
0.385 0.21671 0.09661 136 122 101
0.385 0.04178 0.09661 136 122 101
0.27697 0.04178 0.09654 136 122 101
0.4 0.24062 0.09661 136 122 101
0.4 0.24062 -8.39233E-08 136 122 101
0.48001 0.24062 0.09669 136 122 101
0.48001 0.24062 -8.39233E-08 136 122 101
0.25551 0.04178 0.10791 136 122 101
-0.25551 0.04178 0.10791 136 122 101
-0.27697 0.04178 0.09654 136 122 101
-0.22 0.04178 -8.39233E-08 136 122 101
-0.385 0.04178 0.0965 136 122 101
-0.385 0.04178 -8.39233E-08 136 122 101
-0.385 -0.05486 -8.39233E-08 136 122 101
-0.22 -0.05486 -8.39233E-08 136 122 101
-0.495 -0.05486 -8.39233E-08 136 122 101
-0.495 0.04178 -8.39233E-08 136 122 101
-0.71501 -0.05486 -8.39233E-08 136 122 101
-0.71501 0.04178 -8.39233E-08 136 122 101
-0.495 0.04178 0.09647 136 122 101
-0.71501 0.04178 0.09641 136 122 101
-0.385 0.21671 -8.39233E-08 136 122 101
-0.385 0.21671 0.0965 136 122 101
-0.495 0.21671 -8.39233E-08 136 122 101
-0.495 0.21671 0.09647 136 122 101
-0.73619 0.0261 -8.39233E-08 136 122 101
-0.73619 0.0261 0.09641 136 122 101
-0.73619 -0.03918 0.09641 136 122 101
-0.73619 -0.03918 -8.39233E-08 136 122 101
-0.71501 -0.05486 0.09641 136 122 101
-0.495 -0.05486 0.09647 136 122 101
-0.495 -0.22979 -8.39233E-08 136 122 101
-0.495 -0.22979 0.09647 136 122 101
-0.385 -0.22979 -8.39233E-08 136 122 101
-0.385 -0.22979 0.0965 136 122 101
-0.385 -0.05486 0.0965 136 122 101
-0.27697 -0.05486 0.09654 136 122 101
-0.4 -0.2537 0.0965 136 122 101
-0.4 -0.2537 -8.39233E-08 136 122 101
-0.48 -0.2537 0.09647 136 122 101
-0.48 -0.2537 -8.39233E-08 136 122 101
0.06296 0.04178 0.36966 144 129 107
0.25551 0.04178 0.10791 144 129 107
0.25551 -0.05486 0.10791 144 129 107
0.06296 -0.05486 0.36966 144 129 107
0.27697 -0.05486 0.09654 144 129 107
0.27697 0.04178 0.09654 144 129 107
0.385 -0.05486 0.09661 144 129 107
0.385 0.04178 0.09661 144 129 107
0.495 -0.05486 0.09669 144 129 107
0.495 0.04178 0.09669 144 129 107
0.385 -0.22979 0.09661 144 129 107
0.495 -0.22979 0.09669 144 129 107
0.495 0.21671 0.09669 144 129 107
0.385 0.21671 0.09661 144 129 107
0.4 -0.2537 0.09661 144 129 107
0.48001 -0.2537 0.09669 144 129 107
0.48001 0.24062 0.09669 144 129 107
0.4 0.24062 0.09661 144 129 107
0.71501 -0.05486 0.09685 144 129 107
0.71501 0.04178 0.09685 144 129 107
0.73619 -0.03918 0.09685 144 129 107
0.73619 0.0261 0.09685 144 129 107
-0.06296 -0.05486 0.36966 144 129 107
-0.25551 -0.05486 0.10791 144 129 107
-0.25551 0.04178 0.10791 144 129 107
-0.06296 0.04178 0.36966 144 129 107
-0.27697 0.04178 0.09654 144 129 107
-0.27697 -0.05486 0.09654 144 129 107
-0.385 -0.05486 0.0965 144 129 107
-0.385 0.04178 0.0965 144 129 107
-0.495 0.04178 0.09647 144 129 107
-0.495 -0.05486 0.09647 144 129 107
-0.385 0.21671 0.0965 144 129 107
-0.495 0.21671 0.09647 144 129 107
-0.495 -0.22979 0.09647 144 129 107
-0.385 -0.22979 0.0965 144 129 107
-0.4 0.24062 0.0965 144 129 107
-0.48 0.24062 0.09647 144 129 107
-0.48 -0.2537 0.09647 144 129 107
-0.4 -0.2537 0.0965 144 129 107
-0.71501 0.04178 0.09641 144 129 107
-0.71501 -0.05486 0.09641 144 129 107
-0.73619 0.0261 0.09641 144 129 107
-0.73619 -0.03918 0.09641 144 129 107
-0.4 0.24062 0.0965 136 122 101
-0.48 0.24062 0.09647 136 122 101
-0.48 0.24062 -8.39233E-08 136 122 101
-0.4 0.24062 -8.39233E-08 136 122 101
0.4 -0.2537 0.09661 136 122 101
0.48001 -0.2537 0.09669 136 122 101
0.48001 -0.2537 -8.39233E-08 136 122 101
0.4 -0.2537 -8.39233E-08 136 122 101
-0.05116 -0.19856 0.61791 153 206 148
-0.11457 -0.23837 0.59492 153 206 148
-0.11457 -0.27237 0.65381 153 206 148
-0.05116 -0.23256 0.6768 153 206 148
-0.05116 0.21258 0.85528 153 206 148
-0.11457 -0.00469 0.72984 153 206 148
-0.11457 0.02522 0.7471 153 206 148
-0.05116 0.17858 0.91417 153 206 148
-0.88561 -0.23837 0.59492 153 206 148
-0.88561 -0.27237 0.65381 153 206 148
-0.88561 -0.00469 0.72984 153 206 148
-0.92964 -0.19856 0.61791 153 206 148
-0.92964 -0.23256 0.6768 153 206 148
-0.92964 0.21258 0.85528 153 206 148
-0.92964 0.17858 0.91417 153 206 148
-0.88561 0.02522 0.7471 153 206 148
-0.11457 0.25239 0.87826 153 206 148
-0.88561 0.25239 0.87826 153 206 148
-0.05116 -0.23256 0.6768 184 217 145
-0.11457 -0.27237 0.65381 184 217 145
-0.11457 -0.05525 0.77916 184 217 145
-0.88561 -0.05525 0.77916 184 217 145
-0.88561 -0.27237 0.65381 184 217 145
-0.92964 -0.23256 0.6768 184 217 145
-0.88561 0.00778 0.81555 184 217 145
-0.92964 0.17858 0.91417 184 217 145
-0.88561 0.21839 0.93715 184 217 145
-0.11457 0.21839 0.93715 184 217 145
-0.11457 0.00778 0.81555 184 217 145
-0.05116 0.17858 0.91417 184 217 145
-0.11457 0.21839 0.93715 153 206 148
-0.88561 0.21839 0.93715 153 206 148
-0.88561 0.00778 0.81555 132 181 126
-0.11457 0.00778 0.81555 132 181 126
-0.11457 -0.05525 0.77916 132 181 126
-0.88561 -0.05525 0.77916 132 181 126
-0.88561 -0.00469 0.72984 132 181 126
-0.11457 -0.00469 0.72984 132 181 126
-0.11457 0.02522 0.7471 132 181 126
-0.88561 0.02522 0.7471 132 181 126
0.05116 -0.19856 0.61791 153 206 148
0.05116 -0.23256 0.6768 153 206 148
0.11457 -0.27237 0.65381 153 206 148
0.11457 -0.23837 0.59492 153 206 148
0.05116 0.21258 0.85528 153 206 148
0.11457 -0.00469 0.72984 153 206 148
0.11457 0.02522 0.7471 153 206 148
0.05116 0.17858 0.91417 153 206 148
0.88561 -0.23837 0.59492 153 206 148
0.88561 -0.27237 0.65381 153 206 148
0.88561 -0.00469 0.72984 153 206 148
0.92964 -0.19856 0.61791 153 206 148
0.92964 -0.23256 0.6768 153 206 148
0.92964 0.21258 0.85528 153 206 148
0.92964 0.17858 0.91417 153 206 148
0.88561 0.02522 0.7471 153 206 148
0.11457 0.25239 0.87826 153 206 148
0.88561 0.25239 0.87826 153 206 148
0.05116 -0.23256 0.6768 184 217 145
0.11457 -0.05525 0.77916 184 217 145
0.11457 -0.27237 0.65381 184 217 145
0.88561 -0.05525 0.77916 184 217 145
0.88561 -0.27237 0.65381 184 217 145
0.92964 -0.23256 0.6768 184 217 145
0.88561 0.00778 0.81555 184 217 145
0.92964 0.17858 0.91417 184 217 145
0.88561 0.21839 0.93715 184 217 145
0.11457 0.21839 0.93715 184 217 145
0.11457 0.00778 0.81555 184 217 145
0.05116 0.17858 0.91417 184 217 145
0.11457 0.21839 0.93715 153 206 148
0.88561 0.21839 0.93715 153 206 148
0.88561 0.00778 0.81555 132 181 126
0.88561 -0.05525 0.77916 132 181 126
0.11457 -0.05525 0.77916 132 181 126
0.11457 0.00778 0.81555 132 181 126
0.88561 -0.00469 0.72984 132 181 126
0.88561 0.02522 0.7471 132 181 126
0.11457 0.02522 0.7471 132 181 126
0.11457 -0.00469 0.72984 132 181 126
3 0 2 1
3 0 3 2
3 2 3 4
3 2 4 5
3 5 4 6
3 5 6 7
3 1 2 8
3 1 8 9
3 2 10 8
3 2 5 10
3 5 11 10
3 5 7 11
3 12 14 13
3 12 15 14
3 16 15 12
3 16 17 15
3 18 17 16
3 18 19 17
3 20 22 21
3 20 23 22
3 21 1 20
3 21 0 1
3 22 23 24
3 22 24 25
3 25 24 26
3 25 26 27
3 6 27 26
3 6 26 7
3 24 23 28
3 24 28 29
3 26 24 29
3 23 30 28
3 23 20 30
3 20 9 30
3 20 1 9
3 7 26 31
3 26 29 31
3 7 31 11
3 32 34 33
3 32 35 34
3 36 32 33
3 36 33 37
3 34 35 38
3 34 38 39
3 39 38 40
3 39 40 41
3 40 42 41
3 40 43 42
3 38 35 44
3 38 44 45
3 40 38 45
3 35 46 44
3 35 32 46
3 32 47 46
3 32 36 47
3 36 48 47
3 36 49 48
3 43 40 50
3 40 45 50
3 43 50 51
3 52 43 51
3 52 51 53
3 45 44 54
3 45 54 55
3 50 45 55
3 44 56 54
3 44 46 56
3 46 57 56
3 46 47 57
3 47 58 57
3 47 48 58
3 48 59 58
3 48 53 59
3 53 60 59
3 53 51 60
3 51 61 60
3 51 50 61
3 50 55 61
3 56 57 62
3 56 62 63
3 57 64 62
3 57 58 64
3 58 65 64
3 58 59 65
3 59 66 65
3 59 60 66
3 60 67 66
3 60 61 67
3 37 49 36
3 37 68 49
3 49 68 69
3 49 69 52
3 52 69 42
3 52 42 43
3 49 52 53
3 49 53 48
3 70 72 71
3 70 73 72
3 71 72 74
3 71 74 75
3 75 74 76
3 75 76 77
3 78 80 79
3 78 81 80
3 81 82 80
3 81 83 82
3 83 84 82
3 83 85 84
3 86 78 79
3 86 79 87
3 88 86 87
3 88 87 89
3 85 90 84
3 85 91 90
3 91 92 90
3 91 93 92
3 93 89 92
3 93 88 89
3 55 95 94
3 55 54 95
3 54 63 95
3 54 56 63
3 61 55 94
3 61 94 67
3 96 98 97
3 96 99 98
3 97 100 96
3 97 98 101
3 97 101 102
3 102 101 103
3 102 103 104
3 97 105 100
3 97 106 105
3 107 105 106
3 107 106 108
3 102 107 108
3 104 103 109
3 109 102 104
3 109 107 102
3 109 103 99
3 109 99 100
3 100 99 96
3 110 112 111
3 110 113 112
3 114 116 115
3 114 117 116
3 118 120 119
3 118 121 120
3 121 118 122
3 121 123 120
3 121 124 123
3 124 125 123
3 124 126 125
3 121 122 127
3 121 127 128
3 129 128 127
3 129 130 128
3 124 130 129
3 126 131 125
3 131 126 124
3 131 124 129
3 131 119 125
3 131 122 119
3 122 118 119
3 132 134 133
3 132 135 134
3 136 138 137
3 136 139 138
3 140 142 141
3 141 142 143
3 141 143 144
3 142 145 143
3 142 146 145
3 147 141 144
3 147 148 141
3 140 141 149
3 140 149 150
3 151 140 150
3 151 150 152
3 153 142 140
3 140 154 153
3 140 151 154
3 153 155 142
3 156 155 153
3 156 153 157
3 157 158 156
3 157 159 158
3 157 160 159
3 157 161 160
3 159 160 162
3 159 162 163
3 163 162 164
3 163 164 165
3 166 163 165
3 166 165 167
3 158 159 168
3 158 168 169
3 159 170 168
3 159 163 170
3 163 171 170
3 163 166 171
3 167 165 172
3 167 172 173
3 174 173 172
3 174 172 175
3 165 175 172
3 165 164 175
3 164 174 175
3 164 176 174
3 162 176 164
3 162 177 176
3 177 162 178
3 177 178 179
3 162 180 178
3 162 160 180
3 160 181 180
3 160 182 181
3 161 182 160
3 161 183 182
3 180 181 184
3 180 184 185
3 178 180 185
3 185 184 186
3 185 186 187
3 179 187 186
3 179 178 187
3 178 185 187
3 154 183 161
3 153 154 161
3 153 161 157
3 154 188 183
3 151 188 154
3 151 146 188
3 148 146 151
3 147 146 148
3 147 145 146
3 152 148 151
3 152 189 148
3 190 189 152
3 190 152 191
3 191 192 190
3 191 193 192
3 191 194 193
3 191 195 194
3 193 194 196
3 193 196 197
3 197 196 198
3 197 198 199
3 200 197 199
3 200 199 201
3 192 193 202
3 192 202 203
3 193 204 202
3 193 197 204
3 197 205 204
3 197 200 205
3 201 199 206
3 201 206 207
3 208 207 206
3 208 206 209
3 199 209 206
3 199 198 209
3 198 208 209
3 198 210 208
3 196 210 198
3 196 211 210
3 211 196 212
3 211 212 213
3 196 214 212
3 196 194 214
3 194 215 214
3 194 216 215
3 195 216 194
3 195 217 216
3 214 215 218
3 214 218 219
3 212 214 219
3 219 218 220
3 219 220 221
3 213 221 220
3 213 212 221
3 212 219 221
3 150 217 195
3 152 150 195
3 152 195 191
3 150 149 217
3 222 224 223
3 222 225 224
3 223 224 226
3 223 226 227
3 227 226 228
3 227 228 229
3 229 228 230
3 229 230 231
3 230 228 232
3 230 232 233
3 229 231 234
3 229 234 235
3 233 232 236
3 233 236 237
3 235 234 238
3 235 238 239
3 231 230 240
3 231 240 241
3 241 240 242
3 241 242 243
3 244 246 245
3 244 247 246
3 245 246 248
3 245 248 249
3 249 251 250
3 249 248 251
3 250 251 252
3 250 252 253
3 252 251 254
3 252 254 255
3 250 253 256
3 250 256 257
3 255 254 258
3 255 258 259
3 257 256 260
3 257 260 261
3 253 252 262
3 253 262 263
3 263 262 264
3 263 264 265
3 266 268 267
3 266 269 268
3 203 269 266
3 203 202 269
3 202 268 269
3 202 204 268
3 204 267 268
3 204 205 267
3 270 272 271
3 270 273 272
3 169 273 270
3 169 168 273
3 168 272 273
3 168 170 272
3 170 271 272
3 170 171 271
3 274 276 275
3 274 277 276
3 277 274 278
3 278 274 279
3 274 275 279
3 278 279 280
3 277 278 281
3 276 282 275
3 276 283 282
3 275 284 279
3 275 282 284
3 283 285 282
3 282 285 284
3 283 286 285
3 286 287 285
3 287 284 285
3 286 288 287
3 287 289 284
3 289 290 280
3 278 280 290
3 289 291 290
3 287 291 289
3 292 294 293
3 295 293 294
3 295 296 293
3 297 296 295
3 297 295 298
3 297 298 299
3 300 299 298
3 301 300 298
3 301 298 302
3 292 302 294
3 292 303 302
3 303 301 302
3 281 290 304
3 281 278 290
3 290 305 304
3 290 291 305
3 291 288 305
3 291 287 288
3 306 308 307
3 306 309 308
3 310 312 311
3 310 313 312
3 314 316 315
3 314 317 316
3 315 318 314
3 318 319 314
3 314 319 317
3 318 320 319
3 315 321 318
3 316 317 322
3 316 322 323
3 317 324 322
3 317 319 324
3 323 322 325
3 322 324 325
3 323 325 326
3 326 325 327
3 327 325 324
3 326 327 328
3 327 324 329
3 329 320 330
3 318 330 320
3 329 330 331
3 327 329 331
3 332 334 333
3 335 333 334
3 335 334 336
3 337 335 336
3 337 338 335
3 337 339 338
3 340 338 339
3 341 338 340
3 341 342 338
3 332 333 342
3 332 342 343
3 343 342 341
3 321 330 318
3 321 344 330
3 330 344 345
3 330 345 331
3 331 345 328
3 331 328 327
3 346 348 347
3 346 349 348
3 350 352 351
3 350 353 352
