mtllib Wartortle.mtl
v -0.184125 0.425388 -0.00979173
vt 0.49655 0.502473
vn -0.9993345 -0.01967709 -0.03071409
v -0.134442 0.343089 -0.16573
vt 0.497481 0.50095
vn -0.5963618 -0.6223178 -0.5070238
v -0.16057 0.343089 -0.00979173
vt 0.496555 0.50095
vn -0.8723782 -0.4873481 -0.03805491
v -0.144093 0.434069 -0.17639
vt 0.4973 0.502636
vn -0.7278034 0.05221193 -0.6837954
v -0.143609 0.336172 0.125248
vt 0.497309 0.500698
vn -0.585507 -0.72984 0.352867
v -0.125481 0.532423 -0.16276
vt 0.497649 0.504479
vn -0.6242604 0.5104414 -0.5913954
v -0.152088 0.410025 0.143213
vt 0.49715 0.502185
vn -0.8593832 -0.02071941 0.5109122
v -0.170961 0.532423 -0.00979173
vt 0.496797 0.504479
vn -0.9444867 0.3249539 -0.04847559
v -0.141215 0.532423 0.136558
vt 0.497354 0.504479
vn -0.6820428 0.4559458 0.5717788
v -0.115301 0.307567 -0.00979173
vt 0.49784 0.499656
vn -0.2821801 -0.9593033 -0.0105666
v 0 0.353594 -0.217279
vt 0.5 0.501333
vn 0 -0.298118 -0.954529
v 0 0.30972 -0.143934
vt 0.5 0.499735
vn 0 -0.9592959 -0.282403
v -0.115301 0.617626 -0.00979173
vt 0.49784 0.506075
vn -0.5355702 0.8441442 -0.02418771
v 0 0.507654 -0.208738
vt 0.5 0.504014
vn 0 0.2864928 -0.9580824
v 0 0.601704 -0.135253
vt 0.5 0.505777
vn 0 0.8437555 -0.5367277
v 0 0.29371 -0.00979173
vt 0.5 0.499151
vn 0 -0.9999262 0.0121474
v 0.134442 0.343089 -0.16573
vt 0.502519 0.50095
vn 0.5963618 -0.6223178 -0.5070238
v 0.115301 0.307567 -0.00979173
vt 0.50216 0.499656
vn 0.2821801 -0.9593033 -0.0105666
v 0 0.313146 0.136687
vt 0.5 0.499859
vn 0 -0.977241 0.212132
v 0 0.333855 0.198866
vt 0.5 0.500614
vn 0 -0.7102911 0.7039081
v 0.125481 0.532423 -0.16276
vt 0.502351 0.504479
vn 0.6242604 0.5104414 -0.5913954
v 0 0.636379 -0.00979173
vt 0.5 0.506426
vn 0 0.9961004 -0.08822713
v 0.115301 0.617626 -0.00979173
vt 0.50216 0.506075
vn 0.5355702 0.8441442 -0.02418791
v 0 0.623406 0.10551
vt 0.5 0.506183
vn 0 0.8750851 0.4839691
v 0 0.532423 0.195052
vt 0.5 0.504479
vn 0 0.4318651 0.9019383
v 0.144093 0.434069 -0.17639
vt 0.5027 0.502636
vn 0.7278034 0.05221213 -0.6837954
v 0.143609 0.336172 0.125248
vt 0.502691 0.500698
vn 0.585507 -0.72984 0.352867
v 0.141215 0.532423 0.136559
vt 0.502646 0.504479
vn 0.6820428 0.4559458 0.5717788
v 0.184125 0.425388 -0.00979173
vt 0.50345 0.502473
vn 0.9993345 -0.01967709 -0.03071419
v 0.16057 0.343089 -0.00979173
vt 0.503445 0.50095
vn 0.8723782 -0.4873481 -0.03805501
v 0.170961 0.532423 -0.00979173
vt 0.503203 0.504479
vn 0.944487 0.324953 -0.0484757
v 0.152088 0.410025 0.143213
vt 0.502849 0.502185
vn 0.8593832 -0.02071951 0.5109122
v 0 0.382587 0.22143
vt 1.00023 0.427411
vn 0 -0.2182701 0.9758884
vt 0.309836 -0.495133
vt 1.00023 -0.575188
v -0.076044 0.410025 0.176984
vt 0.653232 0.91483
vn -0.4357309 0.0193136 0.8998697
v 0 0.410025 0.210755
vt 1.00023 0.91483
vn 0 0.178152 0.984003
v 0.076044 0.410025 0.176984
vn 0.4357309 0.0193135 0.8998697
v -0.226619 0.217161 0.171025
vt 0.0313645 0.9375
vn -0.8615135 -0.06958923 0.5029433
v -0.0646394 0.293806 0.103564
vt 0.0313645 0.4375
vn -0.09609545 0.7725756 0.6276087
v -0.129279 0.293806 -0.00249147
vn -0.6184929 0.7685678 -0.163616
v -0.0922943 0.199637 0.151153
vn -0.279705 -0.02054171 0.9598662
v -0.184588 0.166338 0.00666733
vn -0.9790441 -0.08705751 0.184102
v 0.226619 0.217161 0.171025
vn 0.8615135 -0.06958884 0.5029433
v 0.129279 0.293806 -0.00249145
vn 0.618493 0.7685679 -0.163615
v 0.0646394 0.293806 0.103564
vn 0.09609552 0.7725761 0.6276081
v 0.184588 0.166338 0.00666737
vn 0.979044 -0.0870576 0.184103
v 0.0922942 0.199637 0.151153
vn 0.279705 -0.02054171 0.9598662
v -0.077546 7.360145E-05 -0.00249145
vt 0.120144 0.330377
vn -0.2326399 -0.9724928 0.0116824
v -0.08764951 0.0464245 -0.139102
vn -0.2506489 -0.7987807 -0.5469228
v 0 0.0229613 0.006667361
vn 0 -0.9999263 0.0121474
v -0.16996 0.0684047 -0.0286701
vn -0.8993272 -0.3737651 0.226959
v -0.08764951 0.0464245 0.151046
vn -0.423618 -0.329647 0.8437301
v 0.077546 7.360145E-05 -0.00249145
vn 0.2326399 -0.9724928 0.0116825
v 0.08764951 0.0464245 0.151046
vn 0.423618 -0.329647 0.8437301
v 0.0876496 0.0464245 -0.139102
vn 0.2506489 -0.7987807 -0.5469228
v 0.16996 0.0684047 -0.0286701
vn 0.8993272 -0.3737651 0.226959
v -0.161736 0.157795 -0.0238788
vt 0.0264791 0.936788
vn -0.8222372 0.2385621 -0.5167341
v -0.156115 0.0946908 -0.053467
vn -0.845709 0.00623433 -0.533608
v -0.111881 0.291085 -0.0344868
vn -0.7529922 0.4486281 -0.4813891
v -0.0899719 0.076556 -0.147994
vn -0.290262 -0.233856 -0.9279329
v -0.0372937 0.303107 -0.0344868
vn -0.05972397 0.9842196 -0.1665679
v 0 0.310005 -0.00249145
vn 0 0.9989723 0.04532512
v 0.089972 0.076556 -0.147994
vn 0.290262 -0.233856 -0.9279329
v 0.0372937 0.303107 -0.0344868
vn 0.05972398 0.9842198 -0.166567
v 0.156115 0.0946908 -0.053467
vn 0.8457097 0.006234298 -0.5336068
v 0.111881 0.291085 -0.0344868
vn 0.7529922 0.4486281 -0.4813891
v 0.161736 0.157795 -0.0238788
vn 0.822238 0.238562 -0.516733
vt 0.540642 1.01028
vt 0.298301 -0.367919
vt 0.267889 1.01028
o merged_0_0_node
g polygon_0
usemtl kao_mat_id
f 1/1/1 2/2/2 3/3/3
f 1/1/1 4/4/4 2/2/2
f 1/1/1 3/3/3 5/5/5
f 1/1/1 6/6/6 4/4/4
f 1/1/1 5/5/5 7/7/7
f 1/1/1 8/8/8 6/6/6
f 1/1/1 7/7/7 9/9/9
f 1/1/1 9/9/9 8/8/8
f 2/2/2 10/10/10 3/3/3
f 2/2/2 4/4/4 11/11/11
f 2/2/2 12/12/12 10/10/10
f 2/2/2 11/11/11 12/12/12
f 3/3/3 10/10/10 5/5/5
f 6/6/6 8/8/8 13/13/13
f 6/6/6 14/14/14 4/4/4
f 6/6/6 13/13/13 15/15/15
f 6/6/6 15/15/15 14/14/14
f 4/4/4 14/14/14 11/11/11
f 8/8/8 9/9/9 13/13/13
f 12/12/12 16/16/16 10/10/10
f 12/12/12 11/11/11 17/17/17
f 12/12/12 18/18/18 16/16/16
f 12/12/12 17/17/17 18/18/18
f 5/5/5 10/10/10 19/19/19
f 5/5/5 19/19/19 20/20/20
f 16/16/16 18/18/18 19/19/19
f 16/16/16 19/19/19 10/10/10
f 15/15/15 21/21/21 14/14/14
f 15/15/15 13/13/13 22/22/22
f 15/15/15 23/23/23 21/21/21
f 15/15/15 22/22/22 23/23/23
f 9/9/9 24/24/24 13/13/13
f 9/9/9 25/25/25 24/24/24
f 22/22/22 24/24/24 23/23/23
f 22/22/22 13/13/13 24/24/24
f 11/11/11 26/26/26 17/17/17
f 11/11/11 14/14/14 26/26/26
f 14/14/14 21/21/21 26/26/26
f 20/20/20 19/19/19 27/27/27
f 19/19/19 18/18/18 27/27/27
f 25/25/25 28/28/28 24/24/24
f 24/24/24 28/28/28 23/23/23
f 17/17/17 26/26/26 29/29/29
f 17/17/17 30/30/30 18/18/18
f 17/17/17 29/29/29 30/30/30
f 30/30/30 27/27/27 18/18/18
f 30/30/30 29/29/29 27/27/27
f 26/26/26 21/21/21 29/29/29
f 28/28/28 31/31/31 23/23/23
f 28/28/28 32/32/32 29/29/29
f 28/28/28 29/29/29 31/31/31
f 31/31/31 29/29/29 21/21/21
f 31/31/31 21/21/21 23/23/23
f 29/29/29 32/32/32 27/27/27
f 33/33/33 5/34/5 20/35/20
f 33/33/33 34/36/34 5/34/5
f 33/33/33 20/35/20 27/34/27
f 33/33/33 35/37/35 34/36/34
f 33/33/33 27/34/27 36/36/36
f 33/33/33 36/36/36 35/37/35
f 37/38/37 38/39/38 39/39/39
f 37/38/37 40/39/40 38/39/38
f 37/38/37 39/39/39 41/39/41
f 37/38/37 41/39/41 40/39/40
f 42/38/42 43/39/43 44/39/44
f 42/38/42 45/39/45 43/39/43
f 42/38/42 44/39/44 46/39/46
f 42/38/42 46/39/46 45/39/45
f 47/40/47 48/40/48 49/40/49
f 47/40/47 50/40/50 48/40/48
f 47/40/47 49/40/49 51/40/51
f 47/40/47 51/40/51 50/40/50
f 49/40/49 52/40/52 53/40/53
f 49/40/49 54/40/54 52/40/52
f 53/40/53 52/40/52 55/40/55
f 55/40/55 52/40/52 54/40/54
f 56/41/56 57/41/57 50/41/50
f 56/41/56 50/41/50 41/41/41
f 56/41/56 41/41/41 39/41/39
f 56/41/56 39/41/39 58/41/58
f 57/41/57 48/41/48 50/41/50
f 57/41/57 59/41/59 48/41/48
f 39/41/39 60/41/60 58/41/58
f 39/41/39 61/41/61 60/41/60
f 59/41/59 62/41/62 48/41/48
f 61/41/61 63/41/63 60/41/60
f 61/41/61 43/41/43 63/41/63
f 62/41/62 54/41/54 48/41/48
f 62/41/62 64/41/64 54/41/54
f 43/41/43 65/41/65 63/41/63
f 43/41/43 66/41/66 65/41/65
f 43/41/43 45/41/45 66/41/66
f 64/41/64 55/41/55 54/41/54
f 64/41/64 66/41/66 55/41/55
f 55/41/55 66/41/66 45/41/45
f 36/42/36 27/43/27 32/44/32
f 7/44/7 5/43/5 34/42/34
vt 0.390582 0.833174
vt 0.476421 0.828711
vt 0.375326 0.844712
vt 0.471577 0.851474
vt 0.109093 0.517999
vt 1.88373 0.517999
vt 0.0620715 0.737818
vt 1.93075 0.737818
vt 0.745073 0.833174
vt 0.760329 0.844712
vt 0.659234 0.828711
vt 0.664078 0.851474
vt 0.996413 0.386976
vn 0 -0.999876 0.0157499
vt 1.55629 0.0625
vt 0.443713 0.0625
v 0.0922943 0.11963 -0.156886
vt 1.57065 0.110032
vn 0.33237 0.190335 -0.9237439
v -0.0922942 0.11963 -0.156886
vt 0.429354 0.110032
vn -0.3323691 0.190335 -0.9237442
vt 0.0347586 0.0825118
vt 2 0.152148
vt 1.96524 0.0825118
v 0.0646394 0.287028 -0.113333
vt 1.39966 0.294757
vn 0.3553099 0.4277228 -0.8311487
v -0.0646394 0.287028 -0.113333
vt 0.600341 0.294757
vn -0.3553099 0.4277228 -0.8311487
vt 0 0.152148
vt 0.30825 0.299234
vt 0.342036 0.899191
vt 1.65079 0.899191
vt 1.69175 0.299234
vt 1.23058 0.3125
vt 0.769416 0.3125
vt -0.312341 0.899191
vt 0.996413 1.20669
vt 2.30517 0.899191
o merged_1_0_node
g polygon_0
usemtl front1_mat_id
f 50/45/50 51/46/51 41/47/41
f 41/47/41 51/46/51 40/48/40
f 51/49/51 53/50/53 40/51/40
f 40/51/40 53/50/53 46/52/46
f 55/53/55 45/54/45 53/55/53
f 53/55/53 45/54/45 46/56/46
f 48/49/48 54/50/54 49/57/67
f 53/50/53 51/49/51 49/57/67
f 62/58/62 59/59/59 67/60/68
f 67/60/68 59/59/59 68/61/69
f 59/59/59 57/62/57 68/61/69
f 66/63/66 64/64/64 67/60/68
f 67/60/68 68/61/69 69/65/70
f 69/65/70 68/61/69 70/66/71
f 68/61/69 56/67/56 70/66/71
f 70/66/71 56/67/56 58/68/58
f 40/51/40 46/52/46 38/69/38
f 38/69/38 46/52/46 44/70/44
f 65/71/65 66/63/66 69/65/70
f 69/65/70 66/63/66 67/60/68
f 69/65/70 70/66/71 63/72/63
f 63/72/63 70/66/71 60/73/60
f 70/66/71 58/68/58 60/73/60
f 39/74/39 38/69/38 61/75/61
f 38/69/38 44/70/44 61/75/61
f 44/70/44 43/76/43 61/75/61
f 65/71/65 69/65/70 63/72/63
f 67/60/68 64/64/64 62/58/62
f 68/61/69 57/62/57 56/67/56
v 0.0428055 0.37731 -0.252431
vt -0.519436 0.915765
vn -0.106632 0.5029209 0.8577297
v -0.0360791 0.33134 -0.379871
vt 0.58241 0.518314
vn -0.991563 0.106191 -0.0743388
v -0.00357206 0.0596124 -0.173018
vt -1.20604 -1.83104
vn -0.248505 -0.799513 0.5468311
v 0.114138 0.298224 -0.348762
vt 0.313441 0.231995
vn 0.9833821 -0.177618 0.0375704
v 0.0352538 0.252255 -0.476203
vt 1.41529 -0.165455
vn -0.03969719 -0.6201809 -0.7834538
v 0.0565833 0.425421 -0.425392
vt 0.97598 1.33173
vn 0.250446 0.8446 -0.47321
v -0.023189 0.209571 -0.351645
vt 0.795299 1.39869
vn 0.08259401 0.9106372 0.4048681
v -0.0953256 0.131811 -0.379893
vt 0.673789 0.543445
vn -0.9852188 -0.03624709 0.167422
v 0.000978392 0.06327881 -0.177226
vt 3.01165 0.480055
vn 0.136526 -0.361539 0.922307
v 0.0336101 0.129078 -0.400051
vt 0.628548 0.433427
vn 0.9869437 -0.07804298 -0.140895
v -0.0385265 0.0513186 -0.428299
vt 0.507037 -0.421816
vn -0.06367771 -0.9586532 -0.2773611
v -0.0425305 0.1682 -0.469756
vt -0.272777 0.617176
vn -0.129996 0.4358041 -0.8906042
o merged_2_0_node
g polygon_0
usemtl sippo_mat_id
f 71/77/72 72/78/73 73/79/74
f 74/80/75 71/77/72 73/79/74
f 75/81/76 74/80/75 73/79/74
f 72/78/73 75/81/76 73/79/74
f 71/77/72 76/82/77 72/78/73
f 74/80/75 76/82/77 71/77/72
f 75/81/76 76/82/77 74/80/75
f 72/78/73 76/82/77 75/81/76
f 77/83/78 78/84/79 79/85/80
f 80/86/81 77/83/78 79/85/80
f 81/87/82 80/86/81 79/85/80
f 78/84/79 81/87/82 79/85/80
f 77/83/78 82/88/83 78/84/79
f 80/86/81 82/88/83 77/83/78
f 81/87/82 82/88/83 80/86/81
f 78/84/79 82/88/83 81/87/82
v -0.281746 0.476276 -0.0601533
vt 0.994015 -0.0508761
vn -0.908787 -0.297373 0.292704
v -0.255635 0.477047 -0.0794421
vn 0.5574092 -0.2541131 -0.7903933
v -0.210579 0.454143 0.0353014
vt -1.64882 0.105144
vn -0.6631889 -0.225208 0.7137659
v -0.184468 0.454913 0.0160125
vn 0.8848869 -0.179532 -0.4298179
v -0.21437 0.5575961 0.0343023
vt -0.801469 1.16717
vn -0.523367 0.225263 0.821793
v -0.188258 0.5583661 0.0150134
vn 0.9299026 0.2681419 -0.2517559
v -0.313878 0.6852471 -0.122637
vt 0.988581 0.986282
vn 0.145069 0.9611647 0.2347709
vn -0.5578248 -0.3153259 -0.7677246
v 0.253177 0.472123 -0.0797818
vn -0.5518749 -0.287738 -0.7827139
v 0.2795 0.472835 -0.0607799
vn 0.9261758 -0.2477589 0.2842779
v 0.184297 0.446903 0.01658
vn -0.8788922 -0.228094 -0.4189531
v 0.210619 0.447615 0.0355819
vn 0.6817009 -0.185882 0.707624
v 0.18267 0.550405 0.0149549
vn -0.945294 0.217722 -0.242933
v 0.208993 0.5511171 0.0339569
vn 0.519726 0.257349 0.8146511
v 0.300002 0.682804 -0.124795
vn -0.192508 0.9537341 0.230937
vn 0.5652131 -0.2905781 -0.7720742
o merged_3_0_node
g polygon_0
usemtl ear3_mat_id
f 83/89/84 84/89/85 85/90/86
f 85/90/86 84/89/85 86/90/87
f 85/90/86 86/90/87 87/91/88
f 87/91/88 86/90/87 88/91/89
f 87/91/88 88/91/89 89/92/90
f 89/92/90 83/89/84 87/91/88
f 87/91/88 83/89/84 85/90/86
f 84/89/85 83/89/84 89/92/91
f 86/90/87 84/89/85 88/91/89
f 88/91/89 84/89/85 89/92/90
f 90/89/92 91/89/93 92/90/94
f 92/90/94 91/89/93 93/90/95
f 92/90/94 93/90/95 94/91/96
f 94/91/96 93/90/95 95/91/97
f 94/91/96 95/91/97 96/92/98
f 96/92/98 90/89/92 94/91/96
f 94/91/96 90/89/92 92/90/94
f 91/89/93 90/89/92 96/92/99
f 93/90/95 91/89/93 95/91/97
f 95/91/97 91/89/93 96/92/98
vt 1.10998 0.953096
vt 0.694188 0.765825
vt 1.28515 0.762998
vt 0.151813 0.968967
vt 0.103228 0.768652
o merged_4_0_node
g polygon_0
usemtl TEX_ANIM_EYE_mat_id
f 25/93/25 34/94/34 35/95/35
f 28/96/28 36/94/36 32/97/32
f 9/96/9 34/94/34 25/93/25
f 25/93/25 35/95/35 36/94/36
f 25/93/25 36/94/36 28/96/28
f 7/97/7 34/94/34 9/96/9
