mtllib Gorebyss.mtl
v 0 0.0936799 0.320449
vt 0.0200779 0.965507
vn 0 -0.7451783 0.6668653
v -0.0836316 0.131089 0.285607
vn -0.7692068 -0.2948499 0.5669079
v -0.0827518 0.0639944 0.226647
vn -0.5875751 -0.6722651 0.4503501
v -0.0356115 0.1453 0.342112
vn -0.644832 -0.5761849 0.5021979
v 0 0.00670041 0.206601
vn 0 -0.9377626 0.3472769
v 0 0.133098 0.370772
vn 0 -0.9579648 0.2868859
v 0.0827518 0.0639944 0.226647
vn 0.5875751 -0.6722651 0.4503501
v 0.0356115 0.1453 0.342112
vn 0.644832 -0.5761849 0.5021979
v 0.0836316 0.131089 0.285607
vn 0.7692068 -0.2948499 0.5669079
v -0.122769 0.11809 0.206902
vn -0.8930668 -0.296034 0.3388149
v -0.0586625 0.177187 0.329974
vn -0.8613918 -0.104421 0.4970919
v -0.0890664 0.278684 0.286065
vn -0.8143737 0.2319219 0.5319848
v 0.0846023 0.0242243 0.124572
vn 0.5894791 -0.8068421 -0.03898801
v -0.0846023 0.0242243 0.124572
vn -0.5894791 -0.8068421 -0.03898801
v 0.0265721 0.152317 0.393065
vn 0.8133493 -0.5566592 0.1690961
v -0.0265721 0.152317 0.393065
vn -0.8133493 -0.5566592 0.1690961
v 0.122769 0.11809 0.206902
vn 0.8930668 -0.296034 0.3388149
v 0.0586625 0.177187 0.329974
vn 0.8613918 -0.104421 0.4970919
v 0.0890664 0.278684 0.286065
vn 0.8143737 0.2319219 0.5319848
v -0.0529774 0.225851 0.345818
vn -0.857964 0.0900485 0.505756
v -0.0271508 0.258462 0.367765
vn -0.4316421 0.7214692 0.5414492
v -0.0581075 0.349395 0.259991
vn -0.4576651 0.734436 0.5011451
v -0.11469 0.323117 0.212266
vn -0.8274838 0.4335749 0.3567679
v -0.150082 0.126586 0.124572
vn -0.96558 -0.259218 -0.0214754
v -0.0355009 0.197242 0.394673
vn -0.9731162 0.06023642 0.2222981
v 0.0529774 0.225851 0.345818
vn 0.8579644 0.09004854 0.5057552
v 0.0271508 0.258462 0.367765
vn 0.4316421 0.7214692 0.5414492
v 0.0581075 0.349395 0.259991
vn 0.4576651 0.734436 0.5011451
v 0.11469 0.323117 0.212267
vn 0.8274835 0.4335747 0.3567688
v 0.0355009 0.197242 0.394673
vn 0.9731162 0.06023642 0.2222981
v 0.150082 0.126586 0.124572
vn 0.96558 -0.259218 -0.0214754
v 0.0927556 0.0828495 -0.00815263
vn 0.7077232 -0.6205011 -0.3377961
v 0 0.00670041 0.0425439
vn 0 -0.9467707 -0.3219089
v -0.0846023 0.387899 0.124572
vn -0.5301699 0.8474138 -0.02845539
v 0 0.32757 0.307671
vn 0 0.7487737 0.6628257
v 0 0.39732 0.206601
vn 0 0.95934 0.282253
v -0.0927556 0.0828495 -0.00815263
vn -0.7077232 -0.6205011 -0.3377961
v -0.136889 0.206061 0.00351398
vn -0.9722748 -0.004075489 -0.2338059
v -0.150082 0.303812 0.124572
vn -0.9589849 0.28205 -0.0282091
v 0.0846023 0.387899 0.124572
vn 0.5301699 0.8474138 -0.02845539
v 0.150082 0.303812 0.124572
vn 0.9589849 0.28205 -0.028209
v 0.136889 0.206061 0.00351398
vn 0.9722748 -0.004075479 -0.2338059
v -0.0927556 0.329273 -0.00815263
vn -0.6986709 0.6208059 -0.3556109
v 0.0927556 0.329273 -0.00815263
vn 0.6986709 0.6208059 -0.3556109
v 0 0.0999617 -0.130891
vt 0.0378552 0.25
vn 0 -0.9580689 -0.286538
v -0.091435 0.152752 -0.130891
vn -0.8565735 -0.4589723 -0.2358521
v -0.055898 0.153052 -0.3589
vn -0.8452628 -0.5213108 -0.117328
v 0 0.120779 -0.3589
vn 0 -0.9939013 -0.110274
vt 0.0397976 0.965648
v 0.055898 0.153052 -0.3589
vn 0.8452628 -0.5213108 -0.117328
v 0.091435 0.152752 -0.130891
vn 0.8565733 -0.4589722 -0.2358531
v -0.055898 0.217598 -0.3589
vn -0.8693374 0.4692947 -0.1549679
v -0.091435 0.258332 -0.130891
vn -0.8428839 0.457027 -0.28403
v 0.055898 0.217598 -0.3589
vn 0.8693377 0.4692938 -0.1549679
v 0 0.24987 -0.3589
vn 0 0.9838966 -0.1787389
v 0.091435 0.258332 -0.130891
vn 0.8428839 0.457027 -0.28403
v 0 0.311122 -0.130891
vn 0 0.9286109 -0.371055
v 0 0.405423 0.0425439
vn 0 0.9497913 -0.3128841
v 0 0.162601 0.601009
vn 0 0.3930789 0.9195048
v 0 0.226055 -0.577395
vt 0.469808 0.909426
vn 0 0.9939013 -0.110274
v 0 0.203823 -0.770436
vt 1.60635 0.894812
vn 0 0.9917759 -0.127987
v -0.0160194 0.194574 -0.770436
vt 1.60635 0.888732
vn -0.8589029 0.495888 -0.127988
v 0.0352736 0.20569 -0.577395
vt 0.469808 0.896039
vn 0.8607441 0.49695 -0.110274
v -0.0352736 0.20569 -0.577395
vn -0.8607436 0.4969508 -0.110274
vt -0.746204 0.903866
vt -0.746204 0.92508
v 0.0160194 0.194574 -0.770436
vn 0.8589029 0.495888 -0.127988
v -0.0160194 0.176076 -0.770436
vt 1.60635 0.876573
vn -0.8589029 -0.495888 -0.127988
vt -0.746204 0.861438
v 0.0352736 0.16496 -0.577395
vt 0.469808 0.869266
vn 0.8607436 -0.4969508 -0.110274
v 0.0160194 0.176076 -0.770436
vn 0.8589029 -0.495888 -0.127988
v -0.0352736 0.16496 -0.577395
vn -0.8607441 -0.49695 -0.110274
v 0 0.166827 -0.770436
vt 1.60635 0.870493
vn 0 -0.9917758 -0.127988
v 0 0.144595 -0.577395
vt 0.469808 0.855879
vt -0.746204 0.840224
v 0 0.185325 -0.838598
vn 0 0 -1
v -0.112924 0.148365 -0.205785
vt 0.87916 0.285608
vn -0.8981681 -0.4370701 0.04757851
v -0.101026 0.166342 -0.165137
vt 0.875003 0.454627
vn -0.7767652 -0.4595692 0.4306181
v -0.114917 0.18799 -0.218639
vt 0.993439 0.241714
vn -0.9665903 -0.121778 -0.2255511
v -0.0591873 0.124545 -0.159977
vt 0.632686 0.45563
vn -0.5198088 -0.7126847 0.4710408
v -0.0869694 0.167841 -0.266982
vt 0.869557 0.0298032
vn -0.775828 -0.226002 -0.589079
v -0.0704853 0.105968 -0.200551
vt 0.633366 0.286625
vn -0.4338847 -0.8942034 0.1102019
v -0.0845756 0.127927 -0.254822
vt 0.753501 0.0706562
vn -0.571955 -0.6399809 -0.5131199
v -0.0312395 0.104396 -0.20832
vt 0.508804 0.24372
vn -0.06344822 -0.9907453 -0.119992
v -0.0451305 0.126044 -0.261822
vt 0.62724 0.030806
vn -0.134555 -0.835003 -0.53354
v 0.11292 0.148365 -0.205785
vt 0.866504 0.28493
vn 0.8981681 -0.4370701 0.04757851
v 0.114913 0.18799 -0.218639
vt 0.994158 0.242578
vn 0.9665903 -0.121778 -0.2255511
v 0.101022 0.166342 -0.165137
vt 0.872022 0.454834
vn 0.7767652 -0.4595692 0.4306181
v 0.0869647 0.167841 -0.266982
vt 0.873096 0.0304468
vn 0.775828 -0.226002 -0.589079
v 0.0591827 0.124545 -0.159977
vt 0.628825 0.454959
vn 0.5198088 -0.7126847 0.4710408
v 0.084571 0.127927 -0.254822
vt 0.743706 0.0697555
vn 0.571955 -0.6399809 -0.5131199
v 0.0704806 0.105968 -0.200551
vt 0.619817 0.285057
vn 0.4338851 -0.8942032 0.110202
v 0.0451259 0.126044 -0.261822
vt 0.629899 0.0305721
vn 0.134556 -0.8350029 -0.53354
v 0.0312349 0.104396 -0.20832
vt 0.507763 0.242828
vn 0.06344832 -0.9907453 -0.119992
v 0 0.44925 0.00241415
vt 0.528403 0.722395
vn 0 -0.9899904 -0.1411351
v 0 0.499817 -0.120671
vt 0.528403 0.328833
vn 0 -0.6030788 -0.7976817
v 0.0149892 0.491601 -0.0414921
vt 0.528403 0.592128
vn 0.9994226 0.02419019 0.02386239
v -0.0149892 0.491601 -0.0414921
vn -0.9994226 0.02419019 0.02386249
v 0.0074946 0.458001 0.112893
vt 0.528403 1.09819
vn 0.9941768 0.04409149 0.09832828
v -0.0074946 0.458001 0.112893
vn -0.9941768 0.04409139 0.09832828
v 0 0.422002 0.204776
vt 0.528403 1.39271
vn 0 -0.9992973 -0.03748181
v 0 0.627256 -0.204134
vt 0.528403 0.100744
vn 0 0.2344031 -0.9721395
v 0 0.509113 -0.0130331
vt 0.528403 0.695283
vn 0 0.916561 0.399895
v 0.0128458 -0.0554123 0.0879178
vt 0.0310783 0.911906
vn 0.9929135 0.07203024 -0.09452254
v 0 -0.161834 0.0442674
vn 0 -0.4679069 -0.8837777
v 0 -0.0372292 0.07221
vn 0 0.7065371 -0.7076761
v 0 -0.065031 0.100499
vn 0 -0.6758094 0.7370764
v 0 -0.000302032 0.190063
vn 0 0.9640015 0.2658969
v -0.0128458 -0.0554123 0.0879178
vn -0.9929135 0.07203016 -0.09452245
v 0 0.0870557 -0.869561
vt 0.532904 0.457837
vn 1 0 0
v 0 0.23031 -0.770383
v 0 0.144629 -0.770383
v 0 0.287883 -0.869561
v 0 0.23243 -0.961923
v 0 0.142509 -0.961923
vn -1 0 0
vn 0.6961251 0.7099732 0.106526
vn -0.6961251 0.7099732 0.106526
v -0.0741506 0.142691 -0.233153
vt 0.542025 0.458005
vn -0.7090772 -0.6953142 0.11725
v -0.0753791 0.134678 -0.288099
v -0.0431988 0.120183 -0.285408
vn -0.416357 -0.89831 0.140307
v -0.0898831 0.166821 -0.291166
vn -0.9114439 -0.403719 0.0792522
v 0.0753744 0.134678 -0.288099
vn 0.7090772 -0.6953142 0.11725
v 0.0741459 0.142691 -0.233153
v 0.0431942 0.120183 -0.285408
vn 0.4163578 -0.8983096 0.1403069
v 0.0898785 0.166821 -0.291166
vn 0.9114439 -0.403719 0.0792522
vn 0.05078342 -0.07213163 -0.9961014
vn -0.05078342 -0.07213153 -0.9961014
o merged_0_0_node
g polygon_0
usemtl mat_body_mat_id
f 1/1/1 2/1/2 3/1/3
f 1/1/1 4/1/4 2/1/2
f 1/1/1 3/1/3 5/1/5
f 1/1/1 6/1/6 4/1/4
f 1/1/1 5/1/5 7/1/7
f 1/1/1 8/1/8 6/1/6
f 1/1/1 7/1/7 9/1/9
f 1/1/1 9/1/9 8/1/8
f 2/1/2 10/1/10 3/1/3
f 2/1/2 4/1/4 11/1/11
f 2/1/2 11/1/11 12/1/12
f 5/1/5 13/1/13 7/1/7
f 5/1/5 3/1/3 14/1/14
f 3/1/3 10/1/10 14/1/14
f 6/1/6 8/1/8 15/1/15
f 6/1/6 16/1/16 4/1/4
f 4/1/4 16/1/16 11/1/11
f 9/1/9 7/1/7 17/1/17
f 9/1/9 18/1/18 8/1/8
f 9/1/9 19/1/19 18/1/18
f 8/1/8 18/1/18 15/1/15
f 7/1/7 13/1/13 17/1/17
f 12/1/12 11/1/11 20/1/20
f 12/1/12 20/1/20 21/1/21
f 12/1/12 21/1/21 22/1/22
f 12/1/12 22/1/22 23/1/23
f 10/1/10 24/1/24 14/1/14
f 16/1/16 25/1/25 11/1/11
f 25/1/25 20/1/20 11/1/11
f 25/1/25 21/1/21 20/1/20
f 19/1/19 26/1/26 18/1/18
f 19/1/19 27/1/27 26/1/26
f 19/1/19 28/1/28 27/1/27
f 19/1/19 29/1/29 28/1/28
f 15/1/15 18/1/18 30/1/30
f 30/1/30 26/1/26 27/1/27
f 30/1/30 18/1/18 26/1/26
f 13/1/13 31/1/31 17/1/17
f 13/1/13 32/1/32 31/1/31
f 13/1/13 33/1/33 32/1/32
f 22/1/22 34/1/34 23/1/23
f 22/1/22 21/1/21 35/1/35
f 22/1/22 36/1/36 34/1/34
f 22/1/22 35/1/35 36/1/36
f 35/1/35 27/1/27 28/1/28
f 35/1/35 21/1/21 27/1/27
f 35/1/35 28/1/28 36/1/36
f 24/1/24 37/1/37 14/1/14
f 24/1/24 38/1/38 37/1/37
f 24/1/24 39/1/39 38/1/38
f 37/1/37 33/1/33 14/1/14
f 23/1/23 34/1/34 39/1/39
f 29/1/29 40/1/40 28/1/28
f 29/1/29 41/1/41 40/1/40
f 28/1/28 40/1/40 36/1/36
f 31/1/31 32/1/32 42/1/42
f 31/1/31 42/1/42 41/1/41
f 38/1/38 39/1/39 43/1/43
f 43/1/43 39/1/39 34/1/34
f 40/1/40 41/1/41 44/1/44
f 44/1/44 41/1/41 42/1/42
f 45/2/45 46/2/46 47/2/47
f 45/2/45 37/2/37 46/2/46
f 45/2/45 47/2/47 48/2/48
f 45/2/45 33/3/33 37/2/37
f 45/2/45 48/2/48 49/2/49
f 45/2/45 32/3/32 33/3/33
f 45/2/45 49/2/49 50/2/50
f 45/2/45 50/2/50 32/2/32
f 46/2/46 51/2/51 47/2/47
f 46/2/46 37/2/37 38/2/38
f 46/2/46 52/2/52 51/2/51
f 46/2/46 38/2/38 52/2/52
f 33/3/33 13/3/13 5/3/5
f 33/3/33 5/3/5 14/3/14
f 49/2/49 53/2/53 50/2/50
f 32/2/32 50/2/50 42/2/42
f 51/2/51 52/2/52 54/2/54
f 38/2/38 43/2/43 52/2/52
f 53/2/53 55/2/55 50/2/50
f 53/2/53 54/2/54 55/2/55
f 50/2/50 55/2/55 42/2/42
f 43/2/43 56/2/56 52/2/52
f 54/2/54 56/2/56 55/2/55
f 54/2/54 52/2/52 56/2/56
f 42/2/42 55/2/55 44/2/44
f 55/2/55 56/2/56 44/2/44
f 56/2/56 57/3/57 44/2/44
f 56/2/56 43/3/43 57/3/57
f 43/3/43 34/3/34 57/3/57
f 34/3/34 36/3/36 57/3/57
f 36/3/36 40/3/40 57/3/57
f 40/3/40 44/3/44 57/3/57
f 58/3/58 6/3/6 15/3/15
f 58/3/58 16/3/16 6/3/6
f 58/3/58 15/3/15 30/3/30
f 58/3/58 25/3/25 16/3/16
f 58/3/58 30/3/30 27/3/27
f 58/3/58 21/3/21 25/3/25
f 58/3/58 27/3/27 21/3/21
f 59/4/59 60/5/60 61/6/61
f 59/4/59 62/7/62 60/5/60
f 59/4/59 61/6/61 63/7/63
f 59/4/59 53/8/53 62/7/62
f 59/4/59 63/7/63 54/9/54
f 59/4/59 54/9/54 53/8/53
f 60/5/60 62/7/62 64/6/64
f 61/6/61 65/10/65 63/7/63
f 54/9/54 63/7/63 51/8/51
f 53/8/53 49/11/49 62/7/62
f 64/6/64 62/7/62 66/12/66
f 64/6/64 66/12/66 67/10/67
f 62/7/62 49/11/49 66/12/66
f 65/10/65 68/12/68 63/7/63
f 65/10/65 69/13/69 68/12/68
f 63/7/63 68/12/68 51/8/51
f 67/10/67 66/12/66 70/14/48
f 67/10/67 70/14/48 69/13/69
f 69/13/69 70/14/48 68/12/68
f 49/11/49 48/15/48 66/12/66
f 66/12/66 48/15/48 70/14/48
f 51/8/51 68/12/68 47/11/47
f 47/11/47 70/14/48 48/15/48
f 47/11/47 68/12/68 70/14/48
f 71/2/70 61/2/61 60/2/60
f 71/2/70 65/2/65 61/2/61
f 71/2/70 60/2/60 64/2/64
f 71/2/70 69/2/69 65/2/65
f 71/2/70 64/2/64 67/2/67
f 71/2/70 67/2/67 69/2/69
f 72/16/71 73/17/72 74/18/73
f 72/16/71 75/19/74 73/17/72
f 72/16/71 74/18/73 76/20/75
f 72/16/71 77/21/76 75/19/74
f 72/16/71 76/20/75 78/22/77
f 72/16/71 78/22/77 77/21/76
f 75/19/74 77/21/76 79/23/78
f 76/20/75 80/24/79 78/22/77
f 80/24/79 79/23/78 77/21/76
f 80/24/79 77/21/76 78/22/77
f 81/25/80 82/26/81 83/27/82
f 81/25/80 84/28/83 82/26/81
f 81/25/80 83/27/82 85/29/84
f 81/25/80 86/30/85 84/28/83
f 81/25/80 85/29/84 87/31/86
f 81/25/80 87/31/86 86/30/85
f 84/28/83 86/30/85 88/32/87
f 86/30/85 87/31/86 88/32/87
f 85/29/84 89/33/88 87/31/86
f 87/31/86 89/33/88 88/32/87
f 90/34/89 91/35/90 92/36/91
f 90/34/89 93/36/92 91/35/90
f 90/34/89 92/36/91 94/37/93
f 90/34/89 95/37/94 93/36/92
f 90/34/89 94/37/93 96/38/95
f 90/34/89 96/38/95 95/37/94
f 96/38/95 94/37/93 95/37/94
f 91/35/90 97/39/96 92/36/91
f 91/35/90 93/36/92 97/39/96
f 94/37/93 98/40/97 95/37/94
f 94/37/93 92/36/91 98/40/97
f 98/40/97 97/39/96 93/36/92
f 98/40/97 93/36/92 95/37/94
f 98/40/97 92/36/91 97/39/96
f 99/41/98 100/41/99 101/41/100
f 99/41/98 102/41/101 100/41/99
f 99/41/98 101/41/100 103/41/102
f 99/41/98 103/41/102 102/41/101
f 100/41/99 104/41/103 101/41/100
f 100/41/99 102/41/101 104/41/103
f 104/41/103 103/41/102 101/41/100
f 104/41/103 102/41/101 103/41/102
f 105/42/104 106/42/104 107/42/104
f 105/42/104 108/42/104 106/42/104
f 105/42/104 109/42/104 108/42/104
f 105/42/104 110/42/104 109/42/104
f 105/42/105 109/42/105 110/42/105
f 105/42/105 108/42/105 109/42/105
f 105/42/105 106/42/105 108/42/105
f 105/42/105 107/42/105 106/42/105
f 73/17/106 75/19/106 79/23/106
f 73/17/106 79/23/106 80/24/106
f 73/17/106 80/24/106 76/20/106
f 73/17/106 76/20/106 74/18/106
f 89/33/107 85/29/107 83/27/107
f 89/33/107 83/27/107 82/26/107
f 89/33/107 82/26/107 84/28/107
f 89/33/107 84/28/107 88/32/107
f 111/43/108 112/43/108 113/43/109
f 111/43/108 114/43/110 112/43/108
f 115/43/111 116/43/111 117/43/112
f 115/43/111 118/43/113 116/43/111
f 113/43/106 114/43/106 111/43/106
f 112/43/114 114/43/114 113/43/114
f 117/43/107 116/43/107 118/43/107
f 115/43/115 117/43/115 118/43/115
vt 0.492095 0.74142
vt 0.0989957 0.75765
v -0.126726 0.214486 0.213729
vt 0.457993 0.861784
vn -0.9321248 0.003542989 0.3621199
vt 0.465299 0.997426
vt 0.0967056 0.941945
vt 0.903294 0.752028
v 0.126726 0.214486 0.213729
vn 0.9321248 0.003542919 0.3621199
vt 0.903294 0.97332
o merged_1_0_node
g polygon_0
usemtl TEX_ANIM_EYE_mat_id
f 10/44/10 2/45/2 119/46/116
f 23/47/23 119/46/116 12/48/12
f 119/46/116 2/45/2 12/48/12
f 31/49/31 120/46/117 17/44/17
f 17/44/17 120/46/117 9/45/9
f 39/50/39 119/46/116 23/47/23
f 41/50/41 120/46/117 31/49/31
f 41/50/41 29/47/29 120/46/117
f 29/47/29 19/48/19 120/46/117
f 24/49/24 10/44/10 119/46/116
f 24/49/24 119/46/116 39/50/39
f 120/46/117 19/48/19 9/45/9
