mtllib Manectric_Mega.mtl
v 0.238928 0.1891265 -0.144671
vt 0.349597 0.828117
vn 0.9786124 -0.1933886 0.07013383
v 0.2 0.3833511 -0.4092628
vt 0.433297 0.889557
vn 0.9626954 -0.1301923 -0.2372076
v 0.186309 0.3062209 -0.2919214
vt 0.396177 0.865158
vn 0.9621812 0.1344364 -0.2369268
v 0.186309 0.1915535 -0.2918484
vt 0.396154 0.828884
vn 0.9416241 -0.0007582473 -0.3366651
v 0.2 0.5504926 -0.3473196
vt 0.413702 0.94243
vn 0.9905837 0.03207219 -0.1330984
v 0.2 0.1870255 -0.3759617
vt 0.422763 0.827452
vn 0.9428464 -0.2944477 -0.1560164
v 0.186309 0.3777731 -0.2023162
vt 0.367832 0.887793
vn 0.9644828 0.2635337 -0.01796865
v 0.186309 0.1201163 -0.2021511
vt 0.36778 0.806286
vn 0.8258963 -0.5570232 -0.08729608
v 0.2 0.5545496 -0.2031931
vt 0.36811 0.943714
vn 0.9798601 0.1288194 0.1525765
v 0.186309 0.1457044 -0.09037492
vt 0.332421 0.814381
vn 0.7938192 -0.4488779 0.4103168
v 0.186309 0.3523281 -0.09050691
vt 0.332463 0.879743
vn 0.9518781 0.2464308 0.1822086
v 0.186309 0.2490477 -0.04068836
vt 0.316703 0.847072
vn 0.8783585 -0.05304263 0.4750502
v 0.2 0.4227512 -0.06088182
vt 0.323091 0.902021
vn 0.9552175 0.05488164 0.2907707
v -0.238928 0.1891265 -0.144671
vn -0.9786123 -0.1933886 0.07013393
v -0.186309 0.3062209 -0.2919214
vn -0.9621812 0.1344364 -0.2369268
v -0.2 0.3833511 -0.4092628
vn -0.9626953 -0.1301933 -0.2372075
v -0.2 0.5504926 -0.3473196
vn -0.9905837 0.03207238 -0.1330984
v -0.186309 0.1915535 -0.2918484
vn -0.9416238 -0.0007579491 -0.336666
v -0.186309 0.3777731 -0.2023162
vn -0.9644828 0.2635337 -0.01796865
v -0.2 0.1870255 -0.3759617
vn -0.9428464 -0.2944477 -0.1560164
v -0.2 0.5545496 -0.2031931
vn -0.97986 0.1288194 0.1525774
v -0.186309 0.1201163 -0.2021511
vn -0.8258963 -0.5570232 -0.08729608
v -0.186309 0.3523281 -0.09050691
vn -0.951878 0.2464307 0.1822095
v -0.186309 0.1457044 -0.09037492
vn -0.7938192 -0.4488779 0.4103168
v -0.2 0.4227512 -0.06088192
vn -0.9552171 0.05488177 0.2907719
v -0.186309 0.2490477 -0.04068836
vn -0.8783585 -0.05304253 0.4750502
v 0 0.550473 0.227958
vt 0.62824 0.872225
vn 0 -0.2785131 0.9604324
v 0.175585 0.623981 0.107201
vn 0.9188644 0.1483801 0.3656112
v 0.0991553 0.702684 0.139003
vt 0.625853 0.88223
vn 0.7013109 0.4734019 0.5329669
v 0.175262 0.385888 0.0586316
vt 0.63245 0.841958
vn 0.8266878 -0.3221069 0.4613399
v 0.0557774 0.813389 0.0937698
vt 0.637571 0.894429
vn 0.7737125 0.5256097 0.3536998
v 0 0.355228 0.0188425
vt 0.637508 0.83806
vn 0 -0.659137 0.7520229
v -0.0557774 0.813389 0.0937698
vn -0.7737125 0.5256097 0.3536998
v -0.175262 0.385888 0.0586316
vn -0.8266878 -0.3221069 0.4613399
v -0.0991553 0.702684 0.139003
vn -0.7013112 0.4734012 0.5329672
v -0.175585 0.623981 0.107201
vn -0.9188646 0.1483799 0.3656108
v 0.125851 0.6104429 -0.07475409
vt 0.653428 0.863363
vn 0.981316 0.163405 -0.101577
v -0.175793 0.29219 0.0738206
vt 0.630519 0.830047
vn 0.2442711 0.1538201 0.9574294
v 0.175793 0.29219 0.0738206
vn -0.2442711 0.1538201 0.9574294
v -0.125851 0.6104429 -0.07475409
vn -0.981316 0.163405 -0.101577
v 0 1.19022 -0.456713
vt 0.697848 0.931661
vn 0 0.8268632 0.5624031
vn -0.9751557 0.2210619 0.0142464
v 0.107214 0.412797 -0.138206
vt 0.657472 0.845379
vn 0.9865267 -0.07349068 -0.146165
vn 0.9751557 0.2210619 0.0142464
v 0.0556744 0.794764 -0.327212
vt 0.674406 0.884768
vn 0.975961 -0.0042491 -0.217904
v -0.0556744 0.794764 -0.327212
vn -0.975961 -0.00424911 -0.217904
v -0.107214 0.412797 -0.138206
vn -0.9865267 -0.07349068 -0.146165
vn -0.9419379 -0.04851579 -0.332264
vn 0.9419379 -0.04851579 -0.332264
v 0.130248 0.346109 -0.139581
vt 0.657647 0.836901
vn 0.9133258 -0.3690029 -0.172258
v 0.0532176 0.378002 -0.316339
vt 0.680117 0.840956
vn 0.9380203 -0.124556 -0.3234251
v 0 0.603046 -0.565832
vt 0.698324 0.862327
vn 0.9802126 -0.04461728 -0.1928539
v 0 1.0873 -0.757306
vt 0.731831 0.917131
vn 0.9823512 -0.06877711 -0.173942
v -0.130248 0.346109 -0.139581
vn -0.9133258 -0.3690029 -0.172258
v -0.0532176 0.378002 -0.316339
vn -0.9380203 -0.124556 -0.3234251
vn -0.9802126 -0.04461728 -0.1928539
vn -0.9823512 -0.06877711 -0.173942
vn 0.235779 -0.9496481 -0.206341
vn -0.1767051 -0.8790103 -0.4428501
v 0.0600777 0.34383 -0.228764
vt 0.668984 0.836612
vn 0.8242991 -0.5605941 0.07915391
v 0 0.170679 -0.299413
vt 0.677965 0.8146
vn 0.9401942 -0.3284321 -0.09037262
v 0 0.577767 -0.630819
vt 0.715752 0.86635
vn 0.9112715 -0.2599879 -0.3193598
vn -0.235779 -0.9496481 -0.206341
vn 0.1767051 -0.8790103 -0.4428501
v -0.0600777 0.34383 -0.228764
vn -0.8242991 -0.5605941 0.07915391
vn -0.9401942 -0.3284321 -0.09037262
vn -0.9112715 -0.2599879 -0.3193598
v -0.0898605 0.711046 0.240056
vt 0.608817 0.883293
vn -0.6900721 0.436788 0.5770761
vn -0.7526517 0.2186299 -0.6210608
vn -0.6864985 0.5296764 -0.4981593
v 0 1.15361 0.00275054
vt 0.647352 0.926661
vn -0.9304978 0.309547 0.195843
v -0.109526 1.01256 0.292506
vt 0.609032 0.917487
vn 0.9397187 0.001809129 0.3419439
v -0.0636061 0.614232 0.492601
vt 0.570927 0.871757
vn -0.9481207 0.2113719 0.2374639
v -0.163027 0.577691 0.318564
vt 0.599407 0.86634
vn -0.5215193 0.3021362 0.7979545
v 0 0.532313 0.507073
vt 0.575443 0.860572
vn 0 -0.7309726 0.6824067
v -0.0704138 0.541906 0.430758
vt 0.585146 0.861791
vn -0.6059489 0.5074319 0.612649
v -0.0662517 0.610443 -0.0747541
vt 0.645484 0.864804
vn -0.434552 0.130952 -0.8910758
vn 0.745962 0.225817 -0.626536
vn 0 -0.2584441 -0.9660262
v 0 0.50381 0.818874
vt 0.533036 0.860222
vn -0.9331735 0.2435379 0.2643419
v -0.191281 0.709865 0.239635
vt 0.610578 0.883143
vn -0.9235568 0.3834109 0.006238099
v -0.292961 0.591889 0.21683
vt 0.612339 0.868145
vn -0.9855131 0.169416 -0.007881001
vn -0.9116207 0.2960279 -0.2851579
v -0.174889 0.472305 0.306873
vt 0.600929 0.852953
vn -0.7967691 -0.265275 0.5429441
v 0 0.391385 0.621215
vt 0.559966 0.843694
vn 0 0.6293887 0.7770907
v -0.0129508 0.436246 0.552011
vt 0.569729 0.848361
vn -0.8381822 -0.5176712 0.1716601
vn 0 -0.8707551 -0.491717
v 0.0662517 0.610443 -0.0747541
vn 0.4301789 0.137965 -0.8921389
vn -0.7762871 0.3373861 -0.5324931
vn 0 -0.682264 -0.731106
vn -0.6537821 -0.3999491 -0.642347
v -0.228687 0.481836 0.190653
vt 0.615667 0.854155
vn -0.9621857 -0.2366319 -0.134922
v -0.115737 0.401856 0.348017
vt 0.59563 0.843978
vn -0.8257282 -0.4398161 0.3531781
v -0.105714 0.476339 0.403891
vt 0.588472 0.853443
vn -0.8407887 -0.04521788 0.5394718
v 0.0704138 0.541906 0.430758
vn 0.6059489 0.5074319 0.612649
v 0.0129508 0.436246 0.552011
vn 0.8381812 -0.5176731 0.171659
v 0 0.401586 0.558437
vt 0.567859 0.846726
vn 0 -0.5185528 0.8550456
vn 0.6864982 0.5296771 -0.4981591
v 0.0898605 0.711046 0.240056
vn 0.6900721 0.436788 0.5770761
vn 0.9304978 0.309547 0.195843
v -0.172432 0.3035356 0.2065632
vt 0.613644 0.831489
vn -0.6037396 -0.7675515 -0.2153207
vn 0.6537821 -0.3999491 -0.642347
v 0 0.1168386 0.4059473
vt 0.588299 0.807756
vn 0 -0.8514918 -0.5243678
v 0.172432 0.3035356 0.2065632
vn 0.6037396 -0.7675515 -0.2153207
v -0.0951488 0.362366 0.322713
vt 0.59888 0.838968
vn -0.707211 -0.4756339 0.5230919
v 0.0636061 0.614232 0.492601
vn 0.9481207 0.2113719 0.2374639
vn 0.9331735 0.2435379 0.2643419
vn 0.7762871 0.3373861 -0.5324931
v 0.109526 1.01256 0.292506
vn -0.9397187 0.001809079 0.3419439
v 0.191281 0.709865 0.239635
vn 0.9235568 0.3834109 0.006238429
vn 0.911621 0.296028 -0.285157
v 0.228687 0.481836 0.190653
vn 0.9621857 -0.2366319 -0.134922
v 0.0951488 0.362366 0.322713
vn 0.707211 -0.4756339 0.5230919
v 0 0.2631342 0.3465597
vt 0.595848 0.826353
vn 0 0.167401 0.9858888
vn 0 0.376133 0.9265657
v 0.163027 0.577691 0.318564
vn 0.5215193 0.3021362 0.7979545
v 0 0.334073 0.37925
vt 0.591692 0.835371
vn 0 -0.4185478 0.9081947
v 0.115737 0.401856 0.348017
vn 0.8257285 -0.4398163 0.3531772
v 0.292961 0.591889 0.21683
vn 0.9855131 0.169416 -0.007880981
v 0.174889 0.472305 0.306873
vn 0.7967691 -0.265275 0.5429441
v 0.105714 0.476339 0.403891
vn 0.8407887 -0.04521788 0.5394718
v 0.13369 0.1891265 -0.144671
vn -0.9952485 -0.0882111 0.04122294
vn -0.9129588 0.08025873 0.4000811
vn -0.973387 0.1854896 0.1345784
vn -0.9902883 0.1351765 -0.03250321
vn -0.8636065 -0.4666441 -0.1908595
vn -0.986344 0.07496862 -0.1466465
vn -0.9593781 -0.1074123 -0.2608758
vn -0.9726039 0.1009983 0.2093826
vn -0.9981613 0.04736606 -0.03782272
vn -0.9968535 0.0772895 0.01758895
vn -0.9713369 -0.1859415 -0.1480894
vn -0.9932567 -7.430465E-05 -0.1159363
v -0.13369 0.1891265 -0.144671
vn 0.9952485 -0.08821092 0.0412229
vn 0.973387 0.1854896 0.1345784
vn 0.9129584 0.0802586 0.400082
vn 0.9902883 0.1351765 -0.03250321
vn 0.986344 0.07496873 -0.1466465
vn 0.8636065 -0.4666441 -0.1908595
vn 0.9593781 -0.1074123 -0.2608758
vn 0.9726039 0.1009983 0.2093826
vn 0.9968535 0.0772897 0.01758895
vn 0.9932567 -7.395255E-05 -0.1159363
vn 0.9981613 0.04736616 -0.03782272
vn 0.9713367 -0.1859425 -0.1480894
v -0.180414 0.2616361 0.1972091
vt 0.0692725 0.855392
vn -0.8165863 0.1693532 0.551821
v -0.1301 0.343465 -0.150197
vt 0.17514 0.880328
vn -0.7058269 0.6581869 -0.261913
v -0.182312 0.261636 -0.1801323
vt 0.184262 0.855392
vn -0.8447541 0.2890024 -0.4504089
v -0.165013 0.343465 0.148643
vt 0.0840724 0.880328
vn -0.8301791 0.547026 0.107542
v -0.181389 0.1813951 -0.05390471
vt 0.145797 0.83094
vn -0.7982832 -0.536045 0.27459
v 0 0.376963 0.289403
vt 0.0411775 0.890536
vn -0.00133462 0.5284939 0.848936
v -0.181389 0.1680152 0.09128334
vt 0.101552 0.826863
vn -0.7248771 -0.575442 -0.3787079
v 0.0009491771 0.2687322 0.3136294
vt 0.0337953 0.857555
vn 0.003211907 0.218449 0.975843
v 0.00189836 0.1700785 0.3010851
vt 0.0376185 0.827492
vn 0.0003763792 -0.4702689 0.8825231
vn -0.003295438 -0.126191 0.9920005
v 0 0.261636 -0.2928037
vt 0.218597 0.855392
vn 0 0.2582179 -0.9660867
v 0 0.508891 0.0737409
vt 0.106898 0.93074
vn -2.415981E-05 0.9986694 -0.05156892
v 0 0.402082 -0.241699
vt 0.203024 0.898191
vn 0 0.8038232 -0.5948682
v 0 0.1430679 0.09224576
vt 0.101258 0.81926
vn 0.002065048 -0.9684777 -0.2490918
v 0 0.1670969 -0.05666564
vt 0.146638 0.826583
vn 0 -0.9783779 0.206825
v 0.184211 0.2616361 0.1972091
vn 0.8212678 0.1724342 0.5438616
v 0 0.1706739 -0.2994174
vt 0.220612 0.827674
vn 0 -0.5325344 -0.8464084
v 0 0.45375 0.199425
vt 0.0685973 0.913936
vn 2.4484E-05 0.8568962 0.5154891
v 0.1301 0.343465 -0.150197
vn 0.7044281 0.658933 -0.263796
v 0.181389 0.1813951 -0.05390461
vn 0.7958317 -0.5422392 0.2694971
v 0.165013 0.343465 0.148626
vn 0.8218108 0.5595838 0.107205
v 0.182312 0.261636 -0.1801323
vn 0.8438091 0.2882214 -0.4526749
v 0.181389 0.1680152 0.09128334
vn 0.7157193 -0.5840691 -0.3828959
vt 1 0.150203
v -0.0590822 0.434391 0.499358
vt 0.843692 0.215005
vn -0.8493193 -0.03542921 0.5266892
v -0.0410428 0.354871 0.489443
vt 0.878905 0.0162063
vn -0.5534551 -0.7303781 0.4002941
vt 0.983005 0.219635
v 0.0410428 0.354871 0.489443
vt 1.12109 0.0162063
vn 0.5534551 -0.7303781 0.4002941
v 0.0590822 0.434391 0.499358
vt 1.15631 0.215005
vn 0.8493193 -0.03542931 0.5266892
vt 1.017 0.219635
vt 0.718996 0.483794
vt 0.502571 0.133668
vt 0.463976 0.0349445
vt 1.49743 0.133668
vt 1.53602 0.0349445
vt 1.281 0.483794
v -0.080706 0.472463 0.443507
vt 0.710251 0.310186
vn -0.8281081 0.243233 0.5050491
v 0.080706 0.472463 0.443507
vt 1.28975 0.310186
vn 0.8281085 0.2432328 0.5050487
v -0.184594 -1.796931E-05 0.2178469
vt 0.0750845 0
vn -0.2758777 -0.8503622 0.44808
vt 0.134662 0.420042
vt 0.134209 0.357676
vt 0.0847989 0.654093
vt 0.0359019 0.425208
v 0.184594 -1.796931E-05 0.2178469
vn 0.2739317 -0.8521761 0.4458219
v -0.184594 -2.049644E-05 -0.2258513
vt 0.237966 0
vn -0.1999875 -0.8920692 -0.4052377
vt 0.181865 0.453494
vt 0.22305 0.654093
vt 0.182765 0.417748
vt 0.261969 0.426698
v 0.184594 -2.049644E-05 -0.2258513
vn 0.1999875 -0.8920692 -0.4052377
vt 0.0587487 0.879012
vn 0 -0.9968343 0.07950653
vt 1.63279 -0.544491
v 0.147326 0.05279279 0.2074083
vt 0.806223 0.878267
vn -1.272443E-06 -0.1072517 0.9942319
v 0.16315 0.02554136 0.2044682
vt 0.80967 0.846309
v 0.178974 0.05279279 0.2074083
vn 0 0.9991546 0.04110955
v 0.16315 0.05845895 0.06969393
vt 0.967723 0.884912
vn 0.8641094 -0.488932 -0.1194175
vn -0.8641094 -0.488932 -0.1194175
v 0.151638 0.04823905 0.2114045
vt 0.811172 0.879851
vn 0 0.1674012 0.9858888
v 0.16315 0.02857932 0.2147427
vt 0.807257 0.856796
v 0.174663 0.04823905 0.2114045
vn 0 0.9724889 -0.2329492
v 0.16315 0.02508162 0.1147305
vt 0.924545 0.852694
vn 0.8640755 -0.5030546 0.01759291
vn -0.8640755 -0.5030546 0.01759291
v -0.147326 0.05279279 0.2074083
v -0.178974 0.05279279 0.2074083
v -0.16315 0.02554136 0.2044682
v -0.16315 0.05845895 0.06969393
v -0.151638 0.04823905 0.2114045
v -0.174663 0.04823905 0.2114045
v -0.16315 0.02857932 0.2147427
v -0.16315 0.02508172 0.1147305
vn 0 -0.311213 -0.9503402
vn 0 -0.7425517 -0.6697888
vn 0 0.8440968 0.5361909
o merged_0_0_node
g polygon_0
usemtl mat_body_mat_id
f 1/1/1 2/2/2 3/3/3
f 1/1/1 4/4/4 2/2/2
f 1/1/1 3/3/3 5/5/5
f 1/1/1 6/6/6 4/4/4
f 1/1/1 5/5/5 7/7/7
f 1/1/1 8/8/8 6/6/6
f 1/1/1 7/7/7 9/9/9
f 1/1/1 10/10/10 8/8/8
f 1/1/1 9/9/9 11/11/11
f 1/1/1 12/12/12 10/10/10
f 1/1/1 11/11/11 13/13/13
f 1/1/1 13/13/13 12/12/12
f 14/1/14 15/3/15 16/2/16
f 14/1/14 17/5/17 15/3/15
f 14/1/14 16/2/16 18/4/18
f 14/1/14 19/7/19 17/5/17
f 14/1/14 18/4/18 20/6/20
f 14/1/14 21/9/21 19/7/19
f 14/1/14 20/6/20 22/8/22
f 14/1/14 23/11/23 21/9/21
f 14/1/14 22/8/22 24/10/24
f 14/1/14 25/13/25 23/11/23
f 14/1/14 24/10/24 26/12/26
f 14/1/14 26/12/26 25/13/25
f 27/14/27 28/14/28 29/15/29
f 27/14/27 30/16/30 28/14/28
f 27/14/27 29/15/29 31/17/31
f 27/14/27 32/18/32 30/16/30
f 27/14/27 31/17/31 33/17/33
f 27/14/27 34/16/34 32/18/32
f 27/14/27 33/17/33 35/15/35
f 27/14/27 36/14/36 34/16/34
f 27/14/27 35/15/35 36/14/36
f 28/14/28 37/19/37 29/15/29
f 28/14/28 30/16/30 37/19/37
f 29/15/29 37/19/37 31/17/31
f 32/18/32 34/16/34 38/20/38
f 32/18/32 39/20/39 30/16/30
f 33/17/33 40/19/40 35/15/35
f 33/17/33 31/17/31 41/21/41
f 33/17/33 41/21/42 40/19/40
f 36/14/36 40/19/40 34/16/34
f 36/14/36 35/15/35 40/19/40
f 37/19/37 30/16/30 42/22/43
f 37/19/37 41/21/44 31/17/31
f 37/19/37 42/22/43 43/23/45
f 37/19/37 43/23/45 41/21/44
f 41/21/42 44/23/46 40/19/40
f 34/16/34 40/19/40 45/22/47
f 34/16/34 45/22/47 38/20/48
f 40/19/40 44/23/46 45/22/47
f 30/16/30 39/20/49 42/22/43
f 43/23/45 42/22/43 46/24/50
f 43/23/45 46/24/50 47/25/51
f 43/23/45 47/25/51 48/26/52
f 43/23/45 48/26/52 49/27/53
f 44/23/46 50/24/54 45/22/47
f 44/23/46 51/25/55 50/24/54
f 44/23/46 48/26/56 51/25/55
f 44/23/46 49/27/57 48/26/56
f 42/22/43 32/18/58 46/24/50
f 42/22/43 39/20/59 32/18/58
f 47/25/51 46/24/50 52/28/60
f 47/25/51 52/28/60 53/29/61
f 47/25/51 53/29/61 54/30/62
f 52/28/60 32/18/58 53/29/61
f 52/28/60 46/24/50 32/18/58
f 45/22/47 50/24/54 32/18/63
f 45/22/47 32/18/63 38/20/64
f 51/25/55 55/28/65 50/24/54
f 51/25/55 53/29/66 55/28/65
f 51/25/55 54/30/67 53/29/66
f 55/28/65 53/29/66 32/18/63
f 55/28/65 32/18/63 50/24/54
f 56/31/68 33/17/69 35/15/70
f 56/31/68 57/32/71 33/17/69
f 56/31/68 35/15/70 58/33/72
f 56/31/68 59/34/73 57/32/71
f 56/31/68 58/33/72 60/35/74
f 56/31/68 61/36/75 59/34/73
f 56/31/68 60/35/74 62/37/76
f 56/31/68 62/37/76 61/36/75
f 33/17/69 63/38/77 35/15/70
f 33/17/69 31/17/78 63/38/77
f 33/17/69 57/32/79 31/17/78
f 57/32/71 59/34/73 64/39/80
f 64/39/80 59/34/73 61/36/75
f 60/35/74 65/40/81 66/41/82
f 60/35/74 58/33/83 65/40/81
f 60/35/74 66/41/82 67/42/84
f 58/33/83 35/15/70 65/40/81
f 62/37/76 68/43/85 61/36/75
f 62/37/76 69/44/86 68/43/87
f 63/38/77 31/17/78 70/19/88
f 63/38/77 36/14/89 35/15/70
f 63/38/77 70/19/88 32/18/90
f 63/38/77 34/16/91 36/14/89
f 63/38/77 32/18/90 34/16/91
f 65/40/81 36/14/89 66/41/82
f 65/40/81 35/15/70 36/14/89
f 67/42/84 66/41/82 71/45/92
f 67/42/84 71/45/92 72/46/93
f 67/42/84 72/46/93 73/47/94
f 36/14/89 34/16/91 71/45/92
f 36/14/89 71/45/92 66/41/82
f 68/43/85 74/37/95 61/36/75
f 69/44/86 75/44/96 68/43/87
f 69/44/86 76/48/97 75/44/96
f 75/44/96 74/37/95 68/43/87
f 31/17/78 29/15/98 70/19/88
f 31/17/78 77/31/99 29/15/98
f 31/17/78 57/32/100 77/31/99
f 32/18/90 78/49/101 34/16/91
f 32/18/90 70/19/88 30/16/102
f 32/18/90 79/50/103 78/49/101
f 32/18/90 30/16/102 80/49/104
f 32/18/90 80/49/104 79/50/103
f 34/16/91 78/49/101 71/45/92
f 72/46/93 71/45/92 81/51/105
f 71/45/92 78/49/101 81/51/105
f 61/36/75 74/37/95 77/31/99
f 61/36/75 77/31/99 82/34/106
f 61/36/75 82/34/106 64/39/107
f 82/34/106 57/32/100 64/39/107
f 82/34/106 77/31/99 57/32/100
f 29/15/98 28/14/108 70/19/88
f 29/15/98 77/31/99 83/33/109
f 29/15/98 84/40/110 28/14/108
f 29/15/98 83/33/111 84/40/110
f 70/19/88 28/14/108 30/16/102
f 80/49/104 30/16/102 85/45/112
f 80/49/104 85/45/112 86/51/113
f 80/49/104 86/51/113 87/52/114
f 80/49/104 87/52/114 79/50/115
f 78/49/101 87/52/114 81/51/105
f 78/49/101 79/50/115 87/52/114
f 30/16/102 28/14/108 85/45/112
f 74/37/95 88/35/116 77/31/99
f 77/31/99 88/35/116 83/33/109
f 83/33/111 88/35/116 84/40/110
f 86/51/113 89/53/117 87/52/114
f 86/51/113 85/45/112 90/46/118
f 87/52/114 89/53/117 81/51/105
f 28/14/108 84/40/110 91/41/119
f 28/14/108 91/41/119 85/45/112
f 84/40/110 88/35/116 91/41/119
f 90/46/118 85/45/112 92/42/120
f 90/46/118 92/42/120 93/47/121
f 92/42/120 91/41/119 88/35/116
f 92/42/120 85/45/112 91/41/119
f 94/1/122 12/12/123 11/11/124
f 94/1/122 10/10/24 12/12/123
f 94/1/122 11/11/124 7/7/125
f 94/1/122 8/8/126 10/10/24
f 94/1/122 7/7/125 3/3/127
f 94/1/122 4/4/128 8/8/126
f 94/1/122 3/3/127 4/4/128
f 12/12/123 13/13/129 11/11/124
f 7/7/125 5/5/130 3/3/127
f 7/7/125 11/11/124 9/9/131
f 8/8/126 4/4/128 6/6/132
f 3/3/127 2/2/133 4/4/128
f 95/1/134 23/11/135 26/12/136
f 95/1/134 19/7/137 23/11/135
f 95/1/134 26/12/136 24/10/10
f 95/1/134 15/3/138 19/7/137
f 95/1/134 24/10/10 22/8/139
f 95/1/134 18/4/140 15/3/138
f 95/1/134 22/8/139 18/4/140
f 23/11/135 25/13/141 26/12/136
f 23/11/135 19/7/137 21/9/142
f 15/3/138 18/4/140 16/2/143
f 15/3/138 17/5/144 19/7/137
f 22/8/139 20/6/145 18/4/140
f 96/54/146 97/55/147 98/56/148
f 96/54/146 99/57/149 97/55/147
f 96/54/146 98/56/148 100/58/150
f 96/54/146 101/59/151 99/57/149
f 96/54/146 100/58/150 102/60/152
f 96/54/146 103/61/153 101/59/151
f 96/54/146 104/62/154 103/61/155
f 97/55/147 105/63/156 98/56/148
f 97/55/147 99/57/149 106/64/157
f 97/55/147 107/65/158 105/63/156
f 97/55/147 106/64/157 107/65/158
f 100/58/150 108/66/159 102/60/152
f 100/58/150 109/67/160 108/66/159
f 103/61/153 110/54/161 101/59/151
f 103/61/155 104/62/154 110/54/161
f 98/56/148 105/63/156 111/68/162
f 99/57/149 112/69/163 106/64/157
f 99/57/149 101/59/151 112/69/163
f 107/65/158 113/55/164 105/63/156
f 107/65/158 106/64/157 113/55/164
f 109/67/160 114/58/165 108/66/159
f 110/54/161 115/57/166 101/59/151
f 110/54/161 116/56/167 113/55/164
f 110/54/161 114/58/165 116/56/167
f 110/54/161 113/55/164 115/57/166
f 110/54/161 117/60/168 114/58/165
f 115/57/166 112/69/163 101/59/151
f 115/57/166 106/64/157 112/69/163
f 115/57/166 113/55/164 106/64/157
f 116/56/167 111/68/162 105/63/156
f 116/56/167 105/63/156 113/55/164
f 114/58/165 117/60/168 108/66/159
f 76/70/97 118/71/169 119/72/170
f 76/70/97 69/73/86 118/71/169
f 76/70/97 119/72/170 120/74/171
f 76/70/97 120/74/171 121/75/172
f 76/70/97 121/75/172 75/76/96
f 69/73/86 62/77/76 118/71/169
f 119/72/170 118/71/169 72/78/93
f 119/72/170 72/78/93 81/79/105
f 120/74/171 90/80/118 121/75/172
f 120/74/171 86/81/113 90/80/118
f 75/76/96 121/75/172 74/82/95
f 62/77/76 122/83/173 118/71/169
f 121/75/172 123/84/174 74/82/95
f 124/85/175 102/86/152 108/87/159
f 124/85/175 96/88/146 102/86/152
f 124/85/175 108/87/159 104/89/154
f 124/85/175 104/89/154 96/88/146
f 108/87/159 125/85/176 104/89/154
f 108/87/159 117/86/168 125/85/176
f 104/89/154 125/85/176 110/88/161
f 110/88/161 125/85/176 117/86/168
f 126/90/177 100/91/150 98/92/148
f 126/90/177 109/93/160 100/91/150
f 126/90/177 98/92/148 111/94/162
f 126/90/177 111/94/162 109/93/160
f 111/94/162 127/90/178 109/93/160
f 111/94/162 116/92/167 127/90/178
f 109/93/160 127/90/178 114/91/165
f 114/91/165 127/90/178 116/92/167
f 89/95/179 86/95/113 120/95/171
f 89/95/179 120/95/171 119/95/170
f 89/95/179 119/95/170 81/95/105
f 118/96/169 122/96/173 73/96/94
f 118/96/169 73/96/94 72/96/93
f 121/96/172 93/96/121 123/96/174
f 121/96/172 90/96/118 93/96/121
f 128/97/180 129/98/180 130/97/180
f 128/97/181 130/97/181 131/99/181
f 130/97/182 129/98/182 131/99/182
f 129/98/183 128/97/183 131/99/183
f 132/100/184 133/101/184 134/100/184
f 132/100/185 134/100/185 135/102/185
f 134/100/186 133/101/186 135/102/186
f 133/101/187 132/100/187 135/102/187
f 136/97/180 137/97/180 138/98/180
f 136/97/181 139/99/181 137/97/181
f 137/97/183 139/99/183 138/98/183
f 138/98/182 139/99/182 136/97/182
f 140/100/184 141/100/184 142/101/184
f 140/100/185 143/102/185 141/100/185
f 141/100/187 143/102/187 142/101/187
f 142/101/186 143/102/186 140/100/186
f 41/21/188 43/23/188 44/23/188
f 44/23/41 43/23/41 49/27/41
f 48/26/189 47/25/189 51/25/189
f 51/25/190 47/25/190 54/30/190
vt 0.9015 0.751463
vt 0.370249 0.776378
vt 0.853662 0.998537
vt 0.152897 0.773719
vt 0.192742 0.93805
o merged_1_0_node
g polygon_0
usemtl TEX_ANIM_EYE_mat_id
f 67/103/84 73/104/94 60/105/74
f 122/106/173 62/107/76 73/104/94
f 62/107/76 60/105/74 73/104/94
f 92/103/120 88/105/116 93/104/121
f 88/105/116 74/107/95 93/104/121
f 93/104/121 74/107/95 123/106/174
