mtllib Onix.mtl
v 0.233024 0.172126 -0.0394466
vt 1.01424 0.811774
vn 0.9898169 -0.04897579 -0.133656
v 0.0929048 0.05949261 -0.1475047
vt 0.726725 0.706713
vn 0.4901834 -0.6908264 -0.5314878
v 0.09519121 0.251379 -0.169659
vt 1.29963 0.697906
vn 0.4791212 0.6119487 -0.6292549
v 0.10008 -0.00121697 0.00430261
vt 0.675709 0.862722
vn 0.414553 -0.909935 0.0128154
v 0.104653 0.329093 -0.0198897
vt 1.32224 0.832413
vn 0.295317 0.954837 -0.0327758
v 0.104653 0.061858 0.137548
vt 0.75334 0.994465
vn 0.5771022 -0.6704062 0.4663782
v 0.15749 0.2713642 0.1047655
vt 1.15924 0.957865
vn 0.6605509 0.5965068 0.4559079
v -0.10008 -0.00121697 0.00430261
vt 0.324381 0.862744
vn -0.416012 -0.909107 0.0214124
v -0.0929048 0.05949261 -0.1475047
vt 0.273337 0.706734
vn -0.4981879 -0.6839688 -0.5329124
v -0.09519121 0.251379 -0.169659
vt 1.70031 0.697927
vn -0.4681681 0.6221974 -0.6274465
v -0.15749 0.2713642 0.1047655
vt 1.8407 0.957907
vn -0.7109302 0.5442371 0.4454033
v -0.233024 0.172126 -0.0394466
vt -0.0142394 0.811827
vn -0.9898169 -0.04897569 -0.133656
vt -0.299687 0.697927
v -0.104653 0.0618579 0.137548
vt 0.246792 0.994488
vn -0.5713199 -0.6749019 0.4670129
v -0.104653 0.329093 -0.0198897
vt 1.67768 0.832436
vn -0.32581 0.9396859 -0.104107
vt -0.322323 0.832436
vt -0.159301 0.957907
v 0.0519122 0.3154961 -0.4360301
vt 1.38361 0.294835
vn 0.6202381 0.7430082 0.2514829
v -0.0519122 0.3154961 -0.4360301
vt 1.61646 0.294847
vn -0.5882158 0.7620296 0.2707636
v 0.0653442 0.2492497 -0.3770152
vt 1.29105 0.430334
vn 0.695713 0.4167433 0.5850713
v -0.0334069 0.3237916 -0.5413049
vt 1.62346 0.192295
vn -0.3947456 0.9187855 0.002999561
v 0.12639 0.1830475 -0.4709443
vt 1.01786 0.348458
vn 0.999868 -0.01490957 -0.006458012
v 0.0334069 0.3237916 -0.5413049
vt 1.37672 0.192287
vn 0.4399091 0.8980182 -0.006576715
v 0.0668137 0.2825239 -0.6150607
vt 1.02701 0.150956
vn 0.9352015 0.2861741 -0.2085729
v -0.0653442 0.2492497 -0.3770152
vt 1.70898 0.430349
vn -0.6741285 0.432296 0.5988916
v 0.0653442 0.1248937 -0.5812665
vt 0.678677 0.284332
vn 0.4529276 -0.7281946 -0.5143824
v 0.075537 0.08745318 -0.390242
vt 0.706497 0.431696
vn 0.4294012 -0.9018914 -0.04697403
v -0.075537 0.08745318 -0.390242
vt 0.293478 0.431713
vn -0.4450411 -0.8945796 -0.04081323
v -0.0653442 0.1248937 -0.5812665
vt 0.321239 0.284346
vn -0.4639117 -0.7164174 -0.5210872
v -0.12639 0.1830475 -0.4709443
vt -0.0178598 0.348487
vn -0.999868 -0.01490946 -0.006457742
vt -0.29102 0.430349
v 0 0.2468686 -0.6582795
vt 0.499855 0.134184
vn 0 -0.3353153 -0.9421059
vn 0.5983952 -0.1732792 -0.7822388
vt -0.383541 0.294847
v -0.0668138 0.2825239 -0.6150607
vt -0.0269833 0.150971
vn -0.5983962 -0.1732793 -0.782238
vn -0.9352012 0.286175 -0.2085728
vt -0.376541 0.192295
v -0.14016 0.1721258 -0.2520061
vt -0.0197486 0.572058
vn -0.9980795 0.006562059 -0.06159834
vn -0.6157142 0.6085716 -0.5005363
vn -0.6361653 -0.5661117 -0.5242243
v -0.0857298 0.2964718 -0.2695513
vt -0.345863 0.529865
vn -0.4149638 0.9087589 -0.04429709
v -0.0857298 0.000932674 -0.2421284
vt 0.345396 0.584758
vn -0.4831994 -0.8704596 -0.09390667
vn -0.599156 0.6730751 0.4335689
vn -0.6491821 -0.6064912 0.4590545
vn 0.6185592 -0.5818424 -0.5280567
vn 0.6629452 -0.5953524 0.4539376
v 0.0857297 0.000932674 -0.2421284
vt 0.654626 0.584738
vn 0.4790642 -0.8700039 -0.1165794
v 0.14016 0.1721258 -0.2520061
vt 1.01975 0.572026
vn 0.9980795 0.006561659 -0.06159814
vn 0.6570756 0.5662553 -0.4976008
v 0.0857298 0.2964718 -0.2695513
vt 1.34585 0.529845
vn 0.4430701 0.8955635 -0.04068052
vn 0.6169889 0.6585401 0.430871
vt 1.65414 0.529865
v 0.109225 0.03182174 0.2460926
vt 0.970412 0
vn 0.3949314 -0.7596919 0.5166213
v -0.109225 0.03182174 0.2460926
vt 2.02965 0
vn -0.3964282 -0.7564047 0.5202851
vt 1.26407 0.0460259
vn 0.6385462 -0.7343782 -0.2301031
vt 1.20783 0.411027
vn 0.8122624 -0.200405 -0.5477843
v 0.218451 0.3114325 0.3039514
vt 0.903909 0.494166
vn 0.9437683 -0.1154626 0.3097898
v 0.109225 0.1777808 0.3455219
vt 0.749461 0.257962
vn 0.1879055 -0.3289052 0.9254798
v -0.109225 0.1777808 0.3455219
vt 0.250602 0.257962
vn -0.1545697 -0.2068571 0.966084
vt 0.0296515 0
vt 1.73599 0.0460259
vn -0.6471047 -0.7273477 -0.2285189
v 0.109225 0.4023885 0.0591501
vt 1.32383 0.6549
vn 0.2658264 -0.2281203 -0.9366416
vt 1.79223 0.411027
vn -0.8426726 -0.1859749 -0.5052882
v -0.218451 0.3114325 0.3039514
vt 0.0961549 0.494166
vn -0.8913529 -0.0603124 0.4492799
vt -0.207769 0.411027
vt -0.264011 0.0460259
v -0.109225 0.4023885 0.0591501
vt 1.67623 0.6549
vn -0.3365648 -0.1965827 -0.9209123
vt -0.323766 0.6549
v 0.0617395 0.3180282 -0.6466227
vt 1.24832 0.0830229
vn 0.883997 0.3493987 -0.3105959
v 0 0.377342 -0.6232372
vt 1.50013 0.106183
vn 0 0.9975446 0.07003494
vn 0.4516905 0.8033212 0.3881376
v 0 0.3498392 -0.6960159
vt 1.50017 0.00571796
vn 0 0.5333629 -0.8458865
vn 0.9908895 -0.03393418 -0.1303322
v 0 0.2647047 -0.6961899
vt 1.00475 0.0693431
vn 0 -0.3852053 -0.9228308
vn -0.4516907 0.8033215 0.3881367
vn 0 -0.9048625 -0.4257039
vn -0.9908897 -0.03393329 -0.1303312
vt -0.100058 0.069345
v -0.0617395 0.3180282 -0.6466227
vt -0.24815 0.083031
vn -0.8839967 0.3493996 -0.3105958
vt -0.499829 0.00571796
vt -0.433441 0.106185
v 0.0963841 0.5347289 0.06276624
vt 1.33833 0.88878
vn 0.2900432 0.4814908 -0.8270681
v -0.096384 0.5347289 0.06276624
vt 1.66173 0.888779
vn -0.2900432 0.4814908 -0.8270681
v 0 0.5976634 0.2297175
vt 1.50003 1
vn 0 0.9999862 0.00526382
vn -0.5048561 0.02249797 -0.8629103
v 0.192768 0.5337488 0.2297175
vt 1.01024 0.887047
vn 0.869446 0.4922895 -0.04140951
vn 0.5048561 0.02249807 -0.8629103
v 0.096384 0.5327688 0.3990125
vt 0.669926 0.885315
vn 0.4151808 0.5951506 0.6880556
v -0.0963841 0.5327688 0.3990125
vt 2.33014 0.885315
vn -0.4112597 0.5906542 0.6942573
vn 0.9356928 -0.2224939 0.2738165
v 0.102805 0.3787678 0.4126515
vt 0.66773 0.613157
vn 0.2738691 -0.3437238 0.8982481
vt 0.330138 0.885315
v -0.102805 0.3787678 0.4126515
vt 0.332334 0.613157
vn -0.1968866 -0.5247564 0.8281705
vn -0.881875 -0.3325871 0.3341892
v -0.192768 0.5337488 0.2297175
vt -0.0101746 0.887047
vn -0.869446 0.4922895 -0.04140991
vt -0.499969 1
vt -0.338266 0.888779
o merged_0_0_node
g polygon_0
usemtl mat_body1_mat_id
f 1/1/1 2/2/2 3/3/3
f 1/1/1 4/4/4 2/2/2
f 1/1/1 3/3/3 5/5/5
f 1/1/1 6/6/6 4/4/4
f 1/1/1 5/5/5 7/7/7
f 1/1/1 7/7/7 6/6/6
f 2/2/2 4/4/4 8/8/8
f 2/2/2 8/8/8 9/9/9
f 4/4/4 6/6/6 8/8/8
f 3/3/3 10/10/10 5/5/5
f 7/7/7 5/5/5 11/11/11
f 9/9/9 8/8/8 12/12/12
f 9/9/9 12/12/12 10/13/10
f 6/6/6 13/14/13 8/8/8
f 8/8/8 13/14/13 12/12/12
f 10/10/10 14/15/14 5/5/5
f 5/5/5 14/15/14 11/11/11
f 10/13/10 12/12/12 14/16/14
f 13/14/13 11/17/11 12/12/12
f 12/12/12 11/17/11 14/16/14
f 15/18/15 16/19/16 17/20/17
f 15/18/15 18/21/18 16/19/16
f 15/18/15 17/20/17 19/22/19
f 15/18/15 20/23/20 18/21/18
f 15/18/15 19/22/19 21/24/21
f 15/18/15 21/24/21 20/23/20
f 16/19/16 22/25/22 17/20/17
f 19/22/19 23/26/23 21/24/21
f 19/22/19 17/20/17 24/27/24
f 19/22/19 24/27/24 23/26/23
f 24/27/24 25/28/25 23/26/23
f 25/28/25 26/29/26 23/26/23
f 25/28/25 27/30/27 26/29/26
f 25/28/25 22/31/22 27/30/27
f 23/26/23 26/29/26 28/32/28
f 23/26/23 28/32/28 21/24/29
f 22/31/22 16/33/16 27/30/27
f 26/29/26 29/34/30 28/32/28
f 26/29/26 27/30/27 29/34/31
f 27/30/27 16/33/16 29/34/31
f 16/33/16 18/35/18 29/34/31
f 30/36/32 22/31/33 25/28/34
f 30/36/32 31/37/35 22/31/33
f 30/36/32 25/28/34 32/38/36
f 30/36/32 10/13/37 31/37/35
f 30/36/32 32/38/36 9/9/38
f 30/36/32 9/9/38 10/13/37
f 25/28/34 24/27/39 32/38/36
f 9/9/38 32/38/36 2/2/40
f 24/27/39 33/39/41 32/38/36
f 24/27/39 34/40/42 33/39/41
f 24/27/39 17/20/43 34/40/42
f 33/39/41 2/2/40 32/38/36
f 33/39/41 34/40/42 2/2/40
f 17/20/43 35/41/44 34/40/42
f 17/20/43 22/25/33 35/41/44
f 2/2/40 34/40/42 3/3/45
f 34/40/42 35/41/44 3/3/45
f 22/25/33 31/42/35 35/41/44
f 35/41/44 31/42/35 3/3/45
f 31/42/35 10/10/37 3/3/45
f 36/43/46 37/44/47 6/45/48
f 36/43/46 6/45/48 7/46/49
f 36/43/46 7/46/49 38/47/50
f 36/43/46 38/47/50 39/48/51
f 36/43/46 39/48/51 40/49/52
f 36/43/46 40/49/52 37/50/47
f 39/48/51 38/47/50 40/49/52
f 37/44/47 13/51/53 6/45/48
f 7/46/49 41/52/54 38/47/50
f 7/46/49 11/53/55 41/52/54
f 37/50/47 40/49/52 42/54/56
f 37/50/47 42/54/56 11/55/55
f 37/50/47 11/55/55 13/56/53
f 40/49/52 38/47/50 42/54/56
f 11/53/55 43/57/57 41/52/54
f 11/55/55 42/54/56 43/58/57
f 44/59/58 45/60/59 20/23/60
f 44/59/58 46/61/61 45/60/59
f 44/59/58 20/23/60 21/24/62
f 44/59/58 47/62/63 46/61/61
f 44/59/58 21/24/62 47/62/63
f 45/60/59 18/21/64 20/23/60
f 21/24/62 28/32/65 47/62/63
f 28/32/65 29/34/66 47/63/63
f 29/34/66 48/64/67 47/63/63
f 29/34/66 18/35/64 48/64/67
f 47/63/63 48/64/67 46/65/61
f 18/35/64 45/66/59 48/64/67
f 48/64/67 45/66/59 46/65/61
f 49/67/68 50/68/69 51/69/70
f 49/67/68 43/57/71 50/68/69
f 49/67/68 51/69/70 52/70/72
f 49/67/68 41/52/73 43/57/71
f 49/67/68 52/70/72 41/52/73
f 51/69/70 53/71/74 52/70/72
f 51/69/70 54/72/75 53/71/74
f 41/52/73 52/70/72 38/47/76
f 52/70/72 53/71/74 38/47/76
f 53/71/74 55/73/77 38/47/76
f 53/71/74 54/74/75 55/73/77
f 38/47/76 55/73/77 56/75/78
f 38/47/76 56/75/78 42/54/79
f 56/75/78 54/74/75 42/54/79
f 56/75/78 55/73/77 54/74/75
f 42/54/79 54/74/75 57/76/80
f 42/54/79 57/76/80 43/58/71
f 54/74/75 51/77/70 57/76/80
f 43/58/71 57/76/80 50/78/69
f 50/78/69 57/76/80 51/77/70
v 0 0.7375184 0.6502647
vt 3.18289E-05 0.440396
vn 0 0.3884181 0.9214833
v 0 0.8652325 0.5667518
vt 3.18289E-05 0.749607
vn 0 0.4567278 0.8896065
v -0.0620955 0.8173767 0.5340571
vt -0.0942273 0.646427
vn -0.6223779 0.4243164 0.6577243
v 0.0620955 0.8173767 0.5340571
vt 0.094291 0.646427
vn 0.6223779 0.4243164 0.6577243
v -0.125211 0.7092093 0.6093498
vt -0.134326 0.379953
vn -0.6107306 0.4602333 0.6443551
v 0.125211 0.7092093 0.6093498
vt 0.134389 0.379953
vn 0.6107306 0.4602333 0.6443551
v -0.135808 0.6230141 0.6076816
vt -0.145002 0.221217
vn -0.4685598 -0.4205509 0.7769097
v 0.135808 0.6230141 0.6076816
vt 0.145066 0.221217
vn 0.46856 -0.42055 0.7769101
v 0 0.6184945 0.6461961
vt 3.18289E-05 0.219184
vn 0 -0.2522399 0.9676647
v 0 0.9271592 0.5466769
vt 3.18289E-05 0.904893
vn 0 0.6751758 0.7376568
v -0.202531 0.6337886 0.5146184
vt -0.265137 0.210647
vn -0.8737937 -0.1928579 0.4464194
v -0.237375 0.7502021 0.3875644
vt -0.424881 0.454858
vn -0.7292355 0.3092643 0.6103861
v 0.202531 0.6337886 0.5146184
vt 0.265201 0.210647
vn 0.8737937 -0.1928579 0.4464194
v 0.237375 0.7502021 0.3875644
vt 0.424945 0.454858
vn 0.7292355 0.3092643 0.6103861
v 0 0.6126856 0.6126894
vt 3.18289E-05 0.180479
vn 0 -0.9853055 0.1708009
v 0.198922 0.9359805 0.385032
vt 0.414874 0.935909
vn 0.6295441 0.7228357 0.284926
v 0 1.030701 0.3675255
vt 3.18289E-05 1.41101
vn 0 0.9859771 0.166881
v -0.198922 0.9359805 0.385032
vt -0.414811 0.935909
vn -0.6295441 0.7228357 0.284926
v -0.279555 0.6631468 0.3736794
vt -0.451195 0.274947
vn -0.899873 -0.3547499 0.2537343
v 0.279555 0.6631468 0.3736794
vt 0.451259 0.274947
vn 0.899873 -0.3547499 0.2537343
v 0.146117 0.5493897 0.4981721
vt 0.228223 0.00616169
vn 0.6125215 -0.6740818 0.4128329
v 0.223911 0.5356367 0.2585511
vt 0.598983 0.00451043
vn 0.5138971 -0.8561625 -0.05380899
v -0.146117 0.5493897 0.4981721
vt -0.228159 0.00616169
vn -0.6125215 -0.6740818 0.4128329
v 0 0.545495 0.5457008
vt 3.18289E-05 -0.00996834
vn 0 -0.7740997 0.6330637
vn 0 -0.706041 0.708171
v 0 1.035072 0.2001958
vt 1.00003 1.21145
vn 0 0.9954099 -0.09570379
v 0.213132 0.9420364 0.1278285
vt 0.742003 0.84087
vn 0.6198947 0.7305318 -0.2864506
v 0.232739 0.8064861 0.271969
vt 0.578445 0.602396
vn 0.9662859 0.2516033 0.05465535
vn 0.9461233 0.3044478 0.110282
v 0.241763 0.6060917 0.09493462
vt 0.745876 0.215994
vn 0.6497616 -0.7128896 -0.2638148
v 0.269258 0.7081302 0.09749119
vt 0.727076 0.394753
vn 0.9630981 -0.2576369 -0.07787976
v 0 0.9246418 0.0376809
vt 1.00003 0.813484
vn 0 0.5774512 -0.8164253
v -0.213132 0.9420364 0.1278285
vt 1.25806 0.84087
vn -0.6198947 0.7305318 -0.2864506
vn 0.9380925 0.34262 0.05093218
v 0 0.5000206 0.2001958
vt 1.00003 -0.211451
vn 0 -0.9887773 -0.149397
v 0 0.5282146 0.4095155
vt 3.18289E-05 -0.296991
vn 0 -0.9936199 0.112781
vn 0.08559013 -0.9917179 0.09575999
v 0.118698 0.7715672 0.01073447
vt 0.886877 0.507509
vn 0.2670848 0.05815229 -0.9619168
vn 0.9627553 0.265327 0.05199786
vn 0.5260701 0.09279446 -0.8453634
v -0.118698 0.7715672 0.01073447
vt 1.11319 0.507509
vn -0.2670848 0.05815229 -0.9619168
v -0.269258 0.7081302 0.09749119
vt 1.27299 0.394753
vn -0.5260701 0.09279446 -0.8453634
vt 1.58519 0.935909
vt 3.00003 1.21145
v -0.232739 0.8064861 0.271969
vt 1.42162 0.602396
vn -0.9662859 0.2516033 0.05465535
vn -0.9627553 0.265327 0.05199786
v 0 0.5673122 0.0376809
vt 1.00003 0.11817
vn 0 -0.9239281 -0.3825661
vn 0 -0.9920453 0.125881
vn 0.3198583 -0.2297664 -0.9191834
v -0.241763 0.6060917 0.09493462
vt 1.25419 0.215994
vn -0.3198583 -0.2297664 -0.9191834
vt 2.00003 1.41101
vt 1.5488 0.274947
vn -0.9380925 0.34262 0.05093218
vn -0.6497616 -0.7128896 -0.2638148
v -0.223911 0.5356367 0.2585511
vt 1.40108 0.00451043
vn -0.5138971 -0.8561625 -0.05380899
vt 2.00003 -0.296991
vn -0.08559013 -0.9917179 0.09575989
vn 0 -0.229019 -0.973422
vt 1.57512 0.454858
vn -0.9461233 0.3044478 0.110282
vn -0.9630981 -0.2576369 -0.07787976
vt 1.77184 0.00616169
vt 1.73486 0.210647
v 0 1.239161 0.2050445
vt 0.791829 0.991888
vn 0 0.2669169 0.9637195
v 0.0230509 1.239161 0.1190803
vt 0.86726 0.991888
vn 0.9924167 0.121943 -0.01545996
v -0.0230509 1.239161 0.1190803
vn -0.9924167 0.121943 -0.01545996
v 0.0369232 0.9298087 0.138595
vt 0.850137 0.154125
vn 0.9850357 -0.1716846 0.01513838
v -0.0369232 0.9298087 0.138595
vn -0.9850357 -0.1716846 0.01513838
v 0 0.9298087 0.279433
vt 0.726556 0.154125
vn 0 0.08417609 0.9964509
v 0 1.239161 0.09343351
vt 0.889764 0.991888
vn 0 0.147844 -0.9890106
v 0 0.9298087 0.07936361
vt 0.90211 0.154125
vn 0 -0.25779 -0.966201
o merged_1_0_node
g polygon_0
usemtl mat_kao_mat_id
f 58/79/81 59/80/82 60/81/83
f 58/79/81 61/82/84 59/80/82
f 58/79/81 60/81/83 62/83/85
f 58/79/81 63/84/86 61/82/84
f 58/79/81 62/83/85 64/85/87
f 58/79/81 65/86/88 63/84/86
f 58/79/81 64/85/87 66/87/89
f 58/79/81 66/87/89 65/86/88
f 59/80/82 67/88/90 60/81/83
f 59/80/82 61/82/84 67/88/90
f 62/83/85 68/89/91 64/85/87
f 62/83/85 60/81/83 69/90/92
f 62/83/85 69/90/92 68/89/91
f 63/84/86 65/86/88 70/91/93
f 63/84/86 71/92/94 61/82/84
f 63/84/86 70/91/93 71/92/94
f 66/87/89 64/85/87 72/93/95
f 66/87/89 72/93/95 65/86/88
f 67/88/90 73/94/96 74/95/97
f 67/88/90 74/95/97 75/96/98
f 69/90/92 76/97/99 68/89/91
f 70/91/93 77/98/100 71/92/94
f 70/91/93 65/86/88 78/99/101
f 70/91/93 79/100/102 77/98/100
f 70/91/93 78/99/101 79/100/102
f 64/85/87 68/89/91 80/101/103
f 64/85/87 80/101/103 81/102/104
f 64/85/87 81/102/104 72/93/105
f 81/102/104 65/86/88 72/93/105
f 81/102/104 78/99/101 65/86/88
f 73/94/96 82/103/106 74/95/97
f 73/94/96 83/104/107 82/103/106
f 73/94/96 84/105/108 83/104/107
f 73/94/96 71/92/109 84/105/108
f 77/98/100 79/100/102 85/106/110
f 77/98/100 85/106/110 86/107/111
f 82/103/106 83/104/107 87/108/112
f 82/103/106 87/108/112 88/109/113
f 71/92/109 77/98/114 84/105/108
f 79/100/102 89/110/115 85/106/110
f 79/100/102 90/111/116 89/110/115
f 79/100/102 78/99/117 90/111/116
f 83/104/107 91/112/118 87/108/112
f 83/104/107 84/105/108 86/107/119
f 83/104/107 86/107/120 91/112/118
f 86/107/119 84/105/108 77/98/114
f 88/109/113 87/108/112 92/113/121
f 88/109/113 92/113/121 93/114/122
f 88/109/113 75/115/98 82/116/106
f 88/109/113 94/117/123 75/115/98
f 88/109/113 93/114/124 94/117/123
f 87/108/112 91/112/118 92/113/121
f 85/106/110 89/110/115 95/118/125
f 78/99/117 81/102/126 90/111/116
f 86/107/120 85/106/127 91/112/118
f 93/114/122 92/113/121 96/119/128
f 82/116/106 75/115/98 74/120/97
f 93/114/124 76/121/129 94/117/123
f 89/110/115 96/119/130 95/118/125
f 89/110/115 97/122/131 96/119/130
f 89/110/115 90/123/116 97/122/131
f 81/102/126 80/101/132 90/111/116
f 85/106/127 95/118/133 91/112/118
f 95/118/133 96/119/128 92/113/121
f 95/118/133 92/113/121 91/112/118
f 75/115/98 94/117/123 69/124/134
f 69/124/134 94/117/123 76/121/129
f 96/119/130 97/122/131 76/121/99
f 96/119/130 76/121/99 93/114/135
f 90/123/116 80/125/132 97/122/131
f 76/121/99 97/122/131 68/126/91
f 97/122/131 80/125/103 68/126/91
f 98/127/136 99/128/137 100/128/138
f 98/127/136 101/129/139 99/128/137
f 98/127/136 100/128/138 102/129/140
f 98/127/136 103/130/141 101/129/139
f 98/127/136 102/129/140 103/130/141
f 103/130/141 102/129/140 101/129/139
f 99/128/137 104/131/142 100/128/138
f 99/128/137 101/129/139 105/132/143
f 99/128/137 105/132/143 104/131/142
f 105/132/143 101/129/139 102/129/140
f 105/132/143 102/129/140 100/128/138
f 105/132/143 100/128/138 104/131/142
vt 0.192293 0.851605
vt 0.0039018 0.980838
vt 0.83346 0.996346
vt 0.853601 0.755821
vt 0.833587 0.996346
vt 0.19242 0.851605
vt 0.853728 0.755821
o merged_2_0_node
g polygon_0
usemtl TEX_ANIM_EYE_mat_id
f 60/133/83 67/134/90 75/135/98
f 75/135/98 69/136/92 60/133/83
f 73/137/96 61/138/84 71/139/94
f 73/137/96 67/134/90 61/138/84
