ply
format ascii 1.0
element vertex 656
property float x
property float y
property float z
property uchar red
property uchar green
property uchar blue
element face 688
property list uchar int vertex_index
end_header
0.12498 -0.01091 0.18125 202 202 156
0.12525 -0.07322 0.34467 202 202 156
0.43642 -0.07335 0.34467 202 202 156
0.43614 -0.01114 0.18125 202 202 156
0.1252 0.30025 0.18102 202 202 156
0.12498 0.23794 0.34467 202 202 156
0.12338 0.12795 1.21042 202 202 156
0.12376 0.12827 1.03397 202 202 156
0.43493 0.12806 1.03397 202 202 156
0.43455 0.12773 1.21109 202 202 156
0.12352 -0.18291 1.03397 202 202 156
0.12316 -0.18321 1.21066 202 202 156
0.43615 0.2378 0.34467 202 202 156
0.43637 0.30003 0.18102 202 202 156
0.12455 0.12879 0.63209 202 202 156
0.12572 -0.18264 0.63109 202 202 156
0.12542 -0.11232 0.4477 202 202 156
0.12484 0.19879 0.4477 202 202 156
0.43688 -0.18286 0.63176 202 202 156
0.43659 -0.1124 0.4477 202 202 156
0.43433 -0.18343 1.21133 202 202 156
0.43469 -0.18313 1.03397 202 202 156
0.12439 0.1288 0.72849 154 154 119
0.12455 0.12879 0.63209 154 154 119
0.43571 0.12857 0.63276 154 154 119
0.43556 0.12858 0.72916 154 154 119
0.43688 -0.18286 0.63176 154 154 119
0.43534 -0.18258 0.72929 154 154 119
0.12572 -0.18264 0.63109 154 154 119
0.12418 -0.18236 0.72862 154 154 119
0.43601 0.19869 0.4477 202 202 156
0.43571 0.12857 0.63276 202 202 156
0.18568 0.3674 0.18097 143 180 99
0.18568 0.36726 0.00673 143 180 99
0.37598 0.36713 0.00673 143 180 99
0.37598 0.36726 0.18097 143 180 99
0.43637 0.30003 0.18102 143 180 99
0.43636 0.2999 0.00678 143 180 99
0.1252 0.30012 0.00678 143 180 99
0.1252 0.30025 0.18102 143 180 99
0.12498 -0.01091 0.18125 143 180 99
0.12281 -0.2762 0.18153 143 180 99
0.12281 -0.27633 0.00729 143 180 99
0.43614 -0.01114 0.18125 143 180 99
0.43397 -0.27642 0.18153 143 180 99
0.43397 -0.27655 0.00729 143 180 99
0.34813 0.15153 0.00715 143 180 99
0.35618 -0.2765 0.00729 143 180 99
0.34751 0.28404 0.00693 143 180 99
0.21267 0.28414 0.00693 143 180 99
0.21329 0.15162 0.00715 143 180 99
0.2006 -0.27639 0.00729 143 180 99
0.31728 -0.27647 0.00729 143 180 99
0.31728 -0.27634 0.18153 143 180 99
0.35618 -0.27637 0.18153 143 180 99
0.23486 -0.27641 0.00729 143 180 99
0.2006 -0.27626 0.18153 143 180 99
0.23486 -0.27628 0.18153 143 180 99
0.2006 -0.27626 0.18153 151 190 104
0.12281 -0.2762 0.18153 151 190 104
0.12498 -0.01091 0.18125 151 190 104
0.23486 -0.27628 0.18153 151 190 104
0.43614 -0.01114 0.18125 151 190 104
0.31728 -0.27634 0.18153 151 190 104
0.35618 -0.27637 0.18153 151 190 104
0.43397 -0.27642 0.18153 151 190 104
0.21267 0.28414 0.00693 174 198 132
0.21329 0.15162 0.00715 174 198 132
0.34813 0.15153 0.00715 174 198 132
0.34751 0.28404 0.00693 174 198 132
0.1252 0.30025 0.18102 151 190 104
0.18568 0.3674 0.18097 151 190 104
0.37598 0.36726 0.18097 151 190 104
0.43637 0.30003 0.18102 151 190 104
0.10818 0.12435 0.02729 174 198 132
0.10818 0.12435 0.1601 174 198 132
0.14031 0.12436 0.1601 174 198 132
0.14031 0.12436 0.02729 174 198 132
0.14026 0.25716 0.1601 174 198 132
0.10814 0.25715 0.1601 174 198 132
0.10814 0.25715 0.02729 174 198 132
0.14026 0.25716 0.02729 174 198 132
0.4339 -0.37981 0.18161 240 240 240
0.4339 -0.37994 0.00737 240 240 240
0.35611 -0.37989 0.00737 240 240 240
0.35611 -0.37976 0.18161 240 240 240
0.35618 -0.2765 0.00729 240 240 240
0.43397 -0.27655 0.00729 240 240 240
0.43397 -0.27642 0.18153 240 240 240
0.20052 -0.37978 0.00737 240 240 240
0.12273 -0.37972 0.00737 240 240 240
0.12273 -0.37959 0.18161 240 240 240
0.20052 -0.37965 0.18161 240 240 240
0.2006 -0.27639 0.00729 240 240 240
0.2006 -0.27626 0.18153 240 240 240
0.12281 -0.27633 0.00729 240 240 240
0.31721 -0.37986 0.00737 240 240 240
0.23479 -0.3798 0.00737 240 240 240
0.23479 -0.37967 0.18161 240 240 240
0.31721 -0.37973 0.18161 240 240 240
0.31728 -0.27647 0.00729 240 240 240
0.31728 -0.27634 0.18153 240 240 240
0.23486 -0.27641 0.00729 240 240 240
0.43397 -0.27642 0.18153 249 249 249
0.4339 -0.37981 0.18161 249 249 249
0.35611 -0.37976 0.18161 249 249 249
0.35618 -0.27637 0.18153 249 249 249
0.35618 -0.27637 0.18153 240 240 240
0.2006 -0.27626 0.18153 249 249 249
0.20052 -0.37965 0.18161 249 249 249
0.12273 -0.37959 0.18161 249 249 249
0.12281 -0.2762 0.18153 249 249 249
0.12281 -0.2762 0.18153 240 240 240
0.31728 -0.27634 0.18153 249 249 249
0.31721 -0.37973 0.18161 249 249 249
0.23479 -0.37967 0.18161 249 249 249
0.23486 -0.27628 0.18153 249 249 249
0.23486 -0.27628 0.18153 240 240 240
0.12376 0.12827 1.03397 154 154 119
0.12398 0.12846 0.93339 154 154 119
0.43515 0.12824 0.93339 154 154 119
0.43493 0.12806 1.03397 154 154 119
0.12352 -0.18291 1.03397 154 154 119
0.12373 -0.18274 0.93339 154 154 119
0.43469 -0.18313 1.03397 154 154 119
0.43489 -0.18296 0.93339 154 154 119
0.12398 0.12846 0.93339 202 202 156
0.12439 0.1288 0.72849 202 202 156
0.43556 0.12858 0.72916 202 202 156
0.43515 0.12824 0.93339 202 202 156
0.12373 -0.18274 0.93339 202 202 156
0.12418 -0.18236 0.72862 202 202 156
0.43489 -0.18296 0.93339 202 202 156
0.43534 -0.18258 0.72929 202 202 156
0.12542 -0.11232 0.4477 154 154 119
0.12525 -0.07322 0.34467 154 154 119
0.12498 0.23794 0.34467 154 154 119
0.12484 0.19879 0.4477 154 154 119
0.43659 -0.1124 0.4477 154 154 119
0.43642 -0.07335 0.34467 154 154 119
0.43615 0.2378 0.34467 154 154 119
0.43601 0.19869 0.4477 154 154 119
0.23118 -0.39112 2.21622 40 44 43
0.19043 -0.39112 2.21622 40 44 43
0.19043 -0.39112 2.29727 40 44 43
0.23118 -0.39112 2.29727 40 44 43
0.19043 -0.37859 2.21622 40 44 43
0.23118 -0.37859 2.21622 40 44 43
0.23118 -0.37859 2.29727 40 44 43
0.19043 -0.37859 2.29727 40 44 43
0.52481 -0.34627 2.48935 143 180 99
0.52481 0.3716 2.48935 143 180 99
0.52481 0.3716 1.22817 143 180 99
0.52481 -0.34627 1.22817 143 180 99
0.4564 -0.41624 1.22817 143 180 99
0.4564 -0.41624 2.48935 143 180 99
0.47233 -0.30079 2.54959 143 180 99
0.41076 -0.36376 2.54959 143 180 99
0.47233 0.32612 2.54959 143 180 99
0.41076 -0.36376 1.16862 143 180 99
-0.4564 -0.41624 1.22817 143 180 99
-0.41076 -0.36376 1.16862 143 180 99
0.47233 -0.30079 1.16862 143 180 99
0.47233 0.32612 1.16862 143 180 99
0.4564 0.44157 1.22817 143 180 99
0.4564 0.44157 2.48935 143 180 99
0.41076 0.38909 2.54959 143 180 99
-0.4564 0.44157 2.48935 143 180 99
-0.41076 0.38909 2.54959 143 180 99
0.41076 0.38909 1.16862 143 180 99
-0.4564 0.44157 1.22817 143 180 99
-0.41076 0.38909 1.16862 143 180 99
-0.47233 0.32612 1.16862 143 180 99
-0.52481 0.3716 2.48935 143 180 99
-0.52481 0.3716 1.22817 143 180 99
-0.47233 0.32612 2.54959 143 180 99
-0.47233 -0.30079 1.16862 143 180 99
-0.52481 -0.34627 1.22817 143 180 99
-0.52481 -0.34627 2.48935 143 180 99
-0.4564 -0.41624 2.48935 143 180 99
-0.47233 -0.30079 2.54959 143 180 99
-0.41076 -0.36376 2.54959 143 180 99
0.19072 -0.41624 2.28961 143 180 99
0.37281 -0.41624 2.28961 143 180 99
0.37261 -0.41624 2.15535 143 180 99
0.37281 -0.38164 2.28961 143 180 99
0.37261 -0.38164 2.15535 143 180 99
0.06902 -0.41624 2.15535 143 180 99
0.06902 -0.38164 2.15535 143 180 99
-0.19072 -0.41624 2.28961 143 180 99
-0.06902 -0.41624 2.15535 143 180 99
0.253 -0.38164 2.28961 143 180 99
-0.37304 -0.41624 2.15535 143 180 99
-0.37304 -0.38164 2.15535 143 180 99
-0.06902 -0.38164 2.15535 143 180 99
-0.37282 -0.38164 2.28961 143 180 99
-0.37282 -0.41624 2.28961 143 180 99
-0.253 -0.38164 2.28961 143 180 99
-0.19072 -0.38164 2.28961 143 180 99
-0.17012 -0.38164 2.26702 143 180 99
0.17012 -0.38164 2.26702 143 180 99
0.19072 -0.38164 2.28961 143 180 99
0.17013 -0.38164 2.18826 57 59 53
0.25265 -0.38164 2.18826 57 59 53
0.37261 -0.38164 2.15535 57 59 53
0.06902 -0.38164 2.15535 57 59 53
0.37281 -0.38164 2.28961 57 59 53
0.253 -0.38164 2.28961 57 59 53
0.17012 -0.38164 2.26702 57 59 53
0.41076 -0.36376 2.54959 151 190 104
-0.41076 -0.36376 2.54959 151 190 104
-0.47233 -0.30079 2.54959 151 190 104
0.47233 -0.30079 2.54959 151 190 104
0.47233 0.32612 2.54959 151 190 104
-0.47233 0.32612 2.54959 151 190 104
0.41076 0.38909 2.54959 151 190 104
-0.41076 0.38909 2.54959 151 190 104
0.19072 -0.38164 2.28961 255 255 255
0.253 -0.38164 2.28961 255 255 255
0.25265 -0.38164 2.18826 255 255 255
0.17013 -0.38164 2.18826 255 255 255
0.17012 -0.38164 2.26702 255 255 255
-0.19073 -0.37859 2.21622 40 44 43
-0.23118 -0.37859 2.21622 40 44 43
-0.23118 -0.39112 2.21622 40 44 43
-0.19073 -0.39112 2.21622 40 44 43
-0.23118 -0.37859 2.29727 40 44 43
-0.23118 -0.39112 2.29727 40 44 43
-0.19073 -0.39112 2.29727 40 44 43
-0.19073 -0.37859 2.29727 40 44 43
-0.17013 -0.38164 2.18826 57 59 53
-0.06902 -0.38164 2.15535 57 59 53
-0.37304 -0.38164 2.15535 57 59 53
-0.25265 -0.38164 2.18826 57 59 53
-0.37282 -0.38164 2.28961 57 59 53
-0.253 -0.38164 2.28961 57 59 53
-0.17012 -0.38164 2.26702 57 59 53
-0.19072 -0.38164 2.28961 255 255 255
-0.17012 -0.38164 2.26702 255 255 255
-0.17013 -0.38164 2.18826 255 255 255
-0.25265 -0.38164 2.18826 255 255 255
-0.253 -0.38164 2.28961 255 255 255
-0.55637 -0.10847 2.16754 151 190 104
-0.8401 -0.10714 1.72135 151 190 104
-0.55637 0.15408 2.16832 151 190 104
-0.96329 0.15599 1.52841 151 190 104
-0.96329 -0.10656 1.52762 151 190 104
-0.50913 0.1234 2.18544 151 190 104
-0.50913 -0.07789 2.18484 151 190 104
-0.55637 0.15408 2.16832 143 180 99
-0.96329 0.15599 1.52841 143 180 99
-0.74173 0.15641 1.38752 143 180 99
-0.33482 0.1545 2.02744 143 180 99
-0.33927 0.12372 2.07744 143 180 99
-0.50913 0.1234 2.18544 143 180 99
-0.33927 -0.07757 2.07683 143 180 99
-0.50913 -0.07789 2.18484 143 180 99
-0.33482 -0.10805 2.02666 143 180 99
-0.55637 -0.10847 2.16754 143 180 99
-0.61854 -0.10672 1.58047 143 180 99
-0.74173 -0.10614 1.38674 143 180 99
-0.786 0.12521 1.37604 143 180 99
-0.786 -0.07488 1.37544 143 180 99
-0.95484 0.12489 1.4834 143 180 99
-0.95484 -0.0752 1.4828 143 180 99
-0.96329 -0.10656 1.52762 143 180 99
-0.77513 -0.10625 1.42392 143 180 99
-0.68174 -0.10669 1.57078 143 180 99
-0.8401 -0.10714 1.72135 143 180 99
-0.82206 -0.10696 1.66001 143 180 99
-0.91545 -0.10652 1.51315 143 180 99
-0.82206 -0.10696 1.66001 202 202 156
-0.68174 -0.10669 1.57078 202 202 156
-0.68174 -0.21665 1.57042 202 202 156
-0.82206 -0.21692 1.65964 202 202 156
-0.77513 -0.10625 1.42392 202 202 156
-0.77513 -0.21621 1.42356 202 202 156
-0.91545 -0.21648 1.51279 202 202 156
-0.91545 -0.10652 1.51315 202 202 156
-0.91545 -0.10652 1.51315 210 210 162
-0.82206 -0.10696 1.66001 210 210 162
-0.82206 -0.21692 1.65964 210 210 162
-0.91545 -0.21648 1.51279 210 210 162
-0.37795 -0.51307 1.73437 143 180 99
-0.45602 -0.51154 1.61152 143 180 99
-0.45709 -0.64922 1.6118 143 180 99
-0.37903 -0.65075 1.73464 143 180 99
-0.5772 -0.51084 1.68974 143 180 99
-0.57775 -0.64853 1.68913 143 180 99
-0.61352 -0.5108 1.67661 143 180 99
-0.61352 -0.64849 1.6762 143 180 99
-0.63808 -0.51069 1.638 143 180 99
-0.63808 -0.64838 1.63758 143 180 99
-0.68001 -0.64912 1.88156 143 180 99
-0.7784 -0.64865 1.72681 143 180 99
-0.63327 -0.6491 1.89687 143 180 99
-0.77513 -0.51005 1.42247 143 180 99
-0.68174 -0.51049 1.56933 143 180 99
-0.81907 -0.54494 1.35387 143 180 99
-0.81855 -0.76189 1.35291 143 180 99
-0.63784 -0.76274 1.6371 143 180 99
-0.95939 -0.5452 1.4431 143 180 99
-0.9596 -0.91391 1.44212 143 180 99
-0.92642 -0.95546 1.4209 143 180 99
-0.79757 -0.79044 1.33949 143 180 99
-0.61685 -0.79131 1.62367 143 180 99
-0.49861 -0.79196 1.54853 143 180 99
-0.67926 -0.79114 1.2643 143 180 99
-0.68055 -0.9574 1.26464 143 180 99
-0.4999 -0.95823 1.54887 143 180 99
-0.80209 -0.50992 1.38006 143 180 99
-0.94241 -0.51019 1.46929 143 180 99
-0.82206 -0.51076 1.65856 143 180 99
-0.7784 -0.51096 1.72722 143 180 99
-0.68001 -0.51144 1.88197 143 180 99
-0.63273 -0.51141 1.89749 143 180 99
-0.84991 -0.71332 1.61416 151 190 104
-0.82206 -0.51076 1.65856 151 190 104
-0.7784 -0.51096 1.72722 151 190 104
-0.7784 -0.64865 1.72681 151 190 104
-0.91545 -0.51032 1.5117 151 190 104
-0.68001 -0.51144 1.88197 151 190 104
-0.68001 -0.64912 1.88156 151 190 104
-0.63273 -0.51141 1.89749 151 190 104
-0.63327 -0.6491 1.89687 151 190 104
-0.77888 -0.91475 1.72631 151 190 104
-0.9596 -0.91391 1.44212 151 190 104
-0.95939 -0.5452 1.4431 151 190 104
-0.74569 -0.95634 1.70508 151 190 104
-0.92642 -0.95546 1.4209 151 190 104
-0.4999 -0.95823 1.54887 151 190 104
-0.68055 -0.9574 1.26464 151 190 104
-0.37795 -0.51307 1.73437 151 190 104
-0.37903 -0.65075 1.73464 151 190 104
-0.94241 -0.51019 1.46929 151 190 104
-0.91545 -0.51032 1.5117 143 180 99
-0.77888 -0.91475 1.72631 143 180 99
-0.74569 -0.95634 1.70508 143 180 99
-0.82206 -0.21692 1.65964 154 154 119
-0.68174 -0.21665 1.57042 154 154 119
-0.68174 -0.26176 1.57028 154 154 119
-0.82206 -0.26202 1.65951 154 154 119
-0.91545 -0.21648 1.51279 154 154 119
-0.91545 -0.26158 1.51265 154 154 119
-0.77513 -0.21621 1.42356 154 154 119
-0.77513 -0.26132 1.42343 154 154 119
-0.82206 -0.26202 1.65951 202 202 156
-0.68174 -0.26176 1.57028 202 202 156
-0.68174 -0.35339 1.56987 202 202 156
-0.82206 -0.35366 1.6591 202 202 156
-0.77513 -0.26132 1.42343 202 202 156
-0.77513 -0.35295 1.42301 202 202 156
-0.91545 -0.35322 1.51224 202 202 156
-0.91545 -0.26158 1.51265 202 202 156
-0.91545 -0.26158 1.51265 210 210 162
-0.82206 -0.26202 1.65951 210 210 162
-0.82206 -0.35366 1.6591 210 210 162
-0.91545 -0.35322 1.51224 210 210 162
-0.82206 -0.35366 1.6591 154 154 119
-0.68174 -0.35339 1.56987 154 154 119
-0.68174 -0.40115 1.56973 154 154 119
-0.82206 -0.40141 1.65895 154 154 119
-0.91545 -0.35322 1.51224 154 154 119
-0.91545 -0.40097 1.5121 154 154 119
-0.77513 -0.35295 1.42301 154 154 119
-0.77513 -0.40071 1.42287 154 154 119
-0.82206 -0.40141 1.65895 202 202 156
-0.68174 -0.40115 1.56973 202 202 156
-0.68174 -0.51049 1.56933 202 202 156
-0.82206 -0.51076 1.65856 202 202 156
-0.77513 -0.40071 1.42287 202 202 156
-0.77513 -0.51005 1.42247 202 202 156
-0.91545 -0.51032 1.5117 202 202 156
-0.91545 -0.40097 1.5121 202 202 156
-0.91545 -0.40097 1.5121 210 210 162
-0.82206 -0.40141 1.65895 210 210 162
-0.82206 -0.51076 1.65856 210 210 162
-0.91545 -0.51032 1.5117 210 210 162
0.55637 -0.10847 2.16754 151 190 104
0.55637 0.15408 2.16832 151 190 104
0.8401 -0.10714 1.72135 151 190 104
0.96329 0.15599 1.52841 151 190 104
0.96329 -0.10656 1.52762 151 190 104
0.50913 0.1234 2.18544 151 190 104
0.50913 -0.07789 2.18484 151 190 104
0.55637 0.15408 2.16832 143 180 99
0.33482 0.1545 2.02744 143 180 99
0.74173 0.15641 1.38752 143 180 99
0.96329 0.15599 1.52841 143 180 99
0.33927 0.12372 2.07744 143 180 99
0.50913 0.1234 2.18544 143 180 99
0.33927 -0.07757 2.07683 143 180 99
0.50913 -0.07789 2.18484 143 180 99
0.33482 -0.10805 2.02666 143 180 99
0.55637 -0.10847 2.16754 143 180 99
0.61854 -0.10672 1.58047 143 180 99
0.74173 -0.10614 1.38674 143 180 99
0.786 0.12521 1.37604 143 180 99
0.786 -0.07488 1.37544 143 180 99
0.95484 0.12489 1.4834 143 180 99
0.95484 -0.0752 1.4828 143 180 99
0.96329 -0.10656 1.52762 143 180 99
0.77513 -0.10625 1.42392 143 180 99
0.68174 -0.10669 1.57078 143 180 99
0.8401 -0.10714 1.72135 143 180 99
0.82206 -0.10696 1.66001 143 180 99
0.91545 -0.10652 1.51315 143 180 99
0.82206 -0.10696 1.66001 202 202 156
0.82206 -0.18426 1.65975 202 202 156
0.68174 -0.184 1.57052 202 202 156
0.68174 -0.10669 1.57078 202 202 156
0.77513 -0.18357 1.42366 202 202 156
0.77513 -0.10625 1.42392 202 202 156
0.91545 -0.18383 1.51289 202 202 156
0.91545 -0.10652 1.51315 202 202 156
0.91545 -0.10652 1.51315 210 210 162
0.91545 -0.18383 1.51289 210 210 162
0.82206 -0.18426 1.65975 210 210 162
0.82206 -0.10696 1.66001 210 210 162
0.37795 -0.51307 1.73437 143 180 99
0.37903 -0.65075 1.73464 143 180 99
0.45709 -0.64922 1.6118 143 180 99
0.45602 -0.51154 1.61152 143 180 99
0.5772 -0.51084 1.68974 143 180 99
0.57775 -0.64853 1.68913 143 180 99
0.61352 -0.5108 1.67661 143 180 99
0.61352 -0.64849 1.6762 143 180 99
0.63808 -0.51069 1.638 143 180 99
0.63808 -0.64838 1.63758 143 180 99
0.68001 -0.64912 1.88156 143 180 99
0.7784 -0.64865 1.72681 143 180 99
0.63327 -0.6491 1.89687 143 180 99
0.77513 -0.51005 1.42247 143 180 99
0.68174 -0.51049 1.56933 143 180 99
0.81907 -0.54494 1.35387 143 180 99
0.81855 -0.76189 1.35291 143 180 99
0.63784 -0.76274 1.6371 143 180 99
0.95939 -0.5452 1.4431 143 180 99
0.9596 -0.91391 1.44212 143 180 99
0.92642 -0.95546 1.4209 143 180 99
0.79757 -0.79044 1.33949 143 180 99
0.61685 -0.79131 1.62367 143 180 99
0.49861 -0.79196 1.54853 143 180 99
0.67926 -0.79114 1.2643 143 180 99
0.68055 -0.9574 1.26464 143 180 99
0.4999 -0.95823 1.54887 143 180 99
0.80209 -0.50992 1.38006 143 180 99
0.94241 -0.51019 1.46929 143 180 99
0.82206 -0.51076 1.65856 143 180 99
0.7784 -0.51096 1.72722 143 180 99
0.68001 -0.51144 1.88197 143 180 99
0.63273 -0.51141 1.89749 143 180 99
0.84991 -0.71332 1.61416 151 190 104
0.7784 -0.64865 1.72681 151 190 104
0.7784 -0.51096 1.72722 151 190 104
0.82206 -0.51076 1.65856 151 190 104
0.91545 -0.51032 1.5117 151 190 104
0.68001 -0.51144 1.88197 151 190 104
0.68001 -0.64912 1.88156 151 190 104
0.63273 -0.51141 1.89749 151 190 104
0.63327 -0.6491 1.89687 151 190 104
0.77888 -0.91475 1.72631 151 190 104
0.9596 -0.91391 1.44212 151 190 104
0.95939 -0.5452 1.4431 151 190 104
0.74569 -0.95634 1.70508 151 190 104
0.92642 -0.95546 1.4209 151 190 104
0.4999 -0.95823 1.54887 151 190 104
0.68055 -0.9574 1.26464 151 190 104
0.37795 -0.51307 1.73437 151 190 104
0.37903 -0.65075 1.73464 151 190 104
0.94241 -0.51019 1.46929 151 190 104
0.91545 -0.51032 1.5117 143 180 99
0.77888 -0.91475 1.72631 143 180 99
0.74569 -0.95634 1.70508 143 180 99
0.82206 -0.18426 1.65975 154 154 119
0.82206 -0.26202 1.65951 154 154 119
0.68174 -0.26176 1.57028 154 154 119
0.68174 -0.184 1.57052 154 154 119
0.91545 -0.18383 1.51289 154 154 119
0.91545 -0.26158 1.51265 154 154 119
0.77513 -0.26132 1.42343 154 154 119
0.77513 -0.18357 1.42366 154 154 119
0.82206 -0.26202 1.65951 202 202 156
0.82206 -0.35366 1.6591 202 202 156
0.68174 -0.35339 1.56987 202 202 156
0.68174 -0.26176 1.57028 202 202 156
0.77513 -0.35295 1.42301 202 202 156
0.77513 -0.26132 1.42343 202 202 156
0.91545 -0.35322 1.51224 202 202 156
0.91545 -0.26158 1.51265 202 202 156
0.91545 -0.26158 1.51265 210 210 162
0.91545 -0.35322 1.51224 210 210 162
0.82206 -0.35366 1.6591 210 210 162
0.82206 -0.26202 1.65951 210 210 162
0.82206 -0.35366 1.6591 154 154 119
0.82206 -0.43406 1.65885 154 154 119
0.68174 -0.4338 1.56963 154 154 119
0.68174 -0.35339 1.56987 154 154 119
0.91545 -0.35322 1.51224 154 154 119
0.91545 -0.43363 1.51199 154 154 119
0.77513 -0.43337 1.42277 154 154 119
0.77513 -0.35295 1.42301 154 154 119
0.82206 -0.43406 1.65885 202 202 156
0.82206 -0.51076 1.65856 202 202 156
0.68174 -0.51049 1.56933 202 202 156
0.68174 -0.4338 1.56963 202 202 156
0.77513 -0.51005 1.42247 202 202 156
0.77513 -0.43337 1.42277 202 202 156
0.91545 -0.51032 1.5117 202 202 156
0.91545 -0.43363 1.51199 202 202 156
0.91545 -0.43363 1.51199 210 210 162
0.91545 -0.51032 1.5117 210 210 162
0.82206 -0.51076 1.65856 210 210 162
0.82206 -0.43406 1.65885 210 210 162
-0.12498 -0.01091 0.18125 202 202 156
-0.43614 -0.01114 0.18125 202 202 156
-0.43642 -0.07335 0.34467 202 202 156
-0.12525 -0.07322 0.34467 202 202 156
-0.1252 0.30025 0.18102 202 202 156
-0.12498 0.23794 0.34467 202 202 156
-0.12338 0.12795 1.21042 202 202 156
-0.43455 0.12773 1.21109 202 202 156
-0.43493 0.12806 1.03397 202 202 156
-0.12376 0.12827 1.03397 202 202 156
-0.12352 -0.18291 1.03397 202 202 156
-0.12316 -0.18321 1.21066 202 202 156
-0.43637 0.30003 0.18102 202 202 156
-0.43615 0.2378 0.34467 202 202 156
-0.12455 0.12879 0.63209 202 202 156
-0.12484 0.19879 0.4477 202 202 156
-0.12542 -0.11232 0.4477 202 202 156
-0.12572 -0.18264 0.63109 202 202 156
-0.43688 -0.18286 0.63176 202 202 156
-0.43659 -0.1124 0.4477 202 202 156
-0.43469 -0.18313 1.03397 202 202 156
-0.43433 -0.18343 1.21133 202 202 156
-0.12439 0.1288 0.72849 154 154 119
-0.43556 0.12858 0.72916 154 154 119
-0.43571 0.12857 0.63276 154 154 119
-0.12455 0.12879 0.63209 154 154 119
-0.43688 -0.18286 0.63176 154 154 119
-0.43534 -0.18258 0.72929 154 154 119
-0.12572 -0.18264 0.63109 154 154 119
-0.12418 -0.18236 0.72862 154 154 119
-0.43571 0.12857 0.63276 202 202 156
-0.43601 0.19869 0.4477 202 202 156
-0.18568 0.3674 0.18097 143 180 99
-0.37598 0.36726 0.18097 143 180 99
-0.37598 0.36713 0.00673 143 180 99
-0.18568 0.36726 0.00673 143 180 99
-0.43637 0.30003 0.18102 143 180 99
-0.43636 0.2999 0.00678 143 180 99
-0.1252 0.30012 0.00678 143 180 99
-0.1252 0.30025 0.18102 143 180 99
-0.12498 -0.01091 0.18125 143 180 99
-0.12281 -0.2762 0.18153 143 180 99
-0.12281 -0.27633 0.00729 143 180 99
-0.43614 -0.01114 0.18125 143 180 99
-0.43397 -0.27642 0.18153 143 180 99
-0.43397 -0.27655 0.00729 143 180 99
-0.34813 0.15153 0.00715 143 180 99
-0.35618 -0.2765 0.00729 143 180 99
-0.34751 0.28404 0.00693 143 180 99
-0.21267 0.28414 0.00693 143 180 99
-0.21329 0.15162 0.00715 143 180 99
-0.2006 -0.27639 0.00729 143 180 99
-0.31728 -0.27647 0.00729 143 180 99
-0.31728 -0.27634 0.18153 143 180 99
-0.35618 -0.27637 0.18153 143 180 99
-0.23486 -0.27641 0.00729 143 180 99
-0.2006 -0.27626 0.18153 143 180 99
-0.23486 -0.27628 0.18153 143 180 99
-0.2006 -0.27626 0.18153 151 190 104
-0.12498 -0.01091 0.18125 151 190 104
-0.12281 -0.2762 0.18153 151 190 104
-0.23486 -0.27628 0.18153 151 190 104
-0.43614 -0.01114 0.18125 151 190 104
-0.31728 -0.27634 0.18153 151 190 104
-0.35618 -0.27637 0.18153 151 190 104
-0.43397 -0.27642 0.18153 151 190 104
-0.21267 0.28414 0.00693 174 198 132
-0.34751 0.28404 0.00693 174 198 132
-0.34813 0.15153 0.00715 174 198 132
-0.21329 0.15162 0.00715 174 198 132
-0.1252 0.30025 0.18102 151 190 104
-0.43637 0.30003 0.18102 151 190 104
-0.37598 0.36726 0.18097 151 190 104
-0.18568 0.3674 0.18097 151 190 104
-0.10818 0.12435 0.02729 174 198 132
-0.14031 0.12436 0.02729 174 198 132
-0.14031 0.12436 0.1601 174 198 132
-0.10818 0.12435 0.1601 174 198 132
-0.14026 0.25716 0.1601 174 198 132
-0.10814 0.25715 0.1601 174 198 132
-0.10814 0.25715 0.02729 174 198 132
-0.14026 0.25716 0.02729 174 198 132
-0.4339 -0.37981 0.18161 240 240 240
-0.35611 -0.37976 0.18161 240 240 240
-0.35611 -0.37989 0.00737 240 240 240
-0.4339 -0.37994 0.00737 240 240 240
-0.35618 -0.2765 0.00729 240 240 240
-0.43397 -0.27655 0.00729 240 240 240
-0.43397 -0.27642 0.18153 240 240 240
-0.20052 -0.37978 0.00737 240 240 240
-0.20052 -0.37965 0.18161 240 240 240
-0.12273 -0.37959 0.18161 240 240 240
-0.12273 -0.37972 0.00737 240 240 240
-0.2006 -0.27639 0.00729 240 240 240
-0.2006 -0.27626 0.18153 240 240 240
-0.12281 -0.27633 0.00729 240 240 240
-0.31721 -0.37986 0.00737 240 240 240
-0.31721 -0.37973 0.18161 240 240 240
-0.23479 -0.37967 0.18161 240 240 240
-0.23479 -0.3798 0.00737 240 240 240
-0.31728 -0.27647 0.00729 240 240 240
-0.31728 -0.27634 0.18153 240 240 240
-0.23486 -0.27641 0.00729 240 240 240
-0.43397 -0.27642 0.18153 249 249 249
-0.35618 -0.27637 0.18153 249 249 249
-0.35611 -0.37976 0.18161 249 249 249
-0.4339 -0.37981 0.18161 249 249 249
-0.35618 -0.27637 0.18153 240 240 240
-0.2006 -0.27626 0.18153 249 249 249
-0.12281 -0.2762 0.18153 249 249 249
-0.12273 -0.37959 0.18161 249 249 249
-0.20052 -0.37965 0.18161 249 249 249
-0.12281 -0.2762 0.18153 240 240 240
-0.31728 -0.27634 0.18153 249 249 249
-0.23486 -0.27628 0.18153 249 249 249
-0.23479 -0.37967 0.18161 249 249 249
-0.31721 -0.37973 0.18161 249 249 249
-0.23486 -0.27628 0.18153 240 240 240
-0.12376 0.12827 1.03397 154 154 119
-0.43493 0.12806 1.03397 154 154 119
-0.43515 0.12824 0.93339 154 154 119
-0.12398 0.12846 0.93339 154 154 119
-0.12352 -0.18291 1.03397 154 154 119
-0.12373 -0.18274 0.93339 154 154 119
-0.43469 -0.18313 1.03397 154 154 119
-0.43489 -0.18296 0.93339 154 154 119
-0.12398 0.12846 0.93339 202 202 156
-0.43515 0.12824 0.93339 202 202 156
-0.43556 0.12858 0.72916 202 202 156
-0.12439 0.1288 0.72849 202 202 156
-0.12373 -0.18274 0.93339 202 202 156
-0.12418 -0.18236 0.72862 202 202 156
-0.43489 -0.18296 0.93339 202 202 156
-0.43534 -0.18258 0.72929 202 202 156
-0.12542 -0.11232 0.4477 154 154 119
-0.12484 0.19879 0.4477 154 154 119
-0.12498 0.23794 0.34467 154 154 119
-0.12525 -0.07322 0.34467 154 154 119
-0.43659 -0.1124 0.4477 154 154 119
-0.43642 -0.07335 0.34467 154 154 119
-0.43601 0.19869 0.4477 154 154 119
-0.43615 0.2378 0.34467 154 154 119
3 0 2 1
3 0 3 2
3 1 4 0
3 1 5 4
3 6 8 7
3 6 9 8
3 6 7 10
3 6 10 11
3 3 12 2
3 3 13 12
3 5 12 13
3 5 13 4
3 14 16 15
3 14 17 16
3 16 18 15
3 16 19 18
3 11 21 20
3 11 10 21
3 20 21 8
3 20 8 9
3 22 24 23
3 22 25 24
3 26 24 25
3 26 25 27
3 28 27 29
3 28 26 27
3 23 28 29
3 23 29 22
3 14 30 17
3 14 31 30
3 19 30 31
3 19 31 18
3 32 34 33
3 32 35 34
3 36 34 35
3 36 37 34
3 38 32 33
3 38 39 32
3 38 40 39
3 38 41 40
3 38 42 41
3 37 36 43
3 37 43 44
3 37 44 45
3 37 45 46
3 46 45 47
3 37 46 48
3 38 37 48
3 37 38 33
3 37 33 34
3 38 48 49
3 50 38 49
3 42 38 50
3 50 51 42
3 46 47 52
3 47 53 52
3 47 54 53
3 50 55 51
3 46 55 50
3 46 52 55
3 55 56 51
3 55 57 56
3 58 60 59
3 61 60 58
3 62 60 61
3 62 61 63
3 62 63 64
3 62 64 65
3 66 68 67
3 66 69 68
3 70 72 71
3 70 73 72
3 74 76 75
3 74 77 76
3 75 76 78
3 75 78 79
3 80 77 74
3 80 75 79
3 80 74 75
3 80 81 77
3 79 81 80
3 79 78 81
3 82 84 83
3 82 85 84
3 86 83 84
3 86 87 83
3 87 82 83
3 87 88 82
3 89 91 90
3 89 92 91
3 93 92 89
3 93 94 92
3 95 89 90
3 95 93 89
3 96 98 97
3 96 99 98
3 100 99 96
3 100 101 99
3 102 96 97
3 102 100 96
3 103 105 104
3 103 106 105
3 107 84 85
3 107 86 84
3 108 110 109
3 108 111 110
3 112 90 91
3 112 95 90
3 113 115 114
3 113 116 115
3 117 97 98
3 117 102 97
3 118 120 119
3 118 121 120
3 122 118 119
3 122 119 123
3 124 123 125
3 124 122 123
3 121 124 125
3 121 125 120
3 126 128 127
3 126 129 128
3 130 126 127
3 130 127 131
3 132 131 133
3 132 130 131
3 129 132 133
3 129 133 128
3 134 136 135
3 134 137 136
3 135 138 134
3 135 139 138
3 137 140 136
3 137 141 140
3 139 140 141
3 139 141 138
3 142 144 143
3 142 145 144
3 146 142 143
3 146 143 144
3 146 147 142
3 142 148 145
3 142 147 148
3 146 144 149
3 150 152 151
3 150 153 152
3 150 154 153
3 150 155 154
3 155 150 156
3 155 156 157
3 150 158 156
3 150 151 158
3 153 154 159
3 159 154 160
3 159 160 161
3 153 159 162
3 152 153 162
3 152 162 163
3 164 152 163
3 151 152 164
3 151 164 165
3 151 165 166
3 166 165 167
3 166 167 168
3 151 166 158
3 164 163 169
3 165 170 167
3 165 164 170
3 164 171 170
3 164 169 171
3 169 172 171
3 169 163 172
3 170 171 172
3 162 172 163
3 173 167 170
3 173 168 167
3 173 170 174
3 170 172 174
3 173 175 168
3 174 172 176
3 174 176 177
3 177 176 161
3 177 161 160
3 178 177 160
3 178 174 177
3 178 173 174
3 178 160 179
3 179 180 178
3 179 181 180
3 155 181 179
3 155 157 181
3 182 155 179
3 155 182 183
3 183 154 155
3 183 184 154
3 184 183 185
3 184 185 186
3 187 184 186
3 187 154 184
3 187 186 188
3 187 182 189
3 182 179 189
3 187 189 190
3 154 187 190
3 154 190 160
3 183 191 185
3 183 182 191
3 190 192 160
3 190 193 192
3 190 194 193
3 192 193 195
3 192 195 196
3 196 160 192
3 179 196 189
3 196 179 160
3 196 197 189
3 196 195 197
3 197 198 189
3 189 198 199
3 182 188 200
3 182 187 188
3 191 182 201
3 182 200 201
3 189 194 190
3 189 199 194
3 202 204 203
3 202 205 204
3 206 203 204
3 206 207 203
3 202 208 205
3 209 211 210
3 209 212 211
3 213 211 212
3 213 214 211
3 215 214 213
3 215 216 214
3 217 219 218
3 219 217 220
3 220 217 221
3 222 224 223
3 222 225 224
3 224 226 223
3 224 227 226
3 222 228 225
3 224 228 227
3 224 225 228
3 222 229 228
3 178 175 173
3 178 180 175
3 230 232 231
3 230 233 232
3 234 232 233
3 234 233 235
3 230 231 236
3 159 176 162
3 159 161 176
3 162 176 172
3 237 239 238
3 239 237 240
3 240 237 241
3 242 244 243
3 244 245 243
3 245 246 243
3 242 247 244
3 242 248 247
3 249 251 250
3 249 252 251
3 249 253 252
3 249 254 253
3 255 253 254
3 252 253 255
3 255 254 256
3 257 255 256
3 252 255 257
3 257 256 258
3 259 260 251
3 260 261 251
3 260 262 261
3 262 263 261
3 251 261 263
3 262 264 263
3 251 263 250
3 250 263 264
3 250 264 265
3 265 262 260
3 265 264 262
3 259 266 260
3 259 267 266
3 268 267 259
3 257 268 259
3 257 258 268
3 268 269 267
3 265 269 268
3 260 270 265
3 260 266 270
3 265 270 269
3 252 259 251
3 252 257 259
3 271 273 272
3 271 274 273
3 272 276 275
3 272 273 276
3 275 276 277
3 275 277 278
3 279 281 280
3 279 282 281
3 283 285 284
3 283 286 285
3 287 284 285
3 287 285 288
3 288 285 286
3 289 287 288
3 289 288 290
3 291 289 290
3 291 290 292
3 292 290 293
3 292 293 294
3 290 295 293
3 290 288 295
3 288 286 295
3 296 291 292
3 296 297 291
3 296 292 298
3 292 299 298
3 300 299 292
3 301 298 299
3 301 299 302
3 299 303 302
3 299 304 303
3 304 299 300
3 304 300 305
3 306 304 305
3 306 307 304
3 306 308 307
3 304 308 303
3 304 307 308
3 306 309 308
3 310 298 301
3 296 298 310
3 310 301 311
3 312 291 297
3 312 313 291
3 313 289 291
3 313 314 289
3 314 287 289
3 314 315 287
3 315 284 287
3 315 283 284
3 316 318 317
3 316 319 318
3 316 317 320
3 319 321 318
3 319 322 321
3 322 323 321
3 322 324 323
3 325 319 316
3 325 316 326
3 327 326 316
3 327 316 320
3 328 325 326
3 328 326 329
3 330 328 329
3 330 329 331
3 324 332 323
3 324 333 332
3 327 320 334
3 296 311 335
3 296 310 311
3 294 336 300
3 336 305 300
3 336 337 305
3 337 306 305
3 337 309 306
3 294 300 292
3 338 340 339
3 338 341 340
3 342 341 338
3 342 343 341
3 339 345 344
3 339 340 345
3 344 345 343
3 344 343 342
3 346 348 347
3 346 349 348
3 347 351 350
3 347 348 351
3 350 351 352
3 350 352 353
3 354 356 355
3 354 357 356
3 358 360 359
3 358 361 360
3 362 361 358
3 362 363 361
3 359 365 364
3 359 360 365
3 364 365 363
3 364 363 362
3 366 368 367
3 366 369 368
3 367 371 370
3 367 368 371
3 370 371 372
3 370 372 373
3 374 376 375
3 374 377 376
3 378 380 379
3 379 380 381
3 381 380 382
3 378 379 383
3 378 383 384
3 385 387 386
3 385 388 387
3 385 386 389
3 385 389 390
3 391 390 389
3 386 391 389
3 391 392 390
3 393 392 391
3 386 393 391
3 393 394 392
3 395 387 396
3 396 387 397
3 396 397 398
3 398 397 399
3 387 399 397
3 398 399 400
3 387 388 399
3 388 400 399
3 388 401 400
3 401 398 400
3 401 396 398
3 395 396 402
3 395 402 403
3 404 395 403
3 393 395 404
3 393 404 394
3 404 403 405
3 401 404 405
3 396 406 402
3 396 401 406
3 401 405 406
3 386 387 395
3 386 395 393
3 407 409 408
3 407 410 409
3 410 411 409
3 410 412 411
3 412 413 411
3 412 414 413
3 415 417 416
3 415 418 417
3 419 421 420
3 419 422 421
3 423 421 422
3 423 424 421
3 424 420 421
3 425 424 423
3 425 426 424
3 427 426 425
3 427 428 426
3 428 429 426
3 428 430 429
3 426 431 424
3 426 429 431
3 424 431 420
3 432 428 427
3 432 427 433
3 432 434 428
3 428 434 435
3 436 428 435
3 437 435 434
3 437 438 435
3 435 438 439
3 435 439 440
3 440 436 435
3 440 441 436
3 442 441 440
3 442 440 443
3 442 443 444
3 440 444 443
3 440 439 444
3 442 444 445
3 446 437 434
3 432 446 434
3 446 447 437
3 448 427 449
3 448 433 427
3 449 427 425
3 449 425 450
3 450 425 423
3 450 423 451
3 451 423 422
3 451 422 419
3 452 454 453
3 452 455 454
3 452 456 455
3 453 454 457
3 453 457 458
3 458 457 459
3 458 459 460
3 461 452 453
3 461 462 452
3 463 452 462
3 463 456 452
3 464 462 461
3 464 465 462
3 466 465 464
3 466 467 465
3 460 459 468
3 460 468 469
3 463 470 456
3 432 447 446
3 432 471 447
3 430 436 472
3 472 436 441
3 472 441 473
3 473 441 442
3 473 442 445
3 430 428 436
3 474 476 475
3 474 477 476
3 478 474 475
3 478 475 479
3 477 480 476
3 477 481 480
3 481 479 480
3 481 478 479
3 482 484 483
3 482 485 484
3 485 486 484
3 485 487 486
3 487 488 486
3 487 489 488
3 490 492 491
3 490 493 492
3 494 496 495
3 494 497 496
3 498 494 495
3 498 495 499
3 497 500 496
3 497 501 500
3 501 499 500
3 501 498 499
3 502 504 503
3 502 505 504
3 505 506 504
3 505 507 506
3 507 508 506
3 507 509 508
3 510 512 511
3 510 513 512
3 514 516 515
3 514 517 516
3 517 514 518
3 517 518 519
3 520 522 521
3 520 523 522
3 520 524 523
3 520 525 524
3 515 527 526
3 515 516 527
3 519 526 527
3 519 518 526
3 528 530 529
3 528 531 530
3 530 531 532
3 530 532 533
3 525 534 524
3 525 535 534
3 535 522 534
3 535 521 522
3 536 538 537
3 536 539 538
3 540 537 538
3 540 541 537
3 542 541 540
3 542 543 541
3 539 543 542
3 539 536 543
3 528 545 544
3 528 529 545
3 533 544 545
3 533 532 544
3 546 548 547
3 546 549 548
3 550 547 548
3 550 548 551
3 552 549 546
3 552 546 553
3 552 553 554
3 552 554 555
3 552 555 556
3 551 557 550
3 551 558 557
3 551 559 558
3 551 560 559
3 560 561 559
3 551 562 560
3 552 562 551
3 551 549 552
3 551 548 549
3 552 563 562
3 564 563 552
3 556 564 552
3 564 556 565
3 560 566 561
3 561 566 567
3 561 567 568
3 564 565 569
3 560 569 566
3 560 564 569
3 569 565 570
3 569 570 571
3 572 574 573
3 575 572 573
3 576 575 573
3 576 577 575
3 576 578 577
3 576 579 578
3 580 582 581
3 580 583 582
3 584 586 585
3 584 587 586
3 588 590 589
3 588 591 590
3 591 592 590
3 591 593 592
3 594 588 589
3 594 591 588
3 594 593 591
3 594 589 595
3 593 595 592
3 593 594 595
3 596 598 597
3 596 599 598
3 600 598 599
3 600 599 601
3 601 599 596
3 601 596 602
3 603 605 604
3 603 606 605
3 607 603 604
3 607 604 608
3 609 603 607
3 609 606 603
3 610 612 611
3 610 613 612
3 614 610 611
3 614 611 615
3 616 610 614
3 616 613 610
3 617 619 618
3 617 620 619
3 621 598 600
3 621 597 598
3 622 624 623
3 622 625 624
3 626 606 609
3 626 605 606
3 627 629 628
3 627 630 629
3 631 613 616
3 631 612 613
3 632 634 633
3 632 635 634
3 636 635 632
3 636 637 635
3 638 637 636
3 638 639 637
3 633 639 638
3 633 634 639
3 640 642 641
3 640 643 642
3 644 643 640
3 644 645 643
3 646 645 644
3 646 647 645
3 641 647 646
3 641 642 647
3 648 650 649
3 648 651 650
3 651 648 652
3 651 652 653
3 649 655 654
3 649 650 655
3 653 654 655
3 653 652 654
