ply
format ascii 1.0
element vertex 871
property float x
property float y
property float z
property uchar red
property uchar green
property uchar blue
element face 913
property list uchar int vertex_index
end_header
0.12994 -0.16118 0.12092 98 145 175
0.12994 -0.16118 0.26232 98 145 175
0.17812 -0.16104 0.12092 98 145 175
0.12994 0.16118 0.12092 98 145 175
0.12994 0.16118 0.26232 98 145 175
0.17812 0.08059 0.12092 98 145 175
0.40412 -0.16104 0.12092 98 145 175
0.45231 -0.16118 0.26232 98 145 175
0.45231 -0.16118 0.12092 98 145 175
0.40412 0.08059 0.12092 98 145 175
0.45231 0.16118 0.12092 98 145 175
0.37172 0.13226 0.12092 98 145 175
0.45231 0.16118 0.26232 98 145 175
0.21052 0.13226 0.12092 98 145 175
0.21052 0.13226 0.12092 234 139 110
0.21052 0.13226 4.76837E-09 234 139 110
0.37172 0.13226 4.76837E-09 234 139 110
0.37172 0.13226 0.12092 234 139 110
0.40412 0.08059 0.12092 234 139 110
0.40412 0.08059 4.76837E-09 234 139 110
0.17812 0.08059 4.76837E-09 234 139 110
0.17812 0.08059 0.12092 234 139 110
0.40412 -0.41591 4.76837E-09 234 139 110
0.40412 -0.41591 0.12092 234 139 110
0.40412 -0.16104 0.12092 234 139 110
0.37552 -0.45757 0.12092 234 139 110
0.37552 -0.45757 4.76837E-09 234 139 110
0.20673 -0.45757 4.76837E-09 234 139 110
0.20673 -0.45757 0.12092 234 139 110
0.17812 -0.41591 0.12092 234 139 110
0.17812 -0.41591 4.76837E-09 234 139 110
0.17812 -0.16104 0.12092 234 139 110
0.40412 -0.16104 0.12092 243 144 114
0.40412 -0.41591 0.12092 243 144 114
0.17812 -0.41591 0.12092 243 144 114
0.17812 -0.16104 0.12092 243 144 114
0.20673 -0.45757 0.12092 243 144 114
0.37552 -0.45757 0.12092 243 144 114
-0.12994 -0.16118 0.12092 98 145 175
-0.17812 -0.16104 0.12092 98 145 175
-0.12994 -0.16118 0.26232 98 145 175
-0.12994 0.16118 0.12092 98 145 175
-0.12994 0.16118 0.26232 98 145 175
-0.40412 -0.16104 0.12092 98 145 175
-0.45231 -0.16118 0.26232 98 145 175
-0.45231 -0.16118 0.12092 98 145 175
-0.40412 0.08059 0.12092 98 145 175
-0.45231 0.16118 0.12092 98 145 175
-0.37172 0.13226 0.12092 98 145 175
-0.45231 0.16118 0.26232 98 145 175
-0.21052 0.13226 0.12092 98 145 175
-0.17812 0.08059 0.12092 98 145 175
-0.21052 0.13226 0.12092 234 139 110
-0.37172 0.13226 0.12092 234 139 110
-0.37172 0.13226 4.76837E-09 234 139 110
-0.21052 0.13226 4.76837E-09 234 139 110
-0.17812 0.08059 0.12092 234 139 110
-0.17812 0.08059 4.76837E-09 234 139 110
-0.40412 0.08059 4.76837E-09 234 139 110
-0.40412 0.08059 0.12092 234 139 110
-0.37552 -0.45757 0.12092 234 139 110
-0.20673 -0.45757 0.12092 234 139 110
-0.20673 -0.45757 4.76837E-09 234 139 110
-0.37552 -0.45757 4.76837E-09 234 139 110
-0.17812 -0.41591 0.12092 234 139 110
-0.17812 -0.41591 4.76837E-09 234 139 110
-0.40412 -0.41591 4.76837E-09 234 139 110
-0.40412 -0.41591 0.12092 234 139 110
-0.40412 -0.16104 0.12092 234 139 110
-0.17812 -0.16104 0.12092 234 139 110
-0.40412 -0.16104 0.12092 243 144 114
-0.17812 -0.16104 0.12092 243 144 114
-0.17812 -0.41591 0.12092 243 144 114
-0.40412 -0.41591 0.12092 243 144 114
-0.20673 -0.45757 0.12092 243 144 114
-0.37552 -0.45757 0.12092 243 144 114
0.54468 -0.47206 1.4238 103 153 184
0.47368 -0.54468 1.4238 103 153 184
0 -0.54468 1.4238 103 153 184
0 -0.47206 1.4238 103 153 184
0.52631 -0.60521 1.35878 103 153 184
0.60521 -0.52451 1.35878 103 153 184
0.60521 -0.52451 0.31699 103 153 184
0.60521 0.52451 1.35878 103 153 184
0.60521 0.52451 0.31699 103 153 184
0.52631 -0.60521 0.31699 103 153 184
0.54468 0.47206 1.4238 103 153 184
0.47368 -0.54468 0.25277 103 153 184
0 -0.54468 0.25277 103 153 184
0 -0.47206 0.25277 103 153 184
0.54468 -0.47206 0.25277 103 153 184
0 -0.60521 0.31699 103 153 184
0.54468 0.47206 0.25277 103 153 184
0.52631 0.60521 0.31699 103 153 184
0.52631 0.60521 1.35878 103 153 184
0.47368 0.54468 1.4238 103 153 184
0 0.54468 1.4238 103 153 184
0 0.60521 1.35878 103 153 184
0.47368 0.54468 0.25277 103 153 184
0 0.47206 1.4238 103 153 184
0 0.54468 0.25277 103 153 184
0 0.47206 0.25277 103 153 184
0 0.60521 0.31699 103 153 184
-0.52631 0.60521 1.35878 103 153 184
-0.47368 0.54468 1.4238 103 153 184
-0.60521 0.52451 1.35878 103 153 184
-0.52631 0.60521 0.31699 103 153 184
-0.60521 0.52451 0.31699 103 153 184
-0.54468 0.47206 1.4238 103 153 184
-0.54468 0.47206 0.25277 103 153 184
-0.47368 0.54468 0.25277 103 153 184
-0.54468 -0.47206 0.25277 103 153 184
-0.47368 -0.54468 0.25277 103 153 184
-0.52631 -0.60521 0.31699 103 153 184
-0.60521 -0.52451 0.31699 103 153 184
-0.52631 -0.60521 1.35878 103 153 184
-0.60521 -0.52451 1.35878 103 153 184
-0.54468 -0.47206 1.4238 103 153 184
-0.47368 -0.54468 1.4238 103 153 184
-0.4018 -0.60521 1.00357 103 153 184
-0.4018 -0.60521 0.62441 103 153 184
0 -0.60521 1.35878 103 153 184
0 -0.60521 1.12526 103 153 184
0.17394 -0.60521 1.12526 103 153 184
-0.10816 -0.60521 1.12526 103 153 184
0.17394 -0.60521 1.04203 103 153 184
0.36344 -0.60521 1.04203 103 153 184
0.4018 -0.60521 1.00236 103 153 184
0.4018 -0.60521 0.62728 103 153 184
0.36179 -0.60521 0.58845 103 153 184
0.16225 -0.60521 0.58845 103 153 184
0 -0.60521 0.58845 103 153 184
-0.16225 -0.60521 0.58845 103 153 184
-0.35789 -0.60521 0.58845 103 153 184
-0.10816 -0.60521 1.08084 103 153 184
-0.1526 -0.60521 1.04203 103 153 184
-0.36558 -0.60521 1.04203 103 153 184
0.17394 -0.60521 1.04203 75 72 71
0 -0.60521 1.04203 75 72 71
0 -0.60521 1.12526 75 72 71
0.17394 -0.60521 1.12526 75 72 71
0.16225 -0.60521 0.67027 75 72 71
0.36344 -0.60521 1.04203 75 72 71
0 -0.60521 0.67027 75 72 71
0.16225 -0.60521 0.58845 75 72 71
0 -0.60521 0.58845 75 72 71
0.36179 -0.60521 0.58845 75 72 71
0.4018 -0.60521 0.62728 75 72 71
-0.10816 -0.60521 1.08084 75 72 71
-0.10816 -0.60521 1.12526 75 72 71
-0.16225 -0.60521 0.58845 75 72 71
-0.16225 -0.60521 0.67027 75 72 71
-0.1526 -0.60521 1.04203 75 72 71
-0.4018 -0.60521 0.62441 75 72 71
-0.35789 -0.60521 0.58845 75 72 71
-0.4018 -0.60521 1.00357 75 72 71
0.4018 -0.60521 1.00236 75 72 71
-0.36558 -0.60521 1.04203 75 72 71
0.17744 -0.63231 0.83028 56 54 53
0.17744 -0.63231 0.8723 56 54 53
0.21947 -0.63231 0.8723 56 54 53
0.21947 -0.63231 0.83028 56 54 53
0.07956 -0.63231 0.96613 243 241 244
0.07956 -0.59867 0.96613 243 241 244
0.31735 -0.59867 0.96613 243 241 244
0.31735 -0.63231 0.96613 243 241 244
0.31735 -0.63231 0.72834 243 241 244
0.31735 -0.59867 0.72834 243 241 244
0.07956 -0.59867 0.72834 243 241 244
0.07956 -0.63231 0.72834 243 241 244
0.21947 -0.63231 0.83028 243 241 244
0.17744 -0.63231 0.83028 243 241 244
0.21947 -0.63231 0.8723 243 241 244
0.17744 -0.63231 0.8723 243 241 244
-0.17744 -0.63231 0.83028 56 54 53
-0.21947 -0.63231 0.83028 56 54 53
-0.21947 -0.63231 0.8723 56 54 53
-0.17744 -0.63231 0.8723 56 54 53
-0.07956 -0.63231 0.96613 243 241 244
-0.31735 -0.63231 0.96613 243 241 244
-0.31735 -0.59867 0.96613 243 241 244
-0.07956 -0.59867 0.96613 243 241 244
-0.31735 -0.63231 0.72834 243 241 244
-0.31735 -0.59867 0.72834 243 241 244
-0.07956 -0.59867 0.72834 243 241 244
-0.07956 -0.63231 0.72834 243 241 244
-0.21947 -0.63231 0.83028 243 241 244
-0.17744 -0.63231 0.83028 243 241 244
-0.21947 -0.63231 0.8723 243 241 244
-0.17744 -0.63231 0.8723 243 241 244
0.34832 -0.16454 1.41712 99 147 177
0.34832 -0.16454 1.58201 99 147 177
0.51321 -0.16454 1.58201 99 147 177
0.51321 -0.16454 1.41712 99 147 177
0.51321 0.32751 1.58201 99 147 177
0.51321 0.32751 1.41712 99 147 177
0.34832 0.1977 1.58201 99 147 177
0.34832 0.1977 1.41712 99 147 177
-0.3212 0.1977 1.58201 99 147 177
-0.3212 0.1977 1.41712 99 147 177
-0.36621 0.2365 1.58201 99 147 177
-0.36621 0.2365 1.41712 99 147 177
-0.36621 0.7287 1.58201 99 147 177
-0.36621 0.53215 1.41712 99 147 177
-0.36621 0.77551 1.5325 99 147 177
-0.36621 0.77551 1.03379 99 147 177
-0.36621 0.53215 1.03379 99 147 177
-0.51615 0.77551 1.03379 99 147 177
-0.51615 0.53215 1.03379 99 147 177
-0.51615 0.77551 0.87459 99 147 177
-0.51615 0.53215 0.87459 99 147 177
-0.2446 0.77551 0.87459 99 147 177
-0.2446 0.53215 0.87459 99 147 177
-0.20907 0.53215 0.90841 99 147 177
-0.20907 0.77551 0.90841 99 147 177
-0.20907 0.77551 1.5325 99 147 177
-0.20907 0.53215 1.41712 99 147 177
-0.20907 0.7287 1.58201 99 147 177
-0.20907 0.35594 1.58201 99 147 177
-0.20907 0.35594 1.41712 99 147 177
0.48381 0.35594 1.58201 99 147 177
0.48381 0.35594 1.41712 99 147 177
0.34832 -0.16454 1.58201 111 163 195
0.34832 0.1977 1.58201 111 163 195
0.51321 0.32751 1.58201 111 163 195
0.51321 -0.16454 1.58201 111 163 195
-0.3212 0.1977 1.58201 111 163 195
-0.20907 0.35594 1.58201 111 163 195
0.48381 0.35594 1.58201 111 163 195
-0.36621 0.2365 1.58201 111 163 195
-0.20907 0.7287 1.58201 111 163 195
-0.36621 0.7287 1.58201 111 163 195
-0.36621 0.77551 1.5325 111 163 195
-0.20907 0.77551 1.5325 111 163 195
-0.20907 0.77551 0.90841 111 163 195
-0.36621 0.77551 1.03379 111 163 195
-0.2446 0.77551 0.87459 111 163 195
-0.51615 0.77551 0.87459 111 163 195
-0.51615 0.77551 1.03379 111 163 195
0.6926 0.45215 0.122 111 163 195
0.6926 0.28726 0.122 111 163 195
0.74401 0.28726 0.17362 111 163 195
0.74401 0.45215 0.17362 111 163 195
0.74401 0.45215 0.83341 111 163 195
0.74401 0.28726 0.71475 111 163 195
0.74401 0.41581 0.873 111 163 195
0.41952 0.28726 0.122 111 163 195
0.41952 0.45215 0.122 111 163 195
0.74401 0.135 0.873 111 163 195
0.74401 0.02227 0.71475 111 163 195
0.74401 -0.02214 0.75236 111 163 195
0.74401 0.135 1.21484 111 163 195
0.74401 -0.02214 1.08629 111 163 195
0.74401 0.09949 1.25402 111 163 195
0.74401 -0.17757 1.08629 111 163 195
0.74401 -0.17757 1.25402 111 163 195
0.57912 0.41581 0.873 99 147 177
0.57912 0.45215 0.83341 99 147 177
0.74401 0.45215 0.83341 99 147 177
0.74401 0.41581 0.873 99 147 177
0.57912 0.135 0.873 99 147 177
0.74401 0.135 0.873 99 147 177
0.57912 0.135 1.21484 99 147 177
0.74401 0.135 1.21484 99 147 177
0.74401 0.09949 1.25402 99 147 177
0.57912 0.09949 1.25402 99 147 177
0.57912 -0.17757 1.25402 99 147 177
0.74401 -0.17757 1.25402 99 147 177
0.74401 0.45215 0.17362 99 147 177
0.57912 0.45215 0.29972 99 147 177
0.6926 0.45215 0.122 99 147 177
0.41952 0.45215 0.122 99 147 177
0.41952 0.45215 0.29972 99 147 177
0.41952 0.28726 0.29972 99 147 177
0.41952 0.28726 0.122 99 147 177
0.74401 -0.02214 0.75236 99 147 177
0.74401 0.02227 0.71475 99 147 177
0.57912 0.02227 0.71475 99 147 177
0.57912 -0.02214 0.75236 99 147 177
0.57912 0.28726 0.71475 99 147 177
0.74401 0.28726 0.71475 99 147 177
0.57912 0.28726 0.29972 99 147 177
0.74401 0.28726 0.17362 99 147 177
0.74401 -0.02214 1.08629 99 147 177
0.57912 -0.02214 1.08629 99 147 177
0.74401 -0.17757 1.08629 99 147 177
0.57912 -0.17757 1.08629 99 147 177
0.6926 0.28726 0.122 99 147 177
0.53882 -0.38401 0.97719 99 147 177
0.70371 -0.38401 0.97719 99 147 177
0.70371 -0.21912 0.97719 99 147 177
0.53882 -0.21912 0.97719 99 147 177
0.70371 -0.21912 1.50824 99 147 177
0.53882 -0.21912 1.4046 99 147 177
0.64731 -0.21912 1.56285 99 147 177
0.27364 -0.21912 1.4046 99 147 177
0.27364 -0.21912 1.56284 99 147 177
0.27364 0.07264 1.4046 99 147 177
0.27364 0.07264 1.56284 99 147 177
0.10794 0.07264 1.4046 99 147 177
0.10794 0.07264 1.56284 99 147 177
0.10794 -0.34289 1.4046 99 147 177
0.10794 -0.34289 1.56284 99 147 177
0.70371 -0.38401 0.97719 111 163 195
0.70371 -0.38401 1.50824 111 163 195
0.70371 -0.21912 1.50824 111 163 195
0.70371 -0.21912 0.97719 111 163 195
0.64731 -0.21912 1.56285 111 163 195
0.64731 -0.38401 1.56285 111 163 195
0.27364 -0.21912 1.56284 111 163 195
0.14711 -0.38401 1.56284 111 163 195
0.10794 -0.34289 1.56284 111 163 195
0.27364 0.07264 1.56284 111 163 195
0.10794 0.07264 1.56284 111 163 195
0.70371 -0.38401 1.50824 99 147 177
0.53882 -0.38401 1.4046 99 147 177
0.64731 -0.38401 1.56285 99 147 177
0.14711 -0.38401 1.56284 99 147 177
0.14711 -0.38401 1.4046 99 147 177
0.74401 -0.4328 0.41082 99 147 177
0.74401 -0.39378 0.3707 99 147 177
0.57912 -0.39378 0.3707 99 147 177
0.57912 -0.4328 0.41082 99 147 177
0.74401 0.14217 0.3707 99 147 177
0.57912 0.14217 0.3707 99 147 177
0.74401 -0.4328 0.8613 99 147 177
0.57912 -0.4328 0.8613 99 147 177
0.57912 -0.39378 0.89811 99 147 177
0.74401 -0.39378 0.89811 99 147 177
0.74401 -0.11601 0.89811 99 147 177
0.57912 -0.11601 0.89811 99 147 177
0.74401 0.14217 0.52894 99 147 177
0.57912 0.14217 0.52894 99 147 177
0.74401 -0.27566 0.52894 99 147 177
0.57912 -0.27566 0.52894 99 147 177
0.57912 -0.27566 0.74543 99 147 177
0.74401 -0.27566 0.74543 99 147 177
0.57912 -0.11601 0.74543 99 147 177
0.74401 -0.11601 0.74543 99 147 177
0.74401 0.14217 0.52894 111 163 195
0.74401 0.14217 0.3707 111 163 195
0.74401 -0.39378 0.3707 111 163 195
0.74401 -0.27566 0.52894 111 163 195
0.74401 -0.4328 0.41082 111 163 195
0.74401 -0.27566 0.74543 111 163 195
0.74401 -0.4328 0.8613 111 163 195
0.74401 -0.39378 0.89811 111 163 195
0.74401 -0.11601 0.89811 111 163 195
0.74401 -0.11601 0.74543 111 163 195
0.67682 0.7129 1.30028 99 147 177
0.74401 0.64759 1.30028 99 147 177
0.57912 0.5442 1.30028 99 147 177
0.57912 0.25549 1.30028 99 147 177
0.74401 0.25549 1.30028 99 147 177
0.31182 0.7129 1.30028 99 147 177
0.31182 0.5442 1.30028 99 147 177
0.31182 0.7129 1.4985 99 147 177
0.31182 0.5442 1.406 99 147 177
0.74401 0.2229 1.2701 99 147 177
0.57912 0.2229 1.2701 99 147 177
0.57912 0.2229 0.9656 99 147 177
0.74401 0.2229 0.9656 99 147 177
0.31182 0.6641 1.55701 99 147 177
0.31182 0.42229 1.55701 99 147 177
0.31182 0.42229 1.406 99 147 177
0.1669 0.42229 1.406 99 147 177
0.1669 0.42229 1.55701 99 147 177
0.1669 0.6641 1.55701 99 147 177
0.1669 0.5442 1.406 99 147 177
0.1669 0.7129 1.4985 99 147 177
0.1669 0.7129 1.17252 99 147 177
0.1669 0.5442 1.17252 99 147 177
0.19759 0.7129 1.14315 99 147 177
0.19759 0.5442 1.14315 99 147 177
0.67682 0.7129 1.14315 99 147 177
0.57912 0.5442 1.14315 99 147 177
0.74401 0.64759 1.14315 99 147 177
0.74401 0.38729 1.14315 99 147 177
0.57912 0.38729 1.14315 99 147 177
0.74401 0.38729 0.9656 99 147 177
0.57912 0.38729 0.9656 99 147 177
0.67682 0.7129 1.14315 111 163 195
0.74401 0.64759 1.14315 111 163 195
0.74401 0.64759 1.30028 111 163 195
0.67682 0.7129 1.30028 111 163 195
0.74401 0.25549 1.30028 111 163 195
0.74401 0.38729 1.14315 111 163 195
0.19759 0.7129 1.14315 111 163 195
0.31182 0.7129 1.30028 111 163 195
0.1669 0.7129 1.17252 111 163 195
0.1669 0.7129 1.4985 111 163 195
0.31182 0.7129 1.4985 111 163 195
0.1669 0.6641 1.55701 111 163 195
0.31182 0.6641 1.55701 111 163 195
0.1669 0.42229 1.55701 111 163 195
0.31182 0.42229 1.55701 111 163 195
0.74401 0.38729 0.9656 111 163 195
0.74401 0.2229 0.9656 111 163 195
0.74401 0.2229 1.2701 111 163 195
-0.06376 0.76177 0.69594 99 147 177
-0.09762 0.76177 0.72532 99 147 177
-0.09762 0.59688 0.72532 99 147 177
-0.06376 0.59688 0.69594 99 147 177
-0.09762 0.76177 1.36481 99 147 177
-0.09762 0.59688 1.36481 99 147 177
0.06062 0.59688 1.33944 99 147 177
0.06062 0.76177 1.33944 99 147 177
0.06062 0.76177 0.85308 99 147 177
0.06062 0.59688 0.85308 99 147 177
0.41816 0.76177 0.69594 99 147 177
0.41816 0.59688 0.69594 99 147 177
0.29717 0.59688 0.85308 99 147 177
0.29717 0.76177 0.85308 99 147 177
0.44985 0.59688 0.72786 99 147 177
0.44985 0.76177 0.72786 99 147 177
0.29717 0.59688 1.04597 99 147 177
0.29717 0.76177 1.04597 99 147 177
0.44985 0.59688 1.04597 99 147 177
0.44985 0.76177 1.04597 99 147 177
0.06062 0.76177 1.33944 111 163 195
-0.09762 0.76177 1.36481 111 163 195
-0.09762 0.76177 0.72532 111 163 195
0.06062 0.76177 0.85308 111 163 195
-0.06376 0.76177 0.69594 111 163 195
0.29717 0.76177 0.85308 111 163 195
0.41816 0.76177 0.69594 111 163 195
0.44985 0.76177 0.72786 111 163 195
0.29717 0.76177 1.04597 111 163 195
0.44985 0.76177 1.04597 111 163 195
-0.20437 0.5555 0.79081 99 147 177
-0.20437 0.72039 0.79081 99 147 177
-0.20437 0.72039 0.62592 99 147 177
-0.20437 0.5555 0.62592 99 147 177
-0.65729 0.72039 0.62592 99 147 177
-0.55366 0.5555 0.62592 99 147 177
-0.7119 0.66399 0.62592 99 147 177
-0.65729 0.72039 0.79081 99 147 177
-0.55366 0.5555 0.79081 99 147 177
-0.7119 0.66399 0.79081 99 147 177
-0.55366 0.43804 0.62592 99 147 177
-0.7119 0.43804 0.62592 99 147 177
-0.7119 0.29996 0.79081 99 147 177
-0.55366 0.29996 0.79081 99 147 177
-0.55366 0.27234 0.76316 99 147 177
-0.7119 0.27234 0.76316 99 147 177
-0.55366 0.43804 0.27333 99 147 177
-0.7119 0.43804 0.14114 99 147 177
-0.7119 0.27234 0.14114 99 147 177
-0.55366 0.27234 0.27333 99 147 177
-0.66498 0.43804 0.09795 99 147 177
-0.66498 0.27234 0.09795 99 147 177
-0.16085 0.27234 0.09795 99 147 177
-0.16085 0.27234 0.27333 99 147 177
-0.16085 0.43804 0.27333 99 147 177
-0.16085 0.43804 0.09795 99 147 177
-0.20437 0.72039 0.79081 111 163 195
-0.65729 0.72039 0.79081 111 163 195
-0.65729 0.72039 0.62592 111 163 195
-0.20437 0.72039 0.62592 111 163 195
-0.7119 0.66399 0.62592 111 163 195
-0.7119 0.66399 0.79081 111 163 195
-0.7119 0.29996 0.79081 111 163 195
-0.7119 0.43804 0.62592 111 163 195
-0.7119 0.27234 0.76316 111 163 195
-0.7119 0.43804 0.14114 111 163 195
-0.7119 0.27234 0.14114 111 163 195
-0.66498 0.27234 0.09795 111 163 195
-0.66498 0.43804 0.09795 111 163 195
-0.16085 0.27234 0.09795 111 163 195
-0.16085 0.43804 0.09795 111 163 195
-0.7119 -0.06553 1.50647 99 147 177
-0.66256 -0.06553 1.5636 99 147 177
-0.55366 -0.06553 1.39871 99 147 177
-0.7119 -0.06553 0.98169 99 147 177
-0.55366 -0.06553 0.98169 99 147 177
-0.12616 -0.06553 1.39871 99 147 177
-0.12616 -0.06553 1.5636 99 147 177
-0.55366 -0.02912 0.95405 99 147 177
-0.7119 -0.02912 0.95405 99 147 177
-0.7119 0.40772 0.95405 99 147 177
-0.55366 0.40772 0.95405 99 147 177
-0.12616 0.10017 1.39871 99 147 177
-0.12616 0.10017 1.5636 99 147 177
-0.55366 0.10017 1.39871 99 147 177
-0.66256 0.10017 1.5636 99 147 177
-0.7119 0.10017 1.50647 99 147 177
-0.55366 0.10017 1.12505 99 147 177
-0.7119 0.10017 1.12505 99 147 177
-0.55366 0.27755 1.12505 99 147 177
-0.7119 0.27755 1.12505 99 147 177
-0.7119 -0.06553 1.50647 111 163 195
-0.7119 0.10017 1.50647 111 163 195
-0.66256 0.10017 1.5636 111 163 195
-0.66256 -0.06553 1.5636 111 163 195
-0.7119 0.10017 1.12505 111 163 195
-0.7119 -0.06553 0.98169 111 163 195
-0.12616 -0.06553 1.5636 111 163 195
-0.12616 0.10017 1.5636 111 163 195
-0.7119 -0.02912 0.95405 111 163 195
-0.7119 0.40772 0.95405 111 163 195
-0.7119 0.27755 1.12505 111 163 195
-0.7119 0.44525 0.98873 111 163 195
-0.7119 0.27755 1.34874 111 163 195
-0.7119 0.44525 1.34874 111 163 195
-0.7119 0.44525 0.98873 99 147 177
-0.55366 0.44525 0.98873 99 147 177
-0.7119 0.44525 1.34874 99 147 177
-0.55366 0.44525 1.34874 99 147 177
-0.7119 0.27755 1.34874 99 147 177
-0.55366 0.27755 1.34874 99 147 177
-0.7119 -0.33717 1.50647 99 147 177
-0.66256 -0.33717 1.5636 99 147 177
-0.55366 -0.33717 1.39871 99 147 177
-0.7119 -0.33717 1.00332 99 147 177
-0.55366 -0.33717 1.00332 99 147 177
-0.46 -0.33717 1.39871 99 147 177
-0.46 -0.33717 1.5636 99 147 177
-0.46 -0.52178 1.39871 99 147 177
-0.46 -0.52178 1.5636 99 147 177
-0.27915 -0.52178 1.39871 99 147 177
-0.27915 -0.52178 1.5636 99 147 177
-0.7119 -0.70231 1.00332 99 147 177
-0.55366 -0.56311 1.00332 99 147 177
-0.66148 -0.74763 1.00332 99 147 177
-0.40179 -0.74763 1.00332 99 147 177
-0.40179 -0.56311 1.00332 99 147 177
-0.40179 -0.56311 0.83232 99 147 177
-0.40179 -0.74763 0.83232 99 147 177
-0.66148 -0.74763 0.83232 99 147 177
-0.55366 -0.56311 0.83232 99 147 177
-0.7119 -0.70231 0.83232 99 147 177
-0.7119 -0.20261 0.83232 99 147 177
-0.55366 -0.20261 0.83232 99 147 177
-0.7119 -0.33717 1.50647 111 163 195
-0.7119 -0.17148 1.50647 111 163 195
-0.66256 -0.17148 1.5636 111 163 195
-0.66256 -0.33717 1.5636 111 163 195
-0.7119 -0.17148 0.86787 111 163 195
-0.7119 -0.33717 1.00332 111 163 195
-0.46 -0.33717 1.5636 111 163 195
-0.31191 -0.17148 1.5636 111 163 195
-0.7119 -0.20261 0.83232 111 163 195
-0.7119 -0.70231 0.83232 111 163 195
-0.7119 -0.70231 1.00332 111 163 195
-0.66148 -0.74763 0.83232 111 163 195
-0.66148 -0.74763 1.00332 111 163 195
-0.40179 -0.74763 0.83232 111 163 195
-0.40179 -0.74763 1.00332 111 163 195
-0.27915 -0.20314 1.5636 111 163 195
-0.46 -0.52178 1.5636 111 163 195
-0.27915 -0.52178 1.5636 111 163 195
-0.7119 -0.17148 1.50647 99 147 177
-0.7119 -0.17148 0.86787 99 147 177
-0.55366 -0.17148 0.86787 99 147 177
-0.55366 -0.17148 1.39871 99 147 177
-0.66256 -0.17148 1.5636 99 147 177
-0.31191 -0.17148 1.5636 99 147 177
-0.31191 -0.17148 1.39871 99 147 177
-0.27915 -0.20314 1.39871 99 147 177
-0.27915 -0.20314 1.5636 99 147 177
0.53882 -0.44059 1.04042 99 147 177
0.70371 -0.44059 1.04042 99 147 177
0.70371 -0.44059 1.20531 99 147 177
0.53882 -0.44059 1.20531 99 147 177
0.70371 -0.66723 1.20531 99 147 177
0.53882 -0.5636 1.20531 99 147 177
0.70371 -0.66723 1.04042 99 147 177
0.53882 -0.5636 1.04042 99 147 177
0.64731 -0.72184 1.20531 99 147 177
0.26886 -0.5636 1.20531 99 147 177
0.26886 -0.72184 1.20531 99 147 177
0.26886 -0.5636 1.52392 99 147 177
0.26886 -0.72184 1.52392 99 147 177
0.10316 -0.5636 1.52392 99 147 177
0.10316 -0.72184 1.52392 99 147 177
0.10316 -0.5636 1.08184 99 147 177
0.10316 -0.72184 1.08184 99 147 177
0.15273 -0.72184 1.04042 99 147 177
0.15273 -0.5636 1.04042 99 147 177
0.64731 -0.72184 1.04042 99 147 177
0.70371 -0.44059 1.04042 111 163 195
0.70371 -0.66723 1.04042 111 163 195
0.70371 -0.66723 1.20531 111 163 195
0.70371 -0.44059 1.20531 111 163 195
0.64731 -0.72184 1.20531 111 163 195
0.64731 -0.72184 1.04042 111 163 195
0.26886 -0.72184 1.20531 111 163 195
0.15273 -0.72184 1.04042 111 163 195
0.10316 -0.72184 1.08184 111 163 195
0.26886 -0.72184 1.52392 111 163 195
0.10316 -0.72184 1.52392 111 163 195
-0.02774 -0.14437 1.38113 99 147 177
-0.02774 -0.14437 1.54602 99 147 177
-0.19263 -0.14437 1.54602 99 147 177
-0.19263 -0.14437 1.38113 99 147 177
-0.19263 -0.66723 1.54602 99 147 177
-0.19263 -0.5636 1.38113 99 147 177
-0.02774 -0.66723 1.54602 99 147 177
-0.02774 -0.5636 1.38113 99 147 177
-0.19263 -0.72184 1.48962 99 147 177
-0.19263 -0.5636 1.3423 99 147 177
-0.19263 -0.72184 1.3423 99 147 177
-0.6637 -0.5636 1.3423 99 147 177
-0.6637 -0.72184 1.3423 99 147 177
-0.02774 -0.72184 1.48962 99 147 177
-0.02774 -0.72184 1.2154 99 147 177
-0.02774 -0.5636 1.2154 99 147 177
-0.07135 -0.5636 1.1766 99 147 177
-0.07135 -0.72184 1.1766 99 147 177
-0.6637 -0.72184 1.1766 99 147 177
-0.6637 -0.5636 1.1766 99 147 177
-0.02774 -0.14437 1.54602 111 163 195
-0.02774 -0.66723 1.54602 111 163 195
-0.19263 -0.66723 1.54602 111 163 195
-0.19263 -0.14437 1.54602 111 163 195
-0.19263 -0.72184 1.48962 111 163 195
-0.02774 -0.72184 1.48962 111 163 195
-0.19263 -0.72184 1.3423 111 163 195
-0.02774 -0.72184 1.2154 111 163 195
-0.07135 -0.72184 1.1766 111 163 195
-0.6637 -0.72184 1.3423 111 163 195
-0.6637 -0.72184 1.1766 111 163 195
-0.21973 -0.27558 0.3218 99 147 177
-0.21973 -0.27558 0.15691 99 147 177
-0.21973 -0.44047 0.15691 99 147 177
-0.21973 -0.44047 0.3218 99 147 177
-0.67265 -0.44047 0.15691 99 147 177
-0.56902 -0.44047 0.3218 99 147 177
-0.72726 -0.44047 0.21331 99 147 177
-0.56901 -0.44047 0.55245 99 147 177
-0.72726 -0.44047 0.55245 99 147 177
-0.56901 -0.54933 0.55245 99 147 177
-0.72726 -0.65031 0.55245 99 147 177
-0.67486 -0.69867 0.55245 99 147 177
-0.40163 -0.54933 0.55245 99 147 177
-0.40163 -0.69867 0.55245 99 147 177
-0.40163 -0.69867 0.71814 99 147 177
-0.40163 -0.54933 0.71814 99 147 177
-0.56901 -0.54933 0.71814 99 147 177
-0.67486 -0.69867 0.71814 99 147 177
-0.72726 -0.65031 0.71814 99 147 177
-0.56901 -0.30998 0.71814 99 147 177
-0.72726 -0.30998 0.71814 99 147 177
-0.21973 -0.27558 0.15691 111 163 195
-0.67265 -0.27558 0.15691 111 163 195
-0.67265 -0.44047 0.15691 111 163 195
-0.21973 -0.44047 0.15691 111 163 195
-0.72726 -0.44047 0.21331 111 163 195
-0.72726 -0.27558 0.21331 111 163 195
-0.72726 -0.44047 0.55245 111 163 195
-0.72726 -0.27558 0.68181 111 163 195
-0.72726 -0.30998 0.71814 111 163 195
-0.72726 -0.65031 0.55245 111 163 195
-0.72726 -0.65031 0.71814 111 163 195
-0.67486 -0.69867 0.71814 111 163 195
-0.67486 -0.69867 0.55245 111 163 195
-0.40163 -0.69867 0.55245 111 163 195
-0.40163 -0.69867 0.71814 111 163 195
-0.67265 -0.27558 0.15691 99 147 177
-0.56902 -0.27558 0.3218 99 147 177
-0.72726 -0.27558 0.21331 99 147 177
-0.72726 -0.27558 0.68181 99 147 177
-0.56901 -0.27558 0.68181 99 147 177
-0.69622 -0.74674 0.32311 99 147 177
-0.10233 -0.74674 0.32311 99 147 177
-0.10233 -0.58185 0.32311 99 147 177
-0.69622 -0.58185 0.32311 99 147 177
-0.69622 -0.74674 0.48025 99 147 177
-0.69622 -0.58185 0.48025 99 147 177
-0.22323 -0.58185 0.48025 99 147 177
-0.22323 -0.74674 0.48025 99 147 177
-0.22323 -0.74674 0.63431 99 147 177
-0.22323 -0.58185 0.63431 99 147 177
-0.07055 -0.58185 0.35334 99 147 177
-0.07055 -0.74674 0.35334 99 147 177
-0.07055 -0.74674 0.5275 99 147 177
-0.07055 -0.58185 0.5275 99 147 177
0.08837 -0.58185 0.5275 99 147 177
0.08837 -0.74674 0.5275 99 147 177
0.08837 -0.58185 0.07829 99 147 177
0.08837 -0.74674 0.07829 99 147 177
0.25032 -0.58185 0.07829 99 147 177
0.25032 -0.74674 0.07829 99 147 177
0.25032 -0.58185 0.63706 99 147 177
0.25032 -0.74674 0.63706 99 147 177
0.21053 -0.74674 0.67335 99 147 177
0.21053 -0.58185 0.67335 99 147 177
-0.18641 -0.58185 0.67335 99 147 177
-0.18641 -0.74674 0.67335 99 147 177
-0.69622 -0.74674 0.32311 111 163 195
-0.69622 -0.74674 0.48025 111 163 195
-0.22323 -0.74674 0.48025 111 163 195
-0.10233 -0.74674 0.32311 111 163 195
-0.07055 -0.74674 0.35334 111 163 195
-0.07055 -0.74674 0.5275 111 163 195
-0.22323 -0.74674 0.63431 111 163 195
-0.18641 -0.74674 0.67335 111 163 195
0.08837 -0.74674 0.5275 111 163 195
0.21053 -0.74674 0.67335 111 163 195
0.25032 -0.74674 0.63706 111 163 195
0.08837 -0.74674 0.07829 111 163 195
0.25032 -0.74674 0.07829 111 163 195
0.52288 -0.65311 0.135 99 147 177
0.52288 -0.71024 0.18435 99 147 177
0.52288 -0.54535 0.29325 99 147 177
0.52288 -0.22641 0.135 99 147 177
0.52288 -0.22641 0.29325 99 147 177
0.52288 -0.54535 0.65497 99 147 177
0.52288 -0.71024 0.65497 99 147 177
0.80623 -0.54535 0.65497 99 147 177
0.80623 -0.71024 0.65497 99 147 177
0.49103 -0.19268 0.29325 99 147 177
0.49103 -0.19268 0.135 99 147 177
-0.09675 -0.19268 0.135 99 147 177
-0.09675 -0.19268 0.29325 99 147 177
-0.13678 -0.23043 0.135 99 147 177
-0.13678 -0.23043 0.29325 99 147 177
-0.13678 -0.36368 0.135 99 147 177
-0.13678 -0.36368 0.29325 99 147 177
-0.13678 -0.52931 0.29325 99 147 177
0.52288 -0.65311 0.135 111 163 195
0.40162 -0.65311 0.135 111 163 195
0.40162 -0.71024 0.18435 111 163 195
0.52288 -0.71024 0.18435 111 163 195
0.40162 -0.36368 0.135 111 163 195
0.52288 -0.22641 0.135 111 163 195
0.52288 -0.71024 0.65497 111 163 195
0.40162 -0.71024 0.78219 111 163 195
0.49103 -0.19268 0.135 111 163 195
0.44625 -0.71024 0.81782 111 163 195
0.80623 -0.71024 0.65497 111 163 195
0.80623 -0.71024 0.81782 111 163 195
0.03092 -0.36368 0.135 111 163 195
-0.09675 -0.19268 0.135 111 163 195
-0.13678 -0.23043 0.135 111 163 195
-0.13678 -0.36368 0.135 111 163 195
0.03092 -0.36368 0.05317 111 163 195
-0.13678 -0.36368 0.05317 111 163 195
0.40162 -0.65311 0.135 99 147 177
0.40162 -0.36368 0.135 99 147 177
0.40162 -0.36368 0.29325 99 147 177
0.40162 -0.54535 0.29325 99 147 177
0.03092 -0.36368 0.29325 99 147 177
0.03092 -0.36368 0.135 99 147 177
0.03092 -0.52931 0.29325 99 147 177
0.40162 -0.54535 0.78219 99 147 177
0.40162 -0.71024 0.78219 99 147 177
0.40162 -0.71024 0.18435 99 147 177
0.44625 -0.54535 0.81782 99 147 177
0.44625 -0.71024 0.81782 99 147 177
0.80623 -0.71024 0.81782 99 147 177
0.80623 -0.54535 0.81782 99 147 177
-0.13678 -0.36368 0.05317 99 147 177
-0.13678 -0.52931 0.05317 99 147 177
0.03092 -0.52931 0.05317 99 147 177
0.03092 -0.36368 0.05317 99 147 177
-0.13678 -0.52931 0.29325 111 163 195
0.03092 -0.52931 0.29325 111 163 195
0.03092 -0.52931 0.05317 111 163 195
-0.13678 -0.52931 0.05317 111 163 195
-0.72726 -0.15583 0.63438 99 147 177
-0.56901 -0.15583 0.63438 99 147 177
-0.56901 -0.17781 0.60669 99 147 177
-0.72726 -0.17781 0.60669 99 147 177
-0.56901 -0.01212 0.63438 99 147 177
-0.72726 -0.01212 0.63438 99 147 177
-0.72726 -0.17781 0.19279 99 147 177
-0.56901 -0.17781 0.29377 99 147 177
-0.67486 -0.17781 0.14443 99 147 177
-0.47915 -0.17781 0.14443 99 147 177
-0.47915 -0.17781 0.29377 99 147 177
-0.47915 -0.01212 0.29377 99 147 177
-0.47915 -0.01212 0.14443 99 147 177
-0.56901 -0.01212 0.87861 99 147 177
-0.72726 -0.01212 0.87861 99 147 177
-0.56901 0.15351 0.87861 99 147 177
-0.72726 0.15351 0.87861 99 147 177
-0.72726 -0.15583 0.63438 111 163 195
-0.72726 -0.17781 0.60669 111 163 195
-0.72726 -0.01212 0.46949 111 163 195
-0.72726 -0.01212 0.19279 111 163 195
-0.72726 -0.17781 0.19279 111 163 195
-0.67486 -0.17781 0.14443 111 163 195
-0.67486 -0.01212 0.14443 111 163 195
-0.72726 -0.01212 0.63438 111 163 195
-0.72726 0.12713 0.46949 111 163 195
-0.72726 0.15351 0.50069 111 163 195
-0.72726 -0.01212 0.87861 111 163 195
-0.72726 0.15351 0.87861 111 163 195
-0.47915 -0.17781 0.14443 111 163 195
-0.47915 -0.01212 0.14443 111 163 195
-0.72726 -0.01212 0.46949 99 147 177
-0.72726 -0.01212 0.19279 99 147 177
-0.56901 -0.01212 0.29377 99 147 177
-0.56901 -0.01212 0.46949 99 147 177
-0.67486 -0.01212 0.14443 99 147 177
-0.72726 0.15351 0.50069 99 147 177
-0.72726 0.12713 0.46949 99 147 177
-0.56901 0.12713 0.46949 99 147 177
-0.56901 0.15351 0.50069 99 147 177
0.08333 0.70625 0.17042 99 147 177
0.08333 0.65691 0.11328 99 147 177
0.08333 0.54801 0.27817 99 147 177
0.08333 0.70625 0.50898 99 147 177
0.08333 0.54801 0.50898 99 147 177
0.08333 0.12051 0.27817 99 147 177
0.08333 0.12051 0.11328 99 147 177
-0.08237 0.12051 0.27817 99 147 177
-0.08237 0.12051 0.11328 99 147 177
-0.08237 0.54801 0.27817 99 147 177
-0.08237 0.65691 0.11328 99 147 177
0.04301 0.54801 0.54938 99 147 177
0.04301 0.70625 0.54938 99 147 177
-0.38722 0.70625 0.54938 99 147 177
-0.38722 0.54801 0.54938 99 147 177
-0.42745 0.70625 0.50898 99 147 177
-0.42745 0.54801 0.50898 99 147 177
-0.42745 0.70625 0.15411 99 147 177
-0.42745 0.54801 0.15411 99 147 177
0.08333 0.70625 0.17042 111 163 195
-0.08237 0.70625 0.17042 111 163 195
-0.08237 0.65691 0.11328 111 163 195
0.08333 0.65691 0.11328 111 163 195
-0.08237 0.70625 0.37838 111 163 195
0.08333 0.70625 0.50898 111 163 195
0.04301 0.70625 0.54938 111 163 195
-0.25975 0.70625 0.37838 111 163 195
-0.38722 0.70625 0.54938 111 163 195
-0.42745 0.70625 0.50898 111 163 195
-0.25975 0.70625 0.15411 111 163 195
-0.42745 0.70625 0.15411 111 163 195
-0.08237 0.70625 0.17042 99 147 177
-0.08237 0.70625 0.37838 99 147 177
-0.08237 0.54801 0.37838 99 147 177
-0.25975 0.54801 0.37838 99 147 177
-0.25975 0.70625 0.37838 99 147 177
-0.25975 0.54801 0.15411 99 147 177
-0.25975 0.70625 0.15411 99 147 177
-0.08237 0.12051 0.11328 111 163 195
0.08333 0.12051 0.11328 111 163 195
0.23523 0.73391 0.61482 111 163 195
0.19876 0.73391 0.57643 111 163 195
0.36365 0.73391 0.45463 111 163 195
0.36365 0.73391 0.19198 111 163 195
0.19876 0.73391 0.19198 111 163 195
0.36365 0.67751 0.13738 111 163 195
0.19876 0.67751 0.13738 111 163 195
0.77905 0.73391 0.61482 111 163 195
0.77905 0.73391 0.45463 111 163 195
0.19876 0.19138 0.13738 99 147 177
0.19876 0.19138 0.29562 99 147 177
0.36365 0.19138 0.29562 99 147 177
0.36365 0.19138 0.13738 99 147 177
0.36365 0.67751 0.13738 99 147 177
0.36365 0.56901 0.29562 99 147 177
0.36365 0.73391 0.19198 99 147 177
0.19876 0.56901 0.29562 99 147 177
0.19876 0.67751 0.13738 99 147 177
0.19876 0.73391 0.19198 99 147 177
0.19876 0.56901 0.57643 99 147 177
0.19876 0.73391 0.57643 99 147 177
0.36365 0.73391 0.45463 99 147 177
0.36365 0.56901 0.45463 99 147 177
0.23523 0.73391 0.61482 99 147 177
0.23523 0.56901 0.61482 99 147 177
0.77905 0.56901 0.61482 99 147 177
0.77905 0.73391 0.61482 99 147 177
0.77905 0.73391 0.45463 99 147 177
0.77905 0.56901 0.45463 99 147 177
0.19876 0.19138 0.13738 111 163 195
0.36365 0.19138 0.13738 111 163 195
3 0 2 1
3 3 0 1
3 3 1 4
3 5 0 3
3 5 2 0
3 1 2 6
3 1 6 7
3 7 6 8
3 9 8 6
3 9 10 8
3 10 9 11
3 3 10 11
3 4 10 3
3 4 12 10
3 8 10 12
3 8 12 7
3 3 11 13
3 5 3 13
3 14 16 15
3 14 17 16
3 18 16 17
3 18 19 16
3 19 15 16
3 19 20 15
3 20 14 15
3 20 21 14
3 22 24 23
3 22 23 25
3 22 25 26
3 25 27 26
3 25 28 27
3 29 27 28
3 29 30 27
3 30 26 27
3 30 22 26
3 31 30 29
3 19 22 30
3 22 19 24
3 19 30 20
3 31 20 30
3 21 20 31
3 24 19 18
3 32 34 33
3 32 35 34
3 33 34 36
3 33 36 37
3 38 40 39
3 41 40 38
3 41 42 40
3 40 43 39
3 40 44 43
3 44 45 43
3 46 43 45
3 46 45 47
3 47 48 46
3 41 48 47
3 42 41 47
3 42 47 49
3 45 49 47
3 45 44 49
3 41 50 48
3 41 51 50
3 51 41 38
3 51 38 39
3 52 54 53
3 52 55 54
3 56 55 52
3 56 57 55
3 57 54 55
3 57 58 54
3 58 53 54
3 58 59 53
3 60 62 61
3 60 63 62
3 64 61 62
3 64 62 65
3 65 62 63
3 65 63 66
3 66 63 60
3 58 65 66
3 58 57 65
3 66 60 67
3 66 67 68
3 66 68 58
3 58 68 59
3 57 69 65
3 65 69 64
3 56 69 57
3 70 72 71
3 70 73 72
3 73 74 72
3 73 75 74
3 76 78 77
3 76 79 78
3 80 76 77
3 78 80 77
3 80 81 76
3 80 82 81
3 82 83 81
3 82 84 83
3 80 85 82
3 81 86 76
3 81 83 86
3 82 85 87
3 85 88 87
3 87 88 89
3 87 89 90
3 82 87 90
3 85 91 88
3 84 82 90
3 84 90 92
3 93 84 92
3 93 83 84
3 93 94 83
3 83 94 95
3 94 96 95
3 94 97 96
3 83 95 86
3 93 92 98
3 95 99 86
3 95 96 99
3 86 99 79
3 86 79 76
3 92 100 98
3 100 93 98
3 92 101 100
3 90 101 92
3 90 89 101
3 102 94 93
3 102 97 94
3 100 102 93
3 103 96 97
3 102 103 97
3 103 104 96
3 104 99 96
3 105 104 103
3 106 105 103
3 102 106 103
3 100 106 102
3 106 107 105
3 105 108 104
3 104 108 99
3 108 79 99
3 106 109 107
3 109 100 101
3 106 110 109
3 109 110 100
3 100 110 106
3 107 109 111
3 111 101 89
3 111 109 101
3 112 111 89
3 112 89 88
3 113 112 88
3 113 88 91
3 107 111 114
3 114 112 113
3 114 111 112
3 115 114 113
3 115 116 114
3 114 116 105
3 114 105 107
3 115 117 116
3 115 118 117
3 117 118 78
3 78 118 115
3 117 78 79
3 116 108 105
3 116 117 108
3 113 119 115
3 113 120 119
3 108 117 79
3 78 115 121
3 78 121 80
3 80 121 122
3 80 122 123
3 115 124 121
3 121 124 122
3 80 123 125
3 80 125 126
3 127 80 126
3 85 80 127
3 85 127 128
3 85 128 129
3 129 91 85
3 91 129 130
3 91 130 131
3 132 91 131
3 91 132 113
3 113 132 133
3 113 133 120
3 124 135 134
3 124 136 135
3 115 119 136
3 115 136 124
3 137 139 138
3 137 140 139
3 138 141 137
3 137 141 142
3 138 143 141
3 144 141 143
3 144 143 145
3 146 141 144
3 147 141 146
3 148 138 139
3 148 139 149
3 150 145 143
3 150 143 151
3 138 151 143
3 138 148 151
3 148 152 151
3 153 150 151
3 153 154 150
3 155 153 151
3 151 152 155
3 156 141 147
3 142 141 156
3 155 152 157
3 158 160 159
3 158 161 160
3 162 164 163
3 162 165 164
3 166 164 165
3 166 167 164
3 168 167 166
3 168 162 163
3 168 166 169
3 168 169 162
3 169 166 170
3 169 170 171
3 162 169 171
3 166 172 170
3 166 165 172
3 165 173 172
3 165 162 173
3 162 171 173
3 174 176 175
3 174 177 176
3 178 180 179
3 178 181 180
3 182 179 180
3 182 180 183
3 184 182 183
3 184 181 178
3 184 185 182
3 184 178 185
3 185 186 182
3 185 187 186
3 178 187 185
3 182 188 179
3 182 186 188
3 179 189 178
3 179 188 189
3 178 189 187
3 190 192 191
3 190 193 192
3 193 194 192
3 193 195 194
3 196 190 191
3 196 197 190
3 197 196 198
3 197 198 199
3 200 199 198
3 200 201 199
3 201 200 202
3 201 202 203
3 203 202 204
3 203 204 205
3 203 205 206
3 206 205 207
3 206 207 208
3 208 207 209
3 208 209 210
3 211 210 209
3 211 212 210
3 211 213 212
3 211 214 213
3 215 213 214
3 215 216 213
3 217 216 215
3 218 216 217
3 218 219 216
3 220 219 218
3 220 221 219
3 221 220 194
3 221 194 195
3 222 224 223
3 222 225 224
3 223 227 226
3 223 228 227
3 223 224 228
3 226 227 229
3 229 227 230
3 229 230 231
3 232 231 230
3 232 230 233
3 232 233 234
3 232 234 235
3 235 234 236
3 235 236 237
3 235 237 238
3 239 241 240
3 239 242 241
3 241 242 243
3 241 243 244
3 244 243 245
3 239 240 246
3 239 246 247
3 244 245 248
3 244 248 249
3 249 248 250
3 250 248 251
3 250 251 252
3 252 251 253
3 252 255 254
3 252 253 255
3 256 258 257
3 256 259 258
3 259 256 260
3 259 260 261
3 261 260 262
3 261 262 263
3 264 263 262
3 264 262 265
3 264 265 266
3 264 266 267
3 268 257 258
3 268 269 257
3 270 269 268
3 269 270 271
3 269 271 272
3 273 272 271
3 273 271 274
3 275 277 276
3 275 278 277
3 279 276 277
3 279 280 276
3 280 279 281
3 280 281 282
3 278 275 283
3 278 283 284
3 284 283 285
3 284 285 286
3 286 285 267
3 286 267 266
3 282 281 287
3 287 281 273
3 287 273 274
3 288 290 289
3 288 291 290
3 291 292 290
3 291 293 292
3 292 293 294
3 294 293 295
3 294 295 296
3 296 295 297
3 296 297 298
3 298 297 299
3 298 299 300
3 301 300 299
3 301 302 300
3 303 305 304
3 303 306 305
3 307 304 305
3 307 308 304
3 308 307 309
3 308 309 310
3 310 309 311
3 311 309 312
3 311 312 313
3 314 288 289
3 314 315 288
3 316 315 314
3 315 316 317
3 315 317 318
3 301 318 317
3 301 317 302
3 319 321 320
3 319 322 321
3 323 320 321
3 323 321 324
3 322 319 325
3 322 325 326
3 327 326 325
3 327 325 328
3 327 328 329
3 327 329 330
3 323 332 331
3 323 324 332
3 332 333 331
3 332 334 333
3 333 334 335
3 333 335 336
3 336 335 337
3 336 337 338
3 338 337 330
3 338 330 329
3 339 341 340
3 339 342 341
3 341 342 343
3 343 342 344
3 343 344 345
3 345 344 346
3 346 348 347
3 346 344 348
3 349 351 350
3 350 351 352
3 350 352 353
3 351 349 354
3 351 354 355
3 355 354 356
3 355 356 357
3 358 353 352
3 358 352 359
3 358 359 360
3 358 360 361
3 357 356 362
3 357 362 363
3 357 363 364
3 365 364 363
3 365 363 366
3 367 365 366
3 367 368 365
3 369 368 367
3 370 368 369
3 370 371 368
3 371 370 372
3 371 372 373
3 374 373 372
3 374 375 373
3 374 376 375
3 375 376 377
3 375 377 378
3 378 377 379
3 378 379 380
3 380 379 361
3 380 361 360
3 381 383 382
3 381 384 383
3 382 383 385
3 382 385 386
3 384 381 387
3 384 387 388
3 388 387 389
3 388 389 390
3 388 390 391
3 392 391 390
3 392 393 391
3 393 392 394
3 393 394 395
3 386 397 396
3 386 398 397
3 386 385 398
3 399 401 400
3 399 402 401
3 403 400 401
3 403 401 404
3 403 404 405
3 403 405 406
3 405 407 406
3 405 408 407
3 402 399 409
3 402 409 410
3 407 408 411
3 407 411 412
3 413 410 409
3 413 409 414
3 412 411 415
3 412 415 416
3 416 415 417
3 416 417 418
3 413 418 417
3 413 414 418
3 419 421 420
3 419 422 421
3 421 422 423
3 423 422 424
3 423 424 425
3 425 424 426
3 426 424 427
3 426 427 428
3 429 431 430
3 429 432 431
3 432 433 431
3 432 434 433
3 433 434 435
3 436 429 430
3 436 437 429
3 438 437 436
3 435 434 439
3 435 439 440
3 437 438 441
3 437 441 442
3 443 442 441
3 443 441 444
3 440 439 445
3 440 445 446
3 443 444 447
3 443 447 448
3 446 445 449
3 448 447 450
3 448 450 451
3 448 451 452
3 453 452 451
3 453 451 454
3 449 445 453
3 449 453 454
3 455 457 456
3 455 458 457
3 459 456 457
3 459 460 456
3 460 462 461
3 460 459 462
3 461 462 463
3 463 462 464
3 463 464 465
3 466 465 464
3 466 464 467
3 466 469 468
3 466 467 469
3 470 472 471
3 472 470 473
3 472 473 474
3 471 472 475
3 471 475 476
3 477 474 473
3 477 473 478
3 477 478 479
3 477 479 480
3 481 476 475
3 481 482 476
3 483 482 481
3 483 484 482
3 485 484 483
3 485 483 486
3 485 486 487
3 487 486 488
3 487 488 489
3 490 492 491
3 490 493 492
3 490 491 494
3 490 494 495
3 492 493 496
3 492 496 497
3 495 494 498
3 498 500 499
3 498 494 500
3 499 500 501
3 501 500 502
3 501 502 503
3 504 480 479
3 504 505 480
3 505 504 506
3 505 506 507
3 508 507 506
3 508 509 507
3 489 509 508
3 489 488 509
3 510 512 511
3 512 510 513
3 512 513 514
3 511 512 515
3 511 515 516
3 516 515 517
3 516 517 518
3 518 517 519
3 518 519 520
3 514 513 521
3 514 521 522
3 522 521 523
3 522 523 524
3 522 524 525
3 526 525 524
3 526 524 527
3 528 526 527
3 528 529 526
3 530 529 528
3 531 529 530
3 531 532 529
3 533 535 534
3 533 536 535
3 533 534 537
3 533 537 538
3 535 536 539
3 535 539 540
3 538 537 541
3 538 541 542
3 538 542 543
3 544 543 542
3 544 545 543
3 545 544 546
3 545 546 547
3 548 539 549
3 548 549 550
3 551 553 552
3 551 554 553
3 551 555 554
3 554 555 556
3 554 556 557
3 531 552 553
3 531 553 532
3 558 557 556
3 558 556 559
3 558 559 520
3 558 520 519
3 540 539 548
3 560 562 561
3 560 563 562
3 563 564 562
3 563 565 564
3 566 560 561
3 566 567 560
3 564 565 568
3 568 565 569
3 568 569 570
3 570 569 571
3 570 571 572
3 572 571 573
3 572 573 574
3 575 574 573
3 569 575 573
3 569 573 571
3 575 576 574
3 575 577 576
3 575 578 577
3 567 577 578
3 567 579 577
3 579 567 566
3 580 582 581
3 580 583 582
3 584 581 582
3 584 585 581
3 585 584 586
3 585 586 587
3 587 586 588
3 588 586 589
3 588 589 590
3 591 593 592
3 591 594 593
3 594 595 593
3 594 596 595
3 597 591 592
3 597 598 591
3 595 596 599
3 599 596 600
3 599 600 601
3 601 600 602
3 601 602 603
3 604 598 597
3 598 604 605
3 598 605 606
3 607 606 605
3 607 605 608
3 607 608 609
3 607 609 610
3 603 610 609
3 603 602 610
3 600 610 602
3 600 607 610
3 611 613 612
3 611 614 613
3 615 612 613
3 615 616 612
3 616 615 617
3 616 617 618
3 618 617 619
3 619 617 620
3 619 620 621
3 622 624 623
3 622 625 624
3 625 626 624
3 625 627 626
3 626 627 628
3 628 627 629
3 628 629 630
3 630 629 631
3 630 631 632
3 632 631 633
3 633 631 634
3 633 634 635
3 634 636 635
3 634 637 636
3 638 636 637
3 638 639 636
3 638 640 639
3 641 640 638
3 641 642 640
3 643 645 644
3 643 646 645
3 647 644 645
3 647 648 644
3 648 647 649
3 648 649 650
3 650 649 651
3 651 649 652
3 651 652 653
3 654 653 652
3 654 652 655
3 654 655 656
3 654 656 657
3 658 622 623
3 658 659 622
3 660 659 658
3 659 660 661
3 659 661 662
3 641 662 661
3 641 661 642
3 663 665 664
3 663 666 665
3 667 666 663
3 667 668 666
3 666 669 665
3 666 668 669
3 668 670 669
3 668 667 670
3 669 670 671
3 669 671 672
3 664 665 673
3 664 673 674
3 675 674 673
3 675 673 676
3 675 676 677
3 675 677 678
3 678 677 679
3 678 679 680
3 680 679 681
3 680 681 682
3 683 682 681
3 683 684 682
3 683 685 684
3 683 686 685
3 687 685 686
3 687 688 685
3 672 688 687
3 672 671 688
3 689 691 690
3 689 692 691
3 691 692 693
3 691 693 694
3 691 694 695
3 695 694 696
3 696 694 697
3 696 697 698
3 698 697 699
3 699 697 700
3 699 700 701
3 679 683 681
3 679 677 683
3 702 704 703
3 704 702 705
3 704 705 706
3 703 704 707
3 703 707 708
3 708 707 709
3 708 709 710
3 711 706 705
3 711 705 712
3 711 712 713
3 711 713 714
3 714 713 715
3 714 715 716
3 717 716 715
3 717 718 716
3 718 717 719
3 720 722 721
3 720 723 722
3 720 721 724
3 720 724 725
3 722 723 726
3 722 726 727
3 725 724 728
3 727 726 729
3 729 726 730
3 729 730 731
3 728 724 732
3 728 732 733
3 733 732 734
3 734 732 735
3 735 732 736
3 735 736 737
3 738 740 739
3 738 741 740
3 739 740 742
3 739 742 743
3 743 742 744
3 741 746 745
3 741 747 746
3 748 745 746
3 748 746 749
3 748 749 750
3 748 750 751
3 707 748 751
3 707 751 709
3 710 709 751
3 710 751 750
3 738 747 741
3 752 754 753
3 752 755 754
3 743 754 755
3 743 744 754
3 719 752 753
3 719 717 752
3 756 758 757
3 756 759 758
3 760 762 761
3 760 763 762
3 764 760 761
3 764 765 760
3 762 763 766
3 762 766 767
3 767 766 768
3 767 768 769
3 767 769 770
3 771 770 769
3 771 769 772
3 765 764 773
3 765 773 774
3 774 773 775
3 774 775 776
3 777 779 778
3 778 779 780
3 778 780 781
3 782 781 780
3 782 780 783
3 784 779 777
3 779 784 785
3 785 784 786
3 786 784 787
3 786 787 788
3 782 790 789
3 782 783 790
3 791 793 792
3 791 794 793
3 792 793 795
3 795 793 771
3 795 771 772
3 796 798 797
3 796 799 798
3 799 796 776
3 799 776 775
3 794 797 798
3 794 791 797
3 800 802 801
3 802 800 803
3 802 803 804
3 801 802 805
3 801 805 806
3 807 806 805
3 807 808 806
3 809 808 807
3 809 810 808
3 811 804 803
3 811 803 812
3 811 812 813
3 811 813 814
3 815 814 813
3 815 816 814
3 816 815 817
3 816 817 818
3 819 821 820
3 819 822 821
3 819 820 823
3 819 823 824
3 824 823 825
3 825 823 826
3 825 826 827
3 827 826 828
3 828 826 829
3 828 829 830
3 831 833 832
3 831 809 833
3 831 810 809
3 832 833 834
3 832 834 835
3 835 834 836
3 835 836 837
3 821 839 838
3 821 822 839
3 837 818 817
3 837 836 818
3 834 818 836
3 834 816 818
3 840 842 841
3 841 842 843
3 841 843 844
3 845 844 843
3 845 846 844
3 842 840 847
3 842 847 848
3 849 851 850
3 849 852 851
3 853 851 852
3 853 854 851
3 855 854 853
3 856 849 850
3 856 857 849
3 857 856 858
3 858 856 859
3 858 859 860
3 861 854 855
3 861 862 854
3 863 860 859
3 863 859 864
3 863 864 865
3 863 865 866
3 862 861 867
3 862 867 868
3 864 862 868
3 864 868 865
3 865 868 867
3 865 867 866
3 846 870 869
3 846 845 870
