ply
format ascii 1.0
element vertex 887
property float x
property float y
property float z
property uchar red
property uchar green
property uchar blue
element face 913
property list uchar int vertex_index
end_header
0.12994 -0.16118 0.12092 105 177 99
0.12994 -0.16118 0.26232 105 177 99
0.17812 -0.16104 0.12092 105 177 99
0.12994 0.16118 0.12092 105 177 99
0.12994 0.16118 0.26232 105 177 99
0.17812 0.08059 0.12092 105 177 99
0.40412 -0.16104 0.12092 105 177 99
0.45231 -0.16118 0.26232 105 177 99
0.45231 -0.16118 0.12092 105 177 99
0.40412 0.08059 0.12092 105 177 99
0.45231 0.16118 0.12092 105 177 99
0.37172 0.13226 0.12092 105 177 99
0.45231 0.16118 0.26232 105 177 99
0.21052 0.13226 0.12092 105 177 99
0.21052 0.13226 0.12092 234 114 110
0.21052 0.13226 4.76837E-09 234 114 110
0.37172 0.13226 4.76837E-09 234 114 110
0.37172 0.13226 0.12092 234 114 110
0.40412 0.08059 0.12092 234 114 110
0.40412 0.08059 4.76837E-09 234 114 110
0.17812 0.08059 4.76837E-09 234 114 110
0.17812 0.08059 0.12092 234 114 110
0.40412 -0.41591 4.76837E-09 234 114 110
0.40412 -0.41591 0.12092 234 114 110
0.40412 -0.16104 0.12092 234 114 110
0.37552 -0.45757 0.12092 234 114 110
0.37552 -0.45757 4.76837E-09 234 114 110
0.20673 -0.45757 4.76837E-09 234 114 110
0.20673 -0.45757 0.12092 234 114 110
0.17812 -0.41591 0.12092 234 114 110
0.17812 -0.41591 4.76837E-09 234 114 110
0.17812 -0.16104 0.12092 234 114 110
0.40412 -0.16104 0.12092 242 118 114
0.40412 -0.41591 0.12092 242 118 114
0.17812 -0.41591 0.12092 242 118 114
0.17812 -0.16104 0.12092 242 118 114
0.20673 -0.45757 0.12092 242 118 114
0.37552 -0.45757 0.12092 242 118 114
-0.12994 -0.16118 0.12092 105 177 99
-0.17812 -0.16104 0.12092 105 177 99
-0.12994 -0.16118 0.26232 105 177 99
-0.12994 0.16118 0.12092 105 177 99
-0.12994 0.16118 0.26232 105 177 99
-0.40412 -0.16104 0.12092 105 177 99
-0.45231 -0.16118 0.26232 105 177 99
-0.45231 -0.16118 0.12092 105 177 99
-0.40412 0.08059 0.12092 105 177 99
-0.45231 0.16118 0.12092 105 177 99
-0.37172 0.13226 0.12092 105 177 99
-0.45231 0.16118 0.26232 105 177 99
-0.21052 0.13226 0.12092 105 177 99
-0.17812 0.08059 0.12092 105 177 99
-0.21052 0.13226 0.12092 234 114 110
-0.37172 0.13226 0.12092 234 114 110
-0.37172 0.13226 4.76837E-09 234 114 110
-0.21052 0.13226 4.76837E-09 234 114 110
-0.17812 0.08059 0.12092 234 114 110
-0.17812 0.08059 4.76837E-09 234 114 110
-0.40412 0.08059 4.76837E-09 234 114 110
-0.40412 0.08059 0.12092 234 114 110
-0.37552 -0.45757 0.12092 234 114 110
-0.20673 -0.45757 0.12092 234 114 110
-0.20673 -0.45757 4.76837E-09 234 114 110
-0.37552 -0.45757 4.76837E-09 234 114 110
-0.17812 -0.41591 0.12092 234 114 110
-0.17812 -0.41591 4.76837E-09 234 114 110
-0.40412 -0.41591 4.76837E-09 234 114 110
-0.40412 -0.41591 0.12092 234 114 110
-0.40412 -0.16104 0.12092 234 114 110
-0.17812 -0.16104 0.12092 234 114 110
-0.40412 -0.16104 0.12092 242 118 114
-0.17812 -0.16104 0.12092 242 118 114
-0.17812 -0.41591 0.12092 242 118 114
-0.40412 -0.41591 0.12092 242 118 114
-0.20673 -0.45757 0.12092 242 118 114
-0.37552 -0.45757 0.12092 242 118 114
0.54468 -0.47206 1.4238 110 184 103
0.47368 -0.54468 1.4238 110 184 103
0 -0.54468 1.4238 110 184 103
0 -0.47206 1.4238 110 184 103
0.52631 -0.60521 1.35878 110 184 103
0.60521 -0.52451 1.35878 110 184 103
0.60521 -0.52451 0.31699 110 184 103
0.60521 0.52451 1.35878 110 184 103
0.60521 0.52451 0.31699 110 184 103
0.52631 -0.60521 0.31699 110 184 103
0.54468 0.47206 1.4238 110 184 103
0.47368 -0.54468 0.25277 110 184 103
0 -0.54468 0.25277 110 184 103
0 -0.47206 0.25277 110 184 103
0.54468 -0.47206 0.25277 110 184 103
0 -0.60521 0.31699 110 184 103
0.54468 0.47206 0.25277 110 184 103
0.52631 0.60521 0.31699 110 184 103
0.52631 0.60521 1.35878 110 184 103
0.47368 0.54468 1.4238 110 184 103
0 0.54468 1.4238 110 184 103
0 0.60521 1.35878 110 184 103
0.47368 0.54468 0.25277 110 184 103
0 0.47206 1.4238 110 184 103
0 0.54468 0.25277 110 184 103
0 0.47206 0.25277 110 184 103
0 0.60521 0.31699 110 184 103
-0.52631 0.60521 1.35878 110 184 103
-0.47368 0.54468 1.4238 110 184 103
-0.60521 0.52451 1.35878 110 184 103
-0.52631 0.60521 0.31699 110 184 103
-0.60521 0.52451 0.31699 110 184 103
-0.54468 0.47206 1.4238 110 184 103
-0.54468 0.47206 0.25277 110 184 103
-0.47368 0.54468 0.25277 110 184 103
-0.54468 -0.47206 0.25277 110 184 103
-0.47368 -0.54468 0.25277 110 184 103
-0.52631 -0.60521 0.31699 110 184 103
-0.60521 -0.52451 0.31699 110 184 103
-0.52631 -0.60521 1.35878 110 184 103
-0.60521 -0.52451 1.35878 110 184 103
-0.54468 -0.47206 1.4238 110 184 103
-0.47368 -0.54468 1.4238 110 184 103
-0.4018 -0.60521 1.00357 110 184 103
-0.4018 -0.60521 0.62441 110 184 103
0 -0.60521 1.35878 110 184 103
0 -0.60521 1.12526 110 184 103
0.17394 -0.60521 1.12526 110 184 103
-0.10816 -0.60521 1.12526 110 184 103
0.17394 -0.60521 1.04203 110 184 103
0.36344 -0.60521 1.04203 110 184 103
0.4018 -0.60521 1.00236 110 184 103
0.4018 -0.60521 0.62728 110 184 103
0.36179 -0.60521 0.58845 110 184 103
0.16225 -0.60521 0.58845 110 184 103
0 -0.60521 0.58845 110 184 103
0 -0.60521 0.67027 110 184 103
0.16225 -0.60521 0.67027 110 184 103
-0.16225 -0.60521 0.58845 110 184 103
-0.16225 -0.60521 0.67027 110 184 103
-0.35789 -0.60521 0.58845 110 184 103
0.17394 -0.60521 1.04203 75 72 71
0 -0.60521 1.04203 75 72 71
0 -0.60521 1.12526 75 72 71
0.17394 -0.60521 1.12526 75 72 71
0.16225 -0.60521 0.67027 75 72 71
0.36344 -0.60521 1.04203 75 72 71
0 -0.60521 0.67027 75 72 71
-0.10816 -0.60521 1.08084 75 72 71
-0.10816 -0.60521 1.12526 75 72 71
-0.16225 -0.60521 0.67027 75 72 71
-0.1526 -0.60521 1.04203 75 72 71
0.4018 -0.60521 1.00236 75 72 71
0.4018 -0.60521 0.62728 75 72 71
0.36179 -0.60521 0.58845 75 72 71
0.16225 -0.60521 0.58845 75 72 71
-0.4018 -0.60521 1.00357 75 72 71
-0.4018 -0.60521 0.62441 75 72 71
-0.16225 -0.60521 0.58845 75 72 71
-0.35789 -0.60521 0.58845 75 72 71
-0.36558 -0.60521 1.04203 75 72 71
-0.36558 -0.60521 1.04203 110 184 103
-0.1526 -0.60521 1.04203 110 184 103
-0.10816 -0.60521 1.08084 110 184 103
0.17744 -0.63231 0.83028 56 54 53
0.17744 -0.63231 0.8723 56 54 53
0.21947 -0.63231 0.8723 56 54 53
0.21947 -0.63231 0.83028 56 54 53
0.07956 -0.63231 0.96613 255 255 255
0.07956 -0.59867 0.96613 255 255 255
0.31735 -0.59867 0.96613 255 255 255
0.31735 -0.63231 0.96613 255 255 255
0.31735 -0.63231 0.72834 255 255 255
0.31735 -0.59867 0.72834 255 255 255
0.07956 -0.59867 0.72834 255 255 255
0.07956 -0.63231 0.72834 255 255 255
0.21947 -0.63231 0.83028 255 255 255
0.17744 -0.63231 0.83028 255 255 255
0.21947 -0.63231 0.8723 255 255 255
0.17744 -0.63231 0.8723 255 255 255
-0.17744 -0.63231 0.83028 56 54 53
-0.21947 -0.63231 0.83028 56 54 53
-0.21947 -0.63231 0.8723 56 54 53
-0.17744 -0.63231 0.8723 56 54 53
-0.07956 -0.63231 0.96613 255 255 255
-0.31735 -0.63231 0.96613 255 255 255
-0.31735 -0.59867 0.96613 255 255 255
-0.07956 -0.59867 0.96613 255 255 255
-0.31735 -0.63231 0.72834 255 255 255
-0.31735 -0.59867 0.72834 255 255 255
-0.07956 -0.59867 0.72834 255 255 255
-0.07956 -0.63231 0.72834 255 255 255
-0.21947 -0.63231 0.83028 255 255 255
-0.17744 -0.63231 0.83028 255 255 255
-0.21947 -0.63231 0.8723 255 255 255
-0.17744 -0.63231 0.8723 255 255 255
0.34832 -0.16454 1.41712 105 177 99
0.34832 -0.16454 1.58201 105 177 99
0.51321 -0.16454 1.58201 105 177 99
0.51321 -0.16454 1.41712 105 177 99
0.51321 0.32751 1.58201 105 177 99
0.51321 0.32751 1.41712 105 177 99
0.34832 0.1977 1.58201 105 177 99
0.34832 0.1977 1.41712 105 177 99
-0.3212 0.1977 1.58201 105 177 99
-0.3212 0.1977 1.41712 105 177 99
-0.36621 0.2365 1.58201 105 177 99
-0.36621 0.2365 1.41712 105 177 99
-0.36621 0.7287 1.58201 105 177 99
-0.36621 0.53215 1.41712 105 177 99
-0.36621 0.77551 1.5325 105 177 99
-0.36621 0.77551 1.03379 105 177 99
-0.36621 0.53215 1.03379 105 177 99
-0.51615 0.77551 1.03379 105 177 99
-0.51615 0.53215 1.03379 105 177 99
-0.51615 0.77551 0.87459 105 177 99
-0.51615 0.53215 0.87459 105 177 99
-0.2446 0.77551 0.87459 105 177 99
-0.2446 0.53215 0.87459 105 177 99
-0.20907 0.53215 0.90841 105 177 99
-0.20907 0.77551 0.90841 105 177 99
-0.20907 0.77551 1.5325 105 177 99
-0.20907 0.53215 1.41712 105 177 99
-0.20907 0.7287 1.58201 105 177 99
-0.20907 0.35594 1.58201 105 177 99
-0.20907 0.35594 1.41712 105 177 99
0.48381 0.35594 1.58201 105 177 99
0.48381 0.35594 1.41712 105 177 99
0.34832 -0.16454 1.58201 118 195 111
0.34832 0.1977 1.58201 118 195 111
0.51321 0.32751 1.58201 118 195 111
0.51321 -0.16454 1.58201 118 195 111
-0.3212 0.1977 1.58201 118 195 111
-0.20907 0.35594 1.58201 118 195 111
0.48381 0.35594 1.58201 118 195 111
-0.36621 0.2365 1.58201 118 195 111
-0.20907 0.7287 1.58201 118 195 111
-0.36621 0.7287 1.58201 118 195 111
-0.36621 0.77551 1.5325 118 195 111
-0.20907 0.77551 1.5325 118 195 111
-0.20907 0.77551 0.90841 118 195 111
-0.36621 0.77551 1.03379 118 195 111
-0.2446 0.77551 0.87459 118 195 111
-0.51615 0.77551 0.87459 118 195 111
-0.51615 0.77551 1.03379 118 195 111
0.6926 0.45215 0.122 118 195 111
0.6926 0.28726 0.122 118 195 111
0.74401 0.28726 0.17362 118 195 111
0.74401 0.45215 0.17362 118 195 111
0.74401 0.45215 0.83341 118 195 111
0.74401 0.28726 0.71475 118 195 111
0.74401 0.41581 0.873 118 195 111
0.41952 0.28726 0.122 118 195 111
0.41952 0.45215 0.122 118 195 111
0.74401 0.135 0.873 118 195 111
0.74401 0.02227 0.71475 118 195 111
0.74401 -0.02214 0.75236 118 195 111
0.74401 0.135 1.21484 118 195 111
0.74401 -0.02214 1.08629 118 195 111
0.74401 0.09949 1.25402 118 195 111
0.74401 -0.17757 1.08629 118 195 111
0.74401 -0.17757 1.25402 118 195 111
0.57912 0.41581 0.873 105 177 99
0.57912 0.45215 0.83341 105 177 99
0.74401 0.45215 0.83341 105 177 99
0.74401 0.41581 0.873 105 177 99
0.57912 0.135 0.873 105 177 99
0.74401 0.135 0.873 105 177 99
0.57912 0.135 1.21484 105 177 99
0.74401 0.135 1.21484 105 177 99
0.74401 0.09949 1.25402 105 177 99
0.57912 0.09949 1.25402 105 177 99
0.57912 -0.17757 1.25402 105 177 99
0.74401 -0.17757 1.25402 105 177 99
0.74401 0.45215 0.17362 105 177 99
0.57912 0.45215 0.29972 105 177 99
0.6926 0.45215 0.122 105 177 99
0.41952 0.45215 0.122 105 177 99
0.41952 0.45215 0.29972 105 177 99
0.41952 0.28726 0.29972 105 177 99
0.41952 0.28726 0.122 105 177 99
0.74401 -0.02214 0.75236 105 177 99
0.74401 0.02227 0.71475 105 177 99
0.57912 0.02227 0.71475 105 177 99
0.57912 -0.02214 0.75236 105 177 99
0.57912 0.28726 0.71475 105 177 99
0.74401 0.28726 0.71475 105 177 99
0.57912 0.28726 0.29972 105 177 99
0.74401 0.28726 0.17362 105 177 99
0.74401 -0.02214 1.08629 105 177 99
0.57912 -0.02214 1.08629 105 177 99
0.74401 -0.17757 1.08629 105 177 99
0.57912 -0.17757 1.08629 105 177 99
0.6926 0.28726 0.122 105 177 99
0.53882 -0.38401 0.97719 105 177 99
0.70371 -0.38401 0.97719 105 177 99
0.70371 -0.21912 0.97719 105 177 99
0.53882 -0.21912 0.97719 105 177 99
0.70371 -0.21912 1.50824 105 177 99
0.53882 -0.21912 1.4046 105 177 99
0.64731 -0.21912 1.56285 105 177 99
0.27364 -0.21912 1.4046 105 177 99
0.27364 -0.21912 1.56284 105 177 99
0.27364 0.07264 1.4046 105 177 99
0.27364 0.07264 1.56284 105 177 99
0.10794 0.07264 1.4046 105 177 99
0.10794 0.07264 1.56284 105 177 99
0.10794 -0.34289 1.4046 105 177 99
0.10794 -0.34289 1.56284 105 177 99
0.70371 -0.38401 0.97719 118 195 111
0.70371 -0.38401 1.50824 118 195 111
0.70371 -0.21912 1.50824 118 195 111
0.70371 -0.21912 0.97719 118 195 111
0.64731 -0.21912 1.56285 118 195 111
0.64731 -0.38401 1.56285 118 195 111
0.27364 -0.21912 1.56284 118 195 111
0.14711 -0.38401 1.56284 118 195 111
0.10794 -0.34289 1.56284 118 195 111
0.27364 0.07264 1.56284 118 195 111
0.10794 0.07264 1.56284 118 195 111
0.70371 -0.38401 1.50824 105 177 99
0.53882 -0.38401 1.4046 105 177 99
0.64731 -0.38401 1.56285 105 177 99
0.14711 -0.38401 1.56284 105 177 99
0.14711 -0.38401 1.4046 105 177 99
0.74401 -0.4328 0.41082 105 177 99
0.74401 -0.39378 0.3707 105 177 99
0.57912 -0.39378 0.3707 105 177 99
0.57912 -0.4328 0.41082 105 177 99
0.74401 0.14217 0.3707 105 177 99
0.57912 0.14217 0.3707 105 177 99
0.74401 -0.4328 0.8613 105 177 99
0.57912 -0.4328 0.8613 105 177 99
0.57912 -0.39378 0.89811 105 177 99
0.74401 -0.39378 0.89811 105 177 99
0.74401 -0.11601 0.89811 105 177 99
0.57912 -0.11601 0.89811 105 177 99
0.74401 0.14217 0.52894 105 177 99
0.57912 0.14217 0.52894 105 177 99
0.74401 -0.27566 0.52894 105 177 99
0.57912 -0.27566 0.52894 105 177 99
0.57912 -0.27566 0.74543 105 177 99
0.74401 -0.27566 0.74543 105 177 99
0.57912 -0.11601 0.74543 105 177 99
0.74401 -0.11601 0.74543 105 177 99
0.74401 0.14217 0.52894 118 195 111
0.74401 0.14217 0.3707 118 195 111
0.74401 -0.39378 0.3707 118 195 111
0.74401 -0.27566 0.52894 118 195 111
0.74401 -0.4328 0.41082 118 195 111
0.74401 -0.27566 0.74543 118 195 111
0.74401 -0.4328 0.8613 118 195 111
0.74401 -0.39378 0.89811 118 195 111
0.74401 -0.11601 0.89811 118 195 111
0.74401 -0.11601 0.74543 118 195 111
0.67682 0.7129 1.30028 105 177 99
0.74401 0.64759 1.30028 105 177 99
0.57912 0.5442 1.30028 105 177 99
0.57912 0.25549 1.30028 105 177 99
0.74401 0.25549 1.30028 105 177 99
0.31182 0.7129 1.30028 105 177 99
0.31182 0.5442 1.30028 105 177 99
0.31182 0.7129 1.4985 105 177 99
0.31182 0.5442 1.406 105 177 99
0.74401 0.2229 1.2701 105 177 99
0.57912 0.2229 1.2701 105 177 99
0.57912 0.2229 0.9656 105 177 99
0.74401 0.2229 0.9656 105 177 99
0.31182 0.6641 1.55701 105 177 99
0.31182 0.42229 1.55701 105 177 99
0.31182 0.42229 1.406 105 177 99
0.1669 0.42229 1.406 105 177 99
0.1669 0.42229 1.55701 105 177 99
0.1669 0.6641 1.55701 105 177 99
0.1669 0.5442 1.406 105 177 99
0.1669 0.7129 1.4985 105 177 99
0.1669 0.7129 1.17252 105 177 99
0.1669 0.5442 1.17252 105 177 99
0.19759 0.7129 1.14315 105 177 99
0.19759 0.5442 1.14315 105 177 99
0.67682 0.7129 1.14315 105 177 99
0.57912 0.5442 1.14315 105 177 99
0.74401 0.64759 1.14315 105 177 99
0.74401 0.38729 1.14315 105 177 99
0.57912 0.38729 1.14315 105 177 99
0.74401 0.38729 0.9656 105 177 99
0.57912 0.38729 0.9656 105 177 99
0.67682 0.7129 1.14315 118 195 111
0.74401 0.64759 1.14315 118 195 111
0.74401 0.64759 1.30028 118 195 111
0.67682 0.7129 1.30028 118 195 111
0.74401 0.25549 1.30028 118 195 111
0.74401 0.38729 1.14315 118 195 111
0.19759 0.7129 1.14315 118 195 111
0.31182 0.7129 1.30028 118 195 111
0.1669 0.7129 1.17252 118 195 111
0.1669 0.7129 1.4985 118 195 111
0.31182 0.7129 1.4985 118 195 111
0.1669 0.6641 1.55701 118 195 111
0.31182 0.6641 1.55701 118 195 111
0.1669 0.42229 1.55701 118 195 111
0.31182 0.42229 1.55701 118 195 111
0.74401 0.38729 0.9656 118 195 111
0.74401 0.2229 0.9656 118 195 111
0.74401 0.2229 1.2701 118 195 111
-0.06376 0.76177 0.69594 105 177 99
-0.09762 0.76177 0.72532 105 177 99
-0.09762 0.59688 0.72532 105 177 99
-0.06376 0.59688 0.69594 105 177 99
-0.09762 0.76177 1.36481 105 177 99
-0.09762 0.59688 1.36481 105 177 99
0.06062 0.59688 1.33944 105 177 99
0.06062 0.76177 1.33944 105 177 99
0.06062 0.76177 0.85308 105 177 99
0.06062 0.59688 0.85308 105 177 99
0.41816 0.76177 0.69594 105 177 99
0.41816 0.59688 0.69594 105 177 99
0.29717 0.59688 0.85308 105 177 99
0.29717 0.76177 0.85308 105 177 99
0.44985 0.59688 0.72786 105 177 99
0.44985 0.76177 0.72786 105 177 99
0.29717 0.59688 1.04597 105 177 99
0.29717 0.76177 1.04597 105 177 99
0.44985 0.59688 1.04597 105 177 99
0.44985 0.76177 1.04597 105 177 99
0.06062 0.76177 1.33944 118 195 111
-0.09762 0.76177 1.36481 118 195 111
-0.09762 0.76177 0.72532 118 195 111
0.06062 0.76177 0.85308 118 195 111
-0.06376 0.76177 0.69594 118 195 111
0.29717 0.76177 0.85308 118 195 111
0.41816 0.76177 0.69594 118 195 111
0.44985 0.76177 0.72786 118 195 111
0.29717 0.76177 1.04597 118 195 111
0.44985 0.76177 1.04597 118 195 111
-0.20437 0.5555 0.79081 105 177 99
-0.20437 0.72039 0.79081 105 177 99
-0.20437 0.72039 0.62592 105 177 99
-0.20437 0.5555 0.62592 105 177 99
-0.65729 0.72039 0.62592 105 177 99
-0.55366 0.5555 0.62592 105 177 99
-0.7119 0.66399 0.62592 105 177 99
-0.65729 0.72039 0.79081 105 177 99
-0.55366 0.5555 0.79081 105 177 99
-0.7119 0.66399 0.79081 105 177 99
-0.55366 0.43804 0.62592 105 177 99
-0.7119 0.43804 0.62592 105 177 99
-0.7119 0.29996 0.79081 105 177 99
-0.55366 0.29996 0.79081 105 177 99
-0.55366 0.27234 0.76316 105 177 99
-0.7119 0.27234 0.76316 105 177 99
-0.55366 0.43804 0.27333 105 177 99
-0.7119 0.43804 0.14114 105 177 99
-0.7119 0.27234 0.14114 105 177 99
-0.55366 0.27234 0.27333 105 177 99
-0.66498 0.43804 0.09795 105 177 99
-0.66498 0.27234 0.09795 105 177 99
-0.16085 0.27234 0.09795 105 177 99
-0.16085 0.27234 0.27333 105 177 99
-0.16085 0.43804 0.27333 105 177 99
-0.16085 0.43804 0.09795 105 177 99
-0.20437 0.72039 0.79081 118 195 111
-0.65729 0.72039 0.79081 118 195 111
-0.65729 0.72039 0.62592 118 195 111
-0.20437 0.72039 0.62592 118 195 111
-0.7119 0.66399 0.62592 118 195 111
-0.7119 0.66399 0.79081 118 195 111
-0.7119 0.29996 0.79081 118 195 111
-0.7119 0.43804 0.62592 118 195 111
-0.7119 0.27234 0.76316 118 195 111
-0.7119 0.43804 0.14114 118 195 111
-0.7119 0.27234 0.14114 118 195 111
-0.66498 0.27234 0.09795 118 195 111
-0.66498 0.43804 0.09795 118 195 111
-0.16085 0.27234 0.09795 118 195 111
-0.16085 0.43804 0.09795 118 195 111
-0.7119 -0.06553 1.50647 105 177 99
-0.66256 -0.06553 1.5636 105 177 99
-0.55366 -0.06553 1.39871 105 177 99
-0.7119 -0.06553 0.98169 105 177 99
-0.55366 -0.06553 0.98169 105 177 99
-0.12616 -0.06553 1.39871 105 177 99
-0.12616 -0.06553 1.5636 105 177 99
-0.55366 -0.02912 0.95405 105 177 99
-0.7119 -0.02912 0.95405 105 177 99
-0.7119 0.40772 0.95405 105 177 99
-0.55366 0.40772 0.95405 105 177 99
-0.12616 0.10017 1.39871 105 177 99
-0.12616 0.10017 1.5636 105 177 99
-0.55366 0.10017 1.39871 105 177 99
-0.66256 0.10017 1.5636 105 177 99
-0.7119 0.10017 1.50647 105 177 99
-0.55366 0.10017 1.12505 105 177 99
-0.7119 0.10017 1.12505 105 177 99
-0.55366 0.27755 1.12505 105 177 99
-0.7119 0.27755 1.12505 105 177 99
-0.7119 -0.06553 1.50647 118 195 111
-0.7119 0.10017 1.50647 118 195 111
-0.66256 0.10017 1.5636 118 195 111
-0.66256 -0.06553 1.5636 118 195 111
-0.7119 0.10017 1.12505 118 195 111
-0.7119 -0.06553 0.98169 118 195 111
-0.12616 -0.06553 1.5636 118 195 111
-0.12616 0.10017 1.5636 118 195 111
-0.7119 -0.02912 0.95405 118 195 111
-0.7119 0.40772 0.95405 118 195 111
-0.7119 0.27755 1.12505 118 195 111
-0.7119 0.44525 0.98873 118 195 111
-0.7119 0.27755 1.34874 118 195 111
-0.7119 0.44525 1.34874 118 195 111
-0.7119 0.44525 0.98873 105 177 99
-0.55366 0.44525 0.98873 105 177 99
-0.7119 0.44525 1.34874 105 177 99
-0.55366 0.44525 1.34874 105 177 99
-0.7119 0.27755 1.34874 105 177 99
-0.55366 0.27755 1.34874 105 177 99
-0.7119 -0.33717 1.50647 105 177 99
-0.66256 -0.33717 1.5636 105 177 99
-0.55366 -0.33717 1.39871 105 177 99
-0.7119 -0.33717 1.00332 105 177 99
-0.55366 -0.33717 1.00332 105 177 99
-0.46 -0.33717 1.39871 105 177 99
-0.46 -0.33717 1.5636 105 177 99
-0.46 -0.52178 1.39871 105 177 99
-0.46 -0.52178 1.5636 105 177 99
-0.27915 -0.52178 1.39871 105 177 99
-0.27915 -0.52178 1.5636 105 177 99
-0.7119 -0.70231 1.00332 105 177 99
-0.55366 -0.56311 1.00332 105 177 99
-0.66148 -0.74763 1.00332 105 177 99
-0.40179 -0.74763 1.00332 105 177 99
-0.40179 -0.56311 1.00332 105 177 99
-0.40179 -0.56311 0.83232 105 177 99
-0.40179 -0.74763 0.83232 105 177 99
-0.66148 -0.74763 0.83232 105 177 99
-0.55366 -0.56311 0.83232 105 177 99
-0.7119 -0.70231 0.83232 105 177 99
-0.7119 -0.20261 0.83232 105 177 99
-0.55366 -0.20261 0.83232 105 177 99
-0.7119 -0.33717 1.50647 118 195 111
-0.7119 -0.17148 1.50647 118 195 111
-0.66256 -0.17148 1.5636 118 195 111
-0.66256 -0.33717 1.5636 118 195 111
-0.7119 -0.17148 0.86787 118 195 111
-0.7119 -0.33717 1.00332 118 195 111
-0.46 -0.33717 1.5636 118 195 111
-0.31191 -0.17148 1.5636 118 195 111
-0.7119 -0.20261 0.83232 118 195 111
-0.7119 -0.70231 0.83232 118 195 111
-0.7119 -0.70231 1.00332 118 195 111
-0.66148 -0.74763 0.83232 118 195 111
-0.66148 -0.74763 1.00332 118 195 111
-0.40179 -0.74763 0.83232 118 195 111
-0.40179 -0.74763 1.00332 118 195 111
-0.27915 -0.20314 1.5636 118 195 111
-0.46 -0.52178 1.5636 118 195 111
-0.27915 -0.52178 1.5636 118 195 111
-0.7119 -0.17148 1.50647 105 177 99
-0.7119 -0.17148 0.86787 105 177 99
-0.55366 -0.17148 0.86787 105 177 99
-0.55366 -0.17148 1.39871 105 177 99
-0.66256 -0.17148 1.5636 105 177 99
-0.31191 -0.17148 1.5636 105 177 99
-0.31191 -0.17148 1.39871 105 177 99
-0.27915 -0.20314 1.39871 105 177 99
-0.27915 -0.20314 1.5636 105 177 99
0.53882 -0.44059 1.04042 105 177 99
0.70371 -0.44059 1.04042 105 177 99
0.70371 -0.44059 1.20531 105 177 99
0.53882 -0.44059 1.20531 105 177 99
0.70371 -0.66723 1.20531 105 177 99
0.53882 -0.5636 1.20531 105 177 99
0.70371 -0.66723 1.04042 105 177 99
0.53882 -0.5636 1.04042 105 177 99
0.64731 -0.72184 1.20531 105 177 99
0.26886 -0.5636 1.20531 105 177 99
0.26886 -0.72184 1.20531 105 177 99
0.26886 -0.5636 1.52392 105 177 99
0.26886 -0.72184 1.52392 105 177 99
0.10316 -0.5636 1.52392 105 177 99
0.10316 -0.72184 1.52392 105 177 99
0.10316 -0.5636 1.08184 105 177 99
0.10316 -0.72184 1.08184 105 177 99
0.15273 -0.72184 1.04042 105 177 99
0.15273 -0.5636 1.04042 105 177 99
0.64731 -0.72184 1.04042 105 177 99
0.70371 -0.44059 1.04042 118 195 111
0.70371 -0.66723 1.04042 118 195 111
0.70371 -0.66723 1.20531 118 195 111
0.70371 -0.44059 1.20531 118 195 111
0.64731 -0.72184 1.20531 118 195 111
0.64731 -0.72184 1.04042 118 195 111
0.26886 -0.72184 1.20531 118 195 111
0.15273 -0.72184 1.04042 118 195 111
0.10316 -0.72184 1.08184 118 195 111
0.26886 -0.72184 1.52392 118 195 111
0.10316 -0.72184 1.52392 118 195 111
0.26886 -0.5636 1.20531 110 184 103
0.26886 -0.5636 1.52392 110 184 103
0.10316 -0.5636 1.52392 110 184 103
0.10316 -0.5636 1.08184 110 184 103
-0.02774 -0.14437 1.38113 105 177 99
-0.02774 -0.14437 1.54602 105 177 99
-0.19263 -0.14437 1.54602 105 177 99
-0.19263 -0.14437 1.38113 105 177 99
-0.19263 -0.66723 1.54602 105 177 99
-0.19263 -0.5636 1.38113 105 177 99
-0.02774 -0.66723 1.54602 105 177 99
-0.02774 -0.5636 1.38113 105 177 99
-0.19263 -0.72184 1.48962 105 177 99
-0.19263 -0.5636 1.3423 105 177 99
-0.19263 -0.72184 1.3423 105 177 99
-0.6637 -0.5636 1.3423 105 177 99
-0.6637 -0.72184 1.3423 105 177 99
-0.02774 -0.72184 1.48962 105 177 99
-0.02774 -0.72184 1.2154 105 177 99
-0.02774 -0.5636 1.2154 105 177 99
-0.07135 -0.5636 1.1766 105 177 99
-0.07135 -0.72184 1.1766 105 177 99
-0.6637 -0.72184 1.1766 105 177 99
-0.6637 -0.5636 1.1766 105 177 99
-0.02774 -0.14437 1.54602 118 195 111
-0.02774 -0.66723 1.54602 118 195 111
-0.19263 -0.66723 1.54602 118 195 111
-0.19263 -0.14437 1.54602 118 195 111
-0.19263 -0.72184 1.48962 118 195 111
-0.02774 -0.72184 1.48962 118 195 111
-0.19263 -0.72184 1.3423 118 195 111
-0.02774 -0.72184 1.2154 118 195 111
-0.07135 -0.72184 1.1766 118 195 111
-0.6637 -0.72184 1.3423 118 195 111
-0.6637 -0.72184 1.1766 118 195 111
-0.21973 -0.27558 0.3218 105 177 99
-0.21973 -0.27558 0.15691 105 177 99
-0.21973 -0.44047 0.15691 105 177 99
-0.21973 -0.44047 0.3218 105 177 99
-0.67265 -0.44047 0.15691 105 177 99
-0.56902 -0.44047 0.3218 105 177 99
-0.72726 -0.44047 0.21331 105 177 99
-0.56901 -0.44047 0.55245 105 177 99
-0.72726 -0.44047 0.55245 105 177 99
-0.56901 -0.54933 0.55245 105 177 99
-0.72726 -0.65031 0.55245 105 177 99
-0.67486 -0.69867 0.55245 105 177 99
-0.40163 -0.54933 0.55245 105 177 99
-0.40163 -0.69867 0.55245 105 177 99
-0.40163 -0.69867 0.71814 105 177 99
-0.40163 -0.54933 0.71814 105 177 99
-0.56901 -0.54933 0.71814 105 177 99
-0.67486 -0.69867 0.71814 105 177 99
-0.72726 -0.65031 0.71814 105 177 99
-0.56901 -0.30998 0.71814 105 177 99
-0.72726 -0.30998 0.71814 105 177 99
-0.21973 -0.27558 0.15691 118 195 111
-0.67265 -0.27558 0.15691 118 195 111
-0.67265 -0.44047 0.15691 118 195 111
-0.21973 -0.44047 0.15691 118 195 111
-0.72726 -0.44047 0.21331 118 195 111
-0.72726 -0.27558 0.21331 118 195 111
-0.72726 -0.44047 0.55245 118 195 111
-0.72726 -0.27558 0.68181 118 195 111
-0.72726 -0.30998 0.71814 118 195 111
-0.72726 -0.65031 0.55245 118 195 111
-0.72726 -0.65031 0.71814 118 195 111
-0.67486 -0.69867 0.71814 118 195 111
-0.67486 -0.69867 0.55245 118 195 111
-0.40163 -0.69867 0.55245 118 195 111
-0.40163 -0.69867 0.71814 118 195 111
-0.67265 -0.27558 0.15691 105 177 99
-0.56902 -0.27558 0.3218 105 177 99
-0.72726 -0.27558 0.21331 105 177 99
-0.72726 -0.27558 0.68181 105 177 99
-0.56901 -0.27558 0.68181 105 177 99
-0.69622 -0.74674 0.32311 105 177 99
-0.10233 -0.74674 0.32311 105 177 99
-0.10233 -0.58185 0.32311 105 177 99
-0.69622 -0.58185 0.32311 105 177 99
-0.69622 -0.74674 0.48025 105 177 99
-0.69622 -0.58185 0.48025 105 177 99
-0.22323 -0.74674 0.48025 105 177 99
-0.22323 -0.58185 0.48025 105 177 99
-0.22323 -0.74674 0.63431 105 177 99
-0.22323 -0.58185 0.63431 105 177 99
-0.07055 -0.58185 0.35334 105 177 99
-0.07055 -0.74674 0.35334 105 177 99
-0.07055 -0.74674 0.5275 105 177 99
-0.07055 -0.58185 0.5275 105 177 99
0.08837 -0.58185 0.5275 105 177 99
0.08837 -0.74674 0.5275 105 177 99
0.08837 -0.58185 0.07829 105 177 99
0.08837 -0.74674 0.07829 105 177 99
0.25032 -0.58185 0.07829 105 177 99
0.25032 -0.74674 0.07829 105 177 99
0.25032 -0.58185 0.63706 105 177 99
0.25032 -0.74674 0.63706 105 177 99
0.21053 -0.74674 0.67335 105 177 99
0.21053 -0.58185 0.67335 105 177 99
-0.18641 -0.58185 0.67335 105 177 99
-0.18641 -0.74674 0.67335 105 177 99
-0.69622 -0.58185 0.32311 110 184 103
-0.10233 -0.58185 0.32311 110 184 103
-0.22323 -0.58185 0.48025 110 184 103
-0.69622 -0.58185 0.48025 110 184 103
-0.69622 -0.74674 0.32311 118 195 111
-0.69622 -0.74674 0.48025 118 195 111
-0.22323 -0.74674 0.48025 118 195 111
-0.10233 -0.74674 0.32311 118 195 111
-0.07055 -0.74674 0.35334 118 195 111
-0.07055 -0.74674 0.5275 118 195 111
-0.22323 -0.74674 0.63431 118 195 111
-0.18641 -0.74674 0.67335 118 195 111
0.08837 -0.74674 0.5275 118 195 111
0.21053 -0.74674 0.67335 118 195 111
0.25032 -0.74674 0.63706 118 195 111
0.08837 -0.74674 0.07829 118 195 111
0.25032 -0.74674 0.07829 118 195 111
0.52288 -0.65311 0.135 105 177 99
0.52288 -0.71024 0.18435 105 177 99
0.52288 -0.54535 0.29325 105 177 99
0.52288 -0.22641 0.135 105 177 99
0.52288 -0.22641 0.29325 105 177 99
0.52288 -0.54535 0.65497 105 177 99
0.52288 -0.71024 0.65497 105 177 99
0.80623 -0.54535 0.65497 105 177 99
0.80623 -0.71024 0.65497 105 177 99
0.49103 -0.19268 0.29325 105 177 99
0.49103 -0.19268 0.135 105 177 99
-0.09675 -0.19268 0.135 105 177 99
-0.09675 -0.19268 0.29325 105 177 99
-0.13678 -0.23043 0.135 105 177 99
-0.13678 -0.23043 0.29325 105 177 99
-0.13678 -0.36368 0.135 105 177 99
-0.13678 -0.36368 0.29325 105 177 99
-0.13678 -0.52931 0.29325 105 177 99
0.52288 -0.65311 0.135 118 195 111
0.40162 -0.65311 0.135 118 195 111
0.40162 -0.71024 0.18435 118 195 111
0.52288 -0.71024 0.18435 118 195 111
0.40162 -0.36368 0.135 118 195 111
0.52288 -0.22641 0.135 118 195 111
0.52288 -0.71024 0.65497 118 195 111
0.40162 -0.71024 0.78219 118 195 111
0.49103 -0.19268 0.135 118 195 111
0.44625 -0.71024 0.81782 118 195 111
0.80623 -0.71024 0.65497 118 195 111
0.80623 -0.71024 0.81782 118 195 111
0.03092 -0.36368 0.135 118 195 111
-0.09675 -0.19268 0.135 118 195 111
-0.13678 -0.23043 0.135 118 195 111
-0.13678 -0.36368 0.135 118 195 111
0.40162 -0.65311 0.135 105 177 99
0.40162 -0.36368 0.135 105 177 99
0.40162 -0.36368 0.29325 105 177 99
0.40162 -0.54535 0.29325 105 177 99
0.03092 -0.36368 0.29325 105 177 99
0.03092 -0.36368 0.135 105 177 99
0.03092 -0.52931 0.29325 105 177 99
0.40162 -0.54535 0.78219 105 177 99
0.40162 -0.71024 0.78219 105 177 99
0.40162 -0.71024 0.18435 105 177 99
0.44625 -0.54535 0.81782 105 177 99
0.44625 -0.71024 0.81782 105 177 99
0.80623 -0.71024 0.81782 105 177 99
0.80623 -0.54535 0.81782 105 177 99
-0.13678 -0.36368 0.05317 105 177 99
-0.13678 -0.52931 0.05317 105 177 99
0.03092 -0.52931 0.05317 105 177 99
0.03092 -0.36368 0.05317 105 177 99
-0.13678 -0.36368 0.135 110 184 103
-0.13678 -0.36368 0.05317 110 184 103
0.03092 -0.36368 0.05317 110 184 103
0.03092 -0.36368 0.135 110 184 103
-0.13678 -0.52931 0.29325 118 195 111
0.03092 -0.52931 0.29325 118 195 111
0.03092 -0.52931 0.05317 118 195 111
-0.13678 -0.52931 0.05317 118 195 111
-0.72726 -0.15583 0.63438 105 177 99
-0.56901 -0.15583 0.63438 105 177 99
-0.56901 -0.17781 0.60669 105 177 99
-0.72726 -0.17781 0.60669 105 177 99
-0.56901 -0.01212 0.63438 105 177 99
-0.72726 -0.01212 0.63438 105 177 99
-0.72726 -0.17781 0.19279 105 177 99
-0.56901 -0.17781 0.29377 105 177 99
-0.67486 -0.17781 0.14443 105 177 99
-0.47915 -0.17781 0.14443 105 177 99
-0.47915 -0.17781 0.29377 105 177 99
-0.47915 -0.01212 0.29377 105 177 99
-0.47915 -0.01212 0.14443 105 177 99
-0.56901 -0.01212 0.87861 105 177 99
-0.72726 -0.01212 0.87861 105 177 99
-0.56901 0.15351 0.87861 105 177 99
-0.72726 0.15351 0.87861 105 177 99
-0.72726 -0.15583 0.63438 118 195 111
-0.72726 -0.17781 0.60669 118 195 111
-0.72726 -0.01212 0.46949 118 195 111
-0.72726 -0.01212 0.19279 118 195 111
-0.72726 -0.17781 0.19279 118 195 111
-0.67486 -0.17781 0.14443 118 195 111
-0.67486 -0.01212 0.14443 118 195 111
-0.72726 -0.01212 0.63438 118 195 111
-0.72726 0.12713 0.46949 118 195 111
-0.72726 0.15351 0.50069 118 195 111
-0.72726 -0.01212 0.87861 118 195 111
-0.72726 0.15351 0.87861 118 195 111
-0.47915 -0.17781 0.14443 118 195 111
-0.47915 -0.01212 0.14443 118 195 111
-0.72726 -0.01212 0.46949 105 177 99
-0.72726 -0.01212 0.19279 105 177 99
-0.56901 -0.01212 0.29377 105 177 99
-0.56901 -0.01212 0.46949 105 177 99
-0.67486 -0.01212 0.14443 105 177 99
-0.72726 0.15351 0.50069 105 177 99
-0.72726 0.12713 0.46949 105 177 99
-0.56901 0.12713 0.46949 105 177 99
-0.56901 0.15351 0.50069 105 177 99
0.08333 0.70625 0.17042 105 177 99
0.08333 0.65691 0.11328 105 177 99
0.08333 0.54801 0.27817 105 177 99
0.08333 0.70625 0.50898 105 177 99
0.08333 0.54801 0.50898 105 177 99
0.08333 0.12051 0.27817 105 177 99
0.08333 0.12051 0.11328 105 177 99
-0.08237 0.12051 0.27817 105 177 99
-0.08237 0.12051 0.11328 105 177 99
-0.08237 0.54801 0.27817 105 177 99
-0.08237 0.65691 0.11328 105 177 99
0.04301 0.54801 0.54938 105 177 99
0.04301 0.70625 0.54938 105 177 99
-0.38722 0.70625 0.54938 105 177 99
-0.38722 0.54801 0.54938 105 177 99
-0.42745 0.70625 0.50898 105 177 99
-0.42745 0.54801 0.50898 105 177 99
-0.42745 0.70625 0.15411 105 177 99
-0.42745 0.54801 0.15411 105 177 99
0.08333 0.70625 0.17042 118 195 111
-0.08237 0.70625 0.17042 118 195 111
-0.08237 0.65691 0.11328 118 195 111
0.08333 0.65691 0.11328 118 195 111
-0.08237 0.70625 0.37838 118 195 111
0.08333 0.70625 0.50898 118 195 111
0.04301 0.70625 0.54938 118 195 111
-0.25975 0.70625 0.37838 118 195 111
-0.38722 0.70625 0.54938 118 195 111
-0.42745 0.70625 0.50898 118 195 111
-0.25975 0.70625 0.15411 118 195 111
-0.42745 0.70625 0.15411 118 195 111
-0.08237 0.70625 0.17042 105 177 99
-0.08237 0.70625 0.37838 105 177 99
-0.08237 0.54801 0.37838 105 177 99
-0.25975 0.54801 0.37838 105 177 99
-0.25975 0.70625 0.37838 105 177 99
-0.25975 0.54801 0.15411 105 177 99
-0.25975 0.70625 0.15411 105 177 99
-0.08237 0.12051 0.11328 118 195 111
0.08333 0.12051 0.11328 118 195 111
-0.25975 0.54801 0.37838 110 184 103
-0.25975 0.54801 0.15411 110 184 103
-0.42745 0.54801 0.15411 110 184 103
-0.42745 0.54801 0.50898 110 184 103
0.23523 0.73391 0.61482 118 195 111
0.19876 0.73391 0.57643 118 195 111
0.36365 0.73391 0.45463 118 195 111
0.36365 0.73391 0.19198 118 195 111
0.19876 0.73391 0.19198 118 195 111
0.36365 0.67751 0.13738 118 195 111
0.19876 0.67751 0.13738 118 195 111
0.77905 0.73391 0.61482 118 195 111
0.77905 0.73391 0.45463 118 195 111
0.19876 0.19138 0.13738 105 177 99
0.19876 0.19138 0.29562 105 177 99
0.36365 0.19138 0.29562 105 177 99
0.36365 0.19138 0.13738 105 177 99
0.36365 0.67751 0.13738 105 177 99
0.36365 0.56901 0.29562 105 177 99
0.36365 0.73391 0.19198 105 177 99
0.19876 0.56901 0.29562 105 177 99
0.19876 0.67751 0.13738 105 177 99
0.19876 0.73391 0.19198 105 177 99
0.19876 0.56901 0.57643 105 177 99
0.19876 0.73391 0.57643 105 177 99
0.36365 0.73391 0.45463 105 177 99
0.36365 0.56901 0.45463 105 177 99
0.23523 0.73391 0.61482 105 177 99
0.23523 0.56901 0.61482 105 177 99
0.77905 0.56901 0.61482 105 177 99
0.77905 0.73391 0.61482 105 177 99
0.77905 0.73391 0.45463 105 177 99
0.77905 0.56901 0.45463 105 177 99
0.19876 0.19138 0.13738 118 195 111
0.36365 0.19138 0.13738 118 195 111
3 0 2 1
3 3 0 1
3 3 1 4
3 5 0 3
3 5 2 0
3 1 2 6
3 1 6 7
3 7 6 8
3 9 8 6
3 9 10 8
3 10 9 11
3 3 10 11
3 4 10 3
3 4 12 10
3 8 10 12
3 8 12 7
3 3 11 13
3 5 3 13
3 14 16 15
3 14 17 16
3 18 16 17
3 18 19 16
3 19 15 16
3 19 20 15
3 20 14 15
3 20 21 14
3 22 24 23
3 22 23 25
3 22 25 26
3 25 27 26
3 25 28 27
3 29 27 28
3 29 30 27
3 30 26 27
3 30 22 26
3 31 30 29
3 19 22 30
3 22 19 24
3 19 30 20
3 31 20 30
3 21 20 31
3 24 19 18
3 32 34 33
3 32 35 34
3 33 34 36
3 33 36 37
3 38 40 39
3 41 40 38
3 41 42 40
3 40 43 39
3 40 44 43
3 44 45 43
3 46 43 45
3 46 45 47
3 47 48 46
3 41 48 47
3 42 41 47
3 42 47 49
3 45 49 47
3 45 44 49
3 41 50 48
3 41 51 50
3 51 41 38
3 51 38 39
3 52 54 53
3 52 55 54
3 56 55 52
3 56 57 55
3 57 54 55
3 57 58 54
3 58 53 54
3 58 59 53
3 60 62 61
3 60 63 62
3 64 61 62
3 64 62 65
3 65 62 63
3 65 63 66
3 66 63 60
3 58 65 66
3 58 57 65
3 66 60 67
3 66 67 68
3 66 68 58
3 58 68 59
3 57 69 65
3 65 69 64
3 56 69 57
3 70 72 71
3 70 73 72
3 73 74 72
3 73 75 74
3 76 78 77
3 76 79 78
3 80 76 77
3 78 80 77
3 80 81 76
3 80 82 81
3 82 83 81
3 82 84 83
3 80 85 82
3 81 86 76
3 81 83 86
3 82 85 87
3 85 88 87
3 87 88 89
3 87 89 90
3 82 87 90
3 85 91 88
3 84 82 90
3 84 90 92
3 93 84 92
3 93 83 84
3 93 94 83
3 83 94 95
3 94 96 95
3 94 97 96
3 83 95 86
3 93 92 98
3 95 99 86
3 95 96 99
3 86 99 79
3 86 79 76
3 92 100 98
3 100 93 98
3 92 101 100
3 90 101 92
3 90 89 101
3 102 94 93
3 102 97 94
3 100 102 93
3 103 96 97
3 102 103 97
3 103 104 96
3 104 99 96
3 105 104 103
3 106 105 103
3 102 106 103
3 100 106 102
3 106 107 105
3 105 108 104
3 104 108 99
3 108 79 99
3 106 109 107
3 109 100 101
3 106 110 109
3 109 110 100
3 100 110 106
3 107 109 111
3 111 101 89
3 111 109 101
3 112 111 89
3 112 89 88
3 113 112 88
3 113 88 91
3 107 111 114
3 114 112 113
3 114 111 112
3 115 114 113
3 115 116 114
3 114 116 105
3 114 105 107
3 115 117 116
3 115 118 117
3 117 118 78
3 78 118 115
3 117 78 79
3 116 108 105
3 116 117 108
3 113 119 115
3 113 120 119
3 108 117 79
3 78 115 121
3 78 121 80
3 80 121 122
3 80 122 123
3 115 124 121
3 121 124 122
3 80 123 125
3 80 125 126
3 127 80 126
3 85 80 127
3 85 127 128
3 85 128 129
3 129 91 85
3 91 129 130
3 91 130 131
3 130 132 131
3 130 133 132
3 134 131 132
3 134 91 131
3 134 132 135
3 91 134 113
3 113 134 136
3 113 136 120
3 137 139 138
3 137 140 139
3 138 141 137
3 137 141 142
3 138 143 141
3 144 138 139
3 144 139 145
3 138 146 143
3 138 144 146
3 144 147 146
3 142 141 148
3 148 141 149
3 149 141 150
3 150 141 151
3 146 147 152
3 152 153 146
3 153 154 146
3 153 155 154
3 152 147 156
3 115 119 157
3 115 157 124
3 124 157 158
3 124 158 159
3 160 162 161
3 160 163 162
3 164 166 165
3 164 167 166
3 168 166 167
3 168 169 166
3 170 169 168
3 170 164 165
3 170 168 171
3 170 171 164
3 171 168 172
3 171 172 173
3 164 171 173
3 168 174 172
3 168 167 174
3 167 175 174
3 167 164 175
3 164 173 175
3 176 178 177
3 176 179 178
3 180 182 181
3 180 183 182
3 184 181 182
3 184 182 185
3 186 184 185
3 186 183 180
3 186 187 184
3 186 180 187
3 187 188 184
3 187 189 188
3 180 189 187
3 184 190 181
3 184 188 190
3 181 191 180
3 181 190 191
3 180 191 189
3 192 194 193
3 192 195 194
3 195 196 194
3 195 197 196
3 198 192 193
3 198 199 192
3 199 198 200
3 199 200 201
3 202 201 200
3 202 203 201
3 203 202 204
3 203 204 205
3 205 204 206
3 205 206 207
3 205 207 208
3 208 207 209
3 208 209 210
3 210 209 211
3 210 211 212
3 213 212 211
3 213 214 212
3 213 215 214
3 213 216 215
3 217 215 216
3 217 218 215
3 219 218 217
3 220 218 219
3 220 221 218
3 222 221 220
3 222 223 221
3 223 222 196
3 223 196 197
3 224 226 225
3 224 227 226
3 225 229 228
3 225 230 229
3 225 226 230
3 228 229 231
3 231 229 232
3 231 232 233
3 234 233 232
3 234 232 235
3 234 235 236
3 234 236 237
3 237 236 238
3 237 238 239
3 237 239 240
3 241 243 242
3 241 244 243
3 243 244 245
3 243 245 246
3 246 245 247
3 241 242 248
3 241 248 249
3 246 247 250
3 246 250 251
3 251 250 252
3 252 250 253
3 252 253 254
3 254 253 255
3 254 257 256
3 254 255 257
3 258 260 259
3 258 261 260
3 261 258 262
3 261 262 263
3 263 262 264
3 263 264 265
3 266 265 264
3 266 264 267
3 266 267 268
3 266 268 269
3 270 259 260
3 270 271 259
3 272 271 270
3 271 272 273
3 271 273 274
3 275 274 273
3 275 273 276
3 277 279 278
3 277 280 279
3 281 278 279
3 281 282 278
3 282 281 283
3 282 283 284
3 280 277 285
3 280 285 286
3 286 285 287
3 286 287 288
3 288 287 269
3 288 269 268
3 284 283 289
3 289 283 275
3 289 275 276
3 290 292 291
3 290 293 292
3 293 294 292
3 293 295 294
3 294 295 296
3 296 295 297
3 296 297 298
3 298 297 299
3 298 299 300
3 300 299 301
3 300 301 302
3 303 302 301
3 303 304 302
3 305 307 306
3 305 308 307
3 309 306 307
3 309 310 306
3 310 309 311
3 310 311 312
3 312 311 313
3 313 311 314
3 313 314 315
3 316 290 291
3 316 317 290
3 318 317 316
3 317 318 319
3 317 319 320
3 303 320 319
3 303 319 304
3 321 323 322
3 321 324 323
3 325 322 323
3 325 323 326
3 324 321 327
3 324 327 328
3 329 328 327
3 329 327 330
3 329 330 331
3 329 331 332
3 325 334 333
3 325 326 334
3 334 335 333
3 334 336 335
3 335 336 337
3 335 337 338
3 338 337 339
3 338 339 340
3 340 339 332
3 340 332 331
3 341 343 342
3 341 344 343
3 343 344 345
3 345 344 346
3 345 346 347
3 347 346 348
3 348 350 349
3 348 346 350
3 351 353 352
3 352 353 354
3 352 354 355
3 353 351 356
3 353 356 357
3 357 356 358
3 357 358 359
3 360 355 354
3 360 354 361
3 360 361 362
3 360 362 363
3 359 358 364
3 359 364 365
3 359 365 366
3 367 366 365
3 367 365 368
3 369 367 368
3 369 370 367
3 371 370 369
3 372 370 371
3 372 373 370
3 373 372 374
3 373 374 375
3 376 375 374
3 376 377 375
3 376 378 377
3 377 378 379
3 377 379 380
3 380 379 381
3 380 381 382
3 382 381 363
3 382 363 362
3 383 385 384
3 383 386 385
3 384 385 387
3 384 387 388
3 386 383 389
3 386 389 390
3 390 389 391
3 390 391 392
3 390 392 393
3 394 393 392
3 394 395 393
3 395 394 396
3 395 396 397
3 388 399 398
3 388 400 399
3 388 387 400
3 401 403 402
3 401 404 403
3 405 402 403
3 405 403 406
3 405 406 407
3 405 407 408
3 407 409 408
3 407 410 409
3 404 401 411
3 404 411 412
3 409 410 413
3 409 413 414
3 415 412 411
3 415 411 416
3 414 413 417
3 414 417 418
3 418 417 419
3 418 419 420
3 415 420 419
3 415 416 420
3 421 423 422
3 421 424 423
3 423 424 425
3 425 424 426
3 425 426 427
3 427 426 428
3 428 426 429
3 428 429 430
3 431 433 432
3 431 434 433
3 434 435 433
3 434 436 435
3 435 436 437
3 438 431 432
3 438 439 431
3 440 439 438
3 437 436 441
3 437 441 442
3 439 440 443
3 439 443 444
3 445 444 443
3 445 443 446
3 442 441 447
3 442 447 448
3 445 446 449
3 445 449 450
3 448 447 451
3 450 449 452
3 450 452 453
3 450 453 454
3 455 454 453
3 455 453 456
3 451 447 455
3 451 455 456
3 457 459 458
3 457 460 459
3 461 458 459
3 461 462 458
3 462 464 463
3 462 461 464
3 463 464 465
3 465 464 466
3 465 466 467
3 468 467 466
3 468 466 469
3 468 471 470
3 468 469 471
3 472 474 473
3 474 472 475
3 474 475 476
3 473 474 477
3 473 477 478
3 479 476 475
3 479 475 480
3 479 480 481
3 479 481 482
3 483 478 477
3 483 484 478
3 485 484 483
3 485 486 484
3 487 486 485
3 487 485 488
3 487 488 489
3 489 488 490
3 489 490 491
3 492 494 493
3 492 495 494
3 492 493 496
3 492 496 497
3 494 495 498
3 494 498 499
3 497 496 500
3 500 502 501
3 500 496 502
3 501 502 503
3 503 502 504
3 503 504 505
3 506 482 481
3 506 507 482
3 507 506 508
3 507 508 509
3 510 509 508
3 510 511 509
3 491 511 510
3 491 490 511
3 512 514 513
3 514 512 515
3 514 515 516
3 513 514 517
3 513 517 518
3 518 517 519
3 518 519 520
3 520 519 521
3 520 521 522
3 516 515 523
3 516 523 524
3 524 523 525
3 524 525 526
3 524 526 527
3 528 527 526
3 528 526 529
3 530 528 529
3 530 531 528
3 532 531 530
3 533 531 532
3 533 534 531
3 535 537 536
3 535 538 537
3 535 536 539
3 535 539 540
3 537 538 541
3 537 541 542
3 540 539 543
3 540 543 544
3 540 544 545
3 546 545 544
3 546 547 545
3 547 546 548
3 547 548 549
3 550 541 551
3 550 551 552
3 553 555 554
3 553 556 555
3 553 557 556
3 556 557 558
3 556 558 559
3 533 554 555
3 533 555 534
3 560 559 558
3 560 558 561
3 560 561 522
3 560 522 521
3 542 541 550
3 562 564 563
3 562 565 564
3 565 566 564
3 565 567 566
3 568 562 563
3 568 569 562
3 566 567 570
3 570 567 571
3 570 571 572
3 572 571 573
3 572 573 574
3 574 573 575
3 574 575 576
3 577 576 575
3 577 578 576
3 577 579 578
3 577 580 579
3 569 579 580
3 569 581 579
3 581 569 568
3 582 584 583
3 582 585 584
3 586 583 584
3 586 587 583
3 587 586 588
3 587 588 589
3 589 588 590
3 590 588 591
3 590 591 592
3 593 595 594
3 593 596 595
3 597 599 598
3 597 600 599
3 600 601 599
3 600 602 601
3 603 597 598
3 603 604 597
3 601 602 605
3 605 602 606
3 605 606 607
3 607 606 608
3 607 608 609
3 610 604 603
3 604 610 611
3 604 611 612
3 613 612 611
3 613 611 614
3 613 614 615
3 613 615 616
3 609 616 615
3 609 608 616
3 606 616 608
3 606 613 616
3 617 619 618
3 617 620 619
3 621 618 619
3 621 622 618
3 622 621 623
3 622 623 624
3 624 623 625
3 625 623 626
3 625 626 627
3 628 630 629
3 628 631 630
3 631 632 630
3 631 633 632
3 632 633 634
3 634 633 635
3 634 635 636
3 636 635 637
3 636 637 638
3 638 637 639
3 639 637 640
3 639 640 641
3 640 642 641
3 640 643 642
3 644 642 643
3 644 645 642
3 644 646 645
3 647 646 644
3 647 648 646
3 649 651 650
3 649 652 651
3 653 650 651
3 653 654 650
3 654 653 655
3 654 655 656
3 656 655 657
3 657 655 658
3 657 658 659
3 660 659 658
3 660 658 661
3 660 661 662
3 660 662 663
3 664 628 629
3 664 665 628
3 666 665 664
3 665 666 667
3 665 667 668
3 647 668 667
3 647 667 648
3 669 671 670
3 669 672 671
3 673 672 669
3 673 674 672
3 674 673 675
3 674 675 676
3 676 675 677
3 676 677 678
3 670 671 679
3 670 679 680
3 681 680 679
3 681 679 682
3 681 682 683
3 681 683 684
3 684 683 685
3 684 685 686
3 686 685 687
3 686 687 688
3 689 688 687
3 689 690 688
3 689 691 690
3 689 692 691
3 693 691 692
3 693 694 691
3 678 694 693
3 678 677 694
3 695 697 696
3 695 698 697
3 699 701 700
3 699 702 701
3 701 702 703
3 701 703 704
3 701 704 705
3 705 704 706
3 706 704 707
3 706 707 708
3 708 707 709
3 709 707 710
3 709 710 711
3 685 689 687
3 685 683 689
3 712 714 713
3 714 712 715
3 714 715 716
3 713 714 717
3 713 717 718
3 718 717 719
3 718 719 720
3 721 716 715
3 721 715 722
3 721 722 723
3 721 723 724
3 724 723 725
3 724 725 726
3 727 726 725
3 727 728 726
3 728 727 729
3 730 732 731
3 730 733 732
3 730 731 734
3 730 734 735
3 732 733 736
3 732 736 737
3 735 734 738
3 737 736 739
3 739 736 740
3 739 740 741
3 738 734 742
3 738 742 743
3 743 742 744
3 744 742 745
3 746 748 747
3 746 749 748
3 747 748 750
3 747 750 751
3 751 750 752
3 749 754 753
3 749 755 754
3 756 753 754
3 756 754 757
3 756 757 758
3 756 758 759
3 717 756 759
3 717 759 719
3 720 719 759
3 720 759 758
3 746 755 749
3 760 762 761
3 760 763 762
3 751 762 763
3 751 752 762
3 729 760 761
3 729 727 760
3 764 766 765
3 764 767 766
3 768 770 769
3 768 771 770
3 772 774 773
3 772 775 774
3 776 772 773
3 776 777 772
3 774 775 778
3 774 778 779
3 779 778 780
3 779 780 781
3 779 781 782
3 783 782 781
3 783 781 784
3 777 776 785
3 777 785 786
3 786 785 787
3 786 787 788
3 789 791 790
3 790 791 792
3 790 792 793
3 794 793 792
3 794 792 795
3 796 791 789
3 791 796 797
3 797 796 798
3 798 796 799
3 798 799 800
3 794 802 801
3 794 795 802
3 803 805 804
3 803 806 805
3 804 805 807
3 807 805 783
3 807 783 784
3 808 810 809
3 808 811 810
3 811 808 788
3 811 788 787
3 806 809 810
3 806 803 809
3 812 814 813
3 814 812 815
3 814 815 816
3 813 814 817
3 813 817 818
3 819 818 817
3 819 820 818
3 821 820 819
3 821 822 820
3 823 816 815
3 823 815 824
3 823 824 825
3 823 825 826
3 827 826 825
3 827 828 826
3 828 827 829
3 828 829 830
3 831 833 832
3 831 834 833
3 831 832 835
3 831 835 836
3 836 835 837
3 837 835 838
3 837 838 839
3 839 838 840
3 840 838 841
3 840 841 842
3 843 845 844
3 843 821 845
3 843 822 821
3 844 845 846
3 844 846 847
3 847 846 848
3 847 848 849
3 833 851 850
3 833 834 851
3 849 830 829
3 849 848 830
3 852 854 853
3 852 855 854
3 856 858 857
3 857 858 859
3 857 859 860
3 861 860 859
3 861 862 860
3 858 856 863
3 858 863 864
3 865 867 866
3 865 868 867
3 869 867 868
3 869 870 867
3 871 870 869
3 872 865 866
3 872 873 865
3 873 872 874
3 874 872 875
3 874 875 876
3 877 870 871
3 877 878 870
3 879 876 875
3 879 875 880
3 879 880 881
3 879 881 882
3 878 877 883
3 878 883 884
3 880 878 884
3 880 884 881
3 881 884 883
3 881 883 882
3 862 886 885
3 862 861 886
