ply
format ascii 1.0
element vertex 668
property float x
property float y
property float z
property uchar red
property uchar green
property uchar blue
element face 756
property list uchar int vertex_index
end_header
1.16755 -0.4259 2.12592 89 161 190
2.34902 -0.42652 1.45137 89 161 190
2.03803 -0.42673 0.9065 89 161 190
0.85652 -0.4259 1.58108 89 161 190
0.77028 -0.33358 1.63021 89 161 190
1.08119 -0.33358 2.17488 89 161 190
1.17247 -0.28857 2.20788 89 161 190
1.2285 -0.35101 2.1759 89 161 190
1.08119 0.38242 2.17488 89 161 190
1.17247 0.33741 2.20788 89 161 190
0.77028 0.38242 1.63021 89 161 190
1.16755 0.48377 2.12592 89 161 190
1.2285 0.39995 2.1759 89 161 190
2.32234 0.39959 1.55176 89 161 190
2.34809 0.48315 1.45156 89 161 190
0.85652 0.48377 1.58108 89 161 190
2.38556 0.31068 1.51515 89 161 190
2.41397 0.39426 1.41397 89 161 190
2.38618 -0.26303 1.51499 89 161 190
2.41461 -0.34632 1.41384 89 161 190
2.32265 -0.35137 1.55169 89 161 190
2.0371 0.48294 0.9067 89 161 190
0.84444 0.39995 1.50325 89 161 190
1.9383 0.39941 0.8791 89 161 190
0.78859 0.3374 1.53536 89 161 190
0.78859 -0.28857 1.53536 89 161 190
2.10298 0.39401 0.86911 89 161 190
2.10362 -0.34658 0.86898 89 161 190
2.00217 -0.26331 0.84231 89 161 190
2.00155 0.3104 0.84247 89 161 190
1.93861 -0.35155 0.87902 89 161 190
0.84444 -0.35101 1.50325 89 161 190
1.2285 0.39995 2.1759 92 167 197
2.32234 0.39959 1.55176 92 167 197
2.32265 -0.35137 1.55169 92 167 197
1.2285 -0.35101 2.1759 92 167 197
1.17247 -0.28857 2.20788 92 167 197
1.17247 0.33741 2.20788 92 167 197
2.38618 -0.26303 1.51499 92 167 197
2.38556 0.31068 1.51515 92 167 197
2.29878 -0.19068 1.23631 244 244 247
2.36433 -0.19064 1.35113 244 244 247
2.4536 -0.19047 1.30012 244 244 247
2.38812 -0.19051 1.18526 244 244 247
2.29876 -0.07588 1.23627 244 244 247
2.3881 -0.07571 1.18522 244 244 247
2.45358 -0.07567 1.30008 244 244 247
2.36433 -0.19064 1.35113 250 250 253
2.36431 -0.07584 1.35109 250 250 253
2.45358 -0.07567 1.30008 250 250 253
2.4536 -0.19047 1.30012 250 250 253
2.36431 -0.07584 1.35109 244 244 247
2.29847 0.1354 1.23634 244 244 247
2.36402 0.13544 1.35116 244 244 247
2.45354 0.13561 1.30001 244 244 247
2.38806 0.13557 1.18515 244 244 247
2.29832 0.25048 1.23638 244 244 247
2.38804 0.25037 1.18511 244 244 247
2.36386 0.25052 1.3512 244 244 247
2.45352 0.2504 1.29998 244 244 247
2.36402 0.13544 1.35116 250 250 253
2.36386 0.25052 1.3512 250 250 253
2.45352 0.2504 1.29998 250 250 253
2.45354 0.13561 1.30001 250 250 253
2.29869 -0.02769 1.23628 244 244 247
2.36424 -0.02765 1.35111 244 244 247
2.45356 -0.02744 1.30004 244 244 247
2.38808 -0.02748 1.18518 244 244 247
2.29854 0.0871 1.23632 244 244 247
2.38806 0.08732 1.18514 244 244 247
2.45354 0.08736 1.30001 244 244 247
2.36424 -0.02765 1.35111 250 250 253
2.36409 0.08714 1.35115 250 250 253
2.45354 0.08736 1.30001 250 250 253
2.45356 -0.02744 1.30004 250 250 253
2.36409 0.08714 1.35115 244 244 247
2.30062 -0.34062 1.23537 244 244 247
2.36612 -0.34052 1.35022 244 244 247
2.45369 -0.34063 1.30027 244 244 247
2.38821 -0.34073 1.18541 244 244 247
2.36612 -0.34052 1.35022 250 250 253
2.36602 -0.24362 1.35018 250 250 253
2.45364 -0.24373 1.30019 250 250 253
2.45369 -0.34063 1.30027 250 250 253
2.36602 -0.24362 1.35018 244 244 247
2.30051 -0.24372 1.23533 244 244 247
2.38816 -0.24383 1.18533 244 244 247
2.45364 -0.24373 1.30019 244 244 247
2.29845 0.30154 1.23631 244 244 247
2.36401 0.30152 1.35112 244 244 247
2.45353 0.30134 1.29999 244 244 247
2.38805 0.30136 1.18513 244 244 247
2.36401 0.30152 1.35112 250 250 253
2.36456 0.39005 1.35083 250 250 253
2.45354 0.38988 1.3 250 250 253
2.45353 0.30134 1.29999 250 250 253
2.36456 0.39005 1.35083 244 244 247
2.299 0.39007 1.23601 244 244 247
2.38806 0.3899 1.18514 244 244 247
2.45354 0.38988 1.3 244 244 247
1.17936 -1.02106 2.17915 89 161 190
1.17936 -1.02106 0.11491 89 161 190
0.93233 -1.02106 0.5298 89 161 190
0.93305 -1.02106 2.17915 89 161 190
1.34784 -0.85258 2.17915 89 161 190
1.12597 -0.90508 2.26962 89 161 190
1.24989 -0.79314 2.26962 89 161 190
1.34784 -0.85258 0.11491 89 161 190
1.17936 -0.74694 0.03544 89 161 190
1.06283 -0.85258 0.03544 89 161 190
1.34784 0.90296 0.11491 89 161 190
1.34784 0.90296 2.17915 89 161 190
1.06235 0.90296 0.03544 89 161 190
1.17936 0.79769 0.03544 89 161 190
0.93288 -0.90508 2.26962 89 161 190
0.86707 -1.02106 0.44619 89 161 190
-1.06283 -0.85258 0.03544 89 161 190
-1.17936 -1.02106 0.11491 89 161 190
-1.17936 -0.74694 0.03544 89 161 190
-1.34784 -0.85258 0.11491 89 161 190
-1.06235 0.90296 0.03544 89 161 190
-1.17936 0.79769 0.03544 89 161 190
-1.34784 0.90296 0.11491 89 161 190
-1.34784 -0.85258 2.17915 89 161 190
-1.34784 0.90296 2.17915 89 161 190
-1.17936 -1.02106 2.17915 89 161 190
-1.12597 -0.90508 2.26962 89 161 190
-1.24989 -0.79314 2.26962 89 161 190
-0.86707 -1.02106 0.44619 89 161 190
-0.93208 -1.02106 2.17915 89 161 190
-0.93216 -0.90508 2.26962 89 161 190
-0.93228 -1.02106 0.5298 89 161 190
1.24989 0.84352 2.26962 89 161 190
1.12597 0.95546 2.26962 89 161 190
1.17936 1.07144 2.17915 89 161 190
1.17936 1.07144 0.11491 89 161 190
-1.12597 0.95546 2.26962 89 161 190
-1.17936 1.07144 2.17915 89 161 190
-1.17936 1.07144 0.11491 89 161 190
-1.24989 0.84352 2.26962 89 161 190
0.93233 -1.02106 0.5298 254 235 211
-0.93228 -1.02106 0.5298 254 235 211
-0.93208 -1.02106 2.17915 254 235 211
0.93305 -1.02106 2.17915 254 235 211
0.93288 -0.90508 2.26962 254 235 211
-0.93216 -0.90508 2.26962 254 235 211
0.86707 -1.02106 0.44619 254 235 211
-0.86707 -1.02106 0.44619 254 235 211
1.12597 0.95546 2.26962 92 167 197
1.24989 0.84352 2.26962 92 167 197
0.93288 0.34482 2.26962 92 167 197
1.24989 -0.79314 2.26962 92 167 197
-0.93216 0.34482 2.26962 92 167 197
-1.12597 0.95546 2.26962 92 167 197
-1.24989 0.84352 2.26962 92 167 197
-1.24989 -0.79314 2.26962 92 167 197
1.12597 -0.90508 2.26962 92 167 197
0.93288 -0.90508 2.26962 92 167 197
-0.93216 -0.90508 2.26962 92 167 197
-1.12597 -0.90508 2.26962 92 167 197
0.93288 0.34482 2.26962 254 239 220
0.93288 -0.90508 2.26962 254 239 220
-0.93216 -0.90508 2.26962 254 239 220
-0.93216 0.34482 2.26962 254 239 220
1.00674 0.62488 3.18073 89 161 190
0.93733 0.56282 3.2608 89 161 190
0.85747 0.64973 3.2608 89 161 190
0.93733 0.72387 3.18073 89 161 190
1.00674 0.62488 2.25628 89 161 190
0.93733 0.72387 2.25628 89 161 190
1.00674 -0.56392 3.18073 89 161 190
1.00674 -0.56392 2.25628 89 161 190
0.93733 -0.50186 3.2608 89 161 190
0.93733 -0.66291 2.25628 89 161 190
0.93733 -0.66291 3.18073 89 161 190
0.85747 -0.58877 3.2608 89 161 190
0.75984 -0.66291 2.93329 89 161 190
0.75984 -0.66291 2.25628 89 161 190
0.70411 -0.66291 3.01399 89 161 190
-0.85747 0.64973 3.2608 89 161 190
-0.93733 0.72387 3.18073 89 161 190
-0.93733 0.72387 2.25628 89 161 190
-1.00674 0.62488 3.18073 89 161 190
-0.93733 0.56282 3.2608 89 161 190
-1.00674 0.62488 2.25628 89 161 190
-1.00674 -0.56392 3.18073 89 161 190
-1.00674 -0.56392 2.25628 89 161 190
-0.93733 -0.66291 3.18073 89 161 190
-0.85747 -0.58877 3.2608 89 161 190
-0.93733 -0.50186 3.2608 89 161 190
-0.93733 -0.66291 2.25628 89 161 190
-0.75984 -0.66291 2.93329 89 161 190
-0.75984 -0.66291 2.25628 89 161 190
-0.70411 -0.66291 3.01399 89 161 190
-0.28387 -0.66291 3.01399 89 161 190
0.28387 -0.66291 3.01399 89 161 190
-0.0532 -0.66291 2.85007 89 161 190
0.0532 -0.66291 2.85007 89 161 190
0.0532 -0.66291 2.85007 254 235 211
0.28387 -0.66291 3.01399 254 235 211
0.75984 -0.66291 2.93329 254 235 211
0.70411 -0.66291 3.01399 254 235 211
0.75984 -0.66291 2.25628 254 235 211
-0.0532 -0.66291 2.85007 254 235 211
-0.75984 -0.66291 2.25628 254 235 211
-0.75984 -0.66291 2.93329 254 235 211
-0.28387 -0.66291 3.01399 254 235 211
-0.70411 -0.66291 3.01399 254 235 211
0.85747 0.64973 3.2608 92 167 197
0.93733 0.56282 3.2608 92 167 197
0.93733 -0.50186 3.2608 92 167 197
0.85747 -0.58877 3.2608 92 167 197
-0.85747 -0.58877 3.2608 92 167 197
-0.85747 0.64973 3.2608 92 167 197
-0.93733 -0.50186 3.2608 92 167 197
-0.93733 0.56282 3.2608 92 167 197
0.21127 -0.67706 2.63839 93 90 84
0.21127 -0.67706 2.69077 93 90 84
0.63276 -0.67706 2.69077 93 90 84
0.63276 -0.67706 2.63839 93 90 84
0.63276 -0.65822 2.69077 93 90 84
0.21127 -0.65822 2.69077 93 90 84
0.21127 -0.65822 2.63839 93 90 84
0.63276 -0.65822 2.63839 93 90 84
-0.21127 -0.67706 2.63839 93 90 84
-0.63276 -0.67706 2.63839 93 90 84
-0.63276 -0.67706 2.69077 93 90 84
-0.21127 -0.67706 2.69077 93 90 84
-0.63276 -0.65822 2.69077 93 90 84
-0.21127 -0.65822 2.69077 93 90 84
-0.21127 -0.65822 2.63839 93 90 84
-0.63276 -0.65822 2.63839 93 90 84
0.46502 -0.20183 3.16138 89 161 190
0.46502 -0.20183 3.52257 89 161 190
0.52456 -0.24929 3.52257 89 161 190
0.52456 -0.24929 3.16138 89 161 190
0.56219 -0.20123 3.56985 89 161 190
0.52228 -0.16675 3.56985 89 161 190
0.46502 0.08296 3.16138 89 161 190
0.46502 0.08296 3.52257 89 161 190
0.81806 -0.24929 3.16138 89 161 190
0.81806 -0.24929 3.52257 89 161 190
0.87642 -0.20183 3.16138 89 161 190
0.87642 -0.20183 3.52257 89 161 190
0.87642 0.08296 3.52257 89 161 190
0.87642 0.08296 3.16138 89 161 190
0.78043 -0.20123 3.56985 89 161 190
0.82034 -0.16675 3.56985 89 161 190
0.82034 0.0484 3.56985 89 161 190
0.81806 0.13042 3.52257 89 161 190
0.78043 0.08349 3.56985 89 161 190
0.52456 0.13042 3.52257 89 161 190
0.56219 0.08349 3.56985 89 161 190
0.52456 0.13042 3.16138 89 161 190
0.81806 0.13042 3.16138 89 161 190
0.52228 0.0484 3.56985 89 161 190
0.78043 0.08349 3.56985 92 167 197
0.82034 0.0484 3.56985 92 167 197
0.52228 0.0484 3.56985 92 167 197
0.56219 0.08349 3.56985 92 167 197
0.52228 -0.16675 3.56985 92 167 197
0.82034 -0.16675 3.56985 92 167 197
0.56219 -0.20123 3.56985 92 167 197
0.78043 -0.20123 3.56985 92 167 197
-0.46502 -0.20183 3.16138 89 161 190
-0.52456 -0.24929 3.16138 89 161 190
-0.52456 -0.24929 3.52257 89 161 190
-0.46502 -0.20183 3.52257 89 161 190
-0.56219 -0.20123 3.56985 89 161 190
-0.52228 -0.16675 3.56985 89 161 190
-0.46502 0.08296 3.16138 89 161 190
-0.46502 0.08296 3.52257 89 161 190
-0.81806 -0.24929 3.16138 89 161 190
-0.81806 -0.24929 3.52257 89 161 190
-0.87642 -0.20183 3.16138 89 161 190
-0.87642 -0.20183 3.52257 89 161 190
-0.87642 0.08296 3.52257 89 161 190
-0.87642 0.08296 3.16138 89 161 190
-0.78043 -0.20123 3.56985 89 161 190
-0.82034 -0.16675 3.56985 89 161 190
-0.82034 0.0484 3.56985 89 161 190
-0.81806 0.13042 3.52257 89 161 190
-0.78043 0.08349 3.56985 89 161 190
-0.52456 0.13042 3.52257 89 161 190
-0.56219 0.08349 3.56985 89 161 190
-0.52456 0.13042 3.16138 89 161 190
-0.81806 0.13042 3.16138 89 161 190
-0.52228 0.0484 3.56985 89 161 190
-0.78043 0.08349 3.56985 92 167 197
-0.56219 0.08349 3.56985 92 167 197
-0.52228 0.0484 3.56985 92 167 197
-0.82034 0.0484 3.56985 92 167 197
-0.52228 -0.16675 3.56985 92 167 197
-0.82034 -0.16675 3.56985 92 167 197
-0.56219 -0.20123 3.56985 92 167 197
-0.78043 -0.20123 3.56985 92 167 197
0.29523 -0.67706 2.3865 93 90 84
0.29523 -0.67706 2.43838 93 90 84
0.29523 -0.65822 2.43838 93 90 84
0.29523 -0.65822 2.3865 93 90 84
0.21255 -0.67706 2.43838 93 90 84
-0.29523 -0.65822 2.3865 93 90 84
-0.29523 -0.67706 2.3865 93 90 84
-0.29523 -0.65822 2.43838 93 90 84
-0.29523 -0.67706 2.43838 93 90 84
-0.21255 -0.67706 2.43838 93 90 84
0.21255 -0.65822 2.43838 93 90 84
-0.21255 -0.65822 2.43838 93 90 84
0.21255 -0.65822 2.50985 244 244 247
0.29523 -0.65822 2.50985 244 244 247
0.29523 -0.67706 2.50985 244 244 247
0.21255 -0.67706 2.50985 244 244 247
0.21255 -0.65822 2.43838 244 244 247
0.21255 -0.67706 2.43838 244 244 247
0.29523 -0.67706 2.43838 244 244 247
0.29523 -0.65822 2.43838 244 244 247
-0.21255 -0.65822 2.50985 244 244 247
-0.21255 -0.67706 2.50985 244 244 247
-0.29523 -0.67706 2.50985 244 244 247
-0.29523 -0.65822 2.50985 244 244 247
-0.21255 -0.65822 2.43838 244 244 247
-0.21255 -0.67706 2.43838 244 244 247
-0.29523 -0.67706 2.43838 244 244 247
-0.29523 -0.65822 2.43838 244 244 247
0.83113 -1.35538 1.00664 244 244 247
0.83113 -1.35538 1.14323 244 244 247
0.98748 -1.35538 1.14323 244 244 247
0.98748 -1.35538 1.00664 244 244 247
0.98748 -1.19904 1.14323 244 244 247
0.98748 -1.19904 1.00664 244 244 247
0.83113 -1.19904 1.00664 244 244 247
0.83113 -1.19904 1.14323 244 244 247
0.83113 -1.35538 1.14323 250 250 253
0.83113 -1.19904 1.14323 250 250 253
0.98748 -1.19904 1.14323 250 250 253
0.98748 -1.35538 1.14323 250 250 253
1.08164 -1.35538 1.00664 244 244 247
1.08164 -1.35538 1.17992 244 244 247
1.23798 -1.35538 1.17992 244 244 247
1.23798 -1.35538 1.00664 244 244 247
1.23798 -1.19904 1.17992 244 244 247
1.23798 -1.19904 1.00664 244 244 247
1.08164 -1.19904 1.00664 244 244 247
1.08164 -1.19904 1.17992 244 244 247
1.08164 -1.35538 1.17992 250 250 253
1.08164 -1.19904 1.17992 250 250 253
1.23798 -1.19904 1.17992 250 250 253
1.23798 -1.35538 1.17992 250 250 253
1.32631 -1.35538 1.00664 244 244 247
1.32631 -1.35538 1.14323 244 244 247
1.48265 -1.35538 1.14323 244 244 247
1.48265 -1.35538 1.00664 244 244 247
1.48265 -1.19904 1.14323 244 244 247
1.48265 -1.19904 1.00664 244 244 247
1.32631 -1.19904 1.00664 244 244 247
1.32631 -1.19904 1.14323 244 244 247
1.32631 -1.35538 1.14323 250 250 253
1.32631 -1.19904 1.14323 250 250 253
1.48265 -1.19904 1.14323 250 250 253
1.48265 -1.35538 1.14323 250 250 253
0.81928 -1.43781 0.94599 254 235 211
0.94971 -1.43781 0.63762 254 235 211
0.89711 -1.43781 0.57961 254 235 211
0.75153 -1.43781 0.87862 254 235 211
0.77376 -1.38472 1.01494 254 235 211
0.68974 -1.38472 0.93344 254 235 211
0.75153 -1.43781 0.14386 254 235 211
0.68974 -1.38472 0.08903 254 235 211
0.68974 -1.07628 0.93344 254 235 211
0.68974 -1.07628 0.08903 254 235 211
0.75153 -1.01977 0.14386 254 235 211
0.77203 -1.07628 0.01499 254 235 211
0.8255 -1.01977 0.08394 254 235 211
0.75153 -1.01977 0.87862 254 235 211
0.82699 -1.01977 0.94599 254 235 211
0.77376 -1.07628 1.01494 254 235 211
1.54086 -1.07628 1.01494 254 235 211
1.48748 -1.01977 0.94599 254 235 211
1.6238 -1.07628 0.93344 254 235 211
1.56201 -1.01977 0.87862 254 235 211
0.77203 -1.38472 0.01499 254 235 211
1.56201 -1.01977 0.14386 254 235 211
1.6238 -1.07628 0.08903 254 235 211
1.54258 -1.07628 0.01499 254 235 211
1.48897 -1.01977 0.08394 254 235 211
1.54258 -1.38472 0.01499 254 235 211
0.86706 -0.46214 0.94599 89 161 190
0.82699 -0.5348 0.94599 89 161 190
0.75153 -0.5131 0.87862 89 161 190
0.8273 -0.40353 0.87862 89 161 190
1.48719 -0.40353 0.87862 89 161 190
1.44743 -0.46214 0.94599 89 161 190
1.56201 -0.5131 0.87862 89 161 190
1.48748 -0.5348 0.94599 89 161 190
1.48748 -1.01977 0.94599 89 161 190
1.56201 -1.01977 0.87862 89 161 190
1.56201 -0.5131 0.14386 89 161 190
1.56201 -1.01977 0.14386 89 161 190
1.48897 -0.53466 0.08394 89 161 190
1.48897 -1.01977 0.08394 89 161 190
0.8255 -0.53466 0.08394 89 161 190
0.8255 -1.01977 0.08394 89 161 190
1.48719 -0.40353 0.14386 89 161 190
0.8273 -0.40353 0.14386 89 161 190
0.75153 -0.5131 0.14386 89 161 190
0.86605 -0.46265 0.08394 89 161 190
1.44844 -0.46265 0.08394 89 161 190
0.75153 -1.01977 0.14386 89 161 190
0.75153 -1.01977 0.87862 89 161 190
0.82699 -1.01977 0.94599 89 161 190
1.56201 -1.43781 0.14386 254 235 211
1.56201 -1.43781 0.87862 254 235 211
1.6238 -1.38472 0.93344 254 235 211
1.6238 -1.38472 0.08903 254 235 211
1.49521 -1.43781 0.08394 254 235 211
0.81928 -1.43781 0.08394 254 235 211
1.49521 -1.43781 0.94599 254 235 211
1.41739 -1.43781 0.57961 254 235 211
1.36478 -1.43781 0.63762 254 235 211
1.54086 -1.38472 1.01494 254 235 211
1.36478 -1.43781 0.15102 254 235 211
0.94971 -1.43781 0.15102 254 235 211
0.89711 -1.43781 0.20702 254 235 211
1.41739 -1.43781 0.20702 254 235 211
1.54086 -1.07628 1.01494 254 239 220
1.54086 -1.38472 1.01494 254 239 220
0.77376 -1.38472 1.01494 254 239 220
0.77376 -1.07628 1.01494 254 239 220
0.68974 -1.38472 0.93344 254 239 220
0.68974 -1.07628 0.93344 254 239 220
1.6238 -1.07628 0.93344 254 239 220
1.6238 -1.38472 0.93344 254 239 220
0.82699 -1.01977 0.94599 92 167 197
0.82699 -0.5348 0.94599 92 167 197
1.48748 -0.5348 0.94599 92 167 197
1.48748 -1.01977 0.94599 92 167 197
1.44743 -0.46214 0.94599 92 167 197
0.86706 -0.46214 0.94599 92 167 197
1.41739 -1.43781 0.20702 184 161 134
1.36478 -1.43781 0.15102 184 161 134
0.94971 -1.43781 0.15102 184 161 134
0.89711 -1.43781 0.20702 184 161 134
1.41739 -1.43781 0.57961 184 161 134
0.89711 -1.43781 0.57961 184 161 134
1.36478 -1.43781 0.63762 184 161 134
0.94971 -1.43781 0.63762 184 161 134
-0.83113 -1.35538 1.00664 244 244 247
-0.98748 -1.35538 1.00664 244 244 247
-0.98748 -1.35538 1.14323 244 244 247
-0.83113 -1.35538 1.14323 244 244 247
-0.98748 -1.19904 1.14323 244 244 247
-0.98748 -1.19904 1.00664 244 244 247
-0.83113 -1.19904 1.00664 244 244 247
-0.83113 -1.19904 1.14323 244 244 247
-0.83113 -1.35538 1.14323 250 250 253
-0.98748 -1.35538 1.14323 250 250 253
-0.98748 -1.19904 1.14323 250 250 253
-0.83113 -1.19904 1.14323 250 250 253
-1.08164 -1.35538 1.00664 244 244 247
-1.23798 -1.35538 1.00664 244 244 247
-1.23798 -1.35538 1.17992 244 244 247
-1.08164 -1.35538 1.17992 244 244 247
-1.23798 -1.19904 1.17992 244 244 247
-1.23798 -1.19904 1.00664 244 244 247
-1.08164 -1.19904 1.00664 244 244 247
-1.08164 -1.19904 1.17992 244 244 247
-1.08164 -1.35538 1.17992 250 250 253
-1.23798 -1.35538 1.17992 250 250 253
-1.23798 -1.19904 1.17992 250 250 253
-1.08164 -1.19904 1.17992 250 250 253
-1.32631 -1.35538 1.00664 244 244 247
-1.48265 -1.35538 1.00664 244 244 247
-1.48265 -1.35538 1.14323 244 244 247
-1.32631 -1.35538 1.14323 244 244 247
-1.48265 -1.19904 1.14323 244 244 247
-1.48265 -1.19904 1.00664 244 244 247
-1.32631 -1.19904 1.00664 244 244 247
-1.32631 -1.19904 1.14323 244 244 247
-1.32631 -1.35538 1.14323 250 250 253
-1.48265 -1.35538 1.14323 250 250 253
-1.48265 -1.19904 1.14323 250 250 253
-1.32631 -1.19904 1.14323 250 250 253
-0.81928 -1.43781 0.94599 254 235 211
-0.75153 -1.43781 0.87862 254 235 211
-0.89711 -1.43781 0.57961 254 235 211
-0.94971 -1.43781 0.63762 254 235 211
-0.77376 -1.38472 1.01494 254 235 211
-0.68974 -1.38472 0.93344 254 235 211
-0.75153 -1.43781 0.14386 254 235 211
-0.68974 -1.38472 0.08903 254 235 211
-0.68974 -1.07628 0.93344 254 235 211
-0.68974 -1.07628 0.08903 254 235 211
-0.75153 -1.01977 0.14386 254 235 211
-0.77203 -1.07628 0.01499 254 235 211
-0.8255 -1.01977 0.08394 254 235 211
-0.75153 -1.01977 0.87862 254 235 211
-0.82699 -1.01977 0.94599 254 235 211
-0.77376 -1.07628 1.01494 254 235 211
-1.54086 -1.07628 1.01494 254 235 211
-1.48748 -1.01977 0.94599 254 235 211
-1.6238 -1.07628 0.93344 254 235 211
-1.56201 -1.01977 0.87862 254 235 211
-0.77203 -1.38472 0.01499 254 235 211
-1.56201 -1.01977 0.14386 254 235 211
-1.6238 -1.07628 0.08903 254 235 211
-1.54258 -1.07628 0.01499 254 235 211
-1.48897 -1.01977 0.08394 254 235 211
-1.54258 -1.38472 0.01499 254 235 211
-0.86706 -0.46214 0.94599 89 161 190
-0.8273 -0.40353 0.87862 89 161 190
-0.75153 -0.5131 0.87862 89 161 190
-0.82699 -0.5348 0.94599 89 161 190
-1.48719 -0.40353 0.87862 89 161 190
-1.44743 -0.46214 0.94599 89 161 190
-1.56201 -0.5131 0.87862 89 161 190
-1.48748 -0.5348 0.94599 89 161 190
-1.48748 -1.01977 0.94599 89 161 190
-1.56201 -1.01977 0.87862 89 161 190
-1.56201 -0.5131 0.14386 89 161 190
-1.56201 -1.01977 0.14386 89 161 190
-1.48897 -0.53466 0.08394 89 161 190
-1.48897 -1.01977 0.08394 89 161 190
-0.8255 -0.53466 0.08394 89 161 190
-0.8255 -1.01977 0.08394 89 161 190
-1.48719 -0.40353 0.14386 89 161 190
-0.8273 -0.40353 0.14386 89 161 190
-0.75153 -0.5131 0.14386 89 161 190
-0.86605 -0.46265 0.08394 89 161 190
-0.75153 -1.01977 0.14386 89 161 190
-0.75153 -1.01977 0.87862 89 161 190
-1.44844 -0.46265 0.08394 89 161 190
-0.82699 -1.01977 0.94599 89 161 190
-1.56201 -1.43781 0.14386 254 235 211
-1.6238 -1.38472 0.08903 254 235 211
-1.6238 -1.38472 0.93344 254 235 211
-1.56201 -1.43781 0.87862 254 235 211
-1.49521 -1.43781 0.08394 254 235 211
-0.81928 -1.43781 0.08394 254 235 211
-1.49521 -1.43781 0.94599 254 235 211
-1.41739 -1.43781 0.57961 254 235 211
-1.36478 -1.43781 0.63762 254 235 211
-1.54086 -1.38472 1.01494 254 235 211
-1.36478 -1.43781 0.15102 254 235 211
-0.94971 -1.43781 0.15102 254 235 211
-0.89711 -1.43781 0.20702 254 235 211
-1.41739 -1.43781 0.20702 254 235 211
-1.54086 -1.07628 1.01494 254 239 220
-0.77376 -1.07628 1.01494 254 239 220
-0.77376 -1.38472 1.01494 254 239 220
-1.54086 -1.38472 1.01494 254 239 220
-0.68974 -1.38472 0.93344 254 239 220
-0.68974 -1.07628 0.93344 254 239 220
-1.6238 -1.07628 0.93344 254 239 220
-1.6238 -1.38472 0.93344 254 239 220
-0.82699 -1.01977 0.94599 92 167 197
-1.48748 -1.01977 0.94599 92 167 197
-1.48748 -0.5348 0.94599 92 167 197
-0.82699 -0.5348 0.94599 92 167 197
-1.44743 -0.46214 0.94599 92 167 197
-0.86706 -0.46214 0.94599 92 167 197
-1.41739 -1.43781 0.20702 184 161 134
-0.89711 -1.43781 0.20702 184 161 134
-0.94971 -1.43781 0.15102 184 161 134
-1.36478 -1.43781 0.15102 184 161 134
-1.41739 -1.43781 0.57961 184 161 134
-0.89711 -1.43781 0.57961 184 161 134
-1.36478 -1.43781 0.63762 184 161 134
-0.94971 -1.43781 0.63762 184 161 134
-1.16755 -0.4259 2.12592 89 161 190
-0.85652 -0.4259 1.58108 89 161 190
-2.03803 -0.42673 0.9065 89 161 190
-2.34902 -0.42652 1.45137 89 161 190
-0.77028 -0.33358 1.63021 89 161 190
-1.08119 -0.33358 2.17488 89 161 190
-1.17247 -0.28857 2.20788 89 161 190
-1.2285 -0.35101 2.1759 89 161 190
-1.08119 0.38242 2.17488 89 161 190
-1.17247 0.33741 2.20788 89 161 190
-0.77028 0.38242 1.63021 89 161 190
-1.16755 0.48377 2.12592 89 161 190
-1.2285 0.39995 2.1759 89 161 190
-2.32234 0.39959 1.55176 89 161 190
-2.34809 0.48315 1.45156 89 161 190
-0.85652 0.48377 1.58108 89 161 190
-2.38556 0.31068 1.51515 89 161 190
-2.41397 0.39426 1.41397 89 161 190
-2.38618 -0.26303 1.51499 89 161 190
-2.32265 -0.35137 1.55169 89 161 190
-2.41461 -0.34632 1.41384 89 161 190
-2.0371 0.48294 0.9067 89 161 190
-0.84444 0.39995 1.50325 89 161 190
-1.9383 0.39941 0.8791 89 161 190
-0.78859 0.3374 1.53536 89 161 190
-0.78859 -0.28857 1.53536 89 161 190
-2.10298 0.39401 0.86911 89 161 190
-2.10362 -0.34658 0.86898 89 161 190
-2.00217 -0.26331 0.84231 89 161 190
-2.00155 0.3104 0.84247 89 161 190
-1.93861 -0.35155 0.87902 89 161 190
-0.84444 -0.35101 1.50325 89 161 190
-1.2285 0.39995 2.1759 92 167 197
-1.2285 -0.35101 2.1759 92 167 197
-2.32265 -0.35137 1.55169 92 167 197
-2.32234 0.39959 1.55176 92 167 197
-1.17247 -0.28857 2.20788 92 167 197
-1.17247 0.33741 2.20788 92 167 197
-2.38618 -0.26303 1.51499 92 167 197
-2.38556 0.31068 1.51515 92 167 197
-2.29878 -0.19068 1.23631 244 244 247
-2.38812 -0.19051 1.18526 244 244 247
-2.4536 -0.19047 1.30012 244 244 247
-2.36433 -0.19064 1.35113 244 244 247
-2.29876 -0.07588 1.23627 244 244 247
-2.3881 -0.07571 1.18522 244 244 247
-2.45358 -0.07567 1.30008 244 244 247
-2.36433 -0.19064 1.35113 250 250 253
-2.4536 -0.19047 1.30012 250 250 253
-2.45358 -0.07567 1.30008 250 250 253
-2.36431 -0.07584 1.35109 250 250 253
-2.36431 -0.07584 1.35109 244 244 247
-2.29847 0.1354 1.23634 244 244 247
-2.38806 0.13557 1.18515 244 244 247
-2.45354 0.13561 1.30001 244 244 247
-2.36402 0.13544 1.35116 244 244 247
-2.29832 0.25048 1.23638 244 244 247
-2.38804 0.25037 1.18511 244 244 247
-2.36386 0.25052 1.3512 244 244 247
-2.45352 0.2504 1.29998 244 244 247
-2.36402 0.13544 1.35116 250 250 253
-2.45354 0.13561 1.30001 250 250 253
-2.45352 0.2504 1.29998 250 250 253
-2.36386 0.25052 1.3512 250 250 253
-2.29869 -0.02769 1.23628 244 244 247
-2.38808 -0.02748 1.18518 244 244 247
-2.45356 -0.02744 1.30004 244 244 247
-2.36424 -0.02765 1.35111 244 244 247
-2.29854 0.0871 1.23632 244 244 247
-2.38806 0.08732 1.18514 244 244 247
-2.45354 0.08736 1.30001 244 244 247
-2.36424 -0.02765 1.35111 250 250 253
-2.45356 -0.02744 1.30004 250 250 253
-2.45354 0.08736 1.30001 250 250 253
-2.36409 0.08714 1.35115 250 250 253
-2.36409 0.08714 1.35115 244 244 247
-2.30062 -0.34062 1.23537 244 244 247
-2.38821 -0.34073 1.18541 244 244 247
-2.45369 -0.34063 1.30027 244 244 247
-2.36612 -0.34052 1.35022 244 244 247
-2.36612 -0.34052 1.35022 250 250 253
-2.45369 -0.34063 1.30027 250 250 253
-2.45364 -0.24373 1.30019 250 250 253
-2.36602 -0.24362 1.35018 250 250 253
-2.36602 -0.24362 1.35018 244 244 247
-2.45364 -0.24373 1.30019 244 244 247
-2.38816 -0.24383 1.18533 244 244 247
-2.30051 -0.24372 1.23533 244 244 247
-2.29845 0.30154 1.23631 244 244 247
-2.38805 0.30136 1.18513 244 244 247
-2.45353 0.30134 1.29999 244 244 247
-2.36401 0.30152 1.35112 244 244 247
-2.36401 0.30152 1.35112 250 250 253
-2.45353 0.30134 1.29999 250 250 253
-2.45354 0.38988 1.3 250 250 253
-2.36456 0.39005 1.35083 250 250 253
-2.36456 0.39005 1.35083 244 244 247
-2.45354 0.38988 1.3 244 244 247
-2.38806 0.3899 1.18514 244 244 247
-2.299 0.39007 1.23601 244 244 247
3 0 2 1
3 0 3 2
3 0 4 3
3 0 5 4
3 6 5 0
3 6 0 7
3 7 0 1
3 6 8 5
3 6 9 8
3 5 10 4
3 5 8 10
3 11 8 9
3 11 9 12
3 11 12 13
3 11 13 14
3 15 8 11
3 15 10 8
3 14 13 16
3 14 16 17
3 18 17 16
3 18 19 17
3 18 1 19
3 18 20 1
3 7 1 20
3 15 14 21
3 15 11 14
3 22 15 21
3 22 21 23
3 24 15 22
3 24 10 15
3 4 10 24
3 4 24 25
3 25 24 22
3 14 26 21
3 14 17 26
3 17 27 26
3 17 19 27
3 2 27 19
3 2 19 1
3 26 27 28
3 2 28 27
3 26 28 29
3 30 29 28
3 30 23 29
3 2 30 28
3 3 30 2
3 3 4 25
3 3 31 30
3 3 25 31
3 31 23 30
3 25 22 31
3 31 22 23
3 29 21 26
3 29 23 21
3 32 34 33
3 32 35 34
3 32 36 35
3 32 37 36
3 33 34 38
3 33 38 39
3 40 42 41
3 40 43 42
3 44 43 40
3 44 45 43
3 43 46 42
3 43 45 46
3 47 49 48
3 47 50 49
3 51 45 44
3 51 46 45
3 52 54 53
3 52 55 54
3 56 55 52
3 56 57 55
3 58 57 56
3 58 59 57
3 55 59 54
3 55 57 59
3 60 62 61
3 60 63 62
3 64 66 65
3 64 67 66
3 68 67 64
3 68 69 67
3 67 70 66
3 67 69 70
3 71 73 72
3 71 74 73
3 75 69 68
3 75 70 69
3 76 78 77
3 76 79 78
3 80 82 81
3 80 83 82
3 84 86 85
3 84 87 86
3 85 86 79
3 79 86 87
3 85 79 76
3 79 87 78
3 88 90 89
3 88 91 90
3 92 94 93
3 92 95 94
3 96 98 97
3 96 99 98
3 97 98 91
3 91 98 99
3 97 91 88
3 91 99 90
3 100 102 101
3 100 103 102
3 104 100 101
3 104 105 100
3 105 103 100
3 104 106 105
3 104 101 107
3 101 108 107
3 101 109 108
3 104 107 110
3 104 110 111
3 108 109 112
3 108 112 113
3 107 113 110
3 107 108 113
3 105 114 103
3 101 102 115
3 101 116 109
3 101 117 116
3 117 118 116
3 117 119 118
3 118 120 116
3 109 120 112
3 109 116 120
3 118 121 120
3 119 121 118
3 119 122 121
3 123 122 119
3 123 119 117
3 123 124 122
3 123 117 125
3 123 125 126
3 123 126 127
3 115 117 101
3 115 128 117
3 126 125 129
3 126 129 130
3 125 131 129
3 125 117 131
3 117 128 131
3 111 133 132
3 111 134 133
3 110 134 111
3 110 135 134
3 111 132 106
3 111 106 104
3 113 135 110
3 113 112 135
3 134 136 133
3 134 137 136
3 135 137 134
3 135 138 137
3 112 138 135
3 124 136 137
3 124 139 136
3 112 120 138
3 122 137 138
3 122 124 137
3 124 127 139
3 124 123 127
3 121 138 120
3 121 122 138
3 140 142 141
3 140 143 142
3 144 142 143
3 144 145 142
3 146 140 141
3 146 141 147
3 148 150 149
3 150 151 149
3 148 152 150
3 148 153 152
3 153 154 152
3 152 154 155
3 150 157 156
3 150 156 151
3 152 159 158
3 152 155 159
3 160 162 161
3 160 163 162
3 164 166 165
3 164 167 166
3 168 167 164
3 168 169 167
3 170 168 164
3 170 171 168
3 164 165 172
3 164 172 170
3 170 173 171
3 170 174 173
3 170 175 174
3 170 172 175
3 173 174 176
3 173 176 177
3 174 178 176
3 167 179 166
3 167 180 179
3 169 180 167
3 169 181 180
3 182 179 180
3 182 183 179
3 184 180 181
3 184 182 180
3 185 182 184
3 185 184 186
3 175 187 174
3 185 187 188
3 175 188 187
3 185 188 189
3 182 189 183
3 182 185 189
3 185 190 187
3 185 186 190
3 190 191 187
3 190 192 191
3 187 191 193
3 194 187 193
3 174 187 194
3 174 194 195
3 196 195 194
3 196 197 195
3 174 195 178
3 198 200 199
3 199 200 201
3 202 200 198
3 202 198 203
3 202 203 204
3 205 204 203
3 205 203 206
3 205 206 207
3 208 210 209
3 208 211 210
3 208 212 211
3 208 213 212
3 213 214 212
3 213 215 214
3 216 218 217
3 216 219 218
3 217 218 220
3 219 220 218
3 217 220 221
3 222 219 216
3 222 217 221
3 222 216 217
3 222 223 219
3 219 223 220
3 224 226 225
3 224 227 226
3 227 228 226
3 225 226 228
3 227 229 228
3 230 224 225
3 230 227 224
3 230 229 227
3 230 225 231
3 225 228 231
3 232 234 233
3 232 235 234
3 233 234 236
3 233 236 237
3 238 232 233
3 238 233 239
3 234 235 240
3 234 240 241
3 241 240 242
3 241 242 243
3 242 244 243
3 242 245 244
3 246 234 241
3 246 236 234
3 243 246 241
3 243 247 246
3 244 247 243
3 244 248 247
3 249 248 244
3 249 250 248
3 251 250 249
3 251 252 250
3 253 251 249
3 239 251 253
3 239 252 251
3 239 253 238
3 253 249 254
3 254 249 244
3 254 244 245
3 239 255 252
3 256 258 257
3 256 259 258
3 257 258 260
3 257 260 261
3 261 260 262
3 261 262 263
3 233 255 239
3 233 237 255
3 264 266 265
3 264 267 266
3 267 268 266
3 267 269 268
3 270 267 264
3 270 271 267
3 266 272 265
3 266 273 272
3 273 274 272
3 273 275 274
3 274 275 276
3 274 276 277
3 278 266 268
3 278 273 266
3 275 273 278
3 275 278 279
3 276 275 279
3 276 279 280
3 281 276 280
3 281 280 282
3 283 281 282
3 283 282 284
3 285 281 283
3 271 285 283
3 271 283 284
3 271 270 285
3 285 286 281
3 286 276 281
3 286 277 276
3 271 284 287
3 288 290 289
3 288 291 290
3 291 292 290
3 291 293 292
3 293 294 292
3 293 295 294
3 267 287 269
3 267 271 287
3 296 298 297
3 296 299 298
3 300 296 297
3 296 301 299
3 296 302 301
3 300 302 296
3 302 303 301
3 302 304 303
3 305 304 302
3 300 305 302
3 306 305 300
3 306 307 305
3 308 310 309
3 308 311 310
3 312 311 308
3 312 313 311
3 313 310 311
3 313 314 310
3 314 309 310
3 314 315 309
3 316 318 317
3 316 319 318
3 320 316 317
3 320 317 321
3 321 317 318
3 321 318 322
3 322 318 319
3 322 319 323
3 324 326 325
3 324 327 326
3 327 328 326
3 327 329 328
3 330 324 325
3 330 325 331
3 332 334 333
3 332 335 334
3 331 329 330
3 331 328 329
3 336 338 337
3 336 339 338
3 339 340 338
3 339 341 340
3 342 336 337
3 342 337 343
3 344 346 345
3 344 347 346
3 343 341 342
3 343 340 341
3 348 350 349
3 348 351 350
3 351 352 350
3 351 353 352
3 354 348 349
3 354 349 355
3 356 358 357
3 356 359 358
3 355 353 354
3 355 352 353
3 360 362 361
3 360 363 362
3 363 360 364
3 363 364 365
3 365 366 363
3 362 363 366
3 365 367 366
3 368 367 365
3 368 369 367
3 370 369 368
3 370 371 369
3 370 372 371
3 370 368 373
3 368 374 373
3 368 375 374
3 374 375 376
3 374 376 377
3 377 376 378
3 377 378 379
3 369 371 380
3 369 380 367
3 378 381 379
3 378 382 381
3 383 371 372
3 383 372 384
3 382 384 381
3 382 383 384
3 385 371 383
3 385 380 371
3 386 388 387
3 386 389 388
3 390 389 386
3 390 386 391
3 392 390 391
3 392 391 393
3 394 392 393
3 394 395 392
3 395 396 392
3 396 390 392
3 395 397 396
3 397 398 396
3 397 399 398
3 399 400 398
3 399 401 400
3 396 402 390
3 402 389 390
3 402 403 389
3 388 389 403
3 388 403 404
3 401 404 400
3 405 404 403
3 405 400 404
3 405 403 402
3 398 400 405
3 405 402 406
3 398 405 406
3 396 406 402
3 396 398 406
3 401 407 404
3 407 388 404
3 407 408 388
3 408 387 388
3 408 409 387
3 410 412 411
3 410 413 412
3 414 413 410
3 414 385 413
3 415 385 414
3 415 380 385
3 412 413 382
3 412 382 378
3 413 383 382
3 413 385 383
3 367 380 415
3 367 415 366
3 412 416 411
3 416 417 411
3 416 418 417
3 412 419 416
3 419 360 416
3 360 418 416
3 419 364 360
3 420 415 414
3 420 421 415
3 360 361 418
3 415 422 366
3 415 421 422
3 362 366 422
3 411 417 423
3 411 423 410
3 414 423 420
3 414 410 423
3 424 426 425
3 424 427 426
3 428 426 427
3 428 427 429
3 430 425 431
3 430 424 425
3 432 434 433
3 432 435 434
3 433 434 436
3 433 436 437
3 438 440 439
3 438 441 440
3 442 441 438
3 442 443 441
3 444 443 442
3 444 445 443
3 446 448 447
3 446 449 448
3 447 448 450
3 447 450 451
3 452 449 446
3 452 453 449
3 454 456 455
3 454 457 456
3 453 451 450
3 453 452 451
3 458 460 459
3 458 461 460
3 459 460 462
3 459 462 463
3 464 461 458
3 464 465 461
3 466 468 467
3 466 469 468
3 465 463 462
3 465 464 463
3 470 472 471
3 470 473 472
3 471 472 474
3 471 474 475
3 476 473 470
3 476 477 473
3 478 480 479
3 478 481 480
3 477 475 474
3 477 476 475
3 482 484 483
3 482 485 484
3 483 486 482
3 483 487 486
3 487 483 488
3 484 488 483
3 487 488 489
3 490 487 489
3 490 489 491
3 492 490 491
3 492 491 493
3 492 493 494
3 492 495 490
3 490 495 496
3 490 496 497
3 496 498 497
3 496 499 498
3 499 500 498
3 499 501 500
3 491 502 493
3 491 489 502
3 500 501 503
3 500 503 504
3 505 494 493
3 505 506 494
3 504 506 505
3 504 503 506
3 507 493 502
3 507 505 493
3 508 510 509
3 508 511 510
3 512 508 509
3 512 513 508
3 514 513 512
3 514 515 513
3 516 515 514
3 516 514 517
3 517 514 518
3 518 514 512
3 517 518 519
3 519 518 520
3 519 520 521
3 521 520 522
3 521 522 523
3 518 512 524
3 524 512 509
3 524 509 525
3 510 525 509
3 510 526 525
3 523 522 526
3 527 526 522
3 527 525 526
3 527 524 525
3 520 527 522
3 528 526 510
3 523 526 528
3 528 510 529
3 527 530 524
3 520 530 527
3 518 530 520
3 518 524 530
3 529 510 511
3 529 511 531
3 532 534 533
3 532 535 534
3 536 532 533
3 536 533 507
3 537 536 507
3 537 507 502
3 534 504 533
3 534 500 504
3 533 505 507
3 533 504 505
3 489 537 502
3 489 488 537
3 534 535 538
3 538 535 539
3 538 539 540
3 534 538 541
3 541 538 482
3 482 538 540
3 541 482 486
3 542 536 537
3 542 537 543
3 482 540 485
3 537 544 543
3 537 488 544
3 484 544 488
3 535 545 539
3 535 532 545
3 536 545 532
3 536 542 545
3 546 548 547
3 546 549 548
3 550 547 548
3 550 551 547
3 552 549 546
3 552 553 549
3 554 556 555
3 554 557 556
3 557 558 556
3 557 559 558
3 560 562 561
3 560 563 562
3 564 560 561
3 564 561 565
3 566 564 565
3 566 565 567
3 568 570 569
3 568 571 570
3 568 569 572
3 568 572 573
3 574 568 573
3 574 575 568
3 575 571 568
3 574 573 576
3 574 576 577
3 573 578 576
3 573 572 578
3 579 577 576
3 579 580 577
3 579 581 580
3 579 582 581
3 583 576 578
3 583 579 576
3 582 584 581
3 582 585 584
3 586 584 585
3 586 571 587
3 575 587 571
3 586 588 571
3 586 585 588
3 583 582 579
3 583 589 582
3 590 589 583
3 590 591 589
3 592 590 583
3 592 583 578
3 572 592 578
3 572 593 592
3 593 590 592
3 582 589 594
3 582 594 585
3 585 594 595
3 585 595 588
3 570 588 595
3 570 571 588
3 594 596 595
3 570 595 596
3 594 597 596
3 597 589 591
3 597 594 589
3 598 597 591
3 598 596 597
3 570 596 598
3 569 570 598
3 569 593 572
3 569 598 599
3 569 599 593
3 599 598 591
3 593 599 590
3 599 591 590
3 600 602 601
3 600 603 602
3 600 601 604
3 600 604 605
3 603 606 602
3 603 607 606
3 608 610 609
3 608 611 610
3 612 608 609
3 612 609 613
3 609 614 613
3 609 610 614
3 615 617 616
3 615 618 617
3 619 613 614
3 619 612 613
3 620 622 621
3 620 623 622
3 624 620 621
3 624 621 625
3 626 624 625
3 626 625 627
3 621 627 625
3 621 622 627
3 628 630 629
3 628 631 630
3 632 634 633
3 632 635 634
3 636 632 633
3 636 633 637
3 633 638 637
3 633 634 638
3 639 641 640
3 639 642 641
3 643 637 638
3 643 636 637
3 644 646 645
3 644 647 646
3 648 650 649
3 648 651 650
3 652 654 653
3 652 655 654
3 655 645 654
3 645 653 654
3 655 644 645
3 645 646 653
3 656 658 657
3 656 659 658
3 660 662 661
3 660 663 662
3 664 666 665
3 664 667 666
3 667 657 666
3 657 665 666
3 667 656 657
3 657 658 665
