mtllib Smeargle.mtl
v -0.166324 0.248824 0.134028
vt 1.5 0
vn -0.0105613 0.5843011 0.8114682
v -0.103273 0.277921 0.113897
vt 1.5 1.75
vn -0.0598371 0.435089 0.898397
v -0.189289 0.248824 0.096349
vn -0.7813143 0.5696392 -0.2550671
v -0.149203 0.277921 0.0385396
vn -0.8123343 0.4705312 -0.3445481
v -0.166457 0.135915 0
vn -0.9575949 -0.0170229 -0.287615
v -0.0832285 0.135915 0.144156
vn -0.1760639 -0.08928175 0.9803215
v -0.197916 0.177821 0.0770792
vn -0.8763131 -0.4708971 -0.101643
v -0.156302 0.177821 0.149157
vn -0.237416 -0.5124751 0.825229
v 0.156302 0.177821 0.149157
vt 0.5 1.02866
vn 0.237416 -0.5124751 0.825229
v 0.197916 0.177821 0.0770793
vn 0.8763131 -0.4708971 -0.101643
v 0.229375 0.219727 0.154159
vt 0.5 -0.471343
vn 0.8271062 -0.1677921 0.5364151
v 0.166324 0.248824 0.134028
vn 0.01056139 0.5843006 0.8114686
v 0.189289 0.248824 0.09634911
vn 0.7813143 0.5696392 -0.2550671
v 0.149203 0.277921 0.0385396
vn 0.8123339 0.470532 -0.344548
v 0.166457 0.135915 0
vn 0.9575949 -0.0170229 -0.287615
v 0.103273 0.277921 0.113897
vn 0.0598371 0.435089 0.898397
v 0.0832285 0.135915 0.144156
vn 0.1760639 -0.08928175 0.9803215
v -0.229375 0.219727 0.154159
vn -0.8271062 -0.1677921 0.5364151
v 0.0667367 0.256968 -0.111397
vt 0.692565 -0.328483
vn 0.5224292 0.2831151 -0.8043094
v -0.0667366 0.256968 -0.111397
vt 0.291641 -0.328483
vn -0.5224288 0.2831149 -0.8043097
v 0.0612394 0.297319 -0.100477
vt 0.676053 0.469828
vn 0.3209539 0.7277147 -0.6061518
v -0.0612393 0.297319 -0.100477
vt 0.308154 0.469828
vn -0.3209541 0.7277142 -0.6061522
v -0.122479 0.297319 0
vt 0.124204 0.469828
vn -0.5589358 0.8049656 -0.1990509
vt 0.0439307 0.0860577
vt 0.802314 0.0860577
vt 0.940276 0.0860577
v 0.0612394 0.297319 0.100477
vn 0.116609 0.9031247 0.4132409
v 0.122479 0.297319 0
vt 0.860002 0.469828
vn 0.558935 0.804966 -0.199051
v 0 0.3137 0
vt 0.492103 0.5
vn 0 1 0
v -0.0612394 0.297319 0.100477
vn -0.116609 0.9031247 0.4132409
vt 0.181893 0.0860577
v -0.0784891 7.450581E-09 0
vt 0.250006 -0.832794
vn -0.125355 -0.9920321 -0.0125862
v -0.078488 0.07904871 -0.146827
vt 0.25001 1.25
vn -0.372669 -0.54729 -0.749394
v 0 0.0553002 0
vt 0.50001 1.25
vn 0 -1 0.000155808
v -0.0784881 0.07904871 0.11955
vn -0.3604999 -0.6151109 0.7011979
v 0.0784891 7.450581E-09 0
vt 0.750013 -0.832794
vn 0.125355 -0.9920321 -0.0125861
v 0.0784881 0.07904871 0.11955
vt 0.75001 1.25
vn 0.3604999 -0.6151109 0.7011979
v 0.0784881 0.07904871 -0.146827
vn 0.372669 -0.54729 -0.749394
v 0.156976 0.07904871 0
vt 1.00001 1.25
vn 0.9128982 -0.4081771 -0.002884571
v -0.156976 0.07904871 0
vt 9.59635E-06 1.25
vn -0.9128982 -0.4081771 -0.002884781
v -0.137413 0.620847 0.0114084
vt 0.463678 0.536322
vn 0.8268784 -0.4508672 0.3361411
v -0.141591 0.590945 -0.112782
vt 0.500251 0.528617
vn -0.7864571 0.4959981 -0.368064
v -0.243302 0.446274 0.00119435
vt 0.466686 0.49134
vn 0.2665381 -0.5569304 0.7866295
v -0.274565 0.438245 -0.131431
vt 0.505743 0.489271
vn -0.8402883 0.3950632 -0.3712691
v -0.193371 0.395039 -0.235265
vt 0.536322 0.478138
vn 0.3037749 -0.4288438 -0.8507725
v -0.0865575 0.606366 -0.189142
vt 0.522739 0.532591
vn -0.238301 0.30052 -0.923526
v -0.291635 0.338919 -0.133417
vt 0.506328 0.463677
vn -0.8080487 -0.5107898 -0.2935149
v 0.245138 0.446274 0.00119434
vt 0.45971 0.489527
vn -0.2665381 -0.5569304 0.7866295
v 0.0883941 0.606366 -0.189142
vt 0.5275 0.539415
vn 0.2383001 0.3005201 -0.9235263
v 0.195208 0.395039 -0.235265
vt 0.543927 0.473561
vn -0.3037749 -0.4288438 -0.8507725
v 0.139249 0.620847 0.0114084
vt 0.456073 0.543927
vn -0.8268784 -0.4508672 0.3361411
v 0.143428 0.590945 -0.112782
vt 0.500304 0.534609
vn 0.7864571 0.4959981 -0.368064
v 0.276402 0.438245 -0.131431
vt 0.506946 0.487025
vn 0.8402883 0.3950632 -0.3712691
v 0.293472 0.338919 -0.133417
vt 0.507653 0.456073
vn 0.8080487 -0.5107898 -0.2935149
o merged_0_0_node
g polygon_0
usemtl lambert18_mat_id
f 1/1/1 2/2/2 3/1/3
f 3/1/3 2/2/2 4/2/4
f 5/2/5 6/2/6 7/1/7
f 7/1/7 6/2/6 8/1/8
f 5/2/5 7/1/7 4/2/4
f 4/2/4 7/1/7 3/1/3
f 9/3/9 10/3/10 11/4/11
f 9/3/9 11/4/11 12/3/12
f 11/4/11 13/3/13 12/3/12
f 6/2/6 2/2/2 8/1/8
f 8/1/8 2/2/2 1/1/1
f 13/1/13 10/1/10 14/2/14
f 14/2/14 10/1/10 15/2/15
f 14/2/14 16/2/16 13/1/13
f 13/1/13 16/2/16 12/1/12
f 17/2/17 9/1/9 16/2/16
f 16/2/16 9/1/9 12/1/12
f 15/2/15 10/1/10 17/2/17
f 17/2/17 10/1/10 9/1/9
f 18/4/18 8/3/8 1/3/1
f 7/3/7 8/3/8 18/4/18
f 3/3/3 7/3/7 18/4/18
f 13/3/13 11/4/11 10/3/10
f 19/5/19 20/6/20 21/7/21
f 21/7/21 20/6/20 22/8/22
f 22/8/22 20/6/20 23/9/23
f 23/9/23 20/6/20 4/10/4
f 16/11/16 14/12/14 24/7/24
f 24/7/24 14/12/14 25/13/25
f 21/7/21 22/8/22 26/14/26
f 22/8/22 23/9/23 26/14/26
f 23/9/23 27/8/27 26/14/26
f 27/8/27 24/7/24 26/14/26
f 24/7/24 25/13/25 26/14/26
f 25/13/25 21/7/21 26/14/26
f 27/8/27 2/15/2 24/7/24
f 24/7/24 2/15/2 16/11/16
f 14/12/14 19/5/19 25/13/25
f 25/13/25 19/5/19 21/7/21
f 23/9/23 4/10/4 27/8/27
f 27/8/27 4/10/4 2/15/2
f 28/16/28 29/17/29 30/18/30
f 31/17/31 28/16/28 30/18/30
f 32/19/32 33/20/33 30/18/30
f 34/20/34 35/21/35 32/19/32
f 34/20/34 32/19/32 30/18/30
f 35/21/35 33/20/33 32/19/32
f 31/17/31 36/22/36 28/16/28
f 36/22/36 29/17/29 28/16/28
f 37/23/37 38/24/38 39/25/39
f 40/26/40 38/24/38 41/27/41
f 39/25/39 41/27/41 42/28/42
f 40/26/40 43/29/43 39/25/39
f 41/27/41 43/29/43 40/26/40
f 38/24/38 40/26/40 39/25/39
f 38/24/38 42/28/42 41/27/41
f 43/29/43 41/27/41 39/25/39
f 39/25/39 42/28/42 37/23/37
f 44/30/44 45/31/45 46/32/46
f 47/33/47 44/30/44 48/34/48
f 49/35/49 46/32/46 48/34/48
f 44/30/44 46/32/46 50/36/50
f 49/35/49 44/30/44 50/36/50
f 46/32/46 49/35/49 50/36/50
f 48/34/48 44/30/44 49/35/49
f 48/34/48 46/32/46 45/31/45
f 47/33/47 45/31/45 44/30/44
v -0.124202 0.309 0.0437241
vt 0.166667 0.3
vn -0.435493 -0.898751 0.050917
v 0.0519522 0.338645 0.220557
vt 0 0.1
vn 0.268582 -0.733092 0.6248519
v -0.0519521 0.338645 0.220557
vt 0.166667 0.1
vn -0.2685811 -0.7330921 0.6248521
v 0.124203 0.309 0.0437241
vt 0 0.3
vn 0.4354938 -0.8987506 0.05091707
v -0.102182 0.385452 0.240654
vt 0.333333 0.1
vn -0.5599949 -0.2165099 0.7997057
v 0.0862547 0.321691 -0.10272
vt 0.297115 0.332068
vn 0.4607719 -0.8049558 -0.3738119
v -0.196923 0.410556 0.0824545
vt 0.333333 0.3
vn -0.9543052 -0.07809401 0.288449
v -0.0862546 0.321691 -0.10272
vt 0.364743 0.332068
vn -0.4607719 -0.8049558 -0.3738119
v -0.204521 0.448362 -0.0571896
vt 0.432372 0.332068
vn -0.9850909 0.0449575 -0.166057
v 0 0.396151 0.288946
vt 0.0833333 0
vn 0 -0.2613289 0.9652498
vt 0.25 0
vt 0.416667 0
v -0.0874154 0.44999 0.250703
vt 0.416667 0.1
vn -0.7662036 0.2701639 0.5830467
v 0.0513345 0.458424 -0.231844
vt 0.297115 0.372645
vn 0.3069812 -0.3588192 -0.8814825
v -0.0513344 0.458424 -0.231844
vt 0.364743 0.372645
vn -0.3069811 -0.3588201 -0.8814822
v -0.102669 0.531772 -0.211986
vt 0.432372 0.372645
vn -0.5090311 0.224938 -0.8308371
v -0.153677 0.573949 -0.0344244
vt 0.466186 0.332068
vn -0.8897521 0.4479381 -0.08770732
v -0.0519522 0.487106 0.260751
vt 0.5 0.1
vn -0.2685818 0.3177278 0.9093475
v -0.0513344 0.60512 -0.192128
vt 0.5 0.372645
vn -0.48592 0.5022711 -0.715266
v -0.117699 0.658034 -0.0116592
vt 0.5 0.4
vn -0.840055 0.5424771 -0.00511903
v 0.0519522 0.487106 0.260751
vt 0.666667 0.1
vn 0.2685819 0.3177269 0.9093478
v 0.100121 0.595111 0.121185
vt 0.666667 0.3
vn 0.5957978 0.6331278 0.4941399
v -0.100121 0.595111 0.121185
vt 0.5 0.3
vn -0.5957978 0.6331278 0.4941399
vt 0.75 0
v 0.0874154 0.44999 0.250703
vt 0.75 0.1
vn 0.7662036 0.2701639 0.5830467
v 0.102182 0.385452 0.240654
vt 0.833333 0.1
vn 0.5599949 -0.2165099 0.7997057
vt 1 0.1
vt 1 0.3
vt 0.916667 0
v 0.196923 0.410556 0.0824545
vt 0.833333 0.3
vn 0.9543053 -0.07809363 0.2884491
v 0.204521 0.448362 -0.0571896
vt 0.635257 0.332068
vn 0.985091 0.0449579 -0.166056
vt 0.702885 0.332068
vt 0.702885 0.372645
v 0.102669 0.531772 -0.211986
vt 0.635257 0.372645
vn 0.5090311 0.224938 -0.8308371
v 0.153677 0.573949 -0.0344244
vt 0.601442 0.332068
vn 0.8897522 0.4479381 -0.08770722
v 0.0513344 0.60512 -0.192128
vt 0.567628 0.372645
vn 0.48592 0.5022711 -0.715266
v 0.117699 0.658034 -0.0116592
vt 0.666667 0.302357
vn 0.840055 0.5424771 -0.00511899
v -0.228897 0.223409 0.153472
vt 0.335419 -0.20311
vn -0.4647793 -0.8835235 -0.05802133
v -0.29421 0.253307 0.221399
vt -0.0747669 0.0818545
vn -0.8296552 -0.3872991 0.4020841
v -0.300182 0.339827 0.171612
vt -0.0557975 0.380015
vn -0.871164 0.0937842 -0.481952
v -0.225717 0.29314 0.282406
vt 0.43772 0.298899
vn 0.04356579 -0.5465509 0.8362919
v -0.227567 0.309369 0.109973
vt 0.354389 0.0950499
vn -0.02852711 0.3567891 -0.9337493
v -0.153102 0.262683 0.220767
vt 0.847907 0.0139341
vn 0.8763424 -0.2791551 0.3925512
v -0.159074 0.349203 0.170981
vt 0.866876 0.312095
vn 0.8480843 0.1744041 -0.5003362
v -0.238187 0.426689 0.265488
vt 0.476126 0.857262
vn -0.0646966 0.89307 0.445242
vt 0 -0.200061
vt 0.25 0.232952
vt 0.75 0.232952
vt 1 -0.200061
o merged_1_0_node
g polygon_0
usemtl sippo1_mat_id
f 51/37/51 52/38/52 53/39/53
f 51/37/51 54/40/54 52/38/52
f 51/37/51 53/39/53 55/41/55
f 51/37/51 56/42/56 54/40/54
f 51/37/51 55/41/55 57/43/57
f 51/37/51 58/44/58 56/42/56
f 51/37/51 57/43/57 59/45/59
f 51/37/51 59/45/59 58/44/58
f 52/38/52 60/46/60 53/39/53
f 55/41/55 53/39/53 60/47/60
f 55/41/55 60/48/60 61/49/61
f 56/42/56 58/44/58 62/50/62
f 59/45/59 63/51/63 58/44/58
f 59/45/59 64/52/64 63/51/63
f 59/45/59 65/53/65 64/52/64
f 63/51/63 62/50/62 58/44/58
f 60/48/60 66/54/66 61/49/61
f 65/53/65 67/55/67 64/52/64
f 65/53/65 68/56/68 67/55/67
f 66/54/66 69/57/69 70/58/70
f 66/54/66 70/58/70 71/59/71
f 69/57/69 60/60/60 72/61/72
f 60/60/60 73/62/73 72/61/72
f 73/62/73 52/63/52 54/64/54
f 73/62/73 60/65/60 52/63/52
f 73/62/73 54/64/54 74/66/74
f 54/64/54 75/67/75 74/66/74
f 54/64/54 56/68/56 75/67/75
f 56/68/56 62/69/62 75/67/75
f 62/69/62 76/70/76 75/67/75
f 76/70/76 77/71/77 75/67/75
f 76/70/76 78/72/78 77/71/77
f 78/72/78 79/73/79 77/71/77
f 80/74/80 81/75/81 82/76/82
f 80/74/80 83/77/83 81/75/81
f 80/74/80 82/76/82 84/78/84
f 80/74/80 85/79/85 83/77/83
f 80/74/80 84/78/84 86/80/86
f 80/74/80 86/80/86 85/79/85
f 81/75/81 87/81/87 82/76/82
f 81/75/81 83/77/83 87/81/87
f 87/81/87 84/78/84 82/76/82
f 87/81/87 85/79/85 86/80/86
f 87/81/87 83/77/83 85/79/85
f 87/81/87 86/80/86 84/78/84
f 76/60/76 67/82/67 78/47/78
f 76/60/76 64/83/64 67/82/67
f 76/60/76 63/84/63 64/83/64
f 76/60/76 62/85/62 63/84/63
v -0.247407 0.139717 -0.126854
vt 2.79194 0.429664
vn 0.6496899 -0.5215669 0.5530559
v -0.303251 0.153505 -0.139981
vt 2.62576 0.527946
vn -0.6522849 -0.7567409 -0.0432165
v -0.135058 0.134628 -0.213565
vt 3.12625 0.393386
vn 0.09288467 -0.07456897 0.9928806
v -0.161518 0.115404 -0.294113
vt 3.04752 0.256352
vn -0.6211351 -0.781365 -0.0604979
v -0.0280225 0.135105 -0.135398
vt 3.44476 0.396789
vn -0.4189309 0.3363129 0.8434397
v 0.0019363 0.0794413 -0.141438
vt 3.53391 0
vn -0.6080991 -0.7918522 -0.05644131
v 0.032802 0.117889 -0.141438
vt 3.62576 0.274068
vn 0.6416577 0.7649117 -0.05644117
v -0.130653 0.153852 -0.294113
vt 3.13936 0.53042
vn 0.6286001 0.7753721 -0.06049791
vt 2.84559 1
vn 0.5944221 0.8031932 0.03928261
v -0.272386 0.191953 -0.139981
vt 2.71761 0.802013
vn 0.597825 0.8004609 -0.0432164
vn -0.2915142 -0.9149135 0.2792002
vt 1.20327 0.936097
vt -0.20529 0.936097
vt 0.498987 -0.954532
v -0.100075 0.571319 -0.208737
vt -1.26096 0.0799379
vn -0.295201 -0.8690529 -0.396993
v -0.115557 0.616817 -0.239391
vt -1.29918 0.307986
vn -0.5497908 0.06811308 -0.8325207
v 0.100075 0.571319 -0.208737
vt -0.766883 0.0799379
vn 0.2952019 -0.8690527 -0.3969929
v 0.115557 0.616817 -0.239391
vt -0.728666 0.307986
vn 0.5497908 0.06811308 -0.8325207
v -0.20015 0.581337 -0.027393
vt -1.50801 0.130153
vn -0.60714 -0.792157 0.0621958
v -0.202548 0.628386 -0.0299922
vt -1.51392 0.36597
vn -0.9891509 0.145181 0.0224304
v -0.0859582 0.591356 0.153952
vt -1.22612 0.180369
vn -0.284885 -0.8138481 0.5064501
v -0.099256 0.639954 0.179406
vt -1.25894 0.423954
vn -0.5230052 0.156239 0.8378872
v 0.0859582 0.591356 0.153952
vt -0.801732 0.180369
vn 0.284885 -0.8138481 0.5064501
v 0.099256 0.639954 0.179406
vt -0.768905 0.423954
vn 0.5230052 0.156239 0.8378872
v 0.20015 0.581337 -0.027393
vt -0.519843 0.130153
vn 0.60714 -0.792157 0.0621959
v 0.202548 0.628386 -0.0299922
vt -0.513924 0.36597
vn 0.9891509 0.145181 0.0224306
v 0.0740288 0.72351 -0.169803
vt -0.83118 0.842757
vn 0.2714351 0.8403072 -0.4692621
v -0.0740287 0.72351 -0.169803
vt -1.19667 0.842757
vn -0.2380249 0.8746168 -0.4223619
v -0.148057 0.730921 -0.0356569
vt -1.37941 0.879903
vn -0.539772 0.841321 -0.0287255
v -0.063586 0.738332 0.0984894
vt -1.17089 0.917049
vn -0.234632 0.9109848 0.339197
v 0.063586 0.738332 0.0984895
vt -0.856959 0.917049
vn 0.2662129 0.8803806 0.3925058
v 0.148057 0.730921 -0.0356569
vt -0.648436 0.879903
vn 0.475043 0.879278 -0.034703
v 0 0.770831 -0.0438622
vt -1.01392 1.07994
vn 0 0.9984775 -0.05516133
v -0.0261417 0.757958 -0.0629867
vt -10.4991 -0.138811
vn -0.7502883 0.3433951 -0.5649312
v -0.0039755 0.757958 -0.0108221
vt -10.1051 -0.138811
vn -0.1141 0.343396 0.932234
v 0 0.847457 -0.0433032
vt -10.0344 0.861189
vn 0 1 -1.41904E-06
v 0.0301172 0.757958 -0.0561009
vt -9.4991 -0.138811
vn 0.8643882 0.3433951 -0.3673051
o merged_2_0_node
g polygon_0
usemtl nose_mat_id
f 88/86/88 89/87/89 90/88/90
f 90/88/90 89/87/89 91/89/91
f 92/90/92 90/88/90 93/91/93
f 93/91/93 90/88/90 91/89/91
f 94/92/94 93/91/93 95/93/95
f 95/93/95 93/91/93 91/89/91
f 18/94/96 96/95/97 89/87/89
f 95/93/95 96/95/97 90/88/90
f 90/88/90 96/95/97 88/86/88
f 95/93/95 90/88/90 94/92/94
f 94/92/94 90/88/90 92/90/92
f 95/93/95 91/89/91 96/95/97
f 96/95/97 91/89/91 89/87/89
f 18/94/96 88/86/88 96/95/97
f 89/87/89 88/86/88 18/94/98
f 69/96/69 66/97/66 60/98/60
f 97/99/99 98/100/100 99/101/101
f 99/101/101 98/100/100 100/102/102
f 101/103/103 102/104/104 97/99/99
f 97/99/99 102/104/104 98/100/100
f 101/103/103 103/105/105 102/104/104
f 102/104/104 103/105/105 104/106/106
f 103/105/105 105/107/107 104/106/106
f 104/106/106 105/107/107 106/108/108
f 107/109/109 108/110/110 105/107/107
f 105/107/107 108/110/110 106/108/108
f 107/109/109 99/101/101 108/110/110
f 108/110/110 99/101/101 100/102/102
f 100/102/102 98/100/100 109/111/111
f 109/111/111 98/100/100 110/112/112
f 98/100/100 102/104/104 110/112/112
f 110/112/112 102/104/104 111/113/113
f 104/106/106 112/114/114 102/104/104
f 102/104/104 112/114/114 111/113/113
f 104/106/106 106/108/108 112/114/114
f 112/114/114 106/108/108 113/115/115
f 106/108/108 108/110/110 113/115/115
f 113/115/115 108/110/110 114/116/116
f 100/102/102 109/111/111 108/110/110
f 108/110/110 109/111/111 114/116/116
f 110/112/112 111/113/113 115/117/117
f 112/114/114 113/115/115 115/117/117
f 114/116/116 109/111/111 115/117/117
f 112/114/114 115/117/117 111/113/113
f 110/112/112 115/117/117 109/111/111
f 114/116/116 115/117/117 113/115/115
f 107/109/109 105/107/107 99/101/101
f 101/103/103 97/99/99 103/105/105
f 97/99/99 99/101/101 103/105/105
f 99/101/101 105/107/107 103/105/105
f 116/118/118 117/119/119 118/120/120
f 117/119/119 119/121/121 118/120/120
f 119/121/121 116/118/118 118/120/120
vt 0.692979 3.12877
vt 0.296407 3.12877
v 0.0832285 0.135915 -0.144156
vt 0.704955 3.38421
vn 0.530876 0.181874 -0.8277031
v -0.0832285 0.135915 -0.144156
vt 0.284431 3.38421
vn -0.5308756 0.1818739 -0.8277034
vt 0.0981207 3.12877
vt 0.0741692 3.38421
vt 0.891265 3.12877
vt 0.915217 3.38421
vt 0.494693 3.0221
vt -0.0751678 -0.0751676
vt 0.0388025 1.07517
vt 1.07517 -0.0751676
vt 0.961197 1.07517
vt 0.871627 4.0221
vt 0.663291 3.92798
vt 0.117758 4.0221
vt 0.326095 3.92798
vt 0.755595 4.0221
vt 0.233791 4.0221
vt -0.0847832 3.76069
vt 0.074504 3.89139
vt 0.0164877 3.89139
o merged_3_0_node
g polygon_0
usemtl mark_mat_id
f 34/122/34 29/123/29 120/124/122
f 120/124/122 29/123/29 121/125/123
f 29/123/29 36/126/36 121/125/123
f 121/125/123 36/126/36 5/127/5
f 36/126/36 31/123/31 5/127/5
f 5/127/5 31/123/31 6/125/6
f 31/123/31 33/122/33 6/125/6
f 6/125/6 33/122/33 17/124/17
f 35/128/35 15/129/15 33/122/33
f 33/122/33 15/129/15 17/124/17
f 34/122/34 120/124/122 35/128/35
f 35/128/35 120/124/122 15/129/15
f 29/123/29 34/122/34 30/130/30
f 33/122/33 31/123/31 30/130/30
f 121/131/123 20/132/20 120/133/122
f 120/133/122 20/132/20 19/134/19
f 14/135/14 15/129/15 19/136/19
f 19/136/19 15/129/15 120/124/122
f 4/137/4 20/138/20 5/127/5
f 5/127/5 20/138/20 121/125/123
f 16/139/16 2/140/2 17/124/17
f 17/124/17 2/140/2 6/125/6
f 18/141/18 1/142/1 3/143/3
vt 0.214712 0.971863
v -0.145594 0.523584 0.10182
vt 0.308818 0.856687
vn -0.8700336 0.3505428 0.3466429
vt -0.463515 0.79795
vt -0.414684 0.738186
v 0.145594 0.523584 0.10182
vn 0.8700336 0.3505428 0.3466429
vt 0.970901 0.937786
vt 0.860273 1.07318
vt -0.365853 0.678422
vt 0.402924 0.741511
vt 1.08153 0.802389
o merged_4_0_node
g polygon_0
usemtl TEX_ANIM_EYE_mat_id
f 71/144/71 122/145/124 66/146/66
f 66/146/66 122/145/124 61/147/61
f 72/147/72 123/145/125 69/146/69
f 69/146/69 123/145/125 70/144/70
f 122/145/124 71/144/71 65/148/65
f 65/148/65 71/144/71 68/149/68
f 123/145/125 77/148/77 70/144/70
f 70/144/70 77/148/77 79/149/79
f 72/147/72 73/150/73 123/145/125
f 123/145/125 73/150/73 74/151/74
f 77/148/77 123/145/125 75/152/75
f 75/152/75 123/145/125 74/151/74
f 57/151/57 122/145/124 59/152/59
f 59/152/59 122/145/124 65/148/65
f 61/147/61 122/145/124 55/150/55
f 55/150/55 122/145/124 57/151/57
