mtllib Haunter.mtl
v 0.181483 0.548641 -0.173167
vt 0.96981 0.971503
vn 0.09527918 0.4797769 -0.8722018
v 0.267834 0.373343 -0.157758
vn 0.6762938 -0.3585549 -0.6434788
v 0.112163 0.373343 -0.281507
vn 0.4374698 0.1978809 -0.8771906
v 0.432815 0.481194 -0.293365
vn 0.7194089 0.499136 -0.4830259
v 0 0.533232 -0.256575
vn 0 0.5257099 -0.8506639
v 0.33483 0.481683 0.00213145
vn 0.9588786 0.05110368 0.2791779
v 0 0.656982 -0.106209
vn 0 0.9419095 -0.3358668
v 0.448717 0.730077 -0.263055
vn 0.7661922 0.2590881 -0.5880671
v 0.143566 0.63205 0.00213148
vn 0.0197996 0.9902659 0.137773
v -0.112163 0.373343 -0.281507
vn -0.4374698 0.1978809 -0.8771906
v 0.181483 0.198045 -0.173167
vn 0.697389 -0.58883 -0.408568
v 0 0.0924545 -0.421152
vn 0 -0.5438018 -0.8392137
v 0 0.633471 0.110472
vn 0 0.908906 0.417001
v -0.181483 0.548641 -0.173167
vn -0.09527918 0.4797769 -0.8722018
v -0.143566 0.63205 0.00213148
vn -0.01979959 0.9902658 0.137774
v 0.181483 0.548641 0.17743
vn 0.479479 0.561376 0.674505
v 0.306186 0.281963 -0.201325
vn 0.7685577 -0.3614719 -0.5278798
v 0.293646 0.265003 0.00213149
vn 0.8973985 -0.4387678 0.04646218
v -0.181483 0.198045 -0.173167
vn -0.6973894 -0.5888293 -0.4085682
v 0 0.0897042 -0.106209
vn 0 -0.9952231 -0.09762642
v -0.448717 0.730077 -0.263055
vn -0.766192 0.259089 -0.588067
v -0.181483 0.548641 0.17743
vn -0.479479 0.561376 0.674505
v 0 0.507724 0.249501
vn 0 0.5066689 0.8621408
v 0.165531 0.114636 0.00213148
vn 0.5119452 -0.8589784 -0.008254633
v -0.267834 0.373343 -0.157758
vn -0.6762938 -0.3585549 -0.6434788
v -0.33483 0.481683 0.00213145
vn -0.9588786 0.05110408 0.2791779
v 0 0.0897042 0.110472
vn 0 -0.9433867 0.3316949
v -0.306186 0.281963 -0.201325
vn -0.7685581 -0.3614721 -0.5278791
v -0.165531 0.114636 0.00213148
vn -0.5119452 -0.8589784 -0.008254633
v -0.293646 0.265003 0.00213149
vn -0.8973985 -0.4387678 0.04646218
v -0.432815 0.481194 -0.293365
vn -0.7194089 0.499136 -0.4830259
v 0.2386 0.116136 0.349855
vt 0.954949 0.583709
vn -0.2246589 -0.4538138 0.8623117
v 0.299685 0.116136 0.202968
vn 0.006512529 0.6270028 -0.7789898
v 0.183934 0.209561 0.347701
vn -0.2972251 0.9263792 0.231255
v 0.299685 0.209561 0.388294
vn 0 0.9172578 0.3982939
v 0.151641 0.000818485 0.388081
vn -0.6107442 -0.7001963 0.3697521
v 0.299685 0.000818485 0.439999
vn 0 -0.8347592 0.5506152
v 0.160237 0.116136 0.279529
vn -0.8289445 -0.06676637 -0.5553316
v 0.36077 0.116136 0.349855
vn 0.2065179 -0.4687509 0.8588498
v 0.299685 0.0670879 0.221854
vn 0.0008690522 -0.9756782 -0.2192061
v 0.438118 0.116136 0.281348
vn 0.8393038 -0.05707109 -0.5406589
v 0.413531 0.209561 0.349204
vn 0.301165 0.926446 0.225826
v 0.445293 0.000818485 0.390003
vn 0.6397712 -0.6735122 0.3702351
v -0.2386 0.116136 0.349855
vn 0.2246591 -0.4538142 0.8623114
v -0.183934 0.209561 0.347701
v -0.299685 0.116136 0.202968
vn -0.006512589 0.6270028 -0.7789898
v -0.151641 0.000818485 0.388081
vn 0.6107449 -0.7001958 0.3697519
v -0.299685 0.209561 0.388294
v -0.160237 0.116136 0.279529
vn 0.8289445 -0.06676646 -0.5553316
v -0.299685 0.000818485 0.439999
v -0.299685 0.0670879 0.221854
v -0.36077 0.116136 0.349855
vn -0.206518 -0.4687501 0.8588502
v -0.438118 0.116136 0.281348
vn -0.8393038 -0.05707109 -0.5406589
v -0.413531 0.209561 0.349204
v -0.445293 0.000818485 0.390003
vn -0.6397708 -0.6735128 0.3702349
vt 0.915095 0.57186
v 0 0.197214 0.258518
vn 0 -0.6070532 0.7946612
v -0.181483 0.193405 0.17047
vn -0.5601329 -0.6156499 0.5542799
v 0.181483 0.193405 0.17047
vn 0.5601329 -0.6156499 0.5542799
vt 0 0.00716171
v 0.112163 0.343184 0.274962
vt 0.280417 0.998214
vn 0.4098689 -0.007605938 0.9121128
v 0 0.343184 0.28577
vt 0 0.997768
vn 0 0.02882921 0.9995844
vt 0.590776 -0.0489012
v -0.112163 0.343184 0.274962
vn -0.4098689 -0.007605928 0.9121128
v 0.267834 0.343184 0.162021
vt 0.74464 0.998769
vn 0.8009589 -0.05625249 0.5960709
vt 1.13543 0.491886
v -0.267834 0.343184 0.162021
vn -0.8009589 -0.05625259 0.5960709
vt 1.13693 1.76503
vt 0.915941 0.534095
o merged_0_0_node
g polygon_0
usemtl mat_kao1_mat_id
f 1/1/1 2/1/2 3/1/3
f 1/1/1 4/1/4 2/1/2
f 1/1/1 3/1/3 5/1/5
f 1/1/1 6/1/6 4/1/4
f 1/1/1 5/1/5 7/1/7
f 1/1/1 8/1/8 6/1/6
f 1/1/1 7/1/7 9/1/9
f 1/1/1 9/1/9 8/1/8
f 4/1/4 6/1/6 2/1/2
f 3/1/3 10/1/10 5/1/5
f 3/1/3 2/1/2 11/1/11
f 3/1/3 12/1/12 10/1/10
f 3/1/3 11/1/11 12/1/12
f 7/1/7 13/1/13 9/1/9
f 7/1/7 5/1/5 14/1/14
f 7/1/7 15/1/15 13/1/13
f 7/1/7 14/1/14 15/1/15
f 5/1/5 10/1/10 14/1/14
f 8/1/8 16/1/16 6/1/6
f 8/1/8 9/1/9 16/1/16
f 9/1/9 13/1/13 16/1/16
f 2/1/2 17/1/17 11/1/11
f 2/1/2 6/1/6 18/1/18
f 2/1/2 18/1/18 17/1/17
f 17/1/17 18/1/18 11/1/11
f 12/1/12 19/1/19 10/1/10
f 12/1/12 11/1/11 20/1/20
f 12/1/12 20/1/20 19/1/19
f 15/1/15 14/1/14 21/1/21
f 15/1/15 22/1/22 13/1/13
f 15/1/15 21/1/21 22/1/22
f 16/1/16 13/1/13 23/1/23
f 23/1/23 13/1/13 22/1/22
f 18/1/18 24/1/24 11/1/11
f 11/1/11 24/1/24 20/1/20
f 10/1/10 19/1/19 25/1/25
f 10/1/10 25/1/25 14/1/14
f 21/1/21 26/1/26 22/1/22
f 21/1/21 14/1/14 26/1/26
f 24/1/24 27/1/27 20/1/20
f 19/1/19 28/1/28 25/1/25
f 19/1/19 20/1/20 29/1/29
f 19/1/19 30/1/30 28/1/28
f 19/1/19 29/1/29 30/1/30
f 30/1/30 26/1/26 25/1/25
f 30/1/30 25/1/25 28/1/28
f 29/1/29 20/1/20 27/1/27
f 14/1/14 31/1/31 26/1/26
f 14/1/14 25/1/25 31/1/31
f 31/1/31 25/1/25 26/1/26
f 32/2/32 33/2/33 34/2/34
f 32/2/32 35/2/35 33/2/33
f 32/2/32 34/2/34 36/2/36
f 32/2/32 37/2/37 35/2/35
f 32/2/32 36/2/36 38/2/38
f 32/2/32 39/2/39 37/2/37
f 32/2/32 38/2/38 40/2/40
f 32/2/32 40/2/40 39/2/39
f 38/2/38 34/2/34 33/2/33
f 38/2/38 36/2/36 34/2/34
f 38/2/38 33/2/33 40/2/40
f 35/2/35 37/2/37 39/2/39
f 35/2/35 39/2/39 33/2/33
f 40/2/40 41/2/41 39/2/39
f 40/2/40 33/2/33 41/2/41
f 39/2/39 42/2/42 33/2/33
f 39/2/39 41/2/41 43/2/43
f 39/2/39 43/2/43 42/2/42
f 42/2/42 41/2/41 33/2/33
f 42/2/42 43/2/43 41/2/41
f 44/2/44 45/2/42 46/2/45
f 44/2/44 47/2/46 45/2/42
f 44/2/44 46/2/45 48/2/35
f 44/2/44 49/2/47 47/2/46
f 44/2/44 48/2/35 50/2/37
f 44/2/44 51/2/40 49/2/47
f 44/2/44 50/2/37 52/2/48
f 44/2/44 52/2/48 51/2/40
f 49/2/47 46/2/45 45/2/42
f 49/2/47 45/2/42 47/2/46
f 49/2/47 51/2/40 46/2/45
f 48/2/35 52/2/48 50/2/37
f 48/2/35 46/2/45 52/2/48
f 51/2/40 53/2/49 46/2/45
f 51/2/40 52/2/48 53/2/49
f 46/2/45 54/2/34 52/2/48
f 46/2/45 53/2/49 54/2/34
f 52/2/48 55/2/50 53/2/49
f 52/2/48 54/2/34 55/2/50
f 55/2/50 54/2/34 53/2/49
f 27/3/27 56/3/51 57/3/52
f 27/3/27 58/3/53 56/3/51
f 27/3/27 57/3/52 29/3/29
f 27/3/27 24/3/24 58/3/53
f 57/3/52 30/3/30 29/3/29
f 24/3/24 18/3/18 58/3/53
f 56/4/51 59/5/54 60/6/55
f 56/4/51 58/7/53 59/5/54
f 56/4/51 60/6/55 61/5/56
f 56/4/51 61/5/56 57/7/52
f 58/7/53 62/8/57 59/5/54
f 58/7/53 18/9/18 62/8/57
f 61/5/56 63/8/58 57/7/52
f 18/9/18 6/10/6 62/8/57
f 63/8/58 30/9/30 57/7/52
f 63/8/58 26/10/26 30/9/30
f 16/11/16 62/11/57 6/11/6
f 26/11/26 63/11/58 22/11/22
vt 0.360158 0.753608
vt -0.0400858 0.963117
vt 0.876726 0.997083
vt 1.21981 0.756032
vt -0.144674 0.769383
o merged_1_0_node
g polygon_0
usemtl TEX_ANIM_EYE_mat_id
f 61/12/56 23/13/23 22/14/22
f 22/14/22 63/15/58 61/12/56
f 16/14/16 59/12/54 62/15/57
f 59/12/54 23/13/23 60/16/55
f 60/16/55 23/13/23 61/12/56
f 16/14/16 23/13/23 59/12/54
