mtllib Yanma.mtl
v 0 0.408788 0.39746
vt 0.835995 0.935161
vn 0 0.9325774 0.3609701
v 0.110385 0.392743 0.322664
vn 0.5504369 0.8077849 -0.210957
v 0 0.408788 0.247868
vn 0 0.9412416 -0.3377339
v 0.119924 0.483283 0.430931
vn 0.3102551 0.8451102 0.4353511
v -0.110385 0.392743 0.322664
vn -0.5504369 0.8077849 -0.210957
v 0.121023 0.339065 0.443687
vn 0.6075991 0.438443 0.6622621
v -0.119924 0.483283 0.430931
vn -0.3102551 0.8451102 0.4353511
v 0 0.329148 0.501271
vn 0 0.5493483 0.8355935
v -0.121023 0.339065 0.443687
vn -0.6075993 0.4384422 0.6622624
v -0.121023 0.339065 0.201641
vn -0.5643849 0.601351 -0.56555
v 0.121023 0.339065 0.201641
vn 0.5643849 0.601351 -0.56555
v 0 0.329148 0.144058
vn 0 0.549349 -0.835593
v -0.0747962 0.22625 0.126845
vn -0.358145 0 -0.933666
v 0.0747962 0.22625 0.126845
vn 0.358145 0 -0.933666
v 0.0458589 0.230318 -0.192906
vt 0.00795308 0.666484
vn 0.5659971 0.8096141 -0.155475
v 0.0694406 0.242524 -0.13446
vt 0.00795302 0.554357
vn 0.4792821 0.5559331 -0.6791371
v 0 0.156142 -0.13446
vn 0 -0.5969399 -0.8022859
v -0.0694406 0.242524 -0.13446
vn -0.4792821 0.5559331 -0.6791371
v 0 0.188548 -0.192906
vn 0 -0.9949487 -0.100384
v -0.0458589 0.230318 -0.192906
vn -0.5659971 0.8096141 -0.155475
v 0 0.188548 -0.352101
vt 0.00795308 0.971888
vn 0 -0.99048 -0.137657
v 0.0458589 0.230318 -0.352101
vn 0.670596 0.736238 -0.0908547
v 0 0.293111 -0.0667457
vt 0.00795331 0.424452
vn 0 0.9849074 -0.1730821
v 0.137155 0.225396 -0.0667457
vn 0.7738225 0.5922927 -0.2244729
v -0.0458589 0.230318 -0.352101
vn -0.670596 0.736238 -0.0908547
v -0.137155 0.225396 -0.0667457
vn -0.7738225 0.5922927 -0.2244729
v 0.137155 0.234498 0.0721355
vt 0.00795329 0.158018
vn 0.7676911 0.6063181 0.207434
v -0.137155 0.234498 0.0721355
vn -0.7676911 0.6063181 0.207434
v 0 0.293111 0.0612135
vt 0.00795329 0.178971
vn 0 0.9877443 0.1560811
v 0.0694406 0.240869 0.13985
vt 0.00795336 0.0281123
vn 0.2272501 0.3517881 0.9080763
v 0.0694406 0.139014 0.13985
vn 0.2265781 -0.3113841 0.9228773
v 0.137155 0.139014 0.0721355
vn 0.7634351 -0.6075321 0.219252
v -0.0694406 0.240869 0.13985
vn -0.2272501 0.3517881 0.9080763
v 0 0.0785815 0.0721355
vn 0 -0.9846848 0.174344
v -0.0694406 0.139014 0.13985
vn -0.2265781 -0.3113841 0.9228773
v -0.137155 0.139014 0.0721355
vn -0.7634351 -0.6075321 0.219252
v 0 0.04371262 0.39746
vt 0.685875 0.573705
v 0 0.04371262 0.247868
vt 0.685875 0.306932
vn 0 -0.9412416 -0.3377339
v 0.110385 0.05975771 0.322664
vt 0.919882 0.496635
vn 0.5021979 -0.8647528 0
v -0.110385 0.05975771 0.322664
vn -0.5021979 -0.8647528 0
v 0.121023 0.113436 0.443687
vt 0.991372 0.813788
vn 0.6657841 -0.5625061 0.490223
v -0.121023 0.113436 0.443687
vn -0.6657841 -0.5625061 0.490223
v 0.0493118 0.06791321 0.462294
vt 0.758104 0.758331
vn 0.338674 -0.8811041 0.330084
v -0.0493118 0.06791321 0.462294
vn -0.3437691 -0.8812843 0.3242851
vt 0.620411 0.758331
v 0.0442458 0.10391 0.506016
vt 0.752665 0.865493
vn 0.2635151 -0.2898711 0.9200732
v 0.0373981 0.174801 0.509877
vt 0.736944 0.986341
vn 0.1714409 -0.1677519 0.9708076
v -0.0442458 0.10391 0.506016
vn -0.267194 -0.280539 0.9219031
v -0.0373981 0.174801 0.509877
vt 0.641632 0.986341
vn -0.196941 -0.167737 0.9659599
vt 0.62585 0.865493
vt 0.736883 0.986341
v -0.121023 0.113436 0.201641
vt 0.504647 0.254258
vn -0.5643853 -0.6013503 -0.5655503
vt 0.256517 0.143075
v -0.195819 0.156527 0.322664
vt 0.256517 0.337651
vn -0.926952 -0.37518 0
vt 0.514188 0.00736195
v -0.178606 0.22625 0.212279
vt 0.460562 0.45248
vn -0.8507059 0 -0.525642
v 0 0.123352 0.144058
vt 0.665361 0.260236
vn 0 -0.5493483 -0.8355935
vt 0.665361 0.45248
vt 0.0328087 0.248046
v 0.121023 0.113436 0.201641
vn 0.5643853 -0.6013503 -0.5655503
vt 0.504647 0.638276
v -0.195819 0.295974 0.322664
vt 0.256517 0.567308
vn -0.926952 0.37518 0
v 0.195819 0.156527 0.322664
vn 0.926952 -0.37518 0
vt 0.256517 0.72668
vt 0.0328087 0.638276
v 0.178606 0.22625 0.212279
vn 0.8507059 0 -0.525642
v 0.195819 0.295974 0.322664
vn 0.926952 0.37518 0
v 0.108047 0.206647 -0.357556
vt 0.450829 0.856916
vn 0.815703 0 0.578471
v 0.0667767 0.147719 -0.411831
vn 0.367441 -0.9300469 0
v 0.108047 0.206647 -0.466106
vn 0.815703 0 -0.578471
v 0 0.170227 -0.324012
vn 0 -0.6443878 0.7646988
v 0.0667767 0.265575 -0.411831
vn 0.367441 0.9300469 0
v 0 0.243067 -0.324012
vn 0 0.6443878 0.7646988
v 0 0.170227 -0.49965
vn 0 -0.6443878 -0.7646988
v -0.0667767 0.147719 -0.411831
vn -0.367441 -0.9300469 0
v -0.0667767 0.265575 -0.411831
vn -0.367441 0.9300469 0
v 0 0.243067 -0.49965
vn 0 0.6443878 -0.7646988
v -0.108047 0.206647 -0.357556
vn -0.815703 0 0.578471
v -0.108047 0.206647 -0.466106
vn -0.815703 0 -0.578471
vt 0.717701 0.233626
vt 0.977045 0.122993
vt 0.717701 0.0123593
vt 0.97661 0.322821
v 0 0.206125 -0.439851
vt 0.750452 0.95624
vn 0 1 0
v 0 0.206125 -0.38389
v 0.218536 0.206125 -0.36715
v -0.218536 0.206125 -0.36715
v 0.218536 0.206125 -0.456591
v -0.218536 0.206125 -0.456591
v 0.25518 0.206125 -0.41187
v -0.25518 0.206125 -0.41187
vn 0 -1 0
v -0.114851 0.157199 0.0970074
vt 0.951235 0.954377
vn -0.9811798 -0.06982639 0.180029
v -0.169091 0.0823987 0.114529
vn 0.760612 -0.0697316 0.645451
v -0.150161 -0.00024088 0.114894
vn -0.8322889 0.5130109 0.210036
v -0.150161 0.0881463 0.147212
vn -0.5979291 0.0108007 -0.8014762
v -0.137495 0.157199 0.061579
vn -0.9851463 0.08389423 0.1498281
v -0.207963 0.0978978 0.0425605
vn 0.6667799 -0.540023 0.5135949
v -0.207451 0.0229935 0.00285071
vn -0.7170961 0.5311941 0.4512271
v -0.191236 0.0830025 0.0735099
vn -0.507405 0.525507 -0.6829221
v -0.137495 0.157199 0.0296934
vn 0.9910424 0.1275571 0.03954941
v -0.166693 0.0315889 -0.068915
vn 0.8767597 -0.2710929 -0.3972419
v -0.189607 0.0931363 -0.0152994
vn -0.678104 0.5260541 -0.5132661
v -0.175152 0.074201 0.0145679
vn 0.494704 -0.5815541 0.645804
v 0.114851 0.157199 0.0970074
vn -0.9811797 0.06982658 -0.1800299
v 0.169091 0.0823987 0.114529
vn 0.760612 0.0697318 -0.645451
v 0.150161 -0.000240877 0.114894
vn -0.8322889 -0.5130109 -0.210036
v 0.150161 0.0881463 0.147212
vn -0.5979291 -0.0108009 0.8014762
v 0.137495 0.157199 0.061579
vn -0.985146 -0.0838937 -0.149831
v 0.207963 0.0978978 0.0425605
vn 0.6667799 0.540023 -0.5135949
v 0.207451 0.0229935 0.00285071
vn -0.7170959 -0.5311939 -0.4512279
v 0.191235 0.0830025 0.0735099
vn -0.507405 -0.525507 0.6829221
v 0.137495 0.157199 0.0296934
vn -0.9910424 0.127557 0.03954972
v 0.189607 0.0931363 -0.0152994
vn 0.678104 0.5260541 -0.5132661
v 0.166693 0.0315889 -0.068915
vn -0.8767601 -0.271093 -0.397241
v 0.175152 0.074201 0.0145679
vn -0.4947029 -0.5815539 0.6458049
v 0.5712317 0.3156492 0.145918
vt 0.509593 0.97942
vn -0.07892627 0.9968805 3.098557E-06
v 0.06495448 0.2755636 0.0120876
vt 0.0736469 0.97942
v 0.06495499 0.2755638 0.09001548
v 0.4986849 0.3099048 -0.04380806
vt 0.445237 0.97942
v 0.5979567 0.3177653 0.05105527
vt 0.52338 0.97942
vn 0.07892636 -0.9968804 -3.098556E-06
v 0.5799329 0.3172561 0.005469409
vn -0.07785959 0.9968805 0.01293256
v 0.05857248 0.2771707 -0.04361491
v 0.07133967 0.2771709 0.03326025
v 0.4772853 0.3115116 -0.169809
v 0.5907567 0.3193721 -0.09248971
vn 0.07785968 -0.9968804 -0.01293286
v -0.5712286 0.3156461 0.1459205
vn -0.07893167 -0.9968801 -3.693776E-06
v -0.06495448 0.2755636 0.01208759
v -0.06495512 0.275564 0.09001642
v -0.498682 0.3099019 -0.04380794
vt 0.446789 0.97942
v -0.5979542 0.3177619 0.05105671
vn 0.07893118 0.9968801 3.69378E-06
v -0.5799295 0.3172527 0.005470249
vn 0.07786537 0.99688 0.01293326
v -0.07133965 0.2771709 0.03326051
v -0.05857242 0.2771707 -0.04361559
v -0.4772823 0.3115087 -0.1698105
v -0.5907531 0.3193685 -0.09249011
vn -0.07786547 -0.99688 -0.01293346
o merged_0_0_node
g polygon_0
usemtl yanyanma_01_mat_id
f 1/1/1 2/1/2 3/1/3
f 1/1/1 4/1/4 2/1/2
f 1/1/1 3/1/3 5/1/5
f 1/1/1 6/1/6 4/1/4
f 1/1/1 5/1/5 7/1/7
f 1/1/1 8/1/8 6/1/6
f 1/1/1 7/1/7 9/1/9
f 1/1/1 9/1/9 8/1/8
f 9/1/9 7/1/7 5/1/5
f 6/1/6 2/1/2 4/1/4
f 3/1/3 10/1/10 5/1/5
f 3/1/3 2/1/2 11/1/11
f 3/1/3 12/1/12 10/1/10
f 3/1/3 11/1/11 12/1/12
f 10/1/10 12/1/12 13/1/13
f 11/1/11 14/1/14 12/1/12
f 12/1/12 14/1/14 13/1/13
f 15/2/15 16/3/16 17/3/17
f 15/2/15 18/3/18 16/3/16
f 15/2/15 17/3/17 19/2/19
f 15/2/15 20/2/20 18/3/18
f 15/2/15 19/2/19 21/4/21
f 15/2/15 22/4/22 20/2/20
f 15/2/15 21/4/21 22/4/22
f 17/3/17 18/3/18 20/2/20
f 17/3/17 20/2/20 19/2/19
f 16/3/16 18/3/18 23/5/23
f 16/3/16 23/5/23 24/5/24
f 21/4/21 25/4/25 22/4/22
f 21/4/21 19/2/19 25/4/25
f 25/4/25 19/2/19 20/2/20
f 25/4/25 20/2/20 22/4/22
f 18/3/18 26/5/26 23/5/23
f 24/5/24 23/5/23 27/6/27
f 26/5/26 28/6/28 23/5/23
f 27/6/27 23/5/23 29/7/29
f 27/6/27 29/7/29 30/8/30
f 27/6/27 30/8/30 31/8/31
f 27/6/27 31/8/31 32/6/32
f 23/5/23 28/6/28 29/7/29
f 30/8/30 33/8/33 31/8/31
f 30/8/30 29/7/29 33/8/33
f 29/7/29 28/6/28 33/8/33
f 32/6/32 31/8/31 34/6/34
f 28/6/28 35/8/35 33/8/33
f 28/6/28 36/6/36 35/8/35
f 35/8/35 31/8/31 33/8/33
f 35/8/35 34/6/34 31/8/31
f 35/8/35 36/6/36 34/6/34
f 37/9/34 38/10/37 39/11/38
f 37/9/34 40/11/39 38/10/37
f 37/9/34 39/11/38 41/12/40
f 37/9/34 42/12/41 40/11/39
f 37/9/34 41/12/40 43/13/42
f 37/9/34 44/13/43 42/12/41
f 37/9/34 43/13/42 44/14/43
f 41/12/40 45/15/44 43/13/42
f 41/12/40 46/16/45 45/15/44
f 43/13/42 45/15/44 44/14/43
f 44/13/43 47/15/46 42/12/41
f 46/16/45 48/17/47 45/15/44
f 44/14/43 45/15/44 47/18/46
f 47/18/46 45/15/44 48/17/47
f 47/15/46 48/19/47 42/12/41
f 49/20/48 40/21/39 50/22/49
f 49/20/48 38/23/37 40/21/39
f 49/20/48 50/22/49 51/24/50
f 49/20/48 52/25/51 38/23/37
f 49/20/48 51/24/50 13/26/13
f 49/20/48 13/26/13 52/25/51
f 40/21/39 42/27/41 50/22/49
f 38/23/37 52/25/51 53/20/52
f 38/23/37 53/20/52 39/21/38
f 51/24/50 10/28/10 13/26/13
f 51/24/50 50/22/49 54/29/53
f 51/24/50 54/29/53 10/28/10
f 52/25/51 14/26/14 53/20/52
f 52/25/51 13/26/13 14/26/14
f 39/21/38 53/20/52 55/22/54
f 39/21/38 55/22/54 41/27/40
f 54/29/53 5/30/5 10/28/10
f 54/29/53 9/31/9 5/30/5
f 14/26/14 56/24/55 53/20/52
f 14/26/14 11/28/11 56/24/55
f 53/20/52 56/24/55 55/22/54
f 11/28/11 57/29/56 56/24/55
f 11/28/11 2/30/2 57/29/56
f 56/24/55 57/29/56 55/22/54
f 2/30/2 6/31/6 57/29/56
f 58/32/57 59/32/58 60/32/59
f 58/32/57 61/32/60 59/32/58
f 58/32/57 60/32/59 62/32/61
f 58/32/57 63/32/62 61/32/60
f 58/32/57 62/32/61 63/32/62
f 59/32/58 64/32/63 60/32/59
f 59/32/58 61/32/60 65/32/64
f 59/32/58 65/32/64 64/32/63
f 62/32/61 66/32/65 63/32/62
f 62/32/61 67/32/66 66/32/65
f 61/32/60 68/32/67 65/32/64
f 61/32/60 63/32/62 68/32/67
f 63/32/62 66/32/65 68/32/67
f 64/32/63 65/32/64 69/32/68
f 69/32/68 68/32/67 66/32/65
f 69/32/68 65/32/64 68/32/67
f 67/33/66 60/34/59 64/35/63
f 67/33/66 62/36/61 60/34/59
f 67/33/66 64/35/63 69/34/68
f 67/33/66 69/34/68 66/36/65
f 70/37/69 71/37/69 72/37/69
f 70/37/69 73/37/69 71/37/69
f 70/37/69 72/37/69 74/37/69
f 70/37/69 75/37/69 73/37/69
f 72/37/69 76/37/69 74/37/69
f 75/37/69 77/37/69 73/37/69
f 70/37/70 72/37/70 71/37/70
f 70/37/70 74/37/70 72/37/70
f 70/37/70 71/37/70 73/37/70
f 70/37/70 73/37/70 75/37/70
f 74/37/70 76/37/70 72/37/70
f 73/37/70 77/37/70 75/37/70
f 78/38/71 79/38/72 80/38/73
f 78/38/71 81/38/74 79/38/72
f 78/38/71 80/38/73 81/38/74
f 81/38/74 80/38/73 79/38/72
f 82/38/75 83/38/76 84/38/77
f 82/38/75 85/38/78 83/38/76
f 82/38/75 84/38/77 85/38/78
f 85/38/78 84/38/77 83/38/76
f 86/38/79 87/38/80 88/38/81
f 86/38/79 89/38/82 87/38/80
f 86/38/79 88/38/81 89/38/82
f 89/38/82 88/38/81 87/38/80
f 90/38/83 91/38/84 92/38/85
f 90/38/83 93/38/86 91/38/84
f 90/38/83 92/38/85 93/38/86
f 93/38/86 92/38/85 91/38/84
f 94/38/87 95/38/88 96/38/89
f 94/38/87 97/38/90 95/38/88
f 94/38/87 96/38/89 97/38/90
f 97/38/90 96/38/89 95/38/88
f 98/38/91 99/38/92 100/38/93
f 98/38/91 101/38/94 99/38/92
f 98/38/91 100/38/93 101/38/94
f 101/38/94 100/38/93 99/38/92
f 102/39/95 103/40/95 104/40/95
f 102/39/95 105/41/95 103/40/95
f 102/39/95 106/42/95 105/41/95
f 102/39/96 105/41/96 106/42/96
f 102/39/96 103/40/96 105/41/96
f 102/39/96 104/40/96 103/40/96
f 107/39/97 108/40/97 109/40/97
f 107/39/97 110/41/97 108/40/97
f 107/39/97 111/42/97 110/41/97
f 107/39/98 110/41/98 111/42/98
f 107/39/98 108/40/98 110/41/98
f 107/39/98 109/40/98 108/40/98
f 112/39/99 113/40/99 114/40/99
f 112/39/99 115/43/99 113/40/99
f 112/39/99 116/42/99 115/43/99
f 112/39/100 115/43/100 116/42/100
f 112/39/100 113/40/100 115/43/100
f 112/39/100 114/40/100 113/40/100
f 117/39/101 118/40/101 119/40/101
f 117/39/101 119/40/101 120/43/101
f 117/39/101 120/43/101 121/42/101
f 117/39/102 121/42/102 120/43/102
f 117/39/102 120/43/102 119/40/102
f 117/39/102 119/40/102 118/40/102
vt -0.744494 0.923593
vt -0.536321 0.923593
v -0.137155 0.139014 -0.0667457
vt -0.744494 0.348165
vn -0.6917236 -0.6352686 -0.3434418
vt -0.536321 0.348165
vt -0.744494 0.92388
v 0.137155 0.139014 -0.0667457
vt -0.744494 0.348453
vn 0.6917236 -0.6352686 -0.3434418
vt -0.536321 0.92388
vt -0.536321 0.348453
v 0 0.0864502 -0.0667457
vt -0.984687 0.348165
vn 0 -0.9480853 -0.3180161
vt -0.984687 0.923593
vt -0.984687 0.348453
vt -0.984687 0.92388
vt -0.984687 0.0676049
vt -0.744494 0.0676049
vt -0.984687 0.0678923
vt -0.744494 0.0678923
v -0.0747962 0.22625 0.518483
vt -0.197635 0.45214
vn -0.3977021 0.07083452 0.9147762
vt -0.352961 0.910066
vt -0.101639 0.954197
v 0.0747962 0.22625 0.518483
vn 0.3875591 0.06431843 0.9195983
vt -0.508286 0.45214
vt -0.275298 0.223177
vt -0.430623 0.223177
vt -0.0315598 0.0194797
o merged_1_0_node
g polygon_0
usemtl yanyanma_02_mat_id
f 36/44/36 28/45/28 122/46/103
f 122/46/103 28/45/28 26/47/26
f 32/48/32 123/49/104 27/50/27
f 27/50/27 123/49/104 24/51/24
f 124/52/105 34/53/34 122/46/103
f 122/46/103 34/53/34 36/44/36
f 124/54/105 123/49/104 34/55/34
f 34/55/34 123/49/104 32/48/32
f 17/56/17 122/46/103 18/57/18
f 18/57/18 122/46/103 26/47/26
f 17/58/17 16/59/16 123/49/104
f 123/49/104 16/59/16 24/51/24
f 124/52/105 122/46/103 17/56/17
f 123/49/104 124/54/105 17/58/17
f 125/60/106 8/61/8 9/62/9
f 126/60/107 125/63/106 46/64/45
f 125/63/106 48/65/47 46/64/45
f 42/66/41 48/64/47 125/60/106
f 126/60/107 46/64/45 41/66/40
f 126/60/107 8/61/8 125/63/106
f 6/62/6 8/61/8 126/60/107
vt -0.0536203 0.79874
v 0.178606 0.22625 0.433049
vt -0.477995 0.869482
vn 0.8507059 0 0.525642
vt -0.592809 0.75502
vt -0.592809 0.983946
v -0.178606 0.22625 0.433049
vn -0.8507059 0 0.525642
vt -0.926044 0.869482
vt -0.0536203 0.940224
o merged_2_0_node
g polygon_0
usemtl TEX_ANIM_EYE_mat_id
f 55/67/54 127/68/108 41/69/40
f 9/70/9 128/68/109 125/71/106
f 6/70/6 126/71/107 127/68/108
f 127/68/108 126/71/107 41/69/40
f 57/72/56 127/68/108 55/67/54
f 6/70/6 127/68/108 57/72/56
f 50/67/49 42/69/41 128/68/109
f 128/68/109 42/69/41 125/71/106
f 54/72/53 128/68/109 9/70/9
f 50/67/49 128/68/109 54/72/53
