mtllib Drilbur.mtl
v -0.193474 0.154544 0.000119581
vt 0.257976 0.22438
vn -0.9643012 0.264538 0.011951
v -0.146296 0.0821355 -0.124317
vt 0.14437 0.101309
vn -0.6798521 -0.309822 -0.6646891
v -0.196824 0.0617125 0.000100276
vt 0.258083 0.0673781
vn -0.9490243 -0.3151141 0.007478102
v -0.140432 0.139802 -0.122261
vt 0.141884 0.197112
vn -0.6404147 0.3080328 -0.7035516
v -0.144885 0.0830701 0.143308
vt 0.379451 0.105292
vn -0.6318129 -0.3701829 0.6810119
v -0.105714 0.204272 -0.102705
vt 0.130058 0.314009
vn -0.6076679 0.3565009 -0.7096808
v -0.132534 0.149019 0.130855
vt 0.377732 0.232097
vn -0.633899 0.367704 0.680416
v -0.142958 0.268545 -0.00533556
vt 0.257033 0.423851
vn -0.9549277 0.2961749 -0.019835
v -0.106587 0.206279 0.107667
vt 0.376013 0.358901
vn -0.6642099 0.4082939 0.6261959
v -0.11294 0.0431385 -0.0697101
vt 0.172135 0.0335483
vn -0.2071231 -0.8947433 -0.3956441
v 0 0.0868396 -0.185731
vt 1.59144E-05 0.109124
vn 0 0.133093 -0.9911036
v -0.0536222 0.0625992 -0.141872
vt 0.0614339 0.0688513
vn -0.3040381 -0.8341703 -0.4601312
v 0 0.129518 0.187214
vt 0.500016 0.195801
vn 0 0.1780561 0.9840204
v -0.11294 0.0431385 0.0699493
vt 0.347647 0.0335483
vn -0.188378 -0.8980912 0.3974241
v 0 0.0702419 0.178277
vt 0.500016 0.0815492
vn 0 -0.694026 0.71995
v 0 0.0431385 0.0988737
vt 0.500016 0.0335483
vn 0 -0.9578662 0.287215
v -0.0892156 0.309825 -0.0905876
vt 0.130894 0.498532
vn -0.6180619 0.153925 -0.7709128
v 0 0.157207 -0.168976
vt 1.59144E-05 0.228124
vn 0 0.3133241 -0.9496463
v 0 0.263549 -0.128919
vt 1.59144E-05 0.417635
vn 0 0.2293649 -0.9733405
v 0 0.207433 0.154497
vt 0.500016 0.335014
vn 0 0.311538 0.9502338
v -0.0884764 0.284836 0.0889865
vt 0.384679 0.498532
vn -0.767156 0.15358 0.622804
v 0 0.0431385 -0.107339
vt 1.59144E-05 0.0335483
vn 0 -0.9865392 -0.163525
v 0 0.0244108 0.00011958
vt 0.500016 0.00146845
vn 0 -1 -4.7009E-05
v 0.144885 0.0830701 0.143308
vt 0.620581 0.105292
vn 0.6318129 -0.3701829 0.6810119
v 0 0.0360352 -0.198863
vt 1.59144E-05 0.0213806
vn 0 -0.7618787 -0.6477197
v 0.132534 0.149019 0.130855
vt 0.6223 0.232097
vn 0.633899 0.367704 0.680416
v 0.106587 0.206279 0.107667
vt 0.624019 0.358901
vn 0.6642099 0.4082939 0.6261959
v 0.11294 0.0431385 0.0699493
vt 0.652385 0.0335483
vn 0.188378 -0.8980912 0.3974241
vt 1.00002 0.0335483
v 0.11294 0.0431385 -0.0697101
vt 0.827897 0.0335483
vn 0.2071231 -0.8947433 -0.3956441
v 0.193474 0.154544 0.000119581
vt 0.742056 0.22438
vn 0.9643012 0.264538 0.0119509
v 0.142958 0.268545 -0.00533556
vt 0.742999 0.423851
vn 0.9549277 0.2961749 -0.019835
v 0.0884764 0.284836 0.0889865
vt 0.615358 0.498515
vn 0.7671554 0.1535809 0.6228046
v 0.0536222 0.0625992 -0.141872
vt 0.938598 0.0688513
vn 0.3040381 -0.8341703 -0.4601312
vt 1.00002 0.0213806
v 0.196824 0.0617125 0.000100276
vt 0.741948 0.0673781
vn 0.9490243 -0.3151141 0.007478073
v 0.105714 0.204272 -0.102705
vt 0.869974 0.314009
vn 0.6076679 0.3565009 -0.7096808
v 0.0892156 0.309825 -0.0905876
vt 0.869138 0.498532
vn 0.618062 0.153924 -0.7709129
v 0.146296 0.0821355 -0.124317
vt 0.855661 0.101309
vn 0.6798521 -0.309822 -0.6646891
vt 1.00002 0.109124
vt 1.00002 0.417635
v 0.140432 0.139802 -0.122261
vt 0.858148 0.197112
vn 0.6404141 0.308033 -0.7035521
vt 1.00002 0.228124
v 0 0.276306 0.144137
vt 0.275933 0.716314
vn 0 -0.2189131 0.9757444
vt 0.492909 0.726863
vt 0.489962 0.570321
v -0.0580205 0.325532 0.133645
vt 0.303029 0.815946
vn -0.8504971 -0.129017 0.5099111
vt 0.275933 0.585366
v 0 0.324256 0.217214
vt 0.137498 0.783427
vn 0 -0.7931671 0.6090041
v 0.0580205 0.325532 0.133645
vn 0.8504971 -0.129017 0.5099111
v -0.0264958 0.383691 0.25152
vt 0.071425 0.894836
vn -0.9059874 -0.1241871 0.4046782
v -0.038425 0.400744 0.128531
vt 0.318374 0.898015
vn -0.620425 0.759583 0.195209
v 0.0264958 0.383691 0.25152
vn 0.9059876 -0.1241869 0.4046778
v 0.038425 0.400744 0.128531
vn 0.6396735 0.7410185 0.2042288
v -0.0195938 0.4082 0.234554
vt 0.11508 0.924263
vn -0.4146202 0.9084764 0.05254382
v 0 0.370851 0.271345
vt 0.0356372 0.870271
vn 0 -0.5623353 0.8269094
v 0 0.405502 0.267662
vt 0.0313393 0.927296
vn 0 0.6667677 0.7452657
v 0 0.414185 0.0849581
vt 0.41384 0.995192
vn 0 0.9038299 0.4278919
v 0.0195938 0.4082 0.234554
vn 0.490117 0.8682869 0.07657179
v 0.0721269 0.400053 0.0801921
vt 0.485426 0.932437
vn 0.6549214 0.5865653 0.4764653
v -0.0721269 0.400053 0.0801921
vn -0.6549214 0.5865653 0.4764653
v 0 0.365037 -0.117702
vt 0.095054 0.688976
vn 0 0.179126 -0.9838262
vt 0.0878537 0.669667
vt 0.102317 0.653483
v 0.0741951 0.40379 -0.0831829
vt 0.0778981 0.707084
vn 0.5549129 0.5382119 -0.6343498
v 0 0.417052 -0.0947056
vt 0.0843194 0.707166
vn 0 0.7236061 -0.6902131
v -0.0741951 0.40379 -0.0831829
vn -0.5549129 0.5382119 -0.6343498
v 0.121641 0.353135 -0.0282688
vt 0.0627438 0.68403
vn 0.9161472 0.2660901 -0.2997841
vt 0.054928 0.654726
v -0.121641 0.353135 -0.0282688
vn -0.9161472 0.2660901 -0.2997841
v 0 0.450456 -0.0290303
vt 0.0704627 0.712478
vn 0 0.9749491 -0.222428
v 0.117281 0.358491 0.0322392
vt 0.0410512 0.686598
vn 0.9023442 0.2428971 0.3560561
v 0.0899898 0.424048 0.00214771
vt 0.056606 0.709166
vn 0.617467 0.7864811 0.0134882
v -0.117281 0.358491 0.0322392
vn -0.9023442 0.2428971 0.3560561
vt 0.0181801 0.669668
v -0.0899898 0.424048 0.00214771
vn -0.617467 0.7864811 0.0134882
v 0 0.449991 0.0347055
vt 0.056606 0.717789
vn 0 0.9614809 0.274872
vt 0.0265456 0.705852
vt 0.0280437 0.711682
v -0.13073 0 0.000119581
vt 0.139293 0.509187
vn -0.2061931 -0.9785113 3.910652E-05
vt 0.153321 0.593649
vt 0.0132591 0.557741
vt 0.242149 0.576522
v 0.13073 0 0.000119581
vn 0.2061931 -0.9785113 3.912281E-05
v 0.335078 0.295079 0.379093
vt 0.925062 0.566716
vn 0.5643879 0.156911 0.8104599
v 0.2437 0.3304 0.176821
vt 0.934946 0.52564
vn -0.709392 -0.505316 0.4913439
v 0.281949 0.241236 0.167443
vt 0.915224 0.525644
vn -0.8165681 -0.255412 0.5176691
v 0.278641 0.35075 0.158184
vt 0.935527 0.522709
vn 0.6046852 0.6832933 -0.4092262
v 0.319332 0.255896 0.148208
vt 0.914584 0.522709
vn 0.8781084 0.04591297 -0.4762537
v 0.296913 0.375899 0.381023
vt 0.946041 0.56522
vn 0.08833 0.93998 0.329599
v 0.186738 0.404046 0.196637
vt 0.953405 0.522709
vn -0.6596362 -0.6232371 0.4200661
v 0.366858 0.21285 0.363873
vt 0.904071 0.56522
vn 0.760833 -0.627697 0.164711
v 0.296896 0.147253 0.169627
vt 0.896707 0.522709
vn -0.8721967 -0.127735 0.4721828
vn 0.3486942 0.8637555 -0.3637842
vn 0.8339342 -0.2673921 -0.4827581
v -0.335078 0.295079 0.379093
vn -0.5643908 0.1569069 0.8104587
v -0.281949 0.241236 0.167443
vn 0.8165681 -0.255412 0.5176691
v -0.2437 0.3304 0.176821
vn 0.709392 -0.505316 0.4913439
v -0.319332 0.255896 0.148208
vn -0.8781082 0.04591341 -0.4762541
v -0.278641 0.35075 0.158184
vn -0.6046859 0.6832928 -0.4092259
v -0.366858 0.21285 0.363873
vn -0.7608303 -0.6277002 0.1647111
v -0.296896 0.147253 0.169627
vn 0.8721967 -0.127735 0.4721828
v -0.296913 0.375899 0.381023
vn -0.08832972 0.9399793 0.3296011
v -0.186738 0.404046 0.196637
vn 0.6596362 -0.6232371 0.4200661
vn -0.8339342 -0.2673921 -0.4827581
vn -0.3486949 0.8637548 -0.3637849
v 0.14858 0.256265 -0.0128445
vt 0.622788 0.805592
vn -0.7379217 -0.3755338 0.5607548
vt 0.504253 1
vt 0.581395 1
vt 0.664208 1
vt 0.741333 1
vt 0.875026 0.805592
vn 0.5717978 0.3245399 -0.7534727
vt 1.00002 0.999625
vt 0.928221 0.999625
vt 0.821831 0.999625
vt 0.750031 0.999625
v -0.14858 0.256265 -0.0128444
vn 0.7379217 -0.3755338 0.5607548
vn -0.5717983 0.3245401 -0.7534723
o merged_0_0_node
g polygon_0
usemtl mat_body_mat_id
f 1/1/1 2/2/2 3/3/3
f 1/1/1 4/4/4 2/2/2
f 1/1/1 3/3/3 5/5/5
f 1/1/1 6/6/6 4/4/4
f 1/1/1 5/5/5 7/7/7
f 1/1/1 8/8/8 6/6/6
f 1/1/1 7/7/7 9/9/9
f 1/1/1 9/9/9 8/8/8
f 2/2/2 10/10/10 3/3/3
f 2/2/2 4/4/4 11/11/11
f 2/2/2 12/12/12 10/10/10
f 2/2/2 11/11/11 12/12/12
f 5/5/5 13/13/13 7/7/7
f 5/5/5 3/3/3 14/14/14
f 5/5/5 15/15/15 13/13/13
f 5/5/5 14/14/14 16/16/16
f 5/5/5 16/16/16 15/15/15
f 6/6/6 8/8/8 17/17/17
f 6/6/6 18/18/18 4/4/4
f 6/6/6 17/17/17 19/19/19
f 6/6/6 19/19/19 18/18/18
f 18/18/18 11/11/11 4/4/4
f 9/9/9 7/7/7 20/20/20
f 9/9/9 21/21/21 8/8/8
f 7/7/7 13/13/13 20/20/20
f 10/10/10 12/12/12 22/22/22
f 10/10/10 22/22/22 23/23/23
f 14/14/14 23/23/23 16/16/16
f 15/15/15 24/24/24 13/13/13
f 15/15/15 16/16/16 24/24/24
f 11/11/11 25/25/25 12/12/12
f 12/12/12 25/25/25 22/22/22
f 20/20/20 13/13/13 26/26/26
f 20/20/20 26/26/26 27/27/27
f 13/13/13 24/24/24 26/26/26
f 23/23/23 28/28/28 16/16/16
f 23/23/23 22/29/22 29/30/29
f 16/16/16 28/28/28 24/24/24
f 27/27/27 26/26/26 30/31/30
f 27/27/27 30/31/30 31/32/31
f 27/27/27 31/32/31 32/33/32
f 26/26/26 24/24/24 30/31/30
f 22/29/22 33/34/33 29/30/29
f 22/29/22 25/35/25 33/34/33
f 28/28/28 34/36/34 24/24/24
f 24/24/24 34/36/34 30/31/30
f 31/32/31 30/31/30 35/37/35
f 31/32/31 35/37/35 36/38/36
f 29/30/29 33/34/33 37/39/37
f 29/30/29 37/39/37 34/36/34
f 34/36/34 37/39/37 30/31/30
f 25/35/25 11/40/11 33/34/33
f 33/34/33 11/40/11 37/39/37
f 35/37/35 19/41/19 36/38/36
f 35/37/35 30/31/30 38/42/38
f 35/37/35 18/43/18 19/41/19
f 35/37/35 38/42/38 18/43/18
f 38/42/38 37/39/37 11/40/11
f 38/42/38 30/31/30 37/39/37
f 38/42/38 11/40/11 18/43/18
f 39/44/39 21/45/21 9/46/9
f 39/44/39 40/47/40 21/45/21
f 39/44/39 9/46/9 20/48/20
f 39/44/39 41/49/41 40/47/40
f 39/44/39 20/48/20 27/46/27
f 39/44/39 42/47/42 41/49/41
f 39/44/39 27/46/27 32/45/32
f 39/44/39 32/45/32 42/47/42
f 40/47/40 41/49/41 43/50/43
f 40/47/40 43/50/43 44/51/44
f 42/47/42 45/50/45 41/49/41
f 42/47/42 46/51/46 45/50/45
f 43/50/43 47/52/47 44/51/44
f 43/50/43 41/49/41 48/53/48
f 43/50/43 49/54/49 47/52/47
f 43/50/43 48/53/48 49/54/49
f 48/53/48 45/50/45 49/54/49
f 48/53/48 41/49/41 45/50/45
f 46/51/46 50/55/50 44/51/44
f 46/51/46 44/51/44 47/52/47
f 46/51/46 51/52/51 45/50/45
f 46/51/46 52/56/52 50/55/50
f 46/51/46 47/52/47 51/52/51
f 51/52/51 47/52/47 49/54/49
f 51/52/51 49/54/49 45/50/45
f 44/51/44 50/55/50 53/56/53
f 54/57/54 36/58/36 19/59/19
f 54/57/54 55/60/55 36/58/36
f 54/57/54 19/59/19 17/58/17
f 54/57/54 56/61/56 55/60/55
f 54/57/54 17/58/17 57/60/57
f 54/57/54 57/60/57 56/61/56
f 36/58/36 55/60/55 58/62/58
f 36/58/36 58/62/58 31/63/31
f 17/58/17 59/62/59 57/60/57
f 17/58/17 8/63/8 59/62/59
f 56/61/56 60/64/60 55/60/55
f 56/61/56 57/60/57 60/64/60
f 58/62/58 61/65/61 31/63/31
f 58/62/58 55/60/55 62/66/62
f 58/62/58 62/66/62 61/65/61
f 55/60/55 60/64/60 62/66/62
f 8/63/8 63/65/63 59/62/59
f 8/63/8 21/67/21 63/65/63
f 57/60/57 64/66/64 60/64/60
f 57/60/57 59/62/59 64/66/64
f 59/62/59 63/65/63 64/66/64
f 31/63/31 61/65/61 32/67/32
f 62/66/62 60/64/60 65/68/65
f 62/66/62 52/69/52 61/65/61
f 62/66/62 65/68/65 52/69/52
f 60/64/60 64/66/64 65/68/65
f 63/65/63 53/69/53 64/66/64
f 64/66/64 53/69/53 65/68/65
f 52/69/52 65/68/65 50/70/50
f 50/70/50 65/68/65 53/69/53
f 66/71/66 10/72/10 23/73/23
f 66/71/66 3/74/3 10/72/10
f 66/71/66 23/73/23 14/72/14
f 66/71/66 14/72/14 3/74/3
f 23/73/23 67/71/67 28/72/28
f 23/73/23 29/72/29 67/71/67
f 28/72/28 67/71/67 34/74/34
f 34/74/34 67/71/67 29/72/29
f 68/75/68 69/76/69 70/77/70
f 68/75/68 71/78/71 69/76/69
f 68/75/68 70/77/70 72/79/72
f 68/75/68 72/79/72 71/78/71
f 69/76/69 71/78/71 73/80/73
f 69/76/69 73/80/73 74/81/74
f 70/77/70 75/82/75 72/79/72
f 70/77/70 76/83/76 75/82/75
f 71/78/71 74/81/77 73/80/73
f 72/79/72 75/82/75 76/83/78
f 77/75/79 78/77/80 79/76/81
f 77/75/79 80/79/82 78/77/80
f 77/75/79 79/76/81 81/78/83
f 77/75/79 81/78/83 80/79/82
f 78/77/80 80/79/82 82/82/84
f 78/77/80 82/82/84 83/83/85
f 79/76/81 84/80/86 81/78/83
f 79/76/81 85/81/87 84/80/86
f 80/79/82 83/83/88 82/82/84
f 81/78/83 84/80/86 85/81/89
f 86/84/90 76/85/76 70/86/70
f 86/84/90 70/86/70 69/87/69
f 86/84/90 69/87/69 74/88/74
f 86/89/91 74/90/77 71/91/71
f 86/89/91 71/91/71 72/92/72
f 86/89/91 72/92/72 76/93/78
f 87/84/92 78/86/80 83/85/85
f 87/84/92 79/87/81 78/86/80
f 87/84/92 85/88/87 79/87/81
f 87/89/93 81/91/83 85/90/89
f 87/89/93 80/92/82 81/91/83
f 87/89/93 83/93/88 80/92/82
vt 0.0234621 0.842242
vt 0.524863 0.97991
vt 0.995008 0.866976
vt 0.360577 0.751094
vt 0.00107737 0.986123
vt 0.359493 0.750808
o merged_1_0_node
g polygon_0
usemtl TEX_ANIM_EYE_mat_id
f 40/94/40 53/95/53 63/96/63
f 63/96/63 21/97/21 40/94/40
f 53/95/53 40/94/40 44/98/44
f 46/98/46 42/94/42 52/95/52
f 61/96/61 52/95/52 42/94/42
f 42/94/42 32/99/32 61/96/61
