mtllib Lucario_Mega.mtl
v 0 0.04462221 -0.222781
vt 0 0.480341
vn 0 -0.9996096 -0.02793849
v 0.0773451 0.0860102 -0.0949754
vt 0.155792 0.697001
vn 0.0345181 -0.9985439 -0.041458
v -0.0773448 0.0860102 -0.0949754
vt -0.155792 0.697001
vn -0.0345177 -0.9985439 -0.0414582
v 0.08660911 0.0570313 -0.173462
vt 0.186539 0.54524
vn 0.4071062 -0.8838584 -0.2303451
v -0.08660871 0.0570313 -0.173462
vt -0.186539 0.54524
vn -0.4071058 -0.8838586 -0.2303449
v 0.08629641 0.0989281 -0.137494
vn 0.509706 0.582883 -0.632809
v -0.0862961 0.0989281 -0.137494
vn -0.5097049 0.5828829 -0.6328099
v 0 0.101127 -0.16347
vt 0 0.697001
vn 0 0.7482241 -0.6634461
v 0.135044 0.0954598 -0.0618223
vt 0.263289 0.697001
vn 0.8803318 -0.14893 -0.4503729
v -0.135043 0.0954597 -0.0618224
vt -0.263289 0.697001
vn -0.8803315 -0.1489319 -0.4503728
v 0.133472 0.258672 0.0955853
vt 0.618776 0.51879
vn -0.09338489 0.5357999 0.8391649
v 0.229375 0.220803 0.136424
vt 0.453059 0.377283
vn 0.8275641 0.21905 0.5168701
v 0.152256 0.258672 0.0681386
vt 0.64963 0.369496
vn 0.7813507 0.4966778 -0.3778918
v 0.153204 0.178422 0.12594
vt 0.453059 0.573137
vn 0.0247085 -0.3292851 0.9439072
v 0.111685 0.29601 0.0110739
vt 0.809509 0.369496
vn 0.9572699 0.214018 -0.194501
v 0.0770325 0.14604 0.115456
vt 0.453059 0.73302
vn 0.191884 0.05295569 0.9799879
v 0.0641161 0.29601 0.0659674
vt 0.759884 0.630494
vn 0.1792059 0.1848149 0.9662964
v 0.187946 0.178422 0.068212
vt 0.618776 0.253169
vn 0.8420709 -0.459382 -0.282639
vt 0.453059 0.198822
v 0.146516 0.14604 0
vt 0.751471 0.134329
vn 0.9781618 -0.07515589 -0.193781
v 0.0815759 0.266541 -0.0762894
vt 0.95325 0.369496
vn 0.5422717 0.003327798 -0.8401966
vt 0.453059 0.0389386
v 0.0770325 0.147907 -0.0990073
vt 0.95325 0.0931217
vn 0.3965529 0.3612239 -0.8439568
v -0.133472 0.258672 0.0955853
vn 0.0933848 0.5358 0.8391649
v -0.152256 0.258672 0.0681386
vn -0.7813504 0.4966772 -0.3778932
v -0.229375 0.220803 0.136424
vn -0.8275643 0.2190491 0.5168702
v -0.111685 0.29601 0.0110739
vn -0.9572699 0.214018 -0.194501
v -0.153204 0.178422 0.12594
vn -0.0247086 -0.3292851 0.9439072
v -0.064116 0.29601 0.0659674
vn -0.179205 0.184814 0.9662967
v -0.0770323 0.14604 0.115456
vn -0.191746 0.05291161 0.9800172
v -0.187946 0.178422 0.068212
vn -0.84207 -0.459383 -0.28264
v -0.146516 0.14604 0
vn -0.9781615 -0.07515756 -0.1937819
v -0.0815759 0.266541 -0.0762894
vn -0.5354829 0.006128719 -0.8445238
v -0.0770323 0.147907 -0.0990074
vn -0.3910241 0.3591061 -0.8474331
v -0.109948 0.323927 -0.0589542
vt 0.209716 0.895975
vn -0.678819 0.689257 -0.253238
vt 0.171446 0.978934
vt 0.308718 0.978934
v -0.0866298 0.32602 -0.118207
vt 0.1448 0.895975
vn -0.365978 0.8299189 -0.4210639
v -0.133266 0.331833 0.000298878
vt 0.299378 0.895975
vn -0.8758988 0.4646889 0.129867
v 0 0.334832 0.000564283
vt 0.209716 0.735759
vn 0 0.9974543 0.07130893
v -0.0904717 0.340688 0.00035605
vt 0.299378 0.821182
vn -0.04417182 0.9984644 -0.03343131
v 0 0.297435 -0.114935
vt 0.0468148 0.978934
vn 0 -0.7250852 -0.6886592
vt 0.438519 0.978934
v -0.0666366 0.321657 0.0997214
vt 0.450881 0.895975
vn -0.379182 0.116011 0.918021
v -0.0511559 0.328559 0.0579703
vt 0.438519 0.821182
vn 0.2297761 0.9341854 0.2729481
vt 0.384042 0.802995
v 0.0904717 0.340688 0.00035605
vn 0.04417182 0.9984644 -0.03343121
v 0.109948 0.323927 -0.0589542
vn 0.678819 0.689257 -0.253238
v 0.0866298 0.32602 -0.118207
vn 0.3659781 0.8299192 -0.4210631
v 0 0.33602 -0.158207
vt 0.0175453 0.895975
vn 0 0.9467189 -0.322061
vt 0.0981542 0.735759
v 0 0.29601 0.0659674
vt 0.513881 0.895975
vn 0 0.405053 0.9142932
vt 0.513881 0.802995
v 0.0511559 0.328559 0.0579703
vn -0.2297768 0.9341853 0.2729478
v 0.133266 0.331833 0.000298878
vn 0.8758988 0.4646889 0.129867
v 0.0666366 0.321657 0.0997214
vn 0.3791811 0.116011 0.9180213
v -0.138306 0.07905791 0
vt -0.375462 0.279024
vn -0.8888882 -0.4399871 0.127628
v -0.0784892 7.450581E-09 0
vt -0.211098 0.0861712
vn -0.111799 -0.9937131 -0.005929571
v -0.0773448 0.07905791 0.114962
vt -0.211098 0.279024
vn -0.3076788 -0.6169167 0.7243946
vt -0.211098 0.442421
vt -0.333605 0.364924
vt -0.397748 0.442421
v 0 0.0552158 0
vt 0 0.220864
vn 0 -0.9992049 -0.0398691
vt 0.211098 0.279024
v 0.0773451 0.07905791 0.114962
vn 0.30791 -0.61737 0.72391
vt 0.211098 0.442421
v 0.138306 0.07905791 0
vt 0.375462 0.279024
vn 0.8888879 -0.4399879 0.127628
v 0.0784892 7.450581E-09 0
vt 0.211098 0.0861712
vn 0.111798 -0.9937133 -0.005929541
vt 0.333605 0.364924
vt 0.397748 0.442421
v -0.157324 0.355974 -0.189226
vt 0.940263 0.886431
vn 0.3554098 -0.2394578 0.9035175
v -0.124869 0.370258 -0.262329
vt 0.931532 0.886431
vn 0.9112723 -0.07975122 -0.4040081
v -0.107913 0.511506 -0.200591
vt 0.940263 0.810673
vn 0.3771159 0.8809947 0.2857129
v -0.183997 0.194423 -0.315231
vt 0.931532 0.983482
vn 0.829662 -0.320817 -0.456878
v -0.227093 0.389731 -0.2136
vt 0.948463 0.886431
vn -0.8086203 0.3558911 0.4684812
v -0.21738 0.17973 -0.240039
vt 0.940263 0.975334
vn 0.280669 -0.520241 0.8065819
v -0.289143 0.214452 -0.26511
vt 0.948463 0.983482
vn -0.9220817 0.02827679 0.3859609
v -0.194638 0.404015 -0.286703
vn -0.3049728 0.5342067 -0.7884255
v -0.250794 0.164874 -0.304225
vt 0.940263 0.985465
vn -0.3210381 -0.8924533 -0.3169571
v -0.25576 0.229145 -0.340302
vn -0.3848699 0.236007 -0.8922869
v 0.157324 0.355974 -0.189226
vn -0.3554089 -0.2394579 0.9035178
v 0.107913 0.511506 -0.200591
vn -0.3771159 0.8809947 0.2857129
v 0.124869 0.370258 -0.262329
vn -0.9112723 -0.07975122 -0.4040081
v 0.227093 0.389731 -0.2136
vn 0.8086203 0.3558911 0.4684812
v 0.183997 0.194423 -0.315231
vn -0.8296624 -0.3208171 -0.4568772
v 0.289143 0.214452 -0.26511
vn 0.9220812 0.0282768 0.3859621
v 0.21738 0.17973 -0.240039
vn -0.2806692 -0.5202414 0.8065816
v 0.194638 0.404015 -0.286703
vn 0.3049719 0.5342069 -0.7884258
v 0.250794 0.164874 -0.304225
vn 0.3210381 -0.8924533 -0.3169571
v 0.25576 0.229145 -0.340302
vn 0.3848699 0.236007 -0.8922869
vt 0.249143 0.715489
vt 0.244846 0.71568
vt 0.244846 0.709614
vt 0.249143 0.709804
vt 0.250996 0.712647
vt 0.251192 0.715877
vt 0.249271 0.717846
vt 0.246303 0.717941
vt 0.243698 0.712647
vt 0.251192 0.709417
vt 0.249271 0.707448
vt 0.246303 0.707352
v 0 0.382653 -0.290956
vt 0.959062 0.845778
vn 0.9872259 0.06789389 0.144137
v -0.0521438 0.419911 -0.34419
vt 0.953051 0.845778
vn 0.109467 0.6608172 -0.7425212
v -0.0379128 0.521506 -0.220591
vt 0.959062 0.810673
vn 0.116019 0.8646592 0.4887781
v -0.0587097 0.356947 -0.374134
vt 0.953051 0.86422
vn 0.0562648 0.11354 -0.991939
v -0.0639347 0.362355 -0.241644
vt 0.964704 0.845778
vn -0.07703289 -0.227357 0.9707599
v -0.00615433 0.319688 -0.3209
vt 0.959062 0.86422
vn 0.8922911 -0.436092 -0.116792
v -0.11649 0.399613 -0.294878
vn -0.929733 0.357826 0.0869325
v -0.0693982 0.289976 -0.344848
vt 0.959062 0.876023
vn -0.108306 -0.8615388 -0.4960048
v -0.0705006 0.299391 -0.271587
vt 0.964704 0.86422
vn -0.121856 -0.7336249 0.6685399
v -0.123056 0.336649 -0.324822
vn -0.9635914 -0.1880821 -0.1900441
vn -0.9872259 0.06789389 0.144137
v 0.0379128 0.521506 -0.220591
vn -0.11602 0.8646591 0.4887781
v 0.0521438 0.419911 -0.34419
vn -0.109467 0.6608172 -0.7425212
v 0.0639347 0.362355 -0.241644
vn 0.07703279 -0.227357 0.9707599
v 0.0587097 0.356947 -0.374134
vn -0.0562649 0.11354 -0.991939
v 0.00615433 0.319688 -0.3209
vn -0.8922911 -0.436092 -0.116792
v 0.11649 0.399613 -0.294878
vn 0.929733 0.357826 0.0869325
v 0.0705006 0.299391 -0.271587
vn 0.121856 -0.7336249 0.6685399
v 0.0693982 0.289976 -0.344848
vn 0.108306 -0.8615388 -0.4960048
v 0.123056 0.336649 -0.324822
vn 0.9635914 -0.1880821 -0.1900441
v 0.243772 0.231295 0.0871127
vt 0.949417 0.670298
vn 0.696189 0.08383 -0.712947
v 0.141969 0.213164 0.0653002
vn 0.21448 -0.0297574 -0.976275
v 0.178955 0.236396 0.106732
vn -0.009568969 0.9596229 -0.281127
v 0.18738 0.192746 0.106463
vn 0.349719 -0.7754709 -0.5256819
v 0.213865 0.218937 0.12762
vn 0.789452 0.0830126 0.6081731
v 0.176386 0.223985 0.0409547
vn 0.6648287 0.1681579 -0.7278227
v 0.0981752 0.206014 0.0550004
vn -0.160445 -0.07117631 -0.9844751
v 0.125714 0.230777 0.0856579
vn -0.0014806 0.988403 -0.151846
v 0.134844 0.18727 0.08530231
vn 0.369207 -0.8556971 -0.362586
v 0.162461 0.211787 0.111968
vn 0.9673297 0.137129 0.2132339
v -0.243772 0.231295 0.0871127
vn -0.696189 0.0838299 -0.712947
v -0.178955 0.236396 0.106732
vn 0.009568959 0.9596229 -0.281127
v -0.141969 0.213164 0.0653002
vn -0.21448 -0.0297575 -0.976275
v -0.213865 0.218937 0.12762
vn -0.789452 0.08301271 0.6081731
v -0.18738 0.192746 0.106463
vn -0.349719 -0.7754709 -0.5256819
v -0.176386 0.223985 0.0409547
vn -0.6648281 0.168158 -0.7278231
v -0.125714 0.230777 0.0856579
v -0.0981752 0.206014 0.0550004
vn 0.160445 -0.07117651 -0.9844751
v -0.162461 0.211787 0.111968
vn -0.9673297 0.137129 0.2132339
v -0.134844 0.18727 0.08530231
vn -0.369207 -0.8556971 -0.362586
v 0 0.257549 0.146905
vn 0 0.3233651 0.9462743
v 0.0404309 0.234678 0.0709969
vn 0.890739 0.145553 0.430579
v 0 0.27339 0.0593331
vn 0 0.9840301 0.178002
v 0 0.198966 0.0826607
vn 0 -0.7389148 0.6737988
v -0.0404309 0.234678 0.0709969
vn -0.890739 0.145553 0.430579
v 0.0784892 0.01754751 0.0446049
vn 0 -0.6898261 0.7239751
v 0.0784892 0.06714131 0.029454
vn 0 0.2921701 0.9563664
v 0.0708276 0.04790011 0.0159812
vn -0.9805272 -0.07722961 0.18056
v 0.0861508 0.04790011 0.0159812
vn 0.9805273 -0.07722943 0.1805601
v 0.0784892 0.02865891 0.00250835
vn 0 -0.9668859 -0.255209
v 0.0784892 0.003547517 0.0366049
vn 0 -0.340198 0.9403539
v 0.0784892 0.04269631 0.0154854
vn 0 0.4747849 0.8801019
v 0.0708276 0.02345511 0.00201262
vn -0.9808523 -0.05078831 0.1880141
v 0.0861508 0.02345511 0.00201262
vn 0.9808524 -0.05078782 0.1880141
v 0.0784892 0.004213907 -0.00146021
vn 0 -0.9998468 -0.0175037
v -0.0784892 0.01754751 0.0446049
v -0.0708276 0.04790011 0.0159812
v -0.0784892 0.06714131 0.029454
v -0.0784892 0.02865891 0.00250835
v -0.0861508 0.04790011 0.0159812
v -0.0784892 0.003547517 0.0366049
v -0.0708276 0.02345511 0.00201262
v -0.0784892 0.04269631 0.0154854
v -0.0784892 0.004213907 -0.00146021
v -0.0861508 0.02345511 0.00201262
vt 0.232606 0.727482
vt 0.229526 0.727482
vt 0.224763 0.707269
vt 0.240449 0.707269
vt 0.235686 0.727482
vt 0.545174 0.909244
vt 0.76608 0.774551
vt 0.76608 0.967404
o merged_0_0_node
g polygon_0
usemtl body01_mat_id
f 1/1/1 2/2/2 3/3/3
f 1/1/1 4/4/4 2/2/2
f 1/1/1 3/3/3 5/5/5
f 1/1/1 6/2/6 4/4/4
f 1/1/1 5/5/5 7/3/7
f 1/1/1 8/6/8 6/2/6
f 1/1/1 7/3/7 8/6/8
f 2/2/2 4/4/4 9/7/9
f 9/7/9 4/4/4 6/2/6
f 3/3/3 10/8/10 5/5/5
f 5/5/5 10/8/10 7/3/7
f 11/9/11 12/10/12 13/11/13
f 11/9/11 14/12/14 12/10/12
f 11/9/11 13/11/13 15/13/15
f 11/9/11 16/14/16 14/12/14
f 11/9/11 15/13/15 17/15/17
f 11/9/11 17/15/17 16/14/16
f 12/10/12 18/16/18 13/11/13
f 12/10/12 14/17/14 18/16/18
f 15/13/15 13/11/13 19/18/19
f 15/13/15 19/18/19 20/19/20
f 13/11/13 18/16/18 19/18/19
f 14/17/14 16/20/16 18/16/18
f 18/16/18 16/20/16 19/18/19
f 20/19/20 19/18/19 21/21/21
f 22/9/22 23/11/23 24/10/24
f 22/9/22 25/13/25 23/11/23
f 22/9/22 24/10/24 26/12/26
f 22/9/22 27/15/27 25/13/25
f 22/9/22 26/12/26 28/14/28
f 22/9/22 28/14/28 27/15/27
f 23/11/23 29/16/29 24/10/24
f 23/11/23 25/13/25 30/18/30
f 23/11/23 30/18/30 29/16/29
f 24/10/24 29/16/29 26/17/26
f 25/13/25 31/19/31 30/18/30
f 29/16/29 28/20/28 26/17/26
f 29/16/29 30/18/30 28/20/28
f 31/19/31 32/21/32 30/18/30
f 33/22/33 31/23/31 25/24/25
f 33/22/33 34/25/34 31/23/31
f 33/22/33 25/24/25 35/26/35
f 33/22/33 36/27/36 34/25/34
f 33/22/33 35/26/35 37/28/37
f 33/22/33 37/28/37 36/27/36
f 31/23/31 34/25/34 38/29/38
f 25/24/25 27/30/27 35/26/35
f 37/28/37 35/26/35 39/31/39
f 37/28/37 39/31/39 40/32/40
f 37/28/37 40/32/40 36/33/36
f 35/26/35 27/30/27 39/31/39
f 36/27/36 41/28/41 42/22/42
f 36/27/36 42/22/42 43/25/43
f 34/25/34 44/34/44 38/29/38
f 34/25/34 36/35/36 44/34/44
f 44/34/44 36/35/36 43/25/43
f 44/34/44 43/25/43 38/29/38
f 40/32/40 39/31/39 45/36/45
f 40/32/40 45/36/45 36/37/36
f 39/31/39 27/30/27 45/36/45
f 36/33/36 46/32/46 41/28/41
f 36/37/36 45/36/45 46/32/46
f 42/22/42 20/23/20 43/25/43
f 42/22/42 41/28/41 47/26/47
f 42/22/42 15/24/15 20/23/20
f 42/22/42 47/26/47 15/24/15
f 20/23/20 38/29/38 43/25/43
f 45/36/45 48/31/48 46/32/46
f 45/36/45 17/30/17 48/31/48
f 48/31/48 41/28/41 46/32/46
f 48/31/48 17/30/17 47/26/47
f 48/31/48 47/26/47 41/28/41
f 47/26/47 17/30/17 15/24/15
f 49/38/49 50/39/50 51/40/51
f 49/38/49 3/40/3 50/39/50
f 49/38/49 51/40/51 28/41/28
f 49/38/49 10/42/10 3/40/3
f 49/38/49 28/41/28 30/43/30
f 49/38/49 30/43/30 10/42/10
f 50/39/50 52/44/52 51/40/51
f 3/40/3 2/45/2 52/44/52
f 28/41/28 51/40/51 53/45/53
f 28/41/28 53/45/53 16/46/16
f 51/40/51 52/44/52 53/45/53
f 2/45/2 54/47/54 55/48/55
f 2/45/2 9/49/9 54/47/54
f 53/45/53 54/47/54 16/46/16
f 53/45/53 52/44/52 55/48/55
f 53/45/53 55/48/55 54/47/54
f 9/49/9 19/50/19 54/47/54
f 54/47/54 19/50/19 16/46/16
f 56/51/56 57/52/57 58/53/58
f 56/51/56 59/54/59 57/52/57
f 56/51/56 58/53/58 60/55/60
f 56/51/56 61/56/61 59/54/59
f 56/51/56 60/55/60 62/57/62
f 56/51/56 62/57/62 61/56/61
f 58/53/58 63/51/63 60/52/60
f 58/53/58 57/55/57 63/51/63
f 59/54/59 61/56/61 64/58/64
f 61/56/61 62/57/62 64/58/64
f 60/52/60 63/51/63 65/56/65
f 60/52/60 65/56/65 62/54/62
f 62/54/62 65/56/65 64/58/64
f 63/51/63 57/55/57 65/56/65
f 64/58/64 65/56/65 59/57/59
f 59/57/59 65/56/65 57/55/57
f 66/51/66 67/53/67 68/52/68
f 66/51/66 69/55/69 67/53/67
f 66/51/66 68/52/68 70/54/70
f 66/51/66 71/57/71 69/55/69
f 66/51/66 70/54/70 72/56/72
f 66/51/66 72/56/72 71/57/71
f 67/53/67 69/52/69 73/51/73
f 67/53/67 73/51/73 68/55/68
f 70/54/70 74/58/74 72/56/72
f 72/56/72 74/58/74 71/57/71
f 69/52/69 75/56/75 73/51/73
f 69/52/69 71/54/71 75/56/75
f 71/54/71 74/58/74 75/56/75
f 73/51/73 75/56/75 68/55/68
f 74/58/74 70/57/70 75/56/75
f 75/56/75 70/57/70 68/55/68
f 32/59/32 31/60/31 20/61/20
f 32/59/32 20/61/20 21/62/21
f 32/59/32 21/62/21 8/63/8
f 32/59/32 8/63/8 7/64/7
f 32/59/32 7/64/7 10/65/10
f 32/59/32 10/65/10 30/66/30
f 31/60/31 38/67/38 20/61/20
f 21/62/21 6/68/6 8/63/8
f 21/62/21 9/69/9 6/68/6
f 21/62/21 19/70/19 9/69/9
f 76/71/76 77/72/77 78/73/78
f 76/71/76 79/74/79 77/72/77
f 76/71/76 78/73/78 80/75/80
f 76/71/76 81/76/81 79/74/79
f 76/71/76 80/75/80 81/76/81
f 78/73/78 82/71/82 80/72/80
f 78/73/78 77/75/77 82/71/82
f 79/74/79 81/76/81 83/77/83
f 80/75/80 84/78/84 81/76/81
f 81/76/81 84/78/84 83/77/83
f 80/72/80 82/71/82 85/76/85
f 80/72/80 85/76/85 84/74/84
f 84/74/84 85/76/85 83/77/83
f 77/75/77 79/78/79 82/71/82
f 79/78/79 83/77/83 85/76/85
f 79/78/79 85/76/85 82/71/82
f 76/71/86 86/73/87 87/72/88
f 76/71/86 88/75/89 86/73/87
f 76/71/86 87/72/88 89/74/90
f 76/71/86 90/76/91 88/75/89
f 76/71/86 89/74/90 90/76/91
f 86/73/87 88/72/89 91/71/92
f 86/73/87 91/71/92 87/75/88
f 88/75/89 90/76/91 92/78/93
f 89/74/90 93/77/94 90/76/91
f 90/76/91 93/77/94 92/78/93
f 88/72/89 94/76/95 91/71/92
f 88/72/89 92/74/93 94/76/95
f 92/74/93 93/77/94 94/76/95
f 87/75/88 91/71/92 89/78/90
f 89/78/90 94/76/95 93/77/94
f 89/78/90 91/71/92 94/76/95
f 95/79/96 96/79/97 97/79/98
f 95/79/96 98/79/99 96/79/97
f 95/79/96 97/79/98 99/79/100
f 95/79/96 99/79/100 98/79/99
f 100/79/101 101/79/102 102/79/103
f 100/79/101 103/79/104 101/79/102
f 100/79/101 102/79/103 104/79/105
f 100/79/101 104/79/105 103/79/104
f 105/79/106 106/79/107 107/79/108
f 105/79/106 108/79/109 106/79/107
f 105/79/106 107/79/108 109/79/110
f 105/79/106 109/79/110 108/79/109
f 110/79/111 111/79/103 112/79/112
f 110/79/111 113/79/113 111/79/103
f 110/79/111 112/79/112 114/79/114
f 110/79/111 114/79/114 113/79/113
f 115/79/115 116/79/116 117/79/117
f 115/79/115 118/79/118 116/79/116
f 115/79/115 117/79/117 119/79/119
f 115/79/115 119/79/119 118/79/118
f 120/79/120 121/79/121 122/79/122
f 120/79/120 123/79/123 121/79/121
f 120/79/120 122/79/122 124/79/124
f 120/79/120 124/79/124 123/79/123
f 125/79/125 126/79/126 127/79/127
f 125/79/125 128/79/128 126/79/126
f 125/79/125 127/79/127 129/79/129
f 125/79/125 129/79/129 128/79/128
f 130/79/120 131/79/123 132/79/121
f 130/79/120 133/79/124 131/79/123
f 130/79/120 132/79/121 134/79/122
f 130/79/120 134/79/122 133/79/124
f 135/79/125 136/79/128 137/79/126
f 135/79/125 138/79/129 136/79/128
f 135/79/125 137/79/126 139/79/127
f 135/79/125 139/79/127 138/79/129
f 45/80/45 27/81/27 28/82/28
f 45/80/45 28/82/28 16/83/16
f 45/80/45 16/83/16 17/84/17
f 52/85/52 50/86/50 3/87/3
f 52/85/52 2/87/2 55/86/55
v 0.0347398 0.381586 0.227024
vt 0.924792 0.664527
vn 0.577516 -0.4499809 0.6811699
v 0 0.381586 0.227024
vt 1.00246 0.664527
vn 0 -0.8506115 0.5257947
v 0 0.338489 0.136881
vt 1.0024 0.464919
vn 0 -0.9206407 0.3904109
v 0 0.431922 0.259476
vt 0.941622 0.900494
vn 0 0.3672351 0.9301282
v 0.0485808 0.338489 0.136881
vt 0.884111 0.475558
vn 0.3809819 -0.8497697 0.3643409
v 0.0310081 0.495476 0.186929
vt 0.740199 0.900916
vn 0.4844382 0.3177861 0.8150654
v 0.077134 0.392896 0.165793
vt 0.77563 0.646477
vn 0.7066482 -0.137203 0.6941352
v -0.0347398 0.381586 0.227024
vn -0.5775156 -0.4499806 0.6811705
v -0.0310081 0.495476 0.186929
vn -0.4839532 0.3179841 0.8152763
v -0.0485808 0.338489 0.136881
vn -0.3809819 -0.8497697 0.3643409
v -0.077134 0.392896 0.165793
vn -0.7066482 -0.137203 0.6941352
v 0 0.31957 -0.0997375
vt 0.936088 0.18038
vn 0 -0.9403622 -0.3401751
v -0.0933171 0.324823 0.0005643
vt 0.943422 0.188262
vn -0.4244652 -0.9052604 0.01824431
v -0.127305 0.370035 -0.125644
vt 0.946093 0.178344
vn -0.510648 -0.670754 -0.5378919
v 0 0.309478 0.04877
vt 0.936088 0.192051
vn 0 -0.9969077 0.07858207
v 0 0.379807 -0.182936
vt 0.936088 0.173842
vn 0 -0.5731691 -0.8194371
v 0.0933171 0.324823 0.0005643
vn 0.4244652 -0.9052604 0.01824431
v 0.127305 0.370035 -0.125644
vn 0.510648 -0.670754 -0.5378919
vt 0.939906 0.198975
v -0.172507 0.404309 0.0697749
vt 0.949645 0.193701
vn -0.7953172 -0.4435581 0.4131911
v 0.172507 0.404309 0.0697749
vn 0.7953175 -0.4435577 0.4131908
vt 0.94215 0.201247
vt 0.936088 0.198975
v -0.0786789 0.487674 -0.214196
vt 0.576077 0.274062
vn -0.36117 0.0456296 -0.931383
v -0.184551 0.488626 -0.130239
vt 0.363716 0.321963
vn -0.8504416 0.09516756 -0.5173898
v -0.127305 0.635013 -0.097879
vt 0.428033 0.521657
vn -0.4508871 0.6063702 -0.6549932
vt 0.377041 0.000403225
v 0 0.585924 -0.185361
vt 0.764442 0.452409
vn 0.008997071 0.5545061 -0.8321311
vt 0.654135 0.060484
v 0.0786789 0.487674 -0.214196
vt 0.853306 0.23639
vn 0.3615091 0.04662241 -0.9312022
v -0.173379 0.604588 -0.00763168
vt 0.195488 0.526914
vn -0.9650078 0.2613509 -0.02134749
v -0.199593 0.406637 -0.0418758
vt 0.199115 0.176969
vn -0.9326833 -0.3527521 -0.07528463
v 0 0.656607 -0.105564
vt 0.703271 0.538491
vn 0.03310482 0.9192806 -0.3922083
v 0.127305 0.625013 -0.097879
vn 0.4522449 0.6037999 -0.6564299
vt 0.113517 -0.0948832
v -0.181365 0.510811 0.0716337
vt 0.0442363 0.317758
vn -0.8702912 0.136289 0.4733061
v -0.132789 0.589697 0.0826881
vt 0.0859383 0.580179
vn -0.5519067 0.4997417 0.6675757
v -0.113575 0.650062 0.0405483
vt 0.134081 0.667947
vn -0.3246642 0.2706451 0.9062805
v -0.133272 0.817494 0.0120766
vt 0.465643 0.945407
vn 0.164948 0.856638 -0.488839
v -0.0337712 0.665537 0.0221971
vt 0.573836 0.733977
vn 0.3096969 0.9446907 0.107923
v 0.184551 0.488626 -0.130239
vn 0.8516787 0.09682086 -0.5150428
v 0.0337712 0.665537 0.0221971
vn -0.3087511 0.9486914 0.06824572
v 0.173379 0.604588 -0.00763168
vn 0.9643719 0.262505 -0.0328319
vt 0.0301304 0.131686
vt 0.00338223 0.763963
v -0.0316509 0.586805 0.141041
vt -0.0364137 0.613813
vn -0.240122 0.6475919 0.723164
v 0.199593 0.406637 -0.0418758
vn 0.9326833 -0.3527521 -0.07528453
v 0.181365 0.510811 0.0716337
vn 0.8702912 0.136289 0.4733061
v 0.132789 0.589697 0.0826881
vn 0.5519067 0.4997417 0.6675757
v 0.113575 0.650062 0.0405483
vn 0.3246639 0.2706449 0.9062807
v 0.133272 0.817494 0.0120766
vn -0.185651 0.8329628 -0.5212549
v 0.0316509 0.586805 0.141041
vn 0.2414261 0.6467522 0.7234812
vt 0.894626 0.127528
vt 0.903629 -0.0012359
vt 0.903629 0.127528
vt 0.894626 -0.0012359
vt 0.887631 0.127528
vt 0.887631 -0.0012359
vt 0.710108 0.986051
vt 0.391643 0.985175
vt 0.511627 0.732797
vt 0.949886 0.189787
vt 0.958527 0.175447
vt 0.951435 0.173842
vt 0.966577 0.173842
vt 0.958757 0.184998
vt 0.966108 0.188182
vt 0.944655 0.065941
vt 0.927258 0.0656645
vt 0.909861 0.065941
o merged_1_0_node
g polygon_0
usemtl head01_mat_id
f 140/88/130 141/89/131 142/90/132
f 140/88/130 143/91/133 141/89/131
f 140/88/130 142/90/132 144/92/134
f 140/88/130 145/93/135 143/91/133
f 140/88/130 144/92/134 146/94/136
f 140/88/130 146/94/136 145/93/135
f 141/89/131 147/88/137 142/90/132
f 141/89/131 143/91/133 147/88/137
f 145/93/135 148/93/138 143/91/133
f 143/91/133 148/93/138 147/88/137
f 142/90/132 147/88/137 149/92/139
f 148/93/138 150/94/140 147/88/137
f 147/88/137 150/94/140 149/92/139
f 151/95/141 152/96/142 153/97/143
f 151/95/141 154/98/144 152/96/142
f 151/95/141 153/97/143 155/99/145
f 151/95/141 156/96/146 154/98/144
f 151/95/141 155/99/145 157/97/147
f 151/95/141 157/97/147 156/96/146
f 152/96/142 154/98/144 149/100/139
f 152/96/142 149/100/139 158/101/148
f 156/96/146 144/100/134 154/98/144
f 156/96/146 159/101/149 144/100/134
f 149/100/139 150/102/140 158/101/148
f 149/100/139 154/98/144 142/103/132
f 142/103/132 154/98/144 144/100/134
f 159/101/149 146/102/136 144/100/134
f 160/104/150 161/105/151 162/106/152
f 160/104/150 153/107/143 161/105/151
f 160/104/150 162/106/152 163/108/153
f 160/104/150 155/109/145 153/107/143
f 160/104/150 163/108/153 164/110/154
f 160/104/150 164/110/154 155/109/145
f 161/105/151 165/111/155 162/106/152
f 161/105/151 153/107/143 166/112/156
f 161/105/151 166/112/156 165/111/155
f 163/108/153 162/106/152 167/113/157
f 163/108/153 167/113/157 168/106/158
f 163/108/153 168/106/158 164/104/154
f 155/109/145 164/104/154 157/107/147
f 153/107/143 152/114/142 166/112/156
f 165/111/155 166/112/156 169/115/159
f 165/111/155 169/115/159 170/116/160
f 165/111/155 170/116/160 171/117/161
f 165/111/155 171/117/161 172/118/162
f 162/106/152 173/119/163 167/113/157
f 168/106/158 174/105/164 164/104/154
f 168/106/158 167/113/157 175/119/165
f 168/106/158 176/111/166 174/105/164
f 164/104/154 174/105/164 157/107/147
f 152/114/142 158/120/148 166/112/156
f 166/112/156 158/120/148 169/115/159
f 170/116/160 173/121/163 171/117/161
f 170/116/160 177/122/167 173/121/163
f 173/121/163 172/118/162 171/117/161
f 176/111/166 178/112/168 174/105/164
f 176/111/166 179/115/169 178/112/168
f 176/111/166 180/116/170 179/115/169
f 176/111/166 181/117/171 180/116/170
f 176/111/166 182/118/172 181/117/171
f 174/105/164 178/112/168 157/107/147
f 179/115/169 159/120/149 178/112/168
f 180/116/170 181/117/171 175/121/165
f 180/116/170 175/121/165 183/122/173
f 175/121/165 181/117/171 182/118/172
f 157/107/147 178/112/168 156/114/146
f 156/114/146 178/112/168 159/120/149
f 183/123/173 148/124/138 145/125/135
f 183/123/173 177/126/167 148/124/138
f 183/123/173 175/127/165 177/126/167
f 175/127/165 173/128/163 177/126/167
f 170/129/160 148/130/138 177/131/167
f 172/132/162 162/133/152 165/134/155
f 172/135/162 173/136/163 162/137/152
f 180/129/170 183/131/173 145/130/135
f 182/132/172 176/134/166 168/133/158
f 182/135/172 168/137/158 175/136/165
f 175/138/165 167/139/157 173/140/163
vt 0.898607 0.890455
vt 0.846417 0.753654
vt 0.205822 0.771044
vt 0.0302255 0.884893
vt 0.706133 0.986273
o merged_2_0_node
g polygon_0
usemtl TEX_ANIM_EYE_mat_id
f 169/141/159 158/142/148 150/143/140
f 169/141/159 150/143/140 148/144/138
f 169/141/159 148/144/138 170/145/160
f 179/141/169 146/143/136 159/142/149
f 179/141/169 145/144/135 146/143/136
f 179/141/169 180/145/170 145/144/135
