mtllib Cyndaquil.mtl
v -0.0259276 0.194764 -0.0948558
vt 0.885881 0.882047
vn -0.3710089 0.7145199 -0.5931389
v -0.0555275 0.164342 -0.0502639
vt 0.998806 0.882047
vn -0.8403819 0.183859 0.509857
v -0.103398 0.282916 -0.124429
vt 0.94369 0.992149
vn -0.6028188 0.7652828 -0.2257249
v -0.129013 0.196881 -0.16683
vn -0.6339069 0.3323949 -0.6983379
v -0.0185092 0.201755 -0.0324561
vn -0.4226509 0.6299149 0.651593
v -0.0259276 0.142356 -0.119801
vn -0.3710089 0.009789498 -0.9285777
v 0 0.304932 -0.115399
vn 0 0.9182522 -0.3959961
v 0 0.213848 -0.202475
vn 0 0.4297799 -0.9029337
v 0.0259276 0.194764 -0.0948558
vn 0.3710081 0.7145201 -0.5931391
v -0.0555275 0.12693 -0.0680718
vn -0.8403822 -0.5116501 0.178807
v 0.0185092 0.201755 -0.0324561
vn 0.4226509 0.6299149 0.651593
v 0.0259276 0.142356 -0.119801
vn 0.3710089 0.009789447 -0.9285777
v -0.103398 0.109722 -0.206867
vn -0.60282 -0.307382 -0.736291
v -0.0185092 0.0895168 -0.0858796
vn -0.4226512 -0.9029285 -0.07801344
v 0.103398 0.282916 -0.124429
vn 0.602819 0.7652829 -0.225724
v 0.0555275 0.164342 -0.0502639
vn 0.8403826 0.1838589 0.5098558
v 0 0.0888306 -0.21826
vn 0 -0.2716869 -0.9623857
v 0.129013 0.196881 -0.16683
vn 0.6339058 0.3323969 -0.6983378
v 0.0185092 0.0895168 -0.0858796
vn 0.4226508 -0.9029287 -0.07801337
v 0.0555275 0.12693 -0.0680718
vn 0.8403822 -0.5116501 0.178807
v 0.103398 0.109722 -0.206867
vn 0.6028196 -0.3073788 -0.7362926
v 0 0.412519 0.233946
vt 0.196206 0.325548
vn 0 0.429119 0.903248
v -0.111342 0.491952 0.165628
vt 0.493729 0.542983
vn -0.5343592 0.5630302 0.6304422
v -0.0703732 0.358325 0.229351
vt 0.282713 0.154635
vn -0.5416809 0.177264 0.8216808
v 0 0.534392 0.169216
vt 0.373653 0.730927
vn 0 0.7900463 0.6130472
v -0.0344064 0.34178 0.268165
vt 0.0725696 0.114386
vn -0.5313488 0.3218099 0.7836497
v 0.111342 0.491952 0.165628
vn 0.5343592 0.5630302 0.6304422
v 0 0.339277 0.284389
vt -0.00445334 0.0919422
vn 0 0.191442 0.9815039
v 0.0703732 0.358325 0.229351
vn 0.5416809 0.177264 0.8216808
v 0.0344064 0.34178 0.268165
vn 0.5313488 0.3218099 0.7836497
v -0.101555 0.541669 0.0640528
vt 0.696122 0.772048
vn -0.466849 0.884293 0.00882748
v -0.180154 0.452041 0.0640528
vt 0.79522 0.461657
vn -0.9344239 0.354985 0.0289412
v -0.0325775 0.300661 0.263504
vt 0.0575352 -0.0226746
vn -0.3711631 -0.6587071 0.6544791
v -0.0901024 0.295646 0.200099
vt 0.361062 -0.0146861
vn -0.6172048 -0.6032948 0.5050679
v 0.101555 0.541669 0.0640528
vn 0.466849 0.884293 0.00882734
v 0.180154 0.452041 0.0640528
vn 0.934424 0.354985 0.0289411
v 0.0325775 0.300661 0.263504
vn 0.3711631 -0.6587071 0.6544791
v -0.111342 0.491952 -0.0498152
vt 1.09034 0.624325
vn -0.5543512 0.6404852 -0.5314822
v 0 0.557585 0.0253049
vt 0.91023 0.779369
vn 0 0.9819222 -0.189285
v -0.101555 0.233255 0.0640528
vt 0.906788 0.153682
vn -0.5173983 -0.8538916 0.05628704
v 0 0.253534 0.192109
vt 0.580856 0.0983978
vn 0 -0.8977231 0.4405601
v -0.180154 0.322884 0.0640528
vt 0.784065 0.0703329
vn -0.9195929 -0.3861369 0.07243739
v 0.111342 0.491952 -0.0498152
vn 0.5543512 0.6404852 -0.5314822
v 0.164319 0.387462 -0.0398062
vt 1.10349 0.349323
vn 0.854764 -0.0171912 -0.5187321
v 0.180154 0.322884 0.0640528
vn 0.9195929 -0.3861369 0.07243739
v 0.0901024 0.295646 0.200099
vn 0.6172048 -0.6032948 0.5050679
v -0.164319 0.387462 -0.0398062
vn -0.854764 -0.0171912 -0.5187321
v 0 0.227893 0.134427
vt 0.827349 0.300786
vn 0 -0.9713731 0.237559
v 0.101555 0.233255 0.0640528
vn 0.5173979 -0.8538918 0.05628699
v 0.111342 0.282973 -0.0498152
vt 1.10765 0.0694737
vn 0.5547352 -0.5891693 -0.5874933
v -0.111342 0.282973 -0.0498152
vn -0.5547352 -0.5891693 -0.5874933
v 0 0.218394 -0.00632151
vt 0.977053 0.00893523
vn 0 -0.9435984 -0.3310921
v -0.0573374 0.0616042 -0.102194
vt 0.101549 0.568629
vn -0.4116252 -0.1314501 -0.9018235
v 0.0608004 0.147922 -0.0804955
vt 0.359181 0.562615
vn 0.51254 0.365554 -0.776964
v 0.0573374 0.0616042 -0.102194
vn 0.4116261 -0.13145 -0.9018231
v -0.0608004 0.147922 -0.0804955
vn -0.5125393 0.3655542 -0.7769644
v 0 0.016312 -0.00342985
vt 0.0513174 0.879193
vn 0 -0.9641954 -0.2651931
v -0.121601 0.0852071 0.015609
vt 0.258275 0.879193
vn -0.9632344 0.003978111 -0.2686331
v -0.0573382 0 -0.00793761
vt 0.00231695 0.879193
vn -0.138004 -0.9538533 -0.2666811
v -0.114675 0.0330341 0.00119124
vt 0.10155 0.879193
vn -0.9385583 -0.3069131 -0.157837
v 0.121601 0.0852071 0.0156091
vn 0.9632344 0.003977932 -0.2686331
v 0.0469363 0.244551 -0.0202528
vt 0.631169 0.656218
vn 0.5044342 0.6149043 -0.6061673
v 0.0938725 0.224038 0.0539745
vt 0.631169 0.879193
vn 0.803442 0.567996 -0.178498
v -0.0573374 0.00977161 0.0853699
vt 0.10155 1.13206
vn -0.3998169 -0.719196 0.5682459
v 0.0573382 0 -0.00793761
vn 0.138004 -0.9538533 -0.2666811
v 0.0573374 0.0097716 0.0853699
vn 0.3998169 -0.719196 0.5682459
v -0.0469362 0.244551 -0.0202528
vn -0.5044342 0.6149043 -0.6061673
v -0.0938725 0.224038 0.0539745
vn -0.803442 0.567996 -0.178498
v 0.167564 0.12472 0.143366
vt 0.467079 1.20527
vn 0.8324619 -0.06393779 0.5503809
v 0.114675 0.0330341 0.00119124
vn 0.9385583 -0.3069131 -0.157837
v 0.0608004 0.0571566 0.117114
vt 0.258275 1.18411
vn 0.1965669 -0.3656368 0.9097644
v -0.0608004 0.0571566 0.117114
vn -0.196567 -0.3656371 0.9097642
v 0 0.235583 0.0571649
vt 0.665849 0.879193
vn 0 0.9638728 0.2663629
v 0.0469362 0.203526 0.128202
vt 0.631169 1.10217
vn 0.06643678 0.2588699 0.9636247
v -0.167564 0.12472 0.143366
vn -0.8324619 -0.06393779 0.5503809
v -0.0469363 0.203526 0.128202
vn -0.06643698 0.2588699 0.9636247
v 0.0688128 0.411956 -0.122911
vt 0.163105 0.579847
vn 0.342938 0.07671949 -0.9362199
v 0 0.498581 -0.0818561
vn 0 0.718406 -0.695624
v -0.0688128 0.411956 -0.122911
vn -0.342938 0.07671959 -0.9362199
v 0 0.300322 -0.106716
vn 0 -0.5042189 -0.8635759
vt 0.046875 0.953125
vt 0.110883 0.336047
vt -0.147695 0.485986
vt 0.109636 0.485215
o merged_0_0_node
g polygon_0
usemtl lambert3_mat_id
f 1/1/1 2/2/2 3/3/3
f 1/1/1 4/3/4 2/2/2
f 1/1/1 3/3/3 5/2/5
f 1/1/1 6/2/6 4/3/4
f 1/1/1 5/2/5 7/3/7
f 1/1/1 8/3/8 6/2/6
f 1/1/1 7/3/7 9/2/9
f 1/1/1 9/2/9 8/3/8
f 2/2/2 4/3/4 10/1/10
f 4/3/4 6/2/6 10/1/10
f 3/3/3 2/1/2 5/2/5
f 7/3/7 11/1/11 9/2/9
f 7/3/7 5/2/5 11/1/11
f 8/3/8 12/1/12 6/2/6
f 8/3/8 9/2/9 12/1/12
f 10/1/10 6/2/6 13/3/13
f 10/1/10 13/3/13 14/2/14
f 11/1/11 15/3/15 9/2/9
f 11/1/11 16/2/16 15/3/15
f 12/1/12 17/3/17 6/2/6
f 12/1/12 9/2/9 18/3/18
f 12/1/12 19/2/19 17/3/17
f 12/1/12 18/3/18 20/2/20
f 12/1/12 21/3/21 19/2/19
f 12/1/12 20/2/20 21/3/21
f 13/3/13 6/2/6 14/1/14
f 14/1/14 17/3/17 19/2/19
f 14/1/14 6/2/6 17/3/17
f 15/3/15 16/1/16 9/2/9
f 16/1/16 18/3/18 9/2/9
f 16/1/16 20/2/20 18/3/18
f 21/3/21 20/1/20 19/2/19
f 22/4/22 23/5/23 24/6/24
f 22/4/22 25/7/25 23/5/23
f 22/4/22 24/6/24 26/8/26
f 22/4/22 27/5/27 25/7/25
f 22/4/22 26/8/26 28/9/28
f 22/4/22 29/6/29 27/5/27
f 22/4/22 28/9/28 30/8/30
f 22/4/22 30/8/30 29/6/29
f 23/5/23 25/7/25 31/10/31
f 23/5/23 31/10/31 32/11/32
f 24/6/24 33/12/33 26/8/26
f 24/6/24 34/13/34 33/12/33
f 26/8/26 33/12/33 28/9/28
f 27/5/27 35/10/35 25/7/25
f 27/5/27 36/11/36 35/10/35
f 30/8/30 37/12/37 29/6/29
f 30/8/30 28/9/28 37/12/37
f 28/9/28 33/12/33 37/12/37
f 31/10/31 38/14/38 32/11/32
f 31/10/31 25/7/25 39/15/39
f 31/10/31 39/15/39 38/14/38
f 25/7/25 35/10/35 39/15/39
f 34/13/34 40/16/40 41/17/41
f 34/13/34 42/18/42 40/16/40
f 36/11/36 43/14/43 35/10/35
f 36/11/36 44/19/44 43/14/43
f 36/11/36 45/18/45 44/19/44
f 43/14/43 39/15/39 35/10/35
f 29/6/29 37/12/37 46/13/46
f 32/11/32 38/14/38 47/19/47
f 32/11/32 47/19/47 42/18/42
f 41/17/41 40/16/40 48/20/48
f 41/17/41 49/16/49 46/13/46
f 41/17/41 48/20/48 49/16/49
f 46/13/46 49/16/49 45/18/45
f 44/19/44 45/18/45 50/21/50
f 45/18/45 49/16/49 50/21/50
f 47/19/47 51/21/51 42/18/42
f 42/18/42 51/21/51 40/16/40
f 48/20/48 52/22/52 49/16/49
f 48/20/48 40/16/40 52/22/52
f 52/22/52 50/21/50 49/16/49
f 52/22/52 40/16/40 51/21/51
f 53/23/53 54/24/54 55/23/55
f 53/23/53 56/24/56 54/24/54
f 53/23/53 55/23/55 57/25/57
f 53/23/53 58/26/58 56/24/56
f 53/23/53 57/25/57 59/27/59
f 53/23/53 60/28/60 58/26/58
f 53/23/53 59/27/59 60/28/60
f 54/24/54 61/26/61 55/23/55
f 54/24/54 56/24/56 62/29/62
f 54/24/54 63/30/63 61/26/61
f 54/24/54 62/29/62 63/30/63
f 57/25/57 64/31/64 59/27/59
f 57/25/57 55/23/55 65/27/65
f 57/25/57 65/27/65 66/31/66
f 60/28/60 64/31/64 58/26/58
f 60/28/60 59/27/59 64/31/64
f 56/24/56 67/29/67 62/29/62
f 56/24/56 58/26/58 68/30/68
f 56/24/56 68/30/68 67/29/67
f 61/26/61 63/30/63 69/32/69
f 61/26/61 70/28/70 55/23/55
f 61/26/61 66/31/66 70/28/70
f 61/26/61 69/32/69 71/33/71
f 61/26/61 71/33/71 66/31/66
f 70/28/70 65/27/65 55/23/55
f 70/28/70 66/31/66 65/27/65
f 64/31/64 72/33/72 58/26/58
f 62/29/62 67/29/67 73/34/73
f 62/29/62 73/34/73 63/30/63
f 67/29/67 68/30/68 73/34/73
f 69/32/69 63/30/63 74/35/74
f 63/30/63 73/34/73 74/35/74
f 72/33/72 75/32/75 58/26/58
f 58/26/58 75/32/75 68/30/68
f 73/34/73 76/35/76 74/35/74
f 73/34/73 68/30/68 76/35/76
f 76/35/76 68/30/68 75/32/75
f 77/36/77 43/36/43 44/36/44
f 77/36/77 78/36/78 43/36/43
f 77/36/77 44/36/44 50/36/50
f 77/36/77 79/36/79 78/36/78
f 77/36/77 50/36/50 80/36/80
f 77/36/77 80/36/80 79/36/79
f 43/36/43 78/36/78 39/36/39
f 50/36/50 52/36/52 80/36/80
f 79/36/79 38/36/38 78/36/78
f 79/36/79 80/36/80 51/36/51
f 79/36/79 47/36/47 38/36/38
f 79/36/79 51/36/51 47/36/47
f 51/36/51 80/36/80 52/36/52
f 38/36/38 39/36/39 78/36/78
f 72/37/72 64/37/64 66/37/66
f 72/37/72 66/37/66 71/37/71
f 72/37/72 71/37/71 76/37/76
f 72/37/72 76/37/76 75/37/75
f 64/37/64 57/37/57 66/37/66
f 71/37/71 74/37/74 76/37/76
f 71/37/71 69/37/69 74/37/74
f 41/38/41 33/39/33 34/40/34
f 41/38/41 37/39/37 33/39/33
f 41/38/41 46/40/46 37/39/37
vt 1.16606 0.735727
v 0.151127 0.387462 0.163781
vt 0.443111 0.852761
vn 0.8282917 -0.0006613717 0.5602968
vt 0.105708 0.678951
vt 0.429722 1.02721
v -0.151127 0.387462 0.163781
vn -0.8282921 -0.0006614061 0.5602961
vt -0.106341 0.782982
vt 1.16606 0.969796
o merged_1_0_node
g polygon_0
usemtl TEX_ANIM_EYE_mat_id
f 45/41/45 81/42/81 46/43/46
f 23/44/23 82/42/82 24/45/24
f 27/44/27 29/45/29 81/42/81
f 81/42/81 29/45/29 46/43/46
f 36/46/36 81/42/81 45/41/45
f 27/44/27 81/42/81 36/46/36
f 42/41/42 34/43/34 82/42/82
f 82/42/82 34/43/34 24/45/24
f 32/46/32 82/42/82 23/44/23
f 42/41/42 82/42/82 32/46/32
