ply
format ascii 1.0
element vertex 622
property float x
property float y
property float z
property uchar red
property uchar green
property uchar blue
element face 670
property list uchar int vertex_index
end_header
0.39395 0.72604 0.07461 226 221 183
0.39395 0.76843 0.12536 226 221 183
0.33042 0.83313 0.11397 226 221 183
0.33042 0.75814 0.04055 226 221 183
0.39395 0.76843 0.34438 226 221 183
0.39395 0.38661 0.07461 226 221 183
0.39395 -0.27845 0.34438 226 221 183
0.39395 -0.32511 0.07412 226 221 183
0.33042 0.83313 0.34438 226 221 183
0.33042 -0.3636 0.04006 226 221 183
0.39395 -0.3249 0.3988 226 221 183
0.33042 -0.36339 0.39893 226 221 183
0.33042 0.38661 0.04055 226 221 183
0.39395 -0.27845 0.66515 226 221 183
0.39395 -0.5813 0.66515 226 221 183
-0.33042 0.83313 0.34438 226 221 183
-0.33042 0.83313 0.11397 226 221 183
-0.33042 0.38661 0.04055 226 221 183
-0.33042 -0.3636 0.04006 226 221 183
-0.33042 0.75814 0.04055 226 221 183
-0.33042 -0.36339 0.39893 226 221 183
-0.33042 -0.65599 0.39894 226 221 183
0.33042 -0.65599 0.39894 226 221 183
0.39395 -0.5813 0.39881 226 221 183
0.33042 -0.65599 0.66515 226 221 183
-0.39395 -0.3249 0.3988 226 221 183
-0.39395 -0.5813 0.39881 226 221 183
-0.33042 -0.65599 0.66515 226 221 183
0.39395 0.76843 0.4839 226 221 183
0.39395 0.76843 0.6905 226 221 183
0.33042 0.83313 0.6905 226 221 183
0.33042 0.83313 0.48382 226 221 183
0.39395 0.49593 0.64254 226 221 183
0.39395 0.49593 0.6905 226 221 183
0.39395 0.28516 0.64254 226 221 183
0.39395 0.28516 0.4839 226 221 183
-0.33042 0.83313 0.6905 226 221 183
-0.33042 0.83313 0.48382 226 221 183
0.39395 -0.58026 1.4591 226 221 183
0.39395 -0.22018 1.4591 226 221 183
0.39395 -0.22018 1.21859 226 221 183
0.39395 -0.27845 1.21859 226 221 183
0.33042 -0.55529 1.5 226 221 183
0.33042 -0.22018 1.5 226 221 183
0.33042 -0.65599 1.45891 226 221 183
0.27724 -0.61554 1.5 226 221 183
-0.27724 -0.61554 1.5 226 221 183
-0.33042 -0.65599 1.45891 226 221 183
-0.33042 -0.65599 1.12372 226 221 183
0.33042 -0.65599 1.12372 226 221 183
0.39395 -0.5813 1.12372 226 221 183
0.39395 -0.27845 1.12372 226 221 183
0.39395 0.35087 0.78033 187 183 152
0.39395 0.49593 0.6905 187 183 152
0.39395 0.49593 0.64254 187 183 152
0.39395 0.49593 0.77107 187 183 152
0.39395 0.49593 1.07882 187 183 152
0.39395 0.49593 1.16096 187 183 152
0.39395 0.35087 1.07707 187 183 152
0.39395 0.49593 1.21859 187 183 152
0.39395 0.43011 1.21859 187 183 152
0.39395 0.35763 1.21859 187 183 152
0.39395 0.16616 1.21859 187 183 152
0.39395 0.08643 1.21859 187 183 152
0.39395 -0.13921 1.07724 187 183 152
0.39395 -0.14045 1.21859 187 183 152
0.39395 -0.22018 1.21859 187 183 152
0.39395 -0.27845 1.21859 187 183 152
0.39395 -0.27845 1.12372 187 183 152
0.39395 -0.27845 1.03791 187 183 152
0.39395 -0.27845 0.75182 187 183 152
0.39395 -0.13921 0.4839 187 183 152
0.39395 -0.27845 0.66515 187 183 152
0.39395 -0.27845 0.34438 187 183 152
0.39395 0.22459 0.4839 187 183 152
0.39395 0.28516 0.4839 187 183 152
0.39395 0.76843 0.34438 187 183 152
0.39395 0.76843 0.4839 187 183 152
0.33042 0.83313 0.48382 187 183 152
0.33042 0.83313 0.34438 187 183 152
-0.33042 0.83313 0.48382 187 183 152
-0.33042 0.83313 0.34438 187 183 152
0.39395 0.22459 0.64254 187 183 152
0.39395 0.03242 0.64254 187 183 152
0.39395 0.16891 0.78033 187 183 152
0.39395 0.03255 0.91953 187 183 152
0.39395 0.16891 0.91953 187 183 152
0.39395 0.28516 0.64254 187 183 152
0.39395 -0.13921 0.4839 226 221 183
0.39395 0.03242 0.64254 226 221 183
0.39395 0.22459 0.64254 226 221 183
0.39395 0.22459 0.4839 226 221 183
0.39395 0.03255 0.91953 226 221 183
0.39395 -0.13921 1.07724 226 221 183
0.39395 0.16891 0.91953 226 221 183
0.39395 0.35087 1.07707 226 221 183
0.39395 0.35087 0.78033 226 221 183
0.39395 0.16891 0.78033 226 221 183
0.39395 0.76819 1.4591 226 221 183
0.39395 0.76843 1.16097 226 221 183
0.39395 0.49593 1.21859 226 221 183
0.39395 0.43011 1.4591 226 221 183
0.33042 0.71984 1.5 226 221 183
0.33042 0.43011 1.5 226 221 183
0.39395 0.43011 1.21859 226 221 183
0.33042 0.83313 1.16097 226 221 183
0.33042 0.83313 1.45866 226 221 183
-0.33042 0.83313 1.45866 226 221 183
-0.33042 0.83313 1.16097 226 221 183
-0.27415 0.77783 1.5 226 221 183
0.27415 0.77783 1.5 226 221 183
0.39395 0.49593 1.16096 226 221 183
0.39395 -0.27845 0.66515 213 209 173
0.39395 -0.5813 0.66515 213 209 173
0.39395 -0.5813 0.75182 213 209 173
0.39395 -0.27845 0.75182 213 209 173
0.33042 -0.65599 0.66515 213 209 173
0.33042 -0.65599 0.75182 213 209 173
-0.33042 -0.65599 0.66515 213 209 173
-0.33042 -0.65599 0.75182 213 209 173
0.39395 -0.5813 1.12372 213 209 173
0.39395 -0.5813 1.03791 213 209 173
0.33042 -0.65599 1.03791 213 209 173
0.33042 -0.65599 1.12372 213 209 173
0.39395 -0.27845 1.03791 213 209 173
0.39395 -0.27845 1.12372 213 209 173
-0.33042 -0.65599 1.03791 213 209 173
-0.33042 -0.65599 1.12372 213 209 173
0.39395 -0.27845 0.75182 226 221 183
0.39395 -0.5813 0.75182 226 221 183
0.39395 -0.5813 1.03791 226 221 183
0.39395 -0.27845 1.03791 226 221 183
0.33042 -0.65599 0.75182 226 221 183
0.33042 -0.65599 1.03791 226 221 183
-0.33042 -0.65599 0.75182 226 221 183
-0.33042 -0.65599 1.03791 226 221 183
0.39395 -0.22018 1.4591 213 209 173
0.39395 -0.14045 1.4591 213 209 173
0.39395 -0.14045 1.21859 213 209 173
0.39395 -0.22018 1.21859 213 209 173
0.33042 -0.22018 1.5 213 209 173
0.33042 -0.14045 1.5 213 209 173
-0.33042 -0.22018 1.5 213 209 173
-0.33042 -0.14045 1.5 213 209 173
0.39395 -0.14045 1.4591 226 221 183
0.39395 0.08643 1.4591 226 221 183
0.39395 0.08643 1.21859 226 221 183
0.39395 -0.14045 1.21859 226 221 183
0.33042 -0.14045 1.5 226 221 183
0.33042 0.08643 1.5 226 221 183
0.39395 0.08643 1.4591 213 209 173
0.39395 0.16616 1.4591 213 209 173
0.39395 0.16616 1.21859 213 209 173
0.39395 0.08643 1.21859 213 209 173
0.33042 0.08643 1.5 213 209 173
0.33042 0.16616 1.5 213 209 173
-0.33042 0.08643 1.5 213 209 173
-0.33042 0.16616 1.5 213 209 173
0.39395 0.16616 1.4591 226 221 183
0.39395 0.35763 1.4591 226 221 183
0.39395 0.35763 1.21859 226 221 183
0.39395 0.16616 1.21859 226 221 183
0.33042 0.16616 1.5 226 221 183
0.33042 0.35763 1.5 226 221 183
0.39395 0.43011 1.4591 213 209 173
0.39395 0.35763 1.4591 213 209 173
0.33042 0.35763 1.5 213 209 173
0.33042 0.43011 1.5 213 209 173
0.39395 0.43011 1.21859 213 209 173
0.39395 0.35763 1.21859 213 209 173
-0.33042 0.35763 1.5 213 209 173
-0.33042 0.43011 1.5 213 209 173
0.39395 0.76843 1.07882 213 209 173
0.39395 0.76843 1.16097 213 209 173
0.33042 0.83313 1.16097 213 209 173
0.33042 0.83313 1.07882 213 209 173
0.39395 0.49593 1.07882 213 209 173
0.39395 0.49593 1.16096 213 209 173
-0.33042 0.83313 1.16097 213 209 173
-0.33042 0.83313 1.07882 213 209 173
0.39395 0.76843 0.6905 213 209 173
0.39395 0.76843 0.77107 213 209 173
0.33042 0.83313 0.77107 213 209 173
0.33042 0.83313 0.6905 213 209 173
0.39395 0.49593 0.6905 213 209 173
0.39395 0.49593 0.77107 213 209 173
-0.33042 0.83313 0.77107 213 209 173
-0.33042 0.83313 0.6905 213 209 173
0.39395 0.76843 0.77107 226 221 183
0.39395 0.76843 1.07882 226 221 183
0.33042 0.83313 1.07882 226 221 183
0.33042 0.83313 0.77107 226 221 183
0.39395 0.49593 0.77107 226 221 183
0.39395 0.49593 1.07882 226 221 183
-0.33042 0.83313 1.07882 226 221 183
-0.33042 0.83313 0.77107 226 221 183
0.39395 0.22459 0.64254 213 209 173
0.39395 0.28516 0.64254 213 209 173
0.39395 0.28516 0.4839 213 209 173
0.39395 0.22459 0.4839 213 209 173
-0.39395 -0.27845 1.21859 226 221 183
-0.39395 -0.58026 1.4591 226 221 183
-0.39395 -0.5813 1.12372 226 221 183
-0.39395 -0.22018 1.21859 226 221 183
-0.39395 -0.22018 1.4591 226 221 183
-0.33042 -0.55529 1.5 226 221 183
-0.33042 -0.22018 1.5 226 221 183
-0.39395 -0.27845 1.12372 226 221 183
0.33042 0.71984 1.5 231 226 187
0.33042 0.43011 1.5 231 226 187
-0.33042 0.43011 1.5 231 226 187
-0.33042 0.71984 1.5 231 226 187
-0.27415 0.77783 1.5 231 226 187
0.27415 0.77783 1.5 231 226 187
-0.39395 0.72604 0.07461 226 221 183
-0.39395 0.76843 0.12536 226 221 183
-0.39395 0.76843 0.34438 226 221 183
-0.39395 0.38661 0.07461 226 221 183
-0.39395 -0.27845 0.34438 226 221 183
-0.39395 -0.32511 0.07412 226 221 183
-0.39395 -0.27845 0.66515 226 221 183
-0.39395 -0.5813 0.66515 226 221 183
-0.39395 0.76843 0.4839 226 221 183
-0.39395 0.76843 0.6905 226 221 183
-0.39395 0.49593 0.64254 226 221 183
-0.39395 0.49593 0.6905 226 221 183
-0.39395 0.28516 0.64254 226 221 183
-0.39395 0.28516 0.4839 226 221 183
-0.39395 0.35087 0.78033 187 183 152
-0.39395 0.49593 0.64254 187 183 152
-0.39395 0.49593 0.6905 187 183 152
-0.39395 0.49593 0.77107 187 183 152
-0.39395 0.49593 1.07882 187 183 152
-0.39395 0.49593 1.16096 187 183 152
-0.39395 0.35087 1.07707 187 183 152
-0.39395 0.49593 1.21859 187 183 152
-0.39395 0.43011 1.21859 187 183 152
-0.39395 0.35763 1.21859 187 183 152
-0.39395 0.16616 1.21859 187 183 152
-0.39395 0.08643 1.21859 187 183 152
-0.39395 -0.13921 1.07724 187 183 152
-0.39395 -0.14045 1.21859 187 183 152
-0.39395 -0.22018 1.21859 187 183 152
-0.39395 -0.27845 1.21859 187 183 152
-0.39395 -0.27845 1.12372 187 183 152
-0.39395 -0.27845 1.03791 187 183 152
-0.39395 -0.27845 0.75182 187 183 152
-0.39395 -0.13921 0.4839 187 183 152
-0.39395 -0.27845 0.66515 187 183 152
-0.39395 -0.27845 0.34438 187 183 152
-0.39395 0.22459 0.4839 187 183 152
-0.39395 0.28516 0.4839 187 183 152
-0.39395 0.76843 0.34438 187 183 152
-0.39395 0.76843 0.4839 187 183 152
-0.39395 0.22459 0.64254 187 183 152
-0.39395 0.16891 0.78033 187 183 152
-0.39395 0.03242 0.64254 187 183 152
-0.39395 0.03255 0.91953 187 183 152
-0.39395 0.16891 0.91953 187 183 152
-0.39395 0.28516 0.64254 187 183 152
-0.39395 -0.13921 0.4839 226 221 183
-0.39395 0.22459 0.4839 226 221 183
-0.39395 0.22459 0.64254 226 221 183
-0.39395 0.03242 0.64254 226 221 183
-0.39395 0.03255 0.91953 226 221 183
-0.39395 -0.13921 1.07724 226 221 183
-0.39395 0.16891 0.91953 226 221 183
-0.39395 0.35087 1.07707 226 221 183
-0.39395 0.35087 0.78033 226 221 183
-0.39395 0.16891 0.78033 226 221 183
-0.33042 0.71984 1.5 226 221 183
-0.33042 0.43011 1.5 226 221 183
-0.39395 0.43011 1.4591 226 221 183
-0.39395 0.76819 1.4591 226 221 183
-0.39395 0.49593 1.21859 226 221 183
-0.39395 0.43011 1.21859 226 221 183
-0.39395 0.76843 1.16097 226 221 183
-0.39395 0.49593 1.16096 226 221 183
-0.39395 -0.27845 0.66515 213 209 173
-0.39395 -0.27845 0.75182 213 209 173
-0.39395 -0.5813 0.75182 213 209 173
-0.39395 -0.5813 0.66515 213 209 173
-0.39395 -0.5813 1.12372 213 209 173
-0.39395 -0.5813 1.03791 213 209 173
-0.39395 -0.27845 1.03791 213 209 173
-0.39395 -0.27845 1.12372 213 209 173
-0.39395 -0.27845 0.75182 226 221 183
-0.39395 -0.27845 1.03791 226 221 183
-0.39395 -0.5813 1.03791 226 221 183
-0.39395 -0.5813 0.75182 226 221 183
0.33042 -0.55529 1.5 231 226 187
0.27724 -0.61554 1.5 231 226 187
-0.27724 -0.61554 1.5 231 226 187
-0.33042 -0.55529 1.5 231 226 187
0.33042 -0.22018 1.5 231 226 187
-0.33042 -0.22018 1.5 231 226 187
-0.39395 -0.22018 1.4591 213 209 173
-0.39395 -0.22018 1.21859 213 209 173
-0.39395 -0.14045 1.21859 213 209 173
-0.39395 -0.14045 1.4591 213 209 173
-0.39395 -0.14045 1.4591 226 221 183
-0.39395 -0.14045 1.21859 226 221 183
-0.39395 0.08643 1.21859 226 221 183
-0.39395 0.08643 1.4591 226 221 183
-0.33042 -0.14045 1.5 226 221 183
-0.33042 0.08643 1.5 226 221 183
0.33042 0.08643 1.5 231 226 187
0.33042 -0.14045 1.5 231 226 187
-0.33042 -0.14045 1.5 231 226 187
-0.33042 0.08643 1.5 231 226 187
-0.39395 0.08643 1.4591 213 209 173
-0.39395 0.08643 1.21859 213 209 173
-0.39395 0.16616 1.21859 213 209 173
-0.39395 0.16616 1.4591 213 209 173
-0.39395 0.16616 1.4591 226 221 183
-0.39395 0.16616 1.21859 226 221 183
-0.39395 0.35763 1.21859 226 221 183
-0.39395 0.35763 1.4591 226 221 183
-0.33042 0.16616 1.5 226 221 183
-0.33042 0.35763 1.5 226 221 183
-0.39395 0.43011 1.4591 213 209 173
-0.39395 0.35763 1.4591 213 209 173
-0.39395 0.43011 1.21859 213 209 173
-0.39395 0.35763 1.21859 213 209 173
0.33042 0.35763 1.5 231 226 187
0.33042 0.16616 1.5 231 226 187
-0.33042 0.16616 1.5 231 226 187
-0.33042 0.35763 1.5 231 226 187
-0.39395 0.76843 1.07882 213 209 173
-0.39395 0.76843 1.16097 213 209 173
-0.39395 0.49593 1.07882 213 209 173
-0.39395 0.49593 1.16096 213 209 173
-0.39395 0.76843 0.6905 213 209 173
-0.39395 0.76843 0.77107 213 209 173
-0.39395 0.49593 0.6905 213 209 173
-0.39395 0.49593 0.77107 213 209 173
-0.39395 0.76843 0.77107 226 221 183
-0.39395 0.76843 1.07882 226 221 183
-0.39395 0.49593 0.77107 226 221 183
-0.39395 0.49593 1.07882 226 221 183
-0.39395 0.22459 0.64254 213 209 173
-0.39395 0.22459 0.4839 213 209 173
-0.39395 0.28516 0.4839 213 209 173
-0.39395 0.28516 0.64254 213 209 173
0.52744 -0.57566 0.3676 120 209 230
0.64265 -0.57566 0.21047 120 209 230
0.61613 -0.57566 0.18128 120 209 230
0.49766 -0.57566 0.34748 120 209 230
0.49705 -0.54703 0.39253 120 209 230
0.64265 -0.57566 0.53576 120 209 230
0.52744 -0.57566 0.53576 120 209 230
0.49705 -0.54703 0.53576 120 209 230
0.49705 -0.42197 0.53576 120 209 230
0.49705 -0.42197 0.39253 120 209 230
0.52744 -0.39197 0.3676 120 209 230
0.52744 -0.39197 0.53576 120 209 230
0.64265 -0.39197 0.21047 120 209 230
0.64265 -0.39197 0.53576 120 209 230
0.34448 -0.57566 0.18128 120 209 230
0.34448 -0.57566 0.34748 120 209 230
0.47855 -0.54703 0.37546 120 209 230
0.34448 -0.54703 0.37546 120 209 230
0.49766 -0.39197 0.34748 120 209 230
0.47855 -0.42197 0.37546 120 209 230
0.34448 -0.42197 0.37546 120 209 230
0.34448 -0.39197 0.34748 120 209 230
0.61613 -0.39197 0.18128 120 209 230
0.34448 -0.39197 0.18128 120 209 230
0.64275 -0.42197 0.16055 120 209 230
0.34448 -0.42197 0.16055 120 209 230
0.64275 -0.54703 0.16055 120 209 230
0.34448 -0.54703 0.16055 120 209 230
0.66694 -0.42197 0.18724 120 209 230
0.66694 -0.42197 0.53576 120 209 230
0.66694 -0.54703 0.18724 120 209 230
0.66694 -0.54703 0.53576 120 209 230
0.65147 -0.43333 0.55555 120 209 230
0.65147 -0.53546 0.55555 120 209 230
0.63164 -0.40883 0.55555 120 209 230
0.63164 -0.55884 0.55555 120 209 230
0.53755 -0.55884 0.55555 120 209 230
0.51273 -0.53546 0.55555 120 209 230
0.51273 -0.43333 0.55555 120 209 230
0.53755 -0.40883 0.55555 120 209 230
0.65147 -0.53546 0.55555 124 216 238
0.63164 -0.55884 0.55555 124 216 238
0.53755 -0.55884 0.55555 124 216 238
0.51273 -0.53546 0.55555 124 216 238
0.51273 -0.43333 0.55555 124 216 238
0.65147 -0.43333 0.55555 124 216 238
0.63164 -0.40883 0.55555 124 216 238
0.53755 -0.40883 0.55555 124 216 238
0.47855 -0.42197 0.37546 124 216 238
0.49705 -0.42197 0.39253 124 216 238
0.49705 -0.54703 0.39253 124 216 238
0.47855 -0.54703 0.37546 124 216 238
0.34448 -0.54703 0.37546 124 216 238
0.34448 -0.42197 0.37546 124 216 238
0.11829 -0.68623 0.3223 61 59 60
0.11829 -0.68623 0.44822 61 59 60
0.28053 -0.68623 0.44822 61 59 60
0.28053 -0.68623 0.3223 61 59 60
0.08353 -0.68623 0.48298 244 242 243
0.08353 -0.5979 0.48298 244 242 243
0.31529 -0.5979 0.48298 244 242 243
0.31529 -0.68623 0.48298 244 242 243
0.31529 -0.68623 0.25122 244 242 243
0.31529 -0.5979 0.25122 244 242 243
0.08353 -0.5979 0.25122 244 242 243
0.08353 -0.68623 0.25122 244 242 243
0.28053 -0.68623 0.44822 244 242 243
0.28053 -0.68623 0.3223 244 242 243
0.11829 -0.68623 0.44822 244 242 243
0.28053 -0.68623 0.28598 244 242 243
0.11829 -0.68623 0.28598 244 242 243
0.11829 -0.68623 0.3223 244 242 243
-0.28053 -0.68623 0.3223 61 59 60
-0.28053 -0.68623 0.44822 61 59 60
-0.11829 -0.68623 0.44822 61 59 60
-0.11829 -0.68623 0.3223 61 59 60
-0.08353 -0.68623 0.48298 244 242 243
-0.31529 -0.68623 0.48298 244 242 243
-0.31529 -0.5979 0.48298 244 242 243
-0.08353 -0.5979 0.48298 244 242 243
-0.31529 -0.68623 0.25122 244 242 243
-0.31529 -0.5979 0.25122 244 242 243
-0.08353 -0.5979 0.25122 244 242 243
-0.08353 -0.68623 0.25122 244 242 243
-0.11829 -0.68623 0.44822 244 242 243
-0.28053 -0.68623 0.44822 244 242 243
-0.28053 -0.68623 0.3223 244 242 243
-0.28053 -0.68623 0.28598 244 242 243
-0.11829 -0.68623 0.28598 244 242 243
-0.11829 -0.68623 0.3223 244 242 243
0.16521 -0.61339 0 120 209 230
0.2078 -0.61339 0 120 209 230
0.35821 -0.46965 0 120 209 230
0.35821 -0.29341 0 120 209 230
0.35821 -0.46965 0.1277 120 209 230
0.35821 -0.61339 0.43812 120 209 230
0.35821 -0.61339 0.28714 120 209 230
0.48032 -0.46965 0.1277 120 209 230
0.48032 -0.46965 -8.88178E-18 120 209 230
0.35821 -0.61339 0 120 209 230
0.48032 -0.61339 -8.88178E-18 120 209 230
0.35821 -0.61339 0.1277 120 209 230
0.35821 -0.76691 0.1277 120 209 230
0.35821 -0.76691 6.98801E-18 120 209 230
0.48032 -0.61339 0.1277 120 209 230
0.2078 -0.61339 0.1277 120 209 230
0.16521 -0.61339 0.1277 120 209 230
0.283 -0.61339 0.28714 120 209 230
0.08261 -0.61339 0.28714 120 209 230
0.02069 -0.61339 0.1277 120 209 230
0.33674 -0.78578 0.1277 120 209 230
0.33674 -0.78578 -3.33557E-17 120 209 230
0.50138 -0.48441 8.88178E-18 120 209 230
0.50138 -0.59863 8.88178E-18 120 209 230
0.50138 -0.48441 0.1277 120 209 230
0.50138 -0.59863 0.1277 120 209 230
0.2078 -0.76691 0.1277 120 209 230
0.2078 -0.76691 3.24494E-19 120 209 230
0.22927 -0.78578 -4.00192E-17 120 209 230
0.22927 -0.78578 0.1277 120 209 230
0.14458 -0.83313 -4.56345E-17 120 209 230
0.04132 -0.83313 -3.05139E-17 120 209 230
0.04132 -0.83313 0.1277 120 209 230
0.14458 -0.83313 0.1277 120 209 230
0.16521 -0.81426 -1.4639E-17 120 209 230
0.16521 -0.81426 0.1277 120 209 230
0.02069 -0.61339 0 120 209 230
0.02069 -0.81426 -1.83309E-18 120 209 230
0.35821 0.3986 0.43812 120 209 230
0.35821 0.3986 0 120 209 230
-0.35821 0.3986 0 120 209 230
0 0.3986 0.43812 120 209 230
-0.35821 0.3986 0.43812 120 209 230
-0.35821 -0.29341 0 120 209 230
-0.02069 -0.61339 0 120 209 230
-0.16521 -0.61339 0 120 209 230
-0.35821 -0.46965 0 120 209 230
-0.2078 -0.61339 0 120 209 230
-0.16521 -0.81426 -1.4639E-17 120 209 230
-0.16521 -0.81426 0.1277 120 209 230
-0.16521 -0.61339 0.1277 120 209 230
-0.02069 -0.81426 -1.83309E-18 120 209 230
-0.35821 -0.46965 0.1277 120 209 230
-0.48032 -0.46965 0.1277 120 209 230
-0.48032 -0.46965 -8.88178E-18 120 209 230
-0.35821 -0.61339 0 120 209 230
-0.48032 -0.61339 -8.88178E-18 120 209 230
-0.35821 -0.61339 0.1277 120 209 230
-0.35821 -0.61339 0.28714 120 209 230
-0.35821 -0.76691 0.1277 120 209 230
-0.35821 -0.76691 6.98801E-18 120 209 230
-0.48032 -0.61339 0.1277 120 209 230
-0.283 -0.61339 0.28714 120 209 230
-0.2078 -0.61339 0.1277 120 209 230
-0.35821 -0.61339 0.43812 120 209 230
-0.283 -0.61339 0.43812 120 209 230
-0.33674 -0.78578 -3.33557E-17 120 209 230
-0.33674 -0.78578 0.1277 120 209 230
-0.22927 -0.78578 -4.00192E-17 120 209 230
-0.22927 -0.78578 0.1277 120 209 230
-0.50138 -0.59863 0.1277 120 209 230
-0.50138 -0.59863 -8.88178E-18 120 209 230
-0.50138 -0.48441 0.1277 120 209 230
-0.50138 -0.48441 -8.88178E-18 120 209 230
0.35821 -0.61339 0.1277 124 216 238
0.35821 -0.76691 0.1277 124 216 238
0.2078 -0.76691 0.1277 124 216 238
0.2078 -0.61339 0.1277 124 216 238
0.22927 -0.78578 0.1277 124 216 238
0.33674 -0.78578 0.1277 124 216 238
0.16521 -0.61339 0.1277 124 216 238
0.16521 -0.81426 0.1277 124 216 238
0.02069 -0.81426 0.1277 124 216 238
0.02069 -0.61339 0.1277 124 216 238
0.04132 -0.83313 0.1277 124 216 238
0.14458 -0.83313 0.1277 124 216 238
0.02069 -0.81426 0.1277 120 209 230
-0.02069 -0.61339 0.1277 120 209 230
-0.08261 -0.61339 0.28714 120 209 230
-0.2078 -0.76691 3.24494E-19 120 209 230
-0.2078 -0.76691 0.1277 120 209 230
0.35821 -0.46965 0.1277 124 216 238
0.48032 -0.46965 0.1277 124 216 238
0.48032 -0.61339 0.1277 124 216 238
0.50138 -0.59863 0.1277 124 216 238
0.50138 -0.48441 0.1277 124 216 238
-0.14458 -0.83313 -5.01661E-17 120 209 230
-0.14458 -0.83313 0.1277 120 209 230
-0.04132 -0.83313 0.1277 120 209 230
-0.04132 -0.83313 -3.73602E-17 120 209 230
-0.02069 -0.81426 0.1277 120 209 230
-0.35821 -0.61339 0.1277 124 216 238
-0.2078 -0.61339 0.1277 124 216 238
-0.2078 -0.76691 0.1277 124 216 238
-0.35821 -0.76691 0.1277 124 216 238
-0.35821 -0.46965 0.1277 124 216 238
-0.48032 -0.61339 0.1277 124 216 238
-0.48032 -0.46965 0.1277 124 216 238
-0.50138 -0.48441 0.1277 124 216 238
-0.50138 -0.59863 0.1277 124 216 238
-0.16521 -0.61339 0.1277 124 216 238
-0.02069 -0.61339 0.1277 124 216 238
-0.02069 -0.81426 0.1277 124 216 238
-0.16521 -0.81426 0.1277 124 216 238
-0.14458 -0.83313 0.1277 124 216 238
-0.04132 -0.83313 0.1277 124 216 238
0 -0.61339 0.43812 108 188 207
0.283 -0.61339 0.43812 108 188 207
0.283 -0.61339 0.28714 108 188 207
0.08261 -0.61339 0.28714 108 188 207
-0.08261 -0.61339 0.28714 108 188 207
-0.283 -0.61339 0.28714 108 188 207
-0.283 -0.61339 0.43812 108 188 207
0.283 -0.61339 0.43812 120 209 230
0.11829 -0.68623 0.28598 49 47 48
0.11829 -0.68623 0.3223 49 47 48
0.28053 -0.68623 0.3223 49 47 48
0.28053 -0.68623 0.28598 49 47 48
-0.11829 -0.68623 0.28598 49 47 48
-0.28053 -0.68623 0.28598 49 47 48
-0.28053 -0.68623 0.3223 49 47 48
-0.11829 -0.68623 0.3223 49 47 48
-0.22927 -0.78578 0.1277 124 216 238
-0.33674 -0.78578 0.1277 124 216 238
-0.52744 -0.57566 0.3676 120 209 230
-0.49766 -0.57566 0.34748 120 209 230
-0.61613 -0.57566 0.18128 120 209 230
-0.64265 -0.57566 0.21047 120 209 230
-0.49705 -0.54703 0.39253 120 209 230
-0.64265 -0.57566 0.53576 120 209 230
-0.52744 -0.57566 0.53576 120 209 230
-0.49705 -0.54703 0.53576 120 209 230
-0.49705 -0.42197 0.53576 120 209 230
-0.49705 -0.42197 0.39253 120 209 230
-0.52744 -0.39197 0.3676 120 209 230
-0.52744 -0.39197 0.53576 120 209 230
-0.64265 -0.39197 0.21047 120 209 230
-0.64265 -0.39197 0.53576 120 209 230
-0.34448 -0.57566 0.18128 120 209 230
-0.34448 -0.57566 0.34748 120 209 230
-0.47855 -0.54703 0.37546 120 209 230
-0.34448 -0.54703 0.37546 120 209 230
-0.49766 -0.39197 0.34748 120 209 230
-0.47855 -0.42197 0.37546 120 209 230
-0.34448 -0.42197 0.37546 120 209 230
-0.34448 -0.39197 0.34748 120 209 230
-0.61613 -0.39197 0.18128 120 209 230
-0.34448 -0.39197 0.18128 120 209 230
-0.64275 -0.42197 0.16055 120 209 230
-0.34448 -0.42197 0.16055 120 209 230
-0.64275 -0.54703 0.16055 120 209 230
-0.34448 -0.54703 0.16055 120 209 230
-0.66694 -0.42197 0.18724 120 209 230
-0.66694 -0.42197 0.53576 120 209 230
-0.66694 -0.54703 0.18724 120 209 230
-0.66694 -0.54703 0.53576 120 209 230
-0.65147 -0.43333 0.55555 120 209 230
-0.65147 -0.53546 0.55555 120 209 230
-0.63164 -0.40883 0.55555 120 209 230
-0.63164 -0.55884 0.55555 120 209 230
-0.53755 -0.55884 0.55555 120 209 230
-0.51273 -0.53546 0.55555 120 209 230
-0.51273 -0.43333 0.55555 120 209 230
-0.53755 -0.40883 0.55555 120 209 230
-0.65147 -0.53546 0.55555 124 216 238
-0.51273 -0.53546 0.55555 124 216 238
-0.53755 -0.55884 0.55555 124 216 238
-0.63164 -0.55884 0.55555 124 216 238
-0.51273 -0.43333 0.55555 124 216 238
-0.65147 -0.43333 0.55555 124 216 238
-0.63164 -0.40883 0.55555 124 216 238
-0.53755 -0.40883 0.55555 124 216 238
-0.47855 -0.42197 0.37546 124 216 238
-0.47855 -0.54703 0.37546 124 216 238
-0.49705 -0.54703 0.39253 124 216 238
-0.49705 -0.42197 0.39253 124 216 238
-0.34448 -0.54703 0.37546 124 216 238
-0.34448 -0.42197 0.37546 124 216 238
3 0 2 1
3 0 3 2
3 4 0 1
3 2 4 1
3 4 5 0
3 6 5 4
3 5 6 7
3 2 8 4
3 5 7 9
3 10 9 7
3 6 10 7
3 10 11 9
3 5 9 12
3 12 0 5
3 12 3 0
3 10 6 13
3 10 13 14
3 2 15 8
3 2 16 15
3 3 16 2
3 9 17 12
3 9 18 17
3 11 18 9
3 12 19 3
3 12 17 19
3 3 19 16
3 11 20 18
3 11 21 20
3 11 22 21
3 14 22 23
3 10 14 23
3 14 24 22
3 24 21 22
3 21 25 20
3 21 26 25
3 24 27 21
3 28 30 29
3 28 31 30
3 32 28 29
3 32 29 33
3 34 28 32
3 34 35 28
3 31 36 30
3 31 37 36
3 38 40 39
3 38 41 40
3 39 42 38
3 39 43 42
3 42 44 38
3 42 45 44
3 44 45 46
3 44 46 47
3 44 47 48
3 44 48 49
3 38 44 49
3 38 49 50
3 41 38 50
3 41 50 51
3 52 54 53
3 52 53 55
3 52 55 56
3 52 56 57
3 52 57 58
3 58 57 59
3 59 60 58
3 58 60 61
3 58 61 62
3 58 62 63
3 58 63 64
3 64 63 65
3 64 65 66
3 64 66 67
3 68 64 67
3 69 64 68
3 70 64 69
3 70 71 64
3 72 71 70
3 73 71 72
3 73 74 71
3 73 75 74
3 73 76 75
3 75 76 77
3 76 78 77
3 76 79 78
3 79 80 78
3 79 81 80
3 82 84 83
3 85 83 84
3 85 84 86
3 87 84 82
3 87 52 84
3 54 52 87
3 88 90 89
3 88 91 90
3 88 89 92
3 88 92 93
3 93 92 94
3 93 94 95
3 95 94 96
3 96 94 97
3 98 100 99
3 101 100 98
3 102 101 98
3 102 103 101
3 101 104 100
3 98 99 105
3 98 105 106
3 102 98 106
3 105 107 106
3 105 108 107
3 106 107 109
3 106 109 110
3 102 106 110
3 99 100 111
3 22 10 23
3 22 11 10
3 112 114 113
3 112 115 114
3 114 116 113
3 114 117 116
3 117 118 116
3 117 119 118
3 120 122 121
3 120 123 122
3 120 121 124
3 120 124 125
3 123 126 122
3 123 127 126
3 128 130 129
3 128 131 130
3 130 132 129
3 130 133 132
3 133 134 132
3 133 135 134
3 136 138 137
3 136 139 138
3 137 140 136
3 137 141 140
3 141 142 140
3 141 143 142
3 144 146 145
3 144 147 146
3 145 148 144
3 145 149 148
3 150 152 151
3 150 153 152
3 151 154 150
3 151 155 154
3 155 156 154
3 155 157 156
3 158 160 159
3 158 161 160
3 159 162 158
3 159 163 162
3 164 166 165
3 164 167 166
3 165 168 164
3 165 169 168
3 167 170 166
3 167 171 170
3 172 174 173
3 172 175 174
3 176 172 173
3 176 173 177
3 175 178 174
3 175 179 178
3 180 182 181
3 180 183 182
3 184 180 181
3 184 181 185
3 183 186 182
3 183 187 186
3 188 190 189
3 188 191 190
3 192 188 189
3 192 189 193
3 191 194 190
3 191 195 194
3 196 198 197
3 196 199 198
3 200 202 201
3 201 203 200
3 201 204 203
3 201 202 48
3 201 48 47
3 204 201 205
3 205 201 47
3 204 205 206
3 205 47 46
3 200 207 202
3 208 210 209
3 208 211 210
3 208 212 211
3 208 213 212
3 214 16 19
3 214 215 16
3 216 215 214
3 16 215 216
3 216 214 217
3 218 216 217
3 217 219 218
3 16 216 15
3 217 18 219
3 25 219 18
3 218 219 25
3 25 18 20
3 217 17 18
3 17 214 19
3 17 217 214
3 25 220 218
3 25 221 220
3 25 26 221
3 221 26 21
3 221 21 27
3 222 36 37
3 222 223 36
3 224 223 222
3 224 225 223
3 226 224 222
3 226 222 227
3 228 230 229
3 228 231 230
3 228 232 231
3 228 233 232
3 228 234 233
3 234 235 233
3 235 234 236
3 234 237 236
3 234 238 237
3 234 239 238
3 234 240 239
3 240 241 239
3 240 242 241
3 240 243 242
3 244 243 240
3 245 244 240
3 246 245 240
3 246 240 247
3 248 246 247
3 249 248 247
3 249 247 250
3 249 250 251
3 249 251 252
3 251 253 252
3 252 253 80
3 252 80 81
3 254 256 255
3 257 255 256
3 257 258 255
3 259 254 255
3 259 255 228
3 229 259 228
3 260 262 261
3 260 263 262
3 260 264 263
3 260 265 264
3 265 266 264
3 265 267 266
3 267 268 266
3 268 269 266
3 270 272 271
3 270 273 272
3 270 107 273
3 270 109 107
3 272 273 274
3 272 274 275
3 273 107 108
3 273 108 276
3 273 276 274
3 274 276 277
3 278 280 279
3 278 281 280
3 280 281 118
3 280 118 119
3 282 126 127
3 282 283 126
3 282 284 283
3 282 285 284
3 286 288 287
3 286 289 288
3 288 289 134
3 288 134 135
3 290 292 291
3 290 293 292
3 294 293 290
3 294 295 293
3 296 298 297
3 296 299 298
3 299 296 142
3 299 142 143
3 300 302 301
3 300 303 302
3 303 300 304
3 303 304 305
3 306 308 307
3 306 309 308
3 310 312 311
3 310 313 312
3 313 310 156
3 313 156 157
3 314 316 315
3 314 317 316
3 317 314 318
3 317 318 319
3 320 170 171
3 320 321 170
3 321 320 322
3 321 322 323
3 324 326 325
3 324 327 326
3 328 178 179
3 328 329 178
3 330 329 328
3 330 331 329
3 332 186 187
3 332 333 186
3 334 333 332
3 334 335 333
3 336 194 195
3 336 337 194
3 338 337 336
3 338 339 337
3 340 342 341
3 340 343 342
3 344 346 345
3 344 347 346
3 348 347 344
3 344 345 349
3 344 349 350
3 351 344 350
3 351 348 344
3 352 348 351
3 352 353 348
3 354 353 352
3 354 352 355
3 356 354 355
3 356 355 357
3 358 346 347
3 358 347 359
3 359 347 360
3 360 347 348
3 359 360 361
3 362 353 354
3 362 363 353
3 364 363 362
3 364 362 365
3 365 362 366
3 366 362 354
3 365 366 367
3 367 366 368
3 367 368 369
3 369 368 370
3 369 370 371
3 372 368 366
3 372 366 356
3 373 372 356
3 373 356 357
3 374 368 372
3 374 370 368
3 345 370 374
3 345 346 370
3 371 370 346
3 345 374 375
3 375 372 373
3 375 374 372
3 345 375 349
3 371 346 358
3 366 354 356
3 375 373 376
3 375 376 377
3 349 375 377
3 373 378 376
3 373 357 378
3 349 377 379
3 350 349 379
3 350 379 380
3 351 350 380
3 351 380 381
3 352 351 381
3 352 381 382
3 355 352 382
3 355 382 383
3 357 355 383
3 357 383 378
3 384 386 385
3 384 387 386
3 384 388 387
3 384 389 388
3 388 389 390
3 388 390 391
3 392 394 393
3 392 395 394
3 396 395 392
3 396 392 397
3 398 400 399
3 398 401 400
3 402 404 403
3 402 405 404
3 406 404 405
3 406 407 404
3 408 407 406
3 408 406 409
3 406 405 410
3 406 410 411
3 405 412 410
3 405 402 412
3 406 411 413
3 409 406 413
3 409 413 414
3 415 409 414
3 402 415 412
3 402 409 415
3 408 409 402
3 408 402 403
3 416 418 417
3 416 419 418
3 420 422 421
3 420 423 422
3 424 421 422
3 424 422 425
3 426 424 425
3 426 427 424
3 421 428 420
3 421 429 428
3 424 429 421
3 424 430 429
3 424 431 430
3 427 431 424
3 427 432 431
3 427 433 432
3 420 433 427
3 420 428 433
3 426 420 427
3 426 423 420
3 434 436 435
3 434 437 436
3 438 436 437
3 438 437 439
3 440 438 439
3 436 438 441
3 436 441 442
3 443 436 442
3 443 442 444
3 445 443 444
3 445 438 440
3 443 445 446
3 443 446 447
3 445 444 448
3 440 449 445
3 435 449 450
3 435 450 434
3 440 451 449
3 439 451 440
3 451 450 449
3 451 452 450
3 452 453 450
3 447 446 454
3 447 454 455
3 444 442 456
3 444 456 457
3 457 456 458
3 442 458 456
3 457 458 459
3 448 457 459
3 442 441 458
3 448 444 457
3 449 461 460
3 460 461 462
3 460 462 463
3 454 463 462
3 454 462 455
3 461 455 462
3 461 447 455
3 435 447 461
3 449 435 461
3 435 443 447
3 435 436 443
3 464 466 465
3 464 467 466
3 468 467 464
3 468 469 467
3 434 469 468
3 434 450 469
3 470 434 468
3 470 468 471
3 471 464 465
3 471 468 464
3 470 437 434
3 472 439 437
3 472 437 473
3 474 472 473
3 472 474 475
3 475 474 476
3 476 474 477
3 478 477 474
3 478 479 477
3 479 480 477
3 479 481 480
3 478 482 479
3 479 482 483
3 479 483 484
3 478 485 482
3 486 477 480
3 480 487 486
3 480 488 487
3 489 488 480
3 489 490 488
3 491 490 489
3 491 492 486
3 489 493 491
3 489 494 493
3 491 495 490
3 496 492 491
3 496 491 497
3 498 492 496
3 486 492 498
3 486 498 477
3 496 499 498
3 476 477 498
3 493 494 500
3 493 500 501
3 501 500 502
3 501 502 503
3 490 495 504
3 505 504 506
3 505 506 507
3 490 504 505
3 487 507 506
3 487 488 507
3 488 505 507
3 488 490 505
3 508 510 509
3 508 511 510
3 509 510 512
3 509 512 513
3 514 516 515
3 514 517 516
3 515 516 518
3 515 518 519
3 453 471 520
3 453 470 471
3 453 478 470
3 453 521 478
3 452 521 453
3 452 522 521
3 522 484 521
3 522 497 484
3 522 496 497
3 470 478 474
3 470 474 473
3 470 473 437
3 520 471 465
3 520 465 466
3 481 484 497
3 481 479 484
3 497 523 481
3 497 524 523
3 481 523 494
3 481 494 489
3 481 489 480
3 494 523 502
3 494 502 500
3 523 503 502
3 523 524 503
3 525 527 526
3 525 508 527
3 526 527 528
3 526 528 529
3 530 532 531
3 530 533 532
3 485 532 533
3 485 534 532
3 521 534 485
3 521 485 478
3 535 537 536
3 535 538 537
3 539 540 535
3 539 541 540
3 540 541 542
3 540 542 543
3 544 546 545
3 544 547 546
3 546 547 548
3 546 548 549
3 550 552 551
3 550 553 552
3 550 554 553
3 550 555 554
3 550 556 555
3 557 451 439
3 558 560 559
3 558 561 560
3 562 564 563
3 562 565 564
3 537 567 566
3 537 538 567
3 482 533 530
3 482 485 533
3 483 482 530
3 483 530 531
3 568 570 569
3 568 571 570
3 572 568 569
3 568 573 571
3 568 574 573
3 575 568 572
3 575 574 568
3 576 575 572
3 576 572 577
3 578 576 577
3 578 579 576
3 580 579 578
3 580 581 579
3 582 569 570
3 582 583 569
3 583 584 569
3 584 572 569
3 583 585 584
3 586 578 577
3 586 577 587
3 588 586 587
3 588 589 586
3 589 590 586
3 590 578 586
3 589 591 590
3 591 592 590
3 591 593 592
3 593 594 592
3 593 595 594
3 596 590 592
3 596 580 590
3 597 580 596
3 597 581 580
3 598 592 594
3 598 596 592
3 571 598 594
3 571 594 570
3 595 570 594
3 571 599 598
3 599 596 598
3 599 597 596
3 571 573 599
3 595 582 570
3 590 580 578
3 599 600 597
3 599 601 600
3 573 601 599
3 597 602 581
3 597 600 602
3 573 603 601
3 574 603 573
3 574 604 603
3 575 604 574
3 575 605 604
3 576 605 575
3 576 606 605
3 579 606 576
3 579 607 606
3 581 607 579
3 581 602 607
3 608 610 609
3 608 611 610
3 608 609 612
3 608 612 613
3 612 614 613
3 612 615 614
3 616 618 617
3 616 619 618
3 620 616 617
3 620 621 616
