mtllib Breloom.mtl
v -0.0490988 0.07904871 -0.146827
vt 0.742961 0.255439
vn -0.493041 -0.587373 -0.6417971
v -0.156976 0.07904871 0
vn -0.9336091 -0.330728 -0.137815
v -0.0520642 0.15091 -0.144156
vn -0.6591288 0.4459589 -0.6055328
v -0.166457 0.16268 0
vn -0.9236287 0.160621 -0.3480099
v -0.0784881 0.07904871 0.0999928
vn -0.3764679 -0.5467269 0.7479048
v -0.0832285 0.135915 0.124599
vn -0.166418 -0.04557882 0.9850013
v 0.0784881 0.07904871 0.0999928
vn 0.3764679 -0.5467269 0.7479048
v 0.0832285 0.135915 0.124599
vn 0.166418 -0.04557882 0.9850013
v 0.156976 0.07904871 0
vn 0.9336095 -0.3307272 -0.1378151
v 0.166457 0.16268 0
vn 0.923629 0.160621 -0.348009
v 0.0490988 0.07904871 -0.146827
vn 0.491626 -0.5897921 -0.6406631
v 0.0520642 0.15091 -0.144156
vn 0.6609578 0.4496168 -0.6008158
v 0.0306633 0.301408 -0.05031
vn 0.442417 0.569613 -0.692682
v -0.0306633 0.301408 -0.05031
vn -0.4424167 0.5696126 -0.6926825
v -0.0613266 0.301408 0
vn -0.6618943 0.6232042 -0.4165482
v -0.0306633 0.301408 0.0503099
vn 0.0215678 0.5550082 0.8315653
v 0.0306633 0.301408 0.05031
vn -0.02156791 0.5550082 0.8315653
v 0.0613266 0.301408 0
vn 0.6618948 0.6232039 -0.4165479
v 0 0.0553002 0
vn 0 -0.9980221 0.06286441
v -0.0784891 7.450581E-09 0
vt 0.450968 1.41148
vn -0.1797169 -0.9823844 -0.05121207
vt 0.454478 -0.38933
vt -1.54965 -0.386749
v 0.0784891 7.450581E-09 0
vn 0.1797159 -0.9823846 -0.05121198
vt 2.44859 -0.389722
vt 0.448073 0.509781
vt 0.448539 0.509781
v 0 0.309611 0
vt 0.509961 0.532949
vn 0 1 0
vt 0.448772 0.509781
vt 0.44784 0.509781
vt 1.38892 -1.0156
v -0.202477 0.225739 0.154159
vt 0.450174 2.03736
vn -0.6768918 0.2785439 0.6813448
vt -0.489978 -1.01056
v 0.202477 0.225739 0.154159
vn 0.6768918 0.2785439 0.6813448
vt 2.76215 -1.0156
vt -1.86321 -1.01056
v -0.0680156 0.231505 -0.242867
vt 0.797517 0.240369
vn -0.537745 0.656214 0.529352
v -0.0680156 0.181753 -0.284949
vn -0.5377451 -0.630878 -0.5593061
v -0.0474752 0.187927 -0.241798
vn 0.0136409 -0.6457371 0.763438
v -0.0115826 0.206629 -0.263908
vn 0.9998298 0.011916 -0.0140885
v -0.0474752 0.226714 -0.287654
vn 0.01362429 0.6457367 -0.7634386
v 0.0343153 0.256571 -0.221666
vn 0.8428793 0.4232411 0.3322971
v -0.0308478 0.256571 -0.221666
vn -0.8428793 0.4232411 0.3322971
v 0.00173375 0.222187 -0.21282
vn 0 -0.6561519 0.7546289
v 0.00173375 0.213484 -0.25811
vn 0 -0.7514631 -0.6597751
v 0.00173375 0.260973 -0.258676
vn 0 0.6353343 -0.7722373
v 0.0708705 0.182581 -0.284249
vn 0.5377443 -0.6308783 -0.5593064
v 0.0708705 0.232333 -0.242167
vn 0.5377439 0.656215 0.5293519
v 0.0503302 0.188755 -0.241097
vn -0.0136419 -0.6457371 0.763438
v 0.0144376 0.207457 -0.263208
vn -0.9998298 0.011916 -0.0140877
v 0.0503302 0.227542 -0.286953
vn -0.01362419 0.6457367 -0.7634386
v -0.0314428 0.156539 -0.306275
vn -0.8428791 -0.397905 -0.362252
v 0.0337204 0.156539 -0.306275
vn 0.8428791 -0.397905 -0.362252
v 0.00113881 0.15352 -0.2709
vn 0 -0.6353211 0.7722481
v 0.00113881 0.199626 -0.269831
vn 0 0.7752951 0.6315991
v 0.00113881 0.192307 -0.316756
vn 0 0.6561391 -0.75464
v 0.135106 0.490038 -0.254043
vt 0.788266 0.275922
vn 0.4898569 -0.6130599 -0.6198369
v -0.135106 0.490038 -0.254043
vn -0.4898569 -0.6130599 -0.6198369
v 0.0960369 0.637357 -0.219747
vn 0.4197901 0.4685681 -0.7773161
v -0.0960368 0.637357 -0.219747
vn -0.4197901 0.4685681 -0.7773161
v -0.270211 0.553949 -7.41958E-06
vn -0.9043995 -0.4122068 0.1102139
v -0.192074 0.682787 -0.0345812
vn -0.767431 0.622445 -0.153662
v -0.135106 0.61786 0.258161
vn -0.463376 -0.173511 0.869009
v -0.0960369 0.728217 0.134711
vn -0.394874 0.819275 0.415768
v 0.135106 0.61786 0.258161
vn 0.463376 -0.173511 0.869009
v 0.0960369 0.728217 0.134711
vn 0.394874 0.819275 0.415768
v 0.270211 0.553949 -7.37668E-06
vn 0.9043995 -0.4122068 0.1102139
v 0.192074 0.682787 -0.0345811
vn 0.767431 0.622445 -0.153662
v 0 0.749645 -0.0685164
vn 0 0.965723 -0.259575
o merged_0_0_node
g polygon_0
usemtl skin_mat_id
f 1/1/1 2/1/2 3/1/3
f 3/1/3 2/1/2 4/1/4
f 5/1/5 6/1/6 2/1/2
f 2/1/2 6/1/6 4/1/4
f 5/1/5 7/1/7 6/1/6
f 6/1/6 7/1/7 8/1/8
f 7/1/7 9/1/9 8/1/8
f 8/1/8 9/1/9 10/1/10
f 11/1/11 12/1/12 9/1/9
f 9/1/9 12/1/12 10/1/10
f 12/1/12 3/1/3 13/1/13
f 13/1/13 3/1/3 14/1/14
f 3/1/3 4/1/4 14/1/14
f 14/1/14 4/1/4 15/1/15
f 6/1/6 8/1/8 16/1/16
f 16/1/16 8/1/8 17/1/17
f 12/1/12 13/1/13 10/1/10
f 10/1/10 13/1/13 18/1/18
f 1/1/1 11/1/11 19/1/19
f 20/2/20 1/3/1 19/4/19
f 5/3/5 20/2/20 19/4/19
f 7/1/7 5/1/5 19/1/19
f 21/2/21 7/3/7 19/4/19
f 11/3/11 9/5/9 21/2/21
f 13/6/13 14/7/14 22/8/22
f 14/7/14 15/9/15 22/8/22
f 15/9/15 16/7/16 22/8/22
f 16/7/16 17/6/17 22/8/22
f 17/6/17 18/10/18 22/8/22
f 18/10/18 13/6/13 22/8/22
f 11/3/11 21/2/21 19/4/19
f 9/5/9 7/3/7 21/2/21
f 5/3/5 2/5/2 20/2/20
f 2/5/2 1/3/1 20/2/20
f 15/11/15 23/12/23 16/13/16
f 17/11/17 24/12/24 18/13/18
f 4/14/4 6/15/6 23/12/23
f 23/12/23 6/15/6 16/13/16
f 4/14/4 23/12/23 15/11/15
f 8/14/8 10/15/10 24/12/24
f 24/12/24 10/15/10 18/13/18
f 8/14/8 24/12/24 17/11/17
f 25/16/25 26/16/26 27/16/27
f 28/16/28 25/16/25 27/16/27
f 26/16/26 28/16/28 27/16/27
f 29/16/29 26/16/26 25/16/25
f 29/16/29 25/16/25 28/16/28
f 29/16/29 28/16/28 26/16/26
f 30/16/30 31/16/31 32/16/32
f 33/16/33 30/16/30 32/16/32
f 31/16/31 33/16/33 32/16/32
f 34/16/34 31/16/31 30/16/30
f 34/16/34 30/16/30 33/16/33
f 34/16/34 33/16/33 31/16/31
f 35/16/35 36/16/36 37/16/37
f 38/16/38 35/16/35 37/16/37
f 36/16/36 38/16/38 37/16/37
f 39/16/39 36/16/36 35/16/35
f 39/16/39 35/16/35 38/16/38
f 39/16/39 38/16/38 36/16/36
f 40/16/40 41/16/41 42/16/42
f 43/16/43 40/16/40 42/16/42
f 41/16/41 43/16/43 42/16/42
f 44/16/44 41/16/41 40/16/40
f 44/16/44 40/16/40 43/16/43
f 44/16/44 43/16/43 41/16/41
f 45/17/45 46/17/46 47/17/47
f 47/17/47 46/17/46 48/17/48
f 46/17/46 49/17/49 48/17/48
f 48/17/48 49/17/49 50/17/50
f 51/17/51 52/17/52 49/17/49
f 49/17/49 52/17/52 50/17/50
f 51/17/51 53/17/53 52/17/52
f 52/17/52 53/17/53 54/17/54
f 53/17/53 55/17/55 54/17/54
f 54/17/54 55/17/55 56/17/56
f 45/17/45 47/17/47 55/17/55
f 55/17/55 47/17/47 56/17/56
f 47/17/47 48/17/48 57/17/57
f 48/17/48 50/17/50 57/17/57
f 50/17/50 52/17/52 57/17/57
f 52/17/52 54/17/54 57/17/57
f 54/17/54 56/17/56 57/17/57
f 56/17/56 47/17/47 57/17/57
v 0 0.601611 -0.0127976
vt 0.5 0.493029
vn 0 -0.9701391 0.242549
vt 0.19969 1.02525
vt 0.80031 1.02525
vt -0.0312402 0.484432
vt 1.03124 0.484432
vt 0.19969 -0.0252479
vt 0.80031 -0.0252479
v 0 0.334816 0
vt 0.950004 0.431191
v 0.102026 0.295905 -0.0528612
vn 0.2847852 0.9471675 -0.1475511
v 0.00523389 0.295905 -0.114788
vn 0.0146094 0.9471673 -0.3204071
v 0.0967922 0.295905 0.0619266
vn 0.2701758 0.9471675 0.1728549
v -0.0967921 0.295905 -0.0619266
vn -0.2701761 0.9471672 -0.172856
v -0.00523386 0.295905 0.114788
vn -0.01460939 0.9471674 0.3204068
v -0.102026 0.295905 0.0528612
vn -0.2847852 0.9471675 0.1475511
v 0.10726 0.256994 -0.167649
vn 0.1962599 0.9313336 -0.3067569
v 0.198818 0.256994 0.00906541
vn 0.3637889 0.9313337 0.0165871
v -0.198818 0.256994 -0.00906541
vn -0.3637889 0.9313337 -0.0165877
v -0.0915583 0.256994 -0.176714
vn -0.167529 0.9313338 -0.3233439
v 0.0915583 0.256994 0.176714
vn 0.167529 0.9313338 0.3233439
v -0.10726 0.256994 0.167649
vn -0.1962599 0.9313336 0.3067569
vn 0 -1 0
vn -0.0146094 -0.9471673 0.3204071
vn -0.2847852 -0.9471675 0.1475511
vn 0.2701761 -0.9471674 0.1728551
vn -0.2701758 -0.9471675 -0.1728549
vn 0.2847852 -0.9471675 -0.1475511
vn 0.01460939 -0.9471674 -0.3204068
vn -0.1962599 -0.9313336 0.3067569
vn 0.167529 -0.9313338 0.3233439
vn -0.167529 -0.9313338 -0.3233439
vn -0.3637889 -0.9313337 -0.0165871
vn 0.3637889 -0.9313337 0.0165875
vn 0.1962599 -0.9313336 -0.3067569
v -0.0876514 0.321675 -0.00854945
vt 0.933866 0.960726
vn -0.3996318 -0.9078066 0.1272069
v 0 0.325751 -0.0672138
vn 0 -0.8571942 -0.5149932
v 0 0.29544 -0.00854945
vn 0 -0.9930455 0.1177309
v -0.120829 0.372283 -0.106349
vn -0.5442659 -0.5891919 -0.5971829
v 0 0.344873 0.0960729
vn 0 -0.8832577 0.4688878
v -0.147179 0.372283 -0.00854945
vn -0.8086631 -0.587685 0.0262742
v -0.146551 0.417854 0.125044
vn -0.7400742 -0.2873121 0.6080641
v 0.0876514 0.321675 -0.00854945
vn 0.3996318 -0.9078066 0.1272069
v 0 0.392173 -0.151357
vn 0 -0.4373992 -0.8992674
v 0.120829 0.372283 -0.106349
vn 0.5442652 -0.5891923 -0.5971833
v -0.18066 0.453291 -0.00854945
vn -0.9968909 -0.06841649 -0.039086
v 0 0.390842 0.182573
vn 0 -0.6447378 0.7644038
v 0 0.404005 0.128263
vn 0 -0.997853 -0.0654937
v 0 0.386374 0.238026
vn -0.000476823 -0.183964 0.9829329
v -0.135486 0.565984 0.10763
vn -0.6844577 0.2109039 0.6978806
v 0.129503 0.461743 -0.13966
vn 0.6258313 -0.09454204 -0.7742074
v -0.129503 0.461743 -0.13966
vn -0.6258313 -0.09454215 -0.7742074
v 0 0.569054 -0.189733
vn 0 -0.08140551 -0.9966811
v 0.146551 0.417854 0.125044
vn 0.7398429 -0.2885909 0.6077399
v 0.147179 0.372283 -0.00854945
vn 0.8086631 -0.587685 0.026274
v 0.000269641 0.61536 0.159223
vn 0.0003127851 0.3234262 0.9462534
v -0.127189 0.61536 0.0970756
vn -0.672739 0.261029 0.692305
v -0.175436 0.572029 -0.0081905
vn -0.9966586 0.05455008 -0.06079338
v 0.117353 0.572029 -0.12313
vn 0.744527 0.149481 -0.650642
v 0.18066 0.453291 -0.00854945
vn 0.9968181 -0.0690828 -0.0397663
v -0.117353 0.572029 -0.12313
vn -0.744527 0.149481 -0.650642
v 0.135891 0.565984 0.10763
vn 0.685234 0.209465 0.697552
v 0.175436 0.572029 -0.0081905
vn 0.9965557 0.05437679 -0.06260879
v 0.127729 0.61536 0.0970756
vn 0.6741439 0.259273 0.6915979
v 0 0.39372 0.131788
vt 0.958124 0.96657
vn 0 0.9769961 0.213257
vt 0.924799 0.948994
v 0.00237024 0.238615 -0.311725
vn 0 -0.7186303 -0.6953923
vn 0.9542097 -0.02830879 -0.297796
vn -0.9464723 -0.02710321 -0.3216451
vn 0 0.8859819 0.4637199
o merged_1_0_node
g polygon_0
usemtl mat_kasa_mat_id
f 58/18/58 46/19/46 45/20/45
f 58/18/58 49/21/49 46/19/46
f 58/18/58 45/20/45 55/22/55
f 58/18/58 51/23/51 49/21/49
f 58/18/58 55/22/55 53/24/53
f 58/18/58 53/24/53 51/23/51
f 59/25/22 60/25/59 61/25/60
f 59/25/22 62/25/61 60/25/59
f 59/25/22 61/25/60 63/25/62
f 59/25/22 64/25/63 62/25/61
f 59/25/22 63/25/62 65/25/64
f 59/25/22 65/25/64 64/25/63
f 60/25/59 66/25/65 61/25/60
f 60/25/59 62/25/61 67/25/66
f 63/25/62 68/25/67 65/25/64
f 63/25/62 61/25/60 69/25/68
f 64/25/63 70/25/69 62/25/61
f 64/25/63 65/25/64 71/25/70
f 59/25/71 61/25/72 60/25/73
f 59/25/71 63/25/74 61/25/72
f 59/25/71 60/25/73 62/25/75
f 59/25/71 65/25/76 63/25/74
f 59/25/71 62/25/75 64/25/77
f 59/25/71 64/25/77 65/25/76
f 61/25/72 66/25/78 60/25/73
f 61/25/72 63/25/74 69/25/79
f 62/25/75 70/25/80 64/25/77
f 62/25/75 60/25/73 67/25/81
f 65/25/76 68/25/82 63/25/74
f 65/25/76 64/25/77 71/25/83
f 72/26/84 73/26/85 74/26/86
f 72/26/84 75/26/87 73/26/85
f 72/26/84 74/26/86 76/26/88
f 72/26/84 77/26/89 75/26/87
f 72/26/84 76/26/88 78/26/90
f 72/26/84 78/26/90 77/26/89
f 73/26/85 79/26/91 74/26/86
f 73/26/85 75/26/87 80/26/92
f 73/26/85 81/26/93 79/26/91
f 73/26/85 80/26/92 81/26/93
f 74/26/86 79/26/91 76/26/88
f 78/26/90 82/26/94 77/26/89
f 78/26/90 76/26/88 83/26/95
f 78/26/90 84/26/96 85/26/97
f 78/26/90 85/26/97 86/26/98
f 77/26/89 82/26/94 75/26/87
f 80/26/92 87/26/99 81/26/93
f 80/26/92 75/26/87 88/26/100
f 80/26/92 89/26/101 87/26/99
f 80/26/92 88/26/100 89/26/101
f 75/26/87 82/26/94 88/26/100
f 79/26/91 90/26/102 76/26/88
f 79/26/91 81/26/93 91/26/103
f 79/26/91 91/26/103 90/26/102
f 76/26/88 90/26/102 83/26/95
f 84/26/96 90/26/102 85/26/97
f 86/26/98 85/26/97 92/26/104
f 86/26/98 92/26/104 93/26/105
f 86/26/98 93/26/105 94/26/106
f 87/26/99 89/26/101 95/26/107
f 87/26/99 96/26/108 81/26/93
f 87/26/99 95/26/107 96/26/108
f 91/26/103 96/26/108 90/26/102
f 91/26/103 81/26/93 96/26/108
f 82/26/94 97/26/109 88/26/100
f 82/26/94 94/26/106 97/26/109
f 97/26/109 89/26/101 88/26/100
f 85/26/97 98/26/110 92/26/104
f 85/26/97 90/26/102 98/26/110
f 95/26/107 99/26/111 96/26/108
f 92/26/104 98/26/110 100/26/112
f 100/26/112 98/26/110 99/26/111
f 101/27/113 78/27/90 83/27/95
f 101/27/113 84/27/96 78/27/90
f 101/27/113 83/27/95 90/27/102
f 101/27/113 90/27/102 84/27/96
f 11/28/11 1/28/1 102/28/114
f 11/28/11 102/28/115 12/28/12
f 1/28/1 3/28/3 102/28/116
f 12/28/12 102/28/117 3/28/3
v 0.192422 0.627471 -0.0186848
vt 0.478487 1.40592
vn 0.535681 -0.0413594 -0.843407
v 0.143121 0.692733 0.0201354
vt -0.603138 0.376407
vn -0.2595969 0.9147685 -0.3095288
v 0.241135 0.670814 0.0101291
vt 0.417331 1.2766
vn 0.7336792 0.1943861 -0.6510982
v 0.206575 0.716562 0.0373422
vt -0.340893 0.554902
vn 0.10622 0.9774098 -0.182722
v 0.152738 0.654314 0.0975866
vt 0.483088 -0.634499
vn -0.07439456 0.2884598 0.9545975
v 0.213316 0.689631 0.0916357
vt 0.420555 -0.153747
vn 0.243811 0.471084 0.847724
v 0.20204 0.589052 0.0587664
vt 1.56471 0.395017
vn 0.6955119 -0.6190689 0.364715
v 0.247877 0.643882 0.0644226
vt 1.17878 0.567948
vn 0.8712401 -0.31185 0.379065
v -0.19921 0.62031 -0.0126163
vt 0.346237 1.43207
vn -0.6111711 -0.139311 -0.7791421
v -0.201955 0.594209 0.0688568
vt -0.710708 0.40802
vn -0.651364 -0.569402 0.501504
v -0.245576 0.66772 0.0152775
vt 0.421361 1.28766
vn -0.7861856 0.1100179 -0.6081187
v -0.247501 0.649423 0.0723904
vt -0.319561 0.569794
vn -0.8221203 -0.2565191 0.5082482
v -0.150414 0.666096 0.0945048
vt 0.364346 -0.616031
vn 0.1615609 0.4025508 0.9010277
v -0.21137 0.699816 0.0903697
vt 0.434056 -0.148069
vn -0.181066 0.5711311 0.80064
v -0.147668 0.692197 0.0130317
vt 1.42129 0.40802
vn 0.1998571 0.8528612 -0.4823742
v -0.209446 0.718113 0.0332568
vt 1.17498 0.569794
vn -0.144751 0.9375066 -0.3164309
o merged_2_0_node
g polygon_0
usemtl head_pink_mat_id
f 103/29/118 104/30/119 105/31/120
f 105/31/120 104/30/119 106/32/121
f 107/33/122 108/34/123 104/30/119
f 104/30/119 108/34/123 106/32/121
f 109/35/124 110/36/125 107/33/122
f 107/33/122 110/36/125 108/34/123
f 109/35/124 103/29/118 110/36/125
f 110/36/125 103/29/118 105/31/120
f 108/34/123 110/36/125 106/32/121
f 106/32/121 110/36/125 105/31/120
f 111/37/126 112/38/127 113/39/128
f 113/39/128 112/38/127 114/40/129
f 112/38/127 115/41/130 114/40/129
f 114/40/129 115/41/130 116/42/131
f 117/43/132 118/44/133 115/41/130
f 115/41/130 118/44/133 116/42/131
f 111/37/126 113/39/128 117/43/132
f 117/43/132 113/39/128 118/44/133
f 116/42/131 118/44/133 114/40/129
f 114/40/129 118/44/133 113/39/128
vt 0.845917 1.00372
vt 0.829017 0.761795
vt 0.201432 0.981377
vt 0.0853487 0.702919
o merged_3_0_node
g polygon_0
usemtl TEX_ANIM_EYE_mat_id
f 94/45/106 82/46/94 86/47/98
f 86/47/98 82/46/94 78/48/90
f 99/45/111 98/47/110 96/46/108
f 96/46/108 98/47/110 90/48/102
