mtllib Carracosta.mtl
v 0 0.782467 0.359883
vt 0.36894 0.491269
vn 0 0.8707586 0.4917108
v 0.147929 0.699959 0.336014
vt 0.470359 0.398746
vn 0.6325574 0.6597914 0.4056433
v 0.14426 0.743949 0.261414
vt 0.574893 0.430441
vn 0.5686247 0.8117506 0.1331429
v 0.0935116 0.648847 0.469569
vt 0.288102 0.362352
vn 0.4756617 0.6439486 0.5992296
v 0 0.806198 0.215716
vt 0.592793 0.5192
vn 0 0.9770167 -0.2131629
v 0 0.62589 0.514494
vt 0.148138 0.363463
vn 0 0.7071007 0.7071128
v -0.14426 0.743949 0.261414
vn -0.5686247 0.8117506 0.1331429
v -0.0935116 0.648847 0.469569
vn -0.475662 0.643948 0.59923
v -0.147929 0.699959 0.336014
vn -0.6325574 0.6597914 0.4056433
v 0.218011 0.667532 0.232951
vt 0.613439 0.368078
vn 0.8971586 0.4353128 0.07489447
v 0.189593 0.654633 0.328893
vt 0.496488 0.362427
vn 0.8971239 0.223958 0.3808039
v -0.158709 0.711841 0.124982
vt 0.75465 0.402455
vn -0.6419452 0.5656612 -0.5176232
v 0.158709 0.711841 0.124982
vn 0.6419452 0.5656612 -0.5176232
v -0.0920291 0.606905 0.505513
vt 0.253519 0.333071
vn -0.6807477 0.1705139 0.7123957
v 0.0920291 0.606905 0.505513
vn 0.6807472 0.170514 0.7123962
v 0 0.574948 0.573077
vt 0.102134 0.316366
vn 0 0.1838761 0.9829494
v -0.218011 0.667532 0.232951
vn -0.8971586 0.4353128 0.07489447
v -0.189593 0.654633 0.328893
vn -0.8971239 0.223958 0.3808039
v 0.21812 0.458047 0.212845
vt 0.649333 0.241886
vn 0.9299451 -0.172717 -0.324609
v 0.0534418 0.494555 0.516153
vt 0.20278 0.2592
vn 0.6181697 -0.4943758 0.6111127
v -0.0534418 0.494555 0.516153
vn -0.5286611 -0.6556581 0.5391011
v 0 0.493091 0.558419
vt 0.108292 0.260017
vn 0 -0.322584 0.9465409
v -0.21812 0.458047 0.212845
vn -0.9299451 -0.172717 -0.324609
v -0.227079 0.436261 0.279125
vt 0.567326 0.225219
vn -0.8746489 -0.392745 0.284149
v -0.166123 0.502137 0.355794
vt 0.45458 0.26411
vn -0.8651078 -0.170819 0.4716029
v 0.127031 0.573748 0.0546453
vt 0.867854 0.319449
vn 0.3803651 -0.159394 -0.9109972
v 0.227079 0.436261 0.279125
vn 0.8746489 -0.392745 0.284149
v 0.166123 0.502137 0.355794
vn 0.8651078 -0.170819 0.4716029
v 0.0960053 0.493029 0.494585
vt 0.267752 0.25865
vn 0.5608271 -0.6309651 0.536056
v -0.0960053 0.493029 0.494585
vn -0.662097 -0.4341301 0.6108671
v 0 0.423945 0.52287
vt 0.134955 0.207789
vn 0 -0.8807324 0.4736142
v -0.0969568 0.400356 0.391603
vt 0.386421 0.159188
vn -0.4582361 -0.7994061 0.388548
v -0.146153 0.384629 0.209725
vt 0.660812 0.175699
vn -0.427157 -0.830259 -0.35806
v -0.127031 0.573748 0.0546453
vn -0.3803651 -0.159394 -0.9109972
v 0.146153 0.384629 0.209725
vn 0.427157 -0.830259 -0.35806
v 0.0969568 0.400356 0.391603
vn 0.4582357 -0.7994065 0.3885477
v 0.158917 0.515083 0.396255
vt 0.407326 0.273885
vn 0.9036826 -0.1473199 0.4020628
v 0.098627 0.34774 0.394618
vt 0.37691 0.168386
vn 0.873856 -0.318425 0.367398
v -0.158917 0.515083 0.396255
vn -0.9036826 -0.1473199 0.4020628
v -0.098627 0.34774 0.394618
vn -0.8738563 -0.3184251 0.3673972
v 0 0.351571 0.236438
vt 0.640028 0.137611
vn 0 -0.9969897 -0.07753487
v 0 0.388582 0.468262
vt 0.263973 0.120989
vn 0 -0.779965 0.6258231
vt 0.202688 0.195051
vn -0.380965 -0.5394161 0.7509301
v 0 0.499607 0.520539
vt 0.10185 0.156942
vn 0 -0.4159949 0.9093669
vn 0.380965 -0.5394161 0.7509301
v 0 0.469983 -0.100862
vt 0.805323 0.909549
vn 0 0.7056518 -0.7085588
v -0.165137 0.487224 -0.0281815
vt 0.598901 0.937348
vn -0.201802 0.710952 -0.673664
v -0.0587449 0.521593 -0.0134208
vt 0.731892 0.960726
vn -0.110397 0.8004391 -0.5891601
v -0.20386 0.413299 -0.0720564
vt 0.550499 0.884079
vn -0.299558 0.5144441 -0.8035001
v 0.0587449 0.521593 -0.0134208
vn -0.1635311 0.8667765 -0.4711222
v 0 0.352202 -0.184533
vt 0.805323 0.821288
vn 0 0.4168831 -0.9089602
v 0.165137 0.487224 -0.0281815
vn 0.5167632 0.5589572 -0.6484773
v 0.20386 0.413299 -0.0720564
vn 0.299558 0.5144441 -0.8035001
v -0.127814 0.557924 0.0412612
vt 0.649846 0.988645
vn -0.1543319 0.7326077 -0.6629236
v -0.178119 0.538325 0.0328613
vt 0.592098 0.974778
v -0.201222 0.258976 -0.142617
vt 0.553795 0.778053
vn -0.3346152 0.2352621 -0.9125155
v 0.127814 0.557924 0.0412612
vn 0.154332 0.7326081 -0.6629231
v 0.090893 0.452222 0.133466
vt 0.691707 0.957041
vn -0.6994441 0.5926901 0.3993701
v 0.127814 0.543359 0.0752441
vt 0.641349 0.996614
v 0.201222 0.258976 -0.142617
vn 0.3346152 0.2352621 -0.9125155
v 0 0.214195 -0.219387
vt 0.805323 0.733427
vn 0 0.06279802 -0.9980263
v -0.105738 0.136541 -0.187961
vt 0.673151 0.696555
vn -0.265934 -0.0278498 -0.9635889
v 0.178119 0.538325 0.0328613
v 0 0.100721 -0.203313
vt 0.805323 0.672198
vn 0 -0.140253 -0.9901157
v 0.105738 0.136541 -0.187961
vn 0.265934 -0.0278498 -0.9635889
v 0.178119 0.52376 0.0668442
vt 0.581439 0.980856
vn 0.9155627 -0.4011179 0.02914599
v 0.133288 0.441875 0.113757
vt 0.638713 0.946244
v -0.219386 0.219168 0.0275372
vt 0.365351 0.746632
vn -0.9310125 0.2014259 0.3043738
v -0.202903 0.245484 -0.107724
vt 0.525342 0.765578
vn -0.9596775 0.1635549 -0.2286239
v -0.250463 0.13384 -0.00115831
vt 0.405249 0.702342
vn -0.976561 -0.158042 -0.146121
v -0.160933 0.450603 0.0739206
vt 0.289783 0.885283
vn -0.8506771 0.494253 0.17906
v -0.168027 0.0653746 0.167996
vt 0.210816 0.649737
vn -0.5722903 -0.4956203 0.6533333
v -0.134179 0.401981 0.170119
vt 0.167913 0.855116
vn -0.5522802 0.2974981 0.7787693
v -0.136223 0.174967 0.171092
vt 0.171799 0.715518
vn -0.485822 -0.00601553 0.8740371
v -0.107178 0.115558 -0.156279
vt 0.630284 0.681192
vn -0.5553488 -0.5085508 -0.6579998
v -0.143921 0.47558 -0.00846282
vt 0.388798 0.905611
vn -0.4204509 0.9042817 -0.07413229
v 0 0.0638091 0.176327
vt 0 0.653531
vn 0 -0.5109918 0.8595856
v -0.16951 -0.002545813 -0.0161127
vt 0.44093 0.618178
vn -0.417581 -0.878267 -0.232966
v 0 0.0300868 -0.0237317
vt 0 0.547913
vn 0 -0.9993722 -0.03542691
vt 0.382077 0.517293
v 0 0.165081 0.20335
vt 0 0.717356
vn 0 -0.07171044 0.9974255
v 0 0.402031 0.194685
vt 0 0.858122
vn 0 0.4447379 0.8956608
v -0.0804663 0.492574 0.102551
vt 0.100583 0.927744
vn -0.2602601 0.8626044 0.4337952
vt 0.201166 0.933857
v 0.168027 0.0653746 0.167996
vn 0.5722899 -0.4956199 0.6533339
v 0.16951 -0.002545813 -0.0161127
vn 0.417581 -0.878267 -0.232966
vt 0.620186 0.565658
v 0.134179 0.401982 0.170119
vn 0.552281 0.297497 0.778769
v 0.0804663 0.492575 0.102552
vn 0.2200379 0.9149417 0.3383269
vt -0.100583 0.927744
vt 0.179902 0.987332
v 0.136223 0.174967 0.171092
vn 0.485822 -0.00601534 0.8740371
v 0.107179 0.115558 -0.156279
vn 0.5553492 -0.5085512 -0.6579992
v 0.250463 0.13384 -0.00115831
vn 0.976561 -0.158042 -0.146121
vt -0.179902 0.987332
v 0.160933 0.450603 0.0739206
vn 0.8506771 0.4942541 0.179057
v 0.143921 0.475579 -0.00846279
vn 0.5622019 0.8260088 -0.04047939
v 0.219386 0.219168 0.0275373
vn 0.9310123 0.2014261 0.3043741
v 0.202903 0.245484 -0.107724
vn 0.9596772 0.163555 -0.2286251
v 0.358215 0.149752 0.197458
vt 0.822836 0.085618
vn 0.9894038 0.09692027 0.108104
v 0.327429 0.0174254 0.110234
vt 0.937993 0.0201104
vn 0.9791027 -0.119166 -0.164795
v 0.324414 0.13318 0.12219
vt 0.916337 0.0869256
vn 0.8722123 0.2438901 -0.4239852
v 0.329196 0.06370179 0.219278
vt 0.799333 0.042522
vn -0.2846061 -0.5894512 0.7560071
v 0.310163 0.252905 0.187349
vt 0.827595 0.156938
v 0.315133 0.151003 0.249781
vt 0.755703 0.0950531
vn 0.09571218 0.107807 0.9895539
v 0.200472 0.425593 0.0859337
vt 0.939813 0.286367
vn 0.8420769 0.5393049 0.007531989
v 0.255343 0.292742 0.210625
vt 0.794029 0.192396
vn -0.4778062 0.2437391 0.8439742
v -0.358215 0.149752 0.197458
vn -0.9894038 0.09692027 0.108104
v -0.324414 0.13318 0.12219
vn -0.8722123 0.2438901 -0.4239852
v -0.327429 0.0174254 0.110234
vn -0.9791027 -0.119166 -0.164795
v -0.310163 0.252905 0.187349
vn -0.850677 0.494253 0.17906
v -0.329196 0.06370179 0.219278
vn 0.2846061 -0.5894512 0.7560071
v -0.315133 0.151003 0.249781
vn -0.09571198 0.107807 0.9895539
v -0.200472 0.425593 0.0859337
vn -0.8420769 0.5393049 0.007531709
v -0.255343 0.292742 0.210625
vn 0.4778062 0.2437391 0.8439742
v 0 0.422654 0.119592
vt 0.342665 0.973376
vn 0 -0.6867529 -0.7268909
vt 0.331247 0.971891
vt 0.333965 0.979278
vt 0.342665 0.970599
vt 0.351365 0.979278
vt 0.354083 0.971891
v 0 0.716899 0.086659
vt 0.342665 0.98487
vn 0 0.5546762 -0.8320663
vt 0.330266 0.984672
vt 0.355064 0.984672
vt 0.342665 0.988358
v 0.0535893 0.0716232 -0.182953
vt 0.290111 0.970119
vn 0.800649 -0.312202 -0.511362
vt 0.287829 0.971771
vt 0.277884 0.968133
vt 0.291565 0.9713
v 0 0.050641 -0.313582
vt 0.300395 0.9696
vn 0 -0.2521341 -0.9676923
v -0.0535892 0.0716232 -0.182953
vn -0.8006492 -0.3122011 -0.5113622
v -0.092206 0.506094 0.020582
vt 0.884743 0.637626
vn -0.181333 0.93606 0.301513
vt 0.793578 0.621721
vn -0.6827142 0.7175962 0.137684
v -0.169003 0.475146 0.0073175
vt 0.820827 0.623366
vt 0.926569 0.645098
vt 1.07343 0.645098
vn 0.111202 0.7521448 -0.6495478
v 0.092206 0.506094 0.020582
vt 1.11526 0.637626
vn 0.181333 0.93606 0.301513
v -0.20587 0.398571 -0.0376932
vt 0.781742 0.568343
vn -0.9771218 0.2121489 0.015032
vt 1.20642 0.621721
vn 0.5045209 0.6323798 -0.5878388
v 0.169003 0.475146 0.0073175
vt 1.17917 0.623366
vn 0.6827142 0.7175962 0.137684
vt 0.745176 0.568499
v 0.20587 0.398571 -0.0376932
vt 1.21826 0.568343
vn 0.9771218 0.2121489 0.0150318
vt 0.786428 0.463178
vn -0.9478241 -0.260897 -0.1832
vt 0.748472 0.462493
vt 1.25482 0.568499
vt 1.21357 0.463178
vn 0.9478241 -0.260897 -0.1832
vt 1.25153 0.462493
vn 0 -0.461973 0.886894
vn 0 -0.4512438 0.8924007
vn 0 -0.3939421 0.9191353
vt 0.306542 0.931198
vn -0.9703082 -0.2415631 -0.0122179
vt 0.307896 0.927022
vn -0.9991744 -0.02896671 0.02848791
vt 0.29923 0.928423
vt 0.296503 0.931706
vt 0.298898 0.93779
vt 0.30801 0.943663
vn -0.9200933 -0.3915082 -0.0122374
vn 0.9703082 -0.2415631 -0.012218
vn 0.9991744 -0.02896701 0.02848771
vn 0.9200933 -0.3915082 -0.0122373
vn -0.6024526 -0.6700375 -0.4337057
vn -0.340103 -0.7768349 -0.5299599
v -0.107179 0.115558 -0.156279
vt 0.668996 0.683035
vn 0.6024526 -0.6700375 -0.4337057
vn 0.340103 -0.7768349 -0.5299599
vn 0.390258 0.8462529 0.362705
vt 0.590086 0.976231
vn 0.372967 0.346723 0.860627
vt 0.646592 0.992025
vn -0.390258 0.8462529 0.362705
v -0.178119 0.52376 0.0668442
v -0.127814 0.543359 0.0752441
vn -0.372967 0.346723 0.860627
v -0.133288 0.441875 0.113757
v -0.090893 0.452222 0.133466
vn -0.915563 -0.401117 0.0291459
vn 0.6994441 0.5926901 0.3993701
vt 0.430949 0.96483
vn -0.8354008 -0.05784648 -0.5465889
vt 0.430713 0.962775
vt 0.421639 0.96845
vn -0.9993609 -0.0306703 0.0183655
vt 0.433746 0.968806
vn -0.381728 -0.0649619 -0.921989
vn 0.8354012 -0.05784572 -0.5465882
vn 0.38173 -0.06496131 -0.9219882
vn 0.9993609 -0.0306696 0.0183653
o polySurface4_0_0_node
g polygon_0
usemtl lambert2_mat_id
f 1/1/1 2/2/2 3/3/3
f 1/1/1 4/4/4 2/2/2
f 1/1/1 3/3/3 5/5/5
f 1/1/1 6/6/6 4/4/4
f 1/1/1 5/5/5 7/3/7
f 1/1/1 8/4/8 6/6/6
f 1/1/1 7/3/7 9/2/9
f 1/1/1 9/2/9 8/4/8
f 2/2/2 10/7/10 3/3/3
f 2/2/2 4/4/4 11/8/11
f 2/2/2 11/8/11 10/7/10
f 5/5/5 12/9/12 7/3/7
f 5/5/5 3/3/3 13/9/13
f 3/3/3 10/7/10 13/9/13
f 6/6/6 8/4/8 14/10/14
f 6/6/6 15/10/15 4/4/4
f 6/6/6 14/10/14 16/11/16
f 6/6/6 16/11/16 15/10/15
f 4/4/4 15/10/15 11/8/11
f 9/2/9 7/3/7 17/7/17
f 9/2/9 18/8/18 8/4/8
f 9/2/9 17/7/17 18/8/18
f 8/4/8 18/8/18 14/10/14
f 7/3/7 12/9/12 17/7/17
f 10/7/10 19/12/19 13/9/13
f 10/7/10 11/8/11 19/12/19
f 16/11/16 20/13/20 15/10/15
f 16/11/16 14/10/14 21/13/21
f 16/11/16 22/14/22 20/13/20
f 16/11/16 21/13/21 22/14/22
f 18/8/18 17/7/17 23/12/23
f 18/8/18 23/12/23 24/15/24
f 18/8/18 24/15/24 25/16/25
f 17/7/17 12/9/12 23/12/23
f 13/9/13 19/12/19 26/17/26
f 11/8/11 27/15/27 19/12/19
f 11/8/11 28/16/28 27/15/27
f 15/10/15 20/13/20 29/18/29
f 14/10/14 30/18/30 21/13/21
f 22/14/22 31/19/31 20/13/20
f 22/14/22 21/13/21 31/19/31
f 21/13/21 30/18/30 29/18/29
f 21/13/21 20/13/20 31/19/31
f 21/13/21 29/18/29 20/13/20
f 24/15/24 32/20/32 25/16/25
f 24/15/24 23/12/23 33/21/33
f 24/15/24 33/21/33 32/20/32
f 12/9/12 34/17/34 23/12/23
f 23/12/23 34/17/34 33/21/33
f 26/17/26 19/12/19 35/21/35
f 19/12/19 27/15/27 35/21/35
f 28/16/28 36/20/36 27/15/27
f 28/16/28 37/22/37 38/23/38
f 38/23/38 37/22/37 29/18/29
f 27/15/27 36/20/36 35/21/35
f 30/18/30 39/22/39 40/23/40
f 40/23/40 39/22/39 25/16/25
f 32/20/32 33/21/33 41/24/41
f 32/20/32 41/24/41 42/25/42
f 32/20/32 42/25/42 30/26/43
f 41/24/41 36/20/36 42/25/42
f 41/24/41 35/21/35 36/20/36
f 30/26/43 42/25/42 43/27/44
f 36/20/36 29/26/45 42/25/42
f 42/25/42 29/26/45 43/27/44
f 44/28/46 45/29/47 46/30/48
f 44/28/46 47/31/49 45/29/47
f 44/28/46 46/30/48 48/30/50
f 44/28/46 49/32/51 47/31/49
f 44/28/46 48/30/50 50/29/52
f 44/28/46 51/31/53 49/32/51
f 44/28/46 50/29/52 51/31/53
f 45/29/47 52/33/54 46/30/48
f 45/29/47 53/34/54 52/33/54
f 47/31/49 49/32/51 54/35/55
f 48/30/50 55/33/56 50/29/52
f 48/30/50 56/36/57 57/37/57
f 48/30/50 57/37/57 55/33/57
f 51/31/53 58/35/58 49/32/51
f 54/35/55 49/32/51 59/38/59
f 54/35/55 59/38/59 60/39/60
f 49/32/51 58/35/58 59/38/59
f 55/33/56 61/34/56 50/29/52
f 60/39/60 59/38/59 62/40/61
f 58/35/58 63/39/62 59/38/59
f 59/38/59 63/39/62 62/40/61
f 50/29/52 64/41/63 65/42/63
f 50/29/52 61/34/63 64/41/63
f 66/43/64 67/44/65 68/45/66
f 66/43/64 69/46/67 67/44/65
f 66/43/64 68/45/66 70/47/68
f 66/43/64 71/48/69 69/46/67
f 66/43/64 70/47/68 72/49/70
f 66/43/64 72/49/70 71/48/69
f 67/44/65 73/50/71 68/45/66
f 67/44/65 69/46/67 74/51/72
f 70/47/68 75/52/73 72/49/70
f 70/47/68 68/45/66 76/53/74
f 70/47/68 77/54/75 75/52/73
f 70/47/68 76/53/74 77/55/75
f 68/45/66 73/50/71 76/53/74
f 71/48/69 72/49/70 78/56/76
f 71/48/69 78/56/76 79/57/77
f 71/48/69 79/57/77 80/58/78
f 71/48/69 80/58/78 69/59/67
f 72/49/70 75/52/73 78/56/76
f 77/54/75 81/47/79 75/52/73
f 77/55/75 82/53/80 81/47/79
f 73/50/71 77/60/75 76/53/74
f 79/57/77 78/56/76 83/48/81
f 79/57/77 83/48/81 84/58/82
f 79/57/77 84/58/82 80/61/78
f 80/58/78 74/62/72 69/59/67
f 75/52/73 81/47/79 85/49/83
f 75/52/73 85/49/83 78/56/76
f 78/56/76 85/49/83 83/48/81
f 82/53/80 77/60/75 86/50/84
f 82/53/80 87/45/85 81/47/79
f 82/53/80 86/50/84 87/45/85
f 84/58/82 74/63/72 80/61/78
f 84/58/82 83/48/81 88/59/86
f 84/58/82 89/62/87 74/63/72
f 84/58/82 88/59/86 89/62/87
f 85/49/83 81/47/79 90/43/88
f 85/49/83 90/43/88 83/48/81
f 81/47/79 87/45/85 90/43/88
f 86/50/84 91/44/89 87/45/85
f 87/45/85 91/44/89 90/43/88
f 83/48/81 90/43/88 88/46/86
f 90/43/88 91/44/89 88/46/86
f 91/44/89 89/51/87 88/46/86
f 92/64/90 93/65/91 94/66/92
f 92/64/90 95/67/93 93/65/91
f 92/64/90 94/66/92 96/68/86
f 92/64/90 97/69/94 95/67/93
f 92/64/90 96/68/86 97/69/94
f 94/66/92 98/70/95 96/68/86
f 97/69/94 96/68/86 99/71/96
f 99/71/96 96/68/86 98/70/95
f 100/64/97 101/66/98 102/65/99
f 100/64/97 103/68/100 101/66/98
f 100/64/97 102/65/99 104/67/101
f 100/64/97 105/69/102 103/68/100
f 100/64/97 104/67/101 105/69/102
f 101/66/98 103/68/100 106/70/103
f 105/69/102 107/71/104 103/68/100
f 103/68/100 107/71/104 106/70/103
f 108/72/105 33/73/33 34/74/34
f 108/72/105 41/75/41 33/73/33
f 108/72/105 34/74/34 26/76/26
f 108/72/105 35/77/35 41/75/41
f 108/72/105 26/76/26 35/77/35
f 34/74/34 109/78/106 26/76/26
f 34/74/34 12/79/12 109/78/106
f 26/76/26 109/78/106 13/80/13
f 12/79/12 5/81/5 109/78/106
f 109/78/106 5/81/5 13/80/13
f 110/82/107 86/83/84 77/84/75
f 110/82/107 62/85/106 86/83/84
f 110/82/107 77/84/75 111/86/108
f 110/82/107 111/86/108 62/85/106
f 77/84/75 112/82/109 111/86/108
f 77/84/75 73/83/71 112/82/109
f 112/82/109 73/83/71 62/85/106
f 112/82/109 62/85/106 111/86/108
f 113/87/110 45/88/111 114/89/111
f 113/87/110 46/90/110 45/88/111
f 113/87/110 48/91/112 46/90/110
f 113/87/110 115/92/113 48/91/112
f 114/89/111 45/88/111 116/93/114
f 115/92/113 50/94/115 48/91/112
f 115/92/113 117/95/116 50/94/115
f 45/88/111 47/96/114 116/93/114
f 117/95/116 118/97/117 50/94/115
f 47/96/114 67/98/118 116/93/114
f 47/96/114 54/99/118 67/98/118
f 118/97/117 51/100/117 50/94/115
f 118/97/117 91/101/119 51/100/117
f 91/101/119 58/102/119 51/100/117
f 118/97/120 67/98/44 91/101/44
f 118/97/120 116/93/120 67/98/44
f 118/97/120 114/89/121 116/93/120
f 118/97/120 117/95/121 114/89/121
f 117/95/121 113/87/122 114/89/121
f 117/95/121 115/92/122 113/87/122
f 94/103/123 93/104/124 95/105/93
f 94/103/123 95/105/93 97/106/94
f 94/103/123 97/106/94 99/107/96
f 94/103/123 99/107/96 98/108/125
f 101/103/126 104/105/101 102/104/127
f 101/103/126 105/106/102 104/105/101
f 101/103/126 107/107/104 105/106/102
f 101/103/126 106/108/128 107/107/104
f 60/39/129 62/40/130 119/109/129
f 60/39/129 119/50/129 67/44/118
f 60/39/129 67/44/118 54/35/118
f 63/39/131 86/109/131 62/40/132
f 63/39/131 91/44/119 86/50/131
f 63/39/131 58/35/119 91/44/119
f 64/41/133 55/33/133 57/37/133
f 64/41/133 61/34/133 55/33/133
f 65/110/134 57/37/134 56/111/134
f 65/110/134 64/41/134 57/37/134
f 52/33/135 120/41/135 121/37/135
f 52/33/135 53/34/135 120/41/135
f 121/37/136 122/110/136 123/111/136
f 121/37/136 120/41/136 122/110/136
f 45/29/137 120/41/137 53/34/137
f 45/29/137 122/42/137 120/41/137
f 46/30/138 121/37/138 123/36/138
f 46/30/138 52/33/138 121/37/138
f 36/112/139 38/113/139 29/114/140
f 36/112/139 28/115/141 38/113/139
f 32/112/142 40/113/142 25/115/143
f 32/112/142 30/114/144 40/113/142
vt 0.818319 0.778221
vt 0.985951 0.974855
vt 0.629305 0.79777
vt 0.0140758 0.916143
vt 0.0710079 0.7673
o polySurface4_1_0_node
g polygon_0
usemtl TEX_ANIM_EYE_mat_id
f 28/116/28 11/117/11 37/118/37
f 37/118/37 11/117/11 15/119/15
f 37/118/37 15/119/15 29/120/29
f 14/119/14 18/117/18 39/118/39
f 18/117/18 25/116/25 39/118/39
f 14/119/14 39/118/39 30/120/30
