mtllib Poliwhirl.mtl
v 0.101407 0.562847 -0.0905687
vt 0.948801 0.9817
vn 0.187298 0.7057329 -0.6832719
v 0.127468 0.653619 -0.0137751
vt 0.953611 1.00334
vn -0.0627908 0.75265 -0.65542
v 0.207158 0.629012 -0.0115
vt 0.909404 1.05013
vn 0.6598741 0.3067691 -0.6859001
v 0.0735822 0.62342 -0.000619455
vt 0.943665 0.996143
vn -0.447247 0.815034 -0.368361
v 0.214302 0.54091 0.00320025
vt 0.931342 0.945279
vn 0.8213499 0.3636 -0.4395219
v 0 0.598387 0
vt 0.930084 0.990174
vn 0 0.9983035 -0.05822407
v 0.186879 0.46575 -0.140141
vt 0.964576 0.958547
vn 0.5293979 0.4623149 -0.7113388
v -0.101407 0.562847 -0.0905687
vt 0.911367 0.9817
vn -0.187298 0.7057329 -0.6832719
v 0 0.439811 -0.217643
vt 0.930084 0.958547
vn 0 0.3828879 -0.9237948
v 0.228675 0.613733 0.0699593
vt 0.919411 1.04829
vn 0.9190777 0.2103759 0.3332239
v 0.207123 0.664208 0.0514236
vt 0.879882 1.14131
vn 0.5969449 0.7508709 0.282577
v 0.155091 0.685116 0.0461908
vt 0.78445 1.17984
vn 0.06910181 0.9806741 0.183039
vt 0.733788 1.1218
v -0.0735822 0.62342 -0.00061946
vt 0.916503 0.996143
vn 0.4472468 0.8150337 -0.3683619
v 0.162374 0.313739 -0.201016
vt 0.971086 0.922301
vn 0.3789578 0.06597037 -0.9230596
v 0.264287 0.46575 0
vt 0.978863 0.958547
vn 0.8518214 0.5044842 -0.1410531
v 0.268161 0.313739 -0.114155
vt 0.979578 0.922301
vn 0.8144428 0.09748106 -0.5719968
v 0.212941 0.51563 0.0642129
vt 0.890553 0.867502
vn 0.8741109 0.242864 0.420651
v 0.207123 0.563258 0.0908561
vt 0.879882 0.955273
vn 0.4879349 -0.07836908 0.8693548
v 0.103058 0.664208 0.0514236
vt 0.689018 1.14131
vn -0.5224862 0.7609873 0.3845862
vt 0.634956 1.06614
v -0.127468 0.653619 -0.0137751
vt 0.906557 1.00334
vn 0.0627907 0.75265 -0.65542
v -0.186879 0.46575 -0.140141
vt 0.895592 0.958547
vn -0.5293979 0.4623149 -0.7113388
v -0.207158 0.629012 -0.0115
vt 0.891849 0.997476
vn -0.6598741 0.3067691 -0.6859001
v -0.214301 0.54091 0.00320027
vt 0.890531 0.976469
vn -0.8213499 0.3636 -0.4395219
v 0.202332 0.187559 -0.15743
vt 0.967428 0.892214
vn 0.5600619 -0.4786249 -0.6762018
v 0 0.211336 -0.235609
vt 0.930084 0.892214
vn 0 -0.320087 -0.9473882
v 0.398757 0.313739 0.0975851
vt 0.98807 0.922301
vn 0.9429829 0.236694 0.234007
vt 0.984726 0.77558
v 0.155091 0.54235 0.0996304
vt 0.78445 0.916743
vn 0.2239411 0.3138331 0.9226913
v 0.0815058 0.613733 0.0699593
vt 0.649489 1.04829
vn -0.590953 0.382497 0.710261
vt 0.5 1.02001
v -0.264287 0.46575 0
vt 0.881305 0.958547
vn -0.8518217 0.5044838 -0.1410529
v -0.162374 0.313739 -0.201016
vt 0.889082 0.922301
vn -0.3789578 0.06597037 -0.9230596
v -0.268161 0.313739 -0.114155
vt 0.88059 0.922301
vn -0.8144428 0.09748116 -0.5719968
v 0.258185 0.15636 0
vt 0.982896 0.892214
vn 0.8032279 -0.595668 0.00217186
v 0 0.09691928 -0.128084
vt 0.930084 0.870602
vn 0 -0.7929451 -0.609293
v 0.121852 0.09691928 -0.0905687
vt 0.952574 0.870602
vn 0.3334838 -0.7886076 -0.5166107
v 0.300155 0.250649 0
vt 0.985483 0.907258
vn 0.8153373 -0.5686462 -0.108934
v 0.186879 0.46575 0.140141
vt 0.842753 0.77558
vn 0.5086012 0.4360641 0.7424102
v 0.268161 0.313739 0.130796
vt 0.991831 0.495447
vn 0.6424378 0.06231847 0.7637997
vt 1.07622 0.495447
v 0.101407 0.562847 0.0905687
vt 0.685989 0.954517
vn 0.02607561 0.6703462 0.7415902
vt 0.365044 1.06614
v -0.0815059 0.613733 0.0699593
vt 0.350511 1.04829
vn 0.5909519 0.382497 0.7102619
v -0.101407 0.562847 0.0905687
vt 0.314011 0.954517
vn -0.02607561 0.6703462 0.7415902
v -0.398757 0.313739 0.0975851
vt 0.872098 0.922301
vn -0.9429827 0.2366939 0.2340079
v -0.202332 0.187559 -0.15743
vt 0.89274 0.892214
vn -0.5600621 -0.4786241 -0.6762022
v 0.172325 0.09691928 0
vt 0.96189 0.870602
vn 0.7258301 -0.687874 0
v 0.0683456 0.06349079 0
vt 0.942698 0.862631
vn -0.1398119 -0.9796007 0.144344
v 0.121253 -0.002826575 0
vt 0.952463 0.846818
vn 0.219871 -0.975529 0
vt 1.05051 0.379181
vt 1.02481 0.262916
v 0.199651 0.187559 0.15615
vt 0.871095 0.262916
vn 0.5419688 -0.5086228 0.6690087
v -0.103058 0.664208 0.0514236
vt 0.310982 1.14131
vn 0.5224862 0.7609873 0.3845862
vt 0.266212 1.1218
v -0.155091 0.54235 0.0996304
vt 0.21555 0.916743
vn -0.223941 0.313834 0.922691
v -0.186879 0.46575 0.140141
vt 0.157247 0.77558
vn -0.5086012 0.4360641 0.7424102
v -0.300155 0.250649 0
vt 0.874685 0.907258
vn -0.8153373 -0.5686462 -0.108934
v -0.121852 0.09691928 -0.0905687
vt 0.907594 0.870602
vn -0.3334838 -0.7886076 -0.5166107
v -0.258185 0.15636 0
vt 0.877272 0.892214
vn -0.8032279 -0.595668 0.00217185
v -0.0683456 0.06349079 0
vt 0.91747 0.862631
vn 0.1398119 -0.9796007 0.144344
v 0.121852 0.09691928 0.0905687
vt 0.723488 0.0958801
vn 0.200453 -0.827491 0.5244781
v -0.155091 0.685116 0.0461908
vt 0.21555 1.17984
vn -0.06910171 0.9806741 0.183039
vt 0.120053 1.07645
v -0.212941 0.51563 0.0642129
vt 0.109447 0.867502
vn -0.8741113 0.2428641 0.4206502
v -0.207123 0.563258 0.0908561
vt 0.120118 0.955273
vn -0.4879349 -0.07836958 0.8693548
v -0.172325 0.09691928 0
vt 0.898278 0.870602
vn -0.7258301 -0.687874 0
v -0.121253 -0.002826575 0
vt 0.907705 0.846818
vn -0.219871 -0.975529 0
vt 0.81606 0.0958801
vt 0.722389 -0.0879369
vt 0.625352 0.0342762
v -0.121852 0.09691928 0.0905687
vt 0.276512 0.0958801
vn -0.200453 -0.827491 0.5244781
v -0.207123 0.664208 0.0514236
vt 0.120118 1.14131
vn -0.596945 0.7508711 0.282576
v -0.228676 0.613733 0.0699593
vt 0.0805889 1.04829
vn -0.919078 0.210376 0.333223
vt 0.106952 0.914089
vt 0.0152743 0.77558
v -0.268161 0.313739 0.130796
vt 0.00816922 0.495447
vn -0.6424379 0.06231838 0.7637998
vt 0.374648 0.0342762
vt 0.277611 -0.0879369
vt 0.18394 0.0958801
vt -0.0248072 0.262916
v -0.199651 0.187559 0.15615
vt 0.128905 0.262916
vn -0.5419688 -0.5086228 0.6690087
vt -0.0762156 0.495447
vt -0.0505114 0.379181
v 0 0.187559 0.22264
vt 0.5 0.219303
vn 0 -0.5570171 0.8305011
v 0 0.313739 0.241079
vt 0.5 0.462807
vn 0 0.08603213 0.9962924
v -0.156192 0.313739 0.213336
vt 0.218167 0.462807
vn -0.369328 0.06000031 0.9273601
v 0.156192 0.313739 0.213336
vt 0.781833 0.462807
vn 0.369328 0.06000041 0.9273601
vt 0.139748 0.219303
vt 0.860252 0.219303
vt 0.280129 0.0443852
vt 0.719871 0.0443852
v 0 0.46575 0.19819
vt 0.5 0.756161
vn 0 0.497301 0.8675781
vt 0.0161291 0.462807
vt 0.983871 0.462807
vt 0.162794 0.756161
vt 0.837206 0.756161
vt 0.317021 0.943541
vt 0.682979 0.943541
vt 0.5 1.01213
v 0.397838 0.4126 0.0931494
vt 0.945696 0.0601722
vn 0 1 0
v 0.312629 0.313192 0.0419508
vn -0.8571672 0 -0.5150382
v 0.346639 0.313192 0.178358
vn -0.5150382 0 0.8571672
v 0.449036 0.313192 0.00794063
vn 0.5150382 0 -0.8571672
v 0.483046 0.313192 0.144348
vn 0.8571675 0 0.5150377
v 0.397838 0.213785 0.0931494
vn 0 -1 0
v -0.397829 0.4126 0.0931494
v -0.483037 0.313192 0.144348
vn -0.8571672 0 0.5150382
v -0.34663 0.313192 0.178358
vn 0.5150382 0 0.8571672
v -0.449027 0.313192 0.00794063
vn -0.5150382 0 -0.8571672
v -0.31262 0.313192 0.0419508
vn 0.8571672 0 -0.5150382
v -0.397829 0.213785 0.0931494
o merged_0_0_node
g polygon_0
usemtl lambert5_mat_id
f 1/1/1 2/2/2 3/3/3
f 1/1/1 4/4/4 2/2/2
f 1/1/1 3/3/3 5/5/5
f 1/1/1 6/6/6 4/4/4
f 1/1/1 5/5/5 7/7/7
f 1/1/1 8/8/8 6/6/6
f 1/1/1 7/7/7 9/9/9
f 1/1/1 9/9/9 8/8/8
f 3/3/3 10/10/10 5/5/5
f 3/3/3 11/11/11 10/10/10
f 3/3/3 12/12/12 11/11/11
f 3/3/3 2/13/2 12/12/12
f 6/6/6 8/8/8 13/14/13
f 7/7/7 14/15/14 9/9/9
f 7/7/7 5/5/5 15/16/15
f 7/7/7 16/17/16 14/15/14
f 7/7/7 15/16/15 16/17/16
f 10/10/10 17/18/17 5/5/5
f 10/10/10 18/19/18 17/18/17
f 2/13/2 19/20/19 12/12/12
f 2/13/2 4/21/4 19/20/19
f 8/8/8 20/22/20 13/14/13
f 8/8/8 9/9/9 21/23/21
f 8/8/8 22/24/22 20/22/20
f 8/8/8 21/23/21 23/25/23
f 8/8/8 23/25/23 22/24/22
f 14/15/14 16/17/16 24/26/24
f 14/15/14 25/27/25 9/9/9
f 14/15/14 24/26/24 25/27/25
f 15/16/15 26/28/26 16/17/16
f 5/5/5 17/18/17 15/29/15
f 18/19/18 27/30/27 17/18/17
f 4/21/4 28/31/28 19/20/19
f 4/21/4 6/32/6 28/31/28
f 21/23/21 29/33/29 23/25/23
f 21/23/21 9/9/9 30/34/30
f 21/23/21 31/35/31 29/33/29
f 21/23/21 30/34/30 31/35/31
f 9/9/9 25/27/25 30/34/30
f 24/26/24 16/17/16 32/36/32
f 24/26/24 33/37/33 25/27/25
f 24/26/24 32/36/32 34/38/34
f 24/26/24 34/38/34 33/37/33
f 26/28/26 35/39/35 16/17/16
f 16/17/16 35/39/35 32/36/32
f 15/29/15 17/18/17 36/40/36
f 15/29/15 36/40/36 37/41/37
f 15/29/15 37/41/37 26/42/26
f 17/18/17 27/30/27 36/40/36
f 6/32/6 38/43/38 28/31/28
f 6/32/6 13/44/13 39/45/39
f 6/32/6 39/45/39 40/46/40
f 38/43/38 36/40/36 27/30/27
f 29/33/29 31/35/31 41/47/41
f 30/34/30 25/27/25 42/48/42
f 30/34/30 42/48/42 31/35/31
f 25/27/25 33/37/33 42/48/42
f 34/38/34 32/36/32 43/49/43
f 34/38/34 44/50/44 33/37/33
f 34/38/34 43/49/43 45/51/45
f 34/38/34 45/51/45 44/50/44
f 37/41/37 35/52/35 26/42/26
f 37/41/37 32/53/32 35/52/35
f 37/41/37 46/54/46 32/53/32
f 13/44/13 47/55/47 39/45/39
f 13/44/13 20/56/20 47/55/47
f 40/46/40 48/57/48 49/58/49
f 41/47/41 31/35/31 50/59/50
f 42/48/42 33/37/33 51/60/51
f 42/48/42 52/61/52 31/35/31
f 42/48/42 51/60/51 52/61/52
f 31/35/31 52/61/52 50/59/50
f 44/50/44 53/62/53 33/37/33
f 33/37/33 53/62/53 51/60/51
f 46/54/46 54/63/54 32/53/32
f 20/56/20 55/64/55 47/55/47
f 20/56/20 22/65/22 55/64/55
f 48/57/48 56/66/56 49/58/49
f 48/57/48 57/67/57 56/66/56
f 52/61/52 51/60/51 58/68/58
f 53/62/53 59/69/59 51/60/51
f 51/60/51 59/69/59 58/68/58
f 54/63/54 43/70/43 32/53/32
f 54/63/54 45/71/45 43/70/43
f 54/63/54 44/72/44 45/71/45
f 54/63/54 60/73/60 44/72/44
f 22/65/22 61/74/61 55/64/55
f 22/65/22 62/75/62 61/74/61
f 22/65/22 23/76/23 62/75/62
f 62/75/62 56/66/56 57/67/57
f 62/75/62 23/76/23 56/66/56
f 49/58/49 56/66/56 29/77/29
f 49/58/49 29/77/29 63/78/63
f 56/66/56 23/76/23 29/77/29
f 60/73/60 53/79/53 44/72/44
f 60/73/60 59/80/59 53/79/53
f 60/73/60 58/81/58 59/80/59
f 60/73/60 52/82/52 58/81/58
f 60/73/60 64/83/64 52/82/52
f 64/83/64 63/78/63 52/82/52
f 29/77/29 41/84/41 63/78/63
f 52/82/52 63/78/63 50/85/50
f 50/85/50 63/78/63 41/84/41
f 65/86/65 66/87/66 67/88/67
f 65/86/65 68/89/68 66/87/66
f 65/86/65 67/88/67 64/90/64
f 65/86/65 46/91/46 68/89/68
f 65/86/65 64/90/64 60/92/60
f 65/86/65 54/93/54 46/91/46
f 65/86/65 60/92/60 54/93/54
f 66/87/66 69/94/69 67/88/67
f 66/87/66 68/89/68 69/94/69
f 64/90/64 67/88/67 63/95/63
f 46/91/46 37/96/37 68/89/68
f 69/94/69 49/97/49 67/88/67
f 69/94/69 68/89/68 36/98/36
f 69/94/69 40/99/40 49/97/49
f 69/94/69 36/98/36 38/100/38
f 69/94/69 38/100/38 40/99/40
f 36/98/36 68/89/68 37/96/37
f 49/97/49 63/95/63 67/88/67
f 38/100/38 6/101/6 40/99/40
f 70/102/70 71/102/71 72/102/72
f 70/102/70 73/102/73 71/102/71
f 70/102/70 72/102/72 74/102/74
f 70/102/70 74/102/74 73/102/73
f 71/102/71 75/102/75 72/102/72
f 71/102/71 73/102/73 75/102/75
f 75/102/75 74/102/74 72/102/72
f 75/102/75 73/102/73 74/102/74
f 76/102/70 77/102/76 78/102/77
f 76/102/70 79/102/78 77/102/76
f 76/102/70 78/102/77 80/102/79
f 76/102/70 80/102/79 79/102/78
f 77/102/76 81/102/75 78/102/77
f 77/102/76 79/102/78 81/102/75
f 81/102/75 80/102/79 78/102/77
f 81/102/75 79/102/78 80/102/79
vt 0.853553 0.962892
vt 0.5 1.00015
v 0.155091 0.611889 0.0956105
vt 0.5 0.86966
vn -0.0007831255 0.3387908 0.9408615
vt 0.146447 0.962892
vt 0 0.86966
vt 0.135225 0.782268
vt 0.5 0.745742
vt 0.853553 0.782999
vt 1 0.86966
v -0.155091 0.611889 0.0956105
o merged_1_0_node
g polygon_0
usemtl TEX_ANIM_EYE_mat_id
f 11/103/11 12/104/12 82/105/80
f 12/104/12 19/106/19 82/105/80
f 19/106/19 28/107/28 82/105/80
f 28/107/28 38/108/38 82/105/80
f 27/109/27 18/110/18 82/105/80
f 18/110/18 10/111/10 82/105/80
f 10/111/10 11/103/11 82/105/80
f 38/108/38 27/109/27 82/105/80
f 61/103/61 83/105/80 55/104/55
f 55/104/55 83/105/80 47/106/47
f 47/106/47 83/105/80 39/107/39
f 39/107/39 83/105/80 40/108/40
f 48/109/48 83/105/80 57/110/57
f 57/110/57 83/105/80 62/111/62
f 62/111/62 83/105/80 61/103/61
f 40/108/40 83/105/80 48/109/48
