ply
format ascii 1.0
element vertex 386
property float x
property float y
property float z
property uchar red
property uchar green
property uchar blue
element face 440
property list uchar int vertex_index
end_header
-0.31979 -0.14304 1.6153 94 84 96
-0.51663 -0.14304 1.47747 94 84 96
-0.98704 -0.14304 2.1566 94 84 96
-0.78872 -0.14304 2.29229 94 84 96
-1.13971 -0.14304 2.37699 94 84 96
-0.94287 -0.14304 2.51482 94 84 96
-1.1377 -0.14304 2.42141 94 84 96
-0.98643 -0.14304 2.52733 94 84 96
-0.97062 -0.14304 2.62095 240 220 242
-1.23757 -0.14304 2.43402 240 220 242
-1.23757 0.14848 2.43402 240 220 242
-0.97062 0.14848 2.62095 240 220 242
-1.21451 0.14848 2.32364 240 220 242
-0.86715 0.14848 2.56687 240 220 242
-1.06287 0.14848 2.10471 240 220 242
-0.71289 0.14848 2.34417 240 220 242
-1.21451 -0.14304 2.32364 240 220 242
-1.06287 -0.14304 2.10471 240 220 242
-0.98704 -0.14304 2.1566 240 220 242
-1.13971 -0.14304 2.37699 240 220 242
-1.1377 -0.14304 2.42141 240 220 242
-0.98643 -0.14304 2.52733 240 220 242
-0.94287 -0.14304 2.51482 240 220 242
-0.86715 -0.14304 2.56687 240 220 242
-0.78872 -0.14304 2.29229 240 220 242
-0.71289 -0.14304 2.34417 240 220 242
-0.59189 -0.14304 1.42477 246 202 247
-0.59189 0.14848 1.42477 246 202 247
-1.06287 0.14848 2.10471 246 202 247
-1.06287 -0.14304 2.10471 246 202 247
-0.98704 -0.14304 2.1566 246 202 247
-0.51663 -0.14304 1.47747 246 202 247
-0.24452 0.14848 1.668 246 202 247
-0.24452 -0.14304 1.668 246 202 247
-0.71289 -0.14304 2.34417 246 202 247
-0.71289 0.14848 2.34417 246 202 247
-0.78872 -0.14304 2.29229 246 202 247
-0.31979 -0.14304 1.6153 246 202 247
-0.86715 0.14848 2.56687 247 226 248
-0.86715 -0.14304 2.56687 247 226 248
-0.97062 -0.14304 2.62095 247 226 248
-0.97062 0.14848 2.62095 247 226 248
-0.71289 0.14848 2.34417 247 226 248
-0.71289 -0.14304 2.34417 247 226 248
0.31979 -0.14304 1.6153 94 84 96
0.78872 -0.14304 2.29229 94 84 96
0.98704 -0.14304 2.1566 94 84 96
0.51663 -0.14304 1.47747 94 84 96
1.13971 -0.14304 2.37699 94 84 96
0.94287 -0.14304 2.51482 94 84 96
1.1377 -0.14304 2.42141 94 84 96
0.98643 -0.14304 2.52733 94 84 96
0.97062 -0.14304 2.62095 240 220 242
0.97062 0.14848 2.62095 240 220 242
1.23757 0.14848 2.43402 240 220 242
1.23757 -0.14304 2.43402 240 220 242
1.21451 0.14848 2.32364 240 220 242
0.86715 0.14848 2.56687 240 220 242
1.06287 0.14848 2.10471 240 220 242
0.71289 0.14848 2.34417 240 220 242
1.21451 -0.14304 2.32364 240 220 242
1.06287 -0.14304 2.10471 240 220 242
0.59189 -0.14304 1.42477 246 202 247
1.06287 -0.14304 2.10471 246 202 247
1.06287 0.14848 2.10471 246 202 247
0.59189 0.14848 1.42477 246 202 247
0.71289 0.14848 2.34417 246 202 247
0.24452 0.14848 1.668 246 202 247
0.71289 -0.14304 2.34417 246 202 247
0.24452 -0.14304 1.668 246 202 247
0.78872 -0.14304 2.29229 246 202 247
0.31979 -0.14304 1.6153 246 202 247
0.86715 0.14848 2.56687 247 226 248
0.97062 0.14848 2.62095 247 226 248
0.97062 -0.14304 2.62095 247 226 248
0.86715 -0.14304 2.56687 247 226 248
0.71289 0.14848 2.34417 247 226 248
0.71289 -0.14304 2.34417 247 226 248
0.51663 -0.14304 1.47747 246 202 247
0.98704 -0.14304 2.1566 246 202 247
0.86715 -0.14304 2.56687 240 220 242
0.94287 -0.14304 2.51482 240 220 242
0.78872 -0.14304 2.29229 240 220 242
0.71289 -0.14304 2.34417 240 220 242
0.98643 -0.14304 2.52733 240 220 242
1.1377 -0.14304 2.42141 240 220 242
1.13971 -0.14304 2.37699 240 220 242
0.98704 -0.14304 2.1566 240 220 242
-0.09511 -0.57239 1.1626 237 139 152
-0.09511 -0.57239 1.25507 237 139 152
0.09511 -0.57239 1.25507 237 139 152
0.09511 -0.57239 1.1626 237 139 152
0.09511 -0.48892 1.25507 237 139 152
-0.09511 -0.48892 1.25507 237 139 152
0.09511 -0.48892 1.1626 237 139 152
-0.09511 -0.48892 1.1626 237 139 152
0.52936 -0.59542 1.64543 255 255 255
0.52936 -0.648 1.64543 255 255 255
0.21215 -0.648 1.64543 255 255 255
0.21215 -0.59542 1.64543 255 255 255
0.52936 -0.59542 1.27025 255 255 255
0.52936 -0.648 1.27025 255 255 255
0.21215 -0.648 1.27025 255 255 255
0.21215 -0.59542 1.27025 255 255 255
0.21215 -0.648 1.31744 255 255 255
0.46129 -0.648 1.31744 255 255 255
0.46129 -0.648 1.59863 255 255 255
0.41682 -0.648 1.31744 255 255 255
0.2455 -0.648 1.31744 255 255 255
0.21215 -0.648 1.59863 255 255 255
0.26553 -0.648 1.50731 255 255 255
0.26553 -0.648 1.585 255 255 255
0.34372 -0.648 1.585 255 255 255
0.34372 -0.648 1.50731 255 255 255
0.41682 -0.648 1.37224 72 170 75
0.46129 -0.648 1.31744 72 170 75
0.41682 -0.648 1.31744 72 170 75
0.46129 -0.648 1.59863 72 170 75
0.34372 -0.648 1.585 72 170 75
0.34372 -0.648 1.50731 72 170 75
0.26553 -0.648 1.585 72 170 75
0.21215 -0.648 1.59863 72 170 75
0.2455 -0.648 1.37224 72 170 75
0.26553 -0.648 1.50731 72 170 75
0.21215 -0.648 1.31744 72 170 75
0.2455 -0.648 1.31744 72 170 75
0.2455 -0.648 1.37224 146 197 146
0.41682 -0.648 1.37224 146 197 146
0.41682 -0.648 1.31744 146 197 146
0.2455 -0.648 1.31744 146 197 146
-0.52936 -0.59542 1.64543 255 255 255
-0.21215 -0.59542 1.64543 255 255 255
-0.21215 -0.648 1.64543 255 255 255
-0.52936 -0.648 1.64543 255 255 255
-0.52936 -0.59542 1.27025 255 255 255
-0.52936 -0.648 1.27025 255 255 255
-0.21215 -0.648 1.27025 255 255 255
-0.21215 -0.59542 1.27025 255 255 255
-0.21215 -0.648 1.31744 255 255 255
-0.46129 -0.648 1.31744 255 255 255
-0.46129 -0.648 1.59863 255 255 255
-0.41682 -0.648 1.31744 255 255 255
-0.2455 -0.648 1.31744 255 255 255
-0.21215 -0.648 1.59863 255 255 255
-0.26553 -0.648 1.50731 255 255 255
-0.34372 -0.648 1.50731 255 255 255
-0.34372 -0.648 1.585 255 255 255
-0.26553 -0.648 1.585 255 255 255
-0.41682 -0.648 1.37224 72 170 75
-0.41682 -0.648 1.31744 72 170 75
-0.46129 -0.648 1.31744 72 170 75
-0.46129 -0.648 1.59863 72 170 75
-0.34372 -0.648 1.585 72 170 75
-0.34372 -0.648 1.50731 72 170 75
-0.26553 -0.648 1.585 72 170 75
-0.21215 -0.648 1.59863 72 170 75
-0.2455 -0.648 1.37224 72 170 75
-0.26553 -0.648 1.50731 72 170 75
-0.21215 -0.648 1.31744 72 170 75
-0.2455 -0.648 1.31744 72 170 75
-0.2455 -0.648 1.37224 146 197 146
-0.2455 -0.648 1.31744 146 197 146
-0.41682 -0.648 1.31744 146 197 146
-0.41682 -0.648 1.37224 146 197 146
-0.30253 -0.83862 1.70536 246 202 247
-0.30253 -0.83862 2.04634 246 202 247
-0.24267 -0.89365 2.04634 246 202 247
-0.24267 -0.89365 1.70536 246 202 247
-0.30253 -0.71798 2.04634 246 202 247
0.24267 -0.89365 1.70536 246 202 247
0.24267 -0.89365 2.04634 246 202 247
0.30253 -0.83862 1.70536 246 202 247
0.30253 -0.83862 2.04634 246 202 247
0.30253 -0.3436 2.04634 246 202 247
0.30253 -0.3436 1.70536 246 202 247
-0.21435 -0.85835 2.08801 246 202 247
-0.26724 -0.80975 2.08801 246 202 247
0.21435 -0.85835 2.08801 246 202 247
0.26724 -0.80975 2.08801 246 202 247
0.26724 -0.37248 2.08801 246 202 247
-0.21611 -0.85768 1.66708 246 202 247
0.21611 -0.85768 1.66708 246 202 247
-0.26943 -0.8092 1.66708 246 202 247
0.26943 -0.8092 1.66708 246 202 247
0.26943 -0.37303 1.66708 246 202 247
0.24267 -0.28858 1.70536 246 202 247
0.24267 -0.28858 2.04634 246 202 247
-0.24267 -0.28858 1.70536 246 202 247
-0.24267 -0.28858 2.04634 246 202 247
-0.30253 -0.3436 2.04634 246 202 247
-0.30253 -0.3436 1.70536 246 202 247
-0.21435 -0.32388 2.08801 246 202 247
0.21435 -0.32388 2.08801 246 202 247
-0.26724 -0.37248 2.08801 246 202 247
-0.26724 -0.42604 2.08801 246 202 247
-0.30253 -0.46916 2.04634 246 202 247
-0.21611 -0.32455 1.66708 246 202 247
-0.26943 -0.37303 1.66708 246 202 247
0.21611 -0.32455 1.66708 246 202 247
-0.30257 -0.46916 2.18844 246 202 247
-0.26714 -0.42604 2.18844 246 202 247
-0.30257 -0.71798 2.18844 246 202 247
0.00862 -0.42604 2.08801 246 202 247
0.00862 -0.42604 2.18844 246 202 247
0.04995 -0.46774 2.08801 246 202 247
0.04995 -0.46774 2.18844 246 202 247
-0.2442 -0.45268 2.22867 246 202 247
-0.01352 -0.45268 2.22867 246 202 247
-0.27383 -0.48723 2.22867 246 202 247
-0.27383 -0.69991 2.22867 246 202 247
0.02106 -0.48609 2.22867 246 202 247
0.21435 -0.32388 2.08801 245 209 247
0.26724 -0.37248 2.08801 245 209 247
-0.26724 -0.37248 2.08801 245 209 247
-0.21435 -0.32388 2.08801 245 209 247
-0.26724 -0.42604 2.08801 245 209 247
0.00862 -0.42604 2.08801 245 209 247
0.04995 -0.46774 2.08801 245 209 247
0.26724 -0.80975 2.08801 245 209 247
0.21435 -0.85835 2.08801 245 209 247
-0.21435 -0.85835 2.08801 245 209 247
-0.26724 -0.80975 2.08801 245 209 247
-0.26724 -0.7611 2.08801 245 209 247
0.00862 -0.7611 2.08801 245 209 247
0.04995 -0.71893 2.08801 245 209 247
0.02106 -0.48609 2.22867 245 209 247
0.02106 -0.70067 2.22867 245 209 247
-0.27383 -0.69991 2.22867 245 209 247
-0.27383 -0.48723 2.22867 245 209 247
-0.01352 -0.45268 2.22867 245 209 247
-0.2442 -0.45268 2.22867 245 209 247
-0.26724 -0.7611 2.08801 246 202 247
-0.26714 -0.7611 2.18844 246 202 247
0.00862 -0.7611 2.18844 246 202 247
0.00862 -0.7611 2.08801 246 202 247
0.04995 -0.71893 2.18844 246 202 247
0.04995 -0.71893 2.08801 246 202 247
-0.2442 -0.73445 2.22867 246 202 247
-0.01352 -0.73445 2.22867 246 202 247
0.02106 -0.70067 2.22867 246 202 247
-0.01352 -0.73445 2.22867 245 209 247
-0.2442 -0.73445 2.22867 245 209 247
0.69211 -0.41095 0.98745 246 202 247
0.69211 -0.41095 1.27871 246 202 247
1.02016 -0.41095 1.27871 246 202 247
1.02016 -0.41095 0.98745 246 202 247
0.69211 -0.11968 0.98745 246 202 247
1.02016 -0.11968 0.98745 246 202 247
1.06257 -0.16166 1.02942 246 202 247
1.06257 -0.36897 1.02942 246 202 247
1.06257 -0.36897 1.23674 246 202 247
0.69211 -0.41095 1.27871 245 209 247
0.69211 -0.11968 1.27871 245 209 247
1.02016 -0.11968 1.27871 245 209 247
1.02016 -0.41095 1.27871 245 209 247
1.06257 -0.36897 1.23674 245 209 247
1.06257 -0.16166 1.23674 245 209 247
0.69211 -0.11968 1.27871 246 202 247
1.02016 -0.11968 1.27871 246 202 247
1.06257 -0.16166 1.23674 246 202 247
-0.69211 -0.41095 0.98745 246 202 247
-1.02016 -0.41095 0.98745 246 202 247
-1.02016 -0.41095 1.27871 246 202 247
-0.69211 -0.41095 1.27871 246 202 247
-0.69211 -0.11968 0.98745 246 202 247
-1.02016 -0.11968 0.98745 246 202 247
-1.06257 -0.16166 1.02942 246 202 247
-1.06257 -0.36897 1.02942 246 202 247
-1.06257 -0.36897 1.23674 246 202 247
-0.69211 -0.41095 1.27871 245 209 247
-1.02016 -0.41095 1.27871 245 209 247
-1.02016 -0.11968 1.27871 245 209 247
-0.69211 -0.11968 1.27871 245 209 247
-1.06257 -0.36897 1.23674 245 209 247
-1.06257 -0.16166 1.23674 245 209 247
-0.69211 -0.11968 1.27871 246 202 247
-1.02016 -0.11968 1.27871 246 202 247
-1.06257 -0.16166 1.23674 246 202 247
-0.70826 -0.5194 0.28319 246 202 247
-0.70826 0.60788 0.28319 246 202 247
-0.70826 0.60788 1.75527 246 202 247
-0.70826 -0.5194 1.75527 246 202 247
-0.60163 -0.60993 1.75527 246 202 247
-0.60163 -0.60993 0.28319 246 202 247
-0.64912 -0.46792 1.8351 246 202 247
-0.55138 -0.55091 1.8351 246 202 247
-0.64912 0.5564 1.8351 246 202 247
-0.55017 -0.5495 0.18148 246 202 247
-0.6477 -0.46669 0.18148 246 202 247
-0.6477 0.55517 0.18148 246 202 247
-0.60163 0.69841 0.28319 246 202 247
-0.60163 0.69841 1.75527 246 202 247
-0.55138 0.63939 1.8351 246 202 247
-0.55017 0.63797 0.18148 246 202 247
0.60163 0.69841 1.75527 246 202 247
0.60163 0.69841 0.28319 246 202 247
0.55017 0.63797 0.18148 246 202 247
0.6477 0.55517 0.18148 246 202 247
0.70826 0.60788 1.75527 246 202 247
0.70826 0.60788 0.28319 246 202 247
0.55138 0.63939 1.8351 246 202 247
0.64912 0.5564 1.8351 246 202 247
0.6477 -0.46669 0.18148 246 202 247
0.70826 -0.5194 0.28319 246 202 247
0.55017 -0.5495 0.18148 246 202 247
0.60163 -0.60993 0.28319 246 202 247
0.60163 -0.60993 1.75527 246 202 247
0.70826 -0.5194 1.75527 246 202 247
0.64912 -0.46792 1.8351 246 202 247
0.55138 -0.55091 1.8351 246 202 247
-0.40636 -0.60993 0.32989 246 202 247
-0.44122 -0.60993 0.36824 246 202 247
0.40636 -0.60993 0.32989 246 202 247
-0.44122 -0.60993 1.36619 246 202 247
0.44122 -0.60993 1.36619 246 202 247
0.44122 -0.60993 0.36824 246 202 247
-0.1458 -0.60993 1.17155 139 65 66
-0.1458 -0.60993 1.30766 139 65 66
-0.1458 -0.49627 1.30766 139 65 66
-0.1458 -0.49627 1.17155 139 65 66
0.1458 -0.49627 1.17155 139 65 66
0.1458 -0.49627 1.30766 139 65 66
0.1458 -0.60993 1.17155 139 65 66
0.1458 -0.60993 1.30766 139 65 66
-0.44122 -0.60993 0.36824 253 243 251
-0.44122 -0.60993 1.36619 253 243 251
-0.1458 -0.60993 1.30766 253 243 251
-0.1458 -0.60993 1.17155 253 243 251
0.44122 -0.60993 1.36619 253 243 251
0.1458 -0.60993 1.30766 253 243 251
0.1458 -0.60993 1.17155 253 243 251
0.44122 -0.60993 0.36824 253 243 251
0.40636 -0.60993 0.32989 253 243 251
-0.40636 -0.60993 0.32989 253 243 251
-0.64912 -0.46792 1.8351 245 209 247
-0.64912 0.5564 1.8351 245 209 247
0.64912 0.5564 1.8351 245 209 247
0.64912 -0.46792 1.8351 245 209 247
-0.55138 -0.55091 1.8351 245 209 247
0.55138 -0.55091 1.8351 245 209 247
-0.55138 0.63939 1.8351 245 209 247
0.55138 0.63939 1.8351 245 209 247
0.20672 -0.77054 0 246 202 247
0.20672 -0.77054 0.19416 246 202 247
0.4862 -0.77033 0.19416 246 202 247
0.4862 -0.77033 0 246 202 247
0.16364 -0.71974 0 246 202 247
0.52516 -0.71945 0 246 202 247
0.16648 0.33143 0 246 202 247
0.528 0.33171 0 246 202 247
0.528 0.33171 0.19416 246 202 247
0.52516 -0.71945 0.19416 246 202 247
0.16364 -0.71974 0.19416 246 202 247
0.16364 -0.71974 0.19416 245 209 247
0.16648 0.33143 0.19416 245 209 247
0.528 0.33171 0.19416 245 209 247
0.52516 -0.71945 0.19416 245 209 247
0.20672 -0.77054 0.19416 245 209 247
0.4862 -0.77033 0.19416 245 209 247
0.21443 0.40982 0.19416 246 202 247
0.21443 0.40982 0 246 202 247
0.48031 0.41029 0 246 202 247
0.48031 0.41029 0.19416 246 202 247
0.16648 0.33143 0.19416 246 202 247
-0.20672 -0.77054 0 246 202 247
-0.4862 -0.77033 0 246 202 247
-0.4862 -0.77033 0.19416 246 202 247
-0.20672 -0.77054 0.19416 246 202 247
-0.16364 -0.71974 0 246 202 247
-0.52516 -0.71945 0 246 202 247
-0.16648 0.33143 0 246 202 247
-0.528 0.33171 0 246 202 247
-0.528 0.33171 0.19416 246 202 247
-0.52516 -0.71945 0.19416 246 202 247
-0.16364 -0.71974 0.19416 246 202 247
-0.16364 -0.71974 0.19416 245 209 247
-0.52516 -0.71945 0.19416 245 209 247
-0.528 0.33171 0.19416 245 209 247
-0.16648 0.33143 0.19416 245 209 247
-0.20672 -0.77054 0.19416 245 209 247
-0.4862 -0.77033 0.19416 245 209 247
-0.21443 0.40982 0.19416 246 202 247
-0.48031 0.41029 0.19416 246 202 247
-0.48031 0.41029 0 246 202 247
-0.21443 0.40982 0 246 202 247
-0.16648 0.33143 0.19416 246 202 247
3 0 2 1
3 0 3 2
3 3 4 2
3 3 5 4
3 5 6 4
3 5 7 6
3 8 10 9
3 8 11 10
3 11 12 10
3 11 13 12
3 13 14 12
3 13 15 14
3 16 10 12
3 16 9 10
3 17 16 12
3 17 12 14
3 18 16 17
3 18 19 16
3 16 19 20
3 16 20 9
3 9 20 21
3 9 21 8
3 8 21 22
3 8 22 23
3 23 22 24
3 23 24 25
3 26 28 27
3 26 29 28
3 26 30 29
3 26 31 30
3 32 34 33
3 32 35 34
3 35 32 27
3 35 27 28
3 36 33 34
3 36 37 33
3 38 40 39
3 38 41 40
3 42 38 39
3 42 39 43
3 44 46 45
3 44 47 46
3 45 46 48
3 45 48 49
3 49 48 50
3 49 50 51
3 52 54 53
3 52 55 54
3 53 54 56
3 53 56 57
3 57 56 58
3 57 58 59
3 60 54 55
3 60 56 54
3 61 56 60
3 61 58 56
3 62 64 63
3 62 65 64
3 66 64 65
3 66 65 67
3 67 68 66
3 67 69 68
3 70 68 69
3 70 69 71
3 72 74 73
3 72 75 74
3 76 75 72
3 76 77 75
3 62 79 78
3 62 63 79
3 80 82 81
3 80 83 82
3 52 80 81
3 52 81 84
3 55 52 84
3 55 84 85
3 60 55 85
3 60 85 86
3 87 60 86
3 87 61 60
3 88 90 89
3 88 91 90
3 89 90 92
3 91 92 90
3 89 92 93
3 91 94 92
3 95 89 93
3 95 88 89
3 96 98 97
3 96 99 98
3 97 100 96
3 97 101 100
3 102 100 101
3 102 103 100
3 104 103 102
3 99 103 104
3 97 105 101
3 97 106 105
3 98 106 97
3 105 107 101
3 101 108 102
3 101 107 108
3 102 108 104
3 98 109 106
3 99 109 98
3 99 104 109
3 110 112 111
3 110 113 112
3 114 116 115
3 114 115 117
3 114 117 118
3 114 118 119
3 117 120 118
3 117 121 120
3 122 114 119
3 122 120 121
3 122 119 123
3 122 123 120
3 122 121 124
3 122 124 125
3 126 128 127
3 126 129 128
3 130 132 131
3 130 133 132
3 133 130 134
3 133 134 135
3 136 135 134
3 136 134 137
3 138 136 137
3 131 138 137
3 133 135 139
3 133 139 140
3 132 133 140
3 139 135 141
3 135 142 141
3 135 136 142
3 136 138 142
3 132 140 143
3 131 132 143
3 131 143 138
3 144 146 145
3 144 147 146
3 148 150 149
3 148 151 150
3 148 152 151
3 148 153 152
3 151 152 154
3 151 154 155
3 156 153 148
3 156 155 154
3 156 157 153
3 156 154 157
3 156 158 155
3 156 159 158
3 160 162 161
3 160 163 162
3 164 166 165
3 164 167 166
3 168 164 165
3 166 167 169
3 166 169 170
3 170 169 171
3 170 171 172
3 171 173 172
3 171 174 173
3 165 166 175
3 165 175 176
3 166 177 175
3 166 170 177
3 170 178 177
3 170 172 178
3 172 179 178
3 172 173 179
3 169 167 180
3 169 180 181
3 171 169 181
3 181 180 182
3 167 182 180
3 181 182 183
3 171 181 183
3 174 171 183
3 174 183 184
3 185 174 184
3 185 173 174
3 185 186 173
3 187 186 185
3 187 188 186
3 189 188 187
3 189 187 190
3 186 188 191
3 186 191 192
3 173 186 192
3 188 193 191
3 188 189 193
3 189 194 193
3 189 195 194
3 190 195 189
3 173 192 179
3 190 187 196
3 190 196 197
3 184 197 196
3 164 190 197
3 164 197 182
3 167 164 182
3 187 198 196
3 187 185 198
3 185 184 198
3 184 196 198
3 183 197 184
3 183 182 197
3 194 195 199
3 194 199 200
3 195 201 199
3 195 168 201
3 202 194 200
3 202 200 203
3 204 202 203
3 204 203 205
3 203 200 206
3 203 206 207
3 205 203 207
3 200 208 206
3 200 199 208
3 199 209 208
3 199 201 209
3 205 207 210
3 211 213 212
3 211 214 213
3 212 213 215
3 212 215 216
3 212 216 217
3 218 220 219
3 218 221 220
3 218 222 221
3 218 223 222
3 218 224 223
3 212 224 218
3 212 217 224
3 225 227 226
3 225 228 227
3 229 228 225
3 229 230 228
3 231 165 176
3 231 168 165
3 168 231 232
3 168 232 201
3 231 233 232
3 231 234 233
3 234 235 233
3 234 236 235
3 236 205 235
3 236 204 205
3 201 232 237
3 201 237 209
3 232 238 237
3 232 233 238
3 233 239 238
3 233 235 239
3 235 210 239
3 235 205 210
3 190 168 195
3 190 164 168
3 226 241 240
3 226 227 241
3 242 244 243
3 242 245 244
3 246 245 242
3 246 247 245
3 245 247 248
3 245 248 249
3 244 245 249
3 244 249 250
3 251 253 252
3 251 254 253
3 253 254 255
3 253 255 256
3 257 247 246
3 257 258 247
3 247 258 259
3 247 259 248
3 249 248 259
3 249 259 250
3 260 262 261
3 260 263 262
3 264 260 261
3 264 261 265
3 261 266 265
3 261 267 266
3 262 267 261
3 262 268 267
3 269 271 270
3 269 272 271
3 271 273 270
3 271 274 273
3 275 265 276
3 275 264 265
3 265 277 276
3 265 266 277
3 267 277 266
3 267 268 277
3 278 280 279
3 278 281 280
3 282 281 278
3 282 278 283
3 282 284 281
3 282 285 284
3 281 286 280
3 281 284 286
3 278 287 283
3 278 288 287
3 279 288 278
3 279 289 288
3 290 289 279
3 290 279 280
3 290 280 291
3 280 292 291
3 280 286 292
3 290 293 289
3 290 291 294
3 292 294 291
3 290 294 295
3 293 290 295
3 293 295 296
3 293 297 289
3 293 296 297
3 295 297 296
3 295 294 298
3 295 298 299
3 295 299 297
3 292 300 294
3 298 294 300
3 298 300 301
3 299 302 297
3 299 303 302
3 303 304 302
3 303 305 304
3 306 305 303
3 306 303 307
3 303 298 307
3 303 299 298
3 306 307 308
3 306 308 309
3 285 306 309
3 285 282 306
3 307 301 308
3 307 298 301
3 287 304 305
3 287 305 283
3 310 283 305
3 283 310 311
3 310 305 312
3 288 304 287
3 288 302 304
3 283 313 282
3 283 311 313
3 313 306 282
3 313 314 306
3 305 306 314
3 305 314 315
3 305 315 312
3 316 318 317
3 316 319 318
3 318 319 320
3 318 320 321
3 319 322 320
3 319 316 322
3 322 321 320
3 322 323 321
3 318 323 317
3 318 321 323
3 324 326 325
3 324 327 326
3 326 328 325
3 326 329 328
3 330 328 329
3 330 327 324
3 330 331 328
3 330 324 331
3 324 332 331
3 324 333 332
3 334 336 335
3 334 337 336
3 338 337 334
3 338 339 337
3 335 341 340
3 335 336 341
3 289 302 288
3 289 297 302
3 342 344 343
3 342 345 344
3 346 345 342
3 346 347 345
3 347 344 345
3 348 347 346
3 348 349 347
3 347 349 350
3 347 350 351
3 347 351 344
3 352 342 343
3 352 346 342
3 353 355 354
3 353 356 355
3 356 353 357
3 356 357 358
3 359 361 360
3 359 362 361
3 350 361 362
3 350 349 361
3 349 360 361
3 349 348 360
3 348 359 360
3 348 363 359
3 348 352 363
3 348 346 352
3 364 366 365
3 364 367 366
3 368 364 365
3 368 365 369
3 369 365 366
3 370 368 369
3 370 369 371
3 369 372 371
3 369 373 372
3 369 366 373
3 374 364 368
3 374 367 364
3 375 377 376
3 375 378 377
3 376 379 375
3 376 380 379
3 381 383 382
3 381 384 383
3 372 382 383
3 372 383 371
3 371 383 384
3 371 384 370
3 370 384 381
3 370 381 385
3 370 385 374
3 370 374 368
