ply
format ascii 1.0
element vertex 398
property float x
property float y
property float z
property uchar red
property uchar green
property uchar blue
element face 440
property list uchar int vertex_index
end_header
-0.31979 -0.14304 1.6153 96 94 95
-0.51663 -0.14304 1.47747 96 94 95
-0.98704 -0.14304 2.1566 96 94 95
-0.78872 -0.14304 2.29229 96 94 95
-1.13971 -0.14304 2.37699 96 94 95
-0.94287 -0.14304 2.51482 96 94 95
-1.1377 -0.14304 2.42141 96 94 95
-0.98643 -0.14304 2.52733 96 94 95
-0.97062 -0.14304 2.62095 255 242 245
-1.23757 -0.14304 2.43402 255 242 245
-1.23757 0.14848 2.43402 255 242 245
-0.97062 0.14848 2.62095 255 242 245
-0.86715 0.14848 2.56687 255 242 245
-0.86715 -0.14304 2.56687 255 242 245
-0.71289 0.14848 2.34417 255 242 245
-0.71289 -0.14304 2.34417 255 242 245
-0.97062 0.14848 2.62095 249 236 239
-1.23757 0.14848 2.43402 249 236 239
-1.21451 0.14848 2.32364 249 236 239
-0.86715 0.14848 2.56687 249 236 239
-1.06287 0.14848 2.10471 249 236 239
-0.71289 0.14848 2.34417 249 236 239
-1.21451 -0.14304 2.32364 249 236 239
-1.23757 -0.14304 2.43402 249 236 239
-1.06287 -0.14304 2.10471 249 236 239
-0.98704 -0.14304 2.1566 249 236 239
-1.13971 -0.14304 2.37699 249 236 239
-1.1377 -0.14304 2.42141 249 236 239
-0.98643 -0.14304 2.52733 249 236 239
-0.97062 -0.14304 2.62095 249 236 239
-0.94287 -0.14304 2.51482 249 236 239
-0.86715 -0.14304 2.56687 249 236 239
-0.78872 -0.14304 2.29229 249 236 239
-0.71289 -0.14304 2.34417 249 236 239
-0.59189 -0.14304 1.42477 249 222 227
-0.59189 0.14848 1.42477 249 222 227
-1.06287 0.14848 2.10471 249 222 227
-1.06287 -0.14304 2.10471 249 222 227
-0.98704 -0.14304 2.1566 249 222 227
-0.51663 -0.14304 1.47747 249 222 227
-0.24452 0.14848 1.668 251 229 233
-0.24452 -0.14304 1.668 251 229 233
-0.71289 -0.14304 2.34417 251 229 233
-0.71289 0.14848 2.34417 251 229 233
-0.71289 0.14848 2.34417 249 222 227
-0.24452 0.14848 1.668 249 222 227
-0.78872 -0.14304 2.29229 249 222 227
-0.71289 -0.14304 2.34417 249 222 227
-0.24452 -0.14304 1.668 249 222 227
-0.31979 -0.14304 1.6153 249 222 227
0.31979 -0.14304 1.6153 96 94 95
0.78872 -0.14304 2.29229 96 94 95
0.98704 -0.14304 2.1566 96 94 95
0.51663 -0.14304 1.47747 96 94 95
1.13971 -0.14304 2.37699 96 94 95
0.94287 -0.14304 2.51482 96 94 95
1.1377 -0.14304 2.42141 96 94 95
0.98643 -0.14304 2.52733 96 94 95
0.97062 -0.14304 2.62095 255 242 245
0.97062 0.14848 2.62095 255 242 245
1.23757 0.14848 2.43402 255 242 245
1.23757 -0.14304 2.43402 255 242 245
0.86715 0.14848 2.56687 255 242 245
0.86715 -0.14304 2.56687 255 242 245
0.71289 0.14848 2.34417 255 242 245
0.71289 -0.14304 2.34417 255 242 245
0.97062 0.14848 2.62095 249 236 239
0.86715 0.14848 2.56687 249 236 239
1.21451 0.14848 2.32364 249 236 239
1.23757 0.14848 2.43402 249 236 239
1.06287 0.14848 2.10471 249 236 239
0.71289 0.14848 2.34417 249 236 239
1.21451 -0.14304 2.32364 249 236 239
1.23757 -0.14304 2.43402 249 236 239
1.06287 -0.14304 2.10471 249 236 239
0.59189 -0.14304 1.42477 249 222 227
1.06287 -0.14304 2.10471 249 222 227
1.06287 0.14848 2.10471 249 222 227
0.59189 0.14848 1.42477 249 222 227
0.71289 0.14848 2.34417 249 222 227
0.24452 0.14848 1.668 249 222 227
0.24452 0.14848 1.668 251 229 233
0.71289 0.14848 2.34417 251 229 233
0.71289 -0.14304 2.34417 251 229 233
0.24452 -0.14304 1.668 251 229 233
0.51663 -0.14304 1.47747 249 222 227
0.98704 -0.14304 2.1566 249 222 227
0.86715 -0.14304 2.56687 249 236 239
0.94287 -0.14304 2.51482 249 236 239
0.78872 -0.14304 2.29229 249 236 239
0.71289 -0.14304 2.34417 249 236 239
0.97062 -0.14304 2.62095 249 236 239
0.98643 -0.14304 2.52733 249 236 239
1.1377 -0.14304 2.42141 249 236 239
1.13971 -0.14304 2.37699 249 236 239
0.98704 -0.14304 2.1566 249 236 239
0.78872 -0.14304 2.29229 249 222 227
0.31979 -0.14304 1.6153 249 222 227
0.24452 -0.14304 1.668 249 222 227
0.71289 -0.14304 2.34417 249 222 227
-0.09511 -0.57239 1.1626 237 139 152
-0.09511 -0.57239 1.25507 237 139 152
0.09511 -0.57239 1.25507 237 139 152
0.09511 -0.57239 1.1626 237 139 152
0.09511 -0.48892 1.25507 237 139 152
-0.09511 -0.48892 1.25507 237 139 152
0.09511 -0.48892 1.1626 237 139 152
-0.09511 -0.48892 1.1626 237 139 152
0.52936 -0.59542 1.64543 255 255 255
0.52936 -0.648 1.64543 255 255 255
0.21215 -0.648 1.64543 255 255 255
0.21215 -0.59542 1.64543 255 255 255
0.52936 -0.59542 1.27025 255 255 255
0.52936 -0.648 1.27025 255 255 255
0.21215 -0.648 1.27025 255 255 255
0.21215 -0.59542 1.27025 255 255 255
0.21215 -0.648 1.31744 255 255 255
0.46129 -0.648 1.31744 255 255 255
0.46129 -0.648 1.59863 255 255 255
0.41682 -0.648 1.31744 255 255 255
0.2455 -0.648 1.31744 255 255 255
0.21215 -0.648 1.59863 255 255 255
0.26553 -0.648 1.50731 255 255 255
0.26553 -0.648 1.585 255 255 255
0.34372 -0.648 1.585 255 255 255
0.34372 -0.648 1.50731 255 255 255
0.41682 -0.648 1.37224 13 123 150
0.46129 -0.648 1.31744 13 123 150
0.41682 -0.648 1.31744 13 123 150
0.46129 -0.648 1.59863 13 123 150
0.34372 -0.648 1.585 13 123 150
0.34372 -0.648 1.50731 13 123 150
0.26553 -0.648 1.585 13 123 150
0.21215 -0.648 1.59863 13 123 150
0.2455 -0.648 1.37224 13 123 150
0.26553 -0.648 1.50731 13 123 150
0.21215 -0.648 1.31744 13 123 150
0.2455 -0.648 1.31744 13 123 150
0.2455 -0.648 1.37224 111 171 182
0.41682 -0.648 1.37224 111 171 182
0.41682 -0.648 1.31744 111 171 182
0.2455 -0.648 1.31744 111 171 182
-0.52936 -0.59542 1.64543 255 255 255
-0.21215 -0.59542 1.64543 255 255 255
-0.21215 -0.648 1.64543 255 255 255
-0.52936 -0.648 1.64543 255 255 255
-0.52936 -0.59542 1.27025 255 255 255
-0.52936 -0.648 1.27025 255 255 255
-0.21215 -0.648 1.27025 255 255 255
-0.21215 -0.59542 1.27025 255 255 255
-0.21215 -0.648 1.31744 255 255 255
-0.46129 -0.648 1.31744 255 255 255
-0.46129 -0.648 1.59863 255 255 255
-0.41682 -0.648 1.31744 255 255 255
-0.2455 -0.648 1.31744 255 255 255
-0.21215 -0.648 1.59863 255 255 255
-0.26553 -0.648 1.50731 255 255 255
-0.34372 -0.648 1.50731 255 255 255
-0.34372 -0.648 1.585 255 255 255
-0.26553 -0.648 1.585 255 255 255
-0.41682 -0.648 1.37224 13 123 150
-0.41682 -0.648 1.31744 13 123 150
-0.46129 -0.648 1.31744 13 123 150
-0.46129 -0.648 1.59863 13 123 150
-0.34372 -0.648 1.585 13 123 150
-0.34372 -0.648 1.50731 13 123 150
-0.26553 -0.648 1.585 13 123 150
-0.21215 -0.648 1.59863 13 123 150
-0.2455 -0.648 1.37224 13 123 150
-0.26553 -0.648 1.50731 13 123 150
-0.21215 -0.648 1.31744 13 123 150
-0.2455 -0.648 1.31744 13 123 150
-0.2455 -0.648 1.37224 111 171 182
-0.2455 -0.648 1.31744 111 171 182
-0.41682 -0.648 1.31744 111 171 182
-0.41682 -0.648 1.37224 111 171 182
-0.30253 -0.83862 1.70536 249 222 227
-0.30253 -0.83862 2.04634 249 222 227
-0.24267 -0.89365 2.04634 249 222 227
-0.24267 -0.89365 1.70536 249 222 227
-0.30253 -0.71798 2.04634 249 222 227
0.24267 -0.89365 1.70536 249 222 227
0.24267 -0.89365 2.04634 249 222 227
0.30253 -0.83862 1.70536 249 222 227
0.30253 -0.83862 2.04634 249 222 227
0.30253 -0.3436 2.04634 249 222 227
0.30253 -0.3436 1.70536 249 222 227
-0.21435 -0.85835 2.08801 249 222 227
-0.26724 -0.80975 2.08801 249 222 227
0.21435 -0.85835 2.08801 249 222 227
0.26724 -0.80975 2.08801 249 222 227
0.26724 -0.37248 2.08801 249 222 227
-0.21611 -0.85768 1.66708 249 222 227
0.21611 -0.85768 1.66708 249 222 227
-0.26943 -0.8092 1.66708 249 222 227
0.26943 -0.8092 1.66708 249 222 227
0.26943 -0.37303 1.66708 249 222 227
0.24267 -0.28858 1.70536 249 222 227
0.24267 -0.28858 2.04634 249 222 227
-0.24267 -0.28858 1.70536 249 222 227
-0.24267 -0.28858 2.04634 249 222 227
-0.30253 -0.3436 2.04634 249 222 227
-0.30253 -0.3436 1.70536 249 222 227
-0.21435 -0.32388 2.08801 249 222 227
0.21435 -0.32388 2.08801 249 222 227
-0.26724 -0.37248 2.08801 249 222 227
-0.26724 -0.42604 2.08801 249 222 227
-0.30253 -0.46916 2.04634 249 222 227
-0.21611 -0.32455 1.66708 249 222 227
-0.26943 -0.37303 1.66708 249 222 227
0.21611 -0.32455 1.66708 249 222 227
-0.30257 -0.46916 2.18844 249 222 227
-0.26714 -0.42604 2.18844 249 222 227
-0.30257 -0.71798 2.18844 249 222 227
0.00862 -0.42604 2.08801 249 222 227
0.00862 -0.42604 2.18844 249 222 227
0.04995 -0.46774 2.08801 249 222 227
0.04995 -0.46774 2.18844 249 222 227
-0.2442 -0.45268 2.22867 249 222 227
-0.01352 -0.45268 2.22867 249 222 227
-0.27383 -0.48723 2.22867 249 222 227
-0.27383 -0.69991 2.22867 249 222 227
0.02106 -0.48609 2.22867 249 222 227
0.21435 -0.32388 2.08801 251 229 233
0.26724 -0.37248 2.08801 251 229 233
-0.26724 -0.37248 2.08801 251 229 233
-0.21435 -0.32388 2.08801 251 229 233
-0.26724 -0.42604 2.08801 251 229 233
0.00862 -0.42604 2.08801 251 229 233
0.04995 -0.46774 2.08801 251 229 233
0.26724 -0.80975 2.08801 251 229 233
0.21435 -0.85835 2.08801 251 229 233
-0.21435 -0.85835 2.08801 251 229 233
-0.26724 -0.80975 2.08801 251 229 233
-0.26724 -0.7611 2.08801 251 229 233
0.00862 -0.7611 2.08801 251 229 233
0.04995 -0.71893 2.08801 251 229 233
0.02106 -0.48609 2.22867 251 229 233
0.02106 -0.70067 2.22867 251 229 233
-0.27383 -0.69991 2.22867 251 229 233
-0.27383 -0.48723 2.22867 251 229 233
-0.01352 -0.45268 2.22867 251 229 233
-0.2442 -0.45268 2.22867 251 229 233
-0.26724 -0.7611 2.08801 249 222 227
-0.26714 -0.7611 2.18844 249 222 227
0.00862 -0.7611 2.18844 249 222 227
0.00862 -0.7611 2.08801 249 222 227
0.04995 -0.71893 2.18844 249 222 227
0.04995 -0.71893 2.08801 249 222 227
-0.2442 -0.73445 2.22867 249 222 227
-0.01352 -0.73445 2.22867 249 222 227
0.02106 -0.70067 2.22867 249 222 227
-0.01352 -0.73445 2.22867 251 229 233
-0.2442 -0.73445 2.22867 251 229 233
0.69211 -0.41095 0.98745 249 222 227
0.69211 -0.41095 1.27871 249 222 227
1.02016 -0.41095 1.27871 249 222 227
1.02016 -0.41095 0.98745 249 222 227
0.69211 -0.11968 0.98745 249 222 227
1.02016 -0.11968 0.98745 249 222 227
1.06257 -0.16166 1.02942 249 222 227
1.06257 -0.36897 1.02942 249 222 227
1.06257 -0.36897 1.23674 249 222 227
0.69211 -0.41095 1.27871 251 229 233
0.69211 -0.11968 1.27871 251 229 233
1.02016 -0.11968 1.27871 251 229 233
1.02016 -0.41095 1.27871 251 229 233
1.06257 -0.36897 1.23674 251 229 233
1.06257 -0.16166 1.23674 251 229 233
0.69211 -0.11968 1.27871 249 222 227
1.02016 -0.11968 1.27871 249 222 227
1.06257 -0.16166 1.23674 249 222 227
-0.69211 -0.41095 0.98745 249 222 227
-1.02016 -0.41095 0.98745 249 222 227
-1.02016 -0.41095 1.27871 249 222 227
-0.69211 -0.41095 1.27871 249 222 227
-0.69211 -0.11968 0.98745 249 222 227
-1.02016 -0.11968 0.98745 249 222 227
-1.06257 -0.16166 1.02942 249 222 227
-1.06257 -0.36897 1.02942 249 222 227
-1.06257 -0.36897 1.23674 249 222 227
-0.69211 -0.41095 1.27871 251 229 233
-1.02016 -0.41095 1.27871 251 229 233
-1.02016 -0.11968 1.27871 251 229 233
-0.69211 -0.11968 1.27871 251 229 233
-1.06257 -0.36897 1.23674 251 229 233
-1.06257 -0.16166 1.23674 251 229 233
-0.69211 -0.11968 1.27871 249 222 227
-1.02016 -0.11968 1.27871 249 222 227
-1.06257 -0.16166 1.23674 249 222 227
-0.70826 -0.5194 0.28319 249 222 227
-0.70826 0.60788 0.28319 249 222 227
-0.70826 0.60788 1.75527 249 222 227
-0.70826 -0.5194 1.75527 249 222 227
-0.60163 -0.60993 1.75527 249 222 227
-0.60163 -0.60993 0.28319 249 222 227
-0.64912 -0.46792 1.8351 249 222 227
-0.55138 -0.55091 1.8351 249 222 227
-0.64912 0.5564 1.8351 249 222 227
-0.55017 -0.5495 0.18148 249 222 227
-0.6477 -0.46669 0.18148 249 222 227
-0.6477 0.55517 0.18148 249 222 227
-0.60163 0.69841 0.28319 249 222 227
-0.60163 0.69841 1.75527 249 222 227
-0.55138 0.63939 1.8351 249 222 227
-0.55017 0.63797 0.18148 249 222 227
0.60163 0.69841 1.75527 249 222 227
0.60163 0.69841 0.28319 249 222 227
0.55017 0.63797 0.18148 249 222 227
0.6477 0.55517 0.18148 249 222 227
0.70826 0.60788 1.75527 249 222 227
0.70826 0.60788 0.28319 249 222 227
0.55138 0.63939 1.8351 249 222 227
0.64912 0.5564 1.8351 249 222 227
0.6477 -0.46669 0.18148 249 222 227
0.70826 -0.5194 0.28319 249 222 227
0.55017 -0.5495 0.18148 249 222 227
0.60163 -0.60993 0.28319 249 222 227
0.60163 -0.60993 1.75527 249 222 227
0.70826 -0.5194 1.75527 249 222 227
0.64912 -0.46792 1.8351 249 222 227
0.55138 -0.55091 1.8351 249 222 227
-0.40636 -0.60993 0.32989 249 222 227
-0.44122 -0.60993 0.36824 249 222 227
0.40636 -0.60993 0.32989 249 222 227
-0.44122 -0.60993 1.36619 249 222 227
0.44122 -0.60993 1.36619 249 222 227
0.44122 -0.60993 0.36824 249 222 227
-0.1458 -0.60993 1.17155 139 65 66
-0.1458 -0.60993 1.30766 139 65 66
-0.1458 -0.49627 1.30766 139 65 66
-0.1458 -0.49627 1.17155 139 65 66
0.1458 -0.49627 1.17155 139 65 66
0.1458 -0.49627 1.30766 139 65 66
0.1458 -0.60993 1.17155 139 65 66
0.1458 -0.60993 1.30766 139 65 66
-0.44122 -0.60993 0.36824 249 244 248
-0.44122 -0.60993 1.36619 249 244 248
-0.1458 -0.60993 1.30766 249 244 248
-0.1458 -0.60993 1.17155 249 244 248
0.44122 -0.60993 1.36619 249 244 248
0.1458 -0.60993 1.30766 249 244 248
0.1458 -0.60993 1.17155 249 244 248
0.44122 -0.60993 0.36824 249 244 248
0.40636 -0.60993 0.32989 249 244 248
-0.40636 -0.60993 0.32989 249 244 248
-0.64912 -0.46792 1.8351 251 229 233
-0.64912 0.5564 1.8351 251 229 233
0.64912 0.5564 1.8351 251 229 233
0.64912 -0.46792 1.8351 251 229 233
-0.55138 -0.55091 1.8351 251 229 233
0.55138 -0.55091 1.8351 251 229 233
-0.55138 0.63939 1.8351 251 229 233
0.55138 0.63939 1.8351 251 229 233
0.20672 -0.77054 0 249 222 227
0.20672 -0.77054 0.19416 249 222 227
0.4862 -0.77033 0.19416 249 222 227
0.4862 -0.77033 0 249 222 227
0.16364 -0.71974 0 249 222 227
0.52516 -0.71945 0 249 222 227
0.16648 0.33143 0 249 222 227
0.528 0.33171 0 249 222 227
0.528 0.33171 0.19416 249 222 227
0.52516 -0.71945 0.19416 249 222 227
0.16364 -0.71974 0.19416 249 222 227
0.16364 -0.71974 0.19416 251 229 233
0.16648 0.33143 0.19416 251 229 233
0.528 0.33171 0.19416 251 229 233
0.52516 -0.71945 0.19416 251 229 233
0.20672 -0.77054 0.19416 251 229 233
0.4862 -0.77033 0.19416 251 229 233
0.21443 0.40982 0.19416 249 222 227
0.21443 0.40982 0 249 222 227
0.48031 0.41029 0 249 222 227
0.48031 0.41029 0.19416 249 222 227
0.16648 0.33143 0.19416 249 222 227
-0.20672 -0.77054 0 249 222 227
-0.4862 -0.77033 0 249 222 227
-0.4862 -0.77033 0.19416 249 222 227
-0.20672 -0.77054 0.19416 249 222 227
-0.16364 -0.71974 0 249 222 227
-0.52516 -0.71945 0 249 222 227
-0.16648 0.33143 0 249 222 227
-0.528 0.33171 0 249 222 227
-0.528 0.33171 0.19416 249 222 227
-0.52516 -0.71945 0.19416 249 222 227
-0.16364 -0.71974 0.19416 249 222 227
-0.16364 -0.71974 0.19416 251 229 233
-0.52516 -0.71945 0.19416 251 229 233
-0.528 0.33171 0.19416 251 229 233
-0.16648 0.33143 0.19416 251 229 233
-0.20672 -0.77054 0.19416 251 229 233
-0.4862 -0.77033 0.19416 251 229 233
-0.21443 0.40982 0.19416 249 222 227
-0.48031 0.41029 0.19416 249 222 227
-0.48031 0.41029 0 249 222 227
-0.21443 0.40982 0 249 222 227
-0.16648 0.33143 0.19416 249 222 227
3 0 2 1
3 0 3 2
3 3 4 2
3 3 5 4
3 5 6 4
3 5 7 6
3 8 10 9
3 8 11 10
3 12 11 8
3 12 8 13
3 14 12 13
3 14 13 15
3 16 18 17
3 16 19 18
3 19 20 18
3 19 21 20
3 22 17 18
3 22 23 17
3 24 22 18
3 24 18 20
3 25 22 24
3 25 26 22
3 22 26 27
3 22 27 23
3 23 27 28
3 23 28 29
3 29 28 30
3 29 30 31
3 31 30 32
3 31 32 33
3 34 36 35
3 34 37 36
3 34 38 37
3 34 39 38
3 40 42 41
3 40 43 42
3 44 35 36
3 44 45 35
3 46 48 47
3 46 49 48
3 50 52 51
3 50 53 52
3 51 52 54
3 51 54 55
3 55 54 56
3 55 56 57
3 58 60 59
3 58 61 60
3 62 58 59
3 62 63 58
3 64 63 62
3 64 65 63
3 66 68 67
3 66 69 68
3 67 68 70
3 67 70 71
3 72 68 69
3 72 69 73
3 74 68 72
3 74 70 68
3 75 77 76
3 75 78 77
3 79 77 78
3 79 78 80
3 81 83 82
3 81 84 83
3 75 86 85
3 75 76 86
3 87 89 88
3 87 90 89
3 91 87 88
3 91 88 92
3 73 91 92
3 73 92 93
3 72 73 93
3 72 93 94
3 95 72 94
3 95 74 72
3 96 98 97
3 96 99 98
3 100 102 101
3 100 103 102
3 101 102 104
3 103 104 102
3 101 104 105
3 103 106 104
3 107 101 105
3 107 100 101
3 108 110 109
3 108 111 110
3 109 112 108
3 109 113 112
3 114 112 113
3 114 115 112
3 116 115 114
3 111 115 116
3 109 117 113
3 109 118 117
3 110 118 109
3 117 119 113
3 113 120 114
3 113 119 120
3 114 120 116
3 110 121 118
3 111 121 110
3 111 116 121
3 122 124 123
3 122 125 124
3 126 128 127
3 126 127 129
3 126 129 130
3 126 130 131
3 129 132 130
3 129 133 132
3 134 126 131
3 134 132 133
3 134 131 135
3 134 135 132
3 134 133 136
3 134 136 137
3 138 140 139
3 138 141 140
3 142 144 143
3 142 145 144
3 145 142 146
3 145 146 147
3 148 147 146
3 148 146 149
3 150 148 149
3 143 150 149
3 145 147 151
3 145 151 152
3 144 145 152
3 151 147 153
3 147 154 153
3 147 148 154
3 148 150 154
3 144 152 155
3 143 144 155
3 143 155 150
3 156 158 157
3 156 159 158
3 160 162 161
3 160 163 162
3 160 164 163
3 160 165 164
3 163 164 166
3 163 166 167
3 168 165 160
3 168 167 166
3 168 169 165
3 168 166 169
3 168 170 167
3 168 171 170
3 172 174 173
3 172 175 174
3 176 178 177
3 176 179 178
3 180 176 177
3 178 179 181
3 178 181 182
3 182 181 183
3 182 183 184
3 183 185 184
3 183 186 185
3 177 178 187
3 177 187 188
3 178 189 187
3 178 182 189
3 182 190 189
3 182 184 190
3 184 191 190
3 184 185 191
3 181 179 192
3 181 192 193
3 183 181 193
3 193 192 194
3 179 194 192
3 193 194 195
3 183 193 195
3 186 183 195
3 186 195 196
3 197 186 196
3 197 185 186
3 197 198 185
3 199 198 197
3 199 200 198
3 201 200 199
3 201 199 202
3 198 200 203
3 198 203 204
3 185 198 204
3 200 205 203
3 200 201 205
3 201 206 205
3 201 207 206
3 202 207 201
3 185 204 191
3 202 199 208
3 202 208 209
3 196 209 208
3 176 202 209
3 176 209 194
3 179 176 194
3 199 210 208
3 199 197 210
3 197 196 210
3 196 208 210
3 195 209 196
3 195 194 209
3 206 207 211
3 206 211 212
3 207 213 211
3 207 180 213
3 214 206 212
3 214 212 215
3 216 214 215
3 216 215 217
3 215 212 218
3 215 218 219
3 217 215 219
3 212 220 218
3 212 211 220
3 211 221 220
3 211 213 221
3 217 219 222
3 223 225 224
3 223 226 225
3 224 225 227
3 224 227 228
3 224 228 229
3 230 232 231
3 230 233 232
3 230 234 233
3 230 235 234
3 230 236 235
3 224 236 230
3 224 229 236
3 237 239 238
3 237 240 239
3 241 240 237
3 241 242 240
3 243 177 188
3 243 180 177
3 180 243 244
3 180 244 213
3 243 245 244
3 243 246 245
3 246 247 245
3 246 248 247
3 248 217 247
3 248 216 217
3 213 244 249
3 213 249 221
3 244 250 249
3 244 245 250
3 245 251 250
3 245 247 251
3 247 222 251
3 247 217 222
3 202 180 207
3 202 176 180
3 238 253 252
3 238 239 253
3 254 256 255
3 254 257 256
3 258 257 254
3 258 259 257
3 257 259 260
3 257 260 261
3 256 257 261
3 256 261 262
3 263 265 264
3 263 266 265
3 265 266 267
3 265 267 268
3 269 259 258
3 269 270 259
3 259 270 271
3 259 271 260
3 261 260 271
3 261 271 262
3 272 274 273
3 272 275 274
3 276 272 273
3 276 273 277
3 273 278 277
3 273 279 278
3 274 279 273
3 274 280 279
3 281 283 282
3 281 284 283
3 283 285 282
3 283 286 285
3 287 277 288
3 287 276 277
3 277 289 288
3 277 278 289
3 279 289 278
3 279 280 289
3 290 292 291
3 290 293 292
3 294 293 290
3 294 290 295
3 294 296 293
3 294 297 296
3 293 298 292
3 293 296 298
3 290 299 295
3 290 300 299
3 291 300 290
3 291 301 300
3 302 301 291
3 302 291 292
3 302 292 303
3 292 304 303
3 292 298 304
3 302 305 301
3 302 303 306
3 304 306 303
3 302 306 307
3 305 302 307
3 305 307 308
3 305 309 301
3 305 308 309
3 307 309 308
3 307 306 310
3 307 310 311
3 307 311 309
3 304 312 306
3 310 306 312
3 310 312 313
3 311 314 309
3 311 315 314
3 315 316 314
3 315 317 316
3 318 317 315
3 318 315 319
3 315 310 319
3 315 311 310
3 318 319 320
3 318 320 321
3 297 318 321
3 297 294 318
3 319 313 320
3 319 310 313
3 299 316 317
3 299 317 295
3 322 295 317
3 295 322 323
3 322 317 324
3 300 316 299
3 300 314 316
3 295 325 294
3 295 323 325
3 325 318 294
3 325 326 318
3 317 318 326
3 317 326 327
3 317 327 324
3 328 330 329
3 328 331 330
3 330 331 332
3 330 332 333
3 331 334 332
3 331 328 334
3 334 333 332
3 334 335 333
3 330 335 329
3 330 333 335
3 336 338 337
3 336 339 338
3 338 340 337
3 338 341 340
3 342 340 341
3 342 339 336
3 342 343 340
3 342 336 343
3 336 344 343
3 336 345 344
3 346 348 347
3 346 349 348
3 350 349 346
3 350 351 349
3 347 353 352
3 347 348 353
3 301 314 300
3 301 309 314
3 354 356 355
3 354 357 356
3 358 357 354
3 358 359 357
3 359 356 357
3 360 359 358
3 360 361 359
3 359 361 362
3 359 362 363
3 359 363 356
3 364 354 355
3 364 358 354
3 365 367 366
3 365 368 367
3 368 365 369
3 368 369 370
3 371 373 372
3 371 374 373
3 362 373 374
3 362 361 373
3 361 372 373
3 361 360 372
3 360 371 372
3 360 375 371
3 360 364 375
3 360 358 364
3 376 378 377
3 376 379 378
3 380 376 377
3 380 377 381
3 381 377 378
3 382 380 381
3 382 381 383
3 381 384 383
3 381 385 384
3 381 378 385
3 386 376 380
3 386 379 376
3 387 389 388
3 387 390 389
3 388 391 387
3 388 392 391
3 393 395 394
3 393 396 395
3 384 394 395
3 384 395 383
3 383 395 396
3 383 396 382
3 382 396 393
3 382 393 397
3 382 397 386
3 382 386 380
