mtllib Mismagius.mtl
v -0.29633 0.477458 -0.00212258
vt 0.932545 0.576085
vn -0.7687849 0.634841 -0.07711519
v -0.201222 0.451471 0.086656
vt 0.924331 0.571513
vn -0.5024681 -0.6978372 0.5104401
v -0.212358 0.526468 0.166137
vt 0.909402 0.582826
vn -0.5896401 0.6520771 0.4765711
v -0.243295 0.4006 -0.0962857
vt 0.945496 0.565513
vn -0.6551499 -0.740827 0.148169
v -0.13384 0.532333 0.0549321
vt 0.924697 0.583632
vn -0.5955502 0.8019953 0.04608112
v -0.269846 0.411966 -0.215288
vt 0.961864 0.567077
vn -0.4379611 0.7484351 -0.4980311
v -0.141282 0.491309 -0.0773184
vt 0.942888 0.57799
vn -0.5672941 0.6681141 -0.4814571
v -0.08692 0.466544 0.149506
vt 0.908836 0.574584
vn -0.260831 -0.6278679 0.7333139
v -0.168536 0.352787 -0.23216
vt 0.964185 0.558937
vn -0.4329929 -0.8666588 -0.2478299
v 0 0.566571 0.166799
vt 0.909311 0.588342
vn 0.002571859 0.9133747 0.4071119
v -0.110118 0.369998 -0.349944
vt 0.980386 0.561304
vn -0.165116 0.690784 -0.7039561
v 0 0.462833 -0.168836
vt 0.955475 0.574073
vn 0 0.5826041 -0.8127561
v -0.00496673 0.542204 0.235962
vt 0.899798 0.58499
vn -0.01369801 0.4368243 0.8994426
v -0.00248336 0.488087 0.217428
vt 0.902347 0.577547
vn 0.0017318 -0.41669 0.909047
v 0 0.422469 0.175775
vt 0.908076 0.568521
vn 0.011112 -0.5355881 0.8444062
v 0.110118 0.369998 -0.349944
vn 0.165116 0.690784 -0.7039561
v 0.141282 0.491309 -0.0773184
vn 0.5672941 0.6681141 -0.4814571
v 0 0.339041 -0.290844
vt 0.972257 0.557046
vn 0 -0.9369599 -0.349437
v 0.08692 0.466544 0.149506
vn 0.2533531 -0.6193061 0.7431501
v 0.212358 0.526468 0.166137
vn 0.5877709 0.648432 0.483799
v 0.13384 0.532333 0.0549321
vn 0.5955502 0.8019953 0.04608102
v 0.269846 0.411966 -0.215288
vn 0.4379611 0.7484351 -0.4980311
v 0.29633 0.477458 -0.00212258
vn 0.7687849 0.634841 -0.07711519
v 0.168536 0.352787 -0.23216
vn 0.4329929 -0.8666588 -0.2478299
v 0.201222 0.451471 0.0866561
vn 0.5024681 -0.6978372 0.5104401
v 0.243295 0.4006 -0.0962857
vn 0.6551499 -0.740827 0.148169
v 0 0.304237 -0.0817353
vt 0.943495 0.552259
vn 0.0113784 -0.8717039 -0.4899009
v 0.101981 0.320294 -0.00828289
vt 0.933392 0.554468
vn 0.637728 -0.754205 -0.156454
v 0 0.29892 0.0533793
vt 0.924911 0.551528
vn 0 -0.9784352 0.206554
v 0.0932971 0.402426 -0.0979635
vt 0.945727 0.565765
vn 0.6473449 -0.5183429 -0.558807
v -0.101981 0.320294 -0.00828289
vn -0.637728 -0.754205 -0.156454
v -0.0076624 0.386555 -0.160602
vt 0.954343 0.563582
vn -0.01932671 -0.6926142 -0.7210492
v -0.0932971 0.402426 -0.0979635
vn -0.6603301 -0.524817 -0.537151
v 0.101922 0.355692 0.0934298
vt 0.919402 0.559337
vn 0.7064421 -0.561224 0.4312391
v 0.161883 0.437388 0.00871369
vt 0.930677 0.570573
vn 0.9130059 -0.4079459 0.000614106
v -0.161883 0.437388 0.00871369
vn -0.9130059 -0.4079459 0.0006142579
v -0.101922 0.355692 0.0934298
vn -0.7064421 -0.561224 0.4312391
v 0.0669449 0.391556 0.149309
vt 0.910519 0.564269
vn 0.5466177 -0.3311138 0.7691376
v 0 0.338802 0.144207
vt 0.912418 0.557014
vn 0 -0.7726411 0.6348431
v -0.0669449 0.391556 0.149309
vn -0.5466177 -0.3311138 0.7691376
v 0 0.795181 -0.189107
vt 1.12585 0.328097
vn 0 0.702512 -0.7116719
vt 0.490377 -0.11086
vt 0.316206 0.0428422
vt 0.194474 0.273943
v 0 0.708864 -0.00534989
vt 0.598956 0.480426
vn 0 0.8718197 0.4898269
vt -0.0426511 0.496727
vn 0.00203416 -0.9427918 0.3333759
vn -0.0334022 -0.941543 0.335233
vn -0.02689231 -0.9462712 0.3222541
vn 0.03472849 -0.9409646 0.3367189
vn 0.03087999 -0.9447238 0.3264099
vn -0.07294188 -0.9601318 0.2698639
vn 0.07294179 -0.9601318 0.2698639
vn -0.09037851 -0.9726421 0.214007
vn 0.09037831 -0.9726421 0.214007
v -0.128419 0.458741 0.100667
vt 0.917217 0.57351
vn 0.07087077 -0.9870466 0.1439319
v 0.128419 0.458741 0.100667
vn -0.07087097 -0.9870465 0.1439319
vn -0.08201988 -0.9926568 0.08891138
vn 0.08201978 -0.9926568 0.08891148
v 0.140403 0.517156 -0.122744
vt 0.956226 0.680878
vn 0.8960805 -0.4433882 -0.02113331
v 0.169089 0.573961 -0.0982269
vt 0.956226 0.693945
v 0.151248 0.530311 0.0610855
vt 0.917024 0.713546
v 0.181991 0.605271 -0.208074
vt 0.975827 0.687411
v 0.116987 0.469435 -0.114382
vt 0.917024 0.661277
vt 0.956226 0.713546
v 0.209805 0.65827 -0.140636
vt 0.975827 0.726613
v 0.140855 0.520725 -0.178435
vt 0.975827 0.648209
vt 0.956226 0.661277
v 0.215111 0.343208 -0.264305
vn 0.8657949 -0.245617 0.4359719
v 0.239311 0.413967 -0.272499
v 0.20741 0.427718 -0.201401
v 0.271159 0.348 -0.37291
v 0.185432 0.367708 -0.191563
v 0.266069 0.478395 -0.28934
v 0.201664 0.272115 -0.277652
v -0.140403 0.517156 -0.122744
vn -0.8960801 -0.4433891 -0.0211332
v -0.151248 0.530311 0.0610855
v -0.169089 0.573961 -0.0982269
v -0.116987 0.469435 -0.114382
v -0.181991 0.605271 -0.208074
v -0.140855 0.520725 -0.178435
v -0.209805 0.65827 -0.140636
v -0.215111 0.343208 -0.264305
vn -0.8657949 -0.245617 0.4359719
v -0.20741 0.427718 -0.201401
v -0.239311 0.413967 -0.272499
v -0.185432 0.367708 -0.191563
v -0.271159 0.348 -0.37291
v -0.201664 0.272115 -0.277652
v -0.266069 0.478395 -0.28934
vn -0.8960805 0.4433882 0.02113321
vn -0.8657949 0.245617 -0.4359719
vn 0.8960801 0.4433891 0.0211333
vn 0.8657953 0.2456171 -0.4359711
vt 0.00672781 0.39895
vt 0.00672781 0.994416
vn 0 -0.2433 0.9699511
vt 0.585504 0.774402
v 0 0.581652 -0.175187
vt 0.897423 0.648209
vn 1 0 0
v 0 0.596551 -0.235219
v 0 0.630901 -0.17866
vt 0.936625 0.674344
v 0 0.696423 -0.182543
vt 0.936625 0.700479
v 0 0.608278 -0.176948
v 0 0.645907 -0.295489
v 0 0.750874 -0.185899
vt 0.897423 0.726613
v 0 0.659181 -0.180189
v 0 0.763039 -0.340955
v -0.122908 0.353924 -0.270461
vt 0.900326 0.674344
vn -0.4752988 0.8797677 0.009997526
v -0.103981 0.36475 -0.323275
vt 0.91775 0.674344
v -0.162369 0.333708 -0.367492
vt 0.906134 0.726613
vn -0.2056801 0.9420724 -0.2649441
v -0.0465082 0.369977 -0.349307
vt 0.932269 0.687411
v -0.112252 0.334003 -0.426181
vt 0.923557 0.726613
v 0 0.328345 -0.463079
vt 0.936625 0.726613
vn 0 0.9391019 -0.343639
v 0.0465082 0.369977 -0.349307
vt 0.945336 0.66781
vn 0.2056801 0.9420724 -0.2649441
v 0.103981 0.36475 -0.323275
vt 0.958404 0.687411
v 0.112252 0.334003 -0.426181
vt 0.949692 0.726613
vn 0.4752992 0.8797674 0.009997005
v 0.122908 0.353924 -0.270461
vt 0.971471 0.66781
v 0.162369 0.333708 -0.367492
vt 0.967115 0.726613
vn -1 0 0
vn 0.4752988 -0.8797677 -0.009997256
vn 0.2056801 -0.9420724 0.2649441
vn 0 -0.9391019 0.343639
vn -0.2056801 -0.9420724 0.2649441
vn -0.4752988 -0.8797677 -0.009997266
o merged_0_0_node
g polygon_0
usemtl mat_head_mat_id
f 1/1/1 2/2/2 3/3/3
f 1/1/1 4/4/4 2/2/2
f 1/1/1 3/3/3 5/5/5
f 1/1/1 6/6/6 4/4/4
f 1/1/1 5/5/5 7/7/7
f 1/1/1 7/7/7 6/6/6
f 2/2/2 8/8/8 3/3/3
f 4/4/4 6/6/6 9/9/9
f 5/5/5 3/3/3 10/10/10
f 7/7/7 11/11/11 6/6/6
f 7/7/7 12/12/12 11/11/11
f 6/6/6 11/11/11 9/9/9
f 8/8/8 13/13/13 3/3/3
f 8/8/8 14/14/14 13/13/13
f 8/8/8 15/15/15 14/14/14
f 3/3/3 13/13/13 10/10/10
f 12/12/12 16/11/16 11/11/11
f 12/12/12 17/7/17 16/11/16
f 9/9/9 11/11/11 18/16/18
f 11/11/11 16/11/16 18/16/18
f 15/15/15 19/8/19 14/14/14
f 14/14/14 19/8/19 13/13/13
f 10/10/10 13/13/13 20/3/20
f 10/10/10 20/3/20 21/5/21
f 13/13/13 19/8/19 20/3/20
f 17/7/17 22/6/22 16/11/16
f 17/7/17 21/5/21 23/1/23
f 17/7/17 23/1/23 22/6/22
f 21/5/21 20/3/20 23/1/23
f 18/16/18 16/11/16 24/9/24
f 16/11/16 22/6/22 24/9/24
f 19/8/19 25/2/25 20/3/20
f 20/3/20 25/2/25 23/1/23
f 22/6/22 26/4/26 24/9/24
f 22/6/22 23/1/23 26/4/26
f 26/4/26 23/1/23 25/2/25
f 27/17/27 28/18/28 29/19/29
f 27/17/27 30/20/30 28/18/28
f 27/17/27 29/19/29 31/18/31
f 27/17/27 32/21/32 30/20/30
f 27/17/27 31/18/31 33/20/33
f 27/17/27 33/20/33 32/21/32
f 28/18/28 34/22/34 29/19/29
f 28/18/28 30/20/30 35/23/35
f 28/18/28 35/23/35 34/22/34
f 31/18/31 36/23/36 33/20/33
f 31/18/31 29/19/29 37/22/37
f 31/18/31 37/22/37 36/23/36
f 35/23/35 38/24/38 34/22/34
f 29/19/29 39/25/39 37/22/37
f 29/19/29 34/22/34 39/25/39
f 34/22/34 38/24/38 39/25/39
f 36/23/36 37/22/37 40/24/40
f 40/24/40 37/22/37 39/25/39
f 41/26/41 12/27/12 7/28/7
f 41/26/41 17/28/17 12/27/12
f 41/26/41 7/28/7 5/29/5
f 41/26/41 21/29/21 17/28/17
f 41/26/41 5/29/5 42/30/42
f 41/26/41 42/30/42 21/29/21
f 5/29/5 10/31/10 42/30/42
f 42/30/42 10/31/10 21/29/21
f 32/21/43 24/9/44 30/20/45
f 32/21/43 18/16/43 24/9/44
f 32/21/43 9/9/46 18/16/43
f 32/21/43 33/20/47 9/9/46
f 30/20/45 24/9/44 26/4/45
f 30/20/45 26/4/45 35/23/48
f 33/20/47 4/4/47 9/9/46
f 33/20/47 36/23/49 4/4/47
f 26/4/45 25/2/50 35/23/48
f 36/23/49 2/2/51 4/4/47
f 36/23/49 43/32/52 2/2/51
f 25/2/50 44/32/53 35/23/48
f 25/2/50 19/8/54 44/32/53
f 43/32/52 8/8/55 2/2/51
f 45/33/56 46/34/56 47/35/56
f 45/33/56 48/36/56 46/34/56
f 45/33/56 47/35/56 49/37/56
f 47/35/56 46/38/56 50/39/56
f 49/37/56 51/40/56 45/41/56
f 52/33/57 53/34/57 54/35/57
f 52/33/57 55/36/57 53/34/57
f 52/33/57 54/35/57 56/37/57
f 54/35/57 53/38/57 57/39/57
f 56/37/57 58/40/57 52/41/57
f 59/33/58 60/35/58 61/34/58
f 59/33/58 62/37/58 60/35/58
f 59/33/58 61/34/58 63/36/58
f 62/37/58 59/41/58 64/40/58
f 60/35/58 65/39/58 61/38/58
f 66/33/59 67/35/59 68/34/59
f 66/33/59 69/37/59 67/35/59
f 66/33/59 68/34/59 70/36/59
f 69/37/59 66/41/59 71/40/59
f 67/35/59 72/39/59 68/38/59
f 45/33/60 47/35/60 46/34/60
f 45/33/60 49/37/60 47/35/60
f 45/33/60 46/34/60 48/36/60
f 49/37/60 45/41/60 51/40/60
f 47/35/60 50/39/60 46/38/60
f 52/33/61 54/35/61 53/34/61
f 52/33/61 56/37/61 54/35/61
f 52/33/61 53/34/61 55/36/61
f 56/37/61 52/41/61 58/40/61
f 54/35/61 57/39/61 53/38/61
f 59/33/62 61/34/62 60/35/62
f 59/33/62 63/36/62 61/34/62
f 59/33/62 60/35/62 62/37/62
f 60/35/62 61/38/62 65/39/62
f 62/37/62 64/40/62 59/41/62
f 66/33/63 68/34/63 67/35/63
f 66/33/63 70/36/63 68/34/63
f 66/33/63 67/35/63 69/37/63
f 67/35/63 68/38/63 72/39/63
f 69/37/63 71/40/63 66/41/63
f 39/42/39 15/43/64 40/44/40
f 39/42/39 38/44/38 15/43/64
f 73/45/65 74/40/65 75/46/65
f 76/47/65 77/46/65 78/36/65
f 79/48/65 80/47/65 81/39/65
f 82/49/66 83/50/66 84/51/66
f 83/50/67 85/52/67 86/53/67
f 87/54/68 85/52/68 88/55/68
f 88/55/69 89/56/69 90/57/69
f 89/56/70 91/58/70 92/59/70
f 73/45/71 75/46/71 74/40/71
f 76/47/71 78/36/71 77/46/71
f 79/48/71 81/39/71 80/47/71
f 82/49/72 84/51/72 83/50/72
f 83/50/73 86/53/73 85/52/73
f 87/54/74 88/55/74 85/52/74
f 88/55/75 90/57/75 89/56/75
f 89/56/76 92/59/76 91/58/76
v 0.0296735 0.257083 0.0402844
vt 0.0445613 0.0850304
vn -0.3114771 0.3905931 -0.8662673
v 0.0288852 0.112579 0.0443
vt 0.0422155 0.0425
vn 0.02033351 -0.01678601 -0.9996523
v 0 0.0824485 0.0443
vt 0.0422155 0.033632
vn 0 -0.02589159 -0.9996648
v 0.0437219 0.203433 0.0443
vt 0.0422155 0.0692403
vn -0.5259482 -0.1547261 -0.8363243
v -0.0296732 0.257083 0.0402844
vn 0.3114771 0.3905931 -0.8662673
v 0.146516 0.1197 -0.0310745
vt 0.0862478 0.0445959
vn -0.6471117 -0.1007379 -0.7557105
v -0.0456537 0.274684 0.0676004
vt 0.0286038 0.0902108
vn 0.4313067 -0.2700809 -0.8608315
v 0.102481 0.203433 -0.00924112
vt 0.0734932 0.0692403
vn -0.8397654 -0.4441252 -0.3123251
v 0.0456539 0.274684 0.0676004
vn -0.431307 -0.270082 -0.860831
v 0.0584466 0.265392 -0.00262141
vt 0.069626 0.0874761
vn -0.994994 -0.0400687 0.09155001
v 0.0577703 0.0824621 0.0443
vn -0.0009454515 -0.0001543979 -0.9999995
v -0.028885 0.112579 0.0443
vn -0.02071129 -0.01684759 -0.9996436
v 0.109195 0.0589768 0.007909
vt 0.0634744 0.0267238
vn -0.621668 -0.08247161 -0.778927
v 0.156099 0.0876881 -0.0381902
vt 0.0904047 0.0351742
vn -0.6864076 -0.04413627 -0.7258765
v 0 0.308538 0.00628906
vt 0.0644207 0.100175
vn 0 -0.9816507 -0.1906879
v -0.0584463 0.265392 -0.00262141
vn 0.994994 -0.0400692 0.0915508
v -0.0913073 0.287367 0.00211029
vt 0.0668619 0.0939439
vn 0.8843527 -0.4580669 -0.08997307
v 0.0913076 0.287367 0.00211029
vn -0.8843509 -0.45807 -0.08997459
v 0.0456539 0.30034 -0.0648699
vt 0.10599 0.0977619
vn -0.4323989 -0.5922009 0.6799479
v 0.0296735 0.27392 -0.0466518
vt 0.0953478 0.089986
vn -0.5409882 -0.4991642 0.6768802
v -0.0437217 0.203433 0.0443
vn 0.525973 -0.154752 -0.8363039
v -0.0577701 0.0824621 0.044332
vt 0.0421968 0.0336361
v -0.0456536 0.30034 -0.06487
vn 0.4323989 -0.5921989 0.6799498
v -0.102481 0.203433 -0.00924112
vn 0.8397653 -0.4441261 -0.3123241
v -0.0296732 0.27392 -0.0466518
vn 0.5409878 -0.4991638 0.6768808
v -0.146516 0.1197 -0.0310745
vn 0.6471117 -0.1007379 -0.7557105
v -0.109195 0.0589768 0.00790899
vn 0.621808 -0.0824552 -0.778817
v -0.156099 0.0876881 -0.0381902
vn 0.686407 -0.044136 -0.725877
vn 0.3114769 -0.3905928 0.8662676
vn 0 0.02589159 0.9996648
vn -0.02033341 0.01678601 0.9996523
vn -0.3114771 -0.3905931 0.8662673
vn 0.5259482 0.1547261 0.8363243
vn -0.4313067 0.2700809 0.8608315
vn 0.6471117 0.1007379 0.7557105
vn 0.431307 0.270082 0.860831
vn 0.8397654 0.4441252 0.3123251
vn 0.994994 0.0400688 -0.0915501
vn 0.02071139 0.01684759 0.9996436
vn 0.0009455485 0.0001543979 0.9999995
vn 0 0.9816507 0.1906879
vn -0.994994 0.0400691 -0.0915507
vn -0.8843527 0.4580669 0.08997287
vn 0.621668 0.0824715 0.778927
vn 0.6864076 0.04413607 0.7258765
vn 0.8843509 0.45807 0.0899744
vn 0.4323989 0.5922009 -0.6799479
vn 0.5409882 0.4991642 -0.6768802
vn -0.525973 0.154752 0.8363039
vn -0.4323989 0.5921999 -0.6799489
vn -0.5409882 0.4991642 -0.6768802
vn -0.6471117 0.1007379 0.7557105
vn -0.8397655 0.4441257 0.3123238
vn -0.621808 0.0824552 0.778817
vn -0.686407 0.0441362 0.725877
v 0 0.207669 0.05913
vt 0.189229 0.625
v 0.00804423 0.240967 0.0408416
vt 0.269516 0.957337
vn 0.2937939 0.4046569 0.8659896
v -0.00804422 0.240967 0.0408416
vt 0.108942 0.957337
vn -0.2937939 0.4046569 0.8659896
v 0.017445 0.207669 0.0420767
vt 0.363343 0.625
vn 0.698872 0.0214892 0.7149239
v -0.017445 0.207669 0.0420767
vt 0.0151156 0.625001
vn -0.698872 0.0214893 0.7149239
v 0.00804422 0.174371 0.0425939
vt 0.269516 0.292664
vn 0.3026301 -0.3642791 0.8807473
v -0.00804422 0.174371 0.0425939
vt 0.108942 0.292664
vn -0.3026301 -0.3642791 0.8807473
v 0.0427316 0.212435 0.0561013
vt 0.183436 0.625115
vn 0.08051401 0.06989121 0.9943001
v 0.033694 0.237224 0.0413956
vt 0.183436 0.968453
vn -0.06089862 0.4927431 0.8680412
v 0.0303622 0.208057 0.0437156
vt 0.0194193 0.625115
vn -0.6658091 -0.172515 0.7259041
v 0.0529084 0.214908 0.0414083
vt 0.354219 0.625115
vn 0.7714601 0.264226 0.5788211
v 0.0495765 0.185742 0.0437283
vt 0.183436 0.274365
vn 0.204637 -0.36797 0.9070401
v -0.0427316 0.212435 0.0561013
vn -0.0805143 0.0698913 0.9943001
v -0.0303622 0.208057 0.0437156
vn 0.6658091 -0.172515 0.7259041
v -0.033694 0.237224 0.0413956
vn 0.06089849 0.4927439 0.8680408
v -0.0495765 0.185742 0.0437283
vn -0.204637 -0.36797 0.9070401
v -0.0529084 0.214908 0.0414083
vn -0.771461 0.264226 0.57882
v 0.138301 0.150493 -0.120739
vt 0.997685 0.625826
vn 0.6247069 0.6740029 -0.3942859
v 0.0477184 0.165199 -0.144555
vt 0.997685 0.716097
vn 0.6295302 0.5750252 -0.5225302
vt 0.461499 0.616726
vt 0.437065 0.479809
vt 0.667985 0.398821
vt 0.997685 0.325438
vn 0.8904158 0.4493009 0.07272149
v 0 0.214195 -0.217302
vt 0.997685 0.998377
vn 0 0.8441826 -0.5360557
v -0.0477181 0.165199 -0.144555
vn -0.6295302 0.5750252 -0.5225302
v -0.1383 0.150493 -0.120739
vn -0.6247069 0.6740029 -0.3942859
vn -0.8904158 0.4493009 0.0727208
vt 0.710008 0.68869
vn -0.6247069 -0.6740029 0.3942859
vt 0.650486 0.68768
vt 0.710008 0.698711
vn -0.6295302 -0.5750252 0.5225302
vt 0.647773 0.67248
vt 0.673408 0.66349
vt 0.710008 0.655344
vn -0.8904158 -0.4493009 -0.07272149
vt 0.710008 0.730047
vn 0 -0.8441826 0.5360557
vn 0.6295302 -0.5750252 0.5225302
vn 0.6247069 -0.6740029 0.3942859
vn 0.8904158 -0.4493009 -0.0727208
vt 0.651777 0.321315
vt 0.462787 0.00933796
vn -0.5975151 0.06944221 0.7988451
vt -0.32296 0.00984478
v -0.0693939 -0.0176856 0.0443
vt 1.11327 0.00887752
vn 0.5971622 0.06933692 0.7991181
v 0.0693941 -0.0176856 0.0443
vn 0.5971621 0.06933691 0.7991181
vn 0.5975151 -0.06944221 -0.7988451
vn -0.5971622 -0.06933692 -0.7991181
vn -0.5971621 -0.06933691 -0.7991181
o merged_1_0_node
g polygon_0
usemtl mat_body_mat_id
f 93/60/77 94/61/78 95/62/79
f 93/60/77 96/63/80 94/61/78
f 93/60/77 95/62/79 97/60/81
f 93/60/77 98/64/82 96/63/80
f 93/60/77 97/60/81 99/65/83
f 93/60/77 100/66/84 98/64/82
f 93/60/77 99/65/83 101/65/85
f 93/60/77 102/67/86 100/66/84
f 93/60/77 101/65/85 102/67/86
f 94/61/78 96/63/80 103/62/87
f 95/62/79 104/61/88 97/60/81
f 98/64/82 105/68/89 96/63/80
f 98/64/82 106/69/90 105/68/89
f 99/65/83 107/70/91 101/65/85
f 99/65/83 97/60/81 108/67/92
f 99/65/83 109/71/93 107/70/91
f 99/65/83 108/67/92 109/71/93
f 102/67/86 101/65/85 110/71/94
f 102/67/86 110/71/94 111/72/95
f 102/67/86 111/72/95 112/73/96
f 110/71/94 101/65/85 107/70/91
f 110/71/94 107/70/91 111/72/95
f 104/61/88 113/63/97 97/60/81
f 104/61/88 114/74/87 113/63/97
f 108/67/92 115/72/98 109/71/93
f 108/67/92 97/60/81 116/66/99
f 108/67/92 117/73/100 115/72/98
f 115/72/98 111/72/95 107/70/91
f 115/72/98 107/70/91 109/71/93
f 115/72/98 117/73/100 111/72/95
f 111/72/95 117/73/100 112/73/96
f 113/63/97 118/64/101 97/60/81
f 113/63/97 119/68/102 118/64/101
f 97/60/81 118/64/101 116/66/99
f 119/68/102 120/69/103 118/64/101
f 93/60/104 95/62/105 94/61/106
f 93/60/104 97/60/107 95/62/105
f 93/60/104 94/61/106 96/63/108
f 93/60/104 99/65/109 97/60/107
f 93/60/104 96/63/108 98/64/110
f 93/60/104 101/65/111 99/65/109
f 93/60/104 98/64/110 100/66/112
f 93/60/104 102/67/113 101/65/111
f 93/60/104 100/66/112 102/67/113
f 95/62/105 97/60/107 104/61/114
f 94/61/106 103/62/115 96/63/108
f 99/65/109 101/65/111 107/70/116
f 99/65/109 108/67/117 97/60/107
f 99/65/109 107/70/116 109/71/118
f 99/65/109 109/71/118 108/67/117
f 98/64/110 96/63/108 105/68/119
f 98/64/110 105/68/119 106/69/120
f 102/67/113 110/71/121 101/65/111
f 102/67/113 111/72/122 110/71/121
f 102/67/113 112/73/123 111/72/122
f 110/71/121 107/70/116 101/65/111
f 110/71/121 111/72/122 107/70/116
f 104/61/114 97/60/107 113/63/124
f 104/61/114 113/63/124 114/74/115
f 109/71/118 115/72/125 108/67/117
f 109/71/118 107/70/116 115/72/125
f 107/70/116 111/72/122 115/72/125
f 112/73/123 117/73/126 111/72/122
f 117/73/126 108/67/117 115/72/125
f 117/73/126 115/72/125 111/72/122
f 97/60/107 118/64/127 113/63/124
f 97/60/107 108/67/117 116/66/128
f 97/60/107 116/66/128 118/64/127
f 113/63/124 118/64/127 119/68/129
f 118/64/127 120/69/130 119/68/129
f 121/75/105 122/76/131 123/77/132
f 121/75/105 124/78/133 122/76/131
f 121/75/105 123/77/132 125/79/134
f 121/75/105 126/80/135 124/78/133
f 121/75/105 125/79/134 127/81/136
f 121/75/105 127/81/136 126/80/135
f 128/82/137 129/83/138 130/84/139
f 128/82/137 131/85/140 129/83/138
f 128/82/137 130/84/139 132/86/141
f 128/82/137 132/86/141 131/85/140
f 133/82/142 134/84/143 135/83/144
f 133/82/142 136/86/145 134/84/143
f 133/82/142 135/83/144 137/85/146
f 133/82/142 137/85/146 136/86/145
f 138/87/147 139/88/148 112/89/123
f 138/87/147 112/89/123 102/90/113
f 138/87/147 102/90/113 100/91/112
f 138/87/147 100/91/112 98/92/149
f 139/88/148 140/93/150 112/89/123
f 140/93/150 117/89/126 112/89/123
f 140/93/150 141/88/151 117/89/126
f 141/88/151 142/87/152 117/89/126
f 142/87/152 108/90/117 117/89/126
f 142/87/152 116/91/128 108/90/117
f 142/87/152 118/92/153 116/91/128
f 138/94/154 112/95/96 139/96/155
f 138/94/154 102/97/86 112/95/96
f 138/94/154 100/98/84 102/97/86
f 138/94/154 98/99/156 100/98/84
f 139/96/155 112/95/96 140/100/157
f 112/95/96 117/95/100 140/100/157
f 117/95/100 141/96/158 140/100/157
f 117/95/100 142/94/159 141/96/158
f 117/95/100 108/97/92 142/94/159
f 108/97/92 116/98/99 142/94/159
f 116/98/99 118/99/160 142/94/159
f 119/101/129 114/102/161 113/103/124
f 119/101/129 143/104/161 114/102/161
f 103/102/162 105/101/119 96/103/108
f 103/102/162 144/104/163 105/101/119
f 114/102/164 119/101/102 113/103/97
f 114/102/164 143/104/164 119/101/102
f 103/102/165 96/103/80 105/101/89
f 103/102/165 105/101/89 144/104/166
vt 0.851313 0.963803
vn 0.7970898 -0.4051379 0.4477849
vt 0.437852 0.998298
vn 0.5920206 -0.1597789 0.7899255
vt 0.318519 0.757437
vt -0.212866 0.783542
vn -0.59202 -0.159779 0.789926
vn -0.7970893 -0.4051372 0.4477862
vt 1.50422 0.915717
o merged_2_0_node
g polygon_0
usemtl TEX_ANIM_EYE_mat_id
f 44/105/167 19/106/168 38/107/38
f 19/106/168 15/108/64 38/107/38
f 8/106/169 43/105/170 40/107/40
f 35/109/35 44/105/167 38/107/38
f 40/107/40 15/108/64 8/106/169
f 40/107/40 43/105/170 36/109/36
