mtllib Unown_K.mtl
v 0 0.218822 -0.0632906
vt 0.5 -0.5
vn 0 0 -1
v 0 0.344083 -0.0450122
vt 0.5 -1
vn 0 0.894837 -0.446393
v 0.0885727 0.307395 -0.0450122
vt 0.853553 -0.853553
vn 0.6327453 0.6327453 -0.4463932
v -0.0885727 0.307395 -0.0450122
vt 0.146447 -0.853553
vn -0.6327453 0.6327453 -0.4463932
v 0.125261 0.218822 -0.0450122
vt 1 -0.5
vn 0.894837 0 -0.446393
v -0.125261 0.218822 -0.0450122
vt 0 -0.5
vn -0.894837 0 -0.446393
v 0.0885727 0.13025 -0.0450122
vt 0.853553 -0.146447
vn 0.6327453 -0.6327453 -0.4463932
v -0.0885727 0.13025 -0.0450122
vt 0.146447 -0.146447
vn -0.6327453 -0.6327453 -0.4463932
v 0 0.0935616 -0.0450122
vt 0.5 0
vn 0 -0.894837 -0.446393
v -0.035494 0.111684 -0.03
vt 0 0.5
vn -0.645524 0 -0.76374
v 0.035494 0.0211028 -0.03
vt 1 0
vn 0.6330449 -0.2414969 -0.7354818
v -0.035494 0.0211028 -0.03
vt 0 0
vn -0.6330449 -0.2414969 -0.7354818
v 0.035494 0.111684 -0.03
vt 1 0.5
vn 0.645524 0 -0.76374
v -0.035494 0.111684 0.03
vn -0.645524 0 0.76374
v 0.035494 0.416542 -0.03
vt 1 1
vn 0.645659 0.07988479 -0.7594359
v -0.035494 0.416542 0.03
vt 0 1
vn -0.645659 0.07988479 0.7594359
v -0.035494 0.416542 -0.03
vn -0.645659 0.07988479 -0.7594359
v 0 0.0005753243 0
vn 0 -1 0
v 0.035494 0.0211028 0.03
vn 0.6330449 -0.2414969 0.7354818
v 0.035494 0.111684 0.03
vn 0.645524 0 0.76374
v -0.035494 0.0211028 0.03
vn -0.6330449 -0.2414969 0.7354818
v 0 0.437069 0
vt 0.5 1
vn 0 1 0
v 0.035494 0.416542 0.03
vn 0.645659 0.07988479 0.7594359
v 0.0276656 0.218822 0.03
vn -0.951362 0.00213977 0.308068
v 0.159527 0.0887862 0.03
vn -0.5359091 -0.6745251 0.5077571
v 0.206812 0.141734 0.03
vn 0.5956951 0.4468531 0.6674351
v 0.159527 0.0887862 -0.03
vn -0.5359091 -0.6745251 -0.5077571
v 0.126014 0.218822 0.03
vn 0.6266301 0.00239786 0.7793131
v 0.0276656 0.218822 -0.03
vn -0.951362 0.00213977 -0.308068
v 0.206228 0.294148 0.03
vn 0.588273 -0.447775 0.673374
v 0.16011 0.348115 0.03
vn -0.5332319 0.6793079 0.5041869
v 0.201478 0.0989092 0
vn 0.745865 -0.666097 0
v 0.206228 0.294148 -0.03
vn 0.588273 -0.447775 -0.673374
v 0.126014 0.218822 -0.03
vn 0.6266301 0.00239815 -0.7793131
v 0.16011 0.348115 -0.03
vn -0.5332319 0.6793079 -0.5041869
v 0.206812 0.141734 -0.03
vn 0.5956951 0.4468531 -0.6674351
v 0.20183 0.337079 0
vn 0.7602217 0.6496637 0
vt 0.125 0
v 0.0885727 0.307395 0.0426161
vn 0.703783 0.705002 0.0875313
v 0 0.344083 0.0426161
vt 0.125 1
vn -0.0008618484 0.9961614 0.08753113
vt 0.25 0
v -0.0885727 0.307395 0.0426161
vt 0.25 1
vn -0.705002 0.703783 0.0875314
vt 0.375 0
v -0.125261 0.218822 0.0426161
vt 0.375 1
vn -0.9961614 -0.0008618154 0.08753134
v -0.0885727 0.13025 0.0426161
vn -0.703783 -0.705002 0.0875313
vt 0.625 0
v 0 0.0935616 0.0426161
vt 0.625 1
vn 0.0008618415 -0.9961614 0.08753125
vt 0.75 0
v 0.0885727 0.13025 0.0426161
vt 0.75 1
vn 0.705002 -0.703783 0.0875313
vt 0.875 0
v 0.125261 0.218822 0.0426161
vt 0.875 1
vn 0.9961614 0.0008618885 0.08753125
vt 0.853553 1.85355
vt 0.5 2
v 0.0727545 0.291577 0.0495704
vt 0.676777 1.67678
vn 0.1868591 0.1911201 0.9636165
v 0.10289 0.218822 0.0495704
vt 0.75 1.5
vn 0.2672718 0.003012998 0.9636164
vt 1 1.5
v 0 0.321713 0.0495704
vt 0.5 1.75
vn -0.003013051 0.2672721 0.9636164
vt 0.146447 1.85355
v 0.0727545 0.146068 0.0495704
vt 0.676777 1.32322
vn 0.1911201 -0.1868591 0.9636165
v -0.0727545 0.291577 0.0495704
vt 0.323223 1.67678
vn -0.1911201 0.1868591 0.9636165
vt 0 1.5
vt 0.853553 1.14645
v 0 0.115932 0.0495704
vt 0.5 1.25
vn 0.003012991 -0.2672721 0.9636164
v -0.10289 0.218822 0.0495704
vt 0.25 1.5
vn -0.2672721 -0.003013031 0.9636164
vt 0.146447 1.14645
v -0.0727545 0.146068 0.0495704
vt 0.323223 1.32322
vn -0.1868589 -0.1911199 0.9636166
o merged_0_0_node
g polygon_0
usemtl mat_body_mat_id
f 1/1/1 2/2/2 3/3/3
f 1/1/1 4/4/4 2/2/2
f 1/1/1 3/3/3 5/5/5
f 1/1/1 6/6/6 4/4/4
f 1/1/1 5/5/5 7/7/7
f 1/1/1 8/8/8 6/6/6
f 1/1/1 7/7/7 9/9/9
f 1/1/1 9/9/9 8/8/8
f 10/10/10 11/11/11 12/12/12
f 10/10/10 13/13/13 11/11/11
f 10/10/10 12/12/12 14/10/14
f 10/10/10 15/14/15 13/13/13
f 10/10/10 14/10/14 16/15/16
f 10/10/10 17/15/17 15/14/15
f 10/10/10 16/15/16 17/15/17
f 11/11/11 18/9/18 12/12/12
f 11/11/11 13/13/13 19/11/19
f 11/11/11 19/11/19 18/9/18
f 14/10/14 20/13/20 16/15/16
f 14/10/14 12/12/12 21/12/21
f 14/10/14 21/12/21 19/11/19
f 14/10/14 19/11/19 20/13/20
f 19/11/19 13/13/13 20/13/20
f 19/11/19 21/12/21 18/9/18
f 18/9/18 21/12/21 12/12/12
f 13/13/13 15/14/15 20/13/20
f 17/15/17 16/15/16 22/16/22
f 17/15/17 22/16/22 15/14/15
f 20/13/20 23/14/23 16/15/16
f 20/13/20 15/14/15 23/14/23
f 23/14/23 22/16/22 16/15/16
f 23/14/23 15/14/15 22/16/22
f 24/10/24 25/12/25 26/11/26
f 24/10/24 27/12/27 25/12/25
f 24/10/24 26/11/26 28/13/28
f 24/10/24 29/10/29 27/12/27
f 24/10/24 28/13/28 30/14/30
f 24/10/24 31/15/31 29/10/29
f 24/10/24 30/14/30 31/15/31
f 25/12/25 32/9/32 26/11/26
f 25/12/25 27/12/27 32/9/32
f 28/13/28 33/14/33 30/14/30
f 28/13/28 26/11/26 34/13/34
f 28/13/28 34/13/34 33/14/33
f 29/10/29 31/15/31 35/15/35
f 29/10/29 36/11/36 27/12/27
f 29/10/29 34/13/34 36/11/36
f 29/10/29 33/14/33 34/13/34
f 29/10/29 35/15/35 33/14/33
f 36/11/36 32/9/32 27/12/27
f 36/11/36 34/13/34 26/11/26
f 36/11/36 26/11/26 32/9/32
f 30/14/30 37/16/37 31/15/31
f 30/14/30 33/14/33 37/16/37
f 37/16/37 33/14/33 35/15/35
f 37/16/37 35/15/35 31/15/31
f 2/17/2 38/15/38 3/12/3
f 2/17/2 39/18/39 38/15/38
f 2/17/2 4/19/4 39/18/39
f 4/19/4 40/20/40 39/18/39
f 4/19/4 6/21/6 40/20/40
f 6/21/6 41/22/41 40/20/40
f 6/21/6 8/9/8 41/22/41
f 8/9/8 42/16/42 41/22/41
f 8/9/8 9/23/9 42/16/42
f 9/23/9 43/24/43 42/16/42
f 9/23/9 7/25/7 43/24/43
f 7/25/7 44/26/44 43/24/43
f 7/25/7 5/27/5 44/26/44
f 5/27/5 45/28/45 44/26/44
f 5/27/5 3/11/3 45/28/45
f 3/11/3 38/14/38 45/28/45
f 38/29/38 39/30/39 46/31/46
f 38/29/38 46/31/46 47/32/47
f 38/29/38 47/32/47 45/33/45
f 39/30/39 48/34/48 46/31/46
f 39/30/39 40/35/40 48/34/48
f 47/32/47 49/36/49 45/33/45
f 40/35/40 50/37/50 48/34/48
f 40/35/40 41/38/41 50/37/50
f 49/36/49 44/39/44 45/33/45
f 49/36/49 51/40/51 44/39/44
f 41/38/41 52/41/52 50/37/50
f 41/38/41 42/42/42 52/41/52
f 51/40/51 43/16/43 44/39/44
f 51/40/51 53/43/53 43/16/43
f 53/43/53 52/41/52 42/42/42
f 53/43/53 42/42/42 43/16/43
v 0 0.218822 0.0767688
vt 0.5 0.875002
vn 0 0 1
vt 0.853553 0.963283
vt 0.5 0.999851
vt 0.146447 0.963283
vt 0 0.875002
vt 0.146447 0.786721
vt 0.5 0.750153
vt 0.853553 0.786721
vt 1 0.875002
o merged_1_0_node
g polygon_0
usemtl TEX_ANIM_EYE_mat_id
f 54/44/54 46/45/46 48/46/48
f 54/44/54 48/46/48 50/47/50
f 54/44/54 50/47/50 52/48/52
f 54/44/54 52/48/52 53/49/53
f 54/44/54 53/49/53 51/50/51
f 54/44/54 51/50/51 49/51/49
f 54/44/54 49/51/49 47/52/47
f 54/44/54 47/52/47 46/45/46
