mtllib Solrock.mtl
v 0.154154 0.612524 -0.154154
vt 0.737576 0.66301
vn 0.5773503 0.5773503 -0.5773503
v 0.227501 0.458371 -0.140604
vt 0.835019 0.499313
vn 0.8506509 0 -0.525731
v 0.0952722 0.458371 -0.249426
vt 0.627119 0.499313
vn 0.3568221 0 -0.9341723
v 0.249426 0.363098 0
vt 0.985479 0.262686
vn 0.9341723 -0.3568221 0
v 0.227501 0.458371 0.140604
vn 0.8683997 0 0.4958648
v 0.154154 0.304217 0.154154
vt 0.737576 0.29363
vn 0.5717139 -0.5856729 0.5745699
v 0 0.208945 -0.0952722
vt 0.5 0.115649
vn 0 -0.9341723 -0.3568221
v 0.140604 0.230869 0
vt 0.813006 0.0565073
vn 0.525731 -0.8506509 0
v 0 0.208945 0.0952722
vt 0.5 0.0441707
vn 0 -0.9341723 0.3568221
v 0 0.317767 0.227501
vt 0.5 0.270196
vn 0 -0.549998 0.835166
v -0.154154 0.304217 0.154154
vt 0.262424 0.29363
vn -0.5717139 -0.5856729 0.5745699
v -0.154154 0.304217 -0.154154
vn -0.5773503 -0.5773503 -0.5773503
v -0.140604 0.230869 0
vt 0.19625 0.0565073
vn -0.525731 -0.8506509 0
v -0.249426 0.363098 0
vt 0.0145209 0.262686
vn -0.9341723 -0.3568221 0
v -0.0952722 0.458371 -0.249426
vt 0.372881 0.499313
vn -0.3568221 0 -0.9341723
v 0 0.317767 -0.227501
vt 0.5 0.31171
vn 0 -0.525731 -0.8506509
v 0 0.707797 -0.0952722
vt 0.5 0.995329
vn 0 0.9341723 -0.3568221
v 0 0.598974 -0.227501
vt 0.5 0.686916
vn 0 0.525731 -0.8506509
v -0.154154 0.612524 -0.154154
vt 0.262424 0.704995
vn -0.5773503 0.5773503 -0.5773503
v 0 0.707797 0.0952722
vt 0.5 0.92981
vn 0 0.9341723 0.3568221
v 0.140604 0.685872 0
vt 0.813006 0.942118
vn 0.525731 0.8506509 0
v -0.140604 0.685872 0
vt 0.19625 0.942118
vn -0.525731 0.8506509 0
v -0.227501 0.458371 -0.140604
vt 0.164981 0.499313
vn -0.8506509 0 -0.525731
v 0.154154 0.304217 -0.154154
vn 0.5773503 -0.5773503 -0.5773503
v 0.249426 0.553643 0
vt 0.985479 0.724563
vn 0.9341723 0.3568221 0
v 0.154154 0.612524 0.154154
vn 0.5717139 0.5856729 0.5745699
v 0 0.598974 0.227501
vt 0.5 0.86068
vn 0 0.549998 0.835166
v -0.154154 0.612524 0.154154
vn -0.5717139 0.5856729 0.5745699
v -0.227501 0.458371 0.140604
vn -0.8683997 0 0.4958648
v -0.249426 0.553643 0
vt 0.0145209 0.724563
vn -0.9341723 0.3568221 0
v -0.0660044 0.127387 0
vt 0.953562 0.953814
vn -1 0 0
v 0 0.127387 -0.0660044
vn 0 0 -1
v 0 -0.0027848 0
vn 0 -1 0
v 0.0660044 0.127387 0
vn 1 0 0
v 0 0.127387 0.0660044
vn 0 0 1
v 0 0.257559 0
vn 0 1 0
v -0.330983 0.524404 0
v -0.330983 0.4584 -0.0660044
v -0.461155 0.4584 0
v -0.330983 0.392396 0
v -0.330983 0.4584 0.0660044
v -0.200811 0.4584 0
v 0.330983 0.392396 0
v 0.330983 0.4584 -0.0660044
v 0.461155 0.4584 0
v 0.330983 0.524404 0
v 0.330983 0.4584 0.0660044
v 0.200811 0.4584 0
v 0.0660044 0.789354 0
v 0 0.789354 -0.0660044
v 0 0.919526 0
v -0.0660044 0.789354 0
v 0 0.789354 0.0660044
v 0 0.659182 0
v -0.255192 0.266406 0
vn -0.7071068 0.7071068 0
v -0.223578 0.234792 -0.044709
v -0.297953 0.160417 0
vn -0.7071063 -0.7071073 0
v -0.191964 0.203178 0
vn 0.7071068 -0.7071068 0
v -0.223578 0.234792 0.044709
v -0.149204 0.309167 0
vn 0.7071068 0.7071068 0
v 0.255192 0.650335 0
v 0.223578 0.681949 -0.044709
v 0.297953 0.756324 0
v 0.191964 0.713563 0
v 0.223578 0.681949 0.044709
v 0.149204 0.607574 0
v -0.191964 0.713563 0
v -0.223578 0.681949 -0.044709
v -0.297953 0.756324 0
v -0.255192 0.650335 0
v -0.223578 0.681949 0.044709
v -0.149204 0.607574 0
v 0.191964 0.203178 0
v 0.223578 0.234792 -0.044709
v 0.297953 0.160417 0
v 0.255193 0.266406 0
v 0.223578 0.234792 0.044709
v 0.149204 0.309167 0
o merged_0_0_node
g polygon_0
usemtl lambert4_mat_id
f 1/1/1 2/2/2 3/3/3
f 4/4/4 5/2/5 6/5/6
f 7/6/7 8/7/8 9/8/9
f 9/8/9 10/9/10 11/10/11
f 12/10/12 13/11/13 14/12/14
f 15/13/15 16/14/16 12/10/12
f 17/15/17 18/16/18 19/17/19
f 20/18/20 21/19/21 17/15/17
f 17/15/17 22/20/22 20/18/20
f 12/10/12 23/21/23 15/13/15
f 4/4/4 24/5/24 2/2/2
f 2/2/2 24/5/24 3/3/3
f 25/22/25 2/2/2 1/1/1
f 4/4/4 2/2/2 25/22/25
f 25/22/25 5/2/5 4/4/4
f 26/1/26 5/2/5 25/22/25
f 4/4/4 6/5/6 8/7/8
f 8/7/8 6/5/6 9/8/9
f 24/5/24 8/7/8 7/6/7
f 4/4/4 8/7/8 24/5/24
f 6/5/6 10/9/10 9/8/9
f 9/8/9 11/10/11 13/11/13
f 13/11/13 11/10/11 14/12/14
f 7/6/7 13/11/13 12/10/12
f 9/8/9 13/11/13 7/6/7
f 24/5/24 7/6/7 16/14/16
f 16/14/16 7/6/7 12/10/12
f 3/3/3 16/14/16 15/13/15
f 24/5/24 16/14/16 3/3/3
f 3/3/3 15/13/15 18/16/18
f 18/16/18 15/13/15 19/17/19
f 1/1/1 18/16/18 17/15/17
f 3/3/3 18/16/18 1/1/1
f 25/22/25 1/1/1 21/19/21
f 21/19/21 1/1/1 17/15/17
f 26/1/26 21/19/21 20/18/20
f 25/22/25 21/19/21 26/1/26
f 26/1/26 20/18/20 27/23/27
f 27/23/27 20/18/20 28/17/28
f 14/12/14 11/10/11 29/21/29
f 30/24/30 29/21/29 28/17/28
f 14/12/14 29/21/29 30/24/30
f 30/24/30 28/17/28 22/20/22
f 22/20/22 28/17/28 20/18/20
f 19/17/19 22/20/22 17/15/17
f 30/24/30 22/20/22 19/17/19
f 30/24/30 19/17/19 23/21/23
f 23/21/23 19/17/19 15/13/15
f 14/12/14 23/21/23 12/10/12
f 30/24/30 23/21/23 14/12/14
f 31/25/31 32/25/32 33/25/33
f 32/25/32 34/25/34 33/25/33
f 34/25/34 35/25/35 33/25/33
f 33/25/33 35/25/35 31/25/31
f 36/25/36 32/25/32 31/25/31
f 36/25/36 34/25/34 32/25/32
f 36/25/36 35/25/35 34/25/34
f 36/25/36 31/25/31 35/25/35
f 37/25/36 38/25/32 39/25/31
f 38/25/32 40/25/33 39/25/31
f 40/25/33 41/25/35 39/25/31
f 39/25/31 41/25/35 37/25/36
f 42/25/34 38/25/32 37/25/36
f 42/25/34 40/25/33 38/25/32
f 42/25/34 41/25/35 40/25/33
f 42/25/34 37/25/36 41/25/35
f 43/25/33 44/25/32 45/25/34
f 44/25/32 46/25/36 45/25/34
f 46/25/36 47/25/35 45/25/34
f 45/25/34 47/25/35 43/25/33
f 48/25/31 44/25/32 43/25/33
f 48/25/31 46/25/36 44/25/32
f 48/25/31 47/25/35 46/25/36
f 48/25/31 43/25/33 47/25/35
f 49/25/34 50/25/32 51/25/36
f 50/25/32 52/25/31 51/25/36
f 52/25/31 53/25/35 51/25/36
f 51/25/36 53/25/35 49/25/34
f 54/25/33 50/25/32 49/25/34
f 54/25/33 52/25/31 50/25/32
f 54/25/33 53/25/35 52/25/31
f 54/25/33 49/25/34 53/25/35
f 55/25/37 56/25/32 57/25/38
f 56/25/32 58/25/39 57/25/38
f 58/25/39 59/25/35 57/25/38
f 57/25/38 59/25/35 55/25/37
f 60/25/40 56/25/32 55/25/37
f 60/25/40 58/25/39 56/25/32
f 60/25/40 59/25/35 58/25/39
f 60/25/40 55/25/37 59/25/35
f 61/25/39 62/25/32 63/25/40
f 62/25/32 64/25/37 63/25/40
f 64/25/37 65/25/35 63/25/40
f 63/25/40 65/25/35 61/25/39
f 66/25/38 62/25/32 61/25/39
f 66/25/38 64/25/37 62/25/32
f 66/25/38 65/25/35 64/25/37
f 66/25/38 61/25/39 65/25/35
f 67/25/40 68/25/32 69/25/37
f 68/25/32 70/25/38 69/25/37
f 70/25/38 71/25/35 69/25/37
f 69/25/37 71/25/35 67/25/40
f 72/25/39 68/25/32 67/25/40
f 72/25/39 70/25/38 68/25/32
f 72/25/39 71/25/35 70/25/38
f 72/25/39 67/25/40 71/25/35
f 73/25/38 74/25/32 75/25/39
f 74/25/32 76/25/40 75/25/39
f 76/25/40 77/25/35 75/25/39
f 75/25/39 77/25/35 73/25/38
f 78/25/37 74/25/32 73/25/38
f 78/25/37 76/25/40 74/25/32
f 78/25/37 77/25/35 76/25/40
f 78/25/37 73/25/38 77/25/35
v -0.121792 0.458371 0.231799
vt 0.548129 0.875305
vn -0.467273 0 0.8841131
vt 0.144473 0.988557
vt 0.739808 0.999471
vt 0.972002 0.875305
v 0.121792 0.458371 0.231799
vn 0.467273 0 0.8841131
vt 0.739808 0.75114
v 0 0.458371 0.263474
vt 0.144473 0.875305
vt 0.144473 0.762054
o merged_1_0_node
g polygon_0
usemtl TEX_ANIM_EYE_mat_id
f 79/26/41 27/27/27 28/28/28
f 28/28/28 29/29/29 79/26/41
f 26/28/26 80/26/42 5/29/5
f 5/29/5 80/26/42 6/30/6
f 80/26/42 81/31/35 10/32/10
f 10/32/10 79/26/41 11/30/11
f 80/26/42 10/32/10 6/30/6
f 80/26/42 27/27/27 81/31/35
f 26/28/26 27/27/27 80/26/42
f 29/29/29 11/30/11 79/26/41
f 81/31/35 27/27/27 79/26/41
f 10/32/10 81/31/35 79/26/41
