mtllib Tirtouga.mtl
v 0 0.30299 0.344615
vt 0.474455 0.698364
vn 0 0.9332599 0.359202
v 0.130022 0.270799 0.266746
vt 0.587566 0.619634
vn 0.6460799 0.7628769 0.0244894
v 0 0.317259 0.208501
vt 0.650665 0.715723
vn 0 0.9550173 -0.2965501
v 0.114774 0.240736 0.386676
vt 0.437653 0.582055
vn 0.7533786 0.5388308 0.3769378
v -0.130022 0.270799 0.266746
vn -0.6460799 0.7628769 0.0244893
v 0.0734101 0.210367 0.468712
vt 0.320272 0.544094
vn 0.5591549 0.4072289 0.7221568
v -0.114774 0.240736 0.386676
vn -0.753379 0.53883 0.376938
v 0 0.206299 0.498521
vt 0.225784 0.539009
vn 0 0.598319 0.801258
v -0.0734101 0.210367 0.468712
vn -0.5591549 0.4072289 0.7221568
v 0.115093 0.250017 0.166439
vt 0.712949 0.593657
vn 0.6117458 0.5685968 -0.5499678
v 0.166643 0.179256 0.248214
vt 0.610731 0.505205
vn 0.9699621 0.242895 0.0132528
v 0.129698 0.156784 0.391989
vt 0.431012 0.477115
vn 0.9100392 0.07503082 0.4076751
v -0.115093 0.250017 0.166439
vn -0.6117458 0.5685968 -0.5499678
v -0.166643 0.179256 0.248214
vn -0.9699621 0.242895 0.0132529
v -0.129698 0.156784 0.391989
vn -0.9100394 0.07503076 0.4076747
v 0 0.16954 0.507976
vt 0.213965 0.49306
vn 0 -0.0396923 0.999212
v 0.154756 0.137066 0.156754
vt 0.725056 0.452468
vn 0.8498461 -0.0121463 -0.5268911
v 0.172938 0.0985167 0.246873
vt 0.612408 0.404281
vn 0.959995 -0.279758 0.0120391
v 0.0858237 0.118362 0.46159
vt 0.329174 0.429088
vn 0.5935502 -0.2124141 0.7762592
v 0.123541 0.0752959 0.399247
vt 0.421939 0.375255
vn 0.7124354 -0.5306853 0.4591393
v -0.154756 0.137066 0.156754
vn -0.8498461 -0.0121463 -0.5268911
v -0.0858237 0.118362 0.46159
vn -0.5935499 -0.212413 0.7762598
v -0.123541 0.0752959 0.399247
vn -0.712436 -0.5306849 0.4591389
v 0.115093 0.0514459 0.166439
vt 0.712949 0.345443
vn 0.5228701 -0.6688901 -0.5283871
v 0.114548 0.0248053 0.276558
vt 0.575301 0.312142
vn 0.4856438 -0.8734616 0.03485629
v 0 0.0823506 0.475422
vt 0.249052 0.374366
vn 0 -0.454582 0.8907049
v 0.0630503 0.0452357 0.431217
vt 0.370278 0.338911
vn 0.3952382 -0.4807673 0.7827194
v -0.172938 0.0985167 0.246873
vn -0.959995 -0.279758 0.0120391
v -0.115093 0.0514459 0.166439
vn -0.5228701 -0.6688901 -0.5283871
v -0.0630503 0.0452357 0.431217
vn -0.3952382 -0.4807673 0.7827194
v -0.114548 0.0248053 0.276558
vn -0.4856438 -0.8734616 0.03485629
v 0 0.0140366 0.358444
vt 0.491197 0.221483
vn 0 -0.9596047 0.281352
v 0 0.0531991 0.435578
vt 0.403098 0.259711
vn 0 -0.8916548 0.4527159
v 0 0.00995211 0.208501
vt 0.659075 0.219453
vn 0 -0.9728844 -0.2312921
v 0 0.0100504 0.429457
vt 0.35216 0.232742
vn 0 -0.5365039 0.8438979
v 0 0.0970148 -0.316423
vt 0.617496 0.111345
vn 0.000237045 -0.05953591 -0.9982262
v -0.0733423 0.132356 -0.267875
vt 0.556811 0.155521
vn -0.510901 0.44419 -0.735986
v 0 0.131642 -0.304943
vt 0.603145 0.154629
vn 0.0007167152 0.5537251 -0.8326992
v -0.0847797 0.0970148 -0.279605
vt 0.571473 0.111345
vn -0.587464 -0.0416661 -0.808177
v 0.0733423 0.131642 -0.267875
vt 0.556811 0.154629
vn 0.5110421 0.444642 -0.7356151
v -0.0578535 0.0357075 -0.256442
vt 0.542519 0.0347108
vn -0.4300771 -0.6377502 -0.6389902
v 0.0847797 0.0970148 -0.279605
vn 0.5875593 -0.04041292 -0.8081713
v 0 0.0280453 -0.280201
vt 0.572218 0.025133
vn 0 -0.7914717 -0.6112058
v 0.0578535 0.0357075 -0.256442
vn 0.4300771 -0.6377502 -0.6389902
v -0.127816 0.165465 -0.199279
vt 0.471066 0.196908
vn -0.6703264 0.5790634 -0.4640563
v 0.127816 0.165465 -0.199279
vn 0.670348 0.5786791 -0.4645041
v -0.131855 0.0230842 -0.194331
vt 0.46488 0.0189318
vn -0.527714 -0.7742079 -0.349457
v 0.131855 0.0230842 -0.194331
vn 0.527714 -0.7742079 -0.349457
v -0.160231 0.0970148 -0.185097
vt 0.453338 0.111345
vn -0.8817232 -0.0155692 -0.4715101
v -0.157421 0.175587 -0.0714872
vt 0.311326 0.20956
vn -0.767369 0.640597 -0.0279364
v 0.160231 0.0970148 -0.185097
vn 0.8815832 -0.0151621 -0.4717851
v 0.157421 0.175587 -0.0714872
vn 0.767369 0.640597 -0.0279364
v -0.187133 0.0970148 -0.0714872
vt 0.311326 0.111345
vn -0.9995969 -0.006091709 -0.0277299
v -0.163849 0.0970148 0.0404107
vt 0.171453 0.111345
vn -0.8954625 -0.01770469 0.4447848
v -0.136019 0.159498 0.0877535
vt 0.112275 0.189449
vn -0.691815 0.4199599 0.5873889
v -0.150907 0.0145538 -0.0714872
vt 0.311326 0.00826867
vn -0.6004419 -0.7988988 -0.03507689
v 0.187133 0.0970148 -0.0714872
vn 0.9995969 -0.006091699 -0.0277299
v 0.163849 0.0970148 0.0404107
vn 0.8954625 -0.01770469 0.4447848
v 0.136019 0.159498 0.0877535
vn 0.691815 0.4199599 0.5873889
v 0.150907 0.0145538 -0.0714872
vn 0.6004419 -0.7988988 -0.03507689
v -0.0891623 0.0709951 0.121295
vt 0.0457821 0.0788204
vn -0.4274918 -0.1996409 0.8816997
v 0 0.155006 0.157847
vt 0.0246573 0.183834
vn 0 0.142712 0.9897643
v -0.133062 0.0145538 0.0846528
vt 0.116151 0.00826867
vn -0.5910169 -0.5788939 0.5617659
v 0.0891623 0.0709951 0.121295
vn 0.4274918 -0.1996409 0.8816997
v 0.133062 0.0145538 0.0846528
vn 0.5910169 -0.5788939 0.5617659
v 0 0.00150607 0.0843584
vt 0.0159462 0.02134
vn 0 -0.7411203 0.6713723
v 0 0.00150607 -0.0714872
vt 1 0.596411
vn 0 -0.9993697 -0.03549799
vt 0.835181 0.749965
v 0 0.0100365 -0.194957
vt 1 0.750748
vn 0 -0.9847693 -0.173866
vt 0.809416 0.596411
vt 1.16482 0.749965
vt 0.831954 0.39642
vt 1.19058 0.596411
vt 1 0.396788
vt 1.16805 0.39642
vt 0.927683 0.827604
vt 1.07232 0.827604
vt 1 0.857303
v 0.307987 0.0283331 0.210375
vt 0.784653 0.850628
vn -0.103481 -0.9942952 0.02585771
v 0.352441 0.023469 0.132939
vt 0.84022 0.947424
vn -0.0140659 0.4794969 -0.8774309
v 0.468518 0.00724148 0.103415
vt 0.985316 0.984329
vn 0.7451759 -0.5622809 -0.3585429
v 0.240939 0.0422924 0.134037
vt 0.700842 0.946051
vn 0.09888376 -0.1927919 -0.9762445
v 0.395939 0.0242933 0.228668
vt 0.894592 0.827762
vn 0.6252251 -0.2801251 0.7284391
v 0.117951 0.056081 0.104016
vt 0.547107 0.983577
vn -0.109506 -0.991979 -0.0631361
v 0.327531 0.0344063 0.265404
vt 0.809083 0.781842
vn 0.1467341 0.2234841 0.9635995
v 0.247026 0.0358937 0.243697
vt 0.708451 0.808976
vn -0.4917332 -0.3399011 0.8016644
v 0.354288 0.056805 0.202907
vt 0.842529 0.859964
vn 0.276348 0.960125 0.0423287
v 0.270035 0.0730341 0.212334
vt 0.737212 0.84818
vn 0.0126379 0.997188 0.0738669
vn -0.15401 0.9861287 0.06189609
v -0.307987 0.0283331 0.210375
vn 0.103481 -0.9942952 0.02585781
v -0.468518 0.00724148 0.103415
vn -0.7451748 -0.5622818 -0.3585439
v -0.352441 0.023469 0.132939
vn 0.0140657 0.4794969 -0.8774309
v -0.395939 0.0242933 0.228668
vn -0.6252251 -0.2801251 0.7284391
v -0.240939 0.0422924 0.134037
vn -0.09888415 -0.1927919 -0.9762444
v -0.327531 0.0344063 0.265404
vn -0.1467341 0.2234841 0.9635995
v -0.117951 0.056081 0.104016
vn 0.109507 -0.9919789 -0.06313599
v -0.247026 0.0358937 0.243697
vn 0.4917332 -0.3399011 0.8016644
v -0.354288 0.056805 0.202907
vn -0.276348 0.960125 0.0423287
v -0.270035 0.0730341 0.212334
vn -0.0126381 0.997188 0.07386671
vn 0.15401 0.9861287 0.06189588
v -0.0711314 0.15588 0.0983823
vt 0.541891 0.90548
vn -0.3184039 0.007475498 -0.9479257
v 0 0.0606258 0.114044
vt 0.540667 0.898038
vn 0 -0.6002252 -0.7998312
vt 0.536574 0.897321
v 0.0711314 0.15588 0.0983823
vn 0.3184039 0.007475507 -0.9479257
vt 0.53733 0.90401
v 0 0.233657 0.114044
vt 0.540667 0.911556
vn 0.0007167151 0.5537251 -0.8326992
vt 0.536574 0.912834
vt 0.533287 0.894079
vt 0.533287 0.918088
v 0 0.245975 0.0622033
vt 2.88711E-05 0.513494
vn 0 0.8837813 0.4679002
vt -0.196967 0.485833
vt 4.69367E-05 0.375142
vt -0.205687 0.682848
vt 0.197045 0.485872
v 0 0.271455 -0.0714872
vt 0 0.662958
vn -0.5113189 0.8448818 0.157251
vt 0.205727 0.682911
vn 0.5113189 0.8448818 0.157251
vn -0.4940892 0.8445793 -0.2063051
vt -0.165092 0.82829
vt 0.165092 0.828377
vn 0.4940892 0.8445793 -0.2063051
v 0 0.234489 -0.207365
vt 0 0.818614
vt 0.100032 0.951585
vn 0.372165 0.653301 -0.659311
vn -0.3703591 0.6557391 -0.6579061
vt -0.0998216 0.951002
vt 0 0.989063
v 0.239872 0.0718169 -0.244386
vt 0.367106 0.922308
vn 0.0147319 0.9755411 -0.219323
v 0.273243 0.0208161 -0.357859
vt 0.508425 0.965757
vn -0.3421398 0.6303996 -0.6968046
v 0.225724 0.0425029 -0.267941
vt 0.381909 0.953302
vn -0.6943701 -0.6991321 -0.170483
v 0.304445 0.0247591 -0.264119
vt 0.432205 0.86859
vn 0.89145 -0.349316 0.288609
v 0.163067 0.0563035 -0.187255
vt 0.254581 0.962994
vn -0.2805561 0.9524905 -0.1185331
v 0.260806 0.0563035 -0.201734
vt 0.337071 0.871074
vn 0.4659809 -0.159962 0.8702149
vn 0.0281012 -0.9814419 0.18969
v -0.239872 0.0718169 -0.244386
vn -0.0147318 0.9755411 -0.219323
v -0.225724 0.0425029 -0.267941
vn 0.6943701 -0.6991321 -0.170483
v -0.273243 0.0208161 -0.357858
vn 0.3421409 0.6303988 -0.6968048
v -0.163067 0.0563035 -0.187255
vn 0.2805559 0.9524906 -0.118533
v -0.304445 0.0247591 -0.264119
vn -0.8914497 -0.3493169 0.2886089
v -0.260806 0.0563035 -0.201734
vn -0.4659809 -0.159962 0.8702149
vn -0.0281012 -0.9814419 0.18969
v 0 0.0585076 0.42104
vt 0.390916 0.290855
vn 0 -0.4560218 -0.8899686
vn 0 -0.171146 -0.9852457
vn -0.04761402 -0.4555042 -0.8889594
vn 0.04761452 -0.4555042 -0.8889594
vn 0.03138939 -0.6978509 -0.7155549
vn -0.031389 -0.6978509 -0.715555
v 0 0.0521243 -0.338198
vt 0.572626 0.910938
vn 0 0.0811124 -0.9967049
v 0 0.106284 -0.232915
vt 0.572626 0.894488
vn 0 0.8892406 -0.4574398
v 0.0330667 0.0555718 -0.23128
vt 0.577792 0.894232
vn 0.8352382 -0.4935781 -0.2424001
v -0.0330667 0.0555718 -0.23128
vt 0.567459 0.894232
vn -0.8352382 -0.4935781 -0.2424001
o polySurface1_0_0_node
g polygon_0
usemtl lambert2_mat_id
f 1/1/1 2/2/2 3/3/3
f 1/1/1 4/4/4 2/2/2
f 1/1/1 3/3/3 5/2/5
f 1/1/1 6/5/6 4/4/4
f 1/1/1 5/2/5 7/4/7
f 1/1/1 8/6/8 6/5/6
f 1/1/1 7/4/7 9/5/9
f 1/1/1 9/5/9 8/6/8
f 2/2/2 10/7/10 3/3/3
f 2/2/2 11/8/11 10/7/10
f 4/4/4 6/5/6 12/9/12
f 5/2/5 3/3/3 13/7/13
f 5/2/5 13/7/13 14/8/14
f 7/4/7 15/9/15 9/5/9
f 8/6/8 16/10/16 6/5/6
f 8/6/8 9/5/9 16/10/16
f 11/8/11 17/11/17 10/7/10
f 11/8/11 18/12/18 17/11/17
f 12/9/12 6/5/6 19/13/19
f 12/9/12 19/13/19 20/14/20
f 6/5/6 16/10/16 19/13/19
f 13/7/13 21/11/21 14/8/14
f 15/9/15 22/13/22 9/5/9
f 15/9/15 23/14/23 22/13/22
f 9/5/9 22/13/22 16/10/16
f 18/12/18 24/15/24 17/11/17
f 18/12/18 20/14/20 25/16/25
f 18/12/18 25/16/25 24/15/24
f 19/13/19 16/10/16 26/17/26
f 19/13/19 27/18/27 20/14/20
f 19/13/19 26/17/26 27/18/27
f 16/10/16 22/13/22 26/17/26
f 21/11/21 28/12/28 14/8/14
f 21/11/21 29/15/29 28/12/28
f 23/14/23 30/18/30 22/13/22
f 23/14/23 28/12/28 31/16/31
f 23/14/23 31/16/31 32/19/32
f 23/14/23 32/19/32 33/20/33
f 20/14/20 32/19/32 25/16/25
f 20/14/20 33/20/33 32/19/32
f 28/12/28 29/15/29 31/16/31
f 22/13/22 30/18/30 26/17/26
f 24/15/24 25/16/25 34/21/34
f 34/21/34 25/16/25 32/19/32
f 34/21/34 31/16/31 29/15/29
f 34/21/34 32/19/32 31/16/31
f 27/18/27 26/17/26 35/22/35
f 35/22/35 26/17/26 30/18/30
f 36/23/36 37/24/37 38/25/38
f 36/23/36 39/26/39 37/24/37
f 36/23/36 38/25/38 40/27/40
f 36/23/36 41/28/41 39/26/39
f 36/23/36 40/27/40 42/26/42
f 36/23/36 43/29/43 41/28/41
f 36/23/36 42/26/42 44/28/44
f 36/23/36 44/28/44 43/29/43
f 37/24/37 39/26/39 45/30/45
f 40/27/40 46/30/46 42/26/42
f 41/28/41 47/31/47 39/26/39
f 44/28/44 42/26/42 48/31/48
f 45/30/45 39/26/39 49/32/49
f 45/30/45 49/32/49 50/33/50
f 39/26/39 47/31/47 49/32/49
f 46/30/46 51/32/51 42/26/42
f 46/30/46 52/33/52 51/32/51
f 42/26/42 51/32/51 48/31/48
f 50/33/50 49/32/49 53/34/53
f 50/33/50 53/34/53 54/35/54
f 50/33/50 54/35/54 55/36/55
f 47/31/47 56/37/56 49/32/49
f 53/34/53 56/37/56 54/35/54
f 53/34/53 49/32/49 56/37/56
f 52/33/52 57/34/57 51/32/51
f 52/33/52 58/35/58 57/34/57
f 52/33/52 59/36/59 58/35/58
f 48/31/48 51/32/51 60/37/60
f 57/34/57 58/35/58 60/37/60
f 57/34/57 60/37/60 51/32/51
f 55/36/55 54/35/54 61/38/61
f 55/36/55 61/38/61 62/39/62
f 56/37/56 63/40/63 54/35/54
f 54/35/54 63/40/63 61/38/61
f 59/36/59 64/38/64 58/35/58
f 59/36/59 62/39/62 64/38/64
f 60/37/60 58/35/58 65/40/65
f 58/35/58 64/38/64 65/40/65
f 63/40/63 66/41/66 61/38/61
f 66/41/66 62/39/62 61/38/61
f 66/41/66 65/40/65 64/38/64
f 66/41/66 64/38/64 62/39/62
f 67/42/67 47/43/47 68/44/68
f 67/42/67 56/45/56 47/43/47
f 67/42/67 68/44/68 48/46/48
f 67/42/67 63/47/63 56/45/56
f 67/42/67 48/46/48 60/48/60
f 67/42/67 66/49/66 63/47/63
f 67/42/67 60/48/60 65/50/65
f 67/42/67 65/50/65 66/49/66
f 47/43/47 41/51/41 68/44/68
f 48/46/48 68/44/68 44/52/44
f 41/51/41 43/53/43 68/44/68
f 68/44/68 43/53/43 44/52/44
f 69/54/69 70/55/70 71/56/71
f 69/54/69 72/57/72 70/55/70
f 69/54/69 71/56/71 73/58/73
f 69/54/69 74/59/74 72/57/72
f 69/54/69 73/58/73 75/60/75
f 69/54/69 76/61/76 74/59/74
f 69/54/69 75/60/75 76/61/76
f 70/55/70 77/62/77 71/56/71
f 70/55/70 72/57/72 78/63/78
f 70/55/70 78/63/78 77/62/77
f 77/62/77 75/60/75 73/58/73
f 77/62/77 73/58/73 71/56/71
f 77/62/77 78/63/78 75/60/75
f 75/60/75 78/63/78 76/61/76
f 72/57/72 74/59/79 78/63/78
f 78/63/78 74/59/79 76/61/76
f 79/54/80 80/56/81 81/55/82
f 79/54/80 82/58/83 80/56/81
f 79/54/80 81/55/82 83/57/84
f 79/54/80 84/60/85 82/58/83
f 79/54/80 83/57/84 85/59/86
f 79/54/80 86/61/87 84/60/85
f 79/54/80 85/59/86 86/61/87
f 80/56/81 87/62/88 81/55/82
f 80/56/81 82/58/83 87/62/88
f 82/58/83 84/60/85 87/62/88
f 83/57/84 81/55/82 88/63/89
f 83/57/84 88/63/89 85/59/90
f 88/63/89 86/61/87 85/59/90
f 88/63/89 84/60/85 86/61/87
f 88/63/89 81/55/82 87/62/88
f 88/63/89 87/62/88 84/60/85
f 89/64/91 90/65/92 29/66/29
f 89/64/91 91/64/93 90/65/92
f 89/64/91 29/66/29 21/67/21
f 89/64/91 92/68/94 91/64/93
f 89/64/91 21/67/21 13/69/13
f 89/64/91 13/69/13 92/68/94
f 90/65/92 34/70/34 29/66/29
f 90/65/92 91/64/93 24/66/24
f 90/65/92 24/66/24 34/70/34
f 13/69/13 3/71/3 92/68/94
f 91/64/93 17/67/17 24/66/24
f 91/64/93 92/68/94 10/69/10
f 91/64/93 10/69/10 17/67/17
f 10/69/10 92/68/94 3/71/3
f 93/72/95 55/73/55 62/74/62
f 93/72/95 50/75/50 55/73/55
f 93/72/95 62/74/62 59/76/59
f 93/72/95 94/77/96 50/75/50
f 93/72/95 59/76/59 52/78/52
f 93/72/95 52/78/52 94/77/97
f 50/75/50 94/77/98 45/79/45
f 52/78/52 46/80/46 94/77/99
f 94/77/98 95/81/98 45/79/45
f 46/80/46 95/81/99 94/77/99
f 46/80/46 40/82/40 95/81/100
f 45/79/45 95/81/101 37/83/37
f 40/82/40 38/84/38 95/81/100
f 38/84/38 37/83/37 95/81/101
f 96/85/102 97/86/103 98/87/104
f 96/85/102 99/88/105 97/86/103
f 96/85/102 98/87/104 100/89/106
f 96/85/102 101/90/107 99/88/105
f 96/85/102 100/89/106 101/90/107
f 99/88/105 98/87/104 97/86/103
f 99/88/105 101/90/107 98/87/104
f 101/90/107 100/89/108 98/87/104
f 102/85/109 103/87/110 104/86/111
f 102/85/109 105/89/112 103/87/110
f 102/85/109 104/86/111 106/88/113
f 102/85/109 107/90/114 105/89/112
f 102/85/109 106/88/113 107/90/114
f 106/88/113 104/86/111 103/87/110
f 106/88/113 103/87/110 107/90/114
f 103/87/110 105/89/115 107/90/114
f 108/91/116 35/22/117 30/18/118
f 108/91/116 27/18/119 35/22/117
f 108/91/116 30/18/118 23/14/120
f 108/91/116 20/14/121 27/18/119
f 109/92/122 110/93/123 111/94/124
f 109/92/122 112/95/125 110/93/123
f 109/92/122 111/94/124 112/95/125
vt 0.949631 0.779281
vt 0.224049 0.852115
vt 0.187758 0.750255
vt 0.942924 0.880205
vt 0.250612 0.957055
vt 0.850265 0.994634
o polySurface1_1_0_node
g polygon_0
usemtl TEX_ANIM_EYE_mat_id
f 18/96/18 12/97/12 20/98/20
f 11/99/11 12/97/12 18/96/18
f 4/100/4 12/97/12 11/99/11
f 11/99/11 2/101/2 4/100/4
f 28/96/28 23/98/23 15/97/15
f 14/99/14 15/97/15 7/100/7
f 28/96/28 15/97/15 14/99/14
f 14/99/14 7/100/7 5/101/5
