mtllib Probopass.mtl
v 0.317938 0.141244 -0.09461039
vt 0.814831 0.892668
vn -0.3403749 -0.6353308 -0.6931808
v 0.254569 0.141244 -0.0312414
vt 0.794648 0.892668
vn -0.744566 -0.667549 0
v 0.314892 0.195137 -0.139882
vt 0.814831 0.917436
vn -0.3787111 -0.6077542 -0.6980063
v 0.206251 0.195137 -0.0312414
vt 0.785728 0.917436
v 0.317938 0.141244 0.0321277
vn -0.3403749 -0.6353308 0.6931808
v 0.314892 0.195137 0.0773994
vn -0.3787111 -0.6077542 0.6980063
v 0.423532 0.195137 -0.0312414
vt 0.843935 0.917436
vn 0.7871661 -0.6167411 0
v 0.377168 0.195137 0.0341128
vt 0.831514 0.917436
vn 0.5711279 -0.5844768 0.5763679
v 0.381307 0.141244 -0.0312414
vt 0.835015 0.892668
vn 0.726509 -0.687157 0
v 0.377168 0.195137 -0.09659559
vn 0.5711279 -0.5844768 -0.5763679
vn -0.9389484 0.3440582 0
v 0.261497 0.345906 -0.0312414
vt 0.796855 0.968073
vn -0.4478021 0.3005981 -0.8420891
v 0.317938 0.345906 -0.0876831
vt 0.814831 0.968073
vn -0.4201418 0.3224469 -0.8482386
vn -0.4478021 0.3005981 0.8420891
v 0.317938 0.345906 0.0252003
vn -0.4201419 0.322446 0.8482389
v 0.461874 0.195169 -0.0312414
vt 0.956039 0.894783
vn 0.5756709 0.334143 0.7462919
v 0.37438 0.345906 -0.0312414
vt 0.923082 0.962193
vt 0.921088 0.89477
vn 0 -1 0
vt 0.940219 0.89477
vt 0.63462 0.53243
vt 0.579809 0.0151688
vt 0.94001 0.0151688
vn 0.5879321 0.2759201 0.7603973
vt 1.15947 0.53243
vn 0.673546 0.30442 0.673546
vn 0.6735462 0.3044191 -0.6735462
vn 0.5879321 0.2759201 -0.7603973
vn 0.5756709 0.334143 -0.7462919
vn 0 1 0
vt 0.832808 0.968073
v -0.317938 0.141244 0.0321277
vn 0.3403751 -0.6353303 0.6931813
v -0.254569 0.141244 -0.0312414
vn 0.7445665 -0.6675484 0
v -0.314892 0.195137 0.0773994
vn 0.3787108 -0.6077538 0.6980068
v -0.206251 0.195137 -0.0312414
v -0.317938 0.141244 -0.09461039
vn 0.3403749 -0.6353308 -0.6931808
v -0.314892 0.195137 -0.139882
vn 0.378712 -0.6077541 -0.698006
v -0.423533 0.195137 -0.0312414
vn -0.7871647 -0.6167428 0
v -0.377168 0.195137 -0.0965955
vn -0.5763682 -0.5844762 -0.5711282
v -0.381308 0.141244 -0.0312414
vn -0.726508 -0.687158 0
v -0.377168 0.195137 0.0341128
vn -0.5711271 -0.5844772 0.5763681
vn 0.9389485 0.3440578 0
v -0.261497 0.345906 -0.0312414
vn 0.4478021 0.3005981 0.8420891
v -0.317938 0.345906 0.0252003
vn 0.4201419 0.322446 0.8482389
vn 0.4478021 0.3005981 -0.8420891
v -0.317938 0.345906 -0.0876831
vn 0.4201419 0.322446 -0.8482389
v -0.461874 0.195169 -0.0312414
vn -0.5756691 0.3341431 -0.7462932
v -0.37438 0.345906 -0.0312414
vn -0.5879321 0.2759201 -0.7603973
vn -0.673546 0.30442 -0.673546
vn -0.673546 0.30442 0.673546
vn -0.5879321 0.2759201 0.7603973
vn -0.5756691 0.3341431 0.7462932
v -0.179622 0.00212035 0.00970089
vt 0.176496 0.774587
vn -0.6291029 -0.7713509 -0.09616359
v -0.299938 0.104491 0.034588
vt 0.171068 0.793656
v -0.149438 0.00212035 -0.128838
vt 0.201841 0.774587
v -0.271501 0.104491 -0.210367
vt 0.213661 0.793656
v -0.0937841 0.00212035 0.120867
vt 0.15617 0.774587
vn -0.5446461 -0.6404331 0.5414851
v -0.113488 0.104491 0.197299
vt 0.142499 0.793656
vn 0 -0.598263 0.8012999
v 0.0937841 0.00212035 0.120867
v 0.113488 0.104491 0.197299
vn 0.5446461 -0.6404331 0.5414851
v 0.179622 0.00212035 0.00970092
v 0.299938 0.104491 0.034588
vn 0.6291023 -0.7713513 -0.09616354
v 0.149438 0.00212035 -0.128838
v 0.271501 0.104491 -0.210367
v 0 0.00212035 -0.20664
vt 0.213121 0.774587
vn 0.28281 -0.770829 -0.570825
v 0 0.104491 -0.341115
vt 0.232617 0.793656
vn -0.28281 -0.770829 -0.570825
vn -0.9343482 0.3206591 -0.155471
v -0.163971 0.420075 -0.13165
vt 0.198636 0.85157
v -0.204469 0.420075 0.0376735
vt 0.178014 0.85157
vn -0.6298111 0.198297 0.7510101
v -0.119962 0.372937 0.114638
vt 0.165795 0.844531
vn 0 0.294287 0.9557171
v 0.119962 0.372937 0.114638
vn 0.629811 0.198298 0.75101
v 0.204469 0.420075 0.0376735
vn 0.9343482 0.3206591 -0.155471
v 0.163971 0.420075 -0.13165
vn 0.406582 0.349126 -0.8442761
v 0 0.420075 -0.210614
vt 0.207814 0.85157
vn -0.406582 0.349126 -0.8442761
vn 0.09667161 0.9793451 0.177589
vn 0 0.989618 0.143723
vn 0.2534419 0.9445667 0.2087129
vn -0.0966717 0.979345 0.177589
vn -0.2534419 0.9445667 0.2087129
v 0 0.482028 -0.252378
vt 0.187436 0.970229
vn 0 0 -1
v -0.218566 0.482028 -0.126189
vt 0.159195 0.954631
vn -0.8660253 0 -0.5000002
v 0 0.686599 -0.252378
v -0.218566 0.686599 -0.126189
v -0.218566 0.482028 0.126189
vt 0.159195 0.923436
vn -0.9724144 0 0.2332601
v -0.218566 0.686599 0.126189
v -0.0780219 0.482028 0.207332
vt 0.177355 0.913407
vn -0.5000002 0 0.8660253
v 0 0.686599 0.252378
vt 0.187436 0.907839
vn 0 0 1
v 0 0.543484 0.252378
v 0.218566 0.686599 0.126189
vt 0.215677 0.923436
vn 0.9727082 0 0.232032
v 0.218566 0.482028 0.126189
v 0.218566 0.686599 -0.126189
vt 0.215677 0.954631
vn 0.8660256 0 -0.4999998
v 0.218566 0.482028 -0.126189
vn 0 -0.999873 0.0159345
vn 0 -0.9926695 0.1208611
vn 0.3127321 -0.9483573 0.05307671
v 0.0780219 0.482028 0.207332
vt 0.197518 0.913407
vn -0.3127321 -0.9483573 0.05307651
vn 0.5000002 0 0.8660253
v -0.146573 0.6587549 -0.084624
vt 0.0338552 0.948929
v -0.146573 0.6587549 0.0846239
vt 0.0338551 0.913923
vn -0.8660256 0 0.4999998
v -0.146573 0.731743 -0.084624
v -0.146573 0.731743 0.0846239
v 0 0.6587549 0.169248
vt 0.0641716 0.89642
v 0 0.731743 0.169248
v 0.146573 0.6587549 0.0846239
vt 0.094488 0.913923
vn 0.8660253 0 0.5000002
v 0.146573 0.731743 0.0846239
v 0.146573 0.6587549 -0.0846239
vt 0.094488 0.948929
v 0.146573 0.731743 -0.0846239
v 0 0.6587549 -0.169248
vt 0.0641716 0.966432
v 0 0.731743 -0.169248
v 0.0877387 0.365376 -0.15688
vt 0.349294 0.815856
vn 0.324394 0 -0.9459221
v -0.0877387 0.365376 -0.15688
vn -0.324394 0 -0.9459221
v 0.0877387 0.546263 -0.15688
vt 0.349294 0.852217
v -0.0877387 0.546263 -0.15688
v -0.175477 0.379739 0
vt 0.323455 0.815856
vn -0.9953485 0.03620852 0.08927745
v -0.175477 0.546263 0
vt 0.323455 0.852217
vn -1 0 0.000123179
v -0.114627 0.208303 0.165332
vt 0.273488 0.76795
vn -0.194969 0.07892468 0.9776288
v -0.0877 0.379739 0.156862
vt 0.287247 0.815856
vn -0.3041971 0.05005301 0.9512932
v 0.114627 0.208303 0.165332
vn 0.194969 0.07892468 0.9776288
v 0.0877 0.379739 0.156862
vn 0.3041971 0.05005301 0.9512932
v 0.175477 0.379739 0
vn 0.9953484 0.03620851 0.08927754
v 0.175477 0.546263 0
vn 1 0 0.000123382
v -0.0877 0.546263 0.156862
vt 0.297617 0.852217
vn -0.336767 0 0.941588
v 0.0877 0.546263 0.156862
vn 0.336767 0 0.941588
v 0.194025 0.178493 0.08194
vt 0.0854593 0.804099
vn 0.8349132 0.406846 0.3706701
v 0.121302 0.178493 0.250372
vt 0.0561265 0.804099
vn 0.6543057 0.4557478 0.6034717
v 0.212517 0.141226 0.0858201
vt 0.0850139 0.798057
v 0.127518 0.141226 0.272648
vt 0.0528733 0.798057
vn 0.7384118 0.4506499 0.5016599
vn 0.4841361 -0.8468162 0.2202601
vn 0.402443 -0.862712 0.306215
v 0 0.03152187 0.131166
vt 0.0827922 0.780272
vn 0 -0.9496011 0.313461
v 0.049206 0.412403 0.152263
vt 0.0949886 0.84202
vn 0.9512001 0.306849 0.0325905
vn 0.8855008 0.4558399 0.08999108
v 0.1146 0.2083 0.165332
vt 0.0795204 0.805112
vn 0.8534565 0.5091613 0.1112061
vn 0.5497902 0.8008623 0.2373821
v -0.194025 0.178493 0.08194
vn -0.8349132 0.406846 0.3706701
v -0.212517 0.141226 0.0858201
v -0.121302 0.178493 0.250372
vn -0.6543057 0.4557478 0.6034717
v -0.127518 0.141226 0.272648
vn -0.7384118 0.4506499 0.5016599
vn -0.402443 -0.862712 0.306215
vn -0.4841361 -0.8468162 0.2202601
vn -0.474045 0.8563809 0.204678
vn -0.8696591 0.4936481 -0.00215692
v -0.104171 0.2083 0.165332
vn -0.8526905 0.5222943 0.01130221
v -0.049206 0.412403 0.152262
vn -0.9618997 0.252297 -0.105334
v 0 0.436107 0.156795
vt 0.0965796 0.845862
vn -0.3428178 0.5686527 0.7477366
vn -0.445823 0.5285779 0.7223899
v 0 0.141226 0.381052
vt 0.0344992 0.798057
vn -0.565376 0.47042 0.677536
vn 0 -0.9156471 0.4019831
vn 0.3428169 0.5686529 0.7477369
vn 0.565376 0.47042 0.677536
vn 0.445823 0.5285779 0.7223899
v -0.168356 0.104491 0.141057
vt -0.452588 0.361064
vn -0.8061739 -0.4699759 0.3594529
v -0.0582594 0.04708697 0.291472
vt -0.182169 0.454371
vn -0.3787288 -0.7509587 0.5409488
v -0.115582 0.136209 0.255871
vt -0.361408 0.566891
vn -0.7715119 -0.253608 0.583483
v -0.166769 0.132575 0.141645
vt -0.496229 0.481213
vn -0.912227 0.0430207 0.40742
v 0 0.134256 0.341296
vt 0 0.738928
vn 0 -0.254727 0.967013
v -0.108818 0.04375367 0.137892
vt -0.307511 0.142838
vn -0.4656759 -0.8680518 0.17214
v 0.115582 0.136209 0.255871
vt 0.361408 0.566891
vn 0.7715119 -0.253608 0.583483
v 0.0582594 0.04708697 0.291472
vt 0.182169 0.454371
vn 0.3787288 -0.7509587 0.5409488
v 0.108818 0.04375367 0.137892
vt 0.307511 0.142838
vn 0.4656759 -0.8680518 0.17214
v 0.168356 0.104491 0.141057
vt 0.452588 0.361064
vn 0.8061739 -0.4699759 0.3594529
v 0.166769 0.132575 0.141645
vt 0.496229 0.481213
vn 0.912227 0.043022 0.40742
v 0 0.02146407 0.132048
vt 0 0.0389358
vn 0 -0.9944585 0.1051299
v -0.0633691 0.141244 -0.317938
vn -0.6931812 -0.6353303 0.3403751
v 0 0.141244 -0.254569
vn 0 -0.667549 0.744566
v -0.108641 0.195137 -0.314892
vn -0.6980065 -0.6077536 0.3787117
v 0 0.195137 -0.206251
v 0.0633691 0.141244 -0.317938
vn 0.6931809 -0.6353309 0.3403749
v 0.108641 0.195137 -0.314892
vn 0.698006 -0.607754 0.378712
v 0 0.195137 -0.423532
vn 0 -0.61674 -0.787167
v 0.0653543 0.195137 -0.377168
vn 0.5711278 -0.5844768 -0.5763678
v 0 0.141244 -0.381307
vn 0 -0.687157 -0.726509
v -0.0653542 0.195137 -0.377168
vn 0 0.3440578 0.9389485
v 0 0.345906 -0.261497
vn -0.8420897 0.3005969 0.4478019
v -0.0564417 0.345906 -0.317938
vn -0.8482389 0.322446 0.420142
vn 0.8420892 0.3005981 0.4478021
v 0.0564417 0.345906 -0.317938
vn 0.848239 0.322447 0.420141
v 0 0.195169 -0.461874
vn 0.7462912 0.3341441 -0.5756711
v 0 0.345906 -0.37438
vn 0.7603981 0.27592 -0.587931
vn -0.7603972 0.2759201 -0.5879321
vn -0.7462918 0.3341429 -0.5756709
o merged_0_0_node
g polygon_0
usemtl mat_body_mat_id
f 1/1/1 2/2/2 3/3/3
f 3/3/3 2/2/2 4/4/2
f 5/1/4 6/3/5 2/2/2
f 2/2/2 6/3/5 4/4/2
f 7/5/6 8/6/7 9/7/8
f 9/7/8 8/6/7 5/1/4
f 5/1/4 8/6/7 6/3/5
f 3/3/3 10/6/9 1/1/1
f 1/1/1 10/6/9 9/7/8
f 9/7/8 10/6/9 7/5/6
f 4/4/10 11/8/10 3/3/11
f 3/3/11 11/8/10 12/9/12
f 4/4/10 6/3/13 11/8/10
f 11/8/10 6/3/13 13/9/14
f 14/10/15 15/11/15 8/12/15
f 8/12/16 7/13/16 14/10/16
f 13/14/14 6/15/13 8/16/17
f 8/16/17 15/17/18 13/14/14
f 12/14/12 15/17/19 10/16/20
f 3/15/11 12/14/12 10/16/20
f 14/10/16 7/13/16 10/12/16
f 10/12/21 15/11/21 14/10/21
f 2/2/16 1/1/16 9/7/16
f 5/1/16 2/2/16 9/7/16
f 12/9/22 11/8/22 15/18/22
f 11/8/22 13/9/22 15/18/22
f 16/1/23 17/2/24 18/3/25
f 18/3/25 17/2/24 19/4/24
f 20/1/26 21/3/27 17/2/24
f 17/2/24 21/3/27 19/4/24
f 22/5/28 23/6/29 24/7/30
f 24/7/30 23/6/29 20/1/26
f 20/1/26 23/6/29 21/3/27
f 18/3/25 25/6/31 16/1/23
f 16/1/23 25/6/31 24/7/30
f 24/7/30 25/6/31 22/5/28
f 19/4/32 26/8/32 18/3/33
f 18/3/33 26/8/32 27/9/34
f 19/4/32 21/3/35 26/8/32
f 26/8/32 21/3/35 28/9/36
f 29/10/37 30/11/37 23/12/37
f 23/12/16 22/13/16 29/10/16
f 28/14/36 21/15/35 23/16/38
f 23/16/38 30/17/39 28/14/36
f 27/14/34 30/17/40 25/16/41
f 18/15/33 27/14/34 25/16/41
f 29/10/16 22/13/16 25/12/16
f 25/12/42 30/11/42 29/10/42
f 17/2/16 16/1/16 24/7/16
f 20/1/16 17/2/16 24/7/16
f 27/9/22 26/8/22 30/18/22
f 26/8/22 28/9/22 30/18/22
f 31/19/43 32/20/43 33/21/43
f 33/21/43 32/20/43 34/22/43
f 35/23/44 36/24/44 31/19/44
f 31/19/44 36/24/44 32/20/44
f 35/23/45 37/23/45 36/24/45
f 36/24/45 37/23/45 38/24/45
f 37/23/46 39/19/46 38/24/46
f 38/24/46 39/19/46 40/20/46
f 39/19/47 41/21/47 40/20/47
f 40/20/47 41/21/47 42/22/47
f 43/25/48 44/26/48 41/21/48
f 41/21/48 44/26/48 42/22/48
f 43/25/49 33/21/49 44/26/49
f 44/26/49 33/21/49 34/22/49
f 34/22/50 32/20/50 45/27/50
f 45/27/50 32/20/50 46/28/50
f 36/24/51 47/29/51 32/20/51
f 32/20/51 47/29/51 46/28/51
f 36/24/52 38/24/52 47/29/52
f 47/29/52 38/24/52 48/29/52
f 38/24/53 40/20/53 48/29/53
f 48/29/53 40/20/53 49/28/53
f 42/22/54 50/27/54 40/20/54
f 40/20/54 50/27/54 49/28/54
f 42/22/55 44/26/55 50/27/55
f 50/27/55 44/26/55 51/30/55
f 34/22/56 45/27/56 44/26/56
f 44/26/56 45/27/56 51/30/56
f 31/19/16 33/21/16 43/25/16
f 35/23/16 31/19/16 43/25/16
f 37/23/16 35/23/16 43/25/16
f 39/19/16 37/23/16 43/25/16
f 41/21/16 39/19/16 43/25/16
f 47/29/57 51/30/58 46/28/59
f 45/27/22 46/28/59 51/30/58
f 47/29/57 48/29/60 51/30/58
f 48/29/60 49/28/61 51/30/58
f 51/30/58 49/28/61 50/27/22
f 52/31/62 53/32/63 54/31/62
f 54/31/62 53/32/63 55/32/63
f 53/32/63 56/33/64 55/32/63
f 55/32/63 56/33/64 57/33/64
f 56/33/64 58/34/65 57/33/64
f 59/35/66 57/33/64 60/35/66
f 60/35/66 57/33/64 58/34/65
f 61/36/67 62/36/67 63/37/68
f 63/37/68 62/36/67 64/37/68
f 64/37/68 52/31/62 63/37/68
f 63/37/68 52/31/62 54/31/62
f 56/33/16 53/32/16 52/31/69
f 60/35/70 58/34/71 52/31/69
f 52/31/69 58/34/71 56/33/16
f 62/36/16 65/38/72 52/31/69
f 52/31/69 65/38/72 60/35/70
f 62/36/67 61/36/67 65/38/73
f 65/38/73 61/36/67 60/35/66
f 59/35/66 60/35/66 61/36/67
f 64/37/16 62/36/16 52/31/69
f 55/32/22 57/33/22 54/31/22
f 57/33/22 59/35/22 54/31/22
f 59/35/22 61/36/22 54/31/22
f 61/36/22 63/37/22 54/31/22
f 66/39/63 67/40/74 68/39/63
f 68/39/63 67/40/74 69/40/74
f 67/40/74 70/41/66 69/40/74
f 69/40/74 70/41/66 71/41/66
f 70/41/66 72/42/75 71/41/66
f 71/41/66 72/42/75 73/42/75
f 72/42/75 74/43/68 73/42/75
f 73/42/75 74/43/68 75/43/68
f 74/43/68 76/44/62 75/43/68
f 75/43/68 76/44/62 77/44/62
f 76/44/62 66/39/63 77/44/62
f 77/44/62 66/39/63 68/39/63
f 68/39/22 69/40/22 71/41/22
f 73/42/22 75/43/22 71/41/22
f 75/43/22 77/44/22 71/41/22
f 77/44/22 68/39/22 71/41/22
f 78/45/76 79/45/77 80/46/76
f 80/46/76 79/45/77 81/46/77
f 79/45/77 82/47/78 81/46/77
f 82/47/78 83/48/79 81/46/77
f 82/47/78 84/49/80 85/50/81
f 84/49/80 86/49/82 85/50/81
f 85/50/81 86/49/82 87/50/83
f 86/49/82 88/47/84 87/50/83
f 78/45/76 80/46/76 88/47/84
f 88/47/84 80/46/76 89/48/85
f 85/50/81 87/50/83 90/51/86
f 90/51/86 87/50/83 91/51/87
f 92/52/88 93/53/89 94/54/88
f 94/54/88 93/53/89 95/55/90
f 94/54/91 95/55/92 96/56/93
f 97/57/94 93/53/95 98/58/96
f 93/53/95 92/52/97 98/58/96
f 99/52/98 100/54/98 101/53/99
f 101/53/99 100/54/98 102/55/100
f 102/55/101 100/54/102 96/56/93
f 99/52/103 101/53/104 103/58/105
f 103/58/105 101/53/104 104/57/106
f 105/59/107 104/57/108 106/60/109
f 102/55/100 106/60/109 101/53/99
f 101/53/99 106/60/109 104/57/108
f 106/60/110 102/55/101 96/56/93
f 105/59/111 106/60/112 97/57/113
f 95/55/90 93/53/89 106/60/112
f 106/60/112 93/53/89 97/57/113
f 95/55/92 106/60/110 96/56/93
f 107/61/114 108/62/115 109/63/116
f 110/64/117 107/61/114 109/63/116
f 111/65/118 109/63/116 108/62/115
f 107/61/114 112/66/119 108/62/115
f 113/67/120 111/65/118 114/68/121
f 108/62/115 114/68/121 111/65/118
f 114/68/121 115/69/122 116/70/123
f 113/67/120 116/70/123 117/71/124
f 113/67/120 114/68/121 116/70/123
f 112/66/119 118/72/125 108/62/115
f 108/62/115 118/72/125 114/68/121
f 114/68/121 118/72/125 115/69/122
f 119/1/126 120/2/127 121/3/128
f 121/3/128 120/2/127 122/4/127
f 123/1/129 124/3/130 120/2/127
f 120/2/127 124/3/130 122/4/127
f 125/5/131 126/6/132 127/7/133
f 127/7/133 126/6/132 123/1/129
f 123/1/129 126/6/132 124/3/130
f 121/3/128 128/6/29 119/1/126
f 119/1/126 128/6/29 127/7/133
f 127/7/133 128/6/29 125/5/131
f 122/4/134 129/8/134 121/3/135
f 121/3/135 129/8/134 130/9/136
f 122/4/134 124/3/137 129/8/134
f 129/8/134 124/3/137 131/9/138
f 132/10/139 133/11/139 126/12/139
f 126/12/16 125/13/16 132/10/16
f 131/14/138 124/15/137 126/16/140
f 126/16/140 133/17/19 131/14/138
f 130/14/136 133/17/39 128/16/141
f 121/15/135 130/14/136 128/16/141
f 132/10/16 125/13/16 128/12/16
f 128/12/142 133/11/142 132/10/142
f 120/2/16 119/1/16 127/7/16
f 123/1/16 120/2/16 127/7/16
f 130/9/22 129/8/22 133/18/22
f 129/8/22 131/9/22 133/18/22
vt 0.0360125 0.745285
vt 0.0360125 1.00444
vt 1.21756 0.745285
vt 1.21756 1.00444
o merged_1_0_node
g polygon_0
usemtl TEX_ANIM_EYE_mat_id
f 85/73/81 90/74/86 82/75/78
f 82/75/78 90/74/86 83/76/79
f 87/73/83 88/75/84 91/74/87
f 91/74/87 88/75/84 89/76/85
