ply
format ascii 1.0
element vertex 445
property float x
property float y
property float z
property uchar red
property uchar green
property uchar blue
element face 538
property list uchar int vertex_index
end_header
0.56131 -0.10711 1.56396 101 148 210
1.09305 -0.10652 1.56381 101 148 210
1.09297 -0.10683 1.28549 101 148 210
0.56131 -0.10741 1.28565 101 148 210
1.09309 0.17149 1.28518 101 148 210
0.56148 0.17192 1.28531 101 148 210
0.56148 0.17221 1.56363 106 155 220
1.09317 0.1718 1.5635 106 155 220
1.09305 -0.10652 1.56381 106 155 220
0.56131 -0.10711 1.56396 106 155 220
1.09317 0.1718 1.5635 101 148 210
0.56148 0.17221 1.56363 101 148 210
1.07204 -0.16247 1.22604 221 225 239
1.07216 -0.16204 1.61416 221 225 239
1.14933 -0.16207 1.61414 221 225 239
1.14922 -0.16251 1.22602 221 225 239
1.07222 0.22564 1.22561 221 225 239
1.14939 0.22561 1.22558 221 225 239
1.07216 -0.16204 1.61416 226 230 245
1.07233 0.22608 1.61372 226 230 245
1.1495 0.22604 1.6137 226 230 245
1.14933 -0.16207 1.61414 226 230 245
1.07233 0.22608 1.61372 221 225 239
1.1495 0.22604 1.6137 221 225 239
1.14954 0.30177 1.59715 221 225 239
1.14942 0.30131 1.24696 221 225 239
1.14939 0.25782 1.19863 221 225 239
1.57231 0.30158 1.59703 221 225 239
1.57219 0.30112 1.24684 221 225 239
1.54344 0.25765 1.19851 221 225 239
1.62409 0.23862 1.59754 221 225 239
1.62397 0.23815 1.24643 221 225 239
1.54324 0.25756 1.64143 221 225 239
1.14954 0.25773 1.64155 221 225 239
1.14926 -0.01042 1.19886 221 225 239
1.14934 -0.1945 1.64202 221 225 239
1.1493 -0.23777 1.59776 221 225 239
1.14924 -0.238 1.42016 221 225 239
1.14918 -0.23823 1.24757 221 225 239
1.14919 -0.17872 1.1991 221 225 239
1.14914 -0.31096 1.17581 221 225 239
1.14921 -0.311 1.42024 221 225 239
1.14913 -0.26161 1.12397 221 225 239
1.14924 -0.01052 1.12372 221 225 239
1.36062 -0.01061 1.12366 221 225 239
1.36064 -0.01051 1.1988 221 225 239
1.62379 -0.17549 1.24689 221 225 239
1.62391 -0.17503 1.598 221 225 239
1.57207 -0.23796 1.59764 221 225 239
1.54303 -0.19467 1.6419 221 225 239
1.36063 -0.2381 1.4201 221 225 239
1.58588 -0.14109 1.64178 221 225 239
1.57195 -0.23842 1.24745 221 225 239
1.54323 -0.19597 1.19898 221 225 239
1.58608 -0.14062 1.19886 221 225 239
1.58625 0.20225 1.19863 221 225 239
1.36057 -0.23833 1.24751 221 225 239
1.36057 -0.1959 1.19904 221 225 239
1.3606 -0.31109 1.42018 221 225 239
1.36053 -0.31105 1.17575 221 225 239
1.36051 -0.26171 1.12391 221 225 239
1.54324 0.25756 1.64143 226 230 245
1.54303 -0.19467 1.6419 226 230 245
1.14934 -0.1945 1.64202 226 230 245
1.14954 0.25773 1.64155 226 230 245
1.58588 -0.14109 1.64178 226 230 245
1.58605 0.20393 1.64155 226 230 245
1.36063 -0.2381 1.4201 226 230 245
1.3606 -0.31109 1.42018 226 230 245
1.14921 -0.311 1.42024 226 230 245
1.14924 -0.238 1.42016 226 230 245
1.58605 0.20393 1.64155 221 225 239
0.37678 -0.61391 1.87266 255 255 255
0.37678 -0.61391 1.95292 255 255 255
0.45704 -0.61391 1.95292 255 255 255
0.45704 -0.61391 1.87266 255 255 255
0.29385 -0.61391 2.02371 255 255 255
0.29385 -0.5828 2.02371 255 255 255
0.62982 -0.5828 2.02371 255 255 255
0.62982 -0.61391 2.02371 255 255 255
0.62982 -0.61391 1.68774 255 255 255
0.62982 -0.5828 1.68774 255 255 255
0.29385 -0.5828 1.68774 255 255 255
0.29385 -0.61391 1.68774 255 255 255
0.58222 -0.61391 1.97611 255 255 255
0.58222 -0.61391 1.73534 255 255 255
0.54814 -0.61391 1.73534 255 255 255
0.34145 -0.61391 1.97611 255 255 255
0.34145 -0.61391 1.73534 255 255 255
0.40179 -0.61391 1.73534 255 255 255
0.40179 -0.61391 1.80696 25 15 16
0.37678 -0.61391 1.87266 25 15 16
0.45704 -0.61391 1.87266 25 15 16
0.54814 -0.61391 1.80696 25 15 16
0.45704 -0.61391 1.95292 25 15 16
0.58222 -0.61391 1.97611 25 15 16
0.37678 -0.61391 1.95292 25 15 16
0.34145 -0.61391 1.97611 25 15 16
0.34145 -0.61391 1.73534 25 15 16
0.40179 -0.61391 1.73534 25 15 16
0.58222 -0.61391 1.73534 25 15 16
0.54814 -0.61391 1.73534 25 15 16
0.40179 -0.61391 1.80696 35 28 28
0.54814 -0.61391 1.80696 35 28 28
0.54814 -0.61391 1.73534 35 28 28
0.40179 -0.61391 1.73534 35 28 28
-0.22244 -0.56246 1.76911 101 148 210
-0.27261 -0.59295 1.76911 101 148 210
-0.27261 -0.59265 2.04717 101 148 210
-0.22244 -0.56216 2.04726 101 148 210
-0.22244 -0.23473 1.76964 101 148 210
-0.22244 -0.25572 2.04783 101 148 210
-0.31618 -0.55439 2.09153 101 148 210
-0.26786 -0.52389 2.09163 101 148 210
-0.26786 -0.28494 2.09238 101 148 210
-0.65275 -0.59295 1.76911 101 148 210
-0.65275 -0.59265 2.04717 101 148 210
-0.60919 -0.55439 2.09153 101 148 210
-0.70075 -0.56246 1.76911 101 148 210
-0.70075 -0.56216 2.04726 101 148 210
-0.70075 -0.25572 2.04783 101 148 210
-0.70075 -0.23473 1.76964 101 148 210
-0.65533 -0.28494 2.09238 101 148 210
-0.65533 -0.52389 2.09163 101 148 210
-0.26786 -0.52389 2.09163 106 155 220
-0.31618 -0.55439 2.09153 106 155 220
-0.31618 -0.25445 2.09207 106 155 220
-0.26786 -0.28494 2.09238 106 155 220
-0.60919 -0.55439 2.09153 106 155 220
-0.60919 -0.25445 2.09207 106 155 220
-0.65533 -0.52389 2.09163 106 155 220
-0.65533 -0.28494 2.09238 106 155 220
-0.28401 -0.21652 2.04742 101 148 210
-0.28401 -0.19601 1.76886 101 148 210
-0.64136 -0.21652 2.04742 101 148 210
-0.64136 -0.19601 1.76886 101 148 210
-0.31618 -0.25445 2.09207 101 148 210
-0.60919 -0.25445 2.09207 101 148 210
0.22244 -0.56246 1.76911 101 148 210
0.22244 -0.56216 2.04726 101 148 210
0.27261 -0.59265 2.04717 101 148 210
0.27261 -0.59295 1.76911 101 148 210
0.22244 -0.23473 1.76964 101 148 210
0.22244 -0.25572 2.04783 101 148 210
0.31618 -0.55439 2.09153 101 148 210
0.26786 -0.52389 2.09163 101 148 210
0.26786 -0.28494 2.09238 101 148 210
0.65275 -0.59295 1.76911 101 148 210
0.65275 -0.59265 2.04717 101 148 210
0.60919 -0.55439 2.09153 101 148 210
0.70075 -0.56246 1.76911 101 148 210
0.70075 -0.56216 2.04726 101 148 210
0.70075 -0.25572 2.04783 101 148 210
0.70075 -0.23473 1.76964 101 148 210
0.65533 -0.28494 2.09238 101 148 210
0.65533 -0.52389 2.09163 101 148 210
0.26786 -0.52389 2.09163 106 155 220
0.26786 -0.28494 2.09238 106 155 220
0.31618 -0.25445 2.09207 106 155 220
0.31618 -0.55439 2.09153 106 155 220
0.60919 -0.55439 2.09153 106 155 220
0.60919 -0.25445 2.09207 106 155 220
0.65533 -0.52389 2.09163 106 155 220
0.65533 -0.28494 2.09238 106 155 220
0.28401 -0.19601 1.76886 101 148 210
0.28401 -0.21652 2.04742 101 148 210
0.64136 -0.21652 2.04742 101 148 210
0.64136 -0.19601 1.76886 101 148 210
0.31618 -0.25445 2.09207 101 148 210
0.60919 -0.25445 2.09207 101 148 210
0.75291 -0.59822 1.77631 101 148 210
0.75291 -0.59822 0.39278 101 148 210
0.60043 -0.59822 0.5064 101 148 210
0.60043 -0.59822 1.51217 101 148 210
0.53465 -0.59822 0.42655 101 148 210
0.53465 -0.59822 1.59201 101 148 210
0.125 -0.59822 1.59201 101 148 210
0.125 -0.59822 1.77631 101 148 210
-0.75291 -0.59822 0.39278 101 148 210
-0.75291 -0.49995 0.32499 101 148 210
0.75291 -0.49995 0.32499 101 148 210
-0.75291 0.60306 0.32499 101 148 210
0.75291 0.60306 0.32499 101 148 210
-0.75291 0.69662 0.39278 101 148 210
0.75291 0.69662 0.39278 101 148 210
0.81774 0.5573 0.41054 101 148 210
0.81774 -0.43664 0.41054 101 148 210
-0.75291 0.68852 1.77631 101 148 210
0.75291 0.68852 1.77631 101 148 210
-0.81774 0.5573 0.41054 101 148 210
-0.69649 0.63865 1.83567 101 148 210
-0.75291 0.52991 1.83567 101 148 210
-0.81774 0.55036 1.77631 101 148 210
0.70216 0.63865 1.83567 101 148 210
0.75291 0.52991 1.83567 101 148 210
0.81774 0.55036 1.77631 101 148 210
0.81774 -0.43664 1.77631 101 148 210
0.75291 -0.40198 1.83567 101 148 210
0.70058 -0.54231 1.83567 101 148 210
0 -0.59822 1.77631 101 148 210
0.04714 -0.59822 1.72598 101 148 210
0.09375 -0.59822 1.72598 101 148 210
0.09375 -0.59822 1.64221 101 148 210
0.04714 -0.59822 1.64221 101 148 210
0 -0.59822 1.59201 101 148 210
-0.04714 -0.59822 1.72598 101 148 210
-0.09375 -0.59822 1.72598 101 148 210
-0.125 -0.59822 1.77631 101 148 210
-0.125 -0.59822 1.59201 101 148 210
-0.75291 -0.59822 1.77631 101 148 210
-0.70055 -0.54231 1.83567 101 148 210
-0.81774 -0.43664 1.77631 101 148 210
-0.81774 -0.43664 0.41054 101 148 210
-0.60043 -0.59822 0.5064 101 148 210
-0.60043 -0.59822 1.51217 101 148 210
-0.75291 -0.40147 1.83567 101 148 210
-0.53465 -0.59822 0.42655 101 148 210
-0.53465 -0.59822 1.59201 101 148 210
2E-05 -0.54231 1.83567 101 148 210
0.60043 -0.59822 1.51217 221 225 239
0.60043 -0.59822 0.5064 221 225 239
0.53465 -0.59822 0.42655 221 225 239
0.53465 -0.59822 1.59201 221 225 239
0.125 -0.59822 1.59201 221 225 239
0 -0.59822 1.59201 221 225 239
-0.53465 -0.59822 0.42655 221 225 239
-0.125 -0.59822 1.59201 221 225 239
-0.53465 -0.59822 1.59201 221 225 239
-0.60043 -0.59822 1.51217 221 225 239
-0.60043 -0.59822 0.5064 221 225 239
-0.70055 -0.54231 1.83567 106 155 220
-0.75291 -0.40147 1.83567 106 155 220
-0.75291 0.52991 1.83567 106 155 220
-0.69649 0.63865 1.83567 106 155 220
2E-05 -0.54231 1.83567 106 155 220
0.70216 0.63865 1.83567 106 155 220
0.70058 -0.54231 1.83567 106 155 220
0.75291 0.52991 1.83567 106 155 220
0.75291 -0.40198 1.83567 106 155 220
-0.3462 -0.60475 0.72028 53 39 40
-0.44916 -0.60475 0.60756 53 39 40
-0.44916 -0.60475 1.43113 53 39 40
-0.3462 -0.60475 1.31815 53 39 40
0.1395 -0.60475 0.72028 53 39 40
0.24317 -0.60475 0.60756 53 39 40
0.1395 -0.60475 1.08983 53 39 40
0.24317 -0.60475 1.21143 53 39 40
-0.14488 -0.60475 1.08983 53 39 40
-0.24556 -0.60475 1.21143 53 39 40
-0.14488 -0.60475 0.96298 53 39 40
-0.24556 -0.60475 0.84539 53 39 40
0.02606 -0.60475 0.96298 53 39 40
0.02606 -0.60475 0.84539 53 39 40
0.44616 -0.60475 1.43113 53 39 40
0.34426 -0.60475 1.31815 53 39 40
0.44616 -0.60475 0.60756 53 39 40
0.34426 -0.60475 0.60756 53 39 40
-0.09375 -0.59822 1.64221 101 148 210
-0.04714 -0.59822 1.64221 101 148 210
0.09375 -0.58116 1.64221 93 136 193
0.04714 -0.58116 1.64221 93 136 193
0.04714 -0.58116 1.72598 93 136 193
0.09375 -0.58116 1.72598 93 136 193
0.09375 -0.59822 1.64221 93 136 193
0.09375 -0.59822 1.72598 93 136 193
0.04714 -0.59822 1.72598 93 136 193
0.04714 -0.59822 1.64221 93 136 193
-0.09375 -0.58116 1.72598 93 136 193
-0.04714 -0.58116 1.72598 93 136 193
-0.04714 -0.58116 1.64221 93 136 193
-0.09375 -0.58116 1.64221 93 136 193
-0.09375 -0.59822 1.72598 93 136 193
-0.09375 -0.59822 1.64221 93 136 193
-0.04714 -0.59822 1.64221 93 136 193
-0.04714 -0.59822 1.72598 93 136 193
-0.37678 -0.61391 1.87266 255 255 255
-0.45704 -0.61391 1.87266 255 255 255
-0.45704 -0.61391 1.95292 255 255 255
-0.37678 -0.61391 1.95292 255 255 255
-0.29385 -0.61391 2.02371 255 255 255
-0.62982 -0.61391 2.02371 255 255 255
-0.62982 -0.5828 2.02371 255 255 255
-0.29385 -0.5828 2.02371 255 255 255
-0.62982 -0.61391 1.68774 255 255 255
-0.62982 -0.5828 1.68774 255 255 255
-0.29385 -0.5828 1.68774 255 255 255
-0.29385 -0.61391 1.68774 255 255 255
-0.58222 -0.61391 1.97611 255 255 255
-0.58222 -0.61391 1.73534 255 255 255
-0.54814 -0.61391 1.73534 255 255 255
-0.34145 -0.61391 1.97611 255 255 255
-0.34145 -0.61391 1.73534 255 255 255
-0.40179 -0.61391 1.73534 255 255 255
-0.40179 -0.61391 1.80696 25 15 16
-0.54814 -0.61391 1.80696 25 15 16
-0.45704 -0.61391 1.87266 25 15 16
-0.37678 -0.61391 1.87266 25 15 16
-0.45704 -0.61391 1.95292 25 15 16
-0.58222 -0.61391 1.97611 25 15 16
-0.37678 -0.61391 1.95292 25 15 16
-0.34145 -0.61391 1.97611 25 15 16
-0.34145 -0.61391 1.73534 25 15 16
-0.40179 -0.61391 1.73534 25 15 16
-0.58222 -0.61391 1.73534 25 15 16
-0.54814 -0.61391 1.73534 25 15 16
-0.40179 -0.61391 1.80696 35 28 28
-0.40179 -0.61391 1.73534 35 28 28
-0.54814 -0.61391 1.73534 35 28 28
-0.54814 -0.61391 1.80696 35 28 28
-0.56131 -0.10711 1.56396 101 148 210
-0.56131 -0.10741 1.28565 101 148 210
-1.09297 -0.10683 1.28549 101 148 210
-1.09305 -0.10652 1.56381 101 148 210
-1.09309 0.17149 1.28518 101 148 210
-0.56148 0.17192 1.28531 101 148 210
-0.56148 0.17221 1.56363 106 155 220
-0.56131 -0.10711 1.56396 106 155 220
-1.09305 -0.10652 1.56381 106 155 220
-1.09317 0.1718 1.5635 106 155 220
-0.56148 0.17221 1.56363 101 148 210
-1.09317 0.1718 1.5635 101 148 210
-1.07204 -0.16247 1.22604 221 225 239
-1.14922 -0.16251 1.22602 221 225 239
-1.14933 -0.16207 1.61414 221 225 239
-1.07216 -0.16204 1.61416 221 225 239
-1.07222 0.22564 1.22561 221 225 239
-1.14939 0.22561 1.22558 221 225 239
-1.07216 -0.16204 1.61416 226 230 245
-1.14933 -0.16207 1.61414 226 230 245
-1.1495 0.22604 1.6137 226 230 245
-1.07233 0.22608 1.61372 226 230 245
-1.07233 0.22608 1.61372 221 225 239
-1.1495 0.22604 1.6137 221 225 239
-1.14954 0.30177 1.59715 221 225 239
-1.14942 0.30131 1.24696 221 225 239
-1.14939 0.25782 1.19863 221 225 239
-1.57231 0.30158 1.59703 221 225 239
-1.57219 0.30112 1.24684 221 225 239
-1.54344 0.25765 1.19851 221 225 239
-1.62409 0.23862 1.59754 221 225 239
-1.62397 0.23815 1.24643 221 225 239
-1.54324 0.25756 1.64143 221 225 239
-1.14954 0.25773 1.64155 221 225 239
-1.14926 -0.01042 1.19886 221 225 239
-1.14934 -0.1945 1.64202 221 225 239
-1.14919 -0.17872 1.1991 221 225 239
-1.14918 -0.23823 1.24757 221 225 239
-1.14924 -0.238 1.42016 221 225 239
-1.1493 -0.23777 1.59776 221 225 239
-1.14914 -0.31096 1.17581 221 225 239
-1.14921 -0.311 1.42024 221 225 239
-1.14913 -0.26161 1.12397 221 225 239
-1.14924 -0.01052 1.12372 221 225 239
-1.36062 -0.01061 1.12366 221 225 239
-1.36064 -0.01051 1.1988 221 225 239
-1.62379 -0.17549 1.24689 221 225 239
-1.62391 -0.17503 1.598 221 225 239
-1.57207 -0.23796 1.59764 221 225 239
-1.54303 -0.19467 1.6419 221 225 239
-1.36063 -0.2381 1.4201 221 225 239
-1.58588 -0.14109 1.64178 221 225 239
-1.57195 -0.23842 1.24745 221 225 239
-1.54323 -0.19597 1.19898 221 225 239
-1.58608 -0.14062 1.19886 221 225 239
-1.58625 0.20225 1.19863 221 225 239
-1.36057 -0.23833 1.24751 221 225 239
-1.36057 -0.1959 1.19904 221 225 239
-1.3606 -0.31109 1.42018 221 225 239
-1.36053 -0.31105 1.17575 221 225 239
-1.36051 -0.26171 1.12391 221 225 239
-1.54324 0.25756 1.64143 226 230 245
-1.14954 0.25773 1.64155 226 230 245
-1.14934 -0.1945 1.64202 226 230 245
-1.54303 -0.19467 1.6419 226 230 245
-1.58588 -0.14109 1.64178 226 230 245
-1.58605 0.20393 1.64155 226 230 245
-1.36063 -0.2381 1.4201 226 230 245
-1.14924 -0.238 1.42016 226 230 245
-1.14921 -0.311 1.42024 226 230 245
-1.3606 -0.31109 1.42018 226 230 245
-1.58605 0.20393 1.64155 221 225 239
0.274 -0.015 0.19445 101 148 210
0.274 -0.015 0.34402 101 148 210
0.46064 -0.015 0.34402 101 148 210
0.46064 -0.015 0.19445 101 148 210
0.46064 0.17326 0.34402 101 148 210
0.46064 0.17326 0.19445 101 148 210
0.274 0.17326 0.19445 101 148 210
0.274 0.17326 0.34402 101 148 210
0.22325 -0.58495 0 101 148 210
0.22325 -0.58495 0.20407 101 148 210
0.51315 -0.5846 0.20407 101 148 210
0.51315 -0.5846 0 101 148 210
0.55149 -0.53191 0.20407 101 148 210
0.55149 -0.53191 0 101 148 210
0.18478 -0.53235 0 101 148 210
0.18478 -0.53235 0.20407 101 148 210
0.18388 0.20877 0 101 148 210
0.55058 0.20922 0 101 148 210
0.23036 0.26245 0 101 148 210
0.50397 0.26279 0 101 148 210
0.23036 0.26245 0.20407 101 148 210
0.50397 0.26279 0.20407 101 148 210
0.18388 0.20877 0.20407 101 148 210
0.55058 0.20922 0.20407 101 148 210
0.22325 -0.58495 0.20407 106 155 220
0.18478 -0.53235 0.20407 106 155 220
0.55149 -0.53191 0.20407 106 155 220
0.51315 -0.5846 0.20407 106 155 220
0.55058 0.20922 0.20407 106 155 220
0.18388 0.20877 0.20407 106 155 220
0.50397 0.26279 0.20407 106 155 220
0.23036 0.26245 0.20407 106 155 220
-0.274 -0.015 0.19445 101 148 210
-0.46064 -0.015 0.19445 101 148 210
-0.46064 -0.015 0.34402 101 148 210
-0.274 -0.015 0.34402 101 148 210
-0.46064 0.17326 0.34402 101 148 210
-0.46064 0.17326 0.19445 101 148 210
-0.274 0.17326 0.19445 101 148 210
-0.274 0.17326 0.34402 101 148 210
-0.22325 -0.58495 0 101 148 210
-0.51315 -0.5846 0 101 148 210
-0.51315 -0.5846 0.20407 101 148 210
-0.22325 -0.58495 0.20407 101 148 210
-0.55149 -0.53191 0.20407 101 148 210
-0.55149 -0.53191 0 101 148 210
-0.18478 -0.53235 0 101 148 210
-0.18478 -0.53235 0.20407 101 148 210
-0.18388 0.20877 0 101 148 210
-0.55058 0.20922 0 101 148 210
-0.23036 0.26245 0 101 148 210
-0.50397 0.26279 0 101 148 210
-0.23036 0.26245 0.20407 101 148 210
-0.50397 0.26279 0.20407 101 148 210
-0.18388 0.20877 0.20407 101 148 210
-0.55058 0.20922 0.20407 101 148 210
-0.22325 -0.58495 0.20407 106 155 220
-0.51315 -0.5846 0.20407 106 155 220
-0.55149 -0.53191 0.20407 106 155 220
-0.18478 -0.53235 0.20407 106 155 220
-0.55058 0.20922 0.20407 106 155 220
-0.18388 0.20877 0.20407 106 155 220
-0.50397 0.26279 0.20407 106 155 220
-0.23036 0.26245 0.20407 106 155 220
3 0 2 1
3 0 3 2
3 3 4 2
3 3 5 4
3 6 8 7
3 6 9 8
3 5 10 4
3 5 11 10
3 12 14 13
3 12 15 14
3 16 15 12
3 16 17 15
3 18 20 19
3 18 21 20
3 22 17 16
3 22 23 17
3 16 13 22
3 16 12 13
3 17 23 24
3 17 24 25
3 26 17 25
3 25 24 27
3 25 27 28
3 29 25 28
3 29 26 25
3 28 27 30
3 28 30 31
3 31 29 28
3 24 32 27
3 32 30 27
3 24 33 32
3 23 33 24
3 34 17 26
3 23 35 33
3 23 14 35
3 35 14 36
3 14 37 36
3 14 38 37
3 38 14 15
3 15 39 38
3 15 34 39
3 37 38 40
3 37 40 41
3 38 42 40
3 38 39 42
3 39 43 42
3 39 34 43
3 34 44 43
3 34 45 44
3 15 17 34
3 46 30 47
3 46 31 30
3 48 46 47
3 49 48 47
3 49 36 48
3 36 50 48
3 36 37 50
3 49 35 36
3 49 47 51
3 48 52 46
3 52 48 50
3 46 52 53
3 46 53 54
3 29 54 53
3 29 55 54
3 46 55 31
3 46 54 55
3 56 53 52
3 52 50 56
3 56 57 53
3 29 53 57
3 56 50 58
3 56 58 59
3 57 56 59
3 59 58 41
3 59 41 40
3 40 60 59
3 57 59 60
3 40 42 60
3 44 60 42
3 44 42 43
3 45 60 44
3 45 57 60
3 29 57 45
3 29 45 26
3 26 45 34
3 61 63 62
3 61 64 63
3 61 62 65
3 61 65 66
3 67 69 68
3 67 70 69
3 30 51 47
3 30 71 51
3 32 71 30
3 31 55 29
3 72 74 73
3 72 75 74
3 76 78 77
3 76 79 78
3 80 78 79
3 80 81 78
3 82 81 80
3 82 76 77
3 82 80 83
3 82 83 76
3 80 79 84
3 80 84 85
3 86 80 85
3 83 80 86
3 79 87 84
3 79 76 87
3 76 88 87
3 76 83 88
3 83 86 89
3 83 89 88
3 90 92 91
3 90 93 92
3 93 94 92
3 93 95 94
3 95 96 94
3 95 97 96
3 97 91 96
3 91 98 90
3 97 98 91
3 98 99 90
3 100 95 93
3 93 101 100
3 102 104 103
3 102 105 104
3 106 108 107
3 106 109 108
3 110 109 106
3 110 111 109
3 109 112 108
3 109 113 112
3 111 113 109
3 111 114 113
3 108 115 107
3 108 116 115
3 112 116 108
3 112 117 116
3 116 118 115
3 116 119 118
3 117 119 116
3 118 119 120
3 118 120 121
3 119 122 120
3 119 123 122
3 117 123 119
3 124 126 125
3 124 127 126
3 126 128 125
3 126 129 128
3 129 130 128
3 129 131 130
3 111 133 132
3 111 110 133
3 133 134 132
3 133 135 134
3 136 111 132
3 136 114 111
3 137 132 134
3 137 136 132
3 120 137 134
3 135 120 134
3 120 122 137
3 135 121 120
3 138 140 139
3 138 141 140
3 142 138 139
3 142 139 143
3 139 140 144
3 139 144 145
3 143 139 145
3 143 145 146
3 140 141 147
3 140 147 148
3 144 140 148
3 144 148 149
3 148 147 150
3 148 150 151
3 149 148 151
3 150 152 151
3 150 153 152
3 151 152 154
3 151 154 155
3 149 151 155
3 156 158 157
3 156 159 158
3 158 159 160
3 158 160 161
3 161 160 162
3 161 162 163
3 143 164 142
3 143 165 164
3 164 165 166
3 164 166 167
3 168 165 143
3 168 143 146
3 169 165 168
3 169 166 165
3 152 166 169
3 167 166 152
3 152 169 154
3 167 152 153
3 170 172 171
3 170 173 172
3 171 172 174
3 170 175 173
3 170 176 175
3 170 177 176
3 174 178 171
3 171 178 179
3 171 179 180
3 180 179 181
3 180 181 182
3 182 181 183
3 182 183 184
3 185 182 184
3 186 182 185
3 186 180 182
3 184 183 187
3 184 187 188
3 189 183 181
3 188 187 190
3 187 191 190
3 187 192 191
3 192 183 189
3 192 187 183
3 188 190 193
3 188 193 194
3 188 194 195
3 195 184 188
3 195 185 184
3 196 185 195
3 196 186 185
3 195 197 196
3 195 194 197
3 196 197 198
3 196 198 170
3 196 171 186
3 196 170 171
3 186 171 180
3 198 177 170
3 198 199 177
3 200 177 199
3 200 201 177
3 176 177 201
3 176 201 202
3 176 202 203
3 176 203 204
3 204 200 199
3 204 203 200
3 204 199 205
3 206 205 199
3 206 199 207
3 208 206 207
3 208 207 209
3 207 210 209
3 199 210 207
3 211 209 210
3 211 178 209
3 211 212 178
3 209 178 213
3 209 213 214
3 211 189 212
3 211 192 189
3 212 189 181
3 212 181 179
3 178 212 179
3 211 210 215
3 192 211 215
3 178 216 213
3 209 214 217
3 208 209 217
3 174 216 178
3 192 215 191
3 199 218 210
3 198 218 199
3 219 221 220
3 219 222 221
3 222 223 221
3 221 223 224
3 221 224 225
3 225 224 226
3 225 226 227
3 228 225 227
3 228 229 225
3 230 232 231
3 230 233 232
3 234 233 230
3 234 235 233
3 236 235 234
3 237 235 236
3 237 236 238
3 239 241 240
3 239 242 241
3 243 239 240
3 243 240 244
3 245 243 244
3 245 244 246
3 247 245 246
3 247 246 248
3 249 247 248
3 249 248 250
3 250 251 249
3 250 252 251
3 253 241 242
3 253 242 254
3 255 253 254
3 255 254 256
3 208 257 206
3 204 257 208
3 204 258 257
3 204 205 258
3 259 261 260
3 259 262 261
3 263 262 259
3 263 264 262
3 264 261 262
3 264 265 261
3 265 260 261
3 265 266 260
3 266 259 260
3 266 263 259
3 267 269 268
3 267 270 269
3 271 270 267
3 271 272 270
3 272 269 270
3 272 273 269
3 273 268 269
3 273 274 268
3 274 267 268
3 274 271 267
3 275 277 276
3 275 278 277
3 279 281 280
3 279 282 281
3 283 280 281
3 283 281 284
3 285 283 284
3 285 282 279
3 285 286 283
3 285 279 286
3 283 287 280
3 283 288 287
3 289 288 283
3 286 289 283
3 280 290 279
3 280 287 290
3 279 291 286
3 279 290 291
3 286 292 289
3 286 291 292
3 293 295 294
3 293 296 295
3 294 295 297
3 294 297 298
3 298 297 299
3 298 299 300
3 300 299 296
3 296 293 301
3 300 296 301
3 301 293 302
3 303 294 298
3 294 303 304
3 305 307 306
3 305 308 307
3 309 311 310
3 309 312 311
3 310 311 313
3 310 313 314
3 315 317 316
3 315 318 317
3 314 320 319
3 314 313 320
3 321 323 322
3 321 324 323
3 325 321 322
3 325 322 326
3 327 329 328
3 327 330 329
3 331 326 332
3 331 325 326
3 325 331 324
3 325 324 321
3 326 333 332
3 326 334 333
3 335 334 326
3 334 336 333
3 334 337 336
3 338 334 335
3 338 337 334
3 337 339 336
3 337 340 339
3 340 337 338
3 333 336 341
3 341 336 339
3 333 341 342
3 332 333 342
3 343 335 326
3 332 342 344
3 322 343 326
3 322 345 343
3 322 346 345
3 323 346 322
3 346 323 347
3 347 323 348
3 344 348 323
3 332 344 323
3 347 349 346
3 347 350 349
3 346 351 345
3 346 349 351
3 345 352 343
3 345 351 352
3 343 352 353
3 343 353 354
3 355 339 340
3 355 356 339
3 357 356 355
3 358 356 357
3 358 357 348
3 348 357 359
3 348 359 347
3 358 348 344
3 358 360 356
3 357 355 361
3 361 359 357
3 355 362 361
3 355 363 362
3 338 362 363
3 338 363 364
3 355 364 363
3 355 340 364
3 365 361 362
3 361 365 359
3 365 362 366
3 338 366 362
3 365 367 359
3 365 368 367
3 366 368 365
3 368 350 367
3 368 349 350
3 349 368 369
3 366 369 368
3 349 369 351
3 353 351 369
3 353 352 351
3 354 369 366
3 354 353 369
3 338 354 366
3 338 335 354
3 335 343 354
3 370 372 371
3 370 373 372
3 370 374 373
3 370 375 374
3 376 378 377
3 376 379 378
3 339 360 380
3 339 356 360
3 341 339 380
3 340 338 364
3 381 383 382
3 381 384 383
3 384 385 383
3 384 386 385
3 387 381 382
3 387 382 388
3 388 386 387
3 388 385 386
3 389 391 390
3 389 392 391
3 392 393 391
3 392 394 393
3 395 392 389
3 395 394 392
3 396 389 390
3 396 395 389
3 397 394 395
3 397 398 394
3 399 398 397
3 399 400 398
3 401 400 399
3 401 402 400
3 399 403 401
3 399 397 403
3 403 395 396
3 403 397 395
3 404 400 402
3 404 398 400
3 393 398 404
3 393 394 398
3 405 407 406
3 405 408 407
3 406 407 409
3 406 409 410
3 410 409 411
3 410 411 412
3 413 415 414
3 413 416 415
3 414 415 417
3 414 417 418
3 419 416 413
3 419 420 416
3 420 418 417
3 420 419 418
3 421 423 422
3 421 424 423
3 422 423 425
3 422 425 426
3 427 422 426
3 427 421 422
3 428 421 427
3 428 424 421
3 429 427 426
3 429 426 430
3 431 429 430
3 431 430 432
3 433 431 432
3 433 432 434
3 431 435 429
3 431 433 435
3 435 428 427
3 435 427 429
3 436 432 430
3 436 434 432
3 425 436 430
3 425 430 426
3 437 439 438
3 437 440 439
3 440 441 439
3 440 442 441
3 442 443 441
3 442 444 443
