ply
format ascii 1.0
element vertex 720
property float x
property float y
property float z
property uchar red
property uchar green
property uchar blue
element face 840
property list uchar int vertex_index
end_header
0.106 -0.43007 -1.17021E-17 246 214 98
0.106 -0.43007 0.11424 246 214 98
0.27787 -0.43007 0.11424 246 214 98
0.27787 -0.43007 -1.25765E-17 246 214 98
0.07534 -0.36126 0 246 214 98
0.30853 -0.36126 0 246 214 98
0.30853 -0.36126 0.11424 246 214 98
0.30853 -0.14144 0 246 214 98
0.30853 -0.14144 0.43838 246 214 98
0.30853 -0.36126 0.43838 246 214 98
0.07534 -0.36126 0.11424 246 214 98
0.07534 -0.14144 0 246 214 98
0.07534 -0.36126 0.43838 246 214 98
0.07534 -0.14144 0.43838 246 214 98
0.13947 -0.28884 0 246 214 98
0.2444 -0.28884 0 246 214 98
0.2444 -0.18206 0 246 214 98
0.13947 -0.18206 0 246 214 98
0.1002 -0.10224 0 246 214 98
0.28367 -0.10224 0 246 214 98
0.1002 -0.10224 0.43838 246 214 98
0.28367 -0.10224 0.43838 246 214 98
0.13947 -0.18206 0 241 186 122
0.13947 -0.28884 0 241 186 122
0.2444 -0.28884 0 241 186 122
0.2444 -0.18206 0 241 186 122
0.106 0.20982 7.62939E-08 246 214 98
0.106 0.20982 0.11424 246 214 98
0.27787 0.20982 0.11424 246 214 98
0.27787 0.20982 7.62939E-08 246 214 98
0.07534 0.27863 7.62939E-08 246 214 98
0.30853 0.27863 7.62939E-08 246 214 98
0.30853 0.27863 0.11424 246 214 98
0.30853 0.49845 7.62939E-08 246 214 98
0.30853 0.49845 0.43838 246 214 98
0.30853 0.27863 0.43838 246 214 98
0.07534 0.27863 0.11424 246 214 98
0.07534 0.49845 7.62939E-08 246 214 98
0.07534 0.27863 0.43838 246 214 98
0.07534 0.49845 0.43838 246 214 98
0.13558 0.3352 7.62939E-08 246 214 98
0.24829 0.3352 7.62939E-08 246 214 98
0.24829 0.4569 7.62939E-08 246 214 98
0.13558 0.4569 7.62939E-08 246 214 98
0.1002 0.53765 7.62939E-08 246 214 98
0.28367 0.53765 7.62939E-08 246 214 98
0.1002 0.53765 0.43838 246 214 98
0.28367 0.53765 0.43838 246 214 98
0.13558 0.4569 7.62939E-08 241 186 122
0.13558 0.3352 7.62939E-08 241 186 122
0.24829 0.3352 7.62939E-08 241 186 122
0.24829 0.4569 7.62939E-08 241 186 122
0.30853 -0.36126 0.11424 251 219 100
0.27787 -0.43007 0.11424 251 219 100
0.106 -0.43007 0.11424 251 219 100
0.07534 -0.36126 0.11424 251 219 100
0.30853 0.27863 0.11424 251 219 100
0.27787 0.20982 0.11424 251 219 100
0.106 0.20982 0.11424 251 219 100
0.07534 0.27863 0.11424 251 219 100
0.32406 0.55346 0.42517 246 214 98
0.3598 0.55342 0.49554 246 214 98
0.30504 0.61858 0.49554 246 214 98
0.32406 -0.38193 0.42517 246 214 98
0.3598 -0.38131 0.49554 246 214 98
0.3598 0.55342 1.00209 246 214 98
0.30504 0.61858 1.0021 246 214 98
0.30502 0.50607 1.06407 246 214 98
0.26797 0.55346 1.06407 246 214 98
-0.32406 -0.38193 0.42517 246 214 98
-0.32406 0.55346 0.42517 246 214 98
0.3598 -0.38131 1.00153 246 214 98
-0.30504 0.61858 0.49554 246 214 98
-0.30504 0.61858 1.0021 246 214 98
-0.26797 0.55346 1.06407 246 214 98
-0.3598 0.55342 0.49554 246 214 98
-0.30502 0.50607 1.06407 246 214 98
-0.3598 0.55342 1.00209 246 214 98
-0.3598 -0.38131 0.49554 246 214 98
-0.3598 -0.38131 1.00153 246 214 98
0.30498 -0.44491 0.49554 246 214 98
0.30498 -0.44491 1.00142 246 214 98
0.30508 -0.33218 1.06407 246 214 98
0.26043 -0.37988 1.06407 246 214 98
-0.30498 -0.44491 0.49554 246 214 98
-0.26043 -0.37988 1.06407 246 214 98
-0.30498 -0.44491 1.00142 246 214 98
-0.30508 -0.33218 1.06407 246 214 98
0.30508 -0.33218 1.06407 251 219 100
-0.30508 -0.33218 1.06407 251 219 100
-0.30502 0.50607 1.06407 251 219 100
0.30502 0.50607 1.06407 251 219 100
0.26797 0.55346 1.06407 251 219 100
-0.26797 0.55346 1.06407 251 219 100
-0.26043 -0.37988 1.06407 251 219 100
0.26043 -0.37988 1.06407 251 219 100
-0.106 -0.43007 -1.17021E-17 246 214 98
-0.27787 -0.43007 -1.25765E-17 246 214 98
-0.27787 -0.43007 0.11424 246 214 98
-0.106 -0.43007 0.11424 246 214 98
-0.07534 -0.36126 0 246 214 98
-0.30853 -0.36126 0 246 214 98
-0.30853 -0.36126 0.11424 246 214 98
-0.30853 -0.14144 0 246 214 98
-0.30853 -0.14144 0.43838 246 214 98
-0.30853 -0.36126 0.43838 246 214 98
-0.07534 -0.36126 0.11424 246 214 98
-0.07534 -0.14144 0 246 214 98
-0.07534 -0.36126 0.43838 246 214 98
-0.07534 -0.14144 0.43838 246 214 98
-0.13947 -0.28884 0 246 214 98
-0.2444 -0.28884 0 246 214 98
-0.2444 -0.18206 0 246 214 98
-0.13947 -0.18206 0 246 214 98
-0.28367 -0.10224 0 246 214 98
-0.1002 -0.10224 0 246 214 98
-0.1002 -0.10224 0.43838 246 214 98
-0.28367 -0.10224 0.43838 246 214 98
-0.13947 -0.18206 0 241 186 122
-0.2444 -0.18206 0 241 186 122
-0.2444 -0.28884 0 241 186 122
-0.13947 -0.28884 0 241 186 122
-0.106 0.20982 7.62939E-08 246 214 98
-0.27787 0.20982 7.62939E-08 246 214 98
-0.27787 0.20982 0.11424 246 214 98
-0.106 0.20982 0.11424 246 214 98
-0.07534 0.27863 7.62939E-08 246 214 98
-0.30853 0.27863 7.62939E-08 246 214 98
-0.30853 0.27863 0.11424 246 214 98
-0.30853 0.49845 7.62939E-08 246 214 98
-0.30853 0.49845 0.43838 246 214 98
-0.30853 0.27863 0.43838 246 214 98
-0.07534 0.27863 0.11424 246 214 98
-0.07534 0.49845 7.62939E-08 246 214 98
-0.07534 0.27863 0.43838 246 214 98
-0.07534 0.49845 0.43838 246 214 98
-0.13558 0.3352 7.62939E-08 246 214 98
-0.24829 0.3352 7.62939E-08 246 214 98
-0.24829 0.4569 7.62939E-08 246 214 98
-0.13558 0.4569 7.62939E-08 246 214 98
-0.28367 0.53765 7.62939E-08 246 214 98
-0.1002 0.53765 7.62939E-08 246 214 98
-0.1002 0.53765 0.43838 246 214 98
-0.28367 0.53765 0.43838 246 214 98
-0.13558 0.4569 7.62939E-08 241 186 122
-0.24829 0.4569 7.62939E-08 241 186 122
-0.24829 0.3352 7.62939E-08 241 186 122
-0.13558 0.3352 7.62939E-08 241 186 122
-0.30853 -0.36126 0.11424 251 219 100
-0.07534 -0.36126 0.11424 251 219 100
-0.106 -0.43007 0.11424 251 219 100
-0.27787 -0.43007 0.11424 251 219 100
-0.30853 0.27863 0.11424 251 219 100
-0.07534 0.27863 0.11424 251 219 100
-0.106 0.20982 0.11424 251 219 100
-0.27787 0.20982 0.11424 251 219 100
0.30549 -0.41773 0.92414 236 242 246
0.30549 -0.17041 0.92414 236 242 246
0.48094 -0.17041 0.92414 236 242 246
0.48094 -0.62328 0.92414 236 242 246
-0.48094 -0.62328 0.92414 236 242 246
-0.30549 -0.41773 0.92414 236 242 246
-0.48094 -0.17041 0.92414 236 242 246
-0.30549 -0.17041 0.92414 236 242 246
-0.44701 -0.65324 0.92414 236 242 246
0.44701 -0.65324 0.92414 236 242 246
0.48094 -0.62328 0.92414 230 236 240
0.48094 -0.17041 0.92414 230 236 240
0.48094 0.02507 0.71835 230 236 240
0.48094 -0.62328 0.71835 230 236 240
0.48094 0.06162 0.75 230 236 240
0.44701 -0.65324 0.92414 230 236 240
0.44701 -0.65324 0.71835 230 236 240
-0.44701 -0.65324 0.71835 230 236 240
-0.44701 -0.65324 0.92414 230 236 240
-0.48094 -0.62328 0.92414 230 236 240
-0.48094 -0.62328 0.71835 230 236 240
-0.30549 -0.41773 0.71835 230 236 240
0.30549 -0.41773 0.71835 230 236 240
-0.48094 0.02507 0.71835 230 236 240
-0.48094 -0.17041 0.92414 230 236 240
-0.48094 0.06162 0.75 230 236 240
0.48094 0.06162 1.24445 230 236 240
0.48094 -0.17041 1.24445 230 236 240
0.45058 0.06162 1.27977 230 236 240
0.45058 -0.17041 1.27977 230 236 240
-0.48094 -0.17041 1.24445 230 236 240
-0.30549 -0.17041 0.92414 230 236 240
0.30549 -0.17041 0.92414 230 236 240
-0.45058 -0.17041 1.27977 230 236 240
0.30549 0.02507 0.71835 230 236 240
0.30549 0.06162 0.75 230 236 240
0.30549 0.06162 0.92412 230 236 240
-0.30549 0.06162 0.92412 230 236 240
-0.48094 0.06162 1.24445 230 236 240
-0.45058 0.06162 1.27977 230 236 240
-0.30549 0.06162 0.75 230 236 240
-0.30549 0.02507 0.71835 230 236 240
0.45058 0.06162 1.27977 236 242 246
0.45058 -0.17041 1.27977 236 242 246
-0.45058 -0.17041 1.27977 236 242 246
-0.45058 0.06162 1.27977 236 242 246
0.15077 -0.7205 1.20506 255 255 255
0.15077 -0.7205 1.27569 255 255 255
0.20595 -0.7205 1.27569 255 255 255
0.20595 -0.7205 1.20506 255 255 255
0.15077 -0.70913 1.20506 255 255 255
0.20595 -0.70913 1.20506 255 255 255
0.20595 -0.70913 1.27569 255 255 255
0.15077 -0.70913 1.27569 255 255 255
-0.15077 -0.7205 1.20506 255 255 255
-0.20595 -0.7205 1.20506 255 255 255
-0.20595 -0.7205 1.27569 255 255 255
-0.15077 -0.7205 1.27569 255 255 255
-0.15077 -0.70913 1.20506 255 255 255
-0.20595 -0.70913 1.20506 255 255 255
-0.20595 -0.70913 1.27569 255 255 255
-0.15077 -0.70913 1.27569 255 255 255
0.03201 -0.83682 1.1066 32 27 21
0.03201 -0.83682 1.14927 32 27 21
0.03201 -0.78685 1.14927 32 27 21
0.03201 -0.78685 1.1066 32 27 21
-0.03201 -0.83682 1.1066 32 27 21
-0.03201 -0.83682 1.14927 32 27 21
-0.03201 -0.78685 1.14927 32 27 21
-0.03201 -0.78685 1.1066 32 27 21
0.31607 -0.84979 1.1018 246 214 98
0.30376 -0.8213 1.12991 246 214 98
0.33881 -0.7878 1.12991 246 214 98
0.36469 -0.8011 1.10188 246 214 98
0.31652 -0.84989 0.89545 246 214 98
0.36469 -0.80085 0.89545 246 214 98
0.33021 -0.76803 0.86684 246 214 98
0.28658 -0.81706 0.86684 246 214 98
-0.30376 -0.8213 1.12991 246 214 98
-0.31607 -0.84979 1.1018 246 214 98
0.18066 -0.84981 1.02658 246 214 98
-0.18066 -0.84981 1.02658 246 214 98
0.36469 -0.69191 1.10188 246 214 98
-0.31652 -0.84989 0.89545 246 214 98
-0.28658 -0.81706 0.86684 246 214 98
0.18066 -0.84978 0.92936 246 214 98
-0.33021 -0.76803 0.86684 246 214 98
-0.33881 -0.7878 1.12991 246 214 98
-0.36469 -0.8011 1.10188 246 214 98
-0.36469 -0.80085 0.89545 246 214 98
-0.36469 -0.69191 1.10188 246 214 98
-0.18066 -0.84978 0.92936 246 214 98
0.33017 -0.17032 0.86684 246 214 98
0.36469 -0.13056 0.89545 246 214 98
0.32399 -0.08533 0.89526 246 214 98
0.3241 -0.08533 1.443 246 214 98
-0.32399 -0.08533 0.89526 246 214 98
-0.2951 -0.12101 0.86684 246 214 98
0.2951 -0.12101 0.86684 246 214 98
-0.33017 -0.17032 0.86684 246 214 98
-0.3241 -0.08533 1.443 246 214 98
0.36469 -0.13056 1.44284 246 214 98
0.36469 -0.69191 1.44284 246 214 98
0.33788 -0.73774 1.44284 246 214 98
0.33788 -0.73774 1.12991 246 214 98
0.3311 -0.6697 1.48819 246 214 98
0.30878 -0.69968 1.48819 246 214 98
0.3311 -0.14976 1.48819 246 214 98
0.29258 -0.73774 1.28711 246 214 98
0.29258 -0.73774 1.12991 246 214 98
-0.30878 -0.69968 1.48819 246 214 98
-0.33788 -0.73774 1.44284 246 214 98
0.29258 -0.71273 1.28711 246 214 98
0.29258 -0.71273 1.18196 246 214 98
0.11791 -0.71273 1.22427 246 214 98
0.11791 -0.73774 1.22427 246 214 98
0.11791 -0.71273 1.18196 246 214 98
0.11791 -0.73774 1.12991 246 214 98
-0.11791 -0.73774 1.22427 246 214 98
-0.11791 -0.73774 1.12991 246 214 98
0.11791 -0.71273 1.12991 246 214 98
0.29258 -0.71273 1.12991 246 214 98
0.19373 -0.71273 1.12991 246 214 98
-0.3311 -0.6697 1.48819 246 214 98
-0.36469 -0.69191 1.44284 246 214 98
-0.33788 -0.73774 1.12991 246 214 98
-0.36469 -0.13056 1.44284 246 214 98
-0.36469 -0.13056 0.89545 246 214 98
-0.3311 -0.14976 1.48819 246 214 98
-0.11791 -0.71273 1.18196 246 214 98
-0.11791 -0.71273 1.12991 246 214 98
-0.19373 -0.71273 1.12991 246 214 98
-0.29258 -0.71273 1.12991 246 214 98
-0.29258 -0.73774 1.12991 246 214 98
-0.29258 -0.73774 1.28711 246 214 98
-0.29258 -0.71273 1.28711 246 214 98
-0.29258 -0.71273 1.18196 246 214 98
-0.11791 -0.71273 1.22427 246 214 98
0.30376 -0.8213 1.12991 251 219 100
-0.30376 -0.8213 1.12991 251 219 100
-0.33881 -0.7878 1.12991 251 219 100
0.33881 -0.7878 1.12991 251 219 100
-0.11791 -0.73774 1.12991 251 219 100
-0.29258 -0.73774 1.12991 251 219 100
-0.33788 -0.73774 1.12991 251 219 100
0.11791 -0.73774 1.12991 251 219 100
0.29258 -0.73774 1.12991 251 219 100
0.33788 -0.73774 1.12991 251 219 100
0.18066 -0.77532 1.02658 77 37 48
-0.18066 -0.77532 1.02658 77 37 48
-0.18066 -0.84981 1.02658 77 37 48
0.18066 -0.84981 1.02658 77 37 48
0.18066 -0.77527 0.92936 77 37 48
-0.18066 -0.77527 0.92936 77 37 48
0.18066 -0.84978 0.92936 77 37 48
-0.18066 -0.84978 0.92936 77 37 48
0.13442 -0.82627 0.97909 164 65 85
0.13442 -0.76914 0.97909 164 65 85
0.13442 -0.76914 0.92233 164 65 85
0.13442 -0.82627 0.92233 164 65 85
-0.13442 -0.82627 0.92233 164 65 85
-0.13442 -0.82627 0.97909 164 65 85
-0.13442 -0.76914 0.97909 164 65 85
-0.13442 -0.76914 0.92233 164 65 85
0.29175 -0.10881 1.48819 246 214 98
-0.29175 -0.10881 1.48819 246 214 98
0.30878 -0.69968 1.48819 251 219 100
-0.30878 -0.69968 1.48819 251 219 100
-0.3311 -0.6697 1.48819 251 219 100
0.3311 -0.6697 1.48819 251 219 100
0.3311 -0.14976 1.48819 251 219 100
-0.3311 -0.14976 1.48819 251 219 100
0.29175 -0.10881 1.48819 251 219 100
-0.29175 -0.10881 1.48819 251 219 100
0.11791 -0.71273 1.18196 26 6 6
0.11791 -0.71273 1.22427 26 6 6
0.19373 -0.71273 1.18196 26 6 6
0.19373 -0.71273 1.12991 26 6 6
0.11791 -0.71273 1.12991 26 6 6
0.29258 -0.71273 1.28711 26 6 6
0.29258 -0.71273 1.18196 26 6 6
0.29258 -0.71273 1.12991 58 31 79
0.19373 -0.71273 1.12991 58 31 79
0.19373 -0.71273 1.18196 58 31 79
0.29258 -0.71273 1.18196 58 31 79
-0.11791 -0.71273 1.18196 26 6 6
-0.19373 -0.71273 1.18196 26 6 6
-0.11791 -0.71273 1.22427 26 6 6
-0.19373 -0.71273 1.12991 26 6 6
-0.11791 -0.71273 1.12991 26 6 6
-0.29258 -0.71273 1.28711 26 6 6
-0.29258 -0.71273 1.18196 26 6 6
-0.29258 -0.71273 1.12991 58 31 79
-0.29258 -0.71273 1.18196 58 31 79
-0.19373 -0.71273 1.18196 58 31 79
-0.19373 -0.71273 1.12991 58 31 79
0.55423 -0.05743 1.81157 246 214 98
0.54621 -0.05616 1.84092 246 214 98
0.62599 0.01603 1.81423 246 214 98
0.44343 -0.10639 2.00914 246 214 98
0.62566 0.03708 1.88113 246 214 98
0.48762 -0.05549 2.02851 246 214 98
0.48467 -0.09743 1.90663 246 214 98
0.34632 -0.44281 1.26407 246 214 98
0.30068 -0.47341 1.3128 246 214 98
0.46295 -0.11864 1.90902 246 214 98
0.16376 -0.56523 1.45898 246 214 98
0.2094 -0.53462 1.41025 246 214 98
0.42758 0.00385 2.00954 246 214 98
0.56562 0.09641 1.86216 246 214 98
0.56596 0.07537 1.79527 246 214 98
0.28628 -0.38347 1.24511 246 214 98
0.3834 -0.04705 1.99017 246 214 98
0.10372 -0.50589 1.44001 246 214 98
0.10372 -0.50589 1.44001 251 219 100
0.3834 -0.04705 1.99017 251 219 100
0.44343 -0.10639 2.00914 251 219 100
0.16376 -0.56523 1.45898 251 219 100
0.48762 -0.05549 2.02851 251 219 100
0.42758 0.00385 2.00954 251 219 100
0.46295 -0.11864 1.90902 30 17 42
0.48467 -0.09743 1.90663 30 17 42
0.54621 -0.05616 1.84092 30 17 42
0.55423 -0.05743 1.81157 30 17 42
0.2094 -0.53462 1.41025 30 17 42
0.25504 -0.50402 1.36153 30 17 42
0.30068 -0.47341 1.3128 30 17 42
-0.55423 -0.05743 1.81157 246 214 98
-0.62599 0.01603 1.81423 246 214 98
-0.54621 -0.05616 1.84092 246 214 98
-0.44343 -0.10639 2.00914 246 214 98
-0.62566 0.03708 1.88113 246 214 98
-0.48762 -0.05549 2.02851 246 214 98
-0.48467 -0.09743 1.90663 246 214 98
-0.34632 -0.44281 1.26407 246 214 98
-0.30068 -0.47341 1.3128 246 214 98
-0.46295 -0.11864 1.90902 246 214 98
-0.16376 -0.56523 1.45898 246 214 98
-0.2094 -0.53462 1.41025 246 214 98
-0.56562 0.09641 1.86216 246 214 98
-0.42758 0.00385 2.00954 246 214 98
-0.56596 0.07537 1.79527 246 214 98
-0.28628 -0.38347 1.24511 246 214 98
-0.3834 -0.04705 1.99017 246 214 98
-0.10372 -0.50589 1.44001 246 214 98
-0.10372 -0.50589 1.44001 251 219 100
-0.16376 -0.56523 1.45898 251 219 100
-0.44343 -0.10639 2.00914 251 219 100
-0.3834 -0.04705 1.99017 251 219 100
-0.48762 -0.05549 2.02851 251 219 100
-0.42758 0.00385 2.00954 251 219 100
-0.46295 -0.11864 1.90902 30 17 42
-0.55423 -0.05743 1.81157 30 17 42
-0.54621 -0.05616 1.84092 30 17 42
-0.48467 -0.09743 1.90663 30 17 42
-0.2094 -0.53462 1.41025 30 17 42
-0.25504 -0.50402 1.36153 30 17 42
-0.30068 -0.47341 1.3128 30 17 42
0.09642 0.29977 0.96979 246 214 98
0.09642 0.27877 1.08125 246 214 98
0.24509 0.27877 1.08125 246 214 98
0.24509 0.29977 0.96979 246 214 98
0.27119 0.30457 1.11725 246 214 98
0.27119 0.33124 0.97572 246 214 98
0.27119 1.19408 1.13831 246 214 98
0.27119 1.16741 1.27983 246 214 98
0.07032 0.30457 1.11725 246 214 98
0.07032 0.33124 0.97572 246 214 98
0.07032 1.16741 1.27983 246 214 98
0.07032 1.19408 1.13831 246 214 98
0.09642 0.27877 1.08125 251 219 100
0.07032 0.30457 1.11725 251 219 100
0.27119 0.30457 1.11725 251 219 100
0.24509 0.27877 1.08125 251 219 100
0.27119 1.16741 1.27983 251 219 100
0.07032 1.16741 1.27983 251 219 100
0.24303 1.20083 1.28613 251 219 100
0.09848 1.20083 1.28613 251 219 100
0.09848 1.20083 1.28613 246 214 98
0.09848 1.2275 1.1446 246 214 98
0.24303 1.2275 1.1446 246 214 98
0.24303 1.20083 1.28613 246 214 98
-0.09642 0.29977 0.96979 246 214 98
-0.24509 0.29977 0.96979 246 214 98
-0.24509 0.27877 1.08125 246 214 98
-0.09642 0.27877 1.08125 246 214 98
-0.27119 0.30457 1.11725 246 214 98
-0.27119 0.33124 0.97572 246 214 98
-0.27119 1.19408 1.13831 246 214 98
-0.27119 1.16741 1.27983 246 214 98
-0.07032 0.30457 1.11725 246 214 98
-0.07032 0.33124 0.97572 246 214 98
-0.07032 1.16741 1.27983 246 214 98
-0.07032 1.19408 1.13831 246 214 98
-0.09642 0.27877 1.08125 251 219 100
-0.24509 0.27877 1.08125 251 219 100
-0.27119 0.30457 1.11725 251 219 100
-0.07032 0.30457 1.11725 251 219 100
-0.27119 1.16741 1.27983 251 219 100
-0.07032 1.16741 1.27983 251 219 100
-0.24303 1.20083 1.28613 251 219 100
-0.09848 1.20083 1.28613 251 219 100
-0.09848 1.20083 1.28613 246 214 98
-0.24303 1.20083 1.28613 246 214 98
-0.24303 1.2275 1.1446 246 214 98
-0.09848 1.2275 1.1446 246 214 98
0.21539 0.20173 0.81964 246 214 98
0.21539 0.20173 0.9396 246 214 98
0.35129 0.14144 0.9396 246 214 98
0.35129 0.14144 0.81964 246 214 98
0.38814 0.16012 0.97847 246 214 98
0.38814 0.16012 0.79548 246 214 98
0.74422 0.9627 0.79548 246 214 98
0.56061 1.04417 0.79548 246 214 98
0.20452 0.24159 0.79548 246 214 98
0.74422 0.9627 0.97847 246 214 98
0.20452 0.24159 0.97847 246 214 98
0.21539 0.20173 0.9396 251 219 100
0.20452 0.24159 0.97847 251 219 100
0.38814 0.16012 0.97847 251 219 100
0.35129 0.14144 0.9396 251 219 100
0.74422 0.9627 0.97847 251 219 100
0.56061 1.04417 0.97847 251 219 100
0.60015 1.06383 0.97847 246 214 98
0.60015 1.06383 0.79548 246 214 98
0.73227 1.00521 0.79548 246 214 98
0.73227 1.00521 0.97847 246 214 98
0.56061 1.04417 0.97847 246 214 98
0.60015 1.06383 0.97847 251 219 100
0.73227 1.00521 0.97847 251 219 100
0.2287 0.13104 0.60976 246 214 98
0.2287 0.13104 0.70187 246 214 98
0.35742 0.05664 0.70187 246 214 98
0.35742 0.05664 0.60976 246 214 98
0.39604 0.0713 0.73074 246 214 98
0.39604 0.0713 0.59485 246 214 98
0.72326 0.63742 0.59485 246 214 98
0.54935 0.73794 0.59485 246 214 98
0.22213 0.17182 0.59485 246 214 98
0.72326 0.63742 0.73074 246 214 98
0.22213 0.17182 0.73074 246 214 98
0.2287 0.13104 0.70187 251 219 100
0.22213 0.17182 0.73074 251 219 100
0.39604 0.0713 0.73074 251 219 100
0.35742 0.05664 0.70187 251 219 100
0.72326 0.63742 0.73074 251 219 100
0.54935 0.73794 0.73074 251 219 100
0.59076 0.75329 0.73074 246 214 98
0.59076 0.75329 0.59485 246 214 98
0.7159 0.68096 0.59485 246 214 98
0.7159 0.68096 0.73074 246 214 98
0.54935 0.73794 0.73074 246 214 98
0.59076 0.75329 0.73074 251 219 100
0.7159 0.68096 0.73074 251 219 100
-0.21539 0.20173 0.81964 246 214 98
-0.35129 0.14144 0.81964 246 214 98
-0.35129 0.14144 0.9396 246 214 98
-0.21539 0.20173 0.9396 246 214 98
-0.38814 0.16012 0.97847 246 214 98
-0.38814 0.16012 0.79548 246 214 98
-0.74422 0.9627 0.79548 246 214 98
-0.56061 1.04417 0.79548 246 214 98
-0.20452 0.24159 0.79548 246 214 98
-0.74422 0.9627 0.97847 246 214 98
-0.20452 0.24159 0.97847 246 214 98
-0.21539 0.20173 0.9396 251 219 100
-0.35129 0.14144 0.9396 251 219 100
-0.38814 0.16012 0.97847 251 219 100
-0.20452 0.24159 0.97847 251 219 100
-0.74422 0.9627 0.97847 251 219 100
-0.56061 1.04417 0.97847 251 219 100
-0.60015 1.06383 0.97847 246 214 98
-0.73227 1.00521 0.97847 246 214 98
-0.73227 1.00521 0.79548 246 214 98
-0.60015 1.06383 0.79548 246 214 98
-0.56061 1.04417 0.97847 246 214 98
-0.73227 1.00521 0.97847 251 219 100
-0.60015 1.06383 0.97847 251 219 100
-0.2287 0.13104 0.60976 246 214 98
-0.35742 0.05664 0.60976 246 214 98
-0.35742 0.05664 0.70187 246 214 98
-0.2287 0.13104 0.70187 246 214 98
-0.39604 0.0713 0.73074 246 214 98
-0.39604 0.0713 0.59485 246 214 98
-0.72326 0.63742 0.59485 246 214 98
-0.54935 0.73794 0.59485 246 214 98
-0.22213 0.17182 0.59485 246 214 98
-0.72326 0.63742 0.73074 246 214 98
-0.22213 0.17182 0.73074 246 214 98
-0.2287 0.13104 0.70187 251 219 100
-0.35742 0.05664 0.70187 251 219 100
-0.39604 0.0713 0.73074 251 219 100
-0.22213 0.17182 0.73074 251 219 100
-0.72326 0.63742 0.73074 251 219 100
-0.54935 0.73794 0.73074 251 219 100
-0.59076 0.75329 0.73074 246 214 98
-0.7159 0.68096 0.73074 246 214 98
-0.7159 0.68096 0.59485 246 214 98
-0.59076 0.75329 0.59485 246 214 98
-0.54935 0.73794 0.73074 246 214 98
-0.7159 0.68096 0.73074 251 219 100
-0.59076 0.75329 0.73074 251 219 100
-0.09209 -0.61716 0.44884 230 236 240
-0.09209 -0.61716 0.72453 230 236 240
0.09209 -0.61716 0.72453 230 236 240
0.09209 -0.61716 0.44884 230 236 240
0.09209 -0.43298 0.72453 230 236 240
0.09209 -0.43298 0.44884 230 236 240
-0.09209 -0.43298 0.44884 230 236 240
-0.09209 -0.43298 0.72453 230 236 240
0.07367 -0.59874 0.42494 230 236 240
0.07367 -0.4514 0.42494 230 236 240
-0.07367 -0.59874 0.42494 230 236 240
-0.07367 -0.4514 0.42494 230 236 240
0.2698 -0.60172 0.56473 230 236 240
0.2698 -0.60172 0.72372 230 236 240
0.4231 -0.60172 0.72372 230 236 240
0.4231 -0.60172 0.56473 230 236 240
0.4231 -0.44842 0.72372 230 236 240
0.4231 -0.44842 0.56473 230 236 240
0.2698 -0.44842 0.56473 230 236 240
0.2698 -0.44842 0.72372 230 236 240
0.40777 -0.58639 0.54484 230 236 240
0.40777 -0.46375 0.54484 230 236 240
0.28513 -0.58639 0.54484 230 236 240
0.28513 -0.46375 0.54484 230 236 240
-0.2698 -0.60172 0.56473 230 236 240
-0.4231 -0.60172 0.56473 230 236 240
-0.4231 -0.60172 0.72372 230 236 240
-0.2698 -0.60172 0.72372 230 236 240
-0.4231 -0.44842 0.72372 230 236 240
-0.4231 -0.44842 0.56473 230 236 240
-0.2698 -0.44842 0.56473 230 236 240
-0.2698 -0.44842 0.72372 230 236 240
-0.40777 -0.58639 0.54484 230 236 240
-0.40777 -0.46375 0.54484 230 236 240
-0.28513 -0.58639 0.54484 230 236 240
-0.28513 -0.46375 0.54484 230 236 240
0.7063 -0.1327 0.99689 230 236 240
0.47405 -0.1327 0.99689 230 236 240
0.47405 -0.1327 1.19743 230 236 240
0.7063 -0.1327 1.19743 230 236 240
0.7063 0.02245 0.99689 230 236 240
0.47405 0.02245 0.99689 230 236 240
0.72643 -0.11719 1.01241 230 236 240
0.72643 -0.11719 1.18191 230 236 240
0.72643 0.00694 1.01241 230 236 240
0.7063 0.02245 1.19743 230 236 240
0.47405 0.02245 1.19743 230 236 240
0.72643 0.00694 1.18191 230 236 240
0.7063 -0.1327 1.19743 236 242 246
0.47405 -0.1327 1.19743 236 242 246
0.47405 0.02245 1.19743 236 242 246
0.7063 0.02245 1.19743 236 242 246
0.72643 -0.11719 1.18191 236 242 246
0.72643 0.00694 1.18191 236 242 246
0.62246 -0.38488 0.75229 230 236 240
0.47309 -0.38488 0.75229 230 236 240
0.47309 -0.38488 0.88587 230 236 240
0.62246 -0.38488 0.88587 230 236 240
0.62246 -0.2513 0.75229 230 236 240
0.47309 -0.2513 0.75229 230 236 240
0.63979 -0.37152 0.76565 230 236 240
0.63979 -0.37152 0.87251 230 236 240
0.63979 -0.26466 0.76565 230 236 240
0.62246 -0.2513 0.88587 230 236 240
0.47309 -0.2513 0.88587 230 236 240
0.63979 -0.26466 0.87251 230 236 240
0.62246 -0.38488 0.88587 236 242 246
0.47309 -0.38488 0.88587 236 242 246
0.47309 -0.2513 0.88587 236 242 246
0.62246 -0.2513 0.88587 236 242 246
0.63979 -0.37152 0.87251 236 242 246
0.63979 -0.26466 0.87251 236 242 246
-0.7063 -0.1327 0.99689 230 236 240
-0.7063 -0.1327 1.19743 230 236 240
-0.47405 -0.1327 1.19743 230 236 240
-0.47405 -0.1327 0.99689 230 236 240
-0.7063 0.02245 0.99689 230 236 240
-0.47405 0.02245 0.99689 230 236 240
-0.72643 -0.11719 1.01241 230 236 240
-0.72643 -0.11719 1.18191 230 236 240
-0.72643 0.00694 1.01241 230 236 240
-0.47405 0.02245 1.19743 230 236 240
-0.7063 0.02245 1.19743 230 236 240
-0.72643 0.00694 1.18191 230 236 240
-0.7063 -0.1327 1.19743 236 242 246
-0.7063 0.02245 1.19743 236 242 246
-0.47405 0.02245 1.19743 236 242 246
-0.47405 -0.1327 1.19743 236 242 246
-0.72643 -0.11719 1.18191 236 242 246
-0.72643 0.00694 1.18191 236 242 246
-0.62246 -0.38488 0.75229 230 236 240
-0.62246 -0.38488 0.88587 230 236 240
-0.47309 -0.38488 0.88587 230 236 240
-0.47309 -0.38488 0.75229 230 236 240
-0.62246 -0.2513 0.75229 230 236 240
-0.47309 -0.2513 0.75229 230 236 240
-0.63979 -0.37152 0.76565 230 236 240
-0.63979 -0.37152 0.87251 230 236 240
-0.63979 -0.26466 0.76565 230 236 240
-0.47309 -0.2513 0.88587 230 236 240
-0.62246 -0.2513 0.88587 230 236 240
-0.63979 -0.26466 0.87251 230 236 240
-0.62246 -0.38488 0.88587 236 242 246
-0.62246 -0.2513 0.88587 236 242 246
-0.47309 -0.2513 0.88587 236 242 246
-0.47309 -0.38488 0.88587 236 242 246
-0.63979 -0.37152 0.87251 236 242 246
-0.63979 -0.26466 0.87251 236 242 246
-0.07797 0.2424 1.10142 230 236 240
-0.07797 0.04941 1.10142 230 236 240
0.07797 0.04941 1.10142 230 236 240
0.07797 0.2424 1.10142 230 236 240
0.07797 0.04941 1.25736 230 236 240
0.07797 0.2424 1.25736 230 236 240
-0.07797 0.2424 1.25736 230 236 240
-0.07797 0.04941 1.25736 230 236 240
0.06238 0.26263 1.11701 230 236 240
0.06238 0.26263 1.24177 230 236 240
-0.06238 0.26263 1.24177 230 236 240
-0.06238 0.26263 1.11701 230 236 240
-0.07797 0.04941 1.25736 236 242 246
-0.07797 0.2424 1.25736 236 242 246
0.07797 0.2424 1.25736 236 242 246
0.07797 0.04941 1.25736 236 242 246
0.06238 0.26263 1.24177 236 242 246
-0.06238 0.26263 1.24177 236 242 246
0.22165 0.1609 1.10142 230 236 240
0.22165 0.04941 1.10142 230 236 240
0.3776 0.04941 1.10142 230 236 240
0.3776 0.1609 1.10142 230 236 240
0.3776 0.04941 1.25736 230 236 240
0.3776 0.1609 1.25736 230 236 240
0.22165 0.1609 1.25736 230 236 240
0.22165 0.04941 1.25736 230 236 240
0.362 0.18113 1.11701 230 236 240
0.362 0.18113 1.24177 230 236 240
0.23725 0.18113 1.24177 230 236 240
0.23725 0.18113 1.11701 230 236 240
0.22165 0.04941 1.25736 236 242 246
0.22165 0.1609 1.25736 236 242 246
0.3776 0.1609 1.25736 236 242 246
0.3776 0.04941 1.25736 236 242 246
0.362 0.18113 1.24177 236 242 246
0.23725 0.18113 1.24177 236 242 246
-0.22165 0.1609 1.10142 230 236 240
-0.3776 0.1609 1.10142 230 236 240
-0.3776 0.04941 1.10142 230 236 240
-0.22165 0.04941 1.10142 230 236 240
-0.3776 0.04941 1.25736 230 236 240
-0.3776 0.1609 1.25736 230 236 240
-0.22165 0.1609 1.25736 230 236 240
-0.22165 0.04941 1.25736 230 236 240
-0.362 0.18113 1.11701 230 236 240
-0.362 0.18113 1.24177 230 236 240
-0.23725 0.18113 1.24177 230 236 240
-0.23725 0.18113 1.11701 230 236 240
-0.22165 0.04941 1.25736 236 242 246
-0.3776 0.04941 1.25736 236 242 246
-0.3776 0.1609 1.25736 236 242 246
-0.22165 0.1609 1.25736 236 242 246
-0.362 0.18113 1.24177 236 242 246
-0.23725 0.18113 1.24177 236 242 246
3 0 2 1
3 0 3 2
3 4 3 0
3 4 5 3
3 5 2 3
3 5 6 2
3 5 7 6
3 6 7 8
3 6 8 9
3 10 6 9
3 10 0 1
3 10 4 0
3 11 4 10
3 10 9 12
3 11 10 12
3 11 12 13
3 5 4 14
3 5 14 15
3 7 5 15
3 7 15 16
3 11 7 16
3 11 16 17
3 4 17 14
3 4 11 17
3 7 11 18
3 7 18 19
3 20 19 18
3 11 20 18
3 20 21 19
3 8 19 21
3 8 7 19
3 11 13 20
3 22 24 23
3 22 25 24
3 26 28 27
3 26 29 28
3 30 29 26
3 30 31 29
3 31 28 29
3 31 32 28
3 31 33 32
3 32 33 34
3 32 34 35
3 36 32 35
3 36 26 27
3 36 30 26
3 37 30 36
3 36 35 38
3 37 36 38
3 37 38 39
3 31 30 40
3 31 40 41
3 33 31 41
3 33 41 42
3 37 33 42
3 37 42 43
3 30 43 40
3 30 37 43
3 33 37 44
3 33 44 45
3 46 45 44
3 37 46 44
3 46 47 45
3 34 45 47
3 34 33 45
3 37 39 46
3 48 50 49
3 48 51 50
3 52 54 53
3 52 55 54
3 56 58 57
3 56 59 58
3 60 62 61
3 63 60 61
3 63 61 64
3 65 61 62
3 64 61 65
3 65 62 66
3 67 65 66
3 67 66 68
3 60 63 69
3 60 69 70
3 62 60 70
3 64 65 71
3 62 70 72
3 66 62 72
3 66 72 73
3 68 66 73
3 68 73 74
3 70 75 72
3 69 75 70
3 76 74 73
3 76 73 77
3 77 72 75
3 77 73 72
3 69 78 75
3 78 77 75
3 78 79 77
3 71 80 64
3 71 81 80
3 81 71 82
3 71 67 82
3 71 65 67
3 81 82 83
3 64 80 63
3 63 80 84
3 81 84 80
3 63 84 69
3 81 83 85
3 81 85 86
3 81 86 84
3 79 84 86
3 79 78 84
3 78 69 84
3 86 87 79
3 86 85 87
3 79 87 76
3 79 76 77
3 88 90 89
3 88 91 90
3 92 90 91
3 92 93 90
3 94 88 89
3 94 95 88
3 96 98 97
3 96 99 98
3 100 96 97
3 100 97 101
3 101 97 98
3 101 98 102
3 101 102 103
3 102 104 103
3 102 105 104
3 106 105 102
3 106 96 100
3 106 99 96
3 107 106 100
3 106 108 105
3 107 108 106
3 107 109 108
3 101 110 100
3 101 111 110
3 103 111 101
3 103 112 111
3 107 112 103
3 107 113 112
3 100 113 107
3 100 110 113
3 107 103 114
3 107 114 115
3 116 115 114
3 116 114 117
3 103 117 114
3 109 115 116
3 109 107 115
3 103 104 117
3 118 120 119
3 118 121 120
3 122 124 123
3 122 125 124
3 126 122 123
3 126 123 127
3 127 123 124
3 127 124 128
3 127 128 129
3 128 130 129
3 128 131 130
3 132 131 128
3 132 122 126
3 132 125 122
3 133 132 126
3 132 134 131
3 133 134 132
3 133 135 134
3 127 136 126
3 127 137 136
3 129 137 127
3 129 138 137
3 133 138 129
3 133 139 138
3 126 139 133
3 126 136 139
3 133 129 140
3 133 140 141
3 142 141 140
3 142 140 143
3 129 143 140
3 135 141 142
3 135 133 141
3 129 130 143
3 144 146 145
3 144 147 146
3 148 150 149
3 148 151 150
3 152 154 153
3 152 155 154
3 156 158 157
3 156 159 158
3 156 160 159
3 156 161 160
3 161 162 160
3 161 163 162
3 159 160 164
3 159 164 165
3 166 168 167
3 166 169 168
3 167 168 170
3 169 166 171
3 169 171 172
3 171 173 172
3 171 174 173
3 175 173 174
3 175 176 173
3 176 172 173
3 176 169 172
3 169 176 177
3 169 177 178
3 175 179 176
3 175 180 179
3 180 181 179
3 167 170 182
3 167 182 183
3 183 182 184
3 183 184 185
3 186 183 185
3 187 186 180
3 183 186 187
3 183 187 188
3 188 167 183
3 186 185 189
3 169 178 190
3 169 190 168
3 168 190 191
3 168 191 170
3 170 191 192
3 170 192 182
3 182 192 193
3 182 193 194
3 182 194 195
3 182 195 184
3 194 189 195
3 194 186 189
3 180 186 194
3 180 194 181
3 196 194 193
3 196 181 194
3 179 181 196
3 179 196 197
3 176 179 197
3 176 197 177
3 198 200 199
3 198 201 200
3 202 204 203
3 202 205 204
3 206 205 202
3 206 202 203
3 206 207 205
3 205 208 204
3 205 207 208
3 206 203 209
3 210 212 211
3 210 213 212
3 214 210 211
3 214 213 210
3 214 211 215
3 211 216 215
3 211 212 216
3 214 217 213
3 218 220 219
3 218 221 220
3 219 222 218
3 219 223 222
3 220 223 219
3 222 223 224
3 220 224 223
3 222 224 225
3 226 228 227
3 226 229 228
3 229 226 230
3 229 230 231
3 232 231 230
3 232 230 233
3 226 227 234
3 226 234 235
3 236 226 235
3 230 226 236
3 236 235 237
3 229 231 238
3 233 230 239
3 239 237 235
3 233 239 240
3 230 236 241
3 232 233 240
3 232 240 242
3 235 234 243
3 235 243 244
3 244 239 235
3 244 245 239
3 242 239 245
3 242 240 239
3 244 246 245
3 239 247 237
3 230 247 239
3 230 241 247
3 231 232 248
3 231 248 249
3 249 238 231
3 250 249 248
3 251 249 250
3 251 250 252
3 250 253 252
3 250 254 253
3 250 248 254
3 254 255 253
3 254 248 255
3 252 253 255
3 251 252 256
3 251 257 249
3 257 238 249
3 257 258 238
3 259 238 258
3 259 260 238
3 259 258 261
3 259 261 262
3 258 263 261
3 258 257 263
3 260 259 264
3 260 264 265
3 259 262 266
3 259 266 267
3 265 264 268
3 265 268 269
3 264 270 268
3 264 271 270
3 271 272 270
3 271 273 272
3 273 271 274
3 273 274 275
3 272 273 276
3 273 265 277
3 265 269 277
3 273 277 278
3 273 278 276
3 267 266 279
3 267 279 280
3 267 280 246
3 267 246 281
3 282 246 280
3 282 283 246
3 280 279 284
3 280 284 282
3 274 285 275
3 285 286 275
3 275 286 287
3 275 287 288
3 275 288 289
3 281 289 290
3 281 290 267
3 290 259 267
3 290 264 259
3 289 291 290
3 289 292 291
3 289 288 292
3 290 291 293
3 290 293 274
3 274 293 285
3 271 290 274
3 271 264 290
3 238 228 229
3 238 260 228
3 294 296 295
3 294 297 296
3 297 298 296
3 296 298 299
3 296 299 300
3 297 301 298
3 297 302 301
3 297 303 302
3 304 306 305
3 304 307 306
3 308 304 305
3 308 307 304
3 308 305 309
3 309 305 306
3 308 310 307
3 310 308 309
3 310 309 311
3 309 306 311
3 312 314 313
3 312 315 314
3 316 315 312
3 316 312 317
3 312 318 317
3 312 313 318
3 317 319 316
3 317 318 319
3 251 263 257
3 251 320 263
3 320 251 256
3 320 256 321
3 256 284 321
3 256 282 284
3 256 283 282
3 256 252 283
3 252 255 283
3 245 283 255
3 245 255 242
3 248 242 255
3 248 232 242
3 283 245 246
3 322 324 323
3 322 325 324
3 326 324 325
3 326 327 324
3 328 327 326
3 328 329 327
3 330 332 331
3 333 332 330
3 333 330 334
3 331 332 335
3 335 332 336
3 337 339 338
3 337 340 339
3 246 243 281
3 246 244 243
3 221 224 220
3 221 225 224
3 341 343 342
3 344 341 342
3 344 345 341
3 343 346 342
3 346 347 342
3 348 350 349
3 348 351 350
3 352 354 353
3 355 353 354
3 355 354 356
3 355 356 357
3 355 358 353
3 359 354 352
3 359 352 360
3 355 361 358
3 362 361 355
3 362 363 361
3 357 365 364
3 357 356 365
3 354 365 356
3 354 366 365
3 366 364 365
3 359 366 354
3 359 367 366
3 368 366 367
3 366 368 364
3 368 367 369
3 370 372 371
3 370 373 372
3 371 372 374
3 371 374 375
3 376 378 377
3 376 379 378
3 380 379 376
3 381 379 380
3 379 381 382
3 383 385 384
3 386 384 385
3 386 387 384
3 386 388 387
3 386 385 389
3 390 383 384
3 390 391 383
3 386 389 392
3 393 386 392
3 393 392 394
3 388 395 387
3 388 396 395
3 384 387 395
3 384 395 397
3 397 395 396
3 390 384 397
3 390 397 398
3 399 398 397
3 397 396 399
3 399 400 398
3 401 403 402
3 401 404 403
3 404 405 403
3 404 406 405
3 407 409 408
3 407 410 409
3 408 411 407
3 408 412 411
3 412 408 413
3 414 416 415
3 414 417 416
3 417 418 416
3 417 419 418
3 418 419 420
3 418 420 421
3 422 414 415
3 422 423 414
3 424 423 422
3 424 425 423
3 426 428 427
3 426 429 428
3 427 428 430
3 427 430 431
3 431 430 432
3 431 432 433
3 434 436 435
3 434 437 436
3 435 436 420
3 435 420 425
3 435 424 434
3 435 425 424
3 425 420 419
3 425 419 423
3 421 436 437
3 421 420 436
3 423 419 417
3 423 417 414
3 438 440 439
3 438 441 440
3 439 440 442
3 439 442 443
3 442 444 443
3 442 445 444
3 446 441 438
3 446 438 447
3 448 446 447
3 448 447 449
3 450 452 451
3 450 453 452
3 453 454 452
3 453 455 454
3 455 456 454
3 455 457 456
3 458 460 459
3 458 461 460
3 461 444 460
3 461 449 444
3 461 448 449
3 461 458 448
3 449 443 444
3 449 447 443
3 445 460 444
3 445 459 460
3 447 439 443
3 447 438 439
3 462 464 463
3 462 465 464
3 465 466 464
3 465 467 466
3 466 467 468
3 469 468 467
3 469 467 470
3 470 465 462
3 470 467 465
3 466 468 471
3 472 462 463
3 472 470 462
3 473 475 474
3 473 476 475
3 474 475 477
3 474 477 478
3 479 481 480
3 479 482 481
3 480 481 468
3 480 468 469
3 480 483 479
3 480 469 483
3 471 481 482
3 471 468 481
3 483 469 470
3 483 470 472
3 478 485 484
3 478 477 485
3 486 488 487
3 486 489 488
3 489 490 488
3 489 491 490
3 490 491 492
3 493 492 491
3 493 491 494
3 494 489 486
3 494 491 489
3 490 492 495
3 496 486 487
3 496 494 486
3 497 499 498
3 497 500 499
3 498 499 501
3 498 501 502
3 503 505 504
3 503 506 505
3 504 505 492
3 504 492 493
3 504 507 503
3 504 493 507
3 495 505 506
3 495 492 505
3 507 493 494
3 507 494 496
3 502 509 508
3 502 501 509
3 510 512 511
3 510 513 512
3 511 512 514
3 511 514 515
3 514 516 515
3 517 515 516
3 517 518 515
3 518 511 515
3 518 510 511
3 514 519 516
3 520 510 518
3 520 513 510
3 521 523 522
3 521 524 523
3 524 525 523
3 524 526 525
3 527 529 528
3 527 530 529
3 530 516 529
3 530 517 516
3 530 531 517
3 530 527 531
3 519 529 516
3 519 528 529
3 531 518 517
3 531 520 518
3 526 532 525
3 526 533 532
3 534 536 535
3 534 537 536
3 535 536 538
3 535 538 539
3 538 540 539
3 541 539 540
3 541 542 539
3 542 535 539
3 542 534 535
3 538 543 540
3 544 534 542
3 544 537 534
3 545 547 546
3 545 548 547
3 548 549 547
3 548 550 549
3 551 553 552
3 551 554 553
3 554 540 553
3 554 541 540
3 554 555 541
3 554 551 555
3 543 553 540
3 543 552 553
3 555 542 541
3 555 544 542
3 550 556 549
3 550 557 556
3 558 560 559
3 558 561 560
3 561 562 560
3 561 563 562
3 564 558 559
3 564 559 565
3 563 561 566
3 563 566 567
3 561 568 566
3 561 558 568
3 558 569 568
3 558 564 569
3 565 563 564
3 565 562 563
3 564 563 567
3 564 567 569
3 569 567 566
3 569 566 568
3 570 572 571
3 570 573 572
3 573 574 572
3 573 575 574
3 576 570 571
3 576 571 577
3 575 573 578
3 575 578 579
3 573 580 578
3 573 570 580
3 570 581 580
3 570 576 581
3 577 575 576
3 577 574 575
3 576 575 579
3 576 579 581
3 581 579 578
3 581 578 580
3 582 584 583
3 582 585 584
3 583 584 586
3 583 586 587
3 588 585 582
3 588 589 585
3 587 590 583
3 587 591 590
3 583 592 582
3 583 590 592
3 582 593 588
3 582 592 593
3 589 587 586
3 589 588 587
3 588 591 587
3 588 593 591
3 593 590 591
3 593 592 590
3 594 596 595
3 594 597 596
3 598 594 595
3 598 595 599
3 597 594 600
3 597 600 601
3 594 602 600
3 594 598 602
3 599 603 598
3 599 604 603
3 598 603 605
3 598 605 602
3 602 605 601
3 602 601 600
3 606 608 607
3 606 609 608
3 609 606 610
3 609 610 611
3 612 614 613
3 612 615 614
3 616 612 613
3 616 613 617
3 615 612 618
3 615 618 619
3 612 620 618
3 612 616 620
3 617 621 616
3 617 622 621
3 616 621 623
3 616 623 620
3 620 623 619
3 620 619 618
3 624 626 625
3 624 627 626
3 627 624 628
3 627 628 629
3 630 632 631
3 630 633 632
3 634 633 630
3 634 635 633
3 631 636 630
3 631 637 636
3 630 638 634
3 630 636 638
3 635 640 639
3 635 634 640
3 634 641 640
3 634 638 641
3 638 637 641
3 638 636 637
3 642 644 643
3 642 645 644
3 643 646 642
3 643 647 646
3 648 650 649
3 648 651 650
3 652 651 648
3 652 653 651
3 649 654 648
3 649 655 654
3 648 656 652
3 648 654 656
3 653 658 657
3 653 652 658
3 652 659 658
3 652 656 659
3 656 655 659
3 656 654 655
3 660 662 661
3 660 663 662
3 661 664 660
3 661 665 664
3 666 668 667
3 666 669 668
3 669 670 668
3 669 671 670
3 672 666 667
3 672 667 673
3 671 669 674
3 671 674 675
3 676 675 674
3 666 672 676
3 676 674 677
3 669 677 674
3 669 666 677
3 666 676 677
3 678 680 679
3 678 681 680
3 679 680 682
3 679 682 683
3 684 686 685
3 684 687 686
3 687 688 686
3 687 689 688
3 690 684 685
3 690 685 691
3 689 687 692
3 689 692 693
3 694 693 692
3 684 690 694
3 694 692 695
3 687 695 692
3 687 684 695
3 684 694 695
3 696 698 697
3 696 699 698
3 697 698 700
3 697 700 701
3 702 704 703
3 702 705 704
3 703 704 706
3 703 706 707
3 708 705 702
3 708 709 705
3 707 710 703
3 707 711 710
3 712 710 711
3 702 712 708
3 712 713 710
3 703 713 702
3 703 710 713
3 702 713 712
3 714 716 715
3 714 717 716
3 717 718 716
3 717 719 718
