ply
format ascii 1.0
element vertex 632
property float x
property float y
property float z
property uchar red
property uchar green
property uchar blue
element face 796
property list uchar int vertex_index
end_header
-0.40157 -0.48267 0.96384 241 215 37
-0.40157 -0.48267 1.56892 241 215 37
-0.3375 -0.54007 1.56892 241 215 37
-0.3375 -0.54007 0.96384 241 215 37
-0.40157 0.20567 0.96384 241 215 37
-0.40157 0.20567 1.56892 241 215 37
-0.3375 0.26306 0.96384 241 215 37
-0.3375 0.26306 1.56892 241 215 37
-0.36503 0.17435 1.60364 241 215 37
-0.30679 0.22653 1.60364 241 215 37
-0.36503 -0.45136 1.60364 241 215 37
-0.30679 -0.50353 1.60364 241 215 37
0.30679 -0.50353 1.60364 241 215 37
0.3375 -0.54007 1.56892 241 215 37
-0.36654 -0.45265 0.92648 241 215 37
-0.30806 -0.50505 0.92648 241 215 37
-0.36654 0.17565 0.92648 241 215 37
-0.30806 0.22804 0.92648 241 215 37
0.36654 0.17565 0.92648 241 215 37
0.30806 0.22804 0.92648 241 215 37
-0.225 -0.45265 0.92648 241 215 37
-0.225 -0.50505 0.92648 241 215 37
-0.225 -0.54007 0.96384 241 215 37
-0.225 -0.54007 1.01 241 215 37
-0.225 -0.1385 0.92648 241 215 37
0.225 -0.1385 0.92648 241 215 37
0.225 -0.45265 0.92648 241 215 37
0.36654 -0.45265 0.92648 241 215 37
0.40157 0.20567 0.96384 241 215 37
0.3375 0.26306 0.96384 241 215 37
0.40157 0.20567 1.56892 241 215 37
0.40157 -0.48267 0.96384 241 215 37
0.40157 -0.48267 1.56892 241 215 37
0.3375 -0.54007 0.96384 241 215 37
0.3375 0.26306 1.56892 241 215 37
0.30679 0.22653 1.60364 241 215 37
0.36503 -0.45136 1.60364 241 215 37
0.36503 0.17435 1.60364 241 215 37
0.30806 -0.50505 0.92648 241 215 37
0.225 -0.50505 0.92648 241 215 37
0.225 -0.54007 0.96384 241 215 37
0.22474 -0.54007 1.01 241 215 37
0.22368 -0.54007 1.27395 241 215 37
0.17253 -0.54007 1.31501 241 215 37
0.36503 0.17435 1.60364 248 220 38
0.36503 -0.45136 1.60364 248 220 38
-0.36503 -0.45136 1.60364 248 220 38
-0.36503 0.17435 1.60364 248 220 38
-0.30679 -0.50353 1.60364 248 220 38
0.30679 -0.50353 1.60364 248 220 38
0.30679 0.22653 1.60364 248 220 38
-0.30679 0.22653 1.60364 248 220 38
0.12467 -0.66595 1.21475 241 215 37
-0.12571 -0.66595 1.21475 241 215 37
-0.10276 -0.66595 1.23767 241 215 37
0.10245 -0.66595 1.23767 241 215 37
-0.12571 -0.66595 1.06746 241 215 37
0.12527 -0.66595 1.06746 241 215 37
-0.10127 -0.66595 1.0417 241 215 37
0.10097 -0.66595 1.0417 241 215 37
-0.17253 -0.54007 1.31501 241 215 37
-0.225 -0.54007 1.27395 241 215 37
0.22474 -0.54007 1.01 43 43 42
0.225 -0.54007 0.96384 43 43 42
0.17004 -0.54007 0.96384 43 43 42
0.225 -0.50505 0.92648 43 43 42
0.225 -0.45265 0.92648 43 43 42
-0.225 -0.50505 0.92648 43 43 42
-0.225 -0.45265 0.92648 43 43 42
0.225 -0.1385 0.92648 43 43 42
-0.225 -0.1385 0.92648 43 43 42
-0.17004 -0.54007 0.96384 43 43 42
-0.225 -0.54007 0.96384 43 43 42
-0.225 -0.54007 1.01 43 43 42
0.22368 -0.54007 1.27395 213 188 26
0.22368 -0.58478 1.27395 213 188 26
0.17253 -0.58478 1.31501 213 188 26
0.17253 -0.54007 1.31501 213 188 26
-0.17253 -0.58478 1.31501 213 188 26
-0.17253 -0.54007 1.31501 213 188 26
0.22474 -0.54007 1.01 213 188 26
0.22474 -0.58478 1.01 213 188 26
0.17004 -0.54007 0.96384 213 188 26
0.17004 -0.58478 0.96384 213 188 26
-0.225 -0.58478 1.27395 213 188 26
-0.225 -0.54007 1.27395 213 188 26
-0.225 -0.58478 1.01 213 188 26
-0.225 -0.54007 1.01 213 188 26
-0.17004 -0.58478 0.96384 213 188 26
-0.17004 -0.54007 0.96384 213 188 26
0.22368 -0.66595 1.27395 241 215 37
0.16809 -0.66595 1.24076 241 215 37
0.13815 -0.66595 1.27164 241 215 37
0.17253 -0.66595 1.31501 241 215 37
-0.13834 -0.66595 1.27164 241 215 37
-0.17253 -0.66595 1.31501 241 215 37
-0.16928 -0.66595 1.24076 241 215 37
-0.225 -0.66595 1.27395 241 215 37
-0.16928 -0.66595 1.04229 241 215 37
-0.225 -0.66595 1.01 241 215 37
-0.13635 -0.66595 1.00759 241 215 37
-0.17004 -0.66595 0.96384 241 215 37
0.13615 -0.66595 1.00759 241 215 37
0.17004 -0.66595 0.96384 241 215 37
0.22474 -0.66595 1.01 241 215 37
0.16888 -0.66595 1.04229 241 215 37
-0.225 -0.58478 1.27395 241 215 37
-0.225 -0.58478 1.01 241 215 37
-0.17004 -0.58478 0.96384 241 215 37
0.17004 -0.58478 0.96384 241 215 37
0.22474 -0.58478 1.01 241 215 37
0.22368 -0.58478 1.27395 241 215 37
0.16809 -0.66595 1.24076 213 188 26
0.12467 -0.66595 1.21475 213 188 26
0.10245 -0.66595 1.23767 213 188 26
0.13815 -0.66595 1.27164 213 188 26
-0.10276 -0.66595 1.23767 213 188 26
-0.13834 -0.66595 1.27164 213 188 26
-0.12571 -0.66595 1.21475 213 188 26
-0.16928 -0.66595 1.24076 213 188 26
-0.12571 -0.66595 1.06746 213 188 26
-0.16928 -0.66595 1.04229 213 188 26
-0.10127 -0.66595 1.0417 213 188 26
-0.13635 -0.66595 1.00759 213 188 26
0.10097 -0.66595 1.0417 213 188 26
0.13615 -0.66595 1.00759 213 188 26
0.12527 -0.66595 1.06746 213 188 26
0.16888 -0.66595 1.04229 213 188 26
0.22368 -0.58478 1.27395 248 220 38
0.22368 -0.66595 1.27395 248 220 38
0.17253 -0.66595 1.31501 248 220 38
0.17253 -0.58478 1.31501 248 220 38
-0.17253 -0.66595 1.31501 248 220 38
-0.17253 -0.58478 1.31501 248 220 38
-0.225 -0.66595 1.27395 248 220 38
-0.225 -0.58478 1.27395 248 220 38
0.39327 -0.41241 1.11063 255 235 158
0.39327 -0.41241 1.48089 255 235 158
0.44344 -0.41241 1.48089 255 235 158
0.44344 -0.41241 1.11063 255 235 158
0.44344 -0.04214 1.48089 255 235 158
0.39327 -0.04214 1.48089 255 235 158
0.44344 -0.04214 1.11063 255 235 158
0.39327 -0.04214 1.11063 255 235 158
0.44344 -0.09151 1.16 255 235 158
0.44344 -0.36304 1.16 255 235 158
0.44344 -0.09151 1.43153 255 235 158
0.44344 -0.36304 1.43153 255 235 158
0.48766 -0.30421 1.26111 118 120 118
0.48766 -0.30421 1.41498 118 120 118
0.48766 -0.15034 1.41498 118 120 118
0.48766 -0.15034 1.26111 118 120 118
0.44344 -0.36304 1.16 43 43 42
0.48766 -0.36304 1.16 43 43 42
0.48766 -0.09151 1.16 43 43 42
0.44344 -0.09151 1.16 43 43 42
0.48766 -0.09151 1.43153 43 43 42
0.44344 -0.09151 1.43153 43 43 42
0.48766 -0.36304 1.43153 43 43 42
0.44344 -0.36304 1.43153 43 43 42
0.48766 -0.15034 1.26111 43 43 42
0.48766 -0.30421 1.26111 43 43 42
0.48766 -0.15034 1.41498 43 43 42
0.48766 -0.30421 1.41498 43 43 42
-0.39327 -0.41241 1.11063 255 235 158
-0.44344 -0.41241 1.11063 255 235 158
-0.44344 -0.41241 1.48089 255 235 158
-0.39327 -0.41241 1.48089 255 235 158
-0.44344 -0.04214 1.48089 255 235 158
-0.39327 -0.04214 1.48089 255 235 158
-0.44344 -0.04214 1.11063 255 235 158
-0.39327 -0.04214 1.11063 255 235 158
-0.44344 -0.09151 1.16 255 235 158
-0.44344 -0.36304 1.16 255 235 158
-0.44344 -0.09151 1.43153 255 235 158
-0.44344 -0.36304 1.43153 255 235 158
-0.48766 -0.30421 1.26111 118 120 118
-0.48766 -0.15034 1.26111 118 120 118
-0.48766 -0.15034 1.41498 118 120 118
-0.48766 -0.30421 1.41498 118 120 118
-0.44344 -0.36304 1.16 43 43 42
-0.44344 -0.09151 1.16 43 43 42
-0.48766 -0.09151 1.16 43 43 42
-0.48766 -0.36304 1.16 43 43 42
-0.48766 -0.09151 1.43153 43 43 42
-0.44344 -0.09151 1.43153 43 43 42
-0.48766 -0.36304 1.43153 43 43 42
-0.44344 -0.36304 1.43153 43 43 42
-0.48766 -0.15034 1.26111 43 43 42
-0.48766 -0.30421 1.26111 43 43 42
-0.48766 -0.15034 1.41498 43 43 42
-0.48766 -0.30421 1.41498 43 43 42
-0.03907 -0.61201 1.35168 236 94 56
-0.03907 -0.61201 1.44304 236 94 56
0.03907 -0.61201 1.44304 236 94 56
0.03907 -0.61201 1.35168 236 94 56
0.03907 -0.53576 1.44304 236 94 56
0.03907 -0.53576 1.35168 236 94 56
0.25 -0.53576 1.44311 236 94 56
0.25 -0.61201 1.44311 236 94 56
0.26088 -0.54721 1.45956 236 94 56
0.26088 -0.60057 1.45956 236 94 56
0.26088 -0.54721 1.50929 236 94 56
0.26088 -0.60057 1.50929 236 94 56
0.25 -0.53576 1.52091 236 94 56
0.25 -0.61201 1.52091 236 94 56
-0.25 -0.61201 1.5212 236 94 56
-0.25 -0.53576 1.5212 236 94 56
-0.25 -0.61201 1.44313 236 94 56
-0.03907 -0.53576 1.44304 236 94 56
-0.03907 -0.53576 1.35168 236 94 56
-0.25 -0.53576 1.44313 236 94 56
-0.26088 -0.60057 1.45932 236 94 56
-0.26088 -0.54721 1.45932 236 94 56
-0.26088 -0.60057 1.50923 236 94 56
-0.26088 -0.54721 1.50923 236 94 56
-0.02986 -0.54474 1.34126 236 94 56
0.02986 -0.54474 1.34126 236 94 56
0.02986 -0.60303 1.34126 236 94 56
-0.02986 -0.60303 1.34126 236 94 56
-0.35797 -0.30962 0.46871 241 215 37
-0.35797 -0.30962 0.89529 241 215 37
-0.29997 -0.35965 0.89529 241 215 37
-0.29997 -0.35965 0.46871 241 215 37
-0.35797 0.35022 0.46871 241 215 37
-0.35797 0.35022 0.89529 241 215 37
-0.29997 0.40025 0.46871 241 215 37
-0.29997 0.40025 0.89529 241 215 37
-0.18547 -0.35965 0.46871 241 215 37
-0.18547 -0.35965 0.83489 241 215 37
0.29997 0.40025 0.89529 241 215 37
0.29997 0.40025 0.46871 241 215 37
-0.31024 0.30886 0.93619 241 215 37
-0.25998 0.35222 0.93619 241 215 37
0.25998 0.35222 0.93619 241 215 37
-0.31024 -0.26826 0.93619 241 215 37
-0.25998 -0.31162 0.93619 241 215 37
-0.18547 -0.31162 0.93619 241 215 37
-0.18547 -0.35965 0.89529 241 215 37
0.35797 0.35022 0.89529 241 215 37
0.35797 0.35022 0.46871 241 215 37
0.35797 -0.30962 0.46871 241 215 37
0.35797 -0.30962 0.89529 241 215 37
0.29997 -0.35965 0.89529 241 215 37
0.29997 -0.35965 0.46871 241 215 37
0.31024 -0.26826 0.93619 241 215 37
0.25998 -0.31162 0.93619 241 215 37
0.31024 0.30886 0.93619 241 215 37
0.31144 0.3099 0.42679 241 215 37
0.26098 0.35342 0.42679 241 215 37
-0.26098 0.35342 0.42679 241 215 37
-0.31144 0.3099 0.42679 241 215 37
-0.31144 -0.2693 0.42679 241 215 37
-0.26098 -0.31282 0.42679 241 215 37
-0.18547 -0.31282 0.42679 241 215 37
-0.18547 -0.2693 0.42679 241 215 37
-0.18547 0.00057 0.42679 241 215 37
0.18547 0.00057 0.42679 241 215 37
0.31144 -0.2693 0.42679 241 215 37
0.26098 -0.31282 0.42679 241 215 37
0.18547 -0.31282 0.42679 241 215 37
0.18547 -0.35965 0.46871 241 215 37
0.18547 -0.2693 0.42679 241 215 37
0.18547 -0.35965 0.83489 241 215 37
0.18547 -0.35965 0.89529 241 215 37
0.18547 -0.31162 0.93619 241 215 37
0.31024 -0.26826 0.93619 248 220 38
0.25998 -0.31162 0.93619 248 220 38
0.18547 -0.31162 0.93619 248 220 38
-0.18547 -0.31162 0.93619 248 220 38
-0.31024 -0.26826 0.93619 248 220 38
-0.25998 -0.31162 0.93619 248 220 38
-0.31024 0.30886 0.93619 248 220 38
0.31024 0.30886 0.93619 248 220 38
-0.25998 0.35222 0.93619 248 220 38
0.25998 0.35222 0.93619 248 220 38
-0.18547 -0.35965 0.89529 43 43 42
0.18547 -0.35965 0.89529 43 43 42
0.18547 -0.35965 0.83489 43 43 42
-0.18547 -0.35965 0.83489 43 43 42
-0.18547 -0.31162 0.93619 43 43 42
0.18547 -0.31162 0.93619 43 43 42
0.18547 -0.31282 0.42679 251 235 67
-0.18547 -0.31282 0.42679 251 235 67
-0.18547 -0.35965 0.46871 251 235 67
0.18547 -0.35965 0.46871 251 235 67
0.18547 -0.2693 0.42679 251 235 67
-0.18547 -0.2693 0.42679 251 235 67
-0.18547 0.00057 0.42679 251 235 67
0.18547 0.00057 0.42679 251 235 67
0.18547 -0.35965 0.83489 251 235 67
-0.18547 -0.35965 0.83489 251 235 67
0.10616 -0.39995 0.46941 251 235 67
0.10616 -0.39995 0.60861 251 235 67
0.24536 -0.39995 0.60861 251 235 67
0.24536 -0.39995 0.46941 251 235 67
0.10616 -0.35435 0.46941 251 235 67
0.24536 -0.35435 0.46941 251 235 67
0.24536 -0.35435 0.60861 251 235 67
0.10616 -0.39995 0.60861 255 241 92
0.10616 -0.35435 0.60861 255 241 92
0.24536 -0.35435 0.60861 255 241 92
0.24536 -0.39995 0.60861 255 241 92
0.10616 -0.35435 0.60861 251 235 67
0.34554 -0.10293 0.56819 251 235 67
0.34554 -0.10293 0.80156 251 235 67
0.36977 -0.10293 0.80156 251 235 67
0.36977 -0.10293 0.56819 251 235 67
0.36977 0.13043 0.80156 251 235 67
0.34554 0.13043 0.80156 251 235 67
0.36977 0.13043 0.56819 251 235 67
0.34554 0.13043 0.56819 251 235 67
0.36977 0.06871 0.63071 251 235 67
0.36977 -0.04121 0.63071 251 235 67
0.36977 0.06871 0.73903 251 235 67
0.36977 -0.04121 0.73903 251 235 67
0.34554 0.06871 0.63071 251 235 67
0.34554 -0.04121 0.63071 251 235 67
0.34554 0.06871 0.73903 251 235 67
0.34554 -0.04121 0.73903 251 235 67
-0.34554 -0.10293 0.56819 251 235 67
-0.36977 -0.10293 0.56819 251 235 67
-0.36977 -0.10293 0.80156 251 235 67
-0.34554 -0.10293 0.80156 251 235 67
-0.36977 0.13043 0.80156 251 235 67
-0.34554 0.13043 0.80156 251 235 67
-0.36977 0.13043 0.56819 251 235 67
-0.34554 0.13043 0.56819 251 235 67
-0.36977 0.06871 0.63071 251 235 67
-0.36977 -0.04121 0.63071 251 235 67
-0.36977 0.06871 0.73903 251 235 67
-0.36977 -0.04121 0.73903 251 235 67
-0.34554 0.06871 0.63071 251 235 67
-0.34554 -0.04121 0.63071 251 235 67
-0.34554 0.06871 0.73903 251 235 67
-0.34554 -0.04121 0.73903 251 235 67
-0.10616 -0.39995 0.46941 251 235 67
-0.24536 -0.39995 0.46941 251 235 67
-0.24536 -0.39995 0.60861 251 235 67
-0.10616 -0.39995 0.60861 251 235 67
-0.10616 -0.35435 0.46941 251 235 67
-0.24536 -0.35435 0.46941 251 235 67
-0.24536 -0.35435 0.60861 251 235 67
-0.10616 -0.39995 0.60861 255 241 92
-0.24536 -0.39995 0.60861 255 241 92
-0.24536 -0.35435 0.60861 255 241 92
-0.10616 -0.35435 0.60861 255 241 92
-0.10616 -0.35435 0.60861 251 235 67
-0.30376 -0.0677 0.0549 241 215 37
-0.30376 -0.0677 0.40367 241 215 37
-0.25455 -0.10621 0.40367 241 215 37
-0.25455 -0.10621 0.0549 241 215 37
-0.30376 0.50876 0.0549 241 215 37
-0.30376 0.50876 0.40367 241 215 37
-0.25455 0.54726 0.0549 241 215 37
-0.25455 0.54726 0.40367 241 215 37
-0.13184 -0.10621 0.0549 241 215 37
-0.13184 -0.10621 0.40367 241 215 37
-0.26427 -0.03667 0.01333 241 215 37
-0.22146 -0.07017 0.01333 241 215 37
-0.26427 0.47772 0.01333 241 215 37
-0.22146 0.51122 0.01333 241 215 37
-0.13184 -0.07017 0.01333 241 215 37
-0.13184 -0.03667 0.01333 241 215 37
-0.13184 0.17634 0.01333 241 215 37
-0.26461 0.47742 0.44025 241 215 37
-0.22174 0.51096 0.44025 241 215 37
0.25455 0.54726 0.40367 241 215 37
0.22174 0.51096 0.44025 241 215 37
0.30376 0.50876 0.40367 241 215 37
0.25455 0.54726 0.0549 241 215 37
0.13148 0.54726 0.0549 241 215 37
0.13148 0.54726 0.22928 241 215 37
0.30376 0.50876 0.0549 241 215 37
0.30376 -0.0677 0.0549 241 215 37
0.30376 -0.0677 0.40367 241 215 37
0.25455 -0.10621 0.40367 241 215 37
0.25455 -0.10621 0.0549 241 215 37
0.13148 0.51122 0.01333 241 215 37
0.22146 0.51122 0.01333 241 215 37
0.26427 0.47772 0.01333 241 215 37
0.13148 0.47772 0.01333 241 215 37
0.26427 -0.03667 0.01333 241 215 37
0.22146 -0.07017 0.01333 241 215 37
0.13184 -0.07017 0.01333 241 215 37
0.13184 -0.10621 0.0549 241 215 37
0.13184 -0.03667 0.01333 241 215 37
0.13184 0.17634 0.01333 241 215 37
0.13184 -0.10621 0.40367 241 215 37
0.26461 -0.03637 0.44025 241 215 37
0.22174 -0.06991 0.44025 241 215 37
0.26461 0.47742 0.44025 241 215 37
0.13182 -0.06991 0.44025 241 215 37
-0.13184 -0.10621 0.40367 251 235 67
0.13184 -0.10621 0.40367 251 235 67
0.13184 -0.10621 0.0549 251 235 67
-0.13184 -0.10621 0.0549 251 235 67
0.13184 -0.07017 0.01333 251 235 67
-0.13184 -0.07017 0.01333 251 235 67
0.13184 -0.03667 0.01333 251 235 67
-0.13184 -0.03667 0.01333 251 235 67
-0.13184 0.17634 0.01333 251 235 67
0.13184 0.17634 0.01333 251 235 67
-0.13176 -0.06991 0.44025 251 235 67
0.13182 -0.06991 0.44025 251 235 67
0.13148 0.47772 0.01333 251 235 67
-0.13148 0.47772 0.01333 251 235 67
0.13148 0.51122 0.01333 251 235 67
-0.13148 0.51122 0.01333 251 235 67
0.13148 0.54726 0.0549 251 235 67
-0.13148 0.54726 0.0549 251 235 67
0.13148 0.54726 0.22928 251 235 67
-0.13148 0.54726 0.22928 251 235 67
0.29789 0.1094 0.12061 251 235 67
0.29789 0.1094 0.3377 251 235 67
0.31683 0.1094 0.3377 251 235 67
0.31683 0.1094 0.12061 251 235 67
0.31683 0.32372 0.3377 251 235 67
0.29789 0.32372 0.3377 251 235 67
0.31683 0.32372 0.12061 251 235 67
0.29789 0.32372 0.12061 251 235 67
0.31683 0.26296 0.18322 251 235 67
0.31683 0.17017 0.18322 251 235 67
0.31683 0.26296 0.2751 251 235 67
0.31683 0.17017 0.2751 251 235 67
0.29789 0.26296 0.18322 251 235 67
0.29789 0.17017 0.18322 251 235 67
0.29789 0.26296 0.2751 251 235 67
0.29789 0.17017 0.2751 251 235 67
-0.29789 0.1094 0.12061 251 235 67
-0.31683 0.1094 0.12061 251 235 67
-0.31683 0.1094 0.3377 251 235 67
-0.29789 0.1094 0.3377 251 235 67
-0.31683 0.32372 0.3377 251 235 67
-0.29789 0.32372 0.3377 251 235 67
-0.31683 0.32372 0.12061 251 235 67
-0.29789 0.32372 0.12061 251 235 67
-0.31683 0.26296 0.18322 251 235 67
-0.31683 0.17017 0.18322 251 235 67
-0.31683 0.26296 0.2751 251 235 67
-0.31683 0.17017 0.2751 251 235 67
-0.29789 0.26296 0.18322 251 235 67
-0.29789 0.17017 0.18322 251 235 67
-0.29789 0.26296 0.2751 251 235 67
-0.29789 0.17017 0.2751 251 235 67
0.10905 -0.13585 0.05729 251 235 67
0.10905 -0.13585 0.18518 251 235 67
0.20831 -0.13585 0.18518 251 235 67
0.20831 -0.13585 0.05729 251 235 67
0.10905 -0.10333 0.05729 251 235 67
0.20831 -0.10333 0.05729 251 235 67
0.20831 -0.10333 0.18518 251 235 67
0.10905 -0.13585 0.18518 255 241 92
0.10905 -0.10333 0.18518 255 241 92
0.20831 -0.10333 0.18518 255 241 92
0.20831 -0.13585 0.18518 255 241 92
0.10905 -0.10333 0.18518 251 235 67
-0.10905 -0.13585 0.05729 251 235 67
-0.20831 -0.13585 0.05729 251 235 67
-0.20831 -0.13585 0.18518 251 235 67
-0.10905 -0.13585 0.18518 251 235 67
-0.10905 -0.10333 0.05729 251 235 67
-0.20831 -0.10333 0.05729 251 235 67
-0.20831 -0.10333 0.18518 251 235 67
-0.10905 -0.13585 0.18518 255 241 92
-0.20831 -0.13585 0.18518 255 241 92
-0.20831 -0.10333 0.18518 255 241 92
-0.10905 -0.10333 0.18518 255 241 92
-0.10905 -0.10333 0.18518 251 235 67
-0.13176 -0.06991 0.44025 248 220 38
-0.22174 -0.06991 0.44025 248 220 38
-0.26461 -0.03637 0.44025 248 220 38
0.13182 -0.06991 0.44025 248 220 38
0.26461 -0.03637 0.44025 248 220 38
0.26461 0.47742 0.44025 248 220 38
-0.26461 0.47742 0.44025 248 220 38
0.22174 0.51096 0.44025 248 220 38
-0.22174 0.51096 0.44025 248 220 38
0.22174 -0.06991 0.44025 248 220 38
-0.26461 -0.03637 0.44025 241 215 37
-0.22174 -0.06991 0.44025 241 215 37
-0.13176 -0.06991 0.44025 241 215 37
-0.13148 0.47772 0.01333 241 215 37
-0.13148 0.51122 0.01333 241 215 37
-0.13148 0.54726 0.0549 241 215 37
-0.13148 0.54726 0.22928 241 215 37
-0.20707 0.57084 0.10266 241 215 37
-0.20707 0.57084 0.36201 241 215 37
-0.17352 0.53454 0.36201 241 215 37
-0.17352 0.53454 0.10266 241 215 37
-0.20707 0.86959 0.10266 241 215 37
-0.20707 0.86959 0.36201 241 215 37
-0.17352 0.9059 0.10266 241 215 37
-0.17352 0.9059 0.36201 241 215 37
-0.07586 0.53454 0.10266 241 215 37
-0.1125 0.53454 0.36201 241 215 37
-0.17946 0.83958 0.39169 241 215 37
-0.15038 0.87104 0.39169 241 215 37
0.17352 0.9059 0.36201 241 215 37
0.15038 0.87104 0.39169 241 215 37
-0.17946 0.60085 0.39169 241 215 37
-0.15038 0.56939 0.39169 241 215 37
0.20707 0.86959 0.36201 241 215 37
0.17352 0.9059 0.10266 241 215 37
0.20707 0.86959 0.10266 241 215 37
0.20707 0.57084 0.10266 241 215 37
0.20707 0.57084 0.36201 241 215 37
0.17352 0.53454 0.36201 241 215 37
0.17352 0.53454 0.10266 241 215 37
0.17946 0.60085 0.39169 241 215 37
0.15038 0.56939 0.39169 241 215 37
0.17946 0.83958 0.39169 241 215 37
0.18015 0.84033 0.07224 241 215 37
0.15096 0.87192 0.07224 241 215 37
0.07586 0.87192 0.07224 241 215 37
0.07586 0.84033 0.07224 241 215 37
0.18015 0.6001 0.07224 241 215 37
0.15096 0.56852 0.07224 241 215 37
0.07586 0.56852 0.07224 241 215 37
0.07586 0.53454 0.10266 241 215 37
0.07586 0.6001 0.07224 241 215 37
0.1125 0.53454 0.36201 241 215 37
-0.07586 0.56852 0.07224 241 215 37
-0.15096 0.56852 0.07224 241 215 37
-0.18015 0.6001 0.07224 241 215 37
-0.18015 0.84033 0.07224 241 215 37
-0.15096 0.87192 0.07224 241 215 37
-0.07586 0.87192 0.07224 241 215 37
-0.07586 0.9059 0.10266 241 215 37
-0.07586 0.84033 0.07224 241 215 37
-0.07586 0.6001 0.07224 241 215 37
-0.07596 0.9059 0.32074 241 215 37
-0.05694 0.9059 0.33992 241 215 37
0.05694 0.9059 0.33992 241 215 37
0.07596 0.9059 0.32074 241 215 37
0.07586 0.9059 0.10266 241 215 37
0.17946 0.60085 0.39169 248 220 38
0.15038 0.56939 0.39169 248 220 38
-0.15038 0.56939 0.39169 248 220 38
-0.17946 0.60085 0.39169 248 220 38
-0.17946 0.83958 0.39169 248 220 38
0.17946 0.83958 0.39169 248 220 38
-0.15038 0.87104 0.39169 248 220 38
0.15038 0.87104 0.39169 248 220 38
-0.07586 0.87192 0.07224 251 235 67
0.07586 0.87192 0.07224 251 235 67
0.07586 0.9059 0.10266 251 235 67
-0.07586 0.9059 0.10266 251 235 67
-0.07586 0.84033 0.07224 251 235 67
0.07586 0.84033 0.07224 251 235 67
-0.07586 0.6001 0.07224 251 235 67
0.07586 0.6001 0.07224 251 235 67
-0.07586 0.56852 0.07224 251 235 67
0.07586 0.56852 0.07224 251 235 67
-0.07586 0.53454 0.10266 251 235 67
0.07586 0.53454 0.10266 251 235 67
0.07596 0.9059 0.32074 251 235 67
-0.07596 0.9059 0.32074 251 235 67
-0.05694 0.9059 0.33992 251 235 67
0.05694 0.9059 0.33992 251 235 67
0.20407 0.65233 0.16993 251 235 67
0.20407 0.65233 0.30655 251 235 67
0.22062 0.65233 0.30655 251 235 67
0.22062 0.65233 0.16993 251 235 67
0.22062 0.79062 0.30655 251 235 67
0.20407 0.79062 0.30655 251 235 67
0.22062 0.79062 0.16993 251 235 67
0.20407 0.79062 0.16993 251 235 67
0.22062 0.74907 0.21127 251 235 67
0.22062 0.69388 0.21127 251 235 67
0.22062 0.74907 0.26521 251 235 67
0.22062 0.69388 0.26521 251 235 67
0.20407 0.74907 0.21127 251 235 67
0.20407 0.69388 0.21127 251 235 67
0.20407 0.74907 0.26521 251 235 67
0.20407 0.69388 0.26521 251 235 67
-0.20313 0.65233 0.16993 251 235 67
-0.21968 0.65233 0.16993 251 235 67
-0.21968 0.65233 0.30655 251 235 67
-0.20313 0.65233 0.30655 251 235 67
-0.21968 0.79062 0.30655 251 235 67
-0.20313 0.79062 0.30655 251 235 67
-0.21968 0.79062 0.16993 251 235 67
-0.20313 0.79062 0.16993 251 235 67
-0.21968 0.74907 0.21127 251 235 67
-0.21968 0.69388 0.21127 251 235 67
-0.21968 0.74907 0.26521 251 235 67
-0.21968 0.69388 0.26521 251 235 67
-0.20313 0.74907 0.21127 251 235 67
-0.20313 0.69388 0.21127 251 235 67
-0.20313 0.74907 0.26521 251 235 67
-0.20313 0.69388 0.26521 251 235 67
-0.06468 0.71699 0.38113 251 235 67
-0.06468 0.71699 0.43872 251 235 67
0.06468 0.71699 0.43872 251 235 67
0.06468 0.71699 0.38113 251 235 67
0.06468 0.84471 0.43872 251 235 67
0.06468 0.84471 0.38113 251 235 67
-0.06468 0.84471 0.43872 251 235 67
-0.06468 0.84471 0.38113 251 235 67
-0.08288 0.88542 0.45851 251 235 67
0.08288 0.88542 0.45851 251 235 67
-0.08288 0.88542 0.71951 251 235 67
0.08288 0.88542 0.71951 251 235 67
0.10717 0.85177 0.45851 251 235 67
0.10717 0.85177 0.71951 251 235 67
0.10717 0.70993 0.45851 251 235 67
0.10717 0.70993 0.71951 251 235 67
0.08288 0.67628 0.71951 251 235 67
0.08288 0.67628 0.45851 251 235 67
-0.08288 0.67628 0.45851 251 235 67
-0.10717 0.70993 0.45851 251 235 67
-0.10717 0.70993 0.71951 251 235 67
-0.10717 0.85177 0.45851 251 235 67
-0.10717 0.85177 0.71951 251 235 67
-0.08288 0.67628 0.71951 251 235 67
-0.08574 0.83758 0.74631 251 235 67
-0.0663 0.86451 0.74631 251 235 67
-0.08574 0.72412 0.74631 251 235 67
-0.0663 0.69719 0.74631 251 235 67
0.0663 0.69719 0.74631 251 235 67
0.08574 0.72412 0.74631 251 235 67
0.08574 0.83758 0.74631 251 235 67
0.0663 0.86451 0.74631 251 235 67
-0.0663 0.86451 0.74631 255 241 92
0.0663 0.86451 0.74631 255 241 92
0.08574 0.83758 0.74631 255 241 92
-0.08574 0.83758 0.74631 255 241 92
-0.08574 0.72412 0.74631 255 241 92
0.08574 0.72412 0.74631 255 241 92
-0.0663 0.69719 0.74631 255 241 92
0.0663 0.69719 0.74631 255 241 92
3 0 2 1
3 0 3 2
3 4 0 1
3 4 1 5
3 5 6 4
3 5 7 6
3 7 5 8
3 7 8 9
3 5 10 8
3 5 1 10
3 1 11 10
3 1 2 11
3 2 12 11
3 2 13 12
3 3 0 14
3 3 14 15
3 0 16 14
3 0 4 16
3 4 17 16
3 4 6 17
3 18 16 17
3 18 17 19
3 20 15 14
3 20 21 15
3 21 3 15
3 21 22 3
3 23 3 22
3 24 14 16
3 24 20 14
3 18 24 16
3 18 25 24
3 18 26 25
3 18 27 26
3 28 27 18
3 29 28 18
3 29 30 28
3 31 28 30
3 28 31 27
3 31 30 32
3 13 31 32
3 13 33 31
3 29 34 30
3 6 34 29
3 6 7 34
3 34 7 9
3 34 9 35
3 30 34 35
3 13 32 36
3 13 36 12
3 32 37 36
3 32 30 37
3 30 35 37
3 6 29 19
3 6 19 17
3 29 18 19
3 31 33 38
3 33 39 38
3 33 40 39
3 38 39 26
3 38 26 27
3 31 38 27
3 33 41 40
3 13 41 33
3 13 42 41
3 13 43 42
3 44 46 45
3 44 47 46
3 45 46 48
3 45 48 49
3 50 47 44
3 50 51 47
3 52 54 53
3 52 55 54
3 52 53 56
3 52 56 57
3 57 56 58
3 57 58 59
3 2 61 60
3 2 60 43
3 2 43 13
3 2 23 61
3 2 3 23
3 62 64 63
3 65 63 64
3 66 65 67
3 66 67 68
3 69 66 68
3 69 68 70
3 65 71 67
3 67 71 72
3 71 73 72
3 65 64 71
3 74 76 75
3 74 77 76
3 77 78 76
3 77 79 78
3 80 74 75
3 80 75 81
3 82 80 81
3 82 81 83
3 79 84 78
3 79 85 84
3 85 86 84
3 85 87 86
3 87 88 86
3 87 89 88
3 89 83 88
3 89 82 83
3 90 92 91
3 90 93 92
3 93 94 92
3 93 95 94
3 95 96 94
3 95 97 96
3 97 98 96
3 97 99 98
3 99 100 98
3 99 101 100
3 101 102 100
3 101 103 102
3 104 90 91
3 104 91 105
3 103 105 102
3 103 104 105
3 106 99 97
3 106 107 99
3 107 101 99
3 107 108 101
3 108 103 101
3 108 109 103
3 109 104 103
3 109 110 104
3 110 90 104
3 110 111 90
3 112 114 113
3 112 115 114
3 115 116 114
3 115 117 116
3 117 118 116
3 117 119 118
3 119 120 118
3 119 121 120
3 121 122 120
3 121 123 122
3 123 124 122
3 123 125 124
3 125 126 124
3 125 127 126
3 127 113 126
3 127 112 113
3 128 130 129
3 128 131 130
3 131 132 130
3 131 133 132
3 133 134 132
3 133 135 134
3 136 138 137
3 136 139 138
3 137 138 140
3 137 140 141
3 141 140 142
3 141 142 143
3 143 139 136
3 143 142 139
3 139 142 144
3 139 144 145
3 138 139 145
3 142 146 144
3 142 140 146
3 140 147 146
3 140 138 147
3 138 145 147
3 148 150 149
3 148 151 150
3 152 154 153
3 152 155 154
3 155 156 154
3 155 157 156
3 157 158 156
3 157 159 158
3 159 153 158
3 159 152 153
3 153 154 160
3 153 160 161
3 158 153 161
3 154 162 160
3 154 156 162
3 156 163 162
3 156 158 163
3 158 161 163
3 164 166 165
3 164 167 166
3 167 168 166
3 167 169 168
3 169 170 168
3 169 171 170
3 171 165 170
3 171 164 165
3 165 172 170
3 165 173 172
3 166 173 165
3 170 174 168
3 170 172 174
3 168 175 166
3 168 174 175
3 166 175 173
3 176 178 177
3 176 179 178
3 180 182 181
3 180 183 182
3 181 182 184
3 181 184 185
3 185 184 186
3 185 186 187
3 187 183 180
3 187 186 183
3 183 188 182
3 183 189 188
3 186 189 183
3 182 190 184
3 182 188 190
3 184 191 186
3 184 190 191
3 186 191 189
3 192 194 193
3 192 195 194
3 195 196 194
3 195 197 196
3 194 196 198
3 194 198 199
3 199 198 200
3 199 200 201
3 201 200 202
3 198 202 200
3 201 202 203
3 198 204 202
3 204 203 202
3 204 205 203
3 205 201 203
3 205 199 201
3 205 194 199
3 206 194 205
3 206 193 194
3 204 206 205
3 204 207 206
3 206 208 193
3 209 193 208
3 210 193 209
3 210 192 193
3 209 208 211
3 211 208 212
3 211 212 213
3 213 212 214
3 208 214 212
3 208 206 214
3 213 214 215
3 206 215 214
3 206 207 215
3 207 213 215
3 207 211 213
3 192 210 216
3 210 217 216
3 210 197 217
3 197 218 217
3 216 217 218
3 216 218 219
3 197 195 218
3 195 219 218
3 195 192 219
3 192 216 219
3 220 222 221
3 220 223 222
3 224 220 221
3 224 221 225
3 225 226 224
3 225 227 226
3 222 223 228
3 222 228 229
3 226 227 230
3 226 230 231
3 227 225 232
3 227 232 233
3 233 230 227
3 233 234 230
3 225 235 232
3 225 221 235
3 221 236 235
3 221 222 236
3 222 237 236
3 222 238 237
3 222 229 238
3 239 230 234
3 231 230 239
3 231 239 240
3 241 240 239
3 241 239 242
3 243 241 242
3 243 244 241
3 243 242 245
3 243 245 246
3 242 247 245
3 242 239 247
3 239 234 247
3 231 240 248
3 231 248 249
3 250 231 249
3 250 226 231
3 224 226 250
3 224 250 251
3 250 248 251
3 250 249 248
3 220 224 251
3 220 251 252
3 223 220 252
3 223 252 253
3 254 223 253
3 254 228 223
3 255 253 252
3 255 254 253
3 251 255 252
3 248 256 251
3 251 256 255
3 248 257 256
3 258 257 248
3 240 258 248
3 240 241 258
3 241 259 258
3 241 244 259
3 244 260 259
3 244 261 260
3 259 262 258
3 259 260 262
3 258 262 257
3 243 261 244
3 243 263 261
3 264 263 243
3 265 264 243
3 265 243 246
3 266 268 267
3 269 268 266
3 269 266 270
3 269 270 271
3 266 272 270
3 266 273 272
3 273 274 272
3 273 275 274
3 276 278 277
3 276 279 278
3 280 276 277
3 280 277 281
3 282 284 283
3 282 285 284
3 286 282 283
3 286 283 287
3 288 286 287
3 288 289 286
3 290 284 285
3 290 291 284
3 292 294 293
3 292 295 294
3 296 295 292
3 296 297 295
3 295 298 294
3 295 297 298
3 299 301 300
3 299 302 301
3 296 293 303
3 296 292 293
3 304 306 305
3 304 307 306
3 305 306 308
3 305 308 309
3 309 308 310
3 309 310 311
3 311 307 304
3 311 310 307
3 307 310 312
3 307 312 313
3 306 307 313
3 310 314 312
3 310 308 314
3 308 315 314
3 308 306 315
3 306 313 315
3 313 312 316
3 313 316 317
3 315 313 317
3 312 318 316
3 312 314 318
3 314 319 318
3 314 315 319
3 315 317 319
3 320 322 321
3 320 323 322
3 323 324 322
3 323 325 324
3 325 326 324
3 325 327 326
3 327 321 326
3 327 320 321
3 321 328 326
3 321 329 328
3 322 329 321
3 326 330 324
3 326 328 330
3 324 331 322
3 324 330 331
3 322 331 329
3 329 332 328
3 329 333 332
3 331 333 329
3 328 334 330
3 328 332 334
3 330 335 331
3 330 334 335
3 331 335 333
3 336 338 337
3 336 339 338
3 340 336 337
3 340 337 341
3 337 342 341
3 337 338 342
3 343 345 344
3 343 346 345
3 340 339 336
3 340 347 339
3 348 350 349
3 348 351 350
3 352 348 349
3 352 349 353
3 353 354 352
3 353 355 354
3 350 351 356
3 350 356 357
3 351 348 358
3 351 358 359
3 348 360 358
3 348 352 360
3 352 361 360
3 352 354 361
3 362 351 359
3 362 356 351
3 363 359 358
3 363 362 359
3 360 363 358
3 360 364 363
3 355 353 365
3 355 365 366
3 367 355 366
3 367 366 368
3 369 367 368
3 370 367 369
3 371 367 370
3 371 372 367
3 370 369 373
3 374 373 369
3 374 369 375
3 376 374 375
3 376 377 374
3 378 371 370
3 378 370 379
3 380 378 379
3 370 380 379
3 370 373 380
3 380 381 378
3 373 382 380
3 373 374 382
3 374 383 382
3 374 377 383
3 377 384 383
3 377 385 384
3 383 386 382
3 383 384 386
3 382 387 380
3 382 386 387
3 387 381 380
3 388 377 376
3 388 385 377
3 376 375 389
3 376 389 390
3 390 388 376
3 375 391 389
3 390 392 388
3 375 369 391
3 369 368 391
3 393 395 394
3 393 396 395
3 397 395 396
3 397 396 398
3 399 397 398
3 399 398 400
3 401 399 400
3 401 402 399
3 394 403 393
3 394 404 403
3 401 405 402
3 401 406 405
3 407 405 406
3 407 406 408
3 408 409 407
3 408 410 409
3 410 411 409
3 410 412 411
3 413 415 414
3 413 416 415
3 414 415 417
3 414 417 418
3 418 417 419
3 418 419 420
3 420 416 413
3 420 419 416
3 416 419 421
3 416 421 422
3 415 416 422
3 419 423 421
3 419 417 423
3 417 424 423
3 417 415 424
3 415 422 424
3 422 421 425
3 422 425 426
3 424 422 426
3 421 427 425
3 421 423 427
3 423 428 427
3 423 424 428
3 424 426 428
3 429 431 430
3 429 432 431
3 432 433 431
3 432 434 433
3 434 435 433
3 434 436 435
3 436 430 435
3 436 429 430
3 430 437 435
3 430 438 437
3 431 438 430
3 435 439 433
3 435 437 439
3 433 440 431
3 433 439 440
3 431 440 438
3 438 441 437
3 438 442 441
3 440 442 438
3 437 443 439
3 437 441 443
3 439 444 440
3 439 443 444
3 440 444 442
3 445 447 446
3 445 448 447
3 449 448 445
3 449 450 448
3 448 451 447
3 448 450 451
3 452 454 453
3 452 455 454
3 449 446 456
3 449 445 446
3 457 459 458
3 457 460 459
3 461 457 458
3 461 458 462
3 458 463 462
3 458 459 463
3 464 466 465
3 464 467 466
3 461 460 457
3 461 468 460
3 469 471 470
3 472 471 469
3 472 473 471
3 471 473 474
3 471 474 475
3 475 474 476
3 475 476 477
3 478 473 472
3 353 479 365
3 353 349 479
3 349 480 479
3 349 350 480
3 357 480 350
3 357 481 480
3 360 482 364
3 483 482 360
3 483 360 361
3 354 483 361
3 354 484 483
3 354 485 484
3 354 355 485
3 355 372 485
3 355 367 372
3 486 488 487
3 486 489 488
3 490 486 487
3 490 487 491
3 491 492 490
3 491 493 492
3 488 489 494
3 488 494 495
3 493 491 496
3 493 496 497
3 497 498 493
3 497 499 498
3 491 500 496
3 491 487 500
3 487 501 500
3 487 488 501
3 501 488 495
3 502 498 499
3 503 498 502
3 503 502 504
3 505 504 502
3 505 502 506
3 507 505 506
3 507 508 505
3 507 506 509
3 507 509 510
3 506 511 509
3 506 502 511
3 502 499 511
3 503 504 512
3 503 512 513
3 512 514 513
3 514 503 513
3 512 515 514
3 504 516 512
3 504 505 516
3 516 515 512
3 505 517 516
3 505 508 517
3 508 518 517
3 508 519 518
3 517 520 516
3 517 518 520
3 516 520 515
3 521 508 507
3 521 519 508
3 510 521 507
3 495 519 521
3 495 494 519
3 501 495 521
3 501 521 510
3 522 494 489
3 522 489 523
3 489 524 523
3 489 486 524
3 486 525 524
3 486 490 525
3 490 526 525
3 490 492 526
3 492 527 526
3 527 525 526
3 492 528 527
3 527 529 525
3 529 524 525
3 530 523 524
3 530 522 523
3 529 530 524
3 492 493 528
3 493 531 528
3 493 532 531
3 493 533 532
3 493 498 533
3 533 498 534
3 535 534 498
3 535 498 503
3 514 535 503
3 536 538 537
3 536 539 538
3 536 540 539
3 536 541 540
3 541 542 540
3 541 543 542
3 544 546 545
3 544 547 546
3 545 548 544
3 545 549 548
3 549 550 548
3 549 551 550
3 551 552 550
3 551 553 552
3 553 554 552
3 553 555 554
3 547 556 546
3 547 557 556
3 556 557 558
3 556 558 559
3 560 562 561
3 560 563 562
3 561 562 564
3 561 564 565
3 565 564 566
3 565 566 567
3 567 563 560
3 567 566 563
3 563 566 568
3 563 568 569
3 562 563 569
3 566 570 568
3 566 564 570
3 564 571 570
3 564 562 571
3 562 569 571
3 569 568 572
3 569 572 573
3 571 569 573
3 568 574 572
3 568 570 574
3 570 575 574
3 570 571 575
3 571 573 575
3 576 578 577
3 576 579 578
3 579 580 578
3 579 581 580
3 581 582 580
3 581 583 582
3 583 577 582
3 583 576 577
3 577 584 582
3 577 585 584
3 578 585 577
3 582 586 580
3 582 584 586
3 580 587 578
3 580 586 587
3 578 587 585
3 585 588 584
3 585 589 588
3 587 589 585
3 584 590 586
3 584 588 590
3 586 591 587
3 586 590 591
3 587 591 589
3 592 594 593
3 592 595 594
3 595 596 594
3 595 597 596
3 598 596 597
3 598 597 599
3 596 598 600
3 596 600 601
3 601 600 602
3 601 602 603
3 601 604 596
3 601 605 604
3 601 603 605
3 606 604 605
3 596 606 594
3 596 604 606
3 606 605 607
3 608 606 607
3 608 609 606
3 594 606 609
3 593 594 609
3 593 609 610
3 611 593 610
3 610 612 611
3 613 611 612
3 613 593 611
3 613 612 614
3 610 615 612
3 610 608 615
3 610 609 608
3 602 613 614
3 602 600 613
3 602 614 616
3 602 616 617
3 614 618 616
3 614 612 618
3 612 619 618
3 612 615 619
3 615 620 619
3 615 608 620
3 608 621 620
3 608 607 621
3 607 622 621
3 607 605 622
3 605 623 622
3 605 603 623
3 603 617 623
3 603 602 617
3 600 598 613
3 613 598 593
3 599 593 598
3 599 592 593
3 624 626 625
3 624 627 626
3 626 627 628
3 626 628 629
3 629 628 630
3 629 630 631
