mtllib Hitmonchan.mtl
v -0.231321 0.343158 0.128176
vt 0.788807 0.983769
vn -0.779289 0.0728234 0.622419
v -0.0843138 0.300921 0.121866
vt 0.788806 0.613061
vn 0.08508398 0.2821809 0.9555808
v -0.161271 0.399741 0.0298466
vn -0.4985348 0.8559156 0.1373739
v -0.0891794 0.232534 0.133663
vn -0.4239138 -0.134582 0.8956477
v -0.15069 0.330853 -0.0195877
vn -0.749921 0.0121926 -0.661415
v -0.16962 0.232534 0
vn -0.9867114 -0.1415011 -0.07986243
v -0.0895413 0.150052 -0.13487
vt -0.454247 0.373548
vn -0.3228029 -0.4353948 -0.8403746
v 0.0891797 0.232534 -0.13817
vt 0.452413 0.56795
vn 0.322405 0.115564 -0.9395211
v 0.0895417 0.150052 -0.13487
vt 0.454249 0.373548
vn 0.3228039 -0.4353939 -0.8403748
v -0.0891794 0.232534 -0.13817
vt -0.452411 0.56795
vn -0.322405 0.115564 -0.9395211
vt -0.980484 0.56795
v -0.171692 0.150052 0
vt -0.992466 0.373548
vn -0.9747264 -0.2234021 -0.0002561031
v -0.0908661 1.490116E-08 0
vt -0.460968 0.00410901
vn 0.0168965 -0.999852 -0.00323388
v 0 0.150247 0
vt 0 0.308798
vn 0 -0.9999998 -0.0006299209
v 0.16962 0.232534 0
vt 0.980485 0.56795
vn 0.9867116 -0.1415 -0.07986167
v 0.0908661 1.490116E-08 0
vt 0.460968 0.00410901
vn -0.016897 -0.999852 -0.00323385
v 0.171693 0.150052 0
vt 0.992468 0.373548
vn 0.9747261 -0.223403 -0.00025578
v -0.0895413 0.150052 0.13309
vn -0.3144 -0.4195459 0.851548
v 0.0895416 0.150052 0.13309
vn 0.3144011 -0.4195462 0.8515474
v 0.0891797 0.232534 0.133663
vn 0.4262591 -0.136421 0.8942552
vt -0.427728 0.744996
v 0.0843141 0.300921 0.121866
vt 0.427729 0.744996
vn -0.08896681 0.286335 0.9539901
v -0.0658802 0.429172 0.0964632
vt -0.32578 0.984412
vn 0.0704518 0.8213329 0.566082
v 0.0658805 0.429172 0.0964632
vt 0.325781 0.984412
vn -0.07259707 0.8379436 0.5409068
v 0 0.455856 0
vt 0 0.94565
vn 0 0.9999998 0.0007049198
v 0.0658805 0.429172 -0.0982492
vn 0.151344 0.5059919 -0.8491568
v -0.0658801 0.429172 -0.0982492
vn -0.151344 0.5059912 -0.8491572
v 0.231321 0.343158 0.128176
vn 0.779289 0.0728237 0.622419
v 0.15069 0.330853 -0.0195877
vn 0.7499219 0.0121926 -0.661414
v 0.161271 0.399741 0.0298466
vn 0.4985359 0.8559149 0.137374
v 0.420369 0.336074 0.129308
vt 0.0570861 0.0330794
vn 0.9387478 0 -0.3446049
v 0.335787 0.218925 0.119809
vn 0.3245739 -0.8506508 -0.4135759
v 0.306456 0.336074 0.0399087
vn 0.1115969 0 -0.9937536
v 0.383245 0.263672 0.249091
vn 0.6691793 -0.5257312 0.5251722
v 0.335787 0.453224 0.119809
vn 0.324574 0.8506511 -0.4135751
v 0.383245 0.408477 0.249091
vn 0.6691793 0.5257312 0.5251722
v 0.19893 0.263672 0.10444
vn -0.6691793 -0.5257312 -0.5251722
v 0.246388 0.218925 0.233722
vn -0.324574 -0.8506511 0.4135751
v 0.246388 0.453224 0.233722
vn -0.3245739 0.8506508 0.4135759
v 0.19893 0.408477 0.10444
vn -0.6691793 0.5257312 -0.5251722
v 0.275719 0.336074 0.313623
vn -0.1115969 0 0.9937536
v 0.161806 0.336074 0.224224
vn -0.9387478 0 0.3446049
v -0.420369 0.336074 0.129308
vn -0.9387478 0 -0.3446049
v -0.306456 0.336074 0.0399087
vn -0.1115969 0 -0.9937536
v -0.335787 0.218925 0.119809
vn -0.3245739 -0.8506508 -0.4135759
v -0.335787 0.453224 0.119809
vn -0.3245739 0.8506508 -0.4135759
v -0.383245 0.263672 0.249091
vn -0.6691793 -0.5257312 0.5251722
v -0.383245 0.408477 0.249091
vn -0.6691793 0.5257312 0.5251722
v -0.19893 0.263672 0.10444
vn 0.6691793 -0.5257312 -0.5251722
v -0.19893 0.408477 0.10444
vn 0.6691793 0.5257312 -0.5251722
v -0.275719 0.336074 0.313623
vn 0.1115969 0 0.9937536
v -0.246388 0.218925 0.233722
vn 0.324574 -0.8506511 0.4135751
v -0.246388 0.453224 0.233722
vn 0.3245739 0.8506508 0.4135759
v -0.161806 0.336074 0.224224
vn 0.9387478 0 0.3446049
v -0.279271 0.476843 0.018362
vt 0.692011 1.02798
vn -0.09851943 0.9805352 -0.169837
vt 0.69893 0.622818
vt 0.714577 0.622818
v -0.17844 0.3755 0.126347
vt 0.70294 0.93247
vn -0.03681128 0.5439548 0.8383067
vt 0.71934 0.622818
vt 0.723909 0.622818
vn -0.573389 -0.812008 0.108941
vn -0.5486817 -0.8355656 0.02790149
vn -0.438601 -0.567449 0.6968721
vn -0.5626907 -0.7725537 -0.2941769
vn -0.6021963 -0.7423894 -0.2936282
vn 0.573389 -0.812008 0.108941
vn 0.438601 -0.567449 0.6968721
v 0.279272 0.476843 0.018362
vn 0.5486817 -0.8355656 0.02790189
v 0.17844 0.3755 0.126347
vn 0.56269 -0.772554 -0.294177
vn 0.6021957 -0.7423897 -0.2936289
vn 0.09851922 0.9805352 -0.169837
vn 0.03681149 0.5439548 0.8383067
vt 0.287848 0.568671
vt 0.287848 0.979147
vt -0.390716 0.818691
vt -0.202316 0.56795
vt -0.408033 0.56795
vt -0.321425 0.984412
vt 0.202317 0.56795
vt 0.390717 0.818691
vt 0.408993 0.56795
vt 0.321427 0.984412
vt 0.296446 0.401057
vt 0.226849 0.530588
vt 0.366044 0.530588
o merged_0_0_node
g polygon_0
usemtl mat_body2_mat_id
f 1/1/1 2/2/2 3/2/3
f 1/1/1 4/2/4 2/2/2
f 1/1/1 3/2/3 5/2/5
f 1/1/1 6/2/6 4/2/4
f 1/1/1 5/2/5 6/2/6
f 7/3/7 8/4/8 9/5/9
f 7/3/7 10/6/10 8/4/8
f 7/3/7 6/7/6 10/6/10
f 7/3/7 11/8/11 6/7/6
f 7/3/7 12/9/12 11/8/11
f 7/3/7 13/10/13 12/9/12
f 9/5/9 8/4/8 14/11/14
f 9/5/9 15/12/15 13/10/13
f 9/5/9 14/11/14 16/13/16
f 9/5/9 16/13/16 15/12/15
f 6/7/6 11/8/11 17/3/17
f 6/7/6 17/3/17 4/6/4
f 12/9/12 13/10/13 17/3/17
f 12/9/12 17/3/17 11/8/11
f 14/11/14 18/5/18 16/13/16
f 14/11/14 19/4/19 18/5/18
f 18/5/18 13/10/13 15/12/15
f 18/5/18 4/6/4 17/3/17
f 18/5/18 15/12/15 16/13/16
f 18/5/18 19/4/19 4/6/4
f 19/4/19 2/14/2 4/6/4
f 19/4/19 20/15/20 2/14/2
f 20/15/20 21/16/21 2/14/2
f 20/15/20 22/17/22 21/16/21
f 22/17/22 23/18/23 21/16/21
f 22/17/22 24/17/24 23/18/23
f 21/16/21 23/18/23 25/16/25
f 25/16/25 23/18/23 24/17/24
f 26/1/26 19/2/19 14/2/14
f 26/1/26 20/2/20 19/2/19
f 26/1/26 14/2/14 27/2/27
f 26/1/26 28/2/28 20/2/20
f 26/1/26 27/2/27 28/2/28
f 29/19/29 30/19/30 31/19/31
f 29/19/29 32/19/32 30/19/30
f 29/19/29 31/19/31 33/19/33
f 29/19/29 34/19/34 32/19/32
f 29/19/29 33/19/33 34/19/34
f 30/19/30 35/19/35 31/19/31
f 30/19/30 32/19/32 36/19/36
f 30/19/30 36/19/36 35/19/35
f 33/19/33 37/19/37 34/19/34
f 33/19/33 31/19/31 38/19/38
f 33/19/33 38/19/38 37/19/37
f 31/19/31 35/19/35 38/19/38
f 32/19/32 39/19/39 36/19/36
f 32/19/32 34/19/34 39/19/39
f 34/19/34 37/19/37 39/19/39
f 35/19/35 40/19/40 38/19/38
f 35/19/35 36/19/36 40/19/40
f 40/19/40 39/19/39 37/19/37
f 40/19/40 37/19/37 38/19/38
f 40/19/40 36/19/36 39/19/39
f 41/19/41 42/19/42 43/19/43
f 41/19/41 44/19/44 42/19/42
f 41/19/41 43/19/43 45/19/45
f 41/19/41 46/19/46 44/19/44
f 41/19/41 45/19/45 46/19/46
f 42/19/42 47/19/47 43/19/43
f 42/19/42 44/19/44 48/19/48
f 42/19/42 48/19/48 47/19/47
f 45/19/45 49/19/49 46/19/46
f 45/19/45 43/19/43 50/19/50
f 45/19/45 50/19/50 49/19/49
f 43/19/43 47/19/47 50/19/50
f 44/19/44 51/19/51 48/19/48
f 44/19/44 46/19/46 51/19/51
f 46/19/46 49/19/49 51/19/51
f 47/19/47 52/19/52 50/19/50
f 47/19/47 48/19/48 52/19/52
f 52/19/52 49/19/49 50/19/50
f 52/19/52 51/19/51 49/19/49
f 52/19/52 48/19/48 51/19/51
f 53/20/53 25/21/25 5/22/5
f 53/20/53 21/21/21 25/21/25
f 53/20/53 54/23/54 21/21/21
f 54/23/54 2/24/2 21/21/21
f 3/25/55 53/20/56 5/22/57
f 3/25/55 54/23/58 53/20/56
f 3/25/55 2/24/59 54/23/58
f 28/25/60 27/22/61 55/20/62
f 28/25/60 55/20/62 56/23/63
f 28/25/60 56/23/63 20/24/64
f 55/20/65 27/22/27 24/21/24
f 55/20/65 24/21/24 22/21/22
f 55/20/65 22/21/22 56/23/66
f 22/21/22 20/24/20 56/23/66
f 10/26/10 24/27/24 8/26/8
f 10/26/10 25/27/25 24/27/24
f 5/28/5 10/29/10 6/30/6
f 5/28/5 25/31/25 10/29/10
f 8/32/8 27/33/27 14/34/14
f 8/32/8 24/35/24 27/33/27
f 13/36/13 7/37/7 9/38/9
f 13/36/13 18/38/18 17/37/17
v 0.244036 0.5714971 0.0427
vt 0.963759 0.8091
vn 0.8999172 -0.4314401 -0.06331261
v 0.294958 0.6954781 0.0922182
vn 0.9399694 -0.1779871 0.2911671
v 0.1517 0.475423 0.205075
vn 0.6747968 -0.6280078 0.3876279
v 0.242926 0.652714 0.121465
vn 0.5515757 0.5458277 -0.6307427
v 0.137565 0.454621 0.0378455
vn 0.4943532 -0.8520523 -0.1721101
v 0.23473 0.73032 0.050804
vn 0.9166204 0.3969622 -0.04720212
v 0.150822 0.5340691 -0.105954
vn 0.5533899 -0.5542309 -0.6217619
v 0.222585 0.6690401 -0.0794916
vn 0.8482386 0.05745248 -0.5264888
v 0.144125 0.565323 0.278732
vn 0.5855579 -0.177103 0.7910478
v 0.250695 0.776857 0.124823
vn -0.45266 0.0524034 -0.890142
v 0.190784 0.678468 0.237587
vn 0.5780399 0.16644 0.7988539
vn 0.7036622 0.3063121 0.6411182
v 0 0.444276 -0.0568161
vn -7.44796E-06 -0.9051281 -0.425139
v 0.0514 0.4219 0.1756
vn 0.1801351 -0.9689364 0.1694511
v 0.150822 0.806579 -0.079419
vn 0.5623538 0.6622897 -0.4951068
v 0.1932 0.737154 0.148219
vn 0.796186 0.497036 0.345026
v 0.140987 0.858059 0.0795807
vn 0.4617119 0.8848588 0.06202438
vn -0.4059148 0.05008378 -0.9125376
vn -0.3384509 0.7907218 0.5101079
v 0 0.553001 -0.176213
vn 0 -0.4752889 -0.8798298
v 0.0932134 0.679358 -0.185461
vn 0.3586588 0.09046675 -0.9290746
v -0.051414 0.42192 0.175639
vn -0.180158 -0.9689229 0.169504
v 0.107257 0.832828 0.162907
vn 0.4195999 0.7708717 0.4792628
v 0 0.8852071 -0.0138813
vn -0.00032445 0.9837271 -0.179669
v 0.00372113 0.8388361 0.197238
vn 0.00199272 0.9447242 0.3278601
v 0.0754112 0.780846 0.224702
vn 0.3551249 0.3890058 0.8500357
v 0 0.7394611 0.289219
vn 0 0.3119739 0.9500907
v 0.163864 0.9558771 0.12912
vn 0.331911 0.371272 0.8671749
v 0.21951 0.910907 0.119634
vn 0.5341409 0.329139 0.7786919
vn 0.9835443 -0.162068 -0.07984112
v -0.0932134 0.679358 -0.185461
vn -0.3586588 0.09046686 -0.9290746
v -0.150822 0.5340691 -0.105954
vn -0.5534202 -0.5542262 -0.6217391
v -0.137565 0.454621 0.0378454
vn -0.4943561 -0.8520512 -0.172107
v -0.1517 0.4754 0.2051
vn -0.6748163 -0.6279863 0.3876292
v 0 0.8015571 -0.15201
vn 0 0.6360949 -0.7716109
vn 0.2697899 0.6638687 0.6974896
v 0.0377056 0.967118 0.17986
vn 0.120104 0.413633 0.902487
v -0.0377056 0.967118 0.17986
vn -0.120104 0.413633 0.902487
v -0.0754112 0.780846 0.224702
vn -0.3551249 0.3890058 0.8500357
v -0.190784 0.678468 0.237587
vn -0.5780399 0.16644 0.7988539
v -0.244 0.5715001 0.0427
vn -0.9013557 -0.4274398 -0.06966507
v -0.294958 0.6954781 0.0922181
vn -0.9959163 -0.05626422 0.07060523
v -0.144125 0.565323 0.278732
vn -0.5855509 -0.1770139 0.7910728
v -0.150822 0.806579 -0.079419
vn -0.5623538 0.6622897 -0.4951068
v -0.140987 0.858059 0.0795807
vn -0.459248 0.885995 0.0640644
v -0.163864 0.9558771 0.12912
vn -0.331911 0.371272 0.8671749
v -0.250695 0.776857 0.124823
vn 0.4286559 0.3474819 -0.8339727
vn -0.7036623 0.3063112 0.6411183
v -0.222585 0.6690401 -0.0794916
vn -0.8482707 0.05741068 -0.5264418
v -0.107257 0.832828 0.162907
vn -0.40225 0.780422 0.478682
vn -0.2516229 0.6728447 0.6956766
v -0.21951 0.910907 0.119634
vn -0.5341409 0.329139 0.7786919
v -0.1932 0.737154 0.148219
vn 0.5412362 0.3273791 -0.7745233
vn 0.3384509 0.7907218 0.5101079
v -0.23473 0.73032 0.050804
vn -0.9400401 0.339231 0.0353113
vn -0.85027 0.370987 0.373376
vn -0.9835443 -0.162068 -0.07984112
v 0 0.493666 0.299139
vt 0.0038583 0.0538865
vn 6.95308E-05 -0.5872191 0.8094281
vt 0.946595 0.991325
vt 0.996142 -0.185064
v 0 0.578473 0.313872
vt 0.0038583 1.16335
vn 0 0.04878811 0.9988092
vt 0.996142 -0.184766
vt 0.849484 0.728942
vn -0.5972937 0.06549827 -0.7993436
vn -0.280962 -0.123542 -0.9517341
vn -0.288114 -0.112813 -0.9509277
vn -0.3508741 -0.09440122 -0.9316522
vn -0.9130888 0.3782039 -0.152416
vn 0.004663491 -0.187769 -0.9822022
vn 0.06416339 -0.150637 -0.9865047
vn 0.2158669 -0.1870109 -0.9583467
vn -0.068303 -0.155555 -0.985463
vn -0.1927921 -0.1925981 -0.9621524
vn 0.5972931 0.06549821 -0.7993441
vn 0.288114 -0.112813 -0.9509277
vn 0.280962 -0.123542 -0.9517341
vn 0.3508741 -0.09440122 -0.9316522
vn 0.9130887 0.3782038 -0.1524169
o merged_1_0_node
g polygon_0
usemtl mat_kao1_mat_id
f 57/39/67 58/39/68 59/39/69
f 57/39/67 60/39/70 58/39/68
f 57/39/67 59/39/69 61/39/71
f 57/39/67 62/39/72 60/39/70
f 57/39/67 61/39/71 63/39/73
f 57/39/67 64/39/74 62/39/72
f 57/39/67 63/39/73 64/39/74
f 58/39/68 65/39/75 59/39/69
f 58/39/68 60/39/70 66/39/76
f 58/39/68 67/39/77 65/39/75
f 58/39/68 66/39/78 67/39/77
f 61/39/71 68/39/79 63/39/73
f 61/39/71 59/39/69 69/39/80
f 61/39/71 69/39/80 68/39/79
f 62/39/72 64/39/74 70/39/81
f 62/39/72 71/39/82 60/39/70
f 62/39/72 70/39/81 72/39/83
f 62/39/72 72/39/83 71/39/82
f 66/39/76 60/39/70 71/39/84
f 66/39/78 71/39/85 67/39/77
f 63/39/73 68/39/79 73/39/86
f 63/39/73 74/39/87 64/39/74
f 63/39/73 73/39/86 74/39/87
f 64/39/74 74/39/87 70/39/81
f 69/39/80 75/39/88 68/39/79
f 72/39/83 76/39/89 71/39/82
f 72/39/83 70/39/81 77/39/90
f 72/39/83 78/39/91 76/39/89
f 72/39/83 77/39/90 78/39/91
f 67/39/77 79/39/92 80/39/93
f 67/39/77 81/39/94 79/39/92
f 67/39/77 82/39/95 81/39/94
f 67/39/77 71/39/96 82/39/95
f 73/39/86 83/39/97 74/39/87
f 73/39/86 68/39/79 84/39/98
f 73/39/86 84/39/98 83/39/97
f 75/39/88 85/39/99 68/39/79
f 75/39/88 86/39/100 85/39/99
f 68/39/79 85/39/99 84/39/98
f 70/39/81 87/39/101 77/39/90
f 70/39/81 74/39/87 87/39/101
f 74/39/87 83/39/97 87/39/101
f 76/39/89 78/39/91 79/39/102
f 80/39/93 79/39/92 88/39/103
f 80/39/93 88/39/103 89/39/104
f 80/39/93 89/39/104 90/39/105
f 80/39/93 90/39/105 91/39/106
f 86/39/100 92/39/107 85/39/99
f 86/39/100 93/39/108 92/39/107
f 86/39/100 94/39/109 93/39/108
f 94/39/109 91/39/106 93/39/108
f 85/39/99 92/39/107 84/39/98
f 77/39/90 87/39/101 95/39/110
f 77/39/90 96/39/111 78/39/91
f 77/39/90 95/39/110 96/39/111
f 87/39/101 83/39/97 95/39/110
f 90/39/105 97/39/112 91/39/106
f 93/39/108 98/39/113 92/39/107
f 93/39/108 91/39/106 98/39/114
f 84/39/98 99/39/115 83/39/97
f 84/39/98 92/39/107 99/39/115
f 83/39/97 99/39/115 95/39/110
f 78/39/91 96/39/111 100/39/116
f 78/39/91 100/39/116 90/39/117
f 97/39/112 101/39/118 91/39/106
f 98/39/113 102/39/119 92/39/107
f 98/39/114 91/39/106 102/39/120
f 99/39/115 103/39/121 95/39/110
f 99/39/115 92/39/107 103/39/121
f 95/39/110 103/39/121 96/39/111
f 100/39/116 96/39/111 102/39/122
f 102/39/122 103/39/121 92/39/107
f 102/39/122 96/39/111 103/39/121
f 101/39/118 102/39/123 91/39/106
f 104/40/124 94/41/109 86/42/100
f 104/40/124 105/43/125 94/41/109
f 104/40/124 65/41/75 105/43/125
f 104/40/124 59/44/69 65/41/75
f 104/45/124 86/45/100 75/45/88
f 104/45/124 75/45/88 69/45/80
f 104/45/124 69/45/80 59/45/69
f 76/39/126 82/39/127 71/39/128
f 76/39/126 81/39/129 82/39/127
f 76/39/126 79/39/130 81/39/129
f 78/39/131 88/39/132 79/39/133
f 78/39/131 89/39/134 88/39/132
f 78/39/131 90/39/135 89/39/134
f 100/39/136 102/39/137 101/39/138
f 100/39/136 101/39/138 97/39/139
f 100/39/136 97/39/139 90/39/140
vt -0.166907 1.03876
vt 1.16691 0.932154
vt 0.840706 0.734399
vt -0.166907 0.757383
o merged_2_0_node
g polygon_0
usemtl TEX_ANIM_EYE_mat_id
f 80/46/93 91/47/106 94/48/109
f 80/46/93 65/48/75 67/47/77
f 80/46/93 105/49/125 65/48/75
f 94/48/109 105/49/125 80/46/93
