mtllib Dugtrio.mtl
v -0.0377747 0.121083 0.0882072
vt 0.746972 0.242366
vn -0.9624277 -0.123184 -0.2419889
v 0.137145 0.121083 -0.0388792
vn 0 -0.108833 -0.99406
v -0.01894 0 0.0942667
vn -0.9279931 -0.175771 -0.328532
v 0.137145 0 -0.0191356
vn 0 -0.1609331 -0.9869654
v 0.0145589 0.121083 0.290573
vn -0.8025698 -0.07206988 0.5921889
v 0.0406791 0 0.28897
vn -0.626125 -0.187258 0.7569029
v 0.259731 0.121083 0.290573
vn 0.8025698 -0.07206988 0.5921889
v 0.137145 0.121083 0.305052
vn 0 -0.0444391 0.9990121
v 0.233611 0 0.28897
vn 0.626125 -0.187258 0.7569029
v 0.29323 0 0.0942667
vn 0.9279931 -0.175771 -0.328532
v 0.312064 0.121083 0.0882073
vn 0.9624277 -0.123184 -0.2419889
v 0.137145 0.295637 -0.0388792
vn 0 0.1720891 -0.9850814
v -0.0377747 0.245668 0.0563649
vn -0.8310479 0.0463293 -0.5542679
v 0.312064 0.245668 0.0563649
vn 0.8310479 0.0463293 -0.5542679
v -0.0185844 0.349673 0.180913
vn -0.9192357 0.3523069 0.175743
v 0.0221697 0.354151 0.0390487
vn -0.6014092 0.5233502 -0.6036652
v 0.0145589 0.273208 0.290573
vn -0.6518412 0.07988592 0.7541362
v 0.0464671 0.347134 0.280842
vn -0.361625 0.5856661 0.7254121
v 0.137145 0.273208 0.305052
vn 0 0.103863 0.9945917
v 0.227823 0.347134 0.280842
vn 0.361625 0.5856661 0.7254121
v 0.259731 0.273208 0.290573
vn 0.6518412 0.07988602 0.7541362
v 0.292874 0.349673 0.180913
vn 0.9192357 0.3523069 0.175743
v 0.25212 0.354151 0.0390487
vn 0.6014092 0.5233502 -0.6036652
v 0.201825 0.422883 0.142199
vn 0.3756101 0.9267752 -0.002202061
v 0.137145 0.407347 0.0500448
vn 0 0.8225311 -0.5687201
v 0.0724649 0.422883 0.142199
vn -0.3756101 0.9267752 -0.002202091
v 0.137145 0.407347 0.232797
vt 0.811764 0.270709
vn 0 0.8624842 0.5060841
v -0.374759 0.211449 0.00983874
vn -0.9585574 -0.09458594 -0.2687401
v -0.19984 0.211449 -0.117248
vn 0 -0.08415359 -0.9964528
v -0.355925 0 0.0158982
vn -0.9402791 -0.106268 -0.323392
v -0.19984 0 -0.0975041
v -0.322426 0.211449 0.212204
vn -0.7962741 -0.05228611 0.6026721
v -0.296305 0 0.210602
vn -0.6253938 -0.113764 0.7719718
v -0.0772538 0.211449 0.212204
vn 0.7962741 -0.05228611 0.6026721
v -0.19984 0.211449 0.226684
vn 0 -0.0259543 0.9996631
v -0.103374 0 0.210602
vn 0.6253938 -0.113764 0.7719718
v -0.0437549 0 0.0158982
vn 0.9402794 -0.106268 -0.3233911
v -0.0249202 0.211449 0.00983877
vn 0.9585574 -0.09458594 -0.2687401
v -0.19984 0.386003 -0.117248
v -0.374759 0.336035 -0.0220036
v -0.0249202 0.336035 -0.0220036
v -0.355569 0.440039 0.102545
v -0.314815 0.444517 -0.0393198
v -0.322426 0.363574 0.212204
v -0.290517 0.437501 0.202473
v -0.19984 0.363574 0.226684
v -0.109162 0.437501 0.202473
v -0.0772538 0.363574 0.212204
v -0.0441104 0.440039 0.102545
v -0.0848645 0.444517 -0.0393198
v -0.13516 0.513249 0.0638304
v -0.19984 0.497713 -0.0283237
v -0.26452 0.513249 0.0638303
v -0.19984 0.497713 0.154428
v -0.138144 0.381276 -0.257211
vn -0.9534197 -0.06539168 -0.2944739
v 0.0367753 0.381276 -0.384297
vn 0 -0.05828042 -0.9983003
v -0.11931 0 -0.251152
vn -0.9469059 -0.06189039 -0.315498
v 0.0367753 0 -0.364554
v -0.0858107 0.381276 -0.0548457
vn -0.790538 -0.0342767 0.611453
v -0.0596905 0 -0.0564481
vn -0.620569 -0.065374 0.781422
v 0.159361 0.381276 -0.0548457
vn 0.790538 -0.0342768 0.611453
v 0.0367752 0.381276 -0.040366
vn 0 -0.0139797 0.9999023
v 0.133241 0 -0.0564481
vn 0.620569 -0.065374 0.781422
v 0.19286 0 -0.251152
vn 0.9469061 -0.06189041 -0.315497
v 0.211695 0.381276 -0.257211
vn 0.9534197 -0.06539168 -0.2944739
v 0.0367753 0.55583 -0.384297
v -0.138144 0.505861 -0.289053
v 0.211695 0.505861 -0.289053
v -0.118954 0.609865 -0.164505
v -0.0781999 0.614343 -0.30637
v -0.0858107 0.5334 -0.0548457
v -0.0539026 0.607327 -0.0645762
v 0.0367752 0.5334 -0.040366
v 0.127453 0.607327 -0.0645762
v 0.159361 0.5334 -0.0548457
v 0.192504 0.609865 -0.164505
v 0.15175 0.614343 -0.30637
v 0.101455 0.683075 -0.203219
v 0.0367752 0.66754 -0.295373
v -0.0279048 0.683075 -0.203219
v 0.0367752 0.66754 -0.112622
v 0.202435 0.156812 0.324157
vt 1.05556 0.750367
vn 0.7572949 0.0165259 0.6528639
v 0.181719 0.124759 0.299168
vt 0.879278 0.548986
vn 0.3946739 -0.8240708 0.4063739
v 0.202435 0.15689 0.27428
vn 0.996435 0.0843639 0.000132282
v 0.177497 0.195318 0.299279
vt 0.843352 0.991754
vn 0.4307701 0.7979342 0.4215901
v 0.137145 0.138171 0.339541
vt 0.5 0.633548
vn 0 -0.589739 0.8075939
v 0.137145 0.181779 0.339609
vt 0.5 0.907193
vn 0 0.5747982 0.8182952
v 0.0718543 0.15689 0.27428
vt -0.0555556 0.750367
vn -0.996435 0.0843643 0.000132443
v 0.0925709 0.124759 0.299168
vt 0.120722 0.548986
vn -0.3946741 -0.8240712 0.4063731
v 0.0718543 0.156812 0.324157
vn -0.7572954 0.01652591 0.6528634
v 0.0967931 0.195318 0.299279
vt 0.156648 0.991754
vn -0.4307693 0.7979345 0.4215903
v -0.134549 0.247178 0.245789
v -0.155266 0.215125 0.2208
v -0.134549 0.247256 0.195911
v -0.159488 0.285684 0.22091
v -0.19984 0.228538 0.261172
v -0.19984 0.272146 0.261241
v -0.26513 0.247256 0.195911
v -0.244414 0.215125 0.2208
v -0.26513 0.247178 0.245789
v -0.240191 0.285684 0.22091
v 0.102066 0.417004 -0.0212611
v 0.0813492 0.384952 -0.04625
v 0.102066 0.417082 -0.0711382
v 0.077127 0.455511 -0.0461394
v 0.0367752 0.398364 -0.00587738
v 0.0367752 0.441972 -0.00580901
v -0.0285153 0.417082 -0.0711382
v -0.0077987 0.384952 -0.04625
v -0.0285153 0.417004 -0.0212611
v -0.00357656 0.455511 -0.0461394
v -0.300505 -0.11669 0.262084
vt 0.153252 0.0357973
vn -0.185473 -0.9660547 0.179828
v -0.54789 -3.22192E-05 0
vt 0.133712 0.255801
vn -0.5045239 -0.8633978 0
v -0.300505 -0.11669 -0.262084
vn -0.182846 -0.9657068 -0.184331
v -0.383144 0.108318 -0.221209
vt 0.16968 0.460138
vn -0.20474 0.9718958 -0.11619
v -0.273945 -3.22192E-05 -0.48276
vt 0.193521 0.255801
vn -0.3216178 0.7643566 -0.5588568
vn -0.662874 0.748731 0
vn -0.122226 -0.8712882 -0.4753081
v 0.300505 -0.11669 -0.262084
vt 0.353408 0.0357973
vn 0.185473 -0.9660547 -0.179828
v 0.300505 -0.11669 0.262084
vn 0.182846 -0.9657068 0.184331
v 0.273945 -3.22192E-05 0.48276
vt 0.313139 0.255801
vn 0.122226 -0.8712882 0.4753081
v -0.273945 -3.22192E-05 0.48276
vn -0.129863 -0.8700411 0.4755671
v -0.383144 0.108318 0.221208
vn -0.20474 0.9718958 0.11619
vn -0.3216181 0.7643563 0.5588572
v 0.54789 -3.22192E-05 0
vt 0.372948 0.255801
vn 0.5045239 -0.8633978 0
v 0.383144 0.108318 0.221209
vt 0.33698 0.460138
vn 0.20474 0.9718958 0.11619
vn 0.3216178 0.7643566 0.5588568
vn 0.662874 0.748731 0
v 0.273945 -3.22192E-05 -0.48276
vn 0.129863 -0.8700411 -0.4755671
v 0.383144 0.108318 -0.221209
vn 0.20474 0.9718958 -0.11619
vn 0.3216181 0.7643563 -0.5588572
v 0 0.108318 -0.442417
vt 0.25333 0.460138
vn 0 0.9737253 -0.2277261
v 0 0.108318 0.442417
vn 0 0.9737253 0.2277261
v 0 0.0116014 0
vt 0.25333 0.0489448
vn 0 1 0
o merged_0_0_node
g polygon_0
usemtl mat_body1_mat_id
f 1/1/1 2/1/2 3/1/3
f 3/1/3 2/1/2 4/1/4
f 1/1/1 3/1/3 5/1/5
f 5/1/5 3/1/3 6/1/6
f 7/1/7 8/1/8 9/1/9
f 9/1/9 8/1/8 6/1/6
f 6/1/6 8/1/8 5/1/5
f 9/1/9 10/1/10 7/1/7
f 7/1/7 10/1/10 11/1/11
f 11/1/11 10/1/10 2/1/2
f 2/1/2 10/1/10 4/1/4
f 12/1/12 2/1/2 13/1/13
f 13/1/13 2/1/2 1/1/1
f 11/1/11 2/1/2 14/1/14
f 14/1/14 2/1/2 12/1/12
f 15/1/15 16/1/16 13/1/13
f 13/1/13 16/1/16 12/1/12
f 1/1/1 5/1/5 15/1/15
f 5/1/5 17/1/17 15/1/15
f 15/1/15 13/1/13 1/1/1
f 15/1/15 17/1/17 18/1/18
f 17/1/17 19/1/19 18/1/18
f 18/1/18 19/1/19 20/1/20
f 19/1/19 21/1/21 20/1/20
f 7/1/7 11/1/11 22/1/22
f 11/1/11 14/1/14 22/1/22
f 22/1/22 21/1/21 7/1/7
f 21/1/21 22/1/22 20/1/20
f 22/1/22 14/1/14 23/1/23
f 14/1/14 12/1/12 23/1/23
f 24/1/24 23/1/23 25/1/25
f 26/1/26 25/1/25 16/1/16
f 23/1/23 12/1/12 25/1/25
f 12/1/12 16/1/16 25/1/25
f 27/2/27 24/2/24 26/2/26
f 26/2/26 24/2/24 25/2/25
f 15/1/15 26/1/26 16/1/16
f 15/1/15 18/1/18 26/1/26
f 26/1/26 18/1/18 27/1/27
f 18/1/18 20/1/20 27/1/27
f 22/1/22 24/1/24 20/1/20
f 20/1/20 24/1/24 27/1/27
f 22/1/22 23/1/23 24/1/24
f 28/1/28 29/1/29 30/1/30
f 30/1/30 29/1/29 31/1/29
f 28/1/28 30/1/30 32/1/31
f 32/1/31 30/1/30 33/1/32
f 34/1/33 35/1/34 36/1/35
f 36/1/35 35/1/34 33/1/32
f 33/1/32 35/1/34 32/1/31
f 36/1/35 37/1/36 34/1/33
f 34/1/33 37/1/36 38/1/37
f 38/1/37 37/1/36 29/1/29
f 29/1/29 37/1/36 31/1/29
f 39/1/12 29/1/29 40/1/13
f 40/1/13 29/1/29 28/1/28
f 38/1/37 29/1/29 41/1/14
f 41/1/14 29/1/29 39/1/12
f 42/1/15 43/1/16 40/1/13
f 40/1/13 43/1/16 39/1/12
f 28/1/28 32/1/31 42/1/15
f 32/1/31 44/1/17 42/1/15
f 42/1/15 40/1/13 28/1/28
f 42/1/15 44/1/17 45/1/18
f 44/1/17 46/1/19 45/1/18
f 45/1/18 46/1/19 47/1/20
f 46/1/19 48/1/21 47/1/20
f 34/1/33 38/1/37 49/1/22
f 38/1/37 41/1/14 49/1/22
f 49/1/22 48/1/21 34/1/33
f 48/1/21 49/1/22 47/1/20
f 49/1/22 41/1/14 50/1/23
f 41/1/14 39/1/12 50/1/23
f 51/1/24 50/1/23 52/1/25
f 53/1/26 52/1/25 43/1/16
f 50/1/23 39/1/12 52/1/25
f 39/1/12 43/1/16 52/1/25
f 54/2/27 51/2/24 53/2/26
f 53/2/26 51/2/24 52/2/25
f 42/1/15 53/1/26 43/1/16
f 42/1/15 45/1/18 53/1/26
f 53/1/26 45/1/18 54/1/27
f 45/1/18 47/1/20 54/1/27
f 49/1/22 51/1/24 47/1/20
f 47/1/20 51/1/24 54/1/27
f 49/1/22 50/1/23 51/1/24
f 55/1/38 56/1/39 57/1/40
f 57/1/40 56/1/39 58/1/39
f 55/1/38 57/1/40 59/1/41
f 59/1/41 57/1/40 60/1/42
f 61/1/43 62/1/44 63/1/45
f 63/1/45 62/1/44 60/1/42
f 60/1/42 62/1/44 59/1/41
f 63/1/45 64/1/46 61/1/43
f 61/1/43 64/1/46 65/1/47
f 65/1/47 64/1/46 56/1/39
f 56/1/39 64/1/46 58/1/39
f 66/1/12 56/1/39 67/1/13
f 67/1/13 56/1/39 55/1/38
f 65/1/47 56/1/39 68/1/14
f 68/1/14 56/1/39 66/1/12
f 69/1/15 70/1/16 67/1/13
f 67/1/13 70/1/16 66/1/12
f 55/1/38 59/1/41 69/1/15
f 59/1/41 71/1/17 69/1/15
f 69/1/15 67/1/13 55/1/38
f 69/1/15 71/1/17 72/1/18
f 71/1/17 73/1/19 72/1/18
f 72/1/18 73/1/19 74/1/20
f 73/1/19 75/1/21 74/1/20
f 61/1/43 65/1/47 76/1/22
f 65/1/47 68/1/14 76/1/22
f 76/1/22 75/1/21 61/1/43
f 75/1/21 76/1/22 74/1/20
f 76/1/22 68/1/14 77/1/23
f 68/1/14 66/1/12 77/1/23
f 78/1/24 77/1/23 79/1/25
f 80/1/26 79/1/25 70/1/16
f 77/1/23 66/1/12 79/1/25
f 66/1/12 70/1/16 79/1/25
f 81/2/27 78/2/24 80/2/26
f 80/2/26 78/2/24 79/2/25
f 69/1/15 80/1/26 70/1/16
f 69/1/15 72/1/18 80/1/26
f 80/1/26 72/1/18 81/1/27
f 72/1/18 74/1/20 81/1/27
f 76/1/22 78/1/24 74/1/20
f 74/1/20 78/1/24 81/1/27
f 76/1/22 77/1/23 78/1/24
f 82/3/48 83/4/49 84/3/50
f 84/3/50 85/5/51 82/3/48
f 86/6/52 82/3/48 87/7/53
f 83/4/49 82/3/48 86/6/52
f 82/3/48 85/5/51 87/7/53
f 88/8/54 89/9/55 90/8/56
f 90/8/56 91/10/57 88/8/54
f 86/6/52 87/7/53 90/8/56
f 90/8/56 89/9/55 86/6/52
f 87/7/53 91/10/57 90/8/56
f 86/6/52 89/9/55 83/4/49
f 87/7/53 85/5/51 91/10/57
f 92/3/48 93/4/49 94/3/50
f 94/3/50 95/5/51 92/3/48
f 96/6/52 92/3/48 97/7/53
f 93/4/49 92/3/48 96/6/52
f 92/3/48 95/5/51 97/7/53
f 98/8/54 99/9/55 100/8/56
f 100/8/56 101/10/57 98/8/54
f 96/6/52 97/7/53 100/8/56
f 100/8/56 99/9/55 96/6/52
f 97/7/53 101/10/57 100/8/56
f 96/6/52 99/9/55 93/4/49
f 97/7/53 95/5/51 101/10/57
f 102/3/48 103/4/49 104/3/50
f 104/3/50 105/5/51 102/3/48
f 106/6/52 102/3/48 107/7/53
f 103/4/49 102/3/48 106/6/52
f 102/3/48 105/5/51 107/7/53
f 108/8/54 109/9/55 110/8/56
f 110/8/56 111/10/57 108/8/54
f 106/6/52 107/7/53 110/8/56
f 110/8/56 109/9/55 106/6/52
f 107/7/53 111/10/57 110/8/56
f 106/6/52 109/9/55 103/4/49
f 107/7/53 105/5/51 111/10/57
f 112/11/58 113/12/59 114/11/60
f 115/13/61 116/14/62 113/12/63
f 116/14/64 117/15/65 114/11/60
f 117/15/65 118/15/66 114/11/60
f 114/11/60 118/15/66 112/11/58
f 118/15/66 119/16/67 112/11/58
f 119/16/67 120/14/68 112/11/58
f 121/13/69 113/12/63 120/14/70
f 117/15/65 122/17/71 118/15/66
f 123/18/72 119/16/73 122/17/74
f 116/14/64 124/16/75 117/15/65
f 125/18/76 122/17/74 124/16/77
f 124/16/77 116/14/62 126/19/78
f 126/19/78 116/14/62 115/13/61
f 113/12/59 116/14/64 114/11/60
f 115/13/61 113/12/63 121/13/69
f 120/14/68 113/12/59 112/11/58
f 121/13/69 120/14/70 127/19/79
f 120/14/70 119/16/73 127/19/79
f 127/19/79 119/16/73 123/18/72
f 122/17/71 119/16/67 118/15/66
f 123/18/72 122/17/74 125/18/76
f 124/16/75 122/17/71 117/15/65
f 125/18/76 124/16/77 126/19/78
f 126/19/78 115/13/61 128/20/80
f 115/13/61 121/13/69 128/20/80
f 121/13/69 127/19/79 128/20/80
f 127/19/79 123/18/72 128/20/80
f 123/18/72 125/18/76 128/20/80
f 125/18/76 126/19/78 128/20/80
vt 0.138601 1.00192
vt 0.999767 1.00192
vt 0.138601 0.734753
vt 0.999767 0.734753
o merged_1_0_node
g polygon_0
usemtl TEX_ANIM_EYE_mat_id
f 19/21/19 17/22/17 8/23/8
f 8/23/8 17/22/17 5/24/5
f 19/21/19 8/23/8 21/22/21
f 21/22/21 8/23/8 7/24/7
f 46/21/19 44/22/17 35/23/34
f 35/23/34 44/22/17 32/24/31
f 46/21/19 35/23/34 48/22/21
f 48/22/21 35/23/34 34/24/33
f 73/21/19 71/22/17 62/23/44
f 62/23/44 71/22/17 59/24/41
f 73/21/19 62/23/44 75/22/21
f 75/22/21 62/23/44 61/24/43
