mtllib Cleffa.mtl
v 0 0.0833738 0.162829
vt 0.0762085 0.343124
vn 0 -0.5201841 0.8540542
v -0.095585 0.04383601 0.0771828
vn -0.224044 -0.8521771 0.4728621
v 0 0.04383601 0.109146
vn 0 -0.8782221 0.4782531
v -0.136355 0.0833738 0.111474
vn -0.3890951 -0.5702532 0.7234752
v 0.095585 0.04383601 0.0771828
vn 0.2240438 -0.8521774 0.4728617
v -0.152521 0.159 0.135179
vn -0.4917489 0.0295966 0.8702339
v 0.136355 0.0833738 0.111474
vn 0.3890951 -0.5702532 0.7234752
v 0 0.159 0.192158
vn 0 -0.02178519 0.9997627
v 0.152521 0.159 0.135179
vn 0.4917489 0.0295965 0.8702339
v 0 0.025485 5.54908E-06
vn 0 -1 2.13078E-05
v -0.155921 0.046765 3.36499E-05
vn -0.6610727 -0.7490097 -0.04435628
v -0.0861529 0 0
vn -0.07901416 -0.9968735 -6.004387E-05
v -0.217384 0.136791 0.096679
vn -0.8965648 -0.05406149 0.4396009
v -0.207209 0.176111 0.000373542
vn -0.9946097 0.03405709 -0.09793746
v -0.200584 0.267105 0.000556299
vn -0.9972699 0.0359118 0.0645219
v -0.126276 0.296848 0.11947
vn -0.5032761 0.274226 0.8194591
v 0.217384 0.136791 0.096679
vn 0.8965648 -0.05406218 0.4396009
v 0.155921 0.046765 3.36499E-05
vn 0.6610732 -0.7490091 -0.04435641
v 0.196317 0.0931757 0.000190784
vn 0.881348 -0.435425 -0.183387
v -0.095585 0.04383601 -0.0771502
vn -0.2771159 -0.8340937 -0.4769638
v -0.196317 0.0931757 0.000190784
vn -0.8813476 -0.4354258 -0.1833869
v -0.136355 0.103264 -0.123894
vn -0.5732981 -0.3827721 -0.7244411
v -0.141262 0.327832 0.0742495
vn -0.580708 0.336898 0.7411329
v -0.101728 0.399174 0.0367191
vn -0.3881301 0.6786752 0.6235022
v -0.0418857 0.410863 0.077354
vn -0.2248899 0.7215499 0.6548209
v 0 0.296848 0.168651
vn 0 0.2792319 0.9602237
v 0.207209 0.176111 0.000373542
vn 0.9946097 0.03405739 -0.09793756
v 0.200584 0.267105 0.000556299
vn 0.9972699 0.0359122 0.0645218
v 0.126276 0.296848 0.11947
vn 0.5032761 0.274226 0.8194591
v 0.086153 0 0
vn 0.07901423 -0.9968735 -6.001713E-05
v -0.152521 0.216286 -0.137185
vn -0.6525729 0.05918619 -0.7554109
v 0 0.04383601 -0.109114
vn 0 -0.7993271 -0.6008961
v 0 0.14313 -0.184898
vn 0 -0.249258 -0.9684371
v -0.0961391 0.42277 0.00130762
vn -0.216859 0.9761348 0.0115362
v 0.0418857 0.410863 0.077354
vn 0.2248909 0.7215497 0.6548207
v 0.152521 0.216286 -0.137185
vn 0.6525729 0.05918619 -0.7554109
v 0.141262 0.327832 0.0742495
vn 0.580708 0.336898 0.7411329
v 0.126276 0.309825 -0.119488
vn 0.5365201 0.414818 -0.7348961
v 0.141262 0.327832 -0.0742495
vn 0.612752 0.350553 -0.708271
v 0.095585 0.04383601 -0.0771502
vn 0.2771159 -0.8340937 -0.4769638
v 0.136355 0.103264 -0.123894
vn 0.5732981 -0.3827721 -0.7244411
v -0.126276 0.309825 -0.119488
vn -0.5365201 0.414818 -0.7348961
v -0.141262 0.327832 -0.0742495
vn -0.612752 0.350553 -0.708271
v 0 0.438237 0.00139587
vn 0 0.9999695 -0.007807356
v -0.0482948 0.410863 -0.0601634
vn -0.226633 0.8080879 -0.54372
v -0.101728 0.399174 -0.0375304
vn -0.3228461 0.7126442 -0.6228232
v 0.101728 0.399174 0.0367191
vn 0.3881301 0.6786752 0.6235022
v 0.101728 0.399174 -0.0375304
vn 0.322847 0.7126439 -0.6228229
v 0 0.263549 -0.176932
vn 0 0.213853 -0.9768659
v 0.0482948 0.410863 -0.0601634
vn 0.2266331 0.8080884 -0.5437192
v 0 0.365037 -0.132751
vn 0 0.5926639 -0.8054499
v 0.0961391 0.42277 0.00130762
vn 0.216859 0.9761348 0.0115362
v -0.190951 0.405239 0
vt 0.047335 0.0508816
vn -0.415765 0.909471 -0.00137194
v -0.209002 0.343741 -0.0485811
vt 0.0621309 0.0853388
vn -0.4663739 0.155355 -0.8708388
v -0.260512 0.352413 0
vt 0.0631851 0.0462387
vn -0.9368259 0.349796 0
vt 0.047505 0.251112
v -0.209002 0.343741 0.0485811
vn -0.4643689 0.161006 0.8708838
vt 0.0408577 0.254346
v -0.23282 0.300537 0
vt 0.0771209 0.109013
vn -0.8011748 -0.5984249 -0.002577799
vt 0.0679876 0.260813
vt 0.0858581 0.251112
v 0.209002 0.343741 -0.0485811
vn 0.4663739 0.155355 -0.8708388
v 0.190951 0.405239 0
vn 0.415765 0.909471 -0.00137206
v 0.260512 0.352413 0
vn 0.9368262 0.3497951 0
v 0.23282 0.300537 0
vn 0.8011753 -0.5984243 -0.002577741
v 0.209002 0.343741 0.0485811
vn 0.4643689 0.161006 0.8708838
v 0.0112647 0.479999 0.0710796
vt 0.940214 0.968999
vn -0.187935 0.9121021 -0.364349
v -0.0575645 0.417627 0.140689
vn -0.9931635 -0.005170627 0.1166169
v -0.0174678 0.477351 0.144868
vn -0.3654791 0.8603234 0.3553432
v -0.0230333 0.431002 0.05049
vn -0.548747 -0.193829 -0.8132079
v 0.0495452 0.451622 0.126828
vn 0.8372357 0.4403279 0.3242649
v 0.0370155 0.441902 0.0648915
vn 0.6670067 -0.1664809 -0.7262136
v -0.0252468 0.356764 0.142537
vn -0.309643 -0.9488689 -0.06139369
v 0.0501233 0.374991 0.126828
vn 0.621834 -0.773424 -0.123036
v 0.00384703 0.417384 0.179291
vt 0.209478 0.923339
vn 0.163063 -0.0162451 0.9864819
vt 0.0735277 1.29848
vt -0.182217 0.924857
vt 0.50095 1.13753
vt 0.023912 0.544107
vt 0.504637 0.658129
v -0.0462666 0.103715 -0.261841
vt 0.76267 0.319218
vn -0.8844222 0.23069 -0.4056841
v 0.00278341 0.109474 -0.311657
vt 1.18561 0.134595
vn -0.0178351 0.2554781 -0.9666504
v -0.026468 0.0411862 -0.286718
vt 0.664007 -0.109208
vn -0.4302772 -0.6296243 -0.6468653
v -0.00905342 0.162839 -0.255506
vt 1.13336 0.704152
vn -0.1719649 0.9582046 -0.2286309
v -0.0563832 0.0523468 -0.215155
vt 0.244974 0.292147
vn -0.8345395 -0.4757427 0.2778718
v -0.0456204 0.127533 -0.195864
vt 0.530059 0.776393
vn -0.6782638 0.4990668 0.5393428
v 0.0499797 0.0756001 -0.214949
vn 0.8844222 -0.23069 0.4056841
v 0.0462568 0.0512661 -0.281655
vn 0.6680921 -0.5126841 -0.5392661
v 0.0577338 0.126696 -0.263783
vn 0.8332657 0.4685518 -0.2934749
v 0.00968588 0.0173521 -0.221212
vn 0.1605 -0.9572137 0.2407939
v 0.028256 0.139401 -0.192295
vn 0.432905 0.640793 0.634017
v -0.00143915 0.0718223 -0.165985
vn 0.0141673 -0.239483 0.9707972
vt 0.935785 0.960142
o merged_0_0_node
g polygon_0
usemtl lambert2_mat_id
f 1/1/1 2/1/2 3/1/3
f 1/1/1 4/1/4 2/1/2
f 1/1/1 3/1/3 5/1/5
f 1/1/1 6/1/6 4/1/4
f 1/1/1 5/1/5 7/1/7
f 1/1/1 8/1/8 6/1/6
f 1/1/1 7/1/7 9/1/9
f 1/1/1 9/1/9 8/1/8
f 2/1/2 10/1/10 3/1/3
f 2/1/2 4/1/4 11/1/11
f 2/1/2 12/1/12 10/1/10
f 2/1/2 11/1/11 12/1/12
f 3/1/3 10/1/10 5/1/5
f 6/1/6 13/1/13 4/1/4
f 6/1/6 14/1/14 13/1/13
f 6/1/6 15/1/15 14/1/14
f 6/1/6 16/1/16 15/1/15
f 7/1/7 17/1/17 9/1/9
f 7/1/7 5/1/5 18/1/18
f 7/1/7 19/1/19 17/1/17
f 7/1/7 18/1/18 19/1/19
f 11/1/11 20/1/20 12/1/12
f 11/1/11 4/1/4 21/1/21
f 11/1/11 22/1/22 20/1/20
f 11/1/11 21/1/21 22/1/22
f 13/1/13 14/1/14 21/1/21
f 13/1/13 21/1/21 4/1/4
f 12/1/12 20/1/20 10/1/10
f 16/1/16 23/1/23 15/1/15
f 16/1/16 24/1/24 23/1/23
f 16/1/16 25/1/25 24/1/24
f 16/1/16 26/1/26 25/1/25
f 9/1/9 17/1/17 27/1/27
f 9/1/9 27/1/27 28/1/28
f 9/1/9 28/1/28 29/1/29
f 17/1/17 19/1/19 27/1/27
f 5/1/5 30/1/30 18/1/18
f 5/1/5 10/1/10 30/1/30
f 22/1/22 21/1/21 31/1/31
f 22/1/22 32/1/32 20/1/20
f 22/1/22 31/1/31 33/1/33
f 22/1/22 33/1/33 32/1/32
f 14/1/14 15/1/15 31/1/31
f 14/1/14 31/1/31 21/1/21
f 20/1/20 32/1/32 10/1/10
f 24/1/24 25/1/25 34/1/34
f 26/1/26 29/1/29 35/1/35
f 26/1/26 35/1/35 25/1/25
f 28/1/28 27/1/27 36/1/36
f 28/1/28 37/1/37 29/1/29
f 28/1/28 36/1/36 38/1/38
f 28/1/28 38/1/38 39/1/39
f 27/1/27 19/1/19 36/1/36
f 18/1/18 30/1/30 40/1/40
f 18/1/18 41/1/41 19/1/19
f 18/1/18 40/1/40 41/1/41
f 41/1/41 32/1/32 33/1/33
f 41/1/41 33/1/33 36/1/36
f 41/1/41 36/1/36 19/1/19
f 41/1/41 40/1/40 32/1/32
f 40/1/40 10/1/10 32/1/32
f 40/1/40 30/1/30 10/1/10
f 15/1/15 42/1/42 31/1/31
f 15/1/15 43/1/43 42/1/42
f 34/1/34 25/1/25 44/1/44
f 34/1/34 44/1/44 45/1/45
f 34/1/34 45/1/45 46/1/46
f 46/1/46 42/1/42 43/1/43
f 46/1/46 45/1/45 42/1/42
f 25/1/25 35/1/35 44/1/44
f 37/1/37 47/1/47 29/1/29
f 29/1/29 47/1/47 35/1/35
f 38/1/38 48/1/48 39/1/39
f 38/1/38 36/1/36 49/1/49
f 38/1/38 50/1/50 48/1/48
f 38/1/38 49/1/49 51/1/51
f 38/1/38 51/1/51 50/1/50
f 49/1/49 36/1/36 33/1/33
f 49/1/49 33/1/33 31/1/31
f 49/1/49 31/1/31 42/1/42
f 49/1/49 42/1/42 51/1/51
f 45/1/45 44/1/44 50/1/50
f 45/1/45 51/1/51 42/1/42
f 45/1/45 50/1/50 51/1/51
f 47/1/47 52/1/52 35/1/35
f 52/1/52 48/1/48 50/1/50
f 52/1/52 44/1/44 35/1/35
f 52/1/52 50/1/50 44/1/44
f 53/2/53 54/3/54 55/4/55
f 53/2/53 46/5/46 54/3/54
f 53/2/53 55/4/55 56/3/56
f 53/2/53 34/6/34 46/5/46
f 53/2/53 56/3/56 24/5/24
f 53/2/53 24/5/24 34/6/34
f 54/3/54 57/7/57 55/4/55
f 54/3/54 46/5/46 43/8/43
f 54/3/54 15/9/15 57/7/57
f 54/3/54 43/8/43 15/9/15
f 57/7/57 15/9/15 56/3/56
f 57/7/57 56/3/56 55/4/55
f 24/5/24 56/3/56 23/8/23
f 23/8/23 56/3/56 15/9/15
f 58/3/58 59/2/59 60/4/60
f 58/3/58 48/5/48 59/2/59
f 58/3/58 60/4/60 61/7/61
f 58/3/58 39/8/39 48/5/48
f 58/3/58 61/7/61 28/9/28
f 58/3/58 28/9/28 39/8/39
f 59/2/59 62/3/62 60/4/60
f 59/2/59 48/5/48 52/6/52
f 59/2/59 47/5/47 62/3/62
f 59/2/59 52/6/52 47/5/47
f 61/7/61 62/3/62 28/9/28
f 61/7/61 60/4/60 62/3/62
f 47/5/47 37/8/37 62/3/62
f 62/3/62 37/8/37 28/9/28
f 63/10/63 64/10/64 65/10/65
f 63/10/63 66/10/66 64/10/64
f 63/10/63 65/10/65 67/10/67
f 63/10/63 68/10/68 66/10/66
f 63/10/63 67/10/67 68/10/68
f 64/10/64 66/10/66 69/10/69
f 67/10/67 70/10/70 68/10/68
f 70/10/70 66/10/66 68/10/68
f 70/10/70 69/10/69 66/10/66
f 71/11/71 65/12/65 64/13/64
f 71/11/71 67/14/67 65/12/65
f 71/11/71 64/13/64 69/15/69
f 71/11/71 70/16/70 67/14/67
f 71/11/71 69/15/69 70/16/70
f 72/17/72 73/18/73 74/19/74
f 72/17/72 75/20/75 73/18/73
f 72/17/72 74/19/74 76/21/76
f 72/17/72 77/22/77 75/20/75
f 72/17/72 76/21/76 77/22/77
f 78/17/78 79/18/79 80/20/80
f 78/17/78 81/19/81 79/18/79
f 78/17/78 80/20/80 82/22/82
f 78/17/78 83/21/83 81/19/81
f 78/17/78 82/22/82 83/21/83
f 74/23/74 73/23/73 79/23/79
f 74/23/74 79/23/79 81/23/81
f 74/23/74 81/23/81 76/23/76
f 73/23/73 80/23/80 79/23/79
f 73/23/73 75/23/75 80/23/80
f 81/23/81 83/23/83 76/23/76
f 75/23/75 82/23/82 80/23/80
f 75/23/75 77/23/77 82/23/82
f 77/23/77 83/23/83 82/23/82
f 77/23/77 76/23/76 83/23/83
vt -1.16346 0.710901
vt 0 0.710901
vt -0.963254 1.02061
vt 0 1.02061
vt 1.16346 0.710901
vt 0.963254 1.02061
o merged_1_0_node
g polygon_0
usemtl TEX_ANIM_EYE_mat_id
f 6/24/6 8/25/8 16/26/16
f 16/26/16 8/25/8 26/27/26
f 9/28/9 29/29/29 8/25/8
f 8/25/8 29/29/29 26/27/26
