mtllib Darumaka.mtl
v 0 0.208413 0.224798
vt 0.0141091 0.716913
vn 0 0.0010376 0.9999995
v -0.154325 0.117633 0.146912
vt 0.622054 0.386412
vn -0.522673 -0.529786 0.6679369
v 0 0.117444 0.206572
vt 0.0141091 0.385744
vn 0 -0.5910482 0.8066363
v -0.164618 0.209385 0.160561
vt 0.672511 0.720351
vn -0.608304 -0.0347311 0.7929439
v 0.154325 0.117633 0.146912
vn 0.522673 -0.529786 0.6679369
v -0.158913 0.269971 0.159086
vt 0.644545 0.986545
vn -0.5002308 0.2265649 0.8357257
v 0.164618 0.209385 0.160561
vn 0.608304 -0.0347311 0.7929439
v 0 0.273674 0.210285
vt 0.0141091 0.998373
vn 0 0.235213 0.9719439
v 0.158913 0.269971 0.159086
vn 0.5002308 0.2265649 0.8357257
v 0 0.419106 -1.51612E-05
vt 0.939927 0.717321
vn 0 0.9916681 -0.128819
v 0.0790973 0.391152 -0.0551667
vt 0.954621 0.712889
vn 0.2829821 0.8661143 -0.4120281
v 0 0.388365 -0.0820069
vt 0.939927 0.713891
vn 0 0.8521883 -0.5232352
v 0.097551 0.398537 0.00013021
vt 0.9603 0.711176
vn 0.4293001 0.8909882 -0.147789
v -0.0790973 0.391152 -0.0551667
vt 0.925232 0.712889
vn -0.2829818 0.8661146 -0.4120278
v -0.097551 0.398537 0.00013021
vt 0.477005 0.579791
vn -0.4293001 0.8909882 -0.147789
v -0.0849825 0.401229 0.030251
vt 0.479662 0.581129
vn -0.3845111 0.9220522 0.04439661
v -0.072414 0.403921 0.0525074
vt 0.924868 0.713853
vn -0.1787711 0.9463823 0.2690751
v 0 0.40592 0.0680973
vt 0.939927 0.715105
vn 0 0.9451835 0.3265398
v 0.072414 0.403921 0.0525074
vt 0.954985 0.713853
vn 0.178771 0.946382 0.269076
v 0.0849825 0.401229 0.030251
vt 0.826904 0.641596
vn 0.3845111 0.9220522 0.04439641
vt 0.698823 0.56934
v 0.163457 0.35961 -0.0010335
vt 0.965252 0.707535
vn 0.7033867 0.6935906 -0.1554969
v 0 0.341487 -0.150005
vt 0.939927 0.705469
vn 0 0.6878663 -0.7258374
v -0.149501 0.368424 0.0725663
vt 0.919917 0.710212
vn -0.681407 0.711977 0.169627
v -0.163457 0.35961 -0.0010335
vt 0.914601 0.707535
vn -0.7033868 0.6935908 -0.1554959
v 0 0.378988 0.139011
vt 0.939927 0.712889
vn 0 0.7937049 0.608303
v -0.122732 0.375015 0.109971
vn -0.263868 0.8749019 0.4061039
v 0.149501 0.368424 0.0725663
vt 0.698459 0.568376
vn 0.681407 0.711977 0.169627
v 0.12622 0.346346 -0.106653
vt 0.958772 0.704709
vn 0.4537409 0.6903039 -0.5635599
v 0.199586 0.310852 -0.00068323
vt 0.970329 0.698573
vn 0.9111236 0.3852888 -0.1463089
v 0.17261 0.318283 0.0917054
vt 0.966626 0.697551
vn 0.8765184 0.3925872 0.2785511
vt 0.959937 0.710212
v -0.12622 0.346346 -0.106653
vt 0.921081 0.704709
vn -0.4537409 0.6903039 -0.5635599
vt 0.919553 0.711176
vt 0.48232 0.582468
v 0.122732 0.375015 0.109971
vn 0.263868 0.8749019 0.4061039
vt 0.442297 0.423864
v 0.149192 0.294708 -0.133253
vt 0.962923 0.696529
vn 0.6097767 0.3951339 -0.6870528
v 0.184485 0.262586 0.0985892
vt 0.969164 0.69307
vn 0.8724295 0.2781788 0.4018498
v 0.215761 0.257766 -1.51612E-05
vt 0.975406 0.689612
vn 0.9343913 0.2163621 -0.2830201
v -0.199586 0.310852 -0.00068323
vt 0.909525 0.698573
vn -0.9111234 0.3852892 -0.1463091
v -0.149192 0.294708 -0.133253
vt 0.916931 0.696529
vn -0.6097761 0.3951341 -0.6870532
v -0.17261 0.318283 0.0917054
vt 0.913228 0.697551
vn -0.8765181 0.392588 0.278551
v 0.149113 0.323562 0.143004
vn 0.4472891 0.4823901 0.7531482
v 0.154006 0.23042 -0.152047
vt 0.964552 0.688956
vn 0.6608959 0.127435 -0.7395789
v 0.220828 0.200713 -9.166451E-05
vt 0.974898 0.680374
vn 0.9531916 -0.2128619 -0.2147449
v 0 0.289765 -0.188917
vt 0.939927 0.697253
vn 0 0.401924 -0.915673
v -0.149113 0.323562 0.143004
vn -0.4472891 0.4823901 0.7531482
v -0.215761 0.257766 -1.51612E-05
vt 0.904448 0.689612
vn -0.9343913 0.2163621 -0.2830201
v -0.184485 0.262586 0.0985892
vt 0.910689 0.69307
vn -0.8724295 0.2781788 0.4018498
v 0.152021 0.16397 -0.146917
vt 0.966181 0.681384
vn 0.7354428 -0.125465 -0.6658698
v 0.187673 0.118701 -9.774569E-05
vt 0.97439 0.671136
vn 0.9097505 -0.3983787 -0.1168269
v 0.18278 0.118338 0.0592059
vt 0.970285 0.67626
vn 0.8941281 -0.377612 0.240716
v 0.196218 0.202984 0.0965099
vt 0.970793 0.685498
vn 0.9038682 -0.2140011 0.3704401
v -0.154006 0.23042 -0.152047
vt 0.915302 0.688956
vn -0.6608959 0.127435 -0.7395789
vt 0.913673 0.681384
v -0.196218 0.202984 0.0965099
vt 0.90906 0.685498
vn -0.9038678 -0.2140009 0.3704409
v 0 0.181018 -0.209171
vt 0.939927 0.689036
vn 0 0.2689479 -0.9631547
v 0 0.219903 -0.207248
vt 0.939927 0.693144
vn 0 0.131609 -0.9913017
v 0.139513 0.0336648 -1.51612E-05
vt 0.965655 0.656595
vn 0.729614 -0.681159 -0.0607109
v 0.137661 0.116893 -0.130666
vt 0.962563 0.663083
vn 0.5862297 -0.6008357 -0.5434438
v -0.220828 0.200713 -9.166451E-05
vt 0.904956 0.680374
vn -0.9531916 -0.2128619 -0.2147449
vt 0.91729 0.663083
v -0.18278 0.118338 0.0592059
vt 0.909568 0.67626
vn -0.8941281 -0.377612 0.240716
v 0 0.139333 -0.252226
vt 0.939927 0.669538
vn 0 -0.4798129 -0.8773708
v -0.152021 0.16397 -0.146917
vn -0.7354428 -0.125465 -0.6658698
v -0.139513 0.0336648 -1.51612E-05
vt 0.914199 0.656595
vn -0.729614 -0.681159 -0.0607108
v -0.187673 0.118701 -9.774569E-05
vt 0.905464 0.671136
vn -0.9097505 -0.3983787 -0.1168269
v 0.0957423 0.0444161 0.083287
vt 0.95567 0.653461
vn 0.2375261 -0.8207201 0.5196151
v 0.0957423 0.0444161 -0.083287
vn 0.3046372 -0.8113494 -0.4989072
v -0.137661 0.116893 -0.130666
vn -0.5862297 -0.6008357 -0.5434438
v 0 0.0444161 -0.117786
vt 0.939927 0.653461
vn 0 -0.8723342 -0.4889101
v -0.0957423 0.0444161 0.083287
vt 0.924183 0.653461
vn -0.2375261 -0.8207201 0.5196151
vt 0.939927 0.663083
v -0.0957423 0.0444161 -0.083287
vn -0.3046372 -0.8113494 -0.4989072
v 0 0.0260651 -1.51612E-05
vt 0.939927 0.65049
vn 0 -1 -4.0897E-05
v 0 0.0444161 0.10526
vn 0 -0.8430076 0.5379018
v -0.0935685 0.365348 0.199996
vt 0.301465 0.764422
vn -0.3780969 -0.5971609 0.7074189
v -0.132282 0.373897 0.169084
vt 0.301465 0.813478
vn -0.821911 -0.40383 0.401726
v -0.0627243 0.338763 0.159337
vt 0.274091 0.764422
vn 0.1954561 -0.9778454 -0.07493483
v -0.0974966 0.424543 0.147742
vt 0.328839 0.813478
vn 0.02332821 0.9706964 0.2391741
v -0.0451364 0.368516 0.187984
vt 0.287778 0.715366
vn 0.6978179 -0.357 0.6209679
vt 0.328839 0.78895
vn -0.267045 0.963442 -0.0216
v -0.100242 0.400828 0.192047
vt 0.315152 0.776685
vn -0.786673 0.23223 0.572027
v -0.0532129 0.420717 0.200724
vt 0.328839 0.764422
vn 0.5080361 0.4614131 0.727322
vt 0.315152 0.715366
v -0.0976984 0.341009 0.124893
vt 0.274091 0.813478
vn -0.2136469 -0.8541016 -0.4741998
v -0.162098 0.437005 0.0948198
vt 0.315152 0.862534
vn -0.7221484 0.3241662 -0.6110793
vt 0.287778 0.862534
v -0.0776985 0.430537 0.170323
vt 0.328839 0.776685
vn -0.08413576 0.9864965 0.1405199
v -0.0316783 0.381191 0.141528
vt 0.356212 0.764422
vn 0.8596613 -0.2467731 -0.4473091
v -0.0484836 0.414078 0.14315
vt 0.342526 0.776685
vn 0.5885371 0.5779391 -0.5653411
v -0.0629128 0.391655 0.10355
vt 0.356212 0.813478
vn 0.4421532 -0.04293621 -0.8959113
vt 0.342526 0.862534
vt 0.342526 0.715366
vt 0.383586 0.764422
vt 0.383586 0.813478
vt 0.369899 0.862534
vt 0.369899 0.715366
v 0.0984984 0.430769 0.147742
vn -0.02332819 0.9706967 0.2391729
v 0.0639146 0.397881 0.10355
vn -0.4421532 -0.04293612 -0.8959113
v 0.0326801 0.387417 0.141528
vn -0.8596613 -0.2467731 -0.4473091
v 0.1631 0.443231 0.0948198
vn 0.722148 0.324166 -0.61108
vn 0.267045 0.963442 -0.0216009
v 0.101244 0.407054 0.192047
vn 0.786672 0.232231 0.572028
v 0.0945703 0.371574 0.199996
vn 0.3780969 -0.5971609 0.7074189
v 0.133284 0.380123 0.169084
vn 0.821911 -0.40383 0.401726
v 0.0637261 0.344989 0.159337
vn -0.1954559 -0.9778455 -0.07493396
v 0.0987002 0.347235 0.124893
vn 0.213647 -0.854102 -0.474199
v 0.0787003 0.436763 0.170323
vn 0.08413587 0.9864966 0.1405189
v 0.0494854 0.420304 0.14315
vn -0.5885371 0.5779391 -0.5653411
v 0.0542147 0.426943 0.200724
vn -0.5080361 0.4614131 0.727322
v 0.0461382 0.374742 0.187984
vn -0.6978179 -0.357 0.6209679
v 0.257979 0.252562 0.053059
vt 0.796875 0
vn 0.9416192 0.2427011 0.2333441
vt 0.6875 0.203125
vt 0.59375 0.203125
vt 0.984375 0.203125
vt 0.90625 0.203125
v -0.0881112 0.000580096 -1.51612E-05
vt 0.90625 0
vn -0.0126193 -0.9999204 7.547553E-06
vt 0.90625 0.296875
vt 0.796875 0.296875
vt 1 0.296875
v 0.0881112 0.000580096 -1.51612E-05
vn 0.0126193 -0.9999204 7.574663E-06
vt 0.0800667 0.511707
vt 0.0800667 0.146218
vt 0.999659 0.14419
vt 0.929306 0.575577
v -0.257979 0.252562 0.053059
vn -0.941619 0.242701 0.233345
o merged_0_0_node
g polygon_0
usemtl mat_body1_mat_id
f 1/1/1 2/2/2 3/3/3
f 1/1/1 4/4/4 2/2/2
f 1/1/1 3/3/3 5/2/5
f 1/1/1 6/5/6 4/4/4
f 1/1/1 5/2/5 7/4/7
f 1/1/1 8/6/8 6/5/6
f 1/1/1 7/4/7 9/5/9
f 1/1/1 9/5/9 8/6/8
f 10/7/10 11/8/11 12/9/12
f 10/7/10 13/10/13 11/8/11
f 10/7/10 12/9/12 14/11/14
f 10/7/10 14/11/14 15/12/15
f 10/7/10 15/12/15 16/13/16
f 10/7/10 16/13/16 17/14/17
f 10/7/10 17/14/17 18/15/18
f 10/7/10 18/15/18 19/16/19
f 10/7/10 19/16/19 20/17/20
f 10/7/10 20/17/20 13/18/13
f 13/10/13 21/19/21 11/8/11
f 12/9/12 22/20/22 14/11/14
f 12/9/12 11/8/11 22/20/22
f 15/12/15 23/21/23 16/13/16
f 15/12/15 24/22/24 23/21/23
f 17/14/17 25/23/25 18/15/18
f 17/14/17 26/11/26 25/23/25
f 18/15/18 25/23/25 19/16/19
f 20/17/20 27/24/27 13/18/13
f 20/17/20 19/16/19 27/24/27
f 21/19/21 28/25/28 11/8/11
f 21/19/21 29/26/29 28/25/28
f 21/19/21 30/27/30 29/26/29
f 21/19/21 27/28/27 30/27/30
f 11/8/11 28/25/28 22/20/22
f 14/11/14 31/29/31 24/22/24
f 14/11/14 22/20/22 31/29/31
f 14/11/14 24/22/24 15/30/15
f 16/13/16 23/21/23 17/31/17
f 17/31/17 23/21/23 26/11/26
f 25/23/25 32/8/32 19/16/19
f 19/16/19 32/8/32 27/24/27
f 27/28/27 32/8/32 30/27/30
f 13/18/13 27/24/27 21/32/21
f 29/26/29 33/33/33 28/25/28
f 29/26/29 30/27/30 34/34/34
f 29/26/29 35/35/35 33/33/33
f 29/26/29 34/34/34 35/35/35
f 28/25/28 33/33/33 22/20/22
f 31/29/31 36/36/36 24/22/24
f 31/29/31 22/20/22 37/37/37
f 31/29/31 37/37/37 36/36/36
f 23/21/23 38/38/38 26/11/26
f 23/21/23 24/22/24 38/38/38
f 24/22/24 36/36/36 38/38/38
f 32/8/32 39/33/39 30/27/30
f 30/27/30 39/33/39 34/34/34
f 35/35/35 40/39/40 33/33/33
f 35/35/35 41/40/41 40/39/40
f 22/20/22 42/41/42 37/37/37
f 22/20/22 33/33/33 42/41/42
f 26/11/26 38/38/38 43/37/43
f 36/36/36 37/37/37 44/42/44
f 36/36/36 45/43/45 38/38/38
f 36/36/36 44/42/44 45/43/45
f 38/38/38 45/43/45 43/37/43
f 39/33/39 9/39/9 34/34/34
f 41/40/41 46/44/46 40/39/40
f 41/40/41 47/45/47 46/44/46
f 41/40/41 48/46/48 47/45/47
f 41/40/41 49/47/49 48/46/48
f 37/37/37 50/48/50 44/42/44
f 45/43/45 6/48/6 43/37/43
f 45/43/45 4/49/4 6/48/6
f 45/43/45 51/50/51 4/49/4
f 9/39/9 7/44/7 34/34/34
f 34/34/34 7/44/7 49/47/49
f 40/39/40 46/44/46 52/51/52
f 40/39/40 52/51/52 53/52/53
f 53/52/53 52/51/52 50/48/50
f 47/45/47 48/46/48 54/53/54
f 47/45/47 55/54/55 46/44/46
f 47/45/47 54/53/54 55/54/55
f 44/42/44 50/48/50 56/55/56
f 51/50/51 2/56/2 4/49/4
f 51/50/51 56/55/56 57/57/57
f 51/50/51 57/57/57 2/56/2
f 7/44/7 5/54/5 49/47/49
f 48/46/48 5/54/5 54/53/54
f 48/46/48 49/47/49 5/54/5
f 52/51/52 46/44/46 58/58/58
f 52/51/52 59/49/59 50/48/50
f 52/51/52 58/58/58 59/49/59
f 50/48/50 59/49/59 56/55/56
f 46/44/46 55/54/55 58/58/58
f 57/57/57 60/59/60 2/56/2
f 57/57/57 56/55/56 61/60/61
f 57/57/57 61/60/61 60/59/60
f 56/55/56 59/49/59 61/60/61
f 54/53/54 5/54/5 62/61/62
f 54/53/54 63/61/63 55/54/55
f 58/58/58 64/56/64 59/49/59
f 58/58/58 55/54/55 65/62/65
f 58/58/58 65/62/65 64/56/64
f 61/60/61 64/56/64 60/59/60
f 61/60/61 59/49/59 64/56/64
f 55/54/55 63/61/63 65/62/65
f 2/56/2 60/59/60 66/63/66
f 2/56/2 66/63/66 3/64/3
f 5/54/5 3/64/3 62/61/62
f 64/56/64 65/62/65 67/63/67
f 64/56/64 67/63/67 60/59/60
f 63/61/63 68/65/68 65/62/65
f 65/62/65 68/65/68 67/63/67
f 66/63/66 69/62/69 3/64/3
f 66/63/66 68/65/68 69/62/69
f 69/62/69 62/61/62 3/64/3
f 69/62/69 68/65/68 62/61/62
f 70/66/70 71/67/71 72/68/72
f 70/66/70 73/69/73 71/67/71
f 70/66/70 72/68/72 74/70/74
f 70/66/70 73/71/75 73/69/73
f 70/66/70 75/72/76 73/71/75
f 70/66/70 76/73/77 75/72/76
f 70/66/70 74/74/74 76/73/77
f 71/67/71 77/75/78 72/68/72
f 71/67/71 73/69/73 78/76/79
f 71/67/71 78/77/79 77/75/78
f 73/71/75 75/72/76 79/78/80
f 73/71/75 80/79/81 73/69/73
f 73/71/75 79/78/80 81/80/82
f 73/71/75 81/80/82 80/79/81
f 81/80/82 76/73/77 80/79/81
f 81/80/82 79/78/80 76/73/77
f 79/78/80 75/72/76 76/73/77
f 73/69/73 80/79/81 82/81/83
f 73/69/73 82/81/83 78/82/79
f 76/73/77 74/83/74 80/79/81
f 82/81/83 80/79/81 72/84/72
f 82/81/83 72/84/72 77/85/78
f 82/81/83 77/85/78 78/86/79
f 80/79/81 74/87/74 72/84/72
f 83/69/84 84/81/85 85/79/86
f 83/69/84 86/82/87 84/81/85
f 83/69/84 85/79/86 83/71/88
f 83/69/84 83/71/88 87/72/89
f 83/69/84 87/72/89 88/66/90
f 83/69/84 88/66/90 89/67/91
f 83/69/84 89/67/91 86/76/87
f 84/81/85 90/84/92 85/79/86
f 84/81/85 91/85/93 90/84/92
f 84/81/85 86/86/87 91/85/93
f 83/71/88 92/78/94 87/72/89
f 83/71/88 85/79/86 93/80/95
f 83/71/88 93/80/95 92/78/94
f 88/66/90 90/68/92 89/67/91
f 88/66/90 87/72/89 94/73/96
f 88/66/90 95/70/97 90/68/92
f 88/66/90 94/73/96 95/74/97
f 92/78/94 93/80/95 94/73/96
f 92/78/94 94/73/96 87/72/89
f 93/80/95 85/79/86 94/73/96
f 90/84/92 95/87/97 85/79/86
f 89/67/91 90/68/92 91/75/93
f 89/67/91 91/75/93 86/77/87
f 94/73/96 85/79/86 95/83/97
f 96/88/98 41/89/41 35/90/35
f 96/88/98 49/91/49 41/89/41
f 96/88/98 35/90/35 34/92/34
f 96/88/98 34/92/34 49/91/49
f 97/93/99 67/94/67 68/95/68
f 97/93/99 60/96/60 67/94/67
f 97/93/99 68/95/68 66/94/66
f 97/93/99 66/94/66 60/96/60
f 68/95/68 98/93/100 62/94/62
f 68/95/68 63/94/63 98/93/100
f 62/94/62 98/93/100 54/96/54
f 54/96/54 98/93/100 63/94/63
f 42/97/42 53/98/53 50/99/50
f 42/97/42 40/99/40 53/98/53
f 42/97/42 50/99/50 37/100/37
f 42/97/42 33/100/33 40/99/40
f 99/88/101 56/92/56 51/90/51
f 99/88/101 51/90/51 45/89/45
f 99/88/101 45/91/45 44/92/44
f 99/88/101 44/92/44 56/90/56
vt 0.0184151 1.00673
vt 0.756684 0.997203
v 0 0.330225 0.188649
vt 0.018415 0.88981
vn 0 0.5066971 0.8621242
vt 0.894196 0.873835
vt 0.945276 0.74534
vt 0.018415 0.754217
o merged_1_0_node
g polygon_0
usemtl TEX_ANIM_EYE_mat_id
f 25/101/25 26/102/26 100/103/102
f 100/103/102 26/102/26 43/104/43
f 39/104/39 32/102/32 100/103/102
f 100/103/102 32/102/32 25/101/25
f 9/105/9 39/104/39 8/106/8
f 8/106/8 39/104/39 100/103/102
f 6/105/6 8/106/8 43/104/43
f 43/104/43 8/106/8 100/103/102
