ply
format ascii 1.0
element vertex 512
property float x
property float y
property float z
property uchar red
property uchar green
property uchar blue
element face 566
property list uchar int vertex_index
end_header
0.14413 -0.29382 1.56678 252 224 221
0.51024 -0.29382 1.82984 252 224 221
0.77514 -0.29382 1.46116 252 224 221
0.40903 -0.29382 1.19811 252 224 221
0.67381 -0.24583 1.89859 113 161 79
0.67381 0.11216 1.89859 113 161 79
0.89314 0.11216 1.58864 113 161 79
0.89314 -0.24583 1.58864 113 161 79
0.61605 -0.29382 1.90586 113 161 79
0.88094 -0.29382 1.53718 113 161 79
0.51024 -0.29382 1.82984 113 161 79
0.77514 -0.29382 1.46116 113 161 79
0.61605 0.16015 1.90586 113 161 79
0.51024 0.16015 1.82984 113 161 79
0.77514 0.16015 1.46116 113 161 79
0.88094 0.16015 1.53718 113 161 79
0.40903 -0.29382 1.19811 82 108 62
0.77514 -0.29382 1.46116 82 108 62
0.77514 0.16015 1.46116 82 108 62
0.40903 0.16015 1.19811 82 108 62
0.88094 0.16015 1.53718 82 108 62
0.88094 -0.29382 1.53718 82 108 62
0.89314 0.11216 1.58864 82 108 62
0.89314 -0.24583 1.58864 82 108 62
0.14413 0.16015 1.56678 255 229 226
0.51024 0.16015 1.82984 255 229 226
0.51024 -0.29382 1.82984 255 229 226
0.14413 -0.29382 1.56678 255 229 226
0.61605 0.16015 1.90586 117 167 82
0.67381 0.11216 1.89859 117 167 82
0.67381 -0.24583 1.89859 117 167 82
0.61605 -0.29382 1.90586 117 167 82
0.51024 0.16015 1.82984 252 224 221
0.14413 0.16015 1.56678 252 224 221
0.40903 0.16015 1.19811 252 224 221
0.77514 0.16015 1.46116 252 224 221
0.51024 0.16015 1.82984 117 167 82
0.51024 -0.29382 1.82984 117 167 82
0.93797 -0.2929 0.78889 252 224 221
0.93931 -0.29395 1.07475 252 224 221
0.9398 -0.00293 1.0758 252 224 221
0.93846 -0.00188 0.78994 252 224 221
0.88474 -0.32611 1.10708 252 224 221
0.8831 -0.32482 0.75692 252 224 221
0.375 -0.32645 1.10816 252 224 221
0.375 -0.32517 0.75799 252 224 221
0.88371 0.0305 0.7582 252 224 221
0.88535 0.02921 1.10837 252 224 221
0.375 0.03061 0.75956 252 224 221
0.375 0.02932 1.10972 252 224 221
0.88535 0.02921 1.10837 255 229 226
0.9398 -0.00293 1.0758 255 229 226
0.93931 -0.29395 1.07475 255 229 226
0.88474 -0.32611 1.10708 255 229 226
0.375 0.02932 1.10972 255 229 226
0.375 -0.32645 1.10816 255 229 226
-0.93797 -0.2929 0.78889 252 224 221
-0.93846 -0.00188 0.78994 252 224 221
-0.9398 -0.00293 1.0758 252 224 221
-0.93931 -0.29395 1.07475 252 224 221
-0.88474 -0.32611 1.10708 252 224 221
-0.8831 -0.32482 0.75692 252 224 221
-0.375 -0.32645 1.10816 252 224 221
-0.375 -0.32517 0.75799 252 224 221
-0.88371 0.0305 0.7582 252 224 221
-0.88535 0.02921 1.10837 252 224 221
-0.375 0.03061 0.75956 252 224 221
-0.375 0.02932 1.10972 252 224 221
-0.88535 0.02921 1.10837 255 229 226
-0.88474 -0.32611 1.10708 255 229 226
-0.93931 -0.29395 1.07475 255 229 226
-0.9398 -0.00293 1.0758 255 229 226
-0.375 0.02932 1.10972 255 229 226
-0.375 -0.32645 1.10816 255 229 226
-0.61004 -0.51402 0.28385 252 224 221
-0.61004 -0.51402 1.50878 252 224 221
-0.54219 -0.57841 1.50878 252 224 221
-0.54219 -0.57841 0.28385 252 224 221
-0.61004 0.42027 0.28385 252 224 221
-0.61004 0.42027 1.50878 252 224 221
-0.49418 -0.52439 1.57726 252 224 221
-0.55602 -0.4657 1.57726 252 224 221
-0.55602 0.37195 1.57726 252 224 221
-0.54219 0.48466 1.50878 252 224 221
-0.54219 0.48466 0.28385 252 224 221
0.54219 0.48466 1.50878 252 224 221
0.54219 0.48466 0.28385 252 224 221
0.61004 0.42027 1.50878 252 224 221
0.61004 0.42027 0.28385 252 224 221
-0.49418 0.43064 1.57726 252 224 221
0.49418 0.43064 1.57726 252 224 221
0.55602 0.37195 1.57726 252 224 221
-0.49701 0.43382 0.22339 252 224 221
-0.5592 0.3748 0.22339 252 224 221
0.5592 0.3748 0.22339 252 224 221
0.49701 0.43382 0.22339 252 224 221
0.5592 -0.46855 0.22339 252 224 221
0.61004 -0.51402 0.28385 252 224 221
0.49701 -0.52757 0.22339 252 224 221
0.54219 -0.57841 0.28385 252 224 221
0.54219 -0.57841 1.50878 252 224 221
0.61004 -0.51402 1.50878 252 224 221
0.55602 -0.4657 1.57726 252 224 221
0.49418 -0.52439 1.57726 252 224 221
-0.49701 -0.52757 0.22339 252 224 221
-0.5592 -0.46855 0.22339 252 224 221
-0.09909 -0.57841 0.87324 252 224 221
-0.09909 -0.57841 1.04465 252 224 221
0.09909 -0.57841 0.87324 252 224 221
0.09909 -0.57841 1.04465 252 224 221
0.49418 0.43064 1.57726 255 229 226
0.55602 0.37195 1.57726 255 229 226
-0.55602 0.37195 1.57726 255 229 226
-0.49418 0.43064 1.57726 255 229 226
-0.55602 -0.4657 1.57726 255 229 226
0.55602 -0.4657 1.57726 255 229 226
-0.49418 -0.52439 1.57726 255 229 226
0.49418 -0.52439 1.57726 255 229 226
-0.09909 -0.46951 1.04465 189 150 171
0.09909 -0.46951 1.04465 189 150 171
0.09909 -0.46951 0.87324 189 150 171
-0.09909 -0.46951 0.87324 189 150 171
-0.09909 -0.57841 1.04465 189 150 171
-0.09909 -0.57841 0.87324 189 150 171
0.09909 -0.57841 0.87324 189 150 171
0.09909 -0.57841 1.04465 189 150 171
-0.2187 -0.71545 1.34695 252 224 221
-0.2187 -0.71545 1.68797 252 224 221
-0.1589 -0.71545 1.73616 252 224 221
-0.1589 -0.71545 1.29876 252 224 221
-0.1892 -0.6451 1.77788 252 224 221
-0.26042 -0.6451 1.72049 252 224 221
-0.10989 -0.71545 1.43637 252 224 221
-0.10989 -0.71545 1.60012 252 224 221
-0.1892 -0.36353 1.77788 252 224 221
-0.26042 -0.36353 1.72049 252 224 221
-0.26042 -0.6451 1.31443 252 224 221
0.1892 -0.6451 1.77788 252 224 221
0.1589 -0.71545 1.73616 252 224 221
0.26042 -0.6451 1.72049 252 224 221
0.2187 -0.71545 1.68797 252 224 221
0.26042 -0.6451 1.31443 252 224 221
0.2187 -0.71545 1.34695 252 224 221
0.1589 -0.71545 1.29876 252 224 221
0.13312 -0.71545 1.60012 252 224 221
0.13312 -0.71545 1.29876 252 224 221
0.1892 -0.6451 1.25704 252 224 221
0.13332 -0.6451 1.25704 252 224 221
0.26042 -0.36353 1.31443 252 224 221
0.26042 -0.36353 1.72049 252 224 221
0.1892 -0.36353 1.25704 252 224 221
0.1892 -0.36353 1.77788 252 224 221
0.15984 -0.30069 1.73746 252 224 221
-0.15984 -0.30069 1.73746 252 224 221
-0.15984 -0.30069 1.29746 252 224 221
-0.22 -0.30069 1.68898 252 224 221
-0.22 -0.30069 1.34594 252 224 221
-0.1892 -0.36353 1.25704 252 224 221
-0.26042 -0.36353 1.31443 252 224 221
0.15984 -0.30069 1.29746 252 224 221
0.22 -0.30069 1.68898 252 224 221
0.22 -0.30069 1.34594 252 224 221
-0.1892 -0.6451 1.25704 252 224 221
0.06874 -0.71545 1.53173 242 215 212
0.13312 -0.71545 1.60012 242 215 212
0.13312 -0.71545 1.29876 242 215 212
0.06874 -0.71545 1.29876 242 215 212
0.13332 -0.6451 1.25704 242 215 212
-0.10989 -0.71545 1.60012 242 215 212
-0.04329 -0.71545 1.53173 242 215 212
-0.10989 -0.71545 1.43637 242 215 212
-0.04329 -0.71545 1.43637 242 215 212
-0.1589 -0.71545 1.29876 242 215 212
-0.1892 -0.6451 1.25704 242 215 212
-0.26042 -0.6451 1.31443 242 215 212
-0.2187 -0.71545 1.34695 242 215 212
-0.04329 -0.71545 1.53173 252 224 221
0.06874 -0.71545 1.53173 252 224 221
-0.04329 -0.71545 1.43637 252 224 221
0.06874 -0.71545 1.29876 252 224 221
0.1892 -0.36353 1.77788 255 229 226
0.1892 -0.6451 1.77788 255 229 226
-0.1892 -0.6451 1.77788 255 229 226
-0.1892 -0.36353 1.77788 255 229 226
-0.12361 -0.53344 0.86885 227 200 214
-0.12361 -0.53344 0.95165 227 200 214
0.12361 -0.53344 0.95165 227 200 214
0.12361 -0.53344 0.86885 227 200 214
0.12361 -0.46342 0.95165 227 200 214
-0.12361 -0.46342 0.95165 227 200 214
0.21466 -0.5952 0.97198 231 198 214
0.21466 -0.5952 1.0407 231 198 214
0.37087 -0.5952 1.0407 231 198 214
0.37087 -0.5952 0.97198 231 198 214
0.37087 -0.57401 1.0407 231 198 214
0.21466 -0.57401 1.0407 231 198 214
0.21466 -0.57401 0.97198 231 198 214
0.37087 -0.57401 0.97198 231 198 214
-0.21466 -0.5952 0.97198 231 198 214
-0.37087 -0.5952 0.97198 231 198 214
-0.37087 -0.5952 1.0407 231 198 214
-0.21466 -0.5952 1.0407 231 198 214
-0.37087 -0.57401 1.0407 231 198 214
-0.21466 -0.57401 1.0407 231 198 214
-0.21466 -0.57401 0.97198 231 198 214
-0.37087 -0.57401 0.97198 231 198 214
0.12119 -0.59114 1.07343 79 158 123
0.12119 -0.59114 1.1047 79 158 123
0.17045 -0.59114 1.1047 79 158 123
0.17045 -0.59114 1.07343 79 158 123
0.12119 -0.5743 1.07343 79 158 123
0.17045 -0.5743 1.07343 79 158 123
0.17045 -0.5743 1.1047 79 158 123
0.12119 -0.5743 1.1047 79 158 123
0.12119 -0.59114 1.18899 255 255 255
0.12119 -0.5743 1.18899 255 255 255
0.17045 -0.5743 1.18899 255 255 255
0.17045 -0.59114 1.18899 255 255 255
0.12119 -0.59114 1.16064 255 255 255
0.17045 -0.59114 1.16064 255 255 255
0.17045 -0.5743 1.16064 255 255 255
0.12119 -0.5743 1.16064 255 255 255
0.12119 -0.59114 1.1047 4 31 4
0.12119 -0.59114 1.16064 4 31 4
0.17045 -0.59114 1.16064 4 31 4
0.17045 -0.59114 1.1047 4 31 4
0.17045 -0.5743 1.16064 4 31 4
0.17045 -0.5743 1.1047 4 31 4
0.12119 -0.5743 1.1047 4 31 4
0.12119 -0.5743 1.16064 4 31 4
-0.12119 -0.59114 1.07343 79 158 123
-0.17045 -0.59114 1.07343 79 158 123
-0.17045 -0.59114 1.1047 79 158 123
-0.12119 -0.59114 1.1047 79 158 123
-0.12119 -0.5743 1.07343 79 158 123
-0.17045 -0.5743 1.07343 79 158 123
-0.17045 -0.5743 1.1047 79 158 123
-0.12119 -0.5743 1.1047 79 158 123
-0.12119 -0.59114 1.18899 255 255 255
-0.17045 -0.59114 1.18899 255 255 255
-0.17045 -0.5743 1.18899 255 255 255
-0.12119 -0.5743 1.18899 255 255 255
-0.12119 -0.59114 1.16064 255 255 255
-0.17045 -0.59114 1.16064 255 255 255
-0.17045 -0.5743 1.16064 255 255 255
-0.12119 -0.5743 1.16064 255 255 255
-0.12119 -0.59114 1.1047 4 31 4
-0.17045 -0.59114 1.1047 4 31 4
-0.17045 -0.59114 1.16064 4 31 4
-0.12119 -0.59114 1.16064 4 31 4
-0.17045 -0.5743 1.16064 4 31 4
-0.17045 -0.5743 1.1047 4 31 4
-0.12119 -0.5743 1.1047 4 31 4
-0.12119 -0.5743 1.16064 4 31 4
0.22198 -0.58318 1.06518 242 215 212
0.22198 -0.58318 1.07914 242 215 212
0.23634 -0.58318 1.07914 242 215 212
0.23634 -0.58318 1.06518 242 215 212
0.22198 -0.57613 1.06518 242 215 212
0.23634 -0.57613 1.06518 242 215 212
0.23634 -0.57613 1.07914 242 215 212
0.23634 -0.58318 1.18847 242 215 212
0.22198 -0.58318 1.18847 242 215 212
0.23634 -0.58318 1.20178 242 215 212
0.22198 -0.58318 1.20178 242 215 212
0.23634 -0.57613 1.20178 242 215 212
0.22198 -0.57613 1.20178 242 215 212
0.23634 -0.57613 1.18847 242 215 212
0.22198 -0.57613 1.07914 242 215 212
0.22198 -0.57613 1.18847 242 215 212
0.20273 -0.58318 1.06518 242 215 212
0.20273 -0.57613 1.06518 242 215 212
0.20273 -0.58318 1.07914 242 215 212
0.20273 -0.57613 1.07914 242 215 212
0.20273 -0.58318 1.18847 242 215 212
0.20273 -0.57613 1.18847 242 215 212
0.20273 -0.58318 1.20178 242 215 212
0.20273 -0.57613 1.20178 242 215 212
-0.22198 -0.58318 1.06518 242 215 212
-0.23634 -0.58318 1.06518 242 215 212
-0.23634 -0.58318 1.07914 242 215 212
-0.22198 -0.58318 1.07914 242 215 212
-0.22198 -0.57613 1.06518 242 215 212
-0.23634 -0.57613 1.06518 242 215 212
-0.23634 -0.57613 1.07914 242 215 212
-0.23634 -0.58318 1.18847 242 215 212
-0.22198 -0.58318 1.18847 242 215 212
-0.23634 -0.58318 1.20178 242 215 212
-0.22198 -0.58318 1.20178 242 215 212
-0.23634 -0.57613 1.20178 242 215 212
-0.22198 -0.57613 1.20178 242 215 212
-0.23634 -0.57613 1.18847 242 215 212
-0.20273 -0.58318 1.06518 242 215 212
-0.20273 -0.57613 1.06518 242 215 212
-0.20273 -0.58318 1.07914 242 215 212
-0.20273 -0.57613 1.07914 242 215 212
-0.22198 -0.57613 1.07914 242 215 212
-0.20273 -0.58318 1.20178 242 215 212
-0.20273 -0.58318 1.18847 242 215 212
-0.20273 -0.57613 1.18847 242 215 212
-0.20273 -0.57613 1.20178 242 215 212
-0.22198 -0.57613 1.18847 242 215 212
0.05142 -0.57023 0.99507 255 255 255
0.05142 -0.57023 1.04687 255 255 255
0.10322 -0.57023 1.04687 255 255 255
0.10322 -0.57023 0.99507 255 255 255
0.05142 -0.51843 0.99507 255 255 255
0.10322 -0.51843 0.99507 255 255 255
0.05142 -0.51843 1.04687 255 255 255
0.10322 -0.51843 1.04687 255 255 255
-0.19127 0.98428 0.9478 252 224 221
-0.15 0.99544 0.97922 252 224 221
-0.15 0.4432 0.97922 252 224 221
-0.19127 0.4432 0.9478 252 224 221
-0.15 1.03231 0.9476 252 224 221
-0.19127 0.87564 0.83132 252 224 221
-0.19127 0.87564 0.51612 252 224 221
-0.19127 0.98428 0.41717 252 224 221
-0.19127 0.4432 0.41717 252 224 221
-0.15 0.4432 0.38575 252 224 221
-0.15 0.99544 0.38575 252 224 221
-0.19127 0.61875 0.51612 252 224 221
-0.19127 0.61875 0.60992 252 224 221
-0.19127 0.4432 0.74015 252 224 221
-0.19127 0.77453 0.74015 252 224 221
-0.19127 0.77453 0.60992 252 224 221
-0.19127 0.4432 0.83132 252 224 221
0.15 1.03231 0.9476 252 224 221
0.15 0.99544 0.97922 252 224 221
0.15 0.99544 0.38575 252 224 221
0.15 0.4432 0.38575 252 224 221
0.19127 0.98428 0.9478 252 224 221
0.19127 0.4432 0.9478 252 224 221
0.19127 0.87564 0.83132 252 224 221
0.19127 0.4432 0.83132 252 224 221
0.19127 0.87564 0.51612 252 224 221
0.19127 0.98428 0.41717 252 224 221
0.19127 0.4432 0.41717 252 224 221
0.19127 0.61875 0.51612 252 224 221
0.19127 0.4432 0.74015 252 224 221
0.19127 0.61875 0.60992 252 224 221
0.19127 0.77453 0.60992 252 224 221
0.19127 0.77453 0.74015 252 224 221
0.15 0.4432 0.97922 252 224 221
0.15 1.03231 0.41725 252 224 221
-0.15 1.03231 0.41725 252 224 221
-0.19127 0.77453 0.60992 236 210 207
-0.19127 0.61875 0.60992 236 210 207
-0.19127 0.61875 0.51612 236 210 207
-0.19127 0.87564 0.51612 236 210 207
-0.19127 0.87564 0.83132 236 210 207
-0.19127 0.77453 0.74015 236 210 207
-0.19127 0.4432 0.74015 236 210 207
-0.19127 0.4432 0.83132 236 210 207
0.19127 0.77453 0.60992 236 210 207
0.19127 0.77453 0.74015 236 210 207
0.19127 0.87564 0.83132 236 210 207
0.19127 0.87564 0.51612 236 210 207
0.19127 0.4432 0.74015 236 210 207
0.19127 0.4432 0.83132 236 210 207
0.19127 0.61875 0.51612 236 210 207
0.19127 0.61875 0.60992 236 210 207
-0.15 0.99544 0.97922 255 229 226
0.15 0.99544 0.97922 255 229 226
0.15 0.4432 0.97922 255 229 226
-0.15 0.4432 0.97922 255 229 226
0.11043 0.48065 1.42339 255 228 225
0.11043 0.55537 1.42339 255 228 225
0.38918 0.55537 1.42339 255 228 225
0.38918 0.48065 1.42339 255 228 225
0.41151 0.48065 1.39687 255 228 225
0.41151 0.55537 1.39687 255 228 225
0.08811 0.55537 1.39687 255 228 225
0.08811 0.48065 1.39687 255 228 225
0.30777 0.55537 1.18055 255 227 224
0.41151 0.55537 1.21053 255 227 224
0.41151 0.55537 1.39687 255 227 224
0.41151 0.48065 1.21053 255 227 224
0.39034 0.48065 1.18055 255 227 224
0.39034 0.55537 1.18055 255 227 224
0.30777 0.48065 1.18055 255 227 224
0.30777 0.48065 1.0437 255 227 224
0.30777 0.55537 1.0437 255 227 224
0.28331 0.48065 1.01678 255 227 224
0.28331 0.55537 1.01678 255 227 224
0.11257 0.55537 1.01678 255 227 224
0.11257 0.48065 1.01678 255 227 224
0.08811 0.55537 1.0437 255 227 224
0.08811 0.48065 1.0437 255 227 224
0.08811 0.55537 1.39687 255 227 224
0.08811 0.48065 1.39687 255 227 224
0.11043 0.55537 1.42339 255 227 224
0.38918 0.55537 1.42339 255 227 224
0.41151 0.48065 1.39687 255 227 224
-0.11043 0.48065 1.42339 255 228 225
-0.38918 0.48065 1.42339 255 228 225
-0.38918 0.55537 1.42339 255 228 225
-0.11043 0.55537 1.42339 255 228 225
-0.41151 0.48065 1.39687 255 228 225
-0.41151 0.55537 1.39687 255 228 225
-0.08811 0.55537 1.39687 255 228 225
-0.08811 0.48065 1.39687 255 228 225
-0.11257 0.55537 1.01678 255 227 224
-0.28331 0.55537 1.01678 255 227 224
-0.28331 0.48065 1.01678 255 227 224
-0.11257 0.48065 1.01678 255 227 224
-0.08811 0.55537 1.0437 255 227 224
-0.30777 0.55537 1.0437 255 227 224
-0.30777 0.48065 1.0437 255 227 224
-0.30777 0.55537 1.18055 255 227 224
-0.30777 0.48065 1.18055 255 227 224
-0.39034 0.55537 1.18055 255 227 224
-0.39034 0.48065 1.18055 255 227 224
-0.41151 0.55537 1.21053 255 227 224
-0.41151 0.48065 1.21053 255 227 224
-0.08811 0.48065 1.0437 255 227 224
-0.08811 0.55537 1.39687 255 227 224
-0.08811 0.48065 1.39687 255 227 224
-0.41151 0.55537 1.39687 255 227 224
-0.11043 0.55537 1.42339 255 227 224
-0.38918 0.55537 1.42339 255 227 224
-0.41151 0.48065 1.39687 255 227 224
-0.46685 -0.19417 0.00192 252 224 221
-0.46685 -0.19417 0.23402 252 224 221
-0.41391 -0.23782 0.077 252 224 221
-0.46685 0.08199 0.23402 252 224 221
-0.46685 0.08199 0.00192 252 224 221
-0.41384 -0.16923 0.00192 252 224 221
-0.41401 -0.23782 0.23402 252 224 221
-0.1769 -0.23782 0.23402 252 224 221
-0.17709 -0.23782 0.077 252 224 221
-0.1256 -0.19417 0.23402 252 224 221
-0.41391 -0.23782 0.00192 252 224 221
-0.1256 -0.19417 0.00192 252 224 221
-0.1256 0.08199 0.23402 252 224 221
-0.1256 0.08199 0.00192 252 224 221
-0.17709 -0.23782 0.00192 252 224 221
-0.17698 -0.16923 0.00192 252 224 221
-0.15812 0.11688 0.00192 252 224 221
-0.43433 0.11688 0.00192 252 224 221
-0.15812 0.11688 0.23402 252 224 221
-0.43433 0.11688 0.23402 252 224 221
-0.17709 -0.23782 0.077 240 240 240
-0.17709 -0.23782 0.00192 240 240 240
-0.41391 -0.23782 0.00192 240 240 240
-0.41391 -0.23782 0.077 240 240 240
-0.17698 -0.16923 0.00192 240 240 240
-0.41384 -0.16923 0.00192 240 240 240
0.46685 -0.19417 0.00192 252 224 221
0.41391 -0.23782 0.077 252 224 221
0.46685 -0.19417 0.23402 252 224 221
0.46685 0.08199 0.23402 252 224 221
0.46685 0.08199 0.00192 252 224 221
0.41384 -0.16923 0.00192 252 224 221
0.41401 -0.23782 0.23402 252 224 221
0.1769 -0.23782 0.23402 252 224 221
0.17709 -0.23782 0.077 252 224 221
0.1256 -0.19417 0.23402 252 224 221
0.41391 -0.23782 0.00192 252 224 221
0.1256 -0.19417 0.00192 252 224 221
0.1256 0.08199 0.23402 252 224 221
0.1256 0.08199 0.00192 252 224 221
0.17709 -0.23782 0.00192 252 224 221
0.17698 -0.16923 0.00192 252 224 221
0.15812 0.11688 0.00192 252 224 221
0.43433 0.11688 0.00192 252 224 221
0.15812 0.11688 0.23402 252 224 221
0.43433 0.11688 0.23402 252 224 221
0.17709 -0.23782 0.077 240 240 240
0.41391 -0.23782 0.077 240 240 240
0.41391 -0.23782 0.00192 240 240 240
0.17709 -0.23782 0.00192 240 240 240
0.17698 -0.16923 0.00192 240 240 240
0.41384 -0.16923 0.00192 240 240 240
-0.14832 -0.29382 1.5698 252 224 221
-0.41322 -0.29382 1.20112 252 224 221
-0.77514 -0.29382 1.46116 252 224 221
-0.51024 -0.29382 1.82984 252 224 221
-0.67381 -0.24583 1.89859 113 161 79
-0.89314 -0.24583 1.58864 113 161 79
-0.89314 0.11216 1.58864 113 161 79
-0.67381 0.11216 1.89859 113 161 79
-0.61605 -0.29382 1.90586 113 161 79
-0.88094 -0.29382 1.53718 113 161 79
-0.51024 -0.29382 1.82984 113 161 79
-0.77514 -0.29382 1.46116 113 161 79
-0.61605 0.16015 1.90586 113 161 79
-0.88094 0.16015 1.53718 113 161 79
-0.77514 0.16015 1.46116 113 161 79
-0.51024 0.16015 1.82984 113 161 79
-0.41322 -0.29382 1.20112 82 108 62
-0.41322 0.16015 1.20112 82 108 62
-0.77514 0.16015 1.46116 82 108 62
-0.77514 -0.29382 1.46116 82 108 62
-0.88094 0.16015 1.53718 82 108 62
-0.88094 -0.29382 1.53718 82 108 62
-0.89314 0.11216 1.58864 82 108 62
-0.89314 -0.24583 1.58864 82 108 62
-0.14832 0.16015 1.5698 255 229 226
-0.14832 -0.29382 1.5698 255 229 226
-0.51024 -0.29382 1.82984 255 229 226
-0.51024 0.16015 1.82984 255 229 226
-0.61605 0.16015 1.90586 117 167 82
-0.61605 -0.29382 1.90586 117 167 82
-0.67381 -0.24583 1.89859 117 167 82
-0.67381 0.11216 1.89859 117 167 82
-0.51024 0.16015 1.82984 252 224 221
-0.77514 0.16015 1.46116 252 224 221
-0.41322 0.16015 1.20112 252 224 221
-0.14832 0.16015 1.5698 252 224 221
-0.51024 0.16015 1.82984 117 167 82
-0.51024 -0.29382 1.82984 117 167 82
3 0 2 1
3 0 3 2
3 4 6 5
3 4 7 6
3 8 7 4
3 8 9 7
3 10 9 8
3 10 11 9
3 12 14 13
3 12 15 14
3 15 12 5
3 15 5 6
3 16 18 17
3 16 19 18
3 17 18 20
3 17 20 21
3 21 20 22
3 21 22 23
3 24 26 25
3 24 27 26
3 28 30 29
3 28 31 30
3 32 34 33
3 32 35 34
3 36 31 28
3 36 37 31
3 38 40 39
3 38 41 40
3 42 38 39
3 42 43 38
3 44 43 42
3 44 45 43
3 43 41 38
3 43 46 41
3 46 40 41
3 46 47 40
3 48 47 46
3 48 49 47
3 45 46 43
3 45 48 46
3 50 52 51
3 50 53 52
3 54 53 50
3 54 55 53
3 56 58 57
3 56 59 58
3 60 59 56
3 60 56 61
3 62 60 61
3 62 61 63
3 61 57 64
3 61 56 57
3 64 57 58
3 64 58 65
3 66 64 65
3 66 65 67
3 63 64 66
3 63 61 64
3 68 70 69
3 68 71 70
3 72 68 69
3 72 69 73
3 74 76 75
3 74 77 76
3 78 74 75
3 78 75 79
3 75 76 80
3 75 80 81
3 79 75 81
3 79 81 82
3 83 79 82
3 79 83 84
3 79 84 78
3 84 83 85
3 84 85 86
3 86 85 87
3 86 87 88
3 85 83 89
3 83 82 89
3 85 89 90
3 87 85 90
3 87 90 91
3 78 84 92
3 78 92 93
3 94 93 92
3 86 88 94
3 94 92 95
3 84 95 92
3 84 86 95
3 86 94 95
3 88 96 94
3 96 93 94
3 88 97 96
3 97 98 96
3 97 99 98
3 100 99 97
3 100 97 101
3 97 87 101
3 97 88 87
3 100 101 102
3 100 102 103
3 76 100 103
3 76 103 80
3 101 91 102
3 101 87 91
3 99 104 98
3 99 77 104
3 77 105 104
3 98 105 96
3 98 104 105
3 77 74 105
3 74 93 105
3 74 78 93
3 76 77 106
3 76 106 107
3 77 108 106
3 77 99 108
3 99 109 108
3 99 100 109
3 100 107 109
3 100 76 107
3 96 105 93
3 110 112 111
3 110 113 112
3 111 112 114
3 111 114 115
3 115 114 116
3 115 116 117
3 118 120 119
3 118 121 120
3 122 121 118
3 122 123 121
3 123 120 121
3 123 124 120
3 124 119 120
3 124 125 119
3 125 118 119
3 125 122 118
3 126 128 127
3 126 129 128
3 127 128 130
3 127 130 131
3 131 126 127
3 128 129 132
3 128 132 133
3 131 130 134
3 131 134 135
3 131 136 126
3 137 130 128
3 137 128 138
3 139 137 138
3 139 138 140
3 141 139 140
3 141 140 142
3 138 142 140
3 138 143 142
3 143 141 142
3 143 138 144
3 143 144 145
3 145 146 143
3 143 146 141
3 145 147 146
3 139 141 148
3 139 148 149
3 146 147 150
3 141 150 148
3 141 146 150
3 128 144 138
3 128 133 144
3 149 137 139
3 149 151 137
3 152 151 149
3 153 151 152
3 153 134 151
3 154 153 152
3 155 153 154
3 155 154 156
3 156 154 157
3 156 157 158
3 156 135 155
3 156 158 135
3 135 153 155
3 135 134 153
3 154 152 159
3 152 149 160
3 159 152 160
3 159 160 161
3 149 161 160
3 158 157 162
3 158 162 136
3 135 158 136
3 135 136 131
3 150 154 159
3 150 157 154
3 148 159 161
3 148 150 159
3 149 148 161
3 150 147 157
3 157 147 162
3 163 165 164
3 163 166 165
3 166 167 165
3 163 164 168
3 163 168 169
3 169 168 170
3 169 170 171
3 172 167 166
3 172 173 167
3 174 173 172
3 174 172 175
3 176 178 177
3 177 178 179
3 179 178 132
3 179 132 129
3 180 182 181
3 180 183 182
3 184 186 185
3 184 187 186
3 185 186 188
3 185 188 189
3 190 192 191
3 190 193 192
3 191 192 194
3 193 194 192
3 191 194 195
3 196 193 190
3 196 191 195
3 196 190 191
3 196 197 193
3 193 197 194
3 198 200 199
3 198 201 200
3 201 202 200
3 199 200 202
3 201 203 202
3 204 198 199
3 204 201 198
3 204 203 201
3 204 199 205
3 199 202 205
3 206 208 207
3 206 209 208
3 210 209 206
3 210 206 207
3 210 211 209
3 209 212 208
3 209 211 212
3 210 207 213
3 214 216 215
3 214 217 216
3 218 217 214
3 218 219 217
3 219 216 217
3 219 220 216
3 221 214 215
3 221 218 214
3 222 224 223
3 222 225 224
3 225 226 224
3 225 227 226
3 228 222 223
3 228 223 229
3 230 232 231
3 230 233 232
3 234 230 231
3 234 233 230
3 234 231 235
3 231 236 235
3 231 232 236
3 234 237 233
3 238 240 239
3 238 241 240
3 242 238 239
3 242 239 243
3 243 239 240
3 243 240 244
3 245 238 242
3 245 241 238
3 246 248 247
3 246 249 248
3 247 248 250
3 247 250 251
3 252 249 246
3 252 253 249
3 254 256 255
3 254 257 256
3 258 257 254
3 258 259 257
3 257 260 256
3 257 259 260
3 255 256 261
3 255 261 262
3 262 261 263
3 262 263 264
3 264 263 265
3 261 265 263
3 264 265 266
3 261 267 265
3 256 267 261
3 256 260 267
3 268 255 262
3 268 262 269
3 258 254 270
3 258 270 271
3 271 270 272
3 254 272 270
3 271 272 273
3 254 255 272
3 255 273 272
3 255 268 273
3 269 262 274
3 269 274 275
3 275 274 276
3 275 276 277
3 264 277 276
3 264 266 277
3 262 276 274
3 262 264 276
3 278 280 279
3 278 281 280
3 282 278 279
3 282 279 283
3 279 284 283
3 279 280 284
3 281 285 280
3 281 286 285
3 286 287 285
3 286 288 287
3 288 289 287
3 285 287 289
3 288 290 289
3 285 289 291
3 280 291 284
3 280 285 291
3 282 292 278
3 282 293 292
3 293 294 292
3 293 295 294
3 281 294 295
3 278 294 281
3 278 292 294
3 281 295 296
3 286 297 288
3 286 298 297
3 299 297 298
3 299 300 297
3 288 300 290
3 288 297 300
3 301 298 286
3 301 299 298
3 296 301 286
3 296 286 281
3 302 304 303
3 302 305 304
3 306 305 302
3 306 302 303
3 306 307 305
3 306 303 308
3 308 307 306
3 308 309 307
3 310 312 311
3 310 313 312
3 310 311 314
3 310 315 313
3 310 316 315
3 310 317 316
3 316 317 318
3 317 319 318
3 317 320 319
3 316 318 321
3 318 322 321
3 318 323 322
3 322 323 324
3 322 324 325
3 313 315 326
3 327 314 311
3 327 311 328
3 319 320 329
3 319 329 330
3 331 327 328
3 328 332 331
3 331 332 333
3 333 332 334
3 331 333 335
3 331 335 336
3 330 329 336
3 336 327 331
3 335 337 336
3 330 336 337
3 335 338 337
3 339 337 338
3 339 338 340
3 339 340 341
3 339 341 342
3 328 343 332
3 329 344 336
3 336 344 327
3 344 314 327
3 344 345 314
3 310 314 345
3 310 345 317
3 320 345 344
3 317 345 320
3 320 344 329
3 346 348 347
3 346 349 348
3 346 350 349
3 346 351 350
3 350 351 352
3 350 352 353
3 354 356 355
3 354 357 356
3 356 358 355
3 356 359 358
3 354 360 357
3 354 361 360
3 362 364 363
3 362 365 364
3 366 368 367
3 366 369 368
3 370 368 369
3 370 371 368
3 372 366 367
3 372 373 366
3 374 376 375
3 377 375 376
3 378 375 377
3 378 379 375
3 374 375 379
3 380 379 378
3 380 374 379
3 374 380 381
3 374 381 382
3 382 381 383
3 382 383 384
3 385 384 383
3 385 383 386
3 387 384 385
3 387 382 384
3 387 374 382
3 388 385 386
3 388 387 385
3 389 387 388
3 389 374 387
3 389 376 374
3 389 388 390
3 376 389 391
3 376 391 392
3 377 376 393
3 394 396 395
3 394 397 396
3 398 395 396
3 398 396 399
3 400 397 394
3 400 394 401
3 402 404 403
3 402 405 404
3 406 402 403
3 406 403 407
3 407 403 404
3 407 404 408
3 409 407 408
3 406 407 409
3 409 408 410
3 410 411 409
3 410 412 411
3 412 413 411
3 413 409 411
3 412 414 413
3 415 402 406
3 415 405 402
3 416 415 406
3 416 406 409
3 416 417 415
3 414 418 413
3 416 409 418
3 418 409 413
3 418 419 416
3 418 420 419
3 414 421 418
3 422 424 423
3 425 422 423
3 425 426 422
3 426 427 422
3 428 423 424
3 429 428 424
3 429 424 430
3 431 429 430
3 422 432 424
3 427 432 422
3 430 433 431
3 434 431 433
3 434 433 435
3 430 436 433
3 433 436 437
3 435 433 437
3 426 437 427
3 426 435 437
3 426 438 435
3 426 439 438
3 440 438 439
3 435 438 440
3 440 439 441
3 425 439 426
3 425 441 439
3 435 440 434
3 442 444 443
3 442 445 444
3 446 443 444
3 446 444 447
3 448 450 449
3 451 450 448
3 451 448 452
3 452 448 453
3 454 449 450
3 455 449 454
3 455 456 449
3 457 456 455
3 448 449 458
3 453 448 458
3 456 457 459
3 460 459 457
3 460 461 459
3 456 459 462
3 459 463 462
3 461 463 459
3 452 453 463
3 452 463 461
3 452 461 464
3 452 464 465
3 466 465 464
3 461 466 464
3 466 467 465
3 451 465 467
3 451 452 465
3 461 460 466
3 468 470 469
3 468 471 470
3 472 470 471
3 472 473 470
3 474 476 475
3 474 477 476
3 478 480 479
3 478 481 480
3 482 478 479
3 482 479 483
3 484 482 483
3 484 483 485
3 486 488 487
3 486 489 488
3 487 481 486
3 487 480 481
3 490 492 491
3 490 493 492
3 493 494 492
3 493 495 494
3 495 496 494
3 495 497 496
3 498 500 499
3 498 501 500
3 502 504 503
3 502 505 504
3 506 508 507
3 506 509 508
3 510 503 511
3 510 502 503
