ply
format ascii 1.0
element vertex 784
property float x
property float y
property float z
property uchar red
property uchar green
property uchar blue
element face 814
property list uchar int vertex_index
end_header
0.24016 -0.93816 1.93676 255 255 255
0.24016 -0.98131 1.93676 255 255 255
0.09549 -0.98131 1.93676 255 255 255
0.09549 -0.93816 1.93676 255 255 255
0.24016 -0.98131 1.77929 255 255 255
0.24016 -0.93816 1.77929 255 255 255
0.20561 -0.98131 1.85117 255 255 255
0.20561 -0.98131 1.90962 255 255 255
0.09549 -0.98131 1.90958 255 255 255
0.09549 -0.93816 1.77929 255 255 255
0.09549 -0.98131 1.80645 255 255 255
0.09549 -0.98131 1.77929 255 255 255
0.14189 -0.98131 1.80644 255 255 255
0.20561 -0.98131 1.80642 255 255 255
0.16219 -0.98131 1.85115 255 255 255
0.16219 -0.98131 1.83392 255 255 255
0.14183 -0.98131 1.83392 255 255 255
0.16219 -0.98131 1.88556 255 255 255
0.12106 -0.98131 1.83392 255 255 255
0.12106 -0.98131 1.88556 255 255 255
0.20561 -0.98131 1.90962 56 47 38
0.16219 -0.98131 1.88556 56 47 38
0.12106 -0.98131 1.88556 56 47 38
0.09549 -0.98131 1.90958 56 47 38
0.12106 -0.98131 1.83392 56 47 38
0.09549 -0.98131 1.80645 56 47 38
0.16219 -0.98131 1.85115 56 47 38
0.20561 -0.98131 1.85117 56 47 38
0.14183 -0.98131 1.83392 56 47 38
0.14189 -0.98131 1.80644 56 47 38
0.14183 -0.98131 1.83392 71 62 53
0.16219 -0.98131 1.83392 71 62 53
0.20561 -0.98131 1.80642 71 62 53
0.14189 -0.98131 1.80644 71 62 53
0.16219 -0.98131 1.85115 71 62 53
0.20561 -0.98131 1.85117 71 62 53
1.01043 0.18882 1.61772 202 183 79
1.01043 0.18882 1.76396 202 183 79
0.24691 0.18882 1.76396 202 183 79
0.24691 0.18882 1.61772 202 183 79
1.03938 0.16359 1.76396 202 183 79
1.03938 0.16359 1.61772 202 183 79
1.01043 -0.28945 1.61772 202 183 79
0.24691 -0.28945 1.61772 202 183 79
1.03938 -0.26423 1.61772 202 183 79
1.03938 -0.26423 1.76396 202 183 79
1.01043 0.18882 1.76396 210 190 82
1.01043 -0.28945 1.76396 210 190 82
0.24691 -0.28945 1.76396 210 190 82
0.24691 0.18882 1.76396 210 190 82
1.03938 -0.26423 1.76396 210 190 82
1.03938 0.16359 1.76396 210 190 82
1.01043 -0.28945 1.76396 202 183 79
0.24691 -0.28945 1.76396 202 183 79
1.32632 0.47752 1.49374 242 245 137
1.32632 0.47752 1.63415 242 245 137
0.24691 0.47752 1.63415 242 245 137
0.24691 0.47752 1.49374 242 245 137
1.35454 0.45121 1.63415 242 245 137
1.35454 0.45121 1.49374 242 245 137
1.32632 -0.21791 1.49374 242 245 137
0.24691 -0.21791 1.49374 242 245 137
1.35454 -0.19161 1.49374 242 245 137
1.35454 -0.19161 1.63415 242 245 137
1.32632 0.47752 1.63415 248 252 141
1.32632 -0.21791 1.63415 248 252 141
0.24691 -0.21791 1.63415 248 252 141
0.24691 0.47752 1.63415 248 252 141
1.35454 -0.19161 1.63415 248 252 141
1.35454 0.45121 1.63415 248 252 141
1.32632 -0.21791 1.63415 242 245 137
0.24691 -0.21791 1.63415 242 245 137
1.4745 0.34533 1.50559 242 245 137
1.4745 0.34533 1.57442 242 245 137
1.31477 0.34533 1.57442 242 245 137
1.31477 0.34533 1.50559 242 245 137
1.50059 0.32536 1.57442 242 245 137
1.50059 0.32536 1.50559 242 245 137
1.4745 -0.12078 1.50559 242 245 137
1.31477 -0.12078 1.50559 242 245 137
1.50059 -0.10081 1.50559 242 245 137
1.50059 -0.10081 1.57442 242 245 137
1.4745 0.34533 1.57442 248 252 141
1.4745 -0.12078 1.57442 248 252 141
1.31477 -0.12078 1.57442 248 252 141
1.31477 0.34533 1.57442 248 252 141
1.50059 -0.10081 1.57442 248 252 141
1.50059 0.32536 1.57442 248 252 141
1.4745 -0.12078 1.57442 242 245 137
1.31477 -0.12078 1.57442 242 245 137
1.23494 0.73286 1.50559 242 245 137
1.23494 0.73286 1.57442 242 245 137
0.86369 0.73286 1.57442 242 245 137
0.86369 0.73286 1.50559 242 245 137
1.25767 0.70476 1.50559 242 245 137
0.84096 0.70476 1.50559 242 245 137
1.25767 0.46588 1.50559 242 245 137
0.84096 0.46588 1.50559 242 245 137
0.84096 0.70476 1.57442 242 245 137
0.84096 0.46588 1.57442 242 245 137
1.25767 0.70476 1.57442 248 252 141
1.25767 0.46588 1.57442 248 252 141
0.84096 0.46588 1.57442 248 252 141
0.84096 0.70476 1.57442 248 252 141
1.23494 0.73286 1.57442 248 252 141
0.86369 0.73286 1.57442 248 252 141
1.25767 0.46588 1.57442 242 245 137
1.25767 0.70476 1.57442 242 245 137
0.73144 0.63504 1.50559 242 245 137
0.73144 0.63504 1.57442 242 245 137
0.51724 0.63504 1.57442 242 245 137
0.51724 0.63504 1.50559 242 245 137
0.75373 0.60694 1.50559 242 245 137
0.49495 0.60694 1.50559 242 245 137
0.75373 0.46113 1.50559 242 245 137
0.49495 0.46113 1.50559 242 245 137
0.49495 0.60694 1.57442 242 245 137
0.49495 0.46113 1.57442 242 245 137
0.75373 0.60694 1.57442 248 252 141
0.75373 0.46113 1.57442 248 252 141
0.49495 0.46113 1.57442 248 252 141
0.49495 0.60694 1.57442 248 252 141
0.73144 0.63504 1.57442 248 252 141
0.51724 0.63504 1.57442 248 252 141
0.75373 0.46113 1.57442 242 245 137
0.75373 0.60694 1.57442 242 245 137
1.12394 0.08468 1.61172 202 183 79
1.12394 0.08468 1.70021 202 183 79
0.99613 0.08468 1.70021 202 183 79
0.99613 0.08468 1.61172 202 183 79
1.14622 0.06982 1.70021 202 183 79
1.14622 0.06982 1.61172 202 183 79
1.14622 -0.13371 1.61172 202 183 79
1.14622 -0.13371 1.70021 202 183 79
1.12394 -0.14856 1.70021 202 183 79
1.12394 -0.14856 1.61172 202 183 79
0.99613 -0.14856 1.61172 202 183 79
0.99613 -0.14856 1.70021 202 183 79
1.12394 0.08468 1.70021 210 190 82
1.12394 -0.14856 1.70021 210 190 82
0.99613 -0.14856 1.70021 210 190 82
0.99613 0.08468 1.70021 210 190 82
1.14622 -0.13371 1.70021 210 190 82
1.14622 0.06982 1.70021 210 190 82
0.84726 0.33975 1.61172 202 183 79
0.84726 0.33975 1.70021 202 183 79
0.57708 0.33975 1.70021 202 183 79
0.57708 0.33975 1.61172 202 183 79
0.56434 0.32324 1.61172 202 183 79
0.56434 0.32324 1.70021 202 183 79
0.56434 0.17989 1.70021 202 183 79
0.56434 0.17989 1.61172 202 183 79
0.86 0.32324 1.70021 202 183 79
0.86 0.32324 1.61172 202 183 79
0.86 0.17989 1.61172 202 183 79
0.86 0.17989 1.70021 202 183 79
0.86 0.32324 1.70021 210 190 82
0.86 0.17989 1.70021 210 190 82
0.56434 0.17989 1.70021 210 190 82
0.56434 0.32324 1.70021 210 190 82
0.84726 0.33975 1.70021 210 190 82
0.57708 0.33975 1.70021 210 190 82
-0.26895 0.55487 0.92246 239 239 239
-0.18026 0.55487 0.92246 239 239 239
-0.18026 0.50489 1.055 239 239 239
-0.26895 0.50489 1.055 239 239 239
-0.18026 0.49988 0.90215 239 239 239
-0.26895 0.49988 0.90215 239 239 239
-0.18026 0.44896 1.03481 239 239 239
-0.26895 0.44896 1.03481 239 239 239
-0.26895 0.19637 1.10992 217 194 69
-0.18026 0.19637 1.10992 217 194 69
-0.18026 0.25087 0.96598 217 194 69
-0.26895 0.25087 0.96598 217 194 69
-0.18026 0.2995 0.83036 217 194 69
-0.26895 0.2995 0.83036 217 194 69
-0.18026 0.38516 0.86105 217 194 69
-0.26895 0.38516 0.86105 217 194 69
-0.18026 0.33653 0.99667 217 194 69
-0.09519 0.33651 0.99661 217 194 69
-0.09519 0.38513 0.861 217 194 69
-0.18026 0.28203 1.14061 217 194 69
-0.26895 0.33653 0.99667 217 194 69
-0.26895 0.28203 1.14061 217 194 69
-0.35402 0.38513 0.861 217 194 69
-0.18026 0.44896 1.03481 217 194 69
-0.18026 0.49988 0.90215 217 194 69
-0.26895 0.49988 0.90215 217 194 69
-0.35402 0.33651 0.99661 217 194 69
-0.26895 0.44896 1.03481 217 194 69
-0.09519 0.18185 0.78822 217 194 69
-0.35402 0.13093 0.92456 217 194 69
-0.35402 0.18185 0.78822 217 194 69
-0.09519 0.13093 0.92456 217 194 69
-0.26895 0.18185 0.78822 217 194 69
-0.26895 0.13093 0.92456 217 194 69
-0.18026 0.18185 0.78822 217 194 69
-0.18026 0.13093 0.92456 217 194 69
-0.18026 0.11563 0.76449 239 239 239
-0.18026 0.06289 0.89917 239 239 239
-0.09519 0.06289 0.89917 239 239 239
-0.09519 0.11563 0.76449 239 239 239
-0.18026 0.18185 0.78822 239 239 239
-0.18026 0.13093 0.92456 239 239 239
-0.09519 0.18185 0.78822 239 239 239
-0.09519 0.13093 0.92456 239 239 239
-0.18026 0.25087 0.96598 227 203 72
-0.18026 0.33653 0.99667 227 203 72
-0.09519 0.33651 0.99661 227 203 72
-0.26895 0.33653 0.99667 227 203 72
-0.26895 0.44896 1.03481 227 203 72
-0.18026 0.44896 1.03481 227 203 72
-0.26895 0.25087 0.96598 227 203 72
-0.35402 0.33651 0.99661 227 203 72
-0.26895 0.06289 0.89917 239 239 239
-0.26895 0.11563 0.76449 239 239 239
-0.35402 0.11563 0.76449 239 239 239
-0.35402 0.06289 0.89917 239 239 239
-0.26895 0.13093 0.92456 239 239 239
-0.26895 0.18185 0.78822 239 239 239
-0.35402 0.18185 0.78822 239 239 239
-0.09519 0.13093 0.92456 227 203 72
-0.18026 0.13093 0.92456 227 203 72
-0.26895 0.13093 0.92456 227 203 72
-0.35402 0.13093 0.92456 227 203 72
-0.18026 0.13093 0.92456 245 245 245
-0.09519 0.13093 0.92456 245 245 245
-0.09519 0.06289 0.89917 245 245 245
-0.18026 0.06289 0.89917 245 245 245
-0.35402 0.13093 0.92456 239 239 239
-0.35402 0.13093 0.92456 245 245 245
-0.26895 0.13093 0.92456 245 245 245
-0.26895 0.06289 0.89917 245 245 245
-0.35402 0.06289 0.89917 245 245 245
0.26895 0.55487 0.92246 239 239 239
0.26895 0.50489 1.055 239 239 239
0.18026 0.50489 1.055 239 239 239
0.18026 0.55487 0.92246 239 239 239
0.18026 0.49988 0.90215 239 239 239
0.26895 0.49988 0.90215 239 239 239
0.18026 0.44896 1.03481 239 239 239
0.26895 0.44896 1.03481 239 239 239
0.26895 0.19637 1.10992 217 194 69
0.26895 0.25087 0.96598 217 194 69
0.18026 0.25087 0.96598 217 194 69
0.18026 0.19637 1.10992 217 194 69
0.18026 0.2995 0.83036 217 194 69
0.26895 0.2995 0.83036 217 194 69
0.18026 0.38516 0.86105 217 194 69
0.26895 0.38516 0.86105 217 194 69
0.18026 0.33653 0.99667 217 194 69
0.09519 0.33651 0.99661 217 194 69
0.09519 0.38513 0.861 217 194 69
0.18026 0.28203 1.14061 217 194 69
0.26895 0.33653 0.99667 217 194 69
0.26895 0.28203 1.14061 217 194 69
0.35402 0.38513 0.861 217 194 69
0.18026 0.44896 1.03481 217 194 69
0.18026 0.49988 0.90215 217 194 69
0.26895 0.49988 0.90215 217 194 69
0.26895 0.44896 1.03481 217 194 69
0.35402 0.33651 0.99661 217 194 69
0.09519 0.18185 0.78822 217 194 69
0.35402 0.13093 0.92456 217 194 69
0.35402 0.18185 0.78822 217 194 69
0.09519 0.13093 0.92456 217 194 69
0.26895 0.18185 0.78822 217 194 69
0.26895 0.13093 0.92456 217 194 69
0.18026 0.18185 0.78822 217 194 69
0.18026 0.13093 0.92456 217 194 69
0.18026 0.11563 0.76449 239 239 239
0.09519 0.11563 0.76449 239 239 239
0.09519 0.06289 0.89917 239 239 239
0.18026 0.06289 0.89917 239 239 239
0.18026 0.18185 0.78822 239 239 239
0.18026 0.13093 0.92456 239 239 239
0.09519 0.18185 0.78822 239 239 239
0.09519 0.13093 0.92456 239 239 239
0.18026 0.25087 0.96598 227 203 72
0.09519 0.33651 0.99661 227 203 72
0.18026 0.33653 0.99667 227 203 72
0.18026 0.44896 1.03481 227 203 72
0.26895 0.44896 1.03481 227 203 72
0.26895 0.33653 0.99667 227 203 72
0.35402 0.33651 0.99661 227 203 72
0.26895 0.25087 0.96598 227 203 72
0.26895 0.06289 0.89917 239 239 239
0.35402 0.06289 0.89917 239 239 239
0.35402 0.11563 0.76449 239 239 239
0.26895 0.11563 0.76449 239 239 239
0.26895 0.13093 0.92456 239 239 239
0.26895 0.18185 0.78822 239 239 239
0.35402 0.18185 0.78822 239 239 239
0.18026 0.13093 0.92456 227 203 72
0.09519 0.13093 0.92456 227 203 72
0.35402 0.13093 0.92456 227 203 72
0.26895 0.13093 0.92456 227 203 72
0.18026 0.13093 0.92456 245 245 245
0.18026 0.06289 0.89917 245 245 245
0.09519 0.06289 0.89917 245 245 245
0.09519 0.13093 0.92456 245 245 245
0.35402 0.13093 0.92456 239 239 239
0.35402 0.13093 0.92456 245 245 245
0.35402 0.06289 0.89917 245 245 245
0.26895 0.06289 0.89917 245 245 245
0.26895 0.13093 0.92456 245 245 245
0.28125 -0.58277 1.46452 242 245 137
0.28125 -0.58277 1.28267 242 245 137
-0.28125 -0.58277 1.28267 242 245 137
-0.28125 -0.58277 1.46452 242 245 137
-0.28125 -0.51628 1.2257 242 245 137
-0.28125 -0.29333 1.2257 242 245 137
0.28125 -0.51628 1.2257 242 245 137
0.28125 -0.29333 1.2257 242 245 137
-0.28125 -0.29333 1.46452 242 245 137
0.28125 -0.29333 1.46452 242 245 137
-0.02448 -0.95324 1.75023 242 245 137
0.07132 -0.95324 1.83348 242 245 137
-0.24505 -0.95324 2.19754 242 245 137
-0.34085 -0.95324 2.11428 242 245 137
-0.3444 -0.95324 2.13505 248 252 141
-0.26512 -0.95324 2.20395 248 252 141
-0.26512 -1.00584 2.20395 248 252 141
-0.3444 -1.00584 2.13505 248 252 141
-0.34085 -1.00584 2.11428 242 245 137
-0.24505 -1.00584 2.19754 242 245 137
0.07132 -1.00584 1.83348 242 245 137
-0.02448 -1.00584 1.75023 242 245 137
0.07132 -0.95324 1.83348 248 252 141
0.07132 -1.00584 1.83348 248 252 141
-0.24505 -1.00584 2.19754 248 252 141
-0.24505 -0.95324 2.19754 248 252 141
-0.3444 -1.00584 2.13505 242 245 137
-0.3444 -0.95324 2.13505 242 245 137
-0.26512 -1.00584 2.20395 242 245 137
-0.26512 -0.95324 2.20395 242 245 137
0.02448 -0.95324 1.75023 242 245 137
0.34085 -0.95324 2.11428 242 245 137
0.24505 -0.95324 2.19754 242 245 137
-0.07132 -0.95324 1.83348 242 245 137
0.3444 -0.95324 2.13505 248 252 141
0.3444 -1.00584 2.13505 248 252 141
0.26512 -1.00584 2.20395 248 252 141
0.26512 -0.95324 2.20395 248 252 141
0.34085 -1.00584 2.11428 242 245 137
0.02448 -1.00584 1.75023 242 245 137
-0.07132 -1.00584 1.83348 242 245 137
0.24505 -1.00584 2.19754 242 245 137
-0.07132 -0.95324 1.83348 248 252 141
0.24505 -0.95324 2.19754 248 252 141
0.24505 -1.00584 2.19754 248 252 141
-0.07132 -1.00584 1.83348 248 252 141
0.3444 -0.95324 2.13505 242 245 137
0.26512 -0.95324 2.20395 242 245 137
0.3444 -1.00584 2.13505 242 245 137
0.26512 -1.00584 2.20395 242 245 137
0.09855 -0.95037 1.77223 202 183 79
0.09855 -0.95037 2.38112 202 183 79
-0.09855 -0.95037 2.38112 202 183 79
-0.09855 -0.95037 1.77223 202 183 79
-0.09855 -1.02488 2.38112 202 183 79
-0.09855 -1.02488 1.77223 202 183 79
0.09855 -1.02488 2.38112 202 183 79
0.09855 -1.02488 1.77223 202 183 79
-0.07723 -1.02488 2.40165 202 183 79
-0.07723 -0.95037 2.40165 202 183 79
0.07723 -0.95037 2.40165 202 183 79
0.07723 -1.02488 2.40165 202 183 79
0.07723 -0.95037 2.40165 210 190 82
0.07723 -1.02488 2.40165 210 190 82
-0.07723 -1.02488 2.40165 210 190 82
-0.07723 -0.95037 2.40165 210 190 82
0.08819 -0.98525 1.62013 184 130 145
0.08819 -1.06957 1.62013 184 130 145
-0.08819 -1.06957 1.62013 184 130 145
-0.08819 -0.98525 1.62013 184 130 145
-0.08819 -1.06957 1.55482 184 130 145
0.08819 -1.06957 1.55482 184 130 145
-0.08819 -0.98525 1.55482 184 130 145
0.08819 -0.98525 1.55482 184 130 145
0.10928 -1.27678 1.78113 217 194 69
0.10928 -1.27678 1.65421 217 194 69
-0.10928 -1.27678 1.65421 217 194 69
-0.10928 -1.27678 1.78113 217 194 69
-0.14514 -1.24038 1.78113 217 194 69
-0.14514 -1.24038 1.65421 217 194 69
-0.14514 -0.9501 1.78113 217 194 69
-0.14514 -0.98848 1.65421 217 194 69
-0.11933 -0.98848 1.65421 217 194 69
-0.11933 -1.21984 1.65421 217 194 69
-0.14514 -0.9501 1.65421 217 194 69
-0.11933 -0.98848 1.55847 217 194 69
-0.14514 -0.98848 1.55847 217 194 69
-0.14514 -0.9501 1.55847 217 194 69
-0.14514 -0.9501 1.46407 217 194 69
-0.14514 -1.16234 1.46407 217 194 69
-0.14514 -1.16234 1.55847 217 194 69
0.14514 -1.16234 1.46407 217 194 69
0.14514 -0.9501 1.46407 217 194 69
-0.11849 -1.19407 1.46407 217 194 69
-0.11849 -1.19407 1.55847 217 194 69
0.11849 -1.19407 1.55847 217 194 69
0.11849 -1.19407 1.46407 217 194 69
-0.08938 -1.24823 1.65421 217 194 69
0.09182 -1.24823 1.65421 217 194 69
0.11933 -1.21984 1.65421 217 194 69
0.14514 -1.24038 1.65421 217 194 69
0.14514 -1.24038 1.78113 217 194 69
0.14514 -0.9501 1.78113 217 194 69
0.14514 -0.98848 1.65421 217 194 69
0.14514 -0.9501 1.65421 217 194 69
0.14514 -0.98848 1.55847 217 194 69
0.14514 -0.9501 1.55847 217 194 69
0.14514 -1.16234 1.55847 217 194 69
0.11933 -0.98848 1.55847 217 194 69
0.11933 -0.98848 1.65421 217 194 69
0.14514 -0.9501 1.78113 227 203 72
0.14514 -1.24038 1.78113 227 203 72
-0.14514 -1.24038 1.78113 227 203 72
-0.14514 -0.9501 1.78113 227 203 72
0.10928 -1.27678 1.78113 227 203 72
-0.10928 -1.27678 1.78113 227 203 72
-0.11933 -1.1384 1.55847 227 203 72
-0.14514 -1.16234 1.55847 227 203 72
-0.14514 -0.98848 1.55847 227 203 72
-0.11933 -0.98848 1.55847 227 203 72
-0.11849 -1.19407 1.55847 227 203 72
-0.10015 -1.16234 1.55847 227 203 72
0.11849 -1.19407 1.55847 227 203 72
0.09982 -1.16234 1.55847 227 203 72
0.14514 -1.16234 1.55847 227 203 72
0.11933 -1.1384 1.55847 227 203 72
0.14514 -0.98848 1.55847 227 203 72
0.11933 -0.98848 1.55847 227 203 72
0.3226 -0.27494 1.79868 202 183 79
0.3226 -0.27494 2.11695 202 183 79
-0.3226 -0.27494 2.11695 202 183 79
-0.3226 -0.27494 1.79868 202 183 79
-0.36471 -0.33192 1.79866 202 183 79
-0.36471 -0.33192 2.11695 202 183 79
0.36471 -0.33192 1.79866 202 183 79
0.36471 -0.33192 2.11695 202 183 79
0.26569 -0.33192 2.15543 202 183 79
0.30125 -0.38117 2.15543 202 183 79
-0.26376 -0.33192 2.15543 202 183 79
-0.29992 -0.38123 2.15543 202 183 79
-0.36471 -0.90517 2.11695 202 183 79
-0.36471 -0.90517 1.96689 202 183 79
-0.33081 -0.95613 1.96689 202 183 79
-0.33081 -0.95613 2.11695 202 183 79
-0.36471 -0.56283 1.96689 202 183 79
-0.2995 -0.85533 2.15543 202 183 79
-0.26413 -0.90517 2.15543 202 183 79
0.30181 -0.85487 2.15543 202 183 79
0.36471 -0.90517 2.11695 202 183 79
0.36471 -0.56283 1.96689 202 183 79
0.36471 -0.90517 1.96689 202 183 79
0.33081 -0.95613 1.96689 202 183 79
0.33081 -0.95613 2.11695 202 183 79
0.26604 -0.90517 2.15543 202 183 79
-0.36471 -0.56283 1.79859 202 183 79
0.36471 -0.56283 1.79859 202 183 79
0.33081 -0.95613 1.42263 242 245 137
0.36471 -0.90517 1.42287 242 245 137
0.32165 -0.90517 1.38752 242 245 137
0.36471 -0.90517 1.79859 242 245 137
0.33081 -0.95613 1.79859 242 245 137
-0.33081 -0.95613 1.42263 242 245 137
-0.33081 -0.95613 1.79859 242 245 137
0.36471 -0.33192 1.42287 242 245 137
0.32165 -0.33192 1.38752 242 245 137
0.3226 -0.27494 1.38752 242 245 137
0.36471 -0.33192 1.79866 242 245 137
0.3226 -0.27494 1.79868 242 245 137
0.36471 -0.56283 1.79859 242 245 137
-0.32165 -0.90517 1.38752 242 245 137
-0.32165 -0.33192 1.38752 242 245 137
-0.3226 -0.27494 1.38752 242 245 137
-0.3226 -0.27494 1.79868 242 245 137
-0.36471 -0.33192 1.79866 242 245 137
-0.36471 -0.33192 1.42287 242 245 137
-0.36471 -0.56283 1.79859 242 245 137
-0.36471 -0.90517 1.42287 242 245 137
-0.36471 -0.90517 1.79859 242 245 137
0.33081 -0.95613 1.79859 56 47 38
0.33081 -0.95613 1.96689 56 47 38
0.36471 -0.90517 1.96689 56 47 38
0.36471 -0.90517 1.79859 56 47 38
-0.33081 -0.95613 1.79859 56 47 38
-0.33081 -0.95613 1.96689 56 47 38
0.36471 -0.56283 1.79859 56 47 38
0.36471 -0.56283 1.96689 56 47 38
-0.36471 -0.56283 1.96689 56 47 38
-0.36471 -0.90517 1.96689 56 47 38
-0.36471 -0.90517 1.79859 56 47 38
-0.36471 -0.56283 1.79859 56 47 38
0.37523 0.72157 1.11958 242 245 137
0.37523 0.72117 1.61808 242 245 137
-0.37523 0.72117 1.61808 242 245 137
-0.37523 0.72157 1.11958 242 245 137
-0.41166 0.67802 1.13277 242 245 137
-0.34932 0.67802 1.0917 242 245 137
-0.41166 0.67799 1.61839 242 245 137
-0.41166 -0.32174 1.61839 242 245 137
-0.41166 -0.32174 1.13277 242 245 137
-0.35273 -0.36979 1.13292 242 245 137
-0.35273 -0.36979 1.61851 242 245 137
0.35273 -0.36979 1.61851 242 245 137
0.35273 -0.36979 1.13292 242 245 137
0.41166 -0.32174 1.13277 242 245 137
0.34932 -0.32174 1.0917 242 245 137
0.34932 0.67802 1.0917 242 245 137
0.41166 0.67802 1.13277 242 245 137
0.41166 0.67799 1.61839 242 245 137
0.41166 -0.32174 1.61839 242 245 137
-0.34932 -0.32174 1.0917 242 245 137
0.41166 0.67799 1.86132 202 183 79
0.41166 -0.32174 1.86132 202 183 79
0.35298 -0.28099 1.90924 202 183 79
0.35327 0.62813 1.90924 202 183 79
0.41166 -0.32174 1.61839 202 183 79
0.41166 0.67799 1.61839 202 183 79
0.35273 -0.36979 1.86098 202 183 79
0.32214 -0.31209 1.90924 202 183 79
0.35273 -0.36979 1.61851 202 183 79
-0.35273 -0.36979 1.61851 202 183 79
-0.35273 -0.36979 1.86098 202 183 79
0.37523 0.7223 1.86132 202 183 79
0.32037 0.66834 1.90924 202 183 79
0.37523 0.72117 1.61808 202 183 79
-0.37523 0.7223 1.86132 202 183 79
-0.37523 0.72117 1.61808 202 183 79
-0.41166 0.67799 1.61839 202 183 79
-0.41166 0.67799 1.86132 202 183 79
-0.41166 -0.32174 1.86132 202 183 79
-0.41166 -0.32174 1.61839 202 183 79
-0.35242 -0.28099 1.90924 202 183 79
-0.35152 0.62813 1.90924 202 183 79
-0.32257 -0.31209 1.90924 202 183 79
-0.3221 0.66834 1.90924 202 183 79
-0.2995 -0.85533 2.15543 210 190 82
-0.29992 -0.38123 2.15543 210 190 82
0.30125 -0.38117 2.15543 210 190 82
0.30181 -0.85487 2.15543 210 190 82
0.26569 -0.33192 2.15543 210 190 82
-0.26376 -0.33192 2.15543 210 190 82
0.26604 -0.90517 2.15543 210 190 82
-0.26413 -0.90517 2.15543 210 190 82
-0.32257 -0.31209 1.90924 210 190 82
-0.35242 -0.28099 1.90924 210 190 82
-0.35152 0.62813 1.90924 210 190 82
-0.3221 0.66834 1.90924 210 190 82
0.35298 -0.28099 1.90924 210 190 82
0.32214 -0.31209 1.90924 210 190 82
0.32037 0.66834 1.90924 210 190 82
0.35327 0.62813 1.90924 210 190 82
0.11933 -1.1384 1.55847 144 116 123
-0.11933 -1.1384 1.55847 144 116 123
-0.11933 -0.98848 1.55847 144 116 123
0.11933 -0.98848 1.55847 144 116 123
-0.11933 -0.98848 1.65421 144 116 123
0.11933 -0.98848 1.65421 144 116 123
-0.10015 -1.16234 1.55847 144 116 123
0.09982 -1.16234 1.55847 144 116 123
-0.11933 -1.21984 1.65421 144 116 123
0.11933 -1.21984 1.65421 144 116 123
0.09182 -1.24823 1.65421 144 116 123
-0.08938 -1.24823 1.65421 144 116 123
0.30044 0.7108 1.62728 202 183 79
0.30044 0.7108 1.80172 202 183 79
0.30044 0.78772 1.80172 202 183 79
0.30044 0.78772 1.62728 202 183 79
0.46678 0.78772 1.62728 202 183 79
0.46678 0.78772 1.80172 202 183 79
0.50509 0.83304 1.62728 202 183 79
0.50509 0.83304 1.80172 202 183 79
0.46727 1.37081 1.62728 202 183 79
0.22447 1.37081 1.62728 202 183 79
0.46727 1.37081 1.80172 202 183 79
0.22447 1.37081 1.80172 202 183 79
0.22447 1.55136 1.62728 202 183 79
0.22447 1.55136 1.80172 202 183 79
0.18964 1.5928 1.62728 202 183 79
0.18964 1.5928 1.80172 202 183 79
-0.22447 1.55136 1.62728 202 183 79
-0.18964 1.5928 1.62728 202 183 79
0.50509 1.32489 1.80172 202 183 79
0.50509 1.32489 1.62728 202 183 79
-0.18964 1.5928 1.80172 202 183 79
-0.22447 1.37081 1.62728 202 183 79
-0.30044 0.78772 1.62728 202 183 79
-0.30044 0.7108 1.62728 202 183 79
0.50509 0.83304 1.80172 210 190 82
0.46678 0.78772 1.80172 210 190 82
0.46727 1.37081 1.80172 210 190 82
0.50509 1.32489 1.80172 210 190 82
0.22447 1.37081 1.80172 210 190 82
0.30044 0.78772 1.80172 210 190 82
-0.30044 0.78772 1.80172 210 190 82
-0.22447 1.37081 1.80172 210 190 82
0.22447 1.55136 1.80172 210 190 82
-0.22447 1.55136 1.80172 210 190 82
-0.30044 0.7108 1.80172 210 190 82
0.30044 0.7108 1.80172 210 190 82
0.18964 1.5928 1.80172 210 190 82
-0.18964 1.5928 1.80172 210 190 82
-0.30044 0.78772 1.80172 202 183 79
-0.30044 0.7108 1.80172 202 183 79
-0.46678 0.78772 1.62728 202 183 79
-0.46678 0.78772 1.80172 202 183 79
-0.50509 0.83304 1.62728 202 183 79
-0.50509 0.83304 1.80172 202 183 79
-0.46727 1.37081 1.62728 202 183 79
-0.46727 1.37081 1.80172 202 183 79
-0.22447 1.37081 1.80172 202 183 79
-0.22447 1.55136 1.80172 202 183 79
-0.50509 1.32489 1.80172 202 183 79
-0.50509 1.32489 1.62728 202 183 79
-0.50509 0.83304 1.80172 210 190 82
-0.50509 1.32489 1.80172 210 190 82
-0.46727 1.37081 1.80172 210 190 82
-0.46678 0.78772 1.80172 210 190 82
-1.01043 0.18882 1.61772 202 183 79
-0.24691 0.18882 1.61772 202 183 79
-0.24691 0.18882 1.76396 202 183 79
-1.01043 0.18882 1.76396 202 183 79
-1.03938 0.16359 1.76396 202 183 79
-1.03938 0.16359 1.61772 202 183 79
-1.01043 -0.28945 1.61772 202 183 79
-0.24691 -0.28945 1.61772 202 183 79
-1.03938 -0.26423 1.61772 202 183 79
-1.03938 -0.26423 1.76396 202 183 79
-1.01043 0.18882 1.76396 210 190 82
-0.24691 0.18882 1.76396 210 190 82
-0.24691 -0.28945 1.76396 210 190 82
-1.01043 -0.28945 1.76396 210 190 82
-1.03938 -0.26423 1.76396 210 190 82
-1.03938 0.16359 1.76396 210 190 82
-1.01043 -0.28945 1.76396 202 183 79
-0.24691 -0.28945 1.76396 202 183 79
-1.32632 0.47752 1.49374 242 245 137
-0.24691 0.47752 1.49374 242 245 137
-0.24691 0.47752 1.63415 242 245 137
-1.32632 0.47752 1.63415 242 245 137
-1.35454 0.45121 1.63415 242 245 137
-1.35454 0.45121 1.49374 242 245 137
-1.32632 -0.21791 1.49374 242 245 137
-0.24691 -0.21791 1.49374 242 245 137
-1.35454 -0.19161 1.49374 242 245 137
-1.35454 -0.19161 1.63415 242 245 137
-1.32632 0.47752 1.63415 248 252 141
-0.24691 0.47752 1.63415 248 252 141
-0.24691 -0.21791 1.63415 248 252 141
-1.32632 -0.21791 1.63415 248 252 141
-1.35454 -0.19161 1.63415 248 252 141
-1.35454 0.45121 1.63415 248 252 141
-1.32632 -0.21791 1.63415 242 245 137
-0.24691 -0.21791 1.63415 242 245 137
-1.4745 0.34533 1.50559 242 245 137
-1.31477 0.34533 1.50559 242 245 137
-1.31477 0.34533 1.57442 242 245 137
-1.4745 0.34533 1.57442 242 245 137
-1.50059 0.32536 1.57442 242 245 137
-1.50059 0.32536 1.50559 242 245 137
-1.4745 -0.12078 1.50559 242 245 137
-1.31477 -0.12078 1.50559 242 245 137
-1.50059 -0.10081 1.50559 242 245 137
-1.50059 -0.10081 1.57442 242 245 137
-1.4745 0.34533 1.57442 248 252 141
-1.31477 0.34533 1.57442 248 252 141
-1.31477 -0.12078 1.57442 248 252 141
-1.4745 -0.12078 1.57442 248 252 141
-1.50059 -0.10081 1.57442 248 252 141
-1.50059 0.32536 1.57442 248 252 141
-1.4745 -0.12078 1.57442 242 245 137
-1.31477 -0.12078 1.57442 242 245 137
-1.23494 0.73286 1.50559 242 245 137
-0.86369 0.73286 1.50559 242 245 137
-0.86369 0.73286 1.57442 242 245 137
-1.23494 0.73286 1.57442 242 245 137
-1.25767 0.70476 1.50559 242 245 137
-0.84096 0.70476 1.50559 242 245 137
-1.25767 0.46588 1.50559 242 245 137
-0.84096 0.46588 1.50559 242 245 137
-0.84096 0.70476 1.57442 242 245 137
-0.84096 0.46588 1.57442 242 245 137
-1.25767 0.70476 1.57442 248 252 141
-0.84096 0.70476 1.57442 248 252 141
-0.84096 0.46588 1.57442 248 252 141
-1.25767 0.46588 1.57442 248 252 141
-1.23494 0.73286 1.57442 248 252 141
-0.86369 0.73286 1.57442 248 252 141
-1.25767 0.70476 1.57442 242 245 137
-1.25767 0.46588 1.57442 242 245 137
-0.73144 0.63504 1.50559 242 245 137
-0.51724 0.63504 1.50559 242 245 137
-0.51724 0.63504 1.57442 242 245 137
-0.73144 0.63504 1.57442 242 245 137
-0.75373 0.60694 1.50559 242 245 137
-0.49495 0.60694 1.50559 242 245 137
-0.75373 0.46113 1.50559 242 245 137
-0.49495 0.46113 1.50559 242 245 137
-0.49495 0.60694 1.57442 242 245 137
-0.49495 0.46113 1.57442 242 245 137
-0.75373 0.60694 1.57442 248 252 141
-0.49495 0.60694 1.57442 248 252 141
-0.49495 0.46113 1.57442 248 252 141
-0.75373 0.46113 1.57442 248 252 141
-0.73144 0.63504 1.57442 248 252 141
-0.51724 0.63504 1.57442 248 252 141
-0.75373 0.60694 1.57442 242 245 137
-0.75373 0.46113 1.57442 242 245 137
-1.12394 0.08468 1.61172 202 183 79
-0.99613 0.08468 1.61172 202 183 79
-0.99613 0.08468 1.70021 202 183 79
-1.12394 0.08468 1.70021 202 183 79
-1.14622 0.06982 1.70021 202 183 79
-1.14622 0.06982 1.61172 202 183 79
-1.14622 -0.13371 1.61172 202 183 79
-1.14622 -0.13371 1.70021 202 183 79
-1.12394 -0.14856 1.70021 202 183 79
-1.12394 -0.14856 1.61172 202 183 79
-0.99613 -0.14856 1.61172 202 183 79
-0.99613 -0.14856 1.70021 202 183 79
-1.12394 0.08468 1.70021 210 190 82
-0.99613 0.08468 1.70021 210 190 82
-0.99613 -0.14856 1.70021 210 190 82
-1.12394 -0.14856 1.70021 210 190 82
-1.14622 -0.13371 1.70021 210 190 82
-1.14622 0.06982 1.70021 210 190 82
-0.84726 0.33975 1.61172 202 183 79
-0.57708 0.33975 1.61172 202 183 79
-0.57708 0.33975 1.70021 202 183 79
-0.84726 0.33975 1.70021 202 183 79
-0.56434 0.32324 1.61172 202 183 79
-0.56434 0.32324 1.70021 202 183 79
-0.56434 0.17989 1.70021 202 183 79
-0.56434 0.17989 1.61172 202 183 79
-0.86 0.32324 1.70021 202 183 79
-0.86 0.32324 1.61172 202 183 79
-0.86 0.17989 1.61172 202 183 79
-0.86 0.17989 1.70021 202 183 79
-0.86 0.32324 1.70021 210 190 82
-0.56434 0.32324 1.70021 210 190 82
-0.56434 0.17989 1.70021 210 190 82
-0.86 0.17989 1.70021 210 190 82
-0.84726 0.33975 1.70021 210 190 82
-0.57708 0.33975 1.70021 210 190 82
-0.24016 -0.93816 1.93676 255 255 255
-0.09549 -0.93816 1.93676 255 255 255
-0.09549 -0.98131 1.93676 255 255 255
-0.24016 -0.98131 1.93676 255 255 255
-0.24016 -0.98131 1.77929 255 255 255
-0.24016 -0.93816 1.77929 255 255 255
-0.20561 -0.98131 1.85117 255 255 255
-0.20561 -0.98131 1.90962 255 255 255
-0.09549 -0.98131 1.90958 255 255 255
-0.09549 -0.93816 1.77929 255 255 255
-0.09549 -0.98131 1.80645 255 255 255
-0.09549 -0.98131 1.77929 255 255 255
-0.14189 -0.98131 1.80644 255 255 255
-0.20561 -0.98131 1.80642 255 255 255
-0.16219 -0.98131 1.85115 255 255 255
-0.14183 -0.98131 1.83392 255 255 255
-0.16219 -0.98131 1.83392 255 255 255
-0.16219 -0.98131 1.88556 255 255 255
-0.12106 -0.98131 1.83392 255 255 255
-0.12106 -0.98131 1.88556 255 255 255
-0.20561 -0.98131 1.90962 56 47 38
-0.09549 -0.98131 1.90958 56 47 38
-0.12106 -0.98131 1.88556 56 47 38
-0.16219 -0.98131 1.88556 56 47 38
-0.12106 -0.98131 1.83392 56 47 38
-0.09549 -0.98131 1.80645 56 47 38
-0.16219 -0.98131 1.85115 56 47 38
-0.20561 -0.98131 1.85117 56 47 38
-0.14183 -0.98131 1.83392 56 47 38
-0.14189 -0.98131 1.80644 56 47 38
-0.14183 -0.98131 1.83392 71 62 53
-0.14189 -0.98131 1.80644 71 62 53
-0.20561 -0.98131 1.80642 71 62 53
-0.16219 -0.98131 1.83392 71 62 53
-0.16219 -0.98131 1.85115 71 62 53
-0.20561 -0.98131 1.85117 71 62 53
3 0 2 1
3 0 3 2
3 4 0 1
3 4 5 0
3 4 1 6
3 6 1 7
3 1 8 7
3 1 2 8
3 3 8 2
3 9 8 3
3 9 10 8
3 9 11 10
3 4 11 9
3 4 9 5
3 11 12 10
3 11 4 12
3 12 4 13
3 4 6 13
3 14 16 15
3 17 16 14
3 17 18 16
3 17 19 18
3 20 22 21
3 20 23 22
3 23 24 22
3 23 25 24
3 26 20 21
3 26 27 20
3 25 28 24
3 25 29 28
3 30 32 31
3 30 33 32
3 32 34 31
3 32 35 34
3 36 38 37
3 36 39 38
3 36 37 40
3 36 40 41
3 42 36 41
3 42 39 36
3 42 43 39
3 42 41 44
3 44 41 40
3 44 40 45
3 46 48 47
3 46 49 48
3 46 47 50
3 46 50 51
3 52 43 42
3 52 53 43
3 52 42 44
3 52 44 45
3 54 56 55
3 54 57 56
3 54 55 58
3 54 58 59
3 60 54 59
3 60 57 54
3 60 61 57
3 60 59 62
3 62 59 58
3 62 58 63
3 64 66 65
3 64 67 66
3 64 65 68
3 64 68 69
3 70 61 60
3 70 71 61
3 70 60 62
3 70 62 63
3 72 74 73
3 72 75 74
3 72 73 76
3 72 76 77
3 78 72 77
3 78 75 72
3 78 79 75
3 78 77 80
3 80 77 76
3 80 76 81
3 82 84 83
3 82 85 84
3 82 83 86
3 82 86 87
3 88 79 78
3 88 89 79
3 88 78 80
3 88 80 81
3 90 92 91
3 90 93 92
3 94 93 90
3 94 95 93
3 96 95 94
3 96 97 95
3 95 92 93
3 95 98 92
3 95 99 98
3 95 97 99
3 100 102 101
3 100 103 102
3 103 100 104
3 103 104 105
3 96 107 106
3 96 94 107
3 107 94 90
3 107 90 91
3 108 110 109
3 108 111 110
3 112 111 108
3 112 113 111
3 114 113 112
3 114 115 113
3 113 110 111
3 113 116 110
3 113 117 116
3 113 115 117
3 118 120 119
3 118 121 120
3 121 118 122
3 121 122 123
3 114 125 124
3 114 112 125
3 125 112 108
3 125 108 109
3 126 128 127
3 126 129 128
3 126 127 130
3 126 130 131
3 132 131 130
3 132 130 133
3 134 132 133
3 134 135 132
3 134 136 135
3 134 137 136
3 138 140 139
3 138 141 140
3 138 139 142
3 138 142 143
3 144 146 145
3 144 147 146
3 148 146 147
3 148 149 146
3 148 150 149
3 148 151 150
3 152 144 145
3 152 153 144
3 154 153 152
3 154 152 155
3 156 158 157
3 156 159 158
3 159 156 160
3 159 160 161
3 162 164 163
3 162 165 164
3 166 163 164
3 167 163 166
3 167 162 163
3 166 164 168
3 168 164 165
3 168 165 169
3 169 162 167
3 169 165 162
3 170 172 171
3 170 173 172
3 173 174 172
3 173 175 174
3 175 176 174
3 175 177 176
3 178 171 172
3 176 178 179
3 176 179 180
3 178 181 171
3 182 181 178
3 182 183 181
3 173 183 182
3 173 170 183
3 175 184 177
3 176 185 178
3 176 186 185
3 177 186 176
3 177 187 186
3 182 187 177
3 184 182 177
3 184 188 182
3 182 189 187
3 179 190 180
3 184 191 188
3 184 192 191
3 179 193 190
3 175 192 184
3 175 194 192
3 173 194 175
3 173 195 194
3 176 180 174
3 180 196 174
3 174 196 197
3 174 197 172
3 180 190 196
3 198 200 199
3 198 201 200
3 202 198 199
3 202 199 203
3 204 198 202
3 204 201 198
3 205 201 204
3 205 200 201
3 206 208 207
3 207 210 209
3 207 211 210
3 209 213 212
3 214 216 215
3 214 217 216
3 218 214 215
3 218 215 219
3 219 215 216
3 219 216 220
3 206 221 208
3 206 222 221
3 213 223 212
3 213 224 223
3 225 227 226
3 225 228 227
3 220 217 229
3 220 216 217
3 230 232 231
3 230 233 232
3 234 236 235
3 234 237 236
3 238 236 237
3 239 238 237
3 239 237 234
3 238 240 236
3 240 235 236
3 240 241 235
3 241 239 234
3 241 234 235
3 242 244 243
3 242 245 244
3 243 244 246
3 243 246 247
3 247 246 248
3 247 248 249
3 250 244 245
3 248 251 250
3 248 252 251
3 250 245 253
3 254 250 253
3 254 253 255
3 243 254 255
3 243 255 242
3 247 249 256
3 248 250 257
3 248 257 258
3 249 248 258
3 249 258 259
3 254 259 260
3 254 249 259
3 256 249 254
3 256 254 261
3 251 252 262
3 256 261 263
3 256 263 264
3 251 262 265
3 247 256 264
3 247 264 266
3 243 247 266
3 243 266 267
3 248 246 252
3 252 246 268
3 246 269 268
3 246 244 269
3 252 268 262
3 270 272 271
3 270 273 272
3 274 273 270
3 274 275 273
3 276 274 270
3 276 270 271
3 277 271 272
3 277 276 271
3 278 280 279
3 280 282 281
3 280 283 282
3 283 285 284
3 286 288 287
3 286 289 288
3 290 289 286
3 290 291 289
3 291 288 289
3 291 292 288
3 278 294 293
3 278 279 294
3 284 296 295
3 284 285 296
3 297 299 298
3 297 300 299
3 292 287 288
3 292 301 287
3 302 304 303
3 302 305 304
3 306 308 307
3 306 309 308
3 307 308 310
3 311 310 308
3 312 310 311
3 307 310 312
3 312 311 313
3 311 308 314
3 314 308 309
3 307 315 306
3 307 313 315
3 307 312 313
3 316 318 317
3 316 319 318
3 320 322 321
3 320 323 322
3 324 326 325
3 324 327 326
3 328 330 329
3 328 331 330
3 330 331 321
3 330 321 322
3 327 319 316
3 327 324 319
3 319 324 332
3 319 332 333
3 324 334 332
3 324 325 334
3 318 319 333
3 318 333 335
3 336 338 337
3 336 339 338
3 340 342 341
3 340 343 342
3 344 346 345
3 344 347 346
3 348 350 349
3 348 351 350
3 349 350 342
3 349 342 343
3 345 337 344
3 345 336 337
3 344 337 352
3 337 353 352
3 337 338 353
3 344 352 354
3 347 344 354
3 347 354 355
3 356 358 357
3 356 359 358
3 359 360 358
3 359 361 360
3 362 360 361
3 362 361 363
3 358 360 364
3 358 364 365
3 357 358 365
3 357 365 366
3 360 367 364
3 360 362 367
3 362 357 366
3 363 357 362
3 363 356 357
3 362 366 367
3 368 370 369
3 368 371 370
3 372 374 373
3 372 375 374
3 373 374 376
3 373 376 377
3 378 374 375
3 378 376 374
3 377 372 373
3 377 379 372
3 380 382 381
3 380 383 382
3 384 382 383
3 384 385 382
3 386 385 384
3 386 387 385
3 388 385 387
3 388 389 385
3 390 387 386
3 391 388 387
3 391 387 392
3 387 393 392
3 387 390 393
3 392 393 394
3 392 394 395
3 392 395 396
3 394 397 395
3 394 398 397
3 396 395 399
3 396 399 400
3 401 400 399
3 401 399 402
3 395 402 399
3 395 397 402
3 385 389 403
3 385 403 382
3 382 403 404
3 382 404 381
3 381 404 405
3 381 405 406
3 406 380 381
3 406 407 380
3 406 408 407
3 406 409 408
3 408 409 410
3 410 409 411
3 410 411 412
3 412 411 398
3 398 411 413
3 398 413 397
3 397 413 401
3 397 401 402
3 409 414 411
3 409 415 414
3 406 415 409
3 406 405 415
3 416 418 417
3 416 419 418
3 417 421 420
3 417 418 421
3 422 424 423
3 422 425 424
3 426 422 423
3 426 427 422
3 428 427 426
3 428 429 427
3 430 429 428
3 430 431 429
3 432 431 430
3 432 433 431
3 434 436 435
3 434 437 436
3 436 437 438
3 436 438 439
3 435 440 434
3 435 441 440
3 441 435 442
3 441 442 443
3 444 436 439
3 444 439 445
3 446 445 439
3 439 447 446
3 446 447 448
3 446 448 449
3 439 450 447
3 446 451 445
3 452 446 449
3 452 451 446
3 441 443 453
3 441 453 454
3 455 441 454
3 440 441 455
3 455 454 456
3 457 456 454
3 457 454 458
3 458 448 457
3 458 449 448
3 458 452 449
3 458 459 452
3 454 459 458
3 454 453 459
3 439 460 450
3 439 438 460
3 440 455 461
3 462 464 463
3 462 463 465
3 462 465 466
3 466 467 462
3 466 468 467
3 469 463 464
3 469 464 470
3 469 470 471
3 471 472 469
3 471 473 472
3 474 469 472
3 474 465 463
3 474 463 469
3 470 464 475
3 462 475 464
3 462 467 475
3 470 475 476
3 477 479 478
3 477 480 479
3 471 477 478
3 471 478 473
3 481 479 480
3 481 480 482
3 481 482 483
3 483 482 467
3 483 467 468
3 476 482 480
3 471 476 477
3 477 476 480
3 476 475 482
3 475 467 482
3 471 470 476
3 484 486 485
3 484 487 486
3 485 488 484
3 485 489 488
3 486 487 490
3 486 490 491
3 492 494 493
3 492 495 494
3 493 494 488
3 493 488 489
3 496 498 497
3 496 499 498
3 500 498 499
3 499 501 500
3 500 502 498
3 500 503 502
3 500 504 503
3 501 504 500
3 503 504 505
3 503 505 506
3 507 506 505
3 507 505 508
3 509 507 508
3 508 510 509
3 509 510 511
3 509 511 512
3 509 512 513
3 509 513 514
3 509 514 507
3 513 512 496
3 512 511 496
3 496 511 501
3 513 496 497
3 501 515 504
3 504 515 505
3 511 510 515
3 511 515 501
3 505 510 508
3 505 515 510
3 496 501 499
3 516 518 517
3 516 519 518
3 520 516 517
3 520 521 516
3 522 517 518
3 520 517 522
3 522 518 523
3 520 522 524
3 522 525 524
3 522 526 525
3 519 516 527
3 519 527 528
3 516 529 527
3 516 521 529
3 529 530 527
3 529 531 530
3 532 530 531
3 532 533 530
3 532 534 533
3 532 535 534
3 534 535 525
3 534 525 526
3 536 533 534
3 526 536 534
3 536 537 533
3 537 530 533
3 526 538 536
3 537 539 530
3 530 539 528
3 530 528 527
3 435 444 442
3 435 436 444
3 540 542 541
3 540 543 542
3 541 542 544
3 541 544 545
3 546 540 547
3 546 543 540
3 548 550 549
3 548 551 550
3 522 538 526
3 522 523 538
3 552 554 553
3 552 555 554
3 553 554 551
3 553 551 548
3 556 558 557
3 556 559 558
3 559 560 558
3 559 561 560
3 556 557 562
3 556 562 563
3 561 564 560
3 561 565 564
3 564 565 566
3 564 566 567
3 568 570 569
3 568 571 570
3 570 571 572
3 570 572 573
3 573 572 574
3 573 574 575
3 576 572 571
3 574 572 576
3 576 571 577
3 577 578 576
3 577 579 578
3 579 577 580
3 579 580 581
3 581 580 582
3 581 582 583
3 582 580 584
3 577 584 580
3 582 584 585
3 586 576 578
3 586 587 576
3 575 587 586
3 575 574 587
3 574 576 587
3 582 588 583
3 582 585 588
3 577 589 584
3 571 589 577
3 571 590 589
3 568 590 571
3 568 591 590
3 592 594 593
3 592 595 594
3 593 594 596
3 593 596 597
3 596 598 597
3 596 599 598
3 600 599 596
3 600 601 599
3 597 598 602
3 597 602 603
3 604 601 600
3 604 605 601
3 591 606 590
3 591 607 606
3 606 608 590
3 606 609 608
3 609 610 608
3 609 611 610
3 612 590 608
3 610 612 608
3 612 589 590
3 589 612 613
3 589 613 614
3 614 584 589
3 614 615 584
3 615 585 584
3 615 588 585
3 616 613 612
3 616 612 617
3 611 617 610
3 611 616 617
3 610 617 612
3 618 620 619
3 618 621 620
3 621 599 620
3 621 598 599
3 622 624 623
3 622 625 624
3 622 626 625
3 622 627 626
3 628 627 622
3 628 622 623
3 628 623 629
3 628 630 627
3 630 626 627
3 630 631 626
3 632 634 633
3 632 635 634
3 632 636 635
3 632 637 636
3 638 629 639
3 638 628 629
3 638 630 628
3 638 631 630
3 640 642 641
3 640 643 642
3 640 644 643
3 640 645 644
3 646 645 640
3 646 640 641
3 646 641 647
3 646 648 645
3 648 644 645
3 648 649 644
3 650 652 651
3 650 653 652
3 650 654 653
3 650 655 654
3 656 647 657
3 656 646 647
3 656 648 646
3 656 649 648
3 658 660 659
3 658 661 660
3 658 662 661
3 658 663 662
3 664 663 658
3 664 658 659
3 664 659 665
3 664 666 663
3 666 662 663
3 666 667 662
3 668 670 669
3 668 671 670
3 668 672 671
3 668 673 672
3 674 665 675
3 674 664 665
3 674 666 664
3 674 667 666
3 676 678 677
3 676 679 678
3 680 676 677
3 680 677 681
3 682 680 681
3 682 681 683
3 681 677 678
3 681 678 684
3 681 684 685
3 681 685 683
3 686 688 687
3 686 689 688
3 687 690 686
3 687 691 690
3 682 692 680
3 682 693 692
3 692 676 680
3 692 679 676
3 694 696 695
3 694 697 696
3 698 694 695
3 698 695 699
3 700 698 699
3 700 699 701
3 699 695 696
3 699 696 702
3 699 702 703
3 699 703 701
3 704 706 705
3 704 707 706
3 705 708 704
3 705 709 708
3 700 710 698
3 700 711 710
3 710 694 698
3 710 697 694
3 712 714 713
3 712 715 714
3 712 716 715
3 712 717 716
3 718 716 717
3 718 719 716
3 720 719 718
3 720 718 721
3 720 721 722
3 720 722 723
3 724 726 725
3 724 727 726
3 724 728 727
3 724 729 728
3 730 732 731
3 730 733 732
3 734 731 732
3 734 732 735
3 734 735 736
3 734 736 737
3 738 733 730
3 738 730 739
3 740 738 739
3 740 741 738
3 742 744 743
3 742 745 744
3 743 746 742
3 743 747 746
3 748 750 749
3 748 751 750
3 752 751 748
3 752 748 753
3 752 754 751
3 754 755 751
3 751 755 756
3 751 756 750
3 749 750 756
3 757 749 756
3 757 756 758
3 757 758 759
3 752 757 759
3 752 753 757
3 759 760 752
3 759 758 760
3 760 761 752
3 752 761 754
3 762 764 763
3 765 762 763
3 765 763 766
3 765 766 767
3 768 770 769
3 768 771 770
3 769 770 772
3 769 772 773
3 774 771 768
3 774 768 775
3 773 772 776
3 773 776 777
3 778 780 779
3 778 781 780
3 780 781 782
3 780 782 783
