ply
format ascii 1.0
element vertex 744
property float x
property float y
property float z
property uchar red
property uchar green
property uchar blue
element face 814
property list uchar int vertex_index
end_header
0.24016 -0.93816 1.93676 239 239 239
0.24016 -0.98131 1.93676 239 239 239
0.09549 -0.98131 1.93676 239 239 239
0.09549 -0.93816 1.93676 239 239 239
0.24016 -0.98131 1.77929 239 239 239
0.24016 -0.93816 1.77929 239 239 239
0.20561 -0.98131 1.85117 239 239 239
0.20561 -0.98131 1.90962 239 239 239
0.09549 -0.98131 1.90958 239 239 239
0.09549 -0.93816 1.77929 239 239 239
0.09549 -0.98131 1.80645 239 239 239
0.09549 -0.98131 1.77929 239 239 239
0.14189 -0.98131 1.80644 239 239 239
0.20561 -0.98131 1.80642 239 239 239
0.16219 -0.98131 1.85115 239 239 239
0.16219 -0.98131 1.83392 239 239 239
0.14183 -0.98131 1.83392 239 239 239
0.16219 -0.98131 1.88556 239 239 239
0.12106 -0.98131 1.83392 239 239 239
0.12106 -0.98131 1.88556 239 239 239
0.20561 -0.98131 1.90962 56 47 38
0.16219 -0.98131 1.88556 56 47 38
0.12106 -0.98131 1.88556 56 47 38
0.09549 -0.98131 1.90958 56 47 38
0.12106 -0.98131 1.83392 56 47 38
0.09549 -0.98131 1.80645 56 47 38
0.16219 -0.98131 1.85115 56 47 38
0.20561 -0.98131 1.85117 56 47 38
0.14183 -0.98131 1.83392 56 47 38
0.14189 -0.98131 1.80644 56 47 38
0.14183 -0.98131 1.83392 71 62 53
0.16219 -0.98131 1.83392 71 62 53
0.20561 -0.98131 1.80642 71 62 53
0.14189 -0.98131 1.80644 71 62 53
0.16219 -0.98131 1.85115 71 62 53
0.20561 -0.98131 1.85117 71 62 53
1.01043 0.18882 1.61772 199 158 104
1.01043 0.18882 1.76396 199 158 104
0.24691 0.18882 1.76396 199 158 104
0.24691 0.18882 1.61772 199 158 104
1.03938 0.16359 1.76396 199 158 104
1.03938 0.16359 1.61772 199 158 104
1.01043 -0.28945 1.61772 199 158 104
0.24691 -0.28945 1.61772 199 158 104
1.03938 -0.26423 1.61772 199 158 104
1.03938 -0.26423 1.76396 199 158 104
1.01043 0.18882 1.76396 207 164 108
1.01043 -0.28945 1.76396 207 164 108
0.24691 -0.28945 1.76396 207 164 108
0.24691 0.18882 1.76396 207 164 108
1.03938 -0.26423 1.76396 207 164 108
1.03938 0.16359 1.76396 207 164 108
1.01043 -0.28945 1.76396 199 158 104
0.24691 -0.28945 1.76396 199 158 104
1.32632 0.47752 1.49374 246 236 183
1.32632 0.47752 1.63415 246 236 183
0.24691 0.47752 1.63415 246 236 183
0.24691 0.47752 1.49374 246 236 183
1.35454 0.45121 1.63415 246 236 183
1.35454 0.45121 1.49374 246 236 183
1.32632 -0.21791 1.49374 246 236 183
0.24691 -0.21791 1.49374 246 236 183
1.35454 -0.19161 1.49374 246 236 183
1.35454 -0.19161 1.63415 246 236 183
1.32632 0.47752 1.63415 251 241 187
1.32632 -0.21791 1.63415 251 241 187
0.24691 -0.21791 1.63415 251 241 187
0.24691 0.47752 1.63415 251 241 187
1.35454 -0.19161 1.63415 251 241 187
1.35454 0.45121 1.63415 251 241 187
1.32632 -0.21791 1.63415 246 236 183
0.24691 -0.21791 1.63415 246 236 183
1.4745 0.34533 1.50559 246 236 183
1.4745 0.34533 1.57442 246 236 183
1.31477 0.34533 1.57442 246 236 183
1.31477 0.34533 1.50559 246 236 183
1.50059 0.32536 1.57442 246 236 183
1.50059 0.32536 1.50559 246 236 183
1.4745 -0.12078 1.50559 246 236 183
1.31477 -0.12078 1.50559 246 236 183
1.50059 -0.10081 1.50559 246 236 183
1.50059 -0.10081 1.57442 246 236 183
1.4745 0.34533 1.57442 251 241 187
1.4745 -0.12078 1.57442 251 241 187
1.31477 -0.12078 1.57442 251 241 187
1.31477 0.34533 1.57442 251 241 187
1.50059 -0.10081 1.57442 251 241 187
1.50059 0.32536 1.57442 251 241 187
1.4745 -0.12078 1.57442 246 236 183
1.31477 -0.12078 1.57442 246 236 183
1.23494 0.73286 1.50559 246 236 183
1.23494 0.73286 1.57442 246 236 183
0.86369 0.73286 1.57442 246 236 183
0.86369 0.73286 1.50559 246 236 183
1.25767 0.70476 1.50559 246 236 183
0.84096 0.70476 1.50559 246 236 183
1.25767 0.46588 1.50559 246 236 183
0.84096 0.46588 1.50559 246 236 183
0.84096 0.70476 1.57442 246 236 183
0.84096 0.46588 1.57442 246 236 183
1.25767 0.70476 1.57442 251 241 187
1.25767 0.46588 1.57442 251 241 187
0.84096 0.46588 1.57442 251 241 187
0.84096 0.70476 1.57442 251 241 187
1.23494 0.73286 1.57442 251 241 187
0.86369 0.73286 1.57442 251 241 187
1.25767 0.46588 1.57442 246 236 183
1.25767 0.70476 1.57442 246 236 183
0.73144 0.63504 1.50559 246 236 183
0.73144 0.63504 1.57442 246 236 183
0.51724 0.63504 1.57442 246 236 183
0.51724 0.63504 1.50559 246 236 183
0.75373 0.60694 1.50559 246 236 183
0.49495 0.60694 1.50559 246 236 183
0.75373 0.46113 1.50559 246 236 183
0.49495 0.46113 1.50559 246 236 183
0.49495 0.60694 1.57442 246 236 183
0.49495 0.46113 1.57442 246 236 183
0.75373 0.60694 1.57442 251 241 187
0.75373 0.46113 1.57442 251 241 187
0.49495 0.46113 1.57442 251 241 187
0.49495 0.60694 1.57442 251 241 187
0.73144 0.63504 1.57442 251 241 187
0.51724 0.63504 1.57442 251 241 187
0.75373 0.46113 1.57442 246 236 183
0.75373 0.60694 1.57442 246 236 183
1.12394 0.08468 1.61172 199 158 104
1.12394 0.08468 1.70021 199 158 104
0.99613 0.08468 1.70021 199 158 104
0.99613 0.08468 1.61172 199 158 104
1.14622 0.06982 1.70021 199 158 104
1.14622 0.06982 1.61172 199 158 104
1.14622 -0.13371 1.61172 199 158 104
1.14622 -0.13371 1.70021 199 158 104
1.12394 -0.14856 1.70021 199 158 104
1.12394 -0.14856 1.61172 199 158 104
0.99613 -0.14856 1.61172 199 158 104
0.99613 -0.14856 1.70021 199 158 104
1.12394 0.08468 1.70021 207 164 108
1.12394 -0.14856 1.70021 207 164 108
0.99613 -0.14856 1.70021 207 164 108
0.99613 0.08468 1.70021 207 164 108
1.14622 -0.13371 1.70021 207 164 108
1.14622 0.06982 1.70021 207 164 108
0.84726 0.33975 1.61172 199 158 104
0.84726 0.33975 1.70021 199 158 104
0.57708 0.33975 1.70021 199 158 104
0.57708 0.33975 1.61172 199 158 104
0.56434 0.32324 1.61172 199 158 104
0.56434 0.32324 1.70021 199 158 104
0.56434 0.17989 1.70021 199 158 104
0.56434 0.17989 1.61172 199 158 104
0.86 0.32324 1.70021 199 158 104
0.86 0.32324 1.61172 199 158 104
0.86 0.17989 1.61172 199 158 104
0.86 0.17989 1.70021 199 158 104
0.86 0.32324 1.70021 207 164 108
0.86 0.17989 1.70021 207 164 108
0.56434 0.17989 1.70021 207 164 108
0.56434 0.32324 1.70021 207 164 108
0.84726 0.33975 1.70021 207 164 108
0.57708 0.33975 1.70021 207 164 108
-0.26895 0.55487 0.92246 239 239 239
-0.18026 0.55487 0.92246 239 239 239
-0.18026 0.50489 1.055 239 239 239
-0.26895 0.50489 1.055 239 239 239
-0.18026 0.49988 0.90215 239 239 239
-0.26895 0.49988 0.90215 239 239 239
-0.18026 0.44896 1.03481 239 239 239
-0.26895 0.44896 1.03481 239 239 239
-0.26895 0.19637 1.10992 207 167 178
-0.18026 0.19637 1.10992 207 167 178
-0.18026 0.25087 0.96598 207 167 178
-0.26895 0.25087 0.96598 207 167 178
-0.18026 0.2995 0.83036 207 167 178
-0.26895 0.2995 0.83036 207 167 178
-0.18026 0.38516 0.86105 207 167 178
-0.26895 0.38516 0.86105 207 167 178
-0.18026 0.33653 0.99667 207 167 178
-0.09519 0.33651 0.99661 207 167 178
-0.09519 0.38513 0.861 207 167 178
-0.18026 0.28203 1.14061 207 167 178
-0.26895 0.33653 0.99667 207 167 178
-0.26895 0.28203 1.14061 207 167 178
-0.35402 0.38513 0.861 207 167 178
-0.35402 0.33651 0.99661 207 167 178
-0.18026 0.44896 1.03481 207 167 178
-0.18026 0.49988 0.90215 207 167 178
-0.26895 0.49988 0.90215 207 167 178
-0.26895 0.44896 1.03481 207 167 178
-0.35402 0.13093 0.92456 207 167 178
-0.35402 0.18185 0.78822 207 167 178
-0.26895 0.18185 0.78822 207 167 178
-0.26895 0.13093 0.92456 207 167 178
-0.18026 0.18185 0.78822 207 167 178
-0.18026 0.13093 0.92456 207 167 178
-0.09519 0.13093 0.92456 207 167 178
-0.09519 0.18185 0.78822 207 167 178
-0.18026 0.11563 0.76449 239 239 239
-0.18026 0.06289 0.89917 239 239 239
-0.09519 0.06289 0.89917 239 239 239
-0.09519 0.11563 0.76449 239 239 239
-0.18026 0.18185 0.78822 239 239 239
-0.18026 0.13093 0.92456 239 239 239
-0.09519 0.13093 0.92456 239 239 239
-0.09519 0.18185 0.78822 239 239 239
-0.26895 0.06289 0.89917 239 239 239
-0.26895 0.11563 0.76449 239 239 239
-0.35402 0.11563 0.76449 239 239 239
-0.35402 0.06289 0.89917 239 239 239
-0.26895 0.13093 0.92456 239 239 239
-0.26895 0.18185 0.78822 239 239 239
-0.35402 0.18185 0.78822 239 239 239
-0.35402 0.13093 0.92456 239 239 239
0.26895 0.55487 0.92246 239 239 239
0.26895 0.50489 1.055 239 239 239
0.18026 0.50489 1.055 239 239 239
0.18026 0.55487 0.92246 239 239 239
0.18026 0.49988 0.90215 239 239 239
0.26895 0.49988 0.90215 239 239 239
0.18026 0.44896 1.03481 239 239 239
0.26895 0.44896 1.03481 239 239 239
0.26895 0.19637 1.10992 207 167 178
0.26895 0.25087 0.96598 207 167 178
0.18026 0.25087 0.96598 207 167 178
0.18026 0.19637 1.10992 207 167 178
0.18026 0.2995 0.83036 207 167 178
0.26895 0.2995 0.83036 207 167 178
0.18026 0.38516 0.86105 207 167 178
0.26895 0.38516 0.86105 207 167 178
0.18026 0.33653 0.99667 207 167 178
0.09519 0.33651 0.99661 207 167 178
0.09519 0.38513 0.861 207 167 178
0.18026 0.28203 1.14061 207 167 178
0.26895 0.33653 0.99667 207 167 178
0.26895 0.28203 1.14061 207 167 178
0.35402 0.38513 0.861 207 167 178
0.35402 0.33651 0.99661 207 167 178
0.18026 0.44896 1.03481 207 167 178
0.18026 0.49988 0.90215 207 167 178
0.26895 0.49988 0.90215 207 167 178
0.26895 0.44896 1.03481 207 167 178
0.35402 0.13093 0.92456 207 167 178
0.35402 0.18185 0.78822 207 167 178
0.26895 0.18185 0.78822 207 167 178
0.26895 0.13093 0.92456 207 167 178
0.18026 0.18185 0.78822 207 167 178
0.18026 0.13093 0.92456 207 167 178
0.09519 0.13093 0.92456 207 167 178
0.09519 0.18185 0.78822 207 167 178
0.18026 0.11563 0.76449 239 239 239
0.09519 0.11563 0.76449 239 239 239
0.09519 0.06289 0.89917 239 239 239
0.18026 0.06289 0.89917 239 239 239
0.18026 0.18185 0.78822 239 239 239
0.18026 0.13093 0.92456 239 239 239
0.09519 0.13093 0.92456 239 239 239
0.09519 0.18185 0.78822 239 239 239
0.26895 0.06289 0.89917 239 239 239
0.35402 0.06289 0.89917 239 239 239
0.35402 0.11563 0.76449 239 239 239
0.26895 0.11563 0.76449 239 239 239
0.26895 0.13093 0.92456 239 239 239
0.26895 0.18185 0.78822 239 239 239
0.35402 0.18185 0.78822 239 239 239
0.35402 0.13093 0.92456 239 239 239
0.28125 -0.58277 1.46452 246 236 183
0.28125 -0.58277 1.28267 246 236 183
-0.28125 -0.58277 1.28267 246 236 183
-0.28125 -0.58277 1.46452 246 236 183
-0.28125 -0.51628 1.2257 246 236 183
-0.28125 -0.29333 1.2257 246 236 183
0.28125 -0.51628 1.2257 246 236 183
0.28125 -0.29333 1.2257 246 236 183
-0.28125 -0.29333 1.46452 246 236 183
0.28125 -0.29333 1.46452 246 236 183
-0.02448 -0.95324 1.75023 246 236 183
0.07132 -0.95324 1.83348 246 236 183
-0.24505 -0.95324 2.19754 246 236 183
-0.34085 -0.95324 2.11428 246 236 183
-0.3444 -0.95324 2.13505 251 241 187
-0.26512 -0.95324 2.20395 251 241 187
-0.26512 -1.00584 2.20395 251 241 187
-0.3444 -1.00584 2.13505 251 241 187
-0.34085 -1.00584 2.11428 246 236 183
-0.24505 -1.00584 2.19754 246 236 183
0.07132 -1.00584 1.83348 246 236 183
-0.02448 -1.00584 1.75023 246 236 183
0.07132 -0.95324 1.83348 251 241 187
0.07132 -1.00584 1.83348 251 241 187
-0.24505 -1.00584 2.19754 251 241 187
-0.24505 -0.95324 2.19754 251 241 187
-0.3444 -1.00584 2.13505 246 236 183
-0.3444 -0.95324 2.13505 246 236 183
-0.26512 -1.00584 2.20395 246 236 183
-0.26512 -0.95324 2.20395 246 236 183
0.02448 -0.95324 1.75023 246 236 183
0.34085 -0.95324 2.11428 246 236 183
0.24505 -0.95324 2.19754 246 236 183
-0.07132 -0.95324 1.83348 246 236 183
0.3444 -0.95324 2.13505 251 241 187
0.3444 -1.00584 2.13505 251 241 187
0.26512 -1.00584 2.20395 251 241 187
0.26512 -0.95324 2.20395 251 241 187
0.34085 -1.00584 2.11428 246 236 183
0.02448 -1.00584 1.75023 246 236 183
-0.07132 -1.00584 1.83348 246 236 183
0.24505 -1.00584 2.19754 246 236 183
-0.07132 -0.95324 1.83348 251 241 187
0.24505 -0.95324 2.19754 251 241 187
0.24505 -1.00584 2.19754 251 241 187
-0.07132 -1.00584 1.83348 251 241 187
0.3444 -0.95324 2.13505 246 236 183
0.26512 -0.95324 2.20395 246 236 183
0.3444 -1.00584 2.13505 246 236 183
0.26512 -1.00584 2.20395 246 236 183
0.09855 -0.95037 1.77223 199 158 104
0.09855 -0.95037 2.38112 199 158 104
-0.09855 -0.95037 2.38112 199 158 104
-0.09855 -0.95037 1.77223 199 158 104
-0.09855 -1.02488 2.38112 199 158 104
-0.09855 -1.02488 1.77223 199 158 104
0.09855 -1.02488 2.38112 199 158 104
0.09855 -1.02488 1.77223 199 158 104
-0.07723 -1.02488 2.40165 199 158 104
-0.07723 -0.95037 2.40165 199 158 104
0.07723 -0.95037 2.40165 199 158 104
0.07723 -1.02488 2.40165 199 158 104
0.07723 -0.95037 2.40165 207 164 108
0.07723 -1.02488 2.40165 207 164 108
-0.07723 -1.02488 2.40165 207 164 108
-0.07723 -0.95037 2.40165 207 164 108
0.08819 -0.98525 1.62013 184 130 145
0.08819 -1.06957 1.62013 184 130 145
-0.08819 -1.06957 1.62013 184 130 145
-0.08819 -0.98525 1.62013 184 130 145
-0.08819 -1.06957 1.55482 184 130 145
0.08819 -1.06957 1.55482 184 130 145
-0.08819 -0.98525 1.55482 184 130 145
0.08819 -0.98525 1.55482 184 130 145
0.10928 -1.27678 1.78113 207 167 178
0.10928 -1.27678 1.65421 207 167 178
-0.10928 -1.27678 1.65421 207 167 178
-0.10928 -1.27678 1.78113 207 167 178
-0.14514 -1.24038 1.78113 207 167 178
-0.14514 -1.24038 1.65421 207 167 178
-0.14514 -0.9501 1.78113 207 167 178
-0.14514 -0.98848 1.65421 207 167 178
-0.11933 -0.98848 1.65421 207 167 178
-0.11933 -1.21984 1.65421 207 167 178
-0.14514 -0.9501 1.65421 207 167 178
-0.11933 -0.98848 1.55847 207 167 178
-0.14514 -0.98848 1.55847 207 167 178
-0.14514 -0.9501 1.55847 207 167 178
-0.14514 -0.9501 1.46407 207 167 178
-0.14514 -1.16234 1.46407 207 167 178
-0.14514 -1.16234 1.55847 207 167 178
0.14514 -1.16234 1.46407 207 167 178
0.14514 -0.9501 1.46407 207 167 178
-0.11849 -1.19407 1.46407 207 167 178
-0.11849 -1.19407 1.55847 207 167 178
0.11849 -1.19407 1.55847 207 167 178
0.11849 -1.19407 1.46407 207 167 178
-0.08938 -1.24823 1.65421 207 167 178
0.09182 -1.24823 1.65421 207 167 178
0.11933 -1.21984 1.65421 207 167 178
0.14514 -1.24038 1.65421 207 167 178
0.14514 -1.24038 1.78113 207 167 178
0.14514 -0.9501 1.78113 207 167 178
0.14514 -0.98848 1.65421 207 167 178
0.14514 -0.9501 1.65421 207 167 178
0.14514 -0.98848 1.55847 207 167 178
0.14514 -0.9501 1.55847 207 167 178
0.14514 -1.16234 1.55847 207 167 178
0.11933 -0.98848 1.55847 207 167 178
0.11933 -0.98848 1.65421 207 167 178
0.14514 -0.9501 1.78113 214 173 184
0.14514 -1.24038 1.78113 214 173 184
-0.14514 -1.24038 1.78113 214 173 184
-0.14514 -0.9501 1.78113 214 173 184
0.10928 -1.27678 1.78113 214 173 184
-0.10928 -1.27678 1.78113 214 173 184
-0.11933 -1.1384 1.55847 214 173 184
-0.14514 -1.16234 1.55847 214 173 184
-0.14514 -0.98848 1.55847 214 173 184
-0.11933 -0.98848 1.55847 214 173 184
-0.11849 -1.19407 1.55847 214 173 184
-0.10015 -1.16234 1.55847 214 173 184
0.11849 -1.19407 1.55847 214 173 184
0.09982 -1.16234 1.55847 214 173 184
0.14514 -1.16234 1.55847 214 173 184
0.11933 -1.1384 1.55847 214 173 184
0.14514 -0.98848 1.55847 214 173 184
0.11933 -0.98848 1.55847 214 173 184
0.3226 -0.27494 1.79868 199 158 104
0.3226 -0.27494 2.11695 199 158 104
-0.3226 -0.27494 2.11695 199 158 104
-0.3226 -0.27494 1.79868 199 158 104
-0.36471 -0.33192 1.79866 199 158 104
-0.36471 -0.33192 2.11695 199 158 104
0.36471 -0.33192 1.79866 199 158 104
0.36471 -0.33192 2.11695 199 158 104
0.26569 -0.33192 2.15543 199 158 104
0.30125 -0.38117 2.15543 199 158 104
-0.26376 -0.33192 2.15543 199 158 104
-0.29992 -0.38123 2.15543 199 158 104
-0.36471 -0.90517 2.11695 199 158 104
-0.36471 -0.90517 1.96689 199 158 104
-0.33081 -0.95613 1.96689 199 158 104
-0.33081 -0.95613 2.11695 199 158 104
-0.36471 -0.56283 1.96689 199 158 104
-0.2995 -0.85533 2.15543 199 158 104
-0.26413 -0.90517 2.15543 199 158 104
0.30181 -0.85487 2.15543 199 158 104
0.36471 -0.90517 2.11695 199 158 104
0.36471 -0.56283 1.96689 199 158 104
0.36471 -0.90517 1.96689 199 158 104
0.33081 -0.95613 1.96689 199 158 104
0.33081 -0.95613 2.11695 199 158 104
0.26604 -0.90517 2.15543 199 158 104
-0.36471 -0.56283 1.79859 199 158 104
0.36471 -0.56283 1.79859 199 158 104
0.33081 -0.95613 1.42263 246 236 183
0.36471 -0.90517 1.42287 246 236 183
0.32165 -0.90517 1.38752 246 236 183
0.36471 -0.90517 1.79859 246 236 183
0.33081 -0.95613 1.79859 246 236 183
-0.33081 -0.95613 1.42263 246 236 183
-0.33081 -0.95613 1.79859 246 236 183
0.36471 -0.33192 1.42287 246 236 183
0.32165 -0.33192 1.38752 246 236 183
0.3226 -0.27494 1.38752 246 236 183
0.36471 -0.33192 1.79866 246 236 183
0.3226 -0.27494 1.79868 246 236 183
0.36471 -0.56283 1.79859 246 236 183
-0.32165 -0.90517 1.38752 246 236 183
-0.32165 -0.33192 1.38752 246 236 183
-0.3226 -0.27494 1.38752 246 236 183
-0.3226 -0.27494 1.79868 246 236 183
-0.36471 -0.33192 1.79866 246 236 183
-0.36471 -0.33192 1.42287 246 236 183
-0.36471 -0.56283 1.79859 246 236 183
-0.36471 -0.90517 1.42287 246 236 183
-0.36471 -0.90517 1.79859 246 236 183
0.33081 -0.95613 1.79859 56 47 38
0.33081 -0.95613 1.96689 56 47 38
0.36471 -0.90517 1.96689 56 47 38
0.36471 -0.90517 1.79859 56 47 38
-0.33081 -0.95613 1.79859 56 47 38
-0.33081 -0.95613 1.96689 56 47 38
0.36471 -0.56283 1.79859 56 47 38
0.36471 -0.56283 1.96689 56 47 38
-0.36471 -0.56283 1.96689 56 47 38
-0.36471 -0.90517 1.96689 56 47 38
-0.36471 -0.90517 1.79859 56 47 38
-0.36471 -0.56283 1.79859 56 47 38
0.37523 0.72157 1.11958 246 236 183
0.37523 0.72117 1.61808 246 236 183
-0.37523 0.72117 1.61808 246 236 183
-0.37523 0.72157 1.11958 246 236 183
-0.41166 0.67802 1.13277 246 236 183
-0.34932 0.67802 1.0917 246 236 183
-0.41166 0.67799 1.61839 246 236 183
-0.41166 -0.32174 1.61839 246 236 183
-0.41166 -0.32174 1.13277 246 236 183
-0.35273 -0.36979 1.13292 246 236 183
-0.35273 -0.36979 1.61851 246 236 183
0.35273 -0.36979 1.61851 246 236 183
0.35273 -0.36979 1.13292 246 236 183
0.41166 -0.32174 1.13277 246 236 183
0.34932 -0.32174 1.0917 246 236 183
0.34932 0.67802 1.0917 246 236 183
0.41166 0.67802 1.13277 246 236 183
0.41166 0.67799 1.61839 246 236 183
0.41166 -0.32174 1.61839 246 236 183
-0.34932 -0.32174 1.0917 246 236 183
0.41166 0.67799 1.86132 199 158 104
0.41166 -0.32174 1.86132 199 158 104
0.35298 -0.28099 1.90924 199 158 104
0.35327 0.62813 1.90924 199 158 104
0.41166 -0.32174 1.61839 199 158 104
0.41166 0.67799 1.61839 199 158 104
0.35273 -0.36979 1.86098 199 158 104
0.32214 -0.31209 1.90924 199 158 104
0.35273 -0.36979 1.61851 199 158 104
-0.35273 -0.36979 1.61851 199 158 104
-0.35273 -0.36979 1.86098 199 158 104
0.37523 0.7223 1.86132 199 158 104
0.32037 0.66834 1.90924 199 158 104
0.37523 0.72117 1.61808 199 158 104
-0.37523 0.7223 1.86132 199 158 104
-0.37523 0.72117 1.61808 199 158 104
-0.41166 0.67799 1.61839 199 158 104
-0.41166 0.67799 1.86132 199 158 104
-0.41166 -0.32174 1.86132 199 158 104
-0.41166 -0.32174 1.61839 199 158 104
-0.35242 -0.28099 1.90924 199 158 104
-0.35152 0.62813 1.90924 199 158 104
-0.32257 -0.31209 1.90924 199 158 104
-0.3221 0.66834 1.90924 199 158 104
-0.2995 -0.85533 2.15543 207 164 108
-0.29992 -0.38123 2.15543 207 164 108
0.30125 -0.38117 2.15543 207 164 108
0.30181 -0.85487 2.15543 207 164 108
0.26569 -0.33192 2.15543 207 164 108
-0.26376 -0.33192 2.15543 207 164 108
0.26604 -0.90517 2.15543 207 164 108
-0.26413 -0.90517 2.15543 207 164 108
-0.32257 -0.31209 1.90924 207 164 108
-0.35242 -0.28099 1.90924 207 164 108
-0.35152 0.62813 1.90924 207 164 108
-0.3221 0.66834 1.90924 207 164 108
0.35298 -0.28099 1.90924 207 164 108
0.32214 -0.31209 1.90924 207 164 108
0.32037 0.66834 1.90924 207 164 108
0.35327 0.62813 1.90924 207 164 108
0.11933 -1.1384 1.55847 144 116 123
-0.11933 -1.1384 1.55847 144 116 123
-0.11933 -0.98848 1.55847 144 116 123
0.11933 -0.98848 1.55847 144 116 123
-0.11933 -0.98848 1.65421 144 116 123
0.11933 -0.98848 1.65421 144 116 123
-0.10015 -1.16234 1.55847 144 116 123
0.09982 -1.16234 1.55847 144 116 123
-0.11933 -1.21984 1.65421 144 116 123
0.11933 -1.21984 1.65421 144 116 123
0.09182 -1.24823 1.65421 144 116 123
-0.08938 -1.24823 1.65421 144 116 123
0.30044 0.7108 1.62728 199 158 104
0.30044 0.7108 1.80172 199 158 104
0.30044 0.78772 1.80172 199 158 104
0.30044 0.78772 1.62728 199 158 104
0.46678 0.78772 1.62728 199 158 104
0.46678 0.78772 1.80172 199 158 104
0.50509 0.83304 1.62728 199 158 104
0.50509 0.83304 1.80172 199 158 104
0.46727 1.37081 1.62728 199 158 104
0.22447 1.37081 1.62728 199 158 104
0.46727 1.37081 1.80172 199 158 104
0.22447 1.37081 1.80172 199 158 104
0.22447 1.55136 1.62728 199 158 104
0.22447 1.55136 1.80172 199 158 104
0.18964 1.5928 1.62728 199 158 104
0.18964 1.5928 1.80172 199 158 104
-0.22447 1.55136 1.62728 199 158 104
-0.18964 1.5928 1.62728 199 158 104
0.50509 1.32489 1.80172 199 158 104
0.50509 1.32489 1.62728 199 158 104
-0.18964 1.5928 1.80172 199 158 104
-0.22447 1.37081 1.62728 199 158 104
-0.30044 0.78772 1.62728 199 158 104
-0.30044 0.7108 1.62728 199 158 104
0.50509 0.83304 1.80172 207 164 108
0.46678 0.78772 1.80172 207 164 108
0.46727 1.37081 1.80172 207 164 108
0.50509 1.32489 1.80172 207 164 108
0.22447 1.37081 1.80172 207 164 108
0.30044 0.78772 1.80172 207 164 108
-0.30044 0.78772 1.80172 207 164 108
-0.22447 1.37081 1.80172 207 164 108
0.22447 1.55136 1.80172 207 164 108
-0.22447 1.55136 1.80172 207 164 108
-0.30044 0.7108 1.80172 207 164 108
0.30044 0.7108 1.80172 207 164 108
0.18964 1.5928 1.80172 207 164 108
-0.18964 1.5928 1.80172 207 164 108
-0.30044 0.78772 1.80172 199 158 104
-0.30044 0.7108 1.80172 199 158 104
-0.46678 0.78772 1.62728 199 158 104
-0.46678 0.78772 1.80172 199 158 104
-0.50509 0.83304 1.62728 199 158 104
-0.50509 0.83304 1.80172 199 158 104
-0.46727 1.37081 1.62728 199 158 104
-0.46727 1.37081 1.80172 199 158 104
-0.22447 1.37081 1.80172 199 158 104
-0.22447 1.55136 1.80172 199 158 104
-0.50509 1.32489 1.80172 199 158 104
-0.50509 1.32489 1.62728 199 158 104
-0.50509 0.83304 1.80172 207 164 108
-0.50509 1.32489 1.80172 207 164 108
-0.46727 1.37081 1.80172 207 164 108
-0.46678 0.78772 1.80172 207 164 108
-1.01043 0.18882 1.61772 199 158 104
-0.24691 0.18882 1.61772 199 158 104
-0.24691 0.18882 1.76396 199 158 104
-1.01043 0.18882 1.76396 199 158 104
-1.03938 0.16359 1.76396 199 158 104
-1.03938 0.16359 1.61772 199 158 104
-1.01043 -0.28945 1.61772 199 158 104
-0.24691 -0.28945 1.61772 199 158 104
-1.03938 -0.26423 1.61772 199 158 104
-1.03938 -0.26423 1.76396 199 158 104
-1.01043 0.18882 1.76396 207 164 108
-0.24691 0.18882 1.76396 207 164 108
-0.24691 -0.28945 1.76396 207 164 108
-1.01043 -0.28945 1.76396 207 164 108
-1.03938 -0.26423 1.76396 207 164 108
-1.03938 0.16359 1.76396 207 164 108
-1.01043 -0.28945 1.76396 199 158 104
-0.24691 -0.28945 1.76396 199 158 104
-1.32632 0.47752 1.49374 246 236 183
-0.24691 0.47752 1.49374 246 236 183
-0.24691 0.47752 1.63415 246 236 183
-1.32632 0.47752 1.63415 246 236 183
-1.35454 0.45121 1.63415 246 236 183
-1.35454 0.45121 1.49374 246 236 183
-1.32632 -0.21791 1.49374 246 236 183
-0.24691 -0.21791 1.49374 246 236 183
-1.35454 -0.19161 1.49374 246 236 183
-1.35454 -0.19161 1.63415 246 236 183
-1.32632 0.47752 1.63415 251 241 187
-0.24691 0.47752 1.63415 251 241 187
-0.24691 -0.21791 1.63415 251 241 187
-1.32632 -0.21791 1.63415 251 241 187
-1.35454 -0.19161 1.63415 251 241 187
-1.35454 0.45121 1.63415 251 241 187
-1.32632 -0.21791 1.63415 246 236 183
-0.24691 -0.21791 1.63415 246 236 183
-1.4745 0.34533 1.50559 246 236 183
-1.31477 0.34533 1.50559 246 236 183
-1.31477 0.34533 1.57442 246 236 183
-1.4745 0.34533 1.57442 246 236 183
-1.50059 0.32536 1.57442 246 236 183
-1.50059 0.32536 1.50559 246 236 183
-1.4745 -0.12078 1.50559 246 236 183
-1.31477 -0.12078 1.50559 246 236 183
-1.50059 -0.10081 1.50559 246 236 183
-1.50059 -0.10081 1.57442 246 236 183
-1.4745 0.34533 1.57442 251 241 187
-1.31477 0.34533 1.57442 251 241 187
-1.31477 -0.12078 1.57442 251 241 187
-1.4745 -0.12078 1.57442 251 241 187
-1.50059 -0.10081 1.57442 251 241 187
-1.50059 0.32536 1.57442 251 241 187
-1.4745 -0.12078 1.57442 246 236 183
-1.31477 -0.12078 1.57442 246 236 183
-1.23494 0.73286 1.50559 246 236 183
-0.86369 0.73286 1.50559 246 236 183
-0.86369 0.73286 1.57442 246 236 183
-1.23494 0.73286 1.57442 246 236 183
-1.25767 0.70476 1.50559 246 236 183
-0.84096 0.70476 1.50559 246 236 183
-1.25767 0.46588 1.50559 246 236 183
-0.84096 0.46588 1.50559 246 236 183
-0.84096 0.70476 1.57442 246 236 183
-0.84096 0.46588 1.57442 246 236 183
-1.25767 0.70476 1.57442 251 241 187
-0.84096 0.70476 1.57442 251 241 187
-0.84096 0.46588 1.57442 251 241 187
-1.25767 0.46588 1.57442 251 241 187
-1.23494 0.73286 1.57442 251 241 187
-0.86369 0.73286 1.57442 251 241 187
-1.25767 0.70476 1.57442 246 236 183
-1.25767 0.46588 1.57442 246 236 183
-0.73144 0.63504 1.50559 246 236 183
-0.51724 0.63504 1.50559 246 236 183
-0.51724 0.63504 1.57442 246 236 183
-0.73144 0.63504 1.57442 246 236 183
-0.75373 0.60694 1.50559 246 236 183
-0.49495 0.60694 1.50559 246 236 183
-0.75373 0.46113 1.50559 246 236 183
-0.49495 0.46113 1.50559 246 236 183
-0.49495 0.60694 1.57442 246 236 183
-0.49495 0.46113 1.57442 246 236 183
-0.75373 0.60694 1.57442 251 241 187
-0.49495 0.60694 1.57442 251 241 187
-0.49495 0.46113 1.57442 251 241 187
-0.75373 0.46113 1.57442 251 241 187
-0.73144 0.63504 1.57442 251 241 187
-0.51724 0.63504 1.57442 251 241 187
-0.75373 0.60694 1.57442 246 236 183
-0.75373 0.46113 1.57442 246 236 183
-1.12394 0.08468 1.61172 199 158 104
-0.99613 0.08468 1.61172 199 158 104
-0.99613 0.08468 1.70021 199 158 104
-1.12394 0.08468 1.70021 199 158 104
-1.14622 0.06982 1.70021 199 158 104
-1.14622 0.06982 1.61172 199 158 104
-1.14622 -0.13371 1.61172 199 158 104
-1.14622 -0.13371 1.70021 199 158 104
-1.12394 -0.14856 1.70021 199 158 104
-1.12394 -0.14856 1.61172 199 158 104
-0.99613 -0.14856 1.61172 199 158 104
-0.99613 -0.14856 1.70021 199 158 104
-1.12394 0.08468 1.70021 207 164 108
-0.99613 0.08468 1.70021 207 164 108
-0.99613 -0.14856 1.70021 207 164 108
-1.12394 -0.14856 1.70021 207 164 108
-1.14622 -0.13371 1.70021 207 164 108
-1.14622 0.06982 1.70021 207 164 108
-0.84726 0.33975 1.61172 199 158 104
-0.57708 0.33975 1.61172 199 158 104
-0.57708 0.33975 1.70021 199 158 104
-0.84726 0.33975 1.70021 199 158 104
-0.56434 0.32324 1.61172 199 158 104
-0.56434 0.32324 1.70021 199 158 104
-0.56434 0.17989 1.70021 199 158 104
-0.56434 0.17989 1.61172 199 158 104
-0.86 0.32324 1.70021 199 158 104
-0.86 0.32324 1.61172 199 158 104
-0.86 0.17989 1.61172 199 158 104
-0.86 0.17989 1.70021 199 158 104
-0.86 0.32324 1.70021 207 164 108
-0.56434 0.32324 1.70021 207 164 108
-0.56434 0.17989 1.70021 207 164 108
-0.86 0.17989 1.70021 207 164 108
-0.84726 0.33975 1.70021 207 164 108
-0.57708 0.33975 1.70021 207 164 108
-0.24016 -0.93816 1.93676 239 239 239
-0.09549 -0.93816 1.93676 239 239 239
-0.09549 -0.98131 1.93676 239 239 239
-0.24016 -0.98131 1.93676 239 239 239
-0.24016 -0.98131 1.77929 239 239 239
-0.24016 -0.93816 1.77929 239 239 239
-0.20561 -0.98131 1.85117 239 239 239
-0.20561 -0.98131 1.90962 239 239 239
-0.09549 -0.98131 1.90958 239 239 239
-0.09549 -0.93816 1.77929 239 239 239
-0.09549 -0.98131 1.80645 239 239 239
-0.09549 -0.98131 1.77929 239 239 239
-0.14189 -0.98131 1.80644 239 239 239
-0.20561 -0.98131 1.80642 239 239 239
-0.16219 -0.98131 1.85115 239 239 239
-0.14183 -0.98131 1.83392 239 239 239
-0.16219 -0.98131 1.83392 239 239 239
-0.16219 -0.98131 1.88556 239 239 239
-0.12106 -0.98131 1.83392 239 239 239
-0.12106 -0.98131 1.88556 239 239 239
-0.20561 -0.98131 1.90962 56 47 38
-0.09549 -0.98131 1.90958 56 47 38
-0.12106 -0.98131 1.88556 56 47 38
-0.16219 -0.98131 1.88556 56 47 38
-0.12106 -0.98131 1.83392 56 47 38
-0.09549 -0.98131 1.80645 56 47 38
-0.16219 -0.98131 1.85115 56 47 38
-0.20561 -0.98131 1.85117 56 47 38
-0.14183 -0.98131 1.83392 56 47 38
-0.14189 -0.98131 1.80644 56 47 38
-0.14183 -0.98131 1.83392 71 62 53
-0.14189 -0.98131 1.80644 71 62 53
-0.20561 -0.98131 1.80642 71 62 53
-0.16219 -0.98131 1.83392 71 62 53
-0.16219 -0.98131 1.85115 71 62 53
-0.20561 -0.98131 1.85117 71 62 53
3 0 2 1
3 0 3 2
3 4 0 1
3 4 5 0
3 4 1 6
3 6 1 7
3 1 8 7
3 1 2 8
3 3 8 2
3 9 8 3
3 9 10 8
3 9 11 10
3 4 11 9
3 4 9 5
3 11 12 10
3 11 4 12
3 12 4 13
3 4 6 13
3 14 16 15
3 17 16 14
3 17 18 16
3 17 19 18
3 20 22 21
3 20 23 22
3 23 24 22
3 23 25 24
3 26 20 21
3 26 27 20
3 25 28 24
3 25 29 28
3 30 32 31
3 30 33 32
3 32 34 31
3 32 35 34
3 36 38 37
3 36 39 38
3 36 37 40
3 36 40 41
3 42 36 41
3 42 39 36
3 42 43 39
3 42 41 44
3 44 41 40
3 44 40 45
3 46 48 47
3 46 49 48
3 46 47 50
3 46 50 51
3 52 43 42
3 52 53 43
3 52 42 44
3 52 44 45
3 54 56 55
3 54 57 56
3 54 55 58
3 54 58 59
3 60 54 59
3 60 57 54
3 60 61 57
3 60 59 62
3 62 59 58
3 62 58 63
3 64 66 65
3 64 67 66
3 64 65 68
3 64 68 69
3 70 61 60
3 70 71 61
3 70 60 62
3 70 62 63
3 72 74 73
3 72 75 74
3 72 73 76
3 72 76 77
3 78 72 77
3 78 75 72
3 78 79 75
3 78 77 80
3 80 77 76
3 80 76 81
3 82 84 83
3 82 85 84
3 82 83 86
3 82 86 87
3 88 79 78
3 88 89 79
3 88 78 80
3 88 80 81
3 90 92 91
3 90 93 92
3 94 93 90
3 94 95 93
3 96 95 94
3 96 97 95
3 95 92 93
3 95 98 92
3 95 99 98
3 95 97 99
3 100 102 101
3 100 103 102
3 103 100 104
3 103 104 105
3 96 107 106
3 96 94 107
3 107 94 90
3 107 90 91
3 108 110 109
3 108 111 110
3 112 111 108
3 112 113 111
3 114 113 112
3 114 115 113
3 113 110 111
3 113 116 110
3 113 117 116
3 113 115 117
3 118 120 119
3 118 121 120
3 121 118 122
3 121 122 123
3 114 125 124
3 114 112 125
3 125 112 108
3 125 108 109
3 126 128 127
3 126 129 128
3 126 127 130
3 126 130 131
3 132 131 130
3 132 130 133
3 134 132 133
3 134 135 132
3 134 136 135
3 134 137 136
3 138 140 139
3 138 141 140
3 138 139 142
3 138 142 143
3 144 146 145
3 144 147 146
3 148 146 147
3 148 149 146
3 148 150 149
3 148 151 150
3 152 144 145
3 152 153 144
3 154 153 152
3 154 152 155
3 156 158 157
3 156 159 158
3 159 156 160
3 159 160 161
3 162 164 163
3 162 165 164
3 166 163 164
3 167 163 166
3 167 162 163
3 166 164 168
3 168 164 165
3 168 165 169
3 169 162 167
3 169 165 162
3 170 172 171
3 170 173 172
3 173 174 172
3 173 175 174
3 175 176 174
3 175 177 176
3 178 171 172
3 176 178 179
3 172 179 178
3 176 179 180
3 178 181 171
3 182 181 178
3 182 183 181
3 173 183 182
3 173 170 183
3 175 184 177
3 182 185 173
3 184 185 182
3 184 182 177
3 176 186 178
3 176 187 186
3 177 187 176
3 177 188 187
3 182 188 177
3 182 189 188
3 184 190 185
3 184 191 190
3 178 186 189
3 178 189 182
3 175 191 184
3 175 192 191
3 173 192 175
3 173 193 192
3 185 193 173
3 185 190 193
3 176 180 174
3 180 194 174
3 174 194 195
3 174 195 172
3 172 195 196
3 172 196 179
3 180 197 194
3 198 200 199
3 198 201 200
3 202 198 199
3 202 199 203
3 203 199 200
3 203 200 204
3 205 198 202
3 205 201 198
3 204 201 205
3 204 200 201
3 206 208 207
3 206 209 208
3 210 206 207
3 210 207 211
3 211 207 208
3 211 208 212
3 213 206 210
3 213 209 206
3 212 209 213
3 212 208 209
3 179 197 180
3 179 196 197
3 214 216 215
3 214 217 216
3 218 216 217
3 219 218 217
3 219 217 214
3 218 220 216
3 220 215 216
3 220 221 215
3 221 219 214
3 221 214 215
3 222 224 223
3 222 225 224
3 223 224 226
3 223 226 227
3 227 226 228
3 227 228 229
3 230 224 225
3 228 231 230
3 224 230 231
3 228 232 231
3 230 225 233
3 234 230 233
3 234 233 235
3 223 234 235
3 223 235 222
3 227 229 236
3 234 223 237
3 236 234 237
3 236 229 234
3 228 230 238
3 228 238 239
3 229 228 239
3 229 239 240
3 234 229 240
3 234 240 241
3 236 237 242
3 236 242 243
3 230 241 238
3 230 234 241
3 227 236 243
3 227 243 244
3 223 227 244
3 223 244 245
3 237 223 245
3 237 245 242
3 228 226 232
3 232 226 246
3 226 247 246
3 226 224 247
3 224 248 247
3 224 231 248
3 232 246 249
3 250 252 251
3 250 253 252
3 254 253 250
3 254 255 253
3 255 252 253
3 255 256 252
3 257 254 250
3 257 250 251
3 256 251 252
3 256 257 251
3 258 260 259
3 258 261 260
3 262 261 258
3 262 263 261
3 263 260 261
3 263 264 260
3 265 262 258
3 265 258 259
3 264 259 260
3 264 265 259
3 231 249 248
3 231 232 249
3 266 268 267
3 266 269 268
3 267 268 270
3 271 270 268
3 272 270 271
3 267 270 272
3 272 271 273
3 271 268 274
3 274 268 269
3 267 275 266
3 267 273 275
3 267 272 273
3 276 278 277
3 276 279 278
3 280 282 281
3 280 283 282
3 284 286 285
3 284 287 286
3 288 290 289
3 288 291 290
3 290 291 281
3 290 281 282
3 287 279 276
3 287 284 279
3 279 284 292
3 279 292 293
3 284 294 292
3 284 285 294
3 278 279 293
3 278 293 295
3 296 298 297
3 296 299 298
3 300 302 301
3 300 303 302
3 304 306 305
3 304 307 306
3 308 310 309
3 308 311 310
3 309 310 302
3 309 302 303
3 305 297 304
3 305 296 297
3 304 297 312
3 297 313 312
3 297 298 313
3 304 312 314
3 307 304 314
3 307 314 315
3 316 318 317
3 316 319 318
3 319 320 318
3 319 321 320
3 322 320 321
3 322 321 323
3 318 320 324
3 318 324 325
3 317 318 325
3 317 325 326
3 320 327 324
3 320 322 327
3 322 317 326
3 323 317 322
3 323 316 317
3 322 326 327
3 328 330 329
3 328 331 330
3 332 334 333
3 332 335 334
3 333 334 336
3 333 336 337
3 338 334 335
3 338 336 334
3 337 332 333
3 337 339 332
3 340 342 341
3 340 343 342
3 344 342 343
3 344 345 342
3 346 345 344
3 346 347 345
3 348 345 347
3 348 349 345
3 350 347 346
3 351 348 347
3 351 347 352
3 347 353 352
3 347 350 353
3 352 353 354
3 352 354 355
3 352 355 356
3 354 357 355
3 354 358 357
3 356 355 359
3 356 359 360
3 361 360 359
3 361 359 362
3 355 362 359
3 355 357 362
3 345 349 363
3 345 363 342
3 342 363 364
3 342 364 341
3 341 364 365
3 341 365 366
3 366 340 341
3 366 367 340
3 366 368 367
3 366 369 368
3 368 369 370
3 370 369 371
3 370 371 372
3 372 371 358
3 358 371 373
3 358 373 357
3 357 373 361
3 357 361 362
3 369 374 371
3 369 375 374
3 366 375 369
3 366 365 375
3 376 378 377
3 376 379 378
3 377 381 380
3 377 378 381
3 382 384 383
3 382 385 384
3 386 382 383
3 386 387 382
3 388 387 386
3 388 389 387
3 390 389 388
3 390 391 389
3 392 391 390
3 392 393 391
3 394 396 395
3 394 397 396
3 396 397 398
3 396 398 399
3 395 400 394
3 395 401 400
3 401 395 402
3 401 402 403
3 404 396 399
3 404 399 405
3 406 405 399
3 399 407 406
3 406 407 408
3 406 408 409
3 399 410 407
3 406 411 405
3 412 406 409
3 412 411 406
3 401 403 413
3 401 413 414
3 415 401 414
3 400 401 415
3 415 414 416
3 417 416 414
3 417 414 418
3 418 408 417
3 418 409 408
3 418 412 409
3 418 419 412
3 414 419 418
3 414 413 419
3 399 420 410
3 399 398 420
3 400 415 421
3 422 424 423
3 422 423 425
3 422 425 426
3 426 427 422
3 426 428 427
3 429 423 424
3 429 424 430
3 429 430 431
3 431 432 429
3 431 433 432
3 434 429 432
3 434 425 423
3 434 423 429
3 430 424 435
3 422 435 424
3 422 427 435
3 430 435 436
3 437 439 438
3 437 440 439
3 431 437 438
3 431 438 433
3 441 439 440
3 441 440 442
3 441 442 443
3 443 442 427
3 443 427 428
3 436 442 440
3 431 436 437
3 437 436 440
3 436 435 442
3 435 427 442
3 431 430 436
3 444 446 445
3 444 447 446
3 445 448 444
3 445 449 448
3 446 447 450
3 446 450 451
3 452 454 453
3 452 455 454
3 453 454 448
3 453 448 449
3 456 458 457
3 456 459 458
3 460 458 459
3 459 461 460
3 460 462 458
3 460 463 462
3 460 464 463
3 461 464 460
3 463 464 465
3 463 465 466
3 467 466 465
3 467 465 468
3 469 467 468
3 468 470 469
3 469 470 471
3 469 471 472
3 469 472 473
3 469 473 474
3 469 474 467
3 473 472 456
3 472 471 456
3 456 471 461
3 473 456 457
3 461 475 464
3 464 475 465
3 471 470 475
3 471 475 461
3 465 470 468
3 465 475 470
3 456 461 459
3 476 478 477
3 476 479 478
3 480 476 477
3 480 481 476
3 482 477 478
3 480 477 482
3 482 478 483
3 480 482 484
3 482 485 484
3 482 486 485
3 479 476 487
3 479 487 488
3 476 489 487
3 476 481 489
3 489 490 487
3 489 491 490
3 492 490 491
3 492 493 490
3 492 494 493
3 492 495 494
3 494 495 485
3 494 485 486
3 496 493 494
3 486 496 494
3 496 497 493
3 497 490 493
3 486 498 496
3 497 499 490
3 490 499 488
3 490 488 487
3 395 404 402
3 395 396 404
3 500 502 501
3 500 503 502
3 501 502 504
3 501 504 505
3 506 500 507
3 506 503 500
3 508 510 509
3 508 511 510
3 482 498 486
3 482 483 498
3 512 514 513
3 512 515 514
3 513 514 511
3 513 511 508
3 516 518 517
3 516 519 518
3 519 520 518
3 519 521 520
3 516 517 522
3 516 522 523
3 521 524 520
3 521 525 524
3 524 525 526
3 524 526 527
3 528 530 529
3 528 531 530
3 530 531 532
3 530 532 533
3 533 532 534
3 533 534 535
3 536 532 531
3 534 532 536
3 536 531 537
3 537 538 536
3 537 539 538
3 539 537 540
3 539 540 541
3 541 540 542
3 541 542 543
3 542 540 544
3 537 544 540
3 542 544 545
3 546 536 538
3 546 547 536
3 535 547 546
3 535 534 547
3 534 536 547
3 542 548 543
3 542 545 548
3 537 549 544
3 531 549 537
3 531 550 549
3 528 550 531
3 528 551 550
3 552 554 553
3 552 555 554
3 553 554 556
3 553 556 557
3 556 558 557
3 556 559 558
3 560 559 556
3 560 561 559
3 557 558 562
3 557 562 563
3 564 561 560
3 564 565 561
3 551 566 550
3 551 567 566
3 566 568 550
3 566 569 568
3 569 570 568
3 569 571 570
3 572 550 568
3 570 572 568
3 572 549 550
3 549 572 573
3 549 573 574
3 574 544 549
3 574 575 544
3 575 545 544
3 575 548 545
3 576 573 572
3 576 572 577
3 571 577 570
3 571 576 577
3 570 577 572
3 578 580 579
3 578 581 580
3 581 559 580
3 581 558 559
3 582 584 583
3 582 585 584
3 582 586 585
3 582 587 586
3 588 587 582
3 588 582 583
3 588 583 589
3 588 590 587
3 590 586 587
3 590 591 586
3 592 594 593
3 592 595 594
3 592 596 595
3 592 597 596
3 598 589 599
3 598 588 589
3 598 590 588
3 598 591 590
3 600 602 601
3 600 603 602
3 600 604 603
3 600 605 604
3 606 605 600
3 606 600 601
3 606 601 607
3 606 608 605
3 608 604 605
3 608 609 604
3 610 612 611
3 610 613 612
3 610 614 613
3 610 615 614
3 616 607 617
3 616 606 607
3 616 608 606
3 616 609 608
3 618 620 619
3 618 621 620
3 618 622 621
3 618 623 622
3 624 623 618
3 624 618 619
3 624 619 625
3 624 626 623
3 626 622 623
3 626 627 622
3 628 630 629
3 628 631 630
3 628 632 631
3 628 633 632
3 634 625 635
3 634 624 625
3 634 626 624
3 634 627 626
3 636 638 637
3 636 639 638
3 640 636 637
3 640 637 641
3 642 640 641
3 642 641 643
3 641 637 638
3 641 638 644
3 641 644 645
3 641 645 643
3 646 648 647
3 646 649 648
3 647 650 646
3 647 651 650
3 642 652 640
3 642 653 652
3 652 636 640
3 652 639 636
3 654 656 655
3 654 657 656
3 658 654 655
3 658 655 659
3 660 658 659
3 660 659 661
3 659 655 656
3 659 656 662
3 659 662 663
3 659 663 661
3 664 666 665
3 664 667 666
3 665 668 664
3 665 669 668
3 660 670 658
3 660 671 670
3 670 654 658
3 670 657 654
3 672 674 673
3 672 675 674
3 672 676 675
3 672 677 676
3 678 676 677
3 678 679 676
3 680 679 678
3 680 678 681
3 680 681 682
3 680 682 683
3 684 686 685
3 684 687 686
3 684 688 687
3 684 689 688
3 690 692 691
3 690 693 692
3 694 691 692
3 694 692 695
3 694 695 696
3 694 696 697
3 698 693 690
3 698 690 699
3 700 698 699
3 700 701 698
3 702 704 703
3 702 705 704
3 703 706 702
3 703 707 706
3 708 710 709
3 708 711 710
3 712 711 708
3 712 708 713
3 712 714 711
3 714 715 711
3 711 715 716
3 711 716 710
3 709 710 716
3 717 709 716
3 717 716 718
3 717 718 719
3 712 717 719
3 712 713 717
3 719 720 712
3 719 718 720
3 720 721 712
3 712 721 714
3 722 724 723
3 725 722 723
3 725 723 726
3 725 726 727
3 728 730 729
3 728 731 730
3 729 730 732
3 729 732 733
3 734 731 728
3 734 728 735
3 733 732 736
3 733 736 737
3 738 740 739
3 738 741 740
3 740 741 742
3 740 742 743
