mtllib Misdreavus.mtl
v -0.101869 0.299317 -0.152943
vt 0.905 0.659538
vn -0.7224843 -0.4085162 -0.5577912
v 0 0.338702 -0.274813
vt 0.933981 0.659067
vn 0 -0.6334817 -0.7737577
v 0 0.254022 -0.23526
vt 0.933981 0.653876
vn 0 -0.7592237 -0.6508297
v -0.106817 0.402628 -0.152079
vt 0.90292 0.680772
vn -0.8639528 -0.07211878 -0.4983819
v 0 0.239913 -0.127752
vt 0.933981 0.643493
vn 0 -0.9202279 -0.3913829
v -0.186862 0.349234 -0.0150099
vt 0.887288 0.678766
vn -0.9987142 0.04465201 -0.0240024
v -0.0994681 0.210153 -0.0151942
vt 0.909126 0.642525
vn -0.431812 -0.8864991 -0.166306
v -0.167055 0.265094 -0.0147687
vt 0.891169 0.659538
vn -0.86239 -0.492892 -0.115503
v 0.101869 0.299317 -0.152943
vt 0.962962 0.659538
vn 0.7224839 -0.4085159 -0.5577919
v 0.106817 0.402628 -0.152079
vt 0.965043 0.680772
vn 0.8639528 -0.07211878 -0.4983819
v -0.10825 0.455516 -0.131823
vt 0.906932 0.702006
vn -0.7608799 0.5914249 -0.26698
v -0.109921 0.247577 0.0941401
vt 0.901366 0.65643
vn -0.5687742 -0.6952202 0.4395052
v 0 0.187401 -0.0165476
vt 0.933981 0.636298
vn 0 -0.9880439 -0.154173
v 0 0.205132 0.0901627
vt 0.933981 0.645033
vn 0 -0.9500539 0.312086
v 0.186862 0.349234 -0.0150099
vt 0.980674 0.678766
vn 0.9987142 0.04465171 -0.0240023
v 0.10825 0.455516 -0.131823
vt 0.96103 0.702006
vn 0.7608799 0.5914249 -0.26698
v -0.161827 0.440751 -0.0383307
vt 0.893544 0.702006
vn -0.7355207 0.6665177 0.1215049
v -0.0706324 0.485881 -0.0263846
vt 0.909126 0.721695
vn -0.429059 0.874718 0.225337
v 0 0.536481 -0.119716
vt 0.933981 0.718016
vn 0 0.9814403 -0.1917681
v 0 0.47507 -0.239886
vt 0.933981 0.708368
vn 0 0.9429981 0.332798
v 0.0994681 0.210153 -0.0151942
vt 0.958836 0.642525
vn 0.431812 -0.8864991 -0.166306
v -0.142332 0.29503 0.0703972
vt 0.898091 0.675216
vn -0.6802698 -0.6247748 0.3832619
v 0 0.234949 0.149177
vt 0.933981 0.655388
vn 0 -0.7306018 0.6828038
v -0.0718145 0.282506 0.139907
vt 0.916036 0.668961
vn -0.5115927 -0.1204569 0.8507426
v 0.161827 0.440751 -0.0383307
vt 0.974418 0.702006
vn 0.7355208 0.6665178 0.121504
v 0.167055 0.265094 -0.0147687
vt 0.976793 0.659538
vn 0.86239 -0.492892 -0.115503
v 0.142332 0.29503 0.0703972
vt 0.969871 0.675216
vn 0.6802692 -0.6247752 0.3832621
v 0.109921 0.247577 0.0941401
vt 0.966596 0.65643
vn 0.5687742 -0.6952202 0.4395052
v 0 0.483768 0.00623684
vt 0.933981 0.726029
vn 0 0.9814371 0.191784
v -0.149738 0.356366 0.0844517
vt 0.900749 0.698062
vn -0.429085 0.7241341 0.5399221
v 0 0.477413 0.12216
vt 0.933981 0.723031
vn 0 0.8702906 0.4925388
v -0.0461873 0.402906 0.169913
vt 0.917365 0.710547
vn -0.4044322 0.2524471 0.8790364
v 0 0.292905 0.178037
vt 0.933981 0.671929
vn 0 -0.2660681 0.9639543
v 0 0.306463 0.170855
vt 0.933981 0.675216
vn 0 0.1913359 0.9815246
v -0.238026 0.330087 -0.0739035
vt 0.897579 0.683657
vn -0.4784029 -0.6761708 -0.5602889
vn 0.9648507 0.2467179 -0.09051728
v -0.247293 0.422757 0.0144283
vt 0.898908 0.69508
vn -0.8930288 0.29973 0.335651
vn -0.724085 0.0723732 0.6859031
v 0.0706324 0.485881 -0.0263846
vt 0.958836 0.721695
vn 0.429059 0.874718 0.225337
v 0.0718145 0.282506 0.139907
vt 0.951926 0.668961
vn 0.5115927 -0.1204569 0.8507426
vn -0.9648507 0.2467179 -0.09051718
v 0.238026 0.330087 -0.0739035
vt 0.970383 0.683657
vn 0.4784029 -0.6761708 -0.5602889
v 0.247293 0.422757 0.0144282
vt 0.969054 0.69508
vn 0.8930288 0.29973 0.335651
v 0.149739 0.356366 0.0844518
vt 0.967213 0.698062
vn 0.7240855 0.07237315 0.6859026
v -0.0955479 0.510206 0.104508
vt 0.913231 0.710776
vn -0.105863 0.7487851 0.6543041
v 0.0461873 0.402906 0.169913
vt 0.950597 0.710547
vn 0.4044322 0.2524471 0.8790364
vn 0.6830842 -0.191622 -0.7047532
v 0 0.336905 0.168597
vt 0.933981 0.698046
vn 0 -0.116265 0.9932182
vn 0.429085 0.7241341 0.5399221
v 0.095548 0.510206 0.104508
vt 0.954732 0.710776
vn 0.105863 0.7487851 0.6543041
vn -0.6830842 -0.191622 -0.7047532
v 0 0.569319 -0.382168
vt 0.981559 0.451965
vn 0 0.4275592 -0.9039873
vt 0.0419328 0.275687
vt 0 0.485385
v 0 0.438442 -0.309234
vt 0.615455 0.257834
vn 0 0.4429469 -0.8965479
vt 0.391544 0.623477
vt 0.0419328 0.287812
v 0 0.459945 -0.415003
vt 1 0.11308
vn 0 -0.571457 -0.820632
vt 0.438713 -0.00565583
v -0.157536 0.479078 -0.0204483
vt 0.371459 -0.0165441
vn -0.8471838 -0.2865629 -0.4473939
v -0.116165 0.525391 -0.0280476
vt 0.436013 0.278484
vn -0.07754689 0.9206399 0.382634
v -0.117032 0.597428 -0.137985
vt 0.961132 0.280387
vn 0.013624 -0.5428871 -0.8396952
vt -0.148144 0.425511
vt 0.401806 0.603191
vt -0.230785 0.194029
v 0.157536 0.479078 -0.0204483
vn 0.8471842 -0.2865631 -0.4473931
v 0.117032 0.597428 -0.137985
vn -0.01362391 -0.5428882 -0.8396944
v 0.116165 0.525391 -0.0280476
vn 0.0775462 0.9206399 0.382634
v -0.0418615 0.159891 0.093965
vt 0.919496 0.938357
vn -1 0 0
v 0 0.159891 0.0521035
vt 0.897796 0.938357
vn 0 0 -1
v 0 0.118029 0.093965
vt 0.941196 0.894957
vn 0 -1 0
v 0 0.201752 0.093965
vt 0.941196 0.981758
vn 0 1 0
v 0 0.159891 0.135826
vt 0.941196 0.938357
vn 0 0 1
v 0.0418615 0.159891 0.093965
vt 0.962897 0.938357
vn 1 0 0
vt 0.984597 0.938357
v 0.043423 0.169888 0.0405604
v 0.0702189 0.169888 0.0137645
v 0.0702189 0.143092 0.0405604
v 0.0702189 0.196684 0.0405604
v 0.0702189 0.169888 0.0673563
v 0.0970148 0.169888 0.0405604
v 0.0741011 0.179886 -0.0094274
v 0.0951248 0.179886 -0.0304512
v 0.0951248 0.158862 -0.0094274
v 0.0951248 0.200909 -0.0094274
v 0.0951248 0.179886 0.0115964
v 0.116149 0.179886 -0.0094274
v 0.0805692 0.19089 -0.0500299
v 0.0951248 0.19089 -0.0645855
v 0.0951248 0.176335 -0.0500299
v 0.0951248 0.205446 -0.0500299
v 0.0951248 0.19089 -0.0354742
v 0.10968 0.19089 -0.0500299
v -0.043423 0.169888 0.0405604
v -0.0702189 0.143092 0.0405604
v -0.0702189 0.169888 0.0137645
v -0.0702189 0.169888 0.0673563
v -0.0702189 0.196684 0.0405604
v -0.0970148 0.169888 0.0405604
v -0.0741011 0.179886 -0.0094274
v -0.0951248 0.158862 -0.0094274
v -0.0951248 0.179886 -0.0304512
v -0.0951248 0.179886 0.0115964
v -0.0951248 0.200909 -0.0094274
v -0.116149 0.179886 -0.0094274
v -0.0805692 0.19089 -0.0500299
v -0.0951248 0.176335 -0.0500299
v -0.0951248 0.19089 -0.0645855
v -0.0951248 0.19089 -0.0354742
v -0.0951248 0.205446 -0.0500299
v -0.10968 0.19089 -0.0500299
v -0.202444 0.574304 -0.264749
vt 1 0.400237
vn -0.2549581 -0.06156173 -0.9649904
vt 0.183433 0.323633
vt 0.260342 -0.00704971
vt 0 0.510695
v 0.202444 0.574304 -0.264749
vn 0.2549551 -0.06156331 -0.9649912
vt 0.0104136 0.975964
vt 0.0104136 0.54605
vt 0.510414 0.863033
o merged_0_0_node
g polygon_0
usemtl mat_body_mat_id
f 1/1/1 2/2/2 3/3/3
f 1/1/1 4/4/4 2/2/2
f 1/1/1 3/3/3 5/5/5
f 1/1/1 6/6/6 4/4/4
f 1/1/1 5/5/5 7/7/7
f 1/1/1 8/8/8 6/6/6
f 1/1/1 7/7/7 8/8/8
f 2/2/2 9/9/9 3/3/3
f 2/2/2 10/10/10 9/9/9
f 3/3/3 9/9/9 5/5/5
f 4/4/4 6/6/6 11/11/11
f 7/7/7 12/12/12 8/8/8
f 7/7/7 5/5/5 13/13/13
f 7/7/7 14/14/14 12/12/12
f 7/7/7 13/13/13 14/14/14
f 8/8/8 12/12/12 6/6/6
f 10/10/10 15/15/15 9/9/9
f 10/10/10 16/16/16 15/15/15
f 11/11/11 6/6/6 17/17/17
f 11/11/11 17/17/17 18/18/18
f 11/11/11 18/18/18 19/19/19
f 11/11/11 19/19/19 20/20/20
f 20/20/20 19/19/19 16/16/16
f 5/5/5 21/21/21 13/13/13
f 5/5/5 9/9/9 21/21/21
f 13/13/13 21/21/21 14/14/14
f 12/12/12 22/22/22 6/6/6
f 12/12/12 14/14/14 23/23/23
f 12/12/12 24/24/24 22/22/22
f 12/12/12 23/23/23 24/24/24
f 6/6/6 22/22/22 17/17/17
f 15/15/15 16/16/16 25/25/25
f 15/15/15 26/26/26 9/9/9
f 15/15/15 25/25/25 27/27/27
f 15/15/15 28/28/28 26/26/26
f 15/15/15 27/27/27 28/28/28
f 21/21/21 28/28/28 14/14/14
f 21/21/21 9/9/9 26/26/26
f 21/21/21 26/26/26 28/28/28
f 14/14/14 28/28/28 23/23/23
f 18/18/18 29/29/29 19/19/19
f 18/18/18 17/17/17 30/30/30
f 18/18/18 31/31/31 29/29/29
f 18/18/18 32/32/32 31/31/31
f 24/24/24 33/33/33 34/34/34
f 22/22/22 35/35/35 17/17/36
f 22/22/22 36/36/37 35/35/35
f 22/22/22 30/30/38 36/36/37
f 36/36/37 30/30/38 17/17/36
f 16/16/16 37/37/39 25/25/25
f 16/16/16 19/19/19 37/37/39
f 29/29/29 31/31/31 37/37/39
f 29/29/29 37/37/39 19/19/19
f 27/27/27 38/38/40 28/28/28
f 27/27/27 25/25/41 39/39/42
f 27/27/27 39/39/42 40/40/43
f 27/27/27 40/40/43 41/41/44
f 38/38/40 23/23/23 28/28/28
f 38/38/40 34/34/34 33/33/33
f 40/40/43 25/25/41 41/41/44
f 32/32/32 42/42/45 30/30/38
f 32/32/32 43/43/46 31/31/31
f 32/32/32 18/18/47 42/42/45
f 32/32/32 30/30/38 44/44/48
f 32/32/32 44/44/48 43/43/46
f 44/44/48 41/41/44 43/43/46
f 31/31/31 43/43/46 37/37/39
f 25/25/25 37/37/39 41/41/49
f 41/41/44 45/45/50 43/43/46
f 45/45/50 37/37/51 43/43/46
f 46/46/52 4/47/4 11/48/11
f 46/46/52 47/49/53 4/47/4
f 46/46/52 11/48/11 20/50/20
f 46/46/52 10/51/10 47/49/53
f 46/46/52 20/50/20 16/48/16
f 46/46/52 16/48/16 10/51/10
f 4/47/4 47/49/53 48/52/54
f 4/47/4 48/52/54 2/53/2
f 48/52/54 10/51/10 2/53/2
f 48/52/54 47/49/53 10/51/10
f 49/54/55 50/55/56 51/56/57
f 49/54/55 42/57/45 50/55/56
f 49/54/55 51/56/57 18/58/47
f 49/54/55 30/59/38 42/57/45
f 49/54/55 18/58/47 30/59/38
f 18/58/47 51/56/57 50/55/56
f 18/58/47 50/55/56 42/57/45
f 52/54/58 53/56/59 54/55/60
f 52/54/58 37/58/51 53/56/59
f 52/54/58 54/55/60 45/57/50
f 52/54/58 41/59/44 37/58/51
f 52/54/58 45/57/50 41/59/44
f 37/58/51 54/55/60 53/56/59
f 37/58/51 45/57/50 54/55/60
f 55/60/61 56/61/62 57/62/63
f 55/60/61 58/63/64 56/61/62
f 55/60/61 57/62/63 59/64/65
f 55/60/61 59/64/65 58/63/64
f 57/62/63 60/65/66 59/64/65
f 57/62/63 56/66/62 60/65/66
f 60/65/66 58/63/64 59/64/65
f 60/65/66 56/66/62 58/63/64
f 61/60/61 62/61/62 63/62/63
f 61/60/61 64/63/64 62/61/62
f 61/60/61 63/62/63 65/64/65
f 61/60/61 65/64/65 64/63/64
f 63/62/63 66/65/66 65/64/65
f 63/62/63 62/66/62 66/65/66
f 66/65/66 64/63/64 65/64/65
f 66/65/66 62/66/62 64/63/64
f 67/60/61 68/61/62 69/62/63
f 67/60/61 70/63/64 68/61/62
f 67/60/61 69/62/63 71/64/65
f 67/60/61 71/64/65 70/63/64
f 69/62/63 72/65/66 71/64/65
f 69/62/63 68/66/62 72/65/66
f 72/65/66 70/63/64 71/64/65
f 72/65/66 68/66/62 70/63/64
f 73/60/61 74/61/62 75/62/63
f 73/60/61 76/63/64 74/61/62
f 73/60/61 75/62/63 77/64/65
f 73/60/61 77/64/65 76/63/64
f 75/62/63 78/65/66 77/64/65
f 75/62/63 74/66/62 78/65/66
f 78/65/66 76/63/64 77/64/65
f 78/65/66 74/66/62 76/63/64
f 79/60/66 80/62/63 81/61/62
f 79/60/66 82/64/65 80/62/63
f 79/60/66 81/61/62 83/63/64
f 79/60/66 83/63/64 82/64/65
f 80/62/63 82/64/65 84/65/61
f 80/62/63 84/65/61 81/66/62
f 84/65/61 82/64/65 83/63/64
f 84/65/61 83/63/64 81/66/62
f 85/60/66 86/62/63 87/61/62
f 85/60/66 88/64/65 86/62/63
f 85/60/66 87/61/62 89/63/64
f 85/60/66 89/63/64 88/64/65
f 86/62/63 88/64/65 90/65/61
f 86/62/63 90/65/61 87/66/62
f 90/65/61 88/64/65 89/63/64
f 90/65/61 89/63/64 87/66/62
f 91/60/66 92/62/63 93/61/62
f 91/60/66 94/64/65 92/62/63
f 91/60/66 93/61/62 95/63/64
f 91/60/66 95/63/64 94/64/65
f 92/62/63 94/64/65 96/65/61
f 92/62/63 96/65/61 93/66/62
f 96/65/61 94/64/65 95/63/64
f 96/65/61 95/63/64 93/66/62
f 97/67/67 17/68/36 35/69/35
f 97/67/67 36/70/37 17/68/36
f 97/67/67 35/69/35 36/70/37
f 98/67/68 39/69/42 25/68/41
f 98/67/68 40/70/43 39/69/42
f 98/67/68 25/68/41 40/70/43
f 33/71/33 23/72/23 38/73/40
f 33/71/33 24/73/24 23/72/23
v -0.109571 0.0610944 -0.156709
vt 0.849255 0.676268
vn -0.6210636 0.5891026 -0.5169507
v -0.0580359 0.189041 -0.072818
vt 0.821576 0.718482
vn -0.482634 0.8046201 -0.345906
v -0.0512869 0.104711 -0.159158
vt 0.850063 0.690658
vn -0.3201291 0.6373592 -0.7009212
v 0 0.194433 -0.09345
vt 0.828384 0.720261
vn 0 0.8465173 -0.5323611
v 0 0.071743 -0.197454
vt 0.862698 0.679781
vn 0 0.6466283 -0.7628053
v 0.0580362 0.189041 -0.072818
vn 0.4826342 0.8046203 -0.3459051
v 0.109571 0.0610944 -0.156709
vn 0.6210636 0.5891026 -0.5169507
v 0.0512872 0.10471 -0.159158
vn 0.32013 0.637359 -0.700921
v -0.120826 0.0877894 -0.0944108
vt 0.828701 0.685075
vn -0.8344464 0.5041882 -0.2224711
v -0.0827443 0.175989 -0.0228773
vt 0.805099 0.714176
vn -0.7231251 0.6681391 0.175158
v -0.148565 0.0355923 -0.0591269
vt 0.817059 0.667854
vn -0.9105766 0.4003888 0.1026599
v 0.109571 0.0110884 0.0346348
vt 0.786124 0.659769
vn 0.6139449 0.2528819 0.7477449
v 0.0580362 0.163359 0.0254512
vt 0.789154 0.710008
vn 0.4802401 0.5263882 0.7016302
v 0.0512872 0.047929 0.0581109
vt 0.778378 0.671924
vn 0.324115 0.20273 0.92404
v 0 0.157813 0.046671
vt 0.782153 0.708179
vn 0 0.4678832 0.8837903
v 0 0.000439869 0.0753803
vt 0.772681 0.656256
vn 0 0.179466 0.9837642
v -0.058036 0.163359 0.0254512
vn -0.4802401 0.5263882 0.7016302
v -0.109571 0.0110884 0.0346348
vn -0.6139449 0.2528819 0.7477449
v -0.051287 0.047929 0.0581109
vn -0.324115 0.20273 0.92404
v 0.120826 0.0877894 -0.0944108
vn 0.8344469 0.5041879 -0.22247
v 0.0827445 0.175989 -0.0228773
vn 0.723125 0.668139 0.175159
v 0.148565 0.0355923 -0.0591269
vn 0.9105765 0.4003888 0.1026609
v 0 0.188909 -0.0196293
vt 0.804028 0.718438
vn 0 0.9674129 0.253204
v -0.120826 0.0643829 -0.00484825
vt 0.799151 0.677353
vn -0.8305946 0.3270499 0.4507228
v 0.120826 0.0643829 -0.00484825
vn 0.8305943 0.3270501 0.4507231
vn 0.6210636 -0.5891026 0.5169507
vn 0.3201291 -0.6373592 0.7009212
vn 0.482634 -0.8046201 0.345906
vn 0 -0.8465176 0.5323608
vn 0 -0.6466283 0.7628053
vn -0.4826342 -0.8046203 0.3459051
vn -0.32013 -0.637359 0.700921
vn -0.6210636 -0.5891026 0.5169507
vn 0.8344464 -0.5041882 0.2224711
vn 0.7231251 -0.6681391 -0.175158
vn 0.9105766 -0.4003888 -0.1026599
vn -0.6139455 -0.2528818 -0.7477444
vn -0.324115 -0.20273 -0.92404
vn -0.4802401 -0.5263882 -0.7016302
vn 0 -0.4678832 -0.8837903
vn 0 -0.179466 -0.9837642
vn 0.4802401 -0.5263882 -0.7016302
vn 0.324115 -0.20273 -0.92404
vn 0.6139449 -0.2528819 -0.7477449
vn -0.8344469 -0.5041879 0.22247
vn -0.723125 -0.668139 -0.175159
vn -0.9105765 -0.4003888 -0.1026609
vn 0 -0.9674129 -0.253204
vn 0.8305946 -0.3270499 -0.4507228
vn -0.8305943 -0.3270501 -0.4507231
o merged_0_1_node
g polygon_0
usemtl mat_body_mat_id
f 99/74/69 100/75/70 101/76/71
f 101/76/71 100/75/70 102/77/72
f 102/77/72 103/78/73 101/76/71
f 104/75/74 105/74/75 106/76/76
f 103/78/73 102/77/72 106/76/76
f 104/75/74 106/76/76 102/77/72
f 99/74/69 107/79/77 100/75/70
f 100/75/70 107/79/77 108/80/78
f 107/79/77 109/81/79 108/80/78
f 110/82/80 111/83/81 112/84/82
f 112/84/82 111/83/81 113/85/83
f 113/85/83 114/86/84 112/84/82
f 115/83/85 116/82/86 117/84/87
f 114/86/84 113/85/83 117/84/87
f 115/83/85 117/84/87 113/85/83
f 105/74/75 104/75/74 118/79/88
f 104/75/74 119/80/89 118/79/88
f 120/81/90 118/79/88 119/80/89
f 104/75/74 102/77/72 121/87/91
f 121/87/91 102/77/72 100/75/70
f 100/75/70 108/80/78 121/87/91
f 108/80/78 115/83/85 121/87/91
f 115/83/85 113/85/83 121/87/91
f 121/87/91 113/85/83 111/83/81
f 111/83/81 119/80/89 121/87/91
f 119/80/89 104/75/74 121/87/91
f 116/82/86 115/83/85 122/88/92
f 115/83/85 108/80/78 122/88/92
f 108/80/78 109/81/79 122/88/92
f 110/82/80 123/88/93 111/83/81
f 111/83/81 123/88/93 119/80/89
f 123/88/93 120/81/90 119/80/89
f 99/74/94 101/76/95 100/75/96
f 101/76/95 102/77/97 100/75/96
f 102/77/97 101/76/95 103/78/98
f 104/75/99 106/76/100 105/74/101
f 103/78/98 106/76/100 102/77/97
f 104/75/99 102/77/97 106/76/100
f 99/74/94 100/75/96 107/79/102
f 100/75/96 108/80/103 107/79/102
f 107/79/102 108/80/103 109/81/104
f 110/82/105 112/84/106 111/83/107
f 112/84/106 113/85/108 111/83/107
f 113/85/108 112/84/106 114/86/109
f 115/83/110 117/84/111 116/82/112
f 114/86/109 117/84/111 113/85/108
f 115/83/110 113/85/108 117/84/111
f 105/74/101 118/79/113 104/75/99
f 104/75/99 118/79/113 119/80/114
f 120/81/115 119/80/114 118/79/113
f 104/75/99 121/87/116 102/77/97
f 121/87/116 100/75/96 102/77/97
f 100/75/96 121/87/116 108/80/103
f 108/80/103 121/87/116 115/83/110
f 115/83/110 121/87/116 113/85/108
f 121/87/116 111/83/107 113/85/108
f 111/83/107 121/87/116 119/80/114
f 119/80/114 121/87/116 104/75/99
f 116/82/112 122/88/117 115/83/110
f 115/83/110 122/88/117 108/80/103
f 108/80/103 122/88/117 109/81/104
f 110/82/105 111/83/107 123/88/118
f 111/83/107 119/80/114 123/88/118
f 123/88/118 119/80/114 120/81/115
vt -0.24168 0.839785
vt -0.219676 0.998617
vt 0.375847 0.750348
vt 1.16327 0.998818
vt 1.0899 0.750348
o merged_1_0_node
g polygon_0
usemtl TEX_ANIM_EYE_mat_id
f 34/89/34 44/90/48 24/91/24
f 44/90/48 30/92/38 24/91/24
f 22/93/22 24/91/24 30/92/38
f 34/89/34 38/91/40 44/90/48
f 44/90/48 38/91/40 41/92/44
f 38/91/40 27/93/27 41/92/44
