mtllib Quilava.mtl
v 0 0.0707578 0.00904845
vt 0.974753 0.976424
vn 0 -0.999996 0.00283564
v -0.130941 0.07610003 0.08166238
vn -0.8577724 -0.4992097 -0.1225409
v -0.144762 0.08229797 -0.0546903
vn -0.8416138 -0.5093341 0.1796245
v -0.120484 0.001659821 0.1729902
vn -0.1877374 -0.8294519 0.5260838
v -0.133201 -1.466696E-05 -0.1787659
vn -0.2385574 -0.7674465 -0.5950766
v 0 0.07734852 0.2330531
vn 0 -0.4589177 0.8884788
v 0 0.09067549 -0.2318501
vn 0 -0.3711042 -0.9285913
v 0.120484 0.001659821 0.1729902
vn 0.1877366 -0.8294525 0.5260832
v 0.133201 -1.466696E-05 -0.1787659
vn 0.2385574 -0.7674465 -0.5950766
v 0.130941 0.07610003 0.08166248
vn 0.8577724 -0.4992097 -0.1225409
v 0.144762 0.08229797 -0.0546902
vn 0.8416138 -0.5093341 0.1796245
v 0 0.211914 -0.131869
vt 0.0647465 0.739908
vn 0 -0.461758 -0.887006
v 0.139631 0.446611 -0.228376
vt 0.0647466 0.653154
vn 0.07039727 -0.4148978 -0.9071406
v 0.131072 0.347393 -0.180415
vt 0.0647466 0.641758
vn 0.1411551 -0.4521452 -0.8807043
v 0.0473357 0.38022 -0.201762
vn 0.06888641 -0.3990701 -0.9143291
v 0.211236 0.362655 -0.17378
vn 0.182928 -0.4928558 -0.8506647
v 0 0.495407 -0.260108
vn 0 -0.4121459 -0.9111179
v 0.104043 0.236787 -0.120821
vn 0.2134581 -0.5277152 -0.8221632
v -0.0473355 0.38022 -0.201762
vn -0.06888661 -0.3990701 -0.9143291
v -0.139631 0.446611 -0.228376
vn -0.07039736 -0.4148978 -0.9071406
v -0.131072 0.347393 -0.180415
vn -0.1411549 -0.4521448 -0.8807045
v -0.211236 0.362655 -0.17378
vn -0.182927 -0.4928559 -0.8506649
v -0.104043 0.236787 -0.120821
vn -0.2134581 -0.5277152 -0.8221632
v 0 0.23842 -0.0911077
vn 0 0.4548098 0.8905886
vn 0.06868528 0.5816478 0.8105357
vn 0.009458452 0.5460041 0.8377292
vn 0.0353949 0.60745 0.793569
vn 0.273204 0.166005 0.9475241
vn -0.0353944 0.60745 0.793569
vn -0.009457942 0.5460041 0.8377292
vn -0.06868538 0.5816478 0.8105357
vn -0.273205 0.166005 0.9475238
v -0.0186367 0.452022 0.400091
vn -0.9814143 0.002719421 0.191882
v 0 0.586149 0.240154
vn -0.9956065 0.03457439 -0.08701836
v 0 0.473707 0.326717
vn -0.923636 -0.233801 -0.3037
v 0 0.578836 0.291788
vn -0.9879755 0.01366859 -0.1540049
v 0 0.702624 0.256114
vn -0.9979057 0.05250448 -0.03778289
v 0 0.627784 0.333194
vn -0.9941673 0.107684 0.005961322
v 0 0.705187 0.362915
vn -0.9969806 0.06784598 -0.03777079
v 0 0.593213 0.405821
vn -0.9791035 0.1226539 0.1622109
v 0 0.612783 0.446104
vn -0.9907926 0.08460797 0.105695
v 0 0.418467 0.447719
vn -0.9305111 0.00304308 0.366251
v 0.0186367 0.452022 0.400091
vn 0.981414 0.00271939 0.191883
vn 0.923636 -0.233801 -0.3037
vn 0.9956065 0.03457449 -0.08701836
vn 0.9879755 0.01366859 -0.1540049
vn 0.9979057 0.05250468 -0.03778268
vn 0.9941673 0.107684 0.005961632
vn 0.9969806 0.06784598 -0.03777089
vn 0.9791035 0.1226539 0.1622109
vn 0.9907926 0.08460807 0.105695
vn 0.9305108 0.003043089 0.3662519
v -0.143136 0.1406593 0.1580971
vt 0.161773 0.94688
vn -0.8778445 0.1611402 0.4510244
v -0.115643 0.209504 0.147355
vt 0.187892 0.779493
vn -0.7155279 0.6260009 0.310069
v -0.158244 0.1657431 -0.1457752
vt 0.823804 0.885889
vn -0.8958711 0.1933839 -0.400022
v 0 0.1406593 0.2319808
vt -0.0178629 0.94688
vn 0 0.1193931 0.992847
vt 0.602345 1.08877
vt -0.0204686 1.10081
vt 0.347614 1.10385
vt 0.125567 1.28482
v -0.12785 0.247841 -0.124174
vt 0.771284 0.68628
vn -0.5542802 0.8302344 -0.05902763
v 0 0.198156 0.220596
vt 0.00981637 0.807085
vn 0 0.5090928 0.8607117
v 0 0.233464 0.126699
vt 0.327712 0.734037
vn 0 0.9881532 0.153471
vt 0.90401 1.28888
v 0.143136 0.1406593 0.1580971
vn 0.8778446 0.1611392 0.4510245
v 0.12785 0.247841 -0.124174
vn 0.5542802 0.8302344 -0.05902763
v 0 0.1657431 -0.2318482
vt 1.03308 0.885889
vn 0 0.1743769 -0.984679
v 0 0.226563 -0.187756
vt 0.925876 0.738016
vn 0 0.8053205 -0.5928397
v 0.115643 0.209504 0.147355
vn 0.7155279 0.6260009 0.310069
vt 1.03308 1.0684
v 0.158244 0.1657431 -0.1457752
vn 0.8958713 0.1933829 -0.4000221
v 0.127847 0.400149 0.173607
vt 0.932047 0.236103
vn 0.5737935 0.6153035 -0.5405206
v 0.188678 0.279828 0.184844
vn 0.8601249 0.0115383 -0.509953
v 0.079014 0.279828 0.0945927
vn 0.357962 0 -0.9337361
v 0.197817 0.354191 0.301454
vn 0.9654063 0.2573591 0.04191611
v 0 0.389573 0.112776
vn 0 0.5461302 -0.8377003
v 0.116609 0.451365 0.316036
vn 0.310189 0.948478 -0.0645936
v 0 0.474511 0.22244
vn 0 0.9460188 -0.3241119
v -0.079014 0.279828 0.0945927
vn -0.357962 0 -0.9337361
v -0.127847 0.400149 0.173607
vn -0.5737935 0.6153035 -0.5405206
v -0.116609 0.451365 0.316036
vn -0.310189 0.948478 -0.0645937
v -0.197817 0.354191 0.301454
vn -0.9654063 0.2573591 0.04191611
v -0.188678 0.279828 0.184844
vn -0.8601245 0.01153829 -0.5099537
v 0 0.474511 0.380468
vt 0.391945 0.824018
vn 0 0.9454036 0.3259019
vt 0.548721 0.767697
vt 0.776462 0.824018
v 0.127847 0.400149 0.429301
vt 0.273123 0.643078
vn 0.5630419 0.5288239 0.6350819
v 0 0.389573 0.490132
vt 0.125109 0.617344
vn 0 0.5687603 0.8225034
v -0.127847 0.400149 0.429301
vn -0.5630419 0.5288239 0.6350819
v 0.193704 0.479144 0.289558
vt 0.61315 0.83529
vn 0.8670564 0.4980762 -0.0115467
vt 0.584204 0.531252
v -0.193704 0.479144 0.289558
vn -0.8670564 0.4980762 -0.0115468
v 0.079014 0.279645 0.496755
vt 0.0882261 0.345087
vn 0.4953341 0.08082652 0.8649342
v -0.079014 0.279645 0.496755
vn -0.4953341 0.08082663 0.8649342
v 0 0.278992 0.517571
vt 0.0312259 0.345087
vn 0 0.146303 0.9892399
v 0.206861 0.205466 0.301454
vt 0.58714 0.174266
vn 0.938238 -0.335423 0.0848584
vt 0.86794 0.350312
v -0.206861 0.205466 0.301454
vn -0.938238 -0.335423 0.0848584
v 0 0.174688 0.522534
vt 0.00492951 0.0728299
vn 0 -0.4338811 0.9009702
v 0.127847 0.174983 0.447554
vt 0.228709 0.0952001
vn 0.7032631 -0.4355101 0.5619181
v 0.127847 0.159508 0.173607
vt 0.895284 0.0575461
vn 0.5770742 -0.5713181 -0.5835932
v -0.127847 0.159508 0.173607
vn -0.5770742 -0.5713181 -0.5835932
vt 1.08754 0.350312
v -0.127847 0.174983 0.447554
vn -0.7032631 -0.4355101 0.5619181
v 0 0.170084 0.112776
vt 1.0433 0.0832803
vn 0 -0.5142559 -0.8576368
v 0 0.0978117 0.200445
vt 0.026944 0.0211654
vn 0 -0.9159449 -0.401304
v 0.118199 0.102258 0.283352
vn 0.5231808 -0.8513007 -0.03960948
v 0 0.0860835 0.338471
vn 0 -0.9975879 0.06941599
v -0.118199 0.102258 0.283352
vn -0.5231808 -0.8513007 -0.03960948
v -0.0487877 0.111369 0.424717
vn -0.299414 -0.8591041 0.4150801
v 0.0487877 0.111369 0.424717
vn 0.299414 -0.8591041 0.4150801
vt 0.684714 0.00741777
vt 1.04932 -0.00681376
vt 0.649781 0.170141
vt 0.426001 0.14777
vt 0.0378208 0.504168
v -0.161542 0.310016 0.418063
vn -0.8520782 0.06167541 0.5197681
v 0.161542 0.310016 0.418063
vn 0.8520782 0.06167541 0.5197681
vt 0.971582 0.696856
vt 0.625282 0.501099
vt 0.942101 0.387209
o merged_0_0_node
g polygon_0
usemtl lambert2_mat_id
f 1/1/1 2/1/2 3/1/3
f 1/1/1 4/1/4 2/1/2
f 1/1/1 3/1/3 5/1/5
f 1/1/1 6/1/6 4/1/4
f 1/1/1 5/1/5 7/1/7
f 1/1/1 8/1/8 6/1/6
f 1/1/1 7/1/7 9/1/9
f 1/1/1 10/1/10 8/1/8
f 1/1/1 9/1/9 11/1/11
f 1/1/1 11/1/11 10/1/10
f 12/2/12 13/3/13 14/4/14
f 12/2/12 15/4/15 13/3/13
f 12/2/12 14/4/14 16/3/16
f 12/2/12 17/3/17 15/4/15
f 12/2/12 16/3/16 18/4/18
f 12/2/12 19/4/19 17/3/17
f 12/2/12 20/3/20 19/4/19
f 12/2/12 21/4/21 20/3/20
f 12/2/12 22/3/22 21/4/21
f 12/2/12 23/4/23 22/3/22
f 24/2/24 14/4/25 13/3/26
f 24/2/24 16/3/26 14/4/25
f 24/2/24 13/3/26 15/4/27
f 24/2/24 18/4/28 16/3/26
f 24/2/24 15/4/27 17/3/26
f 24/2/24 17/3/26 19/4/29
f 24/2/24 19/4/29 20/3/30
f 24/2/24 20/3/30 21/4/31
f 24/2/24 21/4/31 22/3/30
f 24/2/24 22/3/30 23/4/32
f 25/2/33 26/3/34 27/4/35
f 25/2/33 28/4/36 26/3/34
f 25/2/33 29/3/37 28/4/36
f 25/2/33 30/4/38 29/3/37
f 25/2/33 31/3/39 30/4/38
f 25/2/33 32/4/40 31/3/39
f 25/2/33 33/3/41 32/4/40
f 25/2/33 34/4/42 33/3/41
f 35/2/43 27/4/44 26/3/45
f 35/2/43 26/3/45 28/4/46
f 35/2/43 28/4/46 29/3/47
f 35/2/43 29/3/47 30/4/48
f 35/2/43 30/4/48 31/3/49
f 35/2/43 31/3/49 32/4/50
f 35/2/43 32/4/50 33/3/51
f 35/2/43 33/3/51 34/4/52
f 36/5/53 37/6/54 38/7/55
f 36/5/53 39/8/56 37/6/54
f 36/5/53 38/7/55 3/9/3
f 36/5/53 6/10/6 39/8/56
f 36/5/53 3/9/3 2/11/2
f 36/5/53 4/12/4 6/10/6
f 36/5/53 2/11/2 4/12/4
f 37/6/54 40/13/57 38/7/55
f 37/6/54 39/8/56 41/14/58
f 37/6/54 42/15/59 40/13/57
f 37/6/54 41/14/58 42/15/59
f 3/9/3 38/7/55 5/16/5
f 6/10/6 43/5/60 39/8/56
f 6/10/6 8/12/8 43/5/60
f 40/13/57 42/15/59 44/13/61
f 40/13/57 45/17/62 38/7/55
f 40/13/57 44/13/61 46/18/63
f 40/13/57 46/18/63 45/17/62
f 46/18/63 44/13/61 45/17/62
f 41/14/58 39/8/56 47/6/64
f 41/14/58 47/6/64 42/15/59
f 42/15/59 47/6/64 44/13/61
f 39/8/56 43/5/60 47/6/64
f 5/16/5 38/7/55 7/19/7
f 38/7/55 45/17/62 7/19/7
f 8/12/8 10/11/10 43/5/60
f 44/13/61 47/6/64 48/7/65
f 44/13/61 48/7/65 45/17/62
f 45/17/62 48/7/65 7/19/7
f 47/6/64 43/5/60 48/7/65
f 10/11/10 11/9/11 43/5/60
f 43/5/60 11/9/11 48/7/65
f 7/19/7 48/7/65 9/16/9
f 9/16/9 48/7/65 11/9/11
f 49/20/66 50/20/67 51/20/68
f 49/20/66 52/20/69 50/20/67
f 49/20/66 51/20/68 53/20/70
f 49/20/66 54/20/71 52/20/69
f 49/20/66 53/20/70 55/20/72
f 49/20/66 55/20/72 54/20/71
f 51/20/68 56/20/73 53/20/70
f 55/20/72 53/20/70 57/20/74
f 55/20/72 57/20/74 58/20/75
f 53/20/70 56/20/73 57/20/74
f 58/20/75 57/20/74 59/20/76
f 56/20/73 60/20/77 57/20/74
f 57/20/74 60/20/77 59/20/76
f 61/21/78 54/22/71 55/23/72
f 61/21/78 62/24/79 54/22/71
f 61/21/78 55/23/72 58/22/75
f 61/21/78 63/25/80 62/24/79
f 61/21/78 58/22/75 64/24/81
f 61/21/78 64/24/81 63/25/80
f 54/22/71 62/24/79 65/26/82
f 54/22/71 65/26/82 52/27/69
f 58/22/75 66/26/83 64/24/81
f 58/22/75 59/27/76 66/26/83
f 63/25/80 67/28/84 62/24/79
f 63/25/80 64/24/81 68/28/85
f 63/25/80 69/29/86 67/28/84
f 63/25/80 68/28/85 69/29/86
f 52/27/69 70/30/87 50/31/67
f 59/27/76 60/31/77 71/30/88
f 67/28/84 69/29/86 72/32/89
f 67/28/84 72/32/89 73/33/90
f 69/29/86 68/28/85 72/32/89
f 70/30/87 74/34/91 50/31/67
f 60/31/77 75/34/92 71/30/88
f 60/31/77 56/35/73 75/34/92
f 68/28/85 76/33/93 72/32/89
f 74/34/91 51/35/68 50/31/67
f 74/34/91 77/36/94 51/35/68
f 77/36/94 75/34/92 56/35/73
f 77/36/94 56/35/73 51/35/68
f 78/37/95 74/37/91 79/37/96
f 78/37/95 77/37/94 74/37/91
f 78/37/95 79/37/96 80/37/97
f 78/37/95 75/37/92 77/37/94
f 78/37/95 80/37/97 81/37/98
f 78/37/95 81/37/98 75/37/92
f 74/37/91 70/37/87 79/37/96
f 80/37/97 82/37/99 81/37/98
f 80/37/97 79/37/96 83/37/100
f 80/37/97 83/37/100 82/37/99
f 75/37/92 81/37/98 71/37/88
f 70/37/87 73/37/90 79/37/96
f 81/37/98 76/37/93 71/37/88
f 83/38/100 79/39/96 73/40/90
f 83/38/100 73/40/90 72/41/89
f 83/38/100 72/41/89 82/38/99
f 72/41/89 76/40/93 82/38/99
f 76/40/93 81/39/98 82/38/99
f 64/42/81 84/42/101 68/42/85
f 64/42/81 59/42/76 84/42/101
f 62/42/79 67/42/84 85/42/102
f 62/42/79 85/42/102 52/42/69
f 65/43/82 62/44/79 52/45/69
f 66/43/83 59/45/76 64/44/81
vt 0.971798 0.813
vt 0.404326 0.943718
vt 0.234375 0.774234
vt -0.0363735 0.899177
vt 0.971798 0.996314
o merged_1_0_node
g polygon_0
usemtl TEX_ANIM_EYE_mat_id
f 70/46/87 85/47/102 73/48/90
f 85/47/102 67/49/84 73/48/90
f 52/50/69 85/47/102 70/46/87
f 71/46/88 76/48/93 84/47/101
f 84/47/101 76/48/93 68/49/85
f 71/46/88 84/47/101 59/50/76
