mtllib Clamperl.mtl
v 0.137877 0.25383 -0.276116
vt 0.245037 0.251673
vn -0.467069 0.100385 0.878504
v 0.0852127 0.131333 -0.222132
vt 0.286065 0.0196894
vn -0.257552 0.5202929 0.8142249
v 0.20348 0.218301 -0.178427
vt 0.00689748 0.284203
vn -0.8694643 0.106254 0.4824332
v 0.166757 0.382587 -0.225272
vt 0.17249 0.54109
vn -0.718968 -0.297726 0.628048
v 0 0.459445 -0.269305
vt 0.476077 0.544339
vn 0 -0.5423231 0.8401701
v 0.137877 0.500221 -0.152293
vt 0.263296 0.793814
vn -0.5241661 -0.7470481 0.4088631
v 0.20348 0.443034 -0.0654883
vt 0.00689748 0.879103
vn -0.8694642 -0.4505281 0.202624
v 0.0852127 0.530001 -0.021783
vt 0.331109 0.99553
vn -0.3908789 -0.9199398 -0.03040499
v 0 0.260338 -0.303472
vt 0.476077 0.235888
vn 0 0.06572409 0.9978378
v 0 0.131333 -0.222132
vt 0.476077 0.0196894
vn 0 0.5333511 0.845894
v 0 0.554763 -0.114726
vt 0.476077 0.864665
vn 0 -0.9532192 0.3022801
v 0 0.530001 -0.021783
vt 0.476077 0.99553
vn 0 -0.9662948 -0.257438
v -0.137877 0.25383 -0.276116
vn 0.467069 0.100385 0.878504
v -0.20348 0.218301 -0.178427
vn 0.8694643 0.106254 0.4824332
v -0.0852127 0.131333 -0.222132
vn 0.257552 0.5202929 0.8142249
v -0.166757 0.382587 -0.225272
vn 0.718968 -0.297726 0.628048
v -0.137877 0.500221 -0.152293
vn 0.5241657 -0.7470486 0.4088628
v -0.0852128 0.530001 -0.021783
vn 0.3908789 -0.9199398 -0.03040479
v -0.20348 0.443034 -0.0654883
vn 0.8694642 -0.4505281 0.202624
vt 0.749145 0.320366
vn 0.467069 -0.100385 -0.878504
vt 0.511907 0.284203
vn 0.8694643 -0.106254 -0.4824332
vt 0.79729 0.0196894
vn 0.257552 -0.5202929 -0.8142249
vt 0.700506 0.544443
vn 0.718968 0.297726 -0.628048
vt 0.990859 0.574502
vn 0 0.5423231 -0.8401701
vt 0.768305 0.793814
vn 0.5241661 0.7470481 -0.4088631
vt 0.836118 0.99553
vn 0.3908789 0.9199398 0.03040499
vt 0.511907 0.879103
vn 0.8694642 0.4505281 -0.202624
vt 0.990859 0.0196894
vn 0 -0.5333511 -0.845894
vt 0.990859 0.235888
vn 0 -0.06572409 -0.9978378
vt 0.990859 0.864665
vn 0 0.9532192 -0.3022801
vt 0.990859 0.99553
vn 0 0.9662948 0.257438
vn -0.467069 -0.100385 -0.878504
vn -0.257552 -0.5202929 -0.8142249
vn -0.8694643 -0.106254 -0.4824332
vn -0.718968 0.297726 -0.628048
vn -0.5241661 0.7470481 -0.4088631
vn -0.8694642 0.4505281 -0.202624
vn -0.3908789 0.9199398 0.03040479
v 0.0963879 0.158264 0.0803723
vt 0.54013 0.046557
vn 0.3545698 0.4853687 -0.7991855
v 0.0214105 0.158264 0.123661
vn -0.8693998 0.4853688 -0.09252618
v 0.0959721 0.169399 0.166229
vn 0.360846 0.692214 0.625004
v 0.0513752 0.0957821 0.175561
vn -0.3802401 -0.5346122 0.7547233
v 0.126353 0.0957821 0.132273
vn 0.8437291 -0.5346131 0.0480636
v 0.0437069 0.0691387 0.0757027
vn -0.360846 -0.692214 -0.625004
v 0.117798 0.158264 -0.0432882
vn -0.51483 0.485369 -0.706659
v 0.117798 0.158264 0.0432882
vn -0.51483 0.485369 0.706659
v 0.191944 0.169399 0
vn 0.7216921 0.6922141 0
v 0.177728 0.0957821 0.0432882
vn 0.463489 -0.534613 0.706659
v 0.177728 0.0957821 -0.0432882
vn 0.463489 -0.534613 -0.706659
v 0.0874139 0.0691387 0
vn -0.7216921 -0.6922141 0
v 0.0214105 0.158264 -0.123661
vn -0.8693998 0.4853688 0.09252618
v 0.0963879 0.158264 -0.0803723
vn 0.3545701 0.4853691 0.7991852
v 0.0959721 0.169399 -0.166229
vn 0.360846 0.692214 -0.625004
v 0.126353 0.0957821 -0.132273
vn 0.8437291 -0.5346131 -0.04806351
v 0.0513752 0.0957821 -0.175561
vn -0.3802399 -0.534613 -0.7547229
v 0.0437069 0.0691387 -0.0757027
vn -0.360846 -0.692214 0.625004
v -0.0963879 0.158264 -0.0803723
vn -0.3545698 0.4853687 0.7991855
v -0.0214105 0.158264 -0.123661
vn 0.8693998 0.4853688 0.09252618
v -0.0959721 0.169399 -0.166229
vn -0.360846 0.692214 -0.625004
v -0.0513752 0.0957821 -0.175561
vn 0.3802401 -0.5346122 -0.7547233
v -0.126353 0.0957821 -0.132273
vn -0.8437291 -0.5346131 -0.0480636
v -0.0437069 0.0691387 -0.0757027
vn 0.360846 -0.692214 0.625004
v -0.117798 0.158264 0.0432882
vn 0.51483 0.485369 0.706659
v -0.117798 0.158264 -0.0432882
vn 0.51483 0.485369 -0.706659
v -0.191944 0.169399 0
vn -0.7216921 0.6922141 0
v -0.177728 0.0957821 -0.0432882
vn -0.463489 -0.534613 -0.706659
v -0.177728 0.0957821 0.0432882
vn -0.463489 -0.534613 0.706659
v -0.0874139 0.0691387 0
vn 0.7216921 -0.6922141 0
v -0.0214105 0.158264 0.123661
vn 0.8693998 0.4853688 -0.09252618
v -0.0963879 0.158264 0.0803723
vn -0.3545701 0.4853691 -0.7991852
v -0.0959721 0.169399 0.166229
vn -0.360846 0.692214 0.625004
v -0.126353 0.0957821 0.132273
vn -0.8437291 -0.5346131 0.04806351
v -0.0513752 0.0957821 0.175561
vn 0.3802399 -0.534613 0.7547229
v -0.0437069 0.0691387 0.0757027
vn 0.360846 -0.692214 -0.625004
v -0.149024 0.0773045 -0.0860392
vn 0 1 0
v -0.149024 0.0773045 0.0860392
v 0 0.0773045 -0.172078
v 0 0.0773045 0.172078
v 0.149024 0.0773045 0.0860392
v 0.149024 0.0773045 -0.0860392
vn -0.208142 -0.9092349 -0.360512
v 0 0.00907543 0
vn 0.208142 -0.9092349 -0.360512
vn 0.416283 -0.9092351 0
vn 0.208142 -0.9092349 0.360512
vn -0.208142 -0.9092349 0.360512
vn -0.416283 -0.9092351 0
o merged_0_0_node
g polygon_0
usemtl paaruru_01_mat_id
f 1/1/1 2/2/2 3/3/3
f 4/4/4 5/5/5 1/1/1
f 4/4/4 1/1/1 3/3/3
f 6/6/6 7/7/7 8/8/8
f 3/3/3 7/7/7 4/4/4
f 6/6/6 4/4/4 7/7/7
f 2/2/2 9/9/9 10/10/10
f 2/2/2 1/1/1 9/9/9
f 1/1/1 5/5/5 9/9/9
f 6/6/6 5/5/5 4/4/4
f 6/6/6 11/11/11 5/5/5
f 8/8/8 12/12/12 11/11/11
f 6/6/6 8/8/8 11/11/11
f 13/1/13 14/3/14 15/2/15
f 16/4/16 13/1/13 5/5/5
f 16/4/16 14/3/14 13/1/13
f 17/6/17 18/8/18 19/7/19
f 14/3/14 16/4/16 19/7/19
f 17/6/17 19/7/19 16/4/16
f 15/2/15 10/10/10 9/9/9
f 15/2/15 9/9/9 13/1/13
f 13/1/13 9/9/9 5/5/5
f 17/6/17 16/4/16 5/5/5
f 17/6/17 5/5/5 11/11/11
f 18/8/18 11/11/11 12/12/12
f 17/6/17 11/11/11 18/8/18
f 1/13/20 3/14/21 2/15/22
f 4/16/23 1/13/20 5/17/24
f 4/16/23 3/14/21 1/13/20
f 6/18/25 8/19/26 7/20/27
f 3/14/21 4/16/23 7/20/27
f 6/18/25 7/20/27 4/16/23
f 2/15/22 10/21/28 9/22/29
f 2/15/22 9/22/29 1/13/20
f 1/13/20 9/22/29 5/17/24
f 6/18/25 4/16/23 5/17/24
f 6/18/25 5/17/24 11/23/30
f 8/19/26 11/23/30 12/24/31
f 6/18/25 11/23/30 8/19/26
f 13/13/32 15/15/33 14/14/34
f 16/16/35 5/17/24 13/13/32
f 16/16/35 13/13/32 14/14/34
f 17/18/36 19/20/37 18/19/38
f 14/14/34 19/20/37 16/16/35
f 17/18/36 16/16/35 19/20/37
f 15/15/33 9/22/29 10/21/28
f 15/15/33 13/13/32 9/22/29
f 13/13/32 5/17/24 9/22/29
f 17/18/36 5/17/24 16/16/35
f 17/18/36 11/23/30 5/17/24
f 18/19/38 12/24/31 11/23/30
f 17/18/36 18/19/38 11/23/30
f 20/25/39 21/25/40 22/25/41
f 21/25/40 23/25/42 22/25/41
f 23/25/42 24/25/43 22/25/41
f 22/25/41 24/25/43 20/25/39
f 25/25/44 21/25/40 20/25/39
f 25/25/44 23/25/42 21/25/40
f 25/25/44 24/25/43 23/25/42
f 25/25/44 20/25/39 24/25/43
f 26/25/45 27/25/46 28/25/47
f 27/25/46 29/25/48 28/25/47
f 29/25/48 30/25/49 28/25/47
f 28/25/47 30/25/49 26/25/45
f 31/25/50 27/25/46 26/25/45
f 31/25/50 29/25/48 27/25/46
f 31/25/50 30/25/49 29/25/48
f 31/25/50 26/25/45 30/25/49
f 32/25/51 33/25/52 34/25/53
f 33/25/52 35/25/54 34/25/53
f 35/25/54 36/25/55 34/25/53
f 34/25/53 36/25/55 32/25/51
f 37/25/56 33/25/52 32/25/51
f 37/25/56 35/25/54 33/25/52
f 37/25/56 36/25/55 35/25/54
f 37/25/56 32/25/51 36/25/55
f 38/25/57 39/25/58 40/25/59
f 39/25/58 41/25/60 40/25/59
f 41/25/60 42/25/61 40/25/59
f 40/25/59 42/25/61 38/25/57
f 43/25/62 39/25/58 38/25/57
f 43/25/62 41/25/60 39/25/58
f 43/25/62 42/25/61 41/25/60
f 43/25/62 38/25/57 42/25/61
f 44/25/63 45/25/64 46/25/65
f 45/25/64 47/25/66 46/25/65
f 47/25/66 48/25/67 46/25/65
f 46/25/65 48/25/67 44/25/63
f 49/25/68 45/25/64 44/25/63
f 49/25/68 47/25/66 45/25/64
f 49/25/68 48/25/67 47/25/66
f 49/25/68 44/25/63 48/25/67
f 50/25/69 51/25/70 52/25/71
f 51/25/70 53/25/72 52/25/71
f 53/25/72 54/25/73 52/25/71
f 52/25/71 54/25/73 50/25/69
f 55/25/74 51/25/70 50/25/69
f 55/25/74 53/25/72 51/25/70
f 55/25/74 54/25/73 53/25/72
f 55/25/74 50/25/69 54/25/73
f 56/25/75 57/25/75 58/25/75
f 57/25/75 59/25/75 58/25/75
f 59/25/75 60/25/75 58/25/75
f 60/25/75 61/25/75 58/25/75
f 56/25/76 58/25/76 62/25/76
f 58/25/77 61/25/77 62/25/77
f 61/25/78 60/25/78 62/25/78
f 60/25/79 59/25/79 62/25/79
f 59/25/80 57/25/80 62/25/80
f 57/25/81 56/25/81 62/25/81
v 0.134739 0.0529502 -0.139777
vt 0.748845 0.251673
vn 0.412777 -0.806798 -0.42272
v 0.0832735 0.134609 -0.22305
vt 0.789012 0.0196894
vn 0.2293889 -0.5837449 -0.7788598
v 0.198849 0.134609 -0.127933
vt 0.511262 0.284203
vn 0.8322611 -0.46602 -0.300278
v 0.162962 0.0431528 -0.00503752
vt 0.676298 0.54109
vn 0.6254379 -0.7802319 -0.008106299
v 0 0.00248213 0.0237073
vt 0.990155 0.544339
vn 0 -0.9979219 0.06443569
v 0.134739 0.0529502 0.129702
vt 0.767103 0.796848
vn 0.4258851 -0.8059382 0.4112001
v 0.198849 0.134609 0.117858
vt 0.511262 0.879103
vn 0.8322611 -0.46602 0.300278
v 0.0832735 0.134609 0.212975
vt 0.834916 0.99553
vn 0.3716029 -0.4722838 0.7992867
v 0 0.0313051 -0.146099
vt 0.990155 0.235888
vn 0 -0.9129684 -0.4080302
v 0 0.134609 -0.22305
vt 0.990155 0.0196894
vn 0 -0.5973797 -0.8019586
v 0 0.0601281 0.193812
vt 0.990155 0.864665
vn 0 -0.821671 0.569962
v 0 0.134609 0.212975
vt 0.990155 0.99553
vn 0 -0.249177 0.968458
v -0.134739 0.0529502 -0.139777
vn -0.412777 -0.806798 -0.42272
v -0.198849 0.134609 -0.127933
vn -0.8322611 -0.46602 -0.300278
v -0.0832735 0.134609 -0.22305
vn -0.2293889 -0.5837449 -0.7788598
v -0.162962 0.0431528 -0.00503751
vn -0.6254379 -0.7802319 -0.008106329
v -0.134739 0.0529502 0.129702
vn -0.4258851 -0.8059382 0.4112001
v -0.0832735 0.134609 0.212975
vn -0.3716037 -0.4722837 0.7992864
v -0.198849 0.134609 0.117858
vn -0.8322611 -0.46602 0.300278
vt 0.245329 0.251673
vn -0.412777 0.806798 0.42272
vt 0.0077464 0.284203
vn -0.8322611 0.46602 0.300278
vt 0.285496 0.0196894
vn -0.2293889 0.5837449 0.7788598
vt 0.172782 0.54109
vn -0.6254379 0.7802319 0.008106299
vn 0 0.9979219 -0.06443569
vt 0.263587 0.796848
vn -0.4258851 0.8059382 -0.4112001
vt 0.3314 0.99553
vn -0.3716037 0.4722837 -0.7992864
vt 0.0077464 0.879103
vn -0.8322611 0.46602 -0.300278
vn 0 0.5973797 0.8019586
vn 0 0.9129684 0.4080302
vn 0 0.821671 -0.569962
vn 0 0.249177 -0.968458
vn 0.412777 0.806798 0.42272
vn 0.2293889 0.5837449 0.7788598
vn 0.8322611 0.46602 0.300278
vn 0.6254379 0.7802319 0.008106319
vn 0.4258851 0.8059382 -0.4112001
vn 0.8322611 0.46602 -0.300278
vn 0.3716037 0.4722837 -0.7992864
o merged_1_0_node
g polygon_0
usemtl paaruru_02_mat_id
f 63/26/82 64/27/83 65/28/84
f 66/29/85 67/30/86 63/26/82
f 66/29/85 63/26/82 65/28/84
f 68/31/87 69/32/88 70/33/89
f 65/28/84 69/32/88 66/29/85
f 68/31/87 66/29/85 69/32/88
f 64/27/83 71/34/90 72/35/91
f 64/27/83 63/26/82 71/34/90
f 63/26/82 67/30/86 71/34/90
f 68/31/87 67/30/86 66/29/85
f 68/31/87 73/36/92 67/30/86
f 70/33/89 74/37/93 73/36/92
f 68/31/87 70/33/89 73/36/92
f 75/26/94 76/28/95 77/27/96
f 78/29/97 75/26/94 67/30/86
f 78/29/97 76/28/95 75/26/94
f 79/31/98 80/33/99 81/32/100
f 76/28/95 78/29/97 81/32/100
f 79/31/98 81/32/100 78/29/97
f 77/27/96 72/35/91 71/34/90
f 77/27/96 71/34/90 75/26/94
f 75/26/94 71/34/90 67/30/86
f 79/31/98 78/29/97 67/30/86
f 79/31/98 67/30/86 73/36/92
f 80/33/99 73/36/92 74/37/93
f 79/31/98 73/36/92 80/33/99
f 63/38/101 65/39/102 64/40/103
f 66/41/104 63/38/101 67/5/105
f 66/41/104 65/39/102 63/38/101
f 68/42/106 70/43/107 69/44/108
f 65/39/102 66/41/104 69/44/108
f 68/42/106 69/44/108 66/41/104
f 64/40/103 72/10/109 71/9/110
f 64/40/103 71/9/110 63/38/101
f 63/38/101 71/9/110 67/5/105
f 68/42/106 66/41/104 67/5/105
f 68/42/106 67/5/105 73/11/111
f 70/43/107 73/11/111 74/12/112
f 68/42/106 73/11/111 70/43/107
f 75/38/113 77/40/114 76/39/115
f 78/41/116 67/5/105 75/38/113
f 78/41/116 75/38/113 76/39/115
f 79/42/117 81/44/118 80/43/119
f 76/39/115 81/44/118 78/41/116
f 79/42/117 78/41/116 81/44/118
f 77/40/114 71/9/110 72/10/109
f 77/40/114 75/38/113 71/9/110
f 75/38/113 67/5/105 71/9/110
f 79/42/117 67/5/105 78/41/116
f 79/42/117 73/11/111 67/5/105
f 80/43/119 74/12/112 73/11/111
f 79/42/117 80/43/119 73/11/111
v 0.122854 0.162066 0.077898
vt 0.963326 0.973137
vn 0.8257717 -0.2493969 0.5058678
v 0.0759278 0.0490627 0
vn 0.5124769 -0.8585209 -0.0175861
v 0.122854 0.171917 -0.0759278
vn 0.8054209 -0.244339 -0.539996
v 0.0759278 0.29477 -0.0253546
vn 0.2751491 0.9334444 -0.2301621
v 0.120176 0.233343 0.0379639
vn 0.9019431 0.374646 0.2148
v 0.106425 0.234674 -0.0668575
vn 0.6805995 0.4719513 -0.5603984
v 0 0.0959887 -0.122854
vn 0 -0.5658073 -0.8245375
v 0 0.225307 -0.12708
vn 0 0.3667251 -0.9303294
v 0 0.0959887 0.122854
vn 0 -0.6318399 0.7750989
v 0 0.185238 0.124824
vn 0 0.1699269 0.9854566
v 0.0651496 0.258785 0.0688398
vn 0.4132769 0.6045548 0.6809668
vt 0.927591 0.610288
vt 0.493543 0.693163
vt 0.985834 0.0525129
vt 0.0261958 0.0253633
v -0.122854 0.171917 -0.0759278
vn -0.8054209 -0.244339 -0.539996
v -0.0759278 0.0490627 0
vn -0.5124769 -0.8585209 -0.0175861
v -0.122854 0.162066 0.077898
vn -0.8257717 -0.2493969 0.5058678
v -0.120176 0.233343 0.0379639
vn -0.9019431 0.374646 0.2148
v -0.106425 0.234674 -0.0668575
vn -0.6805995 0.4719513 -0.5603984
v -0.0759278 0.29477 -0.0253546
vn -0.2751491 0.9334444 -0.2301621
v -0.0651496 0.258785 0.0688398
vn -0.4132769 0.6045548 0.6809668
v 0 0.271307 0.0841941
vt 0.0240829 0.695225
vn 0 0.8307644 0.5566242
vt 0.739515 0.674484
vt 0.485613 0.986696
vt 0.524012 0.70799
vt 0.993138 0.986696
vt 0.949173 0.706798
o merged_2_0_node
g polygon_0
usemtl paaruru_03_mat_id
f 82/45/120 83/45/121 84/45/122
f 85/45/123 86/45/124 87/45/125
f 87/45/125 86/45/124 84/45/122
f 84/45/122 86/45/124 82/45/120
f 84/45/122 88/45/126 89/45/127
f 84/45/122 89/45/127 87/45/125
f 87/45/125 89/45/127 85/45/123
f 84/45/122 83/45/121 88/45/126
f 90/45/128 82/45/120 91/45/129
f 83/45/121 82/45/120 90/45/128
f 85/45/123 92/45/130 86/45/124
f 86/46/124 92/47/130 82/48/120
f 82/48/120 92/47/130 91/49/129
f 93/45/131 94/45/132 95/45/133
f 95/45/133 96/45/134 93/45/131
f 93/45/131 96/45/134 97/45/135
f 97/45/135 96/45/134 98/45/136
f 90/45/128 91/45/129 95/45/133
f 95/45/133 94/45/132 90/45/128
f 91/49/129 99/47/137 95/48/133
f 95/48/133 99/47/137 96/46/134
f 96/45/134 99/45/137 98/45/136
f 89/45/127 88/45/126 93/45/131
f 93/45/131 97/45/135 89/45/127
f 89/45/127 97/45/135 98/45/136
f 93/45/131 88/45/126 94/45/132
f 90/45/128 94/45/132 83/45/121
f 91/49/129 100/50/138 99/47/137
f 100/51/138 98/52/136 99/53/137
f 89/45/127 98/45/136 85/45/123
f 88/45/126 83/45/121 94/45/132
f 91/49/129 92/47/130 100/50/138
f 100/51/138 85/54/123 98/52/136
f 92/55/130 85/54/123 100/51/138
