mtllib Bronzor.mtl
v 0 0.469374 -0.030523
vt 0.649127 0.0453318
vn 0 1 0
v -0.185944 0.36202 -0.030523
vt 0.662167 0.0453318
vn -0.8660253 0.5000002 0
v 0 0.469374 0.030523
vt 0.649127 0.0780631
v -0.185944 0.36202 0.030523
vt 0.662167 0.0780631
v -0.185944 0.147311 -0.030523
vt 0.675206 0.0453318
vn -0.8660256 -0.4999998 0
v -0.185944 0.147311 0.030523
vt 0.675206 0.0780631
v 0 0.039956 -0.030523
vt 0.688245 0.0453318
vn 0 -1 0
v 0 0.039956 0.030523
vt 0.688245 0.0780631
v 0.185944 0.147311 -0.030523
vt 0.701285 0.0453318
vn 0.8660253 -0.5000002 0
v 0.185944 0.147311 0.030523
vt 0.701285 0.0780631
v 0.185944 0.36202 -0.030523
vt 0.714324 0.0453318
vn 0.8660256 0.4999998 0
v 0.185944 0.36202 0.030523
vt 0.714324 0.0780631
vt 0.727363 0.0453318
vt 0.727363 0.0780631
vt 0.223145 1.07924
vn -0.0165145 0.0110089 -0.999803
vt 1.09879 1.07924
vn 0.00127673 0.0198064 -0.999803
v -0.136152 0.333273 -0.031662
vt 0.340384 0.876173
v 0 0.41188 -0.031662
vt 0.981547 0.876173
vt 0.00896159 1
vn 0 0.197429 -0.9803172
v 0 0.254665 -0.063324
vt 0.00896147 0.5
vn 0 0 -1
vt 0.441974 0.75
vn -0.170979 0.09871471 -0.9803171
vn -0.0177912 -0.00879752 -0.999803
v -0.136152 0.176058 -0.031662
vt 0.441974 0.25
vn -0.170979 -0.09871461 -0.9803171
vn -0.00127673 -0.0198064 -0.999803
v 0 0.0974502 -0.031662
vt 0.00896147 0
vn 0 -0.197429 -0.9803172
vn 0.0165145 -0.0110089 -0.999803
v 0.136152 0.176058 -0.031662
vn 0.170979 -0.09871461 -0.9803171
vn 0.0177912 0.00879752 -0.999803
v 0.136152 0.333273 -0.031662
vn 0.170979 0.09871471 -0.9803171
vn -0.00127673 0.0198064 0.999803
vn -0.0177911 0.00879752 0.999803
v 0 0.41188 0.031662
v -0.136152 0.333273 0.031662
vt 1.00885 0.453838
vn -0.155645 0.180581 0.9711669
v 0 0.254665 0.063324
vt 0.515747 0.169146
vn 0 0 1
vt 0.515747 0.738531
vn 0 0.197429 0.9803172
vn -0.0165145 -0.0110089 0.999803
v -0.136152 0.176058 0.031662
vn 0.00127674 -0.0198064 0.999803
v 0 0.0974502 0.031662
vn 0 -0.197429 0.9803172
vn -0.155645 -0.180581 0.9711669
vn 0.0177913 -0.00879752 0.999803
v 0.136152 0.176058 0.031662
vn 0.155645 -0.180581 0.9711669
vn 0.0165145 0.0110089 0.999803
v 0.136152 0.333273 0.031662
vn 0.155645 0.180581 0.9711669
v -0.0508319 0.0336539 -0.0267329
vt 0.900994 0.0856692
vn -0.8506507 -0.2761489 -0.4473648
v -0.0314158 0.00690075 0.0267003
vt 0.915327 0.0462239
vn -0.5257311 -0.7238511 0.4468181
v -0.0508319 0.0666572 0.0267329
vt 0.900994 0.0461998
vn -0.8506507 0.2761489 0.4473648
v -0.0314158 0.0934104 -0.0267003
vt 0.915327 0.085645
vn -0.6454971 0.585188 -0.490804
v 0 0.0501229 0.0597565
vt 0.938519 0.0218213
v 0 0.103589 0.0267531
vt 0.938519 0.0461849
vn 0 0.7943225 0.6074964
v 0 -0.00327765 -0.0267531
vt 0.938519 0.0856841
vn 0 -0.8941824 -0.4477027
v 0 0.0501882 -0.0597565
vt 0.938519 0.110048
v 0.0508319 0.0666572 0.0267329
vt 0.976044 0.0461998
vn 0.8506507 0.2761489 0.4473648
v 0.0314158 0.00690075 0.0267003
vt 0.96171 0.0462239
vn 0.5257311 -0.7238511 0.4468181
v 0.0508319 0.0336539 -0.0267329
vt 0.976044 0.0856692
vn 0.8506507 -0.2761489 -0.4473648
v 0.0314158 0.0934104 -0.0267003
vt 0.96171 0.085645
vn 0.6454971 0.585188 -0.490804
v 0.165985 0.100138 -0.0267329
vt 0.930306 0.0856692
vn -0.186174 -0.8747592 -0.4473651
v 0.198862 0.103576 0.0267003
vt 0.954576 0.0462239
vn 0.364008 -0.817222 0.446818
v 0.137404 0.116639 0.0267329
vt 0.909206 0.0461998
vn -0.51401 -0.703236 0.491175
v 0.123943 0.146831 -0.0267003
vt 0.899269 0.0856451
vn -0.790589 -0.0828979 -0.60671
v 0.177139 0.152394 0.0597565
vt 0.93854 0.0218213
v 0.130836 0.179127 0.0267531
vt 0.904358 0.0461849
vn -0.6489558 0.5806858 0.4915898
v 0.223385 0.125694 -0.0267531
vt 0.972679 0.0856841
vn 0.7743848 -0.4470909 -0.4477029
v 0.177082 0.152427 -0.0597565
vt 0.938498 0.110048
v 0.188236 0.204683 0.0267329
vt 0.946731 0.0461998
vn 0.186174 0.8747592 0.4473651
v 0.230278 0.15799 0.0267003
vt 0.977768 0.0462239
vn 0.889739 0.09337081 0.446818
v 0.216817 0.188181 -0.0267329
vt 0.967831 0.0856692
vn 0.6644769 0.5986109 -0.4473649
v 0.155359 0.201245 -0.0267003
vt 0.922461 0.0856451
vn -0.364008 0.817222 -0.446818
v 0.216817 0.321149 -0.0267329
vn 0.6644769 -0.5986109 -0.4473649
v 0.230278 0.35134 0.0267003
vn 0.889739 -0.09337061 0.446818
v 0.188236 0.304647 0.0267329
vn 0.1861739 -0.8747594 0.4473647
v 0.155359 0.308086 -0.0267003
vn -0.184039 -0.8516109 -0.4908039
v 0.177139 0.356936 0.0597565
v 0.130836 0.330203 0.0267531
vn -0.6879034 -0.3971612 0.6074964
v 0.223385 0.383636 -0.0267531
vn 0.7743845 0.4470917 -0.4477027
v 0.177082 0.356904 -0.0597565
v 0.137404 0.392691 0.0267329
vn -0.6644769 0.5986109 0.4473649
v 0.198862 0.405754 0.0267003
vn 0.364008 0.817222 0.446818
v 0.165985 0.409192 -0.0267329
vn -0.186174 0.8747592 -0.4473651
v 0.123943 0.362499 -0.0267003
vn -0.8295364 0.2664228 -0.4908037
v 0.0508319 0.475676 -0.0267329
vn 0.8506507 0.2761489 -0.4473648
v 0.0314158 0.502429 0.0267003
vn 0.5257311 0.7238511 0.4468181
v 0.0508319 0.442673 0.0267329
vn 0.8506509 -0.276148 0.4473649
v 0.0314158 0.41592 -0.0267003
vn 0.6454971 -0.585188 -0.490804
v 0 0.459207 0.0597565
v 0 0.405741 0.0267531
vn 0 -0.794322 0.607497
v 0 0.512608 -0.0267531
vn 0 0.8941829 -0.4477019
v 0 0.459142 -0.0597565
v -0.0508319 0.442673 0.0267329
vn -0.8506509 -0.276148 0.4473649
v -0.0314158 0.502429 0.0267003
vn -0.5257311 0.7238511 0.4468181
v -0.0508319 0.475676 -0.0267329
vn -0.8506507 0.2761489 -0.4473648
v -0.0314158 0.41592 -0.0267003
vn -0.6454971 -0.585188 -0.490804
v -0.165985 0.409192 -0.0267329
vt 0.946731 0.0856692
vn 0.1861739 0.8747594 -0.4473647
v -0.198862 0.405754 0.0267003
vt 0.922461 0.0462239
vn -0.364008 0.817222 0.446818
v -0.137404 0.392691 0.0267329
vt 0.967831 0.0461998
vn 0.6644769 0.5986109 0.4473649
v -0.123943 0.362499 -0.0267003
vt 0.977768 0.0856451
vn 0.8295368 0.2664229 -0.4908029
v -0.177139 0.356936 0.0597565
vt 0.938498 0.0218213
v -0.130836 0.330203 0.0267531
vt 0.972679 0.0461849
vn 0.6879034 -0.3971612 0.6074964
v -0.223385 0.383636 -0.0267531
vt 0.904358 0.0856841
vn -0.7743848 0.4470909 -0.4477029
v -0.177082 0.356904 -0.0597565
vt 0.938539 0.110048
v -0.188236 0.304647 0.0267329
vt 0.930306 0.0461998
vn -0.1861739 -0.8747594 0.4473647
v -0.230278 0.35134 0.0267003
vt 0.899269 0.0462239
vn -0.889739 -0.09337071 0.446818
v -0.216817 0.321149 -0.0267329
vt 0.909206 0.0856692
vn -0.6644769 -0.5986109 -0.4473649
v -0.155359 0.308086 -0.0267003
vt 0.954576 0.0856451
vn 0.184039 -0.8516109 -0.4908039
v -0.216817 0.188181 -0.0267329
vn -0.6644769 0.5986109 -0.4473649
v -0.230278 0.15799 0.0267003
vn -0.889739 0.09337071 0.446818
v -0.188236 0.204683 0.0267329
vn -0.186174 0.8747592 0.4473651
v -0.155359 0.201245 -0.0267003
vn 0.184039 0.8516109 -0.4908039
v -0.177139 0.152394 0.0597565
v -0.130836 0.179127 0.0267531
vn 0.687903 0.397161 0.607497
v -0.223385 0.125694 -0.0267531
vn -0.7743848 -0.4470909 -0.4477029
v -0.177082 0.152427 -0.0597565
v -0.137404 0.116639 0.0267329
vn 0.6644769 -0.5986109 0.4473649
v -0.198862 0.103576 0.0267003
vn -0.364008 -0.817222 0.446818
v -0.165985 0.100138 -0.0267329
vn 0.186174 -0.8747592 -0.4473651
v -0.123943 0.146831 -0.0267003
vn 0.8295364 -0.2664228 -0.4908037
v -0.0508319 0.238163 0.0237388
vt 0.772155 0.0477064
vn -0.9485361 -0.308158 -0.07292431
v -0.0314158 0.21141 0.077172
vt 0.78807 0.0257775
vn -0.5201042 -0.7161053 0.4654942
v -0.0508319 0.271167 0.0772047
vt 0.772155 0.0747585
vn -0.8415182 0.2731821 0.4660671
v -0.0314158 0.29792 0.0237715
vt 0.78807 0.0966875
vn -0.5862277 0.8069125 -0.07231425
v 0 0.254632 0.100994
vt 0.81382 0.0612057
v 0 0.308098 0.0772249
vt 0.81382 0.105031
vn 0 0.8845629 0.4664209
v 0 0.201232 0.0237186
vt 0.81382 0.0174345
vn 0 -0.9973099 -0.07330139
v 0.0508319 0.271167 0.0772047
vt 0.855486 0.0747585
vn 0.8415182 0.2731821 0.4660671
v 0.0314158 0.21141 0.077172
vt 0.839571 0.0257775
vn 0.5201042 -0.7161053 0.4654942
v 0.0508319 0.238163 0.0237388
vt 0.855486 0.0477064
vn 0.9485361 -0.308158 -0.0729242
v 0.0314158 0.29792 0.0237715
vt 0.839571 0.0966875
vn 0.5862277 0.8069125 -0.07231446
o merged_0_0_node
g polygon_0
usemtl mat_body_mat_id
f 1/1/1 2/2/2 3/3/1
f 3/3/1 2/2/2 4/4/2
f 2/2/2 5/5/3 4/4/2
f 4/4/2 5/5/3 6/6/3
f 5/5/3 7/7/4 6/6/3
f 6/6/3 7/7/4 8/8/4
f 7/7/4 9/9/5 8/8/4
f 8/8/4 9/9/5 10/10/5
f 9/9/5 11/11/6 10/10/5
f 10/10/5 11/11/6 12/12/6
f 11/11/6 1/13/1 12/12/6
f 12/12/6 1/13/1 3/14/1
f 2/15/7 1/16/8 13/17/7
f 1/16/8 14/18/8 13/17/7
f 14/19/9 15/20/10 13/21/11
f 5/15/12 2/16/7 16/17/12
f 2/16/7 13/18/7 16/17/12
f 13/21/11 15/20/10 16/22/13
f 7/15/14 5/16/12 17/17/14
f 5/16/12 16/18/12 17/17/14
f 16/22/13 15/20/10 17/23/15
f 9/15/16 7/16/14 18/17/16
f 7/16/14 17/18/14 18/17/16
f 17/23/15 15/20/10 18/22/17
f 11/15/18 9/16/16 19/17/18
f 9/16/16 18/18/16 19/17/18
f 18/22/17 15/20/10 19/21/19
f 1/15/8 11/16/18 14/17/8
f 11/16/18 19/18/18 14/17/8
f 19/21/19 15/20/10 14/19/9
f 3/16/20 4/15/21 20/18/20
f 4/15/21 21/17/21 20/18/20
f 21/24/22 22/25/23 20/26/24
f 4/16/21 6/15/25 21/18/21
f 6/15/25 23/17/25 21/18/21
f 6/16/25 8/15/26 23/18/25
f 8/15/26 24/17/26 23/18/25
f 24/26/27 22/25/23 23/24/28
f 8/16/26 10/15/29 24/18/26
f 10/15/29 25/17/29 24/18/26
f 25/24/30 22/25/23 24/26/27
f 10/16/29 12/15/31 25/18/29
f 12/15/31 26/17/31 25/18/29
f 12/16/31 3/15/20 26/18/31
f 3/15/20 20/17/20 26/18/31
f 20/26/24 22/25/23 26/24/32
f 27/27/33 28/28/34 29/29/35
f 29/29/35 30/30/36 27/27/33
f 29/29/35 31/31/23 32/32/37
f 29/29/35 32/32/37 30/30/36
f 29/29/35 28/28/34 31/31/23
f 33/33/38 27/27/33 34/34/10
f 28/28/34 27/27/33 33/33/38
f 27/27/33 30/30/36 34/34/10
f 35/35/39 36/36/40 37/37/41
f 37/37/41 38/38/42 35/35/39
f 33/33/38 34/34/10 37/37/41
f 37/37/41 36/36/40 33/33/38
f 34/34/10 38/38/42 37/37/41
f 32/32/37 31/31/23 35/35/39
f 35/35/39 38/38/42 32/32/37
f 35/35/39 31/31/23 36/36/40
f 33/33/38 36/36/40 28/28/34
f 34/34/10 30/30/36 38/38/42
f 31/31/23 28/28/34 36/36/40
f 39/39/43 40/40/44 41/41/45
f 41/41/45 42/42/46 39/39/43
f 41/41/45 43/43/23 44/44/47
f 41/41/45 40/40/44 43/43/23
f 45/45/48 39/39/43 46/46/10
f 40/40/44 39/39/43 45/45/48
f 39/39/43 42/42/46 46/46/10
f 47/47/49 48/48/50 49/49/51
f 49/49/51 50/50/52 47/47/49
f 45/45/48 46/46/10 49/49/51
f 49/49/51 48/48/50 45/45/48
f 46/46/10 50/50/52 49/49/51
f 44/44/47 43/43/23 47/47/49
f 47/47/49 50/50/52 44/44/47
f 47/47/49 43/43/23 48/48/50
f 45/45/48 48/48/50 40/40/44
f 46/46/10 42/42/46 50/50/52
f 44/44/47 50/50/52 42/42/46
f 43/43/23 40/40/44 48/48/50
f 51/49/53 52/48/54 53/47/55
f 53/47/55 54/50/56 51/49/53
f 53/47/55 55/43/23 56/44/57
f 53/47/55 56/44/57 54/50/56
f 53/47/55 52/48/54 55/43/23
f 57/45/58 51/49/53 58/46/10
f 52/48/54 51/49/53 57/45/58
f 51/49/53 54/50/56 58/46/10
f 59/41/59 60/40/60 61/39/61
f 61/39/61 62/42/62 59/41/59
f 57/45/58 58/46/10 61/39/61
f 61/39/61 60/40/60 57/45/58
f 58/46/10 62/42/62 61/39/61
f 56/44/57 55/43/23 59/41/59
f 59/41/59 62/42/62 56/44/57
f 59/41/59 55/43/23 60/40/60
f 57/45/58 60/40/60 52/48/54
f 58/46/10 54/50/56 62/42/62
f 55/43/23 52/48/54 60/40/60
f 63/37/63 64/36/64 65/35/65
f 65/35/65 66/38/66 63/37/63
f 65/35/65 67/31/23 68/32/67
f 65/35/65 68/32/67 66/38/66
f 65/35/65 64/36/64 67/31/23
f 69/33/68 63/37/63 70/34/10
f 64/36/64 63/37/63 69/33/68
f 63/37/63 66/38/66 70/34/10
f 71/29/69 72/28/70 73/27/71
f 73/27/71 74/30/72 71/29/69
f 69/33/68 70/34/10 73/27/71
f 73/27/71 72/28/70 69/33/68
f 70/34/10 74/30/72 73/27/71
f 68/32/67 67/31/23 71/29/69
f 71/29/69 74/30/72 68/32/67
f 71/29/69 67/31/23 72/28/70
f 69/33/68 72/28/70 64/36/64
f 70/34/10 66/38/66 74/30/72
f 67/31/23 64/36/64 72/28/70
f 75/51/73 76/52/74 77/53/75
f 77/53/75 78/54/76 75/51/73
f 77/53/75 79/55/23 80/56/77
f 77/53/75 80/56/77 78/54/76
f 77/53/75 76/52/74 79/55/23
f 81/57/78 75/51/73 82/58/10
f 76/52/74 75/51/73 81/57/78
f 75/51/73 78/54/76 82/58/10
f 83/59/79 84/60/80 85/61/81
f 85/61/81 86/62/82 83/59/79
f 81/57/78 82/58/10 85/61/81
f 85/61/81 84/60/80 81/57/78
f 82/58/10 86/62/82 85/61/81
f 80/56/77 79/55/23 83/59/79
f 83/59/79 86/62/82 80/56/77
f 83/59/79 79/55/23 84/60/80
f 81/57/78 84/60/80 76/52/74
f 82/58/10 78/54/76 86/62/82
f 79/55/23 76/52/74 84/60/80
f 87/61/83 88/60/84 89/59/85
f 89/59/85 90/62/86 87/61/83
f 89/59/85 91/55/23 92/56/87
f 89/59/85 92/56/87 90/62/86
f 89/59/85 88/60/84 91/55/23
f 93/57/88 87/61/83 94/58/10
f 88/60/84 87/61/83 93/57/88
f 87/61/83 90/62/86 94/58/10
f 95/53/89 96/52/90 97/51/91
f 97/51/91 98/54/92 95/53/89
f 93/57/88 94/58/10 97/51/91
f 97/51/91 96/52/90 93/57/88
f 94/58/10 98/54/92 97/51/91
f 92/56/87 91/55/23 95/53/89
f 95/53/89 98/54/92 92/56/87
f 95/53/89 91/55/23 96/52/90
f 93/57/88 96/52/90 88/60/84
f 94/58/10 90/62/86 98/54/92
f 91/55/23 88/60/84 96/52/90
f 99/63/93 100/64/94 101/65/95
f 101/65/95 102/66/96 99/63/93
f 101/65/95 103/67/23 104/68/97
f 101/65/95 104/68/97 102/66/96
f 101/65/95 100/64/94 103/67/23
f 100/64/94 99/63/93 105/69/98
f 106/70/99 107/71/100 108/72/101
f 108/72/101 109/73/102 106/70/99
f 108/72/101 107/71/100 105/69/98
f 104/68/97 103/67/23 106/70/99
f 106/70/99 109/73/102 104/68/97
f 106/70/99 103/67/23 107/71/100
f 105/69/98 107/71/100 100/64/94
f 104/68/97 109/73/102 102/66/96
f 103/67/23 100/64/94 107/71/100
v -0.0982306 0.254665 0.0537179
vt 0.572949 0.876556
vn -0.2305931 0 0.9730503
vt 0.987502 0.690805
vt -0.356825 0.876556
vt 0.987503 1.06231
v 0.0982306 0.254665 0.0537179
vn 0.2305931 0 0.9730503
o merged_1_0_node
g polygon_0
usemtl TEX_ANIM_EYE_mat_id
f 110/74/103 23/75/28 22/76/23
f 110/74/103 22/76/23 21/77/22
f 110/74/103 21/77/22 23/75/28
f 111/74/104 26/77/32 22/76/23
f 111/74/104 22/76/23 25/75/30
f 111/74/104 25/75/30 26/77/32
