ply
format ascii 1.0
element vertex 364
property float x
property float y
property float z
property uchar red
property uchar green
property uchar blue
element face 416
property list uchar int vertex_index
end_header
0.08634 -0.18292 2.26478 113 158 56
0.10937 -0.1907 2.28601 113 158 56
0.14282 -0.18272 2.26344 113 158 56
0.27039 -0.18315 2.26335 113 158 56
0.3038 -0.19134 2.28588 113 158 56
0.32691 -0.18388 2.26459 113 158 56
0.12502 -0.1766 2.24667 113 158 56
0.28826 -0.17725 2.24654 113 158 56
0.28848 -0.05551 1.90689 113 158 56
0.32714 -0.0517 1.89596 113 158 56
0.30336 -0.04108 1.86638 113 158 56
0.32742 0.01363 1.91974 113 158 56
0.30364 0.02424 1.89016 113 158 56
0.27659 -0.0502 1.8921 113 158 56
0.24136 -0.04989 1.89221 113 158 56
0.12511 -0.12547 2.1039 113 158 56
0.32719 -0.11844 2.28806 113 158 56
0.08659 -0.04017 1.86671 113 158 56
0.12524 -0.04958 1.89232 113 158 56
0.08634 -0.18292 2.26478 117 165 59
0.08662 -0.11749 2.28825 117 165 59
0.1097 -0.12526 2.30947 117 165 59
0.10937 -0.1907 2.28601 117 165 59
0.3038 -0.19134 2.28588 117 165 59
0.30413 -0.12591 2.30934 117 165 59
0.32691 -0.18388 2.26459 117 165 59
0.32719 -0.11844 2.28806 117 165 59
0.08686 0.02515 1.89049 113 158 56
0.08662 -0.11749 2.28825 113 158 56
0.1097 -0.12526 2.30947 113 158 56
0.30413 -0.12591 2.30934 113 158 56
0.27039 -0.18315 2.26335 178 161 118
0.28826 -0.17725 2.24654 178 161 118
0.12502 -0.1766 2.24667 178 161 118
0.14282 -0.18272 2.26344 178 161 118
0.22372 -0.12575 2.10385 178 161 118
0.12511 -0.12547 2.1039 178 161 118
0.24127 -0.12101 2.09068 178 161 118
0.28848 -0.05551 1.90689 178 161 118
0.24136 -0.04989 1.89221 178 161 118
0.27659 -0.0502 1.8921 178 161 118
0.24127 -0.12101 2.09068 143 130 96
0.24136 -0.04989 1.89221 143 130 96
0.12524 -0.04958 1.89232 143 130 96
0.22372 -0.12575 2.10385 143 130 96
0.12511 -0.12547 2.1039 143 130 96
-0.19004 -0.06273 1.31622 113 158 56
-0.19004 -0.19697 1.69123 113 158 56
-0.16527 -0.22082 1.68269 113 158 56
-0.16527 -0.08658 1.30768 113 158 56
-0.17104 -0.04058 1.30322 113 158 56
-0.14874 -0.06205 1.29553 113 158 56
0.14874 -0.06205 1.29553 113 158 56
0.17104 -0.04058 1.30322 113 158 56
0.16527 -0.08658 1.30768 113 158 56
-0.17104 0.23854 1.40313 113 158 56
-0.19004 0.2474 1.42724 113 158 56
-0.19004 -0.10582 1.72386 113 158 56
0.19004 -0.06273 1.31622 113 158 56
0.17104 0.23854 1.40313 113 158 56
0.19004 0.2474 1.42724 113 158 56
0.16527 -0.22082 1.68269 113 158 56
0.19004 -0.19697 1.69123 113 158 56
0.19004 -0.10582 1.72386 113 158 56
-0.14874 0.26001 1.41082 113 158 56
0.14874 0.26001 1.41082 113 158 56
-0.19004 0.01943 2.06409 113 158 56
-0.16527 0.27126 1.43578 113 158 56
-0.16527 0.04329 2.07263 113 158 56
0.16527 0.04329 2.07263 113 158 56
0.16527 0.27126 1.43578 113 158 56
0.19004 0.01943 2.06409 113 158 56
-0.14874 0.01867 2.08502 113 158 56
0.14874 0.01867 2.08502 113 158 56
-0.17104 -0.0028 2.07733 113 158 56
-0.17104 -0.28192 1.97742 113 158 56
-0.19004 -0.2907 1.95307 113 158 56
0.17104 -0.0028 2.07733 113 158 56
0.17104 -0.28192 1.97742 113 158 56
0.19004 -0.2907 1.95307 113 158 56
-0.19004 -0.27835 1.91858 113 158 56
-0.19004 -0.1872 1.95121 113 158 56
-0.17104 -0.0028 2.07733 117 165 59
-0.14874 0.01867 2.08502 117 165 59
0.14874 0.01867 2.08502 117 165 59
0.17104 -0.0028 2.07733 117 165 59
0.17104 -0.28192 1.97742 117 165 59
-0.17104 -0.28192 1.97742 117 165 59
-0.14874 -0.30339 1.96973 117 165 59
0.14874 -0.30339 1.96973 117 165 59
0.19004 -0.1872 1.95121 113 158 56
0.19004 -0.27835 1.91858 113 158 56
0.16527 -0.31456 1.94453 113 158 56
0.16527 -0.30221 1.91004 113 158 56
0.14874 -0.30339 1.96973 113 158 56
-0.16527 -0.31456 1.94453 113 158 56
-0.14874 -0.30339 1.96973 113 158 56
-0.16527 -0.30221 1.91004 113 158 56
-0.14795 -0.27835 1.91858 113 158 56
0.14795 -0.27835 1.91858 113 158 56
0.16286 -0.25939 1.92548 113 158 56
0.16286 -0.1872 1.95121 113 158 56
0.16286 -0.10582 1.72386 113 158 56
-0.16286 -0.25939 1.92548 113 158 56
-0.16286 -0.1872 1.95121 113 158 56
-0.16286 -0.10582 1.72386 113 158 56
0.16286 -0.17801 1.69813 62 67 60
0.14795 -0.19697 1.69123 62 67 60
-0.14795 -0.19697 1.69123 62 67 60
-0.16286 -0.17801 1.69813 62 67 60
0.16286 -0.10582 1.72386 62 67 60
-0.16286 -0.10582 1.72386 62 67 60
-0.16527 -0.22082 1.68269 117 165 59
-0.19004 -0.19697 1.69123 117 165 59
-0.16286 -0.17801 1.69813 117 165 59
-0.14795 -0.19697 1.69123 117 165 59
-0.19004 -0.10582 1.72386 117 165 59
-0.16286 -0.10582 1.72386 117 165 59
0.14795 -0.19697 1.69123 117 165 59
0.16527 -0.22082 1.68269 117 165 59
0.19004 -0.19697 1.69123 117 165 59
0.16286 -0.17801 1.69813 117 165 59
0.16286 -0.10582 1.72386 117 165 59
0.19004 -0.10582 1.72386 117 165 59
0.04873 -0.27578 1.86321 255 255 255
0.04873 -0.29483 1.91642 255 255 255
0.08746 -0.29483 1.91642 255 255 255
0.08746 -0.27578 1.86321 255 255 255
0.04873 -0.23596 1.87747 255 255 255
0.08746 -0.23596 1.87747 255 255 255
0.08746 -0.255 1.93067 255 255 255
0.04873 -0.255 1.93067 255 255 255
-0.04873 -0.27578 1.86321 255 255 255
-0.08746 -0.27578 1.86321 255 255 255
-0.08746 -0.29483 1.91642 255 255 255
-0.04873 -0.29483 1.91642 255 255 255
-0.04873 -0.23596 1.87747 255 255 255
-0.08746 -0.23596 1.87747 255 255 255
-0.08746 -0.255 1.93067 255 255 255
-0.04873 -0.255 1.93067 255 255 255
0.12576 -0.22994 1.73514 255 255 255
0.12576 -0.21089 1.68193 255 255 255
0.08857 -0.21089 1.68193 255 255 255
0.08857 -0.22994 1.73514 255 255 255
0.08857 -0.17106 1.69619 255 255 255
0.08857 -0.19011 1.74939 255 255 255
0.12576 -0.19011 1.74939 255 255 255
0.12576 -0.17106 1.69619 255 255 255
-0.12576 -0.22994 1.73514 255 255 255
-0.08857 -0.22994 1.73514 255 255 255
-0.08857 -0.21089 1.68193 255 255 255
-0.12576 -0.21089 1.68193 255 255 255
-0.08857 -0.17106 1.69619 255 255 255
-0.08857 -0.19011 1.74939 255 255 255
-0.12576 -0.19011 1.74939 255 255 255
-0.12576 -0.17106 1.69619 255 255 255
0.05541 0.23674 0.69009 113 158 56
0.05541 0.00782 1.33146 113 158 56
0.14182 0.00782 1.33146 113 158 56
0.14182 0.23674 0.69009 113 158 56
0.05541 0.31813 0.71914 113 158 56
0.14182 0.31813 0.71914 113 158 56
0.14182 0.08921 1.36051 113 158 56
0.05541 0.08921 1.36051 113 158 56
-0.05541 0.23674 0.69009 113 158 56
-0.14182 0.23674 0.69009 113 158 56
-0.14182 0.00782 1.33146 113 158 56
-0.05541 0.00782 1.33146 113 158 56
-0.05541 0.31813 0.71914 113 158 56
-0.14182 0.31813 0.71914 113 158 56
-0.14182 0.08921 1.36051 113 158 56
-0.05541 0.08921 1.36051 113 158 56
0.12261 -0.00477 1.6033 113 158 56
0.12261 -0.03239 1.68066 113 158 56
0.54618 -0.03239 1.68066 113 158 56
0.59364 -0.00477 1.6033 113 158 56
0.12261 0.07429 1.63152 113 158 56
0.59364 0.07429 1.63152 113 158 56
0.63806 -0.01828 1.64113 113 158 56
0.63806 0.06079 1.66935 113 158 56
0.54618 0.04668 1.70889 113 158 56
0.12261 0.04668 1.70889 113 158 56
0.54618 -0.19621 2.13963 113 158 56
0.54618 -0.11714 2.16785 113 158 56
0.63806 -0.18148 2.09838 113 158 56
0.63806 -0.10241 2.1266 113 158 56
0.58695 -0.2091 2.17577 113 158 56
0.58695 -0.13004 2.20399 113 158 56
1.0551 -0.13004 2.20399 113 158 56
1.0551 -0.10241 2.1266 113 158 56
1.0551 -0.18148 2.09838 113 158 56
1.0551 -0.2091 2.17577 113 158 56
0.12261 -0.03239 1.68066 117 165 59
0.12261 0.04668 1.70889 117 165 59
0.54618 0.04668 1.70889 117 165 59
0.54618 -0.03239 1.68066 117 165 59
0.58695 -0.13004 2.20399 117 165 59
0.58695 -0.2091 2.17577 117 165 59
0.54618 -0.19621 2.13963 117 165 59
0.54618 -0.11714 2.16785 117 165 59
1.0551 -0.2091 2.17577 117 165 59
1.0551 -0.13004 2.20399 117 165 59
0.6219 -0.00429 1.66868 178 161 118
0.6219 -0.16413 2.1165 178 161 118
1.00907 -0.16413 2.1165 178 161 118
1.00907 0.11127 1.34493 178 161 118
0.6219 0.11127 1.34493 178 161 118
0.6219 0.03393 1.68232 113 158 56
0.6219 0.14948 1.35857 113 158 56
1.00907 0.14948 1.35857 113 158 56
0.57307 0.04793 1.6431 113 158 56
0.57307 0.12298 1.43282 113 158 56
0.6219 0.16662 1.31056 113 158 56
0.6219 0.1284 1.29692 113 158 56
0.6219 0.11127 1.34493 113 158 56
0.57307 0.16662 1.31056 113 158 56
0.57307 0.08477 1.41918 113 158 56
0.57307 0.1284 1.29692 113 158 56
0.1228 0.12298 1.43282 113 158 56
0.1228 0.04793 1.6431 113 158 56
1.00907 -0.12591 2.13014 113 158 56
1.05133 -0.12591 2.13014 113 158 56
1.05133 0.14948 1.35857 113 158 56
1.05133 0.17609 1.28403 113 158 56
1.00907 0.17609 1.28403 113 158 56
1.00907 0.13787 1.27039 113 158 56
1.05133 0.13787 1.27039 113 158 56
1.00907 0.11127 1.34493 113 158 56
1.05133 0.11127 1.34493 113 158 56
1.00907 -0.16413 2.1165 113 158 56
1.05133 -0.16413 2.1165 113 158 56
0.6219 0.14948 1.35857 178 161 118
1.00907 0.14948 1.35857 178 161 118
0.57307 0.00971 1.62946 113 158 56
0.6219 -0.00429 1.66868 113 158 56
0.57307 0.08477 1.41918 178 161 118
0.1228 0.08477 1.41918 178 161 118
0.1228 0.00971 1.62946 178 161 118
0.57307 0.00971 1.62946 178 161 118
0.57307 0.12298 1.43282 178 161 118
0.1228 0.12298 1.43282 178 161 118
0.6219 -0.12591 2.13014 113 158 56
-0.12261 -0.00477 1.6033 113 158 56
-0.59364 -0.00477 1.6033 113 158 56
-0.54618 -0.03239 1.68066 113 158 56
-0.12261 -0.03239 1.68066 113 158 56
-0.12261 0.07429 1.63152 113 158 56
-0.59364 0.07429 1.63152 113 158 56
-0.63806 -0.01828 1.64113 113 158 56
-0.63806 0.06079 1.66935 113 158 56
-0.54618 0.04668 1.70889 113 158 56
-0.12261 0.04668 1.70889 113 158 56
-0.54618 -0.19621 2.13963 113 158 56
-0.54618 -0.11714 2.16785 113 158 56
-0.63806 -0.18148 2.09838 113 158 56
-0.63806 -0.10241 2.1266 113 158 56
-0.58695 -0.2091 2.17577 113 158 56
-0.58695 -0.13004 2.20399 113 158 56
-1.054 -0.13004 2.20399 113 158 56
-1.054 -0.10241 2.1266 113 158 56
-1.054 -0.18148 2.09838 113 158 56
-1.054 -0.2091 2.17577 113 158 56
-0.12261 -0.03239 1.68066 117 165 59
-0.54618 -0.03239 1.68066 117 165 59
-0.54618 0.04668 1.70889 117 165 59
-0.12261 0.04668 1.70889 117 165 59
-0.58695 -0.13004 2.20399 117 165 59
-0.54618 -0.11714 2.16785 117 165 59
-0.54618 -0.19621 2.13963 117 165 59
-0.58695 -0.2091 2.17577 117 165 59
-1.054 -0.2091 2.17577 117 165 59
-1.054 -0.13004 2.20399 117 165 59
-0.6219 -0.00429 1.66868 178 161 118
-1.00907 -0.16413 2.1165 178 161 118
-0.6219 -0.16413 2.1165 178 161 118
-1.00907 0.11127 1.34493 178 161 118
-0.6219 0.11127 1.34493 178 161 118
-0.6219 0.03393 1.68232 113 158 56
-1.00907 0.14948 1.35857 113 158 56
-0.6219 0.14948 1.35857 113 158 56
-0.57307 0.04793 1.6431 113 158 56
-0.57307 0.12298 1.43282 113 158 56
-0.6219 0.16662 1.31056 113 158 56
-0.6219 0.1284 1.29692 113 158 56
-0.6219 0.11127 1.34493 113 158 56
-0.57307 0.16662 1.31056 113 158 56
-0.57307 0.08477 1.41918 113 158 56
-0.57307 0.1284 1.29692 113 158 56
-0.1228 0.12298 1.43282 113 158 56
-0.1228 0.04793 1.6431 113 158 56
-1.00907 -0.12591 2.13014 113 158 56
-1.05133 -0.12591 2.13014 113 158 56
-1.05133 0.14948 1.35857 113 158 56
-1.05133 0.17609 1.28403 113 158 56
-1.00907 0.17609 1.28403 113 158 56
-1.00907 0.13787 1.27039 113 158 56
-1.05133 0.13787 1.27039 113 158 56
-1.00907 0.11127 1.34493 113 158 56
-1.05133 0.11127 1.34493 113 158 56
-1.00907 -0.16413 2.1165 113 158 56
-1.05133 -0.16413 2.1165 113 158 56
-0.6219 0.14948 1.35857 178 161 118
-1.00907 0.14948 1.35857 178 161 118
-0.57307 0.00971 1.62946 113 158 56
-0.6219 -0.00429 1.66868 113 158 56
-0.57307 0.08477 1.41918 178 161 118
-0.57307 0.00971 1.62946 178 161 118
-0.1228 0.00971 1.62946 178 161 118
-0.1228 0.08477 1.41918 178 161 118
-0.57307 0.12298 1.43282 178 161 118
-0.1228 0.12298 1.43282 178 161 118
-0.6219 -0.12591 2.13014 113 158 56
-0.16286 -0.1872 1.95121 62 67 60
0.16286 -0.1872 1.95121 62 67 60
0.16286 -0.25939 1.92548 62 67 60
-0.16286 -0.25939 1.92548 62 67 60
-0.14795 -0.27835 1.91858 62 67 60
0.14795 -0.27835 1.91858 62 67 60
-0.08634 -0.18292 2.26478 113 158 56
-0.14282 -0.18272 2.26344 113 158 56
-0.10937 -0.1907 2.28601 113 158 56
-0.27039 -0.18315 2.26335 113 158 56
-0.3038 -0.19134 2.28588 113 158 56
-0.32691 -0.18388 2.26459 113 158 56
-0.12502 -0.1766 2.24667 113 158 56
-0.28826 -0.17725 2.24654 113 158 56
-0.28848 -0.05551 1.90689 113 158 56
-0.32714 -0.0517 1.89596 113 158 56
-0.30336 -0.04108 1.86638 113 158 56
-0.32742 0.01363 1.91974 113 158 56
-0.30364 0.02424 1.89016 113 158 56
-0.27659 -0.0502 1.8921 113 158 56
-0.12511 -0.12547 2.1039 113 158 56
-0.32719 -0.11844 2.28806 113 158 56
-0.08659 -0.04017 1.86671 113 158 56
-0.12524 -0.04958 1.89232 113 158 56
-0.24136 -0.04989 1.89221 113 158 56
-0.08634 -0.18292 2.26478 117 165 59
-0.10937 -0.1907 2.28601 117 165 59
-0.1097 -0.12526 2.30947 117 165 59
-0.08662 -0.11749 2.28825 117 165 59
-0.3038 -0.19134 2.28588 117 165 59
-0.30413 -0.12591 2.30934 117 165 59
-0.32691 -0.18388 2.26459 117 165 59
-0.32719 -0.11844 2.28806 117 165 59
-0.08686 0.02515 1.89049 113 158 56
-0.08662 -0.11749 2.28825 113 158 56
-0.1097 -0.12526 2.30947 113 158 56
-0.30413 -0.12591 2.30934 113 158 56
-0.27039 -0.18315 2.26335 178 161 118
-0.14282 -0.18272 2.26344 178 161 118
-0.12502 -0.1766 2.24667 178 161 118
-0.28826 -0.17725 2.24654 178 161 118
-0.22372 -0.12575 2.10385 178 161 118
-0.12511 -0.12547 2.1039 178 161 118
-0.24127 -0.12101 2.09068 178 161 118
-0.28848 -0.05551 1.90689 178 161 118
-0.24136 -0.04989 1.89221 178 161 118
-0.27659 -0.0502 1.8921 178 161 118
-0.24127 -0.12101 2.09068 143 130 96
-0.12524 -0.04958 1.89232 143 130 96
-0.24136 -0.04989 1.89221 143 130 96
-0.22372 -0.12575 2.10385 143 130 96
-0.12511 -0.12547 2.1039 143 130 96
3 0 2 1
3 1 2 3
3 1 3 4
3 4 3 5
3 0 6 2
3 5 3 7
3 5 7 8
3 5 8 9
3 10 9 8
3 10 11 9
3 10 12 11
3 10 8 13
3 14 10 13
3 0 15 6
3 9 16 5
3 9 11 16
3 14 17 10
3 17 15 0
3 17 18 15
3 18 17 14
3 19 21 20
3 19 22 21
3 21 22 23
3 21 23 24
3 24 23 25
3 24 25 26
3 27 28 12
3 17 27 12
3 17 12 10
3 27 0 28
3 27 17 0
3 12 28 29
3 12 29 30
3 12 30 16
3 12 16 11
3 31 33 32
3 31 34 33
3 32 33 35
3 35 33 36
3 32 35 37
3 32 37 38
3 38 37 39
3 38 39 40
3 41 43 42
3 43 41 44
3 43 44 45
3 46 48 47
3 46 49 48
3 49 46 50
3 49 50 51
3 50 52 51
3 50 53 52
3 54 51 52
3 54 49 51
3 54 48 49
3 55 50 46
3 55 46 56
3 57 56 46
3 57 46 47
3 58 52 53
3 58 54 52
3 59 58 53
3 59 50 55
3 59 53 50
3 59 60 58
3 54 61 48
3 62 54 58
3 62 61 54
3 58 63 62
3 59 55 64
3 59 64 65
3 66 56 57
3 66 67 56
3 66 68 67
3 69 67 68
3 69 70 67
3 71 70 69
3 71 60 70
3 71 63 60
3 69 68 72
3 69 72 73
3 71 69 73
3 68 74 72
3 68 66 74
3 75 74 66
3 75 66 76
3 71 73 77
3 78 71 77
3 78 79 71
3 56 67 64
3 56 64 55
3 67 65 64
3 67 70 65
3 70 59 65
3 70 60 59
3 76 81 80
3 66 81 76
3 66 57 81
3 82 84 83
3 82 85 84
3 86 85 82
3 86 82 87
3 86 87 88
3 86 88 89
3 90 71 79
3 79 91 90
3 92 91 79
3 92 93 91
3 92 79 78
3 92 78 94
3 95 92 94
3 95 94 96
3 76 95 96
3 76 96 75
3 80 95 76
3 80 97 95
3 97 92 95
3 97 93 92
3 93 97 98
3 98 97 80
3 93 98 99
3 93 100 91
3 93 99 100
3 90 91 100
3 90 100 101
3 63 90 101
3 63 101 102
3 98 80 103
3 104 103 80
3 104 80 81
3 105 104 81
3 105 81 57
3 106 108 107
3 106 109 108
3 110 109 106
3 110 111 109
3 112 114 113
3 112 115 114
3 114 116 113
3 114 117 116
3 118 115 112
3 118 112 119
3 118 119 120
3 118 120 121
3 120 122 121
3 120 123 122
3 63 58 60
3 90 63 71
3 124 126 125
3 124 127 126
3 128 127 124
3 128 124 125
3 128 129 127
3 127 130 126
3 127 129 130
3 128 125 131
3 131 129 128
3 131 130 129
3 132 134 133
3 132 135 134
3 136 132 133
3 136 135 132
3 136 133 137
3 133 138 137
3 133 134 138
3 136 139 135
3 139 137 138
3 139 136 137
3 140 142 141
3 140 143 142
3 143 144 142
3 143 145 144
3 146 140 141
3 146 141 147
3 147 145 146
3 147 144 145
3 146 145 143
3 146 143 140
3 148 150 149
3 148 151 150
3 149 150 152
3 149 152 153
3 154 151 148
3 154 155 151
3 155 153 152
3 155 154 153
3 154 149 153
3 154 148 149
3 156 158 157
3 156 159 158
3 160 159 156
3 160 156 157
3 160 161 159
3 159 162 158
3 159 161 162
3 160 157 163
3 163 161 160
3 163 162 161
3 164 166 165
3 164 167 166
3 168 164 165
3 168 167 164
3 168 165 169
3 165 170 169
3 165 166 170
3 168 171 167
3 171 169 170
3 171 168 169
3 172 174 173
3 172 175 174
3 176 175 172
3 176 177 175
3 174 175 178
3 178 175 177
3 178 177 179
3 177 180 179
3 181 180 177
3 181 177 176
3 180 174 182
3 180 182 183
3 179 180 183
3 174 184 182
3 174 178 184
3 178 185 184
3 178 179 185
3 179 183 185
3 182 184 186
3 185 183 187
3 185 187 188
3 185 188 189
3 190 189 188
3 190 188 191
3 186 184 190
3 184 189 190
3 184 185 189
3 186 190 191
3 192 194 193
3 192 195 194
3 196 198 197
3 196 199 198
3 196 197 200
3 196 200 201
3 202 204 203
3 202 205 204
3 206 205 202
3 207 209 208
3 210 207 208
3 210 208 211
3 211 208 212
3 208 213 212
3 208 214 213
3 211 212 215
3 216 211 215
3 216 215 217
3 210 211 218
3 210 218 219
3 207 220 209
3 209 220 221
3 209 221 222
3 209 222 223
3 209 223 224
3 225 224 223
3 225 223 226
3 227 224 225
3 227 209 224
3 228 227 225
3 229 227 228
3 229 228 230
3 228 221 230
3 228 222 221
3 222 228 226
3 228 225 226
3 222 226 223
3 231 205 206
3 231 232 205
3 212 217 215
3 212 213 217
3 214 217 213
3 214 216 217
3 214 233 216
3 214 234 233
3 235 237 236
3 235 238 237
3 239 236 240
3 239 235 236
3 241 220 207
3 242 244 243
3 242 245 244
3 246 242 243
3 246 243 247
3 244 248 243
3 248 247 243
3 248 249 247
3 247 249 250
3 251 247 250
3 251 246 247
3 250 252 244
3 250 253 252
3 249 253 250
3 244 254 248
3 244 252 254
3 248 255 249
3 248 254 255
3 249 255 253
3 252 256 254
3 255 257 253
3 255 258 257
3 255 259 258
3 260 258 259
3 260 261 258
3 256 260 254
3 254 260 259
3 254 259 255
3 256 261 260
3 262 264 263
3 262 265 264
3 266 268 267
3 266 269 268
3 266 270 269
3 266 271 270
3 272 274 273
3 272 273 275
3 276 272 275
3 277 279 278
3 280 279 277
3 280 281 279
3 281 282 279
3 279 282 283
3 279 283 284
3 281 285 282
3 286 285 281
3 286 287 285
3 280 288 281
3 280 289 288
3 277 278 290
3 278 291 290
3 278 292 291
3 278 293 292
3 278 294 293
3 295 293 294
3 295 296 293
3 297 294 278
3 297 295 294
3 298 295 297
3 299 298 297
3 299 300 298
3 298 300 291
3 298 291 292
3 292 296 298
3 298 296 295
3 292 293 296
3 301 275 302
3 301 276 275
3 282 287 283
3 282 285 287
3 284 283 287
3 284 287 286
3 284 286 303
3 284 303 304
3 305 307 306
3 305 308 307
3 309 308 305
3 309 310 308
3 311 277 290
3 312 110 313
3 312 111 110
3 314 312 313
3 314 315 312
3 316 315 314
3 316 314 317
3 318 320 319
3 320 321 319
3 320 322 321
3 322 323 321
3 318 319 324
3 323 325 321
3 323 326 325
3 323 327 326
3 328 326 327
3 328 327 329
3 328 329 330
3 328 331 326
3 318 324 332
3 327 333 329
3 327 323 333
3 334 318 332
3 334 332 335
3 335 336 334
3 328 336 331
3 334 336 328
3 337 339 338
3 337 340 339
3 339 341 338
3 339 342 341
3 342 343 341
3 342 344 343
3 345 330 346
3 334 330 345
3 334 328 330
3 345 318 334
3 345 346 318
3 330 347 346
3 330 348 347
3 330 333 348
3 330 329 333
3 349 351 350
3 349 352 351
3 352 353 351
3 353 354 351
3 352 355 353
3 352 356 355
3 356 357 355
3 356 358 357
3 359 361 360
3 360 362 359
3 360 363 362
