mtllib Wailord.mtl
v 0 0.403377 -0.786634
vt 0.0704827 0.698568
vn 0 0.0112309 -0.9999369
v 0 0.610011 -0.696205
vt 0.0704827 0.723388
vn 0 0.867912 -0.496718
v 0.189107 0.545126 -0.696205
vt 0.0887895 0.715594
vn 0.509275 0.660633 -0.551546
v -0.189107 0.545126 -0.696205
vt 0.0521759 0.715594
vn -0.509275 0.660633 -0.551546
v 0.267438 0.38848 -0.696205
vt 0.0963724 0.696779
vn 0.773535 0.0132986 -0.633614
v -0.267438 0.38848 -0.696205
vt 0.044593 0.696779
vn -0.773535 0.0132985 -0.633614
v 0.189107 0.231834 -0.696205
vt 0.0887895 0.677964
vn 0.4893539 -0.5932159 -0.6392399
v -0.189107 0.231834 -0.696205
vt 0.0521759 0.677964
vn -0.4893539 -0.5932159 -0.6392399
v 0 0.166949 -0.696205
vt 0.0704827 0.670171
vn 0 -0.7794462 -0.6264692
v 0.432724 0.363653 -0.438629
vt 0.112373 0.693797
vn 0.9831493 -0.04114351 -0.1781141
v -0.432724 0.363653 -0.438629
vt 0.0285923 0.693797
vn -0.9831493 -0.04114372 -0.1781141
v 0 0.00520822 -0.438629
vt 0.0704827 0.650743
vn 0 -0.996565 -0.08281371
v 0.305982 0.110194 -0.438629
vt 0.100104 0.663354
vn 0.5549551 -0.8246651 -0.109326
v -0.305982 0.110194 -0.438629
vt 0.0408617 0.663354
vn -0.5549551 -0.8246651 -0.109327
v 0 0.72439 0.0664848
vt 0.999749 0.271524
vn 0 0.9988756 -0.04740758
v 0.305982 0.617112 -0.438629
vt 0.751471 0.681382
vn 0.6455008 0.7415758 -0.18274
v 0 0.707202 -0.438629
vt 0.999749 0.681381
vn 0 0.9819274 -0.1892581
v 0.305982 0.650757 0.449211
vt 0.751471 -0.0390259
vn 0.657876 0.751231 0.05339739
v -0.305982 0.617112 -0.438629
vn -0.6455008 0.7415758 -0.18274
v 0 0.768445 0.419654
vt 0.999749 -0.0150434
vn 0 0.9985187 0.05440998
v -0.305982 0.650757 0.449211
vn -0.657876 0.751231 0.05339739
v 0.423091 0.421429 0.499857
vt 0.656447 -0.0801213
vn 0.8915551 0.448698 0.0616411
v 0.431008 0.369583 0.345901
vt 0.650023 0.0448012
vn 0.978449 -0.206311 -0.00856656
v -0.423091 0.421429 0.499857
vn -0.8915551 0.448698 0.0616411
v -0.431008 0.369583 0.345901
vn -0.978449 -0.206311 -0.00856661
vt 0.480888 0.238776
vt 0.251189 0.586836
vt 0.480888 0.586836
vt 0.251189 0.238776
vt 0.0195732 0.586836
vt 0.0195732 0.238776
vt 0.0195731 -0.807328
vt 0.516977 0.738765
v 0.189107 0.637671 0.675042
vt 0.724279 0.458805
vn 0.3943689 0.8028809 0.4470519
vt 0.852399 0.706365
v 0 0.710341 0.648676
vt 0.516977 0.487708
vn -2.666039E-05 0.9318336 0.3628859
v -0.189107 0.637671 0.675042
vn -0.3942989 0.8027477 0.4473529
v 0.000286955 0.525355 0.793784
vt 0.218105 0.142178
vn 0.000170321 0.5428219 0.8398478
vt 0.176627 0.171171
vt 0.218168 0.177608
v 0.269057 0.504002 0.704285
vt 0.159064 0.16403
vn 0.666835 0.491144 0.560454
v -0.269057 0.504002 0.704285
vn -0.6665829 0.4910809 0.560809
vt 0.150953 0.226311
v 0.000573908 0.437721 0.809831
vt 0.0225397 0.810781
vn -0.0006450139 0.22437 0.9745039
vt 0.0220268 0.965123
vt 0.415478 0.966389
vn -0.5395859 0.194354 0.8191908
vn 0.5404739 0.194856 0.8184859
v -0.273281 0.412832 0.727989
vt 0.415478 0.805821
vn -0.5552731 0.192479 0.8090881
v 0.273281 0.412832 0.727989
vn 0.5561363 0.1929521 0.8083823
vt 0.755537 0.901303
vn -0.8617624 0.1260789 0.4913957
vn 0.8617624 0.1260789 0.4913957
v 0.423336 0.375177 0.504744
vt 0.755537 0.819843
vn 0.8710759 0.121989 0.4757579
v -0.423336 0.375177 0.504744
vn -0.8710759 0.121989 0.4757579
vt 1.00075 0.8385
vn -0.9987996 0.0103518 0.04787588
vn 0.9987996 0.0103527 0.04787578
v 0.445337 0.326343 -0.6539
vt 0.194397 0.72637
vn 0.9979749 -0.05179379 -0.0369259
v 0.302757 0.340453 -0.619287
vt 0.132537 0.711911
vn -0.1509019 -0.9615076 -0.2296339
v 0.304822 0.392503 -0.622562
vt 0.133433 0.713279
vn 0.3302059 0.8722168 -0.3608349
v 0.410931 0.358073 -0.471492
vt 0.179469 0.650176
vn 0.9777688 0.134249 0.1610759
v -0.445316 0.326343 -0.6539
vn -0.997975 -0.051792 -0.0369257
v -0.304802 0.392503 -0.622562
vn -0.3302061 0.8722172 -0.3608341
v -0.302736 0.340453 -0.619287
vn 0.1509019 -0.9615076 -0.2296339
v -0.41091 0.358073 -0.471492
vn -0.9777685 0.1342509 0.1610759
v 0.413247 0.397341 0.124752
vt 0.263232 0.00561821
vn 0.6328399 0.739206 0.230409
v 0.512084 0.36883 -0.0552446
vt 0.378484 0.236525
vn 0.7051511 0.6495591 0.284315
v 0.407784 0.408783 0.0417201
vt 0.263232 0.236525
vn 0.432008 0.8968351 0.09516251
v 0.548772 0.294448 0.00557619
vt 0.378484 0.00561821
vn 0.7313224 0.6100643 0.3049411
v 0.413247 0.397341 -0.0700071
vn 0.6745684 0.6467434 0.3559222
v 0.508673 0.395959 -0.248355
vn 0.7141888 0.5893888 0.3775649
v 0.407784 0.433007 -0.153039
vn 0.5622819 0.7725878 0.2948679
v 0.541229 0.309595 -0.187671
vn 0.7370322 0.5519262 0.3900782
v -0.413241 0.397341 0.124752
vn -0.6328399 0.739206 0.230409
v -0.512079 0.36883 -0.0552446
vn -0.7051511 0.6495591 0.284315
v -0.548767 0.294448 0.00557619
vn -0.7313224 0.6100643 0.3049411
v -0.407778 0.408783 0.0417201
vn -0.432008 0.8968351 0.09516241
v -0.412607 0.398676 -0.0683575
vn -0.6717819 0.6504679 0.3544019
v -0.508033 0.397294 -0.246705
vn -0.7128806 0.5914267 0.3768498
v -0.54059 0.31093 -0.186021
vn -0.7370322 0.5519262 0.3900782
v -0.4078 0.433046 -0.153
vn -0.548813 0.7849271 0.287565
vn -0.7051511 -0.6495591 -0.284315
vn -0.63284 -0.7392061 -0.230408
vn -0.432008 -0.8968351 -0.09516221
vn -0.7313219 -0.6100649 -0.304941
vn -0.7141888 -0.5893888 -0.3775649
vn -0.6745684 -0.6467434 -0.3559222
vn -0.5622819 -0.7725878 -0.2948679
vn -0.7370322 -0.5519262 -0.3900782
vn 0.7051511 -0.6495591 -0.284315
vn 0.63284 -0.7392061 -0.230408
vn 0.7313219 -0.6100649 -0.304941
vn 0.4320081 -0.8968351 -0.09516201
vn 0.7128806 -0.5914267 -0.3768498
vn 0.6717819 -0.6504679 -0.3544019
vn 0.7370322 -0.5519262 -0.3900782
vn 0.548813 -0.7849271 -0.287565
v 0 0.820499 -1.04644
vt 0.187613 0.0817949
vn 0 0.9954171 0.09562871
v 0 0.7899 -0.727923
vt 0.187613 0.0374945
v 0.304573 0.761138 -1.1276
vt 0.229307 0.0930831
vn 0.2143871 0.9722724 0.09340524
v -0.304573 0.761138 -1.1276
vt 0.14592 0.0930831
vn -0.2143871 0.9722724 0.09340524
vn 0 -0.9954171 -0.09562871
vn -0.2143871 -0.9722724 -0.09340524
vn 0.2143871 -0.9722724 -0.09340524
v 0 0.8205 -1.04644
vn 1 0 0
v 0 0.695098 -0.585201
vt 0.187613 0.017644
vn -1 0 0
o merged_0_0_node
g polygon_0
usemtl mat_body_mat_id
f 1/1/1 2/2/2 3/3/3
f 1/1/1 4/4/4 2/2/2
f 1/1/1 3/3/3 5/5/5
f 1/1/1 6/6/6 4/4/4
f 1/1/1 5/5/5 7/7/7
f 1/1/1 8/8/8 6/6/6
f 1/1/1 7/7/7 9/9/9
f 1/1/1 9/9/9 8/8/8
f 5/5/5 10/10/10 7/7/7
f 6/6/6 8/8/8 11/11/11
f 9/9/9 7/7/7 12/12/12
f 9/9/9 12/12/12 8/8/8
f 10/10/10 13/13/13 7/7/7
f 7/7/7 13/13/13 12/12/12
f 11/11/11 8/8/8 14/14/14
f 14/14/14 8/8/8 12/12/12
f 15/15/15 16/16/16 17/17/17
f 15/15/15 18/18/18 16/16/16
f 15/15/15 17/17/17 19/16/19
f 15/15/15 20/19/20 18/18/18
f 15/15/15 19/16/19 21/18/21
f 15/15/15 21/18/21 20/19/20
f 16/16/16 18/18/18 22/20/22
f 16/16/16 22/20/22 23/21/23
f 19/16/19 24/20/24 21/18/21
f 19/16/19 25/21/25 24/20/24
f 17/22/17 3/23/3 2/24/2
f 17/22/17 16/25/16 3/23/3
f 17/22/17 2/24/2 4/23/4
f 17/22/17 4/23/4 19/25/19
f 16/25/16 5/26/5 3/23/3
f 16/25/16 10/27/10 5/26/5
f 16/25/16 23/28/23 10/27/10
f 4/23/4 6/26/6 19/25/19
f 6/26/6 11/27/11 19/25/19
f 11/27/11 25/28/25 19/25/19
f 20/29/20 26/30/26 18/31/18
f 20/29/20 27/32/27 26/30/26
f 20/29/20 28/30/28 27/32/27
f 20/29/20 21/31/21 28/30/28
f 29/33/29 26/34/26 27/35/27
f 29/33/29 30/36/30 26/34/26
f 29/33/29 27/35/27 28/34/28
f 29/33/29 28/34/28 31/36/31
f 30/36/30 18/37/18 26/34/26
f 28/34/28 21/37/21 31/36/31
f 32/38/32 29/39/32 31/40/33
f 32/38/32 30/40/34 29/39/32
f 32/38/32 31/40/33 33/41/35
f 32/38/32 34/41/36 30/40/34
f 31/40/33 24/42/37 33/41/35
f 34/41/36 22/42/38 30/40/34
f 34/41/36 35/43/39 22/42/38
f 24/42/37 36/43/40 33/41/35
f 24/42/37 25/44/41 36/43/40
f 35/43/39 23/44/42 22/42/38
f 37/45/43 38/46/44 39/47/45
f 37/45/43 40/48/46 38/46/44
f 37/45/43 39/47/45 40/48/46
f 41/45/47 42/47/48 43/46/49
f 41/45/47 44/48/50 42/47/48
f 41/45/47 43/46/49 44/48/50
f 45/49/51 46/50/52 47/51/53
f 45/49/51 48/52/54 46/50/52
f 49/49/55 50/50/56 51/51/57
f 49/49/55 52/52/58 50/50/56
f 53/49/59 54/50/60 55/52/61
f 53/49/59 56/51/62 54/50/60
f 57/49/63 58/50/64 59/52/65
f 57/49/63 60/51/66 58/50/64
f 46/50/67 45/49/68 47/51/69
f 46/50/67 48/52/70 45/49/68
f 50/50/71 49/49/72 51/51/73
f 50/50/71 52/52/74 49/49/72
f 54/50/75 53/49/76 55/52/77
f 54/50/75 56/51/78 53/49/76
f 58/50/79 57/49/80 59/52/81
f 58/50/79 60/51/82 57/49/80
f 61/53/83 62/54/83 63/55/84
f 61/53/83 64/56/85 62/54/83
f 62/54/86 61/53/86 63/55/87
f 62/54/86 64/56/88 61/53/86
f 65/53/89 62/54/89 66/57/89
f 61/53/90 66/57/90 62/54/90
vt 0.991176 -0.271704
vt 0.508848 -0.271704
v -0.296014 0.132275 0.523228
vt 0.508848 0.599871
vn -0.4861391 -0.8680912 0.100432
vt 0.991176 0.599871
vn -0.8348873 -0.4096461 0.3676321
vt 0.991176 0.421813
vt 0.00772427 -0.271704
v 0 0.0255631 0.528573
vt 0.00772427 0.601249
vn 0 -0.9970483 0.07677712
v 0.296014 0.132275 0.523228
vn 0.4861391 -0.8680912 0.100432
vn 0.8348873 -0.4096461 0.3676321
vt 0.885922 0.8087
vn -0.631041 -0.235071 0.739276
v -0.202381 0.246906 0.743424
vt 0.457606 0.835301
vn -0.4261661 -0.4805141 0.7664781
v 0 0.188658 0.747442
vt 0.00772427 0.833066
vn -6.715907E-05 -0.6033287 0.7974926
v 0.202381 0.246906 0.743424
vn 0.4263828 -0.4810478 0.7660227
vn 0.6316972 -0.2354481 0.7385952
vt 0.0947959 0.937228
vn 0.0002723229 -0.1548529 0.9879375
o merged_1_0_node
g polygon_0
usemtl mat_hara_mat_id
f 11/58/11 14/59/14 67/60/91
f 67/60/91 36/61/92 25/62/25
f 25/62/25 11/58/11 67/60/91
f 14/59/14 12/63/12 67/60/91
f 67/60/91 12/63/12 68/64/93
f 13/59/13 69/60/94 12/63/12
f 12/63/12 69/60/94 68/64/93
f 35/61/95 69/60/94 23/62/23
f 10/58/10 23/62/23 69/60/94
f 69/60/94 13/59/13 10/58/10
f 36/61/92 67/60/91 33/65/96
f 33/65/96 67/60/91 70/66/97
f 67/60/91 68/64/93 70/66/97
f 70/66/97 68/64/93 71/67/98
f 69/60/94 72/66/99 68/64/93
f 68/64/93 72/66/99 71/67/98
f 35/61/95 34/65/100 69/60/94
f 69/60/94 34/65/100 72/66/99
f 33/65/96 70/66/97 32/68/101
f 70/66/97 71/67/98 32/68/101
f 71/67/98 72/66/99 32/68/101
f 72/66/99 34/65/100 32/68/101
vt 1.23588 0.730166
vt -0.0948896 0.757891
vt 0.679007 1.08169
o merged_2_0_node
g polygon_0
usemtl TEX_ANIM_EYE_mat_id
f 24/69/24 31/70/31 21/71/21
f 22/69/22 18/71/18 30/70/30
