mtllib Unown_V.mtl
v 0 0.126159 -0.0632906
vt 0.5 -0.5
vn 0 0 -1
v 0 0.251419 -0.0450122
vt 0.5 -1
vn 0 0.894837 -0.446393
v 0.0885727 0.214731 -0.0450122
vt 0.853553 -0.853553
vn 0.6327453 0.6327453 -0.4463932
v -0.0885727 0.214731 -0.0450122
vt 0.146447 -0.853553
vn -0.6327453 0.6327453 -0.4463932
v 0.125261 0.126159 -0.0450122
vt 1 -0.5
vn 0.894837 0 -0.446393
v -0.125261 0.126159 -0.0450122
vt 0 -0.5
vn -0.894837 0 -0.446393
v 0.0885727 0.0375861 -0.0450122
vt 0.853553 -0.146447
vn 0.6327453 -0.6327453 -0.4463932
v -0.0885727 0.0375861 -0.0450122
vt 0.146447 -0.146447
vn -0.6327453 -0.6327453 -0.4463932
v 0 0.000898051 -0.0450122
vt 0.5 0
vn 0 -0.894837 -0.446393
v 0 0.180632 0.03
vn 0 -0.8390556 0.5440457
v -0.0553215 0.272223 0.03
vt 0.25 0.333333
vn 0.257375 0.318679 0.912251
v -0.113631 0.229982 0.03
vt 0 0.333333
vn -0.4732378 -0.5633987 0.6772207
v 0 0.253874 0.03
vt 0.5 0.333333
vn 0 0.5625758 0.8267457
v 0 0.180632 -0.03
vn 0 -0.8390556 -0.5440457
v 0.0553215 0.272223 0.03
vt 0.75 0.333333
vn -0.257375 0.318679 0.912251
v 0.113631 0.229982 -0.03
vt 1 0.333333
vn 0.4732381 -0.5633981 -0.6772211
v 0.113631 0.229982 0.03
vn 0.4732381 -0.5633981 0.6772211
v -0.163531 0.317993 0.03
vt 0 0.666667
vn -0.7522039 -0.139045 0.644093
v -0.0553215 0.272223 -0.03
vn 0.257375 0.318679 -0.912251
v -0.0900904 0.326634 0.03
vt 0.25 0.666667
vn 0.2494029 -0.1824909 0.9510496
v -0.0900904 0.326634 -0.03
vn 0.2494029 -0.1824909 -0.9510496
v 0.0553215 0.272223 -0.03
vn -0.257375 0.318679 -0.912251
v -0.113631 0.229982 -0.03
vn -0.4732378 -0.5633987 -0.6772207
v 0 0.253874 -0.03
vn 0 0.5625758 -0.8267457
v 0.163531 0.317993 -0.03
vt 1 0.666667
vn 0.3841021 -0.4358931 -0.8139182
v 0.163531 0.317993 0.03
vn 0.3841019 -0.4358939 0.8139178
v 0 0.347828 -0.03
vt 0.5 0.666667
vn 0 -0.519165 -0.854674
v -0.163531 0.317993 -0.03
vn -0.7522035 -0.1390449 -0.6440935
v -0.142846 0.388028 -0.03
vt 0.25 1
vn -0.4171582 0.6780562 -0.6051602
v 0.0900904 0.326634 0.03
vt 0.75 0.666667
vn -0.211204 -0.15454 0.9651479
v 0.0900904 0.326634 -0.03
vn -0.211204 -0.15454 -0.9651479
v 0.142846 0.388028 -0.03
vt 0.75 1
vn 0.03350529 0.6401768 -0.7674967
v 0 0.347828 0.03
vn 0 -0.519165 0.854674
v -0.142846 0.388028 0.03
vn -0.4171582 0.6780562 0.6051602
v 0.142846 0.388028 0.03
vn 0.03350529 0.6401768 0.7674967
v 0 0.418602 -0.03
vt 0.5 1
vn 0 0.7360491 -0.6769281
v 0 0.418602 0.03
vn 0 0.7360491 0.6769281
v 0.235324 0.337216 -0.03
vt 1 1
vn 0.4324178 -0.5216398 -0.7354637
vt 0 0
v 0.216894 0.40725 -0.03
vt 0 1
vn 0.113887 0.6721791 -0.7315771
vt 1 0
v 0.250286 0.378595 0
vn 0.9670743 0.2544941 0
v 0.235324 0.337216 0.03
vn 0.4324178 -0.5216398 0.7354637
v 0.216894 0.40725 0.03
vn 0.113887 0.6721791 0.7315771
vt 0.125 0
v 0.0885727 0.214731 0.0426161
vn 0.703783 0.705002 0.0875313
v 0 0.251419 0.0426161
vt 0.125 1
vn -0.0008618414 0.9961614 0.08753144
vt 0.25 0
v -0.0885727 0.214731 0.0426161
vn -0.705002 0.703783 0.0875313
vt 0.375 0
v -0.125261 0.126159 0.0426161
vt 0.375 1
vn -0.9961614 -0.0008617955 0.08753125
v -0.0885727 0.0375861 0.0426161
vn -0.703783 -0.705002 0.0875313
vt 0.625 0
v 0 0.000898051 0.0426161
vt 0.625 1
vn 0.0008618015 -0.9961614 0.08753125
vt 0.75 0
v 0.0885727 0.0375861 0.0426161
vn 0.705002 -0.703783 0.0875313
vt 0.875 0
v 0.125261 0.126159 0.0426161
vt 0.875 1
vn 0.9961614 0.0008618875 0.08753125
vt 0.853553 1.85355
vt 0.5 2
v 0.0727545 0.198913 0.0495704
vt 0.676777 1.67678
vn 0.1868591 0.1911201 0.9636165
v 0.10289 0.126159 0.0495704
vt 0.75 1.5
vn 0.2672721 0.003012991 0.9636164
vt 1 1.5
v 0 0.229049 0.0495704
vt 0.5 1.75
vn -0.003013011 0.2672721 0.9636164
vt 0.146447 1.85355
v 0.0727545 0.0534042 0.0495704
vt 0.676777 1.32322
vn 0.1911201 -0.1868591 0.9636165
v -0.0727545 0.198913 0.0495704
vt 0.323223 1.67678
vn -0.1911201 0.1868591 0.9636165
vt 0 1.5
vt 0.853553 1.14645
v 0 0.0232683 0.0495704
vt 0.5 1.25
vn 0.003013058 -0.2672718 0.9636164
v -0.10289 0.126159 0.0495704
vt 0.25 1.5
vn -0.2672721 -0.003013041 0.9636164
vt 0.146447 1.14645
v -0.0727545 0.0534042 0.0495704
vt 0.323223 1.32322
vn -0.1868589 -0.1911199 0.9636166
o merged_0_0_node
g polygon_0
usemtl mat_body_mat_id
f 1/1/1 2/2/2 3/3/3
f 1/1/1 4/4/4 2/2/2
f 1/1/1 3/3/3 5/5/5
f 1/1/1 6/6/6 4/4/4
f 1/1/1 5/5/5 7/7/7
f 1/1/1 8/8/8 6/6/6
f 1/1/1 7/7/7 9/9/9
f 1/1/1 9/9/9 8/8/8
f 10/9/10 11/10/11 12/11/12
f 10/9/10 13/12/13 11/10/11
f 10/9/10 12/11/12 14/9/14
f 10/9/10 15/13/15 13/12/13
f 10/9/10 14/9/14 16/14/16
f 10/9/10 17/14/17 15/13/15
f 10/9/10 16/14/16 17/14/17
f 11/10/11 18/15/18 12/11/12
f 11/10/11 13/12/13 19/10/19
f 11/10/11 20/16/20 18/15/18
f 11/10/11 19/10/19 21/16/21
f 11/10/11 21/16/21 20/16/20
f 14/9/14 22/13/22 16/14/16
f 14/9/14 12/11/12 23/11/23
f 14/9/14 23/11/23 19/10/19
f 14/9/14 24/12/24 22/13/22
f 14/9/14 19/10/19 24/12/24
f 24/12/24 15/13/15 22/13/22
f 24/12/24 19/10/19 13/12/13
f 24/12/24 13/12/13 15/13/15
f 12/11/12 18/15/18 23/11/23
f 17/14/17 16/14/16 25/17/25
f 17/14/17 26/17/26 15/13/15
f 17/14/17 25/17/25 26/17/26
f 16/14/16 22/13/22 25/17/25
f 21/16/21 27/18/27 20/16/20
f 21/16/21 19/10/19 28/15/28
f 21/16/21 29/19/29 27/18/27
f 21/16/21 28/15/28 29/19/29
f 23/11/23 18/15/18 28/15/28
f 23/11/23 28/15/28 19/10/19
f 15/13/15 26/17/26 30/20/30
f 15/13/15 30/20/30 22/13/22
f 25/17/25 22/13/22 31/20/31
f 25/17/25 31/20/31 32/21/32
f 22/13/22 30/20/30 31/20/31
f 20/16/20 27/18/27 33/18/33
f 20/16/20 34/19/34 18/15/18
f 20/16/20 33/18/33 34/19/34
f 28/15/28 34/19/34 29/19/29
f 28/15/28 18/15/18 34/19/34
f 26/17/26 35/21/35 30/20/30
f 32/21/32 31/20/31 36/22/36
f 32/21/32 36/22/36 35/21/35
f 31/20/31 27/18/27 36/22/36
f 31/20/31 33/18/33 27/18/27
f 31/20/31 30/20/30 33/18/33
f 27/18/27 29/19/29 36/22/36
f 34/19/34 33/18/33 37/22/37
f 34/19/34 37/22/37 29/19/29
f 37/22/37 30/20/30 35/21/35
f 37/22/37 36/22/36 29/19/29
f 37/22/37 33/18/33 30/20/30
f 37/22/37 35/21/35 36/22/36
f 38/23/38 32/24/32 39/25/39
f 38/23/38 25/26/25 32/24/32
f 38/23/38 39/25/39 40/22/40
f 38/23/38 26/26/26 25/26/25
f 38/23/38 40/22/40 41/23/41
f 38/23/38 41/23/41 26/26/26
f 32/24/32 42/25/42 39/25/39
f 32/24/32 35/24/35 42/25/42
f 42/25/42 40/22/40 39/25/39
f 42/25/42 35/24/35 41/23/41
f 42/25/42 41/23/41 40/22/40
f 41/23/41 35/24/35 26/26/26
f 2/27/2 43/25/43 3/24/3
f 2/27/2 44/28/44 43/25/43
f 2/27/2 4/29/4 44/28/44
f 4/29/4 45/19/45 44/28/44
f 4/29/4 6/30/6 45/19/45
f 6/30/6 46/31/46 45/19/45
f 6/30/6 8/9/8 46/31/46
f 8/9/8 47/22/47 46/31/46
f 8/9/8 9/32/9 47/22/47
f 9/32/9 48/33/48 47/22/47
f 9/32/9 7/34/7 48/33/48
f 7/34/7 49/21/49 48/33/48
f 7/34/7 5/35/5 49/21/49
f 5/35/5 50/36/50 49/21/49
f 5/35/5 3/26/3 50/36/50
f 3/26/3 43/23/43 50/36/50
f 43/37/43 44/38/44 51/39/51
f 43/37/43 51/39/51 52/40/52
f 43/37/43 52/40/52 50/41/50
f 44/38/44 53/42/53 51/39/51
f 44/38/44 45/43/45 53/42/53
f 52/40/52 54/44/54 50/41/50
f 45/43/45 55/45/55 53/42/53
f 45/43/45 46/46/46 55/45/55
f 54/44/54 49/47/49 50/41/50
f 54/44/54 56/48/56 49/47/49
f 46/46/46 57/49/57 55/45/55
f 46/46/46 47/50/47 57/49/57
f 56/48/56 48/22/48 49/47/49
f 56/48/56 58/51/58 48/22/48
f 58/51/58 57/49/57 47/50/47
f 58/51/58 47/50/47 48/22/48
v 0 0.126159 0.0767688
vt 0.5 0.875002
vn 0 0 1
vt 0.853553 0.963283
vt 0.5 0.999851
vt 0.146447 0.963283
vt 0 0.875002
vt 0.146447 0.786721
vt 0.5 0.750153
vt 0.853553 0.786721
vt 1 0.875002
o merged_1_0_node
g polygon_0
usemtl TEX_ANIM_EYE_mat_id
f 59/52/59 51/53/51 53/54/53
f 59/52/59 53/54/53 55/55/55
f 59/52/59 55/55/55 57/56/57
f 59/52/59 57/56/57 58/57/58
f 59/52/59 58/57/58 56/58/56
f 59/52/59 56/58/56 54/59/54
f 59/52/59 54/59/54 52/60/52
f 59/52/59 52/60/52 51/53/51
