mtllib Burmy_Kusa.mtl
v 0 0.163252 0.169434
vt 0.853605 0.55189
vn 0 -0.2995469 0.9540816
v 0 0.0867772 0.133529
vt 0.853605 0.291631
vn 0 -0.5284208 0.8489826
v 0.0855315 0.0796137 0.103362
vt 0.864885 0.267252
vn 0.5471961 -0.5462792 0.6341572
v -0.0855315 0.0796137 0.103362
vt 0.842324 0.267252
vn -0.5471961 -0.5462792 0.6341572
v 0.136477 0.193155 0.12369
vt 0.867092 0.653654
vn 0.7280328 -0.2338509 0.6444238
v -0.136477 0.193155 0.12369
vt 0.840117 0.653654
vn -0.7280329 -0.23385 0.644424
v 0.0560782 0.231832 0.170351
vt 0.858761 0.78528
vn 0.2797301 -0.113515 0.9533443
v -0.0560782 0.231832 0.170351
vt 0.848448 0.78528
vn -0.272099 -0.108073 0.9561811
v 0 0.0229911 0.0776415
vt 0.853605 0.074554
vn 0 -0.8719496 0.4895958
v 0.13391 0.259394 0.122258
vt 0.867038 0.87908
vn 0.8261746 0.1287049 0.5485168
v 0.177155 0.135477 0.000342886
vt 0.878814 0.457365
vn 0.9371001 -0.34899 -0.007021431
v 0.185047 0.250506 -0.00047908
vt 0.878868 0.848832
vn 0.9850524 0.1607561 -0.06188093
v -0.13391 0.259394 0.122258
vt 0.840171 0.87908
vn -0.8261743 0.128705 0.5485172
v -0.177155 0.135477 0.000342886
vt 0.828396 0.457365
vn -0.9371001 -0.34899 -0.007021401
v -0.185047 0.250506 -0.00047908
vt 0.828341 0.848832
vn -0.9850524 0.1607561 -0.06188093
v 0.108463 0.0391824 0.00211473
vt 0.878794 0.129656
vn 0.6497642 -0.7601302 -0.002933611
v -0.108463 0.0391824 0.00211473
vt 0.828416 0.129656
vn -0.6497642 -0.7601302 -0.002933521
v 0 0.00108404 0.00239786
vt 0.90327 0
vn 0 -0.9998732 0.0159212
vt 0.803939 0
v 0.137854 0.199964 -0.120922
vt 0.890112 0.676827
vn 0.7289571 -0.141019 -0.6698771
v 0.119072 0.294925 -0.111554
vt 0.890655 1
vn 0.6768064 0.3919063 -0.6231714
v -0.137854 0.199964 -0.120922
vt 0.817098 0.676827
vn -0.7289571 -0.141019 -0.6698771
v -0.119072 0.294925 -0.111554
vt 0.816554 1
vn -0.676807 0.391906 -0.623171
v 0 0.020525 -0.0728459
vt 0.90327 0.0661615
vn 0 -0.8484721 -0.5292401
vt 0.803939 0.0661615
v 0.0856491 0.0816781 -0.103126
vt 0.892648 0.274278
vn 0.5253028 -0.5463307 -0.6523647
v 0.0560782 0.243962 -0.161232
vt 0.898114 0.826563
vn 0.230986 0.07452011 -0.9700991
v -0.0856491 0.0816781 -0.103126
vt 0.814561 0.274277
vn -0.5253028 -0.5463307 -0.6523647
v -0.0560782 0.243962 -0.161232
vt 0.809095 0.826563
vn -0.230986 0.07452011 -0.9700991
v 0 0.12138 -0.150886
vt 0.90327 0.409389
vn 0 -0.3514259 -0.9362157
vt 0.803939 0.409389
vt 0.908427 0.826563
v -0.0803714 0.000300989 0
vt 0.24219 0.944326
vn -0.3496231 -0.9368904 0
v -0.0876207 0.0481872 0
vn -0.9887345 -0.1496799 0
v -0.065572 0.0399593 -0.0235339
vn -0.1698879 -0.4552518 -0.8740045
v -0.065572 0.0399593 0.0235339
vn -0.1698879 -0.4552518 0.8740045
v -0.0435233 0.0317313 0
v 0.0803714 0.000300995 0
vn 0.3496228 -0.9368906 0
v 0.065572 0.0399593 -0.0235339
vn 0.1698879 -0.4552518 -0.8740045
v 0.0876207 0.0481872 0
vn 0.9887347 -0.1496789 0
v 0.0435233 0.0317313 0
v 0.065572 0.0399593 0.0235339
vn 0.1698879 -0.4552518 0.8740045
v 0.160421 0.240594 0.120407
vt 0.278189 0.125185
vn 0.5337271 0.130965 0.8354541
v 0.0805384 0.223714 0.174086
vt 0.222552 0.124105
v 0.129489 0.16555 0.144659
vt 0.248966 0.00765338
vn 0.5510947 0.04216798 0.8333766
v 0.0976683 0.301138 0.143868
vt 0.251775 0.24071
vn 0.5141482 0.2107451 0.8314073
vn -0.5333688 -0.1325779 -0.8354286
vn -0.5510947 -0.04216798 -0.8333766
vn -0.5141482 -0.2107451 -0.8314073
v 0.0953825 0.231035 0.175614
vn 0.256197 0.0630221 0.964568
v 0.00420194 0.207175 0.201391
v 0.0609791 0.151644 0.184276
vn 0.2755341 -0.01453501 0.9611814
v 0.0256359 0.287621 0.184957
vn 0.237132 0.1334 0.9622748
vn -0.2562521 -0.06280932 -0.9645672
vn -0.2755341 0.01453501 -0.9611814
vn -0.237132 -0.1334 -0.9622748
v -0.00501375 0.210389 0.204469
vn -0.4340639 0.154982 0.8874509
v -0.0903917 0.226748 0.159852
v -0.0685296 0.147817 0.181655
vn -0.4409252 0.1234441 0.8890144
v -0.0350328 0.289642 0.173297
vn -0.4267332 0.1864301 0.8849534
vn 0.4341769 -0.1544829 -0.8874827
vn 0.4409248 -0.1234439 -0.8890146
vn 0.4267332 -0.1864301 -0.8849534
v -0.0995997 0.19632 0.192227
vn -0.657935 0.318862 0.6822379
v -0.144086 0.250376 0.124061
v -0.163734 0.169022 0.133124
vn -0.7113587 0.2451839 0.6586757
v -0.0762851 0.279508 0.165959
vn -0.5994259 0.3889069 0.6995999
vn 0.6587968 -0.3177549 -0.6819227
vn 0.7113587 -0.2451839 -0.6586757
vn 0.5994259 -0.3889069 -0.6995999
v -0.0668305 0.337507 0.163308
vn -0.440545 0.5646471 0.697921
v -0.103137 0.395452 0.0935101
v -0.139064 0.329433 0.114789
vn -0.519484 0.5048841 0.6893681
v -0.0250056 0.407429 0.124381
vn -0.370147 0.610988 0.6997749
vn 0.4431318 -0.5628257 -0.6977546
vn 0.519484 -0.5048841 -0.6893681
vn 0.370147 -0.610988 -0.6997749
v 0.0784209 0.330036 0.157618
vt 0.278189 0.123178
vn 0.3671161 0.5978302 0.7126182
v 0.0853732 0.402912 0.0929
vt 0.222552 0.124258
v 0.0162389 0.386989 0.132003
vt 0.248966 0.24071
vn 0.2704411 0.6247241 0.7325172
v 0.141201 0.34552 0.102503
vt 0.251775 0.00765342
vn 0.4619339 0.5638859 0.68458
vn -0.3647729 -0.5985708 -0.7131997
vn -0.2704411 -0.6247241 -0.7325172
vn -0.4619339 -0.5638859 -0.68458
vn 0.3496228 0.9368906 0
vn -0.3496228 0.9368906 0
v -0.0673387 0.151121 -0.161064
vn 0.473242 0.176676 0.863034
v -0.141316 0.199658 -0.130435
v -0.121521 0.121138 -0.11832
vn 0.507961 0.255 0.8227701
v -0.0759836 0.231298 -0.165554
vn 0.4343937 0.09698514 0.8954865
vn -0.4709368 -0.1717389 -0.8652886
vn -0.507961 -0.255 -0.8227701
vn -0.4343929 -0.09698518 -0.8954868
v 0.0466515 0.156518 -0.16699
vn -0.00998206 0.198777 0.9799939
v -0.0501014 0.169678 -0.170645
v -0.0237633 0.0980114 -0.149308
vn 0.00274446 0.28628 0.958142
v 0.00385918 0.229361 -0.176025
vn -0.0225757 0.109983 0.993677
vn 0.008913452 -0.20621 -0.9784672
vn -0.00274446 -0.28628 -0.958142
vn 0.0225757 -0.109983 -0.993677
v 0.141783 0.20992 -0.141072
vn -0.420083 0.252124 0.871759
v 0.0555211 0.177089 -0.173144
v 0.0998054 0.12739 -0.130087
vn -0.4374619 0.3336499 0.8350478
v 0.078897 0.254158 -0.177226
vn -0.399309 0.168843 0.901135
vn 0.421681 -0.259071 -0.8689461
vn 0.4374619 -0.3336499 -0.8350478
vn 0.399309 -0.168843 -0.901135
o merged_0_0_node
g polygon_0
usemtl pasted__lambert2_mat_id
f 1/1/1 2/2/2 3/3/3
f 1/1/1 4/4/4 2/2/2
f 1/1/1 3/3/3 5/5/5
f 1/1/1 6/6/6 4/4/4
f 1/1/1 5/5/5 7/7/7
f 1/1/1 8/8/8 6/6/6
f 1/1/1 7/7/7 8/8/8
f 2/2/2 9/9/9 3/3/3
f 2/2/2 4/4/4 9/9/9
f 5/5/5 10/10/10 7/7/7
f 5/5/5 3/3/3 11/11/11
f 5/5/5 12/12/12 10/10/10
f 5/5/5 11/11/11 12/12/12
f 6/6/6 8/8/8 13/13/13
f 6/6/6 14/14/14 4/4/4
f 6/6/6 13/13/13 15/15/15
f 6/6/6 15/15/15 14/14/14
f 9/9/9 16/16/16 3/3/3
f 9/9/9 4/4/4 17/17/17
f 9/9/9 18/18/18 16/16/16
f 9/9/9 17/17/17 18/19/18
f 4/4/4 14/14/14 17/17/17
f 3/3/3 16/16/16 11/11/11
f 12/12/12 11/11/11 19/20/19
f 12/12/12 19/20/19 20/21/20
f 15/15/15 21/22/21 14/14/14
f 15/15/15 22/23/22 21/22/21
f 18/18/18 23/24/23 16/16/16
f 18/19/18 17/17/17 23/25/23
f 11/11/11 24/26/24 19/20/19
f 11/11/11 16/16/16 24/26/24
f 16/16/16 23/24/23 24/26/24
f 20/21/20 19/20/19 25/27/25
f 14/14/14 21/22/21 26/28/26
f 14/14/14 26/28/26 17/17/17
f 17/17/17 26/28/26 23/25/23
f 22/23/22 27/29/27 21/22/21
f 23/24/23 28/30/28 24/26/24
f 19/20/19 28/30/28 25/27/25
f 19/20/19 24/26/24 28/30/28
f 26/28/26 28/31/28 23/25/23
f 26/28/26 21/22/21 28/31/28
f 28/31/28 21/22/21 27/29/27
f 25/27/25 28/30/28 27/32/27
f 29/33/29 30/33/30 31/33/31
f 29/33/29 32/33/32 30/33/30
f 29/33/29 31/33/31 33/33/16
f 29/33/29 33/33/16 32/33/32
f 34/33/33 35/33/34 36/33/35
f 34/33/33 37/33/17 35/33/34
f 34/33/33 36/33/35 38/33/36
f 34/33/33 38/33/36 37/33/17
f 39/34/37 40/35/37 41/36/38
f 39/34/37 42/37/39 40/35/37
f 40/35/40 39/34/40 41/36/41
f 40/35/40 42/37/42 39/34/40
f 43/34/43 44/35/43 45/36/44
f 43/34/43 46/37/45 44/35/43
f 44/35/46 43/34/46 45/36/47
f 44/35/46 46/37/48 43/34/46
f 47/34/49 48/35/49 49/36/50
f 47/34/49 50/37/51 48/35/49
f 48/35/52 47/34/52 49/36/53
f 48/35/52 50/37/54 47/34/52
f 51/34/55 52/35/55 53/36/56
f 51/34/55 54/37/57 52/35/55
f 52/35/58 51/34/58 53/36/59
f 52/35/58 54/37/60 51/34/58
f 55/34/61 56/35/61 57/36/62
f 55/34/61 58/37/63 56/35/61
f 56/35/64 55/34/64 57/36/65
f 56/35/64 58/37/66 55/34/64
f 59/38/67 60/39/67 61/40/68
f 59/38/67 62/41/69 60/39/67
f 60/39/70 59/38/70 61/40/71
f 60/39/70 62/41/72 59/38/70
f 30/33/73 33/33/73 31/33/73
f 30/33/73 32/33/73 33/33/73
f 37/33/74 36/33/74 35/33/74
f 37/33/74 38/33/74 36/33/74
f 63/34/75 64/35/75 65/36/76
f 63/34/75 66/37/77 64/35/75
f 64/35/78 63/34/78 65/36/79
f 64/35/78 66/37/80 63/34/78
f 67/34/81 68/35/81 69/36/82
f 67/34/81 70/37/83 68/35/81
f 68/35/84 67/34/84 69/36/85
f 68/35/84 70/37/86 67/34/84
f 71/34/87 72/35/87 73/36/88
f 71/34/87 74/37/89 72/35/87
f 72/35/90 71/34/90 73/36/91
f 72/35/90 74/37/92 71/34/90
v 0 0.354215 -0.13198
vt 0.94048 0.470421
vn 0 0.5928679 -0.8052998
v 0.0994041 0.383797 -0.0538559
vt 0.941368 0.476274
vn 0.5886117 0.7247576 -0.3581378
vt 0.941645 0.458147
v 0 0.429712 -0.0284805
vt 0.94048 0.47837
vn 0 0.9681849 -0.250236
vt 0.941029 0.447598
v -0.0994041 0.383797 -0.0538559
vt 0.939593 0.476274
vn -0.5886117 0.7247576 -0.3581378
vt 0.939932 0.447598
vt 0.939316 0.458147
vt 0.94229 0.448952
v 0.0827607 0.395548 0.0867262
vt 0.94129 0.484008
vn 0.5092888 0.8281456 0.2340939
v 0.146815 0.335489 0.0576168
vt 0.941916 0.470065
vn 0.8630973 0.4830322 0.1474551
vt 0.93867 0.448952
v -0.0827607 0.395548 0.0867262
vt 0.939671 0.484008
vn -0.5092888 0.8281456 0.2340939
v -0.146815 0.335489 0.0576168
vt 0.939044 0.470065
vn -0.8630974 0.4830322 0.1474541
vt 0.94179 0.460019
vt 0.939171 0.460019
v 0 0.391416 0.122201
vt 0.000161605 0.766376
vn 0 0.7102293 0.7039704
vt 0.650315 0.911636
v 0 0.404359 0.0967138
vt 0.000162164 1.03056
vn 0 0.8916135 0.4527973
v 0.0907365 0.344707 0.13461
vt 0.575545 0.245845
vn 0.5435899 0.4566889 0.7042338
vt -0.649992 0.91164
v 0.0353752 0.342452 0.150627
vt 0.2187 0.220416
vn 0.12284 0.3709889 0.9204768
v -0.0907365 0.344707 0.13461
vt -0.575224 0.245849
vn -0.5435899 0.4566889 0.7042338
v -0.0353752 0.342452 0.150627
vt -0.218378 0.220417
vn -0.1248 0.3732821 0.9192853
vt 1.16646 0.358962
vt -1.16614 0.358969
v -0.0387911 0.269485 0.167289
vt -0.223735 -0.496744
vn -0.111781 0.1780971 0.9776433
v 0.0387911 0.269485 0.167289
vt 0.224055 -0.496745
vn 0.119565 0.186936 0.9750688
vt 0.842085 -0.571136
v 0.103966 0.275973 0.14513
vt 0.623687 -0.425777
vn 0.4799739 0.126518 0.8681119
vt -0.841766 -0.571131
v -0.103966 0.275973 0.14513
vt -0.623367 -0.425773
vn -0.4799747 0.1265179 0.8681115
v 0 0.305488 0.156829
vt 0.124531 0.162527
vn 0 0.393478 -0.9193341
v 0 0.247022 0.163767
vn 0 -0.5977113 -0.8017114
v -0.0294381 0.276255 0.160298
vn -0.4990719 -0.102117 -0.8605228
v 0.0294381 0.276255 0.160298
vn 0.4990719 -0.102117 -0.8605228
v 0 0.280088 0.192599
vn 0 0.1178409 0.9930325
vt -0.317362 0.875923
vt 0.223735 0.496744
vt 0.317043 0.875921
vt -0.224055 0.496745
vt -0.623687 0.425776
vt -0.842085 0.571136
vt 0.623367 0.425773
vt 0.841766 0.571131
v 0 0.417303 0.0712267
vt 0.840824 0.885946
vn 0 0.983388 0.181516
vt 0.932528 0.371865
o merged_1_0_node
g polygon_0
usemtl lambert2_mat_id
f 75/42/93 76/43/94 20/44/20
f 75/42/93 77/45/95 76/43/94
f 75/42/93 20/44/20 25/46/25
f 75/42/93 78/47/96 77/45/95
f 75/42/93 25/46/25 27/48/27
f 75/42/93 22/49/22 78/47/96
f 75/42/93 27/48/27 22/49/22
f 76/43/94 12/50/12 20/44/20
f 76/43/94 77/45/95 79/51/97
f 76/43/94 80/52/98 12/50/12
f 76/43/94 79/51/97 80/52/98
f 78/47/96 22/49/22 15/53/15
f 78/47/96 81/54/99 77/45/95
f 78/47/96 15/53/15 82/55/100
f 78/47/96 82/55/100 81/54/99
f 12/50/12 80/52/98 10/56/10
f 15/53/15 13/57/13 82/55/100
f 83/58/101 79/59/97 84/60/102
f 83/58/101 85/61/103 79/59/97
f 83/58/101 84/60/102 81/62/99
f 83/58/101 86/63/104 85/61/103
f 83/58/101 81/62/99 87/64/105
f 83/58/101 88/65/106 86/63/104
f 83/58/101 87/64/105 88/65/106
f 79/59/97 85/61/103 80/66/98
f 81/62/99 82/67/100 87/64/105
f 86/63/104 88/65/106 89/68/107
f 86/63/104 89/68/107 90/69/108
f 85/61/103 10/70/10 80/66/98
f 85/61/103 91/71/109 10/70/10
f 82/67/100 13/72/13 87/64/105
f 13/72/13 92/73/110 87/64/105
f 93/74/111 94/74/112 95/74/113
f 93/74/111 96/74/114 94/74/112
f 93/74/111 95/74/113 97/74/115
f 93/74/111 97/74/115 96/74/114
f 97/74/115 95/74/113 94/74/112
f 97/74/115 94/74/112 96/74/114
f 7/75/7 89/76/107 8/77/8
f 7/75/7 90/78/108 89/76/107
f 7/75/7 91/79/109 90/78/108
f 7/75/7 10/80/10 91/79/109
f 8/77/8 89/76/107 92/81/110
f 8/77/8 92/81/110 13/82/13
f 98/83/116 84/83/102 79/83/97
f 98/83/116 81/83/99 84/83/102
f 98/84/116 79/84/97 77/84/95
f 98/84/116 77/84/95 81/84/99
v 0.0258667 0.457979 0.0582656
vt 0.833269 0.0731601
vn 0.4922001 0.2731421 0.8265182
v 0.0202205 0.538828 0.0350123
vt 0.833269 0.707704
vn 0.4611749 0.439588 0.7707659
v -0.0258667 0.457979 0.0582656
vt 1.00202 0.113588
vn -0.4922001 0.2731421 0.8265182
v -0.0202205 0.538828 0.0350123
vt 1.00202 0.748132
vn -0.4611749 0.439588 0.7707659
vt 0.00872675 0.5
v -0.0404411 0.5305569 0.0009800975
vt 0.17199 0.546618
vn -0.969671 0.244412 -0.0010397
vt 0.00872675 -0.134544
v -0.0517333 0.450738 0.01405219
vt 0.17199 -0.0879261
vn -0.9903213 0.137806 -0.0165296
v -0.0202205 0.522285 -0.03305211
vt 0.335253 0.587751
vn -0.5145828 0.009177076 -0.8573916
v -0.0258667 0.443497 -0.03016111
vt 0.335253 -0.0467926
vn -0.4968739 0.00221101 -0.8678199
v 0.0258667 0.443497 -0.03016111
vt 0.498517 -0.0111436
vn 0.4968739 0.00221098 -0.8678199
v 0.0202205 0.522285 -0.03305211
vt 0.498517 0.6234
vn 0.5145828 0.009177076 -0.8573916
v 0.0517333 0.450738 0.01405219
vt 0.667264 0.0327322
vn 0.9903213 0.137806 -0.0165299
v 0.040441 0.5305569 0.0009800975
vt 0.667264 0.667276
vn 0.969671 0.244412 -0.00103992
vn 0 -0.9868532 0.161619
v 0 0.600176 -0.04354981
vt 0.529904 1
vn 0 0.9322654 -0.3617752
vt 0.0604616 0.995927
o merged_2_0_node
g polygon_0
usemtl MINOMUTTI_SUNA_nomove_lambert5_mat_id
f 99/85/117 100/86/118 101/87/119
f 101/87/119 100/86/118 102/88/120
f 102/89/120 103/90/121 101/91/119
f 101/91/119 103/90/121 104/92/122
f 103/90/121 105/93/123 104/92/122
f 104/92/122 105/93/123 106/94/124
f 106/94/124 105/93/123 107/95/125
f 107/95/125 105/93/123 108/96/126
f 107/95/125 108/96/126 109/97/127
f 109/97/127 108/96/126 110/98/128
f 109/97/127 110/98/128 99/85/117
f 99/85/117 110/98/128 100/86/118
f 99/87/129 101/87/129 109/87/129
f 101/87/129 104/87/129 109/87/129
f 104/87/129 106/87/129 109/87/129
f 106/87/129 107/87/129 109/87/129
f 100/86/118 111/99/130 102/88/120
f 102/89/120 111/100/130 103/90/121
f 103/90/121 111/99/130 105/93/123
f 105/93/123 111/99/130 108/96/126
f 108/96/126 111/99/130 110/98/128
f 110/98/128 111/99/130 100/86/118
vt 0.839388 1.02001
vt 0.239174 0.753062
vt 0.199705 1.01201
vt 0.992255 0.776088
o merged_3_0_node
g polygon_0
usemtl TEX_ANIM_EYE_mat_id
f 87/101/105 89/102/107 88/103/106
f 92/104/110 89/102/107 87/101/105
f 90/102/108 91/104/109 85/101/103
f 90/102/108 85/101/103 86/103/104
