mtllib Rufflet.mtl
v 0.195339 0.425219 -0.0830097
vt 0.87799 0.108512
vn 0.895838 0.0133884 -0.444179
v 0.144776 0.320549 -0.084821
vt 0.8334 0.0469989
vn 0.4317468 -0.7084067 -0.5583498
v 0.08490449 0.387068 -0.140615
vt 0.928229 0.0733863
vn 0.2192759 -0.3694968 -0.9029896
v 0.171948 0.297838 0.0852462
vt 0.624688 0.0716828
vn 0.8588432 -0.4717001 0.199718
v 0.0895256 0.502972 -0.155846
vt 0.997731 0.137656
vn 0.30311 0.245784 -0.9207141
v 0.202128 0.425891 0.0686515
vt 0.701203 0.142741
vn 0.9707949 -0.0458365 0.235492
v 0.1371 0.554393 -0.052218
vt 0.899676 0.190796
vn 0.5950438 0.7344958 -0.3262498
v 0.180879 0.529889 0.1102
vt 0.699095 0.212727
vn 0.83058 0.408741 0.378243
v 0 0.309859 -0.0808351
vt 0.823976 0.0416469
vn 0 -0.683101 -0.730324
v 0.0959993 0.245273 0.0852462
vt 0.601232 0.0409942
vn 0.3924352 -0.9174234 0.06579553
v 0 0.2499 -0.00974385
vt 0.714213 0.0225025
vn 0 -0.9115746 -0.4111348
v 0 0.58022 -0.113213
vt 0.98242 0.192266
vn 0 0.8169503 -0.5767082
v -0.08490449 0.387068 -0.140615
vn -0.182313 -0.330254 -0.9261179
v -0.0895256 0.502972 -0.155846
vn -0.362426 0.3237 -0.8739941
v 0.111942 0.594888 0.1102
vt 0.728098 0.250674
vn 0.446409 0.8738899 0.192446
v 0 0.55903 0.227103
vt 0.575597 0.255821
vn 0 0.5286278 0.8488537
v 0 0.22815 0.0852462
vt 0.593592 0.0309976
vn 0 -0.9998919 -0.0147057
v 0 0.250702 0.198995
vt 0.470838 0.0695416
vn 0 -0.8590838 0.5118349
v -0.1371 0.554393 -0.052218
vn -0.5950438 0.7344958 -0.3262498
v 0 0.622165 -0.00344635
vt 0.872968 0.241245
vn 0 0.982655 -0.185443
v -0.144776 0.320549 -0.084821
vn -0.4317468 -0.7084067 -0.5583498
v 0 0.622934 0.1102
vt 0.740613 0.267048
vn 0 0.9694952 0.2451101
v -0.111942 0.594888 0.1102
vn -0.446409 0.8738899 0.192446
v -0.180879 0.529889 0.1102
vn -0.83058 0.408741 0.378243
v -0.0959992 0.245273 0.0852462
vn -0.3924352 -0.9174234 0.06579562
v -0.195339 0.425219 -0.0830097
vn -0.895838 0.0133885 -0.444179
v -0.171948 0.297838 0.0852462
vn -0.8588432 -0.4717001 0.199718
v -0.202128 0.425891 0.0686515
vn -0.9707949 -0.0458365 0.235492
v -0.0760692 0.221537 -0.068394
vt 0.904913 0.378986
vn -0.405954 -0.293547 -0.8654661
v -0.1307114 0.2342436 0.0165695
vt 0.836611 0.332904
vn -0.9728673 0.1309456 -0.1907421
v -0.0864623 0.263134 0.00261202
vt 0.891922 0.347844
vn -0.3819919 0.8902867 -0.2479349
v -0.0475006 0.153243 0.103802
vt 0.940624 0.263217
vn -0.3298399 -0.9427537 0.04920369
v 0 0.248215 -0.063265
vt 1 0.382368
vn 0 0.740905 -0.6716099
v 0.0475006 0.153243 0.103802
vt 1.05938 0.263217
vn 0.2089889 -0.9769425 0.04366988
v 0.0760692 0.221537 -0.068394
vt 1.09509 0.378986
vn 0.534193 -0.233155 -0.812574
v -0.0882992 0.241138 0.101661
vt 0.889626 0.285366
vn -0.3589149 0.7535248 0.5507999
v -0.122306 0.196656 0.0893447
vt 0.847117 0.281902
vn -0.7477971 -0.2830311 0.6005772
v 0.0864623 0.263134 0.00261202
vt 1.10808 0.347844
vn 0.3819919 0.8902867 -0.2479349
v 0 0.280496 -0.0158034
vt 1 0.362618
vn 0 0.9971149 -0.07590719
v 0 0.173131 0.144662
vt 1 0.244334
vn 0 -0.262753 0.9648631
v 0.122306 0.196656 0.0893447
vt 1.15288 0.281902
vn 0.7899357 -0.4424649 0.4245309
v 0.0882992 0.241138 0.101661
vt 1.11037 0.285366
vn 0.3589149 0.7535248 0.5507999
v 0.1307114 0.2342436 0.01656953
vt 1.16339 0.332904
vn 0.8840209 0.459687 -0.08482383
v 0 0.209871 -0.0931913
vt 0.164333 0.499786
vn 0 0.8048857 -0.5934299
v -0.0831144 0.122043 -0.105244
vt 0.152786 0.505071
vn -0.6882151 0.06523331 -0.722568
v -0.08827043 0.2136511 -0.04296772
vt 0.150591 0.497098
vn 0.04177038 0.8333128 -0.5512214
v 0 0.14031 -0.128019
vt 0.164333 0.504975
vn 0 0.651418 -0.7587191
v 0 0.233888 -0.026205
vt 0.164333 0.495128
v 0.0831144 0.122043 -0.105244
vt 0.175879 0.505071
vn 0.6882151 0.06523361 -0.722568
v 0.08827042 0.2136511 -0.04296759
vt 0.178074 0.497098
vn -0.04177015 0.8333129 -0.5512213
v 0 0.0963663 -0.181609
vt 0.164333 0.509501
vn 0 -0.3932729 -0.9194218
v -0.09526867 0.2240743 0.02597768
vt 0.150316 0.491868
vn -0.0924999 0.9730521 0.2112183
v 0.09526867 0.2240743 0.02597771
vt 0.17835 0.491868
vn 0.09250015 0.9730521 0.2112186
v -0.1165699 0.1793856 -0.02565497
vt 0.226613 0.887556
vn -0.8283821 -0.5479322 0.116419
vt 0.467107 0.880111
v -0.0831144 0.078098 -0.0649993
vt 0.458725 0.947212
vn -0.6553372 -0.6118361 -0.4429331
v -0.3166739 0.286937 -0.1014468
vt 0.0494282 0.626784
vn -0.5296775 -0.8114671 0.2469069
v -0.117918 0.117076 0.040469
vt 0.209759 0.99104
vn -0.8716763 -0.3691201 0.3223831
v -0.1479883 0.2120505 0.04466136
vt 0.0359498 0.895439
vn -0.6601573 0.03909504 0.7501093
v -0.0952692 0.171789 0.0950386
vt 0.0305001 0.987885
vn -0.655264 0.190488 0.730988
vn 0.2695054 0.9502758 -0.1560218
vt 0.564646 0.760924
vt 0.644736 0.68742
vt 0.589893 0.626154
vt 0.780007 0.612167
v 0 0.246963 0.0856838
vt 0.150868 0.464227
vn 0 0.8452445 0.5343797
vt 0.150868 0.472968
vt 0.135982 0.468892
vt 0.165754 0.468892
vt 0.135982 0.463496
v 0.0952692 0.171789 0.0950386
vt 0.165754 0.463496
vn 0.655264 0.190488 0.730988
v 0 0.148006 0.128857
vt 0.150868 0.460854
vn 0 -0.09834009 0.9951529
v 0 0.0673586 0.0689338
vt 0.150868 0.465536
vn -0.0001360481 -0.7288303 0.6846943
vt 0.132443 0.46776
v 0.117918 0.117076 0.0404691
vt 0.169293 0.46776
vn 0.8717023 -0.3690351 0.3224101
v 0.043319 0.314971 0.273307
vt 0.726286 0.808972
vn 0.8462481 -0.281992 0.4520451
v 0 0.275864 0.308233
vt 0.638971 0.760089
vn 0 -0.69607 0.7179739
v 0 0.282319 0.267595
vt 0.740564 0.768157
vn 0 -0.9999768 0.006814279
v 0 0.326857 0.301381
vt 0.6561 0.823829
vn 0 0.4040201 0.9147502
v 0 0.273384 0.214812
vt 0.872521 0.756988
vn 0 -0.9701747 0.2424069
v 0 0.371479 0.26399
vt 0.749577 0.879607
vn 0 0.8283096 0.5602707
v 0.0650862 0.303649 0.203705
vt 0.900289 0.794819
vn 0.9301593 -0.1797591 0.3201411
v -0.043319 0.314971 0.273307
vn -0.8462481 -0.281992 0.4520451
v -0.0650862 0.303649 0.203705
vn -0.9301593 -0.1797591 0.3201411
v 0.1165699 0.1793856 -0.02565486
vn 0.8283821 -0.5479324 0.1164188
v 0.316674 0.286937 -0.1014457
vn 0.529677 -0.8114676 0.2469061
v 0.0831144 0.078098 -0.0649993
vn 0.6553279 -0.6117529 -0.4430619
v 0.1479883 0.2120505 0.0446615
vn 0.6601574 0.03909466 0.7501091
vn -0.2695047 0.9502761 -0.1560209
vt 0.779985 0.612161
v 0.0441001 0.643765 0.277935
vt 1.11025 0.646363
vn 0.9447502 0.10015 -0.3121171
v -0.0441001 0.643765 0.277935
vt 0.88975 0.646363
vn -0.9547381 0.101208 0.2797
v 0 0.753227 0.256757
vt 1 0.78319
vn 0 0.6616797 0.7497866
v -0.0385985 0.539877 0.277935
vt 0.903504 0.516503
vn -0.6098341 -0.10799 -0.7851372
v 0 0.650564 0.303194
vt 1 0.654862
vn 0 0.230831 0.9729939
v 0.0385985 0.539877 0.277935
vt 1.0965 0.516503
vn 0.929316 -0.164564 -0.330591
v 0 0.552608 0.307275
vt 1 0.532417
vn 0 -0.152762 0.988263
v 0 0.448503 0.256757
vt 1 0.402286
vn 0 -0.6651049 0.7467499
v 0 0.141939 -0.260012
vt 1 0.894621
vn 0 0.9624116 0.2715949
v -0.0829391 0.139627 -0.325221
vt 0.792652 0.971254
vn -0.140716 0.9794858 0.144245
v -0.0829391 0.127468 -0.279926
vt 0.792652 0.91271
vn -0.2463779 0.8926657 0.3774199
v 0 0.144612 -0.340994
vt 1 0.99193
vn 0 0.999456 0.0329791
v 0 0.0993138 -0.188763
vt 1 0.793457
vn 0 0.8581505 0.5133983
v 0.0829391 0.139627 -0.325221
vn 0.140716 0.9794858 0.144245
v 0.0829391 0.127468 -0.279926
vn 0.2463779 0.8926657 0.3774199
v 0 0.502924 0.223515
vt 0.0425706 0.336975
vn 0 0.13651 0.9906387
v -0.0822646 0.491816 0.205349
vt 0.241174 0.318777
vn -0.4584957 0.1874459 0.8687035
v 0 0.378718 0.267398
vt 0.0115017 0.18242
vn 0 0.04278018 0.9990845
vt 0.0482969 0.406015
v 0.0822646 0.491816 0.205349
vn 0.4584949 0.187446 0.8687039
vt 0.568161 0.368678
v -0.150821 0.431978 0.160375
vt 0.433908 0.251407
vn -0.7413501 -0.0176631 0.670886
v 0.150821 0.431978 0.160375
vn 0.7413501 -0.0176631 0.670886
vt 0.684277 0.239331
vt 0.580604 0.089749
v 0.0964922 0.317877 0.201292
vt 0.284015 0.124257
vn 0.576013 -0.437276 0.690651
vt 0.456092 0.00692508
vt 0.140968 0.0226521
v 0 0.312314 0.249511
vt 0.0513263 0.102807
vn 0 -0.4599881 0.8879251
v -0.0964921 0.317877 0.201292
vn -0.576014 -0.4372761 0.69065
v 0 0.125449 -0.263177
vt 1 0.892017
vn 0 -0.9572585 -0.2892339
vn 0 -0.9691265 -0.2465641
vn -0.03137551 -0.9567873 -0.2890911
vn 0.03137551 -0.9567873 -0.2890911
vn 0 -0.9435012 -0.3313691
vn -0.01877419 -0.9689556 -0.2465209
vn 0.01877419 -0.9689556 -0.2465209
vt 0.101833 0.507741
vt 0.0888462 0.498631
vt 0.0888462 0.501775
v 0 0.0380772 -0.0419025
vt 0.101833 0.496826
vn -0.000181531 -0.9343998 -0.3562259
vt 0.11482 0.498631
vt 0.11482 0.501775
v -0.0537571 0.00456437 0
vt 0.579676 0.465815
vn -0.3096889 -0.9494537 0.05128938
vt 0.499942 0.594338
vt 0.826703 0.582025
vt 0.389875 0.462028
vt 0.828255 0.434853
vt 0.624783 0.373501
v 0.0537465 0.00450013 0
vt 0.57966 0.465795
vn 0.3025661 -0.9529642 -0.017691
vt 0.826772 0.582109
vt 0.828362 0.434981
vt 0.624826 0.373553
o polySurface1_0_0_node
g polygon_0
usemtl lambert3_mat_id
f 1/1/1 2/2/2 3/3/3
f 1/1/1 4/4/4 2/2/2
f 1/1/1 3/3/3 5/5/5
f 1/1/1 6/6/6 4/4/4
f 1/1/1 5/5/5 7/7/7
f 1/1/1 8/8/8 6/6/6
f 1/1/1 7/7/7 8/8/8
f 2/2/2 9/9/9 3/3/3
f 2/2/2 4/4/4 10/10/10
f 2/2/2 11/11/11 9/9/9
f 2/2/2 10/10/10 11/11/11
f 5/5/5 12/12/12 7/7/7
f 5/5/5 3/3/3 13/3/13
f 5/5/5 14/5/14 12/12/12
f 5/5/5 13/3/13 14/5/14
f 3/3/3 9/9/9 13/3/13
f 8/8/8 7/7/7 15/13/15
f 8/8/8 15/13/15 16/14/16
f 10/10/10 17/15/17 11/11/11
f 10/10/10 18/16/18 17/15/17
f 12/12/12 14/5/14 19/7/19
f 12/12/12 20/17/20 7/7/7
f 12/12/12 19/7/19 20/17/20
f 7/7/7 20/17/20 15/13/15
f 9/9/9 21/2/21 13/3/13
f 9/9/9 11/11/11 21/2/21
f 16/14/16 15/13/15 22/18/22
f 16/14/16 22/18/22 23/13/23
f 16/14/16 23/13/23 24/8/24
f 23/13/23 19/7/19 24/8/24
f 23/13/23 22/18/22 20/17/20
f 23/13/23 20/17/20 19/7/19
f 20/17/20 22/18/22 15/13/15
f 18/16/18 25/10/25 17/15/17
f 11/11/11 25/10/25 21/2/21
f 11/11/11 17/15/17 25/10/25
f 14/5/14 13/3/13 26/1/26
f 14/5/14 26/1/26 19/7/19
f 19/7/19 26/1/26 24/8/24
f 13/3/13 21/2/21 26/1/26
f 25/10/25 27/4/27 21/2/21
f 21/2/21 27/4/27 26/1/26
f 24/8/24 26/1/26 28/6/28
f 28/6/28 26/1/26 27/4/27
f 29/19/29 30/20/30 31/21/31
f 29/19/29 32/22/32 30/20/30
f 29/19/29 31/21/31 33/23/33
f 29/19/29 34/24/34 32/22/32
f 29/19/29 33/23/33 35/25/35
f 29/19/29 35/25/35 34/24/34
f 30/20/30 36/26/36 31/21/31
f 30/20/30 32/22/32 37/27/37
f 30/20/30 37/27/37 36/26/36
f 33/23/33 38/28/38 35/25/35
f 33/23/33 31/21/31 39/29/39
f 33/23/33 39/29/39 38/28/38
f 31/21/31 36/26/36 39/29/39
f 34/24/34 40/30/40 32/22/32
f 34/24/34 35/25/35 41/31/41
f 34/24/34 41/31/41 40/30/40
f 37/27/37 40/30/40 36/26/36
f 37/27/37 32/22/32 40/30/40
f 38/28/38 39/29/39 42/32/42
f 38/28/38 43/33/43 35/25/35
f 38/28/38 42/32/42 43/33/43
f 42/32/42 40/30/40 41/31/41
f 42/32/42 39/29/39 36/26/36
f 42/32/42 41/31/41 43/33/43
f 42/32/42 36/26/36 40/30/40
f 43/33/43 41/31/41 35/25/35
f 44/34/44 45/35/45 46/36/46
f 44/34/44 47/37/47 45/35/45
f 44/34/44 46/36/46 48/38/20
f 44/34/44 49/39/48 47/37/47
f 44/34/44 48/38/20 50/40/49
f 44/34/44 50/40/49 49/39/48
f 45/35/45 47/37/47 51/41/50
f 51/41/50 47/37/47 49/39/48
f 46/36/46 52/42/51 48/38/20
f 50/40/49 48/38/20 53/43/52
f 54/44/53 45/45/45 55/46/54
f 54/44/53 56/47/55 45/45/45
f 54/44/53 55/46/54 57/48/56
f 54/44/53 58/49/57 56/47/55
f 54/44/53 57/48/56 59/50/58
f 54/44/53 59/50/58 58/49/57
f 45/45/45 56/47/59 46/51/46
f 56/47/59 52/52/51 46/51/46
f 56/47/59 58/53/57 52/52/51
f 58/53/57 59/54/58 52/52/51
f 60/55/60 48/56/20 52/57/51
f 60/55/60 53/58/52 48/56/20
f 60/55/60 52/57/51 59/59/58
f 60/55/60 61/60/61 53/58/52
f 60/55/60 59/59/58 62/61/62
f 60/55/60 62/61/62 61/60/61
f 59/59/58 63/62/63 62/61/62
f 59/59/58 57/63/56 63/62/63
f 62/61/62 63/62/63 61/60/61
f 63/62/63 64/64/64 61/60/61
f 65/65/65 66/66/66 67/67/67
f 65/65/65 68/68/68 66/66/66
f 65/65/65 67/67/67 69/69/69
f 65/65/65 70/70/70 68/68/68
f 65/65/65 69/69/69 71/71/71
f 65/65/65 71/71/71 70/70/70
f 66/66/66 72/65/72 67/67/67
f 66/66/66 68/68/68 72/65/72
f 68/68/68 70/70/70 72/65/72
f 67/67/67 72/65/72 69/69/69
f 70/70/70 73/71/73 72/65/72
f 72/65/72 73/71/73 69/69/69
f 74/44/74 49/45/48 75/47/75
f 74/44/74 76/46/76 49/45/48
f 74/44/74 75/47/75 77/49/77
f 74/44/74 64/48/64 76/46/76
f 74/44/74 77/49/77 61/50/61
f 74/44/74 61/50/61 64/48/64
f 49/45/48 50/51/49 75/47/78
f 50/51/49 53/52/52 75/47/78
f 53/52/52 77/53/77 75/47/78
f 53/52/52 61/72/61 77/53/77
f 78/73/79 79/74/80 80/75/81
f 78/73/79 81/76/82 79/74/80
f 78/73/79 80/75/81 82/77/83
f 78/73/79 83/78/84 81/76/82
f 78/73/79 82/77/83 84/79/85
f 78/73/79 84/79/85 83/78/84
f 79/74/80 82/77/83 80/75/81
f 79/74/80 81/76/82 84/79/85
f 79/74/80 84/79/85 82/77/83
f 83/78/84 85/80/86 81/76/82
f 83/78/84 84/79/85 85/80/86
f 85/80/86 84/79/85 81/76/82
f 86/81/87 87/82/88 88/83/89
f 86/81/87 89/84/90 87/82/88
f 86/81/87 88/83/89 90/85/91
f 86/81/87 91/82/92 89/84/90
f 86/81/87 90/85/91 92/83/93
f 86/81/87 92/83/93 91/82/92
f 93/86/94 94/87/95 95/88/96
f 93/86/94 16/89/16 94/87/95
f 93/86/94 95/88/96 96/87/97
f 93/86/94 96/87/97 16/89/16
f 94/87/95 16/89/16 24/90/24
f 94/87/95 24/90/24 97/91/98
f 96/87/97 8/90/8 16/89/16
f 96/87/97 98/91/99 8/90/8
f 24/90/24 28/92/28 97/91/98
f 98/91/99 6/92/6 8/90/8
f 98/91/99 4/93/4 6/92/6
f 98/91/99 99/94/100 4/93/4
f 28/92/28 27/93/27 97/91/98
f 99/94/100 10/95/10 4/93/4
f 99/94/100 18/96/18 10/95/10
f 99/94/100 100/97/101 18/96/18
f 27/93/27 101/94/102 97/91/98
f 27/93/27 25/95/25 101/94/102
f 101/94/102 18/96/18 100/97/101
f 101/94/102 25/95/25 18/96/18
f 102/98/103 89/84/104 92/83/105
f 102/98/103 88/83/106 89/84/104
f 102/98/103 92/83/105 90/85/107
f 102/98/103 90/85/107 88/83/106
f 89/84/104 91/82/108 92/83/105
f 89/84/104 88/83/106 87/82/109
f 51/99/50 55/100/54 45/101/45
f 51/99/50 103/102/110 55/100/54
f 51/99/50 76/103/76 103/102/110
f 51/99/50 49/104/48 76/103/76
f 104/105/111 63/106/63 57/107/56
f 104/105/111 103/108/110 63/106/63
f 104/105/111 57/107/56 55/109/54
f 104/105/111 55/109/54 103/110/110
f 103/108/110 105/111/112 63/106/63
f 105/111/112 64/112/64 63/106/63
f 105/111/112 76/113/76 64/112/64
f 105/111/112 103/114/110 76/113/76
vt 0.867816 0.938907
vt 0.568031 0.811758
vt 0.0230036 0.86992
vt 0.102653 0.790307
vt 0.482347 1.00628
o polySurface1_1_0_node
g polygon_0
usemtl TEX_ANIM_EYE_mat_id
f 97/115/98 101/116/102 95/117/96
f 101/116/102 100/118/101 95/117/96
f 98/115/99 95/117/96 99/116/100
f 100/118/101 99/116/100 95/117/96
f 97/115/98 95/117/96 94/119/95
f 98/115/99 96/119/97 95/117/96
