mtllib Chikorita.mtl
v 0 0.04581015 -0.1559112
vt 0.938038 0.292835
vn 0 -0.3907092 -0.9205142
v -0.10774 -1.085588E-05 -0.1195933
vt 0.938038 0.0200016
vn -0.3807805 -0.657241 -0.6504156
v -0.116124 0.1124682 -0.09538397
vt 0.938038 0.466618
vn -0.8171478 0.1432431 -0.5583465
v 0 0.0311947 0.00663999
vt 0.938038 0.268989
vn 0 -0.9999228 0.0124323
v 0 0.1124682 -0.1585469
vn 0 0.1264129 -0.9919778
v 0.10774 -1.085588E-05 -0.1195933
vn 0.3807814 -0.6572407 -0.6504154
v 0.116124 0.1124682 -0.09538397
vn 0.8171486 0.1432431 -0.5583454
v -0.111647 0.03966291 -0.02854376
vt 0.938038 0.17751
vn -0.873945 -0.4778531 0.08874938
v 0.111647 0.03966291 -0.02854366
vn 0.8739451 -0.4778531 0.08874929
v -0.10774 -9.496686E-06 0.115355
vn -0.3017048 -0.9113626 0.2799866
v -0.111647 0.04440286 0.0483366
vt 0.938038 0.196331
vn -0.9034534 -0.4094146 -0.1270891
v 0 0.04549504 0.1567946
vt 0.938038 0.271381
vn 0 -0.8268226 0.5624629
v 0.10774 -9.496686E-06 0.115355
vn 0.3017048 -0.9113626 0.2799866
v 0.111647 0.04440286 0.0483366
vn 0.9034534 -0.4094146 -0.1270891
vt 0.951195 0.300431
v -0.127191 0.122101 0.128308
vn -0.9492989 -0.163022 0.268804
v 0.0669585 0.115021 0.183532
vn 0.395703 -0.320085 0.8607931
v -0.0669585 0.115021 0.183532
vn -0.395703 -0.320085 0.8607931
v 0 0.116515 0.189505
vn 0 -0.3458179 0.9383016
v 0.127191 0.122101 0.128308
vn 0.9492989 -0.163022 0.268804
v -0.0469097 0.181872 -0.114967
vn -0.4738488 0.6815037 -0.5576918
v 0.0469097 0.181872 -0.114967
vn 0.485228 0.667355 -0.56497
v 0 0.147171 -0.154474
vn 0 -0.0112866 -0.9999363
v 0 0.190467 -0.163075
vn 0 0.8211846 -0.5706627
v 0.142953 0.271091 0.0792452
vt 0.956637 0.9527
vn 0.9995826 0.008250818 0.02768579
v 0.130387 0.227643 0.15058
vn 0.7630287 0.0110139 0.6462708
v 0.130606 0.175337 0.140292
vn 0.9199392 -0.123499 0.3721021
v 0.130387 0.352146 0.14271
vn 0.783527 0.183439 0.593663
v 0.138027 0.218586 0.0175102
vn 0.9209133 -0.04759052 -0.3868512
v 0.131818 0.371485 0.0621262
vn 0.9140005 0.3886408 -0.1164539
v 0.130387 0.300832 0.00711518
vn 0.8379555 0.09230235 -0.5378763
v 0.0567363 0.176488 0.205081
vn 0.2606539 -0.1818819 0.9481447
v 0.0546031 0.227643 0.212949
vn 0.284638 0.0103684 0.958579
v 0.0883496 0.404823 0.132572
vn 0.4944679 0.7498009 0.4396589
v 0.0546031 0.352146 0.205079
vn 0.3218579 0.1703729 0.9313327
v 0.0496826 0.24696 -0.0582488
vn 0.350523 0.0341307 -0.935932
v 0.0805836 0.430715 0.0621262
vn 0.4554352 0.8881043 -0.06204472
v 0.0883496 0.389556 -0.0108704
vn 0.5929667 0.5246108 -0.6108797
v 0 0.398754 0.17461
vn 0 0.7301809 0.6832539
v -0.0546031 0.352146 0.205079
vn -0.3218579 0.1703729 0.9313327
v 0.0546031 0.325694 -0.0562687
vn 0.348314 0.144968 -0.9261002
v -0.0496826 0.24696 -0.0582488
vn -0.3499839 0.03349569 -0.9361567
v 0 0.440536 0.116729
vn 0 0.9554089 0.295286
v 0 0.440536 0.00752315
vn 0 0.9340708 -0.3570879
v -0.0883496 0.404823 0.132572
vn -0.4944679 0.7498009 0.4396589
v -0.130387 0.352146 0.14271
vn -0.783527 0.183439 0.593663
v -0.0546031 0.325694 -0.0562687
vn -0.3434421 0.143318 -0.9281743
v -0.130387 0.300832 0.00711518
vn -0.8379558 0.09230228 -0.5378759
v -0.138027 0.218586 0.0175102
vn -0.9209133 -0.04759032 -0.3868512
v 0 0.394882 -0.0416891
vn 0 0.522071 -0.852902
v -0.131818 0.371485 0.0621262
vn -0.9140005 0.3886408 -0.1164539
v -0.142953 0.271091 0.0792452
vn -0.9995826 0.008250888 0.02768579
v -0.130387 0.227643 0.15058
vn -0.7630287 0.0110139 0.6462708
v -0.0805836 0.430715 0.0621262
vn -0.4554352 0.8881043 -0.06204462
v -0.130606 0.175337 0.140292
vn -0.9199392 -0.123499 0.3721021
v -0.0883496 0.389556 -0.0108704
vn -0.5929667 0.5246108 -0.6108797
v -0.0567363 0.176488 0.205081
vn -0.2606539 -0.1818819 0.9481447
v -0.0546031 0.227643 0.212949
vn -0.284638 0.0103684 0.958579
v -0.0880228 0.549156 -0.125053
vt 0.82607 0.482962
vn -0.1220369 0.9609665 0.2482949
v 0.018866 0.465365 0.103392
vt 0.763589 0.185308
vn 0.1151779 -0.3299159 0.9369576
v 0.0838786 0.552671 -0.13803
vt 0.82607 0.0201616
vn 0.122857 0.9646811 0.233016
v -0.025185 0.465162 0.104141
vt 0.763589 0.33569
vn 0.0128529 -0.331237 0.94346
v 0.00244576 0.550121 -0.289777
vt 0.862159 0.249681
vn -0.06946982 0.132584 -0.9887342
v -0.0880228 0.529169 -0.132186
vn -0.130166 -0.9623169 -0.238753
v 0.0838786 0.532684 -0.145163
vn 0.140767 -0.9634464 -0.2279381
v -0.129712 0.166396 0.00945109
vn -0.9743263 -0.002578681 -0.2251261
v -0.0550414 0.192544 -0.0617081
vn -0.4226529 0.5927399 -0.6855829
v 0.0550414 0.192544 -0.0617081
vn 0.4248939 0.5701288 -0.7031488
v 0.129712 0.166396 0.00945111
vn 0.9743263 -0.002578921 -0.2251261
vt 0.721697 0.951532
vt 0.761641 0.693043
vt 1.09688 0.871036
vt 0.500116 0.709979
vt 0.278535 0.951532
vt 0.238591 0.693043
vt -0.0966494 0.871036
vt 0.147625 0.70022
vt 0.155957 0.905466
vt -0.174009 0.71698
vt 0.670992 0.909596
vt 0.650555 0.711237
vt 0.240866 0.0979134
vt -0.232127 0.31523
vt -0.241189 0.0979134
vt 0.231804 0.31523
vt 0.306265 0.924977
vt 0.711296 0.714888
vt 0.689866 0.926324
vt 0.28632 0.713397
vt -0.0424362 0.921989
vt 0.360256 0.717213
vt -0.0481213 0.717277
vt 0.410299 0.921989
vt 0.35857 0.440983
vt 0.481072 0.440983
o merged_0_0_node
g polygon_0
usemtl lambert3_mat_id
f 1/1/1 2/2/2 3/3/3
f 1/1/1 4/4/4 2/2/2
f 1/1/1 3/3/3 5/3/5
f 1/1/1 6/2/6 4/4/4
f 1/1/1 5/3/5 7/3/7
f 1/1/1 7/3/7 6/2/6
f 2/2/2 8/5/8 3/3/3
f 2/2/2 4/4/4 8/5/8
f 7/3/7 9/5/9 6/2/6
f 6/2/6 9/5/9 4/4/4
f 4/4/4 10/2/10 11/6/11
f 4/4/4 12/7/12 10/2/10
f 4/4/4 13/2/13 12/7/12
f 4/4/4 14/6/14 13/2/13
f 4/4/4 11/8/11 8/8/8
f 4/4/4 9/8/9 14/8/14
f 11/6/11 10/2/10 15/3/15
f 12/7/12 13/2/13 16/3/16
f 12/7/12 17/3/17 10/2/10
f 12/7/12 16/3/16 18/3/18
f 12/7/12 18/3/18 17/3/17
f 17/3/17 15/3/15 10/2/10
f 14/6/14 19/3/19 13/2/13
f 13/2/13 19/3/19 16/3/16
f 11/8/11 3/8/3 8/8/8
f 11/8/11 15/8/15 3/8/3
f 9/8/9 7/8/7 14/8/14
f 3/8/3 20/8/20 5/8/5
f 7/8/7 19/8/19 14/8/14
f 7/8/7 5/8/5 21/8/21
f 20/8/20 22/8/22 5/8/5
f 20/8/20 21/8/21 23/8/23
f 20/8/20 23/8/23 22/8/22
f 22/8/22 21/8/21 5/8/5
f 22/8/22 23/8/23 21/8/21
f 24/9/24 25/9/25 26/9/26
f 24/9/24 27/9/27 25/9/25
f 24/9/24 26/9/26 28/9/28
f 24/9/24 29/9/29 27/9/27
f 24/9/24 28/9/28 30/9/30
f 24/9/24 30/9/30 29/9/29
f 25/9/25 31/9/31 26/9/26
f 25/9/25 32/9/32 31/9/31
f 27/9/27 29/9/29 33/9/33
f 27/9/27 33/9/33 34/9/34
f 28/9/28 35/9/35 30/9/30
f 29/9/29 36/9/36 33/9/33
f 29/9/29 30/9/30 37/9/37
f 29/9/29 37/9/37 36/9/36
f 34/9/34 33/9/33 38/9/38
f 34/9/34 38/9/38 39/9/39
f 35/9/35 40/9/40 30/9/30
f 35/9/35 41/9/41 40/9/40
f 30/9/30 40/9/40 37/9/37
f 36/9/36 42/9/42 33/9/33
f 36/9/36 37/9/37 43/9/43
f 36/9/36 43/9/43 42/9/42
f 33/9/33 42/9/42 38/9/38
f 39/9/39 38/9/38 44/9/44
f 39/9/39 44/9/44 45/9/45
f 38/9/38 42/9/42 44/9/44
f 41/9/41 46/9/46 40/9/40
f 41/9/41 47/9/47 46/9/46
f 41/9/41 48/9/48 47/9/47
f 37/9/37 49/9/49 43/9/43
f 37/9/37 40/9/40 49/9/49
f 40/9/40 46/9/46 49/9/49
f 45/9/45 44/9/44 50/9/50
f 45/9/45 50/9/50 51/9/51
f 45/9/45 51/9/51 52/9/52
f 42/9/42 43/9/43 53/9/53
f 42/9/42 53/9/53 44/9/44
f 44/9/44 53/9/53 50/9/50
f 48/9/48 51/9/51 47/9/47
f 48/9/48 54/9/54 51/9/51
f 51/9/51 54/9/54 52/9/52
f 51/9/51 50/9/50 47/9/47
f 46/9/46 55/9/55 49/9/49
f 46/9/46 47/9/47 55/9/55
f 55/9/55 43/9/43 49/9/49
f 55/9/55 53/9/53 43/9/43
f 55/9/55 50/9/50 53/9/53
f 55/9/55 47/9/47 50/9/50
f 54/9/54 56/9/56 52/9/52
f 56/9/56 57/9/57 52/9/52
f 58/10/58 59/11/59 60/12/60
f 58/10/58 61/13/61 59/11/59
f 58/10/58 60/12/60 62/14/62
f 58/10/58 63/10/63 61/13/61
f 58/10/58 62/14/62 63/10/63
f 61/13/61 63/10/63 59/11/59
f 60/12/60 64/12/64 62/14/62
f 60/12/60 59/11/59 64/12/64
f 64/12/64 63/10/63 62/14/62
f 64/12/64 59/11/59 63/10/63
f 20/9/20 3/9/3 65/9/65
f 20/9/20 65/9/65 66/9/66
f 20/9/20 66/9/66 67/9/67
f 20/9/20 67/9/67 21/9/21
f 3/9/3 15/9/15 65/9/65
f 67/9/67 68/9/68 21/9/21
f 68/9/68 7/9/7 21/9/21
f 68/9/68 19/9/19 7/9/7
f 31/15/31 16/16/16 26/17/26
f 31/15/31 18/18/18 16/16/16
f 31/15/31 56/19/56 18/18/18
f 56/19/56 17/20/17 18/18/18
f 56/19/56 54/21/54 17/20/17
f 19/22/19 26/23/26 16/24/16
f 19/22/19 28/25/28 26/23/26
f 19/22/19 68/26/68 28/25/28
f 15/22/15 54/23/54 48/25/48
f 15/22/15 17/24/17 54/23/54
f 15/22/15 48/25/48 65/26/65
f 31/27/31 57/28/57 56/29/56
f 31/27/31 32/30/32 57/28/57
f 35/31/35 66/32/66 41/33/41
f 35/31/35 67/34/67 66/32/66
f 48/35/48 66/36/66 65/37/65
f 48/35/48 41/38/41 66/36/66
f 28/35/28 67/36/67 35/38/35
f 28/35/28 68/37/68 67/36/67
f 34/39/34 57/40/57 32/39/32
f 34/39/34 39/40/39 57/40/57
vt 0.932872 1.01865
vt 0.23398 1.01865
vt 0.932872 0.764734
vt 0.23398 0.764734
o merged_1_0_node
g polygon_0
usemtl TEX_ANIM_EYE_mat_id
f 27/41/27 34/42/34 25/43/25
f 25/43/25 34/42/34 32/44/32
f 57/44/57 39/42/39 52/43/52
f 52/43/52 39/42/39 45/41/45
