mtllib Mawile_Normal.mtl
v 0 0.172858 -0.406226
vt 0.554436 0.957911
vn 0 -0.7110512 0.7031403
v -0.144465 0.194266 -0.432994
vn -0.607707 -0.5963339 0.5244789
v -0.107881 0.06133623 -0.567108
vn -0.463903 -0.875953 0.132289
v -0.168378 0.373329 -0.287523
vn -0.6467589 -0.488335 0.58586
v 0.107881 0.06133623 -0.567108
vn 0.463903 -0.875953 0.132289
v 0 0.351765 -0.255385
vn 0 -0.606132 0.7953641
v 0.144465 0.194266 -0.432994
vn 0.607707 -0.5963339 0.5244789
v 0.168378 0.373329 -0.287523
vn 0.6467589 -0.488335 0.58586
v -0.133443 0.490895 -0.1777
vn -0.5636041 -0.285955 0.7749711
v 0.133443 0.490895 -0.1777
vn 0.5636041 -0.285955 0.7749711
v 0 0.576831 -0.0687022
vn 0 0.0138739 0.9999037
v 0.0939924 0.605384 -0.221078
vn 0.4764701 0.8748351 -0.08740601
v -0.0939924 0.605384 -0.221078
vn -0.4764701 0.8748351 -0.08740591
v -0.0573382 0 0
vt 0.71054 0.512569
vn 0.02832091 -0.9995913 0.003890571
v 0 0.0214364 0.0708323
vt 0.71054 0.56836
vn 0.00101911 -0.811357 0.58455
v -0.0569172 0.0214364 0.105159
vn -0.1755631 -0.5177232 0.8373412
v 0.000901151 0.0214364 -0.0706546
vn -0.00183441 -0.8072951 -0.5901451
v -0.131596 0.0214364 0.04101921
vn -0.8205131 -0.4136991 0.3944761
v -0.0554615 0.0214364 -0.117336
vn -0.080713 -0.481443 -0.8727531
v -0.14 0.0214364 -0.0589808
vn -0.8243068 -0.3827739 -0.4171359
v 0.0573382 0 0
vn -0.02941968 -0.9995605 0.003650248
v 0.0569174 0.0214364 0.105159
vn 0.175564 -0.517723 0.8373411
v 0.0563628 0.0214364 -0.117472
vn 0.08301317 -0.4801168 -0.8732678
v 0.131596 0.0214364 0.04101921
vn 0.8205128 -0.4136999 0.3944759
v 0.14 0.0214364 -0.0589808
vn 0.8256 -0.3849199 -0.4125789
v 0 0.229951 0
vt 0.784337 0.76084
vn 0 1 0.000165358
v 0.0413724 0.21663 -0.0617023
vt 0.797825 0.77418
vn 0.4421358 0.3658579 -0.8189407
v -0.0413721 0.21663 -0.0617024
vt 0.770848 0.77418
vn -0.4430759 0.3638259 -0.8193378
v 0.0827445 0.21663 0.000124233
vt 0.811314 0.760813
vn 0.777671 0.488889 -0.395241
v -0.0827443 0.21663 0.000124233
vt 0.75736 0.760813
vn -0.7772048 0.4872109 -0.3982189
v 0.0413723 0.21663 0.0605753
vt 0.797825 0.747744
vn 0.0219084 0.4693529 0.8827388
v -0.0413722 0.21663 0.0605753
vt 0.770848 0.747744
vn -0.02190851 0.4693522 0.8827392
v -0.0553728 0.0992336 -0.0870518
vt 0.817481 0.77969
vn -0.4328488 0.2517519 -0.8655997
v 0.0562741 0.0992336 -0.0871881
vt 0.854175 0.77969
vn 0.435353 0.252687 -0.8640701
v 0.056274 0.0884927 0.0843436
vt 0.802684 0.742605
vn 0.1376851 0.02173771 0.9902375
v -0.0562739 0.0884927 0.0843436
vt 0.76599 0.742605
vn -0.1376849 0.02173779 0.9902375
v 0.107033 0.0884927 0
vt 0.819233 0.76084
vn 0.9462397 0.1713089 -0.2743789
v -0.107033 0.0884927 0
vt 0.749441 0.76084
vn -0.9453665 0.1711979 -0.2774409
v 0.109657 0.485832 -0.11233
vt 0.795377 0.760671
vn 0.5627279 0.6148139 -0.5525769
v 0.161833 0.38633 -0.102456
vt 0.791301 0.741169
vn 0.855696 0 -0.517479
v 0.067772 0.38633 -0.181753
vt 0.824036 0.741169
vn 0.3653229 0 -0.9308808
v 0.177429 0.447825 0
vt 0.749005 0.753222
vn 0.93209 0.355235 0.0708252
v 0 0.477085 -0.165777
vt 0.817441 0.758957
vn 0 0.566545 -0.8240309
v 0.100019 0.533175 0
vt 0.749005 0.76995
vn 0.49996 0.8659729 0.0114432
v 0 0.547327 -0.0694236
vt 0.777664 0.772724
vn 0 0.9458263 -0.3246731
v 0.109657 0.286828 -0.11233
vt 0.795377 0.721666
vn 0.5627279 -0.6148139 -0.5525769
v 0.177429 0.324834 0
vt 0.749005 0.729116
vn 0.9261696 -0.3693388 0.07614966
v -0.109657 0.485832 -0.11233
vn -0.5627279 0.6148139 -0.5525769
v -0.067772 0.38633 -0.181753
vn -0.3653229 0 -0.9308808
v 0.101544 0.485832 0.11233
vt 0.702633 0.760671
vn 0.5598 0.563971 0.607092
v 0.100019 0.239484 0
vt 0.749005 0.712387
vn 0.5079832 -0.8600453 0.04769972
v 0.101544 0.300933 0.125153
vt 0.697339 0.724431
vn 0.599057 -0.548352 0.583473
v -0.100019 0.533175 0
vn -0.49996 0.8659729 0.0114432
v 0 0.295574 -0.165777
vt 0.817441 0.723381
vn 0 -0.566545 -0.8240309
v 0 0.477085 0.147245
vt 0.688219 0.758957
vn 0 0.5318468 0.8468406
v 0.067772 0.38633 0.156579
vt 0.684366 0.741169
vn 0.45014 0.0974004 0.88763
v 0 0.225332 0.0694236
vt 0.720345 0.709613
vn 0 -0.9437027 0.3307949
v 0 0.295574 0.180771
vt 0.674379 0.723381
vn 0 -0.5788471 0.8154361
v -0.177429 0.447825 0
vn -0.93209 0.355235 0.0708252
v -0.161833 0.38633 -0.102456
vn -0.855696 0 -0.517479
v 0 0.225332 -0.0694236
vt 0.777664 0.709613
vn 0 -0.9458263 -0.3246731
v 0 0.38633 0.175999
vt 0.676349 0.741169
vn 0 0.1776289 0.9840975
v -0.067772 0.38633 0.156579
vn -0.45014 0.0974004 0.88763
v -0.101544 0.485832 0.11233
vn -0.5598 0.563971 0.607092
v -0.109657 0.286828 -0.11233
vn -0.5627279 -0.6148139 -0.5525769
v -0.100019 0.239484 0
vn -0.5079832 -0.8600453 0.04769972
v -0.101544 0.300933 0.125153
vn -0.599057 -0.548352 0.583473
v -0.177429 0.324834 0
vn -0.9261696 -0.3693388 0.07614966
v 0 0.547327 0.0694236
vt 0.699223 0.196433
vn 0 0.9418777 0.3359559
vt 0.551203 0.4375
vt 0.330644 0.196433
vt 0.887865 0.4375
vt 1.01703 0.196433
v 0.216101 0.536062 0.0141034
vt 0.947309 0.94066
vn 0.7780643 0.5143082 0.3606981
v 0.253899 0.392828 -0.00894769
vn 0.8664739 0.152128 0.4754789
v 0.277829 0.433497 -0.0689746
vn 0.9037915 0.4106728 0.1204529
v 0.19817 0.50538 0.0425275
vn 0.6751341 0.248799 0.6944731
v 0.199612 0.549141 -0.0254472
vn 0.6935071 0.7126411 -0.105785
v 0.132054 0.54357 0.0540622
vn 0.16416 0.6911931 0.7037781
v 0.127215 0.5787821 0.0183736
vn 0.1554701 0.7605034 0.6304473
v 0.234688 0.459185 -0.119763
vn 0.7289728 0.6099819 -0.3106779
v 0.0298459 0.547884 0.0341733
vn -0.107748 0.7003497 0.7056208
v -0.216101 0.536062 0.0141034
vt 0.942474 0.938243
vn -0.7780639 0.5143089 0.360698
v -0.277829 0.433497 -0.0689747
vn -0.9037918 0.4106719 0.120453
v -0.253899 0.392828 -0.00894769
vn -0.8664742 0.152128 0.4754781
v -0.199612 0.549141 -0.0254472
vn -0.6935067 0.7126417 -0.1057849
v -0.19817 0.50538 0.0425275
vn -0.6751341 0.248799 0.6944731
v -0.127215 0.5787821 0.0183736
vn -0.1554701 0.7605034 0.6304473
v -0.132054 0.54357 0.0540622
vn -0.16416 0.6911931 0.7037781
v -0.234688 0.459185 -0.119763
vn -0.7289724 0.6099823 -0.3106782
v -0.0298459 0.547884 0.0341733
vn 0.107748 0.7003497 0.7056208
vn -0.7780639 -0.5143089 -0.360698
vn -0.9037915 -0.4106728 -0.1204529
vn -0.8664742 -0.152128 -0.4754781
vn -0.6935071 -0.7126411 0.105785
vn -0.6751341 -0.248799 -0.6944731
vn -0.1554701 -0.7605034 -0.6304473
vn -0.16416 -0.6911931 -0.7037781
vn -0.7289728 -0.6099819 0.3106779
vn 0.107748 -0.7003497 -0.7056208
vn 0.7780636 -0.5143088 -0.3606988
vn 0.8664739 -0.152128 -0.4754789
vn 0.9037915 -0.4106728 -0.1204529
vn 0.6751343 -0.2487981 -0.6944733
vn 0.6935067 -0.7126417 0.1057849
vn 0.16416 -0.6911931 -0.7037781
vn 0.1554701 -0.7605034 -0.6304473
vn 0.7289724 -0.6099823 0.3106782
vn -0.107748 -0.7003497 -0.7056208
v 0 0.533529 -0.347908
vt 0.748686 0.730655
vn 0 0.638074 -0.7699751
vt 0.582177 0.510625
vt 0.915195 0.510625
v 0.168378 0.453529 -0.346448
vt 1.04697 0.7593
vn 0.6385368 0.4712218 -0.6084577
v 0 0.318275 -0.458865
vt 0.748686 1.0279
vn 0 0.5770048 -0.8167407
v -0.168378 0.453529 -0.346448
vn -0.6385368 0.4712218 -0.6084577
v -0.144465 0.280377 -0.459352
vn -0.6293229 0.430427 -0.647059
v -0.107881 0.184003 -0.575049
vn -0.466639 0.5225409 -0.7135819
v 0.107881 0.184003 -0.575049
vn 0.466639 0.5225409 -0.7135819
v 0.144465 0.280377 -0.459352
vn 0.6293229 0.430427 -0.647059
v 0 0.08824013 -0.696819
vn 0 -0.144019 -0.9895749
v -0.167564 0.161302 0.0996609
vt 0.264707 0.547744
vn -0.8330659 0.11046 0.542033
vt 0.426495 0.450293
vt 0.361466 0.382265
v 0.167564 0.161302 0.099661
vn 0.8330655 0.1104599 0.5420337
vt 0.600267 0.15415
vt 0.759287 0.00156605
vt 0.558214 0.00156605
vt 0.844875 0.15415
vt 0.249056 -0.192935
vt 0.00158483 -0.371038
vt -0.000943601 -0.0214372
vt 0.249056 0.131227
vt -0.000943601 0.265625
vt 0.249056 0.592404
vt -0.000943601 0.726386
vt 0.249056 0.946709
vt -0.000943601 1.08069
vt 0.00158483 1.20569
vt 0.333962 0.639337
vt 0.333962 0.902387
vt 0.494535 0.849764
vt 0.88436 0.00156605
vt 0.717579 0.15415
vt 0.63342 0.00156605
vt 0.889923 0.15415
vt 0.963735 0.00156605
vt 0.810548 0.15415
vt 0.946951 0.15415
vt 0.653215 0.15415
vt 0.759057 0.15415
o merged_0_0_node
g polygon_0
usemtl body_mat_mat_id
f 1/1/1 2/1/2 3/1/3
f 1/1/1 4/1/4 2/1/2
f 1/1/1 3/1/3 5/1/5
f 1/1/1 6/1/6 4/1/4
f 1/1/1 5/1/5 7/1/7
f 1/1/1 8/1/8 6/1/6
f 1/1/1 7/1/7 8/1/8
f 4/1/4 6/1/6 9/1/9
f 8/1/8 10/1/10 6/1/6
f 6/1/6 10/1/10 9/1/9
f 10/1/10 11/1/11 9/1/9
f 11/1/11 12/1/12 13/1/13
f 14/2/14 15/3/15 16/3/16
f 14/2/14 17/3/17 15/3/15
f 14/2/14 16/3/16 18/3/18
f 14/2/14 19/3/19 17/3/17
f 14/2/14 18/3/18 20/3/20
f 14/2/14 20/3/20 19/3/19
f 15/3/15 17/3/17 21/2/21
f 15/3/15 21/2/21 22/3/22
f 17/3/17 23/3/23 21/2/21
f 22/3/22 21/2/21 24/3/24
f 23/3/23 25/3/25 21/2/21
f 21/2/21 25/3/25 24/3/24
f 26/4/26 27/5/27 28/6/28
f 26/4/26 29/7/29 27/5/27
f 26/4/26 28/6/28 30/8/30
f 26/4/26 31/9/31 29/7/29
f 26/4/26 30/8/30 32/10/32
f 26/4/26 32/10/32 31/9/31
f 27/5/27 33/11/33 28/6/28
f 27/5/27 29/7/29 34/12/34
f 27/5/27 34/12/34 33/11/33
f 28/6/28 33/11/33 30/8/30
f 32/10/32 35/13/35 31/9/31
f 32/10/32 36/14/36 35/13/35
f 29/7/29 37/15/37 34/12/34
f 33/11/33 38/16/38 30/8/30
f 39/17/39 40/18/40 41/19/41
f 39/17/39 42/20/42 40/18/40
f 39/17/39 41/19/41 43/21/43
f 39/17/39 44/22/44 42/20/42
f 39/17/39 43/21/43 45/23/45
f 39/17/39 45/23/45 44/22/44
f 40/18/40 46/24/46 41/19/41
f 40/18/40 42/20/42 47/25/47
f 40/18/40 47/25/47 46/24/46
f 43/21/43 48/17/48 45/23/45
f 43/21/43 41/19/41 49/19/49
f 43/21/43 49/19/49 48/17/48
f 44/22/44 50/26/50 42/20/42
f 47/25/47 51/27/51 46/24/46
f 47/25/47 52/28/52 51/27/51
f 45/23/45 48/17/48 53/22/53
f 41/19/41 54/29/54 49/19/49
f 41/19/41 46/24/46 54/29/54
f 50/26/50 55/30/55 56/31/56
f 52/28/52 57/32/57 51/27/51
f 52/28/52 56/31/56 58/33/58
f 48/17/48 59/20/59 53/22/53
f 48/17/48 49/19/49 60/18/60
f 48/17/48 60/18/60 59/20/59
f 46/24/46 61/34/61 54/29/54
f 46/24/46 51/27/51 61/34/61
f 51/27/51 57/32/57 61/34/61
f 55/30/55 62/35/62 56/31/56
f 55/30/55 63/31/63 62/35/62
f 55/30/55 64/26/64 63/31/63
f 62/35/62 58/33/58 56/31/56
f 62/35/62 63/31/63 58/33/58
f 64/26/64 53/22/53 59/20/59
f 49/19/49 65/24/65 60/18/60
f 49/19/49 54/29/54 65/24/65
f 54/29/54 61/34/61 65/24/65
f 57/32/57 66/27/66 61/34/61
f 57/32/57 67/28/67 66/27/66
f 61/34/61 66/27/66 65/24/65
f 58/33/58 63/31/63 67/28/67
f 59/20/59 60/18/60 68/25/68
f 68/25/68 65/24/65 66/27/66
f 68/25/68 66/27/66 67/28/67
f 68/25/68 60/18/60 65/24/65
f 69/36/69 44/37/44 45/38/45
f 69/36/69 50/39/50 44/37/44
f 69/36/69 45/38/45 53/37/53
f 69/36/69 55/40/55 50/39/50
f 69/36/69 53/37/53 64/39/64
f 69/36/69 64/39/64 55/40/55
f 70/41/70 71/41/71 72/41/72
f 70/41/70 73/41/73 71/41/71
f 70/41/70 72/41/72 74/41/74
f 70/41/70 75/41/75 73/41/73
f 70/41/70 74/41/74 76/41/76
f 70/41/70 76/41/76 75/41/75
f 72/41/72 77/41/77 74/41/74
f 76/41/76 78/41/78 75/41/75
f 79/42/79 80/42/80 81/42/81
f 79/42/79 82/42/82 80/42/80
f 79/42/79 81/42/81 83/42/83
f 79/42/79 84/42/84 82/42/82
f 79/42/79 83/42/83 85/42/85
f 79/42/79 85/42/85 84/42/84
f 80/42/80 82/42/82 86/42/86
f 85/42/85 87/42/87 84/42/84
f 70/41/88 72/41/89 71/41/90
f 70/41/88 74/41/91 72/41/89
f 70/41/88 71/41/90 73/41/92
f 70/41/88 76/41/93 74/41/91
f 70/41/88 73/41/92 75/41/94
f 70/41/88 75/41/94 76/41/93
f 72/41/89 74/41/91 77/41/95
f 75/41/94 78/41/96 76/41/93
f 79/42/97 81/42/98 80/42/99
f 79/42/97 83/42/100 81/42/98
f 79/42/97 80/42/99 82/42/101
f 79/42/97 85/42/102 83/42/100
f 79/42/97 82/42/101 84/42/103
f 79/42/97 84/42/103 85/42/102
f 80/42/99 86/42/104 82/42/101
f 84/42/103 87/42/105 85/42/102
f 88/43/106 13/44/13 12/45/12
f 88/43/106 12/45/12 89/46/107
f 88/43/106 89/46/107 90/47/108
f 88/43/106 90/47/108 91/46/109
f 88/43/106 91/46/109 13/45/13
f 90/1/108 92/1/110 91/1/109
f 90/1/108 93/1/111 92/1/110
f 90/1/108 94/1/112 93/1/111
f 90/1/108 95/1/113 94/1/112
f 90/1/108 89/1/107 95/1/113
f 93/1/111 94/1/112 96/1/114
f 97/48/115 32/49/32 30/49/30
f 97/48/115 36/50/36 32/49/32
f 97/48/115 30/49/30 38/50/38
f 97/48/115 38/50/38 36/50/36
f 98/48/116 29/49/29 31/49/31
f 98/48/116 37/50/37 29/49/29
f 98/48/116 31/49/31 35/50/35
f 98/48/116 35/50/35 37/50/37
f 36/51/36 18/52/18 16/53/16
f 36/51/36 38/54/38 18/52/18
f 36/51/36 16/53/16 15/52/15
f 15/52/15 22/53/22 35/51/35
f 22/53/22 24/52/24 35/51/35
f 24/52/24 37/54/37 35/51/35
f 3/55/3 96/56/114 5/55/5
f 3/55/3 93/57/111 96/56/114
f 3/55/3 2/58/2 93/57/111
f 5/55/5 96/56/114 94/57/112
f 5/55/5 94/57/112 7/58/7
f 2/58/2 92/59/110 93/57/111
f 2/58/2 4/60/4 92/59/110
f 94/57/112 95/59/113 7/58/7
f 4/60/4 91/61/109 92/59/110
f 4/60/4 9/62/9 91/61/109
f 95/59/113 8/60/8 7/58/7
f 95/59/113 89/61/107 8/60/8
f 9/62/9 13/63/13 91/61/109
f 9/62/9 11/64/11 13/63/13
f 89/61/107 10/62/10 8/60/8
f 89/61/107 12/63/12 10/62/10
f 10/62/10 12/63/12 11/64/11
f 57/65/57 58/66/58 67/67/67
f 57/65/57 52/67/52 58/66/58
f 17/68/17 34/69/34 23/70/23
f 17/68/17 19/70/19 33/69/33
f 34/71/34 17/72/17 33/71/33
f 19/68/19 20/70/20 33/73/33
f 33/74/33 20/52/20 38/75/38
f 20/68/20 18/70/18 38/76/38
f 36/71/36 15/72/15 35/71/35
f 24/70/24 25/68/25 37/76/37
f 23/68/23 34/73/34 25/70/25
f 25/52/25 34/74/34 37/75/37
vt 1.09702 0.774245
v 0.135532 0.38633 0.102456
vt 0.362888 0.867683
vn 0.8252876 0.02220799 0.5642757
vt 0.200257 0.737929
vt 0.292139 1.01887
v -0.135532 0.38633 0.102456
vn -0.8252876 0.02220799 0.5642757
vt -0.0249198 0.867683
vt 1.09702 0.961122
o merged_1_0_node
g polygon_0
usemtl TEX_ANIM_EYE_mat_id
f 47/77/47 99/78/117 52/79/52
f 64/80/64 100/78/118 63/81/63
f 50/80/50 56/81/56 99/78/117
f 99/78/117 56/81/56 52/79/52
f 42/82/42 99/78/117 47/77/47
f 50/80/50 99/78/117 42/82/42
f 68/77/68 67/79/67 100/78/118
f 100/78/118 67/79/67 63/81/63
f 59/82/59 100/78/118 64/80/64
f 68/77/68 100/78/118 59/82/59
