mtllib Primeape.mtl
v -0.000339989 0.640016 -0.0988616
vt 0.104029 0.24774
vn -0.0013054 0.9195401 -0.392994
v -0.000160107 0.5133 -0.248824
vn -0.0005218499 0.5609629 -0.8278408
v -0.167916 0.527495 -0.167736
vn -0.5405399 0.5396709 -0.6454238
v 0.167555 0.527972 -0.167736
vn 0.539755 0.5403361 -0.6455241
v -0.158846 0.590134 -0.0818131
vn -0.370368 0.788056 -0.491727
v 0.158307 0.590584 -0.0818131
vn 0.3681288 0.7891046 -0.4917267
v -0.119388 0.621806 0.0498551
vn -0.275142 0.923608 0.266918
v 0.118759 0.622144 0.0498551
vn 0.2724751 0.9244314 0.2668031
v -0.000339989 0.640016 0.0988616
vn -0.001397 0.942037 0.335506
v -0.108597 0.3637 -0.284447
vn -0.35787 0.0428845 -0.9327861
v 0.108702 0.3637 -0.284447
vn 0.357829 0.04384761 -0.9327571
v -0.223562 0.69206 0
vn -0.4896269 0.8550028 0.170985
v -0.258533 0.539508 0
vn -0.8893939 0.4571329 0.00283911
v 0.222733 0.692693 0
vn 0.487197 0.8563899 0.170984
v 0.258138 0.540241 0
vn 0.8857633 0.4630932 -0.03111171
v -0.164928 0.542135 0.160932
vn -0.4989882 0.6839313 0.5322112
v 0.1646 0.542613 0.160932
vn 0.4722078 0.7185917 0.5105348
v -0.00014322 0.554656 0.212254
vn -0.02562459 0.7212508 0.6921998
v 0.0002651 0.213762 -0.265241
vn 0.0005206229 -0.5505169 -0.8348238
v 0.259496 0.3637 -0.160345
vn 0.831379 0.0239369 -0.55519
v 0.180217 0.199584 -0.179932
vn 0.5670332 -0.6118402 -0.5514752
v -0.259391 0.3637 -0.160345
vn -0.8313518 0.02214979 -0.5553049
v -0.148874 0.463152 0.22321
vn -0.281354 0.471214 0.835941
v -0.027319 0.463922 0.261692
vn -0.166054 0.41422 0.894901
v 0.0271389 0.463999 0.261692
vn 0.1423649 0.3877558 0.9107017
v 0.0945776 0.508973 0.211318
vn 0.271816 0.5473859 0.7915079
v 0.000414318 0.108647 -0.111574
vn 0.00135349 -0.9534789 -0.301457
v -0.179646 0.199074 -0.179932
vn -0.5658189 -0.6126909 -0.5517779
v 0.292801 0.433986 0.0144752
vn 0.9842224 0.1690131 0.05235362
v 0.206508 0.482528 0.157787
vn 0.8075258 0.4172879 0.4168609
v -0.189393 0.462896 0.210383
vn -0.7469441 0.326714 0.579079
v -0.293015 0.433202 0.0144752
vn -0.9800942 0.181036 0.08149432
v 0.148758 0.463467 0.22321
vn 0.278915 0.393351 0.8760601
v 0.165007 0.132234 0
vn 0.4886232 -0.8722494 -0.02069461
v 0.289108 0.273259 0
vn 0.9200528 -0.391362 -0.0184027
v -0.288745 0.272439 0
vn -0.9190005 -0.3938302 -0.01832651
v -0.164244 0.131767 0
vn -0.486145 -0.8736331 -0.0206945
v 0.189298 0.46329 0.210383
vn 0.6981922 0.3005651 0.6497602
v -0.260011 0.3517 0.117313
vn -0.9085432 -0.06685521 0.4124071
v -0.202662 0.3517 0.223929
vn -0.7116699 -0.09903079 0.6954989
v 0.180381 0.187687 0.180079
vn 0.5519958 -0.6576598 0.5126248
v 0.000414318 0.108647 0.111574
vn 0.00136845 -0.9640322 0.2657821
v 0.26015 0.3517 0.117313
vn 0.9088957 -0.06469418 0.4119748
v -0.179776 0.187176 0.180079
vn -0.5506738 -0.6584457 0.5130377
v -0.108846 0.3517 0.275131
vn -0.355895 -0.144186 0.9233359
v 0.202801 0.3517 0.223929
vn 0.711713 -0.09733049 0.6956949
v 0.000281991 0.201865 0.265494
vn 0.0005930323 -0.6144513 0.7889545
v -0.0271595 0.3517 0.282642
vn -0.05349231 -0.0161764 0.9984372
v 0.108985 0.3517 0.275131
vn 0.3560481 -0.143297 0.9234152
v 0.0272983 0.3517 0.282642
vn 0.05346129 -0.0159959 0.9984418
v 0.366325 0.367198 0.196112
vt 0.306298 0.0421287
vn -0.8756409 -0.417064 -0.243538
v 0.532124 0.289672 0.217354
vt 0.457588 0.090692
vn 0.2098951 -0.9635484 -0.1658871
v 0.364228 0.304946 0.263809
vt 0.457588 0.0415147
vn -0.4515409 -0.8917348 -0.03033019
v 0.516951 0.348755 0.165572
vt 0.306298 0.0862479
vn 0.563613 -0.576578 -0.591522
v 0.383675 0.347432 0.32393
vt 0.457588 0.0472107
vn -0.2972479 -0.3271789 0.8969937
v 0.494799 0.373204 0.100042
vt 0.147201 0.0797594
vn 0.08434398 -0.2297349 -0.9695917
v 0.392116 0.43855 0.32067
vt 0.457588 0.049683
vn -0.0840786 0.865894 0.493111
v 0.361441 0.394816 0.114667
vt 0.147201 0.0406984
vn -0.4032751 -0.127697 -0.9061251
v 0.375678 0.485543 0.134596
vt 0.147201 0.0448682
vn -0.111466 0.9779537 -0.176584
v 0.509035 0.463931 0.119971
vt 0.147201 0.0839292
vn 0.2898601 0.9312503 -0.2208031
v 0.551571 0.332158 0.277476
vt 0.457588 0.096388
vn 0.6066188 -0.4196638 0.6752008
v 0.560011 0.423276 0.274216
vt 0.457588 0.0988603
vn 0.4517122 0.8177214 0.3567742
v -0.366325 0.367198 0.196112
vt 0.306298 0.0179247
vn 0.8756409 -0.417064 -0.243538
v -0.364228 0.304946 0.263809
vt 0.448632 0.0179247
vn 0.4515409 -0.8917348 -0.03033049
v -0.532124 0.289672 0.217354
vt 0.448632 0.107295
vn -0.2098951 -0.9635484 -0.1658871
v -0.383675 0.347432 0.32393
vn 0.2972479 -0.3271789 0.8969937
v -0.516951 0.348755 0.165572
vt 0.306298 0.107295
vn -0.563613 -0.576578 -0.591522
v -0.392116 0.43855 0.32067
vn 0.0840786 0.865894 0.493111
v -0.494799 0.373204 0.100042
vt 0.147201 0.107295
vn -0.08434415 -0.2297351 -0.9695916
v -0.375677 0.485543 0.134596
vt 0.147201 0.0179247
vn 0.111466 0.9779537 -0.176584
v -0.361441 0.394816 0.114667
vn 0.4032742 -0.1276971 -0.9061255
v -0.509035 0.463931 0.119971
vn -0.2898598 0.9312505 -0.2208029
v -0.551571 0.332158 0.277476
vn -0.606619 -0.419663 0.675201
v -0.560011 0.423276 0.274216
vn -0.4517122 0.8177214 0.3567742
v 0.120969 0.144679 0.0632329
vt 0.475209 0.0689044
vn 0.008737859 -0.0302607 0.9995039
v 0.182685 0.1625 -0.0480296
vn 0.8199911 0.2425731 -0.5184331
v 0.0826853 0.277261 -0.000945092
vn -0.2773111 0.9603683 0.02813091
v 0.163296 -0.00190381 -0.0109421
vt 0.0294354 0.0696458
vn 0.2774211 -0.9607484 0
v 0.0592532 0.126858 -0.0480296
vn -0.823081 -0.231873 -0.518433
v -0.182685 0.1625 -0.0480296
vn -0.8196788 0.2345639 -0.5225959
v -0.120969 0.144679 0.0632329
v -0.0866961 0.277653 -0.000945093
vn 0.2645919 0.9639396 0.02848849
v -0.163296 -0.00190381 -0.0109421
vn -0.2774209 -0.9607485 0
v -0.0592532 0.126858 -0.0480296
vn 0.8272859 -0.226046 -0.5142969
v 0.46827 0.427628 0.123172
vt 0.340477 0.0433919
vn 0.7870208 0.101011 -0.6086009
v 0.408863 0.455853 0.1334
vn 0.0179311 0.9982959 0.05553119
v 0.391921 0.407623 0.124813
vn -0.2882311 -0.9325573 0.2173931
v 0.308477 0.428218 -0.00351304
vn 0.0749753 -0.125818 -0.9892161
v -0.46827 0.427628 0.123172
vn -0.7870204 0.101012 -0.6086013
v -0.391921 0.407623 0.124813
vn 0.2882311 -0.9325575 0.2173921
v -0.408863 0.455853 0.1334
vn -0.0179316 0.9982959 0.05553099
v -0.308477 0.428218 -0.00351301
vn -0.074976 -0.125818 -0.9892161
vt 0.741657 0.956329
vt 0.0253392 0.500691
vt 0.981587 -0.0330678
o merged_0_0_node
g polygon_0
usemtl mat_mimi_mat_id
f 1/1/1 2/1/2 3/1/3
f 1/1/1 4/1/4 2/1/2
f 1/1/1 3/1/3 5/1/5
f 1/1/1 6/1/6 4/1/4
f 1/1/1 5/1/5 7/1/7
f 1/1/1 8/1/8 6/1/6
f 1/1/1 7/1/7 9/1/9
f 1/1/1 9/1/9 8/1/8
f 2/1/2 10/1/10 3/1/3
f 2/1/2 4/1/4 11/1/11
f 2/1/2 11/1/11 10/1/10
f 5/1/5 12/1/12 7/1/7
f 5/1/5 3/1/3 13/1/13
f 5/1/5 13/1/13 12/1/12
f 6/1/6 8/1/8 14/1/14
f 6/1/6 15/1/15 4/1/4
f 6/1/6 14/1/14 15/1/15
f 9/1/9 7/1/7 16/1/16
f 9/1/9 17/1/17 8/1/8
f 9/1/9 16/1/16 18/1/18
f 9/1/9 18/1/18 17/1/17
f 17/1/17 15/1/15 8/1/8
f 7/1/7 13/1/13 16/1/16
f 11/1/11 19/1/19 10/1/10
f 11/1/11 4/1/4 20/1/20
f 11/1/11 21/1/21 19/1/19
f 11/1/11 20/1/20 21/1/21
f 4/1/4 15/1/15 20/1/20
f 3/1/3 22/1/22 13/1/13
f 3/1/3 10/1/10 22/1/22
f 18/1/18 16/1/16 23/1/23
f 18/1/18 23/1/23 24/1/24
f 18/1/18 24/1/24 25/1/25
f 18/1/18 25/1/25 26/1/26
f 19/1/19 21/1/21 27/1/27
f 19/1/19 28/1/28 10/1/10
f 19/1/19 27/1/27 28/1/28
f 10/1/10 28/1/28 22/1/22
f 15/1/15 29/1/29 20/1/20
f 15/1/15 30/1/30 29/1/29
f 13/1/13 31/1/31 16/1/16
f 13/1/13 22/1/22 32/1/32
f 13/1/13 32/1/32 31/1/31
f 16/1/16 31/1/31 23/1/23
f 25/1/25 33/1/33 26/1/26
f 21/1/21 34/1/34 27/1/27
f 21/1/21 20/1/20 35/1/35
f 21/1/21 35/1/35 34/1/34
f 20/1/20 29/1/29 35/1/35
f 28/1/28 36/1/36 22/1/22
f 28/1/28 27/1/27 37/1/37
f 28/1/28 37/1/37 36/1/36
f 22/1/22 36/1/36 32/1/32
f 30/1/30 38/1/38 29/1/29
f 26/1/26 33/1/33 38/1/38
f 31/1/31 32/1/32 39/1/39
f 31/1/31 39/1/39 40/1/40
f 32/1/32 36/1/36 39/1/39
f 34/1/34 35/1/35 41/1/41
f 34/1/34 42/1/42 27/1/27
f 34/1/34 41/1/41 42/1/42
f 27/1/27 42/1/42 37/1/37
f 29/1/29 38/1/38 43/1/43
f 29/1/29 43/1/43 35/1/35
f 35/1/35 43/1/43 41/1/41
f 40/1/40 39/1/39 44/1/44
f 40/1/40 44/1/44 45/1/45
f 37/1/37 44/1/44 36/1/36
f 37/1/37 42/1/42 44/1/44
f 36/1/36 44/1/44 39/1/39
f 38/1/38 46/1/46 43/1/43
f 43/1/43 46/1/46 41/1/41
f 45/1/45 44/1/44 47/1/47
f 45/1/45 47/1/47 48/1/48
f 42/1/42 41/1/41 47/1/47
f 42/1/42 47/1/47 44/1/44
f 46/1/46 49/1/49 41/1/41
f 41/1/41 49/1/49 47/1/47
f 48/1/48 47/1/47 50/1/50
f 50/1/50 47/1/47 49/1/49
f 51/2/51 52/3/52 53/4/53
f 51/2/51 54/5/54 52/3/52
f 51/2/51 53/4/53 55/6/55
f 51/2/51 56/7/56 54/5/54
f 51/2/51 55/6/55 57/8/57
f 51/2/51 58/9/58 56/7/56
f 51/2/51 57/8/57 59/10/59
f 51/2/51 59/10/59 58/9/58
f 53/4/53 52/3/52 55/6/55
f 54/5/54 56/7/56 60/11/60
f 54/5/54 61/12/61 52/3/52
f 54/5/54 60/11/60 62/13/62
f 54/5/54 62/13/62 61/12/61
f 60/11/60 57/8/57 62/13/62
f 60/11/60 59/10/59 57/8/57
f 60/11/60 58/9/58 59/10/59
f 60/11/60 56/7/56 58/9/58
f 55/6/55 52/3/52 61/12/61
f 55/6/55 61/12/61 62/13/62
f 55/6/55 62/13/62 57/8/57
f 63/14/63 64/15/64 65/16/65
f 63/14/63 66/15/66 64/15/64
f 63/14/63 65/16/65 67/17/67
f 63/14/63 68/15/68 66/15/66
f 63/14/63 67/17/67 69/18/69
f 63/14/63 70/19/70 68/15/68
f 63/14/63 69/18/69 71/19/71
f 63/14/63 71/19/71 70/19/70
f 64/15/64 66/15/66 65/16/65
f 67/17/67 72/18/72 69/18/69
f 67/17/67 65/16/65 73/16/73
f 67/17/67 74/16/74 72/18/72
f 67/17/67 73/16/73 74/16/74
f 72/18/72 68/15/68 70/19/70
f 72/18/72 70/19/70 71/19/71
f 72/18/72 71/19/71 69/18/69
f 72/18/72 74/16/74 68/15/68
f 66/15/66 73/16/73 65/16/65
f 66/15/66 74/16/74 73/16/73
f 66/15/66 68/15/68 74/16/74
f 75/20/75 76/20/76 77/20/77
f 75/20/75 78/21/78 76/20/76
f 75/20/75 77/20/77 79/20/79
f 75/20/75 79/20/79 78/21/78
f 79/20/79 77/20/77 76/20/76
f 79/20/79 76/20/76 78/21/78
f 80/20/80 81/20/75 82/20/81
f 80/20/80 83/21/82 81/20/75
f 80/20/80 82/20/81 84/20/83
f 80/20/80 84/20/83 83/21/82
f 84/20/83 82/20/81 81/20/75
f 84/20/83 81/20/75 83/21/82
f 85/22/84 86/22/85 87/22/86
f 85/22/84 88/22/87 86/22/85
f 85/22/84 87/22/86 88/22/87
f 88/22/87 87/22/86 86/22/85
f 89/22/88 90/22/89 91/22/90
f 89/22/88 92/22/91 90/22/89
f 89/22/88 91/22/90 92/22/91
f 92/22/91 91/22/90 90/22/89
f 14/23/14 8/24/8 15/25/15
f 12/23/12 13/25/13 7/24/7
vt 0.688079 0.516871
vt 1.04735 0.305333
vt 2.76605 0.460504
vt -0.211822 0.49986
vt 0.666138 0.49986
vt -0.0183982 0.952166
vt 0.859562 0.952477
vt -1.04726 0.535493
vt -0.286404 0.394551
v 0.0796947 0.330238 0.309128
vt 1.21235 0.120108
vn 0.785938 -0.028328 0.617656
v 0.049254 0.276726 0.272565
vt 0.784298 0.0140587
vn 0.4671211 -0.7930832 0.3909181
v 0.0796947 0.33336 0.241054
vt 1.21235 0.129448
vn 1 0 0
v 0.049254 0.386872 0.277617
vt 0.823278 0.228409
vn 0.467121 0.753971 0.461872
v 0 0.295236 0.328603
vt 0.258683 0.0153946
vn 0 -0.5672871 0.8235201
v 0 0.36331 0.331725
vt 0.258683 0.219048
vn 0 0.4895239 0.8719899
v -0.0796947 0.33336 0.241054
vn -1 0 0
v -0.049254 0.276726 0.272565
vt 0.711101 0.0184882
vn -0.4671211 -0.7930832 0.3909181
v -0.0796947 0.330238 0.309128
vn -0.785938 -0.0283281 0.617656
v -0.049254 0.386872 0.277617
vt 0.739449 0.21955
vn -0.467121 0.753971 0.461872
o merged_1_0_node
g polygon_0
usemtl mat_suji_mat_id
f 17/26/17 30/27/30 15/28/15
f 48/29/48 50/30/50 24/31/24
f 25/32/25 24/31/24 50/30/50
f 18/33/18 26/34/26 17/26/17
f 93/35/92 94/36/93 95/37/94
f 95/37/94 96/38/95 93/35/92
f 97/39/96 93/35/92 98/40/97
f 94/36/93 93/35/92 97/39/96
f 93/35/92 96/38/95 98/40/97
f 99/37/98 100/41/99 101/35/100
f 101/35/100 102/42/101 99/37/98
f 97/39/96 98/40/97 101/35/100
f 101/35/100 100/41/99 97/39/96
f 98/40/97 102/42/101 101/35/100
f 97/39/96 100/41/99 94/36/93
f 98/40/97 96/38/95 102/42/101
vt 0.606233 0.979387
v -0.0578917 0.421839 0.266731
vn -0.216687 0.269775 0.9382261
vt 1.18762 0.94311
vt 0.620417 0.746782
vt 0.901313 0.943563
vt 0.259148 0.870619
vt 1.28298 0.746782
vt 0.255321 0.874331
vt 0.534296 0.899518
vt 0.359348 1.00253
v 0.0578312 0.421887 0.266731
vn 0.216319 0.2699411 0.9382632
vt 0.043512 0.746782
vt -0.11518 0.942963
o merged_2_0_node
g polygon_0
usemtl TEX_ANIM_EYE_mat_id
f 24/43/24 23/43/23 103/43/102
f 31/44/31 45/45/45 23/46/23
f 45/45/45 103/47/102 23/46/23
f 31/44/31 40/48/40 45/45/45
f 49/45/49 46/48/46 38/44/38
f 38/49/38 30/50/30 17/51/17
f 49/45/49 104/47/103 50/52/50
f 50/43/50 104/43/103 25/43/25
f 45/45/45 48/52/48 103/47/102
f 103/43/102 48/43/48 24/43/24
f 17/51/17 26/53/26 38/49/38
f 25/43/25 104/43/103 33/43/33
f 38/44/38 33/46/33 49/45/49
f 33/46/33 104/47/103 49/45/49
