mtllib Garchomp_Normalf.mtl
v -0.122062 0.80708 0.0592059
vt 0.575748 0.698579
vn -0.6032751 0.6431282 -0.4716411
v 0 0.880655 0.106862
vt 0.567038 0.709213
vn 0 0.9908821 -0.134732
v 0 0.812955 -0.0481918
vt 0.586598 0.697067
vn 0 0.687121 -0.726543
v -0.115588 0.851511 0.16825
vt 0.552944 0.70472
vn -0.4452711 0.8912342 0.08622772
v -0.0968783 0.682591 -0.0832267
vt 0.589841 0.681375
vn -0.527923 0.09997929 -0.8433869
v -0.234221 0.756068 0.144368
vt 0.554948 0.687343
vn -0.8813232 0.4684641 -0.06173092
v -0.181715 0.682591 0.0798402
vt 0.573744 0.681375
vn -0.9051266 -0.02962469 -0.4241088
v 0.122062 0.80708 0.0592059
vn 0.6032751 0.6431282 -0.4716411
v 0 0.843387 0.355398
vt 0.544181 0.704525
vn 0 0.9366424 0.3502871
v 0.115588 0.851511 0.16825
vn 0.4452711 0.8912342 0.08622772
v -0.119043 0.558102 0.00905493
vt 0.575748 0.66417
vn -0.6641103 -0.5905682 -0.4584612
v 0.0968783 0.682591 -0.0832267
vn 0.527923 0.09997939 -0.8433869
v 0 0.569044 -0.0666916
vt 0.586598 0.665682
vn 0 -0.5717971 -0.8203951
v -0.126456 0.780523 0.328297
vt 0.538209 0.688982
vn -0.7114838 0.4630579 0.5285529
v -0.131724 0.696709 0.298647
vt 0.534293 0.683246
vn -0.778143 -0.165443 0.605906
v -0.19857 0.718134 0.16825
vt 0.552944 0.684902
vn -0.8998175 -0.3583298 0.2488538
vn -0.834932 -0.257164 0.486575
v 0.234221 0.756068 0.144368
vn 0.8813232 0.4684641 -0.06173092
v 0.126456 0.780523 0.328297
vn 0.7114838 0.4630579 0.5285529
v -0.17542 0.605652 0.16825
vt 0.552944 0.670741
vn -0.8900701 -0.426018 0.162123
v 0.119043 0.558102 0.00905493
vn 0.6641103 -0.5905682 -0.4584612
v 0 0.481163 0.0698622
vt 0.567038 0.653537
vn 0 -0.96956 -0.244854
v -0.0579635 0.648872 0.346606
vt 0.520886 0.674079
vn -0.5796281 -0.3593371 0.7313741
v 0.181715 0.682591 0.0798402
vn 0.9051266 -0.02962469 -0.4241088
v 0.131724 0.696709 0.298647
vn 0.778143 -0.165443 0.605906
v 0.0579635 0.648872 0.346606
vn 0.5796281 -0.3593371 0.7313741
v -0.103585 0.635665 0.306825
vt 0.527538 0.666609
vn -0.654141 -0.48752 0.578294
v 0 0.559078 0.327171
vt 0.516247 0.665682
vn 0 -0.5469501 0.8371652
v 0.17542 0.605652 0.16825
vn 0.8900701 -0.426018 0.162123
vn 0.834932 -0.257164 0.486575
v 0.19857 0.718134 0.16825
vn 0.8998175 -0.3583298 0.2488538
v 0.103585 0.635665 0.306825
vn 0.654141 -0.48752 0.578294
v 0 0.0577319 0
vt 0 0.166877
vn 0 -0.991886 0.127131
v -0.0688142 0.0771769 0
vt -0.158871 0.242527
vn -0.386766 -0.9221581 -0.006036121
v 0 0.0663026 -0.148978
vt 0 0.154546
vn 0 -0.9999175 -0.01284129
v -0.102729 0.113336 0.099995
vt -0.22666 0.442202
vn -0.4597691 -0.3749321 0.8050082
v 0.0688144 0.0771769 0
vt 0.158871 0.242527
vn 0.3867669 -0.9221578 -0.006036309
v 0 0.103231 0.125359
vt 0 0.442069
vn 0 -0.4596949 0.8880768
v 0.102729 0.113336 0.099995
vt 0.226659 0.442202
vn 0.4597691 -0.3749321 0.8050082
v -0.11088 0.135476 -0.121956
vt -0.198212 0.186189
vn -0.9175638 -0.3023689 -0.2581659
v -0.085338 0.268187 0.118469
vt -0.197411 0.871342
vn -0.08700697 -0.2258249 0.9702746
v 0.11088 0.135476 -0.121956
vt 0.198212 0.186189
vn 0.917564 -0.302369 -0.258165
v 0.0853383 0.268187 0.118469
vt 0.197411 0.871342
vn 0.08700697 -0.2258249 0.9702746
v -0.0670212 0.4074 0.139655
vt -0.138206 0.960428
vn -0.06355542 0.101568 0.9927964
v 0.0670215 0.4074 0.139655
vt 0.138206 0.960428
vn 0.06355542 0.101569 0.9927963
v 0 0.520654 0.104507
vt 0 1
vn 0 0.9771956 0.2123409
v 0.109041 0.51554 0.16825
vt 0.531677 0.148489
vn 0.5815977 -0.7965456 0.1651039
v 0 0.49912 0.23852
vt 0.476571 -0.209402
vn 0 -0.9309946 0.3650329
vt 0.734995 0.484071
vt 0.341146 -0.291034
vn 0 -0.7663707 0.6423987
vt 0.428696 0.483942
vt 0.257031 -0.223727
vt 0.268458 0.124668
v -0.109041 0.51554 0.16825
vn -0.5815977 -0.7965456 0.1651039
v 0 0.0536276 -0.521803
vt 0.882545 -0.111703
vn 0 0.125966 -0.9920346
vt 0.879767 1.29296
vt 0.814895 1.1527
v 0.0803774 0.250045 -0.141116
vt 1.00103 1.31003
vn 0.4808871 0.5334661 -0.6958172
v -0.0803769 0.250045 -0.141116
vn -0.4808871 0.5334661 -0.6958172
v 0.305685 0.825655 0.0559792
vt 0.0987299 0.104558
v 0.234827 0.754797 0.0559792
vt 0.0987299 0.0595246
vn -0.991886 0 -0.127131
v 0.305685 0.825655 0.221942
vt -0.0986659 0.104558
vn 0 0.991886 0.127131
v 0.305685 0.754797 -0.0588801
vt 0.235343 0.0595246
vn 0 0 -1
v 0.376544 0.754797 0.221942
vt -0.0986659 0.0595246
vn 0.991886 0 0.127131
v 0.376544 0.754797 0.0559792
vn 0.991886 0 -0.127131
v 0.234827 0.754797 0.221942
vn -0.991886 0 0.127131
v 0.305685 0.683938 0.0559792
vt 0.0987299 0.0144913
vn 0 -0.991886 -0.127131
v 0.305685 0.754797 0.336801
vt -0.23528 0.0595246
vn 0 0 1
v 0.305685 0.683938 0.221942
vt -0.0986659 0.0144913
v -0.305163 0.825655 0.0559792
v -0.305163 0.825655 0.221942
v -0.234305 0.754797 0.0559792
v -0.376022 0.754797 0.221942
v -0.305163 0.754797 -0.0588801
v -0.376022 0.754797 0.0559792
v -0.234305 0.754797 0.221942
v -0.305163 0.754797 0.336801
v -0.305163 0.683938 0.0559792
v -0.305163 0.683938 0.221942
vt 0.847573 1.13509
v 0.0637349 0.430677 -0.0888458
vt 0.954803 0.0939106
vn 0.3121121 0.5311001 -0.7877301
v -0.0637344 0.430677 -0.0888459
vn -0.3121109 0.5310999 -0.7877308
v 0.129407 0.427777 0.0411591
vt 0.880405 0.450645
vn 0.7333907 0.6553928 -0.1805499
v -0.129406 0.427777 0.0411591
vn -0.7333906 0.6553927 -0.1805509
vt 0.785682 0.472712
v 0.159296 0.279629 0.00956391
vt 0.825321 -0.43852
vn 0.8220121 0.2622051 -0.5055141
vt 0.966597 -1.11968
v -0.159296 0.279629 0.00956391
vn -0.8220118 0.2622049 -0.5055149
v 0 0.428152 -0.0857725
vt 0.412176 0.680461
vn 0 0.758022 0.652229
v -0.0431476 0.316945 -0.245996
vt 0.442818 0.671571
vn -0.9959095 0.06108027 0.06658367
v 0 0.315631 -0.120089
vt 0.420582 0.663246
vn 0 -0.5785758 0.8156286
v 0 0.541923 -0.326421
vt 0.435883 0.710335
vn 0 0.9999991 0.00134655
v 0.0431476 0.316945 -0.245996
vn 0.9959096 0.06108017 0.06658368
v 0 0.488758 -0.573334
vt 0.457274 0.740209
vn 0 0.977595 -0.210495
v -0.185222 0 0
vt 0.718612 0.573885
vn -0.5133041 -0.856496 -0.05416241
vt 0.281002 0.535171
vn -0.4814062 -0.1471501 -0.8640573
vt 0.450417 0.524952
vn 0.5490871 -0.8282001 -0.112196
v -0.240222 0.135476 0
vt 0.281002 0.601664
vn -0.9953069 0.09610228 0.0113344
vt 0.343852 0.542561
vn -0.3901801 -0.206122 0.8973702
v 0.185222 0 0
vn 0.5133029 -0.8564968 -0.05416219
vn 0.3901809 -0.206122 0.8973699
vn -0.5490878 -0.8281997 -0.112196
v 0.240223 0.135476 0
vn 0.995307 0.0961012 0.0113346
vn 0.4814061 -0.147151 -0.8640572
vt 0.289729 0.686234
vt 0.283297 0.686234
vn -0.5985619 -0.7300449 0.3297849
vt 0.2897 0.676222
v -0.239059 0.274924 0.077832
vt 0.279461 0.692958
vn -0.08986463 -0.9800183 0.1774501
v -0.328827 0.316538 0.195574
vt 0.275626 0.699681
vn -0.7515867 0.5131469 -0.4144849
vt 0.292404 0.7099
v -0.194398 0.374458 0.112181
vt 0.281786 0.70479
vn -0.5941662 0.7359012 -0.3246781
vt 0.287947 0.7099
vt 0.303992 0.686234
vt 0.304021 0.676222
vt 0.310424 0.686234
vn 0.5985628 -0.7300438 0.3297859
v 0.239059 0.274924 0.077832
vt 0.31426 0.692958
vn -0.309787 -0.860335 0.404791
v 0.328827 0.316538 0.195574
vt 0.318095 0.699681
vn 0.876526 0.439088 -0.197241
v 0.194398 0.374458 0.112181
vt 0.311935 0.70479
vn 0.594167 0.7359011 -0.324677
vt 0.301317 0.7099
vt 0.305774 0.7099
vt 0.325766 0.686234
vt 0.332199 0.686234
vt 0.33217 0.676222
vt 0.321931 0.692958
vn -0.5845217 0.4863957 -0.6494256
vt 0.324256 0.70479
vt 0.330416 0.7099
v -0.350129 0.0796262 0.00290218
vt 0.326173 0.701429
vn -0.5995458 0.5367329 -0.5936857
vt 0.352894 0.686234
vt 0.34649 0.676222
vt 0.346461 0.686234
vt 0.348243 0.7099
vt 0.354404 0.70479
vt 0.356729 0.692958
vn 0.5845227 0.4863957 -0.6494247
vt 0.360565 0.699681
v 0.35013 0.0796262 0.00290219
vt 0.352486 0.701429
vn 0.5995465 0.5367324 -0.5936854
vn -0.558381 -0.554354 0.6171729
vn -0.300478 0.187881 -0.9351009
v 0.186945 0.227137 0.0780726
vt 0.685466 0.654846
vn 0.433044 0.254395 0.8647289
v 0.166682 0.17713 0.0364808
vt 0.713059 0.710033
vn 0.2622909 -0.7951688 0.5467268
v 0.161505 0.223219 0.0255144
vt 0.657872 0.710033
vn 0.06312132 0.9901804 0.124734
v 0.192122 0.181045 0.0890398
v 0.171859 0.131038 0.047448
v 0.166682 0.177127 0.0364816
v -0.186945 0.227137 0.0780726
vn -0.433044 0.254395 0.8647289
v -0.161505 0.223219 0.0255144
vn -0.06312132 0.9901804 0.124734
v -0.166682 0.17713 0.0364808
vn -0.2622909 -0.7951688 0.5467268
v -0.192122 0.181045 0.0890398
v -0.166682 0.177127 0.0364816
v -0.171859 0.131038 0.047448
v 0.148764 0.429555 0.130912
vn 0.283915 0.9416719 0.180683
v 0.155202 0.371512 0.127099
vn 0.9429942 0.06075821 0.3272161
v 0.115037 0.385958 0.114924
v 0.185231 0.41644 0.141966
vn 0.283915 0.9416718 0.180683
v 0.191668 0.358396 0.138153
vn 0.9429942 0.06075822 0.3272161
v 0.151503 0.372842 0.125978
v 0.371633 0.293964 0.227155
vn 0.7546057 -0.4465528 0.4807918
v 0.331451 0.287353 0.17184
vn 0.4049942 -0.8016653 -0.4396732
vn 0.2726779 0.3884008 0.8802225
v -0.148764 0.429555 0.130912
vn -0.283915 0.9416719 0.180683
v -0.115037 0.385958 0.114924
vn 0.7333908 0.6553928 -0.1805499
v -0.155202 0.371512 0.127099
vn -0.9429942 0.06075821 0.3272161
v -0.185231 0.41644 0.141966
vn -0.283915 0.9416718 0.180683
v -0.151503 0.372842 0.125978
v -0.191668 0.358396 0.138153
vn -0.9429942 0.06075822 0.3272161
v -0.371633 0.293964 0.227155
vn -0.7546057 -0.4465528 0.4807918
vn -0.2726779 0.3884008 0.8802225
v -0.331451 0.287353 0.17184
vn -0.4049942 -0.8016653 -0.4396732
vt 0.369308 0.659254
vt 0.398149 0.718154
vt 0.404806 0.659254
vt 0.375965 0.718154
v -0.0129085 0.0985762 -0.416822
vt 0.440309 0.675578
vn -0.9937631 0.109268 -0.0222589
v 0 0.1993 -0.498676
vt 0.468183 0.713799
vn -0.9950867 0.07858417 -0.06022558
v 0 0.0761863 -0.45858
vt 0.457046 0.667955
vn -0.9637678 -0.08260109 -0.253631
v 0 0.120966 -0.375063
vt 0.425888 0.6832
vn -0.9543929 0.252181 0.159809
v 0.0129085 0.0985762 -0.416822
vn 0.9937631 0.109268 -0.0222588
vn 0.9950867 0.07858427 -0.06022548
vn 0.9543929 0.252181 0.159809
vn 0.9637678 -0.08260109 -0.253631
v 0.0129085 0.0667593 -0.407051
vn 0.9938171 -0.105411 0.0348736
v 0 -0.0618638 -0.427975
vn 0.9951258 -0.09774268 -0.0130751
v 0 0.0654229 -0.454415
vn 0.9637765 -0.05424327 -0.2611369
v 0 0.0680957 -0.359687
vn 0.9544783 -0.1387439 0.2640478
v -0.0129085 0.0667593 -0.407051
vn -0.9938171 -0.105411 0.0348736
vn -0.9951258 -0.09774268 -0.013075
vn -0.9544783 -0.1387439 0.2640478
vn -0.9637765 -0.05424337 -0.2611369
vn 0 -0.885442 -0.46475
vt 0.3256 0.676222
vn -0.8719645 0.4851707 0.06547717
vt 0.283131 0.676222
vt 0.31059 0.676222
vn 0.8719645 0.4851707 0.06547796
vt 0.353059 0.676222
vt 0.601273 0.874503
vt 0.252293 0.756025
vt 0.252293 0.997922
vn 0.3004801 0.1878801 -0.9351004
vn 0.3004801 0.18788 -0.9351004
vn 0.5559906 -0.5539576 0.6196817
vn 0.5559906 -0.5539577 0.6196817
v 0.125953 0.579705 0.228993
vn 0.7904397 -0.3668378 0.4905457
v 0.152072 0.616617 0.214509
v 0.135479 0.623022 0.246036
v 0.108336 0.586955 0.262382
v 0.134365 0.623669 0.24824
v 0.117703 0.630008 0.279882
v -0.125953 0.579705 0.228993
vn -0.7891766 -0.3682708 0.4915048
v -0.135522 0.623002 0.24607
v -0.152147 0.616584 0.214567
v -0.108336 0.586955 0.262382
v -0.117796 0.629966 0.279955
v -0.134409 0.62365 0.248274
vn 0.7891766 0.3682708 -0.4915048
vn -0.79044 0.366838 -0.490545
o merged_0_0_node
g polygon_0
usemtl mat_body_mat_id
f 1/1/1 2/2/2 3/3/3
f 1/1/1 4/4/4 2/2/2
f 1/1/1 3/3/3 5/5/5
f 1/1/1 6/6/6 4/4/4
f 1/1/1 5/5/5 7/7/7
f 1/1/1 7/7/7 6/6/6
f 2/2/2 8/1/8 3/3/3
f 2/2/2 4/4/4 9/8/9
f 2/2/2 10/4/10 8/1/8
f 2/2/2 9/8/9 10/4/10
f 5/5/5 11/9/11 7/7/7
f 5/5/5 3/3/3 12/5/12
f 5/5/5 13/10/13 11/9/11
f 5/5/5 12/5/12 13/10/13
f 3/3/3 8/1/8 12/5/12
f 6/6/6 14/11/14 4/4/4
f 6/6/6 15/12/15 14/11/14
f 6/6/6 16/13/16 15/12/17
f 10/4/10 17/6/18 8/1/8
f 10/4/10 18/11/19 17/6/18
f 7/7/7 11/9/11 19/14/20
f 13/10/13 12/5/12 20/9/21
f 13/10/13 21/15/22 11/9/11
f 13/10/13 20/9/21 21/15/22
f 15/12/15 22/16/23 14/11/14
f 8/1/8 17/6/18 23/7/24
f 8/1/8 23/7/24 12/5/12
f 12/5/12 23/7/24 20/9/21
f 18/11/19 24/12/25 17/6/18
f 18/11/19 25/16/26 24/12/25
f 22/16/23 26/17/27 27/18/28
f 23/7/24 28/14/29 20/9/21
f 17/6/18 24/12/30 29/13/31
f 25/16/26 27/18/28 30/17/32
f 31/19/33 32/20/34 33/21/35
f 31/19/33 34/22/36 32/20/34
f 31/19/33 33/21/35 35/23/37
f 31/19/33 36/24/38 34/22/36
f 31/19/33 35/23/37 37/25/39
f 31/19/33 37/25/39 36/24/38
f 32/20/34 38/26/40 33/21/35
f 34/22/36 36/24/38 39/27/41
f 35/23/37 33/21/35 40/28/42
f 37/25/39 41/29/43 36/24/38
f 36/24/38 41/29/43 39/27/41
f 41/29/43 42/30/44 39/27/41
f 41/29/43 43/31/45 42/30/44
f 43/31/45 44/32/46 42/30/44
f 45/33/47 46/34/48 21/35/22
f 45/33/47 27/36/49 46/34/48
f 45/33/47 21/35/22 20/37/21
f 45/33/47 30/38/32 27/36/49
f 45/33/47 20/37/21 28/39/29
f 45/33/47 28/39/29 30/38/32
f 46/34/48 47/33/50 21/35/22
f 46/34/48 27/36/49 47/33/50
f 21/35/22 47/33/50 11/37/11
f 27/36/49 26/38/27 47/33/50
f 11/37/11 47/33/50 19/39/20
f 19/39/20 47/33/50 26/38/27
f 48/40/51 40/41/42 33/42/35
f 48/40/51 49/43/52 40/41/42
f 48/40/51 33/42/35 38/41/40
f 48/40/51 50/43/53 49/43/52
f 48/40/51 38/41/40 50/43/53
f 51/44/2 52/45/54 53/46/55
f 51/44/2 54/47/56 52/45/54
f 51/44/2 53/46/55 55/48/57
f 51/44/2 56/45/58 54/47/56
f 51/44/2 55/48/57 56/45/58
f 52/45/54 57/48/59 53/46/55
f 52/45/54 54/47/56 58/49/60
f 52/45/54 58/49/60 57/48/59
f 54/47/56 56/45/58 58/49/60
f 55/48/57 53/46/55 59/50/61
f 55/48/57 60/51/33 56/45/58
f 55/48/57 59/50/61 60/51/33
f 60/51/33 57/48/59 58/49/60
f 60/51/33 58/49/60 56/45/58
f 60/51/33 59/50/61 57/48/59
f 57/48/59 59/50/61 53/46/55
f 61/44/2 62/46/55 63/45/58
f 61/44/2 64/48/59 62/46/55
f 61/44/2 63/45/58 65/47/56
f 61/44/2 66/45/54 64/48/59
f 61/44/2 65/47/56 66/45/54
f 62/46/55 67/48/57 63/45/58
f 62/46/55 64/48/59 68/50/61
f 62/46/55 68/50/61 67/48/57
f 65/47/56 69/49/60 66/45/54
f 65/47/56 63/45/58 69/49/60
f 63/45/58 67/48/57 69/49/60
f 64/48/59 70/51/33 68/50/61
f 64/48/59 66/45/54 70/51/33
f 70/51/33 69/49/60 67/48/57
f 70/51/33 67/48/57 68/50/61
f 70/51/33 66/45/54 69/49/60
f 44/52/46 71/53/62 72/53/63
f 44/52/46 73/54/64 71/53/62
f 44/52/46 72/53/63 74/54/65
f 44/52/46 43/55/45 73/54/64
f 44/52/46 74/54/65 42/55/44
f 71/53/62 73/54/64 75/56/66
f 71/53/62 75/56/66 49/57/52
f 72/53/63 76/56/67 74/54/65
f 72/53/63 50/57/53 76/56/67
f 77/58/68 78/59/69 79/60/70
f 77/58/68 80/61/71 78/59/69
f 77/58/68 79/60/70 81/59/72
f 77/58/68 81/59/72 80/61/71
f 79/60/70 78/59/69 81/59/72
f 80/61/71 82/62/73 78/59/69
f 80/61/71 81/59/72 82/62/73
f 83/63/74 38/64/75 32/65/76
f 83/63/74 84/66/77 38/64/75
f 83/63/74 32/65/76 34/67/78
f 83/63/74 34/67/78 84/66/77
f 85/63/79 37/67/80 35/65/81
f 85/63/79 86/66/82 37/67/80
f 85/63/79 35/65/81 40/64/83
f 85/63/79 40/64/83 86/66/82
f 39/68/41 76/69/84 34/70/36
f 39/68/41 87/71/85 76/69/84
f 39/68/41 88/72/86 87/71/85
f 88/72/86 42/73/44 89/74/87
f 42/73/44 74/75/65 89/74/87
f 41/76/43 37/77/39 75/78/88
f 41/76/43 75/78/88 90/79/89
f 41/76/43 90/79/89 91/80/90
f 91/80/90 92/81/91 43/82/45
f 92/81/91 73/83/64 43/82/45
f 76/84/67 50/85/53 38/86/40
f 76/84/67 87/87/92 89/88/87
f 76/84/67 89/88/87 74/89/65
f 89/88/87 93/90/93 88/80/86
f 75/91/66 40/92/42 49/93/52
f 75/91/66 73/94/64 92/95/91
f 75/91/66 92/95/91 90/96/94
f 92/95/91 91/97/90 94/98/95
f 91/97/90 90/96/89 94/98/96
f 90/96/89 92/95/97 94/98/96
f 95/99/98 96/100/99 97/101/100
f 95/99/98 97/101/100 96/100/99
f 98/99/98 99/100/99 100/101/100
f 98/99/98 100/101/100 99/100/99
f 101/99/101 102/101/102 103/100/103
f 101/99/101 103/100/103 102/101/102
f 104/99/101 105/101/102 106/100/103
f 104/99/101 106/100/103 105/101/102
f 107/99/104 108/100/105 109/101/65
f 107/99/104 109/101/65 108/100/105
f 110/99/106 111/100/107 112/101/65
f 110/99/106 112/101/65 111/100/107
f 113/99/108 114/100/109 91/101/110
f 113/99/108 91/101/110 114/100/109
f 115/99/111 116/101/112 117/100/113
f 115/99/111 117/100/113 116/101/112
f 118/99/114 119/101/64 120/100/115
f 118/99/114 120/100/115 119/101/64
f 121/99/116 88/101/117 122/100/118
f 121/99/116 122/100/118 88/101/117
f 50/102/53 71/103/62 49/104/52
f 50/102/53 72/105/63 71/103/62
f 123/106/119 124/107/120 125/108/121
f 123/106/119 126/109/122 124/107/120
f 127/106/123 124/107/124 126/109/125
f 127/106/123 125/108/126 124/107/124
f 128/106/127 129/107/128 130/108/129
f 128/106/127 131/109/130 129/107/128
f 132/106/131 129/107/132 131/109/133
f 132/106/131 130/108/134 129/107/132
f 78/59/135 82/62/135 81/59/135
f 84/110/77 76/84/136 38/86/75
f 84/111/77 34/70/78 76/69/136
f 86/112/82 75/78/137 37/77/80
f 86/113/82 40/92/83 75/91/137
f 88/114/86 39/115/41 42/116/44
f 93/90/138 89/88/139 87/87/139
f 88/80/140 93/90/141 87/87/140
f 41/115/43 91/114/90 43/116/45
f 133/99/142 134/100/142 135/101/142
f 136/99/142 137/100/142 138/101/142
f 139/99/143 140/101/143 141/100/143
f 142/99/143 143/101/143 144/100/143
f 139/99/144 141/100/144 140/101/144
f 142/99/144 144/100/144 143/101/144
f 133/99/145 135/101/145 134/100/145
f 136/99/145 138/101/145 137/100/145
vt 0.598047 -0.811398
v 0 0.699151 0.418481
vt 0.00377708 -0.672566
vn 0 -0.30698 0.951716
vt 0.00377708 -1.17095
vt -0.240084 -0.0650593
v 0 0.797319 0.436079
vt 0.00377708 -0.324268
vn 0 0.3131902 0.9496905
vt 1.15268 -0.339278
vt 0.620797 0.154059
o merged_1_0_node
g polygon_0
usemtl mat_brow_mat_id
f 25/117/26 145/118/146 27/119/28
f 27/119/28 145/118/146 22/117/23
f 9/120/9 146/121/147 18/122/19
f 9/120/9 18/122/19 10/123/10
f 145/118/146 146/121/147 14/122/14
f 9/120/9 14/122/14 146/121/147
f 145/118/146 18/122/19 146/121/147
f 22/117/23 145/118/146 14/122/14
f 145/118/146 25/117/26 18/122/19
f 9/120/9 4/123/4 14/122/14
vt 1.10243 0.754298
vt 0.400471 0.9684
vt 0.208551 0.820666
vt 1.47433 0.810046
vt 1.11632 0.986486
vt 1.45846 0.910774
vt -0.354104 0.898254
o merged_2_0_node
g polygon_0
usemtl TEX_ANIM_EYE_mat_id
f 28/124/29 24/125/30 30/126/32
f 28/124/29 23/127/24 29/128/31
f 23/127/24 17/129/18 29/128/31
f 24/125/30 25/130/26 30/126/32
f 29/128/31 24/125/30 28/124/29
f 19/124/20 26/126/27 15/125/17
f 15/125/17 26/126/27 22/130/23
f 19/124/20 15/125/17 16/128/16
f 16/128/16 6/129/6 7/127/7
f 16/128/16 7/127/7 19/124/20
