mtllib Absol_Normal.mtl
v 0 0.0707578 0.00904845
vt 0.480508 0.303177
vn 0 -0.9999419 0.0107771
v -0.130889 0.08875714 0.06586922
vt 0.349375 0.370659
vn -0.9309797 -0.3212279 -0.1734636
v -0.130889 0.08229795 -0.03889713
vt 0.591159 0.346446
vn -0.9005492 -0.3961749 0.1790438
v -0.133201 -1.286134E-05 0.1571964
vt 0.138613 0
vn -0.2541195 -0.7799051 0.5719888
v -0.133201 -1.473622E-05 -0.1629721
vt 0.877492 0
vn -0.2752197 -0.7679517 -0.5783635
v 0 0.09024593 0.2172603
vt 0 0.376249
vn 0 -0.3636858 0.9315217
v 0 0.09067545 -0.2160572
vt 1 0.377861
vn 0 -0.3496431 -0.936883
v 0.133201 -1.286134E-05 0.1571964
vn 0.2541185 -0.7799053 0.571989
v 0.133201 -1.473622E-05 -0.1629721
vn 0.2752207 -0.7679514 -0.5783634
v 0.130889 0.08875714 0.06586932
vn 0.9309797 -0.3212279 -0.1734636
v 0.130889 0.08229795 -0.03889713
vn 0.9005492 -0.3961749 0.1790438
v -0.131555 0.1657432 0.1423041
vt 0.172979 0.411818
vn -0.8647575 0.1112029 0.4897227
v -0.131555 0.1657431 -0.1299822
vt 0.801362 0.411818
vn -0.8627116 0.1694216 -0.4764714
v 0.131555 0.1657432 0.1423041
vn 0.8647575 0.1112029 0.4897227
v 0.131555 0.1657431 -0.1299812
vn 0.8627119 0.1694214 -0.476471
v -0.119072 0.247841 -0.108381
vt 0.751512 0.434903
vn -0.732426 0.630376 -0.257251
v 0 0.1657432 0.2161869
vt 0.00247324 0.411818
vn 0.0006791337 0.12043 0.9927216
v -0.119072 0.247841 0.131562
vt 0.197771 0.434903
vn -0.7970988 0.5283619 0.2923479
v 0 0.247841 0.204802
vt 0.0287457 0.434903
vn 0 0.5208198 0.8536667
v 0 0.1657431 -0.2160553
vt 1 0.411818
vn 0 0.2285899 -0.9735228
v 0 0.266752 0.0740555
vt 0.330484 0.480745
vn 0 0.9998744 0.01584791
v 0 0.247841 -0.179055
vt 0.914614 0.434903
vn 0 0.7632716 -0.6460777
v 0.119072 0.247841 -0.108381
vn 0.732426 0.630376 -0.257251
v 0.119072 0.247841 0.131562
vn 0.7970988 0.5283619 0.2923479
v 0.14078 0.428972 -0.0384204
vt 0.463431 0.062947
vn 0.6120769 -0.0009013497 -0.7907978
v 0.244104 0.406909 0.103342
vt 0.480546 0.0596104
vn 0.9396786 -0.03887948 -0.3398419
v 0.194163 0.306607 0.102359
vt 0.476016 0.0515939
vn 0.6603939 -0.6717209 -0.3356649
v 0.212318 0.517203 0.115197
vt 0.476844 0.0747992
vn 0.8034946 0.5675857 -0.1795629
v 0.122283 0.339197 -0.0210446
vt 0.462005 0.0493705
vn 0.5118793 -0.5228642 -0.6816103
v 0.122596 0.518747 -0.025104
vt 0.460681 0.0765235
vn 0.521868 0.589804 -0.616267
v 0 0.359156 -0.0697782
vt 0.442141 0.052389
vn 0 -0.2605761 -0.9654533
v 0 0.494547 -0.0700248
vt 0.442141 0.0728639
vn 0 0.2743521 -0.9616293
v 0.218875 0.302854 0.243661
vt 0.479277 0.0491532
vn 0.7285009 -0.6792909 0.08860259
v 0.232641 0.396053 0.233915
vt 0.478814 0.0621381
vn 0.9087111 0.133343 0.395555
v 0 0.291612 -0.0127864
vt 0.442141 0.0391114
vn 0 -0.7507998 -0.6605298
v 0.071018 0.285413 0.0488822
vt 0.450659 0.0388021
vn 0.3063111 -0.8690872 -0.3884081
v 0 0.586435 0.00177052
vt 0.442141 0.0867598
vn 0 0.8752196 -0.4837258
v 0.11265 0.588372 0.135297
vt 0.459177 0.0891123
vn 0.4272801 0.9041191 -0.000640622
v 0.144719 0.259656 0.337338
vt 0.464026 0.0373416
vn -0.8233002 -0.3878771 0.4144011
v 0.183428 0.51313 0.246003
vt 0.463006 0.0765235
vn 0.6402361 0.6170831 0.4575
v 0.157034 0.333813 0.306043
vt 0.46723 0.0569327
vn -0.2671522 0.3120592 0.9117285
v 0.136479 0.451679 0.290279
vt 0.465118 0.0729899
vn -0.112133 -0.1070751 0.9879075
v -0.122283 0.339197 -0.0210446
vt 0.422277 0.0493705
vn -0.631506 -0.517166 -0.5777019
v -0.14078 0.428972 -0.0384204
vt 0.420851 0.062947
vn -0.7038177 -0.008174536 -0.7103336
v 0.0989957 0.274703 0.124347
vt 0.465331 0.0410351
vn -0.6700052 -0.7388152 0.07242341
v 0 0.620313 0.139531
vt 0.442141 0.0918832
vn 0 0.9999884 0.004815782
v -0.122596 0.518747 -0.025104
vt 0.423601 0.0765235
vn -0.5897819 0.5595019 -0.5823359
v -0.11265 0.588372 0.135297
vt 0.425105 0.0891123
vn -0.4842939 0.8731439 -0.05549079
v 0.166597 0.422496 0.197641
vt 0.46946 0.0623648
vn -0.9770796 0.1733159 0.1236
v 0.0917172 0.470771 0.286076
vt 0.458893 0.0742662
vn 0.254855 0.0559547 0.965359
v -0.071018 0.285413 0.0488822
vt 0.433623 0.0388021
vn -0.4751138 -0.8238738 -0.309029
v 0 0.586544 0.255745
vt 0.442141 0.0899663
vn 0.0767381 0.876901 0.474506
v -0.199805 0.420491 0.124347
vt 0.410137 0.0616645
vn -0.9957841 -0.0864739 -0.0305997
v -0.167245 0.332224 0.124347
vt 0.412797 0.0493705
vn -0.8362256 -0.5482428 -0.01251169
v -0.108843 0.552857 0.240509
vt 0.42319 0.0828179
vn -0.522671 0.704681 0.479833
v -0.183273 0.518747 0.124347
vt 0.414424 0.0765235
vn -0.9015323 0.4277481 -0.06535422
v -0.0951423 0.274703 0.124347
vt 0.425105 0.0384928
vn -0.4760162 -0.8758043 0.07984603
v -0.144721 0.484556 0.262463
vt 0.421276 0.0765235
vn -0.7328138 0.160591 0.6612068
v -0.0329921 0.5159 0.300933
vt 0.187325 0.706864
vn -0.4081278 0.3305219 0.8509917
vt 0.00638595 0.999199
vt 0.643127 0.781493
v 0 0.563439 0.301569
vt 0.00638596 0.846233
vn -5.130161E-05 0.7743561 0.63275
vt 0.766886 0.748842
v 0 0.503257 0.32876
vt 0.00638596 0.656806
vn 0.0006791408 0.12043 0.9927216
v 0 0.42779 0.326725
vt 0.00638596 0.428157
vn -0.09464832 0.123295 0.9878461
v 0.0330301 0.515937 0.300884
vn 0.3736492 0.4273833 0.8232435
vt 1.04456 0.620114
vt 0.512767 0.58017
v 0 0.393138 -0.342092
vt 0.0364657 0.82757
vn -1 0 0
v 0 0.300257 -0.297515
vt 0.0582049 0.784092
v 0 0.25282 -0.188882
vt 0.0364657 0.784092
v 0 0.309265 -0.389678
vt 0.079944 0.784092
v 0 0.405803 -0.436439
vt 0.079944 0.805831
v 0 0.528901 -0.551169
vt 0.079944 0.82757
vn 1 0 0
v 0.0973194 0.07247305 -0.1919443
vt 0.0565494 0.837303
vn 0.5129756 0.2725347 -0.8139907
v 0.09084569 0.06082882 -0.1730903
vt 0.030543 0.78529
vn -0.8673644 -0.2312655 -0.4406759
v 0.107349 0.07019603 -0.1604286
vt 0.0478806 0.78529
vn 0.8574008 0.4552631 -0.2399987
v 0.112423 0.04217542 -0.1640669
vt 0.0652184 0.78529
vn 0.830159 -0.09204934 -0.5498754
vt 0.082556 0.78529
v -0.0973194 0.07247305 -0.1919443
vn -0.5129756 0.2725347 -0.8139907
v -0.107349 0.07019603 -0.1604286
vn -0.8574004 0.4552639 -0.2399985
v -0.09084569 0.06082882 -0.1730903
vn 0.8673636 -0.2312666 -0.440677
v -0.112423 0.04217542 -0.1640669
vn -0.8301591 -0.09204835 -0.5498755
v 0.0973194 0.03937978 0.06454915
vn -0.03196391 -0.7741428 -0.6322035
v 0.0816176 0.04719228 0.08035627
vn -0.6632923 -0.6736143 -0.3260172
v 0.107349 0.05607345 0.08872061
vn 0.8575642 0.1815579 -0.4812696
v 0.112423 0.03644323 0.1087059
vn 0.5373801 -0.8091643 -0.2376464
v -0.0973194 0.03937978 0.06454915
vn 0.03196354 -0.7741424 -0.632204
v -0.107349 0.05607345 0.08872061
vn -0.857564 0.1815588 -0.4812695
v -0.0816176 0.04719228 0.08035627
vn 0.6603745 -0.6717362 -0.3356724
v -0.112423 0.03644323 0.1087059
vn -0.5373808 -0.8091639 -0.2376463
v 0 0.275278 0.19969
vt 0.691304 0.0328816
vn 0 0.3874829 0.9218768
v -0.0625107 0.268716 0.171181
vt 0.675254 0.0413668
vn -0.4187409 0.351875 0.8371619
v 0 0.117224 0.266124
vt 0.691304 0.02312
vn 0 0.3874829 0.9218769
v 0.0625107 0.268716 0.171181
vt 0.707355 0.0413668
vn 0.4187413 0.3518752 0.8371616
v 0 0.290775 -0.0108219
vt 0.691304 0.086934
vn 0.000135811 0.958882 -0.283805
v 0.0625107 0.284453 0.0551752
vt 0.707355 0.0699883
vn 0.3686699 0.8913387 -0.2638139
v 0 0.267759 -0.0885838
vt 0.691304 0.106901
v -0.0625107 0.284472 0.0551753
vt 0.675254 0.0699883
vn -0.3684388 0.8914266 -0.2638399
vn 0 -0.3874829 -0.9218768
vn 0 -0.3874829 -0.9218769
vn 0.4187409 -0.351875 -0.8371619
vn -0.4187413 -0.3518752 -0.8371616
vn -0.000135823 -0.958882 0.283805
vn -0.3686699 -0.8913387 0.2638139
vn 0.3684388 -0.8914266 0.2638399
v -0.08163001 0.271262 0.160425
vt 0.670345 0.0448702
vn -0.2705809 0.4404907 0.8560104
v -0.08644859 0.161879 0.215189
vt 0.671566 0.0344772
vn -0.2705809 0.4404908 0.8560105
v -0.0347972 0.266544 0.177657
vt 0.68237 0.0385392
v 0.08163001 0.271262 0.160425
vt 0.712264 0.0448702
vn 0.2705809 0.4404907 0.8560104
v 0.0347971 0.266544 0.177657
vt 0.700239 0.0385392
v 0.0864485 0.161879 0.215189
vt 0.711043 0.0344772
vn 0.2705809 0.4404908 0.8560105
v 0.106737 0.268079 0.124434
vt 0.718711 0.0530302
vn 0.461085 0.743003 0.485126
v 0.0636284 0.267505 0.166285
vt 0.707642 0.043378
v 0.156754 0.209267 0.16697
vt 0.730433 0.044387
v -0.106737 0.268079 0.124434
vt 0.663898 0.0530301
vn -0.4610862 0.7430022 0.4851261
v -0.156754 0.209267 0.16697
vt 0.652175 0.044387
vn -0.4610861 0.7430022 0.4851261
v -0.0636284 0.267505 0.166285
vt 0.674967 0.043378
vt 0.546584 0.0409938
vn -0.3265839 0.9447025 0.02966719
vt 0.590062 0.0409938
v -0.152392 0.257581 0.039357
vt 0.568323 0.0844721
vn 0.3162499 0.9085867 -0.2728669
v 0.0417549 0.262559 -0.0611303
vn -0.3162499 0.9085867 -0.2728669
v -0.0417549 0.262559 -0.0611303
vn 0.3250239 0.9456066 0.01369779
v 0.152392 0.257581 0.039357
v 0.08163001 0.277284 0.0704851
vt 0.712264 0.0660572
vn 0.08540138 0.9939557 -0.06898288
v 0.08477839 0.268219 -0.0562354
vt 0.713073 0.0978911
v 0.0347972 0.277419 0.0144399
vt 0.700239 0.0804476
v -0.08163001 0.277284 0.0704852
vt 0.670345 0.0660571
vn -0.08540138 0.9939557 -0.06898299
v -0.0347971 0.277419 0.01444
vt 0.68237 0.0804476
v -0.08477839 0.268219 -0.0562353
vt 0.669536 0.0978911
v 0.08675231 0.27861 0.0878177
vt 0.713579 0.0616068
vn 0.2843288 0.9586185 -0.01441749
v 0.136517 0.262262 -0.0177353
vt 0.726357 0.0880056
vn 0.2843288 0.9586184 -0.01441749
v 0.0544493 0.287483 0.0406996
vt 0.705285 0.0737051
v -0.08675221 0.27861 0.0878177
vt 0.669029 0.0616068
vn -0.2843288 0.9586183 -0.01441849
v -0.0544493 0.287483 0.04069971
vt 0.677324 0.0737051
v -0.136517 0.262262 -0.0177352
vt 0.656251 0.0880055
vn -0.2843288 0.9586184 -0.01441849
v -0.09060091 0.269903 0.138164
vt 0.668041 0.0486796
vn -0.3421231 0.9382243 0.05183652
v -0.0677684 0.282744 0.0564324
vt 0.673904 0.0696654
v -0.178843 0.239124 0.112835
vt 0.646791 0.0551832
vn -0.3421231 0.9382243 0.05183651
v 0.0906009 0.269903 0.138164
vt 0.714568 0.0486796
vn 0.342124 0.9382239 0.05183689
v 0.178843 0.239124 0.112835
vt 0.735818 0.0551832
vn 0.342124 0.938224 0.0518369
v 0.0677684 0.282744 0.0564323
vt 0.708705 0.0696655
vn 0.2705811 -0.4404911 -0.8560103
vn 0.2705811 -0.4404911 -0.8560102
vn -0.2705811 -0.4404911 -0.8560103
vn -0.2705811 -0.4404911 -0.8560102
vn -0.461085 -0.743003 -0.485126
vn 0.4610862 -0.7430022 -0.4851261
vn 0.4610861 -0.7430022 -0.4851261
vn 0.3265839 -0.9447025 -0.02966719
vn -0.3162499 -0.9085867 0.2728669
vn 0.3162499 -0.9085867 0.2728669
vn -0.3250239 -0.9456066 -0.01369799
vn -0.08540138 -0.9939557 0.06898309
vn 0.08540138 -0.9939557 0.06898288
vn -0.2843288 -0.9586185 0.01441729
vn -0.2843288 -0.9586184 0.01441729
vn 0.2843288 -0.9586183 0.01441829
vn 0.2843288 -0.9586184 0.01441829
vn 0.3421231 -0.9382243 -0.05183661
vn -0.342124 -0.9382239 -0.05183699
vn -0.342124 -0.9382239 -0.051837
o merged_0_0_node
g polygon_0
usemtl mat_body_mat_id
f 1/1/1 2/2/2 3/3/3
f 1/1/1 4/4/4 2/2/2
f 1/1/1 3/3/3 5/5/5
f 1/1/1 6/6/6 4/4/4
f 1/1/1 5/5/5 7/7/7
f 1/1/1 8/4/8 6/6/6
f 1/1/1 7/7/7 9/5/9
f 1/1/1 10/2/10 8/4/8
f 1/1/1 9/5/9 11/3/11
f 1/1/1 11/3/11 10/2/10
f 2/2/2 12/8/12 3/3/3
f 2/2/2 4/4/4 12/8/12
f 4/4/4 6/6/6 12/8/12
f 5/5/5 13/9/13 7/7/7
f 5/5/5 3/3/3 13/9/13
f 3/3/3 12/8/12 13/9/13
f 8/4/8 10/2/10 14/8/14
f 8/4/8 14/8/14 6/6/6
f 10/2/10 11/3/11 14/8/14
f 9/5/9 7/7/7 15/9/15
f 9/5/9 15/9/15 11/3/11
f 11/3/11 15/9/15 14/8/14
f 12/8/12 16/10/16 13/9/13
f 12/8/12 6/6/6 17/11/17
f 12/8/12 18/12/18 16/10/16
f 12/8/12 17/11/17 19/13/19
f 12/8/12 19/13/19 18/12/18
f 17/11/17 6/6/6 14/8/14
f 17/11/17 14/8/14 19/13/19
f 7/7/7 20/14/20 15/9/15
f 7/7/7 13/9/13 20/14/20
f 16/10/16 18/12/18 21/15/21
f 16/10/16 22/16/22 13/9/13
f 16/10/16 21/15/21 22/16/22
f 20/14/20 22/16/22 15/9/15
f 20/14/20 13/9/13 22/16/22
f 18/12/18 19/13/19 21/15/21
f 14/8/14 15/9/15 23/10/23
f 14/8/14 24/12/24 19/13/19
f 14/8/14 23/10/23 24/12/24
f 23/10/23 15/9/15 22/16/22
f 23/10/23 21/15/21 24/12/24
f 23/10/23 22/16/22 21/15/21
f 21/15/21 19/13/19 24/12/24
f 25/17/25 26/18/26 27/19/27
f 25/17/25 28/20/28 26/18/26
f 25/17/25 27/19/27 29/21/29
f 25/17/25 30/22/30 28/20/28
f 25/17/25 29/21/29 31/23/31
f 25/17/25 32/24/32 30/22/30
f 25/17/25 31/23/31 32/24/32
f 26/18/26 33/25/33 27/19/27
f 26/18/26 28/20/28 34/26/34
f 26/18/26 34/26/34 33/25/33
f 29/21/29 35/27/35 31/23/31
f 29/21/29 27/19/27 36/28/36
f 29/21/29 36/28/36 35/27/35
f 30/22/30 32/24/32 37/29/37
f 30/22/30 38/30/38 28/20/28
f 30/22/30 37/29/37 38/30/38
f 34/26/34 39/31/39 33/25/33
f 34/26/34 28/20/28 40/32/40
f 34/26/34 41/33/41 39/31/39
f 34/26/34 40/32/40 42/34/42
f 34/26/34 42/34/42 41/33/41
f 28/20/28 38/30/38 40/32/40
f 31/23/31 35/27/35 43/35/43
f 31/23/31 44/36/44 32/24/32
f 31/23/31 43/35/43 44/36/44
f 27/19/27 45/37/45 36/28/36
f 27/19/27 33/25/33 45/37/45
f 33/25/33 39/31/39 45/37/45
f 37/29/37 46/38/46 38/30/38
f 37/29/37 32/24/32 47/39/47
f 37/29/37 48/40/48 46/38/46
f 37/29/37 47/39/47 48/40/48
f 32/24/32 44/36/44 47/39/47
f 42/34/42 49/41/49 41/33/41
f 42/34/42 40/32/40 50/42/50
f 42/34/42 50/42/50 49/41/49
f 49/41/49 45/37/45 39/31/39
f 49/41/49 39/31/39 41/33/41
f 35/27/35 51/43/51 43/35/43
f 38/30/38 46/38/46 52/44/52
f 38/30/38 52/44/52 40/32/40
f 46/38/46 48/40/48 52/44/52
f 44/36/44 53/45/53 47/39/47
f 44/36/44 43/35/43 54/46/54
f 44/36/44 54/46/54 53/45/53
f 43/35/43 51/43/51 54/46/54
f 48/40/48 55/47/55 52/44/52
f 48/40/48 47/39/47 56/48/56
f 48/40/48 56/48/56 55/47/55
f 47/39/47 53/45/53 56/48/56
f 51/43/51 57/49/57 54/46/54
f 55/47/55 56/48/56 58/50/58
f 59/51/59 52/52/52 55/53/55
f 59/51/59 60/54/60 52/52/52
f 59/51/59 55/53/55 58/55/58
f 59/51/59 61/56/61 60/54/60
f 59/51/59 58/55/58 62/57/62
f 59/51/59 62/57/62 61/56/61
f 52/52/52 60/54/60 63/51/63
f 52/52/52 63/51/63 40/58/40
f 61/56/61 62/57/62 63/51/63
f 61/56/61 63/51/63 60/54/60
f 40/58/40 63/51/63 50/59/50
f 50/59/50 63/51/63 62/57/62
f 64/60/64 65/61/64 66/62/64
f 64/60/64 67/63/64 65/61/64
f 64/60/64 68/64/64 67/63/64
f 64/60/64 69/65/64 68/64/64
f 64/60/65 66/62/65 65/61/65
f 64/60/65 65/61/65 67/63/65
f 64/60/65 67/63/65 68/64/65
f 64/60/65 68/64/65 69/65/65
f 70/66/66 71/67/67 72/68/68
f 70/66/66 72/68/68 73/69/69
f 70/66/66 73/69/69 71/70/67
f 74/66/70 75/68/71 76/67/72
f 74/66/70 77/69/73 75/68/71
f 74/66/70 76/70/72 77/69/73
f 78/66/74 79/67/75 80/68/76
f 78/66/74 80/68/76 81/69/77
f 78/66/74 81/69/77 79/70/75
f 82/66/78 83/68/79 84/67/80
f 82/66/78 85/69/81 83/68/79
f 82/66/78 84/70/80 85/69/81
f 86/71/82 87/72/83 88/73/84
f 86/71/82 88/73/84 89/74/85
f 90/75/86 91/76/87 92/77/86
f 90/75/86 92/77/86 93/78/88
f 86/71/89 88/73/90 87/72/91
f 86/71/89 89/74/92 88/73/90
f 90/75/93 92/77/93 91/76/94
f 90/75/93 93/78/95 92/77/93
f 94/79/96 95/80/97 96/81/96
f 97/82/98 98/83/98 99/84/99
f 100/85/100 101/86/100 102/87/100
f 103/88/101 104/89/102 105/90/101
f 57/91/103 51/92/103 106/93/103
f 35/91/104 36/92/104 107/93/104
f 51/91/105 35/92/105 108/93/105
f 36/91/106 45/92/106 109/93/106
f 110/94/107 111/95/107 112/96/107
f 113/97/108 114/98/108 115/99/108
f 116/100/109 117/101/110 118/102/109
f 119/103/111 120/104/111 121/105/112
f 122/106/113 123/107/113 124/108/114
f 125/109/115 126/110/116 127/111/115
f 94/79/117 96/81/117 95/80/118
f 97/82/119 99/84/120 98/83/119
f 100/85/121 102/87/121 101/86/121
f 103/88/122 105/90/122 104/89/123
f 57/91/124 106/93/124 51/92/124
f 35/91/125 107/93/125 36/92/125
f 51/91/126 108/93/126 35/92/126
f 36/91/127 109/93/127 45/92/127
f 110/94/128 112/96/128 111/95/128
f 113/97/129 115/99/129 114/98/129
f 116/100/130 118/102/130 117/101/131
f 119/103/132 121/105/133 120/104/132
f 122/106/134 124/108/134 123/107/134
f 125/109/135 127/111/136 126/110/135
v 0 0.240941 0.124347
vt 0.00627971 -0.185895
vn 0.000107537 -0.998531 0.05418281
v 0 0.280902 0.260195
vt 0.00627971 0.206221
vn 8.060357E-05 -0.9549546 0.2967519
vt 0.459953 -0.15576
vt 0.933021 -0.115366
v -0.10245 0.324066 0.27563
vt 0.585873 0.285157
vn -0.5726457 -0.6472677 0.5031118
v 0 0.300137 0.317621
vt 0.00627971 0.269396
vn 0 -0.7065551 0.7076581
v -0.136876 0.377915 0.260507
vt 0.621038 0.58624
vn -0.7642043 -0.1769811 0.6202173
vt 0.935709 0.639109
v 0 0.372317 0.358458
vt 0.00627971 0.550779
vn 0 -0.171845 0.985124
vt 0.935709 0.985184
vt 0.612215 0.985184
v 0 0.386215 0.342581
vt 0.00627971 0.58624
vn 0 0.5253249 0.8509018
v 0.0951423 0.274722 0.1243
vn 0.4368088 -0.8843417 0.1647359
v 0.167245 0.332224 0.124347
vn 0.7975819 -0.5151439 0.313831
v 0.10245 0.324066 0.27563
vn 0.5898381 -0.6357981 0.4978471
v 0.136876 0.377915 0.260507
vn 0.7988642 -0.193462 0.5695511
v 0.199805 0.420491 0.124347
vn 0.932066 -0.089478 0.351065
v 0.183273 0.518747 0.124347
vn 0.9402187 0.158191 0.3016029
v 0.144721 0.484556 0.262463
vn 0.8591378 -0.008428748 0.5116749
vt 0.900704 0.0663887
vt 0.920247 0.0670984
vn -0.2516061 -0.9186514 -0.3045881
vt 0.93979 0.0572539
vt 0.93979 0.067808
vn 0 -0.9380141 -0.346597
vt 0.959333 0.0670984
vn 0.251623 -0.9186519 -0.304573
vt 0.978876 0.0663887
v -0.222564 0.514128 0.266497
vt 0.179048 0.890759
vn 0.949934 -0.309728 0.0411571
v -0.221871 0.51127 0.228988
vt 0.179217 0.899895
vn 0.907918 -0.416818 -0.0441324
v -0.188332 0.599785 0.121004
vt 0.187387 0.926199
vn 0.8680575 -0.4901543 0.07889795
v -0.239846 0.479492 0.238077
vt 0.174838 0.897681
vn 0.8471218 -0.5157739 -0.127914
v -0.196973 0.582467 0.106794
vt 0.185282 0.929661
v -0.312011 0.511953 0.282971
vt 0.157259 0.886746
vn -0.8609399 0.501171 -0.0872362
v -0.254452 0.625019 0.110175
vt 0.17128 0.928838
vn -0.82537 0.54189 -0.158492
vn -0.5568202 -0.5791792 -0.5954012
vn -0.5275853 -0.5863203 -0.6147213
vn 0.141742 0.820805 0.553343
vn 0.175341 0.82241 0.5412
v -0.176087 0.472558 0.248326
vt 0.190369 0.895185
vn 0.6310838 -0.6553918 0.4149638
vn 0.258448 -0.4523091 0.8535931
vn 0.06269548 -0.8446167 0.5316878
vn 0.5850798 0.3196329 -0.7453297
vn 0.150066 -0.6708209 0.7262779
v -0.080715 0.705643 -0.0937337
vt 0.213601 0.978508
vn 0.8296 -0.537629 0.150728
vn -0.479257 -0.596213 -0.644083
vn 0.2287941 0.8227864 0.5202652
o merged_1_0_node
g polygon_0
usemtl mat_head_mat_id
f 128/112/137 129/113/138 57/114/57
f 54/115/54 57/114/57 130/116/139
f 57/114/57 129/113/138 130/116/139
f 130/116/139 129/113/138 131/117/140
f 130/116/139 132/118/141 54/115/54
f 53/119/53 54/115/54 132/118/141
f 133/120/142 130/116/139 131/117/140
f 56/121/56 53/119/53 58/122/58
f 53/119/53 132/118/141 58/122/58
f 134/123/143 132/118/141 133/120/142
f 133/120/142 132/118/141 130/116/139
f 128/112/137 135/114/144 129/113/138
f 136/115/145 137/116/146 135/114/144
f 135/114/144 137/116/146 129/113/138
f 137/116/146 131/117/140 129/113/138
f 138/118/147 137/116/146 139/119/148
f 136/115/145 139/119/148 137/116/146
f 133/120/142 131/117/140 137/116/146
f 140/121/149 141/122/150 139/119/148
f 139/119/148 141/122/150 138/118/147
f 134/123/143 133/120/142 138/118/147
f 133/120/142 137/116/146 138/118/147
f 57/124/57 51/125/151 128/126/137
f 128/126/137 51/125/151 35/127/152
f 35/127/152 36/128/153 128/126/137
f 128/126/137 36/128/153 135/129/144
f 142/130/154 143/131/155 144/132/156
f 145/133/157 146/134/156 143/131/155
f 143/131/155 146/134/156 144/132/156
f 147/135/158 148/136/159 145/133/160
f 145/133/160 148/136/159 146/134/161
f 147/135/158 142/130/162 148/136/159
f 148/136/159 142/130/162 144/132/163
f 149/137/164 142/130/165 145/133/166
f 149/137/164 145/133/166 143/131/167
f 149/137/164 143/131/167 142/130/165
f 145/133/166 142/130/165 147/135/168
f 144/132/156 146/134/156 150/138/169
f 146/134/161 148/136/159 150/138/170
f 148/136/159 144/132/163 150/138/171
vt -0.247262 0.75247
vt -0.247262 0.849601
vn -0.0318904 0.155309 0.9873511
vt 1.03343 0.75247
vt 0.861856 1.01026
vt 0.490164 0.956523
vn 0.4204691 -0.04504081 0.9061882
o merged_2_0_node
g polygon_0
usemtl TEX_ANIM_EYE_mat_id
f 134/139/143 62/140/172 132/141/141
f 132/141/141 62/140/172 58/142/58
f 141/142/150 50/143/173 138/141/147
f 134/139/143 138/141/147 62/140/172
f 138/141/147 50/143/173 62/140/172
