mtllib Skitty.mtl
v 0.211646 0.514441 0.05627991
vt 0.927346 0.190009
vn 0.4299538 0.127571 -0.8937927
v 0.193489 0.495368 0.0934626
vt 0.918723 0.190009
vn 0.5715448 -0.09257926 0.8153316
v 0.164485 0.362199 0.0748713
vt 0.907226 0.155518
vn 0.8320769 -0.362087 -0.420168
v 0.2688 0.523005 0.0748713
vt 0.92747 0.204103
vn 0.6928564 -0.6942334 0.1949101
v 0.106827 0.417087 -0.0170501
vt 0.924472 0.155518
vn 0.3145092 0.3313932 -0.8895294
v 0.213062 0.528682 0.0748713
vt 0.935969 0.2245
vn 0.7720049 0.4885589 0.4065939
v 0.0440826 0.476818 0.0673131
vt 0.935969 0.155518
vn -0.3416629 0.9375238 -0.06569359
v 0.218368 0.571015 0.0346708
vt 0.934269 0.204103
vn -0.5222639 0.2615309 -0.8116908
v 0.188324 0.536644 0.0748713
vt 0.938843 0.190009
vn -0.5253149 0.8433459 0.11319
v 0.102281 0.425953 0.131864
vt 0.947465 0.155518
vn -0.2714658 0.5989246 0.7533895
v 0.218368 0.571015 0.115072
vt 0.941068 0.204103
vn -0.110221 0.253066 0.9611498
vt 0.95034 0.190009
v -0.211646 0.514441 0.05627991
vn -0.4299538 0.127571 -0.8937927
v -0.164485 0.362199 0.0748713
vn -0.8320776 -0.3620868 -0.4201668
v -0.193489 0.495368 0.0934626
vn -0.5715448 -0.09257906 0.8153317
v -0.106827 0.417087 -0.0170501
vn -0.3145092 0.3313932 -0.8895294
v -0.2688 0.523005 0.0748713
vn -0.6928568 -0.6942328 0.1949109
v -0.0440826 0.476818 0.0673131
vn 0.3416629 0.9375238 -0.06569359
v -0.213062 0.528682 0.0748713
vn -0.7720048 0.4885599 0.4065929
v -0.188324 0.536644 0.0748713
vn 0.5253149 0.8433458 0.113191
v -0.218368 0.571015 0.0346708
vn 0.5222639 0.261534 -0.8116899
v -0.102281 0.425953 0.131864
vn 0.271466 0.5989239 0.7533899
v -0.218368 0.571015 0.115072
vn 0.110221 0.2530681 0.9611493
v -0.122825 0.226358 0.200469
vt 0.390318 0.273631
vn -0.5613769 -0.660327 0.4988229
v -0.171332 0.237963 0.0714736
vt 0.753464 0.293553
vn -0.8638797 -0.5019718 -0.04166868
v -0.0994681 0.174451 0.0714736
vt 0.672773 0.0470428
vn -0.4458148 -0.8948267 -0.02311429
v -0.186862 0.309744 0.0714736
vt 0.751211 0.477561
vn -0.9975808 0.06296219 -0.0294672
v 0 0.183812 0.197838
vt 0.00102934 0.096182
vn 0 -0.9213175 0.3888112
v -0.140669 0.279468 0.203468
vt 0.401598 0.444222
vn -0.7494318 -0.0240969 0.6616428
v 0 0.22247 0.251478
vt 0.00102934 0.257868
vn 0 -0.5886929 0.8083568
v 0 0.269735 0.266339
vt 0.00102934 0.428878
vn 0 -0.0100394 0.9999496
v 0 0.151204 0.0714736
vt 0.00102919 -0.14516
vn 0 -0.9997284 0.02330429
v -0.119622 0.370902 0.206744
vt 0.358791 0.637597
vn -0.609167 0.437956 0.661143
v -0.161827 0.396502 0.0714736
vt 0.755055 0.710085
vn -0.8831812 0.4689831 0.006767401
v 0.122825 0.226358 0.200469
vt 0.390409 0.273631
vn 0.5613769 -0.660327 0.4988229
v 0.0994681 0.174451 0.0714736
vt 0.672864 0.0470428
vn 0.4458148 -0.8948267 -0.02311429
v -0.0994681 0.470004 0.0714736
vt 0.77298 0.963385
vn -0.5079091 0.859903 0.050943
v 0 0.368832 0.24795
vt 0.00102934 0.63755
vn 0 0.3680609 0.9298017
v 0 0.451157 0.190307
vt 0.00102934 0.915141
vn 0 0.8105292 0.5856982
v 0.171332 0.237963 0.0714736
vt 0.753555 0.293553
vn 0.8638797 -0.5019718 -0.04166868
v 0.119622 0.370902 0.206744
vt 0.358882 0.637597
vn 0.609167 0.437956 0.661143
v 0.140669 0.279468 0.203468
vt 0.401689 0.444222
vn 0.7494318 -0.02409719 0.6616428
v 0 0.486183 0.0714736
vt 0.00102919 1.20893
vn 0 0.9997521 0.0222641
v 0.186862 0.309744 0.0714736
vt 0.751302 0.477561
vn 0.9975808 0.06296219 -0.0294672
v 0.0994681 0.470004 0.0714736
vt 0.773071 0.963385
vn 0.5079091 0.859903 0.050943
v 0.161827 0.396502 0.0714736
vt 0.755146 0.710085
vn 0.8831808 0.4689839 0.006767339
v 0 0.178063 -0.0442481
vt 0.935375 0.0339061
vn 0 -0.8695279 -0.4938839
vt 0.935375 0.0285444
vt 0.916439 0.0331851
vt 0.95431 0.0331851
v -0.11598 0.237963 -0.0630513
vt 0.913296 0.0458637
vn -0.5923678 -0.5414399 -0.5966098
v 0.11598 0.237963 -0.0630513
vt 0.957454 0.0458637
vn 0.5923678 -0.5414399 -0.5966098
v 0 0.255586 -0.107521
vt 0.935375 0.049382
vn 0 -0.258901 -0.9659039
vt 0.902759 0.0458637
vt 0.967991 0.0458637
v -0.124306 0.317232 -0.07224719
vt 0.911711 0.0616882
vn -0.6869822 0.05190302 -0.7248182
v 0.124306 0.317232 -0.07224719
vt 0.959039 0.0616882
vn 0.6869817 0.05190308 -0.7248188
v 0 0.375134 -0.100153
vt 0.935375 0.0732469
vn 0 0.301415 -0.9534931
vt 0.899802 0.0601932
vt 0.970947 0.0601932
v -0.10825 0.396502 -0.0604891
vt 0.914767 0.0775126
vn -0.581646 0.536997 -0.611001
v 0.10825 0.396502 -0.0604891
vt 0.955982 0.0775126
vn 0.581646 0.536997 -0.611001
v 0 0.456269 -0.0367594
vt 0.935375 0.0894437
vn 0 0.8437555 -0.5367277
vt 0.95431 0.0921857
vt 0.916439 0.0921857
vt 0.935375 0.0954153
vt 0.966181 0.0775126
vt 0.904568 0.0775126
v -0.0639244 0.201872 -0.170759
vt 0.923145 0.309588
vn -0.7007583 0.03681451 0.7124483
v -0.0639244 0.171462 -0.29494
vt 0.904558 0.309588
vn -0.700758 -0.296544 -0.6488451
v 0 0.119503 -0.216402
vt 0.938014 0.287284
vn 0 -0.9713005 0.2378559
v -0.0639244 0.352505 -0.339274
vt 0.904558 0.328175
vn -0.7006431 -0.03562201 -0.7126221
v 0.0639259 0.201872 -0.170759
vt 0.941731 0.309588
vn 0.7007583 0.03681462 0.7124483
v -0.0639244 0.382915 -0.215093
vt 0.923145 0.328175
vn -0.700643 0.297682 0.648448
v 0.0639259 0.171462 -0.29494
vt 0.960318 0.309588
vn 0.700758 -0.296544 -0.6488451
vt 0.978905 0.309588
v 0 0.439921 -0.294867
vt 0.941731 0.347243
vn 0 0.9713005 -0.2378559
v 0.0639259 0.382915 -0.215093
vt 0.941731 0.328175
vn 0.700643 0.297682 0.648448
v 0.0639259 0.352505 -0.339274
vt 0.960318 0.328175
vn 0.7006431 -0.03562201 -0.7126221
vt 0.978905 0.328175
v -0.024687 0.46499 -0.354814
vt 0.922292 0.447104
vn -1 0 0
v -1.99478E-06 0.459118 -0.378791
vt 0.903125 0.447104
vn 0 -0.2378559 -0.9713005
v -1.99776E-06 0.441013 -0.348943
vt 0.941459 0.40877
v -1.99776E-06 0.488966 -0.360686
vt 0.941459 0.485437
v -1.9991E-06 0.470861 -0.330838
vt 0.941459 0.447104
vn 0 0.237857 0.9713002
v 0.024683 0.46499 -0.354814
vt 0.960625 0.447104
vn 1 0 0
vt 0.979792 0.447104
v 0.0316326 0.48642 -0.267301
v 0.0563176 0.480549 -0.291278
v 0.0563176 0.462444 -0.26143
v 0.0563176 0.510397 -0.273172
v 0.0563176 0.492292 -0.243324
v 0.0810026 0.48642 -0.267301
v -0.0810237 0.48642 -0.267301
v -0.0563387 0.480549 -0.291278
v -0.0563387 0.462444 -0.26143
v -0.0563387 0.510397 -0.273172
v -0.0563387 0.492292 -0.243324
v -0.0316537 0.48642 -0.267301
v 0 0.0925756 -0.187016
vt 0.939545 0.554658
v 0 0.0850831 -0.193119
vt 0.956567 0.554658
v 0 0.120138 -0.223023
vt 0.97359 0.588704
v 0 0.0733535 -0.149464
vt 0.905499 0.520613
v 0 0.122307 -0.212263
vt 0.956567 0.588704
v 0 0.0843576 -0.149993
vt 0.905499 0.537635
vt 0.93212 0.70217
vt 0.929246 0.66768
vn 0.645079 -0.559987 0.519892
v 0.132233 0.418415 0.08658101
vt 0.940743 0.66768
vn 0.364915 -0.3669969 0.8556579
vt 0.95224 0.66768
v -0.132233 0.418415 0.08658111
vn -0.3649141 -0.3669971 0.8556582
vn -0.645079 -0.559987 0.519892
v -0.0241099 0.11162 -0.215374
vt 0.923145 0.272414
vn -0.897653 0.428055 -0.104824
v -0.0129838 0.13672 -0.208152
vt 0.937085 0.286355
v -0.0129838 0.130543 -0.233376
vt 0.918498 0.286355
v 0 0.108955 -0.191675
vt 0.941731 0.272414
vn 0 0.5103568 0.8599627
v 0.0129853 0.13672 -0.208152
vt 0.955672 0.286355
v 0.0241114 0.11162 -0.215374
vt 0.960318 0.272414
vn 0.8976531 0.428055 -0.104823
v 0.0129853 0.130543 -0.233376
vt 0.974258 0.286355
v 0 0.0983062 -0.23516
vt 0.904558 0.272414
vn 0 0.05525642 -0.9984722
vt 0.904558 0.291001
vn 0.897653 -0.428055 0.104824
vn 0 -0.5103568 -0.8599627
vn -0.8976531 -0.428055 0.104823
vn 0 -0.05525642 0.9984722
o merged_0_0_node
g polygon_0
usemtl mat_head_mat_id
f 1/1/1 2/2/2 3/3/3
f 1/1/1 4/4/4 2/2/2
f 1/1/1 3/3/3 5/5/5
f 1/1/1 6/6/6 4/4/4
f 1/1/1 5/5/5 7/7/7
f 1/1/1 8/8/8 6/6/6
f 1/1/1 7/7/7 9/9/9
f 1/1/1 9/9/9 8/8/8
f 8/8/8 9/9/9 6/6/6
f 4/4/4 6/6/6 2/2/2
f 7/7/7 10/10/10 9/9/9
f 6/6/6 9/9/9 11/11/11
f 6/6/6 11/11/11 2/12/2
f 2/12/2 9/9/9 10/10/10
f 2/12/2 11/11/11 9/9/9
f 12/1/12 13/3/13 14/2/14
f 12/1/12 15/5/15 13/3/13
f 12/1/12 14/2/14 16/4/16
f 12/1/12 17/7/17 15/5/15
f 12/1/12 16/4/16 18/6/18
f 12/1/12 19/9/19 17/7/17
f 12/1/12 18/6/18 20/8/20
f 12/1/12 20/8/20 19/9/19
f 20/8/20 18/6/18 19/9/19
f 16/4/16 14/2/14 18/6/18
f 17/7/17 19/9/19 21/10/21
f 18/6/18 22/11/22 19/9/19
f 18/6/18 14/12/14 22/11/22
f 14/12/14 21/10/21 19/9/19
f 14/12/14 19/9/19 22/11/22
f 23/13/23 24/14/24 25/15/25
f 23/13/23 26/16/26 24/14/24
f 23/13/23 25/15/25 27/17/27
f 23/13/23 28/18/28 26/16/26
f 23/13/23 27/17/27 29/19/29
f 23/13/23 30/20/30 28/18/28
f 23/13/23 29/19/29 30/20/30
f 25/15/25 31/21/31 27/17/27
f 26/16/26 28/18/28 32/22/32
f 26/16/26 32/22/32 33/23/33
f 29/19/29 34/24/34 30/20/30
f 29/19/29 27/17/27 34/24/34
f 31/21/31 35/25/35 27/17/27
f 27/17/27 35/25/35 34/24/34
f 32/22/32 36/26/36 33/23/33
f 32/22/32 30/20/30 37/27/37
f 32/22/32 38/28/38 36/26/36
f 32/22/32 37/27/37 38/28/38
f 35/25/35 39/29/39 34/24/34
f 30/20/30 40/30/40 37/27/37
f 30/20/30 34/24/34 41/31/41
f 37/27/37 40/30/40 38/28/38
f 36/26/36 38/28/38 42/32/42
f 39/29/39 43/33/43 34/24/34
f 41/31/41 43/33/43 40/30/40
f 41/31/41 34/24/34 43/33/43
f 38/28/38 44/34/44 42/32/42
f 38/28/38 40/30/40 44/34/44
f 43/33/43 45/35/45 40/30/40
f 40/30/40 45/35/45 44/34/44
f 46/36/46 31/37/31 25/38/25
f 46/36/46 35/39/35 31/37/31
f 46/36/46 25/38/25 47/40/47
f 46/36/46 48/41/48 35/39/35
f 46/36/46 47/40/47 49/42/49
f 46/36/46 49/42/49 48/41/48
f 25/38/25 24/43/24 47/40/47
f 35/39/35 48/41/48 39/44/39
f 49/42/49 47/40/47 50/45/50
f 49/42/49 51/46/51 48/41/48
f 49/42/49 50/45/50 52/47/52
f 49/42/49 52/47/52 51/46/51
f 24/43/24 26/48/26 47/40/47
f 47/40/47 26/48/26 50/45/50
f 39/44/39 48/41/48 43/49/43
f 48/41/48 51/46/51 43/49/43
f 52/47/52 50/45/50 53/50/53
f 52/47/52 54/51/54 51/46/51
f 52/47/52 53/50/53 55/52/55
f 52/47/52 55/52/55 54/51/54
f 51/46/51 54/51/54 43/49/43
f 50/45/50 26/48/26 53/50/53
f 55/52/55 44/53/44 54/51/54
f 55/52/55 53/50/53 36/54/36
f 55/52/55 42/55/42 44/53/44
f 55/52/55 36/54/36 42/55/42
f 43/49/43 54/51/54 45/56/45
f 45/56/45 54/51/54 44/53/44
f 26/48/26 33/57/33 53/50/53
f 53/50/53 33/57/33 36/54/36
f 56/58/56 57/59/57 58/60/58
f 56/58/56 59/61/59 57/59/57
f 56/58/56 58/60/58 60/62/60
f 56/58/56 61/63/61 59/61/59
f 56/58/56 60/62/60 61/63/61
f 58/60/58 62/64/62 60/62/60
f 58/60/58 57/65/57 62/64/62
f 59/61/59 61/63/61 63/66/63
f 60/62/60 62/64/62 64/67/64
f 60/62/60 64/67/64 61/63/61
f 61/63/61 64/67/64 63/66/63
f 57/65/57 65/68/65 62/64/62
f 57/65/57 59/69/59 65/68/65
f 65/68/65 64/67/64 62/64/62
f 65/68/65 63/66/63 64/67/64
f 65/68/65 59/69/59 63/66/63
f 66/70/66 67/71/67 68/72/58
f 66/70/66 69/73/63 67/71/67
f 66/70/66 68/72/58 70/74/68
f 66/70/66 70/74/68 69/73/63
f 68/72/58 71/75/69 70/74/68
f 68/72/58 67/76/67 71/75/69
f 71/75/69 69/73/63 70/74/68
f 71/75/69 67/76/67 69/73/63
f 72/70/66 73/71/67 74/72/58
f 72/70/66 75/73/63 73/71/67
f 72/70/66 74/72/58 76/74/68
f 72/70/66 76/74/68 75/73/63
f 74/72/58 77/75/69 76/74/68
f 74/72/58 73/76/67 77/75/69
f 77/75/69 75/73/63 76/74/68
f 77/75/69 73/76/67 75/73/63
f 78/70/66 79/71/67 80/72/58
f 78/70/66 81/73/63 79/71/67
f 78/70/66 80/72/58 82/74/68
f 78/70/66 82/74/68 81/73/63
f 80/72/58 83/75/69 82/74/68
f 80/72/58 79/76/67 83/75/69
f 83/75/69 81/73/63 82/74/68
f 83/75/69 79/76/67 81/73/63
f 84/77/69 85/78/69 86/79/69
f 84/77/69 87/80/69 85/78/69
f 84/77/69 86/79/69 88/81/69
f 84/77/69 89/82/69 87/80/69
f 84/77/66 86/79/66 85/78/66
f 84/77/66 88/81/66 86/79/66
f 84/77/66 85/78/66 87/80/66
f 84/77/66 87/80/66 89/82/66
f 2/83/2 10/84/70 90/85/71
f 2/83/2 90/85/71 3/86/3
f 14/83/14 91/85/72 21/84/73
f 14/83/14 13/86/13 91/85/72
f 92/87/74 93/88/74 94/89/74
f 95/90/75 96/91/75 93/88/75
f 97/92/76 98/93/76 96/91/76
f 99/94/77 94/89/77 98/95/77
f 92/87/78 94/89/78 93/88/78
f 95/90/79 93/88/79 96/91/79
f 97/92/80 96/91/80 98/93/80
f 99/94/81 98/95/81 94/89/81
v -0.113507 0.09474541 -0.09770082
vt 0.80087 0.574555
vn -0.8377061 0.2670062 -0.4763991
v -0.113507 0.09474552 0.07062371
vt 0.170929 0.574555
vn -0.8440911 0.2353967 0.4817664
v -0.0790354 0.153213 -0.0843473
vt 0.750896 0.929106
vn -0.608613 0.731185 -0.308154
v 0.113507 0.09474541 -0.09770082
vn 0.8377061 0.2670062 -0.4763991
v 0.0790354 0.153213 -0.0843472
vn 0.608613 0.731185 -0.308154
v 0.113507 0.09474552 0.07062371
vn 0.8440911 0.2353967 0.4817664
v -0.106238 0.03740581 0.02337232
vt 0.347762 0.226842
vn -0.8658776 -0.4963058 -0.06274126
v -0.106238 0.03341267 -0.04139323
vt 0.590145 0.202629
vn -0.8272628 -0.5559165 0.08119859
v 0 0.026279 -0.0117537
vt 0.47922 0.15936
vn 0 -0.9999147 0.0130623
v 0.106238 0.03740581 0.02337242
vn 0.8658776 -0.4963058 -0.06274096
v 0.106238 0.03341277 -0.04139323
vn 0.8272628 -0.5559165 0.08119838
v 0 0.03859112 -0.14869
vt 0.991688 0.234045
vn 0 -0.3690762 -0.9293991
v -0.0823437 -9.676173E-06 -0.1180952
vt 0.877188 0
vn -0.3378358 -0.6717914 -0.6592141
v 0 0.09474541 -0.1509099
vt 1 0.574555
vn 0 0.1977789 -0.9802467
v 0.0823436 -9.676173E-06 -0.1180952
vn 0.3378358 -0.6717914 -0.6592141
v 0 0.153213 -0.128037
vt 0.914403 0.929106
vn 0 0.7322081 -0.6810811
v 0 0.164904 0.0284329
vt 0.328824 1
vn 0 0.9998761 0.0157441
v -0.0790354 0.153213 0.0639826
vt 0.195782 0.929106
vn -0.6654321 0.6593391 0.3499601
v 0 0.153213 0.109259
vt 0.0263376 0.929106
vn 0 0.5097152 0.8603432
v 0.0790354 0.153213 0.0639827
vn 0.6654321 0.6593391 0.3499601
v 0 0.03832572 0.1147394
vt 0.0272633 0.232432
vn 0 -0.3825478 0.9239357
v 0 0.09474552 0.1162976
vt 0.0214303 0.574555
vn 0 0.08729342 0.9961826
v -0.0823437 -8.373484E-06 0.07983016
vt 0.136478 0
vn -0.3234589 -0.6812576 0.6567057
v 0.0823436 -8.373484E-06 0.07983016
vn 0.323458 -0.6812578 0.656706
o merged_1_0_node
g polygon_0
usemtl mat_body_mat_id
f 100/96/82 101/97/83 102/98/84
f 103/96/85 104/98/86 105/97/87
f 106/99/88 107/100/89 108/101/90
f 109/99/91 110/100/92 105/97/87
f 105/97/87 110/100/92 103/96/85
f 100/96/82 107/100/89 101/97/83
f 101/97/83 107/100/89 106/99/88
f 108/101/90 110/100/92 109/99/91
f 111/102/93 112/103/94 113/104/95
f 113/104/95 112/103/94 100/96/82
f 112/103/94 107/100/89 100/96/82
f 103/96/85 110/100/92 114/103/96
f 111/102/93 113/104/95 114/103/96
f 114/103/96 113/104/95 103/96/85
f 100/96/82 102/98/84 113/104/95
f 113/104/95 102/98/84 115/105/97
f 103/96/85 113/104/95 104/98/86
f 104/98/86 113/104/95 115/105/97
f 112/103/94 111/102/93 108/101/90
f 114/103/96 110/100/92 108/101/90
f 111/102/93 114/103/96 108/101/90
f 115/105/97 102/98/84 116/106/98
f 102/98/84 117/107/99 116/106/98
f 117/107/99 118/108/100 116/106/98
f 118/108/100 119/107/101 116/106/98
f 119/107/101 104/98/86 116/106/98
f 104/98/86 115/105/97 116/106/98
f 108/101/90 107/100/89 112/103/94
f 120/109/102 121/110/103 122/111/104
f 122/111/104 121/110/103 101/97/83
f 120/109/102 123/111/105 121/110/103
f 121/110/103 123/111/105 105/97/87
f 102/98/84 101/97/83 117/107/99
f 101/97/83 121/110/103 117/107/99
f 117/107/99 121/110/103 118/108/100
f 105/97/87 119/107/101 121/110/103
f 121/110/103 119/107/101 118/108/100
f 105/97/87 104/98/86 119/107/101
f 122/111/104 106/99/88 108/101/90
f 120/109/102 122/111/104 108/101/90
f 123/111/105 120/109/102 108/101/90
f 108/101/90 109/99/91 123/111/105
f 123/111/105 109/99/91 105/97/87
f 101/97/83 106/99/88 122/111/104
vt 1.06555 0.74186
vt -0.250115 0.74186
vt 0.868696 1.0202
o merged_2_0_node
g polygon_0
usemtl TEX_ANIM_EYE_mat_id
f 28/112/28 30/113/30 32/114/32
f 40/114/40 30/113/30 41/112/41
