ply
format ascii 1.0
element vertex 478
property float x
property float y
property float z
property uchar red
property uchar green
property uchar blue
element face 550
property list uchar int vertex_index
end_header
-0.10217 -0.27283 0.15975 165 155 142
-0.23783 -0.27283 0.15975 165 155 142
-0.23783 -0.27283 0.46611 165 155 142
-0.10217 -0.27283 0.46611 165 155 142
-0.23783 -0.13717 0.46611 165 155 142
-0.23783 -0.13717 0.15975 165 155 142
-0.10217 -0.13717 0.15975 165 155 142
-0.10217 -0.13717 0.46611 165 155 142
-0.12513 -0.24987 0.14161 165 155 142
-0.21487 -0.24987 0.14161 165 155 142
-0.12513 -0.16013 0.14161 165 155 142
-0.21487 -0.16013 0.14161 165 155 142
-0.13304 -0.16804 1.26978 165 155 142
-0.20696 -0.16804 1.26978 165 155 142
-0.20696 -0.16804 0.48162 165 155 142
-0.13304 -0.16804 0.48162 165 155 142
-0.20696 -0.24196 0.48162 165 155 142
-0.20696 -0.24196 1.26978 165 155 142
-0.13304 -0.24196 1.26978 165 155 142
-0.13304 -0.24196 0.48162 165 155 142
-0.10217 -0.13717 0.46611 141 132 121
-0.23783 -0.13717 0.46611 141 132 121
-0.23783 -0.13717 0.15975 141 132 121
-0.10217 -0.13717 0.15975 141 132 121
-0.20696 -0.24196 0.48162 172 161 148
-0.13304 -0.24196 0.48162 172 161 148
-0.10217 -0.27283 0.46611 172 161 148
-0.23783 -0.27283 0.46611 172 161 148
-0.20696 -0.16804 0.48162 172 161 148
-0.23783 -0.13717 0.46611 172 161 148
-0.10217 -0.13717 0.46611 172 161 148
-0.13304 -0.16804 0.48162 172 161 148
0.10217 -0.27283 0.15975 165 155 142
0.10217 -0.27283 0.46611 165 155 142
0.23783 -0.27283 0.46611 165 155 142
0.23783 -0.27283 0.15975 165 155 142
0.23783 -0.13717 0.46611 165 155 142
0.23783 -0.13717 0.15975 165 155 142
0.10217 -0.13717 0.15975 165 155 142
0.10217 -0.13717 0.46611 165 155 142
0.12513 -0.24987 0.14161 165 155 142
0.21487 -0.24987 0.14161 165 155 142
0.12513 -0.16013 0.14161 165 155 142
0.21487 -0.16013 0.14161 165 155 142
0.13304 -0.16804 1.26978 165 155 142
0.13304 -0.16804 0.48162 165 155 142
0.20696 -0.16804 0.48162 165 155 142
0.20696 -0.16804 1.26978 165 155 142
0.20696 -0.24196 0.48162 165 155 142
0.20696 -0.24196 1.26978 165 155 142
0.13304 -0.24196 1.26978 165 155 142
0.13304 -0.24196 0.48162 165 155 142
0.10217 -0.13717 0.46611 141 132 121
0.10217 -0.13717 0.15975 141 132 121
0.23783 -0.13717 0.15975 141 132 121
0.23783 -0.13717 0.46611 141 132 121
0.20696 -0.24196 0.48162 172 161 148
0.23783 -0.27283 0.46611 172 161 148
0.10217 -0.27283 0.46611 172 161 148
0.13304 -0.24196 0.48162 172 161 148
0.20696 -0.16804 0.48162 172 161 148
0.23783 -0.13717 0.46611 172 161 148
0.10217 -0.13717 0.46611 172 161 148
0.13304 -0.16804 0.48162 172 161 148
0.39412 -0.20872 1.63524 198 80 121
0.39412 -0.20872 2.09946 198 80 121
0.45914 -0.20872 2.09946 198 80 121
0.45914 -0.20872 1.63524 198 80 121
0.45914 -0.16118 2.14192 198 80 121
0.39412 -0.16118 2.14192 198 80 121
0.45914 0.16234 2.14192 198 80 121
0.39412 0.16234 2.14192 198 80 121
0.39412 -0.16118 1.59278 198 80 121
0.45914 -0.16118 1.59278 198 80 121
0.39412 0.16234 1.59278 198 80 121
0.45914 0.16234 1.59278 198 80 121
0.48801 -0.14152 2.11933 198 80 121
0.48801 0.14256 2.11933 198 80 121
0.48801 -0.18327 2.08036 198 80 121
0.48801 -0.18327 1.65433 198 80 121
0.48801 -0.13702 1.61537 198 80 121
0.48801 0.13656 1.61537 198 80 121
0.39412 0.20872 2.09946 198 80 121
0.39412 0.20872 1.63524 198 80 121
0.45914 0.20872 1.63524 198 80 121
0.45914 0.20872 2.09946 198 80 121
0.48801 0.18329 1.65433 198 80 121
0.48801 0.18329 2.08036 198 80 121
0.48801 0.14256 2.11933 180 52 75
0.48801 0.18329 2.08036 180 52 75
0.48801 0.00029 2.086 180 52 75
0.48801 0.00029 1.97716 180 52 75
0.48801 0.11958 1.79434 180 52 75
0.48801 -0.11369 1.97716 180 52 75
0.48801 -0.11958 1.79434 180 52 75
0.48801 0.18329 1.65433 180 52 75
0.48801 0.13682 1.77336 180 52 75
0.48801 -0.18327 2.08036 180 52 75
0.48801 -0.11369 2.086 180 52 75
0.48801 -0.14152 2.11933 180 52 75
0.48801 -0.18327 1.65433 180 52 75
0.48801 -0.13682 1.77336 180 52 75
0.48801 -0.13702 1.61537 180 52 75
0.48801 0.13656 1.61537 180 52 75
0.48801 -0.13682 1.77336 209 124 153
0.48801 -0.11958 1.79434 209 124 153
0.48801 0.11958 1.79434 209 124 153
0.48801 0.13682 1.77336 209 124 153
0.48801 0.13656 1.61537 209 124 153
0.48801 -0.13702 1.61537 209 124 153
0.48801 0.00029 1.97716 255 226 238
0.48801 -0.11369 1.97716 255 226 238
0.48801 -0.11369 2.086 255 226 238
0.48801 0.00029 2.086 255 226 238
-0.39412 -0.20872 1.63524 198 80 121
-0.45914 -0.20872 1.63524 198 80 121
-0.45914 -0.20872 2.09946 198 80 121
-0.39412 -0.20872 2.09946 198 80 121
-0.45914 -0.16118 2.14192 198 80 121
-0.39412 -0.16118 2.14192 198 80 121
-0.45914 0.16234 2.14192 198 80 121
-0.39412 0.16234 2.14192 198 80 121
-0.39412 -0.16118 1.59278 198 80 121
-0.45914 -0.16118 1.59278 198 80 121
-0.39412 0.16234 1.59278 198 80 121
-0.45914 0.16234 1.59278 198 80 121
-0.48801 -0.14152 2.11933 198 80 121
-0.48801 0.14256 2.11933 198 80 121
-0.48801 -0.18327 2.08036 198 80 121
-0.48801 -0.18327 1.65433 198 80 121
-0.48801 -0.13702 1.61537 198 80 121
-0.48801 0.13656 1.61537 198 80 121
-0.39412 0.20872 2.09946 198 80 121
-0.45914 0.20872 2.09946 198 80 121
-0.45914 0.20872 1.63524 198 80 121
-0.39412 0.20872 1.63524 198 80 121
-0.48801 0.18329 1.65433 198 80 121
-0.48801 0.18329 2.08036 198 80 121
-0.48801 0.14256 2.11933 180 52 75
-0.48801 0.00029 2.086 180 52 75
-0.48801 0.18329 2.08036 180 52 75
-0.48801 0.00029 1.97716 180 52 75
-0.48801 0.11958 1.79434 180 52 75
-0.48801 -0.11369 1.97716 180 52 75
-0.48801 -0.11958 1.79434 180 52 75
-0.48801 -0.18327 2.08036 180 52 75
-0.48801 -0.11369 2.086 180 52 75
-0.48801 -0.14152 2.11933 180 52 75
-0.48801 -0.18327 1.65433 180 52 75
-0.48801 -0.13682 1.77336 180 52 75
-0.48801 -0.13702 1.61537 180 52 75
-0.48801 0.18329 1.65433 180 52 75
-0.48801 0.13682 1.77336 180 52 75
-0.48801 0.13656 1.61537 180 52 75
-0.48801 0.13656 1.61537 209 124 153
-0.48801 0.13682 1.77336 209 124 153
-0.48801 -0.13682 1.77336 209 124 153
-0.48801 -0.13702 1.61537 209 124 153
-0.48801 -0.11958 1.79434 209 124 153
-0.48801 0.11958 1.79434 209 124 153
-0.48801 0.00029 1.97716 255 226 238
-0.48801 0.00029 2.086 255 226 238
-0.48801 -0.11369 2.086 255 226 238
-0.48801 -0.11369 1.97716 255 226 238
-0.09746 -0.33762 1.56893 198 80 121
-0.09746 -0.33762 1.75698 198 80 121
-0.09746 -0.36798 1.75698 198 80 121
-0.09746 -0.36798 1.56893 198 80 121
-0.07526 -0.36798 1.7768 198 80 121
-0.07526 -0.33762 1.7768 198 80 121
0.0758 -0.36798 1.7768 198 80 121
0.0758 -0.33762 1.7768 198 80 121
-0.07526 -0.33762 1.54911 198 80 121
-0.07526 -0.36798 1.54911 198 80 121
0.0758 -0.33762 1.54911 198 80 121
0.0758 -0.36798 1.54911 198 80 121
0.09746 -0.33762 1.56893 198 80 121
0.09746 -0.36798 1.56893 198 80 121
0.09746 -0.33762 1.75698 198 80 121
0.09746 -0.36798 1.75698 198 80 121
-0.06608 -0.38146 1.76626 198 80 121
0.06657 -0.38146 1.76626 198 80 121
-0.08558 -0.38146 1.74806 198 80 121
-0.08558 -0.38146 1.57785 198 80 121
-0.06392 -0.38146 1.55966 198 80 121
0.06401 -0.38146 1.55966 198 80 121
0.08559 -0.38146 1.57785 198 80 121
0.08559 -0.38146 1.74806 198 80 121
0.06657 -0.38146 1.76626 180 52 75
0.08559 -0.38146 1.74806 180 52 75
0.00653 -0.38146 1.74742 180 52 75
0.00653 -0.38146 1.7004 180 52 75
0.0554 -0.38146 1.64322 180 52 75
-0.04468 -0.38146 1.74742 180 52 75
-0.06608 -0.38146 1.76626 180 52 75
-0.08558 -0.38146 1.74806 180 52 75
-0.04468 -0.38146 1.7004 180 52 75
-0.0554 -0.38146 1.64322 180 52 75
0.08559 -0.38146 1.57785 180 52 75
0.06389 -0.38146 1.63313 180 52 75
-0.08558 -0.38146 1.57785 180 52 75
-0.06389 -0.38146 1.63313 180 52 75
-0.06392 -0.38146 1.55966 180 52 75
0.06401 -0.38146 1.55966 180 52 75
-0.06389 -0.38146 1.63313 209 124 153
-0.0554 -0.38146 1.64322 209 124 153
0.0554 -0.38146 1.64322 209 124 153
0.06389 -0.38146 1.63313 209 124 153
0.06401 -0.38146 1.55966 209 124 153
-0.06392 -0.38146 1.55966 209 124 153
0.00653 -0.38146 1.7004 255 226 238
-0.04468 -0.38146 1.7004 255 226 238
-0.04468 -0.38146 1.74742 255 226 238
0.00653 -0.38146 1.74742 255 226 238
0.30897 -0.3081 2.22339 88 173 218
-0.30897 -0.3081 2.22339 88 173 218
-0.30897 0.37446 2.22339 88 173 218
0.30897 0.37446 2.22339 88 173 218
-0.36645 -0.24955 2.22339 88 173 218
-0.36645 0.31591 2.22339 88 173 218
0.36645 0.31591 2.22339 88 173 218
0.36645 -0.27091 2.22339 88 173 218
0.40274 -0.30301 1.37496 84 165 208
0.40274 -0.30301 2.18974 84 165 208
0.40274 0.34801 2.18974 84 165 208
0.40274 0.34801 1.37496 84 165 208
0.34115 -0.34439 2.18974 84 165 208
0.34115 -0.34439 1.39452 84 165 208
0.36645 -0.27091 2.22339 84 165 208
0.30897 -0.3081 2.22339 84 165 208
0.36645 0.31591 2.22339 84 165 208
0.34921 -0.30297 1.37484 84 165 208
0.34921 0.29894 1.37484 84 165 208
0.34115 -0.34439 1.37496 84 165 208
-0.34115 -0.34439 2.18974 84 165 208
-0.30897 -0.3081 2.22339 84 165 208
-0.36645 -0.24955 2.22339 84 165 208
-0.40274 -0.28165 2.18974 84 165 208
-0.36645 0.31591 2.22339 84 165 208
-0.40274 0.34801 2.18974 84 165 208
-0.30897 0.37446 2.22339 84 165 208
-0.34115 0.41075 2.18974 84 165 208
0.30897 0.37446 2.22339 84 165 208
0.34115 0.41075 2.18974 84 165 208
0.34115 0.41075 1.37496 84 165 208
0.28966 0.35727 1.37484 84 165 208
-0.34115 0.41075 1.37496 84 165 208
-0.40274 0.34801 1.37496 84 165 208
-0.28966 0.35727 1.37484 84 165 208
-0.34921 0.29894 1.37484 84 165 208
0.34921 0.29894 1.32146 84 165 208
0.28966 0.35727 1.32146 84 165 208
0.34921 -0.30297 1.32146 84 165 208
-0.28966 0.35727 1.32146 84 165 208
-0.34921 0.29894 1.32146 84 165 208
-0.34921 -0.30297 1.32146 84 165 208
-0.34921 -0.30297 1.37484 84 165 208
-0.40274 -0.28165 1.37496 84 165 208
-0.34115 -0.34439 1.37496 84 165 208
-0.34115 -0.34439 1.39452 84 165 208
-0.11385 -0.34439 1.49527 84 165 208
-0.11374 -0.34439 1.39452 84 165 208
-0.09129 -0.34439 1.49527 84 165 208
0.0913 -0.34439 1.49527 84 165 208
0.11385 -0.34439 1.49527 84 165 208
-0.09131 -0.34439 1.39452 84 165 208
0.09131 -0.34439 1.39452 84 165 208
-0.01959 -0.34425 1.31509 84 165 208
0.01815 -0.34432 1.31502 84 165 208
0.11374 -0.34439 1.39452 84 165 208
-0.11374 -0.34439 1.39452 75 148 187
-0.09131 -0.34439 1.39452 75 148 187
-0.10452 -0.34439 1.37496 75 148 187
-0.02762 -0.34418 1.29389 75 148 187
-0.06904 -0.30301 1.33714 75 148 187
-0.10439 -0.30299 1.3748 75 148 187
-0.06904 -0.28981 1.33714 75 148 187
-0.10439 -0.28979 1.37479 75 148 187
-0.23903 -0.30298 1.37482 75 148 187
-0.23903 -0.28978 1.37481 75 148 187
-0.23903 -0.30303 1.31014 75 148 187
-0.23903 -0.28983 1.31013 75 148 187
-0.06904 -0.28983 1.31014 75 148 187
-0.06904 -0.30303 1.31016 75 148 187
-0.25816 -0.30305 1.29383 75 148 187
-0.02762 -0.30309 1.29376 75 148 187
-0.25879 -0.30298 1.37483 75 148 187
-0.34115 -0.34439 1.37496 75 148 187
-0.34921 -0.30297 1.37484 75 148 187
-0.01048 -0.30308 1.29376 75 148 187
-0.34115 -0.34439 1.39452 75 148 187
-0.11385 -0.34439 1.49527 75 148 187
-0.09129 -0.34439 1.49527 75 148 187
-0.01959 -0.34425 1.31509 75 148 187
0.02778 -0.34418 1.29386 75 148 187
0.01815 -0.34432 1.31502 75 148 187
0.10452 -0.34439 1.37496 75 148 187
0.06904 -0.30301 1.33714 75 148 187
0.10439 -0.30299 1.3748 75 148 187
0.06904 -0.28981 1.33714 75 148 187
0.10439 -0.28979 1.37479 75 148 187
0.23903 -0.30298 1.37482 75 148 187
0.23903 -0.28978 1.37481 75 148 187
0.23903 -0.30303 1.31014 75 148 187
0.23903 -0.28983 1.31013 75 148 187
0.06904 -0.28983 1.31014 75 148 187
0.06904 -0.30303 1.31016 75 148 187
0.25816 -0.30305 1.29383 75 148 187
0.02767 -0.30308 1.29376 75 148 187
0.25879 -0.30298 1.37483 75 148 187
0.01048 -0.30308 1.29376 75 148 187
0.34115 -0.34439 1.37496 75 148 187
0.34921 -0.30297 1.37484 75 148 187
0.34115 -0.34439 1.39452 75 148 187
0.11374 -0.34439 1.39452 75 148 187
0.09131 -0.34439 1.39452 75 148 187
0.0913 -0.34439 1.49527 75 148 187
0.11385 -0.34439 1.49527 75 148 187
0.01048 -0.30309 1.17964 75 148 187
-0.01048 -0.30309 1.17964 75 148 187
0.01048 -0.30314 1.10151 75 148 187
-0.01048 -0.30314 1.10151 75 148 187
0.01048 -0.30315 1.09019 75 148 187
-0.01048 -0.30315 1.09019 75 148 187
0.43951 -0.30297 1.29111 84 165 208
0.36939 -0.30297 1.26347 84 165 208
0.41166 -0.30297 1.32167 84 165 208
0.43951 0.40227 1.29143 84 165 208
0.41166 0.39099 1.32182 84 165 208
0.36897 -0.30292 1.05161 84 165 208
0.43909 -0.30292 1.05131 84 165 208
0.28642 -0.30301 1.26353 84 165 208
0.25816 -0.30305 1.29383 84 165 208
0.25879 -0.30298 1.37483 84 165 208
0.43933 0.40228 1.05163 84 165 208
0.02767 -0.30308 1.29376 84 165 208
0.09347 -0.30309 1.17964 84 165 208
0.27202 -0.30305 1.17956 84 165 208
0.28642 -0.30306 1.1942 84 165 208
0.28642 -0.24993 1.1942 84 165 208
0.27202 -0.24993 1.17956 84 165 208
0.01048 -0.30308 1.29376 84 165 208
0.01048 -0.30309 1.17964 84 165 208
0.09361 -0.30314 1.10151 84 165 208
0.09348 -0.24993 1.17961 84 165 208
0.09362 -0.24998 1.10148 84 165 208
0.01048 -0.30314 1.10151 84 165 208
0.0856 -0.30315 1.09019 84 165 208
0.08561 -0.24998 1.09017 84 165 208
0.01048 -0.30315 1.09019 84 165 208
0.2386 -0.24993 1.17958 84 165 208
-0.01048 -0.30315 1.09019 84 165 208
-0.08561 -0.24998 1.09017 84 165 208
-0.0856 -0.30315 1.09019 84 165 208
-0.09361 -0.30314 1.10151 84 165 208
-0.09362 -0.24998 1.10148 84 165 208
-0.09348 -0.24993 1.17961 84 165 208
-0.09347 -0.30309 1.17964 84 165 208
-0.2386 -0.24993 1.17958 84 165 208
-0.01048 -0.30314 1.10151 84 165 208
-0.01048 -0.30309 1.17964 84 165 208
-0.02762 -0.30309 1.29376 84 165 208
-0.25816 -0.30305 1.29383 84 165 208
-0.01048 -0.30308 1.29376 84 165 208
-0.27202 -0.30305 1.17956 84 165 208
-0.28642 -0.30301 1.26353 84 165 208
-0.28642 -0.30306 1.1942 84 165 208
-0.27202 -0.24993 1.17956 84 165 208
-0.28642 -0.24993 1.1942 84 165 208
-0.28642 -0.25 1.26353 84 165 208
-0.25879 -0.30298 1.37483 84 165 208
-0.36939 -0.30297 1.26347 84 165 208
-0.43951 -0.30297 1.29111 84 165 208
-0.41166 -0.30297 1.32167 84 165 208
-0.43951 0.40227 1.29143 84 165 208
-0.41166 0.39099 1.32182 84 165 208
-0.36897 -0.30292 1.05161 84 165 208
-0.43909 -0.30292 1.05131 84 165 208
-0.43933 0.40228 1.05163 84 165 208
0.37583 0.42926 1.32159 88 173 218
0.41166 0.39099 1.32182 88 173 218
0.34921 0.29894 1.32146 88 173 218
0.28966 0.35727 1.32146 88 173 218
0.41166 -0.30297 1.32167 88 173 218
0.34921 -0.30297 1.32146 88 173 218
-0.28966 0.35727 1.32146 88 173 218
-0.37583 0.42926 1.32159 88 173 218
-0.34921 0.29894 1.32146 88 173 218
-0.41166 0.39099 1.32182 88 173 218
-0.41166 -0.30297 1.32167 88 173 218
-0.34921 -0.30297 1.32146 88 173 218
0.38744 0.45508 1.0516 84 165 208
0.33972 0.39535 1.0516 84 165 208
0.36921 0.36127 1.0516 84 165 208
-0.33972 0.39535 1.0516 84 165 208
-0.38744 0.45508 1.0516 84 165 208
-0.36921 0.36127 1.0516 84 165 208
0.37583 0.42926 1.32159 84 165 208
0.38742 0.45511 1.29139 84 165 208
-0.38742 0.45511 1.29139 84 165 208
-0.37583 0.42926 1.32159 84 165 208
0.23903 -0.28983 1.31013 236 243 249
0.10439 -0.28979 1.37479 236 243 249
0.23903 -0.28978 1.37481 236 243 249
0.06904 -0.28981 1.33714 236 243 249
0.06904 -0.28983 1.31014 236 243 249
0.33969 0.39537 1.26347 62 61 59
-0.33969 0.39537 1.26347 62 61 59
-0.21177 0.17393 1.26359 62 61 59
0.21177 0.17393 1.26359 62 61 59
0.23865 0.15013 1.26359 62 61 59
0.36939 0.36126 1.26347 62 61 59
0.33972 0.39535 1.0516 62 61 59
0.36921 0.36127 1.0516 62 61 59
-0.33972 0.39535 1.0516 62 61 59
-0.23865 0.15013 1.26359 62 61 59
-0.36939 0.36126 1.26347 62 61 59
-0.36921 0.36127 1.0516 62 61 59
0.36939 -0.30297 1.26347 62 61 59
0.36897 -0.30292 1.05161 62 61 59
0.28642 -0.25 1.26353 62 61 59
0.28642 -0.30301 1.26353 62 61 59
-0.36939 -0.30297 1.26347 62 61 59
-0.36897 -0.30292 1.05161 62 61 59
-0.28642 -0.25 1.26353 62 61 59
-0.28642 -0.30301 1.26353 62 61 59
0.21176 0.17391 1.17958 73 143 181
-0.21176 0.17391 1.17958 73 143 181
-0.23861 0.15013 1.17958 73 143 181
0.23861 0.15013 1.17958 73 143 181
0.21177 0.17393 1.26359 73 143 181
0.23865 0.15013 1.26359 73 143 181
-0.21177 0.17393 1.26359 73 143 181
-0.23865 0.15013 1.26359 73 143 181
0.2386 -0.24993 1.17958 73 143 181
0.23865 -0.25 1.26359 73 143 181
-0.23865 -0.25 1.26359 73 143 181
-0.2386 -0.24993 1.17958 73 143 181
0.28642 -0.25 1.26353 84 165 208
0.14196 -0.29661 1.34086 33 44 50
0.14196 -0.29661 1.37683 33 44 50
0.16572 -0.29661 1.37683 33 44 50
0.16572 -0.29661 1.34086 33 44 50
0.14196 -0.28874 1.34086 33 44 50
0.16572 -0.28874 1.34086 33 44 50
0.16572 -0.28874 1.37683 33 44 50
0.14196 -0.28874 1.37683 33 44 50
0.09348 -0.24993 1.17961 73 143 181
0.28642 -0.25 1.26353 73 143 181
0.28642 -0.24993 1.1942 73 143 181
0.27202 -0.24993 1.17956 73 143 181
0.28642 -0.30301 1.26353 73 143 181
0.25816 -0.30305 1.29383 73 143 181
0.23865 -0.25 1.26359 62 61 59
-0.23903 -0.28983 1.31013 236 243 249
-0.23903 -0.28978 1.37481 236 243 249
-0.10439 -0.28979 1.37479 236 243 249
-0.06904 -0.28981 1.33714 236 243 249
-0.06904 -0.28983 1.31014 236 243 249
-0.14196 -0.29661 1.34086 33 44 50
-0.16572 -0.29661 1.34086 33 44 50
-0.16572 -0.29661 1.37683 33 44 50
-0.14196 -0.29661 1.37683 33 44 50
-0.14196 -0.28874 1.34086 33 44 50
-0.16572 -0.28874 1.34086 33 44 50
-0.16572 -0.28874 1.37683 33 44 50
-0.14196 -0.28874 1.37683 33 44 50
-0.28642 -0.25 1.26353 73 143 181
-0.28642 -0.24993 1.1942 73 143 181
-0.27202 -0.24993 1.17956 73 143 181
-0.25816 -0.30305 1.29383 73 143 181
-0.28642 -0.30301 1.26353 73 143 181
0.09362 -0.24998 1.10148 73 143 181
-0.09348 -0.24993 1.17961 73 143 181
-0.09362 -0.24998 1.10148 73 143 181
0.08561 -0.24998 1.09017 73 143 181
-0.08561 -0.24998 1.09017 73 143 181
-0.23865 -0.25 1.26359 62 61 59
3 0 2 1
3 0 3 2
3 1 2 4
3 1 4 5
3 6 3 0
3 6 7 3
3 8 0 1
3 8 1 9
3 10 8 9
3 10 0 8
3 10 6 0
3 10 9 11
3 9 1 5
3 9 5 11
3 11 5 6
3 11 6 10
3 12 14 13
3 12 15 14
3 16 13 14
3 16 17 13
3 15 12 18
3 15 18 19
3 19 17 16
3 19 18 17
3 20 22 21
3 20 23 22
3 24 26 25
3 24 27 26
3 28 27 24
3 28 29 27
3 25 26 30
3 25 30 31
3 31 30 29
3 31 29 28
3 32 34 33
3 32 35 34
3 35 36 34
3 35 37 36
3 38 32 33
3 38 33 39
3 40 35 32
3 40 41 35
3 42 41 40
3 42 32 38
3 42 40 32
3 42 43 41
3 41 37 35
3 41 43 37
3 43 38 37
3 43 42 38
3 44 46 45
3 44 47 46
3 48 46 47
3 48 47 49
3 45 50 44
3 45 51 50
3 51 49 50
3 51 48 49
3 52 54 53
3 52 55 54
3 56 58 57
3 56 59 58
3 60 56 57
3 60 57 61
3 59 62 58
3 59 63 62
3 63 61 62
3 63 60 61
3 64 66 65
3 64 67 66
3 65 66 68
3 65 68 69
3 69 68 70
3 69 70 71
3 72 67 64
3 72 73 67
3 74 73 72
3 74 75 73
3 70 68 76
3 70 76 77
3 68 78 76
3 68 66 78
3 66 79 78
3 66 67 79
3 67 80 79
3 67 73 80
3 73 81 80
3 73 75 81
3 82 84 83
3 82 85 84
3 83 84 75
3 83 75 74
3 71 85 82
3 71 70 85
3 75 84 86
3 75 86 81
3 84 87 86
3 84 85 87
3 85 77 87
3 85 70 77
3 88 90 89
3 91 89 90
3 92 89 91
3 92 91 93
3 92 93 94
3 95 89 92
3 95 92 96
3 94 93 97
3 97 93 98
3 98 99 97
3 88 98 90
3 88 99 98
3 100 94 97
3 100 101 94
3 100 102 101
3 95 96 103
3 104 106 105
3 104 107 106
3 108 107 104
3 108 104 109
3 110 112 111
3 110 113 112
3 114 116 115
3 114 117 116
3 117 118 116
3 117 119 118
3 119 120 118
3 119 121 120
3 122 114 115
3 122 115 123
3 124 122 123
3 124 123 125
3 120 126 118
3 120 127 126
3 118 128 116
3 118 126 128
3 116 129 115
3 116 128 129
3 115 130 123
3 115 129 130
3 123 131 125
3 123 130 131
3 132 134 133
3 132 135 134
3 135 125 134
3 135 124 125
3 121 132 133
3 121 133 120
3 125 136 134
3 125 131 136
3 134 137 133
3 134 136 137
3 133 127 120
3 133 137 127
3 138 140 139
3 141 139 140
3 142 141 140
3 142 143 141
3 142 144 143
3 144 145 143
3 145 146 143
3 146 145 147
3 138 146 147
3 138 139 146
3 148 145 144
3 148 144 149
3 148 149 150
3 151 142 140
3 151 152 142
3 151 153 152
3 154 156 155
3 154 157 156
3 155 156 158
3 155 158 159
3 160 162 161
3 160 163 162
3 164 166 165
3 164 167 166
3 165 166 168
3 165 168 169
3 169 168 170
3 169 170 171
3 172 167 164
3 172 173 167
3 174 173 172
3 174 175 173
3 176 175 174
3 176 177 175
3 178 177 176
3 178 179 177
3 171 179 178
3 171 170 179
3 170 168 180
3 170 180 181
3 179 170 181
3 168 182 180
3 168 166 182
3 166 183 182
3 166 167 183
3 167 184 183
3 167 173 184
3 173 185 184
3 173 175 185
3 175 186 185
3 175 177 186
3 177 187 186
3 177 179 187
3 179 181 187
3 188 190 189
3 191 189 190
3 192 189 191
3 188 193 190
3 188 194 193
3 193 194 195
3 195 196 193
3 192 191 196
3 192 196 197
3 197 196 195
3 198 189 192
3 198 192 199
3 200 197 195
3 200 201 197
3 200 202 201
3 198 199 203
3 204 206 205
3 204 207 206
3 208 207 204
3 208 204 209
3 210 212 211
3 210 213 212
3 214 216 215
3 214 217 216
3 216 218 215
3 216 219 218
3 217 221 220
3 217 214 221
3 222 224 223
3 222 225 224
3 226 222 223
3 226 227 222
3 226 223 228
3 226 228 229
3 223 230 228
3 223 224 230
3 225 222 231
3 225 231 232
3 233 231 222
3 222 227 233
3 229 234 226
3 229 235 234
3 234 235 236
3 234 236 237
3 237 236 238
3 237 238 239
3 239 238 240
3 239 240 241
3 242 241 240
3 242 243 241
3 224 243 242
3 244 243 224
3 244 241 243
3 244 224 225
3 224 242 230
3 244 225 232
3 244 232 245
3 246 239 241
3 244 246 241
3 245 246 244
3 246 247 239
3 245 248 246
3 246 249 247
3 246 248 249
3 250 245 232
3 250 251 245
3 248 245 251
3 252 250 232
3 252 232 231
3 248 251 253
3 254 248 253
3 254 249 248
3 255 249 254
3 255 256 249
3 257 239 247
3 257 237 239
3 247 256 257
3 247 249 256
3 256 258 257
3 259 257 258
3 234 257 259
3 234 237 257
3 259 260 234
3 259 261 260
3 234 260 262
3 234 262 263
3 234 263 226
3 226 263 264
3 263 262 265
3 263 265 266
3 266 265 267
3 266 267 268
3 227 226 264
3 227 264 269
3 270 272 271
3 271 272 273
3 274 273 272
3 274 272 275
3 275 276 274
3 275 277 276
3 278 277 275
3 272 278 275
3 278 279 277
3 280 279 278
3 280 281 279
3 282 274 276
3 282 283 274
3 284 283 280
3 285 274 283
3 284 285 283
3 274 285 273
3 286 280 278
3 286 284 280
3 286 278 272
3 286 272 287
3 286 287 288
3 285 289 273
3 287 270 290
3 287 272 270
3 291 270 271
3 291 271 292
3 271 273 293
3 294 293 273
3 294 295 293
3 296 295 294
3 297 296 294
3 297 298 296
3 298 297 299
3 298 299 300
3 301 298 300
3 296 298 301
3 301 300 302
3 303 301 302
3 303 302 304
3 305 299 297
3 305 297 306
3 307 303 306
3 307 306 308
3 308 306 297
3 309 303 307
3 309 301 303
3 296 301 309
3 294 310 308
3 296 309 311
3 311 309 312
3 313 296 311
3 313 314 296
3 296 314 315
3 296 315 295
3 314 316 315
3 314 317 316
3 289 318 310
3 289 319 318
3 320 318 319
3 320 319 321
3 322 320 321
3 322 321 323
3 273 289 310
3 273 310 294
3 324 252 325
3 324 326 252
3 327 326 324
3 327 328 326
3 324 325 329
3 324 329 330
3 325 252 331
3 252 332 331
3 252 333 332
3 252 231 333
3 327 330 334
3 327 324 330
3 335 336 332
3 336 337 332
3 332 337 338
3 337 339 338
3 337 340 339
3 332 338 331
3 341 336 335
3 341 342 336
3 343 336 342
3 344 336 343
3 344 343 345
3 343 342 346
3 345 343 347
3 345 347 348
3 348 347 349
3 343 349 347
3 343 346 349
3 350 336 344
3 348 349 351
3 348 351 352
3 352 351 353
3 354 352 353
3 351 354 353
3 354 355 352
3 356 355 354
3 356 354 357
3 358 356 357
3 359 357 354
3 351 359 354
3 359 360 357
3 361 357 360
3 362 357 361
3 361 360 363
3 357 362 364
3 364 362 365
3 364 365 366
3 367 364 366
3 367 366 368
3 368 365 369
3 368 366 365
3 255 362 370
3 255 370 256
3 255 365 362
3 371 365 255
3 372 371 255
3 372 255 373
3 374 372 373
3 374 373 375
3 372 376 371
3 372 377 376
3 374 377 372
3 374 378 377
3 379 381 380
3 379 382 381
3 383 380 381
3 383 381 384
3 382 386 385
3 382 379 386
3 386 387 385
3 386 388 387
3 389 387 388
3 389 390 387
3 334 392 391
3 334 393 392
3 391 392 394
3 391 394 395
3 378 395 394
3 378 394 396
3 327 397 328
3 327 398 397
3 397 398 399
3 397 399 400
3 398 327 334
3 398 334 391
3 391 399 398
3 374 400 399
3 374 375 400
3 399 378 374
3 399 395 378
3 391 395 399
3 401 403 402
3 404 401 402
3 404 405 401
3 329 334 330
3 329 393 334
3 406 408 407
3 406 409 408
3 410 409 406
3 410 406 411
3 411 406 412
3 412 406 407
3 411 412 413
3 412 407 414
3 415 407 408
3 415 416 407
3 416 414 407
3 416 417 414
3 418 411 413
3 418 413 419
3 411 418 420
3 420 418 421
3 422 417 416
3 422 423 417
3 416 424 422
3 424 425 422
3 426 428 427
3 426 429 428
3 430 429 426
3 430 431 429
3 432 427 428
3 426 432 430
3 426 427 432
3 432 428 433
3 431 434 429
3 431 435 434
3 433 437 436
3 433 428 437
3 339 331 338
3 339 438 331
3 305 303 304
3 305 306 303
3 439 441 440
3 439 442 441
3 443 442 439
3 443 439 440
3 443 444 442
3 442 445 441
3 442 444 445
3 443 440 446
3 429 434 447
3 434 435 448
3 434 448 449
3 434 449 450
3 435 451 448
3 435 452 451
3 410 420 453
3 411 420 410
3 454 456 455
3 457 456 454
3 457 454 458
3 376 378 396
3 376 377 378
3 282 280 283
3 282 281 280
3 459 461 460
3 459 462 461
3 463 459 460
3 463 462 459
3 463 460 464
3 460 465 464
3 460 461 465
3 463 466 462
3 437 468 467
3 437 469 468
3 437 467 436
3 436 471 470
3 436 467 471
3 472 473 447
3 472 474 473
3 474 472 475
3 474 475 476
3 415 477 424
3 416 415 424
3 429 473 428
3 429 447 473
3 428 473 437
3 350 340 337
3 350 337 336
3 297 294 308
3 358 364 367
3 358 357 364
