ply
format ascii 1.0
element vertex 688
property float x
property float y
property float z
property uchar red
property uchar green
property uchar blue
element face 810
property list uchar int vertex_index
end_header
0.54847 -0.34931 2.13972 134 97 37
0.56791 -0.34206 2.20209 134 97 37
0.70204 -0.39261 2.16615 134 97 37
0.6826 -0.39985 2.10378 134 97 37
1.10839 0.30451 2.7019 134 97 37
0.97426 0.35505 2.73784 134 97 37
0.9764 0.44694 2.61661 134 97 37
1.11054 0.3964 2.58067 134 97 37
1.06025 0.3817 2.56851 126 91 35
0.72921 -0.18644 2.13199 126 91 35
0.76332 -0.19923 2.1229 126 91 35
1.11054 0.3964 2.58067 126 91 35
0.9764 0.44694 2.61661 126 91 35
0.99373 0.40677 2.58633 126 91 35
1.06521 0.60295 2.27712 126 91 35
0.99868 0.62802 2.29494 126 91 35
0.93341 0.51561 2.20877 126 91 35
0.66263 -0.16147 2.14974 126 91 35
0.62907 -0.14889 2.15869 126 91 35
1.0686 0.73414 2.10347 126 91 35
1.00208 0.75921 2.12129 126 91 35
0.94448 0.58904 2.14859 126 91 35
0.94355 0.54654 2.20455 126 91 35
0.97426 0.35505 2.73784 126 91 35
0.56791 -0.34206 2.20209 126 91 35
1.05817 0.73153 2.06983 126 91 35
0.99165 0.7566 2.08766 126 91 35
1.0052 0.64066 2 126 91 35
0.93868 0.66573 2.01782 126 91 35
0.93663 0.58736 2.12159 126 91 35
0.9569 0.55741 1.93622 126 91 35
0.89038 0.58247 1.95405 126 91 35
0.88852 0.50372 2.05799 126 91 35
0.88216 0.55909 1.95656 126 91 35
0.88089 0.49995 2.03452 126 91 35
0.61613 -0.15196 2.11408 126 91 35
0.54847 -0.34931 2.13972 126 91 35
0.62069 0.04873 1.84953 126 91 35
0.65423 0.03609 1.84054 126 91 35
0.55512 -0.0638 1.76307 126 91 35
0.64966 -0.1646 2.1051 126 91 35
0.72075 0.01103 1.82272 126 91 35
0.68926 -0.11434 1.72713 126 91 35
0.75483 -0.00181 1.81359 126 91 35
0.75026 -0.2025 2.07814 126 91 35
0.71618 -0.18966 2.08727 126 91 35
0.99993 0.49055 2.19095 126 91 35
0.6826 -0.39985 2.10378 126 91 35
0.70204 -0.39261 2.16615 126 91 35
1.10839 0.30451 2.7019 126 91 35
0.99993 0.49055 2.19095 255 232 129
0.72075 0.01103 1.82272 255 232 129
0.71618 -0.18966 2.08727 255 232 129
0.72921 -0.18644 2.13199 255 232 129
1.06025 0.3817 2.56851 255 232 129
1.06521 0.60295 2.27712 255 232 129
1.01007 0.52147 2.18673 255 232 129
1.011 0.56397 2.13077 255 232 129
1.0686 0.73414 2.10347 255 232 129
1.05817 0.73153 2.06983 255 232 129
1.00315 0.56229 2.10377 255 232 129
1.0052 0.64066 2 255 232 129
0.9569 0.55741 1.93622 255 232 129
0.95504 0.47865 2.04017 255 232 129
0.94741 0.47483 2.01676 255 232 129
0.94868 0.53397 1.9388 255 232 129
1.01007 0.52147 2.18673 126 91 35
1.011 0.56397 2.13077 126 91 35
1.011 0.56397 2.13077 134 97 37
1.00315 0.56229 2.10377 134 97 37
0.93663 0.58736 2.12159 134 97 37
0.94448 0.58904 2.14859 134 97 37
0.88852 0.50372 2.05799 134 97 37
0.95504 0.47865 2.04017 134 97 37
0.88089 0.49995 2.03452 134 97 37
0.94741 0.47483 2.01676 134 97 37
0.94868 0.53397 1.9388 126 91 35
0.94741 0.47483 2.01676 126 91 35
0.30357 -0.10089 0.77331 245 202 89
0.6447 -0.10089 0.77331 245 202 89
0.6447 -0.10089 0.12208 245 202 89
0.30357 -0.10089 0.12208 245 202 89
0.63118 -0.04851 0.82669 245 202 89
0.30357 -0.04851 0.82669 245 202 89
0.73556 -0.02329 0.19706 245 202 89
0.73556 -0.02329 0.77347 245 202 89
0.68618 0.00797 0.82669 245 202 89
0.30357 0.4881 0.77331 245 202 89
0.30357 0.43556 0.82669 245 202 89
0.30357 0.25223 0.12208 245 202 89
0.6447 0.25223 0.12208 245 202 89
0.6447 0.25223 1.70651E-16 245 202 89
0.6447 -0.25655 1.70651E-16 245 202 89
0.30357 0.25223 1.70651E-16 245 202 89
0.30357 -0.25655 1.70651E-16 245 202 89
0.30357 -0.25655 0.12208 245 202 89
0.30357 0.4881 0.19713 245 202 89
0.6447 0.4881 0.19713 245 202 89
0.6447 0.4881 0.77331 245 202 89
0.63118 0.43556 0.82669 245 202 89
0.73556 0.41051 0.77347 245 202 89
0.68618 0.37909 0.82669 245 202 89
0.60872 0.43426 0.12208 245 202 89
0.30357 0.43426 0.12208 245 202 89
0.33939 0.29481 0.12208 245 202 89
0.73556 0.41051 0.19706 245 202 89
0.6447 0.39929 0.12208 245 202 89
0.33939 0.29481 1.70651E-16 245 202 89
0.60889 0.29481 1.70651E-16 245 202 89
0.60889 0.29481 0.12208 245 202 89
0.30357 -0.04851 0.82669 252 208 92
0.30357 0.43556 0.82669 252 208 92
0.63118 0.43556 0.82669 252 208 92
0.63118 -0.04851 0.82669 252 208 92
0.68618 0.00797 0.82669 252 208 92
0.68618 0.37909 0.82669 252 208 92
0.60756 -0.54596 1.70651E-16 126 91 35
0.34071 -0.54596 1.70651E-16 126 91 35
0.34071 -0.54596 0.12208 126 91 35
0.60756 -0.54596 0.12208 126 91 35
0.6447 -0.50769 1.70651E-16 126 91 35
0.6447 -0.50769 0.12208 126 91 35
0.30357 -0.50769 0.12208 126 91 35
0.30357 -0.50769 1.70651E-16 126 91 35
0.30357 -0.25655 0.12208 126 91 35
0.30357 -0.25655 1.70651E-16 126 91 35
0.64471 -0.25655 0.12208 126 91 35
0.6447 -0.25655 1.70651E-16 126 91 35
0.6447 -0.10089 0.12208 252 208 92
0.64471 -0.25655 0.12208 252 208 92
0.30357 -0.25655 0.12208 252 208 92
0.30357 -0.10089 0.12208 252 208 92
0.55374 0.16733 1.70651E-16 235 192 79
0.39454 0.16733 1.70651E-16 235 192 79
0.39454 -0.07011 1.70651E-16 235 192 79
0.55374 -0.07011 1.70651E-16 235 192 79
0.6447 -0.50769 0.12208 134 97 37
0.60756 -0.54596 0.12208 134 97 37
0.34071 -0.54596 0.12208 134 97 37
0.30357 -0.50769 0.12208 134 97 37
0.64471 -0.25655 0.12208 134 97 37
0.30357 -0.25655 0.12208 134 97 37
0.30357 -0.50769 1.70651E-16 251 231 181
0.34071 -0.54596 1.70651E-16 251 231 181
0.60756 -0.54596 1.70651E-16 251 231 181
0.6447 -0.50769 1.70651E-16 251 231 181
0.30357 -0.25655 1.70651E-16 251 231 181
0.6447 -0.25655 1.70651E-16 251 231 181
0.39454 -0.07011 1.70651E-16 251 231 181
0.55374 -0.07011 1.70651E-16 251 231 181
0.6447 0.25223 1.70651E-16 251 231 181
0.55374 0.16733 1.70651E-16 251 231 181
0.39454 0.16733 1.70651E-16 251 231 181
0.30357 0.25223 1.70651E-16 251 231 181
0.60889 0.29481 1.70651E-16 251 231 181
0.33939 0.29481 1.70651E-16 251 231 181
0.64471 -0.25655 0.12208 245 202 89
0.31742 -0.45207 0.59226 126 91 35
0.337 -0.47262 0.59226 126 91 35
0.47605 -0.47262 0.59226 126 91 35
0.49563 -0.45207 0.59226 126 91 35
0.53035 -0.46885 0.63018 126 91 35
0.53035 -0.33512 0.63018 126 91 35
0.53035 -0.46885 0.76287 126 91 35
0.49136 -0.50122 0.76287 126 91 35
0.49136 -0.50122 0.63018 126 91 35
0.53035 -0.33512 0.76287 126 91 35
0.49563 -0.35394 0.59226 126 91 35
0.2827 -0.46885 0.63018 126 91 35
0.31742 -0.35394 0.59226 126 91 35
0.2827 -0.33512 0.63018 126 91 35
0.2827 -0.46885 0.76287 126 91 35
0.2827 -0.33512 0.76287 126 91 35
0.32169 -0.50122 0.76287 126 91 35
0.32169 -0.50122 0.63018 126 91 35
0.31511 -0.45333 1.09422 252 208 92
0.31511 -0.35268 1.09422 252 208 92
0.49794 -0.35268 1.09422 252 208 92
0.49794 -0.45333 1.09422 252 208 92
0.47786 -0.47387 1.09422 252 208 92
0.3352 -0.47387 1.09422 252 208 92
0.2827 -0.33512 1.05006 245 202 89
0.2827 -0.46885 1.05006 245 202 89
0.2827 -0.46885 0.76287 245 202 89
0.2827 -0.33512 0.76287 245 202 89
0.31511 -0.45333 1.09422 245 202 89
0.31511 -0.35268 1.09422 245 202 89
0.3352 -0.47387 1.09422 245 202 89
0.32169 -0.50122 1.05006 245 202 89
0.49136 -0.50122 1.05006 245 202 89
0.47786 -0.47387 1.09422 245 202 89
0.32169 -0.50122 0.76287 245 202 89
0.53035 -0.46885 1.05006 245 202 89
0.53035 -0.46885 0.76287 245 202 89
0.49136 -0.50122 0.76287 245 202 89
0.53035 -0.33512 1.05006 245 202 89
0.49794 -0.35268 1.09422 245 202 89
0.49794 -0.45333 1.09422 245 202 89
0.53035 -0.33512 0.76287 245 202 89
-0.07357 1.19082 0.53337 97 76 43
-0.03021 1.23487 0.53337 97 76 43
0.10639 1.09507 0.53337 97 76 43
0.07357 1.0684 0.53337 97 76 43
0.54617 1.09507 0.53337 97 76 43
0.54617 1.23487 0.53337 97 76 43
-0.07357 0.56266 0.53337 97 76 43
0.07357 0.56266 0.53337 97 76 43
-0.07357 1.19082 0.38622 85 67 38
0.07357 1.0684 0.38622 85 67 38
0.10639 1.09507 0.38622 85 67 38
-0.03021 1.23487 0.38622 85 67 38
0.07357 1.0684 0.53337 85 67 38
0.10639 1.09507 0.53337 85 67 38
0.07357 0.56266 0.38622 85 67 38
-0.07357 0.56266 0.38622 85 67 38
0.67864 1.09507 0.38622 85 67 38
0.54617 1.09507 0.53337 85 67 38
0.67864 1.23487 0.38622 85 67 38
0.72416 1.09507 0.4303 85 67 38
0.72416 1.23487 0.4303 85 67 38
0.54617 1.23487 0.53337 85 67 38
-0.03021 1.23487 0.53337 85 67 38
-0.07357 1.19082 0.53337 85 67 38
-0.07357 0.56266 0.53337 85 67 38
0.57926 1.23487 0.56603 85 67 38
0.57926 1.09507 0.56603 85 67 38
0.72416 1.09507 1.31324 85 67 38
0.57926 1.09507 1.18488 85 67 38
0.57926 1.23487 1.18488 85 67 38
0.72416 1.23487 1.31324 85 67 38
0.67715 1.23487 1.35585 85 67 38
0.55314 1.23487 1.21456 85 67 38
0.08435 1.23487 1.21456 85 67 38
0.08435 1.09507 1.21456 85 67 38
0.55314 1.09507 1.21456 85 67 38
0.23695 1.23487 1.35585 85 67 38
0.04667 1.23487 1.25511 85 67 38
0.04667 1.09507 1.25511 85 67 38
0.23695 1.09507 1.35585 85 67 38
0.67715 1.09507 1.35585 85 67 38
0.04667 1.09507 1.35585 85 67 38
0.04667 1.23487 1.35585 85 67 38
0.67715 1.23487 1.35585 97 76 43
0.72416 1.23487 1.31324 97 76 43
0.72416 1.09507 1.31324 97 76 43
0.67715 1.09507 1.35585 97 76 43
0.23695 1.09507 1.35585 97 76 43
0.23695 1.23487 1.35585 97 76 43
0.21211 1.09507 2.54922 255 235 148
0.04667 1.09507 2.54922 255 235 148
0.04667 1.23487 2.54922 255 235 148
0.21211 1.23487 2.54922 255 235 148
0.2378 1.09507 2.52267 255 235 148
0.2378 1.23487 2.52267 255 235 148
0.23695 1.09507 1.35585 255 232 129
0.2378 1.09507 2.52267 255 232 129
0.2378 1.23487 2.52267 255 232 129
0.23695 1.23487 1.35585 255 232 129
0.04667 1.09507 1.35585 255 232 129
0.04667 1.09507 2.04922 255 232 129
0.04667 1.23487 1.35585 255 232 129
0.04667 1.23487 2.04922 255 232 129
0.04667 1.23487 2.54922 255 232 129
0.21211 1.23487 2.54922 255 232 129
-0.38796 1.23487 3.02066 255 232 129
-0.38796 1.23487 2.08052 255 232 129
-0.35727 1.23487 2.04922 255 232 129
-0.38796 1.09507 2.08052 255 232 129
-0.35727 1.09507 2.04922 255 232 129
0.04667 1.23487 3.01977 255 232 129
0.04667 1.09507 2.54922 255 232 129
0.04667 1.09507 3.01977 255 232 129
-0.35839 1.23487 3.04922 255 232 129
0.01623 1.23487 3.04922 255 232 129
-0.38796 1.09507 3.02066 255 232 129
0.01623 1.09507 3.04922 255 232 129
-0.35839 1.09507 3.04922 255 232 129
0.21211 1.09507 2.54922 255 232 129
-0.38796 1.23487 3.02066 255 235 148
-0.35839 1.23487 3.04922 255 235 148
-0.35839 1.09507 3.04922 255 235 148
-0.38796 1.09507 3.02066 255 235 148
0.01623 1.09507 3.04922 255 235 148
0.01623 1.23487 3.04922 255 235 148
0.04667 1.09507 3.01977 255 235 148
0.04667 1.23487 3.01977 255 235 148
0.07357 0.56266 0.53337 85 67 38
0.15831 -0.60988 1.62594 75 63 52
0.15831 -0.60988 1.65593 75 63 52
0.30941 -0.60988 1.65593 75 63 52
0.30941 -0.60988 1.62594 75 63 52
0.15831 -0.60988 1.81274 28 17 13
0.15831 -0.58814 1.81274 28 17 13
0.30941 -0.58814 1.81274 28 17 13
0.30941 -0.60988 1.81274 28 17 13
0.30941 -0.60988 1.65593 28 17 13
0.30941 -0.58814 1.65593 28 17 13
0.30941 -0.60988 1.62594 28 17 13
0.30941 -0.58814 1.62594 28 17 13
0.15831 -0.58814 1.62594 28 17 13
0.15831 -0.60988 1.62594 28 17 13
0.15831 -0.60988 1.65593 28 17 13
0.15831 -0.58814 1.65593 28 17 13
0.25648 -0.60988 1.74066 28 17 13
0.1902 -0.60988 1.74066 28 17 13
0.25648 -0.60988 1.80358 28 17 13
0.1902 -0.60988 1.80358 28 17 13
0.1902 -0.60988 1.74066 255 255 255
0.1902 -0.60988 1.80358 255 255 255
0.25648 -0.60988 1.80358 255 255 255
0.25648 -0.60988 1.74066 255 255 255
-0.15831 -0.60988 1.62594 75 63 52
-0.30941 -0.60988 1.62594 75 63 52
-0.30941 -0.60988 1.65593 75 63 52
-0.15831 -0.60988 1.65593 75 63 52
-0.15831 -0.60988 1.81274 28 17 13
-0.30941 -0.60988 1.81274 28 17 13
-0.30941 -0.58814 1.81274 28 17 13
-0.15831 -0.58814 1.81274 28 17 13
-0.30941 -0.60988 1.65593 28 17 13
-0.30941 -0.58814 1.65593 28 17 13
-0.30941 -0.60988 1.62594 28 17 13
-0.30941 -0.58814 1.62594 28 17 13
-0.15831 -0.58814 1.62594 28 17 13
-0.15831 -0.60988 1.62594 28 17 13
-0.15831 -0.60988 1.65593 28 17 13
-0.15831 -0.58814 1.65593 28 17 13
-0.25648 -0.60988 1.74066 28 17 13
-0.1902 -0.60988 1.74066 28 17 13
-0.25648 -0.60988 1.80358 28 17 13
-0.1902 -0.60988 1.80358 28 17 13
-0.1902 -0.60988 1.74066 255 255 255
-0.25648 -0.60988 1.74066 255 255 255
-0.25648 -0.60988 1.80358 255 255 255
-0.1902 -0.60988 1.80358 255 255 255
-0.03993 -0.62356 1.57214 49 43 38
-0.03993 -0.62356 1.61907 49 43 38
0.03993 -0.62356 1.61907 49 43 38
0.03993 -0.62356 1.57214 49 43 38
0.03993 -0.58831 1.61907 49 43 38
-0.03993 -0.58831 1.61907 49 43 38
-0.03993 -0.58831 1.57214 49 43 38
0.03993 -0.58831 1.57214 49 43 38
-0.12429 -0.5476 1.34559 213 155 180
-0.12429 -0.5476 1.43397 213 155 180
0.12429 -0.5476 1.43397 213 155 180
0.12429 -0.5476 1.34559 213 155 180
0.12429 -0.47859 1.43397 213 155 180
-0.12429 -0.47859 1.43397 213 155 180
0.12429 -0.47859 1.34559 213 155 180
-0.12429 -0.47859 1.34559 213 155 180
0.25984 -0.61974 1.31037 255 233 132
0.25984 -0.61974 1.56174 255 233 132
0.49105 -0.61974 1.56174 255 233 132
0.49105 -0.61974 1.31037 255 233 132
0.49105 -0.59052 1.56174 255 233 132
0.25984 -0.59052 1.56174 255 233 132
0.25984 -0.59052 1.31037 255 233 132
0.49105 -0.59052 1.31037 255 233 132
-0.25984 -0.61974 1.31037 255 233 132
-0.49105 -0.61974 1.31037 255 233 132
-0.49105 -0.61974 1.56174 255 233 132
-0.25984 -0.61974 1.56174 255 233 132
-0.49105 -0.59052 1.56174 255 233 132
-0.25984 -0.59052 1.56174 255 233 132
-0.25984 -0.59052 1.31037 255 233 132
-0.49105 -0.59052 1.31037 255 233 132
0.57535 -0.51807 1.22565 245 202 89
0.57535 -0.51807 2.03275 245 202 89
0.57535 -0.28892 1.22565 245 202 89
0.49785 -0.59158 2.03275 245 202 89
0.49785 -0.59158 1.22565 245 202 89
0.51782 -0.46788 2.09748 245 202 89
0.44807 -0.53405 2.09748 245 202 89
0.51782 0.25296 2.09748 245 202 89
0.57535 0.30315 2.03275 245 202 89
0.51526 -0.37893 1.15251 245 202 89
0.51526 -0.46565 1.15251 245 202 89
0.44586 -0.53149 1.15251 245 202 89
0.18107 -0.59158 1.5021 245 202 89
0.18107 -0.59158 1.35517 245 202 89
-2.36419E-17 -0.59158 2.03275 245 202 89
0.51556 -0.37893 0.29031 245 202 89
0.57567 -0.28892 0.29056 245 202 89
0.43046 -0.37893 0.29031 245 202 89
0.39107 -0.2889 0.20603 245 202 89
0.51586 -0.2889 0.20603 245 202 89
0.51611 0.56787 0.20603 245 202 89
0.57572 0.56828 0.29063 245 202 89
0.43031 -0.37893 0.99334 245 202 89
0.35775 -0.37893 1.04917 245 202 89
-0.51526 -0.37893 1.15251 245 202 89
-0.35775 -0.37893 1.04917 245 202 89
-0.51526 -0.46565 1.15251 245 202 89
-0.57535 -0.51807 1.22565 245 202 89
-0.57535 -0.28892 1.22565 245 202 89
-0.57535 -0.51807 2.03275 245 202 89
-0.49785 -0.59158 2.03275 245 202 89
-0.49785 -0.59158 1.22565 245 202 89
-0.51782 -0.46788 2.09748 245 202 89
-0.44807 -0.53405 2.09748 245 202 89
-0.51782 0.25296 2.09748 245 202 89
-0.57535 0.30315 2.03275 245 202 89
-0.44586 -0.53149 1.15251 245 202 89
-0.18107 -0.59158 1.5021 245 202 89
-0.18107 -0.59158 1.35517 245 202 89
-0.04635 -0.59158 1.5021 245 202 89
0 -0.59158 1.55107 245 202 89
0.04635 -0.59158 1.5021 245 202 89
-0.57535 0.30315 1.28728 245 202 89
-0.5756 0.56828 1.02127 245 202 89
-0.57549 0.56828 1.28728 245 202 89
-0.51598 0.37666 1.36566 245 202 89
-0.51645 0.5318 1.36566 245 202 89
-0.57567 -0.28892 0.29056 245 202 89
-0.57572 0.56828 0.29063 245 202 89
-0.51556 -0.37893 0.29031 245 202 89
-0.43046 -0.37893 0.29031 245 202 89
-0.39107 -0.2889 0.20603 245 202 89
-0.51586 -0.2889 0.20603 245 202 89
-0.51611 0.56787 0.20603 245 202 89
-0.43031 -0.37893 0.99334 245 202 89
0.44807 0.31913 2.09748 245 202 89
0.51491 0.37666 2.03275 245 202 89
0.57535 0.30315 1.28728 245 202 89
0.51598 0.37666 1.36566 245 202 89
-0.44807 0.31913 2.09748 245 202 89
-0.51491 0.37666 2.03275 245 202 89
0.51651 0.65752 0.29083 245 202 89
0.51654 0.65752 0.65222 245 202 89
0.51656 0.65752 0.82216 245 202 89
0.5756 0.56828 1.02127 245 202 89
0.51662 0.65752 1.0019 245 202 89
0.51672 0.65752 1.16931 245 202 89
0.57549 0.56828 1.28728 245 202 89
0.51692 0.65752 1.28697 245 202 89
0.51645 0.5318 1.36566 245 202 89
0.46191 0.6073 1.36566 245 202 89
-0.51692 0.65752 1.28697 245 202 89
-0.51672 0.65752 1.16931 245 202 89
-0.46191 0.6073 1.36566 245 202 89
-0.51651 0.65752 0.29083 245 202 89
-0.51654 0.65752 0.65222 245 202 89
-0.51656 0.65752 0.82216 245 202 89
-0.51662 0.65752 1.0019 245 202 89
0.18107 -0.59158 1.35517 148 96 109
0.18107 -0.48803 1.35517 148 96 109
0.18107 -0.48803 1.5021 148 96 109
0.18107 -0.59158 1.5021 148 96 109
0.04635 -0.48803 1.5021 148 96 109
0.04635 -0.59158 1.5021 148 96 109
0 -0.48803 1.55107 148 96 109
0 -0.59158 1.55107 148 96 109
-0.18107 -0.59158 1.35517 148 96 109
-0.18107 -0.48803 1.35517 148 96 109
-0.18107 -0.48803 1.5021 148 96 109
-0.18107 -0.59158 1.5021 148 96 109
-0.04635 -0.48803 1.5021 148 96 109
-0.04635 -0.59158 1.5021 148 96 109
-0.43031 -0.37893 0.99334 254 247 228
-0.35775 -0.37893 1.04917 254 247 228
0.35775 -0.37893 1.04917 254 247 228
0.43031 -0.37893 0.99334 254 247 228
0.43046 -0.37893 0.29031 254 247 228
-0.43046 -0.37893 0.29031 254 247 228
0.39107 -0.2889 0.20603 254 247 228
-0.39107 -0.2889 0.20603 254 247 228
0.51782 -0.46788 2.09748 252 208 92
0.44807 -0.53405 2.09748 252 208 92
-0.44807 -0.53405 2.09748 252 208 92
-0.51782 -0.46788 2.09748 252 208 92
0.51782 0.25296 2.09748 252 208 92
-0.51782 0.25296 2.09748 252 208 92
0.44807 0.31913 2.09748 252 208 92
-0.44807 0.31913 2.09748 252 208 92
0.51645 0.5318 1.36566 252 208 92
0.51598 0.37666 1.36566 252 208 92
-0.51598 0.37666 1.36566 252 208 92
-0.51645 0.5318 1.36566 252 208 92
0.46191 0.6073 1.36566 252 208 92
-0.46191 0.6073 1.36566 252 208 92
0.51662 0.65752 1.0019 126 91 35
0.51672 0.65752 1.16931 126 91 35
-0.51672 0.65752 1.16931 126 91 35
-0.51662 0.65752 1.0019 126 91 35
0.51654 0.65752 0.65222 126 91 35
0.51656 0.65752 0.82216 126 91 35
-0.51656 0.65752 0.82216 126 91 35
-0.51654 0.65752 0.65222 126 91 35
-0.31742 -0.45207 0.59226 126 91 35
-0.49563 -0.45207 0.59226 126 91 35
-0.47605 -0.47262 0.59226 126 91 35
-0.337 -0.47262 0.59226 126 91 35
-0.53035 -0.46885 0.63018 126 91 35
-0.53035 -0.33512 0.63018 126 91 35
-0.53035 -0.46885 0.76287 126 91 35
-0.49136 -0.50122 0.76287 126 91 35
-0.49136 -0.50122 0.63018 126 91 35
-0.53035 -0.33512 0.76287 126 91 35
-0.49563 -0.35394 0.59226 126 91 35
-0.2827 -0.46885 0.63018 126 91 35
-0.31742 -0.35394 0.59226 126 91 35
-0.2827 -0.33512 0.63018 126 91 35
-0.2827 -0.46885 0.76287 126 91 35
-0.2827 -0.33512 0.76287 126 91 35
-0.32169 -0.50122 0.76287 126 91 35
-0.32169 -0.50122 0.63018 126 91 35
-0.31511 -0.45333 1.09422 252 208 92
-0.49794 -0.45333 1.09422 252 208 92
-0.49794 -0.35268 1.09422 252 208 92
-0.31511 -0.35268 1.09422 252 208 92
-0.47786 -0.47387 1.09422 252 208 92
-0.3352 -0.47387 1.09422 252 208 92
-0.2827 -0.33512 1.05006 245 202 89
-0.2827 -0.33512 0.76287 245 202 89
-0.2827 -0.46885 0.76287 245 202 89
-0.2827 -0.46885 1.05006 245 202 89
-0.31511 -0.45333 1.09422 245 202 89
-0.31511 -0.35268 1.09422 245 202 89
-0.3352 -0.47387 1.09422 245 202 89
-0.32169 -0.50122 1.05006 245 202 89
-0.49136 -0.50122 1.05006 245 202 89
-0.47786 -0.47387 1.09422 245 202 89
-0.32169 -0.50122 0.76287 245 202 89
-0.53035 -0.46885 1.05006 245 202 89
-0.53035 -0.46885 0.76287 245 202 89
-0.49136 -0.50122 0.76287 245 202 89
-0.53035 -0.33512 1.05006 245 202 89
-0.49794 -0.35268 1.09422 245 202 89
-0.49794 -0.45333 1.09422 245 202 89
-0.53035 -0.33512 0.76287 245 202 89
-0.30357 -0.10089 0.77331 245 202 89
-0.30357 -0.10089 0.12208 245 202 89
-0.6447 -0.10089 0.12208 245 202 89
-0.6447 -0.10089 0.77331 245 202 89
-0.63118 -0.04851 0.82669 245 202 89
-0.30357 -0.04851 0.82669 245 202 89
-0.73556 -0.02329 0.19706 245 202 89
-0.73556 -0.02329 0.77347 245 202 89
-0.68618 0.00797 0.82669 245 202 89
-0.30357 0.4881 0.77331 245 202 89
-0.30357 0.43556 0.82669 245 202 89
-0.30357 0.25223 0.12208 245 202 89
-0.6447 0.25223 0.12208 245 202 89
-0.6447 0.25223 1.70651E-16 245 202 89
-0.6447 -0.25655 1.70651E-16 245 202 89
-0.30357 0.25223 1.70651E-16 245 202 89
-0.30357 -0.25655 1.70651E-16 245 202 89
-0.30357 -0.25655 0.12208 245 202 89
-0.6447 0.4881 0.77331 245 202 89
-0.6447 0.4881 0.19713 245 202 89
-0.30357 0.4881 0.19713 245 202 89
-0.63118 0.43556 0.82669 245 202 89
-0.73556 0.41051 0.77347 245 202 89
-0.68618 0.37909 0.82669 245 202 89
-0.60872 0.43426 0.12208 245 202 89
-0.30357 0.43426 0.12208 245 202 89
-0.33939 0.29481 0.12208 245 202 89
-0.73556 0.41051 0.19706 245 202 89
-0.6447 0.39929 0.12208 245 202 89
-0.33939 0.29481 1.70651E-16 245 202 89
-0.60889 0.29481 1.70651E-16 245 202 89
-0.60889 0.29481 0.12208 245 202 89
-0.30357 -0.04851 0.82669 252 208 92
-0.63118 -0.04851 0.82669 252 208 92
-0.63118 0.43556 0.82669 252 208 92
-0.30357 0.43556 0.82669 252 208 92
-0.68618 0.00797 0.82669 252 208 92
-0.68618 0.37909 0.82669 252 208 92
-0.60756 -0.54596 1.70651E-16 126 91 35
-0.60756 -0.54596 0.12208 126 91 35
-0.34071 -0.54596 0.12208 126 91 35
-0.34071 -0.54596 1.70651E-16 126 91 35
-0.6447 -0.50769 1.70651E-16 126 91 35
-0.6447 -0.50769 0.12208 126 91 35
-0.30357 -0.50769 0.12208 126 91 35
-0.30357 -0.50769 1.70651E-16 126 91 35
-0.30357 -0.25655 0.12208 126 91 35
-0.30357 -0.25655 1.70651E-16 126 91 35
-0.64471 -0.25655 0.12208 126 91 35
-0.6447 -0.25655 1.70651E-16 126 91 35
-0.6447 -0.10089 0.12208 252 208 92
-0.30357 -0.10089 0.12208 252 208 92
-0.30357 -0.25655 0.12208 252 208 92
-0.64471 -0.25655 0.12208 252 208 92
-0.55374 0.16733 1.70651E-16 235 192 79
-0.55374 -0.07011 1.70651E-16 235 192 79
-0.39454 -0.07011 1.70651E-16 235 192 79
-0.39454 0.16733 1.70651E-16 235 192 79
-0.6447 -0.50769 0.12208 134 97 37
-0.30357 -0.50769 0.12208 134 97 37
-0.34071 -0.54596 0.12208 134 97 37
-0.60756 -0.54596 0.12208 134 97 37
-0.64471 -0.25655 0.12208 134 97 37
-0.30357 -0.25655 0.12208 134 97 37
-0.30357 -0.50769 1.70651E-16 251 231 181
-0.6447 -0.50769 1.70651E-16 251 231 181
-0.60756 -0.54596 1.70651E-16 251 231 181
-0.34071 -0.54596 1.70651E-16 251 231 181
-0.30357 -0.25655 1.70651E-16 251 231 181
-0.6447 -0.25655 1.70651E-16 251 231 181
-0.39454 -0.07011 1.70651E-16 251 231 181
-0.55374 -0.07011 1.70651E-16 251 231 181
-0.6447 0.25223 1.70651E-16 251 231 181
-0.55374 0.16733 1.70651E-16 251 231 181
-0.39454 0.16733 1.70651E-16 251 231 181
-0.30357 0.25223 1.70651E-16 251 231 181
-0.60889 0.29481 1.70651E-16 251 231 181
-0.33939 0.29481 1.70651E-16 251 231 181
-0.64471 -0.25655 0.12208 245 202 89
-0.54847 -0.34931 2.13972 134 97 37
-0.6826 -0.39985 2.10378 134 97 37
-0.70204 -0.39261 2.16615 134 97 37
-0.56791 -0.34206 2.20209 134 97 37
-1.10839 0.30451 2.7019 134 97 37
-0.97426 0.35505 2.73784 134 97 37
-1.11054 0.3964 2.58067 134 97 37
-0.9764 0.44694 2.61661 134 97 37
-1.06025 0.3817 2.56851 126 91 35
-1.11054 0.3964 2.58067 126 91 35
-0.76332 -0.19923 2.1229 126 91 35
-0.72921 -0.18644 2.13199 126 91 35
-0.9764 0.44694 2.61661 126 91 35
-0.99373 0.40677 2.58633 126 91 35
-1.06521 0.60295 2.27712 126 91 35
-0.99868 0.62802 2.29494 126 91 35
-0.93341 0.51561 2.20877 126 91 35
-0.66263 -0.16147 2.14974 126 91 35
-0.62907 -0.14889 2.15869 126 91 35
-1.0686 0.73414 2.10347 126 91 35
-1.00208 0.75921 2.12129 126 91 35
-0.94448 0.58904 2.14859 126 91 35
-0.94355 0.54654 2.20455 126 91 35
-0.97426 0.35505 2.73784 126 91 35
-0.56791 -0.34206 2.20209 126 91 35
-1.05817 0.73153 2.06983 126 91 35
-0.99165 0.7566 2.08766 126 91 35
-1.0052 0.64066 2 126 91 35
-0.93868 0.66573 2.01782 126 91 35
-0.93663 0.58736 2.12159 126 91 35
-0.9569 0.55741 1.93622 126 91 35
-0.89038 0.58247 1.95405 126 91 35
-0.88852 0.50372 2.05799 126 91 35
-0.88216 0.55909 1.95656 126 91 35
-0.88089 0.49995 2.03452 126 91 35
-0.61613 -0.15196 2.11408 126 91 35
-0.54847 -0.34931 2.13972 126 91 35
-0.62069 0.04873 1.84953 126 91 35
-0.65423 0.03609 1.84054 126 91 35
-0.55512 -0.0638 1.76307 126 91 35
-0.64966 -0.1646 2.1051 126 91 35
-0.72075 0.01103 1.82272 126 91 35
-0.68926 -0.11434 1.72713 126 91 35
-0.75483 -0.00181 1.81359 126 91 35
-0.75026 -0.2025 2.07814 126 91 35
-0.71618 -0.18966 2.08727 126 91 35
-0.99993 0.49055 2.19095 126 91 35
-0.6826 -0.39985 2.10378 126 91 35
-0.70204 -0.39261 2.16615 126 91 35
-1.10839 0.30451 2.7019 126 91 35
-0.99993 0.49055 2.19095 255 232 129
-0.71618 -0.18966 2.08727 255 232 129
-0.72075 0.01103 1.82272 255 232 129
-0.72921 -0.18644 2.13199 255 232 129
-1.06025 0.3817 2.56851 255 232 129
-1.06521 0.60295 2.27712 255 232 129
-1.01007 0.52147 2.18673 255 232 129
-1.011 0.56397 2.13077 255 232 129
-1.0686 0.73414 2.10347 255 232 129
-1.05817 0.73153 2.06983 255 232 129
-1.00315 0.56229 2.10377 255 232 129
-1.0052 0.64066 2 255 232 129
-0.9569 0.55741 1.93622 255 232 129
-0.95504 0.47865 2.04017 255 232 129
-0.94741 0.47483 2.01676 255 232 129
-0.94868 0.53397 1.9388 255 232 129
-1.01007 0.52147 2.18673 126 91 35
-1.011 0.56397 2.13077 126 91 35
-1.011 0.56397 2.13077 134 97 37
-0.94448 0.58904 2.14859 134 97 37
-0.93663 0.58736 2.12159 134 97 37
-1.00315 0.56229 2.10377 134 97 37
-0.88852 0.50372 2.05799 134 97 37
-0.95504 0.47865 2.04017 134 97 37
-0.88089 0.49995 2.03452 134 97 37
-0.94741 0.47483 2.01676 134 97 37
-0.94868 0.53397 1.9388 126 91 35
-0.94741 0.47483 2.01676 126 91 35
3 0 2 1
3 0 3 2
3 1 2 4
3 1 4 5
3 5 7 6
3 5 4 7
3 8 10 9
3 8 11 10
3 12 11 8
3 12 8 13
3 13 8 14
3 13 14 15
3 15 16 13
3 12 13 17
3 13 16 17
3 12 17 18
3 15 14 19
3 15 19 20
3 21 15 20
3 21 22 15
3 15 22 16
3 18 23 12
3 18 24 23
3 20 19 25
3 20 25 26
3 21 20 26
3 26 25 27
3 26 27 28
3 26 28 29
3 21 26 29
3 28 27 30
3 28 30 31
3 29 28 31
3 31 32 29
3 32 31 33
3 32 33 34
3 35 36 24
3 36 35 37
3 35 38 37
3 39 37 38
3 36 37 39
3 35 40 38
3 39 38 41
3 39 41 42
3 42 41 43
3 41 44 43
3 41 45 44
3 41 38 16
3 40 16 38
3 41 16 46
3 17 16 40
3 9 44 45
3 9 10 44
3 18 40 35
3 18 17 40
3 35 24 18
3 47 39 42
3 47 36 39
3 47 42 43
3 47 43 44
3 47 44 48
3 48 44 10
3 48 10 11
3 48 11 49
3 50 52 51
3 50 53 52
3 50 54 53
3 55 54 50
3 55 50 56
3 55 56 57
3 55 57 58
3 59 58 57
3 59 57 60
3 59 60 61
3 61 60 62
3 62 60 63
3 62 63 64
3 62 64 65
3 66 21 67
3 66 22 21
3 46 22 66
3 46 16 22
3 68 70 69
3 68 71 70
3 69 70 72
3 69 72 73
3 73 72 74
3 73 74 75
3 76 34 33
3 76 77 34
3 31 76 33
3 31 30 76
3 78 80 79
3 78 81 80
3 78 79 82
3 78 82 83
3 79 80 84
3 79 84 85
3 85 82 79
3 85 86 82
3 87 78 83
3 87 83 88
3 78 89 81
3 87 89 78
3 84 80 90
3 91 90 80
3 80 92 91
3 93 81 89
3 94 81 93
3 95 81 94
3 87 97 96
3 87 98 97
3 96 89 87
3 88 98 87
3 88 99 98
3 100 98 99
3 100 99 101
3 96 97 102
3 96 102 103
3 103 89 96
3 103 104 89
3 103 102 104
3 105 98 100
3 105 97 98
3 84 105 100
3 84 100 85
3 106 97 105
3 102 97 106
3 104 102 106
3 105 90 106
3 84 90 105
3 89 104 107
3 104 108 107
3 108 90 91
3 108 109 90
3 104 109 108
3 109 106 90
3 104 106 109
3 100 86 85
3 100 101 86
3 89 107 93
3 110 112 111
3 110 113 112
3 112 113 114
3 112 114 115
3 116 118 117
3 116 119 118
3 120 119 116
3 120 121 119
3 122 117 118
3 122 123 117
3 123 122 124
3 123 124 125
3 120 126 121
3 120 127 126
3 128 130 129
3 128 131 130
3 132 134 133
3 132 135 134
3 136 138 137
3 136 139 138
3 140 139 136
3 140 141 139
3 142 144 143
3 142 145 144
3 146 145 142
3 146 147 145
3 147 146 148
3 147 148 149
3 150 147 149
3 150 149 151
3 146 152 148
3 146 153 152
3 153 151 152
3 153 150 151
3 153 154 150
3 153 155 154
3 156 92 80
3 157 159 158
3 157 160 159
3 161 159 160
3 162 161 160
3 162 163 161
3 164 161 163
3 164 165 161
3 161 165 159
3 162 166 163
3 162 160 167
3 158 168 157
3 168 169 157
3 169 160 157
3 169 167 160
3 168 170 169
3 171 170 168
3 171 172 170
3 168 173 171
3 165 164 173
3 168 174 173
3 165 173 174
3 159 165 174
3 158 174 168
3 159 174 158
3 175 177 176
3 175 178 177
3 175 179 178
3 175 180 179
3 181 183 182
3 181 184 183
3 181 182 185
3 181 185 186
3 182 187 185
3 182 188 187
3 183 188 182
3 189 187 188
3 189 190 187
3 183 191 188
3 191 189 188
3 190 189 192
3 189 193 192
3 189 194 193
3 191 194 189
3 193 195 192
3 192 195 196
3 192 196 197
3 190 192 197
3 193 198 195
3 199 201 200
3 199 202 201
3 200 201 203
3 200 203 204
3 205 202 199
3 205 206 202
3 207 209 208
3 207 210 209
3 211 208 209
3 211 209 212
3 207 208 213
3 213 208 211
3 207 213 214
3 212 209 215
3 212 215 216
3 209 217 215
3 209 210 217
3 218 216 215
3 218 215 217
3 218 217 219
3 219 217 220
3 210 220 217
3 210 221 220
3 210 222 221
3 210 207 222
3 222 207 214
3 222 214 223
3 219 220 224
3 220 225 224
3 220 216 225
3 218 225 216
3 225 218 226
3 225 226 227
3 219 224 228
3 224 227 228
3 224 225 227
3 219 228 229
3 218 219 229
3 218 229 226
3 230 229 228
3 230 228 231
3 230 231 232
3 231 233 232
3 231 234 233
3 230 232 235
3 235 232 236
3 232 237 236
3 232 233 237
3 233 238 237
3 234 238 233
3 234 239 238
3 237 238 240
3 236 237 240
3 236 240 241
3 235 236 241
3 228 234 231
3 228 227 234
3 239 234 227
3 239 227 226
3 242 244 243
3 242 245 244
3 245 247 246
3 245 242 247
3 248 250 249
3 248 251 250
3 252 251 248
3 252 253 251
3 254 256 255
3 254 257 256
3 258 254 255
3 258 255 259
3 260 258 259
3 260 259 261
3 257 261 256
3 257 260 261
3 256 261 262
3 256 262 263
3 261 264 262
3 265 264 261
3 265 261 266
3 266 267 265
3 266 268 267
3 261 268 266
3 262 264 269
3 270 262 269
3 270 269 271
3 269 264 272
3 269 272 273
3 261 259 268
3 274 259 270
3 267 259 274
3 265 267 274
3 265 274 264
3 267 268 259
3 274 270 271
3 274 271 275
3 274 275 276
3 259 277 270
3 259 255 277
3 278 280 279
3 278 281 280
3 279 280 282
3 279 282 283
3 283 282 284
3 283 284 285
3 213 211 286
3 287 289 288
3 287 290 289
3 291 293 292
3 291 294 293
3 295 293 294
3 295 296 293
3 297 296 295
3 297 298 296
3 299 298 297
3 299 297 300
3 299 300 301
3 299 301 302
3 302 291 292
3 302 301 291
3 301 295 303
3 301 303 304
3 291 301 304
3 295 305 303
3 295 294 305
3 294 306 305
3 294 291 306
3 291 304 306
3 307 309 308
3 307 310 309
3 311 313 312
3 311 314 313
3 315 317 316
3 315 318 317
3 319 316 317
3 319 317 320
3 321 319 320
3 321 320 322
3 323 321 322
3 323 324 321
3 323 325 324
3 323 326 325
3 326 315 325
3 326 318 315
3 325 327 319
3 325 328 327
3 315 328 325
3 319 329 316
3 319 327 329
3 316 330 315
3 316 329 330
3 315 330 328
3 331 333 332
3 331 334 333
3 335 337 336
3 335 338 337
3 336 337 339
3 338 339 337
3 336 339 340
3 341 338 335
3 341 336 340
3 341 335 336
3 341 342 338
3 338 342 339
3 343 345 344
3 343 346 345
3 344 345 347
3 346 347 345
3 344 347 348
3 346 349 347
3 350 344 348
3 350 343 344
3 351 353 352
3 351 354 353
3 352 353 355
3 354 355 353
3 352 355 356
3 357 354 351
3 357 352 356
3 357 351 352
3 357 358 354
3 354 358 355
3 359 361 360
3 359 362 361
3 362 363 361
3 360 361 363
3 362 364 363
3 365 359 360
3 365 362 359
3 365 364 362
3 365 360 366
3 360 363 366
3 367 369 368
3 370 367 368
3 370 371 367
3 370 368 372
3 370 372 373
3 368 374 372
3 368 375 374
3 376 369 367
3 376 367 377
3 367 378 377
3 367 371 378
3 371 370 379
3 371 379 380
3 373 381 370
3 381 379 370
3 369 376 382
3 369 382 383
3 376 384 382
3 382 384 385
3 382 385 386
3 383 382 386
3 387 383 386
3 387 388 383
3 376 389 384
3 376 390 389
3 390 376 391
3 377 391 376
3 390 391 392
3 377 393 391
3 391 393 394
3 391 394 395
3 394 396 395
3 397 396 394
3 397 394 398
3 397 399 396
3 397 400 399
3 396 399 401
3 396 401 402
3 394 403 398
3 394 393 403
3 398 404 397
3 398 405 404
3 406 397 404
3 406 381 397
3 400 397 381
3 381 406 407
3 373 400 381
3 371 398 403
3 371 403 378
3 378 403 393
3 378 393 377
3 380 398 371
3 380 405 398
3 408 381 407
3 379 381 408
3 396 402 409
3 396 409 395
3 395 409 410
3 409 411 410
3 412 411 409
3 412 413 411
3 395 410 414
3 410 415 414
3 395 414 416
3 395 416 391
3 391 416 417
3 416 418 417
3 416 419 418
3 414 419 416
3 420 419 414
3 420 418 419
3 420 414 415
3 391 417 421
3 391 421 392
3 375 422 374
3 375 423 422
3 424 423 375
3 424 425 423
3 423 426 422
3 423 427 426
3 425 427 423
3 402 426 427
3 402 401 426
3 425 412 427
3 409 427 412
3 409 402 427
3 388 387 428
3 388 428 429
3 388 429 430
3 388 430 431
3 431 430 432
3 431 432 433
3 431 433 434
3 434 433 435
3 435 436 434
3 435 437 436
3 433 438 435
3 433 439 438
3 435 440 437
3 435 438 440
3 438 413 440
3 438 411 413
3 411 438 439
3 387 441 428
3 387 420 441
3 415 441 420
3 415 442 441
3 428 441 442
3 428 442 429
3 415 443 442
3 415 410 443
3 410 411 439
3 410 444 443
3 410 439 444
3 430 443 444
3 430 444 432
3 385 420 387
3 385 387 386
3 385 418 420
3 445 447 446
3 445 448 447
3 448 449 447
3 449 446 447
3 448 450 449
3 451 449 450
3 451 450 452
3 446 453 445
3 446 454 453
3 449 454 446
3 453 454 455
3 453 455 456
3 456 455 457
3 457 455 454
3 449 457 454
3 451 457 449
3 456 457 458
3 451 458 457
3 451 452 458
3 431 383 388
3 369 383 431
3 369 431 424
3 424 431 434
3 425 424 434
3 425 434 436
3 368 369 424
3 368 424 375
3 459 461 460
3 459 462 461
3 463 462 459
3 463 459 464
3 465 463 464
3 465 464 466
3 467 469 468
3 467 470 469
3 471 470 467
3 471 472 470
3 473 472 471
3 473 474 472
3 475 477 476
3 475 478 477
3 479 478 475
3 479 480 478
3 481 483 482
3 481 484 483
3 485 487 486
3 485 488 487
3 489 491 490
3 489 492 491
3 493 490 491
3 494 490 493
3 494 493 495
3 496 495 493
3 496 493 497
3 493 491 497
3 494 495 498
3 494 499 490
3 492 489 500
3 500 489 501
3 501 490 499
3 501 489 490
3 500 501 502
3 503 500 502
3 503 502 504
3 500 503 505
3 497 505 496
3 500 505 506
3 492 500 506
3 497 506 505
3 491 506 497
3 491 492 506
3 507 509 508
3 507 510 509
3 507 508 511
3 507 511 512
3 513 515 514
3 513 516 515
3 513 517 516
3 513 518 517
3 516 517 519
3 516 519 520
3 515 516 520
3 521 520 519
3 521 519 522
3 515 520 523
3 523 520 521
3 522 524 521
3 521 524 525
3 521 525 526
3 523 521 526
3 525 524 527
3 524 528 527
3 524 529 528
3 522 529 524
3 525 527 530
3 531 533 532
3 531 534 533
3 531 535 534
3 531 536 535
3 534 537 533
3 534 538 537
3 538 534 535
3 538 535 539
3 540 536 531
3 540 541 536
3 531 532 542
3 540 531 542
3 537 543 533
3 544 533 543
3 533 544 545
3 546 542 532
3 547 546 532
3 548 547 532
3 540 550 549
3 540 551 550
3 551 540 542
3 541 540 549
3 541 549 552
3 553 552 549
3 553 554 552
3 551 555 550
3 551 556 555
3 556 551 542
3 556 542 557
3 556 557 555
3 558 549 550
3 558 553 549
3 537 553 558
3 537 538 553
3 559 558 550
3 555 559 550
3 557 559 555
3 558 559 543
3 537 558 543
3 542 560 557
3 557 560 561
3 561 543 562
3 557 561 562
3 562 543 559
3 557 562 559
3 561 544 543
3 553 539 554
3 553 538 539
3 542 546 560
3 563 565 564
3 563 566 565
3 565 567 564
3 565 568 567
3 569 571 570
3 569 572 571
3 573 569 570
3 573 570 574
3 575 571 572
3 575 572 576
3 576 577 575
3 576 578 577
3 573 574 579
3 573 579 580
3 581 583 582
3 581 584 583
3 585 587 586
3 585 588 587
3 589 591 590
3 589 592 591
3 593 589 590
3 593 590 594
3 595 597 596
3 595 598 597
3 599 595 596
3 599 596 600
3 600 601 599
3 600 602 601
3 603 602 600
3 603 604 602
3 599 601 605
3 599 605 606
3 606 604 603
3 606 605 604
3 606 603 607
3 606 607 608
3 609 533 545
3 610 612 611
3 610 613 612
3 613 614 612
3 613 615 614
3 615 616 614
3 615 617 616
3 618 620 619
3 618 621 620
3 622 618 619
3 622 623 618
3 623 624 618
3 623 625 624
3 625 623 626
3 622 627 623
3 623 627 626
3 622 628 627
3 625 629 624
3 625 630 629
3 631 630 625
3 631 625 632
3 625 626 632
3 628 622 633
3 628 633 634
3 630 635 629
3 630 636 635
3 631 636 630
3 636 637 635
3 636 638 637
3 636 639 638
3 631 639 636
3 638 640 637
3 638 641 640
3 639 641 638
3 641 639 642
3 642 643 641
3 642 644 643
3 645 634 646
3 646 647 645
3 645 647 648
3 649 648 647
3 646 649 647
3 645 648 650
3 649 651 648
3 649 652 651
3 652 653 651
3 651 653 654
3 651 654 655
3 651 626 648
3 650 648 626
3 651 656 626
3 627 650 626
3 621 655 654
3 621 654 620
3 628 650 627
3 628 645 650
3 645 628 634
3 657 649 646
3 657 652 649
3 657 653 652
3 657 654 653
3 657 658 654
3 658 620 654
3 658 619 620
3 658 659 619
3 660 662 661
3 660 661 663
3 660 663 664
3 665 660 664
3 665 666 660
3 665 667 666
3 665 668 667
3 669 667 668
3 669 670 667
3 669 671 670
3 671 672 670
3 672 673 670
3 672 674 673
3 672 675 674
3 676 631 632
3 676 677 631
3 656 676 632
3 656 632 626
3 678 680 679
3 678 681 680
3 681 682 680
3 681 683 682
3 683 684 682
3 683 685 684
3 686 644 687
3 686 643 644
3 641 643 686
3 641 686 640
