ply
format ascii 1.0
element vertex 666
property float x
property float y
property float z
property uchar red
property uchar green
property uchar blue
element face 810
property list uchar int vertex_index
end_header
0.54847 -0.34931 2.13972 134 77 37
0.56791 -0.34206 2.20209 134 77 37
0.70204 -0.39261 2.16615 134 77 37
0.6826 -0.39985 2.10378 134 77 37
1.10839 0.30451 2.7019 134 77 37
0.97426 0.35505 2.73784 134 77 37
0.9764 0.44694 2.61661 134 77 37
1.11054 0.3964 2.58067 134 77 37
1.06025 0.3817 2.56851 126 72 35
0.72921 -0.18644 2.13199 126 72 35
0.76332 -0.19923 2.1229 126 72 35
1.11054 0.3964 2.58067 126 72 35
0.9764 0.44694 2.61661 126 72 35
0.99373 0.40677 2.58633 126 72 35
1.06521 0.60295 2.27712 126 72 35
0.99868 0.62802 2.29494 126 72 35
0.93341 0.51561 2.20877 126 72 35
0.66263 -0.16147 2.14974 126 72 35
0.62907 -0.14889 2.15869 126 72 35
1.0686 0.73414 2.10347 126 72 35
1.00208 0.75921 2.12129 126 72 35
0.94448 0.58904 2.14859 126 72 35
0.94355 0.54654 2.20455 126 72 35
0.97426 0.35505 2.73784 126 72 35
0.56791 -0.34206 2.20209 126 72 35
1.05817 0.73153 2.06983 126 72 35
0.99165 0.7566 2.08766 126 72 35
1.0052 0.64066 2 126 72 35
0.93868 0.66573 2.01782 126 72 35
0.93663 0.58736 2.12159 126 72 35
0.9569 0.55741 1.93622 126 72 35
0.89038 0.58247 1.95405 126 72 35
0.88852 0.50372 2.05799 126 72 35
0.88216 0.55909 1.95656 126 72 35
0.88089 0.49995 2.03452 126 72 35
0.61613 -0.15196 2.11408 126 72 35
0.54847 -0.34931 2.13972 126 72 35
0.62069 0.04873 1.84953 126 72 35
0.65423 0.03609 1.84054 126 72 35
0.55512 -0.0638 1.76307 126 72 35
0.64966 -0.1646 2.1051 126 72 35
0.72075 0.01103 1.82272 126 72 35
0.68926 -0.11434 1.72713 126 72 35
0.75483 -0.00181 1.81359 126 72 35
0.75026 -0.2025 2.07814 126 72 35
0.71618 -0.18966 2.08727 126 72 35
0.99993 0.49055 2.19095 126 72 35
0.6826 -0.39985 2.10378 126 72 35
0.70204 -0.39261 2.16615 126 72 35
1.10839 0.30451 2.7019 126 72 35
0.99993 0.49055 2.19095 238 220 136
0.72075 0.01103 1.82272 238 220 136
0.71618 -0.18966 2.08727 238 220 136
0.72921 -0.18644 2.13199 238 220 136
1.06025 0.3817 2.56851 238 220 136
1.06521 0.60295 2.27712 238 220 136
1.01007 0.52147 2.18673 238 220 136
1.011 0.56397 2.13077 238 220 136
1.0686 0.73414 2.10347 238 220 136
1.05817 0.73153 2.06983 238 220 136
1.00315 0.56229 2.10377 238 220 136
1.0052 0.64066 2 238 220 136
0.9569 0.55741 1.93622 238 220 136
0.95504 0.47865 2.04017 238 220 136
0.94741 0.47483 2.01676 238 220 136
0.94868 0.53397 1.9388 238 220 136
1.01007 0.52147 2.18673 126 72 35
1.011 0.56397 2.13077 126 72 35
1.011 0.56397 2.13077 134 77 37
1.00315 0.56229 2.10377 134 77 37
0.93663 0.58736 2.12159 134 77 37
0.94448 0.58904 2.14859 134 77 37
0.88852 0.50372 2.05799 134 77 37
0.95504 0.47865 2.04017 134 77 37
0.88089 0.49995 2.03452 134 77 37
0.94741 0.47483 2.01676 134 77 37
0.94868 0.53397 1.9388 126 72 35
0.94741 0.47483 2.01676 126 72 35
0.30357 -0.10089 0.77331 255 166 61
0.6447 -0.10089 0.77331 255 166 61
0.6447 -0.10089 0.12208 255 166 61
0.30357 -0.10089 0.12208 255 166 61
0.63118 -0.04851 0.82669 255 166 61
0.30357 -0.04851 0.82669 255 166 61
0.73556 -0.02329 0.19706 255 166 61
0.73556 -0.02329 0.77347 255 166 61
0.68618 0.00797 0.82669 255 166 61
0.30357 0.4881 0.77331 255 166 61
0.30357 0.43556 0.82669 255 166 61
0.30357 0.25223 0.12208 255 166 61
0.6447 0.25223 0.12208 255 166 61
0.6447 0.25223 1.70651E-16 255 166 61
0.30357 -0.25655 0.12208 255 166 61
0.64471 -0.25655 0.12208 255 166 61
0.30357 -0.25655 1.70651E-16 255 166 61
0.6447 -0.25655 1.70651E-16 255 166 61
0.30357 0.25223 1.70651E-16 255 166 61
0.30357 0.4881 0.19713 255 166 61
0.6447 0.4881 0.19713 255 166 61
0.6447 0.4881 0.77331 255 166 61
0.63118 0.43556 0.82669 255 166 61
0.73556 0.41051 0.77347 255 166 61
0.68618 0.37909 0.82669 255 166 61
0.60872 0.43426 0.12208 255 166 61
0.30357 0.43426 0.12208 255 166 61
0.33939 0.29481 0.12208 255 166 61
0.73556 0.41051 0.19706 255 166 61
0.6447 0.39929 0.12208 255 166 61
0.33939 0.29481 1.70651E-16 255 166 61
0.60889 0.29481 1.70651E-16 255 166 61
0.60889 0.29481 0.12208 255 166 61
0.30357 -0.04851 0.82669 255 173 57
0.30357 0.43556 0.82669 255 173 57
0.63118 0.43556 0.82669 255 173 57
0.63118 -0.04851 0.82669 255 173 57
0.68618 0.00797 0.82669 255 173 57
0.68618 0.37909 0.82669 255 173 57
0.60756 -0.54596 1.70651E-16 126 72 35
0.34071 -0.54596 1.70651E-16 126 72 35
0.34071 -0.54596 0.12208 126 72 35
0.60756 -0.54596 0.12208 126 72 35
0.6447 -0.50769 1.70651E-16 126 72 35
0.6447 -0.50769 0.12208 126 72 35
0.30357 -0.50769 0.12208 126 72 35
0.30357 -0.50769 1.70651E-16 126 72 35
0.30357 -0.25655 0.12208 126 72 35
0.30357 -0.25655 1.70651E-16 126 72 35
0.64471 -0.25655 0.12208 126 72 35
0.6447 -0.25655 1.70651E-16 126 72 35
0.55374 0.16733 1.70651E-16 241 157 58
0.39454 0.16733 1.70651E-16 241 157 58
0.39454 -0.07011 1.70651E-16 241 157 58
0.55374 -0.07011 1.70651E-16 241 157 58
0.6447 -0.50769 0.12208 134 77 37
0.60756 -0.54596 0.12208 134 77 37
0.34071 -0.54596 0.12208 134 77 37
0.30357 -0.50769 0.12208 134 77 37
0.64471 -0.25655 0.12208 134 77 37
0.30357 -0.25655 0.12208 134 77 37
0.30357 -0.50769 1.70651E-16 251 214 181
0.34071 -0.54596 1.70651E-16 251 214 181
0.60756 -0.54596 1.70651E-16 251 214 181
0.6447 -0.50769 1.70651E-16 251 214 181
0.30357 -0.25655 1.70651E-16 251 214 181
0.6447 -0.25655 1.70651E-16 251 214 181
0.39454 -0.07011 1.70651E-16 251 214 181
0.55374 -0.07011 1.70651E-16 251 214 181
0.6447 0.25223 1.70651E-16 251 214 181
0.55374 0.16733 1.70651E-16 251 214 181
0.39454 0.16733 1.70651E-16 251 214 181
0.30357 0.25223 1.70651E-16 251 214 181
0.60889 0.29481 1.70651E-16 251 214 181
0.33939 0.29481 1.70651E-16 251 214 181
0.31742 -0.45207 0.59226 126 72 35
0.337 -0.47262 0.59226 126 72 35
0.47605 -0.47262 0.59226 126 72 35
0.49563 -0.45207 0.59226 126 72 35
0.53035 -0.46885 0.63018 126 72 35
0.53035 -0.33512 0.63018 126 72 35
0.53035 -0.46885 0.76287 126 72 35
0.49136 -0.50122 0.76287 126 72 35
0.49136 -0.50122 0.63018 126 72 35
0.53035 -0.33512 0.76287 126 72 35
0.49563 -0.35394 0.59226 126 72 35
0.2827 -0.46885 0.63018 126 72 35
0.31742 -0.35394 0.59226 126 72 35
0.2827 -0.33512 0.63018 126 72 35
0.2827 -0.46885 0.76287 126 72 35
0.2827 -0.33512 0.76287 126 72 35
0.32169 -0.50122 0.76287 126 72 35
0.32169 -0.50122 0.63018 126 72 35
0.31511 -0.45333 1.09422 255 166 61
0.31511 -0.35268 1.09422 255 166 61
0.49794 -0.35268 1.09422 255 166 61
0.49794 -0.45333 1.09422 255 166 61
0.53035 -0.46885 1.05006 255 166 61
0.53035 -0.33512 1.05006 255 166 61
0.2827 -0.33512 1.05006 255 166 61
0.2827 -0.46885 1.05006 255 166 61
0.2827 -0.46885 0.76287 255 166 61
0.2827 -0.33512 0.76287 255 166 61
0.53035 -0.46885 0.76287 255 166 61
0.49136 -0.50122 1.05006 255 166 61
0.49136 -0.50122 0.76287 255 166 61
0.53035 -0.33512 0.76287 255 166 61
0.3352 -0.47387 1.09422 255 166 61
0.32169 -0.50122 1.05006 255 166 61
0.47786 -0.47387 1.09422 255 166 61
0.32169 -0.50122 0.76287 255 166 61
-0.07357 1.19082 0.53337 134 77 37
-0.03021 1.23487 0.53337 134 77 37
0.10639 1.09507 0.53337 134 77 37
0.07357 1.0684 0.53337 134 77 37
0.54617 1.09507 0.53337 134 77 37
0.54617 1.23487 0.53337 134 77 37
-0.07357 0.56266 0.53337 134 77 37
0.07357 0.56266 0.53337 134 77 37
-0.07357 1.19082 0.38622 126 72 35
0.07357 1.0684 0.38622 126 72 35
0.10639 1.09507 0.38622 126 72 35
-0.03021 1.23487 0.38622 126 72 35
0.07357 1.0684 0.53337 126 72 35
0.10639 1.09507 0.53337 126 72 35
0.07357 0.56266 0.38622 126 72 35
-0.07357 0.56266 0.38622 126 72 35
0.67864 1.09507 0.38622 126 72 35
0.54617 1.09507 0.53337 126 72 35
0.67864 1.23487 0.38622 126 72 35
0.72416 1.09507 0.4303 126 72 35
0.72416 1.23487 0.4303 126 72 35
0.54617 1.23487 0.53337 126 72 35
-0.03021 1.23487 0.53337 126 72 35
-0.07357 1.19082 0.53337 126 72 35
-0.07357 0.56266 0.53337 126 72 35
0.57926 1.23487 0.56603 126 72 35
0.57926 1.09507 0.56603 126 72 35
0.72416 1.09507 1.31324 126 72 35
0.57926 1.09507 1.18488 126 72 35
0.57926 1.23487 1.18488 126 72 35
0.72416 1.23487 1.31324 126 72 35
0.67715 1.23487 1.35585 126 72 35
0.55314 1.23487 1.21456 126 72 35
0.08435 1.23487 1.21456 126 72 35
0.08435 1.09507 1.21456 126 72 35
0.55314 1.09507 1.21456 126 72 35
0.23695 1.23487 1.35585 126 72 35
0.04667 1.23487 1.25511 126 72 35
0.04667 1.09507 1.25511 126 72 35
0.23695 1.09507 1.35585 126 72 35
0.67715 1.09507 1.35585 126 72 35
0.04667 1.09507 1.35585 126 72 35
0.04667 1.23487 1.35585 126 72 35
0.67715 1.23487 1.35585 134 77 37
0.72416 1.23487 1.31324 134 77 37
0.72416 1.09507 1.31324 134 77 37
0.67715 1.09507 1.35585 134 77 37
0.23695 1.09507 1.35585 134 77 37
0.23695 1.23487 1.35585 134 77 37
0.21211 1.09507 2.54922 249 230 142
0.04667 1.09507 2.54922 249 230 142
0.04667 1.23487 2.54922 249 230 142
0.21211 1.23487 2.54922 249 230 142
0.2378 1.09507 2.52267 249 230 142
0.2378 1.23487 2.52267 249 230 142
0.23695 1.09507 1.35585 238 220 136
0.2378 1.09507 2.52267 238 220 136
0.2378 1.23487 2.52267 238 220 136
0.23695 1.23487 1.35585 238 220 136
0.04667 1.09507 1.35585 238 220 136
0.04667 1.09507 2.04922 238 220 136
0.04667 1.23487 1.35585 238 220 136
0.04667 1.23487 2.04922 238 220 136
0.04667 1.23487 2.54922 238 220 136
0.21211 1.23487 2.54922 238 220 136
-0.38796 1.23487 3.02066 238 220 136
-0.38796 1.23487 2.08052 238 220 136
-0.35727 1.23487 2.04922 238 220 136
-0.38796 1.09507 2.08052 238 220 136
-0.35727 1.09507 2.04922 238 220 136
0.04667 1.23487 3.01977 238 220 136
0.04667 1.09507 2.54922 238 220 136
0.04667 1.09507 3.01977 238 220 136
-0.35839 1.23487 3.04922 238 220 136
0.01623 1.23487 3.04922 238 220 136
-0.38796 1.09507 3.02066 238 220 136
0.01623 1.09507 3.04922 238 220 136
-0.35839 1.09507 3.04922 238 220 136
0.21211 1.09507 2.54922 238 220 136
-0.38796 1.23487 3.02066 249 230 142
-0.35839 1.23487 3.04922 249 230 142
-0.35839 1.09507 3.04922 249 230 142
-0.38796 1.09507 3.02066 249 230 142
0.01623 1.09507 3.04922 249 230 142
0.01623 1.23487 3.04922 249 230 142
0.04667 1.09507 3.01977 249 230 142
0.04667 1.23487 3.01977 249 230 142
0.07357 0.56266 0.53337 126 72 35
0.15831 -0.60988 1.62594 75 63 52
0.15831 -0.60988 1.65593 75 63 52
0.30941 -0.60988 1.65593 75 63 52
0.30941 -0.60988 1.62594 75 63 52
0.15831 -0.60988 1.81274 28 17 13
0.15831 -0.58814 1.81274 28 17 13
0.30941 -0.58814 1.81274 28 17 13
0.30941 -0.60988 1.81274 28 17 13
0.30941 -0.60988 1.65593 28 17 13
0.30941 -0.58814 1.65593 28 17 13
0.30941 -0.60988 1.62594 28 17 13
0.30941 -0.58814 1.62594 28 17 13
0.15831 -0.58814 1.62594 28 17 13
0.15831 -0.60988 1.62594 28 17 13
0.15831 -0.60988 1.65593 28 17 13
0.15831 -0.58814 1.65593 28 17 13
0.25648 -0.60988 1.74066 28 17 13
0.1902 -0.60988 1.74066 28 17 13
0.25648 -0.60988 1.80358 28 17 13
0.1902 -0.60988 1.80358 28 17 13
0.1902 -0.60988 1.74066 255 255 255
0.1902 -0.60988 1.80358 255 255 255
0.25648 -0.60988 1.80358 255 255 255
0.25648 -0.60988 1.74066 255 255 255
-0.15831 -0.60988 1.62594 75 63 52
-0.30941 -0.60988 1.62594 75 63 52
-0.30941 -0.60988 1.65593 75 63 52
-0.15831 -0.60988 1.65593 75 63 52
-0.15831 -0.60988 1.81274 28 17 13
-0.30941 -0.60988 1.81274 28 17 13
-0.30941 -0.58814 1.81274 28 17 13
-0.15831 -0.58814 1.81274 28 17 13
-0.30941 -0.60988 1.65593 28 17 13
-0.30941 -0.58814 1.65593 28 17 13
-0.30941 -0.60988 1.62594 28 17 13
-0.30941 -0.58814 1.62594 28 17 13
-0.15831 -0.58814 1.62594 28 17 13
-0.15831 -0.60988 1.62594 28 17 13
-0.15831 -0.60988 1.65593 28 17 13
-0.15831 -0.58814 1.65593 28 17 13
-0.25648 -0.60988 1.74066 28 17 13
-0.1902 -0.60988 1.74066 28 17 13
-0.25648 -0.60988 1.80358 28 17 13
-0.1902 -0.60988 1.80358 28 17 13
-0.1902 -0.60988 1.74066 255 255 255
-0.25648 -0.60988 1.74066 255 255 255
-0.25648 -0.60988 1.80358 255 255 255
-0.1902 -0.60988 1.80358 255 255 255
-0.03993 -0.62356 1.57214 49 43 37
-0.03993 -0.62356 1.61907 49 43 37
0.03993 -0.62356 1.61907 49 43 37
0.03993 -0.62356 1.57214 49 43 37
0.03993 -0.58831 1.61907 49 43 37
-0.03993 -0.58831 1.61907 49 43 37
-0.03993 -0.58831 1.57214 49 43 37
0.03993 -0.58831 1.57214 49 43 37
-0.12429 -0.5476 1.34559 213 155 180
-0.12429 -0.5476 1.43397 213 155 180
0.12429 -0.5476 1.43397 213 155 180
0.12429 -0.5476 1.34559 213 155 180
0.12429 -0.47859 1.43397 213 155 180
-0.12429 -0.47859 1.43397 213 155 180
0.12429 -0.47859 1.34559 213 155 180
-0.12429 -0.47859 1.34559 213 155 180
0.25984 -0.61974 1.31037 238 220 136
0.25984 -0.61974 1.56174 238 220 136
0.49105 -0.61974 1.56174 238 220 136
0.49105 -0.61974 1.31037 238 220 136
0.49105 -0.59052 1.56174 238 220 136
0.25984 -0.59052 1.56174 238 220 136
0.25984 -0.59052 1.31037 238 220 136
0.49105 -0.59052 1.31037 238 220 136
-0.25984 -0.61974 1.31037 238 220 136
-0.49105 -0.61974 1.31037 238 220 136
-0.49105 -0.61974 1.56174 238 220 136
-0.25984 -0.61974 1.56174 238 220 136
-0.49105 -0.59052 1.56174 238 220 136
-0.25984 -0.59052 1.56174 238 220 136
-0.25984 -0.59052 1.31037 238 220 136
-0.49105 -0.59052 1.31037 238 220 136
0.57535 -0.51807 1.22565 255 166 61
0.57535 -0.51807 2.03275 255 166 61
0.57535 -0.28892 1.22565 255 166 61
0.49785 -0.59158 2.03275 255 166 61
0.49785 -0.59158 1.22565 255 166 61
0.51782 -0.46788 2.09748 255 166 61
0.44807 -0.53405 2.09748 255 166 61
0.51782 0.25296 2.09748 255 166 61
0.57535 0.30315 2.03275 255 166 61
0.51526 -0.37893 1.15251 255 166 61
0.51526 -0.46565 1.15251 255 166 61
0.44586 -0.53149 1.15251 255 166 61
0.18107 -0.59158 1.5021 255 166 61
0.18107 -0.59158 1.35517 255 166 61
-2.36419E-17 -0.59158 2.03275 255 166 61
0.51556 -0.37893 0.29031 255 166 61
0.57567 -0.28892 0.29056 255 166 61
0.43046 -0.37893 0.29031 255 166 61
0.39107 -0.2889 0.20603 255 166 61
0.51586 -0.2889 0.20603 255 166 61
0.51611 0.56787 0.20603 255 166 61
0.57572 0.56828 0.29063 255 166 61
0.43031 -0.37893 0.99334 255 166 61
0.35775 -0.37893 1.04917 255 166 61
-0.51526 -0.37893 1.15251 255 166 61
-0.35775 -0.37893 1.04917 255 166 61
-0.43031 -0.37893 0.99334 255 166 61
-0.43046 -0.37893 0.29031 255 166 61
-0.51556 -0.37893 0.29031 255 166 61
-0.57535 -0.28892 1.22565 255 166 61
-0.57535 -0.51807 1.22565 255 166 61
-0.57535 -0.51807 2.03275 255 166 61
-0.49785 -0.59158 2.03275 255 166 61
-0.49785 -0.59158 1.22565 255 166 61
-0.51782 -0.46788 2.09748 255 166 61
-0.44807 -0.53405 2.09748 255 166 61
-0.51782 0.25296 2.09748 255 166 61
-0.57535 0.30315 2.03275 255 166 61
-0.51526 -0.46565 1.15251 255 166 61
-0.44586 -0.53149 1.15251 255 166 61
-0.18107 -0.59158 1.5021 255 166 61
-0.18107 -0.59158 1.35517 255 166 61
-0.04635 -0.59158 1.5021 255 166 61
0 -0.59158 1.55107 255 166 61
0.04635 -0.59158 1.5021 255 166 61
0.44807 0.31913 2.09748 255 166 61
0.51491 0.37666 2.03275 255 166 61
0.57535 0.30315 1.28728 255 166 61
0.51598 0.37666 1.36566 255 166 61
-0.44807 0.31913 2.09748 255 166 61
-0.51491 0.37666 2.03275 255 166 61
-0.51598 0.37666 1.36566 255 166 61
-0.57535 0.30315 1.28728 255 166 61
0.51651 0.65752 0.29083 255 166 61
0.51654 0.65752 0.65222 255 166 61
0.51656 0.65752 0.82216 255 166 61
0.5756 0.56828 1.02127 255 166 61
0.51662 0.65752 1.0019 255 166 61
0.51672 0.65752 1.16931 255 166 61
0.57549 0.56828 1.28728 255 166 61
0.51692 0.65752 1.28697 255 166 61
0.51645 0.5318 1.36566 255 166 61
0.46191 0.6073 1.36566 255 166 61
-0.51692 0.65752 1.28697 255 166 61
-0.51672 0.65752 1.16931 255 166 61
-0.46191 0.6073 1.36566 255 166 61
-0.51645 0.5318 1.36566 255 166 61
-0.57549 0.56828 1.28728 255 166 61
-0.51651 0.65752 0.29083 255 166 61
-0.51611 0.56787 0.20603 255 166 61
-0.57572 0.56828 0.29063 255 166 61
-0.51654 0.65752 0.65222 255 166 61
-0.51656 0.65752 0.82216 255 166 61
-0.5756 0.56828 1.02127 255 166 61
-0.51662 0.65752 1.0019 255 166 61
-0.39107 -0.2889 0.20603 255 166 61
0.18107 -0.59158 1.35517 148 96 109
0.18107 -0.48803 1.35517 148 96 109
0.18107 -0.48803 1.5021 148 96 109
0.18107 -0.59158 1.5021 148 96 109
0.04635 -0.48803 1.5021 148 96 109
0.04635 -0.59158 1.5021 148 96 109
0 -0.48803 1.55107 148 96 109
0 -0.59158 1.55107 148 96 109
-0.18107 -0.59158 1.35517 148 96 109
-0.18107 -0.48803 1.35517 148 96 109
-0.18107 -0.48803 1.5021 148 96 109
-0.18107 -0.59158 1.5021 148 96 109
-0.04635 -0.48803 1.5021 148 96 109
-0.04635 -0.59158 1.5021 148 96 109
0.39107 -0.2889 0.20603 254 233 204
-0.39107 -0.2889 0.20603 254 233 204
-0.43046 -0.37893 0.29031 254 233 204
0.43046 -0.37893 0.29031 254 233 204
-0.43031 -0.37893 0.99334 254 233 204
0.43031 -0.37893 0.99334 254 233 204
0.51782 -0.46788 2.09748 255 173 57
0.44807 -0.53405 2.09748 255 173 57
-0.44807 -0.53405 2.09748 255 173 57
-0.51782 -0.46788 2.09748 255 173 57
0.51782 0.25296 2.09748 255 173 57
-0.51782 0.25296 2.09748 255 173 57
0.44807 0.31913 2.09748 255 173 57
-0.44807 0.31913 2.09748 255 173 57
-0.57567 -0.28892 0.29056 255 166 61
-0.51586 -0.2889 0.20603 255 166 61
0.51645 0.5318 1.36566 255 173 57
0.51598 0.37666 1.36566 255 173 57
-0.51598 0.37666 1.36566 255 173 57
-0.51645 0.5318 1.36566 255 173 57
0.46191 0.6073 1.36566 255 173 57
-0.46191 0.6073 1.36566 255 173 57
0.51662 0.65752 1.0019 126 72 35
0.51672 0.65752 1.16931 126 72 35
-0.51672 0.65752 1.16931 126 72 35
-0.51662 0.65752 1.0019 126 72 35
0.51654 0.65752 0.65222 126 72 35
0.51656 0.65752 0.82216 126 72 35
-0.51656 0.65752 0.82216 126 72 35
-0.51654 0.65752 0.65222 126 72 35
-0.31742 -0.45207 0.59226 126 72 35
-0.49563 -0.45207 0.59226 126 72 35
-0.47605 -0.47262 0.59226 126 72 35
-0.337 -0.47262 0.59226 126 72 35
-0.53035 -0.46885 0.63018 126 72 35
-0.53035 -0.33512 0.63018 126 72 35
-0.53035 -0.46885 0.76287 126 72 35
-0.49136 -0.50122 0.76287 126 72 35
-0.49136 -0.50122 0.63018 126 72 35
-0.53035 -0.33512 0.76287 126 72 35
-0.49563 -0.35394 0.59226 126 72 35
-0.2827 -0.46885 0.63018 126 72 35
-0.31742 -0.35394 0.59226 126 72 35
-0.2827 -0.33512 0.63018 126 72 35
-0.2827 -0.46885 0.76287 126 72 35
-0.2827 -0.33512 0.76287 126 72 35
-0.32169 -0.50122 0.76287 126 72 35
-0.32169 -0.50122 0.63018 126 72 35
-0.31511 -0.45333 1.09422 255 166 61
-0.49794 -0.45333 1.09422 255 166 61
-0.49794 -0.35268 1.09422 255 166 61
-0.31511 -0.35268 1.09422 255 166 61
-0.53035 -0.46885 1.05006 255 166 61
-0.53035 -0.33512 1.05006 255 166 61
-0.2827 -0.33512 1.05006 255 166 61
-0.2827 -0.46885 1.05006 255 166 61
-0.2827 -0.46885 0.76287 255 166 61
-0.2827 -0.33512 0.76287 255 166 61
-0.53035 -0.46885 0.76287 255 166 61
-0.49136 -0.50122 1.05006 255 166 61
-0.49136 -0.50122 0.76287 255 166 61
-0.53035 -0.33512 0.76287 255 166 61
-0.3352 -0.47387 1.09422 255 166 61
-0.47786 -0.47387 1.09422 255 166 61
-0.32169 -0.50122 1.05006 255 166 61
-0.32169 -0.50122 0.76287 255 166 61
-0.30357 -0.10089 0.77331 255 166 61
-0.30357 -0.10089 0.12208 255 166 61
-0.6447 -0.10089 0.12208 255 166 61
-0.6447 -0.10089 0.77331 255 166 61
-0.63118 -0.04851 0.82669 255 166 61
-0.30357 -0.04851 0.82669 255 166 61
-0.73556 -0.02329 0.19706 255 166 61
-0.73556 -0.02329 0.77347 255 166 61
-0.68618 0.00797 0.82669 255 166 61
-0.30357 0.4881 0.77331 255 166 61
-0.30357 0.43556 0.82669 255 166 61
-0.30357 0.25223 0.12208 255 166 61
-0.6447 0.25223 0.12208 255 166 61
-0.6447 0.25223 1.70651E-16 255 166 61
-0.30357 -0.25655 0.12208 255 166 61
-0.64471 -0.25655 0.12208 255 166 61
-0.30357 -0.25655 1.70651E-16 255 166 61
-0.6447 -0.25655 1.70651E-16 255 166 61
-0.30357 0.25223 1.70651E-16 255 166 61
-0.6447 0.4881 0.77331 255 166 61
-0.6447 0.4881 0.19713 255 166 61
-0.30357 0.4881 0.19713 255 166 61
-0.63118 0.43556 0.82669 255 166 61
-0.73556 0.41051 0.77347 255 166 61
-0.68618 0.37909 0.82669 255 166 61
-0.60872 0.43426 0.12208 255 166 61
-0.30357 0.43426 0.12208 255 166 61
-0.33939 0.29481 0.12208 255 166 61
-0.73556 0.41051 0.19706 255 166 61
-0.6447 0.39929 0.12208 255 166 61
-0.33939 0.29481 1.70651E-16 255 166 61
-0.60889 0.29481 1.70651E-16 255 166 61
-0.60889 0.29481 0.12208 255 166 61
-0.30357 -0.04851 0.82669 255 173 57
-0.63118 -0.04851 0.82669 255 173 57
-0.63118 0.43556 0.82669 255 173 57
-0.30357 0.43556 0.82669 255 173 57
-0.68618 0.00797 0.82669 255 173 57
-0.68618 0.37909 0.82669 255 173 57
-0.60756 -0.54596 1.70651E-16 126 72 35
-0.60756 -0.54596 0.12208 126 72 35
-0.34071 -0.54596 0.12208 126 72 35
-0.34071 -0.54596 1.70651E-16 126 72 35
-0.6447 -0.50769 1.70651E-16 126 72 35
-0.6447 -0.50769 0.12208 126 72 35
-0.30357 -0.50769 0.12208 126 72 35
-0.30357 -0.50769 1.70651E-16 126 72 35
-0.30357 -0.25655 0.12208 126 72 35
-0.30357 -0.25655 1.70651E-16 126 72 35
-0.64471 -0.25655 0.12208 126 72 35
-0.6447 -0.25655 1.70651E-16 126 72 35
-0.55374 0.16733 1.70651E-16 241 157 58
-0.55374 -0.07011 1.70651E-16 241 157 58
-0.39454 -0.07011 1.70651E-16 241 157 58
-0.39454 0.16733 1.70651E-16 241 157 58
-0.6447 -0.50769 0.12208 134 77 37
-0.30357 -0.50769 0.12208 134 77 37
-0.34071 -0.54596 0.12208 134 77 37
-0.60756 -0.54596 0.12208 134 77 37
-0.64471 -0.25655 0.12208 134 77 37
-0.30357 -0.25655 0.12208 134 77 37
-0.30357 -0.50769 1.70651E-16 251 214 181
-0.6447 -0.50769 1.70651E-16 251 214 181
-0.60756 -0.54596 1.70651E-16 251 214 181
-0.34071 -0.54596 1.70651E-16 251 214 181
-0.30357 -0.25655 1.70651E-16 251 214 181
-0.6447 -0.25655 1.70651E-16 251 214 181
-0.39454 -0.07011 1.70651E-16 251 214 181
-0.55374 -0.07011 1.70651E-16 251 214 181
-0.6447 0.25223 1.70651E-16 251 214 181
-0.55374 0.16733 1.70651E-16 251 214 181
-0.39454 0.16733 1.70651E-16 251 214 181
-0.30357 0.25223 1.70651E-16 251 214 181
-0.60889 0.29481 1.70651E-16 251 214 181
-0.33939 0.29481 1.70651E-16 251 214 181
-0.54847 -0.34931 2.13972 134 77 37
-0.6826 -0.39985 2.10378 134 77 37
-0.70204 -0.39261 2.16615 134 77 37
-0.56791 -0.34206 2.20209 134 77 37
-1.10839 0.30451 2.7019 134 77 37
-0.97426 0.35505 2.73784 134 77 37
-1.11054 0.3964 2.58067 134 77 37
-0.9764 0.44694 2.61661 134 77 37
-1.06025 0.3817 2.56851 126 72 35
-1.11054 0.3964 2.58067 126 72 35
-0.76332 -0.19923 2.1229 126 72 35
-0.72921 -0.18644 2.13199 126 72 35
-0.9764 0.44694 2.61661 126 72 35
-0.99373 0.40677 2.58633 126 72 35
-1.06521 0.60295 2.27712 126 72 35
-0.99868 0.62802 2.29494 126 72 35
-0.93341 0.51561 2.20877 126 72 35
-0.66263 -0.16147 2.14974 126 72 35
-0.62907 -0.14889 2.15869 126 72 35
-1.0686 0.73414 2.10347 126 72 35
-1.00208 0.75921 2.12129 126 72 35
-0.94448 0.58904 2.14859 126 72 35
-0.94355 0.54654 2.20455 126 72 35
-0.97426 0.35505 2.73784 126 72 35
-0.56791 -0.34206 2.20209 126 72 35
-1.05817 0.73153 2.06983 126 72 35
-0.99165 0.7566 2.08766 126 72 35
-1.0052 0.64066 2 126 72 35
-0.93868 0.66573 2.01782 126 72 35
-0.93663 0.58736 2.12159 126 72 35
-0.9569 0.55741 1.93622 126 72 35
-0.89038 0.58247 1.95405 126 72 35
-0.88852 0.50372 2.05799 126 72 35
-0.88216 0.55909 1.95656 126 72 35
-0.88089 0.49995 2.03452 126 72 35
-0.61613 -0.15196 2.11408 126 72 35
-0.54847 -0.34931 2.13972 126 72 35
-0.62069 0.04873 1.84953 126 72 35
-0.65423 0.03609 1.84054 126 72 35
-0.55512 -0.0638 1.76307 126 72 35
-0.64966 -0.1646 2.1051 126 72 35
-0.72075 0.01103 1.82272 126 72 35
-0.68926 -0.11434 1.72713 126 72 35
-0.75483 -0.00181 1.81359 126 72 35
-0.75026 -0.2025 2.07814 126 72 35
-0.71618 -0.18966 2.08727 126 72 35
-0.99993 0.49055 2.19095 126 72 35
-0.6826 -0.39985 2.10378 126 72 35
-0.70204 -0.39261 2.16615 126 72 35
-1.10839 0.30451 2.7019 126 72 35
-0.99993 0.49055 2.19095 238 220 136
-0.71618 -0.18966 2.08727 238 220 136
-0.72075 0.01103 1.82272 238 220 136
-0.72921 -0.18644 2.13199 238 220 136
-1.06025 0.3817 2.56851 238 220 136
-1.06521 0.60295 2.27712 238 220 136
-1.01007 0.52147 2.18673 238 220 136
-1.011 0.56397 2.13077 238 220 136
-1.0686 0.73414 2.10347 238 220 136
-1.05817 0.73153 2.06983 238 220 136
-1.00315 0.56229 2.10377 238 220 136
-1.0052 0.64066 2 238 220 136
-0.9569 0.55741 1.93622 238 220 136
-0.95504 0.47865 2.04017 238 220 136
-0.94741 0.47483 2.01676 238 220 136
-0.94868 0.53397 1.9388 238 220 136
-1.01007 0.52147 2.18673 126 72 35
-1.011 0.56397 2.13077 126 72 35
-1.011 0.56397 2.13077 134 77 37
-0.94448 0.58904 2.14859 134 77 37
-0.93663 0.58736 2.12159 134 77 37
-1.00315 0.56229 2.10377 134 77 37
-0.88852 0.50372 2.05799 134 77 37
-0.95504 0.47865 2.04017 134 77 37
-0.88089 0.49995 2.03452 134 77 37
-0.94741 0.47483 2.01676 134 77 37
-0.94868 0.53397 1.9388 126 72 35
-0.94741 0.47483 2.01676 126 72 35
3 0 2 1
3 0 3 2
3 1 2 4
3 1 4 5
3 5 7 6
3 5 4 7
3 8 10 9
3 8 11 10
3 12 11 8
3 12 8 13
3 13 8 14
3 13 14 15
3 15 16 13
3 12 13 17
3 13 16 17
3 12 17 18
3 15 14 19
3 15 19 20
3 21 15 20
3 21 22 15
3 15 22 16
3 18 23 12
3 18 24 23
3 20 19 25
3 20 25 26
3 21 20 26
3 26 25 27
3 26 27 28
3 26 28 29
3 21 26 29
3 28 27 30
3 28 30 31
3 29 28 31
3 31 32 29
3 32 31 33
3 32 33 34
3 35 36 24
3 36 35 37
3 35 38 37
3 39 37 38
3 36 37 39
3 35 40 38
3 39 38 41
3 39 41 42
3 42 41 43
3 41 44 43
3 41 45 44
3 41 38 16
3 40 16 38
3 41 16 46
3 17 16 40
3 9 44 45
3 9 10 44
3 18 40 35
3 18 17 40
3 35 24 18
3 47 39 42
3 47 36 39
3 47 42 43
3 47 43 44
3 47 44 48
3 48 44 10
3 48 10 11
3 48 11 49
3 50 52 51
3 50 53 52
3 50 54 53
3 55 54 50
3 55 50 56
3 55 56 57
3 55 57 58
3 59 58 57
3 59 57 60
3 59 60 61
3 61 60 62
3 62 60 63
3 62 63 64
3 62 64 65
3 66 21 67
3 66 22 21
3 46 22 66
3 46 16 22
3 68 70 69
3 68 71 70
3 69 70 72
3 69 72 73
3 73 72 74
3 73 74 75
3 76 34 33
3 76 77 34
3 31 76 33
3 31 30 76
3 78 80 79
3 78 81 80
3 78 79 82
3 78 82 83
3 79 80 84
3 79 84 85
3 85 82 79
3 85 86 82
3 87 78 83
3 87 83 88
3 78 89 81
3 87 89 78
3 84 80 90
3 91 90 80
3 80 81 92
3 80 92 93
3 92 81 94
3 80 95 91
3 96 81 89
3 94 81 96
3 87 98 97
3 87 99 98
3 97 89 87
3 88 99 87
3 88 100 99
3 101 99 100
3 101 100 102
3 97 98 103
3 97 103 104
3 104 89 97
3 104 105 89
3 104 103 105
3 106 99 101
3 106 98 99
3 84 106 101
3 84 101 85
3 107 98 106
3 103 98 107
3 105 103 107
3 106 90 107
3 84 90 106
3 89 105 108
3 105 109 108
3 109 90 91
3 109 110 90
3 105 110 109
3 110 107 90
3 105 107 110
3 101 86 85
3 101 102 86
3 89 108 96
3 111 113 112
3 111 114 113
3 113 114 115
3 113 115 116
3 117 119 118
3 117 120 119
3 121 120 117
3 121 122 120
3 123 118 119
3 123 124 118
3 124 123 125
3 124 125 126
3 121 127 122
3 121 128 127
3 129 131 130
3 129 132 131
3 133 135 134
3 133 136 135
3 137 136 133
3 137 138 136
3 139 141 140
3 139 142 141
3 143 142 139
3 143 144 142
3 144 143 145
3 144 145 146
3 147 144 146
3 147 146 148
3 143 149 145
3 143 150 149
3 150 148 149
3 150 147 148
3 150 151 147
3 150 152 151
3 93 95 80
3 153 155 154
3 153 156 155
3 157 155 156
3 158 157 156
3 158 159 157
3 160 157 159
3 160 161 157
3 157 161 155
3 158 162 159
3 158 156 163
3 154 164 153
3 164 165 153
3 165 156 153
3 165 163 156
3 164 166 165
3 167 166 164
3 167 168 166
3 164 169 167
3 161 160 169
3 164 170 169
3 161 169 170
3 155 161 170
3 154 170 164
3 155 170 154
3 171 173 172
3 171 174 173
3 175 173 174
3 175 176 173
3 177 171 172
3 177 178 171
3 177 179 178
3 177 180 179
3 181 176 175
3 182 181 175
3 182 183 181
3 181 184 176
3 178 185 171
3 182 185 186
3 178 186 185
3 179 186 178
3 182 187 185
3 187 175 174
3 187 182 175
3 179 188 186
3 188 182 186
3 188 183 182
3 171 187 174
3 171 185 187
3 189 191 190
3 189 192 191
3 190 191 193
3 190 193 194
3 195 192 189
3 195 196 192
3 197 199 198
3 197 200 199
3 201 198 199
3 201 199 202
3 197 198 203
3 203 198 201
3 197 203 204
3 202 199 205
3 202 205 206
3 199 207 205
3 199 200 207
3 208 206 205
3 208 205 207
3 208 207 209
3 209 207 210
3 200 210 207
3 200 211 210
3 200 212 211
3 200 197 212
3 212 197 204
3 212 204 213
3 209 210 214
3 210 215 214
3 210 206 215
3 208 215 206
3 215 208 216
3 215 216 217
3 209 214 218
3 214 217 218
3 214 215 217
3 209 218 219
3 208 209 219
3 208 219 216
3 220 219 218
3 220 218 221
3 220 221 222
3 221 223 222
3 221 224 223
3 220 222 225
3 225 222 226
3 222 227 226
3 222 223 227
3 223 228 227
3 224 228 223
3 224 229 228
3 227 228 230
3 226 227 230
3 226 230 231
3 225 226 231
3 218 224 221
3 218 217 224
3 229 224 217
3 229 217 216
3 232 234 233
3 232 235 234
3 235 237 236
3 235 232 237
3 238 240 239
3 238 241 240
3 242 241 238
3 242 243 241
3 244 246 245
3 244 247 246
3 248 244 245
3 248 245 249
3 250 248 249
3 250 249 251
3 247 251 246
3 247 250 251
3 246 251 252
3 246 252 253
3 251 254 252
3 255 254 251
3 255 251 256
3 256 257 255
3 256 258 257
3 251 258 256
3 252 254 259
3 260 252 259
3 260 259 261
3 259 254 262
3 259 262 263
3 251 249 258
3 264 249 260
3 257 249 264
3 255 257 264
3 255 264 254
3 257 258 249
3 264 260 261
3 264 261 265
3 264 265 266
3 249 267 260
3 249 245 267
3 268 270 269
3 268 271 270
3 269 270 272
3 269 272 273
3 273 272 274
3 273 274 275
3 203 201 276
3 277 279 278
3 277 280 279
3 281 283 282
3 281 284 283
3 285 283 284
3 285 286 283
3 287 286 285
3 287 288 286
3 289 288 287
3 289 287 290
3 289 290 291
3 289 291 292
3 292 281 282
3 292 291 281
3 291 285 293
3 291 293 294
3 281 291 294
3 285 295 293
3 285 284 295
3 284 296 295
3 284 281 296
3 281 294 296
3 297 299 298
3 297 300 299
3 301 303 302
3 301 304 303
3 305 307 306
3 305 308 307
3 309 306 307
3 309 307 310
3 311 309 310
3 311 310 312
3 313 311 312
3 313 314 311
3 313 315 314
3 313 316 315
3 316 305 315
3 316 308 305
3 315 317 309
3 315 318 317
3 305 318 315
3 309 319 306
3 309 317 319
3 306 320 305
3 306 319 320
3 305 320 318
3 321 323 322
3 321 324 323
3 325 327 326
3 325 328 327
3 326 327 329
3 328 329 327
3 326 329 330
3 331 328 325
3 331 326 330
3 331 325 326
3 331 332 328
3 328 332 329
3 333 335 334
3 333 336 335
3 334 335 337
3 336 337 335
3 334 337 338
3 336 339 337
3 340 334 338
3 340 333 334
3 341 343 342
3 341 344 343
3 342 343 345
3 344 345 343
3 342 345 346
3 347 344 341
3 347 342 346
3 347 341 342
3 347 348 344
3 344 348 345
3 349 351 350
3 349 352 351
3 352 353 351
3 350 351 353
3 352 354 353
3 355 349 350
3 355 352 349
3 355 354 352
3 355 350 356
3 350 353 356
3 357 359 358
3 360 357 358
3 360 361 357
3 360 358 362
3 360 362 363
3 358 364 362
3 358 365 364
3 366 359 357
3 366 357 367
3 357 368 367
3 357 361 368
3 361 360 369
3 361 369 370
3 363 371 360
3 371 369 360
3 359 366 372
3 359 372 373
3 366 374 372
3 372 374 375
3 372 375 376
3 373 372 376
3 377 373 376
3 377 378 373
3 366 379 374
3 366 380 379
3 380 366 381
3 367 381 366
3 380 381 382
3 383 380 382
3 383 379 380
3 381 383 382
3 381 384 383
3 381 385 384
3 386 385 381
3 381 387 386
3 387 388 386
3 389 388 387
3 389 387 390
3 389 391 388
3 389 392 391
3 388 391 393
3 388 393 394
3 381 395 387
3 387 396 390
3 387 395 396
3 390 397 389
3 390 398 397
3 399 389 397
3 399 371 389
3 392 389 371
3 371 399 400
3 363 392 371
3 368 396 395
3 368 395 367
3 367 395 381
3 361 396 368
3 361 390 396
3 370 390 361
3 370 398 390
3 401 371 400
3 369 371 401
3 365 402 364
3 365 403 402
3 404 403 365
3 404 405 403
3 403 406 402
3 403 407 406
3 405 407 403
3 394 406 407
3 394 393 406
3 405 408 407
3 409 407 408
3 409 394 407
3 378 377 410
3 378 410 411
3 378 411 412
3 378 412 413
3 413 412 414
3 413 414 415
3 413 415 416
3 416 415 417
3 417 418 416
3 417 419 418
3 415 420 417
3 415 421 420
3 417 422 419
3 417 420 422
3 420 423 422
3 420 424 423
3 424 420 421
3 377 425 410
3 377 426 425
3 427 425 426
3 427 428 425
3 410 425 428
3 410 428 411
3 427 429 428
3 427 430 429
3 430 424 421
3 430 431 429
3 430 421 431
3 412 429 431
3 412 431 414
3 375 426 377
3 375 377 376
3 375 432 426
3 433 435 434
3 433 436 435
3 436 437 435
3 437 434 435
3 436 438 437
3 439 437 438
3 439 438 440
3 434 441 433
3 434 442 441
3 437 442 434
3 441 442 443
3 441 443 444
3 444 443 445
3 445 443 442
3 437 445 442
3 439 445 437
3 444 445 446
3 439 446 445
3 439 440 446
3 413 373 378
3 359 373 413
3 359 413 404
3 404 413 416
3 405 404 416
3 405 416 418
3 358 359 404
3 358 404 365
3 447 449 448
3 447 450 449
3 450 451 449
3 450 452 451
3 453 455 454
3 453 456 455
3 457 456 453
3 457 458 456
3 459 458 457
3 459 460 458
3 430 427 461
3 386 430 461
3 386 461 385
3 461 462 385
3 385 462 432
3 385 432 384
3 426 462 461
3 426 432 462
3 426 461 427
3 386 409 430
3 409 424 430
3 408 424 409
3 408 423 424
3 388 409 386
3 388 394 409
3 463 465 464
3 463 466 465
3 467 466 463
3 467 468 466
3 469 471 470
3 469 472 471
3 473 475 474
3 473 476 475
3 477 479 478
3 477 480 479
3 481 478 479
3 482 478 481
3 482 481 483
3 484 483 481
3 484 481 485
3 481 479 485
3 482 483 486
3 482 487 478
3 480 477 488
3 488 477 489
3 489 478 487
3 489 477 478
3 488 489 490
3 491 488 490
3 491 490 492
3 488 491 493
3 485 493 484
3 488 493 494
3 480 488 494
3 485 494 493
3 479 494 485
3 479 480 494
3 495 497 496
3 495 498 497
3 499 496 497
3 499 497 500
3 501 498 495
3 501 495 502
3 501 502 503
3 501 503 504
3 505 499 500
3 506 499 505
3 506 505 507
3 505 500 508
3 502 495 509
3 506 509 510
3 510 499 506
3 510 496 499
3 495 510 509
3 495 496 510
3 506 511 509
3 502 509 511
3 503 502 511
3 503 511 512
3 512 506 507
3 512 511 506
3 513 515 514
3 513 516 515
3 513 517 516
3 513 518 517
3 516 519 515
3 516 520 519
3 520 516 517
3 520 517 521
3 522 518 513
3 522 523 518
3 513 514 524
3 522 513 524
3 519 525 515
3 526 515 525
3 515 527 514
3 515 528 527
3 527 529 514
3 515 526 530
3 531 524 514
3 529 531 514
3 522 533 532
3 522 534 533
3 534 522 524
3 523 522 532
3 523 532 535
3 536 535 532
3 536 537 535
3 534 538 533
3 534 539 538
3 539 534 524
3 539 524 540
3 539 540 538
3 541 532 533
3 541 536 532
3 519 536 541
3 519 520 536
3 542 541 533
3 538 542 533
3 540 542 538
3 541 542 525
3 519 541 525
3 524 543 540
3 540 543 544
3 544 525 545
3 540 544 545
3 545 525 542
3 540 545 542
3 544 526 525
3 536 521 537
3 536 520 521
3 524 531 543
3 546 548 547
3 546 549 548
3 548 550 547
3 548 551 550
3 552 554 553
3 552 555 554
3 556 552 553
3 556 553 557
3 558 554 555
3 558 555 559
3 559 560 558
3 559 561 560
3 556 557 562
3 556 562 563
3 564 566 565
3 564 567 566
3 568 570 569
3 568 571 570
3 572 568 569
3 572 569 573
3 574 576 575
3 574 577 576
3 578 574 575
3 578 575 579
3 579 580 578
3 579 581 580
3 582 581 579
3 582 583 581
3 578 580 584
3 578 584 585
3 585 583 582
3 585 584 583
3 585 582 586
3 585 586 587
3 528 515 530
3 588 590 589
3 588 591 590
3 591 592 590
3 591 593 592
3 593 594 592
3 593 595 594
3 596 598 597
3 596 599 598
3 600 596 597
3 600 601 596
3 601 602 596
3 601 603 602
3 603 601 604
3 600 605 601
3 601 605 604
3 600 606 605
3 603 607 602
3 603 608 607
3 609 608 603
3 609 603 610
3 603 604 610
3 606 600 611
3 606 611 612
3 608 613 607
3 608 614 613
3 609 614 608
3 614 615 613
3 614 616 615
3 614 617 616
3 609 617 614
3 616 618 615
3 616 619 618
3 617 619 616
3 619 617 620
3 620 621 619
3 620 622 621
3 623 612 624
3 624 625 623
3 623 625 626
3 627 626 625
3 624 627 625
3 623 626 628
3 627 629 626
3 627 630 629
3 630 631 629
3 629 631 632
3 629 632 633
3 629 604 626
3 628 626 604
3 629 634 604
3 605 628 604
3 599 633 632
3 599 632 598
3 606 628 605
3 606 623 628
3 623 606 612
3 635 627 624
3 635 630 627
3 635 631 630
3 635 632 631
3 635 636 632
3 636 598 632
3 636 597 598
3 636 637 597
3 638 640 639
3 638 639 641
3 638 641 642
3 643 638 642
3 643 644 638
3 643 645 644
3 643 646 645
3 647 645 646
3 647 648 645
3 647 649 648
3 649 650 648
3 650 651 648
3 650 652 651
3 650 653 652
3 654 609 610
3 654 655 609
3 634 654 610
3 634 610 604
3 656 658 657
3 656 659 658
3 659 660 658
3 659 661 660
3 661 662 660
3 661 663 662
3 664 622 665
3 664 621 622
3 619 621 664
3 619 664 618
