mtllib Cobalion.mtl
v 0 0.428704 0.523056
vt 0.434482 0.563368
vn 0 0.2231841 0.9747763
v -0.0858227 0.574288 0.391248
vt 0.417901 0.591495
vn -0.6308038 0.3273839 0.7034958
v -0.137462 0.428704 0.443692
vt 0.407925 0.563368
vn -0.8127242 0.12494 0.5690952
v 0 0.567521 0.431228
vt 0.434482 0.590187
vn 0 0.8300802 0.5576442
v -0.106386 0.3241153 0.4403589
vt 0.413928 0.543163
vn -0.7391316 -0.4102904 0.5341781
v 0.0858227 0.574288 0.391248
vt 0.451063 0.591495
vn 0.6308032 0.3273841 0.7034962
v 0 0.3241153 0.5017806
vt 0.434482 0.543163
vn 0 -0.3305668 0.9437826
v 0.137462 0.428704 0.443692
vt 0.461039 0.563368
vn 0.8127242 0.12494 0.5690952
v 0.106386 0.3241153 0.4403589
vt 0.455035 0.543163
vn 0.7391313 -0.4102901 0.5341788
v -0.147064 0.483796 0.307875
vt 0.406069 0.574012
vn -0.957266 0.0689575 0.280868
v -0.156379 0.661649 0.317513
vt 0.40427 0.608373
vn -0.05752159 0.8305959 0.5538969
v 0 0.1865142 0.4345816
vt 0.434482 0.51658
vn 0 -0.9963259 0.08564301
v -0.106386 0.3241153 0.357679
vn -0.7723336 -0.5594504 -0.3008588
v 0.147064 0.483796 0.307875
vt 0.462894 0.574012
vn 0.9572659 0.0689576 0.280868
v 0.156379 0.661649 0.317513
vt 0.464694 0.608373
vn 0.05752169 0.8305959 0.5538969
v 0 0.583035 0.267045
vt 0.434482 0.593185
vn 0 0.9955656 0.09407006
v 0 0.3241153 0.2962574
vn 0 -0.7089629 -0.7052459
v 0.106386 0.3241153 0.3576801
vn 0.7723339 -0.5594505 -0.3008579
v -0.0369736 0.485181 -0.230997
vt 0.269935 0.935494
vn -0.6594501 0.261562 0.7047771
v 0.0369736 0.485181 -0.230997
vn 0.6594501 0.261562 0.7047771
v 0 0.743163 -0.656176
vt 0.344848 0.980948
vn 0 0.0213479 -0.9997721
v 0 0.262423 -0.461621
vt 0.310569 0.896246
vn 0 -0.9889222 -0.148435
v 0 0.5285829 -0.49117
vt 0.315775 0.943141
vn 0 0.146458 -0.9892169
v 0 0.330293 -0.466517
vt 0.311432 0.908204
vn 0 -0.9204838 -0.3907809
v 0 0.5077109 -0.66028
vt 0.345571 0.939463
v 0 0.327648 -0.585521
vt 0.332399 0.907738
vn 0 -0.938616 -0.344964
v 0 0.398031 -0.472659
vt 0.312514 0.920139
vn 0 -0.222034 -0.9750389
v 0.333359 0.3577553 0.1752305
vt 0.790343 0.0419648
vn 0.8986501 -0.03248652 0.4374618
v 0.332052 0.633975 0.000749898
vt 0.82984 0.10346
vn -0.19275 0.8528771 0.48523
v 0.256517 0.3681268 0.2774762
vt 0.767909 0.0495168
vn 0.02869969 0.4566669 0.8891747
v 0.316869 0.482027 0.0548259
vt 0.8175 0.0693556
vn -0.7569401 0.289859 -0.585682
v 0.255407 0.2702208 0.1667041
vt 0.787631 0.0213288
vn -0.4208355 -0.8999899 0.1136473
v 0.331951 0.46331 -0.0930497
vt 0.850602 0.0651547
vn -0.7118433 0.2686351 -0.6489332
v 0.313284 0.282656 -0.023148
vt 0.834674 0.0246075
vn 0.2758641 -0.9348254 -0.2236081
v 0.307502 0.350282 0.0670939
vt 0.814557 0.0397859
vn -0.8311429 -0.0629876 -0.5524799
v -0.333359 0.3577553 0.1752305
vn -0.8986501 -0.03248632 0.4374618
v -0.256517 0.3681268 0.2774762
vn -0.02869909 0.4566669 0.8891748
v -0.332052 0.633975 0.000749898
vn 0.192749 0.8528761 0.4852321
v -0.255407 0.2702208 0.1667041
vn 0.4208355 -0.8999898 0.1136483
v -0.316869 0.482027 0.0548259
vn 0.7569399 0.28986 -0.5856819
v -0.313284 0.282655 -0.023148
vn -0.275865 -0.9348251 -0.223608
v -0.33195 0.46331 -0.0930497
vn 0.7118429 0.2686369 -0.6489329
v -0.307502 0.350282 0.0670939
vn 0.8311421 -0.06298811 -0.5524811
v 0.279636 1.07301 0.282199
vt 0.908862 0.394158
vn -0.8797786 0.4482378 -0.1583429
v 0.299701 1.02545 0.250257
vt 0.961128 0.391554
vn -0.1092519 -0.7856916 -0.6088947
v 0.25149 0.946247 0.299257
vt 0.990728 0.270945
vn -0.4322439 -0.5177818 -0.7382867
v 0.327424 1.16172 0.0684636
vt 0.954387 0.468484
vn -0.2938451 -0.5837153 -0.7569224
v 0.234272 1.0299 0.330584
vt 0.886555 0.281043
vn -0.8441486 0.5040238 0.1826829
v 0.306946 1.20857 0.101192
vt 0.902301 0.473534
vn -0.7463185 0.6605955 -0.08137724
v 0.332668 1.07562 0.31163
vt 0.856596 0.396763
vn 0.2970209 0.4771959 0.8270808
v 0.359564 1.21046 0.131408
vt 0.850214 0.478583
vn 0.311142 0.588858 0.745947
v 0.286975 0.995905 0.328423
vt 0.938642 0.275994
vn 0.7675429 -0.320404 0.5551749
v 0.380043 1.16361 0.09868
vn 0.7605291 -0.644789 0.076437
v 0.352733 1.02805 0.279687
vn 0.77769 -0.625371 0.0641048
v 0.40779 1.25663 0.0587909
vt 0.829946 0.643464
vn -0.6448274 0.7237954 -0.2455971
v 0.186429 0.920267 0.459438
vt 0.954196 0.0805468
vn -0.09131821 -0.9831622 -0.158282
v 0.424272 1.20271 0.0362859
vt 0.882032 0.638414
vn -0.291922 -0.567547 -0.7698519
v 0.464406 1.26559 0.0787838
vt 0.777859 0.648513
vn 0.3644191 0.6602902 0.6566702
v 0.480887 1.21167 0.0562788
vn 0.726293 -0.676598 0.1213
v 0.122357 0.909566 0.542647
vt 0.944431 -0.038811
vn 0.6052437 0.2804689 0.7449948
v 0.536623 1.34963 -0.200276
vt 0.885136 0.989392
vn 0.274103 0.4124459 -0.8687669
v -0.279636 1.07301 0.282199
vn 0.8797786 0.4482378 -0.1583429
v -0.25149 0.946247 0.299257
vn 0.4322439 -0.5177818 -0.7382867
v -0.299701 1.02545 0.250257
vn 0.1092519 -0.7856916 -0.6088947
v -0.234272 1.0299 0.330584
vn 0.8441486 0.5040238 0.1826829
v -0.327424 1.16172 0.0684636
vn 0.2938451 -0.5837153 -0.7569224
v -0.332668 1.07562 0.31163
vn -0.2970209 0.4771959 0.8270808
v -0.306946 1.20857 0.101192
vn 0.7463185 0.6605955 -0.08137724
v -0.359564 1.21046 0.131408
vn -0.311142 0.588858 0.745947
v -0.286975 0.995905 0.328423
vn -0.7675429 -0.320404 0.5551749
v -0.186429 0.920267 0.459438
vn 0.09131851 -0.9831621 -0.158282
v -0.40779 1.25663 0.0587909
vn 0.6448274 0.7237954 -0.2455971
v -0.380043 1.16361 0.09868
vn -0.7605291 -0.644789 0.076437
v -0.424272 1.20271 0.0362859
vn 0.291922 -0.567547 -0.7698519
v -0.352733 1.02805 0.279687
vn -0.77769 -0.625371 0.0641048
v -0.122357 0.909566 0.542647
vn -0.6052437 0.2804689 0.7449948
v -0.536623 1.34963 -0.200276
vn -0.2741031 0.4124472 -0.8687663
v -0.480887 1.21167 0.0562788
vn -0.726293 -0.676598 0.1213
v -0.464406 1.26559 0.0787838
vn -0.3644191 0.6602902 0.6566702
v 0 0.2401417 -0.4212852
vt 0.727652 0.305469
vn 0 -0.2220341 -0.9750389
v -0.259727 -2.893696E-05 -0.317777
vt 0.598267 0.0137998
vn -0.3375569 -0.7277339 -0.5970416
v -0.256517 0.3681267 -0.2534494
vt 0.517863 0.47396
vn -0.8382803 0.1932247 -0.5098534
v 0 0.2036867 -0.07972955
vt 0.300717 0.237995
vn 0 -0.9828925 0.18418
v 0 0.3681266 -0.4212815
vt 0.727652 0.47396
vn 0 0.2393399 -0.9709359
v 0.259727 -2.893696E-05 -0.317777
vn 0.3375569 -0.7277339 -0.5970416
v 0.256517 0.3681267 -0.2534494
vn 0.8382804 0.1932237 -0.5098535
v -0.255218 0.2238049 -0.0758448
vt 0.295861 0.29356
vn -0.8763414 -0.4297829 0.217514
v 0.255218 0.2238049 -0.0758447
vn 0.8763414 -0.4297829 0.217514
v 0 0.483262 -0.349136
vt 0.34316 0.430981
vn 0 0.8102204 -0.5861254
vt 0.349756 0.420455
vt 0.334412 0.420455
v -0.232176 0.483262 -0.21133
vt 0.330561 0.430981
vn -0.6762288 0.7000458 -0.2294569
v 0.232176 0.483262 -0.21133
vn 0.6762288 0.7000458 -0.2294569
v 0 0.520136 0.0552352
vt 0.306189 0.434353
vn 0 0.9365089 -0.350644
vt 0.28587 0.420455
vn -0.8388623 0.1276749 0.5291588
vt 0.318174 0.40726
vn 0.8388624 0.127674 0.5291589
v -0.232176 0.483262 0.25653
vt 0.287785 0.430981
vn -0.9384927 0.2383539 0.2498379
v 0.232176 0.483262 0.25653
vn 0.9384929 0.238353 0.249838
v 0 0.720494 0.0432115
vt 0.307289 0.452671
vn 0 -0.3335639 -0.9427275
v -0.255218 0.2363994 0.1284376
vt 0.299496 0.408412
vn -0.9053488 -0.3690994 -0.2100219
v 0 0.2013 0.1297917
vt 0.299373 0.405202
vn 0 -0.9810452 -0.193779
vt 0.318529 0.405421
v -0.197019 0.8870801 0.0761217
vt 0.30428 0.467902
vn -0.5811079 -0.305364 -0.754365
v 0 0.982808 -0.0800797
vt 0.318561 0.476654
vn 0 -0.4253719 -0.9050187
v 0.197019 0.8870801 0.0761217
vn 0.5811079 -0.305364 -0.754365
v 0 0.483262 0.39934
vt 0.274728 0.430981
vn 0 0.07461971 0.9972121
v 0.255218 0.2364004 0.1284376
vn 0.905349 -0.3690991 -0.2100217
v 0 0.3681268 0.4215397
vt 0.272699 0.420455
vn 0 0.1187321 0.9929263
v 0 0.2393036 0.4236323
vt 0.0164571 0.312938
vn 0 -0.2259579 0.9741371
vt 0.199146 0.47396
v -0.259727 -2.534973E-05 0.3065146
vt 0.162851 0.0137998
vn -0.3616917 -0.7062778 0.6085644
vt 0.0190692 0.47396
vt 0.383751 0.265428
v 0.259727 -2.534973E-05 0.3065146
vn 0.3616914 -0.7062783 0.6085641
vt 0.385444 0.309303
v 0.102029 0.902262 0.0274751
vt 0.0953082 0.576068
vn 0.3934868 -0.1884959 -0.8997986
v 0.18627 0.993567 0.0997443
vt 0.0712451 0.59741
vn 0.6999943 0.4303131 -0.5699462
v 0.220685 0.865729 0.146855
vt 0.0662013 0.567161
vn 0.8760707 -0.1756899 -0.4490359
v 0 1.01688 0.00413961
vt 0.0936348 0.603095
vn 0 0.4217712 -0.9067023
v 0.165086 0.752465 0.152709
vt 0.064774 0.539545
vn 0.5720828 -0.6516898 -0.4980178
v -0.102029 0.902262 0.0274751
vn -0.3934868 -0.1884959 -0.8997986
v 0 0.765632 0.056131
vt 0.0883214 0.542756
vn 0 -0.654791 -0.75581
v 0.255706 0.951928 0.300633
vt 0.0287074 0.588178
vn 0.9750798 0.21681 0.04704049
v -0.18627 0.993567 0.0997443
vn -0.6999943 0.4303131 -0.5699462
v 0 0.648068 0.302012
vt 0.0518313 0.516973
vn 0 -0.969493 -0.245119
v 0.241393 0.829225 0.3011
vt 0.0285938 0.553496
vn 0.9431421 -0.319209 0.09267411
v 0.150575 0.68119 0.3011
vt 0.0285938 0.522167
vn 0.5733207 -0.8160416 0.07334417
v -0.220685 0.865729 0.146855
vn -0.8760707 -0.1756899 -0.4490359
v -0.165086 0.752465 0.152709
vn -0.5720828 -0.6516898 -0.4980178
v -0.255706 0.951928 0.300633
vn -0.9750798 0.21681 0.04704049
v -0.150575 0.68119 0.3011
vn -0.5733207 -0.8160416 0.07334417
v -0.241393 0.829225 0.3011
vn -0.9431421 -0.319209 0.09267411
v 0 0.667271 0.435161
vt 0.156794 0.65801
vn 0 -0.903046 0.429544
vt 0.31998 0.582969
vt 0.340425 0.616739
v 0.155222 0.803202 0.492774
vt 0.187474 0.844988
vn 0.6926299 -0.4358819 0.574692
v -0.155222 0.803202 0.492774
vn -0.6926299 -0.4358819 0.574692
v 0 0.756833 0.551246
vt 0.00335968 0.822544
vn 0 -0.583209 0.8123221
vt 0.404701 0.758945
vt 0.152524 0.998013
vn 0.6271753 0.1263261 0.7685655
vn -0.6271753 0.1263261 0.7685655
v 0 0.893868 0.654691
vt 0.00335968 0.978875
vn 0 0.1499629 0.9886916
v 0 1.11553 0.135254
vt 0.463857 0.946451
vn 0 0.8996271 -0.4366591
vt 0.48038 0.933914
vt 0.467434 0.930627
v -0.165232 1.0928 0.251619
vt 0.448906 0.943531
vn -0.591032 0.797775 -0.119316
v 0.165232 1.0928 0.251619
vn 0.591032 0.797775 -0.119316
v 0 1.14891 0.302164
vt 0.439534 0.948907
vn 0 0.9841213 0.1774971
vt 0.442837 0.925289
v -0.167753 1.05743 0.423444
vt 0.426831 0.938986
vn -0.6014401 0.6321611 0.4885101
v 0.167753 1.05743 0.423444
vn 0.6014401 0.6321611 0.4885101
v 0 1.03324 0.502426
vt 0.416683 0.935879
vn 0 0.7381121 0.6746781
vt 0.408717 0.919316
vt 0.392921 0.917103
vt 0.420448 0.920825
vn 0.8683785 0.04438398 0.4939117
vn -0.8683785 0.04438398 0.4939117
v 0 0.688781 0.18397
vt 0.294419 0.449772
vn 0 0.7075691 0.7066441
vn 0 0.6681609 0.7440169
vn 0.3767821 0.6677821 0.6419521
vn -0.3767821 0.6677821 0.6419521
vn 0 0.7740268 0.6331528
v -0.273886 0.788554 0.294058
vt 0.284354 0.458894
vn 0.5535371 0.6680771 0.4972621
v 0.273886 0.788554 0.294058
vn -0.5535371 0.6680771 0.4972621
v -0.0487471 0.56952 0.498526
vt 0.425064 0.590574
vn -0.173468 0.138227 0.9750909
v 0.013637 0.567291 0.41317
vt 0.437116 0.590143
vn 0.7356583 0.4260952 0.5265452
v -0.0431433 0.567291 0.41317
vt 0.426147 0.590143
vn -0.7977521 0.5991371 -0.06801711
v -0.0147531 0.519477 0.424648
vt 0.431632 0.580905
vn 0.2231141 -0.7563222 0.6149771
v 0.173652 0.3139242 0.3446069
vt 0.468031 0.541194
vn 0.792289 -0.2676158 -0.5483246
v 0.0776663 0.3602347 0.3678601
vt 0.449487 0.550141
vn -0.03374556 0.3917412 -0.9194564
v 0.114192 0.3545527 0.4109606
vt 0.456543 0.549043
vn 0.7846919 0.4469839 0.4294928
v 0.08605121 0.3085741 0.3913454
vt 0.451107 0.54016
vn -0.06826298 -0.9686598 -0.2388269
vt 0.684427 0.438441
vt 0.517445 0.375322
vt 0.505614 0.778818
vn -0.9908425 -0.1349871 -0.003132102
vt 0.716891 0.990343
vt 0.78041 0.810109
vn 0.9908425 -0.1349871 -0.003132191
o merged_0_0_node
g polygon_0
usemtl mat_body_mat_id
f 1/1/1 2/2/2 3/3/3
f 1/1/1 4/4/4 2/2/2
f 1/1/1 3/3/3 5/5/5
f 1/1/1 6/6/6 4/4/4
f 1/1/1 5/5/5 7/7/7
f 1/1/1 8/8/8 6/6/6
f 1/1/1 7/7/7 9/9/9
f 1/1/1 9/9/9 8/8/8
f 2/2/2 10/10/10 3/3/3
f 2/2/2 4/4/4 11/11/11
f 2/2/2 11/11/11 10/10/10
f 5/5/5 12/12/12 7/7/7
f 5/5/5 3/3/3 13/5/13
f 5/5/5 13/5/13 12/12/12
f 3/3/3 10/10/10 13/5/13
f 7/7/7 12/12/12 9/9/9
f 6/6/6 8/8/8 14/13/14
f 6/6/6 15/14/15 4/4/4
f 6/6/6 14/13/14 15/14/15
f 11/11/11 4/4/4 16/15/16
f 16/15/16 4/4/4 15/14/15
f 13/5/13 17/7/17 12/12/12
f 9/9/9 18/9/18 8/8/8
f 9/9/9 12/12/12 18/9/18
f 18/9/18 14/13/14 8/8/8
f 18/9/18 12/12/12 17/7/17
f 19/16/19 20/16/20 21/17/21
f 19/16/19 22/18/22 20/16/20
f 19/16/19 21/17/21 23/19/23
f 19/16/19 24/20/24 22/18/22
f 19/16/19 23/19/23 25/21/17
f 19/16/19 26/22/25 24/20/24
f 19/16/19 25/21/17 27/23/26
f 19/16/19 27/23/26 26/22/25
f 20/16/20 23/19/23 21/17/21
f 20/16/20 22/18/22 24/20/24
f 20/16/20 27/23/26 25/21/17
f 20/16/20 24/20/24 26/22/25
f 20/16/20 25/21/17 23/19/23
f 20/16/20 26/22/25 27/23/26
f 28/24/27 29/25/28 30/26/29
f 28/24/27 31/27/30 29/25/28
f 28/24/27 30/26/29 32/28/31
f 28/24/27 33/29/32 31/27/30
f 28/24/27 32/28/31 34/30/33
f 28/24/27 35/31/34 33/29/32
f 28/24/27 34/30/33 35/31/34
f 30/26/29 29/25/28 31/27/30
f 30/26/29 35/31/34 32/28/31
f 30/26/29 31/27/30 33/29/32
f 30/26/29 33/29/32 35/31/34
f 35/31/34 34/30/33 32/28/31
f 36/24/35 37/26/36 38/25/37
f 36/24/35 39/28/38 37/26/36
f 36/24/35 38/25/37 40/27/39
f 36/24/35 41/30/40 39/28/38
f 36/24/35 40/27/39 42/29/41
f 36/24/35 43/31/42 41/30/40
f 36/24/35 42/29/41 43/31/42
f 37/26/36 40/27/39 38/25/37
f 37/26/36 39/28/38 43/31/42
f 37/26/36 42/29/41 40/27/39
f 37/26/36 43/31/42 42/29/41
f 43/31/42 39/28/38 41/30/40
f 44/32/43 45/33/44 46/34/45
f 44/32/43 47/35/46 45/33/44
f 44/32/43 46/34/45 48/36/47
f 44/32/43 49/37/48 47/35/46
f 44/32/43 48/36/47 50/38/49
f 44/32/43 51/39/50 49/37/48
f 44/32/43 50/38/49 51/39/50
f 45/33/44 52/40/51 46/34/45
f 45/33/44 47/35/46 53/37/52
f 45/33/44 54/32/53 52/40/51
f 45/33/44 53/37/52 54/32/53
f 54/32/53 50/38/49 52/40/51
f 54/32/53 51/39/50 50/38/49
f 54/32/53 53/37/52 51/39/50
f 50/38/49 48/36/47 52/40/51
f 49/37/48 55/41/54 47/35/46
f 49/37/48 51/39/50 55/41/54
f 46/34/45 56/42/55 48/36/47
f 46/34/45 52/40/51 56/42/55
f 53/37/52 47/35/46 57/43/56
f 53/37/52 58/44/57 51/39/50
f 53/37/52 57/43/56 59/41/58
f 53/37/52 59/41/58 58/44/57
f 51/39/50 58/44/57 55/41/54
f 47/35/46 55/41/54 57/43/56
f 48/36/47 60/45/59 52/40/51
f 48/36/47 56/42/55 60/45/59
f 60/45/59 56/42/55 52/40/51
f 59/41/58 61/46/60 58/44/57
f 59/41/58 57/43/56 61/46/60
f 61/46/60 57/43/56 55/41/54
f 61/46/60 55/41/54 58/44/57
f 62/32/61 63/34/62 64/33/63
f 62/32/61 65/36/64 63/34/62
f 62/32/61 64/33/63 66/35/65
f 62/32/61 67/38/66 65/36/64
f 62/32/61 66/35/65 68/37/67
f 62/32/61 69/39/68 67/38/66
f 62/32/61 68/37/67 69/39/68
f 63/34/62 70/40/69 64/33/63
f 63/34/62 65/36/64 71/42/70
f 63/34/62 71/42/70 70/40/69
f 66/35/65 72/41/71 68/37/67
f 66/35/65 64/33/63 73/37/72
f 66/35/65 74/43/73 72/41/71
f 66/35/65 73/37/72 74/43/73
f 68/37/67 72/41/71 69/39/68
f 67/38/66 70/40/69 65/36/64
f 67/38/66 69/39/68 75/32/74
f 67/38/66 75/32/74 70/40/69
f 75/32/74 64/33/63 70/40/69
f 75/32/74 69/39/68 73/37/72
f 75/32/74 73/37/72 64/33/63
f 71/42/70 65/36/64 76/45/75
f 71/42/70 76/45/75 70/40/69
f 70/40/69 76/45/75 65/36/64
f 74/43/73 77/46/76 72/41/71
f 74/43/73 73/37/72 78/41/77
f 74/43/73 78/41/77 77/46/76
f 69/39/68 72/41/71 79/44/78
f 69/39/68 79/44/78 73/37/72
f 79/44/78 78/41/77 73/37/72
f 79/44/78 72/41/71 77/46/76
f 79/44/78 77/46/76 78/41/77
f 80/47/79 81/48/80 82/49/81
f 80/47/79 83/50/82 81/48/80
f 80/47/79 82/49/81 84/51/83
f 80/47/79 85/48/84 83/50/82
f 80/47/79 84/51/83 86/49/85
f 80/47/79 86/49/85 85/48/84
f 81/48/80 87/52/86 82/49/81
f 81/48/80 83/50/82 87/52/86
f 86/49/85 88/52/87 85/48/84
f 85/48/84 88/52/87 83/50/82
f 89/53/88 84/54/83 82/55/81
f 89/53/88 86/55/85 84/54/83
f 89/53/88 82/55/81 90/56/89
f 89/53/88 91/56/90 86/55/85
f 89/53/88 90/56/89 92/57/91
f 89/53/88 92/57/91 91/56/90
f 82/55/81 37/58/92 90/56/89
f 82/55/81 87/59/86 37/58/92
f 86/55/85 91/56/90 30/58/93
f 86/55/85 30/58/93 88/59/87
f 92/57/91 90/56/89 93/60/94
f 92/57/91 94/60/95 91/56/90
f 92/57/91 93/60/94 95/61/96
f 92/57/91 95/61/96 94/60/95
f 91/56/90 94/60/95 30/58/93
f 90/56/89 37/58/92 93/60/94
f 87/59/86 96/62/97 37/58/92
f 87/59/86 97/63/98 96/62/97
f 87/59/86 83/64/82 97/63/98
f 83/64/82 88/59/87 97/63/98
f 95/61/96 98/65/99 99/66/100
f 95/61/96 99/66/100 100/65/101
f 94/60/95 101/67/102 30/58/93
f 93/60/94 37/58/92 101/67/102
f 88/59/87 102/62/103 97/63/98
f 88/59/87 30/58/93 102/62/103
f 37/58/92 103/68/104 101/67/102
f 101/67/102 103/68/104 30/58/93
f 104/69/105 37/70/92 105/71/106
f 104/69/105 103/72/104 37/70/92
f 104/69/105 105/71/106 97/73/98
f 104/69/105 30/70/93 103/72/104
f 104/69/105 97/73/98 106/71/107
f 104/69/105 106/71/107 30/70/93
f 37/70/92 96/74/97 105/71/106
f 105/71/106 96/74/97 97/73/98
f 106/71/107 102/74/103 30/70/93
f 106/71/107 97/73/98 102/74/103
f 107/75/108 108/76/109 109/77/110
f 107/75/108 110/78/111 108/76/109
f 107/75/108 109/77/110 111/79/112
f 107/75/108 112/75/113 110/78/111
f 107/75/108 111/79/112 113/80/114
f 107/75/108 113/80/114 112/75/113
f 108/76/109 114/81/115 109/77/110
f 110/78/111 112/75/113 115/76/116
f 111/79/112 116/82/117 113/80/114
f 111/79/112 109/77/110 117/83/118
f 111/79/112 118/84/119 116/82/117
f 111/79/112 117/83/118 118/84/119
f 117/83/118 109/77/110 114/81/115
f 112/75/113 119/77/120 115/76/116
f 112/75/113 113/80/114 120/79/121
f 112/75/113 120/79/121 119/77/120
f 113/80/114 116/82/117 120/79/121
f 115/76/116 119/77/120 121/81/122
f 116/82/117 122/84/123 120/79/121
f 119/77/120 123/83/124 121/81/122
f 119/77/120 120/79/121 123/83/124
f 123/83/124 120/79/121 122/84/123
f 124/85/125 116/86/117 118/87/119
f 124/85/125 122/87/123 116/86/117
f 124/85/125 118/87/119 125/88/126
f 124/85/125 126/88/127 122/87/123
f 124/85/125 125/88/126 127/89/128
f 124/85/125 127/89/128 126/88/127
f 118/87/119 117/90/118 125/88/126
f 122/87/123 126/88/127 123/90/124
f 127/89/128 125/88/126 60/91/129
f 127/89/128 76/91/130 126/88/127
f 127/89/128 60/91/129 128/92/131
f 127/89/128 128/92/131 76/91/130
f 129/93/132 110/94/111 115/95/116
f 129/93/132 108/95/109 110/94/111
f 129/93/132 115/95/116 130/96/133
f 129/93/132 131/96/134 108/95/109
f 129/93/132 130/96/133 132/97/135
f 129/93/132 132/97/135 131/96/134
f 115/95/116 121/98/122 130/96/133
f 108/95/109 131/96/134 114/98/115
f 132/97/135 130/96/133 133/99/136
f 132/97/135 134/99/137 131/96/134
f 132/97/135 133/99/136 135/100/138
f 132/97/135 135/100/138 134/99/137
f 131/96/134 134/99/137 114/98/115
f 130/96/133 121/98/122 133/99/136
f 135/100/138 60/101/129 134/99/137
f 135/100/138 133/99/136 76/101/130
f 135/100/138 128/102/131 60/101/129
f 135/100/138 76/101/130 128/102/131
f 114/98/115 134/99/137 56/103/139
f 56/103/139 134/99/137 60/101/129
f 121/98/122 71/103/140 133/99/136
f 133/99/136 71/103/140 76/101/130
f 136/104/141 99/66/142 98/65/143
f 136/104/141 100/65/144 99/66/142
f 136/104/141 98/65/143 101/67/145
f 136/104/141 101/67/145 100/65/144
f 98/65/143 137/105/146 101/67/145
f 100/65/144 101/67/145 138/105/147
f 139/106/148 140/107/149 141/108/150
f 139/106/148 142/109/151 140/107/149
f 139/106/148 141/108/150 142/109/151
f 143/110/152 144/111/153 145/112/154
f 143/110/152 146/113/155 144/111/153
f 143/110/152 145/112/154 146/113/155
f 93/114/94 101/115/102 137/116/156
f 93/114/94 137/116/156 98/117/99
f 93/114/94 98/117/99 95/118/96
f 101/115/102 94/114/95 138/116/157
f 95/118/96 100/117/101 94/114/95
f 94/114/95 100/117/101 138/116/157
vt 0.785297 0.818233
vt 0.391455 0.954855
vt 0.252237 0.81877
vt 0.140951 0.954193
vt 0.849839 0.962595
o merged_1_0_node
g polygon_0
usemtl TEX_ANIM_EYE_mat_id
f 117/119/118 56/120/139 125/121/126
f 56/120/139 60/122/129 125/121/126
f 114/123/115 56/120/139 117/119/118
f 123/119/124 126/121/127 71/120/140
f 71/120/140 126/121/127 76/122/130
f 123/119/124 71/120/140 121/123/122
