mtllib Panpour.mtl
v 0.00556162 0.610448 -0.0356363
vt 0.861798 0.910143
vn 0.00229889 0.999982 0.00555007
v -0.0658624 0.575533 0.137744
vt 0.783916 0.952966
vn -0.3844672 -0.002412072 0.9231355
v 0.00576569 0.575533 0.113831
vt 0.828247 0.954681
vn -0.0013688 -0.0019227 0.9999972
v -0.09969491 0.575533 0.0699087
vt 0.780798 0.928591
vn -0.7080694 -0.001917321 0.7061403
v 0.0774592 0.575533 0.13794
vt 0.861798 0.970704
vn 0.382682 -0.00241663 0.923877
v -0.167345 0.575533 0.035984
vt 0.751656 0.910143
vn -0.9238766 -0.002407129 0.3826828
v 0.111107 0.575533 0.0701971
vt 0.895349 0.954681
vn 0.7080728 -0.00192256 0.7061368
v -0.143498 0.575533 -0.0358402
vt 0.780798 0.891695
vn -0.9999973 -0.001917271 0.00136481
v 0.178664 0.575533 0.0364573
vt 0.93968 0.952966
vn 0.9246148 -0.002412129 0.3808959
v -0.167541 0.575533 -0.10773
vt 0.783916 0.86732
vn -0.9246148 -0.00241184 -0.3808959
v 0.154621 0.575533 -0.0354323
vt 0.942798 0.928591
vn 0.9999973 -0.001917501 -0.00136502
v -0.0999834 0.575533 -0.14147
vt 0.828247 0.865606
vn -0.7944791 -0.00205649 -0.6072881
v 0.178468 0.575533 -0.107257
vt 0.97194 0.910143
vn 0.9238766 -0.002407479 -0.3826828
v -0.067962 0.575533 -0.213138
vt 0.861798 0.840213
vn -0.382681 -0.00324044 -0.9238749
v 0.110818 0.575533 -0.141181
vt 0.942798 0.891695
vn 0.7080698 -0.00191727 -0.7061398
v 0.00535764 0.575533 -0.185103
vt 0.895349 0.865606
vn 0.132364 -0.0020564 -0.991199
v 0.0769857 0.575533 -0.209016
vt 0.93968 0.86732
vn 0.384466 -0.0024119 -0.923136
v 0.00556162 0.52 -0.0356363
vn 0.0022842 -0.9999822 0.005514541
v -0.113971 0.462346 0.0694534
vt 0.768453 0.903875
vn -0.3950618 0.7564976 0.5211887
v -0.155972 0.438164 0.0222049
vt 0.715939 0.865193
vn -0.9072451 0.33799 0.250338
v -0.127591 0.438251 0.0842014
vt 0.745353 0.858719
vn -0.4663578 0.2304589 0.8540487
v -0.139976 0.459109 -0.00901817
vt 0.737724 0.896593
vn -0.62664 0.7720919 0.105814
v 8.81612E-05 0.438251 0.134662
vt 0.836273 0.858719
vn 0.0001695951 0.2328551 0.9725114
v -0.0994681 0.493624 -0.0402412
vt 0.759508 0.927993
vn -0.4051259 0.8964627 -0.1795209
v 0 0.462346 0.117673
vt 0.836205 0.903875
vn -0.000292361 0.737413 0.675442
v -0.0497341 0.505661 0.021495
vt 0.797857 0.929915
vn -0.2222591 0.9532793 0.204596
v 0 0.498611 0.0542558
vt 0.836205 0.931838
vn 0 0.9098498 0.4149379
v -0.163592 0.437971 -0.0402412
vt 0.710064 0.871317
vn -0.8866848 0.4339489 -0.15962
v -0.186862 0.356786 -0.0402412
vt 0.692122 0.80442
vn -0.9897661 0.05031591 -0.133534
v -0.175554 0.350159 0.0232703
vt 0.700841 0.79931
vn -0.9555798 0.0115341 0.2945069
v 0.113971 0.462346 0.0694534
vt 0.903957 0.903875
vn 0.395362 0.756532 0.520911
v 0.127455 0.438251 0.0842014
vt 0.935943 0.858719
vn 0.464225 0.233007 0.8545191
v 0 0.509803 -0.0402412
vt 0.836205 0.940467
vn 0 0.9850818 -0.172087
v -0.171332 0.285005 -0.0402412
vt 0.704096 0.749072
vn -0.8588142 -0.4921281 -0.142296
v -0.10825 0.437971 -0.177175
vt 0.752737 0.871317
vn -0.5762252 0.6020782 -0.5526902
v -0.11598 0.285005 -0.179737
vt 0.746776 0.749072
vn -0.598736 -0.5457711 -0.586216
v -0.124306 0.364275 -0.188933
vt 0.740356 0.810195
vn -0.6826293 0.04992523 -0.7290574
v 0.155972 0.438164 0.0222049
vt 0.956471 0.865193
vn 0.9074468 0.3391349 0.2480479
v 0.0497341 0.505661 0.021495
vt 0.874554 0.929915
vn 0.2222589 0.9532796 0.2045949
v -0.162715 0.279203 0.0217708
vt 0.71074 0.744598
vn -0.8693059 -0.4313459 0.241346
v 0 0.302629 -0.224207
vt 0.836205 0.762661
vn 0 -0.2433539 -0.9699376
v 0 0.438303 -0.216839
vt 0.836205 0.854841
vn -9.108511E-05 0.360627 -0.9327101
v 0 0.479889 -0.153445
vt 0.836205 0.917402
vn -0.0003183821 0.9208512 -0.3899141
v 0.139976 0.459109 -0.00901817
vt 0.934687 0.896593
vn 0.626236 0.772334 0.106436
v 0.163592 0.438081 -0.0402412
vt 0.962346 0.871317
vn 0.8867052 0.4339371 -0.159538
v 0.186862 0.356786 -0.0402412
vt 0.980289 0.80442
vn 0.9897687 0.05029659 -0.133522
v 0.175554 0.350159 0.0232703
vt 0.97157 0.79931
vn 0.9556322 0.0115284 0.2943371
v 0.0994681 0.493624 -0.0402412
vt 0.912902 0.927993
vn 0.4047122 0.8967085 -0.1792261
v -0.114995 0.23716 0.0217708
vt 0.747536 0.71218
vn -0.4078919 -0.8833178 0.2310279
v -0.0994681 0.221494 -0.0402412
vt 0.759508 0.7001
vn -0.433646 -0.8941669 -0.11143
v 0.124306 0.364275 -0.188933
vt 0.932054 0.810195
vn 0.6826828 0.04990608 -0.7290087
v 0 0.225106 -0.160934
vt 0.836205 0.702885
vn 0 -0.8751713 -0.4838132
v 0.11598 0.285005 -0.179737
vt 0.925634 0.749072
vn 0.598736 -0.5457711 -0.586216
v 0.171332 0.285005 -0.0402412
vt 0.968314 0.749072
vn 0.8588142 -0.4921281 -0.142296
v 0.162715 0.279203 0.0217708
vt 0.96167 0.744598
vn 0.8694423 -0.4301442 0.2429941
v 0.10825 0.438081 -0.177175
vt 0.919674 0.871317
vn 0.5761411 0.602044 -0.5528151
v 0 0.203314 0.0167957
vt 0.836205 0.686082
vn 0 -0.9613472 0.2753391
v 0.0994681 0.221494 -0.0402412
vt 0.912902 0.7001
vn 0.433646 -0.8941669 -0.11143
v 0 0.198247 -0.0402412
vt 0.836205 0.682175
vn 0 -0.9994115 -0.03430209
v 0.114995 0.23716 0.0217708
vt 0.924875 0.71218
vn 0.4078919 -0.8833178 0.2310279
vt 0.168051 0.0563153
vt 0.127579 0.100927
vt 0.0741029 0.0992102
vt 0.168051 0.125198
vt 0.0703419 0.0747943
vt 0.208523 0.100927
vt 0.0351884 0.0563153
vt 0.261999 0.0992102
vt 0.26576 0.0747943
vt 0.300913 0.0563153
v 0.0469363 0.209052 -0.0404633
vt 0.896893 0.933467
vn 0.4387199 0.201701 -0.8756949
v 0.0265093 0.152885 -0.0447823
vt 0.88219 0.936576
vn 0.445628 0.227362 -0.865865
v -0.0265092 0.152885 -0.0447823
vt 0.844028 0.936576
vn -0.445628 0.227362 -0.865865
v 0.0530185 0.152885 0
vt 0.901271 0.904342
vn 0.9652038 -0.2357909 -0.113068
v -0.0469362 0.209052 -0.0404633
vt 0.829325 0.933467
vn -0.4387192 0.2017011 -0.8756953
v 0.0938725 0.217188 0
vt 0.930677 0.904342
vn 0.7856156 0.3187309 -0.5303007
v 0 0.229166 0
vt 0.863109 0.904342
vn 0 0.9969901 -0.07752941
v -0.0530185 0.152885 0
vt 0.824947 0.904342
vn -0.9652036 -0.2357909 -0.113069
v 0.0469362 0.216044 0.0510107
vt 0.896893 0.867626
vn -0.126026 0.6968428 0.7060648
v -0.0938725 0.217188 0
vt 0.795541 0.904342
vn -0.7856156 0.3187309 -0.5303007
v -0.0469363 0.216044 0.0510107
vt 0.829325 0.867626
vn 0.126026 0.6968428 0.7060648
v 0.0315105 0.169868 0.0447823
vt 0.88579 0.872109
vn 0.132314 -0.3014289 0.9442636
v -0.0315105 0.169868 0.0447823
vt 0.840428 0.872109
vn -0.132314 -0.3014289 0.9442636
v 0 0.0596262 -0.0152043
vt 0.5 0.511302
vn 0 -0.9997561 -0.0220856
v -0.0355489 0.0713277 -0.08522521
vt 0.483233 0.516821
vn -0.3994059 0.04518899 -0.9156598
v 0.0355489 0.0713277 -0.0852251
vt 0.516767 0.516821
vn 0.3994067 0.04518887 -0.9156594
v -0.0573382 0 -0.0107744
vt 0.472956 0.483179
vn -0.1704781 -0.9827044 -0.07231373
v 0.0573382 0 -0.0107744
vt 0.527044 0.483179
vn 0.1704781 -0.9827045 -0.07231344
v -0.0355489 0.0713277 0.0332988
vn -0.3573948 -0.2245979 0.9065455
v 0.0355489 0.0713277 0.0332988
vn 0.357394 -0.224598 0.9065458
v -0.0710977 0.0713277 -0.0152043
vt 0.466466 0.516821
vn -0.9948173 0.08461222 -0.05638582
v 0.0710977 0.0713277 -0.0152043
vt 0.533534 0.516821
vn 0.9948173 0.08461213 -0.05638542
v 0.290968 0.512602 -0.0241763
vt 0.887668 0.392528
vn 0.6563433 0.6632754 0.3595542
v 0.190159 0.49291 -0.0772446
vt 0.768317 0.338744
vn -0.2574259 0.4389239 -0.8608587
v 0.183527 0.510325 -0.0318638
vt 0.781364 0.362834
vn -0.5891026 0.6153017 0.5237957
v 0.232434 0.358691 -0.082274
vt 0.88841 0.711191
vn 0.182562 0.00548341 -0.983179
v 0.212051 0.380784 -0.0301507
vt 0.843978 0.216324
vn -0.05760689 0.0458946 0.9972839
v 0.323511 0.366845 -0.0490324
vt 0.940575 0.715625
vn 0.7857268 -0.15376 -0.5991588
v 0.327875 0.380677 -0.0110486
vt 0.967212 0.247306
vn 0.410759 -0.0570069 0.90996
v 0.0943717 0.394962 -0.0176165
vt 0.731889 0.205788
vn -0.7330816 0.5186857 0.4399507
v 0.0944253 0.341799 -0.0755903
vt 0.715347 0.134997
vn -0.3565611 0.2320751 -0.9049892
v 0.259853 0.256666 -0.052519
vt 0.909202 0.655726
vn 0.437873 -0.813679 -0.382353
v 0.127664 0.260262 -0.0803313
vt 0.838755 0.657681
vn -0.008993259 -0.6830289 -0.730336
vt 0.824064 0.702008
vt 0.869468 0.784604
v 0.248979 0.270804 -0.00922798
vt 0.919793 0.0976575
vn 0.1720089 -0.5453547 0.8203665
vt 0.94659 0.224767
v 0.127714 0.276891 -0.0321899
vt 0.78765 0.0719203
vn -0.08356512 -0.5319232 0.8426592
vt 0.911346 0.0778099
vt 0.766632 0.0457765
v -0.290968 0.512602 -0.0241763
vn -0.66051 0.731167 -0.17065
v -0.183527 0.510325 -0.0318638
vn 0.350405 0.717843 0.601596
v -0.190159 0.49291 -0.0772446
vn 0.12085 0.5223929 -0.8440978
v -0.212051 0.380784 -0.0301507
vn 0.06216772 0.04200631 0.9971814
v -0.232434 0.358691 -0.082274
vn -0.205305 0.00949193 -0.978652
v -0.327875 0.380677 -0.0110486
vn -0.58096 -0.0395853 0.812969
v -0.323511 0.366845 -0.0490324
vn -0.8022259 -0.0755815 -0.592217
v -0.0943717 0.394962 -0.0176165
vn 0.3218479 0.2576019 0.9110737
v -0.259853 0.256666 -0.052519
vn -0.481779 -0.7164081 -0.504627
v -0.127664 0.260262 -0.0803313
vn -0.02210109 -0.5680916 -0.8226686
v -0.0944253 0.341799 -0.0755903
vn 0.333328 0.216791 -0.9175479
v -0.248979 0.270804 -0.00922798
vn -0.133368 -0.4327529 0.8915929
v -0.127714 0.276891 -0.0321899
vn 0.07408549 -0.3728909 0.9249128
v -0.167564 0.207578 0.112616
vt 0.396886 0.498405
vn -0.9651194 0.106538 0.2391531
vt 0.422149 0.904379
vt 0.425562 0.904379
vt 0.284362 0.904379
vt 0.233687 0.904379
v 0.167564 0.207578 0.112616
vn 0.9651194 0.106538 0.2391531
v 0.0673729 0.480131 -0.0321267
vt 0.971849 0.901411
vn 0.7571862 -0.6531992 0
v -0.0673729 0.480131 -0.0321267
vt 0.800678 0.901411
vn -0.7571862 -0.6531992 0
v 0 0.480131 -0.0994996
vt 0.886264 0.986997
vn 0 -0.6531992 -0.7571862
v 0 0.480131 0.0352462
vt 0.886264 0.815826
vn 0 -0.6531992 0.7571862
v 0 0.602635 -0.0321267
vt 0.886264 0.901411
v 0 0.07336859 -0.104568
vt 0.5 0.451862
vn 0 -0.3262741 0.9452752
v 0.00631919 0.0994781 -0.231359
vt 0.504391 0.470004
vn 0.9944685 -0.1036711 -0.01687621
v 0 0.105169 -0.228612
vt 0.5 0.473958
vn 0 0.8144633 0.5802152
v 0 0.09378719 -0.234106
vt 0.5 0.46605
vn 0 -0.8584842 -0.5128401
v -0.00631919 0.0994781 -0.231359
vt 0.495609 0.470004
vn -0.9944685 -0.1036709 -0.01687639
v 0.0362444 0.217868 -0.384903
vt 0.886436 0.893348
vn 0.9986696 -0.03314549 0.03950099
v 0 0.190103 -0.408201
vt 0.919796 0.893348
vn 0 -0.8052739 -0.592903
v 0 0.238878 -0.409943
vt 0.919796 0.874088
vn 0 0.6427881 -0.7660441
v 0 0.185075 -0.345823
vt 0.919796 0.951129
vn 0 -0.6427876 0.7660445
v 0 0.245632 -0.361606
v -0.0362444 0.217868 -0.384903
vt 0.953156 0.893348
vn -0.9986696 -0.03314549 0.03950148
v -0.0500417 0.217649 -0.322249
vn 0.05156499 0.641933 0.7650249
v -0.0500417 0.222117 -0.373311
vn 0.05156563 0.7650254 -0.6419324
v -0.0827286 0.194352 -0.350014
vn -0.9999973 -0.00191727 0.00136481
v 0.00097429 0.194352 -0.350014
v -0.0500417 0.166587 -0.326716
vn 0.05156483 -0.7650254 0.6419324
v -0.0500417 0.171054 -0.377778
vn 0.05156539 -0.641933 -0.7650249
v 0.0500417 0.171054 -0.377778
vn -0.05156509 -0.6419319 -0.7650259
v 0.0500417 0.222117 -0.373311
vn -0.05156573 0.7650254 -0.6419323
v 0.0827286 0.194352 -0.350014
v -0.00097429 0.194352 -0.350014
v 0.0500417 0.166587 -0.326716
vn -0.05156492 -0.7650254 0.6419324
v 0.0500417 0.217649 -0.322249
vn -0.05156553 0.6419324 0.7650254
vt 0.397671 0.162458
vt 0.373353 0.529576
vt 0.53201 0.529576
vt 0.234536 0.529576
vt 0.507692 0.162458
vt 0.31953 0.170935
vt 0.670828 0.529576
vt 0.394256 0.0519081
vt 0.585834 0.170935
vt 0.511108 0.0519082
v 0 0.223504 0.0738325
vt 0.52273 0.434217
vn 0 -0.8851574 0.4652917
vt 0.972564 0.428913
vt 0.991789 0.367621
v -0.130522 0.273401 0.0837829
vt 0.436755 0.548451
vn -0.5710573 -0.5837643 0.5771593
v 0.130522 0.273401 0.0837829
vn 0.5716491 -0.5822571 0.5780951
vt 0.972564 0.56759
v -0.136475 0.343079 0.0863323
vt 0.414727 0.778281
vn -0.7128192 -0.04677641 0.6997862
vt 0.959608 0.801637
v -0.133427 0.385143 0.0852668
vt 0.423933 0.918513
vn -0.5231321 0.101138 0.8462292
v 0.135873 0.343079 0.0863323
vn 0.7123753 -0.05220712 0.6998543
vt 0.968814 1.07901
vt 0.433139 1.05132
v 0.134342 0.385143 0.0852669
vn 0.5255273 0.1002101 0.8448545
v 0 0.269513 0.134792
vt 0.456535 0.579386
vn -7.14853E-05 -0.600128 0.799904
vt 0.39165 0.581319
vt 0.456535 0.556514
v -0.0652611 0.302331 0.122166
vt 0.424092 0.595701
vn -0.3637161 -0.1729831 0.9153073
vt 0.521421 0.581319
v 0.0652611 0.302331 0.122166
vt 0.488978 0.595701
vn 0.3567668 -0.1953769 0.9135345
vt 0.386605 0.616183
v -0.0645726 0.336943 0.12007
vt 0.42157 0.613133
vn -0.3952779 0.130377 0.9092619
vt 0.526465 0.616183
v 0.0760966 0.336943 0.12007
vt 0.4915 0.613133
vn 0.40723 0.187981 0.8937711
v 8.81612E-05 0.351502 0.144599
vt 0.00476056 0.515724
vn 0.0004888499 0.06106249 0.9981338
vt 0.243869 0.359392
vt 0.00476056 0.276026
vt 0.260439 0.482611
v 0 0.189163 -0.363644
vt 0.288315 0.979484
vt 0.241518 0.647981
v -0.0126384 0.200545 -0.35815
vt 0.19472 0.979484
vn -0.9928994 0.06384203 0.100374
vt 0.288315 0.647981
vt 0.335113 0.647981
v 0.0126384 0.200545 -0.35815
vt 0.381911 0.979484
vn 0.9928993 0.06384213 0.100375
v 0 0.211926 -0.352656
vn 0 0.7579452 0.6523182
o merged_0_0_node
g polygon_0
usemtl HIYAPPU_twoleg_mat_body_mat_id
f 1/1/1 2/2/2 3/3/3
f 1/1/1 4/4/4 2/2/2
f 1/1/1 3/3/3 5/5/5
f 1/1/1 6/6/6 4/4/4
f 1/1/1 5/5/5 7/7/7
f 1/1/1 8/8/8 6/6/6
f 1/1/1 7/7/7 9/9/9
f 1/1/1 10/10/10 8/8/8
f 1/1/1 9/9/9 11/11/11
f 1/1/1 12/12/12 10/10/10
f 1/1/1 11/11/11 13/13/13
f 1/1/1 14/14/14 12/12/12
f 1/1/1 13/13/13 15/15/15
f 1/1/1 16/16/16 14/14/14
f 1/1/1 15/15/15 17/17/17
f 1/1/1 17/17/17 16/16/16
f 6/6/6 8/8/8 18/1/18
f 18/1/18 8/8/8 10/10/10
f 18/1/18 10/10/10 12/12/12
f 18/1/18 15/15/15 13/13/13
f 18/1/18 12/12/12 14/14/14
f 18/1/18 16/16/16 17/17/17
f 18/1/18 17/17/17 15/15/15
f 18/1/18 14/14/14 16/16/16
f 19/18/19 20/19/20 21/20/21
f 19/18/19 22/21/22 20/19/20
f 19/18/19 21/20/21 23/22/23
f 19/18/19 24/23/24 22/21/22
f 19/18/19 23/22/23 25/24/25
f 19/18/19 26/25/26 24/23/24
f 19/18/19 25/24/25 27/26/27
f 19/18/19 27/26/27 26/25/26
f 20/19/20 22/21/22 28/27/28
f 20/19/20 28/27/28 29/28/29
f 20/19/20 29/28/29 30/29/30
f 22/21/22 24/23/24 28/27/28
f 23/22/23 31/30/31 25/24/25
f 23/22/23 32/31/32 31/30/31
f 25/24/25 31/30/31 27/26/27
f 26/25/26 33/32/33 24/23/24
f 26/25/26 27/26/27 33/32/33
f 29/28/29 34/33/34 30/29/30
f 29/28/29 28/27/28 35/34/35
f 29/28/29 36/35/36 34/33/34
f 29/28/29 35/34/35 37/36/37
f 29/28/29 37/36/37 36/35/36
f 28/27/28 24/23/24 35/34/35
f 32/31/32 38/37/38 31/30/31
f 27/26/27 39/38/39 33/32/33
f 27/26/27 31/30/31 39/38/39
f 30/29/30 34/33/34 40/39/40
f 37/36/37 41/40/41 36/35/36
f 37/36/37 35/34/35 42/41/42
f 37/36/37 42/41/42 41/40/41
f 24/23/24 33/32/33 43/42/43
f 24/23/24 43/42/43 35/34/35
f 35/34/35 43/42/43 42/41/42
f 38/37/38 44/43/44 31/30/31
f 38/37/38 45/44/45 44/43/44
f 38/37/38 46/45/46 45/44/45
f 38/37/38 47/46/47 46/45/46
f 39/38/39 48/47/48 33/32/33
f 39/38/39 31/30/31 48/47/48
f 44/43/44 45/44/45 48/47/48
f 44/43/44 48/47/48 31/30/31
f 33/32/33 48/47/48 43/42/43
f 34/33/34 49/48/49 40/39/40
f 34/33/34 36/35/36 50/49/50
f 34/33/34 50/49/50 49/48/49
f 41/40/41 42/41/42 51/50/51
f 41/40/41 52/51/52 36/35/36
f 41/40/41 51/50/51 53/52/53
f 41/40/41 53/52/53 52/51/52
f 36/35/36 52/51/52 50/49/50
f 47/46/47 54/53/54 46/45/46
f 47/46/47 55/54/55 54/53/54
f 45/44/45 56/55/56 48/47/48
f 45/44/45 46/45/46 56/55/56
f 56/55/56 43/42/43 48/47/48
f 56/55/56 42/41/42 43/42/43
f 56/55/56 46/45/46 51/50/51
f 56/55/56 51/50/51 42/41/42
f 46/45/46 53/52/53 51/50/51
f 46/45/46 54/53/54 53/52/53
f 49/48/49 50/49/50 57/56/57
f 52/51/52 53/52/53 58/57/58
f 52/51/52 59/58/59 50/49/50
f 52/51/52 58/57/58 59/58/59
f 59/58/59 57/56/57 50/49/50
f 59/58/59 58/57/58 57/56/57
f 53/52/53 54/53/54 58/57/58
f 55/54/55 60/59/60 54/53/54
f 60/59/60 57/56/57 58/57/58
f 60/59/60 58/57/58 54/53/54
f 18/60/18 3/61/3 2/62/2
f 18/60/18 5/63/5 3/61/3
f 18/60/18 2/62/2 4/64/4
f 18/60/18 7/65/7 5/63/5
f 18/60/18 4/64/4 6/66/6
f 18/60/18 9/67/9 7/65/7
f 18/60/18 11/68/11 9/67/9
f 18/60/18 13/69/13 11/68/11
f 61/70/61 62/71/62 63/72/63
f 61/70/61 64/73/64 62/71/62
f 61/70/61 63/72/63 65/74/65
f 61/70/61 66/75/66 64/73/64
f 61/70/61 65/74/65 67/76/67
f 61/70/61 67/76/67 66/75/66
f 63/72/63 68/77/68 65/74/65
f 67/76/67 69/78/69 66/75/66
f 67/76/67 65/74/65 70/79/70
f 67/76/67 71/80/71 69/78/69
f 67/76/67 70/79/70 71/80/71
f 70/79/70 65/74/65 68/77/68
f 69/78/69 71/80/71 72/81/72
f 71/80/71 73/82/73 72/81/72
f 74/83/74 75/84/75 76/85/76
f 74/83/74 77/86/77 75/84/75
f 74/83/74 76/85/76 78/87/78
f 74/83/74 79/84/79 77/86/77
f 74/83/74 78/87/78 80/85/80
f 74/83/74 80/85/80 79/84/79
f 75/84/75 77/86/77 81/88/81
f 81/88/81 77/86/77 79/84/79
f 76/85/76 82/89/82 78/87/78
f 78/87/78 82/89/82 80/85/80
f 83/90/83 84/91/84 85/92/85
f 83/90/83 86/93/86 84/91/84
f 83/90/83 85/92/85 87/94/87
f 83/90/83 88/95/88 86/93/86
f 83/90/83 87/94/87 89/96/89
f 83/90/83 89/96/89 88/95/88
f 84/91/84 90/97/90 85/92/85
f 84/91/84 91/98/91 90/97/90
f 85/92/85 90/97/90 87/94/87
f 86/93/86 88/95/88 92/99/92
f 86/93/86 92/99/92 93/100/93
f 86/93/86 93/100/93 91/101/91
f 86/93/86 91/101/91 84/102/84
f 89/96/89 87/94/87 94/103/94
f 89/96/89 94/103/94 88/104/88
f 90/97/90 95/105/95 87/94/87
f 87/94/87 95/105/95 94/103/94
f 88/104/88 94/103/94 92/106/92
f 94/103/94 95/105/95 92/106/92
f 95/105/95 93/107/93 92/106/92
f 96/90/96 97/92/97 98/91/98
f 96/90/96 99/94/99 97/92/97
f 96/90/96 98/91/98 100/93/100
f 96/90/96 101/96/101 99/94/99
f 96/90/96 100/93/100 102/95/102
f 96/90/96 102/95/102 101/96/101
f 97/92/97 103/97/103 98/91/98
f 97/92/97 99/94/99 103/97/103
f 100/93/100 104/99/104 102/95/102
f 100/93/100 105/100/105 104/99/104
f 100/93/100 106/101/106 105/100/105
f 100/93/100 98/102/98 106/101/106
f 101/96/101 107/103/107 99/94/99
f 101/96/101 102/104/102 107/103/107
f 98/91/98 103/97/103 106/98/106
f 99/94/99 107/103/107 108/105/108
f 99/94/99 108/105/108 103/97/103
f 102/104/102 104/106/104 107/103/107
f 107/103/107 104/106/104 108/105/108
f 104/106/104 105/107/105 108/105/108
f 109/108/109 71/109/71 70/110/70
f 109/108/109 73/111/73 71/109/71
f 109/108/109 70/110/70 68/112/68
f 109/108/109 68/112/68 73/111/73
f 110/108/110 66/110/66 69/109/69
f 110/108/110 64/112/64 66/110/66
f 110/108/110 69/109/69 72/111/72
f 110/108/110 72/111/72 64/112/64
f 111/113/111 112/114/112 113/115/113
f 111/113/111 114/116/114 112/114/112
f 111/113/111 113/115/113 115/117/1
f 111/113/111 115/117/1 114/116/114
f 115/117/1 113/115/113 112/114/112
f 115/117/1 112/114/112 114/116/114
f 116/118/115 117/119/116 118/120/117
f 116/118/115 119/121/118 117/119/116
f 116/118/115 118/120/117 120/122/119
f 116/118/115 120/122/119 119/121/118
f 121/123/120 122/124/121 123/125/122
f 121/123/120 124/126/123 122/124/121
f 121/123/120 123/125/122 125/124/25
f 121/123/120 125/124/25 124/126/123
f 122/124/121 126/127/124 123/125/122
f 122/124/121 124/126/123 126/127/124
f 126/127/124 125/124/25 123/125/122
f 126/127/124 124/126/123 125/124/25
f 127/123/125 128/124/126 129/125/127
f 127/123/125 130/126/11 128/124/126
f 127/123/125 129/125/127 131/124/128
f 127/123/125 131/124/128 130/126/11
f 128/124/126 132/127/129 129/125/127
f 128/124/126 130/126/11 132/127/129
f 132/127/129 131/124/128 129/125/127
f 132/127/129 130/126/11 131/124/128
f 133/123/130 134/124/131 135/125/11
f 133/123/130 136/126/127 134/124/131
f 133/123/130 135/125/11 137/124/132
f 133/123/130 137/124/132 136/126/127
f 134/124/131 138/127/133 135/125/11
f 134/124/131 136/126/127 138/127/133
f 138/127/133 137/124/132 135/125/11
f 138/127/133 136/126/127 137/124/132
f 62/128/62 76/129/76 75/130/75
f 62/128/62 82/131/82 76/129/76
f 62/128/62 75/130/75 63/132/63
f 62/128/62 64/133/64 82/131/82
f 75/130/75 81/134/81 63/132/63
f 64/133/64 80/129/80 82/131/82
f 64/133/64 72/135/72 80/129/80
f 81/134/81 68/136/68 63/132/63
f 81/134/81 79/130/79 68/136/68
f 72/135/72 73/137/73 80/129/80
f 73/137/73 68/136/68 79/130/79
f 73/137/73 79/130/79 80/129/80
f 139/138/134 49/139/49 57/140/57
f 139/138/134 140/141/135 49/139/49
f 139/138/134 57/140/57 60/139/60
f 139/138/134 60/139/60 141/141/136
f 140/141/135 40/142/40 49/139/49
f 140/141/135 142/143/137 40/142/40
f 60/139/60 55/142/55 141/141/136
f 142/143/137 30/144/30 40/142/40
f 142/143/137 143/145/138 30/144/30
f 55/142/55 144/143/139 141/141/136
f 55/142/55 47/144/47 144/143/139
f 143/145/138 20/146/20 30/144/30
f 143/145/138 21/147/21 20/146/20
f 47/144/47 145/145/140 144/143/139
f 47/144/47 38/146/38 145/145/140
f 38/146/38 32/147/32 145/145/140
f 146/148/141 140/149/135 139/150/134
f 146/148/141 147/151/142 140/149/135
f 146/148/141 139/150/134 141/152/136
f 146/148/141 141/152/136 148/153/143
f 147/151/142 142/154/137 140/149/135
f 147/151/142 149/155/144 142/154/137
f 141/152/136 144/156/139 148/153/143
f 144/156/139 150/157/145 148/153/143
f 151/158/146 147/159/142 146/160/141
f 151/158/146 149/161/144 147/159/142
f 151/158/146 146/160/141 148/159/143
f 151/158/146 148/159/143 150/161/145
f 152/162/121 120/163/119 153/164/147
f 152/162/121 119/165/118 120/163/119
f 152/162/121 117/166/116 119/165/118
f 152/162/121 154/167/148 117/166/116
f 153/164/147 120/163/119 118/165/117
f 153/164/147 118/165/117 155/162/149
f 118/165/117 154/167/148 155/162/149
f 118/165/117 117/166/116 154/167/148
vt 0.955154 0.767812
vt 0.0583413 0.788545
vt 0.928544 0.871354
vt 0.522068 0.752709
vt 0.0583413 0.974896
vt 0.872365 0.974896
o merged_1_0_node
g polygon_0
usemtl TEX_ANIM_EYE_mat_id
f 142/168/137 151/169/146 143/170/138
f 145/170/140 151/169/146 144/168/139
f 151/169/146 150/171/145 144/168/139
f 151/169/146 142/168/137 149/171/144
f 151/169/146 145/170/140 23/172/23
f 23/172/23 145/170/140 32/173/32
f 151/169/146 23/172/23 143/170/138
f 143/170/138 23/172/23 21/173/21
