ply
format ascii 1.0
element vertex 751
property float x
property float y
property float z
property uchar red
property uchar green
property uchar blue
element face 858
property list uchar int vertex_index
end_header
0.87625 -0.50957 0.18174 141 201 124
0.87625 0.36566 0.18174 141 201 124
0.87625 0.36566 0.00937 141 201 124
0.87625 -0.50957 0.00937 141 201 124
0.83123 -0.56578 0.18197 141 201 124
0.83123 -0.56578 0.00937 141 201 124
0.58094 -0.56578 0.18197 141 201 124
0.58094 -0.56578 0.00937 141 201 124
0.83123 0.42188 0.00937 141 201 124
0.58094 0.42188 0.00937 141 201 124
0.58094 0.42188 0.18197 141 201 124
0.83123 0.42188 0.18197 141 201 124
0.79603 -0.52048 0.21699 141 201 124
0.58094 -0.52048 0.21699 141 201 124
0.83123 -0.47607 0.21699 141 201 124
0.83123 0.33096 0.21699 141 201 124
0.79603 0.3782 0.21699 141 201 124
0.58094 0.3782 0.21699 141 201 124
0.58094 0.3782 0.21699 147 208 131
0.79603 0.3782 0.21699 147 208 131
0.79603 -0.52048 0.21699 147 208 131
0.58094 -0.52048 0.21699 147 208 131
0.83123 -0.47607 0.21699 147 208 131
0.83123 0.33096 0.21699 147 208 131
0.4545 1.23924 0.00937 141 201 124
-0.4545 1.23924 0.00937 141 201 124
-0.4545 0.78956 0.00937 141 201 124
0.4545 0.78956 0.00937 141 201 124
0.4545 1.23924 0.25258 141 201 124
0.4545 0.78956 0.25258 141 201 124
0.37572 1.31222 0.25258 141 201 124
0.37572 1.31222 0.00937 141 201 124
-0.37572 1.31222 0.00937 141 201 124
-0.4545 1.23924 0.25258 141 201 124
-0.4545 0.78956 0.25258 141 201 124
-0.37572 1.31222 0.25258 141 201 124
0.4027 1.20712 0.29566 141 201 124
0.3488 1.25703 0.29566 141 201 124
0.4027 0.78954 0.29566 141 201 124
-0.3488 1.25703 0.29566 141 201 124
-0.4027 1.20712 0.29566 141 201 124
-0.4027 0.78954 0.29566 141 201 124
0.4027 1.20712 0.29566 147 208 131
0.4027 0.78954 0.29566 147 208 131
-0.4027 0.78954 0.29566 147 208 131
-0.4027 1.20712 0.29566 147 208 131
-0.3488 1.25703 0.29566 147 208 131
0.3488 1.25703 0.29566 147 208 131
-0.19679 -0.67519 1.26033 69 65 70
-0.19679 -0.67519 1.31095 69 65 70
-0.15043 -0.67519 1.31095 69 65 70
-0.15043 -0.67519 1.26033 69 65 70
-0.27768 -0.67519 1.33508 255 255 255
-0.27768 -0.653 1.33508 255 255 255
-0.11743 -0.653 1.33508 255 255 255
-0.11743 -0.67519 1.33508 255 255 255
-0.11743 -0.67519 1.16009 255 255 255
-0.11743 -0.653 1.16009 255 255 255
-0.27768 -0.653 1.16009 255 255 255
-0.27768 -0.67519 1.16009 255 255 255
-0.15043 -0.67519 1.26033 255 255 255
-0.19679 -0.67519 1.26033 255 255 255
-0.15043 -0.67519 1.31095 255 255 255
-0.19679 -0.67519 1.31095 255 255 255
0.19679 -0.67519 1.26033 69 65 70
0.15043 -0.67519 1.26033 69 65 70
0.15043 -0.67519 1.31095 69 65 70
0.19679 -0.67519 1.31095 69 65 70
0.27768 -0.67519 1.33508 255 255 255
0.11743 -0.67519 1.33508 255 255 255
0.11743 -0.653 1.33508 255 255 255
0.27768 -0.653 1.33508 255 255 255
0.11743 -0.67519 1.16009 255 255 255
0.11743 -0.653 1.16009 255 255 255
0.27768 -0.653 1.16009 255 255 255
0.27768 -0.67519 1.16009 255 255 255
0.15043 -0.67519 1.26033 255 255 255
0.19679 -0.67519 1.26033 255 255 255
0.15043 -0.67519 1.31095 255 255 255
0.19679 -0.67519 1.31095 255 255 255
0.75054 -0.78294 0 141 201 124
0.6753 -0.84594 0 141 201 124
0.6753 -0.84594 0.32031 141 201 124
0.75054 -0.78294 0.32031 141 201 124
0.75054 1.04079 0.32031 141 201 124
0.75054 1.04079 0 141 201 124
0.70152 -0.76403 0.36146 141 201 124
0.66091 -0.80573 0.36146 141 201 124
0.70152 1.00817 0.36146 141 201 124
-0.75054 -0.78294 0 141 201 124
-0.6753 -0.84594 0 141 201 124
-0.6753 -0.84594 0.32031 141 201 124
-0.75054 -0.78294 0.32031 141 201 124
-0.70152 -0.76403 0.36146 141 201 124
-0.66091 -0.80573 0.36146 141 201 124
-0.75054 1.04079 0 141 201 124
-0.67781 1.10024 0 141 201 124
-0.75054 1.04079 0.32031 141 201 124
-0.67781 1.10024 0.32031 141 201 124
-0.70152 1.00817 0.36146 141 201 124
-0.65423 1.05466 0.36146 141 201 124
0.67781 1.10024 0 141 201 124
0.67781 1.10024 0.32031 141 201 124
0.65423 1.05466 0.36146 141 201 124
0.53934 0.69041 0.36146 147 208 131
0.48431 0.76085 0.36146 147 208 131
0.70152 1.00817 0.36146 147 208 131
-0.48431 0.76085 0.36146 147 208 131
-0.70152 1.00817 0.36146 147 208 131
-0.53934 0.69041 0.36146 147 208 131
-0.70152 -0.76403 0.36146 147 208 131
-0.53934 -0.60337 0.36146 147 208 131
0.65423 1.05466 0.36146 147 208 131
-0.65423 1.05466 0.36146 147 208 131
-0.50042 -0.65297 0.36146 147 208 131
0.70152 -0.76403 0.36146 147 208 131
0.50042 -0.65297 0.36146 147 208 131
0.53934 -0.60337 0.36146 147 208 131
-0.66091 -0.80573 0.36146 147 208 131
0.66091 -0.80573 0.36146 147 208 131
0.43454 -0.65297 0.60244 141 201 124
0.50042 -0.65297 0.55606 141 201 124
0.50042 -0.65297 0.36146 141 201 124
0.24483 -0.65297 0.59971 141 201 124
0.24627 -0.65297 1.08854 141 201 124
0.35285 -0.65297 1.0837 141 201 124
0.43454 -0.65297 1.04714 141 201 124
0.47347 -0.60337 0.60244 141 201 124
0.53934 -0.60337 0.55606 141 201 124
-0.50042 -0.65297 0.36146 141 201 124
-0.24483 -0.65297 0.59971 141 201 124
0.47347 -0.60337 1.04714 141 201 124
0.53934 -0.60337 0.36146 141 201 124
0.39178 -0.60337 1.0837 141 201 124
0.39181 -0.60337 1.19421 141 201 124
0.35288 -0.65297 1.19421 141 201 124
0.47347 0.13329 1.04714 141 201 124
0.39182 0.07215 1.0837 141 201 124
-0.43454 -0.65297 0.60244 141 201 124
-0.50042 -0.65297 0.55606 141 201 124
-0.24627 -0.65297 1.08854 141 201 124
-0.35285 -0.65297 1.0837 141 201 124
-0.43454 -0.65297 1.04714 141 201 124
-0.27488 -0.65297 1.15269 141 201 124
-0.47347 -0.60337 0.60244 141 201 124
-0.53934 -0.60337 0.55606 141 201 124
-0.47347 -0.60337 1.04714 141 201 124
-0.53934 -0.60337 0.36146 141 201 124
-0.39178 -0.60337 1.0837 141 201 124
-0.39185 -0.60337 1.38079 141 201 124
-0.35293 -0.65297 1.38079 141 201 124
0.03683 -0.65297 1.19421 141 201 124
0.03683 -0.65297 1.30004 141 201 124
-0.39182 0.07215 1.0837 141 201 124
-0.39185 0.07178 1.38079 141 201 124
-0.47347 0.13329 1.04714 141 201 124
-0.35232 -0.56141 1.41918 141 201 124
-0.3082 -0.61948 1.41918 141 201 124
0.35293 -0.65297 1.38079 141 201 124
0.31361 -0.61948 1.41918 141 201 124
0.35232 -0.56141 1.41918 141 201 124
0.39185 -0.60337 1.38079 141 201 124
0.3529 -0.65297 1.30004 141 201 124
0.39183 -0.60337 1.30004 141 201 124
0.39184 0.07188 1.30004 141 201 124
0.39185 0.07178 1.38079 141 201 124
0.35232 0.02691 1.41918 141 201 124
0.3445 0.13284 1.38079 141 201 124
0.34451 0.13304 1.30004 141 201 124
0.12244 0.13304 1.30004 141 201 124
-0.3445 0.13284 1.38079 141 201 124
0.31323 0.08497 1.41918 141 201 124
-0.3094 0.08497 1.41918 141 201 124
-0.35232 0.02691 1.41918 141 201 124
-0.34452 0.13357 1.0837 141 201 124
-0.42937 0.1959 1.04714 141 201 124
-0.42937 0.1959 0.60244 141 201 124
-0.47347 0.13329 0.60244 141 201 124
-0.31011 0.1959 0.84161 141 201 124
-0.31011 0.1959 0.60244 141 201 124
0.42937 0.1959 1.04714 141 201 124
-0.26454 0.1959 0.87532 141 201 124
0.26454 0.1959 0.87532 141 201 124
0.31011 0.1959 0.84161 141 201 124
0.42937 0.1959 0.60244 141 201 124
0.47347 0.13329 0.60244 141 201 124
0.34452 0.13357 1.0837 141 201 124
0.31011 0.1959 0.60244 141 201 124
0.26454 0.31491 0.87532 141 201 124
0.31011 0.34441 0.84161 141 201 124
0.26464 0.40779 0.84098 141 201 124
0.26464 0.40779 0.60244 141 201 124
-0.26464 0.40779 0.60244 141 201 124
-0.26464 0.40779 0.84098 141 201 124
0.31013 0.34451 0.60244 141 201 124
0.22535 0.36964 0.87532 141 201 124
0.53934 0.69045 0.55606 141 201 124
0.47337 0.66222 0.60244 141 201 124
0.48431 0.76085 0.55581 141 201 124
0.43938 0.70239 0.60244 141 201 124
0.53934 0.69041 0.36146 141 201 124
0.48431 0.76085 0.36146 141 201 124
-0.48431 0.76085 0.36146 141 201 124
-0.48431 0.76085 0.55581 141 201 124
-0.53934 0.69041 0.36146 141 201 124
-0.53934 0.69045 0.55606 141 201 124
-0.47337 0.66222 0.60244 141 201 124
-0.43938 0.70239 0.60244 141 201 124
-0.24483 -0.52837 0.59971 57 49 61
-0.24627 -0.52837 1.08854 57 49 61
-0.22123 -0.52837 1.06535 57 49 61
-0.24627 -0.65297 1.08854 57 49 61
-0.22073 -0.65297 1.06535 57 49 61
0.22123 -0.52837 1.06535 57 49 61
0.22073 -0.65297 1.06535 57 49 61
0.24627 -0.65297 1.08854 57 49 61
0.24627 -0.52837 1.08854 57 49 61
0.24483 -0.52837 0.59971 57 49 61
0.24483 -0.65297 0.59971 57 49 61
-0.24483 -0.65297 0.59971 57 49 61
0.35232 -0.56141 1.41918 147 208 131
0.29201 -0.45771 1.41918 147 208 131
0.29201 -0.08115 1.41918 147 208 131
0.35232 0.02691 1.41918 147 208 131
0.21848 -0.52469 1.41918 147 208 131
0.21788 -0.01417 1.41918 147 208 131
0.31323 0.08497 1.41918 147 208 131
-0.3094 0.08497 1.41918 147 208 131
-0.21384 -0.01417 1.41918 147 208 131
-0.35232 0.02691 1.41918 147 208 131
-0.29201 -0.08115 1.41918 147 208 131
-0.35232 -0.56141 1.41918 147 208 131
-0.29201 -0.45771 1.41918 147 208 131
0.29201 -0.45771 1.41918 141 201 124
0.26645 -0.4314 1.47844 141 201 124
0.26645 -0.10729 1.47844 141 201 124
0.29201 -0.08115 1.41918 141 201 124
0.21848 -0.52469 1.41918 141 201 124
0.19939 -0.49534 1.47844 141 201 124
-0.19465 -0.49534 1.47844 141 201 124
-0.21362 -0.52469 1.41918 141 201 124
-0.26645 -0.4314 1.47844 141 201 124
-0.29201 -0.45771 1.41918 141 201 124
-0.19465 -0.04335 1.47844 141 201 124
-0.26645 -0.10729 1.47844 141 201 124
-0.29201 -0.08115 1.41918 141 201 124
-0.21384 -0.01417 1.41918 141 201 124
0.19939 -0.04335 1.47844 141 201 124
0.21788 -0.01417 1.41918 141 201 124
0 -0.72868 1.06537 141 201 124
-0.22073 -0.72868 1.06535 141 201 124
-0.24347 -0.72868 1.15269 141 201 124
-0.22073 -0.65297 1.06535 141 201 124
0.24347 -0.72868 1.15269 141 201 124
0.22073 -0.72868 1.06535 141 201 124
0.22073 -0.65297 1.06535 141 201 124
0.27488 -0.65297 1.15269 141 201 124
0.24347 -0.72868 1.15269 147 208 131
-0.24347 -0.72868 1.15269 147 208 131
-0.27488 -0.65297 1.15269 147 208 131
0.27488 -0.65297 1.15269 147 208 131
0.47337 0.66222 0.60244 147 208 131
0.31013 0.34451 0.60244 147 208 131
0.26464 0.40779 0.60244 147 208 131
0.31011 0.1959 0.60244 147 208 131
0.42937 0.1959 0.60244 147 208 131
0.47347 0.13329 0.60244 147 208 131
-0.26464 0.40779 0.60244 147 208 131
-0.47337 0.66222 0.60244 147 208 131
0.43938 0.70239 0.60244 147 208 131
-0.43938 0.70239 0.60244 147 208 131
-0.31011 0.34441 0.84161 141 201 124
-0.31013 0.34451 0.60244 141 201 124
-0.26454 0.31491 0.87532 141 201 124
-0.22535 0.36964 0.87532 141 201 124
-0.31013 0.34451 0.60244 147 208 131
-0.31011 0.1959 0.60244 147 208 131
-0.42937 0.1959 0.60244 147 208 131
-0.47347 0.13329 0.60244 147 208 131
-0.19465 -0.49534 1.47844 147 208 131
-0.26645 -0.4314 1.47844 147 208 131
-0.26645 -0.10729 1.47844 147 208 131
-0.19465 -0.04335 1.47844 147 208 131
0.19939 -0.49534 1.47844 147 208 131
0.19939 -0.04335 1.47844 147 208 131
0.26454 0.31491 0.87532 147 208 131
0.26454 0.1959 0.87532 147 208 131
-0.26454 0.1959 0.87532 147 208 131
-0.26454 0.31491 0.87532 147 208 131
-0.22535 0.36964 0.87532 147 208 131
0.22535 0.36964 0.87532 147 208 131
-0.25622 -0.59842 0.5828 136 144 171
-0.25622 -0.59842 0.89681 136 144 171
0.25622 -0.59842 0.89681 136 144 171
0.25622 -0.59842 0.5828 136 144 171
0.25622 -0.51105 0.89681 136 144 171
-0.25622 -0.51105 0.89681 136 144 171
-0.58258 -0.68405 0.43569 104 168 113
-0.61228 -0.65149 0.43569 104 168 113
0.61181 -0.65149 0.43569 104 168 113
0.58209 -0.68405 0.43569 104 168 113
0.66474 -0.6656 0.39557 104 168 113
0.61085 -0.7223 0.39557 104 168 113
0.66474 -0.6656 0.34931 104 168 113
0.61085 -0.7223 0.34931 104 168 113
-0.61085 -0.7223 0.39557 104 168 113
-0.61085 -0.7223 0.34931 104 168 113
-0.66522 -0.6656 0.39557 104 168 113
-0.66522 -0.6656 0.34931 104 168 113
0.61181 0.81527 0.43569 104 168 113
0.66474 0.84638 0.39557 104 168 113
-0.61228 0.81527 0.43569 104 168 113
0.56427 0.86743 0.43569 104 168 113
0.60945 0.91584 0.39533 104 168 113
-0.56474 0.86743 0.43569 104 168 113
-0.66522 0.84638 0.39557 104 168 113
-0.60992 0.91584 0.39533 104 168 113
0.60945 0.91584 0.34931 104 168 113
-0.60992 0.91584 0.34931 104 168 113
0.66474 0.84638 0.34931 104 168 113
-0.66522 0.84638 0.34931 104 168 113
-0.60992 0.91584 0.34931 141 201 124
-0.66522 0.84638 0.34931 141 201 124
0.66474 0.84638 0.34931 141 201 124
0.60945 0.91584 0.34931 141 201 124
-0.3918 0.17818 0.69781 104 168 113
-0.3918 0.45653 0.69781 104 168 113
0.39071 0.45653 0.69781 104 168 113
0.39071 0.17818 0.69781 104 168 113
-0.42965 0.17818 0.66604 104 168 113
-0.42965 0.46832 0.66604 104 168 113
-0.37212 0.54319 0.66594 104 168 113
-0.35342 0.50466 0.69781 104 168 113
0.42855 0.17818 0.66604 104 168 113
0.42855 0.46832 0.66604 104 168 113
0.42855 0.17818 0.59247 104 168 113
0.42855 0.46832 0.59247 104 168 113
0.37103 0.54319 0.66594 104 168 113
0.37103 0.54319 0.59247 104 168 113
-0.37212 0.54319 0.59247 104 168 113
0.35232 0.50466 0.69781 104 168 113
-0.42965 0.46832 0.59247 104 168 113
-0.42965 0.17818 0.59247 104 168 113
0.26645 -0.10729 1.47844 147 208 131
0.26645 -0.4314 1.47844 147 208 131
-0.21362 -0.52469 1.41918 147 208 131
-0.3082 -0.61948 1.41918 147 208 131
0.31361 -0.61948 1.41918 147 208 131
0.34451 0.13304 1.30004 104 168 113
0.34451 0.1333 1.19421 104 168 113
0.39183 0.07201 1.19421 104 168 113
0.39184 0.07188 1.30004 104 168 113
0.12244 0.1333 1.19421 104 168 113
0.12244 0.13304 1.30004 104 168 113
0.39181 -0.60337 1.19421 104 168 113
0.39183 -0.60337 1.30004 104 168 113
0.35288 -0.65297 1.19421 104 168 113
0.3529 -0.65297 1.30004 104 168 113
0.03683 -0.65297 1.19421 104 168 113
0.03683 -0.65297 1.30004 104 168 113
0.34451 0.1333 1.19421 141 201 124
0.39183 0.07201 1.19421 141 201 124
0.12244 0.1333 1.19421 141 201 124
-0.87625 -0.50957 0.18174 141 201 124
-0.87625 -0.50957 0.00937 141 201 124
-0.87625 0.36566 0.00937 141 201 124
-0.87625 0.36566 0.18174 141 201 124
-0.83123 -0.56578 0.18197 141 201 124
-0.83123 -0.56578 0.00937 141 201 124
-0.58094 -0.56578 0.18197 141 201 124
-0.58094 -0.56578 0.00937 141 201 124
-0.83123 0.42188 0.00937 141 201 124
-0.58094 0.42188 0.00937 141 201 124
-0.58094 0.42188 0.18197 141 201 124
-0.83123 0.42188 0.18197 141 201 124
-0.79603 -0.52048 0.21699 141 201 124
-0.58094 -0.52048 0.21699 141 201 124
-0.83123 -0.47607 0.21699 141 201 124
-0.83123 0.33096 0.21699 141 201 124
-0.79603 0.3782 0.21699 141 201 124
-0.58094 0.3782 0.21699 141 201 124
-0.58094 0.3782 0.21699 147 208 131
-0.58094 -0.52048 0.21699 147 208 131
-0.79603 -0.52048 0.21699 147 208 131
-0.79603 0.3782 0.21699 147 208 131
-0.83123 -0.47607 0.21699 147 208 131
-0.83123 0.33096 0.21699 147 208 131
0.36337 -0.33006 0.57595 104 168 113
0.36337 -0.37357 0.61865 104 168 113
0.51111 -0.37357 0.61865 104 168 113
0.54625 -0.33006 0.57595 104 168 113
0.36337 -0.02223 0.57595 104 168 113
0.54604 -0.02223 0.57595 104 168 113
0.51111 -0.37357 0.94236 104 168 113
0.36337 -0.37357 0.94236 104 168 113
0.36337 0.02463 0.61865 104 168 113
0.54611 0.02463 0.61865 104 168 113
0.36337 -0.33006 0.98423 104 168 113
0.36337 -0.02223 0.98423 104 168 113
0.54604 -0.02223 0.98423 104 168 113
0.54625 -0.33006 0.98423 104 168 113
0.54611 0.02463 0.94236 104 168 113
0.36337 0.02463 0.94236 104 168 113
0.91536 -0.07779 0.98423 147 208 131
0.59813 -0.38744 0.98423 147 208 131
0.54625 -0.33006 0.98423 147 208 131
0.86478 -0.02223 0.98423 147 208 131
0.91536 -0.38769 0.98423 147 208 131
0.54604 -0.02223 0.98423 147 208 131
0.91536 -0.07779 0.57595 141 201 124
0.96222 -0.03917 0.61865 141 201 124
0.89825 0.02463 0.61865 141 201 124
0.86478 -0.02223 0.57595 141 201 124
0.96222 -0.38769 0.61865 141 201 124
0.91536 -0.38769 0.57595 141 201 124
0.59813 -0.38744 0.57595 141 201 124
0.54625 -0.33006 0.57595 141 201 124
0.89825 0.02463 0.94236 141 201 124
0.96222 -0.03917 0.94236 141 201 124
0.96222 -0.38769 0.94236 141 201 124
0.55629 -0.42258 0.61865 141 201 124
0.51111 -0.37357 0.61865 141 201 124
0.55629 -0.42258 0.94236 141 201 124
0.51111 -0.37357 0.94236 141 201 124
0.54604 -0.02223 0.57595 141 201 124
0.54611 0.02463 0.61865 141 201 124
0.54611 0.02463 0.94236 141 201 124
0.86478 -0.02223 0.98423 141 201 124
0.91536 -0.07779 0.98423 141 201 124
0.91536 -0.38769 0.98423 141 201 124
0.54604 -0.02223 0.98423 141 201 124
0.59813 -0.38744 0.98423 104 168 113
0.59813 -0.53662 0.98423 104 168 113
0.55629 -0.53662 0.94236 104 168 113
0.55629 -0.42258 0.94236 104 168 113
0.91536 -0.38769 0.98423 104 168 113
0.91536 -0.53662 0.98423 104 168 113
0.55629 -0.53662 0.61865 104 168 113
0.55629 -0.42258 0.61865 104 168 113
0.96222 -0.38769 0.94236 104 168 113
0.96222 -0.53662 0.94236 104 168 113
0.54625 -0.33006 0.98423 141 201 124
0.59813 -0.38744 0.98423 141 201 124
0.55629 -0.98525 0.94236 141 201 124
0.55629 -0.98525 0.61865 141 201 124
0.55629 -0.8591 0.61865 141 201 124
0.55629 -0.8591 0.94236 141 201 124
0.59813 -0.8591 0.57595 141 201 124
0.59813 -0.94145 0.57595 141 201 124
0.59813 -1.03194 0.61865 141 201 124
0.59813 -1.03194 0.94236 141 201 124
0.59813 -0.94144 0.98423 141 201 124
0.59813 -0.8591 0.98423 141 201 124
0.63441 -0.98525 0.98423 141 201 124
0.91536 -1.03194 0.94236 141 201 124
0.91536 -1.03194 0.61865 141 201 124
0.96222 -0.98525 0.94236 141 201 124
0.91536 -0.94144 0.98423 141 201 124
0.91536 -0.8591 0.98423 141 201 124
0.96222 -0.8591 0.94236 141 201 124
0.96222 -0.98525 0.61865 141 201 124
0.96222 -0.8591 0.61865 141 201 124
0.87908 -0.98525 0.98423 141 201 124
0.91536 -0.38769 0.57595 104 168 113
0.91536 -0.53662 0.57595 104 168 113
0.96222 -0.53662 0.61865 104 168 113
0.96222 -0.38769 0.61865 104 168 113
0.59813 -0.38744 0.57595 104 168 113
0.59813 -0.53662 0.57595 104 168 113
0.59813 -0.53662 0.98423 141 201 124
0.59813 -0.69689 0.98423 141 201 124
0.55629 -0.69689 0.94236 141 201 124
0.55629 -0.53662 0.94236 141 201 124
0.55629 -0.69689 0.61865 141 201 124
0.55629 -0.53662 0.61865 141 201 124
0.91536 -0.53662 0.98423 147 208 131
0.91536 -0.69689 0.98423 147 208 131
0.59813 -0.69689 0.98423 147 208 131
0.59813 -0.53662 0.98423 147 208 131
0.91536 -0.53662 0.57595 141 201 124
0.91536 -0.69689 0.57595 141 201 124
0.96222 -0.69689 0.61865 141 201 124
0.96222 -0.53662 0.61865 141 201 124
0.59813 -0.53662 0.57595 141 201 124
0.59813 -0.69689 0.57595 141 201 124
0.96222 -0.69689 0.94236 141 201 124
0.96222 -0.53662 0.94236 141 201 124
0.91536 -0.69689 0.98423 141 201 124
0.91536 -0.53662 0.98423 141 201 124
0.59813 -0.69689 0.98423 104 168 113
0.59813 -0.8591 0.98423 104 168 113
0.55629 -0.8591 0.94236 104 168 113
0.55629 -0.69689 0.94236 104 168 113
0.91536 -0.69689 0.98423 104 168 113
0.91536 -0.8591 0.98423 104 168 113
0.96222 -0.69689 0.94236 104 168 113
0.96222 -0.8591 0.94236 104 168 113
0.96222 -0.69689 0.61865 104 168 113
0.96222 -0.8591 0.61865 104 168 113
0.91536 -0.69689 0.57595 104 168 113
0.91536 -0.8591 0.57595 104 168 113
0.59813 -0.69689 0.57595 104 168 113
0.59813 -0.8591 0.57595 104 168 113
0.55629 -0.69689 0.61865 104 168 113
0.55629 -0.8591 0.61865 104 168 113
0.91536 -0.94144 0.98423 147 208 131
0.87908 -0.98525 0.98423 147 208 131
0.63441 -0.98525 0.98423 147 208 131
0.59813 -0.94144 0.98423 147 208 131
0.91536 -0.8591 0.98423 147 208 131
0.59813 -0.8591 0.98423 147 208 131
0.91536 -0.8591 0.57595 141 201 124
0.91536 -0.94145 0.57595 141 201 124
0.87968 -0.98525 0.57595 141 201 124
0.63381 -0.98525 0.57595 141 201 124
0.70738 -1.17049 0.8076 141 201 124
0.70738 -1.17049 0.93303 141 201 124
0.80428 -1.17049 0.93303 141 201 124
0.80428 -1.17049 0.8076 141 201 124
0.69311 -1.14826 0.8076 141 201 124
0.81854 -1.14826 0.8076 141 201 124
0.69311 -1.02283 0.8076 141 201 124
0.81854 -1.02283 0.8076 141 201 124
0.81854 -1.14826 0.93303 141 201 124
0.81854 -1.02283 0.93303 141 201 124
0.69311 -1.14826 0.93303 147 208 131
0.69311 -1.02283 0.93303 147 208 131
0.81854 -1.02283 0.93303 147 208 131
0.81854 -1.14826 0.93303 147 208 131
0.70738 -1.17049 0.93303 147 208 131
0.80428 -1.17049 0.93303 147 208 131
0.69311 -1.02283 0.93303 141 201 124
0.69311 -1.14826 0.93303 141 201 124
0.62358 -1.17049 0.62893 141 201 124
0.62358 -1.17049 0.75436 141 201 124
0.72048 -1.17049 0.75436 141 201 124
0.72048 -1.17049 0.62893 141 201 124
0.60931 -1.14826 0.62893 141 201 124
0.73474 -1.14826 0.62893 141 201 124
0.60931 -1.02283 0.62893 141 201 124
0.73474 -1.02283 0.62893 141 201 124
0.73474 -1.14826 0.75436 141 201 124
0.73474 -1.02283 0.75436 141 201 124
0.60931 -1.14826 0.75436 147 208 131
0.60931 -1.02283 0.75436 147 208 131
0.73474 -1.02283 0.75436 147 208 131
0.73474 -1.14826 0.75436 147 208 131
0.62358 -1.17049 0.75436 147 208 131
0.72048 -1.17049 0.75436 147 208 131
0.60931 -1.02283 0.75436 141 201 124
0.60931 -1.14826 0.75436 141 201 124
0.79481 -1.17049 0.62893 141 201 124
0.79481 -1.17049 0.75436 141 201 124
0.8917 -1.17049 0.75436 141 201 124
0.8917 -1.17049 0.62893 141 201 124
0.78054 -1.14826 0.62893 141 201 124
0.90597 -1.14826 0.62893 141 201 124
0.78054 -1.02283 0.62893 141 201 124
0.90597 -1.02283 0.62893 141 201 124
0.90597 -1.14826 0.75436 141 201 124
0.90597 -1.02283 0.75436 141 201 124
0.78054 -1.14826 0.75436 147 208 131
0.78054 -1.02283 0.75436 147 208 131
0.90597 -1.02283 0.75436 147 208 131
0.90597 -1.14826 0.75436 147 208 131
0.79481 -1.17049 0.75436 147 208 131
0.8917 -1.17049 0.75436 147 208 131
0.78054 -1.02283 0.75436 141 201 124
0.78054 -1.14826 0.75436 141 201 124
-0.36337 -0.33006 0.57595 104 168 113
-0.54625 -0.33006 0.57595 104 168 113
-0.51111 -0.37357 0.61865 104 168 113
-0.36337 -0.37357 0.61865 104 168 113
-0.36337 -0.02223 0.57595 104 168 113
-0.54604 -0.02223 0.57595 104 168 113
-0.51111 -0.37357 0.94236 104 168 113
-0.36337 -0.37357 0.94236 104 168 113
-0.36337 0.02463 0.61865 104 168 113
-0.54611 0.02463 0.61865 104 168 113
-0.36337 -0.33006 0.98423 104 168 113
-0.54625 -0.33006 0.98423 104 168 113
-0.54604 -0.02223 0.98423 104 168 113
-0.36337 -0.02223 0.98423 104 168 113
-0.54611 0.02463 0.94236 104 168 113
-0.36337 0.02463 0.94236 104 168 113
-0.91536 -0.07779 0.98423 147 208 131
-0.86478 -0.02223 0.98423 147 208 131
-0.54625 -0.33006 0.98423 147 208 131
-0.59813 -0.38744 0.98423 147 208 131
-0.91536 -0.38769 0.98423 147 208 131
-0.54604 -0.02223 0.98423 147 208 131
-0.91536 -0.07779 0.57595 141 201 124
-0.86478 -0.02223 0.57595 141 201 124
-0.89825 0.02463 0.61865 141 201 124
-0.96222 -0.03917 0.61865 141 201 124
-0.96222 -0.38769 0.61865 141 201 124
-0.91536 -0.38769 0.57595 141 201 124
-0.59813 -0.38744 0.57595 141 201 124
-0.54625 -0.33006 0.57595 141 201 124
-0.89825 0.02463 0.94236 141 201 124
-0.96222 -0.03917 0.94236 141 201 124
-0.96222 -0.38769 0.94236 141 201 124
-0.55629 -0.42258 0.61865 141 201 124
-0.51111 -0.37357 0.61865 141 201 124
-0.55629 -0.42258 0.94236 141 201 124
-0.51111 -0.37357 0.94236 141 201 124
-0.54604 -0.02223 0.57595 141 201 124
-0.54611 0.02463 0.61865 141 201 124
-0.54611 0.02463 0.94236 141 201 124
-0.86478 -0.02223 0.98423 141 201 124
-0.91536 -0.07779 0.98423 141 201 124
-0.91536 -0.38769 0.98423 141 201 124
-0.54604 -0.02223 0.98423 141 201 124
-0.59813 -0.38744 0.98423 104 168 113
-0.55629 -0.42258 0.94236 104 168 113
-0.55629 -0.53662 0.94236 104 168 113
-0.59813 -0.53662 0.98423 104 168 113
-0.91536 -0.38769 0.98423 104 168 113
-0.91536 -0.53662 0.98423 104 168 113
-0.55629 -0.53662 0.61865 104 168 113
-0.55629 -0.42258 0.61865 104 168 113
-0.96222 -0.38769 0.94236 104 168 113
-0.96222 -0.53662 0.94236 104 168 113
-0.54625 -0.33006 0.98423 141 201 124
-0.59813 -0.38744 0.98423 141 201 124
-0.55629 -0.98525 0.94236 141 201 124
-0.55629 -0.8591 0.94236 141 201 124
-0.55629 -0.8591 0.61865 141 201 124
-0.55629 -0.98525 0.61865 141 201 124
-0.59813 -0.8591 0.57595 141 201 124
-0.59813 -0.94145 0.57595 141 201 124
-0.59813 -1.03194 0.61865 141 201 124
-0.59813 -1.03194 0.94236 141 201 124
-0.59813 -0.94144 0.98423 141 201 124
-0.59813 -0.8591 0.98423 141 201 124
-0.63441 -0.98525 0.98423 141 201 124
-0.91536 -1.03194 0.94236 141 201 124
-0.91536 -1.03194 0.61865 141 201 124
-0.96222 -0.98525 0.94236 141 201 124
-0.91536 -0.94144 0.98423 141 201 124
-0.91536 -0.8591 0.98423 141 201 124
-0.96222 -0.8591 0.94236 141 201 124
-0.96222 -0.98525 0.61865 141 201 124
-0.96222 -0.8591 0.61865 141 201 124
-0.87908 -0.98525 0.98423 141 201 124
-0.91536 -0.38769 0.57595 104 168 113
-0.96222 -0.38769 0.61865 104 168 113
-0.96222 -0.53662 0.61865 104 168 113
-0.91536 -0.53662 0.57595 104 168 113
-0.59813 -0.38744 0.57595 104 168 113
-0.59813 -0.53662 0.57595 104 168 113
-0.59813 -0.53662 0.98423 141 201 124
-0.55629 -0.53662 0.94236 141 201 124
-0.55629 -0.69689 0.94236 141 201 124
-0.59813 -0.69689 0.98423 141 201 124
-0.55629 -0.69689 0.61865 141 201 124
-0.55629 -0.53662 0.61865 141 201 124
-0.91536 -0.53662 0.98423 147 208 131
-0.59813 -0.53662 0.98423 147 208 131
-0.59813 -0.69689 0.98423 147 208 131
-0.91536 -0.69689 0.98423 147 208 131
-0.91536 -0.53662 0.57595 141 201 124
-0.96222 -0.53662 0.61865 141 201 124
-0.96222 -0.69689 0.61865 141 201 124
-0.91536 -0.69689 0.57595 141 201 124
-0.59813 -0.53662 0.57595 141 201 124
-0.59813 -0.69689 0.57595 141 201 124
-0.96222 -0.69689 0.94236 141 201 124
-0.96222 -0.53662 0.94236 141 201 124
-0.91536 -0.69689 0.98423 141 201 124
-0.91536 -0.53662 0.98423 141 201 124
-0.59813 -0.69689 0.98423 104 168 113
-0.55629 -0.69689 0.94236 104 168 113
-0.55629 -0.8591 0.94236 104 168 113
-0.59813 -0.8591 0.98423 104 168 113
-0.91536 -0.69689 0.98423 104 168 113
-0.91536 -0.8591 0.98423 104 168 113
-0.96222 -0.69689 0.94236 104 168 113
-0.96222 -0.8591 0.94236 104 168 113
-0.96222 -0.69689 0.61865 104 168 113
-0.96222 -0.8591 0.61865 104 168 113
-0.91536 -0.69689 0.57595 104 168 113
-0.91536 -0.8591 0.57595 104 168 113
-0.59813 -0.69689 0.57595 104 168 113
-0.59813 -0.8591 0.57595 104 168 113
-0.55629 -0.69689 0.61865 104 168 113
-0.55629 -0.8591 0.61865 104 168 113
-0.91536 -0.94144 0.98423 147 208 131
-0.59813 -0.94144 0.98423 147 208 131
-0.63441 -0.98525 0.98423 147 208 131
-0.87908 -0.98525 0.98423 147 208 131
-0.91536 -0.8591 0.98423 147 208 131
-0.59813 -0.8591 0.98423 147 208 131
-0.91536 -0.8591 0.57595 141 201 124
-0.91536 -0.94145 0.57595 141 201 124
-0.87968 -0.98525 0.57595 141 201 124
-0.63381 -0.98525 0.57595 141 201 124
-0.70738 -1.17049 0.8076 141 201 124
-0.80428 -1.17049 0.8076 141 201 124
-0.80428 -1.17049 0.93303 141 201 124
-0.70738 -1.17049 0.93303 141 201 124
-0.69311 -1.14826 0.8076 141 201 124
-0.81854 -1.14826 0.8076 141 201 124
-0.69311 -1.02283 0.8076 141 201 124
-0.81854 -1.02283 0.8076 141 201 124
-0.81854 -1.14826 0.93303 141 201 124
-0.81854 -1.02283 0.93303 141 201 124
-0.69311 -1.14826 0.93303 147 208 131
-0.81854 -1.14826 0.93303 147 208 131
-0.81854 -1.02283 0.93303 147 208 131
-0.69311 -1.02283 0.93303 147 208 131
-0.70738 -1.17049 0.93303 147 208 131
-0.80428 -1.17049 0.93303 147 208 131
-0.69311 -1.14826 0.93303 141 201 124
-0.69311 -1.02283 0.93303 141 201 124
-0.62358 -1.17049 0.62893 141 201 124
-0.72048 -1.17049 0.62893 141 201 124
-0.72048 -1.17049 0.75436 141 201 124
-0.62358 -1.17049 0.75436 141 201 124
-0.60931 -1.14826 0.62893 141 201 124
-0.73474 -1.14826 0.62893 141 201 124
-0.60931 -1.02283 0.62893 141 201 124
-0.73474 -1.02283 0.62893 141 201 124
-0.73474 -1.14826 0.75436 141 201 124
-0.73474 -1.02283 0.75436 141 201 124
-0.60931 -1.14826 0.75436 147 208 131
-0.73474 -1.14826 0.75436 147 208 131
-0.73474 -1.02283 0.75436 147 208 131
-0.60931 -1.02283 0.75436 147 208 131
-0.62358 -1.17049 0.75436 147 208 131
-0.72048 -1.17049 0.75436 147 208 131
-0.60931 -1.14826 0.75436 141 201 124
-0.60931 -1.02283 0.75436 141 201 124
-0.79481 -1.17049 0.62893 141 201 124
-0.8917 -1.17049 0.62893 141 201 124
-0.8917 -1.17049 0.75436 141 201 124
-0.79481 -1.17049 0.75436 141 201 124
-0.78054 -1.14826 0.62893 141 201 124
-0.90597 -1.14826 0.62893 141 201 124
-0.78054 -1.02283 0.62893 141 201 124
-0.90597 -1.02283 0.62893 141 201 124
-0.90597 -1.14826 0.75436 141 201 124
-0.90597 -1.02283 0.75436 141 201 124
-0.78054 -1.14826 0.75436 147 208 131
-0.90597 -1.14826 0.75436 147 208 131
-0.90597 -1.02283 0.75436 147 208 131
-0.78054 -1.02283 0.75436 147 208 131
-0.79481 -1.17049 0.75436 147 208 131
-0.8917 -1.17049 0.75436 147 208 131
-0.78054 -1.14826 0.75436 141 201 124
-0.78054 -1.02283 0.75436 141 201 124
3 0 2 1
3 0 3 2
3 4 3 0
3 4 5 3
3 5 2 3
3 6 5 4
3 6 7 5
3 7 8 5
3 5 8 2
3 8 1 2
3 7 9 8
3 8 9 10
3 8 10 11
3 8 11 1
3 12 6 4
3 12 13 6
3 12 4 0
3 12 0 14
3 1 14 0
3 1 15 14
3 16 15 1
3 16 1 11
3 10 16 11
3 10 17 16
3 18 20 19
3 18 21 20
3 19 20 22
3 19 22 23
3 24 26 25
3 24 27 26
3 28 27 24
3 28 29 27
3 30 28 24
3 30 24 31
3 31 24 25
3 31 25 32
3 33 25 26
3 33 26 34
3 35 25 33
3 35 32 25
3 36 30 37
3 36 28 30
3 38 28 36
3 38 29 28
3 37 30 35
3 30 32 35
3 30 31 32
3 37 35 39
3 40 39 35
3 40 35 33
3 41 40 33
3 41 33 34
3 42 44 43
3 42 45 44
3 42 46 45
3 42 47 46
3 48 50 49
3 48 51 50
3 52 54 53
3 52 55 54
3 56 54 55
3 56 57 54
3 58 57 56
3 58 52 53
3 58 56 59
3 58 59 52
3 59 56 60
3 59 60 61
3 52 59 61
3 56 62 60
3 56 55 62
3 55 63 62
3 55 52 63
3 52 61 63
3 64 66 65
3 64 67 66
3 68 70 69
3 68 71 70
3 72 69 70
3 72 70 73
3 74 72 73
3 74 71 68
3 74 75 72
3 74 68 75
3 75 76 72
3 75 77 76
3 68 77 75
3 72 78 69
3 72 76 78
3 69 79 68
3 69 78 79
3 68 79 77
3 80 82 81
3 80 83 82
3 84 83 80
3 84 80 85
3 82 83 86
3 82 86 87
3 88 83 84
3 88 86 83
3 81 89 80
3 81 90 89
3 89 90 91
3 91 81 82
3 91 90 81
3 89 91 92
3 91 93 92
3 91 94 93
3 82 94 91
3 82 87 94
3 85 80 89
3 85 89 95
3 96 85 95
3 97 96 95
3 97 98 96
3 98 97 99
3 99 97 92
3 99 92 93
3 98 99 100
3 98 101 96
3 96 101 85
3 84 85 101
3 84 101 102
3 98 102 101
3 102 88 84
3 102 103 88
3 98 103 102
3 98 100 103
3 89 97 95
3 89 92 97
3 104 106 105
3 107 105 106
3 107 106 108
3 109 107 108
3 110 109 108
3 110 111 109
3 108 106 112
3 108 112 113
3 110 114 111
3 115 114 110
3 115 116 114
3 115 117 116
3 115 110 118
3 115 118 119
3 115 104 117
3 115 106 104
3 120 122 121
3 123 122 120
3 124 123 120
3 125 124 120
3 125 120 126
3 121 127 120
3 121 128 127
3 122 128 121
3 129 122 123
3 129 123 130
3 120 131 126
3 120 127 131
3 122 132 128
3 126 133 125
3 126 131 133
3 125 133 134
3 125 134 135
3 133 131 136
3 133 136 137
3 130 138 129
3 138 139 129
3 140 138 130
3 141 138 140
3 141 142 138
3 143 141 140
3 139 138 144
3 139 144 145
3 138 146 144
3 138 142 146
3 129 139 145
3 129 145 147
3 142 148 146
3 142 141 148
3 141 149 148
3 141 150 149
3 150 141 143
3 151 150 143
3 151 152 150
3 149 153 148
3 149 154 153
3 148 155 146
3 148 153 155
3 150 156 149
3 150 157 156
3 158 157 150
3 158 150 152
3 158 159 157
3 158 160 159
3 158 161 160
3 162 161 158
3 158 152 162
3 162 163 161
3 161 163 164
3 161 164 165
3 166 165 167
3 165 168 167
3 165 164 168
3 167 168 169
3 167 169 170
3 160 165 166
3 160 161 165
3 171 167 170
3 166 167 171
3 171 170 172
3 172 170 173
3 173 170 154
3 154 170 174
3 174 170 169
3 154 174 153
3 153 174 155
3 174 175 155
3 155 175 176
3 155 176 177
3 178 176 175
3 178 179 176
3 180 175 174
3 180 181 175
3 181 178 175
3 180 182 181
3 182 180 183
3 183 180 184
3 136 184 180
3 136 185 184
3 186 136 180
3 180 174 186
3 183 184 187
3 188 182 183
3 188 183 189
3 188 189 190
3 189 191 190
3 190 191 192
3 190 192 193
3 189 194 191
3 188 190 195
3 137 136 186
3 131 185 136
3 131 127 185
3 127 128 185
3 185 128 196
3 185 196 197
3 197 196 198
3 197 198 199
3 198 196 200
3 198 200 201
3 198 201 202
3 198 202 203
3 199 198 203
3 128 200 196
3 128 132 200
3 203 202 204
3 203 204 205
3 206 203 205
3 177 206 205
3 145 205 204
3 145 204 147
3 177 205 145
3 144 177 145
3 146 177 144
3 146 155 177
3 207 203 206
3 199 203 207
3 208 210 209
3 211 209 210
3 208 209 211
3 211 210 212
3 213 212 210
3 213 214 212
3 215 214 213
3 215 213 216
3 215 216 217
3 217 210 208
3 217 213 210
3 217 216 213
3 218 217 208
3 215 217 218
3 218 208 219
3 208 211 219
3 220 222 221
3 220 223 222
3 221 224 220
3 222 223 225
3 225 223 226
3 225 226 227
3 225 227 228
3 228 227 229
3 228 229 230
3 231 230 229
3 231 232 230
3 233 235 234
3 233 236 235
3 234 237 233
3 234 238 237
3 237 238 239
3 237 239 240
3 240 239 241
3 240 241 242
3 243 245 244
3 243 246 245
3 242 244 245
3 242 241 244
3 247 246 243
3 247 248 246
3 235 248 247
3 235 236 248
3 249 251 250
3 251 140 250
3 250 140 252
3 252 249 250
3 251 143 140
3 249 253 251
3 254 253 249
3 255 254 249
3 255 249 252
3 253 254 124
3 124 254 255
3 253 124 256
3 125 256 124
3 135 256 125
3 135 143 256
3 135 151 143
3 257 259 258
3 257 260 259
3 261 263 262
3 261 262 264
3 261 264 265
3 261 265 266
3 263 268 267
3 263 261 268
3 268 261 269
3 268 269 270
3 187 189 183
3 187 194 189
3 271 192 272
3 271 193 192
3 273 193 271
3 273 271 178
3 273 178 181
3 273 274 193
3 190 193 274
3 190 274 195
3 179 178 271
3 179 271 272
3 268 275 267
3 268 276 275
3 268 277 276
3 268 278 277
3 279 281 280
3 279 282 281
3 283 282 279
3 283 284 282
3 156 154 149
3 156 173 154
3 285 287 286
3 285 288 287
3 285 289 288
3 285 290 289
3 291 293 292
3 291 294 293
3 292 293 295
3 292 295 296
3 297 299 298
3 297 300 299
3 300 301 299
3 300 302 301
3 302 300 297
3 302 303 301
3 302 304 303
3 302 297 305
3 305 304 302
3 305 306 304
3 307 306 305
3 297 307 305
3 297 298 307
3 307 308 306
3 301 309 299
3 298 299 309
3 301 310 309
3 298 309 311
3 312 309 310
3 311 309 312
3 312 310 313
3 314 312 313
3 311 312 314
3 314 315 311
3 314 316 315
3 314 313 316
3 316 313 317
3 316 317 318
3 318 315 316
3 313 319 317
3 313 310 319
3 303 319 310
3 303 310 301
3 318 320 315
3 307 315 320
3 311 315 307
3 307 320 308
3 311 307 298
3 321 323 322
3 321 324 323
3 325 327 326
3 325 328 327
3 326 329 325
3 326 330 329
3 331 330 326
3 331 326 332
3 333 327 328
3 333 334 327
3 335 334 333
3 335 336 334
3 337 327 334
3 337 334 336
3 331 337 338
3 337 336 338
3 331 338 339
3 339 330 331
3 337 340 327
3 331 340 337
3 331 332 340
3 326 340 332
3 326 327 340
3 339 341 330
3 329 330 341
3 329 341 342
3 343 283 344
3 343 284 283
3 231 345 232
3 346 345 231
3 220 224 347
3 347 224 345
3 347 345 346
3 348 350 349
3 348 351 350
3 352 348 349
3 352 353 348
3 351 354 350
3 351 355 354
3 356 354 355
3 356 355 357
3 357 358 356
3 357 359 358
3 360 137 186
3 360 361 137
3 174 360 186
3 174 362 360
3 174 169 362
3 361 133 137
3 361 134 133
3 363 365 364
3 363 366 365
3 367 363 364
3 367 364 368
3 368 364 365
3 369 367 368
3 369 368 370
3 370 368 371
3 368 365 371
3 371 365 366
3 370 371 372
3 371 373 372
3 371 374 373
3 371 366 374
3 375 369 376
3 375 367 369
3 375 363 367
3 375 377 363
3 366 363 377
3 366 377 378
3 379 366 378
3 379 374 366
3 373 374 379
3 373 379 380
3 381 383 382
3 381 384 383
3 384 385 383
3 384 386 385
3 387 389 388
3 387 390 389
3 391 390 387
3 391 392 390
3 388 389 393
3 388 393 394
3 395 392 391
3 395 396 392
3 397 399 398
3 397 400 399
3 398 399 401
3 398 401 402
3 394 400 397
3 394 393 400
3 402 401 396
3 402 396 395
3 403 405 404
3 403 406 405
3 403 404 407
3 408 405 406
3 409 411 410
3 409 412 411
3 409 410 413
3 409 413 414
3 415 409 414
3 409 416 412
3 409 415 416
3 410 411 417
3 410 417 418
3 419 410 418
3 419 413 410
3 420 416 415
3 420 421 416
3 422 421 420
3 422 423 421
3 424 411 412
3 416 424 412
3 424 425 411
3 425 417 411
3 425 426 417
3 426 427 417
3 418 417 427
3 418 427 428
3 429 418 428
3 429 419 418
3 426 430 427
3 431 433 432
3 431 434 433
3 435 431 432
3 435 432 436
3 437 433 434
3 437 434 438
3 436 439 435
3 436 440 439
3 441 422 442
3 441 423 422
3 443 445 444
3 443 446 445
3 444 445 447
3 444 447 448
3 448 449 444
3 443 444 449
3 443 449 450
3 450 451 443
3 452 443 451
3 452 446 443
3 450 453 451
3 454 453 450
3 454 450 449
3 454 449 455
3 456 454 455
3 457 454 456
3 456 458 457
3 456 459 458
3 460 459 456
3 456 455 460
3 460 461 459
3 457 462 454
3 454 462 453
3 463 465 464
3 463 466 465
3 467 463 464
3 467 464 468
3 468 438 467
3 468 437 438
3 440 465 466
3 440 466 439
3 469 471 470
3 469 472 471
3 473 471 472
3 473 472 474
3 475 477 476
3 475 478 477
3 479 481 480
3 479 482 481
3 483 479 480
3 483 480 484
3 484 474 483
3 484 473 474
3 485 481 482
3 485 482 486
3 487 486 488
3 487 485 486
3 489 491 490
3 489 492 491
3 493 489 490
3 493 490 494
3 494 495 493
3 494 496 495
3 496 497 495
3 496 498 497
3 499 498 500
3 499 497 498
3 501 499 500
3 501 500 502
3 502 503 501
3 502 504 503
3 504 492 503
3 504 491 492
3 505 507 506
3 505 508 507
3 509 508 505
3 509 510 508
3 511 460 512
3 511 461 460
3 455 512 460
3 455 513 512
3 448 512 513
3 448 513 514
3 513 449 514
3 513 455 449
3 448 514 449
3 447 512 448
3 447 511 512
3 515 517 516
3 515 518 517
3 519 518 515
3 519 520 518
3 521 520 519
3 521 522 520
3 520 517 518
3 520 523 517
3 520 524 523
3 520 522 524
3 525 527 526
3 525 528 527
3 528 525 529
3 528 529 530
3 521 532 531
3 521 519 532
3 532 519 515
3 532 515 516
3 533 535 534
3 533 536 535
3 537 536 533
3 537 538 536
3 539 538 537
3 539 540 538
3 538 535 536
3 538 541 535
3 538 542 541
3 538 540 542
3 543 545 544
3 543 546 545
3 546 543 547
3 546 547 548
3 539 550 549
3 539 537 550
3 550 537 533
3 550 533 534
3 551 553 552
3 551 554 553
3 555 554 551
3 555 556 554
3 557 556 555
3 557 558 556
3 556 553 554
3 556 559 553
3 556 560 559
3 556 558 560
3 561 563 562
3 561 564 563
3 564 561 565
3 564 565 566
3 557 568 567
3 557 555 568
3 568 555 551
3 568 551 552
3 569 571 570
3 569 572 571
3 573 569 570
3 573 570 574
3 572 575 571
3 572 576 575
3 577 573 574
3 577 574 578
3 579 581 580
3 579 582 581
3 582 583 581
3 582 584 583
3 576 579 580
3 576 580 575
3 584 578 583
3 584 577 578
3 585 587 586
3 585 588 587
3 585 589 588
3 590 586 587
3 591 593 592
3 591 594 593
3 591 595 594
3 591 596 595
3 597 596 591
3 591 598 597
3 591 592 598
3 594 599 593
3 594 600 599
3 601 594 595
3 601 600 594
3 602 597 598
3 602 598 603
3 604 602 603
3 604 603 605
3 606 592 593
3 598 592 606
3 606 593 607
3 607 593 599
3 607 599 608
3 608 599 609
3 600 609 599
3 600 610 609
3 611 610 600
3 611 600 601
3 608 609 612
3 613 615 614
3 613 616 615
3 617 616 613
3 617 618 616
3 619 614 615
3 619 620 614
3 618 617 621
3 618 621 622
3 623 604 605
3 623 624 604
3 625 627 626
3 625 628 627
3 628 629 627
3 628 630 629
3 630 628 631
3 625 631 628
3 625 632 631
3 632 625 633
3 634 633 625
3 634 625 626
3 632 633 635
3 636 632 635
3 636 631 632
3 636 637 631
3 638 637 636
3 639 638 636
3 638 639 640
3 638 640 641
3 642 638 641
3 638 642 637
3 642 641 643
3 639 636 644
3 636 635 644
3 645 647 646
3 645 648 647
3 649 648 645
3 649 650 648
3 650 649 620
3 650 620 619
3 622 646 647
3 622 621 646
3 651 653 652
3 651 654 653
3 655 652 653
3 655 656 652
3 657 659 658
3 657 660 659
3 661 663 662
3 661 664 663
3 665 664 661
3 665 666 664
3 666 665 656
3 666 656 655
3 667 662 663
3 667 668 662
3 669 668 667
3 669 670 668
3 671 673 672
3 671 674 673
3 675 674 671
3 675 676 674
3 676 675 677
3 676 677 678
3 678 677 679
3 678 679 680
3 681 680 679
3 681 682 680
3 683 682 681
3 683 684 682
3 684 683 685
3 684 685 686
3 686 685 672
3 686 672 673
3 687 689 688
3 687 690 689
3 691 687 688
3 691 688 692
3 693 642 643
3 693 694 642
3 637 642 694
3 637 694 695
3 630 695 694
3 630 696 695
3 695 631 637
3 695 696 631
3 630 631 696
3 629 694 693
3 629 630 694
3 697 699 698
3 697 700 699
3 701 697 698
3 701 698 702
3 703 701 702
3 703 702 704
3 702 698 699
3 702 699 705
3 702 705 706
3 702 706 704
3 707 709 708
3 707 710 709
3 708 711 707
3 708 712 711
3 703 713 701
3 703 714 713
3 713 697 701
3 713 700 697
3 715 717 716
3 715 718 717
3 719 715 716
3 719 716 720
3 721 719 720
3 721 720 722
3 720 716 717
3 720 717 723
3 720 723 724
3 720 724 722
3 725 727 726
3 725 728 727
3 726 729 725
3 726 730 729
3 721 731 719
3 721 732 731
3 731 715 719
3 731 718 715
3 733 735 734
3 733 736 735
3 737 733 734
3 737 734 738
3 739 737 738
3 739 738 740
3 738 734 735
3 738 735 741
3 738 741 742
3 738 742 740
3 743 745 744
3 743 746 745
3 744 747 743
3 744 748 747
3 739 749 737
3 739 750 749
3 749 733 737
3 749 736 733
