ply
format ascii 1.0
element vertex 747
property float x
property float y
property float z
property uchar red
property uchar green
property uchar blue
element face 858
property list uchar int vertex_index
end_header
0.87625 -0.50957 0.18174 189 161 201
0.87625 0.36566 0.18174 189 161 201
0.87625 0.36566 0.00937 189 161 201
0.87625 -0.50957 0.00937 189 161 201
0.83123 -0.56578 0.18197 189 161 201
0.83123 -0.56578 0.00937 189 161 201
0.58094 -0.56578 0.18197 189 161 201
0.58094 -0.56578 0.00937 189 161 201
0.83123 0.42188 0.00937 189 161 201
0.58094 0.42188 0.00937 189 161 201
0.58094 0.42188 0.18197 189 161 201
0.83123 0.42188 0.18197 189 161 201
0.79603 -0.52048 0.21699 189 161 201
0.58094 -0.52048 0.21699 189 161 201
0.83123 -0.47607 0.21699 189 161 201
0.83123 0.33096 0.21699 189 161 201
0.79603 0.3782 0.21699 189 161 201
0.58094 0.3782 0.21699 189 161 201
0.58094 0.3782 0.21699 195 166 207
0.79603 0.3782 0.21699 195 166 207
0.79603 -0.52048 0.21699 195 166 207
0.58094 -0.52048 0.21699 195 166 207
0.83123 -0.47607 0.21699 195 166 207
0.83123 0.33096 0.21699 195 166 207
0.4545 1.23924 0.00937 189 161 201
-0.4545 1.23924 0.00937 189 161 201
-0.4545 0.78956 0.00937 189 161 201
0.4545 0.78956 0.00937 189 161 201
0.4545 1.23924 0.25258 189 161 201
0.4545 0.78956 0.25258 189 161 201
0.37572 1.31222 0.25258 189 161 201
0.37572 1.31222 0.00937 189 161 201
-0.37572 1.31222 0.00937 189 161 201
-0.4545 1.23924 0.25258 189 161 201
-0.4545 0.78956 0.25258 189 161 201
-0.37572 1.31222 0.25258 189 161 201
0.4027 1.20712 0.29566 189 161 201
0.3488 1.25703 0.29566 189 161 201
0.4027 0.78954 0.29566 189 161 201
-0.3488 1.25703 0.29566 189 161 201
-0.4027 1.20712 0.29566 189 161 201
-0.4027 0.78954 0.29566 189 161 201
0.4027 1.20712 0.29566 195 166 207
0.4027 0.78954 0.29566 195 166 207
-0.4027 0.78954 0.29566 195 166 207
-0.4027 1.20712 0.29566 195 166 207
-0.3488 1.25703 0.29566 195 166 207
0.3488 1.25703 0.29566 195 166 207
-0.19679 -0.67519 1.26033 69 65 71
-0.19679 -0.67519 1.31095 69 65 71
-0.15043 -0.67519 1.31095 69 65 71
-0.15043 -0.67519 1.26033 69 65 71
-0.27768 -0.67519 1.33508 247 242 248
-0.27768 -0.653 1.33508 247 242 248
-0.11743 -0.653 1.33508 247 242 248
-0.11743 -0.67519 1.33508 247 242 248
-0.11743 -0.67519 1.16009 247 242 248
-0.11743 -0.653 1.16009 247 242 248
-0.27768 -0.653 1.16009 247 242 248
-0.27768 -0.67519 1.16009 247 242 248
-0.15043 -0.67519 1.26033 247 242 248
-0.19679 -0.67519 1.26033 247 242 248
-0.15043 -0.67519 1.31095 247 242 248
-0.19679 -0.67519 1.31095 247 242 248
0.19679 -0.67519 1.26033 69 65 71
0.15043 -0.67519 1.26033 69 65 71
0.15043 -0.67519 1.31095 69 65 71
0.19679 -0.67519 1.31095 69 65 71
0.27768 -0.67519 1.33508 247 242 248
0.11743 -0.67519 1.33508 247 242 248
0.11743 -0.653 1.33508 247 242 248
0.27768 -0.653 1.33508 247 242 248
0.11743 -0.67519 1.16009 247 242 248
0.11743 -0.653 1.16009 247 242 248
0.27768 -0.653 1.16009 247 242 248
0.27768 -0.67519 1.16009 247 242 248
0.15043 -0.67519 1.26033 247 242 248
0.19679 -0.67519 1.26033 247 242 248
0.15043 -0.67519 1.31095 247 242 248
0.19679 -0.67519 1.31095 247 242 248
0.75054 -0.78294 0 189 161 201
0.6753 -0.84594 0 189 161 201
0.6753 -0.84594 0.32031 189 161 201
0.75054 -0.78294 0.32031 189 161 201
0.75054 1.04079 0.32031 189 161 201
0.75054 1.04079 0 189 161 201
0.70152 -0.76403 0.36146 189 161 201
0.66091 -0.80573 0.36146 189 161 201
0.70152 1.00817 0.36146 189 161 201
-0.75054 -0.78294 0 189 161 201
-0.6753 -0.84594 0 189 161 201
-0.6753 -0.84594 0.32031 189 161 201
-0.75054 -0.78294 0.32031 189 161 201
-0.70152 -0.76403 0.36146 189 161 201
-0.66091 -0.80573 0.36146 189 161 201
-0.75054 1.04079 0 189 161 201
-0.67781 1.10024 0 189 161 201
-0.75054 1.04079 0.32031 189 161 201
-0.67781 1.10024 0.32031 189 161 201
-0.70152 1.00817 0.36146 189 161 201
-0.65423 1.05466 0.36146 189 161 201
0.67781 1.10024 0 189 161 201
0.67781 1.10024 0.32031 189 161 201
0.65423 1.05466 0.36146 189 161 201
0.53934 0.69041 0.36146 195 166 207
0.48431 0.76085 0.36146 195 166 207
0.70152 1.00817 0.36146 195 166 207
-0.48431 0.76085 0.36146 195 166 207
-0.70152 1.00817 0.36146 195 166 207
-0.53934 0.69041 0.36146 195 166 207
-0.70152 -0.76403 0.36146 195 166 207
-0.53934 -0.60337 0.36146 195 166 207
0.65423 1.05466 0.36146 195 166 207
-0.65423 1.05466 0.36146 195 166 207
-0.50042 -0.65297 0.36146 195 166 207
0.70152 -0.76403 0.36146 195 166 207
0.50042 -0.65297 0.36146 195 166 207
0.53934 -0.60337 0.36146 195 166 207
-0.66091 -0.80573 0.36146 195 166 207
0.66091 -0.80573 0.36146 195 166 207
0.43454 -0.65297 0.60244 189 161 201
0.50042 -0.65297 0.55606 189 161 201
0.50042 -0.65297 0.36146 189 161 201
0.24483 -0.65297 0.59971 189 161 201
0.24627 -0.65297 1.08854 189 161 201
0.35285 -0.65297 1.0837 189 161 201
0.43454 -0.65297 1.04714 189 161 201
0.47347 -0.60337 0.60244 189 161 201
0.53934 -0.60337 0.55606 189 161 201
-0.50042 -0.65297 0.36146 189 161 201
-0.24483 -0.65297 0.59971 189 161 201
0.47347 -0.60337 1.04714 189 161 201
0.53934 -0.60337 0.36146 189 161 201
0.39178 -0.60337 1.0837 189 161 201
0.39181 -0.60337 1.19421 189 161 201
0.35288 -0.65297 1.19421 189 161 201
0.47347 0.13329 1.04714 189 161 201
0.39182 0.07215 1.0837 189 161 201
-0.43454 -0.65297 0.60244 189 161 201
-0.50042 -0.65297 0.55606 189 161 201
-0.24627 -0.65297 1.08854 189 161 201
-0.35285 -0.65297 1.0837 189 161 201
-0.43454 -0.65297 1.04714 189 161 201
-0.27488 -0.65297 1.15269 189 161 201
-0.47347 -0.60337 0.60244 189 161 201
-0.53934 -0.60337 0.55606 189 161 201
-0.47347 -0.60337 1.04714 189 161 201
-0.53934 -0.60337 0.36146 189 161 201
-0.39178 -0.60337 1.0837 189 161 201
-0.39185 -0.60337 1.38079 189 161 201
-0.35293 -0.65297 1.38079 189 161 201
0.03683 -0.65297 1.19421 189 161 201
0.03683 -0.65297 1.30004 189 161 201
-0.39182 0.07215 1.0837 189 161 201
-0.39185 0.07178 1.38079 189 161 201
-0.47347 0.13329 1.04714 189 161 201
-0.35232 -0.56141 1.41918 189 161 201
-0.3082 -0.61948 1.41918 189 161 201
0.35293 -0.65297 1.38079 189 161 201
0.31361 -0.61948 1.41918 189 161 201
0.35232 -0.56141 1.41918 189 161 201
0.39185 -0.60337 1.38079 189 161 201
0.3529 -0.65297 1.30004 189 161 201
0.39183 -0.60337 1.30004 189 161 201
0.39184 0.07188 1.30004 189 161 201
0.39185 0.07178 1.38079 189 161 201
0.35232 0.02691 1.41918 189 161 201
0.3445 0.13284 1.38079 189 161 201
0.34451 0.13304 1.30004 189 161 201
0.12244 0.13304 1.30004 189 161 201
-0.3445 0.13284 1.38079 189 161 201
0.31323 0.08497 1.41918 189 161 201
-0.3094 0.08497 1.41918 189 161 201
-0.35232 0.02691 1.41918 189 161 201
-0.34452 0.13357 1.0837 189 161 201
-0.42937 0.1959 1.04714 189 161 201
-0.42937 0.1959 0.60244 189 161 201
-0.47347 0.13329 0.60244 189 161 201
-0.31011 0.1959 0.84161 189 161 201
-0.31011 0.1959 0.60244 189 161 201
0.42937 0.1959 1.04714 189 161 201
-0.26454 0.1959 0.87532 189 161 201
0.26454 0.1959 0.87532 189 161 201
0.31011 0.1959 0.84161 189 161 201
0.42937 0.1959 0.60244 189 161 201
0.47347 0.13329 0.60244 189 161 201
0.34452 0.13357 1.0837 189 161 201
0.31011 0.1959 0.60244 189 161 201
0.26454 0.31491 0.87532 189 161 201
0.31011 0.34441 0.84161 189 161 201
0.26464 0.40779 0.84098 189 161 201
0.26464 0.40779 0.60244 189 161 201
-0.26464 0.40779 0.60244 189 161 201
-0.26464 0.40779 0.84098 189 161 201
0.31013 0.34451 0.60244 189 161 201
0.22535 0.36964 0.87532 189 161 201
0.53934 0.69045 0.55606 189 161 201
0.47337 0.66222 0.60244 189 161 201
0.48431 0.76085 0.55581 189 161 201
0.43938 0.70239 0.60244 189 161 201
0.53934 0.69041 0.36146 189 161 201
0.48431 0.76085 0.36146 189 161 201
-0.48431 0.76085 0.36146 189 161 201
-0.48431 0.76085 0.55581 189 161 201
-0.53934 0.69041 0.36146 189 161 201
-0.53934 0.69045 0.55606 189 161 201
-0.47337 0.66222 0.60244 189 161 201
-0.43938 0.70239 0.60244 189 161 201
-0.24483 -0.52837 0.59971 59 53 52
-0.24627 -0.52837 1.08854 59 53 52
-0.22123 -0.52837 1.06535 59 53 52
-0.24627 -0.65297 1.08854 59 53 52
-0.22073 -0.65297 1.06535 59 53 52
0.22123 -0.52837 1.06535 59 53 52
0.22073 -0.65297 1.06535 59 53 52
0.24627 -0.65297 1.08854 59 53 52
0.24627 -0.52837 1.08854 59 53 52
0.24483 -0.52837 0.59971 59 53 52
0.24483 -0.65297 0.59971 59 53 52
-0.24483 -0.65297 0.59971 59 53 52
0.35232 -0.56141 1.41918 195 166 207
0.29201 -0.45771 1.41918 195 166 207
0.29201 -0.08115 1.41918 195 166 207
0.35232 0.02691 1.41918 195 166 207
0.21848 -0.52469 1.41918 195 166 207
0.21788 -0.01417 1.41918 195 166 207
0.31323 0.08497 1.41918 195 166 207
-0.3094 0.08497 1.41918 195 166 207
-0.21384 -0.01417 1.41918 195 166 207
-0.35232 0.02691 1.41918 195 166 207
-0.29201 -0.08115 1.41918 195 166 207
-0.35232 -0.56141 1.41918 195 166 207
-0.29201 -0.45771 1.41918 195 166 207
0.29201 -0.45771 1.41918 189 161 201
0.26645 -0.4314 1.47844 189 161 201
0.26645 -0.10729 1.47844 189 161 201
0.29201 -0.08115 1.41918 189 161 201
0.21848 -0.52469 1.41918 189 161 201
0.19939 -0.49534 1.47844 189 161 201
-0.19465 -0.49534 1.47844 189 161 201
-0.21362 -0.52469 1.41918 189 161 201
-0.26645 -0.4314 1.47844 189 161 201
-0.29201 -0.45771 1.41918 189 161 201
-0.19465 -0.04335 1.47844 189 161 201
-0.26645 -0.10729 1.47844 189 161 201
-0.29201 -0.08115 1.41918 189 161 201
-0.21384 -0.01417 1.41918 189 161 201
0.19939 -0.04335 1.47844 189 161 201
0.21788 -0.01417 1.41918 189 161 201
0 -0.72868 1.06537 189 161 201
-0.22073 -0.72868 1.06535 189 161 201
-0.24347 -0.72868 1.15269 189 161 201
-0.22073 -0.65297 1.06535 189 161 201
0.24347 -0.72868 1.15269 189 161 201
0.22073 -0.72868 1.06535 189 161 201
0.22073 -0.65297 1.06535 189 161 201
0.27488 -0.65297 1.15269 189 161 201
0.24347 -0.72868 1.15269 195 166 207
-0.24347 -0.72868 1.15269 195 166 207
-0.27488 -0.65297 1.15269 195 166 207
0.27488 -0.65297 1.15269 195 166 207
0.47337 0.66222 0.60244 195 166 207
0.31013 0.34451 0.60244 195 166 207
0.26464 0.40779 0.60244 195 166 207
0.31011 0.1959 0.60244 195 166 207
0.42937 0.1959 0.60244 195 166 207
0.47347 0.13329 0.60244 195 166 207
-0.26464 0.40779 0.60244 195 166 207
-0.47337 0.66222 0.60244 195 166 207
0.43938 0.70239 0.60244 195 166 207
-0.43938 0.70239 0.60244 195 166 207
-0.31011 0.34441 0.84161 189 161 201
-0.31013 0.34451 0.60244 189 161 201
-0.26454 0.31491 0.87532 189 161 201
-0.22535 0.36964 0.87532 189 161 201
-0.31013 0.34451 0.60244 195 166 207
-0.31011 0.1959 0.60244 195 166 207
-0.42937 0.1959 0.60244 195 166 207
-0.47347 0.13329 0.60244 195 166 207
-0.19465 -0.49534 1.47844 195 166 207
-0.26645 -0.4314 1.47844 195 166 207
-0.26645 -0.10729 1.47844 195 166 207
-0.19465 -0.04335 1.47844 195 166 207
0.19939 -0.49534 1.47844 195 166 207
0.19939 -0.04335 1.47844 195 166 207
0.26454 0.31491 0.87532 195 166 207
0.26454 0.1959 0.87532 195 166 207
-0.26454 0.1959 0.87532 195 166 207
-0.26454 0.31491 0.87532 195 166 207
-0.22535 0.36964 0.87532 195 166 207
0.22535 0.36964 0.87532 195 166 207
-0.25622 -0.59842 0.5828 147 149 161
-0.25622 -0.59842 0.89681 147 149 161
0.25622 -0.59842 0.89681 147 149 161
0.25622 -0.59842 0.5828 147 149 161
0.25622 -0.51105 0.89681 147 149 161
-0.25622 -0.51105 0.89681 147 149 161
-0.58258 -0.68405 0.43569 109 87 126
-0.61228 -0.65149 0.43569 109 87 126
0.61181 -0.65149 0.43569 109 87 126
0.58209 -0.68405 0.43569 109 87 126
0.66474 -0.6656 0.39557 109 87 126
0.61085 -0.7223 0.39557 109 87 126
0.66474 -0.6656 0.34931 109 87 126
0.61085 -0.7223 0.34931 109 87 126
-0.61085 -0.7223 0.39557 109 87 126
-0.61085 -0.7223 0.34931 109 87 126
-0.66522 -0.6656 0.39557 109 87 126
-0.66522 -0.6656 0.34931 109 87 126
0.61181 0.81527 0.43569 109 87 126
0.66474 0.84638 0.39557 109 87 126
-0.61228 0.81527 0.43569 109 87 126
0.56427 0.86743 0.43569 109 87 126
0.60945 0.91584 0.39533 109 87 126
-0.56474 0.86743 0.43569 109 87 126
-0.66522 0.84638 0.39557 109 87 126
-0.60992 0.91584 0.39533 109 87 126
0.60945 0.91584 0.34931 109 87 126
-0.60992 0.91584 0.34931 109 87 126
0.66474 0.84638 0.34931 109 87 126
-0.66522 0.84638 0.34931 109 87 126
-0.3918 0.17818 0.69781 109 87 126
-0.3918 0.45653 0.69781 109 87 126
0.39071 0.45653 0.69781 109 87 126
0.39071 0.17818 0.69781 109 87 126
-0.42965 0.17818 0.66604 109 87 126
-0.42965 0.46832 0.66604 109 87 126
-0.37212 0.54319 0.66594 109 87 126
-0.35342 0.50466 0.69781 109 87 126
0.42855 0.17818 0.66604 109 87 126
0.42855 0.46832 0.66604 109 87 126
0.42855 0.17818 0.59247 109 87 126
0.42855 0.46832 0.59247 109 87 126
0.37103 0.54319 0.66594 109 87 126
0.37103 0.54319 0.59247 109 87 126
-0.37212 0.54319 0.59247 109 87 126
0.35232 0.50466 0.69781 109 87 126
-0.42965 0.46832 0.59247 109 87 126
-0.42965 0.17818 0.59247 109 87 126
0.26645 -0.10729 1.47844 195 166 207
0.26645 -0.4314 1.47844 195 166 207
-0.21362 -0.52469 1.41918 195 166 207
-0.3082 -0.61948 1.41918 195 166 207
0.31361 -0.61948 1.41918 195 166 207
0.34451 0.13304 1.30004 109 87 126
0.34451 0.1333 1.19421 109 87 126
0.39183 0.07201 1.19421 109 87 126
0.39184 0.07188 1.30004 109 87 126
0.12244 0.1333 1.19421 109 87 126
0.12244 0.13304 1.30004 109 87 126
0.39181 -0.60337 1.19421 109 87 126
0.39183 -0.60337 1.30004 109 87 126
0.35288 -0.65297 1.19421 109 87 126
0.3529 -0.65297 1.30004 109 87 126
0.03683 -0.65297 1.19421 109 87 126
0.03683 -0.65297 1.30004 109 87 126
0.34451 0.1333 1.19421 189 161 201
0.39183 0.07201 1.19421 189 161 201
0.12244 0.1333 1.19421 189 161 201
-0.87625 -0.50957 0.18174 189 161 201
-0.87625 -0.50957 0.00937 189 161 201
-0.87625 0.36566 0.00937 189 161 201
-0.87625 0.36566 0.18174 189 161 201
-0.83123 -0.56578 0.18197 189 161 201
-0.83123 -0.56578 0.00937 189 161 201
-0.58094 -0.56578 0.18197 189 161 201
-0.58094 -0.56578 0.00937 189 161 201
-0.83123 0.42188 0.00937 189 161 201
-0.58094 0.42188 0.00937 189 161 201
-0.58094 0.42188 0.18197 189 161 201
-0.83123 0.42188 0.18197 189 161 201
-0.79603 -0.52048 0.21699 189 161 201
-0.58094 -0.52048 0.21699 189 161 201
-0.83123 -0.47607 0.21699 189 161 201
-0.83123 0.33096 0.21699 189 161 201
-0.79603 0.3782 0.21699 189 161 201
-0.58094 0.3782 0.21699 189 161 201
-0.58094 0.3782 0.21699 195 166 207
-0.58094 -0.52048 0.21699 195 166 207
-0.79603 -0.52048 0.21699 195 166 207
-0.79603 0.3782 0.21699 195 166 207
-0.83123 -0.47607 0.21699 195 166 207
-0.83123 0.33096 0.21699 195 166 207
0.36337 -0.33006 0.57595 109 87 126
0.36337 -0.37357 0.61865 109 87 126
0.51111 -0.37357 0.61865 109 87 126
0.54625 -0.33006 0.57595 109 87 126
0.36337 -0.02223 0.57595 109 87 126
0.54604 -0.02223 0.57595 109 87 126
0.51111 -0.37357 0.94236 109 87 126
0.36337 -0.37357 0.94236 109 87 126
0.36337 0.02463 0.61865 109 87 126
0.54611 0.02463 0.61865 109 87 126
0.36337 -0.33006 0.98423 109 87 126
0.36337 -0.02223 0.98423 109 87 126
0.54604 -0.02223 0.98423 109 87 126
0.54625 -0.33006 0.98423 109 87 126
0.54611 0.02463 0.94236 109 87 126
0.36337 0.02463 0.94236 109 87 126
0.91536 -0.07779 0.98423 195 166 207
0.59813 -0.38744 0.98423 195 166 207
0.54625 -0.33006 0.98423 195 166 207
0.86478 -0.02223 0.98423 195 166 207
0.91536 -0.38769 0.98423 195 166 207
0.54604 -0.02223 0.98423 195 166 207
0.91536 -0.07779 0.57595 189 161 201
0.96222 -0.03917 0.61865 189 161 201
0.89825 0.02463 0.61865 189 161 201
0.86478 -0.02223 0.57595 189 161 201
0.96222 -0.38769 0.61865 189 161 201
0.91536 -0.38769 0.57595 189 161 201
0.59813 -0.38744 0.57595 189 161 201
0.54625 -0.33006 0.57595 189 161 201
0.89825 0.02463 0.94236 189 161 201
0.96222 -0.03917 0.94236 189 161 201
0.96222 -0.38769 0.94236 189 161 201
0.55629 -0.42258 0.61865 189 161 201
0.51111 -0.37357 0.61865 189 161 201
0.55629 -0.42258 0.94236 189 161 201
0.51111 -0.37357 0.94236 189 161 201
0.54604 -0.02223 0.57595 189 161 201
0.54611 0.02463 0.61865 189 161 201
0.54611 0.02463 0.94236 189 161 201
0.86478 -0.02223 0.98423 189 161 201
0.91536 -0.07779 0.98423 189 161 201
0.91536 -0.38769 0.98423 189 161 201
0.54604 -0.02223 0.98423 189 161 201
0.59813 -0.38744 0.98423 109 87 126
0.59813 -0.53662 0.98423 109 87 126
0.55629 -0.53662 0.94236 109 87 126
0.55629 -0.42258 0.94236 109 87 126
0.91536 -0.38769 0.98423 109 87 126
0.91536 -0.53662 0.98423 109 87 126
0.55629 -0.53662 0.61865 109 87 126
0.55629 -0.42258 0.61865 109 87 126
0.96222 -0.38769 0.94236 109 87 126
0.96222 -0.53662 0.94236 109 87 126
0.54625 -0.33006 0.98423 189 161 201
0.59813 -0.38744 0.98423 189 161 201
0.55629 -0.98525 0.94236 189 161 201
0.55629 -0.98525 0.61865 189 161 201
0.55629 -0.8591 0.61865 189 161 201
0.55629 -0.8591 0.94236 189 161 201
0.59813 -0.8591 0.57595 189 161 201
0.59813 -0.94145 0.57595 189 161 201
0.59813 -1.03194 0.61865 189 161 201
0.59813 -1.03194 0.94236 189 161 201
0.59813 -0.94144 0.98423 189 161 201
0.59813 -0.8591 0.98423 189 161 201
0.63441 -0.98525 0.98423 189 161 201
0.91536 -1.03194 0.94236 189 161 201
0.91536 -1.03194 0.61865 189 161 201
0.96222 -0.98525 0.94236 189 161 201
0.91536 -0.94144 0.98423 189 161 201
0.91536 -0.8591 0.98423 189 161 201
0.96222 -0.8591 0.94236 189 161 201
0.96222 -0.98525 0.61865 189 161 201
0.96222 -0.8591 0.61865 189 161 201
0.87908 -0.98525 0.98423 189 161 201
0.91536 -0.38769 0.57595 109 87 126
0.91536 -0.53662 0.57595 109 87 126
0.96222 -0.53662 0.61865 109 87 126
0.96222 -0.38769 0.61865 109 87 126
0.59813 -0.38744 0.57595 109 87 126
0.59813 -0.53662 0.57595 109 87 126
0.59813 -0.53662 0.98423 189 161 201
0.59813 -0.69689 0.98423 189 161 201
0.55629 -0.69689 0.94236 189 161 201
0.55629 -0.53662 0.94236 189 161 201
0.55629 -0.69689 0.61865 189 161 201
0.55629 -0.53662 0.61865 189 161 201
0.91536 -0.53662 0.98423 195 166 207
0.91536 -0.69689 0.98423 195 166 207
0.59813 -0.69689 0.98423 195 166 207
0.59813 -0.53662 0.98423 195 166 207
0.91536 -0.53662 0.57595 189 161 201
0.91536 -0.69689 0.57595 189 161 201
0.96222 -0.69689 0.61865 189 161 201
0.96222 -0.53662 0.61865 189 161 201
0.59813 -0.53662 0.57595 189 161 201
0.59813 -0.69689 0.57595 189 161 201
0.96222 -0.69689 0.94236 189 161 201
0.96222 -0.53662 0.94236 189 161 201
0.91536 -0.69689 0.98423 189 161 201
0.91536 -0.53662 0.98423 189 161 201
0.59813 -0.69689 0.98423 109 87 126
0.59813 -0.8591 0.98423 109 87 126
0.55629 -0.8591 0.94236 109 87 126
0.55629 -0.69689 0.94236 109 87 126
0.91536 -0.69689 0.98423 109 87 126
0.91536 -0.8591 0.98423 109 87 126
0.96222 -0.69689 0.94236 109 87 126
0.96222 -0.8591 0.94236 109 87 126
0.96222 -0.69689 0.61865 109 87 126
0.96222 -0.8591 0.61865 109 87 126
0.91536 -0.69689 0.57595 109 87 126
0.91536 -0.8591 0.57595 109 87 126
0.59813 -0.69689 0.57595 109 87 126
0.59813 -0.8591 0.57595 109 87 126
0.55629 -0.69689 0.61865 109 87 126
0.55629 -0.8591 0.61865 109 87 126
0.91536 -0.94144 0.98423 195 166 207
0.87908 -0.98525 0.98423 195 166 207
0.63441 -0.98525 0.98423 195 166 207
0.59813 -0.94144 0.98423 195 166 207
0.91536 -0.8591 0.98423 195 166 207
0.59813 -0.8591 0.98423 195 166 207
0.91536 -0.8591 0.57595 189 161 201
0.91536 -0.94145 0.57595 189 161 201
0.87968 -0.98525 0.57595 189 161 201
0.63381 -0.98525 0.57595 189 161 201
0.70738 -1.17049 0.8076 189 161 201
0.70738 -1.17049 0.93303 189 161 201
0.80428 -1.17049 0.93303 189 161 201
0.80428 -1.17049 0.8076 189 161 201
0.69311 -1.14826 0.8076 189 161 201
0.81854 -1.14826 0.8076 189 161 201
0.69311 -1.02283 0.8076 189 161 201
0.81854 -1.02283 0.8076 189 161 201
0.81854 -1.14826 0.93303 189 161 201
0.81854 -1.02283 0.93303 189 161 201
0.69311 -1.14826 0.93303 195 166 207
0.69311 -1.02283 0.93303 195 166 207
0.81854 -1.02283 0.93303 195 166 207
0.81854 -1.14826 0.93303 195 166 207
0.70738 -1.17049 0.93303 195 166 207
0.80428 -1.17049 0.93303 195 166 207
0.69311 -1.02283 0.93303 189 161 201
0.69311 -1.14826 0.93303 189 161 201
0.62358 -1.17049 0.62893 189 161 201
0.62358 -1.17049 0.75436 189 161 201
0.72048 -1.17049 0.75436 189 161 201
0.72048 -1.17049 0.62893 189 161 201
0.60931 -1.14826 0.62893 189 161 201
0.73474 -1.14826 0.62893 189 161 201
0.60931 -1.02283 0.62893 189 161 201
0.73474 -1.02283 0.62893 189 161 201
0.73474 -1.14826 0.75436 189 161 201
0.73474 -1.02283 0.75436 189 161 201
0.60931 -1.14826 0.75436 195 166 207
0.60931 -1.02283 0.75436 195 166 207
0.73474 -1.02283 0.75436 195 166 207
0.73474 -1.14826 0.75436 195 166 207
0.62358 -1.17049 0.75436 195 166 207
0.72048 -1.17049 0.75436 195 166 207
0.60931 -1.02283 0.75436 189 161 201
0.60931 -1.14826 0.75436 189 161 201
0.79481 -1.17049 0.62893 189 161 201
0.79481 -1.17049 0.75436 189 161 201
0.8917 -1.17049 0.75436 189 161 201
0.8917 -1.17049 0.62893 189 161 201
0.78054 -1.14826 0.62893 189 161 201
0.90597 -1.14826 0.62893 189 161 201
0.78054 -1.02283 0.62893 189 161 201
0.90597 -1.02283 0.62893 189 161 201
0.90597 -1.14826 0.75436 189 161 201
0.90597 -1.02283 0.75436 189 161 201
0.78054 -1.14826 0.75436 195 166 207
0.78054 -1.02283 0.75436 195 166 207
0.90597 -1.02283 0.75436 195 166 207
0.90597 -1.14826 0.75436 195 166 207
0.79481 -1.17049 0.75436 195 166 207
0.8917 -1.17049 0.75436 195 166 207
0.78054 -1.02283 0.75436 189 161 201
0.78054 -1.14826 0.75436 189 161 201
-0.36337 -0.33006 0.57595 109 87 126
-0.54625 -0.33006 0.57595 109 87 126
-0.51111 -0.37357 0.61865 109 87 126
-0.36337 -0.37357 0.61865 109 87 126
-0.36337 -0.02223 0.57595 109 87 126
-0.54604 -0.02223 0.57595 109 87 126
-0.51111 -0.37357 0.94236 109 87 126
-0.36337 -0.37357 0.94236 109 87 126
-0.36337 0.02463 0.61865 109 87 126
-0.54611 0.02463 0.61865 109 87 126
-0.36337 -0.33006 0.98423 109 87 126
-0.54625 -0.33006 0.98423 109 87 126
-0.54604 -0.02223 0.98423 109 87 126
-0.36337 -0.02223 0.98423 109 87 126
-0.54611 0.02463 0.94236 109 87 126
-0.36337 0.02463 0.94236 109 87 126
-0.91536 -0.07779 0.98423 195 166 207
-0.86478 -0.02223 0.98423 195 166 207
-0.54625 -0.33006 0.98423 195 166 207
-0.59813 -0.38744 0.98423 195 166 207
-0.91536 -0.38769 0.98423 195 166 207
-0.54604 -0.02223 0.98423 195 166 207
-0.91536 -0.07779 0.57595 189 161 201
-0.86478 -0.02223 0.57595 189 161 201
-0.89825 0.02463 0.61865 189 161 201
-0.96222 -0.03917 0.61865 189 161 201
-0.96222 -0.38769 0.61865 189 161 201
-0.91536 -0.38769 0.57595 189 161 201
-0.59813 -0.38744 0.57595 189 161 201
-0.54625 -0.33006 0.57595 189 161 201
-0.89825 0.02463 0.94236 189 161 201
-0.96222 -0.03917 0.94236 189 161 201
-0.96222 -0.38769 0.94236 189 161 201
-0.55629 -0.42258 0.61865 189 161 201
-0.51111 -0.37357 0.61865 189 161 201
-0.55629 -0.42258 0.94236 189 161 201
-0.51111 -0.37357 0.94236 189 161 201
-0.54604 -0.02223 0.57595 189 161 201
-0.54611 0.02463 0.61865 189 161 201
-0.54611 0.02463 0.94236 189 161 201
-0.86478 -0.02223 0.98423 189 161 201
-0.91536 -0.07779 0.98423 189 161 201
-0.91536 -0.38769 0.98423 189 161 201
-0.54604 -0.02223 0.98423 189 161 201
-0.59813 -0.38744 0.98423 109 87 126
-0.55629 -0.42258 0.94236 109 87 126
-0.55629 -0.53662 0.94236 109 87 126
-0.59813 -0.53662 0.98423 109 87 126
-0.91536 -0.38769 0.98423 109 87 126
-0.91536 -0.53662 0.98423 109 87 126
-0.55629 -0.53662 0.61865 109 87 126
-0.55629 -0.42258 0.61865 109 87 126
-0.96222 -0.38769 0.94236 109 87 126
-0.96222 -0.53662 0.94236 109 87 126
-0.54625 -0.33006 0.98423 189 161 201
-0.59813 -0.38744 0.98423 189 161 201
-0.55629 -0.98525 0.94236 189 161 201
-0.55629 -0.8591 0.94236 189 161 201
-0.55629 -0.8591 0.61865 189 161 201
-0.55629 -0.98525 0.61865 189 161 201
-0.59813 -0.8591 0.57595 189 161 201
-0.59813 -0.94145 0.57595 189 161 201
-0.59813 -1.03194 0.61865 189 161 201
-0.59813 -1.03194 0.94236 189 161 201
-0.59813 -0.94144 0.98423 189 161 201
-0.59813 -0.8591 0.98423 189 161 201
-0.63441 -0.98525 0.98423 189 161 201
-0.91536 -1.03194 0.94236 189 161 201
-0.91536 -1.03194 0.61865 189 161 201
-0.96222 -0.98525 0.94236 189 161 201
-0.91536 -0.94144 0.98423 189 161 201
-0.91536 -0.8591 0.98423 189 161 201
-0.96222 -0.8591 0.94236 189 161 201
-0.96222 -0.98525 0.61865 189 161 201
-0.96222 -0.8591 0.61865 189 161 201
-0.87908 -0.98525 0.98423 189 161 201
-0.91536 -0.38769 0.57595 109 87 126
-0.96222 -0.38769 0.61865 109 87 126
-0.96222 -0.53662 0.61865 109 87 126
-0.91536 -0.53662 0.57595 109 87 126
-0.59813 -0.38744 0.57595 109 87 126
-0.59813 -0.53662 0.57595 109 87 126
-0.59813 -0.53662 0.98423 189 161 201
-0.55629 -0.53662 0.94236 189 161 201
-0.55629 -0.69689 0.94236 189 161 201
-0.59813 -0.69689 0.98423 189 161 201
-0.55629 -0.69689 0.61865 189 161 201
-0.55629 -0.53662 0.61865 189 161 201
-0.91536 -0.53662 0.98423 195 166 207
-0.59813 -0.53662 0.98423 195 166 207
-0.59813 -0.69689 0.98423 195 166 207
-0.91536 -0.69689 0.98423 195 166 207
-0.91536 -0.53662 0.57595 189 161 201
-0.96222 -0.53662 0.61865 189 161 201
-0.96222 -0.69689 0.61865 189 161 201
-0.91536 -0.69689 0.57595 189 161 201
-0.59813 -0.53662 0.57595 189 161 201
-0.59813 -0.69689 0.57595 189 161 201
-0.96222 -0.69689 0.94236 189 161 201
-0.96222 -0.53662 0.94236 189 161 201
-0.91536 -0.69689 0.98423 189 161 201
-0.91536 -0.53662 0.98423 189 161 201
-0.59813 -0.69689 0.98423 109 87 126
-0.55629 -0.69689 0.94236 109 87 126
-0.55629 -0.8591 0.94236 109 87 126
-0.59813 -0.8591 0.98423 109 87 126
-0.91536 -0.69689 0.98423 109 87 126
-0.91536 -0.8591 0.98423 109 87 126
-0.96222 -0.69689 0.94236 109 87 126
-0.96222 -0.8591 0.94236 109 87 126
-0.96222 -0.69689 0.61865 109 87 126
-0.96222 -0.8591 0.61865 109 87 126
-0.91536 -0.69689 0.57595 109 87 126
-0.91536 -0.8591 0.57595 109 87 126
-0.59813 -0.69689 0.57595 109 87 126
-0.59813 -0.8591 0.57595 109 87 126
-0.55629 -0.69689 0.61865 109 87 126
-0.55629 -0.8591 0.61865 109 87 126
-0.91536 -0.94144 0.98423 195 166 207
-0.59813 -0.94144 0.98423 195 166 207
-0.63441 -0.98525 0.98423 195 166 207
-0.87908 -0.98525 0.98423 195 166 207
-0.91536 -0.8591 0.98423 195 166 207
-0.59813 -0.8591 0.98423 195 166 207
-0.91536 -0.8591 0.57595 189 161 201
-0.91536 -0.94145 0.57595 189 161 201
-0.87968 -0.98525 0.57595 189 161 201
-0.63381 -0.98525 0.57595 189 161 201
-0.70738 -1.17049 0.8076 189 161 201
-0.80428 -1.17049 0.8076 189 161 201
-0.80428 -1.17049 0.93303 189 161 201
-0.70738 -1.17049 0.93303 189 161 201
-0.69311 -1.14826 0.8076 189 161 201
-0.81854 -1.14826 0.8076 189 161 201
-0.69311 -1.02283 0.8076 189 161 201
-0.81854 -1.02283 0.8076 189 161 201
-0.81854 -1.14826 0.93303 189 161 201
-0.81854 -1.02283 0.93303 189 161 201
-0.69311 -1.14826 0.93303 195 166 207
-0.81854 -1.14826 0.93303 195 166 207
-0.81854 -1.02283 0.93303 195 166 207
-0.69311 -1.02283 0.93303 195 166 207
-0.70738 -1.17049 0.93303 195 166 207
-0.80428 -1.17049 0.93303 195 166 207
-0.69311 -1.14826 0.93303 189 161 201
-0.69311 -1.02283 0.93303 189 161 201
-0.62358 -1.17049 0.62893 189 161 201
-0.72048 -1.17049 0.62893 189 161 201
-0.72048 -1.17049 0.75436 189 161 201
-0.62358 -1.17049 0.75436 189 161 201
-0.60931 -1.14826 0.62893 189 161 201
-0.73474 -1.14826 0.62893 189 161 201
-0.60931 -1.02283 0.62893 189 161 201
-0.73474 -1.02283 0.62893 189 161 201
-0.73474 -1.14826 0.75436 189 161 201
-0.73474 -1.02283 0.75436 189 161 201
-0.60931 -1.14826 0.75436 195 166 207
-0.73474 -1.14826 0.75436 195 166 207
-0.73474 -1.02283 0.75436 195 166 207
-0.60931 -1.02283 0.75436 195 166 207
-0.62358 -1.17049 0.75436 195 166 207
-0.72048 -1.17049 0.75436 195 166 207
-0.60931 -1.14826 0.75436 189 161 201
-0.60931 -1.02283 0.75436 189 161 201
-0.79481 -1.17049 0.62893 189 161 201
-0.8917 -1.17049 0.62893 189 161 201
-0.8917 -1.17049 0.75436 189 161 201
-0.79481 -1.17049 0.75436 189 161 201
-0.78054 -1.14826 0.62893 189 161 201
-0.90597 -1.14826 0.62893 189 161 201
-0.78054 -1.02283 0.62893 189 161 201
-0.90597 -1.02283 0.62893 189 161 201
-0.90597 -1.14826 0.75436 189 161 201
-0.90597 -1.02283 0.75436 189 161 201
-0.78054 -1.14826 0.75436 195 166 207
-0.90597 -1.14826 0.75436 195 166 207
-0.90597 -1.02283 0.75436 195 166 207
-0.78054 -1.02283 0.75436 195 166 207
-0.79481 -1.17049 0.75436 195 166 207
-0.8917 -1.17049 0.75436 195 166 207
-0.78054 -1.14826 0.75436 189 161 201
-0.78054 -1.02283 0.75436 189 161 201
3 0 2 1
3 0 3 2
3 4 3 0
3 4 5 3
3 5 2 3
3 6 5 4
3 6 7 5
3 7 8 5
3 5 8 2
3 8 1 2
3 7 9 8
3 8 9 10
3 8 10 11
3 8 11 1
3 12 6 4
3 12 13 6
3 12 4 0
3 12 0 14
3 1 14 0
3 1 15 14
3 16 15 1
3 16 1 11
3 10 16 11
3 10 17 16
3 18 20 19
3 18 21 20
3 19 20 22
3 19 22 23
3 24 26 25
3 24 27 26
3 28 27 24
3 28 29 27
3 30 28 24
3 30 24 31
3 31 24 25
3 31 25 32
3 33 25 26
3 33 26 34
3 35 25 33
3 35 32 25
3 36 30 37
3 36 28 30
3 38 28 36
3 38 29 28
3 37 30 35
3 30 32 35
3 30 31 32
3 37 35 39
3 40 39 35
3 40 35 33
3 41 40 33
3 41 33 34
3 42 44 43
3 42 45 44
3 42 46 45
3 42 47 46
3 48 50 49
3 48 51 50
3 52 54 53
3 52 55 54
3 56 54 55
3 56 57 54
3 58 57 56
3 58 52 53
3 58 56 59
3 58 59 52
3 59 56 60
3 59 60 61
3 52 59 61
3 56 62 60
3 56 55 62
3 55 63 62
3 55 52 63
3 52 61 63
3 64 66 65
3 64 67 66
3 68 70 69
3 68 71 70
3 72 69 70
3 72 70 73
3 74 72 73
3 74 71 68
3 74 75 72
3 74 68 75
3 75 76 72
3 75 77 76
3 68 77 75
3 72 78 69
3 72 76 78
3 69 79 68
3 69 78 79
3 68 79 77
3 80 82 81
3 80 83 82
3 84 83 80
3 84 80 85
3 82 83 86
3 82 86 87
3 88 83 84
3 88 86 83
3 81 89 80
3 81 90 89
3 89 90 91
3 91 81 82
3 91 90 81
3 89 91 92
3 91 93 92
3 91 94 93
3 82 94 91
3 82 87 94
3 85 80 89
3 85 89 95
3 96 85 95
3 97 96 95
3 97 98 96
3 98 97 99
3 99 97 92
3 99 92 93
3 98 99 100
3 98 101 96
3 96 101 85
3 84 85 101
3 84 101 102
3 98 102 101
3 102 88 84
3 102 103 88
3 98 103 102
3 98 100 103
3 89 97 95
3 89 92 97
3 104 106 105
3 107 105 106
3 107 106 108
3 109 107 108
3 110 109 108
3 110 111 109
3 108 106 112
3 108 112 113
3 110 114 111
3 115 114 110
3 115 116 114
3 115 117 116
3 115 110 118
3 115 118 119
3 115 104 117
3 115 106 104
3 120 122 121
3 123 122 120
3 124 123 120
3 125 124 120
3 125 120 126
3 121 127 120
3 121 128 127
3 122 128 121
3 129 122 123
3 129 123 130
3 120 131 126
3 120 127 131
3 122 132 128
3 126 133 125
3 126 131 133
3 125 133 134
3 125 134 135
3 133 131 136
3 133 136 137
3 130 138 129
3 138 139 129
3 140 138 130
3 141 138 140
3 141 142 138
3 143 141 140
3 139 138 144
3 139 144 145
3 138 146 144
3 138 142 146
3 129 139 145
3 129 145 147
3 142 148 146
3 142 141 148
3 141 149 148
3 141 150 149
3 150 141 143
3 151 150 143
3 151 152 150
3 149 153 148
3 149 154 153
3 148 155 146
3 148 153 155
3 150 156 149
3 150 157 156
3 158 157 150
3 158 150 152
3 158 159 157
3 158 160 159
3 158 161 160
3 162 161 158
3 158 152 162
3 162 163 161
3 161 163 164
3 161 164 165
3 166 165 167
3 165 168 167
3 165 164 168
3 167 168 169
3 167 169 170
3 160 165 166
3 160 161 165
3 171 167 170
3 166 167 171
3 171 170 172
3 172 170 173
3 173 170 154
3 154 170 174
3 174 170 169
3 154 174 153
3 153 174 155
3 174 175 155
3 155 175 176
3 155 176 177
3 178 176 175
3 178 179 176
3 180 175 174
3 180 181 175
3 181 178 175
3 180 182 181
3 182 180 183
3 183 180 184
3 136 184 180
3 136 185 184
3 186 136 180
3 180 174 186
3 183 184 187
3 188 182 183
3 188 183 189
3 188 189 190
3 189 191 190
3 190 191 192
3 190 192 193
3 189 194 191
3 188 190 195
3 137 136 186
3 131 185 136
3 131 127 185
3 127 128 185
3 185 128 196
3 185 196 197
3 197 196 198
3 197 198 199
3 198 196 200
3 198 200 201
3 198 201 202
3 198 202 203
3 199 198 203
3 128 200 196
3 128 132 200
3 203 202 204
3 203 204 205
3 206 203 205
3 177 206 205
3 145 205 204
3 145 204 147
3 177 205 145
3 144 177 145
3 146 177 144
3 146 155 177
3 207 203 206
3 199 203 207
3 208 210 209
3 211 209 210
3 208 209 211
3 211 210 212
3 213 212 210
3 213 214 212
3 215 214 213
3 215 213 216
3 215 216 217
3 217 210 208
3 217 213 210
3 217 216 213
3 218 217 208
3 215 217 218
3 218 208 219
3 208 211 219
3 220 222 221
3 220 223 222
3 221 224 220
3 222 223 225
3 225 223 226
3 225 226 227
3 225 227 228
3 228 227 229
3 228 229 230
3 231 230 229
3 231 232 230
3 233 235 234
3 233 236 235
3 234 237 233
3 234 238 237
3 237 238 239
3 237 239 240
3 240 239 241
3 240 241 242
3 243 245 244
3 243 246 245
3 242 244 245
3 242 241 244
3 247 246 243
3 247 248 246
3 235 248 247
3 235 236 248
3 249 251 250
3 251 140 250
3 250 140 252
3 252 249 250
3 251 143 140
3 249 253 251
3 254 253 249
3 255 254 249
3 255 249 252
3 253 254 124
3 124 254 255
3 253 124 256
3 125 256 124
3 135 256 125
3 135 143 256
3 135 151 143
3 257 259 258
3 257 260 259
3 261 263 262
3 261 262 264
3 261 264 265
3 261 265 266
3 263 268 267
3 263 261 268
3 268 261 269
3 268 269 270
3 187 189 183
3 187 194 189
3 271 192 272
3 271 193 192
3 273 193 271
3 273 271 178
3 273 178 181
3 273 274 193
3 190 193 274
3 190 274 195
3 179 178 271
3 179 271 272
3 268 275 267
3 268 276 275
3 268 277 276
3 268 278 277
3 279 281 280
3 279 282 281
3 283 282 279
3 283 284 282
3 156 154 149
3 156 173 154
3 285 287 286
3 285 288 287
3 285 289 288
3 285 290 289
3 291 293 292
3 291 294 293
3 292 293 295
3 292 295 296
3 297 299 298
3 297 300 299
3 300 301 299
3 300 302 301
3 302 300 297
3 302 303 301
3 302 304 303
3 302 297 305
3 305 304 302
3 305 306 304
3 307 306 305
3 297 307 305
3 297 298 307
3 307 308 306
3 301 309 299
3 298 299 309
3 301 310 309
3 298 309 311
3 312 309 310
3 311 309 312
3 312 310 313
3 314 312 313
3 311 312 314
3 314 315 311
3 314 316 315
3 314 313 316
3 316 313 317
3 316 317 318
3 318 315 316
3 318 317 319
3 313 319 317
3 313 310 319
3 318 319 320
3 318 320 315
3 303 319 310
3 303 310 301
3 307 315 320
3 311 315 307
3 307 320 308
3 311 307 298
3 321 323 322
3 321 324 323
3 322 325 321
3 322 326 325
3 327 326 322
3 327 322 328
3 329 323 324
3 329 330 323
3 331 330 329
3 331 332 330
3 333 323 330
3 333 330 332
3 327 333 334
3 333 332 334
3 327 334 335
3 335 326 327
3 333 336 323
3 327 336 333
3 327 328 336
3 322 336 328
3 322 323 336
3 335 337 326
3 325 326 337
3 325 337 338
3 339 283 340
3 339 284 283
3 231 341 232
3 342 341 231
3 220 224 343
3 343 224 341
3 343 341 342
3 344 346 345
3 344 347 346
3 348 344 345
3 348 349 344
3 347 350 346
3 347 351 350
3 352 350 351
3 352 351 353
3 353 354 352
3 353 355 354
3 356 137 186
3 356 357 137
3 174 356 186
3 174 358 356
3 174 169 358
3 357 133 137
3 357 134 133
3 359 361 360
3 359 362 361
3 363 359 360
3 363 360 364
3 364 360 361
3 365 363 364
3 365 364 366
3 366 364 367
3 364 361 367
3 367 361 362
3 366 367 368
3 367 369 368
3 367 370 369
3 367 362 370
3 371 365 372
3 371 363 365
3 371 359 363
3 371 373 359
3 362 359 373
3 362 373 374
3 375 362 374
3 375 370 362
3 369 370 375
3 369 375 376
3 377 379 378
3 377 380 379
3 380 381 379
3 380 382 381
3 383 385 384
3 383 386 385
3 387 386 383
3 387 388 386
3 384 385 389
3 384 389 390
3 391 388 387
3 391 392 388
3 393 395 394
3 393 396 395
3 394 395 397
3 394 397 398
3 390 396 393
3 390 389 396
3 398 397 392
3 398 392 391
3 399 401 400
3 399 402 401
3 399 400 403
3 404 401 402
3 405 407 406
3 405 408 407
3 405 406 409
3 405 409 410
3 411 405 410
3 405 412 408
3 405 411 412
3 406 407 413
3 406 413 414
3 415 406 414
3 415 409 406
3 416 412 411
3 416 417 412
3 418 417 416
3 418 419 417
3 420 407 408
3 412 420 408
3 420 421 407
3 421 413 407
3 421 422 413
3 422 423 413
3 414 413 423
3 414 423 424
3 425 414 424
3 425 415 414
3 422 426 423
3 427 429 428
3 427 430 429
3 431 427 428
3 431 428 432
3 433 429 430
3 433 430 434
3 432 435 431
3 432 436 435
3 437 418 438
3 437 419 418
3 439 441 440
3 439 442 441
3 440 441 443
3 440 443 444
3 444 445 440
3 439 440 445
3 439 445 446
3 446 447 439
3 448 439 447
3 448 442 439
3 446 449 447
3 450 449 446
3 450 446 445
3 450 445 451
3 452 450 451
3 453 450 452
3 452 454 453
3 452 455 454
3 456 455 452
3 452 451 456
3 456 457 455
3 453 458 450
3 450 458 449
3 459 461 460
3 459 462 461
3 463 459 460
3 463 460 464
3 464 434 463
3 464 433 434
3 436 461 462
3 436 462 435
3 465 467 466
3 465 468 467
3 469 467 468
3 469 468 470
3 471 473 472
3 471 474 473
3 475 477 476
3 475 478 477
3 479 475 476
3 479 476 480
3 480 470 479
3 480 469 470
3 481 477 478
3 481 478 482
3 483 482 484
3 483 481 482
3 485 487 486
3 485 488 487
3 489 485 486
3 489 486 490
3 490 491 489
3 490 492 491
3 492 493 491
3 492 494 493
3 495 494 496
3 495 493 494
3 497 495 496
3 497 496 498
3 498 499 497
3 498 500 499
3 500 488 499
3 500 487 488
3 501 503 502
3 501 504 503
3 505 504 501
3 505 506 504
3 507 456 508
3 507 457 456
3 451 508 456
3 451 509 508
3 444 508 509
3 444 509 510
3 509 445 510
3 509 451 445
3 444 510 445
3 443 508 444
3 443 507 508
3 511 513 512
3 511 514 513
3 515 514 511
3 515 516 514
3 517 516 515
3 517 518 516
3 516 513 514
3 516 519 513
3 516 520 519
3 516 518 520
3 521 523 522
3 521 524 523
3 524 521 525
3 524 525 526
3 517 528 527
3 517 515 528
3 528 515 511
3 528 511 512
3 529 531 530
3 529 532 531
3 533 532 529
3 533 534 532
3 535 534 533
3 535 536 534
3 534 531 532
3 534 537 531
3 534 538 537
3 534 536 538
3 539 541 540
3 539 542 541
3 542 539 543
3 542 543 544
3 535 546 545
3 535 533 546
3 546 533 529
3 546 529 530
3 547 549 548
3 547 550 549
3 551 550 547
3 551 552 550
3 553 552 551
3 553 554 552
3 552 549 550
3 552 555 549
3 552 556 555
3 552 554 556
3 557 559 558
3 557 560 559
3 560 557 561
3 560 561 562
3 553 564 563
3 553 551 564
3 564 551 547
3 564 547 548
3 565 567 566
3 565 568 567
3 569 565 566
3 569 566 570
3 568 571 567
3 568 572 571
3 573 569 570
3 573 570 574
3 575 577 576
3 575 578 577
3 578 579 577
3 578 580 579
3 572 575 576
3 572 576 571
3 580 574 579
3 580 573 574
3 581 583 582
3 581 584 583
3 581 585 584
3 586 582 583
3 587 589 588
3 587 590 589
3 587 591 590
3 587 592 591
3 593 592 587
3 587 594 593
3 587 588 594
3 590 595 589
3 590 596 595
3 597 590 591
3 597 596 590
3 598 593 594
3 598 594 599
3 600 598 599
3 600 599 601
3 602 588 589
3 594 588 602
3 602 589 603
3 603 589 595
3 603 595 604
3 604 595 605
3 596 605 595
3 596 606 605
3 607 606 596
3 607 596 597
3 604 605 608
3 609 611 610
3 609 612 611
3 613 612 609
3 613 614 612
3 615 610 611
3 615 616 610
3 614 613 617
3 614 617 618
3 619 600 601
3 619 620 600
3 621 623 622
3 621 624 623
3 624 625 623
3 624 626 625
3 626 624 627
3 621 627 624
3 621 628 627
3 628 621 629
3 630 629 621
3 630 621 622
3 628 629 631
3 632 628 631
3 632 627 628
3 632 633 627
3 634 633 632
3 635 634 632
3 634 635 636
3 634 636 637
3 638 634 637
3 634 638 633
3 638 637 639
3 635 632 640
3 632 631 640
3 641 643 642
3 641 644 643
3 645 644 641
3 645 646 644
3 646 645 616
3 646 616 615
3 618 642 643
3 618 617 642
3 647 649 648
3 647 650 649
3 651 648 649
3 651 652 648
3 653 655 654
3 653 656 655
3 657 659 658
3 657 660 659
3 661 660 657
3 661 662 660
3 662 661 652
3 662 652 651
3 663 658 659
3 663 664 658
3 665 664 663
3 665 666 664
3 667 669 668
3 667 670 669
3 671 670 667
3 671 672 670
3 672 671 673
3 672 673 674
3 674 673 675
3 674 675 676
3 677 676 675
3 677 678 676
3 679 678 677
3 679 680 678
3 680 679 681
3 680 681 682
3 682 681 668
3 682 668 669
3 683 685 684
3 683 686 685
3 687 683 684
3 687 684 688
3 689 638 639
3 689 690 638
3 633 638 690
3 633 690 691
3 626 691 690
3 626 692 691
3 691 627 633
3 691 692 627
3 626 627 692
3 625 690 689
3 625 626 690
3 693 695 694
3 693 696 695
3 697 693 694
3 697 694 698
3 699 697 698
3 699 698 700
3 698 694 695
3 698 695 701
3 698 701 702
3 698 702 700
3 703 705 704
3 703 706 705
3 704 707 703
3 704 708 707
3 699 709 697
3 699 710 709
3 709 693 697
3 709 696 693
3 711 713 712
3 711 714 713
3 715 711 712
3 715 712 716
3 717 715 716
3 717 716 718
3 716 712 713
3 716 713 719
3 716 719 720
3 716 720 718
3 721 723 722
3 721 724 723
3 722 725 721
3 722 726 725
3 717 727 715
3 717 728 727
3 727 711 715
3 727 714 711
3 729 731 730
3 729 732 731
3 733 729 730
3 733 730 734
3 735 733 734
3 735 734 736
3 734 730 731
3 734 731 737
3 734 737 738
3 734 738 736
3 739 741 740
3 739 742 741
3 740 743 739
3 740 744 743
3 735 745 733
3 735 746 745
3 745 729 733
3 745 732 729
