mtllib Raichu_F.mtl
v 0.115572 0.665444 -0.00824341
vt 0.0839227 0.112645
vn 0.5122172 0.8585043 -0.02457441
v 0 0.684204 -0.00824341
vt 0.0839227 0.115121
vn 0 0.9958722 -0.09076671
v 0 0.671226 0.103801
vt 0.0677485 0.112645
vn 0 0.8695913 0.4937722
v 0 0.649516 -0.130161
vt 0.103905 0.112645
vn 0 0.8369039 -0.5473499
v 0.141547 0.580208 0.133972
vt 0.0689903 0.105881
vn 0.5674069 0.3920829 0.7240998
v 0.125776 0.580208 -0.156891
vt 0.100983 0.105881
vn 0.5751731 0.5318131 -0.6215711
v 0.188027 0.580208 -0.00824341
vt 0.0839227 0.105881
vn 0.8874941 0.458431 -0.046853
v -0.115572 0.665444 -0.00824341
vn -0.5122172 0.8585043 -0.02457431
v 0.217115 0.479601 -0.00824341
vt 0.0854588 0.0966411
vn 0.9973192 0.05677611 -0.04616121
v 0 0.580208 0.190813
vt 0.0568394 0.105881
vn 0 0.3041169 0.9526348
v -0.125776 0.580208 -0.156891
vn -0.5751731 0.5318131 -0.6215711
v 0 0.555429 -0.20157
vt 0.114904 0.105881
vn 0 0.2944439 -0.9556687
v -0.141547 0.580208 0.133972
vn -0.5674069 0.3920829 0.7240998
v 0.144431 0.488285 -0.170135
vt 0.101432 0.0966411
vn 0.6766066 0.05132747 -0.7345536
v 0.134757 0.396362 -0.159777
vt 0.100983 0.0874011
vn 0.585916 -0.536759 -0.607118
v -0.188027 0.580208 -0.00824341
vn -0.8874941 0.458431 -0.046853
v -0.144431 0.488285 -0.170135
vn -0.6766066 0.05132747 -0.7345536
v -0.217115 0.479601 -0.00824341
vn -0.9973192 0.05677621 -0.04616131
v 0 0.416799 -0.209869
vt 0.114904 0.0874011
vn 0 -0.253021 -0.9674608
v 0 0.326901 -0.138596
vt 0.101105 0.0797407
vn 0 -0.8634782 -0.5043862
v 0.115572 0.322713 -0.00824341
vt 0.0854588 0.0797407
vn 0.4374341 -0.8988342 -0.02735891
v -0.134757 0.396362 -0.159777
vn -0.585916 -0.536759 -0.607118
v -0.115572 0.322713 -0.00824341
vn -0.4374341 -0.8988342 -0.02735901
v 0.0934168 0.129346 -0.165543
vt 0.451379 0.703213
vn 0.493258 0.237036 -0.836965
v 0.0900715 0.0552504 -0.169838
vt 0.45891 0.573308
vn 0.4174818 -0.4972138 -0.7605836
v -0.0900714 0.0552504 -0.169838
vn -0.417481 -0.497214 -0.7605839
v 0.180143 0.0552504 0.0009658621
vt 0.159453 0.573308
vn 0.9113972 -0.4115261 0.0012212
v -0.0934167 0.129346 -0.165543
vn -0.493258 0.237036 -0.836965
v 0.186834 0.129346 0
vt 0.161147 0.703214
vn 0.9704459 0.0425321 -0.237541
v 0.0642379 0.297357 -0.105397
vt 0.34593 0.997773
vn 0.439483 0.484883 -0.756137
v 0 0.0231661 0
vt 0.161147 0.517057
vn 0 -0.9999968 0.002519539
v -0.0642379 0.297357 -0.105397
vn -0.4394822 0.4848832 -0.7561373
v -0.180143 0.0552504 0.0009658621
vn -0.9113972 -0.4115261 0.00122098
v -0.186834 0.129346 0
vn -0.9704459 0.0425322 -0.237541
v 0.128476 0.297357 0
vt 0.161147 0.997773
vn 0.7565367 0.5642867 -0.3305039
v -0.128476 0.297357 0
vn -0.7565367 0.5642867 -0.3305039
v 0 0.3137 0
vt 0.161147 1.02643
vn 0 1 0
v 0 0.450001 0.216447
vt 0.0028414 0.328711
vn 0 -0.101978 0.9947867
v -0.151654 0.382905 0.137061
vt 0.54166 0.0102945
vn -0.5899567 -0.6008507 0.5393788
v 0 0.378397 0.194519
vt 0.0028414 0.0102945
vn 0 -0.5452849 0.8382508
v -0.163444 0.464232 0.140439
vt 0.54166 0.391384
vn -0.657647 0.06058739 0.7508859
v 0.151654 0.382905 0.137061
vn 0.5899564 -0.6008514 0.5393783
v 0 0.464232 0.206073
vt 0.0028414 0.391384
vn 0 0.171904 0.9851137
v 0.163444 0.464232 0.140439
vn 0.657647 0.06058739 0.7508859
v 0.154901 0.636545 -0.0264208
vt 0.548319 0.9365
vn -0.9885776 0.04877258 -0.1426029
v 0.188016 0.583589 -0.0259867
vn -0.8278168 -0.5194129 -0.2119659
v 0.175653 0.605444 0.0428149
vn -0.964501 -0.120742 0.23486
v 0.232593 0.626332 -0.244511
vn -0.9400923 0.04997611 -0.3372371
v 0.186053 0.677351 0.00873376
vn -0.8615029 0.313795 0.399181
v 0.230823 0.772883 -0.195381
vn -0.9407813 0.142913 -0.3074191
vn -0.8246953 0.5597342 0.08108873
v -0.154901 0.636545 -0.0264208
vn 0.9885778 0.04877229 -0.142602
v -0.175653 0.605444 0.0428149
vn 0.9645009 -0.120743 0.23486
v -0.188016 0.583589 -0.0259867
vn 0.8278168 -0.5194129 -0.2119659
v -0.186053 0.677351 0.00873376
vn 0.8615026 0.3137949 0.3991818
v -0.232593 0.626332 -0.244511
vn 0.9400924 0.04997587 -0.3372368
v -0.230823 0.772883 -0.195381
vn 0.9407814 0.1429129 -0.3074188
vn 0.8246952 0.5597342 0.08108883
v -0.0784891 7.450581E-09 0
vt 0.522529 0.724172
vn -0.148619 -0.9888889 -0.003355759
vt 0.522529 0.547314
vt 0.522529 0.650017
v -0.0900714 0.0552504 0.142561
vn -0.4054189 -0.5611069 0.7216609
v 0.0784891 7.450581E-09 0
vn 0.148619 -0.9888889 -0.00335569
v 0.0900714 0.0552504 0.142561
vn 0.4054181 -0.5611072 0.7216612
v -0.229375 0.219727 0.175627
vt 0.522529 0.716995
vn -0.8127408 0.105262 0.5730379
v -0.0642379 0.297357 0.105397
vt 0.522529 0.577027
vn -0.04527481 0.624644 0.7795961
v -0.0934168 0.129346 0.165543
vn -0.2212781 -0.05420142 0.9737034
v 0.229375 0.219727 0.175627
vn 0.8127408 0.105262 0.5730379
v 0.0642379 0.297357 0.105397
vn 0.0452747 0.624644 0.7795961
v 0.0934167 0.129346 0.165543
vn 0.2212781 -0.05420142 0.9737034
v -0.0455301 0.126132 -0.275328
vt 0.0116945 0.343432
vn 0.2978409 -0.7174188 -0.6297628
v -0.0258171 0.114589 -0.296321
v 0.00229339 0.0849281 -0.17024
vn -0.283296 0.339552 -0.8969101
v -0.0781188 0.210253 -0.346131
vn -0.24319 -0.7510739 0.6137969
v -0.0475917 0.096155 -0.28382
vn 0.4719703 0.8507586 0.2312011
v 0 0.295755 -0.00824341
vt 0.146916 0.0885237
vn 0 -0.9997125 0.02397999
vt 0.146916 0.0932098
vt 0.135964 0.0976221
v 0 0.333568 0.134098
vt 0.129979 0.0976221
vn 0 -0.9186472 0.395079
vt -0.116802 1.01022
vt -0.169867 0.704672
vt 0.169911 0.704672
vt 0.116846 1.01022
vt 2.24411E-05 1.03994
vt -0.233625 1.01022
vt 0.163828 0.569921
vt -0.163783 0.569921
vt 0.23367 1.01022
vt 2.24411E-05 0.511572
v -0.171312 0.452134 -0.419813
vt 0.742497 0.284953
vn -0.224177 -0.249565 -0.942052
v -0.148572 0.377467 -0.402395
vt 0.754793 0.244581
vn 0.0309726 -0.273093 -0.9614889
v -0.259927 0.37878 -0.370342
vt 0.694583 0.245291
vn -0.298572 -0.258836 -0.9186178
v -0.0551667 0.467852 -0.417955
vt 0.805297 0.293452
vn 0.0910633 -0.259608 -0.961411
v -0.25854 0.527856 -0.410531
vt 0.695333 0.325896
vn -0.310225 -0.244759 -0.918615
v -0.226844 0.552317 -0.427752
vt 0.712471 0.339122
vt 0.792887 0.154169
vn 0.107895 -0.275916 -0.9551069
v -0.166905 0.462361 -0.381725
vt 0.74488 0.290483
vn -0.01645239 0.2628089 0.9647076
vn -0.102442 0.24531 0.964017
v -0.144165 0.387693 -0.364308
vt 0.757176 0.25011
vn 0.2666351 0.2343931 0.9348613
vn -0.115877 0.259545 0.9587539
vn 0.3306971 0.2431221 0.9118833
v -0.224239 0.554328 -0.413551
vt 0.71388 0.340209
vn 0.3481472 0.2228631 0.9105633
vt 0.129521 0.0963674
vt 0.129219 0.0979321
vt 0.142667 0.0815804
vt 0.126007 0.0979321
vt 0.955707 0.104965
v -0.199071 0.396362 -0.00824341
vt 0.285207 0.172163
vn -0.861465 -0.503263 -0.0678565
vt 0.496378 -0.328827
vt 0.285207 0.522491
vt 0.955707 0.455292
v 0.199071 0.396362 -0.00824341
vn 0.861465 -0.503263 -0.0678564
vt 0.944607 0.991092
vn 0.9802471 -0.0512315 0.191026
vt 0.556059 0.873067
vt 0.476829 0.753562
vt 0.593932 0.696936
vt 0.994639 0.717112
vn -0.9802471 -0.05123101 0.191026
vt 0.915873 0.542998
vn 0.8600194 0.4590557 -0.2227879
vt 0.136108 0.0980286
vt 0.148482 0.082475
vt 0.148482 0.0969743
vt 0.132938 0.0999158
v 0.229574 0.59881 -0.237433
vt 0.0146928 0.342822
vn -0.9804422 0.05181211 -0.189865
v 0.231905 0.581745 -0.25413
v 0.224278 0.59038 -0.212386
v 0.232542 0.626584 -0.24518
v -0.231905 0.581745 -0.25413
vn 0.9804422 0.05180791 -0.189866
v -0.229574 0.59881 -0.237433
v -0.224278 0.59038 -0.212386
v -0.232542 0.626584 -0.24518
vn 0.06121692 -0.9657303 0.2522251
vn -0.6109551 0.7916652 3.813201E-06
vn -0.9256662 -0.3246421 0.194293
vn -0.126236 0.9616262 -0.2435971
vt 0.135785 0.0980577
vt 0.132694 0.0980577
vt 0.132422 0.0999451
o merged_0_0_node
g polygon_0
usemtl lambert3_mat_id
f 1/1/1 2/2/2 3/3/3
f 1/1/1 4/4/4 2/2/2
f 1/1/1 3/3/3 5/5/5
f 1/1/1 6/6/6 4/4/4
f 1/1/1 5/5/5 7/7/7
f 1/1/1 7/7/7 6/6/6
f 2/2/2 8/1/8 3/3/3
f 2/2/2 4/4/4 8/1/8
f 5/5/5 9/8/9 7/7/7
f 5/5/5 3/3/3 10/9/10
f 7/7/7 9/8/9 6/6/6
f 4/4/4 11/6/11 8/1/8
f 4/4/4 6/6/6 12/10/12
f 4/4/4 12/10/12 11/6/11
f 3/3/3 13/5/13 10/9/10
f 3/3/3 8/1/8 13/5/13
f 9/8/9 14/11/14 6/6/6
f 9/8/9 15/12/15 14/11/14
f 6/6/6 14/11/14 12/10/12
f 11/6/11 16/7/16 8/1/8
f 11/6/11 12/10/12 17/11/17
f 11/6/11 18/8/18 16/7/16
f 11/6/11 17/11/17 18/8/18
f 16/7/16 18/8/18 13/5/13
f 16/7/16 13/5/13 8/1/8
f 15/12/15 19/13/19 14/11/14
f 15/12/15 20/14/20 19/13/19
f 15/12/15 21/15/21 20/14/20
f 12/10/12 19/13/19 17/11/17
f 12/10/12 14/11/14 19/13/19
f 18/8/18 17/11/17 22/12/22
f 19/13/19 20/14/20 22/12/22
f 19/13/19 22/12/22 17/11/17
f 20/14/20 23/15/23 22/12/22
f 24/16/24 25/17/25 26/17/26
f 24/16/24 27/18/27 25/17/25
f 24/16/24 26/17/26 28/16/28
f 24/16/24 29/19/29 27/18/27
f 24/16/24 28/16/28 30/20/30
f 24/16/24 30/20/30 29/19/29
f 25/17/25 31/21/31 26/17/26
f 28/16/28 32/20/32 30/20/30
f 28/16/28 26/17/26 33/18/33
f 28/16/28 34/19/34 32/20/32
f 28/16/28 33/18/33 34/19/34
f 29/19/29 30/20/30 35/22/35
f 32/20/32 34/19/34 36/22/36
f 32/20/32 37/23/37 30/20/30
f 32/20/32 36/22/36 37/23/37
f 37/23/37 35/22/35 30/20/30
f 38/24/38 39/25/39 40/26/40
f 38/24/38 41/27/41 39/25/39
f 38/24/38 40/26/40 42/25/42
f 38/24/38 43/28/43 41/27/41
f 38/24/38 42/25/42 44/27/44
f 38/24/38 44/27/44 43/28/43
f 45/29/45 46/29/46 47/29/47
f 45/29/45 48/29/48 46/29/46
f 45/29/45 47/29/47 49/29/49
f 45/29/45 50/29/50 48/29/48
f 45/29/45 49/29/51 50/29/50
f 51/29/52 52/29/53 53/29/54
f 51/29/52 54/29/55 52/29/53
f 51/29/52 53/29/54 55/29/56
f 51/29/52 55/29/56 56/29/57
f 51/29/52 56/29/57 54/29/58
f 57/30/59 26/31/26 31/32/31
f 57/30/59 33/31/33 26/31/26
f 57/30/59 31/32/31 58/31/60
f 57/30/59 58/31/60 33/31/33
f 31/32/31 59/30/61 60/31/62
f 31/32/31 25/31/25 59/30/61
f 60/31/62 59/30/61 27/31/27
f 27/31/27 59/30/61 25/31/25
f 61/33/63 62/34/64 36/34/36
f 61/33/63 63/34/65 62/34/64
f 61/33/63 36/34/36 34/34/34
f 61/33/63 34/34/34 63/34/65
f 64/33/66 35/34/35 65/34/67
f 64/33/66 29/34/29 35/34/35
f 64/33/66 65/34/67 66/34/68
f 64/33/66 66/34/68 29/34/29
f 67/35/69 68/35/63 69/35/70
f 67/35/69 70/35/71 68/35/63
f 67/35/69 69/35/70 71/35/72
f 67/35/69 71/35/72 70/35/71
f 71/35/72 69/35/70 68/35/63
f 71/35/72 68/35/63 70/35/71
f 72/36/73 23/37/23 20/38/20
f 72/36/73 73/39/74 23/37/23
f 72/36/73 20/38/20 21/37/21
f 72/36/73 21/37/21 73/39/74
f 62/40/64 63/41/65 66/42/68
f 62/40/64 66/42/68 65/43/67
f 62/40/64 65/43/67 37/44/37
f 62/40/64 37/44/37 36/45/36
f 63/41/65 60/46/62 66/42/68
f 63/41/65 58/47/60 60/46/62
f 65/43/67 35/48/35 37/44/37
f 58/47/60 31/49/31 60/46/62
f 74/50/75 75/51/76 76/52/77
f 74/50/75 77/53/78 75/51/76
f 74/50/75 76/52/77 78/54/79
f 74/50/75 78/54/79 79/55/79
f 77/53/78 70/56/80 75/51/76
f 80/57/81 76/52/82 81/58/83
f 80/57/81 78/54/84 76/52/82
f 80/57/81 81/58/83 77/53/85
f 80/57/81 82/59/84 78/54/84
f 81/58/83 70/56/86 77/53/85
f 73/60/74 39/61/39 23/62/23
f 73/60/74 40/63/40 39/61/39
f 73/60/74 42/61/42 40/63/40
f 73/60/74 21/62/21 42/61/42
f 39/64/39 83/65/87 23/66/23
f 39/64/39 18/67/18 83/65/87
f 39/64/39 41/68/41 18/67/18
f 42/64/42 21/66/21 84/65/88
f 42/64/42 84/65/88 9/67/9
f 42/64/42 9/67/9 44/68/44
f 50/69/89 49/70/89 47/71/89
f 50/69/89 47/71/89 46/72/89
f 50/69/89 46/72/89 48/73/89
f 56/69/90 52/71/90 54/70/90
f 56/69/90 53/72/90 52/71/90
f 56/69/90 55/73/90 53/72/90
f 58/74/60 34/74/34 33/74/33
f 58/74/60 63/74/65 34/74/34
f 29/74/29 60/74/62 27/74/27
f 29/74/29 66/74/68 60/74/62
f 82/59/91 74/50/91 79/55/91
f 82/59/91 80/57/91 74/50/91
f 22/75/22 23/76/23 83/77/87
f 22/75/22 83/77/87 18/78/18
f 84/77/88 21/76/21 15/75/15
f 84/77/88 15/75/15 9/78/9
f 85/79/92 86/79/92 87/79/92
f 85/79/92 88/79/92 86/79/92
f 89/79/93 90/79/93 91/79/93
f 89/79/93 92/79/93 90/79/93
f 86/79/89 85/79/89 87/79/89
f 86/79/89 88/79/89 85/79/89
f 90/79/90 89/79/90 91/79/90
f 90/79/90 92/79/90 89/79/90
f 81/58/94 76/52/94 75/51/94
f 78/54/95 82/59/95 79/55/95
f 81/58/96 75/51/96 70/56/96
f 80/57/97 77/53/97 74/50/97
f 18/80/18 41/81/41 13/82/13
f 44/81/44 9/80/9 5/82/5
vt 0.973244 0.784661
vt -0.352659 0.784661
vt 0.849327 1.00862
vt -0.352659 1.00862
o merged_1_0_node
g polygon_0
usemtl TEX_ANIM_EYE_mat_id
f 41/83/41 43/84/43 13/85/13
f 13/85/13 43/84/43 10/86/10
f 10/86/10 43/84/43 5/85/5
f 5/85/5 43/84/43 44/83/44
