ply
format ascii 1.0
element vertex 308
property float x
property float y
property float z
property uchar red
property uchar green
property uchar blue
element face 360
property list uchar int vertex_index
end_header
0.40524 -0.06381 0.99941 144 200 110
0.40524 -0.14647 1.11768 144 200 110
0.46546 -0.18744 1.08896 144 200 110
0.46546 -0.10478 0.9707 144 200 110
0.40524 0.39858 1.33518 144 200 110
0.40524 0.31593 1.45345 144 200 110
1.15274 -0.10478 0.9707 144 200 110
1.15274 -0.18744 1.08896 144 200 110
0.46546 0.43956 1.3639 144 200 110
1.15274 0.43956 1.3639 144 200 110
0.40524 0.31593 1.45345 154 214 117
0.46546 0.3569 1.48216 154 214 117
0.46546 -0.18744 1.08896 154 214 117
0.40524 -0.14647 1.11768 154 214 117
1.15274 -0.18744 1.08896 154 214 117
1.15274 0.3569 1.48216 154 214 117
0.46546 0.3569 1.48216 144 200 110
1.15274 0.3569 1.48216 144 200 110
1.47348 -0.14647 1.11768 181 205 105
1.47348 0.31593 1.45345 181 205 105
1.47348 0.39858 1.33518 181 205 105
1.47348 -0.06381 0.99941 181 205 105
1.41537 -0.18744 1.08896 181 205 105
1.41537 -0.10478 0.9707 181 205 105
1.41537 0.43956 1.3639 181 205 105
1.15274 -0.18744 1.08896 181 205 105
1.15274 -0.10478 0.9707 181 205 105
1.15274 0.43956 1.3639 181 205 105
1.41537 -0.18744 1.08896 190 215 110
1.15274 -0.18744 1.08896 190 215 110
1.15274 0.3569 1.48216 190 215 110
1.41537 0.3569 1.48216 190 215 110
1.47348 -0.14647 1.11768 190 215 110
1.47348 0.31593 1.45345 190 215 110
1.41537 0.3569 1.48216 181 205 105
1.15274 0.3569 1.48216 181 205 105
-0.40524 -0.06381 0.99941 144 200 110
-0.46546 -0.10478 0.9707 144 200 110
-0.46546 -0.18744 1.08896 144 200 110
-0.40524 -0.14647 1.11768 144 200 110
-0.40524 0.39858 1.33518 144 200 110
-0.40524 0.31593 1.45345 144 200 110
-1.15274 -0.10478 0.9707 144 200 110
-1.15274 -0.18744 1.08896 144 200 110
-0.46546 0.43956 1.3639 144 200 110
-1.15274 0.43956 1.3639 144 200 110
-0.40524 0.31593 1.45345 154 214 117
-0.40524 -0.14647 1.11768 154 214 117
-0.46546 -0.18744 1.08896 154 214 117
-0.46546 0.3569 1.48216 154 214 117
-1.15274 -0.18744 1.08896 154 214 117
-1.15274 0.3569 1.48216 154 214 117
-0.46546 0.3569 1.48216 144 200 110
-1.15274 0.3569 1.48216 144 200 110
-1.47348 -0.14647 1.11768 181 205 105
-1.47348 -0.06381 0.99941 181 205 105
-1.47348 0.39858 1.33518 181 205 105
-1.47348 0.31593 1.45345 181 205 105
-1.41537 -0.18744 1.08896 181 205 105
-1.41537 -0.10478 0.9707 181 205 105
-1.41537 0.43956 1.3639 181 205 105
-1.15274 -0.18744 1.08896 181 205 105
-1.15274 -0.10478 0.9707 181 205 105
-1.15274 0.43956 1.3639 181 205 105
-1.41537 -0.18744 1.08896 190 215 110
-1.41537 0.3569 1.48216 190 215 110
-1.15274 0.3569 1.48216 190 215 110
-1.15274 -0.18744 1.08896 190 215 110
-1.47348 -0.14647 1.11768 190 215 110
-1.47348 0.31593 1.45345 190 215 110
-1.41537 0.3569 1.48216 181 205 105
-1.15274 0.3569 1.48216 181 205 105
0.17001 -0.12308 2.46296 211 244 108
0.12359 -0.16338 2.46297 211 244 108
-0.12201 -0.16338 2.46297 211 244 108
-0.16843 -0.12308 2.46296 211 244 108
-0.16843 0.14078 2.46286 211 244 108
0.17001 0.14078 2.46286 211 244 108
0.12359 0.1873 2.46285 211 244 108
-0.12201 0.1873 2.46285 211 244 108
-0.41965 0.39126 2.21935 204 237 106
-0.42009 0.39111 1.08005 204 237 106
-0.36646 0.44519 1.06836 204 237 106
-0.36639 0.44574 2.21932 204 237 106
-0.35511 0.33534 2.29688 204 237 106
-0.31016 0.38131 2.29686 204 237 106
0.36797 0.44574 2.21933 204 237 106
0.31175 0.38131 2.29686 204 237 106
-0.35511 -0.32336 2.29711 204 237 106
-0.41965 -0.38671 2.21962 204 237 106
0.42123 0.39126 2.21935 204 237 106
0.35669 0.33534 2.29688 204 237 106
0.42123 -0.38671 2.21962 204 237 106
0.35669 -0.32336 2.29711 204 237 106
-0.4217 -0.38776 1.31267 204 237 106
0.36773 0.44519 1.06836 204 237 106
0.36748 0.42281 1.02156 204 237 106
0.42143 0.36913 1.04491 204 237 106
0.36673 0.05609 0.66257 204 237 106
-0.36673 0.05609 0.66257 204 237 106
-0.36652 0.42281 1.02156 204 237 106
0.4217 0.02439 0.709 204 237 106
0.4217 -0.38776 1.31267 204 237 106
-0.42053 0.36913 1.04491 204 237 106
-0.4217 0.02439 0.709 204 237 106
0.42133 0.39111 1.08005 204 237 106
-0.36639 -0.42072 2.21964 204 237 106
0.36797 -0.42072 2.21964 204 237 106
0.36673 -0.41946 1.3591 204 237 106
-0.36673 -0.41946 1.3591 204 237 106
0.31175 -0.35623 2.29713 204 237 106
-0.31016 -0.35623 2.29713 204 237 106
-0.46855 -0.56528 1.24063 222 193 183
-0.46855 -0.45287 1.31738 222 193 183
-0.40747 -0.4881 1.36897 222 193 183
-0.40747 -0.60051 1.29223 222 193 183
0.40747 -0.60051 1.29223 222 193 183
0.40747 -0.4881 1.36897 222 193 183
0.46855 -0.56528 1.24063 222 193 183
0.46855 -0.45287 1.31738 222 193 183
-0.36673 -0.6158 1.22505 222 193 183
0.36673 -0.6158 1.22505 222 193 183
-0.4217 -0.58409 1.17862 222 193 183
0.4217 -0.58409 1.17862 222 193 183
-0.46855 0.00507 0.64664 211 185 176
-0.46855 -0.10734 0.5699 211 185 176
-0.40747 -0.07211 0.5183 211 185 176
-0.40747 0.04029 0.59505 211 185 176
0.40747 0.04029 0.59505 211 185 176
0.40747 -0.07211 0.5183 211 185 176
0.46855 0.00507 0.64664 211 185 176
0.46855 -0.10734 0.5699 211 185 176
-0.36673 0.05609 0.66257 211 185 176
0.36673 0.05609 0.66257 211 185 176
-0.4217 0.02439 0.709 211 185 176
-0.4217 -0.38776 1.31267 211 185 176
-0.46855 -0.45287 1.31738 211 185 176
0.4217 0.02439 0.709 211 185 176
0.46855 -0.45287 1.31738 211 185 176
0.4217 -0.38776 1.31267 211 185 176
0.29949 -0.41641 1.26758 40 38 32
0.34438 -0.39052 1.22965 40 38 32
-0.34438 -0.39052 1.22965 40 38 32
-0.29949 -0.41641 1.26758 40 38 32
-0.34438 -0.05393 0.73666 40 38 32
0.34438 -0.05393 0.73666 40 38 32
-0.29949 -0.02804 0.69874 40 38 32
0.29949 -0.02804 0.69874 40 38 32
0.46855 -0.56528 1.24063 211 185 176
0.4217 -0.58409 1.17862 211 185 176
0.4217 -0.17194 0.57496 211 185 176
0.36673 -0.14024 0.52852 211 185 176
-0.36673 -0.14024 0.52852 211 185 176
-0.4217 -0.17194 0.57496 211 185 176
-0.46855 -0.56528 1.24063 211 185 176
-0.4217 -0.58409 1.17862 211 185 176
-0.34438 -0.20972 0.63029 211 185 176
-0.34438 -0.54631 1.12328 211 185 176
-0.36673 -0.6158 1.22505 211 185 176
-0.29949 -0.5722 1.16121 211 185 176
0.36673 -0.6158 1.22505 211 185 176
0.29949 -0.5722 1.16121 211 185 176
-0.29949 -0.18383 0.59237 211 185 176
0.29949 -0.18383 0.59237 211 185 176
0.34438 -0.20972 0.63029 211 185 176
0.34438 -0.54631 1.12328 211 185 176
-0.34438 -0.05393 0.73666 211 185 176
-0.34438 -0.39052 1.22965 211 185 176
0.34438 -0.39052 1.22965 211 185 176
0.34438 -0.05393 0.73666 211 185 176
-0.4217 -0.38776 1.31267 222 193 183
-0.36673 -0.41946 1.3591 222 193 183
0.36673 -0.41946 1.3591 222 193 183
0.4217 -0.38776 1.31267 222 193 183
0.29949 -0.41641 1.26758 211 185 176
-0.29949 -0.41641 1.26758 211 185 176
-0.34438 -0.20972 0.63029 222 193 183
-0.34438 -0.05393 0.73666 222 193 183
-0.29949 -0.02804 0.69874 222 193 183
-0.29949 -0.18383 0.59237 222 193 183
0.29949 -0.02804 0.69874 222 193 183
0.29949 -0.18383 0.59237 222 193 183
0.34438 -0.05393 0.73666 222 193 183
0.34438 -0.20972 0.63029 222 193 183
-0.35511 0.33534 2.29688 211 244 108
-0.20474 0.18151 2.29693 211 244 108
-0.20474 -0.16503 2.29706 211 244 108
-0.35511 -0.32336 2.29711 211 244 108
-0.16033 -0.20094 2.29707 211 244 108
-0.31016 -0.35623 2.29713 211 244 108
0.16191 -0.20094 2.29707 211 244 108
0.31175 -0.35623 2.29713 211 244 108
0.20632 -0.16503 2.29706 211 244 108
0.35669 -0.32336 2.29711 211 244 108
0.20632 0.18151 2.29693 211 244 108
0.35669 0.33534 2.29688 211 244 108
0.16191 0.22499 2.29692 211 244 108
0.31175 0.38131 2.29686 211 244 108
-0.16033 0.22499 2.29692 211 244 108
-0.31016 0.38131 2.29686 211 244 108
-0.20474 0.18151 2.29693 204 237 106
-0.20474 0.18155 2.42471 204 237 106
-0.20474 -0.16498 2.42484 204 237 106
-0.20474 -0.16503 2.29706 204 237 106
-0.16033 0.22499 2.29692 204 237 106
-0.16033 0.22503 2.4247 204 237 106
0.16191 0.22499 2.29692 204 237 106
0.16191 0.22503 2.4247 204 237 106
0.20632 0.18151 2.29693 204 237 106
0.20632 0.18155 2.42471 204 237 106
0.20632 -0.16503 2.29706 204 237 106
0.20632 -0.16498 2.42484 204 237 106
-0.16843 -0.12308 2.46296 204 237 106
-0.16843 0.14078 2.46286 204 237 106
0.17001 0.14078 2.46286 204 237 106
0.17001 -0.12308 2.46296 204 237 106
0.12359 0.1873 2.46285 204 237 106
-0.12201 0.1873 2.46285 204 237 106
-0.16033 -0.2009 2.42485 204 237 106
-0.16033 -0.20094 2.29707 204 237 106
0.16191 -0.2009 2.42485 204 237 106
0.16191 -0.20094 2.29707 204 237 106
-0.12201 -0.16338 2.46297 204 237 106
0.12359 -0.16338 2.46297 204 237 106
0.16551 -0.46808 1.54275 58 57 56
0.16551 -0.46808 1.67939 58 57 56
0.30215 -0.46808 1.67939 58 57 56
0.30215 -0.46808 1.54275 58 57 56
0.11327 -0.46808 1.73163 250 254 249
0.11327 -0.40762 1.73163 250 254 249
0.3544 -0.40762 1.73163 250 254 249
0.3544 -0.46808 1.73163 250 254 249
0.3544 -0.46808 1.4905 250 254 249
0.3544 -0.40762 1.4905 250 254 249
0.11327 -0.40762 1.4905 250 254 249
0.11327 -0.46808 1.4905 250 254 249
0.30215 -0.46808 1.54275 250 254 249
0.16551 -0.46808 1.54275 250 254 249
0.30215 -0.46808 1.67939 250 254 249
0.16551 -0.46808 1.67939 250 254 249
-0.16551 -0.46808 1.54275 58 57 56
-0.30215 -0.46808 1.54275 58 57 56
-0.30215 -0.46808 1.67939 58 57 56
-0.16551 -0.46808 1.67939 58 57 56
-0.11327 -0.46808 1.73163 250 254 249
-0.3544 -0.46808 1.73163 250 254 249
-0.3544 -0.40762 1.73163 250 254 249
-0.11327 -0.40762 1.73163 250 254 249
-0.3544 -0.46808 1.4905 250 254 249
-0.3544 -0.40762 1.4905 250 254 249
-0.11327 -0.40762 1.4905 250 254 249
-0.11327 -0.46808 1.4905 250 254 249
-0.30215 -0.46808 1.54275 250 254 249
-0.16551 -0.46808 1.54275 250 254 249
-0.30215 -0.46808 1.67939 250 254 249
-0.16551 -0.46808 1.67939 250 254 249
-0.08817 -0.07254 2.44492 137 134 106
-0.08817 -0.07254 2.76032 137 134 106
0.08817 -0.07254 2.76032 137 134 106
0.08817 -0.07254 2.44492 137 134 106
0.08817 0.10381 2.58959 137 134 106
0.08817 0.10381 2.44492 137 134 106
-0.08817 0.10381 2.44492 137 134 106
-0.08817 0.10381 2.58959 137 134 106
0.08817 -0.03456 2.797 142 139 110
0.08817 -0.07254 2.76032 142 139 110
-0.08817 -0.07254 2.76032 142 139 110
-0.08817 -0.03456 2.797 142 139 110
-0.07035 0.42304 2.78011 137 134 106
-0.07035 0.42304 2.64256 137 134 106
0.07035 0.42304 2.64256 137 134 106
0.07035 0.42304 2.78011 137 134 106
0.08793 0.39869 2.7973 137 134 106
0.08793 0.39869 2.62536 137 134 106
-0.08793 0.39869 2.62536 137 134 106
0.08805 0.1336 2.62551 137 134 106
-0.08805 0.1336 2.62551 137 134 106
-0.08793 0.39869 2.7973 137 134 106
-0.08817 -0.03456 2.797 137 134 106
0.08817 -0.03456 2.797 137 134 106
-0.08793 0.39869 2.7973 142 139 110
0.08793 0.39869 2.7973 142 139 110
0.07035 0.42304 2.78011 142 139 110
-0.07035 0.42304 2.78011 142 139 110
-0.1867 -0.4343 1.79615 153 201 55
-0.1867 -0.4343 1.91931 153 201 55
-0.06149 -0.4343 1.91931 153 201 55
-0.06149 -0.4343 1.79615 153 201 55
-0.06149 -0.41443 1.91931 153 201 55
-0.1867 -0.41443 1.91931 153 201 55
-0.1867 -0.41443 1.79615 153 201 55
-0.06149 -0.41443 1.79615 153 201 55
0.10869 -0.43094 1.95473 153 201 55
0.10869 -0.43094 2.03625 153 201 55
0.19157 -0.43094 2.03625 153 201 55
0.19157 -0.43094 1.95473 153 201 55
0.19157 -0.41779 2.03625 153 201 55
0.10869 -0.41779 2.03625 153 201 55
0.10869 -0.41779 1.95473 153 201 55
0.19157 -0.41779 1.95473 153 201 55
-0.08572 -0.43094 2.09867 153 201 55
-0.08572 -0.43094 2.15946 153 201 55
-0.02619 -0.43094 2.15946 153 201 55
-0.02619 -0.43094 2.09867 153 201 55
-0.02619 -0.41779 2.15946 153 201 55
-0.08572 -0.41779 2.15946 153 201 55
-0.08572 -0.41779 2.09867 153 201 55
-0.02619 -0.41779 2.09867 153 201 55
3 0 2 1
3 0 3 2
3 1 4 0
3 1 5 4
3 2 3 6
3 2 6 7
3 8 0 4
3 8 3 0
3 3 9 6
3 3 8 9
3 10 12 11
3 10 13 12
3 14 11 12
3 14 15 11
3 5 8 4
3 5 16 8
3 8 16 17
3 8 17 9
3 18 20 19
3 18 21 20
3 22 21 18
3 22 23 21
3 24 21 23
3 24 20 21
3 25 23 22
3 25 26 23
3 26 24 23
3 26 27 24
3 28 30 29
3 28 31 30
3 32 31 28
3 32 33 31
3 24 19 20
3 24 34 19
3 27 34 24
3 27 35 34
3 36 38 37
3 36 39 38
3 39 36 40
3 39 40 41
3 38 42 37
3 38 43 42
3 44 36 37
3 44 40 36
3 37 45 44
3 37 42 45
3 46 48 47
3 46 49 48
3 50 48 49
3 50 49 51
3 41 44 52
3 41 40 44
3 44 53 52
3 44 45 53
3 54 56 55
3 54 57 56
3 58 54 55
3 58 55 59
3 60 55 56
3 60 59 55
3 61 58 59
3 61 59 62
3 62 59 60
3 62 60 63
3 64 66 65
3 64 67 66
3 68 64 65
3 68 65 69
3 60 57 70
3 60 56 57
3 63 60 70
3 63 70 71
3 72 74 73
3 72 75 74
3 76 75 72
3 76 72 77
3 76 77 78
3 76 78 79
3 80 82 81
3 80 83 82
3 83 80 84
3 83 84 85
3 86 83 85
3 86 85 87
3 80 88 84
3 80 89 88
3 81 89 80
3 90 86 87
3 90 87 91
3 92 90 91
3 92 91 93
3 81 94 89
3 95 83 86
3 95 82 83
3 96 82 95
3 97 96 95
3 98 96 97
3 99 96 98
3 99 100 96
3 98 97 101
3 102 101 97
3 102 90 92
3 103 100 99
3 104 94 103
3 103 99 104
3 102 97 105
3 97 95 105
3 102 105 90
3 96 100 82
3 81 100 103
3 81 82 100
3 103 94 81
3 105 95 86
3 105 86 90
3 106 108 107
3 106 109 108
3 107 108 102
3 107 102 92
3 106 107 110
3 106 110 111
3 89 106 111
3 89 111 88
3 107 93 110
3 107 92 93
3 94 106 89
3 94 109 106
3 112 114 113
3 112 115 114
3 114 115 116
3 114 116 117
3 117 116 118
3 117 118 119
3 116 115 120
3 116 120 121
3 118 116 121
3 115 122 120
3 115 112 122
3 118 121 123
3 124 126 125
3 124 127 126
3 126 127 128
3 126 128 129
3 129 128 130
3 129 130 131
3 128 127 132
3 128 132 133
3 130 128 133
3 127 134 132
3 127 124 134
3 124 135 134
3 124 136 135
3 130 133 137
3 138 130 137
3 138 137 139
3 140 142 141
3 140 143 142
3 141 142 144
3 141 144 145
3 145 144 146
3 145 146 147
3 148 130 138
3 148 131 130
3 131 148 149
3 131 149 150
3 129 131 150
3 129 150 151
3 126 129 151
3 126 151 152
3 125 126 152
3 125 152 153
3 154 125 153
3 125 154 136
3 125 136 124
3 154 153 155
3 155 153 156
3 155 156 157
3 158 155 157
3 158 157 159
3 160 158 159
3 160 159 161
3 153 162 156
3 153 152 162
3 152 163 162
3 152 151 163
3 151 164 163
3 151 150 164
3 150 165 164
3 150 149 165
3 149 161 165
3 149 160 161
3 157 156 166
3 157 166 167
3 164 165 168
3 164 168 169
3 113 171 170
3 113 114 171
3 114 172 171
3 114 117 172
3 117 173 172
3 117 119 173
3 161 175 174
3 161 159 175
3 159 167 175
3 159 157 167
3 165 161 174
3 165 174 168
3 176 178 177
3 176 179 178
3 179 180 178
3 179 181 180
3 181 182 180
3 181 183 182
3 184 186 185
3 184 187 186
3 187 188 186
3 187 189 188
3 189 190 188
3 189 191 190
3 191 192 190
3 191 193 192
3 193 194 192
3 193 195 194
3 195 196 194
3 195 197 196
3 197 198 196
3 197 199 198
3 199 185 198
3 199 184 185
3 200 202 201
3 200 203 202
3 204 200 201
3 204 201 205
3 206 204 205
3 206 205 207
3 208 206 207
3 208 207 209
3 210 208 209
3 210 209 211
3 201 202 212
3 201 212 213
3 205 201 213
3 211 209 214
3 211 214 215
3 209 216 214
3 209 207 216
3 207 217 216
3 207 205 217
3 205 213 217
3 203 218 202
3 203 219 218
3 219 220 218
3 219 221 220
3 221 211 220
3 221 210 211
3 202 218 222
3 202 222 212
3 218 223 222
3 218 220 223
3 220 215 223
3 220 211 215
3 224 226 225
3 224 227 226
3 228 230 229
3 228 231 230
3 232 230 231
3 232 233 230
3 234 233 232
3 234 228 229
3 234 232 235
3 234 235 228
3 235 232 236
3 235 236 237
3 228 235 237
3 232 238 236
3 232 231 238
3 231 239 238
3 231 228 239
3 228 237 239
3 240 242 241
3 240 243 242
3 244 246 245
3 244 247 246
3 248 245 246
3 248 246 249
3 250 248 249
3 250 247 244
3 250 251 248
3 250 244 251
3 251 252 248
3 251 253 252
3 244 253 251
3 248 254 245
3 248 252 254
3 245 255 244
3 245 254 255
3 244 255 253
3 256 258 257
3 256 259 258
3 259 260 258
3 259 261 260
3 262 256 257
3 262 257 263
3 264 266 265
3 264 267 266
3 268 270 269
3 268 271 270
3 272 270 271
3 272 273 270
3 273 269 270
3 273 274 269
3 274 268 269
3 275 274 273
3 275 276 274
3 276 277 274
3 274 277 268
3 276 278 277
3 263 278 276
3 263 257 278
3 260 276 275
3 260 263 276
3 263 260 261
3 263 261 262
3 260 275 279
3 279 273 272
3 279 275 273
3 260 279 258
3 267 281 280
3 267 264 281
3 280 281 282
3 280 282 283
3 284 286 285
3 284 287 286
3 285 286 288
3 287 288 286
3 285 288 289
3 290 287 284
3 290 285 289
3 290 284 285
3 290 291 287
3 287 291 288
3 292 294 293
3 292 295 294
3 293 294 296
3 295 296 294
3 293 296 297
3 298 295 292
3 298 293 297
3 298 292 293
3 298 299 295
3 295 299 296
3 300 302 301
3 300 303 302
3 301 302 304
3 303 304 302
3 301 304 305
3 306 303 300
3 306 301 305
3 306 300 301
3 306 307 303
3 303 307 304
