mtllib Dwebble.mtl
v 0.143101 0.143368 0.119551
vt 0.416102 0.13907
vn 0.9984979 -0.04995459 -0.0225047
v 0.0849732 0.08074121 0.0172204
vt 0.497371 0.0578247
vn 0.5748898 -0.7521186 -0.3222099
v 0.114105 0.143368 0.0172204
vt 0.497359 0.139082
vn 0.9660607 -0.05504708 -0.2523819
v 0.102075 0.05561861 0.119551
vt 0.416114 0.0578123
vn 0.6106501 -0.7915451 -0.0237251
v 0.0849732 0.232038 0.0172204
vt 0.497347 0.220339
vn 0.6097966 0.6730206 -0.4185587
v 0.0924888 0.06970091 0.188918
vt 0.334857 0.0577999
vn 0.5349519 -0.6829079 0.4974569
v 0.102075 0.257161 0.119551
vt 0.416089 0.220327
vn 0.6496532 0.7598453 -0.02420461
v 0.126848 0.143368 0.188918
vt 0.334844 0.139057
vn 0.868925 -0.04240241 0.493124
v 0.0924889 0.243078 0.188918
vt 0.334832 0.220315
vn 0.552164 0.633851 0.541616
v 0 0.03825641 0.119551
vt 0.41612 0.0171836
vn 0 -0.9997689 -0.0215019
v 0 0.063379 0.0172204
vt 0.497378 0.0171959
vn 0 -0.9335375 -0.3584798
v 0.0662983 0.204605 0.224662
vt 0.253574 0.220302
vn 0.2834859 0.3642809 0.8870937
v 0 0.05233872 0.188918
vt 0.334863 0.0171712
vn -1.17648E-05 -0.8864971 0.4627341
v 0.0662991 0.108174 0.23335
vt 0.253599 0.0577875
vn 0.294986 -0.3799929 0.8766919
v 0.0824439 0.143368 0.233352
vt 0.253587 0.139045
vn 0.4607739 0.008810649 0.8874738
v 0 0.09081221 0.233343
vt 0.253605 0.0171588
vn -6.276279E-05 -0.5307079 0.8475548
v 0 0.132645 -0.0998019
vt 0.00129589 0.0986402
vn 0 -0.133897 -0.9909952
vt 0.583851 0.167317
vt 0.583851 0.0986402
v 0.0844343 0.132267 -0.0998019
vt 0.00129569 0.166882
vn 0.7759513 -0.104723 -0.6220392
v -0.0849732 0.08074121 0.0172204
vt 0.583851 0.0299633
vn -0.5748898 -0.7521186 -0.3222099
v -0.0844343 0.132267 -0.0998019
vt 0.00129586 0.0303989
vn -0.7759508 -0.104723 -0.6220398
v 0 0.2494 0.0172204
vn 0 0.8763258 -0.4817189
v -0.0849732 0.232038 0.0172204
vn -0.6097966 0.6730206 -0.4185587
vt 0.583851 0.190862
v -0.114105 0.143368 0.0172204
vt 0.583851 0.00641826
vn -0.9660607 -0.05504698 -0.2523819
v -0.143101 0.143368 0.119551
vt 0.417419 0.140387
vn -0.9984979 -0.04995459 -0.0225046
vt 0.498688 0.0591416
v -0.102075 0.05561861 0.119551
vt 0.417431 0.0591292
vn -0.6106501 -0.7915451 -0.0237251
vt 0.498676 0.140399
v -0.0924888 0.06970091 0.188918
vt 0.336173 0.0591168
vn -0.534938 -0.682875 0.497517
vt 0.498664 0.221656
v -0.126848 0.143368 0.188918
vt 0.336161 0.140374
vn -0.868889 -0.0424088 0.493187
v -0.102075 0.257161 0.119551
vt 0.417406 0.221644
vn -0.6496532 0.7598453 -0.02420461
v -0.0924889 0.243078 0.188918
vt 0.336149 0.221632
vn -0.5521571 0.6338321 0.5416451
vt 0.417437 0.0185005
vt 0.498694 0.0185128
v -0.0662983 0.204605 0.224662
vt 0.254891 0.221619
vn -0.283527 0.3641999 0.8871138
v -0.0662974 0.108174 0.233337
vt 0.254916 0.0591044
vn -0.2950619 -0.3799389 0.8766897
v -0.0824422 0.143368 0.233335
vt 0.254904 0.140362
vn -0.4608079 0.008746139 0.8874568
vt 0.33618 0.0184881
v 0 0.143368 0.249604
vt 0.17364 0.180978
vn -7.83174E-05 0.0273486 0.999626
vt 0.254922 0.0184757
v 0 0.325366 -0.245886
vt 0.540009 0.620178
vn 0 0.492446 -0.870343
v 0.0382421 0.207139 -0.282346
vt 0.742799 0.53353
vn 0.2187009 -0.1585999 -0.9628167
v -0.038242 0.207139 -0.282346
vt 0.742799 0.710023
vn -0.2187989 -0.158889 -0.9627467
v 0.138361 0.276145 -0.237811
vt 0.630968 0.397545
vn 0.6102161 0.190936 -0.7688821
v -0.138361 0.276145 -0.237811
vt 0.630968 0.846008
vn -0.6108522 0.190516 -0.7684812
v 0.109147 0.375522 -0.189595
vt 0.433153 0.397888
vn 0.5180628 0.6945937 -0.4991498
v -0.109147 0.375522 -0.189595
vt 0.433153 0.845665
vn -0.5185402 0.6946753 -0.4985402
v 0.0472698 0.410211 -0.170488
vt 0.333782 0.524814
vn 0.17708 0.9203708 -0.3486549
v -0.0472698 0.410211 -0.170488
vt 0.333782 0.718739
vn -0.177173 0.9204479 -0.348404
v 8.92482E-05 0.138772 -0.233119
vt 0.853598 0.621632
vn 4.22523E-05 -0.4502989 -0.8928779
v 0.165584 0.231549 -0.182014
vt 0.70324 0.353426
vn 0.7448066 0.07988106 -0.6624817
v -0.165406 0.231549 -0.182014
vt 0.70324 0.889837
vn -0.7450237 0.07962396 -0.6622687
v 2.31518E-05 0.0759252 -0.22742
vt 0.979423 0.621739
vn 0.000106144 -0.466656 -0.8844389
v 0.221862 0.20029 -0.158916
vt 0.915324 0.241443
vn 0.7769158 0.03729639 -0.6284988
v -0.221816 0.20029 -0.158916
vt 0.856188 0.981257
vn -0.7765131 0.0375865 -0.6289791
v -0.102192 0.381667 -0.0993248
vt 0.175501 0.78872
vn -0.4262598 0.8652566 -0.2638819
v -0.170236 0.352463 -0.0610223
vt 0.113427 0.898994
vn -0.8022626 0.5357857 -0.2632649
v -0.137081 0.401517 -0.0480742
vt 0.092443 0.845262
vn -0.4661307 0.8740675 -0.1368509
vt 0.434175 0.844816
v -0.0737267 0.406567 -0.0312202
vt 0.0651289 0.742588
vn -0.04100809 0.9983227 0.04086808
v 0.0737267 0.406567 -0.0312202
vt 0.0651289 0.503621
vn 0.04098071 0.9983233 0.04087911
v 0.102371 0.381667 -0.0993248
vt 0.175501 0.4572
vn 0.4263632 0.8651614 -0.2640271
vt 0.332385 0.527319
vt 0.335581 0.722087
vt 0.432884 0.845169
vt 0.272076 0.982586
v -0.147453 0.35882 0.0554602
vt -0.0753478 0.862072
vn -0.516871 0.45797 0.723262
v 0.137127 0.401517 -0.0480742
vt 0.092443 0.400872
vn 0.4665247 0.8739024 -0.1365629
v 0.147453 0.35882 0.0554602
vt -0.0753478 0.384137
vn 0.5169119 0.4578069 0.7233359
vt 0.433675 0.396672
v 0.170236 0.352463 -0.0610223
vt 0.113427 0.347215
vn 0.8026913 0.5354472 -0.2626461
vt 0.430978 0.399506
vt 0.272076 0.263548
v 0.0462248 0.124663 0.0190406
vt 0.164551 0.116831
vn -0.146441 -0.4770371 -0.8665972
v 0.113547 0.236614 0.276064
vt 0.373524 0.0118123
vn 0.5723181 -0.322933 0.7537681
v 0.0670948 0.236614 0.283914
vt 0.373595 0.0466766
vn -0.292862 -0.322933 0.8999701
v 0.0401032 0.287983 0.265558
vt 0.373666 0.0815409
vn -0.7514185 0.2149899 0.6238186
v 0.0595643 0.339353 0.239351
vt 0.373737 0.116405
vn -0.4517481 0.8480822 0.2769121
v 0.106017 0.339353 0.231502
vt 0.373808 0.151269
vn 0.517654 0.8480819 0.113099
v 0.133009 0.287983 0.249858
vt 0.373879 0.186134
vn 0.9146732 0.21499 0.3422751
vt 0.37395 0.220998
v -0.0461778 0.124473 0.0187625
vn 0.14644 -0.477043 -0.8665941
v -0.0670948 0.236614 0.283914
vn 0.292817 -0.322849 0.9000149
v -0.113547 0.236614 0.276064
vn -0.5722902 -0.3228491 0.7538252
v -0.0401032 0.287983 0.265558
vn 0.7513603 0.2150231 0.6238772
v -0.0595643 0.339353 0.239351
vn 0.4516959 0.8480819 0.276998
v -0.106017 0.339353 0.231502
vn -0.5176329 0.8480818 0.113197
v -0.133009 0.287983 0.249858
vn -0.9146378 0.215023 0.3423489
v 0.203986 -0.004688293 -0.03476879
vt 0.404008 0.116192
vn 0.06140622 -0.9968731 -0.04973123
v 0.145707 0.05155006 -0.02928737
vt 0.403795 0.0115995
vn -0.4697349 -0.8826154 -0.01841429
v 0.139887 0.05132904 -0.06324081
vt 0.508601 0.115979
vn -0.228659 -0.3336922 -0.9145298
v 0.143213 0.04813446 0.004901511
vt 0.299415 0.116405
vn -0.1466453 -0.4178732 0.896592
v 0.154369 0.06824186 -0.02892766
vt 0.404221 0.220785
vn 0.475294 0.8796542 0.01743999
v -0.203986 -0.004688293 -0.03476879
vn -0.06140622 -0.9968731 -0.04973143
v -0.139887 0.05132904 -0.06324081
vn 0.228659 -0.3336922 -0.9145298
v -0.145707 0.05155006 -0.02928737
vn 0.4697349 -0.8826154 -0.01841429
v -0.154369 0.06824186 -0.02892766
vn -0.475294 0.8796542 0.01743989
v -0.143213 0.04813446 0.004901511
vn 0.1466444 -0.4178733 0.8965921
v 0 0.274523 0.119551
vt 0.216048 0.0172909
vn 0 0.9997689 -0.021502
vt 0.158779 0.0722664
vt 0.158955 0.0166038
vt 0.215872 0.0729535
vt 0.272965 0.0736407
v 0 0.260441 0.188918
vt 0.273141 0.017978
vn 0 0.85987 0.510513
vt 0.330058 0.0743278
v 0 0.221967 0.224662
vt 0.330235 0.0186652
vn 0 0.4876559 0.8730359
vt 0.387328 0.0193524
vt 0.0265984 0.193753
vt 0.284038 0.069493
vt 0.336674 0.193753
vt 0.026601 0.00819159
vt 0.214479 0.0165064
vt 0.15721 0.0714818
vt 0.214303 0.072169
vt 0.157386 0.0158192
vt 0.271396 0.0728561
vt 0.271572 0.0171935
vt 0.328489 0.0735432
vt 0.328665 0.0178807
vt 0.385759 0.0185678
v 0.114247 0.06353888 0.2124932
vt 0.277262 0.0384589
vn -0.8572653 -0.2049907 0.4723082
v 0.180098 0.02275205 0.2175995
vt 0.590633 0.0121507
vn -0.0006404584 -0.9977326 -0.06729951
v 0.153933 0.04715863 0.2380846
vt 0.590686 0.0382988
vn -0.7319053 -0.3338172 0.5940377
v 0.171813 0.009842479 0.1674249
vt 0.277209 0.0123107
vn -0.0071524 -0.9936233 -0.1125238
v 0.188132 0.07500988 0.2501162
vt 0.590739 0.064447
vn 0.1347131 0.2215084 0.9658087
v 0.189487 0.1248134 0.2389636
vt 0.277315 0.064607
vn 0.117201 0.5576385 0.8217683
v 0.214297 0.05060321 0.2296311
vt 0.590792 0.0905953
vn 0.8546816 -0.3679727 0.3662178
v 0.247052 0.07111717 0.1938953
vt 0.277369 0.0907553
vn 0.9461105 -0.2341188 0.2237484
vt 0.277422 0.116903
vt 0.590846 0.116743
v 0.106355 0.1055573 0.1426466
vt 0.257715 0.128591
vn -0.9744352 0.1786578 -0.1362257
vt 0.22902 0.128533
vt 0.228967 0.154681
vt 0.229074 0.102385
v 0.181594 0.1668326 0.1691169
vt 0.260965 0.154746
vn 0.02783996 0.9750443 0.2202578
v 0.16392 0.05186164 0.09757763
vt 0.262989 0.102454
vn -0.1078544 -0.6509055 -0.7514582
vt 0.228914 0.180829
v 0.239159 0.1131357 0.1240486
vt 0.259339 0.180891
vn 0.9113827 0.1480243 -0.3840186
vt 0.262777 0.207046
vt 0.228861 0.206977
v -0.114247 0.06353888 0.2124932
vn 0.8572649 -0.2049907 0.472309
v -0.180098 0.02275205 0.2175995
v -0.171813 0.009842479 0.1674249
vn 0.007152459 -0.9936233 -0.1125238
v -0.153933 0.04715863 0.2380846
vn 0.7319053 -0.3338172 0.5940377
v -0.188132 0.07500988 0.2501162
vn -0.1347131 0.2215084 0.9658087
v -0.189487 0.1248134 0.2389636
vn -0.1172 0.5576386 0.8217685
v -0.214297 0.05060321 0.2296311
vn -0.8546813 -0.367973 0.3662181
v -0.247052 0.07111717 0.1938953
vn -0.9461105 -0.2341188 0.2237484
v -0.106355 0.1055573 0.1426466
vn 0.9744352 0.1786578 -0.1362257
v -0.181594 0.1668326 0.1691169
vn -0.02783976 0.9750443 0.2202578
v -0.16392 0.05186164 0.09757763
vn 0.1078544 -0.6509055 -0.7514582
v -0.239159 0.1131357 0.1240486
vn -0.9113827 0.1480252 -0.3840185
v 0 0.18222 -0.0107999
vt 0.898606 0.169479
vn 0 -0.4853429 0.8743239
v -0.238585 0.142404 -0.0637483
vt 0.982511 0.268122
vn -0.663722 -0.5489491 0.5080631
v 0 0.00865178 -0.137423
vt 0.810374 0.268464
vn 5.368792E-06 -0.9730453 0.2306141
v 0.238585 0.142404 -0.0637483
vn 0.6636508 -0.5489438 0.5081618
vt 0.566893 0.90795
vt 0.554342 0.955499
vt 0.453985 0.914113
vt 0.569535 0.704337
vt 0.661783 0.760447
vt 0.64095 0.574689
vt 0.728185 0.639898
vt 0.621657 0.587196
vt 0.734566 0.593359
vt 0.634208 0.634745
vt 0.619015 0.383584
vt 0.526768 0.439693
vt 0.547601 0.253935
vt 0.460366 0.319145
v 0.0533013 0.07124674 -0.02455159
vt 0.991654 0.0495405
vn -0.8751061 -0.483669 0.01592501
vt 0.652819 0.00550584
vt 0.652819 0.0986193
v -0.0533014 0.07124674 -0.02455159
vn 0.8751065 -0.4836682 0.01592412
v 0.186265 -0.001183449 0.2685601
vt 0.405634 0.171696
vn 0.09680389 -0.6801851 0.7266205
vt 0.279712 0.202571
vt 0.279712 0.139607
v 0.163347 0.1594421 0.05007504
vt 0.988014 0.0534398
vn -0.1264605 0.5292453 -0.8389918
vt 0.56519 0.0132183
vt 0.56519 0.0873659
v -0.186265 -0.001183449 0.2685601
vn -0.09680428 -0.680184 0.7266214
v -0.163347 0.1594421 0.05007504
vn 0.1264605 0.5292453 -0.8389918
vt 0.194922 0.243558
vt 0.187573 0.383112
vt 0.140838 0.286784
vt 0.275074 0.389069
vt 0.824016 0.637237
vt 0.816667 0.497682
vt 0.870752 0.540908
vt 0.736516 0.643193
o body_0_0_node
g polygon_0
usemtl Isizumai_body_mat_id
f 1/1/1 2/2/2 3/3/3
f 1/1/1 4/4/4 2/2/2
f 1/1/1 3/3/3 5/5/5
f 1/1/1 6/6/6 4/4/4
f 1/1/1 5/5/5 7/7/7
f 1/1/1 8/8/8 6/6/6
f 1/1/1 7/7/7 9/9/9
f 1/1/1 9/9/9 8/8/8
f 2/2/2 4/4/4 10/10/10
f 2/2/2 10/10/10 11/11/11
f 4/4/4 6/6/6 10/10/10
f 9/9/9 12/12/12 8/8/8
f 6/6/6 13/13/13 10/10/10
f 6/6/6 8/8/8 14/14/14
f 6/6/6 14/14/14 13/13/13
f 12/12/12 15/15/15 8/8/8
f 8/8/8 15/15/15 14/14/14
f 13/13/13 14/14/14 16/16/16
f 17/17/17 2/18/2 11/19/11
f 17/17/17 18/20/18 2/18/2
f 17/17/17 11/19/11 19/21/19
f 17/17/17 5/18/5 18/20/18
f 17/17/17 19/21/19 20/22/20
f 17/17/17 21/19/21 5/18/5
f 17/17/17 20/22/20 22/21/22
f 17/17/17 22/21/22 21/19/21
f 2/18/2 18/20/18 3/23/3
f 3/23/3 18/20/18 5/18/5
f 19/21/19 23/24/23 20/22/20
f 20/22/20 23/24/23 22/21/22
f 24/25/24 19/26/19 25/27/25
f 24/25/24 23/28/23 19/26/19
f 24/25/24 25/27/25 26/29/26
f 24/25/24 22/30/22 23/28/23
f 24/25/24 26/29/26 27/31/27
f 24/25/24 28/32/28 22/30/22
f 24/25/24 27/31/27 29/33/29
f 24/25/24 29/33/29 28/32/28
f 19/26/19 10/34/10 25/27/25
f 19/26/19 11/35/11 10/34/10
f 25/27/25 10/34/10 26/29/26
f 27/31/27 30/36/30 29/33/29
f 27/31/27 26/29/26 31/37/31
f 27/31/27 32/38/32 30/36/30
f 27/31/27 31/37/31 32/38/32
f 10/34/10 13/39/13 26/29/26
f 26/29/26 13/39/13 31/37/31
f 30/36/30 32/38/32 33/40/33
f 13/39/13 16/41/16 31/37/31
f 33/40/33 15/38/15 12/36/12
f 34/42/34 35/43/35 36/44/36
f 34/42/34 37/45/37 35/43/35
f 34/42/34 36/44/36 38/46/38
f 34/42/34 39/47/39 37/45/37
f 34/42/34 38/46/38 40/48/40
f 34/42/34 41/49/41 39/47/39
f 34/42/34 40/48/40 42/50/42
f 34/42/34 42/50/42 41/49/41
f 35/43/35 43/51/43 36/44/36
f 35/43/35 37/45/37 44/52/44
f 35/43/35 44/52/44 43/51/43
f 38/46/38 36/44/36 45/53/45
f 36/44/36 43/51/43 45/53/45
f 44/52/44 46/54/46 43/51/43
f 44/52/44 47/55/47 46/54/46
f 43/51/43 46/54/46 45/53/45
f 46/54/46 48/56/48 45/53/45
f 49/57/49 50/58/50 51/59/51
f 49/57/49 45/60/45 50/58/50
f 49/57/49 51/59/51 52/61/52
f 49/57/49 52/61/52 53/62/53
f 49/57/49 53/62/53 54/63/54
f 49/57/49 54/63/54 41/64/41
f 49/57/49 41/64/41 42/65/42
f 49/57/49 42/65/42 40/66/40
f 45/60/45 48/67/48 50/58/50
f 51/59/51 55/68/55 52/61/52
f 53/62/53 56/69/56 54/63/54
f 53/62/53 52/61/52 57/70/57
f 53/62/53 57/70/57 56/69/56
f 57/70/57 52/61/52 55/68/55
f 41/64/41 54/63/54 39/71/39
f 56/69/56 58/72/58 54/63/54
f 58/72/58 44/73/44 54/63/54
f 58/72/58 47/74/47 44/73/44
f 59/75/59 60/76/60 61/77/61
f 59/75/59 61/77/61 62/78/62
f 59/75/59 62/78/62 63/79/63
f 59/75/59 63/79/63 64/80/64
f 59/75/59 64/80/64 65/81/65
f 59/75/59 65/81/65 60/82/60
f 66/75/66 67/77/67 68/76/68
f 66/75/66 69/78/69 67/77/67
f 66/75/66 70/79/70 69/78/69
f 66/75/66 71/80/71 70/79/70
f 66/75/66 72/81/72 71/80/71
f 66/75/66 68/82/68 72/81/72
f 73/83/73 74/84/74 75/85/75
f 73/83/73 76/86/76 74/84/74
f 73/83/73 75/85/75 77/87/77
f 73/83/73 77/87/77 76/86/76
f 78/83/78 79/85/79 80/84/80
f 78/83/78 81/87/81 79/85/79
f 78/83/78 80/84/80 82/86/82
f 78/83/78 82/86/82 81/87/81
f 83/88/83 5/89/5 21/90/21
f 83/88/83 7/91/7 5/89/5
f 83/88/83 9/92/9 7/91/7
f 83/88/83 84/93/84 9/92/9
f 84/93/84 12/94/12 9/92/9
f 84/93/84 85/95/85 12/94/12
f 85/95/85 33/96/33 12/94/12
f 33/97/33 14/98/14 15/99/15
f 33/97/33 16/100/16 14/98/14
f 33/97/33 31/98/31 16/100/16
f 33/97/33 32/99/32 31/98/31
f 83/101/83 22/102/22 28/103/28
f 83/101/83 21/104/21 22/102/22
f 83/101/83 28/103/28 29/105/29
f 83/101/83 29/105/29 84/106/84
f 29/105/29 30/107/30 84/106/84
f 30/107/30 85/108/85 84/106/84
f 30/107/30 33/109/33 85/108/85
f 86/110/86 87/111/87 88/112/88
f 86/110/86 89/113/89 87/111/87
f 86/110/86 88/112/88 90/114/90
f 86/110/86 90/114/90 91/115/91
f 90/114/90 92/116/92 91/115/91
f 92/116/92 93/117/93 91/115/91
f 92/116/92 89/118/89 93/117/93
f 92/116/92 87/119/87 89/118/89
f 94/120/94 86/121/86 91/122/91
f 94/120/94 89/123/89 86/121/86
f 94/120/94 91/122/91 95/124/95
f 94/120/94 96/125/96 89/123/89
f 91/122/91 93/126/93 95/124/95
f 93/126/93 97/127/97 95/124/95
f 93/126/93 96/128/96 97/127/97
f 93/126/93 89/129/89 96/128/96
f 98/110/98 99/111/87 100/113/99
f 98/110/98 101/112/100 99/111/87
f 98/110/98 102/114/101 101/112/100
f 98/110/98 103/115/102 102/114/101
f 103/115/102 104/116/103 102/114/101
f 103/115/102 105/117/104 104/116/103
f 105/117/104 100/118/99 104/116/103
f 100/118/99 99/119/87 104/116/103
f 106/120/105 103/122/102 98/121/98
f 106/120/105 107/124/106 103/122/102
f 106/120/105 98/121/98 100/123/99
f 106/120/105 100/123/99 108/125/107
f 107/124/106 105/126/104 103/122/102
f 107/124/106 109/127/108 105/126/104
f 109/127/108 108/128/107 105/126/104
f 108/128/107 100/129/99 105/126/104
f 110/130/109 111/131/110 112/132/111
f 110/130/109 55/131/55 111/132/110
f 110/130/109 57/131/57 55/132/55
f 110/130/109 113/131/112 57/132/57
f 110/130/109 112/131/111 113/132/112
f 58/133/58 56/134/56 57/135/57
f 58/133/58 57/135/57 113/136/112
f 58/133/58 113/136/112 47/137/47
f 113/136/112 112/138/111 47/137/47
f 112/138/111 46/139/46 47/137/47
f 50/140/50 55/141/55 51/142/51
f 50/140/50 111/143/110 55/141/55
f 50/140/50 48/144/48 111/143/110
f 48/144/48 112/145/111 111/143/110
f 48/144/48 46/146/46 112/145/111
f 114/147/113 75/148/75 74/149/74
f 114/147/113 74/148/74 76/149/76
f 114/147/113 76/148/76 77/149/77
f 114/147/113 77/148/77 75/149/75
f 115/147/114 80/149/80 79/148/79
f 115/147/114 82/149/82 80/148/80
f 115/147/114 81/149/81 82/148/82
f 115/147/114 79/149/79 81/148/81
f 116/150/115 88/151/88 87/152/87
f 116/150/115 90/151/90 88/152/88
f 116/150/115 92/151/92 90/152/90
f 116/150/115 87/151/87 92/152/92
f 117/153/116 96/154/96 94/155/94
f 117/153/116 94/154/94 95/155/95
f 117/153/116 95/154/95 97/155/97
f 117/153/116 97/154/97 96/155/96
f 118/150/117 99/152/87 101/151/100
f 118/150/117 101/152/100 102/151/101
f 118/150/117 102/152/101 104/151/103
f 118/150/117 104/152/103 99/151/87
f 119/153/118 106/155/105 108/154/107
f 119/153/118 107/155/106 106/154/105
f 119/153/118 109/155/108 107/154/106
f 119/153/118 108/155/107 109/154/108
f 45/156/45 40/157/40 38/158/38
f 45/156/45 49/159/49 40/157/40
f 39/160/39 44/161/44 37/162/37
f 39/160/39 54/163/54 44/161/44
vt 0.231432 0.769933
vt 0.770292 0.769677
v 0.0888937 0.29745 0.271542
vt 0.507755 0.876064
vn 0.1520249 0.4093148 0.8996387
vt 0.0283222 0.87632
vt 0.239274 0.983087
vt 0.778134 0.982831
vt 0.979852 0.875808
v -0.0888937 0.29745 0.271542
vn -0.1520249 0.4093148 0.8996387
o body_1_0_node
g polygon_0
usemtl TEX_ANIM_EYE_mat_id
f 61/164/61 60/165/60 120/166/119
f 62/167/62 61/164/61 120/166/119
f 63/168/63 62/167/62 120/166/119
f 64/169/64 63/168/63 120/166/119
f 65/170/65 64/169/64 120/166/119
f 60/165/60 65/170/65 120/166/119
f 67/164/67 121/166/120 68/165/68
f 69/167/69 121/166/120 67/164/67
f 70/168/70 121/166/120 69/167/69
f 71/169/71 121/166/120 70/168/70
f 72/170/72 121/166/120 71/169/71
f 68/165/68 121/166/120 72/170/72
