mtllib Pancham.mtl
v 0 0.0917129 0.0824662
vt 0.500061 0.249302
vn 0 -0.2150441 0.9766043
v 0 0.0272867 0.0570496
vt 0.500061 0.0299679
vn 0 -0.5675861 0.8233141
v 0.0486913 0.0272867 0.0460725
vt 0.716084 0.0722338
vn 0.5136319 -0.494435 0.7012249
v -0.0486913 0.0272867 0.0460725
vt 0.284037 0.0722338
vn -0.5136319 -0.494435 0.7012249
v 0.0763032 0.0941579 0.0728336
vt 0.838587 0.24161
vn 0.510841 -0.3818939 0.7701939
v -0.0763032 0.0941579 0.0728336
vt 0.161535 0.24161
vn -0.510841 -0.3818939 0.7701939
v 0.0676036 0.140931 0.0711065
vt 0.79999 0.486061
vn 0.09469363 0.3906281 0.9156653
v -0.0676036 0.140931 0.0711065
vt 0.200131 0.486061
vn -0.09469359 0.3906289 0.9156649
v 0 0.140931 0.0820836
vt 0.500061 0.493753
vn 0 0.3668509 0.9302798
v 0.0973826 0.0272867 -0.0057601
vt 0.932108 0.0206303
vn 0.935451 -0.334551 -0.114049
v -0.0973826 0.0272867 -0.00576009
vt 0.0680139 0.0206303
vn -0.935451 -0.334551 -0.114049
v 0.103264 0.113937 -0.00508782
vt 0.958202 0.179385
vn 0.9483102 0.08805431 -0.304884
v 0.0486913 0.0549458 -0.0782549
vt 0.716084 0.0175436
vn 0.4273861 -0.2585461 -0.8663112
v -0.103264 0.113937 -0.00508784
vt 0.0419199 0.179385
vn -0.9483101 0.08805441 -0.304884
v 0.0516321 0.133716 -0.0830093
vt 0.812275 0.171006
vn 0.457634 0.245118 -0.8546861
v -0.0486913 0.0549458 -0.078255
vt 0.284037 0.0175436
vn -0.4273861 -0.2585461 -0.8663112
v -0.0516321 0.133716 -0.0830093
vt 0.187846 0.171006
vn -0.4576332 0.2451181 -0.8546865
v 0.0994681 0.183025 0.00918683
vt 0.43537 0.530627
vn 0.3584739 -0.8865938 -0.2923149
v 0 0.153922 0.132464
vt 0.406526 0.533392
vn 0 -0.9917011 0.128565
v 0 0.1623 0.0027563
vt 0.406526 0.523759
vn 0 -0.961314 -0.275455
v 0.120004 0.191072 0.146746
vt 0.441325 0.54596
vn 0.41031 -0.889077 0.202948
v 0 0.220539 -0.100337
vt 0.406526 0.531694
vn 0 -0.769151 -0.6390671
v 0.153544 0.210089 0.0851155
vt 0.447192 0.545928
vn 0.6326961 -0.7743481 0.008980482
v 0.11598 0.279511 -0.101727
vt 0.440158 0.549388
vn 0.5184318 -0.5437638 -0.6599617
v 0.154606 0.229106 0.0234851
vt 0.451359 0.545896
vn 0.7771497 -0.5324028 -0.3355379
v 0.135293 0.254309 -0.0391208
vt 0.445759 0.547642
vn 0.7671302 -0.4771721 -0.4287401
v -0.0994681 0.183025 0.00918683
vt 0.377682 0.530627
vn -0.3861529 -0.8693517 -0.3084049
v 0 0.185147 0.202173
vt 0.406526 0.549368
vn 0 -0.7937761 0.6082101
v -0.120004 0.191072 0.146746
vt 0.371727 0.54596
vn -0.41031 -0.889077 0.202948
v 0.166294 0.25388 0.0649377
vt 0.454748 0.557272
vn 0.9532075 -0.2178339 -0.2096279
v 0.147932 0.224083 0.124793
vt 0.449424 0.553879
vn 0.7885602 -0.4669321 0.4001841
v 0.213038 0.262604 0.0498148
vt 0.46628 0.55849
vn 0.9823207 -0.1565539 0.10265
v 0.181724 0.274816 0.0376684
vt 0.459223 0.561042
vn 0.9650346 0.0114385 -0.2618729
v 0 0.273314 -0.142414
vt 0.406526 0.543699
vn 0 -0.3558669 -0.9345366
v 0.154928 0.294095 -0.0315898
vt 0.451453 0.560374
vn 0.9347469 0.07240979 -0.347858
v 0.128132 0.313374 -0.100848
vt 0.443682 0.559706
vn 0.7119127 0.1874099 -0.6767998
v -0.153544 0.210089 0.0851155
vt 0.36586 0.545928
vn -0.6326961 -0.7743481 0.008980452
v -0.147932 0.224083 0.124793
vt 0.363628 0.553879
vn -0.7885602 -0.4669321 0.4001841
v 0.166851 0.255883 0.100895
vt 0.45491 0.561249
vn 0.9254428 0.13601 0.3536339
v -0.11598 0.279511 -0.101727
vt 0.372894 0.549388
vn -0.5262617 -0.5493987 -0.6490067
v 0.122976 0.381039 -0.0773648
vt 0.442187 0.584552
vn 0.6924978 0.4444728 -0.5682348
v 0 0.324148 -0.141468
vt 0.406526 0.559153
vn 0 0.2748269 -0.9614937
v -0.213038 0.262604 0.0498148
vt 0.346772 0.55849
vn -0.9823207 -0.156553 0.102651
v -0.166851 0.255883 0.100895
vt 0.358142 0.561249
vn -0.9254428 0.13601 0.3536339
v -0.144999 0.236949 0.164121
vt 0.364479 0.561457
vn -0.6240157 -0.2990709 0.7219148
v 0.144999 0.236949 0.164121
vt 0.448573 0.561457
vn 0.6240157 -0.2990709 0.7219148
v 0.178301 0.338812 0.0575053
vt 0.45823 0.583418
vn 0.9429399 0.331119 -0.0349957
v -0.154606 0.229106 0.0234851
vt 0.361693 0.545896
vn -0.7526148 -0.5521889 -0.3586899
v -0.128132 0.313374 -0.100848
vt 0.36937 0.559706
vn -0.7119132 0.18741 -0.6767992
v -0.166294 0.25388 0.0649377
vt 0.358304 0.557272
vn -0.9532079 -0.217833 -0.209627
v -0.138806 0.297058 0.183163
vt 0.366275 0.581411
vn -0.7247868 0.06014708 0.6863428
v 0.138806 0.297058 0.183163
vt 0.446778 0.581411
vn 0.7247873 0.06014713 0.6863423
v 0 0.39277 -0.114193
vt 0.406526 0.581281
vn 0 0.4996292 -0.8662394
v 0.104342 0.426934 -0.0422698
vt 0.429828 0.596221
vn 0.582782 0.767357 -0.267448
v 0 0.42634 -0.0777654
vt 0.406526 0.596293
vn 0 0.7471733 -0.6646293
v -0.181724 0.274816 0.0376684
vt 0.353829 0.561042
vn -0.9650346 0.0114383 -0.2618729
v -0.178301 0.338812 0.0575053
vt 0.354822 0.583418
vn -0.9429399 0.331119 -0.0349957
v -0.121823 0.343567 0.191192
vt 0.371199 0.596221
vn -0.6458799 0.4712999 0.600596
v 0.121823 0.343567 0.191192
vt 0.441853 0.596221
vn 0.6458799 0.4712999 0.600596
v -0.122976 0.381039 -0.0773648
vt 0.370865 0.584552
vn -0.6924978 0.4444728 -0.5682348
v 0.135813 0.395941 0.0752518
vt 0.453453 0.596221
vn 0.7031522 0.6879242 0.1798261
v 0 0.466339 -0.0162282
vt 0.406526 0.613877
vn 0 0.9606704 -0.2776911
v 0.0322984 0.451874 0.0416918
vt 0.413743 0.614937
vn 0.451357 0.88718 0.0958568
v -0.135813 0.395941 0.0752518
vt 0.359599 0.596221
vn -0.7031522 0.6879242 0.1798261
v -0.0322984 0.437444 0.11603
vt 0.399309 0.617547
vn -0.495176 0.745227 0.446584
v 0 0.414354 0.168796
vt 0.406526 0.615517
vn 0 0.753259 0.657724
v 0 0.377006 0.208133
vt 0.406526 0.607917
vn 0 0.6696662 0.7426623
v -0.0304558 0.326922 0.23366
vt 0.397694 0.595173
vn -0.322081 0.246929 0.913942
v -0.104342 0.426934 -0.0422698
vt 0.383224 0.596221
vn -0.582782 0.767357 -0.267448
v 0.0622748 0.434975 0.0873634
vt 0.425231 0.616209
vn 0.46865 0.8419079 0.267504
v 0 0.474477 0.00525371
vt 0.406526 0.618351
vn 0 0.6308223 -0.7759274
v 0.0322984 0.449914 0.0821546
vt 0.413743 0.618139
vn 0.6728508 0.6790998 0.2934199
v 0 0.514336 0.0198419
vt 0.406526 0.631767
vn 0 0.992025 -0.126041
v 0 0.458971 0.0557572
vt 0.406526 0.618401
vn 0 0.916802 -0.399342
v 0.0322984 0.437444 0.11603
vt 0.413743 0.617547
vn 0.4951763 0.7452274 0.4465832
v 0.0304558 0.326922 0.23366
vt 0.415358 0.595173
vn 0.3220811 0.2469281 0.9139422
v -0.0622747 0.434975 0.0873634
vt 0.387821 0.616209
vn -0.46865 0.8419079 0.267504
v 0 0.500898 0.123885
vt 0.406526 0.637463
vn 0 0.7318962 0.6814162
v -0.0322984 0.449914 0.0821546
vt 0.399309 0.618139
vn -0.6728507 0.6790996 0.2934209
v 0 0.441369 0.112199
vt 0.406526 0.618374
vn 0 0.9850038 0.172533
v 0 0.324305 0.238369
vt 0.406526 0.594824
vn 0 0.1970689 0.9803897
v -0.0347016 0.28011 0.237785
vt 0.396463 0.581411
vn -0.3991788 -0.1221469 0.9087005
v -0.0322984 0.451874 0.0416918
vt 0.399309 0.614937
vn -0.451357 0.88718 0.0958567
v 0 0.538405 0.0648875
vt 0.406526 0.643267
vn 0 0.9774321 0.21125
v 0 0.257569 0.241169
vt 0.406526 0.574915
vn 0 -0.138035 0.9904274
v -0.0300009 0.239092 0.223531
vt 0.397826 0.567676
vn -0.4291327 -0.3024848 0.8510864
v 0.0347016 0.28011 0.237785
vt 0.416589 0.581411
vn 0.3991779 -0.122147 0.9087008
v 0.0300009 0.239092 0.223531
vt 0.415226 0.567676
vn 0.4291327 -0.3024848 0.8510864
v 0 0.199274 -0.00320984
vt 0.492007 0.466511
vn 0 0.9995724 -0.02924141
v 0.0242941 0.188704 -0.0379728
vt 0.499936 0.457259
vn 0.3647861 0.7082092 -0.6044592
v -0.0242941 0.188704 -0.0379728
vt 0.484077 0.457259
vn -0.3647859 0.7082087 -0.6044598
v 0.0485882 0.188704 -0.00320984
vt 0.507865 0.457259
vn 0.6604628 0.7041388 -0.2607249
v -0.0485882 0.188704 -0.00320984
vt 0.476148 0.457259
vn -0.6604623 0.7041392 -0.2607251
v 0.0359024 0.188704 0.0315531
vt 0.503725 0.457259
vn 0.2453699 0.8236087 0.5113338
v -0.0359024 0.188704 0.0315531
vt 0.480289 0.457259
vn -0.2453699 0.8236087 0.5113338
v 0 0.188704 0.0374297
vt 0.492007 0.457259
vn 0 0.7434767 0.6687618
vt 0.475155 0.373623
vt 0.508859 0.373623
vt 0.492007 0.415441
v 0.142297 0.119924 0.0816612
vt 0.538451 0.413482
vn 0.9965861 -0.0148796 0.08120811
vt 0.514072 0.415441
vt 0.525711 0.373623
vt 0.458302 0.373623
vt 0.516911 0.373623
vt 0.469942 0.415441
v -0.142297 0.119924 0.0816612
vt 0.445563 0.413482
vn -0.9965861 -0.0148791 0.08120841
vt 0.467102 0.373623
v 0 0.221358 0.221671
vt 0.00892669 0.781425
vn 0 -0.5491428 0.8357286
v -0.0600018 0.221679 0.20247
vt 0.369279 0.74834
vn -0.4219801 -0.351943 0.8355052
vt 0.00892669 0.558221
vt 0.184469 0.872661
v 0.0600018 0.221679 0.20247
vn 0.4219801 -0.351943 0.8355052
vt 0.00892669 0.996983
v -0.0900027 0.206375 0.174608
vt 0.55409 0.624019
vn -0.4313541 -0.5600561 0.7072982
v 0.0900027 0.206375 0.174608
vn 0.4313538 -0.5600557 0.7072987
v -0.048692 -0.00295742 -0.0057601
vt 0.820834 0.209289
vn -0.129141 -0.9705379 -0.203418
vt 0.869119 0.0179185
v 0 0.0119769 -0.0057601
vt 0.868521 0.102585
vt 0.880008 0.0776029
vt 0.95824 0.117025
v 0.048692 -0.00295742 -0.0057601
vn 0.129141 -0.9705379 -0.203418
v -0.0288842 0.176748 -0.0509318
vt 0.595239 0.110192
vn -0.6978518 -0.306724 0.6472428
v -0.0424321 0.17225 -0.0883095
vt 0.639684 0.123384
vn -0.606393 -0.227895 -0.761808
v -0.015322 0.170566 -0.0598779
vt 0.639684 0.0657467
vn 0.381167 -0.924113 -0.0269597
v -0.0238019 0.191125 -0.0592781
vt 0.639684 0.154637
vn -0.381167 0.924113 0.0269595
v 0.00330826 0.189441 -0.0308464
vt 0.639684 0.0969998
vn 0.6063941 0.227895 0.7618071
v -0.0102397 0.184943 -0.0682241
vt 0.684129 0.110192
vn 0.6978523 0.3067241 -0.6472422
v 0.00528345 0.182898 -0.0690516
vt 0.577754 0.106195
vn -0.8801963 0.1462671 -0.4515092
v 0.038012 0.171163 -0.101493
vt 0.643681 0.125763
vn 0.4183878 -0.2100019 -0.8836576
v 0.0162957 0.167796 -0.0602485
vt 0.643681 0.0402684
vn -0.224068 -0.9666981 0.123646
v 0.0222203 0.193356 -0.0635179
vt 0.643681 0.172122
vn 0.224068 0.9666981 -0.123646
v 0.000503942 0.189989 -0.0222738
vt 0.643681 0.0866271
vn -0.4183879 0.210001 0.8836578
v 0.0332325 0.178254 -0.0547148
vt 0.709607 0.106195
vn 0.8801959 -0.146267 0.45151
v -0.00236881 0.0933428 -0.0804402
vt 0.497803 0.767934
vn 0 -0.304094 0.952642
v -0.0388297 0.101928 -0.107334
vt 0.397802 0.797616
vn -1 0 0
v -0.0023688 0.0730044 -0.116567
vt 0.497803 0.697615
vn 0 -0.952642 -0.304094
v -0.0023688 0.130851 -0.0981015
vt 0.497803 0.897617
vn 0 0.952642 0.304094
v 0.0340921 0.101928 -0.107334
vt 0.597804 0.797616
vn 1 0 0
v -0.0023688 0.110512 -0.134228
vt 0.497803 0.827298
vn 0 0.304094 -0.952642
v 0.20033 0.396765 0.0389581
vt 0.0620986 0.901806
vn 0.9978839 -0.0323239 -0.05641889
v 0.126403 0.381101 0.0695342
vt 0.0439264 0.886532
vn 0.192556 -0.0802734 0.9779971
v 0.168223 0.316282 0.0200418
vt 0.0610269 0.86984
vn 0.9310053 -0.3404751 -0.131552
v 0.177121 0.445204 0.0523971
vt 0.0464467 0.907235
vn 0.6687009 0.7276719 0.152751
v 0.123597 0.395873 0.0114486
vt 0.0334164 0.886532
vn 0.101322 0.400069 -0.910867
v 0.124783 0.461945 0.0591823
vt 0.0307947 0.912664
vn -0.1484389 0.9566806 0.2504559
v 0.0459855 0.421744 0.0527653
vt 0.0103761 0.887408
vn -0.45661 0.8567069 0.239918
v -0.20044 0.395607 0.0385986
vn -0.9969828 -0.04774859 -0.06119988
v -0.123572 0.395894 0.0114553
vn -0.103094 0.398479 -0.911365
v -0.167011 0.315627 0.0198385
vn -0.9250247 -0.3547379 -0.135979
v -0.178068 0.444423 0.052152
vn -0.6805253 0.7173043 0.1495321
v -0.126428 0.38108 0.0695274
vn -0.1959419 -0.08328078 0.9770727
v -0.126001 0.461939 0.0591805
vn 0.13262 0.9588259 0.251127
v -0.0465654 0.422954 0.0531407
vn 0.4422412 0.8636143 0.2420601
v -0.0770895 0.199667 0.218974
vt 0.882246 0.919534
vn -0.8972047 0.3471489 -0.2729679
v -0.029204 0.212413 0.180142
vt 0.922102 0.913571
vn 0.4044689 0.3978249 -0.8234928
v -0.0534041 0.183352 0.222726
vt 0.900169 0.883224
vn -0.177281 -0.8492481 -0.4973421
v -0.0506418 0.196585 0.230475
vt 0.903158 0.9241
vn 0.177281 0.8492481 0.4973421
v -0.074842 0.167524 0.273059
vt 0.881225 0.893753
vn -0.40447 -0.397823 0.8234931
v -0.0269565 0.18027 0.234227
vt 0.921081 0.88779
vn 0.8972044 -0.3471488 0.2729688
vt 0.494005 0.0612352
vt 0.428813 0.111458
vt 0.559197 0.111458
vt 0.559197 0.0791294
vt 0.494005 0.0791294
vt 0.428813 0.0791294
vt 0.0273253 0.0186679
vt 0.220986 0.17196
vt 0.215309 0.0186679
vt 0.0216485 0.17196
vt 0.819662 0.60498
vt 0.813404 0.530906
vt 0.827174 0.570379
vt 0.81267 0.567127
vt 0.879752 0.60498
vt 0.88601 0.530906
vt 0.886744 0.567127
vt 0.872241 0.570379
vt 0.507993 0.59946
vt 0.549941 0.559967
vt 0.539454 0.643862
vt 0.476532 0.643862
vt 0.466045 0.559967
o merged_0_0_node
g polygon_0
usemtl BODY1_mat_id
f 1/1/1 2/2/2 3/3/3
f 1/1/1 4/4/4 2/2/2
f 1/1/1 3/3/3 5/5/5
f 1/1/1 6/6/6 4/4/4
f 1/1/1 5/5/5 7/7/7
f 1/1/1 8/8/8 6/6/6
f 1/1/1 7/7/7 9/9/9
f 1/1/1 9/9/9 8/8/8
f 3/3/3 10/10/10 5/5/5
f 4/4/4 6/6/6 11/11/11
f 10/10/10 12/12/12 5/5/5
f 10/10/10 13/13/13 12/12/12
f 6/6/6 14/14/14 11/11/11
f 13/13/13 15/15/15 12/12/12
f 14/14/14 16/16/16 11/11/11
f 14/14/14 17/17/17 16/16/16
f 18/18/18 19/19/19 20/20/20
f 18/18/18 21/21/21 19/19/19
f 18/18/18 20/20/20 22/22/22
f 18/18/18 23/23/23 21/21/21
f 18/18/18 22/22/22 24/24/24
f 18/18/18 25/25/25 23/23/23
f 18/18/18 24/24/24 26/26/26
f 18/18/18 26/26/26 25/25/25
f 19/19/19 27/27/27 20/20/20
f 19/19/19 21/21/21 28/28/28
f 19/19/19 29/29/29 27/27/27
f 19/19/19 28/28/28 29/29/29
f 20/20/20 27/27/27 22/22/22
f 23/23/23 25/25/25 30/30/30
f 23/23/23 31/31/31 21/21/21
f 23/23/23 30/30/30 32/32/32
f 23/23/23 32/32/32 31/31/31
f 24/24/24 33/33/33 26/26/26
f 24/24/24 22/22/22 34/34/34
f 24/24/24 35/35/35 33/33/33
f 24/24/24 34/34/34 36/36/36
f 24/24/24 36/36/36 35/35/35
f 25/25/25 33/33/33 30/30/30
f 25/25/25 26/26/26 33/33/33
f 29/29/29 37/37/37 27/27/27
f 29/29/29 38/38/38 37/37/37
f 32/32/32 39/39/39 31/31/31
f 32/32/32 30/30/30 39/39/39
f 30/30/30 33/33/33 39/39/39
f 22/22/22 40/40/40 34/34/34
f 22/22/22 27/27/27 40/40/40
f 36/36/36 41/41/41 35/35/35
f 36/36/36 34/34/34 42/42/42
f 36/36/36 42/42/42 41/41/41
f 38/38/38 43/43/43 37/37/37
f 38/38/38 44/44/44 43/43/43
f 38/38/38 45/45/45 44/44/44
f 31/31/31 39/39/39 46/46/46
f 33/33/33 35/35/35 47/47/47
f 33/33/33 47/47/47 39/39/39
f 35/35/35 41/41/41 47/47/47
f 27/27/27 48/48/48 40/40/40
f 27/27/27 37/37/37 48/48/48
f 34/34/34 49/49/49 42/42/42
f 34/34/34 40/40/40 49/49/49
f 43/43/43 44/44/44 50/50/50
f 43/43/43 50/50/50 37/37/37
f 37/37/37 50/50/50 48/48/48
f 45/45/45 51/51/51 44/44/44
f 46/46/46 39/39/39 52/52/52
f 39/39/39 47/47/47 52/52/52
f 41/41/41 42/42/42 53/53/53
f 41/41/41 54/54/54 47/47/47
f 41/41/41 53/53/53 55/55/55
f 41/41/41 55/55/55 54/54/54
f 40/40/40 56/56/56 49/49/49
f 40/40/40 48/48/48 56/56/56
f 50/50/50 44/44/44 56/56/56
f 50/50/50 56/56/56 48/48/48
f 51/51/51 57/57/57 44/44/44
f 51/51/51 58/58/58 57/57/57
f 44/44/44 57/57/57 56/56/56
f 52/52/52 47/47/47 59/59/59
f 42/42/42 60/60/60 53/53/53
f 42/42/42 49/49/49 60/60/60
f 56/56/56 57/57/57 60/60/60
f 56/56/56 60/60/60 49/49/49
f 53/53/53 60/60/60 55/55/55
f 54/54/54 61/61/61 47/47/47
f 54/54/54 55/55/55 62/62/62
f 54/54/54 63/63/63 61/61/61
f 54/54/54 62/62/62 63/63/63
f 47/47/47 61/61/61 59/59/59
f 58/58/58 64/64/64 57/57/57
f 58/58/58 65/65/65 64/64/64
f 58/58/58 66/66/66 65/65/65
f 58/58/58 67/67/67 66/66/66
f 58/58/58 68/68/68 67/67/67
f 60/60/60 69/69/69 55/55/55
f 60/60/60 57/57/57 69/69/69
f 57/57/57 64/64/64 69/69/69
f 55/55/55 69/69/69 62/62/62
f 63/63/63 70/70/70 61/61/61
f 63/63/63 62/62/62 71/71/71
f 63/63/63 72/72/72 70/70/70
f 63/63/63 71/71/71 73/73/73
f 63/63/63 74/74/74 72/72/72
f 63/63/63 73/73/73 74/74/74
f 59/59/59 75/75/75 66/66/66
f 59/59/59 67/67/67 76/76/76
f 59/59/59 61/61/61 75/75/75
f 59/59/59 66/66/66 67/67/67
f 70/70/70 72/72/72 75/75/75
f 70/70/70 75/75/75 61/61/61
f 65/65/65 77/77/77 64/64/64
f 65/65/65 66/66/66 78/78/78
f 65/65/65 79/79/79 77/77/77
f 65/65/65 78/78/78 80/80/80
f 65/65/65 80/80/80 79/79/79
f 75/75/75 72/72/72 80/80/80
f 75/75/75 78/78/78 66/66/66
f 75/75/75 80/80/80 78/78/78
f 68/68/68 81/81/81 67/67/67
f 68/68/68 82/82/82 81/81/81
f 67/67/67 81/81/81 76/76/76
f 69/69/69 83/83/83 62/62/62
f 69/69/69 64/64/64 83/83/83
f 83/83/83 73/73/73 71/71/71
f 83/83/83 79/79/79 74/74/74
f 83/83/83 64/64/64 77/77/77
f 83/83/83 71/71/71 62/62/62
f 83/83/83 74/74/74 73/73/73
f 83/83/83 77/77/77 79/79/79
f 72/72/72 84/84/84 80/80/80
f 72/72/72 74/74/74 84/84/84
f 84/84/84 79/79/79 80/80/80
f 84/84/84 74/74/74 79/79/79
f 82/82/82 85/85/85 81/81/81
f 82/82/82 86/86/86 85/85/85
f 76/76/76 81/81/81 87/87/87
f 81/81/81 85/85/85 87/87/87
f 85/85/85 88/88/88 87/87/87
f 89/89/89 90/90/90 91/91/91
f 89/89/89 92/92/92 90/90/90
f 89/89/89 91/91/91 93/93/93
f 89/89/89 94/94/94 92/92/92
f 89/89/89 93/93/93 95/95/95
f 89/89/89 96/96/96 94/94/94
f 89/89/89 95/95/95 96/96/96
f 90/90/90 17/97/17 91/91/91
f 90/90/90 92/92/92 15/98/15
f 90/90/90 15/98/15 17/97/17
f 91/91/91 17/97/17 93/93/93
f 94/94/94 96/96/96 9/99/9
f 94/94/94 97/100/97 92/92/92
f 94/94/94 9/99/9 7/101/7
f 94/94/94 7/101/7 97/100/97
f 96/96/96 95/95/95 9/99/9
f 15/98/15 92/92/92 12/102/12
f 92/92/92 97/100/97 12/102/12
f 17/97/17 14/103/14 93/93/93
f 7/101/7 5/104/5 97/100/97
f 97/100/97 5/104/5 12/102/12
f 95/95/95 8/105/8 9/99/9
f 95/95/95 93/93/93 98/106/98
f 95/95/95 98/106/98 8/105/8
f 93/93/93 14/103/14 98/106/98
f 8/105/8 98/106/98 6/107/6
f 6/107/6 98/106/98 14/103/14
f 99/108/99 100/109/100 28/110/28
f 99/108/99 86/111/86 100/109/100
f 99/108/99 28/110/28 101/109/101
f 99/108/99 85/112/85 86/111/86
f 99/108/99 101/109/101 88/111/88
f 99/108/99 88/111/88 85/112/85
f 100/109/100 102/113/102 28/110/28
f 101/109/101 28/110/28 103/113/103
f 104/114/104 16/115/16 105/116/20
f 104/114/104 11/117/11 16/115/16
f 104/114/104 105/116/20 4/118/4
f 104/114/104 4/118/4 11/117/11
f 105/116/20 106/114/105 3/118/3
f 105/116/20 13/115/13 106/114/105
f 3/118/3 106/114/105 10/117/10
f 10/117/10 106/114/105 13/115/13
f 107/119/106 108/120/107 109/121/108
f 107/119/106 110/122/109 108/120/107
f 107/119/106 109/121/108 111/123/110
f 107/119/106 111/123/110 110/122/109
f 108/120/107 112/124/111 109/121/108
f 108/120/107 110/122/109 112/124/111
f 112/124/111 111/123/110 109/121/108
f 112/124/111 110/122/109 111/123/110
f 113/125/112 114/126/113 115/127/114
f 113/125/112 116/128/115 114/126/113
f 113/125/112 115/127/114 117/129/116
f 113/125/112 117/129/116 116/128/115
f 114/126/113 118/130/117 115/127/114
f 114/126/113 116/128/115 118/130/117
f 118/130/117 117/129/116 115/127/114
f 118/130/117 116/128/115 117/129/116
f 119/131/118 120/132/119 121/133/120
f 119/131/118 122/134/121 120/132/119
f 119/131/118 121/133/120 123/135/122
f 119/131/118 123/135/122 122/134/121
f 120/132/119 124/136/123 121/133/120
f 120/132/119 122/134/121 124/136/123
f 124/136/123 123/135/122 121/133/120
f 124/136/123 122/134/121 123/135/122
f 125/137/124 126/138/125 127/139/126
f 125/137/124 128/140/127 126/138/125
f 125/137/124 127/139/126 129/141/128
f 125/137/124 129/141/128 128/140/127
f 126/138/125 128/140/127 130/142/129
f 126/138/125 130/142/129 131/143/130
f 130/142/129 128/140/127 129/141/128
f 130/142/129 129/141/128 131/143/130
f 132/137/131 133/138/132 134/139/133
f 132/137/131 135/140/134 133/138/132
f 132/137/131 134/139/133 136/141/135
f 132/137/131 136/141/135 135/140/134
f 133/138/132 135/140/134 137/142/136
f 133/138/132 137/142/136 138/143/137
f 137/142/136 135/140/134 136/141/135
f 137/142/136 136/141/135 138/143/137
f 139/144/138 140/145/139 141/146/140
f 139/144/138 142/147/141 140/145/139
f 139/144/138 141/146/140 143/148/142
f 139/144/138 143/148/142 142/147/141
f 140/145/139 144/149/143 141/146/140
f 140/145/139 142/147/141 144/149/143
f 144/149/143 143/148/142 141/146/140
f 144/149/143 142/147/141 143/148/142
f 105/150/20 16/151/16 13/152/13
f 105/150/20 3/153/3 2/154/2
f 105/150/20 2/154/2 4/155/4
f 16/156/16 15/157/15 13/158/13
f 16/156/16 17/159/17 15/157/15
f 21/160/21 46/161/46 103/162/103
f 21/160/21 31/163/31 46/161/46
f 29/164/29 45/165/45 38/166/38
f 29/164/29 102/167/102 45/165/45
f 28/168/28 21/169/21 103/170/103
f 28/168/28 102/171/102 29/172/29
vt 0.0666906 0.838138
vt 0.258808 0.795619
vt 0.0377217 0.915933
vt 0.959536 0.910815
vt 0.991306 0.797341
vt 0.875635 0.995368
vt 0.0636412 0.996207
vt 0.541122 0.752948
o merged_1_0_node
g polygon_0
usemtl TEX_ANIM_EYE_mat_id
f 88/173/88 101/174/101 87/175/87
f 52/176/52 87/175/87 46/177/46
f 87/175/87 101/174/101 46/177/46
f 52/176/52 59/178/59 87/175/87
f 87/175/87 59/178/59 76/179/76
f 45/177/45 102/180/102 100/174/100
f 68/179/68 58/178/58 82/175/82
f 82/175/82 58/178/58 51/176/51
f 86/173/86 82/175/82 100/174/100
f 51/176/51 45/177/45 82/175/82
f 45/177/45 100/174/100 82/175/82
f 46/177/46 101/174/101 103/180/103
