ply
format ascii 1.0
element vertex 790
property float x
property float y
property float z
property uchar red
property uchar green
property uchar blue
element face 942
property list uchar int vertex_index
end_header
0.15527 0.3455 1.44362 203 194 206
0.15527 0.3455 1.17578 203 194 206
0.0922 0.3455 1.22348 203 194 206
0.15527 0.3455 1.54795 203 194 206
1.10331 0.3455 1.54795 203 194 206
1.10331 0.3455 1.44362 203 194 206
0.0922 0.3455 1.68316 203 194 206
0.15527 0.3455 1.77714 203 194 206
0.15527 0.3455 1.87951 203 194 206
0.0922 0.3455 2.88281 203 194 206
0.15527 0.3455 2.83756 203 194 206
0.1305 0.3455 2.94454 203 194 206
0.18845 0.3455 2.87946 203 194 206
1.73041 0.3455 2.87946 203 194 206
1.67994 0.3455 2.94454 203 194 206
0.45565 0.3455 1.87951 203 194 206
1.10331 0.3455 1.77714 203 194 206
0.56246 0.3455 1.87951 203 194 206
1.10331 0.3455 1.87951 203 194 206
0.56246 0.3455 2.46769 203 194 206
0.45565 0.3455 2.57006 203 194 206
1.73041 0.3455 2.57006 203 194 206
1.73041 0.3455 2.46769 203 194 206
0.1305 0.38547 2.94454 203 194 206
0.0922 0.38547 2.88281 203 194 206
1.73041 0.38547 2.87946 203 194 206
1.67994 0.38547 2.94454 203 194 206
1.73041 0.38547 2.46769 203 194 206
1.73041 0.38547 2.57006 203 194 206
1.10331 0.38547 1.77714 203 194 206
1.10331 0.38547 1.87951 203 194 206
0.0922 0.38547 1.68316 203 194 206
0.0922 0.38547 1.22348 203 194 206
0.15527 0.38547 1.17578 203 194 206
0.15527 0.3455 2.83756 236 226 240
0.45565 0.3455 2.57006 236 226 240
0.45565 0.3455 1.87951 236 226 240
0.15527 0.3455 1.87951 236 226 240
0.18845 0.3455 2.87946 236 226 240
1.73041 0.3455 2.87946 236 226 240
1.73041 0.3455 2.57006 236 226 240
1.73041 0.38547 2.57006 236 226 240
1.73041 0.38547 2.87946 236 226 240
0.15527 0.3455 1.54795 236 226 240
0.15527 0.3455 1.77714 236 226 240
1.10331 0.3455 1.77714 236 226 240
1.10331 0.3455 1.54795 236 226 240
1.10331 0.38547 1.54795 236 226 240
1.10331 0.38547 1.77714 236 226 240
1.73041 0.3455 2.46769 236 226 240
1.73041 0.3455 2.16207 236 226 240
1.68402 0.3455 2.1065 236 226 240
1.1537 0.3455 2.1065 236 226 240
1.73041 0.38547 2.16207 236 226 240
1.73041 0.38547 2.46769 236 226 240
1.1537 0.38547 2.1065 236 226 240
1.10331 0.38547 2.0437 236 226 240
1.10331 0.3455 2.0437 236 226 240
1.68402 0.38547 2.1065 236 226 240
0.56246 0.3455 2.46769 236 226 240
0.56246 0.3455 1.87951 236 226 240
1.10331 0.3455 1.87951 236 226 240
1.10331 0.38547 1.87951 236 226 240
0.56246 0.38547 1.87951 236 226 240
0.56246 0.38547 2.46769 236 226 240
0.15527 0.3455 1.44362 236 226 240
1.10331 0.3455 1.22445 236 226 240
1.0544 0.3455 1.17578 236 226 240
0.15527 0.3455 1.17578 236 226 240
1.0544 0.38547 1.17578 236 226 240
0.15527 0.38547 1.17578 236 226 240
1.10331 0.38547 1.22445 236 226 240
1.10331 0.3455 1.44362 236 226 240
1.10331 0.38547 1.44362 236 226 240
0.15527 0.38547 1.44362 203 194 206
0.15527 0.38547 1.54795 203 194 206
0.15527 0.38547 1.77714 203 194 206
0.15527 0.38547 1.87951 203 194 206
0.15527 0.38547 2.83756 203 194 206
0.18845 0.38547 2.87946 203 194 206
0.45565 0.38547 1.87951 203 194 206
0.56246 0.38547 1.87951 203 194 206
0.56246 0.38547 2.46769 203 194 206
0.45565 0.38547 2.57006 203 194 206
0.15527 0.38547 1.54795 236 226 240
0.15527 0.38547 1.77714 236 226 240
0.18845 0.38547 2.87946 236 226 240
0.45565 0.38547 2.57006 236 226 240
0.15527 0.38547 2.83756 236 226 240
0.15527 0.38547 1.87951 236 226 240
0.45565 0.38547 1.87951 236 226 240
1.10331 0.38547 1.54795 203 194 206
1.10331 0.38547 1.44362 203 194 206
0.15527 0.38547 1.44362 236 226 240
0.18437 0.29354 0.67694 236 226 240
0.73811 0.29354 0.67694 236 226 240
0.18437 0.29354 0.56143 236 226 240
0.24267 0.29354 0.51517 236 226 240
0.73811 0.29354 0.51517 236 226 240
0.18437 0.33056 0.67694 236 226 240
0.18437 0.33056 0.56143 236 226 240
0.24267 0.33056 0.51517 236 226 240
0.73811 0.33056 0.51517 236 226 240
0.18437 0.29354 1.27472 236 226 240
0.24267 0.29354 1.32098 236 226 240
1.39943 0.29354 1.32098 236 226 240
1.45106 0.29354 1.27472 236 226 240
1.45106 0.33056 1.27472 236 226 240
1.45106 0.33056 0.56143 236 226 240
1.45106 0.29354 0.56143 236 226 240
1.39943 0.33056 1.32098 236 226 240
0.24267 0.33056 1.32098 236 226 240
0.18437 0.33056 1.27472 236 226 240
0.18437 0.29354 1.09588 236 226 240
0.18437 0.33056 1.09588 236 226 240
1.274 0.29354 1.09588 236 226 240
1.39943 0.29354 0.51517 236 226 240
1.274 0.29354 0.51517 236 226 240
1.274 0.33056 0.51517 236 226 240
1.39943 0.33056 0.51517 236 226 240
1.274 0.33056 1.09588 236 226 240
0.18437 0.29354 1.09588 203 194 206
1.274 0.29354 1.09588 203 194 206
1.1737 0.29354 0.99444 203 194 206
0.18437 0.29354 0.99444 203 194 206
1.274 0.29354 0.51517 203 194 206
1.1737 0.29354 0.51517 203 194 206
0.18437 0.33056 1.09588 203 194 206
0.18437 0.33056 0.99444 203 194 206
1.1737 0.33056 0.51517 203 194 206
1.274 0.33056 0.51517 203 194 206
0.8339 0.29354 0.76806 236 226 240
1.1737 0.29354 0.99444 236 226 240
1.1737 0.29354 0.51517 236 226 240
1.10528 0.29354 0.51517 236 226 240
0.8339 0.29354 0.51517 236 226 240
0.18437 0.29354 0.99444 236 226 240
0.18437 0.29354 0.76806 236 226 240
0.8339 0.29354 0.30282 236 226 240
1.10528 0.29354 0.30282 236 226 240
0.86557 0.29354 0.26351 236 226 240
1.07361 0.29354 0.26351 236 226 240
0.18437 0.33056 0.76806 236 226 240
0.18437 0.33056 0.99444 236 226 240
0.8339 0.33056 0.51517 236 226 240
0.8339 0.33056 0.30282 236 226 240
1.10528 0.33056 0.30282 236 226 240
1.10528 0.33056 0.51517 236 226 240
0.86557 0.33056 0.26351 236 226 240
1.07361 0.33056 0.26351 236 226 240
1.1737 0.33056 0.51517 236 226 240
0.18437 0.29354 0.76806 203 194 206
0.8339 0.29354 0.76806 203 194 206
0.73811 0.29354 0.67694 203 194 206
0.18437 0.29354 0.67694 203 194 206
0.8339 0.29354 0.51517 203 194 206
0.73811 0.29354 0.51517 203 194 206
0.18437 0.33056 0.76806 203 194 206
0.18437 0.33056 0.67694 203 194 206
0.73811 0.33056 0.51517 203 194 206
0.8339 0.33056 0.51517 203 194 206
0.73811 0.33056 0.67694 236 226 240
1.1737 0.33056 0.99444 203 194 206
1.274 0.33056 1.09588 203 194 206
0.8339 0.33056 0.76806 236 226 240
1.1737 0.33056 0.99444 236 226 240
0.73811 0.33056 0.67694 203 194 206
0.8339 0.33056 0.76806 203 194 206
-0.15527 0.3455 1.44362 203 194 206
-0.0922 0.3455 1.22348 203 194 206
-0.15527 0.3455 1.17578 203 194 206
-0.15527 0.3455 1.54795 203 194 206
-0.0922 0.3455 1.68316 203 194 206
-0.15527 0.3455 1.77714 203 194 206
-0.15527 0.3455 1.87951 203 194 206
-0.0922 0.3455 2.88281 203 194 206
-0.15527 0.3455 2.83756 203 194 206
-0.1305 0.3455 2.94454 203 194 206
-0.18845 0.3455 2.87946 203 194 206
-1.73041 0.3455 2.87946 203 194 206
-1.67994 0.3455 2.94454 203 194 206
-0.45565 0.3455 1.87951 203 194 206
-1.10331 0.3455 1.77714 203 194 206
-0.56246 0.3455 1.87951 203 194 206
-1.10331 0.3455 1.87951 203 194 206
-0.56246 0.3455 2.46769 203 194 206
-0.45565 0.3455 2.57006 203 194 206
-1.73041 0.3455 2.57006 203 194 206
-1.73041 0.3455 2.46769 203 194 206
-0.1305 0.38547 2.94454 203 194 206
-0.0922 0.38547 2.88281 203 194 206
-1.73041 0.38547 2.87946 203 194 206
-1.67994 0.38547 2.94454 203 194 206
-1.73041 0.38547 2.46769 203 194 206
-1.73041 0.38547 2.57006 203 194 206
-1.10331 0.38547 1.77714 203 194 206
-1.10331 0.38547 1.87951 203 194 206
-0.0922 0.38547 1.68316 203 194 206
-0.0922 0.38547 1.22348 203 194 206
-0.15527 0.38547 1.17578 203 194 206
-0.15527 0.3455 2.83756 236 226 240
-0.15527 0.3455 1.87951 236 226 240
-0.45565 0.3455 1.87951 236 226 240
-0.45565 0.3455 2.57006 236 226 240
-0.18845 0.3455 2.87946 236 226 240
-1.73041 0.3455 2.87946 236 226 240
-1.73041 0.3455 2.57006 236 226 240
-1.73041 0.38547 2.57006 236 226 240
-1.73041 0.38547 2.87946 236 226 240
-0.15527 0.3455 1.54795 236 226 240
-1.10331 0.3455 1.54795 236 226 240
-1.10331 0.3455 1.77714 236 226 240
-0.15527 0.3455 1.77714 236 226 240
-1.10331 0.38547 1.54795 236 226 240
-1.10331 0.38547 1.77714 236 226 240
-1.73041 0.3455 2.46769 236 226 240
-1.1537 0.3455 2.1065 236 226 240
-1.68402 0.3455 2.1065 236 226 240
-1.73041 0.3455 2.16207 236 226 240
-1.73041 0.38547 2.16207 236 226 240
-1.73041 0.38547 2.46769 236 226 240
-1.1537 0.38547 2.1065 236 226 240
-1.10331 0.38547 2.0437 236 226 240
-1.10331 0.3455 2.0437 236 226 240
-1.68402 0.38547 2.1065 236 226 240
-0.56246 0.3455 2.46769 236 226 240
-0.56246 0.3455 1.87951 236 226 240
-1.10331 0.3455 1.87951 236 226 240
-1.10331 0.38547 1.87951 236 226 240
-0.56246 0.38547 1.87951 236 226 240
-0.56246 0.38547 2.46769 236 226 240
-1.10331 0.3455 1.44362 203 194 206
-1.10331 0.3455 1.54795 203 194 206
-1.10331 0.38547 1.44362 203 194 206
-1.10331 0.38547 1.54795 203 194 206
-0.15527 0.3455 1.44362 236 226 240
-1.10331 0.3455 1.22445 236 226 240
-1.10331 0.3455 1.44362 236 226 240
-1.10331 0.38547 1.22445 236 226 240
-1.0544 0.38547 1.17578 236 226 240
-1.0544 0.3455 1.17578 236 226 240
-0.15527 0.3455 1.17578 236 226 240
-0.15527 0.38547 1.17578 236 226 240
-1.10331 0.38547 1.44362 236 226 240
-0.15527 0.38547 1.44362 203 194 206
-0.15527 0.38547 1.54795 203 194 206
-0.15527 0.38547 1.77714 203 194 206
-0.15527 0.38547 1.87951 203 194 206
-0.15527 0.38547 2.83756 203 194 206
-0.18845 0.38547 2.87946 203 194 206
-0.45565 0.38547 1.87951 203 194 206
-0.56246 0.38547 1.87951 203 194 206
-0.56246 0.38547 2.46769 203 194 206
-0.45565 0.38547 2.57006 203 194 206
-0.15527 0.38547 1.54795 236 226 240
-0.15527 0.38547 1.77714 236 226 240
-0.45565 0.38547 2.57006 236 226 240
-0.18845 0.38547 2.87946 236 226 240
-0.15527 0.38547 2.83756 236 226 240
-0.15527 0.38547 1.87951 236 226 240
-0.45565 0.38547 1.87951 236 226 240
-0.15527 0.38547 1.44362 236 226 240
-0.18437 0.29354 0.67694 236 226 240
-0.18437 0.29354 0.56143 236 226 240
-0.73811 0.29354 0.67694 236 226 240
-0.24267 0.29354 0.51517 236 226 240
-0.73811 0.29354 0.51517 236 226 240
-0.18437 0.33056 0.67694 236 226 240
-0.18437 0.33056 0.56143 236 226 240
-0.24267 0.33056 0.51517 236 226 240
-0.73811 0.33056 0.51517 236 226 240
-0.18437 0.29354 1.27472 236 226 240
-1.45106 0.29354 1.27472 236 226 240
-1.39943 0.29354 1.32098 236 226 240
-0.24267 0.29354 1.32098 236 226 240
-1.45106 0.33056 1.27472 236 226 240
-1.45106 0.33056 0.56143 236 226 240
-1.45106 0.29354 0.56143 236 226 240
-1.39943 0.33056 1.32098 236 226 240
-0.24267 0.33056 1.32098 236 226 240
-0.18437 0.33056 1.27472 236 226 240
-0.18437 0.29354 1.09588 236 226 240
-0.18437 0.33056 1.09588 236 226 240
-1.274 0.29354 1.09588 236 226 240
-1.39943 0.29354 0.51517 236 226 240
-1.274 0.29354 0.51517 236 226 240
-1.274 0.33056 0.51517 236 226 240
-1.39943 0.33056 0.51517 236 226 240
-1.274 0.33056 1.09588 236 226 240
-0.18437 0.29354 1.09588 203 194 206
-0.18437 0.29354 0.99444 203 194 206
-1.1737 0.29354 0.99444 203 194 206
-1.274 0.29354 1.09588 203 194 206
-1.274 0.29354 0.51517 203 194 206
-1.1737 0.29354 0.51517 203 194 206
-0.18437 0.33056 1.09588 203 194 206
-0.18437 0.33056 0.99444 203 194 206
-1.1737 0.33056 0.51517 203 194 206
-1.274 0.33056 0.51517 203 194 206
-1.1737 0.29354 0.99444 236 226 240
-0.8339 0.29354 0.76806 236 226 240
-0.8339 0.29354 0.51517 236 226 240
-1.10528 0.29354 0.51517 236 226 240
-1.1737 0.29354 0.51517 236 226 240
-0.18437 0.29354 0.99444 236 226 240
-0.18437 0.29354 0.76806 236 226 240
-0.8339 0.29354 0.30282 236 226 240
-1.10528 0.29354 0.30282 236 226 240
-0.86557 0.29354 0.26351 236 226 240
-1.07361 0.29354 0.26351 236 226 240
-0.18437 0.33056 0.76806 236 226 240
-0.18437 0.33056 0.99444 236 226 240
-0.8339 0.33056 0.51517 236 226 240
-0.8339 0.33056 0.30282 236 226 240
-1.10528 0.33056 0.30282 236 226 240
-1.10528 0.33056 0.51517 236 226 240
-0.86557 0.33056 0.26351 236 226 240
-1.07361 0.33056 0.26351 236 226 240
-1.1737 0.33056 0.51517 236 226 240
-0.18437 0.29354 0.76806 203 194 206
-0.18437 0.29354 0.67694 203 194 206
-0.73811 0.29354 0.67694 203 194 206
-0.8339 0.29354 0.76806 203 194 206
-0.8339 0.29354 0.51517 203 194 206
-0.73811 0.29354 0.51517 203 194 206
-0.18437 0.33056 0.76806 203 194 206
-0.18437 0.33056 0.67694 203 194 206
-0.73811 0.33056 0.51517 203 194 206
-0.8339 0.33056 0.51517 203 194 206
-0.73811 0.33056 0.67694 236 226 240
-1.274 0.33056 1.09588 203 194 206
-1.1737 0.33056 0.99444 203 194 206
-1.1737 0.33056 0.99444 236 226 240
-0.8339 0.33056 0.76806 236 226 240
-0.8339 0.33056 0.76806 203 194 206
-0.73811 0.33056 0.67694 203 194 206
-0.33341 -0.35108 1.13787 225 217 227
-0.33341 0.15783 1.13787 225 217 227
0.33341 0.15783 1.13787 225 217 227
0.33341 -0.35108 1.13787 225 217 227
0.26704 -0.41896 1.13787 225 217 227
-0.26704 -0.41896 1.13787 225 217 227
0.26704 0.22571 1.13787 225 217 227
-0.26704 0.22571 1.13787 225 217 227
-0.33341 0.15783 0.22488 218 210 220
-0.33341 -0.35108 0.22488 218 210 220
0.33341 -0.35108 0.22488 218 210 220
0.33341 0.15783 0.22488 218 210 220
0.26704 -0.41896 0.22488 218 210 220
0.38998 -0.40011 0.28206 218 210 220
0.31624 -0.47553 0.28206 218 210 220
-0.31624 -0.47553 0.28206 218 210 220
-0.26704 -0.41896 0.22488 218 210 220
-0.38998 -0.40011 0.28206 218 210 220
0.26704 0.22571 0.22488 218 210 220
0.31624 0.28228 0.28206 218 210 220
0.38998 0.20686 0.28206 218 210 220
0.38998 0.20686 0.47569 218 210 220
0.38998 -0.40011 0.47569 218 210 220
0.31624 0.28228 0.47569 218 210 220
-0.31624 0.28228 0.28206 218 210 220
-0.31624 0.28228 0.47569 218 210 220
-0.38998 0.20686 0.28206 218 210 220
-0.38998 0.20686 0.47569 218 210 220
-0.38998 -0.40011 0.47569 218 210 220
-0.26704 0.22571 0.22488 218 210 220
0.31624 -0.47553 1.07994 218 210 220
0.38998 -0.40011 1.07994 218 210 220
0.38998 -0.40011 0.88419 218 210 220
0.31624 -0.47553 0.88419 218 210 220
0.33341 -0.35108 1.13787 218 210 220
0.26704 -0.41896 1.13787 218 210 220
0.33341 0.15783 1.13787 218 210 220
0.38998 0.20686 1.07994 218 210 220
-0.31624 -0.47553 0.88419 218 210 220
-0.31624 -0.47553 1.07994 218 210 220
-0.38998 -0.40011 0.88419 218 210 220
-0.38998 -0.40011 1.07994 218 210 220
-0.33341 -0.35108 1.13787 218 210 220
-0.26704 -0.41896 1.13787 218 210 220
-0.33341 0.15783 1.13787 218 210 220
-0.38998 0.20686 1.07994 218 210 220
0.38998 0.20686 0.88419 218 210 220
-0.38998 0.20686 0.88419 218 210 220
0.26704 0.22571 1.13787 218 210 220
-0.26704 0.22571 1.13787 218 210 220
-0.31624 0.28228 1.07994 218 210 220
0.31624 0.28228 1.07994 218 210 220
0.31624 0.28228 0.88419 218 210 220
-0.31624 0.28228 0.88419 218 210 220
0.38998 -0.40011 0.88419 154 148 155
0.38998 -0.40011 0.79999 154 148 155
0.31624 -0.47553 0.79999 154 148 155
0.31624 -0.47553 0.88419 154 148 155
-0.31624 -0.47553 0.79999 154 148 155
-0.31624 -0.47553 0.88419 154 148 155
-0.38998 -0.40011 0.79999 154 148 155
-0.38998 -0.40011 0.88419 154 148 155
0.38998 0.20686 0.88419 154 148 155
0.38998 0.20686 0.79999 154 148 155
-0.38998 0.20686 0.79999 154 148 155
-0.38998 0.20686 0.88419 154 148 155
0.31624 0.28228 0.88419 154 148 155
0.31624 0.28228 0.79999 154 148 155
-0.31624 0.28228 0.88419 154 148 155
-0.31624 0.28228 0.79999 154 148 155
0.38998 -0.40011 0.79999 218 210 220
0.38998 -0.40011 0.55562 218 210 220
0.31624 -0.47553 0.55562 218 210 220
0.31624 -0.47553 0.79999 218 210 220
-0.31624 -0.47553 0.55562 218 210 220
-0.31624 -0.47553 0.79999 218 210 220
-0.38998 -0.40011 0.55562 218 210 220
-0.38998 -0.40011 0.79999 218 210 220
0.38998 0.20686 0.79999 218 210 220
0.38998 0.20686 0.55562 218 210 220
0.31624 0.28228 0.79999 218 210 220
0.31624 0.28228 0.55562 218 210 220
-0.38998 0.20686 0.55562 218 210 220
-0.38998 0.20686 0.79999 218 210 220
-0.31624 0.28228 0.79999 218 210 220
-0.31624 0.28228 0.55562 218 210 220
0.38998 -0.40011 0.55562 154 148 155
0.38998 -0.40011 0.47569 154 148 155
0.31624 -0.47553 0.47569 154 148 155
0.31624 -0.47553 0.55562 154 148 155
-0.31624 -0.47553 0.47569 154 148 155
-0.31624 -0.47553 0.55562 154 148 155
-0.38998 -0.40011 0.47569 154 148 155
-0.38998 -0.40011 0.55562 154 148 155
0.38998 0.20686 0.55562 154 148 155
0.38998 0.20686 0.47569 154 148 155
0.31624 0.28228 0.55562 154 148 155
0.31624 0.28228 0.47569 154 148 155
-0.31624 0.28228 0.55562 154 148 155
-0.31624 0.28228 0.47569 154 148 155
-0.38998 0.20686 0.55562 154 148 155
-0.38998 0.20686 0.47569 154 148 155
0.31624 -0.47553 0.47569 218 210 220
-0.31624 -0.47553 0.47569 218 210 220
0.1737 -0.35691 1.75651 44 37 41
0.1737 -0.35691 1.70905 44 37 41
0.14662 -0.35691 1.73423 44 37 41
0.14662 -0.35691 1.86483 44 37 41
0.27757 -0.35691 1.75651 44 37 41
0.3024 -0.35691 1.86483 44 37 41
0.3024 -0.35691 1.73423 44 37 41
0.27757 -0.35691 1.70905 44 37 41
0.3024 -0.35691 1.70905 44 37 41
0.14662 -0.35691 1.70905 44 37 41
0.07847 -0.35691 1.93299 219 231 255
0.07847 -0.06482 1.93299 219 231 255
0.3464 -0.06482 1.93299 219 231 255
0.3464 -0.35691 1.93299 219 231 255
0.37473 -0.32638 1.93299 219 231 255
0.37473 -0.09534 1.93299 219 231 255
0.07847 -0.06482 1.93299 215 226 250
0.07847 -0.06482 1.73423 215 226 250
0.3464 -0.06482 1.73423 215 226 250
0.3464 -0.06482 1.93299 215 226 250
0.07847 -0.35691 1.93299 215 226 250
0.07847 -0.35691 1.73423 215 226 250
0.37473 -0.09534 1.93299 215 226 250
0.37473 -0.09534 1.73423 215 226 250
0.37473 -0.32638 1.73423 215 226 250
0.37473 -0.32638 1.93299 215 226 250
0.3464 -0.35691 1.93299 215 226 250
0.3464 -0.35691 1.73423 215 226 250
0.3024 -0.35691 1.73423 215 226 250
0.3024 -0.35691 1.86483 215 226 250
0.14662 -0.35691 1.86483 215 226 250
0.14662 -0.35691 1.73423 215 226 250
0.07847 -0.06482 1.64089 237 241 249
0.07847 -0.35691 1.64089 237 241 249
0.3464 -0.35691 1.64089 237 241 249
0.3464 -0.06482 1.64089 237 241 249
0.27757 -0.35691 1.70905 237 241 249
0.3024 -0.35691 1.70905 237 241 249
0.3024 -0.35691 1.73423 237 241 249
0.3464 -0.35691 1.73423 237 241 249
0.1737 -0.35691 1.70905 237 241 249
0.14662 -0.35691 1.70905 237 241 249
0.14662 -0.35691 1.73423 237 241 249
0.07847 -0.35691 1.73423 237 241 249
0.07847 -0.06482 1.73423 237 241 249
0.3464 -0.06482 1.73423 237 241 249
0.37473 -0.09534 1.64089 237 241 249
0.37473 -0.32638 1.64089 237 241 249
0.37473 -0.09534 1.73423 237 241 249
0.37473 -0.32638 1.73423 237 241 249
0.27757 -0.35691 1.75651 77 71 74
0.27757 -0.35691 1.70905 77 71 74
0.1737 -0.35691 1.70905 77 71 74
0.1737 -0.35691 1.75651 77 71 74
-0.1737 -0.35691 1.75651 44 37 41
-0.14662 -0.35691 1.73423 44 37 41
-0.1737 -0.35691 1.70905 44 37 41
-0.14662 -0.35691 1.86483 44 37 41
-0.27757 -0.35691 1.75651 44 37 41
-0.3024 -0.35691 1.86483 44 37 41
-0.3024 -0.35691 1.73423 44 37 41
-0.27757 -0.35691 1.70905 44 37 41
-0.3024 -0.35691 1.70905 44 37 41
-0.14662 -0.35691 1.70905 44 37 41
-0.07847 -0.35691 1.93299 219 231 255
-0.3464 -0.35691 1.93299 219 231 255
-0.3464 -0.06482 1.93299 219 231 255
-0.07847 -0.06482 1.93299 219 231 255
-0.37473 -0.09534 1.93299 219 231 255
-0.37473 -0.32638 1.93299 219 231 255
-0.07847 -0.06482 1.93299 215 226 250
-0.3464 -0.06482 1.93299 215 226 250
-0.3464 -0.06482 1.73423 215 226 250
-0.07847 -0.06482 1.73423 215 226 250
-0.07847 -0.35691 1.93299 215 226 250
-0.07847 -0.35691 1.73423 215 226 250
-0.37473 -0.09534 1.73423 215 226 250
-0.37473 -0.09534 1.93299 215 226 250
-0.07847 -0.06482 1.64089 237 241 249
-0.3464 -0.06482 1.64089 237 241 249
-0.3464 -0.35691 1.64089 237 241 249
-0.07847 -0.35691 1.64089 237 241 249
-0.27757 -0.35691 1.70905 237 241 249
-0.3024 -0.35691 1.70905 237 241 249
-0.3024 -0.35691 1.73423 237 241 249
-0.3464 -0.35691 1.73423 237 241 249
-0.1737 -0.35691 1.70905 237 241 249
-0.14662 -0.35691 1.70905 237 241 249
-0.14662 -0.35691 1.73423 237 241 249
-0.07847 -0.35691 1.73423 237 241 249
-0.07847 -0.06482 1.73423 237 241 249
-0.3464 -0.06482 1.73423 237 241 249
-0.37473 -0.32638 1.73423 237 241 249
-0.37473 -0.32638 1.64089 237 241 249
-0.37473 -0.09534 1.73423 237 241 249
-0.37473 -0.09534 1.64089 237 241 249
-0.3464 -0.35691 1.93299 215 226 250
-0.14662 -0.35691 1.86483 215 226 250
-0.3024 -0.35691 1.86483 215 226 250
-0.14662 -0.35691 1.73423 215 226 250
-0.3024 -0.35691 1.73423 215 226 250
-0.3464 -0.35691 1.73423 215 226 250
-0.37473 -0.32638 1.93299 215 226 250
-0.37473 -0.32638 1.73423 215 226 250
-0.27757 -0.35691 1.75651 77 71 74
-0.1737 -0.35691 1.75651 77 71 74
-0.1737 -0.35691 1.70905 77 71 74
-0.27757 -0.35691 1.70905 77 71 74
0.08986 -0.23139 1.8643 163 145 188
0.08986 -0.0273 1.8643 163 145 188
0.08986 -0.0273 1.61639 163 145 188
-0.08986 -0.0273 1.8643 163 145 188
0 -0.0273 2.08601 163 145 188
0.31857 -0.0273 2.54834 163 145 188
0.08933 -0.23139 2.20762 163 145 188
0.08986 -0.43549 1.8643 163 145 188
0.08832 -0.3892 2.79302 163 145 188
0.08832 -0.23224 2.79302 163 145 188
0.44364 -0.0273 2.4617 163 145 188
0.44364 -0.23139 2.4617 163 145 188
0 -0.23139 2.08601 163 145 188
0.31857 -0.23139 2.54834 163 145 188
-0.31857 -0.0273 2.54834 163 145 188
-0.08933 -0.23139 2.20762 163 145 188
-0.08832 -0.23224 2.79302 163 145 188
-0.08832 -0.3892 2.79302 163 145 188
-0.08986 -0.23139 1.8643 163 145 188
-0.08986 -0.43549 1.8643 163 145 188
-0.08986 -0.43549 1.61639 163 145 188
-0.31857 -0.23139 2.54834 163 145 188
-0.08986 -0.0273 1.61639 163 145 188
-0.44364 -0.0273 2.4617 163 145 188
-0.44364 -0.23139 2.4617 163 145 188
-0.0736 -0.37612 2.81521 163 145 188
-0.0736 -0.24532 2.81521 163 145 188
0.0736 -0.24532 2.81521 163 145 188
0.0736 -0.37612 2.81521 163 145 188
-0.44129 -0.04997 2.488 163 145 188
-0.34401 -0.04997 2.55538 163 145 188
-0.44129 -0.20872 2.488 163 145 188
-0.34401 -0.20872 2.55538 163 145 188
0.34401 -0.04997 2.55538 169 150 195
0.44129 -0.04997 2.488 169 150 195
0.44129 -0.20872 2.488 169 150 195
0.34401 -0.20872 2.55538 169 150 195
0.08986 -0.43549 1.61639 163 145 188
-0.34401 -0.04997 2.55538 169 150 195
-0.34401 -0.20872 2.55538 169 150 195
-0.44129 -0.20872 2.488 169 150 195
-0.44129 -0.04997 2.488 169 150 195
0.0736 -0.24532 2.81521 169 150 195
0.0736 -0.37612 2.81521 169 150 195
-0.0736 -0.37612 2.81521 169 150 195
-0.0736 -0.24532 2.81521 169 150 195
0.05488 -0.45178 1.55709 235 236 237
0.05488 -0.45178 1.64962 235 236 237
0.11173 -0.45178 1.64962 235 236 237
0.11173 -0.45178 1.55709 235 236 237
0.11173 -0.39494 1.64962 235 236 237
0.05488 -0.39494 1.64962 235 236 237
0.05488 -0.39494 1.55709 235 236 237
0.11173 -0.39494 1.55709 235 236 237
-0.05488 -0.45178 1.55709 235 236 237
-0.11173 -0.45178 1.55709 235 236 237
-0.11173 -0.45178 1.64962 235 236 237
-0.05488 -0.45178 1.64962 235 236 237
-0.11173 -0.39494 1.64962 235 236 237
-0.05488 -0.39494 1.64962 235 236 237
-0.05488 -0.39494 1.55709 235 236 237
-0.11173 -0.39494 1.55709 235 236 237
0.17718 -0.36284 1.83875 255 255 255
0.17718 -0.36284 1.91464 255 255 255
0.24976 -0.36284 1.91464 255 255 255
0.24976 -0.36284 1.83875 255 255 255
0.24976 -0.35528 1.91464 255 255 255
0.17718 -0.35528 1.91464 255 255 255
0.17718 -0.35528 1.83875 255 255 255
0.24976 -0.35528 1.83875 255 255 255
-0.17718 -0.36284 1.83875 255 255 255
-0.24976 -0.36284 1.83875 255 255 255
-0.24976 -0.36284 1.91464 255 255 255
-0.17718 -0.36284 1.91464 255 255 255
-0.24976 -0.35528 1.91464 255 255 255
-0.17718 -0.35528 1.91464 255 255 255
-0.17718 -0.35528 1.83875 255 255 255
-0.24976 -0.35528 1.83875 255 255 255
-0.26135 0.11384 1.6466 169 150 195
-0.20007 0.17652 1.6466 169 150 195
0.20007 0.17652 1.6466 169 150 195
0.26135 0.11384 1.6466 169 150 195
-0.26135 -0.30353 1.6466 169 150 195
0.26135 -0.30353 1.6466 169 150 195
0.22012 -0.34473 1.6466 169 150 195
-0.22012 -0.34473 1.6466 169 150 195
0.29146 -0.16648 1.4986 163 145 188
0.29146 -0.32462 1.61248 163 145 188
0.29146 0.14195 1.61248 163 145 188
0.26135 0.11384 1.6466 163 145 188
0.26135 -0.30353 1.6466 163 145 188
0.24758 -0.37489 1.61248 163 145 188
0.29146 -0.32462 1.4986 163 145 188
0.24758 -0.37489 1.4986 163 145 188
0.22012 -0.34473 1.6466 163 145 188
0.11409 -0.37489 1.4986 163 145 188
-0.24758 -0.37489 1.61248 163 145 188
-0.22012 -0.34473 1.6466 163 145 188
-0.26135 -0.30353 1.6466 163 145 188
-0.29146 -0.32462 1.61248 163 145 188
-0.29146 -0.32462 1.4986 163 145 188
-0.29146 -0.16648 1.4986 163 145 188
-0.24758 -0.37489 1.4986 163 145 188
-0.26135 0.11384 1.6466 163 145 188
-0.29146 0.14195 1.61248 163 145 188
-0.11409 -0.37489 1.4986 163 145 188
-0.11409 -0.37489 1.41728 163 145 188
0.11409 -0.37489 1.41728 163 145 188
0.11409 -0.37489 1.33063 163 145 188
0.24758 -0.37489 1.41728 163 145 188
0.24758 -0.37489 1.33063 163 145 188
0.29146 -0.32462 1.41728 163 145 188
0.29146 -0.32462 1.33063 163 145 188
0.29146 -0.16648 1.33063 163 145 188
0.29146 -0.16648 1.41728 163 145 188
-0.11409 -0.37489 1.33063 163 145 188
-0.24758 -0.37489 1.41728 163 145 188
-0.24758 -0.37489 1.33063 163 145 188
-0.29146 -0.32462 1.41728 163 145 188
-0.29146 -0.32462 1.33063 163 145 188
-0.29146 -0.16648 1.33063 163 145 188
-0.29146 -0.16648 1.41728 163 145 188
-0.11409 -0.37489 1.24931 163 145 188
0.11409 -0.37489 1.24931 163 145 188
0.24758 -0.37489 1.16529 163 145 188
0.24758 -0.37489 1.24931 163 145 188
0.29146 -0.32462 1.16529 163 145 188
0.2194 -0.34378 1.13181 163 145 188
-0.2194 -0.34378 1.13181 163 145 188
-0.24758 -0.37489 1.16529 163 145 188
0.2604 -0.29968 1.13181 163 145 188
0.29146 -0.32462 1.24931 163 145 188
-0.29146 -0.32462 1.16529 163 145 188
-0.2604 -0.29968 1.13181 163 145 188
-0.24758 -0.37489 1.24931 163 145 188
-0.29146 -0.32462 1.24931 163 145 188
-0.29146 -0.16648 1.24931 163 145 188
0.29146 -0.16648 1.24931 163 145 188
0.22817 0.20668 1.16529 163 145 188
0.29146 0.14195 1.16529 163 145 188
0.22817 0.20668 1.61248 163 145 188
0.20007 0.17652 1.6466 163 145 188
-0.22817 0.20668 1.61248 163 145 188
-0.20007 0.17652 1.6466 163 145 188
0.2604 0.11312 1.13181 163 145 188
0.19934 0.17558 1.13181 163 145 188
-0.22817 0.20668 1.16529 163 145 188
-0.29146 0.14195 1.16529 163 145 188
-0.2604 0.11312 1.13181 163 145 188
-0.19934 0.17558 1.13181 163 145 188
0.28547 -0.40914 1.33063 210 203 196
0.28547 -0.40914 1.24931 210 203 196
0.11409 -0.40908 1.24931 210 203 196
0.11409 -0.40908 1.33063 210 203 196
0.32603 -0.36395 1.33063 210 203 196
0.32603 -0.36395 1.24931 210 203 196
0.32606 -0.16648 1.33063 210 203 196
0.32606 -0.16648 1.24931 210 203 196
0.11409 -0.37489 1.33063 210 203 196
0.11409 -0.37489 1.24931 210 203 196
0.24758 -0.37489 1.24931 210 203 196
0.29146 -0.32462 1.24931 210 203 196
0.29146 -0.16648 1.24931 210 203 196
0.28547 -0.40914 1.4986 210 203 196
0.28547 -0.40914 1.41728 210 203 196
0.11409 -0.40908 1.41728 210 203 196
0.11409 -0.40908 1.4986 210 203 196
0.32603 -0.36395 1.4986 210 203 196
0.32603 -0.36395 1.41728 210 203 196
0.32606 -0.16648 1.4986 210 203 196
0.32606 -0.16648 1.41728 210 203 196
0.11409 -0.37489 1.4986 210 203 196
0.11409 -0.37489 1.41728 210 203 196
0.24758 -0.37489 1.41728 210 203 196
0.29146 -0.32462 1.41728 210 203 196
0.29146 -0.16648 1.41728 210 203 196
0.24758 -0.37489 1.33063 217 210 203
0.28547 -0.40914 1.33063 217 210 203
0.11409 -0.40908 1.33063 217 210 203
0.11409 -0.37489 1.33063 217 210 203
0.29146 -0.32462 1.33063 217 210 203
0.32603 -0.36395 1.33063 217 210 203
0.29146 -0.16648 1.33063 217 210 203
0.32606 -0.16648 1.33063 217 210 203
0.29146 -0.16648 1.33063 210 203 196
0.24758 -0.37489 1.4986 217 210 203
0.28547 -0.40914 1.4986 217 210 203
0.11409 -0.40908 1.4986 217 210 203
0.11409 -0.37489 1.4986 217 210 203
0.29146 -0.32462 1.4986 217 210 203
0.32603 -0.36395 1.4986 217 210 203
0.29146 -0.16648 1.4986 217 210 203
0.32606 -0.16648 1.4986 217 210 203
0.29146 -0.16648 1.4986 210 203 196
-0.28547 -0.40914 1.33063 210 203 196
-0.11409 -0.40908 1.33063 210 203 196
-0.11409 -0.40908 1.24931 210 203 196
-0.28547 -0.40914 1.24931 210 203 196
-0.32603 -0.36395 1.33063 210 203 196
-0.32603 -0.36395 1.24931 210 203 196
-0.11409 -0.37489 1.33063 210 203 196
-0.11409 -0.37489 1.24931 210 203 196
-0.24758 -0.37489 1.24931 210 203 196
-0.29146 -0.32462 1.24931 210 203 196
-0.32597 -0.16648 1.24931 210 203 196
-0.29146 -0.16648 1.24931 210 203 196
-0.32597 -0.16648 1.33063 210 203 196
-0.29146 -0.16648 1.33063 210 203 196
-0.28547 -0.40914 1.4986 210 203 196
-0.11409 -0.40908 1.4986 210 203 196
-0.11409 -0.40908 1.41728 210 203 196
-0.28547 -0.40914 1.41728 210 203 196
-0.32603 -0.36395 1.4986 210 203 196
-0.32603 -0.36395 1.41728 210 203 196
-0.11409 -0.37489 1.4986 210 203 196
-0.11409 -0.37489 1.41728 210 203 196
-0.24758 -0.37489 1.41728 210 203 196
-0.29146 -0.32462 1.41728 210 203 196
-0.32597 -0.16648 1.41728 210 203 196
-0.29146 -0.16648 1.41728 210 203 196
-0.32597 -0.16648 1.4986 210 203 196
-0.29146 -0.16648 1.4986 210 203 196
-0.24758 -0.37489 1.33063 217 210 203
-0.11409 -0.37489 1.33063 217 210 203
-0.11409 -0.40908 1.33063 217 210 203
-0.28547 -0.40914 1.33063 217 210 203
-0.29146 -0.32462 1.33063 217 210 203
-0.32603 -0.36395 1.33063 217 210 203
-0.29146 -0.16648 1.33063 217 210 203
-0.32597 -0.16648 1.33063 217 210 203
-0.24758 -0.37489 1.4986 217 210 203
-0.11409 -0.37489 1.4986 217 210 203
-0.11409 -0.40908 1.4986 217 210 203
-0.28547 -0.40914 1.4986 217 210 203
-0.29146 -0.32462 1.4986 217 210 203
-0.32603 -0.36395 1.4986 217 210 203
-0.29146 -0.16648 1.4986 217 210 203
-0.32597 -0.16648 1.4986 217 210 203
0.34401 -0.04997 2.55538 163 145 188
0.34401 -0.20872 2.55538 163 145 188
0.44129 -0.04997 2.488 163 145 188
0.44129 -0.20872 2.488 163 145 188
3 0 2 1
3 3 2 0
3 4 3 0
3 4 0 5
3 3 6 2
3 7 6 3
3 8 6 7
3 9 6 8
3 9 8 10
3 11 9 10
3 11 10 12
3 13 11 12
3 13 14 11
3 7 15 8
3 16 15 7
3 16 17 15
3 16 18 17
3 15 17 19
3 15 19 20
3 19 21 20
3 19 22 21
3 23 9 11
3 23 24 9
3 25 14 13
3 25 26 14
3 26 11 14
3 26 23 11
3 27 21 22
3 27 28 21
3 29 18 16
3 29 30 18
3 24 6 9
3 24 31 6
3 31 2 6
3 31 32 2
3 32 1 2
3 32 33 1
3 34 36 35
3 34 37 36
3 35 38 34
3 39 38 35
3 39 35 40
3 41 39 40
3 41 42 39
3 43 45 44
3 43 46 45
3 47 45 46
3 47 48 45
3 49 51 50
3 49 52 51
3 53 49 50
3 53 54 49
3 55 51 52
3 56 55 52
3 56 52 57
3 55 58 51
3 58 50 51
3 58 53 50
3 59 57 52
3 59 52 49
3 59 60 57
3 57 60 61
3 62 57 61
3 62 56 57
3 63 56 62
3 64 56 63
3 64 55 56
3 54 55 64
3 53 55 54
3 53 58 55
3 65 67 66
3 65 68 67
3 68 69 67
3 69 66 67
3 68 70 69
3 69 71 66
3 71 72 66
3 65 66 72
3 71 73 72
3 74 33 32
3 75 74 32
3 75 32 31
3 76 75 31
3 77 76 31
3 24 77 31
3 24 78 77
3 23 78 24
3 23 79 78
3 25 79 23
3 25 23 26
3 76 77 80
3 29 76 80
3 29 80 81
3 29 81 30
3 82 81 80
3 82 80 83
3 82 83 28
3 82 28 27
3 84 48 47
3 84 85 48
3 42 87 86
3 42 41 87
3 87 88 86
3 89 88 87
3 89 87 90
3 91 74 75
3 91 92 74
3 93 73 71
3 93 71 69
3 93 69 70
3 92 4 5
3 92 91 4
3 94 96 95
3 95 96 97
3 95 97 98
3 99 96 94
3 99 100 96
3 100 97 96
3 100 101 97
3 101 98 97
3 101 102 98
3 103 105 104
3 103 106 105
3 107 105 106
3 108 107 106
3 108 106 109
3 107 110 105
3 110 104 105
3 110 111 104
3 111 103 104
3 111 112 103
3 112 113 103
3 112 114 113
3 115 109 106
3 115 103 113
3 115 106 103
3 115 116 109
3 115 117 116
3 118 116 117
3 118 119 116
3 120 119 118
3 120 108 119
3 119 108 109
3 119 109 116
3 120 107 108
3 112 107 120
3 110 107 112
3 110 112 111
3 112 120 114
3 121 123 122
3 121 124 123
3 123 125 122
3 123 126 125
3 127 124 121
3 127 128 124
3 129 125 126
3 129 130 125
3 131 133 132
3 133 131 134
3 134 131 135
3 136 131 132
3 136 137 131
3 134 135 138
3 134 138 139
3 139 138 140
3 139 140 141
3 136 142 137
3 136 143 142
3 144 138 135
3 144 145 138
3 145 140 138
3 146 134 139
3 146 147 134
3 133 134 147
3 145 148 140
3 148 141 140
3 148 149 141
3 149 139 141
3 149 146 139
3 133 147 150
3 151 153 152
3 151 154 153
3 153 155 152
3 153 156 155
3 157 154 151
3 157 158 154
3 159 155 156
3 159 160 155
3 99 161 100
3 161 101 100
3 161 102 101
3 127 162 128
3 127 163 162
3 162 163 130
3 162 130 129
3 143 164 142
3 143 165 164
3 165 147 164
3 147 165 150
3 164 147 144
3 147 145 144
3 147 146 145
3 146 148 145
3 146 149 148
3 157 166 158
3 157 167 166
3 166 167 160
3 166 160 159
3 168 170 169
3 171 168 169
3 171 169 172
3 173 171 172
3 174 173 172
3 175 174 172
3 175 176 174
3 177 176 175
3 177 178 176
3 179 178 177
3 179 177 180
3 173 174 181
3 182 173 181
3 182 181 183
3 182 183 184
3 181 185 183
3 181 186 185
3 185 186 187
3 185 187 188
3 189 177 175
3 189 175 190
3 191 179 180
3 191 180 192
3 192 177 189
3 192 180 177
3 193 188 187
3 193 187 194
3 195 182 184
3 195 184 196
3 190 172 197
3 190 175 172
3 197 172 169
3 197 169 198
3 198 169 170
3 198 170 199
3 200 202 201
3 200 203 202
3 203 200 204
3 205 203 204
3 205 206 203
3 207 206 205
3 207 205 208
3 209 211 210
3 209 212 211
3 213 210 211
3 213 211 214
3 215 217 216
3 215 218 217
3 219 218 215
3 219 215 220
3 221 216 217
3 222 216 221
3 222 223 216
3 221 217 224
3 224 218 219
3 224 217 218
3 225 216 223
3 225 215 216
3 225 223 226
3 223 227 226
3 228 227 223
3 228 223 222
3 229 228 222
3 230 229 222
3 230 222 221
3 220 230 221
3 219 220 221
3 219 221 224
3 171 231 168
3 171 232 231
3 233 231 232
3 233 232 234
3 235 237 236
3 238 236 237
3 239 236 238
3 239 240 236
3 235 236 240
3 241 240 239
3 235 240 241
3 241 239 242
3 238 237 243
3 244 198 199
3 245 198 244
3 245 244 233
3 245 233 234
3 245 197 198
3 246 197 245
3 247 197 246
3 190 197 247
3 190 247 248
3 189 190 248
3 189 248 249
3 191 189 249
3 191 192 189
3 246 250 247
3 195 250 246
3 195 251 250
3 195 196 251
3 252 250 251
3 252 253 250
3 252 194 253
3 252 193 194
3 254 214 255
3 254 213 214
3 208 256 207
3 208 257 256
3 256 257 258
3 259 256 258
3 259 260 256
3 261 239 238
3 261 242 239
3 261 238 243
3 262 264 263
3 264 265 263
3 264 266 265
3 267 262 263
3 267 263 268
3 268 263 265
3 268 265 269
3 269 265 266
3 269 266 270
3 271 273 272
3 271 274 273
3 275 272 273
3 276 272 275
3 276 277 272
3 275 273 278
3 278 273 274
3 278 274 279
3 279 274 271
3 279 271 280
3 280 271 281
3 280 281 282
3 283 272 277
3 283 271 272
3 283 281 271
3 283 277 284
3 283 284 285
3 286 285 284
3 286 284 287
3 288 286 287
3 288 287 276
3 287 277 276
3 287 284 277
3 288 276 275
3 280 288 275
3 278 280 275
3 278 279 280
3 280 282 288
3 289 291 290
3 289 292 291
3 291 292 293
3 291 293 294
3 295 289 290
3 295 290 296
3 297 294 293
3 297 293 298
3 299 301 300
3 301 299 302
3 302 299 303
3 304 299 300
3 304 300 305
3 302 306 301
3 302 307 306
3 307 308 306
3 307 309 308
3 304 305 310
3 304 310 311
3 312 301 306
3 312 306 313
3 313 306 308
3 314 307 302
3 314 302 315
3 303 315 302
3 313 308 316
3 316 308 309
3 316 309 317
3 317 307 314
3 317 309 307
3 303 318 315
3 319 321 320
3 319 322 321
3 321 322 323
3 321 323 324
3 325 319 320
3 325 320 326
3 327 324 323
3 327 323 328
3 267 268 329
3 329 268 269
3 329 269 270
3 295 331 330
3 295 296 331
3 331 298 330
3 331 297 298
3 311 333 332
3 311 310 333
3 333 315 332
3 315 333 312
3 315 312 313
3 315 313 314
3 314 313 316
3 314 316 317
3 332 315 318
3 325 335 334
3 325 326 335
3 335 328 334
3 335 327 328
3 336 338 337
3 336 339 338
3 340 339 336
3 340 336 341
3 337 338 342
3 337 342 343
3 344 346 345
3 344 347 346
3 345 346 348
3 349 348 346
3 349 350 348
3 348 350 351
3 348 351 352
3 345 348 352
3 353 352 351
3 353 345 352
3 354 347 344
3 355 347 354
3 355 356 347
3 357 356 355
3 349 356 357
3 349 357 358
3 357 355 359
3 356 346 347
3 356 349 346
3 359 355 360
3 354 360 355
3 359 360 361
3 361 360 362
3 361 362 363
3 363 362 353
3 363 353 364
3 360 344 362
3 360 365 344
3 354 365 360
3 354 344 365
3 362 345 353
3 362 344 345
3 366 368 367
3 366 369 368
3 366 367 370
3 366 370 371
3 367 372 370
3 367 373 372
3 368 373 367
3 366 374 369
3 366 375 374
3 371 375 366
3 375 376 374
3 375 377 376
3 375 378 377
3 375 379 378
3 371 379 375
3 377 378 380
3 377 380 381
3 368 382 373
3 383 377 381
3 383 376 377
3 384 386 385
3 384 387 386
3 373 387 384
3 373 384 372
3 381 385 386
3 381 380 385
3 382 387 373
3 382 388 387
3 388 386 387
3 389 381 386
3 388 389 386
3 389 383 381
3 390 392 391
3 390 393 392
3 393 394 392
3 393 395 394
3 395 396 394
3 395 397 396
3 391 398 390
3 391 399 398
3 400 396 397
3 400 397 401
3 399 402 398
3 399 403 402
3 403 404 402
3 403 405 404
3 405 401 404
3 405 400 401
3 406 408 407
3 406 409 408
3 409 410 408
3 409 411 410
3 411 412 410
3 411 413 412
3 407 414 406
3 407 415 414
3 415 416 414
3 415 417 416
3 418 412 413
3 418 413 419
3 417 420 416
3 417 421 420
3 421 419 420
3 421 418 419
3 422 424 423
3 422 425 424
3 425 426 424
3 425 427 426
3 427 428 426
3 427 429 428
3 423 430 422
3 423 431 430
3 431 432 430
3 431 433 432
3 433 434 432
3 433 435 434
3 435 436 434
3 435 437 436
3 437 429 436
3 437 428 429
3 349 438 350
3 349 358 438
3 350 438 439
3 350 439 351
3 351 439 364
3 351 364 353
3 440 442 441
3 440 443 442
3 443 440 444
3 443 444 445
3 446 445 444
3 444 447 446
3 446 447 448
3 441 442 449
3 450 452 451
3 450 453 452
3 452 453 454
3 452 454 455
3 456 458 457
3 456 459 458
3 457 460 456
3 457 461 460
3 458 459 462
3 458 462 463
3 464 463 462
3 464 462 465
3 466 464 465
3 466 467 464
3 468 467 466
3 468 466 469
3 466 470 469
3 466 460 470
3 460 471 470
3 460 461 471
3 472 474 473
3 472 475 474
3 473 474 476
3 476 474 477
3 474 478 477
3 474 479 478
3 473 476 480
3 473 480 481
3 482 473 481
3 482 483 473
3 472 473 483
3 472 483 484
3 484 475 472
3 484 485 475
3 474 475 486
3 474 486 487
3 479 474 487
3 475 485 488
3 475 488 486
3 487 486 488
3 487 488 489
3 479 487 489
3 490 492 491
3 490 493 492
3 494 496 495
3 494 495 497
3 497 498 494
3 497 499 498
3 500 498 499
3 498 500 501
3 500 502 501
3 496 503 495
3 504 506 505
3 504 507 506
3 505 506 508
3 505 508 509
3 510 512 511
3 510 513 512
3 513 510 514
3 513 514 515
3 511 512 516
3 511 516 517
3 518 520 519
3 518 521 520
3 521 522 520
3 522 523 520
3 520 523 524
3 520 524 525
3 521 526 522
3 521 527 526
3 528 527 521
3 528 521 529
3 518 529 521
3 518 530 529
3 530 518 519
3 530 519 531
3 520 525 532
3 520 532 533
3 533 532 534
3 533 534 535
3 531 519 535
3 531 535 534
3 519 533 535
3 519 520 533
3 536 537 514
3 536 538 537
3 514 537 539
3 514 539 515
3 540 538 536
3 540 536 541
3 541 536 542
3 541 542 543
3 543 542 517
3 543 517 516
3 544 546 545
3 544 547 546
3 548 550 549
3 550 551 549
3 549 551 552
3 549 552 553
3 552 554 553
3 554 555 548
3 555 554 556
3 556 554 557
3 549 553 558
3 548 549 558
3 548 558 559
3 552 560 554
3 557 554 560
3 553 554 561
3 554 548 559
3 554 559 561
3 551 562 552
3 552 562 563
3 552 563 560
3 564 560 563
3 557 560 564
3 563 565 564
3 566 565 563
3 565 566 567
3 568 567 566
3 562 569 563
3 568 566 570
3 570 566 551
3 566 571 551
3 551 571 562
3 566 572 571
3 550 570 551
3 564 565 573
3 564 573 574
3 557 564 574
3 557 574 575
3 565 576 573
3 565 556 576
3 556 575 576
3 556 557 575
3 562 571 577
3 562 577 578
3 571 579 577
3 571 572 579
3 572 580 579
3 572 569 580
3 569 578 580
3 569 562 578
3 563 569 572
3 563 572 566
3 581 583 582
3 581 584 583
3 555 568 585
3 555 567 568
3 585 568 570
3 585 570 550
3 556 567 555
3 556 565 567
3 585 550 548
3 585 548 555
3 586 588 587
3 586 589 588
3 590 592 591
3 590 593 592
3 594 596 595
3 594 597 596
3 595 596 598
3 597 598 596
3 595 598 599
3 600 597 594
3 600 595 599
3 600 594 595
3 600 601 597
3 597 601 598
3 599 601 600
3 599 598 601
3 602 604 603
3 602 605 604
3 605 606 604
3 603 604 606
3 605 607 606
3 608 602 603
3 608 605 602
3 608 607 605
3 608 603 609
3 603 606 609
3 607 609 606
3 607 608 609
3 610 612 611
3 610 613 612
3 611 612 614
3 613 614 612
3 611 614 615
3 616 613 610
3 616 611 615
3 616 610 611
3 616 617 613
3 613 617 614
3 618 620 619
3 618 621 620
3 621 622 620
3 619 620 622
3 621 623 622
3 624 618 619
3 624 621 618
3 624 623 621
3 624 619 625
3 619 622 625
3 626 628 627
3 626 629 628
3 630 629 626
3 630 631 629
3 632 631 630
3 632 630 633
3 634 636 635
3 635 636 637
3 635 637 638
3 639 635 638
3 639 640 635
3 634 635 640
3 639 641 640
3 639 638 642
3 639 643 641
3 642 644 639
3 642 645 644
3 644 645 646
3 644 646 647
3 644 647 648
3 649 648 647
3 644 648 650
3 647 646 651
3 647 651 652
3 649 647 652
3 653 639 644
3 653 643 639
3 653 644 650
3 643 653 654
3 643 654 655
3 656 655 654
3 657 655 656
3 657 656 658
3 659 657 658
3 659 658 660
3 661 659 660
3 661 662 659
3 656 654 663
3 664 663 654
3 664 665 663
3 666 665 664
3 666 667 665
3 668 667 666
3 668 666 669
3 656 663 670
3 656 670 671
3 672 671 670
3 672 673 671
3 674 673 672
3 674 672 675
3 676 675 672
3 676 672 677
3 672 670 677
3 674 675 678
3 674 679 673
3 680 676 677
3 680 681 676
3 680 677 682
3 677 670 682
3 680 682 683
3 684 680 683
3 674 685 679
3 686 636 687
3 686 688 636
3 636 688 689
3 689 688 690
3 686 690 688
3 689 690 691
3 636 689 637
3 686 687 692
3 686 692 693
3 687 678 692
3 687 674 678
3 687 636 662
3 636 634 662
3 687 662 661
3 687 685 674
3 687 661 685
3 652 691 690
3 694 652 690
3 694 695 652
3 652 651 691
3 694 696 695
3 694 697 696
3 693 697 694
3 695 696 681
3 695 681 680
3 693 694 686
3 686 694 690
3 695 669 652
3 652 669 649
3 695 668 669
3 695 684 668
3 695 680 684
3 698 700 699
3 698 701 700
3 702 698 699
3 702 699 703
3 703 704 702
3 703 705 704
3 706 700 701
3 706 707 700
3 707 699 700
3 707 708 699
3 708 703 699
3 708 709 703
3 709 705 703
3 709 710 705
3 711 713 712
3 711 714 713
3 715 711 712
3 715 712 716
3 716 717 715
3 716 718 717
3 719 713 714
3 719 720 713
3 720 712 713
3 720 721 712
3 721 716 712
3 721 722 716
3 722 718 716
3 722 723 718
3 724 726 725
3 724 727 726
3 728 724 725
3 728 725 729
3 730 728 729
3 730 729 731
3 710 704 705
3 710 732 704
3 733 735 734
3 733 736 735
3 737 733 734
3 737 734 738
3 739 737 738
3 739 738 740
3 723 717 718
3 723 741 717
3 742 744 743
3 742 745 744
3 746 745 742
3 746 747 745
3 748 743 744
3 748 744 749
3 749 744 745
3 749 745 750
3 750 745 747
3 750 747 751
3 751 747 752
3 751 752 753
3 747 754 752
3 747 746 754
3 753 752 754
3 753 754 755
3 756 758 757
3 756 759 758
3 760 759 756
3 760 761 759
3 762 757 758
3 762 758 763
3 763 758 759
3 763 759 764
3 764 759 761
3 764 761 765
3 765 761 766
3 765 766 767
3 761 768 766
3 761 760 768
3 767 766 768
3 767 768 769
3 770 772 771
3 770 773 772
3 774 773 770
3 774 775 773
3 776 775 774
3 776 777 775
3 778 780 779
3 778 781 780
3 782 781 778
3 782 783 781
3 784 783 782
3 784 785 783
3 553 787 786
3 553 561 787
3 558 553 786
3 558 786 788
3 561 789 787
3 561 559 789
3 559 788 789
3 559 558 788
