mtllib Stunfisk.mtl
v 0 0.001429806 0.260112
vt 1 0.0728574
vn 0 -0.9727668 0.231786
v -0.116427 0.001429806 0.078788
vt 0.854467 0.299513
vn -0.0750187 -0.9967719 0.0286002
v 0 0.001429806 0.0827317
vt 1 0.294583
vn 0 -1 0
v -0.252894 0.0198054 0.12
vt 0.715625 0.247997
vn -0.19911 -0.972706 0.119156
v 0.116427 0.001429806 0.078788
vt 1.14553 0.299513
vn 0.0750187 -0.9967719 0.0286002
v -0.239196 0.0414298 0.187311
vt 0.701006 0.163859
vn -0.6043215 -0.3815312 0.6994495
v 0.252894 0.0198054 0.12
vt 1.28438 0.247997
vn 0.19911 -0.972706 0.119156
v -0.131087 0.0414298 0.281363
vt 0.836141 0.0462936
vn -0.4878239 0.245844 0.8376089
v 0.239196 0.0414298 0.187311
vt 1.29899 0.163859
vn 0.6043218 -0.3815319 0.6994488
v 0 0.0414298 0.318398
vt 1 0
vn 0 0.3117161 0.9501753
v 0.131087 0.0414298 0.281363
vt 1.16386 0.0462936
vn 0.4878239 0.245844 0.8376089
v 0 0.001429806 -0.111386
vt 1 0.527785
vn 0 -0.9821329 -0.188189
v -0.135831 0.001429806 -0.102536
vt 0.830212 0.526168
vn -0.17189 -0.9640219 -0.20277
v 0.135831 0.001429806 -0.102536
vt 1.16979 0.526168
vn 0.17189 -0.9640219 -0.20277
v 0.25093 0.0414298 0.00843351
vt 1.31366 0.387456
vn 0.6719279 0.151771 -0.7248989
v -0.25093 0.0414298 0.00843351
vt 0.686338 0.387456
vn -0.671928 0.15177 -0.7248991
v 0.183687 0.0414298 -0.112512
vt 1.22961 0.538637
vn 0.8918367 0.144228 -0.4287488
v -0.0679154 0.05164479 -0.207211
vt 0.915106 0.651196
vn -0.165033 -0.7143101 -0.6800921
v 0.0679154 0.05164479 -0.207211
vt 1.08489 0.651196
vn 0.165033 -0.7143101 -0.6800921
v -0.183687 0.0414298 -0.112512
vt 0.770391 0.538637
vn -0.8918367 0.144228 -0.4287488
v 0.152095 0.110354 -0.210517
vt 1.19011 0.647891
vn 0.821492 -0.04218 -0.568658
v 0 0.142953 -0.277115
vt 1 0.776225
vn 0 -0.161442 -0.9868822
v -0.152095 0.110354 -0.210517
vt 0.809894 0.647891
vn -0.821492 -0.04218 -0.568658
v 0.120503 0.175461 -0.230446
vt 1.1506 0.757146
vn 0.6315768 0.4506789 -0.6308718
v -0.120503 0.175461 -0.230446
vt 0.849396 0.757146
vn -0.6315768 0.4506789 -0.6308718
v 0 0.222113 -0.245415
vt 1 0.817891
vn 0 0.8286932 -0.5597032
v 0.0779779 0.166387 -0.186497
vt 0.0971877 0.724474
vn 0.337674 0.782725 0.5227981
v 0 0.121485 -0.12368
vt 0 0.596939
vn 0 0.8699398 0.4931579
v 0.101721 0.09859179 -0.0974849
vt 0.127087 0.53335
vn 0.3592631 0.9087712 0.212285
v 0 0.179834 -0.178092
vt 0 0.744793
vn 0 0.7721569 0.6354319
vt 0.229609 0.538637
vt 0 0.834501
vt 0.189756 0.724918
vt 0.149902 0.781131
v 0 0.106502 -0.0503027
vt 0 0.486386
vn 0 0.9999966 0.002613929
v -0.0779779 0.166387 -0.186497
vt -0.0971877 0.724474
vn -0.337674 0.782725 0.5227981
v -0.101721 0.09859179 -0.0974849
vt -0.127087 0.53335
vn -0.3592631 0.9087712 0.212285
v 0.125465 0.10143 -0.00847279
vt 0.156831 0.408588
vn 0.2358451 0.9649972 -0.114706
vt 0.313662 0.387456
vt -0.229609 0.538637
v -0.125465 0.10143 -0.00847279
vt -0.156831 0.408588
vn -0.2358451 0.9649972 -0.114706
vt -0.149902 0.781131
v 0.252914 0.06305419 0.12
vt 0.316143 0.247997
vn 0.355308 0.932933 0.0582441
v 0.381711 0.0414298 -0.0966498
vt 0.477139 0.51881
vn -0.1904359 0.0004384208 -0.9816995
vt 0.316117 0.247997
v 0 0.114846 0.0903935
vt 0 0.285006
vn 0 0.9997063 0.02423411
vt -0.189756 0.724918
vt -0.313662 0.387456
v 0.32252 0.0414298 0.0621298
vt 0.40315 0.320335
vn 0.9976642 -0.0004465061 -0.06830872
v 0.189925 0.10143 0.131326
vt 0.228247 0.246698
vn 0.264431 0.9534159 0.14517
v 0.391216 0.0414298 0.0487946
vt 0.48902 0.337004
vn 0.8435884 -0.0005077422 0.5369902
vt 0.298994 0.163859
v -0.252914 0.06305419 0.12
vt -0.316143 0.247997
vn -0.355308 0.932933 0.0582441
v -0.381711 0.0414298 -0.0966498
vt -0.477139 0.51881
vn 0.1904359 0.0004369288 -0.9816995
vt -0.316117 0.247997
vt 0.163859 0.0462936
v 0 0.10143 0.227142
vt 0 0.11407
vn 0 0.9451533 0.3266271
v -0.189925 0.10143 0.131326
vt -0.228247 0.246698
vn -0.264431 0.9534159 0.14517
v -0.32252 0.0414298 0.0621298
vt -0.40315 0.320335
vn -0.9976641 -0.0004468741 -0.0683089
v -0.391216 0.0414298 0.0487946
vt -0.48902 0.337004
vn -0.8435884 -0.0005079003 0.5369902
vt -0.298994 0.163859
vt 0 0
vt -0.163859 0.0462936
v 0 0.317396 -0.27429
vt 0.49593 1
vn 0 0.2943021 0.9557124
v -0.130536 0.271553 -0.260173
vt 0.332761 0.940041
v -0.166814 0.173583 -0.230004
vt 0.285725 0.811903
v -0.143865 0.111553 -0.210902
vt 0.316099 0.730773
v 0.143865 0.111553 -0.210902
vt 0.675762 0.730773
v 0.166814 0.173583 -0.230004
vt 0.706136 0.811903
v 0.130536 0.271553 -0.260173
vt 0.6591 0.940041
vn 0 -0.2943021 -0.9557124
v -0.0376803 0.137216 0.121798
vt 0.534969 0.127496
vn -0.6232239 0.7810338 0.03972729
v 0 0.110497 0.0593986
vt 0.561749 0.193762
vn 0 0.7562526 -0.6542797
v -0.0623991 0.10318 0.121798
vt 0.5174 0.127496
vn -0.8076721 0.586571 0.06000141
v 0 0.149318 0.121798
vt 0.561749 0.127496
vn 0 0.9985653 0.05354711
v 0 0.10318 0.184197
vt 0.561749 0.0612296
vn 0 0.7109602 0.7032322
v 0.0376803 0.137216 0.121798
vt 0.588529 0.127496
vn 0.6232239 0.7810338 0.03972769
v 0.0623991 0.10318 0.121798
vt 0.606097 0.127496
vn 0.8076721 0.586571 0.0600021
o merged_0_0_node
g polygon_0
usemtl mat_body_mat_id
f 1/1/1 2/2/2 3/3/3
f 1/1/1 4/4/4 2/2/2
f 1/1/1 3/3/3 5/5/5
f 1/1/1 6/6/6 4/4/4
f 1/1/1 5/5/5 7/7/7
f 1/1/1 8/8/8 6/6/6
f 1/1/1 7/7/7 9/9/9
f 1/1/1 10/10/10 8/8/8
f 1/1/1 9/9/9 11/11/11
f 1/1/1 11/11/11 10/10/10
f 2/2/2 12/12/12 3/3/3
f 2/2/2 4/4/4 13/13/13
f 2/2/2 13/13/13 12/12/12
f 3/3/3 12/12/12 5/5/5
f 7/7/7 5/5/5 14/14/14
f 7/7/7 14/14/14 15/15/15
f 5/5/5 12/12/12 14/14/14
f 4/4/4 16/16/16 13/13/13
f 15/15/15 14/14/14 17/17/17
f 12/12/12 13/13/13 18/18/18
f 12/12/12 19/19/19 14/14/14
f 12/12/12 18/18/18 19/19/19
f 14/14/14 19/19/19 17/17/17
f 16/16/16 20/20/20 13/13/13
f 13/13/13 20/20/20 18/18/18
f 19/19/19 21/21/21 17/17/17
f 19/19/19 18/18/18 22/22/22
f 19/19/19 22/22/22 21/21/21
f 20/20/20 23/23/23 18/18/18
f 18/18/18 23/23/23 22/22/22
f 21/21/21 22/22/22 24/24/24
f 23/23/23 25/25/25 22/22/22
f 24/24/24 22/22/22 26/26/26
f 26/26/26 22/22/22 25/25/25
f 27/27/27 28/28/28 29/29/29
f 27/27/27 30/30/30 28/28/28
f 27/27/27 29/29/29 17/31/17
f 27/27/27 26/32/26 30/30/30
f 27/27/27 17/31/17 21/33/21
f 27/27/27 24/34/24 26/32/26
f 27/27/27 21/33/21 24/34/24
f 28/28/28 31/35/31 29/29/29
f 28/28/28 30/30/30 32/36/32
f 28/28/28 33/37/33 31/35/31
f 28/28/28 32/36/32 33/37/33
f 30/30/30 26/32/26 32/36/32
f 17/31/17 29/29/29 34/38/34
f 17/31/17 34/38/34 15/39/15
f 29/29/29 31/35/31 34/38/34
f 33/37/33 32/36/32 20/40/20
f 33/37/33 35/41/35 31/35/31
f 33/37/33 20/40/20 35/41/35
f 26/32/26 25/42/25 32/36/32
f 15/39/15 34/38/34 36/43/36
f 15/39/15 36/43/36 37/44/37
f 15/39/15 37/44/37 7/45/7
f 31/35/31 35/41/35 38/46/38
f 31/35/31 38/46/38 34/38/34
f 20/40/20 32/36/32 23/47/23
f 20/40/20 16/48/16 35/41/35
f 23/47/23 32/36/32 25/42/25
f 36/43/36 39/49/39 37/44/37
f 36/43/36 34/38/34 40/50/40
f 36/43/36 41/51/41 39/49/39
f 36/43/36 40/50/40 9/52/9
f 36/43/36 9/52/9 41/51/41
f 7/45/7 37/44/37 39/49/39
f 7/45/7 41/51/41 9/52/9
f 7/45/7 39/49/39 41/51/41
f 16/48/16 42/53/42 35/41/35
f 16/48/16 43/54/43 42/53/42
f 16/48/16 4/55/4 43/54/43
f 40/50/40 11/56/11 9/52/9
f 40/50/40 44/57/44 11/56/11
f 35/41/35 42/53/42 45/58/45
f 4/55/4 46/59/46 43/54/43
f 4/55/4 47/60/47 46/59/46
f 4/55/4 6/61/6 47/60/47
f 42/53/42 6/61/6 45/58/45
f 42/53/42 43/54/43 46/59/46
f 42/53/42 46/59/46 47/60/47
f 42/53/42 47/60/47 6/61/6
f 44/57/44 10/62/10 11/56/11
f 44/57/44 45/58/45 8/63/8
f 44/57/44 8/63/8 10/62/10
f 8/63/8 45/58/45 6/61/6
f 48/64/48 49/65/48 50/66/48
f 48/64/48 50/66/48 51/67/48
f 48/64/48 51/67/48 52/68/48
f 48/64/48 52/68/48 53/69/48
f 48/64/48 53/69/48 54/70/48
f 48/64/49 50/66/49 49/65/49
f 48/64/49 51/67/49 50/66/49
f 48/64/49 52/68/49 51/67/49
f 48/64/49 53/69/49 52/68/49
f 48/64/49 54/70/49 53/69/49
f 55/71/50 56/72/51 57/73/52
f 55/71/50 58/74/53 56/72/51
f 55/71/50 57/73/52 59/75/54
f 55/71/50 59/75/54 58/74/53
f 56/72/51 58/74/53 60/76/55
f 56/72/51 60/76/55 61/77/56
f 60/76/55 59/75/54 61/77/56
f 60/76/55 58/74/53 59/75/54
vt 0.696031 1.00919
vt 0.944026 0.837623
vt 0.0965024 0.891087
vt 0.0965024 0.727725
o merged_1_0_node
g polygon_0
usemtl TEX_ANIM_EYE_mat_id
f 35/78/35 45/79/45 38/80/38
f 38/80/38 45/79/45 44/81/44
f 38/80/38 44/81/44 40/79/40
f 40/79/40 34/78/34 38/80/38
