mtllib Cradily.mtl
v -0.00213353 0.603666 0.0105113
vt 1.00006 -0.000135782
vn 0 0.3554829 -0.9346828
v -0.203271 0.657654 0.102927
vt 0.495834 0.208721
vn -0.7455592 0.4985861 -0.4422141
v -0.0854474 0.767782 0.144811
vt 0.791201 0.504088
vn -0.3091119 0.9072807 -0.2851169
v -0.203271 0.50191 0.0436934
vt 0.495834 -0.208992
vn -0.745559 -0.0787126 -0.661775
v 0.0811803 0.767782 0.144811
vt 1.20891 0.504088
vn 0.308512 0.9063261 -0.288779
v -0.0854474 0.391782 0.00180926
vt 0.791201 -0.504359
vn -0.309113 -0.4885119 -0.8159689
v 0.199004 0.657654 0.102927
vt 1.50428 0.208721
vn 0.7455592 0.4985861 -0.4422141
v 0.0811803 0.391782 0.00180926
vt 1.20891 -0.504359
vn 0.308513 -0.4853639 -0.8180719
v 0.199004 0.50191 0.0436934
vt 1.50428 -0.208992
vn 0.745559 -0.0787126 -0.661775
v -0.000662514 0 0
vt 0.259295 0.0338418
vn -0.0001207441 -0.9997934 0.02032531
v 0.169811 0.00994415 -0.0988052
vn 0.9478449 -0.314485 0.05185769
v 0.171136 0.00994415 0.0988052
vn 0.9595535 -0.2791321 -0.03663912
v 0.0512638 0 -0.177583
vn 0.243945 -0.8939638 -0.3759249
v 0.0988052 0.00994415 0.171136
vn 0.00282975 -0.8269149 0.5623199
v -0.0512638 0 -0.177583
vn -0.244449 -0.8931781 -0.3774621
v -0.169811 0.00994415 -0.0988052
vn -0.9495968 -0.309169 0.05177329
v -0.171136 0.00994415 0.0988052
vn -0.9612638 -0.2731799 -0.03667099
v -0.0988052 0.00994415 0.171136
v 0.114504 0.0798696 0.114504
vn 0.6320539 0.7394369 0.231821
v 0.0988052 0.00994415 -0.171136
vn -0.08995005 -0.1091549 -0.9899465
v 0.114504 0.0798696 -0.114504
vn 0.6454529 0.7278789 -0.2314799
v 0.201024 0 -0.201024
vn 0.6861579 -0.2369169 -0.6877919
v 0.201024 0 0.201024
vn 0.6864293 -0.2400621 0.6864293
v 0 0.0875959 0.137608
vn 0 0.646849 0.7626181
v -0.0988052 0.00994415 -0.171136
vn 0.08995005 -0.1091549 -0.9899465
v 0 0 -0.233883
vn 0 0.1406909 -0.9900536
v -0.114504 0.0798696 -0.114504
vn -0.6454529 0.7278789 -0.2314799
v 0 0.0875959 -0.137608
vn 0 0.698008 -0.71609
v -0.201024 0 0.201024
vn -0.6864293 -0.2400621 0.6864293
v -0.114504 0.0798696 0.114504
vn -0.6320542 0.7394363 0.2318221
v 0.0546188 0.150697 -0.0082135
vn 0.858377 0.50902 0.0639347
v 0 0.150697 0.0473013
vn 0 0.6634297 0.7482386
v -0.201024 0 -0.201024
vn -0.6861572 -0.2369181 -0.6877922
v 0 0.150697 -0.053872
vn 0 0.2560061 -0.9666752
v -0.0546188 0.150697 -0.00821351
vn -0.858377 0.50902 0.0639346
v -0.094186 0.603454 -0.0445889
vt 0.0548079 0.858133
vn -0.8846717 0.3219609 -0.3371899
v 0 0.498623 -0.143571
vt 0.0513475 0.808336
vn 0 0.05196131 -0.9986491
v -0.0336441 0.492811 -0.111433
vt 0.0543497 0.808336
vn -0.971757 -0.147506 -0.184202
v 0 0.683446 -0.0605417
vt 0.0514158 0.858133
vn 0 0.7964662 -0.6046832
v 0 0.523462 -0.0286359
vt 0.0573519 0.858133
vn 0 -0.6616005 0.7498565
v 0 0.603454 0.0040141
vt 0.0586239 0.858133
vn 0 0.1701239 0.9854227
vt 0.0590479 0.858133
v 0 0.486998 -0.0792944
vt 0.0573519 0.808336
vn 0 0.1890921 0.9819593
v 0.094186 0.603454 -0.0445888
vt 0.0624399 0.858133
vn 0.884672 0.32196 -0.33719
v 0.0336441 0.492811 -0.111433
vt 0.0633562 0.808336
vn 0.971757 -0.147506 -0.184202
vt 0.0603541 0.808336
vt 0.0663584 0.808336
vt 0.0649839 0.858133
vt 0.192613 0.919366
vt 0.20736 0.126778
vt 0.189142 0.0957146
vt 0.204321 0.953222
vt 0.170924 0.0646512
vt 0.180906 0.885509
v 0 0.381789 0.457185
vt 0.0464358 0.926826
vn 0 -0.4173678 0.9087377
v -0.05 0.328547 0.403832
vn -0.2408841 -0.8077284 0.5380983
v 0.05 0.328547 0.403832
vn 0.2761882 -0.7899275 0.5474803
v -0.1152 0.392788 0.428265
vn -0.4969141 -0.4767221 0.7251292
v 0.115197 0.392788 0.428265
vn 0.5047942 -0.4779752 0.7188342
v -0.203271 0.391056 0.335165
vn -0.8410182 -0.4755801 0.257899
v 0.199004 0.391056 0.335165
vn 0.8450754 -0.4745432 0.2462851
v -0.203271 0.5468 0.394399
vn -0.8410184 0.1840031 0.5087543
v -0.235191 0.509548 0.257978
vn -0.9998731 -0.005663141 0.0148899
v 0.230924 0.509548 0.257978
vn 0.9998731 -0.005663291 0.0148899
v 0.199004 0.5468 0.394399
vn 0.8450752 0.190946 0.4993871
v 0 0.47264 0.491737
vn 0 -0.291995 0.9564199
v 0.115197 0.483639 0.462817
vn 0.5047932 -0.12051 0.8547872
v 0.05 0.54788 0.48725
vn 0.2761869 0.2264699 0.9340408
v -0.05 0.54788 0.48725
vn -0.2408839 0.2460069 0.9388586
v -0.1152 0.483639 0.462817
vn -0.4969141 -0.125629 0.8586581
v 0.0811803 0.280929 0.293281
vt 0.0671916 0.921945
vn 0.357079 -0.929419 0.0931397
v 0.162663 0.355516 0.199396
vn 0.709255 -0.6643791 -0.235707
v 0 0.291714 0.17513
vn 0.002478931 -0.9402242 -0.3405471
v -0.0854474 0.280929 0.293281
vn -0.3454211 -0.9323382 0.10691
v -0.16693 0.355516 0.199396
vn -0.7047848 -0.6686018 -0.2371709
v 0.162663 0.663581 0.31656
vn 0.709255 0.6531001 0.265363
v -0.16693 0.663581 0.31656
vn -0.7047846 0.6572287 0.2670749
vt 0.935792 0.748691
v -0.0854474 0.656928 0.436283
vt 0.565123 0.841294
vn -0.3454211 0.6256582 0.6994542
vt 0.813132 1.04347
vt 0.575205 0.557013
vt 0.785103 0.501172
v 0 0.727383 0.340825
vt 0.0513518 0.926961
vn 0.002479729 0.9288986 0.3703259
v 0.0811803 0.656928 0.436283
vn 0.3570789 0.6326279 0.6872239
vt 0.930952 0.74435
vt 0.814743 1.04236
vt 0.562608 0.844432
vt 0.574692 0.562779
vt 0.783214 0.50276
vt 0.350594 0.34978
vt 0.345709 0.969951
vt 0.340148 0.34978
vt 0.327678 0.969951
vt 0.314928 0.34978
vt 0.302178 0.969951
vt 0.289709 0.34978
vt 0.284147 0.969951
vt 0.279262 0.34978
vt 0.041122 0.973221
vt 0.328884 0.666915
vt 0.328884 0.0106239
vt 0.328884 0.717097
vt 0.558217 0.7351
vt 0.940968 0.7351
vt 0.749592 1.0285
vt 0.748309 0.345334
o merged_0_0_node
g polygon_0
usemtl mat_body1_mat_id
f 1/1/1 2/2/2 3/3/3
f 1/1/1 4/4/4 2/2/2
f 1/1/1 3/3/3 5/5/5
f 1/1/1 6/6/6 4/4/4
f 1/1/1 5/5/5 7/7/7
f 1/1/1 8/8/8 6/6/6
f 1/1/1 7/7/7 9/9/9
f 1/1/1 9/9/9 8/8/8
f 10/10/10 11/10/11 12/10/12
f 10/10/10 13/10/13 11/10/11
f 10/10/10 12/10/12 14/10/14
f 10/10/10 15/10/15 13/10/13
f 10/10/10 16/10/16 15/10/15
f 10/10/10 17/10/17 16/10/16
f 10/10/10 18/10/14 17/10/17
f 11/10/11 19/10/18 12/10/12
f 11/10/11 13/10/13 20/10/19
f 11/10/11 21/10/20 19/10/18
f 11/10/11 20/10/19 22/10/21
f 20/10/19 13/10/13 21/10/20
f 14/10/14 12/10/12 23/10/22
f 14/10/14 19/10/18 24/10/23
f 15/10/15 16/10/16 25/10/24
f 15/10/15 26/10/25 13/10/13
f 15/10/15 25/10/24 27/10/26
f 15/10/15 27/10/26 28/10/27
f 13/10/13 28/10/27 21/10/20
f 18/10/14 29/10/28 17/10/17
f 18/10/14 24/10/23 30/10/29
f 17/10/17 30/10/29 16/10/16
f 19/10/18 21/10/20 31/10/30
f 19/10/18 32/10/31 24/10/23
f 19/10/18 31/10/30 32/10/31
f 24/10/23 32/10/31 30/10/29
f 25/10/24 16/10/16 33/10/32
f 16/10/16 30/10/29 27/10/26
f 28/10/27 34/10/33 21/10/20
f 28/10/27 27/10/26 34/10/33
f 21/10/20 34/10/33 31/10/30
f 32/10/31 35/10/34 30/10/29
f 35/10/34 27/10/26 30/10/29
f 35/10/34 34/10/33 27/10/26
f 36/11/35 37/12/36 38/13/37
f 36/11/35 39/14/38 37/12/36
f 36/11/35 38/13/37 40/15/39
f 36/11/35 41/16/40 39/14/38
f 36/11/35 40/17/39 41/16/40
f 38/13/37 42/18/41 40/15/39
f 39/14/38 41/16/40 43/19/42
f 41/16/40 40/17/39 43/19/42
f 40/17/39 44/20/43 43/19/42
f 40/17/39 42/21/41 44/20/43
f 43/19/42 44/20/43 37/22/36
f 43/19/42 37/22/36 39/23/38
f 38/24/37 34/25/33 35/26/34
f 38/24/37 37/27/36 34/25/33
f 38/24/37 35/26/34 32/28/31
f 38/24/37 32/28/31 42/29/41
f 37/27/36 44/24/43 34/25/33
f 42/29/41 32/28/31 44/24/43
f 34/25/33 44/24/43 31/26/30
f 31/26/30 44/24/43 32/28/31
f 45/30/44 46/30/45 47/30/46
f 45/30/44 48/30/47 46/30/45
f 45/30/44 47/30/46 49/30/48
f 48/30/47 50/30/49 46/30/45
f 47/30/46 51/30/50 49/30/48
f 50/30/49 52/30/51 53/30/52
f 51/30/50 54/30/53 55/30/54
f 56/30/55 57/30/56 58/30/57
f 56/30/55 58/30/57 59/30/58
f 56/30/55 59/30/58 60/30/59
f 61/31/60 62/31/61 51/31/50
f 61/31/60 63/31/62 62/31/61
f 61/31/60 64/31/63 63/31/62
f 51/31/50 62/31/61 54/31/53
f 64/31/63 65/31/64 63/31/62
f 64/31/63 50/31/49 65/31/64
f 54/31/53 66/31/65 55/31/54
f 50/31/49 53/31/52 65/31/64
f 53/31/52 52/31/51 67/31/66
f 52/32/51 68/33/67 67/34/66
f 52/32/51 59/35/58 68/33/67
f 52/32/51 60/36/59 59/35/58
f 69/37/68 67/37/66 68/37/67
f 69/37/68 68/37/67 70/37/69
f 69/37/68 70/37/69 66/37/65
f 55/38/54 66/39/65 70/40/69
f 55/38/54 70/40/69 58/41/57
f 55/38/54 58/41/57 57/42/56
f 63/43/62 8/44/8 62/45/61
f 63/43/62 6/44/6 8/44/8
f 63/43/62 65/45/64 6/44/6
f 62/45/61 8/44/8 9/46/9
f 62/45/61 9/46/9 54/47/53
f 65/45/64 4/46/4 6/44/6
f 65/45/64 53/47/52 4/46/4
f 9/46/9 7/48/7 54/47/53
f 53/47/52 2/48/2 4/46/4
f 53/47/52 67/49/66 2/48/2
f 7/48/7 66/49/65 54/47/53
f 7/48/7 5/50/5 66/49/65
f 67/49/66 3/50/3 2/48/2
f 67/49/66 69/51/68 3/50/3
f 69/51/68 66/49/65 5/50/5
f 69/51/68 5/50/5 3/50/3
f 46/52/45 50/52/49 64/52/63
f 46/52/45 64/52/63 61/52/60
f 46/52/45 61/52/60 47/52/46
f 61/52/60 51/52/50 47/52/46
f 21/53/20 22/54/21 20/54/19
f 21/53/20 11/54/11 22/54/21
f 26/54/25 15/54/15 28/55/27
f 26/54/25 28/55/27 13/54/13
f 33/54/32 27/53/26 25/54/24
f 33/54/32 16/54/16 27/53/26
f 30/53/29 29/54/28 18/54/14
f 30/53/29 17/54/17 29/54/28
f 18/56/14 14/57/14 24/58/23
f 18/56/14 10/59/10 14/57/14
f 23/54/22 19/53/18 14/54/14
f 23/54/22 12/54/12 19/53/18
f 59/52/58 70/52/69 68/52/67
f 59/52/58 58/52/57 70/52/69
v 0.253437 0.731737 0.0547782
vt 0.0429646 0.653516
vn 0.270633 0.3834101 -0.8830371
v 0.283186 0.655341 0.0257229
vt 0.957035 0.653516
v 0.105288 0.655885 0.0540045
vt 0.0429646 0.0602019
vn -0.152742 0.21364 -0.9648979
v 0.123949 0.603723 0.0469321
vt 0.957035 0.0602019
v 0.342487 0.715889 0.153472
vt 0.0429646 0.978332
vn 0.689572 0.476082 -0.545744
v 0.364432 0.659533 0.132039
vt 0.957035 0.978332
v 0.123949 0.573593 0.0354732
vn -0.152742 0.4815539 -0.8630039
v 0.283186 0.549115 -0.0146771
vn 0.2704139 0.3004109 -0.9146746
v 0.105288 0.529915 0.00609484
v 0.253437 0.472719 -0.0437325
v 0.364432 0.475333 0.061983
vn 0.6895722 0.006901742 -0.7241842
v 0.342487 0.418977 0.0405495
v 0.0845681 0.506834 -0.00268321
vn -0.07920603 0.4792222 -0.8741124
v 0.180385 0.391346 -0.0746807
vn 0.145041 0.105388 -0.983797
v 0.0373179 0.481336 -0.0123808
v 0.105058 0.350696 -0.0901407
v 0.215811 0.277872 -0.0131163
vn 0.366914 -0.352512 -0.8608771
v 0.160244 0.247885 -0.0245208
v 0.0373179 0.704464 0.0724801
vn -0.07920632 0.222765 -0.9716492
v 0.105058 0.85376 0.101186
vn 0.1450401 0.5750062 -0.8051903
v 0.0845681 0.678966 0.0627825
v 0.180385 0.81311 0.0857264
v 0.160244 0.886981 0.218542
vn 0.366913 0.8354951 -0.4090511
v 0.215811 0.856995 0.207138
v -0.124138 0.603723 0.0469321
vn 0.152742 0.21364 -0.9648979
v -0.283375 0.655341 0.0257229
vn -0.2704141 0.3833382 -0.8831354
v -0.105477 0.655885 0.0540045
v -0.253626 0.731737 0.0547782
v -0.342676 0.715889 0.153472
vn -0.689572 0.476082 -0.545744
v -0.364621 0.659533 0.132039
v -0.124138 0.573593 0.0354732
vn 0.152742 0.4815539 -0.8630039
v -0.105477 0.529915 0.00609479
v -0.283375 0.549115 -0.0146771
vn -0.270633 0.300292 -0.9146489
v -0.253626 0.472719 -0.0437325
v -0.364621 0.475333 0.061983
vn -0.6895722 0.006901852 -0.7241842
v -0.342676 0.418977 0.0405495
v -0.0847573 0.506834 -0.00268321
vn 0.07920606 0.4792218 -0.8741126
v -0.0375071 0.481336 -0.0123808
v -0.180574 0.391346 -0.0746807
vn -0.145041 0.105389 -0.9837969
v -0.105247 0.350696 -0.0901407
v -0.216001 0.277872 -0.0131163
vn -0.366914 -0.352512 -0.8608771
v -0.160433 0.247885 -0.0245208
v -0.0375071 0.704464 0.0724801
vn 0.07920632 0.222765 -0.9716492
v -0.0847573 0.678966 0.0627825
v -0.105247 0.85376 0.101186
vn -0.1450409 0.5750057 -0.8051904
v -0.180574 0.81311 0.0857264
v -0.160433 0.886981 0.218542
vn -0.3669141 0.8354952 -0.40905
v -0.216001 0.856995 0.207138
vn 0.152742 -0.21364 0.9648979
vn -0.270414 -0.383339 0.883135
vn -0.689572 -0.476082 0.545744
vn 0.152742 -0.4815539 0.8630039
vn -0.270633 -0.300292 0.9146489
vn -0.6895722 -0.006901682 0.7241842
vn 0.07920613 -0.4792222 0.8741124
vn -0.145041 -0.105388 0.983797
vn -0.366914 0.352512 0.8608771
vn 0.07920641 -0.222765 0.9716492
vn -0.1450401 -0.5750062 0.8051903
vn -0.3669132 -0.8354955 0.4090502
vn 0.270633 -0.3834101 0.8830371
vn -0.152742 -0.21364 0.9648979
vn 0.689572 -0.476082 0.545744
vn -0.1527419 -0.4815547 0.8630035
vn 0.2704139 -0.3004109 0.9146746
vn 0.6895722 -0.006901742 0.7241842
vn -0.07920606 -0.4792218 0.8741126
vn 0.145041 -0.105389 0.9837969
vn 0.366914 0.352512 0.8608771
vn -0.07920641 -0.222765 0.9716492
vn 0.145041 -0.5750061 0.8051901
vn 0.3669141 -0.8354952 0.40905
o merged_1_0_node
g polygon_0
usemtl mat_both1_mat_id
f 71/60/70 72/61/70 73/62/71
f 73/62/71 72/61/70 74/63/71
f 75/64/72 76/65/72 71/60/70
f 71/60/70 76/65/72 72/61/70
f 77/62/73 78/60/74 79/63/73
f 79/63/73 78/60/74 80/61/74
f 81/64/75 82/65/75 78/60/74
f 78/60/74 82/65/75 80/61/74
f 83/62/76 84/60/77 85/63/76
f 85/63/76 84/60/77 86/61/77
f 87/64/78 88/65/78 84/60/77
f 84/60/77 88/65/78 86/61/77
f 89/62/79 90/60/80 91/63/79
f 91/63/79 90/60/80 92/61/80
f 93/64/81 94/65/81 90/60/80
f 90/60/80 94/65/81 92/61/80
f 95/63/82 96/61/83 97/62/82
f 97/62/82 96/61/83 98/60/83
f 99/64/84 98/60/83 100/65/84
f 100/65/84 98/60/83 96/61/83
f 101/62/85 102/63/85 103/60/86
f 103/60/86 102/63/85 104/61/86
f 105/64/87 103/60/86 106/65/87
f 106/65/87 103/60/86 104/61/86
f 107/62/88 108/63/88 109/60/89
f 109/60/89 108/63/88 110/61/89
f 111/64/90 109/60/89 112/65/90
f 112/65/90 109/60/89 110/61/89
f 113/62/91 114/63/91 115/60/92
f 115/60/92 114/63/91 116/61/92
f 117/64/93 115/60/92 118/65/93
f 118/65/93 115/60/92 116/61/92
f 74/63/94 72/61/95 73/62/94
f 73/62/94 72/61/95 71/60/95
f 75/64/96 71/60/95 76/65/96
f 76/65/96 71/60/95 72/61/95
f 77/62/97 79/63/97 78/60/98
f 78/60/98 79/63/97 80/61/98
f 81/64/99 78/60/98 82/65/99
f 82/65/99 78/60/98 80/61/98
f 83/62/100 85/63/100 84/60/101
f 84/60/101 85/63/100 86/61/101
f 87/64/102 84/60/101 88/65/102
f 88/65/102 84/60/101 86/61/101
f 89/62/103 91/63/103 90/60/104
f 90/60/104 91/63/103 92/61/104
f 93/64/105 90/60/104 94/65/105
f 94/65/105 90/60/104 92/61/104
f 98/60/106 96/61/106 97/62/107
f 97/62/107 96/61/106 95/63/107
f 99/64/108 100/65/108 98/60/106
f 98/60/106 100/65/108 96/61/106
f 101/62/109 103/60/110 102/63/109
f 102/63/109 103/60/110 104/61/110
f 105/64/111 106/65/111 103/60/110
f 103/60/110 106/65/111 104/61/110
f 107/62/112 109/60/113 108/63/112
f 108/63/112 109/60/113 110/61/113
f 111/64/114 112/65/114 109/60/113
f 109/60/113 112/65/114 110/61/113
f 113/62/115 115/60/116 114/63/115
f 114/63/115 115/60/116 116/61/116
f 117/64/117 118/65/117 115/60/116
f 115/60/116 118/65/117 116/61/116
vt 0.270367 0.800305
vt -0.411721 0.800305
v -0.120165 0.442886 0.433256
vt 0.334531 0.875
vn -0.5726089 -0.2914349 0.7662798
v 0 0.431887 0.462176
vt -0.410989 0.875
vn 0 -0.35548 0.9346839
vt -0.411721 0.949695
vt 0.270367 0.949695
v 0.120161 0.442886 0.433256
vn 0.585517 -0.288176 0.75771
vt 0.962654 1.00445
vt 0.962654 0.745555
o merged_2_0_node
g polygon_0
usemtl TEX_ANIM_EYE_mat_id
f 48/66/47 45/67/44 119/68/118
f 45/67/44 120/69/119 119/68/118
f 120/69/119 56/70/55 119/68/118
f 56/70/55 60/71/59 119/68/118
f 57/71/56 121/68/120 55/72/54
f 49/66/48 51/73/50 121/68/120
f 51/73/50 55/72/54 121/68/120
f 60/71/59 52/72/51 119/68/118
f 48/66/47 119/68/118 50/73/49
f 52/72/51 50/73/49 119/68/118
f 49/66/48 121/68/120 45/67/44
f 45/67/44 121/68/120 120/69/119
f 120/69/119 121/68/120 56/70/55
f 56/70/55 121/68/120 57/71/56
