mtllib Azelf.mtl
v -0.109482 0.100336 -0.00133918
vt 0.988219 0.963181
vn -0.9650979 0.111791 -0.236831
v -0.0547412 0.126833 -0.0923757
vn -0.4904659 0.4769109 -0.7293828
v -0.114675 0.0426105 -0.0181411
vn -0.9754232 -0.2102221 -0.06600212
v -0.0373885 0.226334 -0.0285549
vn -0.4472629 0.6296239 -0.6352399
v -0.0573374 0.0182032 0.0657128
vn -0.4296072 -0.6154162 0.6608332
v -0.0747771 0.20919 0.0303451
vn -0.7549412 0.6241902 -0.2011231
v -0.0547412 0.0738376 0.0896974
vn -0.203823 -0.312408 0.927824
v -0.167564 0.123304 0.122636
vn -0.8352203 -0.08976213 0.5425402
v -0.0573374 0.0725867 -0.121128
vn -0.4396869 -0.08691508 -0.8939358
v 0.0373886 0.226334 -0.0285549
vn 0.4472629 0.6296239 -0.6352399
v 0.0547412 0.126833 -0.0923757
vn 0.4904661 0.4769101 -0.7293832
v 0.0573374 0.0182032 0.0657128
vn 0.4296072 -0.6154162 0.6608332
v -0.0573382 0.000656426 -0.0303527
vn -0.132391 -0.9499998 -0.282795
v 0 0.0259529 -0.0229896
vn 0 -0.9602987 -0.2789739
v -0.0373886 0.192046 0.0892451
vn -0.0301448 0.324568 0.9453819
v 0 0.220691 0.0336925
vn 0 0.9601541 0.279471
v 0.0573374 0.0725866 -0.121128
vn 0.4396869 -0.08691528 -0.8939358
v 0.109482 0.100336 -0.00133916
vn 0.9650981 0.111791 -0.23683
v 0.114675 0.0426105 -0.0181411
vn 0.975423 -0.210223 -0.0660018
v 0.0547412 0.0738376 0.0896974
vn 0.203823 -0.312408 0.927824
v 0.0573382 0.000656426 -0.0303527
vn 0.132391 -0.9499998 -0.282795
v 0.0747771 0.20919 0.0303451
vn 0.7549407 0.6241907 -0.2011229
v 0.0373886 0.192046 0.0892451
vn 0.0301448 0.324568 0.9453819
v 0.167564 0.123304 0.122636
vn 0.8352203 -0.08976223 0.5425402
v 0.160961 0.32758 -0.0434488
vt 0.931982 0.3429
v 0.273716 0.246253 -0.028499
vt 0.528072 0.175108
vn 0.413411 -0.782673 -0.465311
v 0.129626 0.24161 -0.045317
vt 0.777729 0.184437
vn 0.183006 -0.9242769 -0.334994
v 0.284222 0.323509 -0.0268141
vt 0.524643 0.294618
vn 0.7242422 0.5292701 -0.4419801
v 0.115642 0.264724 -0.0783915
vt 1.31498 0.209316
vn 0.3838089 -0.5585618 -0.7353228
v 0.16524 0.38757 -0.0421353
vt 0.681705 0.451155
vn 0.7879662 0.4773531 -0.3889001
v 0.105763 0.383604 -0.140056
vt 0.907961 0.589934
vn 0.5624562 -0.139446 -0.8149833
v 0 0.213763 -0.0280875
vt 1.12668 0.126081
vn 0 -0.9711413 -0.2385051
v 0.128024 0.240455 0.0885032
vt 0.810826 0.033478
vn 0.2279839 -0.9525226 0.2018019
v 0 0.288925 -0.125668
vt 1.4582 0.254756
vn 0 -0.5621882 -0.8270093
v 0 0.383604 -0.149904
vt 1.12703 0.590145
vn 0 -0.2761539 -0.9611135
v -0.105763 0.383604 -0.140056
vn -0.5624562 -0.139446 -0.8149833
v -0.115642 0.264724 -0.0783915
vn -0.3838089 -0.5585618 -0.7353228
v -0.129626 0.24161 -0.045317
vn -0.183006 -0.9242769 -0.334994
v -0.128024 0.240455 0.0885032
vn -0.2279839 -0.9525226 0.2018019
v -0.160961 0.32758 -0.0434488
v -0.273716 0.246253 -0.028499
vn -0.413411 -0.782673 -0.465311
v -0.284222 0.323509 -0.0268141
vn -0.7242422 0.5292701 -0.4419801
v -0.16524 0.38757 -0.0421353
vn -0.7879662 0.4773531 -0.3889001
v 0 0.210876 0.104393
vt 0.948754 0.983844
vn 0 -0.9999726 -0.007402897
v 0.0515348 0.22155 0.155657
vn 0.266191 -0.909239 0.320042
v -0.0515348 0.22155 0.155657
vn -0.266191 -0.909239 0.320042
v 0 0.22155 0.161992
vn 0 -0.8878132 0.4602041
v 0.166649 0.320425 0.0959797
vn 0.3999931 -0.140647 0.9056622
v 0.157164 0.2947 0.149077
vn 0.8051123 -0.3394261 0.4863992
v -0.157164 0.2947 0.149077
vn -0.8051123 -0.3394261 0.4863992
v -0.166649 0.320425 0.0959797
vn -0.3999931 -0.140647 0.9056622
v 0 0.61037 -0.0523258
vt 0.14978 0.420191
vn 0 0.9846836 0.1743509
v 0 0.596588 -0.165295
vn 0 0.8205967 -0.5715078
v -0.0696995 0.579153 -0.127489
vn -0.6833021 0.6997161 -0.208556
v 0.0696995 0.579153 -0.127489
vn 0.6833021 0.6997161 -0.208556
v -0.112352 0.532143 0.0503372
vn -0.5725629 0.7935439 0.206058
v 0.112352 0.532143 0.0503372
vn 0.5725629 0.7935439 0.206058
v 0 0.545293 0.122111
vn 0 0.897451 0.441114
v -0.0509143 0.523774 -0.189305
vn -0.452662 0.0435313 -0.890619
v 0.0509143 0.523774 -0.189305
vn 0.452662 0.0435312 -0.890619
v -0.125911 0.48042 0.16488
vn -0.5505369 0.6747109 0.4916039
v -0.124025 0.493515 -0.06814
vn -0.8951112 0.3345641 -0.2946911
v -0.151483 0.463787 0.0352509
vt 0.299405 0.344102
vn -0.9230699 0.3841249 -0.0197483
v 0.124025 0.493515 -0.06814
vn 0.8951109 0.334565 -0.294691
v 0.125911 0.48042 0.16488
vn 0.5505369 0.6747109 0.4916039
v 0.151483 0.463787 0.0352509
vn 0.9230699 0.3841249 -0.0197484
vt 0.449029 0.268012
v -0.171046 0.39948 0.0995395
vn -0.7716529 0.63603 0.004210069
v 0 0.470131 0.219692
vn 0 0.5774571 0.8164211
v -0.158365 0.407243 0.153118
vn -0.8401998 0.109541 0.5310979
v -0.08505 0.429932 0.215925
vn -0.374699 0.216364 0.9015471
v 0.171046 0.39948 0.0995395
vn 0.7716529 0.63603 0.004210109
v 0.158365 0.407243 0.153118
vn 0.8401998 0.109541 0.5310979
v 0 0.352446 0.233579
vn 0 -0.09469078 0.9955068
v 0.08505 0.429932 0.215925
vn 0.374699 0.216364 0.9015471
v 0 0.425227 0.259443
vt 0.335043 0.622648
vn 0 0.1649949 0.9862944
vt 0.462885 0.622648
vn 0 0.6628321 0.7487681
v -0.0309924 0.435335 0.220402
vt 0.378137 0.702374
vn -0.6924154 0.3383161 0.6372623
v 0.0309924 0.435335 0.220402
vt 0.378137 0.542921
vn 0.6924158 0.3383159 0.6372618
v -0.0357404 0.385439 0.226062
vt 0.254404 0.714588
vn -0.5730889 -0.159573 0.8038069
v 0.0357404 0.385439 0.226062
vt 0.254405 0.530707
vn 0.5730893 -0.1595741 0.8038064
vt 0.170795 0.622648
vn 0 -0.3348499 0.9422715
v 0.0742523 -0.0674721 -0.330057
vt 0.545256 0.778019
vn 0.060982 -0.97425 0.217067
v 0.012655 -0.0793418 -0.366026
vt 0.620473 0.965897
v 0.0540663 -0.0801221 -0.381162
vt 0.687011 0.858527
v 0.0951163 -0.0929243 -0.450154
vt 0.913771 0.778097
v 0.110688 -0.0746449 -0.372486
vt 0.690508 0.697572
v 0.144829 -0.0665562 -0.345774
vt 0.628636 0.590174
vn -0.0609821 0.97425 -0.217067
v -0.0742524 -0.0674721 -0.330057
vn 0.060982 0.97425 -0.217067
v -0.012655 -0.0793418 -0.366026
v -0.0540663 -0.0801221 -0.381162
v -0.0951164 -0.0929241 -0.450154
v -0.110688 -0.0746449 -0.372486
v -0.144829 -0.0665561 -0.345774
vn -0.0609821 -0.97425 0.217067
vt 0.431892 0.0255263
vt 0.427295 0.0474334
v -0.27311 0.243598 0.0831314
vt 0.0761197 0.0529923
vn -0.4629501 -0.8862262 -0.0167485
v -0.283519 0.32584 0.0849166
vt 0.0804067 0.0312927
vn -0.819855 0.572531 -0.0067876
vt 0.0284852 0.348043
vt 0.474558 0.354736
vt 0.041703 0.358387
vt 0.462635 0.349891
v 0.27311 0.243598 0.0831314
vn 0.4629501 -0.8862262 -0.0167485
v 0.283519 0.32584 0.0849166
vn 0.819855 0.572531 -0.00678761
v 0 0.262177 0.208079
vt 0.00268143 0.912623
vn 0 -0.4320418 0.9018536
vt 0.18104 0.758911
vt 0.0374923 0.757577
v -0.093297 0.258725 0.17945
vt 0.270339 0.893292
vn -0.436638 -0.567263 0.698255
v 0.093297 0.258725 0.17945
vn 0.436638 -0.567263 0.698255
vt 0.474979 0.76144
vt 0.480031 0.949433
v 0.0345722 -0.0124102 -0.214008
vt 0.417458 0.917176
vn -0.01702141 -0.7915803 0.6108282
v 0.0552619 0.0681655 -0.127972
vn -0.03521261 -0.7251973 0.6876402
v 0.00666816 0.0634649 -0.135418
v 0.066663 -0.00930592 -0.209091
v 0.0612043 -0.0618165 -0.301007
vn 0.008061337 -0.8684736 0.4956698
v 0.0767922 -0.0603087 -0.298619
vn 0.01702141 0.7915803 -0.6108282
vn 0.03521251 0.7251973 -0.6876402
vn -0.008061037 0.8684736 -0.4956698
v -0.0345723 -0.0124101 -0.214008
vn -0.01702221 0.7915803 -0.6108282
v -0.055262 0.0681656 -0.127972
vn -0.03521359 0.7251977 -0.6876397
v -0.00666821 0.0634649 -0.135418
v -0.0666631 -0.00930585 -0.209091
v -0.0612043 -0.0618165 -0.301007
vn 0.008061857 0.8684736 -0.4956698
v -0.0767923 -0.0603086 -0.298619
vn 0.01702221 -0.7915803 0.6108282
vn 0.03521369 -0.7251977 0.6876397
vn -0.008061497 -0.8684736 0.4956698
vt 0.85292 0.978668
vn 0.09594403 -0.03863978 0.9946364
vn 0.6677809 -0.04814939 0.7427989
vn 0.07199778 -0.06666078 0.9951746
vn -0.6677809 -0.04814939 0.7427989
vn -0.09594396 -0.03863968 0.9946365
vn -0.07199778 -0.06666078 0.9951746
vt 0.935396 0.97765
vt 0.324332 0.940276
vt 0.314791 0.980269
vt 0.613286 0.937968
vt 0.149322 0.421246
v 0.0717793 -0.0644553 -0.315822
v 0.0452232 -0.0701274 -0.333819
v 0.103049 -0.0645337 -0.324959
v 0.0418543 -0.0672345 -0.319888
v 0.101529 -0.061462 -0.310745
v 0.0690456 -0.0611204 -0.300086
v -0.0717794 -0.0644553 -0.315822
v -0.0452233 -0.0701274 -0.333819
v -0.103049 -0.0645337 -0.324959
v -0.0418543 -0.0672344 -0.319888
v -0.101529 -0.0614619 -0.310745
v -0.0690457 -0.0611204 -0.300086
vt 0.143652 0.403032
vt 0.526724 0.382792
o merged_0_0_node
g polygon_0
usemtl mat_body1_mat_id
f 1/1/1 2/1/2 3/1/3
f 1/1/1 4/1/4 2/1/2
f 1/1/1 3/1/3 5/1/5
f 1/1/1 6/1/6 4/1/4
f 1/1/1 5/1/5 7/1/7
f 1/1/1 8/1/8 6/1/6
f 1/1/1 7/1/7 8/1/8
f 2/1/2 9/1/9 3/1/3
f 2/1/2 4/1/4 10/1/10
f 2/1/2 11/1/11 9/1/9
f 2/1/2 10/1/10 11/1/11
f 5/1/5 12/1/12 7/1/7
f 5/1/5 3/1/3 13/1/13
f 5/1/5 14/1/14 12/1/12
f 5/1/5 13/1/13 14/1/14
f 13/1/13 9/1/9 14/1/14
f 13/1/13 3/1/3 9/1/9
f 6/1/6 8/1/8 15/1/15
f 6/1/6 16/1/16 4/1/4
f 6/1/6 15/1/15 16/1/16
f 4/1/4 16/1/16 10/1/10
f 8/1/8 7/1/7 15/1/15
f 11/1/11 17/1/17 9/1/9
f 11/1/11 10/1/10 18/1/18
f 11/1/11 19/1/19 17/1/17
f 11/1/11 18/1/18 19/1/19
f 9/1/9 17/1/17 14/1/14
f 12/1/12 20/1/20 7/1/7
f 12/1/12 19/1/19 18/1/18
f 12/1/12 14/1/14 21/1/21
f 12/1/12 18/1/18 20/1/20
f 12/1/12 21/1/21 19/1/19
f 21/1/21 17/1/17 19/1/19
f 21/1/21 14/1/14 17/1/17
f 7/1/7 20/1/20 15/1/15
f 16/1/16 22/1/22 10/1/10
f 16/1/16 15/1/15 23/1/23
f 16/1/16 23/1/23 22/1/22
f 15/1/15 20/1/20 23/1/23
f 10/1/10 22/1/22 18/1/18
f 20/1/20 24/1/24 23/1/23
f 20/1/20 18/1/18 24/1/24
f 24/1/24 22/1/22 23/1/23
f 24/1/24 18/1/18 22/1/22
f 25/2/17 26/3/25 27/4/26
f 25/2/17 28/5/27 26/3/25
f 25/2/17 27/4/26 29/6/28
f 25/2/17 30/7/29 28/5/27
f 25/2/17 29/6/28 31/8/30
f 25/2/17 31/8/30 30/7/29
f 27/4/26 32/9/31 29/6/28
f 27/4/26 33/10/32 32/9/31
f 31/8/30 29/6/28 34/11/33
f 31/8/30 34/11/33 35/12/34
f 29/6/28 32/9/31 34/11/33
f 35/12/34 34/11/33 36/8/35
f 32/9/31 37/6/36 34/11/33
f 32/9/31 38/4/37 37/6/36
f 32/9/31 39/10/38 38/4/37
f 34/11/33 37/6/36 36/8/35
f 38/4/37 40/2/9 37/6/36
f 38/4/37 41/3/39 40/2/9
f 37/6/36 40/2/9 36/8/35
f 41/3/39 42/5/40 40/2/9
f 36/8/35 40/2/9 43/7/41
f 43/7/41 40/2/9 42/5/40
f 44/13/42 32/13/31 33/13/32
f 44/13/42 39/13/38 32/13/31
f 44/13/42 33/13/32 45/13/43
f 44/13/42 46/13/44 39/13/38
f 44/13/42 45/13/43 47/13/45
f 44/13/42 47/13/45 46/13/44
f 33/13/32 48/13/46 49/13/47
f 39/13/38 50/13/48 51/13/49
f 52/14/50 53/14/51 54/14/52
f 52/14/50 55/14/53 53/14/51
f 52/14/50 54/14/52 56/14/54
f 52/14/50 57/14/55 55/14/53
f 52/14/50 56/14/54 58/14/56
f 52/14/50 58/14/56 57/14/55
f 53/14/51 59/14/57 54/14/52
f 53/14/51 55/14/53 60/14/58
f 53/14/51 60/14/58 59/14/57
f 56/14/54 61/14/59 58/14/56
f 56/14/54 54/14/52 62/14/60
f 56/14/54 63/15/61 61/14/59
f 56/14/54 62/14/60 63/15/61
f 57/14/55 64/14/62 55/14/53
f 57/14/55 58/14/56 65/14/63
f 57/14/55 66/15/64 64/14/62
f 57/14/55 65/16/63 66/15/64
f 55/14/53 64/14/62 60/14/58
f 59/14/57 60/14/58 35/14/34
f 59/14/57 35/14/34 36/14/35
f 61/14/59 63/15/61 67/16/65
f 61/14/59 68/14/66 58/14/56
f 61/14/59 67/16/65 69/16/67
f 61/14/59 70/14/68 68/14/66
f 58/14/56 68/14/66 65/14/63
f 62/14/60 43/16/41 63/15/61
f 63/15/61 43/16/41 67/16/65
f 65/16/63 71/16/69 66/15/64
f 65/16/63 72/16/70 71/16/69
f 64/14/62 31/14/30 60/14/58
f 64/14/62 66/15/64 30/14/29
f 30/14/29 66/15/64 71/16/69
f 60/14/58 31/14/30 35/14/34
f 70/14/68 73/14/71 68/14/66
f 65/14/63 68/14/66 74/14/72
f 65/14/63 74/14/72 72/14/70
f 74/14/72 68/14/66 73/14/71
f 75/17/73 68/18/74 76/19/75
f 75/17/73 77/20/76 68/18/74
f 75/17/73 76/19/75 78/21/77
f 75/17/73 79/22/78 77/20/76
f 75/17/73 78/21/77 73/23/79
f 75/17/73 73/23/79 79/22/78
f 80/24/80 81/25/80 82/26/80
f 80/24/80 82/26/80 83/27/80
f 80/24/80 83/27/80 84/28/80
f 80/24/80 84/28/80 85/29/80
f 80/24/81 82/26/81 81/25/81
f 80/24/81 83/27/81 82/26/81
f 80/24/81 84/28/81 83/27/81
f 80/24/81 85/29/81 84/28/81
f 86/24/82 87/25/82 88/26/82
f 86/24/82 88/26/82 89/27/82
f 86/24/82 89/27/82 90/28/82
f 86/24/82 90/28/82 91/29/82
f 86/24/83 88/26/83 87/25/83
f 86/24/83 89/27/83 88/26/83
f 86/24/83 90/28/83 89/27/83
f 86/24/83 91/29/83 90/28/83
f 42/30/40 41/31/39 92/32/84
f 42/30/40 92/32/84 93/33/85
f 42/30/40 93/33/85 67/34/65
f 42/30/40 67/34/65 43/35/41
f 41/31/39 39/36/38 92/32/84
f 41/31/39 38/37/37 39/36/38
f 28/30/27 94/32/86 26/31/25
f 28/30/27 95/33/87 94/32/86
f 28/30/27 71/34/69 95/33/87
f 28/30/27 30/35/29 71/34/69
f 26/31/25 94/32/86 33/36/32
f 26/31/25 33/36/32 27/37/26
f 96/38/88 46/39/44 47/40/45
f 96/38/88 97/41/89 46/39/44
f 96/38/88 47/40/45 45/39/43
f 96/38/88 45/39/43 98/41/90
f 97/41/89 39/42/38 46/39/44
f 97/41/89 50/43/48 39/42/38
f 45/39/43 33/42/32 98/41/90
f 33/42/32 49/43/47 98/41/90
f 99/44/91 100/44/92 101/44/92
f 99/44/91 102/44/91 100/44/92
f 99/44/91 103/44/93 102/44/91
f 103/44/93 104/44/93 102/44/91
f 99/44/94 101/44/95 100/44/95
f 99/44/94 100/44/95 102/44/94
f 99/44/94 102/44/94 103/44/96
f 102/44/94 104/44/96 103/44/96
f 105/44/97 106/44/98 107/44/98
f 105/44/97 108/44/97 106/44/98
f 105/44/97 109/44/99 108/44/97
f 109/44/99 110/44/99 108/44/97
f 105/44/100 107/44/101 106/44/101
f 105/44/100 106/44/101 108/44/100
f 105/44/100 108/44/100 109/44/102
f 108/44/100 110/44/102 109/44/102
f 48/45/46 95/45/103 71/45/104
f 48/45/46 94/45/105 95/45/103
f 48/45/46 33/45/32 94/45/105
f 51/45/49 67/45/106 93/45/107
f 51/45/49 93/45/107 92/45/108
f 51/45/49 92/45/108 39/45/38
f 49/46/47 71/47/104 72/48/70
f 49/46/47 48/49/46 71/47/104
f 50/46/48 67/47/106 51/49/49
f 50/46/48 69/48/67 67/47/106
f 62/50/60 54/50/52 59/50/57
f 62/50/60 59/50/57 36/50/35
f 111/44/80 112/44/80 113/44/80
f 114/44/80 115/44/80 116/44/80
f 111/44/81 113/44/81 112/44/81
f 114/44/81 116/44/81 115/44/81
f 117/44/82 118/44/82 119/44/82
f 120/44/82 121/44/82 122/44/82
f 117/44/83 119/44/83 118/44/83
f 120/44/83 122/44/83 121/44/83
f 61/51/59 69/51/67 70/51/68
f 64/52/62 30/52/29 31/52/30
f 36/52/35 43/52/41 62/52/60
vt 1.05121 0.949791
v 0.0963485 0.340802 0.211308
vt 0.537093 0.875564
vn 0.4522999 -0.137321 0.8812308
vt 0.960063 0.787217
vt 0.540679 0.759146
vt 0.00901115 0.902923
vt 0.00536311 0.768812
v -0.0963485 0.340802 0.211308
vn -0.4522999 -0.137321 0.8812308
vt 0.531431 0.999367
o merged_1_0_node
g polygon_0
usemtl TEX_ANIM_EYE_mat_id
f 72/53/70 123/54/109 49/55/47
f 49/55/47 123/54/109 98/56/90
f 123/54/109 73/57/71 96/58/88
f 96/58/88 73/57/71 124/54/110
f 96/58/88 124/54/110 97/56/89
f 123/54/109 96/58/88 98/56/90
f 69/53/67 50/55/48 124/54/110
f 124/54/110 50/55/48 97/56/89
f 70/59/68 69/53/67 124/54/110
f 72/53/70 74/59/72 123/54/109
f 124/54/110 73/57/71 70/59/68
f 123/54/109 74/59/72 73/57/71
