mtllib Darmanitan_Action.mtl
v 0.0482724 0.363377 0.257972
vt 0.875288 0.612092
vn -0.397546 0.714927 0.575184
v 0.0445197 0.34615 0.237692
vt 0.901148 0.597241
vn -0.626719 0.120194 -0.76992
v 0.0182258 0.342053 0.240842
vt 0.869168 0.57307
vn -0.5841411 -0.09035671 -0.8066071
v 0.129002 0.415287 0.171658
vt 0.901578 0.713246
vn -0.5948962 0.2543791 -0.7624893
vn 0.207562 0.9512181 0.228259
v 0.136917 0.451621 0.214431
vt 0.847037 0.744568
vn -0.31204 0.825314 0.470625
v 0.0434972 0.34724 0.277615
vt 0.897621 0.597157
vn 0.5660386 0.1239879 0.8150014
v 0.157273 0.397791 0.218864
vt 0.976001 0.724229
vn 0.6147732 -0.2380421 0.7519242
v 0.0400195 0.328565 0.277233
vt 0.92654 0.581537
vn 0.307869 -0.680563 0.664869
v 0.0579237 0.337854 0.260074
vt 0.936434 0.602448
vn 0.5566847 -0.3759308 0.7407957
v 0.0319059 0.318942 0.250469
vt 0.931952 0.568353
vn 0.06266548 -0.9146807 -0.3992898
v 0.146598 0.383351 0.184594
vt 0.986372 0.705664
vn 0.330966 -0.793503 -0.5107
v 0.0528623 0.331008 0.243826
vt 0.941352 0.593646
vn 0.260217 -0.874477 -0.409362
v 0.0349434 0.364289 0.266293
vt 0.853612 0.601887
vn -0.0163695 0.944312 0.328644
v 0.0252713 0.35852 0.247182
vt 0.84964 0.590076
vn -0.4240922 0.6713693 -0.6077903
v 0.225879 0.485835 0.152305
vt 0.918034 0.840289
vn 0.5291072 0.8443294 -0.08457874
v 0.0180528 0.331292 0.264178
vt 0.88858 0.565558
vn -0.830429 -0.464285 0.30794
v 0.0185693 0.356477 0.276235
vt 0.843314 0.583231
vn -0.7266358 0.3209969 0.6074219
v 0.203398 0.309013 -0.0757743
vt 0.29133 0.222454
vn 0.8575498 0.2719349 -0.4366459
v 0.201012 0.342675 0.0267506
vt 0.2925 0.166033
vn 0.9020144 0.4308742 0.02678751
v 0.216637 0.278291 0.0601203
vt 0.316629 0.139756
vn 0.9853742 0.06868292 0.15595
v 0.147286 0.421681 -0.00888501
vt 0.263523 0.152511
vn 0.5737817 0.7971565 -0.1879259
v 0.212648 0.219759 -0.0274973
vt 0.315431 0.196161
vn 0.9671839 -0.226985 -0.114163
v 0.128728 0.378395 -0.114512
vt 0.237456 0.21954
vn 0.4913159 0.6485568 -0.5813629
v 0.182898 0.206188 -0.109201
vt 0.295965 0.25243
vn 0.8488628 -0.1984789 -0.4899369
v 0.074107 0.321511 -0.183033
vt 0.252927 0.267423
vn 0.315637 0.362992 -0.8767041
v 0.101745 0.240151 -0.1847
vt 0.292069 0.295917
vn 0.6183749 0.220438 -0.7543339
v 0.161722 0.382248 0.101813
vt 0.29367 0.109611
vn 0.7669313 0.5684922 0.2977131
v 0.168813 0.11076 0.0169647
vt 0.312372 0.17416
vn 0.7612503 -0.6480143 -0.02398831
v 0.19237 0.186745 0.113063
vt 0.313412 0.109485
vn 0.9257188 -0.2849779 0.2486609
v 0 0.395534 -0.14033
vt 0.214885 0.21954
vn 2.110311E-06 0.7243214 -0.6894624
v 0.122353 0.1088623 -0.1592362
vt 0.278581 0.296913
vn 0.8209777 -0.2925403 -0.4903222
v 0 0.245962 -0.196949
vt 0.214885 0.321803
vn -9.321336E-06 0.6695837 -0.7427366
v 0.0979581 0.18125 -0.222085
vt 0.279801 0.325624
vn 0.6869961 -0.03051691 -0.7260201
v 0 0.239925 -0.271878
vt 0.214885 0.354115
vn -0.000114343 0.5855142 -0.8106622
v 0.0652998 0.471715 0.0860164
vt 0.248871 0.103574
vn 0.234742 0.9530519 0.191281
v 0 0.465002 -0.0422177
vt 0.214885 0.15658
vn 0 0.936192 -0.351489
v 0.184956 0.277954 0.145224
vt 0.30683 0.0879274
vn 0.8884936 0.1506209 0.4334658
v -0.0741073 0.321511 -0.183033
vt 0.176843 0.267423
vn -0.3155719 0.3631099 -0.8766787
v -0.128727 0.378396 -0.114512
vt 0.192314 0.21954
vn -0.4913683 0.6485114 -0.5813693
v 0 0.183792 -0.25065
vt 0.214885 0.341713
vn -0.0005731518 -0.3983859 -0.9172177
v 0.0617937 0.09962506 -0.1886939
vt 0.247046 0.318507
vn 0.0251615 -0.6531401 -0.756819
v 0 0.1283944 -0.2228346
vt 0.214885 0.334309
vn -0.0002974962 -0.5535482 -0.8328171
v 0.1453 0.117389 0.142267
vt 0.295458 0.0897368
vn 0.4993059 -0.7423269 0.4468159
v 0.0988485 0.08258047 -0.09348464
vt 0.267035 0.259156
vn 0.5259879 -0.8278797 0.1948124
v 0.0602007 0.04308848 0.0436732
vt 0.24708 0.156361
vn 0.2877759 -0.9550297 0.07143778
v -0.0652998 0.471715 0.0860164
vt 0.180899 0.103574
vn -0.2347399 0.9530528 0.1912789
v -0.147286 0.421681 -0.00888501
vt 0.166247 0.152511
vn -0.5731238 0.7975537 -0.1882479
v 0.109618 0.370021 0.208794
vt 0.26978 0.0499359
vn 0.5988777 0.5113507 0.6163327
v 0.0685399 0.428677 0.178756
vt 0.249326 0.0671041
vn 0.216717 0.8308409 0.512579
v -0.203393 0.309013 -0.0757512
vt 0.13844 0.222454
vn -0.8571558 0.2720299 -0.4373599
v -0.101832 0.240147 -0.1847
vt 0.137701 0.295917
vn -0.6183167 0.2202189 -0.7544456
v -0.0979581 0.181252 -0.221962
vt 0.149969 0.325624
vn -0.6865842 -0.03123301 -0.7263792
v -0.0617937 0.09962506 -0.1886929
vt 0.182724 0.318507
vn -0.02530419 -0.6529158 -0.7570077
v 0 0.05491161 -0.1032089
vt 0.214885 0.261697
vn 0 -0.9714972 -0.237051
v 0.145089 0.163292 0.182874
vt 0.290457 0.0655788
vn 0.4635631 -0.5247301 0.7139801
v 0.13603 0.235186 0.224381
vt 0.285456 0.0408856
vn 0.5076169 -0.277776 0.8155769
v -0.0685399 0.428677 0.178756
vt 0.180444 0.0671041
vn -0.216715 0.8308401 0.5125811
v -0.161734 0.382247 0.101813
vt 0.1361 0.109611
vn -0.7663872 0.5687911 0.2985421
v 0.119533 0.326864 0.21415
vt 0.27523 0.0469727
vn 0.6655908 0.2352899 0.7082568
v 0 0.368276 0.235302
vt 0.214885 0.0343889
vn 0.0002574 0.5352241 0.8447101
v -0.182898 0.206189 -0.109201
vt 0.133805 0.25243
vn -0.8488441 -0.198657 -0.4898971
v -0.201873 0.342627 0.0268717
vt 0.13727 0.166033
vn -0.9031009 0.4285499 0.0274538
v -0.212732 0.219754 -0.0275166
vt 0.114339 0.196161
vn -0.9673548 -0.2264459 -0.113785
v -0.216415 0.27824 0.0600543
vt 0.113141 0.139756
vn -0.9853032 0.06684352 0.157193
v -0.122352 0.1088623 -0.1592132
vt 0.151189 0.296913
vn -0.820945 -0.2925791 -0.4903537
v -0.0602008 0.04308848 0.0436732
vt 0.18269 0.156361
vn -0.287762 -0.9550329 0.07145059
v 0 0.06088798 0.141852
vt 0.214885 0.0899836
vn 0 -0.8574347 0.5145928
v 0.128642 0.286174 0.219131
vt 0.280679 0.0440095
vn 0.665177 0.201983 0.718848
v 0 0.115397 0.22138
vt 0.214885 0.0426714
vn 0.000139998 -0.6233839 0.7819159
v -0.109618 0.370021 0.208794
vt 0.15999 0.0499359
vn -0.599634 0.511917 0.615126
v -0.192345 0.186745 0.113064
vt 0.116358 0.109485
vn -0.925634 -0.285331 0.248572
v -0.168817 0.11076 0.0169652
vt 0.117398 0.17416
vn -0.7611923 -0.6480862 -0.02388621
v -0.0988739 0.08258057 -0.09348464
vt 0.162735 0.259156
vn -0.5260068 -0.8278685 0.1948094
v -0.1453 0.117389 0.142267
vt 0.134312 0.0897368
vn -0.4994622 -0.7421722 0.4468981
v -0.144993 0.163292 0.182874
vt 0.139313 0.0655788
vn -0.4663418 -0.5224908 0.7138128
v -0.184923 0.277954 0.145224
vt 0.12294 0.0879274
vn -0.8887652 0.148735 0.4335601
v -0.164315 0.2117 0.166727
vt 0.130336 0.0751853
vn -0.8587247 -0.136894 0.4938138
v -0.136026 0.235019 0.224381
vt 0.144314 0.0408856
vn -0.5070659 -0.278497 0.8156738
v -0.119533 0.326864 0.21415
vt 0.154541 0.0469727
vn -0.66571 0.235295 0.708143
v -0.128642 0.286168 0.219131
vt 0.149091 0.0440095
vn -0.6653601 0.201632 0.7187771
v -0.0482724 0.363377 0.257972
vn 0.397546 0.714927 0.575184
v -0.0182258 0.342053 0.240842
vn 0.584141 -0.090357 -0.806607
v -0.0445197 0.34615 0.237692
vn 0.626719 0.120194 -0.76992
vn -0.207562 0.9512181 0.228259
v -0.129002 0.415287 0.171658
vn 0.5948962 0.2543791 -0.7624893
v -0.0400195 0.328565 0.277233
vn -0.307869 -0.680563 0.664869
v -0.136917 0.451621 0.214431
vn 0.31204 0.825314 0.470625
v -0.0579237 0.337854 0.260074
vn -0.5566847 -0.3759308 0.7407957
v -0.157273 0.397791 0.218864
vn -0.6147732 -0.2380421 0.7519242
v -0.0319059 0.318942 0.250469
vn -0.06266548 -0.9146807 -0.3992898
v -0.0252713 0.35852 0.247182
vn 0.424093 0.6713691 -0.6077901
v -0.0180528 0.331292 0.264178
vn 0.8304294 -0.4642842 0.3079402
v -0.0185693 0.356477 0.276235
vn 0.7266358 0.3209969 0.6074219
v -0.225879 0.485835 0.152305
vn -0.5291079 0.8443288 -0.08457978
v -0.146598 0.383351 0.184594
vn -0.330966 -0.793503 -0.5107
v -0.0349434 0.364289 0.266293
vn 0.0163695 0.944312 0.328644
v -0.0434972 0.34724 0.277615
vn -0.566038 0.123988 0.8150019
v -0.0528623 0.331008 0.243826
vn -0.260217 -0.874477 -0.409362
v -0.0776285 0.27524 0.244639
vt 0.441501 0.735148
vn -0.2765979 0.01663889 0.9608417
v 0 0.274752 0.257878
vt 0.0107263 0.720636
vn 0 0.07285952 0.9973422
v -0.032293 0.298141 0.249447
vt 0.186767 0.796956
vn -0.131497 0.2049911 0.9698903
v 0 0.194541 0.259453
vt 0.0107263 0.489931
vn 0.0002715119 -0.3803938 0.9248246
vt 0.777414 0.586994
vt 0.725514 0.767214
vt 0.666315 0.926793
v 0.0776282 0.275231 0.244639
vt 0.441305 0.735068
vn 0.276587 0.0165724 0.960846
v 0.032293 0.298141 0.249447
vn 0.1324399 0.2064639 0.9694495
v 0.138615 -0.001575051 -0.1340713
vt 0.384382 0.429781
vn 0.1472164 -0.96738 -0.206163
vt 0.382532 0.504022
vt 0.380004 0.489582
vt 0.375628 0.491465
vt 0.368586 0.470161
v -0.138615 -0.001575051 -0.1340713
vt 0.35279 0.429781
vn -0.1470654 -0.9674112 -0.206125
vt 0.361544 0.491465
vt 0.357167 0.489582
vt 0.354639 0.504022
v 0.100357 0.0004601044 0.2594272
vt 0.50523 0.00209151
vn -0.9488078 0.3070103 -0.07421855
v 0.148813 0.259713 0.2070216
vt 0.754309 0.293907
vn 0 0.9720007 -0.2349781
v 0.177443 0.0004600883 0.1823372
vt 0.754309 0.00209151
vn 0 0.1545858 -0.9879794
v 0.177443 0.0004601226 0.3365172
vn 0 0.4606581 0.8875777
v 0.254529 0.0004601064 0.2594272
vt 1.00339 0.00209151
vn 0.9488081 0.3070094 -0.07421857
v -0.148813 0.259713 0.2070216
v -0.100357 0.0004601044 0.2594272
v -0.177443 0.0004600883 0.1823372
v -0.177443 0.0004601226 0.3365172
v -0.254529 0.0004601064 0.2594272
vt 0.00743979 0.483592
vt 0.95739 0.346077
vt 0.00743979 0.26671
vt 0.894339 0.548938
vt 0.0154152 0.976841
vt 0.0154152 0.776762
vt 0.563675 0.776762
vt 0.690235 0.994741
o merged_0_0_node
g polygon_0
usemtl HIHIDARUMA_fourleg_HIHIDARUMA_fourleg_mat_body1_mat_id
f 1/1/1 2/2/2 3/3/3
f 1/1/1 4/4/4 2/2/2
f 1/1/1 3/3/3 1/1/5
f 1/1/1 5/5/6 4/4/4
f 1/1/1 1/1/5 6/6/7
f 1/1/1 7/7/8 5/5/6
f 1/1/1 6/6/7 8/8/9
f 1/1/1 9/9/10 7/7/8
f 1/1/1 8/8/9 9/9/10
f 2/2/2 10/10/11 3/3/3
f 2/2/2 4/4/4 11/11/12
f 2/2/2 12/12/13 10/10/11
f 2/2/2 11/11/12 12/12/13
f 9/9/10 11/11/12 7/7/8
f 9/9/10 8/8/9 10/10/11
f 9/9/10 10/10/11 12/12/13
f 9/9/10 12/12/13 11/11/12
f 1/1/5 13/13/14 6/6/7
f 1/1/5 3/3/3 14/14/15
f 1/1/5 14/14/15 13/13/14
f 5/5/6 15/15/16 4/4/4
f 5/5/6 7/7/8 15/15/16
f 15/15/16 7/7/8 11/11/12
f 15/15/16 11/11/12 4/4/4
f 8/8/9 16/16/17 10/10/11
f 8/8/9 6/6/7 17/17/18
f 8/8/9 17/17/18 16/16/17
f 17/17/18 3/3/3 16/16/17
f 17/17/18 14/14/15 3/3/3
f 17/17/18 6/6/7 13/13/14
f 17/17/18 13/13/14 14/14/15
f 3/3/3 10/10/11 16/16/17
f 18/18/19 19/19/20 20/20/21
f 18/18/19 21/21/22 19/19/20
f 18/18/19 20/20/21 22/22/23
f 18/18/19 23/23/24 21/21/22
f 18/18/19 22/22/23 24/24/25
f 18/18/19 25/25/26 23/23/24
f 18/18/19 24/24/25 26/26/27
f 18/18/19 26/26/27 25/25/26
f 19/19/20 27/27/28 20/20/21
f 19/19/20 21/21/22 27/27/28
f 22/22/23 28/28/29 24/24/25
f 22/22/23 20/20/21 29/29/30
f 22/22/23 29/29/30 28/28/29
f 23/23/24 25/25/26 30/30/31
f 26/26/27 24/24/25 31/31/32
f 26/26/27 32/32/33 25/25/26
f 26/26/27 31/31/32 33/33/34
f 26/26/27 34/34/35 32/32/33
f 26/26/27 33/33/34 34/34/35
f 24/24/25 28/28/29 31/31/32
f 21/21/22 35/35/36 27/27/28
f 21/21/22 36/36/37 35/35/36
f 20/20/21 37/37/38 29/29/30
f 20/20/21 27/27/28 37/37/38
f 30/30/31 25/25/26 38/38/39
f 30/30/31 38/38/39 39/39/40
f 25/25/26 32/32/33 38/38/39
f 33/33/34 40/40/41 34/34/35
f 33/33/34 31/31/32 41/41/42
f 33/33/34 42/42/43 40/40/41
f 33/33/34 41/41/42 42/42/43
f 28/28/29 29/29/30 43/43/44
f 28/28/29 44/44/45 31/31/32
f 28/28/29 43/43/44 45/45/46
f 28/28/29 45/45/46 44/44/45
f 36/36/37 46/46/47 35/35/36
f 36/36/37 47/47/48 46/46/47
f 27/27/28 48/48/49 37/37/38
f 27/27/28 35/35/36 49/49/50
f 27/27/28 49/49/50 48/48/49
f 39/39/40 38/38/39 50/50/51
f 39/39/40 50/50/51 47/47/48
f 32/32/33 34/34/35 51/51/52
f 32/32/33 51/51/52 38/38/39
f 38/38/39 51/51/52 50/50/51
f 40/40/41 42/42/43 52/52/53
f 40/40/41 52/52/53 34/34/35
f 34/34/35 52/52/53 51/51/52
f 41/41/42 53/53/54 42/42/43
f 41/41/42 54/54/55 53/53/54
f 42/42/43 53/53/54 52/52/53
f 44/44/45 45/45/46 54/54/55
f 29/29/30 55/55/56 43/43/44
f 29/29/30 37/37/38 56/56/57
f 29/29/30 56/56/57 55/55/56
f 46/46/47 57/57/58 35/35/36
f 46/46/47 47/47/48 58/58/59
f 46/46/47 58/58/59 57/57/58
f 35/35/36 57/57/58 49/49/50
f 48/48/49 59/59/60 37/37/38
f 48/48/49 49/49/50 60/60/61
f 49/49/50 57/57/58 60/60/61
f 50/50/51 51/51/52 61/61/62
f 50/50/51 62/62/63 47/47/48
f 50/50/51 61/61/62 63/63/64
f 50/50/51 64/64/65 62/62/63
f 50/50/51 63/63/64 64/64/65
f 62/62/63 64/64/65 58/58/59
f 62/62/63 58/58/59 47/47/48
f 53/53/54 65/65/66 52/52/53
f 51/51/52 65/65/66 61/61/62
f 51/51/52 52/52/53 65/65/66
f 45/45/46 66/66/67 54/54/55
f 45/45/46 43/43/44 67/67/68
f 45/45/46 67/67/68 66/66/67
f 56/56/57 37/37/38 68/68/69
f 68/68/69 37/37/38 59/59/60
f 55/55/56 69/69/70 43/43/44
f 43/43/44 69/69/70 67/67/68
f 57/57/58 70/70/71 60/60/61
f 57/57/58 58/58/59 70/70/71
f 63/63/64 71/71/72 64/64/65
f 63/63/64 61/61/62 72/72/73
f 63/63/64 72/72/73 71/71/72
f 61/61/62 65/65/66 72/72/73
f 54/54/55 66/66/67 73/73/74
f 73/73/74 72/72/73 65/65/66
f 73/73/74 66/66/67 72/72/73
f 69/69/70 74/74/75 67/67/68
f 69/69/70 75/75/76 74/74/75
f 74/74/75 71/71/72 72/72/73
f 74/74/75 72/72/73 66/66/67
f 74/74/75 66/66/67 67/67/68
f 74/74/75 75/75/76 71/71/72
f 58/58/59 76/76/77 70/70/71
f 58/58/59 64/64/65 76/76/77
f 64/64/65 71/71/72 76/76/77
f 75/75/76 77/77/78 71/71/72
f 75/75/76 78/78/79 77/77/78
f 77/77/78 78/78/79 76/76/77
f 77/77/78 76/76/77 71/71/72
f 70/70/71 76/76/77 79/79/80
f 78/78/79 80/80/81 76/76/77
f 76/76/77 80/80/81 79/79/80
f 81/1/82 82/3/83 83/2/84
f 81/1/82 81/1/85 82/3/83
f 81/1/82 83/2/84 84/4/86
f 81/1/82 85/8/87 81/1/85
f 81/1/82 84/4/86 86/5/88
f 81/1/82 87/9/89 85/8/87
f 81/1/82 86/5/88 88/7/90
f 81/1/82 88/7/90 87/9/89
f 82/3/83 89/10/91 83/2/84
f 82/3/83 81/1/85 90/14/92
f 82/3/83 91/16/93 89/10/91
f 82/3/83 90/14/92 92/17/94
f 82/3/83 92/17/94 91/16/93
f 91/16/93 85/8/87 89/10/91
f 91/16/93 92/17/94 85/8/87
f 84/4/86 93/15/95 86/5/88
f 84/4/86 83/2/84 94/11/96
f 84/4/86 94/11/96 93/15/95
f 88/7/90 94/11/96 87/9/89
f 88/7/90 86/5/88 93/15/95
f 88/7/90 93/15/95 94/11/96
f 81/1/85 95/13/97 90/14/92
f 81/1/85 85/8/87 96/6/98
f 81/1/85 96/6/98 95/13/97
f 92/17/94 90/14/92 95/13/97
f 92/17/94 96/6/98 85/8/87
f 92/17/94 95/13/97 96/6/98
f 85/8/87 87/9/89 89/10/91
f 83/2/84 97/12/99 94/11/96
f 83/2/84 89/10/91 97/12/99
f 97/12/99 89/10/91 87/9/89
f 97/12/99 87/9/89 94/11/96
f 98/81/100 99/82/101 100/83/102
f 98/81/100 101/84/103 99/82/101
f 98/81/100 78/85/79 101/84/103
f 98/81/100 80/86/81 78/85/79
f 98/81/100 79/87/80 80/86/81
f 99/82/101 101/84/103 102/88/104
f 99/82/101 102/88/104 103/83/105
f 101/84/103 56/85/57 102/88/104
f 56/85/57 68/86/69 102/88/104
f 68/86/69 59/87/60 102/88/104
f 104/89/106 31/90/32 44/91/45
f 104/89/106 41/92/42 31/90/32
f 104/89/106 44/91/45 54/93/55
f 104/89/106 54/93/55 41/92/42
f 54/93/55 105/94/107 53/95/54
f 54/93/55 73/96/74 105/94/107
f 53/95/54 105/94/107 65/97/66
f 65/97/66 105/94/107 73/96/74
f 106/98/108 107/99/109 108/100/110
f 106/98/108 109/100/111 107/99/109
f 106/98/108 108/100/110 110/101/112
f 106/98/108 110/101/112 109/100/111
f 110/101/112 107/99/109 109/100/111
f 110/101/112 108/100/110 107/99/109
f 111/99/109 112/98/112 113/100/110
f 111/99/109 114/100/111 112/98/112
f 111/99/109 113/100/110 115/101/108
f 111/99/109 115/101/108 114/100/111
f 115/101/108 112/98/112 114/100/111
f 115/101/108 113/100/110 112/98/112
f 101/102/103 75/103/76 69/104/70
f 101/102/103 78/105/79 75/103/76
f 101/102/103 69/104/70 55/103/56
f 101/102/103 55/103/56 56/105/57
f 36/106/37 30/107/31 39/108/40
f 36/106/37 23/108/24 30/107/31
f 36/106/37 39/108/40 47/109/48
f 36/106/37 21/109/22 23/108/24
vt 0.0203743 0.978075
vt 0.267213 0.817253
vt 0.0203743 0.762911
v -0.0377235 0.350993 0.235211
vt 0.30995 0.937947
vn -0.170358 0.339844 0.9249239
v -0.0738501 0.331749 0.235121
vt 0.599526 0.897819
vn -0.25248 0.292739 0.9222569
vt 0.979032 0.885495
vt 0.891159 0.978385
v 0.0738501 0.331749 0.235121
vn 0.2522521 0.2928651 0.9222792
vt 0.645038 0.765966
o merged_1_0_node
g polygon_0
usemtl TEX_ANIM_EYE_mat_id
f 60/110/61 100/111/102 99/112/101
f 60/110/61 116/113/113 100/111/102
f 100/111/102 116/113/113 117/114/114
f 99/112/101 103/111/105 60/110/61
f 59/115/60 48/116/49 118/114/115
f 117/114/114 98/117/100 100/111/102
f 60/110/61 70/116/71 116/113/113
f 116/113/113 70/116/71 117/114/114
f 118/114/115 48/116/49 60/110/61
f 103/111/105 118/114/115 60/110/61
f 59/115/60 118/114/115 102/117/104
f 102/117/104 118/114/115 103/111/105
f 79/115/80 98/117/100 117/114/114
f 79/115/80 117/114/114 70/116/71
