mtllib Pawniard.mtl
v -0.121601 0.102273 0
vt -0.304002 0.232998
vn -0.9930711 0.117515 0
v -0.0573374 0.0607307 -0.0971327
vt -0.143343 0.129144
vn -0.369015 -0.580716 -0.72567
v -0.114675 0.0607307 0
vt -0.286687 0.129144
vn -0.9088405 -0.4171408 -0.001588499
v -0.0608004 0.102273 -0.105309
vt -0.152001 0.232998
vn -0.4824452 0.1303611 -0.8661712
v -0.0573374 0.0607307 0.0873338
vn -0.3591853 -0.6133844 0.7033815
v -0.0469362 0.217188 -0.0770094
vt -0.117341 0.54297
vn -0.4487171 0.4227941 -0.7873361
v -0.0608004 0.102273 0.105309
vn -0.4703898 0.08821336 0.8780386
v -0.0938725 0.217188 0
vt -0.234681 0.54297
vn -0.9115037 0.4112919 0
v -0.0469363 0.217188 0.0770094
vn -0.4487171 0.4227941 0.7873361
v -0.0573382 0 0
vt -0.143345 0
vn -0.122612 -0.9924226 -0.007980597
v 0.0608004 0.102273 -0.105309
vt 0.152001 0.232998
vn 0.4824452 0.1303611 -0.8661712
v 0 0.0433818 0
vt 0 0.0857716
vn 0 -1 0.000113185
v 0.0573374 0.0607307 -0.09713261
vt 0.143344 0.129144
vn 0.3690159 -0.5807158 -0.7256697
v 0 0.229166 0
vt 0 0.572914
vn 0 1 0
v 0.0469363 0.217188 -0.0770094
vt 0.117341 0.54297
vn 0.4487171 0.4227941 -0.7873361
v 0.0573374 0.0607307 0.0873338
vn 0.359185 -0.613384 0.703382
v 0.0608004 0.102273 0.105309
vn 0.4703898 0.08821327 0.8780386
v 0.121601 0.102273 0
vt 0.304002 0.232998
vn 0.9930711 0.117515 0
v 0.0573382 0 0
vt 0.143345 0
vn 0.122612 -0.9924226 -0.007980527
v 0.114675 0.0607307 0
vt 0.286687 0.129144
vn 0.9088405 -0.4171408 -0.001588259
v 0.0469362 0.217188 0.0770094
vn 0.4487171 0.4227941 0.7873361
v 0.0938725 0.217188 0
vt 0.234681 0.54297
vn 0.9115037 0.4112919 0
v 0 0.448374 0.0266267
vt 0.942789 0.537221
vn 0 -0.9714132 -0.237395
v 0.217069 0.377438 0.0101277
vt 0.948849 0.359879
vn -0.7057871 -0.687058 0.172673
v 0.175792 0.375465 0.0989255
vt 0.926334 0.354947
vn -0.2946459 -0.9296747 -0.2211079
v 0.125312 0.423271 -0.0918585
vt 0.969755 0.474462
vn -0.5035411 -0.7124051 0.4888
v 0.0894086 0.375465 0.178994
vt 0.908111 0.354947
vn -0.1940539 -0.9243706 -0.3284539
v 0 0.375465 0.201388
vt 0.903014 0.354947
vn 0 -0.9229032 -0.3850321
v -0.0894086 0.375465 0.178994
vn 0.1940539 -0.9243706 -0.3284539
v -0.175792 0.375465 0.0989254
vn 0.2946459 -0.9296747 -0.2211079
v -0.217069 0.377438 0.0101277
vn 0.7057871 -0.687058 0.172673
v -0.125312 0.423271 -0.0918585
vn 0.5035411 -0.7124051 0.4888
v 0.167667 0.250365 -0.16557
vt 0.986531 0
vn -0.553396 -0.391308 0.735276
v 0 0.250365 -0.22475
vt 1 0
vn 0 -0.48522 0.8743921
v 0 0.399995 -0.125604
vt 0.977435 0.416272
vn 0 -0.5619162 0.8271942
v -0.167667 0.250365 -0.16557
vn 0.553396 -0.391308 0.735276
v -0.217127 0.250365 0
vt 0.948849 0
vn 0.9579034 -0.02324311 0.2861481
v 0.217127 0.250365 0
vn -0.9579034 -0.02324311 0.2861481
v 0 0.220182 -0.0716444
vt 0.641941 0.0786648
vn 0 -0.9458263 -0.3246731
v 0.103218 0.234786 0
vt 0.604589 0.0862789
vn 0.466164 -0.883458 0.0468319
v 0 0.220182 0.0716444
vt 0.567237 0.0786648
vn 0 -0.9381212 0.3463071
v 0.113165 0.283645 -0.115923
vt 0.665026 0.111751
vn 0.5537379 -0.6098679 -0.5669529
v -0.103218 0.234786 0
vn -0.466164 -0.883458 0.0468319
v 0 0.292671 -0.17108
vt 0.693783 0.116457
vn 0 -0.566545 -0.8240309
v -0.113165 0.283645 -0.115923
vn -0.5537379 -0.6098679 -0.5669529
v 0.104793 0.298201 0.129157
vt 0.537253 0.119341
vn 0.56385 -0.5327311 0.6310871
v 0.17584 0.303599 0
vt 0.604589 0.122155
vn 0.9145251 -0.397698 0.07402771
v -0.17584 0.303599 0
vn -0.9145251 -0.397698 0.07402781
v -0.104793 0.298201 0.129157
vn -0.56385 -0.5327311 0.6310871
v 0.06994 0.38633 -0.187568
vt 0.702378 0.165287
vn 0.348252 -0.302118 -0.8873811
v -0.06994 0.38633 -0.187568
vn -0.348252 -0.302118 -0.8873811
v 0.16701 0.38633 -0.105733
vt 0.659714 0.165287
vn 0.876945 -0.235724 -0.41881
v 0.183105 0.449792 0
vt 0.604589 0.198373
vn 0.990402 -0.0492162 0.129157
v 0 0.292671 0.160822
vt 0.520744 0.116457
v -0.16701 0.38633 -0.105733
vn -0.876945 -0.235724 -0.41881
v -0.183105 0.449792 0
vn -0.990402 -0.0492161 0.129157
v 0.137388 0.48777 -0.136153
vt 0.979836 0.635711
vn 0.5669182 0.5878792 -0.5770632
v 0.197592 0.370363 -0.120809
vt 0.977112 0.299993
vn 0.8734588 0.134307 -0.4680079
v 0.0827471 0.370363 -0.216924
vt 0.998987 0.299993
vn 0.3366832 0.1207511 -0.9338435
v 0.18973 0.489433 0
vt 0.948849 0.639868
vn 0.846104 0.532024 0.032536
v 0 0.475967 -0.200935
vt 0.99458 0.606202
vn 0 0.5505959 -0.8347719
v 0.103788 0.558911 0
vt 0.948849 0.813562
vn 0.4261169 0.9046377 0.007419177
v 0 0.570765 -0.084147
vt 0.968 0.843196
vn 0 0.9251351 -0.379638
vn 0.7238709 -0.06810379 -0.6865659
vn 0.9874498 0.157895 0.003470029
vn 0.9732428 -0.06380148 -0.2207439
v -0.137388 0.48777 -0.136153
vn -0.5669178 0.5878798 -0.5770628
v -0.0827471 0.370363 -0.216924
vn -0.3366832 0.1207511 -0.9338435
v 0.127223 0.48777 0.136153
vt 0.917861 0.635711
vn 0.5658361 0.5227401 0.6376302
v 0 0.570765 0.084147
vt 0.929697 0.843196
vn 0 0.9191418 0.3939269
vn 0 -0.08623767 -0.9962747
vn 0.8302417 0.1871149 0.5250588
v -0.103788 0.558911 0
vn -0.4261169 0.9046377 0.007419247
v -0.197592 0.370363 -0.120809
vn -0.8734588 0.134307 -0.4680079
v -0.18973 0.489433 0
vn -0.846104 0.532024 0.0325359
vn -0.7238709 -0.06810379 -0.6865659
vn 0.4341619 0.17653 0.8833689
v 0 0.475967 0.178473
vt 0.90823 0.606202
vn 0 0.501106 0.8653859
v -0.127223 0.48777 0.136153
vn -0.5658361 0.5227401 0.6376302
vn -0.9874498 0.157895 0.003470019
vn -0.8302417 0.1871149 0.5250588
vn -0.9732428 -0.06380148 -0.2207439
vn 0 0.222302 0.9749779
vn -0.4341619 0.17653 0.8833689
v 0.163787 0.184468 0.123711
vt 0.331042 0.687853
vn 0.8080753 0 0.5890793
v 0.0870993 0.217011 0.00736977
vt 0.0195825 0.722059
vn 0.7545821 0.5609651 -0.3404761
v 0.054556 0.217011 0.0637364
vn -0.1359421 0.7457263 0.6522363
v 0.0870993 0.151925 0.00736978
vt 0.0195825 0.653646
vn 0.7545817 -0.5609658 -0.3404759
v 0.054556 0.151925 0.0637365
vn -0.1359421 -0.7457263 0.6522363
v -0.163787 0.184468 0.123711
vn -0.8080753 0 0.5890793
v -0.054556 0.217011 0.0637364
vn 0.1359421 0.7457263 0.6522363
v -0.0870993 0.217011 0.00736977
vn -0.7545821 0.5609651 -0.3404761
v -0.054556 0.151925 0.0637365
vn 0.1359421 -0.7457263 0.6522363
v -0.0870993 0.151925 0.00736978
vn -0.7545817 -0.5609658 -0.3404759
vt 0.631706 0.304208
v 0.06994 0.38633 0.161588
vt 0.630643 0.43429
vn 0.4032632 -0.1637621 0.9003115
v 0 0.38633 0.181629
vt 0.602807 0.43429
vn 0 -0.216873 0.9761999
vt 0.675686 0.311889
v -0.06994 0.38633 0.161588
vn -0.4032632 -0.1637621 0.9003115
v 0.053385 0.160257 0.0901305
vt 0.607347 0.616151
vn 0.06727159 0.9950539 0.07309179
v 0.0395682 0.152254 0.0901305
vt 0.59215 0.616151
vn -0.499782 0.862906 0.07490731
v 0.0514971 0.152254 0.16972
vt 0.605271 0.528613
vn 0.10069 0.989686 0.101898
v 0.102233 0.152254 0.0848298
vt 0.661073 0.621981
vn 0.166055 0.9851811 0.042941
v 0.108865 0.152254 -6.07133E-05
vt 0.668367 0.715348
vn 0.163 0.9865439 0.0127339
v 0.053385 0.144252 0.0901305
vn 0.06727169 -0.9950538 0.07309199
vn 0.10069 -0.989686 0.101898
vn -0.499782 -0.862906 0.07490761
vn 0.166055 -0.9851811 0.042941
vn 0.163001 -0.9865438 0.0127338
v 0.0574159 0.0831294 0.09013051
vt 0.61178 0.616151
v 0.0435991 0.0751269 0.09013051
vt 0.596584 0.616151
v 0.055528 0.0751269 0.16972
vt 0.609704 0.528613
v 0.106264 0.0751269 0.08482981
vt 0.665507 0.621981
v 0.116346 0.0751269 -6.07252E-05
vt 0.676595 0.715348
v 0.0574159 0.0671244 0.09013051
vn 0.1630009 -0.9865437 0.0127338
v -0.053385 0.160257 0.0901305
vn -0.06727169 0.9950538 0.07309179
v -0.0514971 0.152254 0.16972
vn -0.10069 0.989686 0.101898
v -0.0395682 0.152254 0.0901305
vn 0.499782 0.862906 0.07490721
v -0.102233 0.152254 0.0848298
vn -0.166055 0.9851811 0.042941
v -0.108865 0.152254 -6.07133E-05
vn -0.163 0.9865439 0.0127339
v -0.053385 0.144252 0.0901305
vn -0.06727169 -0.9950538 0.07309199
vn 0.499782 -0.862906 0.07490761
vn -0.10069 -0.989686 0.101898
vn -0.166055 -0.9851811 0.042941
vn -0.163001 -0.9865438 0.0127338
v -0.0574159 0.0831294 0.09013051
v -0.055528 0.0751269 0.16972
v -0.0435991 0.0751269 0.09013051
v -0.106264 0.0751269 0.08482981
v -0.116346 0.0751269 -6.07252E-05
v -0.0574159 0.0671244 0.09013051
vn -0.1630009 -0.9865437 0.0127338
v -0.0186732 0.469975 -0.0214122
vt 0.652536 0.87433
vn -0.9976817 0.008321988 0.06754258
v 0 0.367521 0.221651
vt 0.0124895 0.935625
vn -0.9974073 -0.0146174 0.07046372
v 0 0.457567 0.240331
vt 0.0124895 0.815227
vn -0.9974704 -0.003921781 0.07097533
v 0 0.575012 0.233607
vt 0.0124895 0.9346
v 0 0.679905 0.18609
vt 0.0124895 0.814178
vn -0.9977131 0.0278902 0.06156801
v 0.0186732 0.469975 -0.0214122
vn 0.9976817 0.008321988 0.06754258
vn 0.9974704 -0.003921781 0.07097533
vn 0.9974073 -0.0146174 0.07046372
vn 0.9977131 0.0278902 0.06156801
vn 0 0.7029828 -0.7112068
o merged_0_0_node
g polygon_0
usemtl mat_body_mat_id
f 1/1/1 2/2/2 3/3/3
f 1/1/1 4/4/4 2/2/2
f 1/1/1 3/3/3 5/2/5
f 1/1/1 6/5/6 4/4/4
f 1/1/1 5/2/5 7/4/7
f 1/1/1 8/6/8 6/5/6
f 1/1/1 7/4/7 9/5/9
f 1/1/1 9/5/9 8/6/8
f 2/2/2 10/7/10 3/3/3
f 2/2/2 4/4/4 11/8/11
f 2/2/2 12/9/12 10/7/10
f 2/2/2 11/8/11 13/10/13
f 2/2/2 13/10/13 12/9/12
f 10/7/10 12/9/12 5/2/5
f 10/7/10 5/2/5 3/3/3
f 6/5/6 8/6/8 14/11/14
f 6/5/6 15/12/15 4/4/4
f 6/5/6 14/11/14 15/12/15
f 4/4/4 15/12/15 11/8/11
f 8/6/8 9/5/9 14/11/14
f 7/4/7 5/2/5 16/10/16
f 7/4/7 17/8/17 9/5/9
f 7/4/7 16/10/16 17/8/17
f 5/2/5 12/9/12 16/10/16
f 13/10/13 11/8/11 18/13/18
f 13/10/13 19/14/19 12/9/12
f 13/10/13 18/13/18 20/15/20
f 13/10/13 20/15/20 19/14/19
f 16/10/16 18/13/18 17/8/17
f 16/10/16 12/9/12 19/14/19
f 16/10/16 20/15/20 18/13/18
f 16/10/16 19/14/19 20/15/20
f 11/8/11 15/12/15 18/13/18
f 14/11/14 9/5/9 21/12/21
f 14/11/14 22/16/22 15/12/15
f 14/11/14 21/12/21 22/16/22
f 21/12/21 9/5/9 17/8/17
f 21/12/21 17/8/17 18/13/18
f 21/12/21 18/13/18 22/16/22
f 22/16/22 18/13/18 15/12/15
f 23/17/23 24/18/24 25/19/25
f 23/17/23 26/20/26 24/18/24
f 23/17/23 25/19/25 27/21/27
f 23/17/23 27/21/27 28/22/28
f 23/17/23 28/22/28 29/21/29
f 23/17/23 29/21/29 30/19/30
f 23/17/23 30/19/30 31/18/31
f 23/17/23 31/18/31 32/20/32
f 26/20/26 33/23/33 24/18/24
f 26/20/26 34/24/34 33/23/33
f 26/20/26 35/25/35 34/24/34
f 35/25/35 32/20/32 34/24/34
f 31/18/31 36/23/36 32/20/32
f 31/18/31 37/26/37 36/23/36
f 36/23/36 34/24/34 32/20/32
f 24/18/24 33/23/33 38/26/38
f 39/27/39 40/28/40 41/29/41
f 39/27/39 42/30/42 40/28/40
f 39/27/39 41/29/41 43/28/43
f 39/27/39 44/31/44 42/30/42
f 39/27/39 43/28/43 45/30/45
f 39/27/39 45/30/45 44/31/44
f 40/28/40 46/32/46 41/29/41
f 40/28/40 42/30/42 47/33/47
f 40/28/40 47/33/47 46/32/46
f 43/28/43 48/33/48 45/30/45
f 43/28/43 41/29/41 49/32/49
f 43/28/43 49/32/49 48/33/48
f 44/31/44 50/34/50 42/30/42
f 44/31/44 45/30/45 51/34/51
f 44/31/44 51/34/51 50/34/50
f 47/33/47 42/30/42 52/35/52
f 47/33/47 52/35/52 53/36/53
f 52/35/52 42/30/42 50/34/50
f 46/32/46 54/37/35 41/29/41
f 41/29/41 54/37/35 49/32/49
f 48/33/48 55/35/54 45/30/45
f 48/33/48 56/36/55 55/35/54
f 55/35/54 51/34/51 45/30/45
f 57/38/56 58/39/57 59/40/58
f 57/38/56 60/41/59 58/39/57
f 57/38/56 59/40/58 61/42/60
f 57/38/56 62/43/61 60/41/59
f 57/38/56 61/42/60 63/44/62
f 57/38/56 63/44/62 62/43/61
f 58/39/57 33/23/63 59/40/58
f 58/39/57 60/41/59 24/18/64
f 58/39/57 38/26/65 33/23/63
f 58/39/57 24/18/64 38/26/65
f 61/42/60 64/38/66 63/44/62
f 61/42/60 59/40/58 65/40/67
f 61/42/60 65/40/67 64/38/66
f 62/43/61 66/45/68 60/41/59
f 62/43/61 63/44/62 67/46/69
f 62/43/61 67/46/69 66/45/68
f 33/23/63 34/24/70 59/40/58
f 59/40/58 34/24/70 65/40/67
f 24/18/64 60/41/59 25/19/71
f 60/41/59 66/45/68 25/19/71
f 64/38/66 68/43/72 63/44/62
f 64/38/66 65/40/67 69/39/73
f 64/38/66 70/41/74 68/43/72
f 64/38/66 69/39/73 70/41/74
f 63/44/62 68/43/72 67/46/69
f 34/24/70 36/23/75 65/40/67
f 65/40/67 36/23/75 69/39/73
f 66/45/68 27/21/76 25/19/71
f 66/45/68 67/46/69 71/47/77
f 66/45/68 71/47/77 27/21/76
f 70/41/74 72/45/78 68/43/72
f 70/41/74 69/39/73 31/18/79
f 70/41/74 30/19/80 72/45/78
f 70/41/74 31/18/79 30/19/80
f 67/46/69 72/45/78 71/47/77
f 67/46/69 68/43/72 72/45/78
f 36/23/75 37/26/81 69/39/73
f 69/39/73 37/26/81 31/18/79
f 27/21/76 71/47/77 28/22/82
f 30/19/80 29/21/83 72/45/78
f 29/21/83 71/47/77 72/45/78
f 29/21/83 28/22/82 71/47/77
f 73/48/84 74/49/85 75/49/86
f 73/48/84 76/50/87 74/49/85
f 73/48/84 75/49/86 77/50/88
f 73/48/84 77/50/88 76/50/87
f 78/48/89 79/49/90 80/49/91
f 78/48/89 81/50/92 79/49/90
f 78/48/89 80/49/91 82/50/93
f 78/48/89 82/50/93 81/50/92
f 54/51/35 83/52/94 84/53/95
f 54/51/35 46/54/46 83/52/94
f 54/51/35 84/53/95 85/52/96
f 54/51/35 85/52/96 49/54/49
f 86/55/97 87/56/98 88/57/99
f 86/55/97 88/57/99 89/58/100
f 86/55/97 89/58/100 90/59/101
f 91/55/102 88/57/103 87/56/104
f 91/55/102 89/58/105 88/57/103
f 91/55/102 90/59/106 89/58/105
f 92/60/97 93/61/98 94/62/99
f 92/60/97 94/62/99 95/63/100
f 92/60/97 95/63/100 96/64/101
f 97/60/102 94/62/103 93/61/104
f 97/60/102 95/63/105 94/62/103
f 97/60/102 96/64/107 95/63/105
f 98/55/108 99/57/109 100/56/110
f 98/55/108 101/58/111 99/57/109
f 98/55/108 102/59/112 101/58/111
f 103/55/113 100/56/114 99/57/115
f 103/55/113 99/57/115 101/58/116
f 103/55/113 101/58/116 102/59/117
f 104/60/108 105/62/109 106/61/110
f 104/60/108 107/63/111 105/62/109
f 104/60/108 108/64/112 107/63/111
f 109/60/113 106/61/114 105/62/115
f 109/60/113 105/62/115 107/63/116
f 109/60/113 107/63/116 108/64/118
f 110/65/119 111/66/120 112/67/121
f 110/65/119 112/67/121 113/68/119
f 110/65/119 113/68/119 114/69/122
f 115/65/123 112/67/124 111/66/125
f 115/65/123 113/68/123 112/67/124
f 115/65/123 114/69/126 113/68/123
f 115/65/28 111/66/28 110/65/28
f 115/65/127 110/65/127 114/69/127
vt 0.998944 0.817258
v 0.139867 0.38633 0.105733
vt 0.443547 0.920671
vn 0.8636646 -0.1134249 0.4911398
vt 0.222395 0.810511
vt 0.00357509 0.920671
vt 0.998944 1
v -0.139867 0.38633 0.105733
vn -0.8636647 -0.113424 0.4911398
o merged_1_0_node
g polygon_0
usemtl TEX_ANIM_EYE_mat_id
f 47/70/47 116/71/128 46/72/46
f 116/71/128 83/73/94 46/72/46
f 53/74/53 116/71/128 47/70/47
f 48/70/48 49/72/49 117/71/129
f 117/71/129 49/72/49 85/73/96
f 48/70/48 117/71/129 56/74/55
