ply
format ascii 1.0
element vertex 670
property float x
property float y
property float z
property uchar red
property uchar green
property uchar blue
element face 853
property list uchar int vertex_index
end_header
-1.1049 -0.4039 0.93137 121 115 152
-1.00852 -0.49871 0.93137 121 115 152
-1.10509 -0.49871 0.93137 121 115 152
-0.82132 -0.18697 0.93137 121 115 152
-1.29259 -0.4039 0.93137 121 115 152
-1.57617 -0.18697 0.93137 121 115 152
-1.31565 -0.1475 0.93113 121 115 152
-1.52138 -0.1475 0.93113 121 115 152
-1.08185 -0.1475 0.93113 121 115 152
-1.31565 0.01338 0.93113 121 115 152
-1.08185 0.01338 0.93113 121 115 152
-0.87612 -0.1475 0.93113 121 115 152
-1.29722 0.0424 0.93113 121 115 152
-1.10028 0.0424 0.93113 121 115 152
-1.38897 -0.49871 0.93137 121 115 152
-1.38897 -0.78023 0.93137 121 115 152
-1.57617 -0.78023 0.93137 121 115 152
-1.2924 -0.49871 0.93137 121 115 152
-1.38897 -0.8188 0.89075 121 115 152
-1.57617 -0.8188 0.89075 121 115 152
-0.87612 -0.1475 0.93113 117 111 147
-1.08185 -0.1475 0.93113 117 111 147
-1.08185 -0.1475 0.73574 117 111 147
-0.87612 -0.1475 0.73574 117 111 147
-0.82132 -0.18697 0.73588 117 111 147
-0.82132 -0.18697 0.93137 117 111 147
-1.08185 0.01338 0.93113 117 111 147
-1.08185 0.01338 0.73574 117 111 147
-1.31565 -0.1475 0.73574 117 111 147
-1.31565 0.01338 0.73574 117 111 147
-1.57617 -0.18697 0.73588 117 111 147
-1.00852 -0.49871 0.73588 117 111 147
-1.38897 -0.49871 0.73588 117 111 147
-1.38897 -0.65655 0.73588 117 111 147
-1.57617 -0.65655 0.73588 117 111 147
-1.57617 -0.18697 0.93137 117 111 147
-1.57617 -0.78023 0.93137 117 111 147
-1.52138 -0.1475 0.73574 117 111 147
-1.52138 -0.1475 0.93113 117 111 147
-1.10028 0.0424 0.73574 117 111 147
-1.10028 0.0424 0.93113 117 111 147
-1.29722 0.0424 0.73574 117 111 147
-1.38897 -0.49871 0.93137 117 111 147
-1.38897 -0.78023 0.93137 117 111 147
-1.57617 -0.65655 0.57906 117 111 147
-1.38897 -0.65655 0.57906 117 111 147
-1.57617 -0.8188 0.57906 117 111 147
-1.57617 -0.8188 0.73588 117 111 147
-1.57617 -0.8188 0.89075 117 111 147
-1.38897 -0.8188 0.73588 117 111 147
-1.38897 -0.8188 0.89075 117 111 147
-1.38897 -0.8188 0.57906 117 111 147
-1.55257 -0.65655 0.5549 117 111 147
-1.41257 -0.65655 0.5549 117 111 147
-1.55257 -0.8188 0.5549 117 111 147
-1.41257 -0.8188 0.5549 117 111 147
-1.29722 0.0424 0.93113 117 111 147
-1.31565 0.01338 0.93113 117 111 147
-1.31565 -0.1475 0.93113 117 111 147
-1.00852 -0.8188 0.89075 117 111 147
-0.82132 -0.8188 0.89075 117 111 147
-0.82132 -0.8188 0.73588 117 111 147
-1.00852 -0.8188 0.73588 117 111 147
-0.82132 -0.78023 0.93137 117 111 147
-0.82132 -0.65655 0.73588 117 111 147
-1.00852 -0.65655 0.73588 117 111 147
-1.00852 -0.78023 0.93137 117 111 147
-1.00852 -0.65655 0.57906 117 111 147
-0.82132 -0.65655 0.57906 117 111 147
-1.00852 -0.8188 0.57906 117 111 147
-0.82132 -0.8188 0.57906 117 111 147
-0.98492 -0.65655 0.5549 117 111 147
-0.84492 -0.65655 0.5549 117 111 147
-0.98492 -0.8188 0.5549 117 111 147
-0.84492 -0.8188 0.5549 117 111 147
-1.00852 -0.49871 0.93137 117 111 147
-1.10509 -0.49871 0.84465 117 111 147
-1.10509 -0.49871 0.93137 117 111 147
-1.10509 -0.7391 0.84465 117 111 147
-1.10509 -0.86278 1.03397 117 111 147
-1.10509 -0.43649 1.03397 117 111 147
-1.1049 -0.4039 0.93137 117 111 147
-1.1049 -0.4039 1.00114 117 111 147
-1.10509 -0.90773 0.84465 117 111 147
-1.10509 -0.90773 0.99335 117 111 147
-1.2924 -0.90773 0.99335 117 111 147
-1.2924 -0.90773 0.84465 117 111 147
-1.10509 -0.90773 0.68783 117 111 147
-1.2924 -0.90773 0.68783 117 111 147
-1.2924 -0.7391 0.84465 117 111 147
-1.2924 -0.49871 0.84465 117 111 147
-1.2924 -0.86278 1.03397 117 111 147
-1.2924 -0.49871 0.93137 117 111 147
-1.2924 -0.7391 0.68783 117 111 147
-1.10509 -0.7391 0.68783 117 111 147
-1.26879 -0.7391 0.66367 117 111 147
-1.12871 -0.7391 0.66367 117 111 147
-1.26879 -0.90773 0.66367 117 111 147
-1.12871 -0.90773 0.66367 117 111 147
-1.29259 -0.4039 0.93137 117 111 147
-1.29259 -0.4039 1.00114 117 111 147
-1.2924 -0.43649 1.03397 117 111 147
-1.29259 -0.4039 1.00114 121 115 152
-1.1049 -0.4039 1.00114 121 115 152
-1.10509 -0.43649 1.03397 121 115 152
-1.2924 -0.43649 1.03397 121 115 152
-1.10509 -0.86278 1.03397 121 115 152
-1.2924 -0.86278 1.03397 121 115 152
-1.10509 -0.90773 0.99335 121 115 152
-1.2924 -0.90773 0.99335 121 115 152
-1.00852 -0.78023 0.93137 121 115 152
-0.82132 -0.78023 0.93137 121 115 152
-0.82132 -0.8188 0.89075 121 115 152
-1.00852 -0.8188 0.89075 121 115 152
0.17029 -0.06943 1.88584 117 111 147
0.80776 0.00694 2.36177 117 111 147
1.03465 0.00571 2.11129 117 111 147
0.49782 -0.07121 1.52426 117 111 147
1.03494 0.34367 2.1099 117 111 147
0.49824 0.41665 1.52224 117 111 147
1.03942 0.04844 2.17272 117 111 147
0.86957 0.04936 2.36023 117 111 147
1.03964 0.30144 2.17167 117 111 147
0.86978 0.30236 2.35918 117 111 147
0.80805 0.3449 2.36037 117 111 147
0.17071 0.41843 1.88382 117 111 147
0.17071 0.41843 1.88382 121 115 152
0.80805 0.3449 2.36037 121 115 152
0.80776 0.00694 2.36177 121 115 152
0.17029 -0.06943 1.88584 121 115 152
0.86957 0.04936 2.36023 121 115 152
0.86978 0.30236 2.35918 121 115 152
1.1049 -0.4039 0.93137 121 115 152
1.10509 -0.49871 0.93137 121 115 152
1.00852 -0.49871 0.93137 121 115 152
0.82132 -0.18697 0.93137 121 115 152
1.29259 -0.4039 0.93137 121 115 152
1.57617 -0.18697 0.93137 121 115 152
1.31565 -0.1475 0.93113 121 115 152
1.52138 -0.1475 0.93113 121 115 152
1.08185 -0.1475 0.93113 121 115 152
1.31565 0.01338 0.93113 121 115 152
1.08185 0.01338 0.93113 121 115 152
0.87612 -0.1475 0.93113 121 115 152
1.29722 0.0424 0.93113 121 115 152
1.10028 0.0424 0.93113 121 115 152
1.38897 -0.49871 0.93137 121 115 152
1.38897 -0.78023 0.93137 121 115 152
1.57617 -0.78023 0.93137 121 115 152
1.2924 -0.49871 0.93137 121 115 152
1.38897 -0.8188 0.89075 121 115 152
1.57617 -0.8188 0.89075 121 115 152
0.87612 -0.1475 0.93113 117 111 147
0.87612 -0.1475 0.73574 117 111 147
1.08185 -0.1475 0.73574 117 111 147
1.08185 -0.1475 0.93113 117 111 147
0.82132 -0.18697 0.73588 117 111 147
0.82132 -0.18697 0.93137 117 111 147
1.08185 0.01338 0.93113 117 111 147
1.08185 0.01338 0.73574 117 111 147
1.31565 -0.1475 0.73574 117 111 147
1.31565 0.01338 0.73574 117 111 147
1.57617 -0.18697 0.73588 117 111 147
1.00852 -0.49871 0.73588 117 111 147
1.38897 -0.49871 0.73588 117 111 147
1.38897 -0.65655 0.73588 117 111 147
1.57617 -0.65655 0.73588 117 111 147
1.57617 -0.18697 0.93137 117 111 147
1.57617 -0.78023 0.93137 117 111 147
1.52138 -0.1475 0.73574 117 111 147
1.52138 -0.1475 0.93113 117 111 147
1.10028 0.0424 0.73574 117 111 147
1.10028 0.0424 0.93113 117 111 147
1.29722 0.0424 0.73574 117 111 147
1.38897 -0.49871 0.93137 117 111 147
1.38897 -0.78023 0.93137 117 111 147
1.57617 -0.65655 0.57906 117 111 147
1.38897 -0.65655 0.57906 117 111 147
1.57617 -0.8188 0.57906 117 111 147
1.57617 -0.8188 0.73588 117 111 147
1.57617 -0.8188 0.89075 117 111 147
1.38897 -0.8188 0.73588 117 111 147
1.38897 -0.8188 0.89075 117 111 147
1.38897 -0.8188 0.57906 117 111 147
1.55257 -0.65655 0.5549 117 111 147
1.41257 -0.65655 0.5549 117 111 147
1.55257 -0.8188 0.5549 117 111 147
1.41257 -0.8188 0.5549 117 111 147
1.29722 0.0424 0.93113 117 111 147
1.31565 0.01338 0.93113 117 111 147
1.31565 -0.1475 0.93113 117 111 147
1.00852 -0.8188 0.89075 117 111 147
1.00852 -0.8188 0.73588 117 111 147
0.82132 -0.8188 0.73588 117 111 147
0.82132 -0.8188 0.89075 117 111 147
0.82132 -0.78023 0.93137 117 111 147
0.82132 -0.65655 0.73588 117 111 147
1.00852 -0.65655 0.73588 117 111 147
1.00852 -0.78023 0.93137 117 111 147
1.00852 -0.65655 0.57906 117 111 147
0.82132 -0.65655 0.57906 117 111 147
1.00852 -0.8188 0.57906 117 111 147
0.82132 -0.8188 0.57906 117 111 147
0.98492 -0.65655 0.5549 117 111 147
0.84492 -0.65655 0.5549 117 111 147
0.98492 -0.8188 0.5549 117 111 147
0.84492 -0.8188 0.5549 117 111 147
1.00852 -0.49871 0.93137 117 111 147
1.10509 -0.49871 0.84465 117 111 147
1.10509 -0.49871 0.93137 117 111 147
1.10509 -0.7391 0.84465 117 111 147
1.10509 -0.86278 1.03397 117 111 147
1.10509 -0.43649 1.03397 117 111 147
1.1049 -0.4039 0.93137 117 111 147
1.1049 -0.4039 1.00114 117 111 147
1.10509 -0.90773 0.84465 117 111 147
1.10509 -0.90773 0.99335 117 111 147
1.2924 -0.90773 0.99335 117 111 147
1.2924 -0.90773 0.84465 117 111 147
1.10509 -0.90773 0.68783 117 111 147
1.2924 -0.90773 0.68783 117 111 147
1.2924 -0.7391 0.84465 117 111 147
1.2924 -0.49871 0.84465 117 111 147
1.2924 -0.86278 1.03397 117 111 147
1.2924 -0.49871 0.93137 117 111 147
1.2924 -0.7391 0.68783 117 111 147
1.10509 -0.7391 0.68783 117 111 147
1.26879 -0.7391 0.66367 117 111 147
1.12871 -0.7391 0.66367 117 111 147
1.26879 -0.90773 0.66367 117 111 147
1.12871 -0.90773 0.66367 117 111 147
1.2924 -0.43649 1.03397 117 111 147
1.29259 -0.4039 1.00114 117 111 147
1.29259 -0.4039 0.93137 117 111 147
1.29259 -0.4039 1.00114 121 115 152
1.2924 -0.43649 1.03397 121 115 152
1.10509 -0.43649 1.03397 121 115 152
1.1049 -0.4039 1.00114 121 115 152
1.10509 -0.86278 1.03397 121 115 152
1.2924 -0.86278 1.03397 121 115 152
1.10509 -0.90773 0.99335 121 115 152
1.2924 -0.90773 0.99335 121 115 152
1.00852 -0.78023 0.93137 121 115 152
1.00852 -0.8188 0.89075 121 115 152
0.82132 -0.8188 0.89075 121 115 152
0.82132 -0.78023 0.93137 121 115 152
0.45271 -0.36004 1.20975 148 96 118
0.36375 -0.50907 1.20975 148 96 118
0.4527 -0.50892 1.20975 148 96 118
0.23735 -0.50907 1.20975 148 96 118
0.50239 -0.50894 1.25555 148 96 118
0.50239 -0.36004 1.25555 148 96 118
0.16039 -0.50907 1.20975 148 96 118
0 -0.36004 1.20975 148 96 118
0.50239 -0.50907 0.93589 148 96 118
0.50239 -0.36004 0.93589 148 96 118
0.36382 -0.50907 0.93589 148 96 118
0.26396 -0.50907 0.93589 148 96 118
0 -0.36004 0.93589 148 96 118
0.20691 -0.50907 0.93589 148 96 118
0.10468 -0.50907 0.93589 148 96 118
0.05234 -0.50907 0.93589 148 96 118
-0.05234 -0.50907 0.93589 148 96 118
-0.10468 -0.50907 0.93589 148 96 118
-0.20691 -0.50907 0.93589 148 96 118
-0.26396 -0.50907 0.93589 148 96 118
-0.50239 -0.36004 0.93589 148 96 118
-0.36382 -0.50907 0.93589 148 96 118
-0.50239 -0.50907 0.93589 148 96 118
-0.50239 -0.36004 1.25555 148 96 118
-0.50239 -0.50894 1.25555 148 96 118
-0.45271 -0.36004 1.20975 148 96 118
-0.4527 -0.50892 1.20975 148 96 118
-0.36375 -0.50907 1.20975 148 96 118
-0.23735 -0.50907 1.20975 148 96 118
-0.16039 -0.50907 1.20975 148 96 118
-0.03649 -0.50907 1.20975 148 96 118
0 -0.50907 1.20975 148 96 118
0.03649 -0.50907 1.20975 148 96 118
0.54864 -0.58723 0.8186 117 111 147
0.36382 -0.58723 0.93589 117 111 147
0.50239 -0.58723 0.93589 117 111 147
0.50239 -0.50907 0.93589 117 111 147
0.36382 -0.50907 0.93589 117 111 147
0.36382 -0.50907 1 117 111 147
0.36382 -0.58723 1 117 111 147
0.26396 -0.58723 0.93589 117 111 147
0.26396 -0.58723 1 117 111 147
0 -0.58723 0.8186 117 111 147
0.20691 -0.58723 0.93589 117 111 147
0.10468 -0.58723 0.93589 117 111 147
0.20691 -0.58723 1 117 111 147
0.10468 -0.58723 1 117 111 147
0.05234 -0.58723 0.93589 117 111 147
0.4858 -0.51496 0.76182 117 111 147
0.64285 -0.49087 0.8186 117 111 147
0.54864 -0.58723 1.89489 117 111 147
0.64285 -0.49087 1.89489 117 111 147
0.58549 -0.44035 1.95264 117 111 147
0.49849 -0.52934 1.95264 117 111 147
0.57058 -0.42824 0.76182 117 111 147
-0.57058 -0.42824 0.76182 117 111 147
-0.4858 -0.51496 0.76182 117 111 147
0.50239 -0.58723 1.25555 117 111 147
0.4739 -0.58723 1.63242 117 111 147
0.4739 -0.58723 1.33969 117 111 147
0.4739 -0.56836 1.63242 117 111 147
0.4739 -0.56836 1.33969 117 111 147
0.11122 -0.56836 1.33969 117 111 147
0.11122 -0.58723 1.33969 117 111 147
0.25119 -0.58723 1.25555 117 111 147
0.23735 -0.58723 1.20975 117 111 147
0 -0.58723 1.25555 117 111 147
0.16039 -0.58723 1.20975 117 111 147
0.23735 -0.50907 1.20975 117 111 147
0.16039 -0.50907 1.20975 117 111 147
0.23729 -0.50907 1.12306 117 111 147
0.23729 -0.58723 1.12306 117 111 147
0.36381 -0.50907 1.12306 117 111 147
0.36381 -0.58723 1.12306 117 111 147
0.36375 -0.50907 1.20975 117 111 147
0.36375 -0.58723 1.20975 117 111 147
0.16013 -0.58723 1.12306 117 111 147
0.16013 -0.50907 1.12306 117 111 147
0.03642 -0.58723 1.12306 117 111 147
0.03642 -0.50907 1.12306 117 111 147
0.03649 -0.58723 1.20975 117 111 147
0 -0.58723 1.20975 117 111 147
0.03649 -0.50907 1.20975 117 111 147
0 -0.50907 1.20975 117 111 147
0.4527 -0.58723 1.20975 117 111 147
0.4527 -0.50892 1.20975 117 111 147
0.50239 -0.50894 1.25555 117 111 147
-0.03649 -0.50907 1.20975 117 111 147
-0.03649 -0.58723 1.20975 117 111 147
-0.03642 -0.50907 1.12306 117 111 147
-0.03642 -0.58723 1.12306 117 111 147
-0.16013 -0.50907 1.12306 117 111 147
-0.16013 -0.58723 1.12306 117 111 147
-0.16039 -0.50907 1.20975 117 111 147
-0.16039 -0.58723 1.20975 117 111 147
-0.23735 -0.50907 1.20975 117 111 147
-0.23735 -0.58723 1.20975 117 111 147
-0.23729 -0.50907 1.12306 117 111 147
-0.23729 -0.58723 1.12306 117 111 147
-0.36381 -0.50907 1.12306 117 111 147
-0.36381 -0.58723 1.12306 117 111 147
-0.36375 -0.50907 1.20975 117 111 147
-0.36375 -0.58723 1.20975 117 111 147
-0.25119 -0.58723 1.25555 117 111 147
-0.50239 -0.58723 1.25555 117 111 147
-0.4527 -0.58723 1.20975 117 111 147
-0.4527 -0.50892 1.20975 117 111 147
-0.50239 -0.50894 1.25555 117 111 147
-0.4739 -0.58723 1.33969 117 111 147
-0.4739 -0.58723 1.63242 117 111 147
-0.54864 -0.58723 1.89489 117 111 147
-0.54864 -0.58723 0.8186 117 111 147
-0.64285 -0.49087 0.8186 117 111 147
-0.64285 -0.49087 1.89489 117 111 147
-0.58549 -0.44035 1.95264 117 111 147
-0.49849 -0.52934 1.95264 117 111 147
-0.50239 -0.58723 0.93589 117 111 147
-0.36382 -0.58723 0.93589 117 111 147
-0.50239 -0.50907 0.93589 117 111 147
-0.36382 -0.50907 0.93589 117 111 147
-0.36382 -0.50907 1 117 111 147
-0.36382 -0.58723 1 117 111 147
-0.26396 -0.58723 0.93589 117 111 147
-0.26396 -0.58723 1 117 111 147
-0.20691 -0.58723 0.93589 117 111 147
-0.10468 -0.58723 0.93589 117 111 147
-0.20691 -0.58723 1 117 111 147
-0.10468 -0.58723 1 117 111 147
-0.05234 -0.58723 0.93589 117 111 147
0.05234 -0.58723 1 117 111 147
0.05234 -0.50907 1 117 111 147
0.05234 -0.50907 0.93589 117 111 147
0.10468 -0.50907 0.93589 117 111 147
-0.05234 -0.58723 1 117 111 147
0.10468 -0.50907 1 117 111 147
0.23735 -0.50907 1.20975 112 99 129
0.23729 -0.50907 1.12306 112 99 129
0.36381 -0.50907 1.12306 112 99 129
0.36375 -0.50907 1.20975 112 99 129
0.03649 -0.50907 1.20975 112 99 129
0.03642 -0.50907 1.12306 112 99 129
0.16013 -0.50907 1.12306 112 99 129
0.16039 -0.50907 1.20975 112 99 129
0.20691 -0.50907 0.93589 117 111 147
0.26396 -0.50907 0.93589 117 111 147
0.20691 -0.50907 1 117 111 147
0.26396 -0.50907 1 117 111 147
0.20691 -0.58723 1 121 115 152
0.10468 -0.58723 1 121 115 152
0.10468 -0.50907 1 121 115 152
0.20691 -0.50907 1 121 115 152
0.36382 -0.50907 1 121 115 152
0.36382 -0.58723 1 121 115 152
0.26396 -0.58723 1 121 115 152
0.26396 -0.50907 1 121 115 152
0.20691 -0.50907 0.93589 117 103 135
0.20691 -0.50907 1 117 103 135
0.10468 -0.50907 1 117 103 135
0.10468 -0.50907 0.93589 117 103 135
0.36382 -0.50907 0.93589 117 103 135
0.36382 -0.50907 1 117 103 135
0.26396 -0.50907 1 117 103 135
0.26396 -0.50907 0.93589 117 103 135
0.23342 -0.57627 1.37787 36 32 42
0.23342 -0.57627 1.48175 36 32 42
0.26625 -0.57627 1.48175 36 32 42
0.26625 -0.57627 1.37787 36 32 42
0.23342 -0.56588 1.37787 36 32 42
0.26625 -0.56588 1.37787 36 32 42
0.26625 -0.56588 1.48175 36 32 42
0.23342 -0.56588 1.48175 36 32 42
0.4739 -0.56836 1.33969 255 255 255
0.11122 -0.56836 1.33969 255 255 255
0.4739 -0.56836 1.63242 255 255 255
0.05234 -0.50907 1 117 103 135
-0.05234 -0.50907 1 117 103 135
-0.05234 -0.50907 0.93589 117 103 135
0.05234 -0.50907 0.93589 117 103 135
-0.23735 -0.50907 1.20975 112 99 129
-0.36375 -0.50907 1.20975 112 99 129
-0.36381 -0.50907 1.12306 112 99 129
-0.23729 -0.50907 1.12306 112 99 129
-0.03649 -0.50907 1.20975 112 99 129
-0.16039 -0.50907 1.20975 112 99 129
-0.16013 -0.50907 1.12306 112 99 129
-0.03642 -0.50907 1.12306 112 99 129
-0.26396 -0.50907 0.93589 117 111 147
-0.20691 -0.50907 0.93589 117 111 147
-0.20691 -0.50907 1 117 111 147
-0.26396 -0.50907 1 117 111 147
-0.20691 -0.58723 1 121 115 152
-0.20691 -0.50907 1 121 115 152
-0.10468 -0.50907 1 121 115 152
-0.10468 -0.58723 1 121 115 152
-0.36382 -0.50907 1 121 115 152
-0.26396 -0.50907 1 121 115 152
-0.26396 -0.58723 1 121 115 152
-0.36382 -0.58723 1 121 115 152
-0.20691 -0.50907 0.93589 117 103 135
-0.10468 -0.50907 0.93589 117 103 135
-0.10468 -0.50907 1 117 103 135
-0.20691 -0.50907 1 117 103 135
-0.10468 -0.50907 0.93589 117 111 147
-0.10468 -0.50907 1 117 111 147
-0.05234 -0.50907 0.93589 117 111 147
-0.05234 -0.50907 1 117 111 147
-0.36382 -0.50907 0.93589 117 103 135
-0.26396 -0.50907 0.93589 117 103 135
-0.26396 -0.50907 1 117 103 135
-0.36382 -0.50907 1 117 103 135
-0.23342 -0.57627 1.37787 36 32 42
-0.26625 -0.57627 1.37787 36 32 42
-0.26625 -0.57627 1.48175 36 32 42
-0.23342 -0.57627 1.48175 36 32 42
-0.23342 -0.56588 1.37787 36 32 42
-0.26625 -0.56588 1.37787 36 32 42
-0.26625 -0.56588 1.48175 36 32 42
-0.23342 -0.56588 1.48175 36 32 42
-0.4739 -0.56836 1.33969 255 255 255
-0.4739 -0.56836 1.63242 255 255 255
-0.11122 -0.56836 1.33969 255 255 255
-0.11122 -0.58723 1.33969 117 111 147
-0.4739 -0.56836 1.33969 117 111 147
-0.4739 -0.56836 1.63242 117 111 147
-0.11122 -0.56836 1.33969 117 111 147
0.58549 -0.44035 1.95264 121 115 152
0.49849 -0.52934 1.95264 121 115 152
-0.49849 -0.52934 1.95264 121 115 152
-0.58549 -0.44035 1.95264 121 115 152
-0.58549 0.5108 1.95264 121 115 152
0.58549 0.5108 1.95264 121 115 152
0.05234 -0.50907 1 121 115 152
0.05234 -0.58723 1 121 115 152
-0.05234 -0.58723 1 121 115 152
-0.05234 -0.50907 1 121 115 152
0.62605 0.15373 1.27418 117 111 147
0.62605 0.15373 1.53764 117 111 147
0.94553 0.15373 1.53764 117 111 147
0.94553 0.15373 1.27418 117 111 147
0.62605 0.41719 1.27418 117 111 147
0.94553 0.41719 1.27418 117 111 147
0.98384 0.18008 1.30053 117 111 147
0.98384 0.39085 1.30053 117 111 147
0.98384 0.39085 1.51129 117 111 147
0.98384 0.18008 1.51129 117 111 147
0.94553 0.41719 1.53764 117 111 147
0.62605 0.41719 1.53764 117 111 147
0.62605 0.15373 1.53764 121 115 152
0.62605 0.41719 1.53764 121 115 152
0.94553 0.41719 1.53764 121 115 152
0.94553 0.15373 1.53764 121 115 152
0.98384 0.18008 1.51129 121 115 152
0.98384 0.39085 1.51129 121 115 152
0.63261 0.28484 0.95038 117 111 147
0.63261 0.28484 1.15509 117 111 147
0.85462 0.28484 1.15509 117 111 147
0.85462 0.28484 0.95038 117 111 147
0.63261 0.48955 0.95038 117 111 147
0.85462 0.48955 0.95038 117 111 147
0.88333 0.46908 0.97085 117 111 147
0.88333 0.30531 0.97085 117 111 147
0.88333 0.30531 1.13462 117 111 147
0.63261 0.28484 1.15509 121 115 152
0.63261 0.48955 1.15509 121 115 152
0.85462 0.48955 1.15509 121 115 152
0.85462 0.28484 1.15509 121 115 152
0.88333 0.30531 1.13462 121 115 152
0.88333 0.46908 1.13462 121 115 152
0.63261 0.48955 1.15509 117 111 147
0.85462 0.48955 1.15509 117 111 147
0.88333 0.46908 1.13462 117 111 147
-0.62605 0.15373 1.27418 117 111 147
-0.94553 0.15373 1.27418 117 111 147
-0.94553 0.15373 1.53764 117 111 147
-0.62605 0.15373 1.53764 117 111 147
-0.62605 0.41719 1.27418 117 111 147
-0.94553 0.41719 1.27418 117 111 147
-0.98384 0.18008 1.30053 117 111 147
-0.98384 0.39085 1.30053 117 111 147
-0.98384 0.39085 1.51129 117 111 147
-0.98384 0.18008 1.51129 117 111 147
-0.94553 0.41719 1.53764 117 111 147
-0.62605 0.41719 1.53764 117 111 147
-0.62605 0.15373 1.53764 121 115 152
-0.94553 0.15373 1.53764 121 115 152
-0.94553 0.41719 1.53764 121 115 152
-0.62605 0.41719 1.53764 121 115 152
-0.98384 0.18008 1.51129 121 115 152
-0.98384 0.39085 1.51129 121 115 152
-0.63261 0.28484 0.95038 117 111 147
-0.85462 0.28484 0.95038 117 111 147
-0.85462 0.28484 1.15509 117 111 147
-0.63261 0.28484 1.15509 117 111 147
-0.63261 0.48955 0.95038 117 111 147
-0.85462 0.48955 0.95038 117 111 147
-0.88333 0.46908 0.97085 117 111 147
-0.88333 0.30531 0.97085 117 111 147
-0.88333 0.30531 1.13462 117 111 147
-0.63261 0.28484 1.15509 121 115 152
-0.85462 0.28484 1.15509 121 115 152
-0.85462 0.48955 1.15509 121 115 152
-0.63261 0.48955 1.15509 121 115 152
-0.88333 0.30531 1.13462 121 115 152
-0.88333 0.46908 1.13462 121 115 152
-0.63261 0.48955 1.15509 117 111 147
-0.85462 0.48955 1.15509 117 111 147
-0.88333 0.46908 1.13462 117 111 147
-0.4136 -0.4544 0.88641 168 121 144
-0.4136 -0.4544 1.06304 168 121 144
0.4136 -0.4544 1.06304 168 121 144
0.4136 -0.4544 0.88641 168 121 144
0.4136 -0.35302 1.06304 168 121 144
-0.4136 -0.35302 1.06304 168 121 144
0.4136 -0.35302 0.88641 168 121 144
-0.4136 -0.35302 0.88641 168 121 144
-0.49849 0.59978 1.95264 121 115 152
0.49849 0.59978 1.95264 121 115 152
0.64285 0.56132 1.89489 117 111 147
0.64285 0.56132 0.8186 117 111 147
0.58549 0.5108 1.95264 117 111 147
0.57058 0.49869 0.76182 117 111 147
0.37087 0.1659 0.76182 117 111 147
0 -0.42824 0.76182 117 111 147
0.30109 0.11563 0.76182 117 111 147
0.3026 0.11563 0.54184 117 111 147
0.37087 0.1659 0.54184 117 111 147
0.37116 0.5854 0.76182 117 111 147
0.28152 0.15515 0.5 117 111 147
0.3127 0.18541 0.5 117 111 147
-0.3127 0.18541 0.5 117 111 147
-0.28152 0.15515 0.5 117 111 147
-0.37087 0.1659 0.54184 117 111 147
-0.3026 0.11563 0.54184 117 111 147
-0.37087 0.1659 0.76182 117 111 147
-0.57058 0.49869 0.76182 117 111 147
-0.64285 0.56132 0.8186 117 111 147
-0.64285 0.56132 1.89489 117 111 147
-0.58549 0.5108 1.95264 117 111 147
-0.37116 0.5854 0.76182 117 111 147
-0.37132 0.94326 0.53996 117 111 147
-0.30183 0.11563 0.76182 117 111 147
-0.37127 0.65767 0.8186 117 111 147
-0.37132 0.94326 1.34844 117 111 147
-0.37127 0.65767 1.34976 117 111 147
-0.31299 0.91115 0.4985 117 111 147
0.31289 0.91115 0.4985 117 111 147
0.37122 0.94326 0.53996 117 111 147
0.37127 0.65767 0.8186 117 111 147
0.54864 0.65767 0.8186 117 111 147
0.54864 0.65767 1.89489 117 111 147
0.49849 0.59978 1.95264 117 111 147
-0.54864 0.65767 1.89489 117 111 147
-0.49849 0.59978 1.95264 117 111 147
0.4858 0.5854 0.76182 117 111 147
0.37127 0.65767 1.34976 117 111 147
-0.54864 0.65767 0.8186 117 111 147
-0.4858 0.5854 0.76182 117 111 147
0.37122 0.94326 1.34844 117 111 147
0.33494 0.99951 0.53996 117 111 147
0.33571 0.99951 1.34844 117 111 147
0.33505 0.92181 1.38274 117 111 147
0.30834 0.96054 1.38274 117 111 147
0.19177 0.99951 0.64603 117 111 147
0.19177 0.99951 0.97579 117 111 147
0.19177 1.35329 0.64561 117 111 147
0.19177 1.35329 0.97537 117 111 147
0.14318 0.99951 1.01599 117 111 147
-0.33809 0.99951 1.34844 117 111 147
-0.30844 0.96054 1.38274 117 111 147
-0.33515 0.92181 1.38274 117 111 147
-0.3351 0.65767 1.38425 117 111 147
0.3351 0.65767 1.38425 117 111 147
-0.33581 0.99951 0.53996 117 111 147
-0.28157 0.95226 0.4985 117 111 147
-0.19187 0.99951 0.97579 117 111 147
-0.19187 0.99951 0.64603 117 111 147
-0.19187 1.35329 0.97537 117 111 147
-0.19187 1.35329 0.64561 117 111 147
-0.14328 0.99951 0.61045 117 111 147
0.28147 0.95226 0.4985 117 111 147
-0.14328 1.40032 0.97537 117 111 147
-0.10905 1.3498 1.01557 117 111 147
-0.14328 1.31854 1.01557 117 111 147
-0.14328 1.40032 0.64561 117 111 147
0.14318 1.40032 0.97537 117 111 147
0.14318 1.40032 0.64561 117 111 147
0.10895 1.3498 0.61003 117 111 147
0.14318 1.31854 0.61003 117 111 147
-0.10905 1.3498 0.61003 117 111 147
0.10895 1.3498 1.01557 117 111 147
-0.14328 1.31854 0.61003 117 111 147
0.14318 1.31854 1.01557 117 111 147
-0.14328 0.99951 1.01599 117 111 147
-0.3351 0.65767 1.38425 121 115 152
-0.33515 0.92181 1.38274 121 115 152
0.33505 0.92181 1.38274 121 115 152
0.3351 0.65767 1.38425 121 115 152
0.30834 0.96054 1.38274 121 115 152
-0.30844 0.96054 1.38274 121 115 152
0.14318 0.99951 0.61045 117 111 147
0.10895 1.3498 1.01557 121 115 152
0.14318 1.31854 1.01557 121 115 152
-0.14328 1.31854 1.01557 121 115 152
-0.10905 1.3498 1.01557 121 115 152
-0.14328 0.99951 1.01599 121 115 152
0.14318 0.99951 1.01599 121 115 152
-0.17029 -0.06943 1.88584 117 111 147
-0.49782 -0.07121 1.52426 117 111 147
-1.03465 0.00571 2.11129 117 111 147
-0.80776 0.00694 2.36177 117 111 147
-1.03494 0.34367 2.1099 117 111 147
-0.49824 0.41665 1.52224 117 111 147
-1.03942 0.04844 2.17272 117 111 147
-0.86957 0.04936 2.36023 117 111 147
-1.03964 0.30144 2.17167 117 111 147
-0.86978 0.30236 2.35918 117 111 147
-0.80805 0.3449 2.36037 117 111 147
-0.17071 0.41843 1.88382 117 111 147
-0.17071 0.41843 1.88382 121 115 152
-0.17029 -0.06943 1.88584 121 115 152
-0.80776 0.00694 2.36177 121 115 152
-0.80805 0.3449 2.36037 121 115 152
-0.86957 0.04936 2.36023 121 115 152
-0.86978 0.30236 2.35918 121 115 152
3 0 2 1
3 1 3 0
3 3 4 0
3 3 5 4
3 6 5 3
3 6 7 5
3 6 3 8
3 8 9 6
3 8 10 9
3 3 11 8
3 10 12 9
3 10 13 12
3 5 14 4
3 5 15 14
3 5 16 15
3 14 17 4
3 16 18 15
3 16 19 18
3 20 22 21
3 20 23 22
3 24 23 20
3 22 23 24
3 24 20 25
3 22 26 21
3 22 27 26
3 28 27 22
3 28 22 24
3 28 29 27
3 28 24 30
3 30 24 31
3 30 31 32
3 30 32 33
3 30 33 34
3 35 30 34
3 35 34 36
3 35 37 30
3 28 30 37
3 35 38 37
3 29 39 27
3 27 39 40
3 27 40 26
3 29 41 39
3 42 33 32
3 42 43 33
3 33 44 34
3 33 45 44
3 34 44 46
3 34 46 47
3 34 47 48
3 48 47 49
3 48 49 50
3 43 50 49
3 43 49 33
3 49 45 33
3 47 51 49
3 47 46 51
3 49 51 45
3 45 52 44
3 45 53 52
3 51 53 45
3 53 54 52
3 44 54 46
3 44 52 54
3 53 55 54
3 46 55 51
3 46 54 55
3 51 55 53
3 34 48 36
3 39 56 40
3 39 41 56
3 57 56 41
3 57 41 29
3 58 57 29
3 58 29 28
3 28 38 58
3 28 37 38
3 59 61 60
3 59 62 61
3 63 60 61
3 63 61 64
3 25 63 64
3 25 64 24
3 31 24 64
3 31 64 65
3 65 62 59
3 65 59 66
3 64 67 65
3 64 68 67
3 61 68 64
3 65 69 62
3 65 67 69
3 62 70 61
3 62 69 70
3 61 70 68
3 68 71 67
3 68 72 71
3 70 72 68
3 72 73 71
3 67 73 69
3 67 71 73
3 72 74 73
3 69 74 70
3 69 73 74
3 70 74 72
3 31 66 75
3 31 65 66
3 76 31 75
3 77 76 75
3 78 76 77
3 78 77 79
3 77 80 79
3 81 80 77
3 81 82 80
3 83 79 84
3 83 84 85
3 83 85 86
3 83 78 79
3 86 87 83
3 86 88 87
3 89 88 86
3 76 78 89
3 76 89 90
3 86 91 89
3 86 85 91
3 91 90 89
3 91 92 90
3 78 93 89
3 89 93 88
3 78 94 93
3 83 94 78
3 83 87 94
3 94 95 93
3 94 96 95
3 87 96 94
3 96 97 95
3 93 97 88
3 93 95 97
3 96 98 97
3 88 98 87
3 88 97 98
3 87 98 96
3 90 31 76
3 90 32 31
3 90 42 32
3 42 90 92
3 92 100 99
3 92 101 100
3 102 104 103
3 102 105 104
3 105 106 104
3 105 107 106
3 107 108 106
3 107 109 108
3 99 82 81
3 99 100 82
3 110 112 111
3 110 113 112
3 1 110 111
3 1 111 3
3 91 101 92
3 114 116 115
3 114 117 116
3 117 118 116
3 117 119 118
3 115 116 120
3 115 120 121
3 116 122 120
3 116 118 122
3 121 122 123
3 121 120 122
3 118 123 122
3 118 124 123
3 124 118 119
3 124 119 125
3 126 128 127
3 126 129 128
3 127 128 130
3 127 130 131
3 132 134 133
3 134 132 135
3 135 132 136
3 135 136 137
3 138 135 137
3 138 137 139
3 138 140 135
3 140 138 141
3 140 141 142
3 135 140 143
3 142 141 144
3 142 144 145
3 137 136 146
3 137 146 147
3 137 147 148
3 146 136 149
3 148 147 150
3 148 150 151
3 152 154 153
3 152 155 154
3 156 152 153
3 154 156 153
3 156 157 152
3 154 155 158
3 154 158 159
3 160 154 159
3 160 156 154
3 160 159 161
3 160 162 156
3 162 163 156
3 162 164 163
3 162 165 164
3 162 166 165
3 167 166 162
3 167 168 166
3 167 162 169
3 160 169 162
3 167 169 170
3 161 159 171
3 159 172 171
3 159 158 172
3 161 171 173
3 174 164 165
3 174 165 175
3 165 166 176
3 165 176 177
3 166 178 176
3 166 179 178
3 166 180 179
3 180 181 179
3 180 182 181
3 175 181 182
3 175 165 181
3 181 165 177
3 179 183 178
3 179 181 183
3 181 177 183
3 177 176 184
3 177 184 185
3 183 177 185
3 185 184 186
3 176 186 184
3 176 178 186
3 185 186 187
3 178 187 186
3 178 183 187
3 183 185 187
3 166 168 180
3 171 188 173
3 171 172 188
3 189 173 188
3 189 161 173
3 190 161 189
3 190 160 161
3 160 190 170
3 160 170 169
3 191 193 192
3 191 194 193
3 195 193 194
3 195 196 193
3 157 196 195
3 157 156 196
3 163 196 156
3 163 197 196
3 197 191 192
3 197 198 191
3 196 197 199
3 196 199 200
3 193 196 200
3 197 201 199
3 197 192 201
3 192 202 201
3 192 193 202
3 193 200 202
3 200 199 203
3 200 203 204
3 202 200 204
3 204 203 205
3 199 205 203
3 199 201 205
3 204 205 206
3 201 206 205
3 201 202 206
3 202 204 206
3 163 198 197
3 163 207 198
3 208 207 163
3 209 207 208
3 210 209 208
3 210 211 209
3 209 211 212
3 213 209 212
3 213 212 214
3 215 211 210
3 215 216 211
3 215 217 216
3 215 218 217
3 218 215 219
3 218 219 220
3 221 218 220
3 208 221 210
3 208 222 221
3 218 221 223
3 218 223 217
3 223 221 222
3 223 222 224
3 210 221 225
3 221 220 225
3 210 225 226
3 215 226 219
3 215 210 226
3 226 225 227
3 226 227 228
3 219 226 228
3 228 227 229
3 225 229 227
3 225 220 229
3 228 229 230
3 220 230 229
3 220 219 230
3 219 228 230
3 222 208 163
3 222 163 164
3 222 164 174
3 174 224 222
3 224 232 231
3 224 233 232
3 234 236 235
3 234 237 236
3 235 236 238
3 235 238 239
3 239 238 240
3 239 240 241
3 233 214 232
3 233 213 214
3 242 244 243
3 242 245 244
3 134 245 242
3 134 135 245
3 223 224 231
3 246 248 247
3 247 249 246
3 250 248 246
3 250 246 251
3 246 249 252
3 246 252 253
3 254 250 251
3 254 251 255
3 255 251 246
3 255 246 253
3 255 256 254
3 255 257 256
3 255 258 257
3 255 253 258
3 257 258 259
3 259 258 260
3 260 258 261
3 258 262 261
3 263 262 258
3 264 263 258
3 265 264 258
3 266 265 258
3 266 258 253
3 266 267 265
3 266 268 267
3 268 266 269
3 268 269 270
3 270 269 271
3 266 271 269
3 270 271 272
3 271 273 272
3 273 271 274
3 271 275 274
3 271 253 275
3 266 253 271
3 253 276 275
3 253 277 276
3 253 278 277
3 253 252 278
3 279 281 280
3 282 280 281
3 282 283 280
3 280 283 284
3 280 284 285
3 286 280 285
3 286 279 280
3 286 285 287
3 286 288 279
3 289 288 286
3 290 288 289
3 290 289 291
3 290 291 292
3 290 293 288
3 294 279 288
3 295 279 294
3 296 279 295
3 296 295 297
3 296 297 298
3 296 298 299
3 295 294 300
3 301 300 294
3 301 294 302
3 294 288 302
3 279 296 303
3 279 303 281
3 303 296 304
3 303 304 305
3 305 304 306
3 305 306 307
3 304 308 306
3 304 309 308
3 309 307 308
3 309 305 307
3 309 310 305
3 305 310 303
3 303 310 311
3 311 310 312
3 309 312 310
3 311 312 313
3 314 311 313
3 314 313 315
3 311 314 316
3 311 316 317
3 318 317 316
3 318 319 317
3 320 319 318
3 320 321 319
3 321 317 319
3 321 311 317
3 315 313 322
3 315 322 323
3 323 322 324
3 313 324 322
3 323 324 325
3 313 326 324
3 326 325 324
3 313 312 326
3 326 312 327
3 328 326 327
3 326 328 325
3 328 327 329
3 320 330 321
3 303 321 330
3 303 311 321
3 303 330 331
3 320 331 330
3 303 331 332
3 281 303 332
3 281 332 282
3 333 329 327
3 333 327 334
3 334 327 312
3 334 335 333
3 334 336 335
3 337 335 336
3 337 336 338
3 339 337 338
3 339 338 340
3 340 336 334
3 340 338 336
3 340 334 312
3 341 339 340
3 341 340 342
3 342 340 312
3 342 343 341
3 342 344 343
3 345 343 344
3 345 344 346
3 347 345 346
3 347 346 348
3 348 344 342
3 348 346 344
3 342 312 349
3 350 342 349
3 350 348 342
3 350 351 348
3 347 348 351
3 350 352 351
3 347 351 352
3 350 353 352
3 354 350 349
3 350 354 355
3 350 355 356
3 357 350 356
3 356 358 357
3 356 359 358
3 356 360 359
3 356 361 360
3 358 302 357
3 358 301 302
3 357 362 350
3 362 353 350
3 357 363 362
3 364 362 363
3 362 364 353
3 364 363 365
3 363 366 365
3 363 367 366
3 368 367 363
3 368 363 357
3 368 369 367
3 368 357 288
3 302 288 357
3 370 368 288
3 371 370 288
3 371 372 370
3 371 373 372
3 371 288 374
3 288 293 374
3 375 374 293
3 293 376 375
3 293 377 376
3 290 377 293
3 290 378 377
3 375 379 374
3 378 292 380
3 378 290 292
3 381 383 382
3 381 384 383
3 385 387 386
3 385 388 387
3 286 389 289
3 286 390 389
3 289 389 391
3 289 391 291
3 390 286 287
3 390 287 392
3 393 395 394
3 393 396 395
3 397 399 398
3 397 400 399
3 401 403 402
3 401 404 403
3 405 407 406
3 405 408 407
3 409 411 410
3 409 412 411
3 413 412 409
3 413 409 410
3 413 414 412
3 412 415 411
3 412 414 415
3 413 410 416
3 417 419 418
3 420 422 421
3 420 423 422
3 424 426 425
3 424 427 426
3 428 430 429
3 428 431 430
3 368 433 432
3 368 370 433
3 370 434 433
3 370 372 434
3 432 369 368
3 432 435 369
3 436 438 437
3 436 439 438
3 440 442 441
3 440 443 442
3 444 446 445
3 444 447 446
3 448 373 371
3 448 449 373
3 371 450 448
3 371 374 450
3 374 451 450
3 374 379 451
3 452 454 453
3 452 455 454
3 456 458 457
3 456 459 458
3 460 456 457
3 460 459 456
3 460 457 461
3 457 462 461
3 457 458 462
3 460 463 459
3 464 466 465
3 467 349 312
3 467 354 349
3 467 468 354
3 354 468 469
3 354 469 355
3 355 470 467
3 355 469 470
3 467 470 468
3 309 467 312
3 304 467 309
3 304 355 467
3 296 355 304
3 296 356 355
3 299 356 296
3 299 361 356
3 471 473 472
3 471 474 473
3 471 475 474
3 471 476 475
3 477 479 478
3 477 480 479
3 481 483 482
3 481 484 483
3 485 484 481
3 485 486 484
3 483 484 487
3 484 488 487
3 484 486 488
3 486 489 488
3 487 488 489
3 487 489 490
3 486 491 489
3 492 491 486
3 492 486 485
3 483 487 490
3 493 495 494
3 493 496 495
3 495 496 497
3 495 497 498
3 499 501 500
3 499 502 501
3 503 502 499
3 503 504 502
3 502 504 505
3 502 505 506
3 501 502 506
3 501 506 507
3 508 510 509
3 508 511 510
3 510 511 512
3 510 512 513
3 514 504 503
3 514 515 504
3 504 515 516
3 504 516 505
3 506 505 516
3 506 516 507
3 517 519 518
3 517 520 519
3 521 517 518
3 521 518 522
3 519 523 518
3 518 523 524
3 518 524 522
3 522 524 525
3 523 525 524
3 523 526 525
3 522 525 527
3 528 522 527
3 528 521 522
3 519 526 523
3 529 531 530
3 529 532 531
3 531 533 530
3 531 534 533
3 535 537 536
3 535 538 537
3 539 535 536
3 539 536 540
3 536 541 540
3 536 542 541
3 537 542 536
3 537 543 542
3 544 546 545
3 544 547 546
3 546 548 545
3 546 549 548
3 550 540 551
3 550 539 540
3 540 552 551
3 540 541 552
3 542 552 541
3 542 543 552
3 553 555 554
3 553 556 555
3 554 555 557
3 556 557 555
3 554 557 558
3 556 559 557
3 560 554 558
3 560 553 554
3 476 561 475
3 476 562 561
3 295 563 297
3 295 564 563
3 297 563 565
3 297 565 298
3 564 295 300
3 564 300 566
3 300 567 566
3 568 567 300
3 567 568 569
3 567 569 570
3 567 570 571
3 572 567 571
3 571 570 573
3 571 573 574
3 575 574 573
3 575 573 576
3 576 577 575
3 576 578 577
3 573 578 576
3 573 570 578
3 578 579 577
3 579 568 301
3 301 580 579
3 581 580 301
3 581 301 358
3 358 582 581
3 358 359 582
3 359 583 582
3 359 360 583
3 579 584 577
3 585 577 584
3 578 586 579
3 586 568 579
3 570 586 578
3 570 569 586
3 569 568 586
3 585 584 587
3 587 588 585
3 587 589 588
3 590 577 585
3 590 575 577
3 590 574 575
3 590 591 574
3 591 571 574
3 591 592 571
3 571 592 572
3 572 592 593
3 594 563 564
3 594 595 563
3 563 595 596
3 596 595 597
3 596 597 598
3 563 596 565
3 594 564 566
3 594 566 599
3 572 594 599
3 566 572 599
3 572 593 594
3 566 567 572
3 594 600 595
3 594 593 600
3 582 598 597
3 601 582 597
3 601 581 582
3 582 583 598
3 601 580 581
3 601 602 580
3 580 602 584
3 584 602 601
3 580 584 579
3 584 601 587
3 603 600 593
3 603 593 592
3 603 592 604
3 603 604 605
3 605 606 603
3 605 607 606
3 605 604 608
3 605 608 609
3 609 608 610
3 609 610 611
3 612 605 609
3 611 612 609
3 613 607 605
3 613 605 612
3 613 614 607
3 615 614 613
3 615 613 588
3 588 616 615
3 588 589 616
3 589 597 616
3 616 597 595
3 616 595 617
3 585 588 613
3 585 613 618
3 618 590 585
3 618 619 590
3 618 613 620
3 618 620 621
3 621 620 622
3 621 622 623
3 624 618 621
3 604 619 618
3 604 618 624
3 604 625 619
3 625 590 619
3 592 625 604
3 592 591 625
3 625 591 590
3 595 600 617
3 617 600 603
3 617 603 606
3 626 623 622
3 622 627 626
3 622 628 627
3 620 628 622
3 626 629 623
3 630 629 626
3 630 631 629
3 611 631 630
3 611 610 631
3 610 632 631
3 610 633 632
3 631 634 629
3 631 632 634
3 634 632 633
3 626 635 630
3 626 627 635
3 634 633 636
3 629 634 636
3 630 637 611
3 630 635 637
3 611 637 612
3 629 636 623
3 620 638 628
3 613 612 638
3 613 638 620
3 639 641 640
3 639 642 641
3 640 641 643
3 640 643 644
3 601 589 587
3 601 597 589
3 623 624 621
3 623 636 624
3 636 645 624
3 636 633 645
3 608 645 633
3 608 633 610
3 646 648 647
3 646 649 648
3 647 648 650
3 647 650 651
3 604 624 645
3 604 645 608
3 652 654 653
3 652 655 654
3 653 654 656
3 653 656 657
3 655 658 654
3 655 659 658
3 654 660 656
3 654 658 660
3 659 660 658
3 659 661 660
3 656 660 661
3 656 661 662
3 662 657 656
3 662 663 657
3 664 666 665
3 664 667 666
3 667 668 666
3 667 669 668
