ply
format ascii 1.0
element vertex 553
property float x
property float y
property float z
property uchar red
property uchar green
property uchar blue
element face 650
property list uchar int vertex_index
end_header
-0.22254 -0.375 0.32626 237 222 219
-0.22254 -0.96959 0.32701 237 222 219
-0.22254 -0.88548 0.20254 237 222 219
-0.22254 -0.375 0.2026 237 222 219
-0.09888 -0.88548 0.20254 237 222 219
-0.09888 -0.375 0.2026 237 222 219
-0.22254 -1.00367 0.29374 237 222 219
-0.09888 -0.88565 0.01622 237 222 219
-0.22254 -0.88565 0.01622 237 222 219
-0.22254 -1.00345 0.09008 237 222 219
-0.22254 -0.90193 0.00211 237 222 219
-0.09888 -0.90193 0.00211 237 222 219
-0.09888 -1.13442 0.00211 237 222 219
-0.22254 -1.13442 0.00211 237 222 219
-0.09888 -1.00345 0.09008 237 222 219
-0.09888 -1.00367 0.29374 237 222 219
-0.09888 -0.96959 0.32701 237 222 219
-0.09888 -0.375 0.32626 237 222 219
-0.22254 -1.13442 0.09008 237 222 219
-0.09888 -1.13442 0.09008 237 222 219
-0.20774 -1.15785 0.00211 237 222 219
-0.20774 -1.15785 0.09008 237 222 219
-0.11368 -1.15785 0.09008 237 222 219
-0.11368 -1.15785 0.00211 237 222 219
-0.09888 -0.375 0.32626 244 229 226
-0.09888 -0.96959 0.32701 244 229 226
-0.22254 -0.96959 0.32701 244 229 226
-0.22254 -0.375 0.32626 244 229 226
-0.09888 -1.00367 0.29374 244 229 226
-0.22254 -1.00367 0.29374 244 229 226
-0.22254 -1.00345 0.09008 244 229 226
-0.09888 -1.00345 0.09008 244 229 226
-0.09888 -1.13442 0.09008 244 229 226
-0.22254 -1.13442 0.09008 244 229 226
-0.11368 -1.15785 0.09008 244 229 226
-0.20774 -1.15785 0.09008 244 229 226
0.05364 -0.375 0.32626 237 222 219
0.05361 -0.81698 0.32701 237 222 219
0.05361 -0.73722 0.20254 237 222 219
0.05364 -0.375 0.2026 237 222 219
0.0536 -0.85105 0.29374 237 222 219
0.0536 -0.7374 0.01622 237 222 219
0.05359 -0.85084 0.09008 237 222 219
0.0536 -0.75367 0.00211 237 222 219
0.05358 -0.98181 0.09008 237 222 219
0.05358 -0.98181 0.00211 237 222 219
0.06837 -1.00524 0.00211 237 222 219
0.06837 -1.00524 0.09008 237 222 219
0.16244 -1.00524 0.09008 237 222 219
0.16244 -1.00524 0.00211 237 222 219
0.17724 -0.98182 0.00211 237 222 219
0.17726 -0.73723 0.20254 237 222 219
0.1773 -0.375 0.2026 237 222 219
0.17726 -0.81699 0.32701 237 222 219
0.1773 -0.375 0.32626 237 222 219
0.17726 -0.85106 0.29374 237 222 219
0.17725 -0.85085 0.09008 237 222 219
0.17725 -0.73741 0.01622 237 222 219
0.17725 -0.75368 0.00211 237 222 219
0.17724 -0.98182 0.09008 237 222 219
0.1773 -0.375 0.32626 244 229 226
0.17726 -0.81699 0.32701 244 229 226
0.05361 -0.81698 0.32701 244 229 226
0.05364 -0.375 0.32626 244 229 226
0.17726 -0.85106 0.29374 244 229 226
0.0536 -0.85105 0.29374 244 229 226
0.05359 -0.85084 0.09008 244 229 226
0.17725 -0.85085 0.09008 244 229 226
0.17724 -0.98182 0.09008 244 229 226
0.05358 -0.98181 0.09008 244 229 226
0.16244 -1.00524 0.09008 244 229 226
0.06837 -1.00524 0.09008 244 229 226
-0.21212 0.14644 0.82749 211 140 78
-0.21212 0.23561 0.82749 211 140 78
-0.21212 0.23561 1.03773 211 140 78
-0.21212 0.14644 1.03773 211 140 78
-0.19224 0.25422 1.03773 211 140 78
-0.19224 0.25422 0.82749 211 140 78
-0.10488 0.25422 0.82749 211 140 78
-0.10488 0.25422 1.03773 211 140 78
-0.19224 0.12784 1.03773 211 140 78
-0.19224 0.12784 0.82749 211 140 78
-0.19841 0.1561 1.05476 211 140 78
-0.18284 0.14153 1.05476 211 140 78
-0.10488 0.12784 1.03773 211 140 78
-0.11441 0.14153 1.05476 211 140 78
-0.19841 0.22595 1.05476 211 140 78
-0.18284 0.24053 1.05476 211 140 78
-0.11441 0.24053 1.05476 211 140 78
-0.08574 0.14644 1.03773 211 140 78
-0.08574 0.14644 0.82749 211 140 78
-0.08574 0.23561 0.82749 211 140 78
-0.08574 0.23561 1.03773 211 140 78
-0.10488 0.12784 0.82749 211 140 78
-0.09942 0.22595 1.05476 211 140 78
-0.09942 0.1561 1.05476 211 140 78
-0.11441 0.14153 1.05476 217 144 80
-0.11441 0.24053 1.05476 217 144 80
-0.09942 0.22595 1.05476 217 144 80
-0.09942 0.1561 1.05476 217 144 80
-0.18284 0.24053 1.05476 217 144 80
-0.18284 0.14153 1.05476 217 144 80
-0.19841 0.1561 1.05476 217 144 80
-0.19841 0.22595 1.05476 217 144 80
-0.21212 -0.14644 0.82749 211 140 78
-0.21212 -0.14644 1.03773 211 140 78
-0.21212 -0.23561 1.03773 211 140 78
-0.21212 -0.23561 0.82749 211 140 78
-0.19224 -0.25422 1.03773 211 140 78
-0.19224 -0.25422 0.82749 211 140 78
-0.10488 -0.25422 0.82749 211 140 78
-0.10488 -0.25422 1.03773 211 140 78
-0.19224 -0.12784 1.03773 211 140 78
-0.19224 -0.12784 0.82749 211 140 78
-0.19841 -0.1561 1.05476 211 140 78
-0.18284 -0.14153 1.05476 211 140 78
-0.10488 -0.12784 1.03773 211 140 78
-0.11441 -0.14153 1.05476 211 140 78
-0.19841 -0.22595 1.05476 211 140 78
-0.18284 -0.24053 1.05476 211 140 78
-0.11441 -0.24053 1.05476 211 140 78
-0.08574 -0.14644 1.03773 211 140 78
-0.08574 -0.14644 0.82749 211 140 78
-0.08574 -0.23561 0.82749 211 140 78
-0.08574 -0.23561 1.03773 211 140 78
-0.10488 -0.12784 0.82749 211 140 78
-0.09942 -0.22595 1.05476 211 140 78
-0.09942 -0.1561 1.05476 211 140 78
-0.11441 -0.14153 1.05476 217 144 80
-0.09942 -0.1561 1.05476 217 144 80
-0.09942 -0.22595 1.05476 217 144 80
-0.11441 -0.24053 1.05476 217 144 80
-0.18284 -0.24053 1.05476 217 144 80
-0.19841 -0.22595 1.05476 217 144 80
-0.19841 -0.1561 1.05476 217 144 80
-0.18284 -0.14153 1.05476 217 144 80
-0.52139 -0.34014 0.49437 237 222 219
-0.52139 -0.34014 0.62735 237 222 219
-0.52139 -0.46053 0.62735 237 222 219
-0.52139 -0.46053 0.49437 237 222 219
-0.38947 -0.46053 0.62735 237 222 219
-0.38947 -0.46053 0.49437 237 222 219
-0.38947 -0.34014 0.49437 237 222 219
-0.38947 -0.34014 0.62735 237 222 219
-0.5084 -0.44867 0.6432 237 222 219
-0.5084 -0.352 0.6432 237 222 219
-0.40246 -0.44867 0.6432 237 222 219
-0.40246 -0.352 0.6432 237 222 219
-0.5084 -0.352 0.6432 244 229 226
-0.40246 -0.352 0.6432 244 229 226
-0.40246 -0.44867 0.6432 244 229 226
-0.5084 -0.44867 0.6432 244 229 226
-0.52139 0.34014 0.49437 237 222 219
-0.52139 0.46053 0.49437 237 222 219
-0.52139 0.46053 0.62735 237 222 219
-0.52139 0.34014 0.62735 237 222 219
-0.38947 0.46053 0.62735 237 222 219
-0.38947 0.46053 0.49437 237 222 219
-0.38947 0.34014 0.49437 237 222 219
-0.38947 0.34014 0.62735 237 222 219
-0.5084 0.44867 0.6432 237 222 219
-0.40246 0.44867 0.6432 237 222 219
-0.5084 0.352 0.6432 237 222 219
-0.40246 0.352 0.6432 237 222 219
-0.5084 0.352 0.6432 244 229 226
-0.5084 0.44867 0.6432 244 229 226
-0.40246 0.44867 0.6432 244 229 226
-0.40246 0.352 0.6432 244 229 226
-0.39408 -0.19736 0.78035 74 74 75
-0.39408 -0.19736 0.81826 74 74 75
-0.39408 -0.23727 0.81826 74 74 75
-0.39408 -0.23727 0.78035 74 74 75
-0.39408 -0.15332 0.88011 251 252 255
-0.288 -0.15332 0.88011 251 252 255
-0.288 -0.37118 0.88011 251 252 255
-0.39408 -0.37118 0.88011 251 252 255
-0.288 -0.37118 0.69725 251 252 255
-0.288 -0.11396 0.69725 251 252 255
-0.39408 -0.37118 0.69725 251 252 255
-0.39408 -0.11396 0.69725 251 252 255
-0.39408 -0.19736 0.78035 251 252 255
-0.39408 -0.23727 0.78035 251 252 255
-0.39408 -0.23727 0.81826 251 252 255
-0.39408 -0.19736 0.81826 251 252 255
-0.39408 0.19736 0.78035 74 74 75
-0.39408 0.23727 0.78035 74 74 75
-0.39408 0.23727 0.81826 74 74 75
-0.39408 0.19736 0.81826 74 74 75
-0.39408 0.15332 0.88011 251 252 255
-0.39408 0.37118 0.88011 251 252 255
-0.288 0.37118 0.88011 251 252 255
-0.288 0.15332 0.88011 251 252 255
-0.288 0.37118 0.69725 251 252 255
-0.288 0.11396 0.69725 251 252 255
-0.39408 0.37118 0.69725 251 252 255
-0.39408 0.11396 0.69725 251 252 255
-0.39408 0.23727 0.78035 251 252 255
-0.39408 0.19736 0.78035 251 252 255
-0.39408 0.23727 0.81826 251 252 255
-0.39408 0.19736 0.81826 251 252 255
-0.28976 -0.10351 0.17947 237 222 219
-0.28976 -0.10351 0.24009 237 222 219
-0.28976 -0.46326 0.24009 237 222 219
-0.28976 -0.46326 0.17947 237 222 219
0.24662 -0.10351 0.17947 237 222 219
0.24662 -0.46326 0.17947 237 222 219
0.24662 -0.46326 0.24009 237 222 219
0.24662 -0.10351 0.24009 237 222 219
-0.28976 0.10351 0.17947 237 222 219
-0.28976 0.46326 0.17947 237 222 219
-0.28976 0.46326 0.24009 237 222 219
-0.28976 0.10351 0.24009 237 222 219
0.24662 0.10351 0.17947 237 222 219
0.24662 0.46326 0.17947 237 222 219
0.24662 0.46326 0.24009 237 222 219
0.24662 0.10351 0.24009 237 222 219
-0.25032 0.50975 0.83782 217 144 80
0.28663 0.50975 0.83782 217 144 80
0.28663 -0.50975 0.83782 217 144 80
-0.25032 -0.50975 0.83782 217 144 80
0.3546 -0.44331 0.83782 217 144 80
0.3546 0.44331 0.83782 217 144 80
0.41124 -0.49256 0.289 237 222 219
0.33572 -0.56639 0.289 237 222 219
0.33572 -0.56639 0.51603 237 222 219
0.41124 -0.49256 0.51603 237 222 219
0.28663 -0.50975 0.23048 237 222 219
0.3546 -0.44331 0.23048 237 222 219
-0.3264 -0.56639 0.51603 237 222 219
0.41124 0.49256 0.51603 237 222 219
0.41124 0.49256 0.289 237 222 219
0.33572 0.56639 0.51603 237 222 219
0.33572 0.56639 0.289 237 222 219
0.28663 0.50975 0.23048 237 222 219
0.3546 0.44331 0.23048 237 222 219
-0.42374 -0.50989 0.23045 237 222 219
-0.42374 0.50989 0.23045 237 222 219
0.3546 -0.44331 0.83782 211 140 78
0.3546 0.44331 0.83782 211 140 78
0.41124 0.49256 0.77855 211 140 78
0.41124 -0.49256 0.77855 211 140 78
0.33572 -0.56639 0.77855 211 140 78
0.28663 -0.50975 0.83782 211 140 78
0.41124 0.49256 0.51603 211 140 78
0.41124 -0.49256 0.51603 211 140 78
0.33572 -0.56639 0.51603 211 140 78
-0.29089 -0.56639 0.70098 211 140 78
-0.2908 -0.56639 0.77855 211 140 78
0.33572 0.56639 0.77855 211 140 78
0.28663 0.50975 0.83782 211 140 78
-0.2908 0.56639 0.77855 211 140 78
-0.25032 0.50975 0.83782 211 140 78
0.33572 0.56639 0.51603 211 140 78
-0.25032 -0.50975 0.83782 211 140 78
-0.29089 0.56639 0.70098 211 140 78
-0.3264 -0.56639 0.51603 211 140 78
-0.3264 -0.56639 0.7009 211 140 78
-0.4594 -0.45568 0.23045 237 222 219
-0.53744 0 0.28913 237 222 219
-0.53744 -0.49184 0.28913 237 222 219
-0.47642 -0.56635 0.28919 237 222 219
-0.47701 -0.56635 0.51603 237 222 219
-0.53744 -0.49184 0.51603 237 222 219
-0.53744 -0.07721 0.51603 237 222 219
-0.4594 0.45568 0.23045 237 222 219
-0.47642 0.56635 0.28919 237 222 219
-0.53744 0.49184 0.28913 237 222 219
-0.47701 0.56635 0.51603 237 222 219
-0.53744 0.49184 0.51603 237 222 219
-0.3264 0.56639 0.51603 237 222 219
-0.53744 0.07721 0.51603 237 222 219
-0.53744 0 0.4701 237 222 219
-0.53744 0.07721 0.51603 244 229 226
-0.53744 0.49184 0.51603 244 229 226
-0.40192 0.49256 0.51603 244 229 226
-0.40192 0.07733 0.51603 244 229 226
-0.3264 0.56639 0.51603 244 229 226
-0.47701 0.56635 0.51603 244 229 226
-0.3264 -0.56639 0.51603 244 229 226
-0.47701 -0.56635 0.51603 244 229 226
-0.53744 -0.49184 0.51603 244 229 226
-0.40192 -0.49256 0.51603 244 229 226
-0.40192 -0.07733 0.51603 244 229 226
-0.53744 -0.07721 0.51603 244 229 226
-0.40192 0.49256 0.7009 211 140 78
-0.40192 0.49256 0.51603 211 140 78
-0.3264 0.56639 0.51603 211 140 78
-0.3264 0.56639 0.7009 211 140 78
-0.40192 0.07733 0.51603 211 140 78
-0.40192 0.28494 0.7009 211 140 78
-0.40192 -0.28494 0.7009 211 140 78
-0.40192 -0.07733 0.51603 211 140 78
-0.40192 -0.49256 0.7009 211 140 78
-0.40192 -0.49256 0.51603 211 140 78
-0.40192 0 0.4701 211 140 78
-0.53744 0 0.4701 244 229 226
-0.40192 0 0.4701 244 229 226
-0.22292 0.5542 0.55952 237 222 219
-0.22292 0.93299 0.55952 237 222 219
-0.22292 0.8417 0.68059 237 222 219
-0.22292 0.5542 0.68059 237 222 219
-0.10185 0.5542 0.55952 237 222 219
-0.10185 0.93299 0.55952 237 222 219
-0.22292 0.95812 0.58303 237 222 219
-0.10185 0.95812 0.58303 237 222 219
-0.10185 0.8417 0.68059 237 222 219
-0.10185 0.5542 0.68059 237 222 219
-0.22292 0.8417 0.90506 237 222 219
-0.10185 0.8417 0.90506 237 222 219
-0.22292 0.95812 0.90506 237 222 219
-0.10185 0.95812 0.90506 237 222 219
-0.26498 1.00018 0.90506 237 222 219
-0.26498 0.79964 0.90506 237 222 219
-0.26498 1.00018 1.01041 237 222 219
-0.26498 0.79964 1.01041 237 222 219
-0.05979 0.79964 0.90506 237 222 219
-0.05979 0.79964 1.01041 237 222 219
-0.05979 1.00018 1.01041 237 222 219
-0.05979 1.00018 0.90506 237 222 219
-0.22292 0.5542 0.68059 244 229 226
-0.22292 0.8417 0.68059 244 229 226
-0.10185 0.8417 0.68059 244 229 226
-0.10185 0.5542 0.68059 244 229 226
-0.3392 0.7066 1.04387 211 140 78
-0.3392 1.0981 1.04387 211 140 78
-0.3392 1.0981 1.77998 211 140 78
-0.3392 0.7066 1.57399 211 140 78
0.01428 1.0981 1.77998 211 140 78
0.01428 1.0981 1.04387 211 140 78
-0.3392 1.04397 1.83433 211 140 78
-0.3392 0.51508 1.83433 211 140 78
-0.3392 0.46933 1.78092 211 140 78
-0.3392 0.46933 1.57399 211 140 78
0.01428 0.46933 1.57399 211 140 78
0.01428 0.46933 1.78092 211 140 78
-0.28479 0.7066 1.57399 211 140 78
-0.28227 0.7066 1.12877 211 140 78
0.01428 0.7066 1.04387 211 140 78
-0.04265 0.7066 1.12877 211 140 78
0.01428 0.7066 1.57399 211 140 78
0.01428 1.04397 1.83433 211 140 78
0.01428 0.51508 1.83433 211 140 78
-0.04013 0.7066 1.57399 211 140 78
-0.0376 0.50755 1.57399 211 140 78
-0.28732 0.50755 1.57399 211 140 78
-0.02106 0.74575 1.00359 211 140 78
-0.30385 0.74575 1.00359 211 140 78
-0.30385 1.05895 1.00359 211 140 78
-0.02106 1.05895 1.00359 211 140 78
-0.3392 0.51508 1.83433 217 144 80
-0.3392 1.04397 1.83433 217 144 80
0.01428 1.04397 1.83433 217 144 80
0.01428 0.51508 1.83433 217 144 80
0.01428 0.46933 1.78092 217 144 80
-0.3392 0.46933 1.78092 217 144 80
-0.04265 0.7066 1.12877 63 42 23
-0.28227 0.7066 1.12877 63 42 23
-0.28479 0.7066 1.57399 63 42 23
-0.04013 0.7066 1.57399 63 42 23
-0.28732 0.50755 1.57399 63 42 23
-0.0376 0.50755 1.57399 63 42 23
-0.3392 1.0981 1.77998 217 144 80
0.01428 1.0981 1.77998 217 144 80
-0.30461 0.55686 1.08229 211 140 78
-0.30461 0.61055 1.26997 211 140 78
-0.30461 0.52522 1.11161 211 140 78
-0.02464 0.52522 1.11161 211 140 78
-0.02464 0.55686 1.08229 211 140 78
-0.30461 0.72084 1.08229 211 140 78
-0.30461 0.72084 1.26997 211 140 78
-0.02464 0.72084 1.08229 211 140 78
-0.02464 0.72084 1.26997 211 140 78
-0.02464 0.61055 1.26997 211 140 78
-0.30461 0.61055 1.43525 211 140 78
-0.30461 0.52522 1.43525 211 140 78
-0.02464 0.61055 1.43525 211 140 78
-0.02464 0.52522 1.43525 211 140 78
-0.30461 0.52522 1.43525 217 144 80
-0.30461 0.61055 1.43525 217 144 80
-0.02464 0.61055 1.43525 217 144 80
-0.02464 0.52522 1.43525 217 144 80
-0.02464 0.61055 1.26997 217 144 80
-0.30461 0.61055 1.26997 217 144 80
-0.30461 0.72084 1.26997 217 144 80
-0.02464 0.72084 1.26997 217 144 80
-0.22292 -0.5542 0.55952 237 222 219
-0.22292 -0.5542 0.68059 237 222 219
-0.22292 -0.8417 0.68059 237 222 219
-0.22292 -0.93299 0.55952 237 222 219
-0.10185 -0.5542 0.55952 237 222 219
-0.10185 -0.93299 0.55952 237 222 219
-0.22292 -0.95812 0.58303 237 222 219
-0.10185 -0.95812 0.58303 237 222 219
-0.10185 -0.8417 0.68059 237 222 219
-0.10185 -0.5542 0.68059 237 222 219
-0.22292 -0.8417 0.90506 237 222 219
-0.10185 -0.8417 0.90506 237 222 219
-0.22292 -0.95812 0.90506 237 222 219
-0.10185 -0.95812 0.90506 237 222 219
-0.26498 -1.00018 0.90506 237 222 219
-0.26498 -0.79964 0.90506 237 222 219
-0.26498 -1.00018 1.01041 237 222 219
-0.26498 -0.79964 1.01041 237 222 219
-0.05979 -0.79964 0.90506 237 222 219
-0.05979 -0.79964 1.01041 237 222 219
-0.05979 -1.00018 1.01041 237 222 219
-0.05979 -1.00018 0.90506 237 222 219
-0.22292 -0.5542 0.68059 244 229 226
-0.10185 -0.5542 0.68059 244 229 226
-0.10185 -0.8417 0.68059 244 229 226
-0.22292 -0.8417 0.68059 244 229 226
-0.3392 -0.7066 1.04387 211 140 78
-0.3392 -0.7066 1.57399 211 140 78
-0.3392 -1.0981 1.77998 211 140 78
-0.3392 -1.0981 1.04387 211 140 78
0.01428 -1.0981 1.77998 211 140 78
0.01428 -1.0981 1.04387 211 140 78
-0.3392 -1.04397 1.83433 211 140 78
-0.3392 -0.51508 1.83433 211 140 78
-0.3392 -0.46933 1.78092 211 140 78
-0.3392 -0.46933 1.57399 211 140 78
0.01428 -0.46933 1.57399 211 140 78
0.01428 -0.46933 1.78092 211 140 78
-0.28479 -0.7066 1.57399 211 140 78
-0.28227 -0.7066 1.12877 211 140 78
0.01428 -0.7066 1.04387 211 140 78
-0.04265 -0.7066 1.12877 211 140 78
0.01428 -0.7066 1.57399 211 140 78
0.01428 -1.04397 1.83433 211 140 78
0.01428 -0.51508 1.83433 211 140 78
-0.04013 -0.7066 1.57399 211 140 78
-0.0376 -0.50755 1.57399 211 140 78
-0.28732 -0.50755 1.57399 211 140 78
-0.02106 -1.05895 1.00359 211 140 78
-0.02106 -0.74575 1.00359 211 140 78
-0.30385 -1.05895 1.00359 211 140 78
-0.30385 -0.74575 1.00359 211 140 78
-0.3392 -0.51508 1.83433 217 144 80
0.01428 -0.51508 1.83433 217 144 80
0.01428 -1.04397 1.83433 217 144 80
-0.3392 -1.04397 1.83433 217 144 80
0.01428 -0.46933 1.78092 217 144 80
-0.3392 -0.46933 1.78092 217 144 80
-0.04265 -0.7066 1.12877 63 42 23
-0.04013 -0.7066 1.57399 63 42 23
-0.28479 -0.7066 1.57399 63 42 23
-0.28227 -0.7066 1.12877 63 42 23
-0.28732 -0.50755 1.57399 63 42 23
-0.0376 -0.50755 1.57399 63 42 23
-0.3392 -1.0981 1.77998 217 144 80
0.01428 -1.0981 1.77998 217 144 80
-0.30461 -0.55686 1.08229 211 140 78
-0.30461 -0.52522 1.11161 211 140 78
-0.30461 -0.61055 1.26997 211 140 78
-0.02464 -0.52522 1.11161 211 140 78
-0.02464 -0.55686 1.08229 211 140 78
-0.30461 -0.72084 1.08229 211 140 78
-0.30461 -0.72084 1.26997 211 140 78
-0.02464 -0.72084 1.08229 211 140 78
-0.30461 -0.61055 1.43525 211 140 78
-0.30461 -0.52522 1.43525 211 140 78
-0.02464 -0.61055 1.43525 211 140 78
-0.02464 -0.61055 1.26997 211 140 78
-0.02464 -0.52522 1.43525 211 140 78
-0.02464 -0.72084 1.26997 211 140 78
-0.30461 -0.52522 1.43525 217 144 80
-0.02464 -0.52522 1.43525 217 144 80
-0.02464 -0.61055 1.43525 217 144 80
-0.30461 -0.61055 1.43525 217 144 80
-0.02464 -0.61055 1.26997 217 144 80
-0.02464 -0.72084 1.26997 217 144 80
-0.30461 -0.72084 1.26997 217 144 80
-0.30461 -0.61055 1.26997 217 144 80
-0.22254 0.375 0.32626 237 222 219
-0.22254 0.375 0.2026 237 222 219
-0.22254 0.88548 0.20254 237 222 219
-0.22254 0.96959 0.32701 237 222 219
-0.09888 0.88548 0.20254 237 222 219
-0.09888 0.375 0.2026 237 222 219
-0.22254 1.00367 0.29374 237 222 219
-0.09888 0.88565 0.01622 237 222 219
-0.22254 0.88565 0.01622 237 222 219
-0.22254 1.00345 0.09008 237 222 219
-0.22254 0.90193 0.00211 237 222 219
-0.09888 0.90193 0.00211 237 222 219
-0.09888 1.13442 0.00211 237 222 219
-0.22254 1.13442 0.00211 237 222 219
-0.09888 1.00345 0.09008 237 222 219
-0.09888 1.00367 0.29374 237 222 219
-0.09888 0.96959 0.32701 237 222 219
-0.09888 0.375 0.32626 237 222 219
-0.22254 1.13442 0.09008 237 222 219
-0.09888 1.13442 0.09008 237 222 219
-0.20774 1.15785 0.00211 237 222 219
-0.20774 1.15785 0.09008 237 222 219
-0.11368 1.15785 0.09008 237 222 219
-0.11368 1.15785 0.00211 237 222 219
-0.09888 0.375 0.32626 244 229 226
-0.22254 0.375 0.32626 244 229 226
-0.22254 0.96959 0.32701 244 229 226
-0.09888 0.96959 0.32701 244 229 226
-0.09888 1.00367 0.29374 244 229 226
-0.22254 1.00367 0.29374 244 229 226
-0.22254 1.00345 0.09008 244 229 226
-0.09888 1.00345 0.09008 244 229 226
-0.22254 1.13442 0.09008 244 229 226
-0.09888 1.13442 0.09008 244 229 226
-0.20774 1.15785 0.09008 244 229 226
-0.11368 1.15785 0.09008 244 229 226
0.05364 0.375 0.32626 237 222 219
0.05364 0.375 0.2026 237 222 219
0.05361 0.73722 0.20254 237 222 219
0.05361 0.81698 0.32701 237 222 219
0.0536 0.85105 0.29374 237 222 219
0.0536 0.7374 0.01622 237 222 219
0.05359 0.85084 0.09008 237 222 219
0.0536 0.75367 0.00211 237 222 219
0.05358 0.98181 0.09008 237 222 219
0.05358 0.98181 0.00211 237 222 219
0.06837 1.00524 0.00211 237 222 219
0.06837 1.00524 0.09008 237 222 219
0.16244 1.00524 0.09008 237 222 219
0.16244 1.00524 0.00211 237 222 219
0.17724 0.98182 0.00211 237 222 219
0.1773 0.375 0.2026 237 222 219
0.17726 0.73723 0.20254 237 222 219
0.17726 0.81699 0.32701 237 222 219
0.1773 0.375 0.32626 237 222 219
0.17726 0.85106 0.29374 237 222 219
0.17725 0.85085 0.09008 237 222 219
0.17725 0.73741 0.01622 237 222 219
0.17725 0.75368 0.00211 237 222 219
0.17724 0.98182 0.09008 237 222 219
0.1773 0.375 0.32626 244 229 226
0.05364 0.375 0.32626 244 229 226
0.05361 0.81698 0.32701 244 229 226
0.17726 0.81699 0.32701 244 229 226
0.17726 0.85106 0.29374 244 229 226
0.0536 0.85105 0.29374 244 229 226
0.05359 0.85084 0.09008 244 229 226
0.17725 0.85085 0.09008 244 229 226
0.05358 0.98181 0.09008 244 229 226
0.17724 0.98182 0.09008 244 229 226
0.06837 1.00524 0.09008 244 229 226
0.16244 1.00524 0.09008 244 229 226
-0.29089 0.56639 0.70098 217 144 80
-0.29089 -0.56639 0.70098 217 144 80
-0.3264 -0.56639 0.7009 217 144 80
-0.3264 0.56639 0.7009 217 144 80
-0.40192 0.28494 0.7009 217 144 80
-0.40192 -0.28494 0.7009 217 144 80
-0.40192 -0.49256 0.7009 217 144 80
-0.40192 0.49256 0.7009 217 144 80
3 0 2 1
3 0 3 2
3 3 4 2
3 3 5 4
3 1 2 6
3 2 4 7
3 2 7 8
3 6 2 8
3 6 8 9
3 10 9 8
3 8 11 10
3 10 11 12
3 10 12 13
3 8 7 11
3 11 7 14
3 4 14 7
3 4 15 14
3 4 16 15
3 5 16 4
3 5 17 16
3 10 18 9
3 10 13 18
3 11 19 12
3 11 14 19
3 18 13 20
3 18 20 21
3 22 21 20
3 22 20 23
3 13 23 20
3 13 12 23
3 12 22 23
3 12 19 22
3 24 26 25
3 24 27 26
3 28 25 26
3 28 26 29
3 28 29 30
3 28 30 31
3 31 33 32
3 31 30 33
3 32 35 34
3 32 33 35
3 36 38 37
3 36 39 38
3 37 38 40
3 40 38 41
3 40 41 42
3 43 42 41
3 43 44 42
3 43 45 44
3 44 45 46
3 44 46 47
3 48 47 46
3 48 46 49
3 45 49 46
3 45 50 49
3 39 51 38
3 39 52 51
3 52 53 51
3 52 54 53
3 51 53 55
3 51 55 56
3 51 56 57
3 38 51 57
3 38 57 41
3 41 57 58
3 58 57 56
3 41 58 43
3 43 58 50
3 43 50 45
3 58 59 50
3 58 56 59
3 50 59 48
3 50 48 49
3 60 62 61
3 60 63 62
3 64 62 65
3 64 61 62
3 64 65 66
3 64 66 67
3 67 69 68
3 67 66 69
3 68 71 70
3 68 69 71
3 72 74 73
3 72 75 74
3 73 74 76
3 73 76 77
3 76 78 77
3 76 79 78
3 80 75 72
3 80 72 81
3 80 82 75
3 80 83 82
3 84 83 80
3 84 85 83
3 75 86 74
3 75 82 86
3 74 87 76
3 74 86 87
3 76 88 79
3 76 87 88
3 89 85 84
3 90 89 84
3 89 90 91
3 89 91 92
3 90 84 93
3 84 81 93
3 84 80 81
3 79 92 91
3 79 91 78
3 79 94 92
3 79 88 94
3 92 95 89
3 92 94 95
3 89 95 85
3 96 98 97
3 96 99 98
3 100 102 101
3 100 103 102
3 96 100 101
3 96 97 100
3 104 106 105
3 104 107 106
3 107 108 106
3 107 109 108
3 108 109 110
3 108 110 111
3 112 104 105
3 112 113 104
3 112 105 114
3 112 114 115
3 116 112 115
3 116 115 117
3 105 118 114
3 105 106 118
3 106 119 118
3 106 108 119
3 108 120 119
3 108 111 120
3 121 116 117
3 122 116 121
3 121 123 122
3 121 124 123
3 122 125 116
3 116 125 113
3 116 113 112
3 111 123 124
3 111 110 123
3 111 124 126
3 111 126 120
3 124 127 126
3 124 121 127
3 121 117 127
3 128 130 129
3 128 131 130
3 132 134 133
3 132 135 134
3 128 135 132
3 128 132 131
3 136 138 137
3 136 139 138
3 139 140 138
3 139 141 140
3 142 136 137
3 142 137 143
3 137 138 144
3 137 144 145
3 143 137 145
3 138 146 144
3 138 140 146
3 143 145 147
3 148 150 149
3 148 151 150
3 152 154 153
3 152 155 154
3 153 154 156
3 153 156 157
3 158 155 152
3 158 159 155
3 156 154 160
3 156 160 161
3 154 162 160
3 154 155 162
3 155 163 162
3 155 159 163
3 159 161 163
3 159 156 161
3 164 166 165
3 164 167 166
3 168 170 169
3 168 171 170
3 172 174 173
3 172 175 174
3 173 174 176
3 173 176 177
3 177 172 173
3 178 174 175
3 178 176 174
3 177 179 172
3 179 181 180
3 179 178 181
3 178 182 181
3 178 175 182
3 175 183 182
3 175 172 183
3 172 180 183
3 172 179 180
3 184 186 185
3 184 187 186
3 188 190 189
3 188 191 190
3 191 192 190
3 191 193 192
3 193 191 188
3 194 190 192
3 194 189 190
3 193 188 195
3 195 196 194
3 195 197 196
3 194 196 198
3 194 198 189
3 189 198 199
3 189 199 188
3 188 197 195
3 188 199 197
3 200 202 201
3 200 203 202
3 204 203 200
3 204 200 201
3 204 205 203
3 203 206 202
3 203 205 206
3 204 201 207
3 207 205 204
3 207 206 205
3 208 210 209
3 208 211 210
3 212 208 209
3 212 211 208
3 212 209 213
3 209 214 213
3 209 210 214
3 212 215 211
3 215 213 214
3 215 212 213
3 216 218 217
3 216 219 218
3 217 218 220
3 217 220 221
3 222 224 223
3 222 225 224
3 222 223 226
3 222 226 227
3 228 223 224
3 222 229 225
3 222 230 229
3 227 230 222
3 230 231 229
3 230 232 231
3 230 233 232
3 227 226 233
3 230 234 233
3 227 234 230
3 227 233 234
3 233 226 235
3 233 235 236
3 237 239 238
3 237 240 239
3 241 240 237
3 241 237 242
3 240 243 239
3 240 244 243
3 245 240 241
3 245 244 240
3 246 245 241
3 246 241 247
3 248 238 239
3 248 249 238
3 250 249 248
3 250 251 249
3 252 239 243
3 252 248 239
3 252 250 248
3 253 241 242
3 253 247 241
3 252 254 250
3 255 245 246
3 255 246 256
3 257 259 258
3 260 259 257
3 260 257 235
3 226 260 235
3 226 223 260
3 261 259 260
3 261 262 259
3 259 262 263
3 236 235 257
3 236 257 264
3 257 258 264
3 228 261 260
3 228 260 223
3 265 236 264
3 233 236 265
3 233 265 232
3 265 264 266
3 267 265 266
3 267 266 268
3 269 265 267
3 269 231 232
3 269 232 265
3 266 270 268
3 258 270 266
3 264 258 266
3 258 271 270
3 259 271 258
3 259 263 271
3 272 274 273
3 272 275 274
3 276 273 274
3 276 277 273
3 278 280 279
3 278 281 280
3 280 281 282
3 280 282 283
3 284 286 285
3 284 287 286
3 288 284 285
3 288 289 284
3 290 289 288
3 290 288 291
3 292 290 291
3 292 291 293
3 291 288 294
3 256 292 293
3 256 293 255
3 286 287 254
3 286 254 252
3 250 254 246
3 250 246 247
3 247 251 250
3 247 253 251
3 283 296 295
3 283 282 296
3 295 275 272
3 295 296 275
3 297 299 298
3 297 300 299
3 301 297 298
3 301 298 302
3 299 303 298
3 303 302 298
3 303 304 302
3 302 304 305
3 306 302 305
3 306 301 302
3 305 307 299
3 305 308 307
3 304 308 305
3 299 309 303
3 299 307 309
3 303 309 310
3 303 310 304
3 304 310 308
3 307 311 309
3 307 312 311
3 312 313 311
3 312 314 313
3 315 314 312
3 315 316 314
3 311 313 317
3 311 317 318
3 309 318 310
3 309 311 318
3 308 312 307
3 308 315 312
3 310 315 308
3 310 318 315
3 318 316 315
3 318 317 316
3 319 321 320
3 319 322 321
3 323 325 324
3 323 326 325
3 324 325 327
3 324 327 328
3 326 329 325
3 326 330 329
3 326 331 330
3 326 332 331
3 333 331 332
3 333 334 331
3 323 335 326
3 323 336 335
3 337 336 323
3 337 338 336
3 339 338 337
3 339 337 328
3 339 328 327
3 339 327 340
3 341 339 340
3 341 333 339
3 341 334 333
3 339 342 338
3 333 342 339
3 332 343 333
3 333 343 342
3 332 344 343
3 326 335 344
3 326 344 332
3 328 337 345
3 337 346 345
3 345 346 347
3 345 347 348
3 328 345 348
3 323 347 346
3 337 323 346
3 323 324 347
3 324 348 347
3 324 328 348
3 349 351 350
3 349 352 351
3 349 353 352
3 349 354 353
3 355 357 356
3 355 358 357
3 358 359 357
3 358 360 359
3 361 351 362
3 361 350 351
3 363 365 364
3 363 366 365
3 363 367 366
3 364 368 363
3 364 369 368
3 363 368 370
3 363 370 367
3 367 370 371
3 367 371 372
3 366 367 372
3 365 373 364
3 365 374 373
3 366 374 365
3 364 373 375
3 364 375 372
3 372 376 366
3 366 376 374
3 372 375 376
3 377 379 378
3 377 380 379
3 381 383 382
3 381 384 383
3 385 387 386
3 385 388 387
3 389 388 385
3 389 390 388
3 387 388 391
3 391 388 390
3 391 390 392
3 390 393 392
3 394 393 390
3 394 390 389
3 393 387 395
3 393 395 396
3 392 393 396
3 387 397 395
3 387 391 397
3 391 398 397
3 391 392 398
3 392 396 398
3 395 397 399
3 395 399 400
3 400 399 401
3 400 401 402
3 403 400 402
3 403 402 404
3 399 405 401
3 399 406 405
3 397 406 399
3 397 398 406
3 396 400 403
3 396 395 400
3 398 396 403
3 398 403 406
3 406 403 404
3 406 404 405
3 407 409 408
3 407 410 409
3 411 413 412
3 411 414 413
3 414 415 413
3 414 416 415
3 412 413 417
3 412 417 418
3 412 418 419
3 412 419 420
3 421 420 419
3 421 419 422
3 411 412 423
3 411 423 424
3 425 411 424
3 425 424 426
3 427 425 426
3 427 416 425
3 427 415 416
3 427 428 415
3 429 428 427
3 429 427 421
3 429 421 422
3 427 426 430
3 421 427 430
3 420 421 431
3 421 430 431
3 420 431 432
3 412 432 423
3 412 420 432
3 425 416 433
3 425 433 434
3 434 433 435
3 416 435 433
3 434 435 436
3 416 414 435
3 414 436 435
3 414 411 436
3 411 434 436
3 411 425 434
3 437 439 438
3 437 440 439
3 437 438 441
3 437 441 442
3 443 445 444
3 443 446 445
3 444 445 447
3 444 447 448
3 449 439 440
3 449 450 439
3 451 453 452
3 451 452 454
3 451 454 455
3 453 451 456
3 453 456 457
3 451 458 456
3 451 455 458
3 452 453 459
3 452 459 460
3 453 461 459
3 453 462 461
3 454 452 460
3 454 460 463
3 462 454 463
3 454 462 455
3 455 462 464
3 455 464 458
3 462 463 461
3 465 467 466
3 465 468 467
3 469 471 470
3 469 472 471
3 140 147 146
3 140 143 147
3 473 475 474
3 473 476 475
3 474 475 477
3 474 477 478
3 476 479 475
3 475 480 477
3 475 481 480
3 479 481 475
3 479 482 481
3 483 481 482
3 481 483 484
3 483 485 484
3 483 486 485
3 481 484 480
3 484 487 480
3 477 480 487
3 477 487 488
3 477 488 489
3 478 477 489
3 478 489 490
3 483 491 486
3 483 482 491
3 484 492 487
3 484 485 492
3 491 493 486
3 491 494 493
3 495 493 494
3 495 496 493
3 486 496 485
3 486 493 496
3 485 495 492
3 485 496 495
3 497 499 498
3 497 500 499
3 501 499 500
3 501 502 499
3 501 503 502
3 501 504 503
3 504 505 503
3 504 506 505
3 506 507 505
3 506 508 507
3 509 511 510
3 509 512 511
3 512 513 511
3 513 514 511
3 513 515 514
3 516 514 515
3 516 515 517
3 516 517 518
3 517 519 518
3 517 520 519
3 521 519 520
3 521 522 519
3 518 519 522
3 518 522 523
3 510 525 524
3 524 525 526
3 524 526 527
3 525 528 526
3 525 529 528
3 525 530 529
3 511 530 525
3 511 514 530
3 514 531 530
3 531 529 530
3 514 516 531
3 516 523 531
3 516 518 523
3 531 532 529
3 531 523 532
3 523 521 532
3 523 522 521
3 510 511 525
3 533 535 534
3 533 536 535
3 537 535 536
3 537 538 535
3 537 539 538
3 537 540 539
3 540 541 539
3 540 542 541
3 542 543 541
3 542 544 543
3 545 547 546
3 545 548 547
3 547 548 549
3 547 549 550
3 551 547 550
3 549 548 552
