mtllib Chimecho.mtl
v 0 0.961004 -0.00692637
vt 0.942879 0.832701
vn 0 1 0
v 0.0866026 0.926194 -0.0569263
vt 0.977233 0.818892
vn 0.6706879 0.6326429 -0.3872219
v 0 0.926194 -0.106926
vt 0.942879 0.818892
vn 0 0.6326428 -0.7744437
v 0.0866025 0.926194 0.0430736
vn 0.670688 0.632642 0.387223
v -0.0866025 0.926194 -0.0569264
vt 0.908526 0.818892
vn -0.6706879 0.6326429 -0.3872219
v 0 0.926194 0.0930736
vn 0 0.6326428 0.7744437
v -0.0866026 0.926194 0.0430736
vn -0.6706879 0.6326429 0.3872219
v 0.05 0.867858 -0.0935289
vt 0.962713 0.795752
vn 0.373655 -0.664476 -0.647189
v 0.1 0.867858 -0.00692634
vt 0.982547 0.795752
vn 0.7473098 -0.6644758 0
v -0.1 0.867858 -0.00692638
vt 0.903211 0.795752
vn -0.7473098 -0.6644758 0
v -0.05 0.867858 -0.0935289
vt 0.923045 0.795752
vn -0.373655 -0.664477 -0.647188
v 0.05 0.867858 0.0796762
vn 0.373655 -0.664476 0.647189
v -0.05 0.867858 0.0796762
vn -0.373655 -0.664476 0.647189
v 0 0.844652 -0.00692637
vt 0.942879 0.786546
vn 0 -1 0
v 0 0.350189 -0.0165299
vt 0.758896 0.624993
vn 0 0.0251842 -0.9996828
v -0.129318 0.11392 -0.00692637
vt 0.531763 0.210011
vn -0.9894889 -0.144609 0
v -0.119763 0.350189 -0.006926369
vt 0.548546 0.624993
vn -0.9770635 0.2129479 0
v 0 0.11392 -0.0120485
vt 0.758896 0.210011
vn 0 -0.02094059 -0.9997808
v 0 0.447305 -0.00692637
vt 0.758896 0.674312
v 0.129318 0.11392 -0.00692637
vt 0.986029 0.210011
vn 0.9894889 -0.144609 0
v 0.119763 0.350189 -0.006926369
vt 0.969246 0.624993
vn 0.9770635 0.2129479 0
v 0 0.350189 0.00267716
vn 0 0.0251842 0.9996828
v -0.140248 0.0003043546 -0.00692637
vt 0.512565 0.0104576
vn -0.7206843 -0.6932634 0
v 0 0.11392 -0.00180421
vn 0 -0.02094059 0.9997808
v 0 0.0004617106 -0.00692637
vt 0.758896 0.0107339
v 0.140248 0.0003043546 -0.00692637
vt 1.00523 0.0104576
vn 0.7206843 -0.6932634 0
v 0 0.475832 -0.0843995
vt 0.0034103 0.89832
vn 0 -0.9716772 -0.2363121
v 0.114336 0.490114 -0.00692637
vt 0.222995 0.749531
vn 0.3974208 -0.9176365 0
v 0 0.475832 0.0705468
vt 0.0034103 0.600742
vn 0 -0.9716772 0.2363121
v 0.125354 0.523774 -0.132281
vt 0.244157 0.990277
vn 0.5169929 -0.684737 -0.5136669
v -0.114336 0.490114 -0.00692637
vn -0.3974208 -0.9176365 0
v 0 0.532602 -0.191925
vt 0.0034103 1.10483
vn 0 -0.8032998 -0.5955749
v -0.125354 0.523774 -0.132281
vn -0.5169929 -0.684737 -0.5136669
v 0.125354 0.523774 0.118428
vt 0.244157 0.508784
vn 0.415508 -0.7840711 0.46107
v -0.125354 0.523774 0.118428
vn -0.415508 -0.7840711 0.46107
v 0 0.532602 0.178072
vt 0.0034103 0.394236
vn 0 -0.7507717 0.6605617
v 0 0.80081 -0.0843995
vt 0.942938 0.968629
vn 0 0.9543937 -0.2985509
v 0 0.729917 -0.191925
vt 0.942938 0.956468
vn 0 0.5692739 -0.8221479
v -0.125354 0.738745 -0.132281
vt 0.923798 0.957982
vn -0.5492277 0.6228276 -0.5571666
v 0.125354 0.738745 -0.132281
vt 0.962078 0.957982
vn 0.5492277 0.6228276 -0.5571666
v -0.114336 0.786527 -0.00692637
vt 0.92548 0.966178
vn -0.4522899 0.8916809 -0.0184112
v 0.114336 0.786527 -0.00692637
vt 0.960396 0.966178
vn 0.4522899 0.8916809 -0.0184112
v 0 0.80081 0.0705468
vn 0 0.9614786 0.2748799
v -0.202827 0.700386 -0.00692637
vt 0.911968 0.951402
vn -0.9170193 0.3983391 -0.02003891
v 0.202827 0.700386 -0.00692637
vt 0.973907 0.951402
vn 0.9170193 0.3983391 -0.02003891
v -0.116952 0.749807 0.113449
vt 0.92508 0.95988
vn -0.5176501 0.7060891 0.4831941
v 0.116952 0.749807 0.113449
vt 0.960795 0.95988
vn 0.5176501 0.7060891 0.4831941
v 0 0.731433 0.180306
vt 0.942938 0.956728
vn 0 0.694053 0.719924
v 0.0812971 0.677542 0.167937
vt 0.95789 0.954936
vn 0.463374 0.360545 0.809501
v -0.0812971 0.677542 0.167937
vt 0.927985 0.954936
vn -0.463374 0.360545 0.809501
v 0.0646582 0.669173 0.180348
vt 0.954986 0.949993
vn 0.4047661 0.1969831 0.8929513
v -0.0646582 0.669173 0.180348
vt 0.93089 0.949993
vn -0.4047661 0.1969831 0.8929513
v 0.160128 0.658773 0.120228
vt 0.968732 0.948209
vn 0.7564596 0.3249119 0.5676277
v -0.160128 0.658773 0.120228
vt 0.917144 0.948209
vn -0.7564596 0.3249119 0.5676277
v 0 0.662176 0.20463
vt 0.00209299 0.20839
vn 0 0.184844 0.9827679
v 0 0.598556 0.207928
vt 0.00209299 -0.0351952
vn 0 -0.186216 0.9825088
v 0.0743079 0.621144 0.178553
vt 0.373072 0.074241
vn 0.4135038 0.03096879 0.9099756
v -0.0743079 0.621144 0.178553
vn -0.4135038 0.03096879 0.9099756
vt 0.31951 0.267043
vt 0.00209299 0.444494
v 0.0839577 0.577848 0.174211
vt 0.426635 -0.126044
vn 0.4194991 -0.360795 0.8329751
v -0.0839577 0.577848 0.174211
vn -0.4194991 -0.360795 0.8329751
v 0.122043 0.615944 0.151463
vt 0.44639 0.0518768
vn 0.5486659 0.0432191 0.8349239
v -0.122043 0.615944 0.151463
vn -0.5486659 0.043219 0.8349239
vt 0.942938 0.922621
vt 0.923798 0.921107
v -0.0774732 0.624198 -0.209754
vt 0.931108 0.938333
vn -0.4339909 0.08675108 -0.8967308
v 0 0.558546 -0.289256
vt 0.942938 0.927072
v 0.0774732 0.624198 -0.209754
vt 0.954767 0.938333
vn 0.4339917 0.08675105 -0.8967304
vt 0.962078 0.921107
vt 0.92548 0.915334
v -0.202827 0.562133 -0.00692637
vt 0.911968 0.927687
vn -0.8976577 -0.4300339 -0.09634116
v 0.202827 0.562133 -0.00692637
vt 0.973907 0.927687
vn 0.8976577 -0.4300339 -0.09634116
vt 0.960396 0.915334
v 0.184999 0.607108 0.107409
vt 0.971185 0.935402
vn 0.8481369 0.157464 0.5058349
v 0.236082 0.540706 0.100909
vt 0.978985 0.924012
vn 0.7662278 -0.6186419 0.1737159
vn 0.195589 -0.915605 0.351301
vt 0.926824 0.935073
v -0.184999 0.607108 0.107409
vt 0.91469 0.935402
vn -0.8481369 0.157464 0.5058349
v -0.236082 0.540706 0.100909
vt 0.906891 0.924012
vn -0.7662283 -0.6186413 0.1737161
vn -0.195589 -0.915605 0.351301
vt 0.959052 0.935073
vt 0.942938 0.937101
vt 0.869514 0.950585
vt 0.768382 0.966479
vt 0.804295 0.978158
o merged_0_0_node
g polygon_0
usemtl mat_body_mat_id
f 1/1/1 2/2/2 3/3/3
f 1/1/1 4/2/4 2/2/2
f 1/1/1 3/3/3 5/4/5
f 1/1/1 6/3/6 4/2/4
f 1/1/1 5/4/5 7/4/7
f 1/1/1 7/4/7 6/3/6
f 2/2/2 8/5/8 3/3/3
f 2/2/2 4/2/4 9/6/9
f 2/2/2 9/6/9 8/5/8
f 5/4/5 10/7/10 7/4/7
f 5/4/5 3/3/3 11/8/11
f 5/4/5 11/8/11 10/7/10
f 3/3/3 8/5/8 11/8/11
f 6/3/6 12/5/12 4/2/4
f 6/3/6 7/4/7 13/8/13
f 6/3/6 13/8/13 12/5/12
f 7/4/7 10/7/10 13/8/13
f 4/2/4 12/5/12 9/6/9
f 8/5/8 14/9/14 11/8/11
f 8/5/8 9/6/9 14/9/14
f 14/9/14 10/7/10 11/8/11
f 14/9/14 13/8/13 10/7/10
f 14/9/14 12/5/12 13/8/13
f 14/9/14 9/6/9 12/5/12
f 15/10/15 16/11/16 17/12/17
f 15/10/15 18/13/18 16/11/16
f 15/10/15 17/12/17 19/14/1
f 15/10/15 20/15/19 18/13/18
f 15/10/15 19/14/1 21/16/20
f 15/10/15 21/16/20 20/15/19
f 16/11/16 22/10/21 17/12/17
f 16/11/16 18/13/18 23/17/22
f 16/11/16 24/13/23 22/10/21
f 16/11/16 23/17/22 24/13/23
f 22/10/21 19/14/1 17/12/17
f 22/10/21 20/15/19 21/16/20
f 22/10/21 24/13/23 20/15/19
f 22/10/21 21/16/20 19/14/1
f 18/13/18 25/18/14 23/17/22
f 18/13/18 20/15/19 26/19/24
f 18/13/18 26/19/24 25/18/14
f 24/13/23 23/17/22 25/18/14
f 24/13/23 26/19/24 20/15/19
f 24/13/23 25/18/14 26/19/24
f 27/20/25 28/21/26 29/22/27
f 27/20/25 30/23/28 28/21/26
f 27/20/25 29/22/27 31/21/29
f 27/20/25 32/24/30 30/23/28
f 27/20/25 31/21/29 33/23/31
f 27/20/25 33/23/31 32/24/30
f 28/21/26 34/25/32 29/22/27
f 31/21/29 29/22/27 35/25/33
f 34/25/32 36/26/34 29/22/27
f 29/22/27 36/26/34 35/25/33
f 37/27/35 38/28/36 39/29/37
f 37/27/35 40/30/38 38/28/36
f 37/27/35 39/29/37 41/31/39
f 37/27/35 42/32/40 40/30/38
f 37/27/35 41/31/39 43/27/41
f 37/27/35 43/27/41 42/32/40
f 39/29/37 44/33/42 41/31/39
f 40/30/38 42/32/40 45/34/43
f 43/27/41 41/31/39 46/35/44
f 43/27/41 47/36/45 42/32/40
f 43/27/41 46/35/44 48/37/46
f 43/27/41 48/37/46 47/36/45
f 42/32/40 47/36/45 45/34/43
f 41/31/39 44/33/42 46/35/44
f 48/37/46 49/38/47 47/36/45
f 48/37/46 46/35/44 50/39/48
f 48/37/46 51/40/49 49/38/47
f 48/37/46 50/39/48 52/41/50
f 45/34/43 47/36/45 53/42/51
f 44/33/42 54/43/52 46/35/44
f 55/44/53 56/45/54 57/46/55
f 55/44/53 58/46/56 56/45/54
f 55/44/53 57/46/55 51/47/49
f 55/44/53 52/47/50 58/46/56
f 55/44/53 51/47/49 48/48/46
f 55/44/53 48/48/46 52/47/50
f 56/45/54 59/49/57 57/46/55
f 56/45/54 58/46/56 60/49/58
f 59/49/57 61/50/59 57/46/55
f 58/46/56 62/50/60 60/49/58
f 32/51/30 33/52/31 63/53/61
f 32/51/30 63/53/61 64/54/18
f 32/51/30 64/54/18 65/55/62
f 32/51/30 65/55/62 30/56/28
f 65/55/62 64/54/18 63/53/61
f 33/52/31 31/57/29 66/58/63
f 30/56/28 67/59/64 28/60/26
f 31/57/29 35/52/33 66/58/63
f 67/59/64 34/56/32 28/60/26
f 67/59/64 68/61/65 69/62/66
f 67/59/64 69/62/66 34/56/67
f 34/56/67 69/62/66 68/61/65
f 35/52/33 36/51/34 60/63/58
f 35/52/33 60/63/58 70/64/68
f 66/58/63 71/65/69 70/64/68
f 66/58/63 35/52/70 71/65/69
f 71/65/69 35/52/70 70/64/68
f 34/56/32 68/61/65 59/66/57
f 34/56/32 59/66/57 36/51/34
f 60/63/58 36/51/34 56/67/54
f 56/67/54 36/51/34 59/66/57
f 54/68/52 50/69/48 46/70/44
f 47/70/45 49/69/47 53/68/51
vt -0.304808 0.962524
v 0.184999 0.624198 -0.121262
vt -0.389289 0.193712
vn 0.8514801 -0.006228901 -0.52435
vt -0.140739 0.193712
vt 1.06691 -0.105961
vt 0.932301 0.291323
vt 0.794899 0.0790098
vt 0.818232 0.58011
vt 0.304881 -0.480311
v -0.184999 0.624198 -0.121262
vt 0.389362 0.193712
vn -0.8514801 -0.00622889 -0.52435
vt 0.140812 0.193712
vt -0.596093 -0.222857
vt -0.304808 -0.480311
vt -0.596093 0.705069
vt -0.818159 0.58011
vt -0.932228 0.291323
vt -0.794826 0.0790098
vt -1.06683 -0.105961
vt 3.66569E-05 0.903277
vt 0.304881 0.962524
vt 0.596166 0.705069
vt 0.596166 -0.222857
o merged_1_0_node
g polygon_0
usemtl mat_head_mat_id
f 40/71/38 72/72/71 65/73/62
f 60/74/58 62/75/60 70/76/68
f 70/76/68 62/75/60 54/77/52
f 33/78/31 73/79/72 63/80/61
f 67/81/64 30/82/28 72/72/71
f 72/72/71 30/82/28 65/73/62
f 45/83/43 72/72/71 40/71/38
f 67/81/64 72/72/71 45/83/43
f 53/84/51 61/85/59 68/86/65
f 68/86/65 61/85/59 59/87/57
f 45/83/43 68/86/65 67/81/64
f 45/83/43 53/84/51 68/86/65
f 65/73/62 63/80/61 38/88/36
f 38/88/36 63/80/61 39/89/37
f 65/73/62 38/88/36 40/71/38
f 70/76/68 54/77/52 44/90/42
f 66/91/63 70/76/68 44/90/42
f 44/90/42 39/89/37 73/79/72
f 73/79/72 39/89/37 63/80/61
f 66/91/63 73/79/72 33/78/31
f 44/90/42 73/79/72 66/91/63
vt 1.5312 0.912793
vt 0.823561 0.760851
vt 0.0172631 0.949398
vt 0.115752 0.779154
vt 0.364779 0.985511
o merged_2_0_node
g polygon_0
usemtl TEX_ANIM_EYE_mat_id
f 54/92/52 62/93/60 52/94/50
f 58/95/56 52/94/50 62/93/60
f 52/94/50 50/96/48 54/92/52
f 53/92/51 51/94/49 61/93/59
f 51/94/49 57/95/55 61/93/59
f 53/92/51 49/96/47 51/94/49
