ply
format ascii 1.0
element vertex 792
property float x
property float y
property float z
property uchar red
property uchar green
property uchar blue
element face 1009
property list uchar int vertex_index
end_header
-0.09232 1.31404 0.04055 242 223 223
-0.09232 1.31404 0.83784 242 223 223
-0.14287 1.36575 0.83784 242 223 223
-0.14287 1.36575 0.04055 242 223 223
-0.09232 0.64182 0.04055 242 223 223
-0.09232 0.64182 0.83784 242 223 223
-0.14287 0.59011 0.04055 242 223 223
-0.14287 0.59011 0.83784 242 223 223
-0.8174 0.59011 0.83784 242 223 223
-0.8174 0.59011 0.04055 242 223 223
-0.86795 0.64182 0.83784 242 223 223
-0.86795 0.64182 0.04055 242 223 223
-0.86795 1.31404 0.04055 242 223 223
-0.86795 1.31404 0.83784 242 223 223
-0.8174 1.36575 0.83784 242 223 223
-0.8174 1.36575 0.04055 242 223 223
-0.1766 0.62889 0.87705 242 223 223
-0.78367 0.62889 0.87705 242 223 223
-0.1311 0.67543 0.87705 242 223 223
-0.1311 1.28043 0.87705 242 223 223
-0.1766 1.32696 0.87705 242 223 223
-0.78367 1.32696 0.87705 242 223 223
-0.82917 1.28043 0.87705 242 223 223
-0.82917 0.67543 0.87705 242 223 223
-0.73926 1.36575 0.61567 242 223 223
-0.73926 1.36575 0.47123 242 223 223
-0.73024 1.36575 0.62948 242 223 223
-0.23295 1.36575 0.62948 242 223 223
-0.22101 1.36575 0.61567 242 223 223
-0.22101 1.36575 0.47123 242 223 223
-0.51647 1.36575 0.48565 242 223 223
-0.44381 1.36575 0.48565 242 223 223
-0.43428 1.36575 0.47123 242 223 223
-0.41057 1.36575 0.37862 242 223 223
-0.52599 1.36575 0.47123 242 223 223
-0.5497 1.36575 0.37862 242 223 223
-0.39027 1.36575 0.28857 242 223 223
-0.57 1.36575 0.28857 242 223 223
-0.1766 1.32696 0.00186 242 223 223
-0.78367 1.32696 0.00186 242 223 223
-0.1311 1.28043 0.00186 242 223 223
-0.82917 1.28043 0.00186 242 223 223
-0.1311 0.67543 0.00186 242 223 223
-0.1766 0.62889 0.00186 242 223 223
-0.78367 0.62889 0.00186 242 223 223
-0.82917 0.67543 0.00186 242 223 223
-0.44381 1.36575 0.48565 224 207 207
-0.43428 1.36575 0.47123 224 207 207
-0.22101 1.36575 0.61567 224 207 207
-0.23295 1.36575 0.62948 224 207 207
-0.22101 1.34118 0.61567 224 207 207
-0.43428 1.34118 0.47123 224 207 207
-0.22101 1.34118 0.47123 224 207 207
-0.22101 1.36575 0.47123 224 207 207
-0.43428 1.34118 0.47123 239 238 243
-0.22101 1.34118 0.47123 239 238 243
-0.22101 1.34118 0.61567 239 238 243
-0.73926 1.34118 0.47123 239 238 243
-0.52599 1.34118 0.47123 239 238 243
-0.73926 1.34118 0.61567 239 238 243
-0.73926 1.36575 0.47123 224 207 207
-0.73926 1.34118 0.47123 224 207 207
-0.73926 1.34118 0.61567 224 207 207
-0.73926 1.36575 0.61567 224 207 207
-0.52599 1.34118 0.47123 224 207 207
-0.52599 1.36575 0.47123 224 207 207
-0.73024 1.36575 0.62948 224 207 207
-0.51647 1.36575 0.48565 224 207 207
-0.74773 0.74601 0.72193 230 197 90
-0.21254 0.74601 0.72193 230 197 90
-0.24742 0.71033 0.72193 230 197 90
-0.71285 0.71033 0.72193 230 197 90
-0.21254 1.20984 0.72193 230 197 90
-0.74773 1.20984 0.72193 230 197 90
-0.24742 1.24552 0.72193 230 197 90
-0.71285 1.24552 0.72193 230 197 90
-0.39027 1.31883 0.28857 166 147 149
-0.41057 1.31883 0.37862 166 147 149
-0.5497 1.31883 0.37862 166 147 149
-0.57 1.31883 0.28857 166 147 149
-0.39027 1.36575 0.28857 166 147 149
-0.57 1.36575 0.28857 166 147 149
-0.5497 1.36575 0.37862 166 147 149
-0.41057 1.36575 0.37862 166 147 149
-0.82917 0.67543 0.87705 243 228 228
-0.74773 0.74601 0.87705 243 228 228
-0.71285 0.71033 0.87705 243 228 228
-0.78367 0.62889 0.87705 243 228 228
-0.24742 0.71033 0.87705 243 228 228
-0.1766 0.62889 0.87705 243 228 228
-0.21254 0.74601 0.87705 243 228 228
-0.1311 0.67543 0.87705 243 228 228
-0.21254 1.20984 0.87705 243 228 228
-0.1311 1.28043 0.87705 243 228 228
-0.24742 1.24552 0.87705 243 228 228
-0.1766 1.32696 0.87705 243 228 228
-0.71285 1.24552 0.87705 243 228 228
-0.78367 1.32696 0.87705 243 228 228
-0.74773 1.20984 0.87705 243 228 228
-0.82917 1.28043 0.87705 243 228 228
-0.74773 0.74601 0.87705 126 119 126
-0.74773 0.74601 0.72193 126 119 126
-0.71285 0.71033 0.72193 126 119 126
-0.71285 0.71033 0.87705 126 119 126
-0.24742 0.71033 0.72193 126 119 126
-0.24742 0.71033 0.87705 126 119 126
-0.21254 0.74601 0.72193 126 119 126
-0.21254 0.74601 0.87705 126 119 126
-0.21254 1.20984 0.72193 126 119 126
-0.21254 1.20984 0.87705 126 119 126
-0.24742 1.24552 0.72193 126 119 126
-0.24742 1.24552 0.87705 126 119 126
-0.71285 1.24552 0.72193 126 119 126
-0.71285 1.24552 0.87705 126 119 126
-0.74773 1.20984 0.72193 126 119 126
-0.74773 1.20984 0.87705 126 119 126
-0.60202 1.35119 0.48864 61 57 57
-0.60202 1.35119 0.52976 61 57 57
-0.62449 1.35119 0.54601 61 57 57
-0.62449 1.35119 0.48864 61 57 57
-0.60202 1.33924 0.48864 61 57 57
-0.62449 1.33924 0.48864 61 57 57
-0.62449 1.33924 0.54601 61 57 57
-0.60202 1.33924 0.52976 61 57 57
-0.35826 1.35119 0.48864 61 57 57
-0.33578 1.35119 0.48864 61 57 57
-0.33578 1.35119 0.54601 61 57 57
-0.35826 1.35119 0.52976 61 57 57
-0.35826 1.33924 0.48864 61 57 57
-0.33578 1.33924 0.48864 61 57 57
-0.33578 1.33924 0.54601 61 57 57
-0.35826 1.33924 0.52976 61 57 57
-0.34275 -0.21798 0.04055 242 223 223
-0.34275 -0.21798 0.83784 242 223 223
-0.2922 -0.26969 0.83784 242 223 223
-0.2922 -0.26969 0.04055 242 223 223
-0.34275 0.45424 0.04055 242 223 223
-0.34275 0.45424 0.83784 242 223 223
-0.2922 0.50595 0.04055 242 223 223
-0.2922 0.50595 0.83784 242 223 223
0.38233 0.50595 0.83784 242 223 223
0.38233 0.50595 0.04055 242 223 223
0.43288 0.45424 0.83784 242 223 223
0.43288 0.45424 0.04055 242 223 223
0.43288 -0.21798 0.04055 242 223 223
0.43288 -0.21798 0.83784 242 223 223
0.38233 -0.26969 0.83784 242 223 223
0.38233 -0.26969 0.04055 242 223 223
-0.25847 0.46717 0.87705 242 223 223
0.3486 0.46717 0.87705 242 223 223
-0.30397 0.42063 0.87705 242 223 223
-0.30397 -0.18437 0.87705 242 223 223
-0.25847 -0.2309 0.87705 242 223 223
0.3486 -0.2309 0.87705 242 223 223
0.3941 -0.18437 0.87705 242 223 223
0.3941 0.42063 0.87705 242 223 223
0.30419 -0.26969 0.61567 242 223 223
0.30419 -0.26969 0.47094 242 223 223
0.29531 -0.26969 0.62922 242 223 223
-0.20633 -0.26969 0.62922 242 223 223
-0.21406 -0.26969 0.61567 242 223 223
-0.21406 -0.26969 0.47123 242 223 223
0.08207 -0.26969 0.48361 242 223 223
0.00786 -0.26969 0.48355 242 223 223
-0.00079 -0.26969 0.47123 242 223 223
0.09092 -0.26969 0.47134 242 223 223
-0.25847 -0.2309 0.00186 242 223 223
0.3486 -0.2309 0.00186 242 223 223
-0.30397 -0.18437 0.00186 242 223 223
0.3941 -0.18437 0.00186 242 223 223
-0.30397 0.42063 0.00186 242 223 223
-0.25847 0.46717 0.00186 242 223 223
0.3486 0.46717 0.00186 242 223 223
0.3941 0.42063 0.00186 242 223 223
0.3941 -0.18437 0.87705 243 228 228
0.3486 -0.2309 0.87705 243 228 228
-0.25847 -0.2309 0.87705 243 228 228
-0.30397 -0.18437 0.87705 243 228 228
0.3941 0.42063 0.87705 243 228 228
-0.30397 0.42063 0.87705 243 228 228
0.3486 0.46717 0.87705 243 228 228
-0.25847 0.46717 0.87705 243 228 228
0.00786 -0.26969 0.48355 224 207 207
-0.00079 -0.26969 0.47123 224 207 207
-0.21406 -0.26969 0.61567 224 207 207
-0.20633 -0.26969 0.62922 224 207 207
-0.21406 -0.24512 0.61567 224 207 207
-0.00079 -0.24512 0.47123 224 207 207
-0.21406 -0.24512 0.47123 224 207 207
-0.21406 -0.26969 0.47123 224 207 207
-0.00079 -0.24512 0.47123 239 238 243
-0.21406 -0.24512 0.47123 239 238 243
-0.21406 -0.24512 0.61567 239 238 243
0.30419 -0.24512 0.47094 239 238 243
0.09092 -0.24512 0.47134 239 238 243
0.30419 -0.24512 0.61567 239 238 243
0.30419 -0.26969 0.47094 224 207 207
0.30419 -0.24512 0.47094 224 207 207
0.30419 -0.24512 0.61567 224 207 207
0.30419 -0.26969 0.61567 224 207 207
0.09092 -0.24512 0.47134 224 207 207
0.09092 -0.26969 0.47134 224 207 207
0.29531 -0.26969 0.62922 224 207 207
0.08207 -0.26969 0.48361 224 207 207
0.16694 -0.25513 0.46008 61 57 57
0.16694 -0.25513 0.51066 61 57 57
0.18942 -0.25513 0.51066 61 57 57
0.18942 -0.25513 0.46008 61 57 57
0.16694 -0.24318 0.46008 61 57 57
0.18942 -0.24318 0.46008 61 57 57
0.18942 -0.24318 0.51066 61 57 57
0.16694 -0.24318 0.51066 61 57 57
-0.07681 -0.25513 0.46008 61 57 57
-0.09929 -0.25513 0.46008 61 57 57
-0.09929 -0.25513 0.51066 61 57 57
-0.07681 -0.25513 0.51066 61 57 57
-0.07681 -0.24318 0.46008 61 57 57
-0.09929 -0.24318 0.46008 61 57 57
-0.09929 -0.24318 0.51066 61 57 57
-0.07681 -0.24318 0.51066 61 57 57
0.2011 -0.26371 0.43047 121 112 112
0.2011 -0.27659 0.43047 121 112 112
0.17921 -0.27659 0.43047 121 112 112
0.17921 -0.26371 0.43047 121 112 112
0.17921 -0.26371 0.38622 121 112 112
0.17921 -0.27659 0.38622 121 112 112
-0.05067 -0.26371 0.38622 121 112 112
-0.05067 -0.27659 0.38622 121 112 112
0.2011 -0.27659 0.36734 121 112 112
0.2011 -0.26371 0.36734 121 112 112
-0.05067 -0.26371 0.40023 121 112 112
-0.05067 -0.27659 0.40023 121 112 112
-0.07257 -0.26371 0.40023 121 112 112
-0.07257 -0.27659 0.40023 121 112 112
-0.07257 -0.27659 0.36734 121 112 112
-0.07257 -0.26371 0.36734 121 112 112
1.25019 0.32882 0.04055 242 223 223
1.25019 0.32882 0.83784 242 223 223
1.3019 0.37938 0.83784 242 223 223
1.3019 0.37938 0.04055 242 223 223
0.57797 0.32882 0.04055 242 223 223
0.57797 0.32882 0.83784 242 223 223
0.52626 0.37938 0.04055 242 223 223
0.52626 0.37938 0.83784 242 223 223
0.52626 1.05391 0.83784 242 223 223
0.52626 1.05391 0.04055 242 223 223
0.57797 1.10446 0.83784 242 223 223
0.57797 1.10446 0.04055 242 223 223
1.25019 1.10446 0.04055 242 223 223
1.25019 1.10446 0.83784 242 223 223
1.3019 1.05391 0.83784 242 223 223
1.3019 1.05391 0.04055 242 223 223
0.56504 0.4131 0.87705 242 223 223
0.56504 1.02018 0.87705 242 223 223
0.61158 0.3676 0.87705 242 223 223
1.21658 0.3676 0.87705 242 223 223
1.26311 0.4131 0.87705 242 223 223
1.26311 1.02018 0.87705 242 223 223
1.21658 1.06568 0.87705 242 223 223
0.61158 1.06568 0.87705 242 223 223
1.3019 0.97547 0.60143 242 223 223
1.3019 0.97576 0.58657 242 223 223
1.3019 0.67079 0.60143 242 223 223
1.3019 0.45781 0.60143 242 223 223
1.3019 0.76249 0.60143 242 223 223
1.3019 0.76249 0.58657 242 223 223
1.3019 0.67079 0.58657 242 223 223
1.3019 0.65846 0.42428 242 223 223
1.3019 0.63372 0.51615 242 223 223
1.3019 0.77482 0.42428 242 223 223
1.3019 0.79956 0.51615 242 223 223
1.3019 0.45752 0.58657 242 223 223
1.3019 0.49742 0.51615 242 223 223
1.26311 0.4131 0.00186 242 223 223
1.26311 1.02018 0.00186 242 223 223
1.21658 0.3676 0.00186 242 223 223
1.21658 1.06568 0.00186 242 223 223
0.61158 0.3676 0.00186 242 223 223
0.56504 0.4131 0.00186 242 223 223
0.56504 1.02018 0.00186 242 223 223
0.61158 1.06568 0.00186 242 223 223
1.3019 0.79818 0.35367 242 223 223
1.3019 0.6351 0.35367 242 223 223
1.3019 0.93586 0.51615 242 223 223
1.21658 1.06568 0.87705 243 228 228
1.26311 1.02018 0.87705 243 228 228
1.26311 0.4131 0.87705 243 228 228
1.21658 0.3676 0.87705 243 228 228
0.61158 1.06568 0.87705 243 228 228
0.61158 0.3676 0.87705 243 228 228
0.56504 1.02018 0.87705 243 228 228
0.56504 0.4131 0.87705 243 228 228
1.27733 0.67079 0.58657 239 238 243
1.27733 0.63372 0.51615 239 238 243
1.27733 0.49742 0.51615 239 238 243
1.27733 0.45752 0.58657 239 238 243
1.27733 0.93586 0.51615 239 238 243
1.27733 0.79956 0.51615 239 238 243
1.27733 0.76249 0.58657 239 238 243
1.27733 0.97576 0.58657 239 238 243
1.3019 0.67079 0.58657 224 207 207
1.27733 0.67079 0.58657 224 207 207
1.27733 0.45752 0.58657 224 207 207
1.3019 0.45752 0.58657 224 207 207
1.3019 0.45781 0.60143 224 207 207
1.3019 0.67079 0.60143 224 207 207
1.27733 0.49742 0.51615 224 207 207
1.3019 0.49742 0.51615 224 207 207
1.27733 0.63372 0.51615 224 207 207
1.3019 0.63372 0.51615 224 207 207
1.3019 0.93586 0.51615 224 207 207
1.27733 0.93586 0.51615 224 207 207
1.27733 0.97576 0.58657 224 207 207
1.3019 0.97576 0.58657 224 207 207
1.27733 0.79956 0.51615 224 207 207
1.3019 0.79956 0.51615 224 207 207
1.3019 0.76249 0.58657 224 207 207
1.27733 0.76249 0.58657 224 207 207
1.3019 0.76249 0.60143 224 207 207
1.3019 0.97547 0.60143 224 207 207
1.25497 0.6351 0.35367 166 147 149
1.25497 0.65846 0.42428 166 147 149
1.25497 0.77482 0.42428 166 147 149
1.25497 0.79818 0.35367 166 147 149
1.3019 0.6351 0.35367 166 147 149
1.3019 0.79818 0.35367 166 147 149
1.3019 0.77482 0.42428 166 147 149
1.3019 0.65846 0.42428 166 147 149
1.28734 0.84117 0.54572 61 57 57
1.28734 0.84117 0.59159 61 57 57
1.28734 0.86364 0.59159 61 57 57
1.28734 0.86364 0.54572 61 57 57
1.27539 0.84117 0.54572 61 57 57
1.27539 0.86364 0.54572 61 57 57
1.27539 0.86364 0.59159 61 57 57
1.27539 0.84117 0.59159 61 57 57
1.28734 0.59211 0.54572 61 57 57
1.28734 0.56964 0.54572 61 57 57
1.28734 0.56964 0.59159 61 57 57
1.28734 0.59211 0.59159 61 57 57
1.27539 0.59211 0.54572 61 57 57
1.27539 0.56964 0.54572 61 57 57
1.27539 0.56964 0.59159 61 57 57
1.27539 0.59211 0.59159 61 57 57
0.4987 -0.74134 0.04055 242 223 223
0.4987 -0.74134 0.83784 242 223 223
0.54926 -0.79305 0.83784 242 223 223
0.54926 -0.79305 0.04055 242 223 223
0.4987 -0.06912 0.04055 242 223 223
0.4987 -0.06912 0.83784 242 223 223
0.54926 -0.01742 0.04055 242 223 223
0.54926 -0.01742 0.83784 242 223 223
1.22379 -0.01742 0.83784 242 223 223
1.22379 -0.01742 0.04055 242 223 223
1.27434 -0.06912 0.83784 242 223 223
1.27434 -0.06912 0.04055 242 223 223
1.27434 -0.74134 0.04055 242 223 223
1.27434 -0.74134 0.83784 242 223 223
1.22379 -0.79305 0.83784 242 223 223
1.22379 -0.79305 0.04055 242 223 223
0.58298 -0.0562 0.87705 242 223 223
1.19006 -0.0562 0.87705 242 223 223
0.53749 -0.10274 0.87705 242 223 223
0.53749 -0.70773 0.87705 242 223 223
0.58298 -0.75427 0.87705 242 223 223
1.19006 -0.75427 0.87705 242 223 223
1.23556 -0.70773 0.87705 242 223 223
1.23556 -0.10274 0.87705 242 223 223
1.14564 -0.79305 0.54903 242 223 223
1.14564 -0.79305 0.4046 242 223 223
1.13476 -0.79305 0.56101 242 223 223
0.63735 -0.79305 0.56101 242 223 223
0.6274 -0.79305 0.54903 242 223 223
0.92218 -0.79305 0.4171 242 223 223
0.85051 -0.79305 0.4171 242 223 223
0.6274 -0.79305 0.4046 242 223 223
0.84067 -0.79305 0.4046 242 223 223
0.93237 -0.79305 0.4046 242 223 223
0.58298 -0.75427 0.00186 242 223 223
1.19006 -0.75427 0.00186 242 223 223
0.53749 -0.70773 0.00186 242 223 223
1.23556 -0.70773 0.00186 242 223 223
0.53749 -0.10274 0.00186 242 223 223
0.58298 -0.0562 0.00186 242 223 223
1.19006 -0.0562 0.00186 242 223 223
1.23556 -0.10274 0.00186 242 223 223
1.23556 -0.70773 0.87705 243 228 228
1.19006 -0.75427 0.87705 243 228 228
0.58298 -0.75427 0.87705 243 228 228
0.53749 -0.70773 0.87705 243 228 228
1.23556 -0.10274 0.87705 243 228 228
0.53749 -0.10274 0.87705 243 228 228
1.19006 -0.0562 0.87705 243 228 228
0.58298 -0.0562 0.87705 243 228 228
0.84067 -0.76849 0.4046 239 238 243
0.6274 -0.76849 0.4046 239 238 243
0.6274 -0.76849 0.54903 239 238 243
1.14564 -0.76849 0.4046 239 238 243
0.93237 -0.76849 0.4046 239 238 243
1.14564 -0.76849 0.54903 239 238 243
0.84067 -0.79305 0.4046 224 207 207
0.84067 -0.76849 0.4046 224 207 207
0.6274 -0.76849 0.54903 224 207 207
0.6274 -0.79305 0.54903 224 207 207
0.6274 -0.76849 0.4046 224 207 207
0.6274 -0.79305 0.4046 224 207 207
0.85051 -0.79305 0.4171 224 207 207
0.63735 -0.79305 0.56101 224 207 207
1.14564 -0.79305 0.4046 224 207 207
1.14564 -0.76849 0.4046 224 207 207
1.14564 -0.76849 0.54903 224 207 207
1.14564 -0.79305 0.54903 224 207 207
0.93237 -0.76849 0.4046 224 207 207
0.93237 -0.79305 0.4046 224 207 207
1.13476 -0.79305 0.56101 224 207 207
0.92218 -0.79305 0.4171 224 207 207
1.0084 -0.7785 0.422 61 57 57
1.0084 -0.7785 0.46312 61 57 57
1.03087 -0.7785 0.47937 61 57 57
1.03087 -0.7785 0.422 61 57 57
1.0084 -0.76654 0.422 61 57 57
1.03087 -0.76654 0.422 61 57 57
1.03087 -0.76654 0.47937 61 57 57
1.0084 -0.76654 0.46312 61 57 57
0.76464 -0.7785 0.422 61 57 57
0.74217 -0.7785 0.422 61 57 57
0.74217 -0.7785 0.47937 61 57 57
0.76464 -0.7785 0.46312 61 57 57
0.76464 -0.76654 0.422 61 57 57
0.74217 -0.76654 0.422 61 57 57
0.74217 -0.76654 0.47937 61 57 57
0.76464 -0.76654 0.46312 61 57 57
0.74444 -0.78708 0.3297 121 112 112
0.74444 -0.79996 0.3297 121 112 112
0.76791 -0.79996 0.3297 121 112 112
0.76791 -0.78708 0.3297 121 112 112
0.76791 -0.78708 0.34943 121 112 112
0.76791 -0.79996 0.34943 121 112 112
1.00514 -0.78708 0.34943 121 112 112
1.00514 -0.79996 0.34943 121 112 112
0.74444 -0.79996 0.36831 121 112 112
0.74444 -0.78708 0.36831 121 112 112
1.00514 -0.78708 0.3297 121 112 112
1.00514 -0.79996 0.3297 121 112 112
1.02861 -0.78708 0.3297 121 112 112
1.02861 -0.79996 0.3297 121 112 112
1.02861 -0.79996 0.36831 121 112 112
1.02861 -0.78708 0.36831 121 112 112
-1.27268 0.40243 0.04055 242 223 223
-1.27268 0.40243 0.83784 242 223 223
-1.32438 0.35188 0.83784 242 223 223
-1.32438 0.35188 0.04055 242 223 223
-0.60046 0.40243 0.04055 242 223 223
-0.60046 0.40243 0.83784 242 223 223
-0.54875 0.35188 0.04055 242 223 223
-0.54875 0.35188 0.83784 242 223 223
-0.54875 -0.32265 0.83784 242 223 223
-0.54875 -0.32265 0.04055 242 223 223
-0.60046 -0.3732 0.83784 242 223 223
-0.60046 -0.3732 0.04055 242 223 223
-1.27268 -0.3732 0.04055 242 223 223
-1.27268 -0.3732 0.83784 242 223 223
-1.32438 -0.32265 0.83784 242 223 223
-1.32438 -0.32265 0.04055 242 223 223
-0.58753 0.31815 0.87705 242 223 223
-0.58753 -0.28892 0.87705 242 223 223
-0.63407 0.36365 0.87705 242 223 223
-1.23907 0.36365 0.87705 242 223 223
-1.2856 0.31815 0.87705 242 223 223
-1.2856 -0.28892 0.87705 242 223 223
-1.23907 -0.33442 0.87705 242 223 223
-0.63407 -0.33442 0.87705 242 223 223
-1.32438 -0.24451 0.61567 242 223 223
-1.32438 -0.24451 0.47123 242 223 223
-1.32438 -0.23664 0.62966 242 223 223
-1.32438 0.26316 0.62966 242 223 223
-1.32438 0.27374 0.61567 242 223 223
-1.32438 -0.01934 0.48405 242 223 223
-1.32438 0.04994 0.48405 242 223 223
-1.32438 0.27374 0.47123 242 223 223
-1.32438 0.06047 0.47123 242 223 223
-1.32438 -0.03124 0.47123 242 223 223
-1.2856 0.31815 0.00186 242 223 223
-1.2856 -0.28892 0.00186 242 223 223
-1.23907 0.36365 0.00186 242 223 223
-1.23907 -0.33442 0.00186 242 223 223
-0.63407 0.36365 0.00186 242 223 223
-0.58753 0.31815 0.00186 242 223 223
-0.58753 -0.28892 0.00186 242 223 223
-0.63407 -0.33442 0.00186 242 223 223
-1.23907 -0.33442 0.87705 243 228 228
-1.2856 -0.28892 0.87705 243 228 228
-1.2856 0.31815 0.87705 243 228 228
-1.23907 0.36365 0.87705 243 228 228
-0.63407 -0.33442 0.87705 243 228 228
-0.63407 0.36365 0.87705 243 228 228
-0.58753 -0.28892 0.87705 243 228 228
-0.58753 0.31815 0.87705 243 228 228
-1.29982 0.06047 0.47123 239 238 243
-1.29982 0.27374 0.47123 239 238 243
-1.29982 0.27374 0.61567 239 238 243
-1.29982 -0.24451 0.47123 239 238 243
-1.29982 -0.03124 0.47123 239 238 243
-1.29982 -0.24451 0.61567 239 238 243
-1.32438 0.06047 0.47123 224 207 207
-1.29982 0.06047 0.47123 224 207 207
-1.29982 0.27374 0.61567 224 207 207
-1.32438 0.27374 0.61567 224 207 207
-1.29982 0.27374 0.47123 224 207 207
-1.32438 0.27374 0.47123 224 207 207
-1.32438 0.04994 0.48405 224 207 207
-1.32438 0.26316 0.62966 224 207 207
-1.32438 -0.24451 0.47123 224 207 207
-1.29982 -0.24451 0.47123 224 207 207
-1.29982 -0.24451 0.61567 224 207 207
-1.32438 -0.24451 0.61567 224 207 207
-1.29982 -0.03124 0.47123 224 207 207
-1.32438 -0.03124 0.47123 224 207 207
-1.32438 -0.23664 0.62966 224 207 207
-1.32438 -0.01934 0.48405 224 207 207
-1.30983 -0.10726 0.48864 61 57 57
-1.30983 -0.10726 0.52976 61 57 57
-1.30983 -0.12974 0.54601 61 57 57
-1.30983 -0.12974 0.48864 61 57 57
-1.29788 -0.10726 0.48864 61 57 57
-1.29788 -0.12974 0.48864 61 57 57
-1.29788 -0.12974 0.54601 61 57 57
-1.29788 -0.10726 0.52976 61 57 57
-1.30983 0.13649 0.48864 61 57 57
-1.30983 0.15897 0.48864 61 57 57
-1.30983 0.15897 0.54601 61 57 57
-1.30983 0.13649 0.52976 61 57 57
-1.29788 0.13649 0.48864 61 57 57
-1.29788 0.15897 0.48864 61 57 57
-1.29788 0.15897 0.54601 61 57 57
-1.29788 0.13649 0.52976 61 57 57
-1.31841 0.10364 0.35498 121 112 112
-1.33129 0.10364 0.35498 121 112 112
-1.33129 0.08175 0.35498 121 112 112
-1.31841 0.08175 0.35498 121 112 112
-1.31841 0.08175 0.37471 121 112 112
-1.33129 0.08175 0.37471 121 112 112
-1.31841 -0.05252 0.37471 121 112 112
-1.33129 -0.05252 0.37471 121 112 112
-1.33129 0.10364 0.39359 121 112 112
-1.31841 0.10364 0.39359 121 112 112
-1.31841 -0.05252 0.35498 121 112 112
-1.33129 -0.05252 0.35498 121 112 112
-1.31841 -0.07441 0.35498 121 112 112
-1.33129 -0.07441 0.35498 121 112 112
-1.33129 -0.07441 0.39359 121 112 112
-1.31841 -0.07441 0.39359 121 112 112
-0.75957 -1.17742 0.04055 242 223 223
-0.75957 -1.17742 0.83784 242 223 223
-0.70902 -1.22913 0.83784 242 223 223
-0.70902 -1.22913 0.04055 242 223 223
-0.75957 -0.5052 0.04055 242 223 223
-0.75957 -0.5052 0.83784 242 223 223
-0.70902 -0.45349 0.04055 242 223 223
-0.70902 -0.45349 0.83784 242 223 223
-0.03449 -0.45349 0.83784 242 223 223
-0.03449 -0.45349 0.04055 242 223 223
0.01606 -0.5052 0.83784 242 223 223
0.01606 -0.5052 0.04055 242 223 223
0.01606 -1.17742 0.04055 242 223 223
0.01606 -1.17742 0.83784 242 223 223
-0.03449 -1.22913 0.83784 242 223 223
-0.03449 -1.22913 0.04055 242 223 223
-0.67529 -0.49228 0.87705 242 223 223
-0.06822 -0.49228 0.87705 242 223 223
-0.72079 -0.53881 0.87705 242 223 223
-0.72079 -1.14381 0.87705 242 223 223
-0.67529 -1.19035 0.87705 242 223 223
-0.06822 -1.19035 0.87705 242 223 223
-0.02272 -1.14381 0.87705 242 223 223
-0.02272 -0.53881 0.87705 242 223 223
-0.11263 -1.22913 0.61567 242 223 223
-0.11263 -1.22913 0.47123 242 223 223
-0.12263 -1.22913 0.62785 242 223 223
-0.62217 -1.22913 0.62755 242 223 223
-0.63088 -1.22913 0.61567 242 223 223
-0.33865 -1.22913 0.48236 242 223 223
-0.40677 -1.22913 0.48236 242 223 223
-0.63088 -1.22913 0.47123 242 223 223
-0.41761 -1.22913 0.47123 242 223 223
-0.44132 -1.22913 0.37862 242 223 223
-0.3259 -1.22913 0.47123 242 223 223
-0.30219 -1.22913 0.37862 242 223 223
-0.46162 -1.22913 0.28857 242 223 223
-0.28189 -1.22913 0.28857 242 223 223
-0.67529 -1.19035 0.00186 242 223 223
-0.06822 -1.19035 0.00186 242 223 223
-0.72079 -1.14381 0.00186 242 223 223
-0.02272 -1.14381 0.00186 242 223 223
-0.72079 -0.53881 0.00186 242 223 223
-0.67529 -0.49228 0.00186 242 223 223
-0.06822 -0.49228 0.00186 242 223 223
-0.02272 -0.53881 0.00186 242 223 223
-0.02272 -1.14381 0.87705 243 228 228
-0.06822 -1.19035 0.87705 243 228 228
-0.67529 -1.19035 0.87705 243 228 228
-0.72079 -1.14381 0.87705 243 228 228
-0.02272 -0.53881 0.87705 243 228 228
-0.72079 -0.53881 0.87705 243 228 228
-0.06822 -0.49228 0.87705 243 228 228
-0.67529 -0.49228 0.87705 243 228 228
-0.41761 -1.20456 0.47123 239 238 243
-0.63088 -1.20456 0.47123 239 238 243
-0.63088 -1.20456 0.61567 239 238 243
-0.11263 -1.20456 0.47123 239 238 243
-0.3259 -1.20456 0.47123 239 238 243
-0.11263 -1.20456 0.61567 239 238 243
-0.41761 -1.22913 0.47123 224 207 207
-0.41761 -1.20456 0.47123 224 207 207
-0.63088 -1.20456 0.61567 224 207 207
-0.63088 -1.22913 0.61567 224 207 207
-0.63088 -1.20456 0.47123 224 207 207
-0.63088 -1.22913 0.47123 224 207 207
-0.40677 -1.22913 0.48236 224 207 207
-0.62217 -1.22913 0.62755 224 207 207
-0.11263 -1.22913 0.47123 224 207 207
-0.11263 -1.20456 0.47123 224 207 207
-0.11263 -1.20456 0.61567 224 207 207
-0.11263 -1.22913 0.61567 224 207 207
-0.3259 -1.20456 0.47123 224 207 207
-0.3259 -1.22913 0.47123 224 207 207
-0.12263 -1.22913 0.62785 224 207 207
-0.33865 -1.22913 0.48236 224 207 207
-0.46162 -1.18221 0.28857 166 147 149
-0.44132 -1.18221 0.37862 166 147 149
-0.30219 -1.18221 0.37862 166 147 149
-0.28189 -1.18221 0.28857 166 147 149
-0.46162 -1.22913 0.28857 166 147 149
-0.28189 -1.22913 0.28857 166 147 149
-0.30219 -1.22913 0.37862 166 147 149
-0.44132 -1.22913 0.37862 166 147 149
-0.24988 -1.21457 0.48864 61 57 57
-0.24988 -1.21457 0.52976 61 57 57
-0.2274 -1.21457 0.54601 61 57 57
-0.2274 -1.21457 0.48864 61 57 57
-0.24988 -1.20262 0.48864 61 57 57
-0.2274 -1.20262 0.48864 61 57 57
-0.2274 -1.20262 0.54601 61 57 57
-0.24988 -1.20262 0.52976 61 57 57
-0.49363 -1.21457 0.48864 61 57 57
-0.51611 -1.21457 0.48864 61 57 57
-0.51611 -1.21457 0.54601 61 57 57
-0.49363 -1.21457 0.52976 61 57 57
-0.49363 -1.20262 0.48864 61 57 57
-0.51611 -1.20262 0.48864 61 57 57
-0.51611 -1.20262 0.54601 61 57 57
-0.49363 -1.20262 0.52976 61 57 57
-0.08227 0.17731 0.85248 191 177 177
-0.08227 0.17731 0.8847 191 177 177
0.02588 0.17731 0.8847 191 177 177
0.02588 0.17731 0.85248 191 177 177
0.02588 -0.0012 0.85248 191 177 177
0.02588 -0.0012 0.8847 191 177 177
0.09441 -0.0012 0.85248 191 177 177
0.09441 -0.0012 0.8847 191 177 177
0.09441 0.24238 0.85248 191 177 177
0.09441 0.24238 0.8847 191 177 177
0.02588 0.24238 0.85248 191 177 177
0.02588 0.24238 0.8847 191 177 177
-0.03976 0.24238 0.8847 191 177 177
0.02588 0.47113 0.8847 191 177 177
-0.03976 0.47113 0.8847 191 177 177
0.02588 0.51448 0.84104 191 177 177
-0.03976 0.51448 0.84104 191 177 177
-0.03976 0.48245 0.85248 191 177 177
0.02588 0.48245 0.85248 191 177 177
-0.03976 0.24238 0.85248 191 177 177
0.02588 0.51448 0.38037 191 177 177
-0.03976 0.51448 0.38037 191 177 177
0.02588 0.48245 0.38037 191 177 177
-0.03976 0.48245 0.38037 191 177 177
-0.14304 0.24238 0.85248 191 177 177
-0.14304 0.24238 0.8847 191 177 177
-0.14304 0.11337 0.8847 191 177 177
-0.08227 0.11337 0.8847 191 177 177
-0.08227 0.11337 0.85248 191 177 177
-0.14304 0.11337 0.85248 191 177 177
1.3088 0.79826 0.58817 191 177 177
1.3088 0.85692 0.69214 191 177 177
1.3088 0.85692 0.58813 191 177 177
1.27572 0.79826 0.58817 191 177 177
1.27572 0.85692 0.58813 191 177 177
1.27572 0.85692 0.69214 191 177 177
1.3088 0.79826 0.74166 191 177 177
1.27572 0.79826 0.74166 191 177 177
1.3088 0.79826 0.84275 191 177 177
1.3088 0.85692 0.84275 191 177 177
1.26572 0.85692 0.88488 191 177 177
1.26572 0.79826 0.88488 191 177 177
1.00796 0.85692 0.88488 191 177 177
0.98018 0.79826 0.88488 191 177 177
1.00796 0.85692 0.85185 191 177 177
1.27601 0.85692 0.85185 191 177 177
1.27601 0.79826 0.85185 191 177 177
1.3088 0.85692 0.74166 191 177 177
1.27572 0.85692 0.74166 191 177 177
1.3088 0.93798 0.74166 191 177 177
1.27572 0.93798 0.74166 191 177 177
1.3088 0.93798 0.58818 191 177 177
1.27572 0.93798 0.58818 191 177 177
0.95146 0.85692 0.88488 191 177 177
0.77624 0.85692 0.88488 191 177 177
0.77624 0.79826 0.88488 191 177 177
0.77624 0.85692 0.85185 191 177 177
0.77624 0.79826 0.85185 191 177 177
0.95146 0.85692 0.85185 191 177 177
0.98018 0.79826 0.85185 191 177 177
0.95146 0.90614 0.88488 191 177 177
0.95146 0.90614 0.85185 191 177 177
1.00796 0.96144 0.88488 191 177 177
1.00796 0.96144 0.85185 191 177 177
0.90591 0.90614 0.88488 191 177 177
0.90591 0.90614 0.85185 191 177 177
0.90591 0.96144 0.88488 191 177 177
0.90591 0.96144 0.85185 191 177 177
1.3088 0.88831 0.69214 191 177 177
1.27572 0.88831 0.69214 191 177 177
1.27572 0.88831 0.58818 191 177 177
1.3088 0.88831 0.58818 191 177 177
1.30899 0.83833 0.0754 191 177 177
1.30899 0.83833 0.26262 191 177 177
1.30899 0.89202 0.22585 191 177 177
1.30899 0.89202 0.0754 191 177 177
1.2877 0.83833 0.0754 191 177 177
1.2877 0.89202 0.0754 191 177 177
1.2877 0.89202 0.22585 191 177 177
1.2877 0.83833 0.26262 191 177 177
1.30899 0.83833 0.51603 191 177 177
1.30899 0.89202 0.51603 191 177 177
1.2877 0.89202 0.51603 191 177 177
1.2877 0.83833 0.51603 191 177 177
1.30899 0.89202 0.27676 191 177 177
1.2877 0.89202 0.27676 191 177 177
1.2877 1.00903 0.22585 191 177 177
1.30899 1.00903 0.22585 191 177 177
1.2877 1.00903 0.27676 191 177 177
1.30899 1.00903 0.27676 191 177 177
0.58448 -0.7979 0.04515 191 177 177
0.58448 -0.7979 0.16575 191 177 177
0.6365 -0.7979 0.13656 191 177 177
0.6365 -0.7979 0.04515 191 177 177
0.58448 -0.78665 0.04515 191 177 177
0.6365 -0.78665 0.04515 191 177 177
0.6365 -0.78665 0.13656 191 177 177
0.58448 -0.78665 0.16575 191 177 177
0.58448 -0.7979 0.33327 191 177 177
0.6365 -0.7979 0.33327 191 177 177
0.6365 -0.78665 0.33327 191 177 177
0.58448 -0.78665 0.33327 191 177 177
0.6365 -0.7979 0.18865 191 177 177
0.6365 -0.78665 0.18865 191 177 177
0.74392 -0.78665 0.13656 191 177 177
0.74392 -0.7979 0.13656 191 177 177
0.69248 -0.7979 0.18865 191 177 177
0.69248 -0.78665 0.18865 191 177 177
0.69248 -0.7979 0.2433 191 177 177
0.69248 -0.78665 0.2433 191 177 177
0.74392 -0.7979 0.2433 191 177 177
0.74392 -0.78665 0.2433 191 177 177
-0.21723 -1.23665 0.56327 191 177 177
-0.21723 -1.23665 0.84275 191 177 177
-0.14405 -1.23665 0.84275 191 177 177
-0.14405 -1.23665 0.61296 191 177 177
-0.14405 -1.19357 0.88488 191 177 177
-0.21723 -1.19357 0.88488 191 177 177
-0.14405 -1.06624 0.88488 191 177 177
-0.21723 -1.06624 0.88488 191 177 177
-0.14405 -1.06618 0.86066 191 177 177
-0.14405 -1.19976 0.86075 191 177 177
-0.14405 -0.69305 0.86066 191 177 177
-0.14405 -0.69305 0.88488 191 177 177
-0.21723 -0.69305 0.88488 191 177 177
-0.21723 -0.69305 0.86071 191 177 177
-0.21723 -1.00192 0.88488 191 177 177
-0.21723 -1.00192 0.86071 191 177 177
-0.21723 -1.19976 0.86075 191 177 177
-0.34158 -1.00192 0.86061 191 177 177
-0.34158 -1.00192 0.88488 191 177 177
-0.41263 -1.06624 0.88488 191 177 177
-0.41263 -1.06624 0.86061 191 177 177
-0.21723 -1.06624 0.86071 191 177 177
-0.34158 -0.85724 0.86061 191 177 177
-0.34158 -0.85724 0.88488 191 177 177
-0.41263 -0.85724 0.86061 191 177 177
-0.41263 -0.85724 0.88488 191 177 177
-0.21723 -1.1995 0.56331 191 177 177
-0.14405 -1.1995 0.61317 191 177 177
3 0 2 1
3 0 3 2
3 4 0 1
3 4 1 5
3 5 6 4
3 5 7 6
3 6 7 8
3 6 8 9
3 9 8 10
3 9 10 11
3 12 11 10
3 12 10 13
3 14 12 13
3 14 15 12
3 8 7 16
3 8 16 17
3 10 8 17
3 7 18 16
3 7 5 18
3 5 19 18
3 5 1 19
3 1 20 19
3 1 2 20
3 2 21 20
3 2 14 21
3 14 22 21
3 14 13 22
3 13 23 22
3 13 10 23
3 10 17 23
3 15 14 24
3 15 24 25
3 26 14 2
3 24 14 26
3 26 2 27
3 27 2 28
3 3 28 2
3 3 29 28
3 30 26 27
3 30 27 31
3 32 30 31
3 29 33 32
3 32 34 30
3 33 34 32
3 34 35 25
3 33 35 34
3 3 33 29
3 3 36 33
3 3 37 36
3 25 35 37
3 3 15 37
3 25 37 15
3 15 3 38
3 15 38 39
3 39 38 40
3 3 40 38
3 39 40 41
3 3 0 40
3 0 42 40
3 41 40 42
3 0 4 42
3 4 43 42
3 4 6 43
3 6 44 43
3 6 9 44
3 9 45 44
3 45 43 44
3 45 42 43
3 41 42 45
3 9 11 45
3 11 41 45
3 11 12 41
3 12 39 41
3 12 15 39
3 46 48 47
3 46 49 48
3 47 48 50
3 47 50 51
3 48 52 50
3 48 53 52
3 54 56 55
3 57 59 58
3 53 51 52
3 53 47 51
3 60 62 61
3 60 63 62
3 63 64 62
3 63 65 64
3 65 63 66
3 65 66 67
3 65 61 64
3 65 60 61
3 68 70 69
3 68 71 70
3 68 69 72
3 68 72 73
3 73 72 74
3 73 74 75
3 76 78 77
3 76 79 78
3 80 79 76
3 80 81 79
3 81 78 79
3 81 82 78
3 82 77 78
3 82 83 77
3 83 76 77
3 83 80 76
3 84 86 85
3 84 87 86
3 87 88 86
3 87 89 88
3 89 90 88
3 89 91 90
3 91 92 90
3 91 93 92
3 93 94 92
3 93 95 94
3 95 96 94
3 95 97 96
3 97 98 96
3 97 99 98
3 99 85 98
3 99 84 85
3 100 102 101
3 100 103 102
3 103 104 102
3 103 105 104
3 105 106 104
3 105 107 106
3 107 108 106
3 107 109 108
3 109 110 108
3 109 111 110
3 111 112 110
3 111 113 112
3 113 114 112
3 113 115 114
3 115 101 114
3 115 100 101
3 116 118 117
3 116 119 118
3 120 119 116
3 120 116 117
3 120 121 119
3 119 122 118
3 119 121 122
3 120 117 123
3 124 126 125
3 124 127 126
3 128 124 125
3 128 127 124
3 128 125 129
3 125 130 129
3 125 126 130
3 128 131 127
3 132 134 133
3 132 135 134
3 136 132 133
3 136 133 137
3 137 138 136
3 137 139 138
3 138 139 140
3 138 140 141
3 141 140 142
3 141 142 143
3 144 143 142
3 144 142 145
3 146 144 145
3 146 147 144
3 140 139 148
3 140 148 149
3 142 140 149
3 139 150 148
3 139 137 150
3 137 151 150
3 137 133 151
3 133 152 151
3 133 134 152
3 134 153 152
3 134 146 153
3 146 154 153
3 146 145 154
3 145 155 154
3 145 142 155
3 142 149 155
3 147 146 156
3 147 156 157
3 158 146 134
3 156 146 158
3 158 134 159
3 159 134 160
3 135 160 134
3 135 161 160
3 162 158 159
3 162 159 163
3 164 162 163
3 135 164 161
3 164 165 162
3 135 165 164
3 165 147 157
3 135 147 165
3 147 135 166
3 147 166 167
3 167 166 168
3 135 168 166
3 167 168 169
3 135 132 168
3 132 170 168
3 169 168 170
3 132 136 170
3 136 171 170
3 136 138 171
3 138 172 171
3 138 141 172
3 141 173 172
3 173 171 172
3 173 170 171
3 169 170 173
3 141 143 173
3 143 169 173
3 143 144 169
3 144 167 169
3 144 147 167
3 174 176 175
3 174 177 176
3 178 177 174
3 178 179 177
3 180 179 178
3 180 181 179
3 182 184 183
3 182 185 184
3 183 184 186
3 183 186 187
3 184 188 186
3 184 189 188
3 190 192 191
3 193 195 194
3 189 187 188
3 189 183 187
3 196 198 197
3 196 199 198
3 199 200 198
3 199 201 200
3 201 199 202
3 201 202 203
3 201 197 200
3 201 196 197
3 204 206 205
3 204 207 206
3 208 207 204
3 208 204 205
3 208 209 207
3 207 210 206
3 207 209 210
3 208 205 211
3 206 211 205
3 206 210 211
3 212 214 213
3 212 215 214
3 216 212 213
3 216 215 212
3 216 213 217
3 213 218 217
3 213 214 218
3 216 219 215
3 214 219 218
3 214 215 219
3 220 222 221
3 220 223 222
3 224 222 223
3 224 225 222
3 225 221 222
3 225 224 226
3 225 226 227
3 225 228 221
3 228 220 221
3 228 229 220
3 227 226 230
3 227 230 231
3 231 230 232
3 231 232 233
3 234 231 233
3 234 227 231
3 228 227 234
3 228 225 227
3 229 228 234
3 229 234 235
3 235 234 233
3 235 233 232
3 236 238 237
3 236 239 238
3 240 236 237
3 240 237 241
3 241 242 240
3 241 243 242
3 242 243 244
3 242 244 245
3 245 244 246
3 245 246 247
3 248 247 246
3 248 246 249
3 250 248 249
3 250 251 248
3 244 243 252
3 244 252 253
3 246 244 253
3 243 254 252
3 243 241 254
3 241 255 254
3 241 237 255
3 237 256 255
3 237 238 256
3 238 257 256
3 238 250 257
3 250 258 257
3 250 249 258
3 249 259 258
3 249 246 259
3 246 253 259
3 251 250 260
3 251 260 261
3 262 250 238
3 263 262 238
3 262 264 250
3 264 260 250
3 265 264 262
3 265 262 266
3 267 265 266
3 268 267 266
3 267 269 265
3 265 269 270
3 239 263 238
3 239 271 263
3 239 272 271
3 251 239 273
3 251 273 274
3 274 273 275
3 239 275 273
3 274 275 276
3 239 236 275
3 236 277 275
3 276 275 277
3 236 240 277
3 240 278 277
3 240 242 278
3 242 279 278
3 242 245 279
3 245 280 279
3 280 278 279
3 280 277 278
3 276 277 280
3 245 247 280
3 247 276 280
3 247 248 276
3 248 274 276
3 248 251 274
3 239 251 281
3 239 281 282
3 239 282 267
3 239 267 272
3 283 281 251
3 283 269 281
3 270 269 283
3 272 267 268
3 251 261 283
3 284 286 285
3 284 287 286
3 288 287 284
3 288 289 287
3 290 289 288
3 290 291 289
3 292 294 293
3 292 295 294
3 296 298 297
3 296 299 298
3 300 302 301
3 300 303 302
3 300 304 303
3 300 305 304
3 303 306 302
3 303 307 306
3 307 308 306
3 307 309 308
3 308 309 300
3 308 300 301
3 310 312 311
3 310 313 312
3 314 310 311
3 314 315 310
3 316 315 314
3 316 314 317
3 313 317 312
3 313 316 317
3 313 318 316
3 313 319 318
3 320 322 321
3 320 323 322
3 324 323 320
3 324 325 323
3 325 322 323
3 325 326 322
3 326 321 322
3 326 327 321
3 327 320 321
3 327 324 320
3 328 330 329
3 328 331 330
3 332 331 328
3 332 328 329
3 332 333 331
3 331 334 330
3 331 333 334
3 332 329 335
3 336 338 337
3 336 339 338
3 340 336 337
3 340 339 336
3 340 337 341
3 337 342 341
3 337 338 342
3 340 343 339
3 344 346 345
3 344 347 346
3 348 344 345
3 348 345 349
3 349 350 348
3 349 351 350
3 350 351 352
3 350 352 353
3 353 352 354
3 353 354 355
3 356 355 354
3 356 354 357
3 358 356 357
3 358 359 356
3 352 351 360
3 352 360 361
3 354 352 361
3 351 362 360
3 351 349 362
3 349 363 362
3 349 345 363
3 345 364 363
3 345 346 364
3 346 365 364
3 346 358 365
3 358 366 365
3 358 357 366
3 357 367 366
3 357 354 367
3 354 361 367
3 359 358 368
3 359 368 369
3 370 358 346
3 368 358 370
3 370 346 371
3 371 346 372
3 373 370 371
3 373 371 374
3 347 372 346
3 347 375 372
3 376 373 374
3 347 376 375
3 376 377 373
3 347 377 376
3 377 359 369
3 347 359 377
3 359 347 378
3 359 378 379
3 379 378 380
3 347 380 378
3 379 380 381
3 347 344 380
3 344 382 380
3 381 380 382
3 344 348 382
3 348 383 382
3 348 350 383
3 350 384 383
3 350 353 384
3 353 385 384
3 385 383 384
3 385 382 383
3 381 382 385
3 353 355 385
3 355 381 385
3 355 356 381
3 356 379 381
3 356 359 379
3 386 388 387
3 386 389 388
3 390 389 386
3 390 391 389
3 392 391 390
3 392 393 391
3 394 396 395
3 397 399 398
3 400 402 401
3 400 403 402
3 403 404 402
3 403 405 404
3 406 403 400
3 406 407 403
3 405 401 404
3 405 400 401
3 408 410 409
3 408 411 410
3 411 412 410
3 411 413 412
3 413 411 414
3 413 414 415
3 413 409 412
3 413 408 409
3 416 418 417
3 416 419 418
3 420 419 416
3 420 416 417
3 420 421 419
3 419 422 418
3 419 421 422
3 420 417 423
3 424 426 425
3 424 427 426
3 428 424 425
3 428 427 424
3 428 425 429
3 425 430 429
3 425 426 430
3 428 431 427
3 432 434 433
3 432 435 434
3 436 434 435
3 436 437 434
3 437 433 434
3 437 436 438
3 437 438 439
3 437 440 433
3 440 432 433
3 440 441 432
3 439 438 442
3 439 442 443
3 443 442 444
3 443 444 445
3 446 443 445
3 446 439 443
3 440 439 446
3 440 437 439
3 441 440 446
3 441 446 447
3 447 446 445
3 447 445 444
3 448 450 449
3 448 451 450
3 452 448 449
3 452 449 453
3 453 454 452
3 453 455 454
3 454 455 456
3 454 456 457
3 457 456 458
3 457 458 459
3 460 459 458
3 460 458 461
3 462 460 461
3 462 463 460
3 456 455 464
3 456 464 465
3 458 456 465
3 455 466 464
3 455 453 466
3 453 467 466
3 453 449 467
3 449 468 467
3 449 450 468
3 450 469 468
3 450 462 469
3 462 470 469
3 462 461 470
3 461 471 470
3 461 458 471
3 458 465 471
3 463 462 472
3 463 472 473
3 474 462 450
3 472 462 474
3 474 450 475
3 475 450 476
3 477 474 475
3 477 475 478
3 451 476 450
3 451 479 476
3 480 477 478
3 451 480 479
3 480 481 477
3 451 481 480
3 481 463 473
3 451 463 481
3 463 451 482
3 463 482 483
3 483 482 484
3 451 484 482
3 483 484 485
3 451 448 484
3 448 486 484
3 485 484 486
3 448 452 486
3 452 487 486
3 452 454 487
3 454 488 487
3 454 457 488
3 457 489 488
3 489 487 488
3 489 486 487
3 485 486 489
3 457 459 489
3 459 485 489
3 459 460 485
3 460 483 485
3 460 463 483
3 490 492 491
3 490 493 492
3 494 493 490
3 494 495 493
3 496 495 494
3 496 497 495
3 498 500 499
3 501 503 502
3 504 506 505
3 504 507 506
3 507 508 506
3 507 509 508
3 510 507 504
3 510 511 507
3 509 505 508
3 509 504 505
3 512 514 513
3 512 515 514
3 515 516 514
3 515 517 516
3 517 515 518
3 517 518 519
3 517 513 516
3 517 512 513
3 520 522 521
3 520 523 522
3 524 523 520
3 524 520 521
3 524 525 523
3 523 526 522
3 523 525 526
3 524 521 527
3 528 530 529
3 528 531 530
3 532 528 529
3 532 531 528
3 532 529 533
3 529 534 533
3 529 530 534
3 532 535 531
3 536 538 537
3 536 539 538
3 540 538 539
3 540 541 538
3 541 537 538
3 541 540 542
3 541 542 543
3 541 544 537
3 544 536 537
3 544 545 536
3 543 542 546
3 543 546 547
3 547 546 548
3 547 548 549
3 550 547 549
3 550 543 547
3 544 543 550
3 544 541 543
3 545 544 550
3 545 550 551
3 551 550 549
3 551 549 548
3 552 554 553
3 552 555 554
3 556 552 553
3 556 553 557
3 557 558 556
3 557 559 558
3 558 559 560
3 558 560 561
3 561 560 562
3 561 562 563
3 564 563 562
3 564 562 565
3 566 564 565
3 566 567 564
3 560 559 568
3 560 568 569
3 562 560 569
3 559 570 568
3 559 557 570
3 557 571 570
3 557 553 571
3 553 572 571
3 553 554 572
3 554 573 572
3 554 566 573
3 566 574 573
3 566 565 574
3 565 575 574
3 565 562 575
3 562 569 575
3 567 566 576
3 567 576 577
3 578 566 554
3 576 566 578
3 578 554 579
3 579 554 580
3 581 578 579
3 581 579 582
3 555 580 554
3 555 583 580
3 584 581 582
3 583 585 584
3 584 586 581
3 585 586 584
3 586 587 577
3 585 587 586
3 555 585 583
3 555 588 585
3 555 589 588
3 577 587 589
3 555 567 589
3 577 589 567
3 567 555 590
3 567 590 591
3 591 590 592
3 555 592 590
3 591 592 593
3 555 552 592
3 552 594 592
3 593 592 594
3 552 556 594
3 556 595 594
3 556 558 595
3 558 596 595
3 558 561 596
3 561 597 596
3 597 595 596
3 597 594 595
3 593 594 597
3 561 563 597
3 563 593 597
3 563 564 593
3 564 591 593
3 564 567 591
3 598 600 599
3 598 601 600
3 602 601 598
3 602 603 601
3 604 603 602
3 604 605 603
3 606 608 607
3 609 611 610
3 612 614 613
3 612 615 614
3 615 616 614
3 615 617 616
3 618 615 612
3 618 619 615
3 617 613 616
3 617 612 613
3 620 622 621
3 620 623 622
3 623 624 622
3 623 625 624
3 625 623 626
3 625 626 627
3 625 621 624
3 625 620 621
3 628 630 629
3 628 631 630
3 632 631 628
3 632 633 631
3 633 630 631
3 633 634 630
3 634 629 630
3 634 635 629
3 635 628 629
3 635 632 628
3 636 638 637
3 636 639 638
3 640 639 636
3 640 636 637
3 640 641 639
3 639 642 638
3 639 641 642
3 640 637 643
3 644 646 645
3 644 647 646
3 648 644 645
3 648 647 644
3 648 645 649
3 645 650 649
3 645 646 650
3 648 651 647
3 652 654 653
3 652 655 654
3 654 655 656
3 654 656 657
3 657 656 658
3 657 658 659
3 660 659 658
3 660 661 659
3 661 657 659
3 661 654 657
3 662 661 660
3 662 663 661
3 663 654 661
3 664 654 663
3 653 654 664
3 664 663 665
3 664 665 666
3 667 666 665
3 667 668 666
3 668 669 666
3 665 670 667
3 663 670 665
3 663 662 670
3 666 671 664
3 666 669 671
3 668 667 672
3 668 672 673
3 669 668 673
3 667 674 672
3 667 670 674
3 669 673 675
3 664 671 676
3 664 676 677
3 653 664 677
3 653 677 678
3 653 678 679
3 680 679 678
3 680 678 681
3 677 681 678
3 677 676 681
3 652 679 680
3 652 653 679
3 673 674 675
3 673 672 674
3 682 684 683
3 685 684 682
3 685 686 684
3 684 687 683
3 684 686 687
3 688 685 682
3 688 689 685
3 690 689 688
3 688 691 690
3 690 691 692
3 690 692 693
3 693 692 694
3 693 694 695
3 692 696 694
3 692 697 696
3 691 697 692
3 698 690 693
3 698 693 695
3 689 690 698
3 688 699 691
3 699 700 691
3 700 697 691
3 700 699 701
3 700 701 702
3 703 702 701
3 703 704 702
3 695 694 705
3 695 705 706
3 695 706 707
3 707 706 708
3 705 708 706
3 707 708 709
3 705 710 708
3 711 707 709
3 711 695 707
3 698 695 711
3 710 705 712
3 710 712 713
3 705 714 712
3 705 694 714
3 694 715 714
3 694 696 715
3 713 712 716
3 713 716 717
3 717 716 718
3 712 718 716
3 712 714 718
3 717 718 719
3 714 719 718
3 714 715 719
3 682 699 688
3 682 683 699
3 699 683 720
3 683 721 720
3 683 687 721
3 699 720 701
3 701 720 703
3 720 721 722
3 720 722 723
3 703 720 723
3 723 704 703
3 723 722 704
3 724 726 725
3 724 727 726
3 728 727 724
3 728 724 725
3 728 729 727
3 727 730 726
3 727 729 730
3 728 725 731
3 731 725 732
3 725 733 732
3 732 733 734
3 732 734 735
3 731 732 735
3 725 736 733
3 736 734 733
3 736 737 734
3 725 726 736
3 726 730 738
3 726 738 739
3 736 726 739
3 739 738 740
3 739 740 741
3 736 739 741
3 737 736 741
3 737 741 740
3 742 744 743
3 742 745 744
3 746 745 742
3 746 742 743
3 746 747 745
3 745 748 744
3 745 747 748
3 746 743 749
3 749 743 750
3 743 751 750
3 750 751 752
3 750 752 753
3 749 750 753
3 743 754 751
3 754 752 751
3 754 755 752
3 743 744 754
3 744 748 756
3 744 756 757
3 754 744 757
3 755 754 758
3 755 758 759
3 754 757 758
3 759 758 760
3 759 760 761
3 761 760 762
3 758 762 760
3 758 757 762
3 761 762 763
3 757 756 763
3 757 763 762
3 764 766 765
3 764 767 766
3 765 766 768
3 765 768 769
3 769 768 770
3 769 770 771
3 772 770 768
3 772 768 773
3 773 768 766
3 770 772 774
3 770 774 775
3 776 775 774
3 776 774 777
3 777 778 776
3 778 775 776
3 778 770 775
3 771 770 778
3 777 779 778
3 769 780 765
3 778 779 781
3 778 781 782
3 771 778 782
3 771 782 783
3 784 771 783
3 784 785 771
3 782 781 786
3 782 786 787
3 783 782 787
3 787 786 788
3 783 788 784
3 787 788 789
3 783 789 788
3 783 787 789
3 785 780 769
3 785 769 771
3 765 780 790
3 765 790 764
3 791 764 790
3 791 767 764
3 766 767 791
3 766 791 773
