ply
format ascii 1.0
element vertex 782
property float x
property float y
property float z
property uchar red
property uchar green
property uchar blue
element face 1009
property list uchar int vertex_index
end_header
-0.09232 1.31404 0.04055 242 221 122
-0.09232 1.31404 0.83784 242 221 122
-0.14287 1.36575 0.83784 242 221 122
-0.14287 1.36575 0.04055 242 221 122
-0.09232 0.64182 0.04055 242 221 122
-0.09232 0.64182 0.83784 242 221 122
-0.14287 0.59011 0.04055 242 221 122
-0.14287 0.59011 0.83784 242 221 122
-0.8174 0.59011 0.83784 242 221 122
-0.8174 0.59011 0.04055 242 221 122
-0.86795 0.64182 0.83784 242 221 122
-0.86795 0.64182 0.04055 242 221 122
-0.86795 1.31404 0.04055 242 221 122
-0.86795 1.31404 0.83784 242 221 122
-0.8174 1.36575 0.83784 242 221 122
-0.8174 1.36575 0.04055 242 221 122
-0.1766 0.62889 0.87705 242 221 122
-0.78367 0.62889 0.87705 242 221 122
-0.1311 0.67543 0.87705 242 221 122
-0.1311 1.28043 0.87705 242 221 122
-0.1766 1.32696 0.87705 242 221 122
-0.78367 1.32696 0.87705 242 221 122
-0.82917 1.28043 0.87705 242 221 122
-0.82917 0.67543 0.87705 242 221 122
-0.73926 1.36575 0.61567 242 221 122
-0.73926 1.36575 0.47123 242 221 122
-0.73024 1.36575 0.62948 242 221 122
-0.23295 1.36575 0.62948 242 221 122
-0.22101 1.36575 0.61567 242 221 122
-0.22101 1.36575 0.47123 242 221 122
-0.51647 1.36575 0.48565 242 221 122
-0.44381 1.36575 0.48565 242 221 122
-0.43428 1.36575 0.47123 242 221 122
-0.41057 1.36575 0.37862 242 221 122
-0.52599 1.36575 0.47123 242 221 122
-0.5497 1.36575 0.37862 242 221 122
-0.39027 1.36575 0.28857 242 221 122
-0.57 1.36575 0.28857 242 221 122
-0.1766 1.32696 0.00186 242 221 122
-0.78367 1.32696 0.00186 242 221 122
-0.1311 1.28043 0.00186 242 221 122
-0.82917 1.28043 0.00186 242 221 122
-0.1311 0.67543 0.00186 242 221 122
-0.1766 0.62889 0.00186 242 221 122
-0.78367 0.62889 0.00186 242 221 122
-0.82917 0.67543 0.00186 242 221 122
-0.44381 1.36575 0.48565 230 207 95
-0.43428 1.36575 0.47123 230 207 95
-0.22101 1.36575 0.61567 230 207 95
-0.23295 1.36575 0.62948 230 207 95
-0.22101 1.34118 0.61567 230 207 95
-0.43428 1.34118 0.47123 230 207 95
-0.22101 1.34118 0.47123 230 207 95
-0.22101 1.36575 0.47123 230 207 95
-0.43428 1.34118 0.47123 255 255 255
-0.22101 1.34118 0.47123 255 255 255
-0.22101 1.34118 0.61567 255 255 255
-0.73926 1.34118 0.47123 255 255 255
-0.52599 1.34118 0.47123 255 255 255
-0.73926 1.34118 0.61567 255 255 255
-0.73926 1.36575 0.47123 230 207 95
-0.73926 1.34118 0.47123 230 207 95
-0.73926 1.34118 0.61567 230 207 95
-0.73926 1.36575 0.61567 230 207 95
-0.52599 1.34118 0.47123 230 207 95
-0.52599 1.36575 0.47123 230 207 95
-0.73024 1.36575 0.62948 230 207 95
-0.51647 1.36575 0.48565 230 207 95
-0.74773 0.74601 0.72193 247 191 73
-0.21254 0.74601 0.72193 247 191 73
-0.24742 0.71033 0.72193 247 191 73
-0.71285 0.71033 0.72193 247 191 73
-0.21254 1.20984 0.72193 247 191 73
-0.74773 1.20984 0.72193 247 191 73
-0.24742 1.24552 0.72193 247 191 73
-0.71285 1.24552 0.72193 247 191 73
-0.39027 1.31883 0.28857 187 146 125
-0.41057 1.31883 0.37862 187 146 125
-0.5497 1.31883 0.37862 187 146 125
-0.57 1.31883 0.28857 187 146 125
-0.39027 1.36575 0.28857 187 146 125
-0.57 1.36575 0.28857 187 146 125
-0.5497 1.36575 0.37862 187 146 125
-0.41057 1.36575 0.37862 187 146 125
-0.82917 0.67543 0.87705 247 232 137
-0.74773 0.74601 0.87705 247 232 137
-0.71285 0.71033 0.87705 247 232 137
-0.78367 0.62889 0.87705 247 232 137
-0.24742 0.71033 0.87705 247 232 137
-0.1766 0.62889 0.87705 247 232 137
-0.21254 0.74601 0.87705 247 232 137
-0.1311 0.67543 0.87705 247 232 137
-0.21254 1.20984 0.87705 247 232 137
-0.1311 1.28043 0.87705 247 232 137
-0.24742 1.24552 0.87705 247 232 137
-0.1766 1.32696 0.87705 247 232 137
-0.71285 1.24552 0.87705 247 232 137
-0.78367 1.32696 0.87705 247 232 137
-0.74773 1.20984 0.87705 247 232 137
-0.82917 1.28043 0.87705 247 232 137
-0.74773 0.74601 0.87705 150 143 94
-0.74773 0.74601 0.72193 150 143 94
-0.71285 0.71033 0.72193 150 143 94
-0.71285 0.71033 0.87705 150 143 94
-0.24742 0.71033 0.72193 150 143 94
-0.24742 0.71033 0.87705 150 143 94
-0.21254 0.74601 0.72193 150 143 94
-0.21254 0.74601 0.87705 150 143 94
-0.21254 1.20984 0.72193 150 143 94
-0.21254 1.20984 0.87705 150 143 94
-0.24742 1.24552 0.72193 150 143 94
-0.24742 1.24552 0.87705 150 143 94
-0.71285 1.24552 0.72193 150 143 94
-0.71285 1.24552 0.87705 150 143 94
-0.74773 1.20984 0.72193 150 143 94
-0.74773 1.20984 0.87705 150 143 94
-0.60202 1.35119 0.48864 61 60 57
-0.60202 1.35119 0.52976 61 60 57
-0.62449 1.35119 0.54601 61 60 57
-0.62449 1.35119 0.48864 61 60 57
-0.60202 1.33924 0.48864 61 60 57
-0.62449 1.33924 0.48864 61 60 57
-0.62449 1.33924 0.54601 61 60 57
-0.60202 1.33924 0.52976 61 60 57
-0.35826 1.35119 0.48864 61 60 57
-0.33578 1.35119 0.48864 61 60 57
-0.33578 1.35119 0.54601 61 60 57
-0.35826 1.35119 0.52976 61 60 57
-0.35826 1.33924 0.48864 61 60 57
-0.33578 1.33924 0.48864 61 60 57
-0.33578 1.33924 0.54601 61 60 57
-0.35826 1.33924 0.52976 61 60 57
-0.34275 -0.21798 0.04055 242 221 122
-0.34275 -0.21798 0.83784 242 221 122
-0.2922 -0.26969 0.83784 242 221 122
-0.2922 -0.26969 0.04055 242 221 122
-0.34275 0.45424 0.04055 242 221 122
-0.34275 0.45424 0.83784 242 221 122
-0.2922 0.50595 0.04055 242 221 122
-0.2922 0.50595 0.83784 242 221 122
0.38233 0.50595 0.83784 242 221 122
0.38233 0.50595 0.04055 242 221 122
0.43288 0.45424 0.83784 242 221 122
0.43288 0.45424 0.04055 242 221 122
0.43288 -0.21798 0.04055 242 221 122
0.43288 -0.21798 0.83784 242 221 122
0.38233 -0.26969 0.83784 242 221 122
0.38233 -0.26969 0.04055 242 221 122
-0.25847 0.46717 0.87705 242 221 122
0.3486 0.46717 0.87705 242 221 122
-0.30397 0.42063 0.87705 242 221 122
-0.30397 -0.18437 0.87705 242 221 122
-0.25847 -0.2309 0.87705 242 221 122
0.3486 -0.2309 0.87705 242 221 122
0.3941 -0.18437 0.87705 242 221 122
0.3941 0.42063 0.87705 242 221 122
0.30419 -0.26969 0.61567 242 221 122
0.30419 -0.26969 0.47094 242 221 122
0.29531 -0.26969 0.62922 242 221 122
-0.20633 -0.26969 0.62922 242 221 122
-0.21406 -0.26969 0.61567 242 221 122
-0.21406 -0.26969 0.47123 242 221 122
0.08207 -0.26969 0.48361 242 221 122
0.09092 -0.26969 0.47134 242 221 122
-0.00079 -0.26969 0.47123 242 221 122
-0.25847 -0.2309 0.00186 242 221 122
0.3486 -0.2309 0.00186 242 221 122
-0.30397 -0.18437 0.00186 242 221 122
0.3941 -0.18437 0.00186 242 221 122
-0.30397 0.42063 0.00186 242 221 122
-0.25847 0.46717 0.00186 242 221 122
0.3486 0.46717 0.00186 242 221 122
0.3941 0.42063 0.00186 242 221 122
0.3941 -0.18437 0.87705 247 232 137
0.3486 -0.2309 0.87705 247 232 137
-0.25847 -0.2309 0.87705 247 232 137
-0.30397 -0.18437 0.87705 247 232 137
0.3941 0.42063 0.87705 247 232 137
-0.30397 0.42063 0.87705 247 232 137
0.3486 0.46717 0.87705 247 232 137
-0.25847 0.46717 0.87705 247 232 137
0.00786 -0.26969 0.48355 242 221 122
-0.21406 -0.24512 0.61567 242 221 122
-0.00079 -0.24512 0.47123 242 221 122
-0.21406 -0.24512 0.47123 242 221 122
-0.00079 -0.24512 0.47123 255 255 255
-0.21406 -0.24512 0.47123 255 255 255
-0.21406 -0.24512 0.61567 255 255 255
0.30419 -0.24512 0.47094 255 255 255
0.09092 -0.24512 0.47134 255 255 255
0.30419 -0.24512 0.61567 255 255 255
0.30419 -0.24512 0.47094 242 221 122
0.30419 -0.24512 0.61567 242 221 122
0.09092 -0.24512 0.47134 242 221 122
0.16694 -0.25513 0.46008 61 60 57
0.16694 -0.25513 0.51066 61 60 57
0.18942 -0.25513 0.51066 61 60 57
0.18942 -0.25513 0.46008 61 60 57
0.16694 -0.24318 0.46008 61 60 57
0.18942 -0.24318 0.46008 61 60 57
0.18942 -0.24318 0.51066 61 60 57
0.16694 -0.24318 0.51066 61 60 57
-0.07681 -0.25513 0.46008 61 60 57
-0.09929 -0.25513 0.46008 61 60 57
-0.09929 -0.25513 0.51066 61 60 57
-0.07681 -0.25513 0.51066 61 60 57
-0.07681 -0.24318 0.46008 61 60 57
-0.09929 -0.24318 0.46008 61 60 57
-0.09929 -0.24318 0.51066 61 60 57
-0.07681 -0.24318 0.51066 61 60 57
0.2011 -0.26371 0.43047 145 126 88
0.2011 -0.27659 0.43047 145 126 88
0.17921 -0.27659 0.43047 145 126 88
0.17921 -0.26371 0.43047 145 126 88
0.17921 -0.26371 0.38622 145 126 88
0.17921 -0.27659 0.38622 145 126 88
-0.05067 -0.26371 0.38622 145 126 88
-0.05067 -0.27659 0.38622 145 126 88
0.2011 -0.27659 0.36734 145 126 88
0.2011 -0.26371 0.36734 145 126 88
-0.05067 -0.26371 0.40023 145 126 88
-0.05067 -0.27659 0.40023 145 126 88
-0.07257 -0.26371 0.40023 145 126 88
-0.07257 -0.27659 0.40023 145 126 88
-0.07257 -0.27659 0.36734 145 126 88
-0.07257 -0.26371 0.36734 145 126 88
1.25019 0.32882 0.04055 242 221 122
1.25019 0.32882 0.83784 242 221 122
1.3019 0.37938 0.83784 242 221 122
1.3019 0.37938 0.04055 242 221 122
0.57797 0.32882 0.04055 242 221 122
0.57797 0.32882 0.83784 242 221 122
0.52626 0.37938 0.04055 242 221 122
0.52626 0.37938 0.83784 242 221 122
0.52626 1.05391 0.83784 242 221 122
0.52626 1.05391 0.04055 242 221 122
0.57797 1.10446 0.83784 242 221 122
0.57797 1.10446 0.04055 242 221 122
1.25019 1.10446 0.04055 242 221 122
1.25019 1.10446 0.83784 242 221 122
1.3019 1.05391 0.83784 242 221 122
1.3019 1.05391 0.04055 242 221 122
0.56504 0.4131 0.87705 242 221 122
0.56504 1.02018 0.87705 242 221 122
0.61158 0.3676 0.87705 242 221 122
1.21658 0.3676 0.87705 242 221 122
1.26311 0.4131 0.87705 242 221 122
1.26311 1.02018 0.87705 242 221 122
1.21658 1.06568 0.87705 242 221 122
0.61158 1.06568 0.87705 242 221 122
1.3019 0.97547 0.60143 242 221 122
1.3019 0.97576 0.58657 242 221 122
1.3019 0.67079 0.60143 242 221 122
1.3019 0.45781 0.60143 242 221 122
1.3019 0.76249 0.60143 242 221 122
1.3019 0.76249 0.58657 242 221 122
1.3019 0.67079 0.58657 242 221 122
1.3019 0.65846 0.42428 242 221 122
1.3019 0.63372 0.51615 242 221 122
1.3019 0.77482 0.42428 242 221 122
1.3019 0.79956 0.51615 242 221 122
1.3019 0.45752 0.58657 242 221 122
1.3019 0.49742 0.51615 242 221 122
1.26311 0.4131 0.00186 242 221 122
1.26311 1.02018 0.00186 242 221 122
1.21658 0.3676 0.00186 242 221 122
1.21658 1.06568 0.00186 242 221 122
0.61158 0.3676 0.00186 242 221 122
0.56504 0.4131 0.00186 242 221 122
0.56504 1.02018 0.00186 242 221 122
0.61158 1.06568 0.00186 242 221 122
1.3019 0.79818 0.35367 242 221 122
1.3019 0.6351 0.35367 242 221 122
1.3019 0.93586 0.51615 242 221 122
1.21658 1.06568 0.87705 247 232 137
1.26311 1.02018 0.87705 247 232 137
1.26311 0.4131 0.87705 247 232 137
1.21658 0.3676 0.87705 247 232 137
0.61158 1.06568 0.87705 247 232 137
0.61158 0.3676 0.87705 247 232 137
0.56504 1.02018 0.87705 247 232 137
0.56504 0.4131 0.87705 247 232 137
1.27733 0.67079 0.58657 255 255 255
1.27733 0.63372 0.51615 255 255 255
1.27733 0.49742 0.51615 255 255 255
1.27733 0.45752 0.58657 255 255 255
1.27733 0.93586 0.51615 255 255 255
1.27733 0.79956 0.51615 255 255 255
1.27733 0.76249 0.58657 255 255 255
1.27733 0.97576 0.58657 255 255 255
1.3019 0.67079 0.58657 230 207 95
1.27733 0.67079 0.58657 230 207 95
1.27733 0.45752 0.58657 230 207 95
1.3019 0.45752 0.58657 230 207 95
1.3019 0.45781 0.60143 230 207 95
1.3019 0.67079 0.60143 230 207 95
1.27733 0.49742 0.51615 230 207 95
1.3019 0.49742 0.51615 230 207 95
1.27733 0.63372 0.51615 230 207 95
1.3019 0.63372 0.51615 230 207 95
1.3019 0.93586 0.51615 230 207 95
1.27733 0.93586 0.51615 230 207 95
1.27733 0.97576 0.58657 230 207 95
1.3019 0.97576 0.58657 230 207 95
1.27733 0.79956 0.51615 230 207 95
1.3019 0.79956 0.51615 230 207 95
1.3019 0.76249 0.58657 230 207 95
1.27733 0.76249 0.58657 230 207 95
1.3019 0.76249 0.60143 230 207 95
1.3019 0.97547 0.60143 230 207 95
1.25497 0.6351 0.35367 187 146 125
1.25497 0.65846 0.42428 187 146 125
1.25497 0.77482 0.42428 187 146 125
1.25497 0.79818 0.35367 187 146 125
1.3019 0.6351 0.35367 187 146 125
1.3019 0.79818 0.35367 187 146 125
1.3019 0.77482 0.42428 187 146 125
1.3019 0.65846 0.42428 187 146 125
1.28734 0.84117 0.54572 61 60 57
1.28734 0.84117 0.59159 61 60 57
1.28734 0.86364 0.59159 61 60 57
1.28734 0.86364 0.54572 61 60 57
1.27539 0.84117 0.54572 61 60 57
1.27539 0.86364 0.54572 61 60 57
1.27539 0.86364 0.59159 61 60 57
1.27539 0.84117 0.59159 61 60 57
1.28734 0.59211 0.54572 61 60 57
1.28734 0.56964 0.54572 61 60 57
1.28734 0.56964 0.59159 61 60 57
1.28734 0.59211 0.59159 61 60 57
1.27539 0.59211 0.54572 61 60 57
1.27539 0.56964 0.54572 61 60 57
1.27539 0.56964 0.59159 61 60 57
1.27539 0.59211 0.59159 61 60 57
0.4987 -0.74134 0.04055 242 221 122
0.4987 -0.74134 0.83784 242 221 122
0.54926 -0.79305 0.83784 242 221 122
0.54926 -0.79305 0.04055 242 221 122
0.4987 -0.06912 0.04055 242 221 122
0.4987 -0.06912 0.83784 242 221 122
0.54926 -0.01742 0.04055 242 221 122
0.54926 -0.01742 0.83784 242 221 122
1.22379 -0.01742 0.83784 242 221 122
1.22379 -0.01742 0.04055 242 221 122
1.27434 -0.06912 0.83784 242 221 122
1.27434 -0.06912 0.04055 242 221 122
1.27434 -0.74134 0.04055 242 221 122
1.27434 -0.74134 0.83784 242 221 122
1.22379 -0.79305 0.83784 242 221 122
1.22379 -0.79305 0.04055 242 221 122
0.58298 -0.0562 0.87705 242 221 122
1.19006 -0.0562 0.87705 242 221 122
0.53749 -0.10274 0.87705 242 221 122
0.53749 -0.70773 0.87705 242 221 122
0.58298 -0.75427 0.87705 242 221 122
1.19006 -0.75427 0.87705 242 221 122
1.23556 -0.70773 0.87705 242 221 122
1.23556 -0.10274 0.87705 242 221 122
1.14564 -0.79305 0.54903 242 221 122
1.14564 -0.79305 0.4046 242 221 122
1.13476 -0.79305 0.56101 242 221 122
0.63735 -0.79305 0.56101 242 221 122
0.6274 -0.79305 0.54903 242 221 122
0.92218 -0.79305 0.4171 242 221 122
0.85051 -0.79305 0.4171 242 221 122
0.6274 -0.79305 0.4046 242 221 122
0.84067 -0.79305 0.4046 242 221 122
0.93237 -0.79305 0.4046 242 221 122
0.58298 -0.75427 0.00186 242 221 122
1.19006 -0.75427 0.00186 242 221 122
0.53749 -0.70773 0.00186 242 221 122
1.23556 -0.70773 0.00186 242 221 122
0.53749 -0.10274 0.00186 242 221 122
0.58298 -0.0562 0.00186 242 221 122
1.19006 -0.0562 0.00186 242 221 122
1.23556 -0.10274 0.00186 242 221 122
1.23556 -0.70773 0.87705 247 232 137
1.19006 -0.75427 0.87705 247 232 137
0.58298 -0.75427 0.87705 247 232 137
0.53749 -0.70773 0.87705 247 232 137
1.23556 -0.10274 0.87705 247 232 137
0.53749 -0.10274 0.87705 247 232 137
1.19006 -0.0562 0.87705 247 232 137
0.58298 -0.0562 0.87705 247 232 137
0.84067 -0.76849 0.4046 255 255 255
0.6274 -0.76849 0.4046 255 255 255
0.6274 -0.76849 0.54903 255 255 255
1.14564 -0.76849 0.4046 255 255 255
0.93237 -0.76849 0.4046 255 255 255
1.14564 -0.76849 0.54903 255 255 255
0.84067 -0.79305 0.4046 230 207 95
0.84067 -0.76849 0.4046 230 207 95
0.6274 -0.76849 0.54903 230 207 95
0.6274 -0.79305 0.54903 230 207 95
0.6274 -0.76849 0.4046 230 207 95
0.6274 -0.79305 0.4046 230 207 95
0.85051 -0.79305 0.4171 230 207 95
0.63735 -0.79305 0.56101 230 207 95
1.14564 -0.79305 0.4046 230 207 95
1.14564 -0.76849 0.4046 230 207 95
1.14564 -0.76849 0.54903 230 207 95
1.14564 -0.79305 0.54903 230 207 95
0.93237 -0.76849 0.4046 230 207 95
0.93237 -0.79305 0.4046 230 207 95
1.13476 -0.79305 0.56101 230 207 95
0.92218 -0.79305 0.4171 230 207 95
1.0084 -0.7785 0.422 61 60 57
1.0084 -0.7785 0.46312 61 60 57
1.03087 -0.7785 0.47937 61 60 57
1.03087 -0.7785 0.422 61 60 57
1.0084 -0.76654 0.422 61 60 57
1.03087 -0.76654 0.422 61 60 57
1.03087 -0.76654 0.47937 61 60 57
1.0084 -0.76654 0.46312 61 60 57
0.76464 -0.7785 0.422 61 60 57
0.74217 -0.7785 0.422 61 60 57
0.74217 -0.7785 0.47937 61 60 57
0.76464 -0.7785 0.46312 61 60 57
0.76464 -0.76654 0.422 61 60 57
0.74217 -0.76654 0.422 61 60 57
0.74217 -0.76654 0.47937 61 60 57
0.76464 -0.76654 0.46312 61 60 57
0.74444 -0.78708 0.3297 145 126 88
0.74444 -0.79996 0.3297 145 126 88
0.76791 -0.79996 0.3297 145 126 88
0.76791 -0.78708 0.3297 145 126 88
0.76791 -0.78708 0.34943 145 126 88
0.76791 -0.79996 0.34943 145 126 88
1.00514 -0.78708 0.34943 145 126 88
1.00514 -0.79996 0.34943 145 126 88
0.74444 -0.79996 0.36831 145 126 88
0.74444 -0.78708 0.36831 145 126 88
1.00514 -0.78708 0.3297 145 126 88
1.00514 -0.79996 0.3297 145 126 88
1.02861 -0.78708 0.3297 145 126 88
1.02861 -0.79996 0.3297 145 126 88
1.02861 -0.79996 0.36831 145 126 88
1.02861 -0.78708 0.36831 145 126 88
-1.27268 0.40243 0.04055 242 221 122
-1.27268 0.40243 0.83784 242 221 122
-1.32438 0.35188 0.83784 242 221 122
-1.32438 0.35188 0.04055 242 221 122
-0.60046 0.40243 0.04055 242 221 122
-0.60046 0.40243 0.83784 242 221 122
-0.54875 0.35188 0.04055 242 221 122
-0.54875 0.35188 0.83784 242 221 122
-0.54875 -0.32265 0.83784 242 221 122
-0.54875 -0.32265 0.04055 242 221 122
-0.60046 -0.3732 0.83784 242 221 122
-0.60046 -0.3732 0.04055 242 221 122
-1.27268 -0.3732 0.04055 242 221 122
-1.27268 -0.3732 0.83784 242 221 122
-1.32438 -0.32265 0.83784 242 221 122
-1.32438 -0.32265 0.04055 242 221 122
-0.58753 0.31815 0.87705 242 221 122
-0.58753 -0.28892 0.87705 242 221 122
-0.63407 0.36365 0.87705 242 221 122
-1.23907 0.36365 0.87705 242 221 122
-1.2856 0.31815 0.87705 242 221 122
-1.2856 -0.28892 0.87705 242 221 122
-1.23907 -0.33442 0.87705 242 221 122
-0.63407 -0.33442 0.87705 242 221 122
-1.32438 -0.24451 0.61567 242 221 122
-1.32438 -0.24451 0.47123 242 221 122
-1.32438 -0.23664 0.62966 242 221 122
-1.32438 0.26316 0.62966 242 221 122
-1.32438 0.27374 0.61567 242 221 122
-1.32438 -0.01934 0.48405 242 221 122
-1.32438 0.04994 0.48405 242 221 122
-1.32438 0.27374 0.47123 242 221 122
-1.32438 0.06047 0.47123 242 221 122
-1.32438 -0.03124 0.47123 242 221 122
-1.2856 0.31815 0.00186 242 221 122
-1.2856 -0.28892 0.00186 242 221 122
-1.23907 0.36365 0.00186 242 221 122
-1.23907 -0.33442 0.00186 242 221 122
-0.63407 0.36365 0.00186 242 221 122
-0.58753 0.31815 0.00186 242 221 122
-0.58753 -0.28892 0.00186 242 221 122
-0.63407 -0.33442 0.00186 242 221 122
-1.23907 -0.33442 0.87705 247 232 137
-1.2856 -0.28892 0.87705 247 232 137
-1.2856 0.31815 0.87705 247 232 137
-1.23907 0.36365 0.87705 247 232 137
-0.63407 -0.33442 0.87705 247 232 137
-0.63407 0.36365 0.87705 247 232 137
-0.58753 -0.28892 0.87705 247 232 137
-0.58753 0.31815 0.87705 247 232 137
-1.29982 0.06047 0.47123 255 255 255
-1.29982 0.27374 0.47123 255 255 255
-1.29982 0.27374 0.61567 255 255 255
-1.29982 -0.24451 0.47123 255 255 255
-1.29982 -0.03124 0.47123 255 255 255
-1.29982 -0.24451 0.61567 255 255 255
-1.32438 0.06047 0.47123 230 207 95
-1.29982 0.06047 0.47123 230 207 95
-1.29982 0.27374 0.61567 230 207 95
-1.32438 0.27374 0.61567 230 207 95
-1.29982 0.27374 0.47123 230 207 95
-1.32438 0.27374 0.47123 230 207 95
-1.32438 0.04994 0.48405 230 207 95
-1.32438 0.26316 0.62966 230 207 95
-1.32438 -0.24451 0.47123 230 207 95
-1.29982 -0.24451 0.47123 230 207 95
-1.29982 -0.24451 0.61567 230 207 95
-1.32438 -0.24451 0.61567 230 207 95
-1.29982 -0.03124 0.47123 230 207 95
-1.32438 -0.03124 0.47123 230 207 95
-1.32438 -0.23664 0.62966 230 207 95
-1.32438 -0.01934 0.48405 230 207 95
-1.30983 -0.10726 0.48864 61 60 57
-1.30983 -0.10726 0.52976 61 60 57
-1.30983 -0.12974 0.54601 61 60 57
-1.30983 -0.12974 0.48864 61 60 57
-1.29788 -0.10726 0.48864 61 60 57
-1.29788 -0.12974 0.48864 61 60 57
-1.29788 -0.12974 0.54601 61 60 57
-1.29788 -0.10726 0.52976 61 60 57
-1.30983 0.13649 0.48864 61 60 57
-1.30983 0.15897 0.48864 61 60 57
-1.30983 0.15897 0.54601 61 60 57
-1.30983 0.13649 0.52976 61 60 57
-1.29788 0.13649 0.48864 61 60 57
-1.29788 0.15897 0.48864 61 60 57
-1.29788 0.15897 0.54601 61 60 57
-1.29788 0.13649 0.52976 61 60 57
-1.31841 0.10364 0.35498 145 126 88
-1.33129 0.10364 0.35498 145 126 88
-1.33129 0.08175 0.35498 145 126 88
-1.31841 0.08175 0.35498 145 126 88
-1.31841 0.08175 0.37471 145 126 88
-1.33129 0.08175 0.37471 145 126 88
-1.31841 -0.05252 0.37471 145 126 88
-1.33129 -0.05252 0.37471 145 126 88
-1.33129 0.10364 0.39359 145 126 88
-1.31841 0.10364 0.39359 145 126 88
-1.31841 -0.05252 0.35498 145 126 88
-1.33129 -0.05252 0.35498 145 126 88
-1.31841 -0.07441 0.35498 145 126 88
-1.33129 -0.07441 0.35498 145 126 88
-1.33129 -0.07441 0.39359 145 126 88
-1.31841 -0.07441 0.39359 145 126 88
-0.75957 -1.17742 0.04055 242 221 122
-0.75957 -1.17742 0.83784 242 221 122
-0.70902 -1.22913 0.83784 242 221 122
-0.70902 -1.22913 0.04055 242 221 122
-0.75957 -0.5052 0.04055 242 221 122
-0.75957 -0.5052 0.83784 242 221 122
-0.70902 -0.45349 0.04055 242 221 122
-0.70902 -0.45349 0.83784 242 221 122
-0.03449 -0.45349 0.83784 242 221 122
-0.03449 -0.45349 0.04055 242 221 122
0.01606 -0.5052 0.83784 242 221 122
0.01606 -0.5052 0.04055 242 221 122
0.01606 -1.17742 0.04055 242 221 122
0.01606 -1.17742 0.83784 242 221 122
-0.03449 -1.22913 0.83784 242 221 122
-0.03449 -1.22913 0.04055 242 221 122
-0.67529 -0.49228 0.87705 242 221 122
-0.06822 -0.49228 0.87705 242 221 122
-0.72079 -0.53881 0.87705 242 221 122
-0.72079 -1.14381 0.87705 242 221 122
-0.67529 -1.19035 0.87705 242 221 122
-0.06822 -1.19035 0.87705 242 221 122
-0.02272 -1.14381 0.87705 242 221 122
-0.02272 -0.53881 0.87705 242 221 122
-0.11263 -1.22913 0.61567 242 221 122
-0.11263 -1.22913 0.47123 242 221 122
-0.12263 -1.22913 0.62785 242 221 122
-0.62217 -1.22913 0.62755 242 221 122
-0.63088 -1.22913 0.61567 242 221 122
-0.33865 -1.22913 0.48236 242 221 122
-0.40677 -1.22913 0.48236 242 221 122
-0.63088 -1.22913 0.47123 242 221 122
-0.41761 -1.22913 0.47123 242 221 122
-0.44132 -1.22913 0.37862 242 221 122
-0.3259 -1.22913 0.47123 242 221 122
-0.30219 -1.22913 0.37862 242 221 122
-0.46162 -1.22913 0.28857 242 221 122
-0.28189 -1.22913 0.28857 242 221 122
-0.67529 -1.19035 0.00186 242 221 122
-0.06822 -1.19035 0.00186 242 221 122
-0.72079 -1.14381 0.00186 242 221 122
-0.02272 -1.14381 0.00186 242 221 122
-0.72079 -0.53881 0.00186 242 221 122
-0.67529 -0.49228 0.00186 242 221 122
-0.06822 -0.49228 0.00186 242 221 122
-0.02272 -0.53881 0.00186 242 221 122
-0.02272 -1.14381 0.87705 247 232 137
-0.06822 -1.19035 0.87705 247 232 137
-0.67529 -1.19035 0.87705 247 232 137
-0.72079 -1.14381 0.87705 247 232 137
-0.02272 -0.53881 0.87705 247 232 137
-0.72079 -0.53881 0.87705 247 232 137
-0.06822 -0.49228 0.87705 247 232 137
-0.67529 -0.49228 0.87705 247 232 137
-0.41761 -1.20456 0.47123 255 255 255
-0.63088 -1.20456 0.47123 255 255 255
-0.63088 -1.20456 0.61567 255 255 255
-0.11263 -1.20456 0.47123 255 255 255
-0.3259 -1.20456 0.47123 255 255 255
-0.11263 -1.20456 0.61567 255 255 255
-0.41761 -1.22913 0.47123 230 207 95
-0.41761 -1.20456 0.47123 230 207 95
-0.63088 -1.20456 0.61567 230 207 95
-0.63088 -1.22913 0.61567 230 207 95
-0.63088 -1.20456 0.47123 230 207 95
-0.63088 -1.22913 0.47123 230 207 95
-0.40677 -1.22913 0.48236 230 207 95
-0.62217 -1.22913 0.62755 230 207 95
-0.11263 -1.22913 0.47123 230 207 95
-0.11263 -1.20456 0.47123 230 207 95
-0.11263 -1.20456 0.61567 230 207 95
-0.11263 -1.22913 0.61567 230 207 95
-0.3259 -1.20456 0.47123 230 207 95
-0.3259 -1.22913 0.47123 230 207 95
-0.12263 -1.22913 0.62785 230 207 95
-0.33865 -1.22913 0.48236 230 207 95
-0.46162 -1.18221 0.28857 187 146 125
-0.44132 -1.18221 0.37862 187 146 125
-0.30219 -1.18221 0.37862 187 146 125
-0.28189 -1.18221 0.28857 187 146 125
-0.46162 -1.22913 0.28857 187 146 125
-0.28189 -1.22913 0.28857 187 146 125
-0.30219 -1.22913 0.37862 187 146 125
-0.44132 -1.22913 0.37862 187 146 125
-0.24988 -1.21457 0.48864 61 60 57
-0.24988 -1.21457 0.52976 61 60 57
-0.2274 -1.21457 0.54601 61 60 57
-0.2274 -1.21457 0.48864 61 60 57
-0.24988 -1.20262 0.48864 61 60 57
-0.2274 -1.20262 0.48864 61 60 57
-0.2274 -1.20262 0.54601 61 60 57
-0.24988 -1.20262 0.52976 61 60 57
-0.49363 -1.21457 0.48864 61 60 57
-0.51611 -1.21457 0.48864 61 60 57
-0.51611 -1.21457 0.54601 61 60 57
-0.49363 -1.21457 0.52976 61 60 57
-0.49363 -1.20262 0.48864 61 60 57
-0.51611 -1.20262 0.48864 61 60 57
-0.51611 -1.20262 0.54601 61 60 57
-0.49363 -1.20262 0.52976 61 60 57
-0.08227 0.17731 0.85248 227 202 86
-0.08227 0.17731 0.8847 227 202 86
0.02588 0.17731 0.8847 227 202 86
0.02588 0.17731 0.85248 227 202 86
0.02588 -0.0012 0.85248 227 202 86
0.02588 -0.0012 0.8847 227 202 86
0.09441 -0.0012 0.85248 227 202 86
0.09441 -0.0012 0.8847 227 202 86
0.09441 0.24238 0.85248 227 202 86
0.09441 0.24238 0.8847 227 202 86
0.02588 0.24238 0.85248 227 202 86
0.02588 0.24238 0.8847 227 202 86
-0.03976 0.24238 0.8847 227 202 86
0.02588 0.47113 0.8847 227 202 86
-0.03976 0.47113 0.8847 227 202 86
0.02588 0.51448 0.84104 227 202 86
-0.03976 0.51448 0.84104 227 202 86
-0.03976 0.48245 0.85248 227 202 86
0.02588 0.48245 0.85248 227 202 86
-0.03976 0.24238 0.85248 227 202 86
0.02588 0.51448 0.38037 227 202 86
-0.03976 0.51448 0.38037 227 202 86
0.02588 0.48245 0.38037 227 202 86
-0.03976 0.48245 0.38037 227 202 86
-0.14304 0.24238 0.85248 227 202 86
-0.14304 0.24238 0.8847 227 202 86
-0.14304 0.11337 0.8847 227 202 86
-0.08227 0.11337 0.8847 227 202 86
-0.08227 0.11337 0.85248 227 202 86
-0.14304 0.11337 0.85248 227 202 86
1.3088 0.79826 0.58817 227 202 86
1.3088 0.85692 0.69214 227 202 86
1.3088 0.85692 0.58813 227 202 86
1.27572 0.79826 0.58817 227 202 86
1.27572 0.85692 0.58813 227 202 86
1.27572 0.85692 0.69214 227 202 86
1.3088 0.79826 0.74166 227 202 86
1.27572 0.79826 0.74166 227 202 86
1.3088 0.79826 0.84275 227 202 86
1.3088 0.85692 0.84275 227 202 86
1.26572 0.85692 0.88488 227 202 86
1.26572 0.79826 0.88488 227 202 86
1.00796 0.85692 0.88488 227 202 86
0.98018 0.79826 0.88488 227 202 86
1.00796 0.85692 0.85185 227 202 86
1.27601 0.85692 0.85185 227 202 86
1.27601 0.79826 0.85185 227 202 86
1.3088 0.85692 0.74166 227 202 86
1.27572 0.85692 0.74166 227 202 86
1.3088 0.93798 0.74166 227 202 86
1.27572 0.93798 0.74166 227 202 86
1.3088 0.93798 0.58818 227 202 86
1.27572 0.93798 0.58818 227 202 86
0.95146 0.85692 0.88488 227 202 86
0.77624 0.85692 0.88488 227 202 86
0.77624 0.79826 0.88488 227 202 86
0.77624 0.85692 0.85185 227 202 86
0.77624 0.79826 0.85185 227 202 86
0.95146 0.85692 0.85185 227 202 86
0.98018 0.79826 0.85185 227 202 86
0.95146 0.90614 0.88488 227 202 86
0.95146 0.90614 0.85185 227 202 86
1.00796 0.96144 0.88488 227 202 86
1.00796 0.96144 0.85185 227 202 86
0.90591 0.90614 0.88488 227 202 86
0.90591 0.90614 0.85185 227 202 86
0.90591 0.96144 0.88488 227 202 86
0.90591 0.96144 0.85185 227 202 86
1.3088 0.88831 0.69214 227 202 86
1.27572 0.88831 0.69214 227 202 86
1.27572 0.88831 0.58818 227 202 86
1.3088 0.88831 0.58818 227 202 86
1.30899 0.83833 0.0754 227 202 86
1.30899 0.83833 0.26262 227 202 86
1.30899 0.89202 0.22585 227 202 86
1.30899 0.89202 0.0754 227 202 86
1.2877 0.83833 0.0754 227 202 86
1.2877 0.89202 0.0754 227 202 86
1.2877 0.89202 0.22585 227 202 86
1.2877 0.83833 0.26262 227 202 86
1.30899 0.83833 0.51603 227 202 86
1.30899 0.89202 0.51603 227 202 86
1.2877 0.89202 0.51603 227 202 86
1.2877 0.83833 0.51603 227 202 86
1.30899 0.89202 0.27676 227 202 86
1.2877 0.89202 0.27676 227 202 86
1.2877 1.00903 0.22585 227 202 86
1.30899 1.00903 0.22585 227 202 86
1.2877 1.00903 0.27676 227 202 86
1.30899 1.00903 0.27676 227 202 86
0.58448 -0.7979 0.04515 227 202 86
0.58448 -0.7979 0.16575 227 202 86
0.6365 -0.7979 0.13656 227 202 86
0.6365 -0.7979 0.04515 227 202 86
0.58448 -0.78665 0.04515 227 202 86
0.6365 -0.78665 0.04515 227 202 86
0.6365 -0.78665 0.13656 227 202 86
0.58448 -0.78665 0.16575 227 202 86
0.58448 -0.7979 0.33327 227 202 86
0.6365 -0.7979 0.33327 227 202 86
0.6365 -0.78665 0.33327 227 202 86
0.58448 -0.78665 0.33327 227 202 86
0.6365 -0.7979 0.18865 227 202 86
0.6365 -0.78665 0.18865 227 202 86
0.74392 -0.78665 0.13656 227 202 86
0.74392 -0.7979 0.13656 227 202 86
0.69248 -0.7979 0.18865 227 202 86
0.69248 -0.78665 0.18865 227 202 86
0.69248 -0.7979 0.2433 227 202 86
0.69248 -0.78665 0.2433 227 202 86
0.74392 -0.7979 0.2433 227 202 86
0.74392 -0.78665 0.2433 227 202 86
-0.21723 -1.23665 0.56327 227 202 86
-0.21723 -1.23665 0.84275 227 202 86
-0.14405 -1.23665 0.84275 227 202 86
-0.14405 -1.23665 0.61296 227 202 86
-0.14405 -1.19357 0.88488 227 202 86
-0.21723 -1.19357 0.88488 227 202 86
-0.14405 -1.06624 0.88488 227 202 86
-0.21723 -1.06624 0.88488 227 202 86
-0.14405 -1.06618 0.86066 227 202 86
-0.14405 -1.19976 0.86075 227 202 86
-0.14405 -0.69305 0.86066 227 202 86
-0.14405 -0.69305 0.88488 227 202 86
-0.21723 -0.69305 0.88488 227 202 86
-0.21723 -0.69305 0.86071 227 202 86
-0.21723 -1.00192 0.88488 227 202 86
-0.21723 -1.00192 0.86071 227 202 86
-0.21723 -1.19976 0.86075 227 202 86
-0.34158 -1.00192 0.86061 227 202 86
-0.34158 -1.00192 0.88488 227 202 86
-0.41263 -1.06624 0.88488 227 202 86
-0.41263 -1.06624 0.86061 227 202 86
-0.21723 -1.06624 0.86071 227 202 86
-0.34158 -0.85724 0.86061 227 202 86
-0.34158 -0.85724 0.88488 227 202 86
-0.41263 -0.85724 0.86061 227 202 86
-0.41263 -0.85724 0.88488 227 202 86
-0.21723 -1.1995 0.56331 227 202 86
-0.14405 -1.1995 0.61317 227 202 86
3 0 2 1
3 0 3 2
3 4 0 1
3 4 1 5
3 5 6 4
3 5 7 6
3 6 7 8
3 6 8 9
3 9 8 10
3 9 10 11
3 12 11 10
3 12 10 13
3 14 12 13
3 14 15 12
3 8 7 16
3 8 16 17
3 10 8 17
3 7 18 16
3 7 5 18
3 5 19 18
3 5 1 19
3 1 20 19
3 1 2 20
3 2 21 20
3 2 14 21
3 14 22 21
3 14 13 22
3 13 23 22
3 13 10 23
3 10 17 23
3 15 14 24
3 15 24 25
3 26 14 2
3 24 14 26
3 26 2 27
3 27 2 28
3 3 28 2
3 3 29 28
3 30 26 27
3 30 27 31
3 32 30 31
3 29 33 32
3 32 34 30
3 33 34 32
3 34 35 25
3 33 35 34
3 3 33 29
3 3 36 33
3 3 37 36
3 25 35 37
3 3 15 37
3 25 37 15
3 15 3 38
3 15 38 39
3 39 38 40
3 3 40 38
3 39 40 41
3 3 0 40
3 0 42 40
3 41 40 42
3 0 4 42
3 4 43 42
3 4 6 43
3 6 44 43
3 6 9 44
3 9 45 44
3 45 43 44
3 45 42 43
3 41 42 45
3 9 11 45
3 11 41 45
3 11 12 41
3 12 39 41
3 12 15 39
3 46 48 47
3 46 49 48
3 47 48 50
3 47 50 51
3 48 52 50
3 48 53 52
3 54 56 55
3 57 59 58
3 53 51 52
3 53 47 51
3 60 62 61
3 60 63 62
3 63 64 62
3 63 65 64
3 65 63 66
3 65 66 67
3 65 61 64
3 65 60 61
3 68 70 69
3 68 71 70
3 68 69 72
3 68 72 73
3 73 72 74
3 73 74 75
3 76 78 77
3 76 79 78
3 80 79 76
3 80 81 79
3 81 78 79
3 81 82 78
3 82 77 78
3 82 83 77
3 83 76 77
3 83 80 76
3 84 86 85
3 84 87 86
3 87 88 86
3 87 89 88
3 89 90 88
3 89 91 90
3 91 92 90
3 91 93 92
3 93 94 92
3 93 95 94
3 95 96 94
3 95 97 96
3 97 98 96
3 97 99 98
3 99 85 98
3 99 84 85
3 100 102 101
3 100 103 102
3 103 104 102
3 103 105 104
3 105 106 104
3 105 107 106
3 107 108 106
3 107 109 108
3 109 110 108
3 109 111 110
3 111 112 110
3 111 113 112
3 113 114 112
3 113 115 114
3 115 101 114
3 115 100 101
3 116 118 117
3 116 119 118
3 120 119 116
3 120 116 117
3 120 121 119
3 119 122 118
3 119 121 122
3 120 117 123
3 124 126 125
3 124 127 126
3 128 124 125
3 128 127 124
3 128 125 129
3 125 130 129
3 125 126 130
3 128 131 127
3 132 134 133
3 132 135 134
3 136 132 133
3 136 133 137
3 137 138 136
3 137 139 138
3 138 139 140
3 138 140 141
3 141 140 142
3 141 142 143
3 144 143 142
3 144 142 145
3 146 144 145
3 146 147 144
3 140 139 148
3 140 148 149
3 142 140 149
3 139 150 148
3 139 137 150
3 137 151 150
3 137 133 151
3 133 152 151
3 133 134 152
3 134 153 152
3 134 146 153
3 146 154 153
3 146 145 154
3 145 155 154
3 145 142 155
3 142 149 155
3 147 146 156
3 147 156 157
3 158 146 134
3 156 146 158
3 158 134 159
3 159 134 160
3 135 160 134
3 135 161 160
3 162 158 159
3 163 158 162
3 163 147 157
3 164 163 162
3 135 164 161
3 135 163 164
3 135 147 163
3 147 135 165
3 147 165 166
3 166 165 167
3 135 167 165
3 166 167 168
3 135 132 167
3 132 169 167
3 168 167 169
3 132 136 169
3 136 170 169
3 136 138 170
3 138 171 170
3 138 141 171
3 141 172 171
3 172 170 171
3 172 169 170
3 168 169 172
3 141 143 172
3 143 168 172
3 143 144 168
3 144 166 168
3 144 147 166
3 173 175 174
3 173 176 175
3 177 176 173
3 177 178 176
3 179 178 177
3 179 180 178
3 181 160 164
3 181 159 160
3 164 160 182
3 164 182 183
3 160 184 182
3 160 161 184
3 164 162 181
3 162 159 181
3 185 187 186
3 188 190 189
3 161 183 184
3 161 164 183
3 157 192 191
3 157 156 192
3 156 193 192
3 156 163 193
3 163 156 158
3 163 191 193
3 163 157 191
3 194 196 195
3 194 197 196
3 198 197 194
3 198 194 195
3 198 199 197
3 197 200 196
3 197 199 200
3 198 195 201
3 196 201 195
3 196 200 201
3 202 204 203
3 202 205 204
3 206 202 203
3 206 205 202
3 206 203 207
3 203 208 207
3 203 204 208
3 206 209 205
3 204 209 208
3 204 205 209
3 210 212 211
3 210 213 212
3 214 212 213
3 214 215 212
3 215 211 212
3 215 214 216
3 215 216 217
3 215 218 211
3 218 210 211
3 218 219 210
3 217 216 220
3 217 220 221
3 221 220 222
3 221 222 223
3 224 221 223
3 224 217 221
3 218 217 224
3 218 215 217
3 219 218 224
3 219 224 225
3 225 224 223
3 225 223 222
3 226 228 227
3 226 229 228
3 230 226 227
3 230 227 231
3 231 232 230
3 231 233 232
3 232 233 234
3 232 234 235
3 235 234 236
3 235 236 237
3 238 237 236
3 238 236 239
3 240 238 239
3 240 241 238
3 234 233 242
3 234 242 243
3 236 234 243
3 233 244 242
3 233 231 244
3 231 245 244
3 231 227 245
3 227 246 245
3 227 228 246
3 228 247 246
3 228 240 247
3 240 248 247
3 240 239 248
3 239 249 248
3 239 236 249
3 236 243 249
3 241 240 250
3 241 250 251
3 252 240 228
3 253 252 228
3 252 254 240
3 254 250 240
3 255 254 252
3 255 252 256
3 257 255 256
3 258 257 256
3 257 259 255
3 255 259 260
3 229 253 228
3 229 261 253
3 229 262 261
3 241 229 263
3 241 263 264
3 264 263 265
3 229 265 263
3 264 265 266
3 229 226 265
3 226 267 265
3 266 265 267
3 226 230 267
3 230 268 267
3 230 232 268
3 232 269 268
3 232 235 269
3 235 270 269
3 270 268 269
3 270 267 268
3 266 267 270
3 235 237 270
3 237 266 270
3 237 238 266
3 238 264 266
3 238 241 264
3 229 241 271
3 229 271 272
3 229 272 257
3 229 257 262
3 273 271 241
3 273 259 271
3 260 259 273
3 262 257 258
3 241 251 273
3 274 276 275
3 274 277 276
3 278 277 274
3 278 279 277
3 280 279 278
3 280 281 279
3 282 284 283
3 282 285 284
3 286 288 287
3 286 289 288
3 290 292 291
3 290 293 292
3 290 294 293
3 290 295 294
3 293 296 292
3 293 297 296
3 297 298 296
3 297 299 298
3 298 299 290
3 298 290 291
3 300 302 301
3 300 303 302
3 304 300 301
3 304 305 300
3 306 305 304
3 306 304 307
3 303 307 302
3 303 306 307
3 303 308 306
3 303 309 308
3 310 312 311
3 310 313 312
3 314 313 310
3 314 315 313
3 315 312 313
3 315 316 312
3 316 311 312
3 316 317 311
3 317 310 311
3 317 314 310
3 318 320 319
3 318 321 320
3 322 321 318
3 322 318 319
3 322 323 321
3 321 324 320
3 321 323 324
3 322 319 325
3 326 328 327
3 326 329 328
3 330 326 327
3 330 329 326
3 330 327 331
3 327 332 331
3 327 328 332
3 330 333 329
3 334 336 335
3 334 337 336
3 338 334 335
3 338 335 339
3 339 340 338
3 339 341 340
3 340 341 342
3 340 342 343
3 343 342 344
3 343 344 345
3 346 345 344
3 346 344 347
3 348 346 347
3 348 349 346
3 342 341 350
3 342 350 351
3 344 342 351
3 341 352 350
3 341 339 352
3 339 353 352
3 339 335 353
3 335 354 353
3 335 336 354
3 336 355 354
3 336 348 355
3 348 356 355
3 348 347 356
3 347 357 356
3 347 344 357
3 344 351 357
3 349 348 358
3 349 358 359
3 360 348 336
3 358 348 360
3 360 336 361
3 361 336 362
3 363 360 361
3 363 361 364
3 337 362 336
3 337 365 362
3 366 363 364
3 337 366 365
3 366 367 363
3 337 367 366
3 367 349 359
3 337 349 367
3 349 337 368
3 349 368 369
3 369 368 370
3 337 370 368
3 369 370 371
3 337 334 370
3 334 372 370
3 371 370 372
3 334 338 372
3 338 373 372
3 338 340 373
3 340 374 373
3 340 343 374
3 343 375 374
3 375 373 374
3 375 372 373
3 371 372 375
3 343 345 375
3 345 371 375
3 345 346 371
3 346 369 371
3 346 349 369
3 376 378 377
3 376 379 378
3 380 379 376
3 380 381 379
3 382 381 380
3 382 383 381
3 384 386 385
3 387 389 388
3 390 392 391
3 390 393 392
3 393 394 392
3 393 395 394
3 396 393 390
3 396 397 393
3 395 391 394
3 395 390 391
3 398 400 399
3 398 401 400
3 401 402 400
3 401 403 402
3 403 401 404
3 403 404 405
3 403 399 402
3 403 398 399
3 406 408 407
3 406 409 408
3 410 409 406
3 410 406 407
3 410 411 409
3 409 412 408
3 409 411 412
3 410 407 413
3 414 416 415
3 414 417 416
3 418 414 415
3 418 417 414
3 418 415 419
3 415 420 419
3 415 416 420
3 418 421 417
3 422 424 423
3 422 425 424
3 426 424 425
3 426 427 424
3 427 423 424
3 427 426 428
3 427 428 429
3 427 430 423
3 430 422 423
3 430 431 422
3 429 428 432
3 429 432 433
3 433 432 434
3 433 434 435
3 436 433 435
3 436 429 433
3 430 429 436
3 430 427 429
3 431 430 436
3 431 436 437
3 437 436 435
3 437 435 434
3 438 440 439
3 438 441 440
3 442 438 439
3 442 439 443
3 443 444 442
3 443 445 444
3 444 445 446
3 444 446 447
3 447 446 448
3 447 448 449
3 450 449 448
3 450 448 451
3 452 450 451
3 452 453 450
3 446 445 454
3 446 454 455
3 448 446 455
3 445 456 454
3 445 443 456
3 443 457 456
3 443 439 457
3 439 458 457
3 439 440 458
3 440 459 458
3 440 452 459
3 452 460 459
3 452 451 460
3 451 461 460
3 451 448 461
3 448 455 461
3 453 452 462
3 453 462 463
3 464 452 440
3 462 452 464
3 464 440 465
3 465 440 466
3 467 464 465
3 467 465 468
3 441 466 440
3 441 469 466
3 470 467 468
3 441 470 469
3 470 471 467
3 441 471 470
3 471 453 463
3 441 453 471
3 453 441 472
3 453 472 473
3 473 472 474
3 441 474 472
3 473 474 475
3 441 438 474
3 438 476 474
3 475 474 476
3 438 442 476
3 442 477 476
3 442 444 477
3 444 478 477
3 444 447 478
3 447 479 478
3 479 477 478
3 479 476 477
3 475 476 479
3 447 449 479
3 449 475 479
3 449 450 475
3 450 473 475
3 450 453 473
3 480 482 481
3 480 483 482
3 484 483 480
3 484 485 483
3 486 485 484
3 486 487 485
3 488 490 489
3 491 493 492
3 494 496 495
3 494 497 496
3 497 498 496
3 497 499 498
3 500 497 494
3 500 501 497
3 499 495 498
3 499 494 495
3 502 504 503
3 502 505 504
3 505 506 504
3 505 507 506
3 507 505 508
3 507 508 509
3 507 503 506
3 507 502 503
3 510 512 511
3 510 513 512
3 514 513 510
3 514 510 511
3 514 515 513
3 513 516 512
3 513 515 516
3 514 511 517
3 518 520 519
3 518 521 520
3 522 518 519
3 522 521 518
3 522 519 523
3 519 524 523
3 519 520 524
3 522 525 521
3 526 528 527
3 526 529 528
3 530 528 529
3 530 531 528
3 531 527 528
3 531 530 532
3 531 532 533
3 531 534 527
3 534 526 527
3 534 535 526
3 533 532 536
3 533 536 537
3 537 536 538
3 537 538 539
3 540 537 539
3 540 533 537
3 534 533 540
3 534 531 533
3 535 534 540
3 535 540 541
3 541 540 539
3 541 539 538
3 542 544 543
3 542 545 544
3 546 542 543
3 546 543 547
3 547 548 546
3 547 549 548
3 548 549 550
3 548 550 551
3 551 550 552
3 551 552 553
3 554 553 552
3 554 552 555
3 556 554 555
3 556 557 554
3 550 549 558
3 550 558 559
3 552 550 559
3 549 560 558
3 549 547 560
3 547 561 560
3 547 543 561
3 543 562 561
3 543 544 562
3 544 563 562
3 544 556 563
3 556 564 563
3 556 555 564
3 555 565 564
3 555 552 565
3 552 559 565
3 557 556 566
3 557 566 567
3 568 556 544
3 566 556 568
3 568 544 569
3 569 544 570
3 571 568 569
3 571 569 572
3 545 570 544
3 545 573 570
3 574 571 572
3 573 575 574
3 574 576 571
3 575 576 574
3 576 577 567
3 575 577 576
3 545 575 573
3 545 578 575
3 545 579 578
3 567 577 579
3 545 557 579
3 567 579 557
3 557 545 580
3 557 580 581
3 581 580 582
3 545 582 580
3 581 582 583
3 545 542 582
3 542 584 582
3 583 582 584
3 542 546 584
3 546 585 584
3 546 548 585
3 548 586 585
3 548 551 586
3 551 587 586
3 587 585 586
3 587 584 585
3 583 584 587
3 551 553 587
3 553 583 587
3 553 554 583
3 554 581 583
3 554 557 581
3 588 590 589
3 588 591 590
3 592 591 588
3 592 593 591
3 594 593 592
3 594 595 593
3 596 598 597
3 599 601 600
3 602 604 603
3 602 605 604
3 605 606 604
3 605 607 606
3 608 605 602
3 608 609 605
3 607 603 606
3 607 602 603
3 610 612 611
3 610 613 612
3 613 614 612
3 613 615 614
3 615 613 616
3 615 616 617
3 615 611 614
3 615 610 611
3 618 620 619
3 618 621 620
3 622 621 618
3 622 623 621
3 623 620 621
3 623 624 620
3 624 619 620
3 624 625 619
3 625 618 619
3 625 622 618
3 626 628 627
3 626 629 628
3 630 629 626
3 630 626 627
3 630 631 629
3 629 632 628
3 629 631 632
3 630 627 633
3 634 636 635
3 634 637 636
3 638 634 635
3 638 637 634
3 638 635 639
3 635 640 639
3 635 636 640
3 638 641 637
3 642 644 643
3 642 645 644
3 644 645 646
3 644 646 647
3 647 646 648
3 647 648 649
3 650 649 648
3 650 651 649
3 651 647 649
3 651 644 647
3 652 651 650
3 652 653 651
3 653 644 651
3 654 644 653
3 643 644 654
3 654 653 655
3 654 655 656
3 657 656 655
3 657 658 656
3 658 659 656
3 655 660 657
3 653 660 655
3 653 652 660
3 656 661 654
3 656 659 661
3 658 657 662
3 658 662 663
3 659 658 663
3 657 664 662
3 657 660 664
3 659 663 665
3 654 661 666
3 654 666 667
3 643 654 667
3 643 667 668
3 643 668 669
3 670 669 668
3 670 668 671
3 667 671 668
3 667 666 671
3 642 669 670
3 642 643 669
3 663 664 665
3 663 662 664
3 672 674 673
3 675 674 672
3 675 676 674
3 674 677 673
3 674 676 677
3 678 675 672
3 678 679 675
3 680 679 678
3 678 681 680
3 680 681 682
3 680 682 683
3 683 682 684
3 683 684 685
3 682 686 684
3 682 687 686
3 681 687 682
3 688 680 683
3 688 683 685
3 679 680 688
3 678 689 681
3 689 690 681
3 690 687 681
3 690 689 691
3 690 691 692
3 693 692 691
3 693 694 692
3 685 684 695
3 685 695 696
3 685 696 697
3 697 696 698
3 695 698 696
3 697 698 699
3 695 700 698
3 701 697 699
3 701 685 697
3 688 685 701
3 700 695 702
3 700 702 703
3 695 704 702
3 695 684 704
3 684 705 704
3 684 686 705
3 703 702 706
3 703 706 707
3 707 706 708
3 702 708 706
3 702 704 708
3 707 708 709
3 704 709 708
3 704 705 709
3 672 689 678
3 672 673 689
3 689 673 710
3 673 711 710
3 673 677 711
3 689 710 691
3 691 710 693
3 710 711 712
3 710 712 713
3 693 710 713
3 713 694 693
3 713 712 694
3 714 716 715
3 714 717 716
3 718 717 714
3 718 714 715
3 718 719 717
3 717 720 716
3 717 719 720
3 718 715 721
3 721 715 722
3 715 723 722
3 722 723 724
3 722 724 725
3 721 722 725
3 715 726 723
3 726 724 723
3 726 727 724
3 715 716 726
3 716 720 728
3 716 728 729
3 726 716 729
3 729 728 730
3 729 730 731
3 726 729 731
3 727 726 731
3 727 731 730
3 732 734 733
3 732 735 734
3 736 735 732
3 736 732 733
3 736 737 735
3 735 738 734
3 735 737 738
3 736 733 739
3 739 733 740
3 733 741 740
3 740 741 742
3 740 742 743
3 739 740 743
3 733 744 741
3 744 742 741
3 744 745 742
3 733 734 744
3 734 738 746
3 734 746 747
3 744 734 747
3 745 744 748
3 745 748 749
3 744 747 748
3 749 748 750
3 749 750 751
3 751 750 752
3 748 752 750
3 748 747 752
3 751 752 753
3 747 746 753
3 747 753 752
3 754 756 755
3 754 757 756
3 755 756 758
3 755 758 759
3 759 758 760
3 759 760 761
3 762 760 758
3 762 758 763
3 763 758 756
3 760 762 764
3 760 764 765
3 766 765 764
3 766 764 767
3 767 768 766
3 768 765 766
3 768 760 765
3 761 760 768
3 767 769 768
3 759 770 755
3 768 769 771
3 768 771 772
3 761 768 772
3 761 772 773
3 774 761 773
3 774 775 761
3 772 771 776
3 772 776 777
3 773 772 777
3 777 776 778
3 773 778 774
3 777 778 779
3 773 779 778
3 773 777 779
3 775 770 759
3 775 759 761
3 755 770 780
3 755 780 754
3 781 754 780
3 781 757 754
3 756 757 781
3 756 781 763
