mtllib Relicanth_F.mtl
v -0.162111 0.262254 -0.197919
vt 0.624151 0.450011
vn -0.9433109 0.0178934 -0.331428
v -0.181225 0.126981 0
vt 0.391508 0.12903
vn -0.8879553 -0.4595462 0.01877981
v -0.209261 0.242044 0
vt 0.399341 0.390253
vn -0.9915106 -0.07175808 -0.108432
v -0.114631 0.09845103 -0.197919
vt 0.624151 0.0613322
vn -0.749148 -0.558025 -0.356911
v -0.186659 0.29069 -0.0014558
vt 0.393219 0.517483
vn -0.9577439 0.252058 -0.13854
v -0.0764271 0.190245 -0.335416
vt 0.785771 0.279145
vn -0.707827 -0.28585 -0.645965
v -0.175442 0.38605 0.0374554
vt 0.347481 0.743758
vn -0.9098328 0.4148139 0.0115636
v -0.0764271 0.317678 -0.335416
vt 0.785771 0.581523
vn -0.696612 0.287032 -0.657529
v -0.114631 0.409473 -0.197919
vt 0.624151 0.799336
vn -0.7554202 0.5635741 -0.3342521
v -0.10463 0.03402483 0
vt 0.391508 0.00734587
vn -0.6092829 -0.7924629 0.0278745
v -0.0739888 0.05159883 0.114563
vt 0.256845 0.00734587
vn -0.5928691 -0.7554172 0.2790181
v -0.128152 0.126974 0.198429
vt 0.177411 0.038605
vn -0.5972391 -0.7421611 0.3041421
vt 0.399324 0.390131
v 0 0.126988 -0.335416
vt 0.785771 0.129045
vn 2.223321E-06 -0.7010123 -0.7131492
v -0.188723 0.297876 0.0622538
vt 0.318332 0.534536
vn -0.9157779 0.193312 0.35211
vt 0.398277 0.399731
v 0 0.380936 -0.335416
vt 0.785771 0.731623
vn 2.230511E-06 0.6996292 -0.7145061
v -0.10463 0.473899 0
vt 0.391508 0.952209
vn -0.5910342 0.8005962 -0.09861213
v -2.00447E-06 0.473887 -0.197919
vt 0.641414 0.944913
vn -3.206721E-06 0.9255682 -0.378581
v 0 0.06673413 0.193816
vt 0.177515 0.00734587
vn 0 -0.9477639 0.318973
v 0 0.25314 -0.381451
vt 0.839882 0.428383
vn 0 -0.00127084 -0.9999992
vt 0.38802 0.414853
v -0.228263 0.247054 -0.000271761
vt 0.39013 0.379683
vn -0.8975831 0.263593 0.35336
v -0.163751 0.116408 0.204839
vt 0.17175 0.0426329
vn -0.8165748 0.2829539 0.5031329
v -0.10931 0.192671 0.24253
vt 0.112762 0.28685
vn -0.7941906 0.04252758 0.6061787
v -0.107005 0.284378 0.257568
vt 0.0887507 0.502507
vn -0.7348502 0.14495 0.6625592
v -0.0964697 0.464423 0.0970523
vt 0.277428 0.929724
vn -0.5130761 0.8023111 0.305041
v -0.120694 0.380949 0.189917
vt 0.168271 0.731654
vn -0.721532 0.456306 0.520746
v 0.114627 0.409473 -0.197919
vn 0.7554691 0.5635051 -0.334258
v 0 0.507923 0
vt 0.402411 1.09291
vn 1.25686E-06 0.9995002 -0.03161131
v 0.10463 0.473899 0
vn 0.591036 0.8005939 -0.09862038
v 0.0739888 0.05159883 0.114563
vn 0.5928687 -0.7554176 0.2790179
v 0.128152 0.126974 0.198429
vn 0.5947341 -0.7423881 0.308466
v 0.0764271 0.190245 -0.335416
vn 0.7078851 -0.285823 -0.6459131
v 0.114626 0.09845103 -0.197919
vn 0.74919 -0.5579641 -0.356918
v 0 0.241732 0.320965
vt 0.017974 0.408266
vn -0.4922268 0.1972809 0.8478166
v -0.05687 0.184824 0.278608
vt 0.0690996 0.291996
vn -0.5730321 -0.26397 0.775857
vn 0.1868251 -0.8863714 -0.4236062
vt 0.158265 0.129014
vt 0.0664562 0.291617
v 0 0.469046 0.166395
vt 0.195921 0.940694
vn -0.3508159 0.8130367 0.4646499
v 0.0764271 0.317678 -0.335416
vn 0.6966702 0.2870091 -0.6574773
v 0.0964697 0.464423 0.0970523
vn 0.5130761 0.8023111 0.305041
v 0.175442 0.38605 0.0374554
vn 0.9098478 0.4147819 0.0115299
v 0.181225 0.126981 0
vn 0.8879687 -0.4595218 0.01874379
v 0.10463 0.03402483 0
vn 0.6092841 -0.7924621 0.027869
v 0.162073 0.262254 -0.197919
vn 0.9433178 0.0178814 -0.3314089
vn -0.138697 -0.8769698 -0.4600948
v 0 0.07472693 0.274973
vt -0.0740241 -0.0876013
vn 0 -0.745622 0.6663691
v 0 0.227511 0.336001
vt -0.0146477 0.390956
vn 0 -0.19589 0.9806259
vt 0.00838468 0.434446
vn 0.3508159 0.8130367 0.4646499
v 0.209261 0.242044 0
vn 0.9914971 -0.07176041 -0.108554
v 0.186659 0.29069 -0.0014558
vn 0.9577111 0.252098 -0.138694
v 0.120694 0.380949 0.189917
vn 0.721532 0.456306 0.520746
v 0.188723 0.297876 0.0622538
vn 0.9157779 0.193312 0.35211
vt 0.384245 0.380907
vn -0.2260251 -0.8799335 -0.4178872
v 0.05687 0.184824 0.278608
vn 0.5730321 -0.26397 0.775857
vt 0.163688 -0.0139268
vt 0.152906 0.119269
v 0.10931 0.192671 0.24253
vn 0.7941903 0.04252741 0.6061792
v 0.163751 0.116408 0.204839
vn 0.8165748 0.2829539 0.5031329
v 0.107005 0.284378 0.257568
vn 0.7348502 0.14495 0.6625592
v 0.228263 0.247054 -0.000271761
vn 0.8975831 0.263593 0.35336
vn 0.4922269 0.19728 0.8478168
vn -0.187722 -0.9007781 -0.3916111
vn 0.167892 -0.8565221 -0.488039
vn 0.218052 -0.852769 -0.474593
v -2.00447E-06 0.03403633 -0.197919
vt 0.945583 0.0724156
vn -3.187409E-06 -0.9255678 -0.3785819
v 0 2.980232E-08 0
vn 1.33686E-06 -0.9994829 -0.0321563
v 0 0.02815143 0.120147
v 0 0.5899271 -0.07974
vt 0.255114 0.934145
vn 0 0.9882801 -0.152652
v 0.0415664 0.480867 -0.0492363
vn 0.9244202 0.373666 0.07629561
v 0 0.480867 -0.131606
vn 0 0.4294781 -0.9030773
v 0 0.480867 0.0331335
vn 0 0.719149 0.694856
v -0.0415664 0.480867 -0.0492363
vn -0.9244202 0.373666 0.07629561
v 0 0.138383 -0.5082641
vt 0.99892 0.167499
vn 1 0 0
vt 0.795783 0.73158
vt 0.795783 0.140999
v 0 0.372205 -0.5082641
vt 0.99892 0.711275
vn -1 0 0
vt 0.154392 0.836138
vt 0.136887 0.545601
v 0 0.380949 0.272109
vt 5.07832E-05 0.673809
vn -0.4354961 0.5187642 0.7356812
vt 5.07832E-05 1.02575
vn 0.4354961 0.5187642 0.7356812
v 0 0.489116 -0.463694
vt 0.965094 0.0488147
v 0 0.0214715 -0.463694
v 0 -0.09165887 -0.43043
vt 0.948196 0.199518
v 0 0.00667414 -0.410473
vt 0.926591 -0.0278637
v 0 0.02721833 -0.200204
vt 0.729626 0.0186708
v 0 0.611953 -0.43043
vt 0.959136 0.992448
v 0 0.493076 -0.200204
vt 0.709892 0.735053
v 0 0.51362 -0.410473
vt 0.93753 0.779536
v 0.239303 -0.05279138 0.0635279
vt 0.947049 -0.0229024
vn 0.8658639 0.351927 0.355566
v 0.259561 -0.01701038 -0.0212177
vt 0.946775 0.164294
v 0.1578 0.108347 0.102513
vt 0.726938 0.0582994
v -0.259561 -0.01701038 -0.0212177
vn -0.8658639 0.351927 0.355566
v -0.239303 -0.05279138 0.0635279
v -0.1578 0.108347 0.102513
v 0.239303 -0.06095968 -0.0842189
vt 0.944435 -0.0207022
vn 0.863402 0.274129 0.423545
v 0.259561 -0.008264547 -0.15962
vt 0.949222 0.163268
v 0.1578 0.09298233 -0.0177092
vt 0.724432 0.0570959
v -0.259561 -0.008264547 -0.15962
vn -0.863402 0.274129 0.423545
v -0.239303 -0.06095968 -0.0842189
v -0.1578 0.09298233 -0.0177092
vt 0.0282616 0.521981
vn -0.8658639 -0.351927 -0.355566
vn 0.8658639 -0.351927 -0.355566
vn -0.863402 -0.274129 -0.423545
vn 0.863402 -0.274129 -0.423545
o merged_0_0_node
g polygon_0
usemtl mat_karada_mat_id
f 1/1/1 2/2/2 3/3/3
f 1/1/1 4/4/4 2/2/2
f 1/1/1 3/3/3 5/5/5
f 1/1/1 6/6/6 4/4/4
f 1/1/1 5/5/5 7/7/7
f 1/1/1 8/8/8 6/6/6
f 1/1/1 7/7/7 9/9/9
f 1/1/1 9/9/9 8/8/8
f 2/2/2 10/10/10 11/11/11
f 2/2/2 11/11/11 12/12/12
f 2/2/2 12/12/12 3/13/3
f 4/4/4 6/6/6 13/14/13
f 5/5/5 14/15/14 7/7/7
f 5/5/5 3/16/3 14/15/14
f 9/9/9 15/17/15 8/8/8
f 9/9/9 7/7/7 16/18/16
f 9/9/9 17/19/17 15/17/15
f 9/9/9 16/18/16 17/19/17
f 11/11/11 18/20/18 12/12/12
f 6/6/6 19/21/19 13/14/13
f 6/6/6 8/8/8 19/21/19
f 8/8/8 15/17/15 19/21/19
f 14/15/14 3/22/3 20/23/20
f 14/15/14 20/23/20 21/24/21
f 14/15/14 21/24/21 22/25/22
f 14/15/14 22/25/22 23/26/23
f 7/7/7 24/27/24 16/18/16
f 7/7/7 25/28/25 24/27/24
f 17/19/17 26/9/26 15/17/15
f 17/19/17 16/18/16 27/29/27
f 17/19/17 28/18/28 26/9/26
f 17/19/17 27/29/27 28/18/28
f 16/18/16 24/27/24 27/29/27
f 18/20/18 29/11/29 30/12/30
f 13/14/13 19/21/19 31/6/31
f 13/14/13 31/6/31 32/4/32
f 22/25/22 33/30/33 23/26/23
f 22/25/22 34/31/34 33/30/33
f 22/25/22 21/24/35 12/32/12
f 22/25/22 12/32/12 34/33/34
f 25/28/25 35/34/36 24/27/24
f 24/27/24 35/34/36 27/29/27
f 15/17/15 26/9/26 36/8/37
f 15/17/15 36/8/37 19/21/19
f 19/21/19 36/8/37 31/6/31
f 28/18/28 27/29/27 37/27/38
f 28/18/28 38/7/39 26/9/26
f 28/18/28 37/27/38 38/7/39
f 29/11/29 39/2/40 30/12/30
f 29/11/29 40/10/41 39/2/40
f 32/4/32 31/6/31 41/1/42
f 32/4/32 41/1/42 39/2/40
f 26/9/26 41/1/42 36/8/37
f 26/9/26 38/7/39 41/1/42
f 36/8/37 41/1/42 31/6/31
f 21/24/35 20/23/43 12/32/12
f 34/33/34 12/32/12 42/35/44
f 34/33/34 42/35/44 43/36/45
f 34/33/34 43/36/45 33/37/33
f 27/29/27 35/34/46 37/27/38
f 30/12/30 39/2/40 44/13/47
f 38/7/39 45/5/48 41/1/42
f 38/7/39 37/27/38 46/28/49
f 38/7/39 47/15/50 45/5/48
f 46/28/49 37/27/38 35/34/46
f 20/23/43 3/38/51 12/32/12
f 42/35/44 48/33/52 43/36/45
f 42/35/44 12/32/12 18/39/18
f 42/35/44 30/40/30 48/33/52
f 42/35/44 18/39/18 30/40/30
f 39/2/40 41/1/42 44/3/47
f 44/3/47 41/1/42 45/5/48
f 47/15/50 44/16/47 45/5/48
f 47/15/50 49/25/53 50/24/54
f 47/15/50 51/26/55 49/25/53
f 47/15/50 50/24/54 52/23/56
f 47/15/50 52/23/56 44/22/47
f 30/40/30 49/25/53 48/33/52
f 43/36/45 48/33/52 33/37/57
f 51/26/55 33/30/57 49/25/53
f 33/30/57 48/31/52 49/25/53
f 49/25/53 30/32/30 50/24/58
f 30/32/30 44/38/59 50/24/58
f 44/38/59 52/23/60 50/24/58
f 53/41/61 32/41/32 40/41/41
f 53/41/61 13/41/13 32/41/32
f 53/41/61 40/41/41 54/41/62
f 53/41/61 4/41/4 13/41/13
f 53/41/61 54/41/62 10/41/10
f 53/41/61 10/41/10 4/41/4
f 32/41/32 39/41/40 40/41/41
f 54/41/62 11/41/11 10/41/10
f 54/41/62 40/41/41 29/41/29
f 54/41/62 55/41/18 11/41/11
f 54/41/62 29/41/29 55/41/18
f 4/41/4 10/41/10 2/41/2
f 11/41/11 55/41/18 18/41/18
f 18/41/18 55/41/18 29/41/29
f 56/42/63 57/42/64 58/42/65
f 56/42/63 59/42/66 57/42/64
f 56/42/63 58/42/65 60/42/67
f 56/42/63 60/42/67 59/42/66
f 61/43/68 15/44/68 13/45/68
f 61/43/68 62/46/68 15/44/68
f 15/44/69 61/43/69 13/45/69
f 15/44/69 62/46/69 61/43/69
f 25/47/25 23/48/23 63/49/70
f 25/47/25 63/49/70 35/50/36
f 46/47/49 63/49/71 51/48/55
f 46/47/49 35/50/46 63/49/71
f 64/51/68 15/51/68 62/51/68
f 65/51/68 61/51/68 13/51/68
f 64/51/69 62/51/69 15/51/69
f 65/51/69 13/51/69 61/51/69
f 66/52/68 67/53/68 68/54/68
f 69/55/68 70/56/68 71/57/68
f 66/52/69 68/54/69 67/53/69
f 69/55/69 71/57/69 70/56/69
f 72/58/72 73/59/72 74/60/72
f 75/59/73 76/58/73 77/60/73
f 78/61/74 79/62/74 80/63/74
f 81/62/75 82/61/75 83/63/75
f 33/64/33 63/64/70 23/64/23
f 63/64/71 33/64/57 51/64/55
f 72/58/76 74/60/76 73/59/76
f 75/59/77 77/60/77 76/58/77
f 78/61/78 80/63/78 79/62/78
f 81/62/79 83/63/79 82/61/79
vt 0.287158 0.975047
vt 1.33258 0.983792
vt 1.16254 0.832641
vt -0.176727 0.809501
o merged_1_0_node
g polygon_0
usemtl TEX_ANIM_EYE_mat_id
f 25/65/25 7/66/7 14/67/14
f 14/67/14 23/68/23 25/65/25
f 51/68/55 47/67/50 46/65/49
f 47/67/50 38/66/39 46/65/49
