mtllib Staryu.mtl
v 0.142855 0.307586 0.0633684
vt 0.943272 0.0466981
vn 0.523043 0.301979 0.7970161
v 0.0824772 0.367963 0.0633684
vn 0.301979 0.523043 0.7970161
v 0.0576171 0.258374 0.137951
v 0.0332653 0.282726 0.137951
v 0 0.390063 0.0633684
vn 0 0.6039581 0.7970161
v 0 0.291639 0.137951
v -0.0824772 0.367963 0.0633684
vn -0.301979 0.523043 0.7970161
v -0.0332652 0.282726 0.137951
v -0.142855 0.307586 0.0633684
vn -0.523043 0.301979 0.7970161
v -0.0576171 0.258374 0.137951
v -0.164954 0.225109 0.0633684
vn -0.6039581 0 0.7970161
v -0.0665305 0.225109 0.137951
v -0.142855 0.142631 0.0633684
vn -0.523043 -0.301979 0.7970161
v -0.0576171 0.191843 0.137951
v -0.0824772 0.08225389 0.0633684
vn -0.301979 -0.523043 0.7970161
v -0.0332653 0.167491 0.137951
v 0 0.06015418 0.0633684
vn 0 -0.6039581 0.7970161
v 0 0.158578 0.137951
v 0.0824772 0.08225389 0.0633684
vn 0.301979 -0.523043 0.7970161
v 0.0332653 0.167491 0.137951
v 0.142855 0.142631 0.0633684
vn 0.523043 -0.301979 0.7970161
v 0.0576171 0.191843 0.137951
v 0.164954 0.225109 0.0633684
vn 0.6039581 0 0.7970161
v 0.0665305 0.225109 0.137951
vn 0 0 -1
v 0 0.225109 0.0633684
vn 0 0 1
v 0 0.225109 0.137951
v 0.156344 0.193176 0.0633684
vt 0.918371 0.0466981
v -0.0228204 0.06629839 0.0633661
v 0.0228 0.06634428 0.0633661
v 0.192121 0.193806 -0.000349829
vn -0.5751378 0.8026387 -0.1580749
v 0.0785182 0.119297 -0.0876264
v -0.0228204 0.03787158 -0.010209
vn 0.6594653 -0.1396631 -0.7386473
v 0.178294 0.145545 -0.00350982
vn 0.3870631 -0.479385 -0.7876371
v 0.098869 0.08952519 -0.0638876
vn 0.01646229 -0.7388557 -0.6736627
v 0.0227491 0.03816009 0
vn 0.5495051 -0.8103521 0.203405
vn 0.8528135 -0.2504351 0.4582482
vn -0.2436179 -0.9046938 0.3495419
vn -0.08752952 -0.9455452 0.3135011
vn -0.03325219 -0.9327189 0.359068
vn -0.0315611 -0.9477001 0.317598
vn 0.2408249 -0.8868778 0.3942729
v 0.00992658 0.290276 0.121101
vt 0.936777 0.0466981
vn 0.09117826 0.1579249 0.9832326
v 0.0514738 0.266289 0.121101
v 0.0457088 0.352253 0.107828
vn 0.2164961 0.374981 0.9013982
v 0.087256 0.328266 0.107828
v 0.0698014 0.393983 0.0635785
vn 0.3381939 0.5857689 0.7365458
v 0.111349 0.369995 0.0635785
v -0.0121195 0.32581 0.0635785
v 0.0932696 0.264963 0.0635785
vn 0.8556233 -0.2394761 0.4588682
vn -0.6352038 0.6212539 0.4588679
v -0.0514738 0.266289 0.121101
vn -0.09117815 0.1579251 0.9832326
v -0.00992658 0.290276 0.121101
v -0.087256 0.328266 0.107828
vn -0.2164961 0.374981 0.9013982
v -0.0457088 0.352253 0.107828
v -0.111349 0.369995 0.0635785
vn -0.3381939 0.5857689 0.7365458
v -0.0698014 0.393983 0.0635785
v -0.0932696 0.264963 0.0635785
v 0.0121195 0.32581 0.0635785
vn 0.6352035 0.6212536 0.4588687
vn -0.8556233 -0.2394761 0.4588682
v -0.0614004 0.201121 0.121101
vn -0.1823569 0 0.9832324
v -0.0614004 0.249096 0.121101
v -0.132965 0.201121 0.107828
vn -0.4329911 0 0.9013982
v -0.132965 0.249096 0.107828
v -0.18115 0.201121 0.0635785
vn -0.6763872 0 0.7365462
v -0.18115 0.249096 0.0635785
v -0.0811501 0.164262 0.0635785
v -0.0811501 0.285955 0.0635785
vn -0.22042 0.8607289 0.458869
vn -0.22042 -0.8607289 0.458869
v -0.00992658 0.159941 0.121101
vn -0.09117826 -0.1579249 0.9832326
v -0.0514738 0.183928 0.121101
v -0.0457088 0.09796388 0.107828
vn -0.2164961 -0.374981 0.9013982
v -0.087256 0.121951 0.107828
v -0.0698014 0.05623429 0.0635785
vn -0.3381939 -0.5857689 0.7365458
v -0.111349 0.08022159 0.0635785
v 0.0121195 0.124407 0.0635785
v -0.0932696 0.185254 0.0635785
vn -0.8556233 0.2394761 0.4588682
vn 0.6352029 -0.621254 0.458869
v 0.0514738 0.183928 0.121101
vn 0.09117826 -0.1579249 0.9832326
v 0.00992658 0.159941 0.121101
v 0.087256 0.121951 0.107828
vn 0.2164961 -0.374981 0.9013982
v 0.0457088 0.09796388 0.107828
v 0.111349 0.08022159 0.0635785
vn 0.3381939 -0.5857689 0.7365458
v 0.0698014 0.05623429 0.0635785
v 0.0932696 0.185254 0.0635785
v -0.0121195 0.124407 0.0635785
vn -0.6352038 -0.6212539 0.4588679
vn 0.8556233 0.2394761 0.4588682
v 0.0614004 0.249096 0.121101
vn 0.1823569 0 0.9832324
v 0.0614004 0.201121 0.121101
v 0.132965 0.249096 0.107828
vn 0.4329911 0 0.9013982
v 0.132965 0.201121 0.107828
v 0.18115 0.249096 0.0635785
vn 0.6763872 0 0.7365462
v 0.18115 0.201121 0.0635785
v 0.0811501 0.285955 0.0635785
v 0.0811501 0.164262 0.0635785
vn 0.22042 -0.8607289 0.458869
vn 0.22042 0.8607289 0.458869
v 0.165252 0.01486768 0
vt 0.503151 0.728938
vn 0.2662909 -0.3665179 0.8914897
v 0 0.225109 0.135798
v 0.148917 0.002999365 0
v 0.251036 0.31729 0
vn 0.4308488 0.139992 0.8914996
v 0.257276 0.298087 0
v -0.0100762 0.49233 0
vn 0 0.4530409 0.8914897
v 0.00977661 0.49233 0
v -0.148878 0.002999345 0
vn -0.2663091 -0.3665421 0.8914742
v -0.165213 0.01486759 0
vn -0.190712 0.6117189 0.7677428
v -0.100762 0.364128 0
v -0.250997 0.31729 0
vn 0.5211202 0.3714331 0.7684212
v 0.101153 0.364128 0
vn -0.5234252 0.3702552 0.7674224
v -0.257237 0.298087 0
vn -0.5138989 -0.3837349 0.7672388
v -0.163157 0.172096 0
vn -0.430897 0.140007 0.891474
vn -0.6413068 0.008385878 0.7672387
vn 0.2052699 -0.6069888 0.7677427
v 0.000195798 0.05341278 0
vn -0.2058301 -0.6072043 0.7674223
vn 0.6401291 0.006935661 0.7682361
v 0.163549 0.172096 0
vn 0.5138187 -0.3822378 0.7680395
vn 0.1910139 0.6112518 0.7680397
vn 0.2662909 -0.3665179 -0.8914897
v 0 0.225109 -0.135798
vn 0.4308492 0.1399921 -0.8914994
vn 0 0.4530409 -0.8914897
vn -0.2663091 -0.3665421 -0.8914742
vn -0.190712 0.6117189 -0.7677428
vn 0.5211202 0.3714331 -0.7684212
vn -0.5234252 0.3702552 -0.7674224
vn -0.5138989 -0.3837349 -0.7672388
vn -0.430897 0.140007 -0.891474
vn -0.6413068 0.008385878 -0.7672387
vn 0.2052699 -0.6069888 -0.7677427
vn -0.2058301 -0.6072043 -0.7674223
vn 0.6401291 0.006935661 -0.7682361
vn 0.5138187 -0.3822378 -0.7680395
vn 0.1910139 0.6112518 -0.7680397
o merged_0_0_node
g polygon_0
usemtl lambert3_mat_id
f 1/1/1 2/1/2 3/1/1
f 3/1/1 2/1/2 4/1/2
f 2/1/2 5/1/3 4/1/2
f 4/1/2 5/1/3 6/1/3
f 5/1/3 7/1/4 6/1/3
f 6/1/3 7/1/4 8/1/4
f 7/1/4 9/1/5 8/1/4
f 8/1/4 9/1/5 10/1/5
f 9/1/5 11/1/6 10/1/5
f 10/1/5 11/1/6 12/1/6
f 11/1/6 13/1/7 12/1/6
f 12/1/6 13/1/7 14/1/7
f 13/1/7 15/1/8 14/1/7
f 14/1/7 15/1/8 16/1/8
f 15/1/8 17/1/9 16/1/8
f 16/1/8 17/1/9 18/1/9
f 17/1/9 19/1/10 18/1/9
f 18/1/9 19/1/10 20/1/10
f 19/1/10 21/1/11 20/1/10
f 20/1/10 21/1/11 22/1/11
f 21/1/11 23/1/12 22/1/11
f 22/1/11 23/1/12 24/1/12
f 23/1/12 1/1/1 24/1/12
f 24/1/12 1/1/1 3/1/1
f 2/1/13 1/1/13 25/1/13
f 5/1/13 2/1/13 25/1/13
f 7/1/13 5/1/13 25/1/13
f 9/1/13 7/1/13 25/1/13
f 11/1/13 9/1/13 25/1/13
f 13/1/13 11/1/13 25/1/13
f 15/1/13 13/1/13 25/1/13
f 17/1/13 15/1/13 25/1/13
f 19/1/13 17/1/13 25/1/13
f 21/1/13 19/1/13 25/1/13
f 23/1/13 21/1/13 25/1/13
f 1/1/13 23/1/13 25/1/13
f 3/1/14 4/1/14 26/1/14
f 4/1/14 6/1/14 26/1/14
f 6/1/14 8/1/14 26/1/14
f 8/1/14 10/1/14 26/1/14
f 10/1/14 12/1/14 26/1/14
f 12/1/14 14/1/14 26/1/14
f 14/1/14 16/1/14 26/1/14
f 16/1/14 18/1/14 26/1/14
f 18/1/14 20/1/14 26/1/14
f 20/1/14 22/1/14 26/1/14
f 22/1/14 24/1/14 26/1/14
f 24/1/14 3/1/14 26/1/14
f 27/2/14 28/2/14 21/2/14
f 28/2/14 17/2/14 21/2/14
f 29/2/14 21/2/14 17/2/14
f 30/2/15 31/2/15 27/2/15
f 27/2/15 31/2/15 28/2/15
f 31/2/15 32/2/15 28/2/15
f 30/2/16 33/2/16 31/2/17
f 31/2/17 33/2/16 34/2/17
f 32/2/18 31/2/17 35/2/18
f 35/2/18 31/2/17 34/2/17
f 33/2/19 21/2/19 34/2/19
f 21/2/19 29/2/19 34/2/19
f 29/2/19 35/2/19 34/2/19
f 21/2/20 33/2/20 27/2/20
f 27/2/20 33/2/20 30/2/20
f 28/2/21 32/2/22 17/2/23
f 17/2/23 32/2/22 35/2/24
f 35/2/24 29/2/25 17/2/23
f 36/3/26 37/3/26 38/3/27
f 38/3/27 37/3/26 39/3/27
f 38/3/27 39/3/27 40/3/28
f 40/3/28 39/3/27 41/3/28
f 40/3/13 41/3/13 42/3/13
f 42/3/13 41/3/13 43/3/13
f 37/3/29 43/3/29 39/3/29
f 39/3/29 43/3/29 41/3/29
f 36/3/30 38/3/30 42/3/30
f 42/3/30 38/3/30 40/3/30
f 44/3/31 45/3/31 46/3/32
f 46/3/32 45/3/31 47/3/32
f 46/3/32 47/3/32 48/3/33
f 48/3/33 47/3/32 49/3/33
f 48/3/13 49/3/13 50/3/13
f 50/3/13 49/3/13 51/3/13
f 45/3/34 51/3/34 47/3/34
f 47/3/34 51/3/34 49/3/34
f 44/3/35 46/3/35 50/3/35
f 50/3/35 46/3/35 48/3/35
f 52/3/36 53/3/36 54/3/37
f 54/3/37 53/3/36 55/3/37
f 54/3/37 55/3/37 56/3/38
f 56/3/38 55/3/37 57/3/38
f 56/3/13 57/3/13 58/3/13
f 58/3/13 57/3/13 59/3/13
f 53/3/39 59/3/39 55/3/39
f 55/3/39 59/3/39 57/3/39
f 52/3/40 54/3/40 58/3/40
f 58/3/40 54/3/40 56/3/40
f 60/3/41 61/3/41 62/3/42
f 62/3/42 61/3/41 63/3/42
f 62/3/42 63/3/42 64/3/43
f 64/3/43 63/3/42 65/3/43
f 64/3/13 65/3/13 66/3/13
f 66/3/13 65/3/13 67/3/13
f 61/3/44 67/3/44 63/3/44
f 63/3/44 67/3/44 65/3/44
f 60/3/45 62/3/45 66/3/45
f 66/3/45 62/3/45 64/3/45
f 68/3/46 69/3/46 70/3/47
f 70/3/47 69/3/46 71/3/47
f 70/3/47 71/3/47 72/3/48
f 72/3/48 71/3/47 73/3/48
f 72/3/13 73/3/13 74/3/13
f 74/3/13 73/3/13 75/3/13
f 69/3/49 75/3/49 71/3/49
f 71/3/49 75/3/49 73/3/49
f 68/3/50 70/3/50 74/3/50
f 74/3/50 70/3/50 72/3/50
f 76/3/51 77/3/51 78/3/52
f 78/3/52 77/3/51 79/3/52
f 78/3/52 79/3/52 80/3/53
f 80/3/53 79/3/52 81/3/53
f 80/3/13 81/3/13 82/3/13
f 82/3/13 81/3/13 83/3/13
f 77/3/54 83/3/54 79/3/54
f 79/3/54 83/3/54 81/3/54
f 76/3/55 78/3/55 82/3/55
f 82/3/55 78/3/55 80/3/55
f 84/4/56 85/4/56 86/4/56
f 87/4/57 85/4/57 88/4/57
f 89/4/58 85/4/58 90/4/58
f 91/4/59 85/4/59 92/4/59
f 85/4/60 93/4/60 94/4/60
f 90/4/61 85/4/61 95/4/61
f 89/4/62 93/4/62 85/4/62
f 96/4/63 97/4/63 85/4/63
f 96/4/64 85/4/64 94/4/64
f 85/4/65 97/4/65 92/4/65
f 91/4/66 98/4/66 85/4/66
f 85/4/67 98/4/67 86/4/67
f 84/4/68 99/4/68 85/4/68
f 85/4/69 99/4/69 88/4/69
f 87/4/70 95/4/70 85/4/70
f 84/4/71 86/4/71 100/4/71
f 87/4/72 88/4/72 100/4/72
f 89/4/73 90/4/73 100/4/73
f 91/4/74 92/4/74 100/4/74
f 100/4/75 94/4/75 93/4/75
f 90/4/76 95/4/76 100/4/76
f 89/4/77 100/4/77 93/4/77
f 96/4/78 100/4/78 97/4/78
f 96/4/79 94/4/79 100/4/79
f 100/4/80 92/4/80 97/4/80
f 91/4/81 100/4/81 98/4/81
f 100/4/82 86/4/82 98/4/82
f 84/4/83 100/4/83 99/4/83
f 100/4/84 88/4/84 99/4/84
f 87/4/85 100/4/85 95/4/85
v 0.0635256 0.200844 0.122285
vt 0.99806 0.309758
vn 0.8398534 -0.3304172 0.4306632
v 0.0579417 0.225109 0.144961
vt 0.954281 0.5
vn 0.7353191 0 0.6777211
v 0.039261 0.185848 0.147146
vt 0.807818 0.192182
vn 0.4877402 -0.4815261 0.7281772
v 0 0.161583 0.106921
vt 0.5 0.00193964
vn 0 -1 0
v 0.0358099 0.167167 0.122285
vt 0.780761 0.0457194
vn 0.443187 -0.815296 0.372663
v 0 0.161583 0.13765
vn 0 -0.8734879 0.4868459
v 0 0.189299 0.158975
vt 0.5 0.219239
vn 0 -0.3777901 0.9258913
v -0.039261 0.185848 0.147146
vt 0.192182 0.192182
vn -0.4877402 -0.4815261 0.7281772
v 0 0.288634 0.13765
vt 0.5 0.99806
vn 0 0.8734879 0.4868459
v 0.0358099 0.28305 0.122285
vt 0.780761 0.954281
vn 0.4431878 0.8152956 0.3726628
v 0 0.288634 0.106921
vn 0 1 0
v -0.0242646 0.225109 0.16251
vt 0.309758 0.5
vn -0.243838 0 0.969816
v 0 0.260918 0.158975
vt 0.5 0.780761
vn 0 0.3777898 0.9258915
v -0.039261 0.26437 0.147146
vt 0.192182 0.807818
vn -0.4877402 0.4815261 0.7281772
v -0.0579417 0.225109 0.144961
vt 0.0457194 0.5
vn -0.7353191 0 0.6777211
v -0.0358099 0.28305 0.122285
vt 0.219239 0.954281
vn -0.4431878 0.8152956 0.3726628
v 0.039261 0.26437 0.147146
vt 0.807818 0.807818
vn 0.4877402 0.4815261 0.7281772
v 0.0242646 0.225109 0.16251
vt 0.690242 0.5
vn 0.243838 0 0.969816
v 0.0635256 0.249373 0.122285
vt 0.99806 0.690242
vn 0.839853 0.330417 0.430664
v -0.0358099 0.167167 0.122285
vt 0.219239 0.0457194
vn -0.443187 -0.815296 0.372663
v -0.0635256 0.200844 0.122285
vt 0.00193964 0.309758
vn -0.8398533 -0.3304168 0.4306637
v -0.0635256 0.249373 0.122285
vt 0.00193964 0.690242
vn -0.839853 0.330417 0.430664
o merged_1_0_node
g polygon_0
usemtl ENV_body_mat_id
f 101/5/86 102/6/87 103/7/88
f 104/8/89 105/9/90 106/8/91
f 106/8/91 107/10/92 108/11/93
f 109/12/94 110/13/95 111/12/96
f 112/14/97 113/15/98 114/16/99
f 114/16/99 115/17/100 112/14/97
f 111/12/96 116/18/101 109/12/94
f 117/19/102 118/20/103 102/6/87
f 102/6/87 118/20/103 103/7/88
f 119/21/104 102/6/87 101/5/86
f 117/19/102 102/6/87 119/21/104
f 101/5/86 103/7/88 105/9/90
f 105/9/90 103/7/88 106/8/91
f 118/20/103 112/14/97 107/10/92
f 107/10/92 112/14/97 108/11/93
f 103/7/88 107/10/92 106/8/91
f 118/20/103 107/10/92 103/7/88
f 106/8/91 108/11/93 120/22/105
f 120/22/105 108/11/93 121/23/106
f 106/8/91 120/22/105 104/8/89
f 117/19/102 110/13/95 109/12/94
f 119/21/104 110/13/95 117/19/102
f 117/19/102 109/12/94 113/15/98
f 113/15/98 109/12/94 114/16/99
f 118/20/103 113/15/98 112/14/97
f 117/19/102 113/15/98 118/20/103
f 121/23/106 108/11/93 115/17/100
f 115/17/100 108/11/93 112/14/97
f 122/24/107 115/17/100 114/16/99
f 121/23/106 115/17/100 122/24/107
f 122/24/107 114/16/99 116/18/101
f 116/18/101 114/16/99 109/12/94
